<?xml version="1.0" encoding="UTF-8" standalone="no"?>
<!DOCTYPE svg PUBLIC "-//W3C//DTD SVG 1.1//EN"
 "http://www.w3.org/Graphics/SVG/1.1/DTD/svg11.dtd">
<!-- Generated by graphviz version 2.40.1 (20161225.0304)
 -->
<!-- Title: boxptr_System_realMaxLit Pages: 1 -->
<svg width="400pt" height="66pt"
 viewBox="0.00 0.00 400.00 66.00" xmlns="http://www.w3.org/2000/svg" xmlns:xlink="http://www.w3.org/1999/xlink">
<g id="graph0" class="graph" transform="scale(1 1) rotate(0) translate(4 62)">
<title>boxptr_System_realMaxLit</title>
<polygon fill="#ffffff" stroke="transparent" points="-4,4 -4,-62 396,-62 396,4 -4,4"/>
<!-- Node225 -->
<g id="node1" class="node">
<title>Node225</title>
<polygon fill="#bfbfbf" stroke="#000000" points="0,-19.5 0,-38.5 133,-38.5 133,-19.5 0,-19.5"/>
<text text-anchor="middle" x="66.5" y="-26.5" font-family="Helvetica,sans-Serif" font-size="10.00" fill="#000000">boxptr_System_realMaxLit</text>
</g>
<!-- Node226 -->
<g id="node2" class="node">
<title>Node226</title>
<g id="a_node2"><a xlink:href="../../d1/d95/_system_8c.html#a46cda50dd57eb0027bd9b667490ae71a" target="_top" xlink:title="omc_System_realMaxLit">
<polygon fill="#ffffff" stroke="#000000" points="169,-38.5 169,-57.5 294,-57.5 294,-38.5 169,-38.5"/>
<text text-anchor="middle" x="231.5" y="-45.5" font-family="Helvetica,sans-Serif" font-size="10.00" fill="#000000">omc_System_realMaxLit</text>
</a>
</g>
</g>
<!-- Node225&#45;&gt;Node226 -->
<g id="edge1" class="edge">
<title>Node225&#45;&gt;Node226</title>
<path fill="none" stroke="#191970" d="M133.1362,-36.6733C141.6219,-37.6504 150.3403,-38.6543 158.9137,-39.6416"/>
<polygon fill="#191970" stroke="#191970" points="158.5542,-43.1232 168.889,-40.7902 159.355,-36.1692 158.5542,-43.1232"/>
</g>
<!-- Node228 -->
<g id="node4" class="node">
<title>Node228</title>
<g id="a_node4"><a xlink:href="../../de/df6/meta__modelica_8c.html#a994c9ac929c95a38707b78980f397484" target="_top" xlink:title="mmc_mk_rcon">
<polygon fill="#ffffff" stroke="#000000" points="191,-.5 191,-19.5 272,-19.5 272,-.5 191,-.5"/>
<text text-anchor="middle" x="231.5" y="-7.5" font-family="Helvetica,sans-Serif" font-size="10.00" fill="#000000">mmc_mk_rcon</text>
</a>
</g>
</g>
<!-- Node225&#45;&gt;Node228 -->
<g id="edge3" class="edge">
<title>Node225&#45;&gt;Node228</title>
<path fill="none" stroke="#191970" d="M133.1362,-21.3267C148.9784,-19.5025 165.6316,-17.5849 180.6386,-15.8568"/>
<polygon fill="#191970" stroke="#191970" points="181.201,-19.3152 190.735,-14.6942 180.4002,-12.3612 181.201,-19.3152"/>
</g>
<!-- Node227 -->
<g id="node3" class="node">
<title>Node227</title>
<g id="a_node3"><a xlink:href="../../d2/d57/build_2include_2omc_2c_2meta_2meta__modelica__builtin_8h.html#a2107b5571b57d2ebdf811ad5a4944960" target="_top" xlink:title="realMaxLit">
<polygon fill="#ffffff" stroke="#000000" points="330,-38.5 330,-57.5 392,-57.5 392,-38.5 330,-38.5"/>
<text text-anchor="middle" x="361" y="-45.5" font-family="Helvetica,sans-Serif" font-size="10.00" fill="#000000">realMaxLit</text>
</a>
</g>
</g>
<!-- Node226&#45;&gt;Node227 -->
<g id="edge2" class="edge">
<title>Node226&#45;&gt;Node227</title>
<path fill="none" stroke="#191970" d="M294.3533,-48C302.9564,-48 311.6042,-48 319.6885,-48"/>
<polygon fill="#191970" stroke="#191970" points="319.9404,-51.5001 329.9403,-48 319.9403,-44.5001 319.9404,-51.5001"/>
</g>
</g>
</svg>
