<?xml version="1.0" encoding="UTF-8" standalone="no"?>
<!DOCTYPE svg PUBLIC "-//W3C//DTD SVG 1.1//EN"
 "http://www.w3.org/Graphics/SVG/1.1/DTD/svg11.dtd">
<!-- Generated by graphviz version 2.40.1 (20161225.0304)
 -->
<!-- Title: omc_System_lpsolve55 Pages: 1 -->
<svg width="571pt" height="351pt"
 viewBox="0.00 0.00 571.00 351.00" xmlns="http://www.w3.org/2000/svg" xmlns:xlink="http://www.w3.org/1999/xlink">
<g id="graph0" class="graph" transform="scale(1 1) rotate(0) translate(4 347)">
<title>omc_System_lpsolve55</title>
<polygon fill="#ffffff" stroke="transparent" points="-4,4 -4,-347 567,-347 567,4 -4,4"/>
<!-- Node7519 -->
<g id="node1" class="node">
<title>Node7519</title>
<polygon fill="#bfbfbf" stroke="#000000" points="0,-152.5 0,-171.5 121,-171.5 121,-152.5 0,-152.5"/>
<text text-anchor="middle" x="60.5" y="-159.5" font-family="Helvetica,sans-Serif" font-size="10.00" fill="#000000">omc_System_lpsolve55</text>
</g>
<!-- Node7520 -->
<g id="node2" class="node">
<title>Node7520</title>
<g id="a_node2"><a xlink:href="../../d8/d28/_compiler_2boot_2build_2system_8h.html#a2bd34bf84bb2d2744cca6f38094412c1" target="_top" xlink:title="SystemImpl__lpsolve55">
<polygon fill="#ffffff" stroke="#000000" points="157,-152.5 157,-171.5 278,-171.5 278,-152.5 157,-152.5"/>
<text text-anchor="middle" x="217.5" y="-159.5" font-family="Helvetica,sans-Serif" font-size="10.00" fill="#000000">SystemImpl__lpsolve55</text>
</a>
</g>
</g>
<!-- Node7519&#45;&gt;Node7520 -->
<g id="edge1" class="edge">
<title>Node7519&#45;&gt;Node7520</title>
<path fill="none" stroke="#191970" d="M121.2003,-162C129.635,-162 138.3591,-162 146.9547,-162"/>
<polygon fill="#191970" stroke="#191970" points="146.9612,-165.5001 156.9611,-162 146.9611,-158.5001 146.9612,-165.5001"/>
</g>
<!-- Node7521 -->
<g id="node3" class="node">
<title>Node7521</title>
<g id="a_node3"><a xlink:href="../../dc/d1d/errorext_8cpp.html#a047d4d5c78747e74b613f2b01941a106" target="_top" xlink:title="c_add_message">
<polygon fill="#ffffff" stroke="#000000" points="314,-304.5 314,-323.5 402,-323.5 402,-304.5 314,-304.5"/>
<text text-anchor="middle" x="358" y="-311.5" font-family="Helvetica,sans-Serif" font-size="10.00" fill="#000000">c_add_message</text>
</a>
</g>
</g>
<!-- Node7520&#45;&gt;Node7521 -->
<g id="edge2" class="edge">
<title>Node7520&#45;&gt;Node7521</title>
<path fill="none" stroke="#191970" d="M222.205,-171.7297C234.2693,-195.7627 268.5789,-258.6159 314,-295 316.0456,-296.6386 318.254,-298.1617 320.5542,-299.5728"/>
<polygon fill="#191970" stroke="#191970" points="319.2597,-302.8491 329.7301,-304.4681 322.5546,-296.673 319.2597,-302.8491"/>
</g>
<!-- Node7522 -->
<g id="node4" class="node">
<title>Node7522</title>
<g id="a_node4"><a xlink:href="../../d8/d6b/zpipe_8c.html#a2d4b6b347931ecd8c90017c53a7d9009" target="_top" xlink:title="inf">
<polygon fill="#ffffff" stroke="#000000" points="343.5,-266.5 343.5,-285.5 372.5,-285.5 372.5,-266.5 343.5,-266.5"/>
<text text-anchor="middle" x="358" y="-273.5" font-family="Helvetica,sans-Serif" font-size="10.00" fill="#000000">inf</text>
</a>
</g>
</g>
<!-- Node7520&#45;&gt;Node7522 -->
<g id="edge3" class="edge">
<title>Node7520&#45;&gt;Node7522</title>
<path fill="none" stroke="#191970" d="M225.0818,-171.5352C240.2572,-190.1048 276.1681,-231.5268 314,-257 320.1211,-261.1215 327.2819,-264.6677 334.0273,-267.5425"/>
<polygon fill="#191970" stroke="#191970" points="332.8569,-270.8433 343.4434,-271.2629 335.4292,-264.333 332.8569,-270.8433"/>
</g>
<!-- Node7528 -->
<g id="node10" class="node">
<title>Node7528</title>
<g id="a_node10"><a xlink:href="../../d6/d84/3rd_party_2open62541_2open62541_8h.html#a362b656d9de3289b55b1035d14cb4b5d" target="_top" xlink:title="memset">
<polygon fill="#ffffff" stroke="#000000" points="332,-228.5 332,-247.5 384,-247.5 384,-228.5 332,-228.5"/>
<text text-anchor="middle" x="358" y="-235.5" font-family="Helvetica,sans-Serif" font-size="10.00" fill="#000000">memset</text>
</a>
</g>
</g>
<!-- Node7520&#45;&gt;Node7528 -->
<g id="edge9" class="edge">
<title>Node7520&#45;&gt;Node7528</title>
<path fill="none" stroke="#191970" d="M232.5428,-171.6894C251.2498,-183.5495 284.3438,-203.9139 314,-219 317.5691,-220.8156 321.3512,-222.62 325.1401,-224.3533"/>
<polygon fill="#191970" stroke="#191970" points="323.8946,-227.6295 334.4551,-228.4811 326.7306,-221.2298 323.8946,-227.6295"/>
</g>
<!-- Node7529 -->
<g id="node11" class="node">
<title>Node7529</title>
<g id="a_node11"><a xlink:href="../../dc/de4/3rd_party_2lpsolve_2build_2include_2lpsolve_2lp__lib_8h.html#a68a0333d84dd944f67e2a0ec72e346a9" target="_top" xlink:title="make_lp">
<polygon fill="#ffffff" stroke="#000000" points="331.5,-190.5 331.5,-209.5 384.5,-209.5 384.5,-190.5 331.5,-190.5"/>
<text text-anchor="middle" x="358" y="-197.5" font-family="Helvetica,sans-Serif" font-size="10.00" fill="#000000">make_lp</text>
</a>
</g>
</g>
<!-- Node7520&#45;&gt;Node7529 -->
<g id="edge10" class="edge">
<title>Node7520&#45;&gt;Node7529</title>
<path fill="none" stroke="#191970" d="M252.9541,-171.589C273.9124,-177.2574 300.3987,-184.421 321.5318,-190.1367"/>
<polygon fill="#191970" stroke="#191970" points="320.8615,-193.5811 331.4285,-192.8134 322.6892,-186.8239 320.8615,-193.5811"/>
</g>
<!-- Node7530 -->
<g id="node12" class="node">
<title>Node7530</title>
<g id="a_node12"><a xlink:href="../../dc/de4/3rd_party_2lpsolve_2build_2include_2lpsolve_2lp__lib_8h.html#ad44dc4ccf8ffb59f33d4cfef4863b91f" target="_top" xlink:title="set_verbose">
<polygon fill="#ffffff" stroke="#000000" points="323,-152.5 323,-171.5 393,-171.5 393,-152.5 323,-152.5"/>
<text text-anchor="middle" x="358" y="-159.5" font-family="Helvetica,sans-Serif" font-size="10.00" fill="#000000">set_verbose</text>
</a>
</g>
</g>
<!-- Node7520&#45;&gt;Node7530 -->
<g id="edge11" class="edge">
<title>Node7520&#45;&gt;Node7530</title>
<path fill="none" stroke="#191970" d="M278.3082,-162C289.7734,-162 301.5804,-162 312.4774,-162"/>
<polygon fill="#191970" stroke="#191970" points="312.6055,-165.5001 322.6055,-162 312.6054,-158.5001 312.6055,-165.5001"/>
</g>
<!-- Node7531 -->
<g id="node13" class="node">
<title>Node7531</title>
<g id="a_node13"><a xlink:href="../../dc/de4/3rd_party_2lpsolve_2build_2include_2lpsolve_2lp__lib_8h.html#a4e2bfafbba4e32fe6a547335360a3ad8" target="_top" xlink:title="get_infinite">
<polygon fill="#ffffff" stroke="#000000" points="326,-114.5 326,-133.5 390,-133.5 390,-114.5 326,-114.5"/>
<text text-anchor="middle" x="358" y="-121.5" font-family="Helvetica,sans-Serif" font-size="10.00" fill="#000000">get_infinite</text>
</a>
</g>
</g>
<!-- Node7520&#45;&gt;Node7531 -->
<g id="edge12" class="edge">
<title>Node7520&#45;&gt;Node7531</title>
<path fill="none" stroke="#191970" d="M252.9541,-152.411C272.1481,-147.2197 295.9785,-140.7745 316.0874,-135.3358"/>
<polygon fill="#191970" stroke="#191970" points="317.1812,-138.6658 325.9206,-132.6763 315.3536,-131.9086 317.1812,-138.6658"/>
</g>
<!-- Node7532 -->
<g id="node14" class="node">
<title>Node7532</title>
<g id="a_node14"><a xlink:href="../../dc/de4/3rd_party_2lpsolve_2build_2include_2lpsolve_2lp__lib_8h.html#aedbfc4848142a059f24d6fc89b8d674e" target="_top" xlink:title="set_lowbo">
<polygon fill="#ffffff" stroke="#000000" points="327.5,-76.5 327.5,-95.5 388.5,-95.5 388.5,-76.5 327.5,-76.5"/>
<text text-anchor="middle" x="358" y="-83.5" font-family="Helvetica,sans-Serif" font-size="10.00" fill="#000000">set_lowbo</text>
</a>
</g>
</g>
<!-- Node7520&#45;&gt;Node7532 -->
<g id="edge13" class="edge">
<title>Node7520&#45;&gt;Node7532</title>
<path fill="none" stroke="#191970" d="M232.5428,-152.3106C251.2498,-140.4505 284.3438,-120.0861 314,-105 317.5691,-103.1844 321.3512,-101.38 325.1401,-99.6467"/>
<polygon fill="#191970" stroke="#191970" points="326.7306,-102.7702 334.4551,-95.5189 323.8946,-96.3705 326.7306,-102.7702"/>
</g>
<!-- Node7533 -->
<g id="node15" class="node">
<title>Node7533</title>
<g id="a_node15"><a xlink:href="../../dc/de4/3rd_party_2lpsolve_2build_2include_2lpsolve_2lp__lib_8h.html#adc9936d860d7678bd885f9784ae35f22" target="_top" xlink:title="set_constr_type">
<polygon fill="#ffffff" stroke="#000000" points="315,-38.5 315,-57.5 401,-57.5 401,-38.5 315,-38.5"/>
<text text-anchor="middle" x="358" y="-45.5" font-family="Helvetica,sans-Serif" font-size="10.00" fill="#000000">set_constr_type</text>
</a>
</g>
</g>
<!-- Node7520&#45;&gt;Node7533 -->
<g id="edge14" class="edge">
<title>Node7520&#45;&gt;Node7533</title>
<path fill="none" stroke="#191970" d="M225.0818,-152.4648C240.2572,-133.8952 276.1681,-92.4732 314,-67 316.6918,-65.1876 319.5845,-63.4864 322.5546,-61.9047"/>
<polygon fill="#191970" stroke="#191970" points="324.1061,-65.0422 331.5731,-57.5259 321.0487,-58.7452 324.1061,-65.0422"/>
</g>
<!-- Node7534 -->
<g id="node16" class="node">
<title>Node7534</title>
<g id="a_node16"><a xlink:href="../../dc/de4/3rd_party_2lpsolve_2build_2include_2lpsolve_2lp__lib_8h.html#a21ce2e5c2697a784e679f1b3ae596d92" target="_top" xlink:title="set_mat">
<polygon fill="#ffffff" stroke="#000000" points="332,-.5 332,-19.5 384,-19.5 384,-.5 332,-.5"/>
<text text-anchor="middle" x="358" y="-7.5" font-family="Helvetica,sans-Serif" font-size="10.00" fill="#000000">set_mat</text>
</a>
</g>
</g>
<!-- Node7520&#45;&gt;Node7534 -->
<g id="edge15" class="edge">
<title>Node7520&#45;&gt;Node7534</title>
<path fill="none" stroke="#191970" d="M222.205,-152.2703C234.2693,-128.2373 268.5789,-65.3841 314,-29 316.5976,-26.9192 319.4577,-25.0248 322.4348,-23.3093"/>
<polygon fill="#191970" stroke="#191970" points="324.2251,-26.3262 331.5718,-18.6922 321.068,-20.0785 324.2251,-26.3262"/>
</g>
<!-- Node7523 -->
<g id="node5" class="node">
<title>Node7523</title>
<g id="a_node5"><a xlink:href="../../d4/d55/gun_8c.html#a43f04018566627e305440b8734deb9db" target="_top" xlink:title="in">
<polygon fill="#ffffff" stroke="#000000" points="453.5,-323.5 453.5,-342.5 482.5,-342.5 482.5,-323.5 453.5,-323.5"/>
<text text-anchor="middle" x="468" y="-330.5" font-family="Helvetica,sans-Serif" font-size="10.00" fill="#000000">in</text>
</a>
</g>
</g>
<!-- Node7522&#45;&gt;Node7523 -->
<g id="edge4" class="edge">
<title>Node7522&#45;&gt;Node7523</title>
<path fill="none" stroke="#191970" d="M372.8604,-281.9179C381.4805,-285.4739 392.4805,-290.2239 402,-295 416.4085,-302.229 432.0629,-311.1914 444.5083,-318.5965"/>
<polygon fill="#191970" stroke="#191970" points="442.9529,-321.7453 453.3261,-323.9012 446.5614,-315.7471 442.9529,-321.7453"/>
</g>
<!-- Node7524 -->
<g id="node6" class="node">
<title>Node7524</title>
<g id="a_node6"><a xlink:href="../../d1/dd1/3rd_party_2gc_2include_2gc_8h.html#acacfa47efcc44a29f7bb7d98f2a000f8" target="_top" xlink:title="void">
<polygon fill="#ffffff" stroke="#000000" points="450.5,-285.5 450.5,-304.5 485.5,-304.5 485.5,-285.5 450.5,-285.5"/>
<text text-anchor="middle" x="468" y="-292.5" font-family="Helvetica,sans-Serif" font-size="10.00" fill="#000000">void</text>
</a>
</g>
</g>
<!-- Node7522&#45;&gt;Node7524 -->
<g id="edge5" class="edge">
<title>Node7522&#45;&gt;Node7524</title>
<path fill="none" stroke="#191970" d="M372.8351,-278.5624C389.9923,-281.5259 418.6154,-286.4699 439.9982,-290.1633"/>
<polygon fill="#191970" stroke="#191970" points="439.676,-293.6594 450.1259,-291.9126 440.8675,-286.7616 439.676,-293.6594"/>
</g>
<!-- Node7525 -->
<g id="node7" class="node">
<title>Node7525</title>
<g id="a_node7"><a xlink:href="../../dd/d5f/_f_m_i_l_2_third_party_2_zlib_2zlib-1_82_86_2inflate_8c.html#aed3136bc8afc3ef309b731b4ad724534" target="_top" xlink:title="inflateEnd">
<polygon fill="#ffffff" stroke="#000000" points="438,-247.5 438,-266.5 498,-266.5 498,-247.5 438,-247.5"/>
<text text-anchor="middle" x="468" y="-254.5" font-family="Helvetica,sans-Serif" font-size="10.00" fill="#000000">inflateEnd</text>
</a>
</g>
</g>
<!-- Node7522&#45;&gt;Node7525 -->
<g id="edge6" class="edge">
<title>Node7522&#45;&gt;Node7525</title>
<path fill="none" stroke="#191970" d="M372.8351,-273.4376C386.8531,-271.0163 408.525,-267.273 427.6485,-263.9698"/>
<polygon fill="#191970" stroke="#191970" points="428.3948,-267.3928 437.6531,-262.2417 427.2033,-260.495 428.3948,-267.3928"/>
</g>
<!-- Node7527 -->
<g id="node9" class="node">
<title>Node7527</title>
<g id="a_node9"><a xlink:href="../../dd/d5f/_f_m_i_l_2_third_party_2_zlib_2zlib-1_82_86_2inflate_8c.html#a9a49cf8b6ce882dea33505b0ac84ecef" target="_top" xlink:title="inflate">
<polygon fill="#ffffff" stroke="#000000" points="446.5,-209.5 446.5,-228.5 489.5,-228.5 489.5,-209.5 446.5,-209.5"/>
<text text-anchor="middle" x="468" y="-216.5" font-family="Helvetica,sans-Serif" font-size="10.00" fill="#000000">inflate</text>
</a>
</g>
</g>
<!-- Node7522&#45;&gt;Node7527 -->
<g id="edge8" class="edge">
<title>Node7522&#45;&gt;Node7527</title>
<path fill="none" stroke="#191970" d="M372.8604,-270.0821C381.4805,-266.5261 392.4805,-261.7761 402,-257 416.126,-249.9128 431.4495,-241.1594 443.7726,-233.8408"/>
<polygon fill="#191970" stroke="#191970" points="445.7702,-236.7239 452.5417,-228.5754 442.1667,-230.7226 445.7702,-236.7239"/>
</g>
<!-- Node7526 -->
<g id="node8" class="node">
<title>Node7526</title>
<g id="a_node8"><a xlink:href="../../da/d6c/group__jm__vector.html#gaac2916bbf5bdc0c66a10d0bd32c9134b" target="_top" xlink:title="if">
<polygon fill="#ffffff" stroke="#000000" points="534,-247.5 534,-266.5 563,-266.5 563,-247.5 534,-247.5"/>
<text text-anchor="middle" x="548.5" y="-254.5" font-family="Helvetica,sans-Serif" font-size="10.00" fill="#000000">if</text>
</a>
</g>
</g>
<!-- Node7525&#45;&gt;Node7526 -->
<g id="edge7" class="edge">
<title>Node7525&#45;&gt;Node7526</title>
<path fill="none" stroke="#191970" d="M498.4336,-257C506.7596,-257 515.6823,-257 523.6553,-257"/>
<polygon fill="#191970" stroke="#191970" points="523.7936,-260.5001 533.7936,-257 523.7936,-253.5001 523.7936,-260.5001"/>
</g>
</g>
</svg>
