<?xml version="1.0" encoding="UTF-8" standalone="no"?>
<!DOCTYPE svg PUBLIC "-//W3C//DTD SVG 1.1//EN"
 "http://www.w3.org/Graphics/SVG/1.1/DTD/svg11.dtd">
<!-- Generated by graphviz version 2.40.1 (20161225.0304)
 -->
<!-- Title: boxptr_System_getCurrentTime Pages: 1 -->
<svg width="529pt" height="66pt"
 viewBox="0.00 0.00 529.00 66.00" xmlns="http://www.w3.org/2000/svg" xmlns:xlink="http://www.w3.org/1999/xlink">
<g id="graph0" class="graph" transform="scale(1 1) rotate(0) translate(4 62)">
<title>boxptr_System_getCurrentTime</title>
<polygon fill="#ffffff" stroke="transparent" points="-4,4 -4,-62 525,-62 525,4 -4,4"/>
<!-- Node66 -->
<g id="node1" class="node">
<title>Node66</title>
<polygon fill="#bfbfbf" stroke="#000000" points="0,-19.5 0,-38.5 155,-38.5 155,-19.5 0,-19.5"/>
<text text-anchor="middle" x="77.5" y="-26.5" font-family="Helvetica,sans-Serif" font-size="10.00" fill="#000000">boxptr_System_getCurrentTime</text>
</g>
<!-- Node67 -->
<g id="node2" class="node">
<title>Node67</title>
<g id="a_node2"><a xlink:href="../../d1/d95/_system_8c.html#a20e2916477ae397b7607ce30c3387ee3" target="_top" xlink:title="omc_System_getCurrentTime">
<polygon fill="#ffffff" stroke="#000000" points="191,-38.5 191,-57.5 338,-57.5 338,-38.5 191,-38.5"/>
<text text-anchor="middle" x="264.5" y="-45.5" font-family="Helvetica,sans-Serif" font-size="10.00" fill="#000000">omc_System_getCurrentTime</text>
</a>
</g>
</g>
<!-- Node66&#45;&gt;Node67 -->
<g id="edge1" class="edge">
<title>Node66&#45;&gt;Node67</title>
<path fill="none" stroke="#191970" d="M155.1803,-36.8926C163.691,-37.7574 172.3818,-38.6404 180.9596,-39.5119"/>
<polygon fill="#191970" stroke="#191970" points="180.657,-42.9991 190.9596,-40.528 181.3647,-36.035 180.657,-42.9991"/>
</g>
<!-- Node69 -->
<g id="node4" class="node">
<title>Node69</title>
<g id="a_node4"><a xlink:href="../../de/df6/meta__modelica_8c.html#a994c9ac929c95a38707b78980f397484" target="_top" xlink:title="mmc_mk_rcon">
<polygon fill="#ffffff" stroke="#000000" points="224,-.5 224,-19.5 305,-19.5 305,-.5 224,-.5"/>
<text text-anchor="middle" x="264.5" y="-7.5" font-family="Helvetica,sans-Serif" font-size="10.00" fill="#000000">mmc_mk_rcon</text>
</a>
</g>
</g>
<!-- Node66&#45;&gt;Node69 -->
<g id="edge3" class="edge">
<title>Node66&#45;&gt;Node69</title>
<path fill="none" stroke="#191970" d="M155.1803,-21.1074C174.9852,-19.0951 195.7655,-16.9837 213.8263,-15.1487"/>
<polygon fill="#191970" stroke="#191970" points="214.2415,-18.6246 223.8364,-14.1316 213.5338,-11.6604 214.2415,-18.6246"/>
</g>
<!-- Node68 -->
<g id="node3" class="node">
<title>Node68</title>
<g id="a_node3"><a xlink:href="../../d8/d28/_compiler_2boot_2build_2system_8h.html#a52289b2bc4967b25585299e325fb8ec1" target="_top" xlink:title="SystemImpl__getCurrentTime">
<polygon fill="#ffffff" stroke="#000000" points="374,-38.5 374,-57.5 521,-57.5 521,-38.5 374,-38.5"/>
<text text-anchor="middle" x="447.5" y="-45.5" font-family="Helvetica,sans-Serif" font-size="10.00" fill="#000000">SystemImpl__getCurrentTime</text>
</a>
</g>
</g>
<!-- Node67&#45;&gt;Node68 -->
<g id="edge2" class="edge">
<title>Node67&#45;&gt;Node68</title>
<path fill="none" stroke="#191970" d="M338.1421,-48C346.4739,-48 355.0113,-48 363.4632,-48"/>
<polygon fill="#191970" stroke="#191970" points="363.7108,-51.5001 373.7107,-48 363.7107,-44.5001 363.7108,-51.5001"/>
</g>
</g>
</svg>
