<?xml version="1.0" encoding="UTF-8" standalone="no"?>
<!DOCTYPE svg PUBLIC "-//W3C//DTD SVG 1.1//EN"
 "http://www.w3.org/Graphics/SVG/1.1/DTD/svg11.dtd">
<!-- Generated by graphviz version 2.40.1 (20161225.0304)
 -->
<!-- Title: omc_System_readEnv Pages: 1 -->
<svg width="404pt" height="66pt"
 viewBox="0.00 0.00 404.00 66.00" xmlns="http://www.w3.org/2000/svg" xmlns:xlink="http://www.w3.org/1999/xlink">
<g id="graph0" class="graph" transform="scale(1 1) rotate(0) translate(4 62)">
<title>omc_System_readEnv</title>
<polygon fill="#ffffff" stroke="transparent" points="-4,4 -4,-62 400,-62 400,4 -4,4"/>
<!-- Node10768 -->
<g id="node1" class="node">
<title>Node10768</title>
<polygon fill="#bfbfbf" stroke="#000000" points="0,-19.5 0,-38.5 116,-38.5 116,-19.5 0,-19.5"/>
<text text-anchor="middle" x="58" y="-26.5" font-family="Helvetica,sans-Serif" font-size="10.00" fill="#000000">omc_System_readEnv</text>
</g>
<!-- Node10769 -->
<g id="node2" class="node">
<title>Node10769</title>
<g id="a_node2"><a xlink:href="../../d8/d28/_compiler_2boot_2build_2system_8h.html#aeb00678c7263d51c5a33589439e239d7" target="_top" xlink:title="System_readEnv">
<polygon fill="#ffffff" stroke="#000000" points="152,-19.5 152,-38.5 244,-38.5 244,-19.5 152,-19.5"/>
<text text-anchor="middle" x="198" y="-26.5" font-family="Helvetica,sans-Serif" font-size="10.00" fill="#000000">System_readEnv</text>
</a>
</g>
</g>
<!-- Node10768&#45;&gt;Node10769 -->
<g id="edge1" class="edge">
<title>Node10768&#45;&gt;Node10769</title>
<path fill="none" stroke="#191970" d="M116.1563,-29C124.5952,-29 133.2705,-29 141.6724,-29"/>
<polygon fill="#191970" stroke="#191970" points="141.7511,-32.5001 151.751,-29 141.751,-25.5001 141.7511,-32.5001"/>
</g>
<!-- Node10770 -->
<g id="node3" class="node">
<title>Node10770</title>
<g id="a_node3"><a xlink:href="../../d7/dcd/group__core_utils.html#gaeccaa0b46edead0608a6982dddb917ec" target="_top" xlink:title="Allocate memory for a Modelica string which is used as return argument of an external Modelica functi...">
<polygon fill="#ffffff" stroke="#000000" points="280,-38.5 280,-57.5 396,-57.5 396,-38.5 280,-38.5"/>
<text text-anchor="middle" x="338" y="-45.5" font-family="Helvetica,sans-Serif" font-size="10.00" fill="#000000">ModelicaAllocateString</text>
</a>
</g>
</g>
<!-- Node10769&#45;&gt;Node10770 -->
<g id="edge2" class="edge">
<title>Node10769&#45;&gt;Node10770</title>
<path fill="none" stroke="#191970" d="M244.2292,-35.274C252.3581,-36.3772 260.9723,-37.5462 269.5553,-38.7111"/>
<polygon fill="#191970" stroke="#191970" points="269.2059,-42.1957 279.5858,-40.0724 270.1473,-35.2592 269.2059,-42.1957"/>
</g>
<!-- Node10771 -->
<g id="node4" class="node">
<title>Node10771</title>
<g id="a_node4"><a xlink:href="../../d6/d84/3rd_party_2open62541_2open62541_8h.html#aa383452fe445bfae989358c9d7d96f4f" target="_top" xlink:title="strlen">
<polygon fill="#ffffff" stroke="#000000" points="317.5,-.5 317.5,-19.5 358.5,-19.5 358.5,-.5 317.5,-.5"/>
<text text-anchor="middle" x="338" y="-7.5" font-family="Helvetica,sans-Serif" font-size="10.00" fill="#000000">strlen</text>
</a>
</g>
</g>
<!-- Node10769&#45;&gt;Node10771 -->
<g id="edge3" class="edge">
<title>Node10769&#45;&gt;Node10771</title>
<path fill="none" stroke="#191970" d="M244.2292,-22.726C264.9653,-19.9119 288.8592,-16.6691 307.3378,-14.1613"/>
<polygon fill="#191970" stroke="#191970" points="307.8205,-17.628 317.2589,-12.8149 306.8791,-10.6916 307.8205,-17.628"/>
</g>
</g>
</svg>
