<?xml version="1.0" encoding="UTF-8" standalone="no"?>
<!DOCTYPE svg PUBLIC "-//W3C//DTD SVG 1.1//EN"
 "http://www.w3.org/Graphics/SVG/1.1/DTD/svg11.dtd">
<!-- Generated by graphviz version 2.40.1 (20161225.0304)
 -->
<!-- Title: boxptr_System_realtimeTock Pages: 1 -->
<svg width="643pt" height="66pt"
 viewBox="0.00 0.00 643.00 66.00" xmlns="http://www.w3.org/2000/svg" xmlns:xlink="http://www.w3.org/1999/xlink">
<g id="graph0" class="graph" transform="scale(1 1) rotate(0) translate(4 62)">
<title>boxptr_System_realtimeTock</title>
<polygon fill="#ffffff" stroke="transparent" points="-4,4 -4,-62 639,-62 639,4 -4,4"/>
<!-- Node251 -->
<g id="node1" class="node">
<title>Node251</title>
<polygon fill="#bfbfbf" stroke="#000000" points="0,-19.5 0,-38.5 144,-38.5 144,-19.5 0,-19.5"/>
<text text-anchor="middle" x="72" y="-26.5" font-family="Helvetica,sans-Serif" font-size="10.00" fill="#000000">boxptr_System_realtimeTock</text>
</g>
<!-- Node252 -->
<g id="node2" class="node">
<title>Node252</title>
<g id="a_node2"><a xlink:href="../../d1/d95/_system_8c.html#a8abf5845476bfec9436c033630280be5" target="_top" xlink:title="omc_System_realtimeTock">
<polygon fill="#ffffff" stroke="#000000" points="180,-38.5 180,-57.5 316,-57.5 316,-38.5 180,-38.5"/>
<text text-anchor="middle" x="248" y="-45.5" font-family="Helvetica,sans-Serif" font-size="10.00" fill="#000000">omc_System_realtimeTock</text>
</a>
</g>
</g>
<!-- Node251&#45;&gt;Node252 -->
<g id="edge1" class="edge">
<title>Node251&#45;&gt;Node252</title>
<path fill="none" stroke="#191970" d="M144.0938,-36.7828C152.6227,-37.7036 161.3579,-38.6466 169.9643,-39.5757"/>
<polygon fill="#191970" stroke="#191970" points="169.6703,-43.0642 179.9882,-40.6578 170.4217,-36.1046 169.6703,-43.0642"/>
</g>
<!-- Node256 -->
<g id="node6" class="node">
<title>Node256</title>
<g id="a_node6"><a xlink:href="../../de/df6/meta__modelica_8c.html#a994c9ac929c95a38707b78980f397484" target="_top" xlink:title="mmc_mk_rcon">
<polygon fill="#ffffff" stroke="#000000" points="207.5,-.5 207.5,-19.5 288.5,-19.5 288.5,-.5 207.5,-.5"/>
<text text-anchor="middle" x="248" y="-7.5" font-family="Helvetica,sans-Serif" font-size="10.00" fill="#000000">mmc_mk_rcon</text>
</a>
</g>
</g>
<!-- Node251&#45;&gt;Node256 -->
<g id="edge5" class="edge">
<title>Node251&#45;&gt;Node256</title>
<path fill="none" stroke="#191970" d="M144.0938,-21.2172C161.8607,-19.2991 180.5225,-17.2845 197.0509,-15.5002"/>
<polygon fill="#191970" stroke="#191970" points="197.4729,-18.9751 207.0394,-14.4219 196.7215,-12.0155 197.4729,-18.9751"/>
</g>
<!-- Node253 -->
<g id="node3" class="node">
<title>Node253</title>
<g id="a_node3"><a xlink:href="../../d8/d28/_compiler_2boot_2build_2system_8h.html#abfbe78cfe04aa2d9da545976e98ebbc4" target="_top" xlink:title="System_realtimeTock">
<polygon fill="#ffffff" stroke="#000000" points="352,-38.5 352,-57.5 464,-57.5 464,-38.5 352,-38.5"/>
<text text-anchor="middle" x="408" y="-45.5" font-family="Helvetica,sans-Serif" font-size="10.00" fill="#000000">System_realtimeTock</text>
</a>
</g>
</g>
<!-- Node252&#45;&gt;Node253 -->
<g id="edge2" class="edge">
<title>Node252&#45;&gt;Node253</title>
<path fill="none" stroke="#191970" d="M316.3185,-48C324.7723,-48 333.404,-48 341.825,-48"/>
<polygon fill="#191970" stroke="#191970" points="341.9661,-51.5001 351.966,-48 341.966,-44.5001 341.9661,-51.5001"/>
</g>
<!-- Node254 -->
<g id="node4" class="node">
<title>Node254</title>
<g id="a_node4"><a xlink:href="../../d7/d28/rtclock_8c.html#a24a9c1f717a27ec08358704545cc4686" target="_top" xlink:title="rt_tock">
<polygon fill="#ffffff" stroke="#000000" points="500,-38.5 500,-57.5 547,-57.5 547,-38.5 500,-38.5"/>
<text text-anchor="middle" x="523.5" y="-45.5" font-family="Helvetica,sans-Serif" font-size="10.00" fill="#000000">rt_tock</text>
</a>
</g>
</g>
<!-- Node253&#45;&gt;Node254 -->
<g id="edge3" class="edge">
<title>Node253&#45;&gt;Node254</title>
<path fill="none" stroke="#191970" d="M464.0583,-48C472.8504,-48 481.6947,-48 489.7754,-48"/>
<polygon fill="#191970" stroke="#191970" points="489.8896,-51.5001 499.8896,-48 489.8895,-44.5001 489.8896,-51.5001"/>
</g>
<!-- Node255 -->
<g id="node5" class="node">
<title>Node255</title>
<g id="a_node5"><a xlink:href="../../d7/d28/rtclock_8c.html#a666efa9b7e18683d189fb7be4dd0ed7a" target="_top" xlink:title="RDTSC">
<polygon fill="#ffffff" stroke="#000000" points="583,-38.5 583,-57.5 635,-57.5 635,-38.5 583,-38.5"/>
<text text-anchor="middle" x="609" y="-45.5" font-family="Helvetica,sans-Serif" font-size="10.00" fill="#000000">RDTSC</text>
</a>
</g>
</g>
<!-- Node254&#45;&gt;Node255 -->
<g id="edge4" class="edge">
<title>Node254&#45;&gt;Node255</title>
<path fill="none" stroke="#191970" d="M547.3165,-48C555.1853,-48 564.1266,-48 572.712,-48"/>
<polygon fill="#191970" stroke="#191970" points="572.9117,-51.5001 582.9117,-48 572.9117,-44.5001 572.9117,-51.5001"/>
</g>
</g>
</svg>
