<?xml version="1.0" encoding="UTF-8" standalone="no"?>
<!DOCTYPE svg PUBLIC "-//W3C//DTD SVG 1.1//EN"
 "http://www.w3.org/Graphics/SVG/1.1/DTD/svg11.dtd">
<!-- Generated by graphviz version 2.40.1 (20161225.0304)
 -->
<!-- Title: omc_System_gettextInit Pages: 1 -->
<svg width="1399pt" height="116pt"
 viewBox="0.00 0.00 1399.00 115.50" xmlns="http://www.w3.org/2000/svg" xmlns:xlink="http://www.w3.org/1999/xlink">
<g id="graph0" class="graph" transform="scale(1 1) rotate(0) translate(4 111.5)">
<title>omc_System_gettextInit</title>
<polygon fill="#ffffff" stroke="transparent" points="-4,4 -4,-111.5 1395,-111.5 1395,4 -4,4"/>
<!-- Node7296 -->
<g id="node1" class="node">
<title>Node7296</title>
<polygon fill="#bfbfbf" stroke="#000000" points="0,-69 0,-88 123,-88 123,-69 0,-69"/>
<text text-anchor="middle" x="61.5" y="-76" font-family="Helvetica,sans-Serif" font-size="10.00" fill="#000000">omc_System_gettextInit</text>
</g>
<!-- Node7297 -->
<g id="node2" class="node">
<title>Node7297</title>
<g id="a_node2"><a xlink:href="../../d0/d55/_main_8h.html#afad4f8f2dcee35cfdf2f864ef56daf9d" target="_top" xlink:title="omc_Main_init">
<polygon fill="#ffffff" stroke="#000000" points="1158,-88 1158,-107 1238,-107 1238,-88 1158,-88"/>
<text text-anchor="middle" x="1198" y="-95" font-family="Helvetica,sans-Serif" font-size="10.00" fill="#000000">omc_Main_init</text>
</a>
</g>
</g>
<!-- Node7296&#45;&gt;Node7297 -->
<g id="edge1" class="edge">
<title>Node7296&#45;&gt;Node7297</title>
<path fill="none" stroke="#191970" d="M133.5616,-84.5734C205.8153,-90.1327 320.2827,-97.5 419.5,-97.5 419.5,-97.5 419.5,-97.5 871,-97.5 974.4648,-97.5 1096.3442,-97.5 1157.9808,-97.5"/>
<polygon fill="#191970" stroke="#191970" points="133.456,-81.0546 123.2143,-83.7673 132.9123,-88.0335 133.456,-81.0546"/>
</g>
<!-- Node7300 -->
<g id="node5" class="node">
<title>Node7300</title>
<g id="a_node5"><a xlink:href="../../d3/db3/_flags_8c.html#ab75edd5e744111c62f480e3e02c01edd" target="_top" xlink:title="omc_Flags_evaluateConfigFlag">
<polygon fill="#ffffff" stroke="#000000" points="159,-50 159,-69 313,-69 313,-50 159,-50"/>
<text text-anchor="middle" x="236" y="-57" font-family="Helvetica,sans-Serif" font-size="10.00" fill="#000000">omc_Flags_evaluateConfigFlag</text>
</a>
</g>
</g>
<!-- Node7296&#45;&gt;Node7300 -->
<g id="edge4" class="edge">
<title>Node7296&#45;&gt;Node7300</title>
<path fill="none" stroke="#191970" d="M133.2072,-70.6923C141.6571,-69.7723 150.3079,-68.8304 158.8288,-67.9026"/>
<polygon fill="#191970" stroke="#191970" points="132.5845,-67.2394 123.0222,-71.8013 133.3423,-74.1982 132.5845,-67.2394"/>
</g>
<!-- Node7298 -->
<g id="node3" class="node">
<title>Node7298</title>
<g id="a_node3"><a xlink:href="../../d0/d55/_main_8h.html#aabe07fd15394b0075c7ba561a1239b8f" target="_top" xlink:title="omc_Main_main">
<polygon fill="#ffffff" stroke="#000000" points="1303,-50 1303,-69 1391,-69 1391,-50 1303,-50"/>
<text text-anchor="middle" x="1347" y="-57" font-family="Helvetica,sans-Serif" font-size="10.00" fill="#000000">omc_Main_main</text>
</a>
</g>
</g>
<!-- Node7297&#45;&gt;Node7298 -->
<g id="edge2" class="edge">
<title>Node7297&#45;&gt;Node7298</title>
<path fill="none" stroke="#191970" d="M1245.4922,-85.3879C1266.2436,-80.0956 1290.2282,-73.9787 1309.6714,-69.0201"/>
<polygon fill="#191970" stroke="#191970" points="1244.4239,-82.0482 1235.599,-87.911 1246.1538,-88.8311 1244.4239,-82.0482"/>
</g>
<!-- Node7299 -->
<g id="node4" class="node">
<title>Node7299</title>
<g id="a_node4"><a xlink:href="../../d2/d87/_o_m_c_8cpp.html#a10355828ede503a231b73ff5b852a040" target="_top" xlink:title="InitOMC">
<polygon fill="#ffffff" stroke="#000000" points="1320.5,-88 1320.5,-107 1373.5,-107 1373.5,-88 1320.5,-88"/>
<text text-anchor="middle" x="1347" y="-95" font-family="Helvetica,sans-Serif" font-size="10.00" fill="#000000">InitOMC</text>
</a>
</g>
</g>
<!-- Node7297&#45;&gt;Node7299 -->
<g id="edge3" class="edge">
<title>Node7297&#45;&gt;Node7299</title>
<path fill="none" stroke="#191970" d="M1248.3811,-97.5C1272.4716,-97.5 1300.3338,-97.5 1320.2852,-97.5"/>
<polygon fill="#191970" stroke="#191970" points="1248.3216,-94.0001 1238.3215,-97.5 1248.3215,-101.0001 1248.3216,-94.0001"/>
</g>
<!-- Node7301 -->
<g id="node6" class="node">
<title>Node7301</title>
<g id="a_node6"><a xlink:href="../../d3/db3/_flags_8c.html#a1f4f1678b3e8b863d536b92d61e5638f" target="_top" xlink:title="omc_Flags_parseConfigFlag">
<polygon fill="#ffffff" stroke="#000000" points="349,-50 349,-69 490,-69 490,-50 349,-50"/>
<text text-anchor="middle" x="419.5" y="-57" font-family="Helvetica,sans-Serif" font-size="10.00" fill="#000000">omc_Flags_parseConfigFlag</text>
</a>
</g>
</g>
<!-- Node7300&#45;&gt;Node7301 -->
<g id="edge5" class="edge">
<title>Node7300&#45;&gt;Node7301</title>
<path fill="none" stroke="#191970" d="M323.098,-59.5C331.7176,-59.5 340.3921,-59.5 348.8161,-59.5"/>
<polygon fill="#191970" stroke="#191970" points="323.023,-56.0001 313.0229,-59.5 323.0229,-63.0001 323.023,-56.0001"/>
</g>
<!-- Node7302 -->
<g id="node7" class="node">
<title>Node7302</title>
<g id="a_node7"><a xlink:href="../../d3/db3/_flags_8c.html#a7a288c95178ddd3a6449da02ecee1695" target="_top" xlink:title="omc_Flags_parseFlag">
<polygon fill="#ffffff" stroke="#000000" points="526,-50 526,-69 639,-69 639,-50 526,-50"/>
<text text-anchor="middle" x="582.5" y="-57" font-family="Helvetica,sans-Serif" font-size="10.00" fill="#000000">omc_Flags_parseFlag</text>
</a>
</g>
</g>
<!-- Node7301&#45;&gt;Node7302 -->
<g id="edge6" class="edge">
<title>Node7301&#45;&gt;Node7302</title>
<path fill="none" stroke="#191970" d="M500.1165,-59.5C508.7196,-59.5 517.3358,-59.5 525.5817,-59.5"/>
<polygon fill="#191970" stroke="#191970" points="500.0462,-56.0001 490.0462,-59.5 500.0461,-63.0001 500.0462,-56.0001"/>
</g>
<!-- Node7303 -->
<g id="node8" class="node">
<title>Node7303</title>
<g id="a_node8"><a xlink:href="../../d3/db3/_flags_8c.html#a55198847c045764cff8867f88a5e4aee" target="_top" xlink:title="omc_Flags_readArg">
<polygon fill="#ffffff" stroke="#000000" points="675,-50 675,-69 779,-69 779,-50 675,-50"/>
<text text-anchor="middle" x="727" y="-57" font-family="Helvetica,sans-Serif" font-size="10.00" fill="#000000">omc_Flags_readArg</text>
</a>
</g>
</g>
<!-- Node7302&#45;&gt;Node7303 -->
<g id="edge7" class="edge">
<title>Node7302&#45;&gt;Node7303</title>
<path fill="none" stroke="#191970" d="M649.455,-59.5C657.9315,-59.5 666.5058,-59.5 674.7077,-59.5"/>
<polygon fill="#191970" stroke="#191970" points="649.1955,-56.0001 639.1955,-59.5 649.1955,-63.0001 649.1955,-56.0001"/>
</g>
<!-- Node7304 -->
<g id="node9" class="node">
<title>Node7304</title>
<g id="a_node9"><a xlink:href="../../d3/db3/_flags_8c.html#aa2f46d373dc4809422c216a0651e6e6b" target="_top" xlink:title="boxptr_Flags_readArg">
<polygon fill="#ffffff" stroke="#000000" points="815,-12 815,-31 927,-31 927,-12 815,-12"/>
<text text-anchor="middle" x="871" y="-19" font-family="Helvetica,sans-Serif" font-size="10.00" fill="#000000">boxptr_Flags_readArg</text>
</a>
</g>
</g>
<!-- Node7303&#45;&gt;Node7304 -->
<g id="edge8" class="edge">
<title>Node7303&#45;&gt;Node7304</title>
<path fill="none" stroke="#191970" d="M773.1722,-47.3157C793.1642,-42.04 816.2187,-35.9562 834.924,-31.0201"/>
<polygon fill="#191970" stroke="#191970" points="772.1132,-43.9752 763.3373,-49.911 773.8994,-50.7435 772.1132,-43.9752"/>
</g>
<!-- Node7305 -->
<g id="node10" class="node">
<title>Node7305</title>
<g id="a_node10"><a xlink:href="../../dd/ded/_flags_8h.html#a8f87a469253598fd8e97a9047a0ef50d" target="_top" xlink:title="omc_Flags_readArgs">
<polygon fill="#ffffff" stroke="#000000" points="816.5,-50 816.5,-69 925.5,-69 925.5,-50 816.5,-50"/>
<text text-anchor="middle" x="871" y="-57" font-family="Helvetica,sans-Serif" font-size="10.00" fill="#000000">omc_Flags_readArgs</text>
</a>
</g>
</g>
<!-- Node7303&#45;&gt;Node7305 -->
<g id="edge9" class="edge">
<title>Node7303&#45;&gt;Node7305</title>
<path fill="none" stroke="#191970" d="M789.4372,-59.5C798.4356,-59.5 807.6368,-59.5 816.4651,-59.5"/>
<polygon fill="#191970" stroke="#191970" points="789.3947,-56.0001 779.3947,-59.5 789.3946,-63.0001 789.3947,-56.0001"/>
</g>
<!-- Node7306 -->
<g id="node11" class="node">
<title>Node7306</title>
<g id="a_node11"><a xlink:href="../../d8/de6/_ceval_script_backend_8c.html#a1b959b807434100c77b6baed4ed7dbe7" target="_top" xlink:title="omc_CevalScriptBackend\l_translateModel">
<polygon fill="#ffffff" stroke="#000000" points="963,-.5 963,-30.5 1093,-30.5 1093,-.5 963,-.5"/>
<text text-anchor="start" x="971" y="-18.5" font-family="Helvetica,sans-Serif" font-size="10.00" fill="#000000">omc_CevalScriptBackend</text>
<text text-anchor="middle" x="1028" y="-7.5" font-family="Helvetica,sans-Serif" font-size="10.00" fill="#000000">_translateModel</text>
</a>
</g>
</g>
<!-- Node7305&#45;&gt;Node7306 -->
<g id="edge10" class="edge">
<title>Node7305&#45;&gt;Node7306</title>
<path fill="none" stroke="#191970" d="M914.9306,-47.1882C933.334,-42.0306 954.9049,-35.9852 974.244,-30.5654"/>
<polygon fill="#191970" stroke="#191970" points="913.7511,-43.8839 905.0667,-49.9527 915.6402,-50.6242 913.7511,-43.8839"/>
</g>
<!-- Node7308 -->
<g id="node13" class="node">
<title>Node7308</title>
<g id="a_node13"><a xlink:href="../../dd/ded/_flags_8h.html#af799c396d599b0936f9b8a794b7891ae" target="_top" xlink:title="omc_Flags_new">
<polygon fill="#ffffff" stroke="#000000" points="984,-50 984,-69 1072,-69 1072,-50 984,-50"/>
<text text-anchor="middle" x="1028" y="-57" font-family="Helvetica,sans-Serif" font-size="10.00" fill="#000000">omc_Flags_new</text>
</a>
</g>
</g>
<!-- Node7305&#45;&gt;Node7308 -->
<g id="edge12" class="edge">
<title>Node7305&#45;&gt;Node7308</title>
<path fill="none" stroke="#191970" d="M936.3272,-59.5C952.3886,-59.5 969.2073,-59.5 983.9894,-59.5"/>
<polygon fill="#191970" stroke="#191970" points="935.911,-56.0001 925.911,-59.5 935.9109,-63.0001 935.911,-56.0001"/>
</g>
<!-- Node7307 -->
<g id="node12" class="node">
<title>Node7307</title>
<g id="a_node12"><a xlink:href="../../d8/de6/_ceval_script_backend_8c.html#a72d832ae198a635ccfea1978a45be513" target="_top" xlink:title="boxptr_CevalScriptBackend\l_translateModel">
<polygon fill="#ffffff" stroke="#000000" points="1129,-.5 1129,-30.5 1267,-30.5 1267,-.5 1129,-.5"/>
<text text-anchor="start" x="1137" y="-18.5" font-family="Helvetica,sans-Serif" font-size="10.00" fill="#000000">boxptr_CevalScriptBackend</text>
<text text-anchor="middle" x="1198" y="-7.5" font-family="Helvetica,sans-Serif" font-size="10.00" fill="#000000">_translateModel</text>
</a>
</g>
</g>
<!-- Node7306&#45;&gt;Node7307 -->
<g id="edge11" class="edge">
<title>Node7306&#45;&gt;Node7307</title>
<path fill="none" stroke="#191970" d="M1103.4996,-15.5C1111.9814,-15.5 1120.5909,-15.5 1128.9847,-15.5"/>
<polygon fill="#191970" stroke="#191970" points="1103.2403,-12.0001 1093.2402,-15.5 1103.2402,-19.0001 1103.2403,-12.0001"/>
</g>
<!-- Node7308&#45;&gt;Node7297 -->
<g id="edge14" class="edge">
<title>Node7308&#45;&gt;Node7297</title>
<path fill="none" stroke="#191970" d="M1080.8798,-71.3202C1105.6839,-76.8646 1134.7666,-83.3655 1157.746,-88.5021"/>
<polygon fill="#191970" stroke="#191970" points="1081.4209,-67.8548 1070.8982,-69.089 1079.8938,-74.6862 1081.4209,-67.8548"/>
</g>
<!-- Node7308&#45;&gt;Node7298 -->
<g id="edge13" class="edge">
<title>Node7308&#45;&gt;Node7298</title>
<path fill="none" stroke="#191970" d="M1082.0358,-59.5C1144.2476,-59.5 1245.251,-59.5 1302.9192,-59.5"/>
<polygon fill="#191970" stroke="#191970" points="1082.0207,-56.0001 1072.0207,-59.5 1082.0206,-63.0001 1082.0207,-56.0001"/>
</g>
</g>
</svg>
