<?xml version="1.0" encoding="UTF-8" standalone="no"?>
<!DOCTYPE svg PUBLIC "-//W3C//DTD SVG 1.1//EN"
 "http://www.w3.org/Graphics/SVG/1.1/DTD/svg11.dtd">
<!-- Generated by graphviz version 2.40.1 (20161225.0304)
 -->
<!-- Title: omc_CodegenSparseFMI_daeExpMatch Pages: 1 -->
<svg width="2112pt" height="397pt"
 viewBox="0.00 0.00 2112.00 396.87" xmlns="http://www.w3.org/2000/svg" xmlns:xlink="http://www.w3.org/1999/xlink">
<g id="graph0" class="graph" transform="scale(1 1) rotate(0) translate(4 392.8699)">
<title>omc_CodegenSparseFMI_daeExpMatch</title>
<polygon fill="#ffffff" stroke="transparent" points="-4,4 -4,-392.8699 2108,-392.8699 2108,4 -4,4"/>
<!-- Node5680 -->
<g id="node1" class="node">
<title>Node5680</title>
<polygon fill="#bfbfbf" stroke="#000000" points="0,-256.6637 0,-286.6637 128,-286.6637 128,-256.6637 0,-256.6637"/>
<text text-anchor="start" x="8" y="-274.6637" font-family="Helvetica,sans-Serif" font-size="10.00" fill="#000000">omc_CodegenSparseFMI</text>
<text text-anchor="middle" x="64" y="-263.6637" font-family="Helvetica,sans-Serif" font-size="10.00" fill="#000000">_daeExpMatch</text>
</g>
<!-- Node5681 -->
<g id="node2" class="node">
<title>Node5681</title>
<g id="a_node2"><a xlink:href="../../d1/d2e/_codegen_sparse_f_m_i_8c.html#a145db03f83a44a3b5e9ad4d86e83d365" target="_top" xlink:title="omc_CodegenSparseFMI\l_fun__635">
<polygon fill="#ffffff" stroke="#000000" points="164,-256.6637 164,-286.6637 292,-286.6637 292,-256.6637 164,-256.6637"/>
<text text-anchor="start" x="172" y="-274.6637" font-family="Helvetica,sans-Serif" font-size="10.00" fill="#000000">omc_CodegenSparseFMI</text>
<text text-anchor="middle" x="228" y="-263.6637" font-family="Helvetica,sans-Serif" font-size="10.00" fill="#000000">_fun__635</text>
</a>
</g>
</g>
<!-- Node5680&#45;&gt;Node5681 -->
<g id="edge1" class="edge">
<title>Node5680&#45;&gt;Node5681</title>
<path fill="none" stroke="#191970" d="M128.3464,-271.6637C136.6401,-271.6637 145.1868,-271.6637 153.6248,-271.6637"/>
<polygon fill="#191970" stroke="#191970" points="153.8392,-275.1638 163.8391,-271.6637 153.8391,-268.1638 153.8392,-275.1638"/>
</g>
<!-- Node5682 -->
<g id="node3" class="node">
<title>Node5682</title>
<g id="a_node3"><a xlink:href="../../d7/d52/_tpl_8c.html#a1038a57834f028b49f38adc4d5fcd049" target="_top" xlink:title="omc_Tpl_writeTok">
<polygon fill="#ffffff" stroke="#000000" points="1541,-224.1637 1541,-243.1637 1638,-243.1637 1638,-224.1637 1541,-224.1637"/>
<text text-anchor="middle" x="1589.5" y="-231.1637" font-family="Helvetica,sans-Serif" font-size="10.00" fill="#000000">omc_Tpl_writeTok</text>
</a>
</g>
</g>
<!-- Node5681&#45;&gt;Node5682 -->
<g id="edge2" class="edge">
<title>Node5681&#45;&gt;Node5682</title>
<path fill="none" stroke="#191970" d="M252.0454,-286.7199C304.8853,-318.3197 435.9893,-388.6637 556,-388.6637 556,-388.6637 556,-388.6637 1212,-388.6637 1333.3325,-388.6637 1372.002,-391.9631 1480,-336.6637 1520.9923,-315.674 1557.4988,-274.6833 1576.2275,-251.2369"/>
<polygon fill="#191970" stroke="#191970" points="1579.1153,-253.2254 1582.5073,-243.1881 1573.5964,-248.9194 1579.1153,-253.2254"/>
</g>
<!-- Node5683 -->
<g id="node4" class="node">
<title>Node5683</title>
<g id="a_node4"><a xlink:href="../../d1/d2e/_codegen_sparse_f_m_i_8c.html#a252419fe27a11229395e393874d01995" target="_top" xlink:title="omc_CodegenSparseFMI\l_expTypeModelica">
<polygon fill="#ffffff" stroke="#000000" points="328,-234.6637 328,-264.6637 456,-264.6637 456,-234.6637 328,-234.6637"/>
<text text-anchor="start" x="336" y="-252.6637" font-family="Helvetica,sans-Serif" font-size="10.00" fill="#000000">omc_CodegenSparseFMI</text>
<text text-anchor="middle" x="392" y="-241.6637" font-family="Helvetica,sans-Serif" font-size="10.00" fill="#000000">_expTypeModelica</text>
</a>
</g>
</g>
<!-- Node5681&#45;&gt;Node5683 -->
<g id="edge3" class="edge">
<title>Node5681&#45;&gt;Node5683</title>
<path fill="none" stroke="#191970" d="M292.3464,-263.0318C300.7313,-261.9071 309.3746,-260.7476 317.9029,-259.6035"/>
<polygon fill="#191970" stroke="#191970" points="318.3933,-263.0692 327.8391,-258.2706 317.4625,-256.1313 318.3933,-263.0692"/>
</g>
<!-- Node5684 -->
<g id="node5" class="node">
<title>Node5684</title>
<g id="a_node5"><a xlink:href="../../d1/d2e/_codegen_sparse_f_m_i_8c.html#a6795f6b6f55ae5a0e5b6c4283d5d4a8e" target="_top" xlink:title="omc_CodegenSparseFMI\l_expTypeFlag">
<polygon fill="#ffffff" stroke="#000000" points="492,-170.6637 492,-200.6637 620,-200.6637 620,-170.6637 492,-170.6637"/>
<text text-anchor="start" x="500" y="-188.6637" font-family="Helvetica,sans-Serif" font-size="10.00" fill="#000000">omc_CodegenSparseFMI</text>
<text text-anchor="middle" x="556" y="-177.6637" font-family="Helvetica,sans-Serif" font-size="10.00" fill="#000000">_expTypeFlag</text>
</a>
</g>
</g>
<!-- Node5683&#45;&gt;Node5684 -->
<g id="edge4" class="edge">
<title>Node5683&#45;&gt;Node5684</title>
<path fill="none" stroke="#191970" d="M430.4507,-234.6585C453.6024,-225.6237 483.2787,-214.0427 507.9659,-204.4087"/>
<polygon fill="#191970" stroke="#191970" points="509.463,-207.5816 517.5064,-200.6856 506.9182,-201.0605 509.463,-207.5816"/>
</g>
<!-- Node5685 -->
<g id="node6" class="node">
<title>Node5685</title>
<g id="a_node6"><a xlink:href="../../d1/d2e/_codegen_sparse_f_m_i_8c.html#aa99ff9cf4eaae56f2feaa06c84e7dbba" target="_top" xlink:title="omc_CodegenSparseFMI\l_fun__706">
<polygon fill="#ffffff" stroke="#000000" points="656,-170.6637 656,-200.6637 784,-200.6637 784,-170.6637 656,-170.6637"/>
<text text-anchor="start" x="664" y="-188.6637" font-family="Helvetica,sans-Serif" font-size="10.00" fill="#000000">omc_CodegenSparseFMI</text>
<text text-anchor="middle" x="720" y="-177.6637" font-family="Helvetica,sans-Serif" font-size="10.00" fill="#000000">_fun__706</text>
</a>
</g>
</g>
<!-- Node5684&#45;&gt;Node5685 -->
<g id="edge5" class="edge">
<title>Node5684&#45;&gt;Node5685</title>
<path fill="none" stroke="#191970" d="M620.3464,-185.6637C628.6401,-185.6637 637.1868,-185.6637 645.6248,-185.6637"/>
<polygon fill="#191970" stroke="#191970" points="645.8392,-189.1638 655.8391,-185.6637 645.8391,-182.1638 645.8392,-189.1638"/>
</g>
<!-- Node5685&#45;&gt;Node5682 -->
<g id="edge30" class="edge">
<title>Node5685&#45;&gt;Node5682</title>
<path fill="none" stroke="#191970" d="M736.2858,-200.8907C781.7487,-241.7379 915.4132,-350.6637 1048,-350.6637 1048,-350.6637 1048,-350.6637 1212,-350.6637 1333.2486,-350.6637 1366.7492,-342.9706 1480,-299.6637 1513.1979,-286.9689 1547.7063,-264.3334 1568.8976,-249.1595"/>
<polygon fill="#191970" stroke="#191970" points="1571.1028,-251.8832 1577.1216,-243.164 1566.9791,-246.2268 1571.1028,-251.8832"/>
</g>
<!-- Node5686 -->
<g id="node7" class="node">
<title>Node5686</title>
<g id="a_node7"><a xlink:href="../../d1/d2e/_codegen_sparse_f_m_i_8c.html#a1c2b815a074641365b8540e30d164b5f" target="_top" xlink:title="omc_CodegenSparseFMI\l_expTypeShort">
<polygon fill="#ffffff" stroke="#000000" points="1148,-139.6637 1148,-169.6637 1276,-169.6637 1276,-139.6637 1148,-139.6637"/>
<text text-anchor="start" x="1156" y="-157.6637" font-family="Helvetica,sans-Serif" font-size="10.00" fill="#000000">omc_CodegenSparseFMI</text>
<text text-anchor="middle" x="1212" y="-146.6637" font-family="Helvetica,sans-Serif" font-size="10.00" fill="#000000">_expTypeShort</text>
</a>
</g>
</g>
<!-- Node5685&#45;&gt;Node5686 -->
<g id="edge6" class="edge">
<title>Node5685&#45;&gt;Node5686</title>
<path fill="none" stroke="#191970" d="M784.068,-181.6269C875.0886,-175.8918 1041.4477,-165.4099 1137.7407,-159.3426"/>
<polygon fill="#191970" stroke="#191970" points="1138.2204,-162.8194 1147.9805,-158.6974 1137.7802,-155.8333 1138.2204,-162.8194"/>
</g>
<!-- Node5699 -->
<g id="node20" class="node">
<title>Node5699</title>
<g id="a_node20"><a xlink:href="../../d1/d2e/_codegen_sparse_f_m_i_8c.html#a819b0e086f2b4da0737832abca63ffed" target="_top" xlink:title="omc_CodegenSparseFMI\l_fun__704">
<polygon fill="#ffffff" stroke="#000000" points="820,-202.6637 820,-232.6637 948,-232.6637 948,-202.6637 820,-202.6637"/>
<text text-anchor="start" x="828" y="-220.6637" font-family="Helvetica,sans-Serif" font-size="10.00" fill="#000000">omc_CodegenSparseFMI</text>
<text text-anchor="middle" x="884" y="-209.6637" font-family="Helvetica,sans-Serif" font-size="10.00" fill="#000000">_fun__704</text>
</a>
</g>
</g>
<!-- Node5685&#45;&gt;Node5699 -->
<g id="edge22" class="edge">
<title>Node5685&#45;&gt;Node5699</title>
<path fill="none" stroke="#191970" d="M784.3464,-198.2191C792.7313,-199.8552 801.3746,-201.5417 809.9029,-203.2057"/>
<polygon fill="#191970" stroke="#191970" points="809.3539,-206.6645 819.8391,-205.1445 810.6945,-199.7941 809.3539,-206.6645"/>
</g>
<!-- Node5701 -->
<g id="node22" class="node">
<title>Node5701</title>
<g id="a_node22"><a xlink:href="../../d1/d2e/_codegen_sparse_f_m_i_8c.html#a92271e2ad4042c0e75f2a0f81f09aed9" target="_top" xlink:title="omc_CodegenSparseFMI\l_fun__705">
<polygon fill="#ffffff" stroke="#000000" points="984,-79.6637 984,-109.6637 1112,-109.6637 1112,-79.6637 984,-79.6637"/>
<text text-anchor="start" x="992" y="-97.6637" font-family="Helvetica,sans-Serif" font-size="10.00" fill="#000000">omc_CodegenSparseFMI</text>
<text text-anchor="middle" x="1048" y="-86.6637" font-family="Helvetica,sans-Serif" font-size="10.00" fill="#000000">_fun__705</text>
</a>
</g>
</g>
<!-- Node5685&#45;&gt;Node5701 -->
<g id="edge31" class="edge">
<title>Node5685&#45;&gt;Node5701</title>
<path fill="none" stroke="#191970" d="M749.07,-170.4925C768.6682,-160.7911 795.3502,-148.586 820,-140.6637 870.2162,-124.5245 928.5462,-112.8791 973.6366,-105.3436"/>
<polygon fill="#191970" stroke="#191970" points="974.3293,-108.7768 983.6308,-103.7042 973.1961,-101.8691 974.3293,-108.7768"/>
</g>
<!-- Node5686&#45;&gt;Node5682 -->
<g id="edge7" class="edge">
<title>Node5686&#45;&gt;Node5682</title>
<path fill="none" stroke="#191970" d="M1249.5821,-139.6332C1303.3807,-120.5955 1404.2103,-94.2712 1480,-129.6637 1502.5835,-140.2098 1498.3379,-155.0772 1516,-172.6637 1532.5025,-189.0955 1553.0184,-205.8565 1568.178,-217.6404"/>
<polygon fill="#191970" stroke="#191970" points="1566.3506,-220.6499 1576.414,-223.9633 1570.6133,-215.0975 1566.3506,-220.6499"/>
</g>
<!-- Node5687 -->
<g id="node8" class="node">
<title>Node5687</title>
<g id="a_node8"><a xlink:href="../../d1/d5c/_config_8c.html#abbb1ebde9dd1336640d4feb5ef557d9a" target="_top" xlink:title="omc_Config_acceptMetaModelica\lGrammar">
<polygon fill="#ffffff" stroke="#000000" points="1314,-51.6637 1314,-81.6637 1478,-81.6637 1478,-51.6637 1314,-51.6637"/>
<text text-anchor="start" x="1322" y="-69.6637" font-family="Helvetica,sans-Serif" font-size="10.00" fill="#000000">omc_Config_acceptMetaModelica</text>
<text text-anchor="middle" x="1396" y="-58.6637" font-family="Helvetica,sans-Serif" font-size="10.00" fill="#000000">Grammar</text>
</a>
</g>
</g>
<!-- Node5686&#45;&gt;Node5687 -->
<g id="edge8" class="edge">
<title>Node5686&#45;&gt;Node5687</title>
<path fill="none" stroke="#191970" d="M1235.1896,-139.5821C1255.0516,-127.0667 1284.69,-109.3312 1312,-96.6637 1320.758,-92.6014 1330.2321,-88.7385 1339.5541,-85.2187"/>
<polygon fill="#191970" stroke="#191970" points="1340.999,-88.4166 1349.1772,-81.6811 1338.5836,-81.8465 1340.999,-88.4166"/>
</g>
<!-- Node5692 -->
<g id="node13" class="node">
<title>Node5692</title>
<g id="a_node13"><a xlink:href="../../d1/d2e/_codegen_sparse_f_m_i_8c.html#a8c8004126dd517e4a134acab7fcc43a5" target="_top" xlink:title="omc_CodegenSparseFMI\l_fun__690">
<polygon fill="#ffffff" stroke="#000000" points="1332,-177.6637 1332,-207.6637 1460,-207.6637 1460,-177.6637 1332,-177.6637"/>
<text text-anchor="start" x="1340" y="-195.6637" font-family="Helvetica,sans-Serif" font-size="10.00" fill="#000000">omc_CodegenSparseFMI</text>
<text text-anchor="middle" x="1396" y="-184.6637" font-family="Helvetica,sans-Serif" font-size="10.00" fill="#000000">_fun__690</text>
</a>
</g>
</g>
<!-- Node5686&#45;&gt;Node5692 -->
<g id="edge13" class="edge">
<title>Node5686&#45;&gt;Node5692</title>
<path fill="none" stroke="#191970" d="M1276.096,-167.9009C1290.8997,-170.9582 1306.7681,-174.2354 1321.9571,-177.3722"/>
<polygon fill="#191970" stroke="#191970" points="1321.3211,-180.8147 1331.8223,-179.4096 1322.7369,-173.9593 1321.3211,-180.8147"/>
</g>
<!-- Node5693 -->
<g id="node14" class="node">
<title>Node5693</title>
<g id="a_node14"><a xlink:href="../../d4/d47/_class_inf_8c.html#a13bf30a04c4c83a98a949a2fb106aa2a" target="_top" xlink:title="omc_ClassInf_getStateName">
<polygon fill="#ffffff" stroke="#000000" points="1323,-227.1637 1323,-246.1637 1469,-246.1637 1469,-227.1637 1323,-227.1637"/>
<text text-anchor="middle" x="1396" y="-234.1637" font-family="Helvetica,sans-Serif" font-size="10.00" fill="#000000">omc_ClassInf_getStateName</text>
</a>
</g>
</g>
<!-- Node5686&#45;&gt;Node5693 -->
<g id="edge15" class="edge">
<title>Node5686&#45;&gt;Node5693</title>
<path fill="none" stroke="#191970" d="M1232.0144,-169.7803C1251.488,-183.814 1282.3911,-204.3413 1312,-216.6637 1319.104,-219.6202 1326.736,-222.1951 1334.3989,-224.4226"/>
<polygon fill="#191970" stroke="#191970" points="1333.5159,-227.8095 1344.0843,-227.0609 1335.3557,-221.0556 1333.5159,-227.8095"/>
</g>
<!-- Node5694 -->
<g id="node15" class="node">
<title>Node5694</title>
<g id="a_node15"><a xlink:href="../../de/d91/_codegen_util_8c.html#a1f1383df613db73164b297470f762459" target="_top" xlink:title="omc_CodegenUtil_underscorePath">
<polygon fill="#ffffff" stroke="#000000" points="1312,-139.1637 1312,-158.1637 1480,-158.1637 1480,-139.1637 1312,-139.1637"/>
<text text-anchor="middle" x="1396" y="-146.1637" font-family="Helvetica,sans-Serif" font-size="10.00" fill="#000000">omc_CodegenUtil_underscorePath</text>
</a>
</g>
</g>
<!-- Node5686&#45;&gt;Node5694 -->
<g id="edge16" class="edge">
<title>Node5686&#45;&gt;Node5694</title>
<path fill="none" stroke="#191970" d="M1276.096,-152.5736C1284.3705,-152.3038 1292.9777,-152.0231 1301.6129,-151.7415"/>
<polygon fill="#191970" stroke="#191970" points="1301.864,-155.2353 1311.7446,-151.4111 1301.6358,-148.239 1301.864,-155.2353"/>
</g>
<!-- Node5688 -->
<g id="node9" class="node">
<title>Node5688</title>
<g id="a_node9"><a xlink:href="../../d3/db3/_flags_8c.html#add52ff282ca5df852c1905fabb4571c9" target="_top" xlink:title="omc_Flags_getConfigEnum">
<polygon fill="#ffffff" stroke="#000000" points="1521,-57.1637 1521,-76.1637 1658,-76.1637 1658,-57.1637 1521,-57.1637"/>
<text text-anchor="middle" x="1589.5" y="-64.1637" font-family="Helvetica,sans-Serif" font-size="10.00" fill="#000000">omc_Flags_getConfigEnum</text>
</a>
</g>
</g>
<!-- Node5687&#45;&gt;Node5688 -->
<g id="edge9" class="edge">
<title>Node5687&#45;&gt;Node5688</title>
<path fill="none" stroke="#191970" d="M1478.0614,-66.6637C1488.8335,-66.6637 1499.8542,-66.6637 1510.5727,-66.6637"/>
<polygon fill="#191970" stroke="#191970" points="1510.7386,-70.1638 1520.7386,-66.6637 1510.7385,-63.1638 1510.7386,-70.1638"/>
</g>
<!-- Node5689 -->
<g id="node10" class="node">
<title>Node5689</title>
<g id="a_node10"><a xlink:href="../../d3/db3/_flags_8c.html#a96ba70d54b6662cf90933a207c0c6b8e" target="_top" xlink:title="omc_Flags_getConfigValue">
<polygon fill="#ffffff" stroke="#000000" points="1700.5,-57.1637 1700.5,-76.1637 1837.5,-76.1637 1837.5,-57.1637 1700.5,-57.1637"/>
<text text-anchor="middle" x="1769" y="-64.1637" font-family="Helvetica,sans-Serif" font-size="10.00" fill="#000000">omc_Flags_getConfigValue</text>
</a>
</g>
</g>
<!-- Node5688&#45;&gt;Node5689 -->
<g id="edge10" class="edge">
<title>Node5688&#45;&gt;Node5689</title>
<path fill="none" stroke="#191970" d="M1658.1296,-66.6637C1668.6299,-66.6637 1679.5391,-66.6637 1690.2369,-66.6637"/>
<polygon fill="#191970" stroke="#191970" points="1690.4085,-70.1638 1700.4085,-66.6637 1690.4084,-63.1638 1690.4085,-70.1638"/>
</g>
<!-- Node5690 -->
<g id="node11" class="node">
<title>Node5690</title>
<g id="a_node11"><a xlink:href="../../d3/db3/_flags_8c.html#a760d66f53b65ac257876ca0f6308f09f" target="_top" xlink:title="omc_Flags_loadFlags">
<polygon fill="#ffffff" stroke="#000000" points="1877,-57.1637 1877,-76.1637 1989,-76.1637 1989,-57.1637 1877,-57.1637"/>
<text text-anchor="middle" x="1933" y="-64.1637" font-family="Helvetica,sans-Serif" font-size="10.00" fill="#000000">omc_Flags_loadFlags</text>
</a>
</g>
</g>
<!-- Node5689&#45;&gt;Node5690 -->
<g id="edge11" class="edge">
<title>Node5689&#45;&gt;Node5690</title>
<path fill="none" stroke="#191970" d="M1837.6005,-66.6637C1847.2049,-66.6637 1857.0614,-66.6637 1866.6235,-66.6637"/>
<polygon fill="#191970" stroke="#191970" points="1866.8581,-70.1638 1876.858,-66.6637 1866.858,-63.1638 1866.8581,-70.1638"/>
</g>
<!-- Node5691 -->
<g id="node12" class="node">
<title>Node5691</title>
<g id="a_node12"><a xlink:href="../../da/d72/_compiler_2boot_2build_2list_8c.html#a3ec1ee3a5ff53be9af368e290be09182" target="_top" xlink:title="omc_List_fold">
<polygon fill="#ffffff" stroke="#000000" points="2027,-57.1637 2027,-76.1637 2104,-76.1637 2104,-57.1637 2027,-57.1637"/>
<text text-anchor="middle" x="2065.5" y="-64.1637" font-family="Helvetica,sans-Serif" font-size="10.00" fill="#000000">omc_List_fold</text>
</a>
</g>
</g>
<!-- Node5690&#45;&gt;Node5691 -->
<g id="edge12" class="edge">
<title>Node5690&#45;&gt;Node5691</title>
<path fill="none" stroke="#191970" d="M1989.1919,-66.6637C1998.3171,-66.6637 2007.703,-66.6637 2016.6351,-66.6637"/>
<polygon fill="#191970" stroke="#191970" points="2016.8695,-70.1638 2026.8695,-66.6637 2016.8694,-63.1638 2016.8695,-70.1638"/>
</g>
<!-- Node5692&#45;&gt;Node5682 -->
<g id="edge14" class="edge">
<title>Node5692&#45;&gt;Node5682</title>
<path fill="none" stroke="#191970" d="M1460.1639,-206.2591C1484.2174,-211.3558 1511.3134,-217.097 1534.467,-222.0029"/>
<polygon fill="#191970" stroke="#191970" points="1533.9559,-225.4723 1544.4642,-224.1212 1535.407,-218.6243 1533.9559,-225.4723"/>
</g>
<!-- Node5694&#45;&gt;Node5682 -->
<g id="edge21" class="edge">
<title>Node5694&#45;&gt;Node5682</title>
<path fill="none" stroke="#191970" d="M1450.107,-158.2154C1460.219,-160.7503 1470.5673,-163.8695 1480,-167.6637 1512.7944,-180.8551 1547.1614,-203.1746 1568.4539,-218.1609"/>
<polygon fill="#191970" stroke="#191970" points="1566.5667,-221.1143 1576.736,-224.0867 1570.6399,-215.4214 1566.5667,-221.1143"/>
</g>
<!-- Node5695 -->
<g id="node16" class="node">
<title>Node5695</title>
<g id="a_node16"><a xlink:href="../../de/d91/_codegen_util_8c.html#a4a3591cd347973b3220fe437765dab23" target="_top" xlink:title="omc_CodegenUtil_replaceDot\lAndUnderscore">
<polygon fill="#ffffff" stroke="#000000" points="1516,-133.6637 1516,-163.6637 1663,-163.6637 1663,-133.6637 1516,-133.6637"/>
<text text-anchor="start" x="1524" y="-151.6637" font-family="Helvetica,sans-Serif" font-size="10.00" fill="#000000">omc_CodegenUtil_replaceDot</text>
<text text-anchor="middle" x="1589.5" y="-140.6637" font-family="Helvetica,sans-Serif" font-size="10.00" fill="#000000">AndUnderscore</text>
</a>
</g>
</g>
<!-- Node5694&#45;&gt;Node5695 -->
<g id="edge17" class="edge">
<title>Node5694&#45;&gt;Node5695</title>
<path fill="none" stroke="#191970" d="M1480.0277,-148.6637C1488.5114,-148.6637 1497.1279,-148.6637 1505.6102,-148.6637"/>
<polygon fill="#191970" stroke="#191970" points="1505.8722,-152.1638 1515.8722,-148.6637 1505.8721,-145.1638 1505.8722,-152.1638"/>
</g>
<!-- Node5696 -->
<g id="node17" class="node">
<title>Node5696</title>
<g id="a_node17"><a xlink:href="../../d1/d95/_system_8c.html#a058b959f3f74b2d76bb6b21a01cdddb1" target="_top" xlink:title="omc_System_stringReplace">
<polygon fill="#ffffff" stroke="#000000" points="1699,-139.1637 1699,-158.1637 1839,-158.1637 1839,-139.1637 1699,-139.1637"/>
<text text-anchor="middle" x="1769" y="-146.1637" font-family="Helvetica,sans-Serif" font-size="10.00" fill="#000000">omc_System_stringReplace</text>
</a>
</g>
</g>
<!-- Node5695&#45;&gt;Node5696 -->
<g id="edge18" class="edge">
<title>Node5695&#45;&gt;Node5696</title>
<path fill="none" stroke="#191970" d="M1663.0274,-148.6637C1671.425,-148.6637 1680.0185,-148.6637 1688.5007,-148.6637"/>
<polygon fill="#191970" stroke="#191970" points="1688.7711,-152.1638 1698.7711,-148.6637 1688.7711,-145.1638 1688.7711,-152.1638"/>
</g>
<!-- Node5697 -->
<g id="node18" class="node">
<title>Node5697</title>
<g id="a_node18"><a xlink:href="../../d8/d28/_compiler_2boot_2build_2system_8h.html#abd9e4634afacfdd5c965aee4d8662e35" target="_top" xlink:title="System_stringReplace">
<polygon fill="#ffffff" stroke="#000000" points="1875,-139.1637 1875,-158.1637 1991,-158.1637 1991,-139.1637 1875,-139.1637"/>
<text text-anchor="middle" x="1933" y="-146.1637" font-family="Helvetica,sans-Serif" font-size="10.00" fill="#000000">System_stringReplace</text>
</a>
</g>
</g>
<!-- Node5696&#45;&gt;Node5697 -->
<g id="edge19" class="edge">
<title>Node5696&#45;&gt;Node5697</title>
<path fill="none" stroke="#191970" d="M1839.0265,-148.6637C1847.506,-148.6637 1856.1601,-148.6637 1864.6154,-148.6637"/>
<polygon fill="#191970" stroke="#191970" points="1864.8055,-152.1638 1874.8055,-148.6637 1864.8055,-145.1638 1864.8055,-152.1638"/>
</g>
<!-- Node5698 -->
<g id="node19" class="node">
<title>Node5698</title>
<g id="a_node19"><a xlink:href="../../d0/dfd/printimpl_8c.html#a0ba59718edccbb5a0e203e2c9600a69c" target="_top" xlink:title="_replace">
<polygon fill="#ffffff" stroke="#000000" points="2039,-139.1637 2039,-158.1637 2092,-158.1637 2092,-139.1637 2039,-139.1637"/>
<text text-anchor="middle" x="2065.5" y="-146.1637" font-family="Helvetica,sans-Serif" font-size="10.00" fill="#000000">_replace</text>
</a>
</g>
</g>
<!-- Node5697&#45;&gt;Node5698 -->
<g id="edge20" class="edge">
<title>Node5697&#45;&gt;Node5698</title>
<path fill="none" stroke="#191970" d="M1991.1164,-148.6637C2003.8932,-148.6637 2017.0797,-148.6637 2028.7362,-148.6637"/>
<polygon fill="#191970" stroke="#191970" points="2028.9555,-152.1638 2038.9554,-148.6637 2028.9554,-145.1638 2028.9555,-152.1638"/>
</g>
<!-- Node5699&#45;&gt;Node5682 -->
<g id="edge23" class="edge">
<title>Node5699&#45;&gt;Node5682</title>
<path fill="none" stroke="#191970" d="M911.0696,-232.8242C930.6706,-242.9802 958.1548,-255.5679 984,-261.6637 1198.6202,-312.2835 1262.8635,-312.0818 1480,-273.6637 1508.3436,-268.6488 1538.9897,-256.8608 1560.6325,-247.3729"/>
<polygon fill="#191970" stroke="#191970" points="1562.2151,-250.499 1569.9023,-243.2081 1559.3462,-244.1138 1562.2151,-250.499"/>
</g>
<!-- Node5699&#45;&gt;Node5686 -->
<g id="edge24" class="edge">
<title>Node5699&#45;&gt;Node5686</title>
<path fill="none" stroke="#191970" d="M948.0203,-205.3671C1002.4533,-194.912 1080.6484,-179.8928 1137.8037,-168.9148"/>
<polygon fill="#191970" stroke="#191970" points="1138.7012,-172.3065 1147.8615,-166.983 1137.3808,-165.4321 1138.7012,-172.3065"/>
</g>
<!-- Node5700 -->
<g id="node21" class="node">
<title>Node5700</title>
<g id="a_node21"><a xlink:href="../../d1/d2e/_codegen_sparse_f_m_i_8c.html#aac64164dc707a7060695b16289c95363" target="_top" xlink:title="omc_CodegenSparseFMI\l_fun__703">
<polygon fill="#ffffff" stroke="#000000" points="984,-221.6637 984,-251.6637 1112,-251.6637 1112,-221.6637 984,-221.6637"/>
<text text-anchor="start" x="992" y="-239.6637" font-family="Helvetica,sans-Serif" font-size="10.00" fill="#000000">omc_CodegenSparseFMI</text>
<text text-anchor="middle" x="1048" y="-228.6637" font-family="Helvetica,sans-Serif" font-size="10.00" fill="#000000">_fun__703</text>
</a>
</g>
</g>
<!-- Node5699&#45;&gt;Node5700 -->
<g id="edge25" class="edge">
<title>Node5699&#45;&gt;Node5700</title>
<path fill="none" stroke="#191970" d="M948.3464,-225.1185C956.7313,-226.0899 965.3746,-227.0912 973.9029,-228.0793"/>
<polygon fill="#191970" stroke="#191970" points="973.5027,-231.5562 983.8391,-229.2304 974.3084,-224.6027 973.5027,-231.5562"/>
</g>
<!-- Node5700&#45;&gt;Node5682 -->
<g id="edge26" class="edge">
<title>Node5700&#45;&gt;Node5682</title>
<path fill="none" stroke="#191970" d="M1112.1676,-246.6975C1124.0553,-248.2574 1136.3841,-249.6764 1148,-250.6637 1295.0422,-263.1609 1333.1523,-270.2696 1480,-255.6637 1500.4445,-253.6302 1522.7236,-249.5112 1541.8163,-245.3815"/>
<polygon fill="#191970" stroke="#191970" points="1542.7717,-248.7546 1551.7726,-243.1658 1541.251,-241.9217 1542.7717,-248.7546"/>
</g>
<!-- Node5700&#45;&gt;Node5686 -->
<g id="edge29" class="edge">
<title>Node5700&#45;&gt;Node5686</title>
<path fill="none" stroke="#191970" d="M1081.8928,-221.6246C1091.7154,-217.0388 1102.3814,-211.8367 1112,-206.6637 1128.5143,-197.782 1131.4857,-193.5454 1148,-184.6637 1154.6128,-181.1072 1161.7206,-177.537 1168.7091,-174.1628"/>
<polygon fill="#191970" stroke="#191970" points="1170.5735,-177.1522 1178.1072,-169.7028 1167.5723,-170.8282 1170.5735,-177.1522"/>
</g>
<!-- Node5700&#45;&gt;Node5693 -->
<g id="edge27" class="edge">
<title>Node5700&#45;&gt;Node5693</title>
<path fill="none" stroke="#191970" d="M1112.2341,-236.6637C1168.6958,-236.6637 1251.2202,-236.6637 1312.7359,-236.6637"/>
<polygon fill="#191970" stroke="#191970" points="1312.8063,-240.1638 1322.8063,-236.6637 1312.8062,-233.1638 1312.8063,-240.1638"/>
</g>
<!-- Node5700&#45;&gt;Node5694 -->
<g id="edge28" class="edge">
<title>Node5700&#45;&gt;Node5694</title>
<path fill="none" stroke="#191970" d="M1110.6299,-221.5804C1156.5559,-210.3139 1220.3433,-194.2365 1276,-178.6637 1292.1115,-174.1557 1295.8299,-171.9566 1312,-167.6637 1321.3311,-165.1864 1331.2991,-162.7501 1340.9891,-160.4916"/>
<polygon fill="#191970" stroke="#191970" points="1341.9831,-163.8546 1350.948,-158.2082 1340.4187,-157.0316 1341.9831,-163.8546"/>
</g>
<!-- Node5701&#45;&gt;Node5682 -->
<g id="edge33" class="edge">
<title>Node5701&#45;&gt;Node5682</title>
<path fill="none" stroke="#191970" d="M1074.9487,-79.5834C1148.4366,-40.695 1355.1541,53.5018 1480,-41.6637 1528.0204,-78.2679 1483.2578,-121.9313 1516,-172.6637 1528.2911,-191.7081 1548.4108,-207.8059 1564.4951,-218.6743"/>
<polygon fill="#191970" stroke="#191970" points="1562.6476,-221.6478 1572.9404,-224.1598 1566.4607,-215.7774 1562.6476,-221.6478"/>
</g>
<!-- Node5701&#45;&gt;Node5684 -->
<g id="edge34" class="edge">
<title>Node5701&#45;&gt;Node5684</title>
<path fill="none" stroke="#191970" d="M983.6694,-94.3965C937.7481,-95.1604 874.6865,-98.1571 820,-107.6637 743.916,-120.89 658.7002,-148.4953 606.1929,-167.0583"/>
<polygon fill="#191970" stroke="#191970" points="604.7034,-163.8734 596.4595,-170.5284 607.0542,-170.4669 604.7034,-163.8734"/>
</g>
<!-- Node5701&#45;&gt;Node5686 -->
<g id="edge32" class="edge">
<title>Node5701&#45;&gt;Node5686</title>
<path fill="none" stroke="#191970" d="M1089.3841,-109.8042C1111.2207,-117.7932 1138.1983,-127.6631 1161.2841,-136.1091"/>
<polygon fill="#191970" stroke="#191970" points="1160.3197,-139.4831 1170.9135,-139.632 1162.7248,-132.9092 1160.3197,-139.4831"/>
</g>
</g>
</svg>
