<?xml version="1.0" encoding="UTF-8" standalone="no"?>
<!DOCTYPE svg PUBLIC "-//W3C//DTD SVG 1.1//EN"
 "http://www.w3.org/Graphics/SVG/1.1/DTD/svg11.dtd">
<!-- Generated by graphviz version 2.40.1 (20161225.0304)
 -->
<!-- Title: omc_CodegenSparseFMI_lm__653 Pages: 1 -->
<svg width="701pt" height="199pt"
 viewBox="0.00 0.00 701.00 199.00" xmlns="http://www.w3.org/2000/svg" xmlns:xlink="http://www.w3.org/1999/xlink">
<g id="graph0" class="graph" transform="scale(1 1) rotate(0) translate(4 195)">
<title>omc_CodegenSparseFMI_lm__653</title>
<polygon fill="#ffffff" stroke="transparent" points="-4,4 -4,-195 697,-195 697,4 -4,4"/>
<!-- Node22371 -->
<g id="node1" class="node">
<title>Node22371</title>
<polygon fill="#bfbfbf" stroke="#000000" points="0,-71 0,-101 128,-101 128,-71 0,-71"/>
<text text-anchor="start" x="8" y="-89" font-family="Helvetica,sans-Serif" font-size="10.00" fill="#000000">omc_CodegenSparseFMI</text>
<text text-anchor="middle" x="64" y="-78" font-family="Helvetica,sans-Serif" font-size="10.00" fill="#000000">_lm__653</text>
</g>
<!-- Node22372 -->
<g id="node2" class="node">
<title>Node22372</title>
<g id="a_node2"><a xlink:href="../../d7/d52/_tpl_8c.html#a5ea76e329a6adbbec62206d9e8b62373" target="_top" xlink:title="omc_Tpl_getIteri__i0">
<polygon fill="#ffffff" stroke="#000000" points="164,-152.5 164,-171.5 271,-171.5 271,-152.5 164,-152.5"/>
<text text-anchor="middle" x="217.5" y="-159.5" font-family="Helvetica,sans-Serif" font-size="10.00" fill="#000000">omc_Tpl_getIteri__i0</text>
</a>
</g>
</g>
<!-- Node22371&#45;&gt;Node22372 -->
<g id="edge1" class="edge">
<title>Node22371&#45;&gt;Node22372</title>
<path fill="none" stroke="#191970" d="M87.6191,-101.0488C107.496,-113.3224 136.9311,-130.5968 164,-143 168.4691,-145.0478 173.2275,-147.0188 177.9929,-148.8653"/>
<polygon fill="#191970" stroke="#191970" points="177.1007,-152.2674 187.6937,-152.4652 179.5361,-145.7047 177.1007,-152.2674"/>
</g>
<!-- Node22379 -->
<g id="node9" class="node">
<title>Node22379</title>
<g id="a_node9"><a xlink:href="../../d7/d52/_tpl_8c.html#a7e5a397e973cf3de37af50d58cbb789f" target="_top" xlink:title="omc_Tpl_writeText">
<polygon fill="#ffffff" stroke="#000000" points="167.5,-114.5 167.5,-133.5 267.5,-133.5 267.5,-114.5 167.5,-114.5"/>
<text text-anchor="middle" x="217.5" y="-121.5" font-family="Helvetica,sans-Serif" font-size="10.00" fill="#000000">omc_Tpl_writeText</text>
</a>
</g>
</g>
<!-- Node22371&#45;&gt;Node22379 -->
<g id="edge8" class="edge">
<title>Node22371&#45;&gt;Node22379</title>
<path fill="none" stroke="#191970" d="M124.6673,-101.0186C139.3677,-104.6578 154.8924,-108.501 168.9507,-111.9813"/>
<polygon fill="#191970" stroke="#191970" points="168.3475,-115.4375 178.8955,-114.4432 170.0296,-108.6426 168.3475,-115.4375"/>
</g>
<!-- Node22380 -->
<g id="node10" class="node">
<title>Node22380</title>
<g id="a_node10"><a xlink:href="../../d7/d52/_tpl_8c.html#a1038a57834f028b49f38adc4d5fcd049" target="_top" xlink:title="omc_Tpl_writeTok">
<polygon fill="#ffffff" stroke="#000000" points="169,-76.5 169,-95.5 266,-95.5 266,-76.5 169,-76.5"/>
<text text-anchor="middle" x="217.5" y="-83.5" font-family="Helvetica,sans-Serif" font-size="10.00" fill="#000000">omc_Tpl_writeTok</text>
</a>
</g>
</g>
<!-- Node22371&#45;&gt;Node22380 -->
<g id="edge9" class="edge">
<title>Node22371&#45;&gt;Node22380</title>
<path fill="none" stroke="#191970" d="M128.2084,-86C138.3301,-86 148.7508,-86 158.7407,-86"/>
<polygon fill="#191970" stroke="#191970" points="158.9646,-89.5001 168.9646,-86 158.9645,-82.5001 158.9646,-89.5001"/>
</g>
<!-- Node22381 -->
<g id="node11" class="node">
<title>Node22381</title>
<g id="a_node11"><a xlink:href="../../d7/d52/_tpl_8c.html#ada57037d1430be632aea182a946c3245" target="_top" xlink:title="omc_Tpl_writeStr">
<polygon fill="#ffffff" stroke="#000000" points="171,-38.5 171,-57.5 264,-57.5 264,-38.5 171,-38.5"/>
<text text-anchor="middle" x="217.5" y="-45.5" font-family="Helvetica,sans-Serif" font-size="10.00" fill="#000000">omc_Tpl_writeStr</text>
</a>
</g>
</g>
<!-- Node22371&#45;&gt;Node22381 -->
<g id="edge10" class="edge">
<title>Node22371&#45;&gt;Node22381</title>
<path fill="none" stroke="#191970" d="M124.6673,-70.9814C139.3677,-67.3422 154.8924,-63.499 168.9507,-60.0187"/>
<polygon fill="#191970" stroke="#191970" points="170.0296,-63.3574 178.8955,-57.5568 168.3475,-56.5625 170.0296,-63.3574"/>
</g>
<!-- Node22382 -->
<g id="node12" class="node">
<title>Node22382</title>
<g id="a_node12"><a xlink:href="../../d2/d57/build_2include_2omc_2c_2meta_2meta__modelica__builtin_8h.html#a751bf2360cb3df6de97811998890b7ea" target="_top" xlink:title="intString">
<polygon fill="#ffffff" stroke="#000000" points="191,-.5 191,-19.5 244,-19.5 244,-.5 191,-.5"/>
<text text-anchor="middle" x="217.5" y="-7.5" font-family="Helvetica,sans-Serif" font-size="10.00" fill="#000000">intString</text>
</a>
</g>
</g>
<!-- Node22371&#45;&gt;Node22382 -->
<g id="edge11" class="edge">
<title>Node22371&#45;&gt;Node22382</title>
<path fill="none" stroke="#191970" d="M87.6191,-70.9512C107.496,-58.6776 136.9311,-41.4032 164,-29 169.4534,-26.5012 175.3375,-24.1167 181.1394,-21.9333"/>
<polygon fill="#191970" stroke="#191970" points="182.521,-25.1556 190.7353,-18.4642 180.141,-18.5726 182.521,-25.1556"/>
</g>
<!-- Node22373 -->
<g id="node3" class="node">
<title>Node22373</title>
<g id="a_node3"><a xlink:href="../../d3/db3/_flags_8c.html#a34e6591659b1578969141a635ff24042" target="_top" xlink:title="omc_Flags_isSet">
<polygon fill="#ffffff" stroke="#000000" points="309,-171.5 309,-190.5 401,-190.5 401,-171.5 309,-171.5"/>
<text text-anchor="middle" x="355" y="-178.5" font-family="Helvetica,sans-Serif" font-size="10.00" fill="#000000">omc_Flags_isSet</text>
</a>
</g>
</g>
<!-- Node22372&#45;&gt;Node22373 -->
<g id="edge2" class="edge">
<title>Node22372&#45;&gt;Node22373</title>
<path fill="none" stroke="#191970" d="M271.0548,-169.4003C280.1494,-170.657 289.6175,-171.9653 298.7784,-173.2312"/>
<polygon fill="#191970" stroke="#191970" points="298.5696,-176.7355 308.9546,-174.6374 299.5278,-169.8014 298.5696,-176.7355"/>
</g>
<!-- Node22376 -->
<g id="node6" class="node">
<title>Node22376</title>
<g id="a_node6"><a xlink:href="../../d6/d1d/_compiler_2boot_2build_2debug_8c.html#a465f6e24432a8b1db4c7576ea09e7259" target="_top" xlink:title="omc_Debug_trace">
<polygon fill="#ffffff" stroke="#000000" points="307,-133.5 307,-152.5 403,-152.5 403,-133.5 307,-133.5"/>
<text text-anchor="middle" x="355" y="-140.5" font-family="Helvetica,sans-Serif" font-size="10.00" fill="#000000">omc_Debug_trace</text>
</a>
</g>
</g>
<!-- Node22372&#45;&gt;Node22376 -->
<g id="edge5" class="edge">
<title>Node22372&#45;&gt;Node22376</title>
<path fill="none" stroke="#191970" d="M271.0548,-154.5997C279.4178,-153.4441 288.0965,-152.2448 296.5618,-151.0751"/>
<polygon fill="#191970" stroke="#191970" points="297.3194,-154.5038 306.7462,-149.6678 296.3612,-147.5696 297.3194,-154.5038"/>
</g>
<!-- Node22374 -->
<g id="node4" class="node">
<title>Node22374</title>
<g id="a_node4"><a xlink:href="../../d3/db3/_flags_8c.html#a760d66f53b65ac257876ca0f6308f09f" target="_top" xlink:title="omc_Flags_loadFlags">
<polygon fill="#ffffff" stroke="#000000" points="443.5,-171.5 443.5,-190.5 555.5,-190.5 555.5,-171.5 443.5,-171.5"/>
<text text-anchor="middle" x="499.5" y="-178.5" font-family="Helvetica,sans-Serif" font-size="10.00" fill="#000000">omc_Flags_loadFlags</text>
</a>
</g>
</g>
<!-- Node22373&#45;&gt;Node22374 -->
<g id="edge3" class="edge">
<title>Node22373&#45;&gt;Node22374</title>
<path fill="none" stroke="#191970" d="M401.118,-181C411.3205,-181 422.3264,-181 433.1543,-181"/>
<polygon fill="#191970" stroke="#191970" points="433.4492,-184.5001 443.4491,-181 433.4491,-177.5001 433.4492,-184.5001"/>
</g>
<!-- Node22375 -->
<g id="node5" class="node">
<title>Node22375</title>
<g id="a_node5"><a xlink:href="../../da/d72/_compiler_2boot_2build_2list_8c.html#a3ec1ee3a5ff53be9af368e290be09182" target="_top" xlink:title="omc_List_fold">
<polygon fill="#ffffff" stroke="#000000" points="606,-171.5 606,-190.5 683,-190.5 683,-171.5 606,-171.5"/>
<text text-anchor="middle" x="644.5" y="-178.5" font-family="Helvetica,sans-Serif" font-size="10.00" fill="#000000">omc_List_fold</text>
</a>
</g>
</g>
<!-- Node22374&#45;&gt;Node22375 -->
<g id="edge4" class="edge">
<title>Node22374&#45;&gt;Node22375</title>
<path fill="none" stroke="#191970" d="M555.5608,-181C568.7662,-181 582.7398,-181 595.601,-181"/>
<polygon fill="#191970" stroke="#191970" points="595.6412,-184.5001 605.6412,-181 595.6411,-177.5001 595.6412,-184.5001"/>
</g>
<!-- Node22377 -->
<g id="node7" class="node">
<title>Node22377</title>
<g id="a_node7"><a xlink:href="../../dc/d4a/_print_8c.html#a136f27763cbad8fdab9e975d877aff4b" target="_top" xlink:title="omc_Print_printErrorBuf">
<polygon fill="#ffffff" stroke="#000000" points="439,-133.5 439,-152.5 560,-152.5 560,-133.5 439,-133.5"/>
<text text-anchor="middle" x="499.5" y="-140.5" font-family="Helvetica,sans-Serif" font-size="10.00" fill="#000000">omc_Print_printErrorBuf</text>
</a>
</g>
</g>
<!-- Node22376&#45;&gt;Node22377 -->
<g id="edge6" class="edge">
<title>Node22376&#45;&gt;Node22377</title>
<path fill="none" stroke="#191970" d="M403.1164,-143C411.3777,-143 420.1146,-143 428.8211,-143"/>
<polygon fill="#191970" stroke="#191970" points="428.9975,-146.5001 438.9974,-143 428.9974,-139.5001 428.9975,-146.5001"/>
</g>
<!-- Node22378 -->
<g id="node8" class="node">
<title>Node22378</title>
<g id="a_node8"><a xlink:href="../../db/def/_print_8h.html#ac4ef051f731ad4fd851c45be8d215b4c" target="_top" xlink:title="Print_printErrorBuf">
<polygon fill="#ffffff" stroke="#000000" points="596,-133.5 596,-152.5 693,-152.5 693,-133.5 596,-133.5"/>
<text text-anchor="middle" x="644.5" y="-140.5" font-family="Helvetica,sans-Serif" font-size="10.00" fill="#000000">Print_printErrorBuf</text>
</a>
</g>
</g>
<!-- Node22377&#45;&gt;Node22378 -->
<g id="edge7" class="edge">
<title>Node22377&#45;&gt;Node22378</title>
<path fill="none" stroke="#191970" d="M560.1529,-143C568.6494,-143 577.3691,-143 585.8279,-143"/>
<polygon fill="#191970" stroke="#191970" points="585.984,-146.5001 595.984,-143 585.984,-139.5001 585.984,-146.5001"/>
</g>
</g>
</svg>
