<?xml version="1.0" encoding="UTF-8" standalone="no"?>
<!DOCTYPE svg PUBLIC "-//W3C//DTD SVG 1.1//EN"
 "http://www.w3.org/Graphics/SVG/1.1/DTD/svg11.dtd">
<!-- Generated by graphviz version 2.40.1 (20161225.0304)
 -->
<!-- Title: omc_CodegenSparseFMI_switchIndex Pages: 1 -->
<svg width="480pt" height="88pt"
 viewBox="0.00 0.00 480.00 88.00" xmlns="http://www.w3.org/2000/svg" xmlns:xlink="http://www.w3.org/1999/xlink">
<g id="graph0" class="graph" transform="scale(1 1) rotate(0) translate(4 84)">
<title>omc_CodegenSparseFMI_switchIndex</title>
<polygon fill="#ffffff" stroke="transparent" points="-4,4 -4,-84 476,-84 476,4 -4,4"/>
<!-- Node23529 -->
<g id="node1" class="node">
<title>Node23529</title>
<polygon fill="#bfbfbf" stroke="#000000" points="0,-24.5 0,-54.5 128,-54.5 128,-24.5 0,-24.5"/>
<text text-anchor="start" x="8" y="-42.5" font-family="Helvetica,sans-Serif" font-size="10.00" fill="#000000">omc_CodegenSparseFMI</text>
<text text-anchor="middle" x="64" y="-31.5" font-family="Helvetica,sans-Serif" font-size="10.00" fill="#000000">_switchIndex</text>
</g>
<!-- Node23530 -->
<g id="node2" class="node">
<title>Node23530</title>
<g id="a_node2"><a xlink:href="../../da/d88/_codegen_sparse_f_m_i_8h.html#a94983f6b9795af3b846c6b3d753e66c3" target="_top" xlink:title="boxptr_CodegenSparseFMI\l_switchIndex">
<polygon fill="#ffffff" stroke="#000000" points="164,-49.5 164,-79.5 300,-79.5 300,-49.5 164,-49.5"/>
<text text-anchor="start" x="172" y="-67.5" font-family="Helvetica,sans-Serif" font-size="10.00" fill="#000000">boxptr_CodegenSparseFMI</text>
<text text-anchor="middle" x="232" y="-56.5" font-family="Helvetica,sans-Serif" font-size="10.00" fill="#000000">_switchIndex</text>
</a>
</g>
</g>
<!-- Node23529&#45;&gt;Node23530 -->
<g id="edge1" class="edge">
<title>Node23529&#45;&gt;Node23530</title>
<path fill="none" stroke="#191970" d="M138.6114,-50.6029C146.9934,-51.8502 155.5016,-53.1163 163.7966,-54.3507"/>
<polygon fill="#191970" stroke="#191970" points="138.879,-47.1042 128.4727,-49.0942 137.8486,-54.028 138.879,-47.1042"/>
</g>
<!-- Node23531 -->
<g id="node3" class="node">
<title>Node23531</title>
<g id="a_node3"><a xlink:href="../../d1/d2e/_codegen_sparse_f_m_i_8c.html#a7df749d247a2376c0c4ee6677f871e7e" target="_top" xlink:title="omc_CodegenSparseFMI\l_fun__656">
<polygon fill="#ffffff" stroke="#000000" points="168,-.5 168,-30.5 296,-30.5 296,-.5 168,-.5"/>
<text text-anchor="start" x="176" y="-18.5" font-family="Helvetica,sans-Serif" font-size="10.00" fill="#000000">omc_CodegenSparseFMI</text>
<text text-anchor="middle" x="232" y="-7.5" font-family="Helvetica,sans-Serif" font-size="10.00" fill="#000000">_fun__656</text>
</a>
</g>
</g>
<!-- Node23529&#45;&gt;Node23531 -->
<g id="edge2" class="edge">
<title>Node23529&#45;&gt;Node23531</title>
<path fill="none" stroke="#191970" d="M138.6004,-28.8428C148.4007,-27.4428 158.3738,-26.018 167.9772,-24.6461"/>
<polygon fill="#191970" stroke="#191970" points="137.8772,-25.4105 128.4727,-30.2896 138.8672,-32.3401 137.8772,-25.4105"/>
</g>
<!-- Node23532 -->
<g id="node4" class="node">
<title>Node23532</title>
<g id="a_node4"><a xlink:href="../../d1/d2e/_codegen_sparse_f_m_i_8c.html#aed07eade4ee1a3a496374c3289277c90" target="_top" xlink:title="boxptr_CodegenSparseFMI\l_fun__656">
<polygon fill="#ffffff" stroke="#000000" points="336,-.5 336,-30.5 472,-30.5 472,-.5 336,-.5"/>
<text text-anchor="start" x="344" y="-18.5" font-family="Helvetica,sans-Serif" font-size="10.00" fill="#000000">boxptr_CodegenSparseFMI</text>
<text text-anchor="middle" x="404" y="-7.5" font-family="Helvetica,sans-Serif" font-size="10.00" fill="#000000">_fun__656</text>
</a>
</g>
</g>
<!-- Node23531&#45;&gt;Node23532 -->
<g id="edge3" class="edge">
<title>Node23531&#45;&gt;Node23532</title>
<path fill="none" stroke="#191970" d="M306.2137,-15.5C316.0645,-15.5 326.1255,-15.5 335.8667,-15.5"/>
<polygon fill="#191970" stroke="#191970" points="306.0465,-12.0001 296.0465,-15.5 306.0464,-19.0001 306.0465,-12.0001"/>
</g>
</g>
</svg>
