<?xml version="1.0" encoding="UTF-8" standalone="no"?>
<!DOCTYPE svg PUBLIC "-//W3C//DTD SVG 1.1//EN"
 "http://www.w3.org/Graphics/SVG/1.1/DTD/svg11.dtd">
<!-- Generated by graphviz version 2.40.1 (20161225.0304)
 -->
<!-- Title: omc_CodegenSparseFMI_fun__316 Pages: 1 -->
<svg width="1458pt" height="181pt"
 viewBox="0.00 0.00 1458.00 181.00" xmlns="http://www.w3.org/2000/svg" xmlns:xlink="http://www.w3.org/1999/xlink">
<g id="graph0" class="graph" transform="scale(1 1) rotate(0) translate(4 177)">
<title>omc_CodegenSparseFMI_fun__316</title>
<polygon fill="#ffffff" stroke="transparent" points="-4,4 -4,-177 1454,-177 1454,4 -4,4"/>
<!-- Node10556 -->
<g id="node1" class="node">
<title>Node10556</title>
<polygon fill="#bfbfbf" stroke="#000000" points="0,-68.5 0,-98.5 128,-98.5 128,-68.5 0,-68.5"/>
<text text-anchor="start" x="8" y="-86.5" font-family="Helvetica,sans-Serif" font-size="10.00" fill="#000000">omc_CodegenSparseFMI</text>
<text text-anchor="middle" x="64" y="-75.5" font-family="Helvetica,sans-Serif" font-size="10.00" fill="#000000">_fun__316</text>
</g>
<!-- Node10557 -->
<g id="node2" class="node">
<title>Node10557</title>
<g id="a_node2"><a xlink:href="../../d1/d2e/_codegen_sparse_f_m_i_8c.html#afbaadfd58af896378134f527670f9d4f" target="_top" xlink:title="omc_CodegenSparseFMI\l_functionBodyBoxed">
<polygon fill="#ffffff" stroke="#000000" points="164,-68.5 164,-98.5 292,-98.5 292,-68.5 164,-68.5"/>
<text text-anchor="start" x="172" y="-86.5" font-family="Helvetica,sans-Serif" font-size="10.00" fill="#000000">omc_CodegenSparseFMI</text>
<text text-anchor="middle" x="228" y="-75.5" font-family="Helvetica,sans-Serif" font-size="10.00" fill="#000000">_functionBodyBoxed</text>
</a>
</g>
</g>
<!-- Node10556&#45;&gt;Node10557 -->
<g id="edge1" class="edge">
<title>Node10556&#45;&gt;Node10557</title>
<path fill="none" stroke="#191970" d="M128.3464,-83.5C136.6401,-83.5 145.1868,-83.5 153.6248,-83.5"/>
<polygon fill="#191970" stroke="#191970" points="153.8392,-87.0001 163.8391,-83.5 153.8391,-80.0001 153.8392,-87.0001"/>
</g>
<!-- Node10558 -->
<g id="node3" class="node">
<title>Node10558</title>
<g id="a_node3"><a xlink:href="../../d4/d6b/_sim_code_function_util_8c.html#a136ad38659cdae265387ae932db2af5f" target="_top" xlink:title="omc_SimCodeFunctionUtil\l_isBoxedFunction">
<polygon fill="#ffffff" stroke="#000000" points="328,-142.5 328,-172.5 462,-172.5 462,-142.5 328,-142.5"/>
<text text-anchor="start" x="336" y="-160.5" font-family="Helvetica,sans-Serif" font-size="10.00" fill="#000000">omc_SimCodeFunctionUtil</text>
<text text-anchor="middle" x="395" y="-149.5" font-family="Helvetica,sans-Serif" font-size="10.00" fill="#000000">_isBoxedFunction</text>
</a>
</g>
</g>
<!-- Node10557&#45;&gt;Node10558 -->
<g id="edge2" class="edge">
<title>Node10557&#45;&gt;Node10558</title>
<path fill="none" stroke="#191970" d="M256.0236,-98.6422C275.8403,-109.0691 303.1897,-122.8988 328,-133.5 332.3175,-135.3448 336.8296,-137.1708 341.3832,-138.9428"/>
<polygon fill="#191970" stroke="#191970" points="340.1484,-142.2177 350.7396,-142.4932 342.6319,-135.6731 340.1484,-142.2177"/>
</g>
<!-- Node10561 -->
<g id="node6" class="node">
<title>Node10561</title>
<g id="a_node6"><a xlink:href="../../d1/d2e/_codegen_sparse_f_m_i_8c.html#aff450af597c1f906bcb9215fcd08337b" target="_top" xlink:title="omc_CodegenSparseFMI\l_fun__320">
<polygon fill="#ffffff" stroke="#000000" points="331,-93.5 331,-123.5 459,-123.5 459,-93.5 331,-93.5"/>
<text text-anchor="start" x="339" y="-111.5" font-family="Helvetica,sans-Serif" font-size="10.00" fill="#000000">omc_CodegenSparseFMI</text>
<text text-anchor="middle" x="395" y="-100.5" font-family="Helvetica,sans-Serif" font-size="10.00" fill="#000000">_fun__320</text>
</a>
</g>
</g>
<!-- Node10557&#45;&gt;Node10561 -->
<g id="edge6" class="edge">
<title>Node10557&#45;&gt;Node10561</title>
<path fill="none" stroke="#191970" d="M292.089,-93.0942C301.5099,-94.5045 311.2799,-95.9671 320.8823,-97.4045"/>
<polygon fill="#191970" stroke="#191970" points="320.3986,-100.871 330.8066,-98.8902 321.435,-93.9482 320.3986,-100.871"/>
</g>
<!-- Node10572 -->
<g id="node17" class="node">
<title>Node10572</title>
<g id="a_node17"><a xlink:href="../../d1/d2e/_codegen_sparse_f_m_i_8c.html#a8cade2e4ec39805db763535d48bd114d" target="_top" xlink:title="omc_CodegenSparseFMI\l_fun__321">
<polygon fill="#ffffff" stroke="#000000" points="331,-44.5 331,-74.5 459,-74.5 459,-44.5 331,-44.5"/>
<text text-anchor="start" x="339" y="-62.5" font-family="Helvetica,sans-Serif" font-size="10.00" fill="#000000">omc_CodegenSparseFMI</text>
<text text-anchor="middle" x="395" y="-51.5" font-family="Helvetica,sans-Serif" font-size="10.00" fill="#000000">_fun__321</text>
</a>
</g>
</g>
<!-- Node10557&#45;&gt;Node10572 -->
<g id="edge17" class="edge">
<title>Node10557&#45;&gt;Node10572</title>
<path fill="none" stroke="#191970" d="M292.089,-74.2896C301.5099,-72.9357 311.2799,-71.5316 320.8823,-70.1516"/>
<polygon fill="#191970" stroke="#191970" points="321.4062,-73.6124 330.8066,-68.7254 320.4104,-66.6836 321.4062,-73.6124"/>
</g>
<!-- Node10573 -->
<g id="node18" class="node">
<title>Node10573</title>
<g id="a_node18"><a xlink:href="../../d1/d2e/_codegen_sparse_f_m_i_8c.html#a7053c4f8d9d5a86733dc8f2309871ece" target="_top" xlink:title="omc_CodegenSparseFMI\l_boxRecordConstructor">
<polygon fill="#ffffff" stroke="#000000" points="498,-.5 498,-30.5 626,-30.5 626,-.5 498,-.5"/>
<text text-anchor="start" x="506" y="-18.5" font-family="Helvetica,sans-Serif" font-size="10.00" fill="#000000">omc_CodegenSparseFMI</text>
<text text-anchor="middle" x="562" y="-7.5" font-family="Helvetica,sans-Serif" font-size="10.00" fill="#000000">_boxRecordConstructor</text>
</a>
</g>
</g>
<!-- Node10557&#45;&gt;Node10573 -->
<g id="edge19" class="edge">
<title>Node10557&#45;&gt;Node10573</title>
<path fill="none" stroke="#191970" d="M252.904,-68.3991C272.5577,-57.2738 301.0615,-42.8509 328,-35.5 380.2206,-21.2502 441.2098,-16.4013 487.8291,-15.0351"/>
<polygon fill="#191970" stroke="#191970" points="487.9392,-18.5336 497.85,-14.7883 487.7668,-11.5357 487.9392,-18.5336"/>
</g>
<!-- Node10559 -->
<g id="node4" class="node">
<title>Node10559</title>
<g id="a_node4"><a xlink:href="../../da/d72/_compiler_2boot_2build_2list_8c.html#ab36bedb64e92bdb333e5c139daafeef6" target="_top" xlink:title="omc_List_map__0">
<polygon fill="#ffffff" stroke="#000000" points="514,-129 514,-148 610,-148 610,-129 514,-129"/>
<text text-anchor="middle" x="562" y="-136" font-family="Helvetica,sans-Serif" font-size="10.00" fill="#000000">omc_List_map__0</text>
</a>
</g>
</g>
<!-- Node10558&#45;&gt;Node10559 -->
<g id="edge3" class="edge">
<title>Node10558&#45;&gt;Node10559</title>
<path fill="none" stroke="#191970" d="M462.4439,-149.8267C476.1499,-148.2674 490.4557,-146.6398 503.808,-145.1206"/>
<polygon fill="#191970" stroke="#191970" points="504.2668,-148.5911 513.807,-143.983 503.4754,-141.636 504.2668,-148.5911"/>
</g>
<!-- Node10560 -->
<g id="node5" class="node">
<title>Node10560</title>
<g id="a_node5"><a xlink:href="../../d1/dd1/3rd_party_2gc_2include_2gc_8h.html#acacfa47efcc44a29f7bb7d98f2a000f8" target="_top" xlink:title="void">
<polygon fill="#ffffff" stroke="#000000" points="728.5,-148 728.5,-167 763.5,-167 763.5,-148 728.5,-148"/>
<text text-anchor="middle" x="746" y="-155" font-family="Helvetica,sans-Serif" font-size="10.00" fill="#000000">void</text>
</a>
</g>
</g>
<!-- Node10558&#45;&gt;Node10560 -->
<g id="edge5" class="edge">
<title>Node10558&#45;&gt;Node10560</title>
<path fill="none" stroke="#191970" d="M462.261,-157.5C539.7078,-157.5 663.2921,-157.5 718.1752,-157.5"/>
<polygon fill="#191970" stroke="#191970" points="718.2018,-161.0001 728.2018,-157.5 718.2017,-154.0001 718.2018,-161.0001"/>
</g>
<!-- Node10559&#45;&gt;Node10560 -->
<g id="edge4" class="edge">
<title>Node10559&#45;&gt;Node10560</title>
<path fill="none" stroke="#191970" d="M610.3438,-143.492C644.7108,-147.0408 689.6584,-151.6821 718.1889,-154.6282"/>
<polygon fill="#191970" stroke="#191970" points="717.9567,-158.1228 728.2633,-155.6685 718.6758,-151.1598 717.9567,-158.1228"/>
</g>
<!-- Node10562 -->
<g id="node7" class="node">
<title>Node10562</title>
<g id="a_node7"><a xlink:href="../../d1/d2e/_codegen_sparse_f_m_i_8c.html#a374e14fecc50fd4c63813548a397c762" target="_top" xlink:title="omc_CodegenSparseFMI\l_functionBodyBoxedImpl">
<polygon fill="#ffffff" stroke="#000000" points="498,-49.5 498,-79.5 626,-79.5 626,-49.5 498,-49.5"/>
<text text-anchor="start" x="506" y="-67.5" font-family="Helvetica,sans-Serif" font-size="10.00" fill="#000000">omc_CodegenSparseFMI</text>
<text text-anchor="middle" x="562" y="-56.5" font-family="Helvetica,sans-Serif" font-size="10.00" fill="#000000">_functionBodyBoxedImpl</text>
</a>
</g>
</g>
<!-- Node10561&#45;&gt;Node10562 -->
<g id="edge7" class="edge">
<title>Node10561&#45;&gt;Node10562</title>
<path fill="none" stroke="#191970" d="M452.0048,-93.4808C465.9007,-89.8196 480.8887,-85.8706 495.195,-82.1013"/>
<polygon fill="#191970" stroke="#191970" points="496.1905,-85.4586 504.9687,-79.5262 494.407,-78.6896 496.1905,-85.4586"/>
</g>
<!-- Node10563 -->
<g id="node8" class="node">
<title>Node10563</title>
<g id="a_node8"><a xlink:href="../../d1/d95/_system_8c.html#a184ca36e804db1dc804b12bb6cff0738" target="_top" xlink:title="omc_System_tmpTickReset">
<polygon fill="#ffffff" stroke="#000000" points="675.5,-8 675.5,-27 816.5,-27 816.5,-8 675.5,-8"/>
<text text-anchor="middle" x="746" y="-15" font-family="Helvetica,sans-Serif" font-size="10.00" fill="#000000">omc_System_tmpTickReset</text>
</a>
</g>
</g>
<!-- Node10562&#45;&gt;Node10563 -->
<g id="edge8" class="edge">
<title>Node10562&#45;&gt;Node10563</title>
<path fill="none" stroke="#191970" d="M620.7246,-49.4997C645.94,-43.0588 675.0096,-35.6334 698.7949,-29.5578"/>
<polygon fill="#191970" stroke="#191970" points="699.8157,-32.9095 708.6384,-27.0434 698.0833,-26.1273 699.8157,-32.9095"/>
</g>
<!-- Node10566 -->
<g id="node11" class="node">
<title>Node10566</title>
<g id="a_node11"><a xlink:href="../../de/d91/_codegen_util_8c.html#a1f1383df613db73164b297470f762459" target="_top" xlink:title="omc_CodegenUtil_underscorePath">
<polygon fill="#ffffff" stroke="#000000" points="662,-50 662,-69 830,-69 830,-50 662,-50"/>
<text text-anchor="middle" x="746" y="-57" font-family="Helvetica,sans-Serif" font-size="10.00" fill="#000000">omc_CodegenUtil_underscorePath</text>
</a>
</g>
</g>
<!-- Node10562&#45;&gt;Node10566 -->
<g id="edge11" class="edge">
<title>Node10562&#45;&gt;Node10566</title>
<path fill="none" stroke="#191970" d="M626.096,-62.7583C634.3705,-62.5334 642.9777,-62.2995 651.6129,-62.0649"/>
<polygon fill="#191970" stroke="#191970" points="651.8433,-65.56 661.7446,-61.7896 651.6531,-58.5626 651.8433,-65.56"/>
</g>
<!-- Node10564 -->
<g id="node9" class="node">
<title>Node10564</title>
<g id="a_node9"><a xlink:href="../../d8/d28/_compiler_2boot_2build_2system_8h.html#add51aa7eb32265e12e5ae8684075c2fe" target="_top" xlink:title="SystemImpl_tmpTickReset">
<polygon fill="#ffffff" stroke="#000000" points="871.5,-8 871.5,-27 1007.5,-27 1007.5,-8 871.5,-8"/>
<text text-anchor="middle" x="939.5" y="-15" font-family="Helvetica,sans-Serif" font-size="10.00" fill="#000000">SystemImpl_tmpTickReset</text>
</a>
</g>
</g>
<!-- Node10563&#45;&gt;Node10564 -->
<g id="edge9" class="edge">
<title>Node10563&#45;&gt;Node10564</title>
<path fill="none" stroke="#191970" d="M816.6793,-17.5C831.1528,-17.5 846.4675,-17.5 861.1905,-17.5"/>
<polygon fill="#191970" stroke="#191970" points="861.2712,-21.0001 871.2712,-17.5 861.2711,-14.0001 861.2712,-21.0001"/>
</g>
<!-- Node10565 -->
<g id="node10" class="node">
<title>Node10565</title>
<g id="a_node10"><a xlink:href="../../d4/d45/systemimpl_8c.html#aaa0772ad069e8410eecb2150a19fa9e6" target="_top" xlink:title="SystemImpl_tmpTickResetIndex">
<polygon fill="#ffffff" stroke="#000000" points="1049,-8 1049,-27 1209,-27 1209,-8 1049,-8"/>
<text text-anchor="middle" x="1129" y="-15" font-family="Helvetica,sans-Serif" font-size="10.00" fill="#000000">SystemImpl_tmpTickResetIndex</text>
</a>
</g>
</g>
<!-- Node10564&#45;&gt;Node10565 -->
<g id="edge10" class="edge">
<title>Node10564&#45;&gt;Node10565</title>
<path fill="none" stroke="#191970" d="M1007.6461,-17.5C1017.7779,-17.5 1028.3513,-17.5 1038.8492,-17.5"/>
<polygon fill="#191970" stroke="#191970" points="1038.8742,-21.0001 1048.8742,-17.5 1038.8742,-14.0001 1038.8742,-21.0001"/>
</g>
<!-- Node10567 -->
<g id="node12" class="node">
<title>Node10567</title>
<g id="a_node12"><a xlink:href="../../de/d91/_codegen_util_8c.html#a4a3591cd347973b3220fe437765dab23" target="_top" xlink:title="omc_CodegenUtil_replaceDot\lAndUnderscore">
<polygon fill="#ffffff" stroke="#000000" points="866,-87.5 866,-117.5 1013,-117.5 1013,-87.5 866,-87.5"/>
<text text-anchor="start" x="874" y="-105.5" font-family="Helvetica,sans-Serif" font-size="10.00" fill="#000000">omc_CodegenUtil_replaceDot</text>
<text text-anchor="middle" x="939.5" y="-94.5" font-family="Helvetica,sans-Serif" font-size="10.00" fill="#000000">AndUnderscore</text>
</a>
</g>
</g>
<!-- Node10566&#45;&gt;Node10567 -->
<g id="edge12" class="edge">
<title>Node10566&#45;&gt;Node10567</title>
<path fill="none" stroke="#191970" d="M788.9439,-69.0431C810.4702,-73.8267 837.207,-79.7682 862.1499,-85.3111"/>
<polygon fill="#191970" stroke="#191970" points="861.4505,-88.741 871.9717,-87.4937 862.9691,-81.9077 861.4505,-88.741"/>
</g>
<!-- Node10571 -->
<g id="node16" class="node">
<title>Node10571</title>
<g id="a_node16"><a xlink:href="../../d7/d52/_tpl_8c.html#a1038a57834f028b49f38adc4d5fcd049" target="_top" xlink:title="omc_Tpl_writeTok">
<polygon fill="#ffffff" stroke="#000000" points="891,-49 891,-68 988,-68 988,-49 891,-49"/>
<text text-anchor="middle" x="939.5" y="-56" font-family="Helvetica,sans-Serif" font-size="10.00" fill="#000000">omc_Tpl_writeTok</text>
</a>
</g>
</g>
<!-- Node10566&#45;&gt;Node10571 -->
<g id="edge16" class="edge">
<title>Node10566&#45;&gt;Node10571</title>
<path fill="none" stroke="#191970" d="M830.0277,-59.0657C847.0955,-58.9775 864.7009,-58.8866 880.6691,-58.804"/>
<polygon fill="#191970" stroke="#191970" points="880.9222,-62.3029 890.904,-58.7511 880.886,-55.303 880.9222,-62.3029"/>
</g>
<!-- Node10568 -->
<g id="node13" class="node">
<title>Node10568</title>
<g id="a_node13"><a xlink:href="../../d1/d95/_system_8c.html#a058b959f3f74b2d76bb6b21a01cdddb1" target="_top" xlink:title="omc_System_stringReplace">
<polygon fill="#ffffff" stroke="#000000" points="1059,-93 1059,-112 1199,-112 1199,-93 1059,-93"/>
<text text-anchor="middle" x="1129" y="-100" font-family="Helvetica,sans-Serif" font-size="10.00" fill="#000000">omc_System_stringReplace</text>
</a>
</g>
</g>
<!-- Node10567&#45;&gt;Node10568 -->
<g id="edge13" class="edge">
<title>Node10567&#45;&gt;Node10568</title>
<path fill="none" stroke="#191970" d="M1013.0369,-102.5C1024.7045,-102.5 1036.8245,-102.5 1048.6389,-102.5"/>
<polygon fill="#191970" stroke="#191970" points="1048.9236,-106.0001 1058.9236,-102.5 1048.9235,-99.0001 1048.9236,-106.0001"/>
</g>
<!-- Node10569 -->
<g id="node14" class="node">
<title>Node10569</title>
<g id="a_node14"><a xlink:href="../../d8/d28/_compiler_2boot_2build_2system_8h.html#abd9e4634afacfdd5c965aee4d8662e35" target="_top" xlink:title="System_stringReplace">
<polygon fill="#ffffff" stroke="#000000" points="1245,-93 1245,-112 1361,-112 1361,-93 1245,-93"/>
<text text-anchor="middle" x="1303" y="-100" font-family="Helvetica,sans-Serif" font-size="10.00" fill="#000000">System_stringReplace</text>
</a>
</g>
</g>
<!-- Node10568&#45;&gt;Node10569 -->
<g id="edge14" class="edge">
<title>Node10568&#45;&gt;Node10569</title>
<path fill="none" stroke="#191970" d="M1199.0203,-102.5C1210.7795,-102.5 1222.9693,-102.5 1234.6847,-102.5"/>
<polygon fill="#191970" stroke="#191970" points="1234.8352,-106.0001 1244.8352,-102.5 1234.8351,-99.0001 1234.8352,-106.0001"/>
</g>
<!-- Node10570 -->
<g id="node15" class="node">
<title>Node10570</title>
<g id="a_node15"><a xlink:href="../../d0/dfd/printimpl_8c.html#a0ba59718edccbb5a0e203e2c9600a69c" target="_top" xlink:title="_replace">
<polygon fill="#ffffff" stroke="#000000" points="1397,-93 1397,-112 1450,-112 1450,-93 1397,-93"/>
<text text-anchor="middle" x="1423.5" y="-100" font-family="Helvetica,sans-Serif" font-size="10.00" fill="#000000">_replace</text>
</a>
</g>
</g>
<!-- Node10569&#45;&gt;Node10570 -->
<g id="edge15" class="edge">
<title>Node10569&#45;&gt;Node10570</title>
<path fill="none" stroke="#191970" d="M1361.1322,-102.5C1369.8363,-102.5 1378.5994,-102.5 1386.6937,-102.5"/>
<polygon fill="#191970" stroke="#191970" points="1386.888,-106.0001 1396.8879,-102.5 1386.8879,-99.0001 1386.888,-106.0001"/>
</g>
<!-- Node10572&#45;&gt;Node10562 -->
<g id="edge18" class="edge">
<title>Node10572&#45;&gt;Node10562</title>
<path fill="none" stroke="#191970" d="M459.089,-61.4188C468.4108,-61.6979 478.0743,-61.9873 487.579,-62.2718"/>
<polygon fill="#191970" stroke="#191970" points="487.7063,-65.7771 497.8066,-62.578 487.9159,-58.7802 487.7063,-65.7771"/>
</g>
<!-- Node10573&#45;&gt;Node10563 -->
<g id="edge20" class="edge">
<title>Node10573&#45;&gt;Node10563</title>
<path fill="none" stroke="#191970" d="M626.096,-16.1967C638.6172,-16.3328 651.9,-16.4772 664.8892,-16.6184"/>
<polygon fill="#191970" stroke="#191970" points="665.1857,-20.1217 675.2232,-16.7307 665.2618,-13.1221 665.1857,-20.1217"/>
</g>
<!-- Node10573&#45;&gt;Node10566 -->
<g id="edge21" class="edge">
<title>Node10573&#45;&gt;Node10566</title>
<path fill="none" stroke="#191970" d="M624.8077,-30.5192C648.1906,-36.1108 674.3802,-42.3735 696.4144,-47.6426"/>
<polygon fill="#191970" stroke="#191970" points="695.681,-51.0658 706.2208,-49.9876 697.309,-44.2577 695.681,-51.0658"/>
</g>
</g>
</svg>
