<?xml version="1.0" encoding="UTF-8" standalone="no"?>
<!DOCTYPE svg PUBLIC "-//W3C//DTD SVG 1.1//EN"
 "http://www.w3.org/Graphics/SVG/1.1/DTD/svg11.dtd">
<!-- Generated by graphviz version 2.40.1 (20161225.0304)
 -->
<!-- Title: omc_CodegenSparseFMI_typeDefaultValue Pages: 1 -->
<svg width="644pt" height="88pt"
 viewBox="0.00 0.00 644.00 88.00" xmlns="http://www.w3.org/2000/svg" xmlns:xlink="http://www.w3.org/1999/xlink">
<g id="graph0" class="graph" transform="scale(1 1) rotate(0) translate(4 84)">
<title>omc_CodegenSparseFMI_typeDefaultValue</title>
<polygon fill="#ffffff" stroke="transparent" points="-4,4 -4,-84 640,-84 640,4 -4,4"/>
<!-- Node23661 -->
<g id="node1" class="node">
<title>Node23661</title>
<polygon fill="#bfbfbf" stroke="#000000" points="0,-24.5 0,-54.5 128,-54.5 128,-24.5 0,-24.5"/>
<text text-anchor="start" x="8" y="-42.5" font-family="Helvetica,sans-Serif" font-size="10.00" fill="#000000">omc_CodegenSparseFMI</text>
<text text-anchor="middle" x="64" y="-31.5" font-family="Helvetica,sans-Serif" font-size="10.00" fill="#000000">_typeDefaultValue</text>
</g>
<!-- Node23662 -->
<g id="node2" class="node">
<title>Node23662</title>
<g id="a_node2"><a xlink:href="../../d1/d2e/_codegen_sparse_f_m_i_8c.html#a9ea6f870ea69688cee93003376c81797" target="_top" xlink:title="omc_CodegenSparseFMI\l_fun__411">
<polygon fill="#ffffff" stroke="#000000" points="164,-24.5 164,-54.5 292,-54.5 292,-24.5 164,-24.5"/>
<text text-anchor="start" x="172" y="-42.5" font-family="Helvetica,sans-Serif" font-size="10.00" fill="#000000">omc_CodegenSparseFMI</text>
<text text-anchor="middle" x="228" y="-31.5" font-family="Helvetica,sans-Serif" font-size="10.00" fill="#000000">_fun__411</text>
</a>
</g>
</g>
<!-- Node23661&#45;&gt;Node23662 -->
<g id="edge1" class="edge">
<title>Node23661&#45;&gt;Node23662</title>
<path fill="none" stroke="#191970" d="M138.5641,-39.5C147.0037,-39.5 155.5492,-39.5 163.8391,-39.5"/>
<polygon fill="#191970" stroke="#191970" points="138.3465,-36.0001 128.3464,-39.5 138.3464,-43.0001 138.3465,-36.0001"/>
</g>
<!-- Node23663 -->
<g id="node3" class="node">
<title>Node23663</title>
<g id="a_node3"><a xlink:href="../../d1/d2e/_codegen_sparse_f_m_i_8c.html#a12468122da7235fd728b2373ccaa86f3" target="_top" xlink:title="omc_CodegenSparseFMI\l_fun__412">
<polygon fill="#ffffff" stroke="#000000" points="332,-49.5 332,-79.5 460,-79.5 460,-49.5 332,-49.5"/>
<text text-anchor="start" x="340" y="-67.5" font-family="Helvetica,sans-Serif" font-size="10.00" fill="#000000">omc_CodegenSparseFMI</text>
<text text-anchor="middle" x="396" y="-56.5" font-family="Helvetica,sans-Serif" font-size="10.00" fill="#000000">_fun__412</text>
</a>
</g>
</g>
<!-- Node23662&#45;&gt;Node23663 -->
<g id="edge2" class="edge">
<title>Node23662&#45;&gt;Node23663</title>
<path fill="none" stroke="#191970" d="M302.6004,-50.6012C312.4007,-52.0596 322.3738,-53.5437 331.9772,-54.9728"/>
<polygon fill="#191970" stroke="#191970" points="302.879,-47.1042 292.4727,-49.0942 301.8486,-54.028 302.879,-47.1042"/>
</g>
<!-- Node23665 -->
<g id="node5" class="node">
<title>Node23665</title>
<g id="a_node5"><a xlink:href="../../d1/d2e/_codegen_sparse_f_m_i_8c.html#a2827c1fcbe2b942e8fe5993d9874c079" target="_top" xlink:title="boxptr_CodegenSparseFMI\l_fun__411">
<polygon fill="#ffffff" stroke="#000000" points="328,-.5 328,-30.5 464,-30.5 464,-.5 328,-.5"/>
<text text-anchor="start" x="336" y="-18.5" font-family="Helvetica,sans-Serif" font-size="10.00" fill="#000000">boxptr_CodegenSparseFMI</text>
<text text-anchor="middle" x="396" y="-7.5" font-family="Helvetica,sans-Serif" font-size="10.00" fill="#000000">_fun__411</text>
</a>
</g>
</g>
<!-- Node23662&#45;&gt;Node23665 -->
<g id="edge4" class="edge">
<title>Node23662&#45;&gt;Node23665</title>
<path fill="none" stroke="#191970" d="M302.6114,-28.8412C310.9934,-27.6438 319.5016,-26.4283 327.7966,-25.2433"/>
<polygon fill="#191970" stroke="#191970" points="301.8772,-25.4105 292.4727,-30.2896 302.8672,-32.3401 301.8772,-25.4105"/>
</g>
<!-- Node23664 -->
<g id="node4" class="node">
<title>Node23664</title>
<g id="a_node4"><a xlink:href="../../d1/d2e/_codegen_sparse_f_m_i_8c.html#a6936b5d3aa46b1a5ccd349cc66d39d37" target="_top" xlink:title="boxptr_CodegenSparseFMI\l_fun__412">
<polygon fill="#ffffff" stroke="#000000" points="500,-49.5 500,-79.5 636,-79.5 636,-49.5 500,-49.5"/>
<text text-anchor="start" x="508" y="-67.5" font-family="Helvetica,sans-Serif" font-size="10.00" fill="#000000">boxptr_CodegenSparseFMI</text>
<text text-anchor="middle" x="568" y="-56.5" font-family="Helvetica,sans-Serif" font-size="10.00" fill="#000000">_fun__412</text>
</a>
</g>
</g>
<!-- Node23663&#45;&gt;Node23664 -->
<g id="edge3" class="edge">
<title>Node23663&#45;&gt;Node23664</title>
<path fill="none" stroke="#191970" d="M470.2137,-64.5C480.0645,-64.5 490.1255,-64.5 499.8667,-64.5"/>
<polygon fill="#191970" stroke="#191970" points="470.0465,-61.0001 460.0465,-64.5 470.0464,-68.0001 470.0465,-61.0001"/>
</g>
</g>
</svg>
