<?xml version="1.0" encoding="UTF-8" standalone="no"?>
<!DOCTYPE svg PUBLIC "-//W3C//DTD SVG 1.1//EN"
 "http://www.w3.org/Graphics/SVG/1.1/DTD/svg11.dtd">
<!-- Generated by graphviz version 2.40.1 (20161225.0304)
 -->
<!-- Title: boxptr_CodegenSparseFMI_fun__411 Pages: 1 -->
<svg width="605pt" height="39pt"
 viewBox="0.00 0.00 605.00 39.00" xmlns="http://www.w3.org/2000/svg" xmlns:xlink="http://www.w3.org/1999/xlink">
<g id="graph0" class="graph" transform="scale(1 1) rotate(0) translate(4 35)">
<title>boxptr_CodegenSparseFMI_fun__411</title>
<polygon fill="#ffffff" stroke="transparent" points="-4,4 -4,-35 601,-35 601,4 -4,4"/>
<!-- Node1071 -->
<g id="node1" class="node">
<title>Node1071</title>
<polygon fill="#bfbfbf" stroke="#000000" points="0,-.5 0,-30.5 136,-30.5 136,-.5 0,-.5"/>
<text text-anchor="start" x="8" y="-18.5" font-family="Helvetica,sans-Serif" font-size="10.00" fill="#000000">boxptr_CodegenSparseFMI</text>
<text text-anchor="middle" x="68" y="-7.5" font-family="Helvetica,sans-Serif" font-size="10.00" fill="#000000">_fun__411</text>
</g>
<!-- Node1072 -->
<g id="node2" class="node">
<title>Node1072</title>
<g id="a_node2"><a xlink:href="../../d1/d2e/_codegen_sparse_f_m_i_8c.html#a9ea6f870ea69688cee93003376c81797" target="_top" xlink:title="omc_CodegenSparseFMI\l_fun__411">
<polygon fill="#ffffff" stroke="#000000" points="172,-.5 172,-30.5 300,-30.5 300,-.5 172,-.5"/>
<text text-anchor="start" x="180" y="-18.5" font-family="Helvetica,sans-Serif" font-size="10.00" fill="#000000">omc_CodegenSparseFMI</text>
<text text-anchor="middle" x="236" y="-7.5" font-family="Helvetica,sans-Serif" font-size="10.00" fill="#000000">_fun__411</text>
</a>
</g>
</g>
<!-- Node1071&#45;&gt;Node1072 -->
<g id="edge1" class="edge">
<title>Node1071&#45;&gt;Node1072</title>
<path fill="none" stroke="#191970" d="M136.332,-15.5C144.6633,-15.5 153.2079,-15.5 161.6219,-15.5"/>
<polygon fill="#191970" stroke="#191970" points="161.7973,-19.0001 171.7973,-15.5 161.7972,-12.0001 161.7973,-19.0001"/>
</g>
<!-- Node1073 -->
<g id="node3" class="node">
<title>Node1073</title>
<g id="a_node3"><a xlink:href="../../d1/d2e/_codegen_sparse_f_m_i_8c.html#aa1ab7bdf53e72ebce73d39e26aa7259c" target="_top" xlink:title="omc_CodegenSparseFMI\l_typeDefaultValue">
<polygon fill="#ffffff" stroke="#000000" points="336,-.5 336,-30.5 464,-30.5 464,-.5 336,-.5"/>
<text text-anchor="start" x="344" y="-18.5" font-family="Helvetica,sans-Serif" font-size="10.00" fill="#000000">omc_CodegenSparseFMI</text>
<text text-anchor="middle" x="400" y="-7.5" font-family="Helvetica,sans-Serif" font-size="10.00" fill="#000000">_typeDefaultValue</text>
</a>
</g>
</g>
<!-- Node1072&#45;&gt;Node1073 -->
<g id="edge2" class="edge">
<title>Node1072&#45;&gt;Node1073</title>
<path fill="none" stroke="#191970" d="M300.3464,-15.5C308.6401,-15.5 317.1868,-15.5 325.6248,-15.5"/>
<polygon fill="#191970" stroke="#191970" points="325.8392,-19.0001 335.8391,-15.5 325.8391,-12.0001 325.8392,-19.0001"/>
</g>
<!-- Node1074 -->
<g id="node4" class="node">
<title>Node1074</title>
<g id="a_node4"><a xlink:href="../../d7/d52/_tpl_8c.html#a1038a57834f028b49f38adc4d5fcd049" target="_top" xlink:title="omc_Tpl_writeTok">
<polygon fill="#ffffff" stroke="#000000" points="500,-6 500,-25 597,-25 597,-6 500,-6"/>
<text text-anchor="middle" x="548.5" y="-13" font-family="Helvetica,sans-Serif" font-size="10.00" fill="#000000">omc_Tpl_writeTok</text>
</a>
</g>
</g>
<!-- Node1073&#45;&gt;Node1074 -->
<g id="edge3" class="edge">
<title>Node1073&#45;&gt;Node1074</title>
<path fill="none" stroke="#191970" d="M464.2706,-15.5C472.7412,-15.5 481.3883,-15.5 489.7601,-15.5"/>
<polygon fill="#191970" stroke="#191970" points="489.8049,-19.0001 499.8049,-15.5 489.8048,-12.0001 489.8049,-19.0001"/>
</g>
</g>
</svg>
