<?xml version="1.0" encoding="UTF-8" standalone="no"?>
<!DOCTYPE svg PUBLIC "-//W3C//DTD SVG 1.1//EN"
 "http://www.w3.org/Graphics/SVG/1.1/DTD/svg11.dtd">
<!-- Generated by graphviz version 2.40.1 (20161225.0304)
 -->
<!-- Title: omc_CodegenSparseFMI_extTypeF77 Pages: 1 -->
<svg width="1104pt" height="78pt"
 viewBox="0.00 0.00 1104.00 77.50" xmlns="http://www.w3.org/2000/svg" xmlns:xlink="http://www.w3.org/1999/xlink">
<g id="graph0" class="graph" transform="scale(1 1) rotate(0) translate(4 73.5)">
<title>omc_CodegenSparseFMI_extTypeF77</title>
<polygon fill="#ffffff" stroke="transparent" points="-4,4 -4,-73.5 1100,-73.5 1100,4 -4,4"/>
<!-- Node9090 -->
<g id="node1" class="node">
<title>Node9090</title>
<polygon fill="#bfbfbf" stroke="#000000" points="0,-25.5 0,-55.5 128,-55.5 128,-25.5 0,-25.5"/>
<text text-anchor="start" x="8" y="-43.5" font-family="Helvetica,sans-Serif" font-size="10.00" fill="#000000">omc_CodegenSparseFMI</text>
<text text-anchor="middle" x="64" y="-32.5" font-family="Helvetica,sans-Serif" font-size="10.00" fill="#000000">_extTypeF77</text>
</g>
<!-- Node9091 -->
<g id="node2" class="node">
<title>Node9091</title>
<g id="a_node2"><a xlink:href="../../d1/d2e/_codegen_sparse_f_m_i_8c.html#ac7f6bb8c47d682595dbf2abf6f5e179a" target="_top" xlink:title="omc_CodegenSparseFMI\l_fun__265">
<polygon fill="#ffffff" stroke="#000000" points="164,-25.5 164,-55.5 292,-55.5 292,-25.5 164,-25.5"/>
<text text-anchor="start" x="172" y="-43.5" font-family="Helvetica,sans-Serif" font-size="10.00" fill="#000000">omc_CodegenSparseFMI</text>
<text text-anchor="middle" x="228" y="-32.5" font-family="Helvetica,sans-Serif" font-size="10.00" fill="#000000">_fun__265</text>
</a>
</g>
</g>
<!-- Node9090&#45;&gt;Node9091 -->
<g id="edge1" class="edge">
<title>Node9090&#45;&gt;Node9091</title>
<path fill="none" stroke="#191970" d="M128.3464,-33.891C136.6401,-33.7566 145.1868,-33.7183 153.6248,-33.776"/>
<polygon fill="#191970" stroke="#191970" points="153.7993,-37.2782 163.8391,-33.894 153.8803,-30.2786 153.7993,-37.2782"/>
</g>
<!-- Node9091&#45;&gt;Node9090 -->
<g id="edge3" class="edge">
<title>Node9091&#45;&gt;Node9090</title>
<path fill="none" stroke="#191970" d="M163.8391,-47.106C155.5492,-47.2418 147.0037,-47.2815 138.5641,-47.2253"/>
<polygon fill="#191970" stroke="#191970" points="138.3857,-43.7231 128.3464,-47.109 138.3059,-50.7227 138.3857,-43.7231"/>
</g>
<!-- Node9092 -->
<g id="node3" class="node">
<title>Node9092</title>
<g id="a_node3"><a xlink:href="../../d7/d52/_tpl_8c.html#a1038a57834f028b49f38adc4d5fcd049" target="_top" xlink:title="omc_Tpl_writeTok">
<polygon fill="#ffffff" stroke="#000000" points="557,-50 557,-69 654,-69 654,-50 557,-50"/>
<text text-anchor="middle" x="605.5" y="-57" font-family="Helvetica,sans-Serif" font-size="10.00" fill="#000000">omc_Tpl_writeTok</text>
</a>
</g>
</g>
<!-- Node9091&#45;&gt;Node9092 -->
<g id="edge2" class="edge">
<title>Node9091&#45;&gt;Node9092</title>
<path fill="none" stroke="#191970" d="M292.0377,-43.7231C363.268,-47.3082 477.3885,-53.052 546.5112,-56.531"/>
<polygon fill="#191970" stroke="#191970" points="546.6255,-60.0411 556.7888,-57.0483 546.9774,-53.05 546.6255,-60.0411"/>
</g>
<!-- Node9093 -->
<g id="node4" class="node">
<title>Node9093</title>
<g id="a_node4"><a xlink:href="../../de/d91/_codegen_util_8c.html#a1f1383df613db73164b297470f762459" target="_top" xlink:title="omc_CodegenUtil_underscorePath">
<polygon fill="#ffffff" stroke="#000000" points="328,-12 328,-31 496,-31 496,-12 328,-12"/>
<text text-anchor="middle" x="412" y="-19" font-family="Helvetica,sans-Serif" font-size="10.00" fill="#000000">omc_CodegenUtil_underscorePath</text>
</a>
</g>
</g>
<!-- Node9091&#45;&gt;Node9093 -->
<g id="edge4" class="edge">
<title>Node9091&#45;&gt;Node9093</title>
<path fill="none" stroke="#191970" d="M292.096,-33.8814C300.3705,-33.027 308.9777,-32.1382 317.6129,-31.2465"/>
<polygon fill="#191970" stroke="#191970" points="318.157,-34.709 327.7446,-30.2003 317.4379,-27.746 318.157,-34.709"/>
</g>
<!-- Node9093&#45;&gt;Node9092 -->
<g id="edge9" class="edge">
<title>Node9093&#45;&gt;Node9092</title>
<path fill="none" stroke="#191970" d="M460.8282,-31.089C487.0528,-36.239 519.5617,-42.6232 547.1162,-48.0344"/>
<polygon fill="#191970" stroke="#191970" points="546.5358,-51.4873 557.0229,-49.9799 547.8848,-44.6185 546.5358,-51.4873"/>
</g>
<!-- Node9094 -->
<g id="node5" class="node">
<title>Node9094</title>
<g id="a_node5"><a xlink:href="../../de/d91/_codegen_util_8c.html#a4a3591cd347973b3220fe437765dab23" target="_top" xlink:title="omc_CodegenUtil_replaceDot\lAndUnderscore">
<polygon fill="#ffffff" stroke="#000000" points="532,-.5 532,-30.5 679,-30.5 679,-.5 532,-.5"/>
<text text-anchor="start" x="540" y="-18.5" font-family="Helvetica,sans-Serif" font-size="10.00" fill="#000000">omc_CodegenUtil_replaceDot</text>
<text text-anchor="middle" x="605.5" y="-7.5" font-family="Helvetica,sans-Serif" font-size="10.00" fill="#000000">AndUnderscore</text>
</a>
</g>
</g>
<!-- Node9093&#45;&gt;Node9094 -->
<g id="edge5" class="edge">
<title>Node9093&#45;&gt;Node9094</title>
<path fill="none" stroke="#191970" d="M496.0277,-18.8945C504.5114,-18.6314 513.1279,-18.3642 521.6102,-18.1012"/>
<polygon fill="#191970" stroke="#191970" points="521.9855,-21.5914 531.8722,-17.783 521.7685,-14.5947 521.9855,-21.5914"/>
</g>
<!-- Node9095 -->
<g id="node6" class="node">
<title>Node9095</title>
<g id="a_node6"><a xlink:href="../../d1/d95/_system_8c.html#a058b959f3f74b2d76bb6b21a01cdddb1" target="_top" xlink:title="omc_System_stringReplace">
<polygon fill="#ffffff" stroke="#000000" points="715,-6 715,-25 855,-25 855,-6 715,-6"/>
<text text-anchor="middle" x="785" y="-13" font-family="Helvetica,sans-Serif" font-size="10.00" fill="#000000">omc_System_stringReplace</text>
</a>
</g>
</g>
<!-- Node9094&#45;&gt;Node9095 -->
<g id="edge6" class="edge">
<title>Node9094&#45;&gt;Node9095</title>
<path fill="none" stroke="#191970" d="M679.0274,-15.5C687.425,-15.5 696.0185,-15.5 704.5007,-15.5"/>
<polygon fill="#191970" stroke="#191970" points="704.7711,-19.0001 714.7711,-15.5 704.7711,-12.0001 704.7711,-19.0001"/>
</g>
<!-- Node9096 -->
<g id="node7" class="node">
<title>Node9096</title>
<g id="a_node7"><a xlink:href="../../d8/d28/_compiler_2boot_2build_2system_8h.html#abd9e4634afacfdd5c965aee4d8662e35" target="_top" xlink:title="System_stringReplace">
<polygon fill="#ffffff" stroke="#000000" points="891,-6 891,-25 1007,-25 1007,-6 891,-6"/>
<text text-anchor="middle" x="949" y="-13" font-family="Helvetica,sans-Serif" font-size="10.00" fill="#000000">System_stringReplace</text>
</a>
</g>
</g>
<!-- Node9095&#45;&gt;Node9096 -->
<g id="edge7" class="edge">
<title>Node9095&#45;&gt;Node9096</title>
<path fill="none" stroke="#191970" d="M855.0265,-15.5C863.506,-15.5 872.1601,-15.5 880.6154,-15.5"/>
<polygon fill="#191970" stroke="#191970" points="880.8055,-19.0001 890.8055,-15.5 880.8055,-12.0001 880.8055,-19.0001"/>
</g>
<!-- Node9097 -->
<g id="node8" class="node">
<title>Node9097</title>
<g id="a_node8"><a xlink:href="../../d0/dfd/printimpl_8c.html#a0ba59718edccbb5a0e203e2c9600a69c" target="_top" xlink:title="_replace">
<polygon fill="#ffffff" stroke="#000000" points="1043,-6 1043,-25 1096,-25 1096,-6 1043,-6"/>
<text text-anchor="middle" x="1069.5" y="-13" font-family="Helvetica,sans-Serif" font-size="10.00" fill="#000000">_replace</text>
</a>
</g>
</g>
<!-- Node9096&#45;&gt;Node9097 -->
<g id="edge8" class="edge">
<title>Node9096&#45;&gt;Node9097</title>
<path fill="none" stroke="#191970" d="M1007.1322,-15.5C1015.8363,-15.5 1024.5994,-15.5 1032.6937,-15.5"/>
<polygon fill="#191970" stroke="#191970" points="1032.888,-19.0001 1042.8879,-15.5 1032.8879,-12.0001 1032.888,-19.0001"/>
</g>
</g>
</svg>
