<?xml version="1.0" encoding="UTF-8" standalone="no"?>
<!DOCTYPE svg PUBLIC "-//W3C//DTD SVG 1.1//EN"
 "http://www.w3.org/Graphics/SVG/1.1/DTD/svg11.dtd">
<!-- Generated by graphviz version 2.40.1 (20161225.0304)
 -->
<!-- Title: boxptr_CodegenSparseFMI_fun__429 Pages: 1 -->
<svg width="608pt" height="104pt"
 viewBox="0.00 0.00 608.00 103.50" xmlns="http://www.w3.org/2000/svg" xmlns:xlink="http://www.w3.org/1999/xlink">
<g id="graph0" class="graph" transform="scale(1 1) rotate(0) translate(4 99.5)">
<title>boxptr_CodegenSparseFMI_fun__429</title>
<polygon fill="#ffffff" stroke="transparent" points="-4,4 -4,-99.5 604,-99.5 604,4 -4,4"/>
<!-- Node1171 -->
<g id="node1" class="node">
<title>Node1171</title>
<polygon fill="#bfbfbf" stroke="#000000" points="0,-49.5 0,-79.5 136,-79.5 136,-49.5 0,-49.5"/>
<text text-anchor="start" x="8" y="-67.5" font-family="Helvetica,sans-Serif" font-size="10.00" fill="#000000">boxptr_CodegenSparseFMI</text>
<text text-anchor="middle" x="68" y="-56.5" font-family="Helvetica,sans-Serif" font-size="10.00" fill="#000000">_fun__429</text>
</g>
<!-- Node1172 -->
<g id="node2" class="node">
<title>Node1172</title>
<g id="a_node2"><a xlink:href="../../d1/d2e/_codegen_sparse_f_m_i_8c.html#a70d6de1f09032accb14a2fd947dd19a5" target="_top" xlink:title="omc_CodegenSparseFMI\l_fun__429">
<polygon fill="#ffffff" stroke="#000000" points="172,-49.5 172,-79.5 300,-79.5 300,-49.5 172,-49.5"/>
<text text-anchor="start" x="180" y="-67.5" font-family="Helvetica,sans-Serif" font-size="10.00" fill="#000000">omc_CodegenSparseFMI</text>
<text text-anchor="middle" x="236" y="-56.5" font-family="Helvetica,sans-Serif" font-size="10.00" fill="#000000">_fun__429</text>
</a>
</g>
</g>
<!-- Node1171&#45;&gt;Node1172 -->
<g id="edge1" class="edge">
<title>Node1171&#45;&gt;Node1172</title>
<path fill="none" stroke="#191970" d="M136.332,-64.5C144.6633,-64.5 153.2079,-64.5 161.6219,-64.5"/>
<polygon fill="#191970" stroke="#191970" points="161.7973,-68.0001 171.7973,-64.5 161.7972,-61.0001 161.7973,-68.0001"/>
</g>
<!-- Node1173 -->
<g id="node3" class="node">
<title>Node1173</title>
<g id="a_node3"><a xlink:href="../../d7/d52/_tpl_8c.html#a7e5a397e973cf3de37af50d58cbb789f" target="_top" xlink:title="omc_Tpl_writeText">
<polygon fill="#ffffff" stroke="#000000" points="500,-76 500,-95 600,-95 600,-76 500,-76"/>
<text text-anchor="middle" x="550" y="-83" font-family="Helvetica,sans-Serif" font-size="10.00" fill="#000000">omc_Tpl_writeText</text>
</a>
</g>
</g>
<!-- Node1172&#45;&gt;Node1173 -->
<g id="edge2" class="edge">
<title>Node1172&#45;&gt;Node1173</title>
<path fill="none" stroke="#191970" d="M285.9069,-79.526C301.768,-83.6112 319.482,-87.4665 336,-89.5 392.4627,-96.4509 407.1265,-90.8219 464,-89.5 472.3772,-89.3053 481.2098,-89.004 489.8964,-88.6522"/>
<polygon fill="#191970" stroke="#191970" points="490.1499,-92.1447 499.9907,-88.2194 489.8499,-85.1511 490.1499,-92.1447"/>
</g>
<!-- Node1174 -->
<g id="node4" class="node">
<title>Node1174</title>
<g id="a_node4"><a xlink:href="../../d1/d2e/_codegen_sparse_f_m_i_8c.html#a4dc3d7bb2d22e5dde060731d7a946c38" target="_top" xlink:title="omc_CodegenSparseFMI\l_fun__427">
<polygon fill="#ffffff" stroke="#000000" points="336,-.5 336,-30.5 464,-30.5 464,-.5 336,-.5"/>
<text text-anchor="start" x="344" y="-18.5" font-family="Helvetica,sans-Serif" font-size="10.00" fill="#000000">omc_CodegenSparseFMI</text>
<text text-anchor="middle" x="400" y="-7.5" font-family="Helvetica,sans-Serif" font-size="10.00" fill="#000000">_fun__427</text>
</a>
</g>
</g>
<!-- Node1172&#45;&gt;Node1174 -->
<g id="edge3" class="edge">
<title>Node1172&#45;&gt;Node1174</title>
<path fill="none" stroke="#191970" d="M286.5436,-49.3986C303.4579,-44.3449 322.4769,-38.6624 340.0391,-33.4152"/>
<polygon fill="#191970" stroke="#191970" points="341.0438,-36.7679 349.6233,-30.5516 339.0398,-30.0609 341.0438,-36.7679"/>
</g>
<!-- Node1176 -->
<g id="node6" class="node">
<title>Node1176</title>
<g id="a_node6"><a xlink:href="../../d1/d2e/_codegen_sparse_f_m_i_8c.html#a330243068f2c95c1298245c2fb856441" target="_top" xlink:title="omc_CodegenSparseFMI\l_fun__428">
<polygon fill="#ffffff" stroke="#000000" points="336,-49.5 336,-79.5 464,-79.5 464,-49.5 336,-49.5"/>
<text text-anchor="start" x="344" y="-67.5" font-family="Helvetica,sans-Serif" font-size="10.00" fill="#000000">omc_CodegenSparseFMI</text>
<text text-anchor="middle" x="400" y="-56.5" font-family="Helvetica,sans-Serif" font-size="10.00" fill="#000000">_fun__428</text>
</a>
</g>
</g>
<!-- Node1172&#45;&gt;Node1176 -->
<g id="edge5" class="edge">
<title>Node1172&#45;&gt;Node1176</title>
<path fill="none" stroke="#191970" d="M300.3464,-64.5C308.6401,-64.5 317.1868,-64.5 325.6248,-64.5"/>
<polygon fill="#191970" stroke="#191970" points="325.8392,-68.0001 335.8391,-64.5 325.8391,-61.0001 325.8392,-68.0001"/>
</g>
<!-- Node1175 -->
<g id="node5" class="node">
<title>Node1175</title>
<g id="a_node5"><a xlink:href="../../d7/d52/_tpl_8c.html#a1038a57834f028b49f38adc4d5fcd049" target="_top" xlink:title="omc_Tpl_writeTok">
<polygon fill="#ffffff" stroke="#000000" points="501.5,-33 501.5,-52 598.5,-52 598.5,-33 501.5,-33"/>
<text text-anchor="middle" x="550" y="-40" font-family="Helvetica,sans-Serif" font-size="10.00" fill="#000000">omc_Tpl_writeTok</text>
</a>
</g>
</g>
<!-- Node1174&#45;&gt;Node1175 -->
<g id="edge4" class="edge">
<title>Node1174&#45;&gt;Node1175</title>
<path fill="none" stroke="#191970" d="M464.0486,-27.0287C473.0739,-28.6533 482.3155,-30.3168 491.2353,-31.9223"/>
<polygon fill="#191970" stroke="#191970" points="490.6787,-35.3783 501.1406,-33.7053 491.9188,-28.489 490.6787,-35.3783"/>
</g>
<!-- Node1176&#45;&gt;Node1173 -->
<g id="edge7" class="edge">
<title>Node1176&#45;&gt;Node1173</title>
<path fill="none" stroke="#191970" d="M464.0486,-73.4668C472.5402,-74.6556 481.2232,-75.8712 489.6495,-77.0509"/>
<polygon fill="#191970" stroke="#191970" points="489.3815,-80.5475 499.7703,-78.4678 490.3521,-73.6151 489.3815,-80.5475"/>
</g>
<!-- Node1176&#45;&gt;Node1175 -->
<g id="edge6" class="edge">
<title>Node1176&#45;&gt;Node1175</title>
<path fill="none" stroke="#191970" d="M464.0486,-55.1062C473.0739,-53.7825 482.3155,-52.4271 491.2353,-51.1188"/>
<polygon fill="#191970" stroke="#191970" points="491.7543,-54.5802 501.1406,-49.6661 490.7385,-47.6543 491.7543,-54.5802"/>
</g>
</g>
</svg>
