<?xml version="1.0" encoding="UTF-8" standalone="no"?>
<!DOCTYPE svg PUBLIC "-//W3C//DTD SVG 1.1//EN"
 "http://www.w3.org/Graphics/SVG/1.1/DTD/svg11.dtd">
<!-- Generated by graphviz version 2.40.1 (20161225.0304)
 -->
<!-- Title: omc_CodegenSparseFMI_fun__694 Pages: 1 -->
<svg width="1628pt" height="651pt"
 viewBox="0.00 0.00 1628.00 651.00" xmlns="http://www.w3.org/2000/svg" xmlns:xlink="http://www.w3.org/1999/xlink">
<g id="graph0" class="graph" transform="scale(1 1) rotate(0) translate(4 647)">
<title>omc_CodegenSparseFMI_fun__694</title>
<polygon fill="#ffffff" stroke="transparent" points="-4,4 -4,-647 1624,-647 1624,4 -4,4"/>
<!-- Node15409 -->
<g id="node1" class="node">
<title>Node15409</title>
<polygon fill="#bfbfbf" stroke="#000000" points="0,-317.5 0,-347.5 128,-347.5 128,-317.5 0,-317.5"/>
<text text-anchor="start" x="8" y="-335.5" font-family="Helvetica,sans-Serif" font-size="10.00" fill="#000000">omc_CodegenSparseFMI</text>
<text text-anchor="middle" x="64" y="-324.5" font-family="Helvetica,sans-Serif" font-size="10.00" fill="#000000">_fun__694</text>
</g>
<!-- Node15410 -->
<g id="node2" class="node">
<title>Node15410</title>
<g id="a_node2"><a xlink:href="../../da/d88/_codegen_sparse_f_m_i_8h.html#acfbb9a390216018b2b638833ce6d8604" target="_top" xlink:title="omc_CodegenSparseFMI\l_expType">
<polygon fill="#ffffff" stroke="#000000" points="168,-342.5 168,-372.5 296,-372.5 296,-342.5 168,-342.5"/>
<text text-anchor="start" x="176" y="-360.5" font-family="Helvetica,sans-Serif" font-size="10.00" fill="#000000">omc_CodegenSparseFMI</text>
<text text-anchor="middle" x="232" y="-349.5" font-family="Helvetica,sans-Serif" font-size="10.00" fill="#000000">_expType</text>
</a>
</g>
</g>
<!-- Node15409&#45;&gt;Node15410 -->
<g id="edge1" class="edge">
<title>Node15409&#45;&gt;Node15410</title>
<path fill="none" stroke="#191970" d="M138.6004,-343.6012C148.4007,-345.0596 158.3738,-346.5437 167.9772,-347.9728"/>
<polygon fill="#191970" stroke="#191970" points="138.879,-340.1042 128.4727,-342.0942 137.8486,-347.028 138.879,-340.1042"/>
</g>
<!-- Node15438 -->
<g id="node30" class="node">
<title>Node15438</title>
<g id="a_node30"><a xlink:href="../../d1/d2e/_codegen_sparse_f_m_i_8c.html#aee75bcd231928c7c3e1bf5a2637c80f8" target="_top" xlink:title="boxptr_CodegenSparseFMI\l_fun__694">
<polygon fill="#ffffff" stroke="#000000" points="164,-293.5 164,-323.5 300,-323.5 300,-293.5 164,-293.5"/>
<text text-anchor="start" x="172" y="-311.5" font-family="Helvetica,sans-Serif" font-size="10.00" fill="#000000">boxptr_CodegenSparseFMI</text>
<text text-anchor="middle" x="232" y="-300.5" font-family="Helvetica,sans-Serif" font-size="10.00" fill="#000000">_fun__694</text>
</a>
</g>
</g>
<!-- Node15409&#45;&gt;Node15438 -->
<g id="edge31" class="edge">
<title>Node15409&#45;&gt;Node15438</title>
<path fill="none" stroke="#191970" d="M138.6114,-321.8412C146.9934,-320.6438 155.5016,-319.4283 163.7966,-318.2433"/>
<polygon fill="#191970" stroke="#191970" points="137.8772,-318.4105 128.4727,-323.2896 138.8672,-325.3401 137.8772,-318.4105"/>
</g>
<!-- Node15411 -->
<g id="node3" class="node">
<title>Node15411</title>
<g id="a_node3"><a xlink:href="../../da/d88/_codegen_sparse_f_m_i_8h.html#a8790a993b8f72c81b58b3fcf63b7c72b" target="_top" xlink:title="boxptr_CodegenSparseFMI\l_expType">
<polygon fill="#ffffff" stroke="#000000" points="336,-416.5 336,-446.5 472,-446.5 472,-416.5 336,-416.5"/>
<text text-anchor="start" x="344" y="-434.5" font-family="Helvetica,sans-Serif" font-size="10.00" fill="#000000">boxptr_CodegenSparseFMI</text>
<text text-anchor="middle" x="404" y="-423.5" font-family="Helvetica,sans-Serif" font-size="10.00" fill="#000000">_expType</text>
</a>
</g>
</g>
<!-- Node15410&#45;&gt;Node15411 -->
<g id="edge2" class="edge">
<title>Node15410&#45;&gt;Node15411</title>
<path fill="none" stroke="#191970" d="M270.338,-377.1646C289.7805,-386.82 313.8999,-398.3194 336,-407.5 343.3993,-410.5737 351.349,-413.6106 359.1113,-416.4369"/>
<polygon fill="#191970" stroke="#191970" points="271.7077,-373.9363 261.1986,-372.5911 268.5751,-380.1962 271.7077,-373.9363"/>
</g>
<!-- Node15412 -->
<g id="node4" class="node">
<title>Node15412</title>
<g id="a_node4"><a xlink:href="../../da/d88/_codegen_sparse_f_m_i_8h.html#a15ee44d2afe47cb6295a4d916b0ca7a1" target="_top" xlink:title="omc_CodegenSparseFMI\l_algStmtForGeneric">
<polygon fill="#ffffff" stroke="#000000" points="340,-367.5 340,-397.5 468,-397.5 468,-367.5 340,-367.5"/>
<text text-anchor="start" x="348" y="-385.5" font-family="Helvetica,sans-Serif" font-size="10.00" fill="#000000">omc_CodegenSparseFMI</text>
<text text-anchor="middle" x="404" y="-374.5" font-family="Helvetica,sans-Serif" font-size="10.00" fill="#000000">_algStmtForGeneric</text>
</a>
</g>
</g>
<!-- Node15410&#45;&gt;Node15412 -->
<g id="edge3" class="edge">
<title>Node15410&#45;&gt;Node15412</title>
<path fill="none" stroke="#191970" d="M306.2411,-368.2909C317.4495,-369.92 328.9295,-371.5886 339.9001,-373.1831"/>
<polygon fill="#191970" stroke="#191970" points="306.4459,-364.7839 296.0465,-366.8091 305.439,-371.7111 306.4459,-364.7839"/>
</g>
<!-- Node15434 -->
<g id="node26" class="node">
<title>Node15434</title>
<g id="a_node26"><a xlink:href="../../da/d88/_codegen_sparse_f_m_i_8h.html#aec1da676936e15ede37d5d7df69bd5d3" target="_top" xlink:title="omc_CodegenSparseFMI\l_algStmtForRange">
<polygon fill="#ffffff" stroke="#000000" points="340,-318.5 340,-348.5 468,-348.5 468,-318.5 340,-318.5"/>
<text text-anchor="start" x="348" y="-336.5" font-family="Helvetica,sans-Serif" font-size="10.00" fill="#000000">omc_CodegenSparseFMI</text>
<text text-anchor="middle" x="404" y="-325.5" font-family="Helvetica,sans-Serif" font-size="10.00" fill="#000000">_algStmtForRange</text>
</a>
</g>
</g>
<!-- Node15410&#45;&gt;Node15434 -->
<g id="edge26" class="edge">
<title>Node15410&#45;&gt;Node15434</title>
<path fill="none" stroke="#191970" d="M306.2411,-347.1408C317.4495,-345.5768 328.9295,-343.975 339.9001,-342.4442"/>
<polygon fill="#191970" stroke="#191970" points="305.4668,-343.7148 296.0465,-348.5633 306.4342,-350.6477 305.4668,-343.7148"/>
</g>
<!-- Node15435 -->
<g id="node27" class="node">
<title>Node15435</title>
<g id="a_node27"><a xlink:href="../../d1/d2e/_codegen_sparse_f_m_i_8c.html#ad897386ec984cb21ba1b58ce8ad1dce9" target="_top" xlink:title="omc_CodegenSparseFMI\l_fun__385">
<polygon fill="#ffffff" stroke="#000000" points="340,-269.5 340,-299.5 468,-299.5 468,-269.5 340,-269.5"/>
<text text-anchor="start" x="348" y="-287.5" font-family="Helvetica,sans-Serif" font-size="10.00" fill="#000000">omc_CodegenSparseFMI</text>
<text text-anchor="middle" x="404" y="-276.5" font-family="Helvetica,sans-Serif" font-size="10.00" fill="#000000">_fun__385</text>
</a>
</g>
</g>
<!-- Node15410&#45;&gt;Node15435 -->
<g id="edge28" class="edge">
<title>Node15410&#45;&gt;Node15435</title>
<path fill="none" stroke="#191970" d="M286.894,-338.6076C291.3849,-336.6738 295.8055,-334.6315 300,-332.5 317.1432,-323.7885 318.8005,-317.0997 336,-308.5 342.4946,-305.2527 349.5368,-302.2449 356.5451,-299.5348"/>
<polygon fill="#191970" stroke="#191970" points="285.5442,-335.3782 277.6265,-342.4181 288.2063,-341.8523 285.5442,-335.3782"/>
</g>
<!-- Node15413 -->
<g id="node5" class="node">
<title>Node15413</title>
<g id="a_node5"><a xlink:href="../../da/d88/_codegen_sparse_f_m_i_8h.html#a4a85a211bdd342c5634f687ac8530821" target="_top" xlink:title="omc_CodegenSparseFMI\l_algStmtFor">
<polygon fill="#ffffff" stroke="#000000" points="508,-342.5 508,-372.5 636,-372.5 636,-342.5 508,-342.5"/>
<text text-anchor="start" x="516" y="-360.5" font-family="Helvetica,sans-Serif" font-size="10.00" fill="#000000">omc_CodegenSparseFMI</text>
<text text-anchor="middle" x="572" y="-349.5" font-family="Helvetica,sans-Serif" font-size="10.00" fill="#000000">_algStmtFor</text>
</a>
</g>
</g>
<!-- Node15412&#45;&gt;Node15413 -->
<g id="edge4" class="edge">
<title>Node15412&#45;&gt;Node15413</title>
<path fill="none" stroke="#191970" d="M478.6004,-371.3988C488.4007,-369.9404 498.3738,-368.4563 507.9772,-367.0272"/>
<polygon fill="#191970" stroke="#191970" points="477.8486,-367.972 468.4727,-372.9058 478.879,-374.8958 477.8486,-367.972"/>
</g>
<!-- Node15414 -->
<g id="node6" class="node">
<title>Node15414</title>
<g id="a_node6"><a xlink:href="../../d1/d2e/_codegen_sparse_f_m_i_8c.html#a38506d8a286cdb1703e9653cec496244" target="_top" xlink:title="omc_CodegenSparseFMI\l_fun__454">
<polygon fill="#ffffff" stroke="#000000" points="672,-342.5 672,-372.5 800,-372.5 800,-342.5 672,-342.5"/>
<text text-anchor="start" x="680" y="-360.5" font-family="Helvetica,sans-Serif" font-size="10.00" fill="#000000">omc_CodegenSparseFMI</text>
<text text-anchor="middle" x="736" y="-349.5" font-family="Helvetica,sans-Serif" font-size="10.00" fill="#000000">_fun__454</text>
</a>
</g>
</g>
<!-- Node15413&#45;&gt;Node15414 -->
<g id="edge5" class="edge">
<title>Node15413&#45;&gt;Node15414</title>
<path fill="none" stroke="#191970" d="M646.5641,-357.5C655.0037,-357.5 663.5492,-357.5 671.8391,-357.5"/>
<polygon fill="#191970" stroke="#191970" points="646.3465,-354.0001 636.3464,-357.5 646.3464,-361.0001 646.3465,-354.0001"/>
</g>
<!-- Node15415 -->
<g id="node7" class="node">
<title>Node15415</title>
<g id="a_node7"><a xlink:href="../../da/d88/_codegen_sparse_f_m_i_8h.html#a5d1fbf810cfb458410c3f606dd4518d6" target="_top" xlink:title="omc_CodegenSparseFMI\l_algStatement">
<polygon fill="#ffffff" stroke="#000000" points="836,-342.5 836,-372.5 964,-372.5 964,-342.5 836,-342.5"/>
<text text-anchor="start" x="844" y="-360.5" font-family="Helvetica,sans-Serif" font-size="10.00" fill="#000000">omc_CodegenSparseFMI</text>
<text text-anchor="middle" x="900" y="-349.5" font-family="Helvetica,sans-Serif" font-size="10.00" fill="#000000">_algStatement</text>
</a>
</g>
</g>
<!-- Node15414&#45;&gt;Node15415 -->
<g id="edge6" class="edge">
<title>Node15414&#45;&gt;Node15415</title>
<path fill="none" stroke="#191970" d="M810.5641,-357.5C819.0037,-357.5 827.5492,-357.5 835.8391,-357.5"/>
<polygon fill="#191970" stroke="#191970" points="810.3465,-354.0001 800.3464,-357.5 810.3464,-361.0001 810.3465,-354.0001"/>
</g>
<!-- Node15416 -->
<g id="node8" class="node">
<title>Node15416</title>
<g id="a_node8"><a xlink:href="../../d1/d2e/_codegen_sparse_f_m_i_8c.html#a4601ee3bb7611f920e2f9c96c21fce8e" target="_top" xlink:title="omc_CodegenSparseFMI\l_lm__651">
<polygon fill="#ffffff" stroke="#000000" points="1000,-612.5 1000,-642.5 1128,-642.5 1128,-612.5 1000,-612.5"/>
<text text-anchor="start" x="1008" y="-630.5" font-family="Helvetica,sans-Serif" font-size="10.00" fill="#000000">omc_CodegenSparseFMI</text>
<text text-anchor="middle" x="1064" y="-619.5" font-family="Helvetica,sans-Serif" font-size="10.00" fill="#000000">_lm__651</text>
</a>
</g>
</g>
<!-- Node15415&#45;&gt;Node15416 -->
<g id="edge7" class="edge">
<title>Node15415&#45;&gt;Node15416</title>
<path fill="none" stroke="#191970" d="M903.4381,-382.5915C911.4468,-431.6728 935.7987,-541.0298 1000,-603.5 1003.487,-606.893 1007.4987,-609.8147 1011.7775,-612.3292"/>
<polygon fill="#191970" stroke="#191970" points="906.8711,-381.8877 901.8913,-372.5361 899.9525,-382.952 906.8711,-381.8877"/>
</g>
<!-- Node15417 -->
<g id="node9" class="node">
<title>Node15417</title>
<g id="a_node9"><a xlink:href="../../d1/d2e/_codegen_sparse_f_m_i_8c.html#af95888dfe83bb5057d8fd4311bb02812" target="_top" xlink:title="omc_CodegenSparseFMI\l_lm__512">
<polygon fill="#ffffff" stroke="#000000" points="1000,-563.5 1000,-593.5 1128,-593.5 1128,-563.5 1000,-563.5"/>
<text text-anchor="start" x="1008" y="-581.5" font-family="Helvetica,sans-Serif" font-size="10.00" fill="#000000">omc_CodegenSparseFMI</text>
<text text-anchor="middle" x="1064" y="-570.5" font-family="Helvetica,sans-Serif" font-size="10.00" fill="#000000">_lm__512</text>
</a>
</g>
</g>
<!-- Node15415&#45;&gt;Node15417 -->
<g id="edge8" class="edge">
<title>Node15415&#45;&gt;Node15417</title>
<path fill="none" stroke="#191970" d="M906.2765,-382.466C917.9067,-423.8294 946.622,-506.7385 1000,-554.5 1003.8026,-557.9025 1008.1335,-560.8391 1012.7078,-563.3704"/>
<polygon fill="#191970" stroke="#191970" points="909.6134,-381.3976 903.6227,-372.6591 902.8564,-383.2262 909.6134,-381.3976"/>
</g>
<!-- Node15418 -->
<g id="node10" class="node">
<title>Node15418</title>
<g id="a_node10"><a xlink:href="../../d1/d2e/_codegen_sparse_f_m_i_8c.html#ab0773a7f193a1fc208023bda15bcd13e" target="_top" xlink:title="omc_CodegenSparseFMI\l_lm__511">
<polygon fill="#ffffff" stroke="#000000" points="1000,-514.5 1000,-544.5 1128,-544.5 1128,-514.5 1000,-514.5"/>
<text text-anchor="start" x="1008" y="-532.5" font-family="Helvetica,sans-Serif" font-size="10.00" fill="#000000">omc_CodegenSparseFMI</text>
<text text-anchor="middle" x="1064" y="-521.5" font-family="Helvetica,sans-Serif" font-size="10.00" fill="#000000">_lm__511</text>
</a>
</g>
</g>
<!-- Node15415&#45;&gt;Node15418 -->
<g id="edge9" class="edge">
<title>Node15415&#45;&gt;Node15418</title>
<path fill="none" stroke="#191970" d="M910.6864,-382.03C926.0149,-414.5487 957.1881,-471.7437 1000,-505.5 1004.2865,-508.8798 1009.0989,-511.8199 1014.1099,-514.3692"/>
<polygon fill="#191970" stroke="#191970" points="913.7949,-380.4121 906.4427,-372.7835 907.433,-383.332 913.7949,-380.4121"/>
</g>
<!-- Node15419 -->
<g id="node11" class="node">
<title>Node15419</title>
<g id="a_node11"><a xlink:href="../../d1/d2e/_codegen_sparse_f_m_i_8c.html#ab9c484cbc52677b6df8e8fb6df621cc0" target="_top" xlink:title="omc_CodegenSparseFMI\l_lm__506">
<polygon fill="#ffffff" stroke="#000000" points="1000,-465.5 1000,-495.5 1128,-495.5 1128,-465.5 1000,-465.5"/>
<text text-anchor="start" x="1008" y="-483.5" font-family="Helvetica,sans-Serif" font-size="10.00" fill="#000000">omc_CodegenSparseFMI</text>
<text text-anchor="middle" x="1064" y="-472.5" font-family="Helvetica,sans-Serif" font-size="10.00" fill="#000000">_lm__506</text>
</a>
</g>
</g>
<!-- Node15415&#45;&gt;Node15419 -->
<g id="edge10" class="edge">
<title>Node15415&#45;&gt;Node15419</title>
<path fill="none" stroke="#191970" d="M918.1991,-380.4627C936.7421,-402.5515 967.3457,-435.5894 1000,-456.5 1005.1965,-459.8277 1010.9226,-462.7937 1016.7486,-465.4077"/>
<polygon fill="#191970" stroke="#191970" points="920.7645,-378.0722 911.7036,-372.5812 915.3626,-382.5242 920.7645,-378.0722"/>
</g>
<!-- Node15420 -->
<g id="node12" class="node">
<title>Node15420</title>
<g id="a_node12"><a xlink:href="../../d1/d2e/_codegen_sparse_f_m_i_8c.html#a7b108abc44b96cb6c9ed48e243a90fad" target="_top" xlink:title="omc_CodegenSparseFMI\l_lm__502">
<polygon fill="#ffffff" stroke="#000000" points="1000,-416.5 1000,-446.5 1128,-446.5 1128,-416.5 1000,-416.5"/>
<text text-anchor="start" x="1008" y="-434.5" font-family="Helvetica,sans-Serif" font-size="10.00" fill="#000000">omc_CodegenSparseFMI</text>
<text text-anchor="middle" x="1064" y="-423.5" font-family="Helvetica,sans-Serif" font-size="10.00" fill="#000000">_lm__502</text>
</a>
</g>
</g>
<!-- Node15415&#45;&gt;Node15420 -->
<g id="edge11" class="edge">
<title>Node15415&#45;&gt;Node15420</title>
<path fill="none" stroke="#191970" d="M937.1159,-377.2216C955.7654,-386.8313 978.8432,-398.2742 1000,-407.5 1006.9616,-410.5357 1014.4423,-413.5536 1021.7476,-416.3728"/>
<polygon fill="#191970" stroke="#191970" points="938.5612,-374.0284 928.0732,-372.5273 935.336,-380.2411 938.5612,-374.0284"/>
</g>
<!-- Node15421 -->
<g id="node13" class="node">
<title>Node15421</title>
<g id="a_node13"><a xlink:href="../../d1/d2e/_codegen_sparse_f_m_i_8c.html#a9a587324a76d2a404951bc9b392ed5cb" target="_top" xlink:title="omc_CodegenSparseFMI\l_lm__498">
<polygon fill="#ffffff" stroke="#000000" points="1000,-367.5 1000,-397.5 1128,-397.5 1128,-367.5 1000,-367.5"/>
<text text-anchor="start" x="1008" y="-385.5" font-family="Helvetica,sans-Serif" font-size="10.00" fill="#000000">omc_CodegenSparseFMI</text>
<text text-anchor="middle" x="1064" y="-374.5" font-family="Helvetica,sans-Serif" font-size="10.00" fill="#000000">_lm__498</text>
</a>
</g>
</g>
<!-- Node15415&#45;&gt;Node15421 -->
<g id="edge12" class="edge">
<title>Node15415&#45;&gt;Node15421</title>
<path fill="none" stroke="#191970" d="M974.2859,-368.8241C982.8158,-370.1244 991.4581,-371.4418 999.8391,-372.7194"/>
<polygon fill="#191970" stroke="#191970" points="974.7597,-365.3559 964.3464,-367.3089 973.7048,-372.276 974.7597,-365.3559"/>
</g>
<!-- Node15422 -->
<g id="node14" class="node">
<title>Node15422</title>
<g id="a_node14"><a xlink:href="../../d1/d2e/_codegen_sparse_f_m_i_8c.html#a72ef5dd5785e8cfbae898a4957299174" target="_top" xlink:title="omc_CodegenSparseFMI\l_lm__492">
<polygon fill="#ffffff" stroke="#000000" points="1000,-318.5 1000,-348.5 1128,-348.5 1128,-318.5 1000,-318.5"/>
<text text-anchor="start" x="1008" y="-336.5" font-family="Helvetica,sans-Serif" font-size="10.00" fill="#000000">omc_CodegenSparseFMI</text>
<text text-anchor="middle" x="1064" y="-325.5" font-family="Helvetica,sans-Serif" font-size="10.00" fill="#000000">_lm__492</text>
</a>
</g>
</g>
<!-- Node15415&#45;&gt;Node15422 -->
<g id="edge13" class="edge">
<title>Node15415&#45;&gt;Node15422</title>
<path fill="none" stroke="#191970" d="M974.2859,-346.6289C982.8158,-345.3806 991.4581,-344.1159 999.8391,-342.8894"/>
<polygon fill="#191970" stroke="#191970" points="973.7342,-343.1723 964.3464,-348.0834 974.7479,-350.0985 973.7342,-343.1723"/>
</g>
<!-- Node15423 -->
<g id="node15" class="node">
<title>Node15423</title>
<g id="a_node15"><a xlink:href="../../d1/d2e/_codegen_sparse_f_m_i_8c.html#aaee69379b676eacca1ab73ffa0291eea" target="_top" xlink:title="omc_CodegenSparseFMI\l_lm__485">
<polygon fill="#ffffff" stroke="#000000" points="1000,-269.5 1000,-299.5 1128,-299.5 1128,-269.5 1000,-269.5"/>
<text text-anchor="start" x="1008" y="-287.5" font-family="Helvetica,sans-Serif" font-size="10.00" fill="#000000">omc_CodegenSparseFMI</text>
<text text-anchor="middle" x="1064" y="-276.5" font-family="Helvetica,sans-Serif" font-size="10.00" fill="#000000">_lm__485</text>
</a>
</g>
</g>
<!-- Node15415&#45;&gt;Node15423 -->
<g id="edge14" class="edge">
<title>Node15415&#45;&gt;Node15423</title>
<path fill="none" stroke="#191970" d="M937.9647,-337.8202C956.4796,-328.5006 979.1942,-317.4735 1000,-308.5 1007.0827,-305.4453 1014.6946,-302.3945 1022.1105,-299.5427"/>
<polygon fill="#191970" stroke="#191970" points="936.3068,-334.7365 928.9695,-342.3795 939.4715,-340.9803 936.3068,-334.7365"/>
</g>
<!-- Node15424 -->
<g id="node16" class="node">
<title>Node15424</title>
<g id="a_node16"><a xlink:href="../../d1/d2e/_codegen_sparse_f_m_i_8c.html#a2f9a22c9a97ca26efa4457a52c8310c9" target="_top" xlink:title="omc_CodegenSparseFMI\l_lm__477">
<polygon fill="#ffffff" stroke="#000000" points="1000,-220.5 1000,-250.5 1128,-250.5 1128,-220.5 1000,-220.5"/>
<text text-anchor="start" x="1008" y="-238.5" font-family="Helvetica,sans-Serif" font-size="10.00" fill="#000000">omc_CodegenSparseFMI</text>
<text text-anchor="middle" x="1064" y="-227.5" font-family="Helvetica,sans-Serif" font-size="10.00" fill="#000000">_lm__477</text>
</a>
</g>
</g>
<!-- Node15415&#45;&gt;Node15424 -->
<g id="edge15" class="edge">
<title>Node15415&#45;&gt;Node15424</title>
<path fill="none" stroke="#191970" d="M918.5593,-334.4125C937.1681,-312.5572 967.6377,-280.1081 1000,-259.5 1005.2049,-256.1855 1010.936,-253.2273 1016.7647,-250.6174"/>
<polygon fill="#191970" stroke="#191970" points="915.758,-332.3064 912.0288,-342.2233 921.1283,-336.7965 915.758,-332.3064"/>
</g>
<!-- Node15425 -->
<g id="node17" class="node">
<title>Node15425</title>
<g id="a_node17"><a xlink:href="../../d1/d2e/_codegen_sparse_f_m_i_8c.html#a39706f1a079b0966689768a75ddc77b3" target="_top" xlink:title="omc_CodegenSparseFMI\l_lm__474">
<polygon fill="#ffffff" stroke="#000000" points="1000,-171.5 1000,-201.5 1128,-201.5 1128,-171.5 1000,-171.5"/>
<text text-anchor="start" x="1008" y="-189.5" font-family="Helvetica,sans-Serif" font-size="10.00" fill="#000000">omc_CodegenSparseFMI</text>
<text text-anchor="middle" x="1064" y="-178.5" font-family="Helvetica,sans-Serif" font-size="10.00" fill="#000000">_lm__474</text>
</a>
</g>
</g>
<!-- Node15415&#45;&gt;Node15425 -->
<g id="edge16" class="edge">
<title>Node15415&#45;&gt;Node15425</title>
<path fill="none" stroke="#191970" d="M910.7293,-333.137C926.106,-300.8396 957.3336,-244.0327 1000,-210.5 1004.2918,-207.1269 1009.1076,-204.1912 1014.1206,-201.6445"/>
<polygon fill="#191970" stroke="#191970" points="907.5024,-331.7761 906.4709,-342.3206 913.8529,-334.7208 907.5024,-331.7761"/>
</g>
<!-- Node15426 -->
<g id="node18" class="node">
<title>Node15426</title>
<g id="a_node18"><a xlink:href="../../d1/d2e/_codegen_sparse_f_m_i_8c.html#a1bcb8bb8090787c8cfad3cc233eb2cbb" target="_top" xlink:title="omc_CodegenSparseFMI\l_lm__437">
<polygon fill="#ffffff" stroke="#000000" points="1000,-122.5 1000,-152.5 1128,-152.5 1128,-122.5 1000,-122.5"/>
<text text-anchor="start" x="1008" y="-140.5" font-family="Helvetica,sans-Serif" font-size="10.00" fill="#000000">omc_CodegenSparseFMI</text>
<text text-anchor="middle" x="1064" y="-129.5" font-family="Helvetica,sans-Serif" font-size="10.00" fill="#000000">_lm__437</text>
</a>
</g>
</g>
<!-- Node15415&#45;&gt;Node15426 -->
<g id="edge17" class="edge">
<title>Node15415&#45;&gt;Node15426</title>
<path fill="none" stroke="#191970" d="M906.313,-332.6597C917.9967,-291.5047 946.7884,-209.0141 1000,-161.5 1003.8061,-158.1014 1008.1393,-155.1674 1012.7151,-152.6378"/>
<polygon fill="#191970" stroke="#191970" points="902.9065,-331.8482 903.646,-342.4172 909.6588,-333.6939 902.9065,-331.8482"/>
</g>
<!-- Node15428 -->
<g id="node20" class="node">
<title>Node15428</title>
<g id="a_node20"><a xlink:href="../../d1/d2e/_codegen_sparse_f_m_i_8c.html#a1572fc969206bf7560bccaad1883519a" target="_top" xlink:title="omc_CodegenSparseFMI\l_lm__154">
<polygon fill="#ffffff" stroke="#000000" points="1000,-73.5 1000,-103.5 1128,-103.5 1128,-73.5 1000,-73.5"/>
<text text-anchor="start" x="1008" y="-91.5" font-family="Helvetica,sans-Serif" font-size="10.00" fill="#000000">omc_CodegenSparseFMI</text>
<text text-anchor="middle" x="1064" y="-80.5" font-family="Helvetica,sans-Serif" font-size="10.00" fill="#000000">_lm__154</text>
</a>
</g>
</g>
<!-- Node15415&#45;&gt;Node15428 -->
<g id="edge19" class="edge">
<title>Node15415&#45;&gt;Node15428</title>
<path fill="none" stroke="#191970" d="M903.5276,-332.157C911.6506,-283.1033 936.1315,-174.558 1000,-112.5 1003.4894,-109.1095 1007.5027,-106.1894 1011.7826,-103.676"/>
<polygon fill="#191970" stroke="#191970" points="900.041,-331.7996 901.9553,-342.2201 906.9571,-332.8803 900.041,-331.7996"/>
</g>
<!-- Node15427 -->
<g id="node19" class="node">
<title>Node15427</title>
<g id="a_node19"><a xlink:href="../../da/d88/_codegen_sparse_f_m_i_8h.html#a6011fbd6700693d91a736f67f7cd333a" target="_top" xlink:title="omc_CodegenSparseFMI\l_funStatement">
<polygon fill="#ffffff" stroke="#000000" points="1164,-122.5 1164,-152.5 1292,-152.5 1292,-122.5 1164,-122.5"/>
<text text-anchor="start" x="1172" y="-140.5" font-family="Helvetica,sans-Serif" font-size="10.00" fill="#000000">omc_CodegenSparseFMI</text>
<text text-anchor="middle" x="1228" y="-129.5" font-family="Helvetica,sans-Serif" font-size="10.00" fill="#000000">_funStatement</text>
</a>
</g>
</g>
<!-- Node15426&#45;&gt;Node15427 -->
<g id="edge18" class="edge">
<title>Node15426&#45;&gt;Node15427</title>
<path fill="none" stroke="#191970" d="M1138.5641,-137.5C1147.0037,-137.5 1155.5492,-137.5 1163.8391,-137.5"/>
<polygon fill="#191970" stroke="#191970" points="1138.3465,-134.0001 1128.3464,-137.5 1138.3464,-141.0001 1138.3465,-134.0001"/>
</g>
<!-- Node15429 -->
<g id="node21" class="node">
<title>Node15429</title>
<g id="a_node21"><a xlink:href="../../da/d88/_codegen_sparse_f_m_i_8h.html#adc1144a1e01b13d32f1cd272edef769f" target="_top" xlink:title="omc_CodegenSparseFMI\l_equationAlgorithm">
<polygon fill="#ffffff" stroke="#000000" points="1164,-73.5 1164,-103.5 1292,-103.5 1292,-73.5 1164,-73.5"/>
<text text-anchor="start" x="1172" y="-91.5" font-family="Helvetica,sans-Serif" font-size="10.00" fill="#000000">omc_CodegenSparseFMI</text>
<text text-anchor="middle" x="1228" y="-80.5" font-family="Helvetica,sans-Serif" font-size="10.00" fill="#000000">_equationAlgorithm</text>
</a>
</g>
</g>
<!-- Node15428&#45;&gt;Node15429 -->
<g id="edge20" class="edge">
<title>Node15428&#45;&gt;Node15429</title>
<path fill="none" stroke="#191970" d="M1138.5641,-88.5C1147.0037,-88.5 1155.5492,-88.5 1163.8391,-88.5"/>
<polygon fill="#191970" stroke="#191970" points="1138.3465,-85.0001 1128.3464,-88.5 1138.3464,-92.0001 1138.3465,-85.0001"/>
</g>
<!-- Node15430 -->
<g id="node22" class="node">
<title>Node15430</title>
<g id="a_node22"><a xlink:href="../../da/d88/_codegen_sparse_f_m_i_8h.html#a99f4c0cb745d02faf3615bcda104a18a" target="_top" xlink:title="omc_CodegenSparseFMI\l_equation__">
<polygon fill="#ffffff" stroke="#000000" points="1328,-73.5 1328,-103.5 1456,-103.5 1456,-73.5 1328,-73.5"/>
<text text-anchor="start" x="1336" y="-91.5" font-family="Helvetica,sans-Serif" font-size="10.00" fill="#000000">omc_CodegenSparseFMI</text>
<text text-anchor="middle" x="1392" y="-80.5" font-family="Helvetica,sans-Serif" font-size="10.00" fill="#000000">_equation__</text>
</a>
</g>
</g>
<!-- Node15429&#45;&gt;Node15430 -->
<g id="edge21" class="edge">
<title>Node15429&#45;&gt;Node15430</title>
<path fill="none" stroke="#191970" d="M1302.5641,-88.5C1311.0037,-88.5 1319.5492,-88.5 1327.8391,-88.5"/>
<polygon fill="#191970" stroke="#191970" points="1302.3465,-85.0001 1292.3464,-88.5 1302.3464,-92.0001 1302.3465,-85.0001"/>
</g>
<!-- Node15431 -->
<g id="node23" class="node">
<title>Node15431</title>
<g id="a_node23"><a xlink:href="../../da/d88/_codegen_sparse_f_m_i_8h.html#ac29f9768bd0d77a3e1e85ee8d33113f2" target="_top" xlink:title="omc_CodegenSparseFMI\l_equationMixed">
<polygon fill="#ffffff" stroke="#000000" points="1492,-98.5 1492,-128.5 1620,-128.5 1620,-98.5 1492,-98.5"/>
<text text-anchor="start" x="1500" y="-116.5" font-family="Helvetica,sans-Serif" font-size="10.00" fill="#000000">omc_CodegenSparseFMI</text>
<text text-anchor="middle" x="1556" y="-105.5" font-family="Helvetica,sans-Serif" font-size="10.00" fill="#000000">_equationMixed</text>
</a>
</g>
</g>
<!-- Node15430&#45;&gt;Node15431 -->
<g id="edge22" class="edge">
<title>Node15430&#45;&gt;Node15431</title>
<path fill="none" stroke="#191970" d="M1466.5427,-93.1381C1477.7287,-94.7685 1489.1013,-96.596 1499.8186,-98.4924"/>
<polygon fill="#191970" stroke="#191970" points="1466.7373,-89.631 1456.3464,-91.6999 1465.7596,-96.5624 1466.7373,-89.631"/>
</g>
<!-- Node15432 -->
<g id="node24" class="node">
<title>Node15432</title>
<g id="a_node24"><a xlink:href="../../d1/d2e/_codegen_sparse_f_m_i_8c.html#a482b9fe4a2cf1170ba37c04cbeeba56b" target="_top" xlink:title="omc_CodegenSparseFMI\l_lm__145">
<polygon fill="#ffffff" stroke="#000000" points="1492,-49.5 1492,-79.5 1620,-79.5 1620,-49.5 1492,-49.5"/>
<text text-anchor="start" x="1500" y="-67.5" font-family="Helvetica,sans-Serif" font-size="10.00" fill="#000000">omc_CodegenSparseFMI</text>
<text text-anchor="middle" x="1556" y="-56.5" font-family="Helvetica,sans-Serif" font-size="10.00" fill="#000000">_lm__145</text>
</a>
</g>
</g>
<!-- Node15430&#45;&gt;Node15432 -->
<g id="edge24" class="edge">
<title>Node15430&#45;&gt;Node15432</title>
<path fill="none" stroke="#191970" d="M1466.2859,-77.6289C1474.8158,-76.3806 1483.4581,-75.1159 1491.8391,-73.8894"/>
<polygon fill="#191970" stroke="#191970" points="1465.7342,-74.1723 1456.3464,-79.0834 1466.7479,-81.0985 1465.7342,-74.1723"/>
</g>
<!-- Node15433 -->
<g id="node25" class="node">
<title>Node15433</title>
<g id="a_node25"><a xlink:href="../../d1/d2e/_codegen_sparse_f_m_i_8c.html#a53bc84287c3730b73c523380ca378dcf" target="_top" xlink:title="omc_CodegenSparseFMI\l_lm__144">
<polygon fill="#ffffff" stroke="#000000" points="1492,-.5 1492,-30.5 1620,-30.5 1620,-.5 1492,-.5"/>
<text text-anchor="start" x="1500" y="-18.5" font-family="Helvetica,sans-Serif" font-size="10.00" fill="#000000">omc_CodegenSparseFMI</text>
<text text-anchor="middle" x="1556" y="-7.5" font-family="Helvetica,sans-Serif" font-size="10.00" fill="#000000">_lm__144</text>
</a>
</g>
</g>
<!-- Node15430&#45;&gt;Node15433 -->
<g id="edge25" class="edge">
<title>Node15430&#45;&gt;Node15433</title>
<path fill="none" stroke="#191970" d="M1429.9647,-68.8202C1448.4796,-59.5006 1471.1942,-48.4735 1492,-39.5 1499.0827,-36.4453 1506.6946,-33.3945 1514.1105,-30.5427"/>
<polygon fill="#191970" stroke="#191970" points="1428.3068,-65.7365 1420.9695,-73.3795 1431.4715,-71.9803 1428.3068,-65.7365"/>
</g>
<!-- Node15431&#45;&gt;Node15430 -->
<g id="edge23" class="edge">
<title>Node15431&#45;&gt;Node15430</title>
<path fill="none" stroke="#191970" d="M1481.6765,-108.8938C1470.5097,-107.2685 1459.1513,-105.4457 1448.4395,-103.5532"/>
<polygon fill="#191970" stroke="#191970" points="1481.4634,-112.3983 1491.8538,-110.3274 1482.4398,-105.4667 1481.4634,-112.3983"/>
</g>
<!-- Node15434&#45;&gt;Node15413 -->
<g id="edge27" class="edge">
<title>Node15434&#45;&gt;Node15413</title>
<path fill="none" stroke="#191970" d="M478.6004,-344.1572C488.4007,-345.5572 498.3738,-346.982 507.9772,-348.3539"/>
<polygon fill="#191970" stroke="#191970" points="478.8672,-340.6599 468.4727,-342.7104 477.8772,-347.5895 478.8672,-340.6599"/>
</g>
<!-- Node15436 -->
<g id="node28" class="node">
<title>Node15436</title>
<g id="a_node28"><a xlink:href="../../da/d88/_codegen_sparse_f_m_i_8h.html#a42324cf6b9892f8fd03f341a668d6de7" target="_top" xlink:title="omc_CodegenSparseFMI\l_recordMemberInit">
<polygon fill="#ffffff" stroke="#000000" points="508,-269.5 508,-299.5 636,-299.5 636,-269.5 508,-269.5"/>
<text text-anchor="start" x="516" y="-287.5" font-family="Helvetica,sans-Serif" font-size="10.00" fill="#000000">omc_CodegenSparseFMI</text>
<text text-anchor="middle" x="572" y="-276.5" font-family="Helvetica,sans-Serif" font-size="10.00" fill="#000000">_recordMemberInit</text>
</a>
</g>
</g>
<!-- Node15435&#45;&gt;Node15436 -->
<g id="edge29" class="edge">
<title>Node15435&#45;&gt;Node15436</title>
<path fill="none" stroke="#191970" d="M478.6004,-284.5C488.4007,-284.5 498.3738,-284.5 507.9772,-284.5"/>
<polygon fill="#191970" stroke="#191970" points="478.4728,-281.0001 468.4727,-284.5 478.4727,-288.0001 478.4728,-281.0001"/>
</g>
<!-- Node15437 -->
<g id="node29" class="node">
<title>Node15437</title>
<g id="a_node29"><a xlink:href="../../d1/d2e/_codegen_sparse_f_m_i_8c.html#a0017c466a9e1dc9c184707e4f4f1b968" target="_top" xlink:title="omc_CodegenSparseFMI\l_lm__382">
<polygon fill="#ffffff" stroke="#000000" points="672,-269.5 672,-299.5 800,-299.5 800,-269.5 672,-269.5"/>
<text text-anchor="start" x="680" y="-287.5" font-family="Helvetica,sans-Serif" font-size="10.00" fill="#000000">omc_CodegenSparseFMI</text>
<text text-anchor="middle" x="736" y="-276.5" font-family="Helvetica,sans-Serif" font-size="10.00" fill="#000000">_lm__382</text>
</a>
</g>
</g>
<!-- Node15436&#45;&gt;Node15437 -->
<g id="edge30" class="edge">
<title>Node15436&#45;&gt;Node15437</title>
<path fill="none" stroke="#191970" d="M646.5641,-284.5C655.0037,-284.5 663.5492,-284.5 671.8391,-284.5"/>
<polygon fill="#191970" stroke="#191970" points="646.3465,-281.0001 636.3464,-284.5 646.3464,-288.0001 646.3465,-281.0001"/>
</g>
</g>
</svg>
