<?xml version="1.0" encoding="UTF-8" standalone="no"?>
<!DOCTYPE svg PUBLIC "-//W3C//DTD SVG 1.1//EN"
 "http://www.w3.org/Graphics/SVG/1.1/DTD/svg11.dtd">
<!-- Generated by graphviz version 2.40.1 (20161225.0304)
 -->
<!-- Title: omc_CodegenSparseFMI_fun__298 Pages: 1 -->
<svg width="308pt" height="39pt"
 viewBox="0.00 0.00 308.00 39.00" xmlns="http://www.w3.org/2000/svg" xmlns:xlink="http://www.w3.org/1999/xlink">
<g id="graph0" class="graph" transform="scale(1 1) rotate(0) translate(4 35)">
<title>omc_CodegenSparseFMI_fun__298</title>
<polygon fill="#ffffff" stroke="transparent" points="-4,4 -4,-35 304,-35 304,4 -4,4"/>
<!-- Node10410 -->
<g id="node1" class="node">
<title>Node10410</title>
<polygon fill="#bfbfbf" stroke="#000000" points="0,-.5 0,-30.5 128,-30.5 128,-.5 0,-.5"/>
<text text-anchor="start" x="8" y="-18.5" font-family="Helvetica,sans-Serif" font-size="10.00" fill="#000000">omc_CodegenSparseFMI</text>
<text text-anchor="middle" x="64" y="-7.5" font-family="Helvetica,sans-Serif" font-size="10.00" fill="#000000">_fun__298</text>
</g>
<!-- Node10411 -->
<g id="node2" class="node">
<title>Node10411</title>
<g id="a_node2"><a xlink:href="../../d1/d2e/_codegen_sparse_f_m_i_8c.html#afd0df6544c43d0918387429daedd9e22" target="_top" xlink:title="boxptr_CodegenSparseFMI\l_fun__298">
<polygon fill="#ffffff" stroke="#000000" points="164,-.5 164,-30.5 300,-30.5 300,-.5 164,-.5"/>
<text text-anchor="start" x="172" y="-18.5" font-family="Helvetica,sans-Serif" font-size="10.00" fill="#000000">boxptr_CodegenSparseFMI</text>
<text text-anchor="middle" x="232" y="-7.5" font-family="Helvetica,sans-Serif" font-size="10.00" fill="#000000">_fun__298</text>
</a>
</g>
</g>
<!-- Node10410&#45;&gt;Node10411 -->
<g id="edge1" class="edge">
<title>Node10410&#45;&gt;Node10411</title>
<path fill="none" stroke="#191970" d="M138.6114,-15.5C146.9934,-15.5 155.5016,-15.5 163.7966,-15.5"/>
<polygon fill="#191970" stroke="#191970" points="138.4728,-12.0001 128.4727,-15.5 138.4727,-19.0001 138.4728,-12.0001"/>
</g>
</g>
</svg>
