<?xml version="1.0" encoding="UTF-8" standalone="no"?>
<!DOCTYPE svg PUBLIC "-//W3C//DTD SVG 1.1//EN"
 "http://www.w3.org/Graphics/SVG/1.1/DTD/svg11.dtd">
<!-- Generated by graphviz version 2.40.1 (20161225.0304)
 -->
<!-- Title: omc_CodegenSparseFMI_fun__432 Pages: 1 -->
<svg width="472pt" height="88pt"
 viewBox="0.00 0.00 472.00 88.00" xmlns="http://www.w3.org/2000/svg" xmlns:xlink="http://www.w3.org/1999/xlink">
<g id="graph0" class="graph" transform="scale(1 1) rotate(0) translate(4 84)">
<title>omc_CodegenSparseFMI_fun__432</title>
<polygon fill="#ffffff" stroke="transparent" points="-4,4 -4,-84 468,-84 468,4 -4,4"/>
<!-- Node11487 -->
<g id="node1" class="node">
<title>Node11487</title>
<polygon fill="#bfbfbf" stroke="#000000" points="0,-24.5 0,-54.5 128,-54.5 128,-24.5 0,-24.5"/>
<text text-anchor="start" x="8" y="-42.5" font-family="Helvetica,sans-Serif" font-size="10.00" fill="#000000">omc_CodegenSparseFMI</text>
<text text-anchor="middle" x="64" y="-31.5" font-family="Helvetica,sans-Serif" font-size="10.00" fill="#000000">_fun__432</text>
</g>
<!-- Node11488 -->
<g id="node2" class="node">
<title>Node11488</title>
<g id="a_node2"><a xlink:href="../../da/d88/_codegen_sparse_f_m_i_8h.html#a4ede9dc5a24141bcc3f7fa0d816badf1" target="_top" xlink:title="omc_CodegenSparseFMI\l_extArgF77">
<polygon fill="#ffffff" stroke="#000000" points="168,-49.5 168,-79.5 296,-79.5 296,-49.5 168,-49.5"/>
<text text-anchor="start" x="176" y="-67.5" font-family="Helvetica,sans-Serif" font-size="10.00" fill="#000000">omc_CodegenSparseFMI</text>
<text text-anchor="middle" x="232" y="-56.5" font-family="Helvetica,sans-Serif" font-size="10.00" fill="#000000">_extArgF77</text>
</a>
</g>
</g>
<!-- Node11487&#45;&gt;Node11488 -->
<g id="edge1" class="edge">
<title>Node11487&#45;&gt;Node11488</title>
<path fill="none" stroke="#191970" d="M138.6004,-50.6012C148.4007,-52.0596 158.3738,-53.5437 167.9772,-54.9728"/>
<polygon fill="#191970" stroke="#191970" points="138.879,-47.1042 128.4727,-49.0942 137.8486,-54.028 138.879,-47.1042"/>
</g>
<!-- Node11490 -->
<g id="node4" class="node">
<title>Node11490</title>
<g id="a_node4"><a xlink:href="../../d1/d2e/_codegen_sparse_f_m_i_8c.html#ab8eaacca2faf32f96bb30aef31e445b0" target="_top" xlink:title="boxptr_CodegenSparseFMI\l_fun__432">
<polygon fill="#ffffff" stroke="#000000" points="164,-.5 164,-30.5 300,-30.5 300,-.5 164,-.5"/>
<text text-anchor="start" x="172" y="-18.5" font-family="Helvetica,sans-Serif" font-size="10.00" fill="#000000">boxptr_CodegenSparseFMI</text>
<text text-anchor="middle" x="232" y="-7.5" font-family="Helvetica,sans-Serif" font-size="10.00" fill="#000000">_fun__432</text>
</a>
</g>
</g>
<!-- Node11487&#45;&gt;Node11490 -->
<g id="edge3" class="edge">
<title>Node11487&#45;&gt;Node11490</title>
<path fill="none" stroke="#191970" d="M138.6114,-28.8412C146.9934,-27.6438 155.5016,-26.4283 163.7966,-25.2433"/>
<polygon fill="#191970" stroke="#191970" points="137.8772,-25.4105 128.4727,-30.2896 138.8672,-32.3401 137.8772,-25.4105"/>
</g>
<!-- Node11489 -->
<g id="node3" class="node">
<title>Node11489</title>
<g id="a_node3"><a xlink:href="../../d1/d2e/_codegen_sparse_f_m_i_8c.html#a077f00f4b83d923850bb355dc87e8da2" target="_top" xlink:title="omc_CodegenSparseFMI\l_lm__399">
<polygon fill="#ffffff" stroke="#000000" points="336,-49.5 336,-79.5 464,-79.5 464,-49.5 336,-49.5"/>
<text text-anchor="start" x="344" y="-67.5" font-family="Helvetica,sans-Serif" font-size="10.00" fill="#000000">omc_CodegenSparseFMI</text>
<text text-anchor="middle" x="400" y="-56.5" font-family="Helvetica,sans-Serif" font-size="10.00" fill="#000000">_lm__399</text>
</a>
</g>
</g>
<!-- Node11488&#45;&gt;Node11489 -->
<g id="edge2" class="edge">
<title>Node11488&#45;&gt;Node11489</title>
<path fill="none" stroke="#191970" d="M306.6004,-64.5C316.4007,-64.5 326.3738,-64.5 335.9772,-64.5"/>
<polygon fill="#191970" stroke="#191970" points="306.4728,-61.0001 296.4727,-64.5 306.4727,-68.0001 306.4728,-61.0001"/>
</g>
</g>
</svg>
