<?xml version="1.0" encoding="UTF-8" standalone="no"?>
<!DOCTYPE svg PUBLIC "-//W3C//DTD SVG 1.1//EN"
 "http://www.w3.org/Graphics/SVG/1.1/DTD/svg11.dtd">
<!-- Generated by graphviz version 2.40.1 (20161225.0304)
 -->
<!-- Title: omc_CodegenSparseFMI_lm__211 Pages: 1 -->
<svg width="1104pt" height="100pt"
 viewBox="0.00 0.00 1104.00 99.50" xmlns="http://www.w3.org/2000/svg" xmlns:xlink="http://www.w3.org/1999/xlink">
<g id="graph0" class="graph" transform="scale(1 1) rotate(0) translate(4 95.5)">
<title>omc_CodegenSparseFMI_lm__211</title>
<polygon fill="#ffffff" stroke="transparent" points="-4,4 -4,-95.5 1100,-95.5 1100,4 -4,4"/>
<!-- Node18997 -->
<g id="node1" class="node">
<title>Node18997</title>
<polygon fill="#bfbfbf" stroke="#000000" points="0,-17 0,-47 128,-47 128,-17 0,-17"/>
<text text-anchor="start" x="8" y="-35" font-family="Helvetica,sans-Serif" font-size="10.00" fill="#000000">omc_CodegenSparseFMI</text>
<text text-anchor="middle" x="64" y="-24" font-family="Helvetica,sans-Serif" font-size="10.00" fill="#000000">_lm__211</text>
</g>
<!-- Node18998 -->
<g id="node2" class="node">
<title>Node18998</title>
<g id="a_node2"><a xlink:href="../../d1/d2e/_codegen_sparse_f_m_i_8c.html#a3a4e37a305f6a89faea6f0e9859281c1" target="_top" xlink:title="omc_CodegenSparseFMI\l_functionHeader">
<polygon fill="#ffffff" stroke="#000000" points="164,-39 164,-69 292,-69 292,-39 164,-39"/>
<text text-anchor="start" x="172" y="-57" font-family="Helvetica,sans-Serif" font-size="10.00" fill="#000000">omc_CodegenSparseFMI</text>
<text text-anchor="middle" x="228" y="-46" font-family="Helvetica,sans-Serif" font-size="10.00" fill="#000000">_functionHeader</text>
</a>
</g>
</g>
<!-- Node18997&#45;&gt;Node18998 -->
<g id="edge1" class="edge">
<title>Node18997&#45;&gt;Node18998</title>
<path fill="none" stroke="#191970" d="M128.3464,-40.6318C136.7313,-41.7566 145.3746,-42.9161 153.9029,-44.0601"/>
<polygon fill="#191970" stroke="#191970" points="153.4625,-47.5323 163.8391,-45.3931 154.3933,-40.5945 153.4625,-47.5323"/>
</g>
<!-- Node19005 -->
<g id="node9" class="node">
<title>Node19005</title>
<g id="a_node9"><a xlink:href="../../d7/d52/_tpl_8c.html#ae3c38d796bafc525ba51ed985d39c720" target="_top" xlink:title="omc_Tpl_nextIter">
<polygon fill="#ffffff" stroke="#000000" points="182,-.5 182,-19.5 274,-19.5 274,-.5 182,-.5"/>
<text text-anchor="middle" x="228" y="-7.5" font-family="Helvetica,sans-Serif" font-size="10.00" fill="#000000">omc_Tpl_nextIter</text>
</a>
</g>
</g>
<!-- Node18997&#45;&gt;Node19005 -->
<g id="edge8" class="edge">
<title>Node18997&#45;&gt;Node19005</title>
<path fill="none" stroke="#191970" d="M128.3464,-23.3682C142.7163,-21.4405 157.8456,-19.411 171.8535,-17.5319"/>
<polygon fill="#191970" stroke="#191970" points="172.3825,-20.9923 181.8284,-16.1938 171.4518,-14.0545 172.3825,-20.9923"/>
</g>
<!-- Node18999 -->
<g id="node3" class="node">
<title>Node18999</title>
<g id="a_node3"><a xlink:href="../../de/d91/_codegen_util_8c.html#a1f1383df613db73164b297470f762459" target="_top" xlink:title="omc_CodegenUtil_underscorePath">
<polygon fill="#ffffff" stroke="#000000" points="328,-44.5 328,-63.5 496,-63.5 496,-44.5 328,-44.5"/>
<text text-anchor="middle" x="412" y="-51.5" font-family="Helvetica,sans-Serif" font-size="10.00" fill="#000000">omc_CodegenUtil_underscorePath</text>
</a>
</g>
</g>
<!-- Node18998&#45;&gt;Node18999 -->
<g id="edge2" class="edge">
<title>Node18998&#45;&gt;Node18999</title>
<path fill="none" stroke="#191970" d="M292.096,-54C300.3705,-54 308.9777,-54 317.6129,-54"/>
<polygon fill="#191970" stroke="#191970" points="317.7446,-57.5001 327.7446,-54 317.7445,-50.5001 317.7446,-57.5001"/>
</g>
<!-- Node19000 -->
<g id="node4" class="node">
<title>Node19000</title>
<g id="a_node4"><a xlink:href="../../de/d91/_codegen_util_8c.html#a4a3591cd347973b3220fe437765dab23" target="_top" xlink:title="omc_CodegenUtil_replaceDot\lAndUnderscore">
<polygon fill="#ffffff" stroke="#000000" points="532,-61 532,-91 679,-91 679,-61 532,-61"/>
<text text-anchor="start" x="540" y="-79" font-family="Helvetica,sans-Serif" font-size="10.00" fill="#000000">omc_CodegenUtil_replaceDot</text>
<text text-anchor="middle" x="605.5" y="-68" font-family="Helvetica,sans-Serif" font-size="10.00" fill="#000000">AndUnderscore</text>
</a>
</g>
</g>
<!-- Node18999&#45;&gt;Node19000 -->
<g id="edge3" class="edge">
<title>Node18999&#45;&gt;Node19000</title>
<path fill="none" stroke="#191970" d="M495.7465,-63.5216C504.4092,-64.5065 513.2136,-65.5075 521.875,-66.4923"/>
<polygon fill="#191970" stroke="#191970" points="521.6287,-69.9867 531.9601,-67.6389 522.4195,-63.0315 521.6287,-69.9867"/>
</g>
<!-- Node19004 -->
<g id="node8" class="node">
<title>Node19004</title>
<g id="a_node8"><a xlink:href="../../d7/d52/_tpl_8c.html#a1038a57834f028b49f38adc4d5fcd049" target="_top" xlink:title="omc_Tpl_writeTok">
<polygon fill="#ffffff" stroke="#000000" points="557,-22.5 557,-41.5 654,-41.5 654,-22.5 557,-22.5"/>
<text text-anchor="middle" x="605.5" y="-29.5" font-family="Helvetica,sans-Serif" font-size="10.00" fill="#000000">omc_Tpl_writeTok</text>
</a>
</g>
</g>
<!-- Node18999&#45;&gt;Node19004 -->
<g id="edge7" class="edge">
<title>Node18999&#45;&gt;Node19004</title>
<path fill="none" stroke="#191970" d="M495.7465,-44.4784C512.839,-42.5351 530.4829,-40.5291 546.4919,-38.7089"/>
<polygon fill="#191970" stroke="#191970" points="547.2132,-42.1496 556.7538,-37.5422 546.4224,-35.1944 547.2132,-42.1496"/>
</g>
<!-- Node19001 -->
<g id="node5" class="node">
<title>Node19001</title>
<g id="a_node5"><a xlink:href="../../d1/d95/_system_8c.html#a058b959f3f74b2d76bb6b21a01cdddb1" target="_top" xlink:title="omc_System_stringReplace">
<polygon fill="#ffffff" stroke="#000000" points="715,-66.5 715,-85.5 855,-85.5 855,-66.5 715,-66.5"/>
<text text-anchor="middle" x="785" y="-73.5" font-family="Helvetica,sans-Serif" font-size="10.00" fill="#000000">omc_System_stringReplace</text>
</a>
</g>
</g>
<!-- Node19000&#45;&gt;Node19001 -->
<g id="edge4" class="edge">
<title>Node19000&#45;&gt;Node19001</title>
<path fill="none" stroke="#191970" d="M679.0274,-76C687.425,-76 696.0185,-76 704.5007,-76"/>
<polygon fill="#191970" stroke="#191970" points="704.7711,-79.5001 714.7711,-76 704.7711,-72.5001 704.7711,-79.5001"/>
</g>
<!-- Node19002 -->
<g id="node6" class="node">
<title>Node19002</title>
<g id="a_node6"><a xlink:href="../../d8/d28/_compiler_2boot_2build_2system_8h.html#abd9e4634afacfdd5c965aee4d8662e35" target="_top" xlink:title="System_stringReplace">
<polygon fill="#ffffff" stroke="#000000" points="891,-66.5 891,-85.5 1007,-85.5 1007,-66.5 891,-66.5"/>
<text text-anchor="middle" x="949" y="-73.5" font-family="Helvetica,sans-Serif" font-size="10.00" fill="#000000">System_stringReplace</text>
</a>
</g>
</g>
<!-- Node19001&#45;&gt;Node19002 -->
<g id="edge5" class="edge">
<title>Node19001&#45;&gt;Node19002</title>
<path fill="none" stroke="#191970" d="M855.0265,-76C863.506,-76 872.1601,-76 880.6154,-76"/>
<polygon fill="#191970" stroke="#191970" points="880.8055,-79.5001 890.8055,-76 880.8055,-72.5001 880.8055,-79.5001"/>
</g>
<!-- Node19003 -->
<g id="node7" class="node">
<title>Node19003</title>
<g id="a_node7"><a xlink:href="../../d0/dfd/printimpl_8c.html#a0ba59718edccbb5a0e203e2c9600a69c" target="_top" xlink:title="_replace">
<polygon fill="#ffffff" stroke="#000000" points="1043,-66.5 1043,-85.5 1096,-85.5 1096,-66.5 1043,-66.5"/>
<text text-anchor="middle" x="1069.5" y="-73.5" font-family="Helvetica,sans-Serif" font-size="10.00" fill="#000000">_replace</text>
</a>
</g>
</g>
<!-- Node19002&#45;&gt;Node19003 -->
<g id="edge6" class="edge">
<title>Node19002&#45;&gt;Node19003</title>
<path fill="none" stroke="#191970" d="M1007.1322,-76C1015.8363,-76 1024.5994,-76 1032.6937,-76"/>
<polygon fill="#191970" stroke="#191970" points="1032.888,-79.5001 1042.8879,-76 1032.8879,-72.5001 1032.888,-79.5001"/>
</g>
</g>
</svg>
