<?xml version="1.0" encoding="UTF-8" standalone="no"?>
<!DOCTYPE svg PUBLIC "-//W3C//DTD SVG 1.1//EN"
 "http://www.w3.org/Graphics/SVG/1.1/DTD/svg11.dtd">
<!-- Generated by graphviz version 2.40.1 (20161225.0304)
 -->
<!-- Title: omc_CodegenSparseFMI_lm__468 Pages: 1 -->
<svg width="701pt" height="85pt"
 viewBox="0.00 0.00 701.00 85.00" xmlns="http://www.w3.org/2000/svg" xmlns:xlink="http://www.w3.org/1999/xlink">
<g id="graph0" class="graph" transform="scale(1 1) rotate(0) translate(4 81)">
<title>omc_CodegenSparseFMI_lm__468</title>
<polygon fill="#ffffff" stroke="transparent" points="-4,4 -4,-81 697,-81 697,4 -4,4"/>
<!-- Node20619 -->
<g id="node1" class="node">
<title>Node20619</title>
<polygon fill="#bfbfbf" stroke="#000000" points="0,-14 0,-44 128,-44 128,-14 0,-14"/>
<text text-anchor="start" x="8" y="-32" font-family="Helvetica,sans-Serif" font-size="10.00" fill="#000000">omc_CodegenSparseFMI</text>
<text text-anchor="middle" x="64" y="-21" font-family="Helvetica,sans-Serif" font-size="10.00" fill="#000000">_lm__468</text>
</g>
<!-- Node20620 -->
<g id="node2" class="node">
<title>Node20620</title>
<g id="a_node2"><a xlink:href="../../d7/d52/_tpl_8c.html#a5ea76e329a6adbbec62206d9e8b62373" target="_top" xlink:title="omc_Tpl_getIteri__i0">
<polygon fill="#ffffff" stroke="#000000" points="164,-38.5 164,-57.5 271,-57.5 271,-38.5 164,-38.5"/>
<text text-anchor="middle" x="217.5" y="-45.5" font-family="Helvetica,sans-Serif" font-size="10.00" fill="#000000">omc_Tpl_getIteri__i0</text>
</a>
</g>
</g>
<!-- Node20619&#45;&gt;Node20620 -->
<g id="edge1" class="edge">
<title>Node20619&#45;&gt;Node20620</title>
<path fill="none" stroke="#191970" d="M128.2084,-36.9476C136.619,-37.9887 145.236,-39.0553 153.6408,-40.0956"/>
<polygon fill="#191970" stroke="#191970" points="153.405,-43.593 163.7592,-41.3481 154.265,-36.6461 153.405,-43.593"/>
</g>
<!-- Node20627 -->
<g id="node9" class="node">
<title>Node20627</title>
<g id="a_node9"><a xlink:href="../../d7/d52/_tpl_8c.html#a7e5a397e973cf3de37af50d58cbb789f" target="_top" xlink:title="omc_Tpl_writeText">
<polygon fill="#ffffff" stroke="#000000" points="167.5,-.5 167.5,-19.5 267.5,-19.5 267.5,-.5 167.5,-.5"/>
<text text-anchor="middle" x="217.5" y="-7.5" font-family="Helvetica,sans-Serif" font-size="10.00" fill="#000000">omc_Tpl_writeText</text>
</a>
</g>
</g>
<!-- Node20619&#45;&gt;Node20627 -->
<g id="edge8" class="edge">
<title>Node20619&#45;&gt;Node20627</title>
<path fill="none" stroke="#191970" d="M128.2084,-21.0524C137.7409,-19.8725 147.5386,-18.6597 156.9919,-17.4896"/>
<polygon fill="#191970" stroke="#191970" points="157.5913,-20.9422 167.0856,-16.2402 156.7313,-13.9952 157.5913,-20.9422"/>
</g>
<!-- Node20621 -->
<g id="node3" class="node">
<title>Node20621</title>
<g id="a_node3"><a xlink:href="../../d3/db3/_flags_8c.html#a34e6591659b1578969141a635ff24042" target="_top" xlink:title="omc_Flags_isSet">
<polygon fill="#ffffff" stroke="#000000" points="309,-57.5 309,-76.5 401,-76.5 401,-57.5 309,-57.5"/>
<text text-anchor="middle" x="355" y="-64.5" font-family="Helvetica,sans-Serif" font-size="10.00" fill="#000000">omc_Flags_isSet</text>
</a>
</g>
</g>
<!-- Node20620&#45;&gt;Node20621 -->
<g id="edge2" class="edge">
<title>Node20620&#45;&gt;Node20621</title>
<path fill="none" stroke="#191970" d="M271.0548,-55.4003C280.1494,-56.657 289.6175,-57.9653 298.7784,-59.2312"/>
<polygon fill="#191970" stroke="#191970" points="298.5696,-62.7355 308.9546,-60.6374 299.5278,-55.8014 298.5696,-62.7355"/>
</g>
<!-- Node20624 -->
<g id="node6" class="node">
<title>Node20624</title>
<g id="a_node6"><a xlink:href="../../d6/d1d/_compiler_2boot_2build_2debug_8c.html#a465f6e24432a8b1db4c7576ea09e7259" target="_top" xlink:title="omc_Debug_trace">
<polygon fill="#ffffff" stroke="#000000" points="307,-19.5 307,-38.5 403,-38.5 403,-19.5 307,-19.5"/>
<text text-anchor="middle" x="355" y="-26.5" font-family="Helvetica,sans-Serif" font-size="10.00" fill="#000000">omc_Debug_trace</text>
</a>
</g>
</g>
<!-- Node20620&#45;&gt;Node20624 -->
<g id="edge5" class="edge">
<title>Node20620&#45;&gt;Node20624</title>
<path fill="none" stroke="#191970" d="M271.0548,-40.5997C279.4178,-39.4441 288.0965,-38.2448 296.5618,-37.0751"/>
<polygon fill="#191970" stroke="#191970" points="297.3194,-40.5038 306.7462,-35.6678 296.3612,-33.5696 297.3194,-40.5038"/>
</g>
<!-- Node20622 -->
<g id="node4" class="node">
<title>Node20622</title>
<g id="a_node4"><a xlink:href="../../d3/db3/_flags_8c.html#a760d66f53b65ac257876ca0f6308f09f" target="_top" xlink:title="omc_Flags_loadFlags">
<polygon fill="#ffffff" stroke="#000000" points="443.5,-57.5 443.5,-76.5 555.5,-76.5 555.5,-57.5 443.5,-57.5"/>
<text text-anchor="middle" x="499.5" y="-64.5" font-family="Helvetica,sans-Serif" font-size="10.00" fill="#000000">omc_Flags_loadFlags</text>
</a>
</g>
</g>
<!-- Node20621&#45;&gt;Node20622 -->
<g id="edge3" class="edge">
<title>Node20621&#45;&gt;Node20622</title>
<path fill="none" stroke="#191970" d="M401.118,-67C411.3205,-67 422.3264,-67 433.1543,-67"/>
<polygon fill="#191970" stroke="#191970" points="433.4492,-70.5001 443.4491,-67 433.4491,-63.5001 433.4492,-70.5001"/>
</g>
<!-- Node20623 -->
<g id="node5" class="node">
<title>Node20623</title>
<g id="a_node5"><a xlink:href="../../da/d72/_compiler_2boot_2build_2list_8c.html#a3ec1ee3a5ff53be9af368e290be09182" target="_top" xlink:title="omc_List_fold">
<polygon fill="#ffffff" stroke="#000000" points="606,-57.5 606,-76.5 683,-76.5 683,-57.5 606,-57.5"/>
<text text-anchor="middle" x="644.5" y="-64.5" font-family="Helvetica,sans-Serif" font-size="10.00" fill="#000000">omc_List_fold</text>
</a>
</g>
</g>
<!-- Node20622&#45;&gt;Node20623 -->
<g id="edge4" class="edge">
<title>Node20622&#45;&gt;Node20623</title>
<path fill="none" stroke="#191970" d="M555.5608,-67C568.7662,-67 582.7398,-67 595.601,-67"/>
<polygon fill="#191970" stroke="#191970" points="595.6412,-70.5001 605.6412,-67 595.6411,-63.5001 595.6412,-70.5001"/>
</g>
<!-- Node20625 -->
<g id="node7" class="node">
<title>Node20625</title>
<g id="a_node7"><a xlink:href="../../dc/d4a/_print_8c.html#a136f27763cbad8fdab9e975d877aff4b" target="_top" xlink:title="omc_Print_printErrorBuf">
<polygon fill="#ffffff" stroke="#000000" points="439,-19.5 439,-38.5 560,-38.5 560,-19.5 439,-19.5"/>
<text text-anchor="middle" x="499.5" y="-26.5" font-family="Helvetica,sans-Serif" font-size="10.00" fill="#000000">omc_Print_printErrorBuf</text>
</a>
</g>
</g>
<!-- Node20624&#45;&gt;Node20625 -->
<g id="edge6" class="edge">
<title>Node20624&#45;&gt;Node20625</title>
<path fill="none" stroke="#191970" d="M403.1164,-29C411.3777,-29 420.1146,-29 428.8211,-29"/>
<polygon fill="#191970" stroke="#191970" points="428.9975,-32.5001 438.9974,-29 428.9974,-25.5001 428.9975,-32.5001"/>
</g>
<!-- Node20626 -->
<g id="node8" class="node">
<title>Node20626</title>
<g id="a_node8"><a xlink:href="../../db/def/_print_8h.html#ac4ef051f731ad4fd851c45be8d215b4c" target="_top" xlink:title="Print_printErrorBuf">
<polygon fill="#ffffff" stroke="#000000" points="596,-19.5 596,-38.5 693,-38.5 693,-19.5 596,-19.5"/>
<text text-anchor="middle" x="644.5" y="-26.5" font-family="Helvetica,sans-Serif" font-size="10.00" fill="#000000">Print_printErrorBuf</text>
</a>
</g>
</g>
<!-- Node20625&#45;&gt;Node20626 -->
<g id="edge7" class="edge">
<title>Node20625&#45;&gt;Node20626</title>
<path fill="none" stroke="#191970" d="M560.1529,-29C568.6494,-29 577.3691,-29 585.8279,-29"/>
<polygon fill="#191970" stroke="#191970" points="585.984,-32.5001 595.984,-29 585.984,-25.5001 585.984,-32.5001"/>
</g>
</g>
</svg>
