<?xml version="1.0" encoding="UTF-8" standalone="no"?>
<!DOCTYPE svg PUBLIC "-//W3C//DTD SVG 1.1//EN"
 "http://www.w3.org/Graphics/SVG/1.1/DTD/svg11.dtd">
<!-- Generated by graphviz version 2.40.1 (20161225.0304)
 -->
<!-- Title: N_VConst_OpenMP Pages: 1 -->
<svg width="418pt" height="218pt"
 viewBox="0.00 0.00 418.00 218.00" xmlns="http://www.w3.org/2000/svg" xmlns:xlink="http://www.w3.org/1999/xlink">
<g id="graph0" class="graph" transform="scale(1 1) rotate(0) translate(4 214)">
<title>N_VConst_OpenMP</title>
<polygon fill="#ffffff" stroke="transparent" points="-4,4 -4,-214 414,-214 414,4 -4,4"/>
<!-- Node75 -->
<g id="node1" class="node">
<title>Node75</title>
<polygon fill="#bfbfbf" stroke="#000000" points="0,-95.5 0,-114.5 106,-114.5 106,-95.5 0,-95.5"/>
<text text-anchor="middle" x="53" y="-102.5" font-family="Helvetica,sans-Serif" font-size="10.00" fill="#000000">N_VConst_OpenMP</text>
</g>
<!-- Node76 -->
<g id="node2" class="node">
<title>Node76</title>
<g id="a_node2"><a xlink:href="../../de/d1d/nvector__openmp_8c.html#a104d420abb5853c9d622a79f3ffc4229" target="_top" xlink:title="N_VNewEmpty_OpenMP">
<polygon fill="#ffffff" stroke="#000000" points="142,-95.5 142,-114.5 270,-114.5 270,-95.5 142,-95.5"/>
<text text-anchor="middle" x="206" y="-102.5" font-family="Helvetica,sans-Serif" font-size="10.00" fill="#000000">N_VNewEmpty_OpenMP</text>
</a>
</g>
</g>
<!-- Node75&#45;&gt;Node76 -->
<g id="edge1" class="edge">
<title>Node75&#45;&gt;Node76</title>
<path fill="none" stroke="#191970" d="M116.2809,-105C124.7563,-105 133.455,-105 141.9436,-105"/>
<polygon fill="#191970" stroke="#191970" points="116.0826,-101.5001 106.0826,-105 116.0826,-108.5001 116.0826,-101.5001"/>
</g>
<!-- Node77 -->
<g id="node3" class="node">
<title>Node77</title>
<g id="a_node3"><a xlink:href="../../db/d58/fnvector__openmp_8h.html#a555b570b7f342bd69c91a47495a928f7" target="_top" xlink:title="FNV_INITOMP">
<polygon fill="#ffffff" stroke="#000000" points="316,-190.5 316,-209.5 400,-209.5 400,-190.5 316,-190.5"/>
<text text-anchor="middle" x="358" y="-197.5" font-family="Helvetica,sans-Serif" font-size="10.00" fill="#000000">FNV_INITOMP</text>
</a>
</g>
</g>
<!-- Node76&#45;&gt;Node77 -->
<g id="edge2" class="edge">
<title>Node76&#45;&gt;Node77</title>
<path fill="none" stroke="#191970" d="M223.9996,-121.3567C243.1802,-138.1187 274.9958,-164.0586 306,-181 312.5789,-184.5949 319.9762,-187.763 327.0824,-190.4306"/>
<polygon fill="#191970" stroke="#191970" points="226.1613,-118.5957 216.3581,-114.5772 221.5157,-123.8319 226.1613,-118.5957"/>
</g>
<!-- Node78 -->
<g id="node4" class="node">
<title>Node78</title>
<g id="a_node4"><a xlink:href="../../db/d58/fnvector__openmp_8h.html#a141f2f83ee34e76a3cfdf284589fe614" target="_top" xlink:title="FNV_INITOMP_Q">
<polygon fill="#ffffff" stroke="#000000" points="309.5,-152.5 309.5,-171.5 406.5,-171.5 406.5,-152.5 309.5,-152.5"/>
<text text-anchor="middle" x="358" y="-159.5" font-family="Helvetica,sans-Serif" font-size="10.00" fill="#000000">FNV_INITOMP_Q</text>
</a>
</g>
</g>
<!-- Node76&#45;&gt;Node78 -->
<g id="edge3" class="edge">
<title>Node76&#45;&gt;Node78</title>
<path fill="none" stroke="#191970" d="M240.5855,-118.2675C259.8244,-125.6164 284.2149,-134.8812 306,-143 314.376,-146.1215 323.5289,-149.4825 331.7888,-152.4971"/>
<polygon fill="#191970" stroke="#191970" points="241.6259,-114.9182 231.0354,-114.6154 239.1255,-121.4565 241.6259,-114.9182"/>
</g>
<!-- Node79 -->
<g id="node5" class="node">
<title>Node79</title>
<g id="a_node5"><a xlink:href="../../db/d58/fnvector__openmp_8h.html#a7abfc9d76928d25d849a46ef228e8eda" target="_top" xlink:title="FNV_INITOMP_B">
<polygon fill="#ffffff" stroke="#000000" points="310,-114.5 310,-133.5 406,-133.5 406,-114.5 310,-114.5"/>
<text text-anchor="middle" x="358" y="-121.5" font-family="Helvetica,sans-Serif" font-size="10.00" fill="#000000">FNV_INITOMP_B</text>
</a>
</g>
</g>
<!-- Node76&#45;&gt;Node79 -->
<g id="edge4" class="edge">
<title>Node76&#45;&gt;Node79</title>
<path fill="none" stroke="#191970" d="M280.0685,-114.2586C290.1573,-115.5197 300.2915,-116.7864 309.7594,-117.9699"/>
<polygon fill="#191970" stroke="#191970" points="280.3781,-110.7701 270.0211,-113.0026 279.5098,-117.716 280.3781,-110.7701"/>
</g>
<!-- Node80 -->
<g id="node6" class="node">
<title>Node80</title>
<g id="a_node6"><a xlink:href="../../db/d58/fnvector__openmp_8h.html#a9e730d08f88d60d9f50c8e000759b268" target="_top" xlink:title="FNV_INITOMP_QB">
<polygon fill="#ffffff" stroke="#000000" points="306,-76.5 306,-95.5 410,-95.5 410,-76.5 306,-76.5"/>
<text text-anchor="middle" x="358" y="-83.5" font-family="Helvetica,sans-Serif" font-size="10.00" fill="#000000">FNV_INITOMP_QB</text>
</a>
</g>
</g>
<!-- Node76&#45;&gt;Node80 -->
<g id="edge5" class="edge">
<title>Node76&#45;&gt;Node80</title>
<path fill="none" stroke="#191970" d="M280.0838,-95.7395C288.6912,-94.6636 297.3313,-93.5836 305.5622,-92.5547"/>
<polygon fill="#191970" stroke="#191970" points="279.5098,-92.284 270.0211,-96.9974 280.3781,-99.2299 279.5098,-92.284"/>
</g>
<!-- Node81 -->
<g id="node7" class="node">
<title>Node81</title>
<g id="a_node7"><a xlink:href="../../de/d1d/nvector__openmp_8c.html#a0b25035896ca19ae03ddaf9675673f91" target="_top" xlink:title="N_VNew_OpenMP">
<polygon fill="#ffffff" stroke="#000000" points="308,-38.5 308,-57.5 408,-57.5 408,-38.5 308,-38.5"/>
<text text-anchor="middle" x="358" y="-45.5" font-family="Helvetica,sans-Serif" font-size="10.00" fill="#000000">N_VNew_OpenMP</text>
</a>
</g>
</g>
<!-- Node76&#45;&gt;Node81 -->
<g id="edge6" class="edge">
<title>Node76&#45;&gt;Node81</title>
<path fill="none" stroke="#191970" d="M240.5855,-91.7325C259.8244,-84.3836 284.2149,-75.1188 306,-67 314.376,-63.8785 323.5289,-60.5175 331.7888,-57.5029"/>
<polygon fill="#191970" stroke="#191970" points="239.1255,-88.5435 231.0354,-95.3846 241.6259,-95.0818 239.1255,-88.5435"/>
</g>
<!-- Node82 -->
<g id="node8" class="node">
<title>Node82</title>
<g id="a_node8"><a xlink:href="../../de/d1d/nvector__openmp_8c.html#a3297daaa0bce3315dbf050f385f0583d" target="_top" xlink:title="N_VMake_OpenMP">
<polygon fill="#ffffff" stroke="#000000" points="306,-.5 306,-19.5 410,-19.5 410,-.5 306,-.5"/>
<text text-anchor="middle" x="358" y="-7.5" font-family="Helvetica,sans-Serif" font-size="10.00" fill="#000000">N_VMake_OpenMP</text>
</a>
</g>
</g>
<!-- Node76&#45;&gt;Node82 -->
<g id="edge7" class="edge">
<title>Node76&#45;&gt;Node82</title>
<path fill="none" stroke="#191970" d="M223.9996,-88.6433C243.1802,-71.8813 274.9958,-45.9414 306,-29 312.5789,-25.4051 319.9762,-22.237 327.0824,-19.5694"/>
<polygon fill="#191970" stroke="#191970" points="221.5157,-86.1681 216.3581,-95.4228 226.1613,-91.4043 221.5157,-86.1681"/>
</g>
</g>
</svg>
