<?xml version="1.0" encoding="UTF-8" standalone="no"?>
<!DOCTYPE svg PUBLIC "-//W3C//DTD SVG 1.1//EN"
 "http://www.w3.org/Graphics/SVG/1.1/DTD/svg11.dtd">
<!-- Generated by graphviz version 2.40.1 (20161225.0304)
 -->
<!-- Title: GC_return_mark_stack Pages: 1 -->
<svg width="680pt" height="208pt"
 viewBox="0.00 0.00 680.00 208.00" xmlns="http://www.w3.org/2000/svg" xmlns:xlink="http://www.w3.org/1999/xlink">
<g id="graph0" class="graph" transform="scale(1 1) rotate(0) translate(4 204)">
<title>GC_return_mark_stack</title>
<polygon fill="#ffffff" stroke="transparent" points="-4,4 -4,-204 676,-204 676,4 -4,4"/>
<!-- Node5478 -->
<g id="node1" class="node">
<title>Node5478</title>
<polygon fill="#bfbfbf" stroke="#000000" points="0,-57.5 0,-76.5 118,-76.5 118,-57.5 0,-57.5"/>
<text text-anchor="middle" x="59" y="-64.5" font-family="Helvetica,sans-Serif" font-size="10.00" fill="#000000">GC_return_mark_stack</text>
</g>
<!-- Node5479 -->
<g id="node2" class="node">
<title>Node5479</title>
<g id="a_node2"><a xlink:href="../../dd/d79/gc__priv_8h.html#aa7b265bebad4b809068fdb8b6c6d422f" target="_top" xlink:title="GC_acquire_mark_lock">
<polygon fill="#ffffff" stroke="#000000" points="154,-123.5 154,-142.5 273,-142.5 273,-123.5 154,-123.5"/>
<text text-anchor="middle" x="213.5" y="-130.5" font-family="Helvetica,sans-Serif" font-size="10.00" fill="#000000">GC_acquire_mark_lock</text>
</a>
</g>
</g>
<!-- Node5478&#45;&gt;Node5479 -->
<g id="edge1" class="edge">
<title>Node5478&#45;&gt;Node5479</title>
<path fill="none" stroke="#191970" d="M81.4656,-76.597C107.858,-87.8714 151.8275,-106.6545 181.7097,-119.4197"/>
<polygon fill="#191970" stroke="#191970" points="180.6869,-122.7887 191.2579,-123.4985 183.4368,-116.3514 180.6869,-122.7887"/>
</g>
<!-- Node5486 -->
<g id="node9" class="node">
<title>Node5486</title>
<g id="a_node9"><a xlink:href="../../de/d97/generalize-small_8h.html#ad40005bf02bced359697864d34ec1a4c" target="_top" xlink:title="AO_load">
<polygon fill="#ffffff" stroke="#000000" points="186.5,-76.5 186.5,-95.5 240.5,-95.5 240.5,-76.5 186.5,-76.5"/>
<text text-anchor="middle" x="213.5" y="-83.5" font-family="Helvetica,sans-Serif" font-size="10.00" fill="#000000">AO_load</text>
</a>
</g>
</g>
<!-- Node5478&#45;&gt;Node5486 -->
<g id="edge10" class="edge">
<title>Node5478&#45;&gt;Node5486</title>
<path fill="none" stroke="#191970" d="M118.2919,-74.2916C137.7419,-76.6835 158.7999,-79.2731 176.1541,-81.4073"/>
<polygon fill="#191970" stroke="#191970" points="176.081,-84.9246 186.4335,-82.6714 176.9355,-77.9769 176.081,-84.9246"/>
</g>
<!-- Node5488 -->
<g id="node11" class="node">
<title>Node5488</title>
<g id="a_node11"><a xlink:href="../../dd/d79/gc__priv_8h.html#a8cc8de044e9b85ed50e5d75373d2375e" target="_top" xlink:title="GC_release_mark_lock">
<polygon fill="#ffffff" stroke="#000000" points="154,-38.5 154,-57.5 273,-57.5 273,-38.5 154,-38.5"/>
<text text-anchor="middle" x="213.5" y="-45.5" font-family="Helvetica,sans-Serif" font-size="10.00" fill="#000000">GC_release_mark_lock</text>
</a>
</g>
</g>
<!-- Node5478&#45;&gt;Node5488 -->
<g id="edge12" class="edge">
<title>Node5478&#45;&gt;Node5488</title>
<path fill="none" stroke="#191970" d="M118.2919,-59.7084C126.6713,-58.678 135.3492,-57.6108 143.9007,-56.5591"/>
<polygon fill="#191970" stroke="#191970" points="144.3581,-60.0293 153.8561,-55.3349 143.5036,-53.0817 144.3581,-60.0293"/>
</g>
<!-- Node5489 -->
<g id="node12" class="node">
<title>Node5489</title>
<g id="a_node12"><a xlink:href="../../dd/d79/gc__priv_8h.html#aea557ea3c4b30b413c166172d9a9ea31" target="_top" xlink:title="GC_notify_all_marker">
<polygon fill="#ffffff" stroke="#000000" points="158,-.5 158,-19.5 269,-19.5 269,-.5 158,-.5"/>
<text text-anchor="middle" x="213.5" y="-7.5" font-family="Helvetica,sans-Serif" font-size="10.00" fill="#000000">GC_notify_all_marker</text>
</a>
</g>
</g>
<!-- Node5478&#45;&gt;Node5489 -->
<g id="edge13" class="edge">
<title>Node5478&#45;&gt;Node5489</title>
<path fill="none" stroke="#191970" d="M81.4763,-57.4826C100.6174,-49.5046 128.9229,-38.0063 154,-29 159.9607,-26.8593 166.2986,-24.7063 172.5314,-22.6582"/>
<polygon fill="#191970" stroke="#191970" points="173.731,-25.9488 182.1698,-19.5429 171.5781,-19.2881 173.731,-25.9488"/>
</g>
<!-- Node5480 -->
<g id="node3" class="node">
<title>Node5480</title>
<g id="a_node3"><a xlink:href="../../d6/d7c/pthread__support_8c.html#a4e4ff10770a822a04c7bbd7a968c50d7" target="_top" xlink:title="GC_generic_lock">
<polygon fill="#ffffff" stroke="#000000" points="324.5,-142.5 324.5,-161.5 416.5,-161.5 416.5,-142.5 324.5,-142.5"/>
<text text-anchor="middle" x="370.5" y="-149.5" font-family="Helvetica,sans-Serif" font-size="10.00" fill="#000000">GC_generic_lock</text>
</a>
</g>
</g>
<!-- Node5479&#45;&gt;Node5480 -->
<g id="edge2" class="edge">
<title>Node5479&#45;&gt;Node5480</title>
<path fill="none" stroke="#191970" d="M273.3028,-140.2373C286.5681,-141.8426 300.5896,-143.5395 313.7294,-145.1297"/>
<polygon fill="#191970" stroke="#191970" points="313.6989,-148.6514 324.047,-146.3783 314.5399,-141.7021 313.6989,-148.6514"/>
</g>
<!-- Node5481 -->
<g id="node4" class="node">
<title>Node5481</title>
<g id="a_node4"><a xlink:href="../../d1/dd1/3rd_party_2gc_2include_2gc_8h.html#acacfa47efcc44a29f7bb7d98f2a000f8" target="_top" xlink:title="void">
<polygon fill="#ffffff" stroke="#000000" points="503,-104.5 503,-123.5 538,-123.5 538,-104.5 503,-104.5"/>
<text text-anchor="middle" x="520.5" y="-111.5" font-family="Helvetica,sans-Serif" font-size="10.00" fill="#000000">void</text>
</a>
</g>
</g>
<!-- Node5479&#45;&gt;Node5481 -->
<g id="edge8" class="edge">
<title>Node5479&#45;&gt;Node5481</title>
<path fill="none" stroke="#191970" d="M273.0567,-129.3141C339.1973,-125.2207 443.1476,-118.7873 492.584,-115.7277"/>
<polygon fill="#191970" stroke="#191970" points="493.0606,-119.205 502.8252,-115.0939 492.6281,-112.2184 493.0606,-119.205"/>
</g>
<!-- Node5482 -->
<g id="node5" class="node">
<title>Node5482</title>
<g id="a_node5"><a xlink:href="../../d2/df0/arm__v6_8h.html#aed7620e3ec2f164643dfc17bf5eaf6c1" target="_top" xlink:title="AO_fetch_and_add1">
<polygon fill="#ffffff" stroke="#000000" points="468,-180.5 468,-199.5 573,-199.5 573,-180.5 468,-180.5"/>
<text text-anchor="middle" x="520.5" y="-187.5" font-family="Helvetica,sans-Serif" font-size="10.00" fill="#000000">AO_fetch_and_add1</text>
</a>
</g>
</g>
<!-- Node5479&#45;&gt;Node5482 -->
<g id="edge9" class="edge">
<title>Node5479&#45;&gt;Node5482</title>
<path fill="none" stroke="#191970" d="M232.7135,-142.5668C251.6252,-151.5168 281.5755,-164.4587 309,-171 358.031,-182.695 415.0187,-187.3174 457.4778,-189.086"/>
<polygon fill="#191970" stroke="#191970" points="457.5474,-192.591 467.6714,-189.4677 457.8094,-185.5959 457.5474,-192.591"/>
</g>
<!-- Node5480&#45;&gt;Node5481 -->
<g id="edge3" class="edge">
<title>Node5480&#45;&gt;Node5481</title>
<path fill="none" stroke="#191970" d="M408.3513,-142.411C434.6608,-135.7459 469.1296,-127.0138 492.8733,-120.9988"/>
<polygon fill="#191970" stroke="#191970" points="493.8141,-124.3711 502.6484,-118.5224 492.095,-117.5854 493.8141,-124.3711"/>
</g>
<!-- Node5480&#45;&gt;Node5482 -->
<g id="edge4" class="edge">
<title>Node5480&#45;&gt;Node5482</title>
<path fill="none" stroke="#191970" d="M408.3513,-161.589C427.9671,-166.5583 452.1187,-172.6767 472.979,-177.9613"/>
<polygon fill="#191970" stroke="#191970" points="472.3675,-181.4169 482.9209,-180.4799 474.0866,-174.6313 472.3675,-181.4169"/>
</g>
<!-- Node5484 -->
<g id="node7" class="node">
<title>Node5484</title>
<g id="a_node7"><a xlink:href="../../d6/d7c/pthread__support_8c.html#af9bdb8c84fbd05676dfe5fe401a8d7bc" target="_top" xlink:title="GC_pause">
<polygon fill="#ffffff" stroke="#000000" points="489,-142.5 489,-161.5 552,-161.5 552,-142.5 489,-142.5"/>
<text text-anchor="middle" x="520.5" y="-149.5" font-family="Helvetica,sans-Serif" font-size="10.00" fill="#000000">GC_pause</text>
</a>
</g>
</g>
<!-- Node5480&#45;&gt;Node5484 -->
<g id="edge6" class="edge">
<title>Node5480&#45;&gt;Node5484</title>
<path fill="none" stroke="#191970" d="M416.7289,-152C436.576,-152 459.5914,-152 478.8969,-152"/>
<polygon fill="#191970" stroke="#191970" points="478.9065,-155.5001 488.9065,-152 478.9064,-148.5001 478.9065,-155.5001"/>
</g>
<!-- Node5483 -->
<g id="node6" class="node">
<title>Node5483</title>
<g id="a_node6"><a xlink:href="../../d9/d97/tweetnacl_8c.html#a476ab31266e769adc731ca48d5a8c0f2" target="_top" xlink:title="add">
<polygon fill="#ffffff" stroke="#000000" points="624.5,-180.5 624.5,-199.5 656.5,-199.5 656.5,-180.5 624.5,-180.5"/>
<text text-anchor="middle" x="640.5" y="-187.5" font-family="Helvetica,sans-Serif" font-size="10.00" fill="#000000">add</text>
</a>
</g>
</g>
<!-- Node5482&#45;&gt;Node5483 -->
<g id="edge5" class="edge">
<title>Node5482&#45;&gt;Node5483</title>
<path fill="none" stroke="#191970" d="M573.1337,-190C587.3087,-190 602.0406,-190 614.0999,-190"/>
<polygon fill="#191970" stroke="#191970" points="614.3309,-193.5001 624.3309,-190 614.3308,-186.5001 614.3309,-193.5001"/>
</g>
<!-- Node5485 -->
<g id="node8" class="node">
<title>Node5485</title>
<g id="a_node8"><a xlink:href="../../d1/dd1/3rd_party_2gc_2include_2gc_8h.html#a233015def2a1752a7feb7c81d34f89e6" target="_top" xlink:title="GC_noop1">
<polygon fill="#ffffff" stroke="#000000" points="609,-142.5 609,-161.5 672,-161.5 672,-142.5 609,-142.5"/>
<text text-anchor="middle" x="640.5" y="-149.5" font-family="Helvetica,sans-Serif" font-size="10.00" fill="#000000">GC_noop1</text>
</a>
</g>
</g>
<!-- Node5484&#45;&gt;Node5485 -->
<g id="edge7" class="edge">
<title>Node5484&#45;&gt;Node5485</title>
<path fill="none" stroke="#191970" d="M552.0286,-152C566.2467,-152 583.2416,-152 598.5186,-152"/>
<polygon fill="#191970" stroke="#191970" points="598.7654,-155.5001 608.7653,-152 598.7653,-148.5001 598.7654,-155.5001"/>
</g>
<!-- Node5487 -->
<g id="node10" class="node">
<title>Node5487</title>
<g id="a_node10"><a xlink:href="../../d0/d4c/gc__atomic__ops_8h.html#ac44fca25bf925dc938812ae00a336926" target="_top" xlink:title="AO_compare_and_swap">
<polygon fill="#ffffff" stroke="#000000" points="309,-66.5 309,-85.5 432,-85.5 432,-66.5 309,-66.5"/>
<text text-anchor="middle" x="370.5" y="-73.5" font-family="Helvetica,sans-Serif" font-size="10.00" fill="#000000">AO_compare_and_swap</text>
</a>
</g>
</g>
<!-- Node5486&#45;&gt;Node5487 -->
<g id="edge11" class="edge">
<title>Node5486&#45;&gt;Node5487</title>
<path fill="none" stroke="#191970" d="M240.8473,-84.2581C257.0043,-83.229 278.282,-81.8738 298.9173,-80.5594"/>
<polygon fill="#191970" stroke="#191970" points="299.2131,-84.0478 308.9704,-79.9191 298.7681,-77.0619 299.2131,-84.0478"/>
</g>
</g>
</svg>
