<?xml version="1.0" encoding="UTF-8" standalone="no"?>
<!DOCTYPE svg PUBLIC "-//W3C//DTD SVG 1.1//EN"
 "http://www.w3.org/Graphics/SVG/1.1/DTD/svg11.dtd">
<!-- Generated by graphviz version 2.40.1 (20161225.0304)
 -->
<!-- Title: omc_Absyn_printComponentRefStr Pages: 1 -->
<svg width="1161pt" height="399pt"
 viewBox="0.00 0.00 1161.00 399.00" xmlns="http://www.w3.org/2000/svg" xmlns:xlink="http://www.w3.org/1999/xlink">
<g id="graph0" class="graph" transform="scale(1 1) rotate(0) translate(4 395)">
<title>omc_Absyn_printComponentRefStr</title>
<polygon fill="#ffffff" stroke="transparent" points="-4,4 -4,-395 1157,-395 1157,4 -4,4"/>
<!-- Node7190 -->
<g id="node1" class="node">
<title>Node7190</title>
<polygon fill="#bfbfbf" stroke="#000000" points="0,-184.5 0,-214.5 143,-214.5 143,-184.5 0,-184.5"/>
<text text-anchor="start" x="8" y="-202.5" font-family="Helvetica,sans-Serif" font-size="10.00" fill="#000000">omc_Absyn_printComponent</text>
<text text-anchor="middle" x="71.5" y="-191.5" font-family="Helvetica,sans-Serif" font-size="10.00" fill="#000000">RefStr</text>
</g>
<!-- Node7191 -->
<g id="node2" class="node">
<title>Node7191</title>
<g id="a_node2"><a xlink:href="../../dc/dbb/_absyn_8h.html#a1aefd725196f1d164e9b91c91a99839d" target="_top" xlink:title="omc_Absyn_printComponent\lRefStr">
<polygon fill="#ffffff" stroke="#000000" points="179,-184.5 179,-214.5 322,-214.5 322,-184.5 179,-184.5"/>
<text text-anchor="start" x="187" y="-202.5" font-family="Helvetica,sans-Serif" font-size="10.00" fill="#000000">omc_Absyn_printComponent</text>
<text text-anchor="middle" x="250.5" y="-191.5" font-family="Helvetica,sans-Serif" font-size="10.00" fill="#000000">RefStr</text>
</a>
</g>
</g>
<!-- Node7190&#45;&gt;Node7191 -->
<g id="edge1" class="edge">
<title>Node7190&#45;&gt;Node7191</title>
<path fill="none" stroke="#191970" d="M153.0428,-199.5C161.6381,-199.5 170.3321,-199.5 178.8042,-199.5"/>
<polygon fill="#191970" stroke="#191970" points="153.0173,-196.0001 143.0172,-199.5 153.0172,-203.0001 153.0173,-196.0001"/>
</g>
<!-- Node7192 -->
<g id="node3" class="node">
<title>Node7192</title>
<g id="a_node3"><a xlink:href="../../dc/dbb/_absyn_8h.html#a3db5c0f87de857d8da39451dfe0f9cdb" target="_top" xlink:title="omc_Absyn_expComponentRefStr">
<polygon fill="#ffffff" stroke="#000000" points="358,-366 358,-385 526,-385 526,-366 358,-366"/>
<text text-anchor="middle" x="442" y="-373" font-family="Helvetica,sans-Serif" font-size="10.00" fill="#000000">omc_Absyn_expComponentRefStr</text>
</a>
</g>
</g>
<!-- Node7190&#45;&gt;Node7192 -->
<g id="edge32" class="edge">
<title>Node7190&#45;&gt;Node7192</title>
<path fill="none" stroke="#191970" d="M86.2926,-223.0408C104.6346,-250.1825 138.4836,-294.0595 179,-317.5 233.6368,-349.1097 303.7869,-363.5104 357.8946,-370.0618"/>
<polygon fill="#191970" stroke="#191970" points="89.1075,-220.9518 80.6795,-214.5315 83.2642,-224.8062 89.1075,-220.9518"/>
</g>
<!-- Node7193 -->
<g id="node4" class="node">
<title>Node7193</title>
<g id="a_node4"><a xlink:href="../../d1/d7d/_f_graph_build_8h.html#ac74e999c3b07db6dbe049fd7e6f77d7a" target="_top" xlink:title="omc_FGraphBuild_mkCrefNode">
<polygon fill="#ffffff" stroke="#000000" points="364.5,-328 364.5,-347 519.5,-347 519.5,-328 364.5,-328"/>
<text text-anchor="middle" x="442" y="-335" font-family="Helvetica,sans-Serif" font-size="10.00" fill="#000000">omc_FGraphBuild_mkCrefNode</text>
</a>
</g>
</g>
<!-- Node7190&#45;&gt;Node7193 -->
<g id="edge33" class="edge">
<title>Node7190&#45;&gt;Node7193</title>
<path fill="none" stroke="#191970" d="M93.2145,-221.4829C113.5925,-240.8064 145.8274,-268.1697 179,-283.5 237.8142,-310.6802 310.2962,-324.2644 364.2643,-331.0039"/>
<polygon fill="#191970" stroke="#191970" points="95.6291,-218.949 86.0078,-214.5126 90.7625,-223.9806 95.6291,-218.949"/>
</g>
<!-- Node7199 -->
<g id="node10" class="node">
<title>Node7199</title>
<g id="a_node10"><a xlink:href="../../d2/db6/_f_graph_build_env_8h.html#ab114d234b4169e073a982f173c4a125b" target="_top" xlink:title="omc_FGraphBuildEnv\l_mkCrefNode">
<polygon fill="#ffffff" stroke="#000000" points="386,-263.5 386,-293.5 498,-293.5 498,-263.5 386,-263.5"/>
<text text-anchor="start" x="394" y="-281.5" font-family="Helvetica,sans-Serif" font-size="10.00" fill="#000000">omc_FGraphBuildEnv</text>
<text text-anchor="middle" x="442" y="-270.5" font-family="Helvetica,sans-Serif" font-size="10.00" fill="#000000">_mkCrefNode</text>
</a>
</g>
</g>
<!-- Node7190&#45;&gt;Node7199 -->
<g id="edge34" class="edge">
<title>Node7190&#45;&gt;Node7199</title>
<path fill="none" stroke="#191970" d="M100.4462,-220.2712C121.2374,-233.9998 150.511,-250.9801 179,-259.5 248.0785,-280.1586 331.7071,-282.5892 385.8352,-281.4012"/>
<polygon fill="#191970" stroke="#191970" points="102.3276,-217.3185 92.082,-214.6208 98.4091,-223.1189 102.3276,-217.3185"/>
</g>
<!-- Node7205 -->
<g id="node16" class="node">
<title>Node7205</title>
<g id="a_node16"><a xlink:href="../../db/dd4/_inst_util_8c.html#a625c15ec8a3de8bbdf4c4c403c1508a0" target="_top" xlink:title="omc_InstUtil_getDeriveCondition">
<polygon fill="#ffffff" stroke="#000000" points="361.5,-210 361.5,-229 522.5,-229 522.5,-210 361.5,-210"/>
<text text-anchor="middle" x="442" y="-217" font-family="Helvetica,sans-Serif" font-size="10.00" fill="#000000">omc_InstUtil_getDeriveCondition</text>
</a>
</g>
</g>
<!-- Node7190&#45;&gt;Node7205 -->
<g id="edge35" class="edge">
<title>Node7190&#45;&gt;Node7205</title>
<path fill="none" stroke="#191970" d="M109.7996,-218.9565C129.8536,-228.0655 155.1446,-237.9059 179,-242.5 258.8874,-257.8849 354.43,-240.8781 405.5127,-229.0015"/>
<polygon fill="#191970" stroke="#191970" points="111.2343,-215.7637 100.6923,-214.7074 108.2747,-222.1073 111.2343,-215.7637"/>
</g>
<!-- Node7209 -->
<g id="node20" class="node">
<title>Node7209</title>
<g id="a_node20"><a xlink:href="../../db/dd4/_inst_util_8c.html#a3c9de938e347f2924069a2a6c7a666cd" target="_top" xlink:title="omc_InstUtil_elabArraydimType">
<polygon fill="#ffffff" stroke="#000000" points="364,-172 364,-191 520,-191 520,-172 364,-172"/>
<text text-anchor="middle" x="442" y="-179" font-family="Helvetica,sans-Serif" font-size="10.00" fill="#000000">omc_InstUtil_elabArraydimType</text>
</a>
</g>
</g>
<!-- Node7190&#45;&gt;Node7209 -->
<g id="edge36" class="edge">
<title>Node7190&#45;&gt;Node7209</title>
<path fill="none" stroke="#191970" d="M138.1398,-182.2405C151.5781,-179.4352 165.671,-176.9698 179,-175.5 240.8526,-168.6795 311.3648,-170.8187 363.7981,-174.3124"/>
<polygon fill="#191970" stroke="#191970" points="137.0431,-178.8971 128.0146,-184.4411 138.5298,-185.7374 137.0431,-178.8971"/>
</g>
<!-- Node7214 -->
<g id="node25" class="node">
<title>Node7214</title>
<g id="a_node25"><a xlink:href="../../da/d17/_inst_util_8h.html#a19a39dd87d21b6b6d1815fd7a9772a22" target="_top" xlink:title="omc_InstUtil_getModsForDep">
<polygon fill="#ffffff" stroke="#000000" points="368.5,-116 368.5,-135 515.5,-135 515.5,-116 368.5,-116"/>
<text text-anchor="middle" x="442" y="-123" font-family="Helvetica,sans-Serif" font-size="10.00" fill="#000000">omc_InstUtil_getModsForDep</text>
</a>
</g>
</g>
<!-- Node7190&#45;&gt;Node7214 -->
<g id="edge37" class="edge">
<title>Node7190&#45;&gt;Node7214</title>
<path fill="none" stroke="#191970" d="M125.1132,-181.3901C142.1966,-176.066 161.2672,-170.5819 179,-166.5 242.2721,-151.9355 315.312,-141.0081 368.3397,-134.1126"/>
<polygon fill="#191970" stroke="#191970" points="123.7863,-178.1389 115.3095,-184.4945 125.8996,-184.8123 123.7863,-178.1389"/>
</g>
<!-- Node7215 -->
<g id="node26" class="node">
<title>Node7215</title>
<g id="a_node26"><a xlink:href="../../db/d73/_interactive_8c.html#a2c8232783f0b33cc6dff04815df22a0a" target="_top" xlink:title="omc_Interactive_getExternal\lFunctionSpecification">
<polygon fill="#ffffff" stroke="#000000" points="371.5,-66.5 371.5,-96.5 512.5,-96.5 512.5,-66.5 371.5,-66.5"/>
<text text-anchor="start" x="379.5" y="-84.5" font-family="Helvetica,sans-Serif" font-size="10.00" fill="#000000">omc_Interactive_getExternal</text>
<text text-anchor="middle" x="442" y="-73.5" font-family="Helvetica,sans-Serif" font-size="10.00" fill="#000000">FunctionSpecification</text>
</a>
</g>
</g>
<!-- Node7190&#45;&gt;Node7215 -->
<g id="edge38" class="edge">
<title>Node7190&#45;&gt;Node7215</title>
<path fill="none" stroke="#191970" d="M101.0979,-178.6063C121.9802,-164.7739 151.0974,-147.2623 179,-136.5 241.7809,-112.2849 317.3147,-97.8963 371.2962,-89.9486"/>
<polygon fill="#191970" stroke="#191970" points="99.017,-175.788 92.6801,-184.2789 102.9288,-181.593 99.017,-175.788"/>
</g>
<!-- Node7216 -->
<g id="node27" class="node">
<title>Node7216</title>
<g id="a_node27"><a xlink:href="../../d0/d86/_static_8c.html#a36a1dd6e82018a84f343570844b10ff3" target="_top" xlink:title="omc_Static_elabCall">
<polygon fill="#ffffff" stroke="#000000" points="388.5,-28 388.5,-47 495.5,-47 495.5,-28 388.5,-28"/>
<text text-anchor="middle" x="442" y="-35" font-family="Helvetica,sans-Serif" font-size="10.00" fill="#000000">omc_Static_elabCall</text>
</a>
</g>
</g>
<!-- Node7190&#45;&gt;Node7216 -->
<g id="edge39" class="edge">
<title>Node7190&#45;&gt;Node7216</title>
<path fill="none" stroke="#191970" d="M88.679,-176.2841C107.9227,-152.0234 141.3895,-114.7319 179,-94.5 245.5512,-58.6999 332.9975,-45.384 388.366,-40.4317"/>
<polygon fill="#191970" stroke="#191970" points="85.8459,-174.2261 82.482,-184.2727 91.3769,-178.5166 85.8459,-174.2261"/>
</g>
<!-- Node7191&#45;&gt;Node7191 -->
<g id="edge2" class="edge">
<title>Node7191&#45;&gt;Node7191</title>
<path fill="none" stroke="#191970" d="M218.8715,-224.9579C222.7971,-229.679 233.3399,-233 250.5,-233 278.6602,-233 289.0002,-224.0566 281.5202,-214.659"/>
<polygon fill="#191970" stroke="#191970" points="222.384,-224.848 219.4798,-214.659 215.3962,-224.4352 222.384,-224.848"/>
</g>
<!-- Node7191&#45;&gt;Node7192 -->
<g id="edge3" class="edge">
<title>Node7191&#45;&gt;Node7192</title>
<path fill="none" stroke="#191970" d="M260.4702,-224.3751C275.9017,-259.5482 308.9957,-323.2309 358,-356.5 363.6903,-360.3632 370.0479,-363.4515 376.6491,-365.9187"/>
<polygon fill="#191970" stroke="#191970" points="263.5533,-222.6813 256.4184,-214.8491 257.1118,-225.4212 263.5533,-222.6813"/>
</g>
<!-- Node7191&#45;&gt;Node7193 -->
<g id="edge4" class="edge">
<title>Node7191&#45;&gt;Node7193</title>
<path fill="none" stroke="#191970" d="M269.7033,-222.7136C289.7569,-245.7467 323.1041,-280.8002 358,-303.5 374.0893,-313.9661 393.9208,-322.1785 410.2738,-327.9083"/>
<polygon fill="#191970" stroke="#191970" points="272.1022,-220.1341 262.9383,-214.8167 266.7861,-224.6881 272.1022,-220.1341"/>
</g>
<!-- Node7191&#45;&gt;Node7199 -->
<g id="edge10" class="edge">
<title>Node7191&#45;&gt;Node7199</title>
<path fill="none" stroke="#191970" d="M296.4991,-218.4761C329.8569,-232.2373 374.3693,-250.6001 405.3397,-263.3764"/>
<polygon fill="#191970" stroke="#191970" points="297.5495,-215.1234 286.9704,-214.5452 294.88,-221.5944 297.5495,-215.1234"/>
</g>
<!-- Node7191&#45;&gt;Node7205 -->
<g id="edge16" class="edge">
<title>Node7191&#45;&gt;Node7205</title>
<path fill="none" stroke="#191970" d="M332.1287,-208.0252C341.8573,-209.0412 351.7847,-210.078 361.4973,-211.0924"/>
<polygon fill="#191970" stroke="#191970" points="332.3894,-204.5335 322.0799,-206.9757 331.6622,-211.4956 332.3894,-204.5335"/>
</g>
<!-- Node7191&#45;&gt;Node7209 -->
<g id="edge20" class="edge">
<title>Node7191&#45;&gt;Node7209</title>
<path fill="none" stroke="#191970" d="M332.0652,-191.8333C342.5723,-190.8457 353.3125,-189.8362 363.7643,-188.8537"/>
<polygon fill="#191970" stroke="#191970" points="331.7084,-188.3513 322.0799,-192.7719 332.3635,-195.3206 331.7084,-188.3513"/>
</g>
<!-- Node7191&#45;&gt;Node7214 -->
<g id="edge25" class="edge">
<title>Node7191&#45;&gt;Node7214</title>
<path fill="none" stroke="#191970" d="M299.4956,-180.567C337.215,-165.9913 387.7634,-146.4583 417.4132,-135.0009"/>
<polygon fill="#191970" stroke="#191970" points="297.7812,-177.4772 289.715,-184.3464 300.3044,-184.0066 297.7812,-177.4772"/>
</g>
<!-- Node7191&#45;&gt;Node7215 -->
<g id="edge27" class="edge">
<title>Node7191&#45;&gt;Node7215</title>
<path fill="none" stroke="#191970" d="M271.071,-176.8646C291.3087,-155.8579 324.0326,-125.1111 358,-106.5 364.9388,-102.6982 372.5245,-99.4093 380.2081,-96.582"/>
<polygon fill="#191970" stroke="#191970" points="268.2788,-174.7232 263.9495,-184.3931 273.3642,-179.5336 268.2788,-174.7232"/>
</g>
<!-- Node7191&#45;&gt;Node7216 -->
<g id="edge28" class="edge">
<title>Node7191&#45;&gt;Node7216</title>
<path fill="none" stroke="#191970" d="M262.0402,-174.9301C278.5773,-142.53 312.1549,-86.165 358,-56.5 367.0381,-50.6517 377.6369,-46.5901 388.2034,-43.7729"/>
<polygon fill="#191970" stroke="#191970" points="258.7701,-173.6462 257.4604,-184.1598 265.0406,-176.7577 258.7701,-173.6462"/>
</g>
<!-- Node7194 -->
<g id="node5" class="node">
<title>Node7194</title>
<g id="a_node5"><a xlink:href="../../db/d67/_f_graph_build_8c.html#a1df4e206acb27cd1a8c4752f0d8f3cb8" target="_top" xlink:title="omc_FGraphBuild_analyseCref">
<polygon fill="#ffffff" stroke="#000000" points="571.5,-366 571.5,-385 723.5,-385 723.5,-366 571.5,-366"/>
<text text-anchor="middle" x="647.5" y="-373" font-family="Helvetica,sans-Serif" font-size="10.00" fill="#000000">omc_FGraphBuild_analyseCref</text>
</a>
</g>
</g>
<!-- Node7193&#45;&gt;Node7194 -->
<g id="edge5" class="edge">
<title>Node7193&#45;&gt;Node7194</title>
<path fill="none" stroke="#191970" d="M503.748,-348.9181C533.1514,-354.3552 567.9134,-360.7832 595.8877,-365.9561"/>
<polygon fill="#191970" stroke="#191970" points="504.0608,-345.4167 493.5911,-347.04 502.7879,-352.3 504.0608,-345.4167"/>
</g>
<!-- Node7197 -->
<g id="node8" class="node">
<title>Node7197</title>
<g id="a_node8"><a xlink:href="../../d1/d7d/_f_graph_build_8h.html#ac95745ce34fcb4de8f51ad338cd0a2a9" target="_top" xlink:title="omc_FGraphBuild_mkCrefsNodes">
<polygon fill="#ffffff" stroke="#000000" points="564.5,-328 564.5,-347 730.5,-347 730.5,-328 564.5,-328"/>
<text text-anchor="middle" x="647.5" y="-335" font-family="Helvetica,sans-Serif" font-size="10.00" fill="#000000">omc_FGraphBuild_mkCrefsNodes</text>
</a>
</g>
</g>
<!-- Node7193&#45;&gt;Node7197 -->
<g id="edge8" class="edge">
<title>Node7193&#45;&gt;Node7197</title>
<path fill="none" stroke="#191970" d="M530.0215,-337.5C541.3631,-337.5 552.9492,-337.5 564.2115,-337.5"/>
<polygon fill="#191970" stroke="#191970" points="529.6908,-334.0001 519.6907,-337.5 529.6907,-341.0001 529.6908,-334.0001"/>
</g>
<!-- Node7195 -->
<g id="node6" class="node">
<title>Node7195</title>
<g id="a_node6"><a xlink:href="../../db/d67/_f_graph_build_8c.html#a8efb56aa4fb7dc778634cf0ce0aa2674" target="_top" xlink:title="omc_FGraphBuild_analyseExp2">
<polygon fill="#ffffff" stroke="#000000" points="782,-366 782,-385 938,-385 938,-366 782,-366"/>
<text text-anchor="middle" x="860" y="-373" font-family="Helvetica,sans-Serif" font-size="10.00" fill="#000000">omc_FGraphBuild_analyseExp2</text>
</a>
</g>
</g>
<!-- Node7194&#45;&gt;Node7195 -->
<g id="edge6" class="edge">
<title>Node7194&#45;&gt;Node7195</title>
<path fill="none" stroke="#191970" d="M733.9438,-375.5C749.8159,-375.5 766.2993,-375.5 781.9088,-375.5"/>
<polygon fill="#191970" stroke="#191970" points="733.6172,-372.0001 723.6172,-375.5 733.6171,-379.0001 733.6172,-372.0001"/>
</g>
<!-- Node7196 -->
<g id="node7" class="node">
<title>Node7196</title>
<g id="a_node7"><a xlink:href="../../db/d67/_f_graph_build_8c.html#a92d727fcb05a803211ee5f24bc106194" target="_top" xlink:title="omc_FGraphBuild_analyseExp\lTraverserEnter">
<polygon fill="#ffffff" stroke="#000000" points="994.5,-360.5 994.5,-390.5 1145.5,-390.5 1145.5,-360.5 994.5,-360.5"/>
<text text-anchor="start" x="1002.5" y="-378.5" font-family="Helvetica,sans-Serif" font-size="10.00" fill="#000000">omc_FGraphBuild_analyseExp</text>
<text text-anchor="middle" x="1070" y="-367.5" font-family="Helvetica,sans-Serif" font-size="10.00" fill="#000000">TraverserEnter</text>
</a>
</g>
</g>
<!-- Node7195&#45;&gt;Node7196 -->
<g id="edge7" class="edge">
<title>Node7195&#45;&gt;Node7196</title>
<path fill="none" stroke="#191970" d="M948.6015,-375.5C963.7624,-375.5 979.391,-375.5 994.1805,-375.5"/>
<polygon fill="#191970" stroke="#191970" points="948.1963,-372.0001 938.1962,-375.5 948.1962,-379.0001 948.1963,-372.0001"/>
</g>
<!-- Node7198 -->
<g id="node9" class="node">
<title>Node7198</title>
<g id="a_node9"><a xlink:href="../../d1/d7d/_f_graph_build_8h.html#ab00a1d40ca06f31a89f13459410c14c7" target="_top" xlink:title="omc_FGraphBuild_mkCrefsFromExps">
<polygon fill="#ffffff" stroke="#000000" points="769,-328 769,-347 951,-347 951,-328 769,-328"/>
<text text-anchor="middle" x="860" y="-335" font-family="Helvetica,sans-Serif" font-size="10.00" fill="#000000">omc_FGraphBuild_mkCrefsFromExps</text>
</a>
</g>
</g>
<!-- Node7197&#45;&gt;Node7198 -->
<g id="edge9" class="edge">
<title>Node7197&#45;&gt;Node7198</title>
<path fill="none" stroke="#191970" d="M740.6715,-337.5C750.0426,-337.5 759.5515,-337.5 768.9007,-337.5"/>
<polygon fill="#191970" stroke="#191970" points="740.5711,-334.0001 730.571,-337.5 740.571,-341.0001 740.5711,-334.0001"/>
</g>
<!-- Node7200 -->
<g id="node11" class="node">
<title>Node7200</title>
<g id="a_node11"><a xlink:href="../../d2/df6/_f_graph_build_env_8c.html#a500718369ba236e1c7813dae7159a107" target="_top" xlink:title="omc_FGraphBuildEnv\l_analyseCref">
<polygon fill="#ffffff" stroke="#000000" points="591.5,-278.5 591.5,-308.5 703.5,-308.5 703.5,-278.5 591.5,-278.5"/>
<text text-anchor="start" x="599.5" y="-296.5" font-family="Helvetica,sans-Serif" font-size="10.00" fill="#000000">omc_FGraphBuildEnv</text>
<text text-anchor="middle" x="647.5" y="-285.5" font-family="Helvetica,sans-Serif" font-size="10.00" fill="#000000">_analyseCref</text>
</a>
</g>
</g>
<!-- Node7199&#45;&gt;Node7200 -->
<g id="edge11" class="edge">
<title>Node7199&#45;&gt;Node7200</title>
<path fill="none" stroke="#191970" d="M508.2315,-283.3344C535.0619,-285.2928 565.7112,-287.53 591.4141,-289.4061"/>
<polygon fill="#191970" stroke="#191970" points="508.3821,-279.8362 498.1538,-282.5988 507.8724,-286.8176 508.3821,-279.8362"/>
</g>
<!-- Node7203 -->
<g id="node14" class="node">
<title>Node7203</title>
<g id="a_node14"><a xlink:href="../../d2/db6/_f_graph_build_env_8h.html#a44a18e60e58fd1515c5b3803553475b2" target="_top" xlink:title="omc_FGraphBuildEnv\l_mkCrefsNodes">
<polygon fill="#ffffff" stroke="#000000" points="591.5,-229.5 591.5,-259.5 703.5,-259.5 703.5,-229.5 591.5,-229.5"/>
<text text-anchor="start" x="599.5" y="-247.5" font-family="Helvetica,sans-Serif" font-size="10.00" fill="#000000">omc_FGraphBuildEnv</text>
<text text-anchor="middle" x="647.5" y="-236.5" font-family="Helvetica,sans-Serif" font-size="10.00" fill="#000000">_mkCrefsNodes</text>
</a>
</g>
</g>
<!-- Node7199&#45;&gt;Node7203 -->
<g id="edge14" class="edge">
<title>Node7199&#45;&gt;Node7203</title>
<path fill="none" stroke="#191970" d="M508.2315,-267.542C535.0619,-263.1029 565.7112,-258.032 591.4141,-253.7794"/>
<polygon fill="#191970" stroke="#191970" points="507.4483,-264.1239 498.1538,-269.2094 508.591,-271.03 507.4483,-264.1239"/>
</g>
<!-- Node7201 -->
<g id="node12" class="node">
<title>Node7201</title>
<g id="a_node12"><a xlink:href="../../d2/df6/_f_graph_build_env_8c.html#a2cc9874bd9a7b3140bb30f9a8012c68c" target="_top" xlink:title="omc_FGraphBuildEnv\l_analyseExp2">
<polygon fill="#ffffff" stroke="#000000" points="804,-278.5 804,-308.5 916,-308.5 916,-278.5 804,-278.5"/>
<text text-anchor="start" x="812" y="-296.5" font-family="Helvetica,sans-Serif" font-size="10.00" fill="#000000">omc_FGraphBuildEnv</text>
<text text-anchor="middle" x="860" y="-285.5" font-family="Helvetica,sans-Serif" font-size="10.00" fill="#000000">_analyseExp2</text>
</a>
</g>
</g>
<!-- Node7200&#45;&gt;Node7201 -->
<g id="edge12" class="edge">
<title>Node7200&#45;&gt;Node7201</title>
<path fill="none" stroke="#191970" d="M713.6433,-293.5C742.6081,-293.5 776.2334,-293.5 803.9445,-293.5"/>
<polygon fill="#191970" stroke="#191970" points="713.6099,-290.0001 703.6098,-293.5 713.6098,-297.0001 713.6099,-290.0001"/>
</g>
<!-- Node7202 -->
<g id="node13" class="node">
<title>Node7202</title>
<g id="a_node13"><a xlink:href="../../d2/df6/_f_graph_build_env_8c.html#a11f9fc66a184b24d1cb1896e55c9219f" target="_top" xlink:title="omc_FGraphBuildEnv\l_analyseExpTraverserEnter">
<polygon fill="#ffffff" stroke="#000000" points="1001.5,-278.5 1001.5,-308.5 1138.5,-308.5 1138.5,-278.5 1001.5,-278.5"/>
<text text-anchor="start" x="1009.5" y="-296.5" font-family="Helvetica,sans-Serif" font-size="10.00" fill="#000000">omc_FGraphBuildEnv</text>
<text text-anchor="middle" x="1070" y="-285.5" font-family="Helvetica,sans-Serif" font-size="10.00" fill="#000000">_analyseExpTraverserEnter</text>
</a>
</g>
</g>
<!-- Node7201&#45;&gt;Node7202 -->
<g id="edge13" class="edge">
<title>Node7201&#45;&gt;Node7202</title>
<path fill="none" stroke="#191970" d="M926.071,-293.5C950.0621,-293.5 977.2119,-293.5 1001.4153,-293.5"/>
<polygon fill="#191970" stroke="#191970" points="926.0003,-290.0001 916.0003,-293.5 926.0002,-297.0001 926.0003,-290.0001"/>
</g>
<!-- Node7204 -->
<g id="node15" class="node">
<title>Node7204</title>
<g id="a_node15"><a xlink:href="../../d2/db6/_f_graph_build_env_8h.html#a31e4d4f877ab678379aa6dd02de042bf" target="_top" xlink:title="omc_FGraphBuildEnv\l_mkCrefsFromExps">
<polygon fill="#ffffff" stroke="#000000" points="804,-229.5 804,-259.5 916,-259.5 916,-229.5 804,-229.5"/>
<text text-anchor="start" x="812" y="-247.5" font-family="Helvetica,sans-Serif" font-size="10.00" fill="#000000">omc_FGraphBuildEnv</text>
<text text-anchor="middle" x="860" y="-236.5" font-family="Helvetica,sans-Serif" font-size="10.00" fill="#000000">_mkCrefsFromExps</text>
</a>
</g>
</g>
<!-- Node7203&#45;&gt;Node7204 -->
<g id="edge15" class="edge">
<title>Node7203&#45;&gt;Node7204</title>
<path fill="none" stroke="#191970" d="M713.6433,-244.5C742.6081,-244.5 776.2334,-244.5 803.9445,-244.5"/>
<polygon fill="#191970" stroke="#191970" points="713.6099,-241.0001 703.6098,-244.5 713.6098,-248.0001 713.6099,-241.0001"/>
</g>
<!-- Node7206 -->
<g id="node17" class="node">
<title>Node7206</title>
<g id="a_node17"><a xlink:href="../../db/dd4/_inst_util_8c.html#a4a7051af108c80238b9f13d8ecf19a64" target="_top" xlink:title="omc_InstUtil_getDeriveAnnotation3">
<polygon fill="#ffffff" stroke="#000000" points="562,-191 562,-210 733,-210 733,-191 562,-191"/>
<text text-anchor="middle" x="647.5" y="-198" font-family="Helvetica,sans-Serif" font-size="10.00" fill="#000000">omc_InstUtil_getDeriveAnnotation3</text>
</a>
</g>
</g>
<!-- Node7205&#45;&gt;Node7206 -->
<g id="edge17" class="edge">
<title>Node7205&#45;&gt;Node7206</title>
<path fill="none" stroke="#191970" d="M532.6253,-211.121C542.2819,-210.2282 552.0833,-209.322 561.6819,-208.4345"/>
<polygon fill="#191970" stroke="#191970" points="532.2645,-207.6394 522.6292,-212.0452 532.909,-214.6096 532.2645,-207.6394"/>
</g>
<!-- Node7207 -->
<g id="node18" class="node">
<title>Node7207</title>
<g id="a_node18"><a xlink:href="../../db/dd4/_inst_util_8c.html#a8bb930e79873509182195a42480a89a1" target="_top" xlink:title="omc_InstUtil_getDeriveAnnotation2">
<polygon fill="#ffffff" stroke="#000000" points="774.5,-191 774.5,-210 945.5,-210 945.5,-191 774.5,-191"/>
<text text-anchor="middle" x="860" y="-198" font-family="Helvetica,sans-Serif" font-size="10.00" fill="#000000">omc_InstUtil_getDeriveAnnotation2</text>
</a>
</g>
</g>
<!-- Node7206&#45;&gt;Node7207 -->
<g id="edge18" class="edge">
<title>Node7206&#45;&gt;Node7207</title>
<path fill="none" stroke="#191970" d="M743.2937,-200.5C753.6333,-200.5 764.1062,-200.5 774.3157,-200.5"/>
<polygon fill="#191970" stroke="#191970" points="743.0134,-197.0001 733.0133,-200.5 743.0133,-204.0001 743.0134,-197.0001"/>
</g>
<!-- Node7208 -->
<g id="node19" class="node">
<title>Node7208</title>
<g id="a_node19"><a xlink:href="../../da/d17/_inst_util_8h.html#a72f71c1d61f31f6cd63073594f4f6281" target="_top" xlink:title="omc_InstUtil_getDeriveAnnotation">
<polygon fill="#ffffff" stroke="#000000" points="987,-191 987,-210 1153,-210 1153,-191 987,-191"/>
<text text-anchor="middle" x="1070" y="-198" font-family="Helvetica,sans-Serif" font-size="10.00" fill="#000000">omc_InstUtil_getDeriveAnnotation</text>
</a>
</g>
</g>
<!-- Node7207&#45;&gt;Node7208 -->
<g id="edge19" class="edge">
<title>Node7207&#45;&gt;Node7208</title>
<path fill="none" stroke="#191970" d="M955.994,-200.5C966.3241,-200.5 976.7713,-200.5 986.9318,-200.5"/>
<polygon fill="#191970" stroke="#191970" points="955.718,-197.0001 945.7179,-200.5 955.7179,-204.0001 955.718,-197.0001"/>
</g>
<!-- Node7210 -->
<g id="node21" class="node">
<title>Node7210</title>
<g id="a_node21"><a xlink:href="../../da/d17/_inst_util_8h.html#a8403c1a26f709ee159ca9a3528170150" target="_top" xlink:title="omc_InstUtil_elabArraydim">
<polygon fill="#ffffff" stroke="#000000" points="580.5,-153 580.5,-172 714.5,-172 714.5,-153 580.5,-153"/>
<text text-anchor="middle" x="647.5" y="-160" font-family="Helvetica,sans-Serif" font-size="10.00" fill="#000000">omc_InstUtil_elabArraydim</text>
</a>
</g>
</g>
<!-- Node7209&#45;&gt;Node7210 -->
<g id="edge21" class="edge">
<title>Node7209&#45;&gt;Node7210</title>
<path fill="none" stroke="#191970" d="M530.5508,-173.3128C547.1819,-171.7752 564.319,-170.1907 580.1738,-168.7248"/>
<polygon fill="#191970" stroke="#191970" points="529.9122,-169.8568 520.277,-174.2627 530.5568,-176.8271 529.9122,-169.8568"/>
</g>
<!-- Node7211 -->
<g id="node22" class="node">
<title>Node7211</title>
<g id="a_node22"><a xlink:href="../../da/d17/_inst_util_8h.html#a28354d7da3378d9f810e1f531b2f9b18" target="_top" xlink:title="boxptr_InstUtil_elabArraydim">
<polygon fill="#ffffff" stroke="#000000" points="788.5,-153 788.5,-172 931.5,-172 931.5,-153 788.5,-153"/>
<text text-anchor="middle" x="860" y="-160" font-family="Helvetica,sans-Serif" font-size="10.00" fill="#000000">boxptr_InstUtil_elabArraydim</text>
</a>
</g>
</g>
<!-- Node7210&#45;&gt;Node7211 -->
<g id="edge22" class="edge">
<title>Node7210&#45;&gt;Node7211</title>
<path fill="none" stroke="#191970" d="M724.7962,-162.5C745.5818,-162.5 767.968,-162.5 788.4275,-162.5"/>
<polygon fill="#191970" stroke="#191970" points="724.7364,-159.0001 714.7363,-162.5 724.7363,-166.0001 724.7364,-159.0001"/>
</g>
<!-- Node7212 -->
<g id="node23" class="node">
<title>Node7212</title>
<g id="a_node23"><a xlink:href="../../da/d17/_inst_util_8h.html#a8ed42231f0920483a1c760e33c02c91a" target="_top" xlink:title="omc_InstUtil_elabArraydimOpt">
<polygon fill="#ffffff" stroke="#000000" points="785,-115 785,-134 935,-134 935,-115 785,-115"/>
<text text-anchor="middle" x="860" y="-122" font-family="Helvetica,sans-Serif" font-size="10.00" fill="#000000">omc_InstUtil_elabArraydimOpt</text>
</a>
</g>
</g>
<!-- Node7210&#45;&gt;Node7212 -->
<g id="edge23" class="edge">
<title>Node7210&#45;&gt;Node7212</title>
<path fill="none" stroke="#191970" d="M710.9533,-151.153C741.4422,-145.7009 777.5761,-139.2393 806.6296,-134.0439"/>
<polygon fill="#191970" stroke="#191970" points="710.0761,-147.7543 700.8484,-152.96 711.3084,-154.645 710.0761,-147.7543"/>
</g>
<!-- Node7213 -->
<g id="node24" class="node">
<title>Node7213</title>
<g id="a_node24"><a xlink:href="../../da/d17/_inst_util_8h.html#a78ac51f814a8665e90f3f10ee786d6d0" target="_top" xlink:title="boxptr_InstUtil_elabArraydimOpt">
<polygon fill="#ffffff" stroke="#000000" points="991,-115 991,-134 1149,-134 1149,-115 991,-115"/>
<text text-anchor="middle" x="1070" y="-122" font-family="Helvetica,sans-Serif" font-size="10.00" fill="#000000">boxptr_InstUtil_elabArraydimOpt</text>
</a>
</g>
</g>
<!-- Node7212&#45;&gt;Node7213 -->
<g id="edge24" class="edge">
<title>Node7212&#45;&gt;Node7213</title>
<path fill="none" stroke="#191970" d="M945.4691,-124.5C960.4198,-124.5 975.9182,-124.5 990.6934,-124.5"/>
<polygon fill="#191970" stroke="#191970" points="945.2217,-121.0001 935.2217,-124.5 945.2216,-128.0001 945.2217,-121.0001"/>
</g>
<!-- Node7214&#45;&gt;Node7214 -->
<g id="edge26" class="edge">
<title>Node7214&#45;&gt;Node7214</title>
<path fill="none" stroke="#191970" d="M406.375,-143.0043C406.3808,-148.8356 418.2558,-153.5 442,-153.5 475.7695,-153.5 485.531,-144.0653 471.2845,-135.2571"/>
<polygon fill="#191970" stroke="#191970" points="409.0905,-145.2125 412.7155,-135.2571 403.6734,-140.779 409.0905,-145.2125"/>
</g>
<!-- Node7217 -->
<g id="node28" class="node">
<title>Node7217</title>
<g id="a_node28"><a xlink:href="../../d0/d86/_static_8c.html#aff0a95dd29fbc09928128a44137e4edd" target="_top" xlink:title="boxptr_Static_elabCall">
<polygon fill="#ffffff" stroke="#000000" points="590,-50 590,-69 705,-69 705,-50 590,-50"/>
<text text-anchor="middle" x="647.5" y="-57" font-family="Helvetica,sans-Serif" font-size="10.00" fill="#000000">boxptr_Static_elabCall</text>
</a>
</g>
</g>
<!-- Node7216&#45;&gt;Node7217 -->
<g id="edge29" class="edge">
<title>Node7216&#45;&gt;Node7217</title>
<path fill="none" stroke="#191970" d="M505.7864,-44.3287C532.6213,-47.2015 563.6184,-50.52 589.7671,-53.3194"/>
<polygon fill="#191970" stroke="#191970" points="506.0401,-40.836 495.7243,-43.2515 505.2949,-47.7962 506.0401,-40.836"/>
</g>
<!-- Node7218 -->
<g id="node29" class="node">
<title>Node7218</title>
<g id="a_node29"><a xlink:href="../../d0/d86/_static_8c.html#ad474433ed9ee6f268faeb9bbe758f5fd" target="_top" xlink:title="omc_Static_elabExp\l__Call">
<polygon fill="#ffffff" stroke="#000000" points="594,-.5 594,-30.5 701,-30.5 701,-.5 594,-.5"/>
<text text-anchor="start" x="602" y="-18.5" font-family="Helvetica,sans-Serif" font-size="10.00" fill="#000000">omc_Static_elabExp</text>
<text text-anchor="middle" x="647.5" y="-7.5" font-family="Helvetica,sans-Serif" font-size="10.00" fill="#000000">__Call</text>
</a>
</g>
</g>
<!-- Node7216&#45;&gt;Node7218 -->
<g id="edge30" class="edge">
<title>Node7216&#45;&gt;Node7218</title>
<path fill="none" stroke="#191970" d="M505.8813,-30.6611C534.0648,-27.6439 566.8243,-24.1368 593.7328,-21.2561"/>
<polygon fill="#191970" stroke="#191970" points="505.2949,-27.2038 495.7243,-31.7485 506.0401,-34.164 505.2949,-27.2038"/>
</g>
<!-- Node7219 -->
<g id="node30" class="node">
<title>Node7219</title>
<g id="a_node30"><a xlink:href="../../d0/d86/_static_8c.html#a33d2afe6ba3f3aa39f8f266a022626a0" target="_top" xlink:title="boxptr_Static_elabExp\l__Call">
<polygon fill="#ffffff" stroke="#000000" points="802.5,-.5 802.5,-30.5 917.5,-30.5 917.5,-.5 802.5,-.5"/>
<text text-anchor="start" x="810.5" y="-18.5" font-family="Helvetica,sans-Serif" font-size="10.00" fill="#000000">boxptr_Static_elabExp</text>
<text text-anchor="middle" x="860" y="-7.5" font-family="Helvetica,sans-Serif" font-size="10.00" fill="#000000">__Call</text>
</a>
</g>
</g>
<!-- Node7218&#45;&gt;Node7219 -->
<g id="edge31" class="edge">
<title>Node7218&#45;&gt;Node7219</title>
<path fill="none" stroke="#191970" d="M711.134,-15.5C740.0842,-15.5 774.0941,-15.5 802.293,-15.5"/>
<polygon fill="#191970" stroke="#191970" points="711.1228,-12.0001 701.1227,-15.5 711.1227,-19.0001 711.1228,-12.0001"/>
</g>
</g>
</svg>
