<?xml version="1.0" encoding="UTF-8" standalone="no"?>
<!DOCTYPE svg PUBLIC "-//W3C//DTD SVG 1.1//EN"
 "http://www.w3.org/Graphics/SVG/1.1/DTD/svg11.dtd">
<!-- Generated by graphviz version 2.40.1 (20161225.0304)
 -->
<!-- Title: omc_Absyn_unqotePathIdents Pages: 1 -->
<svg width="543pt" height="123pt"
 viewBox="0.00 0.00 543.00 123.00" xmlns="http://www.w3.org/2000/svg" xmlns:xlink="http://www.w3.org/1999/xlink">
<g id="graph0" class="graph" transform="scale(1 1) rotate(0) translate(4 119)">
<title>omc_Absyn_unqotePathIdents</title>
<polygon fill="#ffffff" stroke="transparent" points="-4,4 -4,-119 539,-119 539,4 -4,4"/>
<!-- Node9490 -->
<g id="node1" class="node">
<title>Node9490</title>
<polygon fill="#bfbfbf" stroke="#000000" points="0,-57.5 0,-76.5 150,-76.5 150,-57.5 0,-57.5"/>
<text text-anchor="middle" x="75" y="-64.5" font-family="Helvetica,sans-Serif" font-size="10.00" fill="#000000">omc_Absyn_unqotePathIdents</text>
</g>
<!-- Node9491 -->
<g id="node2" class="node">
<title>Node9491</title>
<g id="a_node2"><a xlink:href="../../d0/d78/_absyn_8c.html#a7438e1f7f52311a70a57f79a1aad7168" target="_top" xlink:title="omc_Absyn_stringListPath">
<polygon fill="#ffffff" stroke="#000000" points="191.5,-95.5 191.5,-114.5 325.5,-114.5 325.5,-95.5 191.5,-95.5"/>
<text text-anchor="middle" x="258.5" y="-102.5" font-family="Helvetica,sans-Serif" font-size="10.00" fill="#000000">omc_Absyn_stringListPath</text>
</a>
</g>
</g>
<!-- Node9490&#45;&gt;Node9491 -->
<g id="edge1" class="edge">
<title>Node9490&#45;&gt;Node9491</title>
<path fill="none" stroke="#191970" d="M121.3048,-76.589C145.9559,-81.6939 176.4625,-88.0113 202.4447,-93.3918"/>
<polygon fill="#191970" stroke="#191970" points="202.0262,-96.8793 212.5282,-95.4799 203.4457,-90.0248 202.0262,-96.8793"/>
</g>
<!-- Node9492 -->
<g id="node3" class="node">
<title>Node9492</title>
<g id="a_node3"><a xlink:href="../../da/d72/_compiler_2boot_2build_2list_8c.html#a70628b2c3fb199a118f80777135940ee" target="_top" xlink:title="omc_List_map">
<polygon fill="#ffffff" stroke="#000000" points="218.5,-57.5 218.5,-76.5 298.5,-76.5 298.5,-57.5 218.5,-57.5"/>
<text text-anchor="middle" x="258.5" y="-64.5" font-family="Helvetica,sans-Serif" font-size="10.00" fill="#000000">omc_List_map</text>
</a>
</g>
</g>
<!-- Node9490&#45;&gt;Node9492 -->
<g id="edge2" class="edge">
<title>Node9490&#45;&gt;Node9492</title>
<path fill="none" stroke="#191970" d="M150.1659,-67C169.6922,-67 190.255,-67 208.1566,-67"/>
<polygon fill="#191970" stroke="#191970" points="208.3613,-70.5001 218.3613,-67 208.3613,-63.5001 208.3613,-70.5001"/>
</g>
<!-- Node9493 -->
<g id="node4" class="node">
<title>Node9493</title>
<g id="a_node4"><a xlink:href="../../d0/d78/_absyn_8c.html#a9827d89dcd59f1f67f3390fa1fbaa37f" target="_top" xlink:title="omc_Absyn_pathToStringList">
<polygon fill="#ffffff" stroke="#000000" points="186,-19.5 186,-38.5 331,-38.5 331,-19.5 186,-19.5"/>
<text text-anchor="middle" x="258.5" y="-26.5" font-family="Helvetica,sans-Serif" font-size="10.00" fill="#000000">omc_Absyn_pathToStringList</text>
</a>
</g>
</g>
<!-- Node9490&#45;&gt;Node9493 -->
<g id="edge3" class="edge">
<title>Node9490&#45;&gt;Node9493</title>
<path fill="none" stroke="#191970" d="M121.3048,-57.411C145.9559,-52.3061 176.4625,-45.9887 202.4447,-40.6082"/>
<polygon fill="#191970" stroke="#191970" points="203.4457,-43.9752 212.5282,-38.5201 202.0262,-37.1207 203.4457,-43.9752"/>
</g>
<!-- Node9494 -->
<g id="node5" class="node">
<title>Node9494</title>
<g id="a_node5"><a xlink:href="../../d2/d57/build_2include_2omc_2c_2meta_2meta__modelica__builtin_8h.html#a81001ba45c298ade27540edd2589777c" target="_top" xlink:title="listReverse">
<polygon fill="#ffffff" stroke="#000000" points="418,-38.5 418,-57.5 484,-57.5 484,-38.5 418,-38.5"/>
<text text-anchor="middle" x="451" y="-45.5" font-family="Helvetica,sans-Serif" font-size="10.00" fill="#000000">listReverse</text>
</a>
</g>
</g>
<!-- Node9493&#45;&gt;Node9494 -->
<g id="edge4" class="edge">
<title>Node9493&#45;&gt;Node9494</title>
<path fill="none" stroke="#191970" d="M331.0017,-36.156C356.8802,-38.7102 385.2017,-41.5056 407.8288,-43.7389"/>
<polygon fill="#191970" stroke="#191970" points="407.4996,-47.2234 417.7951,-44.7226 408.1873,-40.2572 407.4996,-47.2234"/>
</g>
<!-- Node9495 -->
<g id="node6" class="node">
<title>Node9495</title>
<g id="a_node6"><a xlink:href="../../d0/d78/_absyn_8c.html#aef3dacbc8d2fdd86d7b3a4f7797ad4d4" target="_top" xlink:title="omc_Absyn_pathToStringListWork">
<polygon fill="#ffffff" stroke="#000000" points="367,-.5 367,-19.5 535,-19.5 535,-.5 367,-.5"/>
<text text-anchor="middle" x="451" y="-7.5" font-family="Helvetica,sans-Serif" font-size="10.00" fill="#000000">omc_Absyn_pathToStringListWork</text>
</a>
</g>
</g>
<!-- Node9493&#45;&gt;Node9495 -->
<g id="edge5" class="edge">
<title>Node9493&#45;&gt;Node9495</title>
<path fill="none" stroke="#191970" d="M331.0017,-21.844C339.428,-21.0123 348.1134,-20.155 356.7768,-19.3"/>
<polygon fill="#191970" stroke="#191970" points="357.3122,-22.7642 366.92,-18.2988 356.6246,-15.7981 357.3122,-22.7642"/>
</g>
</g>
</svg>
