<?xml version="1.0" encoding="UTF-8" standalone="no"?>
<!DOCTYPE svg PUBLIC "-//W3C//DTD SVG 1.1//EN"
 "http://www.w3.org/Graphics/SVG/1.1/DTD/svg11.dtd">
<!-- Generated by graphviz version 2.40.1 (20161225.0304)
 -->
<!-- Title: omc_Absyn_canonIfExp Pages: 1 -->
<svg width="457pt" height="28pt"
 viewBox="0.00 0.00 457.00 28.00" xmlns="http://www.w3.org/2000/svg" xmlns:xlink="http://www.w3.org/1999/xlink">
<g id="graph0" class="graph" transform="scale(1 1) rotate(0) translate(4 24)">
<title>omc_Absyn_canonIfExp</title>
<polygon fill="#ffffff" stroke="transparent" points="-4,4 -4,-24 453,-24 453,4 -4,4"/>
<!-- Node437 -->
<g id="node1" class="node">
<title>Node437</title>
<polygon fill="#bfbfbf" stroke="#000000" points="0,-.5 0,-19.5 123,-19.5 123,-.5 0,-.5"/>
<text text-anchor="middle" x="61.5" y="-7.5" font-family="Helvetica,sans-Serif" font-size="10.00" fill="#000000">omc_Absyn_canonIfExp</text>
</g>
<!-- Node438 -->
<g id="node2" class="node">
<title>Node438</title>
<g id="a_node2"><a xlink:href="../../d0/d86/_static_8c.html#af7b6cba67a7fdf799e2e3cd45c7b2216" target="_top" xlink:title="omc_Static_elabExp__If">
<polygon fill="#ffffff" stroke="#000000" points="159,-.5 159,-19.5 282,-19.5 282,-.5 159,-.5"/>
<text text-anchor="middle" x="220.5" y="-7.5" font-family="Helvetica,sans-Serif" font-size="10.00" fill="#000000">omc_Static_elabExp__If</text>
</a>
</g>
</g>
<!-- Node437&#45;&gt;Node438 -->
<g id="edge1" class="edge">
<title>Node437&#45;&gt;Node438</title>
<path fill="none" stroke="#191970" d="M133.5919,-10C141.9898,-10 150.499,-10 158.7402,-10"/>
<polygon fill="#191970" stroke="#191970" points="133.4289,-6.5001 123.4288,-10 133.4288,-13.5001 133.4289,-6.5001"/>
</g>
<!-- Node439 -->
<g id="node3" class="node">
<title>Node439</title>
<g id="a_node3"><a xlink:href="../../d0/d86/_static_8c.html#a118685ae33bf03879ef315702237e845" target="_top" xlink:title="boxptr_Static_elabExp__If">
<polygon fill="#ffffff" stroke="#000000" points="318,-.5 318,-19.5 449,-19.5 449,-.5 318,-.5"/>
<text text-anchor="middle" x="383.5" y="-7.5" font-family="Helvetica,sans-Serif" font-size="10.00" fill="#000000">boxptr_Static_elabExp__If</text>
</a>
</g>
</g>
<!-- Node438&#45;&gt;Node439 -->
<g id="edge2" class="edge">
<title>Node438&#45;&gt;Node439</title>
<path fill="none" stroke="#191970" d="M292.1272,-10C300.7273,-10 309.4762,-10 317.9832,-10"/>
<polygon fill="#191970" stroke="#191970" points="292.1233,-6.5001 282.1233,-10 292.1233,-13.5001 292.1233,-6.5001"/>
</g>
</g>
</svg>
