<?xml version="1.0" encoding="UTF-8" standalone="no"?>
<!DOCTYPE svg PUBLIC "-//W3C//DTD SVG 1.1//EN"
 "http://www.w3.org/Graphics/SVG/1.1/DTD/svg11.dtd">
<!-- Generated by graphviz version 2.40.1 (20161225.0304)
 -->
<!-- Title: omc_Absyn_optArrayDimEqual Pages: 1 -->
<svg width="323pt" height="66pt"
 viewBox="0.00 0.00 323.00 66.00" xmlns="http://www.w3.org/2000/svg" xmlns:xlink="http://www.w3.org/1999/xlink">
<g id="graph0" class="graph" transform="scale(1 1) rotate(0) translate(4 62)">
<title>omc_Absyn_optArrayDimEqual</title>
<polygon fill="#ffffff" stroke="transparent" points="-4,4 -4,-62 319,-62 319,4 -4,4"/>
<!-- Node4276 -->
<g id="node1" class="node">
<title>Node4276</title>
<polygon fill="#bfbfbf" stroke="#000000" points="0,-19.5 0,-38.5 153,-38.5 153,-19.5 0,-19.5"/>
<text text-anchor="middle" x="76.5" y="-26.5" font-family="Helvetica,sans-Serif" font-size="10.00" fill="#000000">omc_Absyn_optArrayDimEqual</text>
</g>
<!-- Node4277 -->
<g id="node2" class="node">
<title>Node4277</title>
<g id="a_node2"><a xlink:href="../../da/d72/_compiler_2boot_2build_2list_8c.html#a48a12fdaab61cbe8e256fcaa1edff333" target="_top" xlink:title="omc_List_isEqualOnTrue">
<polygon fill="#ffffff" stroke="#000000" points="189,-38.5 189,-57.5 315,-57.5 315,-38.5 189,-38.5"/>
<text text-anchor="middle" x="252" y="-45.5" font-family="Helvetica,sans-Serif" font-size="10.00" fill="#000000">omc_List_isEqualOnTrue</text>
</a>
</g>
</g>
<!-- Node4276&#45;&gt;Node4277 -->
<g id="edge1" class="edge">
<title>Node4276&#45;&gt;Node4277</title>
<path fill="none" stroke="#191970" d="M153.2215,-37.306C161.6805,-38.2218 170.2784,-39.1526 178.694,-40.0637"/>
<polygon fill="#191970" stroke="#191970" points="178.5286,-43.5662 188.8473,-41.163 179.2821,-36.6069 178.5286,-43.5662"/>
</g>
<!-- Node4278 -->
<g id="node3" class="node">
<title>Node4278</title>
<g id="a_node3"><a xlink:href="../../d1/dd1/3rd_party_2gc_2include_2gc_8h.html#acacfa47efcc44a29f7bb7d98f2a000f8" target="_top" xlink:title="void">
<polygon fill="#ffffff" stroke="#000000" points="234.5,-.5 234.5,-19.5 269.5,-19.5 269.5,-.5 234.5,-.5"/>
<text text-anchor="middle" x="252" y="-7.5" font-family="Helvetica,sans-Serif" font-size="10.00" fill="#000000">void</text>
</a>
</g>
</g>
<!-- Node4276&#45;&gt;Node4278 -->
<g id="edge2" class="edge">
<title>Node4276&#45;&gt;Node4278</title>
<path fill="none" stroke="#191970" d="M153.2215,-20.694C178.4745,-17.96 204.9656,-15.092 224.1494,-13.0152"/>
<polygon fill="#191970" stroke="#191970" points="224.7028,-16.4758 234.268,-11.9197 223.9493,-9.5165 224.7028,-16.4758"/>
</g>
</g>
</svg>
