<?xml version="1.0" encoding="UTF-8" standalone="no"?>
<!DOCTYPE svg PUBLIC "-//W3C//DTD SVG 1.1//EN"
 "http://www.w3.org/Graphics/SVG/1.1/DTD/svg11.dtd">
<!-- Generated by graphviz version 2.40.1 (20161225.0304)
 -->
<!-- Title: omc_Absyn_pathGe Pages: 1 -->
<svg width="974pt" height="186pt"
 viewBox="0.00 0.00 974.00 186.00" xmlns="http://www.w3.org/2000/svg" xmlns:xlink="http://www.w3.org/1999/xlink">
<g id="graph0" class="graph" transform="scale(1 1) rotate(0) translate(4 182)">
<title>omc_Absyn_pathGe</title>
<polygon fill="#ffffff" stroke="transparent" points="-4,4 -4,-182 970,-182 970,4 -4,4"/>
<!-- Node6268 -->
<g id="node1" class="node">
<title>Node6268</title>
<polygon fill="#bfbfbf" stroke="#000000" points="0,-98 0,-117 105,-117 105,-98 0,-98"/>
<text text-anchor="middle" x="52.5" y="-105" font-family="Helvetica,sans-Serif" font-size="10.00" fill="#000000">omc_Absyn_pathGe</text>
</g>
<!-- Node6269 -->
<g id="node2" class="node">
<title>Node6269</title>
<g id="a_node2"><a xlink:href="../../d0/d78/_absyn_8c.html#a7eabdf6a4f0f81da6115a2a0235ec063" target="_top" xlink:title="omc_Absyn_pathLt">
<polygon fill="#ffffff" stroke="#000000" points="141,-98 141,-117 242,-117 242,-98 141,-98"/>
<text text-anchor="middle" x="191.5" y="-105" font-family="Helvetica,sans-Serif" font-size="10.00" fill="#000000">omc_Absyn_pathLt</text>
</a>
</g>
</g>
<!-- Node6268&#45;&gt;Node6269 -->
<g id="edge1" class="edge">
<title>Node6268&#45;&gt;Node6269</title>
<path fill="none" stroke="#191970" d="M105.0499,-107.5C113.3577,-107.5 122.0097,-107.5 130.4904,-107.5"/>
<polygon fill="#191970" stroke="#191970" points="130.7155,-111.0001 140.7155,-107.5 130.7154,-104.0001 130.7155,-111.0001"/>
</g>
<!-- Node6270 -->
<g id="node3" class="node">
<title>Node6270</title>
<g id="a_node3"><a xlink:href="../../d0/d78/_absyn_8c.html#a8019d89e43bec6f522ed51a5feceeb83" target="_top" xlink:title="omc_Absyn_pathString">
<polygon fill="#ffffff" stroke="#000000" points="278,-98 278,-117 396,-117 396,-98 278,-98"/>
<text text-anchor="middle" x="337" y="-105" font-family="Helvetica,sans-Serif" font-size="10.00" fill="#000000">omc_Absyn_pathString</text>
</a>
</g>
</g>
<!-- Node6269&#45;&gt;Node6270 -->
<g id="edge2" class="edge">
<title>Node6269&#45;&gt;Node6270</title>
<path fill="none" stroke="#191970" d="M242.3888,-107.5C250.635,-107.5 259.2942,-107.5 267.8857,-107.5"/>
<polygon fill="#191970" stroke="#191970" points="267.9114,-111.0001 277.9114,-107.5 267.9113,-104.0001 267.9114,-111.0001"/>
</g>
<!-- Node6271 -->
<g id="node4" class="node">
<title>Node6271</title>
<g id="a_node4"><a xlink:href="../../d0/d78/_absyn_8c.html#aa90ee78f7c8fc6fd5b988d9d6eadda59" target="_top" xlink:title="omc_Absyn_makeNotFullyQualified">
<polygon fill="#ffffff" stroke="#000000" points="432,-117 432,-136 605,-136 605,-117 432,-117"/>
<text text-anchor="middle" x="518.5" y="-124" font-family="Helvetica,sans-Serif" font-size="10.00" fill="#000000">omc_Absyn_makeNotFullyQualified</text>
</a>
</g>
</g>
<!-- Node6270&#45;&gt;Node6271 -->
<g id="edge3" class="edge">
<title>Node6270&#45;&gt;Node6271</title>
<path fill="none" stroke="#191970" d="M396.1787,-113.695C404.3576,-114.5512 412.9273,-115.4483 421.572,-116.3533"/>
<polygon fill="#191970" stroke="#191970" points="421.4258,-119.857 431.7359,-117.4173 422.1546,-112.895 421.4258,-119.857"/>
</g>
<!-- Node6272 -->
<g id="node5" class="node">
<title>Node6272</title>
<g id="a_node5"><a xlink:href="../../d0/d78/_absyn_8c.html#a5ac0f205a03658465c7029ab9217dc20" target="_top" xlink:title="omc_Absyn_pathStringWork">
<polygon fill="#ffffff" stroke="#000000" points="448,-79 448,-98 589,-98 589,-79 448,-79"/>
<text text-anchor="middle" x="518.5" y="-86" font-family="Helvetica,sans-Serif" font-size="10.00" fill="#000000">omc_Absyn_pathStringWork</text>
</a>
</g>
</g>
<!-- Node6270&#45;&gt;Node6272 -->
<g id="edge4" class="edge">
<title>Node6270&#45;&gt;Node6272</title>
<path fill="none" stroke="#191970" d="M396.1787,-101.305C409.4144,-99.9194 423.6736,-98.4267 437.6183,-96.967"/>
<polygon fill="#191970" stroke="#191970" points="438.1162,-100.434 447.6974,-95.9118 437.3874,-93.4721 438.1162,-100.434"/>
</g>
<!-- Node6273 -->
<g id="node6" class="node">
<title>Node6273</title>
<g id="a_node6"><a xlink:href="../../d1/d95/_system_8c.html#ad2e105aeacd5b1f062d1a0f82e45e34a" target="_top" xlink:title="omc_System_StringAllocator\l_constructor">
<polygon fill="#ffffff" stroke="#000000" points="641,-147.5 641,-177.5 784,-177.5 784,-147.5 641,-147.5"/>
<text text-anchor="start" x="649" y="-165.5" font-family="Helvetica,sans-Serif" font-size="10.00" fill="#000000">omc_System_StringAllocator</text>
<text text-anchor="middle" x="712.5" y="-154.5" font-family="Helvetica,sans-Serif" font-size="10.00" fill="#000000">_constructor</text>
</a>
</g>
</g>
<!-- Node6272&#45;&gt;Node6273 -->
<g id="edge5" class="edge">
<title>Node6272&#45;&gt;Node6273</title>
<path fill="none" stroke="#191970" d="M580.2915,-98.1207C588.8272,-100.5753 597.2985,-103.65 605,-107.5 623.8863,-116.9412 622.6489,-128.0566 641,-138.5 644.0513,-140.2364 647.2478,-141.8724 650.5255,-143.4099"/>
<polygon fill="#191970" stroke="#191970" points="649.3579,-146.7184 659.9251,-147.4839 652.1417,-140.2957 649.3579,-146.7184"/>
</g>
<!-- Node6275 -->
<g id="node8" class="node">
<title>Node6275</title>
<g id="a_node8"><a xlink:href="../../d1/d95/_system_8c.html#af8847d2041f2dc8d967e8aecf3dc8c02" target="_top" xlink:title="omc_System_stringAllocator\lStringCopy">
<polygon fill="#ffffff" stroke="#000000" points="641.5,-98.5 641.5,-128.5 783.5,-128.5 783.5,-98.5 641.5,-98.5"/>
<text text-anchor="start" x="649.5" y="-116.5" font-family="Helvetica,sans-Serif" font-size="10.00" fill="#000000">omc_System_stringAllocator</text>
<text text-anchor="middle" x="712.5" y="-105.5" font-family="Helvetica,sans-Serif" font-size="10.00" fill="#000000">StringCopy</text>
</a>
</g>
</g>
<!-- Node6272&#45;&gt;Node6275 -->
<g id="edge7" class="edge">
<title>Node6272&#45;&gt;Node6275</title>
<path fill="none" stroke="#191970" d="M589.0872,-97.5963C602.7743,-99.3601 617.2209,-101.2218 631.2187,-103.0256"/>
<polygon fill="#191970" stroke="#191970" points="630.9495,-106.5198 641.3148,-104.3267 631.8442,-99.5772 630.9495,-106.5198"/>
</g>
<!-- Node6277 -->
<g id="node10" class="node">
<title>Node6277</title>
<g id="a_node10"><a xlink:href="../../d1/d95/_system_8c.html#af314a780e1ba28e87940376fefe833ca" target="_top" xlink:title="omc_System_stringAllocator\lResult">
<polygon fill="#ffffff" stroke="#000000" points="641.5,-49.5 641.5,-79.5 783.5,-79.5 783.5,-49.5 641.5,-49.5"/>
<text text-anchor="start" x="649.5" y="-67.5" font-family="Helvetica,sans-Serif" font-size="10.00" fill="#000000">omc_System_stringAllocator</text>
<text text-anchor="middle" x="712.5" y="-56.5" font-family="Helvetica,sans-Serif" font-size="10.00" fill="#000000">Result</text>
</a>
</g>
</g>
<!-- Node6272&#45;&gt;Node6277 -->
<g id="edge9" class="edge">
<title>Node6272&#45;&gt;Node6277</title>
<path fill="none" stroke="#191970" d="M589.0872,-79.7676C602.7743,-78.0743 617.2209,-76.2871 631.2187,-74.5554"/>
<polygon fill="#191970" stroke="#191970" points="631.8202,-78.0078 641.3148,-73.3064 630.9607,-71.0607 631.8202,-78.0078"/>
</g>
<!-- Node6279 -->
<g id="node12" class="node">
<title>Node6279</title>
<g id="a_node12"><a xlink:href="../../d1/d95/_system_8c.html#abaad6ae894ae7b9dde52307668f61597" target="_top" xlink:title="omc_System_StringAllocator\l_destructor">
<polygon fill="#ffffff" stroke="#000000" points="641,-.5 641,-30.5 784,-30.5 784,-.5 641,-.5"/>
<text text-anchor="start" x="649" y="-18.5" font-family="Helvetica,sans-Serif" font-size="10.00" fill="#000000">omc_System_StringAllocator</text>
<text text-anchor="middle" x="712.5" y="-7.5" font-family="Helvetica,sans-Serif" font-size="10.00" fill="#000000">_destructor</text>
</a>
</g>
</g>
<!-- Node6272&#45;&gt;Node6279 -->
<g id="edge11" class="edge">
<title>Node6272&#45;&gt;Node6279</title>
<path fill="none" stroke="#191970" d="M542.3421,-78.8552C566.9553,-68.9699 606.5167,-53.2795 641,-40.5 646.8262,-38.3408 652.9374,-36.127 659.03,-33.9523"/>
<polygon fill="#191970" stroke="#191970" points="660.2884,-37.2197 668.5451,-30.5806 657.9504,-30.6217 660.2884,-37.2197"/>
</g>
<!-- Node6274 -->
<g id="node7" class="node">
<title>Node6274</title>
<g id="a_node7"><a xlink:href="../../dd/ddb/_system__includes_8h.html#a9f4da0f15063aa18a9e6ab5baa0ae36c" target="_top" xlink:title="StringAllocator_constructor">
<polygon fill="#ffffff" stroke="#000000" points="826,-153 826,-172 960,-172 960,-153 826,-153"/>
<text text-anchor="middle" x="893" y="-160" font-family="Helvetica,sans-Serif" font-size="10.00" fill="#000000">StringAllocator_constructor</text>
</a>
</g>
</g>
<!-- Node6273&#45;&gt;Node6274 -->
<g id="edge6" class="edge">
<title>Node6273&#45;&gt;Node6274</title>
<path fill="none" stroke="#191970" d="M784.0976,-162.5C794.5401,-162.5 805.3309,-162.5 815.8774,-162.5"/>
<polygon fill="#191970" stroke="#191970" points="815.8947,-166.0001 825.8947,-162.5 815.8947,-159.0001 815.8947,-166.0001"/>
</g>
<!-- Node6276 -->
<g id="node9" class="node">
<title>Node6276</title>
<g id="a_node9"><a xlink:href="../../dd/ddb/_system__includes_8h.html#a8e19a7a58e3c6431947680216dd4fa2a" target="_top" xlink:title="om_stringAllocatorStringCopy">
<polygon fill="#ffffff" stroke="#000000" points="820,-104 820,-123 966,-123 966,-104 820,-104"/>
<text text-anchor="middle" x="893" y="-111" font-family="Helvetica,sans-Serif" font-size="10.00" fill="#000000">om_stringAllocatorStringCopy</text>
</a>
</g>
</g>
<!-- Node6275&#45;&gt;Node6276 -->
<g id="edge8" class="edge">
<title>Node6275&#45;&gt;Node6276</title>
<path fill="none" stroke="#191970" d="M783.5793,-113.5C792.1591,-113.5 800.9812,-113.5 809.7158,-113.5"/>
<polygon fill="#191970" stroke="#191970" points="809.9095,-117.0001 819.9095,-113.5 809.9095,-110.0001 809.9095,-117.0001"/>
</g>
<!-- Node6278 -->
<g id="node11" class="node">
<title>Node6278</title>
<g id="a_node11"><a xlink:href="../../dd/ddb/_system__includes_8h.html#ac5166cb81d1b1b91e6d70ab97c6c9bc3" target="_top" xlink:title="om_stringAllocatorResult">
<polygon fill="#ffffff" stroke="#000000" points="830,-55 830,-74 956,-74 956,-55 830,-55"/>
<text text-anchor="middle" x="893" y="-62" font-family="Helvetica,sans-Serif" font-size="10.00" fill="#000000">om_stringAllocatorResult</text>
</a>
</g>
</g>
<!-- Node6277&#45;&gt;Node6278 -->
<g id="edge10" class="edge">
<title>Node6277&#45;&gt;Node6278</title>
<path fill="none" stroke="#191970" d="M783.5793,-64.5C795.4062,-64.5 807.6935,-64.5 819.5774,-64.5"/>
<polygon fill="#191970" stroke="#191970" points="819.8951,-68.0001 829.8951,-64.5 819.8951,-61.0001 819.8951,-68.0001"/>
</g>
</g>
</svg>
