<?xml version="1.0" encoding="UTF-8" standalone="no"?>
<!DOCTYPE svg PUBLIC "-//W3C//DTD SVG 1.1//EN"
 "http://www.w3.org/Graphics/SVG/1.1/DTD/svg11.dtd">
<!-- Generated by graphviz version 2.40.1 (20161225.0304)
 -->
<!-- Title: omc_Absyn_traverseElementComponents Pages: 1 -->
<svg width="334pt" height="39pt"
 viewBox="0.00 0.00 334.00 39.00" xmlns="http://www.w3.org/2000/svg" xmlns:xlink="http://www.w3.org/1999/xlink">
<g id="graph0" class="graph" transform="scale(1 1) rotate(0) translate(4 35)">
<title>omc_Absyn_traverseElementComponents</title>
<polygon fill="#ffffff" stroke="transparent" points="-4,4 -4,-35 330,-35 330,4 -4,4"/>
<!-- Node7821 -->
<g id="node1" class="node">
<title>Node7821</title>
<polygon fill="#bfbfbf" stroke="#000000" points="0,-.5 0,-30.5 145,-30.5 145,-.5 0,-.5"/>
<text text-anchor="start" x="8" y="-18.5" font-family="Helvetica,sans-Serif" font-size="10.00" fill="#000000">omc_Absyn_traverseElement</text>
<text text-anchor="middle" x="72.5" y="-7.5" font-family="Helvetica,sans-Serif" font-size="10.00" fill="#000000">Components</text>
</g>
<!-- Node7822 -->
<g id="node2" class="node">
<title>Node7822</title>
<g id="a_node2"><a xlink:href="../../d0/d78/_absyn_8c.html#adac2782bb2cf50142f1e979c18a259c9" target="_top" xlink:title="omc_Absyn_traverseElement\lSpecComponents">
<polygon fill="#ffffff" stroke="#000000" points="181,-.5 181,-30.5 326,-30.5 326,-.5 181,-.5"/>
<text text-anchor="start" x="189" y="-18.5" font-family="Helvetica,sans-Serif" font-size="10.00" fill="#000000">omc_Absyn_traverseElement</text>
<text text-anchor="middle" x="253.5" y="-7.5" font-family="Helvetica,sans-Serif" font-size="10.00" fill="#000000">SpecComponents</text>
</a>
</g>
</g>
<!-- Node7821&#45;&gt;Node7822 -->
<g id="edge1" class="edge">
<title>Node7821&#45;&gt;Node7822</title>
<path fill="none" stroke="#191970" d="M145.0767,-15.5C153.5595,-15.5 162.2611,-15.5 170.8671,-15.5"/>
<polygon fill="#191970" stroke="#191970" points="170.907,-19.0001 180.907,-15.5 170.907,-12.0001 170.907,-19.0001"/>
</g>
</g>
</svg>
