<?xml version="1.0" encoding="UTF-8" standalone="no"?>
<!DOCTYPE svg PUBLIC "-//W3C//DTD SVG 1.1//EN"
 "http://www.w3.org/Graphics/SVG/1.1/DTD/svg11.dtd">
<!-- Generated by graphviz version 2.40.1 (20161225.0304)
 -->
<!-- Title: omc_Absyn_traverseAlgorithmBidirElse Pages: 1 -->
<svg width="1251pt" height="140pt"
 viewBox="0.00 0.00 1251.00 139.50" xmlns="http://www.w3.org/2000/svg" xmlns:xlink="http://www.w3.org/1999/xlink">
<g id="graph0" class="graph" transform="scale(1 1) rotate(0) translate(4 135.5)">
<title>omc_Absyn_traverseAlgorithmBidirElse</title>
<polygon fill="#ffffff" stroke="transparent" points="-4,4 -4,-135.5 1247,-135.5 1247,4 -4,4"/>
<!-- Node7759 -->
<g id="node1" class="node">
<title>Node7759</title>
<polygon fill="#bfbfbf" stroke="#000000" points="0,-65.5 0,-95.5 150,-95.5 150,-65.5 0,-65.5"/>
<text text-anchor="start" x="8" y="-83.5" font-family="Helvetica,sans-Serif" font-size="10.00" fill="#000000">omc_Absyn_traverseAlgorithm</text>
<text text-anchor="middle" x="75" y="-72.5" font-family="Helvetica,sans-Serif" font-size="10.00" fill="#000000">BidirElse</text>
</g>
<!-- Node7760 -->
<g id="node2" class="node">
<title>Node7760</title>
<g id="a_node2"><a xlink:href="../../d0/d78/_absyn_8c.html#add896b000d61c35a4c46cdae7cc6b81a" target="_top" xlink:title="omc_Absyn_traverseExpBidir">
<polygon fill="#ffffff" stroke="#000000" points="186,-93 186,-112 332,-112 332,-93 186,-93"/>
<text text-anchor="middle" x="259" y="-100" font-family="Helvetica,sans-Serif" font-size="10.00" fill="#000000">omc_Absyn_traverseExpBidir</text>
</a>
</g>
</g>
<!-- Node7759&#45;&gt;Node7760 -->
<g id="edge1" class="edge">
<title>Node7759&#45;&gt;Node7760</title>
<path fill="none" stroke="#191970" d="M150.1052,-89.48C158.6046,-90.4962 167.3031,-91.5362 175.8971,-92.5638"/>
<polygon fill="#191970" stroke="#191970" points="175.5747,-96.0501 185.9196,-93.7621 176.4058,-89.0996 175.5747,-96.0501"/>
</g>
<!-- Node7770 -->
<g id="node12" class="node">
<title>Node7770</title>
<g id="a_node12"><a xlink:href="../../d0/d78/_absyn_8c.html#a249aecb2607385ba89ed6397080545e6" target="_top" xlink:title="omc_Absyn_traverseAlgorithm\lItemListBidir">
<polygon fill="#ffffff" stroke="#000000" points="368,-41.5 368,-71.5 518,-71.5 518,-41.5 368,-41.5"/>
<text text-anchor="start" x="376" y="-59.5" font-family="Helvetica,sans-Serif" font-size="10.00" fill="#000000">omc_Absyn_traverseAlgorithm</text>
<text text-anchor="middle" x="443" y="-48.5" font-family="Helvetica,sans-Serif" font-size="10.00" fill="#000000">ItemListBidir</text>
</a>
</g>
</g>
<!-- Node7759&#45;&gt;Node7770 -->
<g id="edge14" class="edge">
<title>Node7759&#45;&gt;Node7770</title>
<path fill="none" stroke="#191970" d="M150.3583,-75.5853C210.5139,-71.6621 294.8065,-66.1648 357.4836,-62.0772"/>
<polygon fill="#191970" stroke="#191970" points="357.9915,-65.5516 367.7425,-61.4081 357.5359,-58.5664 357.9915,-65.5516"/>
</g>
<!-- Node7761 -->
<g id="node3" class="node">
<title>Node7761</title>
<g id="a_node3"><a xlink:href="../../d0/d78/_absyn_8c.html#abe7f9b3aa83ab4de1cb090df682e5fdc" target="_top" xlink:title="omc_Absyn_traverseExpBidir\lSubExps">
<polygon fill="#ffffff" stroke="#000000" points="370,-90.5 370,-120.5 516,-120.5 516,-90.5 370,-90.5"/>
<text text-anchor="start" x="378" y="-108.5" font-family="Helvetica,sans-Serif" font-size="10.00" fill="#000000">omc_Absyn_traverseExpBidir</text>
<text text-anchor="middle" x="443" y="-97.5" font-family="Helvetica,sans-Serif" font-size="10.00" fill="#000000">SubExps</text>
</a>
</g>
</g>
<!-- Node7760&#45;&gt;Node7761 -->
<g id="edge2" class="edge">
<title>Node7760&#45;&gt;Node7761</title>
<path fill="none" stroke="#191970" d="M332.2504,-103.6943C341.2066,-103.8403 350.4104,-103.9904 359.5024,-104.1386"/>
<polygon fill="#191970" stroke="#191970" points="359.6453,-107.6413 369.7011,-104.3049 359.7595,-100.6423 359.6453,-107.6413"/>
</g>
<!-- Node7762 -->
<g id="node4" class="node">
<title>Node7762</title>
<g id="a_node4"><a xlink:href="../../d0/d78/_absyn_8c.html#a8a631828d351ac06cd8a7b6c92ba9970" target="_top" xlink:title="omc_Absyn_traverseExpBidirCref">
<polygon fill="#ffffff" stroke="#000000" points="554,-94 554,-113 718,-113 718,-94 554,-94"/>
<text text-anchor="middle" x="636" y="-101" font-family="Helvetica,sans-Serif" font-size="10.00" fill="#000000">omc_Absyn_traverseExpBidirCref</text>
</a>
</g>
</g>
<!-- Node7761&#45;&gt;Node7762 -->
<g id="edge3" class="edge">
<title>Node7761&#45;&gt;Node7762</title>
<path fill="none" stroke="#191970" d="M516.2402,-104.741C525.1503,-104.6487 534.3416,-104.5535 543.4852,-104.4587"/>
<polygon fill="#191970" stroke="#191970" points="543.8076,-107.9556 553.7707,-104.3521 543.735,-100.956 543.8076,-107.9556"/>
</g>
<!-- Node7762&#45;&gt;Node7762 -->
<g id="edge4" class="edge">
<title>Node7762&#45;&gt;Node7762</title>
<path fill="none" stroke="#191970" d="M606.4072,-113.2571C592.0107,-122.0653 601.875,-131.5 636,-131.5 659.9941,-131.5 671.9941,-126.8356 672,-121.0043"/>
<polygon fill="#191970" stroke="#191970" points="674.6631,-118.7325 665.5928,-113.2571 669.2689,-123.1937 674.6631,-118.7325"/>
</g>
<!-- Node7763 -->
<g id="node5" class="node">
<title>Node7763</title>
<g id="a_node5"><a xlink:href="../../d0/d78/_absyn_8c.html#aacd95a0f5b0b2f2bcfbe1927e6bd489e" target="_top" xlink:title="omc_Absyn_crefMakeFullyQualified">
<polygon fill="#ffffff" stroke="#000000" points="762.5,-94 762.5,-113 935.5,-113 935.5,-94 762.5,-94"/>
<text text-anchor="middle" x="849" y="-101" font-family="Helvetica,sans-Serif" font-size="10.00" fill="#000000">omc_Absyn_crefMakeFullyQualified</text>
</a>
</g>
</g>
<!-- Node7762&#45;&gt;Node7763 -->
<g id="edge5" class="edge">
<title>Node7762&#45;&gt;Node7763</title>
<path fill="none" stroke="#191970" d="M718.0467,-103.5C729.2863,-103.5 740.9099,-103.5 752.3795,-103.5"/>
<polygon fill="#191970" stroke="#191970" points="752.4056,-107.0001 762.4055,-103.5 752.4055,-100.0001 752.4056,-107.0001"/>
</g>
<!-- Node7764 -->
<g id="node6" class="node">
<title>Node7764</title>
<g id="a_node6"><a xlink:href="../../da/d72/_compiler_2boot_2build_2list_8c.html#a620a57c2f9996057cbb8dcd1b183018f" target="_top" xlink:title="omc_List_map2FoldCheckReferenceEq">
<polygon fill="#ffffff" stroke="#000000" points="754,-55 754,-74 944,-74 944,-55 754,-55"/>
<text text-anchor="middle" x="849" y="-62" font-family="Helvetica,sans-Serif" font-size="10.00" fill="#000000">omc_List_map2FoldCheckReferenceEq</text>
</a>
</g>
</g>
<!-- Node7762&#45;&gt;Node7764 -->
<g id="edge6" class="edge">
<title>Node7762&#45;&gt;Node7764</title>
<path fill="none" stroke="#191970" d="M688.1057,-93.9595C718.0006,-88.4858 755.7119,-81.5809 787.1093,-75.8321"/>
<polygon fill="#191970" stroke="#191970" points="787.8575,-79.2534 797.0636,-74.0095 786.5967,-72.3678 787.8575,-79.2534"/>
</g>
<!-- Node7765 -->
<g id="node7" class="node">
<title>Node7765</title>
<g id="a_node7"><a xlink:href="../../df/d56/_double_ended_list_8c.html#a5bd04948a6755a3b46a10804641c2a35" target="_top" xlink:title="omc_DoubleEndedList\l_empty">
<polygon fill="#ffffff" stroke="#000000" points="980,-98.5 980,-128.5 1095,-128.5 1095,-98.5 980,-98.5"/>
<text text-anchor="start" x="988" y="-116.5" font-family="Helvetica,sans-Serif" font-size="10.00" fill="#000000">omc_DoubleEndedList</text>
<text text-anchor="middle" x="1037.5" y="-105.5" font-family="Helvetica,sans-Serif" font-size="10.00" fill="#000000">_empty</text>
</a>
</g>
</g>
<!-- Node7764&#45;&gt;Node7765 -->
<g id="edge7" class="edge">
<title>Node7764&#45;&gt;Node7765</title>
<path fill="none" stroke="#191970" d="M898.5109,-74.0119C913.2177,-77.0825 929.318,-80.6865 944,-84.5 956.4606,-87.7365 969.7336,-91.5968 982.2471,-95.4283"/>
<polygon fill="#191970" stroke="#191970" points="981.5018,-98.8616 992.0899,-98.4825 983.5764,-92.1761 981.5018,-98.8616"/>
</g>
<!-- Node7766 -->
<g id="node8" class="node">
<title>Node7766</title>
<g id="a_node8"><a xlink:href="../../df/d56/_double_ended_list_8c.html#afd49a883c63046b88cd3d060c51907f1" target="_top" xlink:title="omc_DoubleEndedList\l_push__back">
<polygon fill="#ffffff" stroke="#000000" points="980,-.5 980,-30.5 1095,-30.5 1095,-.5 980,-.5"/>
<text text-anchor="start" x="988" y="-18.5" font-family="Helvetica,sans-Serif" font-size="10.00" fill="#000000">omc_DoubleEndedList</text>
<text text-anchor="middle" x="1037.5" y="-7.5" font-family="Helvetica,sans-Serif" font-size="10.00" fill="#000000">_push__back</text>
</a>
</g>
</g>
<!-- Node7764&#45;&gt;Node7766 -->
<g id="edge8" class="edge">
<title>Node7764&#45;&gt;Node7766</title>
<path fill="none" stroke="#191970" d="M885.7922,-54.936C909.6569,-48.7324 941.4692,-40.4629 969.7977,-33.099"/>
<polygon fill="#191970" stroke="#191970" points="970.8559,-36.4403 979.6537,-30.537 969.0948,-29.6655 970.8559,-36.4403"/>
</g>
<!-- Node7769 -->
<g id="node11" class="node">
<title>Node7769</title>
<g id="a_node11"><a xlink:href="../../df/d56/_double_ended_list_8c.html#a29b31effb236408e896ba6e9191f1f31" target="_top" xlink:title="omc_DoubleEndedList\l_toListAndClear">
<polygon fill="#ffffff" stroke="#000000" points="980,-49.5 980,-79.5 1095,-79.5 1095,-49.5 980,-49.5"/>
<text text-anchor="start" x="988" y="-67.5" font-family="Helvetica,sans-Serif" font-size="10.00" fill="#000000">omc_DoubleEndedList</text>
<text text-anchor="middle" x="1037.5" y="-56.5" font-family="Helvetica,sans-Serif" font-size="10.00" fill="#000000">_toListAndClear</text>
</a>
</g>
</g>
<!-- Node7764&#45;&gt;Node7769 -->
<g id="edge11" class="edge">
<title>Node7764&#45;&gt;Node7769</title>
<path fill="none" stroke="#191970" d="M944.0784,-64.5C952.795,-64.5 961.5022,-64.5 969.9018,-64.5"/>
<polygon fill="#191970" stroke="#191970" points="969.9747,-68.0001 979.9747,-64.5 969.9746,-61.0001 969.9747,-68.0001"/>
</g>
<!-- Node7767 -->
<g id="node9" class="node">
<title>Node7767</title>
<g id="a_node9"><a xlink:href="../../d8/de3/_mutable_8c.html#a4d9367043438a5c1a24d17f1f9559996" target="_top" xlink:title="omc_Mutable_access">
<polygon fill="#ffffff" stroke="#000000" points="1131,-52 1131,-71 1243,-71 1243,-52 1131,-52"/>
<text text-anchor="middle" x="1187" y="-59" font-family="Helvetica,sans-Serif" font-size="10.00" fill="#000000">omc_Mutable_access</text>
</a>
</g>
</g>
<!-- Node7766&#45;&gt;Node7767 -->
<g id="edge9" class="edge">
<title>Node7766&#45;&gt;Node7767</title>
<path fill="none" stroke="#191970" d="M1086.4519,-30.5621C1105.7972,-36.5145 1127.7701,-43.2754 1146.2305,-48.9555"/>
<polygon fill="#191970" stroke="#191970" points="1145.2207,-52.3067 1155.8078,-51.9024 1147.2793,-45.6162 1145.2207,-52.3067"/>
</g>
<!-- Node7768 -->
<g id="node10" class="node">
<title>Node7768</title>
<g id="a_node10"><a xlink:href="../../d8/de3/_mutable_8c.html#a453a811f6b99a2c2625aa9e95c27cb2c" target="_top" xlink:title="omc_Mutable_update">
<polygon fill="#ffffff" stroke="#000000" points="1132,-11 1132,-30 1242,-30 1242,-11 1132,-11"/>
<text text-anchor="middle" x="1187" y="-18" font-family="Helvetica,sans-Serif" font-size="10.00" fill="#000000">omc_Mutable_update</text>
</a>
</g>
</g>
<!-- Node7766&#45;&gt;Node7768 -->
<g id="edge10" class="edge">
<title>Node7766&#45;&gt;Node7768</title>
<path fill="none" stroke="#191970" d="M1095.3006,-17.4331C1103.923,-17.7215 1112.8629,-18.0205 1121.6281,-18.3136"/>
<polygon fill="#191970" stroke="#191970" points="1121.6964,-21.8178 1131.8079,-18.6541 1121.9305,-14.8217 1121.6964,-21.8178"/>
</g>
<!-- Node7769&#45;&gt;Node7767 -->
<g id="edge12" class="edge">
<title>Node7769&#45;&gt;Node7767</title>
<path fill="none" stroke="#191970" d="M1095.3006,-63.3401C1103.5956,-63.1737 1112.1845,-63.0013 1120.629,-62.8319"/>
<polygon fill="#191970" stroke="#191970" points="1120.9005,-66.3272 1130.8282,-62.6272 1120.76,-59.3286 1120.9005,-66.3272"/>
</g>
<!-- Node7769&#45;&gt;Node7768 -->
<g id="edge13" class="edge">
<title>Node7769&#45;&gt;Node7768</title>
<path fill="none" stroke="#191970" d="M1088.5313,-49.4808C1106.7745,-44.1115 1127.1205,-38.1234 1144.5607,-32.9905"/>
<polygon fill="#191970" stroke="#191970" points="1145.8507,-36.2594 1154.4556,-30.0783 1143.8742,-29.5442 1145.8507,-36.2594"/>
</g>
<!-- Node7770&#45;&gt;Node7764 -->
<g id="edge15" class="edge">
<title>Node7770&#45;&gt;Node7764</title>
<path fill="none" stroke="#191970" d="M518.414,-57.986C581.7996,-59.235 673.0945,-61.0339 743.6913,-62.425"/>
<polygon fill="#191970" stroke="#191970" points="743.8842,-65.9293 753.9512,-62.6271 744.0222,-58.9307 743.8842,-65.9293"/>
</g>
</g>
</svg>
