<?xml version="1.0" encoding="UTF-8" standalone="no"?>
<!DOCTYPE svg PUBLIC "-//W3C//DTD SVG 1.1//EN"
 "http://www.w3.org/Graphics/SVG/1.1/DTD/svg11.dtd">
<!-- Generated by graphviz version 2.40.1 (20161225.0304)
 -->
<!-- Title: GC_started_thread_while_stopped Pages: 1 -->
<svg width="459pt" height="180pt"
 viewBox="0.00 0.00 459.00 180.00" xmlns="http://www.w3.org/2000/svg" xmlns:xlink="http://www.w3.org/1999/xlink">
<g id="graph0" class="graph" transform="scale(1 1) rotate(0) translate(4 176)">
<title>GC_started_thread_while_stopped</title>
<polygon fill="#ffffff" stroke="transparent" points="-4,4 -4,-176 455,-176 455,4 -4,4"/>
<!-- Node1918 -->
<g id="node1" class="node">
<title>Node1918</title>
<polygon fill="#bfbfbf" stroke="#000000" points="0,-52 0,-82 127,-82 127,-52 0,-52"/>
<text text-anchor="start" x="8" y="-70" font-family="Helvetica,sans-Serif" font-size="10.00" fill="#000000">GC_started_thread_while</text>
<text text-anchor="middle" x="63.5" y="-59" font-family="Helvetica,sans-Serif" font-size="10.00" fill="#000000">_stopped</text>
</g>
<!-- Node1919 -->
<g id="node2" class="node">
<title>Node1919</title>
<g id="a_node2"><a xlink:href="../../d0/d4c/gc__atomic__ops_8h.html#a5867d924538138f58aab6d2e50ab55a8" target="_top" xlink:title="AO_compare_and_swap\l_release">
<polygon fill="#ffffff" stroke="#000000" points="163,-115 163,-145 286,-145 286,-115 163,-115"/>
<text text-anchor="start" x="171" y="-133" font-family="Helvetica,sans-Serif" font-size="10.00" fill="#000000">AO_compare_and_swap</text>
<text text-anchor="middle" x="224.5" y="-122" font-family="Helvetica,sans-Serif" font-size="10.00" fill="#000000">_release</text>
</a>
</g>
</g>
<!-- Node1918&#45;&gt;Node1919 -->
<g id="edge1" class="edge">
<title>Node1918&#45;&gt;Node1919</title>
<path fill="none" stroke="#191970" d="M102.0635,-82.0901C124.3848,-90.8245 152.6744,-101.8943 176.4362,-111.1924"/>
<polygon fill="#191970" stroke="#191970" points="175.3846,-114.5393 185.9725,-114.924 177.9355,-108.0206 175.3846,-114.5393"/>
</g>
<!-- Node1920 -->
<g id="node3" class="node">
<title>Node1920</title>
<g id="a_node3"><a xlink:href="../../d5/d3a/generalize_8h.html#afe3a6778eacc82252ba138fc9a157b04" target="_top" xlink:title="AO_nop_full">
<polygon fill="#ffffff" stroke="#000000" points="189.5,-76.5 189.5,-95.5 259.5,-95.5 259.5,-76.5 189.5,-76.5"/>
<text text-anchor="middle" x="224.5" y="-83.5" font-family="Helvetica,sans-Serif" font-size="10.00" fill="#000000">AO_nop_full</text>
</a>
</g>
</g>
<!-- Node1918&#45;&gt;Node1920 -->
<g id="edge2" class="edge">
<title>Node1918&#45;&gt;Node1920</title>
<path fill="none" stroke="#191970" d="M127.1315,-74.5093C144.4358,-76.5514 162.829,-78.7221 178.915,-80.6204"/>
<polygon fill="#191970" stroke="#191970" points="178.7768,-84.1283 189.1181,-81.8245 179.5972,-77.1765 178.7768,-84.1283"/>
</g>
<!-- Node1925 -->
<g id="node8" class="node">
<title>Node1925</title>
<g id="a_node8"><a xlink:href="../../de/d97/generalize-small_8h.html#ad40005bf02bced359697864d34ec1a4c" target="_top" xlink:title="AO_load">
<polygon fill="#ffffff" stroke="#000000" points="197.5,-38.5 197.5,-57.5 251.5,-57.5 251.5,-38.5 197.5,-38.5"/>
<text text-anchor="middle" x="224.5" y="-45.5" font-family="Helvetica,sans-Serif" font-size="10.00" fill="#000000">AO_load</text>
</a>
</g>
</g>
<!-- Node1918&#45;&gt;Node1925 -->
<g id="edge7" class="edge">
<title>Node1918&#45;&gt;Node1925</title>
<path fill="none" stroke="#191970" d="M127.1315,-59.4907C147.5574,-57.0802 169.5005,-54.4906 187.3755,-52.3812"/>
<polygon fill="#191970" stroke="#191970" points="187.8668,-55.8476 197.3876,-51.1996 187.0463,-48.8958 187.8668,-55.8476"/>
</g>
<!-- Node1927 -->
<g id="node10" class="node">
<title>Node1927</title>
<g id="a_node10"><a xlink:href="../../de/d97/generalize-small_8h.html#a64d468c7e7d0fdebe072494784e832ab" target="_top" xlink:title="AO_store">
<polygon fill="#ffffff" stroke="#000000" points="195.5,-.5 195.5,-19.5 253.5,-19.5 253.5,-.5 195.5,-.5"/>
<text text-anchor="middle" x="224.5" y="-7.5" font-family="Helvetica,sans-Serif" font-size="10.00" fill="#000000">AO_store</text>
</a>
</g>
</g>
<!-- Node1918&#45;&gt;Node1927 -->
<g id="edge9" class="edge">
<title>Node1918&#45;&gt;Node1927</title>
<path fill="none" stroke="#191970" d="M101.0868,-51.9819C119.622,-44.7461 142.3735,-36.1165 163,-29 170.2718,-26.4911 178.0795,-23.9577 185.6092,-21.5944"/>
<polygon fill="#191970" stroke="#191970" points="186.7609,-24.9018 195.2791,-18.6019 184.6914,-18.2147 186.7609,-24.9018"/>
</g>
<!-- Node1921 -->
<g id="node4" class="node">
<title>Node1921</title>
<g id="a_node4"><a xlink:href="../../d7/d6b/ipoma-dummy_8f.html#a14e68597ab81208552434ccd2a9e8f4f" target="_top" xlink:title="dummy">
<polygon fill="#ffffff" stroke="#000000" points="362,-152.5 362,-171.5 411,-171.5 411,-152.5 362,-152.5"/>
<text text-anchor="middle" x="386.5" y="-159.5" font-family="Helvetica,sans-Serif" font-size="10.00" fill="#000000">dummy</text>
</a>
</g>
</g>
<!-- Node1920&#45;&gt;Node1921 -->
<g id="edge3" class="edge">
<title>Node1920&#45;&gt;Node1921</title>
<path fill="none" stroke="#191970" d="M259.6378,-94.204C268.6195,-97.1498 277.9933,-101.0163 286,-106 305.4787,-118.1243 302.3538,-131.149 322,-143 331.0712,-148.4719 341.8165,-152.452 351.909,-155.3103"/>
<polygon fill="#191970" stroke="#191970" points="351.1427,-158.7268 361.6977,-157.8083 352.8737,-151.9442 351.1427,-158.7268"/>
</g>
<!-- Node1922 -->
<g id="node5" class="node">
<title>Node1922</title>
<g id="a_node5"><a xlink:href="../../d5/d3a/generalize_8h.html#a9f485bd63ce5c6a017ec241906e2f651" target="_top" xlink:title="AO_test_and_set_full">
<polygon fill="#ffffff" stroke="#000000" points="331.5,-114.5 331.5,-133.5 441.5,-133.5 441.5,-114.5 331.5,-114.5"/>
<text text-anchor="middle" x="386.5" y="-121.5" font-family="Helvetica,sans-Serif" font-size="10.00" fill="#000000">AO_test_and_set_full</text>
</a>
</g>
</g>
<!-- Node1920&#45;&gt;Node1922 -->
<g id="edge4" class="edge">
<title>Node1920&#45;&gt;Node1922</title>
<path fill="none" stroke="#191970" d="M259.6516,-94.2454C281.98,-99.483 311.239,-106.3462 336.029,-112.1611"/>
<polygon fill="#191970" stroke="#191970" points="335.4561,-115.6217 345.9912,-114.4979 337.0547,-108.8066 335.4561,-115.6217"/>
</g>
<!-- Node1923 -->
<g id="node6" class="node">
<title>Node1923</title>
<g id="a_node6"><a xlink:href="../../d5/d3a/generalize_8h.html#a0af1bdd53473eb43906a057efe883f6d" target="_top" xlink:title="AO_test_and_set_acquire">
<polygon fill="#ffffff" stroke="#000000" points="322,-76.5 322,-95.5 451,-95.5 451,-76.5 322,-76.5"/>
<text text-anchor="middle" x="386.5" y="-83.5" font-family="Helvetica,sans-Serif" font-size="10.00" fill="#000000">AO_test_and_set_acquire</text>
</a>
</g>
</g>
<!-- Node1920&#45;&gt;Node1923 -->
<g id="edge5" class="edge">
<title>Node1920&#45;&gt;Node1923</title>
<path fill="none" stroke="#191970" d="M259.6516,-86C274.9625,-86 293.5322,-86 311.6851,-86"/>
<polygon fill="#191970" stroke="#191970" points="311.7039,-89.5001 321.7039,-86 311.7039,-82.5001 311.7039,-89.5001"/>
</g>
<!-- Node1924 -->
<g id="node7" class="node">
<title>Node1924</title>
<g id="a_node7"><a xlink:href="../../d5/d3a/generalize_8h.html#a8ec1c2583e26c57a7b4d17f239fa41e8" target="_top" xlink:title="AO_test_and_set">
<polygon fill="#ffffff" stroke="#000000" points="340.5,-38.5 340.5,-57.5 432.5,-57.5 432.5,-38.5 340.5,-38.5"/>
<text text-anchor="middle" x="386.5" y="-45.5" font-family="Helvetica,sans-Serif" font-size="10.00" fill="#000000">AO_test_and_set</text>
</a>
</g>
</g>
<!-- Node1920&#45;&gt;Node1924 -->
<g id="edge6" class="edge">
<title>Node1920&#45;&gt;Node1924</title>
<path fill="none" stroke="#191970" d="M259.6516,-77.7546C281.98,-72.517 311.239,-65.6538 336.029,-59.8389"/>
<polygon fill="#191970" stroke="#191970" points="337.0547,-63.1934 345.9912,-57.5021 335.4561,-56.3783 337.0547,-63.1934"/>
</g>
<!-- Node1926 -->
<g id="node9" class="node">
<title>Node1926</title>
<g id="a_node9"><a xlink:href="../../d0/d4c/gc__atomic__ops_8h.html#ac44fca25bf925dc938812ae00a336926" target="_top" xlink:title="AO_compare_and_swap">
<polygon fill="#ffffff" stroke="#000000" points="325,-.5 325,-19.5 448,-19.5 448,-.5 325,-.5"/>
<text text-anchor="middle" x="386.5" y="-7.5" font-family="Helvetica,sans-Serif" font-size="10.00" fill="#000000">AO_compare_and_swap</text>
</a>
</g>
</g>
<!-- Node1925&#45;&gt;Node1926 -->
<g id="edge8" class="edge">
<title>Node1925&#45;&gt;Node1926</title>
<path fill="none" stroke="#191970" d="M251.6152,-41.6397C274.5585,-36.2579 308.0578,-28.4 335.9314,-21.8618"/>
<polygon fill="#191970" stroke="#191970" points="336.9797,-25.2109 345.9162,-19.5197 335.3811,-18.3959 336.9797,-25.2109"/>
</g>
<!-- Node1927&#45;&gt;Node1926 -->
<g id="edge10" class="edge">
<title>Node1927&#45;&gt;Node1926</title>
<path fill="none" stroke="#191970" d="M253.837,-10C270.9178,-10 293.2591,-10 314.7249,-10"/>
<polygon fill="#191970" stroke="#191970" points="314.8333,-13.5001 324.8333,-10 314.8332,-6.5001 314.8333,-13.5001"/>
</g>
</g>
</svg>
