<?xml version="1.0" encoding="UTF-8" standalone="no"?>
<!DOCTYPE svg PUBLIC "-//W3C//DTD SVG 1.1//EN"
 "http://www.w3.org/Graphics/SVG/1.1/DTD/svg11.dtd">
<!-- Generated by graphviz version 2.40.1 (20161225.0304)
 -->
<!-- Title: boxptr_Lapack_dgbsv Pages: 1 -->
<svg width="400pt" height="28pt"
 viewBox="0.00 0.00 400.00 28.00" xmlns="http://www.w3.org/2000/svg" xmlns:xlink="http://www.w3.org/1999/xlink">
<g id="graph0" class="graph" transform="scale(1 1) rotate(0) translate(4 24)">
<title>boxptr_Lapack_dgbsv</title>
<polygon fill="#ffffff" stroke="transparent" points="-4,4 -4,-24 396,-24 396,4 -4,4"/>
<!-- Node0 -->
<g id="node1" class="node">
<title>Node0</title>
<polygon fill="#bfbfbf" stroke="#000000" points="0,-.5 0,-19.5 112,-19.5 112,-.5 0,-.5"/>
<text text-anchor="middle" x="56" y="-7.5" font-family="Helvetica,sans-Serif" font-size="10.00" fill="#000000">boxptr_Lapack_dgbsv</text>
</g>
<!-- Node1 -->
<g id="node2" class="node">
<title>Node1</title>
<g id="a_node2"><a xlink:href="../../d3/d89/_lapack_8c.html#a75918ec31d62e764d4ca57021b919178" target="_top" xlink:title="omc_Lapack_dgbsv">
<polygon fill="#ffffff" stroke="#000000" points="148,-.5 148,-19.5 252,-19.5 252,-.5 148,-.5"/>
<text text-anchor="middle" x="200" y="-7.5" font-family="Helvetica,sans-Serif" font-size="10.00" fill="#000000">omc_Lapack_dgbsv</text>
</a>
</g>
</g>
<!-- Node0&#45;&gt;Node1 -->
<g id="edge1" class="edge">
<title>Node0&#45;&gt;Node1</title>
<path fill="none" stroke="#191970" d="M112.0865,-10C120.3956,-10 129.0025,-10 137.4337,-10"/>
<polygon fill="#191970" stroke="#191970" points="137.599,-13.5001 147.599,-10 137.5989,-6.5001 137.599,-13.5001"/>
</g>
<!-- Node2 -->
<g id="node3" class="node">
<title>Node2</title>
<g id="a_node3"><a xlink:href="../../d0/d9f/_compiler_2boot_2build_2_lapack_8h.html#a4c5caf07e155eee61e4afae52f062f0e" target="_top" xlink:title="LapackImpl__dgbsv">
<polygon fill="#ffffff" stroke="#000000" points="288,-.5 288,-19.5 392,-19.5 392,-.5 288,-.5"/>
<text text-anchor="middle" x="340" y="-7.5" font-family="Helvetica,sans-Serif" font-size="10.00" fill="#000000">LapackImpl__dgbsv</text>
</a>
</g>
</g>
<!-- Node1&#45;&gt;Node2 -->
<g id="edge2" class="edge">
<title>Node1&#45;&gt;Node2</title>
<path fill="none" stroke="#191970" d="M252.1308,-10C260.4213,-10 269.0702,-10 277.5685,-10"/>
<polygon fill="#191970" stroke="#191970" points="277.8257,-13.5001 287.8256,-10 277.8256,-6.5001 277.8257,-13.5001"/>
</g>
</g>
</svg>
