<?xml version="1.0" encoding="UTF-8" standalone="no"?>
<!DOCTYPE svg PUBLIC "-//W3C//DTD SVG 1.1//EN"
 "http://www.w3.org/Graphics/SVG/1.1/DTD/svg11.dtd">
<!-- Generated by graphviz version 2.40.1 (20161225.0304)
 -->
<!-- Title: smbfct Pages: 1 -->
<svg width="373pt" height="66pt"
 viewBox="0.00 0.00 373.00 66.00" xmlns="http://www.w3.org/2000/svg" xmlns:xlink="http://www.w3.org/1999/xlink">
<g id="graph0" class="graph" transform="scale(1 1) rotate(0) translate(4 62)">
<title>smbfct</title>
<polygon fill="#ffffff" stroke="transparent" points="-4,4 -4,-62 369,-62 369,4 -4,4"/>
<!-- Node13 -->
<g id="node1" class="node">
<title>Node13</title>
<polygon fill="#bfbfbf" stroke="#000000" points="0,-19.5 0,-38.5 47,-38.5 47,-19.5 0,-19.5"/>
<text text-anchor="middle" x="23.5" y="-26.5" font-family="Helvetica,sans-Serif" font-size="10.00" fill="#000000">smbfct</text>
</g>
<!-- Node14 -->
<g id="node2" class="node">
<title>Node14</title>
<g id="a_node2"><a xlink:href="../../d0/dc0/smbfactor_8c.html#a929cf6af13d6bf71bc61657211472eed" target="_top" xlink:title="ComputeFillIn">
<polygon fill="#ffffff" stroke="#000000" points="83,-19.5 83,-38.5 160,-38.5 160,-19.5 83,-19.5"/>
<text text-anchor="middle" x="121.5" y="-26.5" font-family="Helvetica,sans-Serif" font-size="10.00" fill="#000000">ComputeFillIn</text>
</a>
</g>
</g>
<!-- Node13&#45;&gt;Node14 -->
<g id="edge1" class="edge">
<title>Node13&#45;&gt;Node14</title>
<path fill="none" stroke="#191970" d="M57.4823,-29C65.6199,-29 74.3693,-29 82.7062,-29"/>
<polygon fill="#191970" stroke="#191970" points="57.2231,-25.5001 47.2231,-29 57.223,-32.5001 57.2231,-25.5001"/>
</g>
<!-- Node15 -->
<g id="node3" class="node">
<title>Node15</title>
<g id="a_node3"><a xlink:href="../../df/da2/cmpfillin_8c.html#a0ddf1224851353fc92bfbff6f499fa97" target="_top" xlink:title="main">
<polygon fill="#ffffff" stroke="#000000" points="224.5,-38.5 224.5,-57.5 262.5,-57.5 262.5,-38.5 224.5,-38.5"/>
<text text-anchor="middle" x="243.5" y="-45.5" font-family="Helvetica,sans-Serif" font-size="10.00" fill="#000000">main</text>
</a>
</g>
</g>
<!-- Node14&#45;&gt;Node15 -->
<g id="edge2" class="edge">
<title>Node14&#45;&gt;Node15</title>
<path fill="none" stroke="#191970" d="M170.1158,-36.5713C189.072,-39.5235 209.6938,-42.7351 224.2361,-44.9999"/>
<polygon fill="#191970" stroke="#191970" points="170.5211,-33.0923 160.1016,-35.0117 169.4438,-40.0089 170.5211,-33.0923"/>
</g>
<!-- Node16 -->
<g id="node4" class="node">
<title>Node16</title>
<g id="a_node4"><a xlink:href="../../de/d03/programs_2proto_8h.html#ae474b9ac69c59e61afcdd45e4c2913f0" target="_top" xlink:title="NDReportResults">
<polygon fill="#ffffff" stroke="#000000" points="196,-.5 196,-19.5 291,-19.5 291,-.5 196,-.5"/>
<text text-anchor="middle" x="243.5" y="-7.5" font-family="Helvetica,sans-Serif" font-size="10.00" fill="#000000">NDReportResults</text>
</a>
</g>
</g>
<!-- Node14&#45;&gt;Node16 -->
<g id="edge3" class="edge">
<title>Node14&#45;&gt;Node16</title>
<path fill="none" stroke="#191970" d="M170.162,-21.4215C178.5802,-20.1105 187.3255,-18.7485 195.72,-17.4411"/>
<polygon fill="#191970" stroke="#191970" points="169.4438,-17.9911 160.1016,-22.9883 170.5211,-24.9077 169.4438,-17.9911"/>
</g>
<!-- Node17 -->
<g id="node5" class="node">
<title>Node17</title>
<g id="a_node5"><a xlink:href="../../d3/d51/ndmetis_8c.html#a0ddf1224851353fc92bfbff6f499fa97" target="_top" xlink:title="main">
<polygon fill="#ffffff" stroke="#000000" points="327,-.5 327,-19.5 365,-19.5 365,-.5 327,-.5"/>
<text text-anchor="middle" x="346" y="-7.5" font-family="Helvetica,sans-Serif" font-size="10.00" fill="#000000">main</text>
</a>
</g>
</g>
<!-- Node16&#45;&gt;Node17 -->
<g id="edge4" class="edge">
<title>Node16&#45;&gt;Node17</title>
<path fill="none" stroke="#191970" d="M301.1521,-10C310.3223,-10 319.2148,-10 326.6302,-10"/>
<polygon fill="#191970" stroke="#191970" points="301.1492,-6.5001 291.1491,-10 301.1491,-13.5001 301.1492,-6.5001"/>
</g>
</g>
</svg>
