<?xml version="1.0" encoding="UTF-8" standalone="no"?>
<!DOCTYPE svg PUBLIC "-//W3C//DTD SVG 1.1//EN"
 "http://www.w3.org/Graphics/SVG/1.1/DTD/svg11.dtd">
<!-- Generated by graphviz version 2.40.1 (20161225.0304)
 -->
<!-- Title: boxptr_ModelicaExternalC_Strings__compare Pages: 1 -->
<svg width="463pt" height="39pt"
 viewBox="0.00 0.00 463.00 39.00" xmlns="http://www.w3.org/2000/svg" xmlns:xlink="http://www.w3.org/1999/xlink">
<g id="graph0" class="graph" transform="scale(1 1) rotate(0) translate(4 35)">
<title>boxptr_ModelicaExternalC_Strings__compare</title>
<polygon fill="#ffffff" stroke="transparent" points="-4,4 -4,-35 459,-35 459,4 -4,4"/>
<!-- Node20 -->
<g id="node1" class="node">
<title>Node20</title>
<polygon fill="#bfbfbf" stroke="#000000" points="0,-.5 0,-30.5 131,-30.5 131,-.5 0,-.5"/>
<text text-anchor="start" x="8" y="-18.5" font-family="Helvetica,sans-Serif" font-size="10.00" fill="#000000">boxptr_ModelicaExternalC</text>
<text text-anchor="middle" x="65.5" y="-7.5" font-family="Helvetica,sans-Serif" font-size="10.00" fill="#000000">_Strings__compare</text>
</g>
<!-- Node21 -->
<g id="node2" class="node">
<title>Node21</title>
<g id="a_node2"><a xlink:href="../../df/d36/_modelica_external_c_8c.html#a0e61d99cd08d517cbdf514bee0981292" target="_top" xlink:title="omc_ModelicaExternalC\l_Strings__compare">
<polygon fill="#ffffff" stroke="#000000" points="167,-.5 167,-30.5 290,-30.5 290,-.5 167,-.5"/>
<text text-anchor="start" x="175" y="-18.5" font-family="Helvetica,sans-Serif" font-size="10.00" fill="#000000">omc_ModelicaExternalC</text>
<text text-anchor="middle" x="228.5" y="-7.5" font-family="Helvetica,sans-Serif" font-size="10.00" fill="#000000">_Strings__compare</text>
</a>
</g>
</g>
<!-- Node20&#45;&gt;Node21 -->
<g id="edge1" class="edge">
<title>Node20&#45;&gt;Node21</title>
<path fill="none" stroke="#191970" d="M131.3285,-15.5C139.683,-15.5 148.2659,-15.5 156.7077,-15.5"/>
<polygon fill="#191970" stroke="#191970" points="156.9103,-19.0001 166.9103,-15.5 156.9102,-12.0001 156.9103,-19.0001"/>
</g>
<!-- Node22 -->
<g id="node3" class="node">
<title>Node22</title>
<g id="a_node3"><a xlink:href="../../d9/d6f/_modelica_strings_8c.html#a872c9309a792310275c3719e1c759a07" target="_top" xlink:title="ModelicaStrings_compare">
<polygon fill="#ffffff" stroke="#000000" points="326,-6 326,-25 455,-25 455,-6 326,-6"/>
<text text-anchor="middle" x="390.5" y="-13" font-family="Helvetica,sans-Serif" font-size="10.00" fill="#000000">ModelicaStrings_compare</text>
</a>
</g>
</g>
<!-- Node21&#45;&gt;Node22 -->
<g id="edge2" class="edge">
<title>Node21&#45;&gt;Node22</title>
<path fill="none" stroke="#191970" d="M290.2074,-15.5C298.4714,-15.5 307.0199,-15.5 315.4809,-15.5"/>
<polygon fill="#191970" stroke="#191970" points="315.7331,-19.0001 325.733,-15.5 315.733,-12.0001 315.7331,-19.0001"/>
</g>
</g>
</svg>
