<?xml version="1.0" encoding="UTF-8" standalone="no"?>
<!DOCTYPE svg PUBLIC "-//W3C//DTD SVG 1.1//EN"
 "http://www.w3.org/Graphics/SVG/1.1/DTD/svg11.dtd">
<!-- Generated by graphviz version 2.40.1 (20161225.0304)
 -->
<!-- Title: Ipopt::LowRankSSAugSystemSolver::InitializeImpl Pages: 1 -->
<svg width="532pt" height="186pt"
 viewBox="0.00 0.00 532.00 186.00" xmlns="http://www.w3.org/2000/svg" xmlns:xlink="http://www.w3.org/1999/xlink">
<g id="graph0" class="graph" transform="scale(1 1) rotate(0) translate(4 182)">
<title>Ipopt::LowRankSSAugSystemSolver::InitializeImpl</title>
<polygon fill="#ffffff" stroke="transparent" points="-4,4 -4,-182 528,-182 528,4 -4,4"/>
<!-- Node8 -->
<g id="node1" class="node">
<title>Node8</title>
<polygon fill="#bfbfbf" stroke="#000000" points="0,-73.5 0,-103.5 150,-103.5 150,-73.5 0,-73.5"/>
<text text-anchor="start" x="8" y="-91.5" font-family="Helvetica,sans-Serif" font-size="10.00" fill="#000000">Ipopt::LowRankSSAugSystem</text>
<text text-anchor="middle" x="75" y="-80.5" font-family="Helvetica,sans-Serif" font-size="10.00" fill="#000000">Solver::InitializeImpl</text>
</g>
<!-- Node9 -->
<g id="node2" class="node">
<title>Node9</title>
<g id="a_node2"><a xlink:href="../../d6/d4a/class_ipopt_1_1_algorithm_strategy_object.html#af33506203825c1679fdb8e3b02df0cd7" target="_top" xlink:title="Ipopt::AlgorithmStrategy\lObject::Jnlst">
<polygon fill="#ffffff" stroke="#000000" points="186,-147.5 186,-177.5 308,-177.5 308,-147.5 186,-147.5"/>
<text text-anchor="start" x="194" y="-165.5" font-family="Helvetica,sans-Serif" font-size="10.00" fill="#000000">Ipopt::AlgorithmStrategy</text>
<text text-anchor="middle" x="247" y="-154.5" font-family="Helvetica,sans-Serif" font-size="10.00" fill="#000000">Object::Jnlst</text>
</a>
</g>
</g>
<!-- Node8&#45;&gt;Node9 -->
<g id="edge1" class="edge">
<title>Node8&#45;&gt;Node9</title>
<path fill="none" stroke="#191970" d="M107.3605,-103.5748C129.4055,-113.7212 159.319,-127.2498 186,-138.5 190.0618,-140.2127 194.291,-141.9566 198.5439,-143.6829"/>
<polygon fill="#191970" stroke="#191970" points="197.2524,-146.9359 207.8364,-147.4155 199.8615,-140.4403 197.2524,-146.9359"/>
</g>
<!-- Node10 -->
<g id="node3" class="node">
<title>Node10</title>
<g id="a_node3"><a xlink:href="../../d6/d4a/class_ipopt_1_1_algorithm_strategy_object.html#a2a151fb4b58f2186237b55d97af77ef7" target="_top" xlink:title="Ipopt::AlgorithmStrategy\lObject::IpNLP">
<polygon fill="#ffffff" stroke="#000000" points="186,-98.5 186,-128.5 308,-128.5 308,-98.5 186,-98.5"/>
<text text-anchor="start" x="194" y="-116.5" font-family="Helvetica,sans-Serif" font-size="10.00" fill="#000000">Ipopt::AlgorithmStrategy</text>
<text text-anchor="middle" x="247" y="-105.5" font-family="Helvetica,sans-Serif" font-size="10.00" fill="#000000">Object::IpNLP</text>
</a>
</g>
</g>
<!-- Node8&#45;&gt;Node10 -->
<g id="edge2" class="edge">
<title>Node8&#45;&gt;Node10</title>
<path fill="none" stroke="#191970" d="M150.1915,-99.429C158.6746,-100.662 167.3002,-101.9157 175.7311,-103.1411"/>
<polygon fill="#191970" stroke="#191970" points="175.4963,-106.6437 185.8958,-104.6186 176.5032,-99.7165 175.4963,-106.6437"/>
</g>
<!-- Node13 -->
<g id="node6" class="node">
<title>Node13</title>
<g id="a_node6"><a xlink:href="../../d6/d4a/class_ipopt_1_1_algorithm_strategy_object.html#a8b39e20ef00543ac41de1e4bb8a75930" target="_top" xlink:title="Ipopt::AlgorithmStrategy\lObject::IpData">
<polygon fill="#ffffff" stroke="#000000" points="186,-49.5 186,-79.5 308,-79.5 308,-49.5 186,-49.5"/>
<text text-anchor="start" x="194" y="-67.5" font-family="Helvetica,sans-Serif" font-size="10.00" fill="#000000">Ipopt::AlgorithmStrategy</text>
<text text-anchor="middle" x="247" y="-56.5" font-family="Helvetica,sans-Serif" font-size="10.00" fill="#000000">Object::IpData</text>
</a>
</g>
</g>
<!-- Node8&#45;&gt;Node13 -->
<g id="edge5" class="edge">
<title>Node8&#45;&gt;Node13</title>
<path fill="none" stroke="#191970" d="M150.1915,-78.0082C158.6746,-76.8245 167.3002,-75.6209 175.7311,-74.4445"/>
<polygon fill="#191970" stroke="#191970" points="176.4754,-77.8746 185.8958,-73.0262 175.508,-70.9418 176.4754,-77.8746"/>
</g>
<!-- Node14 -->
<g id="node7" class="node">
<title>Node14</title>
<g id="a_node7"><a xlink:href="../../d6/d4a/class_ipopt_1_1_algorithm_strategy_object.html#aa597d0c5c9f01cb0f3970f49fea8a730" target="_top" xlink:title="Ipopt::AlgorithmStrategy\lObject::IpCq">
<polygon fill="#ffffff" stroke="#000000" points="186,-.5 186,-30.5 308,-30.5 308,-.5 186,-.5"/>
<text text-anchor="start" x="194" y="-18.5" font-family="Helvetica,sans-Serif" font-size="10.00" fill="#000000">Ipopt::AlgorithmStrategy</text>
<text text-anchor="middle" x="247" y="-7.5" font-family="Helvetica,sans-Serif" font-size="10.00" fill="#000000">Object::IpCq</text>
</a>
</g>
</g>
<!-- Node8&#45;&gt;Node14 -->
<g id="edge7" class="edge">
<title>Node8&#45;&gt;Node14</title>
<path fill="none" stroke="#191970" d="M109.4266,-73.4106C131.3096,-63.8694 160.2646,-51.3369 186,-40.5 190.6923,-38.5241 195.5957,-36.4801 200.4953,-34.4512"/>
<polygon fill="#191970" stroke="#191970" points="201.9461,-37.6389 209.856,-30.5901 199.2769,-31.1677 201.9461,-37.6389"/>
</g>
<!-- Node11 -->
<g id="node4" class="node">
<title>Node11</title>
<g id="a_node4"><a xlink:href="../../d7/db2/namespace_ipopt.html#a412b04fd3180a55969ff76224d5bfec6" target="_top" xlink:title="Ipopt::IsValid">
<polygon fill="#ffffff" stroke="#000000" points="344,-55 344,-74 418,-74 418,-55 344,-55"/>
<text text-anchor="middle" x="381" y="-62" font-family="Helvetica,sans-Serif" font-size="10.00" fill="#000000">Ipopt::IsValid</text>
</a>
</g>
</g>
<!-- Node10&#45;&gt;Node11 -->
<g id="edge3" class="edge">
<title>Node10&#45;&gt;Node11</title>
<path fill="none" stroke="#191970" d="M288.2978,-98.3986C306.4256,-91.7697 327.5121,-84.059 344.9901,-77.6678"/>
<polygon fill="#191970" stroke="#191970" points="346.6245,-80.7969 354.8142,-74.0754 344.2204,-74.2226 346.6245,-80.7969"/>
</g>
<!-- Node12 -->
<g id="node5" class="node">
<title>Node12</title>
<g id="a_node5"><a xlink:href="../../d7/db2/namespace_ipopt.html#acfc346e8412ed6def2dc1858b78bde1b" target="_top" xlink:title="Ipopt::IsNull">
<polygon fill="#ffffff" stroke="#000000" points="454,-55 454,-74 524,-74 524,-55 454,-55"/>
<text text-anchor="middle" x="489" y="-62" font-family="Helvetica,sans-Serif" font-size="10.00" fill="#000000">Ipopt::IsNull</text>
</a>
</g>
</g>
<!-- Node11&#45;&gt;Node12 -->
<g id="edge4" class="edge">
<title>Node11&#45;&gt;Node12</title>
<path fill="none" stroke="#191970" d="M418.1675,-64.5C426.4095,-64.5 435.2328,-64.5 443.757,-64.5"/>
<polygon fill="#191970" stroke="#191970" points="443.9472,-68.0001 453.9472,-64.5 443.9471,-61.0001 443.9472,-68.0001"/>
</g>
<!-- Node13&#45;&gt;Node11 -->
<g id="edge6" class="edge">
<title>Node13&#45;&gt;Node11</title>
<path fill="none" stroke="#191970" d="M308.1181,-64.5C316.66,-64.5 325.3304,-64.5 333.5682,-64.5"/>
<polygon fill="#191970" stroke="#191970" points="333.7292,-68.0001 343.7292,-64.5 333.7291,-61.0001 333.7292,-68.0001"/>
</g>
<!-- Node14&#45;&gt;Node11 -->
<g id="edge8" class="edge">
<title>Node14&#45;&gt;Node11</title>
<path fill="none" stroke="#191970" d="M288.2978,-30.6014C306.4256,-37.2303 327.5121,-44.941 344.9901,-51.3322"/>
<polygon fill="#191970" stroke="#191970" points="344.2204,-54.7774 354.8142,-54.9246 346.6245,-48.2031 344.2204,-54.7774"/>
</g>
</g>
</svg>
