<?xml version="1.0" encoding="UTF-8" standalone="no"?>
<!DOCTYPE svg PUBLIC "-//W3C//DTD SVG 1.1//EN"
 "http://www.w3.org/Graphics/SVG/1.1/DTD/svg11.dtd">
<!-- Generated by graphviz version 2.40.1 (20161225.0304)
 -->
<!-- Title: boxptr_Config_typeinfo Pages: 1 -->
<svg width="871pt" height="28pt"
 viewBox="0.00 0.00 871.00 28.00" xmlns="http://www.w3.org/2000/svg" xmlns:xlink="http://www.w3.org/1999/xlink">
<g id="graph0" class="graph" transform="scale(1 1) rotate(0) translate(4 24)">
<title>boxptr_Config_typeinfo</title>
<polygon fill="#ffffff" stroke="transparent" points="-4,4 -4,-24 867,-24 867,4 -4,4"/>
<!-- Node351 -->
<g id="node1" class="node">
<title>Node351</title>
<polygon fill="#bfbfbf" stroke="#000000" points="0,-.5 0,-19.5 117,-19.5 117,-.5 0,-.5"/>
<text text-anchor="middle" x="58.5" y="-7.5" font-family="Helvetica,sans-Serif" font-size="10.00" fill="#000000">boxptr_Config_typeinfo</text>
</g>
<!-- Node352 -->
<g id="node2" class="node">
<title>Node352</title>
<g id="a_node2"><a xlink:href="../../d1/d5c/_config_8c.html#a4c66800897412c64375295f2d7893c37" target="_top" xlink:title="omc_Config_typeinfo">
<polygon fill="#ffffff" stroke="#000000" points="153,-.5 153,-19.5 262,-19.5 262,-.5 153,-.5"/>
<text text-anchor="middle" x="207.5" y="-7.5" font-family="Helvetica,sans-Serif" font-size="10.00" fill="#000000">omc_Config_typeinfo</text>
</a>
</g>
</g>
<!-- Node351&#45;&gt;Node352 -->
<g id="edge1" class="edge">
<title>Node351&#45;&gt;Node352</title>
<path fill="none" stroke="#191970" d="M117.3887,-10C125.7163,-10 134.3164,-10 142.747,-10"/>
<polygon fill="#191970" stroke="#191970" points="142.9168,-13.5001 152.9168,-10 142.9167,-6.5001 142.9168,-13.5001"/>
</g>
<!-- Node353 -->
<g id="node3" class="node">
<title>Node353</title>
<g id="a_node3"><a xlink:href="../../d3/db3/_flags_8c.html#abc3d84cf6e1cf18f0cec0f052e7c85d9" target="_top" xlink:title="omc_Flags_getConfigBool">
<polygon fill="#ffffff" stroke="#000000" points="298,-.5 298,-19.5 429,-19.5 429,-.5 298,-.5"/>
<text text-anchor="middle" x="363.5" y="-7.5" font-family="Helvetica,sans-Serif" font-size="10.00" fill="#000000">omc_Flags_getConfigBool</text>
</a>
</g>
</g>
<!-- Node352&#45;&gt;Node353 -->
<g id="edge2" class="edge">
<title>Node352&#45;&gt;Node353</title>
<path fill="none" stroke="#191970" d="M262.0612,-10C270.3972,-10 279.127,-10 287.8183,-10"/>
<polygon fill="#191970" stroke="#191970" points="287.9777,-13.5001 297.9777,-10 287.9776,-6.5001 287.9777,-13.5001"/>
</g>
<!-- Node354 -->
<g id="node4" class="node">
<title>Node354</title>
<g id="a_node4"><a xlink:href="../../d3/db3/_flags_8c.html#a96ba70d54b6662cf90933a207c0c6b8e" target="_top" xlink:title="omc_Flags_getConfigValue">
<polygon fill="#ffffff" stroke="#000000" points="465,-.5 465,-19.5 602,-19.5 602,-.5 465,-.5"/>
<text text-anchor="middle" x="533.5" y="-7.5" font-family="Helvetica,sans-Serif" font-size="10.00" fill="#000000">omc_Flags_getConfigValue</text>
</a>
</g>
</g>
<!-- Node353&#45;&gt;Node354 -->
<g id="edge3" class="edge">
<title>Node353&#45;&gt;Node354</title>
<path fill="none" stroke="#191970" d="M429.2264,-10C437.6209,-10 446.28,-10 454.8525,-10"/>
<polygon fill="#191970" stroke="#191970" points="454.8551,-13.5001 464.855,-10 454.855,-6.5001 454.8551,-13.5001"/>
</g>
<!-- Node355 -->
<g id="node5" class="node">
<title>Node355</title>
<g id="a_node5"><a xlink:href="../../d3/db3/_flags_8c.html#a760d66f53b65ac257876ca0f6308f09f" target="_top" xlink:title="omc_Flags_loadFlags">
<polygon fill="#ffffff" stroke="#000000" points="638,-.5 638,-19.5 750,-19.5 750,-.5 638,-.5"/>
<text text-anchor="middle" x="694" y="-7.5" font-family="Helvetica,sans-Serif" font-size="10.00" fill="#000000">omc_Flags_loadFlags</text>
</a>
</g>
</g>
<!-- Node354&#45;&gt;Node355 -->
<g id="edge4" class="edge">
<title>Node354&#45;&gt;Node355</title>
<path fill="none" stroke="#191970" d="M602.032,-10C610.5123,-10 619.1709,-10 627.6182,-10"/>
<polygon fill="#191970" stroke="#191970" points="627.791,-13.5001 637.7909,-10 627.7909,-6.5001 627.791,-13.5001"/>
</g>
<!-- Node356 -->
<g id="node6" class="node">
<title>Node356</title>
<g id="a_node6"><a xlink:href="../../da/d72/_compiler_2boot_2build_2list_8c.html#a3ec1ee3a5ff53be9af368e290be09182" target="_top" xlink:title="omc_List_fold">
<polygon fill="#ffffff" stroke="#000000" points="786,-.5 786,-19.5 863,-19.5 863,-.5 786,-.5"/>
<text text-anchor="middle" x="824.5" y="-7.5" font-family="Helvetica,sans-Serif" font-size="10.00" fill="#000000">omc_List_fold</text>
</a>
</g>
</g>
<!-- Node355&#45;&gt;Node356 -->
<g id="edge5" class="edge">
<title>Node355&#45;&gt;Node356</title>
<path fill="none" stroke="#191970" d="M750.1011,-10C758.5528,-10 767.2135,-10 775.5007,-10"/>
<polygon fill="#191970" stroke="#191970" points="775.7542,-13.5001 785.7542,-10 775.7541,-6.5001 775.7542,-13.5001"/>
</g>
</g>
</svg>
