<?xml version="1.0" encoding="UTF-8" standalone="no"?>
<!DOCTYPE svg PUBLIC "-//W3C//DTD SVG 1.1//EN"
 "http://www.w3.org/Graphics/SVG/1.1/DTD/svg11.dtd">
<!-- Generated by graphviz version 2.40.1 (20161225.0304)
 -->
<!-- Title: boxptr_Config_showStartOrigin Pages: 1 -->
<svg width="729pt" height="28pt"
 viewBox="0.00 0.00 729.00 28.00" xmlns="http://www.w3.org/2000/svg" xmlns:xlink="http://www.w3.org/1999/xlink">
<g id="graph0" class="graph" transform="scale(1 1) rotate(0) translate(4 24)">
<title>boxptr_Config_showStartOrigin</title>
<polygon fill="#ffffff" stroke="transparent" points="-4,4 -4,-24 725,-24 725,4 -4,4"/>
<!-- Node307 -->
<g id="node1" class="node">
<title>Node307</title>
<polygon fill="#bfbfbf" stroke="#000000" points="0,-.5 0,-19.5 152,-19.5 152,-.5 0,-.5"/>
<text text-anchor="middle" x="76" y="-7.5" font-family="Helvetica,sans-Serif" font-size="10.00" fill="#000000">boxptr_Config_showStartOrigin</text>
</g>
<!-- Node308 -->
<g id="node2" class="node">
<title>Node308</title>
<g id="a_node2"><a xlink:href="../../d1/d5c/_config_8c.html#aba3b5ebb23cee02745805d07ebfdf4d6" target="_top" xlink:title="omc_Config_showStartOrigin">
<polygon fill="#ffffff" stroke="#000000" points="188,-.5 188,-19.5 332,-19.5 332,-.5 188,-.5"/>
<text text-anchor="middle" x="260" y="-7.5" font-family="Helvetica,sans-Serif" font-size="10.00" fill="#000000">omc_Config_showStartOrigin</text>
</a>
</g>
</g>
<!-- Node307&#45;&gt;Node308 -->
<g id="edge1" class="edge">
<title>Node307&#45;&gt;Node308</title>
<path fill="none" stroke="#191970" d="M152.168,-10C160.5323,-10 169.0765,-10 177.5129,-10"/>
<polygon fill="#191970" stroke="#191970" points="177.7307,-13.5001 187.7307,-10 177.7306,-6.5001 177.7307,-13.5001"/>
</g>
<!-- Node309 -->
<g id="node3" class="node">
<title>Node309</title>
<g id="a_node3"><a xlink:href="../../d3/db3/_flags_8c.html#a34e6591659b1578969141a635ff24042" target="_top" xlink:title="omc_Flags_isSet">
<polygon fill="#ffffff" stroke="#000000" points="368,-.5 368,-19.5 460,-19.5 460,-.5 368,-.5"/>
<text text-anchor="middle" x="414" y="-7.5" font-family="Helvetica,sans-Serif" font-size="10.00" fill="#000000">omc_Flags_isSet</text>
</a>
</g>
</g>
<!-- Node308&#45;&gt;Node309 -->
<g id="edge2" class="edge">
<title>Node308&#45;&gt;Node309</title>
<path fill="none" stroke="#191970" d="M332.0402,-10C340.7221,-10 349.4884,-10 357.8953,-10"/>
<polygon fill="#191970" stroke="#191970" points="357.9417,-13.5001 367.9416,-10 357.9416,-6.5001 357.9417,-13.5001"/>
</g>
<!-- Node310 -->
<g id="node4" class="node">
<title>Node310</title>
<g id="a_node4"><a xlink:href="../../d3/db3/_flags_8c.html#a760d66f53b65ac257876ca0f6308f09f" target="_top" xlink:title="omc_Flags_loadFlags">
<polygon fill="#ffffff" stroke="#000000" points="496,-.5 496,-19.5 608,-19.5 608,-.5 496,-.5"/>
<text text-anchor="middle" x="552" y="-7.5" font-family="Helvetica,sans-Serif" font-size="10.00" fill="#000000">omc_Flags_loadFlags</text>
</a>
</g>
</g>
<!-- Node309&#45;&gt;Node310 -->
<g id="edge3" class="edge">
<title>Node309&#45;&gt;Node310</title>
<path fill="none" stroke="#191970" d="M460.3359,-10C468.5527,-10 477.2518,-10 485.8905,-10"/>
<polygon fill="#191970" stroke="#191970" points="485.9712,-13.5001 495.9712,-10 485.9711,-6.5001 485.9712,-13.5001"/>
</g>
<!-- Node311 -->
<g id="node5" class="node">
<title>Node311</title>
<g id="a_node5"><a xlink:href="../../da/d72/_compiler_2boot_2build_2list_8c.html#a3ec1ee3a5ff53be9af368e290be09182" target="_top" xlink:title="omc_List_fold">
<polygon fill="#ffffff" stroke="#000000" points="644,-.5 644,-19.5 721,-19.5 721,-.5 644,-.5"/>
<text text-anchor="middle" x="682.5" y="-7.5" font-family="Helvetica,sans-Serif" font-size="10.00" fill="#000000">omc_List_fold</text>
</a>
</g>
</g>
<!-- Node310&#45;&gt;Node311 -->
<g id="edge4" class="edge">
<title>Node310&#45;&gt;Node311</title>
<path fill="none" stroke="#191970" d="M608.1011,-10C616.5528,-10 625.2135,-10 633.5007,-10"/>
<polygon fill="#191970" stroke="#191970" points="633.7542,-13.5001 643.7542,-10 633.7541,-6.5001 633.7542,-13.5001"/>
</g>
</g>
</svg>
