<?xml version="1.0" encoding="UTF-8" standalone="no"?>
<!DOCTYPE svg PUBLIC "-//W3C//DTD SVG 1.1//EN"
 "http://www.w3.org/Graphics/SVG/1.1/DTD/svg11.dtd">
<!-- Generated by graphviz version 2.40.1 (20161225.0304)
 -->
<!-- Title: boxptr_Config_adaptiveHomotopy Pages: 1 -->
<svg width="971pt" height="28pt"
 viewBox="0.00 0.00 971.00 28.00" xmlns="http://www.w3.org/2000/svg" xmlns:xlink="http://www.w3.org/1999/xlink">
<g id="graph0" class="graph" transform="scale(1 1) rotate(0) translate(4 24)">
<title>boxptr_Config_adaptiveHomotopy</title>
<polygon fill="#ffffff" stroke="transparent" points="-4,4 -4,-24 967,-24 967,4 -4,4"/>
<!-- Node35 -->
<g id="node1" class="node">
<title>Node35</title>
<polygon fill="#bfbfbf" stroke="#000000" points="0,-.5 0,-19.5 164,-19.5 164,-.5 0,-.5"/>
<text text-anchor="middle" x="82" y="-7.5" font-family="Helvetica,sans-Serif" font-size="10.00" fill="#000000">boxptr_Config_adaptiveHomotopy</text>
</g>
<!-- Node36 -->
<g id="node2" class="node">
<title>Node36</title>
<g id="a_node2"><a xlink:href="../../d1/d5c/_config_8c.html#a8e768c5e1eed29bcb120fee9b6f73555" target="_top" xlink:title="omc_Config_adaptiveHomotopy">
<polygon fill="#ffffff" stroke="#000000" points="200,-.5 200,-19.5 356,-19.5 356,-.5 200,-.5"/>
<text text-anchor="middle" x="278" y="-7.5" font-family="Helvetica,sans-Serif" font-size="10.00" fill="#000000">omc_Config_adaptiveHomotopy</text>
</a>
</g>
</g>
<!-- Node35&#45;&gt;Node36 -->
<g id="edge1" class="edge">
<title>Node35&#45;&gt;Node36</title>
<path fill="none" stroke="#191970" d="M164.2697,-10C172.6113,-10 181.109,-10 189.5125,-10"/>
<polygon fill="#191970" stroke="#191970" points="189.6995,-13.5001 199.6994,-10 189.6994,-6.5001 189.6995,-13.5001"/>
</g>
<!-- Node37 -->
<g id="node3" class="node">
<title>Node37</title>
<g id="a_node3"><a xlink:href="../../d3/db3/_flags_8c.html#a1bdc57ee7db1a86ebd954e1aa4d04c0c" target="_top" xlink:title="omc_Flags_getConfigString">
<polygon fill="#ffffff" stroke="#000000" points="392,-.5 392,-19.5 529,-19.5 529,-.5 392,-.5"/>
<text text-anchor="middle" x="460.5" y="-7.5" font-family="Helvetica,sans-Serif" font-size="10.00" fill="#000000">omc_Flags_getConfigString</text>
</a>
</g>
</g>
<!-- Node36&#45;&gt;Node37 -->
<g id="edge2" class="edge">
<title>Node36&#45;&gt;Node37</title>
<path fill="none" stroke="#191970" d="M356.1906,-10C364.6505,-10 373.2634,-10 381.7301,-10"/>
<polygon fill="#191970" stroke="#191970" points="381.9652,-13.5001 391.9651,-10 381.9651,-6.5001 381.9652,-13.5001"/>
</g>
<!-- Node38 -->
<g id="node4" class="node">
<title>Node38</title>
<g id="a_node4"><a xlink:href="../../d3/db3/_flags_8c.html#a96ba70d54b6662cf90933a207c0c6b8e" target="_top" xlink:title="omc_Flags_getConfigValue">
<polygon fill="#ffffff" stroke="#000000" points="565,-.5 565,-19.5 702,-19.5 702,-.5 565,-.5"/>
<text text-anchor="middle" x="633.5" y="-7.5" font-family="Helvetica,sans-Serif" font-size="10.00" fill="#000000">omc_Flags_getConfigValue</text>
</a>
</g>
</g>
<!-- Node37&#45;&gt;Node38 -->
<g id="edge3" class="edge">
<title>Node37&#45;&gt;Node38</title>
<path fill="none" stroke="#191970" d="M529.3713,-10C537.678,-10 546.2111,-10 554.6466,-10"/>
<polygon fill="#191970" stroke="#191970" points="554.8657,-13.5001 564.8657,-10 554.8657,-6.5001 554.8657,-13.5001"/>
</g>
<!-- Node39 -->
<g id="node5" class="node">
<title>Node39</title>
<g id="a_node5"><a xlink:href="../../d3/db3/_flags_8c.html#a760d66f53b65ac257876ca0f6308f09f" target="_top" xlink:title="omc_Flags_loadFlags">
<polygon fill="#ffffff" stroke="#000000" points="738,-.5 738,-19.5 850,-19.5 850,-.5 738,-.5"/>
<text text-anchor="middle" x="794" y="-7.5" font-family="Helvetica,sans-Serif" font-size="10.00" fill="#000000">omc_Flags_loadFlags</text>
</a>
</g>
</g>
<!-- Node38&#45;&gt;Node39 -->
<g id="edge4" class="edge">
<title>Node38&#45;&gt;Node39</title>
<path fill="none" stroke="#191970" d="M702.032,-10C710.5123,-10 719.1709,-10 727.6182,-10"/>
<polygon fill="#191970" stroke="#191970" points="727.791,-13.5001 737.7909,-10 727.7909,-6.5001 727.791,-13.5001"/>
</g>
<!-- Node40 -->
<g id="node6" class="node">
<title>Node40</title>
<g id="a_node6"><a xlink:href="../../da/d72/_compiler_2boot_2build_2list_8c.html#a3ec1ee3a5ff53be9af368e290be09182" target="_top" xlink:title="omc_List_fold">
<polygon fill="#ffffff" stroke="#000000" points="886,-.5 886,-19.5 963,-19.5 963,-.5 886,-.5"/>
<text text-anchor="middle" x="924.5" y="-7.5" font-family="Helvetica,sans-Serif" font-size="10.00" fill="#000000">omc_List_fold</text>
</a>
</g>
</g>
<!-- Node39&#45;&gt;Node40 -->
<g id="edge5" class="edge">
<title>Node39&#45;&gt;Node40</title>
<path fill="none" stroke="#191970" d="M850.1011,-10C858.5528,-10 867.2135,-10 875.5007,-10"/>
<polygon fill="#191970" stroke="#191970" points="875.7542,-13.5001 885.7542,-10 875.7541,-6.5001 875.7542,-13.5001"/>
</g>
</g>
</svg>
