<?xml version="1.0" encoding="UTF-8" standalone="no"?>
<!DOCTYPE svg PUBLIC "-//W3C//DTD SVG 1.1//EN"
 "http://www.w3.org/Graphics/SVG/1.1/DTD/svg11.dtd">
<!-- Generated by graphviz version 2.40.1 (20161225.0304)
 -->
<!-- Title: boxptr_Config_setVectorizationLimit Pages: 1 -->
<svg width="501pt" height="39pt"
 viewBox="0.00 0.00 501.00 39.00" xmlns="http://www.w3.org/2000/svg" xmlns:xlink="http://www.w3.org/1999/xlink">
<g id="graph0" class="graph" transform="scale(1 1) rotate(0) translate(4 35)">
<title>boxptr_Config_setVectorizationLimit</title>
<polygon fill="#ffffff" stroke="transparent" points="-4,4 -4,-35 497,-35 497,4 -4,4"/>
<!-- Node289 -->
<g id="node1" class="node">
<title>Node289</title>
<polygon fill="#bfbfbf" stroke="#000000" points="0,-.5 0,-30.5 153,-30.5 153,-.5 0,-.5"/>
<text text-anchor="start" x="8" y="-18.5" font-family="Helvetica,sans-Serif" font-size="10.00" fill="#000000">boxptr_Config_setVectorization</text>
<text text-anchor="middle" x="76.5" y="-7.5" font-family="Helvetica,sans-Serif" font-size="10.00" fill="#000000">Limit</text>
</g>
<!-- Node290 -->
<g id="node2" class="node">
<title>Node290</title>
<g id="a_node2"><a xlink:href="../../d1/d5c/_config_8c.html#a34f96670c23dafc305485aa3d7ac4cce" target="_top" xlink:title="omc_Config_setVectorization\lLimit">
<polygon fill="#ffffff" stroke="#000000" points="189,-.5 189,-30.5 334,-30.5 334,-.5 189,-.5"/>
<text text-anchor="start" x="197" y="-18.5" font-family="Helvetica,sans-Serif" font-size="10.00" fill="#000000">omc_Config_setVectorization</text>
<text text-anchor="middle" x="261.5" y="-7.5" font-family="Helvetica,sans-Serif" font-size="10.00" fill="#000000">Limit</text>
</a>
</g>
</g>
<!-- Node289&#45;&gt;Node290 -->
<g id="edge1" class="edge">
<title>Node289&#45;&gt;Node290</title>
<path fill="none" stroke="#191970" d="M153.082,-15.5C161.4917,-15.5 170.0824,-15.5 178.5646,-15.5"/>
<polygon fill="#191970" stroke="#191970" points="178.8379,-19.0001 188.8379,-15.5 178.8379,-12.0001 178.8379,-19.0001"/>
</g>
<!-- Node291 -->
<g id="node3" class="node">
<title>Node291</title>
<g id="a_node3"><a xlink:href="../../d3/db3/_flags_8c.html#ae305c980ed294deebc88734ab3852422" target="_top" xlink:title="omc_Flags_setConfigInt">
<polygon fill="#ffffff" stroke="#000000" points="370,-6 370,-25 493,-25 493,-6 370,-6"/>
<text text-anchor="middle" x="431.5" y="-13" font-family="Helvetica,sans-Serif" font-size="10.00" fill="#000000">omc_Flags_setConfigInt</text>
</a>
</g>
</g>
<!-- Node290&#45;&gt;Node291 -->
<g id="edge2" class="edge">
<title>Node290&#45;&gt;Node291</title>
<path fill="none" stroke="#191970" d="M334.0884,-15.5C342.5573,-15.5 351.1943,-15.5 359.6531,-15.5"/>
<polygon fill="#191970" stroke="#191970" points="359.8595,-19.0001 369.8594,-15.5 359.8594,-12.0001 359.8595,-19.0001"/>
</g>
</g>
</svg>
