<?xml version="1.0" encoding="UTF-8" standalone="no"?>
<!DOCTYPE svg PUBLIC "-//W3C//DTD SVG 1.1//EN"
 "http://www.w3.org/Graphics/SVG/1.1/DTD/svg11.dtd">
<!-- Generated by graphviz version 2.40.1 (20161225.0304)
 -->
<!-- Title: IDADlsSetBandJacFn Pages: 1 -->
<svg width="284pt" height="104pt"
 viewBox="0.00 0.00 284.00 104.00" xmlns="http://www.w3.org/2000/svg" xmlns:xlink="http://www.w3.org/1999/xlink">
<g id="graph0" class="graph" transform="scale(1 1) rotate(0) translate(4 100)">
<title>IDADlsSetBandJacFn</title>
<polygon fill="#ffffff" stroke="transparent" points="-4,4 -4,-100 280,-100 280,4 -4,4"/>
<!-- Node36 -->
<g id="node1" class="node">
<title>Node36</title>
<polygon fill="#bfbfbf" stroke="#000000" points="0,-38.5 0,-57.5 113,-57.5 113,-38.5 0,-38.5"/>
<text text-anchor="middle" x="56.5" y="-45.5" font-family="Helvetica,sans-Serif" font-size="10.00" fill="#000000">IDADlsSetBandJacFn</text>
</g>
<!-- Node37 -->
<g id="node2" class="node">
<title>Node37</title>
<g id="a_node2"><a xlink:href="../../dc/d84/fidaband_8c.html#a807b06f60b1fb26e74d99b45ad8b1966" target="_top" xlink:title="FIDA_BANDSETJAC">
<polygon fill="#ffffff" stroke="#000000" points="156,-76.5 156,-95.5 269,-95.5 269,-76.5 156,-76.5"/>
<text text-anchor="middle" x="212.5" y="-83.5" font-family="Helvetica,sans-Serif" font-size="10.00" fill="#000000">FIDA_BANDSETJAC</text>
</a>
</g>
</g>
<!-- Node36&#45;&gt;Node37 -->
<g id="edge1" class="edge">
<title>Node36&#45;&gt;Node37</title>
<path fill="none" stroke="#191970" d="M105.6317,-59.968C127.4927,-65.2931 152.8761,-71.4762 173.4177,-76.4799"/>
<polygon fill="#191970" stroke="#191970" points="106.4097,-56.5552 95.8654,-57.589 104.7529,-63.3563 106.4097,-56.5552"/>
</g>
<!-- Node38 -->
<g id="node3" class="node">
<title>Node38</title>
<g id="a_node3"><a xlink:href="../../d1/d7c/build_2include_2omc_2c_2sundials_2idas_2idas__direct_8h.html#ab262fb4b0017391742138c30dc0d6f87" target="_top" xlink:title="IDADlsSetBandJacFnB">
<polygon fill="#ffffff" stroke="#000000" points="152.5,-38.5 152.5,-57.5 272.5,-57.5 272.5,-38.5 152.5,-38.5"/>
<text text-anchor="middle" x="212.5" y="-45.5" font-family="Helvetica,sans-Serif" font-size="10.00" fill="#000000">IDADlsSetBandJacFnB</text>
</a>
</g>
</g>
<!-- Node36&#45;&gt;Node38 -->
<g id="edge2" class="edge">
<title>Node36&#45;&gt;Node38</title>
<path fill="none" stroke="#191970" d="M123.541,-48C133.1222,-48 142.9284,-48 152.3659,-48"/>
<polygon fill="#191970" stroke="#191970" points="123.2609,-44.5001 113.2609,-48 123.2608,-51.5001 123.2609,-44.5001"/>
</g>
<!-- Node39 -->
<g id="node4" class="node">
<title>Node39</title>
<g id="a_node4"><a xlink:href="../../d1/d7c/build_2include_2omc_2c_2sundials_2idas_2idas__direct_8h.html#a285280e5b3b469ef84527bc68fc5d370" target="_top" xlink:title="IDADlsSetBandJacFnBS">
<polygon fill="#ffffff" stroke="#000000" points="149,-.5 149,-19.5 276,-19.5 276,-.5 149,-.5"/>
<text text-anchor="middle" x="212.5" y="-7.5" font-family="Helvetica,sans-Serif" font-size="10.00" fill="#000000">IDADlsSetBandJacFnBS</text>
</a>
</g>
</g>
<!-- Node36&#45;&gt;Node39 -->
<g id="edge3" class="edge">
<title>Node36&#45;&gt;Node39</title>
<path fill="none" stroke="#191970" d="M105.6317,-36.032C127.4927,-30.7069 152.8761,-24.5238 173.4177,-19.5201"/>
<polygon fill="#191970" stroke="#191970" points="104.7529,-32.6437 95.8654,-38.411 106.4097,-39.4448 104.7529,-32.6437"/>
</g>
</g>
</svg>
