<?xml version="1.0" encoding="UTF-8" standalone="no"?>
<!DOCTYPE svg PUBLIC "-//W3C//DTD SVG 1.1//EN"
 "http://www.w3.org/Graphics/SVG/1.1/DTD/svg11.dtd">
<!-- Generated by graphviz version 2.40.1 (20161225.0304)
 -->
<!-- Title: ML_CSR_MSRdata_Destroy_StructOnly Pages: 1 -->
<svg width="661pt" height="39pt"
 viewBox="0.00 0.00 661.00 39.00" xmlns="http://www.w3.org/2000/svg" xmlns:xlink="http://www.w3.org/1999/xlink">
<g id="graph0" class="graph" transform="scale(1 1) rotate(0) translate(4 35)">
<title>ML_CSR_MSRdata_Destroy_StructOnly</title>
<polygon fill="#ffffff" stroke="transparent" points="-4,4 -4,-35 657,-35 657,4 -4,4"/>
<!-- Node522 -->
<g id="node1" class="node">
<title>Node522</title>
<polygon fill="#bfbfbf" stroke="#000000" points="0,-.5 0,-30.5 143,-30.5 143,-.5 0,-.5"/>
<text text-anchor="start" x="8" y="-18.5" font-family="Helvetica,sans-Serif" font-size="10.00" fill="#000000">ML_CSR_MSRdata_Destroy</text>
<text text-anchor="middle" x="71.5" y="-7.5" font-family="Helvetica,sans-Serif" font-size="10.00" fill="#000000">_StructOnly</text>
</g>
<!-- Node523 -->
<g id="node2" class="node">
<title>Node523</title>
<g id="a_node2"><a xlink:href="../../dd/d39/ml__aztec__utils_8h.html#aa370a08f16ab01efca2525e61145b61d" target="_top" xlink:title="AZ_Tmat_transform2ml">
<polygon fill="#ffffff" stroke="#000000" points="179,-6 179,-25 298,-25 298,-6 179,-6"/>
<text text-anchor="middle" x="238.5" y="-13" font-family="Helvetica,sans-Serif" font-size="10.00" fill="#000000">AZ_Tmat_transform2ml</text>
</a>
</g>
</g>
<!-- Node522&#45;&gt;Node523 -->
<g id="edge1" class="edge">
<title>Node522&#45;&gt;Node523</title>
<path fill="none" stroke="#191970" d="M153.3417,-15.5C161.9301,-15.5 170.5418,-15.5 178.8134,-15.5"/>
<polygon fill="#191970" stroke="#191970" points="153.2922,-12.0001 143.2922,-15.5 153.2922,-19.0001 153.2922,-12.0001"/>
</g>
<!-- Node524 -->
<g id="node3" class="node">
<title>Node524</title>
<g id="a_node3"><a xlink:href="../../d3/d42/ml__maxwell_8cpp.html#a81697cfcb0d76ef147eec857e81bad1c" target="_top" xlink:title="user_T_build">
<polygon fill="#ffffff" stroke="#000000" points="334,-6 334,-25 406,-25 406,-6 334,-6"/>
<text text-anchor="middle" x="370" y="-13" font-family="Helvetica,sans-Serif" font-size="10.00" fill="#000000">user_T_build</text>
</a>
</g>
</g>
<!-- Node523&#45;&gt;Node524 -->
<g id="edge2" class="edge">
<title>Node523&#45;&gt;Node524</title>
<path fill="none" stroke="#191970" d="M308.1573,-15.5C317.0654,-15.5 325.8776,-15.5 333.9366,-15.5"/>
<polygon fill="#191970" stroke="#191970" points="308.094,-12.0001 298.094,-15.5 308.0939,-19.0001 308.094,-12.0001"/>
</g>
<!-- Node525 -->
<g id="node4" class="node">
<title>Node525</title>
<g id="a_node4"><a xlink:href="../../d3/d42/ml__maxwell_8cpp.html#a0ddf1224851353fc92bfbff6f499fa97" target="_top" xlink:title="main">
<polygon fill="#ffffff" stroke="#000000" points="442,-6 442,-25 480,-25 480,-6 442,-6"/>
<text text-anchor="middle" x="461" y="-13" font-family="Helvetica,sans-Serif" font-size="10.00" fill="#000000">main</text>
</a>
</g>
</g>
<!-- Node524&#45;&gt;Node525 -->
<g id="edge3" class="edge">
<title>Node524&#45;&gt;Node525</title>
<path fill="none" stroke="#191970" d="M416.3614,-15.5C425.3875,-15.5 434.3685,-15.5 441.8827,-15.5"/>
<polygon fill="#191970" stroke="#191970" points="416.2271,-12.0001 406.2271,-15.5 416.227,-19.0001 416.2271,-12.0001"/>
</g>
<!-- Node526 -->
<g id="node5" class="node">
<title>Node526</title>
<g id="a_node5"><a xlink:href="../../d3/d42/ml__maxwell_8cpp.html#ac4305a12d695374ceef5d602723a375d" target="_top" xlink:title="ML_Build_EdgeCoordinates">
<polygon fill="#ffffff" stroke="#000000" points="516,-6 516,-25 653,-25 653,-6 516,-6"/>
<text text-anchor="middle" x="584.5" y="-13" font-family="Helvetica,sans-Serif" font-size="10.00" fill="#000000">ML_Build_EdgeCoordinates</text>
</a>
</g>
</g>
<!-- Node525&#45;&gt;Node526 -->
<g id="edge4" class="edge">
<title>Node525&#45;&gt;Node526</title>
<path fill="none" stroke="#191970" d="M490.0514,-9.6735C497.9089,-9.1828 506.7591,-8.8876 515.8108,-8.788"/>
<polygon fill="#191970" stroke="#191970" points="489.7201,-6.1887 480.0262,-10.464 490.2704,-13.167 489.7201,-6.1887"/>
</g>
<!-- Node526&#45;&gt;Node525 -->
<g id="edge5" class="edge">
<title>Node526&#45;&gt;Node525</title>
<path fill="none" stroke="#191970" d="M505.7544,-22.0174C496.2659,-21.7516 487.358,-21.2578 480.0262,-20.536"/>
<polygon fill="#191970" stroke="#191970" points="505.745,-25.5178 515.8108,-22.212 505.8804,-18.5191 505.745,-25.5178"/>
</g>
</g>
</svg>
