<?xml version="1.0" encoding="UTF-8" standalone="no"?>
<!DOCTYPE svg PUBLIC "-//W3C//DTD SVG 1.1//EN"
 "http://www.w3.org/Graphics/SVG/1.1/DTD/svg11.dtd">
<!-- Generated by graphviz version 2.40.1 (20161225.0304)
 -->
<!-- Title: zmq::radio_t::xhas_out Pages: 1 -->
<svg width="725pt" height="586pt"
 viewBox="0.00 0.00 725.00 585.50" xmlns="http://www.w3.org/2000/svg" xmlns:xlink="http://www.w3.org/1999/xlink">
<g id="graph0" class="graph" transform="scale(1 1) rotate(0) translate(4 581.5)">
<title>zmq::radio_t::xhas_out</title>
<polygon fill="#ffffff" stroke="transparent" points="-4,4 -4,-581.5 721,-581.5 721,4 -4,4"/>
<!-- Node26 -->
<g id="node1" class="node">
<title>Node26</title>
<polygon fill="#bfbfbf" stroke="#000000" points="0,-366.5 0,-385.5 116,-385.5 116,-366.5 0,-366.5"/>
<text text-anchor="middle" x="58" y="-373.5" font-family="Helvetica,sans-Serif" font-size="10.00" fill="#000000">zmq::radio_t::xhas_out</text>
</g>
<!-- Node27 -->
<g id="node2" class="node">
<title>Node27</title>
<g id="a_node2"><a xlink:href="../../dc/dad/classzmq_1_1dist__t.html#a010653ad2fc57e8372f2da9c59269d78" target="_top" xlink:title="zmq::dist_t::has_out">
<polygon fill="#ffffff" stroke="#000000" points="152,-366.5 152,-385.5 258,-385.5 258,-366.5 152,-366.5"/>
<text text-anchor="middle" x="205" y="-373.5" font-family="Helvetica,sans-Serif" font-size="10.00" fill="#000000">zmq::dist_t::has_out</text>
</a>
</g>
</g>
<!-- Node26&#45;&gt;Node27 -->
<g id="edge1" class="edge">
<title>Node26&#45;&gt;Node27</title>
<path fill="none" stroke="#191970" d="M116.0983,-376C124.4282,-376 133.0344,-376 141.4626,-376"/>
<polygon fill="#191970" stroke="#191970" points="141.6243,-379.5001 151.6243,-376 141.6243,-372.5001 141.6243,-379.5001"/>
</g>
<!-- Node28 -->
<g id="node3" class="node">
<title>Node28</title>
<g id="a_node3"><a xlink:href="../../db/d21/classzmq_1_1pipe__t.html#a4b11ee7b4a4b0c4e2225e0605152d6d6" target="_top" xlink:title="zmq::pipe_t::write">
<polygon fill="#ffffff" stroke="#000000" points="297,-486.5 297,-505.5 392,-505.5 392,-486.5 297,-486.5"/>
<text text-anchor="middle" x="344.5" y="-493.5" font-family="Helvetica,sans-Serif" font-size="10.00" fill="#000000">zmq::pipe_t::write</text>
</a>
</g>
</g>
<!-- Node27&#45;&gt;Node28 -->
<g id="edge2" class="edge">
<title>Node27&#45;&gt;Node28</title>
<path fill="none" stroke="#191970" d="M216.4159,-385.8201C240.3429,-406.4025 295.9643,-454.2489 325.4154,-479.5831"/>
<polygon fill="#191970" stroke="#191970" points="323.4527,-482.5116 333.3163,-486.3796 328.0177,-477.2049 323.4527,-482.5116"/>
</g>
<!-- Node33 -->
<g id="node8" class="node">
<title>Node33</title>
<g id="a_node8"><a xlink:href="../../d6/d2b/classzmq_1_1array__t.html#ac6ad559495a404dfb85eba1db79d7bf3" target="_top" xlink:title="zmq::array_t::swap">
<polygon fill="#ffffff" stroke="#000000" points="294,-385.5 294,-404.5 395,-404.5 395,-385.5 294,-385.5"/>
<text text-anchor="middle" x="344.5" y="-392.5" font-family="Helvetica,sans-Serif" font-size="10.00" fill="#000000">zmq::array_t::swap</text>
</a>
</g>
</g>
<!-- Node27&#45;&gt;Node33 -->
<g id="edge7" class="edge">
<title>Node27&#45;&gt;Node33</title>
<path fill="none" stroke="#191970" d="M258.1369,-383.2373C266.5489,-384.383 275.3031,-385.5753 283.8706,-386.7422"/>
<polygon fill="#191970" stroke="#191970" points="283.4297,-390.2144 293.8105,-388.0961 284.3744,-383.2784 283.4297,-390.2144"/>
</g>
<!-- Node34 -->
<g id="node9" class="node">
<title>Node34</title>
<g id="a_node9"><a xlink:href="../../d6/d2b/classzmq_1_1array__t.html#a63298730f9b85c667f5739da7afef7fe" target="_top" xlink:title="zmq::array_t::index">
<polygon fill="#ffffff" stroke="#000000" points="294,-347.5 294,-366.5 395,-366.5 395,-347.5 294,-347.5"/>
<text text-anchor="middle" x="344.5" y="-354.5" font-family="Helvetica,sans-Serif" font-size="10.00" fill="#000000">zmq::array_t::index</text>
</a>
</g>
</g>
<!-- Node27&#45;&gt;Node34 -->
<g id="edge8" class="edge">
<title>Node27&#45;&gt;Node34</title>
<path fill="none" stroke="#191970" d="M258.1369,-368.7627C266.5489,-367.617 275.3031,-366.4247 283.8706,-365.2578"/>
<polygon fill="#191970" stroke="#191970" points="284.3744,-368.7216 293.8105,-363.9039 283.4297,-361.7856 284.3744,-368.7216"/>
</g>
<!-- Node35 -->
<g id="node10" class="node">
<title>Node35</title>
<g id="a_node10"><a xlink:href="../../db/d21/classzmq_1_1pipe__t.html#ad0d0fc83b91e93b690673757a830aa52" target="_top" xlink:title="zmq::pipe_t::flush">
<polygon fill="#ffffff" stroke="#000000" points="297,-224.5 297,-243.5 392,-243.5 392,-224.5 297,-224.5"/>
<text text-anchor="middle" x="344.5" y="-231.5" font-family="Helvetica,sans-Serif" font-size="10.00" fill="#000000">zmq::pipe_t::flush</text>
</a>
</g>
</g>
<!-- Node27&#45;&gt;Node35 -->
<g id="edge9" class="edge">
<title>Node27&#45;&gt;Node35</title>
<path fill="none" stroke="#191970" d="M214.5884,-366.2398C237.9823,-342.4266 298.2228,-281.1065 327.7212,-251.0795"/>
<polygon fill="#191970" stroke="#191970" points="330.3332,-253.415 334.8445,-243.8285 325.3397,-248.5093 330.3332,-253.415"/>
</g>
<!-- Node29 -->
<g id="node4" class="node">
<title>Node29</title>
<g id="a_node4"><a xlink:href="../../db/d21/classzmq_1_1pipe__t.html#a243a1972a16ee9d057e5569832fadef7" target="_top" xlink:title="zmq::pipe_t::check\l_write">
<polygon fill="#ffffff" stroke="#000000" points="443,-547 443,-577 543,-577 543,-547 443,-547"/>
<text text-anchor="start" x="451" y="-565" font-family="Helvetica,sans-Serif" font-size="10.00" fill="#000000">zmq::pipe_t::check</text>
<text text-anchor="middle" x="493" y="-554" font-family="Helvetica,sans-Serif" font-size="10.00" fill="#000000">_write</text>
</a>
</g>
</g>
<!-- Node28&#45;&gt;Node29 -->
<g id="edge3" class="edge">
<title>Node28&#45;&gt;Node29</title>
<path fill="none" stroke="#191970" d="M363.9299,-505.6149C381.362,-514.1439 407.7105,-526.7958 431,-537 435.4814,-538.9635 440.1681,-540.9583 444.871,-542.9207"/>
<polygon fill="#191970" stroke="#191970" points="443.9072,-546.3091 454.4865,-546.8833 446.5744,-539.8371 443.9072,-546.3091"/>
</g>
<!-- Node31 -->
<g id="node6" class="node">
<title>Node31</title>
<g id="a_node6"><a xlink:href="../../de/d92/classzmq_1_1msg__t.html#a305aa20c91564ee89154361b64e19e85" target="_top" xlink:title="zmq::msg_t::is_identity">
<polygon fill="#ffffff" stroke="#000000" points="433.5,-508.5 433.5,-527.5 552.5,-527.5 552.5,-508.5 433.5,-508.5"/>
<text text-anchor="middle" x="493" y="-515.5" font-family="Helvetica,sans-Serif" font-size="10.00" fill="#000000">zmq::msg_t::is_identity</text>
</a>
</g>
</g>
<!-- Node28&#45;&gt;Node31 -->
<g id="edge5" class="edge">
<title>Node28&#45;&gt;Node31</title>
<path fill="none" stroke="#191970" d="M392.3037,-503.082C402.1987,-504.548 412.8145,-506.1207 423.3084,-507.6753"/>
<polygon fill="#191970" stroke="#191970" points="422.8998,-511.1529 433.3047,-509.1563 423.9257,-504.2285 422.8998,-511.1529"/>
</g>
<!-- Node32 -->
<g id="node7" class="node">
<title>Node32</title>
<g id="a_node7"><a xlink:href="../../dc/d65/classzmq_1_1ypipe__base__t.html#a9d0a1eb8b045c0a1edac944d9bc1f977" target="_top" xlink:title="zmq::ypipe_base_t::\lwrite">
<polygon fill="#ffffff" stroke="#000000" points="440.5,-459 440.5,-489 545.5,-489 545.5,-459 440.5,-459"/>
<text text-anchor="start" x="448.5" y="-477" font-family="Helvetica,sans-Serif" font-size="10.00" fill="#000000">zmq::ypipe_base_t::</text>
<text text-anchor="middle" x="493" y="-466" font-family="Helvetica,sans-Serif" font-size="10.00" fill="#000000">write</text>
</a>
</g>
</g>
<!-- Node28&#45;&gt;Node32 -->
<g id="edge6" class="edge">
<title>Node28&#45;&gt;Node32</title>
<path fill="none" stroke="#191970" d="M392.3037,-488.918C404.4131,-487.124 417.6021,-485.1701 430.326,-483.285"/>
<polygon fill="#191970" stroke="#191970" points="431.0221,-486.7202 440.4012,-481.7924 429.9962,-479.7958 431.0221,-486.7202"/>
</g>
<!-- Node30 -->
<g id="node5" class="node">
<title>Node30</title>
<g id="a_node5"><a xlink:href="../../db/d21/classzmq_1_1pipe__t.html#ab4aed89a14bcdcf35db8b2b8baa550cb" target="_top" xlink:title="zmq::pipe_t::check_hwm">
<polygon fill="#ffffff" stroke="#000000" points="591,-552.5 591,-571.5 717,-571.5 717,-552.5 591,-552.5"/>
<text text-anchor="middle" x="654" y="-559.5" font-family="Helvetica,sans-Serif" font-size="10.00" fill="#000000">zmq::pipe_t::check_hwm</text>
</a>
</g>
</g>
<!-- Node29&#45;&gt;Node30 -->
<g id="edge4" class="edge">
<title>Node29&#45;&gt;Node30</title>
<path fill="none" stroke="#191970" d="M543.0589,-562C555.0042,-562 567.9982,-562 580.7478,-562"/>
<polygon fill="#191970" stroke="#191970" points="580.8956,-565.5001 590.8956,-562 580.8955,-558.5001 580.8956,-565.5001"/>
</g>
<!-- Node36 -->
<g id="node11" class="node">
<title>Node36</title>
<g id="a_node11"><a xlink:href="../../dc/d65/classzmq_1_1ypipe__base__t.html#a2e1e2b854b1e75858942c9b8417c4bd7" target="_top" xlink:title="zmq::ypipe_base_t::\lflush">
<polygon fill="#ffffff" stroke="#000000" points="440.5,-410 440.5,-440 545.5,-440 545.5,-410 440.5,-410"/>
<text text-anchor="start" x="448.5" y="-428" font-family="Helvetica,sans-Serif" font-size="10.00" fill="#000000">zmq::ypipe_base_t::</text>
<text text-anchor="middle" x="493" y="-417" font-family="Helvetica,sans-Serif" font-size="10.00" fill="#000000">flush</text>
</a>
</g>
</g>
<!-- Node35&#45;&gt;Node36 -->
<g id="edge10" class="edge">
<title>Node35&#45;&gt;Node36</title>
<path fill="none" stroke="#191970" d="M349.2141,-243.5538C366.3074,-278.1348 424.3764,-395.0592 431,-401 432.2996,-402.1656 433.6621,-403.2773 435.0754,-404.3373"/>
<polygon fill="#191970" stroke="#191970" points="433.3417,-407.3839 443.6433,-409.8597 437.1341,-401.5002 433.3417,-407.3839"/>
</g>
<!-- Node37 -->
<g id="node12" class="node">
<title>Node37</title>
<g id="a_node12"><a xlink:href="../../df/db7/classzmq_1_1object__t.html#ae3dd978f4236e3205f529a9e2aab9ff7" target="_top" xlink:title="zmq::object_t::send\l_activate_read">
<polygon fill="#ffffff" stroke="#000000" points="441.5,-361 441.5,-391 544.5,-391 544.5,-361 441.5,-361"/>
<text text-anchor="start" x="449.5" y="-379" font-family="Helvetica,sans-Serif" font-size="10.00" fill="#000000">zmq::object_t::send</text>
<text text-anchor="middle" x="493" y="-368" font-family="Helvetica,sans-Serif" font-size="10.00" fill="#000000">_activate_read</text>
</a>
</g>
</g>
<!-- Node35&#45;&gt;Node37 -->
<g id="edge11" class="edge">
<title>Node35&#45;&gt;Node37</title>
<path fill="none" stroke="#191970" d="M349.1504,-243.6997C360.2612,-265.914 390.4726,-320.9483 431,-352 432.7866,-353.3689 434.6608,-354.6685 436.5988,-355.9014"/>
<polygon fill="#191970" stroke="#191970" points="435.0026,-359.0195 445.4314,-360.8881 438.4441,-352.9239 435.0026,-359.0195"/>
</g>
<!-- Node38 -->
<g id="node13" class="node">
<title>Node38</title>
<g id="a_node13"><a xlink:href="../../d0/db6/structzmq_1_1i__pipe__events.html#a43c43a330b2a6eec4e2d9177f6bcceed" target="_top" xlink:title="zmq::i_pipe_events\l::read_activated">
<polygon fill="#ffffff" stroke="#000000" points="442.5,-312 442.5,-342 543.5,-342 543.5,-312 442.5,-312"/>
<text text-anchor="start" x="450.5" y="-330" font-family="Helvetica,sans-Serif" font-size="10.00" fill="#000000">zmq::i_pipe_events</text>
<text text-anchor="middle" x="493" y="-319" font-family="Helvetica,sans-Serif" font-size="10.00" fill="#000000">::read_activated</text>
</a>
</g>
</g>
<!-- Node35&#45;&gt;Node38 -->
<g id="edge12" class="edge">
<title>Node35&#45;&gt;Node38</title>
<path fill="none" stroke="#191970" d="M354.4048,-243.5984C369.7528,-258.0587 400.6824,-285.5877 431,-303 433.8525,-304.6383 436.8384,-306.2093 439.8924,-307.7076"/>
<polygon fill="#191970" stroke="#191970" points="438.6462,-310.9867 449.1944,-311.9794 441.5676,-304.6254 438.6462,-310.9867"/>
</g>
<!-- Node39 -->
<g id="node14" class="node">
<title>Node39</title>
<g id="a_node14"><a xlink:href="../../d0/db6/structzmq_1_1i__pipe__events.html#ac2038421defe6d1f03c792cf27849403" target="_top" xlink:title="zmq::i_pipe_events\l::write_activated">
<polygon fill="#ffffff" stroke="#000000" points="442.5,-263 442.5,-293 543.5,-293 543.5,-263 442.5,-263"/>
<text text-anchor="start" x="450.5" y="-281" font-family="Helvetica,sans-Serif" font-size="10.00" fill="#000000">zmq::i_pipe_events</text>
<text text-anchor="middle" x="493" y="-270" font-family="Helvetica,sans-Serif" font-size="10.00" fill="#000000">::write_activated</text>
</a>
</g>
</g>
<!-- Node35&#45;&gt;Node39 -->
<g id="edge13" class="edge">
<title>Node35&#45;&gt;Node39</title>
<path fill="none" stroke="#191970" d="M376.7223,-243.5473C393.1414,-248.4123 413.6489,-254.4886 432.8502,-260.1778"/>
<polygon fill="#191970" stroke="#191970" points="431.8622,-263.5355 442.4446,-263.0206 433.8509,-256.8239 431.8622,-263.5355"/>
</g>
<!-- Node40 -->
<g id="node15" class="node">
<title>Node40</title>
<g id="a_node15"><a xlink:href="../../dc/d65/classzmq_1_1ypipe__base__t.html#ab8e91c5672bf36161f0a974cf356d290" target="_top" xlink:title="zmq::ypipe_base_t::read">
<polygon fill="#ffffff" stroke="#000000" points="431,-224.5 431,-243.5 555,-243.5 555,-224.5 431,-224.5"/>
<text text-anchor="middle" x="493" y="-231.5" font-family="Helvetica,sans-Serif" font-size="10.00" fill="#000000">zmq::ypipe_base_t::read</text>
</a>
</g>
</g>
<!-- Node35&#45;&gt;Node40 -->
<g id="edge14" class="edge">
<title>Node35&#45;&gt;Node40</title>
<path fill="none" stroke="#191970" d="M392.3037,-234C401.4284,-234 411.1659,-234 420.8556,-234"/>
<polygon fill="#191970" stroke="#191970" points="420.9083,-237.5001 430.9083,-234 420.9082,-230.5001 420.9083,-237.5001"/>
</g>
<!-- Node41 -->
<g id="node16" class="node">
<title>Node41</title>
<g id="a_node16"><a xlink:href="../../de/d92/classzmq_1_1msg__t.html#af371987bc4315f04738d2ca7a863327d" target="_top" xlink:title="zmq::msg_t::close">
<polygon fill="#ffffff" stroke="#000000" points="444,-186.5 444,-205.5 542,-205.5 542,-186.5 444,-186.5"/>
<text text-anchor="middle" x="493" y="-193.5" font-family="Helvetica,sans-Serif" font-size="10.00" fill="#000000">zmq::msg_t::close</text>
</a>
</g>
</g>
<!-- Node35&#45;&gt;Node41 -->
<g id="edge15" class="edge">
<title>Node35&#45;&gt;Node41</title>
<path fill="none" stroke="#191970" d="M381.9728,-224.411C401.3925,-219.4417 425.3025,-213.3233 445.9542,-208.0387"/>
<polygon fill="#191970" stroke="#191970" points="446.9765,-211.3899 455.7966,-205.5201 445.2411,-204.6084 446.9765,-211.3899"/>
</g>
<!-- Node45 -->
<g id="node20" class="node">
<title>Node45</title>
<g id="a_node20"><a xlink:href="../../d0/db6/structzmq_1_1i__pipe__events.html#a97b4c5a0c03fd02040673793fc452b52" target="_top" xlink:title="zmq::i_pipe_events\l::hiccuped">
<polygon fill="#ffffff" stroke="#000000" points="442.5,-137 442.5,-167 543.5,-167 543.5,-137 442.5,-137"/>
<text text-anchor="start" x="450.5" y="-155" font-family="Helvetica,sans-Serif" font-size="10.00" fill="#000000">zmq::i_pipe_events</text>
<text text-anchor="middle" x="493" y="-144" font-family="Helvetica,sans-Serif" font-size="10.00" fill="#000000">::hiccuped</text>
</a>
</g>
</g>
<!-- Node35&#45;&gt;Node45 -->
<g id="edge19" class="edge">
<title>Node35&#45;&gt;Node45</title>
<path fill="none" stroke="#191970" d="M357.1925,-224.4668C373.6296,-212.4003 403.4452,-191.4494 431,-177 434.7581,-175.0293 438.7074,-173.1116 442.7166,-171.2719"/>
<polygon fill="#191970" stroke="#191970" points="444.3765,-174.3654 452.1185,-167.1327 441.5559,-167.9588 444.3765,-174.3654"/>
</g>
<!-- Node46 -->
<g id="node21" class="node">
<title>Node46</title>
<g id="a_node21"><a xlink:href="../../df/db7/classzmq_1_1object__t.html#aa65ee68ee74bf20ad2bb8ee537481a53" target="_top" xlink:title="zmq::object_t::send\l_pipe_term_ack">
<polygon fill="#ffffff" stroke="#000000" points="441.5,-88 441.5,-118 544.5,-118 544.5,-88 441.5,-88"/>
<text text-anchor="start" x="449.5" y="-106" font-family="Helvetica,sans-Serif" font-size="10.00" fill="#000000">zmq::object_t::send</text>
<text text-anchor="middle" x="493" y="-95" font-family="Helvetica,sans-Serif" font-size="10.00" fill="#000000">_pipe_term_ack</text>
</a>
</g>
</g>
<!-- Node35&#45;&gt;Node46 -->
<g id="edge20" class="edge">
<title>Node35&#45;&gt;Node46</title>
<path fill="none" stroke="#191970" d="M349.9771,-224.4372C362.0965,-204.0476 393.1324,-155.8903 431,-128 433.4895,-126.1664 436.1324,-124.4437 438.8696,-122.8286"/>
<polygon fill="#191970" stroke="#191970" points="440.6847,-125.8273 447.8611,-118.0331 437.3905,-119.6509 440.6847,-125.8273"/>
</g>
<!-- Node47 -->
<g id="node22" class="node">
<title>Node47</title>
<g id="a_node22"><a xlink:href="../../d0/db6/structzmq_1_1i__pipe__events.html#a5b4062f1d90e49f25cd68fdc249c69df" target="_top" xlink:title="zmq::i_pipe_events\l::pipe_terminated">
<polygon fill="#ffffff" stroke="#000000" points="442.5,-39 442.5,-69 543.5,-69 543.5,-39 442.5,-39"/>
<text text-anchor="start" x="450.5" y="-57" font-family="Helvetica,sans-Serif" font-size="10.00" fill="#000000">zmq::i_pipe_events</text>
<text text-anchor="middle" x="493" y="-46" font-family="Helvetica,sans-Serif" font-size="10.00" fill="#000000">::pipe_terminated</text>
</a>
</g>
</g>
<!-- Node35&#45;&gt;Node47 -->
<g id="edge21" class="edge">
<title>Node35&#45;&gt;Node47</title>
<path fill="none" stroke="#191970" d="M347.4115,-224.1663C355.8657,-197.2195 382.9178,-121.3873 431,-79 432.9044,-77.3211 434.9361,-75.7466 437.0594,-74.2709"/>
<polygon fill="#191970" stroke="#191970" points="438.9043,-77.2454 445.6275,-69.057 435.2654,-71.2655 438.9043,-77.2454"/>
</g>
<!-- Node48 -->
<g id="node23" class="node">
<title>Node48</title>
<g id="a_node23"><a xlink:href="../../db/d21/classzmq_1_1pipe__t.html#a333947b9c402213c1931990cff39554a" target="_top" xlink:title="zmq::pipe_t::set_hwms">
<polygon fill="#ffffff" stroke="#000000" points="433.5,-.5 433.5,-19.5 552.5,-19.5 552.5,-.5 433.5,-.5"/>
<text text-anchor="middle" x="493" y="-7.5" font-family="Helvetica,sans-Serif" font-size="10.00" fill="#000000">zmq::pipe_t::set_hwms</text>
</a>
</g>
</g>
<!-- Node35&#45;&gt;Node48 -->
<g id="edge22" class="edge">
<title>Node35&#45;&gt;Node48</title>
<path fill="none" stroke="#191970" d="M345.7021,-224.1925C350.2436,-191.4225 369.3581,-84.659 431,-29 432.7312,-27.4368 434.5883,-26.0022 436.5396,-24.6856"/>
<polygon fill="#191970" stroke="#191970" points="438.5686,-27.5617 445.5995,-19.636 435.1606,-21.4473 438.5686,-27.5617"/>
</g>
<!-- Node42 -->
<g id="node17" class="node">
<title>Node42</title>
<g id="a_node17"><a xlink:href="../../de/d92/classzmq_1_1msg__t.html#ae0d38ffd535506c59302218518a35dfd" target="_top" xlink:title="zmq::msg_t::check">
<polygon fill="#ffffff" stroke="#000000" points="603.5,-224.5 603.5,-243.5 704.5,-243.5 704.5,-224.5 603.5,-224.5"/>
<text text-anchor="middle" x="654" y="-231.5" font-family="Helvetica,sans-Serif" font-size="10.00" fill="#000000">zmq::msg_t::check</text>
</a>
</g>
</g>
<!-- Node41&#45;&gt;Node42 -->
<g id="edge16" class="edge">
<title>Node41&#45;&gt;Node42</title>
<path fill="none" stroke="#191970" d="M533.6271,-205.589C554.9685,-210.6261 581.3119,-216.8438 603.9081,-222.1771"/>
<polygon fill="#191970" stroke="#191970" points="603.1284,-225.5891 613.665,-224.4799 604.7365,-218.7763 603.1284,-225.5891"/>
</g>
<!-- Node43 -->
<g id="node18" class="node">
<title>Node43</title>
<g id="a_node18"><a xlink:href="../../dc/ddc/3rd_party_2flex-2_85_835_2parse_8c.html#af07d89f5ceaea0c7c8252cc41fd75f37" target="_top" xlink:title="free">
<polygon fill="#ffffff" stroke="#000000" points="637.5,-186.5 637.5,-205.5 670.5,-205.5 670.5,-186.5 637.5,-186.5"/>
<text text-anchor="middle" x="654" y="-193.5" font-family="Helvetica,sans-Serif" font-size="10.00" fill="#000000">free</text>
</a>
</g>
</g>
<!-- Node41&#45;&gt;Node43 -->
<g id="edge17" class="edge">
<title>Node41&#45;&gt;Node43</title>
<path fill="none" stroke="#191970" d="M542.1801,-196C570.1213,-196 604.0265,-196 627.1259,-196"/>
<polygon fill="#191970" stroke="#191970" points="627.2211,-199.5001 637.2211,-196 627.221,-192.5001 627.2211,-199.5001"/>
</g>
<!-- Node44 -->
<g id="node19" class="node">
<title>Node44</title>
<g id="a_node19"><a xlink:href="../../de/d92/classzmq_1_1msg__t.html#a77eefc5e1223fe5333cbcb16e4a4d0e3" target="_top" xlink:title="zmq::msg_t::is_zcmsg">
<polygon fill="#ffffff" stroke="#000000" points="596,-148.5 596,-167.5 712,-167.5 712,-148.5 596,-148.5"/>
<text text-anchor="middle" x="654" y="-155.5" font-family="Helvetica,sans-Serif" font-size="10.00" fill="#000000">zmq::msg_t::is_zcmsg</text>
</a>
</g>
</g>
<!-- Node41&#45;&gt;Node44 -->
<g id="edge18" class="edge">
<title>Node41&#45;&gt;Node44</title>
<path fill="none" stroke="#191970" d="M533.6271,-186.411C554.9685,-181.3739 581.3119,-175.1562 603.9081,-169.8229"/>
<polygon fill="#191970" stroke="#191970" points="604.7365,-173.2237 613.665,-167.5201 603.1284,-166.4109 604.7365,-173.2237"/>
</g>
<!-- Node49 -->
<g id="node24" class="node">
<title>Node49</title>
<g id="a_node24"><a xlink:href="../../d4/d55/gun_8c.html#a43f04018566627e305440b8734deb9db" target="_top" xlink:title="in">
<polygon fill="#ffffff" stroke="#000000" points="639.5,-.5 639.5,-19.5 668.5,-19.5 668.5,-.5 639.5,-.5"/>
<text text-anchor="middle" x="654" y="-7.5" font-family="Helvetica,sans-Serif" font-size="10.00" fill="#000000">in</text>
</a>
</g>
</g>
<!-- Node48&#45;&gt;Node49 -->
<g id="edge23" class="edge">
<title>Node48&#45;&gt;Node49</title>
<path fill="none" stroke="#191970" d="M552.9505,-10C579.3524,-10 608.915,-10 629.2088,-10"/>
<polygon fill="#191970" stroke="#191970" points="629.4507,-13.5001 639.4506,-10 629.4506,-6.5001 629.4507,-13.5001"/>
</g>
</g>
</svg>
