<?xml version="1.0" encoding="UTF-8" standalone="no"?>
<!DOCTYPE svg PUBLIC "-//W3C//DTD SVG 1.1//EN"
 "http://www.w3.org/Graphics/SVG/1.1/DTD/svg11.dtd">
<!-- Generated by graphviz version 2.40.1 (20161225.0304)
 -->
<!-- Title: fmi2_xml_convert_to_display_unit Pages: 1 -->
<svg width="262pt" height="88pt"
 viewBox="0.00 0.00 262.00 88.00" xmlns="http://www.w3.org/2000/svg" xmlns:xlink="http://www.w3.org/1999/xlink">
<g id="graph0" class="graph" transform="scale(1 1) rotate(0) translate(4 84)">
<title>fmi2_xml_convert_to_display_unit</title>
<polygon fill="#ffffff" stroke="transparent" points="-4,4 -4,-84 258,-84 258,4 -4,4"/>
<!-- Node5 -->
<g id="node1" class="node">
<title>Node5</title>
<polygon fill="#bfbfbf" stroke="#000000" points="0,-24.5 0,-54.5 107,-54.5 107,-24.5 0,-24.5"/>
<text text-anchor="start" x="8" y="-42.5" font-family="Helvetica,sans-Serif" font-size="10.00" fill="#000000">fmi2_xml_convert_to</text>
<text text-anchor="middle" x="53.5" y="-31.5" font-family="Helvetica,sans-Serif" font-size="10.00" fill="#000000">_display_unit</text>
</g>
<!-- Node6 -->
<g id="node2" class="node">
<title>Node6</title>
<g id="a_node2"><a xlink:href="../../d2/dbc/group__fmi2__xml__units.html#ga03376e7dfbaea49616db639a2d7b81ed" target="_top" xlink:title="fmi2_xml_get_display\l_unit_factor">
<polygon fill="#ffffff" stroke="#000000" points="143,-49.5 143,-79.5 254,-79.5 254,-49.5 143,-49.5"/>
<text text-anchor="start" x="151" y="-67.5" font-family="Helvetica,sans-Serif" font-size="10.00" fill="#000000">fmi2_xml_get_display</text>
<text text-anchor="middle" x="198.5" y="-56.5" font-family="Helvetica,sans-Serif" font-size="10.00" fill="#000000">_unit_factor</text>
</a>
</g>
</g>
<!-- Node5&#45;&gt;Node6 -->
<g id="edge1" class="edge">
<title>Node5&#45;&gt;Node6</title>
<path fill="none" stroke="#191970" d="M107.0807,-48.738C115.4304,-50.1777 124.1402,-51.6793 132.7231,-53.1592"/>
<polygon fill="#191970" stroke="#191970" points="132.2621,-56.6312 142.7114,-54.8813 133.4515,-49.733 132.2621,-56.6312"/>
</g>
<!-- Node7 -->
<g id="node3" class="node">
<title>Node7</title>
<g id="a_node3"><a xlink:href="../../d2/dbc/group__fmi2__xml__units.html#gad750f5de5c55a02385634234ed9f731a" target="_top" xlink:title="fmi2_xml_get_display\l_unit_offset">
<polygon fill="#ffffff" stroke="#000000" points="143,-.5 143,-30.5 254,-30.5 254,-.5 143,-.5"/>
<text text-anchor="start" x="151" y="-18.5" font-family="Helvetica,sans-Serif" font-size="10.00" fill="#000000">fmi2_xml_get_display</text>
<text text-anchor="middle" x="198.5" y="-7.5" font-family="Helvetica,sans-Serif" font-size="10.00" fill="#000000">_unit_offset</text>
</a>
</g>
</g>
<!-- Node5&#45;&gt;Node7 -->
<g id="edge2" class="edge">
<title>Node5&#45;&gt;Node7</title>
<path fill="none" stroke="#191970" d="M107.0807,-30.6315C115.4304,-29.2494 124.1402,-27.8078 132.7231,-26.3872"/>
<polygon fill="#191970" stroke="#191970" points="133.4172,-29.82 142.7114,-24.734 132.2741,-22.914 133.4172,-29.82"/>
</g>
</g>
</svg>
