<?xml version="1.0" encoding="UTF-8" standalone="no"?>
<!DOCTYPE svg PUBLIC "-//W3C//DTD SVG 1.1//EN"
 "http://www.w3.org/Graphics/SVG/1.1/DTD/svg11.dtd">
<!-- Generated by graphviz version 2.40.1 (20161225.0304)
 -->
<!-- Title: LU6SOL Pages: 1 -->
<svg width="728pt" height="256pt"
 viewBox="0.00 0.00 728.00 256.00" xmlns="http://www.w3.org/2000/svg" xmlns:xlink="http://www.w3.org/1999/xlink">
<g id="graph0" class="graph" transform="scale(1 1) rotate(0) translate(4 252)">
<title>LU6SOL</title>
<polygon fill="#ffffff" stroke="transparent" points="-4,4 -4,-252 724,-252 724,4 -4,4"/>
<!-- Node12 -->
<g id="node1" class="node">
<title>Node12</title>
<polygon fill="#bfbfbf" stroke="#000000" points="0,-95.5 0,-114.5 54,-114.5 54,-95.5 0,-95.5"/>
<text text-anchor="middle" x="27" y="-102.5" font-family="Helvetica,sans-Serif" font-size="10.00" fill="#000000">LU6SOL</text>
</g>
<!-- Node13 -->
<g id="node2" class="node">
<title>Node13</title>
<g id="a_node2"><a xlink:href="../../d2/d9d/lusol_8h.html#aa0ce7ea7bac8e266df87947bf7a3d343" target="_top" xlink:title="LUSOL_ftran">
<polygon fill="#ffffff" stroke="#000000" points="91,-171.5 91,-190.5 165,-190.5 165,-171.5 91,-171.5"/>
<text text-anchor="middle" x="128" y="-178.5" font-family="Helvetica,sans-Serif" font-size="10.00" fill="#000000">LUSOL_ftran</text>
</a>
</g>
</g>
<!-- Node12&#45;&gt;Node13 -->
<g id="edge1" class="edge">
<title>Node12&#45;&gt;Node13</title>
<path fill="none" stroke="#191970" d="M47.8203,-120.6668C68.1299,-135.9493 98.3669,-158.7019 115.3121,-171.4527"/>
<polygon fill="#191970" stroke="#191970" points="49.8867,-117.8415 39.7917,-114.6255 45.6778,-123.4348 49.8867,-117.8415"/>
</g>
<!-- Node17 -->
<g id="node6" class="node">
<title>Node17</title>
<g id="a_node6"><a xlink:href="../../d2/d9d/lusol_8h.html#a2a1289efd937b877ccdcb506370f18de" target="_top" xlink:title="LUSOL_btran">
<polygon fill="#ffffff" stroke="#000000" points="90,-95.5 90,-114.5 166,-114.5 166,-95.5 90,-95.5"/>
<text text-anchor="middle" x="128" y="-102.5" font-family="Helvetica,sans-Serif" font-size="10.00" fill="#000000">LUSOL_btran</text>
</a>
</g>
</g>
<!-- Node12&#45;&gt;Node17 -->
<g id="edge5" class="edge">
<title>Node12&#45;&gt;Node17</title>
<path fill="none" stroke="#191970" d="M64.2773,-105C72.6166,-105 81.4735,-105 89.8477,-105"/>
<polygon fill="#191970" stroke="#191970" points="64.0662,-101.5001 54.0661,-105 64.0661,-108.5001 64.0662,-101.5001"/>
</g>
<!-- Node19 -->
<g id="node8" class="node">
<title>Node19</title>
<g id="a_node8"><a xlink:href="../../df/d35/lusol8a_8c.html#af214367998dfef2e2cbacd1a439bb66a" target="_top" xlink:title="LU8RPC">
<polygon fill="#ffffff" stroke="#000000" points="100,-38.5 100,-57.5 156,-57.5 156,-38.5 100,-38.5"/>
<text text-anchor="middle" x="128" y="-45.5" font-family="Helvetica,sans-Serif" font-size="10.00" fill="#000000">LU8RPC</text>
</a>
</g>
</g>
<!-- Node12&#45;&gt;Node19 -->
<g id="edge8" class="edge">
<title>Node12&#45;&gt;Node19</title>
<path fill="none" stroke="#191970" d="M52.8595,-90.4061C71.1758,-80.0691 95.221,-66.4991 111.1198,-57.5265"/>
<polygon fill="#191970" stroke="#191970" points="51.1219,-87.3677 44.1333,-95.3307 54.5624,-93.4639 51.1219,-87.3677"/>
</g>
<!-- Node14 -->
<g id="node3" class="node">
<title>Node14</title>
<g id="a_node3"><a xlink:href="../../d5/df4/lp___l_u_s_o_l_8c.html#abd68cb379eec06c1092e62b30a317bd4" target="_top" xlink:title="bfp_ftran_normal">
<polygon fill="#ffffff" stroke="#000000" points="217,-228.5 217,-247.5 306,-247.5 306,-228.5 217,-228.5"/>
<text text-anchor="middle" x="261.5" y="-235.5" font-family="Helvetica,sans-Serif" font-size="10.00" fill="#000000">bfp_ftran_normal</text>
</a>
</g>
</g>
<!-- Node13&#45;&gt;Node14 -->
<g id="edge2" class="edge">
<title>Node13&#45;&gt;Node14</title>
<path fill="none" stroke="#191970" d="M153.7022,-195.5287C167.7136,-203.107 185.5152,-212.1902 202,-219 210.3185,-222.4363 219.4975,-225.6417 228.1045,-228.4046"/>
<polygon fill="#191970" stroke="#191970" points="155.1203,-192.3146 144.6703,-190.5691 151.751,-198.4503 155.1203,-192.3146"/>
</g>
<!-- Node15 -->
<g id="node4" class="node">
<title>Node15</title>
<g id="a_node4"><a xlink:href="../../d5/df4/lp___l_u_s_o_l_8c.html#ab98d4b293f5cebdef20b40022526a8a8" target="_top" xlink:title="bfp_ftran_prepare">
<polygon fill="#ffffff" stroke="#000000" points="215.5,-190.5 215.5,-209.5 307.5,-209.5 307.5,-190.5 215.5,-190.5"/>
<text text-anchor="middle" x="261.5" y="-197.5" font-family="Helvetica,sans-Serif" font-size="10.00" fill="#000000">bfp_ftran_prepare</text>
</a>
</g>
</g>
<!-- Node13&#45;&gt;Node15 -->
<g id="edge3" class="edge">
<title>Node13&#45;&gt;Node15</title>
<path fill="none" stroke="#191970" d="M175.3663,-187.7413C188.4006,-189.5963 202.5146,-191.6051 215.4722,-193.4492"/>
<polygon fill="#191970" stroke="#191970" points="175.5806,-184.2366 165.1872,-186.2926 174.5942,-191.1667 175.5806,-184.2366"/>
</g>
<!-- Node16 -->
<g id="node5" class="node">
<title>Node16</title>
<g id="a_node5"><a xlink:href="../../df/d7d/lusolmain_8c.html#ac0bbd83579aa80e65ea53783917b10f9" target="_top" xlink:title="main">
<polygon fill="#ffffff" stroke="#000000" points="394.5,-114.5 394.5,-133.5 432.5,-133.5 432.5,-114.5 394.5,-114.5"/>
<text text-anchor="middle" x="413.5" y="-121.5" font-family="Helvetica,sans-Serif" font-size="10.00" fill="#000000">main</text>
</a>
</g>
</g>
<!-- Node13&#45;&gt;Node16 -->
<g id="edge4" class="edge">
<title>Node13&#45;&gt;Node16</title>
<path fill="none" stroke="#191970" d="M175.2221,-171.5721C238.9725,-158.8444 349.7018,-136.7373 394.1843,-127.8564"/>
<polygon fill="#191970" stroke="#191970" points="174.1526,-168.2165 165.0314,-173.6067 175.5232,-175.081 174.1526,-168.2165"/>
</g>
<!-- Node17&#45;&gt;Node16 -->
<g id="edge7" class="edge">
<title>Node17&#45;&gt;Node16</title>
<path fill="none" stroke="#191970" d="M176.4553,-108.2247C240.4795,-112.4855 350.2904,-119.7934 394.3673,-122.7267"/>
<polygon fill="#191970" stroke="#191970" points="176.4179,-104.7146 166.2076,-107.5427 175.953,-111.6991 176.4179,-104.7146"/>
</g>
<!-- Node18 -->
<g id="node7" class="node">
<title>Node18</title>
<g id="a_node7"><a xlink:href="../../d5/df4/lp___l_u_s_o_l_8c.html#a6447846d7c788cb3d0112924465b02cf" target="_top" xlink:title="bfp_btran_normal">
<polygon fill="#ffffff" stroke="#000000" points="215.5,-76.5 215.5,-95.5 307.5,-95.5 307.5,-76.5 215.5,-76.5"/>
<text text-anchor="middle" x="261.5" y="-83.5" font-family="Helvetica,sans-Serif" font-size="10.00" fill="#000000">bfp_btran_normal</text>
</a>
</g>
</g>
<!-- Node17&#45;&gt;Node18 -->
<g id="edge6" class="edge">
<title>Node17&#45;&gt;Node18</title>
<path fill="none" stroke="#191970" d="M176.1969,-98.1405C188.9018,-96.3323 202.5809,-94.3855 215.1843,-92.5917"/>
<polygon fill="#191970" stroke="#191970" points="175.6628,-94.6812 166.2557,-99.5554 176.6492,-101.6113 175.6628,-94.6812"/>
</g>
<!-- Node20 -->
<g id="node9" class="node">
<title>Node20</title>
<g id="a_node9"><a xlink:href="../../d5/df4/lp___l_u_s_o_l_8c.html#ab022b2aba815abc91317f64119e80275" target="_top" xlink:title="bfp_finishupdate">
<polygon fill="#ffffff" stroke="#000000" points="217.5,-38.5 217.5,-57.5 305.5,-57.5 305.5,-38.5 217.5,-38.5"/>
<text text-anchor="middle" x="261.5" y="-45.5" font-family="Helvetica,sans-Serif" font-size="10.00" fill="#000000">bfp_finishupdate</text>
</a>
</g>
</g>
<!-- Node19&#45;&gt;Node20 -->
<g id="edge9" class="edge">
<title>Node19&#45;&gt;Node20</title>
<path fill="none" stroke="#191970" d="M166.3672,-48C182.3276,-48 200.9486,-48 217.4634,-48"/>
<polygon fill="#191970" stroke="#191970" points="166.312,-44.5001 156.3119,-48 166.3119,-51.5001 166.312,-44.5001"/>
</g>
<!-- Node21 -->
<g id="node10" class="node">
<title>Node21</title>
<g id="a_node10"><a xlink:href="../../d2/d9d/lusol_8h.html#ad5f210ceb388122fe9837aa59d042a16" target="_top" xlink:title="LUSOL_replaceColumn">
<polygon fill="#ffffff" stroke="#000000" points="202,-.5 202,-19.5 321,-19.5 321,-.5 202,-.5"/>
<text text-anchor="middle" x="261.5" y="-7.5" font-family="Helvetica,sans-Serif" font-size="10.00" fill="#000000">LUSOL_replaceColumn</text>
</a>
</g>
</g>
<!-- Node19&#45;&gt;Node21 -->
<g id="edge10" class="edge">
<title>Node19&#45;&gt;Node21</title>
<path fill="none" stroke="#191970" d="M166.1119,-37.1517C185.6448,-31.5917 209.2151,-24.8826 228.0384,-19.5246"/>
<polygon fill="#191970" stroke="#191970" points="164.9717,-33.8371 156.3119,-39.9412 166.8881,-40.5697 164.9717,-33.8371"/>
</g>
<!-- Node21&#45;&gt;Node16 -->
<g id="edge14" class="edge">
<title>Node21&#45;&gt;Node16</title>
<path fill="none" stroke="#191970" d="M310.2491,-23.3402C313.9902,-25.0291 317.6209,-26.91 321,-29 359.1766,-52.6123 392.8635,-95.3732 406.7498,-114.4108"/>
<polygon fill="#191970" stroke="#191970" points="311.3861,-20.0248 300.803,-19.5278 308.7663,-26.5161 311.3861,-20.0248"/>
</g>
<!-- Node22 -->
<g id="node11" class="node">
<title>Node22</title>
<g id="a_node11"><a xlink:href="../../d5/df4/lp___l_u_s_o_l_8c.html#a55e388f62f523f2565fe26a801c3b99c" target="_top" xlink:title="bfp_LUSOLsetcolumn">
<polygon fill="#ffffff" stroke="#000000" points="357,-.5 357,-19.5 470,-19.5 470,-.5 357,-.5"/>
<text text-anchor="middle" x="413.5" y="-7.5" font-family="Helvetica,sans-Serif" font-size="10.00" fill="#000000">bfp_LUSOLsetcolumn</text>
</a>
</g>
</g>
<!-- Node21&#45;&gt;Node22 -->
<g id="edge11" class="edge">
<title>Node21&#45;&gt;Node22</title>
<path fill="none" stroke="#191970" d="M331.3424,-10C339.7724,-10 348.3042,-10 356.5191,-10"/>
<polygon fill="#191970" stroke="#191970" points="331.1382,-6.5001 321.1382,-10 331.1381,-13.5001 331.1382,-6.5001"/>
</g>
<!-- Node23 -->
<g id="node12" class="node">
<title>Node23</title>
<g id="a_node12"><a xlink:href="../../d5/df4/lp___l_u_s_o_l_8c.html#af0a052333c0bdc8882f37c86cb9670b6" target="_top" xlink:title="bfp_LUSOLfactorize">
<polygon fill="#ffffff" stroke="#000000" points="506,-.5 506,-19.5 611,-19.5 611,-.5 506,-.5"/>
<text text-anchor="middle" x="558.5" y="-7.5" font-family="Helvetica,sans-Serif" font-size="10.00" fill="#000000">bfp_LUSOLfactorize</text>
</a>
</g>
</g>
<!-- Node22&#45;&gt;Node23 -->
<g id="edge12" class="edge">
<title>Node22&#45;&gt;Node23</title>
<path fill="none" stroke="#191970" d="M480.5464,-10C488.9363,-10 497.4241,-10 505.557,-10"/>
<polygon fill="#191970" stroke="#191970" points="480.3917,-6.5001 470.3917,-10 480.3916,-13.5001 480.3917,-6.5001"/>
</g>
<!-- Node24 -->
<g id="node13" class="node">
<title>Node24</title>
<g id="a_node13"><a xlink:href="../../d5/df4/lp___l_u_s_o_l_8c.html#a47ed1e4a1148a3a171a69cb7472c4df7" target="_top" xlink:title="bfp_factorize">
<polygon fill="#ffffff" stroke="#000000" points="647,-.5 647,-19.5 720,-19.5 720,-.5 647,-.5"/>
<text text-anchor="middle" x="683.5" y="-7.5" font-family="Helvetica,sans-Serif" font-size="10.00" fill="#000000">bfp_factorize</text>
</a>
</g>
</g>
<!-- Node23&#45;&gt;Node24 -->
<g id="edge13" class="edge">
<title>Node23&#45;&gt;Node24</title>
<path fill="none" stroke="#191970" d="M621.3597,-10C630.0888,-10 638.8086,-10 646.8378,-10"/>
<polygon fill="#191970" stroke="#191970" points="621.149,-6.5001 611.149,-10 621.1489,-13.5001 621.149,-6.5001"/>
</g>
</g>
</svg>
