<?xml version="1.0" encoding="UTF-8" standalone="no"?>
<!DOCTYPE svg PUBLIC "-//W3C//DTD SVG 1.1//EN"
 "http://www.w3.org/Graphics/SVG/1.1/DTD/svg11.dtd">
<!-- Generated by graphviz version 2.40.1 (20161225.0304)
 -->
<!-- Title: ML_CommInfoOP_Deficient_GhostBlk_Check Pages: 1 -->
<svg width="1133pt" height="530pt"
 viewBox="0.00 0.00 1133.00 529.50" xmlns="http://www.w3.org/2000/svg" xmlns:xlink="http://www.w3.org/1999/xlink">
<g id="graph0" class="graph" transform="scale(1 1) rotate(0) translate(4 525.5)">
<title>ML_CommInfoOP_Deficient_GhostBlk_Check</title>
<polygon fill="#ffffff" stroke="transparent" points="-4,4 -4,-525.5 1129,-525.5 1129,4 -4,4"/>
<!-- Node810 -->
<g id="node1" class="node">
<title>Node810</title>
<polygon fill="#bfbfbf" stroke="#000000" points="0,-135 0,-165 140,-165 140,-135 0,-135"/>
<text text-anchor="start" x="8" y="-153" font-family="Helvetica,sans-Serif" font-size="10.00" fill="#000000">ML_CommInfoOP_Deficient</text>
<text text-anchor="middle" x="70" y="-142" font-family="Helvetica,sans-Serif" font-size="10.00" fill="#000000">_GhostBlk_Check</text>
</g>
<!-- Node811 -->
<g id="node2" class="node">
<title>Node811</title>
<g id="a_node2"><a xlink:href="../../dd/da4/ml__aggregate_8h.html#a26c58349c770e0946c656ad9d299dc9a" target="_top" xlink:title="ML_Aggregate_Coarsen">
<polygon fill="#ffffff" stroke="#000000" points="176,-140.5 176,-159.5 298,-159.5 298,-140.5 176,-140.5"/>
<text text-anchor="middle" x="237" y="-147.5" font-family="Helvetica,sans-Serif" font-size="10.00" fill="#000000">ML_Aggregate_Coarsen</text>
</a>
</g>
</g>
<!-- Node810&#45;&gt;Node811 -->
<g id="edge1" class="edge">
<title>Node810&#45;&gt;Node811</title>
<path fill="none" stroke="#191970" d="M150.6091,-150C159.064,-150 167.5584,-150 175.7451,-150"/>
<polygon fill="#191970" stroke="#191970" points="150.3391,-146.5001 140.339,-150 150.339,-153.5001 150.3391,-146.5001"/>
</g>
<!-- Node812 -->
<g id="node3" class="node">
<title>Node812</title>
<g id="a_node3"><a xlink:href="../../d0/d33/ml__agg__gen_p_8h.html#a54a698830512f930ca438a23b3c26a2f" target="_top" xlink:title="ML_AGG_Gen_Prolongator">
<polygon fill="#ffffff" stroke="#000000" points="334,-261.5 334,-280.5 469,-280.5 469,-261.5 334,-261.5"/>
<text text-anchor="middle" x="401.5" y="-268.5" font-family="Helvetica,sans-Serif" font-size="10.00" fill="#000000">ML_AGG_Gen_Prolongator</text>
</a>
</g>
</g>
<!-- Node811&#45;&gt;Node812 -->
<g id="edge2" class="edge">
<title>Node811&#45;&gt;Node812</title>
<path fill="none" stroke="#191970" d="M257.2582,-165.8627C276.7488,-181.0269 307.1354,-204.414 334,-224 352.2311,-237.2916 373.6703,-252.0797 387.413,-261.4539"/>
<polygon fill="#191970" stroke="#191970" points="259.1596,-162.907 249.1216,-159.5172 254.8548,-168.4269 259.1596,-162.907"/>
</g>
<!-- Node830 -->
<g id="node21" class="node">
<title>Node830</title>
<g id="a_node21"><a xlink:href="../../d3/d4f/ml__agg__min__energy_8h.html#a5cd54c03ba7c3c66bb2c5e755f04c916" target="_top" xlink:title="ML_AGG_Gen_Prolongator\l_MinEnergy">
<polygon fill="#ffffff" stroke="#000000" points="334,-184 334,-214 469,-214 469,-184 334,-184"/>
<text text-anchor="start" x="342" y="-202" font-family="Helvetica,sans-Serif" font-size="10.00" fill="#000000">ML_AGG_Gen_Prolongator</text>
<text text-anchor="middle" x="401.5" y="-191" font-family="Helvetica,sans-Serif" font-size="10.00" fill="#000000">_MinEnergy</text>
</a>
</g>
</g>
<!-- Node811&#45;&gt;Node830 -->
<g id="edge23" class="edge">
<title>Node811&#45;&gt;Node830</title>
<path fill="none" stroke="#191970" d="M278.8101,-162.4541C300.7831,-168.9992 327.8823,-177.0713 351.0188,-183.963"/>
<polygon fill="#191970" stroke="#191970" points="279.6908,-159.0645 269.1078,-159.564 277.6924,-165.7732 279.6908,-159.0645"/>
</g>
<!-- Node831 -->
<g id="node22" class="node">
<title>Node831</title>
<g id="a_node22"><a xlink:href="../../d3/d4f/ml__agg__min__energy_8h.html#ad06158a73f2f0dddc7afa10c21f8c1fe" target="_top" xlink:title="ML_AGG_Gen_Prolongator\l_MandelMinEnergy">
<polygon fill="#ffffff" stroke="#000000" points="334,-135 334,-165 469,-165 469,-135 334,-135"/>
<text text-anchor="start" x="342" y="-153" font-family="Helvetica,sans-Serif" font-size="10.00" fill="#000000">ML_AGG_Gen_Prolongator</text>
<text text-anchor="middle" x="401.5" y="-142" font-family="Helvetica,sans-Serif" font-size="10.00" fill="#000000">_MandelMinEnergy</text>
</a>
</g>
</g>
<!-- Node811&#45;&gt;Node831 -->
<g id="edge24" class="edge">
<title>Node811&#45;&gt;Node831</title>
<path fill="none" stroke="#191970" d="M308.4393,-150C316.8725,-150 325.4599,-150 333.8386,-150"/>
<polygon fill="#191970" stroke="#191970" points="308.2538,-146.5001 298.2537,-150 308.2537,-153.5001 308.2538,-146.5001"/>
</g>
<!-- Node832 -->
<g id="node23" class="node">
<title>Node832</title>
<g id="a_node23"><a xlink:href="../../d8/dc5/namespace_m_l_a_p_i.html#a6609804c6d86c4708b7168cab10fe4ef" target="_top" xlink:title="Builds the tentative prolongator using aggregation. ">
<polygon fill="#ffffff" stroke="#000000" points="355.5,-91.5 355.5,-110.5 447.5,-110.5 447.5,-91.5 355.5,-91.5"/>
<text text-anchor="middle" x="401.5" y="-98.5" font-family="Helvetica,sans-Serif" font-size="10.00" fill="#000000">MLAPI::GetPtent</text>
</a>
</g>
</g>
<!-- Node811&#45;&gt;Node832 -->
<g id="edge26" class="edge">
<title>Node811&#45;&gt;Node832</title>
<path fill="none" stroke="#191970" d="M278.6957,-137.58C306.8913,-129.1813 343.5674,-118.2565 369.4732,-110.5399"/>
<polygon fill="#191970" stroke="#191970" points="277.6924,-134.2268 269.1078,-140.436 279.6908,-140.9355 277.6924,-134.2268"/>
</g>
<!-- Node836 -->
<g id="node27" class="node">
<title>Node836</title>
<g id="a_node27"><a xlink:href="../../d8/dc5/namespace_m_l_a_p_i.html#ac910b47c4ef0b9e28acf9cfe719ab3ae" target="_top" xlink:title="Call ML aggregation on A according to parameters supplied in List. Return aggregates in aggrinfo...">
<polygon fill="#ffffff" stroke="#000000" points="342.5,-28.5 342.5,-47.5 460.5,-47.5 460.5,-28.5 342.5,-28.5"/>
<text text-anchor="middle" x="401.5" y="-35.5" font-family="Helvetica,sans-Serif" font-size="10.00" fill="#000000">MLAPI::GetAggregates</text>
</a>
</g>
</g>
<!-- Node811&#45;&gt;Node836 -->
<g id="edge30" class="edge">
<title>Node811&#45;&gt;Node836</title>
<path fill="none" stroke="#191970" d="M258.6241,-134.528C278.1866,-120.6061 307.8495,-99.682 334,-82 351.8459,-69.9333 372.6476,-56.4618 386.391,-47.6422"/>
<polygon fill="#191970" stroke="#191970" points="256.506,-131.7396 250.3956,-140.395 260.5699,-137.4392 256.506,-131.7396"/>
</g>
<!-- Node813 -->
<g id="node4" class="node">
<title>Node813</title>
<g id="a_node4"><a xlink:href="../../d0/d33/ml__agg__gen_p_8h.html#ae9980b6a4d94d467d5865727725cb1b8" target="_top" xlink:title="ML_Gen_MGHierarchy\l_UsingAggregation">
<polygon fill="#ffffff" stroke="#000000" points="546,-333 546,-363 662,-363 662,-333 546,-333"/>
<text text-anchor="start" x="554" y="-351" font-family="Helvetica,sans-Serif" font-size="10.00" fill="#000000">ML_Gen_MGHierarchy</text>
<text text-anchor="middle" x="604" y="-340" font-family="Helvetica,sans-Serif" font-size="10.00" fill="#000000">_UsingAggregation</text>
</a>
</g>
</g>
<!-- Node812&#45;&gt;Node813 -->
<g id="edge3" class="edge">
<title>Node812&#45;&gt;Node813</title>
<path fill="none" stroke="#191970" d="M436.2338,-284.2074C471.8683,-297.7573 527.219,-318.8043 564.4997,-332.9801"/>
<polygon fill="#191970" stroke="#191970" points="437.3284,-280.8792 426.7373,-280.5964 434.8404,-287.4221 437.3284,-280.8792"/>
</g>
<!-- Node817 -->
<g id="node8" class="node">
<title>Node817</title>
<g id="a_node8"><a xlink:href="../../d5/d9b/ml__agg__reitzinger_8h.html#a109c0acc3b9efbf213a9f49d756cdda1" target="_top" xlink:title="ML_Gen_MGHierarchy\l_UsingReitzinger">
<polygon fill="#ffffff" stroke="#000000" points="780,-491 780,-521 896,-521 896,-491 780,-491"/>
<text text-anchor="start" x="788" y="-509" font-family="Helvetica,sans-Serif" font-size="10.00" fill="#000000">ML_Gen_MGHierarchy</text>
<text text-anchor="middle" x="838" y="-498" font-family="Helvetica,sans-Serif" font-size="10.00" fill="#000000">_UsingReitzinger</text>
</a>
</g>
</g>
<!-- Node812&#45;&gt;Node817 -->
<g id="edge22" class="edge">
<title>Node812&#45;&gt;Node817</title>
<path fill="none" stroke="#191970" d="M415.7556,-288.3706C434.4476,-310.3026 469.1019,-348.1629 505,-373 599.195,-438.1713 631.0099,-442.8144 739,-481 752.0361,-485.6096 766.319,-489.7311 779.8786,-493.234"/>
<polygon fill="#191970" stroke="#191970" points="418.2993,-285.9569 409.1901,-280.5463 412.937,-290.4565 418.2993,-285.9569"/>
</g>
<!-- Node824 -->
<g id="node15" class="node">
<title>Node824</title>
<g id="a_node15"><a xlink:href="../../d0/d33/ml__agg__gen_p_8h.html#a5f5a51370590a53ee4a81315f3d2109e" target="_top" xlink:title="ML_Gen_MGHierarchy\l_UsingSmoothedAggr_ReuseExistingAgg">
<polygon fill="#ffffff" stroke="#000000" points="505,-256 505,-286 703,-286 703,-256 505,-256"/>
<text text-anchor="start" x="513" y="-274" font-family="Helvetica,sans-Serif" font-size="10.00" fill="#000000">ML_Gen_MGHierarchy</text>
<text text-anchor="middle" x="604" y="-263" font-family="Helvetica,sans-Serif" font-size="10.00" fill="#000000">_UsingSmoothedAggr_ReuseExistingAgg</text>
</a>
</g>
</g>
<!-- Node812&#45;&gt;Node824 -->
<g id="edge15" class="edge">
<title>Node812&#45;&gt;Node824</title>
<path fill="none" stroke="#191970" d="M479.3281,-271C487.7284,-271 496.3564,-271 504.963,-271"/>
<polygon fill="#191970" stroke="#191970" points="479.2111,-267.5001 469.2111,-271 479.2111,-274.5001 479.2111,-267.5001"/>
</g>
<!-- Node825 -->
<g id="node16" class="node">
<title>Node825</title>
<g id="a_node16"><a xlink:href="../../d0/d33/ml__agg__gen_p_8h.html#a69d5fe24f9b1bfc2267c54124b8d6e54" target="_top" xlink:title="ML_MultiLevel_Gen_Prolongator">
<polygon fill="#ffffff" stroke="#000000" points="525,-141.5 525,-160.5 683,-160.5 683,-141.5 525,-141.5"/>
<text text-anchor="middle" x="604" y="-148.5" font-family="Helvetica,sans-Serif" font-size="10.00" fill="#000000">ML_MultiLevel_Gen_Prolongator</text>
</a>
</g>
</g>
<!-- Node812&#45;&gt;Node825 -->
<g id="edge16" class="edge">
<title>Node812&#45;&gt;Node825</title>
<path fill="none" stroke="#191970" d="M426.5207,-256.1729C468.5949,-231.24 552.3724,-181.5942 587.6936,-160.6631"/>
<polygon fill="#191970" stroke="#191970" points="424.5477,-253.2736 417.7291,-261.3827 428.1164,-259.2957 424.5477,-253.2736"/>
</g>
<!-- Node814 -->
<g id="node5" class="node">
<title>Node814</title>
<g id="a_node5"><a xlink:href="../../d5/d8c/mlguide_8c.html#a0ddf1224851353fc92bfbff6f499fa97" target="_top" xlink:title="main">
<polygon fill="#ffffff" stroke="#000000" points="819,-452.5 819,-471.5 857,-471.5 857,-452.5 819,-452.5"/>
<text text-anchor="middle" x="838" y="-459.5" font-family="Helvetica,sans-Serif" font-size="10.00" fill="#000000">main</text>
</a>
</g>
</g>
<!-- Node813&#45;&gt;Node814 -->
<g id="edge4" class="edge">
<title>Node813&#45;&gt;Node814</title>
<path fill="none" stroke="#191970" d="M628.18,-369.8777C653.8073,-391.8324 696.3897,-424.9138 739,-443 765.2593,-454.146 798.2147,-458.801 818.6933,-460.7123"/>
<polygon fill="#191970" stroke="#191970" points="630.3177,-367.0983 620.4766,-363.1736 625.7223,-372.3787 630.3177,-367.0983"/>
</g>
<!-- Node815 -->
<g id="node6" class="node">
<title>Node815</title>
<g id="a_node6"><a xlink:href="../../d0/d33/ml__agg__gen_p_8h.html#a55f0768e24055d7d503b95ad16e63a39" target="_top" xlink:title="ML_AGG_Gen_DDProlongator">
<polygon fill="#ffffff" stroke="#000000" points="763,-414.5 763,-433.5 913,-433.5 913,-414.5 763,-414.5"/>
<text text-anchor="middle" x="838" y="-421.5" font-family="Helvetica,sans-Serif" font-size="10.00" fill="#000000">ML_AGG_Gen_DDProlongator</text>
</a>
</g>
</g>
<!-- Node813&#45;&gt;Node815 -->
<g id="edge5" class="edge">
<title>Node813&#45;&gt;Node815</title>
<path fill="none" stroke="#191970" d="M661.3389,-367.0141C684.9747,-376.7948 712.8955,-388.0801 739,-396 765.4608,-404.028 796.9702,-409.3839 817.2168,-414.424"/>
<polygon fill="#191970" stroke="#191970" points="662.4074,-363.6682 651.8294,-363.0698 659.7255,-370.1341 662.4074,-363.6682"/>
</g>
<!-- Node816 -->
<g id="node7" class="node">
<title>Node816</title>
<g id="a_node7"><a xlink:href="../../d0/d33/ml__agg__gen_p_8h.html#a1c6a82c0137de25725bc1708adb0f65e" target="_top" xlink:title="ML_AGG_Gen_DDProlongator2">
<polygon fill="#ffffff" stroke="#000000" points="760.5,-376.5 760.5,-395.5 915.5,-395.5 915.5,-376.5 760.5,-376.5"/>
<text text-anchor="middle" x="838" y="-383.5" font-family="Helvetica,sans-Serif" font-size="10.00" fill="#000000">ML_AGG_Gen_DDProlongator2</text>
</a>
</g>
</g>
<!-- Node813&#45;&gt;Node816 -->
<g id="edge7" class="edge">
<title>Node813&#45;&gt;Node816</title>
<path fill="none" stroke="#191970" d="M672.4384,-359.1139C706.3482,-364.6206 746.8743,-371.2018 779.3435,-376.4746"/>
<polygon fill="#191970" stroke="#191970" points="672.5751,-355.5904 662.1434,-357.4421 671.453,-362.4998 672.5751,-355.5904"/>
</g>
<!-- Node813&#45;&gt;Node817 -->
<g id="edge8" class="edge">
<title>Node813&#45;&gt;Node817</title>
<path fill="none" stroke="#191970" d="M631.2146,-369.5831C651.8225,-386.4668 680.352,-411.0247 703,-435 720.8274,-453.8722 717.2427,-466.8368 739,-481 751.1824,-488.9303 765.7179,-494.3452 779.849,-498.0426"/>
<polygon fill="#191970" stroke="#191970" points="633.1534,-366.649 623.1838,-363.0632 628.7413,-372.0835 633.1534,-366.649"/>
</g>
<!-- Node819 -->
<g id="node10" class="node">
<title>Node819</title>
<g id="a_node10"><a xlink:href="../../db/de5/ml__struct_8h.html#a3e510083e545d8f69ebf2c7904c2ad92" target="_top" xlink:title="ML_Setup">
<polygon fill="#ffffff" stroke="#000000" points="807.5,-338.5 807.5,-357.5 868.5,-357.5 868.5,-338.5 807.5,-338.5"/>
<text text-anchor="middle" x="838" y="-345.5" font-family="Helvetica,sans-Serif" font-size="10.00" fill="#000000">ML_Setup</text>
</a>
</g>
</g>
<!-- Node813&#45;&gt;Node819 -->
<g id="edge10" class="edge">
<title>Node813&#45;&gt;Node819</title>
<path fill="none" stroke="#191970" d="M672.362,-348C717.0559,-348 773.2695,-348 807.3767,-348"/>
<polygon fill="#191970" stroke="#191970" points="672.1434,-344.5001 662.1434,-348 672.1433,-351.5001 672.1434,-344.5001"/>
</g>
<!-- Node820 -->
<g id="node11" class="node">
<title>Node820</title>
<g id="a_node11"><a xlink:href="../../db/de5/ml__struct_8h.html#a29c5797e6cbb5e0a36b743546c60a979" target="_top" xlink:title="ML_build_ggb_fat">
<polygon fill="#ffffff" stroke="#000000" points="791.5,-300.5 791.5,-319.5 884.5,-319.5 884.5,-300.5 791.5,-300.5"/>
<text text-anchor="middle" x="838" y="-307.5" font-family="Helvetica,sans-Serif" font-size="10.00" fill="#000000">ML_build_ggb_fat</text>
</a>
</g>
</g>
<!-- Node813&#45;&gt;Node820 -->
<g id="edge11" class="edge">
<title>Node813&#45;&gt;Node820</title>
<path fill="none" stroke="#191970" d="M672.1695,-336.9297C710.3813,-330.7244 757.0617,-323.1438 791.1487,-317.6083"/>
<polygon fill="#191970" stroke="#191970" points="671.453,-333.5002 662.1434,-338.5579 672.5751,-340.4096 671.453,-333.5002"/>
</g>
<!-- Node821 -->
<g id="node12" class="node">
<title>Node821</title>
<g id="a_node12"><a xlink:href="../../d6/dfe/mli__solver_8h.html#a9860d39e2098baeea0339301379b4272" target="_top" xlink:title="MLI_Solver_Setup">
<polygon fill="#ffffff" stroke="#000000" points="789.5,-262.5 789.5,-281.5 886.5,-281.5 886.5,-262.5 789.5,-262.5"/>
<text text-anchor="middle" x="838" y="-269.5" font-family="Helvetica,sans-Serif" font-size="10.00" fill="#000000">MLI_Solver_Setup</text>
</a>
</g>
</g>
<!-- Node813&#45;&gt;Node821 -->
<g id="edge12" class="edge">
<title>Node813&#45;&gt;Node821</title>
<path fill="none" stroke="#191970" d="M643.721,-328.6203C670.1904,-316.3622 706.0427,-300.9989 739,-291 755.1612,-286.0968 773.2057,-282.1904 789.4172,-279.226"/>
<polygon fill="#191970" stroke="#191970" points="641.9865,-325.5679 634.4164,-332.9803 644.9567,-331.9065 641.9865,-325.5679"/>
</g>
<!-- Node822 -->
<g id="node13" class="node">
<title>Node822</title>
<g id="a_node13"><a xlink:href="../../d6/dfe/mli__solver_8h.html#a06864478676072b4076d798d710cd7aa" target="_top" xlink:title="MLI_Solver_SetupDD">
<polygon fill="#ffffff" stroke="#000000" points="782,-224.5 782,-243.5 894,-243.5 894,-224.5 782,-224.5"/>
<text text-anchor="middle" x="838" y="-231.5" font-family="Helvetica,sans-Serif" font-size="10.00" fill="#000000">MLI_Solver_SetupDD</text>
</a>
</g>
</g>
<!-- Node813&#45;&gt;Node822 -->
<g id="edge13" class="edge">
<title>Node813&#45;&gt;Node822</title>
<path fill="none" stroke="#191970" d="M650.3243,-328.3329C667.7663,-319.7659 687.1894,-308.7517 703,-296 722.4009,-280.3526 717.5163,-265.6366 739,-253 751.8978,-245.4136 767.2233,-240.7753 781.9161,-237.9621"/>
<polygon fill="#191970" stroke="#191970" points="648.3956,-325.3748 640.8736,-332.836 651.4067,-331.6941 648.3956,-325.3748"/>
</g>
<!-- Node823 -->
<g id="node14" class="node">
<title>Node823</title>
<g id="a_node14"><a xlink:href="../../dd/d39/ml__aztec__utils_8h.html#a0062bc88448c5f17831e5a080546d280" target="_top" xlink:title="MLAZ_Setup_MLandAggregate">
<polygon fill="#ffffff" stroke="#000000" points="762,-186.5 762,-205.5 914,-205.5 914,-186.5 762,-186.5"/>
<text text-anchor="middle" x="838" y="-193.5" font-family="Helvetica,sans-Serif" font-size="10.00" fill="#000000">MLAZ_Setup_MLandAggregate</text>
</a>
</g>
</g>
<!-- Node813&#45;&gt;Node823 -->
<g id="edge14" class="edge">
<title>Node813&#45;&gt;Node823</title>
<path fill="none" stroke="#191970" d="M656.2167,-328.6533C672.7842,-320.5458 690.1224,-309.7489 703,-296 729.9308,-267.2471 708.1478,-239.4977 739,-215 745.7844,-209.6129 753.6466,-205.5988 761.916,-202.628"/>
<polygon fill="#191970" stroke="#191970" points="654.716,-325.4912 647.1251,-332.8824 657.6684,-331.8381 654.716,-325.4912"/>
</g>
<!-- Node815&#45;&gt;Node813 -->
<g id="edge6" class="edge">
<title>Node815&#45;&gt;Node813</title>
<path fill="none" stroke="#191970" d="M753.0907,-417.914C748.2991,-416.6956 743.5741,-415.3877 739,-414 695.909,-400.9266 647.869,-378.6828 622.3229,-363.2245"/>
<polygon fill="#191970" stroke="#191970" points="752.4524,-421.3601 762.9926,-420.286 754.0831,-414.5526 752.4524,-421.3601"/>
</g>
<!-- Node818 -->
<g id="node9" class="node">
<title>Node818</title>
<g id="a_node9"><a xlink:href="../../d5/d21/ml__simple__max_8c.html#a0ddf1224851353fc92bfbff6f499fa97" target="_top" xlink:title="main">
<polygon fill="#ffffff" stroke="#000000" points="973,-496.5 973,-515.5 1011,-515.5 1011,-496.5 973,-496.5"/>
<text text-anchor="middle" x="992" y="-503.5" font-family="Helvetica,sans-Serif" font-size="10.00" fill="#000000">main</text>
</a>
</g>
</g>
<!-- Node817&#45;&gt;Node818 -->
<g id="edge9" class="edge">
<title>Node817&#45;&gt;Node818</title>
<path fill="none" stroke="#191970" d="M906.5044,-506C930.7279,-506 956.0868,-506 972.8338,-506"/>
<polygon fill="#191970" stroke="#191970" points="906.2208,-502.5001 896.2208,-506 906.2208,-509.5001 906.2208,-502.5001"/>
</g>
<!-- Node826 -->
<g id="node17" class="node">
<title>Node826</title>
<g id="a_node17"><a xlink:href="../../d0/d33/ml__agg__gen_p_8h.html#ae7d1b526f0441504fca9924114c35306" target="_top" xlink:title="ML_Gen_MultiLevelHierarchy\l_UsingAggregation">
<polygon fill="#ffffff" stroke="#000000" points="765.5,-137 765.5,-167 910.5,-167 910.5,-137 765.5,-137"/>
<text text-anchor="start" x="773.5" y="-155" font-family="Helvetica,sans-Serif" font-size="10.00" fill="#000000">ML_Gen_MultiLevelHierarchy</text>
<text text-anchor="middle" x="838" y="-144" font-family="Helvetica,sans-Serif" font-size="10.00" fill="#000000">_UsingAggregation</text>
</a>
</g>
</g>
<!-- Node825&#45;&gt;Node826 -->
<g id="edge17" class="edge">
<title>Node825&#45;&gt;Node826</title>
<path fill="none" stroke="#191970" d="M693.2895,-151.3816C717.0406,-151.4831 742.4082,-151.5915 765.1636,-151.6887"/>
<polygon fill="#191970" stroke="#191970" points="693.2366,-147.8814 683.2217,-151.3386 693.2066,-154.8814 693.2366,-147.8814"/>
</g>
<!-- Node829 -->
<g id="node20" class="node">
<title>Node829</title>
<g id="a_node20"><a xlink:href="../../d0/d33/ml__agg__gen_p_8h.html#a401a0ca1f24bd136d5fcf880b4a85a2e" target="_top" xlink:title="ML_Gen_MultiLevelHierarchy\l_UsingSmoothedAggr_ReuseExistingAgg">
<polygon fill="#ffffff" stroke="#000000" points="739,-88 739,-118 937,-118 937,-88 739,-88"/>
<text text-anchor="start" x="747" y="-106" font-family="Helvetica,sans-Serif" font-size="10.00" fill="#000000">ML_Gen_MultiLevelHierarchy</text>
<text text-anchor="middle" x="838" y="-95" font-family="Helvetica,sans-Serif" font-size="10.00" fill="#000000">_UsingSmoothedAggr_ReuseExistingAgg</text>
</a>
</g>
</g>
<!-- Node825&#45;&gt;Node829 -->
<g id="edge21" class="edge">
<title>Node825&#45;&gt;Node829</title>
<path fill="none" stroke="#191970" d="M660.3942,-139.432C691.7577,-132.9984 731.1475,-124.9185 764.8578,-118.0035"/>
<polygon fill="#191970" stroke="#191970" points="659.6033,-136.0212 650.5106,-141.4594 661.01,-142.8784 659.6033,-136.0212"/>
</g>
<!-- Node827 -->
<g id="node18" class="node">
<title>Node827</title>
<g id="a_node18"><a xlink:href="../../d9/df7/ml__aztec__simple_8c.html#a0ddf1224851353fc92bfbff6f499fa97" target="_top" xlink:title="main">
<polygon fill="#ffffff" stroke="#000000" points="973,-142.5 973,-161.5 1011,-161.5 1011,-142.5 973,-142.5"/>
<text text-anchor="middle" x="992" y="-149.5" font-family="Helvetica,sans-Serif" font-size="10.00" fill="#000000">main</text>
</a>
</g>
</g>
<!-- Node826&#45;&gt;Node827 -->
<g id="edge18" class="edge">
<title>Node826&#45;&gt;Node827</title>
<path fill="none" stroke="#191970" d="M921.1245,-152C940.5573,-152 959.4666,-152 972.8593,-152"/>
<polygon fill="#191970" stroke="#191970" points="920.9412,-148.5001 910.9411,-152 920.9411,-155.5001 920.9412,-148.5001"/>
</g>
<!-- Node828 -->
<g id="node19" class="node">
<title>Node828</title>
<g id="a_node19"><a xlink:href="../../d9/df7/ml__aztec__simple_8c.html#a305183e8faf483ededc56013847b5172" target="_top" xlink:title="user_Kn_build">
<polygon fill="#ffffff" stroke="#000000" points="1047,-142.5 1047,-161.5 1125,-161.5 1125,-142.5 1047,-142.5"/>
<text text-anchor="middle" x="1086" y="-149.5" font-family="Helvetica,sans-Serif" font-size="10.00" fill="#000000">user_Kn_build</text>
</a>
</g>
</g>
<!-- Node827&#45;&gt;Node828 -->
<g id="edge19" class="edge">
<title>Node827&#45;&gt;Node828</title>
<path fill="none" stroke="#191970" d="M1021.1215,-145.7042C1029.2477,-145.2715 1038.2117,-145.1479 1046.8162,-145.3337"/>
<polygon fill="#191970" stroke="#191970" points="1020.7368,-142.223 1011.0223,-146.4514 1021.2533,-149.204 1020.7368,-142.223"/>
</g>
<!-- Node828&#45;&gt;Node827 -->
<g id="edge20" class="edge">
<title>Node828&#45;&gt;Node827</title>
<path fill="none" stroke="#191970" d="M1036.5709,-158.742C1027.4776,-158.6819 1018.506,-158.2841 1011.0223,-157.5486"/>
<polygon fill="#191970" stroke="#191970" points="1036.8424,-162.2402 1046.8162,-158.6663 1036.7906,-155.2404 1036.8424,-162.2402"/>
</g>
<!-- Node831&#45;&gt;Node825 -->
<g id="edge25" class="edge">
<title>Node831&#45;&gt;Node825</title>
<path fill="none" stroke="#191970" d="M479.3835,-150.3846C494.2659,-150.4581 509.8607,-150.5351 524.7843,-150.6088"/>
<polygon fill="#191970" stroke="#191970" points="479.2283,-146.8839 469.2111,-150.3344 479.1937,-153.8838 479.2283,-146.8839"/>
</g>
<!-- Node833 -->
<g id="node24" class="node">
<title>Node833</title>
<g id="a_node24"><a xlink:href="../../d8/dc5/namespace_m_l_a_p_i.html#a02dd2723ac5649b278cbe387b4184ad7" target="_top" xlink:title="Builds the tentative prolongator with default null space. ">
<polygon fill="#ffffff" stroke="#000000" points="558,-91.5 558,-110.5 650,-110.5 650,-91.5 558,-91.5"/>
<text text-anchor="middle" x="604" y="-98.5" font-family="Helvetica,sans-Serif" font-size="10.00" fill="#000000">MLAPI::GetPtent</text>
</a>
</g>
</g>
<!-- Node832&#45;&gt;Node833 -->
<g id="edge27" class="edge">
<title>Node832&#45;&gt;Node833</title>
<path fill="none" stroke="#191970" d="M458.093,-101C489.6138,-101 528.3557,-101 557.9947,-101"/>
<polygon fill="#191970" stroke="#191970" points="457.7038,-97.5001 447.7038,-101 457.7037,-104.5001 457.7038,-97.5001"/>
</g>
<!-- Node834 -->
<g id="node25" class="node">
<title>Node834</title>
<g id="a_node25"><a xlink:href="../../d1/ddd/class_m_l_a_p_i_1_1_multi_level_s_a.html#ac9935f186429f8bf5539c0ef2406148b" target="_top" xlink:title="Computes the hierarchy. ">
<polygon fill="#ffffff" stroke="#000000" points="549,-40 549,-70 659,-70 659,-40 549,-40"/>
<text text-anchor="start" x="557" y="-58" font-family="Helvetica,sans-Serif" font-size="10.00" fill="#000000">MLAPI::MultiLevelSA</text>
<text text-anchor="middle" x="604" y="-47" font-family="Helvetica,sans-Serif" font-size="10.00" fill="#000000">::Compute</text>
</a>
</g>
</g>
<!-- Node832&#45;&gt;Node834 -->
<g id="edge28" class="edge">
<title>Node832&#45;&gt;Node834</title>
<path fill="none" stroke="#191970" d="M453.4446,-89.2002C482.5927,-82.5789 518.9531,-74.3193 548.6388,-67.5759"/>
<polygon fill="#191970" stroke="#191970" points="452.4344,-85.8405 443.4581,-91.4688 453.985,-92.6666 452.4344,-85.8405"/>
</g>
<!-- Node835 -->
<g id="node26" class="node">
<title>Node835</title>
<g id="a_node26"><a xlink:href="../../d1/ddd/class_m_l_a_p_i_1_1_multi_level_s_a.html#ad7f66d20cfeabcd6dcbcb3e03c5b90b6" target="_top" xlink:title="Constructs the hierarchy for given Operator and parameters. ">
<polygon fill="#ffffff" stroke="#000000" points="783,-39 783,-69 893,-69 893,-39 783,-39"/>
<text text-anchor="start" x="791" y="-57" font-family="Helvetica,sans-Serif" font-size="10.00" fill="#000000">MLAPI::MultiLevelSA</text>
<text text-anchor="middle" x="838" y="-46" font-family="Helvetica,sans-Serif" font-size="10.00" fill="#000000">::MultiLevelSA</text>
</a>
</g>
</g>
<!-- Node834&#45;&gt;Node835 -->
<g id="edge29" class="edge">
<title>Node834&#45;&gt;Node835</title>
<path fill="none" stroke="#191970" d="M669.4778,-54.7202C705.1709,-54.5676 748.8581,-54.3809 782.8069,-54.2359"/>
<polygon fill="#191970" stroke="#191970" points="669.1433,-51.2215 659.1584,-54.7643 669.1733,-58.2214 669.1433,-51.2215"/>
</g>
<!-- Node837 -->
<g id="node28" class="node">
<title>Node837</title>
<g id="a_node28"><a xlink:href="../../d8/dc5/namespace_m_l_a_p_i.html#a0a75b74ee4a063a3ee5b6750a9afc0de" target="_top" xlink:title="Call ML aggregation on A according to parameters supplied in List. Return aggregates in aggrinfo...">
<polygon fill="#ffffff" stroke="#000000" points="531,-1.5 531,-20.5 677,-20.5 677,-1.5 531,-1.5"/>
<text text-anchor="middle" x="604" y="-8.5" font-family="Helvetica,sans-Serif" font-size="10.00" fill="#000000">MLAPI::GetGlobalAggregates</text>
</a>
</g>
</g>
<!-- Node836&#45;&gt;Node837 -->
<g id="edge31" class="edge">
<title>Node836&#45;&gt;Node837</title>
<path fill="none" stroke="#191970" d="M470.5799,-28.7894C490.5891,-26.1214 512.469,-23.2041 532.6161,-20.5179"/>
<polygon fill="#191970" stroke="#191970" points="470.0654,-25.3269 460.6157,-30.1179 470.9906,-32.2655 470.0654,-25.3269"/>
</g>
<!-- Node838 -->
<g id="node29" class="node">
<title>Node838</title>
<g id="a_node29"><a xlink:href="../../d8/dc5/namespace_m_l_a_p_i.html#a5ba8fd04b219e87086364582f6223418" target="_top" xlink:title="Builds the tentative prolongator using aggregation. ">
<polygon fill="#ffffff" stroke="#000000" points="792,-.5 792,-19.5 884,-19.5 884,-.5 792,-.5"/>
<text text-anchor="middle" x="838" y="-7.5" font-family="Helvetica,sans-Serif" font-size="10.00" fill="#000000">MLAPI::GetPtent</text>
</a>
</g>
</g>
<!-- Node837&#45;&gt;Node838 -->
<g id="edge32" class="edge">
<title>Node837&#45;&gt;Node838</title>
<path fill="none" stroke="#191970" d="M687.354,-10.6438C722.5435,-10.4934 762.1711,-10.3241 791.9481,-10.1968"/>
<polygon fill="#191970" stroke="#191970" points="687.0614,-7.1449 677.0765,-10.6877 687.0914,-14.1448 687.0614,-7.1449"/>
</g>
</g>
</svg>
