<?xml version="1.0" encoding="UTF-8" standalone="no"?>
<!DOCTYPE svg PUBLIC "-//W3C//DTD SVG 1.1//EN"
 "http://www.w3.org/Graphics/SVG/1.1/DTD/svg11.dtd">
<!-- Generated by graphviz version 2.40.1 (20161225.0304)
 -->
<!-- Title: ML_create_unique_id Pages: 1 -->
<svg width="828pt" height="110pt"
 viewBox="0.00 0.00 828.00 109.50" xmlns="http://www.w3.org/2000/svg" xmlns:xlink="http://www.w3.org/1999/xlink">
<g id="graph0" class="graph" transform="scale(1 1) rotate(0) translate(4 105.5)">
<title>ML_create_unique_id</title>
<polygon fill="#ffffff" stroke="transparent" points="-4,4 -4,-105.5 824,-105.5 824,4 -4,4"/>
<!-- Node2543 -->
<g id="node1" class="node">
<title>Node2543</title>
<polygon fill="#bfbfbf" stroke="#000000" points="0,-44 0,-63 109,-63 109,-44 0,-44"/>
<text text-anchor="middle" x="54.5" y="-51" font-family="Helvetica,sans-Serif" font-size="10.00" fill="#000000">ML_create_unique_id</text>
</g>
<!-- Node2544 -->
<g id="node2" class="node">
<title>Node2544</title>
<g id="a_node2"><a xlink:href="../../d3/d4f/ml__agg__min__energy_8h.html#a21688ed2f23216a6532095cf18486d44" target="_top" xlink:title="ML_multiply_all_vscale">
<polygon fill="#ffffff" stroke="#000000" points="160,-82 160,-101 278,-101 278,-82 160,-82"/>
<text text-anchor="middle" x="219" y="-89" font-family="Helvetica,sans-Serif" font-size="10.00" fill="#000000">ML_multiply_all_vscale</text>
</a>
</g>
</g>
<!-- Node2543&#45;&gt;Node2544 -->
<g id="edge1" class="edge">
<title>Node2543&#45;&gt;Node2544</title>
<path fill="none" stroke="#191970" d="M105.9975,-65.3961C129.1197,-70.7374 156.0297,-76.9537 177.7882,-81.9799"/>
<polygon fill="#191970" stroke="#191970" points="106.5415,-61.9296 96.0103,-63.089 104.9659,-68.75 106.5415,-61.9296"/>
</g>
<!-- Node2545 -->
<g id="node3" class="node">
<title>Node2545</title>
<g id="a_node3"><a xlink:href="../../db/de5/ml__struct_8h.html#a163f4cd6f19a7420cade23d747900af3" target="_top" xlink:title="ML_Gen_Smoother_ParaSails">
<polygon fill="#ffffff" stroke="#000000" points="145,-44 145,-63 293,-63 293,-44 145,-44"/>
<text text-anchor="middle" x="219" y="-51" font-family="Helvetica,sans-Serif" font-size="10.00" fill="#000000">ML_Gen_Smoother_ParaSails</text>
</a>
</g>
</g>
<!-- Node2543&#45;&gt;Node2545 -->
<g id="edge2" class="edge">
<title>Node2543&#45;&gt;Node2545</title>
<path fill="none" stroke="#191970" d="M119.3389,-53.5C127.7115,-53.5 136.3364,-53.5 144.8446,-53.5"/>
<polygon fill="#191970" stroke="#191970" points="119.2762,-50.0001 109.2761,-53.5 119.2761,-57.0001 119.2762,-50.0001"/>
</g>
<!-- Node2546 -->
<g id="node4" class="node">
<title>Node2546</title>
<g id="a_node4"><a xlink:href="../../d5/da8/ml__operator_8h.html#aeeabb53cb129682cc064945b49a5727d" target="_top" xlink:title="ML_Operator_BlockPartition">
<polygon fill="#ffffff" stroke="#000000" points="149.5,-6 149.5,-25 288.5,-25 288.5,-6 149.5,-6"/>
<text text-anchor="middle" x="219" y="-13" font-family="Helvetica,sans-Serif" font-size="10.00" fill="#000000">ML_Operator_BlockPartition</text>
</a>
</g>
</g>
<!-- Node2543&#45;&gt;Node2546 -->
<g id="edge3" class="edge">
<title>Node2543&#45;&gt;Node2546</title>
<path fill="none" stroke="#191970" d="M105.9975,-41.6039C129.1197,-36.2626 156.0297,-30.0463 177.7882,-25.0201"/>
<polygon fill="#191970" stroke="#191970" points="104.9659,-38.25 96.0103,-43.911 106.5415,-45.0704 104.9659,-38.25"/>
</g>
<!-- Node2547 -->
<g id="node5" class="node">
<title>Node2547</title>
<g id="a_node5"><a xlink:href="../../dd/da4/ml__aggregate_8h.html#a7a28164509bd7eb5d7275c4c6cf0f9f9" target="_top" xlink:title="ML_repartition_matrix">
<polygon fill="#ffffff" stroke="#000000" points="329,-6 329,-25 439,-25 439,-6 329,-6"/>
<text text-anchor="middle" x="384" y="-13" font-family="Helvetica,sans-Serif" font-size="10.00" fill="#000000">ML_repartition_matrix</text>
</a>
</g>
</g>
<!-- Node2546&#45;&gt;Node2547 -->
<g id="edge4" class="edge">
<title>Node2546&#45;&gt;Node2547</title>
<path fill="none" stroke="#191970" d="M299.0493,-15.5C309.1627,-15.5 319.3253,-15.5 328.9284,-15.5"/>
<polygon fill="#191970" stroke="#191970" points="298.9749,-12.0001 288.9749,-15.5 298.9748,-19.0001 298.9749,-12.0001"/>
</g>
<!-- Node2548 -->
<g id="node6" class="node">
<title>Node2548</title>
<g id="a_node6"><a xlink:href="../../dd/da4/ml__aggregate_8h.html#ac05e46fa1422eee300a2f1e53ef5bb75" target="_top" xlink:title="ML_repartition_Acoarse">
<polygon fill="#ffffff" stroke="#000000" points="475,-6 475,-25 594,-25 594,-6 475,-6"/>
<text text-anchor="middle" x="534.5" y="-13" font-family="Helvetica,sans-Serif" font-size="10.00" fill="#000000">ML_repartition_Acoarse</text>
</a>
</g>
</g>
<!-- Node2547&#45;&gt;Node2548 -->
<g id="edge5" class="edge">
<title>Node2547&#45;&gt;Node2548</title>
<path fill="none" stroke="#191970" d="M449.3677,-15.5C457.8073,-15.5 466.4158,-15.5 474.7583,-15.5"/>
<polygon fill="#191970" stroke="#191970" points="449.1861,-12.0001 439.1861,-15.5 449.186,-19.0001 449.1861,-12.0001"/>
</g>
<!-- Node2549 -->
<g id="node7" class="node">
<title>Node2549</title>
<g id="a_node7"><a xlink:href="../../d5/d9b/ml__agg__reitzinger_8h.html#a109c0acc3b9efbf213a9f49d756cdda1" target="_top" xlink:title="ML_Gen_MGHierarchy\l_UsingReitzinger">
<polygon fill="#ffffff" stroke="#000000" points="630,-.5 630,-30.5 746,-30.5 746,-.5 630,-.5"/>
<text text-anchor="start" x="638" y="-18.5" font-family="Helvetica,sans-Serif" font-size="10.00" fill="#000000">ML_Gen_MGHierarchy</text>
<text text-anchor="middle" x="688" y="-7.5" font-family="Helvetica,sans-Serif" font-size="10.00" fill="#000000">_UsingReitzinger</text>
</a>
</g>
</g>
<!-- Node2548&#45;&gt;Node2549 -->
<g id="edge6" class="edge">
<title>Node2548&#45;&gt;Node2549</title>
<path fill="none" stroke="#191970" d="M604.5444,-15.5C613.0216,-15.5 621.6087,-15.5 629.8879,-15.5"/>
<polygon fill="#191970" stroke="#191970" points="604.2867,-12.0001 594.2866,-15.5 604.2866,-19.0001 604.2867,-12.0001"/>
</g>
<!-- Node2550 -->
<g id="node8" class="node">
<title>Node2550</title>
<g id="a_node8"><a xlink:href="../../d5/d21/ml__simple__max_8c.html#a0ddf1224851353fc92bfbff6f499fa97" target="_top" xlink:title="main">
<polygon fill="#ffffff" stroke="#000000" points="782,-6 782,-25 820,-25 820,-6 782,-6"/>
<text text-anchor="middle" x="801" y="-13" font-family="Helvetica,sans-Serif" font-size="10.00" fill="#000000">main</text>
</a>
</g>
</g>
<!-- Node2549&#45;&gt;Node2550 -->
<g id="edge7" class="edge">
<title>Node2549&#45;&gt;Node2550</title>
<path fill="none" stroke="#191970" d="M756.4213,-15.5C765.7649,-15.5 774.6528,-15.5 781.9987,-15.5"/>
<polygon fill="#191970" stroke="#191970" points="756.1551,-12.0001 746.1551,-15.5 756.155,-19.0001 756.1551,-12.0001"/>
</g>
</g>
</svg>
