<?xml version="1.0" encoding="UTF-8" standalone="no"?>
<!DOCTYPE svg PUBLIC "-//W3C//DTD SVG 1.1//EN"
 "http://www.w3.org/Graphics/SVG/1.1/DTD/svg11.dtd">
<!-- Generated by graphviz version 2.40.1 (20161225.0304)
 -->
<!-- Title: fmi1_xml_get_fmu_kind Pages: 1 -->
<svg width="480pt" height="78pt"
 viewBox="0.00 0.00 480.00 77.50" xmlns="http://www.w3.org/2000/svg" xmlns:xlink="http://www.w3.org/1999/xlink">
<g id="graph0" class="graph" transform="scale(1 1) rotate(0) translate(4 73.5)">
<title>fmi1_xml_get_fmu_kind</title>
<polygon fill="#ffffff" stroke="transparent" points="-4,4 -4,-73.5 476,-73.5 476,4 -4,4"/>
<!-- Node14 -->
<g id="node1" class="node">
<title>Node14</title>
<polygon fill="#bfbfbf" stroke="#000000" points="0,-22.5 0,-41.5 120,-41.5 120,-22.5 0,-22.5"/>
<text text-anchor="middle" x="60" y="-29.5" font-family="Helvetica,sans-Serif" font-size="10.00" fill="#000000">fmi1_xml_get_fmu_kind</text>
</g>
<!-- Node15 -->
<g id="node2" class="node">
<title>Node15</title>
<g id="a_node2"><a xlink:href="../../dd/deb/group__fmi1__import__gen.html#ga2dea1dd91855a91a318f8cc763030e05" target="_top" xlink:title="Get the type of the FMU (model exchange or co&#45;simulation) ">
<polygon fill="#ffffff" stroke="#000000" points="156,-22.5 156,-41.5 287,-41.5 287,-22.5 156,-22.5"/>
<text text-anchor="middle" x="221.5" y="-29.5" font-family="Helvetica,sans-Serif" font-size="10.00" fill="#000000">fmi1_import_get_fmu_kind</text>
</a>
</g>
</g>
<!-- Node14&#45;&gt;Node15 -->
<g id="edge1" class="edge">
<title>Node14&#45;&gt;Node15</title>
<path fill="none" stroke="#191970" d="M130.3751,-32C138.8529,-32 147.4859,-32 155.8918,-32"/>
<polygon fill="#191970" stroke="#191970" points="130.1367,-28.5001 120.1366,-32 130.1366,-35.5001 130.1367,-28.5001"/>
</g>
<!-- Node16 -->
<g id="node3" class="node">
<title>Node16</title>
<g id="a_node3"><a xlink:href="../../d9/d62/group__fmi1__import__capi__const__destroy.html#gadfe20b5306d85c18fcddb6578fa27e14" target="_top" xlink:title="Create a C&#45;API struct. The C&#45;API struct is a placeholder for the FMI DLL functions. ">
<polygon fill="#ffffff" stroke="#000000" points="347.5,-39 347.5,-69 447.5,-69 447.5,-39 347.5,-39"/>
<text text-anchor="start" x="355.5" y="-57" font-family="Helvetica,sans-Serif" font-size="10.00" fill="#000000">fmi1_import_create</text>
<text text-anchor="middle" x="397.5" y="-46" font-family="Helvetica,sans-Serif" font-size="10.00" fill="#000000">_dllfmu</text>
</a>
</g>
</g>
<!-- Node15&#45;&gt;Node16 -->
<g id="edge2" class="edge">
<title>Node15&#45;&gt;Node16</title>
<path fill="none" stroke="#191970" d="M296.9623,-41.4328C313.9802,-43.56 331.6368,-45.7671 347.3157,-47.727"/>
<polygon fill="#191970" stroke="#191970" points="297.3928,-37.9595 287.0359,-40.192 296.5245,-44.9054 297.3928,-37.9595"/>
</g>
<!-- Node17 -->
<g id="node4" class="node">
<title>Node17</title>
<g id="a_node4"><a xlink:href="../../df/d24/_f_m_i_impl_8c.html#a5a9bf24e9d1ef4bb15f2b7c01e5a0573" target="_top" xlink:title="FMIImpl__initializeFMI1Import">
<polygon fill="#ffffff" stroke="#000000" points="323,-.5 323,-19.5 472,-19.5 472,-.5 323,-.5"/>
<text text-anchor="middle" x="397.5" y="-7.5" font-family="Helvetica,sans-Serif" font-size="10.00" fill="#000000">FMIImpl__initializeFMI1Import</text>
</a>
</g>
</g>
<!-- Node15&#45;&gt;Node17 -->
<g id="edge3" class="edge">
<title>Node15&#45;&gt;Node17</title>
<path fill="none" stroke="#191970" d="M296.9623,-22.5672C305.4978,-21.5003 314.1939,-20.4133 322.7206,-19.3474"/>
<polygon fill="#191970" stroke="#191970" points="296.5245,-19.0946 287.0359,-23.808 297.3928,-26.0405 296.5245,-19.0946"/>
</g>
</g>
</svg>
