<?xml version="1.0" encoding="UTF-8" standalone="no"?>
<!DOCTYPE svg PUBLIC "-//W3C//DTD SVG 1.1//EN"
 "http://www.w3.org/Graphics/SVG/1.1/DTD/svg11.dtd">
<!-- Generated by graphviz version 2.40.1 (20161225.0304)
 -->
<!-- Title: lis_vector_axpy Pages: 1 -->
<svg width="222pt" height="484pt"
 viewBox="0.00 0.00 222.00 484.00" xmlns="http://www.w3.org/2000/svg" xmlns:xlink="http://www.w3.org/1999/xlink">
<g id="graph0" class="graph" transform="scale(1 1) rotate(0) translate(4 480)">
<title>lis_vector_axpy</title>
<polygon fill="#ffffff" stroke="transparent" points="-4,4 -4,-480 218,-480 218,4 -4,4"/>
<!-- Node5035 -->
<g id="node1" class="node">
<title>Node5035</title>
<polygon fill="#bfbfbf" stroke="#000000" points="0,-228.5 0,-247.5 85,-247.5 85,-228.5 0,-228.5"/>
<text text-anchor="middle" x="42.5" y="-235.5" font-family="Helvetica,sans-Serif" font-size="10.00" fill="#000000">lis_vector_axpy</text>
</g>
<!-- Node5036 -->
<g id="node2" class="node">
<title>Node5036</title>
<g id="a_node2"><a xlink:href="../../d1/d1a/lis__esolver__si_8c.html#a60e212a72d342783da0ad3a7b17b5fa0" target="_top" xlink:title="lis_esi">
<polygon fill="#ffffff" stroke="#000000" points="145.5,-456.5 145.5,-475.5 189.5,-475.5 189.5,-456.5 145.5,-456.5"/>
<text text-anchor="middle" x="167.5" y="-463.5" font-family="Helvetica,sans-Serif" font-size="10.00" fill="#000000">lis_esi</text>
</a>
</g>
</g>
<!-- Node5035&#45;&gt;Node5036 -->
<g id="edge1" class="edge">
<title>Node5035&#45;&gt;Node5036</title>
<path fill="none" stroke="#191970" d="M44.6465,-257.7561C50.0717,-298.45 67.9141,-392.3735 121,-447 127.5639,-453.7544 136.8656,-458.1914 145.4267,-461.0641"/>
<polygon fill="#191970" stroke="#191970" points="48.1131,-257.2687 43.4266,-247.7667 41.1647,-258.1173 48.1131,-257.2687"/>
</g>
<!-- Node5037 -->
<g id="node3" class="node">
<title>Node5037</title>
<g id="a_node3"><a xlink:href="../../d6/da8/lisf__vector_8c.html#aa84fa284e9fd4a9fe13511636a04e1c4" target="_top" xlink:title="lis_vector_axpy_f">
<polygon fill="#ffffff" stroke="#000000" points="121,-418.5 121,-437.5 214,-437.5 214,-418.5 121,-418.5"/>
<text text-anchor="middle" x="167.5" y="-425.5" font-family="Helvetica,sans-Serif" font-size="10.00" fill="#000000">lis_vector_axpy_f</text>
</a>
</g>
</g>
<!-- Node5035&#45;&gt;Node5037 -->
<g id="edge2" class="edge">
<title>Node5035&#45;&gt;Node5037</title>
<path fill="none" stroke="#191970" d="M46.4772,-257.4563C54.5649,-292.3573 76.0979,-365.9653 121,-409 125.0295,-412.8619 129.9505,-415.9804 135.0654,-418.4857"/>
<polygon fill="#191970" stroke="#191970" points="49.8709,-256.5916 44.3112,-247.5727 43.0331,-258.0902 49.8709,-256.5916"/>
</g>
<!-- Node5038 -->
<g id="node4" class="node">
<title>Node5038</title>
<g id="a_node4"><a xlink:href="../../d7/db6/lis__solver__bicg_8c.html#a6909461843b114e09b33c4461f56b9b2" target="_top" xlink:title="lis_bicg">
<polygon fill="#ffffff" stroke="#000000" points="142.5,-380.5 142.5,-399.5 192.5,-399.5 192.5,-380.5 142.5,-380.5"/>
<text text-anchor="middle" x="167.5" y="-387.5" font-family="Helvetica,sans-Serif" font-size="10.00" fill="#000000">lis_bicg</text>
</a>
</g>
</g>
<!-- Node5035&#45;&gt;Node5038 -->
<g id="edge3" class="edge">
<title>Node5035&#45;&gt;Node5038</title>
<path fill="none" stroke="#191970" d="M49.3309,-257.438C60.2739,-285.9842 84.3058,-339.2846 121,-371 127.0701,-376.2465 134.7828,-380.1759 142.1735,-383.0573"/>
<polygon fill="#191970" stroke="#191970" points="52.5227,-255.9773 45.7786,-247.8061 45.9551,-258.3995 52.5227,-255.9773"/>
</g>
<!-- Node5039 -->
<g id="node5" class="node">
<title>Node5039</title>
<g id="a_node5"><a xlink:href="../../d7/db6/lis__solver__bicg_8c.html#a8880240855c7df4099f166d977eb2369" target="_top" xlink:title="lis_bicg_switch">
<polygon fill="#ffffff" stroke="#000000" points="126,-342.5 126,-361.5 209,-361.5 209,-342.5 126,-342.5"/>
<text text-anchor="middle" x="167.5" y="-349.5" font-family="Helvetica,sans-Serif" font-size="10.00" fill="#000000">lis_bicg_switch</text>
</a>
</g>
</g>
<!-- Node5035&#45;&gt;Node5039 -->
<g id="edge4" class="edge">
<title>Node5035&#45;&gt;Node5039</title>
<path fill="none" stroke="#191970" d="M53.6284,-256.3227C67.2155,-277.3518 92.002,-311.6764 121,-333 126.0586,-336.7198 131.9499,-339.8501 137.8054,-342.4283"/>
<polygon fill="#191970" stroke="#191970" points="56.4859,-254.2919 48.1989,-247.6907 50.5606,-258.019 56.4859,-254.2919"/>
</g>
<!-- Node5040 -->
<g id="node6" class="node">
<title>Node5040</title>
<g id="a_node6"><a xlink:href="../../d7/db6/lis__solver__bicg_8c.html#a192c1847d290c0f4111811df47162b87" target="_top" xlink:title="lis_bicr">
<polygon fill="#ffffff" stroke="#000000" points="144,-304.5 144,-323.5 191,-323.5 191,-304.5 144,-304.5"/>
<text text-anchor="middle" x="167.5" y="-311.5" font-family="Helvetica,sans-Serif" font-size="10.00" fill="#000000">lis_bicr</text>
</a>
</g>
</g>
<!-- Node5035&#45;&gt;Node5040 -->
<g id="edge5" class="edge">
<title>Node5035&#45;&gt;Node5040</title>
<path fill="none" stroke="#191970" d="M62.0638,-254.2531C77.4301,-266.5007 99.7186,-283.1527 121,-295 128.1625,-298.9873 136.3345,-302.6082 143.8089,-305.5941"/>
<polygon fill="#191970" stroke="#191970" points="63.8497,-251.1955 53.8762,-247.6206 59.4435,-256.6348 63.8497,-251.1955"/>
</g>
<!-- Node5041 -->
<g id="node7" class="node">
<title>Node5041</title>
<g id="a_node7"><a xlink:href="../../d4/d10/lis__solver__bicgsafe_8c.html#a9abbfd12f5feaaadc146a000ce74d16a" target="_top" xlink:title="lis_bicrsafe">
<polygon fill="#ffffff" stroke="#000000" points="134.5,-266.5 134.5,-285.5 200.5,-285.5 200.5,-266.5 134.5,-266.5"/>
<text text-anchor="middle" x="167.5" y="-273.5" font-family="Helvetica,sans-Serif" font-size="10.00" fill="#000000">lis_bicrsafe</text>
</a>
</g>
</g>
<!-- Node5035&#45;&gt;Node5041 -->
<g id="edge6" class="edge">
<title>Node5035&#45;&gt;Node5041</title>
<path fill="none" stroke="#191970" d="M83.7345,-250.5353C100.7393,-255.7048 120.1286,-261.5991 135.9673,-266.4141"/>
<polygon fill="#191970" stroke="#191970" points="84.6285,-247.149 74.0428,-247.589 82.5924,-253.8463 84.6285,-247.149"/>
</g>
<!-- Node5042 -->
<g id="node8" class="node">
<title>Node5042</title>
<g id="a_node8"><a xlink:href="../../d3/deb/lis__solver__bicgstab_8c.html#a9272aaf9a482d1069e9bd6b0be27f01d" target="_top" xlink:title="lis_bicrstab">
<polygon fill="#ffffff" stroke="#000000" points="134.5,-228.5 134.5,-247.5 200.5,-247.5 200.5,-228.5 134.5,-228.5"/>
<text text-anchor="middle" x="167.5" y="-235.5" font-family="Helvetica,sans-Serif" font-size="10.00" fill="#000000">lis_bicrstab</text>
</a>
</g>
</g>
<!-- Node5035&#45;&gt;Node5042 -->
<g id="edge7" class="edge">
<title>Node5035&#45;&gt;Node5042</title>
<path fill="none" stroke="#191970" d="M95.1965,-238C108.5199,-238 122.4528,-238 134.4917,-238"/>
<polygon fill="#191970" stroke="#191970" points="95.1683,-234.5001 85.1683,-238 95.1683,-241.5001 95.1683,-234.5001"/>
</g>
<!-- Node5043 -->
<g id="node9" class="node">
<title>Node5043</title>
<g id="a_node9"><a xlink:href="../../d1/d61/lis__solver__cg_8c.html#a90d7f42acb21a11b0ba25521f4499445" target="_top" xlink:title="lis_cg">
<polygon fill="#ffffff" stroke="#000000" points="146.5,-190.5 146.5,-209.5 188.5,-209.5 188.5,-190.5 146.5,-190.5"/>
<text text-anchor="middle" x="167.5" y="-197.5" font-family="Helvetica,sans-Serif" font-size="10.00" fill="#000000">lis_cg</text>
</a>
</g>
</g>
<!-- Node5035&#45;&gt;Node5043 -->
<g id="edge8" class="edge">
<title>Node5035&#45;&gt;Node5043</title>
<path fill="none" stroke="#191970" d="M83.6581,-225.4879C104.5617,-219.1332 129.0849,-211.6782 146.1892,-206.4785"/>
<polygon fill="#191970" stroke="#191970" points="82.5924,-222.1537 74.0428,-228.411 84.6285,-228.851 82.5924,-222.1537"/>
</g>
<!-- Node5044 -->
<g id="node10" class="node">
<title>Node5044</title>
<g id="a_node10"><a xlink:href="../../d1/d61/lis__solver__cg_8c.html#a678c33e717e8b8990ef1984d1399921d" target="_top" xlink:title="lis_cg_switch">
<polygon fill="#ffffff" stroke="#000000" points="129.5,-152.5 129.5,-171.5 205.5,-171.5 205.5,-152.5 129.5,-152.5"/>
<text text-anchor="middle" x="167.5" y="-159.5" font-family="Helvetica,sans-Serif" font-size="10.00" fill="#000000">lis_cg_switch</text>
</a>
</g>
</g>
<!-- Node5035&#45;&gt;Node5044 -->
<g id="edge9" class="edge">
<title>Node5035&#45;&gt;Node5044</title>
<path fill="none" stroke="#191970" d="M62.0638,-221.7469C77.4301,-209.4993 99.7186,-192.8473 121,-181 127.2481,-177.5217 134.2645,-174.3223 140.9158,-171.5799"/>
<polygon fill="#191970" stroke="#191970" points="59.4435,-219.3652 53.8762,-228.3794 63.8497,-224.8045 59.4435,-219.3652"/>
</g>
<!-- Node5045 -->
<g id="node11" class="node">
<title>Node5045</title>
<g id="a_node11"><a xlink:href="../../d1/d61/lis__solver__cg_8c.html#a691fd89914052b37ca656b1addf5524d" target="_top" xlink:title="lis_cr">
<polygon fill="#ffffff" stroke="#000000" points="147.5,-114.5 147.5,-133.5 187.5,-133.5 187.5,-114.5 147.5,-114.5"/>
<text text-anchor="middle" x="167.5" y="-121.5" font-family="Helvetica,sans-Serif" font-size="10.00" fill="#000000">lis_cr</text>
</a>
</g>
</g>
<!-- Node5035&#45;&gt;Node5045 -->
<g id="edge10" class="edge">
<title>Node5035&#45;&gt;Node5045</title>
<path fill="none" stroke="#191970" d="M53.6284,-219.6773C67.2155,-198.6482 92.002,-164.3236 121,-143 128.8689,-137.2137 138.7529,-132.8536 147.3826,-129.7795"/>
<polygon fill="#191970" stroke="#191970" points="50.5606,-217.981 48.1989,-228.3093 56.4859,-221.7081 50.5606,-217.981"/>
</g>
<!-- Node5046 -->
<g id="node12" class="node">
<title>Node5046</title>
<g id="a_node12"><a xlink:href="../../da/df7/lis__solver__cgs_8c.html#a7c0e693972d8cb54ccd256dc7542e878" target="_top" xlink:title="lis_cgs">
<polygon fill="#ffffff" stroke="#000000" points="144,-76.5 144,-95.5 191,-95.5 191,-76.5 144,-76.5"/>
<text text-anchor="middle" x="167.5" y="-83.5" font-family="Helvetica,sans-Serif" font-size="10.00" fill="#000000">lis_cgs</text>
</a>
</g>
</g>
<!-- Node5035&#45;&gt;Node5046 -->
<g id="edge11" class="edge">
<title>Node5035&#45;&gt;Node5046</title>
<path fill="none" stroke="#191970" d="M49.3309,-218.562C60.2739,-190.0158 84.3058,-136.7154 121,-105 127.4659,-99.4114 135.7958,-95.3172 143.6149,-92.3922"/>
<polygon fill="#191970" stroke="#191970" points="45.9551,-217.6005 45.7786,-228.1939 52.5227,-220.0227 45.9551,-217.6005"/>
</g>
<!-- Node5047 -->
<g id="node13" class="node">
<title>Node5047</title>
<g id="a_node13"><a xlink:href="../../da/df7/lis__solver__cgs_8c.html#abf5fbe4454974e160766a7d7018660fc" target="_top" xlink:title="lis_cgs_switch">
<polygon fill="#ffffff" stroke="#000000" points="127,-38.5 127,-57.5 208,-57.5 208,-38.5 127,-38.5"/>
<text text-anchor="middle" x="167.5" y="-45.5" font-family="Helvetica,sans-Serif" font-size="10.00" fill="#000000">lis_cgs_switch</text>
</a>
</g>
</g>
<!-- Node5035&#45;&gt;Node5047 -->
<g id="edge12" class="edge">
<title>Node5035&#45;&gt;Node5047</title>
<path fill="none" stroke="#191970" d="M46.4772,-218.5437C54.5649,-183.6427 76.0979,-110.0347 121,-67 125.0295,-63.1381 129.9505,-60.0196 135.0654,-57.5143"/>
<polygon fill="#191970" stroke="#191970" points="43.0331,-217.9098 44.3112,-228.4273 49.8709,-219.4084 43.0331,-217.9098"/>
</g>
<!-- Node5048 -->
<g id="node14" class="node">
<title>Node5048</title>
<g id="a_node14"><a xlink:href="../../da/df7/lis__solver__cgs_8c.html#aaa74d5d04f18cd5ed83a1a3c86fc9f8d" target="_top" xlink:title="lis_crs">
<polygon fill="#ffffff" stroke="#000000" points="145,-.5 145,-19.5 190,-19.5 190,-.5 145,-.5"/>
<text text-anchor="middle" x="167.5" y="-7.5" font-family="Helvetica,sans-Serif" font-size="10.00" fill="#000000">lis_crs</text>
</a>
</g>
</g>
<!-- Node5035&#45;&gt;Node5048 -->
<g id="edge13" class="edge">
<title>Node5035&#45;&gt;Node5048</title>
<path fill="none" stroke="#191970" d="M44.6465,-218.2439C50.0717,-177.55 67.9141,-83.6265 121,-29 127.4424,-22.3706 136.522,-17.9737 144.9503,-15.0971"/>
<polygon fill="#191970" stroke="#191970" points="41.1647,-217.8827 43.4266,-228.2333 48.1131,-218.7313 41.1647,-217.8827"/>
</g>
</g>
</svg>
