<?xml version="1.0" encoding="UTF-8" standalone="no"?>
<!DOCTYPE svg PUBLIC "-//W3C//DTD SVG 1.1//EN"
 "http://www.w3.org/Graphics/SVG/1.1/DTD/svg11.dtd">
<!-- Generated by graphviz version 2.40.1 (20161225.0304)
 -->
<!-- Title: CHKERR Pages: 1 -->
<svg width="548pt" height="218pt"
 viewBox="0.00 0.00 548.00 218.00" xmlns="http://www.w3.org/2000/svg" xmlns:xlink="http://www.w3.org/1999/xlink">
<g id="graph0" class="graph" transform="scale(1 1) rotate(0) translate(4 214)">
<title>CHKERR</title>
<polygon fill="#ffffff" stroke="transparent" points="-4,4 -4,-214 544,-214 544,4 -4,4"/>
<!-- Node0 -->
<g id="node1" class="node">
<title>Node0</title>
<polygon fill="#bfbfbf" stroke="#000000" points="0,-95.5 0,-114.5 60,-114.5 60,-95.5 0,-95.5"/>
<text text-anchor="middle" x="30" y="-102.5" font-family="Helvetica,sans-Serif" font-size="10.00" fill="#000000">CHKERR</text>
</g>
<!-- Node1 -->
<g id="node2" class="node">
<title>Node1</title>
<g id="a_node2"><a xlink:href="../../d3/d33/lis_8h.html#a952bea9fd9fcb67b0e061e3d34fdad21" target="_top" xlink:title="lis_finalize">
<polygon fill="#ffffff" stroke="#000000" points="96,-95.5 96,-114.5 158,-114.5 158,-95.5 96,-95.5"/>
<text text-anchor="middle" x="127" y="-102.5" font-family="Helvetica,sans-Serif" font-size="10.00" fill="#000000">lis_finalize</text>
</a>
</g>
</g>
<!-- Node0&#45;&gt;Node1 -->
<g id="edge1" class="edge">
<title>Node0&#45;&gt;Node1</title>
<path fill="none" stroke="#191970" d="M60.1597,-105C68.2255,-105 77.085,-105 85.6413,-105"/>
<polygon fill="#191970" stroke="#191970" points="85.8541,-108.5001 95.8541,-105 85.854,-101.5001 85.8541,-108.5001"/>
</g>
<!-- Node2 -->
<g id="node3" class="node">
<title>Node2</title>
<g id="a_node3"><a xlink:href="../../d3/d33/lis_8h.html#ac42eda4c538f9dfea0dee7df2e5a04d3" target="_top" xlink:title="lis_precon_register_free">
<polygon fill="#ffffff" stroke="#000000" points="198,-190.5 198,-209.5 318,-209.5 318,-190.5 198,-190.5"/>
<text text-anchor="middle" x="258" y="-197.5" font-family="Helvetica,sans-Serif" font-size="10.00" fill="#000000">lis_precon_register_free</text>
</a>
</g>
</g>
<!-- Node1&#45;&gt;Node2 -->
<g id="edge2" class="edge">
<title>Node1&#45;&gt;Node2</title>
<path fill="none" stroke="#191970" d="M133.755,-114.5934C144.7785,-129.6119 168.028,-158.7389 194,-176 200.1831,-180.1093 207.1664,-183.6435 214.1895,-186.6382"/>
<polygon fill="#191970" stroke="#191970" points="213.1328,-189.9836 223.7198,-190.3909 215.6976,-183.4704 213.1328,-189.9836"/>
</g>
<!-- Node3 -->
<g id="node4" class="node">
<title>Node3</title>
<g id="a_node4"><a xlink:href="../../d3/d33/lis_8h.html#af0814bbca0c23cdf4038206adf4cb94a" target="_top" xlink:title="lis_free">
<polygon fill="#ffffff" stroke="#000000" points="360.5,-152.5 360.5,-171.5 408.5,-171.5 408.5,-152.5 360.5,-152.5"/>
<text text-anchor="middle" x="384.5" y="-159.5" font-family="Helvetica,sans-Serif" font-size="10.00" fill="#000000">lis_free</text>
</a>
</g>
</g>
<!-- Node1&#45;&gt;Node3 -->
<g id="edge6" class="edge">
<title>Node1&#45;&gt;Node3</title>
<path fill="none" stroke="#191970" d="M140.0856,-114.6296C153.0613,-123.6262 173.8635,-136.6015 194,-143 246.6965,-159.7447 311.3512,-162.7502 350.1689,-162.8019"/>
<polygon fill="#191970" stroke="#191970" points="350.4198,-166.3007 360.4009,-162.7471 350.3823,-159.3008 350.4198,-166.3007"/>
</g>
<!-- Node5 -->
<g id="node6" class="node">
<title>Node5</title>
<g id="a_node6"><a xlink:href="../../db/d71/lis__init_8c.html#aef2879fb461a62ec3211bda4095b501d" target="_top" xlink:title="lis_args_free">
<polygon fill="#ffffff" stroke="#000000" points="222,-114.5 222,-133.5 294,-133.5 294,-114.5 222,-114.5"/>
<text text-anchor="middle" x="258" y="-121.5" font-family="Helvetica,sans-Serif" font-size="10.00" fill="#000000">lis_args_free</text>
</a>
</g>
</g>
<!-- Node1&#45;&gt;Node5 -->
<g id="edge5" class="edge">
<title>Node1&#45;&gt;Node5</title>
<path fill="none" stroke="#191970" d="M158.0452,-109.5027C173.9837,-111.8144 193.7272,-114.678 211.4467,-117.248"/>
<polygon fill="#191970" stroke="#191970" points="211.2028,-120.7492 221.6016,-118.7208 212.2076,-113.8216 211.2028,-120.7492"/>
</g>
<!-- Node6 -->
<g id="node7" class="node">
<title>Node6</title>
<g id="a_node7"><a xlink:href="../../d0/d8b/lis__precision_8h.html#a850848e079eed39d8a6a6955c24e948e" target="_top" xlink:title="lis_quad_x87_fpu_finalize">
<polygon fill="#ffffff" stroke="#000000" points="194,-76.5 194,-95.5 322,-95.5 322,-76.5 194,-76.5"/>
<text text-anchor="middle" x="258" y="-83.5" font-family="Helvetica,sans-Serif" font-size="10.00" fill="#000000">lis_quad_x87_fpu_finalize</text>
</a>
</g>
</g>
<!-- Node1&#45;&gt;Node6 -->
<g id="edge7" class="edge">
<title>Node1&#45;&gt;Node6</title>
<path fill="none" stroke="#191970" d="M158.0452,-100.4973C165.9908,-99.3449 174.882,-98.0553 183.9967,-96.7333"/>
<polygon fill="#191970" stroke="#191970" points="184.5466,-100.1903 193.9406,-95.2911 183.5417,-93.2627 184.5466,-100.1903"/>
</g>
<!-- Node7 -->
<g id="node8" class="node">
<title>Node7</title>
<g id="a_node8"><a xlink:href="../../dd/ddd/lis__system_8h.html#a5179b1aa24ae67ff355b90b60dc4cc7b" target="_top" xlink:title="lis_free_all">
<polygon fill="#ffffff" stroke="#000000" points="226.5,-38.5 226.5,-57.5 289.5,-57.5 289.5,-38.5 226.5,-38.5"/>
<text text-anchor="middle" x="258" y="-45.5" font-family="Helvetica,sans-Serif" font-size="10.00" fill="#000000">lis_free_all</text>
</a>
</g>
</g>
<!-- Node1&#45;&gt;Node7 -->
<g id="edge8" class="edge">
<title>Node1&#45;&gt;Node7</title>
<path fill="none" stroke="#191970" d="M141.6672,-95.3856C154.9183,-87.0189 175.1731,-75.01 194,-67 201.1191,-63.9712 208.8768,-61.2301 216.4561,-58.8326"/>
<polygon fill="#191970" stroke="#191970" points="217.6826,-62.1186 226.2484,-55.8835 215.6639,-55.4159 217.6826,-62.1186"/>
</g>
<!-- Node11 -->
<g id="node12" class="node">
<title>Node11</title>
<g id="a_node12"><a xlink:href="../../d4/d44/include_2coin_2_third_party_2mpi_8h.html#a91a0cf5613b31a183a5453446191f1df" target="_top" xlink:title="MPI_Finalize">
<polygon fill="#ffffff" stroke="#000000" points="221,-.5 221,-19.5 295,-19.5 295,-.5 221,-.5"/>
<text text-anchor="middle" x="258" y="-7.5" font-family="Helvetica,sans-Serif" font-size="10.00" fill="#000000">MPI_Finalize</text>
</a>
</g>
</g>
<!-- Node1&#45;&gt;Node11 -->
<g id="edge13" class="edge">
<title>Node1&#45;&gt;Node11</title>
<path fill="none" stroke="#191970" d="M132.9368,-95.2716C143.3068,-79.0971 166.2796,-46.7061 194,-29 199.3204,-25.6016 205.2741,-22.7892 211.3508,-20.4673"/>
<polygon fill="#191970" stroke="#191970" points="212.5881,-23.7435 220.9276,-17.2086 210.3331,-17.1166 212.5881,-23.7435"/>
</g>
<!-- Node2&#45;&gt;Node3 -->
<g id="edge3" class="edge">
<title>Node2&#45;&gt;Node3</title>
<path fill="none" stroke="#191970" d="M289.9213,-190.411C308.4098,-184.8571 331.6764,-177.868 350.5061,-172.2116"/>
<polygon fill="#191970" stroke="#191970" points="351.6048,-175.5362 360.175,-169.3071 349.5909,-168.8321 351.6048,-175.5362"/>
</g>
<!-- Node4 -->
<g id="node5" class="node">
<title>Node4</title>
<g id="a_node5"><a xlink:href="../../dc/ddc/3rd_party_2flex-2_85_835_2parse_8c.html#af07d89f5ceaea0c7c8252cc41fd75f37" target="_top" xlink:title="free">
<polygon fill="#ffffff" stroke="#000000" points="477,-123.5 477,-142.5 510,-142.5 510,-123.5 477,-123.5"/>
<text text-anchor="middle" x="493.5" y="-130.5" font-family="Helvetica,sans-Serif" font-size="10.00" fill="#000000">free</text>
</a>
</g>
</g>
<!-- Node3&#45;&gt;Node4 -->
<g id="edge4" class="edge">
<title>Node3&#45;&gt;Node4</title>
<path fill="none" stroke="#191970" d="M408.6906,-155.564C425.9923,-150.9608 449.2697,-144.7677 467.0609,-140.0343"/>
<polygon fill="#191970" stroke="#191970" points="468.0515,-143.3925 476.8155,-137.439 466.2517,-136.6279 468.0515,-143.3925"/>
</g>
<!-- Node8 -->
<g id="node9" class="node">
<title>Node8</title>
<g id="a_node9"><a xlink:href="../../dd/ddd/lis__system_8h.html#a2a30f959169ad86b4d3ee5c8262eb4d5" target="_top" xlink:title="lis_printf">
<polygon fill="#ffffff" stroke="#000000" points="358,-38.5 358,-57.5 411,-57.5 411,-38.5 358,-38.5"/>
<text text-anchor="middle" x="384.5" y="-45.5" font-family="Helvetica,sans-Serif" font-size="10.00" fill="#000000">lis_printf</text>
</a>
</g>
</g>
<!-- Node7&#45;&gt;Node8 -->
<g id="edge9" class="edge">
<title>Node7&#45;&gt;Node8</title>
<path fill="none" stroke="#191970" d="M289.595,-48C307.1726,-48 329.1449,-48 347.5199,-48"/>
<polygon fill="#191970" stroke="#191970" points="347.5844,-51.5001 357.5843,-48 347.5843,-44.5001 347.5844,-51.5001"/>
</g>
<!-- Node10 -->
<g id="node11" class="node">
<title>Node10</title>
<g id="a_node11"><a xlink:href="../../d8/d27/lis__memory_8c.html#af0814bbca0c23cdf4038206adf4cb94a" target="_top" xlink:title="lis_free">
<polygon fill="#ffffff" stroke="#000000" points="360.5,-95.5 360.5,-114.5 408.5,-114.5 408.5,-95.5 360.5,-95.5"/>
<text text-anchor="middle" x="384.5" y="-102.5" font-family="Helvetica,sans-Serif" font-size="10.00" fill="#000000">lis_free</text>
</a>
</g>
</g>
<!-- Node7&#45;&gt;Node10 -->
<g id="edge11" class="edge">
<title>Node7&#45;&gt;Node10</title>
<path fill="none" stroke="#191970" d="M289.5041,-55.6089C300.0452,-58.6103 311.7227,-62.442 322,-67 336.1061,-73.256 350.9027,-82.1348 362.556,-89.7369"/>
<polygon fill="#191970" stroke="#191970" points="360.896,-92.8372 371.1546,-95.4854 364.7865,-87.0179 360.896,-92.8372"/>
</g>
<!-- Node9 -->
<g id="node10" class="node">
<title>Node9</title>
<g id="a_node10"><a xlink:href="../../d4/d44/include_2coin_2_third_party_2mpi_8h.html#a0c048fc98d42d9cf82f89f4296acd906" target="_top" xlink:title="MPI_Comm_rank">
<polygon fill="#ffffff" stroke="#000000" points="447,-38.5 447,-57.5 540,-57.5 540,-38.5 447,-38.5"/>
<text text-anchor="middle" x="493.5" y="-45.5" font-family="Helvetica,sans-Serif" font-size="10.00" fill="#000000">MPI_Comm_rank</text>
</a>
</g>
</g>
<!-- Node8&#45;&gt;Node9 -->
<g id="edge10" class="edge">
<title>Node8&#45;&gt;Node9</title>
<path fill="none" stroke="#191970" d="M411.1644,-48C418.9491,-48 427.7695,-48 436.6729,-48"/>
<polygon fill="#191970" stroke="#191970" points="436.7096,-51.5001 446.7096,-48 436.7096,-44.5001 436.7096,-51.5001"/>
</g>
<!-- Node10&#45;&gt;Node4 -->
<g id="edge12" class="edge">
<title>Node10&#45;&gt;Node4</title>
<path fill="none" stroke="#191970" d="M408.6906,-111.2141C425.9923,-115.6586 449.2697,-121.6381 467.0609,-126.2083"/>
<polygon fill="#191970" stroke="#191970" points="466.2591,-129.6159 476.8155,-128.7141 468.0007,-122.836 466.2591,-129.6159"/>
</g>
</g>
</svg>
