<?xml version="1.0" encoding="UTF-8" standalone="no"?>
<!DOCTYPE svg PUBLIC "-//W3C//DTD SVG 1.1//EN"
 "http://www.w3.org/Graphics/SVG/1.1/DTD/svg11.dtd">
<!-- Generated by graphviz version 2.40.1 (20161225.0304)
 -->
<!-- Title: lis_matrix_destroy Pages: 1 -->
<svg width="681pt" height="213pt"
 viewBox="0.00 0.00 681.00 213.27" xmlns="http://www.w3.org/2000/svg" xmlns:xlink="http://www.w3.org/1999/xlink">
<g id="graph0" class="graph" transform="scale(1 1) rotate(0) translate(4 209.2666)">
<title>lis_matrix_destroy</title>
<polygon fill="#ffffff" stroke="transparent" points="-4,4 -4,-209.2666 677,-209.2666 677,4 -4,4"/>
<!-- Node2236 -->
<g id="node1" class="node">
<title>Node2236</title>
<polygon fill="#bfbfbf" stroke="#000000" points="0,-90.7666 0,-109.7666 96,-109.7666 96,-90.7666 0,-90.7666"/>
<text text-anchor="middle" x="48" y="-97.7666" font-family="Helvetica,sans-Serif" font-size="10.00" fill="#000000">lis_matrix_destroy</text>
</g>
<!-- Node2237 -->
<g id="node2" class="node">
<title>Node2237</title>
<g id="a_node2"><a xlink:href="../../d3/d33/lis_8h.html#aea2822ab3eb67aea22617f58c3693eba" target="_top" xlink:title="lis_is_malloc">
<polygon fill="#ffffff" stroke="#000000" points="156.5,-185.7666 156.5,-204.7666 229.5,-204.7666 229.5,-185.7666 156.5,-185.7666"/>
<text text-anchor="middle" x="193" y="-192.7666" font-family="Helvetica,sans-Serif" font-size="10.00" fill="#000000">lis_is_malloc</text>
</a>
</g>
</g>
<!-- Node2236&#45;&gt;Node2237 -->
<g id="edge1" class="edge">
<title>Node2236&#45;&gt;Node2237</title>
<path fill="none" stroke="#191970" d="M57.519,-110.1685C72.2934,-125.0809 102.1617,-153.4503 132,-171.2666 138.5833,-175.1975 145.9266,-178.7217 153.1738,-181.7809"/>
<polygon fill="#191970" stroke="#191970" points="152.331,-185.2125 162.9165,-185.659 154.9199,-178.7088 152.331,-185.2125"/>
</g>
<!-- Node2238 -->
<g id="node3" class="node">
<title>Node2238</title>
<g id="a_node3"><a xlink:href="../../db/df9/lis__matrix_8c.html#a5bdaf642483209f45b8358b96c45f55b" target="_top" xlink:title="lis_matrix_storage\l_destroy">
<polygon fill="#ffffff" stroke="#000000" points="301.5,-148.2666 301.5,-178.2666 397.5,-178.2666 397.5,-148.2666 301.5,-148.2666"/>
<text text-anchor="start" x="309.5" y="-166.2666" font-family="Helvetica,sans-Serif" font-size="10.00" fill="#000000">lis_matrix_storage</text>
<text text-anchor="middle" x="349.5" y="-155.2666" font-family="Helvetica,sans-Serif" font-size="10.00" fill="#000000">_destroy</text>
</a>
</g>
</g>
<!-- Node2236&#45;&gt;Node2238 -->
<g id="edge2" class="edge">
<title>Node2236&#45;&gt;Node2238</title>
<path fill="none" stroke="#191970" d="M80.5475,-109.8748C96.051,-114.2723 114.9011,-119.3609 132,-123.2666 185.6497,-135.5213 247.4064,-146.5928 291.3732,-153.9642"/>
<polygon fill="#191970" stroke="#191970" points="290.8725,-157.429 301.3115,-155.6183 292.0218,-150.524 290.8725,-157.429"/>
</g>
<!-- Node2239 -->
<g id="node4" class="node">
<title>Node2239</title>
<g id="a_node4"><a xlink:href="../../d3/d33/lis_8h.html#af0814bbca0c23cdf4038206adf4cb94a" target="_top" xlink:title="lis_free">
<polygon fill="#ffffff" stroke="#000000" points="447.5,-71.7666 447.5,-90.7666 495.5,-90.7666 495.5,-71.7666 447.5,-71.7666"/>
<text text-anchor="middle" x="471.5" y="-78.7666" font-family="Helvetica,sans-Serif" font-size="10.00" fill="#000000">lis_free</text>
</a>
</g>
</g>
<!-- Node2236&#45;&gt;Node2239 -->
<g id="edge18" class="edge">
<title>Node2236&#45;&gt;Node2239</title>
<path fill="none" stroke="#191970" d="M54.7169,-90.6675C67.4412,-73.4297 96.9483,-37.77 132,-24.2666 247.151,20.0944 292.424,-2.7982 409,-43.2666 424.1044,-48.51 439.4695,-57.7875 451.1853,-65.8627"/>
<polygon fill="#191970" stroke="#191970" points="449.1988,-68.745 459.3683,-71.7168 453.2716,-63.0518 449.1988,-68.745"/>
</g>
<!-- Node2244 -->
<g id="node9" class="node">
<title>Node2244</title>
<g id="a_node9"><a xlink:href="../../db/df9/lis__matrix_8c.html#a6257d38b74f6ffe4b17da444cbfcf891" target="_top" xlink:title="lis_matrix_DLU_destroy">
<polygon fill="#ffffff" stroke="#000000" points="132,-71.7666 132,-90.7666 254,-90.7666 254,-71.7666 132,-71.7666"/>
<text text-anchor="middle" x="193" y="-78.7666" font-family="Helvetica,sans-Serif" font-size="10.00" fill="#000000">lis_matrix_DLU_destroy</text>
</a>
</g>
</g>
<!-- Node2236&#45;&gt;Node2244 -->
<g id="edge10" class="edge">
<title>Node2236&#45;&gt;Node2244</title>
<path fill="none" stroke="#191970" d="M96.2829,-93.9399C104.4544,-92.8691 113.0895,-91.7376 121.7021,-90.6091"/>
<polygon fill="#191970" stroke="#191970" points="122.3124,-94.0591 131.7729,-89.2895 121.4029,-87.1185 122.3124,-94.0591"/>
</g>
<!-- Node2245 -->
<g id="node10" class="node">
<title>Node2245</title>
<g id="a_node10"><a xlink:href="../../d1/d1f/lis__matrix_8h.html#ae168ace8efd42f2053ec267262ed32cf" target="_top" xlink:title="lis_matrix_diag_destroy">
<polygon fill="#ffffff" stroke="#000000" points="290,-109.7666 290,-128.7666 409,-128.7666 409,-109.7666 290,-109.7666"/>
<text text-anchor="middle" x="349.5" y="-116.7666" font-family="Helvetica,sans-Serif" font-size="10.00" fill="#000000">lis_matrix_diag_destroy</text>
</a>
</g>
</g>
<!-- Node2236&#45;&gt;Node2245 -->
<g id="edge17" class="edge">
<title>Node2236&#45;&gt;Node2245</title>
<path fill="none" stroke="#191970" d="M96.107,-103.2982C145.643,-106.4199 223.3383,-111.3161 279.6429,-114.8643"/>
<polygon fill="#191970" stroke="#191970" points="279.6953,-118.3745 289.8957,-115.5105 280.1356,-111.3884 279.6953,-118.3745"/>
</g>
<!-- Node2247 -->
<g id="node12" class="node">
<title>Node2247</title>
<g id="a_node12"><a xlink:href="../../d6/d1b/lis__mpi_8h.html#aac9a379d4b7e53f8eeefe9a945d95637" target="_top" xlink:title="lis_commtable_destroy">
<polygon fill="#ffffff" stroke="#000000" points="134.5,-33.7666 134.5,-52.7666 251.5,-52.7666 251.5,-33.7666 134.5,-33.7666"/>
<text text-anchor="middle" x="193" y="-40.7666" font-family="Helvetica,sans-Serif" font-size="10.00" fill="#000000">lis_commtable_destroy</text>
</a>
</g>
</g>
<!-- Node2236&#45;&gt;Node2247 -->
<g id="edge19" class="edge">
<title>Node2236&#45;&gt;Node2247</title>
<path fill="none" stroke="#191970" d="M67.4002,-90.6683C84.2434,-82.5346 109.409,-70.8575 132,-62.2666 137.8513,-60.0415 144.0874,-57.874 150.2542,-55.8469"/>
<polygon fill="#191970" stroke="#191970" points="151.3628,-59.1671 159.8227,-52.7889 149.2318,-52.4993 151.3628,-59.1671"/>
</g>
<!-- Node2238&#45;&gt;Node2239 -->
<g id="edge3" class="edge">
<title>Node2238&#45;&gt;Node2239</title>
<path fill="none" stroke="#191970" d="M390.4499,-148.2544C396.8475,-145.2926 403.2405,-141.9468 409,-138.2666 426.6633,-126.9801 444.0593,-110.5598 455.9952,-98.2391"/>
<polygon fill="#191970" stroke="#191970" points="458.6728,-100.5015 462.9982,-90.8298 453.5855,-95.6932 458.6728,-100.5015"/>
</g>
<!-- Node2241 -->
<g id="node6" class="node">
<title>Node2241</title>
<g id="a_node6"><a xlink:href="../../dd/ddd/lis__system_8h.html#a31052226bd89852d0ce363485a720c68" target="_top" xlink:title="lis_free_mat">
<polygon fill="#ffffff" stroke="#000000" points="534,-185.7666 534,-204.7666 604,-204.7666 604,-185.7666 534,-185.7666"/>
<text text-anchor="middle" x="569" y="-192.7666" font-family="Helvetica,sans-Serif" font-size="10.00" fill="#000000">lis_free_mat</text>
</a>
</g>
</g>
<!-- Node2238&#45;&gt;Node2241 -->
<g id="edge5" class="edge">
<title>Node2238&#45;&gt;Node2241</title>
<path fill="none" stroke="#191970" d="M397.6702,-170.2891C435.2753,-175.7714 487.1416,-183.3328 523.9314,-188.6962"/>
<polygon fill="#191970" stroke="#191970" points="523.4834,-192.1679 533.8838,-190.1472 524.4933,-185.2411 523.4834,-192.1679"/>
</g>
<!-- Node2242 -->
<g id="node7" class="node">
<title>Node2242</title>
<g id="a_node7"><a xlink:href="../../d3/d33/lis_8h.html#a6bbb2ee65dc29822ab6fb7f306da1dd3" target="_top" xlink:title="lis_free2">
<polygon fill="#ffffff" stroke="#000000" points="445,-147.7666 445,-166.7666 498,-166.7666 498,-147.7666 445,-147.7666"/>
<text text-anchor="middle" x="471.5" y="-154.7666" font-family="Helvetica,sans-Serif" font-size="10.00" fill="#000000">lis_free2</text>
</a>
</g>
</g>
<!-- Node2238&#45;&gt;Node2242 -->
<g id="edge7" class="edge">
<title>Node2238&#45;&gt;Node2242</title>
<path fill="none" stroke="#191970" d="M397.7176,-160.8953C409.9561,-160.2934 422.9132,-159.6561 434.4969,-159.0864"/>
<polygon fill="#191970" stroke="#191970" points="434.8729,-162.5723 444.6889,-158.5852 434.529,-155.5807 434.8729,-162.5723"/>
</g>
<!-- Node2240 -->
<g id="node5" class="node">
<title>Node2240</title>
<g id="a_node5"><a xlink:href="../../dc/ddc/3rd_party_2flex-2_85_835_2parse_8c.html#af07d89f5ceaea0c7c8252cc41fd75f37" target="_top" xlink:title="free">
<polygon fill="#ffffff" stroke="#000000" points="640,-128.7666 640,-147.7666 673,-147.7666 673,-128.7666 640,-128.7666"/>
<text text-anchor="middle" x="656.5" y="-135.7666" font-family="Helvetica,sans-Serif" font-size="10.00" fill="#000000">free</text>
</a>
</g>
</g>
<!-- Node2239&#45;&gt;Node2240 -->
<g id="edge4" class="edge">
<title>Node2239&#45;&gt;Node2240</title>
<path fill="none" stroke="#191970" d="M495.7002,-82.8741C522.8496,-85.3037 567.8215,-91.227 604,-105.2666 615.2565,-109.6349 626.7267,-116.5096 636.0628,-122.8562"/>
<polygon fill="#191970" stroke="#191970" points="634.1002,-125.7551 644.2833,-128.6801 638.1468,-120.0433 634.1002,-125.7551"/>
</g>
<!-- Node2241&#45;&gt;Node2240 -->
<g id="edge6" class="edge">
<title>Node2241&#45;&gt;Node2240</title>
<path fill="none" stroke="#191970" d="M587.784,-185.6469C593.1066,-182.7667 598.8513,-179.5085 604,-176.2666 614.9347,-169.3816 626.6243,-161.0264 636.1907,-153.9058"/>
<polygon fill="#191970" stroke="#191970" points="638.4212,-156.6074 644.2968,-147.7911 634.2057,-151.019 638.4212,-156.6074"/>
</g>
<!-- Node2243 -->
<g id="node8" class="node">
<title>Node2243</title>
<g id="a_node8"><a xlink:href="../../d8/d27/lis__memory_8c.html#af0814bbca0c23cdf4038206adf4cb94a" target="_top" xlink:title="lis_free">
<polygon fill="#ffffff" stroke="#000000" points="545,-147.7666 545,-166.7666 593,-166.7666 593,-147.7666 545,-147.7666"/>
<text text-anchor="middle" x="569" y="-154.7666" font-family="Helvetica,sans-Serif" font-size="10.00" fill="#000000">lis_free</text>
</a>
</g>
</g>
<!-- Node2242&#45;&gt;Node2243 -->
<g id="edge8" class="edge">
<title>Node2242&#45;&gt;Node2243</title>
<path fill="none" stroke="#191970" d="M498.1423,-157.2666C509.3933,-157.2666 522.6375,-157.2666 534.6122,-157.2666"/>
<polygon fill="#191970" stroke="#191970" points="534.7266,-160.7667 544.7266,-157.2666 534.7265,-153.7667 534.7266,-160.7667"/>
</g>
<!-- Node2243&#45;&gt;Node2240 -->
<g id="edge9" class="edge">
<title>Node2243&#45;&gt;Node2240</title>
<path fill="none" stroke="#191970" d="M593.3736,-151.9741C604.756,-149.5024 618.3313,-146.5547 629.9713,-144.0271"/>
<polygon fill="#191970" stroke="#191970" points="630.969,-147.3921 639.9985,-141.8498 629.4836,-140.5515 630.969,-147.3921"/>
</g>
<!-- Node2244&#45;&gt;Node2245 -->
<g id="edge11" class="edge">
<title>Node2244&#45;&gt;Node2245</title>
<path fill="none" stroke="#191970" d="M232.4916,-90.8556C253.1434,-95.8701 278.614,-102.0547 300.5125,-107.3719"/>
<polygon fill="#191970" stroke="#191970" points="299.7489,-110.7881 310.2924,-109.7466 301.4007,-103.9858 299.7489,-110.7881"/>
</g>
<!-- Node2246 -->
<g id="node11" class="node">
<title>Node2246</title>
<g id="a_node11"><a xlink:href="../../db/df9/lis__matrix_8c.html#af5578afc833e3df18b3394f4350e88a4" target="_top" xlink:title="lis_matrix_LU_destroy">
<polygon fill="#ffffff" stroke="#000000" points="292.5,-71.7666 292.5,-90.7666 406.5,-90.7666 406.5,-71.7666 292.5,-71.7666"/>
<text text-anchor="middle" x="349.5" y="-78.7666" font-family="Helvetica,sans-Serif" font-size="10.00" fill="#000000">lis_matrix_LU_destroy</text>
</a>
</g>
</g>
<!-- Node2244&#45;&gt;Node2246 -->
<g id="edge15" class="edge">
<title>Node2244&#45;&gt;Node2246</title>
<path fill="none" stroke="#191970" d="M254.4038,-81.2666C263.4876,-81.2666 272.8894,-81.2666 282.0875,-81.2666"/>
<polygon fill="#191970" stroke="#191970" points="282.3581,-84.7667 292.3581,-81.2666 282.3581,-77.7667 282.3581,-84.7667"/>
</g>
<!-- Node2245&#45;&gt;Node2239 -->
<g id="edge12" class="edge">
<title>Node2245&#45;&gt;Node2239</title>
<path fill="none" stroke="#191970" d="M380.2858,-109.6776C397.7151,-104.2488 419.5473,-97.4486 437.4823,-91.8623"/>
<polygon fill="#191970" stroke="#191970" points="438.7533,-95.1323 447.26,-88.8168 436.6715,-88.449 438.7533,-95.1323"/>
</g>
<!-- Node2245&#45;&gt;Node2240 -->
<g id="edge13" class="edge">
<title>Node2245&#45;&gt;Node2240</title>
<path fill="none" stroke="#191970" d="M409.0567,-122.9525C475.6836,-127.076 580.6783,-133.5741 629.6656,-136.6059"/>
<polygon fill="#191970" stroke="#191970" points="629.5813,-140.1072 639.7785,-137.2317 630.0138,-133.1206 629.5813,-140.1072"/>
</g>
<!-- Node2245&#45;&gt;Node2242 -->
<g id="edge14" class="edge">
<title>Node2245&#45;&gt;Node2242</title>
<path fill="none" stroke="#191970" d="M380.2858,-128.8556C396.926,-134.0386 417.5793,-140.4717 435.0229,-145.9049"/>
<polygon fill="#191970" stroke="#191970" points="434.2795,-149.3391 444.8679,-148.9714 436.3612,-142.6558 434.2795,-149.3391"/>
</g>
<!-- Node2246&#45;&gt;Node2239 -->
<g id="edge16" class="edge">
<title>Node2246&#45;&gt;Node2239</title>
<path fill="none" stroke="#191970" d="M406.5708,-81.2666C417.0242,-81.2666 427.6322,-81.2666 437.1599,-81.2666"/>
<polygon fill="#191970" stroke="#191970" points="437.3922,-84.7667 447.3922,-81.2666 437.3921,-77.7667 437.3922,-84.7667"/>
</g>
<!-- Node2247&#45;&gt;Node2239 -->
<g id="edge20" class="edge">
<title>Node2247&#45;&gt;Node2239</title>
<path fill="none" stroke="#191970" d="M251.6709,-45.1405C295.3746,-47.3293 356.3361,-52.0602 409,-62.2666 418.4846,-64.1048 428.5777,-66.8235 437.8241,-69.6332"/>
<polygon fill="#191970" stroke="#191970" points="436.8661,-73.001 447.4561,-72.6803 438.9776,-66.327 436.8661,-73.001"/>
</g>
</g>
</svg>
