<?xml version="1.0" encoding="UTF-8" standalone="no"?>
<!DOCTYPE svg PUBLIC "-//W3C//DTD SVG 1.1//EN"
 "http://www.w3.org/Graphics/SVG/1.1/DTD/svg11.dtd">
<!-- Generated by graphviz version 2.40.1 (20161225.0304)
 -->
<!-- Title: writeMatrix_matVer4 Pages: 1 -->
<svg width="321pt" height="104pt"
 viewBox="0.00 0.00 321.00 104.00" xmlns="http://www.w3.org/2000/svg" xmlns:xlink="http://www.w3.org/1999/xlink">
<g id="graph0" class="graph" transform="scale(1 1) rotate(0) translate(4 100)">
<title>writeMatrix_matVer4</title>
<polygon fill="#ffffff" stroke="transparent" points="-4,4 -4,-100 317,-100 317,4 -4,4"/>
<!-- Node47 -->
<g id="node1" class="node">
<title>Node47</title>
<polygon fill="#bfbfbf" stroke="#000000" points="0,-38.5 0,-57.5 107,-57.5 107,-38.5 0,-38.5"/>
<text text-anchor="middle" x="53.5" y="-45.5" font-family="Helvetica,sans-Serif" font-size="10.00" fill="#000000">writeMatrix_matVer4</text>
</g>
<!-- Node48 -->
<g id="node2" class="node">
<title>Node48</title>
<g id="a_node2"><a xlink:href="../../d0/dc6/_mat_ver4_8cpp.html#a86afad65a767882f5b00ea5768bfb6cd" target="_top" xlink:title="sizeofMatVer4Type">
<polygon fill="#ffffff" stroke="#000000" points="143,-76.5 143,-95.5 244,-95.5 244,-76.5 143,-76.5"/>
<text text-anchor="middle" x="193.5" y="-83.5" font-family="Helvetica,sans-Serif" font-size="10.00" fill="#000000">sizeofMatVer4Type</text>
</a>
</g>
</g>
<!-- Node47&#45;&gt;Node48 -->
<g id="edge1" class="edge">
<title>Node47&#45;&gt;Node48</title>
<path fill="none" stroke="#191970" d="M88.8279,-57.589C106.9006,-62.4944 129.0984,-68.5196 148.3945,-73.7571"/>
<polygon fill="#191970" stroke="#191970" points="147.6157,-77.1723 158.1834,-76.4141 149.4494,-70.4167 147.6157,-77.1723"/>
</g>
<!-- Node49 -->
<g id="node3" class="node">
<title>Node49</title>
<g id="a_node3"><a xlink:href="../../d0/dc6/_mat_ver4_8cpp.html#a1feda4bed1f445d9dd01ed457e72706e" target="_top" xlink:title="isBigEndian">
<polygon fill="#ffffff" stroke="#000000" points="159.5,-38.5 159.5,-57.5 227.5,-57.5 227.5,-38.5 159.5,-38.5"/>
<text text-anchor="middle" x="193.5" y="-45.5" font-family="Helvetica,sans-Serif" font-size="10.00" fill="#000000">isBigEndian</text>
</a>
</g>
</g>
<!-- Node47&#45;&gt;Node49 -->
<g id="edge2" class="edge">
<title>Node47&#45;&gt;Node49</title>
<path fill="none" stroke="#191970" d="M107.2273,-48C120.9783,-48 135.6163,-48 148.8552,-48"/>
<polygon fill="#191970" stroke="#191970" points="149.1289,-51.5001 159.1289,-48 149.1289,-44.5001 149.1289,-51.5001"/>
</g>
<!-- Node51 -->
<g id="node5" class="node">
<title>Node51</title>
<g id="a_node5"><a xlink:href="../../d6/d84/3rd_party_2open62541_2open62541_8h.html#aa383452fe445bfae989358c9d7d96f4f" target="_top" xlink:title="strlen">
<polygon fill="#ffffff" stroke="#000000" points="173,-.5 173,-19.5 214,-19.5 214,-.5 173,-.5"/>
<text text-anchor="middle" x="193.5" y="-7.5" font-family="Helvetica,sans-Serif" font-size="10.00" fill="#000000">strlen</text>
</a>
</g>
</g>
<!-- Node47&#45;&gt;Node51 -->
<g id="edge4" class="edge">
<title>Node47&#45;&gt;Node51</title>
<path fill="none" stroke="#191970" d="M88.8279,-38.411C111.7646,-32.1853 141.3457,-24.1562 163.2068,-18.2224"/>
<polygon fill="#191970" stroke="#191970" points="164.2214,-21.5738 172.9553,-15.5764 162.3876,-14.8182 164.2214,-21.5738"/>
</g>
<!-- Node50 -->
<g id="node4" class="node">
<title>Node50</title>
<g id="a_node4"><a xlink:href="../../da/d4d/disclaim__test_8c.html#a6ae700ffc476697bf81afed662593501" target="_top" xlink:title="test">
<polygon fill="#ffffff" stroke="#000000" points="280,-38.5 280,-57.5 313,-57.5 313,-38.5 280,-38.5"/>
<text text-anchor="middle" x="296.5" y="-45.5" font-family="Helvetica,sans-Serif" font-size="10.00" fill="#000000">test</text>
</a>
</g>
</g>
<!-- Node49&#45;&gt;Node50 -->
<g id="edge3" class="edge">
<title>Node49&#45;&gt;Node50</title>
<path fill="none" stroke="#191970" d="M227.5115,-48C241.2452,-48 256.8616,-48 269.7593,-48"/>
<polygon fill="#191970" stroke="#191970" points="269.8529,-51.5001 279.8529,-48 269.8529,-44.5001 269.8529,-51.5001"/>
</g>
</g>
</svg>
