<?xml version="1.0" encoding="UTF-8" standalone="no"?>
<!DOCTYPE svg PUBLIC "-//W3C//DTD SVG 1.1//EN"
 "http://www.w3.org/Graphics/SVG/1.1/DTD/svg11.dtd">
<!-- Generated by graphviz version 2.40.1 (20161225.0304)
 -->
<!-- Title: Ida::initialize Pages: 1 -->
<svg width="439pt" height="1414pt"
 viewBox="0.00 0.00 439.00 1413.50" xmlns="http://www.w3.org/2000/svg" xmlns:xlink="http://www.w3.org/1999/xlink">
<g id="graph0" class="graph" transform="scale(1 1) rotate(0) translate(4 1409.5)">
<title>Ida::initialize</title>
<polygon fill="#ffffff" stroke="transparent" points="-4,4 -4,-1409.5 435,-1409.5 435,4 -4,4"/>
<!-- Node40 -->
<g id="node1" class="node">
<title>Node40</title>
<polygon fill="#bfbfbf" stroke="#000000" points="0,-532.5 0,-551.5 71,-551.5 71,-532.5 0,-532.5"/>
<text text-anchor="middle" x="35.5" y="-539.5" font-family="Helvetica,sans-Serif" font-size="10.00" fill="#000000">Ida::initialize</text>
</g>
<!-- Node41 -->
<g id="node2" class="node">
<title>Node41</title>
<g id="a_node2"><a xlink:href="../../dc/d46/group__core_solver.html#gac349bb550974c9257ade5bd99d34ef92" target="_top" xlink:title="Assemble system and (re&#45;)initialize solver. ">
<polygon fill="#ffffff" stroke="#000000" points="113.5,-1150 113.5,-1180 256.5,-1180 256.5,-1150 113.5,-1150"/>
<text text-anchor="start" x="121.5" y="-1168" font-family="Helvetica,sans-Serif" font-size="10.00" fill="#000000">SolverDefaultImplementation</text>
<text text-anchor="middle" x="185" y="-1157" font-family="Helvetica,sans-Serif" font-size="10.00" fill="#000000">::initialize</text>
</a>
</g>
</g>
<!-- Node40&#45;&gt;Node41 -->
<g id="edge1" class="edge">
<title>Node40&#45;&gt;Node41</title>
<path fill="none" stroke="#191970" d="M35.8206,-551.7901C38.1161,-617.6887 53.5247,-996.974 107,-1097 117.2421,-1116.1579 135.2115,-1132.3891 151.323,-1144.1841"/>
<polygon fill="#191970" stroke="#191970" points="149.3315,-1147.0624 159.5281,-1149.9398 153.3514,-1141.3317 149.3315,-1147.0624"/>
</g>
<!-- Node47 -->
<g id="node8" class="node">
<title>Node47</title>
<g id="a_node8"><a xlink:href="../../d1/d08/class_i_event.html#a312c25d74ac7a74c25e10508da5c23f5" target="_top" xlink:title="Provide number (dimension) of zero functions. ">
<polygon fill="#ffffff" stroke="#000000" points="303,-1073.5 303,-1092.5 427,-1092.5 427,-1073.5 303,-1073.5"/>
<text text-anchor="middle" x="365" y="-1080.5" font-family="Helvetica,sans-Serif" font-size="10.00" fill="#000000">IEvent::getDimZeroFunc</text>
</a>
</g>
</g>
<!-- Node40&#45;&gt;Node47 -->
<g id="edge13" class="edge">
<title>Node40&#45;&gt;Node47</title>
<path fill="none" stroke="#191970" d="M36.1188,-551.5305C40.5801,-618.8658 68.7469,-1021.2873 107,-1058 162.1319,-1110.9118 257.6372,-1104.63 315.7004,-1094.4014"/>
<polygon fill="#191970" stroke="#191970" points="316.5491,-1097.8035 325.7372,-1092.5282 315.2648,-1090.9223 316.5491,-1097.8035"/>
</g>
<!-- Node50 -->
<g id="node11" class="node">
<title>Node50</title>
<g id="a_node11"><a xlink:href="../../d6/d84/3rd_party_2open62541_2open62541_8h.html#a9bb523029391a4525c52a8e90e877692" target="_top" xlink:title="memcpy">
<polygon fill="#ffffff" stroke="#000000" points="338,-1035.5 338,-1054.5 392,-1054.5 392,-1035.5 338,-1035.5"/>
<text text-anchor="middle" x="365" y="-1042.5" font-family="Helvetica,sans-Serif" font-size="10.00" fill="#000000">memcpy</text>
</a>
</g>
</g>
<!-- Node40&#45;&gt;Node50 -->
<g id="edge20" class="edge">
<title>Node40&#45;&gt;Node50</title>
<path fill="none" stroke="#191970" d="M36.2305,-551.69C41.2253,-616.7368 71.2127,-988.2629 107,-1022 166.6062,-1078.1916 272.0183,-1066.0603 327.8674,-1054.3875"/>
<polygon fill="#191970" stroke="#191970" points="328.6796,-1057.7926 337.6966,-1052.2299 327.1787,-1050.9554 328.6796,-1057.7926"/>
</g>
<!-- Node51 -->
<g id="node12" class="node">
<title>Node51</title>
<g id="a_node12"><a xlink:href="../../d6/d84/3rd_party_2open62541_2open62541_8h.html#a362b656d9de3289b55b1035d14cb4b5d" target="_top" xlink:title="memset">
<polygon fill="#ffffff" stroke="#000000" points="339,-997.5 339,-1016.5 391,-1016.5 391,-997.5 339,-997.5"/>
<text text-anchor="middle" x="365" y="-1004.5" font-family="Helvetica,sans-Serif" font-size="10.00" fill="#000000">memset</text>
</a>
</g>
</g>
<!-- Node40&#45;&gt;Node51 -->
<g id="edge15" class="edge">
<title>Node40&#45;&gt;Node51</title>
<path fill="none" stroke="#191970" d="M36.3513,-551.7821C41.8831,-614.2917 73.5493,-956.184 107,-987 167.5013,-1042.7359 273.4433,-1028.9734 328.872,-1016.6163"/>
<polygon fill="#191970" stroke="#191970" points="329.6693,-1020.0244 338.6116,-1014.3424 328.0777,-1013.2077 329.6693,-1020.0244"/>
</g>
<!-- Node52 -->
<g id="node13" class="node">
<title>Node52</title>
<g id="a_node13"><a xlink:href="../../d9/de6/class_i_continuous.html#aa58cfacc1b669c1b658dffda1da2cc6c" target="_top" xlink:title="Provide number (dimension) of states. ">
<polygon fill="#ffffff" stroke="#000000" points="107,-948 107,-978 263,-978 263,-948 107,-948"/>
<text text-anchor="start" x="115" y="-966" font-family="Helvetica,sans-Serif" font-size="10.00" fill="#000000">IContinuous::getDimContinuous</text>
<text text-anchor="middle" x="185" y="-955" font-family="Helvetica,sans-Serif" font-size="10.00" fill="#000000">States</text>
</a>
</g>
</g>
<!-- Node40&#45;&gt;Node52 -->
<g id="edge12" class="edge">
<title>Node40&#45;&gt;Node52</title>
<path fill="none" stroke="#191970" d="M35.9241,-551.5547C38.5298,-606.0799 54.0468,-877.5796 107,-938 108.1599,-939.3234 109.3899,-940.5773 110.6805,-941.7653"/>
<polygon fill="#191970" stroke="#191970" points="108.5995,-944.58 118.6693,-947.874 112.8515,-939.0194 108.5995,-944.58"/>
</g>
<!-- Node53 -->
<g id="node14" class="node">
<title>Node53</title>
<g id="a_node14"><a xlink:href="../../d9/de6/class_i_continuous.html#aeec86c30df8fb5ab66211692bccc9581" target="_top" xlink:title="Provide number (dimension) of states. ">
<polygon fill="#ffffff" stroke="#000000" points="125,-909.5 125,-928.5 245,-928.5 245,-909.5 125,-909.5"/>
<text text-anchor="middle" x="185" y="-916.5" font-family="Helvetica,sans-Serif" font-size="10.00" fill="#000000">IContinuous::getDimAE</text>
</a>
</g>
</g>
<!-- Node40&#45;&gt;Node53 -->
<g id="edge14" class="edge">
<title>Node40&#45;&gt;Node53</title>
<path fill="none" stroke="#191970" d="M36.0779,-551.6594C39.3616,-603.3199 57.3144,-846.591 107,-899 109.657,-901.8026 112.6488,-904.2333 115.8723,-906.3396"/>
<polygon fill="#191970" stroke="#191970" points="114.4115,-909.5282 124.8752,-911.1904 117.7319,-903.3658 114.4115,-909.5282"/>
</g>
<!-- Node54 -->
<g id="node15" class="node">
<title>Node54</title>
<g id="a_node15"><a xlink:href="../../d9/d56/class_i_solver_settings.html#a5d7490d6385261a5d8fd3479b2dcb438" target="_top" xlink:title="ISolverSettings::getDense\lOutput">
<polygon fill="#ffffff" stroke="#000000" points="119.5,-860 119.5,-890 250.5,-890 250.5,-860 119.5,-860"/>
<text text-anchor="start" x="127.5" y="-878" font-family="Helvetica,sans-Serif" font-size="10.00" fill="#000000">ISolverSettings::getDense</text>
<text text-anchor="middle" x="185" y="-867" font-family="Helvetica,sans-Serif" font-size="10.00" fill="#000000">Output</text>
</a>
</g>
</g>
<!-- Node40&#45;&gt;Node54 -->
<g id="edge16" class="edge">
<title>Node40&#45;&gt;Node54</title>
<path fill="none" stroke="#191970" d="M36.4516,-551.5056C41.322,-598.3562 64.8811,-804.2746 107,-850 108.2254,-851.3303 109.5215,-852.5901 110.8783,-853.7831"/>
<polygon fill="#191970" stroke="#191970" points="109.1081,-856.825 119.2433,-859.9121 113.2454,-851.1785 109.1081,-856.825"/>
</g>
<!-- Node55 -->
<g id="node16" class="node">
<title>Node55</title>
<g id="a_node16"><a xlink:href="../../d2/dc2/class_i_global_settings.html#a3e63683e9046bd3df6600b0fdc7c7f59" target="_top" xlink:title="IGlobalSettings::gethOutput">
<polygon fill="#ffffff" stroke="#000000" points="116.5,-821.5 116.5,-840.5 253.5,-840.5 253.5,-821.5 116.5,-821.5"/>
<text text-anchor="middle" x="185" y="-828.5" font-family="Helvetica,sans-Serif" font-size="10.00" fill="#000000">IGlobalSettings::gethOutput</text>
</a>
</g>
</g>
<!-- Node40&#45;&gt;Node55 -->
<g id="edge17" class="edge">
<title>Node40&#45;&gt;Node55</title>
<path fill="none" stroke="#191970" d="M36.7157,-551.5271C42.4474,-594.9805 68.1298,-773.8971 107,-812 108.4556,-813.4269 109.9995,-814.7528 111.6169,-815.9845"/>
<polygon fill="#191970" stroke="#191970" points="109.914,-819.0478 120.2466,-821.3907 113.6302,-813.1157 109.914,-819.0478"/>
</g>
<!-- Node56 -->
<g id="node17" class="node">
<title>Node56</title>
<g id="a_node17"><a xlink:href="../../d1/dda/3rd_party_2sundials_2build_2include_2ida_2ida_8h.html#a8943b59cf79907a6977b257eb0535bde" target="_top" xlink:title="IDACreate">
<polygon fill="#ffffff" stroke="#000000" points="153.5,-783.5 153.5,-802.5 216.5,-802.5 216.5,-783.5 153.5,-783.5"/>
<text text-anchor="middle" x="185" y="-790.5" font-family="Helvetica,sans-Serif" font-size="10.00" fill="#000000">IDACreate</text>
</a>
</g>
</g>
<!-- Node40&#45;&gt;Node56 -->
<g id="edge18" class="edge">
<title>Node40&#45;&gt;Node56</title>
<path fill="none" stroke="#191970" d="M37.2109,-551.7086C44.3965,-591.4256 73.3253,-740.9416 107,-773 116.7471,-782.2792 130.1931,-787.4079 143.178,-790.1953"/>
<polygon fill="#191970" stroke="#191970" points="142.9634,-793.71 153.4133,-791.9635 144.155,-786.8122 142.9634,-793.71"/>
</g>
<!-- Node57 -->
<g id="node18" class="node">
<title>Node57</title>
<g id="a_node18"><a xlink:href="../../d9/de6/class_i_continuous.html#a1e8200161ff4181afb162dd0498deeaa" target="_top" xlink:title="Provide boolean variables. ">
<polygon fill="#ffffff" stroke="#000000" points="116,-734 116,-764 254,-764 254,-734 116,-734"/>
<text text-anchor="start" x="124" y="-752" font-family="Helvetica,sans-Serif" font-size="10.00" fill="#000000">IContinuous::getContinuous</text>
<text text-anchor="middle" x="185" y="-741" font-family="Helvetica,sans-Serif" font-size="10.00" fill="#000000">States</text>
</a>
</g>
</g>
<!-- Node40&#45;&gt;Node57 -->
<g id="edge19" class="edge">
<title>Node40&#45;&gt;Node57</title>
<path fill="none" stroke="#191970" d="M36.4581,-551.9182C39.9202,-582.2626 54.5033,-674.7682 107,-724 108.6855,-725.5807 110.4714,-727.0615 112.338,-728.4486"/>
<polygon fill="#191970" stroke="#191970" points="110.664,-731.532 120.9791,-733.9505 114.4236,-725.6273 110.664,-731.532"/>
</g>
<!-- Node58 -->
<g id="node19" class="node">
<title>Node58</title>
<g id="a_node19"><a xlink:href="../../df/d86/class_i_mixed_system.html#a5d86876110378654c1b4ab5d6e693d24" target="_top" xlink:title="IMixedSystem::getAlgebraic\lDAEVars">
<polygon fill="#ffffff" stroke="#000000" points="115,-685 115,-715 255,-715 255,-685 115,-685"/>
<text text-anchor="start" x="123" y="-703" font-family="Helvetica,sans-Serif" font-size="10.00" fill="#000000">IMixedSystem::getAlgebraic</text>
<text text-anchor="middle" x="185" y="-692" font-family="Helvetica,sans-Serif" font-size="10.00" fill="#000000">DAEVars</text>
</a>
</g>
</g>
<!-- Node40&#45;&gt;Node58 -->
<g id="edge21" class="edge">
<title>Node40&#45;&gt;Node58</title>
<path fill="none" stroke="#191970" d="M37.9632,-551.6404C44.6887,-576.0203 65.6839,-640.6322 107,-675 109.0088,-676.671 111.1311,-678.2309 113.3403,-679.6871"/>
<polygon fill="#191970" stroke="#191970" points="111.8221,-682.8515 122.2353,-684.8049 115.313,-676.7841 111.8221,-682.8515"/>
</g>
<!-- Node59 -->
<g id="node20" class="node">
<title>Node59</title>
<g id="a_node20"><a xlink:href="../../d9/de6/class_i_continuous.html#a772821beb18095d1cf79dfc19cb94767" target="_top" xlink:title="IContinuous::getNominalStates">
<polygon fill="#ffffff" stroke="#000000" points="108.5,-646.5 108.5,-665.5 261.5,-665.5 261.5,-646.5 108.5,-646.5"/>
<text text-anchor="middle" x="185" y="-653.5" font-family="Helvetica,sans-Serif" font-size="10.00" fill="#000000">IContinuous::getNominalStates</text>
</a>
</g>
</g>
<!-- Node40&#45;&gt;Node59 -->
<g id="edge22" class="edge">
<title>Node40&#45;&gt;Node59</title>
<path fill="none" stroke="#191970" d="M39.873,-551.5427C49.248,-570.8833 73.208,-614.7505 107,-637 110.154,-639.0766 113.514,-640.9265 117.0012,-642.5744"/>
<polygon fill="#191970" stroke="#191970" points="115.8955,-645.9044 126.4746,-646.4817 118.5646,-639.4332 115.8955,-645.9044"/>
</g>
<!-- Node60 -->
<g id="node21" class="node">
<title>Node60</title>
<g id="a_node21"><a xlink:href="../../dc/d0a/3rd_party_2sundials_2build_2include_2nvector_2nvector__serial_8h.html#a688a531ed29d81abeca46b4e222b79d0" target="_top" xlink:title="N_VMake_Serial">
<polygon fill="#ffffff" stroke="#000000" points="140,-608.5 140,-627.5 230,-627.5 230,-608.5 140,-608.5"/>
<text text-anchor="middle" x="185" y="-615.5" font-family="Helvetica,sans-Serif" font-size="10.00" fill="#000000">N_VMake_Serial</text>
</a>
</g>
</g>
<!-- Node40&#45;&gt;Node60 -->
<g id="edge23" class="edge">
<title>Node40&#45;&gt;Node60</title>
<path fill="none" stroke="#191970" d="M44.7341,-551.6157C57.5268,-564.3691 81.9147,-586.6967 107,-599 114.2061,-602.5343 122.117,-605.4399 130.0511,-607.8209"/>
<polygon fill="#191970" stroke="#191970" points="129.1245,-611.196 139.6946,-610.472 130.9801,-604.4464 129.1245,-611.196"/>
</g>
<!-- Node61 -->
<g id="node22" class="node">
<title>Node61</title>
<g id="a_node22"><a xlink:href="../../d1/dda/3rd_party_2sundials_2build_2include_2ida_2ida_8h.html#a75c850e7cdf1aeab3de5437d1458c0f0" target="_top" xlink:title="IDAInit">
<polygon fill="#ffffff" stroke="#000000" points="161.5,-570.5 161.5,-589.5 208.5,-589.5 208.5,-570.5 161.5,-570.5"/>
<text text-anchor="middle" x="185" y="-577.5" font-family="Helvetica,sans-Serif" font-size="10.00" fill="#000000">IDAInit</text>
</a>
</g>
</g>
<!-- Node40&#45;&gt;Node61 -->
<g id="edge24" class="edge">
<title>Node40&#45;&gt;Node61</title>
<path fill="none" stroke="#191970" d="M70.7383,-551.5198C82.2807,-554.5964 95.1755,-557.9891 107,-561 121.5302,-564.6999 137.6225,-568.6454 151.3981,-571.9767"/>
<polygon fill="#191970" stroke="#191970" points="150.875,-575.4508 161.4166,-574.3903 152.5145,-568.6455 150.875,-575.4508"/>
</g>
<!-- Node62 -->
<g id="node23" class="node">
<title>Node62</title>
<g id="a_node23"><a xlink:href="../../d1/dda/3rd_party_2sundials_2build_2include_2ida_2ida_8h.html#acc0b6db1bac0275bd98594f4223541d8" target="_top" xlink:title="IDASetErrHandlerFn">
<polygon fill="#ffffff" stroke="#000000" points="131.5,-532.5 131.5,-551.5 238.5,-551.5 238.5,-532.5 131.5,-532.5"/>
<text text-anchor="middle" x="185" y="-539.5" font-family="Helvetica,sans-Serif" font-size="10.00" fill="#000000">IDASetErrHandlerFn</text>
</a>
</g>
</g>
<!-- Node40&#45;&gt;Node62 -->
<g id="edge25" class="edge">
<title>Node40&#45;&gt;Node62</title>
<path fill="none" stroke="#191970" d="M71.309,-542C86.1885,-542 103.9241,-542 120.91,-542"/>
<polygon fill="#191970" stroke="#191970" points="121.3571,-545.5001 131.357,-542 121.357,-538.5001 121.3571,-545.5001"/>
</g>
<!-- Node63 -->
<g id="node24" class="node">
<title>Node63</title>
<g id="a_node24"><a xlink:href="../../d1/dda/3rd_party_2sundials_2build_2include_2ida_2ida_8h.html#ae14fe5bca69de989e1ef5252101086fc" target="_top" xlink:title="IDASVtolerances">
<polygon fill="#ffffff" stroke="#000000" points="139,-494.5 139,-513.5 231,-513.5 231,-494.5 139,-494.5"/>
<text text-anchor="middle" x="185" y="-501.5" font-family="Helvetica,sans-Serif" font-size="10.00" fill="#000000">IDASVtolerances</text>
</a>
</g>
</g>
<!-- Node40&#45;&gt;Node63 -->
<g id="edge26" class="edge">
<title>Node40&#45;&gt;Node63</title>
<path fill="none" stroke="#191970" d="M70.7383,-532.4802C82.2807,-529.4036 95.1755,-526.0109 107,-523 116.2225,-520.6516 126.0743,-518.2043 135.5636,-515.8779"/>
<polygon fill="#191970" stroke="#191970" points="136.3948,-519.2779 145.2797,-513.5065 134.735,-512.4775 136.3948,-519.2779"/>
</g>
<!-- Node64 -->
<g id="node25" class="node">
<title>Node64</title>
<g id="a_node25"><a xlink:href="../../d1/dda/3rd_party_2sundials_2build_2include_2ida_2ida_8h.html#a1311828129d38635f64f1cf1e2a0d5dd" target="_top" xlink:title="IDASetUserData">
<polygon fill="#ffffff" stroke="#000000" points="139.5,-456.5 139.5,-475.5 230.5,-475.5 230.5,-456.5 139.5,-456.5"/>
<text text-anchor="middle" x="185" y="-463.5" font-family="Helvetica,sans-Serif" font-size="10.00" fill="#000000">IDASetUserData</text>
</a>
</g>
</g>
<!-- Node40&#45;&gt;Node64 -->
<g id="edge27" class="edge">
<title>Node40&#45;&gt;Node64</title>
<path fill="none" stroke="#191970" d="M44.7341,-532.3843C57.5268,-519.6309 81.9147,-497.3033 107,-485 114.0389,-481.5477 121.7503,-478.6952 129.499,-476.3456"/>
<polygon fill="#191970" stroke="#191970" points="130.5852,-479.6766 139.2859,-473.6312 128.7142,-472.9312 130.5852,-479.6766"/>
</g>
<!-- Node65 -->
<g id="node26" class="node">
<title>Node65</title>
<g id="a_node26"><a xlink:href="../../d1/dda/3rd_party_2sundials_2build_2include_2ida_2ida_8h.html#a8759373e2cb2f5ee73004d6092e6faa7" target="_top" xlink:title="IDASetInitStep">
<polygon fill="#ffffff" stroke="#000000" points="143.5,-418.5 143.5,-437.5 226.5,-437.5 226.5,-418.5 143.5,-418.5"/>
<text text-anchor="middle" x="185" y="-425.5" font-family="Helvetica,sans-Serif" font-size="10.00" fill="#000000">IDASetInitStep</text>
</a>
</g>
</g>
<!-- Node40&#45;&gt;Node65 -->
<g id="edge28" class="edge">
<title>Node40&#45;&gt;Node65</title>
<path fill="none" stroke="#191970" d="M39.873,-532.4573C49.248,-513.1167 73.208,-469.2495 107,-447 114.8649,-441.8216 124.0113,-438.0531 133.2149,-435.311"/>
<polygon fill="#191970" stroke="#191970" points="134.3708,-438.6269 143.1664,-432.7203 132.6072,-431.8527 134.3708,-438.6269"/>
</g>
<!-- Node66 -->
<g id="node27" class="node">
<title>Node66</title>
<g id="a_node27"><a xlink:href="../../d3/d1b/netstream-main_8cpp.html#aed138f72d7301a9034a719a95c4903da" target="_top" xlink:title="e">
<polygon fill="#ffffff" stroke="#000000" points="170.5,-380.5 170.5,-399.5 199.5,-399.5 199.5,-380.5 170.5,-380.5"/>
<text text-anchor="middle" x="185" y="-387.5" font-family="Helvetica,sans-Serif" font-size="10.00" fill="#000000">e</text>
</a>
</g>
</g>
<!-- Node40&#45;&gt;Node66 -->
<g id="edge29" class="edge">
<title>Node40&#45;&gt;Node66</title>
<path fill="none" stroke="#191970" d="M37.8206,-532.1818C44.2116,-507.3849 64.4864,-441.8748 107,-409 122.1948,-397.2502 143.6343,-392.6448 160.1917,-390.8967"/>
<polygon fill="#191970" stroke="#191970" points="160.554,-394.3792 170.2525,-390.1142 160.0112,-387.4003 160.554,-394.3792"/>
</g>
<!-- Node67 -->
<g id="node28" class="node">
<title>Node67</title>
<g id="a_node28"><a xlink:href="../../d1/dda/3rd_party_2sundials_2build_2include_2ida_2ida_8h.html#a259a4d9efa0ca06e4c9b5db5438be751" target="_top" xlink:title="IDASetMaxStep">
<polygon fill="#ffffff" stroke="#000000" points="141,-342.5 141,-361.5 229,-361.5 229,-342.5 141,-342.5"/>
<text text-anchor="middle" x="185" y="-349.5" font-family="Helvetica,sans-Serif" font-size="10.00" fill="#000000">IDASetMaxStep</text>
</a>
</g>
</g>
<!-- Node40&#45;&gt;Node67 -->
<g id="edge30" class="edge">
<title>Node40&#45;&gt;Node67</title>
<path fill="none" stroke="#191970" d="M36.5653,-532.0938C40.2766,-502.6685 55.3711,-415.0944 107,-371 113.8533,-365.1468 122.2211,-361.0383 130.901,-358.1666"/>
<polygon fill="#191970" stroke="#191970" points="132.0726,-361.4737 140.7695,-355.4227 130.1973,-354.7295 132.0726,-361.4737"/>
</g>
<!-- Node68 -->
<g id="node29" class="node">
<title>Node68</title>
<g id="a_node29"><a xlink:href="../../d2/dc2/class_i_global_settings.html#a2049e78cc0adbe5c5e198cc50492de38" target="_top" xlink:title="IGlobalSettings::getEndTime">
<polygon fill="#ffffff" stroke="#000000" points="114,-304.5 114,-323.5 256,-323.5 256,-304.5 114,-304.5"/>
<text text-anchor="middle" x="185" y="-311.5" font-family="Helvetica,sans-Serif" font-size="10.00" fill="#000000">IGlobalSettings::getEndTime</text>
</a>
</g>
</g>
<!-- Node40&#45;&gt;Node68 -->
<g id="edge31" class="edge">
<title>Node40&#45;&gt;Node68</title>
<path fill="none" stroke="#191970" d="M37.4961,-532.4508C45.4344,-495.3522 75.8498,-361.446 107,-333 108.7143,-331.4346 110.5356,-329.9924 112.443,-328.6641"/>
<polygon fill="#191970" stroke="#191970" points="114.3908,-331.5806 121.2902,-323.5402 110.8826,-325.5232 114.3908,-331.5806"/>
</g>
<!-- Node69 -->
<g id="node30" class="node">
<title>Node69</title>
<g id="a_node30"><a xlink:href="../../d1/dda/3rd_party_2sundials_2build_2include_2ida_2ida_8h.html#a27e443096605facc541147e9a7510c4b" target="_top" xlink:title="IDASetMaxNonlinIters">
<polygon fill="#ffffff" stroke="#000000" points="127.5,-266.5 127.5,-285.5 242.5,-285.5 242.5,-266.5 127.5,-266.5"/>
<text text-anchor="middle" x="185" y="-273.5" font-family="Helvetica,sans-Serif" font-size="10.00" fill="#000000">IDASetMaxNonlinIters</text>
</a>
</g>
</g>
<!-- Node40&#45;&gt;Node69 -->
<g id="edge32" class="edge">
<title>Node40&#45;&gt;Node69</title>
<path fill="none" stroke="#191970" d="M36.9662,-532.4617C43.479,-491.3025 71.0571,-329.4353 107,-295 110.3165,-291.8226 114.0716,-289.1485 118.0974,-286.9005"/>
<polygon fill="#191970" stroke="#191970" points="119.6868,-290.0214 127.278,-282.6306 116.7347,-283.6743 119.6868,-290.0214"/>
</g>
<!-- Node70 -->
<g id="node31" class="node">
<title>Node70</title>
<g id="a_node31"><a xlink:href="../../d1/dda/3rd_party_2sundials_2build_2include_2ida_2ida_8h.html#aafae90973ffe9a5bd492e66b739a7501" target="_top" xlink:title="IDASetMaxErrTestFails">
<polygon fill="#ffffff" stroke="#000000" points="124.5,-228.5 124.5,-247.5 245.5,-247.5 245.5,-228.5 124.5,-228.5"/>
<text text-anchor="middle" x="185" y="-235.5" font-family="Helvetica,sans-Serif" font-size="10.00" fill="#000000">IDASetMaxErrTestFails</text>
</a>
</g>
</g>
<!-- Node40&#45;&gt;Node70 -->
<g id="edge33" class="edge">
<title>Node40&#45;&gt;Node70</title>
<path fill="none" stroke="#191970" d="M36.6002,-532.2537C41.9062,-486.9499 66.2807,-297.4406 107,-257 109.5496,-254.4679 112.3767,-252.2531 115.3996,-250.3174"/>
<polygon fill="#191970" stroke="#191970" points="117.1686,-253.3411 124.3693,-245.5693 113.8937,-247.1544 117.1686,-253.3411"/>
</g>
<!-- Node71 -->
<g id="node32" class="node">
<title>Node71</title>
<g id="a_node32"><a xlink:href="../../d1/dda/3rd_party_2sundials_2build_2include_2ida_2ida_8h.html#a1bb070052185de0577334d00c929feed" target="_top" xlink:title="IDASetMaxNumSteps">
<polygon fill="#ffffff" stroke="#000000" points="128,-190.5 128,-209.5 242,-209.5 242,-190.5 128,-190.5"/>
<text text-anchor="middle" x="185" y="-197.5" font-family="Helvetica,sans-Serif" font-size="10.00" fill="#000000">IDASetMaxNumSteps</text>
</a>
</g>
</g>
<!-- Node40&#45;&gt;Node71 -->
<g id="edge34" class="edge">
<title>Node40&#45;&gt;Node71</title>
<path fill="none" stroke="#191970" d="M36.289,-532.2974C40.4491,-483.5181 61.3941,-265.5779 107,-219 110.4159,-215.5113 114.3575,-212.6217 118.6169,-210.2324"/>
<polygon fill="#191970" stroke="#191970" points="120.142,-213.3832 127.7399,-205.9992 117.1957,-207.0335 120.142,-213.3832"/>
</g>
<!-- Node72 -->
<g id="node33" class="node">
<title>Node72</title>
<g id="a_node33"><a xlink:href="../../db/d06/3rd_party_2sundials_2build_2include_2ida_2ida__dense_8h.html#ada198efe3d8ba412200f8bbe4529b467" target="_top" xlink:title="IDADense">
<polygon fill="#ffffff" stroke="#000000" points="154,-152.5 154,-171.5 216,-171.5 216,-152.5 154,-152.5"/>
<text text-anchor="middle" x="185" y="-159.5" font-family="Helvetica,sans-Serif" font-size="10.00" fill="#000000">IDADense</text>
</a>
</g>
</g>
<!-- Node40&#45;&gt;Node72 -->
<g id="edge35" class="edge">
<title>Node40&#45;&gt;Node72</title>
<path fill="none" stroke="#191970" d="M36.0503,-532.223C39.1902,-479.9345 56.5166,-233.7236 107,-181 116.5247,-171.0526 130.3175,-165.9536 143.6644,-163.4422"/>
<polygon fill="#191970" stroke="#191970" points="144.3106,-166.8852 153.706,-161.9886 143.3077,-159.9574 144.3106,-166.8852"/>
</g>
<!-- Node73 -->
<g id="node34" class="node">
<title>Node73</title>
<g id="a_node34"><a xlink:href="../../d1/dda/3rd_party_2sundials_2build_2include_2ida_2ida_8h.html#ab6df50a502697c80e79ffe1e335354f0" target="_top" xlink:title="IDASetSuppressAlg">
<polygon fill="#ffffff" stroke="#000000" points="133,-114.5 133,-133.5 237,-133.5 237,-114.5 133,-114.5"/>
<text text-anchor="middle" x="185" y="-121.5" font-family="Helvetica,sans-Serif" font-size="10.00" fill="#000000">IDASetSuppressAlg</text>
</a>
</g>
</g>
<!-- Node40&#45;&gt;Node73 -->
<g id="edge36" class="edge">
<title>Node40&#45;&gt;Node73</title>
<path fill="none" stroke="#191970" d="M35.8473,-532.3136C38.0254,-477.0455 51.5636,-201.9622 107,-143 111.511,-138.2021 117.014,-134.528 122.9891,-131.7264"/>
<polygon fill="#191970" stroke="#191970" points="124.6083,-134.8541 132.6924,-128.0058 122.1022,-128.318 124.6083,-134.8541"/>
</g>
<!-- Node74 -->
<g id="node35" class="node">
<title>Node74</title>
<g id="a_node35"><a xlink:href="../../d1/dda/3rd_party_2sundials_2build_2include_2ida_2ida_8h.html#a009302d036d6e6ef2f74578d917159b2" target="_top" xlink:title="IDASetId">
<polygon fill="#ffffff" stroke="#000000" points="156.5,-76.5 156.5,-95.5 213.5,-95.5 213.5,-76.5 156.5,-76.5"/>
<text text-anchor="middle" x="185" y="-83.5" font-family="Helvetica,sans-Serif" font-size="10.00" fill="#000000">IDASetId</text>
</a>
</g>
</g>
<!-- Node40&#45;&gt;Node74 -->
<g id="edge37" class="edge">
<title>Node40&#45;&gt;Node74</title>
<path fill="none" stroke="#191970" d="M35.6864,-532.1752C36.9996,-473.5404 46.6693,-170.1488 107,-105 116.9827,-94.2201 131.9697,-89.0963 146.147,-86.7984"/>
<polygon fill="#191970" stroke="#191970" points="146.7335,-90.2532 156.2441,-85.5842 145.8977,-83.3033 146.7335,-90.2532"/>
</g>
<!-- Node75 -->
<g id="node36" class="node">
<title>Node75</title>
<g id="a_node36"><a xlink:href="../../d1/dda/3rd_party_2sundials_2build_2include_2ida_2ida_8h.html#af37ea22a2f4ee44073b0b40fccee8b79" target="_top" xlink:title="IDARootInit">
<polygon fill="#ffffff" stroke="#000000" points="151,-38.5 151,-57.5 219,-57.5 219,-38.5 151,-38.5"/>
<text text-anchor="middle" x="185" y="-45.5" font-family="Helvetica,sans-Serif" font-size="10.00" fill="#000000">IDARootInit</text>
</a>
</g>
</g>
<!-- Node40&#45;&gt;Node75 -->
<g id="edge38" class="edge">
<title>Node40&#45;&gt;Node75</title>
<path fill="none" stroke="#191970" d="M36.2986,-532.4698C41.742,-468.4888 74.152,-102.9289 107,-67 115.6822,-57.5034 128.2464,-52.3853 140.7635,-49.7227"/>
<polygon fill="#191970" stroke="#191970" points="141.4217,-53.1615 150.7168,-48.0771 140.2798,-46.2552 141.4217,-53.1615"/>
</g>
<!-- Node76 -->
<g id="node37" class="node">
<title>Node76</title>
<g id="a_node37"><a xlink:href="../../d1/dda/3rd_party_2sundials_2build_2include_2ida_2ida_8h.html#a4968b475bad2aeee89e97c826321caad" target="_top" xlink:title="IDASetRootDirection">
<polygon fill="#ffffff" stroke="#000000" points="130.5,-.5 130.5,-19.5 239.5,-19.5 239.5,-.5 130.5,-.5"/>
<text text-anchor="middle" x="185" y="-7.5" font-family="Helvetica,sans-Serif" font-size="10.00" fill="#000000">IDASetRootDirection</text>
</a>
</g>
</g>
<!-- Node40&#45;&gt;Node76 -->
<g id="edge39" class="edge">
<title>Node40&#45;&gt;Node76</title>
<path fill="none" stroke="#191970" d="M36.2117,-532.1497C41.1967,-464.323 71.7169,-68.0181 107,-29 111.0124,-24.5628 115.872,-21.0795 121.1819,-18.3548"/>
<polygon fill="#191970" stroke="#191970" points="122.6095,-21.5514 130.4732,-14.4512 119.8981,-15.0979 122.6095,-21.5514"/>
</g>
<!-- Node42 -->
<g id="node3" class="node">
<title>Node42</title>
<g id="a_node3"><a xlink:href="../../dc/d46/group__core_solver.html#ga77ff2025a7aa18893a127f4b646c164c" target="_top" xlink:title="SimulationMonitor::\linitialize">
<polygon fill="#ffffff" stroke="#000000" points="314.5,-1287 314.5,-1317 415.5,-1317 415.5,-1287 314.5,-1287"/>
<text text-anchor="start" x="322.5" y="-1305" font-family="Helvetica,sans-Serif" font-size="10.00" fill="#000000">SimulationMonitor::</text>
<text text-anchor="middle" x="365" y="-1294" font-family="Helvetica,sans-Serif" font-size="10.00" fill="#000000">initialize</text>
</a>
</g>
</g>
<!-- Node41&#45;&gt;Node42 -->
<g id="edge2" class="edge">
<title>Node41&#45;&gt;Node42</title>
<path fill="none" stroke="#191970" d="M196.7765,-1180.0642C215.9206,-1203.6609 256.0012,-1249.4805 299,-1277 302.1251,-1279.0001 305.4343,-1280.8768 308.8404,-1282.6313"/>
<polygon fill="#191970" stroke="#191970" points="307.488,-1285.8636 318.0227,-1286.9911 310.4904,-1279.5402 307.488,-1285.8636"/>
</g>
<!-- Node43 -->
<g id="node4" class="node">
<title>Node43</title>
<g id="a_node4"><a xlink:href="../../dc/d98/class_i_time.html#aee4919bed7918250678421574392641d" target="_top" xlink:title="Set current integration time. ">
<polygon fill="#ffffff" stroke="#000000" points="323.5,-1248.5 323.5,-1267.5 406.5,-1267.5 406.5,-1248.5 323.5,-1248.5"/>
<text text-anchor="middle" x="365" y="-1255.5" font-family="Helvetica,sans-Serif" font-size="10.00" fill="#000000">ITime::setTime</text>
</a>
</g>
</g>
<!-- Node41&#45;&gt;Node43 -->
<g id="edge3" class="edge">
<title>Node41&#45;&gt;Node43</title>
<path fill="none" stroke="#191970" d="M204.5464,-1180.2779C226.4601,-1196.7699 263.5793,-1222.8397 299,-1239 304.0172,-1241.289 309.3757,-1243.3711 314.7886,-1245.2463"/>
<polygon fill="#191970" stroke="#191970" points="313.9363,-1248.6492 324.5282,-1248.3983 316.0917,-1241.9893 313.9363,-1248.6492"/>
</g>
<!-- Node44 -->
<g id="node5" class="node">
<title>Node44</title>
<g id="a_node5"><a xlink:href="../../d9/d56/class_i_solver_settings.html#acd9b997fd991c229bfbbec8f3de17560" target="_top" xlink:title="Global simulation settings. ">
<polygon fill="#ffffff" stroke="#000000" points="299.5,-1199 299.5,-1229 430.5,-1229 430.5,-1199 299.5,-1199"/>
<text text-anchor="start" x="307.5" y="-1217" font-family="Helvetica,sans-Serif" font-size="10.00" fill="#000000">ISolverSettings::getGlobal</text>
<text text-anchor="middle" x="365" y="-1206" font-family="Helvetica,sans-Serif" font-size="10.00" fill="#000000">Settings</text>
</a>
</g>
</g>
<!-- Node41&#45;&gt;Node44 -->
<g id="edge4" class="edge">
<title>Node41&#45;&gt;Node44</title>
<path fill="none" stroke="#191970" d="M240.4747,-1180.1014C259.297,-1185.2253 280.494,-1190.9956 299.9914,-1196.3032"/>
<polygon fill="#191970" stroke="#191970" points="299.1403,-1199.6988 309.7085,-1198.9484 300.979,-1192.9446 299.1403,-1199.6988"/>
</g>
<!-- Node45 -->
<g id="node6" class="node">
<title>Node45</title>
<g id="a_node6"><a xlink:href="../../d2/dc2/class_i_global_settings.html#a513c6f10bffd92121baa561183c7ae94" target="_top" xlink:title="IGlobalSettings::getOutput\lPointType">
<polygon fill="#ffffff" stroke="#000000" points="299,-1150 299,-1180 431,-1180 431,-1150 299,-1150"/>
<text text-anchor="start" x="307" y="-1168" font-family="Helvetica,sans-Serif" font-size="10.00" fill="#000000">IGlobalSettings::getOutput</text>
<text text-anchor="middle" x="365" y="-1157" font-family="Helvetica,sans-Serif" font-size="10.00" fill="#000000">PointType</text>
</a>
</g>
</g>
<!-- Node41&#45;&gt;Node45 -->
<g id="edge5" class="edge">
<title>Node41&#45;&gt;Node45</title>
<path fill="none" stroke="#191970" d="M256.658,-1165C267.2079,-1165 278.1091,-1165 288.7477,-1165"/>
<polygon fill="#191970" stroke="#191970" points="288.8472,-1168.5001 298.8472,-1165 288.8472,-1161.5001 288.8472,-1168.5001"/>
</g>
<!-- Node46 -->
<g id="node7" class="node">
<title>Node46</title>
<g id="a_node7"><a xlink:href="../../dc/d70/class_i_write_output.html#af7e96a04ac8563b59a6b128c93d1d7c5" target="_top" xlink:title="Output routine (to be called by the solver after every successful integration step) ...">
<polygon fill="#ffffff" stroke="#000000" points="301,-1111.5 301,-1130.5 429,-1130.5 429,-1111.5 301,-1111.5"/>
<text text-anchor="middle" x="365" y="-1118.5" font-family="Helvetica,sans-Serif" font-size="10.00" fill="#000000">IWriteOutput::writeOutput</text>
</a>
</g>
</g>
<!-- Node41&#45;&gt;Node46 -->
<g id="edge6" class="edge">
<title>Node41&#45;&gt;Node46</title>
<path fill="none" stroke="#191970" d="M246.4423,-1149.9808C269.2138,-1144.4144 294.7064,-1138.1829 316.2008,-1132.9287"/>
<polygon fill="#191970" stroke="#191970" points="317.2027,-1136.2869 326.0856,-1130.5124 315.5405,-1129.4871 317.2027,-1136.2869"/>
</g>
<!-- Node41&#45;&gt;Node47 -->
<g id="edge7" class="edge">
<title>Node41&#45;&gt;Node47</title>
<path fill="none" stroke="#191970" d="M208.6756,-1149.8489C231.2047,-1135.9378 266.4076,-1115.4957 299,-1102 304.5754,-1099.6914 310.5259,-1097.553 316.4851,-1095.6077"/>
<polygon fill="#191970" stroke="#191970" points="317.9401,-1098.8212 326.4578,-1092.5204 315.87,-1092.1343 317.9401,-1098.8212"/>
</g>
<!-- Node48 -->
<g id="node9" class="node">
<title>Node48</title>
<g id="a_node9"><a xlink:href="../../d9/de6/class_i_continuous.html#a5aec0cca01e86e9c55849b6dddcac1a6" target="_top" xlink:title="IContinuous::evaluateZero\lFuncs">
<polygon fill="#ffffff" stroke="#000000" points="299.5,-1375 299.5,-1405 430.5,-1405 430.5,-1375 299.5,-1375"/>
<text text-anchor="start" x="307.5" y="-1393" font-family="Helvetica,sans-Serif" font-size="10.00" fill="#000000">IContinuous::evaluateZero</text>
<text text-anchor="middle" x="365" y="-1382" font-family="Helvetica,sans-Serif" font-size="10.00" fill="#000000">Funcs</text>
</a>
</g>
</g>
<!-- Node41&#45;&gt;Node48 -->
<g id="edge8" class="edge">
<title>Node41&#45;&gt;Node48</title>
<path fill="none" stroke="#191970" d="M189.6175,-1180.1154C201.6088,-1216.941 237.1834,-1312.1449 299,-1365 300.9557,-1366.6722 303.0346,-1368.2382 305.2035,-1369.7043"/>
<polygon fill="#191970" stroke="#191970" points="303.5552,-1372.7958 313.9437,-1374.8767 307.1203,-1366.7717 303.5552,-1372.7958"/>
</g>
<!-- Node49 -->
<g id="node10" class="node">
<title>Node49</title>
<g id="a_node10"><a xlink:href="../../d1/d08/class_i_event.html#a1b9b09beed3290e820bc908f8a089329" target="_top" xlink:title="Provides current values of root/zero functions. ">
<polygon fill="#ffffff" stroke="#000000" points="312,-1336.5 312,-1355.5 418,-1355.5 418,-1336.5 312,-1336.5"/>
<text text-anchor="middle" x="365" y="-1343.5" font-family="Helvetica,sans-Serif" font-size="10.00" fill="#000000">IEvent::getZeroFunc</text>
</a>
</g>
</g>
<!-- Node41&#45;&gt;Node49 -->
<g id="edge9" class="edge">
<title>Node41&#45;&gt;Node49</title>
<path fill="none" stroke="#191970" d="M191.3629,-1180.095C205.6735,-1212.1894 243.5382,-1287.4937 299,-1327 301.7193,-1328.937 304.6333,-1330.6776 307.6669,-1332.2415"/>
<polygon fill="#191970" stroke="#191970" points="306.4924,-1335.5499 317.0512,-1336.4233 309.3417,-1329.156 306.4924,-1335.5499"/>
</g>
<!-- Node41&#45;&gt;Node50 -->
<g id="edge10" class="edge">
<title>Node41&#45;&gt;Node50</title>
<path fill="none" stroke="#191970" d="M198.1486,-1149.6431C217.8758,-1127.5471 257.2917,-1086.9292 299,-1064 307.9182,-1059.0972 318.2262,-1055.3516 328.0058,-1052.5366"/>
<polygon fill="#191970" stroke="#191970" points="329.1432,-1055.8566 337.9256,-1049.9304 327.3644,-1049.0864 329.1432,-1055.8566"/>
</g>
<!-- Node41&#45;&gt;Node51 -->
<g id="edge11" class="edge">
<title>Node41&#45;&gt;Node51</title>
<path fill="none" stroke="#191970" d="M193.1726,-1149.9056C209.4408,-1121.3033 248.6848,-1059.1159 299,-1026 307.8893,-1020.1493 318.6024,-1016.0688 328.7871,-1013.2352"/>
<polygon fill="#191970" stroke="#191970" points="329.8323,-1016.5826 338.7086,-1010.798 328.1623,-1009.7847 329.8323,-1016.5826"/>
</g>
</g>
</svg>
