<?xml version="1.0" encoding="UTF-8" standalone="no"?>
<!DOCTYPE svg PUBLIC "-//W3C//DTD SVG 1.1//EN"
 "http://www.w3.org/Graphics/SVG/1.1/DTD/svg11.dtd">
<!-- Generated by graphviz version 2.40.1 (20161225.0304)
 -->
<!-- Title: openmodelica::parmodelica::LevelScheduler&lt; TaskType &gt; Pages: 1 -->
<svg width="599pt" height="78pt"
 viewBox="0.00 0.00 599.00 77.50" xmlns="http://www.w3.org/2000/svg" xmlns:xlink="http://www.w3.org/1999/xlink">
<g id="graph0" class="graph" transform="scale(1 1) rotate(0) translate(4 73.5)">
<title>openmodelica::parmodelica::LevelScheduler&lt; TaskType &gt;</title>
<polygon fill="#ffffff" stroke="transparent" points="-4,4 -4,-73.5 595,-73.5 595,4 -4,4"/>
<!-- Node3 -->
<g id="node1" class="node">
<title>Node3</title>
<polygon fill="#bfbfbf" stroke="#000000" points="440,-22.5 440,-52.5 591,-52.5 591,-22.5 440,-22.5"/>
<text text-anchor="start" x="448" y="-40.5" font-family="Helvetica,sans-Serif" font-size="10.00" fill="#000000">openmodelica::parmodelica</text>
<text text-anchor="middle" x="515.5" y="-29.5" font-family="Helvetica,sans-Serif" font-size="10.00" fill="#000000">::LevelScheduler&lt; TaskType &gt;</text>
</g>
<!-- Node4 -->
<g id="node2" class="node">
<title>Node4</title>
<g id="a_node2"><a xlink:href="../../d0/dd6/classopenmodelica_1_1parmodelica_1_1_step_levels.html" target="_top" xlink:title="openmodelica::parmodelica\l::StepLevels\&lt; TaskType,\l cluster_merge_common, cluster\l_merge_level_for_cost \&gt;">
<polygon fill="#ffffff" stroke="#000000" points="244,-11.5 244,-63.5 403,-63.5 403,-11.5 244,-11.5"/>
<text text-anchor="start" x="252" y="-51.5" font-family="Helvetica,sans-Serif" font-size="10.00" fill="#000000">openmodelica::parmodelica</text>
<text text-anchor="start" x="252" y="-40.5" font-family="Helvetica,sans-Serif" font-size="10.00" fill="#000000">::StepLevels&lt; TaskType,</text>
<text text-anchor="start" x="252" y="-29.5" font-family="Helvetica,sans-Serif" font-size="10.00" fill="#000000"> cluster_merge_common, cluster</text>
<text text-anchor="middle" x="323.5" y="-18.5" font-family="Helvetica,sans-Serif" font-size="10.00" fill="#000000">_merge_level_for_cost &gt;</text>
</a>
</g>
</g>
<!-- Node4&#45;&gt;Node3 -->
<g id="edge1" class="edge">
<title>Node4&#45;&gt;Node3</title>
<path fill="none" stroke="#191970" d="M413.2941,-37.5C422.2255,-37.5 431.2289,-37.5 439.9933,-37.5"/>
<polygon fill="#191970" stroke="#191970" points="413.2573,-34.0001 403.2573,-37.5 413.2572,-41.0001 413.2573,-34.0001"/>
</g>
<!-- Node5 -->
<g id="node3" class="node">
<title>Node5</title>
<polygon fill="#ffffff" stroke="#bfbfbf" points="32,-50 32,-69 103,-69 103,-50 32,-50"/>
<text text-anchor="middle" x="67.5" y="-57" font-family="Helvetica,sans-Serif" font-size="10.00" fill="#000000">noncopyable</text>
</g>
<!-- Node5&#45;&gt;Node4 -->
<g id="edge2" class="edge">
<title>Node5&#45;&gt;Node4</title>
<path fill="none" stroke="#8b1a1a" d="M113.362,-55.5587C149.6083,-52.4438 201.068,-48.0215 243.9908,-44.3328"/>
<polygon fill="#8b1a1a" stroke="#8b1a1a" points="112.7593,-52.0975 103.0957,-56.441 113.3587,-59.0718 112.7593,-52.0975"/>
</g>
<!-- Node6 -->
<g id="node4" class="node">
<title>Node6</title>
<g id="a_node4"><a xlink:href="../../d2/d69/classopenmodelica_1_1parmodelica_1_1_p_m_timer.html" target="_top" xlink:title="openmodelica::parmodelica\l::PMTimer">
<polygon fill="#ffffff" stroke="#000000" points="0,-.5 0,-30.5 135,-30.5 135,-.5 0,-.5"/>
<text text-anchor="start" x="8" y="-18.5" font-family="Helvetica,sans-Serif" font-size="10.00" fill="#000000">openmodelica::parmodelica</text>
<text text-anchor="middle" x="67.5" y="-7.5" font-family="Helvetica,sans-Serif" font-size="10.00" fill="#000000">::PMTimer</text>
</a>
</g>
</g>
<!-- Node6&#45;&gt;Node4 -->
<g id="edge3" class="edge">
<title>Node6&#45;&gt;Node4</title>
<path fill="none" stroke="#9a32cd" stroke-dasharray="5,2" d="M145.2117,-15.7663C170.9748,-16.4365 199.7666,-17.8128 226,-20.5 231.8116,-21.0953 237.7994,-21.8324 243.8139,-22.663"/>
<polygon fill="#9a32cd" stroke="#9a32cd" points="145.2028,-12.2653 135.1252,-15.5353 145.0425,-19.2634 145.2028,-12.2653"/>
<text text-anchor="middle" x="189.5" y="-34.5" font-family="Helvetica,sans-Serif" font-size="10.00" fill="#000000"> execution_timer</text>
<text text-anchor="middle" x="189.5" y="-23.5" font-family="Helvetica,sans-Serif" font-size="10.00" fill="#000000">clustering_timer</text>
</g>
</g>
</svg>
