<?xml version="1.0" encoding="UTF-8" standalone="no"?>
<!DOCTYPE svg PUBLIC "-//W3C//DTD SVG 1.1//EN"
 "http://www.w3.org/Graphics/SVG/1.1/DTD/svg11.dtd">
<!-- Generated by graphviz version 2.40.1 (20161225.0304)
 -->
<!-- Title: omc_Mod_printEqmodStr Pages: 1 -->
<svg width="1319pt" height="490pt"
 viewBox="0.00 0.00 1319.00 489.50" xmlns="http://www.w3.org/2000/svg" xmlns:xlink="http://www.w3.org/1999/xlink">
<g id="graph0" class="graph" transform="scale(1 1) rotate(0) translate(4 485.5)">
<title>omc_Mod_printEqmodStr</title>
<polygon fill="#ffffff" stroke="transparent" points="-4,4 -4,-485.5 1315,-485.5 1315,4 -4,4"/>
<!-- Node3170 -->
<g id="node1" class="node">
<title>Node3170</title>
<polygon fill="#bfbfbf" stroke="#000000" points="0,-294.5 0,-313.5 127,-313.5 127,-294.5 0,-294.5"/>
<text text-anchor="middle" x="63.5" y="-301.5" font-family="Helvetica,sans-Serif" font-size="10.00" fill="#000000">omc_Mod_printEqmodStr</text>
</g>
<!-- Node3171 -->
<g id="node2" class="node">
<title>Node3171</title>
<g id="a_node2"><a xlink:href="../../d8/d16/_expression_dump_8c.html#ab1b14f2e6c847006a4235d1905bb2637" target="_top" xlink:title="omc_ExpressionDump\l_printExpStr">
<polygon fill="#ffffff" stroke="#000000" points="169.5,-387 169.5,-417 285.5,-417 285.5,-387 169.5,-387"/>
<text text-anchor="start" x="177.5" y="-405" font-family="Helvetica,sans-Serif" font-size="10.00" fill="#000000">omc_ExpressionDump</text>
<text text-anchor="middle" x="227.5" y="-394" font-family="Helvetica,sans-Serif" font-size="10.00" fill="#000000">_printExpStr</text>
</a>
</g>
</g>
<!-- Node3170&#45;&gt;Node3171 -->
<g id="edge1" class="edge">
<title>Node3170&#45;&gt;Node3171</title>
<path fill="none" stroke="#191970" d="M79.5236,-313.5751C105.7891,-329.2703 158.5662,-360.8079 193.4662,-381.6627"/>
<polygon fill="#191970" stroke="#191970" points="191.9829,-384.8536 202.3624,-386.9788 195.5736,-378.8447 191.9829,-384.8536"/>
</g>
<!-- Node3177 -->
<g id="node8" class="node">
<title>Node3177</title>
<g id="a_node8"><a xlink:href="../../d3/df6/_types_8c.html#acac61011240d4bd14ab3c2a5f08ff0ac" target="_top" xlink:title="omc_Types_printPropStr">
<polygon fill="#ffffff" stroke="#000000" points="165,-294.5 165,-313.5 290,-313.5 290,-294.5 165,-294.5"/>
<text text-anchor="middle" x="227.5" y="-301.5" font-family="Helvetica,sans-Serif" font-size="10.00" fill="#000000">omc_Types_printPropStr</text>
</a>
</g>
</g>
<!-- Node3170&#45;&gt;Node3177 -->
<g id="edge7" class="edge">
<title>Node3170&#45;&gt;Node3177</title>
<path fill="none" stroke="#191970" d="M127.3763,-304C136.3287,-304 145.5844,-304 154.6873,-304"/>
<polygon fill="#191970" stroke="#191970" points="154.8754,-307.5001 164.8753,-304 154.8753,-300.5001 154.8754,-307.5001"/>
</g>
<!-- Node3188 -->
<g id="node19" class="node">
<title>Node3188</title>
<g id="a_node19"><a xlink:href="../../da/d15/_values_util_8c.html#a5e7ddb83424cfc064dd1bc7f841056d2" target="_top" xlink:title="omc_ValuesUtil_valString">
<polygon fill="#ffffff" stroke="#000000" points="163,-143.5 163,-162.5 292,-162.5 292,-143.5 163,-143.5"/>
<text text-anchor="middle" x="227.5" y="-150.5" font-family="Helvetica,sans-Serif" font-size="10.00" fill="#000000">omc_ValuesUtil_valString</text>
</a>
</g>
</g>
<!-- Node3170&#45;&gt;Node3188 -->
<g id="edge18" class="edge">
<title>Node3170&#45;&gt;Node3188</title>
<path fill="none" stroke="#191970" d="M74.2605,-294.0925C101.8368,-268.7021 175.2667,-201.0928 209.4836,-169.5883"/>
<polygon fill="#191970" stroke="#191970" points="211.9272,-172.096 216.9131,-162.7477 207.1857,-166.9464 211.9272,-172.096"/>
</g>
<!-- Node3172 -->
<g id="node3" class="node">
<title>Node3172</title>
<g id="a_node3"><a xlink:href="../../d7/d52/_tpl_8c.html#a19e668217f7d6c0b176843e40633cae2" target="_top" xlink:title="omc_Tpl_tplString2">
<polygon fill="#ffffff" stroke="#000000" points="349,-418.5 349,-437.5 450,-437.5 450,-418.5 349,-418.5"/>
<text text-anchor="middle" x="399.5" y="-425.5" font-family="Helvetica,sans-Serif" font-size="10.00" fill="#000000">omc_Tpl_tplString2</text>
</a>
</g>
</g>
<!-- Node3171&#45;&gt;Node3172 -->
<g id="edge2" class="edge">
<title>Node3171&#45;&gt;Node3172</title>
<path fill="none" stroke="#191970" d="M285.7314,-410.8024C302.8398,-413.3886 321.5907,-416.223 338.8466,-418.8315"/>
<polygon fill="#191970" stroke="#191970" points="338.3993,-422.3035 348.8101,-420.3376 339.4456,-415.3822 338.3993,-422.3035"/>
</g>
<!-- Node3173 -->
<g id="node4" class="node">
<title>Node3173</title>
<g id="a_node4"><a xlink:href="../../db/da1/_compiler_2boot_2build_2error_8c.html#a6f9ff3d03e91883492e13af7fbc088ff" target="_top" xlink:title="omc_Error_getNumErrorMessages">
<polygon fill="#ffffff" stroke="#000000" points="507,-456.5 507,-475.5 674,-475.5 674,-456.5 507,-456.5"/>
<text text-anchor="middle" x="590.5" y="-463.5" font-family="Helvetica,sans-Serif" font-size="10.00" fill="#000000">omc_Error_getNumErrorMessages</text>
</a>
</g>
</g>
<!-- Node3172&#45;&gt;Node3173 -->
<g id="edge3" class="edge">
<title>Node3172&#45;&gt;Node3173</title>
<path fill="none" stroke="#191970" d="M447.6974,-437.589C473.4696,-442.7165 505.3906,-449.0672 532.5124,-454.4632"/>
<polygon fill="#191970" stroke="#191970" points="532.1585,-457.9613 542.6492,-456.4799 533.5244,-451.0959 532.1585,-457.9613"/>
</g>
<!-- Node3176 -->
<g id="node7" class="node">
<title>Node3176</title>
<g id="a_node7"><a xlink:href="../../d7/d52/_tpl_8c.html#af79df210cda1bb788fce4ef64cb58a0f" target="_top" xlink:title="omc_Tpl_tplCallWithFailError2">
<polygon fill="#ffffff" stroke="#000000" points="516,-418.5 516,-437.5 665,-437.5 665,-418.5 516,-418.5"/>
<text text-anchor="middle" x="590.5" y="-425.5" font-family="Helvetica,sans-Serif" font-size="10.00" fill="#000000">omc_Tpl_tplCallWithFailError2</text>
</a>
</g>
</g>
<!-- Node3172&#45;&gt;Node3176 -->
<g id="edge6" class="edge">
<title>Node3172&#45;&gt;Node3176</title>
<path fill="none" stroke="#191970" d="M450.183,-428C467.2329,-428 486.7475,-428 505.6935,-428"/>
<polygon fill="#191970" stroke="#191970" points="505.836,-431.5001 515.8359,-428 505.8359,-424.5001 505.836,-431.5001"/>
</g>
<!-- Node3174 -->
<g id="node5" class="node">
<title>Node3174</title>
<g id="a_node5"><a xlink:href="../../d4/dce/_error_ext_8c.html#a0195f83af0487b3e7bf35deb4225e582" target="_top" xlink:title="omc_ErrorExt_getNumError\lMessages">
<polygon fill="#ffffff" stroke="#000000" points="710,-451 710,-481 847,-481 847,-451 710,-451"/>
<text text-anchor="start" x="718" y="-469" font-family="Helvetica,sans-Serif" font-size="10.00" fill="#000000">omc_ErrorExt_getNumError</text>
<text text-anchor="middle" x="778.5" y="-458" font-family="Helvetica,sans-Serif" font-size="10.00" fill="#000000">Messages</text>
</a>
</g>
</g>
<!-- Node3173&#45;&gt;Node3174 -->
<g id="edge4" class="edge">
<title>Node3173&#45;&gt;Node3174</title>
<path fill="none" stroke="#191970" d="M674.0544,-466C682.5601,-466 691.1814,-466 699.635,-466"/>
<polygon fill="#191970" stroke="#191970" points="699.8443,-469.5001 709.8442,-466 699.8442,-462.5001 699.8443,-469.5001"/>
</g>
<!-- Node3175 -->
<g id="node6" class="node">
<title>Node3175</title>
<g id="a_node6"><a xlink:href="../../d1/d40/boot_2build_2_error_ext_8h.html#a1206137921767ad0e49abe96adf7b5e3" target="_top" xlink:title="ErrorImpl__getNumErrorMessages">
<polygon fill="#ffffff" stroke="#000000" points="883,-456.5 883,-475.5 1050,-475.5 1050,-456.5 883,-456.5"/>
<text text-anchor="middle" x="966.5" y="-463.5" font-family="Helvetica,sans-Serif" font-size="10.00" fill="#000000">ErrorImpl__getNumErrorMessages</text>
</a>
</g>
</g>
<!-- Node3174&#45;&gt;Node3175 -->
<g id="edge5" class="edge">
<title>Node3174&#45;&gt;Node3175</title>
<path fill="none" stroke="#191970" d="M847.1703,-466C855.5388,-466 864.1966,-466 872.8505,-466"/>
<polygon fill="#191970" stroke="#191970" points="872.9901,-469.5001 882.99,-466 872.99,-462.5001 872.9901,-469.5001"/>
</g>
<!-- Node3178 -->
<g id="node9" class="node">
<title>Node3178</title>
<g id="a_node9"><a xlink:href="../../d3/df6/_types_8c.html#af91bd070b184ff08367dfc388d9259ef" target="_top" xlink:title="omc_Types_unparseType">
<polygon fill="#ffffff" stroke="#000000" points="335,-313.5 335,-332.5 464,-332.5 464,-313.5 335,-313.5"/>
<text text-anchor="middle" x="399.5" y="-320.5" font-family="Helvetica,sans-Serif" font-size="10.00" fill="#000000">omc_Types_unparseType</text>
</a>
</g>
</g>
<!-- Node3177&#45;&gt;Node3178 -->
<g id="edge8" class="edge">
<title>Node3177&#45;&gt;Node3178</title>
<path fill="none" stroke="#191970" d="M290.0825,-310.9132C301.3747,-312.1606 313.25,-313.4724 324.8453,-314.7533"/>
<polygon fill="#191970" stroke="#191970" points="324.6174,-318.2493 334.9412,-315.8685 325.386,-311.2916 324.6174,-318.2493"/>
</g>
<!-- Node3187 -->
<g id="node18" class="node">
<title>Node3187</title>
<g id="a_node18"><a xlink:href="../../d3/df6/_types_8c.html#a88790694c685f6a256b22fa79d5f5a1d" target="_top" xlink:title="omc_Types_printConstStr">
<polygon fill="#ffffff" stroke="#000000" points="334,-275.5 334,-294.5 465,-294.5 465,-275.5 334,-275.5"/>
<text text-anchor="middle" x="399.5" y="-282.5" font-family="Helvetica,sans-Serif" font-size="10.00" fill="#000000">omc_Types_printConstStr</text>
</a>
</g>
</g>
<!-- Node3177&#45;&gt;Node3187 -->
<g id="edge17" class="edge">
<title>Node3177&#45;&gt;Node3187</title>
<path fill="none" stroke="#191970" d="M290.0825,-297.0868C300.9665,-295.8845 312.3922,-294.6224 323.5867,-293.3858"/>
<polygon fill="#191970" stroke="#191970" points="324.2249,-296.8366 333.7802,-292.2597 323.4563,-289.879 324.2249,-296.8366"/>
</g>
<!-- Node3179 -->
<g id="node10" class="node">
<title>Node3179</title>
<g id="a_node10"><a xlink:href="../../d2/d57/build_2include_2omc_2c_2meta_2meta__modelica__builtin_8h.html#a6f570947bebe207c25a64ea25f5ca884" target="_top" xlink:title="stringDelimitList">
<polygon fill="#ffffff" stroke="#000000" points="547,-380.5 547,-399.5 634,-399.5 634,-380.5 547,-380.5"/>
<text text-anchor="middle" x="590.5" y="-387.5" font-family="Helvetica,sans-Serif" font-size="10.00" fill="#000000">stringDelimitList</text>
</a>
</g>
</g>
<!-- Node3178&#45;&gt;Node3179 -->
<g id="edge9" class="edge">
<title>Node3178&#45;&gt;Node3179</title>
<path fill="none" stroke="#191970" d="M418.0831,-332.6471C439.1679,-343.2713 474.8131,-360.2678 507,-371 516.52,-374.1743 526.8249,-376.9956 536.8388,-379.4293"/>
<polygon fill="#191970" stroke="#191970" points="536.1824,-382.8701 546.716,-381.7326 537.7721,-376.053 536.1824,-382.8701"/>
</g>
<!-- Node3180 -->
<g id="node11" class="node">
<title>Node3180</title>
<g id="a_node11"><a xlink:href="../../da/d72/_compiler_2boot_2build_2list_8c.html#a70628b2c3fb199a118f80777135940ee" target="_top" xlink:title="omc_List_map">
<polygon fill="#ffffff" stroke="#000000" points="550.5,-342.5 550.5,-361.5 630.5,-361.5 630.5,-342.5 550.5,-342.5"/>
<text text-anchor="middle" x="590.5" y="-349.5" font-family="Helvetica,sans-Serif" font-size="10.00" fill="#000000">omc_List_map</text>
</a>
</g>
</g>
<!-- Node3178&#45;&gt;Node3180 -->
<g id="edge10" class="edge">
<title>Node3178&#45;&gt;Node3180</title>
<path fill="none" stroke="#191970" d="M462.3051,-332.5359C487.7069,-336.3927 516.6183,-340.7824 540.5477,-344.4156"/>
<polygon fill="#191970" stroke="#191970" points="540.0612,-347.8818 550.4733,-345.9227 541.1121,-340.9611 540.0612,-347.8818"/>
</g>
<!-- Node3181 -->
<g id="node12" class="node">
<title>Node3181</title>
<g id="a_node12"><a xlink:href="../../d7/deb/build_2include_2omc_2c_2util_2modelica__string_8c.html#a751007abc59e9ca7978f2af10a0c814f" target="_top" xlink:title="stringAppend">
<polygon fill="#ffffff" stroke="#000000" points="553.5,-304.5 553.5,-323.5 627.5,-323.5 627.5,-304.5 553.5,-304.5"/>
<text text-anchor="middle" x="590.5" y="-311.5" font-family="Helvetica,sans-Serif" font-size="10.00" fill="#000000">stringAppend</text>
</a>
</g>
</g>
<!-- Node3178&#45;&gt;Node3181 -->
<g id="edge11" class="edge">
<title>Node3178&#45;&gt;Node3181</title>
<path fill="none" stroke="#191970" d="M464.1639,-319.953C490.089,-318.7314 519.4104,-317.3498 543.2749,-316.2253"/>
<polygon fill="#191970" stroke="#191970" points="543.6581,-319.7112 553.4822,-315.7443 543.3285,-312.7189 543.6581,-319.7112"/>
</g>
<!-- Node3182 -->
<g id="node13" class="node">
<title>Node3182</title>
<g id="a_node13"><a xlink:href="../../d1/d5c/_config_8c.html#a4c66800897412c64375295f2d7893c37" target="_top" xlink:title="omc_Config_typeinfo">
<polygon fill="#ffffff" stroke="#000000" points="536,-266.5 536,-285.5 645,-285.5 645,-266.5 536,-266.5"/>
<text text-anchor="middle" x="590.5" y="-273.5" font-family="Helvetica,sans-Serif" font-size="10.00" fill="#000000">omc_Config_typeinfo</text>
</a>
</g>
</g>
<!-- Node3178&#45;&gt;Node3182 -->
<g id="edge12" class="edge">
<title>Node3178&#45;&gt;Node3182</title>
<path fill="none" stroke="#191970" d="M435.263,-313.3878C456.1423,-307.8504 483.0173,-300.8504 507,-295 516.8577,-292.5953 527.3941,-290.1223 537.5467,-287.7884"/>
<polygon fill="#191970" stroke="#191970" points="538.562,-291.1467 547.532,-285.5085 537.0038,-284.3224 538.562,-291.1467"/>
</g>
<!-- Node3183 -->
<g id="node14" class="node">
<title>Node3183</title>
<g id="a_node14"><a xlink:href="../../d3/db3/_flags_8c.html#abc3d84cf6e1cf18f0cec0f052e7c85d9" target="_top" xlink:title="omc_Flags_getConfigBool">
<polygon fill="#ffffff" stroke="#000000" points="713,-266.5 713,-285.5 844,-285.5 844,-266.5 713,-266.5"/>
<text text-anchor="middle" x="778.5" y="-273.5" font-family="Helvetica,sans-Serif" font-size="10.00" fill="#000000">omc_Flags_getConfigBool</text>
</a>
</g>
</g>
<!-- Node3182&#45;&gt;Node3183 -->
<g id="edge13" class="edge">
<title>Node3182&#45;&gt;Node3183</title>
<path fill="none" stroke="#191970" d="M645.1299,-276C663.0498,-276 683.2997,-276 702.5074,-276"/>
<polygon fill="#191970" stroke="#191970" points="702.7431,-279.5001 712.7431,-276 702.7431,-272.5001 702.7431,-279.5001"/>
</g>
<!-- Node3184 -->
<g id="node15" class="node">
<title>Node3184</title>
<g id="a_node15"><a xlink:href="../../d3/db3/_flags_8c.html#a96ba70d54b6662cf90933a207c0c6b8e" target="_top" xlink:title="omc_Flags_getConfigValue">
<polygon fill="#ffffff" stroke="#000000" points="898,-266.5 898,-285.5 1035,-285.5 1035,-266.5 898,-266.5"/>
<text text-anchor="middle" x="966.5" y="-273.5" font-family="Helvetica,sans-Serif" font-size="10.00" fill="#000000">omc_Flags_getConfigValue</text>
</a>
</g>
</g>
<!-- Node3183&#45;&gt;Node3184 -->
<g id="edge14" class="edge">
<title>Node3183&#45;&gt;Node3184</title>
<path fill="none" stroke="#191970" d="M844.2533,-276C858.227,-276 873.1187,-276 887.5269,-276"/>
<polygon fill="#191970" stroke="#191970" points="887.9129,-279.5001 897.9129,-276 887.9128,-272.5001 887.9129,-279.5001"/>
</g>
<!-- Node3185 -->
<g id="node16" class="node">
<title>Node3185</title>
<g id="a_node16"><a xlink:href="../../d3/db3/_flags_8c.html#a760d66f53b65ac257876ca0f6308f09f" target="_top" xlink:title="omc_Flags_loadFlags">
<polygon fill="#ffffff" stroke="#000000" points="1086,-266.5 1086,-285.5 1198,-285.5 1198,-266.5 1086,-266.5"/>
<text text-anchor="middle" x="1142" y="-273.5" font-family="Helvetica,sans-Serif" font-size="10.00" fill="#000000">omc_Flags_loadFlags</text>
</a>
</g>
</g>
<!-- Node3184&#45;&gt;Node3185 -->
<g id="edge15" class="edge">
<title>Node3184&#45;&gt;Node3185</title>
<path fill="none" stroke="#191970" d="M1035.1069,-276C1048.5136,-276 1062.5471,-276 1075.8713,-276"/>
<polygon fill="#191970" stroke="#191970" points="1075.9,-279.5001 1085.9,-276 1075.8999,-272.5001 1075.9,-279.5001"/>
</g>
<!-- Node3186 -->
<g id="node17" class="node">
<title>Node3186</title>
<g id="a_node17"><a xlink:href="../../da/d72/_compiler_2boot_2build_2list_8c.html#a3ec1ee3a5ff53be9af368e290be09182" target="_top" xlink:title="omc_List_fold">
<polygon fill="#ffffff" stroke="#000000" points="1234,-266.5 1234,-285.5 1311,-285.5 1311,-266.5 1234,-266.5"/>
<text text-anchor="middle" x="1272.5" y="-273.5" font-family="Helvetica,sans-Serif" font-size="10.00" fill="#000000">omc_List_fold</text>
</a>
</g>
</g>
<!-- Node3185&#45;&gt;Node3186 -->
<g id="edge16" class="edge">
<title>Node3185&#45;&gt;Node3186</title>
<path fill="none" stroke="#191970" d="M1198.1011,-276C1206.5528,-276 1215.2135,-276 1223.5007,-276"/>
<polygon fill="#191970" stroke="#191970" points="1223.7542,-279.5001 1233.7542,-276 1223.7541,-272.5001 1223.7542,-279.5001"/>
</g>
<!-- Node3189 -->
<g id="node20" class="node">
<title>Node3189</title>
<g id="a_node20"><a xlink:href="../../dc/d4a/_print_8c.html#a9be4a7e0fd8ef4d0e9a96b6a7d30129b" target="_top" xlink:title="omc_Print_saveAndClearBuf">
<polygon fill="#ffffff" stroke="#000000" points="328,-218.5 328,-237.5 471,-237.5 471,-218.5 328,-218.5"/>
<text text-anchor="middle" x="399.5" y="-225.5" font-family="Helvetica,sans-Serif" font-size="10.00" fill="#000000">omc_Print_saveAndClearBuf</text>
</a>
</g>
</g>
<!-- Node3188&#45;&gt;Node3189 -->
<g id="edge19" class="edge">
<title>Node3188&#45;&gt;Node3189</title>
<path fill="none" stroke="#191970" d="M249.6339,-162.6514C279.6929,-175.7585 333.5994,-199.2643 367.9063,-214.2237"/>
<polygon fill="#191970" stroke="#191970" points="366.8856,-217.5968 377.4511,-218.3856 369.6836,-211.1803 366.8856,-217.5968"/>
</g>
<!-- Node3191 -->
<g id="node22" class="node">
<title>Node3191</title>
<g id="a_node22"><a xlink:href="../../da/d15/_values_util_8c.html#aa3645bd6a2aeb84e3b4fff84db40487a" target="_top" xlink:title="omc_ValuesUtil_valString2">
<polygon fill="#ffffff" stroke="#000000" points="332.5,-143.5 332.5,-162.5 466.5,-162.5 466.5,-143.5 332.5,-143.5"/>
<text text-anchor="middle" x="399.5" y="-150.5" font-family="Helvetica,sans-Serif" font-size="10.00" fill="#000000">omc_ValuesUtil_valString2</text>
</a>
</g>
</g>
<!-- Node3188&#45;&gt;Node3191 -->
<g id="edge21" class="edge">
<title>Node3188&#45;&gt;Node3191</title>
<path fill="none" stroke="#191970" d="M292.0358,-153C301.9018,-153 312.1704,-153 322.2757,-153"/>
<polygon fill="#191970" stroke="#191970" points="322.3057,-156.5001 332.3056,-153 322.3056,-149.5001 322.3057,-156.5001"/>
</g>
<!-- Node3198 -->
<g id="node29" class="node">
<title>Node3198</title>
<g id="a_node29"><a xlink:href="../../dc/d4a/_print_8c.html#a24f4e5ba012abc81ac68e0c3bfb3dfcb" target="_top" xlink:title="omc_Print_getString">
<polygon fill="#ffffff" stroke="#000000" points="347,-86.5 347,-105.5 452,-105.5 452,-86.5 347,-86.5"/>
<text text-anchor="middle" x="399.5" y="-93.5" font-family="Helvetica,sans-Serif" font-size="10.00" fill="#000000">omc_Print_getString</text>
</a>
</g>
</g>
<!-- Node3188&#45;&gt;Node3198 -->
<g id="edge28" class="edge">
<title>Node3188&#45;&gt;Node3198</title>
<path fill="none" stroke="#191970" d="M256.2889,-143.4595C284.9385,-133.9651 329.091,-119.3332 360.7961,-108.8263"/>
<polygon fill="#191970" stroke="#191970" points="362.2258,-112.0397 370.6171,-105.5716 360.0238,-105.3951 362.2258,-112.0397"/>
</g>
<!-- Node3200 -->
<g id="node31" class="node">
<title>Node3200</title>
<g id="a_node31"><a xlink:href="../../dc/d4a/_print_8c.html#ab5cdbbbaeeac69f9d76f10b1354c7ba2" target="_top" xlink:title="omc_Print_restoreBuf">
<polygon fill="#ffffff" stroke="#000000" points="344,-10.5 344,-29.5 455,-29.5 455,-10.5 344,-10.5"/>
<text text-anchor="middle" x="399.5" y="-17.5" font-family="Helvetica,sans-Serif" font-size="10.00" fill="#000000">omc_Print_restoreBuf</text>
</a>
</g>
</g>
<!-- Node3188&#45;&gt;Node3200 -->
<g id="edge30" class="edge">
<title>Node3188&#45;&gt;Node3200</title>
<path fill="none" stroke="#191970" d="M239.8698,-143.435C269.1071,-120.827 342.7267,-63.9003 378.8543,-35.9644"/>
<polygon fill="#191970" stroke="#191970" points="381.0084,-38.7231 386.7782,-29.8372 376.7264,-33.1855 381.0084,-38.7231"/>
</g>
<!-- Node3190 -->
<g id="node21" class="node">
<title>Node3190</title>
<g id="a_node21"><a xlink:href="../../db/def/_print_8h.html#afbd06f69772f11802874118538c5e3cb" target="_top" xlink:title="Print_saveAndClearBuf">
<polygon fill="#ffffff" stroke="#000000" points="531,-228.5 531,-247.5 650,-247.5 650,-228.5 531,-228.5"/>
<text text-anchor="middle" x="590.5" y="-235.5" font-family="Helvetica,sans-Serif" font-size="10.00" fill="#000000">Print_saveAndClearBuf</text>
</a>
</g>
</g>
<!-- Node3189&#45;&gt;Node3190 -->
<g id="edge20" class="edge">
<title>Node3189&#45;&gt;Node3190</title>
<path fill="none" stroke="#191970" d="M471.1648,-231.7521C487.3157,-232.5977 504.4383,-233.4942 520.5191,-234.3361"/>
<polygon fill="#191970" stroke="#191970" points="520.746,-237.8527 530.9154,-234.8804 521.1121,-230.8622 520.746,-237.8527"/>
</g>
<!-- Node3192 -->
<g id="node23" class="node">
<title>Node3192</title>
<g id="a_node23"><a xlink:href="../../d2/d57/build_2include_2omc_2c_2meta_2meta__modelica__builtin_8h.html#a751bf2360cb3df6de97811998890b7ea" target="_top" xlink:title="intString">
<polygon fill="#ffffff" stroke="#000000" points="564,-190.5 564,-209.5 617,-209.5 617,-190.5 564,-190.5"/>
<text text-anchor="middle" x="590.5" y="-197.5" font-family="Helvetica,sans-Serif" font-size="10.00" fill="#000000">intString</text>
</a>
</g>
</g>
<!-- Node3191&#45;&gt;Node3192 -->
<g id="edge22" class="edge">
<title>Node3191&#45;&gt;Node3192</title>
<path fill="none" stroke="#191970" d="M435.263,-162.6122C456.1423,-168.1496 483.0173,-175.1496 507,-181 522.2255,-184.7142 539.0702,-188.5911 553.6189,-191.8671"/>
<polygon fill="#191970" stroke="#191970" points="553.2278,-195.3661 563.7509,-194.1353 554.7571,-188.5351 553.2278,-195.3661"/>
</g>
<!-- Node3193 -->
<g id="node24" class="node">
<title>Node3193</title>
<g id="a_node24"><a xlink:href="../../dc/d4a/_print_8c.html#a0814578dcc1618c6b57729067765170b" target="_top" xlink:title="omc_Print_printBuf">
<polygon fill="#ffffff" stroke="#000000" points="540.5,-152.5 540.5,-171.5 640.5,-171.5 640.5,-152.5 540.5,-152.5"/>
<text text-anchor="middle" x="590.5" y="-159.5" font-family="Helvetica,sans-Serif" font-size="10.00" fill="#000000">omc_Print_printBuf</text>
</a>
</g>
</g>
<!-- Node3191&#45;&gt;Node3193 -->
<g id="edge23" class="edge">
<title>Node3191&#45;&gt;Node3193</title>
<path fill="none" stroke="#191970" d="M466.5709,-156.1604C487.3525,-157.1396 510.1104,-158.212 530.3887,-159.1675"/>
<polygon fill="#191970" stroke="#191970" points="530.2793,-162.6662 540.433,-159.6408 530.6089,-155.6739 530.2793,-162.6662"/>
</g>
<!-- Node3195 -->
<g id="node26" class="node">
<title>Node3195</title>
<g id="a_node26"><a xlink:href="../../d2/d57/build_2include_2omc_2c_2meta_2meta__modelica__builtin_8h.html#a87fa8e77dec9dc00c51dc3bada543d0d" target="_top" xlink:title="realString">
<polygon fill="#ffffff" stroke="#000000" points="561.5,-114.5 561.5,-133.5 619.5,-133.5 619.5,-114.5 561.5,-114.5"/>
<text text-anchor="middle" x="590.5" y="-121.5" font-family="Helvetica,sans-Serif" font-size="10.00" fill="#000000">realString</text>
</a>
</g>
</g>
<!-- Node3191&#45;&gt;Node3195 -->
<g id="edge25" class="edge">
<title>Node3191&#45;&gt;Node3195</title>
<path fill="none" stroke="#191970" d="M462.3051,-143.4641C491.6428,-139.0097 525.662,-133.8445 551.2805,-129.9548"/>
<polygon fill="#191970" stroke="#191970" points="551.9956,-133.3864 561.3569,-128.4249 550.9447,-126.4657 551.9956,-133.3864"/>
</g>
<!-- Node3196 -->
<g id="node27" class="node">
<title>Node3196</title>
<g id="a_node27"><a xlink:href="../../d1/d95/_system_8c.html#a170d374b1efa7c49852464d3033532fe" target="_top" xlink:title="omc_System_escapedString">
<polygon fill="#ffffff" stroke="#000000" points="519.5,-76.5 519.5,-95.5 661.5,-95.5 661.5,-76.5 519.5,-76.5"/>
<text text-anchor="middle" x="590.5" y="-83.5" font-family="Helvetica,sans-Serif" font-size="10.00" fill="#000000">omc_System_escapedString</text>
</a>
</g>
</g>
<!-- Node3191&#45;&gt;Node3196 -->
<g id="edge26" class="edge">
<title>Node3191&#45;&gt;Node3196</title>
<path fill="none" stroke="#191970" d="M418.0831,-143.3529C439.1679,-132.7287 474.8131,-115.7322 507,-105 514.7207,-102.4257 522.9576,-100.0835 531.1369,-97.9919"/>
<polygon fill="#191970" stroke="#191970" points="532.1656,-101.3435 541.0466,-95.5662 530.5012,-94.5442 532.1656,-101.3435"/>
</g>
<!-- Node3194 -->
<g id="node25" class="node">
<title>Node3194</title>
<g id="a_node25"><a xlink:href="../../db/def/_print_8h.html#a4e09b57c2e6549226f6669ca20a3cf07" target="_top" xlink:title="Print_printBuf">
<polygon fill="#ffffff" stroke="#000000" points="740.5,-152.5 740.5,-171.5 816.5,-171.5 816.5,-152.5 740.5,-152.5"/>
<text text-anchor="middle" x="778.5" y="-159.5" font-family="Helvetica,sans-Serif" font-size="10.00" fill="#000000">Print_printBuf</text>
</a>
</g>
</g>
<!-- Node3193&#45;&gt;Node3194 -->
<g id="edge24" class="edge">
<title>Node3193&#45;&gt;Node3194</title>
<path fill="none" stroke="#191970" d="M640.8805,-162C668.5601,-162 702.7232,-162 730.0863,-162"/>
<polygon fill="#191970" stroke="#191970" points="730.2129,-165.5001 740.2128,-162 730.2128,-158.5001 730.2129,-165.5001"/>
</g>
<!-- Node3197 -->
<g id="node28" class="node">
<title>Node3197</title>
<g id="a_node28"><a xlink:href="../../d8/d28/_compiler_2boot_2build_2system_8h.html#aae4f4ade8d6d1432e5d84736552cb4e6" target="_top" xlink:title="System_escapedString">
<polygon fill="#ffffff" stroke="#000000" points="719.5,-76.5 719.5,-95.5 837.5,-95.5 837.5,-76.5 719.5,-76.5"/>
<text text-anchor="middle" x="778.5" y="-83.5" font-family="Helvetica,sans-Serif" font-size="10.00" fill="#000000">System_escapedString</text>
</a>
</g>
</g>
<!-- Node3196&#45;&gt;Node3197 -->
<g id="edge27" class="edge">
<title>Node3196&#45;&gt;Node3197</title>
<path fill="none" stroke="#191970" d="M661.5747,-86C677.1841,-86 693.6916,-86 709.2289,-86"/>
<polygon fill="#191970" stroke="#191970" points="709.2797,-89.5001 719.2797,-86 709.2797,-82.5001 709.2797,-89.5001"/>
</g>
<!-- Node3199 -->
<g id="node30" class="node">
<title>Node3199</title>
<g id="a_node30"><a xlink:href="../../db/def/_print_8h.html#adc535a7680da761472c50a3613eba8d7" target="_top" xlink:title="Print_getString">
<polygon fill="#ffffff" stroke="#000000" points="550,-38.5 550,-57.5 631,-57.5 631,-38.5 550,-38.5"/>
<text text-anchor="middle" x="590.5" y="-45.5" font-family="Helvetica,sans-Serif" font-size="10.00" fill="#000000">Print_getString</text>
</a>
</g>
</g>
<!-- Node3198&#45;&gt;Node3199 -->
<g id="edge29" class="edge">
<title>Node3198&#45;&gt;Node3199</title>
<path fill="none" stroke="#191970" d="M433.7832,-86.3786C454.8514,-80.5588 482.4249,-73.1082 507,-67 517.6046,-64.3642 529.003,-61.6757 539.865,-59.1821"/>
<polygon fill="#191970" stroke="#191970" points="540.6781,-62.5866 549.6515,-56.9539 539.124,-55.7613 540.6781,-62.5866"/>
</g>
<!-- Node3201 -->
<g id="node32" class="node">
<title>Node3201</title>
<g id="a_node32"><a xlink:href="../../db/def/_print_8h.html#a30efd8fc4a8cb13b594cb63bcac9407c" target="_top" xlink:title="Print_restoreBuf">
<polygon fill="#ffffff" stroke="#000000" points="547,-.5 547,-19.5 634,-19.5 634,-.5 547,-.5"/>
<text text-anchor="middle" x="590.5" y="-7.5" font-family="Helvetica,sans-Serif" font-size="10.00" fill="#000000">Print_restoreBuf</text>
</a>
</g>
</g>
<!-- Node3200&#45;&gt;Node3201 -->
<g id="edge31" class="edge">
<title>Node3200&#45;&gt;Node3201</title>
<path fill="none" stroke="#191970" d="M455.0017,-17.0942C480.6551,-15.751 511.0085,-14.1619 536.4771,-12.8284"/>
<polygon fill="#191970" stroke="#191970" points="536.8976,-16.3113 546.7009,-12.2931 536.5315,-9.3209 536.8976,-16.3113"/>
</g>
</g>
</svg>
