<?xml version="1.0" encoding="UTF-8" standalone="no"?>
<!DOCTYPE svg PUBLIC "-//W3C//DTD SVG 1.1//EN"
 "http://www.w3.org/Graphics/SVG/1.1/DTD/svg11.dtd">
<!-- Generated by graphviz version 2.40.1 (20161225.0304)
 -->
<!-- Title: omc_Mod_mergeRedeclareWithBinding Pages: 1 -->
<svg width="1769pt" height="554pt"
 viewBox="0.00 0.00 1769.00 553.50" xmlns="http://www.w3.org/2000/svg" xmlns:xlink="http://www.w3.org/1999/xlink">
<g id="graph0" class="graph" transform="scale(1 1) rotate(0) translate(4 549.5)">
<title>omc_Mod_mergeRedeclareWithBinding</title>
<polygon fill="#ffffff" stroke="transparent" points="-4,4 -4,-549.5 1765,-549.5 1765,4 -4,4"/>
<!-- Node2789 -->
<g id="node1" class="node">
<title>Node2789</title>
<polygon fill="#bfbfbf" stroke="#000000" points="0,-174 0,-204 156,-204 156,-174 0,-174"/>
<text text-anchor="start" x="8" y="-192" font-family="Helvetica,sans-Serif" font-size="10.00" fill="#000000">omc_Mod_mergeRedeclareWith</text>
<text text-anchor="middle" x="78" y="-181" font-family="Helvetica,sans-Serif" font-size="10.00" fill="#000000">Binding</text>
</g>
<!-- Node2790 -->
<g id="node2" class="node">
<title>Node2790</title>
<g id="a_node2"><a xlink:href="../../d1/dd5/_mod_8c.html#a89a4a128b3e1af052cbd33366b0b91cd" target="_top" xlink:title="omc_Mod_checkDuplicateModifications">
<polygon fill="#ffffff" stroke="#000000" points="192,-179.5 192,-198.5 382,-198.5 382,-179.5 192,-179.5"/>
<text text-anchor="middle" x="287" y="-186.5" font-family="Helvetica,sans-Serif" font-size="10.00" fill="#000000">omc_Mod_checkDuplicateModifications</text>
</a>
</g>
</g>
<!-- Node2789&#45;&gt;Node2790 -->
<g id="edge1" class="edge">
<title>Node2789&#45;&gt;Node2790</title>
<path fill="none" stroke="#191970" d="M166.2768,-189C174.6732,-189 183.2128,-189 191.6717,-189"/>
<polygon fill="#191970" stroke="#191970" points="166.1211,-185.5001 156.1211,-189 166.1211,-192.5001 166.1211,-185.5001"/>
</g>
<!-- Node2791 -->
<g id="node3" class="node">
<title>Node2791</title>
<g id="a_node3"><a xlink:href="../../d1/dd5/_mod_8c.html#afde7a1a769e19d18094451f3aeb54075" target="_top" xlink:title="omc_Mod_selectEqMod">
<polygon fill="#ffffff" stroke="#000000" points="443,-198.5 443,-217.5 565,-217.5 565,-198.5 443,-198.5"/>
<text text-anchor="middle" x="504" y="-205.5" font-family="Helvetica,sans-Serif" font-size="10.00" fill="#000000">omc_Mod_selectEqMod</text>
</a>
</g>
</g>
<!-- Node2790&#45;&gt;Node2791 -->
<g id="edge2" class="edge">
<title>Node2790&#45;&gt;Node2791</title>
<path fill="none" stroke="#191970" d="M392.3634,-198.2254C409.7039,-199.7437 427.1512,-201.2713 442.9319,-202.653"/>
<polygon fill="#191970" stroke="#191970" points="392.4466,-194.7193 382.1794,-197.3337 391.8359,-201.6927 392.4466,-194.7193"/>
</g>
<!-- Node2792 -->
<g id="node4" class="node">
<title>Node2792</title>
<g id="a_node4"><a xlink:href="../../d9/dd4/_mod_8h.html#abb2a7a2f5b81182f825d60a9b76c3645" target="_top" xlink:title="omc_Mod_lookupCompModification">
<polygon fill="#ffffff" stroke="#000000" points="418,-160.5 418,-179.5 590,-179.5 590,-160.5 418,-160.5"/>
<text text-anchor="middle" x="504" y="-167.5" font-family="Helvetica,sans-Serif" font-size="10.00" fill="#000000">omc_Mod_lookupCompModification</text>
</a>
</g>
</g>
<!-- Node2790&#45;&gt;Node2792 -->
<g id="edge3" class="edge">
<title>Node2790&#45;&gt;Node2792</title>
<path fill="none" stroke="#191970" d="M392.2103,-179.788C400.7768,-179.038 409.3707,-178.2855 417.778,-177.5494"/>
<polygon fill="#191970" stroke="#191970" points="391.8359,-176.3073 382.1794,-180.6663 392.4466,-183.2807 391.8359,-176.3073"/>
</g>
<!-- Node2793 -->
<g id="node5" class="node">
<title>Node2793</title>
<g id="a_node5"><a xlink:href="../../dc/dac/_inst_binding_8c.html#aa41610bc559ba1018b1170b5eacf4be2" target="_top" xlink:title="omc_InstBinding_instStart\lOrigin">
<polygon fill="#ffffff" stroke="#000000" points="636.5,-412 636.5,-442 767.5,-442 767.5,-412 636.5,-412"/>
<text text-anchor="start" x="644.5" y="-430" font-family="Helvetica,sans-Serif" font-size="10.00" fill="#000000">omc_InstBinding_instStart</text>
<text text-anchor="middle" x="702" y="-419" font-family="Helvetica,sans-Serif" font-size="10.00" fill="#000000">Origin</text>
</a>
</g>
</g>
<!-- Node2792&#45;&gt;Node2793 -->
<g id="edge4" class="edge">
<title>Node2792&#45;&gt;Node2793</title>
<path fill="none" stroke="#191970" d="M586.1133,-185.3468C587.4699,-186.4889 588.7683,-187.7051 590,-189 656.1703,-258.5648 563.4023,-329.2037 626,-402 629.3508,-405.8967 633.3206,-409.1893 637.6605,-411.9709"/>
<polygon fill="#191970" stroke="#191970" points="587.9863,-182.3868 577.7685,-179.5854 584.0091,-188.1473 587.9863,-182.3868"/>
</g>
<!-- Node2794 -->
<g id="node6" class="node">
<title>Node2794</title>
<g id="a_node6"><a xlink:href="../../dc/dac/_inst_binding_8c.html#ac5a970218edfe1503ad020b8da0cc82e" target="_top" xlink:title="omc_InstBinding_instBinding">
<polygon fill="#ffffff" stroke="#000000" points="630.5,-373.5 630.5,-392.5 773.5,-392.5 773.5,-373.5 630.5,-373.5"/>
<text text-anchor="middle" x="702" y="-380.5" font-family="Helvetica,sans-Serif" font-size="10.00" fill="#000000">omc_InstBinding_instBinding</text>
</a>
</g>
</g>
<!-- Node2792&#45;&gt;Node2794 -->
<g id="edge5" class="edge">
<title>Node2792&#45;&gt;Node2794</title>
<path fill="none" stroke="#191970" d="M583.4116,-184.3893C585.707,-185.7938 587.9117,-187.3269 590,-189 619.4828,-212.6204 607.6664,-232.9691 626,-266 648.9219,-307.2975 681.0201,-353.566 695.0154,-373.2711"/>
<polygon fill="#191970" stroke="#191970" points="584.6505,-181.0889 574.1628,-179.5859 581.4242,-187.3011 584.6505,-181.0889"/>
</g>
<!-- Node2806 -->
<g id="node18" class="node">
<title>Node2806</title>
<g id="a_node18"><a xlink:href="../../da/d17/_inst_util_8h.html#ac9d3d98f06c2d0f9c832debedddb2d9e" target="_top" xlink:title="omc_InstUtil_chainRedeclare\l__dispatch">
<polygon fill="#ffffff" stroke="#000000" points="629.5,-226 629.5,-256 774.5,-256 774.5,-226 629.5,-226"/>
<text text-anchor="start" x="637.5" y="-244" font-family="Helvetica,sans-Serif" font-size="10.00" fill="#000000">omc_InstUtil_chainRedeclare</text>
<text text-anchor="middle" x="702" y="-233" font-family="Helvetica,sans-Serif" font-size="10.00" fill="#000000">__dispatch</text>
</a>
</g>
</g>
<!-- Node2792&#45;&gt;Node2806 -->
<g id="edge17" class="edge">
<title>Node2792&#45;&gt;Node2806</title>
<path fill="none" stroke="#191970" d="M565.8381,-181.9599C574.0396,-184.0407 582.2766,-186.3885 590,-189 619.4473,-198.9568 651.4677,-214.3168 673.6993,-225.765"/>
<polygon fill="#191970" stroke="#191970" points="566.4311,-178.5025 555.8886,-179.5545 564.7861,-185.3064 566.4311,-178.5025"/>
</g>
<!-- Node2816 -->
<g id="node28" class="node">
<title>Node2816</title>
<g id="a_node28"><a xlink:href="../../db/dd4/_inst_util_8c.html#a0cfdcdf4a7d6f1f50265fe134659ebed" target="_top" xlink:title="omc_InstUtil_addClassdef\lToEnv">
<polygon fill="#ffffff" stroke="#000000" points="636,-155 636,-185 768,-185 768,-155 636,-155"/>
<text text-anchor="start" x="644" y="-173" font-family="Helvetica,sans-Serif" font-size="10.00" fill="#000000">omc_InstUtil_addClassdef</text>
<text text-anchor="middle" x="702" y="-162" font-family="Helvetica,sans-Serif" font-size="10.00" fill="#000000">ToEnv</text>
</a>
</g>
</g>
<!-- Node2792&#45;&gt;Node2816 -->
<g id="edge27" class="edge">
<title>Node2792&#45;&gt;Node2816</title>
<path fill="none" stroke="#191970" d="M600.3666,-170C612.4201,-170 624.5256,-170 635.9678,-170"/>
<polygon fill="#191970" stroke="#191970" points="600.2697,-166.5001 590.2697,-170 600.2697,-173.5001 600.2697,-166.5001"/>
</g>
<!-- Node2830 -->
<g id="node42" class="node">
<title>Node2830</title>
<g id="a_node42"><a xlink:href="../../d1/dd5/_mod_8c.html#a8389b1c4f1f32b4cf1995367cc322688" target="_top" xlink:title="omc_Mod_mergeSubMods">
<polygon fill="#ffffff" stroke="#000000" points="635.5,-94.5 635.5,-113.5 768.5,-113.5 768.5,-94.5 635.5,-94.5"/>
<text text-anchor="middle" x="702" y="-101.5" font-family="Helvetica,sans-Serif" font-size="10.00" fill="#000000">omc_Mod_mergeSubMods</text>
</a>
</g>
</g>
<!-- Node2792&#45;&gt;Node2830 -->
<g id="edge42" class="edge">
<title>Node2792&#45;&gt;Node2830</title>
<path fill="none" stroke="#191970" d="M542.588,-157.1373C581.0037,-144.3321 639.0676,-124.9775 673.4956,-113.5015"/>
<polygon fill="#191970" stroke="#191970" points="541.1709,-153.9203 532.7909,-160.403 543.3846,-160.5611 541.1709,-153.9203"/>
</g>
<!-- Node2832 -->
<g id="node44" class="node">
<title>Node2832</title>
<g id="a_node44"><a xlink:href="../../d9/dd4/_mod_8h.html#a99de4a0ae1927f6c5044c5bee6bb527c" target="_top" xlink:title="omc_Mod_getModifs">
<polygon fill="#ffffff" stroke="#000000" points="1044.5,-16.5 1044.5,-35.5 1151.5,-35.5 1151.5,-16.5 1044.5,-16.5"/>
<text text-anchor="middle" x="1098" y="-23.5" font-family="Helvetica,sans-Serif" font-size="10.00" fill="#000000">omc_Mod_getModifs</text>
</a>
</g>
</g>
<!-- Node2792&#45;&gt;Node2832 -->
<g id="edge45" class="edge">
<title>Node2792&#45;&gt;Node2832</title>
<path fill="none" stroke="#191970" d="M521.7341,-153.389C544.1335,-133.4805 584.7551,-100.8286 626,-85 701.4611,-56.0402 937.4922,-36.872 1044.4129,-29.4535"/>
<polygon fill="#191970" stroke="#191970" points="519.1335,-151.0226 514.0782,-160.3336 523.8365,-156.2073 519.1335,-151.0226"/>
</g>
<!-- Node2833 -->
<g id="node45" class="node">
<title>Node2833</title>
<g id="a_node45"><a xlink:href="../../d9/dd4/_mod_8h.html#a1f7a21048a7f32dac4aa52305b80c2ec" target="_top" xlink:title="omc_Mod_lookupModificationP">
<polygon fill="#ffffff" stroke="#000000" points="626,-.5 626,-19.5 778,-19.5 778,-.5 626,-.5"/>
<text text-anchor="middle" x="702" y="-7.5" font-family="Helvetica,sans-Serif" font-size="10.00" fill="#000000">omc_Mod_lookupModificationP</text>
</a>
</g>
</g>
<!-- Node2792&#45;&gt;Node2833 -->
<g id="edge46" class="edge">
<title>Node2792&#45;&gt;Node2833</title>
<path fill="none" stroke="#191970" d="M519.3267,-152.5029C541.3145,-128.0597 583.8264,-83.1907 626,-52 643.5748,-39.0021 665.6226,-27.2541 681.4382,-19.5101"/>
<polygon fill="#191970" stroke="#191970" points="516.4735,-150.4442 512.4395,-160.2411 521.7024,-155.0982 516.4735,-150.4442"/>
</g>
<!-- Node2795 -->
<g id="node7" class="node">
<title>Node2795</title>
<g id="a_node7"><a xlink:href="../../dc/dac/_inst_binding_8c.html#a7522cce09b4f1387213be985d2f093db" target="_top" xlink:title="omc_InstBinding_instDistribution\lBinding">
<polygon fill="#ffffff" stroke="#000000" points="816.5,-515 816.5,-545 976.5,-545 976.5,-515 816.5,-515"/>
<text text-anchor="start" x="824.5" y="-533" font-family="Helvetica,sans-Serif" font-size="10.00" fill="#000000">omc_InstBinding_instDistribution</text>
<text text-anchor="middle" x="896.5" y="-522" font-family="Helvetica,sans-Serif" font-size="10.00" fill="#000000">Binding</text>
</a>
</g>
</g>
<!-- Node2794&#45;&gt;Node2795 -->
<g id="edge6" class="edge">
<title>Node2794&#45;&gt;Node2795</title>
<path fill="none" stroke="#191970" d="M770.6231,-397.3045C773.2422,-399.0008 775.7187,-400.892 778,-403 813.616,-435.9106 778.811,-472.6332 814,-506 817.572,-509.387 821.594,-512.2996 825.8906,-514.8039"/>
<polygon fill="#191970" stroke="#191970" points="772.2948,-394.2295 761.8382,-392.5232 768.9484,-400.3779 772.2948,-394.2295"/>
</g>
<!-- Node2797 -->
<g id="node9" class="node">
<title>Node2797</title>
<g id="a_node9"><a xlink:href="../../dc/dac/_inst_binding_8c.html#af69151e7b8913073cb07cfaada591546" target="_top" xlink:title="omc_InstBinding_instEnumeration\lBinding">
<polygon fill="#ffffff" stroke="#000000" points="814,-466 814,-496 979,-496 979,-466 814,-466"/>
<text text-anchor="start" x="822" y="-484" font-family="Helvetica,sans-Serif" font-size="10.00" fill="#000000">omc_InstBinding_instEnumeration</text>
<text text-anchor="middle" x="896.5" y="-473" font-family="Helvetica,sans-Serif" font-size="10.00" fill="#000000">Binding</text>
</a>
</g>
</g>
<!-- Node2794&#45;&gt;Node2797 -->
<g id="edge8" class="edge">
<title>Node2794&#45;&gt;Node2797</title>
<path fill="none" stroke="#191970" d="M766.9731,-396.5071C770.8499,-398.3952 774.5648,-400.5472 778,-403 801.4749,-419.761 790.7431,-439.9379 814,-457 818.6906,-460.4412 823.8667,-463.3909 829.2716,-465.919"/>
<polygon fill="#191970" stroke="#191970" points="768.2612,-393.2516 757.6888,-392.5629 765.5242,-399.6944 768.2612,-393.2516"/>
</g>
<!-- Node2799 -->
<g id="node11" class="node">
<title>Node2799</title>
<g id="a_node11"><a xlink:href="../../db/de7/_inst_binding_8h.html#aeca097d4267b901052ff49b32bcccaad" target="_top" xlink:title="omc_InstBinding_instDaeVariable\lAttributes">
<polygon fill="#ffffff" stroke="#000000" points="814.5,-417 814.5,-447 978.5,-447 978.5,-417 814.5,-417"/>
<text text-anchor="start" x="822.5" y="-435" font-family="Helvetica,sans-Serif" font-size="10.00" fill="#000000">omc_InstBinding_instDaeVariable</text>
<text text-anchor="middle" x="896.5" y="-424" font-family="Helvetica,sans-Serif" font-size="10.00" fill="#000000">Attributes</text>
</a>
</g>
</g>
<!-- Node2794&#45;&gt;Node2799 -->
<g id="edge10" class="edge">
<title>Node2794&#45;&gt;Node2799</title>
<path fill="none" stroke="#191970" d="M749.689,-395.0142C775.9696,-401.635 808.8405,-409.9161 836.8125,-416.963"/>
<polygon fill="#191970" stroke="#191970" points="750.5154,-391.6131 739.9633,-392.564 748.8052,-398.401 750.5154,-391.6131"/>
</g>
<!-- Node2804 -->
<g id="node16" class="node">
<title>Node2804</title>
<g id="a_node16"><a xlink:href="../../db/de7/_inst_binding_8h.html#a138afe1a5472a5c5afc767aa4604f739" target="_top" xlink:title="omc_InstBinding_instStart\lBindingExp">
<polygon fill="#ffffff" stroke="#000000" points="831,-368 831,-398 962,-398 962,-368 831,-368"/>
<text text-anchor="start" x="839" y="-386" font-family="Helvetica,sans-Serif" font-size="10.00" fill="#000000">omc_InstBinding_instStart</text>
<text text-anchor="middle" x="896.5" y="-375" font-family="Helvetica,sans-Serif" font-size="10.00" fill="#000000">BindingExp</text>
</a>
</g>
</g>
<!-- Node2794&#45;&gt;Node2804 -->
<g id="edge15" class="edge">
<title>Node2794&#45;&gt;Node2804</title>
<path fill="none" stroke="#191970" d="M783.8122,-383C799.5062,-383 815.7506,-383 830.854,-383"/>
<polygon fill="#191970" stroke="#191970" points="783.596,-379.5001 773.596,-383 783.596,-386.5001 783.596,-379.5001"/>
</g>
<!-- Node2805 -->
<g id="node17" class="node">
<title>Node2805</title>
<g id="a_node17"><a xlink:href="../../dc/dac/_inst_binding_8c.html#a4f5eff2f71616eb0efc323b58abf118d" target="_top" xlink:title="boxptr_InstBinding\l_instBinding">
<polygon fill="#ffffff" stroke="#000000" points="847.5,-319 847.5,-349 945.5,-349 945.5,-319 847.5,-319"/>
<text text-anchor="start" x="855.5" y="-337" font-family="Helvetica,sans-Serif" font-size="10.00" fill="#000000">boxptr_InstBinding</text>
<text text-anchor="middle" x="896.5" y="-326" font-family="Helvetica,sans-Serif" font-size="10.00" fill="#000000">_instBinding</text>
</a>
</g>
</g>
<!-- Node2794&#45;&gt;Node2805 -->
<g id="edge16" class="edge">
<title>Node2794&#45;&gt;Node2805</title>
<path fill="none" stroke="#191970" d="M749.6625,-370.9925C779.2797,-363.5311 817.2746,-353.9591 847.1945,-346.4214"/>
<polygon fill="#191970" stroke="#191970" points="748.8052,-367.599 739.9633,-373.436 750.5154,-374.3869 748.8052,-367.599"/>
</g>
<!-- Node2796 -->
<g id="node8" class="node">
<title>Node2796</title>
<g id="a_node8"><a xlink:href="../../dc/dac/_inst_binding_8c.html#a0a78d61538e1758992073f15bd128113" target="_top" xlink:title="boxptr_InstBinding\l_instDistributionBinding">
<polygon fill="#ffffff" stroke="#000000" points="1038.5,-515 1038.5,-545 1157.5,-545 1157.5,-515 1038.5,-515"/>
<text text-anchor="start" x="1046.5" y="-533" font-family="Helvetica,sans-Serif" font-size="10.00" fill="#000000">boxptr_InstBinding</text>
<text text-anchor="middle" x="1098" y="-522" font-family="Helvetica,sans-Serif" font-size="10.00" fill="#000000">_instDistributionBinding</text>
</a>
</g>
</g>
<!-- Node2795&#45;&gt;Node2796 -->
<g id="edge7" class="edge">
<title>Node2795&#45;&gt;Node2796</title>
<path fill="none" stroke="#191970" d="M986.8983,-530C1004.2989,-530 1022.1158,-530 1038.2432,-530"/>
<polygon fill="#191970" stroke="#191970" points="986.7171,-526.5001 976.7171,-530 986.7171,-533.5001 986.7171,-526.5001"/>
</g>
<!-- Node2798 -->
<g id="node10" class="node">
<title>Node2798</title>
<g id="a_node10"><a xlink:href="../../dc/dac/_inst_binding_8c.html#a57efbb4f15db836d2ca5a957c56382af" target="_top" xlink:title="boxptr_InstBinding\l_instEnumerationBinding">
<polygon fill="#ffffff" stroke="#000000" points="1035.5,-466 1035.5,-496 1160.5,-496 1160.5,-466 1035.5,-466"/>
<text text-anchor="start" x="1043.5" y="-484" font-family="Helvetica,sans-Serif" font-size="10.00" fill="#000000">boxptr_InstBinding</text>
<text text-anchor="middle" x="1098" y="-473" font-family="Helvetica,sans-Serif" font-size="10.00" fill="#000000">_instEnumerationBinding</text>
</a>
</g>
</g>
<!-- Node2797&#45;&gt;Node2798 -->
<g id="edge9" class="edge">
<title>Node2797&#45;&gt;Node2798</title>
<path fill="none" stroke="#191970" d="M989.2438,-481C1004.8533,-481 1020.7208,-481 1035.3347,-481"/>
<polygon fill="#191970" stroke="#191970" points="989.0392,-477.5001 979.0392,-481 989.0391,-484.5001 989.0392,-477.5001"/>
</g>
<!-- Node2800 -->
<g id="node12" class="node">
<title>Node2800</title>
<g id="a_node12"><a xlink:href="../../d6/d54/_inst_var_8c.html#a2e8c425dac89efe97c8c330d806b7492" target="_top" xlink:title="omc_InstVar_instVar2">
<polygon fill="#ffffff" stroke="#000000" points="1041.5,-422.5 1041.5,-441.5 1154.5,-441.5 1154.5,-422.5 1041.5,-422.5"/>
<text text-anchor="middle" x="1098" y="-429.5" font-family="Helvetica,sans-Serif" font-size="10.00" fill="#000000">omc_InstVar_instVar2</text>
</a>
</g>
</g>
<!-- Node2799&#45;&gt;Node2800 -->
<g id="edge11" class="edge">
<title>Node2799&#45;&gt;Node2800</title>
<path fill="none" stroke="#191970" d="M989.1585,-432C1006.9341,-432 1025.0478,-432 1041.2671,-432"/>
<polygon fill="#191970" stroke="#191970" points="988.7484,-428.5001 978.7484,-432 988.7484,-435.5001 988.7484,-428.5001"/>
</g>
<!-- Node2801 -->
<g id="node13" class="node">
<title>Node2801</title>
<g id="a_node13"><a xlink:href="../../d6/d54/_inst_var_8c.html#a103a4258c6a74e9e202f7223d944554b" target="_top" xlink:title="boxptr_InstVar_instVar2">
<polygon fill="#ffffff" stroke="#000000" points="1232,-463.5 1232,-482.5 1354,-482.5 1354,-463.5 1232,-463.5"/>
<text text-anchor="middle" x="1293" y="-470.5" font-family="Helvetica,sans-Serif" font-size="10.00" fill="#000000">boxptr_InstVar_instVar2</text>
</a>
</g>
</g>
<!-- Node2800&#45;&gt;Node2801 -->
<g id="edge12" class="edge">
<title>Node2800&#45;&gt;Node2801</title>
<path fill="none" stroke="#191970" d="M1153.0874,-443.5825C1182.9724,-449.866 1219.4607,-457.5379 1247.6809,-463.4714"/>
<polygon fill="#191970" stroke="#191970" points="1153.7333,-440.1418 1143.2271,-441.5093 1152.2929,-446.992 1153.7333,-440.1418"/>
</g>
<!-- Node2802 -->
<g id="node14" class="node">
<title>Node2802</title>
<g id="a_node14"><a xlink:href="../../d6/d54/_inst_var_8c.html#a30c666d5e62e0e0cc36dc5041cc6c43d" target="_top" xlink:title="omc_InstVar_instVar\l__dispatch">
<polygon fill="#ffffff" stroke="#000000" points="1239,-414 1239,-444 1347,-444 1347,-414 1239,-414"/>
<text text-anchor="start" x="1247" y="-432" font-family="Helvetica,sans-Serif" font-size="10.00" fill="#000000">omc_InstVar_instVar</text>
<text text-anchor="middle" x="1293" y="-421" font-family="Helvetica,sans-Serif" font-size="10.00" fill="#000000">__dispatch</text>
</a>
</g>
</g>
<!-- Node2800&#45;&gt;Node2802 -->
<g id="edge13" class="edge">
<title>Node2800&#45;&gt;Node2802</title>
<path fill="none" stroke="#191970" d="M1164.8269,-430.9719C1188.9862,-430.6002 1215.9432,-430.1855 1238.8779,-429.8326"/>
<polygon fill="#191970" stroke="#191970" points="1164.609,-427.4747 1154.664,-431.1282 1164.7167,-434.4739 1164.609,-427.4747"/>
</g>
<!-- Node2803 -->
<g id="node15" class="node">
<title>Node2803</title>
<g id="a_node15"><a xlink:href="../../d6/d54/_inst_var_8c.html#a62e0a9b61bb9c632c69b95c7924d8311" target="_top" xlink:title="boxptr_InstVar_instVar\l__dispatch">
<polygon fill="#ffffff" stroke="#000000" points="1423,-414 1423,-444 1539,-444 1539,-414 1423,-414"/>
<text text-anchor="start" x="1431" y="-432" font-family="Helvetica,sans-Serif" font-size="10.00" fill="#000000">boxptr_InstVar_instVar</text>
<text text-anchor="middle" x="1481" y="-421" font-family="Helvetica,sans-Serif" font-size="10.00" fill="#000000">__dispatch</text>
</a>
</g>
</g>
<!-- Node2802&#45;&gt;Node2803 -->
<g id="edge14" class="edge">
<title>Node2802&#45;&gt;Node2803</title>
<path fill="none" stroke="#191970" d="M1357.3726,-429C1378.6615,-429 1402.2086,-429 1422.9911,-429"/>
<polygon fill="#191970" stroke="#191970" points="1357.1252,-425.5001 1347.1252,-429 1357.1251,-432.5001 1357.1252,-425.5001"/>
</g>
<!-- Node2807 -->
<g id="node19" class="node">
<title>Node2807</title>
<g id="a_node19"><a xlink:href="../../da/d17/_inst_util_8h.html#ac642455dad8cdcd9067320ac22400178" target="_top" xlink:title="boxptr_InstUtil_chainRedeclare\l__dispatch">
<polygon fill="#ffffff" stroke="#000000" points="820,-270 820,-300 973,-300 973,-270 820,-270"/>
<text text-anchor="start" x="828" y="-288" font-family="Helvetica,sans-Serif" font-size="10.00" fill="#000000">boxptr_InstUtil_chainRedeclare</text>
<text text-anchor="middle" x="896.5" y="-277" font-family="Helvetica,sans-Serif" font-size="10.00" fill="#000000">__dispatch</text>
</a>
</g>
</g>
<!-- Node2806&#45;&gt;Node2807 -->
<g id="edge18" class="edge">
<title>Node2806&#45;&gt;Node2807</title>
<path fill="none" stroke="#191970" d="M778.3343,-258.2684C795.4271,-262.1352 813.4247,-266.2066 830.0773,-269.9738"/>
<polygon fill="#191970" stroke="#191970" points="778.9177,-254.812 768.3919,-256.0192 777.3731,-261.6395 778.9177,-254.812"/>
</g>
<!-- Node2808 -->
<g id="node20" class="node">
<title>Node2808</title>
<g id="a_node20"><a xlink:href="../../da/d17/_inst_util_8h.html#aa873b18e8f2f6b94d6f77c0f22ff327e" target="_top" xlink:title="omc_InstUtil_chainRedeclares">
<polygon fill="#ffffff" stroke="#000000" points="821.5,-231.5 821.5,-250.5 971.5,-250.5 971.5,-231.5 821.5,-231.5"/>
<text text-anchor="middle" x="896.5" y="-238.5" font-family="Helvetica,sans-Serif" font-size="10.00" fill="#000000">omc_InstUtil_chainRedeclares</text>
</a>
</g>
</g>
<!-- Node2806&#45;&gt;Node2808 -->
<g id="edge19" class="edge">
<title>Node2806&#45;&gt;Node2808</title>
<path fill="none" stroke="#191970" d="M784.7915,-241C796.9097,-241 809.3343,-241 821.2898,-241"/>
<polygon fill="#191970" stroke="#191970" points="784.7012,-237.5001 774.7012,-241 784.7012,-244.5001 784.7012,-237.5001"/>
</g>
<!-- Node2809 -->
<g id="node21" class="node">
<title>Node2809</title>
<g id="a_node21"><a xlink:href="../../d1/d38/_inst_extends_8c.html#af062917ef50a0c9b21d8b4cf6a9b7975" target="_top" xlink:title="omc_InstExtends_instExtendsList">
<polygon fill="#ffffff" stroke="#000000" points="1015,-309.5 1015,-328.5 1181,-328.5 1181,-309.5 1015,-309.5"/>
<text text-anchor="middle" x="1098" y="-316.5" font-family="Helvetica,sans-Serif" font-size="10.00" fill="#000000">omc_InstExtends_instExtendsList</text>
</a>
</g>
</g>
<!-- Node2808&#45;&gt;Node2809 -->
<g id="edge20" class="edge">
<title>Node2808&#45;&gt;Node2809</title>
<path fill="none" stroke="#191970" d="M960.0681,-253.4889C966.5996,-255.6306 973.0245,-258.1177 979,-261 997.2568,-269.8064 997.25,-279.2122 1015,-289 1030.43,-297.5085 1048.7463,-304.4266 1064.242,-309.4661"/>
<polygon fill="#191970" stroke="#191970" points="961.0469,-250.1284 950.4622,-250.5924 959.026,-256.8304 961.0469,-250.1284"/>
</g>
<!-- Node2810 -->
<g id="node22" class="node">
<title>Node2810</title>
<g id="a_node22"><a xlink:href="../../d1/d38/_inst_extends_8c.html#a20d1cd2bd200b28d5fd832fe9b06e829" target="_top" xlink:title="omc_InstExtends_instExtends\lAndClassExtendsList2">
<polygon fill="#ffffff" stroke="#000000" points="1218,-353 1218,-383 1368,-383 1368,-353 1218,-353"/>
<text text-anchor="start" x="1226" y="-371" font-family="Helvetica,sans-Serif" font-size="10.00" fill="#000000">omc_InstExtends_instExtends</text>
<text text-anchor="middle" x="1293" y="-360" font-family="Helvetica,sans-Serif" font-size="10.00" fill="#000000">AndClassExtendsList2</text>
</a>
</g>
</g>
<!-- Node2809&#45;&gt;Node2810 -->
<g id="edge21" class="edge">
<title>Node2809&#45;&gt;Node2810</title>
<path fill="none" stroke="#191970" d="M1145.8116,-331.0142C1172.1598,-337.635 1205.1151,-345.9161 1233.159,-352.963"/>
<polygon fill="#191970" stroke="#191970" points="1146.6124,-327.6067 1136.0609,-328.564 1144.9064,-334.3956 1146.6124,-327.6067"/>
</g>
<!-- Node2815 -->
<g id="node27" class="node">
<title>Node2815</title>
<g id="a_node27"><a xlink:href="../../d1/d38/_inst_extends_8c.html#a126fd3e07950bea19436fc5f046fb737" target="_top" xlink:title="boxptr_InstExtends\l_instExtendsList">
<polygon fill="#ffffff" stroke="#000000" points="1242.5,-304 1242.5,-334 1343.5,-334 1343.5,-304 1242.5,-304"/>
<text text-anchor="start" x="1250.5" y="-322" font-family="Helvetica,sans-Serif" font-size="10.00" fill="#000000">boxptr_InstExtends</text>
<text text-anchor="middle" x="1293" y="-311" font-family="Helvetica,sans-Serif" font-size="10.00" fill="#000000">_instExtendsList</text>
</a>
</g>
</g>
<!-- Node2809&#45;&gt;Node2815 -->
<g id="edge26" class="edge">
<title>Node2809&#45;&gt;Node2815</title>
<path fill="none" stroke="#191970" d="M1191.5582,-319C1209.1061,-319 1226.8245,-319 1242.4349,-319"/>
<polygon fill="#191970" stroke="#191970" points="1191.2632,-315.5001 1181.2632,-319 1191.2631,-322.5001 1191.2632,-315.5001"/>
</g>
<!-- Node2811 -->
<g id="node23" class="node">
<title>Node2811</title>
<g id="a_node23"><a xlink:href="../../d1/d38/_inst_extends_8c.html#a6120c464da490cd2902907c857cb5eb7" target="_top" xlink:title="boxptr_InstExtends\l_instExtendsAndClassExtends\lList2">
<polygon fill="#ffffff" stroke="#000000" points="1405,-347.5 1405,-388.5 1557,-388.5 1557,-347.5 1405,-347.5"/>
<text text-anchor="start" x="1413" y="-376.5" font-family="Helvetica,sans-Serif" font-size="10.00" fill="#000000">boxptr_InstExtends</text>
<text text-anchor="start" x="1413" y="-365.5" font-family="Helvetica,sans-Serif" font-size="10.00" fill="#000000">_instExtendsAndClassExtends</text>
<text text-anchor="middle" x="1481" y="-354.5" font-family="Helvetica,sans-Serif" font-size="10.00" fill="#000000">List2</text>
</a>
</g>
</g>
<!-- Node2810&#45;&gt;Node2811 -->
<g id="edge22" class="edge">
<title>Node2810&#45;&gt;Node2811</title>
<path fill="none" stroke="#191970" d="M1378.38,-368C1387.1817,-368 1396.085,-368 1404.7778,-368"/>
<polygon fill="#191970" stroke="#191970" points="1378.1131,-364.5001 1368.1131,-368 1378.113,-371.5001 1378.1131,-364.5001"/>
</g>
<!-- Node2812 -->
<g id="node24" class="node">
<title>Node2812</title>
<g id="a_node24"><a xlink:href="../../df/d13/_inst_extends_8h.html#a0aa487997c4fce1f22d9ac339ec6087f" target="_top" xlink:title="omc_InstExtends_instExtends\lAndClassExtendsList">
<polygon fill="#ffffff" stroke="#000000" points="1406,-279 1406,-309 1556,-309 1556,-279 1406,-279"/>
<text text-anchor="start" x="1414" y="-297" font-family="Helvetica,sans-Serif" font-size="10.00" fill="#000000">omc_InstExtends_instExtends</text>
<text text-anchor="middle" x="1481" y="-286" font-family="Helvetica,sans-Serif" font-size="10.00" fill="#000000">AndClassExtendsList</text>
</a>
</g>
</g>
<!-- Node2810&#45;&gt;Node2812 -->
<g id="edge23" class="edge">
<title>Node2810&#45;&gt;Node2812</title>
<path fill="none" stroke="#191970" d="M1353.218,-349.683C1358.5821,-347.8407 1363.9066,-345.9339 1369,-344 1396.6713,-333.4934 1427.3126,-319.6555 1449.5407,-309.2015"/>
<polygon fill="#191970" stroke="#191970" points="1351.9297,-346.4234 1343.5614,-352.9212 1354.1553,-353.0602 1351.9297,-346.4234"/>
</g>
<!-- Node2813 -->
<g id="node25" class="node">
<title>Node2813</title>
<g id="a_node25"><a xlink:href="../../df/d13/_inst_extends_8h.html#ac02db7ddc271944ac5f131ad526f53ef" target="_top" xlink:title="boxptr_InstExtends\l_instExtendsAndClassExtendsList">
<polygon fill="#ffffff" stroke="#000000" points="1593,-303 1593,-333 1761,-333 1761,-303 1593,-303"/>
<text text-anchor="start" x="1601" y="-321" font-family="Helvetica,sans-Serif" font-size="10.00" fill="#000000">boxptr_InstExtends</text>
<text text-anchor="middle" x="1677" y="-310" font-family="Helvetica,sans-Serif" font-size="10.00" fill="#000000">_instExtendsAndClassExtendsList</text>
</a>
</g>
</g>
<!-- Node2812&#45;&gt;Node2813 -->
<g id="edge24" class="edge">
<title>Node2812&#45;&gt;Node2813</title>
<path fill="none" stroke="#191970" d="M1566.4258,-304.4603C1575.1893,-305.5334 1584.0891,-306.6232 1592.8387,-307.6945"/>
<polygon fill="#191970" stroke="#191970" points="1566.5695,-300.9518 1556.2182,-303.2104 1565.7186,-307.8999 1566.5695,-300.9518"/>
</g>
<!-- Node2814 -->
<g id="node26" class="node">
<title>Node2814</title>
<g id="a_node26"><a xlink:href="../../da/d17/_inst_util_8h.html#a11f7fc098235c46a051aa544a877a5a2" target="_top" xlink:title="omc_InstUtil_extractConstraining\lComps">
<polygon fill="#ffffff" stroke="#000000" points="1596,-254 1596,-284 1758,-284 1758,-254 1596,-254"/>
<text text-anchor="start" x="1604" y="-272" font-family="Helvetica,sans-Serif" font-size="10.00" fill="#000000">omc_InstUtil_extractConstraining</text>
<text text-anchor="middle" x="1677" y="-261" font-family="Helvetica,sans-Serif" font-size="10.00" fill="#000000">Comps</text>
</a>
</g>
</g>
<!-- Node2812&#45;&gt;Node2814 -->
<g id="edge25" class="edge">
<title>Node2812&#45;&gt;Node2814</title>
<path fill="none" stroke="#191970" d="M1566.3332,-283.1157C1576.115,-281.868 1586.068,-280.5985 1595.7936,-279.358"/>
<polygon fill="#191970" stroke="#191970" points="1565.6949,-279.6686 1556.2182,-284.4058 1566.5807,-286.6124 1565.6949,-279.6686"/>
</g>
<!-- Node2817 -->
<g id="node29" class="node">
<title>Node2817</title>
<g id="a_node29"><a xlink:href="../../db/dd4/_inst_util_8c.html#a404ea9e60212703e4d01594806403a7c" target="_top" xlink:title="boxptr_InstUtil_addClassdef\lToEnv">
<polygon fill="#ffffff" stroke="#000000" points="826.5,-182 826.5,-212 966.5,-212 966.5,-182 826.5,-182"/>
<text text-anchor="start" x="834.5" y="-200" font-family="Helvetica,sans-Serif" font-size="10.00" fill="#000000">boxptr_InstUtil_addClassdef</text>
<text text-anchor="middle" x="896.5" y="-189" font-family="Helvetica,sans-Serif" font-size="10.00" fill="#000000">ToEnv</text>
</a>
</g>
</g>
<!-- Node2816&#45;&gt;Node2817 -->
<g id="edge28" class="edge">
<title>Node2816&#45;&gt;Node2817</title>
<path fill="none" stroke="#191970" d="M778.3606,-180.6002C794.1407,-182.7907 810.6909,-185.0882 826.2413,-187.2469"/>
<polygon fill="#191970" stroke="#191970" points="778.5065,-177.087 768.1202,-179.1786 777.544,-184.0205 778.5065,-177.087"/>
</g>
<!-- Node2818 -->
<g id="node30" class="node">
<title>Node2818</title>
<g id="a_node30"><a xlink:href="../../da/d17/_inst_util_8h.html#a3ee2769d7f00f363f8aa70cd70c1709d" target="_top" xlink:title="omc_InstUtil_addClassdefs\lToEnv">
<polygon fill="#ffffff" stroke="#000000" points="828,-133 828,-163 965,-163 965,-133 828,-133"/>
<text text-anchor="start" x="836" y="-151" font-family="Helvetica,sans-Serif" font-size="10.00" fill="#000000">omc_InstUtil_addClassdefs</text>
<text text-anchor="middle" x="896.5" y="-140" font-family="Helvetica,sans-Serif" font-size="10.00" fill="#000000">ToEnv</text>
</a>
</g>
</g>
<!-- Node2816&#45;&gt;Node2818 -->
<g id="edge29" class="edge">
<title>Node2816&#45;&gt;Node2818</title>
<path fill="none" stroke="#191970" d="M778.2015,-161.3808C794.595,-159.5265 811.8267,-157.5774 827.91,-155.7583"/>
<polygon fill="#191970" stroke="#191970" points="777.6635,-157.9193 768.1202,-162.5211 778.4503,-164.8749 777.6635,-157.9193"/>
</g>
<!-- Node2818&#45;&gt;Node2812 -->
<g id="edge40" class="edge">
<title>Node2818&#45;&gt;Node2812</title>
<path fill="none" stroke="#191970" d="M968.5319,-167.2245C972.1574,-168.9926 975.6711,-170.9138 979,-173 998.9884,-185.5263 994.5281,-200.2806 1015,-212 1080.4093,-249.4443 1291.478,-275.3401 1405.7825,-287.0045"/>
<polygon fill="#191970" stroke="#191970" points="969.8908,-163.9984 959.331,-163.138 967.0494,-170.3958 969.8908,-163.9984"/>
</g>
<!-- Node2819 -->
<g id="node31" class="node">
<title>Node2819</title>
<g id="a_node31"><a xlink:href="../../dd/d26/_inst_8c.html#a6c91d09b526a97643156909f376a4cc8" target="_top" xlink:title="omc_Inst_partialInstClassdef">
<polygon fill="#ffffff" stroke="#000000" points="1026,-183.5 1026,-202.5 1170,-202.5 1170,-183.5 1026,-183.5"/>
<text text-anchor="middle" x="1098" y="-190.5" font-family="Helvetica,sans-Serif" font-size="10.00" fill="#000000">omc_Inst_partialInstClassdef</text>
</a>
</g>
</g>
<!-- Node2818&#45;&gt;Node2819 -->
<g id="edge30" class="edge">
<title>Node2818&#45;&gt;Node2819</title>
<path fill="none" stroke="#191970" d="M973.9327,-165.2927C1001.577,-171.4663 1031.6994,-178.1934 1055.3402,-183.473"/>
<polygon fill="#191970" stroke="#191970" points="974.3992,-161.8107 963.8767,-163.0469 972.8734,-168.6424 974.3992,-161.8107"/>
</g>
<!-- Node2823 -->
<g id="node35" class="node">
<title>Node2823</title>
<g id="a_node35"><a xlink:href="../../dd/d26/_inst_8c.html#ab79c80563ee33a68e40378e326dd63e4" target="_top" xlink:title="omc_Inst_instClassdef2">
<polygon fill="#ffffff" stroke="#000000" points="1037,-142.5 1037,-161.5 1159,-161.5 1159,-142.5 1037,-142.5"/>
<text text-anchor="middle" x="1098" y="-149.5" font-family="Helvetica,sans-Serif" font-size="10.00" fill="#000000">omc_Inst_instClassdef2</text>
</a>
</g>
</g>
<!-- Node2818&#45;&gt;Node2823 -->
<g id="edge34" class="edge">
<title>Node2818&#45;&gt;Node2823</title>
<path fill="none" stroke="#191970" d="M975.5075,-149.5684C995.9289,-149.9738 1017.6018,-150.404 1036.9495,-150.7881"/>
<polygon fill="#191970" stroke="#191970" points="975.3488,-146.0646 965.2813,-149.3654 975.2098,-153.0633 975.3488,-146.0646"/>
</g>
<!-- Node2827 -->
<g id="node39" class="node">
<title>Node2827</title>
<g id="a_node39"><a xlink:href="../../dd/d26/_inst_8c.html#a07dc90c1fc8e5a044b2516123ec560b0" target="_top" xlink:title="omc_Inst_instClassdefBasicType">
<polygon fill="#ffffff" stroke="#000000" points="1016,-104.5 1016,-123.5 1180,-123.5 1180,-104.5 1016,-104.5"/>
<text text-anchor="middle" x="1098" y="-111.5" font-family="Helvetica,sans-Serif" font-size="10.00" fill="#000000">omc_Inst_instClassdefBasicType</text>
</a>
</g>
</g>
<!-- Node2818&#45;&gt;Node2827 -->
<g id="edge38" class="edge">
<title>Node2818&#45;&gt;Node2827</title>
<path fill="none" stroke="#191970" d="M975.321,-134.7002C997.4346,-130.9689 1021.0294,-126.9876 1041.5591,-123.5235"/>
<polygon fill="#191970" stroke="#191970" points="974.5595,-131.2791 965.2813,-136.3942 975.7243,-138.1815 974.5595,-131.2791"/>
</g>
<!-- Node2829 -->
<g id="node41" class="node">
<title>Node2829</title>
<g id="a_node41"><a xlink:href="../../da/d17/_inst_util_8h.html#af0d3753e4d1441c0b379d3541787eeec" target="_top" xlink:title="boxptr_InstUtil_addClassdefs\lToEnv">
<polygon fill="#ffffff" stroke="#000000" points="1025,-55 1025,-85 1171,-85 1171,-55 1025,-55"/>
<text text-anchor="start" x="1033" y="-73" font-family="Helvetica,sans-Serif" font-size="10.00" fill="#000000">boxptr_InstUtil_addClassdefs</text>
<text text-anchor="middle" x="1098" y="-62" font-family="Helvetica,sans-Serif" font-size="10.00" fill="#000000">ToEnv</text>
</a>
</g>
</g>
<!-- Node2818&#45;&gt;Node2829 -->
<g id="edge41" class="edge">
<title>Node2818&#45;&gt;Node2829</title>
<path fill="none" stroke="#191970" d="M965.4041,-129.2467C970.0841,-127.3269 974.6596,-125.2466 979,-123 997.0012,-113.6823 996.991,-104.3026 1015,-95 1022.3539,-91.2013 1030.379,-87.8809 1038.4475,-85.0087"/>
<polygon fill="#191970" stroke="#191970" points="963.7809,-126.1203 955.6928,-132.9638 966.2832,-132.6578 963.7809,-126.1203"/>
</g>
<!-- Node2820 -->
<g id="node32" class="node">
<title>Node2820</title>
<g id="a_node32"><a xlink:href="../../dd/d26/_inst_8c.html#a479c1de24721269e4f15da35ce9eda74" target="_top" xlink:title="boxptr_Inst_partialInstClassdef">
<polygon fill="#ffffff" stroke="#000000" points="1217,-227.5 1217,-246.5 1369,-246.5 1369,-227.5 1217,-227.5"/>
<text text-anchor="middle" x="1293" y="-234.5" font-family="Helvetica,sans-Serif" font-size="10.00" fill="#000000">boxptr_Inst_partialInstClassdef</text>
</a>
</g>
</g>
<!-- Node2819&#45;&gt;Node2820 -->
<g id="edge31" class="edge">
<title>Node2819&#45;&gt;Node2820</title>
<path fill="none" stroke="#191970" d="M1150.225,-204.7841C1181.7035,-211.8869 1221.2754,-220.816 1250.7705,-227.4713"/>
<polygon fill="#191970" stroke="#191970" points="1150.8373,-201.3343 1140.3121,-202.5473 1149.2965,-208.1627 1150.8373,-201.3343"/>
</g>
<!-- Node2821 -->
<g id="node33" class="node">
<title>Node2821</title>
<g id="a_node33"><a xlink:href="../../dd/d26/_inst_8c.html#a11059d2f35118c6924efdaae9b824a2a" target="_top" xlink:title="omc_Inst_partialInstClass\lIn__dispatch">
<polygon fill="#ffffff" stroke="#000000" points="1227.5,-178 1227.5,-208 1358.5,-208 1358.5,-178 1227.5,-178"/>
<text text-anchor="start" x="1235.5" y="-196" font-family="Helvetica,sans-Serif" font-size="10.00" fill="#000000">omc_Inst_partialInstClass</text>
<text text-anchor="middle" x="1293" y="-185" font-family="Helvetica,sans-Serif" font-size="10.00" fill="#000000">In__dispatch</text>
</a>
</g>
</g>
<!-- Node2819&#45;&gt;Node2821 -->
<g id="edge32" class="edge">
<title>Node2819&#45;&gt;Node2821</title>
<path fill="none" stroke="#191970" d="M1180.2878,-193C1196.0022,-193 1212.2571,-193 1227.3652,-193"/>
<polygon fill="#191970" stroke="#191970" points="1180.0568,-189.5001 1170.0568,-193 1180.0567,-196.5001 1180.0568,-189.5001"/>
</g>
<!-- Node2822 -->
<g id="node34" class="node">
<title>Node2822</title>
<g id="a_node34"><a xlink:href="../../dd/d26/_inst_8c.html#a6dfede18a4a35fd5d74277b299fc213d" target="_top" xlink:title="boxptr_Inst_partialInstClass\lIn__dispatch">
<polygon fill="#ffffff" stroke="#000000" points="1411.5,-178 1411.5,-208 1550.5,-208 1550.5,-178 1411.5,-178"/>
<text text-anchor="start" x="1419.5" y="-196" font-family="Helvetica,sans-Serif" font-size="10.00" fill="#000000">boxptr_Inst_partialInstClass</text>
<text text-anchor="middle" x="1481" y="-185" font-family="Helvetica,sans-Serif" font-size="10.00" fill="#000000">In__dispatch</text>
</a>
</g>
</g>
<!-- Node2821&#45;&gt;Node2822 -->
<g id="edge33" class="edge">
<title>Node2821&#45;&gt;Node2822</title>
<path fill="none" stroke="#191970" d="M1368.8796,-193C1382.949,-193 1397.5814,-193 1411.4506,-193"/>
<polygon fill="#191970" stroke="#191970" points="1368.7533,-189.5001 1358.7533,-193 1368.7532,-196.5001 1368.7533,-189.5001"/>
</g>
<!-- Node2824 -->
<g id="node36" class="node">
<title>Node2824</title>
<g id="a_node36"><a xlink:href="../../dd/d26/_inst_8c.html#ad88146053007c528f53d5295a59b7bd9" target="_top" xlink:title="boxptr_Inst_instClassdef2">
<polygon fill="#ffffff" stroke="#000000" points="1227.5,-139.5 1227.5,-158.5 1358.5,-158.5 1358.5,-139.5 1227.5,-139.5"/>
<text text-anchor="middle" x="1293" y="-146.5" font-family="Helvetica,sans-Serif" font-size="10.00" fill="#000000">boxptr_Inst_instClassdef2</text>
</a>
</g>
</g>
<!-- Node2823&#45;&gt;Node2824 -->
<g id="edge35" class="edge">
<title>Node2823&#45;&gt;Node2824</title>
<path fill="none" stroke="#191970" d="M1169.2435,-150.9039C1188.2297,-150.6119 1208.6513,-150.2977 1227.3238,-150.0104"/>
<polygon fill="#191970" stroke="#191970" points="1169.1091,-147.4055 1159.1642,-151.059 1169.2169,-154.4047 1169.1091,-147.4055"/>
</g>
<!-- Node2825 -->
<g id="node37" class="node">
<title>Node2825</title>
<g id="a_node37"><a xlink:href="../../d9/d5c/_inst_8h.html#a093ce119929ae124854a89975f40880c" target="_top" xlink:title="omc_Inst_instClassdef">
<polygon fill="#ffffff" stroke="#000000" points="1234.5,-101.5 1234.5,-120.5 1351.5,-120.5 1351.5,-101.5 1234.5,-101.5"/>
<text text-anchor="middle" x="1293" y="-108.5" font-family="Helvetica,sans-Serif" font-size="10.00" fill="#000000">omc_Inst_instClassdef</text>
</a>
</g>
</g>
<!-- Node2823&#45;&gt;Node2825 -->
<g id="edge36" class="edge">
<title>Node2823&#45;&gt;Node2825</title>
<path fill="none" stroke="#191970" d="M1153.0874,-140.4175C1182.9724,-134.134 1219.4607,-126.4621 1247.6809,-120.5286"/>
<polygon fill="#191970" stroke="#191970" points="1152.2929,-137.008 1143.2271,-142.4907 1153.7333,-143.8582 1152.2929,-137.008"/>
</g>
<!-- Node2826 -->
<g id="node38" class="node">
<title>Node2826</title>
<g id="a_node38"><a xlink:href="../../d9/d5c/_inst_8h.html#a663594bc3fb258186d106b3e4d5460d3" target="_top" xlink:title="boxptr_Inst_instClassdef">
<polygon fill="#ffffff" stroke="#000000" points="1418.5,-101.5 1418.5,-120.5 1543.5,-120.5 1543.5,-101.5 1418.5,-101.5"/>
<text text-anchor="middle" x="1481" y="-108.5" font-family="Helvetica,sans-Serif" font-size="10.00" fill="#000000">boxptr_Inst_instClassdef</text>
</a>
</g>
</g>
<!-- Node2825&#45;&gt;Node2826 -->
<g id="edge37" class="edge">
<title>Node2825&#45;&gt;Node2826</title>
<path fill="none" stroke="#191970" d="M1361.793,-111C1380.2353,-111 1400.0754,-111 1418.1762,-111"/>
<polygon fill="#191970" stroke="#191970" points="1361.7111,-107.5001 1351.7111,-111 1361.711,-114.5001 1361.7111,-107.5001"/>
</g>
<!-- Node2828 -->
<g id="node40" class="node">
<title>Node2828</title>
<g id="a_node40"><a xlink:href="../../dd/d26/_inst_8c.html#aef570ef327ab9b7be37264168d812d2e" target="_top" xlink:title="boxptr_Inst_instClassdef\lBasicType">
<polygon fill="#ffffff" stroke="#000000" points="1230.5,-52 1230.5,-82 1355.5,-82 1355.5,-52 1230.5,-52"/>
<text text-anchor="start" x="1238.5" y="-70" font-family="Helvetica,sans-Serif" font-size="10.00" fill="#000000">boxptr_Inst_instClassdef</text>
<text text-anchor="middle" x="1293" y="-59" font-family="Helvetica,sans-Serif" font-size="10.00" fill="#000000">BasicType</text>
</a>
</g>
</g>
<!-- Node2827&#45;&gt;Node2828 -->
<g id="edge39" class="edge">
<title>Node2827&#45;&gt;Node2828</title>
<path fill="none" stroke="#191970" d="M1147.2043,-102.1405C1172.4988,-96.0439 1203.5955,-88.5488 1230.5633,-82.0488"/>
<polygon fill="#191970" stroke="#191970" points="1146.3626,-98.7431 1137.4612,-104.4888 1148.0029,-105.5482 1146.3626,-98.7431"/>
</g>
<!-- Node2831 -->
<g id="node43" class="node">
<title>Node2831</title>
<g id="a_node43"><a xlink:href="../../d1/dd5/_mod_8c.html#acd600a9a3c71e0f07706e4a76921cb0f" target="_top" xlink:title="omc_Mod_mergeModifiers">
<polygon fill="#ffffff" stroke="#000000" points="831,-94.5 831,-113.5 962,-113.5 962,-94.5 831,-94.5"/>
<text text-anchor="middle" x="896.5" y="-101.5" font-family="Helvetica,sans-Serif" font-size="10.00" fill="#000000">omc_Mod_mergeModifiers</text>
</a>
</g>
</g>
<!-- Node2830&#45;&gt;Node2831 -->
<g id="edge43" class="edge">
<title>Node2830&#45;&gt;Node2831</title>
<path fill="none" stroke="#191970" d="M778.7082,-104C795.9753,-104 814.1477,-104 830.9112,-104"/>
<polygon fill="#191970" stroke="#191970" points="778.6638,-100.5001 768.6637,-104 778.6637,-107.5001 778.6638,-100.5001"/>
</g>
<!-- Node2831&#45;&gt;Node2832 -->
<g id="edge44" class="edge">
<title>Node2831&#45;&gt;Node2832</title>
<path fill="none" stroke="#191970" d="M953.5123,-91.4002C962.3496,-88.3312 971.1424,-84.5745 979,-80 998.2853,-68.7727 995.397,-55.6628 1015,-45 1023.9602,-40.1262 1034.1199,-36.4994 1044.1817,-33.8015"/>
<polygon fill="#191970" stroke="#191970" points="952.4017,-88.0807 943.9477,-94.4666 954.5388,-94.7465 952.4017,-88.0807"/>
</g>
<!-- Node2833&#45;&gt;Node2833 -->
<g id="edge47" class="edge">
<title>Node2833&#45;&gt;Node2833</title>
<path fill="none" stroke="#191970" d="M665.625,-27.5043C665.6309,-33.3356 677.7559,-38 702,-38 736.4805,-38 746.4475,-28.5653 731.901,-19.7571"/>
<polygon fill="#191970" stroke="#191970" points="668.3723,-29.6749 672.099,-19.7571 663.0009,-25.1862 668.3723,-29.6749"/>
</g>
</g>
</svg>
