<?xml version="1.0" encoding="UTF-8" standalone="no"?>
<!DOCTYPE svg PUBLIC "-//W3C//DTD SVG 1.1//EN"
 "http://www.w3.org/Graphics/SVG/1.1/DTD/svg11.dtd">
<!-- Generated by graphviz version 2.40.1 (20161225.0304)
 -->
<!-- Title: omc_Mod_elabModValue Pages: 1 -->
<svg width="1741pt" height="493pt"
 viewBox="0.00 0.00 1741.00 493.00" xmlns="http://www.w3.org/2000/svg" xmlns:xlink="http://www.w3.org/1999/xlink">
<g id="graph0" class="graph" transform="scale(1 1) rotate(0) translate(4 489)">
<title>omc_Mod_elabModValue</title>
<polygon fill="#ffffff" stroke="transparent" points="-4,4 -4,-489 1737,-489 1737,4 -4,4"/>
<!-- Node1790 -->
<g id="node1" class="node">
<title>Node1790</title>
<polygon fill="#bfbfbf" stroke="#000000" points="0,-152.5 0,-171.5 126,-171.5 126,-152.5 0,-152.5"/>
<text text-anchor="middle" x="63" y="-159.5" font-family="Helvetica,sans-Serif" font-size="10.00" fill="#000000">omc_Mod_elabModValue</text>
</g>
<!-- Node1791 -->
<g id="node2" class="node">
<title>Node1791</title>
<g id="a_node2"><a xlink:href="../../d3/df6/_types_8c.html#ad6ecd90169b1d190bd0f87969761824d" target="_top" xlink:title="omc_Types_propAllConst">
<polygon fill="#ffffff" stroke="#000000" points="169.5,-390.5 169.5,-409.5 298.5,-409.5 298.5,-390.5 169.5,-390.5"/>
<text text-anchor="middle" x="234" y="-397.5" font-family="Helvetica,sans-Serif" font-size="10.00" fill="#000000">omc_Types_propAllConst</text>
</a>
</g>
</g>
<!-- Node1790&#45;&gt;Node1791 -->
<g id="edge1" class="edge">
<title>Node1790&#45;&gt;Node1791</title>
<path fill="none" stroke="#191970" d="M67.9015,-171.6572C81.2808,-197.6264 120.2286,-270.6644 162,-325 178.675,-346.6906 200.8455,-368.989 216.1577,-383.571"/>
<polygon fill="#191970" stroke="#191970" points="213.791,-386.1498 223.4744,-390.449 218.5855,-381.0495 213.791,-386.1498"/>
</g>
<!-- Node1799 -->
<g id="node10" class="node">
<title>Node1799</title>
<g id="a_node10"><a xlink:href="../../d3/df6/_types_8c.html#a6e3873a1e0a5f1de34f8430f6a142bb5" target="_top" xlink:title="omc_Types_constIsVariable">
<polygon fill="#ffffff" stroke="#000000" points="164,-190.5 164,-209.5 304,-209.5 304,-190.5 164,-190.5"/>
<text text-anchor="middle" x="234" y="-197.5" font-family="Helvetica,sans-Serif" font-size="10.00" fill="#000000">omc_Types_constIsVariable</text>
</a>
</g>
</g>
<!-- Node1790&#45;&gt;Node1799 -->
<g id="edge10" class="edge">
<title>Node1790&#45;&gt;Node1799</title>
<path fill="none" stroke="#191970" d="M106.1505,-171.589C128.9191,-176.6487 157.0482,-182.8996 181.1194,-188.2488"/>
<polygon fill="#191970" stroke="#191970" points="180.6386,-191.7272 191.1598,-190.4799 182.1572,-184.8939 180.6386,-191.7272"/>
</g>
<!-- Node1802 -->
<g id="node13" class="node">
<title>Node1802</title>
<g id="a_node13"><a xlink:href="../../d0/d78/_absyn_8c.html#ab7f60c727fdf9a9f737ba3336f0a8bb3" target="_top" xlink:title="omc_Absyn_optMsg">
<polygon fill="#ffffff" stroke="#000000" points="181,-152.5 181,-171.5 287,-171.5 287,-152.5 181,-152.5"/>
<text text-anchor="middle" x="234" y="-159.5" font-family="Helvetica,sans-Serif" font-size="10.00" fill="#000000">omc_Absyn_optMsg</text>
</a>
</g>
</g>
<!-- Node1790&#45;&gt;Node1802 -->
<g id="edge13" class="edge">
<title>Node1790&#45;&gt;Node1802</title>
<path fill="none" stroke="#191970" d="M126.1883,-162C140.6577,-162 156.0437,-162 170.5251,-162"/>
<polygon fill="#191970" stroke="#191970" points="170.884,-165.5001 180.8839,-162 170.8839,-158.5001 170.884,-165.5001"/>
</g>
<!-- Node1803 -->
<g id="node14" class="node">
<title>Node1803</title>
<g id="a_node14"><a xlink:href="../../d3/df6/_types_8c.html#ae156f220133e323298ff5a64f65541d7" target="_top" xlink:title="omc_Types_constIsConst">
<polygon fill="#ffffff" stroke="#000000" points="168.5,-228.5 168.5,-247.5 299.5,-247.5 299.5,-228.5 168.5,-228.5"/>
<text text-anchor="middle" x="234" y="-235.5" font-family="Helvetica,sans-Serif" font-size="10.00" fill="#000000">omc_Types_constIsConst</text>
</a>
</g>
</g>
<!-- Node1790&#45;&gt;Node1803 -->
<g id="edge14" class="edge">
<title>Node1790&#45;&gt;Node1803</title>
<path fill="none" stroke="#191970" d="M76.8212,-171.5432C95.425,-184.0095 129.9016,-205.7981 162,-219 167.8847,-221.4203 174.168,-223.6123 180.4791,-225.5743"/>
<polygon fill="#191970" stroke="#191970" points="179.7857,-229.0181 190.3662,-228.4678 181.7519,-222.2999 179.7857,-229.0181"/>
</g>
<!-- Node1804 -->
<g id="node15" class="node">
<title>Node1804</title>
<g id="a_node15"><a xlink:href="../../db/da1/_compiler_2boot_2build_2error_8c.html#a6f9ff3d03e91883492e13af7fbc088ff" target="_top" xlink:title="omc_Error_getNumErrorMessages">
<polygon fill="#ffffff" stroke="#000000" points="905,-54.5 905,-73.5 1072,-73.5 1072,-54.5 905,-54.5"/>
<text text-anchor="middle" x="988.5" y="-61.5" font-family="Helvetica,sans-Serif" font-size="10.00" fill="#000000">omc_Error_getNumErrorMessages</text>
</a>
</g>
</g>
<!-- Node1790&#45;&gt;Node1804 -->
<g id="edge16" class="edge">
<title>Node1790&#45;&gt;Node1804</title>
<path fill="none" stroke="#191970" d="M106.6844,-152.4872C123.8552,-149.0447 143.7831,-145.4145 162,-143 275.3212,-127.9799 304.1877,-124 418.5,-124 418.5,-124 418.5,-124 592.5,-124 710.8018,-124 744.2576,-137.5264 858,-105 875.3944,-100.0258 877.0501,-92.3254 894,-86 904.3914,-82.1221 915.6888,-78.7837 926.7388,-75.9637"/>
<polygon fill="#191970" stroke="#191970" points="927.8954,-79.2845 936.7842,-73.5191 926.2401,-72.483 927.8954,-79.2845"/>
</g>
<!-- Node1807 -->
<g id="node18" class="node">
<title>Node1807</title>
<g id="a_node18"><a xlink:href="../../de/d71/_ceval_8c.html#a57918824d0676c839ced2d7248f4daf9" target="_top" xlink:title="omc_Ceval_ceval">
<polygon fill="#ffffff" stroke="#000000" points="186.5,-76.5 186.5,-95.5 281.5,-95.5 281.5,-76.5 186.5,-76.5"/>
<text text-anchor="middle" x="234" y="-83.5" font-family="Helvetica,sans-Serif" font-size="10.00" fill="#000000">omc_Ceval_ceval</text>
</a>
</g>
</g>
<!-- Node1790&#45;&gt;Node1807 -->
<g id="edge19" class="edge">
<title>Node1790&#45;&gt;Node1807</title>
<path fill="none" stroke="#191970" d="M79.415,-152.322C98.7346,-141.1823 131.9932,-122.7822 162,-110 171.5462,-105.9335 182.0325,-102.0978 191.9772,-98.7357"/>
<polygon fill="#191970" stroke="#191970" points="193.2817,-101.9911 201.6864,-95.5404 191.0934,-95.3419 193.2817,-101.9911"/>
</g>
<!-- Node1814 -->
<g id="node25" class="node">
<title>Node1814</title>
<g id="a_node25"><a xlink:href="../../da/d15/_values_util_8c.html#a35c4ecf3f05bb7ed2ffaf22ae500a2b3" target="_top" xlink:title="omc_ValuesUtil_isRecord">
<polygon fill="#ffffff" stroke="#000000" points="169,-38.5 169,-57.5 299,-57.5 299,-38.5 169,-38.5"/>
<text text-anchor="middle" x="234" y="-45.5" font-family="Helvetica,sans-Serif" font-size="10.00" fill="#000000">omc_ValuesUtil_isRecord</text>
</a>
</g>
</g>
<!-- Node1790&#45;&gt;Node1814 -->
<g id="edge27" class="edge">
<title>Node1790&#45;&gt;Node1814</title>
<path fill="none" stroke="#191970" d="M70.2844,-152.261C85.2542,-132.954 121.4922,-89.7326 162,-67 165.9758,-64.7688 170.2226,-62.7918 174.5902,-61.0412"/>
<polygon fill="#191970" stroke="#191970" points="176.0574,-64.2333 184.2865,-57.56 173.692,-57.645 176.0574,-64.2333"/>
</g>
<!-- Node1815 -->
<g id="node26" class="node">
<title>Node1815</title>
<g id="a_node26"><a xlink:href="../../da/d15/_values_util_8c.html#a550deb24f55c260244721b3d25a04e2b" target="_top" xlink:title="omc_ValuesUtil_typeConvert\lRecord">
<polygon fill="#ffffff" stroke="#000000" points="162,-267 162,-297 306,-297 306,-267 162,-267"/>
<text text-anchor="start" x="170" y="-285" font-family="Helvetica,sans-Serif" font-size="10.00" fill="#000000">omc_ValuesUtil_typeConvert</text>
<text text-anchor="middle" x="234" y="-274" font-family="Helvetica,sans-Serif" font-size="10.00" fill="#000000">Record</text>
</a>
</g>
</g>
<!-- Node1790&#45;&gt;Node1815 -->
<g id="edge28" class="edge">
<title>Node1790&#45;&gt;Node1815</title>
<path fill="none" stroke="#191970" d="M70.6731,-171.7708C86.0573,-190.7533 122.5905,-232.8655 162,-257 165.3941,-259.0785 168.9845,-261.0138 172.6783,-262.8107"/>
<polygon fill="#191970" stroke="#191970" points="171.463,-266.1013 182.0201,-266.9952 174.3247,-259.713 171.463,-266.1013"/>
</g>
<!-- Node1841 -->
<g id="node52" class="node">
<title>Node1841</title>
<g id="a_node52"><a xlink:href="../../d1/d08/_expression_8c.html#a007abae479310b1b518673105ceba117" target="_top" xlink:title="omc_Expression_typeof">
<polygon fill="#ffffff" stroke="#000000" points="173,-.5 173,-19.5 295,-19.5 295,-.5 173,-.5"/>
<text text-anchor="middle" x="234" y="-7.5" font-family="Helvetica,sans-Serif" font-size="10.00" fill="#000000">omc_Expression_typeof</text>
</a>
</g>
</g>
<!-- Node1790&#45;&gt;Node1841 -->
<g id="edge59" class="edge">
<title>Node1790&#45;&gt;Node1841</title>
<path fill="none" stroke="#191970" d="M67.4013,-152.2025C79.0381,-127.4542 113.1139,-62.0487 162,-29 165.0725,-26.9229 168.3605,-25.0727 171.7771,-23.4247"/>
<polygon fill="#191970" stroke="#191970" points="173.2025,-26.6222 181.062,-19.5174 170.4873,-20.1703 173.2025,-26.6222"/>
</g>
<!-- Node1792 -->
<g id="node3" class="node">
<title>Node1792</title>
<g id="a_node3"><a xlink:href="../../d3/df6/_types_8c.html#a3acf08c5099ed51afcde0205aeb63311" target="_top" xlink:title="omc_Types_propTupleAllConst">
<polygon fill="#ffffff" stroke="#000000" points="342,-409.5 342,-428.5 495,-428.5 495,-409.5 342,-409.5"/>
<text text-anchor="middle" x="418.5" y="-416.5" font-family="Helvetica,sans-Serif" font-size="10.00" fill="#000000">omc_Types_propTupleAllConst</text>
</a>
</g>
</g>
<!-- Node1791&#45;&gt;Node1792 -->
<g id="edge2" class="edge">
<title>Node1791&#45;&gt;Node1792</title>
<path fill="none" stroke="#191970" d="M298.5291,-406.6453C309.2697,-407.7514 320.563,-408.9143 331.7481,-410.0662"/>
<polygon fill="#191970" stroke="#191970" points="331.6648,-413.5761 341.9708,-411.1189 332.382,-406.6129 331.6648,-413.5761"/>
</g>
<!-- Node1793 -->
<g id="node4" class="node">
<title>Node1793</title>
<g id="a_node4"><a xlink:href="../../d3/db3/_flags_8c.html#a34e6591659b1578969141a635ff24042" target="_top" xlink:title="omc_Flags_isSet">
<polygon fill="#ffffff" stroke="#000000" points="546.5,-385.5 546.5,-404.5 638.5,-404.5 638.5,-385.5 546.5,-385.5"/>
<text text-anchor="middle" x="592.5" y="-392.5" font-family="Helvetica,sans-Serif" font-size="10.00" fill="#000000">omc_Flags_isSet</text>
</a>
</g>
</g>
<!-- Node1791&#45;&gt;Node1793 -->
<g id="edge4" class="edge">
<title>Node1791&#45;&gt;Node1793</title>
<path fill="none" stroke="#191970" d="M298.5067,-399.1003C366.2019,-398.1562 471.5645,-396.6867 536.0644,-395.7871"/>
<polygon fill="#191970" stroke="#191970" points="536.4929,-399.2816 546.4431,-395.6424 536.3952,-392.2822 536.4929,-399.2816"/>
</g>
<!-- Node1796 -->
<g id="node7" class="node">
<title>Node1796</title>
<g id="a_node7"><a xlink:href="../../d6/d1d/_compiler_2boot_2build_2debug_8c.html#a465f6e24432a8b1db4c7576ea09e7259" target="_top" xlink:title="omc_Debug_trace">
<polygon fill="#ffffff" stroke="#000000" points="370.5,-465.5 370.5,-484.5 466.5,-484.5 466.5,-465.5 370.5,-465.5"/>
<text text-anchor="middle" x="418.5" y="-472.5" font-family="Helvetica,sans-Serif" font-size="10.00" fill="#000000">omc_Debug_trace</text>
</a>
</g>
</g>
<!-- Node1791&#45;&gt;Node1796 -->
<g id="edge7" class="edge">
<title>Node1791&#45;&gt;Node1796</title>
<path fill="none" stroke="#191970" d="M249.5608,-409.5617C270.0803,-421.8161 307.6174,-443.0231 342,-456 348.6897,-458.5249 355.8354,-460.8106 362.9723,-462.8495"/>
<polygon fill="#191970" stroke="#191970" points="362.0878,-466.236 372.6554,-465.4763 363.9206,-459.4802 362.0878,-466.236"/>
</g>
<!-- Node1792&#45;&gt;Node1792 -->
<g id="edge3" class="edge">
<title>Node1792&#45;&gt;Node1792</title>
<path fill="none" stroke="#191970" d="M391.6815,-428.7571C378.6347,-437.5653 387.5742,-447 418.5,-447 439.2783,-447 450.1316,-442.741 451.0599,-437.2746"/>
<polygon fill="#191970" stroke="#191970" points="453.8102,-435.0928 445.3185,-428.7571 448.0057,-439.0054 453.8102,-435.0928"/>
</g>
<!-- Node1794 -->
<g id="node5" class="node">
<title>Node1794</title>
<g id="a_node5"><a xlink:href="../../d3/db3/_flags_8c.html#a760d66f53b65ac257876ca0f6308f09f" target="_top" xlink:title="omc_Flags_loadFlags">
<polygon fill="#ffffff" stroke="#000000" points="1501.5,-304.5 1501.5,-323.5 1613.5,-323.5 1613.5,-304.5 1501.5,-304.5"/>
<text text-anchor="middle" x="1557.5" y="-311.5" font-family="Helvetica,sans-Serif" font-size="10.00" fill="#000000">omc_Flags_loadFlags</text>
</a>
</g>
</g>
<!-- Node1793&#45;&gt;Node1794 -->
<g id="edge5" class="edge">
<title>Node1793&#45;&gt;Node1794</title>
<path fill="none" stroke="#191970" d="M638.5141,-397.6828C712.3196,-401.7479 861.749,-409 988.5,-409 988.5,-409 988.5,-409 1187.5,-409 1316.8661,-409 1463.9076,-353.8431 1526.5783,-327.5851"/>
<polygon fill="#191970" stroke="#191970" points="1528.0577,-330.7595 1535.8966,-323.6319 1525.3238,-324.3155 1528.0577,-330.7595"/>
</g>
<!-- Node1795 -->
<g id="node6" class="node">
<title>Node1795</title>
<g id="a_node6"><a xlink:href="../../da/d72/_compiler_2boot_2build_2list_8c.html#a3ec1ee3a5ff53be9af368e290be09182" target="_top" xlink:title="omc_List_fold">
<polygon fill="#ffffff" stroke="#000000" points="1656,-304.5 1656,-323.5 1733,-323.5 1733,-304.5 1656,-304.5"/>
<text text-anchor="middle" x="1694.5" y="-311.5" font-family="Helvetica,sans-Serif" font-size="10.00" fill="#000000">omc_List_fold</text>
</a>
</g>
</g>
<!-- Node1794&#45;&gt;Node1795 -->
<g id="edge6" class="edge">
<title>Node1794&#45;&gt;Node1795</title>
<path fill="none" stroke="#191970" d="M1613.6184,-314C1624.2594,-314 1635.3126,-314 1645.7046,-314"/>
<polygon fill="#191970" stroke="#191970" points="1645.8364,-317.5001 1655.8363,-314 1645.8363,-310.5001 1645.8364,-317.5001"/>
</g>
<!-- Node1797 -->
<g id="node8" class="node">
<title>Node1797</title>
<g id="a_node8"><a xlink:href="../../dc/d4a/_print_8c.html#a136f27763cbad8fdab9e975d877aff4b" target="_top" xlink:title="omc_Print_printErrorBuf">
<polygon fill="#ffffff" stroke="#000000" points="532,-465.5 532,-484.5 653,-484.5 653,-465.5 532,-465.5"/>
<text text-anchor="middle" x="592.5" y="-472.5" font-family="Helvetica,sans-Serif" font-size="10.00" fill="#000000">omc_Print_printErrorBuf</text>
</a>
</g>
</g>
<!-- Node1796&#45;&gt;Node1797 -->
<g id="edge8" class="edge">
<title>Node1796&#45;&gt;Node1797</title>
<path fill="none" stroke="#191970" d="M466.5069,-475C483.5666,-475 503.1484,-475 521.7098,-475"/>
<polygon fill="#191970" stroke="#191970" points="521.8942,-478.5001 531.8942,-475 521.8942,-471.5001 521.8942,-478.5001"/>
</g>
<!-- Node1798 -->
<g id="node9" class="node">
<title>Node1798</title>
<g id="a_node9"><a xlink:href="../../db/def/_print_8h.html#ac4ef051f731ad4fd851c45be8d215b4c" target="_top" xlink:title="Print_printErrorBuf">
<polygon fill="#ffffff" stroke="#000000" points="725.5,-465.5 725.5,-484.5 822.5,-484.5 822.5,-465.5 725.5,-465.5"/>
<text text-anchor="middle" x="774" y="-472.5" font-family="Helvetica,sans-Serif" font-size="10.00" fill="#000000">Print_printErrorBuf</text>
</a>
</g>
</g>
<!-- Node1797&#45;&gt;Node1798 -->
<g id="edge9" class="edge">
<title>Node1797&#45;&gt;Node1798</title>
<path fill="none" stroke="#191970" d="M653.1892,-475C673.1977,-475 695.404,-475 715.2641,-475"/>
<polygon fill="#191970" stroke="#191970" points="715.4117,-478.5001 725.4117,-475 715.4116,-471.5001 715.4117,-478.5001"/>
</g>
<!-- Node1800 -->
<g id="node11" class="node">
<title>Node1800</title>
<g id="a_node11"><a xlink:href="../../d3/df6/_types_8c.html#a2a7fdb6df02438652061b43cb82c62d7" target="_top" xlink:title="omc_Types_constEqual">
<polygon fill="#ffffff" stroke="#000000" points="357.5,-209.5 357.5,-228.5 479.5,-228.5 479.5,-209.5 357.5,-209.5"/>
<text text-anchor="middle" x="418.5" y="-216.5" font-family="Helvetica,sans-Serif" font-size="10.00" fill="#000000">omc_Types_constEqual</text>
</a>
</g>
</g>
<!-- Node1799&#45;&gt;Node1800 -->
<g id="edge11" class="edge">
<title>Node1799&#45;&gt;Node1800</title>
<path fill="none" stroke="#191970" d="M304.0146,-207.2102C318.1238,-208.6632 332.971,-210.1921 347.1261,-211.6498"/>
<polygon fill="#191970" stroke="#191970" points="346.9845,-215.1537 357.2904,-212.6966 347.7016,-208.1905 346.9845,-215.1537"/>
</g>
<!-- Node1801 -->
<g id="node12" class="node">
<title>Node1801</title>
<g id="a_node12"><a xlink:href="../../d1/dd1/3rd_party_2gc_2include_2gc_8h.html#acacfa47efcc44a29f7bb7d98f2a000f8" target="_top" xlink:title="void">
<polygon fill="#ffffff" stroke="#000000" points="575,-209.5 575,-228.5 610,-228.5 610,-209.5 575,-209.5"/>
<text text-anchor="middle" x="592.5" y="-216.5" font-family="Helvetica,sans-Serif" font-size="10.00" fill="#000000">void</text>
</a>
</g>
</g>
<!-- Node1800&#45;&gt;Node1801 -->
<g id="edge12" class="edge">
<title>Node1800&#45;&gt;Node1801</title>
<path fill="none" stroke="#191970" d="M479.8459,-219C508.7707,-219 541.8505,-219 564.6441,-219"/>
<polygon fill="#191970" stroke="#191970" points="564.9441,-222.5001 574.9441,-219 564.944,-215.5001 564.9441,-222.5001"/>
</g>
<!-- Node1803&#45;&gt;Node1800 -->
<g id="edge15" class="edge">
<title>Node1803&#45;&gt;Node1800</title>
<path fill="none" stroke="#191970" d="M299.5673,-231.2478C315.0308,-229.6554 331.5887,-227.9502 347.288,-226.3335"/>
<polygon fill="#191970" stroke="#191970" points="347.8717,-229.792 357.4605,-225.2859 347.1545,-222.8288 347.8717,-229.792"/>
</g>
<!-- Node1805 -->
<g id="node16" class="node">
<title>Node1805</title>
<g id="a_node16"><a xlink:href="../../d4/dce/_error_ext_8c.html#a0195f83af0487b3e7bf35deb4225e582" target="_top" xlink:title="omc_ErrorExt_getNumError\lMessages">
<polygon fill="#ffffff" stroke="#000000" points="1119,-46 1119,-76 1256,-76 1256,-46 1119,-46"/>
<text text-anchor="start" x="1127" y="-64" font-family="Helvetica,sans-Serif" font-size="10.00" fill="#000000">omc_ErrorExt_getNumError</text>
<text text-anchor="middle" x="1187.5" y="-53" font-family="Helvetica,sans-Serif" font-size="10.00" fill="#000000">Messages</text>
</a>
</g>
</g>
<!-- Node1804&#45;&gt;Node1805 -->
<g id="edge17" class="edge">
<title>Node1804&#45;&gt;Node1805</title>
<path fill="none" stroke="#191970" d="M1072.029,-62.7408C1084.2442,-62.5566 1096.7892,-62.3675 1108.9015,-62.1849"/>
<polygon fill="#191970" stroke="#191970" points="1109.0112,-65.6837 1118.9573,-62.0333 1108.9056,-58.6845 1109.0112,-65.6837"/>
</g>
<!-- Node1806 -->
<g id="node17" class="node">
<title>Node1806</title>
<g id="a_node17"><a xlink:href="../../d1/d40/boot_2build_2_error_ext_8h.html#a1206137921767ad0e49abe96adf7b5e3" target="_top" xlink:title="ErrorImpl__getNumErrorMessages">
<polygon fill="#ffffff" stroke="#000000" points="1292,-51.5 1292,-70.5 1459,-70.5 1459,-51.5 1292,-51.5"/>
<text text-anchor="middle" x="1375.5" y="-58.5" font-family="Helvetica,sans-Serif" font-size="10.00" fill="#000000">ErrorImpl__getNumErrorMessages</text>
</a>
</g>
</g>
<!-- Node1805&#45;&gt;Node1806 -->
<g id="edge18" class="edge">
<title>Node1805&#45;&gt;Node1806</title>
<path fill="none" stroke="#191970" d="M1256.1703,-61C1264.5388,-61 1273.1966,-61 1281.8505,-61"/>
<polygon fill="#191970" stroke="#191970" points="1281.9901,-64.5001 1291.99,-61 1281.99,-57.5001 1281.9901,-64.5001"/>
</g>
<!-- Node1808 -->
<g id="node19" class="node">
<title>Node1808</title>
<g id="a_node19"><a xlink:href="../../de/d71/_ceval_8c.html#ad66d19fad1116fdf77fadaec135844f1" target="_top" xlink:title="omc_Ceval_cevalWork1">
<polygon fill="#ffffff" stroke="#000000" points="357,-76.5 357,-95.5 480,-95.5 480,-76.5 357,-76.5"/>
<text text-anchor="middle" x="418.5" y="-83.5" font-family="Helvetica,sans-Serif" font-size="10.00" fill="#000000">omc_Ceval_cevalWork1</text>
</a>
</g>
</g>
<!-- Node1807&#45;&gt;Node1808 -->
<g id="edge20" class="edge">
<title>Node1807&#45;&gt;Node1808</title>
<path fill="none" stroke="#191970" d="M281.5133,-86C301.3304,-86 324.7816,-86 346.6279,-86"/>
<polygon fill="#191970" stroke="#191970" points="346.8658,-89.5001 356.8658,-86 346.8658,-82.5001 346.8658,-89.5001"/>
</g>
<!-- Node1809 -->
<g id="node20" class="node">
<title>Node1809</title>
<g id="a_node20"><a xlink:href="../../de/d71/_ceval_8c.html#ad540606a27b9f43a76f25cdc3fd501ee" target="_top" xlink:title="omc_Ceval_cevalWork2">
<polygon fill="#ffffff" stroke="#000000" points="531,-76.5 531,-95.5 654,-95.5 654,-76.5 531,-76.5"/>
<text text-anchor="middle" x="592.5" y="-83.5" font-family="Helvetica,sans-Serif" font-size="10.00" fill="#000000">omc_Ceval_cevalWork2</text>
</a>
</g>
</g>
<!-- Node1808&#45;&gt;Node1809 -->
<g id="edge21" class="edge">
<title>Node1808&#45;&gt;Node1809</title>
<path fill="none" stroke="#191970" d="M480.3358,-86C493.4128,-86 507.3198,-86 520.7286,-86"/>
<polygon fill="#191970" stroke="#191970" points="520.8633,-89.5001 530.8633,-86 520.8633,-82.5001 520.8633,-89.5001"/>
</g>
<!-- Node1811 -->
<g id="node22" class="node">
<title>Node1811</title>
<g id="a_node22"><a xlink:href="../../d8/d16/_expression_dump_8c.html#ab1b14f2e6c847006a4235d1905bb2637" target="_top" xlink:title="omc_ExpressionDump\l_printExpStr">
<polygon fill="#ffffff" stroke="#000000" points="534.5,-27 534.5,-57 650.5,-57 650.5,-27 534.5,-27"/>
<text text-anchor="start" x="542.5" y="-45" font-family="Helvetica,sans-Serif" font-size="10.00" fill="#000000">omc_ExpressionDump</text>
<text text-anchor="middle" x="592.5" y="-34" font-family="Helvetica,sans-Serif" font-size="10.00" fill="#000000">_printExpStr</text>
</a>
</g>
</g>
<!-- Node1808&#45;&gt;Node1811 -->
<g id="edge23" class="edge">
<title>Node1808&#45;&gt;Node1811</title>
<path fill="none" stroke="#191970" d="M456.2554,-76.4527C476.1956,-71.4103 501.2819,-65.0666 524.4766,-59.2013"/>
<polygon fill="#191970" stroke="#191970" points="525.444,-62.5669 534.2808,-56.7221 523.7279,-55.7805 525.444,-62.5669"/>
</g>
<!-- Node1810 -->
<g id="node21" class="node">
<title>Node1810</title>
<g id="a_node21"><a xlink:href="../../d1/dfc/expat__lib_8c.html#adf65e97c498597b0fa234e787465c538" target="_top" xlink:title="_start">
<polygon fill="#ffffff" stroke="#000000" points="753.5,-76.5 753.5,-95.5 794.5,-95.5 794.5,-76.5 753.5,-76.5"/>
<text text-anchor="middle" x="774" y="-83.5" font-family="Helvetica,sans-Serif" font-size="10.00" fill="#000000">_start</text>
</a>
</g>
</g>
<!-- Node1809&#45;&gt;Node1810 -->
<g id="edge22" class="edge">
<title>Node1809&#45;&gt;Node1810</title>
<path fill="none" stroke="#191970" d="M654.2009,-86C684.1007,-86 718.7037,-86 743.0097,-86"/>
<polygon fill="#191970" stroke="#191970" points="743.0752,-89.5001 753.0751,-86 743.0751,-82.5001 743.0752,-89.5001"/>
</g>
<!-- Node1812 -->
<g id="node23" class="node">
<title>Node1812</title>
<g id="a_node23"><a xlink:href="../../d7/d52/_tpl_8c.html#a19e668217f7d6c0b176843e40633cae2" target="_top" xlink:title="omc_Tpl_tplString2">
<polygon fill="#ffffff" stroke="#000000" points="723.5,-32.5 723.5,-51.5 824.5,-51.5 824.5,-32.5 723.5,-32.5"/>
<text text-anchor="middle" x="774" y="-39.5" font-family="Helvetica,sans-Serif" font-size="10.00" fill="#000000">omc_Tpl_tplString2</text>
</a>
</g>
</g>
<!-- Node1811&#45;&gt;Node1812 -->
<g id="edge24" class="edge">
<title>Node1811&#45;&gt;Node1812</title>
<path fill="none" stroke="#191970" d="M650.6767,-42C670.7232,-42 693.2147,-42 713.4463,-42"/>
<polygon fill="#191970" stroke="#191970" points="713.4846,-45.5001 723.4845,-42 713.4845,-38.5001 713.4846,-45.5001"/>
</g>
<!-- Node1812&#45;&gt;Node1804 -->
<g id="edge25" class="edge">
<title>Node1812&#45;&gt;Node1804</title>
<path fill="none" stroke="#191970" d="M824.5619,-47.1858C845.4785,-49.3311 870.432,-51.8905 894.4838,-54.3573"/>
<polygon fill="#191970" stroke="#191970" points="894.4172,-57.8688 904.7222,-55.4074 895.1315,-50.9053 894.4172,-57.8688"/>
</g>
<!-- Node1813 -->
<g id="node24" class="node">
<title>Node1813</title>
<g id="a_node24"><a xlink:href="../../d7/d52/_tpl_8c.html#af79df210cda1bb788fce4ef64cb58a0f" target="_top" xlink:title="omc_Tpl_tplCallWithFailError2">
<polygon fill="#ffffff" stroke="#000000" points="914,-16.5 914,-35.5 1063,-35.5 1063,-16.5 914,-16.5"/>
<text text-anchor="middle" x="988.5" y="-23.5" font-family="Helvetica,sans-Serif" font-size="10.00" fill="#000000">omc_Tpl_tplCallWithFailError2</text>
</a>
</g>
</g>
<!-- Node1812&#45;&gt;Node1813 -->
<g id="edge26" class="edge">
<title>Node1812&#45;&gt;Node1813</title>
<path fill="none" stroke="#191970" d="M824.5619,-38.2285C848.1748,-36.4671 876.9325,-34.322 903.7298,-32.3232"/>
<polygon fill="#191970" stroke="#191970" points="904.1774,-35.7996 913.8893,-31.5654 903.6567,-28.819 904.1774,-35.7996"/>
</g>
<!-- Node1815&#45;&gt;Node1815 -->
<g id="edge29" class="edge">
<title>Node1815&#45;&gt;Node1815</title>
<path fill="none" stroke="#191970" d="M204.374,-297.159C197.2301,-306.5566 207.1055,-315.5 234,-315.5 250.3889,-315.5 260.4578,-312.179 264.2069,-307.4579"/>
<polygon fill="#191970" stroke="#191970" points="267.6837,-306.946 263.626,-297.159 260.6948,-307.3403 267.6837,-306.946"/>
</g>
<!-- Node1816 -->
<g id="node27" class="node">
<title>Node1816</title>
<g id="a_node27"><a xlink:href="../../d3/df6/_types_8c.html#a2c69ce9ddd110ee6e3b00dbda9761ca4" target="_top" xlink:title="omc_Types_getVarType">
<polygon fill="#ffffff" stroke="#000000" points="357,-272.5 357,-291.5 480,-291.5 480,-272.5 357,-272.5"/>
<text text-anchor="middle" x="418.5" y="-279.5" font-family="Helvetica,sans-Serif" font-size="10.00" fill="#000000">omc_Types_getVarType</text>
</a>
</g>
</g>
<!-- Node1815&#45;&gt;Node1816 -->
<g id="edge30" class="edge">
<title>Node1815&#45;&gt;Node1816</title>
<path fill="none" stroke="#191970" d="M306.1252,-282C319.4946,-282 333.4569,-282 346.8132,-282"/>
<polygon fill="#191970" stroke="#191970" points="346.8889,-285.5001 356.8888,-282 346.8888,-278.5001 346.8889,-285.5001"/>
</g>
<!-- Node1817 -->
<g id="node28" class="node">
<title>Node1817</title>
<g id="a_node28"><a xlink:href="../../db/da1/_compiler_2boot_2build_2error_8c.html#ac7cb956267dd6443414eb83a5c0b4693" target="_top" xlink:title="omc_Error_addMessage">
<polygon fill="#ffffff" stroke="#000000" points="531.5,-272.5 531.5,-291.5 653.5,-291.5 653.5,-272.5 531.5,-272.5"/>
<text text-anchor="middle" x="592.5" y="-279.5" font-family="Helvetica,sans-Serif" font-size="10.00" fill="#000000">omc_Error_addMessage</text>
</a>
</g>
</g>
<!-- Node1816&#45;&gt;Node1817 -->
<g id="edge31" class="edge">
<title>Node1816&#45;&gt;Node1817</title>
<path fill="none" stroke="#191970" d="M480.3358,-282C493.5685,-282 507.651,-282 521.2073,-282"/>
<polygon fill="#191970" stroke="#191970" points="521.4485,-285.5001 531.4485,-282 521.4484,-278.5001 521.4485,-285.5001"/>
</g>
<!-- Node1818 -->
<g id="node29" class="node">
<title>Node1818</title>
<g id="a_node29"><a xlink:href="../../d3/db3/_flags_8c.html#abc3d84cf6e1cf18f0cec0f052e7c85d9" target="_top" xlink:title="omc_Flags_getConfigBool">
<polygon fill="#ffffff" stroke="#000000" points="1122,-209.5 1122,-228.5 1253,-228.5 1253,-209.5 1122,-209.5"/>
<text text-anchor="middle" x="1187.5" y="-216.5" font-family="Helvetica,sans-Serif" font-size="10.00" fill="#000000">omc_Flags_getConfigBool</text>
</a>
</g>
</g>
<!-- Node1817&#45;&gt;Node1818 -->
<g id="edge32" class="edge">
<title>Node1817&#45;&gt;Node1818</title>
<path fill="none" stroke="#191970" d="M608.7127,-272.3187C627.5176,-261.6624 659.8107,-245.1019 690,-238 836.0683,-203.6379 1012.8178,-207.1432 1111.4609,-212.9591"/>
<polygon fill="#191970" stroke="#191970" points="1111.4397,-216.4643 1121.6353,-213.5837 1111.8686,-209.4774 1111.4397,-216.4643"/>
</g>
<!-- Node1820 -->
<g id="node31" class="node">
<title>Node1820</title>
<g id="a_node31"><a xlink:href="../../db/da1/_compiler_2boot_2build_2error_8c.html#aeb78c231e1d6119f91343f400ce91a08" target="_top" xlink:title="omc_Error_getCurrentComponent">
<polygon fill="#ffffff" stroke="#000000" points="692.5,-361.5 692.5,-380.5 855.5,-380.5 855.5,-361.5 692.5,-361.5"/>
<text text-anchor="middle" x="774" y="-368.5" font-family="Helvetica,sans-Serif" font-size="10.00" fill="#000000">omc_Error_getCurrentComponent</text>
</a>
</g>
</g>
<!-- Node1817&#45;&gt;Node1820 -->
<g id="edge35" class="edge">
<title>Node1817&#45;&gt;Node1820</title>
<path fill="none" stroke="#191970" d="M604.3892,-291.7209C622.063,-305.739 656.763,-331.6298 690,-347 699.7019,-351.4866 710.4283,-355.3218 720.8798,-358.5243"/>
<polygon fill="#191970" stroke="#191970" points="720.1941,-361.9698 730.7737,-361.4014 722.1488,-355.2482 720.1941,-361.9698"/>
</g>
<!-- Node1821 -->
<g id="node32" class="node">
<title>Node1821</title>
<g id="a_node32"><a xlink:href="../../d7/deb/build_2include_2omc_2c_2util_2modelica__string_8c.html#a751007abc59e9ca7978f2af10a0c814f" target="_top" xlink:title="stringAppend">
<polygon fill="#ffffff" stroke="#000000" points="951.5,-342.5 951.5,-361.5 1025.5,-361.5 1025.5,-342.5 951.5,-342.5"/>
<text text-anchor="middle" x="988.5" y="-349.5" font-family="Helvetica,sans-Serif" font-size="10.00" fill="#000000">stringAppend</text>
</a>
</g>
</g>
<!-- Node1817&#45;&gt;Node1821 -->
<g id="edge40" class="edge">
<title>Node1817&#45;&gt;Node1821</title>
<path fill="none" stroke="#191970" d="M617.3826,-291.625C636.868,-298.8042 664.8008,-308.3153 690,-314 777.4949,-333.7379 881.894,-344.0929 941.1681,-348.7726"/>
<polygon fill="#191970" stroke="#191970" points="941.1045,-352.2779 951.3434,-349.5549 941.6412,-345.2985 941.1045,-352.2779"/>
</g>
<!-- Node1822 -->
<g id="node33" class="node">
<title>Node1822</title>
<g id="a_node33"><a xlink:href="../../d9/d7c/_compiler_2boot_2build_2util_8c.html#af677b04abc76ada92619360b1a4e1238" target="_top" xlink:title="omc_Util_translateContent">
<polygon fill="#ffffff" stroke="#000000" points="707.5,-285.5 707.5,-304.5 840.5,-304.5 840.5,-285.5 707.5,-285.5"/>
<text text-anchor="middle" x="774" y="-292.5" font-family="Helvetica,sans-Serif" font-size="10.00" fill="#000000">omc_Util_translateContent</text>
</a>
</g>
</g>
<!-- Node1817&#45;&gt;Node1822 -->
<g id="edge37" class="edge">
<title>Node1817&#45;&gt;Node1822</title>
<path fill="none" stroke="#191970" d="M653.6946,-286.3831C667.7422,-287.3892 682.8504,-288.4714 697.4554,-289.5175"/>
<polygon fill="#191970" stroke="#191970" points="697.2423,-293.0111 707.4668,-290.2345 697.7424,-286.029 697.2423,-293.0111"/>
</g>
<!-- Node1825 -->
<g id="node36" class="node">
<title>Node1825</title>
<g id="a_node36"><a xlink:href="../../d4/dce/_error_ext_8c.html#a2aab7fef8718e5c7b0e410daf818bf99" target="_top" xlink:title="omc_ErrorExt_addSourceMessage">
<polygon fill="#ffffff" stroke="#000000" points="690,-247.5 690,-266.5 858,-266.5 858,-247.5 690,-247.5"/>
<text text-anchor="middle" x="774" y="-254.5" font-family="Helvetica,sans-Serif" font-size="10.00" fill="#000000">omc_ErrorExt_addSourceMessage</text>
</a>
</g>
</g>
<!-- Node1817&#45;&gt;Node1825 -->
<g id="edge41" class="edge">
<title>Node1817&#45;&gt;Node1825</title>
<path fill="none" stroke="#191970" d="M653.6946,-273.571C666.9446,-271.7459 681.1383,-269.7909 694.9631,-267.8866"/>
<polygon fill="#191970" stroke="#191970" points="695.517,-271.3435 704.9458,-266.5116 694.5617,-264.4089 695.517,-271.3435"/>
</g>
<!-- Node1829 -->
<g id="node40" class="node">
<title>Node1829</title>
<g id="a_node40"><a xlink:href="../../d9/d7c/_compiler_2boot_2build_2util_8c.html#ad7f719bd6355b185d211a8c8ff0cc7be" target="_top" xlink:title="omc_Util_testsuiteFriendly">
<polygon fill="#ffffff" stroke="#000000" points="707.5,-155.5 707.5,-174.5 840.5,-174.5 840.5,-155.5 707.5,-155.5"/>
<text text-anchor="middle" x="774" y="-162.5" font-family="Helvetica,sans-Serif" font-size="10.00" fill="#000000">omc_Util_testsuiteFriendly</text>
</a>
</g>
</g>
<!-- Node1817&#45;&gt;Node1829 -->
<g id="edge45" class="edge">
<title>Node1817&#45;&gt;Node1829</title>
<path fill="none" stroke="#191970" d="M607.0296,-272.3389C619.7268,-263.7253 638.5021,-250.5706 654,-238 670.857,-224.327 672.0029,-217.1332 690,-205 705.4166,-194.6065 723.9524,-185.4725 739.6854,-178.5668"/>
<polygon fill="#191970" stroke="#191970" points="741.2425,-181.7078 749.0663,-174.5636 738.495,-175.2695 741.2425,-181.7078"/>
</g>
<!-- Node1819 -->
<g id="node30" class="node">
<title>Node1819</title>
<g id="a_node30"><a xlink:href="../../d3/db3/_flags_8c.html#a96ba70d54b6662cf90933a207c0c6b8e" target="_top" xlink:title="omc_Flags_getConfigValue">
<polygon fill="#ffffff" stroke="#000000" points="1307,-209.5 1307,-228.5 1444,-228.5 1444,-209.5 1307,-209.5"/>
<text text-anchor="middle" x="1375.5" y="-216.5" font-family="Helvetica,sans-Serif" font-size="10.00" fill="#000000">omc_Flags_getConfigValue</text>
</a>
</g>
</g>
<!-- Node1818&#45;&gt;Node1819 -->
<g id="edge33" class="edge">
<title>Node1818&#45;&gt;Node1819</title>
<path fill="none" stroke="#191970" d="M1253.2533,-219C1267.227,-219 1282.1187,-219 1296.5269,-219"/>
<polygon fill="#191970" stroke="#191970" points="1296.9129,-222.5001 1306.9129,-219 1296.9128,-215.5001 1296.9129,-222.5001"/>
</g>
<!-- Node1819&#45;&gt;Node1794 -->
<g id="edge34" class="edge">
<title>Node1819&#45;&gt;Node1794</title>
<path fill="none" stroke="#191970" d="M1432.7573,-228.5475C1441.7617,-231.0308 1450.7966,-234.1335 1459,-238 1490.9962,-253.0808 1522.3648,-279.9683 1540.8151,-297.3853"/>
<polygon fill="#191970" stroke="#191970" points="1538.4894,-300.0048 1548.1175,-304.4263 1543.3481,-294.9657 1538.4894,-300.0048"/>
</g>
<!-- Node1820&#45;&gt;Node1821 -->
<g id="edge36" class="edge">
<title>Node1820&#45;&gt;Node1821</title>
<path fill="none" stroke="#191970" d="M855.7052,-363.7627C884.633,-361.2003 916.1934,-358.4048 941.2858,-356.1821"/>
<polygon fill="#191970" stroke="#191970" points="941.613,-359.667 951.2652,-355.2982 940.9954,-352.6943 941.613,-359.667"/>
</g>
<!-- Node1823 -->
<g id="node34" class="node">
<title>Node1823</title>
<g id="a_node34"><a xlink:href="../../d1/d95/_system_8c.html#ae39e41c84235850a135a73187a387d21" target="_top" xlink:title="omc_System_gettext">
<polygon fill="#ffffff" stroke="#000000" points="933.5,-285.5 933.5,-304.5 1043.5,-304.5 1043.5,-285.5 933.5,-285.5"/>
<text text-anchor="middle" x="988.5" y="-292.5" font-family="Helvetica,sans-Serif" font-size="10.00" fill="#000000">omc_System_gettext</text>
</a>
</g>
</g>
<!-- Node1822&#45;&gt;Node1823 -->
<g id="edge38" class="edge">
<title>Node1822&#45;&gt;Node1823</title>
<path fill="none" stroke="#191970" d="M840.6933,-295C866.9674,-295 897.0497,-295 923.1875,-295"/>
<polygon fill="#191970" stroke="#191970" points="923.3698,-298.5001 933.3698,-295 923.3697,-291.5001 923.3698,-298.5001"/>
</g>
<!-- Node1824 -->
<g id="node35" class="node">
<title>Node1824</title>
<g id="a_node35"><a xlink:href="../../d8/d28/_compiler_2boot_2build_2system_8h.html#a082d216ff61d9f3b30e1fe92e3fc5860" target="_top" xlink:title="SystemImpl__gettext">
<polygon fill="#ffffff" stroke="#000000" points="1132.5,-285.5 1132.5,-304.5 1242.5,-304.5 1242.5,-285.5 1132.5,-285.5"/>
<text text-anchor="middle" x="1187.5" y="-292.5" font-family="Helvetica,sans-Serif" font-size="10.00" fill="#000000">SystemImpl__gettext</text>
</a>
</g>
</g>
<!-- Node1823&#45;&gt;Node1824 -->
<g id="edge39" class="edge">
<title>Node1823&#45;&gt;Node1824</title>
<path fill="none" stroke="#191970" d="M1043.6683,-295C1067.9315,-295 1096.6155,-295 1121.9594,-295"/>
<polygon fill="#191970" stroke="#191970" points="1122.2244,-298.5001 1132.2244,-295 1122.2243,-291.5001 1122.2244,-298.5001"/>
</g>
<!-- Node1826 -->
<g id="node37" class="node">
<title>Node1826</title>
<g id="a_node37"><a xlink:href="../../d1/d40/boot_2build_2_error_ext_8h.html#afef4410ffb05473c1ca2f30078ee39a8" target="_top" xlink:title="Error_addSourceMessage">
<polygon fill="#ffffff" stroke="#000000" points="924,-247.5 924,-266.5 1053,-266.5 1053,-247.5 924,-247.5"/>
<text text-anchor="middle" x="988.5" y="-254.5" font-family="Helvetica,sans-Serif" font-size="10.00" fill="#000000">Error_addSourceMessage</text>
</a>
</g>
</g>
<!-- Node1825&#45;&gt;Node1826 -->
<g id="edge42" class="edge">
<title>Node1825&#45;&gt;Node1826</title>
<path fill="none" stroke="#191970" d="M858.1604,-257C876.4949,-257 895.7744,-257 913.7157,-257"/>
<polygon fill="#191970" stroke="#191970" points="913.818,-260.5001 923.8179,-257 913.8179,-253.5001 913.818,-260.5001"/>
</g>
<!-- Node1827 -->
<g id="node38" class="node">
<title>Node1827</title>
<g id="a_node38"><a xlink:href="../../dc/d1d/errorext_8cpp.html#a658c4e234277aba60ad929952c45d9e2" target="_top" xlink:title="add_source_message">
<polygon fill="#ffffff" stroke="#000000" points="1131.5,-247.5 1131.5,-266.5 1243.5,-266.5 1243.5,-247.5 1131.5,-247.5"/>
<text text-anchor="middle" x="1187.5" y="-254.5" font-family="Helvetica,sans-Serif" font-size="10.00" fill="#000000">add_source_message</text>
</a>
</g>
</g>
<!-- Node1826&#45;&gt;Node1827 -->
<g id="edge43" class="edge">
<title>Node1826&#45;&gt;Node1827</title>
<path fill="none" stroke="#191970" d="M1053.1096,-257C1074.8597,-257 1099.1566,-257 1121.0463,-257"/>
<polygon fill="#191970" stroke="#191970" points="1121.2456,-260.5001 1131.2456,-257 1121.2455,-253.5001 1121.2456,-260.5001"/>
</g>
<!-- Node1828 -->
<g id="node39" class="node">
<title>Node1828</title>
<g id="a_node39"><a xlink:href="../../d4/dbe/_o_m_c_monitor_8c.html#ad78b5494db8b59027d08860c5efce10f" target="_top" xlink:title="ErrorMessage">
<polygon fill="#ffffff" stroke="#000000" points="1337,-247.5 1337,-266.5 1414,-266.5 1414,-247.5 1337,-247.5"/>
<text text-anchor="middle" x="1375.5" y="-254.5" font-family="Helvetica,sans-Serif" font-size="10.00" fill="#000000">ErrorMessage</text>
</a>
</g>
</g>
<!-- Node1827&#45;&gt;Node1828 -->
<g id="edge44" class="edge">
<title>Node1827&#45;&gt;Node1828</title>
<path fill="none" stroke="#191970" d="M1243.6515,-257C1270.0881,-257 1301.3195,-257 1326.7488,-257"/>
<polygon fill="#191970" stroke="#191970" points="1326.9014,-260.5001 1336.9014,-257 1326.9013,-253.5001 1326.9014,-260.5001"/>
</g>
<!-- Node1830 -->
<g id="node41" class="node">
<title>Node1830</title>
<g id="a_node41"><a xlink:href="../../d9/d7c/_compiler_2boot_2build_2util_8c.html#ab96745984cab835c8ae43a8f02fb268b" target="_top" xlink:title="omc_Util_testsuiteFriendly2">
<polygon fill="#ffffff" stroke="#000000" points="919.5,-95.5 919.5,-114.5 1057.5,-114.5 1057.5,-95.5 919.5,-95.5"/>
<text text-anchor="middle" x="988.5" y="-102.5" font-family="Helvetica,sans-Serif" font-size="10.00" fill="#000000">omc_Util_testsuiteFriendly2</text>
</a>
</g>
</g>
<!-- Node1829&#45;&gt;Node1830 -->
<g id="edge46" class="edge">
<title>Node1829&#45;&gt;Node1830</title>
<path fill="none" stroke="#191970" d="M805.2647,-155.4401C821.1365,-150.4632 840.6763,-144.1465 858,-138 874.1791,-132.2596 877.5235,-128.821 894,-124 903.1787,-121.3143 912.9687,-118.8809 922.6397,-116.7209"/>
<polygon fill="#191970" stroke="#191970" points="923.6033,-120.0938 932.6442,-114.5698 922.1318,-113.2502 923.6033,-120.0938"/>
</g>
<!-- Node1838 -->
<g id="node49" class="node">
<title>Node1838</title>
<g id="a_node49"><a xlink:href="../../d1/d5c/_config_8c.html#afa2f208e09cd9979df49295043109099" target="_top" xlink:title="omc_Config_getRunningTestsuite">
<polygon fill="#ffffff" stroke="#000000" points="906.5,-133.5 906.5,-152.5 1070.5,-152.5 1070.5,-133.5 906.5,-133.5"/>
<text text-anchor="middle" x="988.5" y="-140.5" font-family="Helvetica,sans-Serif" font-size="10.00" fill="#000000">omc_Config_getRunningTestsuite</text>
</a>
</g>
</g>
<!-- Node1829&#45;&gt;Node1838 -->
<g id="edge54" class="edge">
<title>Node1829&#45;&gt;Node1838</title>
<path fill="none" stroke="#191970" d="M840.6933,-158.1597C858.311,-156.3527 877.641,-154.3702 896.3459,-152.4517"/>
<polygon fill="#191970" stroke="#191970" points="896.7663,-155.927 906.3569,-151.4249 896.052,-148.9636 896.7663,-155.927"/>
</g>
<!-- Node1840 -->
<g id="node51" class="node">
<title>Node1840</title>
<g id="a_node51"><a xlink:href="../../d1/d5c/_config_8c.html#a9b4cae615bdffda9b7abbe6e04b1e6a5" target="_top" xlink:title="omc_Config_getRunningWSMTestsuite">
<polygon fill="#ffffff" stroke="#000000" points="894,-171.5 894,-190.5 1083,-190.5 1083,-171.5 894,-171.5"/>
<text text-anchor="middle" x="988.5" y="-178.5" font-family="Helvetica,sans-Serif" font-size="10.00" fill="#000000">omc_Config_getRunningWSMTestsuite</text>
</a>
</g>
</g>
<!-- Node1829&#45;&gt;Node1840 -->
<g id="edge57" class="edge">
<title>Node1829&#45;&gt;Node1840</title>
<path fill="none" stroke="#191970" d="M840.6933,-169.9748C854.3828,-170.9959 869.1061,-172.0942 883.7667,-173.1877"/>
<polygon fill="#191970" stroke="#191970" points="883.6601,-176.6894 893.8928,-173.9431 884.1809,-169.7088 883.6601,-176.6894"/>
</g>
<!-- Node1831 -->
<g id="node42" class="node">
<title>Node1831</title>
<g id="a_node42"><a xlink:href="../../d1/d95/_system_8c.html#acb158f48d2d963dbc65eb161259659a7" target="_top" xlink:title="omc_System_basename">
<polygon fill="#ffffff" stroke="#000000" points="1125,-133.5 1125,-152.5 1250,-152.5 1250,-133.5 1125,-133.5"/>
<text text-anchor="middle" x="1187.5" y="-140.5" font-family="Helvetica,sans-Serif" font-size="10.00" fill="#000000">omc_System_basename</text>
</a>
</g>
</g>
<!-- Node1830&#45;&gt;Node1831 -->
<g id="edge47" class="edge">
<title>Node1830&#45;&gt;Node1831</title>
<path fill="none" stroke="#191970" d="M1038.4592,-114.54C1065.5454,-119.7122 1099.2075,-126.1401 1127.6835,-131.5778"/>
<polygon fill="#191970" stroke="#191970" points="1127.0412,-135.0183 1137.5202,-133.4561 1128.3542,-128.1425 1127.0412,-135.0183"/>
</g>
<!-- Node1836 -->
<g id="node47" class="node">
<title>Node1836</title>
<g id="a_node47"><a xlink:href="../../d1/d95/_system_8c.html#ab4261551580fc07778c15d3b0cb0cdfd" target="_top" xlink:title="omc_System_os">
<polygon fill="#ffffff" stroke="#000000" points="1142.5,-95.5 1142.5,-114.5 1232.5,-114.5 1232.5,-95.5 1142.5,-95.5"/>
<text text-anchor="middle" x="1187.5" y="-102.5" font-family="Helvetica,sans-Serif" font-size="10.00" fill="#000000">omc_System_os</text>
</a>
</g>
</g>
<!-- Node1830&#45;&gt;Node1836 -->
<g id="edge52" class="edge">
<title>Node1830&#45;&gt;Node1836</title>
<path fill="none" stroke="#191970" d="M1057.5421,-105C1081.8792,-105 1108.9068,-105 1131.9829,-105"/>
<polygon fill="#191970" stroke="#191970" points="1132.2836,-108.5001 1142.2836,-105 1132.2835,-101.5001 1132.2836,-108.5001"/>
</g>
<!-- Node1832 -->
<g id="node43" class="node">
<title>Node1832</title>
<g id="a_node43"><a xlink:href="../../d8/d28/_compiler_2boot_2build_2system_8h.html#a7b722b53b1ba7f3ffdc3624727daa000" target="_top" xlink:title="System_basename">
<polygon fill="#ffffff" stroke="#000000" points="1325,-133.5 1325,-152.5 1426,-152.5 1426,-133.5 1325,-133.5"/>
<text text-anchor="middle" x="1375.5" y="-140.5" font-family="Helvetica,sans-Serif" font-size="10.00" fill="#000000">System_basename</text>
</a>
</g>
</g>
<!-- Node1831&#45;&gt;Node1832 -->
<g id="edge48" class="edge">
<title>Node1831&#45;&gt;Node1832</title>
<path fill="none" stroke="#191970" d="M1250.1013,-143C1270.8438,-143 1293.891,-143 1314.5106,-143"/>
<polygon fill="#191970" stroke="#191970" points="1314.731,-146.5001 1324.7309,-143 1314.7309,-139.5001 1314.731,-146.5001"/>
</g>
<!-- Node1833 -->
<g id="node44" class="node">
<title>Node1833</title>
<g id="a_node44"><a xlink:href="../../d4/d45/systemimpl_8c.html#af0ce445d63d4d737a2ed25d05b45463c" target="_top" xlink:title="SystemImpl__basename">
<polygon fill="#ffffff" stroke="#000000" points="1495,-133.5 1495,-152.5 1620,-152.5 1620,-133.5 1495,-133.5"/>
<text text-anchor="middle" x="1557.5" y="-140.5" font-family="Helvetica,sans-Serif" font-size="10.00" fill="#000000">SystemImpl__basename</text>
</a>
</g>
</g>
<!-- Node1832&#45;&gt;Node1833 -->
<g id="edge49" class="edge">
<title>Node1832&#45;&gt;Node1833</title>
<path fill="none" stroke="#191970" d="M1426.1971,-143C1444.2898,-143 1465.0461,-143 1484.634,-143"/>
<polygon fill="#191970" stroke="#191970" points="1484.7505,-146.5001 1494.7505,-143 1484.7504,-139.5001 1484.7505,-146.5001"/>
</g>
<!-- Node1834 -->
<g id="node45" class="node">
<title>Node1834</title>
<g id="a_node45"><a xlink:href="../../d7/dcd/group__core_utils.html#gaeccaa0b46edead0608a6982dddb917ec" target="_top" xlink:title="Allocate memory for a Modelica string which is used as return argument of an external Modelica functi...">
<polygon fill="#ffffff" stroke="#000000" points="1499.5,-95.5 1499.5,-114.5 1615.5,-114.5 1615.5,-95.5 1499.5,-95.5"/>
<text text-anchor="middle" x="1557.5" y="-102.5" font-family="Helvetica,sans-Serif" font-size="10.00" fill="#000000">ModelicaAllocateString</text>
</a>
</g>
</g>
<!-- Node1832&#45;&gt;Node1834 -->
<g id="edge50" class="edge">
<title>Node1832&#45;&gt;Node1834</title>
<path fill="none" stroke="#191970" d="M1421.4263,-133.411C1445.8759,-128.3061 1476.1331,-121.9887 1501.903,-116.6082"/>
<polygon fill="#191970" stroke="#191970" points="1502.8304,-119.9901 1511.904,-114.5201 1501.3997,-113.1378 1502.8304,-119.9901"/>
</g>
<!-- Node1835 -->
<g id="node46" class="node">
<title>Node1835</title>
<g id="a_node46"><a xlink:href="../../d6/d84/3rd_party_2open62541_2open62541_8h.html#aa383452fe445bfae989358c9d7d96f4f" target="_top" xlink:title="strlen">
<polygon fill="#ffffff" stroke="#000000" points="1537,-171.5 1537,-190.5 1578,-190.5 1578,-171.5 1537,-171.5"/>
<text text-anchor="middle" x="1557.5" y="-178.5" font-family="Helvetica,sans-Serif" font-size="10.00" fill="#000000">strlen</text>
</a>
</g>
</g>
<!-- Node1832&#45;&gt;Node1835 -->
<g id="edge51" class="edge">
<title>Node1832&#45;&gt;Node1835</title>
<path fill="none" stroke="#191970" d="M1421.4263,-152.589C1454.4393,-159.4818 1498.0406,-168.5854 1526.8866,-174.6082"/>
<polygon fill="#191970" stroke="#191970" points="1526.2952,-178.0601 1536.7995,-176.6779 1527.7259,-171.2079 1526.2952,-178.0601"/>
</g>
<!-- Node1837 -->
<g id="node48" class="node">
<title>Node1837</title>
<g id="a_node48"><a xlink:href="../../d8/d28/_compiler_2boot_2build_2system_8h.html#a967ce96198372dc665f235bb728adb6f" target="_top" xlink:title="System_os">
<polygon fill="#ffffff" stroke="#000000" points="1342.5,-95.5 1342.5,-114.5 1408.5,-114.5 1408.5,-95.5 1342.5,-95.5"/>
<text text-anchor="middle" x="1375.5" y="-102.5" font-family="Helvetica,sans-Serif" font-size="10.00" fill="#000000">System_os</text>
</a>
</g>
</g>
<!-- Node1836&#45;&gt;Node1837 -->
<g id="edge53" class="edge">
<title>Node1836&#45;&gt;Node1837</title>
<path fill="none" stroke="#191970" d="M1232.5307,-105C1262.7512,-105 1302.3406,-105 1332.1953,-105"/>
<polygon fill="#191970" stroke="#191970" points="1332.318,-108.5001 1342.3179,-105 1332.3179,-101.5001 1332.318,-108.5001"/>
</g>
<!-- Node1839 -->
<g id="node50" class="node">
<title>Node1839</title>
<g id="a_node50"><a xlink:href="../../d3/db3/_flags_8c.html#a1bdc57ee7db1a86ebd954e1aa4d04c0c" target="_top" xlink:title="omc_Flags_getConfigString">
<polygon fill="#ffffff" stroke="#000000" points="1119,-171.5 1119,-190.5 1256,-190.5 1256,-171.5 1119,-171.5"/>
<text text-anchor="middle" x="1187.5" y="-178.5" font-family="Helvetica,sans-Serif" font-size="10.00" fill="#000000">omc_Flags_getConfigString</text>
</a>
</g>
</g>
<!-- Node1838&#45;&gt;Node1839 -->
<g id="edge55" class="edge">
<title>Node1838&#45;&gt;Node1839</title>
<path fill="none" stroke="#191970" d="M1038.4592,-152.54C1065.5454,-157.7122 1099.2075,-164.1401 1127.6835,-169.5778"/>
<polygon fill="#191970" stroke="#191970" points="1127.0412,-173.0183 1137.5202,-171.4561 1128.3542,-166.1425 1127.0412,-173.0183"/>
</g>
<!-- Node1839&#45;&gt;Node1819 -->
<g id="edge56" class="edge">
<title>Node1839&#45;&gt;Node1819</title>
<path fill="none" stroke="#191970" d="M1234.9403,-190.589C1260.3077,-195.7165 1291.7274,-202.0672 1318.4232,-207.4632"/>
<polygon fill="#191970" stroke="#191970" points="1317.9056,-210.9293 1328.4008,-209.4799 1319.2925,-204.068 1317.9056,-210.9293"/>
</g>
<!-- Node1840&#45;&gt;Node1818 -->
<g id="edge58" class="edge">
<title>Node1840&#45;&gt;Node1818</title>
<path fill="none" stroke="#191970" d="M1038.4592,-190.54C1065.5454,-195.7122 1099.2075,-202.1401 1127.6835,-207.5778"/>
<polygon fill="#191970" stroke="#191970" points="1127.0412,-211.0183 1137.5202,-209.4561 1128.3542,-204.1425 1127.0412,-211.0183"/>
</g>
</g>
</svg>
