<?xml version="1.0" encoding="UTF-8" standalone="no"?>
<!DOCTYPE svg PUBLIC "-//W3C//DTD SVG 1.1//EN"
 "http://www.w3.org/Graphics/SVG/1.1/DTD/svg11.dtd">
<!-- Generated by graphviz version 2.40.1 (20161225.0304)
 -->
<!-- Title: omc_Mod_isInvariantMod Pages: 1 -->
<svg width="1387pt" height="137pt"
 viewBox="0.00 0.00 1387.00 137.00" xmlns="http://www.w3.org/2000/svg" xmlns:xlink="http://www.w3.org/1999/xlink">
<g id="graph0" class="graph" transform="scale(1 1) rotate(0) translate(4 133)">
<title>omc_Mod_isInvariantMod</title>
<polygon fill="#ffffff" stroke="transparent" points="-4,4 -4,-133 1383,-133 1383,4 -4,4"/>
<!-- Node2504 -->
<g id="node1" class="node">
<title>Node2504</title>
<polygon fill="#bfbfbf" stroke="#000000" points="0,-74 0,-93 128,-93 128,-74 0,-74"/>
<text text-anchor="middle" x="64" y="-81" font-family="Helvetica,sans-Serif" font-size="10.00" fill="#000000">omc_Mod_isInvariantMod</text>
</g>
<!-- Node2504&#45;&gt;Node2504 -->
<g id="edge15" class="edge">
<title>Node2504&#45;&gt;Node2504</title>
<path fill="none" stroke="#191970" d="M39.0311,-93.2571C26.8841,-102.0653 35.207,-111.5 64,-111.5 83.3453,-111.5 93.4501,-107.241 94.3144,-101.7746"/>
<polygon fill="#191970" stroke="#191970" points="97.2492,-99.8667 88.9689,-93.2571 91.3201,-103.5877 97.2492,-99.8667"/>
</g>
<!-- Node2505 -->
<g id="node2" class="node">
<title>Node2505</title>
<g id="a_node2"><a xlink:href="../../d0/d78/_absyn_8c.html#a4e56ea0b5399f08689d164dcbe995886" target="_top" xlink:title="omc_Absyn_traverseExp">
<polygon fill="#ffffff" stroke="#000000" points="164,-74 164,-93 290,-93 290,-74 164,-74"/>
<text text-anchor="middle" x="227" y="-81" font-family="Helvetica,sans-Serif" font-size="10.00" fill="#000000">omc_Absyn_traverseExp</text>
</a>
</g>
</g>
<!-- Node2504&#45;&gt;Node2505 -->
<g id="edge1" class="edge">
<title>Node2504&#45;&gt;Node2505</title>
<path fill="none" stroke="#191970" d="M128.4219,-83.5C136.7095,-83.5 145.2438,-83.5 153.6608,-83.5"/>
<polygon fill="#191970" stroke="#191970" points="153.8451,-87.0001 163.8451,-83.5 153.8451,-80.0001 153.8451,-87.0001"/>
</g>
<!-- Node2506 -->
<g id="node3" class="node">
<title>Node2506</title>
<g id="a_node3"><a xlink:href="../../d0/d78/_absyn_8c.html#add896b000d61c35a4c46cdae7cc6b81a" target="_top" xlink:title="omc_Absyn_traverseExpBidir">
<polygon fill="#ffffff" stroke="#000000" points="326,-74 326,-93 472,-93 472,-74 326,-74"/>
<text text-anchor="middle" x="399" y="-81" font-family="Helvetica,sans-Serif" font-size="10.00" fill="#000000">omc_Absyn_traverseExpBidir</text>
</a>
</g>
</g>
<!-- Node2505&#45;&gt;Node2506 -->
<g id="edge2" class="edge">
<title>Node2505&#45;&gt;Node2506</title>
<path fill="none" stroke="#191970" d="M290.0698,-83.5C298.408,-83.5 307.0565,-83.5 315.6693,-83.5"/>
<polygon fill="#191970" stroke="#191970" points="315.7428,-87.0001 325.7428,-83.5 315.7428,-80.0001 315.7428,-87.0001"/>
</g>
<!-- Node2507 -->
<g id="node4" class="node">
<title>Node2507</title>
<g id="a_node4"><a xlink:href="../../d0/d78/_absyn_8c.html#abe7f9b3aa83ab4de1cb090df682e5fdc" target="_top" xlink:title="omc_Absyn_traverseExpBidir\lSubExps">
<polygon fill="#ffffff" stroke="#000000" points="508,-68.5 508,-98.5 654,-98.5 654,-68.5 508,-68.5"/>
<text text-anchor="start" x="516" y="-86.5" font-family="Helvetica,sans-Serif" font-size="10.00" fill="#000000">omc_Absyn_traverseExpBidir</text>
<text text-anchor="middle" x="581" y="-75.5" font-family="Helvetica,sans-Serif" font-size="10.00" fill="#000000">SubExps</text>
</a>
</g>
</g>
<!-- Node2506&#45;&gt;Node2507 -->
<g id="edge3" class="edge">
<title>Node2506&#45;&gt;Node2507</title>
<path fill="none" stroke="#191970" d="M472.2397,-83.5C480.5962,-83.5 489.1607,-83.5 497.6361,-83.5"/>
<polygon fill="#191970" stroke="#191970" points="497.9103,-87.0001 507.9103,-83.5 497.9102,-80.0001 497.9103,-87.0001"/>
</g>
<!-- Node2508 -->
<g id="node5" class="node">
<title>Node2508</title>
<g id="a_node5"><a xlink:href="../../d0/d78/_absyn_8c.html#a8a631828d351ac06cd8a7b6c92ba9970" target="_top" xlink:title="omc_Absyn_traverseExpBidirCref">
<polygon fill="#ffffff" stroke="#000000" points="690,-74 690,-93 854,-93 854,-74 690,-74"/>
<text text-anchor="middle" x="772" y="-81" font-family="Helvetica,sans-Serif" font-size="10.00" fill="#000000">omc_Absyn_traverseExpBidirCref</text>
</a>
</g>
</g>
<!-- Node2507&#45;&gt;Node2508 -->
<g id="edge4" class="edge">
<title>Node2507&#45;&gt;Node2508</title>
<path fill="none" stroke="#191970" d="M654.0265,-83.5C662.4284,-83.5 671.0765,-83.5 679.6898,-83.5"/>
<polygon fill="#191970" stroke="#191970" points="679.7685,-87.0001 689.7685,-83.5 679.7684,-80.0001 679.7685,-87.0001"/>
</g>
<!-- Node2508&#45;&gt;Node2508 -->
<g id="edge5" class="edge">
<title>Node2508&#45;&gt;Node2508</title>
<path fill="none" stroke="#191970" d="M742.7155,-93.2571C728.469,-102.0653 738.2305,-111.5 772,-111.5 795.7442,-111.5 807.6192,-106.8356 807.625,-101.0043"/>
<polygon fill="#191970" stroke="#191970" points="810.3266,-98.779 801.2845,-93.2571 804.9095,-103.2125 810.3266,-98.779"/>
</g>
<!-- Node2509 -->
<g id="node6" class="node">
<title>Node2509</title>
<g id="a_node6"><a xlink:href="../../d0/d78/_absyn_8c.html#aacd95a0f5b0b2f2bcfbe1927e6bd489e" target="_top" xlink:title="omc_Absyn_crefMakeFullyQualified">
<polygon fill="#ffffff" stroke="#000000" points="898.5,-93 898.5,-112 1071.5,-112 1071.5,-93 898.5,-93"/>
<text text-anchor="middle" x="985" y="-100" font-family="Helvetica,sans-Serif" font-size="10.00" fill="#000000">omc_Absyn_crefMakeFullyQualified</text>
</a>
</g>
</g>
<!-- Node2508&#45;&gt;Node2509 -->
<g id="edge6" class="edge">
<title>Node2508&#45;&gt;Node2509</title>
<path fill="none" stroke="#191970" d="M854.0467,-90.8187C865.2863,-91.8213 876.9099,-92.8582 888.3795,-93.8813"/>
<polygon fill="#191970" stroke="#191970" points="888.1341,-97.3732 898.4055,-94.7756 888.7561,-90.4009 888.1341,-97.3732"/>
</g>
<!-- Node2510 -->
<g id="node7" class="node">
<title>Node2510</title>
<g id="a_node7"><a xlink:href="../../da/d72/_compiler_2boot_2build_2list_8c.html#a620a57c2f9996057cbb8dcd1b183018f" target="_top" xlink:title="omc_List_map2FoldCheckReferenceEq">
<polygon fill="#ffffff" stroke="#000000" points="890,-55 890,-74 1080,-74 1080,-55 890,-55"/>
<text text-anchor="middle" x="985" y="-62" font-family="Helvetica,sans-Serif" font-size="10.00" fill="#000000">omc_List_map2FoldCheckReferenceEq</text>
</a>
</g>
</g>
<!-- Node2508&#45;&gt;Node2510 -->
<g id="edge7" class="edge">
<title>Node2508&#45;&gt;Node2510</title>
<path fill="none" stroke="#191970" d="M854.0467,-76.1813C862.4699,-75.4299 871.109,-74.6593 879.7371,-73.8896"/>
<polygon fill="#191970" stroke="#191970" points="880.1979,-77.3625 889.8473,-72.9878 879.5759,-70.3902 880.1979,-77.3625"/>
</g>
<!-- Node2511 -->
<g id="node8" class="node">
<title>Node2511</title>
<g id="a_node8"><a xlink:href="../../df/d56/_double_ended_list_8c.html#a5bd04948a6755a3b46a10804641c2a35" target="_top" xlink:title="omc_DoubleEndedList\l_empty">
<polygon fill="#ffffff" stroke="#000000" points="1116,-98.5 1116,-128.5 1231,-128.5 1231,-98.5 1116,-98.5"/>
<text text-anchor="start" x="1124" y="-116.5" font-family="Helvetica,sans-Serif" font-size="10.00" fill="#000000">omc_DoubleEndedList</text>
<text text-anchor="middle" x="1173.5" y="-105.5" font-family="Helvetica,sans-Serif" font-size="10.00" fill="#000000">_empty</text>
</a>
</g>
</g>
<!-- Node2510&#45;&gt;Node2511 -->
<g id="edge8" class="edge">
<title>Node2510&#45;&gt;Node2511</title>
<path fill="none" stroke="#191970" d="M1038.5013,-74.0987C1052.1056,-76.8406 1066.6502,-80.0352 1080,-83.5 1093.1493,-86.9128 1107.172,-91.1077 1120.2503,-95.2672"/>
<polygon fill="#191970" stroke="#191970" points="1119.4455,-98.6852 1130.0372,-98.4276 1121.5966,-92.0239 1119.4455,-98.6852"/>
</g>
<!-- Node2512 -->
<g id="node9" class="node">
<title>Node2512</title>
<g id="a_node9"><a xlink:href="../../df/d56/_double_ended_list_8c.html#afd49a883c63046b88cd3d060c51907f1" target="_top" xlink:title="omc_DoubleEndedList\l_push__back">
<polygon fill="#ffffff" stroke="#000000" points="1116,-.5 1116,-30.5 1231,-30.5 1231,-.5 1116,-.5"/>
<text text-anchor="start" x="1124" y="-18.5" font-family="Helvetica,sans-Serif" font-size="10.00" fill="#000000">omc_DoubleEndedList</text>
<text text-anchor="middle" x="1173.5" y="-7.5" font-family="Helvetica,sans-Serif" font-size="10.00" fill="#000000">_push__back</text>
</a>
</g>
</g>
<!-- Node2510&#45;&gt;Node2512 -->
<g id="edge9" class="edge">
<title>Node2510&#45;&gt;Node2512</title>
<path fill="none" stroke="#191970" d="M1021.7922,-54.936C1045.6569,-48.7324 1077.4692,-40.4629 1105.7977,-33.099"/>
<polygon fill="#191970" stroke="#191970" points="1106.8559,-36.4403 1115.6537,-30.537 1105.0948,-29.6655 1106.8559,-36.4403"/>
</g>
<!-- Node2515 -->
<g id="node12" class="node">
<title>Node2515</title>
<g id="a_node12"><a xlink:href="../../df/d56/_double_ended_list_8c.html#a29b31effb236408e896ba6e9191f1f31" target="_top" xlink:title="omc_DoubleEndedList\l_toListAndClear">
<polygon fill="#ffffff" stroke="#000000" points="1116,-49.5 1116,-79.5 1231,-79.5 1231,-49.5 1116,-49.5"/>
<text text-anchor="start" x="1124" y="-67.5" font-family="Helvetica,sans-Serif" font-size="10.00" fill="#000000">omc_DoubleEndedList</text>
<text text-anchor="middle" x="1173.5" y="-56.5" font-family="Helvetica,sans-Serif" font-size="10.00" fill="#000000">_toListAndClear</text>
</a>
</g>
</g>
<!-- Node2510&#45;&gt;Node2515 -->
<g id="edge12" class="edge">
<title>Node2510&#45;&gt;Node2515</title>
<path fill="none" stroke="#191970" d="M1080.0784,-64.5C1088.795,-64.5 1097.5022,-64.5 1105.9018,-64.5"/>
<polygon fill="#191970" stroke="#191970" points="1105.9747,-68.0001 1115.9747,-64.5 1105.9746,-61.0001 1105.9747,-68.0001"/>
</g>
<!-- Node2513 -->
<g id="node10" class="node">
<title>Node2513</title>
<g id="a_node10"><a xlink:href="../../d8/de3/_mutable_8c.html#a4d9367043438a5c1a24d17f1f9559996" target="_top" xlink:title="omc_Mutable_access">
<polygon fill="#ffffff" stroke="#000000" points="1267,-52 1267,-71 1379,-71 1379,-52 1267,-52"/>
<text text-anchor="middle" x="1323" y="-59" font-family="Helvetica,sans-Serif" font-size="10.00" fill="#000000">omc_Mutable_access</text>
</a>
</g>
</g>
<!-- Node2512&#45;&gt;Node2513 -->
<g id="edge10" class="edge">
<title>Node2512&#45;&gt;Node2513</title>
<path fill="none" stroke="#191970" d="M1222.4519,-30.5621C1241.7972,-36.5145 1263.7701,-43.2754 1282.2305,-48.9555"/>
<polygon fill="#191970" stroke="#191970" points="1281.2207,-52.3067 1291.8078,-51.9024 1283.2793,-45.6162 1281.2207,-52.3067"/>
</g>
<!-- Node2514 -->
<g id="node11" class="node">
<title>Node2514</title>
<g id="a_node11"><a xlink:href="../../d8/de3/_mutable_8c.html#a453a811f6b99a2c2625aa9e95c27cb2c" target="_top" xlink:title="omc_Mutable_update">
<polygon fill="#ffffff" stroke="#000000" points="1268,-11 1268,-30 1378,-30 1378,-11 1268,-11"/>
<text text-anchor="middle" x="1323" y="-18" font-family="Helvetica,sans-Serif" font-size="10.00" fill="#000000">omc_Mutable_update</text>
</a>
</g>
</g>
<!-- Node2512&#45;&gt;Node2514 -->
<g id="edge11" class="edge">
<title>Node2512&#45;&gt;Node2514</title>
<path fill="none" stroke="#191970" d="M1231.3006,-17.4331C1239.923,-17.7215 1248.8629,-18.0205 1257.6281,-18.3136"/>
<polygon fill="#191970" stroke="#191970" points="1257.6964,-21.8178 1267.8079,-18.6541 1257.9305,-14.8217 1257.6964,-21.8178"/>
</g>
<!-- Node2515&#45;&gt;Node2513 -->
<g id="edge13" class="edge">
<title>Node2515&#45;&gt;Node2513</title>
<path fill="none" stroke="#191970" d="M1231.3006,-63.3401C1239.5956,-63.1737 1248.1845,-63.0013 1256.629,-62.8319"/>
<polygon fill="#191970" stroke="#191970" points="1256.9005,-66.3272 1266.8282,-62.6272 1256.76,-59.3286 1256.9005,-66.3272"/>
</g>
<!-- Node2515&#45;&gt;Node2514 -->
<g id="edge14" class="edge">
<title>Node2515&#45;&gt;Node2514</title>
<path fill="none" stroke="#191970" d="M1224.5313,-49.4808C1242.7745,-44.1115 1263.1205,-38.1234 1280.5607,-32.9905"/>
<polygon fill="#191970" stroke="#191970" points="1281.8507,-36.2594 1290.4556,-30.0783 1279.8742,-29.5442 1281.8507,-36.2594"/>
</g>
</g>
</svg>
