<?xml version="1.0" encoding="UTF-8" standalone="no"?>
<!DOCTYPE svg PUBLIC "-//W3C//DTD SVG 1.1//EN"
 "http://www.w3.org/Graphics/SVG/1.1/DTD/svg11.dtd">
<!-- Generated by graphviz version 2.40.1 (20161225.0304)
 -->
<!-- Title: boost::numeric::bindings::detail::pretty_print Pages: 1 -->
<svg width="424pt" height="50pt"
 viewBox="0.00 0.00 424.00 50.00" xmlns="http://www.w3.org/2000/svg" xmlns:xlink="http://www.w3.org/1999/xlink">
<g id="graph0" class="graph" transform="scale(1 1) rotate(0) translate(4 46)">
<title>boost::numeric::bindings::detail::pretty_print</title>
<polygon fill="#ffffff" stroke="transparent" points="-4,4 -4,-46 420,-46 420,4 -4,4"/>
<!-- Node77 -->
<g id="node1" class="node">
<title>Node77</title>
<polygon fill="#bfbfbf" stroke="#000000" points="0,-6 0,-36 123,-36 123,-6 0,-6"/>
<text text-anchor="start" x="8" y="-24" font-family="Helvetica,sans-Serif" font-size="10.00" fill="#000000">boost::numeric::bindings</text>
<text text-anchor="middle" x="61.5" y="-13" font-family="Helvetica,sans-Serif" font-size="10.00" fill="#000000">::detail::pretty_print</text>
</g>
<!-- Node78 -->
<g id="node2" class="node">
<title>Node78</title>
<g id="a_node2"><a xlink:href="../../d2/dc6/io_8hpp.html#a1e24eb3cc1fc755dbdd6100c94208467" target="_top" xlink:title="operator\&lt;\&lt;">
<polygon fill="#ffffff" stroke="#000000" points="159,-11.5 159,-30.5 223,-30.5 223,-11.5 159,-11.5"/>
<text text-anchor="middle" x="191" y="-18.5" font-family="Helvetica,sans-Serif" font-size="10.00" fill="#000000">operator&lt;&lt;</text>
</a>
</g>
</g>
<!-- Node77&#45;&gt;Node78 -->
<g id="edge1" class="edge">
<title>Node77&#45;&gt;Node78</title>
<path fill="none" stroke="#191970" d="M133.3654,-21C142.3187,-21 151.0884,-21 158.9784,-21"/>
<polygon fill="#191970" stroke="#191970" points="133.2159,-17.5001 123.2158,-21 133.2158,-24.5001 133.2159,-17.5001"/>
</g>
<!-- Node79 -->
<g id="node3" class="node">
<title>Node79</title>
<g id="a_node3"><a xlink:href="../../d6/d93/structboost_1_1numeric_1_1bindings_1_1detail_1_1adaptable__type.html#abb4a29fea68b88fe6bbe2eeea26e8e7e" target="_top" xlink:title="boost::numeric::bindings\l::detail::adaptable_type\l\&lt; noop_wrapper\&lt; T \&gt; \&gt;::derived">
<polygon fill="#ffffff" stroke="#000000" points="259,-.5 259,-41.5 416,-41.5 416,-.5 259,-.5"/>
<text text-anchor="start" x="267" y="-29.5" font-family="Helvetica,sans-Serif" font-size="10.00" fill="#000000">boost::numeric::bindings</text>
<text text-anchor="start" x="267" y="-18.5" font-family="Helvetica,sans-Serif" font-size="10.00" fill="#000000">::detail::adaptable_type</text>
<text text-anchor="middle" x="337.5" y="-7.5" font-family="Helvetica,sans-Serif" font-size="10.00" fill="#000000">&lt; noop_wrapper&lt; T &gt; &gt;::derived</text>
</a>
</g>
</g>
<!-- Node78&#45;&gt;Node79 -->
<g id="edge2" class="edge">
<title>Node78&#45;&gt;Node79</title>
<path fill="none" stroke="#191970" d="M233.3664,-21C241.4388,-21 250.1238,-21 258.9119,-21"/>
<polygon fill="#191970" stroke="#191970" points="233.1501,-17.5001 223.15,-21 233.15,-24.5001 233.1501,-17.5001"/>
</g>
</g>
</svg>
