<?xml version="1.0" encoding="UTF-8" standalone="no"?>
<!DOCTYPE svg PUBLIC "-//W3C//DTD SVG 1.1//EN"
 "http://www.w3.org/Graphics/SVG/1.1/DTD/svg11.dtd">
<!-- Generated by graphviz version 2.40.1 (20161225.0304)
 -->
<!-- Title: omc_NFFunction_Function_fillArgs Pages: 1 -->
<svg width="292pt" height="116pt"
 viewBox="0.00 0.00 292.00 115.50" xmlns="http://www.w3.org/2000/svg" xmlns:xlink="http://www.w3.org/1999/xlink">
<g id="graph0" class="graph" transform="scale(1 1) rotate(0) translate(4 111.5)">
<title>omc_NFFunction_Function_fillArgs</title>
<polygon fill="#ffffff" stroke="transparent" points="-4,4 -4,-111.5 288,-111.5 288,4 -4,4"/>
<!-- Node1368 -->
<g id="node1" class="node">
<title>Node1368</title>
<polygon fill="#bfbfbf" stroke="#000000" points="0,-44.5 0,-74.5 134,-74.5 134,-44.5 0,-44.5"/>
<text text-anchor="start" x="8" y="-62.5" font-family="Helvetica,sans-Serif" font-size="10.00" fill="#000000">omc_NFFunction_Function</text>
<text text-anchor="middle" x="67" y="-51.5" font-family="Helvetica,sans-Serif" font-size="10.00" fill="#000000">_fillArgs</text>
</g>
<!-- Node1369 -->
<g id="node2" class="node">
<title>Node1369</title>
<g id="a_node2"><a xlink:href="../../d2/d57/build_2include_2omc_2c_2meta_2meta__modelica__builtin_8h.html#a6983369f3c3e3e8cc41ac483c9a9baf1" target="_top" xlink:title="listLength">
<polygon fill="#ffffff" stroke="#000000" points="197.5,-88 197.5,-107 256.5,-107 256.5,-88 197.5,-88"/>
<text text-anchor="middle" x="227" y="-95" font-family="Helvetica,sans-Serif" font-size="10.00" fill="#000000">listLength</text>
</a>
</g>
</g>
<!-- Node1368&#45;&gt;Node1369 -->
<g id="edge1" class="edge">
<title>Node1368&#45;&gt;Node1369</title>
<path fill="none" stroke="#191970" d="M130.2362,-74.5186C149.3329,-79.0541 169.764,-83.9064 186.9079,-87.9781"/>
<polygon fill="#191970" stroke="#191970" points="186.5782,-91.4971 197.1164,-90.4026 188.1958,-84.6866 186.5782,-91.4971"/>
</g>
<!-- Node1370 -->
<g id="node3" class="node">
<title>Node1370</title>
<g id="a_node3"><a xlink:href="../../d2/d57/build_2include_2omc_2c_2meta_2meta__modelica__builtin_8h.html#afa56df31f14136a84f1902b3da65bd73" target="_top" xlink:title="listArray">
<polygon fill="#ffffff" stroke="#000000" points="200.5,-50 200.5,-69 253.5,-69 253.5,-50 200.5,-50"/>
<text text-anchor="middle" x="227" y="-57" font-family="Helvetica,sans-Serif" font-size="10.00" fill="#000000">listArray</text>
</a>
</g>
</g>
<!-- Node1368&#45;&gt;Node1370 -->
<g id="edge2" class="edge">
<title>Node1368&#45;&gt;Node1370</title>
<path fill="none" stroke="#191970" d="M134.3907,-59.5C153.4465,-59.5 173.4814,-59.5 190.023,-59.5"/>
<polygon fill="#191970" stroke="#191970" points="190.3435,-63.0001 200.3434,-59.5 190.3434,-56.0001 190.3435,-63.0001"/>
</g>
<!-- Node1371 -->
<g id="node4" class="node">
<title>Node1371</title>
<g id="a_node4"><a xlink:href="../../d0/d18/_n_f_function_8c.html#a566de8edcdbaeca5fac65b5262283d6d" target="_top" xlink:title="omc_NFFunction_Slot\l_positional">
<polygon fill="#ffffff" stroke="#000000" points="170,-.5 170,-30.5 284,-30.5 284,-.5 170,-.5"/>
<text text-anchor="start" x="178" y="-18.5" font-family="Helvetica,sans-Serif" font-size="10.00" fill="#000000">omc_NFFunction_Slot</text>
<text text-anchor="middle" x="227" y="-7.5" font-family="Helvetica,sans-Serif" font-size="10.00" fill="#000000">_positional</text>
</a>
</g>
</g>
<!-- Node1368&#45;&gt;Node1371 -->
<g id="edge3" class="edge">
<title>Node1368&#45;&gt;Node1371</title>
<path fill="none" stroke="#191970" d="M121.6154,-44.4808C134.8008,-40.8548 149.0125,-36.9466 162.5997,-33.2101"/>
<polygon fill="#191970" stroke="#191970" points="163.6453,-36.5526 172.3593,-30.5262 161.7891,-29.8031 163.6453,-36.5526"/>
</g>
</g>
</svg>
