<?xml version="1.0" encoding="UTF-8" standalone="no"?>
<!DOCTYPE svg PUBLIC "-//W3C//DTD SVG 1.1//EN"
 "http://www.w3.org/Graphics/SVG/1.1/DTD/svg11.dtd">
<!-- Generated by graphviz version 2.40.1 (20161225.0304)
 -->
<!-- Title: omc_NFFunction_Function_typeRefCache Pages: 1 -->
<svg width="1283pt" height="722pt"
 viewBox="0.00 0.00 1283.00 722.00" xmlns="http://www.w3.org/2000/svg" xmlns:xlink="http://www.w3.org/1999/xlink">
<g id="graph0" class="graph" transform="scale(1 1) rotate(0) translate(4 718)">
<title>omc_NFFunction_Function_typeRefCache</title>
<polygon fill="#ffffff" stroke="transparent" points="-4,4 -4,-718 1279,-718 1279,4 -4,4"/>
<!-- Node4667 -->
<g id="node1" class="node">
<title>Node4667</title>
<polygon fill="#bfbfbf" stroke="#000000" points="0,-507.5 0,-537.5 134,-537.5 134,-507.5 0,-507.5"/>
<text text-anchor="start" x="8" y="-525.5" font-family="Helvetica,sans-Serif" font-size="10.00" fill="#000000">omc_NFFunction_Function</text>
<text text-anchor="middle" x="67" y="-514.5" font-family="Helvetica,sans-Serif" font-size="10.00" fill="#000000">_typeRefCache</text>
</g>
<!-- Node4668 -->
<g id="node2" class="node">
<title>Node4668</title>
<g id="a_node2"><a xlink:href="../../d4/db8/_n_f_builtin_call_8c.html#a4c769638ee6a5f0d1ae7f40ed1a3a988" target="_top" xlink:title="omc_NFBuiltinCall_typeSampleCall">
<polygon fill="#ffffff" stroke="#000000" points="384,-551 384,-570 557,-570 557,-551 384,-551"/>
<text text-anchor="middle" x="470.5" y="-558" font-family="Helvetica,sans-Serif" font-size="10.00" fill="#000000">omc_NFBuiltinCall_typeSampleCall</text>
</a>
</g>
</g>
<!-- Node4667&#45;&gt;Node4668 -->
<g id="edge1" class="edge">
<title>Node4667&#45;&gt;Node4668</title>
<path fill="none" stroke="#191970" d="M144.2583,-537.7794C152.9196,-539.186 161.6336,-540.4676 170,-541.5 241.7252,-550.3509 323.6201,-555.1834 383.7825,-557.7563"/>
<polygon fill="#191970" stroke="#191970" points="144.5807,-534.2845 134.1388,-536.0781 143.4201,-541.1877 144.5807,-534.2845"/>
</g>
<!-- Node4670 -->
<g id="node4" class="node">
<title>Node4670</title>
<g id="a_node4"><a xlink:href="../../d4/db8/_n_f_builtin_call_8c.html#a8a586b3456776071c37de6e330ee44e5" target="_top" xlink:title="omc_NFBuiltinCall_typeOverloaded\lStringCall">
<polygon fill="#ffffff" stroke="#000000" points="170,-614.5 170,-644.5 342,-644.5 342,-614.5 170,-614.5"/>
<text text-anchor="start" x="178" y="-632.5" font-family="Helvetica,sans-Serif" font-size="10.00" fill="#000000">omc_NFBuiltinCall_typeOverloaded</text>
<text text-anchor="middle" x="256" y="-621.5" font-family="Helvetica,sans-Serif" font-size="10.00" fill="#000000">StringCall</text>
</a>
</g>
</g>
<!-- Node4667&#45;&gt;Node4670 -->
<g id="edge3" class="edge">
<title>Node4667&#45;&gt;Node4670</title>
<path fill="none" stroke="#191970" d="M102.6029,-542.6561C139.499,-563.5444 196.3152,-595.7102 229.4575,-614.4733"/>
<polygon fill="#191970" stroke="#191970" points="104.1048,-539.4845 93.6782,-537.6035 100.6561,-545.576 104.1048,-539.4845"/>
</g>
<!-- Node4678 -->
<g id="node12" class="node">
<title>Node4678</title>
<g id="a_node12"><a xlink:href="../../d7/d14/_n_f_call_8h.html#ae1870ce03a18cbe01a3d28fefff3c63f" target="_top" xlink:title="omc_NFCall_Call_typeNormalCall">
<polygon fill="#ffffff" stroke="#000000" points="172.5,-513 172.5,-532 339.5,-532 339.5,-513 172.5,-513"/>
<text text-anchor="middle" x="256" y="-520" font-family="Helvetica,sans-Serif" font-size="10.00" fill="#000000">omc_NFCall_Call_typeNormalCall</text>
</a>
</g>
</g>
<!-- Node4667&#45;&gt;Node4678 -->
<g id="edge11" class="edge">
<title>Node4667&#45;&gt;Node4678</title>
<path fill="none" stroke="#191970" d="M144.3954,-522.5C153.5557,-522.5 162.9378,-522.5 172.1819,-522.5"/>
<polygon fill="#191970" stroke="#191970" points="144.1665,-519.0001 134.1665,-522.5 144.1665,-526.0001 144.1665,-519.0001"/>
</g>
<!-- Node4688 -->
<g id="node22" class="node">
<title>Node4688</title>
<g id="a_node22"><a xlink:href="../../d9/d01/_n_f_function_8h.html#a46609c46d29c9e28204feb5cf27bf9fc" target="_top" xlink:title="omc_NFFunction_Function\l_typePartialApplication">
<polygon fill="#ffffff" stroke="#000000" points="189,-414.5 189,-444.5 323,-444.5 323,-414.5 189,-414.5"/>
<text text-anchor="start" x="197" y="-432.5" font-family="Helvetica,sans-Serif" font-size="10.00" fill="#000000">omc_NFFunction_Function</text>
<text text-anchor="middle" x="256" y="-421.5" font-family="Helvetica,sans-Serif" font-size="10.00" fill="#000000">_typePartialApplication</text>
</a>
</g>
</g>
<!-- Node4667&#45;&gt;Node4688 -->
<g id="edge26" class="edge">
<title>Node4667&#45;&gt;Node4688</title>
<path fill="none" stroke="#191970" d="M106.8559,-502.8884C142.1611,-485.516 192.9688,-460.5154 225.2264,-444.6426"/>
<polygon fill="#191970" stroke="#191970" points="105.214,-499.7954 97.7868,-507.351 108.3046,-506.0762 105.214,-499.7954"/>
</g>
<!-- Node4690 -->
<g id="node24" class="node">
<title>Node4690</title>
<g id="a_node24"><a xlink:href="../../d1/da8/_n_f_operator_overloading_8h.html#a358cbe48a84dc80ea4b1ef24b5583d02" target="_top" xlink:title="omc_NFOperatorOverloading\l_lookupOperatorFunctionsInType">
<polygon fill="#ffffff" stroke="#000000" points="175.5,-221.5 175.5,-251.5 336.5,-251.5 336.5,-221.5 175.5,-221.5"/>
<text text-anchor="start" x="183.5" y="-239.5" font-family="Helvetica,sans-Serif" font-size="10.00" fill="#000000">omc_NFOperatorOverloading</text>
<text text-anchor="middle" x="256" y="-228.5" font-family="Helvetica,sans-Serif" font-size="10.00" fill="#000000">_lookupOperatorFunctionsInType</text>
</a>
</g>
</g>
<!-- Node4667&#45;&gt;Node4690 -->
<g id="edge28" class="edge">
<title>Node4667&#45;&gt;Node4690</title>
<path fill="none" stroke="#191970" d="M82.699,-498.7439C120.3666,-441.7442 215.0389,-298.4835 246.0177,-251.6055"/>
<polygon fill="#191970" stroke="#191970" points="79.7548,-496.8508 77.1615,-507.1234 85.5948,-500.7102 79.7548,-496.8508"/>
</g>
<!-- Node4669 -->
<g id="node3" class="node">
<title>Node4669</title>
<g id="a_node3"><a xlink:href="../../d4/db8/_n_f_builtin_call_8c.html#a71a195fedb1dc85784991acc675eb685" target="_top" xlink:title="boxptr_NFBuiltinCall\l_typeSampleCall">
<polygon fill="#ffffff" stroke="#000000" points="633.5,-595.5 633.5,-625.5 740.5,-625.5 740.5,-595.5 633.5,-595.5"/>
<text text-anchor="start" x="641.5" y="-613.5" font-family="Helvetica,sans-Serif" font-size="10.00" fill="#000000">boxptr_NFBuiltinCall</text>
<text text-anchor="middle" x="687" y="-602.5" font-family="Helvetica,sans-Serif" font-size="10.00" fill="#000000">_typeSampleCall</text>
</a>
</g>
</g>
<!-- Node4668&#45;&gt;Node4669 -->
<g id="edge2" class="edge">
<title>Node4668&#45;&gt;Node4669</title>
<path fill="none" stroke="#191970" d="M521.7998,-572.3475C555.3698,-580.1004 599.1561,-590.2127 633.2148,-598.0785"/>
<polygon fill="#191970" stroke="#191970" points="522.2627,-568.8624 511.7316,-570.0223 520.6875,-575.6829 522.2627,-568.8624"/>
</g>
<!-- Node4671 -->
<g id="node5" class="node">
<title>Node4671</title>
<g id="a_node5"><a xlink:href="../../d4/db8/_n_f_builtin_call_8c.html#a7d74cf2146fadf286adcb5b0f9df208e" target="_top" xlink:title="boxptr_NFBuiltinCall\l_typeOverloadedStringCall">
<polygon fill="#ffffff" stroke="#000000" points="404,-658.5 404,-688.5 537,-688.5 537,-658.5 404,-658.5"/>
<text text-anchor="start" x="412" y="-676.5" font-family="Helvetica,sans-Serif" font-size="10.00" fill="#000000">boxptr_NFBuiltinCall</text>
<text text-anchor="middle" x="470.5" y="-665.5" font-family="Helvetica,sans-Serif" font-size="10.00" fill="#000000">_typeOverloadedStringCall</text>
</a>
</g>
</g>
<!-- Node4670&#45;&gt;Node4671 -->
<g id="edge4" class="edge">
<title>Node4670&#45;&gt;Node4671</title>
<path fill="none" stroke="#191970" d="M339.2544,-646.5778C360.6193,-650.9604 383.3233,-655.6176 403.7345,-659.8045"/>
<polygon fill="#191970" stroke="#191970" points="339.7182,-643.1001 329.2188,-644.5192 338.3115,-649.9574 339.7182,-643.1001"/>
</g>
<!-- Node4672 -->
<g id="node6" class="node">
<title>Node4672</title>
<g id="a_node6"><a xlink:href="../../d4/db8/_n_f_builtin_call_8c.html#a52631f9371ed170f281e4f5d4d6f6078" target="_top" xlink:title="omc_NFBuiltinCall_typeStringCall">
<polygon fill="#ffffff" stroke="#000000" points="388,-620 388,-639 553,-639 553,-620 388,-620"/>
<text text-anchor="middle" x="470.5" y="-627" font-family="Helvetica,sans-Serif" font-size="10.00" fill="#000000">omc_NFBuiltinCall_typeStringCall</text>
</a>
</g>
</g>
<!-- Node4670&#45;&gt;Node4672 -->
<g id="edge5" class="edge">
<title>Node4670&#45;&gt;Node4672</title>
<path fill="none" stroke="#191970" d="M352.0241,-629.5C364.0153,-629.5 376.1958,-629.5 387.957,-629.5"/>
<polygon fill="#191970" stroke="#191970" points="352.0095,-626.0001 342.0094,-629.5 352.0094,-633.0001 352.0095,-626.0001"/>
</g>
<!-- Node4673 -->
<g id="node7" class="node">
<title>Node4673</title>
<g id="a_node7"><a xlink:href="../../d4/db8/_n_f_builtin_call_8c.html#a41a01e063e4c5d9db26a2d407d10260e" target="_top" xlink:title="boxptr_NFBuiltinCall\l_typeStringCall">
<polygon fill="#ffffff" stroke="#000000" points="633.5,-683.5 633.5,-713.5 740.5,-713.5 740.5,-683.5 633.5,-683.5"/>
<text text-anchor="start" x="641.5" y="-701.5" font-family="Helvetica,sans-Serif" font-size="10.00" fill="#000000">boxptr_NFBuiltinCall</text>
<text text-anchor="middle" x="687" y="-690.5" font-family="Helvetica,sans-Serif" font-size="10.00" fill="#000000">_typeStringCall</text>
</a>
</g>
</g>
<!-- Node4672&#45;&gt;Node4673 -->
<g id="edge6" class="edge">
<title>Node4672&#45;&gt;Node4673</title>
<path fill="none" stroke="#191970" d="M536.2839,-641.398C545.3711,-643.713 554.497,-646.4031 563,-649.5 579.9993,-655.6914 582.3868,-661.3368 599,-668.5 611.5988,-673.9322 625.5327,-679.0645 638.5262,-683.4971"/>
<polygon fill="#191970" stroke="#191970" points="537.0117,-637.9733 526.4698,-639.0318 535.3709,-644.7783 537.0117,-637.9733"/>
</g>
<!-- Node4674 -->
<g id="node8" class="node">
<title>Node4674</title>
<g id="a_node8"><a xlink:href="../../d5/d7b/_n_f_builtin_call_8h.html#a87938137e01e27b7efc6656786f41899" target="_top" xlink:title="omc_NFBuiltinCall_typeSpecial">
<polygon fill="#ffffff" stroke="#000000" points="811,-538 811,-557 966,-557 966,-538 811,-538"/>
<text text-anchor="middle" x="888.5" y="-545" font-family="Helvetica,sans-Serif" font-size="10.00" fill="#000000">omc_NFBuiltinCall_typeSpecial</text>
</a>
</g>
</g>
<!-- Node4672&#45;&gt;Node4674 -->
<g id="edge7" class="edge">
<title>Node4672&#45;&gt;Node4674</title>
<path fill="none" stroke="#191970" d="M521.6738,-640.924C583.5401,-652.4053 689.9387,-664.6126 775,-635.5 821.2371,-619.6751 863.2052,-576.4981 880.3379,-557.1282"/>
<polygon fill="#191970" stroke="#191970" points="522.2476,-637.4703 511.7668,-639.0204 520.9268,-644.3445 522.2476,-637.4703"/>
</g>
<!-- Node4675 -->
<g id="node9" class="node">
<title>Node4675</title>
<g id="a_node9"><a xlink:href="../../d5/d7b/_n_f_builtin_call_8h.html#aff0583d9e82d2e76511eaf5b4e06e015" target="_top" xlink:title="boxptr_NFBuiltinCall\l_typeSpecial">
<polygon fill="#ffffff" stroke="#000000" points="1016,-532.5 1016,-562.5 1123,-562.5 1123,-532.5 1016,-532.5"/>
<text text-anchor="start" x="1024" y="-550.5" font-family="Helvetica,sans-Serif" font-size="10.00" fill="#000000">boxptr_NFBuiltinCall</text>
<text text-anchor="middle" x="1069.5" y="-539.5" font-family="Helvetica,sans-Serif" font-size="10.00" fill="#000000">_typeSpecial</text>
</a>
</g>
</g>
<!-- Node4674&#45;&gt;Node4675 -->
<g id="edge8" class="edge">
<title>Node4674&#45;&gt;Node4675</title>
<path fill="none" stroke="#191970" d="M976.3354,-547.5C989.8344,-547.5 1003.4126,-547.5 1015.8671,-547.5"/>
<polygon fill="#191970" stroke="#191970" points="976.048,-544.0001 966.048,-547.5 976.0479,-551.0001 976.048,-544.0001"/>
</g>
<!-- Node4676 -->
<g id="node10" class="node">
<title>Node4676</title>
<g id="a_node10"><a xlink:href="../../d7/d14/_n_f_call_8h.html#aa5b65d0141596278de2e163eccdb740d" target="_top" xlink:title="omc_NFCall_Call_typeCall">
<polygon fill="#ffffff" stroke="#000000" points="1002,-463 1002,-482 1137,-482 1137,-463 1002,-463"/>
<text text-anchor="middle" x="1069.5" y="-470" font-family="Helvetica,sans-Serif" font-size="10.00" fill="#000000">omc_NFCall_Call_typeCall</text>
</a>
</g>
</g>
<!-- Node4674&#45;&gt;Node4676 -->
<g id="edge9" class="edge">
<title>Node4674&#45;&gt;Node4676</title>
<path fill="none" stroke="#191970" d="M921.3849,-533.8737C957.5025,-518.9078 1014.5773,-495.258 1046.2974,-482.1144"/>
<polygon fill="#191970" stroke="#191970" points="919.6905,-530.7871 911.792,-537.8486 922.3702,-537.2539 919.6905,-530.7871"/>
</g>
<!-- Node4677 -->
<g id="node11" class="node">
<title>Node4677</title>
<g id="a_node11"><a xlink:href="../../d7/d14/_n_f_call_8h.html#a9c7ba01639335a2ccd604dd4e5afa968" target="_top" xlink:title="boxptr_NFCall_Call\l_typeCall">
<polygon fill="#ffffff" stroke="#000000" points="1173,-457.5 1173,-487.5 1275,-487.5 1275,-457.5 1173,-457.5"/>
<text text-anchor="start" x="1181" y="-475.5" font-family="Helvetica,sans-Serif" font-size="10.00" fill="#000000">boxptr_NFCall_Call</text>
<text text-anchor="middle" x="1224" y="-464.5" font-family="Helvetica,sans-Serif" font-size="10.00" fill="#000000">_typeCall</text>
</a>
</g>
</g>
<!-- Node4676&#45;&gt;Node4677 -->
<g id="edge10" class="edge">
<title>Node4676&#45;&gt;Node4677</title>
<path fill="none" stroke="#191970" d="M1147.3002,-472.5C1155.8658,-472.5 1164.4224,-472.5 1172.5487,-472.5"/>
<polygon fill="#191970" stroke="#191970" points="1147.266,-469.0001 1137.2659,-472.5 1147.2659,-476.0001 1147.266,-469.0001"/>
</g>
<!-- Node4678&#45;&gt;Node4668 -->
<g id="edge12" class="edge">
<title>Node4678&#45;&gt;Node4668</title>
<path fill="none" stroke="#191970" d="M320.0506,-533.847C350.8264,-539.2991 387.3003,-545.7607 416.6273,-550.9561"/>
<polygon fill="#191970" stroke="#191970" points="320.3078,-530.3381 309.8505,-532.04 319.0866,-537.2308 320.3078,-530.3381"/>
</g>
<!-- Node4678&#45;&gt;Node4672 -->
<g id="edge16" class="edge">
<title>Node4678&#45;&gt;Node4672</title>
<path fill="none" stroke="#191970" d="M284.505,-536.7193C328.9031,-558.8666 413.4001,-601.0166 451.2847,-619.9147"/>
<polygon fill="#191970" stroke="#191970" points="285.9246,-533.5161 275.4138,-532.1843 282.7999,-539.7801 285.9246,-533.5161"/>
</g>
<!-- Node4679 -->
<g id="node13" class="node">
<title>Node4679</title>
<g id="a_node13"><a xlink:href="../../d4/db8/_n_f_builtin_call_8c.html#a4c461d7a19d544b151fbbbc6ef7853dc" target="_top" xlink:title="omc_NFBuiltinCall_typeEdgeCall">
<polygon fill="#ffffff" stroke="#000000" points="389.5,-513 389.5,-532 551.5,-532 551.5,-513 389.5,-513"/>
<text text-anchor="middle" x="470.5" y="-520" font-family="Helvetica,sans-Serif" font-size="10.00" fill="#000000">omc_NFBuiltinCall_typeEdgeCall</text>
</a>
</g>
</g>
<!-- Node4678&#45;&gt;Node4679 -->
<g id="edge13" class="edge">
<title>Node4678&#45;&gt;Node4679</title>
<path fill="none" stroke="#191970" d="M349.5915,-522.5C362.8183,-522.5 376.3267,-522.5 389.2945,-522.5"/>
<polygon fill="#191970" stroke="#191970" points="349.5455,-519.0001 339.5455,-522.5 349.5455,-526.0001 349.5455,-519.0001"/>
</g>
<!-- Node4681 -->
<g id="node15" class="node">
<title>Node4681</title>
<g id="a_node15"><a xlink:href="../../d7/d14/_n_f_call_8h.html#a7866bd0966af74a7541b72a052ee4f43" target="_top" xlink:title="omc_NFCall_Call_typeMatch\lNormalCall">
<polygon fill="#ffffff" stroke="#000000" points="398,-463.5 398,-493.5 543,-493.5 543,-463.5 398,-463.5"/>
<text text-anchor="start" x="406" y="-481.5" font-family="Helvetica,sans-Serif" font-size="10.00" fill="#000000">omc_NFCall_Call_typeMatch</text>
<text text-anchor="middle" x="470.5" y="-470.5" font-family="Helvetica,sans-Serif" font-size="10.00" fill="#000000">NormalCall</text>
</a>
</g>
</g>
<!-- Node4678&#45;&gt;Node4681 -->
<g id="edge17" class="edge">
<title>Node4678&#45;&gt;Node4681</title>
<path fill="none" stroke="#191970" d="M312.6482,-510.8798C338.7632,-505.5229 370.0711,-499.1008 397.8941,-493.3935"/>
<polygon fill="#191970" stroke="#191970" points="311.636,-507.5145 302.5433,-512.9527 313.0427,-514.3717 311.636,-507.5145"/>
</g>
<!-- Node4687 -->
<g id="node21" class="node">
<title>Node4687</title>
<g id="a_node21"><a xlink:href="../../d7/d14/_n_f_call_8h.html#ace88c9303131fe59773bb53be3273ba9" target="_top" xlink:title="boxptr_NFCall_Call\l_typeNormalCall">
<polygon fill="#ffffff" stroke="#000000" points="419.5,-414.5 419.5,-444.5 521.5,-444.5 521.5,-414.5 419.5,-414.5"/>
<text text-anchor="start" x="427.5" y="-432.5" font-family="Helvetica,sans-Serif" font-size="10.00" fill="#000000">boxptr_NFCall_Call</text>
<text text-anchor="middle" x="470.5" y="-421.5" font-family="Helvetica,sans-Serif" font-size="10.00" fill="#000000">_typeNormalCall</text>
</a>
</g>
</g>
<!-- Node4678&#45;&gt;Node4687 -->
<g id="edge25" class="edge">
<title>Node4678&#45;&gt;Node4687</title>
<path fill="none" stroke="#191970" d="M279.1386,-507.3402C303.0642,-492.2162 341.9095,-469.1762 378,-454.5 391.0983,-449.1735 405.6962,-444.6281 419.3538,-440.9322"/>
<polygon fill="#191970" stroke="#191970" points="276.977,-504.5681 270.4408,-512.9064 280.7503,-510.4641 276.977,-504.5681"/>
</g>
<!-- Node4679&#45;&gt;Node4674 -->
<g id="edge15" class="edge">
<title>Node4679&#45;&gt;Node4674</title>
<path fill="none" stroke="#191970" d="M526.9863,-534.0086C557.9674,-540.2273 591.5747,-546.7844 599,-547.5 670.5409,-554.3946 752.489,-553.5866 810.8949,-551.53"/>
<polygon fill="#191970" stroke="#191970" points="527.5505,-530.552 517.0563,-532.0092 526.1687,-537.4143 527.5505,-530.552"/>
</g>
<!-- Node4680 -->
<g id="node14" class="node">
<title>Node4680</title>
<g id="a_node14"><a xlink:href="../../d4/db8/_n_f_builtin_call_8c.html#a64dda53a0183da240dfa0e7eb2a0b9f1" target="_top" xlink:title="boxptr_NFBuiltinCall\l_typeEdgeCall">
<polygon fill="#ffffff" stroke="#000000" points="633.5,-507.5 633.5,-537.5 740.5,-537.5 740.5,-507.5 633.5,-507.5"/>
<text text-anchor="start" x="641.5" y="-525.5" font-family="Helvetica,sans-Serif" font-size="10.00" fill="#000000">boxptr_NFBuiltinCall</text>
<text text-anchor="middle" x="687" y="-514.5" font-family="Helvetica,sans-Serif" font-size="10.00" fill="#000000">_typeEdgeCall</text>
</a>
</g>
</g>
<!-- Node4679&#45;&gt;Node4680 -->
<g id="edge14" class="edge">
<title>Node4679&#45;&gt;Node4680</title>
<path fill="none" stroke="#191970" d="M562.046,-522.5C586.3087,-522.5 611.7186,-522.5 633.2409,-522.5"/>
<polygon fill="#191970" stroke="#191970" points="561.7326,-519.0001 551.7326,-522.5 561.7325,-526.0001 561.7326,-519.0001"/>
</g>
<!-- Node4681&#45;&gt;Node4676 -->
<g id="edge24" class="edge">
<title>Node4681&#45;&gt;Node4676</title>
<path fill="none" stroke="#191970" d="M552.9437,-464.4829C568.2126,-462.4073 584.0559,-460.5988 599,-459.5 761.6725,-447.5386 803.185,-450.6653 966,-460.5 977.6463,-461.2035 989.9941,-462.3142 1001.9507,-463.5824"/>
<polygon fill="#191970" stroke="#191970" points="552.4229,-461.0216 543.008,-465.8806 553.3981,-467.9533 552.4229,-461.0216"/>
</g>
<!-- Node4682 -->
<g id="node16" class="node">
<title>Node4682</title>
<g id="a_node16"><a xlink:href="../../d4/db8/_n_f_builtin_call_8c.html#aefcad459205a72f007900925de067c30" target="_top" xlink:title="omc_NFBuiltinCall_typeClockCall">
<polygon fill="#ffffff" stroke="#000000" points="604.5,-393 604.5,-412 769.5,-412 769.5,-393 604.5,-393"/>
<text text-anchor="middle" x="687" y="-400" font-family="Helvetica,sans-Serif" font-size="10.00" fill="#000000">omc_NFBuiltinCall_typeClockCall</text>
</a>
</g>
</g>
<!-- Node4681&#45;&gt;Node4682 -->
<g id="edge18" class="edge">
<title>Node4681&#45;&gt;Node4682</title>
<path fill="none" stroke="#191970" d="M551.0193,-459.7823C555.1306,-458.1539 559.1485,-456.396 563,-454.5 581.1857,-445.5476 580.8702,-435.5649 599,-426.5 611.3226,-420.3387 625.4332,-415.5933 638.6932,-412.013"/>
<polygon fill="#191970" stroke="#191970" points="549.4741,-456.621 541.2911,-463.3507 551.8847,-463.1928 549.4741,-456.621"/>
</g>
<!-- Node4684 -->
<g id="node18" class="node">
<title>Node4684</title>
<g id="a_node18"><a xlink:href="../../d4/db8/_n_f_builtin_call_8c.html#a5f566cd655f2804cb5303f459c2a3464" target="_top" xlink:title="omc_NFBuiltinCall_typeDiscreteCall">
<polygon fill="#ffffff" stroke="#000000" points="599,-469 599,-488 775,-488 775,-469 599,-469"/>
<text text-anchor="middle" x="687" y="-476" font-family="Helvetica,sans-Serif" font-size="10.00" fill="#000000">omc_NFBuiltinCall_typeDiscreteCall</text>
</a>
</g>
</g>
<!-- Node4681&#45;&gt;Node4684 -->
<g id="edge20" class="edge">
<title>Node4681&#45;&gt;Node4684</title>
<path fill="none" stroke="#191970" d="M553.3506,-478.5C568.1991,-478.5 583.7233,-478.5 598.718,-478.5"/>
<polygon fill="#191970" stroke="#191970" points="553.1937,-475.0001 543.1936,-478.5 553.1936,-482.0001 553.1937,-475.0001"/>
</g>
<!-- Node4686 -->
<g id="node20" class="node">
<title>Node4686</title>
<g id="a_node20"><a xlink:href="../../d7/d14/_n_f_call_8h.html#ad549a033b78bb1a9b822629c87f1a746" target="_top" xlink:title="boxptr_NFCall_Call\l_typeMatchNormalCall">
<polygon fill="#ffffff" stroke="#000000" points="629,-343.5 629,-373.5 745,-373.5 745,-343.5 629,-343.5"/>
<text text-anchor="start" x="637" y="-361.5" font-family="Helvetica,sans-Serif" font-size="10.00" fill="#000000">boxptr_NFCall_Call</text>
<text text-anchor="middle" x="687" y="-350.5" font-family="Helvetica,sans-Serif" font-size="10.00" fill="#000000">_typeMatchNormalCall</text>
</a>
</g>
</g>
<!-- Node4681&#45;&gt;Node4686 -->
<g id="edge23" class="edge">
<title>Node4681&#45;&gt;Node4686</title>
<path fill="none" stroke="#191970" d="M552.249,-461.711C556.0426,-459.5843 559.6558,-457.1916 563,-454.5 590.5618,-432.3167 571.6944,-405.998 599,-383.5 607.5803,-376.4304 618.0479,-371.3578 628.7291,-367.7186"/>
<polygon fill="#191970" stroke="#191970" points="550.5396,-458.6513 543.1115,-466.2061 553.6295,-464.9324 550.5396,-458.6513"/>
</g>
<!-- Node4683 -->
<g id="node17" class="node">
<title>Node4683</title>
<g id="a_node17"><a xlink:href="../../d4/db8/_n_f_builtin_call_8c.html#adf4e128a78a181b54be867c4b0c0b038" target="_top" xlink:title="boxptr_NFBuiltinCall\l_typeClockCall">
<polygon fill="#ffffff" stroke="#000000" points="835,-381.5 835,-411.5 942,-411.5 942,-381.5 835,-381.5"/>
<text text-anchor="start" x="843" y="-399.5" font-family="Helvetica,sans-Serif" font-size="10.00" fill="#000000">boxptr_NFBuiltinCall</text>
<text text-anchor="middle" x="888.5" y="-388.5" font-family="Helvetica,sans-Serif" font-size="10.00" fill="#000000">_typeClockCall</text>
</a>
</g>
</g>
<!-- Node4682&#45;&gt;Node4683 -->
<g id="edge19" class="edge">
<title>Node4682&#45;&gt;Node4683</title>
<path fill="none" stroke="#191970" d="M779.691,-399.74C798.6172,-399.1764 817.9251,-398.6015 834.9203,-398.0954"/>
<polygon fill="#191970" stroke="#191970" points="779.4305,-396.2461 769.5392,-400.0423 779.6389,-403.243 779.4305,-396.2461"/>
</g>
<!-- Node4684&#45;&gt;Node4674 -->
<g id="edge22" class="edge">
<title>Node4684&#45;&gt;Node4674</title>
<path fill="none" stroke="#191970" d="M746.2938,-490.4023C755.9702,-492.7936 765.8251,-495.5052 775,-498.5 809.0735,-509.6221 846.9919,-527.0854 869.2388,-537.8836"/>
<polygon fill="#191970" stroke="#191970" points="746.8492,-486.9368 736.3107,-488.0278 745.2294,-493.7468 746.8492,-486.9368"/>
</g>
<!-- Node4685 -->
<g id="node19" class="node">
<title>Node4685</title>
<g id="a_node19"><a xlink:href="../../d4/db8/_n_f_builtin_call_8c.html#aadd3ef4d08f20e872f12982e8ef30cef" target="_top" xlink:title="boxptr_NFBuiltinCall\l_typeDiscreteCall">
<polygon fill="#ffffff" stroke="#000000" points="835,-469.5 835,-499.5 942,-499.5 942,-469.5 835,-469.5"/>
<text text-anchor="start" x="843" y="-487.5" font-family="Helvetica,sans-Serif" font-size="10.00" fill="#000000">boxptr_NFBuiltinCall</text>
<text text-anchor="middle" x="888.5" y="-476.5" font-family="Helvetica,sans-Serif" font-size="10.00" fill="#000000">_typeDiscreteCall</text>
</a>
</g>
</g>
<!-- Node4684&#45;&gt;Node4685 -->
<g id="edge21" class="edge">
<title>Node4684&#45;&gt;Node4685</title>
<path fill="none" stroke="#191970" d="M785.1367,-481.4222C802.2492,-481.9317 819.4623,-482.4443 834.7995,-482.901"/>
<polygon fill="#191970" stroke="#191970" points="785.1875,-477.9222 775.0877,-481.123 784.9791,-484.9191 785.1875,-477.9222"/>
</g>
<!-- Node4689 -->
<g id="node23" class="node">
<title>Node4689</title>
<g id="a_node23"><a xlink:href="../../d9/d01/_n_f_function_8h.html#a7b079223a070233ed2837860639fe08c" target="_top" xlink:title="boxptr_NFFunction_Function\l_typePartialApplication">
<polygon fill="#ffffff" stroke="#000000" points="399,-365.5 399,-395.5 542,-395.5 542,-365.5 399,-365.5"/>
<text text-anchor="start" x="407" y="-383.5" font-family="Helvetica,sans-Serif" font-size="10.00" fill="#000000">boxptr_NFFunction_Function</text>
<text text-anchor="middle" x="470.5" y="-372.5" font-family="Helvetica,sans-Serif" font-size="10.00" fill="#000000">_typePartialApplication</text>
</a>
</g>
</g>
<!-- Node4688&#45;&gt;Node4689 -->
<g id="edge27" class="edge">
<title>Node4688&#45;&gt;Node4689</title>
<path fill="none" stroke="#191970" d="M331.8671,-412.1691C355.6819,-406.7288 381.7605,-400.7715 404.8097,-395.5062"/>
<polygon fill="#191970" stroke="#191970" points="330.7842,-408.8262 321.8148,-414.4654 332.3431,-415.6504 330.7842,-408.8262"/>
</g>
<!-- Node4691 -->
<g id="node25" class="node">
<title>Node4691</title>
<g id="a_node25"><a xlink:href="../../d4/d91/_n_f_type_check_8h.html#a1d24c7dd9e1de18d962220e7f480f6da" target="_top" xlink:title="omc_NFTypeCheck_checkOverloaded\lUnaryOperator">
<polygon fill="#ffffff" stroke="#000000" points="378,-74.5 378,-104.5 563,-104.5 563,-74.5 378,-74.5"/>
<text text-anchor="start" x="386" y="-92.5" font-family="Helvetica,sans-Serif" font-size="10.00" fill="#000000">omc_NFTypeCheck_checkOverloaded</text>
<text text-anchor="middle" x="470.5" y="-81.5" font-family="Helvetica,sans-Serif" font-size="10.00" fill="#000000">UnaryOperator</text>
</a>
</g>
</g>
<!-- Node4690&#45;&gt;Node4691 -->
<g id="edge29" class="edge">
<title>Node4690&#45;&gt;Node4691</title>
<path fill="none" stroke="#191970" d="M286.3997,-215.6666C330.1741,-185.6674 409.9241,-131.0135 448.4731,-104.5953"/>
<polygon fill="#191970" stroke="#191970" points="284.4176,-212.7819 278.1474,-221.3221 288.3748,-218.5561 284.4176,-212.7819"/>
</g>
<!-- Node4697 -->
<g id="node31" class="node">
<title>Node4697</title>
<g id="a_node31"><a xlink:href="../../d4/d91/_n_f_type_check_8h.html#a872db3be252e3fb61d2a86cccf4c5af3" target="_top" xlink:title="omc_NFTypeCheck_checkOverloaded\lBinaryOperator">
<polygon fill="#ffffff" stroke="#000000" points="378,-221.5 378,-251.5 563,-251.5 563,-221.5 378,-221.5"/>
<text text-anchor="start" x="386" y="-239.5" font-family="Helvetica,sans-Serif" font-size="10.00" fill="#000000">omc_NFTypeCheck_checkOverloaded</text>
<text text-anchor="middle" x="470.5" y="-228.5" font-family="Helvetica,sans-Serif" font-size="10.00" fill="#000000">BinaryOperator</text>
</a>
</g>
</g>
<!-- Node4690&#45;&gt;Node4697 -->
<g id="edge35" class="edge">
<title>Node4690&#45;&gt;Node4697</title>
<path fill="none" stroke="#191970" d="M346.9486,-236.5C357.1917,-236.5 367.6378,-236.5 377.9015,-236.5"/>
<polygon fill="#191970" stroke="#191970" points="346.7876,-233.0001 336.7876,-236.5 346.7876,-240.0001 346.7876,-233.0001"/>
</g>
<!-- Node4692 -->
<g id="node26" class="node">
<title>Node4692</title>
<g id="a_node26"><a xlink:href="../../d4/d91/_n_f_type_check_8h.html#a27b3edf89e399ec5082dea8e560ff105" target="_top" xlink:title="omc_NFTypeCheck_checkLogical\lUnaryOperation">
<polygon fill="#ffffff" stroke="#000000" points="603.5,-49.5 603.5,-79.5 770.5,-79.5 770.5,-49.5 603.5,-49.5"/>
<text text-anchor="start" x="611.5" y="-67.5" font-family="Helvetica,sans-Serif" font-size="10.00" fill="#000000">omc_NFTypeCheck_checkLogical</text>
<text text-anchor="middle" x="687" y="-56.5" font-family="Helvetica,sans-Serif" font-size="10.00" fill="#000000">UnaryOperation</text>
</a>
</g>
</g>
<!-- Node4691&#45;&gt;Node4692 -->
<g id="edge30" class="edge">
<title>Node4691&#45;&gt;Node4692</title>
<path fill="none" stroke="#191970" d="M573.2895,-77.6305C583.3553,-76.4682 593.4842,-75.2986 603.3269,-74.162"/>
<polygon fill="#191970" stroke="#191970" points="572.7901,-74.1649 563.2576,-78.789 573.5932,-81.1187 572.7901,-74.1649"/>
</g>
<!-- Node4694 -->
<g id="node28" class="node">
<title>Node4694</title>
<g id="a_node28"><a xlink:href="../../d4/d91/_n_f_type_check_8h.html#a1d31660a2908426d7e460598c9b091c0" target="_top" xlink:title="boxptr_NFTypeCheck\l_checkOverloadedUnaryOperator">
<polygon fill="#ffffff" stroke="#000000" points="606.5,-.5 606.5,-30.5 767.5,-30.5 767.5,-.5 606.5,-.5"/>
<text text-anchor="start" x="614.5" y="-18.5" font-family="Helvetica,sans-Serif" font-size="10.00" fill="#000000">boxptr_NFTypeCheck</text>
<text text-anchor="middle" x="687" y="-7.5" font-family="Helvetica,sans-Serif" font-size="10.00" fill="#000000">_checkOverloadedUnaryOperator</text>
</a>
</g>
</g>
<!-- Node4691&#45;&gt;Node4694 -->
<g id="edge32" class="edge">
<title>Node4691&#45;&gt;Node4694</title>
<path fill="none" stroke="#191970" d="M515.5179,-70.6485C539.9847,-60.7427 570.9032,-48.7694 599,-39.5 608.4743,-36.3744 618.6149,-33.3336 628.5201,-30.5253"/>
<polygon fill="#191970" stroke="#191970" points="514.076,-67.4566 506.1373,-74.4729 516.7187,-73.9386 514.076,-67.4566"/>
</g>
<!-- Node4695 -->
<g id="node29" class="node">
<title>Node4695</title>
<g id="a_node29"><a xlink:href="../../d4/d91/_n_f_type_check_8h.html#a2d3ba43dd8474a408821a0cf55b72055" target="_top" xlink:title="omc_NFTypeCheck_checkUnary\lOperation">
<polygon fill="#ffffff" stroke="#000000" points="606,-98.5 606,-128.5 768,-128.5 768,-98.5 606,-98.5"/>
<text text-anchor="start" x="614" y="-116.5" font-family="Helvetica,sans-Serif" font-size="10.00" fill="#000000">omc_NFTypeCheck_checkUnary</text>
<text text-anchor="middle" x="687" y="-105.5" font-family="Helvetica,sans-Serif" font-size="10.00" fill="#000000">Operation</text>
</a>
</g>
</g>
<!-- Node4691&#45;&gt;Node4695 -->
<g id="edge33" class="edge">
<title>Node4691&#45;&gt;Node4695</title>
<path fill="none" stroke="#191970" d="M573.2298,-100.8881C584.1251,-102.0959 595.0952,-103.3119 605.697,-104.4872"/>
<polygon fill="#191970" stroke="#191970" points="573.5824,-97.4058 563.2576,-99.7826 572.8111,-104.3632 573.5824,-97.4058"/>
</g>
<!-- Node4693 -->
<g id="node27" class="node">
<title>Node4693</title>
<g id="a_node27"><a xlink:href="../../d4/d91/_n_f_type_check_8h.html#aafb863615700bebec3dec4c0b1e4db3b" target="_top" xlink:title="boxptr_NFTypeCheck\l_checkLogicalUnaryOperation">
<polygon fill="#ffffff" stroke="#000000" points="815,-49.5 815,-79.5 962,-79.5 962,-49.5 815,-49.5"/>
<text text-anchor="start" x="823" y="-67.5" font-family="Helvetica,sans-Serif" font-size="10.00" fill="#000000">boxptr_NFTypeCheck</text>
<text text-anchor="middle" x="888.5" y="-56.5" font-family="Helvetica,sans-Serif" font-size="10.00" fill="#000000">_checkLogicalUnaryOperation</text>
</a>
</g>
</g>
<!-- Node4692&#45;&gt;Node4693 -->
<g id="edge31" class="edge">
<title>Node4692&#45;&gt;Node4693</title>
<path fill="none" stroke="#191970" d="M781.032,-64.5C792.331,-64.5 803.7432,-64.5 814.6967,-64.5"/>
<polygon fill="#191970" stroke="#191970" points="780.7036,-61.0001 770.7036,-64.5 780.7036,-68.0001 780.7036,-61.0001"/>
</g>
<!-- Node4696 -->
<g id="node30" class="node">
<title>Node4696</title>
<g id="a_node30"><a xlink:href="../../d4/d91/_n_f_type_check_8h.html#ac2702adfb6cfe3cfc12899aa922d2415" target="_top" xlink:title="boxptr_NFTypeCheck\l_checkUnaryOperation">
<polygon fill="#ffffff" stroke="#000000" points="830.5,-98.5 830.5,-128.5 946.5,-128.5 946.5,-98.5 830.5,-98.5"/>
<text text-anchor="start" x="838.5" y="-116.5" font-family="Helvetica,sans-Serif" font-size="10.00" fill="#000000">boxptr_NFTypeCheck</text>
<text text-anchor="middle" x="888.5" y="-105.5" font-family="Helvetica,sans-Serif" font-size="10.00" fill="#000000">_checkUnaryOperation</text>
</a>
</g>
</g>
<!-- Node4695&#45;&gt;Node4696 -->
<g id="edge34" class="edge">
<title>Node4695&#45;&gt;Node4696</title>
<path fill="none" stroke="#191970" d="M778.4453,-113.5C796.1427,-113.5 814.2262,-113.5 830.4866,-113.5"/>
<polygon fill="#191970" stroke="#191970" points="778.0868,-110.0001 768.0868,-113.5 778.0867,-117.0001 778.0868,-110.0001"/>
</g>
<!-- Node4698 -->
<g id="node32" class="node">
<title>Node4698</title>
<g id="a_node32"><a xlink:href="../../d4/d91/_n_f_type_check_8h.html#a9a33f77d59a7b0702e0cdbba46aada79" target="_top" xlink:title="omc_NFTypeCheck_checkRelation\lOperation">
<polygon fill="#ffffff" stroke="#000000" points="601,-245.5 601,-275.5 773,-275.5 773,-245.5 601,-245.5"/>
<text text-anchor="start" x="609" y="-263.5" font-family="Helvetica,sans-Serif" font-size="10.00" fill="#000000">omc_NFTypeCheck_checkRelation</text>
<text text-anchor="middle" x="687" y="-252.5" font-family="Helvetica,sans-Serif" font-size="10.00" fill="#000000">Operation</text>
</a>
</g>
</g>
<!-- Node4697&#45;&gt;Node4698 -->
<g id="edge36" class="edge">
<title>Node4697&#45;&gt;Node4698</title>
<path fill="none" stroke="#191970" d="M573.2732,-247.8929C582.5345,-248.9195 591.8493,-249.9521 600.9457,-250.9605"/>
<polygon fill="#191970" stroke="#191970" points="573.5824,-244.4058 563.2576,-246.7826 572.8111,-251.3632 573.5824,-244.4058"/>
</g>
<!-- Node4700 -->
<g id="node34" class="node">
<title>Node4700</title>
<g id="a_node34"><a xlink:href="../../d4/d91/_n_f_type_check_8h.html#acd87f79448c28425ad068c5fd30a8109" target="_top" xlink:title="omc_NFTypeCheck_checkLogical\lBinaryOperation">
<polygon fill="#ffffff" stroke="#000000" points="603.5,-196.5 603.5,-226.5 770.5,-226.5 770.5,-196.5 603.5,-196.5"/>
<text text-anchor="start" x="611.5" y="-214.5" font-family="Helvetica,sans-Serif" font-size="10.00" fill="#000000">omc_NFTypeCheck_checkLogical</text>
<text text-anchor="middle" x="687" y="-203.5" font-family="Helvetica,sans-Serif" font-size="10.00" fill="#000000">BinaryOperation</text>
</a>
</g>
</g>
<!-- Node4697&#45;&gt;Node4700 -->
<g id="edge38" class="edge">
<title>Node4697&#45;&gt;Node4700</title>
<path fill="none" stroke="#191970" d="M573.2895,-224.6305C583.3553,-223.4682 593.4842,-222.2986 603.3269,-221.162"/>
<polygon fill="#191970" stroke="#191970" points="572.7901,-221.1649 563.2576,-225.789 573.5932,-228.1187 572.7901,-221.1649"/>
</g>
<!-- Node4702 -->
<g id="node36" class="node">
<title>Node4702</title>
<g id="a_node36"><a xlink:href="../../d4/d91/_n_f_type_check_8h.html#a47b0af927319985596135f7f68a32db0" target="_top" xlink:title="boxptr_NFTypeCheck\l_checkOverloadedBinaryOperator">
<polygon fill="#ffffff" stroke="#000000" points="605.5,-147.5 605.5,-177.5 768.5,-177.5 768.5,-147.5 605.5,-147.5"/>
<text text-anchor="start" x="613.5" y="-165.5" font-family="Helvetica,sans-Serif" font-size="10.00" fill="#000000">boxptr_NFTypeCheck</text>
<text text-anchor="middle" x="687" y="-154.5" font-family="Helvetica,sans-Serif" font-size="10.00" fill="#000000">_checkOverloadedBinaryOperator</text>
</a>
</g>
</g>
<!-- Node4697&#45;&gt;Node4702 -->
<g id="edge40" class="edge">
<title>Node4697&#45;&gt;Node4702</title>
<path fill="none" stroke="#191970" d="M515.5179,-217.6485C539.9847,-207.7427 570.9032,-195.7694 599,-186.5 608.4743,-183.3744 618.6149,-180.3336 628.5201,-177.5253"/>
<polygon fill="#191970" stroke="#191970" points="514.076,-214.4566 506.1373,-221.4729 516.7187,-220.9386 514.076,-214.4566"/>
</g>
<!-- Node4703 -->
<g id="node37" class="node">
<title>Node4703</title>
<g id="a_node37"><a xlink:href="../../d4/d91/_n_f_type_check_8h.html#a6ea133c1069bd86d7189218df7b8223f" target="_top" xlink:title="omc_NFTypeCheck_checkBinary\lOperation">
<polygon fill="#ffffff" stroke="#000000" points="605,-294.5 605,-324.5 769,-324.5 769,-294.5 605,-294.5"/>
<text text-anchor="start" x="613" y="-312.5" font-family="Helvetica,sans-Serif" font-size="10.00" fill="#000000">omc_NFTypeCheck_checkBinary</text>
<text text-anchor="middle" x="687" y="-301.5" font-family="Helvetica,sans-Serif" font-size="10.00" fill="#000000">Operation</text>
</a>
</g>
</g>
<!-- Node4697&#45;&gt;Node4703 -->
<g id="edge41" class="edge">
<title>Node4697&#45;&gt;Node4703</title>
<path fill="none" stroke="#191970" d="M516.3407,-255.2335C540.6904,-264.8649 571.2459,-276.4478 599,-285.5 608.4848,-288.5935 618.6308,-291.6179 628.5381,-294.4199"/>
<polygon fill="#191970" stroke="#191970" points="517.5784,-251.9592 506.993,-251.5117 514.9889,-258.4626 517.5784,-251.9592"/>
</g>
<!-- Node4699 -->
<g id="node33" class="node">
<title>Node4699</title>
<g id="a_node33"><a xlink:href="../../d4/d91/_n_f_type_check_8h.html#a51fd8062c069886efafa16513697a2e7" target="_top" xlink:title="boxptr_NFTypeCheck\l_checkRelationOperation">
<polygon fill="#ffffff" stroke="#000000" points="825.5,-245.5 825.5,-275.5 951.5,-275.5 951.5,-245.5 825.5,-245.5"/>
<text text-anchor="start" x="833.5" y="-263.5" font-family="Helvetica,sans-Serif" font-size="10.00" fill="#000000">boxptr_NFTypeCheck</text>
<text text-anchor="middle" x="888.5" y="-252.5" font-family="Helvetica,sans-Serif" font-size="10.00" fill="#000000">_checkRelationOperation</text>
</a>
</g>
</g>
<!-- Node4698&#45;&gt;Node4699 -->
<g id="edge37" class="edge">
<title>Node4698&#45;&gt;Node4699</title>
<path fill="none" stroke="#191970" d="M783.3708,-260.5C797.611,-260.5 811.9681,-260.5 825.3013,-260.5"/>
<polygon fill="#191970" stroke="#191970" points="783.0386,-257.0001 773.0386,-260.5 783.0386,-264.0001 783.0386,-257.0001"/>
</g>
<!-- Node4701 -->
<g id="node35" class="node">
<title>Node4701</title>
<g id="a_node35"><a xlink:href="../../d4/d91/_n_f_type_check_8h.html#ae6f24f501c8f7ca45c1743486f357337" target="_top" xlink:title="boxptr_NFTypeCheck\l_checkLogicalBinaryOperation">
<polygon fill="#ffffff" stroke="#000000" points="814,-196.5 814,-226.5 963,-226.5 963,-196.5 814,-196.5"/>
<text text-anchor="start" x="822" y="-214.5" font-family="Helvetica,sans-Serif" font-size="10.00" fill="#000000">boxptr_NFTypeCheck</text>
<text text-anchor="middle" x="888.5" y="-203.5" font-family="Helvetica,sans-Serif" font-size="10.00" fill="#000000">_checkLogicalBinaryOperation</text>
</a>
</g>
</g>
<!-- Node4700&#45;&gt;Node4701 -->
<g id="edge39" class="edge">
<title>Node4700&#45;&gt;Node4701</title>
<path fill="none" stroke="#191970" d="M780.8014,-211.5C791.8478,-211.5 803.0061,-211.5 813.7418,-211.5"/>
<polygon fill="#191970" stroke="#191970" points="780.7036,-208.0001 770.7036,-211.5 780.7036,-215.0001 780.7036,-208.0001"/>
</g>
<!-- Node4704 -->
<g id="node38" class="node">
<title>Node4704</title>
<g id="a_node38"><a xlink:href="../../d4/d91/_n_f_type_check_8h.html#a23e4cf9285696cf5b7aedf6439e00086" target="_top" xlink:title="boxptr_NFTypeCheck\l_checkBinaryOperation">
<polygon fill="#ffffff" stroke="#000000" points="829.5,-294.5 829.5,-324.5 947.5,-324.5 947.5,-294.5 829.5,-294.5"/>
<text text-anchor="start" x="837.5" y="-312.5" font-family="Helvetica,sans-Serif" font-size="10.00" fill="#000000">boxptr_NFTypeCheck</text>
<text text-anchor="middle" x="888.5" y="-301.5" font-family="Helvetica,sans-Serif" font-size="10.00" fill="#000000">_checkBinaryOperation</text>
</a>
</g>
</g>
<!-- Node4703&#45;&gt;Node4704 -->
<g id="edge42" class="edge">
<title>Node4703&#45;&gt;Node4704</title>
<path fill="none" stroke="#191970" d="M779.7024,-309.5C796.5825,-309.5 813.7658,-309.5 829.3407,-309.5"/>
<polygon fill="#191970" stroke="#191970" points="779.2484,-306.0001 769.2484,-309.5 779.2484,-313.0001 779.2484,-306.0001"/>
</g>
</g>
</svg>
