<?xml version="1.0" encoding="UTF-8" standalone="no"?>
<!DOCTYPE svg PUBLIC "-//W3C//DTD SVG 1.1//EN"
 "http://www.w3.org/Graphics/SVG/1.1/DTD/svg11.dtd">
<!-- Generated by graphviz version 2.40.1 (20161225.0304)
 -->
<!-- Title: boxptr_NFFunction_Function_isExternal Pages: 1 -->
<svg width="887pt" height="132pt"
 viewBox="0.00 0.00 887.00 132.00" xmlns="http://www.w3.org/2000/svg" xmlns:xlink="http://www.w3.org/1999/xlink">
<g id="graph0" class="graph" transform="scale(1 1) rotate(0) translate(4 128)">
<title>boxptr_NFFunction_Function_isExternal</title>
<polygon fill="#ffffff" stroke="transparent" points="-4,4 -4,-128 883,-128 883,4 -4,4"/>
<!-- Node544 -->
<g id="node1" class="node">
<title>Node544</title>
<polygon fill="#bfbfbf" stroke="#000000" points="0,-44.5 0,-74.5 143,-74.5 143,-44.5 0,-44.5"/>
<text text-anchor="start" x="8" y="-62.5" font-family="Helvetica,sans-Serif" font-size="10.00" fill="#000000">boxptr_NFFunction_Function</text>
<text text-anchor="middle" x="71.5" y="-51.5" font-family="Helvetica,sans-Serif" font-size="10.00" fill="#000000">_isExternal</text>
</g>
<!-- Node545 -->
<g id="node2" class="node">
<title>Node545</title>
<g id="a_node2"><a xlink:href="../../d0/d18/_n_f_function_8c.html#a3050837e559dcd87a4dc739618b5bf45" target="_top" xlink:title="omc_NFFunction_Function\l_isExternal">
<polygon fill="#ffffff" stroke="#000000" points="179,-44.5 179,-74.5 313,-74.5 313,-44.5 179,-44.5"/>
<text text-anchor="start" x="187" y="-62.5" font-family="Helvetica,sans-Serif" font-size="10.00" fill="#000000">omc_NFFunction_Function</text>
<text text-anchor="middle" x="246" y="-51.5" font-family="Helvetica,sans-Serif" font-size="10.00" fill="#000000">_isExternal</text>
</a>
</g>
</g>
<!-- Node544&#45;&gt;Node545 -->
<g id="edge1" class="edge">
<title>Node544&#45;&gt;Node545</title>
<path fill="none" stroke="#191970" d="M143.2312,-59.5C151.585,-59.5 160.1349,-59.5 168.5612,-59.5"/>
<polygon fill="#191970" stroke="#191970" points="168.7566,-63.0001 178.7565,-59.5 168.7565,-56.0001 168.7566,-63.0001"/>
</g>
<!-- Node546 -->
<g id="node3" class="node">
<title>Node546</title>
<g id="a_node3"><a xlink:href="../../d7/d21/_n_f_inst_node_8c.html#ae378534b961a6d8594806228b51698b7" target="_top" xlink:title="omc_NFInstNode_InstNode\l_isEmpty">
<polygon fill="#ffffff" stroke="#000000" points="359,-93.5 359,-123.5 498,-123.5 498,-93.5 359,-93.5"/>
<text text-anchor="start" x="367" y="-111.5" font-family="Helvetica,sans-Serif" font-size="10.00" fill="#000000">omc_NFInstNode_InstNode</text>
<text text-anchor="middle" x="428.5" y="-100.5" font-family="Helvetica,sans-Serif" font-size="10.00" fill="#000000">_isEmpty</text>
</a>
</g>
</g>
<!-- Node545&#45;&gt;Node546 -->
<g id="edge2" class="edge">
<title>Node545&#45;&gt;Node546</title>
<path fill="none" stroke="#191970" d="M302.2452,-74.6014C321.3289,-79.7253 342.8203,-85.4956 362.5885,-90.8032"/>
<polygon fill="#191970" stroke="#191970" points="361.875,-94.2355 372.4406,-93.4484 363.6902,-87.475 361.875,-94.2355"/>
</g>
<!-- Node547 -->
<g id="node4" class="node">
<title>Node547</title>
<g id="a_node4"><a xlink:href="../../d5/ddb/_n_f_class_8c.html#a633d33e2f5ae4ec11657ab85f89e9f85" target="_top" xlink:title="omc_NFClass_Class_isExternal\lFunction">
<polygon fill="#ffffff" stroke="#000000" points="349,-44.5 349,-74.5 508,-74.5 508,-44.5 349,-44.5"/>
<text text-anchor="start" x="357" y="-62.5" font-family="Helvetica,sans-Serif" font-size="10.00" fill="#000000">omc_NFClass_Class_isExternal</text>
<text text-anchor="middle" x="428.5" y="-51.5" font-family="Helvetica,sans-Serif" font-size="10.00" fill="#000000">Function</text>
</a>
</g>
</g>
<!-- Node545&#45;&gt;Node547 -->
<g id="edge3" class="edge">
<title>Node545&#45;&gt;Node547</title>
<path fill="none" stroke="#191970" d="M313.1788,-59.5C321.5064,-59.5 330.1221,-59.5 338.7204,-59.5"/>
<polygon fill="#191970" stroke="#191970" points="338.7878,-63.0001 348.7878,-59.5 338.7878,-56.0001 338.7878,-63.0001"/>
</g>
<!-- Node548 -->
<g id="node5" class="node">
<title>Node548</title>
<g id="a_node5"><a xlink:href="../../d7/d21/_n_f_inst_node_8c.html#a840047a70bed69a6b747a8bbec33e15b" target="_top" xlink:title="omc_NFInstNode_InstNode\l_getClass">
<polygon fill="#ffffff" stroke="#000000" points="544,-22.5 544,-52.5 683,-52.5 683,-22.5 544,-22.5"/>
<text text-anchor="start" x="552" y="-40.5" font-family="Helvetica,sans-Serif" font-size="10.00" fill="#000000">omc_NFInstNode_InstNode</text>
<text text-anchor="middle" x="613.5" y="-29.5" font-family="Helvetica,sans-Serif" font-size="10.00" fill="#000000">_getClass</text>
</a>
</g>
</g>
<!-- Node545&#45;&gt;Node548 -->
<g id="edge7" class="edge">
<title>Node545&#45;&gt;Node548</title>
<path fill="none" stroke="#191970" d="M300.1158,-44.4424C315.761,-40.758 332.9481,-37.3454 349,-35.5 410.6952,-28.4072 481.0191,-29.3662 533.6388,-31.8494"/>
<polygon fill="#191970" stroke="#191970" points="533.7562,-35.3596 543.9188,-32.3644 534.1065,-28.3684 533.7562,-35.3596"/>
</g>
<!-- Node547&#45;&gt;Node548 -->
<g id="edge4" class="edge">
<title>Node547&#45;&gt;Node548</title>
<path fill="none" stroke="#191970" d="M508.0303,-50.0423C516.6177,-49.0211 525.3573,-47.9818 533.945,-46.9606"/>
<polygon fill="#191970" stroke="#191970" points="534.4216,-50.4287 543.9383,-45.7722 533.595,-43.4776 534.4216,-50.4287"/>
</g>
<!-- Node549 -->
<g id="node6" class="node">
<title>Node549</title>
<g id="a_node6"><a xlink:href="../../dc/d0e/_pointer_8c.html#aa5369c5410f4ad12957ad69be8ccc4e8" target="_top" xlink:title="omc_Pointer_access">
<polygon fill="#ffffff" stroke="#000000" points="745,-50 745,-69 853,-69 853,-50 745,-50"/>
<text text-anchor="middle" x="799" y="-57" font-family="Helvetica,sans-Serif" font-size="10.00" fill="#000000">omc_Pointer_access</text>
</a>
</g>
</g>
<!-- Node548&#45;&gt;Node549 -->
<g id="edge5" class="edge">
<title>Node548&#45;&gt;Node549</title>
<path fill="none" stroke="#191970" d="M683.1011,-45.7546C700.0431,-47.7639 718.086,-49.9037 734.7659,-51.8819"/>
<polygon fill="#191970" stroke="#191970" points="734.6107,-55.388 744.9533,-53.0902 735.4351,-48.4367 734.6107,-55.388"/>
</g>
<!-- Node550 -->
<g id="node7" class="node">
<title>Node550</title>
<g id="a_node7"><a xlink:href="../../d2/dda/_n_f_component_8c.html#aebc936a63cf3faa7877ddb75a6ba16cb" target="_top" xlink:title="omc_NFComponent_Component\l_classInstance">
<polygon fill="#ffffff" stroke="#000000" points="719,-.5 719,-30.5 879,-30.5 879,-.5 719,-.5"/>
<text text-anchor="start" x="727" y="-18.5" font-family="Helvetica,sans-Serif" font-size="10.00" fill="#000000">omc_NFComponent_Component</text>
<text text-anchor="middle" x="799" y="-7.5" font-family="Helvetica,sans-Serif" font-size="10.00" fill="#000000">_classInstance</text>
</a>
</g>
</g>
<!-- Node548&#45;&gt;Node550 -->
<g id="edge6" class="edge">
<title>Node548&#45;&gt;Node550</title>
<path fill="none" stroke="#191970" d="M683.1011,-29.2454C691.4508,-28.2552 700.068,-27.2332 708.6575,-26.2145"/>
<polygon fill="#191970" stroke="#191970" points="709.1924,-29.6757 718.7106,-25.0222 708.368,-22.7244 709.1924,-29.6757"/>
</g>
</g>
</svg>
