<?xml version="1.0" encoding="UTF-8" standalone="no"?>
<!DOCTYPE svg PUBLIC "-//W3C//DTD SVG 1.1//EN"
 "http://www.w3.org/Graphics/SVG/1.1/DTD/svg11.dtd">
<!-- Generated by graphviz version 2.40.1 (20161225.0304)
 -->
<!-- Title: omc_Causalize_singularSystemError Pages: 1 -->
<svg width="543pt" height="88pt"
 viewBox="0.00 0.00 543.00 88.00" xmlns="http://www.w3.org/2000/svg" xmlns:xlink="http://www.w3.org/1999/xlink">
<g id="graph0" class="graph" transform="scale(1 1) rotate(0) translate(4 84)">
<title>omc_Causalize_singularSystemError</title>
<polygon fill="#ffffff" stroke="transparent" points="-4,4 -4,-84 539,-84 539,4 -4,4"/>
<!-- Node90 -->
<g id="node1" class="node">
<title>Node90</title>
<polygon fill="#bfbfbf" stroke="#000000" points="0,-24.5 0,-54.5 157,-54.5 157,-24.5 0,-24.5"/>
<text text-anchor="start" x="8" y="-42.5" font-family="Helvetica,sans-Serif" font-size="10.00" fill="#000000">omc_Causalize_singularSystem</text>
<text text-anchor="middle" x="78.5" y="-31.5" font-family="Helvetica,sans-Serif" font-size="10.00" fill="#000000">Error</text>
</g>
<!-- Node91 -->
<g id="node2" class="node">
<title>Node91</title>
<g id="a_node2"><a xlink:href="../../d3/d5d/_causalize_8c.html#a65f28077282bf6370a88c00f7a418833" target="_top" xlink:title="boxptr_Causalize_singular\lSystemError">
<polygon fill="#ffffff" stroke="#000000" points="202,-49.5 202,-79.5 333,-79.5 333,-49.5 202,-49.5"/>
<text text-anchor="start" x="210" y="-67.5" font-family="Helvetica,sans-Serif" font-size="10.00" fill="#000000">boxptr_Causalize_singular</text>
<text text-anchor="middle" x="267.5" y="-56.5" font-family="Helvetica,sans-Serif" font-size="10.00" fill="#000000">SystemError</text>
</a>
</g>
</g>
<!-- Node90&#45;&gt;Node91 -->
<g id="edge1" class="edge">
<title>Node90&#45;&gt;Node91</title>
<path fill="none" stroke="#191970" d="M167.2107,-51.2342C178.8722,-52.7767 190.6517,-54.3349 201.8353,-55.8142"/>
<polygon fill="#191970" stroke="#191970" points="167.3837,-47.7267 157.0111,-49.8851 166.4657,-54.6663 167.3837,-47.7267"/>
</g>
<!-- Node92 -->
<g id="node3" class="node">
<title>Node92</title>
<g id="a_node3"><a xlink:href="../../d3/d5d/_causalize_8c.html#ab0b03da719c80ef9d8642d5d703d7d3c" target="_top" xlink:title="omc_Causalize_foundSingular\lSystem">
<polygon fill="#ffffff" stroke="#000000" points="193,-.5 193,-30.5 342,-30.5 342,-.5 193,-.5"/>
<text text-anchor="start" x="201" y="-18.5" font-family="Helvetica,sans-Serif" font-size="10.00" fill="#000000">omc_Causalize_foundSingular</text>
<text text-anchor="middle" x="267.5" y="-7.5" font-family="Helvetica,sans-Serif" font-size="10.00" fill="#000000">System</text>
</a>
</g>
</g>
<!-- Node90&#45;&gt;Node92 -->
<g id="edge2" class="edge">
<title>Node90&#45;&gt;Node92</title>
<path fill="none" stroke="#191970" d="M167.0881,-28.2507C175.7128,-27.1555 184.4034,-26.0519 192.8711,-24.9767"/>
<polygon fill="#191970" stroke="#191970" points="166.4905,-24.7984 157.0111,-29.5303 167.3723,-31.7426 166.4905,-24.7984"/>
</g>
<!-- Node93 -->
<g id="node4" class="node">
<title>Node93</title>
<g id="a_node4"><a xlink:href="../../d3/d5d/_causalize_8c.html#af884f8ca1098a8a0b450fafb595a4912" target="_top" xlink:title="boxptr_Causalize_foundSingular\lSystem">
<polygon fill="#ffffff" stroke="#000000" points="378,-.5 378,-30.5 535,-30.5 535,-.5 378,-.5"/>
<text text-anchor="start" x="386" y="-18.5" font-family="Helvetica,sans-Serif" font-size="10.00" fill="#000000">boxptr_Causalize_foundSingular</text>
<text text-anchor="middle" x="456.5" y="-7.5" font-family="Helvetica,sans-Serif" font-size="10.00" fill="#000000">System</text>
</a>
</g>
</g>
<!-- Node92&#45;&gt;Node93 -->
<g id="edge3" class="edge">
<title>Node92&#45;&gt;Node93</title>
<path fill="none" stroke="#191970" d="M352.207,-15.5C360.7907,-15.5 369.4833,-15.5 377.9975,-15.5"/>
<polygon fill="#191970" stroke="#191970" points="352.1978,-12.0001 342.1978,-15.5 352.1978,-19.0001 352.1978,-12.0001"/>
</g>
</g>
</svg>
