<?xml version="1.0" encoding="UTF-8" standalone="no"?>
<!DOCTYPE svg PUBLIC "-//W3C//DTD SVG 1.1//EN"
 "http://www.w3.org/Graphics/SVG/1.1/DTD/svg11.dtd">
<!-- Generated by graphviz version 2.40.1 (20161225.0304)
 -->
<!-- Title: listClear Pages: 1 -->
<svg width="314pt" height="142pt"
 viewBox="0.00 0.00 314.00 142.00" xmlns="http://www.w3.org/2000/svg" xmlns:xlink="http://www.w3.org/1999/xlink">
<g id="graph0" class="graph" transform="scale(1 1) rotate(0) translate(4 138)">
<title>listClear</title>
<polygon fill="#ffffff" stroke="transparent" points="-4,4 -4,-138 310,-138 310,4 -4,4"/>
<!-- Node28 -->
<g id="node1" class="node">
<title>Node28</title>
<polygon fill="#bfbfbf" stroke="#000000" points="0,-38.5 0,-57.5 53,-57.5 53,-38.5 0,-38.5"/>
<text text-anchor="middle" x="26.5" y="-45.5" font-family="Helvetica,sans-Serif" font-size="10.00" fill="#000000">listClear</text>
</g>
<!-- Node29 -->
<g id="node2" class="node">
<title>Node29</title>
<g id="a_node2"><a xlink:href="../../d3/d25/_simulation_runtime_2c_2util_2list_8h.html#a23c6d83f6a3c74182329fd92dbee3a17" target="_top" xlink:title="freeList">
<polygon fill="#ffffff" stroke="#000000" points="118,-76.5 118,-95.5 167,-95.5 167,-76.5 118,-76.5"/>
<text text-anchor="middle" x="142.5" y="-83.5" font-family="Helvetica,sans-Serif" font-size="10.00" fill="#000000">freeList</text>
</a>
</g>
</g>
<!-- Node28&#45;&gt;Node29 -->
<g id="edge1" class="edge">
<title>Node28&#45;&gt;Node29</title>
<path fill="none" stroke="#191970" d="M62.7121,-59.8626C80.6931,-65.7529 101.9432,-72.7141 117.9902,-77.9709"/>
<polygon fill="#191970" stroke="#191970" points="63.7054,-56.505 53.1127,-56.718 61.5262,-63.1572 63.7054,-56.505"/>
</g>
<!-- Node32 -->
<g id="node5" class="node">
<title>Node32</title>
<g id="a_node5"><a xlink:href="../../d7/dc9/_simulation_runtime_2c_2simulation_2solver_2events_8h.html#aac0348c8fd5445d1eb2ce518ada6a8b6" target="_top" xlink:title="findRoot">
<polygon fill="#ffffff" stroke="#000000" points="116,-38.5 116,-57.5 169,-57.5 169,-38.5 116,-38.5"/>
<text text-anchor="middle" x="142.5" y="-45.5" font-family="Helvetica,sans-Serif" font-size="10.00" fill="#000000">findRoot</text>
</a>
</g>
</g>
<!-- Node28&#45;&gt;Node32 -->
<g id="edge4" class="edge">
<title>Node28&#45;&gt;Node32</title>
<path fill="none" stroke="#191970" d="M63.2605,-48C80.2449,-48 100.0487,-48 115.6094,-48"/>
<polygon fill="#191970" stroke="#191970" points="63.1128,-44.5001 53.1127,-48 63.1127,-51.5001 63.1128,-44.5001"/>
</g>
<!-- Node34 -->
<g id="node7" class="node">
<title>Node34</title>
<g id="a_node7"><a xlink:href="../../de/deb/events_8c.html#a04d55658c858efb25cc0ee397fb780f3" target="_top" xlink:title="checkZeroCrossings">
<polygon fill="#ffffff" stroke="#000000" points="89,-.5 89,-19.5 196,-19.5 196,-.5 89,-.5"/>
<text text-anchor="middle" x="142.5" y="-7.5" font-family="Helvetica,sans-Serif" font-size="10.00" fill="#000000">checkZeroCrossings</text>
</a>
</g>
</g>
<!-- Node28&#45;&gt;Node34 -->
<g id="edge6" class="edge">
<title>Node28&#45;&gt;Node34</title>
<path fill="none" stroke="#191970" d="M62.8079,-36.106C79.0159,-30.7965 97.8643,-24.622 113.1604,-19.6113"/>
<polygon fill="#191970" stroke="#191970" points="61.5262,-32.8428 53.1127,-39.282 63.7054,-39.495 61.5262,-32.8428"/>
</g>
<!-- Node30 -->
<g id="node3" class="node">
<title>Node30</title>
<g id="a_node3"><a xlink:href="../../d0/d95/build_2include_2omc_2lpsolve_2lp__price_8h.html#ab1a1d550d8543717b170804d5930d46b" target="_top" xlink:title="multi_resize">
<polygon fill="#ffffff" stroke="#000000" points="234.5,-114.5 234.5,-133.5 303.5,-133.5 303.5,-114.5 234.5,-114.5"/>
<text text-anchor="middle" x="269" y="-121.5" font-family="Helvetica,sans-Serif" font-size="10.00" fill="#000000">multi_resize</text>
</a>
</g>
</g>
<!-- Node29&#45;&gt;Node30 -->
<g id="edge2" class="edge">
<title>Node29&#45;&gt;Node30</title>
<path fill="none" stroke="#191970" d="M176.852,-96.3192C195.648,-101.9654 218.781,-108.9144 237.1668,-114.4374"/>
<polygon fill="#191970" stroke="#191970" points="177.775,-92.942 167.1908,-93.417 175.761,-99.646 177.775,-92.942"/>
</g>
<!-- Node31 -->
<g id="node4" class="node">
<title>Node31</title>
<g id="a_node4"><a xlink:href="../../d5/df9/_simulation_runtime_2c_2simulation_2solver_2nonlinear_values_list_8h.html#ae2fdafc3c6e453d2b2e833cc1874b96a" target="_top" xlink:title="freeValueList">
<polygon fill="#ffffff" stroke="#000000" points="232,-76.5 232,-95.5 306,-95.5 306,-76.5 232,-76.5"/>
<text text-anchor="middle" x="269" y="-83.5" font-family="Helvetica,sans-Serif" font-size="10.00" fill="#000000">freeValueList</text>
</a>
</g>
</g>
<!-- Node29&#45;&gt;Node31 -->
<g id="edge3" class="edge">
<title>Node29&#45;&gt;Node31</title>
<path fill="none" stroke="#191970" d="M177.2471,-86C194.211,-86 214.6337,-86 231.9006,-86"/>
<polygon fill="#191970" stroke="#191970" points="177.1908,-82.5001 167.1908,-86 177.1907,-89.5001 177.1908,-82.5001"/>
</g>
<!-- Node33 -->
<g id="node6" class="node">
<title>Node33</title>
<g id="a_node6"><a xlink:href="../../d7/dc9/_simulation_runtime_2c_2simulation_2solver_2events_8h.html#a4f1c8974048201fbb62638aaa41bfb3b" target="_top" xlink:title="checkEvents">
<polygon fill="#ffffff" stroke="#000000" points="232,-38.5 232,-57.5 306,-57.5 306,-38.5 232,-38.5"/>
<text text-anchor="middle" x="269" y="-45.5" font-family="Helvetica,sans-Serif" font-size="10.00" fill="#000000">checkEvents</text>
</a>
</g>
</g>
<!-- Node32&#45;&gt;Node33 -->
<g id="edge5" class="edge">
<title>Node32&#45;&gt;Node33</title>
<path fill="none" stroke="#191970" d="M179.4042,-48C195.9427,-48 215.4075,-48 231.9618,-48"/>
<polygon fill="#191970" stroke="#191970" points="179.0186,-44.5001 169.0185,-48 179.0185,-51.5001 179.0186,-44.5001"/>
</g>
</g>
</svg>
