<?xml version="1.0" encoding="UTF-8" standalone="no"?>
<!DOCTYPE svg PUBLIC "-//W3C//DTD SVG 1.1//EN"
 "http://www.w3.org/Graphics/SVG/1.1/DTD/svg11.dtd">
<!-- Generated by graphviz version 2.40.1 (20161225.0304)
 -->
<!-- Title: boxptr_LexerJSON_tokenContentEq Pages: 1 -->
<svg width="690pt" height="39pt"
 viewBox="0.00 0.00 690.00 39.00" xmlns="http://www.w3.org/2000/svg" xmlns:xlink="http://www.w3.org/1999/xlink">
<g id="graph0" class="graph" transform="scale(1 1) rotate(0) translate(4 35)">
<title>boxptr_LexerJSON_tokenContentEq</title>
<polygon fill="#ffffff" stroke="transparent" points="-4,4 -4,-35 686,-35 686,4 -4,4"/>
<!-- Node3 -->
<g id="node1" class="node">
<title>Node3</title>
<polygon fill="#bfbfbf" stroke="#000000" points="0,-6 0,-25 176,-25 176,-6 0,-6"/>
<text text-anchor="middle" x="88" y="-13" font-family="Helvetica,sans-Serif" font-size="10.00" fill="#000000">boxptr_LexerJSON_tokenContentEq</text>
</g>
<!-- Node4 -->
<g id="node2" class="node">
<title>Node4</title>
<g id="a_node2"><a xlink:href="../../d8/d3f/_lexer_j_s_o_n_8c.html#a64fde07872c15ff43751b81379e6d5bd" target="_top" xlink:title="omc_LexerJSON_tokenContentEq">
<polygon fill="#ffffff" stroke="#000000" points="212,-6 212,-25 379,-25 379,-6 212,-6"/>
<text text-anchor="middle" x="295.5" y="-13" font-family="Helvetica,sans-Serif" font-size="10.00" fill="#000000">omc_LexerJSON_tokenContentEq</text>
</a>
</g>
</g>
<!-- Node3&#45;&gt;Node4 -->
<g id="edge1" class="edge">
<title>Node3&#45;&gt;Node4</title>
<path fill="none" stroke="#191970" d="M176.2996,-15.5C184.6905,-15.5 193.2194,-15.5 201.66,-15.5"/>
<polygon fill="#191970" stroke="#191970" points="201.8967,-19.0001 211.8966,-15.5 201.8966,-12.0001 201.8967,-19.0001"/>
</g>
<!-- Node5 -->
<g id="node3" class="node">
<title>Node5</title>
<g id="a_node3"><a xlink:href="../../d1/d95/_system_8c.html#a0aaa892aa97aa37dc043e8e2970109ca" target="_top" xlink:title="omc_System_strcmp_\l_offset">
<polygon fill="#ffffff" stroke="#000000" points="415,-.5 415,-30.5 530,-30.5 530,-.5 415,-.5"/>
<text text-anchor="start" x="423" y="-18.5" font-family="Helvetica,sans-Serif" font-size="10.00" fill="#000000">omc_System_strcmp_</text>
<text text-anchor="middle" x="472.5" y="-7.5" font-family="Helvetica,sans-Serif" font-size="10.00" fill="#000000">_offset</text>
</a>
</g>
</g>
<!-- Node4&#45;&gt;Node5 -->
<g id="edge2" class="edge">
<title>Node4&#45;&gt;Node5</title>
<path fill="none" stroke="#191970" d="M379.076,-15.5C387.6668,-15.5 396.3197,-15.5 404.7095,-15.5"/>
<polygon fill="#191970" stroke="#191970" points="404.7909,-19.0001 414.7909,-15.5 404.7909,-12.0001 404.7909,-19.0001"/>
</g>
<!-- Node6 -->
<g id="node4" class="node">
<title>Node6</title>
<g id="a_node4"><a xlink:href="../../d8/d28/_compiler_2boot_2build_2system_8h.html#abf1f8659b933a36b33b83bb98745eadb" target="_top" xlink:title="System_strcmp_offset">
<polygon fill="#ffffff" stroke="#000000" points="566,-6 566,-25 682,-25 682,-6 566,-6"/>
<text text-anchor="middle" x="624" y="-13" font-family="Helvetica,sans-Serif" font-size="10.00" fill="#000000">System_strcmp_offset</text>
</a>
</g>
</g>
<!-- Node5&#45;&gt;Node6 -->
<g id="edge3" class="edge">
<title>Node5&#45;&gt;Node6</title>
<path fill="none" stroke="#191970" d="M530.2078,-15.5C538.6222,-15.5 547.3519,-15.5 555.948,-15.5"/>
<polygon fill="#191970" stroke="#191970" points="555.9508,-19.0001 565.9508,-15.5 555.9507,-12.0001 555.9508,-19.0001"/>
</g>
</g>
</svg>
