<?xml version="1.0" encoding="UTF-8" standalone="no"?>
<!DOCTYPE svg PUBLIC "-//W3C//DTD SVG 1.1//EN"
 "http://www.w3.org/Graphics/SVG/1.1/DTD/svg11.dtd">
<!-- Generated by graphviz version 2.40.1 (20161225.0304)
 -->
<!-- Title: omc_DAEUtil_traverseDAEFuncHelper Pages: 1 -->
<svg width="590pt" height="39pt"
 viewBox="0.00 0.00 590.00 39.00" xmlns="http://www.w3.org/2000/svg" xmlns:xlink="http://www.w3.org/1999/xlink">
<g id="graph0" class="graph" transform="scale(1 1) rotate(0) translate(4 35)">
<title>omc_DAEUtil_traverseDAEFuncHelper</title>
<polygon fill="#ffffff" stroke="transparent" points="-4,4 -4,-35 586,-35 586,4 -4,4"/>
<!-- Node2918 -->
<g id="node1" class="node">
<title>Node2918</title>
<polygon fill="#bfbfbf" stroke="#000000" points="0,-.5 0,-30.5 160,-30.5 160,-.5 0,-.5"/>
<text text-anchor="start" x="8" y="-18.5" font-family="Helvetica,sans-Serif" font-size="10.00" fill="#000000">omc_DAEUtil_traverseDAEFunc</text>
<text text-anchor="middle" x="80" y="-7.5" font-family="Helvetica,sans-Serif" font-size="10.00" fill="#000000">Helper</text>
</g>
<!-- Node2919 -->
<g id="node2" class="node">
<title>Node2919</title>
<g id="a_node2"><a xlink:href="../../d0/d29/_d_a_e_util_8c.html#ac51e604cd8be26eba04ae5d547807953" target="_top" xlink:title="omc_DAEUtil_traverseDAEFunc">
<polygon fill="#ffffff" stroke="#000000" points="196,-6 196,-25 356,-25 356,-6 196,-6"/>
<text text-anchor="middle" x="276" y="-13" font-family="Helvetica,sans-Serif" font-size="10.00" fill="#000000">omc_DAEUtil_traverseDAEFunc</text>
</a>
</g>
</g>
<!-- Node2918&#45;&gt;Node2919 -->
<g id="edge1" class="edge">
<title>Node2918&#45;&gt;Node2919</title>
<path fill="none" stroke="#191970" d="M160.0034,-15.5C168.5245,-15.5 177.2335,-15.5 185.8608,-15.5"/>
<polygon fill="#191970" stroke="#191970" points="185.9348,-19.0001 195.9347,-15.5 185.9347,-12.0001 185.9348,-19.0001"/>
</g>
<!-- Node2920 -->
<g id="node3" class="node">
<title>Node2920</title>
<g id="a_node3"><a xlink:href="../../d0/d29/_d_a_e_util_8c.html#a764d79804f1bf4b8787920c0692316e5" target="_top" xlink:title="omc_DAEUtil_traverseDAEElementList">
<polygon fill="#ffffff" stroke="#000000" points="392,-6 392,-25 582,-25 582,-6 392,-6"/>
<text text-anchor="middle" x="487" y="-13" font-family="Helvetica,sans-Serif" font-size="10.00" fill="#000000">omc_DAEUtil_traverseDAEElementList</text>
</a>
</g>
</g>
<!-- Node2919&#45;&gt;Node2920 -->
<g id="edge2" class="edge">
<title>Node2919&#45;&gt;Node2920</title>
<path fill="none" stroke="#191970" d="M356.0709,-15.5C364.4503,-15.5 373.0573,-15.5 381.6628,-15.5"/>
<polygon fill="#191970" stroke="#191970" points="381.7505,-19.0001 391.7505,-15.5 381.7505,-12.0001 381.7505,-19.0001"/>
</g>
</g>
</svg>
