<?xml version="1.0" encoding="UTF-8" standalone="no"?>
<!DOCTYPE svg PUBLIC "-//W3C//DTD SVG 1.1//EN"
 "http://www.w3.org/Graphics/SVG/1.1/DTD/svg11.dtd">
<!-- Generated by graphviz version 2.40.1 (20161225.0304)
 -->
<!-- Title: omc_DAEUtil_sortDAEInModelicaCodeOrder Pages: 1 -->
<svg width="716pt" height="154pt"
 viewBox="0.00 0.00 716.00 154.00" xmlns="http://www.w3.org/2000/svg" xmlns:xlink="http://www.w3.org/1999/xlink">
<g id="graph0" class="graph" transform="scale(1 1) rotate(0) translate(4 150)">
<title>omc_DAEUtil_sortDAEInModelicaCodeOrder</title>
<polygon fill="#ffffff" stroke="transparent" points="-4,4 -4,-150 712,-150 712,4 -4,4"/>
<!-- Node2416 -->
<g id="node1" class="node">
<title>Node2416</title>
<polygon fill="#bfbfbf" stroke="#000000" points="0,-33 0,-63 167,-63 167,-33 0,-33"/>
<text text-anchor="start" x="8" y="-51" font-family="Helvetica,sans-Serif" font-size="10.00" fill="#000000">omc_DAEUtil_sortDAEInModelica</text>
<text text-anchor="middle" x="83.5" y="-40" font-family="Helvetica,sans-Serif" font-size="10.00" fill="#000000">CodeOrder</text>
</g>
<!-- Node2417 -->
<g id="node2" class="node">
<title>Node2417</title>
<g id="a_node2"><a xlink:href="../../d0/d29/_d_a_e_util_8c.html#a4dd3585c2e8d0e0ab936d6760ee635e0" target="_top" xlink:title="omc_DAEUtil_sortDAEElements\lInModelicaCodeOrder">
<polygon fill="#ffffff" stroke="#000000" points="203,-33 203,-63 364,-63 364,-33 203,-33"/>
<text text-anchor="start" x="211" y="-51" font-family="Helvetica,sans-Serif" font-size="10.00" fill="#000000">omc_DAEUtil_sortDAEElements</text>
<text text-anchor="middle" x="283.5" y="-40" font-family="Helvetica,sans-Serif" font-size="10.00" fill="#000000">InModelicaCodeOrder</text>
</a>
</g>
</g>
<!-- Node2416&#45;&gt;Node2417 -->
<g id="edge1" class="edge">
<title>Node2416&#45;&gt;Node2417</title>
<path fill="none" stroke="#191970" d="M167.1592,-48C175.5301,-48 184.0581,-48 192.4999,-48"/>
<polygon fill="#191970" stroke="#191970" points="192.7379,-51.5001 202.7378,-48 192.7378,-44.5001 192.7379,-51.5001"/>
</g>
<!-- Node2418 -->
<g id="node3" class="node">
<title>Node2418</title>
<g id="a_node3"><a xlink:href="../../d0/d29/_d_a_e_util_8c.html#a885852742719e31c77f6a78fd37a8eaf" target="_top" xlink:title="omc_DAEUtil_splitVariable\lNamed">
<polygon fill="#ffffff" stroke="#000000" points="400.5,-77 400.5,-107 535.5,-107 535.5,-77 400.5,-77"/>
<text text-anchor="start" x="408.5" y="-95" font-family="Helvetica,sans-Serif" font-size="10.00" fill="#000000">omc_DAEUtil_splitVariable</text>
<text text-anchor="middle" x="468" y="-84" font-family="Helvetica,sans-Serif" font-size="10.00" fill="#000000">Named</text>
</a>
</g>
</g>
<!-- Node2417&#45;&gt;Node2418 -->
<g id="edge2" class="edge">
<title>Node2417&#45;&gt;Node2418</title>
<path fill="none" stroke="#191970" d="M346.4784,-63.0192C362.1256,-66.7508 379.0263,-70.7814 395.1055,-74.616"/>
<polygon fill="#191970" stroke="#191970" points="394.4532,-78.0585 404.9924,-76.9738 396.0771,-71.2494 394.4532,-78.0585"/>
</g>
<!-- Node2422 -->
<g id="node7" class="node">
<title>Node2422</title>
<g id="a_node7"><a xlink:href="../../da/d72/_compiler_2boot_2build_2list_8c.html#a56541974efce2621174e32890b60c03a" target="_top" xlink:title="omc_List_append__reverse">
<polygon fill="#ffffff" stroke="#000000" points="400,-38.5 400,-57.5 536,-57.5 536,-38.5 400,-38.5"/>
<text text-anchor="middle" x="468" y="-45.5" font-family="Helvetica,sans-Serif" font-size="10.00" fill="#000000">omc_List_append__reverse</text>
</a>
</g>
</g>
<!-- Node2417&#45;&gt;Node2422 -->
<g id="edge6" class="edge">
<title>Node2417&#45;&gt;Node2422</title>
<path fill="none" stroke="#191970" d="M364.156,-48C372.6351,-48 381.247,-48 389.699,-48"/>
<polygon fill="#191970" stroke="#191970" points="389.9097,-51.5001 399.9096,-48 389.9096,-44.5001 389.9097,-51.5001"/>
</g>
<!-- Node2423 -->
<g id="node8" class="node">
<title>Node2423</title>
<g id="a_node8"><a xlink:href="../../d2/d57/build_2include_2omc_2c_2meta_2meta__modelica__builtin_8h.html#ad7cc5a28ee76a604bbbddfd643761734" target="_top" xlink:title="listReverseInPlace">
<polygon fill="#ffffff" stroke="#000000" points="418.5,-.5 418.5,-19.5 517.5,-19.5 517.5,-.5 418.5,-.5"/>
<text text-anchor="middle" x="468" y="-7.5" font-family="Helvetica,sans-Serif" font-size="10.00" fill="#000000">listReverseInPlace</text>
</a>
</g>
</g>
<!-- Node2417&#45;&gt;Node2423 -->
<g id="edge7" class="edge">
<title>Node2417&#45;&gt;Node2423</title>
<path fill="none" stroke="#191970" d="M356.4193,-32.9814C374.8589,-29.1835 394.3775,-25.1634 411.8459,-21.5656"/>
<polygon fill="#191970" stroke="#191970" points="412.7822,-24.9463 421.8705,-19.5009 411.37,-18.0902 412.7822,-24.9463"/>
</g>
<!-- Node2419 -->
<g id="node4" class="node">
<title>Node2419</title>
<g id="a_node4"><a xlink:href="../../d2/d57/build_2include_2omc_2c_2meta_2meta__modelica__builtin_8h.html#a81001ba45c298ade27540edd2589777c" target="_top" xlink:title="listReverse">
<polygon fill="#ffffff" stroke="#000000" points="607,-126.5 607,-145.5 673,-145.5 673,-126.5 607,-126.5"/>
<text text-anchor="middle" x="640" y="-133.5" font-family="Helvetica,sans-Serif" font-size="10.00" fill="#000000">listReverse</text>
</a>
</g>
</g>
<!-- Node2418&#45;&gt;Node2419 -->
<g id="edge3" class="edge">
<title>Node2418&#45;&gt;Node2419</title>
<path fill="none" stroke="#191970" d="M526.7116,-107.0192C549.7312,-112.908 575.6609,-119.5412 596.8985,-124.974"/>
<polygon fill="#191970" stroke="#191970" points="596.0501,-128.3697 606.6056,-127.4572 597.785,-121.588 596.0501,-128.3697"/>
</g>
<!-- Node2420 -->
<g id="node5" class="node">
<title>Node2420</title>
<g id="a_node5"><a xlink:href="../../d9/d14/_component_reference_8c.html#a5f491f186f674efb30ec59575fc6a9a5" target="_top" xlink:title="omc_ComponentReference\l_crefFirstIdent">
<polygon fill="#ffffff" stroke="#000000" points="572,-77 572,-107 708,-107 708,-77 572,-77"/>
<text text-anchor="start" x="580" y="-95" font-family="Helvetica,sans-Serif" font-size="10.00" fill="#000000">omc_ComponentReference</text>
<text text-anchor="middle" x="640" y="-84" font-family="Helvetica,sans-Serif" font-size="10.00" fill="#000000">_crefFirstIdent</text>
</a>
</g>
</g>
<!-- Node2418&#45;&gt;Node2420 -->
<g id="edge4" class="edge">
<title>Node2418&#45;&gt;Node2420</title>
<path fill="none" stroke="#191970" d="M535.979,-92C544.4828,-92 553.2328,-92 561.8758,-92"/>
<polygon fill="#191970" stroke="#191970" points="561.9516,-95.5001 571.9516,-92 561.9515,-88.5001 561.9516,-95.5001"/>
</g>
<!-- Node2421 -->
<g id="node6" class="node">
<title>Node2421</title>
<g id="a_node6"><a xlink:href="../../da/d72/_compiler_2boot_2build_2list_8c.html#a22f5b7cd064c1d413b9056674f5c910b" target="_top" xlink:title="omc_List_consOnTrue">
<polygon fill="#ffffff" stroke="#000000" points="582.5,-38.5 582.5,-57.5 697.5,-57.5 697.5,-38.5 582.5,-38.5"/>
<text text-anchor="middle" x="640" y="-45.5" font-family="Helvetica,sans-Serif" font-size="10.00" fill="#000000">omc_List_consOnTrue</text>
</a>
</g>
</g>
<!-- Node2418&#45;&gt;Node2421 -->
<g id="edge5" class="edge">
<title>Node2418&#45;&gt;Node2421</title>
<path fill="none" stroke="#191970" d="M526.7116,-76.9808C548.3725,-71.4396 572.6102,-65.2393 593.0906,-60.0001"/>
<polygon fill="#191970" stroke="#191970" points="593.9945,-63.3816 602.8151,-57.5124 592.2596,-56.6 593.9945,-63.3816"/>
</g>
</g>
</svg>
