<?xml version="1.0" encoding="UTF-8" standalone="no"?>
<!DOCTYPE svg PUBLIC "-//W3C//DTD SVG 1.1//EN"
 "http://www.w3.org/Graphics/SVG/1.1/DTD/svg11.dtd">
<!-- Generated by graphviz version 2.40.1 (20161225.0304)
 -->
<!-- Title: boxptr_DAEUtil_statementsContainReturn Pages: 1 -->
<svg width="547pt" height="52pt"
 viewBox="0.00 0.00 547.00 51.50" xmlns="http://www.w3.org/2000/svg" xmlns:xlink="http://www.w3.org/1999/xlink">
<g id="graph0" class="graph" transform="scale(1 1) rotate(0) translate(4 47.5)">
<title>boxptr_DAEUtil_statementsContainReturn</title>
<polygon fill="#ffffff" stroke="transparent" points="-4,4 -4,-47.5 543,-47.5 543,4 -4,4"/>
<!-- Node255 -->
<g id="node1" class="node">
<title>Node255</title>
<polygon fill="#bfbfbf" stroke="#000000" points="0,-.5 0,-30.5 139,-30.5 139,-.5 0,-.5"/>
<text text-anchor="start" x="8" y="-18.5" font-family="Helvetica,sans-Serif" font-size="10.00" fill="#000000">boxptr_DAEUtil_statements</text>
<text text-anchor="middle" x="69.5" y="-7.5" font-family="Helvetica,sans-Serif" font-size="10.00" fill="#000000">ContainReturn</text>
</g>
<!-- Node256 -->
<g id="node2" class="node">
<title>Node256</title>
<g id="a_node2"><a xlink:href="../../d0/d29/_d_a_e_util_8c.html#a296d2ee451f8123d72f36880542c4deb" target="_top" xlink:title="omc_DAEUtil_statementsContain\lReturn">
<polygon fill="#ffffff" stroke="#000000" points="175,-.5 175,-30.5 339,-30.5 339,-.5 175,-.5"/>
<text text-anchor="start" x="183" y="-18.5" font-family="Helvetica,sans-Serif" font-size="10.00" fill="#000000">omc_DAEUtil_statementsContain</text>
<text text-anchor="middle" x="257" y="-7.5" font-family="Helvetica,sans-Serif" font-size="10.00" fill="#000000">Return</text>
</a>
</g>
</g>
<!-- Node255&#45;&gt;Node256 -->
<g id="edge1" class="edge">
<title>Node255&#45;&gt;Node256</title>
<path fill="none" stroke="#191970" d="M139.0516,-15.5C147.4413,-15.5 156.1086,-15.5 164.7587,-15.5"/>
<polygon fill="#191970" stroke="#191970" points="164.8877,-19.0001 174.8876,-15.5 164.8876,-12.0001 164.8877,-19.0001"/>
</g>
<!-- Node257 -->
<g id="node3" class="node">
<title>Node257</title>
<g id="a_node3"><a xlink:href="../../d0/d29/_d_a_e_util_8c.html#a54593577ff531a04292a80d3e82915bd" target="_top" xlink:title="omc_DAEUtil_traverseDAEStmts">
<polygon fill="#ffffff" stroke="#000000" points="375,-6 375,-25 539,-25 539,-6 375,-6"/>
<text text-anchor="middle" x="457" y="-13" font-family="Helvetica,sans-Serif" font-size="10.00" fill="#000000">omc_DAEUtil_traverseDAEStmts</text>
</a>
</g>
</g>
<!-- Node256&#45;&gt;Node257 -->
<g id="edge2" class="edge">
<title>Node256&#45;&gt;Node257</title>
<path fill="none" stroke="#191970" d="M339.2135,-15.5C347.5625,-15.5 356.0824,-15.5 364.5302,-15.5"/>
<polygon fill="#191970" stroke="#191970" points="364.7826,-19.0001 374.7826,-15.5 364.7826,-12.0001 364.7826,-19.0001"/>
</g>
<!-- Node257&#45;&gt;Node257 -->
<g id="edge3" class="edge">
<title>Node257&#45;&gt;Node257</title>
<path fill="none" stroke="#191970" d="M426.1742,-25.2571C411.1779,-34.0653 421.4531,-43.5 457,-43.5 481.9939,-43.5 494.4939,-38.8356 494.5,-33.0043"/>
<polygon fill="#191970" stroke="#191970" points="497.0044,-30.5489 487.8258,-25.2571 491.7011,-35.1178 497.0044,-30.5489"/>
</g>
</g>
</svg>
