<?xml version="1.0" encoding="UTF-8" standalone="no"?>
<!DOCTYPE svg PUBLIC "-//W3C//DTD SVG 1.1//EN"
 "http://www.w3.org/Graphics/SVG/1.1/DTD/svg11.dtd">
<!-- Generated by graphviz version 2.40.1 (20161225.0304)
 -->
<!-- Title: omc_DAEUtil_addDaeFunction Pages: 1 -->
<svg width="513pt" height="39pt"
 viewBox="0.00 0.00 513.00 39.00" xmlns="http://www.w3.org/2000/svg" xmlns:xlink="http://www.w3.org/1999/xlink">
<g id="graph0" class="graph" transform="scale(1 1) rotate(0) translate(4 35)">
<title>omc_DAEUtil_addDaeFunction</title>
<polygon fill="#ffffff" stroke="transparent" points="-4,4 -4,-35 509,-35 509,4 -4,4"/>
<!-- Node328 -->
<g id="node1" class="node">
<title>Node328</title>
<polygon fill="#bfbfbf" stroke="#000000" points="0,-6 0,-25 153,-25 153,-6 0,-6"/>
<text text-anchor="middle" x="76.5" y="-13" font-family="Helvetica,sans-Serif" font-size="10.00" fill="#000000">omc_DAEUtil_addDaeFunction</text>
</g>
<!-- Node329 -->
<g id="node2" class="node">
<title>Node329</title>
<g id="a_node2"><a xlink:href="../../db/dda/_f_core_8h.html#a63a5e8795deaa8be0c1e76e250dcbdef" target="_top" xlink:title="omc_FCore_addDaeFunction">
<polygon fill="#ffffff" stroke="#000000" points="189,-6 189,-25 333,-25 333,-6 189,-6"/>
<text text-anchor="middle" x="261" y="-13" font-family="Helvetica,sans-Serif" font-size="10.00" fill="#000000">omc_FCore_addDaeFunction</text>
</a>
</g>
</g>
<!-- Node328&#45;&gt;Node329 -->
<g id="edge1" class="edge">
<title>Node328&#45;&gt;Node329</title>
<path fill="none" stroke="#191970" d="M163.1478,-15.5C171.712,-15.5 180.3407,-15.5 188.7374,-15.5"/>
<polygon fill="#191970" stroke="#191970" points="163.1418,-12.0001 153.1418,-15.5 163.1417,-19.0001 163.1418,-12.0001"/>
</g>
<!-- Node330 -->
<g id="node3" class="node">
<title>Node330</title>
<g id="a_node3"><a xlink:href="../../da/d17/_inst_util_8h.html#ab73837d41b7186561a48569933c2f486" target="_top" xlink:title="omc_InstUtil_addFunctions\lToDAE">
<polygon fill="#ffffff" stroke="#000000" points="369,-.5 369,-30.5 505,-30.5 505,-.5 369,-.5"/>
<text text-anchor="start" x="377" y="-18.5" font-family="Helvetica,sans-Serif" font-size="10.00" fill="#000000">omc_InstUtil_addFunctions</text>
<text text-anchor="middle" x="437" y="-7.5" font-family="Helvetica,sans-Serif" font-size="10.00" fill="#000000">ToDAE</text>
</a>
</g>
</g>
<!-- Node329&#45;&gt;Node330 -->
<g id="edge2" class="edge">
<title>Node329&#45;&gt;Node330</title>
<path fill="none" stroke="#191970" d="M343.1807,-15.5C351.8197,-15.5 360.5339,-15.5 368.9882,-15.5"/>
<polygon fill="#191970" stroke="#191970" points="343.0938,-12.0001 333.0938,-15.5 343.0937,-19.0001 343.0938,-12.0001"/>
</g>
</g>
</svg>
