<?xml version="1.0" encoding="UTF-8" standalone="no"?>
<!DOCTYPE svg PUBLIC "-//W3C//DTD SVG 1.1//EN"
 "http://www.w3.org/Graphics/SVG/1.1/DTD/svg11.dtd">
<!-- Generated by graphviz version 2.40.1 (20161225.0304)
 -->
<!-- Title: omc_DAEUtil_joinDaeLst Pages: 1 -->
<svg width="518pt" height="89pt"
 viewBox="0.00 0.00 518.00 89.18" xmlns="http://www.w3.org/2000/svg" xmlns:xlink="http://www.w3.org/1999/xlink">
<g id="graph0" class="graph" transform="scale(1 1) rotate(0) translate(4 85.178)">
<title>omc_DAEUtil_joinDaeLst</title>
<polygon fill="#ffffff" stroke="transparent" points="-4,4 -4,-85.178 514,-85.178 514,4 -4,4"/>
<!-- Node1978 -->
<g id="node1" class="node">
<title>Node1978</title>
<polygon fill="#bfbfbf" stroke="#000000" points="0,-28.5 0,-47.5 128,-47.5 128,-28.5 0,-28.5"/>
<text text-anchor="middle" x="64" y="-35.5" font-family="Helvetica,sans-Serif" font-size="10.00" fill="#000000">omc_DAEUtil_joinDaeLst</text>
</g>
<!-- Node1979 -->
<g id="node2" class="node">
<title>Node1979</title>
<g id="a_node2"><a xlink:href="../../dd/d15/_d_a_e_util_8h.html#a7a78ae5d350ee24d7ab4811319bbe8eb" target="_top" xlink:title="omc_DAEUtil_joinDaeLst">
<polygon fill="#ffffff" stroke="#000000" points="164,-28.5 164,-47.5 292,-47.5 292,-28.5 164,-28.5"/>
<text text-anchor="middle" x="228" y="-35.5" font-family="Helvetica,sans-Serif" font-size="10.00" fill="#000000">omc_DAEUtil_joinDaeLst</text>
</a>
</g>
</g>
<!-- Node1978&#45;&gt;Node1979 -->
<g id="edge1" class="edge">
<title>Node1978&#45;&gt;Node1979</title>
<path fill="none" stroke="#191970" d="M138.5641,-38C147.0037,-38 155.5492,-38 163.8391,-38"/>
<polygon fill="#191970" stroke="#191970" points="138.3465,-34.5001 128.3464,-38 138.3464,-41.5001 138.3465,-34.5001"/>
</g>
<!-- Node1980 -->
<g id="node3" class="node">
<title>Node1980</title>
<g id="a_node3"><a xlink:href="../../d9/d88/_inst_section_8c.html#a155f97dc02cf3847d003ed61ab836f7e" target="_top" xlink:title="omc_InstSection_instEqEquation2List">
<polygon fill="#ffffff" stroke="#000000" points="328,-47.5 328,-66.5 510,-66.5 510,-47.5 328,-47.5"/>
<text text-anchor="middle" x="419" y="-54.5" font-family="Helvetica,sans-Serif" font-size="10.00" fill="#000000">omc_InstSection_instEqEquation2List</text>
</a>
</g>
</g>
<!-- Node1978&#45;&gt;Node1980 -->
<g id="edge5" class="edge">
<title>Node1978&#45;&gt;Node1980</title>
<path fill="none" stroke="#191970" d="M92.6066,-51.6778C112.2016,-60.2664 139.0593,-70.5339 164,-75 237.3927,-88.1423 324.2768,-76.2834 375.3373,-66.5774"/>
<polygon fill="#191970" stroke="#191970" points="93.8963,-48.4201 83.3411,-47.5046 91.0215,-54.8026 93.8963,-48.4201"/>
</g>
<!-- Node1981 -->
<g id="node4" class="node">
<title>Node1981</title>
<g id="a_node4"><a xlink:href="../../da/d17/_inst_util_8h.html#a70324072e65746daf529c2929d17f6c2" target="_top" xlink:title="omc_InstUtil_handleUnitChecking">
<polygon fill="#ffffff" stroke="#000000" points="336.5,-.5 336.5,-19.5 501.5,-19.5 501.5,-.5 336.5,-.5"/>
<text text-anchor="middle" x="419" y="-7.5" font-family="Helvetica,sans-Serif" font-size="10.00" fill="#000000">omc_InstUtil_handleUnitChecking</text>
</a>
</g>
</g>
<!-- Node1978&#45;&gt;Node1981 -->
<g id="edge6" class="edge">
<title>Node1978&#45;&gt;Node1981</title>
<path fill="none" stroke="#191970" d="M116.837,-26.403C131.9941,-23.5008 148.5894,-20.7258 164,-19 221.3402,-12.5787 286.3432,-10.3618 336.368,-9.7332"/>
<polygon fill="#191970" stroke="#191970" points="115.7391,-23.0521 106.6056,-28.4213 117.0939,-29.9197 115.7391,-23.0521"/>
</g>
<!-- Node1979&#45;&gt;Node1979 -->
<g id="edge2" class="edge">
<title>Node1979&#45;&gt;Node1979</title>
<path fill="none" stroke="#191970" d="M197.3114,-56.2746C198.1864,-61.741 208.4159,-66 228,-66 257.1484,-66 265.5742,-56.5653 253.2772,-47.7571"/>
<polygon fill="#191970" stroke="#191970" points="200.3144,-58.0745 202.7228,-47.7571 194.406,-54.3207 200.3144,-58.0745"/>
</g>
<!-- Node1979&#45;&gt;Node1980 -->
<g id="edge3" class="edge">
<title>Node1979&#45;&gt;Node1980</title>
<path fill="none" stroke="#191970" d="M302.2456,-45.3857C310.6466,-46.2214 319.2787,-47.0801 327.8637,-47.9341"/>
<polygon fill="#191970" stroke="#191970" points="302.4289,-41.8867 292.1316,-44.3796 301.736,-48.8524 302.4289,-41.8867"/>
</g>
<!-- Node1979&#45;&gt;Node1981 -->
<g id="edge4" class="edge">
<title>Node1979&#45;&gt;Node1981</title>
<path fill="none" stroke="#191970" d="M302.0941,-27.138C319.2352,-24.6252 337.3464,-21.9702 354.0613,-19.5198"/>
<polygon fill="#191970" stroke="#191970" points="301.5181,-23.685 292.1316,-28.5985 302.5335,-30.6109 301.5181,-23.685"/>
</g>
</g>
</svg>
