<?xml version="1.0" encoding="UTF-8" standalone="no"?>
<!DOCTYPE svg PUBLIC "-//W3C//DTD SVG 1.1//EN"
 "http://www.w3.org/Graphics/SVG/1.1/DTD/svg11.dtd">
<!-- Generated by graphviz version 2.40.1 (20161225.0304)
 -->
<!-- Title: omc_DAEUtil_getNominalAttr Pages: 1 -->
<svg width="650pt" height="210pt"
 viewBox="0.00 0.00 650.00 210.00" xmlns="http://www.w3.org/2000/svg" xmlns:xlink="http://www.w3.org/1999/xlink">
<g id="graph0" class="graph" transform="scale(1 1) rotate(0) translate(4 206)">
<title>omc_DAEUtil_getNominalAttr</title>
<polygon fill="#ffffff" stroke="transparent" points="-4,4 -4,-206 646,-206 646,4 -4,4"/>
<!-- Node1494 -->
<g id="node1" class="node">
<title>Node1494</title>
<polygon fill="#bfbfbf" stroke="#000000" points="0,-103 0,-122 147,-122 147,-103 0,-103"/>
<text text-anchor="middle" x="73.5" y="-110" font-family="Helvetica,sans-Serif" font-size="10.00" fill="#000000">omc_DAEUtil_getNominalAttr</text>
</g>
<!-- Node1495 -->
<g id="node2" class="node">
<title>Node1495</title>
<g id="a_node2"><a xlink:href="../../d5/dd6/_backend_variable_8h.html#a30a15aa0b7f5331caf12d27e77e6ded0" target="_top" xlink:title="omc_BackendVariable\l_getVarNominalValue">
<polygon fill="#ffffff" stroke="#000000" points="183,-97.5 183,-127.5 297,-127.5 297,-97.5 183,-97.5"/>
<text text-anchor="start" x="191" y="-115.5" font-family="Helvetica,sans-Serif" font-size="10.00" fill="#000000">omc_BackendVariable</text>
<text text-anchor="middle" x="240" y="-104.5" font-family="Helvetica,sans-Serif" font-size="10.00" fill="#000000">_getVarNominalValue</text>
</a>
</g>
</g>
<!-- Node1494&#45;&gt;Node1495 -->
<g id="edge1" class="edge">
<title>Node1494&#45;&gt;Node1495</title>
<path fill="none" stroke="#191970" d="M157.1999,-112.5C165.8936,-112.5 174.5808,-112.5 182.8821,-112.5"/>
<polygon fill="#191970" stroke="#191970" points="157.014,-109.0001 147.014,-112.5 157.014,-116.0001 157.014,-109.0001"/>
</g>
<!-- Node1496 -->
<g id="node3" class="node">
<title>Node1496</title>
<g id="a_node3"><a xlink:href="../../d2/d52/_backend_d_a_e_optimize_8h.html#a98ed2f53c483ad5a2cefac6feeec88e5" target="_top" xlink:title="omc_BackendDAEOptimize\l_addedScaledVars__inputs">
<polygon fill="#ffffff" stroke="#000000" points="333,-171.5 333,-201.5 472,-201.5 472,-171.5 333,-171.5"/>
<text text-anchor="start" x="341" y="-189.5" font-family="Helvetica,sans-Serif" font-size="10.00" fill="#000000">omc_BackendDAEOptimize</text>
<text text-anchor="middle" x="402.5" y="-178.5" font-family="Helvetica,sans-Serif" font-size="10.00" fill="#000000">_addedScaledVars__inputs</text>
</a>
</g>
</g>
<!-- Node1495&#45;&gt;Node1496 -->
<g id="edge2" class="edge">
<title>Node1495&#45;&gt;Node1496</title>
<path fill="none" stroke="#191970" d="M274.611,-132.8262C291.8347,-142.4949 313.1658,-153.8109 333,-162.5 340.1323,-165.6246 347.8117,-168.6228 355.3725,-171.3774"/>
<polygon fill="#191970" stroke="#191970" points="275.9243,-129.547 265.5005,-127.6514 272.467,-135.6337 275.9243,-129.547"/>
</g>
<!-- Node1497 -->
<g id="node4" class="node">
<title>Node1497</title>
<g id="a_node4"><a xlink:href="../../d2/d52/_backend_d_a_e_optimize_8h.html#a8d1fe4c9ac74c43f6ea2de3ce6586d32" target="_top" xlink:title="omc_BackendDAEOptimize\l_addedScaledVars__states">
<polygon fill="#ffffff" stroke="#000000" points="333,-122.5 333,-152.5 472,-152.5 472,-122.5 333,-122.5"/>
<text text-anchor="start" x="341" y="-140.5" font-family="Helvetica,sans-Serif" font-size="10.00" fill="#000000">omc_BackendDAEOptimize</text>
<text text-anchor="middle" x="402.5" y="-129.5" font-family="Helvetica,sans-Serif" font-size="10.00" fill="#000000">_addedScaledVars__states</text>
</a>
</g>
</g>
<!-- Node1495&#45;&gt;Node1497 -->
<g id="edge3" class="edge">
<title>Node1495&#45;&gt;Node1497</title>
<path fill="none" stroke="#191970" d="M307.4272,-122.8734C315.8402,-124.1677 324.4569,-125.4934 332.9022,-126.7926"/>
<polygon fill="#191970" stroke="#191970" points="307.7074,-119.3754 297.2914,-121.3141 306.6429,-126.294 307.7074,-119.3754"/>
</g>
<!-- Node1498 -->
<g id="node5" class="node">
<title>Node1498</title>
<g id="a_node5"><a xlink:href="../../d4/dac/_backend_d_a_e_util_8c.html#a7967a202112b2d4fd857aeaf72164354" target="_top" xlink:title="omc_BackendDAEUtil\l_replaceVarWithNominal">
<polygon fill="#ffffff" stroke="#000000" points="340,-73.5 340,-103.5 465,-103.5 465,-73.5 340,-73.5"/>
<text text-anchor="start" x="348" y="-91.5" font-family="Helvetica,sans-Serif" font-size="10.00" fill="#000000">omc_BackendDAEUtil</text>
<text text-anchor="middle" x="402.5" y="-80.5" font-family="Helvetica,sans-Serif" font-size="10.00" fill="#000000">_replaceVarWithNominal</text>
</a>
</g>
</g>
<!-- Node1495&#45;&gt;Node1498 -->
<g id="edge4" class="edge">
<title>Node1495&#45;&gt;Node1498</title>
<path fill="none" stroke="#191970" d="M307.469,-102.5353C318.2169,-100.948 329.2962,-99.3116 339.9248,-97.7419"/>
<polygon fill="#191970" stroke="#191970" points="306.6727,-99.1149 297.2914,-104.0385 307.6955,-106.0398 306.6727,-99.1149"/>
</g>
<!-- Node1499 -->
<g id="node6" class="node">
<title>Node1499</title>
<g id="a_node6"><a xlink:href="../../d7/dce/_dynamic_optimization_8c.html#a995a4cd93bdd1f4ab3ff968165419429" target="_top" xlink:title="omc_DynamicOptimization\l_findObjTerm">
<polygon fill="#ffffff" stroke="#000000" points="335.5,-24.5 335.5,-54.5 469.5,-54.5 469.5,-24.5 335.5,-24.5"/>
<text text-anchor="start" x="343.5" y="-42.5" font-family="Helvetica,sans-Serif" font-size="10.00" fill="#000000">omc_DynamicOptimization</text>
<text text-anchor="middle" x="402.5" y="-31.5" font-family="Helvetica,sans-Serif" font-size="10.00" fill="#000000">_findObjTerm</text>
</a>
</g>
</g>
<!-- Node1495&#45;&gt;Node1499 -->
<g id="edge5" class="edge">
<title>Node1495&#45;&gt;Node1499</title>
<path fill="none" stroke="#191970" d="M275.8632,-92.5921C292.9175,-83.4886 313.7453,-72.889 333,-64.5 340.9938,-61.0172 349.6446,-57.6208 358.0393,-54.5105"/>
<polygon fill="#191970" stroke="#191970" points="273.9523,-89.646 266.8107,-97.4722 277.274,-95.8077 273.9523,-89.646"/>
</g>
<!-- Node1500 -->
<g id="node7" class="node">
<title>Node1500</title>
<g id="a_node7"><a xlink:href="../../d7/dce/_dynamic_optimization_8c.html#af3a7d846bd7bdb9969ab8194e8d335db" target="_top" xlink:title="omc_DynamicOptimization\l_findLagrangeTerm">
<polygon fill="#ffffff" stroke="#000000" points="508,-49.5 508,-79.5 642,-79.5 642,-49.5 508,-49.5"/>
<text text-anchor="start" x="516" y="-67.5" font-family="Helvetica,sans-Serif" font-size="10.00" fill="#000000">omc_DynamicOptimization</text>
<text text-anchor="middle" x="575" y="-56.5" font-family="Helvetica,sans-Serif" font-size="10.00" fill="#000000">_findLagrangeTerm</text>
</a>
</g>
</g>
<!-- Node1499&#45;&gt;Node1500 -->
<g id="edge6" class="edge">
<title>Node1499&#45;&gt;Node1500</title>
<path fill="none" stroke="#191970" d="M479.8122,-50.7047C489.2149,-52.0674 498.7608,-53.4508 507.9964,-54.7893"/>
<polygon fill="#191970" stroke="#191970" points="480.0856,-47.2078 469.6869,-49.2372 479.0815,-54.1354 480.0856,-47.2078"/>
</g>
<!-- Node1501 -->
<g id="node8" class="node">
<title>Node1501</title>
<g id="a_node8"><a xlink:href="../../d7/dce/_dynamic_optimization_8c.html#aa0d259f35bba5a5ba53dd5e468a1215f" target="_top" xlink:title="omc_DynamicOptimization\l_findMayerTerm">
<polygon fill="#ffffff" stroke="#000000" points="508,-.5 508,-30.5 642,-30.5 642,-.5 508,-.5"/>
<text text-anchor="start" x="516" y="-18.5" font-family="Helvetica,sans-Serif" font-size="10.00" fill="#000000">omc_DynamicOptimization</text>
<text text-anchor="middle" x="575" y="-7.5" font-family="Helvetica,sans-Serif" font-size="10.00" fill="#000000">_findMayerTerm</text>
</a>
</g>
</g>
<!-- Node1499&#45;&gt;Node1501 -->
<g id="edge7" class="edge">
<title>Node1499&#45;&gt;Node1501</title>
<path fill="none" stroke="#191970" d="M479.8122,-28.7435C489.2149,-27.4353 498.7608,-26.1072 507.9964,-24.8222"/>
<polygon fill="#191970" stroke="#191970" points="479.1092,-25.3075 469.6869,-30.1523 480.0739,-32.2407 479.1092,-25.3075"/>
</g>
</g>
</svg>
