<?xml version="1.0" encoding="UTF-8" standalone="no"?>
<!DOCTYPE svg PUBLIC "-//W3C//DTD SVG 1.1//EN"
 "http://www.w3.org/Graphics/SVG/1.1/DTD/svg11.dtd">
<!-- Generated by graphviz version 2.40.1 (20161225.0304)
 -->
<!-- Title: omc_DAEUtil_getBindingsStr Pages: 1 -->
<svg width="1022pt" height="97pt"
 viewBox="0.00 0.00 1022.00 96.50" xmlns="http://www.w3.org/2000/svg" xmlns:xlink="http://www.w3.org/1999/xlink">
<g id="graph0" class="graph" transform="scale(1 1) rotate(0) translate(4 92.5)">
<title>omc_DAEUtil_getBindingsStr</title>
<polygon fill="#ffffff" stroke="transparent" points="-4,4 -4,-92.5 1018,-92.5 1018,4 -4,4"/>
<!-- Node1119 -->
<g id="node1" class="node">
<title>Node1119</title>
<polygon fill="#bfbfbf" stroke="#000000" points="0,-22.5 0,-41.5 146,-41.5 146,-22.5 0,-22.5"/>
<text text-anchor="middle" x="73" y="-29.5" font-family="Helvetica,sans-Serif" font-size="10.00" fill="#000000">omc_DAEUtil_getBindingsStr</text>
</g>
<!-- Node1120 -->
<g id="node2" class="node">
<title>Node1120</title>
<g id="a_node2"><a xlink:href="../../d8/d16/_expression_dump_8c.html#ab1b14f2e6c847006a4235d1905bb2637" target="_top" xlink:title="omc_ExpressionDump\l_printExpStr">
<polygon fill="#ffffff" stroke="#000000" points="182,-39 182,-69 298,-69 298,-39 182,-39"/>
<text text-anchor="start" x="190" y="-57" font-family="Helvetica,sans-Serif" font-size="10.00" fill="#000000">omc_ExpressionDump</text>
<text text-anchor="middle" x="240" y="-46" font-family="Helvetica,sans-Serif" font-size="10.00" fill="#000000">_printExpStr</text>
</a>
</g>
</g>
<!-- Node1119&#45;&gt;Node1120 -->
<g id="edge1" class="edge">
<title>Node1119&#45;&gt;Node1120</title>
<path fill="none" stroke="#191970" d="M145.2773,-41.5216C154.0843,-42.6818 163.0608,-43.8643 171.8055,-45.0163"/>
<polygon fill="#191970" stroke="#191970" points="171.5688,-48.5153 181.9403,-46.3514 172.4832,-41.5752 171.5688,-48.5153"/>
</g>
<!-- Node1126 -->
<g id="node8" class="node">
<title>Node1126</title>
<g id="a_node8"><a xlink:href="../../d7/deb/build_2include_2omc_2c_2util_2modelica__string_8c.html#a751007abc59e9ca7978f2af10a0c814f" target="_top" xlink:title="stringAppend">
<polygon fill="#ffffff" stroke="#000000" points="203,-.5 203,-19.5 277,-19.5 277,-.5 203,-.5"/>
<text text-anchor="middle" x="240" y="-7.5" font-family="Helvetica,sans-Serif" font-size="10.00" fill="#000000">stringAppend</text>
</a>
</g>
</g>
<!-- Node1119&#45;&gt;Node1126 -->
<g id="edge7" class="edge">
<title>Node1119&#45;&gt;Node1126</title>
<path fill="none" stroke="#191970" d="M145.2773,-22.4784C161.1667,-20.3852 177.6082,-18.2193 192.2438,-16.2912"/>
<polygon fill="#191970" stroke="#191970" points="193.0908,-19.71 202.5479,-14.9338 192.1764,-12.7699 193.0908,-19.71"/>
</g>
<!-- Node1121 -->
<g id="node3" class="node">
<title>Node1121</title>
<g id="a_node3"><a xlink:href="../../d7/d52/_tpl_8c.html#a19e668217f7d6c0b176843e40633cae2" target="_top" xlink:title="omc_Tpl_tplString2">
<polygon fill="#ffffff" stroke="#000000" points="334,-44.5 334,-63.5 435,-63.5 435,-44.5 334,-44.5"/>
<text text-anchor="middle" x="384.5" y="-51.5" font-family="Helvetica,sans-Serif" font-size="10.00" fill="#000000">omc_Tpl_tplString2</text>
</a>
</g>
</g>
<!-- Node1120&#45;&gt;Node1121 -->
<g id="edge2" class="edge">
<title>Node1120&#45;&gt;Node1121</title>
<path fill="none" stroke="#191970" d="M298.3572,-54C306.7101,-54 315.3206,-54 323.7188,-54"/>
<polygon fill="#191970" stroke="#191970" points="323.8261,-57.5001 333.8261,-54 323.8261,-50.5001 323.8261,-57.5001"/>
</g>
<!-- Node1122 -->
<g id="node4" class="node">
<title>Node1122</title>
<g id="a_node4"><a xlink:href="../../db/da1/_compiler_2boot_2build_2error_8c.html#a6f9ff3d03e91883492e13af7fbc088ff" target="_top" xlink:title="omc_Error_getNumErrorMessages">
<polygon fill="#ffffff" stroke="#000000" points="471,-63.5 471,-82.5 638,-82.5 638,-63.5 471,-63.5"/>
<text text-anchor="middle" x="554.5" y="-70.5" font-family="Helvetica,sans-Serif" font-size="10.00" fill="#000000">omc_Error_getNumErrorMessages</text>
</a>
</g>
</g>
<!-- Node1121&#45;&gt;Node1122 -->
<g id="edge3" class="edge">
<title>Node1121&#45;&gt;Node1122</title>
<path fill="none" stroke="#191970" d="M435.0453,-59.6492C443.2231,-60.5632 451.9131,-61.5344 460.7304,-62.5199"/>
<polygon fill="#191970" stroke="#191970" points="460.3919,-66.0037 470.7188,-63.6362 461.1695,-59.0471 460.3919,-66.0037"/>
</g>
<!-- Node1125 -->
<g id="node7" class="node">
<title>Node1125</title>
<g id="a_node7"><a xlink:href="../../d7/d52/_tpl_8c.html#af79df210cda1bb788fce4ef64cb58a0f" target="_top" xlink:title="omc_Tpl_tplCallWithFailError2">
<polygon fill="#ffffff" stroke="#000000" points="480,-25.5 480,-44.5 629,-44.5 629,-25.5 480,-25.5"/>
<text text-anchor="middle" x="554.5" y="-32.5" font-family="Helvetica,sans-Serif" font-size="10.00" fill="#000000">omc_Tpl_tplCallWithFailError2</text>
</a>
</g>
</g>
<!-- Node1121&#45;&gt;Node1125 -->
<g id="edge6" class="edge">
<title>Node1121&#45;&gt;Node1125</title>
<path fill="none" stroke="#191970" d="M435.0453,-48.3508C446.0561,-47.1202 457.9954,-45.7858 469.9236,-44.4527"/>
<polygon fill="#191970" stroke="#191970" points="470.3707,-47.9246 479.9201,-43.3354 469.5932,-40.9679 470.3707,-47.9246"/>
</g>
<!-- Node1123 -->
<g id="node5" class="node">
<title>Node1123</title>
<g id="a_node5"><a xlink:href="../../d4/dce/_error_ext_8c.html#a0195f83af0487b3e7bf35deb4225e582" target="_top" xlink:title="omc_ErrorExt_getNumError\lMessages">
<polygon fill="#ffffff" stroke="#000000" points="674,-58 674,-88 811,-88 811,-58 674,-58"/>
<text text-anchor="start" x="682" y="-76" font-family="Helvetica,sans-Serif" font-size="10.00" fill="#000000">omc_ErrorExt_getNumError</text>
<text text-anchor="middle" x="742.5" y="-65" font-family="Helvetica,sans-Serif" font-size="10.00" fill="#000000">Messages</text>
</a>
</g>
</g>
<!-- Node1122&#45;&gt;Node1123 -->
<g id="edge4" class="edge">
<title>Node1122&#45;&gt;Node1123</title>
<path fill="none" stroke="#191970" d="M638.0544,-73C646.5601,-73 655.1814,-73 663.635,-73"/>
<polygon fill="#191970" stroke="#191970" points="663.8443,-76.5001 673.8442,-73 663.8442,-69.5001 663.8443,-76.5001"/>
</g>
<!-- Node1124 -->
<g id="node6" class="node">
<title>Node1124</title>
<g id="a_node6"><a xlink:href="../../d1/d40/boot_2build_2_error_ext_8h.html#a1206137921767ad0e49abe96adf7b5e3" target="_top" xlink:title="ErrorImpl__getNumErrorMessages">
<polygon fill="#ffffff" stroke="#000000" points="847,-63.5 847,-82.5 1014,-82.5 1014,-63.5 847,-63.5"/>
<text text-anchor="middle" x="930.5" y="-70.5" font-family="Helvetica,sans-Serif" font-size="10.00" fill="#000000">ErrorImpl__getNumErrorMessages</text>
</a>
</g>
</g>
<!-- Node1123&#45;&gt;Node1124 -->
<g id="edge5" class="edge">
<title>Node1123&#45;&gt;Node1124</title>
<path fill="none" stroke="#191970" d="M811.1703,-73C819.5388,-73 828.1966,-73 836.8505,-73"/>
<polygon fill="#191970" stroke="#191970" points="836.9901,-76.5001 846.99,-73 836.99,-69.5001 836.9901,-76.5001"/>
</g>
</g>
</svg>
