<?xml version="1.0" encoding="UTF-8" standalone="no"?>
<!DOCTYPE svg PUBLIC "-//W3C//DTD SVG 1.1//EN"
 "http://www.w3.org/Graphics/SVG/1.1/DTD/svg11.dtd">
<!-- Generated by graphviz version 2.40.1 (20161225.0304)
 -->
<!-- Title: boxptr_DAEUtil_verifyBoolWhenEquation1 Pages: 1 -->
<svg width="329pt" height="39pt"
 viewBox="0.00 0.00 329.00 39.00" xmlns="http://www.w3.org/2000/svg" xmlns:xlink="http://www.w3.org/1999/xlink">
<g id="graph0" class="graph" transform="scale(1 1) rotate(0) translate(4 35)">
<title>boxptr_DAEUtil_verifyBoolWhenEquation1</title>
<polygon fill="#ffffff" stroke="transparent" points="-4,4 -4,-35 325,-35 325,4 -4,4"/>
<!-- Node298 -->
<g id="node1" class="node">
<title>Node298</title>
<polygon fill="#bfbfbf" stroke="#000000" points="0,-.5 0,-30.5 134,-30.5 134,-.5 0,-.5"/>
<text text-anchor="start" x="8" y="-18.5" font-family="Helvetica,sans-Serif" font-size="10.00" fill="#000000">boxptr_DAEUtil_verifyBool</text>
<text text-anchor="middle" x="67" y="-7.5" font-family="Helvetica,sans-Serif" font-size="10.00" fill="#000000">WhenEquation1</text>
</g>
<!-- Node299 -->
<g id="node2" class="node">
<title>Node299</title>
<g id="a_node2"><a xlink:href="../../d0/d29/_d_a_e_util_8c.html#a0794552390186934263888e91457b9b5" target="_top" xlink:title="omc_DAEUtil_verifyBoolWhen\lEquation1">
<polygon fill="#ffffff" stroke="#000000" points="170,-.5 170,-30.5 321,-30.5 321,-.5 170,-.5"/>
<text text-anchor="start" x="178" y="-18.5" font-family="Helvetica,sans-Serif" font-size="10.00" fill="#000000">omc_DAEUtil_verifyBoolWhen</text>
<text text-anchor="middle" x="245.5" y="-7.5" font-family="Helvetica,sans-Serif" font-size="10.00" fill="#000000">Equation1</text>
</a>
</g>
</g>
<!-- Node298&#45;&gt;Node299 -->
<g id="edge1" class="edge">
<title>Node298&#45;&gt;Node299</title>
<path fill="none" stroke="#191970" d="M134.2288,-15.5C142.6106,-15.5 151.2687,-15.5 159.8817,-15.5"/>
<polygon fill="#191970" stroke="#191970" points="159.9526,-19.0001 169.9526,-15.5 159.9525,-12.0001 159.9526,-19.0001"/>
</g>
</g>
</svg>
