<?xml version="1.0" encoding="UTF-8" standalone="no"?>
<!DOCTYPE svg PUBLIC "-//W3C//DTD SVG 1.1//EN"
 "http://www.w3.org/Graphics/SVG/1.1/DTD/svg11.dtd">
<!-- Generated by graphviz version 2.40.1 (20161225.0304)
 -->
<!-- Title: omc_DAEUtil_topLevelInput Pages: 1 -->
<svg width="1525pt" height="682pt"
 viewBox="0.00 0.00 1525.00 682.00" xmlns="http://www.w3.org/2000/svg" xmlns:xlink="http://www.w3.org/1999/xlink">
<g id="graph0" class="graph" transform="scale(1 1) rotate(0) translate(4 678)">
<title>omc_DAEUtil_topLevelInput</title>
<polygon fill="#ffffff" stroke="transparent" points="-4,4 -4,-678 1521,-678 1521,4 -4,4"/>
<!-- Node2719 -->
<g id="node1" class="node">
<title>Node2719</title>
<polygon fill="#bfbfbf" stroke="#000000" points="0,-337 0,-356 140,-356 140,-337 0,-337"/>
<text text-anchor="middle" x="70" y="-344" font-family="Helvetica,sans-Serif" font-size="10.00" fill="#000000">omc_DAEUtil_topLevelInput</text>
</g>
<!-- Node2720 -->
<g id="node2" class="node">
<title>Node2720</title>
<g id="a_node2"><a xlink:href="../../d7/d3b/_backend_d_a_e_create_8c.html#a4d64b33c6c0bc6eda70f3f43b8f4bc04" target="_top" xlink:title="omc_BackendDAECreate\l_lowerKnownVarkind">
<polygon fill="#ffffff" stroke="#000000" points="199.5,-589.5 199.5,-619.5 328.5,-619.5 328.5,-589.5 199.5,-589.5"/>
<text text-anchor="start" x="207.5" y="-607.5" font-family="Helvetica,sans-Serif" font-size="10.00" fill="#000000">omc_BackendDAECreate</text>
<text text-anchor="middle" x="264" y="-596.5" font-family="Helvetica,sans-Serif" font-size="10.00" fill="#000000">_lowerKnownVarkind</text>
</a>
</g>
</g>
<!-- Node2719&#45;&gt;Node2720 -->
<g id="edge1" class="edge">
<title>Node2719&#45;&gt;Node2720</title>
<path fill="none" stroke="#191970" d="M78.6328,-365.5855C94.7556,-400.0594 131.8387,-474.0886 176,-527.5 196.0506,-551.7504 224.0813,-574.8627 243.0783,-589.3251"/>
<polygon fill="#191970" stroke="#191970" points="81.6821,-363.8398 74.3174,-356.2232 75.3249,-366.77 81.6821,-363.8398"/>
</g>
<!-- Node2722 -->
<g id="node4" class="node">
<title>Node2722</title>
<g id="a_node4"><a xlink:href="../../d7/d3b/_backend_d_a_e_create_8c.html#a115f8d191e3043303d7324a672f59418" target="_top" xlink:title="omc_BackendDAECreate\l_lowerVarkind">
<polygon fill="#ffffff" stroke="#000000" points="199.5,-487.5 199.5,-517.5 328.5,-517.5 328.5,-487.5 199.5,-487.5"/>
<text text-anchor="start" x="207.5" y="-505.5" font-family="Helvetica,sans-Serif" font-size="10.00" fill="#000000">omc_BackendDAECreate</text>
<text text-anchor="middle" x="264" y="-494.5" font-family="Helvetica,sans-Serif" font-size="10.00" fill="#000000">_lowerVarkind</text>
</a>
</g>
</g>
<!-- Node2719&#45;&gt;Node2722 -->
<g id="edge3" class="edge">
<title>Node2719&#45;&gt;Node2722</title>
<path fill="none" stroke="#191970" d="M90.02,-362.5986C127.6674,-392.8717 208.5135,-457.882 245.2029,-487.3848"/>
<polygon fill="#191970" stroke="#191970" points="91.8298,-359.5627 81.8435,-356.0237 87.4432,-365.0178 91.8298,-359.5627"/>
</g>
<!-- Node2724 -->
<g id="node6" class="node">
<title>Node2724</title>
<g id="a_node6"><a xlink:href="../../d5/dd6/_backend_variable_8h.html#a8af63749be0218a404efb97868f7999e" target="_top" xlink:title="omc_BackendVariable\l_isVarOnTopLevelAndInput">
<polygon fill="#ffffff" stroke="#000000" points="196,-331.5 196,-361.5 332,-361.5 332,-331.5 196,-331.5"/>
<text text-anchor="start" x="204" y="-349.5" font-family="Helvetica,sans-Serif" font-size="10.00" fill="#000000">omc_BackendVariable</text>
<text text-anchor="middle" x="264" y="-338.5" font-family="Helvetica,sans-Serif" font-size="10.00" fill="#000000">_isVarOnTopLevelAndInput</text>
</a>
</g>
</g>
<!-- Node2719&#45;&gt;Node2724 -->
<g id="edge5" class="edge">
<title>Node2719&#45;&gt;Node2724</title>
<path fill="none" stroke="#191970" d="M150.3591,-346.5C165.4209,-346.5 181.0344,-346.5 195.6881,-346.5"/>
<polygon fill="#191970" stroke="#191970" points="150.0385,-343.0001 140.0385,-346.5 150.0384,-350.0001 150.0385,-343.0001"/>
</g>
<!-- Node2757 -->
<g id="node39" class="node">
<title>Node2757</title>
<g id="a_node39"><a xlink:href="../../d1/d2f/_check_model_8c.html#a5702aa3fbeb3e06a93009da08b3201a6" target="_top" xlink:title="omc_CheckModel_countVarEqnSize">
<polygon fill="#ffffff" stroke="#000000" points="176,-293 176,-312 352,-312 352,-293 176,-293"/>
<text text-anchor="middle" x="264" y="-300" font-family="Helvetica,sans-Serif" font-size="10.00" fill="#000000">omc_CheckModel_countVarEqnSize</text>
</a>
</g>
</g>
<!-- Node2719&#45;&gt;Node2757 -->
<g id="edge40" class="edge">
<title>Node2719&#45;&gt;Node2757</title>
<path fill="none" stroke="#191970" d="M121.9572,-334.7159C153.2742,-327.6131 192.6432,-318.684 221.987,-312.0287"/>
<polygon fill="#191970" stroke="#191970" points="121.0732,-331.3274 112.0951,-336.9527 122.6216,-338.154 121.0732,-331.3274"/>
</g>
<!-- Node2758 -->
<g id="node40" class="node">
<title>Node2758</title>
<g id="a_node40"><a xlink:href="../../dd/d15/_d_a_e_util_8h.html#ae2de83f498025639cd6c4adc7371942f" target="_top" xlink:title="boxptr_DAEUtil_topLevelInput">
<polygon fill="#ffffff" stroke="#000000" points="189.5,-255 189.5,-274 338.5,-274 338.5,-255 189.5,-255"/>
<text text-anchor="middle" x="264" y="-262" font-family="Helvetica,sans-Serif" font-size="10.00" fill="#000000">boxptr_DAEUtil_topLevelInput</text>
</a>
</g>
</g>
<!-- Node2719&#45;&gt;Node2758 -->
<g id="edge41" class="edge">
<title>Node2719&#45;&gt;Node2758</title>
<path fill="none" stroke="#191970" d="M91.3423,-330.9816C112.0226,-316.6491 144.7592,-295.7772 176,-283.5 185.7464,-279.6698 196.4189,-276.543 206.8651,-274.0139"/>
<polygon fill="#191970" stroke="#191970" points="89.153,-328.2427 82.9973,-336.8658 93.1869,-333.9635 89.153,-328.2427"/>
</g>
<!-- Node2721 -->
<g id="node3" class="node">
<title>Node2721</title>
<g id="a_node3"><a xlink:href="../../d7/d3b/_backend_d_a_e_create_8c.html#af4b558752915a72fda8ff7e5ed43b281" target="_top" xlink:title="omc_BackendDAECreate\l_lowerKnownVar">
<polygon fill="#ffffff" stroke="#000000" points="402,-643.5 402,-673.5 531,-673.5 531,-643.5 402,-643.5"/>
<text text-anchor="start" x="410" y="-661.5" font-family="Helvetica,sans-Serif" font-size="10.00" fill="#000000">omc_BackendDAECreate</text>
<text text-anchor="middle" x="466.5" y="-650.5" font-family="Helvetica,sans-Serif" font-size="10.00" fill="#000000">_lowerKnownVar</text>
</a>
</g>
</g>
<!-- Node2720&#45;&gt;Node2721 -->
<g id="edge2" class="edge">
<title>Node2720&#45;&gt;Node2721</title>
<path fill="none" stroke="#191970" d="M330.1165,-622.1311C355.9369,-629.0165 385.2371,-636.8299 410.0441,-643.4451"/>
<polygon fill="#191970" stroke="#191970" points="330.9717,-618.7369 320.4075,-619.542 329.168,-625.5005 330.9717,-618.7369"/>
</g>
<!-- Node2723 -->
<g id="node5" class="node">
<title>Node2723</title>
<g id="a_node5"><a xlink:href="../../d7/d3b/_backend_d_a_e_create_8c.html#ae3a35c4ff5fbdfb77d323a594080e837" target="_top" xlink:title="omc_BackendDAECreate\l_lowerDynamicVar">
<polygon fill="#ffffff" stroke="#000000" points="402,-594.5 402,-624.5 531,-624.5 531,-594.5 402,-594.5"/>
<text text-anchor="start" x="410" y="-612.5" font-family="Helvetica,sans-Serif" font-size="10.00" fill="#000000">omc_BackendDAECreate</text>
<text text-anchor="middle" x="466.5" y="-601.5" font-family="Helvetica,sans-Serif" font-size="10.00" fill="#000000">_lowerDynamicVar</text>
</a>
</g>
</g>
<!-- Node2722&#45;&gt;Node2723 -->
<g id="edge4" class="edge">
<title>Node2722&#45;&gt;Node2723</title>
<path fill="none" stroke="#191970" d="M290.6955,-523.7533C314.9139,-542.1855 352.2039,-568.504 388,-585.5 394.9518,-588.8007 402.4637,-591.7768 409.99,-594.4184"/>
<polygon fill="#191970" stroke="#191970" points="292.7557,-520.9222 282.6982,-517.5907 288.4829,-526.4669 292.7557,-520.9222"/>
</g>
<!-- Node2725 -->
<g id="node7" class="node">
<title>Node2725</title>
<g id="a_node7"><a xlink:href="../../d7/d3b/_backend_d_a_e_create_8c.html#add6729b608aa5a07b506e71ca43d72b3" target="_top" xlink:title="omc_BackendDAECreate\l_replaceableAlias">
<polygon fill="#ffffff" stroke="#000000" points="402,-545.5 402,-575.5 531,-575.5 531,-545.5 402,-545.5"/>
<text text-anchor="start" x="410" y="-563.5" font-family="Helvetica,sans-Serif" font-size="10.00" fill="#000000">omc_BackendDAECreate</text>
<text text-anchor="middle" x="466.5" y="-552.5" font-family="Helvetica,sans-Serif" font-size="10.00" fill="#000000">_replaceableAlias</text>
</a>
</g>
</g>
<!-- Node2724&#45;&gt;Node2725 -->
<g id="edge6" class="edge">
<title>Node2724&#45;&gt;Node2725</title>
<path fill="none" stroke="#191970" d="M280.2636,-370.3873C298.1057,-396.71 327.4701,-440.3769 352,-478.5 368.4169,-504.0143 363.9578,-517.9942 388,-536.5 392.4043,-539.8901 397.2886,-542.8043 402.4043,-545.3089"/>
<polygon fill="#191970" stroke="#191970" points="282.9721,-368.1456 274.4599,-361.8375 277.1804,-372.0771 282.9721,-368.1456"/>
</g>
<!-- Node2733 -->
<g id="node15" class="node">
<title>Node2733</title>
<g id="a_node15"><a xlink:href="../../de/d7d/_backend_d_a_e_optimize_8c.html#a0e19486c35e576de5064b948b208cde1" target="_top" xlink:title="omc_BackendDAEOptimize\l_toplevelInputOrUnfixed">
<polygon fill="#ffffff" stroke="#000000" points="397,-496.5 397,-526.5 536,-526.5 536,-496.5 397,-496.5"/>
<text text-anchor="start" x="405" y="-514.5" font-family="Helvetica,sans-Serif" font-size="10.00" fill="#000000">omc_BackendDAEOptimize</text>
<text text-anchor="middle" x="466.5" y="-503.5" font-family="Helvetica,sans-Serif" font-size="10.00" fill="#000000">_toplevelInputOrUnfixed</text>
</a>
</g>
</g>
<!-- Node2724&#45;&gt;Node2733 -->
<g id="edge15" class="edge">
<title>Node2724&#45;&gt;Node2733</title>
<path fill="none" stroke="#191970" d="M278.85,-370.0161C299.6169,-401.0516 340.2032,-455.3812 388,-486.5 393.8733,-490.3239 400.3742,-493.5999 407.0472,-496.3976"/>
<polygon fill="#191970" stroke="#191970" points="281.7061,-367.989 273.2917,-361.551 275.8548,-371.8312 281.7061,-367.989"/>
</g>
<!-- Node2735 -->
<g id="node17" class="node">
<title>Node2735</title>
<g id="a_node17"><a xlink:href="../../de/d7d/_backend_d_a_e_optimize_8c.html#ab57953dab6c148563b56b7a70954eb40" target="_top" xlink:title="omc_BackendDAEOptimize\l_traverserExpsimplifyTimeIndep\lFuncCalls">
<polygon fill="#ffffff" stroke="#000000" points="388,-436 388,-477 545,-477 545,-436 388,-436"/>
<text text-anchor="start" x="396" y="-465" font-family="Helvetica,sans-Serif" font-size="10.00" fill="#000000">omc_BackendDAEOptimize</text>
<text text-anchor="start" x="396" y="-454" font-family="Helvetica,sans-Serif" font-size="10.00" fill="#000000">_traverserExpsimplifyTimeIndep</text>
<text text-anchor="middle" x="466.5" y="-443" font-family="Helvetica,sans-Serif" font-size="10.00" fill="#000000">FuncCalls</text>
</a>
</g>
</g>
<!-- Node2724&#45;&gt;Node2735 -->
<g id="edge17" class="edge">
<title>Node2724&#45;&gt;Node2735</title>
<path fill="none" stroke="#191970" d="M293.1644,-367.7944C317.6592,-385.0625 354.0099,-409.2768 388,-426.5 394.5072,-429.7973 401.467,-432.9509 408.4545,-435.8913"/>
<polygon fill="#191970" stroke="#191970" points="294.8796,-364.7192 284.7027,-361.7725 290.8208,-370.4224 294.8796,-364.7192"/>
</g>
<!-- Node2736 -->
<g id="node18" class="node">
<title>Node2736</title>
<g id="a_node18"><a xlink:href="../../d5/dd6/_backend_variable_8h.html#a5031ba58929a27e595d6fb52c71ee9d0" target="_top" xlink:title="omc_BackendVariable\l_isTopLevelInputOrOutput">
<polygon fill="#ffffff" stroke="#000000" points="401,-386.5 401,-416.5 532,-416.5 532,-386.5 401,-386.5"/>
<text text-anchor="start" x="409" y="-404.5" font-family="Helvetica,sans-Serif" font-size="10.00" fill="#000000">omc_BackendVariable</text>
<text text-anchor="middle" x="466.5" y="-393.5" font-family="Helvetica,sans-Serif" font-size="10.00" fill="#000000">_isTopLevelInputOrOutput</text>
</a>
</g>
</g>
<!-- Node2724&#45;&gt;Node2736 -->
<g id="edge18" class="edge">
<title>Node2724&#45;&gt;Node2736</title>
<path fill="none" stroke="#191970" d="M329.2647,-364.2262C355.7034,-371.4071 385.9052,-379.6101 411.2329,-386.4892"/>
<polygon fill="#191970" stroke="#191970" points="329.9018,-360.7725 319.334,-361.529 328.067,-367.5278 329.9018,-360.7725"/>
</g>
<!-- Node2738 -->
<g id="node20" class="node">
<title>Node2738</title>
<g id="a_node20"><a xlink:href="../../d5/dd6/_backend_variable_8h.html#a69b44fc59c8c637f82e75a027678820d" target="_top" xlink:title="omc_BackendVariable\l_isVarOnTopLevelAndInputNo\lDerInput">
<polygon fill="#ffffff" stroke="#000000" points="392,-326 392,-367 541,-367 541,-326 392,-326"/>
<text text-anchor="start" x="400" y="-355" font-family="Helvetica,sans-Serif" font-size="10.00" fill="#000000">omc_BackendVariable</text>
<text text-anchor="start" x="400" y="-344" font-family="Helvetica,sans-Serif" font-size="10.00" fill="#000000">_isVarOnTopLevelAndInputNo</text>
<text text-anchor="middle" x="466.5" y="-333" font-family="Helvetica,sans-Serif" font-size="10.00" fill="#000000">DerInput</text>
</a>
</g>
</g>
<!-- Node2724&#45;&gt;Node2738 -->
<g id="edge20" class="edge">
<title>Node2724&#45;&gt;Node2738</title>
<path fill="none" stroke="#191970" d="M342.3028,-346.5C358.6081,-346.5 375.7515,-346.5 391.9182,-346.5"/>
<polygon fill="#191970" stroke="#191970" points="342.275,-343.0001 332.275,-346.5 342.2749,-350.0001 342.275,-343.0001"/>
</g>
<!-- Node2740 -->
<g id="node22" class="node">
<title>Node2740</title>
<g id="a_node22"><a xlink:href="../../d5/dd6/_backend_variable_8h.html#a96cf4f15102d453564389fc75bb1e9f0" target="_top" xlink:title="boxptr_BackendVariable\l_isVarOnTopLevelAndInput">
<polygon fill="#ffffff" stroke="#000000" points="398.5,-276.5 398.5,-306.5 534.5,-306.5 534.5,-276.5 398.5,-276.5"/>
<text text-anchor="start" x="406.5" y="-294.5" font-family="Helvetica,sans-Serif" font-size="10.00" fill="#000000">boxptr_BackendVariable</text>
<text text-anchor="middle" x="466.5" y="-283.5" font-family="Helvetica,sans-Serif" font-size="10.00" fill="#000000">_isVarOnTopLevelAndInput</text>
</a>
</g>
</g>
<!-- Node2724&#45;&gt;Node2740 -->
<g id="edge22" class="edge">
<title>Node2724&#45;&gt;Node2740</title>
<path fill="none" stroke="#191970" d="M329.2647,-328.7738C355.7034,-321.5929 385.9052,-313.3899 411.2329,-306.5108"/>
<polygon fill="#191970" stroke="#191970" points="328.067,-325.4722 319.334,-331.471 329.9018,-332.2275 328.067,-325.4722"/>
</g>
<!-- Node2741 -->
<g id="node23" class="node">
<title>Node2741</title>
<g id="a_node23"><a xlink:href="../../d7/dce/_dynamic_optimization_8c.html#a6611cbc90a6061a545fb1193ed543eee" target="_top" xlink:title="omc_DynamicOptimization\l_traverserExpinputDerivatives\lForDynOpt">
<polygon fill="#ffffff" stroke="#000000" points="392.5,-216 392.5,-257 540.5,-257 540.5,-216 392.5,-216"/>
<text text-anchor="start" x="400.5" y="-245" font-family="Helvetica,sans-Serif" font-size="10.00" fill="#000000">omc_DynamicOptimization</text>
<text text-anchor="start" x="400.5" y="-234" font-family="Helvetica,sans-Serif" font-size="10.00" fill="#000000">_traverserExpinputDerivatives</text>
<text text-anchor="middle" x="466.5" y="-223" font-family="Helvetica,sans-Serif" font-size="10.00" fill="#000000">ForDynOpt</text>
</a>
</g>
</g>
<!-- Node2724&#45;&gt;Node2741 -->
<g id="edge23" class="edge">
<title>Node2724&#45;&gt;Node2741</title>
<path fill="none" stroke="#191970" d="M341.1923,-328.2107C344.9757,-326.202 348.6067,-323.9731 352,-321.5 375.3105,-304.5112 365.5614,-285.6248 388,-267.5 392.7874,-263.633 398.1169,-260.2004 403.6817,-257.1638"/>
<polygon fill="#191970" stroke="#191970" points="339.6635,-325.0621 332.1281,-332.5097 342.6633,-331.3868 339.6635,-325.0621"/>
</g>
<!-- Node2743 -->
<g id="node25" class="node">
<title>Node2743</title>
<g id="a_node25"><a xlink:href="../../d6/dff/_mathematica_dump_8c.html#ac17d86f8551fb7dfb81126813f00e4eb" target="_top" xlink:title="omc_MathematicaDump\l_printMmaInputStr">
<polygon fill="#ffffff" stroke="#000000" points="405,-166.5 405,-196.5 528,-196.5 528,-166.5 405,-166.5"/>
<text text-anchor="start" x="413" y="-184.5" font-family="Helvetica,sans-Serif" font-size="10.00" fill="#000000">omc_MathematicaDump</text>
<text text-anchor="middle" x="466.5" y="-173.5" font-family="Helvetica,sans-Serif" font-size="10.00" fill="#000000">_printMmaInputStr</text>
</a>
</g>
</g>
<!-- Node2724&#45;&gt;Node2743 -->
<g id="edge25" class="edge">
<title>Node2724&#45;&gt;Node2743</title>
<path fill="none" stroke="#191970" d="M341.1225,-329.9455C345.0425,-327.5012 348.7108,-324.7029 352,-321.5 390.3704,-284.1362 350.2231,-244.4638 388,-206.5 392.8426,-201.6335 398.6289,-197.713 404.835,-194.5549"/>
<polygon fill="#191970" stroke="#191970" points="339.3376,-326.9313 332.1885,-334.7506 342.6534,-333.0962 339.3376,-326.9313"/>
</g>
<!-- Node2744 -->
<g id="node26" class="node">
<title>Node2744</title>
<g id="a_node26"><a xlink:href="../../d4/dd2/_remove_simple_equations_8c.html#a463755fcb38ab31380e942792452e7b0" target="_top" xlink:title="omc_RemoveSimpleEquations\l_replaceableAlias">
<polygon fill="#ffffff" stroke="#000000" points="391,-117.5 391,-147.5 542,-147.5 542,-117.5 391,-117.5"/>
<text text-anchor="start" x="399" y="-135.5" font-family="Helvetica,sans-Serif" font-size="10.00" fill="#000000">omc_RemoveSimpleEquations</text>
<text text-anchor="middle" x="466.5" y="-124.5" font-family="Helvetica,sans-Serif" font-size="10.00" fill="#000000">_replaceableAlias</text>
</a>
</g>
</g>
<!-- Node2724&#45;&gt;Node2744 -->
<g id="edge26" class="edge">
<title>Node2724&#45;&gt;Node2744</title>
<path fill="none" stroke="#191970" d="M341.2293,-330.4283C345.1535,-327.8665 348.7908,-324.9102 352,-321.5 403.1415,-267.1554 337.7213,-212.6438 388,-157.5 391.4692,-153.6951 395.5151,-150.4659 399.9068,-147.7258"/>
<polygon fill="#191970" stroke="#191970" points="339.2742,-327.5106 332.235,-335.429 342.6758,-333.6286 339.2742,-327.5106"/>
</g>
<!-- Node2754 -->
<g id="node36" class="node">
<title>Node2754</title>
<g id="a_node36"><a xlink:href="../../d4/dd2/_remove_simple_equations_8c.html#afe07e4bb7203cb83b4673a865d77afa5" target="_top" xlink:title="omc_RemoveSimpleEquations\l_toplevelInputOrUnfixed">
<polygon fill="#ffffff" stroke="#000000" points="391,-68.5 391,-98.5 542,-98.5 542,-68.5 391,-68.5"/>
<text text-anchor="start" x="399" y="-86.5" font-family="Helvetica,sans-Serif" font-size="10.00" fill="#000000">omc_RemoveSimpleEquations</text>
<text text-anchor="middle" x="466.5" y="-75.5" font-family="Helvetica,sans-Serif" font-size="10.00" fill="#000000">_toplevelInputOrUnfixed</text>
</a>
</g>
</g>
<!-- Node2724&#45;&gt;Node2754 -->
<g id="edge37" class="edge">
<title>Node2724&#45;&gt;Node2754</title>
<path fill="none" stroke="#191970" d="M340.8792,-330.9782C344.9664,-328.2885 348.7287,-325.153 352,-321.5 416.3417,-249.6511 324.3767,-179.9859 388,-107.5 391.0083,-104.0726 394.4911,-101.1271 398.2828,-98.5965"/>
<polygon fill="#191970" stroke="#191970" points="339.1057,-327.9599 332.0865,-335.896 342.5227,-334.0692 339.1057,-327.9599"/>
</g>
<!-- Node2756 -->
<g id="node38" class="node">
<title>Node2756</title>
<g id="a_node38"><a xlink:href="../../db/d13/_sim_code_util_8c.html#acc925b772f20c142a786c479142e8a87" target="_top" xlink:title="omc_SimCodeUtil_traverse\lKnVarsToSimEqSystem">
<polygon fill="#ffffff" stroke="#000000" points="398,-19.5 398,-49.5 535,-49.5 535,-19.5 398,-19.5"/>
<text text-anchor="start" x="406" y="-37.5" font-family="Helvetica,sans-Serif" font-size="10.00" fill="#000000">omc_SimCodeUtil_traverse</text>
<text text-anchor="middle" x="466.5" y="-26.5" font-family="Helvetica,sans-Serif" font-size="10.00" fill="#000000">KnVarsToSimEqSystem</text>
</a>
</g>
</g>
<!-- Node2724&#45;&gt;Node2756 -->
<g id="edge39" class="edge">
<title>Node2724&#45;&gt;Node2756</title>
<path fill="none" stroke="#191970" d="M341.0099,-331.0934C345.0655,-328.3759 348.785,-325.2027 352,-321.5 429.3506,-232.4163 311.5401,-148.3493 388,-58.5 390.8631,-55.1355 394.184,-52.2339 397.8096,-49.7324"/>
<polygon fill="#191970" stroke="#191970" points="339.2366,-328.0754 332.2672,-336.0554 342.6918,-334.1633 339.2366,-328.0754"/>
</g>
<!-- Node2726 -->
<g id="node8" class="node">
<title>Node2726</title>
<g id="a_node8"><a xlink:href="../../d7/d3b/_backend_d_a_e_create_8c.html#a8e8945b0a799f70c27ad77cbc8ac6565" target="_top" xlink:title="omc_BackendDAECreate\l_selectAliasVar">
<polygon fill="#ffffff" stroke="#000000" points="609.5,-545.5 609.5,-575.5 738.5,-575.5 738.5,-545.5 609.5,-545.5"/>
<text text-anchor="start" x="617.5" y="-563.5" font-family="Helvetica,sans-Serif" font-size="10.00" fill="#000000">omc_BackendDAECreate</text>
<text text-anchor="middle" x="674" y="-552.5" font-family="Helvetica,sans-Serif" font-size="10.00" fill="#000000">_selectAliasVar</text>
</a>
</g>
</g>
<!-- Node2725&#45;&gt;Node2726 -->
<g id="edge7" class="edge">
<title>Node2725&#45;&gt;Node2726</title>
<path fill="none" stroke="#191970" d="M541.0939,-560.5C563.3609,-560.5 587.5779,-560.5 609.1659,-560.5"/>
<polygon fill="#191970" stroke="#191970" points="541.0169,-557.0001 531.0169,-560.5 541.0168,-564.0001 541.0169,-557.0001"/>
</g>
<!-- Node2727 -->
<g id="node9" class="node">
<title>Node2727</title>
<g id="a_node9"><a xlink:href="../../d7/d3b/_backend_d_a_e_create_8c.html#abe630a4d08d74f07845b0cd3a947d0a6" target="_top" xlink:title="boxptr_BackendDAECreate\l_selectAliasVar">
<polygon fill="#ffffff" stroke="#000000" points="814,-569.5 814,-599.5 951,-599.5 951,-569.5 814,-569.5"/>
<text text-anchor="start" x="822" y="-587.5" font-family="Helvetica,sans-Serif" font-size="10.00" fill="#000000">boxptr_BackendDAECreate</text>
<text text-anchor="middle" x="882.5" y="-576.5" font-family="Helvetica,sans-Serif" font-size="10.00" fill="#000000">_selectAliasVar</text>
</a>
</g>
</g>
<!-- Node2726&#45;&gt;Node2727 -->
<g id="edge8" class="edge">
<title>Node2726&#45;&gt;Node2727</title>
<path fill="none" stroke="#191970" d="M748.5216,-569.078C769.8448,-571.5325 792.9786,-574.1954 813.927,-576.6067"/>
<polygon fill="#191970" stroke="#191970" points="748.8775,-565.596 738.5428,-567.9294 748.077,-572.55 748.8775,-565.596"/>
</g>
<!-- Node2728 -->
<g id="node10" class="node">
<title>Node2728</title>
<g id="a_node10"><a xlink:href="../../d7/d3b/_backend_d_a_e_create_8c.html#a1488b94b9fc0335fdb97265a2babdfab" target="_top" xlink:title="omc_BackendDAECreate\l_selectAlias">
<polygon fill="#ffffff" stroke="#000000" points="818,-520.5 818,-550.5 947,-550.5 947,-520.5 818,-520.5"/>
<text text-anchor="start" x="826" y="-538.5" font-family="Helvetica,sans-Serif" font-size="10.00" fill="#000000">omc_BackendDAECreate</text>
<text text-anchor="middle" x="882.5" y="-527.5" font-family="Helvetica,sans-Serif" font-size="10.00" fill="#000000">_selectAlias</text>
</a>
</g>
</g>
<!-- Node2726&#45;&gt;Node2728 -->
<g id="edge9" class="edge">
<title>Node2726&#45;&gt;Node2728</title>
<path fill="none" stroke="#191970" d="M748.7735,-551.5343C771.3863,-548.823 796.015,-545.8699 817.9032,-543.2454"/>
<polygon fill="#191970" stroke="#191970" points="748.055,-548.0953 738.5428,-552.7611 748.8884,-555.0456 748.055,-548.0953"/>
</g>
<!-- Node2729 -->
<g id="node11" class="node">
<title>Node2729</title>
<g id="a_node11"><a xlink:href="../../d7/d3b/_backend_d_a_e_create_8c.html#afdddfaed9129c000dca6f95446ce9a93" target="_top" xlink:title="omc_BackendDAECreate\l_selectAliasLst">
<polygon fill="#ffffff" stroke="#000000" points="1013,-520.5 1013,-550.5 1142,-550.5 1142,-520.5 1013,-520.5"/>
<text text-anchor="start" x="1021" y="-538.5" font-family="Helvetica,sans-Serif" font-size="10.00" fill="#000000">omc_BackendDAECreate</text>
<text text-anchor="middle" x="1077.5" y="-527.5" font-family="Helvetica,sans-Serif" font-size="10.00" fill="#000000">_selectAliasLst</text>
</a>
</g>
</g>
<!-- Node2728&#45;&gt;Node2729 -->
<g id="edge10" class="edge">
<title>Node2728&#45;&gt;Node2729</title>
<path fill="none" stroke="#191970" d="M957.1872,-528.917C975.4755,-528.6447 994.8984,-528.7054 1012.6811,-529.099"/>
<polygon fill="#191970" stroke="#191970" points="957.0948,-525.418 947.1613,-529.1025 957.2244,-532.4168 957.0948,-525.418"/>
</g>
<!-- Node2730 -->
<g id="node12" class="node">
<title>Node2730</title>
<g id="a_node12"><a xlink:href="../../d7/d3b/_backend_d_a_e_create_8c.html#a80295911cbe47542425a52c045d72fc3" target="_top" xlink:title="omc_BackendDAECreate\l_handleAliasEquations2">
<polygon fill="#ffffff" stroke="#000000" points="1013,-471.5 1013,-501.5 1142,-501.5 1142,-471.5 1013,-471.5"/>
<text text-anchor="start" x="1021" y="-489.5" font-family="Helvetica,sans-Serif" font-size="10.00" fill="#000000">omc_BackendDAECreate</text>
<text text-anchor="middle" x="1077.5" y="-478.5" font-family="Helvetica,sans-Serif" font-size="10.00" fill="#000000">_handleAliasEquations2</text>
</a>
</g>
</g>
<!-- Node2728&#45;&gt;Node2730 -->
<g id="edge12" class="edge">
<title>Node2728&#45;&gt;Node2730</title>
<path fill="none" stroke="#191970" d="M952.0505,-518.0232C973.5431,-512.6225 997.0149,-506.7245 1017.7815,-501.5062"/>
<polygon fill="#191970" stroke="#191970" points="951.1771,-514.6338 942.3316,-520.4654 952.8831,-521.4227 951.1771,-514.6338"/>
</g>
<!-- Node2729&#45;&gt;Node2728 -->
<g id="edge11" class="edge">
<title>Node2729&#45;&gt;Node2728</title>
<path fill="none" stroke="#191970" d="M1002.6507,-542.0854C984.3556,-542.3557 964.9343,-542.2931 947.1613,-541.8975"/>
<polygon fill="#191970" stroke="#191970" points="1002.7471,-545.5843 1012.6811,-541.901 1002.6184,-538.5855 1002.7471,-545.5843"/>
</g>
<!-- Node2731 -->
<g id="node13" class="node">
<title>Node2731</title>
<g id="a_node13"><a xlink:href="../../d7/d3b/_backend_d_a_e_create_8c.html#a2daeb75db138731847c94038cecda0a8" target="_top" xlink:title="omc_BackendDAECreate\l_handleAliasEquations1">
<polygon fill="#ffffff" stroke="#000000" points="1208,-471.5 1208,-501.5 1337,-501.5 1337,-471.5 1208,-471.5"/>
<text text-anchor="start" x="1216" y="-489.5" font-family="Helvetica,sans-Serif" font-size="10.00" fill="#000000">omc_BackendDAECreate</text>
<text text-anchor="middle" x="1272.5" y="-478.5" font-family="Helvetica,sans-Serif" font-size="10.00" fill="#000000">_handleAliasEquations1</text>
</a>
</g>
</g>
<!-- Node2730&#45;&gt;Node2731 -->
<g id="edge13" class="edge">
<title>Node2730&#45;&gt;Node2731</title>
<path fill="none" stroke="#191970" d="M1152.1872,-486.5C1170.4755,-486.5 1189.8984,-486.5 1207.6811,-486.5"/>
<polygon fill="#191970" stroke="#191970" points="1152.1614,-483.0001 1142.1613,-486.5 1152.1613,-490.0001 1152.1614,-483.0001"/>
</g>
<!-- Node2732 -->
<g id="node14" class="node">
<title>Node2732</title>
<g id="a_node14"><a xlink:href="../../d7/d3b/_backend_d_a_e_create_8c.html#a4b03d4bd59d51f7fa5f7da2eca287521" target="_top" xlink:title="omc_BackendDAECreate\l_handleAliasEquations">
<polygon fill="#ffffff" stroke="#000000" points="1388,-471.5 1388,-501.5 1517,-501.5 1517,-471.5 1388,-471.5"/>
<text text-anchor="start" x="1396" y="-489.5" font-family="Helvetica,sans-Serif" font-size="10.00" fill="#000000">omc_BackendDAECreate</text>
<text text-anchor="middle" x="1452.5" y="-478.5" font-family="Helvetica,sans-Serif" font-size="10.00" fill="#000000">_handleAliasEquations</text>
</a>
</g>
</g>
<!-- Node2731&#45;&gt;Node2732 -->
<g id="edge14" class="edge">
<title>Node2731&#45;&gt;Node2732</title>
<path fill="none" stroke="#191970" d="M1347.3719,-486.5C1360.7789,-486.5 1374.6471,-486.5 1387.7399,-486.5"/>
<polygon fill="#191970" stroke="#191970" points="1347.2299,-483.0001 1337.2298,-486.5 1347.2298,-490.0001 1347.2299,-483.0001"/>
</g>
<!-- Node2734 -->
<g id="node16" class="node">
<title>Node2734</title>
<g id="a_node16"><a xlink:href="../../de/d7d/_backend_d_a_e_optimize_8c.html#a8c0102cb167fb7dea21302ca58518eb9" target="_top" xlink:title="boxptr_BackendDAEOptimize\l_toplevelInputOrUnfixed">
<polygon fill="#ffffff" stroke="#000000" points="600.5,-496.5 600.5,-526.5 747.5,-526.5 747.5,-496.5 600.5,-496.5"/>
<text text-anchor="start" x="608.5" y="-514.5" font-family="Helvetica,sans-Serif" font-size="10.00" fill="#000000">boxptr_BackendDAEOptimize</text>
<text text-anchor="middle" x="674" y="-503.5" font-family="Helvetica,sans-Serif" font-size="10.00" fill="#000000">_toplevelInputOrUnfixed</text>
</a>
</g>
</g>
<!-- Node2733&#45;&gt;Node2734 -->
<g id="edge16" class="edge">
<title>Node2733&#45;&gt;Node2734</title>
<path fill="none" stroke="#191970" d="M546.4589,-511.5C564.1505,-511.5 582.8176,-511.5 600.2487,-511.5"/>
<polygon fill="#191970" stroke="#191970" points="546.1718,-508.0001 536.1717,-511.5 546.1717,-515.0001 546.1718,-508.0001"/>
</g>
<!-- Node2737 -->
<g id="node19" class="node">
<title>Node2737</title>
<g id="a_node19"><a xlink:href="../../d5/dd6/_backend_variable_8h.html#a1836538b1584a25f473adb8ec545d916" target="_top" xlink:title="boxptr_BackendVariable\l_isTopLevelInputOrOutput">
<polygon fill="#ffffff" stroke="#000000" points="608.5,-386.5 608.5,-416.5 739.5,-416.5 739.5,-386.5 608.5,-386.5"/>
<text text-anchor="start" x="616.5" y="-404.5" font-family="Helvetica,sans-Serif" font-size="10.00" fill="#000000">boxptr_BackendVariable</text>
<text text-anchor="middle" x="674" y="-393.5" font-family="Helvetica,sans-Serif" font-size="10.00" fill="#000000">_isTopLevelInputOrOutput</text>
</a>
</g>
</g>
<!-- Node2736&#45;&gt;Node2737 -->
<g id="edge19" class="edge">
<title>Node2736&#45;&gt;Node2737</title>
<path fill="none" stroke="#191970" d="M542.3031,-401.5C563.9774,-401.5 587.41,-401.5 608.4169,-401.5"/>
<polygon fill="#191970" stroke="#191970" points="542.1543,-398.0001 532.1543,-401.5 542.1543,-405.0001 542.1543,-398.0001"/>
</g>
<!-- Node2739 -->
<g id="node21" class="node">
<title>Node2739</title>
<g id="a_node21"><a xlink:href="../../d5/dd6/_backend_variable_8h.html#ae7f398d2d4fdc6a065cab929d0f29e37" target="_top" xlink:title="boxptr_BackendVariable\l_isVarOnTopLevelAndInputNoDerInput">
<polygon fill="#ffffff" stroke="#000000" points="581,-331.5 581,-361.5 767,-361.5 767,-331.5 581,-331.5"/>
<text text-anchor="start" x="589" y="-349.5" font-family="Helvetica,sans-Serif" font-size="10.00" fill="#000000">boxptr_BackendVariable</text>
<text text-anchor="middle" x="674" y="-338.5" font-family="Helvetica,sans-Serif" font-size="10.00" fill="#000000">_isVarOnTopLevelAndInputNoDerInput</text>
</a>
</g>
</g>
<!-- Node2738&#45;&gt;Node2739 -->
<g id="edge21" class="edge">
<title>Node2738&#45;&gt;Node2739</title>
<path fill="none" stroke="#191970" d="M551.2091,-346.5C560.9872,-346.5 570.999,-346.5 580.8807,-346.5"/>
<polygon fill="#191970" stroke="#191970" points="551.1191,-343.0001 541.1191,-346.5 551.1191,-350.0001 551.1191,-343.0001"/>
</g>
<!-- Node2742 -->
<g id="node24" class="node">
<title>Node2742</title>
<g id="a_node24"><a xlink:href="../../d7/dce/_dynamic_optimization_8c.html#add2d9c0fe18deb492f79ea678731a9d9" target="_top" xlink:title="boxptr_DynamicOptimization\l_traverserExpinputDerivativesFor\lDynOpt">
<polygon fill="#ffffff" stroke="#000000" points="593,-236 593,-277 755,-277 755,-236 593,-236"/>
<text text-anchor="start" x="601" y="-265" font-family="Helvetica,sans-Serif" font-size="10.00" fill="#000000">boxptr_DynamicOptimization</text>
<text text-anchor="start" x="601" y="-254" font-family="Helvetica,sans-Serif" font-size="10.00" fill="#000000">_traverserExpinputDerivativesFor</text>
<text text-anchor="middle" x="674" y="-243" font-family="Helvetica,sans-Serif" font-size="10.00" fill="#000000">DynOpt</text>
</a>
</g>
</g>
<!-- Node2741&#45;&gt;Node2742 -->
<g id="edge24" class="edge">
<title>Node2741&#45;&gt;Node2742</title>
<path fill="none" stroke="#191970" d="M550.6079,-244.6068C564.5841,-245.9539 579.0539,-247.3486 592.9521,-248.6882"/>
<polygon fill="#191970" stroke="#191970" points="550.8232,-241.1114 540.5335,-243.6358 550.1515,-248.0791 550.8232,-241.1114"/>
</g>
<!-- Node2745 -->
<g id="node27" class="node">
<title>Node2745</title>
<g id="a_node27"><a xlink:href="../../d4/dd2/_remove_simple_equations_8c.html#af13e8aa19ad041f9552ca1040947f3d9" target="_top" xlink:title="omc_RemoveSimpleEquations\l_traverseAliasTree1">
<polygon fill="#ffffff" stroke="#000000" points="598.5,-186.5 598.5,-216.5 749.5,-216.5 749.5,-186.5 598.5,-186.5"/>
<text text-anchor="start" x="606.5" y="-204.5" font-family="Helvetica,sans-Serif" font-size="10.00" fill="#000000">omc_RemoveSimpleEquations</text>
<text text-anchor="middle" x="674" y="-193.5" font-family="Helvetica,sans-Serif" font-size="10.00" fill="#000000">_traverseAliasTree1</text>
</a>
</g>
</g>
<!-- Node2744&#45;&gt;Node2745 -->
<g id="edge27" class="edge">
<title>Node2744&#45;&gt;Node2745</title>
<path fill="none" stroke="#191970" d="M525.3463,-150.7994C531.9957,-152.998 538.6574,-155.2592 545,-157.5 561.1868,-163.2187 564.8239,-165.7512 581,-171.5 595.3871,-176.613 611.1527,-181.8388 625.5493,-186.4661"/>
<polygon fill="#191970" stroke="#191970" points="526.2441,-147.4107 515.6516,-147.6328 524.0707,-154.0648 526.2441,-147.4107"/>
</g>
<!-- Node2749 -->
<g id="node31" class="node">
<title>Node2749</title>
<g id="a_node31"><a xlink:href="../../d4/dd2/_remove_simple_equations_8c.html#a78d0e1cb491aedcbfcd967a377919a3f" target="_top" xlink:title="omc_RemoveSimpleEquations\l_handleSet">
<polygon fill="#ffffff" stroke="#000000" points="1002,-142.5 1002,-172.5 1153,-172.5 1153,-142.5 1002,-142.5"/>
<text text-anchor="start" x="1010" y="-160.5" font-family="Helvetica,sans-Serif" font-size="10.00" fill="#000000">omc_RemoveSimpleEquations</text>
<text text-anchor="middle" x="1077.5" y="-149.5" font-family="Helvetica,sans-Serif" font-size="10.00" fill="#000000">_handleSet</text>
</a>
</g>
</g>
<!-- Node2744&#45;&gt;Node2749 -->
<g id="edge33" class="edge">
<title>Node2744&#45;&gt;Node2749</title>
<path fill="none" stroke="#191970" d="M552.3063,-136.2785C561.985,-136.6954 571.7046,-137.1098 581,-137.5 730.112,-143.759 904.4316,-150.6922 1001.7926,-154.53"/>
<polygon fill="#191970" stroke="#191970" points="552.3962,-132.7793 542.2544,-135.8442 552.0939,-139.7727 552.3962,-132.7793"/>
</g>
<!-- Node2751 -->
<g id="node33" class="node">
<title>Node2751</title>
<g id="a_node33"><a xlink:href="../../d4/dd2/_remove_simple_equations_8c.html#aaa0f8aae2174c61697d7edc15eac2fb6" target="_top" xlink:title="boxptr_RemoveSimpleEquations\l_replaceableAlias">
<polygon fill="#ffffff" stroke="#000000" points="594.5,-98.5 594.5,-128.5 753.5,-128.5 753.5,-98.5 594.5,-98.5"/>
<text text-anchor="start" x="602.5" y="-116.5" font-family="Helvetica,sans-Serif" font-size="10.00" fill="#000000">boxptr_RemoveSimpleEquations</text>
<text text-anchor="middle" x="674" y="-105.5" font-family="Helvetica,sans-Serif" font-size="10.00" fill="#000000">_replaceableAlias</text>
</a>
</g>
</g>
<!-- Node2744&#45;&gt;Node2751 -->
<g id="edge34" class="edge">
<title>Node2744&#45;&gt;Node2751</title>
<path fill="none" stroke="#191970" d="M552.3046,-124.6432C566.1814,-123.3725 580.4999,-122.0615 594.226,-120.8046"/>
<polygon fill="#191970" stroke="#191970" points="551.9322,-121.1626 542.2931,-125.5599 552.5706,-128.1334 551.9322,-121.1626"/>
</g>
<!-- Node2752 -->
<g id="node34" class="node">
<title>Node2752</title>
<g id="a_node34"><a xlink:href="../../d4/dd2/_remove_simple_equations_8c.html#a59550f3cfb8f167d0c36d4f59139f481" target="_top" xlink:title="omc_RemoveSimpleEquations\l_getAlias2">
<polygon fill="#ffffff" stroke="#000000" points="598.5,-49.5 598.5,-79.5 749.5,-79.5 749.5,-49.5 598.5,-49.5"/>
<text text-anchor="start" x="606.5" y="-67.5" font-family="Helvetica,sans-Serif" font-size="10.00" fill="#000000">omc_RemoveSimpleEquations</text>
<text text-anchor="middle" x="674" y="-56.5" font-family="Helvetica,sans-Serif" font-size="10.00" fill="#000000">_getAlias2</text>
</a>
</g>
</g>
<!-- Node2744&#45;&gt;Node2752 -->
<g id="edge35" class="edge">
<title>Node2744&#45;&gt;Node2752</title>
<path fill="none" stroke="#191970" d="M528.1606,-114.0159C533.9024,-111.9495 539.5918,-109.7672 545,-107.5 561.6848,-100.5053 564.1267,-95.0268 581,-88.5 589.5535,-85.1914 598.7244,-82.1966 607.8525,-79.5336"/>
<polygon fill="#191970" stroke="#191970" points="526.7845,-110.7887 518.4884,-117.3785 529.0833,-117.4005 526.7845,-110.7887"/>
</g>
<!-- Node2746 -->
<g id="node28" class="node">
<title>Node2746</title>
<g id="a_node28"><a xlink:href="../../d4/dd2/_remove_simple_equations_8c.html#acfb5848dad3bf5ba0d41ea04d5dde55d" target="_top" xlink:title="boxptr_RemoveSimpleEquations\l_traverseAliasTree1">
<polygon fill="#ffffff" stroke="#000000" points="803,-235.5 803,-265.5 962,-265.5 962,-235.5 803,-235.5"/>
<text text-anchor="start" x="811" y="-253.5" font-family="Helvetica,sans-Serif" font-size="10.00" fill="#000000">boxptr_RemoveSimpleEquations</text>
<text text-anchor="middle" x="882.5" y="-242.5" font-family="Helvetica,sans-Serif" font-size="10.00" fill="#000000">_traverseAliasTree1</text>
</a>
</g>
</g>
<!-- Node2745&#45;&gt;Node2746 -->
<g id="edge28" class="edge">
<title>Node2745&#45;&gt;Node2746</title>
<path fill="none" stroke="#191970" d="M747.745,-218.8309C770.8936,-224.2712 796.2428,-230.2285 818.6471,-235.4938"/>
<polygon fill="#191970" stroke="#191970" points="748.5094,-215.4153 737.9738,-216.5346 746.9079,-222.2297 748.5094,-215.4153"/>
</g>
<!-- Node2747 -->
<g id="node29" class="node">
<title>Node2747</title>
<g id="a_node29"><a xlink:href="../../d4/dd2/_remove_simple_equations_8c.html#ad21bceafd4d8fcac129b39c962f0d0c0" target="_top" xlink:title="omc_RemoveSimpleEquations\l_traverseAliasTree">
<polygon fill="#ffffff" stroke="#000000" points="807,-186.5 807,-216.5 958,-216.5 958,-186.5 807,-186.5"/>
<text text-anchor="start" x="815" y="-204.5" font-family="Helvetica,sans-Serif" font-size="10.00" fill="#000000">omc_RemoveSimpleEquations</text>
<text text-anchor="middle" x="882.5" y="-193.5" font-family="Helvetica,sans-Serif" font-size="10.00" fill="#000000">_traverseAliasTree</text>
</a>
</g>
</g>
<!-- Node2745&#45;&gt;Node2747 -->
<g id="edge29" class="edge">
<title>Node2745&#45;&gt;Node2747</title>
<path fill="none" stroke="#191970" d="M759.733,-201.5C775.3502,-201.5 791.5401,-201.5 806.8398,-201.5"/>
<polygon fill="#191970" stroke="#191970" points="759.5681,-198.0001 749.5681,-201.5 759.568,-205.0001 759.5681,-198.0001"/>
</g>
<!-- Node2748 -->
<g id="node30" class="node">
<title>Node2748</title>
<g id="a_node30"><a xlink:href="../../d4/dd2/_remove_simple_equations_8c.html#ab3f927a140ea34a962803d9432b3eb09" target="_top" xlink:title="boxptr_RemoveSimpleEquations\l_traverseAliasTree">
<polygon fill="#ffffff" stroke="#000000" points="998,-191.5 998,-221.5 1157,-221.5 1157,-191.5 998,-191.5"/>
<text text-anchor="start" x="1006" y="-209.5" font-family="Helvetica,sans-Serif" font-size="10.00" fill="#000000">boxptr_RemoveSimpleEquations</text>
<text text-anchor="middle" x="1077.5" y="-198.5" font-family="Helvetica,sans-Serif" font-size="10.00" fill="#000000">_traverseAliasTree</text>
</a>
</g>
</g>
<!-- Node2747&#45;&gt;Node2748 -->
<g id="edge30" class="edge">
<title>Node2747&#45;&gt;Node2748</title>
<path fill="none" stroke="#191970" d="M968.2815,-203.6995C978.0547,-203.9501 987.9874,-204.2048 997.6789,-204.4533"/>
<polygon fill="#191970" stroke="#191970" points="968.2577,-200.1979 958.1712,-203.4403 968.0782,-207.1956 968.2577,-200.1979"/>
</g>
<!-- Node2747&#45;&gt;Node2749 -->
<g id="edge31" class="edge">
<title>Node2747&#45;&gt;Node2749</title>
<path fill="none" stroke="#191970" d="M959.0305,-184.2316C976.1672,-180.3648 994.2112,-176.2934 1010.9066,-172.5262"/>
<polygon fill="#191970" stroke="#191970" points="958.0469,-180.8654 949.0625,-186.4808 959.5877,-187.6938 958.0469,-180.8654"/>
</g>
<!-- Node2750 -->
<g id="node32" class="node">
<title>Node2750</title>
<g id="a_node32"><a xlink:href="../../d4/dd2/_remove_simple_equations_8c.html#ac229e48827a2e4b5c2a53b7760cfa8f9" target="_top" xlink:title="boxptr_RemoveSimpleEquations\l_handleSet">
<polygon fill="#ffffff" stroke="#000000" points="1193,-142.5 1193,-172.5 1352,-172.5 1352,-142.5 1193,-142.5"/>
<text text-anchor="start" x="1201" y="-160.5" font-family="Helvetica,sans-Serif" font-size="10.00" fill="#000000">boxptr_RemoveSimpleEquations</text>
<text text-anchor="middle" x="1272.5" y="-149.5" font-family="Helvetica,sans-Serif" font-size="10.00" fill="#000000">_handleSet</text>
</a>
</g>
</g>
<!-- Node2749&#45;&gt;Node2750 -->
<g id="edge32" class="edge">
<title>Node2749&#45;&gt;Node2750</title>
<path fill="none" stroke="#191970" d="M1163.2815,-157.5C1173.0547,-157.5 1182.9874,-157.5 1192.6789,-157.5"/>
<polygon fill="#191970" stroke="#191970" points="1163.1712,-154.0001 1153.1712,-157.5 1163.1712,-161.0001 1163.1712,-154.0001"/>
</g>
<!-- Node2753 -->
<g id="node35" class="node">
<title>Node2753</title>
<g id="a_node35"><a xlink:href="../../d4/dd2/_remove_simple_equations_8c.html#a0d21486b8776cf518af0169d8037b9c6" target="_top" xlink:title="boxptr_RemoveSimpleEquations\l_getAlias2">
<polygon fill="#ffffff" stroke="#000000" points="803,-49.5 803,-79.5 962,-79.5 962,-49.5 803,-49.5"/>
<text text-anchor="start" x="811" y="-67.5" font-family="Helvetica,sans-Serif" font-size="10.00" fill="#000000">boxptr_RemoveSimpleEquations</text>
<text text-anchor="middle" x="882.5" y="-56.5" font-family="Helvetica,sans-Serif" font-size="10.00" fill="#000000">_getAlias2</text>
</a>
</g>
</g>
<!-- Node2752&#45;&gt;Node2753 -->
<g id="edge36" class="edge">
<title>Node2752&#45;&gt;Node2753</title>
<path fill="none" stroke="#191970" d="M759.8585,-64.5C774.1278,-64.5 788.8718,-64.5 802.9751,-64.5"/>
<polygon fill="#191970" stroke="#191970" points="759.5681,-61.0001 749.5681,-64.5 759.568,-68.0001 759.5681,-61.0001"/>
</g>
<!-- Node2755 -->
<g id="node37" class="node">
<title>Node2755</title>
<g id="a_node37"><a xlink:href="../../d4/dd2/_remove_simple_equations_8c.html#a74bb1ef97e92eb0a14cfbbc59e6a5741" target="_top" xlink:title="boxptr_RemoveSimpleEquations\l_toplevelInputOrUnfixed">
<polygon fill="#ffffff" stroke="#000000" points="594.5,-.5 594.5,-30.5 753.5,-30.5 753.5,-.5 594.5,-.5"/>
<text text-anchor="start" x="602.5" y="-18.5" font-family="Helvetica,sans-Serif" font-size="10.00" fill="#000000">boxptr_RemoveSimpleEquations</text>
<text text-anchor="middle" x="674" y="-7.5" font-family="Helvetica,sans-Serif" font-size="10.00" fill="#000000">_toplevelInputOrUnfixed</text>
</a>
</g>
</g>
<!-- Node2754&#45;&gt;Node2755 -->
<g id="edge38" class="edge">
<title>Node2754&#45;&gt;Node2755</title>
<path fill="none" stroke="#191970" d="M528.1606,-65.0159C533.9024,-62.9495 539.5918,-60.7672 545,-58.5 561.6848,-51.5053 564.1267,-46.0268 581,-39.5 589.5535,-36.1914 598.7244,-33.1966 607.8525,-30.5336"/>
<polygon fill="#191970" stroke="#191970" points="526.7845,-61.7887 518.4884,-68.3785 529.0833,-68.4005 526.7845,-61.7887"/>
</g>
</g>
</svg>
