<?xml version="1.0" encoding="UTF-8" standalone="no"?>
<!DOCTYPE svg PUBLIC "-//W3C//DTD SVG 1.1//EN"
 "http://www.w3.org/Graphics/SVG/1.1/DTD/svg11.dtd">
<!-- Generated by graphviz version 2.40.1 (20161225.0304)
 -->
<!-- Title: omc_DAEUtil_connectorTypeStr Pages: 1 -->
<svg width="741pt" height="39pt"
 viewBox="0.00 0.00 741.00 39.00" xmlns="http://www.w3.org/2000/svg" xmlns:xlink="http://www.w3.org/1999/xlink">
<g id="graph0" class="graph" transform="scale(1 1) rotate(0) translate(4 35)">
<title>omc_DAEUtil_connectorTypeStr</title>
<polygon fill="#ffffff" stroke="transparent" points="-4,4 -4,-35 737,-35 737,4 -4,4"/>
<!-- Node443 -->
<g id="node1" class="node">
<title>Node443</title>
<polygon fill="#bfbfbf" stroke="#000000" points="0,-6 0,-25 159,-25 159,-6 0,-6"/>
<text text-anchor="middle" x="79.5" y="-13" font-family="Helvetica,sans-Serif" font-size="10.00" fill="#000000">omc_DAEUtil_connectorTypeStr</text>
</g>
<!-- Node444 -->
<g id="node2" class="node">
<title>Node444</title>
<g id="a_node2"><a xlink:href="../../d9/d88/_inst_section_8c.html#a39483dad12fe3746137f9c6ae6a3890b" target="_top" xlink:title="omc_InstSection_checkConnect\lTypesFlowStream">
<polygon fill="#ffffff" stroke="#000000" points="195,-.5 195,-30.5 353,-30.5 353,-.5 195,-.5"/>
<text text-anchor="start" x="203" y="-18.5" font-family="Helvetica,sans-Serif" font-size="10.00" fill="#000000">omc_InstSection_checkConnect</text>
<text text-anchor="middle" x="274" y="-7.5" font-family="Helvetica,sans-Serif" font-size="10.00" fill="#000000">TypesFlowStream</text>
</a>
</g>
</g>
<!-- Node443&#45;&gt;Node444 -->
<g id="edge1" class="edge">
<title>Node443&#45;&gt;Node444</title>
<path fill="none" stroke="#191970" d="M169.4326,-15.5C177.889,-15.5 186.4196,-15.5 194.7667,-15.5"/>
<polygon fill="#191970" stroke="#191970" points="169.1718,-12.0001 159.1718,-15.5 169.1718,-19.0001 169.1718,-12.0001"/>
</g>
<!-- Node445 -->
<g id="node3" class="node">
<title>Node445</title>
<g id="a_node3"><a xlink:href="../../d9/d88/_inst_section_8c.html#a1bec7454e630eae845db314720f06ec1" target="_top" xlink:title="omc_InstSection_checkConnect\lTypes">
<polygon fill="#ffffff" stroke="#000000" points="389,-.5 389,-30.5 547,-30.5 547,-.5 389,-.5"/>
<text text-anchor="start" x="397" y="-18.5" font-family="Helvetica,sans-Serif" font-size="10.00" fill="#000000">omc_InstSection_checkConnect</text>
<text text-anchor="middle" x="468" y="-7.5" font-family="Helvetica,sans-Serif" font-size="10.00" fill="#000000">Types</text>
</a>
</g>
</g>
<!-- Node444&#45;&gt;Node445 -->
<g id="edge2" class="edge">
<title>Node444&#45;&gt;Node445</title>
<path fill="none" stroke="#191970" d="M363.4359,-15.5C371.8837,-15.5 380.4084,-15.5 388.7517,-15.5"/>
<polygon fill="#191970" stroke="#191970" points="363.1871,-12.0001 353.187,-15.5 363.187,-19.0001 363.1871,-12.0001"/>
</g>
<!-- Node446 -->
<g id="node4" class="node">
<title>Node446</title>
<g id="a_node4"><a xlink:href="../../d9/d88/_inst_section_8c.html#af5ad32b5a58ec6de0b069bac19259a9f" target="_top" xlink:title="omc_InstSection_connectVars">
<polygon fill="#ffffff" stroke="#000000" points="583,-6 583,-25 733,-25 733,-6 583,-6"/>
<text text-anchor="middle" x="658" y="-13" font-family="Helvetica,sans-Serif" font-size="10.00" fill="#000000">omc_InstSection_connectVars</text>
</a>
</g>
</g>
<!-- Node445&#45;&gt;Node446 -->
<g id="edge3" class="edge">
<title>Node445&#45;&gt;Node446</title>
<path fill="none" stroke="#191970" d="M557.23,-15.5C565.812,-15.5 574.457,-15.5 582.8835,-15.5"/>
<polygon fill="#191970" stroke="#191970" points="557.2013,-12.0001 547.2013,-15.5 557.2012,-19.0001 557.2013,-12.0001"/>
</g>
</g>
</svg>
