<?xml version="1.0" encoding="UTF-8" standalone="no"?>
<!DOCTYPE svg PUBLIC "-//W3C//DTD SVG 1.1//EN"
 "http://www.w3.org/Graphics/SVG/1.1/DTD/svg11.dtd">
<!-- Generated by graphviz version 2.40.1 (20161225.0304)
 -->
<!-- Title: omc_DAEUtil_hasStartAttr Pages: 1 -->
<svg width="1065pt" height="356pt"
 viewBox="0.00 0.00 1065.00 355.50" xmlns="http://www.w3.org/2000/svg" xmlns:xlink="http://www.w3.org/1999/xlink">
<g id="graph0" class="graph" transform="scale(1 1) rotate(0) translate(4 351.5)">
<title>omc_DAEUtil_hasStartAttr</title>
<polygon fill="#ffffff" stroke="transparent" points="-4,4 -4,-351.5 1061,-351.5 1061,4 -4,4"/>
<!-- Node1784 -->
<g id="node1" class="node">
<title>Node1784</title>
<polygon fill="#bfbfbf" stroke="#000000" points="0,-106 0,-125 134,-125 134,-106 0,-106"/>
<text text-anchor="middle" x="67" y="-113" font-family="Helvetica,sans-Serif" font-size="10.00" fill="#000000">omc_DAEUtil_hasStartAttr</text>
</g>
<!-- Node1785 -->
<g id="node2" class="node">
<title>Node1785</title>
<g id="a_node2"><a xlink:href="../../d5/dd6/_backend_variable_8h.html#accd8afcb1d80bdc6a2d3e2712aed2a77" target="_top" xlink:title="omc_BackendVariable\l_varHasStartValue">
<polygon fill="#ffffff" stroke="#000000" points="184.5,-122.5 184.5,-152.5 298.5,-152.5 298.5,-122.5 184.5,-122.5"/>
<text text-anchor="start" x="192.5" y="-140.5" font-family="Helvetica,sans-Serif" font-size="10.00" fill="#000000">omc_BackendVariable</text>
<text text-anchor="middle" x="241.5" y="-129.5" font-family="Helvetica,sans-Serif" font-size="10.00" fill="#000000">_varHasStartValue</text>
</a>
</g>
</g>
<!-- Node1784&#45;&gt;Node1785 -->
<g id="edge1" class="edge">
<title>Node1784&#45;&gt;Node1785</title>
<path fill="none" stroke="#191970" d="M144.6206,-125.286C158.005,-126.9734 171.6954,-128.6994 184.4112,-130.3026"/>
<polygon fill="#191970" stroke="#191970" points="144.8255,-121.7842 134.4663,-124.0058 143.9499,-128.7292 144.8255,-121.7842"/>
</g>
<!-- Node1798 -->
<g id="node15" class="node">
<title>Node1798</title>
<g id="a_node15"><a xlink:href="../../dd/d15/_d_a_e_util_8h.html#abb49d9ead5e09e92647b9c313c1b76af" target="_top" xlink:title="boxptr_DAEUtil_hasStartAttr">
<polygon fill="#ffffff" stroke="#000000" points="170,-84 170,-103 313,-103 313,-84 170,-84"/>
<text text-anchor="middle" x="241.5" y="-91" font-family="Helvetica,sans-Serif" font-size="10.00" fill="#000000">boxptr_DAEUtil_hasStartAttr</text>
</a>
</g>
</g>
<!-- Node1784&#45;&gt;Node1798 -->
<g id="edge14" class="edge">
<title>Node1784&#45;&gt;Node1798</title>
<path fill="none" stroke="#191970" d="M144.632,-105.7126C153.0325,-104.6535 161.5533,-103.5792 169.878,-102.5297"/>
<polygon fill="#191970" stroke="#191970" points="143.9499,-102.2708 134.4663,-106.9942 144.8255,-109.2158 143.9499,-102.2708"/>
</g>
<!-- Node1786 -->
<g id="node3" class="node">
<title>Node1786</title>
<g id="a_node3"><a xlink:href="../../d2/dfb/_compiler_2boot_2build_2initialization_8c.html#a8481d4f5d2e04bbc795c1b742c14b241" target="_top" xlink:title="omc_Initialization\l_warnAboutIterationVariables\lWithDefaultZeroStartAttribute1">
<polygon fill="#ffffff" stroke="#000000" points="349.5,-246 349.5,-287 500.5,-287 500.5,-246 349.5,-246"/>
<text text-anchor="start" x="357.5" y="-275" font-family="Helvetica,sans-Serif" font-size="10.00" fill="#000000">omc_Initialization</text>
<text text-anchor="start" x="357.5" y="-264" font-family="Helvetica,sans-Serif" font-size="10.00" fill="#000000">_warnAboutIterationVariables</text>
<text text-anchor="middle" x="425" y="-253" font-family="Helvetica,sans-Serif" font-size="10.00" fill="#000000">WithDefaultZeroStartAttribute1</text>
</a>
</g>
</g>
<!-- Node1785&#45;&gt;Node1786 -->
<g id="edge2" class="edge">
<title>Node1785&#45;&gt;Node1786</title>
<path fill="none" stroke="#191970" d="M261.5645,-160.3323C281.8272,-182.2628 314.9239,-215.1308 349,-236.5 354.4079,-239.8913 360.263,-243.0174 366.2408,-245.8666"/>
<polygon fill="#191970" stroke="#191970" points="264.0204,-157.8307 254.702,-152.789 258.8425,-162.5413 264.0204,-157.8307"/>
</g>
<!-- Node1792 -->
<g id="node9" class="node">
<title>Node1792</title>
<g id="a_node9"><a xlink:href="../../d5/dd6/_backend_variable_8h.html#a4ffdb7342ec37944c42a8390fa47e67f" target="_top" xlink:title="omc_BackendVariable\l_varHasNoStartValue">
<polygon fill="#ffffff" stroke="#000000" points="368,-196.5 368,-226.5 482,-226.5 482,-196.5 368,-196.5"/>
<text text-anchor="start" x="376" y="-214.5" font-family="Helvetica,sans-Serif" font-size="10.00" fill="#000000">omc_BackendVariable</text>
<text text-anchor="middle" x="425" y="-203.5" font-family="Helvetica,sans-Serif" font-size="10.00" fill="#000000">_varHasNoStartValue</text>
</a>
</g>
</g>
<!-- Node1785&#45;&gt;Node1792 -->
<g id="edge8" class="edge">
<title>Node1785&#45;&gt;Node1792</title>
<path fill="none" stroke="#191970" d="M281.312,-156.9113C301.3861,-166.3737 326.243,-177.6017 349,-186.5 357.7966,-189.9396 367.2823,-193.3159 376.4704,-196.4197"/>
<polygon fill="#191970" stroke="#191970" points="282.6962,-153.6941 272.1617,-152.5648 279.6927,-160.017 282.6962,-153.6941"/>
</g>
<!-- Node1794 -->
<g id="node11" class="node">
<title>Node1794</title>
<g id="a_node11"><a xlink:href="../../d5/dd6/_backend_variable_8h.html#a097639e94bf03b42ff17a91f35573465" target="_top" xlink:title="boxptr_BackendVariable\l_varHasStartValue">
<polygon fill="#ffffff" stroke="#000000" points="364,-147.5 364,-177.5 486,-177.5 486,-147.5 364,-147.5"/>
<text text-anchor="start" x="372" y="-165.5" font-family="Helvetica,sans-Serif" font-size="10.00" fill="#000000">boxptr_BackendVariable</text>
<text text-anchor="middle" x="425" y="-154.5" font-family="Helvetica,sans-Serif" font-size="10.00" fill="#000000">_varHasStartValue</text>
</a>
</g>
</g>
<!-- Node1785&#45;&gt;Node1794 -->
<g id="edge10" class="edge">
<title>Node1785&#45;&gt;Node1794</title>
<path fill="none" stroke="#191970" d="M308.7047,-146.656C326.7446,-149.1137 346.151,-151.7576 363.8434,-154.168"/>
<polygon fill="#191970" stroke="#191970" points="308.9356,-143.1552 298.5547,-145.2731 307.9906,-150.0911 308.9356,-143.1552"/>
</g>
<!-- Node1795 -->
<g id="node12" class="node">
<title>Node1795</title>
<g id="a_node12"><a xlink:href="../../d4/dd2/_remove_simple_equations_8c.html#ae5d333c5f96e6c7579285150601a68ed" target="_top" xlink:title="omc_RemoveSimpleEquations\l_getThisAttributes">
<polygon fill="#ffffff" stroke="#000000" points="349.5,-98.5 349.5,-128.5 500.5,-128.5 500.5,-98.5 349.5,-98.5"/>
<text text-anchor="start" x="357.5" y="-116.5" font-family="Helvetica,sans-Serif" font-size="10.00" fill="#000000">omc_RemoveSimpleEquations</text>
<text text-anchor="middle" x="425" y="-105.5" font-family="Helvetica,sans-Serif" font-size="10.00" fill="#000000">_getThisAttributes</text>
</a>
</g>
</g>
<!-- Node1785&#45;&gt;Node1795 -->
<g id="edge11" class="edge">
<title>Node1785&#45;&gt;Node1795</title>
<path fill="none" stroke="#191970" d="M308.5501,-128.7305C321.8382,-126.9925 335.8731,-125.1569 349.4221,-123.3848"/>
<polygon fill="#191970" stroke="#191970" points="308.0163,-125.2704 298.5547,-130.0378 308.9242,-132.2113 308.0163,-125.2704"/>
</g>
<!-- Node1796 -->
<g id="node13" class="node">
<title>Node1796</title>
<g id="a_node13"><a xlink:href="../../d4/dd2/_remove_simple_equations_8c.html#add7de1999827952b80425b3ebf15ba5c" target="_top" xlink:title="omc_RemoveSimpleEquations\l_setAttributes">
<polygon fill="#ffffff" stroke="#000000" points="349.5,-49.5 349.5,-79.5 500.5,-79.5 500.5,-49.5 349.5,-49.5"/>
<text text-anchor="start" x="357.5" y="-67.5" font-family="Helvetica,sans-Serif" font-size="10.00" fill="#000000">omc_RemoveSimpleEquations</text>
<text text-anchor="middle" x="425" y="-56.5" font-family="Helvetica,sans-Serif" font-size="10.00" fill="#000000">_setAttributes</text>
</a>
</g>
</g>
<!-- Node1785&#45;&gt;Node1796 -->
<g id="edge12" class="edge">
<title>Node1785&#45;&gt;Node1796</title>
<path fill="none" stroke="#191970" d="M299.4605,-118.6494C304.1017,-116.7133 308.667,-114.6586 313,-112.5 330.2121,-103.9255 331.6592,-96.8112 349,-88.5 355.8627,-85.2108 363.2845,-82.2272 370.7085,-79.5696"/>
<polygon fill="#191970" stroke="#191970" points="297.8812,-115.5105 289.8772,-122.4522 300.4631,-122.017 297.8812,-115.5105"/>
</g>
<!-- Node1797 -->
<g id="node14" class="node">
<title>Node1797</title>
<g id="a_node14"><a xlink:href="../../db/d13/_sim_code_util_8c.html#af6e2e09424608a5eb397c6ea684a888e" target="_top" xlink:title="omc_SimCodeUtil_replaceCref\lWithStartValue">
<polygon fill="#ffffff" stroke="#000000" points="349,-.5 349,-30.5 501,-30.5 501,-.5 349,-.5"/>
<text text-anchor="start" x="357" y="-18.5" font-family="Helvetica,sans-Serif" font-size="10.00" fill="#000000">omc_SimCodeUtil_replaceCref</text>
<text text-anchor="middle" x="425" y="-7.5" font-family="Helvetica,sans-Serif" font-size="10.00" fill="#000000">WithStartValue</text>
</a>
</g>
</g>
<!-- Node1785&#45;&gt;Node1797 -->
<g id="edge13" class="edge">
<title>Node1785&#45;&gt;Node1797</title>
<path fill="none" stroke="#191970" d="M307.434,-116.8924C309.3768,-115.5201 311.2398,-114.0579 313,-112.5 340.089,-88.5244 321.5487,-63.0599 349,-39.5 352.99,-36.0756 357.47,-33.1391 362.2066,-30.6209"/>
<polygon fill="#191970" stroke="#191970" points="305.1937,-114.1589 298.4754,-122.3513 308.8362,-120.1366 305.1937,-114.1589"/>
</g>
<!-- Node1787 -->
<g id="node4" class="node">
<title>Node1787</title>
<g id="a_node4"><a xlink:href="../../d2/dfb/_compiler_2boot_2build_2initialization_8c.html#a8465e5e41931e2badca9caeff1d19f1b" target="_top" xlink:title="boxptr_Initialization\l_warnAboutIterationVariables\lWithDefaultZeroStartAttribute1">
<polygon fill="#ffffff" stroke="#000000" points="537,-306 537,-347 688,-347 688,-306 537,-306"/>
<text text-anchor="start" x="545" y="-335" font-family="Helvetica,sans-Serif" font-size="10.00" fill="#000000">boxptr_Initialization</text>
<text text-anchor="start" x="545" y="-324" font-family="Helvetica,sans-Serif" font-size="10.00" fill="#000000">_warnAboutIterationVariables</text>
<text text-anchor="middle" x="612.5" y="-313" font-family="Helvetica,sans-Serif" font-size="10.00" fill="#000000">WithDefaultZeroStartAttribute1</text>
</a>
</g>
</g>
<!-- Node1786&#45;&gt;Node1787 -->
<g id="edge3" class="edge">
<title>Node1786&#45;&gt;Node1787</title>
<path fill="none" stroke="#191970" d="M499.246,-290.2587C515.4758,-295.4523 532.5216,-300.9069 548.3194,-305.9622"/>
<polygon fill="#191970" stroke="#191970" points="499.8555,-286.779 489.2645,-287.0647 497.722,-293.446 499.8555,-286.779"/>
</g>
<!-- Node1788 -->
<g id="node5" class="node">
<title>Node1788</title>
<g id="a_node5"><a xlink:href="../../d2/dfb/_compiler_2boot_2build_2initialization_8c.html#a944f705009a3f62df0abe2a3a56c4ef7" target="_top" xlink:title="omc_Initialization\l_warnAboutIterationVariables\lWithDefaultZeroStartAttribute0">
<polygon fill="#ffffff" stroke="#000000" points="537,-246 537,-287 688,-287 688,-246 537,-246"/>
<text text-anchor="start" x="545" y="-275" font-family="Helvetica,sans-Serif" font-size="10.00" fill="#000000">omc_Initialization</text>
<text text-anchor="start" x="545" y="-264" font-family="Helvetica,sans-Serif" font-size="10.00" fill="#000000">_warnAboutIterationVariables</text>
<text text-anchor="middle" x="612.5" y="-253" font-family="Helvetica,sans-Serif" font-size="10.00" fill="#000000">WithDefaultZeroStartAttribute0</text>
</a>
</g>
</g>
<!-- Node1786&#45;&gt;Node1788 -->
<g id="edge4" class="edge">
<title>Node1786&#45;&gt;Node1788</title>
<path fill="none" stroke="#191970" d="M510.834,-266.5C519.4978,-266.5 528.2525,-266.5 536.7992,-266.5"/>
<polygon fill="#191970" stroke="#191970" points="510.723,-263.0001 500.723,-266.5 510.7229,-270.0001 510.723,-263.0001"/>
</g>
<!-- Node1789 -->
<g id="node6" class="node">
<title>Node1789</title>
<g id="a_node6"><a xlink:href="../../d2/dfb/_compiler_2boot_2build_2initialization_8c.html#aad2816a6d0410ac10a4e940b0bc43b55" target="_top" xlink:title="boxptr_Initialization\l_warnAboutIterationVariables\lWithDefaultZeroStartAttribute0">
<polygon fill="#ffffff" stroke="#000000" points="724,-276 724,-317 875,-317 875,-276 724,-276"/>
<text text-anchor="start" x="732" y="-305" font-family="Helvetica,sans-Serif" font-size="10.00" fill="#000000">boxptr_Initialization</text>
<text text-anchor="start" x="732" y="-294" font-family="Helvetica,sans-Serif" font-size="10.00" fill="#000000">_warnAboutIterationVariables</text>
<text text-anchor="middle" x="799.5" y="-283" font-family="Helvetica,sans-Serif" font-size="10.00" fill="#000000">WithDefaultZeroStartAttribute0</text>
</a>
</g>
</g>
<!-- Node1788&#45;&gt;Node1789 -->
<g id="edge5" class="edge">
<title>Node1788&#45;&gt;Node1789</title>
<path fill="none" stroke="#191970" d="M698.0184,-280.2195C706.5847,-281.5938 715.241,-282.9825 723.6969,-284.3391"/>
<polygon fill="#191970" stroke="#191970" points="698.4492,-276.744 688.021,-278.6157 697.3403,-283.6556 698.4492,-276.744"/>
</g>
<!-- Node1790 -->
<g id="node7" class="node">
<title>Node1790</title>
<g id="a_node7"><a xlink:href="../../d2/dfb/_compiler_2boot_2build_2initialization_8c.html#ab8d5ccbc0bc11fde606f5acc10e5a031" target="_top" xlink:title="omc_Initialization\l_warnAboutIterationVariables\lWithDefaultZeroStartAttribute">
<polygon fill="#ffffff" stroke="#000000" points="726.5,-216 726.5,-257 872.5,-257 872.5,-216 726.5,-216"/>
<text text-anchor="start" x="734.5" y="-245" font-family="Helvetica,sans-Serif" font-size="10.00" fill="#000000">omc_Initialization</text>
<text text-anchor="start" x="734.5" y="-234" font-family="Helvetica,sans-Serif" font-size="10.00" fill="#000000">_warnAboutIterationVariables</text>
<text text-anchor="middle" x="799.5" y="-223" font-family="Helvetica,sans-Serif" font-size="10.00" fill="#000000">WithDefaultZeroStartAttribute</text>
</a>
</g>
</g>
<!-- Node1788&#45;&gt;Node1790 -->
<g id="edge6" class="edge">
<title>Node1788&#45;&gt;Node1790</title>
<path fill="none" stroke="#191970" d="M697.8956,-252.8002C707.4266,-251.2711 717.0707,-249.724 726.4279,-248.2228"/>
<polygon fill="#191970" stroke="#191970" points="697.3403,-249.3444 688.021,-254.3843 698.4492,-256.256 697.3403,-249.3444"/>
</g>
<!-- Node1791 -->
<g id="node8" class="node">
<title>Node1791</title>
<g id="a_node8"><a xlink:href="../../d2/dfb/_compiler_2boot_2build_2initialization_8c.html#acd2859f853c24b8cb066bd624ef263a8" target="_top" xlink:title="boxptr_Initialization\l_warnAboutIterationVariables\lWithDefaultZeroStartAttribute">
<polygon fill="#ffffff" stroke="#000000" points="911,-216 911,-257 1057,-257 1057,-216 911,-216"/>
<text text-anchor="start" x="919" y="-245" font-family="Helvetica,sans-Serif" font-size="10.00" fill="#000000">boxptr_Initialization</text>
<text text-anchor="start" x="919" y="-234" font-family="Helvetica,sans-Serif" font-size="10.00" fill="#000000">_warnAboutIterationVariables</text>
<text text-anchor="middle" x="984" y="-223" font-family="Helvetica,sans-Serif" font-size="10.00" fill="#000000">WithDefaultZeroStartAttribute</text>
</a>
</g>
</g>
<!-- Node1790&#45;&gt;Node1791 -->
<g id="edge7" class="edge">
<title>Node1790&#45;&gt;Node1791</title>
<path fill="none" stroke="#191970" d="M882.7918,-236.5C892.1688,-236.5 901.6705,-236.5 910.9042,-236.5"/>
<polygon fill="#191970" stroke="#191970" points="882.6843,-233.0001 872.6843,-236.5 882.6842,-240.0001 882.6843,-233.0001"/>
</g>
<!-- Node1793 -->
<g id="node10" class="node">
<title>Node1793</title>
<g id="a_node10"><a xlink:href="../../d5/dd6/_backend_variable_8h.html#af989914e4487339f519b1ad414697f7a" target="_top" xlink:title="boxptr_BackendVariable\l_varHasNoStartValue">
<polygon fill="#ffffff" stroke="#000000" points="551.5,-196.5 551.5,-226.5 673.5,-226.5 673.5,-196.5 551.5,-196.5"/>
<text text-anchor="start" x="559.5" y="-214.5" font-family="Helvetica,sans-Serif" font-size="10.00" fill="#000000">boxptr_BackendVariable</text>
<text text-anchor="middle" x="612.5" y="-203.5" font-family="Helvetica,sans-Serif" font-size="10.00" fill="#000000">_varHasNoStartValue</text>
</a>
</g>
</g>
<!-- Node1792&#45;&gt;Node1793 -->
<g id="edge9" class="edge">
<title>Node1792&#45;&gt;Node1793</title>
<path fill="none" stroke="#191970" d="M492.2154,-211.5C511.456,-211.5 532.3216,-211.5 551.1881,-211.5"/>
<polygon fill="#191970" stroke="#191970" points="492.0199,-208.0001 482.0199,-211.5 492.0198,-215.0001 492.0199,-208.0001"/>
</g>
</g>
</svg>
