<?xml version="1.0" encoding="UTF-8" standalone="no"?>
<!DOCTYPE svg PUBLIC "-//W3C//DTD SVG 1.1//EN"
 "http://www.w3.org/Graphics/SVG/1.1/DTD/svg11.dtd">
<!-- Generated by graphviz version 2.40.1 (20161225.0304)
 -->
<!-- Title: set_input_file Pages: 1 -->
<svg width="425pt" height="116pt"
 viewBox="0.00 0.00 425.00 115.50" xmlns="http://www.w3.org/2000/svg" xmlns:xlink="http://www.w3.org/1999/xlink">
<g id="graph0" class="graph" transform="scale(1 1) rotate(0) translate(4 111.5)">
<title>set_input_file</title>
<polygon fill="#ffffff" stroke="transparent" points="-4,4 -4,-111.5 421,-111.5 421,4 -4,4"/>
<!-- Node51 -->
<g id="node1" class="node">
<title>Node51</title>
<polygon fill="#bfbfbf" stroke="#000000" points="0,-19.5 0,-38.5 74,-38.5 74,-19.5 0,-19.5"/>
<text text-anchor="middle" x="37" y="-26.5" font-family="Helvetica,sans-Serif" font-size="10.00" fill="#000000">set_input_file</text>
</g>
<!-- Node52 -->
<g id="node2" class="node">
<title>Node52</title>
<g id="a_node2"><a xlink:href="../../dd/d3e/flex-2_85_835_2misc_8c.html#a69781ac22aa41ceaca20060ad642a403" target="_top" xlink:title="copy_string">
<polygon fill="#ffffff" stroke="#000000" points="110,-38.5 110,-57.5 177,-57.5 177,-38.5 110,-38.5"/>
<text text-anchor="middle" x="143.5" y="-45.5" font-family="Helvetica,sans-Serif" font-size="10.00" fill="#000000">copy_string</text>
</a>
</g>
</g>
<!-- Node51&#45;&gt;Node52 -->
<g id="edge1" class="edge">
<title>Node51&#45;&gt;Node52</title>
<path fill="none" stroke="#191970" d="M74.2485,-35.6453C82.4363,-37.106 91.1804,-38.666 99.6024,-40.1685"/>
<polygon fill="#191970" stroke="#191970" points="99.1971,-43.6514 109.6564,-41.9622 100.4266,-36.7602 99.1971,-43.6514"/>
</g>
<!-- Node58 -->
<g id="node8" class="node">
<title>Node58</title>
<g id="a_node8"><a xlink:href="../../dd/d3e/flex-2_85_835_2misc_8c.html#a692bd70226b10874a4e5a45eed4f0ec3" target="_top" xlink:title="lerrsf">
<polygon fill="#ffffff" stroke="#000000" points="124.5,-.5 124.5,-19.5 162.5,-19.5 162.5,-.5 124.5,-.5"/>
<text text-anchor="middle" x="143.5" y="-7.5" font-family="Helvetica,sans-Serif" font-size="10.00" fill="#000000">lerrsf</text>
</a>
</g>
</g>
<!-- Node51&#45;&gt;Node58 -->
<g id="edge7" class="edge">
<title>Node51&#45;&gt;Node58</title>
<path fill="none" stroke="#191970" d="M74.2485,-22.3547C87.3315,-20.0207 101.8351,-17.4332 114.1747,-15.2317"/>
<polygon fill="#191970" stroke="#191970" points="115.1417,-18.6146 124.3716,-13.4126 113.9123,-11.7234 115.1417,-18.6146"/>
</g>
<!-- Node53 -->
<g id="node3" class="node">
<title>Node53</title>
<g id="a_node3"><a xlink:href="../../dd/d11/namespaceboost_1_1numeric_1_1bindings_1_1blas_1_1detail.html#a99459a61a1c4606d9ec48306b8c2b75f" target="_top" xlink:title="boost::numeric::bindings\l::blas::detail::copy">
<polygon fill="#ffffff" stroke="#000000" points="213,-77 213,-107 336,-107 336,-77 213,-77"/>
<text text-anchor="start" x="221" y="-95" font-family="Helvetica,sans-Serif" font-size="10.00" fill="#000000">boost::numeric::bindings</text>
<text text-anchor="middle" x="274.5" y="-84" font-family="Helvetica,sans-Serif" font-size="10.00" fill="#000000">::blas::detail::copy</text>
</a>
</g>
</g>
<!-- Node52&#45;&gt;Node53 -->
<g id="edge2" class="edge">
<title>Node52&#45;&gt;Node53</title>
<path fill="none" stroke="#191970" d="M171.925,-57.5473C186.0157,-62.2801 203.5195,-68.1592 220.0553,-73.7132"/>
<polygon fill="#191970" stroke="#191970" points="219.0523,-77.0684 229.6463,-76.9346 221.2811,-70.4327 219.0523,-77.0684"/>
</g>
<!-- Node54 -->
<g id="node4" class="node">
<title>Node54</title>
<g id="a_node4"><a xlink:href="../../d0/d3e/scan_8c.html#a19b88e2ffff444ebffd0fb2bd4b68046" target="_top" xlink:title="flex_alloc">
<polygon fill="#ffffff" stroke="#000000" points="245.5,-38.5 245.5,-57.5 303.5,-57.5 303.5,-38.5 245.5,-38.5"/>
<text text-anchor="middle" x="274.5" y="-45.5" font-family="Helvetica,sans-Serif" font-size="10.00" fill="#000000">flex_alloc</text>
</a>
</g>
</g>
<!-- Node52&#45;&gt;Node54 -->
<g id="edge3" class="edge">
<title>Node52&#45;&gt;Node54</title>
<path fill="none" stroke="#191970" d="M177.2358,-48C194.9355,-48 216.7182,-48 235.1797,-48"/>
<polygon fill="#191970" stroke="#191970" points="235.3277,-51.5001 245.3277,-48 235.3277,-44.5001 235.3277,-51.5001"/>
</g>
<!-- Node56 -->
<g id="node6" class="node">
<title>Node56</title>
<g id="a_node6"><a xlink:href="../../dd/d3e/flex-2_85_835_2misc_8c.html#a864cc32c0dda06dcffa37210e5e3ff8f" target="_top" xlink:title="flexfatal">
<polygon fill="#ffffff" stroke="#000000" points="249,-.5 249,-19.5 300,-19.5 300,-.5 249,-.5"/>
<text text-anchor="middle" x="274.5" y="-7.5" font-family="Helvetica,sans-Serif" font-size="10.00" fill="#000000">flexfatal</text>
</a>
</g>
</g>
<!-- Node52&#45;&gt;Node56 -->
<g id="edge5" class="edge">
<title>Node52&#45;&gt;Node56</title>
<path fill="none" stroke="#191970" d="M176.5568,-38.411C195.6622,-32.869 219.6944,-25.8978 239.1719,-20.2479"/>
<polygon fill="#191970" stroke="#191970" points="240.2629,-23.5757 248.8919,-17.4283 238.3127,-16.8529 240.2629,-23.5757"/>
</g>
<!-- Node55 -->
<g id="node5" class="node">
<title>Node55</title>
<g id="a_node5"><a xlink:href="../../dc/ddc/3rd_party_2flex-2_85_835_2parse_8c.html#a5faf6a2d99f50a4655dd390199a8db7b" target="_top" xlink:title="malloc">
<polygon fill="#ffffff" stroke="#000000" points="372,-38.5 372,-57.5 417,-57.5 417,-38.5 372,-38.5"/>
<text text-anchor="middle" x="394.5" y="-45.5" font-family="Helvetica,sans-Serif" font-size="10.00" fill="#000000">malloc</text>
</a>
</g>
</g>
<!-- Node54&#45;&gt;Node55 -->
<g id="edge4" class="edge">
<title>Node54&#45;&gt;Node55</title>
<path fill="none" stroke="#191970" d="M303.5487,-48C321.0598,-48 343.4145,-48 361.5791,-48"/>
<polygon fill="#191970" stroke="#191970" points="361.7216,-51.5001 371.7216,-48 361.7216,-44.5001 361.7216,-51.5001"/>
</g>
<!-- Node57 -->
<g id="node7" class="node">
<title>Node57</title>
<g id="a_node7"><a xlink:href="../../d4/d98/g_09_09malloc_8c.html#a49f789e614e57e410f598885b800c2df" target="_top" xlink:title="fprintf">
<polygon fill="#ffffff" stroke="#000000" points="374,-.5 374,-19.5 415,-19.5 415,-.5 374,-.5"/>
<text text-anchor="middle" x="394.5" y="-7.5" font-family="Helvetica,sans-Serif" font-size="10.00" fill="#000000">fprintf</text>
</a>
</g>
</g>
<!-- Node56&#45;&gt;Node57 -->
<g id="edge6" class="edge">
<title>Node56&#45;&gt;Node57</title>
<path fill="none" stroke="#191970" d="M300.243,-10C318.9232,-10 344.2658,-10 363.9684,-10"/>
<polygon fill="#191970" stroke="#191970" points="363.9736,-13.5001 373.9736,-10 363.9735,-6.5001 363.9736,-13.5001"/>
</g>
</g>
</svg>
