<?xml version="1.0" encoding="UTF-8" standalone="no"?>
<!DOCTYPE svg PUBLIC "-//W3C//DTD SVG 1.1//EN"
 "http://www.w3.org/Graphics/SVG/1.1/DTD/svg11.dtd">
<!-- Generated by graphviz version 2.40.1 (20161225.0304)
 -->
<!-- Title: yylex Pages: 1 -->
<svg width="443pt" height="104pt"
 viewBox="0.00 0.00 443.00 104.00" xmlns="http://www.w3.org/2000/svg" xmlns:xlink="http://www.w3.org/1999/xlink">
<g id="graph0" class="graph" transform="scale(1 1) rotate(0) translate(4 100)">
<title>yylex</title>
<polygon fill="#ffffff" stroke="transparent" points="-4,4 -4,-100 439,-100 439,4 -4,4"/>
<!-- Node130 -->
<g id="node1" class="node">
<title>Node130</title>
<polygon fill="#bfbfbf" stroke="#000000" points="0,-38.5 0,-57.5 40,-57.5 40,-38.5 0,-38.5"/>
<text text-anchor="middle" x="20" y="-45.5" font-family="Helvetica,sans-Serif" font-size="10.00" fill="#000000">yylex</text>
</g>
<!-- Node131 -->
<g id="node2" class="node">
<title>Node131</title>
<g id="a_node2"><a xlink:href="../../dc/ddc/3rd_party_2flex-2_85_835_2parse_8c.html#ae11eb253ab48c704573c954b2d69728f" target="_top" xlink:title="synerr">
<polygon fill="#ffffff" stroke="#000000" points="76,-76.5 76,-95.5 120,-95.5 120,-76.5 76,-76.5"/>
<text text-anchor="middle" x="98" y="-83.5" font-family="Helvetica,sans-Serif" font-size="10.00" fill="#000000">synerr</text>
</a>
</g>
</g>
<!-- Node130&#45;&gt;Node131 -->
<g id="edge1" class="edge">
<title>Node130&#45;&gt;Node131</title>
<path fill="none" stroke="#191970" d="M39.6827,-57.589C48.6432,-61.9544 59.4239,-67.2065 69.2656,-72.0012"/>
<polygon fill="#191970" stroke="#191970" points="67.8008,-75.1808 78.3236,-76.4141 70.8666,-68.8878 67.8008,-75.1808"/>
</g>
<!-- Node134 -->
<g id="node5" class="node">
<title>Node134</title>
<g id="a_node5"><a xlink:href="../../d4/d98/g_09_09malloc_8c.html#a49f789e614e57e410f598885b800c2df" target="_top" xlink:title="fprintf">
<polygon fill="#ffffff" stroke="#000000" points="394,-57.5 394,-76.5 435,-76.5 435,-57.5 394,-57.5"/>
<text text-anchor="middle" x="414.5" y="-64.5" font-family="Helvetica,sans-Serif" font-size="10.00" fill="#000000">fprintf</text>
</a>
</g>
</g>
<!-- Node130&#45;&gt;Node134 -->
<g id="edge5" class="edge">
<title>Node130&#45;&gt;Node134</title>
<path fill="none" stroke="#191970" d="M40.1057,-48.9683C104.5889,-52.074 306.5079,-61.7989 383.8957,-65.526"/>
<polygon fill="#191970" stroke="#191970" points="383.8049,-69.0256 393.9617,-66.0108 384.1417,-62.0337 383.8049,-69.0256"/>
</g>
<!-- Node135 -->
<g id="node6" class="node">
<title>Node135</title>
<g id="a_node6"><a xlink:href="../../d1/dd1/3rd_party_2gc_2include_2gc_8h.html#acacfa47efcc44a29f7bb7d98f2a000f8" target="_top" xlink:title="void">
<polygon fill="#ffffff" stroke="#000000" points="80.5,-.5 80.5,-19.5 115.5,-19.5 115.5,-.5 80.5,-.5"/>
<text text-anchor="middle" x="98" y="-7.5" font-family="Helvetica,sans-Serif" font-size="10.00" fill="#000000">void</text>
</a>
</g>
</g>
<!-- Node130&#45;&gt;Node135 -->
<g id="edge6" class="edge">
<title>Node130&#45;&gt;Node135</title>
<path fill="none" stroke="#191970" d="M39.6827,-38.411C49.2885,-33.7313 60.9859,-28.0325 71.3759,-22.9707"/>
<polygon fill="#191970" stroke="#191970" points="72.9958,-26.0749 80.4527,-18.5487 69.9299,-19.7819 72.9958,-26.0749"/>
</g>
<!-- Node132 -->
<g id="node3" class="node">
<title>Node132</title>
<g id="a_node3"><a xlink:href="../../dc/ddc/3rd_party_2flex-2_85_835_2parse_8c.html#a48aaacc2c4ddb3fd0b8fe75003338559" target="_top" xlink:title="pinpoint_message">
<polygon fill="#ffffff" stroke="#000000" points="156,-76.5 156,-95.5 251,-95.5 251,-76.5 156,-76.5"/>
<text text-anchor="middle" x="203.5" y="-83.5" font-family="Helvetica,sans-Serif" font-size="10.00" fill="#000000">pinpoint_message</text>
</a>
</g>
</g>
<!-- Node131&#45;&gt;Node132 -->
<g id="edge2" class="edge">
<title>Node131&#45;&gt;Node132</title>
<path fill="none" stroke="#191970" d="M120.1163,-86C127.6671,-86 136.4995,-86 145.538,-86"/>
<polygon fill="#191970" stroke="#191970" points="145.7731,-89.5001 155.7731,-86 145.773,-82.5001 145.7731,-89.5001"/>
</g>
<!-- Node133 -->
<g id="node4" class="node">
<title>Node133</title>
<g id="a_node4"><a xlink:href="../../dc/ddc/3rd_party_2flex-2_85_835_2parse_8c.html#a1764db457b11e4de23aadd671e32cd17" target="_top" xlink:title="line_pinpoint">
<polygon fill="#ffffff" stroke="#000000" points="287,-76.5 287,-95.5 358,-95.5 358,-76.5 287,-76.5"/>
<text text-anchor="middle" x="322.5" y="-83.5" font-family="Helvetica,sans-Serif" font-size="10.00" fill="#000000">line_pinpoint</text>
</a>
</g>
</g>
<!-- Node132&#45;&gt;Node133 -->
<g id="edge3" class="edge">
<title>Node132&#45;&gt;Node133</title>
<path fill="none" stroke="#191970" d="M251.2162,-86C259.6747,-86 268.4642,-86 276.8635,-86"/>
<polygon fill="#191970" stroke="#191970" points="276.8667,-89.5001 286.8666,-86 276.8666,-82.5001 276.8667,-89.5001"/>
</g>
<!-- Node133&#45;&gt;Node134 -->
<g id="edge4" class="edge">
<title>Node133&#45;&gt;Node134</title>
<path fill="none" stroke="#191970" d="M358.0696,-78.6541C366.6023,-76.8919 375.6404,-75.0254 383.9239,-73.3146"/>
<polygon fill="#191970" stroke="#191970" points="384.8324,-76.7009 393.9178,-71.2507 383.4166,-69.8456 384.8324,-76.7009"/>
</g>
</g>
</svg>
