<?xml version="1.0" encoding="UTF-8" standalone="no"?>
<!DOCTYPE svg PUBLIC "-//W3C//DTD SVG 1.1//EN"
 "http://www.w3.org/Graphics/SVG/1.1/DTD/svg11.dtd">
<!-- Generated by graphviz version 2.40.1 (20161225.0304)
 -->
<!-- Title: Teuchos::CharToReferenceTypeReductionOp&lt; Ordinal, T &gt; Pages: 1 -->
<svg width="164pt" height="218pt"
 viewBox="0.00 0.00 164.00 218.00" xmlns="http://www.w3.org/2000/svg" xmlns:xlink="http://www.w3.org/1999/xlink">
<g id="graph0" class="graph" transform="scale(1 1) rotate(0) translate(4 214)">
<title>Teuchos::CharToReferenceTypeReductionOp&lt; Ordinal, T &gt;</title>
<polygon fill="#ffffff" stroke="transparent" points="-4,4 -4,-214 160,-214 160,4 -4,4"/>
<!-- Node4 -->
<g id="node1" class="node">
<title>Node4</title>
<polygon fill="#bfbfbf" stroke="#000000" points="0,-.5 0,-30.5 156,-30.5 156,-.5 0,-.5"/>
<text text-anchor="start" x="8" y="-18.5" font-family="Helvetica,sans-Serif" font-size="10.00" fill="#000000">Teuchos::CharToReference</text>
<text text-anchor="middle" x="78" y="-7.5" font-family="Helvetica,sans-Serif" font-size="10.00" fill="#000000">TypeReductionOp&lt; Ordinal, T &gt;</text>
</g>
<!-- Node5 -->
<g id="node2" class="node">
<title>Node5</title>
<g id="a_node2"><a xlink:href="../../d5/d5c/class_teuchos_1_1_value_type_reduction_op.html" target="_top" xlink:title="Teuchos::ValueTypeReduction\lOp\&lt; Ordinal, char \&gt;">
<polygon fill="#ffffff" stroke="#000000" points="2.5,-67.5 2.5,-97.5 153.5,-97.5 153.5,-67.5 2.5,-67.5"/>
<text text-anchor="start" x="10.5" y="-85.5" font-family="Helvetica,sans-Serif" font-size="10.00" fill="#000000">Teuchos::ValueTypeReduction</text>
<text text-anchor="middle" x="78" y="-74.5" font-family="Helvetica,sans-Serif" font-size="10.00" fill="#000000">Op&lt; Ordinal, char &gt;</text>
</a>
</g>
</g>
<!-- Node5&#45;&gt;Node4 -->
<g id="edge1" class="edge">
<title>Node5&#45;&gt;Node4</title>
<path fill="none" stroke="#191970" d="M78,-57.0249C78,-48.128 78,-38.4287 78,-30.6432"/>
<polygon fill="#191970" stroke="#191970" points="74.5001,-57.2966 78,-67.2967 81.5001,-57.2967 74.5001,-57.2966"/>
</g>
<!-- Node6 -->
<g id="node3" class="node">
<title>Node6</title>
<g id="a_node3"><a xlink:href="../../de/d8a/class_teuchos_1_1_describable.html" target="_top" xlink:title="Base class for all objects that can describe themselves. ">
<polygon fill="#ffffff" stroke="#000000" points="22,-134.5 22,-153.5 134,-153.5 134,-134.5 22,-134.5"/>
<text text-anchor="middle" x="78" y="-141.5" font-family="Helvetica,sans-Serif" font-size="10.00" fill="#000000">Teuchos::Describable</text>
</a>
</g>
</g>
<!-- Node6&#45;&gt;Node5 -->
<g id="edge2" class="edge">
<title>Node6&#45;&gt;Node5</title>
<path fill="none" stroke="#191970" d="M78,-124.3693C78,-115.681 78,-105.6241 78,-97.5446"/>
<polygon fill="#191970" stroke="#191970" points="74.5001,-124.3906 78,-134.3906 81.5001,-124.3907 74.5001,-124.3906"/>
</g>
<!-- Node7 -->
<g id="node4" class="node">
<title>Node7</title>
<g id="a_node4"><a xlink:href="../../df/d61/class_teuchos_1_1_labeled_object.html" target="_top" xlink:title="Base class for objects that contain a std::string label. ">
<polygon fill="#ffffff" stroke="#000000" points="17,-190.5 17,-209.5 139,-209.5 139,-190.5 17,-190.5"/>
<text text-anchor="middle" x="78" y="-197.5" font-family="Helvetica,sans-Serif" font-size="10.00" fill="#000000">Teuchos::LabeledObject</text>
</a>
</g>
</g>
<!-- Node7&#45;&gt;Node6 -->
<g id="edge3" class="edge">
<title>Node7&#45;&gt;Node6</title>
<path fill="none" stroke="#191970" d="M78,-180.1575C78,-171.155 78,-160.9199 78,-153.6427"/>
<polygon fill="#191970" stroke="#191970" points="74.5001,-180.2455 78,-190.2455 81.5001,-180.2456 74.5001,-180.2455"/>
</g>
</g>
</svg>
