<?xml version="1.0" encoding="UTF-8" standalone="no"?>
<!DOCTYPE svg PUBLIC "-//W3C//DTD SVG 1.1//EN"
 "http://www.w3.org/Graphics/SVG/1.1/DTD/svg11.dtd">
<!-- Generated by graphviz version 2.40.1 (20161225.0304)
 -->
<!-- Title: omc_GraphStreamExt_newStream Pages: 1 -->
<svg width="445pt" height="39pt"
 viewBox="0.00 0.00 445.00 39.00" xmlns="http://www.w3.org/2000/svg" xmlns:xlink="http://www.w3.org/1999/xlink">
<g id="graph0" class="graph" transform="scale(1 1) rotate(0) translate(4 35)">
<title>omc_GraphStreamExt_newStream</title>
<polygon fill="#ffffff" stroke="transparent" points="-4,4 -4,-35 441,-35 441,4 -4,4"/>
<!-- Node110 -->
<g id="node1" class="node">
<title>Node110</title>
<polygon fill="#bfbfbf" stroke="#000000" points="0,-.5 0,-30.5 113,-30.5 113,-.5 0,-.5"/>
<text text-anchor="start" x="8" y="-18.5" font-family="Helvetica,sans-Serif" font-size="10.00" fill="#000000">omc_GraphStreamExt</text>
<text text-anchor="middle" x="56.5" y="-7.5" font-family="Helvetica,sans-Serif" font-size="10.00" fill="#000000">_newStream</text>
</g>
<!-- Node111 -->
<g id="node2" class="node">
<title>Node111</title>
<g id="a_node2"><a xlink:href="../../dd/d41/_graph_stream_ext_8h.html#a2cd28a2eb3901d6d92c470c8d14aa481" target="_top" xlink:title="GraphStreamExt_newStream">
<polygon fill="#ffffff" stroke="#000000" points="149,-6 149,-25 293,-25 293,-6 149,-6"/>
<text text-anchor="middle" x="221" y="-13" font-family="Helvetica,sans-Serif" font-size="10.00" fill="#000000">GraphStreamExt_newStream</text>
</a>
</g>
</g>
<!-- Node110&#45;&gt;Node111 -->
<g id="edge1" class="edge">
<title>Node110&#45;&gt;Node111</title>
<path fill="none" stroke="#191970" d="M113.1116,-15.5C121.3946,-15.5 130.0631,-15.5 138.7319,-15.5"/>
<polygon fill="#191970" stroke="#191970" points="138.8853,-19.0001 148.8853,-15.5 138.8853,-12.0001 138.8853,-19.0001"/>
</g>
<!-- Node112 -->
<g id="node3" class="node">
<title>Node112</title>
<g id="a_node3"><a xlink:href="../../da/d9c/_graph_stream_ext__impl_8cpp.html#ab997cb92a5b4ca8c0ed331675d4c18d9" target="_top" xlink:title="GraphStreamExtImpl\l_newStream">
<polygon fill="#ffffff" stroke="#000000" points="329,-.5 329,-30.5 437,-30.5 437,-.5 329,-.5"/>
<text text-anchor="start" x="337" y="-18.5" font-family="Helvetica,sans-Serif" font-size="10.00" fill="#000000">GraphStreamExtImpl</text>
<text text-anchor="middle" x="383" y="-7.5" font-family="Helvetica,sans-Serif" font-size="10.00" fill="#000000">_newStream</text>
</a>
</g>
</g>
<!-- Node111&#45;&gt;Node112 -->
<g id="edge2" class="edge">
<title>Node111&#45;&gt;Node112</title>
<path fill="none" stroke="#191970" d="M293.4711,-15.5C301.764,-15.5 310.1774,-15.5 318.3585,-15.5"/>
<polygon fill="#191970" stroke="#191970" points="318.5705,-19.0001 328.5704,-15.5 318.5704,-12.0001 318.5705,-19.0001"/>
</g>
</g>
</svg>
