<?xml version="1.0" encoding="UTF-8" standalone="no"?>
<!DOCTYPE svg PUBLIC "-//W3C//DTD SVG 1.1//EN"
 "http://www.w3.org/Graphics/SVG/1.1/DTD/svg11.dtd">
<!-- Generated by graphviz version 2.40.1 (20161225.0304)
 -->
<!-- Title: boxptr_FNode_isRefIn Pages: 1 -->
<svg width="907pt" height="161pt"
 viewBox="0.00 0.00 907.00 161.33" xmlns="http://www.w3.org/2000/svg" xmlns:xlink="http://www.w3.org/1999/xlink">
<g id="graph0" class="graph" transform="scale(1 1) rotate(0) translate(4 157.331)">
<title>boxptr_FNode_isRefIn</title>
<polygon fill="#ffffff" stroke="transparent" points="-4,4 -4,-157.331 903,-157.331 903,4 -4,4"/>
<!-- Node199 -->
<g id="node1" class="node">
<title>Node199</title>
<polygon fill="#bfbfbf" stroke="#000000" points="0,-19.831 0,-38.831 115,-38.831 115,-19.831 0,-19.831"/>
<text text-anchor="middle" x="57.5" y="-26.831" font-family="Helvetica,sans-Serif" font-size="10.00" fill="#000000">boxptr_FNode_isRefIn</text>
</g>
<!-- Node200 -->
<g id="node2" class="node">
<title>Node200</title>
<g id="a_node2"><a xlink:href="../../d2/d0f/_f_node_8c.html#ad77ff5c21d636a7c79453136c3499ef9" target="_top" xlink:title="omc_FNode_isRefIn">
<polygon fill="#ffffff" stroke="#000000" points="151,-19.831 151,-38.831 258,-38.831 258,-19.831 151,-19.831"/>
<text text-anchor="middle" x="204.5" y="-26.831" font-family="Helvetica,sans-Serif" font-size="10.00" fill="#000000">omc_FNode_isRefIn</text>
</a>
</g>
</g>
<!-- Node199&#45;&gt;Node200 -->
<g id="edge1" class="edge">
<title>Node199&#45;&gt;Node200</title>
<path fill="none" stroke="#191970" d="M115.1764,-29.331C123.5253,-29.331 132.1602,-29.331 140.622,-29.331"/>
<polygon fill="#191970" stroke="#191970" points="140.8268,-32.8311 150.8268,-29.331 140.8268,-25.8311 140.8268,-32.8311"/>
</g>
<!-- Node201 -->
<g id="node3" class="node">
<title>Node201</title>
<g id="a_node3"><a xlink:href="../../d2/d0f/_f_node_8c.html#ab960df8930650bf1f043f93a5c67f081" target="_top" xlink:title="omc_FNode_isIn">
<polygon fill="#ffffff" stroke="#000000" points="294,-57.831 294,-76.831 385,-76.831 385,-57.831 294,-57.831"/>
<text text-anchor="middle" x="339.5" y="-64.831" font-family="Helvetica,sans-Serif" font-size="10.00" fill="#000000">omc_FNode_isIn</text>
</a>
</g>
</g>
<!-- Node200&#45;&gt;Node201 -->
<g id="edge2" class="edge">
<title>Node200&#45;&gt;Node201</title>
<path fill="none" stroke="#191970" d="M238.5662,-38.92C255.9135,-43.803 277.2022,-49.7953 295.7492,-55.016"/>
<polygon fill="#191970" stroke="#191970" points="294.8704,-58.4046 305.4447,-57.7451 296.7671,-51.6664 294.8704,-58.4046"/>
</g>
<!-- Node205 -->
<g id="node7" class="node">
<title>Node205</title>
<g id="a_node7"><a xlink:href="../../d2/d0f/_f_node_8c.html#ab9dbc34a8a7187057b8c2533b409fae3" target="_top" xlink:title="omc_FNode_fromRef">
<polygon fill="#ffffff" stroke="#000000" points="789,-25.831 789,-44.831 899,-44.831 899,-25.831 789,-25.831"/>
<text text-anchor="middle" x="844" y="-32.831" font-family="Helvetica,sans-Serif" font-size="10.00" fill="#000000">omc_FNode_fromRef</text>
</a>
</g>
</g>
<!-- Node200&#45;&gt;Node205 -->
<g id="edge13" class="edge">
<title>Node200&#45;&gt;Node205</title>
<path fill="none" stroke="#191970" d="M258.1216,-21.7694C356.6295,-9.1631 572.8319,12.526 753,-11.331 770.5717,-13.6578 789.5924,-18.3224 805.6786,-22.9257"/>
<polygon fill="#191970" stroke="#191970" points="804.6941,-26.2843 815.2761,-25.7625 806.6783,-19.5714 804.6941,-26.2843"/>
</g>
<!-- Node202 -->
<g id="node4" class="node">
<title>Node202</title>
<g id="a_node4"><a xlink:href="../../d2/d0f/_f_node_8c.html#a167bbe2a453b322f37c7d25a4d2d6bbf" target="_top" xlink:title="omc_FNode_originalScope">
<polygon fill="#ffffff" stroke="#000000" points="428,-133.831 428,-152.831 562,-152.831 562,-133.831 428,-133.831"/>
<text text-anchor="middle" x="495" y="-140.831" font-family="Helvetica,sans-Serif" font-size="10.00" fill="#000000">omc_FNode_originalScope</text>
</a>
</g>
</g>
<!-- Node201&#45;&gt;Node202 -->
<g id="edge3" class="edge">
<title>Node201&#45;&gt;Node202</title>
<path fill="none" stroke="#191970" d="M350.3131,-76.8332C365.2209,-89.4578 393.3879,-111.6401 421,-124.331 426.2501,-126.7441 431.8562,-128.886 437.5452,-130.7793"/>
<polygon fill="#191970" stroke="#191970" points="436.562,-134.1387 447.1492,-133.7348 438.6209,-127.4483 436.562,-134.1387"/>
</g>
<!-- Node206 -->
<g id="node8" class="node">
<title>Node206</title>
<g id="a_node8"><a xlink:href="../../d2/d0f/_f_node_8c.html#a12d12430af0e0453f0221fdd508629e1" target="_top" xlink:title="omc_FNode_toRef">
<polygon fill="#ffffff" stroke="#000000" points="445.5,-95.831 445.5,-114.831 544.5,-114.831 544.5,-95.831 445.5,-95.831"/>
<text text-anchor="middle" x="495" y="-102.831" font-family="Helvetica,sans-Serif" font-size="10.00" fill="#000000">omc_FNode_toRef</text>
</a>
</g>
</g>
<!-- Node201&#45;&gt;Node206 -->
<g id="edge7" class="edge">
<title>Node201&#45;&gt;Node206</title>
<path fill="none" stroke="#191970" d="M378.7392,-76.92C399.2591,-81.9345 424.567,-88.1191 446.3255,-93.4363"/>
<polygon fill="#191970" stroke="#191970" points="445.4979,-96.837 456.043,-95.811 447.1597,-90.0371 445.4979,-96.837"/>
</g>
<!-- Node207 -->
<g id="node9" class="node">
<title>Node207</title>
<g id="a_node9"><a xlink:href="../../da/d72/_compiler_2boot_2build_2list_8c.html#a997adca56a546c8e84f98edee3074da5" target="_top" xlink:title="omc_List_applyAndFold">
<polygon fill="#ffffff" stroke="#000000" points="434.5,-57.831 434.5,-76.831 555.5,-76.831 555.5,-57.831 434.5,-57.831"/>
<text text-anchor="middle" x="495" y="-64.831" font-family="Helvetica,sans-Serif" font-size="10.00" fill="#000000">omc_List_applyAndFold</text>
</a>
</g>
</g>
<!-- Node201&#45;&gt;Node207 -->
<g id="edge8" class="edge">
<title>Node201&#45;&gt;Node207</title>
<path fill="none" stroke="#191970" d="M385.3141,-67.331C397.5217,-67.331 411.0007,-67.331 424.2097,-67.331"/>
<polygon fill="#191970" stroke="#191970" points="424.2325,-70.8311 434.2324,-67.331 424.2324,-63.8311 424.2325,-70.8311"/>
</g>
<!-- Node208 -->
<g id="node10" class="node">
<title>Node208</title>
<g id="a_node10"><a xlink:href="../../d2/d0f/_f_node_8c.html#a21c88cbc9f4b0199137daab663cc2f2a" target="_top" xlink:title="omc_FNode_contextualScope">
<polygon fill="#ffffff" stroke="#000000" points="421,-19.831 421,-38.831 569,-38.831 569,-19.831 421,-19.831"/>
<text text-anchor="middle" x="495" y="-26.831" font-family="Helvetica,sans-Serif" font-size="10.00" fill="#000000">omc_FNode_contextualScope</text>
</a>
</g>
</g>
<!-- Node201&#45;&gt;Node208 -->
<g id="edge9" class="edge">
<title>Node201&#45;&gt;Node208</title>
<path fill="none" stroke="#191970" d="M378.7392,-57.742C399.2591,-52.7275 424.567,-46.543 446.3255,-41.2258"/>
<polygon fill="#191970" stroke="#191970" points="447.1597,-44.625 456.043,-38.8511 445.4979,-37.8251 447.1597,-44.625"/>
</g>
<!-- Node203 -->
<g id="node5" class="node">
<title>Node203</title>
<g id="a_node5"><a xlink:href="../../d2/d0f/_f_node_8c.html#afd3c5ad5badd524aff6200c2b100198f" target="_top" xlink:title="omc_FNode_originalScope\l__dispatch">
<polygon fill="#ffffff" stroke="#000000" points="612,-69.331 612,-99.331 746,-99.331 746,-69.331 612,-69.331"/>
<text text-anchor="start" x="620" y="-87.331" font-family="Helvetica,sans-Serif" font-size="10.00" fill="#000000">omc_FNode_originalScope</text>
<text text-anchor="middle" x="679" y="-76.331" font-family="Helvetica,sans-Serif" font-size="10.00" fill="#000000">__dispatch</text>
</a>
</g>
</g>
<!-- Node202&#45;&gt;Node203 -->
<g id="edge4" class="edge">
<title>Node202&#45;&gt;Node203</title>
<path fill="none" stroke="#191970" d="M535.1409,-133.7834C546.1758,-130.9531 558.1027,-127.7026 569,-124.331 589.5097,-117.9855 611.8258,-110.0648 630.9643,-102.9498"/>
<polygon fill="#191970" stroke="#191970" points="632.2336,-106.2119 640.3684,-99.4241 629.7761,-99.6574 632.2336,-106.2119"/>
</g>
<!-- Node204 -->
<g id="node6" class="node">
<title>Node204</title>
<g id="a_node6"><a xlink:href="../../d2/d0f/_f_node_8c.html#a6ae2d59fac6c13173ab73564c4ca2635" target="_top" xlink:title="omc_FNode_isTop">
<polygon fill="#ffffff" stroke="#000000" points="794.5,-68.831 794.5,-87.831 893.5,-87.831 893.5,-68.831 794.5,-68.831"/>
<text text-anchor="middle" x="844" y="-75.831" font-family="Helvetica,sans-Serif" font-size="10.00" fill="#000000">omc_FNode_isTop</text>
</a>
</g>
</g>
<!-- Node203&#45;&gt;Node204 -->
<g id="edge5" class="edge">
<title>Node203&#45;&gt;Node204</title>
<path fill="none" stroke="#191970" d="M746.1118,-81.8906C758.7282,-81.4318 771.8424,-80.9549 784.2171,-80.505"/>
<polygon fill="#191970" stroke="#191970" points="784.5445,-83.9955 794.4107,-80.1343 784.2901,-77.0001 784.5445,-83.9955"/>
</g>
<!-- Node203&#45;&gt;Node205 -->
<g id="edge6" class="edge">
<title>Node203&#45;&gt;Node205</title>
<path fill="none" stroke="#191970" d="M729.8518,-69.2296C753.0078,-62.353 780.0845,-54.312 802.054,-47.7877"/>
<polygon fill="#191970" stroke="#191970" points="803.1665,-51.1085 811.7563,-44.9064 801.1737,-44.3981 803.1665,-51.1085"/>
</g>
<!-- Node209 -->
<g id="node11" class="node">
<title>Node209</title>
<g id="a_node11"><a xlink:href="../../d2/d0f/_f_node_8c.html#ab848aa36f3812c5ce2bd1baeb060e63f" target="_top" xlink:title="omc_FNode_contextualScope\l__dispatch">
<polygon fill="#ffffff" stroke="#000000" points="605,-20.331 605,-50.331 753,-50.331 753,-20.331 605,-20.331"/>
<text text-anchor="start" x="613" y="-38.331" font-family="Helvetica,sans-Serif" font-size="10.00" fill="#000000">omc_FNode_contextualScope</text>
<text text-anchor="middle" x="679" y="-27.331" font-family="Helvetica,sans-Serif" font-size="10.00" fill="#000000">__dispatch</text>
</a>
</g>
</g>
<!-- Node208&#45;&gt;Node209 -->
<g id="edge10" class="edge">
<title>Node208&#45;&gt;Node209</title>
<path fill="none" stroke="#191970" d="M569.0445,-31.7455C577.5139,-32.0217 586.1946,-32.3048 594.7841,-32.5849"/>
<polygon fill="#191970" stroke="#191970" points="594.6987,-36.0838 604.8075,-32.9117 594.9269,-29.0876 594.6987,-36.0838"/>
</g>
<!-- Node209&#45;&gt;Node204 -->
<g id="edge11" class="edge">
<title>Node209&#45;&gt;Node204</title>
<path fill="none" stroke="#191970" d="M736.709,-50.3703C756.5602,-55.5437 778.5224,-61.2672 797.379,-66.1813"/>
<polygon fill="#191970" stroke="#191970" points="796.6552,-69.6095 807.2146,-68.7445 798.4205,-62.8357 796.6552,-69.6095"/>
</g>
<!-- Node209&#45;&gt;Node205 -->
<g id="edge12" class="edge">
<title>Node209&#45;&gt;Node205</title>
<path fill="none" stroke="#191970" d="M753.2943,-35.331C761.808,-35.331 770.4394,-35.331 778.821,-35.331"/>
<polygon fill="#191970" stroke="#191970" points="778.8961,-38.8311 788.8961,-35.331 778.8961,-31.8311 778.8961,-38.8311"/>
</g>
</g>
</svg>
