<?xml version="1.0" encoding="UTF-8" standalone="no"?>
<!DOCTYPE svg PUBLIC "-//W3C//DTD SVG 1.1//EN"
 "http://www.w3.org/Graphics/SVG/1.1/DTD/svg11.dtd">
<!-- Generated by graphviz version 2.40.1 (20161225.0304)
 -->
<!-- Title: omc_FNode_copyRef Pages: 1 -->
<svg width="458pt" height="85pt"
 viewBox="0.00 0.00 458.00 85.00" xmlns="http://www.w3.org/2000/svg" xmlns:xlink="http://www.w3.org/1999/xlink">
<g id="graph0" class="graph" transform="scale(1 1) rotate(0) translate(4 81)">
<title>omc_FNode_copyRef</title>
<polygon fill="#ffffff" stroke="transparent" points="-4,4 -4,-81 454,-81 454,4 -4,4"/>
<!-- Node2471 -->
<g id="node1" class="node">
<title>Node2471</title>
<polygon fill="#bfbfbf" stroke="#000000" points="0,-19.5 0,-38.5 112,-38.5 112,-19.5 0,-19.5"/>
<text text-anchor="middle" x="56" y="-26.5" font-family="Helvetica,sans-Serif" font-size="10.00" fill="#000000">omc_FNode_copyRef</text>
</g>
<!-- Node2472 -->
<g id="node2" class="node">
<title>Node2472</title>
<g id="a_node2"><a xlink:href="../../d2/d0f/_f_node_8c.html#a58875e9804c493494b0f31718682664c" target="_top" xlink:title="omc_FNode_copyRefNoUpdate">
<polygon fill="#ffffff" stroke="#000000" points="148,-38.5 148,-57.5 304,-57.5 304,-38.5 148,-38.5"/>
<text text-anchor="middle" x="226" y="-45.5" font-family="Helvetica,sans-Serif" font-size="10.00" fill="#000000">omc_FNode_copyRefNoUpdate</text>
</a>
</g>
</g>
<!-- Node2471&#45;&gt;Node2472 -->
<g id="edge1" class="edge">
<title>Node2471&#45;&gt;Node2472</title>
<path fill="none" stroke="#191970" d="M112.1355,-35.274C120.338,-36.1907 128.9474,-37.1529 137.6039,-38.1204"/>
<polygon fill="#191970" stroke="#191970" points="137.439,-41.6237 147.7659,-39.2562 138.2166,-34.667 137.439,-41.6237"/>
</g>
<!-- Node2475 -->
<g id="node5" class="node">
<title>Node2475</title>
<g id="a_node5"><a xlink:href="../../d2/d0f/_f_node_8c.html#a3264433ea0238771fc5323416b70a1d3" target="_top" xlink:title="omc_FNode_updateRefs">
<polygon fill="#ffffff" stroke="#000000" points="163.5,-.5 163.5,-19.5 288.5,-19.5 288.5,-.5 163.5,-.5"/>
<text text-anchor="middle" x="226" y="-7.5" font-family="Helvetica,sans-Serif" font-size="10.00" fill="#000000">omc_FNode_updateRefs</text>
</a>
</g>
</g>
<!-- Node2471&#45;&gt;Node2475 -->
<g id="edge4" class="edge">
<title>Node2471&#45;&gt;Node2475</title>
<path fill="none" stroke="#191970" d="M112.1355,-22.726C125.3656,-21.2474 139.6543,-19.6504 153.4916,-18.1039"/>
<polygon fill="#191970" stroke="#191970" points="153.9165,-21.5783 163.4658,-16.9891 153.1389,-14.6216 153.9165,-21.5783"/>
</g>
<!-- Node2473 -->
<g id="node3" class="node">
<title>Node2473</title>
<g id="a_node3"><a xlink:href="../../d2/d0f/_f_node_8c.html#a9285cfadcab22944e4002e4ca0e98a09" target="_top" xlink:title="omc_FNode_copy">
<polygon fill="#ffffff" stroke="#000000" points="347,-57.5 347,-76.5 443,-76.5 443,-57.5 347,-57.5"/>
<text text-anchor="middle" x="395" y="-64.5" font-family="Helvetica,sans-Serif" font-size="10.00" fill="#000000">omc_FNode_copy</text>
</a>
</g>
</g>
<!-- Node2472&#45;&gt;Node2473 -->
<g id="edge2" class="edge">
<title>Node2472&#45;&gt;Node2473</title>
<path fill="none" stroke="#191970" d="M304.069,-56.777C314.9663,-58.0021 326.007,-59.2434 336.4607,-60.4187"/>
<polygon fill="#191970" stroke="#191970" points="336.3631,-63.9297 346.6916,-61.5689 337.1452,-56.9735 336.3631,-63.9297"/>
</g>
<!-- Node2474 -->
<g id="node4" class="node">
<title>Node2474</title>
<g id="a_node4"><a xlink:href="../../d2/d0f/_f_node_8c.html#ab9dbc34a8a7187057b8c2533b409fae3" target="_top" xlink:title="omc_FNode_fromRef">
<polygon fill="#ffffff" stroke="#000000" points="340,-19.5 340,-38.5 450,-38.5 450,-19.5 340,-19.5"/>
<text text-anchor="middle" x="395" y="-26.5" font-family="Helvetica,sans-Serif" font-size="10.00" fill="#000000">omc_FNode_fromRef</text>
</a>
</g>
</g>
<!-- Node2472&#45;&gt;Node2474 -->
<g id="edge3" class="edge">
<title>Node2472&#45;&gt;Node2474</title>
<path fill="none" stroke="#191970" d="M304.069,-39.223C312.6771,-38.2552 321.3747,-37.2774 329.8018,-36.33"/>
<polygon fill="#191970" stroke="#191970" points="330.3762,-39.7875 339.9225,-35.1921 329.594,-32.8314 330.3762,-39.7875"/>
</g>
</g>
</svg>
