<?xml version="1.0" encoding="UTF-8" standalone="no"?>
<!DOCTYPE svg PUBLIC "-//W3C//DTD SVG 1.1//EN"
 "http://www.w3.org/Graphics/SVG/1.1/DTD/svg11.dtd">
<!-- Generated by graphviz version 2.40.1 (20161225.0304)
 -->
<!-- Title: boxptr_FNode_scopeHashWork Pages: 1 -->
<svg width="643pt" height="85pt"
 viewBox="0.00 0.00 643.00 85.00" xmlns="http://www.w3.org/2000/svg" xmlns:xlink="http://www.w3.org/1999/xlink">
<g id="graph0" class="graph" transform="scale(1 1) rotate(0) translate(4 81)">
<title>boxptr_FNode_scopeHashWork</title>
<polygon fill="#ffffff" stroke="transparent" points="-4,4 -4,-81 639,-81 639,4 -4,4"/>
<!-- Node320 -->
<g id="node1" class="node">
<title>Node320</title>
<polygon fill="#bfbfbf" stroke="#000000" points="0,-38.5 0,-57.5 156,-57.5 156,-38.5 0,-38.5"/>
<text text-anchor="middle" x="78" y="-45.5" font-family="Helvetica,sans-Serif" font-size="10.00" fill="#000000">boxptr_FNode_scopeHashWork</text>
</g>
<!-- Node321 -->
<g id="node2" class="node">
<title>Node321</title>
<g id="a_node2"><a xlink:href="../../d2/d0f/_f_node_8c.html#ac595a5c5462def29aad7dcef6049a7d9" target="_top" xlink:title="omc_FNode_scopeHashWork">
<polygon fill="#ffffff" stroke="#000000" points="192,-38.5 192,-57.5 340,-57.5 340,-38.5 192,-38.5"/>
<text text-anchor="middle" x="266" y="-45.5" font-family="Helvetica,sans-Serif" font-size="10.00" fill="#000000">omc_FNode_scopeHashWork</text>
</a>
</g>
</g>
<!-- Node320&#45;&gt;Node321 -->
<g id="edge1" class="edge">
<title>Node320&#45;&gt;Node321</title>
<path fill="none" stroke="#191970" d="M156.0957,-48C164.4872,-48 173.0529,-48 181.5147,-48"/>
<polygon fill="#191970" stroke="#191970" points="181.766,-51.5001 191.766,-48 181.7659,-44.5001 181.766,-51.5001"/>
</g>
<!-- Node322 -->
<g id="node3" class="node">
<title>Node322</title>
<g id="a_node3"><a xlink:href="../../d2/d57/build_2include_2omc_2c_2meta_2meta__modelica__builtin_8h.html#aad622f4e050ebd3c1418cfa5b73b9176" target="_top" xlink:title="stringHashDjb2">
<polygon fill="#ffffff" stroke="#000000" points="390.5,-57.5 390.5,-76.5 474.5,-76.5 474.5,-57.5 390.5,-57.5"/>
<text text-anchor="middle" x="432.5" y="-64.5" font-family="Helvetica,sans-Serif" font-size="10.00" fill="#000000">stringHashDjb2</text>
</a>
</g>
</g>
<!-- Node321&#45;&gt;Node322 -->
<g id="edge2" class="edge">
<title>Node321&#45;&gt;Node322</title>
<path fill="none" stroke="#191970" d="M340.4842,-56.4997C353.8778,-58.0281 367.5775,-59.5914 380.1757,-61.0291"/>
<polygon fill="#191970" stroke="#191970" points="380.1358,-64.5471 390.4682,-62.2036 380.9296,-57.5923 380.1358,-64.5471"/>
</g>
<!-- Node323 -->
<g id="node4" class="node">
<title>Node323</title>
<g id="a_node4"><a xlink:href="../../d2/d0f/_f_node_8c.html#ac4be285f5930ece6b4a48363c7e194ed" target="_top" xlink:title="omc_FNode_refName">
<polygon fill="#ffffff" stroke="#000000" points="376,-19.5 376,-38.5 489,-38.5 489,-19.5 376,-19.5"/>
<text text-anchor="middle" x="432.5" y="-26.5" font-family="Helvetica,sans-Serif" font-size="10.00" fill="#000000">omc_FNode_refName</text>
</a>
</g>
</g>
<!-- Node321&#45;&gt;Node323 -->
<g id="edge3" class="edge">
<title>Node321&#45;&gt;Node323</title>
<path fill="none" stroke="#191970" d="M340.4842,-39.5003C348.8559,-38.545 357.3471,-37.576 365.6142,-36.6326"/>
<polygon fill="#191970" stroke="#191970" points="366.0254,-40.1085 375.564,-35.4972 365.2317,-33.1536 366.0254,-40.1085"/>
</g>
<!-- Node324 -->
<g id="node5" class="node">
<title>Node324</title>
<g id="a_node5"><a xlink:href="../../d2/d0f/_f_node_8c.html#ad0051d6dec4182a2aeb8d78b27565627" target="_top" xlink:title="omc_FNode_name">
<polygon fill="#ffffff" stroke="#000000" points="530.5,-38.5 530.5,-57.5 629.5,-57.5 629.5,-38.5 530.5,-38.5"/>
<text text-anchor="middle" x="580" y="-45.5" font-family="Helvetica,sans-Serif" font-size="10.00" fill="#000000">omc_FNode_name</text>
</a>
</g>
</g>
<!-- Node323&#45;&gt;Node324 -->
<g id="edge4" class="edge">
<title>Node323&#45;&gt;Node324</title>
<path fill="none" stroke="#191970" d="M489.1055,-36.2916C499.2201,-37.5945 509.7902,-38.956 519.9961,-40.2707"/>
<polygon fill="#191970" stroke="#191970" points="519.6851,-43.7595 530.0504,-41.5658 520.5795,-36.8168 519.6851,-43.7595"/>
</g>
<!-- Node325 -->
<g id="node6" class="node">
<title>Node325</title>
<g id="a_node6"><a xlink:href="../../d2/d0f/_f_node_8c.html#ab9dbc34a8a7187057b8c2533b409fae3" target="_top" xlink:title="omc_FNode_fromRef">
<polygon fill="#ffffff" stroke="#000000" points="525,-.5 525,-19.5 635,-19.5 635,-.5 525,-.5"/>
<text text-anchor="middle" x="580" y="-7.5" font-family="Helvetica,sans-Serif" font-size="10.00" fill="#000000">omc_FNode_fromRef</text>
</a>
</g>
</g>
<!-- Node323&#45;&gt;Node325 -->
<g id="edge5" class="edge">
<title>Node323&#45;&gt;Node325</title>
<path fill="none" stroke="#191970" d="M489.1055,-21.7084C497.514,-20.6253 506.2373,-19.5016 514.8045,-18.3981"/>
<polygon fill="#191970" stroke="#191970" points="515.2909,-21.8644 524.7618,-17.1154 514.3965,-14.9218 515.2909,-21.8644"/>
</g>
</g>
</svg>
