<?xml version="1.0" encoding="UTF-8" standalone="no"?>
<!DOCTYPE svg PUBLIC "-//W3C//DTD SVG 1.1//EN"
 "http://www.w3.org/Graphics/SVG/1.1/DTD/svg11.dtd">
<!-- Generated by graphviz version 2.40.1 (20161225.0304)
 -->
<!-- Title: omc_FNode_isReference Pages: 1 -->
<svg width="503pt" height="66pt"
 viewBox="0.00 0.00 503.00 66.00" xmlns="http://www.w3.org/2000/svg" xmlns:xlink="http://www.w3.org/1999/xlink">
<g id="graph0" class="graph" transform="scale(1 1) rotate(0) translate(4 62)">
<title>omc_FNode_isReference</title>
<polygon fill="#ffffff" stroke="transparent" points="-4,4 -4,-62 499,-62 499,4 -4,4"/>
<!-- Node6251 -->
<g id="node1" class="node">
<title>Node6251</title>
<polygon fill="#bfbfbf" stroke="#000000" points="0,-19.5 0,-38.5 128,-38.5 128,-19.5 0,-19.5"/>
<text text-anchor="middle" x="64" y="-26.5" font-family="Helvetica,sans-Serif" font-size="10.00" fill="#000000">omc_FNode_isReference</text>
</g>
<!-- Node6252 -->
<g id="node2" class="node">
<title>Node6252</title>
<g id="a_node2"><a xlink:href="../../d6/d9d/_f_node_8h.html#a7272f143c12d7260cf23b242e49dc125" target="_top" xlink:title="omc_FNode_isRefReference">
<polygon fill="#ffffff" stroke="#000000" points="164,-38.5 164,-57.5 307,-57.5 307,-38.5 164,-38.5"/>
<text text-anchor="middle" x="235.5" y="-45.5" font-family="Helvetica,sans-Serif" font-size="10.00" fill="#000000">omc_FNode_isRefReference</text>
</a>
</g>
</g>
<!-- Node6251&#45;&gt;Node6252 -->
<g id="edge1" class="edge">
<title>Node6251&#45;&gt;Node6252</title>
<path fill="none" stroke="#191970" d="M138.5213,-37.256C146.9395,-38.1886 155.5045,-39.1375 163.8844,-40.0659"/>
<polygon fill="#191970" stroke="#191970" points="138.6728,-33.7515 128.3482,-36.129 137.902,-40.7089 138.6728,-33.7515"/>
</g>
<!-- Node6254 -->
<g id="node4" class="node">
<title>Node6254</title>
<g id="a_node4"><a xlink:href="../../d6/d9d/_f_node_8h.html#aa479e22d10387e4fc29a913dd8fbbb9d" target="_top" xlink:title="boxptr_FNode_isReference">
<polygon fill="#ffffff" stroke="#000000" points="167.5,-.5 167.5,-19.5 303.5,-19.5 303.5,-.5 167.5,-.5"/>
<text text-anchor="middle" x="235.5" y="-7.5" font-family="Helvetica,sans-Serif" font-size="10.00" fill="#000000">boxptr_FNode_isReference</text>
</a>
</g>
</g>
<!-- Node6251&#45;&gt;Node6254 -->
<g id="edge3" class="edge">
<title>Node6251&#45;&gt;Node6254</title>
<path fill="none" stroke="#191970" d="M138.3121,-20.7672C147.9619,-19.6981 157.8084,-18.6072 167.3511,-17.55"/>
<polygon fill="#191970" stroke="#191970" points="137.902,-17.2911 128.3482,-21.871 138.6728,-24.2485 137.902,-17.2911"/>
</g>
<!-- Node6253 -->
<g id="node3" class="node">
<title>Node6253</title>
<g id="a_node3"><a xlink:href="../../d6/d9d/_f_node_8h.html#ac4e988c697ab2b9b80855714e9d1a3d9" target="_top" xlink:title="boxptr_FNode_isRefReference">
<polygon fill="#ffffff" stroke="#000000" points="343,-38.5 343,-57.5 495,-57.5 495,-38.5 343,-38.5"/>
<text text-anchor="middle" x="419" y="-45.5" font-family="Helvetica,sans-Serif" font-size="10.00" fill="#000000">boxptr_FNode_isRefReference</text>
</a>
</g>
</g>
<!-- Node6252&#45;&gt;Node6253 -->
<g id="edge2" class="edge">
<title>Node6252&#45;&gt;Node6253</title>
<path fill="none" stroke="#191970" d="M317.4402,-48C325.8686,-48 334.4087,-48 342.7716,-48"/>
<polygon fill="#191970" stroke="#191970" points="317.2343,-44.5001 307.2343,-48 317.2342,-51.5001 317.2343,-44.5001"/>
</g>
</g>
</svg>
