<?xml version="1.0" encoding="UTF-8" standalone="no"?>
<!DOCTYPE svg PUBLIC "-//W3C//DTD SVG 1.1//EN"
 "http://www.w3.org/Graphics/SVG/1.1/DTD/svg11.dtd">
<!-- Generated by graphviz version 2.40.1 (20161225.0304)
 -->
<!-- Title: omc_FNode_isRefRefResolved Pages: 1 -->
<svg width="1397pt" height="123pt"
 viewBox="0.00 0.00 1397.00 123.00" xmlns="http://www.w3.org/2000/svg" xmlns:xlink="http://www.w3.org/1999/xlink">
<g id="graph0" class="graph" transform="scale(1 1) rotate(0) translate(4 119)">
<title>omc_FNode_isRefRefResolved</title>
<polygon fill="#ffffff" stroke="transparent" points="-4,4 -4,-119 1393,-119 1393,4 -4,4"/>
<!-- Node6583 -->
<g id="node1" class="node">
<title>Node6583</title>
<polygon fill="#bfbfbf" stroke="#000000" points="0,-38.5 0,-57.5 155,-57.5 155,-38.5 0,-38.5"/>
<text text-anchor="middle" x="77.5" y="-45.5" font-family="Helvetica,sans-Serif" font-size="10.00" fill="#000000">omc_FNode_isRefRefResolved</text>
</g>
<!-- Node6584 -->
<g id="node2" class="node">
<title>Node6584</title>
<g id="a_node2"><a xlink:href="../../d2/d0f/_f_node_8c.html#afcf8164bc77dda82b8e28616bb84d50d" target="_top" xlink:title="omc_FNode_isRefRefUnresolved">
<polygon fill="#ffffff" stroke="#000000" points="191,-38.5 191,-57.5 355,-57.5 355,-38.5 191,-38.5"/>
<text text-anchor="middle" x="273" y="-45.5" font-family="Helvetica,sans-Serif" font-size="10.00" fill="#000000">omc_FNode_isRefRefUnresolved</text>
</a>
</g>
</g>
<!-- Node6583&#45;&gt;Node6584 -->
<g id="edge1" class="edge">
<title>Node6583&#45;&gt;Node6584</title>
<path fill="none" stroke="#191970" d="M155.0476,-48C163.4761,-48 172.1142,-48 180.6962,-48"/>
<polygon fill="#191970" stroke="#191970" points="180.729,-51.5001 190.7289,-48 180.7289,-44.5001 180.729,-51.5001"/>
</g>
<!-- Node6585 -->
<g id="node3" class="node">
<title>Node6585</title>
<g id="a_node3"><a xlink:href="../../d2/d0f/_f_node_8c.html#a3949a9da3aaba573722bee735644541e" target="_top" xlink:title="omc_FNode_refRef">
<polygon fill="#ffffff" stroke="#000000" points="598,-76.5 598,-95.5 700,-95.5 700,-76.5 598,-76.5"/>
<text text-anchor="middle" x="649" y="-83.5" font-family="Helvetica,sans-Serif" font-size="10.00" fill="#000000">omc_FNode_refRef</text>
</a>
</g>
</g>
<!-- Node6584&#45;&gt;Node6585 -->
<g id="edge2" class="edge">
<title>Node6584&#45;&gt;Node6585</title>
<path fill="none" stroke="#191970" d="M326.0245,-57.5349C346.299,-60.9182 369.6695,-64.502 391,-67 458.1213,-74.8606 535.4707,-80.0447 587.8363,-82.9831"/>
<polygon fill="#191970" stroke="#191970" points="587.7885,-86.4856 597.9658,-83.5409 588.1734,-79.4962 587.7885,-86.4856"/>
</g>
<!-- Node6592 -->
<g id="node10" class="node">
<title>Node6592</title>
<g id="a_node10"><a xlink:href="../../d2/d0f/_f_node_8c.html#adbdf99851fb571271a91d059cac7ec44" target="_top" xlink:title="omc_FNode_refRefTargetScope">
<polygon fill="#ffffff" stroke="#000000" points="391,-38.5 391,-57.5 549,-57.5 549,-38.5 391,-38.5"/>
<text text-anchor="middle" x="470" y="-45.5" font-family="Helvetica,sans-Serif" font-size="10.00" fill="#000000">omc_FNode_refRefTargetScope</text>
</a>
</g>
</g>
<!-- Node6584&#45;&gt;Node6592 -->
<g id="edge9" class="edge">
<title>Node6584&#45;&gt;Node6592</title>
<path fill="none" stroke="#191970" d="M355.1192,-48C363.618,-48 372.2842,-48 380.8551,-48"/>
<polygon fill="#191970" stroke="#191970" points="380.8571,-51.5001 390.857,-48 380.857,-44.5001 380.8571,-51.5001"/>
</g>
<!-- Node6594 -->
<g id="node12" class="node">
<title>Node6594</title>
<g id="a_node12"><a xlink:href="../../d1/dd1/3rd_party_2gc_2include_2gc_8h.html#acacfa47efcc44a29f7bb7d98f2a000f8" target="_top" xlink:title="void">
<polygon fill="#ffffff" stroke="#000000" points="452.5,-.5 452.5,-19.5 487.5,-19.5 487.5,-.5 452.5,-.5"/>
<text text-anchor="middle" x="470" y="-7.5" font-family="Helvetica,sans-Serif" font-size="10.00" fill="#000000">void</text>
</a>
</g>
</g>
<!-- Node6584&#45;&gt;Node6594 -->
<g id="edge13" class="edge">
<title>Node6584&#45;&gt;Node6594</title>
<path fill="none" stroke="#191970" d="M322.4571,-38.46C360.3841,-31.1442 411.3351,-21.3161 442.3598,-15.3316"/>
<polygon fill="#191970" stroke="#191970" points="443.2925,-18.7163 452.4486,-13.3856 441.9666,-11.843 443.2925,-18.7163"/>
</g>
<!-- Node6586 -->
<g id="node4" class="node">
<title>Node6586</title>
<g id="a_node4"><a xlink:href="../../d2/d0f/_f_node_8c.html#ad837a8a6752bd4ad53681789eb1192b8" target="_top" xlink:title="omc_FNode_child">
<polygon fill="#ffffff" stroke="#000000" points="749,-76.5 749,-95.5 844,-95.5 844,-76.5 749,-76.5"/>
<text text-anchor="middle" x="796.5" y="-83.5" font-family="Helvetica,sans-Serif" font-size="10.00" fill="#000000">omc_FNode_child</text>
</a>
</g>
</g>
<!-- Node6585&#45;&gt;Node6586 -->
<g id="edge3" class="edge">
<title>Node6585&#45;&gt;Node6586</title>
<path fill="none" stroke="#191970" d="M700.1744,-86C712.6488,-86 726.0769,-86 738.8306,-86"/>
<polygon fill="#191970" stroke="#191970" points="738.8831,-89.5001 748.8831,-86 738.883,-82.5001 738.8831,-89.5001"/>
</g>
<!-- Node6587 -->
<g id="node5" class="node">
<title>Node6587</title>
<g id="a_node5"><a xlink:href="../../d2/d0f/_f_node_8c.html#a7bf4bb951c0fff6c3768cc9949676448" target="_top" xlink:title="omc_FNode_childFromNode">
<polygon fill="#ffffff" stroke="#000000" points="880,-76.5 880,-95.5 1021,-95.5 1021,-76.5 880,-76.5"/>
<text text-anchor="middle" x="950.5" y="-83.5" font-family="Helvetica,sans-Serif" font-size="10.00" fill="#000000">omc_FNode_childFromNode</text>
</a>
</g>
</g>
<!-- Node6586&#45;&gt;Node6587 -->
<g id="edge4" class="edge">
<title>Node6586&#45;&gt;Node6587</title>
<path fill="none" stroke="#191970" d="M844.3824,-86C852.4421,-86 861.0009,-86 869.6247,-86"/>
<polygon fill="#191970" stroke="#191970" points="869.7522,-89.5001 879.7521,-86 869.7521,-82.5001 869.7522,-89.5001"/>
</g>
<!-- Node6591 -->
<g id="node9" class="node">
<title>Node6591</title>
<g id="a_node9"><a xlink:href="../../d2/d0f/_f_node_8c.html#ab9dbc34a8a7187057b8c2533b409fae3" target="_top" xlink:title="omc_FNode_fromRef">
<polygon fill="#ffffff" stroke="#000000" points="895.5,-38.5 895.5,-57.5 1005.5,-57.5 1005.5,-38.5 895.5,-38.5"/>
<text text-anchor="middle" x="950.5" y="-45.5" font-family="Helvetica,sans-Serif" font-size="10.00" fill="#000000">omc_FNode_fromRef</text>
</a>
</g>
</g>
<!-- Node6586&#45;&gt;Node6591 -->
<g id="edge8" class="edge">
<title>Node6586&#45;&gt;Node6591</title>
<path fill="none" stroke="#191970" d="M835.3607,-76.411C855.5911,-71.4191 880.5207,-65.2676 902.0036,-59.9666"/>
<polygon fill="#191970" stroke="#191970" points="903.0485,-63.3139 911.9187,-57.5201 901.3714,-56.5177 903.0485,-63.3139"/>
</g>
<!-- Node6588 -->
<g id="node6" class="node">
<title>Node6588</title>
<g id="a_node6"><a xlink:href="../../d2/d0f/_f_node_8c.html#aa3678179506f22ed3f92e3ef17ba350e" target="_top" xlink:title="omc_FNode_children">
<polygon fill="#ffffff" stroke="#000000" points="1066,-95.5 1066,-114.5 1175,-114.5 1175,-95.5 1066,-95.5"/>
<text text-anchor="middle" x="1120.5" y="-102.5" font-family="Helvetica,sans-Serif" font-size="10.00" fill="#000000">omc_FNode_children</text>
</a>
</g>
</g>
<!-- Node6587&#45;&gt;Node6588 -->
<g id="edge5" class="edge">
<title>Node6587&#45;&gt;Node6588</title>
<path fill="none" stroke="#191970" d="M1021.1184,-93.8926C1032.5729,-95.1729 1044.3862,-96.4932 1055.6935,-97.7569"/>
<polygon fill="#191970" stroke="#191970" points="1055.5837,-101.2664 1065.9107,-98.8988 1056.3613,-94.3097 1055.5837,-101.2664"/>
</g>
<!-- Node6589 -->
<g id="node7" class="node">
<title>Node6589</title>
<g id="a_node7"><a xlink:href="../../d2/d08/_f_core_8c.html#ab107186a2eea148b54dfa1236c7dc57f" target="_top" xlink:title="omc_FCore_RefTree_get">
<polygon fill="#ffffff" stroke="#000000" points="1057,-57.5 1057,-76.5 1184,-76.5 1184,-57.5 1057,-57.5"/>
<text text-anchor="middle" x="1120.5" y="-64.5" font-family="Helvetica,sans-Serif" font-size="10.00" fill="#000000">omc_FCore_RefTree_get</text>
</a>
</g>
</g>
<!-- Node6587&#45;&gt;Node6589 -->
<g id="edge6" class="edge">
<title>Node6587&#45;&gt;Node6589</title>
<path fill="none" stroke="#191970" d="M1021.1184,-78.1074C1029.6423,-77.1547 1038.3649,-76.1798 1046.9297,-75.2226"/>
<polygon fill="#191970" stroke="#191970" points="1047.3411,-78.6985 1056.8904,-74.1093 1046.5635,-71.7418 1047.3411,-78.6985"/>
</g>
<!-- Node6590 -->
<g id="node8" class="node">
<title>Node6590</title>
<g id="a_node8"><a xlink:href="../../d2/d08/_f_core_8c.html#a556c8fab7d705963fe0541d94033aa6e" target="_top" xlink:title="omc_FCore_RefTree_keyCompare">
<polygon fill="#ffffff" stroke="#000000" points="1220,-57.5 1220,-76.5 1389,-76.5 1389,-57.5 1220,-57.5"/>
<text text-anchor="middle" x="1304.5" y="-64.5" font-family="Helvetica,sans-Serif" font-size="10.00" fill="#000000">omc_FCore_RefTree_keyCompare</text>
</a>
</g>
</g>
<!-- Node6589&#45;&gt;Node6590 -->
<g id="edge7" class="edge">
<title>Node6589&#45;&gt;Node6590</title>
<path fill="none" stroke="#191970" d="M1184.08,-67C1192.3674,-67 1200.9959,-67 1209.658,-67"/>
<polygon fill="#191970" stroke="#191970" points="1209.8237,-70.5001 1219.8236,-67 1209.8236,-63.5001 1209.8237,-70.5001"/>
</g>
<!-- Node6592&#45;&gt;Node6585 -->
<g id="edge10" class="edge">
<title>Node6592&#45;&gt;Node6585</title>
<path fill="none" stroke="#191970" d="M515.1693,-57.589C539.2159,-62.6939 568.9744,-69.0113 594.3194,-74.3918"/>
<polygon fill="#191970" stroke="#191970" points="593.6467,-77.8269 604.1556,-76.4799 595.1004,-70.9795 593.6467,-77.8269"/>
</g>
<!-- Node6592&#45;&gt;Node6591 -->
<g id="edge12" class="edge">
<title>Node6592&#45;&gt;Node6591</title>
<path fill="none" stroke="#191970" d="M549.0756,-48C642.9923,-48 797.8949,-48 885.2717,-48"/>
<polygon fill="#191970" stroke="#191970" points="885.325,-51.5001 895.3249,-48 885.3249,-44.5001 885.325,-51.5001"/>
</g>
<!-- Node6593 -->
<g id="node11" class="node">
<title>Node6593</title>
<g id="a_node11"><a xlink:href="../../d2/d0f/_f_node_8c.html#a94cc6c0fcce209f95e4ec6a6b265c3dd" target="_top" xlink:title="omc_FNode_targetScope">
<polygon fill="#ffffff" stroke="#000000" points="585,-.5 585,-19.5 713,-19.5 713,-.5 585,-.5"/>
<text text-anchor="middle" x="649" y="-7.5" font-family="Helvetica,sans-Serif" font-size="10.00" fill="#000000">omc_FNode_targetScope</text>
</a>
</g>
</g>
<!-- Node6592&#45;&gt;Node6593 -->
<g id="edge11" class="edge">
<title>Node6592&#45;&gt;Node6593</title>
<path fill="none" stroke="#191970" d="M515.1693,-38.411C539.2159,-33.3061 568.9744,-26.9887 594.3194,-21.6082"/>
<polygon fill="#191970" stroke="#191970" points="595.1004,-25.0205 604.1556,-19.5201 593.6467,-18.1731 595.1004,-25.0205"/>
</g>
</g>
</svg>
