<?xml version="1.0" encoding="UTF-8" standalone="no"?>
<!DOCTYPE svg PUBLIC "-//W3C//DTD SVG 1.1//EN"
 "http://www.w3.org/Graphics/SVG/1.1/DTD/svg11.dtd">
<!-- Generated by graphviz version 2.40.1 (20161225.0304)
 -->
<!-- Title: omc_FNode_isRefClassExtends Pages: 1 -->
<svg width="348pt" height="66pt"
 viewBox="0.00 0.00 348.00 66.00" xmlns="http://www.w3.org/2000/svg" xmlns:xlink="http://www.w3.org/1999/xlink">
<g id="graph0" class="graph" transform="scale(1 1) rotate(0) translate(4 62)">
<title>omc_FNode_isRefClassExtends</title>
<polygon fill="#ffffff" stroke="transparent" points="-4,4 -4,-62 344,-62 344,4 -4,4"/>
<!-- Node6200 -->
<g id="node1" class="node">
<title>Node6200</title>
<polygon fill="#bfbfbf" stroke="#000000" points="0,-19.5 0,-38.5 160,-38.5 160,-19.5 0,-19.5"/>
<text text-anchor="middle" x="80" y="-26.5" font-family="Helvetica,sans-Serif" font-size="10.00" fill="#000000">omc_FNode_isRefClassExtends</text>
</g>
<!-- Node6201 -->
<g id="node2" class="node">
<title>Node6201</title>
<g id="a_node2"><a xlink:href="../../d2/d0f/_f_node_8c.html#accfa776a74cc48d0d22b0ce45c141f7d" target="_top" xlink:title="omc_FNode_isClassExtends">
<polygon fill="#ffffff" stroke="#000000" points="196,-38.5 196,-57.5 340,-57.5 340,-38.5 196,-38.5"/>
<text text-anchor="middle" x="268" y="-45.5" font-family="Helvetica,sans-Serif" font-size="10.00" fill="#000000">omc_FNode_isClassExtends</text>
</a>
</g>
</g>
<!-- Node6200&#45;&gt;Node6201 -->
<g id="edge1" class="edge">
<title>Node6200&#45;&gt;Node6201</title>
<path fill="none" stroke="#191970" d="M160.0015,-37.0853C168.5495,-37.9491 177.2553,-38.829 185.8279,-39.6954"/>
<polygon fill="#191970" stroke="#191970" points="185.5113,-43.1811 195.8126,-40.7045 186.2152,-36.2166 185.5113,-43.1811"/>
</g>
<!-- Node6202 -->
<g id="node3" class="node">
<title>Node6202</title>
<g id="a_node3"><a xlink:href="../../d2/d0f/_f_node_8c.html#ab9dbc34a8a7187057b8c2533b409fae3" target="_top" xlink:title="omc_FNode_fromRef">
<polygon fill="#ffffff" stroke="#000000" points="213,-.5 213,-19.5 323,-19.5 323,-.5 213,-.5"/>
<text text-anchor="middle" x="268" y="-7.5" font-family="Helvetica,sans-Serif" font-size="10.00" fill="#000000">omc_FNode_fromRef</text>
</a>
</g>
</g>
<!-- Node6200&#45;&gt;Node6202 -->
<g id="edge2" class="edge">
<title>Node6200&#45;&gt;Node6202</title>
<path fill="none" stroke="#191970" d="M160.0015,-20.9147C174.1773,-19.4821 188.7875,-18.0055 202.5034,-16.6193"/>
<polygon fill="#191970" stroke="#191970" points="203.1984,-20.067 212.7958,-15.5791 202.4945,-13.1025 203.1984,-20.067"/>
</g>
</g>
</svg>
