<?xml version="1.0" encoding="UTF-8" standalone="no"?>
<!DOCTYPE svg PUBLIC "-//W3C//DTD SVG 1.1//EN"
 "http://www.w3.org/Graphics/SVG/1.1/DTD/svg11.dtd">
<!-- Generated by graphviz version 2.40.1 (20161225.0304)
 -->
<!-- Title: omc_FNode_originalScope__dispatch Pages: 1 -->
<svg width="824pt" height="142pt"
 viewBox="0.00 0.00 824.00 142.00" xmlns="http://www.w3.org/2000/svg" xmlns:xlink="http://www.w3.org/1999/xlink">
<g id="graph0" class="graph" transform="scale(1 1) rotate(0) translate(4 138)">
<title>omc_FNode_originalScope__dispatch</title>
<polygon fill="#ffffff" stroke="transparent" points="-4,4 -4,-138 820,-138 820,4 -4,4"/>
<!-- Node7971 -->
<g id="node1" class="node">
<title>Node7971</title>
<polygon fill="#bfbfbf" stroke="#000000" points="0,-71 0,-101 134,-101 134,-71 0,-71"/>
<text text-anchor="start" x="8" y="-89" font-family="Helvetica,sans-Serif" font-size="10.00" fill="#000000">omc_FNode_originalScope</text>
<text text-anchor="middle" x="67" y="-78" font-family="Helvetica,sans-Serif" font-size="10.00" fill="#000000">__dispatch</text>
</g>
<!-- Node7972 -->
<g id="node2" class="node">
<title>Node7972</title>
<g id="a_node2"><a xlink:href="../../d6/d9d/_f_node_8h.html#a167bbe2a453b322f37c7d25a4d2d6bbf" target="_top" xlink:title="omc_FNode_originalScope">
<polygon fill="#ffffff" stroke="#000000" points="170,-76.5 170,-95.5 304,-95.5 304,-76.5 170,-76.5"/>
<text text-anchor="middle" x="237" y="-83.5" font-family="Helvetica,sans-Serif" font-size="10.00" fill="#000000">omc_FNode_originalScope</text>
</a>
</g>
</g>
<!-- Node7971&#45;&gt;Node7972 -->
<g id="edge1" class="edge">
<title>Node7971&#45;&gt;Node7972</title>
<path fill="none" stroke="#191970" d="M144.4246,-86C152.8759,-86 161.4279,-86 169.7428,-86"/>
<polygon fill="#191970" stroke="#191970" points="144.1885,-82.5001 134.1885,-86 144.1885,-89.5001 144.1885,-82.5001"/>
</g>
<!-- Node7973 -->
<g id="node3" class="node">
<title>Node7973</title>
<g id="a_node3"><a xlink:href="../../d6/d9d/_f_node_8h.html#a5edb5dc8cff3bff737570b49657c93a8" target="_top" xlink:title="omc_FNode_lookupRefFromRef">
<polygon fill="#ffffff" stroke="#000000" points="340,-95.5 340,-114.5 498,-114.5 498,-95.5 340,-95.5"/>
<text text-anchor="middle" x="419" y="-102.5" font-family="Helvetica,sans-Serif" font-size="10.00" fill="#000000">omc_FNode_lookupRefFromRef</text>
</a>
</g>
</g>
<!-- Node7972&#45;&gt;Node7973 -->
<g id="edge2" class="edge">
<title>Node7972&#45;&gt;Node7973</title>
<path fill="none" stroke="#191970" d="M314.3812,-94.0783C322.7648,-94.9535 331.3061,-95.8451 339.7119,-96.7227"/>
<polygon fill="#191970" stroke="#191970" points="314.5624,-90.5782 304.253,-93.0209 313.8355,-97.5404 314.5624,-90.5782"/>
</g>
<!-- Node7974 -->
<g id="node4" class="node">
<title>Node7974</title>
<g id="a_node4"><a xlink:href="../../d6/d9d/_f_node_8h.html#ab960df8930650bf1f043f93a5c67f081" target="_top" xlink:title="omc_FNode_isIn">
<polygon fill="#ffffff" stroke="#000000" points="373.5,-57.5 373.5,-76.5 464.5,-76.5 464.5,-57.5 373.5,-57.5"/>
<text text-anchor="middle" x="419" y="-64.5" font-family="Helvetica,sans-Serif" font-size="10.00" fill="#000000">omc_FNode_isIn</text>
</a>
</g>
</g>
<!-- Node7972&#45;&gt;Node7974 -->
<g id="edge3" class="edge">
<title>Node7972&#45;&gt;Node7974</title>
<path fill="none" stroke="#191970" d="M314.3363,-77.9264C334.4224,-75.8295 355.4173,-73.6378 373.2857,-71.7724"/>
<polygon fill="#191970" stroke="#191970" points="313.8355,-74.4596 304.253,-78.9791 314.5624,-81.4218 313.8355,-74.4596"/>
</g>
<!-- Node7975 -->
<g id="node5" class="node">
<title>Node7975</title>
<g id="a_node5"><a xlink:href="../../db/dd1/_f_graph_stream_8h.html#a9109e5bd42870c773cd991e765cae696" target="_top" xlink:title="omc_FGraphStream_edge">
<polygon fill="#ffffff" stroke="#000000" points="534,-114.5 534,-133.5 665,-133.5 665,-114.5 534,-114.5"/>
<text text-anchor="middle" x="599.5" y="-121.5" font-family="Helvetica,sans-Serif" font-size="10.00" fill="#000000">omc_FGraphStream_edge</text>
</a>
</g>
</g>
<!-- Node7974&#45;&gt;Node7975 -->
<g id="edge4" class="edge">
<title>Node7974&#45;&gt;Node7975</title>
<path fill="none" stroke="#191970" d="M474.4101,-78.4621C482.4233,-80.6558 490.4936,-83.1675 498,-86 514.9267,-92.3872 517.2257,-98.2227 534,-105 542.7825,-108.5484 552.4724,-111.7345 561.6449,-114.4382"/>
<polygon fill="#191970" stroke="#191970" points="475.2643,-75.068 464.7057,-75.9439 473.506,-81.8435 475.2643,-75.068"/>
</g>
<!-- Node7976 -->
<g id="node6" class="node">
<title>Node7976</title>
<g id="a_node6"><a xlink:href="../../db/dd1/_f_graph_stream_8h.html#a48aaa735e8c02fbc244bca5972a51c36" target="_top" xlink:title="omc_FGraphStream_node">
<polygon fill="#ffffff" stroke="#000000" points="534,-76.5 534,-95.5 665,-95.5 665,-76.5 534,-76.5"/>
<text text-anchor="middle" x="599.5" y="-83.5" font-family="Helvetica,sans-Serif" font-size="10.00" fill="#000000">omc_FGraphStream_node</text>
</a>
</g>
</g>
<!-- Node7974&#45;&gt;Node7976 -->
<g id="edge5" class="edge">
<title>Node7974&#45;&gt;Node7976</title>
<path fill="none" stroke="#191970" d="M474.6786,-72.8609C493.3921,-74.8307 514.4419,-77.0465 533.8487,-79.0893"/>
<polygon fill="#191970" stroke="#191970" points="474.8593,-69.3607 464.5478,-71.7945 474.1264,-76.3222 474.8593,-69.3607"/>
</g>
<!-- Node7978 -->
<g id="node8" class="node">
<title>Node7978</title>
<g id="a_node8"><a xlink:href="../../d6/d9d/_f_node_8h.html#ad77ff5c21d636a7c79453136c3499ef9" target="_top" xlink:title="omc_FNode_isRefIn">
<polygon fill="#ffffff" stroke="#000000" points="546,-38.5 546,-57.5 653,-57.5 653,-38.5 546,-38.5"/>
<text text-anchor="middle" x="599.5" y="-45.5" font-family="Helvetica,sans-Serif" font-size="10.00" fill="#000000">omc_FNode_isRefIn</text>
</a>
</g>
</g>
<!-- Node7974&#45;&gt;Node7978 -->
<g id="edge7" class="edge">
<title>Node7974&#45;&gt;Node7978</title>
<path fill="none" stroke="#191970" d="M474.7018,-61.1366C497.3823,-58.7492 523.4914,-56.0009 545.9471,-53.6371"/>
<polygon fill="#191970" stroke="#191970" points="474.1264,-57.6778 464.5478,-62.2055 474.8593,-64.6393 474.1264,-57.6778"/>
</g>
<!-- Node7980 -->
<g id="node10" class="node">
<title>Node7980</title>
<g id="a_node10"><a xlink:href="../../d6/d9d/_f_node_8h.html#a99b0cbde8fe90132a84ef43e393d2c88" target="_top" xlink:title="boxptr_FNode_isIn">
<polygon fill="#ffffff" stroke="#000000" points="550,-.5 550,-19.5 649,-19.5 649,-.5 550,-.5"/>
<text text-anchor="middle" x="599.5" y="-7.5" font-family="Helvetica,sans-Serif" font-size="10.00" fill="#000000">boxptr_FNode_isIn</text>
</a>
</g>
</g>
<!-- Node7974&#45;&gt;Node7980 -->
<g id="edge9" class="edge">
<title>Node7974&#45;&gt;Node7980</title>
<path fill="none" stroke="#191970" d="M456.2857,-54.2938C478.7373,-46.7391 507.9333,-37.0843 534,-29 544.2911,-25.8083 555.5423,-22.4849 565.7707,-19.5267"/>
<polygon fill="#191970" stroke="#191970" points="455.149,-50.9834 446.7935,-57.4978 457.3877,-57.6158 455.149,-50.9834"/>
</g>
<!-- Node7977 -->
<g id="node7" class="node">
<title>Node7977</title>
<g id="a_node7"><a xlink:href="../../d7/dfb/_f_graph_8h.html#aaf19e2de5e36e29eb5b9d44a6fde24b4" target="_top" xlink:title="omc_FGraph_node">
<polygon fill="#ffffff" stroke="#000000" points="709,-76.5 709,-95.5 808,-95.5 808,-76.5 709,-76.5"/>
<text text-anchor="middle" x="758.5" y="-83.5" font-family="Helvetica,sans-Serif" font-size="10.00" fill="#000000">omc_FGraph_node</text>
</a>
</g>
</g>
<!-- Node7976&#45;&gt;Node7977 -->
<g id="edge6" class="edge">
<title>Node7976&#45;&gt;Node7977</title>
<path fill="none" stroke="#191970" d="M675.394,-86C686.6728,-86 698.0485,-86 708.6106,-86"/>
<polygon fill="#191970" stroke="#191970" points="675.0894,-82.5001 665.0894,-86 675.0893,-89.5001 675.0894,-82.5001"/>
</g>
<!-- Node7979 -->
<g id="node9" class="node">
<title>Node7979</title>
<g id="a_node9"><a xlink:href="../../d6/d9d/_f_node_8h.html#a16ead6cc018d0c7c3ae88e0d5ae302f7" target="_top" xlink:title="boxptr_FNode_isRefIn">
<polygon fill="#ffffff" stroke="#000000" points="701,-38.5 701,-57.5 816,-57.5 816,-38.5 701,-38.5"/>
<text text-anchor="middle" x="758.5" y="-45.5" font-family="Helvetica,sans-Serif" font-size="10.00" fill="#000000">boxptr_FNode_isRefIn</text>
</a>
</g>
</g>
<!-- Node7978&#45;&gt;Node7979 -->
<g id="edge8" class="edge">
<title>Node7978&#45;&gt;Node7979</title>
<path fill="none" stroke="#191970" d="M663.5579,-48C675.9114,-48 688.7824,-48 700.9147,-48"/>
<polygon fill="#191970" stroke="#191970" points="663.3302,-44.5001 653.3301,-48 663.3301,-51.5001 663.3302,-44.5001"/>
</g>
</g>
</svg>
