<?xml version="1.0" encoding="UTF-8" standalone="no"?>
<!DOCTYPE svg PUBLIC "-//W3C//DTD SVG 1.1//EN"
 "http://www.w3.org/Graphics/SVG/1.1/DTD/svg11.dtd">
<!-- Generated by graphviz version 2.40.1 (20161225.0304)
 -->
<!-- Title: omc_FNode_scopeHashWork Pages: 1 -->
<svg width="451pt" height="85pt"
 viewBox="0.00 0.00 451.00 85.00" xmlns="http://www.w3.org/2000/svg" xmlns:xlink="http://www.w3.org/1999/xlink">
<g id="graph0" class="graph" transform="scale(1 1) rotate(0) translate(4 81)">
<title>omc_FNode_scopeHashWork</title>
<polygon fill="#ffffff" stroke="transparent" points="-4,4 -4,-81 447,-81 447,4 -4,4"/>
<!-- Node10413 -->
<g id="node1" class="node">
<title>Node10413</title>
<polygon fill="#bfbfbf" stroke="#000000" points="0,-38.5 0,-57.5 148,-57.5 148,-38.5 0,-38.5"/>
<text text-anchor="middle" x="74" y="-45.5" font-family="Helvetica,sans-Serif" font-size="10.00" fill="#000000">omc_FNode_scopeHashWork</text>
</g>
<!-- Node10414 -->
<g id="node2" class="node">
<title>Node10414</title>
<g id="a_node2"><a xlink:href="../../d2/d57/build_2include_2omc_2c_2meta_2meta__modelica__builtin_8h.html#aad622f4e050ebd3c1418cfa5b73b9176" target="_top" xlink:title="stringHashDjb2">
<polygon fill="#ffffff" stroke="#000000" points="198.5,-57.5 198.5,-76.5 282.5,-76.5 282.5,-57.5 198.5,-57.5"/>
<text text-anchor="middle" x="240.5" y="-64.5" font-family="Helvetica,sans-Serif" font-size="10.00" fill="#000000">stringHashDjb2</text>
</a>
</g>
</g>
<!-- Node10413&#45;&gt;Node10414 -->
<g id="edge1" class="edge">
<title>Node10413&#45;&gt;Node10414</title>
<path fill="none" stroke="#191970" d="M148.4842,-56.4997C161.8778,-58.0281 175.5775,-59.5914 188.1757,-61.0291"/>
<polygon fill="#191970" stroke="#191970" points="188.1358,-64.5471 198.4682,-62.2036 188.9296,-57.5923 188.1358,-64.5471"/>
</g>
<!-- Node10415 -->
<g id="node3" class="node">
<title>Node10415</title>
<g id="a_node3"><a xlink:href="../../d2/d0f/_f_node_8c.html#ac4be285f5930ece6b4a48363c7e194ed" target="_top" xlink:title="omc_FNode_refName">
<polygon fill="#ffffff" stroke="#000000" points="184,-19.5 184,-38.5 297,-38.5 297,-19.5 184,-19.5"/>
<text text-anchor="middle" x="240.5" y="-26.5" font-family="Helvetica,sans-Serif" font-size="10.00" fill="#000000">omc_FNode_refName</text>
</a>
</g>
</g>
<!-- Node10413&#45;&gt;Node10415 -->
<g id="edge2" class="edge">
<title>Node10413&#45;&gt;Node10415</title>
<path fill="none" stroke="#191970" d="M148.4842,-39.5003C156.8559,-38.545 165.3471,-37.576 173.6142,-36.6326"/>
<polygon fill="#191970" stroke="#191970" points="174.0254,-40.1085 183.564,-35.4972 173.2317,-33.1536 174.0254,-40.1085"/>
</g>
<!-- Node10416 -->
<g id="node4" class="node">
<title>Node10416</title>
<g id="a_node4"><a xlink:href="../../d2/d0f/_f_node_8c.html#ad0051d6dec4182a2aeb8d78b27565627" target="_top" xlink:title="omc_FNode_name">
<polygon fill="#ffffff" stroke="#000000" points="338.5,-38.5 338.5,-57.5 437.5,-57.5 437.5,-38.5 338.5,-38.5"/>
<text text-anchor="middle" x="388" y="-45.5" font-family="Helvetica,sans-Serif" font-size="10.00" fill="#000000">omc_FNode_name</text>
</a>
</g>
</g>
<!-- Node10415&#45;&gt;Node10416 -->
<g id="edge3" class="edge">
<title>Node10415&#45;&gt;Node10416</title>
<path fill="none" stroke="#191970" d="M297.1055,-36.2916C307.2201,-37.5945 317.7902,-38.956 327.9961,-40.2707"/>
<polygon fill="#191970" stroke="#191970" points="327.6851,-43.7595 338.0504,-41.5658 328.5795,-36.8168 327.6851,-43.7595"/>
</g>
<!-- Node10417 -->
<g id="node5" class="node">
<title>Node10417</title>
<g id="a_node5"><a xlink:href="../../d2/d0f/_f_node_8c.html#ab9dbc34a8a7187057b8c2533b409fae3" target="_top" xlink:title="omc_FNode_fromRef">
<polygon fill="#ffffff" stroke="#000000" points="333,-.5 333,-19.5 443,-19.5 443,-.5 333,-.5"/>
<text text-anchor="middle" x="388" y="-7.5" font-family="Helvetica,sans-Serif" font-size="10.00" fill="#000000">omc_FNode_fromRef</text>
</a>
</g>
</g>
<!-- Node10415&#45;&gt;Node10417 -->
<g id="edge4" class="edge">
<title>Node10415&#45;&gt;Node10417</title>
<path fill="none" stroke="#191970" d="M297.1055,-21.7084C305.514,-20.6253 314.2373,-19.5016 322.8045,-18.3981"/>
<polygon fill="#191970" stroke="#191970" points="323.2909,-21.8644 332.7618,-17.1154 322.3965,-14.9218 323.2909,-21.8644"/>
</g>
</g>
</svg>
