<?xml version="1.0" encoding="UTF-8" standalone="no"?>
<!DOCTYPE svg PUBLIC "-//W3C//DTD SVG 1.1//EN"
 "http://www.w3.org/Graphics/SVG/1.1/DTD/svg11.dtd">
<!-- Generated by graphviz version 2.40.1 (20161225.0304)
 -->
<!-- Title: boxptr_FNode_isFunction Pages: 1 -->
<svg width="449pt" height="66pt"
 viewBox="0.00 0.00 449.00 66.00" xmlns="http://www.w3.org/2000/svg" xmlns:xlink="http://www.w3.org/1999/xlink">
<g id="graph0" class="graph" transform="scale(1 1) rotate(0) translate(4 62)">
<title>boxptr_FNode_isFunction</title>
<polygon fill="#ffffff" stroke="transparent" points="-4,4 -4,-62 445,-62 445,4 -4,4"/>
<!-- Node81 -->
<g id="node1" class="node">
<title>Node81</title>
<polygon fill="#bfbfbf" stroke="#000000" points="0,-19.5 0,-38.5 128,-38.5 128,-19.5 0,-19.5"/>
<text text-anchor="middle" x="64" y="-26.5" font-family="Helvetica,sans-Serif" font-size="10.00" fill="#000000">boxptr_FNode_isFunction</text>
</g>
<!-- Node82 -->
<g id="node2" class="node">
<title>Node82</title>
<g id="a_node2"><a xlink:href="../../d2/d0f/_f_node_8c.html#a4695bd39bfd6d30affb3673b64395d0d" target="_top" xlink:title="omc_FNode_isFunction">
<polygon fill="#ffffff" stroke="#000000" points="164,-19.5 164,-38.5 284,-38.5 284,-19.5 164,-19.5"/>
<text text-anchor="middle" x="224" y="-26.5" font-family="Helvetica,sans-Serif" font-size="10.00" fill="#000000">omc_FNode_isFunction</text>
</a>
</g>
</g>
<!-- Node81&#45;&gt;Node82 -->
<g id="edge1" class="edge">
<title>Node81&#45;&gt;Node82</title>
<path fill="none" stroke="#191970" d="M128.1562,-29C136.5622,-29 145.2113,-29 153.712,-29"/>
<polygon fill="#191970" stroke="#191970" points="153.981,-32.5001 163.9809,-29 153.9809,-25.5001 153.981,-32.5001"/>
</g>
<!-- Node83 -->
<g id="node3" class="node">
<title>Node83</title>
<g id="a_node3"><a xlink:href="../../d9/d9e/_s_code_8c.html#a6bc5c91e87ce87ebf703ee0435c82571" target="_top" xlink:title="omc_SCode_isFunction">
<polygon fill="#ffffff" stroke="#000000" points="320,-38.5 320,-57.5 441,-57.5 441,-38.5 320,-38.5"/>
<text text-anchor="middle" x="380.5" y="-45.5" font-family="Helvetica,sans-Serif" font-size="10.00" fill="#000000">omc_SCode_isFunction</text>
</a>
</g>
</g>
<!-- Node82&#45;&gt;Node83 -->
<g id="edge2" class="edge">
<title>Node82&#45;&gt;Node83</title>
<path fill="none" stroke="#191970" d="M284.0594,-36.2916C292.4853,-37.3145 301.2092,-38.3736 309.8101,-39.4178"/>
<polygon fill="#191970" stroke="#191970" points="309.4761,-42.9029 319.825,-40.6337 310.3198,-35.9539 309.4761,-42.9029"/>
</g>
<!-- Node84 -->
<g id="node4" class="node">
<title>Node84</title>
<g id="a_node4"><a xlink:href="../../d9/d9e/_s_code_8c.html#af9b8e5dbc79b05860efbbddc573279dc" target="_top" xlink:title="omc_SCode_isOperator">
<polygon fill="#ffffff" stroke="#000000" points="320,-.5 320,-19.5 441,-19.5 441,-.5 320,-.5"/>
<text text-anchor="middle" x="380.5" y="-7.5" font-family="Helvetica,sans-Serif" font-size="10.00" fill="#000000">omc_SCode_isOperator</text>
</a>
</g>
</g>
<!-- Node82&#45;&gt;Node84 -->
<g id="edge3" class="edge">
<title>Node82&#45;&gt;Node84</title>
<path fill="none" stroke="#191970" d="M284.0594,-21.7084C292.4853,-20.6855 301.2092,-19.6264 309.8101,-18.5822"/>
<polygon fill="#191970" stroke="#191970" points="310.3198,-22.0461 319.825,-17.3663 309.4761,-15.0971 310.3198,-22.0461"/>
</g>
</g>
</svg>
