<?xml version="1.0" encoding="UTF-8" standalone="no"?>
<!DOCTYPE svg PUBLIC "-//W3C//DTD SVG 1.1//EN"
 "http://www.w3.org/Graphics/SVG/1.1/DTD/svg11.dtd">
<!-- Generated by graphviz version 2.40.1 (20161225.0304)
 -->
<!-- Title: omc_StaticScript_getSimulationArguments Pages: 1 -->
<svg width="328pt" height="39pt"
 viewBox="0.00 0.00 328.00 39.00" xmlns="http://www.w3.org/2000/svg" xmlns:xlink="http://www.w3.org/1999/xlink">
<g id="graph0" class="graph" transform="scale(1 1) rotate(0) translate(4 35)">
<title>omc_StaticScript_getSimulationArguments</title>
<polygon fill="#ffffff" stroke="transparent" points="-4,4 -4,-35 324,-35 324,4 -4,4"/>
<!-- Node914 -->
<g id="node1" class="node">
<title>Node914</title>
<polygon fill="#bfbfbf" stroke="#000000" points="0,-.5 0,-30.5 156,-30.5 156,-.5 0,-.5"/>
<text text-anchor="start" x="8" y="-18.5" font-family="Helvetica,sans-Serif" font-size="10.00" fill="#000000">omc_StaticScript_getSimulation</text>
<text text-anchor="middle" x="78" y="-7.5" font-family="Helvetica,sans-Serif" font-size="10.00" fill="#000000">Arguments</text>
</g>
<!-- Node915 -->
<g id="node2" class="node">
<title>Node915</title>
<g id="a_node2"><a xlink:href="../../d5/d38/_static_script_8h.html#a61d026e0a16c6dd44df49a75c90afb30" target="_top" xlink:title="boxptr_StaticScript\l_getSimulationArguments">
<polygon fill="#ffffff" stroke="#000000" points="192,-.5 192,-30.5 320,-30.5 320,-.5 192,-.5"/>
<text text-anchor="start" x="200" y="-18.5" font-family="Helvetica,sans-Serif" font-size="10.00" fill="#000000">boxptr_StaticScript</text>
<text text-anchor="middle" x="256" y="-7.5" font-family="Helvetica,sans-Serif" font-size="10.00" fill="#000000">_getSimulationArguments</text>
</a>
</g>
</g>
<!-- Node914&#45;&gt;Node915 -->
<g id="edge1" class="edge">
<title>Node914&#45;&gt;Node915</title>
<path fill="none" stroke="#191970" d="M166.2056,-15.5C174.8573,-15.5 183.519,-15.5 191.8637,-15.5"/>
<polygon fill="#191970" stroke="#191970" points="166.0734,-12.0001 156.0734,-15.5 166.0734,-19.0001 166.0734,-12.0001"/>
</g>
</g>
</svg>
