<?xml version="1.0" encoding="UTF-8" standalone="no"?>
<!DOCTYPE svg PUBLIC "-//W3C//DTD SVG 1.1//EN"
 "http://www.w3.org/Graphics/SVG/1.1/DTD/svg11.dtd">
<!-- Generated by graphviz version 2.40.1 (20161225.0304)
 -->
<!-- Title: omc_NFSubscript_isIndex Pages: 1 -->
<svg width="1185pt" height="200pt"
 viewBox="0.00 0.00 1185.00 199.88" xmlns="http://www.w3.org/2000/svg" xmlns:xlink="http://www.w3.org/1999/xlink">
<g id="graph0" class="graph" transform="scale(1 1) rotate(0) translate(4 195.8796)">
<title>omc_NFSubscript_isIndex</title>
<polygon fill="#ffffff" stroke="transparent" points="-4,4 -4,-195.8796 1181,-195.8796 1181,4 -4,4"/>
<!-- Node938 -->
<g id="node1" class="node">
<title>Node938</title>
<polygon fill="#bfbfbf" stroke="#000000" points="0,-103.8796 0,-122.8796 132,-122.8796 132,-103.8796 0,-103.8796"/>
<text text-anchor="middle" x="66" y="-110.8796" font-family="Helvetica,sans-Serif" font-size="10.00" fill="#000000">omc_NFSubscript_isIndex</text>
</g>
<!-- Node939 -->
<g id="node2" class="node">
<title>Node939</title>
<g id="a_node2"><a xlink:href="../../d2/dfa/_n_f_expression_8h.html#a033464c2714ff9cd8b8c97642a5499f7" target="_top" xlink:title="omc_NFExpression_applySubscript\lArrayConstructor">
<polygon fill="#ffffff" stroke="#000000" points="168,-123.3796 168,-153.3796 341,-153.3796 341,-123.3796 168,-123.3796"/>
<text text-anchor="start" x="176" y="-141.3796" font-family="Helvetica,sans-Serif" font-size="10.00" fill="#000000">omc_NFExpression_applySubscript</text>
<text text-anchor="middle" x="254.5" y="-130.3796" font-family="Helvetica,sans-Serif" font-size="10.00" fill="#000000">ArrayConstructor</text>
</a>
</g>
</g>
<!-- Node938&#45;&gt;Node939 -->
<g id="edge1" class="edge">
<title>Node938&#45;&gt;Node939</title>
<path fill="none" stroke="#191970" d="M142.3567,-123.5064C150.7852,-124.6243 159.412,-125.7684 167.9538,-126.9013"/>
<polygon fill="#191970" stroke="#191970" points="142.5664,-120.0037 132.193,-122.1585 141.646,-126.9429 142.5664,-120.0037"/>
</g>
<!-- Node950 -->
<g id="node13" class="node">
<title>Node950</title>
<g id="a_node13"><a xlink:href="../../d2/d11/_n_f_subscript_8h.html#af925418d62902b0ffd144039bd748e44" target="_top" xlink:title="boxptr_NFSubscript\l_isIndex">
<polygon fill="#ffffff" stroke="#000000" points="202.5,-74.3796 202.5,-104.3796 306.5,-104.3796 306.5,-74.3796 202.5,-74.3796"/>
<text text-anchor="start" x="210.5" y="-92.3796" font-family="Helvetica,sans-Serif" font-size="10.00" fill="#000000">boxptr_NFSubscript</text>
<text text-anchor="middle" x="254.5" y="-81.3796" font-family="Helvetica,sans-Serif" font-size="10.00" fill="#000000">_isIndex</text>
</a>
</g>
</g>
<!-- Node938&#45;&gt;Node950 -->
<g id="edge16" class="edge">
<title>Node938&#45;&gt;Node950</title>
<path fill="none" stroke="#191970" d="M142.3095,-103.6638C162.4988,-101.0932 183.8286,-98.3775 202.4062,-96.0122"/>
<polygon fill="#191970" stroke="#191970" points="141.6708,-100.2167 132.193,-104.9518 142.555,-107.1607 141.6708,-100.2167"/>
</g>
<!-- Node940 -->
<g id="node3" class="node">
<title>Node940</title>
<g id="a_node3"><a xlink:href="../../d2/dfa/_n_f_expression_8h.html#a42f737d3d937f57e51c520756f6c41b9" target="_top" xlink:title="omc_NFExpression_applySubscript">
<polygon fill="#ffffff" stroke="#000000" points="377,-103.8796 377,-122.8796 550,-122.8796 550,-103.8796 377,-103.8796"/>
<text text-anchor="middle" x="463.5" y="-110.8796" font-family="Helvetica,sans-Serif" font-size="10.00" fill="#000000">omc_NFExpression_applySubscript</text>
</a>
</g>
</g>
<!-- Node939&#45;&gt;Node940 -->
<g id="edge2" class="edge">
<title>Node939&#45;&gt;Node940</title>
<path fill="none" stroke="#191970" d="M351.1066,-126.8237C362.1448,-125.5034 373.3011,-124.1689 384.0792,-122.8797"/>
<polygon fill="#191970" stroke="#191970" points="350.5305,-123.3676 341.017,-128.0306 351.3619,-130.3181 350.5305,-123.3676"/>
</g>
<!-- Node941 -->
<g id="node4" class="node">
<title>Node941</title>
<g id="a_node4"><a xlink:href="../../d2/dfa/_n_f_expression_8h.html#ab82aaf4b11fb0045bcb018c515d05042" target="_top" xlink:title="omc_NFExpression_applySubscriptIf">
<polygon fill="#ffffff" stroke="#000000" points="591.5,-122.8796 591.5,-141.8796 770.5,-141.8796 770.5,-122.8796 591.5,-122.8796"/>
<text text-anchor="middle" x="681" y="-129.8796" font-family="Helvetica,sans-Serif" font-size="10.00" fill="#000000">omc_NFExpression_applySubscriptIf</text>
</a>
</g>
</g>
<!-- Node940&#45;&gt;Node941 -->
<g id="edge3" class="edge">
<title>Node940&#45;&gt;Node941</title>
<path fill="none" stroke="#191970" d="M560.1446,-115.1094C586.5451,-117.2523 613.9093,-120.0157 635.9091,-122.8468"/>
<polygon fill="#191970" stroke="#191970" points="560.33,-111.6133 550.0867,-114.3196 559.782,-118.5918 560.33,-111.6133"/>
</g>
<!-- Node942 -->
<g id="node5" class="node">
<title>Node942</title>
<g id="a_node5"><a xlink:href="../../d2/dfa/_n_f_expression_8h.html#aed4280bfed6483b023bef2dc307b66da" target="_top" xlink:title="omc_NFExpression_applyIndex\lSubscriptArrayConstructor">
<polygon fill="#ffffff" stroke="#000000" points="603.5,-161.3796 603.5,-191.3796 758.5,-191.3796 758.5,-161.3796 603.5,-161.3796"/>
<text text-anchor="start" x="611.5" y="-179.3796" font-family="Helvetica,sans-Serif" font-size="10.00" fill="#000000">omc_NFExpression_applyIndex</text>
<text text-anchor="middle" x="681" y="-168.3796" font-family="Helvetica,sans-Serif" font-size="10.00" fill="#000000">SubscriptArrayConstructor</text>
</a>
</g>
</g>
<!-- Node940&#45;&gt;Node942 -->
<g id="edge5" class="edge">
<title>Node940&#45;&gt;Node942</title>
<path fill="none" stroke="#191970" d="M502.8842,-126.0739C526.8381,-133.6756 558.0923,-143.383 586,-151.3796 597.7223,-154.7384 610.3072,-158.1712 622.3585,-161.3746"/>
<polygon fill="#191970" stroke="#191970" points="503.6869,-122.6564 493.0963,-122.9561 501.5623,-129.3262 503.6869,-122.6564"/>
</g>
<!-- Node943 -->
<g id="node6" class="node">
<title>Node943</title>
<g id="a_node6"><a xlink:href="../../d2/dfa/_n_f_expression_8h.html#adc8f18bc043b92bc40291fdd5a0ad47f" target="_top" xlink:title="omc_NFExpression_applySubscriptCall">
<polygon fill="#ffffff" stroke="#000000" points="586,-84.8796 586,-103.8796 776,-103.8796 776,-84.8796 586,-84.8796"/>
<text text-anchor="middle" x="681" y="-91.8796" font-family="Helvetica,sans-Serif" font-size="10.00" fill="#000000">omc_NFExpression_applySubscriptCall</text>
</a>
</g>
</g>
<!-- Node940&#45;&gt;Node943 -->
<g id="edge7" class="edge">
<title>Node940&#45;&gt;Node943</title>
<path fill="none" stroke="#191970" d="M518.6059,-102.6062C539.0224,-100.1678 562.8044,-97.8423 585.7694,-95.9951"/>
<polygon fill="#191970" stroke="#191970" points="518.0599,-99.147 508.5661,-103.85 518.9206,-106.0939 518.0599,-99.147"/>
</g>
<!-- Node944 -->
<g id="node7" class="node">
<title>Node944</title>
<g id="a_node7"><a xlink:href="../../d2/dfa/_n_f_expression_8h.html#a7667ea68914bbe768f0af5cd2dcd163f" target="_top" xlink:title="omc_NFExpression_applySubscripts">
<polygon fill="#ffffff" stroke="#000000" points="592,-46.8796 592,-65.8796 770,-65.8796 770,-46.8796 592,-46.8796"/>
<text text-anchor="middle" x="681" y="-53.8796" font-family="Helvetica,sans-Serif" font-size="10.00" fill="#000000">omc_NFExpression_applySubscripts</text>
</a>
</g>
</g>
<!-- Node940&#45;&gt;Node944 -->
<g id="edge9" class="edge">
<title>Node940&#45;&gt;Node944</title>
<path fill="none" stroke="#191970" d="M501.2859,-100.5485C525.3556,-92.652 557.2988,-82.6805 586,-75.3796 599.5295,-71.938 614.2721,-68.7308 628.0191,-65.9678"/>
<polygon fill="#191970" stroke="#191970" points="499.8789,-97.3274 491.4848,-103.7919 502.0781,-103.973 499.8789,-97.3274"/>
</g>
<!-- Node941&#45;&gt;Node940 -->
<g id="edge4" class="edge">
<title>Node941&#45;&gt;Node940</title>
<path fill="none" stroke="#191970" d="M581.0615,-130.3796C555.6812,-128.2763 529.6567,-125.6238 508.5661,-122.9091"/>
<polygon fill="#191970" stroke="#191970" points="580.8736,-133.8757 591.1216,-131.187 581.4337,-126.8981 580.8736,-133.8757"/>
</g>
<!-- Node942&#45;&gt;Node939 -->
<g id="edge6" class="edge">
<title>Node942&#45;&gt;Node939</title>
<path fill="none" stroke="#191970" d="M592.9679,-168.5361C519.1854,-161.9623 414.4338,-152.6292 341.0655,-146.0923"/>
<polygon fill="#191970" stroke="#191970" points="592.8957,-172.0435 603.1669,-169.4448 593.517,-165.0711 592.8957,-172.0435"/>
</g>
<!-- Node943&#45;&gt;Node940 -->
<g id="edge8" class="edge">
<title>Node943&#45;&gt;Node940</title>
<path fill="none" stroke="#191970" d="M625.684,-105.178C602.736,-107.9148 575.564,-110.5077 550.0867,-112.4395"/>
<polygon fill="#191970" stroke="#191970" points="626.4148,-108.6143 635.9091,-103.9123 625.5549,-101.6674 626.4148,-108.6143"/>
</g>
<!-- Node945 -->
<g id="node8" class="node">
<title>Node945</title>
<g id="a_node8"><a xlink:href="../../da/d0e/_n_f_eval_function_8c.html#afe0eead29e3f6b55342c23c7990b9d88" target="_top" xlink:title="omc_NFEvalFunction\l_applyReplacementCref">
<polygon fill="#ffffff" stroke="#000000" points="829,-112.3796 829,-142.3796 951,-142.3796 951,-112.3796 829,-112.3796"/>
<text text-anchor="start" x="837" y="-130.3796" font-family="Helvetica,sans-Serif" font-size="10.00" fill="#000000">omc_NFEvalFunction</text>
<text text-anchor="middle" x="890" y="-119.3796" font-family="Helvetica,sans-Serif" font-size="10.00" fill="#000000">_applyReplacementCref</text>
</a>
</g>
</g>
<!-- Node944&#45;&gt;Node945 -->
<g id="edge10" class="edge">
<title>Node944&#45;&gt;Node945</title>
<path fill="none" stroke="#191970" d="M758.9151,-68.8456C764.8025,-70.7269 770.5623,-72.8908 776,-75.3796 794.4311,-83.8151 794.0187,-94.0235 812,-103.3796 818.41,-106.7148 825.3617,-109.6737 832.3848,-112.2738"/>
<polygon fill="#191970" stroke="#191970" points="759.5003,-65.3708 748.9207,-65.9388 757.5453,-72.0923 759.5003,-65.3708"/>
</g>
<!-- Node947 -->
<g id="node10" class="node">
<title>Node947</title>
<g id="a_node10"><a xlink:href="../../d2/dfa/_n_f_expression_8h.html#ad7a4636046590916a1e157d4d04e08a0" target="_top" xlink:title="omc_NFExpression_applyIndex\lSubscriptArray">
<polygon fill="#ffffff" stroke="#000000" points="812.5,-63.3796 812.5,-93.3796 967.5,-93.3796 967.5,-63.3796 812.5,-63.3796"/>
<text text-anchor="start" x="820.5" y="-81.3796" font-family="Helvetica,sans-Serif" font-size="10.00" fill="#000000">omc_NFExpression_applyIndex</text>
<text text-anchor="middle" x="890" y="-70.3796" font-family="Helvetica,sans-Serif" font-size="10.00" fill="#000000">SubscriptArray</text>
</a>
</g>
</g>
<!-- Node944&#45;&gt;Node947 -->
<g id="edge12" class="edge">
<title>Node944&#45;&gt;Node947</title>
<path fill="none" stroke="#191970" d="M780.4489,-66.8479C791.1336,-67.9726 801.8889,-69.1047 812.2666,-70.1971"/>
<polygon fill="#191970" stroke="#191970" points="780.5525,-63.3395 770.241,-65.7734 779.8197,-70.3011 780.5525,-63.3395"/>
</g>
<!-- Node949 -->
<g id="node12" class="node">
<title>Node949</title>
<g id="a_node12"><a xlink:href="../../de/d12/_n_f_inline_8c.html#aa85c612581195f94d7e9e362b0d4a155" target="_top" xlink:title="omc_NFInline_replaceCrefNode">
<polygon fill="#ffffff" stroke="#000000" points="812,-24.8796 812,-43.8796 968,-43.8796 968,-24.8796 812,-24.8796"/>
<text text-anchor="middle" x="890" y="-31.8796" font-family="Helvetica,sans-Serif" font-size="10.00" fill="#000000">omc_NFInline_replaceCrefNode</text>
</a>
</g>
</g>
<!-- Node944&#45;&gt;Node949 -->
<g id="edge15" class="edge">
<title>Node944&#45;&gt;Node949</title>
<path fill="none" stroke="#191970" d="M780.3676,-45.9198C790.9672,-44.8041 801.6373,-43.6809 811.9405,-42.5964"/>
<polygon fill="#191970" stroke="#191970" points="779.8197,-42.4581 770.241,-46.9858 780.5525,-49.4196 779.8197,-42.4581"/>
</g>
<!-- Node946 -->
<g id="node9" class="node">
<title>Node946</title>
<g id="a_node9"><a xlink:href="../../da/d0e/_n_f_eval_function_8c.html#a0b3f982d2991d496ff025665151b72a0" target="_top" xlink:title="omc_NFEvalFunction\l_applyReplacements2">
<polygon fill="#ffffff" stroke="#000000" points="1034,-112.3796 1034,-142.3796 1147,-142.3796 1147,-112.3796 1034,-112.3796"/>
<text text-anchor="start" x="1042" y="-130.3796" font-family="Helvetica,sans-Serif" font-size="10.00" fill="#000000">omc_NFEvalFunction</text>
<text text-anchor="middle" x="1090.5" y="-119.3796" font-family="Helvetica,sans-Serif" font-size="10.00" fill="#000000">_applyReplacements2</text>
</a>
</g>
</g>
<!-- Node945&#45;&gt;Node946 -->
<g id="edge11" class="edge">
<title>Node945&#45;&gt;Node946</title>
<path fill="none" stroke="#191970" d="M961.2732,-127.3796C985.0507,-127.3796 1011.2073,-127.3796 1033.7316,-127.3796"/>
<polygon fill="#191970" stroke="#191970" points="961.2461,-123.8797 951.2461,-127.3796 961.246,-130.8797 961.2461,-123.8797"/>
</g>
<!-- Node948 -->
<g id="node11" class="node">
<title>Node948</title>
<g id="a_node11"><a xlink:href="../../d2/dfa/_n_f_expression_8h.html#a38174046b4c8d57266209c1241a4ff48" target="_top" xlink:title="omc_NFExpression_applySubscript\lArray">
<polygon fill="#ffffff" stroke="#000000" points="1004,-22.3796 1004,-52.3796 1177,-52.3796 1177,-22.3796 1004,-22.3796"/>
<text text-anchor="start" x="1012" y="-40.3796" font-family="Helvetica,sans-Serif" font-size="10.00" fill="#000000">omc_NFExpression_applySubscript</text>
<text text-anchor="middle" x="1090.5" y="-29.3796" font-family="Helvetica,sans-Serif" font-size="10.00" fill="#000000">Array</text>
</a>
</g>
</g>
<!-- Node947&#45;&gt;Node948 -->
<g id="edge13" class="edge">
<title>Node947&#45;&gt;Node948</title>
<path fill="none" stroke="#191970" d="M973.4349,-61.3181C987.8889,-58.3624 1002.823,-55.3085 1016.9886,-52.4118"/>
<polygon fill="#191970" stroke="#191970" points="972.6163,-57.9129 963.5203,-63.3455 974.0188,-64.771 972.6163,-57.9129"/>
</g>
<!-- Node948&#45;&gt;Node940 -->
<g id="edge14" class="edge">
<title>Node948&#45;&gt;Node940</title>
<path fill="none" stroke="#191970" d="M1009.3046,-20.7124C995.5744,-18.4939 981.4221,-16.5752 968,-15.3796 798.6117,-.2899 747.0933,17.1095 586,-37.3796 540.9541,-52.6161 495.295,-87.0999 474.7462,-103.8679"/>
<polygon fill="#191970" stroke="#191970" points="1008.77,-24.1716 1019.2113,-22.3748 1009.9284,-17.2681 1008.77,-24.1716"/>
</g>
</g>
</svg>
