<?xml version="1.0" encoding="UTF-8" standalone="no"?>
<!DOCTYPE svg PUBLIC "-//W3C//DTD SVG 1.1//EN"
 "http://www.w3.org/Graphics/SVG/1.1/DTD/svg11.dtd">
<!-- Generated by graphviz version 2.40.1 (20161225.0304)
 -->
<!-- Title: omc_Lookup_lookupMetarecordsRecursive Pages: 1 -->
<svg width="1128pt" height="113pt"
 viewBox="0.00 0.00 1128.00 113.00" xmlns="http://www.w3.org/2000/svg" xmlns:xlink="http://www.w3.org/1999/xlink">
<g id="graph0" class="graph" transform="scale(1 1) rotate(0) translate(4 109)">
<title>omc_Lookup_lookupMetarecordsRecursive</title>
<polygon fill="#ffffff" stroke="transparent" points="-4,4 -4,-109 1124,-109 1124,4 -4,4"/>
<!-- Node5324 -->
<g id="node1" class="node">
<title>Node5324</title>
<polygon fill="#bfbfbf" stroke="#000000" points="0,-24.5 0,-54.5 160,-54.5 160,-24.5 0,-24.5"/>
<text text-anchor="start" x="8" y="-42.5" font-family="Helvetica,sans-Serif" font-size="10.00" fill="#000000">omc_Lookup_lookupMetarecords</text>
<text text-anchor="middle" x="80" y="-31.5" font-family="Helvetica,sans-Serif" font-size="10.00" fill="#000000">Recursive</text>
</g>
<!-- Node5325 -->
<g id="node2" class="node">
<title>Node5325</title>
<g id="a_node2"><a xlink:href="../../d0/d1b/_lookup_8c.html#a44282bfa4fa79f870153d41bfef3f9d1" target="_top" xlink:title="omc_Lookup_lookupMetarecords\lRecursive2">
<polygon fill="#ffffff" stroke="#000000" points="196,-49.5 196,-79.5 356,-79.5 356,-49.5 196,-49.5"/>
<text text-anchor="start" x="204" y="-67.5" font-family="Helvetica,sans-Serif" font-size="10.00" fill="#000000">omc_Lookup_lookupMetarecords</text>
<text text-anchor="middle" x="276" y="-56.5" font-family="Helvetica,sans-Serif" font-size="10.00" fill="#000000">Recursive2</text>
</a>
</g>
</g>
<!-- Node5324&#45;&gt;Node5325 -->
<g id="edge1" class="edge">
<title>Node5324&#45;&gt;Node5325</title>
<path fill="none" stroke="#191970" d="M160.0034,-49.7045C168.5245,-50.7914 177.2335,-51.9022 185.8608,-53.0027"/>
<polygon fill="#191970" stroke="#191970" points="185.5722,-56.4941 195.9347,-54.2876 186.458,-49.5504 185.5722,-56.4941"/>
</g>
<!-- Node5331 -->
<g id="node8" class="node">
<title>Node5331</title>
<g id="a_node8"><a xlink:href="../../d2/dcb/_hash_table_string_to_path_8c.html#a682cb4ab2bb1f608adfdb370038daedc" target="_top" xlink:title="omc_HashTableStringToPath\l_emptyHashTable">
<polygon fill="#ffffff" stroke="#000000" points="203.5,-.5 203.5,-30.5 348.5,-30.5 348.5,-.5 203.5,-.5"/>
<text text-anchor="start" x="211.5" y="-18.5" font-family="Helvetica,sans-Serif" font-size="10.00" fill="#000000">omc_HashTableStringToPath</text>
<text text-anchor="middle" x="276" y="-7.5" font-family="Helvetica,sans-Serif" font-size="10.00" fill="#000000">_emptyHashTable</text>
</a>
</g>
</g>
<!-- Node5324&#45;&gt;Node5331 -->
<g id="edge7" class="edge">
<title>Node5324&#45;&gt;Node5331</title>
<path fill="none" stroke="#191970" d="M160.0034,-29.7037C171.0252,-28.3541 182.3615,-26.9659 193.4286,-25.6108"/>
<polygon fill="#191970" stroke="#191970" points="193.9993,-29.0671 203.4998,-24.3776 193.1485,-22.119 193.9993,-29.0671"/>
</g>
<!-- Node5326 -->
<g id="node3" class="node">
<title>Node5326</title>
<g id="a_node3"><a xlink:href="../../d0/d1b/_lookup_8c.html#a9e8075fc5b7ef7401184de76ab89558a" target="_top" xlink:title="omc_Lookup_lookupMetarecords\lRecursive3">
<polygon fill="#ffffff" stroke="#000000" points="392,-49.5 392,-79.5 552,-79.5 552,-49.5 392,-49.5"/>
<text text-anchor="start" x="400" y="-67.5" font-family="Helvetica,sans-Serif" font-size="10.00" fill="#000000">omc_Lookup_lookupMetarecords</text>
<text text-anchor="middle" x="472" y="-56.5" font-family="Helvetica,sans-Serif" font-size="10.00" fill="#000000">Recursive3</text>
</a>
</g>
</g>
<!-- Node5325&#45;&gt;Node5326 -->
<g id="edge2" class="edge">
<title>Node5325&#45;&gt;Node5326</title>
<path fill="none" stroke="#191970" d="M356.0034,-64.5C364.5245,-64.5 373.2335,-64.5 381.8608,-64.5"/>
<polygon fill="#191970" stroke="#191970" points="381.9348,-68.0001 391.9347,-64.5 381.9347,-61.0001 381.9348,-68.0001"/>
</g>
<!-- Node5327 -->
<g id="node4" class="node">
<title>Node5327</title>
<g id="a_node4"><a xlink:href="../../d1/d89/_base_hash_table_8c.html#a22795ae4f7103dbcef447919a138ad13" target="_top" xlink:title="omc_BaseHashTable_hasKey">
<polygon fill="#ffffff" stroke="#000000" points="588,-55 588,-74 737,-74 737,-55 588,-55"/>
<text text-anchor="middle" x="662.5" y="-62" font-family="Helvetica,sans-Serif" font-size="10.00" fill="#000000">omc_BaseHashTable_hasKey</text>
</a>
</g>
</g>
<!-- Node5326&#45;&gt;Node5327 -->
<g id="edge3" class="edge">
<title>Node5326&#45;&gt;Node5327</title>
<path fill="none" stroke="#191970" d="M552.237,-64.5C560.6228,-64.5 569.1678,-64.5 577.6032,-64.5"/>
<polygon fill="#191970" stroke="#191970" points="577.8202,-68.0001 587.8201,-64.5 577.8201,-61.0001 577.8202,-68.0001"/>
</g>
<!-- Node5328 -->
<g id="node5" class="node">
<title>Node5328</title>
<g id="a_node5"><a xlink:href="../../d1/d89/_base_hash_table_8c.html#a9af2fd7934db53475c1958c756625ed0" target="_top" xlink:title="omc_BaseHashTable_valueArray\lKeyIndexExists">
<polygon fill="#ffffff" stroke="#000000" points="773,-74.5 773,-104.5 935,-104.5 935,-74.5 773,-74.5"/>
<text text-anchor="start" x="781" y="-92.5" font-family="Helvetica,sans-Serif" font-size="10.00" fill="#000000">omc_BaseHashTable_valueArray</text>
<text text-anchor="middle" x="854" y="-81.5" font-family="Helvetica,sans-Serif" font-size="10.00" fill="#000000">KeyIndexExists</text>
</a>
</g>
</g>
<!-- Node5327&#45;&gt;Node5328 -->
<g id="edge4" class="edge">
<title>Node5327&#45;&gt;Node5328</title>
<path fill="none" stroke="#191970" d="M735.4442,-74.0227C744.4485,-75.1982 753.7384,-76.411 762.9696,-77.6161"/>
<polygon fill="#191970" stroke="#191970" points="762.5783,-81.0947 772.9472,-78.9187 763.4845,-74.1536 762.5783,-81.0947"/>
</g>
<!-- Node5329 -->
<g id="node6" class="node">
<title>Node5329</title>
<g id="a_node6"><a xlink:href="../../d1/d89/_base_hash_table_8c.html#a1dc20718d1229dd4706dff8e089bbc55" target="_top" xlink:title="omc_BaseHashTable_hasKey\lIndex">
<polygon fill="#ffffff" stroke="#000000" points="779.5,-25.5 779.5,-55.5 928.5,-55.5 928.5,-25.5 779.5,-25.5"/>
<text text-anchor="start" x="787.5" y="-43.5" font-family="Helvetica,sans-Serif" font-size="10.00" fill="#000000">omc_BaseHashTable_hasKey</text>
<text text-anchor="middle" x="854" y="-32.5" font-family="Helvetica,sans-Serif" font-size="10.00" fill="#000000">Index</text>
</a>
</g>
</g>
<!-- Node5327&#45;&gt;Node5329 -->
<g id="edge5" class="edge">
<title>Node5327&#45;&gt;Node5329</title>
<path fill="none" stroke="#191970" d="M737.0872,-55.1523C747.5925,-53.8357 758.4555,-52.4742 769.1355,-51.1358"/>
<polygon fill="#191970" stroke="#191970" points="769.8142,-54.5782 779.3013,-49.8617 768.9436,-47.6325 769.8142,-54.5782"/>
</g>
<!-- Node5330 -->
<g id="node7" class="node">
<title>Node5330</title>
<g id="a_node7"><a xlink:href="../../d1/d89/_base_hash_table_8c.html#ad6cae0daa36185ebacd9e96e4adaf37e" target="_top" xlink:title="omc_BaseHashTable_hasKey\lIndex2">
<polygon fill="#ffffff" stroke="#000000" points="971,-25.5 971,-55.5 1120,-55.5 1120,-25.5 971,-25.5"/>
<text text-anchor="start" x="979" y="-43.5" font-family="Helvetica,sans-Serif" font-size="10.00" fill="#000000">omc_BaseHashTable_hasKey</text>
<text text-anchor="middle" x="1045.5" y="-32.5" font-family="Helvetica,sans-Serif" font-size="10.00" fill="#000000">Index2</text>
</a>
</g>
</g>
<!-- Node5329&#45;&gt;Node5330 -->
<g id="edge6" class="edge">
<title>Node5329&#45;&gt;Node5330</title>
<path fill="none" stroke="#191970" d="M928.5872,-40.5C939.0925,-40.5 949.9555,-40.5 960.6355,-40.5"/>
<polygon fill="#191970" stroke="#191970" points="960.8013,-44.0001 970.8013,-40.5 960.8013,-37.0001 960.8013,-44.0001"/>
</g>
<!-- Node5332 -->
<g id="node9" class="node">
<title>Node5332</title>
<g id="a_node9"><a xlink:href="../../d2/dcb/_hash_table_string_to_path_8c.html#a7390e429f16b5a0a11e721159c00f72c" target="_top" xlink:title="omc_HashTableStringToPath\l_emptyHashTableSized">
<polygon fill="#ffffff" stroke="#000000" points="399.5,-.5 399.5,-30.5 544.5,-30.5 544.5,-.5 399.5,-.5"/>
<text text-anchor="start" x="407.5" y="-18.5" font-family="Helvetica,sans-Serif" font-size="10.00" fill="#000000">omc_HashTableStringToPath</text>
<text text-anchor="middle" x="472" y="-7.5" font-family="Helvetica,sans-Serif" font-size="10.00" fill="#000000">_emptyHashTableSized</text>
</a>
</g>
</g>
<!-- Node5331&#45;&gt;Node5332 -->
<g id="edge8" class="edge">
<title>Node5331&#45;&gt;Node5332</title>
<path fill="none" stroke="#191970" d="M348.7046,-15.5C361.9005,-15.5 375.7533,-15.5 389.2135,-15.5"/>
<polygon fill="#191970" stroke="#191970" points="389.4128,-19.0001 399.4128,-15.5 389.4128,-12.0001 389.4128,-19.0001"/>
</g>
</g>
</svg>
