<?xml version="1.0" encoding="UTF-8" standalone="no"?>
<!DOCTYPE svg PUBLIC "-//W3C//DTD SVG 1.1//EN"
 "http://www.w3.org/Graphics/SVG/1.1/DTD/svg11.dtd">
<!-- Generated by graphviz version 2.40.1 (20161225.0304)
 -->
<!-- Title: omc_Lookup_getHtTypes Pages: 1 -->
<svg width="848pt" height="180pt"
 viewBox="0.00 0.00 848.00 180.00" xmlns="http://www.w3.org/2000/svg" xmlns:xlink="http://www.w3.org/1999/xlink">
<g id="graph0" class="graph" transform="scale(1 1) rotate(0) translate(4 176)">
<title>omc_Lookup_getHtTypes</title>
<polygon fill="#ffffff" stroke="transparent" points="-4,4 -4,-176 844,-176 844,4 -4,4"/>
<!-- Node2600 -->
<g id="node1" class="node">
<title>Node2600</title>
<polygon fill="#bfbfbf" stroke="#000000" points="0,-76.5 0,-95.5 128,-95.5 128,-76.5 0,-76.5"/>
<text text-anchor="middle" x="64" y="-83.5" font-family="Helvetica,sans-Serif" font-size="10.00" fill="#000000">omc_Lookup_getHtTypes</text>
</g>
<!-- Node2601 -->
<g id="node2" class="node">
<title>Node2601</title>
<g id="a_node2"><a xlink:href="../../d2/d0f/_f_node_8c.html#ad837a8a6752bd4ad53681789eb1192b8" target="_top" xlink:title="omc_FNode_child">
<polygon fill="#ffffff" stroke="#000000" points="182,-152.5 182,-171.5 277,-171.5 277,-152.5 182,-152.5"/>
<text text-anchor="middle" x="229.5" y="-159.5" font-family="Helvetica,sans-Serif" font-size="10.00" fill="#000000">omc_FNode_child</text>
</a>
</g>
</g>
<!-- Node2600&#45;&gt;Node2601 -->
<g id="edge1" class="edge">
<title>Node2600&#45;&gt;Node2601</title>
<path fill="none" stroke="#191970" d="M80.6627,-95.5066C100.2543,-106.4853 133.9211,-124.7343 164,-138 172.7073,-141.8402 182.2403,-145.5841 191.2719,-148.929"/>
<polygon fill="#191970" stroke="#191970" points="190.2183,-152.2699 200.8125,-152.3877 192.6041,-145.689 190.2183,-152.2699"/>
</g>
<!-- Node2603 -->
<g id="node4" class="node">
<title>Node2603</title>
<g id="a_node4"><a xlink:href="../../d2/d0f/_f_node_8c.html#aa3678179506f22ed3f92e3ef17ba350e" target="_top" xlink:title="omc_FNode_children">
<polygon fill="#ffffff" stroke="#000000" points="517,-95.5 517,-114.5 626,-114.5 626,-95.5 517,-95.5"/>
<text text-anchor="middle" x="571.5" y="-102.5" font-family="Helvetica,sans-Serif" font-size="10.00" fill="#000000">omc_FNode_children</text>
</a>
</g>
</g>
<!-- Node2600&#45;&gt;Node2603 -->
<g id="edge7" class="edge">
<title>Node2600&#45;&gt;Node2603</title>
<path fill="none" stroke="#191970" d="M128.0181,-88.3967C225.3012,-92.0389 409.3316,-98.9287 506.9373,-102.5829"/>
<polygon fill="#191970" stroke="#191970" points="506.8435,-106.0817 516.9675,-102.9584 507.1055,-99.0866 506.8435,-106.0817"/>
</g>
<!-- Node2606 -->
<g id="node7" class="node">
<title>Node2606</title>
<g id="a_node7"><a xlink:href="../../d2/d0f/_f_node_8c.html#ab9dbc34a8a7187057b8c2533b409fae3" target="_top" xlink:title="omc_FNode_fromRef">
<polygon fill="#ffffff" stroke="#000000" points="346.5,-114.5 346.5,-133.5 456.5,-133.5 456.5,-114.5 346.5,-114.5"/>
<text text-anchor="middle" x="401.5" y="-121.5" font-family="Helvetica,sans-Serif" font-size="10.00" fill="#000000">omc_FNode_fromRef</text>
</a>
</g>
</g>
<!-- Node2600&#45;&gt;Node2606 -->
<g id="edge8" class="edge">
<title>Node2600&#45;&gt;Node2606</title>
<path fill="none" stroke="#191970" d="M128.2364,-95.3645C140.1172,-96.9909 152.426,-98.6055 164,-100 222.0736,-106.9968 288.3052,-113.5738 336.0459,-118.067"/>
<polygon fill="#191970" stroke="#191970" points="335.963,-121.5745 346.2457,-119.0218 336.6155,-114.605 335.963,-121.5745"/>
</g>
<!-- Node2607 -->
<g id="node8" class="node">
<title>Node2607</title>
<g id="a_node8"><a xlink:href="../../d2/d08/_f_core_8c.html#aa65825a883cc2faeac9a9140b2bc7340" target="_top" xlink:title="omc_FCore_RefTree_new">
<polygon fill="#ffffff" stroke="#000000" points="164,-38.5 164,-57.5 295,-57.5 295,-38.5 164,-38.5"/>
<text text-anchor="middle" x="229.5" y="-45.5" font-family="Helvetica,sans-Serif" font-size="10.00" fill="#000000">omc_FCore_RefTree_new</text>
</a>
</g>
</g>
<!-- Node2600&#45;&gt;Node2607 -->
<g id="edge9" class="edge">
<title>Node2600&#45;&gt;Node2607</title>
<path fill="none" stroke="#191970" d="M105.7626,-76.411C127.7005,-71.3739 154.7803,-65.1562 178.008,-59.8229"/>
<polygon fill="#191970" stroke="#191970" points="179.0746,-63.1692 188.0377,-57.5201 177.508,-56.3467 179.0746,-63.1692"/>
</g>
<!-- Node2608 -->
<g id="node9" class="node">
<title>Node2608</title>
<g id="a_node9"><a xlink:href="../../d1/dd1/3rd_party_2gc_2include_2gc_8h.html#acacfa47efcc44a29f7bb7d98f2a000f8" target="_top" xlink:title="void">
<polygon fill="#ffffff" stroke="#000000" points="212,-.5 212,-19.5 247,-19.5 247,-.5 212,-.5"/>
<text text-anchor="middle" x="229.5" y="-7.5" font-family="Helvetica,sans-Serif" font-size="10.00" fill="#000000">void</text>
</a>
</g>
</g>
<!-- Node2600&#45;&gt;Node2608 -->
<g id="edge10" class="edge">
<title>Node2600&#45;&gt;Node2608</title>
<path fill="none" stroke="#191970" d="M78.3503,-76.3716C97.2874,-64.011 131.9764,-42.5468 164,-29 176.1451,-23.8623 190.1201,-19.5987 202.0341,-16.4212"/>
<polygon fill="#191970" stroke="#191970" points="203.0493,-19.7744 211.8755,-13.9137 201.3209,-12.9911 203.0493,-19.7744"/>
</g>
<!-- Node2602 -->
<g id="node3" class="node">
<title>Node2602</title>
<g id="a_node3"><a xlink:href="../../d2/d0f/_f_node_8c.html#a7bf4bb951c0fff6c3768cc9949676448" target="_top" xlink:title="omc_FNode_childFromNode">
<polygon fill="#ffffff" stroke="#000000" points="331,-152.5 331,-171.5 472,-171.5 472,-152.5 331,-152.5"/>
<text text-anchor="middle" x="401.5" y="-159.5" font-family="Helvetica,sans-Serif" font-size="10.00" fill="#000000">omc_FNode_childFromNode</text>
</a>
</g>
</g>
<!-- Node2601&#45;&gt;Node2602 -->
<g id="edge2" class="edge">
<title>Node2601&#45;&gt;Node2602</title>
<path fill="none" stroke="#191970" d="M277.4116,-162C290.8183,-162 305.7727,-162 320.5289,-162"/>
<polygon fill="#191970" stroke="#191970" points="320.6917,-165.5001 330.6916,-162 320.6916,-158.5001 320.6917,-165.5001"/>
</g>
<!-- Node2601&#45;&gt;Node2606 -->
<g id="edge6" class="edge">
<title>Node2601&#45;&gt;Node2606</title>
<path fill="none" stroke="#191970" d="M272.9029,-152.411C295.9068,-147.3287 324.3509,-141.0446 348.6342,-135.6797"/>
<polygon fill="#191970" stroke="#191970" points="349.3998,-139.095 358.4092,-133.5201 347.8896,-132.2598 349.3998,-139.095"/>
</g>
<!-- Node2602&#45;&gt;Node2603 -->
<g id="edge3" class="edge">
<title>Node2602&#45;&gt;Node2603</title>
<path fill="none" stroke="#191970" d="M439.7601,-152.447C450.2732,-149.6166 461.6315,-146.3675 472,-143 494.6143,-135.6554 519.614,-126.1018 538.8974,-118.4114"/>
<polygon fill="#191970" stroke="#191970" points="540.4465,-121.5608 548.4174,-114.5812 537.8337,-115.0667 540.4465,-121.5608"/>
</g>
<!-- Node2604 -->
<g id="node5" class="node">
<title>Node2604</title>
<g id="a_node5"><a xlink:href="../../d2/d08/_f_core_8c.html#ab107186a2eea148b54dfa1236c7dc57f" target="_top" xlink:title="omc_FCore_RefTree_get">
<polygon fill="#ffffff" stroke="#000000" points="508,-152.5 508,-171.5 635,-171.5 635,-152.5 508,-152.5"/>
<text text-anchor="middle" x="571.5" y="-159.5" font-family="Helvetica,sans-Serif" font-size="10.00" fill="#000000">omc_FCore_RefTree_get</text>
</a>
</g>
</g>
<!-- Node2602&#45;&gt;Node2604 -->
<g id="edge4" class="edge">
<title>Node2602&#45;&gt;Node2604</title>
<path fill="none" stroke="#191970" d="M472.1184,-162C480.5496,-162 489.1753,-162 497.6504,-162"/>
<polygon fill="#191970" stroke="#191970" points="497.8904,-165.5001 507.8904,-162 497.8904,-158.5001 497.8904,-165.5001"/>
</g>
<!-- Node2605 -->
<g id="node6" class="node">
<title>Node2605</title>
<g id="a_node6"><a xlink:href="../../d2/d08/_f_core_8c.html#a556c8fab7d705963fe0541d94033aa6e" target="_top" xlink:title="omc_FCore_RefTree_keyCompare">
<polygon fill="#ffffff" stroke="#000000" points="671,-152.5 671,-171.5 840,-171.5 840,-152.5 671,-152.5"/>
<text text-anchor="middle" x="755.5" y="-159.5" font-family="Helvetica,sans-Serif" font-size="10.00" fill="#000000">omc_FCore_RefTree_keyCompare</text>
</a>
</g>
</g>
<!-- Node2604&#45;&gt;Node2605 -->
<g id="edge5" class="edge">
<title>Node2604&#45;&gt;Node2605</title>
<path fill="none" stroke="#191970" d="M635.08,-162C643.3674,-162 651.9959,-162 660.658,-162"/>
<polygon fill="#191970" stroke="#191970" points="660.8237,-165.5001 670.8236,-162 660.8236,-158.5001 660.8237,-165.5001"/>
</g>
</g>
</svg>
