<?xml version="1.0" encoding="UTF-8" standalone="no"?>
<!DOCTYPE svg PUBLIC "-//W3C//DTD SVG 1.1//EN"
 "http://www.w3.org/Graphics/SVG/1.1/DTD/svg11.dtd">
<!-- Generated by graphviz version 2.40.1 (20161225.0304)
 -->
<!-- Title: omc_Lookup_lookupConnectorVar2 Pages: 1 -->
<svg width="792pt" height="169pt"
 viewBox="0.00 0.00 792.00 168.50" xmlns="http://www.w3.org/2000/svg" xmlns:xlink="http://www.w3.org/1999/xlink">
<g id="graph0" class="graph" transform="scale(1 1) rotate(0) translate(4 164.5)">
<title>omc_Lookup_lookupConnectorVar2</title>
<polygon fill="#ffffff" stroke="transparent" points="-4,4 -4,-164.5 788,-164.5 788,4 -4,4"/>
<!-- Node4729 -->
<g id="node1" class="node">
<title>Node4729</title>
<polygon fill="#bfbfbf" stroke="#000000" points="0,-66.5 0,-85.5 171,-85.5 171,-66.5 0,-66.5"/>
<text text-anchor="middle" x="85.5" y="-73.5" font-family="Helvetica,sans-Serif" font-size="10.00" fill="#000000">omc_Lookup_lookupConnectorVar2</text>
</g>
<!-- Node4730 -->
<g id="node2" class="node">
<title>Node4730</title>
<g id="a_node2"><a xlink:href="../../d5/d8d/_lookup_8h.html#a42dd49c2d784c29daa3c6994f375d681" target="_top" xlink:title="omc_Lookup_lookupConnectorVar">
<polygon fill="#ffffff" stroke="#000000" points="207,-66.5 207,-85.5 373,-85.5 373,-66.5 207,-66.5"/>
<text text-anchor="middle" x="290" y="-73.5" font-family="Helvetica,sans-Serif" font-size="10.00" fill="#000000">omc_Lookup_lookupConnectorVar</text>
</a>
</g>
</g>
<!-- Node4729&#45;&gt;Node4730 -->
<g id="edge1" class="edge">
<title>Node4729&#45;&gt;Node4730</title>
<path fill="none" stroke="#191970" d="M181.0732,-76C189.6558,-76 198.3014,-76 206.7667,-76"/>
<polygon fill="#191970" stroke="#191970" points="181.0415,-72.5001 171.0415,-76 181.0415,-79.5001 181.0415,-72.5001"/>
</g>
<!-- Node4730&#45;&gt;Node4730 -->
<g id="edge7" class="edge">
<title>Node4730&#45;&gt;Node4730</title>
<path fill="none" stroke="#191970" d="M251.7685,-93.1138C251.1959,-99.126 263.9397,-104 290,-104 326.2578,-104 336.7386,-94.5653 321.4423,-85.7571"/>
<polygon fill="#191970" stroke="#191970" points="254.3478,-95.4796 258.5577,-85.7571 249.2036,-90.7323 254.3478,-95.4796"/>
</g>
<!-- Node4731 -->
<g id="node3" class="node">
<title>Node4731</title>
<g id="a_node3"><a xlink:href="../../d9/d88/_inst_section_8c.html#aa3bce494158f28229bbc62f3d8d8eba3" target="_top" xlink:title="omc_InstSection_connectExpandable\lConnectors">
<polygon fill="#ffffff" stroke="#000000" points="409,-129 409,-159 590,-159 590,-129 409,-129"/>
<text text-anchor="start" x="417" y="-147" font-family="Helvetica,sans-Serif" font-size="10.00" fill="#000000">omc_InstSection_connectExpandable</text>
<text text-anchor="middle" x="499.5" y="-136" font-family="Helvetica,sans-Serif" font-size="10.00" fill="#000000">Connectors</text>
</a>
</g>
</g>
<!-- Node4730&#45;&gt;Node4731 -->
<g id="edge2" class="edge">
<title>Node4730&#45;&gt;Node4731</title>
<path fill="none" stroke="#191970" d="M326.3913,-88.9803C349.8831,-97.2499 381.1484,-108.0517 409,-117 421.4882,-121.0123 435.0092,-125.1536 447.6979,-128.9515"/>
<polygon fill="#191970" stroke="#191970" points="327.4266,-85.6342 316.8319,-85.604 325.0954,-92.2346 327.4266,-85.6342"/>
</g>
<!-- Node4733 -->
<g id="node5" class="node">
<title>Node4733</title>
<g id="a_node5"><a xlink:href="../../d9/d88/_inst_section_8c.html#a912d3f8982b34b50793bd19e59f33f42" target="_top" xlink:title="omc_InstSection_instConnector">
<polygon fill="#ffffff" stroke="#000000" points="421.5,-88.5 421.5,-107.5 577.5,-107.5 577.5,-88.5 421.5,-88.5"/>
<text text-anchor="middle" x="499.5" y="-95.5" font-family="Helvetica,sans-Serif" font-size="10.00" fill="#000000">omc_InstSection_instConnector</text>
</a>
</g>
</g>
<!-- Node4730&#45;&gt;Node4733 -->
<g id="edge4" class="edge">
<title>Node4730&#45;&gt;Node4733</title>
<path fill="none" stroke="#191970" d="M383.2277,-85.79C395.9342,-87.1244 408.8698,-88.4827 421.2741,-89.7853"/>
<polygon fill="#191970" stroke="#191970" points="383.4117,-82.2902 373.1008,-84.7266 382.6806,-89.2519 383.4117,-82.2902"/>
</g>
<!-- Node4735 -->
<g id="node7" class="node">
<title>Node4735</title>
<g id="a_node7"><a xlink:href="../../da/d17/_inst_util_8h.html#a786d74e97fc90a02a5ad047834299499" target="_top" xlink:title="omc_InstUtil_reorderConnect\lEquationsExpandable">
<polygon fill="#ffffff" stroke="#000000" points="427.5,-39 427.5,-69 571.5,-69 571.5,-39 427.5,-39"/>
<text text-anchor="start" x="435.5" y="-57" font-family="Helvetica,sans-Serif" font-size="10.00" fill="#000000">omc_InstUtil_reorderConnect</text>
<text text-anchor="middle" x="499.5" y="-46" font-family="Helvetica,sans-Serif" font-size="10.00" fill="#000000">EquationsExpandable</text>
</a>
</g>
</g>
<!-- Node4730&#45;&gt;Node4735 -->
<g id="edge6" class="edge">
<title>Node4730&#45;&gt;Node4735</title>
<path fill="none" stroke="#191970" d="M383.2684,-66.2057C398.0473,-64.6537 413.1348,-63.0694 427.335,-61.5782"/>
<polygon fill="#191970" stroke="#191970" points="382.6806,-62.7481 373.1008,-67.2734 383.4117,-69.7098 382.6806,-62.7481"/>
</g>
<!-- Node4736 -->
<g id="node8" class="node">
<title>Node4736</title>
<g id="a_node8"><a xlink:href="../../d5/d8d/_lookup_8h.html#ada919c7ab953a0d12d865d842f807fdd" target="_top" xlink:title="boxptr_Lookup_lookupConnectorVar">
<polygon fill="#ffffff" stroke="#000000" points="412.5,-.5 412.5,-19.5 586.5,-19.5 586.5,-.5 412.5,-.5"/>
<text text-anchor="middle" x="499.5" y="-7.5" font-family="Helvetica,sans-Serif" font-size="10.00" fill="#000000">boxptr_Lookup_lookupConnectorVar</text>
</a>
</g>
</g>
<!-- Node4730&#45;&gt;Node4736 -->
<g id="edge8" class="edge">
<title>Node4730&#45;&gt;Node4736</title>
<path fill="none" stroke="#191970" d="M320.3073,-62.3797C344.0616,-52.1103 378.1466,-38.259 409,-29 420.9939,-25.4007 434.0806,-22.2308 446.4806,-19.5629"/>
<polygon fill="#191970" stroke="#191970" points="318.8735,-59.1866 311.1126,-66.3991 321.6773,-65.6006 318.8735,-59.1866"/>
</g>
<!-- Node4732 -->
<g id="node4" class="node">
<title>Node4732</title>
<g id="a_node4"><a xlink:href="../../d9/d88/_inst_section_8c.html#aadf5e2c7f7cb0b8d5ec2466120c2ebd7" target="_top" xlink:title="boxptr_InstSection\l_connectExpandableConnectors">
<polygon fill="#ffffff" stroke="#000000" points="626,-130 626,-160 784,-160 784,-130 626,-130"/>
<text text-anchor="start" x="634" y="-148" font-family="Helvetica,sans-Serif" font-size="10.00" fill="#000000">boxptr_InstSection</text>
<text text-anchor="middle" x="705" y="-137" font-family="Helvetica,sans-Serif" font-size="10.00" fill="#000000">_connectExpandableConnectors</text>
</a>
</g>
</g>
<!-- Node4731&#45;&gt;Node4732 -->
<g id="edge3" class="edge">
<title>Node4731&#45;&gt;Node4732</title>
<path fill="none" stroke="#191970" d="M600.2496,-144.4903C608.8013,-144.5319 617.3714,-144.5736 625.7229,-144.6142"/>
<polygon fill="#191970" stroke="#191970" points="600.2504,-140.9903 590.2335,-144.4415 600.2163,-147.9902 600.2504,-140.9903"/>
</g>
<!-- Node4734 -->
<g id="node6" class="node">
<title>Node4734</title>
<g id="a_node6"><a xlink:href="../../d9/d88/_inst_section_8c.html#a0e46eef2f4f6f59faedbd659806f9c4d" target="_top" xlink:title="boxptr_InstSection\l_instConnector">
<polygon fill="#ffffff" stroke="#000000" points="656,-81 656,-111 754,-111 754,-81 656,-81"/>
<text text-anchor="start" x="664" y="-99" font-family="Helvetica,sans-Serif" font-size="10.00" fill="#000000">boxptr_InstSection</text>
<text text-anchor="middle" x="705" y="-88" font-family="Helvetica,sans-Serif" font-size="10.00" fill="#000000">_instConnector</text>
</a>
</g>
</g>
<!-- Node4733&#45;&gt;Node4734 -->
<g id="edge5" class="edge">
<title>Node4733&#45;&gt;Node4734</title>
<path fill="none" stroke="#191970" d="M588.0062,-97.1386C611.2297,-96.9126 635.4432,-96.677 655.7766,-96.4791"/>
<polygon fill="#191970" stroke="#191970" points="587.7424,-93.6409 577.777,-97.2382 587.8106,-100.6406 587.7424,-93.6409"/>
</g>
</g>
</svg>
