<?xml version="1.0" encoding="UTF-8" standalone="no"?>
<!DOCTYPE svg PUBLIC "-//W3C//DTD SVG 1.1//EN"
 "http://www.w3.org/Graphics/SVG/1.1/DTD/svg11.dtd">
<!-- Generated by graphviz version 2.40.1 (20161225.0304)
 -->
<!-- Title: Logger::initialize Pages: 1 -->
<svg width="442pt" height="28pt"
 viewBox="0.00 0.00 442.00 28.00" xmlns="http://www.w3.org/2000/svg" xmlns:xlink="http://www.w3.org/1999/xlink">
<g id="graph0" class="graph" transform="scale(1 1) rotate(0) translate(4 24)">
<title>Logger::initialize</title>
<polygon fill="#ffffff" stroke="transparent" points="-4,4 -4,-24 438,-24 438,4 -4,4"/>
<!-- Node32 -->
<g id="node1" class="node">
<title>Node32</title>
<polygon fill="#bfbfbf" stroke="#000000" points="0,-.5 0,-19.5 87,-19.5 87,-.5 0,-.5"/>
<text text-anchor="middle" x="43.5" y="-7.5" font-family="Helvetica,sans-Serif" font-size="10.00" fill="#000000">Logger::initialize</text>
</g>
<!-- Node33 -->
<g id="node2" class="node">
<title>Node33</title>
<g id="a_node2"><a xlink:href="../../de/d00/group__fmu2.html#gada1b25d2755089350b5959df786419d8" target="_top" xlink:title="FMU2Wrapper::setDebugLogging">
<polygon fill="#ffffff" stroke="#000000" points="123,-.5 123,-19.5 285,-19.5 285,-.5 123,-.5"/>
<text text-anchor="middle" x="204" y="-7.5" font-family="Helvetica,sans-Serif" font-size="10.00" fill="#000000">FMU2Wrapper::setDebugLogging</text>
</a>
</g>
</g>
<!-- Node32&#45;&gt;Node33 -->
<g id="edge1" class="edge">
<title>Node32&#45;&gt;Node33</title>
<path fill="none" stroke="#191970" d="M97.4729,-10C105.6555,-10 114.2477,-10 122.8537,-10"/>
<polygon fill="#191970" stroke="#191970" points="97.3574,-6.5001 87.3573,-10 97.3573,-13.5001 97.3574,-6.5001"/>
</g>
<!-- Node34 -->
<g id="node3" class="node">
<title>Node34</title>
<g id="a_node3"><a xlink:href="../../de/d00/group__fmu2.html#gaa4fe552da25f3f33412203d5d16f5499" target="_top" xlink:title="fmi2SetDebugLogging">
<polygon fill="#ffffff" stroke="#000000" points="321,-.5 321,-19.5 434,-19.5 434,-.5 321,-.5"/>
<text text-anchor="middle" x="377.5" y="-7.5" font-family="Helvetica,sans-Serif" font-size="10.00" fill="#000000">fmi2SetDebugLogging</text>
</a>
</g>
</g>
<!-- Node33&#45;&gt;Node34 -->
<g id="edge2" class="edge">
<title>Node33&#45;&gt;Node34</title>
<path fill="none" stroke="#191970" d="M295.2958,-10C303.9221,-10 312.4884,-10 320.6521,-10"/>
<polygon fill="#191970" stroke="#191970" points="295.1622,-6.5001 285.1621,-10 295.1621,-13.5001 295.1622,-6.5001"/>
</g>
</g>
</svg>
