<?xml version="1.0" encoding="UTF-8" standalone="no"?>
<!DOCTYPE svg PUBLIC "-//W3C//DTD SVG 1.1//EN"
 "http://www.w3.org/Graphics/SVG/1.1/DTD/svg11.dtd">
<!-- Generated by graphviz version 2.40.1 (20161225.0304)
 -->
<!-- Title: Teuchos::FunctionObjectXMLConverter::getTypeAttributeName Pages: 1 -->
<svg width="422pt" height="127pt"
 viewBox="0.00 0.00 422.00 126.50" xmlns="http://www.w3.org/2000/svg" xmlns:xlink="http://www.w3.org/1999/xlink">
<g id="graph0" class="graph" transform="scale(1 1) rotate(0) translate(4 122.5)">
<title>Teuchos::FunctionObjectXMLConverter::getTypeAttributeName</title>
<polygon fill="#ffffff" stroke="transparent" points="-4,4 -4,-122.5 418,-122.5 418,4 -4,4"/>
<!-- Node18 -->
<g id="node1" class="node">
<title>Node18</title>
<polygon fill="#bfbfbf" stroke="#000000" points="0,-39 0,-69 189,-69 189,-39 0,-39"/>
<text text-anchor="start" x="8" y="-57" font-family="Helvetica,sans-Serif" font-size="10.00" fill="#000000">Teuchos::FunctionObjectXMLConverter</text>
<text text-anchor="middle" x="94.5" y="-46" font-family="Helvetica,sans-Serif" font-size="10.00" fill="#000000">::getTypeAttributeName</text>
</g>
<!-- Node19 -->
<g id="node2" class="node">
<title>Node19</title>
<g id="a_node2"><a xlink:href="../../d0/da8/class_teuchos_1_1_function_object_x_m_l_converter.html#a493530d335993c21ff64a894d1e08cb2" target="_top" xlink:title="Converters a given FunctionObject to XML. ">
<polygon fill="#ffffff" stroke="#000000" points="225,-88 225,-118 414,-118 414,-88 225,-88"/>
<text text-anchor="start" x="233" y="-106" font-family="Helvetica,sans-Serif" font-size="10.00" fill="#000000">Teuchos::FunctionObjectXMLConverter</text>
<text text-anchor="middle" x="319.5" y="-95" font-family="Helvetica,sans-Serif" font-size="10.00" fill="#000000">::fromFunctionObjecttoXML</text>
</a>
</g>
</g>
<!-- Node18&#45;&gt;Node19 -->
<g id="edge1" class="edge">
<title>Node18&#45;&gt;Node19</title>
<path fill="none" stroke="#191970" d="M173.4123,-71.1854C198.5727,-76.6647 226.2008,-82.6815 250.594,-87.9938"/>
<polygon fill="#191970" stroke="#191970" points="174.0523,-67.7428 163.5365,-69.0346 172.5627,-74.5824 174.0523,-67.7428"/>
</g>
<!-- Node20 -->
<g id="node3" class="node">
<title>Node20</title>
<g id="a_node3"><a xlink:href="../../d7/d63/class_teuchos_1_1_function_object_x_m_l_converter_d_b.html#aec974870e7814154d8a85cf27f40de3b" target="_top" xlink:title="Get an appropriate FunctionObjectXMLConverter given a XMLObject. ">
<polygon fill="#ffffff" stroke="#000000" points="225,-39 225,-69 414,-69 414,-39 225,-39"/>
<text text-anchor="start" x="233" y="-57" font-family="Helvetica,sans-Serif" font-size="10.00" fill="#000000">Teuchos::FunctionObjectXMLConverter</text>
<text text-anchor="middle" x="319.5" y="-46" font-family="Helvetica,sans-Serif" font-size="10.00" fill="#000000">DB::getConverter</text>
</a>
</g>
</g>
<!-- Node18&#45;&gt;Node20 -->
<g id="edge2" class="edge">
<title>Node18&#45;&gt;Node20</title>
<path fill="none" stroke="#191970" d="M199.5284,-54C207.9735,-54 216.475,-54 224.8413,-54"/>
<polygon fill="#191970" stroke="#191970" points="199.2682,-50.5001 189.2681,-54 199.2681,-57.5001 199.2682,-50.5001"/>
</g>
<!-- Node21 -->
<g id="node4" class="node">
<title>Node21</title>
<g id="a_node4"><a xlink:href="../../d3/d74/namespace_teuchos.html#af8fbed22a50dd64c3ec0e3ff3ca72155" target="_top" xlink:title="Teuchos::TEUCHOS_UNIT_TEST">
<polygon fill="#ffffff" stroke="#000000" points="234.5,-.5 234.5,-19.5 404.5,-19.5 404.5,-.5 234.5,-.5"/>
<text text-anchor="middle" x="319.5" y="-7.5" font-family="Helvetica,sans-Serif" font-size="10.00" fill="#000000">Teuchos::TEUCHOS_UNIT_TEST</text>
</a>
</g>
</g>
<!-- Node18&#45;&gt;Node21 -->
<g id="edge3" class="edge">
<title>Node18&#45;&gt;Node21</title>
<path fill="none" stroke="#191970" d="M181.4767,-36.9912C211.8122,-31.0589 244.7615,-24.6155 270.857,-19.5124"/>
<polygon fill="#191970" stroke="#191970" points="180.4453,-33.6265 171.3029,-38.9808 181.7888,-40.4964 180.4453,-33.6265"/>
</g>
</g>
</svg>
