<?xml version="1.0" encoding="UTF-8" standalone="no"?>
<!DOCTYPE svg PUBLIC "-//W3C//DTD SVG 1.1//EN"
 "http://www.w3.org/Graphics/SVG/1.1/DTD/svg11.dtd">
<!-- Generated by graphviz version 2.40.1 (20161225.0304)
 -->
<!-- Title: Li::operator() Pages: 1 -->
<svg width="387pt" height="66pt"
 viewBox="0.00 0.00 387.00 66.00" xmlns="http://www.w3.org/2000/svg" xmlns:xlink="http://www.w3.org/1999/xlink">
<g id="graph0" class="graph" transform="scale(1 1) rotate(0) translate(4 62)">
<title>Li::operator()</title>
<polygon fill="#ffffff" stroke="transparent" points="-4,4 -4,-62 383,-62 383,4 -4,4"/>
<!-- Node0 -->
<g id="node1" class="node">
<title>Node0</title>
<polygon fill="#bfbfbf" stroke="#000000" points="0,-19.5 0,-38.5 71,-38.5 71,-19.5 0,-19.5"/>
<text text-anchor="middle" x="35.5" y="-26.5" font-family="Helvetica,sans-Serif" font-size="10.00" fill="#000000">Li::operator()</text>
</g>
<!-- Node1 -->
<g id="node2" class="node">
<title>Node1</title>
<g id="a_node2"><a xlink:href="../../dd/d6f/namespace_general_script_support.html#a22d3dca193e2e0d990757e8f758a5c02" target="_top" xlink:title="GeneralScriptSupport.u">
<polygon fill="#ffffff" stroke="#000000" points="107,-19.5 107,-38.5 225,-38.5 225,-19.5 107,-19.5"/>
<text text-anchor="middle" x="166" y="-26.5" font-family="Helvetica,sans-Serif" font-size="10.00" fill="#000000">GeneralScriptSupport.u</text>
</a>
</g>
</g>
<!-- Node0&#45;&gt;Node1 -->
<g id="edge1" class="edge">
<title>Node0&#45;&gt;Node1</title>
<path fill="none" stroke="#191970" d="M71.1597,-29C79.165,-29 87.9242,-29 96.7813,-29"/>
<polygon fill="#191970" stroke="#191970" points="96.7878,-32.5001 106.7878,-29 96.7878,-25.5001 96.7878,-32.5001"/>
</g>
<!-- Node2 -->
<g id="node3" class="node">
<title>Node2</title>
<g id="a_node3"><a xlink:href="../../dd/d6f/namespace_general_script_support.html#a0923113f2ed18150f5d9be71ba73986b" target="_top" xlink:title="GeneralScriptSupport.b">
<polygon fill="#ffffff" stroke="#000000" points="261,-38.5 261,-57.5 379,-57.5 379,-38.5 261,-38.5"/>
<text text-anchor="middle" x="320" y="-45.5" font-family="Helvetica,sans-Serif" font-size="10.00" fill="#000000">GeneralScriptSupport.b</text>
</a>
</g>
</g>
<!-- Node1&#45;&gt;Node2 -->
<g id="edge2" class="edge">
<title>Node1&#45;&gt;Node2</title>
<path fill="none" stroke="#191970" d="M225.1,-36.2916C233.5133,-37.3296 242.2284,-38.4048 250.8126,-39.4639"/>
<polygon fill="#191970" stroke="#191970" points="250.4504,-42.9457 260.8037,-40.6966 251.3076,-35.9983 250.4504,-42.9457"/>
</g>
<!-- Node3 -->
<g id="node4" class="node">
<title>Node3</title>
<g id="a_node4"><a xlink:href="../../dd/d6f/namespace_general_script_support.html#a0b29205f19d0441296f27f7fb76ba7ee" target="_top" xlink:title="GeneralScriptSupport.s">
<polygon fill="#ffffff" stroke="#000000" points="261,-.5 261,-19.5 379,-19.5 379,-.5 261,-.5"/>
<text text-anchor="middle" x="320" y="-7.5" font-family="Helvetica,sans-Serif" font-size="10.00" fill="#000000">GeneralScriptSupport.s</text>
</a>
</g>
</g>
<!-- Node1&#45;&gt;Node3 -->
<g id="edge3" class="edge">
<title>Node1&#45;&gt;Node3</title>
<path fill="none" stroke="#191970" d="M225.1,-21.7084C233.5133,-20.6704 242.2284,-19.5952 250.8126,-18.5361"/>
<polygon fill="#191970" stroke="#191970" points="251.3076,-22.0017 260.8037,-17.3034 250.4504,-15.0543 251.3076,-22.0017"/>
</g>
</g>
</svg>
