<?xml version="1.0" encoding="UTF-8" standalone="no"?>
<!DOCTYPE svg PUBLIC "-//W3C//DTD SVG 1.1//EN"
 "http://www.w3.org/Graphics/SVG/1.1/DTD/svg11.dtd">
<!-- Generated by graphviz version 2.40.1 (20161225.0304)
 -->
<!-- Title: ML_AGG_Gen_DDProlongator Pages: 1 -->
<svg width="575pt" height="306pt"
 viewBox="0.00 0.00 575.00 306.00" xmlns="http://www.w3.org/2000/svg" xmlns:xlink="http://www.w3.org/1999/xlink">
<g id="graph0" class="graph" transform="scale(1 1) rotate(0) translate(4 302)">
<title>ML_AGG_Gen_DDProlongator</title>
<polygon fill="#ffffff" stroke="transparent" points="-4,4 -4,-302 571,-302 571,4 -4,4"/>
<!-- Node614 -->
<g id="node1" class="node">
<title>Node614</title>
<polygon fill="#bfbfbf" stroke="#000000" points="0,-133.5 0,-152.5 150,-152.5 150,-133.5 0,-133.5"/>
<text text-anchor="middle" x="75" y="-140.5" font-family="Helvetica,sans-Serif" font-size="10.00" fill="#000000">ML_AGG_Gen_DDProlongator</text>
</g>
<!-- Node615 -->
<g id="node2" class="node">
<title>Node615</title>
<g id="a_node2"><a xlink:href="../../d0/d33/ml__agg__gen_p_8h.html#ae9980b6a4d94d467d5865727725cb1b8" target="_top" xlink:title="ML_Gen_MGHierarchy\l_UsingAggregation">
<polygon fill="#ffffff" stroke="#000000" points="186,-128 186,-158 302,-158 302,-128 186,-128"/>
<text text-anchor="start" x="194" y="-146" font-family="Helvetica,sans-Serif" font-size="10.00" fill="#000000">ML_Gen_MGHierarchy</text>
<text text-anchor="middle" x="244" y="-135" font-family="Helvetica,sans-Serif" font-size="10.00" fill="#000000">_UsingAggregation</text>
</a>
</g>
</g>
<!-- Node614&#45;&gt;Node615 -->
<g id="edge1" class="edge">
<title>Node614&#45;&gt;Node615</title>
<path fill="none" stroke="#191970" d="M160.2647,-136.2502C168.9293,-136.2558 177.5832,-136.356 185.862,-136.5509"/>
<polygon fill="#191970" stroke="#191970" points="160.0972,-132.7507 150.11,-136.2872 160.1227,-139.7507 160.0972,-132.7507"/>
</g>
<!-- Node615&#45;&gt;Node614 -->
<g id="edge3" class="edge">
<title>Node615&#45;&gt;Node614</title>
<path fill="none" stroke="#191970" d="M175.7151,-149.6383C167.2862,-149.7557 158.6336,-149.7806 150.11,-149.7128"/>
<polygon fill="#191970" stroke="#191970" points="175.929,-153.135 185.862,-149.4491 175.7984,-146.1362 175.929,-153.135"/>
</g>
<!-- Node616 -->
<g id="node3" class="node">
<title>Node616</title>
<g id="a_node3"><a xlink:href="../../d5/d8c/mlguide_8c.html#a0ddf1224851353fc92bfbff6f499fa97" target="_top" xlink:title="main">
<polygon fill="#ffffff" stroke="#000000" points="396.5,-278.5 396.5,-297.5 434.5,-297.5 434.5,-278.5 396.5,-278.5"/>
<text text-anchor="middle" x="415.5" y="-285.5" font-family="Helvetica,sans-Serif" font-size="10.00" fill="#000000">main</text>
</a>
</g>
</g>
<!-- Node615&#45;&gt;Node616 -->
<g id="edge2" class="edge">
<title>Node615&#45;&gt;Node616</title>
<path fill="none" stroke="#191970" d="M255.4177,-167.0731C270.3237,-195.8295 299.1625,-243.2692 338,-269 355.554,-280.63 379.5844,-285.1476 396.212,-286.8988"/>
<polygon fill="#191970" stroke="#191970" points="258.5225,-165.4566 250.9025,-158.0956 252.2689,-168.6019 258.5225,-165.4566"/>
</g>
<!-- Node617 -->
<g id="node4" class="node">
<title>Node617</title>
<g id="a_node4"><a xlink:href="../../d0/d33/ml__agg__gen_p_8h.html#a1c6a82c0137de25725bc1708adb0f65e" target="_top" xlink:title="ML_AGG_Gen_DDProlongator2">
<polygon fill="#ffffff" stroke="#000000" points="338,-240.5 338,-259.5 493,-259.5 493,-240.5 338,-240.5"/>
<text text-anchor="middle" x="415.5" y="-247.5" font-family="Helvetica,sans-Serif" font-size="10.00" fill="#000000">ML_AGG_Gen_DDProlongator2</text>
</a>
</g>
</g>
<!-- Node615&#45;&gt;Node617 -->
<g id="edge4" class="edge">
<title>Node615&#45;&gt;Node617</title>
<path fill="none" stroke="#191970" d="M262.525,-166.044C279.9309,-186.1593 307.767,-214.6235 338,-231 345.1868,-234.8929 353.1774,-238.0007 361.2196,-240.4784"/>
<polygon fill="#191970" stroke="#191970" points="265.0735,-163.6373 255.9455,-158.2586 259.727,-168.1556 265.0735,-163.6373"/>
</g>
<!-- Node618 -->
<g id="node5" class="node">
<title>Node618</title>
<g id="a_node5"><a xlink:href="../../d5/d9b/ml__agg__reitzinger_8h.html#a109c0acc3b9efbf213a9f49d756cdda1" target="_top" xlink:title="ML_Gen_MGHierarchy\l_UsingReitzinger">
<polygon fill="#ffffff" stroke="#000000" points="357.5,-191 357.5,-221 473.5,-221 473.5,-191 357.5,-191"/>
<text text-anchor="start" x="365.5" y="-209" font-family="Helvetica,sans-Serif" font-size="10.00" fill="#000000">ML_Gen_MGHierarchy</text>
<text text-anchor="middle" x="415.5" y="-198" font-family="Helvetica,sans-Serif" font-size="10.00" fill="#000000">_UsingReitzinger</text>
</a>
</g>
</g>
<!-- Node615&#45;&gt;Node618 -->
<g id="edge5" class="edge">
<title>Node615&#45;&gt;Node618</title>
<path fill="none" stroke="#191970" d="M288.8238,-161.8874C304.3093,-168.2076 321.8308,-175.1325 338,-181 347.3027,-184.3758 357.3126,-187.7747 366.9472,-190.9316"/>
<polygon fill="#191970" stroke="#191970" points="290.0551,-158.6095 279.4753,-158.0453 287.3941,-165.084 290.0551,-158.6095"/>
</g>
<!-- Node620 -->
<g id="node7" class="node">
<title>Node620</title>
<g id="a_node7"><a xlink:href="../../db/de5/ml__struct_8h.html#a3e510083e545d8f69ebf2c7904c2ad92" target="_top" xlink:title="ML_Setup">
<polygon fill="#ffffff" stroke="#000000" points="385,-152.5 385,-171.5 446,-171.5 446,-152.5 385,-152.5"/>
<text text-anchor="middle" x="415.5" y="-159.5" font-family="Helvetica,sans-Serif" font-size="10.00" fill="#000000">ML_Setup</text>
</a>
</g>
</g>
<!-- Node615&#45;&gt;Node620 -->
<g id="edge7" class="edge">
<title>Node615&#45;&gt;Node620</title>
<path fill="none" stroke="#191970" d="M312.3256,-150.5696C337.503,-153.3589 364.7729,-156.3801 384.9505,-158.6155"/>
<polygon fill="#191970" stroke="#191970" points="312.3867,-147.055 302.0621,-149.4325 311.6158,-154.0125 312.3867,-147.055"/>
</g>
<!-- Node621 -->
<g id="node8" class="node">
<title>Node621</title>
<g id="a_node8"><a xlink:href="../../db/de5/ml__struct_8h.html#a29c5797e6cbb5e0a36b743546c60a979" target="_top" xlink:title="ML_build_ggb_fat">
<polygon fill="#ffffff" stroke="#000000" points="369,-114.5 369,-133.5 462,-133.5 462,-114.5 369,-114.5"/>
<text text-anchor="middle" x="415.5" y="-121.5" font-family="Helvetica,sans-Serif" font-size="10.00" fill="#000000">ML_build_ggb_fat</text>
</a>
</g>
</g>
<!-- Node615&#45;&gt;Node621 -->
<g id="edge8" class="edge">
<title>Node615&#45;&gt;Node621</title>
<path fill="none" stroke="#191970" d="M312.173,-135.4473C331.1849,-133.341 351.4012,-131.1013 368.8634,-129.1667"/>
<polygon fill="#191970" stroke="#191970" points="311.6158,-131.9875 302.0621,-136.5675 312.3867,-138.945 311.6158,-131.9875"/>
</g>
<!-- Node622 -->
<g id="node9" class="node">
<title>Node622</title>
<g id="a_node9"><a xlink:href="../../d6/dfe/mli__solver_8h.html#a9860d39e2098baeea0339301379b4272" target="_top" xlink:title="MLI_Solver_Setup">
<polygon fill="#ffffff" stroke="#000000" points="367,-76.5 367,-95.5 464,-95.5 464,-76.5 367,-76.5"/>
<text text-anchor="middle" x="415.5" y="-83.5" font-family="Helvetica,sans-Serif" font-size="10.00" fill="#000000">MLI_Solver_Setup</text>
</a>
</g>
</g>
<!-- Node615&#45;&gt;Node622 -->
<g id="edge9" class="edge">
<title>Node615&#45;&gt;Node622</title>
<path fill="none" stroke="#191970" d="M287.4192,-123.9295C303.1682,-117.418 321.2149,-110.4192 338,-105 348.8103,-101.5098 360.6467,-98.3061 371.7428,-95.5635"/>
<polygon fill="#191970" stroke="#191970" points="285.8112,-120.8084 277.9419,-127.9024 288.5175,-127.2641 285.8112,-120.8084"/>
</g>
<!-- Node623 -->
<g id="node10" class="node">
<title>Node623</title>
<g id="a_node10"><a xlink:href="../../d6/dfe/mli__solver_8h.html#a06864478676072b4076d798d710cd7aa" target="_top" xlink:title="MLI_Solver_SetupDD">
<polygon fill="#ffffff" stroke="#000000" points="359.5,-38.5 359.5,-57.5 471.5,-57.5 471.5,-38.5 359.5,-38.5"/>
<text text-anchor="middle" x="415.5" y="-45.5" font-family="Helvetica,sans-Serif" font-size="10.00" fill="#000000">MLI_Solver_SetupDD</text>
</a>
</g>
</g>
<!-- Node615&#45;&gt;Node623 -->
<g id="edge10" class="edge">
<title>Node615&#45;&gt;Node623</title>
<path fill="none" stroke="#191970" d="M266.0604,-120.3898C283.9482,-103.3154 310.6062,-80.5778 338,-67 345.8197,-63.1241 354.4843,-60.0052 363.1042,-57.5055"/>
<polygon fill="#191970" stroke="#191970" points="263.1981,-118.2929 258.4878,-127.7831 268.0882,-123.3016 263.1981,-118.2929"/>
</g>
<!-- Node624 -->
<g id="node11" class="node">
<title>Node624</title>
<g id="a_node11"><a xlink:href="../../dd/d39/ml__aztec__utils_8h.html#a0062bc88448c5f17831e5a080546d280" target="_top" xlink:title="MLAZ_Setup_MLandAggregate">
<polygon fill="#ffffff" stroke="#000000" points="339.5,-.5 339.5,-19.5 491.5,-19.5 491.5,-.5 339.5,-.5"/>
<text text-anchor="middle" x="415.5" y="-7.5" font-family="Helvetica,sans-Serif" font-size="10.00" fill="#000000">MLAZ_Setup_MLandAggregate</text>
</a>
</g>
</g>
<!-- Node615&#45;&gt;Node624 -->
<g id="edge11" class="edge">
<title>Node615&#45;&gt;Node624</title>
<path fill="none" stroke="#191970" d="M257.4132,-118.8725C273.2409,-92.6886 302.0153,-51.6026 338,-29 344.2175,-25.0947 351.1823,-21.992 358.3186,-19.5271"/>
<polygon fill="#191970" stroke="#191970" points="254.226,-117.388 252.1783,-127.7831 260.2615,-120.9338 254.226,-117.388"/>
</g>
<!-- Node619 -->
<g id="node6" class="node">
<title>Node619</title>
<g id="a_node6"><a xlink:href="../../d5/d21/ml__simple__max_8c.html#a0ddf1224851353fc92bfbff6f499fa97" target="_top" xlink:title="main">
<polygon fill="#ffffff" stroke="#000000" points="529,-196.5 529,-215.5 567,-215.5 567,-196.5 529,-196.5"/>
<text text-anchor="middle" x="548" y="-203.5" font-family="Helvetica,sans-Serif" font-size="10.00" fill="#000000">main</text>
</a>
</g>
</g>
<!-- Node618&#45;&gt;Node619 -->
<g id="edge6" class="edge">
<title>Node618&#45;&gt;Node619</title>
<path fill="none" stroke="#191970" d="M483.9213,-206C500.4935,-206 516.8843,-206 528.94,-206"/>
<polygon fill="#191970" stroke="#191970" points="483.6165,-202.5001 473.6164,-206 483.6164,-209.5001 483.6165,-202.5001"/>
</g>
</g>
</svg>
