<?xml version="1.0" encoding="UTF-8" standalone="no"?>
<!DOCTYPE svg PUBLIC "-//W3C//DTD SVG 1.1//EN"
 "http://www.w3.org/Graphics/SVG/1.1/DTD/svg11.dtd">
<!-- Generated by graphviz version 2.40.1 (20161225.0304)
 -->
<!-- Title: omc_BaseHashTable_hashTableCurrentSize Pages: 1 -->
<svg width="1054pt" height="962pt"
 viewBox="0.00 0.00 1054.00 962.00" xmlns="http://www.w3.org/2000/svg" xmlns:xlink="http://www.w3.org/1999/xlink">
<g id="graph0" class="graph" transform="scale(1 1) rotate(0) translate(4 958)">
<title>omc_BaseHashTable_hashTableCurrentSize</title>
<polygon fill="#ffffff" stroke="transparent" points="-4,4 -4,-958 1050,-958 1050,4 -4,4"/>
<!-- Node3170 -->
<g id="node1" class="node">
<title>Node3170</title>
<polygon fill="#bfbfbf" stroke="#000000" points="0,-252.5 0,-282.5 161,-282.5 161,-252.5 0,-252.5"/>
<text text-anchor="start" x="8" y="-270.5" font-family="Helvetica,sans-Serif" font-size="10.00" fill="#000000">omc_BaseHashTable_hashTable</text>
<text text-anchor="middle" x="80.5" y="-259.5" font-family="Helvetica,sans-Serif" font-size="10.00" fill="#000000">CurrentSize</text>
</g>
<!-- Node3171 -->
<g id="node2" class="node">
<title>Node3171</title>
<g id="a_node2"><a xlink:href="../../da/db6/_backend_var_transform_8h.html#abc07b05e40e22b9382c27e4a3687fe41" target="_top" xlink:title="omc_BackendVarTransform\l_dumpStatistics">
<polygon fill="#ffffff" stroke="#000000" points="223.5,-519.5 223.5,-549.5 361.5,-549.5 361.5,-519.5 223.5,-519.5"/>
<text text-anchor="start" x="231.5" y="-537.5" font-family="Helvetica,sans-Serif" font-size="10.00" fill="#000000">omc_BackendVarTransform</text>
<text text-anchor="middle" x="292.5" y="-526.5" font-family="Helvetica,sans-Serif" font-size="10.00" fill="#000000">_dumpStatistics</text>
</a>
</g>
</g>
<!-- Node3170&#45;&gt;Node3171 -->
<g id="edge1" class="edge">
<title>Node3170&#45;&gt;Node3171</title>
<path fill="none" stroke="#191970" d="M85.1281,-292.3487C95.6785,-341.7983 126.2827,-452.7291 197,-510.5 204.6788,-516.773 213.7802,-521.4355 223.2654,-524.8952"/>
<polygon fill="#191970" stroke="#191970" points="88.5478,-291.6016 83.1216,-282.5018 81.6888,-292.9993 88.5478,-291.6016"/>
</g>
<!-- Node3172 -->
<g id="node3" class="node">
<title>Node3172</title>
<g id="a_node3"><a xlink:href="../../da/db6/_backend_var_transform_8h.html#a467100d31b9a72bc917c5fe75a7a63da" target="_top" xlink:title="omc_BackendVarTransform\l_replacementCurrentSize">
<polygon fill="#ffffff" stroke="#000000" points="223.5,-470.5 223.5,-500.5 361.5,-500.5 361.5,-470.5 223.5,-470.5"/>
<text text-anchor="start" x="231.5" y="-488.5" font-family="Helvetica,sans-Serif" font-size="10.00" fill="#000000">omc_BackendVarTransform</text>
<text text-anchor="middle" x="292.5" y="-477.5" font-family="Helvetica,sans-Serif" font-size="10.00" fill="#000000">_replacementCurrentSize</text>
</a>
</g>
</g>
<!-- Node3170&#45;&gt;Node3172 -->
<g id="edge2" class="edge">
<title>Node3170&#45;&gt;Node3172</title>
<path fill="none" stroke="#191970" d="M88.3272,-292.2442C102.8025,-333.8575 137.8,-417.5972 197,-461.5 204.8269,-467.3045 213.9029,-471.714 223.2837,-475.0619"/>
<polygon fill="#191970" stroke="#191970" points="91.5954,-290.9821 85.087,-282.622 84.9615,-293.2161 91.5954,-290.9821"/>
</g>
<!-- Node3174 -->
<g id="node5" class="node">
<title>Node3174</title>
<g id="a_node5"><a xlink:href="../../da/db6/_backend_var_transform_8h.html#a287418d1d338c9394564c4f46af39aa8" target="_top" xlink:title="omc_BackendVarTransform\l_isReplacementEmpty">
<polygon fill="#ffffff" stroke="#000000" points="223.5,-421.5 223.5,-451.5 361.5,-451.5 361.5,-421.5 223.5,-421.5"/>
<text text-anchor="start" x="231.5" y="-439.5" font-family="Helvetica,sans-Serif" font-size="10.00" fill="#000000">omc_BackendVarTransform</text>
<text text-anchor="middle" x="292.5" y="-428.5" font-family="Helvetica,sans-Serif" font-size="10.00" fill="#000000">_isReplacementEmpty</text>
</a>
</g>
</g>
<!-- Node3170&#45;&gt;Node3174 -->
<g id="edge4" class="edge">
<title>Node3170&#45;&gt;Node3174</title>
<path fill="none" stroke="#191970" d="M93.3232,-291.8273C111.7911,-324.4239 148.9986,-381.727 197,-412.5 205.0594,-417.6668 214.1627,-421.7216 223.4675,-424.9036"/>
<polygon fill="#191970" stroke="#191970" points="96.3132,-290.0016 88.4097,-282.9458 90.188,-293.3903 96.3132,-290.0016"/>
</g>
<!-- Node3193 -->
<g id="node24" class="node">
<title>Node3193</title>
<g id="a_node24"><a xlink:href="../../da/db6/_backend_var_transform_8h.html#a85fe6abc7cd6ad365182e6b334dd3db9" target="_top" xlink:title="omc_BackendVarTransform\l_getReplacementVarArraySize">
<polygon fill="#ffffff" stroke="#000000" points="217,-372.5 217,-402.5 368,-402.5 368,-372.5 217,-372.5"/>
<text text-anchor="start" x="225" y="-390.5" font-family="Helvetica,sans-Serif" font-size="10.00" fill="#000000">omc_BackendVarTransform</text>
<text text-anchor="middle" x="292.5" y="-379.5" font-family="Helvetica,sans-Serif" font-size="10.00" fill="#000000">_getReplacementVarArraySize</text>
</a>
</g>
</g>
<!-- Node3170&#45;&gt;Node3193 -->
<g id="edge23" class="edge">
<title>Node3170&#45;&gt;Node3193</title>
<path fill="none" stroke="#191970" d="M101.5213,-289.8495C123.3656,-311.7714 159.5425,-344.5803 197,-363.5 203.7904,-366.9298 211.1057,-369.8924 218.5583,-372.4466"/>
<polygon fill="#191970" stroke="#191970" points="103.9107,-287.2871 94.4139,-282.5902 98.9089,-292.1842 103.9107,-287.2871"/>
</g>
<!-- Node3195 -->
<g id="node26" class="node">
<title>Node3195</title>
<g id="a_node26"><a xlink:href="../../d1/dae/_base_hash_table_8h.html#ac18bc87e09a49df74a50d820c7458e92" target="_top" xlink:title="boxptr_BaseHashTable\l_hashTableCurrentSize">
<polygon fill="#ffffff" stroke="#000000" points="233,-323.5 233,-353.5 352,-353.5 352,-323.5 233,-323.5"/>
<text text-anchor="start" x="241" y="-341.5" font-family="Helvetica,sans-Serif" font-size="10.00" fill="#000000">boxptr_BaseHashTable</text>
<text text-anchor="middle" x="292.5" y="-330.5" font-family="Helvetica,sans-Serif" font-size="10.00" fill="#000000">_hashTableCurrentSize</text>
</a>
</g>
</g>
<!-- Node3170&#45;&gt;Node3195 -->
<g id="edge25" class="edge">
<title>Node3170&#45;&gt;Node3195</title>
<path fill="none" stroke="#191970" d="M123.4948,-286.4909C145.2601,-295.6811 172.2518,-306.4403 197,-314.5 208.4599,-318.2321 220.8506,-321.7288 232.7903,-324.8367"/>
<polygon fill="#191970" stroke="#191970" points="124.7713,-283.2303 114.1997,-282.5278 122.0258,-289.6695 124.7713,-283.2303"/>
</g>
<!-- Node3196 -->
<g id="node27" class="node">
<title>Node3196</title>
<g id="a_node27"><a xlink:href="../../d0/d29/_d_a_e_util_8c.html#a32171ce032345b2e76e8a0a358c8b736" target="_top" xlink:title="omc_DAEUtil_evaluateAnnotation2\l__loop">
<polygon fill="#ffffff" stroke="#000000" points="207.5,-274.5 207.5,-304.5 377.5,-304.5 377.5,-274.5 207.5,-274.5"/>
<text text-anchor="start" x="215.5" y="-292.5" font-family="Helvetica,sans-Serif" font-size="10.00" fill="#000000">omc_DAEUtil_evaluateAnnotation2</text>
<text text-anchor="middle" x="292.5" y="-281.5" font-family="Helvetica,sans-Serif" font-size="10.00" fill="#000000">__loop</text>
</a>
</g>
</g>
<!-- Node3170&#45;&gt;Node3196 -->
<g id="edge26" class="edge">
<title>Node3170&#45;&gt;Node3196</title>
<path fill="none" stroke="#191970" d="M171.2491,-276.9174C183.2403,-278.1617 195.4974,-279.4337 207.3893,-280.6678"/>
<polygon fill="#191970" stroke="#191970" points="171.5608,-273.431 161.2529,-275.88 170.8382,-280.3936 171.5608,-273.431"/>
</g>
<!-- Node3200 -->
<g id="node31" class="node">
<title>Node3200</title>
<g id="a_node31"><a xlink:href="../../dd/d15/_d_a_e_util_8h.html#abf9725e4060db3a7b4da74291f0ed747" target="_top" xlink:title="omc_DAEUtil_evaluateAnnotation">
<polygon fill="#ffffff" stroke="#000000" points="447.5,-236 447.5,-255 612.5,-255 612.5,-236 447.5,-236"/>
<text text-anchor="middle" x="530" y="-243" font-family="Helvetica,sans-Serif" font-size="10.00" fill="#000000">omc_DAEUtil_evaluateAnnotation</text>
</a>
</g>
</g>
<!-- Node3170&#45;&gt;Node3200 -->
<g id="edge31" class="edge">
<title>Node3170&#45;&gt;Node3200</title>
<path fill="none" stroke="#191970" d="M171.2801,-263.0569C252.0578,-259.1034 369.1932,-253.3704 447.3912,-249.5431"/>
<polygon fill="#191970" stroke="#191970" points="170.9379,-259.5694 161.121,-263.5541 171.2802,-266.561 170.9379,-259.5694"/>
</g>
<!-- Node3201 -->
<g id="node32" class="node">
<title>Node3201</title>
<g id="a_node32"><a xlink:href="../../de/d5d/_index_reduction_8h.html#ab6f6efcdefb56e6d02a30117f35c8dfc" target="_top" xlink:title="omc_IndexReduction\l_dynamicStateSelection">
<polygon fill="#ffffff" stroke="#000000" points="231.5,-186.5 231.5,-216.5 353.5,-216.5 353.5,-186.5 231.5,-186.5"/>
<text text-anchor="start" x="239.5" y="-204.5" font-family="Helvetica,sans-Serif" font-size="10.00" fill="#000000">omc_IndexReduction</text>
<text text-anchor="middle" x="292.5" y="-193.5" font-family="Helvetica,sans-Serif" font-size="10.00" fill="#000000">_dynamicStateSelection</text>
</a>
</g>
</g>
<!-- Node3170&#45;&gt;Node3201 -->
<g id="edge32" class="edge">
<title>Node3170&#45;&gt;Node3201</title>
<path fill="none" stroke="#191970" d="M138.4258,-249.4665C171.5301,-239.1604 212.5713,-226.3835 243.9699,-216.6084"/>
<polygon fill="#191970" stroke="#191970" points="137.379,-246.1266 128.8714,-252.441 139.4598,-252.8102 137.379,-246.1266"/>
</g>
<!-- Node3202 -->
<g id="node33" class="node">
<title>Node3202</title>
<g id="a_node33"><a xlink:href="../../d5/d67/_inst_state_machine_util_8c.html#afaf295ffa9300b42960bc261fb7c7225" target="_top" xlink:title="omc_InstStateMachineUtil\l_transitiveClosure">
<polygon fill="#ffffff" stroke="#000000" points="226.5,-137.5 226.5,-167.5 358.5,-167.5 358.5,-137.5 226.5,-137.5"/>
<text text-anchor="start" x="234.5" y="-155.5" font-family="Helvetica,sans-Serif" font-size="10.00" fill="#000000">omc_InstStateMachineUtil</text>
<text text-anchor="middle" x="292.5" y="-144.5" font-family="Helvetica,sans-Serif" font-size="10.00" fill="#000000">_transitiveClosure</text>
</a>
</g>
</g>
<!-- Node3170&#45;&gt;Node3202 -->
<g id="edge33" class="edge">
<title>Node3170&#45;&gt;Node3202</title>
<path fill="none" stroke="#191970" d="M103.2428,-245.3759C125.4446,-224.947 161.047,-195.1743 197,-177.5 206.1514,-173.0012 216.2078,-169.2432 226.254,-166.1245"/>
<polygon fill="#191970" stroke="#191970" points="100.6041,-243.0517 95.6936,-252.4399 105.3869,-248.163 100.6041,-243.0517"/>
</g>
<!-- Node3204 -->
<g id="node35" class="node">
<title>Node3204</title>
<g id="a_node35"><a xlink:href="../../de/d47/_inst_state_machine_util_8h.html#a5dfbfcd43d650a377ffd4745e23ea57c" target="_top" xlink:title="omc_InstStateMachineUtil\l_createSMNodeToFlatSMGroupTable">
<polygon fill="#ffffff" stroke="#000000" points="440,-93.5 440,-123.5 620,-123.5 620,-93.5 440,-93.5"/>
<text text-anchor="start" x="448" y="-111.5" font-family="Helvetica,sans-Serif" font-size="10.00" fill="#000000">omc_InstStateMachineUtil</text>
<text text-anchor="middle" x="530" y="-100.5" font-family="Helvetica,sans-Serif" font-size="10.00" fill="#000000">_createSMNodeToFlatSMGroupTable</text>
</a>
</g>
</g>
<!-- Node3170&#45;&gt;Node3204 -->
<g id="edge39" class="edge">
<title>Node3170&#45;&gt;Node3204</title>
<path fill="none" stroke="#191970" d="M92.5706,-243.3872C110.3893,-210.7307 147.0908,-153.6398 197,-128.5 272.3896,-90.5255 369.8749,-89.3087 439.8592,-95.3037"/>
<polygon fill="#191970" stroke="#191970" points="89.4427,-241.8149 87.8512,-252.2895 95.6274,-245.0936 89.4427,-241.8149"/>
</g>
<!-- Node3205 -->
<g id="node36" class="node">
<title>Node3205</title>
<g id="a_node36"><a xlink:href="../../d5/d67/_inst_state_machine_util_8c.html#a88ebe2084e1a4c268b45258bf1fc1563" target="_top" xlink:title="omc_InstStateMachineUtil\l_extractFlatSMGroup">
<polygon fill="#ffffff" stroke="#000000" points="226.5,-49.5 226.5,-79.5 358.5,-79.5 358.5,-49.5 226.5,-49.5"/>
<text text-anchor="start" x="234.5" y="-67.5" font-family="Helvetica,sans-Serif" font-size="10.00" fill="#000000">omc_InstStateMachineUtil</text>
<text text-anchor="middle" x="292.5" y="-56.5" font-family="Helvetica,sans-Serif" font-size="10.00" fill="#000000">_extractFlatSMGroup</text>
</a>
</g>
</g>
<!-- Node3170&#45;&gt;Node3205 -->
<g id="edge36" class="edge">
<title>Node3170&#45;&gt;Node3205</title>
<path fill="none" stroke="#191970" d="M90.5265,-243.0733C107.1304,-205.6153 143.8604,-134.1687 197,-94.5 205.7736,-87.9505 216.0126,-82.8078 226.4644,-78.776"/>
<polygon fill="#191970" stroke="#191970" points="87.3132,-241.686 86.5601,-252.254 93.7392,-244.4623 87.3132,-241.686"/>
</g>
<!-- Node3207 -->
<g id="node38" class="node">
<title>Node3207</title>
<g id="a_node38"><a xlink:href="../../dd/dd8/_var_transform_8h.html#a1558b39179000ee9530b42deb805f761" target="_top" xlink:title="omc_VarTransform_applyReplacements\lDAEElts">
<polygon fill="#ffffff" stroke="#000000" points="197,-.5 197,-30.5 388,-30.5 388,-.5 197,-.5"/>
<text text-anchor="start" x="205" y="-18.5" font-family="Helvetica,sans-Serif" font-size="10.00" fill="#000000">omc_VarTransform_applyReplacements</text>
<text text-anchor="middle" x="292.5" y="-7.5" font-family="Helvetica,sans-Serif" font-size="10.00" fill="#000000">DAEElts</text>
</a>
</g>
</g>
<!-- Node3170&#45;&gt;Node3207 -->
<g id="edge40" class="edge">
<title>Node3170&#45;&gt;Node3207</title>
<path fill="none" stroke="#191970" d="M86.0896,-242.215C97.9131,-194.8618 130.0507,-92.7933 197,-39.5 201.2801,-36.093 205.9823,-33.1627 210.9343,-30.6432"/>
<polygon fill="#191970" stroke="#191970" points="82.6151,-241.6956 83.6896,-252.2358 89.4226,-243.3261 82.6151,-241.6956"/>
</g>
<!-- Node3173 -->
<g id="node4" class="node">
<title>Node3173</title>
<g id="a_node4"><a xlink:href="../../da/db6/_backend_var_transform_8h.html#a8e0d3d3e0f1cf6318c2979f1fca48ffe" target="_top" xlink:title="boxptr_BackendVarTransform\l_replacementCurrentSize">
<polygon fill="#ffffff" stroke="#000000" points="457,-715.5 457,-745.5 603,-745.5 603,-715.5 457,-715.5"/>
<text text-anchor="start" x="465" y="-733.5" font-family="Helvetica,sans-Serif" font-size="10.00" fill="#000000">boxptr_BackendVarTransform</text>
<text text-anchor="middle" x="530" y="-722.5" font-family="Helvetica,sans-Serif" font-size="10.00" fill="#000000">_replacementCurrentSize</text>
</a>
</g>
</g>
<!-- Node3172&#45;&gt;Node3173 -->
<g id="edge3" class="edge">
<title>Node3172&#45;&gt;Node3173</title>
<path fill="none" stroke="#191970" d="M371.3274,-497.8879C377.525,-501.2115 383.2213,-505.3519 388,-510.5 448.2552,-575.4127 362.6701,-642.6018 424,-706.5 432.8847,-715.7568 444.5284,-721.7892 456.8385,-725.6572"/>
<polygon fill="#191970" stroke="#191970" points="372.4856,-494.5686 361.9369,-493.5809 369.5672,-500.9313 372.4856,-494.5686"/>
</g>
<!-- Node3175 -->
<g id="node6" class="node">
<title>Node3175</title>
<g id="a_node6"><a xlink:href="../../da/db6/_backend_var_transform_8h.html#aaf7686a155aa15256abb759f190e9aa8" target="_top" xlink:title="omc_BackendVarTransform\l_replaceEquations">
<polygon fill="#ffffff" stroke="#000000" points="461,-666.5 461,-696.5 599,-696.5 599,-666.5 461,-666.5"/>
<text text-anchor="start" x="469" y="-684.5" font-family="Helvetica,sans-Serif" font-size="10.00" fill="#000000">omc_BackendVarTransform</text>
<text text-anchor="middle" x="530" y="-673.5" font-family="Helvetica,sans-Serif" font-size="10.00" fill="#000000">_replaceEquations</text>
</a>
</g>
</g>
<!-- Node3174&#45;&gt;Node3175 -->
<g id="edge5" class="edge">
<title>Node3174&#45;&gt;Node3175</title>
<path fill="none" stroke="#191970" d="M371.122,-451.8292C377.0941,-454.5442 382.8079,-457.7395 388,-461.5 397.8486,-468.6331 490.46,-617.5747 520.583,-666.2541"/>
<polygon fill="#191970" stroke="#191970" points="372.1444,-448.4668 361.5624,-447.9459 369.5099,-454.9522 372.1444,-448.4668"/>
</g>
<!-- Node3187 -->
<g id="node18" class="node">
<title>Node3187</title>
<g id="a_node18"><a xlink:href="../../da/db6/_backend_var_transform_8h.html#a652827ab17efaa8f54ea888b75dc5437" target="_top" xlink:title="omc_BackendVarTransform\l_replaceEquationsArr">
<polygon fill="#ffffff" stroke="#000000" points="461,-470.5 461,-500.5 599,-500.5 599,-470.5 461,-470.5"/>
<text text-anchor="start" x="469" y="-488.5" font-family="Helvetica,sans-Serif" font-size="10.00" fill="#000000">omc_BackendVarTransform</text>
<text text-anchor="middle" x="530" y="-477.5" font-family="Helvetica,sans-Serif" font-size="10.00" fill="#000000">_replaceEquationsArr</text>
</a>
</g>
</g>
<!-- Node3174&#45;&gt;Node3187 -->
<g id="edge17" class="edge">
<title>Node3174&#45;&gt;Node3187</title>
<path fill="none" stroke="#191970" d="M371.5679,-452.813C400.4464,-458.771 432.8626,-465.459 460.814,-471.2258"/>
<polygon fill="#191970" stroke="#191970" points="372.0148,-449.3315 361.5139,-450.7387 370.6004,-456.1871 372.0148,-449.3315"/>
</g>
<!-- Node3192 -->
<g id="node23" class="node">
<title>Node3192</title>
<g id="a_node23"><a xlink:href="../../da/db6/_backend_var_transform_8h.html#a8f83300c6ac873c3b6d9d39253b1a24f" target="_top" xlink:title="boxptr_BackendVarTransform\l_isReplacementEmpty">
<polygon fill="#ffffff" stroke="#000000" points="457,-421.5 457,-451.5 603,-451.5 603,-421.5 457,-421.5"/>
<text text-anchor="start" x="465" y="-439.5" font-family="Helvetica,sans-Serif" font-size="10.00" fill="#000000">boxptr_BackendVarTransform</text>
<text text-anchor="middle" x="530" y="-428.5" font-family="Helvetica,sans-Serif" font-size="10.00" fill="#000000">_isReplacementEmpty</text>
</a>
</g>
</g>
<!-- Node3174&#45;&gt;Node3192 -->
<g id="edge22" class="edge">
<title>Node3174&#45;&gt;Node3192</title>
<path fill="none" stroke="#191970" d="M371.8434,-436.5C399.2354,-436.5 429.7825,-436.5 456.6713,-436.5"/>
<polygon fill="#191970" stroke="#191970" points="371.5139,-433.0001 361.5139,-436.5 371.5138,-440.0001 371.5139,-433.0001"/>
</g>
<!-- Node3176 -->
<g id="node7" class="node">
<title>Node3176</title>
<g id="a_node7"><a xlink:href="../../d7/d3b/_backend_d_a_e_create_8c.html#a2daeb75db138731847c94038cecda0a8" target="_top" xlink:title="omc_BackendDAECreate\l_handleAliasEquations1">
<polygon fill="#ffffff" stroke="#000000" points="697,-923.5 697,-953.5 826,-953.5 826,-923.5 697,-923.5"/>
<text text-anchor="start" x="705" y="-941.5" font-family="Helvetica,sans-Serif" font-size="10.00" fill="#000000">omc_BackendDAECreate</text>
<text text-anchor="middle" x="761.5" y="-930.5" font-family="Helvetica,sans-Serif" font-size="10.00" fill="#000000">_handleAliasEquations1</text>
</a>
</g>
</g>
<!-- Node3175&#45;&gt;Node3176 -->
<g id="edge6" class="edge">
<title>Node3175&#45;&gt;Node3176</title>
<path fill="none" stroke="#191970" d="M608.7553,-688.9427C618.9948,-692.9039 628.5079,-698.5424 636,-706.5 700.3121,-774.8076 608.7328,-845.2235 672,-914.5 678.726,-921.8649 687.4438,-927.0701 696.7939,-930.7298"/>
<polygon fill="#191970" stroke="#191970" points="609.7782,-685.5945 599.1846,-685.7582 607.5681,-692.2365 609.7782,-685.5945"/>
</g>
<!-- Node3178 -->
<g id="node9" class="node">
<title>Node3178</title>
<g id="a_node9"><a xlink:href="../../de/d7d/_backend_d_a_e_optimize_8c.html#a4a128b081014cfb56b1fa40196cc4f2b" target="_top" xlink:title="omc_BackendDAEOptimize\l_removeProtectedParameterswork">
<polygon fill="#ffffff" stroke="#000000" points="678,-874.5 678,-904.5 845,-904.5 845,-874.5 678,-874.5"/>
<text text-anchor="start" x="686" y="-892.5" font-family="Helvetica,sans-Serif" font-size="10.00" fill="#000000">omc_BackendDAEOptimize</text>
<text text-anchor="middle" x="761.5" y="-881.5" font-family="Helvetica,sans-Serif" font-size="10.00" fill="#000000">_removeProtectedParameterswork</text>
</a>
</g>
</g>
<!-- Node3175&#45;&gt;Node3178 -->
<g id="edge8" class="edge">
<title>Node3175&#45;&gt;Node3178</title>
<path fill="none" stroke="#191970" d="M608.5972,-689.3708C618.8101,-693.2787 628.3573,-698.7885 636,-706.5 687.0037,-757.9626 621.7837,-813.2687 672,-865.5 675.2333,-868.8631 678.8826,-871.7722 682.8122,-874.287"/>
<polygon fill="#191970" stroke="#191970" points="609.6598,-686.0358 599.0665,-686.215 607.4594,-692.681 609.6598,-686.0358"/>
</g>
<!-- Node3179 -->
<g id="node10" class="node">
<title>Node3179</title>
<g id="a_node10"><a xlink:href="../../de/d7d/_backend_d_a_e_optimize_8c.html#aa4b2471ed691bf0f7353616c40f36762" target="_top" xlink:title="omc_BackendDAEOptimize\l_removeParameterswork">
<polygon fill="#ffffff" stroke="#000000" points="692,-825.5 692,-855.5 831,-855.5 831,-825.5 692,-825.5"/>
<text text-anchor="start" x="700" y="-843.5" font-family="Helvetica,sans-Serif" font-size="10.00" fill="#000000">omc_BackendDAEOptimize</text>
<text text-anchor="middle" x="761.5" y="-832.5" font-family="Helvetica,sans-Serif" font-size="10.00" fill="#000000">_removeParameterswork</text>
</a>
</g>
</g>
<!-- Node3175&#45;&gt;Node3179 -->
<g id="edge9" class="edge">
<title>Node3175&#45;&gt;Node3179</title>
<path fill="none" stroke="#191970" d="M608.8866,-690.379C618.8461,-694.167 628.2447,-699.375 636,-706.5 673.8807,-741.3019 634.6522,-781.1268 672,-816.5 677.7232,-821.9206 684.5344,-826.1453 691.8074,-829.4335"/>
<polygon fill="#191970" stroke="#191970" points="609.7946,-686.9927 599.2012,-687.1662 607.5906,-693.6367 609.7946,-686.9927"/>
</g>
<!-- Node3180 -->
<g id="node11" class="node">
<title>Node3180</title>
<g id="a_node11"><a xlink:href="../../da/db6/_backend_var_transform_8h.html#a7731f71f2736f09fc1ed927f9a526a74" target="_top" xlink:title="boxptr_BackendVarTransform\l_replaceEquations">
<polygon fill="#ffffff" stroke="#000000" points="688.5,-776.5 688.5,-806.5 834.5,-806.5 834.5,-776.5 688.5,-776.5"/>
<text text-anchor="start" x="696.5" y="-794.5" font-family="Helvetica,sans-Serif" font-size="10.00" fill="#000000">boxptr_BackendVarTransform</text>
<text text-anchor="middle" x="761.5" y="-783.5" font-family="Helvetica,sans-Serif" font-size="10.00" fill="#000000">_replaceEquations</text>
</a>
</g>
</g>
<!-- Node3175&#45;&gt;Node3180 -->
<g id="edge10" class="edge">
<title>Node3175&#45;&gt;Node3180</title>
<path fill="none" stroke="#191970" d="M608.8511,-692.5277C618.5365,-696.0097 627.8704,-700.5602 636,-706.5 661.1101,-724.8465 647.2691,-747.6455 672,-766.5 677.1319,-770.4125 682.8451,-773.7127 688.8327,-776.4964"/>
<polygon fill="#191970" stroke="#191970" points="609.6714,-689.1151 599.0801,-689.3898 607.531,-695.7799 609.6714,-689.1151"/>
</g>
<!-- Node3181 -->
<g id="node12" class="node">
<title>Node3181</title>
<g id="a_node12"><a xlink:href="../../d1/d5c/_evaluate_parameter_8c.html#ab6454bbeb85411f66fb7ed400ab3d924" target="_top" xlink:title="omc_EvaluateParameter\l_replaceEvaluatedParameters\lSystemEqns">
<polygon fill="#ffffff" stroke="#000000" points="688,-716 688,-757 835,-757 835,-716 688,-716"/>
<text text-anchor="start" x="696" y="-745" font-family="Helvetica,sans-Serif" font-size="10.00" fill="#000000">omc_EvaluateParameter</text>
<text text-anchor="start" x="696" y="-734" font-family="Helvetica,sans-Serif" font-size="10.00" fill="#000000">_replaceEvaluatedParameters</text>
<text text-anchor="middle" x="761.5" y="-723" font-family="Helvetica,sans-Serif" font-size="10.00" fill="#000000">SystemEqns</text>
</a>
</g>
</g>
<!-- Node3175&#45;&gt;Node3181 -->
<g id="edge11" class="edge">
<title>Node3175&#45;&gt;Node3181</title>
<path fill="none" stroke="#191970" d="M603.7632,-698.8667C614.5763,-701.4213 625.5774,-704.0252 636,-706.5 652.783,-710.485 670.8238,-714.7869 687.8475,-718.8545"/>
<polygon fill="#191970" stroke="#191970" points="604.4444,-695.4314 593.9077,-696.5396 602.8357,-702.244 604.4444,-695.4314"/>
</g>
<!-- Node3182 -->
<g id="node13" class="node">
<title>Node3182</title>
<g id="a_node13"><a xlink:href="../../d1/d5c/_evaluate_parameter_8c.html#a87d6036809dcb47c839a7d1e3509ec35" target="_top" xlink:title="omc_EvaluateParameter\l_replaceEvaluatedParametersEqns">
<polygon fill="#ffffff" stroke="#000000" points="676.5,-666.5 676.5,-696.5 846.5,-696.5 846.5,-666.5 676.5,-666.5"/>
<text text-anchor="start" x="684.5" y="-684.5" font-family="Helvetica,sans-Serif" font-size="10.00" fill="#000000">omc_EvaluateParameter</text>
<text text-anchor="middle" x="761.5" y="-673.5" font-family="Helvetica,sans-Serif" font-size="10.00" fill="#000000">_replaceEvaluatedParametersEqns</text>
</a>
</g>
</g>
<!-- Node3175&#45;&gt;Node3182 -->
<g id="edge12" class="edge">
<title>Node3175&#45;&gt;Node3182</title>
<path fill="none" stroke="#191970" d="M609.2596,-681.5C630.879,-681.5 654.3904,-681.5 676.324,-681.5"/>
<polygon fill="#191970" stroke="#191970" points="609.1441,-678.0001 599.1441,-681.5 609.144,-685.0001 609.1441,-678.0001"/>
</g>
<!-- Node3183 -->
<g id="node14" class="node">
<title>Node3183</title>
<g id="a_node14"><a xlink:href="../../d4/dd2/_remove_simple_equations_8c.html#a91ebe409e2c028ee0aa3e794b3d99f5d" target="_top" xlink:title="omc_RemoveSimpleEquations\l_removeAliasVarsStateSets">
<polygon fill="#ffffff" stroke="#000000" points="686,-617.5 686,-647.5 837,-647.5 837,-617.5 686,-617.5"/>
<text text-anchor="start" x="694" y="-635.5" font-family="Helvetica,sans-Serif" font-size="10.00" fill="#000000">omc_RemoveSimpleEquations</text>
<text text-anchor="middle" x="761.5" y="-624.5" font-family="Helvetica,sans-Serif" font-size="10.00" fill="#000000">_removeAliasVarsStateSets</text>
</a>
</g>
</g>
<!-- Node3175&#45;&gt;Node3183 -->
<g id="edge13" class="edge">
<title>Node3175&#45;&gt;Node3183</title>
<path fill="none" stroke="#191970" d="M609.0887,-664.7598C635.4314,-659.1841 664.599,-653.0104 690.3064,-647.5691"/>
<polygon fill="#191970" stroke="#191970" points="608.2025,-661.3698 599.1441,-666.8648 609.6521,-668.2181 608.2025,-661.3698"/>
</g>
<!-- Node3185 -->
<g id="node16" class="node">
<title>Node3185</title>
<g id="a_node16"><a xlink:href="../../d4/dd2/_remove_simple_equations_8c.html#a66b4dd7ba0f4da07aed465394ad4f36f" target="_top" xlink:title="omc_RemoveSimpleEquations\l_allCausalFinder">
<polygon fill="#ffffff" stroke="#000000" points="686,-568.5 686,-598.5 837,-598.5 837,-568.5 686,-568.5"/>
<text text-anchor="start" x="694" y="-586.5" font-family="Helvetica,sans-Serif" font-size="10.00" fill="#000000">omc_RemoveSimpleEquations</text>
<text text-anchor="middle" x="761.5" y="-575.5" font-family="Helvetica,sans-Serif" font-size="10.00" fill="#000000">_allCausalFinder</text>
</a>
</g>
</g>
<!-- Node3175&#45;&gt;Node3185 -->
<g id="edge15" class="edge">
<title>Node3175&#45;&gt;Node3185</title>
<path fill="none" stroke="#191970" d="M564.4773,-661.2675C592.6805,-645.3372 633.9745,-623.4073 672,-608.5 681.3124,-604.8492 691.3637,-601.5004 701.2498,-598.5215"/>
<polygon fill="#191970" stroke="#191970" points="562.3918,-658.4276 555.4381,-666.4212 565.8589,-664.5086 562.3918,-658.4276"/>
</g>
<!-- Node3186 -->
<g id="node17" class="node">
<title>Node3186</title>
<g id="a_node17"><a xlink:href="../../d6/dd2/_uncertainties_8c.html#aa9d500d142cae5981f2d1f5aee1696e0" target="_top" xlink:title="omc_Uncertainties_remove\lSimpleEquationsUC">
<polygon fill="#ffffff" stroke="#000000" points="693.5,-519.5 693.5,-549.5 829.5,-549.5 829.5,-519.5 693.5,-519.5"/>
<text text-anchor="start" x="701.5" y="-537.5" font-family="Helvetica,sans-Serif" font-size="10.00" fill="#000000">omc_Uncertainties_remove</text>
<text text-anchor="middle" x="761.5" y="-526.5" font-family="Helvetica,sans-Serif" font-size="10.00" fill="#000000">SimpleEquationsUC</text>
</a>
</g>
</g>
<!-- Node3175&#45;&gt;Node3186 -->
<g id="edge16" class="edge">
<title>Node3175&#45;&gt;Node3186</title>
<path fill="none" stroke="#191970" d="M550.3098,-658.803C576.0363,-631.3976 622.9585,-585.7266 672,-559.5 679.1132,-555.696 686.862,-552.4242 694.7267,-549.6219"/>
<polygon fill="#191970" stroke="#191970" points="547.551,-656.6312 543.3292,-666.3486 552.6894,-661.3849 547.551,-656.6312"/>
</g>
<!-- Node3177 -->
<g id="node8" class="node">
<title>Node3177</title>
<g id="a_node8"><a xlink:href="../../d7/d3b/_backend_d_a_e_create_8c.html#a4b03d4bd59d51f7fa5f7da2eca287521" target="_top" xlink:title="omc_BackendDAECreate\l_handleAliasEquations">
<polygon fill="#ffffff" stroke="#000000" points="902,-923.5 902,-953.5 1031,-953.5 1031,-923.5 902,-923.5"/>
<text text-anchor="start" x="910" y="-941.5" font-family="Helvetica,sans-Serif" font-size="10.00" fill="#000000">omc_BackendDAECreate</text>
<text text-anchor="middle" x="966.5" y="-930.5" font-family="Helvetica,sans-Serif" font-size="10.00" fill="#000000">_handleAliasEquations</text>
</a>
</g>
</g>
<!-- Node3176&#45;&gt;Node3177 -->
<g id="edge7" class="edge">
<title>Node3176&#45;&gt;Node3177</title>
<path fill="none" stroke="#191970" d="M836.1651,-938.5C857.704,-938.5 881.0172,-938.5 901.8906,-938.5"/>
<polygon fill="#191970" stroke="#191970" points="836.0819,-935.0001 826.0819,-938.5 836.0819,-942.0001 836.0819,-935.0001"/>
</g>
<!-- Node3184 -->
<g id="node15" class="node">
<title>Node3184</title>
<g id="a_node15"><a xlink:href="../../d4/dd2/_remove_simple_equations_8c.html#af0a92cab0eb163de5fec4bd58c672172" target="_top" xlink:title="boxptr_RemoveSimpleEquations\l_removeAliasVarsStateSets">
<polygon fill="#ffffff" stroke="#000000" points="887,-617.5 887,-647.5 1046,-647.5 1046,-617.5 887,-617.5"/>
<text text-anchor="start" x="895" y="-635.5" font-family="Helvetica,sans-Serif" font-size="10.00" fill="#000000">boxptr_RemoveSimpleEquations</text>
<text text-anchor="middle" x="966.5" y="-624.5" font-family="Helvetica,sans-Serif" font-size="10.00" fill="#000000">_removeAliasVarsStateSets</text>
</a>
</g>
</g>
<!-- Node3183&#45;&gt;Node3184 -->
<g id="edge14" class="edge">
<title>Node3183&#45;&gt;Node3184</title>
<path fill="none" stroke="#191970" d="M847.6122,-632.5C860.6484,-632.5 874.0476,-632.5 886.9368,-632.5"/>
<polygon fill="#191970" stroke="#191970" points="847.252,-629.0001 837.252,-632.5 847.252,-636.0001 847.252,-629.0001"/>
</g>
<!-- Node3188 -->
<g id="node19" class="node">
<title>Node3188</title>
<g id="a_node19"><a xlink:href="../../da/db6/_backend_var_transform_8h.html#afd81abcd5e7bf85dd6cec77f39305ba2" target="_top" xlink:title="boxptr_BackendVarTransform\l_replaceEquationsArr">
<polygon fill="#ffffff" stroke="#000000" points="688.5,-470.5 688.5,-500.5 834.5,-500.5 834.5,-470.5 688.5,-470.5"/>
<text text-anchor="start" x="696.5" y="-488.5" font-family="Helvetica,sans-Serif" font-size="10.00" fill="#000000">boxptr_BackendVarTransform</text>
<text text-anchor="middle" x="761.5" y="-477.5" font-family="Helvetica,sans-Serif" font-size="10.00" fill="#000000">_replaceEquationsArr</text>
</a>
</g>
</g>
<!-- Node3187&#45;&gt;Node3188 -->
<g id="edge18" class="edge">
<title>Node3187&#45;&gt;Node3188</title>
<path fill="none" stroke="#191970" d="M609.1951,-485.5C634.822,-485.5 663.1129,-485.5 688.2861,-485.5"/>
<polygon fill="#191970" stroke="#191970" points="609.1441,-482.0001 599.1441,-485.5 609.144,-489.0001 609.1441,-482.0001"/>
</g>
<!-- Node3189 -->
<g id="node20" class="node">
<title>Node3189</title>
<g id="a_node20"><a xlink:href="../../da/db6/_backend_var_transform_8h.html#aafdec7ced0a429a4b7dd365a34998417" target="_top" xlink:title="omc_BackendVarTransform\l_performReplacementsEqSystem">
<polygon fill="#ffffff" stroke="#000000" points="679.5,-421.5 679.5,-451.5 843.5,-451.5 843.5,-421.5 679.5,-421.5"/>
<text text-anchor="start" x="687.5" y="-439.5" font-family="Helvetica,sans-Serif" font-size="10.00" fill="#000000">omc_BackendVarTransform</text>
<text text-anchor="middle" x="761.5" y="-428.5" font-family="Helvetica,sans-Serif" font-size="10.00" fill="#000000">_performReplacementsEqSystem</text>
</a>
</g>
</g>
<!-- Node3187&#45;&gt;Node3189 -->
<g id="edge19" class="edge">
<title>Node3187&#45;&gt;Node3189</title>
<path fill="none" stroke="#191970" d="M609.0887,-468.7598C635.4314,-463.1841 664.599,-457.0104 690.3064,-451.5691"/>
<polygon fill="#191970" stroke="#191970" points="608.2025,-465.3698 599.1441,-470.8648 609.6521,-472.2181 608.2025,-465.3698"/>
</g>
<!-- Node3190 -->
<g id="node21" class="node">
<title>Node3190</title>
<g id="a_node21"><a xlink:href="../../d2/dea/_uncertainties_8h.html#ac4e56ac3ae56ed3818167c265e4b0c4c" target="_top" xlink:title="omc_Uncertainties_replace\lDAElow">
<polygon fill="#ffffff" stroke="#000000" points="694,-372.5 694,-402.5 829,-402.5 829,-372.5 694,-372.5"/>
<text text-anchor="start" x="702" y="-390.5" font-family="Helvetica,sans-Serif" font-size="10.00" fill="#000000">omc_Uncertainties_replace</text>
<text text-anchor="middle" x="761.5" y="-379.5" font-family="Helvetica,sans-Serif" font-size="10.00" fill="#000000">DAElow</text>
</a>
</g>
</g>
<!-- Node3187&#45;&gt;Node3190 -->
<g id="edge20" class="edge">
<title>Node3187&#45;&gt;Node3190</title>
<path fill="none" stroke="#191970" d="M608.7457,-474.404C618.3677,-471.139 627.7135,-466.928 636,-461.5 658.6055,-446.6924 649.7696,-427.865 672,-412.5 678.6357,-407.9136 686.0936,-404.165 693.7992,-401.1021"/>
<polygon fill="#191970" stroke="#191970" points="607.6011,-471.0939 599.0605,-477.3636 609.6468,-477.7883 607.6011,-471.0939"/>
</g>
<!-- Node3191 -->
<g id="node22" class="node">
<title>Node3191</title>
<g id="a_node22"><a xlink:href="../../d2/dea/_uncertainties_8h.html#a88a5dc2473c3b265e2c872e50f28067f" target="_top" xlink:title="boxptr_Uncertainties\l_replaceDAElow">
<polygon fill="#ffffff" stroke="#000000" points="913,-372.5 913,-402.5 1020,-402.5 1020,-372.5 913,-372.5"/>
<text text-anchor="start" x="921" y="-390.5" font-family="Helvetica,sans-Serif" font-size="10.00" fill="#000000">boxptr_Uncertainties</text>
<text text-anchor="middle" x="966.5" y="-379.5" font-family="Helvetica,sans-Serif" font-size="10.00" fill="#000000">_replaceDAElow</text>
</a>
</g>
</g>
<!-- Node3190&#45;&gt;Node3191 -->
<g id="edge21" class="edge">
<title>Node3190&#45;&gt;Node3191</title>
<path fill="none" stroke="#191970" d="M839.2114,-387.5C863.7668,-387.5 890.3414,-387.5 912.8259,-387.5"/>
<polygon fill="#191970" stroke="#191970" points="839.1928,-384.0001 829.1928,-387.5 839.1928,-391.0001 839.1928,-384.0001"/>
</g>
<!-- Node3194 -->
<g id="node25" class="node">
<title>Node3194</title>
<g id="a_node25"><a xlink:href="../../da/db6/_backend_var_transform_8h.html#aa8d3c9694dc9fdb60a9c83464b74b2e0" target="_top" xlink:title="boxptr_BackendVarTransform\l_getReplacementVarArraySize">
<polygon fill="#ffffff" stroke="#000000" points="454.5,-372.5 454.5,-402.5 605.5,-402.5 605.5,-372.5 454.5,-372.5"/>
<text text-anchor="start" x="462.5" y="-390.5" font-family="Helvetica,sans-Serif" font-size="10.00" fill="#000000">boxptr_BackendVarTransform</text>
<text text-anchor="middle" x="530" y="-379.5" font-family="Helvetica,sans-Serif" font-size="10.00" fill="#000000">_getReplacementVarArraySize</text>
</a>
</g>
</g>
<!-- Node3193&#45;&gt;Node3194 -->
<g id="edge24" class="edge">
<title>Node3193&#45;&gt;Node3194</title>
<path fill="none" stroke="#191970" d="M378.4043,-387.5C403.1667,-387.5 429.9973,-387.5 454.106,-387.5"/>
<polygon fill="#191970" stroke="#191970" points="378.2995,-384.0001 368.2995,-387.5 378.2994,-391.0001 378.2995,-384.0001"/>
</g>
<!-- Node3197 -->
<g id="node28" class="node">
<title>Node3197</title>
<g id="a_node28"><a xlink:href="../../d0/d29/_d_a_e_util_8c.html#a419e0c62aaa8da29456940a4090f48ff" target="_top" xlink:title="omc_DAEUtil_evaluateAnnotation2\l__loop1">
<polygon fill="#ffffff" stroke="#000000" points="445,-323.5 445,-353.5 615,-353.5 615,-323.5 445,-323.5"/>
<text text-anchor="start" x="453" y="-341.5" font-family="Helvetica,sans-Serif" font-size="10.00" fill="#000000">omc_DAEUtil_evaluateAnnotation2</text>
<text text-anchor="middle" x="530" y="-330.5" font-family="Helvetica,sans-Serif" font-size="10.00" fill="#000000">__loop1</text>
</a>
</g>
</g>
<!-- Node3196&#45;&gt;Node3197 -->
<g id="edge27" class="edge">
<title>Node3196&#45;&gt;Node3197</title>
<path fill="none" stroke="#191970" d="M375.444,-306.6127C402.0964,-312.1115 431.4036,-318.158 457.2659,-323.4938"/>
<polygon fill="#191970" stroke="#191970" points="375.8728,-303.1275 365.3719,-304.5346 374.4584,-309.9831 375.8728,-303.1275"/>
</g>
<!-- Node3199 -->
<g id="node30" class="node">
<title>Node3199</title>
<g id="a_node30"><a xlink:href="../../d0/d29/_d_a_e_util_8c.html#a63367a55f5d3a3df7a1c967fb76f1fc4" target="_top" xlink:title="boxptr_DAEUtil_evaluateAnnotation2\l__loop">
<polygon fill="#ffffff" stroke="#000000" points="440.5,-274.5 440.5,-304.5 619.5,-304.5 619.5,-274.5 440.5,-274.5"/>
<text text-anchor="start" x="448.5" y="-292.5" font-family="Helvetica,sans-Serif" font-size="10.00" fill="#000000">boxptr_DAEUtil_evaluateAnnotation2</text>
<text text-anchor="middle" x="530" y="-281.5" font-family="Helvetica,sans-Serif" font-size="10.00" fill="#000000">__loop</text>
</a>
</g>
</g>
<!-- Node3196&#45;&gt;Node3199 -->
<g id="edge29" class="edge">
<title>Node3196&#45;&gt;Node3199</title>
<path fill="none" stroke="#191970" d="M387.6998,-289.5C405.0581,-289.5 423.1159,-289.5 440.308,-289.5"/>
<polygon fill="#191970" stroke="#191970" points="387.5722,-286.0001 377.5721,-289.5 387.5721,-293.0001 387.5722,-286.0001"/>
</g>
<!-- Node3196&#45;&gt;Node3200 -->
<g id="edge30" class="edge">
<title>Node3196&#45;&gt;Node3200</title>
<path fill="none" stroke="#191970" d="M383.4741,-272.6459C415.7241,-266.6711 450.8698,-260.1599 478.6546,-255.0124"/>
<polygon fill="#191970" stroke="#191970" points="382.7648,-269.2176 373.5698,-274.4808 384.04,-276.1005 382.7648,-269.2176"/>
</g>
<!-- Node3198 -->
<g id="node29" class="node">
<title>Node3198</title>
<g id="a_node29"><a xlink:href="../../d0/d29/_d_a_e_util_8c.html#ade00ba9dee3746833cc22b9024a70ddb" target="_top" xlink:title="boxptr_DAEUtil_evaluateAnnotation2\l__loop1">
<polygon fill="#ffffff" stroke="#000000" points="672,-323.5 672,-353.5 851,-353.5 851,-323.5 672,-323.5"/>
<text text-anchor="start" x="680" y="-341.5" font-family="Helvetica,sans-Serif" font-size="10.00" fill="#000000">boxptr_DAEUtil_evaluateAnnotation2</text>
<text text-anchor="middle" x="761.5" y="-330.5" font-family="Helvetica,sans-Serif" font-size="10.00" fill="#000000">__loop1</text>
</a>
</g>
</g>
<!-- Node3197&#45;&gt;Node3198 -->
<g id="edge28" class="edge">
<title>Node3197&#45;&gt;Node3198</title>
<path fill="none" stroke="#191970" d="M625.2498,-338.5C640.6465,-338.5 656.5431,-338.5 671.8026,-338.5"/>
<polygon fill="#191970" stroke="#191970" points="625.2158,-335.0001 615.2158,-338.5 625.2158,-342.0001 625.2158,-335.0001"/>
</g>
<!-- Node3203 -->
<g id="node34" class="node">
<title>Node3203</title>
<g id="a_node34"><a xlink:href="../../d5/d67/_inst_state_machine_util_8c.html#afdb811e71d9b9504b7e7f5485c04bb22" target="_top" xlink:title="boxptr_InstStateMachineUtil\l_transitiveClosure">
<polygon fill="#ffffff" stroke="#000000" points="460,-142.5 460,-172.5 600,-172.5 600,-142.5 460,-142.5"/>
<text text-anchor="start" x="468" y="-160.5" font-family="Helvetica,sans-Serif" font-size="10.00" fill="#000000">boxptr_InstStateMachineUtil</text>
<text text-anchor="middle" x="530" y="-149.5" font-family="Helvetica,sans-Serif" font-size="10.00" fill="#000000">_transitiveClosure</text>
</a>
</g>
</g>
<!-- Node3202&#45;&gt;Node3203 -->
<g id="edge34" class="edge">
<title>Node3202&#45;&gt;Node3203</title>
<path fill="none" stroke="#191970" d="M368.7938,-154.1062C397.955,-154.7201 431.05,-155.4168 459.6335,-156.0186"/>
<polygon fill="#191970" stroke="#191970" points="368.7285,-150.6041 358.657,-153.8928 368.5811,-157.6026 368.7285,-150.6041"/>
</g>
<!-- Node3202&#45;&gt;Node3204 -->
<g id="edge35" class="edge">
<title>Node3202&#45;&gt;Node3204</title>
<path fill="none" stroke="#191970" d="M368.6887,-138.385C394.3178,-133.6369 422.9951,-128.3241 448.9821,-123.5096"/>
<polygon fill="#191970" stroke="#191970" points="367.8521,-134.9804 358.657,-140.2435 369.1273,-141.8633 367.8521,-134.9804"/>
</g>
<!-- Node3205&#45;&gt;Node3204 -->
<g id="edge38" class="edge">
<title>Node3205&#45;&gt;Node3204</title>
<path fill="none" stroke="#191970" d="M368.6887,-78.615C394.3178,-83.3631 422.9951,-88.6759 448.9821,-93.4904"/>
<polygon fill="#191970" stroke="#191970" points="369.1273,-75.1367 358.657,-76.7565 367.8521,-82.0196 369.1273,-75.1367"/>
</g>
<!-- Node3206 -->
<g id="node37" class="node">
<title>Node3206</title>
<g id="a_node37"><a xlink:href="../../d5/d67/_inst_state_machine_util_8c.html#a1f7b261fd5921f8fb555273991f7dcc2" target="_top" xlink:title="boxptr_InstStateMachineUtil\l_extractFlatSMGroup">
<polygon fill="#ffffff" stroke="#000000" points="460,-44.5 460,-74.5 600,-74.5 600,-44.5 460,-44.5"/>
<text text-anchor="start" x="468" y="-62.5" font-family="Helvetica,sans-Serif" font-size="10.00" fill="#000000">boxptr_InstStateMachineUtil</text>
<text text-anchor="middle" x="530" y="-51.5" font-family="Helvetica,sans-Serif" font-size="10.00" fill="#000000">_extractFlatSMGroup</text>
</a>
</g>
</g>
<!-- Node3205&#45;&gt;Node3206 -->
<g id="edge37" class="edge">
<title>Node3205&#45;&gt;Node3206</title>
<path fill="none" stroke="#191970" d="M368.7938,-62.8938C397.955,-62.2799 431.05,-61.5832 459.6335,-60.9814"/>
<polygon fill="#191970" stroke="#191970" points="368.5811,-59.3974 358.657,-63.1072 368.7285,-66.3959 368.5811,-59.3974"/>
</g>
<!-- Node3208 -->
<g id="node39" class="node">
<title>Node3208</title>
<g id="a_node39"><a xlink:href="../../dd/dd8/_var_transform_8h.html#ab825c00c3817bcc2750eb1d2aedf8894" target="_top" xlink:title="omc_VarTransform_applyReplacementsDAE">
<polygon fill="#ffffff" stroke="#000000" points="424,-6 424,-25 636,-25 636,-6 424,-6"/>
<text text-anchor="middle" x="530" y="-13" font-family="Helvetica,sans-Serif" font-size="10.00" fill="#000000">omc_VarTransform_applyReplacementsDAE</text>
</a>
</g>
</g>
<!-- Node3207&#45;&gt;Node3208 -->
<g id="edge41" class="edge">
<title>Node3207&#45;&gt;Node3208</title>
<path fill="none" stroke="#191970" d="M398.3125,-15.5C406.7519,-15.5 415.2794,-15.5 423.722,-15.5"/>
<polygon fill="#191970" stroke="#191970" points="398.0738,-12.0001 388.0737,-15.5 398.0737,-19.0001 398.0738,-12.0001"/>
</g>
</g>
</svg>
