<?xml version="1.0" encoding="UTF-8" standalone="no"?>
<!DOCTYPE svg PUBLIC "-//W3C//DTD SVG 1.1//EN"
 "http://www.w3.org/Graphics/SVG/1.1/DTD/svg11.dtd">
<!-- Generated by graphviz version 2.40.1 (20161225.0304)
 -->
<!-- Title: Teuchos::MultiplicationFunctionXMLConverter&lt; OperandType &gt; Pages: 1 -->
<svg width="199pt" height="274pt"
 viewBox="0.00 0.00 199.00 274.00" xmlns="http://www.w3.org/2000/svg" xmlns:xlink="http://www.w3.org/1999/xlink">
<g id="graph0" class="graph" transform="scale(1 1) rotate(0) translate(4 270)">
<title>Teuchos::MultiplicationFunctionXMLConverter&lt; OperandType &gt;</title>
<polygon fill="#ffffff" stroke="transparent" points="-4,4 -4,-270 195,-270 195,4 -4,4"/>
<!-- Node5 -->
<g id="node1" class="node">
<title>Node5</title>
<polygon fill="#bfbfbf" stroke="#000000" points="17.5,-.5 17.5,-30.5 173.5,-30.5 173.5,-.5 17.5,-.5"/>
<text text-anchor="start" x="25.5" y="-18.5" font-family="Helvetica,sans-Serif" font-size="10.00" fill="#000000">Teuchos::MultiplicationFunction</text>
<text text-anchor="middle" x="95.5" y="-7.5" font-family="Helvetica,sans-Serif" font-size="10.00" fill="#000000">XMLConverter&lt; OperandType &gt;</text>
</g>
<!-- Node6 -->
<g id="node2" class="node">
<title>Node6</title>
<g id="a_node2"><a xlink:href="../../d9/d3a/class_teuchos_1_1_simple_function_x_m_l_converter.html" target="_top" xlink:title="An xml converter for SimpleFunctionObjects. ">
<polygon fill="#ffffff" stroke="#000000" points="0,-67.5 0,-97.5 191,-97.5 191,-67.5 0,-67.5"/>
<text text-anchor="start" x="8" y="-85.5" font-family="Helvetica,sans-Serif" font-size="10.00" fill="#000000">Teuchos::SimpleFunctionXMLConverter</text>
<text text-anchor="middle" x="95.5" y="-74.5" font-family="Helvetica,sans-Serif" font-size="10.00" fill="#000000">&lt; OperandType &gt;</text>
</a>
</g>
</g>
<!-- Node6&#45;&gt;Node5 -->
<g id="edge1" class="edge">
<title>Node6&#45;&gt;Node5</title>
<path fill="none" stroke="#191970" d="M95.5,-57.0249C95.5,-48.128 95.5,-38.4287 95.5,-30.6432"/>
<polygon fill="#191970" stroke="#191970" points="92.0001,-57.2966 95.5,-67.2967 99.0001,-57.2967 92.0001,-57.2966"/>
</g>
<!-- Node7 -->
<g id="node3" class="node">
<title>Node7</title>
<g id="a_node3"><a xlink:href="../../d0/da8/class_teuchos_1_1_function_object_x_m_l_converter.html" target="_top" xlink:title="An abstract base class for converting FunctionObjects to and from XML. ">
<polygon fill="#ffffff" stroke="#000000" points="1,-134.5 1,-153.5 190,-153.5 190,-134.5 1,-134.5"/>
<text text-anchor="middle" x="95.5" y="-141.5" font-family="Helvetica,sans-Serif" font-size="10.00" fill="#000000">Teuchos::FunctionObjectXMLConverter</text>
</a>
</g>
</g>
<!-- Node7&#45;&gt;Node6 -->
<g id="edge2" class="edge">
<title>Node7&#45;&gt;Node6</title>
<path fill="none" stroke="#191970" d="M95.5,-124.3693C95.5,-115.681 95.5,-105.6241 95.5,-97.5446"/>
<polygon fill="#191970" stroke="#191970" points="92.0001,-124.3906 95.5,-134.3906 99.0001,-124.3907 92.0001,-124.3906"/>
</g>
<!-- Node8 -->
<g id="node4" class="node">
<title>Node8</title>
<g id="a_node4"><a xlink:href="../../de/d8a/class_teuchos_1_1_describable.html" target="_top" xlink:title="Base class for all objects that can describe themselves. ">
<polygon fill="#ffffff" stroke="#000000" points="39.5,-190.5 39.5,-209.5 151.5,-209.5 151.5,-190.5 39.5,-190.5"/>
<text text-anchor="middle" x="95.5" y="-197.5" font-family="Helvetica,sans-Serif" font-size="10.00" fill="#000000">Teuchos::Describable</text>
</a>
</g>
</g>
<!-- Node8&#45;&gt;Node7 -->
<g id="edge3" class="edge">
<title>Node8&#45;&gt;Node7</title>
<path fill="none" stroke="#191970" d="M95.5,-180.1575C95.5,-171.155 95.5,-160.9199 95.5,-153.6427"/>
<polygon fill="#191970" stroke="#191970" points="92.0001,-180.2455 95.5,-190.2455 99.0001,-180.2456 92.0001,-180.2455"/>
</g>
<!-- Node9 -->
<g id="node5" class="node">
<title>Node9</title>
<g id="a_node5"><a xlink:href="../../df/d61/class_teuchos_1_1_labeled_object.html" target="_top" xlink:title="Base class for objects that contain a std::string label. ">
<polygon fill="#ffffff" stroke="#000000" points="34.5,-246.5 34.5,-265.5 156.5,-265.5 156.5,-246.5 34.5,-246.5"/>
<text text-anchor="middle" x="95.5" y="-253.5" font-family="Helvetica,sans-Serif" font-size="10.00" fill="#000000">Teuchos::LabeledObject</text>
</a>
</g>
</g>
<!-- Node9&#45;&gt;Node8 -->
<g id="edge4" class="edge">
<title>Node9&#45;&gt;Node8</title>
<path fill="none" stroke="#191970" d="M95.5,-236.1575C95.5,-227.155 95.5,-216.9199 95.5,-209.6427"/>
<polygon fill="#191970" stroke="#191970" points="92.0001,-236.2455 95.5,-246.2455 99.0001,-236.2456 92.0001,-236.2455"/>
</g>
</g>
</svg>
