<?xml version="1.0" encoding="UTF-8" standalone="no"?>
<!DOCTYPE svg PUBLIC "-//W3C//DTD SVG 1.1//EN"
 "http://www.w3.org/Graphics/SVG/1.1/DTD/svg11.dtd">
<!-- Generated by graphviz version 2.40.1 (20161225.0304)
 -->
<!-- Title: omc_Main_setDefaultCC Pages: 1 -->
<svg width="375pt" height="66pt"
 viewBox="0.00 0.00 375.00 66.00" xmlns="http://www.w3.org/2000/svg" xmlns:xlink="http://www.w3.org/1999/xlink">
<g id="graph0" class="graph" transform="scale(1 1) rotate(0) translate(4 62)">
<title>omc_Main_setDefaultCC</title>
<polygon fill="#ffffff" stroke="transparent" points="-4,4 -4,-62 371,-62 371,4 -4,4"/>
<!-- Node1169 -->
<g id="node1" class="node">
<title>Node1169</title>
<polygon fill="#bfbfbf" stroke="#000000" points="0,-19.5 0,-38.5 127,-38.5 127,-19.5 0,-19.5"/>
<text text-anchor="middle" x="63.5" y="-26.5" font-family="Helvetica,sans-Serif" font-size="10.00" fill="#000000">omc_Main_setDefaultCC</text>
</g>
<!-- Node1170 -->
<g id="node2" class="node">
<title>Node1170</title>
<g id="a_node2"><a xlink:href="../../d0/d55/_main_8h.html#afad4f8f2dcee35cfdf2f864ef56daf9d" target="_top" xlink:title="omc_Main_init">
<polygon fill="#ffffff" stroke="#000000" points="163,-19.5 163,-38.5 243,-38.5 243,-19.5 163,-19.5"/>
<text text-anchor="middle" x="203" y="-26.5" font-family="Helvetica,sans-Serif" font-size="10.00" fill="#000000">omc_Main_init</text>
</a>
</g>
</g>
<!-- Node1169&#45;&gt;Node1170 -->
<g id="edge1" class="edge">
<title>Node1169&#45;&gt;Node1170</title>
<path fill="none" stroke="#191970" d="M137.3386,-29C146.0322,-29 154.6407,-29 162.6216,-29"/>
<polygon fill="#191970" stroke="#191970" points="137.1267,-25.5001 127.1266,-29 137.1266,-32.5001 137.1267,-25.5001"/>
</g>
<!-- Node1171 -->
<g id="node3" class="node">
<title>Node1171</title>
<g id="a_node3"><a xlink:href="../../d0/d55/_main_8h.html#aabe07fd15394b0075c7ba561a1239b8f" target="_top" xlink:title="omc_Main_main">
<polygon fill="#ffffff" stroke="#000000" points="279,-38.5 279,-57.5 367,-57.5 367,-38.5 279,-38.5"/>
<text text-anchor="middle" x="323" y="-45.5" font-family="Helvetica,sans-Serif" font-size="10.00" fill="#000000">omc_Main_main</text>
</a>
</g>
</g>
<!-- Node1170&#45;&gt;Node1171 -->
<g id="edge2" class="edge">
<title>Node1170&#45;&gt;Node1171</title>
<path fill="none" stroke="#191970" d="M253.4344,-36.9855C261.8935,-38.3248 270.613,-39.7054 278.8968,-41.017"/>
<polygon fill="#191970" stroke="#191970" points="253.7164,-33.4866 243.2921,-35.3796 252.6217,-40.4005 253.7164,-33.4866"/>
</g>
<!-- Node1172 -->
<g id="node4" class="node">
<title>Node1172</title>
<g id="a_node4"><a xlink:href="../../d2/d87/_o_m_c_8cpp.html#a10355828ede503a231b73ff5b852a040" target="_top" xlink:title="InitOMC">
<polygon fill="#ffffff" stroke="#000000" points="296.5,-.5 296.5,-19.5 349.5,-19.5 349.5,-.5 296.5,-.5"/>
<text text-anchor="middle" x="323" y="-7.5" font-family="Helvetica,sans-Serif" font-size="10.00" fill="#000000">InitOMC</text>
</a>
</g>
</g>
<!-- Node1170&#45;&gt;Node1172 -->
<g id="edge3" class="edge">
<title>Node1170&#45;&gt;Node1172</title>
<path fill="none" stroke="#191970" d="M253.3149,-21.0335C268.0421,-18.7017 283.5689,-16.2433 296.219,-14.2403"/>
<polygon fill="#191970" stroke="#191970" points="252.6217,-17.5995 243.2921,-22.6204 253.7164,-24.5134 252.6217,-17.5995"/>
</g>
</g>
</svg>
