<?xml version="1.0" encoding="UTF-8" standalone="no"?>
<!DOCTYPE svg PUBLIC "-//W3C//DTD SVG 1.1//EN"
 "http://www.w3.org/Graphics/SVG/1.1/DTD/svg11.dtd">
<!-- Generated by graphviz version 2.40.1 (20161225.0304)
 -->
<!-- Title: MeasureTimeValuesStatistic::reset Pages: 1 -->
<svg width="298pt" height="39pt"
 viewBox="0.00 0.00 298.00 39.00" xmlns="http://www.w3.org/2000/svg" xmlns:xlink="http://www.w3.org/1999/xlink">
<g id="graph0" class="graph" transform="scale(1 1) rotate(0) translate(4 35)">
<title>MeasureTimeValuesStatistic::reset</title>
<polygon fill="#ffffff" stroke="transparent" points="-4,4 -4,-35 294,-35 294,4 -4,4"/>
<!-- Node13 -->
<g id="node1" class="node">
<title>Node13</title>
<polygon fill="#bfbfbf" stroke="#000000" points="0,-.5 0,-30.5 142,-30.5 142,-.5 0,-.5"/>
<text text-anchor="start" x="8" y="-18.5" font-family="Helvetica,sans-Serif" font-size="10.00" fill="#000000">MeasureTimeValuesStatistic</text>
<text text-anchor="middle" x="71" y="-7.5" font-family="Helvetica,sans-Serif" font-size="10.00" fill="#000000">::reset</text>
</g>
<!-- Node14 -->
<g id="node2" class="node">
<title>Node14</title>
<g id="a_node2"><a xlink:href="../../d2/df1/class_measure_time_values.html#aadf18c3561c60dae398e1e22f2cb761c" target="_top" xlink:title="MeasureTimeValues::\lreset">
<polygon fill="#ffffff" stroke="#000000" points="178,-.5 178,-30.5 290,-30.5 290,-.5 178,-.5"/>
<text text-anchor="start" x="186" y="-18.5" font-family="Helvetica,sans-Serif" font-size="10.00" fill="#000000">MeasureTimeValues::</text>
<text text-anchor="middle" x="234" y="-7.5" font-family="Helvetica,sans-Serif" font-size="10.00" fill="#000000">reset</text>
</a>
</g>
</g>
<!-- Node13&#45;&gt;Node14 -->
<g id="edge1" class="edge">
<title>Node13&#45;&gt;Node14</title>
<path fill="none" stroke="#191970" d="M142.02,-15.5C150.5589,-15.5 159.2539,-15.5 167.7216,-15.5"/>
<polygon fill="#191970" stroke="#191970" points="167.9118,-19.0001 177.9118,-15.5 167.9117,-12.0001 167.9118,-19.0001"/>
</g>
</g>
</svg>
