<?xml version="1.0" encoding="UTF-8" standalone="no"?>
<!DOCTYPE svg PUBLIC "-//W3C//DTD SVG 1.1//EN"
 "http://www.w3.org/Graphics/SVG/1.1/DTD/svg11.dtd">
<!-- Generated by graphviz version 2.40.1 (20161225.0304)
 -->
<!-- Title: Ipopt::SymMatrix::Dim Pages: 1 -->
<svg width="449pt" height="66pt"
 viewBox="0.00 0.00 449.00 66.00" xmlns="http://www.w3.org/2000/svg" xmlns:xlink="http://www.w3.org/1999/xlink">
<g id="graph0" class="graph" transform="scale(1 1) rotate(0) translate(4 62)">
<title>Ipopt::SymMatrix::Dim</title>
<polygon fill="#ffffff" stroke="transparent" points="-4,4 -4,-62 445,-62 445,4 -4,4"/>
<!-- Node25 -->
<g id="node1" class="node">
<title>Node25</title>
<polygon fill="#bfbfbf" stroke="#000000" points="0,-19.5 0,-38.5 116,-38.5 116,-19.5 0,-19.5"/>
<text text-anchor="middle" x="58" y="-26.5" font-family="Helvetica,sans-Serif" font-size="10.00" fill="#000000">Ipopt::SymMatrix::Dim</text>
</g>
<!-- Node26 -->
<g id="node2" class="node">
<title>Node26</title>
<g id="a_node2"><a xlink:href="../../d5/d91/class_ipopt_1_1_sym_matrix_space.html#a2cd122ff10ba34d64d73e85c6dd26dff" target="_top" xlink:title="Ipopt::SymMatrixSpace::Dim">
<polygon fill="#ffffff" stroke="#000000" points="152,-19.5 152,-38.5 295,-38.5 295,-19.5 152,-19.5"/>
<text text-anchor="middle" x="223.5" y="-26.5" font-family="Helvetica,sans-Serif" font-size="10.00" fill="#000000">Ipopt::SymMatrixSpace::Dim</text>
</a>
</g>
</g>
<!-- Node25&#45;&gt;Node26 -->
<g id="edge1" class="edge">
<title>Node25&#45;&gt;Node26</title>
<path fill="none" stroke="#191970" d="M116.3491,-29C124.5765,-29 133.1573,-29 141.7242,-29"/>
<polygon fill="#191970" stroke="#191970" points="141.7526,-32.5001 151.7525,-29 141.7525,-25.5001 141.7526,-32.5001"/>
</g>
<!-- Node27 -->
<g id="node3" class="node">
<title>Node27</title>
<g id="a_node3"><a xlink:href="../../de/dfe/class_ipopt_1_1_matrix.html#a266552e7da69b010fb9aff8852a89ce1" target="_top" xlink:title="Ipopt::Matrix::NRows">
<polygon fill="#ffffff" stroke="#000000" points="331,-38.5 331,-57.5 441,-57.5 441,-38.5 331,-38.5"/>
<text text-anchor="middle" x="386" y="-45.5" font-family="Helvetica,sans-Serif" font-size="10.00" fill="#000000">Ipopt::Matrix::NRows</text>
</a>
</g>
</g>
<!-- Node26&#45;&gt;Node27 -->
<g id="edge2" class="edge">
<title>Node26&#45;&gt;Node27</title>
<path fill="none" stroke="#191970" d="M295.2479,-37.389C303.7103,-38.3784 312.3121,-39.3842 320.6793,-40.3625"/>
<polygon fill="#191970" stroke="#191970" points="320.4052,-43.8542 330.744,-41.5393 321.2181,-36.9016 320.4052,-43.8542"/>
</g>
<!-- Node28 -->
<g id="node4" class="node">
<title>Node28</title>
<g id="a_node4"><a xlink:href="../../de/dfe/class_ipopt_1_1_matrix.html#afda62c7ef10c09d8dde0e266ebd35dfb" target="_top" xlink:title="Ipopt::Matrix::NCols">
<polygon fill="#ffffff" stroke="#000000" points="333.5,-.5 333.5,-19.5 438.5,-19.5 438.5,-.5 333.5,-.5"/>
<text text-anchor="middle" x="386" y="-7.5" font-family="Helvetica,sans-Serif" font-size="10.00" fill="#000000">Ipopt::Matrix::NCols</text>
</a>
</g>
</g>
<!-- Node26&#45;&gt;Node28 -->
<g id="edge3" class="edge">
<title>Node26&#45;&gt;Node28</title>
<path fill="none" stroke="#191970" d="M295.2479,-20.611C304.514,-19.5276 313.9473,-18.4246 323.0567,-17.3595"/>
<polygon fill="#191970" stroke="#191970" points="323.6519,-20.8139 333.1778,-16.1761 322.8389,-13.8612 323.6519,-20.8139"/>
</g>
</g>
</svg>
