<?xml version="1.0" encoding="UTF-8" standalone="no"?>
<!DOCTYPE svg PUBLIC "-//W3C//DTD SVG 1.1//EN"
 "http://www.w3.org/Graphics/SVG/1.1/DTD/svg11.dtd">
<!-- Generated by graphviz version 2.40.1 (20161225.0304)
 -->
<!-- Title: GC_nacl_shutdown_gc_thread Pages: 1 -->
<svg width="863pt" height="104pt"
 viewBox="0.00 0.00 863.00 104.00" xmlns="http://www.w3.org/2000/svg" xmlns:xlink="http://www.w3.org/1999/xlink">
<g id="graph0" class="graph" transform="scale(1 1) rotate(0) translate(4 100)">
<title>GC_nacl_shutdown_gc_thread</title>
<polygon fill="#ffffff" stroke="transparent" points="-4,4 -4,-100 859,-100 859,4 -4,4"/>
<!-- Node99 -->
<g id="node1" class="node">
<title>Node99</title>
<polygon fill="#bfbfbf" stroke="#000000" points="0,-14 0,-44 118,-44 118,-14 0,-14"/>
<text text-anchor="start" x="8" y="-32" font-family="Helvetica,sans-Serif" font-size="10.00" fill="#000000">GC_nacl_shutdown_gc</text>
<text text-anchor="middle" x="59" y="-21" font-family="Helvetica,sans-Serif" font-size="10.00" fill="#000000">_thread</text>
</g>
<!-- Node100 -->
<g id="node2" class="node">
<title>Node100</title>
<g id="a_node2"><a xlink:href="../../d6/d7c/pthread__support_8c.html#a2c2e8a11175bd98c23e030da1d598f36" target="_top" xlink:title="GC_delete_thread">
<polygon fill="#ffffff" stroke="#000000" points="154,-19.5 154,-38.5 249,-38.5 249,-19.5 154,-19.5"/>
<text text-anchor="middle" x="201.5" y="-26.5" font-family="Helvetica,sans-Serif" font-size="10.00" fill="#000000">GC_delete_thread</text>
</a>
</g>
</g>
<!-- Node99&#45;&gt;Node100 -->
<g id="edge1" class="edge">
<title>Node99&#45;&gt;Node100</title>
<path fill="none" stroke="#191970" d="M128.3392,-29C137.0219,-29 145.7424,-29 153.9846,-29"/>
<polygon fill="#191970" stroke="#191970" points="128.1949,-25.5001 118.1949,-29 128.1948,-32.5001 128.1949,-25.5001"/>
</g>
<!-- Node101 -->
<g id="node3" class="node">
<title>Node101</title>
<g id="a_node3"><a xlink:href="../../d6/d7c/pthread__support_8c.html#a205389ad1bd657699c8cba09bc5967ee" target="_top" xlink:title="GC_unregister_my_thread\l_inner">
<polygon fill="#ffffff" stroke="#000000" points="285,-14 285,-44 416,-44 416,-14 285,-14"/>
<text text-anchor="start" x="293" y="-32" font-family="Helvetica,sans-Serif" font-size="10.00" fill="#000000">GC_unregister_my_thread</text>
<text text-anchor="middle" x="350.5" y="-21" font-family="Helvetica,sans-Serif" font-size="10.00" fill="#000000">_inner</text>
</a>
</g>
</g>
<!-- Node100&#45;&gt;Node101 -->
<g id="edge2" class="edge">
<title>Node100&#45;&gt;Node101</title>
<path fill="none" stroke="#191970" d="M259.1641,-29C267.6017,-29 276.3432,-29 284.9245,-29"/>
<polygon fill="#191970" stroke="#191970" points="259.0542,-25.5001 249.0542,-29 259.0542,-32.5001 259.0542,-25.5001"/>
</g>
<!-- Node102 -->
<g id="node4" class="node">
<title>Node102</title>
<g id="a_node4"><a xlink:href="../../d3/dc5/build_2include_2omc_2c_2gc_8h.html#af34610f5c02b7721e5d3d0212442999a" target="_top" xlink:title="GC_unregister_my_thread">
<polygon fill="#ffffff" stroke="#000000" points="452,-38.5 452,-57.5 583,-57.5 583,-38.5 452,-38.5"/>
<text text-anchor="middle" x="517.5" y="-45.5" font-family="Helvetica,sans-Serif" font-size="10.00" fill="#000000">GC_unregister_my_thread</text>
</a>
</g>
</g>
<!-- Node101&#45;&gt;Node102 -->
<g id="edge3" class="edge">
<title>Node101&#45;&gt;Node102</title>
<path fill="none" stroke="#191970" d="M426.0663,-37.5974C434.6848,-38.5779 443.4171,-39.5714 451.8913,-40.5355"/>
<polygon fill="#191970" stroke="#191970" points="426.3551,-34.1077 416.0235,-36.4548 425.5637,-41.0629 426.3551,-34.1077"/>
</g>
<!-- Node107 -->
<g id="node9" class="node">
<title>Node107</title>
<g id="a_node9"><a xlink:href="../../d6/d7c/pthread__support_8c.html#ad8f6d55cdb0d55de6849fbd56a41db31" target="_top" xlink:title="GC_thread_exit_proc">
<polygon fill="#ffffff" stroke="#000000" points="463,-.5 463,-19.5 572,-19.5 572,-.5 463,-.5"/>
<text text-anchor="middle" x="517.5" y="-7.5" font-family="Helvetica,sans-Serif" font-size="10.00" fill="#000000">GC_thread_exit_proc</text>
</a>
</g>
</g>
<!-- Node101&#45;&gt;Node107 -->
<g id="edge8" class="edge">
<title>Node101&#45;&gt;Node107</title>
<path fill="none" stroke="#191970" d="M426.3191,-20.3739C438.6675,-18.969 451.242,-17.5383 462.9498,-16.2063"/>
<polygon fill="#191970" stroke="#191970" points="425.5637,-16.9371 416.0235,-21.5452 426.3551,-23.8923 425.5637,-16.9371"/>
</g>
<!-- Node103 -->
<g id="node5" class="node">
<title>Node103</title>
<g id="a_node5"><a xlink:href="../../d0/d78/win32__threads_8c.html#ab8391ecea40b674c6967974a56b7e978" target="_top" xlink:title="GC_win32_start_inner">
<polygon fill="#ffffff" stroke="#000000" points="619,-76.5 619,-95.5 732,-95.5 732,-76.5 619,-76.5"/>
<text text-anchor="middle" x="675.5" y="-83.5" font-family="Helvetica,sans-Serif" font-size="10.00" fill="#000000">GC_win32_start_inner</text>
</a>
</g>
</g>
<!-- Node102&#45;&gt;Node103 -->
<g id="edge4" class="edge">
<title>Node102&#45;&gt;Node103</title>
<path fill="none" stroke="#191970" d="M567.2616,-59.968C589.4029,-65.2931 615.1116,-71.4762 635.9166,-76.4799"/>
<polygon fill="#191970" stroke="#191970" points="567.9113,-56.5245 557.3701,-57.589 566.2744,-63.3304 567.9113,-56.5245"/>
</g>
<!-- Node105 -->
<g id="node7" class="node">
<title>Node105</title>
<g id="a_node7"><a xlink:href="../../d3/dc5/build_2include_2omc_2c_2gc_8h.html#a611dc0aa59e01d3f15c3dedd16eef204" target="_top" xlink:title="GC_ExitThread">
<polygon fill="#ffffff" stroke="#000000" points="633.5,-38.5 633.5,-57.5 717.5,-57.5 717.5,-38.5 633.5,-38.5"/>
<text text-anchor="middle" x="675.5" y="-45.5" font-family="Helvetica,sans-Serif" font-size="10.00" fill="#000000">GC_ExitThread</text>
</a>
</g>
</g>
<!-- Node102&#45;&gt;Node105 -->
<g id="edge6" class="edge">
<title>Node102&#45;&gt;Node105</title>
<path fill="none" stroke="#191970" d="M593.1421,-48C606.9535,-48 620.9021,-48 633.2951,-48"/>
<polygon fill="#191970" stroke="#191970" points="593.1336,-44.5001 583.1336,-48 593.1336,-51.5001 593.1336,-44.5001"/>
</g>
<!-- Node106 -->
<g id="node8" class="node">
<title>Node106</title>
<g id="a_node8"><a xlink:href="../../d3/dc5/build_2include_2omc_2c_2gc_8h.html#ae231bc843bf076f65aca996048ca8a67" target="_top" xlink:title="GC_endthreadex">
<polygon fill="#ffffff" stroke="#000000" points="630.5,-.5 630.5,-19.5 720.5,-19.5 720.5,-.5 630.5,-.5"/>
<text text-anchor="middle" x="675.5" y="-7.5" font-family="Helvetica,sans-Serif" font-size="10.00" fill="#000000">GC_endthreadex</text>
</a>
</g>
</g>
<!-- Node102&#45;&gt;Node106 -->
<g id="edge7" class="edge">
<title>Node102&#45;&gt;Node106</title>
<path fill="none" stroke="#191970" d="M567.2616,-36.032C589.4029,-30.7069 615.1116,-24.5238 635.9166,-19.5201"/>
<polygon fill="#191970" stroke="#191970" points="566.2744,-32.6696 557.3701,-38.411 567.9113,-39.4755 566.2744,-32.6696"/>
</g>
<!-- Node104 -->
<g id="node6" class="node">
<title>Node104</title>
<g id="a_node6"><a xlink:href="../../d0/d78/win32__threads_8c.html#a249a2849c8c14703f8d555e6c037c38f" target="_top" xlink:title="GC_win32_start">
<polygon fill="#ffffff" stroke="#000000" points="768,-76.5 768,-95.5 855,-95.5 855,-76.5 768,-76.5"/>
<text text-anchor="middle" x="811.5" y="-83.5" font-family="Helvetica,sans-Serif" font-size="10.00" fill="#000000">GC_win32_start</text>
</a>
</g>
</g>
<!-- Node103&#45;&gt;Node104 -->
<g id="edge5" class="edge">
<title>Node103&#45;&gt;Node104</title>
<path fill="none" stroke="#191970" d="M742.4135,-86C750.9904,-86 759.5904,-86 767.6674,-86"/>
<polygon fill="#191970" stroke="#191970" points="742.3883,-82.5001 732.3882,-86 742.3882,-89.5001 742.3883,-82.5001"/>
</g>
</g>
</svg>
