<?xml version="1.0" encoding="UTF-8" standalone="no"?>
<!DOCTYPE svg PUBLIC "-//W3C//DTD SVG 1.1//EN"
 "http://www.w3.org/Graphics/SVG/1.1/DTD/svg11.dtd">
<!-- Generated by graphviz version 2.40.1 (20161225.0304)
 -->
<!-- Title: omc_BackendEquation_traverseEquationArray__WithUpdate Pages: 1 -->
<svg width="278pt" height="50pt"
 viewBox="0.00 0.00 278.00 50.00" xmlns="http://www.w3.org/2000/svg" xmlns:xlink="http://www.w3.org/1999/xlink">
<g id="graph0" class="graph" transform="scale(1 1) rotate(0) translate(4 46)">
<title>omc_BackendEquation_traverseEquationArray__WithUpdate</title>
<polygon fill="#ffffff" stroke="transparent" points="-4,4 -4,-46 274,-46 274,4 -4,4"/>
<!-- Node3060 -->
<g id="node1" class="node">
<title>Node3060</title>
<polygon fill="#bfbfbf" stroke="#000000" points="0,-.5 0,-41.5 119,-41.5 119,-.5 0,-.5"/>
<text text-anchor="start" x="8" y="-29.5" font-family="Helvetica,sans-Serif" font-size="10.00" fill="#000000">omc_BackendEquation</text>
<text text-anchor="start" x="8" y="-18.5" font-family="Helvetica,sans-Serif" font-size="10.00" fill="#000000">_traverseEquationArray</text>
<text text-anchor="middle" x="59.5" y="-7.5" font-family="Helvetica,sans-Serif" font-size="10.00" fill="#000000">__WithUpdate</text>
</g>
<!-- Node3061 -->
<g id="node2" class="node">
<title>Node3061</title>
<g id="a_node2"><a xlink:href="../../d0/d79/_expandable_array_8c.html#a51fbd8fcf5dd51e9daca628bacca1b66" target="_top" xlink:title="omc_ExpandableArray\l_getLastUsedIndex">
<polygon fill="#ffffff" stroke="#000000" points="155,-6 155,-36 270,-36 270,-6 155,-6"/>
<text text-anchor="start" x="163" y="-24" font-family="Helvetica,sans-Serif" font-size="10.00" fill="#000000">omc_ExpandableArray</text>
<text text-anchor="middle" x="212.5" y="-13" font-family="Helvetica,sans-Serif" font-size="10.00" fill="#000000">_getLastUsedIndex</text>
</a>
</g>
</g>
<!-- Node3060&#45;&gt;Node3061 -->
<g id="edge1" class="edge">
<title>Node3060&#45;&gt;Node3061</title>
<path fill="none" stroke="#191970" d="M119.0919,-21C127.4432,-21 136.0774,-21 144.569,-21"/>
<polygon fill="#191970" stroke="#191970" points="144.8276,-24.5001 154.8276,-21 144.8276,-17.5001 144.8276,-24.5001"/>
</g>
</g>
</svg>
