<?xml version="1.0" encoding="UTF-8" standalone="no"?>
<!DOCTYPE svg PUBLIC "-//W3C//DTD SVG 1.1//EN"
 "http://www.w3.org/Graphics/SVG/1.1/DTD/svg11.dtd">
<!-- Generated by graphviz version 2.40.1 (20161225.0304)
 -->
<!-- Title: omc_BackendEquation_equationEqual Pages: 1 -->
<svg width="1909pt" height="576pt"
 viewBox="0.00 0.00 1909.00 576.00" xmlns="http://www.w3.org/2000/svg" xmlns:xlink="http://www.w3.org/1999/xlink">
<g id="graph0" class="graph" transform="scale(1 1) rotate(0) translate(4 572)">
<title>omc_BackendEquation_equationEqual</title>
<polygon fill="#ffffff" stroke="transparent" points="-4,4 -4,-572 1905,-572 1905,4 -4,4"/>
<!-- Node1106 -->
<g id="node1" class="node">
<title>Node1106</title>
<polygon fill="#bfbfbf" stroke="#000000" points="0,-234 0,-264 117,-264 117,-234 0,-234"/>
<text text-anchor="start" x="8" y="-252" font-family="Helvetica,sans-Serif" font-size="10.00" fill="#000000">omc_BackendEquation</text>
<text text-anchor="middle" x="58.5" y="-241" font-family="Helvetica,sans-Serif" font-size="10.00" fill="#000000">_equationEqual</text>
</g>
<!-- Node1107 -->
<g id="node2" class="node">
<title>Node1107</title>
<g id="a_node2"><a xlink:href="../../d1/d08/_expression_8c.html#a727c2d71e50fbdea8642fae69ae93865" target="_top" xlink:title="omc_Expression_expEqual">
<polygon fill="#ffffff" stroke="#000000" points="500,-280.5 500,-299.5 635,-299.5 635,-280.5 500,-280.5"/>
<text text-anchor="middle" x="567.5" y="-287.5" font-family="Helvetica,sans-Serif" font-size="10.00" fill="#000000">omc_Expression_expEqual</text>
</a>
</g>
</g>
<!-- Node1106&#45;&gt;Node1107 -->
<g id="edge1" class="edge">
<title>Node1106&#45;&gt;Node1107</title>
<path fill="none" stroke="#191970" d="M117.386,-253.7433C209.4443,-261.1586 387.4897,-275.5002 489.903,-283.7496"/>
<polygon fill="#191970" stroke="#191970" points="489.6276,-287.2386 499.8764,-284.5529 490.1897,-280.2612 489.6276,-287.2386"/>
</g>
<!-- Node1137 -->
<g id="node32" class="node">
<title>Node1137</title>
<g id="a_node32"><a xlink:href="../../d9/d14/_component_reference_8c.html#a38e6053b0392ed45200fe7d26c8f3ac8" target="_top" xlink:title="omc_ComponentReference\l_crefEqualNoStringCompare">
<polygon fill="#ffffff" stroke="#000000" points="153,-297 153,-327 294,-327 294,-297 153,-297"/>
<text text-anchor="start" x="161" y="-315" font-family="Helvetica,sans-Serif" font-size="10.00" fill="#000000">omc_ComponentReference</text>
<text text-anchor="middle" x="223.5" y="-304" font-family="Helvetica,sans-Serif" font-size="10.00" fill="#000000">_crefEqualNoStringCompare</text>
</a>
</g>
</g>
<!-- Node1106&#45;&gt;Node1137 -->
<g id="edge40" class="edge">
<title>Node1106&#45;&gt;Node1137</title>
<path fill="none" stroke="#191970" d="M98.0216,-264.0901C120.9992,-272.8633 150.1478,-283.9928 174.5665,-293.3163"/>
<polygon fill="#191970" stroke="#191970" points="173.4246,-296.6267 184.0153,-296.924 175.9216,-290.0872 173.4246,-296.6267"/>
</g>
<!-- Node1139 -->
<g id="node34" class="node">
<title>Node1139</title>
<g id="a_node34"><a xlink:href="../../d7/dda/_algorithm_8c.html#a375bd37eb41ef2f35c72438f2bdf78b9" target="_top" xlink:title="omc_Algorithm_getAllExps">
<polygon fill="#ffffff" stroke="#000000" points="156.5,-220.5 156.5,-239.5 290.5,-239.5 290.5,-220.5 156.5,-220.5"/>
<text text-anchor="middle" x="223.5" y="-227.5" font-family="Helvetica,sans-Serif" font-size="10.00" fill="#000000">omc_Algorithm_getAllExps</text>
</a>
</g>
</g>
<!-- Node1106&#45;&gt;Node1139 -->
<g id="edge44" class="edge">
<title>Node1106&#45;&gt;Node1139</title>
<path fill="none" stroke="#191970" d="M117.1374,-242.2478C126.5558,-241.1633 136.4283,-240.0264 146.2029,-238.9009"/>
<polygon fill="#191970" stroke="#191970" points="146.7966,-242.3557 156.3306,-237.7347 145.9958,-235.4017 146.7966,-242.3557"/>
</g>
<!-- Node1141 -->
<g id="node36" class="node">
<title>Node1141</title>
<g id="a_node36"><a xlink:href="../../da/d72/_compiler_2boot_2build_2list_8c.html#a48a12fdaab61cbe8e256fcaa1edff333" target="_top" xlink:title="omc_List_isEqualOnTrue">
<polygon fill="#ffffff" stroke="#000000" points="160.5,-182.5 160.5,-201.5 286.5,-201.5 286.5,-182.5 160.5,-182.5"/>
<text text-anchor="middle" x="223.5" y="-189.5" font-family="Helvetica,sans-Serif" font-size="10.00" fill="#000000">omc_List_isEqualOnTrue</text>
</a>
</g>
</g>
<!-- Node1106&#45;&gt;Node1141 -->
<g id="edge46" class="edge">
<title>Node1106&#45;&gt;Node1141</title>
<path fill="none" stroke="#191970" d="M93.1356,-233.9202C110.8544,-226.5014 132.8763,-217.7311 153,-211 160.105,-208.6235 167.6869,-206.3316 175.1469,-204.2119"/>
<polygon fill="#191970" stroke="#191970" points="176.1287,-207.5719 184.8333,-201.532 174.262,-200.8253 176.1287,-207.5719"/>
</g>
<!-- Node1108 -->
<g id="node3" class="node">
<title>Node1108</title>
<g id="a_node3"><a xlink:href="../../d1/d08/_expression_8c.html#ae347a42a06aa09fad64c2865f34f4b16" target="_top" xlink:title="omc_Expression_compare">
<polygon fill="#ffffff" stroke="#000000" points="671,-280.5 671,-299.5 803,-299.5 803,-280.5 671,-280.5"/>
<text text-anchor="middle" x="737" y="-287.5" font-family="Helvetica,sans-Serif" font-size="10.00" fill="#000000">omc_Expression_compare</text>
</a>
</g>
</g>
<!-- Node1107&#45;&gt;Node1108 -->
<g id="edge2" class="edge">
<title>Node1107&#45;&gt;Node1108</title>
<path fill="none" stroke="#191970" d="M635.4655,-290C643.7813,-290 652.3217,-290 660.7488,-290"/>
<polygon fill="#191970" stroke="#191970" points="660.9493,-293.5001 670.9493,-290 660.9492,-286.5001 660.9493,-293.5001"/>
</g>
<!-- Node1108&#45;&gt;Node1108 -->
<g id="edge23" class="edge">
<title>Node1108&#45;&gt;Node1108</title>
<path fill="none" stroke="#191970" d="M711.1063,-299.7571C698.5094,-308.5653 707.1406,-318 737,-318 757.0618,-318 767.5408,-313.741 768.4371,-308.2746"/>
<polygon fill="#191970" stroke="#191970" points="771.2819,-306.2291 762.8937,-299.7571 765.415,-310.0475 771.2819,-306.2291"/>
</g>
<!-- Node1109 -->
<g id="node4" class="node">
<title>Node1109</title>
<g id="a_node4"><a xlink:href="../../d9/d7c/_compiler_2boot_2build_2util_8c.html#a8c1b9eb65476185bd4d9073249caefa4" target="_top" xlink:title="omc_Util_intCompare">
<polygon fill="#ffffff" stroke="#000000" points="1273,-458.5 1273,-477.5 1384,-477.5 1384,-458.5 1273,-458.5"/>
<text text-anchor="middle" x="1328.5" y="-465.5" font-family="Helvetica,sans-Serif" font-size="10.00" fill="#000000">omc_Util_intCompare</text>
</a>
</g>
</g>
<!-- Node1108&#45;&gt;Node1109 -->
<g id="edge3" class="edge">
<title>Node1108&#45;&gt;Node1109</title>
<path fill="none" stroke="#191970" d="M739.8725,-299.5653C748.945,-327.8738 779.9416,-411.3528 839,-445 909.41,-485.1145 1146.0896,-478.2634 1262.5928,-472.1316"/>
<polygon fill="#191970" stroke="#191970" points="1263.0085,-475.6143 1272.8051,-471.5796 1262.6307,-468.6245 1263.0085,-475.6143"/>
</g>
<!-- Node1110 -->
<g id="node5" class="node">
<title>Node1110</title>
<g id="a_node5"><a xlink:href="../../d9/d7c/_compiler_2boot_2build_2util_8c.html#ad3153e4a426627a738650a4f34f9c2ce" target="_top" xlink:title="omc_Util_realCompare">
<polygon fill="#ffffff" stroke="#000000" points="866,-340.5 866,-359.5 982,-359.5 982,-340.5 866,-340.5"/>
<text text-anchor="middle" x="924" y="-347.5" font-family="Helvetica,sans-Serif" font-size="10.00" fill="#000000">omc_Util_realCompare</text>
</a>
</g>
</g>
<!-- Node1108&#45;&gt;Node1110 -->
<g id="edge4" class="edge">
<title>Node1108&#45;&gt;Node1110</title>
<path fill="none" stroke="#191970" d="M758.1257,-299.666C778.5034,-308.7072 810.3836,-322.1148 839,-331 847.3939,-333.6062 856.358,-336.0085 865.2007,-338.165"/>
<polygon fill="#191970" stroke="#191970" points="864.5601,-341.6097 875.0959,-340.4931 866.1633,-334.7958 864.5601,-341.6097"/>
</g>
<!-- Node1111 -->
<g id="node6" class="node">
<title>Node1111</title>
<g id="a_node6"><a xlink:href="../../d9/d7c/_compiler_2boot_2build_2util_8c.html#a6f55cec19f885ce4f99b4bfa140e48c0" target="_top" xlink:title="omc_Util_boolCompare">
<polygon fill="#ffffff" stroke="#000000" points="864.5,-302.5 864.5,-321.5 983.5,-321.5 983.5,-302.5 864.5,-302.5"/>
<text text-anchor="middle" x="924" y="-309.5" font-family="Helvetica,sans-Serif" font-size="10.00" fill="#000000">omc_Util_boolCompare</text>
</a>
</g>
</g>
<!-- Node1108&#45;&gt;Node1111 -->
<g id="edge5" class="edge">
<title>Node1108&#45;&gt;Node1111</title>
<path fill="none" stroke="#191970" d="M803.1924,-297.7873C819.7239,-299.7322 837.504,-301.824 854.2039,-303.7887"/>
<polygon fill="#191970" stroke="#191970" points="854.101,-307.3006 864.4415,-304.9931 854.919,-300.3486 854.101,-307.3006"/>
</g>
<!-- Node1112 -->
<g id="node7" class="node">
<title>Node1112</title>
<g id="a_node7"><a xlink:href="../../d0/d78/_absyn_8c.html#a32967c17d7e54d1e80801db59aa80bb5" target="_top" xlink:title="omc_Absyn_pathCompare">
<polygon fill="#ffffff" stroke="#000000" points="1061,-378.5 1061,-397.5 1193,-397.5 1193,-378.5 1061,-378.5"/>
<text text-anchor="middle" x="1127" y="-385.5" font-family="Helvetica,sans-Serif" font-size="10.00" fill="#000000">omc_Absyn_pathCompare</text>
</a>
</g>
</g>
<!-- Node1108&#45;&gt;Node1112 -->
<g id="edge6" class="edge">
<title>Node1108&#45;&gt;Node1112</title>
<path fill="none" stroke="#191970" d="M745.6515,-299.7591C761.9076,-317.3215 798.9981,-353.8316 839,-369 907.319,-394.906 991.2465,-397.4647 1050.837,-394.8681"/>
<polygon fill="#191970" stroke="#191970" points="1051.1122,-398.3588 1060.9271,-394.3692 1050.7664,-391.3674 1051.1122,-398.3588"/>
</g>
<!-- Node1113 -->
<g id="node8" class="node">
<title>Node1113</title>
<g id="a_node8"><a xlink:href="../../d9/d14/_component_reference_8c.html#aed25fca780782b5468b9d436b3666d7c" target="_top" xlink:title="omc_ComponentReference\l_crefCompareGeneric">
<polygon fill="#ffffff" stroke="#000000" points="856,-253 856,-283 992,-283 992,-253 856,-253"/>
<text text-anchor="start" x="864" y="-271" font-family="Helvetica,sans-Serif" font-size="10.00" fill="#000000">omc_ComponentReference</text>
<text text-anchor="middle" x="924" y="-260" font-family="Helvetica,sans-Serif" font-size="10.00" fill="#000000">_crefCompareGeneric</text>
</a>
</g>
</g>
<!-- Node1108&#45;&gt;Node1113 -->
<g id="edge7" class="edge">
<title>Node1108&#45;&gt;Node1113</title>
<path fill="none" stroke="#191970" d="M803.1924,-282.2127C816.8888,-280.6013 831.4421,-278.8892 845.5282,-277.232"/>
<polygon fill="#191970" stroke="#191970" points="846.161,-280.6818 855.6835,-276.0372 845.3431,-273.7297 846.161,-280.6818"/>
</g>
<!-- Node1117 -->
<g id="node12" class="node">
<title>Node1117</title>
<g id="a_node12"><a xlink:href="../../dc/dd0/build_2include_2omc_2c_2meta_2meta__modelica_8h.html#af129ecd241889f9515fe7ae33e186ea5" target="_top" xlink:title="valueCompare">
<polygon fill="#ffffff" stroke="#000000" points="884,-214.5 884,-233.5 964,-233.5 964,-214.5 884,-214.5"/>
<text text-anchor="middle" x="924" y="-221.5" font-family="Helvetica,sans-Serif" font-size="10.00" fill="#000000">valueCompare</text>
</a>
</g>
</g>
<!-- Node1108&#45;&gt;Node1117 -->
<g id="edge11" class="edge">
<title>Node1108&#45;&gt;Node1117</title>
<path fill="none" stroke="#191970" d="M754.5867,-280.4991C774.5518,-270.0472 808.3367,-253.361 839,-243 850.0798,-239.2562 862.2234,-236.0403 873.7766,-233.375"/>
<polygon fill="#191970" stroke="#191970" points="874.7262,-236.7497 883.7358,-231.1751 873.2163,-229.9145 874.7262,-236.7497"/>
</g>
<!-- Node1118 -->
<g id="node13" class="node">
<title>Node1118</title>
<g id="a_node13"><a xlink:href="../../d1/d08/_expression_8c.html#a1c182fcc3301078d2ea3a6d950aae225" target="_top" xlink:title="omc_Expression_compareList">
<polygon fill="#ffffff" stroke="#000000" points="1053,-501.5 1053,-520.5 1201,-520.5 1201,-501.5 1053,-501.5"/>
<text text-anchor="middle" x="1127" y="-508.5" font-family="Helvetica,sans-Serif" font-size="10.00" fill="#000000">omc_Expression_compareList</text>
</a>
</g>
</g>
<!-- Node1108&#45;&gt;Node1118 -->
<g id="edge12" class="edge">
<title>Node1108&#45;&gt;Node1118</title>
<path fill="none" stroke="#191970" d="M739.8979,-299.5043C748.1885,-330.545 775.6034,-426.1946 839,-469 898.5616,-509.216 981.2876,-514.8341 1042.8022,-513.5013"/>
<polygon fill="#191970" stroke="#191970" points="1042.973,-516.998 1052.8709,-513.2188 1042.7767,-510.0007 1042.973,-516.998"/>
</g>
<!-- Node1120 -->
<g id="node15" class="node">
<title>Node1120</title>
<g id="a_node15"><a xlink:href="../../d1/d08/_expression_8c.html#a6d48a641aea85397e12d356d4578dfe2" target="_top" xlink:title="omc_Expression_compareListList">
<polygon fill="#ffffff" stroke="#000000" points="842,-548.5 842,-567.5 1006,-567.5 1006,-548.5 842,-548.5"/>
<text text-anchor="middle" x="924" y="-555.5" font-family="Helvetica,sans-Serif" font-size="10.00" fill="#000000">omc_Expression_compareListList</text>
</a>
</g>
</g>
<!-- Node1108&#45;&gt;Node1120 -->
<g id="edge16" class="edge">
<title>Node1108&#45;&gt;Node1120</title>
<path fill="none" stroke="#191970" d="M738.0598,-299.6389C742.5985,-336.1596 763.739,-467.3202 839,-534 843.5586,-538.0389 848.7488,-541.4022 854.2648,-544.2023"/>
<polygon fill="#191970" stroke="#191970" points="853.2392,-547.575 863.8016,-548.403 856.0609,-541.1689 853.2392,-547.575"/>
</g>
<!-- Node1121 -->
<g id="node16" class="node">
<title>Node1121</title>
<g id="a_node16"><a xlink:href="../../d1/d08/_expression_8c.html#a8c477fe35fb2e4dd1e7b0f8d9b0113d3" target="_top" xlink:title="omc_Expression_operatorCompare">
<polygon fill="#ffffff" stroke="#000000" points="839,-416.5 839,-435.5 1009,-435.5 1009,-416.5 839,-416.5"/>
<text text-anchor="middle" x="924" y="-423.5" font-family="Helvetica,sans-Serif" font-size="10.00" fill="#000000">omc_Expression_operatorCompare</text>
</a>
</g>
</g>
<!-- Node1108&#45;&gt;Node1121 -->
<g id="edge20" class="edge">
<title>Node1108&#45;&gt;Node1121</title>
<path fill="none" stroke="#191970" d="M743.0843,-299.7632C757.1696,-321.5411 794.2582,-374.3439 839,-402 846.3919,-406.5691 854.6765,-410.2914 863.0965,-413.3179"/>
<polygon fill="#191970" stroke="#191970" points="862.0271,-416.6506 872.62,-416.4473 864.2124,-410.0004 862.0271,-416.6506"/>
</g>
<!-- Node1122 -->
<g id="node17" class="node">
<title>Node1122</title>
<g id="a_node17"><a xlink:href="../../d1/d08/_expression_8c.html#a3a159120e7085130201616ed56bab4a9" target="_top" xlink:title="omc_Expression_compareOpt">
<polygon fill="#ffffff" stroke="#000000" points="850,-176.5 850,-195.5 998,-195.5 998,-176.5 850,-176.5"/>
<text text-anchor="middle" x="924" y="-183.5" font-family="Helvetica,sans-Serif" font-size="10.00" fill="#000000">omc_Expression_compareOpt</text>
</a>
</g>
</g>
<!-- Node1108&#45;&gt;Node1122 -->
<g id="edge24" class="edge">
<title>Node1108&#45;&gt;Node1122</title>
<path fill="none" stroke="#191970" d="M741.8759,-280.216C755.5319,-260.0523 795.9809,-217.1707 839,-196 839.5512,-195.7288 840.1062,-195.4613 840.665,-195.1977"/>
<polygon fill="#191970" stroke="#191970" points="842.1439,-198.3725 849.9942,-191.2576 839.4204,-191.9241 842.1439,-198.3725"/>
</g>
<!-- Node1123 -->
<g id="node18" class="node">
<title>Node1123</title>
<g id="a_node18"><a xlink:href="../../d7/deb/build_2include_2omc_2c_2util_2modelica__string_8c.html#a672ff4045e2d75c0029e6cc5d7f0a507" target="_top" xlink:title="modelica_integer_to\l_modelica_string">
<polygon fill="#ffffff" stroke="#000000" points="872,-127 872,-157 976,-157 976,-127 872,-127"/>
<text text-anchor="start" x="880" y="-145" font-family="Helvetica,sans-Serif" font-size="10.00" fill="#000000">modelica_integer_to</text>
<text text-anchor="middle" x="924" y="-134" font-family="Helvetica,sans-Serif" font-size="10.00" fill="#000000">_modelica_string</text>
</a>
</g>
</g>
<!-- Node1108&#45;&gt;Node1123 -->
<g id="edge26" class="edge">
<title>Node1108&#45;&gt;Node1123</title>
<path fill="none" stroke="#191970" d="M742.2574,-280.349C755.3867,-257.1651 791.9643,-197.9682 839,-167 846.1102,-162.3186 854.1188,-158.4929 862.305,-155.3718"/>
<polygon fill="#191970" stroke="#191970" points="863.6542,-158.6084 871.9533,-152.0223 861.3585,-151.9955 863.6542,-158.6084"/>
</g>
<!-- Node1124 -->
<g id="node19" class="node">
<title>Node1124</title>
<g id="a_node19"><a xlink:href="../../d7/deb/build_2include_2omc_2c_2util_2modelica__string_8c.html#a751007abc59e9ca7978f2af10a0c814f" target="_top" xlink:title="stringAppend">
<polygon fill="#ffffff" stroke="#000000" points="887,-88.5 887,-107.5 961,-107.5 961,-88.5 887,-88.5"/>
<text text-anchor="middle" x="924" y="-95.5" font-family="Helvetica,sans-Serif" font-size="10.00" fill="#000000">stringAppend</text>
</a>
</g>
</g>
<!-- Node1108&#45;&gt;Node1124 -->
<g id="edge27" class="edge">
<title>Node1108&#45;&gt;Node1124</title>
<path fill="none" stroke="#191970" d="M739.7067,-280.279C748.5031,-250.5906 779.2291,-160.4873 839,-117 850.0103,-108.9893 863.7916,-104.2633 877.0322,-101.5023"/>
<polygon fill="#191970" stroke="#191970" points="877.7534,-104.9293 886.9972,-99.7522 876.5425,-98.0348 877.7534,-104.9293"/>
</g>
<!-- Node1125 -->
<g id="node20" class="node">
<title>Node1125</title>
<g id="a_node20"><a xlink:href="../../d8/d16/_expression_dump_8c.html#ab1b14f2e6c847006a4235d1905bb2637" target="_top" xlink:title="omc_ExpressionDump\l_printExpStr">
<polygon fill="#ffffff" stroke="#000000" points="866,-39 866,-69 982,-69 982,-39 866,-39"/>
<text text-anchor="start" x="874" y="-57" font-family="Helvetica,sans-Serif" font-size="10.00" fill="#000000">omc_ExpressionDump</text>
<text text-anchor="middle" x="924" y="-46" font-family="Helvetica,sans-Serif" font-size="10.00" fill="#000000">_printExpStr</text>
</a>
</g>
</g>
<!-- Node1108&#45;&gt;Node1125 -->
<g id="edge28" class="edge">
<title>Node1108&#45;&gt;Node1125</title>
<path fill="none" stroke="#191970" d="M738.7829,-280.3186C745.4371,-246.9755 771.9676,-135.8374 839,-79 844.2025,-74.5887 850.1531,-70.9556 856.4364,-67.9633"/>
<polygon fill="#191970" stroke="#191970" points="857.9644,-71.1179 865.832,-64.0219 855.2565,-64.6628 857.9644,-71.1179"/>
</g>
<!-- Node1131 -->
<g id="node26" class="node">
<title>Node1131</title>
<g id="a_node26"><a xlink:href="../../db/da1/_compiler_2boot_2build_2error_8c.html#af2095b97605381e4a896bbbf299ba506" target="_top" xlink:title="omc_Error_addInternalError">
<polygon fill="#ffffff" stroke="#000000" points="856,-.5 856,-19.5 992,-19.5 992,-.5 856,-.5"/>
<text text-anchor="middle" x="924" y="-7.5" font-family="Helvetica,sans-Serif" font-size="10.00" fill="#000000">omc_Error_addInternalError</text>
</a>
</g>
</g>
<!-- Node1108&#45;&gt;Node1131 -->
<g id="edge34" class="edge">
<title>Node1108&#45;&gt;Node1131</title>
<path fill="none" stroke="#191970" d="M737.6435,-280.3646C740.7474,-242.0045 757.5839,-98.8491 839,-29 841.3903,-26.9493 843.9543,-25.1065 846.6479,-23.4514"/>
<polygon fill="#191970" stroke="#191970" points="848.3785,-26.4965 855.6376,-18.7792 845.1504,-20.2853 848.3785,-26.4965"/>
</g>
<!-- Node1114 -->
<g id="node9" class="node">
<title>Node1114</title>
<g id="a_node9"><a xlink:href="../../d9/d14/_component_reference_8c.html#a9a3bc1c607fce9b05543ff90c7daa061" target="_top" xlink:title="omc_ComponentReference\l_CompareWithGenericSubscript\l_compare">
<polygon fill="#ffffff" stroke="#000000" points="1048.5,-247.5 1048.5,-288.5 1205.5,-288.5 1205.5,-247.5 1048.5,-247.5"/>
<text text-anchor="start" x="1056.5" y="-276.5" font-family="Helvetica,sans-Serif" font-size="10.00" fill="#000000">omc_ComponentReference</text>
<text text-anchor="start" x="1056.5" y="-265.5" font-family="Helvetica,sans-Serif" font-size="10.00" fill="#000000">_CompareWithGenericSubscript</text>
<text text-anchor="middle" x="1127" y="-254.5" font-family="Helvetica,sans-Serif" font-size="10.00" fill="#000000">_compare</text>
</a>
</g>
</g>
<!-- Node1113&#45;&gt;Node1114 -->
<g id="edge8" class="edge">
<title>Node1113&#45;&gt;Node1114</title>
<path fill="none" stroke="#191970" d="M992.1608,-268C1006.9006,-268 1022.6956,-268 1038.0976,-268"/>
<polygon fill="#191970" stroke="#191970" points="1038.1472,-271.5001 1048.1471,-268 1038.1471,-264.5001 1038.1472,-271.5001"/>
</g>
<!-- Node1115 -->
<g id="node10" class="node">
<title>Node1115</title>
<g id="a_node10"><a xlink:href="../../d9/d14/_component_reference_8c.html#a2ad21168d248f7cd3e4f01c91ad6d96b" target="_top" xlink:title="omc_ComponentReference\l_CompareWithGenericSubscript\l_compareSubs">
<polygon fill="#ffffff" stroke="#000000" points="1250,-247.5 1250,-288.5 1407,-288.5 1407,-247.5 1250,-247.5"/>
<text text-anchor="start" x="1258" y="-276.5" font-family="Helvetica,sans-Serif" font-size="10.00" fill="#000000">omc_ComponentReference</text>
<text text-anchor="start" x="1258" y="-265.5" font-family="Helvetica,sans-Serif" font-size="10.00" fill="#000000">_CompareWithGenericSubscript</text>
<text text-anchor="middle" x="1328.5" y="-254.5" font-family="Helvetica,sans-Serif" font-size="10.00" fill="#000000">_compareSubs</text>
</a>
</g>
</g>
<!-- Node1114&#45;&gt;Node1115 -->
<g id="edge9" class="edge">
<title>Node1114&#45;&gt;Node1115</title>
<path fill="none" stroke="#191970" d="M1205.7709,-268C1216.8417,-268 1228.2848,-268 1239.5293,-268"/>
<polygon fill="#191970" stroke="#191970" points="1239.7839,-271.5001 1249.7838,-268 1239.7838,-264.5001 1239.7839,-271.5001"/>
</g>
<!-- Node1116 -->
<g id="node11" class="node">
<title>Node1116</title>
<g id="a_node11"><a xlink:href="../../d8/d16/_expression_dump_8c.html#aafa80c8c9fb7c5a026da080e4ec312ff" target="_top" xlink:title="omc_ExpressionDump\l_printSubscriptStr">
<polygon fill="#ffffff" stroke="#000000" points="1458.5,-253 1458.5,-283 1574.5,-283 1574.5,-253 1458.5,-253"/>
<text text-anchor="start" x="1466.5" y="-271" font-family="Helvetica,sans-Serif" font-size="10.00" fill="#000000">omc_ExpressionDump</text>
<text text-anchor="middle" x="1516.5" y="-260" font-family="Helvetica,sans-Serif" font-size="10.00" fill="#000000">_printSubscriptStr</text>
</a>
</g>
</g>
<!-- Node1115&#45;&gt;Node1116 -->
<g id="edge10" class="edge">
<title>Node1115&#45;&gt;Node1116</title>
<path fill="none" stroke="#191970" d="M1407.1396,-268C1420.8505,-268 1435.0095,-268 1448.407,-268"/>
<polygon fill="#191970" stroke="#191970" points="1448.4836,-271.5001 1458.4836,-268 1448.4836,-264.5001 1448.4836,-271.5001"/>
</g>
<!-- Node1118&#45;&gt;Node1108 -->
<g id="edge15" class="edge">
<title>Node1118&#45;&gt;Node1108</title>
<path fill="none" stroke="#191970" d="M1100.0102,-520.5586C1045.5017,-532.2687 920.5425,-542.0575 839,-487 776.4173,-444.7441 748.8983,-350.9921 740.2267,-309.7091"/>
<polygon fill="#191970" stroke="#191970" points="743.6375,-308.912 738.3043,-299.7573 736.7645,-310.2396 743.6375,-308.912"/>
</g>
<!-- Node1118&#45;&gt;Node1109 -->
<g id="edge14" class="edge">
<title>Node1118&#45;&gt;Node1109</title>
<path fill="none" stroke="#191970" d="M1171.7194,-501.4569C1201.8504,-495.027 1241.7851,-486.5049 1273.8088,-479.6711"/>
<polygon fill="#191970" stroke="#191970" points="1274.8563,-483.0264 1283.9056,-477.5164 1273.3953,-476.1806 1274.8563,-483.0264"/>
</g>
<!-- Node1119 -->
<g id="node14" class="node">
<title>Node1119</title>
<g id="a_node14"><a xlink:href="../../d2/d57/build_2include_2omc_2c_2meta_2meta__modelica__builtin_8h.html#a6983369f3c3e3e8cc41ac483c9a9baf1" target="_top" xlink:title="listLength">
<polygon fill="#ffffff" stroke="#000000" points="1299,-539.5 1299,-558.5 1358,-558.5 1358,-539.5 1299,-539.5"/>
<text text-anchor="middle" x="1328.5" y="-546.5" font-family="Helvetica,sans-Serif" font-size="10.00" fill="#000000">listLength</text>
</a>
</g>
</g>
<!-- Node1118&#45;&gt;Node1119 -->
<g id="edge13" class="edge">
<title>Node1118&#45;&gt;Node1119</title>
<path fill="none" stroke="#191970" d="M1177.5869,-520.54C1212.0905,-527.0468 1257.1323,-535.5411 1288.9992,-541.5507"/>
<polygon fill="#191970" stroke="#191970" points="1288.3771,-544.995 1298.8526,-543.4089 1289.6744,-538.1163 1288.3771,-544.995"/>
</g>
<!-- Node1120&#45;&gt;Node1109 -->
<g id="edge18" class="edge">
<title>Node1120&#45;&gt;Node1109</title>
<path fill="none" stroke="#191970" d="M1006.0356,-558.1316C1063.8522,-556.2599 1142.5059,-549.717 1209,-530 1245.0037,-519.3241 1282.8864,-497.6265 1306.1071,-482.9476"/>
<polygon fill="#191970" stroke="#191970" points="1308.029,-485.8729 1314.5405,-477.5152 1304.2383,-479.9881 1308.029,-485.8729"/>
</g>
<!-- Node1120&#45;&gt;Node1118 -->
<g id="edge19" class="edge">
<title>Node1120&#45;&gt;Node1118</title>
<path fill="none" stroke="#191970" d="M965.0801,-548.4888C997.03,-541.0916 1041.5378,-530.7868 1075.8062,-522.8527"/>
<polygon fill="#191970" stroke="#191970" points="1076.6803,-526.243 1085.6331,-520.5776 1075.1014,-519.4234 1076.6803,-526.243"/>
</g>
<!-- Node1120&#45;&gt;Node1119 -->
<g id="edge17" class="edge">
<title>Node1120&#45;&gt;Node1119</title>
<path fill="none" stroke="#191970" d="M1006.0709,-562.731C1063.0521,-565.2097 1140.7008,-566.9872 1209,-563 1235.5826,-561.4482 1265.3224,-557.9704 1288.4838,-554.8695"/>
<polygon fill="#191970" stroke="#191970" points="1289.1954,-558.3048 1298.6276,-553.4796 1288.2451,-551.3696 1289.1954,-558.3048"/>
</g>
<!-- Node1121&#45;&gt;Node1109 -->
<g id="edge22" class="edge">
<title>Node1121&#45;&gt;Node1109</title>
<path fill="none" stroke="#191970" d="M1009.2599,-431.7138C1065.9675,-435.8746 1142.0532,-442.1477 1209,-450 1226.5061,-452.0533 1245.3919,-454.6975 1262.8665,-457.3236"/>
<polygon fill="#191970" stroke="#191970" points="1262.558,-460.8169 1272.9712,-458.8631 1263.6124,-453.8967 1262.558,-460.8169"/>
</g>
<!-- Node1121&#45;&gt;Node1112 -->
<g id="edge21" class="edge">
<title>Node1121&#45;&gt;Node1112</title>
<path fill="none" stroke="#191970" d="M974.9634,-416.46C1002.5941,-411.2878 1036.9328,-404.8599 1065.9811,-399.4222"/>
<polygon fill="#191970" stroke="#191970" points="1066.8303,-402.8242 1076.0156,-397.5439 1065.5423,-395.9437 1066.8303,-402.8242"/>
</g>
<!-- Node1122&#45;&gt;Node1108 -->
<g id="edge25" class="edge">
<title>Node1122&#45;&gt;Node1108</title>
<path fill="none" stroke="#191970" d="M901.0125,-195.5228C883.3291,-199.509 858.6725,-204.3187 839,-214 807.8732,-229.3182 778.0919,-256.0029 758.832,-273.5667"/>
<polygon fill="#191970" stroke="#191970" points="756.2835,-271.1537 751.2487,-280.4758 760.998,-276.3281 756.2835,-271.1537"/>
</g>
<!-- Node1126 -->
<g id="node21" class="node">
<title>Node1126</title>
<g id="a_node21"><a xlink:href="../../d7/d52/_tpl_8c.html#a19e668217f7d6c0b176843e40633cae2" target="_top" xlink:title="omc_Tpl_tplString2">
<polygon fill="#ffffff" stroke="#000000" points="1076.5,-44.5 1076.5,-63.5 1177.5,-63.5 1177.5,-44.5 1076.5,-44.5"/>
<text text-anchor="middle" x="1127" y="-51.5" font-family="Helvetica,sans-Serif" font-size="10.00" fill="#000000">omc_Tpl_tplString2</text>
</a>
</g>
</g>
<!-- Node1125&#45;&gt;Node1126 -->
<g id="edge29" class="edge">
<title>Node1125&#45;&gt;Node1126</title>
<path fill="none" stroke="#191970" d="M982.1717,-54C1008.443,-54 1039.482,-54 1066.0735,-54"/>
<polygon fill="#191970" stroke="#191970" points="1066.4064,-57.5001 1076.4064,-54 1066.4064,-50.5001 1066.4064,-57.5001"/>
</g>
<!-- Node1127 -->
<g id="node22" class="node">
<title>Node1127</title>
<g id="a_node22"><a xlink:href="../../db/da1/_compiler_2boot_2build_2error_8c.html#a6f9ff3d03e91883492e13af7fbc088ff" target="_top" xlink:title="omc_Error_getNumErrorMessages">
<polygon fill="#ffffff" stroke="#000000" points="1245,-79.5 1245,-98.5 1412,-98.5 1412,-79.5 1245,-79.5"/>
<text text-anchor="middle" x="1328.5" y="-86.5" font-family="Helvetica,sans-Serif" font-size="10.00" fill="#000000">omc_Error_getNumErrorMessages</text>
</a>
</g>
</g>
<!-- Node1126&#45;&gt;Node1127 -->
<g id="edge30" class="edge">
<title>Node1126&#45;&gt;Node1127</title>
<path fill="none" stroke="#191970" d="M1177.5869,-62.7868C1203.6476,-67.3135 1235.7203,-72.8844 1263.5871,-77.7248"/>
<polygon fill="#191970" stroke="#191970" points="1263.1931,-81.2087 1273.6446,-79.4718 1264.3911,-74.312 1263.1931,-81.2087"/>
</g>
<!-- Node1130 -->
<g id="node25" class="node">
<title>Node1130</title>
<g id="a_node25"><a xlink:href="../../d7/d52/_tpl_8c.html#af79df210cda1bb788fce4ef64cb58a0f" target="_top" xlink:title="omc_Tpl_tplCallWithFailError2">
<polygon fill="#ffffff" stroke="#000000" points="1254,-41.5 1254,-60.5 1403,-60.5 1403,-41.5 1254,-41.5"/>
<text text-anchor="middle" x="1328.5" y="-48.5" font-family="Helvetica,sans-Serif" font-size="10.00" fill="#000000">omc_Tpl_tplCallWithFailError2</text>
</a>
</g>
</g>
<!-- Node1126&#45;&gt;Node1130 -->
<g id="edge33" class="edge">
<title>Node1126&#45;&gt;Node1130</title>
<path fill="none" stroke="#191970" d="M1177.5869,-53.2468C1197.6038,-52.9488 1221.1674,-52.598 1243.6478,-52.2633"/>
<polygon fill="#191970" stroke="#191970" points="1243.937,-55.7595 1253.8838,-52.1109 1243.8327,-48.7603 1243.937,-55.7595"/>
</g>
<!-- Node1128 -->
<g id="node23" class="node">
<title>Node1128</title>
<g id="a_node23"><a xlink:href="../../d4/dce/_error_ext_8c.html#a0195f83af0487b3e7bf35deb4225e582" target="_top" xlink:title="omc_ErrorExt_getNumError\lMessages">
<polygon fill="#ffffff" stroke="#000000" points="1448,-74 1448,-104 1585,-104 1585,-74 1448,-74"/>
<text text-anchor="start" x="1456" y="-92" font-family="Helvetica,sans-Serif" font-size="10.00" fill="#000000">omc_ErrorExt_getNumError</text>
<text text-anchor="middle" x="1516.5" y="-81" font-family="Helvetica,sans-Serif" font-size="10.00" fill="#000000">Messages</text>
</a>
</g>
</g>
<!-- Node1127&#45;&gt;Node1128 -->
<g id="edge31" class="edge">
<title>Node1127&#45;&gt;Node1128</title>
<path fill="none" stroke="#191970" d="M1412.0544,-89C1420.5601,-89 1429.1814,-89 1437.635,-89"/>
<polygon fill="#191970" stroke="#191970" points="1437.8443,-92.5001 1447.8442,-89 1437.8442,-85.5001 1437.8443,-92.5001"/>
</g>
<!-- Node1129 -->
<g id="node24" class="node">
<title>Node1129</title>
<g id="a_node24"><a xlink:href="../../d1/d40/boot_2build_2_error_ext_8h.html#a1206137921767ad0e49abe96adf7b5e3" target="_top" xlink:title="ErrorImpl__getNumErrorMessages">
<polygon fill="#ffffff" stroke="#000000" points="1621,-79.5 1621,-98.5 1788,-98.5 1788,-79.5 1621,-79.5"/>
<text text-anchor="middle" x="1704.5" y="-86.5" font-family="Helvetica,sans-Serif" font-size="10.00" fill="#000000">ErrorImpl__getNumErrorMessages</text>
</a>
</g>
</g>
<!-- Node1128&#45;&gt;Node1129 -->
<g id="edge32" class="edge">
<title>Node1128&#45;&gt;Node1129</title>
<path fill="none" stroke="#191970" d="M1585.1703,-89C1593.5388,-89 1602.1966,-89 1610.8505,-89"/>
<polygon fill="#191970" stroke="#191970" points="1610.9901,-92.5001 1620.99,-89 1610.99,-85.5001 1610.9901,-92.5001"/>
</g>
<!-- Node1132 -->
<g id="node27" class="node">
<title>Node1132</title>
<g id="a_node27"><a xlink:href="../../d1/d5c/_config_8c.html#afa2f208e09cd9979df49295043109099" target="_top" xlink:title="omc_Config_getRunningTestsuite">
<polygon fill="#ffffff" stroke="#000000" points="1045,-.5 1045,-19.5 1209,-19.5 1209,-.5 1045,-.5"/>
<text text-anchor="middle" x="1127" y="-7.5" font-family="Helvetica,sans-Serif" font-size="10.00" fill="#000000">omc_Config_getRunningTestsuite</text>
</a>
</g>
</g>
<!-- Node1131&#45;&gt;Node1132 -->
<g id="edge35" class="edge">
<title>Node1131&#45;&gt;Node1132</title>
<path fill="none" stroke="#191970" d="M992.1608,-10C1005.7857,-10 1020.3122,-10 1034.5964,-10"/>
<polygon fill="#191970" stroke="#191970" points="1034.9385,-13.5001 1044.9384,-10 1034.9384,-6.5001 1034.9385,-13.5001"/>
</g>
<!-- Node1133 -->
<g id="node28" class="node">
<title>Node1133</title>
<g id="a_node28"><a xlink:href="../../d3/db3/_flags_8c.html#a1bdc57ee7db1a86ebd954e1aa4d04c0c" target="_top" xlink:title="omc_Flags_getConfigString">
<polygon fill="#ffffff" stroke="#000000" points="1260,-.5 1260,-19.5 1397,-19.5 1397,-.5 1260,-.5"/>
<text text-anchor="middle" x="1328.5" y="-7.5" font-family="Helvetica,sans-Serif" font-size="10.00" fill="#000000">omc_Flags_getConfigString</text>
</a>
</g>
</g>
<!-- Node1132&#45;&gt;Node1133 -->
<g id="edge36" class="edge">
<title>Node1132&#45;&gt;Node1133</title>
<path fill="none" stroke="#191970" d="M1209.2484,-10C1222.6029,-10 1236.4065,-10 1249.6768,-10"/>
<polygon fill="#191970" stroke="#191970" points="1249.7044,-13.5001 1259.7044,-10 1249.7044,-6.5001 1249.7044,-13.5001"/>
</g>
<!-- Node1134 -->
<g id="node29" class="node">
<title>Node1134</title>
<g id="a_node29"><a xlink:href="../../d3/db3/_flags_8c.html#a96ba70d54b6662cf90933a207c0c6b8e" target="_top" xlink:title="omc_Flags_getConfigValue">
<polygon fill="#ffffff" stroke="#000000" points="1448,-.5 1448,-19.5 1585,-19.5 1585,-.5 1448,-.5"/>
<text text-anchor="middle" x="1516.5" y="-7.5" font-family="Helvetica,sans-Serif" font-size="10.00" fill="#000000">omc_Flags_getConfigValue</text>
</a>
</g>
</g>
<!-- Node1133&#45;&gt;Node1134 -->
<g id="edge37" class="edge">
<title>Node1133&#45;&gt;Node1134</title>
<path fill="none" stroke="#191970" d="M1397.1703,-10C1410.2933,-10 1424.1281,-10 1437.5431,-10"/>
<polygon fill="#191970" stroke="#191970" points="1437.7012,-13.5001 1447.7012,-10 1437.7011,-6.5001 1437.7012,-13.5001"/>
</g>
<!-- Node1135 -->
<g id="node30" class="node">
<title>Node1135</title>
<g id="a_node30"><a xlink:href="../../d3/db3/_flags_8c.html#a760d66f53b65ac257876ca0f6308f09f" target="_top" xlink:title="omc_Flags_loadFlags">
<polygon fill="#ffffff" stroke="#000000" points="1648.5,-.5 1648.5,-19.5 1760.5,-19.5 1760.5,-.5 1648.5,-.5"/>
<text text-anchor="middle" x="1704.5" y="-7.5" font-family="Helvetica,sans-Serif" font-size="10.00" fill="#000000">omc_Flags_loadFlags</text>
</a>
</g>
</g>
<!-- Node1134&#45;&gt;Node1135 -->
<g id="edge38" class="edge">
<title>Node1134&#45;&gt;Node1135</title>
<path fill="none" stroke="#191970" d="M1585.1703,-10C1602.3694,-10 1620.7909,-10 1637.8881,-10"/>
<polygon fill="#191970" stroke="#191970" points="1638.3395,-13.5001 1648.3395,-10 1638.3395,-6.5001 1638.3395,-13.5001"/>
</g>
<!-- Node1136 -->
<g id="node31" class="node">
<title>Node1136</title>
<g id="a_node31"><a xlink:href="../../da/d72/_compiler_2boot_2build_2list_8c.html#a3ec1ee3a5ff53be9af368e290be09182" target="_top" xlink:title="omc_List_fold">
<polygon fill="#ffffff" stroke="#000000" points="1824,-.5 1824,-19.5 1901,-19.5 1901,-.5 1824,-.5"/>
<text text-anchor="middle" x="1862.5" y="-7.5" font-family="Helvetica,sans-Serif" font-size="10.00" fill="#000000">omc_List_fold</text>
</a>
</g>
</g>
<!-- Node1135&#45;&gt;Node1136 -->
<g id="edge39" class="edge">
<title>Node1135&#45;&gt;Node1136</title>
<path fill="none" stroke="#191970" d="M1760.6498,-10C1777.9848,-10 1796.926,-10 1813.7212,-10"/>
<polygon fill="#191970" stroke="#191970" points="1813.8678,-13.5001 1823.8678,-10 1813.8678,-6.5001 1813.8678,-13.5001"/>
</g>
<!-- Node1137&#45;&gt;Node1137 -->
<g id="edge43" class="edge">
<title>Node1137&#45;&gt;Node1137</title>
<path fill="none" stroke="#191970" d="M194.9196,-327.159C188.0279,-336.5566 197.5547,-345.5 223.5,-345.5 239.3104,-345.5 249.024,-342.179 252.6408,-337.4579"/>
<polygon fill="#191970" stroke="#191970" points="256.1187,-336.954 252.0804,-327.159 249.129,-337.3344 256.1187,-336.954"/>
</g>
<!-- Node1138 -->
<g id="node33" class="node">
<title>Node1138</title>
<g id="a_node33"><a xlink:href="../../d1/d08/_expression_8c.html#a0f17643e97cff8b34eef160eb3f04e98" target="_top" xlink:title="omc_Expression_subscript\lEqual">
<polygon fill="#ffffff" stroke="#000000" points="330,-297 330,-327 464,-327 464,-297 330,-297"/>
<text text-anchor="start" x="338" y="-315" font-family="Helvetica,sans-Serif" font-size="10.00" fill="#000000">omc_Expression_subscript</text>
<text text-anchor="middle" x="397" y="-304" font-family="Helvetica,sans-Serif" font-size="10.00" fill="#000000">Equal</text>
</a>
</g>
</g>
<!-- Node1137&#45;&gt;Node1138 -->
<g id="edge41" class="edge">
<title>Node1137&#45;&gt;Node1138</title>
<path fill="none" stroke="#191970" d="M294.0691,-312C302.4731,-312 311.0871,-312 319.5804,-312"/>
<polygon fill="#191970" stroke="#191970" points="319.8583,-315.5001 329.8583,-312 319.8583,-308.5001 319.8583,-315.5001"/>
</g>
<!-- Node1138&#45;&gt;Node1107 -->
<g id="edge42" class="edge">
<title>Node1138&#45;&gt;Node1107</title>
<path fill="none" stroke="#191970" d="M464.3861,-303.305C472.658,-302.2377 481.1648,-301.14 489.5758,-300.0547"/>
<polygon fill="#191970" stroke="#191970" points="490.2958,-303.4909 499.7656,-298.7399 489.3999,-296.5485 490.2958,-303.4909"/>
</g>
<!-- Node1140 -->
<g id="node35" class="node">
<title>Node1140</title>
<g id="a_node35"><a xlink:href="../../d7/dda/_algorithm_8c.html#a0acd6b008ee387d9fa1759bbbdbbbcfe" target="_top" xlink:title="omc_Algorithm_getAllExps\lStmts">
<polygon fill="#ffffff" stroke="#000000" points="330,-209 330,-239 464,-239 464,-209 330,-209"/>
<text text-anchor="start" x="338" y="-227" font-family="Helvetica,sans-Serif" font-size="10.00" fill="#000000">omc_Algorithm_getAllExps</text>
<text text-anchor="middle" x="397" y="-216" font-family="Helvetica,sans-Serif" font-size="10.00" fill="#000000">Stmts</text>
</a>
</g>
</g>
<!-- Node1139&#45;&gt;Node1140 -->
<g id="edge45" class="edge">
<title>Node1139&#45;&gt;Node1140</title>
<path fill="none" stroke="#191970" d="M290.5796,-227.6802C300.134,-227.3498 310.0243,-227.0078 319.7533,-226.6714"/>
<polygon fill="#191970" stroke="#191970" points="319.9397,-230.1671 329.8127,-226.3235 319.6977,-223.1713 319.9397,-230.1671"/>
</g>
</g>
</svg>
