<?xml version="1.0" encoding="UTF-8" standalone="no"?>
<!DOCTYPE svg PUBLIC "-//W3C//DTD SVG 1.1//EN"
 "http://www.w3.org/Graphics/SVG/1.1/DTD/svg11.dtd">
<!-- Generated by graphviz version 2.40.1 (20161225.0304)
 -->
<!-- Title: ma77_analyse Pages: 1 -->
<svg width="428pt" height="39pt"
 viewBox="0.00 0.00 428.00 39.00" xmlns="http://www.w3.org/2000/svg" xmlns:xlink="http://www.w3.org/1999/xlink">
<g id="graph0" class="graph" transform="scale(1 1) rotate(0) translate(4 35)">
<title>ma77_analyse</title>
<polygon fill="#ffffff" stroke="transparent" points="-4,4 -4,-35 424,-35 424,4 -4,4"/>
<!-- Node3 -->
<g id="node1" class="node">
<title>Node3</title>
<polygon fill="#bfbfbf" stroke="#000000" points="0,-6 0,-25 80,-25 80,-6 0,-6"/>
<text text-anchor="middle" x="40" y="-13" font-family="Helvetica,sans-Serif" font-size="10.00" fill="#000000">ma77_analyse</text>
</g>
<!-- Node4 -->
<g id="node2" class="node">
<title>Node4</title>
<g id="a_node2"><a xlink:href="../../d6/dfd/class_ipopt_1_1_ma77_solver_interface.html#aab3a4cfbabbf3ee2d41cb7997cf0484a" target="_top" xlink:title="Ipopt::Ma77SolverInterface\l::InitializeStructure">
<polygon fill="#ffffff" stroke="#000000" points="116,-.5 116,-30.5 250,-30.5 250,-.5 116,-.5"/>
<text text-anchor="start" x="124" y="-18.5" font-family="Helvetica,sans-Serif" font-size="10.00" fill="#000000">Ipopt::Ma77SolverInterface</text>
<text text-anchor="middle" x="183" y="-7.5" font-family="Helvetica,sans-Serif" font-size="10.00" fill="#000000">::InitializeStructure</text>
</a>
</g>
</g>
<!-- Node3&#45;&gt;Node4 -->
<g id="edge1" class="edge">
<title>Node3&#45;&gt;Node4</title>
<path fill="none" stroke="#191970" d="M90.3655,-15.5C98.5817,-15.5 107.207,-15.5 115.751,-15.5"/>
<polygon fill="#191970" stroke="#191970" points="90.2141,-12.0001 80.214,-15.5 90.214,-19.0001 90.2141,-12.0001"/>
</g>
<!-- Node5 -->
<g id="node3" class="node">
<title>Node5</title>
<g id="a_node3"><a xlink:href="../../d6/dfd/class_ipopt_1_1_ma77_solver_interface.html#a779ea3d2cc8a49ed744313a185e84569" target="_top" xlink:title="Ipopt::Ma77SolverInterface\l::Ma77SolverInterface">
<polygon fill="#ffffff" stroke="#000000" points="286,-.5 286,-30.5 420,-30.5 420,-.5 286,-.5"/>
<text text-anchor="start" x="294" y="-18.5" font-family="Helvetica,sans-Serif" font-size="10.00" fill="#000000">Ipopt::Ma77SolverInterface</text>
<text text-anchor="middle" x="353" y="-7.5" font-family="Helvetica,sans-Serif" font-size="10.00" fill="#000000">::Ma77SolverInterface</text>
</a>
</g>
</g>
<!-- Node4&#45;&gt;Node5 -->
<g id="edge2" class="edge">
<title>Node4&#45;&gt;Node5</title>
<path fill="none" stroke="#191970" d="M260.4246,-15.5C268.8759,-15.5 277.4279,-15.5 285.7428,-15.5"/>
<polygon fill="#191970" stroke="#191970" points="260.1885,-12.0001 250.1885,-15.5 260.1885,-19.0001 260.1885,-12.0001"/>
</g>
</g>
</svg>
