<?xml version="1.0" encoding="UTF-8" standalone="no"?>
<!DOCTYPE svg PUBLIC "-//W3C//DTD SVG 1.1//EN"
 "http://www.w3.org/Graphics/SVG/1.1/DTD/svg11.dtd">
<!-- Generated by graphviz version 2.40.1 (20161225.0304)
 -->
<!-- Title: MLAPI::DistributedMatrix::IsFillCompleted Pages: 1 -->
<svg width="904pt" height="180pt"
 viewBox="0.00 0.00 904.00 180.00" xmlns="http://www.w3.org/2000/svg" xmlns:xlink="http://www.w3.org/1999/xlink">
<g id="graph0" class="graph" transform="scale(1 1) rotate(0) translate(4 176)">
<title>MLAPI::DistributedMatrix::IsFillCompleted</title>
<polygon fill="#ffffff" stroke="transparent" points="-4,4 -4,-176 900,-176 900,4 -4,4"/>
<!-- Node76 -->
<g id="node1" class="node">
<title>Node76</title>
<polygon fill="#bfbfbf" stroke="#000000" points="0,-90 0,-120 127,-120 127,-90 0,-90"/>
<text text-anchor="start" x="8" y="-108" font-family="Helvetica,sans-Serif" font-size="10.00" fill="#000000">MLAPI::DistributedMatrix</text>
<text text-anchor="middle" x="63.5" y="-97" font-family="Helvetica,sans-Serif" font-size="10.00" fill="#000000">::IsFillCompleted</text>
</g>
<!-- Node77 -->
<g id="node2" class="node">
<title>Node77</title>
<g id="a_node2"><a xlink:href="../../d1/dfc/class_m_l_a_p_i_1_1_distributed_matrix.html#a1a46fadfa716bec2f35fe51e21765a7a" target="_top" xlink:title="MLAPI::DistributedMatrix\l::DistributedMatrix">
<polygon fill="#ffffff" stroke="#000000" points="163,-90 163,-120 290,-120 290,-90 163,-90"/>
<text text-anchor="start" x="171" y="-108" font-family="Helvetica,sans-Serif" font-size="10.00" fill="#000000">MLAPI::DistributedMatrix</text>
<text text-anchor="middle" x="226.5" y="-97" font-family="Helvetica,sans-Serif" font-size="10.00" fill="#000000">::DistributedMatrix</text>
</a>
</g>
</g>
<!-- Node76&#45;&gt;Node77 -->
<g id="edge1" class="edge">
<title>Node76&#45;&gt;Node77</title>
<path fill="none" stroke="#191970" d="M127.4541,-105C135.7606,-105 144.3224,-105 152.7718,-105"/>
<polygon fill="#191970" stroke="#191970" points="152.9977,-108.5001 162.9977,-105 152.9977,-101.5001 152.9977,-108.5001"/>
</g>
<!-- Node78 -->
<g id="node3" class="node">
<title>Node78</title>
<g id="a_node3"><a xlink:href="../../df/d94/class_m_l_a_p_i_1_1_space.html#a8d3e433f1d72d28a3b4a96a86330175a" target="_top" xlink:title="Returns the local number of elements on the calling process. ">
<polygon fill="#ffffff" stroke="#000000" points="326,-114.5 326,-133.5 504,-133.5 504,-114.5 326,-114.5"/>
<text text-anchor="middle" x="415" y="-121.5" font-family="Helvetica,sans-Serif" font-size="10.00" fill="#000000">MLAPI::Space::GetNumMyElements</text>
</a>
</g>
</g>
<!-- Node77&#45;&gt;Node78 -->
<g id="edge2" class="edge">
<title>Node77&#45;&gt;Node78</title>
<path fill="none" stroke="#191970" d="M290.0547,-111.406C298.4416,-112.2514 307.1925,-113.1335 315.9989,-114.0211"/>
<polygon fill="#191970" stroke="#191970" points="315.6481,-117.5034 325.9487,-115.024 316.3501,-110.5387 315.6481,-117.5034"/>
</g>
<!-- Node79 -->
<g id="node4" class="node">
<title>Node79</title>
<g id="a_node4"><a xlink:href="../../d8/dc5/namespace_m_l_a_p_i.html#acbfef34e0a3fafbf63e44c4f792539de" target="_top" xlink:title="Returns a reference to the Epetra_Comm object defined on MPI_COMM_WORLD. ">
<polygon fill="#ffffff" stroke="#000000" points="349.5,-76.5 349.5,-95.5 480.5,-95.5 480.5,-76.5 349.5,-76.5"/>
<text text-anchor="middle" x="415" y="-83.5" font-family="Helvetica,sans-Serif" font-size="10.00" fill="#000000">MLAPI::GetEpetra_Comm</text>
</a>
</g>
</g>
<!-- Node77&#45;&gt;Node79 -->
<g id="edge3" class="edge">
<title>Node77&#45;&gt;Node79</title>
<path fill="none" stroke="#191970" d="M290.0547,-98.594C305.8983,-96.997 323.041,-95.2691 339.4024,-93.6199"/>
<polygon fill="#191970" stroke="#191970" points="339.8717,-97.0904 349.4702,-92.6051 339.1696,-90.1257 339.8717,-97.0904"/>
</g>
<!-- Node80 -->
<g id="node5" class="node">
<title>Node80</title>
<g id="a_node5"><a xlink:href="../../d8/dc5/namespace_m_l_a_p_i.html#af368e6d9fa55ccd00a482cf01dbb9828" target="_top" xlink:title="Initialize the MLAPI workspace. ">
<polygon fill="#ffffff" stroke="#000000" points="540,-76.5 540,-95.5 606,-95.5 606,-76.5 540,-76.5"/>
<text text-anchor="middle" x="573" y="-83.5" font-family="Helvetica,sans-Serif" font-size="10.00" fill="#000000">MLAPI::Init</text>
</a>
</g>
</g>
<!-- Node79&#45;&gt;Node80 -->
<g id="edge4" class="edge">
<title>Node79&#45;&gt;Node80</title>
<path fill="none" stroke="#191970" d="M480.6336,-86C497.1668,-86 514.5045,-86 529.6356,-86"/>
<polygon fill="#191970" stroke="#191970" points="529.7215,-89.5001 539.7215,-86 529.7215,-82.5001 529.7215,-89.5001"/>
</g>
<!-- Node81 -->
<g id="node6" class="node">
<title>Node81</title>
<g id="a_node6"><a xlink:href="../../db/d9d/ml__comm_8c.html#a3f5b4b43202f2266c66c03fbb9828ee9" target="_top" xlink:title="ML_Comm_Create">
<polygon fill="#ffffff" stroke="#000000" points="642,-76.5 642,-95.5 741,-95.5 741,-76.5 642,-76.5"/>
<text text-anchor="middle" x="691.5" y="-83.5" font-family="Helvetica,sans-Serif" font-size="10.00" fill="#000000">ML_Comm_Create</text>
</a>
</g>
</g>
<!-- Node80&#45;&gt;Node81 -->
<g id="edge5" class="edge">
<title>Node80&#45;&gt;Node81</title>
<path fill="none" stroke="#191970" d="M606.0089,-86C613.9828,-86 622.7514,-86 631.5408,-86"/>
<polygon fill="#191970" stroke="#191970" points="631.8221,-89.5001 641.8221,-86 631.822,-82.5001 631.8221,-89.5001"/>
</g>
<!-- Node82 -->
<g id="node7" class="node">
<title>Node82</title>
<g id="a_node7"><a xlink:href="../../d8/d08/ml__memory_8c.html#ab656aed9d908a79217671761d4ba9a75" target="_top" xlink:title="ML_memory_alloc">
<polygon fill="#ffffff" stroke="#000000" points="788.5,-152.5 788.5,-171.5 884.5,-171.5 884.5,-152.5 788.5,-152.5"/>
<text text-anchor="middle" x="836.5" y="-159.5" font-family="Helvetica,sans-Serif" font-size="10.00" fill="#000000">ML_memory_alloc</text>
</a>
</g>
</g>
<!-- Node81&#45;&gt;Node82 -->
<g id="edge6" class="edge">
<title>Node81&#45;&gt;Node82</title>
<path fill="none" stroke="#191970" d="M703.5877,-95.6547C719.5823,-108.0437 749.0292,-129.5386 777,-143 781.5848,-145.2065 786.4877,-147.2424 791.4383,-149.0962"/>
<polygon fill="#191970" stroke="#191970" points="790.351,-152.4239 800.9458,-152.4336 792.6695,-145.819 790.351,-152.4239"/>
</g>
<!-- Node83 -->
<g id="node8" class="node">
<title>Node83</title>
<g id="a_node8"><a xlink:href="../../db/d9d/ml__comm_8c.html#ab5e1732d86e453ee3ce38e90557769f4" target="_top" xlink:title="ML_Comm_Send">
<polygon fill="#ffffff" stroke="#000000" points="790.5,-114.5 790.5,-133.5 882.5,-133.5 882.5,-114.5 790.5,-114.5"/>
<text text-anchor="middle" x="836.5" y="-121.5" font-family="Helvetica,sans-Serif" font-size="10.00" fill="#000000">ML_Comm_Send</text>
</a>
</g>
</g>
<!-- Node81&#45;&gt;Node83 -->
<g id="edge7" class="edge">
<title>Node81&#45;&gt;Node83</title>
<path fill="none" stroke="#191970" d="M728.0896,-95.589C746.9654,-100.5358 770.1859,-106.6211 790.2879,-111.8892"/>
<polygon fill="#191970" stroke="#191970" points="789.6129,-115.3305 800.1735,-114.4799 791.3875,-108.5591 789.6129,-115.3305"/>
</g>
<!-- Node84 -->
<g id="node9" class="node">
<title>Node84</title>
<g id="a_node9"><a xlink:href="../../db/d9d/ml__comm_8c.html#a8277254ecafe9059965b2b80d5b23d91" target="_top" xlink:title="ML_Comm_Irecv">
<polygon fill="#ffffff" stroke="#000000" points="790.5,-76.5 790.5,-95.5 882.5,-95.5 882.5,-76.5 790.5,-76.5"/>
<text text-anchor="middle" x="836.5" y="-83.5" font-family="Helvetica,sans-Serif" font-size="10.00" fill="#000000">ML_Comm_Irecv</text>
</a>
</g>
</g>
<!-- Node81&#45;&gt;Node84 -->
<g id="edge8" class="edge">
<title>Node81&#45;&gt;Node84</title>
<path fill="none" stroke="#191970" d="M741.4008,-86C753.941,-86 767.4836,-86 780.3081,-86"/>
<polygon fill="#191970" stroke="#191970" points="780.4063,-89.5001 790.4063,-86 780.4063,-82.5001 780.4063,-89.5001"/>
</g>
<!-- Node85 -->
<g id="node10" class="node">
<title>Node85</title>
<g id="a_node10"><a xlink:href="../../db/d9d/ml__comm_8c.html#a4828144003381d45a69f1248be36e3be" target="_top" xlink:title="ML_Comm_Wait">
<polygon fill="#ffffff" stroke="#000000" points="791.5,-38.5 791.5,-57.5 881.5,-57.5 881.5,-38.5 791.5,-38.5"/>
<text text-anchor="middle" x="836.5" y="-45.5" font-family="Helvetica,sans-Serif" font-size="10.00" fill="#000000">ML_Comm_Wait</text>
</a>
</g>
</g>
<!-- Node81&#45;&gt;Node85 -->
<g id="edge9" class="edge">
<title>Node81&#45;&gt;Node85</title>
<path fill="none" stroke="#191970" d="M728.0896,-76.411C746.9654,-71.4642 770.1859,-65.3789 790.2879,-60.1108"/>
<polygon fill="#191970" stroke="#191970" points="791.3875,-63.4409 800.1735,-57.5201 789.6129,-56.6695 791.3875,-63.4409"/>
</g>
<!-- Node86 -->
<g id="node11" class="node">
<title>Node86</title>
<g id="a_node11"><a xlink:href="../../db/d9d/ml__comm_8c.html#a575a6d49ab2f64baf5f865987b30c577" target="_top" xlink:title="ML_Comm_CheapWait">
<polygon fill="#ffffff" stroke="#000000" points="777,-.5 777,-19.5 896,-19.5 896,-.5 777,-.5"/>
<text text-anchor="middle" x="836.5" y="-7.5" font-family="Helvetica,sans-Serif" font-size="10.00" fill="#000000">ML_Comm_CheapWait</text>
</a>
</g>
</g>
<!-- Node81&#45;&gt;Node86 -->
<g id="edge10" class="edge">
<title>Node81&#45;&gt;Node86</title>
<path fill="none" stroke="#191970" d="M703.5877,-76.3453C719.5823,-63.9563 749.0292,-42.4614 777,-29 781.5848,-26.7935 786.4877,-24.7576 791.4383,-22.9038"/>
<polygon fill="#191970" stroke="#191970" points="792.6695,-26.181 800.9458,-19.5664 790.351,-19.5761 792.6695,-26.181"/>
</g>
</g>
</svg>
