<?xml version="1.0" encoding="UTF-8" standalone="no"?>
<!DOCTYPE svg PUBLIC "-//W3C//DTD SVG 1.1//EN"
 "http://www.w3.org/Graphics/SVG/1.1/DTD/svg11.dtd">
<!-- Generated by graphviz version 2.40.1 (20161225.0304)
 -->
<!-- Title: zmq::pgm_sender_t::in_event Pages: 1 -->
<svg width="407pt" height="61pt"
 viewBox="0.00 0.00 407.00 61.00" xmlns="http://www.w3.org/2000/svg" xmlns:xlink="http://www.w3.org/1999/xlink">
<g id="graph0" class="graph" transform="scale(1 1) rotate(0) translate(4 57)">
<title>zmq::pgm_sender_t::in_event</title>
<polygon fill="#ffffff" stroke="transparent" points="-4,4 -4,-57 403,-57 403,4 -4,4"/>
<!-- Node22 -->
<g id="node1" class="node">
<title>Node22</title>
<polygon fill="#bfbfbf" stroke="#000000" points="0,-.5 0,-30.5 109,-30.5 109,-.5 0,-.5"/>
<text text-anchor="start" x="8" y="-18.5" font-family="Helvetica,sans-Serif" font-size="10.00" fill="#000000">zmq::pgm_sender_t::</text>
<text text-anchor="middle" x="54.5" y="-7.5" font-family="Helvetica,sans-Serif" font-size="10.00" fill="#000000">in_event</text>
</g>
<!-- Node23 -->
<g id="node2" class="node">
<title>Node23</title>
<g id="a_node2"><a xlink:href="../../d2/df4/classzmq_1_1pgm__sender__t.html#ad0ea6c58b0cb8d3fdf7f49e0c0db7a8a" target="_top" xlink:title="zmq::pgm_sender_t::\ltimer_event">
<polygon fill="#ffffff" stroke="#000000" points="145,-22.5 145,-52.5 254,-52.5 254,-22.5 145,-22.5"/>
<text text-anchor="start" x="153" y="-40.5" font-family="Helvetica,sans-Serif" font-size="10.00" fill="#000000">zmq::pgm_sender_t::</text>
<text text-anchor="middle" x="199.5" y="-29.5" font-family="Helvetica,sans-Serif" font-size="10.00" fill="#000000">timer_event</text>
</a>
</g>
</g>
<!-- Node22&#45;&gt;Node23 -->
<g id="edge1" class="edge">
<title>Node22&#45;&gt;Node23</title>
<path fill="none" stroke="#191970" d="M119.4621,-25.3563C127.8588,-26.6303 136.3919,-27.925 144.6042,-29.171"/>
<polygon fill="#191970" stroke="#191970" points="119.7302,-21.857 109.3183,-23.8173 118.6801,-28.7778 119.7302,-21.857"/>
</g>
<!-- Node24 -->
<g id="node3" class="node">
<title>Node24</title>
<g id="a_node3"><a xlink:href="../../d2/df4/classzmq_1_1pgm__sender__t.html#acfb592e0ffbe71ba7c8174b5ef392613" target="_top" xlink:title="zmq::pgm_sender_t::\lzap_msg_available">
<polygon fill="#ffffff" stroke="#000000" points="290,-.5 290,-30.5 399,-30.5 399,-.5 290,-.5"/>
<text text-anchor="start" x="298" y="-18.5" font-family="Helvetica,sans-Serif" font-size="10.00" fill="#000000">zmq::pgm_sender_t::</text>
<text text-anchor="middle" x="344.5" y="-7.5" font-family="Helvetica,sans-Serif" font-size="10.00" fill="#000000">zap_msg_available</text>
</a>
</g>
</g>
<!-- Node22&#45;&gt;Node24 -->
<g id="edge3" class="edge">
<title>Node22&#45;&gt;Node24</title>
<path fill="none" stroke="#191970" d="M119.1659,-13.897C127.8501,-13.7326 136.6418,-13.5923 145,-13.5 193.4415,-12.9648 205.5585,-12.9648 254,-13.5 265.6289,-13.6285 278.0967,-13.8498 289.9468,-14.0995"/>
<polygon fill="#191970" stroke="#191970" points="118.981,-10.3999 109.0532,-14.0995 119.1213,-17.3985 118.981,-10.3999"/>
</g>
<!-- Node23&#45;&gt;Node24 -->
<g id="edge2" class="edge">
<title>Node23&#45;&gt;Node24</title>
<path fill="none" stroke="#191970" d="M264.4621,-27.6437C272.8588,-26.3697 281.3919,-25.075 289.6042,-23.829"/>
<polygon fill="#191970" stroke="#191970" points="263.6801,-24.2222 254.3183,-29.1827 264.7302,-31.143 263.6801,-24.2222"/>
</g>
</g>
</svg>
