<?xml version="1.0" encoding="UTF-8" standalone="no"?>
<!DOCTYPE svg PUBLIC "-//W3C//DTD SVG 1.1//EN"
 "http://www.w3.org/Graphics/SVG/1.1/DTD/svg11.dtd">
<!-- Generated by graphviz version 2.40.1 (20161225.0304)
 -->
<!-- Title: Teuchos::TEUCHOS_UNIT_TEST Pages: 1 -->
<svg width="369pt" height="137pt"
 viewBox="0.00 0.00 369.00 137.00" xmlns="http://www.w3.org/2000/svg" xmlns:xlink="http://www.w3.org/1999/xlink">
<g id="graph0" class="graph" transform="scale(1 1) rotate(0) translate(4 133)">
<title>Teuchos::TEUCHOS_UNIT_TEST</title>
<polygon fill="#ffffff" stroke="transparent" points="-4,4 -4,-133 365,-133 365,4 -4,4"/>
<!-- Node7356 -->
<g id="node1" class="node">
<title>Node7356</title>
<polygon fill="#bfbfbf" stroke="#000000" points="0,-55 0,-74 170,-74 170,-55 0,-55"/>
<text text-anchor="middle" x="85" y="-62" font-family="Helvetica,sans-Serif" font-size="10.00" fill="#000000">Teuchos::TEUCHOS_UNIT_TEST</text>
</g>
<!-- Node7357 -->
<g id="node2" class="node">
<title>Node7357</title>
<g id="a_node2"><a xlink:href="../../d4/de3/class_teuchos_1_1_string_indexed_ordered_value_object_container.html#ab95a41b71847a7555017309920f6d356" target="_top" xlink:title="Set (or reset) object by value and return its ordinal index. ">
<polygon fill="#ffffff" stroke="#000000" points="206,-98.5 206,-128.5 361,-128.5 361,-98.5 206,-98.5"/>
<text text-anchor="start" x="214" y="-116.5" font-family="Helvetica,sans-Serif" font-size="10.00" fill="#000000">Teuchos::StringIndexedOrdered</text>
<text text-anchor="middle" x="283.5" y="-105.5" font-family="Helvetica,sans-Serif" font-size="10.00" fill="#000000">ValueObjectContainer::setObj</text>
</a>
</g>
</g>
<!-- Node7356&#45;&gt;Node7357 -->
<g id="edge1" class="edge">
<title>Node7356&#45;&gt;Node7357</title>
<path fill="none" stroke="#191970" d="M123.744,-74.064C148.9845,-80.2947 182.6675,-88.6094 212.5966,-95.9974"/>
<polygon fill="#191970" stroke="#191970" points="212.0375,-99.4644 222.585,-98.463 213.7152,-92.6684 212.0375,-99.4644"/>
</g>
<!-- Node7358 -->
<g id="node3" class="node">
<title>Node7358</title>
<g id="a_node3"><a xlink:href="../../d4/de3/class_teuchos_1_1_string_indexed_ordered_value_object_container.html#a767c2251987cb90dbed418b136ef4665" target="_top" xlink:title="Teuchos::StringIndexedOrdered\lValueObjectContainer::begin">
<polygon fill="#ffffff" stroke="#000000" points="206,-49.5 206,-79.5 361,-79.5 361,-49.5 206,-49.5"/>
<text text-anchor="start" x="214" y="-67.5" font-family="Helvetica,sans-Serif" font-size="10.00" fill="#000000">Teuchos::StringIndexedOrdered</text>
<text text-anchor="middle" x="283.5" y="-56.5" font-family="Helvetica,sans-Serif" font-size="10.00" fill="#000000">ValueObjectContainer::begin</text>
</a>
</g>
</g>
<!-- Node7356&#45;&gt;Node7358 -->
<g id="edge2" class="edge">
<title>Node7356&#45;&gt;Node7358</title>
<path fill="none" stroke="#191970" d="M170.0457,-64.5C178.4992,-64.5 187.0931,-64.5 195.5752,-64.5"/>
<polygon fill="#191970" stroke="#191970" points="195.8491,-68.0001 205.8491,-64.5 195.849,-61.0001 195.8491,-68.0001"/>
</g>
<!-- Node7359 -->
<g id="node4" class="node">
<title>Node7359</title>
<g id="a_node4"><a xlink:href="../../d4/de3/class_teuchos_1_1_string_indexed_ordered_value_object_container.html#a0d44851bf4e451dcca31b30343c411e9" target="_top" xlink:title="Teuchos::StringIndexedOrdered\lValueObjectContainer::end">
<polygon fill="#ffffff" stroke="#000000" points="206,-.5 206,-30.5 361,-30.5 361,-.5 206,-.5"/>
<text text-anchor="start" x="214" y="-18.5" font-family="Helvetica,sans-Serif" font-size="10.00" fill="#000000">Teuchos::StringIndexedOrdered</text>
<text text-anchor="middle" x="283.5" y="-7.5" font-family="Helvetica,sans-Serif" font-size="10.00" fill="#000000">ValueObjectContainer::end</text>
</a>
</g>
</g>
<!-- Node7356&#45;&gt;Node7359 -->
<g id="edge3" class="edge">
<title>Node7356&#45;&gt;Node7359</title>
<path fill="none" stroke="#191970" d="M123.744,-54.936C148.9845,-48.7053 182.6675,-40.3906 212.5966,-33.0026"/>
<polygon fill="#191970" stroke="#191970" points="213.7152,-36.3316 222.585,-30.537 212.0375,-29.5356 213.7152,-36.3316"/>
</g>
</g>
</svg>
