<?xml version="1.0" encoding="UTF-8" standalone="no"?>
<!DOCTYPE svg PUBLIC "-//W3C//DTD SVG 1.1//EN"
 "http://www.w3.org/Graphics/SVG/1.1/DTD/svg11.dtd">
<!-- Generated by graphviz version 2.40.1 (20161225.0304)
 -->
<!-- Title: Teuchos::TEUCHOS_UNIT_TEST Pages: 1 -->
<svg width="415pt" height="88pt"
 viewBox="0.00 0.00 415.00 88.00" xmlns="http://www.w3.org/2000/svg" xmlns:xlink="http://www.w3.org/1999/xlink">
<g id="graph0" class="graph" transform="scale(1 1) rotate(0) translate(4 84)">
<title>Teuchos::TEUCHOS_UNIT_TEST</title>
<polygon fill="#ffffff" stroke="transparent" points="-4,4 -4,-84 411,-84 411,4 -4,4"/>
<!-- Node7092 -->
<g id="node1" class="node">
<title>Node7092</title>
<polygon fill="#bfbfbf" stroke="#000000" points="0,-30 0,-49 170,-49 170,-30 0,-30"/>
<text text-anchor="middle" x="85" y="-37" font-family="Helvetica,sans-Serif" font-size="10.00" fill="#000000">Teuchos::TEUCHOS_UNIT_TEST</text>
</g>
<!-- Node7093 -->
<g id="node2" class="node">
<title>Node7093</title>
<g id="a_node2"><a xlink:href="../../d4/de3/class_teuchos_1_1_string_indexed_ordered_value_object_container.html#ab95a41b71847a7555017309920f6d356" target="_top" xlink:title="Set (or reset) object by value and return its ordinal index. ">
<polygon fill="#ffffff" stroke="#000000" points="229,-49.5 229,-79.5 384,-79.5 384,-49.5 229,-49.5"/>
<text text-anchor="start" x="237" y="-67.5" font-family="Helvetica,sans-Serif" font-size="10.00" fill="#000000">Teuchos::StringIndexedOrdered</text>
<text text-anchor="middle" x="306.5" y="-56.5" font-family="Helvetica,sans-Serif" font-size="10.00" fill="#000000">ValueObjectContainer::setObj</text>
</a>
</g>
</g>
<!-- Node7092&#45;&gt;Node7093 -->
<g id="edge1" class="edge">
<title>Node7092&#45;&gt;Node7093</title>
<path fill="none" stroke="#191970" d="M169.3715,-49.0227C185.5706,-50.8511 202.5692,-52.7697 218.8685,-54.6093"/>
<polygon fill="#191970" stroke="#191970" points="218.5839,-58.0993 228.9134,-55.743 219.369,-51.1435 218.5839,-58.0993"/>
</g>
<!-- Node7094 -->
<g id="node3" class="node">
<title>Node7094</title>
<g id="a_node3"><a xlink:href="../../d4/de3/class_teuchos_1_1_string_indexed_ordered_value_object_container.html#a2127ead00268d48901490bd6a05dc2b8" target="_top" xlink:title="Get the ordinal index given the string key. ">
<polygon fill="#ffffff" stroke="#000000" points="206,-.5 206,-30.5 407,-30.5 407,-.5 206,-.5"/>
<text text-anchor="start" x="214" y="-18.5" font-family="Helvetica,sans-Serif" font-size="10.00" fill="#000000">Teuchos::StringIndexedOrdered</text>
<text text-anchor="middle" x="306.5" y="-7.5" font-family="Helvetica,sans-Serif" font-size="10.00" fill="#000000">ValueObjectContainer::getObjOrdinalIndex</text>
</a>
</g>
</g>
<!-- Node7092&#45;&gt;Node7094 -->
<g id="edge2" class="edge">
<title>Node7092&#45;&gt;Node7094</title>
<path fill="none" stroke="#191970" d="M170.0042,-30.2896C178.4222,-29.3775 187.0503,-28.4426 195.679,-27.5077"/>
<polygon fill="#191970" stroke="#191970" points="196.2313,-30.9684 205.7961,-26.4115 195.4772,-24.0092 196.2313,-30.9684"/>
</g>
</g>
</svg>
