<?xml version="1.0" encoding="UTF-8" standalone="no"?>
<!DOCTYPE svg PUBLIC "-//W3C//DTD SVG 1.1//EN"
 "http://www.w3.org/Graphics/SVG/1.1/DTD/svg11.dtd">
<!-- Generated by graphviz version 2.40.1 (20161225.0304)
 -->
<!-- Title: Teuchos::TEUCHOS_STATIC_SETUP Pages: 1 -->
<svg width="819pt" height="582pt"
 viewBox="0.00 0.00 819.00 581.50" xmlns="http://www.w3.org/2000/svg" xmlns:xlink="http://www.w3.org/1999/xlink">
<g id="graph0" class="graph" transform="scale(1 1) rotate(0) translate(4 577.5)">
<title>Teuchos::TEUCHOS_STATIC_SETUP</title>
<polygon fill="#ffffff" stroke="transparent" points="-4,4 -4,-577.5 815,-577.5 815,4 -4,4"/>
<!-- Node4351 -->
<g id="node1" class="node">
<title>Node4351</title>
<polygon fill="#bfbfbf" stroke="#000000" points="0,-203 0,-233 151,-233 151,-203 0,-203"/>
<text text-anchor="start" x="8" y="-221" font-family="Helvetica,sans-Serif" font-size="10.00" fill="#000000">Teuchos::TEUCHOS_STATIC</text>
<text text-anchor="middle" x="75.5" y="-210" font-family="Helvetica,sans-Serif" font-size="10.00" fill="#000000">_SETUP</text>
</g>
<!-- Node4352 -->
<g id="node2" class="node">
<title>Node4352</title>
<g id="a_node2"><a xlink:href="../../de/db9/class_teuchos_1_1_condition_x_m_l_converter_d_b.html#a4838057215733d2aec3f80e96e89f819" target="_top" xlink:title="Given an XMLObject and IDtoConditionMap, converts the XMLObject to a Condition. ">
<polygon fill="#ffffff" stroke="#000000" points="200.5,-466 200.5,-496 364.5,-496 364.5,-466 200.5,-466"/>
<text text-anchor="start" x="208.5" y="-484" font-family="Helvetica,sans-Serif" font-size="10.00" fill="#000000">Teuchos::ConditionXMLConverter</text>
<text text-anchor="middle" x="282.5" y="-473" font-family="Helvetica,sans-Serif" font-size="10.00" fill="#000000">DB::convertXML</text>
</a>
</g>
</g>
<!-- Node4351&#45;&gt;Node4352 -->
<g id="edge1" class="edge">
<title>Node4351&#45;&gt;Node4352</title>
<path fill="none" stroke="#191970" d="M90.4075,-242.0731C110.8287,-274.457 149.2826,-333.3691 187,-380 213.1031,-412.2719 247.2404,-446.7715 266.8326,-465.9372"/>
<polygon fill="#191970" stroke="#191970" points="93.1822,-239.9096 84.9053,-233.2958 87.2512,-243.6277 93.1822,-239.9096"/>
</g>
<!-- Node4356 -->
<g id="node6" class="node">
<title>Node4356</title>
<g id="a_node6"><a xlink:href="../../da/de4/class_teuchos_1_1_dependency_x_m_l_converter_d_b.html#aee59fb058b52ab86483fd1ebf0e0391f" target="_top" xlink:title="Given an XMLObject converts the XMLObject to a Dependency. ">
<polygon fill="#ffffff" stroke="#000000" points="193.5,-340 193.5,-370 371.5,-370 371.5,-340 193.5,-340"/>
<text text-anchor="start" x="201.5" y="-358" font-family="Helvetica,sans-Serif" font-size="10.00" fill="#000000">Teuchos::DependencyXMLConverter</text>
<text text-anchor="middle" x="282.5" y="-347" font-family="Helvetica,sans-Serif" font-size="10.00" fill="#000000">DB::convertXML</text>
</a>
</g>
</g>
<!-- Node4351&#45;&gt;Node4356 -->
<g id="edge5" class="edge">
<title>Node4351&#45;&gt;Node4356</title>
<path fill="none" stroke="#191970" d="M106.9197,-238.7947C149.0023,-266.6464 222.6627,-315.3976 259.7692,-339.9559"/>
<polygon fill="#191970" stroke="#191970" points="108.7143,-235.7853 98.4435,-233.1848 104.8509,-241.6226 108.7143,-235.7853"/>
</g>
<!-- Node4359 -->
<g id="node9" class="node">
<title>Node4359</title>
<g id="a_node9"><a xlink:href="../../d7/d63/class_teuchos_1_1_function_object_x_m_l_converter_d_b.html#af26be509dd0ba3c045ad629a33387e9c" target="_top" xlink:title="Given an XMLObject, converts the XMLObject to a FunctionObject. ">
<polygon fill="#ffffff" stroke="#000000" points="188,-203 188,-233 377,-233 377,-203 188,-203"/>
<text text-anchor="start" x="196" y="-221" font-family="Helvetica,sans-Serif" font-size="10.00" fill="#000000">Teuchos::FunctionObjectXMLConverter</text>
<text text-anchor="middle" x="282.5" y="-210" font-family="Helvetica,sans-Serif" font-size="10.00" fill="#000000">DB::convertXML</text>
</a>
</g>
</g>
<!-- Node4351&#45;&gt;Node4359 -->
<g id="edge8" class="edge">
<title>Node4351&#45;&gt;Node4359</title>
<path fill="none" stroke="#191970" d="M161.2581,-218C169.9834,-218 178.8821,-218 187.6961,-218"/>
<polygon fill="#191970" stroke="#191970" points="161.1105,-214.5001 151.1104,-218 161.1104,-221.5001 161.1105,-214.5001"/>
</g>
<!-- Node4364 -->
<g id="node14" class="node">
<title>Node4364</title>
<g id="a_node14"><a xlink:href="../../da/d6f/class_teuchos_1_1_parameter_entry_x_m_l_converter_d_b.html#a1ca00399ed27c47436f75a00c3ee6962" target="_top" xlink:title="Gets the default converter to be used on Parameter Entries. ">
<polygon fill="#ffffff" stroke="#000000" points="187,-88 187,-118 378,-118 378,-88 187,-88"/>
<text text-anchor="start" x="195" y="-106" font-family="Helvetica,sans-Serif" font-size="10.00" fill="#000000">Teuchos::ParameterEntryXMLConverter</text>
<text text-anchor="middle" x="282.5" y="-95" font-family="Helvetica,sans-Serif" font-size="10.00" fill="#000000">DB::getDefaultConverter</text>
</a>
</g>
</g>
<!-- Node4351&#45;&gt;Node4364 -->
<g id="edge13" class="edge">
<title>Node4351&#45;&gt;Node4364</title>
<path fill="none" stroke="#191970" d="M111.4084,-198.0509C152.4049,-175.275 218.5462,-138.5299 255.4317,-118.0379"/>
<polygon fill="#191970" stroke="#191970" points="109.6035,-195.0497 102.5616,-202.9658 113.003,-201.1688 109.6035,-195.0497"/>
</g>
<!-- Node4368 -->
<g id="node18" class="node">
<title>Node4368</title>
<g id="a_node18"><a xlink:href="../../d2/df8/class_teuchos_1_1_validator_x_m_l_converter_d_b.html#a9adaa0343873a1da2c9a0ea2fbd82c15" target="_top" xlink:title="prints the xml tags associated with all known converters ">
<polygon fill="#ffffff" stroke="#000000" points="202,-17 202,-47 363,-47 363,-17 202,-17"/>
<text text-anchor="start" x="210" y="-35" font-family="Helvetica,sans-Serif" font-size="10.00" fill="#000000">Teuchos::ValidatorXMLConverter</text>
<text text-anchor="middle" x="282.5" y="-24" font-family="Helvetica,sans-Serif" font-size="10.00" fill="#000000">DB::printKnownConverters</text>
</a>
</g>
</g>
<!-- Node4351&#45;&gt;Node4368 -->
<g id="edge17" class="edge">
<title>Node4351&#45;&gt;Node4368</title>
<path fill="none" stroke="#191970" d="M89.7813,-194.0165C108.7968,-163.7343 144.9621,-111.5489 187,-78 203.11,-65.1432 223.403,-54.7314 241.1354,-47.0862"/>
<polygon fill="#191970" stroke="#191970" points="86.7165,-192.3183 84.443,-202.6663 92.6734,-195.9946 86.7165,-192.3183"/>
</g>
<!-- Node4353 -->
<g id="node3" class="node">
<title>Node4353</title>
<g id="a_node3"><a xlink:href="../../d9/da1/class_teuchos_1_1_bool_logic_condition_converter.html#a4a03f546f94871920f272b046a359e36" target="_top" xlink:title="Teuchos::BoolLogicCondition\lConverter::convertXML">
<polygon fill="#ffffff" stroke="#000000" points="437.5,-543 437.5,-573 581.5,-573 581.5,-543 437.5,-543"/>
<text text-anchor="start" x="445.5" y="-561" font-family="Helvetica,sans-Serif" font-size="10.00" fill="#000000">Teuchos::BoolLogicCondition</text>
<text text-anchor="middle" x="509.5" y="-550" font-family="Helvetica,sans-Serif" font-size="10.00" fill="#000000">Converter::convertXML</text>
</a>
</g>
</g>
<!-- Node4352&#45;&gt;Node4353 -->
<g id="edge2" class="edge">
<title>Node4352&#45;&gt;Node4353</title>
<path fill="none" stroke="#191970" d="M325.4392,-500.0412C350.8706,-510.8798 383.9062,-524.205 414,-534 423.8349,-537.2011 434.355,-540.2296 444.6872,-542.9883"/>
<polygon fill="#191970" stroke="#191970" points="326.6562,-496.7547 316.0868,-496.0215 323.892,-503.1859 326.6562,-496.7547"/>
</g>
<!-- Node4354 -->
<g id="node4" class="node">
<title>Node4354</title>
<g id="a_node4"><a xlink:href="../../d2/dc3/class_teuchos_1_1_not_condition_converter.html#ac93433e5c2d65bc3d5560347277292d2" target="_top" xlink:title="Teuchos::NotConditionConverter\l::convertXML">
<polygon fill="#ffffff" stroke="#000000" points="429.5,-494 429.5,-524 589.5,-524 589.5,-494 429.5,-494"/>
<text text-anchor="start" x="437.5" y="-512" font-family="Helvetica,sans-Serif" font-size="10.00" fill="#000000">Teuchos::NotConditionConverter</text>
<text text-anchor="middle" x="509.5" y="-501" font-family="Helvetica,sans-Serif" font-size="10.00" fill="#000000">::convertXML</text>
</a>
</g>
</g>
<!-- Node4352&#45;&gt;Node4354 -->
<g id="edge3" class="edge">
<title>Node4352&#45;&gt;Node4354</title>
<path fill="none" stroke="#191970" d="M374.7478,-492.3786C392.863,-494.6131 411.7273,-496.9399 429.4047,-499.1204"/>
<polygon fill="#191970" stroke="#191970" points="375.1264,-488.8988 364.7732,-491.1482 374.2694,-495.8462 375.1264,-488.8988"/>
</g>
<!-- Node4355 -->
<g id="node5" class="node">
<title>Node4355</title>
<g id="a_node5"><a xlink:href="../../d4/d66/class_teuchos_1_1_condition_visual_dependency_x_m_l_converter.html#a8cafdf8b476c1f80eeca1c5e6fba2b76" target="_top" xlink:title="Teuchos::ConditionVisual\lDependencyXMLConverter\l::convertSpecialVisualAttributes">
<polygon fill="#ffffff" stroke="#000000" points="431.5,-433.5 431.5,-474.5 587.5,-474.5 587.5,-433.5 431.5,-433.5"/>
<text text-anchor="start" x="439.5" y="-462.5" font-family="Helvetica,sans-Serif" font-size="10.00" fill="#000000">Teuchos::ConditionVisual</text>
<text text-anchor="start" x="439.5" y="-451.5" font-family="Helvetica,sans-Serif" font-size="10.00" fill="#000000">DependencyXMLConverter</text>
<text text-anchor="middle" x="509.5" y="-440.5" font-family="Helvetica,sans-Serif" font-size="10.00" fill="#000000">::convertSpecialVisualAttributes</text>
</a>
</g>
</g>
<!-- Node4352&#45;&gt;Node4355 -->
<g id="edge4" class="edge">
<title>Node4352&#45;&gt;Node4355</title>
<path fill="none" stroke="#191970" d="M374.7918,-470.0226C393.5402,-467.7926 413.0893,-465.4674 431.2932,-463.3021"/>
<polygon fill="#191970" stroke="#191970" points="374.2897,-466.5575 364.7732,-471.2142 375.1166,-473.5085 374.2897,-466.5575"/>
</g>
<!-- Node4357 -->
<g id="node7" class="node">
<title>Node4357</title>
<g id="a_node7"><a xlink:href="../../da/d80/class_teuchos_1_1_x_m_l_parameter_list_reader.html#a5f164ecd09303da66042b5c7d8639833" target="_top" xlink:title="Teuchos::XMLParameterList\lReader::toParameterList">
<polygon fill="#ffffff" stroke="#000000" points="439,-384 439,-414 580,-414 580,-384 439,-384"/>
<text text-anchor="start" x="447" y="-402" font-family="Helvetica,sans-Serif" font-size="10.00" fill="#000000">Teuchos::XMLParameterList</text>
<text text-anchor="middle" x="509.5" y="-391" font-family="Helvetica,sans-Serif" font-size="10.00" fill="#000000">Reader::toParameterList</text>
</a>
</g>
</g>
<!-- Node4356&#45;&gt;Node4357 -->
<g id="edge6" class="edge">
<title>Node4356&#45;&gt;Node4357</title>
<path fill="none" stroke="#191970" d="M369.9925,-371.9589C392.7809,-376.376 417.0476,-381.0797 438.8437,-385.3045"/>
<polygon fill="#191970" stroke="#191970" points="370.469,-368.4862 359.9856,-370.0192 369.1369,-375.3583 370.469,-368.4862"/>
</g>
<!-- Node4358 -->
<g id="node8" class="node">
<title>Node4358</title>
<g id="a_node8"><a xlink:href="../../d3/d74/namespace_teuchos.html#aa5c6a4f18fc26343631e644717f11940" target="_top" xlink:title="Teuchos::TEUCHOS_UNIT_TEST">
<polygon fill="#ffffff" stroke="#000000" points="424.5,-345.5 424.5,-364.5 594.5,-364.5 594.5,-345.5 424.5,-345.5"/>
<text text-anchor="middle" x="509.5" y="-352.5" font-family="Helvetica,sans-Serif" font-size="10.00" fill="#000000">Teuchos::TEUCHOS_UNIT_TEST</text>
</a>
</g>
</g>
<!-- Node4356&#45;&gt;Node4358 -->
<g id="edge7" class="edge">
<title>Node4356&#45;&gt;Node4358</title>
<path fill="none" stroke="#191970" d="M381.8329,-355C396.0251,-355 410.5174,-355 424.4035,-355"/>
<polygon fill="#191970" stroke="#191970" points="381.5649,-351.5001 371.5649,-355 381.5649,-358.5001 381.5649,-351.5001"/>
</g>
<!-- Node4360 -->
<g id="node10" class="node">
<title>Node4360</title>
<g id="a_node10"><a xlink:href="../../d0/d56/class_teuchos_1_1_number_condition_converter.html#a10d6041f6a1ac89324946143418f56c1" target="_top" xlink:title="Teuchos::NumberCondition\lConverter::getSpecificParameter\lCondition">
<polygon fill="#ffffff" stroke="#000000" points="430,-285.5 430,-326.5 589,-326.5 589,-285.5 430,-285.5"/>
<text text-anchor="start" x="438" y="-314.5" font-family="Helvetica,sans-Serif" font-size="10.00" fill="#000000">Teuchos::NumberCondition</text>
<text text-anchor="start" x="438" y="-303.5" font-family="Helvetica,sans-Serif" font-size="10.00" fill="#000000">Converter::getSpecificParameter</text>
<text text-anchor="middle" x="509.5" y="-292.5" font-family="Helvetica,sans-Serif" font-size="10.00" fill="#000000">Condition</text>
</a>
</g>
</g>
<!-- Node4359&#45;&gt;Node4360 -->
<g id="edge9" class="edge">
<title>Node4359&#45;&gt;Node4360</title>
<path fill="none" stroke="#191970" d="M323.0615,-237.2876C348.8128,-249.1824 383.0093,-264.339 414,-276 422.6206,-279.2437 431.7651,-282.4302 440.847,-285.4441"/>
<polygon fill="#191970" stroke="#191970" points="324.5214,-234.1066 313.9779,-233.0653 321.5708,-240.4544 324.5214,-234.1066"/>
</g>
<!-- Node4361 -->
<g id="node11" class="node">
<title>Node4361</title>
<g id="a_node11"><a xlink:href="../../d7/d28/class_teuchos_1_1_number_visual_dependency_x_m_l_converter.html#a2ff4cb6da4f341b22008c3144d628a6b" target="_top" xlink:title="Teuchos::NumberVisualDependency\lXMLConverter::convertSpecialVisual\lAttributes">
<polygon fill="#ffffff" stroke="#000000" points="421,-225.5 421,-266.5 598,-266.5 598,-225.5 421,-225.5"/>
<text text-anchor="start" x="429" y="-254.5" font-family="Helvetica,sans-Serif" font-size="10.00" fill="#000000">Teuchos::NumberVisualDependency</text>
<text text-anchor="start" x="429" y="-243.5" font-family="Helvetica,sans-Serif" font-size="10.00" fill="#000000">XMLConverter::convertSpecialVisual</text>
<text text-anchor="middle" x="509.5" y="-232.5" font-family="Helvetica,sans-Serif" font-size="10.00" fill="#000000">Attributes</text>
</a>
</g>
</g>
<!-- Node4359&#45;&gt;Node4361 -->
<g id="edge10" class="edge">
<title>Node4359&#45;&gt;Node4361</title>
<path fill="none" stroke="#191970" d="M387.3605,-230.9343C398.5543,-232.3151 409.8609,-233.7097 420.8413,-235.0641"/>
<polygon fill="#191970" stroke="#191970" points="387.478,-227.4224 377.1247,-229.6718 386.621,-234.3697 387.478,-227.4224"/>
</g>
<!-- Node4362 -->
<g id="node12" class="node">
<title>Node4362</title>
<g id="a_node12"><a xlink:href="../../d7/d8e/class_teuchos_1_1_array_modifier_dependency_x_m_l_converter.html#ac226a7ebe57ece745ec68b290c67df8a" target="_top" xlink:title="Teuchos::ArrayModifierDependency\lXMLConverter::convertXML">
<polygon fill="#ffffff" stroke="#000000" points="423,-176 423,-206 596,-206 596,-176 423,-176"/>
<text text-anchor="start" x="431" y="-194" font-family="Helvetica,sans-Serif" font-size="10.00" fill="#000000">Teuchos::ArrayModifierDependency</text>
<text text-anchor="middle" x="509.5" y="-183" font-family="Helvetica,sans-Serif" font-size="10.00" fill="#000000">XMLConverter::convertXML</text>
</a>
</g>
</g>
<!-- Node4359&#45;&gt;Node4362 -->
<g id="edge11" class="edge">
<title>Node4359&#45;&gt;Node4362</title>
<path fill="none" stroke="#191970" d="M387.0783,-205.5612C398.9785,-204.1457 411.0103,-202.7146 422.6461,-201.3306"/>
<polygon fill="#191970" stroke="#191970" points="386.6413,-202.0884 377.1247,-206.7451 387.4681,-209.0394 386.6413,-202.0884"/>
</g>
<!-- Node4363 -->
<g id="node13" class="node">
<title>Node4363</title>
<g id="a_node13"><a xlink:href="../../d3/d74/namespace_teuchos.html#af8fbed22a50dd64c3ec0e3ff3ca72155" target="_top" xlink:title="Teuchos::TEUCHOS_UNIT_TEST">
<polygon fill="#ffffff" stroke="#000000" points="424.5,-137.5 424.5,-156.5 594.5,-156.5 594.5,-137.5 424.5,-137.5"/>
<text text-anchor="middle" x="509.5" y="-144.5" font-family="Helvetica,sans-Serif" font-size="10.00" fill="#000000">Teuchos::TEUCHOS_UNIT_TEST</text>
</a>
</g>
</g>
<!-- Node4359&#45;&gt;Node4363 -->
<g id="edge12" class="edge">
<title>Node4359&#45;&gt;Node4363</title>
<path fill="none" stroke="#191970" d="M326.1624,-198.9949C351.4629,-188.5083 384.1272,-175.8561 414,-167 427.4799,-163.0037 442.2577,-159.4964 456.0748,-156.5811"/>
<polygon fill="#191970" stroke="#191970" points="324.7195,-195.8046 316.8475,-202.8955 327.4233,-202.2613 324.7195,-195.8046"/>
</g>
<!-- Node4365 -->
<g id="node15" class="node">
<title>Node4365</title>
<g id="a_node15"><a xlink:href="../../db/d17/class_teuchos_1_1_parameter_entry_x_m_l_converter.html#a6a64418ea05237a32b4c664f10553846" target="_top" xlink:title="Converts the given parameter entry to xml. ">
<polygon fill="#ffffff" stroke="#000000" points="414,-88 414,-118 605,-118 605,-88 414,-88"/>
<text text-anchor="start" x="422" y="-106" font-family="Helvetica,sans-Serif" font-size="10.00" fill="#000000">Teuchos::ParameterEntryXMLConverter</text>
<text text-anchor="middle" x="509.5" y="-95" font-family="Helvetica,sans-Serif" font-size="10.00" fill="#000000">::fromParameterEntrytoXML</text>
</a>
</g>
</g>
<!-- Node4364&#45;&gt;Node4365 -->
<g id="edge14" class="edge">
<title>Node4364&#45;&gt;Node4365</title>
<path fill="none" stroke="#191970" d="M388.1812,-103C396.7936,-103 405.4664,-103 413.9999,-103"/>
<polygon fill="#191970" stroke="#191970" points="388.1106,-99.5001 378.1105,-103 388.1105,-106.5001 388.1106,-99.5001"/>
</g>
<!-- Node4367 -->
<g id="node17" class="node">
<title>Node4367</title>
<g id="a_node17"><a xlink:href="../../da/d6f/class_teuchos_1_1_parameter_entry_x_m_l_converter_d_b.html#a91fad35501912aa49bc35cf62c3a7f37" target="_top" xlink:title="Get an appropriate ParameterEntryXMLConverter given a ParameterEntry. ">
<polygon fill="#ffffff" stroke="#000000" points="414,-39 414,-69 605,-69 605,-39 414,-39"/>
<text text-anchor="start" x="422" y="-57" font-family="Helvetica,sans-Serif" font-size="10.00" fill="#000000">Teuchos::ParameterEntryXMLConverter</text>
<text text-anchor="middle" x="509.5" y="-46" font-family="Helvetica,sans-Serif" font-size="10.00" fill="#000000">DB::getConverter</text>
</a>
</g>
</g>
<!-- Node4364&#45;&gt;Node4367 -->
<g id="edge16" class="edge">
<title>Node4364&#45;&gt;Node4367</title>
<path fill="none" stroke="#191970" d="M362.1138,-85.8146C387.4978,-80.3353 415.3715,-74.3185 439.9815,-69.0062"/>
<polygon fill="#191970" stroke="#191970" points="361.1865,-82.4341 352.1502,-87.9654 362.6635,-89.2765 361.1865,-82.4341"/>
</g>
<!-- Node4366 -->
<g id="node16" class="node">
<title>Node4366</title>
<g id="a_node16"><a xlink:href="../../d3/d74/namespace_teuchos.html#a69622077710b13854c5f1ce335143d98" target="_top" xlink:title="Teuchos::TEUCHOS_UNIT_TEST">
<polygon fill="#ffffff" stroke="#000000" points="641,-93.5 641,-112.5 811,-112.5 811,-93.5 641,-93.5"/>
<text text-anchor="middle" x="726" y="-100.5" font-family="Helvetica,sans-Serif" font-size="10.00" fill="#000000">Teuchos::TEUCHOS_UNIT_TEST</text>
</a>
</g>
</g>
<!-- Node4365&#45;&gt;Node4366 -->
<g id="edge15" class="edge">
<title>Node4365&#45;&gt;Node4366</title>
<path fill="none" stroke="#191970" d="M615.1619,-103C623.761,-103 632.3819,-103 640.8074,-103"/>
<polygon fill="#191970" stroke="#191970" points="615.0903,-99.5001 605.0903,-103 615.0902,-106.5001 615.0903,-99.5001"/>
</g>
<!-- Node4369 -->
<g id="node19" class="node">
<title>Node4369</title>
<g id="a_node19"><a xlink:href="../../d3/d74/namespace_teuchos.html#a6f185922a055f563457aa4cb5200d1a3" target="_top" xlink:title="Teuchos::TEUCHOS_UNIT_TEST">
<polygon fill="#ffffff" stroke="#000000" points="424.5,-.5 424.5,-19.5 594.5,-19.5 594.5,-.5 424.5,-.5"/>
<text text-anchor="middle" x="509.5" y="-7.5" font-family="Helvetica,sans-Serif" font-size="10.00" fill="#000000">Teuchos::TEUCHOS_UNIT_TEST</text>
</a>
</g>
</g>
<!-- Node4368&#45;&gt;Node4369 -->
<g id="edge18" class="edge">
<title>Node4368&#45;&gt;Node4369</title>
<path fill="none" stroke="#191970" d="M373.5377,-23.177C390.3521,-21.5474 407.8515,-19.8514 424.4792,-18.2399"/>
<polygon fill="#191970" stroke="#191970" points="372.7866,-19.7333 363.1709,-24.1817 373.4619,-26.7006 372.7866,-19.7333"/>
</g>
</g>
</svg>
