<?xml version="1.0" encoding="UTF-8" standalone="no"?>
<!DOCTYPE svg PUBLIC "-//W3C//DTD SVG 1.1//EN"
 "http://www.w3.org/Graphics/SVG/1.1/DTD/svg11.dtd">
<!-- Generated by graphviz version 2.40.1 (20161225.0304)
 -->
<!-- Title: Teuchos::TEUCHOS_UNIT_TEST Pages: 1 -->
<svg width="357pt" height="66pt"
 viewBox="0.00 0.00 357.00 66.00" xmlns="http://www.w3.org/2000/svg" xmlns:xlink="http://www.w3.org/1999/xlink">
<g id="graph0" class="graph" transform="scale(1 1) rotate(0) translate(4 62)">
<title>Teuchos::TEUCHOS_UNIT_TEST</title>
<polygon fill="#ffffff" stroke="transparent" points="-4,4 -4,-62 353,-62 353,4 -4,4"/>
<!-- Node5531 -->
<g id="node1" class="node">
<title>Node5531</title>
<polygon fill="#bfbfbf" stroke="#000000" points="0,-19.5 0,-38.5 170,-38.5 170,-19.5 0,-19.5"/>
<text text-anchor="middle" x="85" y="-26.5" font-family="Helvetica,sans-Serif" font-size="10.00" fill="#000000">Teuchos::TEUCHOS_UNIT_TEST</text>
</g>
<!-- Node5532 -->
<g id="node2" class="node">
<title>Node5532</title>
<g id="a_node2"><a xlink:href="../../d3/d74/namespace_teuchos.html#a805a8ddf15a76f2e047b892652828967" target="_top" xlink:title="Teuchos::TEST_EQUALITY">
<polygon fill="#ffffff" stroke="#000000" points="207.5,-38.5 207.5,-57.5 347.5,-57.5 347.5,-38.5 207.5,-38.5"/>
<text text-anchor="middle" x="277.5" y="-45.5" font-family="Helvetica,sans-Serif" font-size="10.00" fill="#000000">Teuchos::TEST_EQUALITY</text>
</a>
</g>
</g>
<!-- Node5531&#45;&gt;Node5532 -->
<g id="edge1" class="edge">
<title>Node5531&#45;&gt;Node5532</title>
<path fill="none" stroke="#191970" d="M170.274,-37.4167C179.2613,-38.3037 188.3781,-39.2035 197.3052,-40.0847"/>
<polygon fill="#191970" stroke="#191970" points="196.9911,-43.5706 207.2866,-41.0698 197.6788,-36.6044 196.9911,-43.5706"/>
</g>
<!-- Node5533 -->
<g id="node3" class="node">
<title>Node5533</title>
<g id="a_node3"><a xlink:href="../../d3/d74/namespace_teuchos.html#a8c911549c7c8993ce32ee00349cc3bab" target="_top" xlink:title="Return a const void* pointing to the base of an object. ">
<polygon fill="#ffffff" stroke="#000000" points="206,-.5 206,-19.5 349,-19.5 349,-.5 206,-.5"/>
<text text-anchor="middle" x="277.5" y="-7.5" font-family="Helvetica,sans-Serif" font-size="10.00" fill="#000000">Teuchos::getBaseObjVoidPtr</text>
</a>
</g>
</g>
<!-- Node5531&#45;&gt;Node5533 -->
<g id="edge2" class="edge">
<title>Node5531&#45;&gt;Node5533</title>
<path fill="none" stroke="#191970" d="M170.274,-20.5833C178.7106,-19.7506 187.2612,-18.9067 195.6619,-18.0775"/>
<polygon fill="#191970" stroke="#191970" points="196.2091,-21.5406 205.8169,-17.0752 195.5214,-14.5745 196.2091,-21.5406"/>
</g>
</g>
</svg>
