<?xml version="1.0" encoding="UTF-8" standalone="no"?>
<!DOCTYPE svg PUBLIC "-//W3C//DTD SVG 1.1//EN"
 "http://www.w3.org/Graphics/SVG/1.1/DTD/svg11.dtd">
<!-- Generated by graphviz version 2.40.1 (20161225.0304)
 -->
<!-- Title: Teuchos::TEUCHOS_UNIT_TEST Pages: 1 -->
<svg width="1004pt" height="435pt"
 viewBox="0.00 0.00 1004.00 434.79" xmlns="http://www.w3.org/2000/svg" xmlns:xlink="http://www.w3.org/1999/xlink">
<g id="graph0" class="graph" transform="scale(1 1) rotate(0) translate(4 430.7875)">
<title>Teuchos::TEUCHOS_UNIT_TEST</title>
<polygon fill="#ffffff" stroke="transparent" points="-4,4 -4,-430.7875 1000,-430.7875 1000,4 -4,4"/>
<!-- Node8648 -->
<g id="node1" class="node">
<title>Node8648</title>
<polygon fill="#bfbfbf" stroke="#000000" points="0,-111.7875 0,-130.7875 170,-130.7875 170,-111.7875 0,-111.7875"/>
<text text-anchor="middle" x="85" y="-118.7875" font-family="Helvetica,sans-Serif" font-size="10.00" fill="#000000">Teuchos::TEUCHOS_UNIT_TEST</text>
</g>
<!-- Node8649 -->
<g id="node2" class="node">
<title>Node8649</title>
<g id="a_node2"><a xlink:href="../../d8/d29/class_teuchos_1_1_time_monitor.html#a943add952f1c75ed13ce6a95a092e942" target="_top" xlink:title="Print summary statistics for all timers on the given communicator. ">
<polygon fill="#ffffff" stroke="#000000" points="397,-194.2875 397,-224.2875 511,-224.2875 511,-194.2875 397,-194.2875"/>
<text text-anchor="start" x="405" y="-212.2875" font-family="Helvetica,sans-Serif" font-size="10.00" fill="#000000">Teuchos::TimeMonitor</text>
<text text-anchor="middle" x="454" y="-201.2875" font-family="Helvetica,sans-Serif" font-size="10.00" fill="#000000">::summarize</text>
</a>
</g>
</g>
<!-- Node8648&#45;&gt;Node8649 -->
<g id="edge1" class="edge">
<title>Node8648&#45;&gt;Node8649</title>
<path fill="none" stroke="#191970" d="M96.3972,-130.9903C116.7945,-147.6928 161.5756,-181.4169 206,-195.2875 265.1145,-213.7448 335.9474,-215.8999 386.7494,-214.2345"/>
<polygon fill="#191970" stroke="#191970" points="387.0963,-217.7238 396.9536,-213.84 386.8258,-210.729 387.0963,-217.7238"/>
</g>
<!-- Node8662 -->
<g id="node15" class="node">
<title>Node8662</title>
<g id="a_node15"><a xlink:href="../../d8/d29/class_teuchos_1_1_time_monitor.html#aa61de17cc041ccfbc85407e7512f49d1" target="_top" xlink:title="Default parameters (with validators) for report(). ">
<polygon fill="#ffffff" stroke="#000000" points="211.5,-106.2875 211.5,-136.2875 348.5,-136.2875 348.5,-106.2875 211.5,-106.2875"/>
<text text-anchor="start" x="219.5" y="-124.2875" font-family="Helvetica,sans-Serif" font-size="10.00" fill="#000000">Teuchos::TimeMonitor</text>
<text text-anchor="middle" x="280" y="-113.2875" font-family="Helvetica,sans-Serif" font-size="10.00" fill="#000000">::getValidReportParameters</text>
</a>
</g>
</g>
<!-- Node8648&#45;&gt;Node8662 -->
<g id="edge15" class="edge">
<title>Node8648&#45;&gt;Node8662</title>
<path fill="none" stroke="#191970" d="M170.2462,-121.2875C180.5457,-121.2875 191.0307,-121.2875 201.2314,-121.2875"/>
<polygon fill="#191970" stroke="#191970" points="201.32,-124.7876 211.3199,-121.2875 201.3199,-117.7876 201.32,-124.7876"/>
</g>
<!-- Node8665 -->
<g id="node18" class="node">
<title>Node8665</title>
<g id="a_node18"><a xlink:href="../../db/d0f/class_teuchos_1_1_parameter_list.html#a4aba1b34b186a56ee70ce421f8544a50" target="_top" xlink:title="Set a parameter whose value has type T. ">
<polygon fill="#ffffff" stroke="#000000" points="210,-67.7875 210,-86.7875 350,-86.7875 350,-67.7875 210,-67.7875"/>
<text text-anchor="middle" x="280" y="-74.7875" font-family="Helvetica,sans-Serif" font-size="10.00" fill="#000000">Teuchos::ParameterList::set</text>
</a>
</g>
</g>
<!-- Node8648&#45;&gt;Node8665 -->
<g id="edge18" class="edge">
<title>Node8648&#45;&gt;Node8665</title>
<path fill="none" stroke="#191970" d="M127.3121,-111.7402C156.826,-105.0806 196.3997,-96.1512 227.8631,-89.0517"/>
<polygon fill="#191970" stroke="#191970" points="228.7861,-92.4315 237.7705,-86.8162 227.2453,-85.6032 228.7861,-92.4315"/>
</g>
<!-- Node8668 -->
<g id="node21" class="node">
<title>Node8668</title>
<g id="a_node21"><a xlink:href="../../d8/d29/class_teuchos_1_1_time_monitor.html#a794bfee7c48341bdcd6c2e9e0dd91695" target="_top" xlink:title="Report timer statistics to the given output stream. ">
<polygon fill="#ffffff" stroke="#000000" points="223,-155.2875 223,-185.2875 337,-185.2875 337,-155.2875 223,-155.2875"/>
<text text-anchor="start" x="231" y="-173.2875" font-family="Helvetica,sans-Serif" font-size="10.00" fill="#000000">Teuchos::TimeMonitor</text>
<text text-anchor="middle" x="280" y="-162.2875" font-family="Helvetica,sans-Serif" font-size="10.00" fill="#000000">::report</text>
</a>
</g>
</g>
<!-- Node8648&#45;&gt;Node8668 -->
<g id="edge21" class="edge">
<title>Node8648&#45;&gt;Node8668</title>
<path fill="none" stroke="#191970" d="M123.0609,-130.8515C148.5534,-137.2573 182.8124,-145.866 212.8174,-153.4057"/>
<polygon fill="#191970" stroke="#191970" points="212.2597,-156.8743 222.8111,-155.917 213.9656,-150.0854 212.2597,-156.8743"/>
</g>
<!-- Node8669 -->
<g id="node22" class="node">
<title>Node8669</title>
<g id="a_node22"><a xlink:href="../../dd/d87/class_teuchos_1_1_performance_monitor_base.html#a3639198b8fec9873d5a3a077ed965c35" target="_top" xlink:title="&quot;Forget&quot; about all counters created with getNewCounter(). ">
<polygon fill="#ffffff" stroke="#000000" points="206,-18.2875 206,-48.2875 354,-48.2875 354,-18.2875 206,-18.2875"/>
<text text-anchor="start" x="214" y="-36.2875" font-family="Helvetica,sans-Serif" font-size="10.00" fill="#000000">Teuchos::PerformanceMonitor</text>
<text text-anchor="middle" x="280" y="-25.2875" font-family="Helvetica,sans-Serif" font-size="10.00" fill="#000000">Base&lt; Time &gt;::clearCounters</text>
</a>
</g>
</g>
<!-- Node8648&#45;&gt;Node8669 -->
<g id="edge23" class="edge">
<title>Node8648&#45;&gt;Node8669</title>
<path fill="none" stroke="#191970" d="M101.4396,-111.6878C124.3561,-98.549 167.4367,-74.7247 206,-58.2875 211.2744,-56.0393 216.8252,-53.8518 222.4171,-51.7663"/>
<polygon fill="#191970" stroke="#191970" points="223.6141,-55.0553 231.8253,-48.36 221.2311,-48.4734 223.6141,-55.0553"/>
</g>
<!-- Node8650 -->
<g id="node3" class="node">
<title>Node8650</title>
<g id="a_node3"><a xlink:href="../../dd/d87/class_teuchos_1_1_performance_monitor_base.html#a2cb62fdaf1e4f21af47231c32818aa76" target="_top" xlink:title="Array of all counters that were created with getNewCounter() on the calling (MPI) process...">
<polygon fill="#ffffff" stroke="#000000" points="554,-396.2875 554,-426.2875 702,-426.2875 702,-396.2875 554,-396.2875"/>
<text text-anchor="start" x="562" y="-414.2875" font-family="Helvetica,sans-Serif" font-size="10.00" fill="#000000">Teuchos::PerformanceMonitor</text>
<text text-anchor="middle" x="628" y="-403.2875" font-family="Helvetica,sans-Serif" font-size="10.00" fill="#000000">Base&lt; Time &gt;::counters</text>
</a>
</g>
</g>
<!-- Node8649&#45;&gt;Node8650 -->
<g id="edge2" class="edge">
<title>Node8649&#45;&gt;Node8650</title>
<path fill="none" stroke="#191970" d="M458.3101,-224.4086C468.8207,-258.5748 499.0209,-342.254 554,-387.2875 555.5673,-388.5713 557.2049,-389.787 558.8993,-390.9382"/>
<polygon fill="#191970" stroke="#191970" points="557.3892,-394.1108 567.7813,-396.1735 560.9438,-388.0804 557.3892,-394.1108"/>
</g>
<!-- Node8651 -->
<g id="node4" class="node">
<title>Node8651</title>
<g id="a_node4"><a xlink:href="../../dd/d87/class_teuchos_1_1_performance_monitor_base.html#aa12ce34e23840da4535432e6b9fbcab4" target="_top" xlink:title="Table format that will be used to print a summary of timer results. ">
<polygon fill="#ffffff" stroke="#000000" points="554,-347.2875 554,-377.2875 702,-377.2875 702,-347.2875 554,-347.2875"/>
<text text-anchor="start" x="562" y="-365.2875" font-family="Helvetica,sans-Serif" font-size="10.00" fill="#000000">Teuchos::PerformanceMonitor</text>
<text text-anchor="middle" x="628" y="-354.2875" font-family="Helvetica,sans-Serif" font-size="10.00" fill="#000000">Base&lt; Time &gt;::format</text>
</a>
</g>
</g>
<!-- Node8649&#45;&gt;Node8651 -->
<g id="edge3" class="edge">
<title>Node8649&#45;&gt;Node8651</title>
<path fill="none" stroke="#191970" d="M461.7287,-224.4171C476.201,-251.2686 509.947,-307.3343 554,-338.2875 556.1273,-339.7822 558.3531,-341.1878 560.6505,-342.5093"/>
<polygon fill="#191970" stroke="#191970" points="559.3142,-345.7572 569.8104,-347.1997 562.5047,-339.5265 559.3142,-345.7572"/>
</g>
<!-- Node8652 -->
<g id="node5" class="node">
<title>Node8652</title>
<g id="a_node5"><a xlink:href="../../d3/dc7/class_teuchos_1_1_table_format.html#a7012e987924e92042822ee0c984a3d8c" target="_top" xlink:title="Get the precision for writing doubles. Default is 4. ">
<polygon fill="#ffffff" stroke="#000000" points="570.5,-298.2875 570.5,-328.2875 685.5,-328.2875 685.5,-298.2875 570.5,-298.2875"/>
<text text-anchor="start" x="578.5" y="-316.2875" font-family="Helvetica,sans-Serif" font-size="10.00" fill="#000000">Teuchos::TableFormat</text>
<text text-anchor="middle" x="628" y="-305.2875" font-family="Helvetica,sans-Serif" font-size="10.00" fill="#000000">::precision</text>
</a>
</g>
</g>
<!-- Node8649&#45;&gt;Node8652 -->
<g id="edge4" class="edge">
<title>Node8649&#45;&gt;Node8652</title>
<path fill="none" stroke="#191970" d="M469.7444,-224.5898C488.4733,-242.0763 521.3306,-270.5584 554,-288.2875 557.9276,-290.4189 562.0701,-292.4159 566.3073,-294.2776"/>
<polygon fill="#191970" stroke="#191970" points="565.108,-297.5688 575.6876,-298.1371 567.7715,-291.0953 565.108,-297.5688"/>
</g>
<!-- Node8653 -->
<g id="node6" class="node">
<title>Node8653</title>
<g id="a_node6"><a xlink:href="../../d1/d47/class_teuchos_1_1_array.html#af3d3a15f96ea65c43f0d477539b466d6" target="_top" xlink:title="Add a new entry at the end of the array. ">
<polygon fill="#ffffff" stroke="#000000" points="567.5,-259.7875 567.5,-278.7875 688.5,-278.7875 688.5,-259.7875 567.5,-259.7875"/>
<text text-anchor="middle" x="628" y="-266.7875" font-family="Helvetica,sans-Serif" font-size="10.00" fill="#000000">Teuchos::Array::append</text>
</a>
</g>
</g>
<!-- Node8649&#45;&gt;Node8653 -->
<g id="edge5" class="edge">
<title>Node8649&#45;&gt;Node8653</title>
<path fill="none" stroke="#191970" d="M487.3559,-224.3138C506.5939,-232.6376 531.3815,-242.7866 554,-250.2875 561.3473,-252.7241 569.1904,-255.0371 576.9214,-257.1563"/>
<polygon fill="#191970" stroke="#191970" points="576.0447,-260.5448 586.6083,-259.7317 577.8434,-253.7798 576.0447,-260.5448"/>
</g>
<!-- Node8654 -->
<g id="node7" class="node">
<title>Node8654</title>
<g id="a_node7"><a xlink:href="../../d1/d47/class_teuchos_1_1_array.html#a0a74165d2d2ef06d3c9c1e04aa394f15" target="_top" xlink:title="Teuchos::Array::back">
<polygon fill="#ffffff" stroke="#000000" points="573,-221.7875 573,-240.7875 683,-240.7875 683,-221.7875 573,-221.7875"/>
<text text-anchor="middle" x="628" y="-228.7875" font-family="Helvetica,sans-Serif" font-size="10.00" fill="#000000">Teuchos::Array::back</text>
</a>
</g>
</g>
<!-- Node8649&#45;&gt;Node8654 -->
<g id="edge6" class="edge">
<title>Node8649&#45;&gt;Node8654</title>
<path fill="none" stroke="#191970" d="M511.4563,-216.5521C527.8514,-218.625 545.8348,-220.8988 562.6633,-223.0266"/>
<polygon fill="#191970" stroke="#191970" points="562.6076,-226.5473 572.9677,-224.3294 563.4858,-219.6026 562.6076,-226.5473"/>
</g>
<!-- Node8655 -->
<g id="node8" class="node">
<title>Node8655</title>
<g id="a_node8"><a xlink:href="../../da/d98/class_teuchos_1_1std_1_1map.html#a9d3c4b039a5fd90347573a9934ff7678" target="_top" xlink:title="Return an iterator that points to the first pair in the std::map. ">
<polygon fill="#ffffff" stroke="#000000" points="576,-172.2875 576,-202.2875 680,-202.2875 680,-172.2875 576,-172.2875"/>
<text text-anchor="start" x="584" y="-190.2875" font-family="Helvetica,sans-Serif" font-size="10.00" fill="#000000">Teuchos::std::map::</text>
<text text-anchor="middle" x="628" y="-179.2875" font-family="Helvetica,sans-Serif" font-size="10.00" fill="#000000">begin</text>
</a>
</g>
</g>
<!-- Node8649&#45;&gt;Node8655 -->
<g id="edge7" class="edge">
<title>Node8649&#45;&gt;Node8655</title>
<path fill="none" stroke="#191970" d="M511.4563,-202.0229C528.8335,-199.8258 547.9951,-197.4031 565.6747,-195.1677"/>
<polygon fill="#191970" stroke="#191970" points="566.4063,-198.6032 575.8882,-193.8764 565.5281,-191.6585 566.4063,-198.6032"/>
</g>
<!-- Node8656 -->
<g id="node9" class="node">
<title>Node8656</title>
<g id="a_node9"><a xlink:href="../../da/d98/class_teuchos_1_1std_1_1map.html#ac7cf12c512602f76e8f54b9febed15fa" target="_top" xlink:title="Return an iterator that points to the last pair in the std::map. ">
<polygon fill="#ffffff" stroke="#000000" points="568,-133.7875 568,-152.7875 688,-152.7875 688,-133.7875 568,-133.7875"/>
<text text-anchor="middle" x="628" y="-140.7875" font-family="Helvetica,sans-Serif" font-size="10.00" fill="#000000">Teuchos::std::map::end</text>
</a>
</g>
</g>
<!-- Node8649&#45;&gt;Node8656 -->
<g id="edge8" class="edge">
<title>Node8649&#45;&gt;Node8656</title>
<path fill="none" stroke="#191970" d="M483.2112,-194.2759C502.8691,-184.5686 529.5645,-172.1394 554,-163.2875 561.6502,-160.5162 569.8672,-157.9278 577.9438,-155.5931"/>
<polygon fill="#191970" stroke="#191970" points="578.9876,-158.9356 587.6784,-152.8758 577.1056,-152.1933 578.9876,-158.9356"/>
</g>
<!-- Node8657 -->
<g id="node10" class="node">
<title>Node8657</title>
<g id="a_node10"><a xlink:href="../../d1/d47/class_teuchos_1_1_array.html#a8f209506c367768c144d173da5069f5b" target="_top" xlink:title="Teuchos::Array::push_back">
<polygon fill="#ffffff" stroke="#000000" points="559.5,-95.7875 559.5,-114.7875 696.5,-114.7875 696.5,-95.7875 559.5,-95.7875"/>
<text text-anchor="middle" x="628" y="-102.7875" font-family="Helvetica,sans-Serif" font-size="10.00" fill="#000000">Teuchos::Array::push_back</text>
</a>
</g>
</g>
<!-- Node8649&#45;&gt;Node8657 -->
<g id="edge9" class="edge">
<title>Node8649&#45;&gt;Node8657</title>
<path fill="none" stroke="#191970" d="M492.2174,-194.1608C501.2401,-189.5508 510.4278,-183.9141 518,-177.2875 539.429,-158.5348 530.7046,-140.664 554,-124.2875 556.8535,-122.2815 559.9015,-120.4872 563.0741,-118.8822"/>
<polygon fill="#191970" stroke="#191970" points="564.5345,-122.0636 572.2866,-114.8417 561.7229,-115.653 564.5345,-122.0636"/>
</g>
<!-- Node8658 -->
<g id="node11" class="node">
<title>Node8658</title>
<g id="a_node11"><a xlink:href="../../d3/dc7/class_teuchos_1_1_table_format.html#a38d47ebad735473338544de7a3d914f5" target="_top" xlink:title="Set the column widths to be used for subsequent rows. ">
<polygon fill="#ffffff" stroke="#000000" points="570.5,-46.2875 570.5,-76.2875 685.5,-76.2875 685.5,-46.2875 570.5,-46.2875"/>
<text text-anchor="start" x="578.5" y="-64.2875" font-family="Helvetica,sans-Serif" font-size="10.00" fill="#000000">Teuchos::TableFormat</text>
<text text-anchor="middle" x="628" y="-53.2875" font-family="Helvetica,sans-Serif" font-size="10.00" fill="#000000">::setColumnWidths</text>
</a>
</g>
</g>
<!-- Node8649&#45;&gt;Node8658 -->
<g id="edge10" class="edge">
<title>Node8649&#45;&gt;Node8658</title>
<path fill="none" stroke="#191970" d="M495.2978,-194.2179C503.6045,-189.7461 511.7044,-184.1556 518,-177.2875 547.3896,-145.225 522.472,-116.2498 554,-86.2875 556.2854,-84.1156 558.7661,-82.132 561.3877,-80.3204"/>
<polygon fill="#191970" stroke="#191970" points="563.3644,-83.2171 570.1735,-75.1 559.7887,-77.1992 563.3644,-83.2171"/>
</g>
<!-- Node8661 -->
<g id="node14" class="node">
<title>Node8661</title>
<g id="a_node14"><a xlink:href="../../d3/dc7/class_teuchos_1_1_table_format.html#ada07be3473e6e14eba340d42efc0a889" target="_top" xlink:title="Teuchos::TableFormat\l::writeWholeTable">
<polygon fill="#ffffff" stroke="#000000" points="738,-2.2875 738,-32.2875 853,-32.2875 853,-2.2875 738,-2.2875"/>
<text text-anchor="start" x="746" y="-20.2875" font-family="Helvetica,sans-Serif" font-size="10.00" fill="#000000">Teuchos::TableFormat</text>
<text text-anchor="middle" x="795.5" y="-9.2875" font-family="Helvetica,sans-Serif" font-size="10.00" fill="#000000">::writeWholeTable</text>
</a>
</g>
</g>
<!-- Node8649&#45;&gt;Node8661 -->
<g id="edge14" class="edge">
<title>Node8649&#45;&gt;Node8661</title>
<path fill="none" stroke="#191970" d="M496.9502,-194.2411C504.8587,-189.821 512.3799,-184.2456 518,-177.2875 558.3687,-127.3078 504.8975,-78.7188 554,-37.2875 601.5006,2.7921 674.6001,3.2747 727.9359,-3.4864"/>
<polygon fill="#191970" stroke="#191970" points="727.605,-6.9738 737.9899,-4.8752 728.5629,-.0396 727.605,-6.9738"/>
</g>
<!-- Node8659 -->
<g id="node12" class="node">
<title>Node8659</title>
<g id="a_node12"><a xlink:href="../../d3/dc7/class_teuchos_1_1_table_format.html#aa6dba5dc178092b8e193fd7273a7f5d9" target="_top" xlink:title="Write the row of entries. ">
<polygon fill="#ffffff" stroke="#000000" points="738,-51.2875 738,-81.2875 853,-81.2875 853,-51.2875 738,-51.2875"/>
<text text-anchor="start" x="746" y="-69.2875" font-family="Helvetica,sans-Serif" font-size="10.00" fill="#000000">Teuchos::TableFormat</text>
<text text-anchor="middle" x="795.5" y="-58.2875" font-family="Helvetica,sans-Serif" font-size="10.00" fill="#000000">::writeRow</text>
</a>
</g>
</g>
<!-- Node8658&#45;&gt;Node8659 -->
<g id="edge11" class="edge">
<title>Node8658&#45;&gt;Node8659</title>
<path fill="none" stroke="#191970" d="M685.644,-63.0082C699.1986,-63.4128 713.7669,-63.8477 727.7209,-64.2643"/>
<polygon fill="#191970" stroke="#191970" points="727.6497,-67.7636 737.7497,-64.5636 727.8587,-60.7667 727.6497,-67.7636"/>
</g>
<!-- Node8658&#45;&gt;Node8661 -->
<g id="edge13" class="edge">
<title>Node8658&#45;&gt;Node8661</title>
<path fill="none" stroke="#191970" d="M685.1755,-46.2683C699.113,-42.6071 714.1459,-38.6581 728.495,-34.8888"/>
<polygon fill="#191970" stroke="#191970" points="729.5154,-38.2396 738.298,-32.3137 727.7368,-31.4693 729.5154,-38.2396"/>
</g>
<!-- Node8660 -->
<g id="node13" class="node">
<title>Node8660</title>
<g id="a_node13"><a xlink:href="../../d1/d47/class_teuchos_1_1_array.html#a358ed7136b79445eb306d8d7b8cad4f5" target="_top" xlink:title="Teuchos::Array::size">
<polygon fill="#ffffff" stroke="#000000" points="889,-56.7875 889,-75.7875 996,-75.7875 996,-56.7875 889,-56.7875"/>
<text text-anchor="middle" x="942.5" y="-63.7875" font-family="Helvetica,sans-Serif" font-size="10.00" fill="#000000">Teuchos::Array::size</text>
</a>
</g>
</g>
<!-- Node8659&#45;&gt;Node8660 -->
<g id="edge12" class="edge">
<title>Node8659&#45;&gt;Node8660</title>
<path fill="none" stroke="#191970" d="M853.1764,-66.2875C861.5253,-66.2875 870.1602,-66.2875 878.622,-66.2875"/>
<polygon fill="#191970" stroke="#191970" points="878.8268,-69.7876 888.8268,-66.2875 878.8268,-62.7876 878.8268,-69.7876"/>
</g>
<!-- Node8663 -->
<g id="node16" class="node">
<title>Node8663</title>
<g id="a_node16"><a xlink:href="../../d5/d9a/class_teuchos_1_1_r_c_p.html#a8033d79aee37a9378d73f70eb025b05d" target="_top" xlink:title="Returns true if the underlying pointer is null. ">
<polygon fill="#ffffff" stroke="#000000" points="396,-148.7875 396,-167.7875 512,-167.7875 512,-148.7875 396,-148.7875"/>
<text text-anchor="middle" x="454" y="-155.7875" font-family="Helvetica,sans-Serif" font-size="10.00" fill="#000000">Teuchos::RCP::is_null</text>
</a>
</g>
</g>
<!-- Node8662&#45;&gt;Node8663 -->
<g id="edge16" class="edge">
<title>Node8662&#45;&gt;Node8663</title>
<path fill="none" stroke="#191970" d="M348.7694,-135.9109C365.445,-139.4568 383.0561,-143.2017 399.001,-146.5923"/>
<polygon fill="#191970" stroke="#191970" points="398.7026,-150.107 409.2119,-148.7636 400.1586,-143.2601 398.7026,-150.107"/>
</g>
<!-- Node8664 -->
<g id="node17" class="node">
<title>Node8664</title>
<g id="a_node17"><a xlink:href="../../d5/d9a/class_teuchos_1_1_r_c_p.html#adc36a705efd91e655fef2521641c26b4" target="_top" xlink:title="Get the raw C++ pointer to the underlying object. ">
<polygon fill="#ffffff" stroke="#000000" points="403.5,-110.7875 403.5,-129.7875 504.5,-129.7875 504.5,-110.7875 403.5,-110.7875"/>
<text text-anchor="middle" x="454" y="-117.7875" font-family="Helvetica,sans-Serif" font-size="10.00" fill="#000000">Teuchos::RCP::get</text>
</a>
</g>
</g>
<!-- Node8662&#45;&gt;Node8664 -->
<g id="edge17" class="edge">
<title>Node8662&#45;&gt;Node8664</title>
<path fill="none" stroke="#191970" d="M348.7694,-120.8923C363.4457,-120.8079 378.8467,-120.7194 393.1986,-120.6369"/>
<polygon fill="#191970" stroke="#191970" points="393.4586,-124.1356 403.4383,-120.5781 393.4183,-117.1357 393.4586,-124.1356"/>
</g>
<!-- Node8666 -->
<g id="node19" class="node">
<title>Node8666</title>
<g id="a_node19"><a xlink:href="../../d2/dc5/group___teuchos___r_c_p_std_shared_ptr_conversions__grp.html#gaecc73655aad3c6aaa1de138d2427426c" target="_top" xlink:title="Returns true if p.get()!=NULL. ">
<polygon fill="#ffffff" stroke="#000000" points="408.5,-69.7875 408.5,-88.7875 499.5,-88.7875 499.5,-69.7875 408.5,-69.7875"/>
<text text-anchor="middle" x="454" y="-76.7875" font-family="Helvetica,sans-Serif" font-size="10.00" fill="#000000">Teuchos::nonnull</text>
</a>
</g>
</g>
<!-- Node8665&#45;&gt;Node8666 -->
<g id="edge19" class="edge">
<title>Node8665&#45;&gt;Node8666</title>
<path fill="none" stroke="#191970" d="M350.0203,-78.0923C365.9796,-78.2758 382.732,-78.4683 398.0152,-78.644"/>
<polygon fill="#191970" stroke="#191970" points="398.2937,-82.1473 408.3333,-78.7626 398.3742,-75.1478 398.2937,-82.1473"/>
</g>
<!-- Node8667 -->
<g id="node20" class="node">
<title>Node8667</title>
<g id="a_node20"><a xlink:href="../../d8/dce/class_teuchos_1_1_parameter_entry.html#a7185dd2314bd0613e2fe8b99158e0bfc" target="_top" xlink:title="Return the (optional) validator object. ">
<polygon fill="#ffffff" stroke="#000000" points="390,-20.2875 390,-50.2875 518,-50.2875 518,-20.2875 390,-20.2875"/>
<text text-anchor="start" x="398" y="-38.2875" font-family="Helvetica,sans-Serif" font-size="10.00" fill="#000000">Teuchos::ParameterEntry</text>
<text text-anchor="middle" x="454" y="-27.2875" font-family="Helvetica,sans-Serif" font-size="10.00" fill="#000000">::validator</text>
</a>
</g>
</g>
<!-- Node8665&#45;&gt;Node8667 -->
<g id="edge20" class="edge">
<title>Node8665&#45;&gt;Node8667</title>
<path fill="none" stroke="#191970" d="M319.4833,-67.7571C338.0039,-63.2866 360.6688,-57.8157 382.0773,-52.6482"/>
<polygon fill="#191970" stroke="#191970" points="382.9063,-56.0487 391.8058,-50.2999 381.2637,-49.2441 382.9063,-56.0487"/>
</g>
<!-- Node8668&#45;&gt;Node8649 -->
<g id="edge22" class="edge">
<title>Node8668&#45;&gt;Node8649</title>
<path fill="none" stroke="#191970" d="M337.4563,-183.1657C353.2776,-186.7118 370.5779,-190.5895 386.8922,-194.2461"/>
<polygon fill="#191970" stroke="#191970" points="386.3773,-197.7175 396.9007,-196.4894 387.9083,-190.8869 386.3773,-197.7175"/>
</g>
</g>
</svg>
