<?xml version="1.0" encoding="UTF-8" standalone="no"?>
<!DOCTYPE svg PUBLIC "-//W3C//DTD SVG 1.1//EN"
 "http://www.w3.org/Graphics/SVG/1.1/DTD/svg11.dtd">
<!-- Generated by graphviz version 2.40.1 (20161225.0304)
 -->
<!-- Title: Teuchos::as Pages: 1 -->
<svg width="271pt" height="88pt"
 viewBox="0.00 0.00 271.00 88.00" xmlns="http://www.w3.org/2000/svg" xmlns:xlink="http://www.w3.org/1999/xlink">
<g id="graph0" class="graph" transform="scale(1 1) rotate(0) translate(4 84)">
<title>Teuchos::as</title>
<polygon fill="#ffffff" stroke="transparent" points="-4,4 -4,-84 267,-84 267,4 -4,4"/>
<!-- Node50 -->
<g id="node1" class="node">
<title>Node50</title>
<polygon fill="#bfbfbf" stroke="#000000" points="0,-30 0,-49 71,-49 71,-30 0,-30"/>
<text text-anchor="middle" x="35.5" y="-37" font-family="Helvetica,sans-Serif" font-size="10.00" fill="#000000">Teuchos::as</text>
</g>
<!-- Node51 -->
<g id="node2" class="node">
<title>Node51</title>
<g id="a_node2"><a xlink:href="../../d6/d58/class_teuchos_1_1_value_type_conversion_traits.html#a011d85192ee683577894c0277cf6fd3a" target="_top" xlink:title="Convert t from a TypeFrom object to a TypeTo object, with checks for validity. ">
<polygon fill="#ffffff" stroke="#000000" points="107,-49.5 107,-79.5 263,-79.5 263,-49.5 107,-49.5"/>
<text text-anchor="start" x="115" y="-67.5" font-family="Helvetica,sans-Serif" font-size="10.00" fill="#000000">Teuchos::ValueTypeConversion</text>
<text text-anchor="middle" x="185" y="-56.5" font-family="Helvetica,sans-Serif" font-size="10.00" fill="#000000">Traits::safeConvert</text>
</a>
</g>
</g>
<!-- Node50&#45;&gt;Node51 -->
<g id="edge1" class="edge">
<title>Node50&#45;&gt;Node51</title>
<path fill="none" stroke="#191970" d="M71.309,-45.4881C79.1543,-46.8001 87.7937,-48.2448 96.6985,-49.7339"/>
<polygon fill="#191970" stroke="#191970" points="96.3966,-53.2319 106.837,-51.4293 97.5512,-46.3278 96.3966,-53.2319"/>
</g>
<!-- Node52 -->
<g id="node3" class="node">
<title>Node52</title>
<g id="a_node3"><a xlink:href="../../d6/d58/class_teuchos_1_1_value_type_conversion_traits.html#a28579aa3a24365a9dbc0fb4c0d49bc4e" target="_top" xlink:title="Convert t from a TypeFrom object to a TypeTo object. ">
<polygon fill="#ffffff" stroke="#000000" points="107,-.5 107,-30.5 263,-30.5 263,-.5 107,-.5"/>
<text text-anchor="start" x="115" y="-18.5" font-family="Helvetica,sans-Serif" font-size="10.00" fill="#000000">Teuchos::ValueTypeConversion</text>
<text text-anchor="middle" x="185" y="-7.5" font-family="Helvetica,sans-Serif" font-size="10.00" fill="#000000">Traits::convert</text>
</a>
</g>
</g>
<!-- Node50&#45;&gt;Node52 -->
<g id="edge2" class="edge">
<title>Node50&#45;&gt;Node52</title>
<path fill="none" stroke="#191970" d="M71.309,-33.7514C79.1543,-32.4919 87.7937,-31.105 96.6985,-29.6755"/>
<polygon fill="#191970" stroke="#191970" points="97.5182,-33.0888 106.837,-28.0479 96.4086,-26.1773 97.5182,-33.0888"/>
</g>
</g>
</svg>
