<?xml version="1.0" encoding="UTF-8" standalone="no"?>
<!DOCTYPE svg PUBLIC "-//W3C//DTD SVG 1.1//EN"
 "http://www.w3.org/Graphics/SVG/1.1/DTD/svg11.dtd">
<!-- Generated by graphviz version 2.40.1 (20161225.0304)
 -->
<!-- Title: UMF_grow_front Pages: 1 -->
<svg width="345pt" height="66pt"
 viewBox="0.00 0.00 345.00 66.00" xmlns="http://www.w3.org/2000/svg" xmlns:xlink="http://www.w3.org/1999/xlink">
<g id="graph0" class="graph" transform="scale(1 1) rotate(0) translate(4 62)">
<title>UMF_grow_front</title>
<polygon fill="#ffffff" stroke="transparent" points="-4,4 -4,-62 341,-62 341,4 -4,4"/>
<!-- Node17 -->
<g id="node1" class="node">
<title>Node17</title>
<polygon fill="#bfbfbf" stroke="#000000" points="0,-19.5 0,-38.5 89,-38.5 89,-19.5 0,-19.5"/>
<text text-anchor="middle" x="44.5" y="-26.5" font-family="Helvetica,sans-Serif" font-size="10.00" fill="#000000">UMF_grow_front</text>
</g>
<!-- Node18 -->
<g id="node2" class="node">
<title>Node18</title>
<g id="a_node2"><a xlink:href="../../da/db7/umf__extend__front_8h.html#a6df528f9ae8fbfb4cafac6167772d1c7" target="_top" xlink:title="UMF_extend_front">
<polygon fill="#ffffff" stroke="#000000" points="125,-38.5 125,-57.5 223,-57.5 223,-38.5 125,-38.5"/>
<text text-anchor="middle" x="174" y="-45.5" font-family="Helvetica,sans-Serif" font-size="10.00" fill="#000000">UMF_extend_front</text>
</a>
</g>
</g>
<!-- Node17&#45;&gt;Node18 -->
<g id="edge1" class="edge">
<title>Node17&#45;&gt;Node18</title>
<path fill="none" stroke="#191970" d="M99.0089,-36.9974C107.607,-38.2589 116.4523,-39.5567 124.9176,-40.7987"/>
<polygon fill="#191970" stroke="#191970" points="99.4687,-33.5275 89.0666,-35.5387 98.4525,-40.4534 99.4687,-33.5275"/>
</g>
<!-- Node20 -->
<g id="node4" class="node">
<title>Node20</title>
<g id="a_node4"><a xlink:href="../../df/d24/umf__init__front_8h.html#a5382e7298a54da0127ca1f4adb1c5463" target="_top" xlink:title="UMF_init_front">
<polygon fill="#ffffff" stroke="#000000" points="133.5,-.5 133.5,-19.5 214.5,-19.5 214.5,-.5 133.5,-.5"/>
<text text-anchor="middle" x="174" y="-7.5" font-family="Helvetica,sans-Serif" font-size="10.00" fill="#000000">UMF_init_front</text>
</a>
</g>
</g>
<!-- Node17&#45;&gt;Node20 -->
<g id="edge4" class="edge">
<title>Node17&#45;&gt;Node20</title>
<path fill="none" stroke="#191970" d="M99.0018,-21.0036C110.4792,-19.3197 122.3974,-17.571 133.2642,-15.9767"/>
<polygon fill="#191970" stroke="#191970" points="98.4525,-17.5466 89.0666,-22.4613 99.4687,-24.4725 98.4525,-17.5466"/>
</g>
<!-- Node19 -->
<g id="node3" class="node">
<title>Node19</title>
<g id="a_node3"><a xlink:href="../../db/dbb/umf__extend__front_8c.html#a7117684a8f36c3ff91e6f662c01a7705" target="_top" xlink:title="zero_front">
<polygon fill="#ffffff" stroke="#000000" points="268,-38.5 268,-57.5 328,-57.5 328,-38.5 268,-38.5"/>
<text text-anchor="middle" x="298" y="-45.5" font-family="Helvetica,sans-Serif" font-size="10.00" fill="#000000">zero_front</text>
</a>
</g>
</g>
<!-- Node18&#45;&gt;Node19 -->
<g id="edge2" class="edge">
<title>Node18&#45;&gt;Node19</title>
<path fill="none" stroke="#191970" d="M233.0748,-41.2567C245.1486,-41.2015 257.3706,-41.4883 267.9039,-42.117"/>
<polygon fill="#191970" stroke="#191970" points="232.9632,-37.7577 223.0081,-41.3835 233.0514,-44.7572 232.9632,-37.7577"/>
</g>
<!-- Node19&#45;&gt;Node18 -->
<g id="edge3" class="edge">
<title>Node19&#45;&gt;Node18</title>
<path fill="none" stroke="#191970" d="M257.6758,-54.3691C246.6142,-54.7734 234.4994,-54.8558 223.0081,-54.6165"/>
<polygon fill="#191970" stroke="#191970" points="258.0814,-57.8539 267.9039,-53.883 257.749,-50.8618 258.0814,-57.8539"/>
</g>
<!-- Node21 -->
<g id="node5" class="node">
<title>Node21</title>
<g id="a_node5"><a xlink:href="../../df/d8a/umf__init__front_8c.html#ac394fda5f1679216363c5816ffe8b34a" target="_top" xlink:title="zero_init_front">
<polygon fill="#ffffff" stroke="#000000" points="259,-.5 259,-19.5 337,-19.5 337,-.5 259,-.5"/>
<text text-anchor="middle" x="298" y="-7.5" font-family="Helvetica,sans-Serif" font-size="10.00" fill="#000000">zero_init_front</text>
</a>
</g>
</g>
<!-- Node20&#45;&gt;Node21 -->
<g id="edge5" class="edge">
<title>Node20&#45;&gt;Node21</title>
<path fill="none" stroke="#191970" d="M224.8721,-3.3476C236.2636,-3.1458 248.1733,-3.2569 258.9943,-3.6808"/>
<polygon fill="#191970" stroke="#191970" points="224.5056,.144 214.6022,-3.6208 224.6918,-6.8535 224.5056,.144"/>
</g>
<!-- Node21&#45;&gt;Node20 -->
<g id="edge6" class="edge">
<title>Node21&#45;&gt;Node20</title>
<path fill="none" stroke="#191970" d="M248.7967,-16.6205C237.4597,-16.8529 225.5259,-16.7725 214.6022,-16.3792"/>
<polygon fill="#191970" stroke="#191970" points="249.1021,-20.1131 258.9943,-16.3192 248.8952,-13.1162 249.1021,-20.1131"/>
</g>
</g>
</svg>
