<?xml version="1.0" encoding="UTF-8" standalone="no"?>
<!DOCTYPE svg PUBLIC "-//W3C//DTD SVG 1.1//EN"
 "http://www.w3.org/Graphics/SVG/1.1/DTD/svg11.dtd">
<!-- Generated by graphviz version 2.40.1 (20161225.0304)
 -->
<!-- Title: omc_HashTableCrefSimVar_emptyHashTableSized Pages: 1 -->
<svg width="336pt" height="137pt"
 viewBox="0.00 0.00 336.00 137.00" xmlns="http://www.w3.org/2000/svg" xmlns:xlink="http://www.w3.org/1999/xlink">
<g id="graph0" class="graph" transform="scale(1 1) rotate(0) translate(4 133)">
<title>omc_HashTableCrefSimVar_emptyHashTableSized</title>
<polygon fill="#ffffff" stroke="transparent" points="-4,4 -4,-133 332,-133 332,4 -4,4"/>
<!-- Node7 -->
<g id="node1" class="node">
<title>Node7</title>
<polygon fill="#bfbfbf" stroke="#000000" points="0,-49.5 0,-79.5 139,-79.5 139,-49.5 0,-49.5"/>
<text text-anchor="start" x="8" y="-67.5" font-family="Helvetica,sans-Serif" font-size="10.00" fill="#000000">omc_HashTableCrefSimVar</text>
<text text-anchor="middle" x="69.5" y="-56.5" font-family="Helvetica,sans-Serif" font-size="10.00" fill="#000000">_emptyHashTableSized</text>
</g>
<!-- Node8 -->
<g id="node2" class="node">
<title>Node8</title>
<g id="a_node2"><a xlink:href="../../dc/d87/_hash_table_cref_sim_var_8h.html#aae3200a84a55c89e36a0102f28ad8f75" target="_top" xlink:title="boxptr_HashTableCrefSimVar\l_emptyHashTableSized">
<polygon fill="#ffffff" stroke="#000000" points="178,-98.5 178,-128.5 325,-128.5 325,-98.5 178,-98.5"/>
<text text-anchor="start" x="186" y="-116.5" font-family="Helvetica,sans-Serif" font-size="10.00" fill="#000000">boxptr_HashTableCrefSimVar</text>
<text text-anchor="middle" x="251.5" y="-105.5" font-family="Helvetica,sans-Serif" font-size="10.00" fill="#000000">_emptyHashTableSized</text>
</a>
</g>
</g>
<!-- Node7&#45;&gt;Node8 -->
<g id="edge1" class="edge">
<title>Node7&#45;&gt;Node8</title>
<path fill="none" stroke="#191970" d="M135.4229,-82.2485C155.1481,-87.5591 176.5783,-93.3288 195.5941,-98.4484"/>
<polygon fill="#191970" stroke="#191970" points="136.1572,-78.8216 125.5911,-79.6014 134.3373,-85.5809 136.1572,-78.8216"/>
</g>
<!-- Node9 -->
<g id="node3" class="node">
<title>Node9</title>
<g id="a_node3"><a xlink:href="../../dc/d87/_hash_table_cref_sim_var_8h.html#ad584de524a133cee8f7d4c49bcbcf8f9" target="_top" xlink:title="omc_HashTableCrefSimVar\l_emptyHashTable">
<polygon fill="#ffffff" stroke="#000000" points="182,-49.5 182,-79.5 321,-79.5 321,-49.5 182,-49.5"/>
<text text-anchor="start" x="190" y="-67.5" font-family="Helvetica,sans-Serif" font-size="10.00" fill="#000000">omc_HashTableCrefSimVar</text>
<text text-anchor="middle" x="251.5" y="-56.5" font-family="Helvetica,sans-Serif" font-size="10.00" fill="#000000">_emptyHashTable</text>
</a>
</g>
</g>
<!-- Node7&#45;&gt;Node9 -->
<g id="edge2" class="edge">
<title>Node7&#45;&gt;Node9</title>
<path fill="none" stroke="#191970" d="M149.3994,-64.5C160.2467,-64.5 171.3076,-64.5 181.9531,-64.5"/>
<polygon fill="#191970" stroke="#191970" points="149.0855,-61.0001 139.0854,-64.5 149.0854,-68.0001 149.0855,-61.0001"/>
</g>
<!-- Node10 -->
<g id="node4" class="node">
<title>Node10</title>
<g id="a_node4"><a xlink:href="../../db/d13/_sim_code_util_8c.html#a040929cb87a46dc1a9056b337b767a19" target="_top" xlink:title="omc_SimCodeUtil_setBackend\lVarMapping">
<polygon fill="#ffffff" stroke="#000000" points="175,-.5 175,-30.5 328,-30.5 328,-.5 175,-.5"/>
<text text-anchor="start" x="183" y="-18.5" font-family="Helvetica,sans-Serif" font-size="10.00" fill="#000000">omc_SimCodeUtil_setBackend</text>
<text text-anchor="middle" x="251.5" y="-7.5" font-family="Helvetica,sans-Serif" font-size="10.00" fill="#000000">VarMapping</text>
</a>
</g>
</g>
<!-- Node7&#45;&gt;Node10 -->
<g id="edge3" class="edge">
<title>Node7&#45;&gt;Node10</title>
<path fill="none" stroke="#191970" d="M135.4229,-46.7515C155.1481,-41.4409 176.5783,-35.6712 195.5941,-30.5516"/>
<polygon fill="#191970" stroke="#191970" points="134.3373,-43.4191 125.5911,-49.3986 136.1572,-50.1784 134.3373,-43.4191"/>
</g>
</g>
</svg>
