<?xml version="1.0" encoding="UTF-8" standalone="no"?>
<!DOCTYPE svg PUBLIC "-//W3C//DTD SVG 1.1//EN"
 "http://www.w3.org/Graphics/SVG/1.1/DTD/svg11.dtd">
<!-- Generated by graphviz version 2.40.1 (20161225.0304)
 -->
<!-- Title: omc_Patternm_removeWildPatternColumnsFromMatrix Pages: 1 -->
<svg width="362pt" height="88pt"
 viewBox="0.00 0.00 362.00 88.00" xmlns="http://www.w3.org/2000/svg" xmlns:xlink="http://www.w3.org/1999/xlink">
<g id="graph0" class="graph" transform="scale(1 1) rotate(0) translate(4 84)">
<title>omc_Patternm_removeWildPatternColumnsFromMatrix</title>
<polygon fill="#ffffff" stroke="transparent" points="-4,4 -4,-84 358,-84 358,4 -4,4"/>
<!-- Node2629 -->
<g id="node1" class="node">
<title>Node2629</title>
<polygon fill="#bfbfbf" stroke="#000000" points="0,-24.5 0,-54.5 169,-54.5 169,-24.5 0,-24.5"/>
<text text-anchor="start" x="8" y="-42.5" font-family="Helvetica,sans-Serif" font-size="10.00" fill="#000000">omc_Patternm_removeWildPattern</text>
<text text-anchor="middle" x="84.5" y="-31.5" font-family="Helvetica,sans-Serif" font-size="10.00" fill="#000000">ColumnsFromMatrix</text>
</g>
<!-- Node2630 -->
<g id="node2" class="node">
<title>Node2630</title>
<g id="a_node2"><a xlink:href="../../d0/d09/_patternm_8c.html#a7c62633af3c59c5e133e17133e9e07ae" target="_top" xlink:title="boxptr_Patternm_removeWild\lPatternColumnsFromMatrix">
<polygon fill="#ffffff" stroke="#000000" points="206.5,-49.5 206.5,-79.5 352.5,-79.5 352.5,-49.5 206.5,-49.5"/>
<text text-anchor="start" x="214.5" y="-67.5" font-family="Helvetica,sans-Serif" font-size="10.00" fill="#000000">boxptr_Patternm_removeWild</text>
<text text-anchor="middle" x="279.5" y="-56.5" font-family="Helvetica,sans-Serif" font-size="10.00" fill="#000000">PatternColumnsFromMatrix</text>
</a>
</g>
</g>
<!-- Node2629&#45;&gt;Node2630 -->
<g id="edge1" class="edge">
<title>Node2629&#45;&gt;Node2630</title>
<path fill="none" stroke="#191970" d="M179.3428,-51.6593C188.371,-52.8168 197.4296,-53.9781 206.2086,-55.1037"/>
<polygon fill="#191970" stroke="#191970" points="179.543,-48.1564 169.1791,-50.3563 178.6528,-55.0996 179.543,-48.1564"/>
</g>
<!-- Node2631 -->
<g id="node3" class="node">
<title>Node2631</title>
<g id="a_node3"><a xlink:href="../../d0/d09/_patternm_8c.html#a8bd239aea787e0b5623f8dde8acdda3f" target="_top" xlink:title="omc_Patternm_optimizeMatch\lToSwitch">
<polygon fill="#ffffff" stroke="#000000" points="205,-.5 205,-30.5 354,-30.5 354,-.5 205,-.5"/>
<text text-anchor="start" x="213" y="-18.5" font-family="Helvetica,sans-Serif" font-size="10.00" fill="#000000">omc_Patternm_optimizeMatch</text>
<text text-anchor="middle" x="279.5" y="-7.5" font-family="Helvetica,sans-Serif" font-size="10.00" fill="#000000">ToSwitch</text>
</a>
</g>
</g>
<!-- Node2629&#45;&gt;Node2631 -->
<g id="edge2" class="edge">
<title>Node2629&#45;&gt;Node2631</title>
<path fill="none" stroke="#191970" d="M179.2845,-27.8342C187.9178,-26.7717 196.5795,-25.7056 204.9986,-24.6694"/>
<polygon fill="#191970" stroke="#191970" points="178.6766,-24.3825 169.1791,-29.078 179.5318,-31.3301 178.6766,-24.3825"/>
</g>
</g>
</svg>
