<?xml version="1.0" encoding="UTF-8" standalone="no"?>
<!DOCTYPE svg PUBLIC "-//W3C//DTD SVG 1.1//EN"
 "http://www.w3.org/Graphics/SVG/1.1/DTD/svg11.dtd">
<!-- Generated by graphviz version 2.40.1 (20161225.0304)
 -->
<!-- Title: boxptr_Patternm_patternComplexity Pages: 1 -->
<svg width="763pt" height="39pt"
 viewBox="0.00 0.00 763.00 39.00" xmlns="http://www.w3.org/2000/svg" xmlns:xlink="http://www.w3.org/1999/xlink">
<g id="graph0" class="graph" transform="scale(1 1) rotate(0) translate(4 35)">
<title>boxptr_Patternm_patternComplexity</title>
<polygon fill="#ffffff" stroke="transparent" points="-4,4 -4,-35 759,-35 759,4 -4,4"/>
<!-- Node507 -->
<g id="node1" class="node">
<title>Node507</title>
<polygon fill="#bfbfbf" stroke="#000000" points="0,-6 0,-25 173,-25 173,-6 0,-6"/>
<text text-anchor="middle" x="86.5" y="-13" font-family="Helvetica,sans-Serif" font-size="10.00" fill="#000000">boxptr_Patternm_patternComplexity</text>
</g>
<!-- Node508 -->
<g id="node2" class="node">
<title>Node508</title>
<g id="a_node2"><a xlink:href="../../d0/d09/_patternm_8c.html#ae00e6f9d8e0a6ceada9b6f685cd7aaac" target="_top" xlink:title="omc_Patternm_patternComplexity">
<polygon fill="#ffffff" stroke="#000000" points="209,-6 209,-25 374,-25 374,-6 209,-6"/>
<text text-anchor="middle" x="291.5" y="-13" font-family="Helvetica,sans-Serif" font-size="10.00" fill="#000000">omc_Patternm_patternComplexity</text>
</a>
</g>
</g>
<!-- Node507&#45;&gt;Node508 -->
<g id="edge1" class="edge">
<title>Node507&#45;&gt;Node508</title>
<path fill="none" stroke="#191970" d="M173.1413,-15.5C181.5316,-15.5 190.0673,-15.5 198.5159,-15.5"/>
<polygon fill="#191970" stroke="#191970" points="198.7627,-19.0001 208.7626,-15.5 198.7626,-12.0001 198.7627,-19.0001"/>
</g>
<!-- Node509 -->
<g id="node3" class="node">
<title>Node509</title>
<g id="a_node3"><a xlink:href="../../d1/d08/_expression_8c.html#aae2ed5a7c0c9b70b6c66638bc345357d" target="_top" xlink:title="omc_Expression_traverseExp\lBottomUp">
<polygon fill="#ffffff" stroke="#000000" points="410,-.5 410,-30.5 557,-30.5 557,-.5 410,-.5"/>
<text text-anchor="start" x="418" y="-18.5" font-family="Helvetica,sans-Serif" font-size="10.00" fill="#000000">omc_Expression_traverseExp</text>
<text text-anchor="middle" x="483.5" y="-7.5" font-family="Helvetica,sans-Serif" font-size="10.00" fill="#000000">BottomUp</text>
</a>
</g>
</g>
<!-- Node508&#45;&gt;Node509 -->
<g id="edge2" class="edge">
<title>Node508&#45;&gt;Node509</title>
<path fill="none" stroke="#191970" d="M374.0396,-15.5C382.4938,-15.5 391.09,-15.5 399.5591,-15.5"/>
<polygon fill="#191970" stroke="#191970" points="399.8084,-19.0001 409.8083,-15.5 399.8083,-12.0001 399.8084,-19.0001"/>
</g>
<!-- Node510 -->
<g id="node4" class="node">
<title>Node510</title>
<g id="a_node4"><a xlink:href="../../d1/d08/_expression_8c.html#add3db321c96f54919494182b71eb10c7" target="_top" xlink:title="omc_Expression_traverseExpClk">
<polygon fill="#ffffff" stroke="#000000" points="593,-6 593,-25 755,-25 755,-6 593,-6"/>
<text text-anchor="middle" x="674" y="-13" font-family="Helvetica,sans-Serif" font-size="10.00" fill="#000000">omc_Expression_traverseExpClk</text>
</a>
</g>
</g>
<!-- Node509&#45;&gt;Node510 -->
<g id="edge3" class="edge">
<title>Node509&#45;&gt;Node510</title>
<path fill="none" stroke="#191970" d="M557.1523,-8.9067C565.5807,-8.7825 574.2472,-8.7321 582.8687,-8.7556"/>
<polygon fill="#191970" stroke="#191970" points="582.9307,-12.256 592.9519,-8.8171 582.9735,-5.2561 582.9307,-12.256"/>
</g>
<!-- Node510&#45;&gt;Node509 -->
<g id="edge4" class="edge">
<title>Node510&#45;&gt;Node509</title>
<path fill="none" stroke="#191970" d="M592.9519,-22.1829C584.5019,-22.2633 575.8994,-22.2715 567.4185,-22.2074"/>
<polygon fill="#191970" stroke="#191970" points="567.1906,-18.7047 557.1523,-22.0933 567.1128,-25.7043 567.1906,-18.7047"/>
</g>
</g>
</svg>
