<?xml version="1.0" encoding="UTF-8" standalone="no"?>
<!DOCTYPE svg PUBLIC "-//W3C//DTD SVG 1.1//EN"
 "http://www.w3.org/Graphics/SVG/1.1/DTD/svg11.dtd">
<!-- Generated by graphviz version 2.40.1 (20161225.0304)
 -->
<!-- Title: UA_ResponseHeader Pages: 1 -->
<svg width="480pt" height="316pt"
 viewBox="0.00 0.00 480.00 316.00" xmlns="http://www.w3.org/2000/svg" xmlns:xlink="http://www.w3.org/1999/xlink">
<g id="graph0" class="graph" transform="scale(1 1) rotate(0) translate(4 312)">
<title>UA_ResponseHeader</title>
<polygon fill="#ffffff" stroke="transparent" points="-4,4 -4,-312 476,-312 476,4 -4,4"/>
<!-- Node1 -->
<g id="node1" class="node">
<title>Node1</title>
<polygon fill="#bfbfbf" stroke="#000000" points="24,-.5 24,-19.5 136,-19.5 136,-.5 24,-.5"/>
<text text-anchor="middle" x="80" y="-7.5" font-family="Helvetica,sans-Serif" font-size="10.00" fill="#000000">UA_ResponseHeader</text>
</g>
<!-- Node2 -->
<g id="node2" class="node">
<title>Node2</title>
<g id="a_node2"><a xlink:href="../../d3/dbd/struct_u_a___string.html" target="_top" xlink:title="UA_String">
<polygon fill="#ffffff" stroke="#000000" points="124,-288.5 124,-307.5 186,-307.5 186,-288.5 124,-288.5"/>
<text text-anchor="middle" x="155" y="-295.5" font-family="Helvetica,sans-Serif" font-size="10.00" fill="#000000">UA_String</text>
</a>
</g>
</g>
<!-- Node2&#45;&gt;Node1 -->
<g id="edge1" class="edge">
<title>Node2&#45;&gt;Node1</title>
<path fill="none" stroke="#9a32cd" stroke-dasharray="5,2" d="M113.6283,-294.7593C67.7124,-288.639 0,-270.9723 0,-220 0,-220 0,-220 0,-77 0,-48.5573 30.0891,-29.8017 53.3612,-19.5491"/>
<polygon fill="#9a32cd" stroke="#9a32cd" points="113.2878,-298.2434 123.6334,-295.9592 114.1214,-291.2932 113.2878,-298.2434"/>
<text text-anchor="middle" x="26" y="-141.5" font-family="Helvetica,sans-Serif" font-size="10.00" fill="#000000"> stringTable</text>
</g>
<!-- Node3 -->
<g id="node3" class="node">
<title>Node3</title>
<g id="a_node3"><a xlink:href="../../d4/d3a/struct_u_a___diagnostic_info.html" target="_top" xlink:title="UA_DiagnosticInfo">
<polygon fill="#ffffff" stroke="#000000" points="15.5,-172.5 15.5,-191.5 114.5,-191.5 114.5,-172.5 15.5,-172.5"/>
<text text-anchor="middle" x="65" y="-179.5" font-family="Helvetica,sans-Serif" font-size="10.00" fill="#000000">UA_DiagnosticInfo</text>
</a>
</g>
</g>
<!-- Node2&#45;&gt;Node3 -->
<g id="edge4" class="edge">
<title>Node2&#45;&gt;Node3</title>
<path fill="none" stroke="#9a32cd" stroke-dasharray="5,2" d="M141.178,-280.185C121.8573,-255.2827 87.4568,-210.9444 72.4009,-191.539"/>
<polygon fill="#9a32cd" stroke="#9a32cd" points="138.4313,-282.3545 147.3267,-288.1099 143.9619,-278.0635 138.4313,-282.3545"/>
<text text-anchor="middle" x="163.5" y="-256.5" font-family="Helvetica,sans-Serif" font-size="10.00" fill="#000000"> additionalInfo</text>
</g>
<!-- Node4 -->
<g id="node4" class="node">
<title>Node4</title>
<g id="a_node4"><a xlink:href="../../d9/d10/struct_u_a___extension_object.html" target="_top" xlink:title="UA_ExtensionObject">
<polygon fill="#ffffff" stroke="#000000" points="213,-67.5 213,-86.5 321,-86.5 321,-67.5 213,-67.5"/>
<text text-anchor="middle" x="267" y="-74.5" font-family="Helvetica,sans-Serif" font-size="10.00" fill="#000000">UA_ExtensionObject</text>
</a>
</g>
</g>
<!-- Node2&#45;&gt;Node4 -->
<g id="edge9" class="edge">
<title>Node2&#45;&gt;Node4</title>
<path fill="none" stroke="#9a32cd" stroke-dasharray="5,2" d="M184.1724,-282.7573C189.2838,-279.1046 194.1799,-274.8369 198,-270 244.7558,-210.7989 261.3919,-117.292 265.7293,-86.8978"/>
<polygon fill="#9a32cd" stroke="#9a32cd" points="182.0409,-279.9666 175.5189,-288.3161 185.8242,-285.8561 182.0409,-279.9666"/>
<text text-anchor="middle" x="259.5" y="-179.5" font-family="Helvetica,sans-Serif" font-size="10.00" fill="#000000"> body</text>
</g>
<!-- Node5 -->
<g id="node5" class="node">
<title>Node5</title>
<g id="a_node5"><a xlink:href="../../da/dfd/struct_u_a___node_id.html" target="_top" xlink:title="UA_NodeId">
<polygon fill="#ffffff" stroke="#000000" points="272,-210.5 272,-229.5 340,-229.5 340,-210.5 272,-210.5"/>
<text text-anchor="middle" x="306" y="-217.5" font-family="Helvetica,sans-Serif" font-size="10.00" fill="#000000">UA_NodeId</text>
</a>
</g>
</g>
<!-- Node2&#45;&gt;Node5 -->
<g id="edge7" class="edge">
<title>Node2&#45;&gt;Node5</title>
<path fill="none" stroke="#9a32cd" stroke-dasharray="5,2" d="M196.1069,-292.1086C215.1081,-288.0253 237.3252,-281.2226 255,-270 265.9067,-263.0748 264.8941,-257.165 274,-248 280.3476,-241.6112 287.9128,-234.9525 294.0933,-229.7323"/>
<polygon fill="#9a32cd" stroke="#9a32cd" points="195.3535,-288.6896 186.2186,-294.0566 196.7066,-295.5576 195.3535,-288.6896"/>
<text text-anchor="middle" x="296.5" y="-262" font-family="Helvetica,sans-Serif" font-size="10.00" fill="#000000"> string</text>
<text text-anchor="middle" x="296.5" y="-251" font-family="Helvetica,sans-Serif" font-size="10.00" fill="#000000">byteString</text>
</g>
<!-- Node3&#45;&gt;Node1 -->
<g id="edge2" class="edge">
<title>Node3&#45;&gt;Node1</title>
<path fill="none" stroke="#9a32cd" stroke-dasharray="5,2" d="M66.7255,-162.2139C69.95,-125.2395 76.7788,-46.9366 79.1599,-19.6335"/>
<polygon fill="#9a32cd" stroke="#9a32cd" points="63.2316,-161.9934 65.8494,-172.2597 70.2051,-162.6016 63.2316,-161.9934"/>
<text text-anchor="middle" x="115.5" y="-108" font-family="Helvetica,sans-Serif" font-size="10.00" fill="#000000"> serviceDiagnostics</text>
</g>
<!-- Node3&#45;&gt;Node3 -->
<g id="edge3" class="edge">
<title>Node3&#45;&gt;Node3</title>
<path fill="none" stroke="#9a32cd" stroke-dasharray="5,2" d="M124.9017,-187.399C129.5989,-186.2118 132.5,-184.4121 132.5,-182 132.5,-178.1406 125.0732,-175.8491 114.7454,-175.1255"/>
<polygon fill="#9a32cd" stroke="#9a32cd" points="124.1383,-183.9731 114.7454,-188.8745 125.1448,-190.9003 124.1383,-183.9731"/>
<text text-anchor="middle" x="176.5" y="-179.5" font-family="Helvetica,sans-Serif" font-size="10.00" fill="#000000"> innerDiagnosticInfo</text>
</g>
<!-- Node4&#45;&gt;Node1 -->
<g id="edge5" class="edge">
<title>Node4&#45;&gt;Node1</title>
<path fill="none" stroke="#9a32cd" stroke-dasharray="5,2" d="M230.4819,-63.916C194.1335,-50.8928 139.2137,-31.2156 106.7428,-19.5817"/>
<polygon fill="#9a32cd" stroke="#9a32cd" points="229.6129,-67.3224 240.2075,-67.4005 231.974,-60.7326 229.6129,-67.3224"/>
<text text-anchor="middle" x="223" y="-41" font-family="Helvetica,sans-Serif" font-size="10.00" fill="#000000"> additionalHeader</text>
</g>
<!-- Node5&#45;&gt;Node4 -->
<g id="edge6" class="edge">
<title>Node5&#45;&gt;Node4</title>
<path fill="none" stroke="#9a32cd" stroke-dasharray="5,2" d="M300.6714,-200.4617C292.1849,-169.3448 275.9135,-109.6827 269.5967,-86.5211"/>
<polygon fill="#9a32cd" stroke="#9a32cd" points="297.3115,-201.4443 303.3194,-210.171 304.0648,-199.6025 297.3115,-201.4443"/>
<text text-anchor="middle" x="303.5" y="-141.5" font-family="Helvetica,sans-Serif" font-size="10.00" fill="#000000"> typeId</text>
</g>
<!-- Node7 -->
<g id="node7" class="node">
<title>Node7</title>
<g id="a_node7"><a xlink:href="../../da/dea/struct_u_a___data_type.html" target="_top" xlink:title="UA_DataType">
<polygon fill="#ffffff" stroke="#000000" points="339.5,-134.5 339.5,-153.5 418.5,-153.5 418.5,-134.5 339.5,-134.5"/>
<text text-anchor="middle" x="379" y="-141.5" font-family="Helvetica,sans-Serif" font-size="10.00" fill="#000000">UA_DataType</text>
</a>
</g>
</g>
<!-- Node5&#45;&gt;Node7 -->
<g id="edge11" class="edge">
<title>Node5&#45;&gt;Node7</title>
<path fill="none" stroke="#9a32cd" stroke-dasharray="5,2" d="M322.2012,-203.133C336.7575,-187.9785 357.6292,-166.2491 369.599,-153.7874"/>
<polygon fill="#9a32cd" stroke="#9a32cd" points="319.6486,-200.738 315.2455,-210.3745 324.697,-205.5871 319.6486,-200.738"/>
<text text-anchor="middle" x="367.5" y="-179.5" font-family="Helvetica,sans-Serif" font-size="10.00" fill="#000000"> typeId</text>
</g>
<!-- Node6 -->
<g id="node6" class="node">
<title>Node6</title>
<g id="a_node6"><a xlink:href="../../db/d54/struct_u_a___guid.html" target="_top" xlink:title="UA_Guid">
<polygon fill="#ffffff" stroke="#000000" points="317,-288.5 317,-307.5 373,-307.5 373,-288.5 317,-288.5"/>
<text text-anchor="middle" x="345" y="-295.5" font-family="Helvetica,sans-Serif" font-size="10.00" fill="#000000">UA_Guid</text>
</a>
</g>
</g>
<!-- Node6&#45;&gt;Node5 -->
<g id="edge8" class="edge">
<title>Node6&#45;&gt;Node5</title>
<path fill="none" stroke="#9a32cd" stroke-dasharray="5,2" d="M337.3169,-278.9604C333.3298,-269.5116 328.2109,-258.0072 323,-248 319.7431,-241.7454 315.6528,-234.9806 312.3006,-229.6673"/>
<polygon fill="#9a32cd" stroke="#9a32cd" points="334.0967,-280.3325 341.1498,-288.2384 340.5664,-277.6597 334.0967,-280.3325"/>
<text text-anchor="middle" x="345" y="-256.5" font-family="Helvetica,sans-Serif" font-size="10.00" fill="#000000"> guid</text>
</g>
<!-- Node7&#45;&gt;Node4 -->
<g id="edge10" class="edge">
<title>Node7&#45;&gt;Node4</title>
<path fill="none" stroke="#9a32cd" stroke-dasharray="5,2" d="M354.2781,-129.211C332.5712,-116.2256 301.6338,-97.7184 283.0171,-86.5817"/>
<polygon fill="#9a32cd" stroke="#9a32cd" points="352.5746,-132.2704 362.9531,-134.4005 356.1682,-126.2632 352.5746,-132.2704"/>
<text text-anchor="middle" x="341" y="-108" font-family="Helvetica,sans-Serif" font-size="10.00" fill="#000000"> type</text>
</g>
<!-- Node8 -->
<g id="node8" class="node">
<title>Node8</title>
<g id="a_node8"><a xlink:href="../../d9/d85/struct_u_a___data_type_member.html" target="_top" xlink:title="UA_DataTypeMember">
<polygon fill="#ffffff" stroke="#000000" points="358,-210.5 358,-229.5 472,-229.5 472,-210.5 358,-210.5"/>
<text text-anchor="middle" x="415" y="-217.5" font-family="Helvetica,sans-Serif" font-size="10.00" fill="#000000">UA_DataTypeMember</text>
</a>
</g>
</g>
<!-- Node8&#45;&gt;Node7 -->
<g id="edge12" class="edge">
<title>Node8&#45;&gt;Node7</title>
<path fill="none" stroke="#9a32cd" stroke-dasharray="5,2" d="M406.0036,-201.0075C398.8969,-186.0045 389.2683,-165.6775 383.6361,-153.7874"/>
<polygon fill="#9a32cd" stroke="#9a32cd" points="402.9966,-202.8355 410.4406,-210.3745 409.3227,-199.8388 402.9966,-202.8355"/>
<text text-anchor="middle" x="424" y="-179.5" font-family="Helvetica,sans-Serif" font-size="10.00" fill="#000000"> members</text>
</g>
</g>
</svg>
