<?xml version="1.0" encoding="UTF-8" standalone="no"?>
<!DOCTYPE svg PUBLIC "-//W3C//DTD SVG 1.1//EN"
 "http://www.w3.org/Graphics/SVG/1.1/DTD/svg11.dtd">
<!-- Generated by graphviz version 2.40.1 (20161225.0304)
 -->
<!-- Title: boxptr_CodegenCpp_createAssignArray Pages: 1 -->
<svg width="1302pt" height="239pt"
 viewBox="0.00 0.00 1302.00 238.50" xmlns="http://www.w3.org/2000/svg" xmlns:xlink="http://www.w3.org/1999/xlink">
<g id="graph0" class="graph" transform="scale(1 1) rotate(0) translate(4 234.5)">
<title>boxptr_CodegenCpp_createAssignArray</title>
<polygon fill="#ffffff" stroke="transparent" points="-4,4 -4,-234.5 1298,-234.5 1298,4 -4,4"/>
<!-- Node13598 -->
<g id="node1" class="node">
<title>Node13598</title>
<polygon fill="#bfbfbf" stroke="#000000" points="0,-52 0,-82 138,-82 138,-52 0,-52"/>
<text text-anchor="start" x="8" y="-70" font-family="Helvetica,sans-Serif" font-size="10.00" fill="#000000">boxptr_CodegenCpp_create</text>
<text text-anchor="middle" x="69" y="-59" font-family="Helvetica,sans-Serif" font-size="10.00" fill="#000000">AssignArray</text>
</g>
<!-- Node13599 -->
<g id="node2" class="node">
<title>Node13599</title>
<g id="a_node2"><a xlink:href="../../d0/df9/_codegen_cpp_8c.html#a4153dd5d41bdf4389d19160a5d910bb3" target="_top" xlink:title="omc_CodegenCpp_createAssign\lArray">
<polygon fill="#ffffff" stroke="#000000" points="174,-52 174,-82 334,-82 334,-52 174,-52"/>
<text text-anchor="start" x="182" y="-70" font-family="Helvetica,sans-Serif" font-size="10.00" fill="#000000">omc_CodegenCpp_createAssign</text>
<text text-anchor="middle" x="254" y="-59" font-family="Helvetica,sans-Serif" font-size="10.00" fill="#000000">Array</text>
</a>
</g>
</g>
<!-- Node13598&#45;&gt;Node13599 -->
<g id="edge1" class="edge">
<title>Node13598&#45;&gt;Node13599</title>
<path fill="none" stroke="#191970" d="M138.1503,-67C146.4857,-67 155.0919,-67 163.6731,-67"/>
<polygon fill="#191970" stroke="#191970" points="163.7176,-70.5001 173.7175,-67 163.7175,-63.5001 163.7176,-70.5001"/>
</g>
<!-- Node13600 -->
<g id="node3" class="node">
<title>Node13600</title>
<g id="a_node3"><a xlink:href="../../db/d13/_sim_code_util_8c.html#a6abbd0d57fc4e560f0b1cca0e319c76f" target="_top" xlink:title="omc_SimCodeUtil_cref2simvar">
<polygon fill="#ffffff" stroke="#000000" points="370,-76.5 370,-95.5 522,-95.5 522,-76.5 370,-76.5"/>
<text text-anchor="middle" x="446" y="-83.5" font-family="Helvetica,sans-Serif" font-size="10.00" fill="#000000">omc_SimCodeUtil_cref2simvar</text>
</a>
</g>
</g>
<!-- Node13599&#45;&gt;Node13600 -->
<g id="edge2" class="edge">
<title>Node13599&#45;&gt;Node13600</title>
<path fill="none" stroke="#191970" d="M334.035,-74.9201C342.54,-75.7618 351.2169,-76.6204 359.7887,-77.4687"/>
<polygon fill="#191970" stroke="#191970" points="359.4902,-80.9561 369.7863,-78.458 360.1796,-73.9902 359.4902,-80.9561"/>
</g>
<!-- Node13612 -->
<g id="node15" class="node">
<title>Node13612</title>
<g id="a_node15"><a xlink:href="../../d0/df9/_codegen_cpp_8c.html#afe659e0c8d0089aa57166ee4aa1edec7" target="_top" xlink:title="omc_CodegenCpp_fun__170">
<polygon fill="#ffffff" stroke="#000000" points="374.5,-38.5 374.5,-57.5 517.5,-57.5 517.5,-38.5 374.5,-38.5"/>
<text text-anchor="middle" x="446" y="-45.5" font-family="Helvetica,sans-Serif" font-size="10.00" fill="#000000">omc_CodegenCpp_fun__170</text>
</a>
</g>
</g>
<!-- Node13599&#45;&gt;Node13612 -->
<g id="edge15" class="edge">
<title>Node13599&#45;&gt;Node13612</title>
<path fill="none" stroke="#191970" d="M334.035,-59.0799C344.0673,-58.0871 354.339,-57.0706 364.395,-56.0755"/>
<polygon fill="#191970" stroke="#191970" points="364.7556,-59.557 374.3623,-55.0891 364.0662,-52.591 364.7556,-59.557"/>
</g>
<!-- Node13601 -->
<g id="node4" class="node">
<title>Node13601</title>
<g id="a_node4"><a xlink:href="../../db/d13/_sim_code_util_8c.html#a6ac63ead3f7fa7217edf0e2adee835d5" target="_top" xlink:title="omc_SimCodeUtil_simVarFromHT">
<polygon fill="#ffffff" stroke="#000000" points="558,-114.5 558,-133.5 726,-133.5 726,-114.5 558,-114.5"/>
<text text-anchor="middle" x="642" y="-121.5" font-family="Helvetica,sans-Serif" font-size="10.00" fill="#000000">omc_SimCodeUtil_simVarFromHT</text>
</a>
</g>
</g>
<!-- Node13600&#45;&gt;Node13601 -->
<g id="edge3" class="edge">
<title>Node13600&#45;&gt;Node13601</title>
<path fill="none" stroke="#191970" d="M495.2061,-95.54C521.7674,-100.6896 554.7491,-107.084 582.7175,-112.5065"/>
<polygon fill="#191970" stroke="#191970" points="582.2903,-115.9887 592.7737,-114.4561 583.6227,-109.1167 582.2903,-115.9887"/>
</g>
<!-- Node13611 -->
<g id="node14" class="node">
<title>Node13611</title>
<g id="a_node14"><a xlink:href="../../d7/deb/build_2include_2omc_2c_2util_2modelica__string_8c.html#a751007abc59e9ca7978f2af10a0c814f" target="_top" xlink:title="stringAppend">
<polygon fill="#ffffff" stroke="#000000" points="605,-76.5 605,-95.5 679,-95.5 679,-76.5 605,-76.5"/>
<text text-anchor="middle" x="642" y="-83.5" font-family="Helvetica,sans-Serif" font-size="10.00" fill="#000000">stringAppend</text>
</a>
</g>
</g>
<!-- Node13600&#45;&gt;Node13611 -->
<g id="edge14" class="edge">
<title>Node13600&#45;&gt;Node13611</title>
<path fill="none" stroke="#191970" d="M522.0592,-86C546.4723,-86 572.8003,-86 594.5526,-86"/>
<polygon fill="#191970" stroke="#191970" points="594.835,-89.5001 604.835,-86 594.8349,-82.5001 594.835,-89.5001"/>
</g>
<!-- Node13602 -->
<g id="node5" class="node">
<title>Node13602</title>
<g id="a_node5"><a xlink:href="../../d1/d89/_base_hash_table_8c.html#a22795ae4f7103dbcef447919a138ad13" target="_top" xlink:title="omc_BaseHashTable_hasKey">
<polygon fill="#ffffff" stroke="#000000" points="762,-156.5 762,-175.5 911,-175.5 911,-156.5 762,-156.5"/>
<text text-anchor="middle" x="836.5" y="-163.5" font-family="Helvetica,sans-Serif" font-size="10.00" fill="#000000">omc_BaseHashTable_hasKey</text>
</a>
</g>
</g>
<!-- Node13601&#45;&gt;Node13602 -->
<g id="edge4" class="edge">
<title>Node13601&#45;&gt;Node13602</title>
<path fill="none" stroke="#191970" d="M686.1351,-133.5305C714.6326,-139.6842 751.9079,-147.7333 782.2151,-154.2778"/>
<polygon fill="#191970" stroke="#191970" points="781.6899,-157.745 792.2034,-156.4347 783.1675,-150.9027 781.6899,-157.745"/>
</g>
<!-- Node13606 -->
<g id="node9" class="node">
<title>Node13606</title>
<g id="a_node9"><a xlink:href="../../d1/d89/_base_hash_table_8c.html#a89d79fe09d04759db65080adf5004e5a" target="_top" xlink:title="omc_BaseHashTable_get">
<polygon fill="#ffffff" stroke="#000000" points="772,-114.5 772,-133.5 901,-133.5 901,-114.5 772,-114.5"/>
<text text-anchor="middle" x="836.5" y="-121.5" font-family="Helvetica,sans-Serif" font-size="10.00" fill="#000000">omc_BaseHashTable_get</text>
</a>
</g>
</g>
<!-- Node13601&#45;&gt;Node13606 -->
<g id="edge8" class="edge">
<title>Node13601&#45;&gt;Node13606</title>
<path fill="none" stroke="#191970" d="M726.1793,-124C738.011,-124 750.1055,-124 761.7452,-124"/>
<polygon fill="#191970" stroke="#191970" points="761.8389,-127.5001 771.8388,-124 761.8388,-120.5001 761.8389,-127.5001"/>
</g>
<!-- Node13608 -->
<g id="node11" class="node">
<title>Node13608</title>
<g id="a_node11"><a xlink:href="../../d3/db3/_flags_8c.html#a34e6591659b1578969141a635ff24042" target="_top" xlink:title="omc_Flags_isSet">
<polygon fill="#ffffff" stroke="#000000" points="790.5,-68.5 790.5,-87.5 882.5,-87.5 882.5,-68.5 790.5,-68.5"/>
<text text-anchor="middle" x="836.5" y="-75.5" font-family="Helvetica,sans-Serif" font-size="10.00" fill="#000000">omc_Flags_isSet</text>
</a>
</g>
</g>
<!-- Node13601&#45;&gt;Node13608 -->
<g id="edge11" class="edge">
<title>Node13601&#45;&gt;Node13608</title>
<path fill="none" stroke="#191970" d="M684.7657,-114.4761C697.9953,-111.4898 712.6099,-108.15 726,-105 746.4627,-100.1862 769.013,-94.7075 788.377,-89.9491"/>
<polygon fill="#191970" stroke="#191970" points="789.3119,-93.3235 798.1848,-87.5338 787.638,-86.5266 789.3119,-93.3235"/>
</g>
<!-- Node13603 -->
<g id="node6" class="node">
<title>Node13603</title>
<g id="a_node6"><a xlink:href="../../d1/d89/_base_hash_table_8c.html#a9af2fd7934db53475c1958c756625ed0" target="_top" xlink:title="omc_BaseHashTable_valueArray\lKeyIndexExists">
<polygon fill="#ffffff" stroke="#000000" points="947,-200 947,-230 1109,-230 1109,-200 947,-200"/>
<text text-anchor="start" x="955" y="-218" font-family="Helvetica,sans-Serif" font-size="10.00" fill="#000000">omc_BaseHashTable_valueArray</text>
<text text-anchor="middle" x="1028" y="-207" font-family="Helvetica,sans-Serif" font-size="10.00" fill="#000000">KeyIndexExists</text>
</a>
</g>
</g>
<!-- Node13602&#45;&gt;Node13603 -->
<g id="edge5" class="edge">
<title>Node13602&#45;&gt;Node13603</title>
<path fill="none" stroke="#191970" d="M873.8777,-175.564C898.1223,-181.7676 930.4409,-190.0371 959.2202,-197.401"/>
<polygon fill="#191970" stroke="#191970" points="958.6776,-200.8748 969.2331,-199.963 960.4128,-194.0933 958.6776,-200.8748"/>
</g>
<!-- Node13604 -->
<g id="node7" class="node">
<title>Node13604</title>
<g id="a_node7"><a xlink:href="../../d1/d89/_base_hash_table_8c.html#a1dc20718d1229dd4706dff8e089bbc55" target="_top" xlink:title="omc_BaseHashTable_hasKey\lIndex">
<polygon fill="#ffffff" stroke="#000000" points="953.5,-151 953.5,-181 1102.5,-181 1102.5,-151 953.5,-151"/>
<text text-anchor="start" x="961.5" y="-169" font-family="Helvetica,sans-Serif" font-size="10.00" fill="#000000">omc_BaseHashTable_hasKey</text>
<text text-anchor="middle" x="1028" y="-158" font-family="Helvetica,sans-Serif" font-size="10.00" fill="#000000">Index</text>
</a>
</g>
</g>
<!-- Node13602&#45;&gt;Node13604 -->
<g id="edge6" class="edge">
<title>Node13602&#45;&gt;Node13604</title>
<path fill="none" stroke="#191970" d="M911.0872,-166C921.5925,-166 932.4555,-166 943.1355,-166"/>
<polygon fill="#191970" stroke="#191970" points="943.3013,-169.5001 953.3013,-166 943.3013,-162.5001 943.3013,-169.5001"/>
</g>
<!-- Node13605 -->
<g id="node8" class="node">
<title>Node13605</title>
<g id="a_node8"><a xlink:href="../../d1/d89/_base_hash_table_8c.html#ad6cae0daa36185ebacd9e96e4adaf37e" target="_top" xlink:title="omc_BaseHashTable_hasKey\lIndex2">
<polygon fill="#ffffff" stroke="#000000" points="1145,-151 1145,-181 1294,-181 1294,-151 1145,-151"/>
<text text-anchor="start" x="1153" y="-169" font-family="Helvetica,sans-Serif" font-size="10.00" fill="#000000">omc_BaseHashTable_hasKey</text>
<text text-anchor="middle" x="1219.5" y="-158" font-family="Helvetica,sans-Serif" font-size="10.00" fill="#000000">Index2</text>
</a>
</g>
</g>
<!-- Node13604&#45;&gt;Node13605 -->
<g id="edge7" class="edge">
<title>Node13604&#45;&gt;Node13605</title>
<path fill="none" stroke="#191970" d="M1102.5872,-166C1113.0925,-166 1123.9555,-166 1134.6355,-166"/>
<polygon fill="#191970" stroke="#191970" points="1134.8013,-169.5001 1144.8013,-166 1134.8013,-162.5001 1134.8013,-169.5001"/>
</g>
<!-- Node13606&#45;&gt;Node13604 -->
<g id="edge9" class="edge">
<title>Node13606&#45;&gt;Node13604</title>
<path fill="none" stroke="#191970" d="M879.9543,-133.5305C900.5213,-138.0412 925.7319,-143.5704 949.4801,-148.7789"/>
<polygon fill="#191970" stroke="#191970" points="949.033,-152.264 959.5506,-150.9876 950.5326,-145.4265 949.033,-152.264"/>
</g>
<!-- Node13607 -->
<g id="node10" class="node">
<title>Node13607</title>
<g id="a_node10"><a xlink:href="../../d1/d89/_base_hash_table_8c.html#a018ef99580d91a5634881de73febc66d" target="_top" xlink:title="omc_BaseHashTable_getValue\lArray">
<polygon fill="#ffffff" stroke="#000000" points="951,-102 951,-132 1105,-132 1105,-102 951,-102"/>
<text text-anchor="start" x="959" y="-120" font-family="Helvetica,sans-Serif" font-size="10.00" fill="#000000">omc_BaseHashTable_getValue</text>
<text text-anchor="middle" x="1028" y="-109" font-family="Helvetica,sans-Serif" font-size="10.00" fill="#000000">Array</text>
</a>
</g>
</g>
<!-- Node13606&#45;&gt;Node13607 -->
<g id="edge10" class="edge">
<title>Node13606&#45;&gt;Node13607</title>
<path fill="none" stroke="#191970" d="M901.0662,-121.6399C913.7857,-121.1749 927.3293,-120.6799 940.6542,-120.1928"/>
<polygon fill="#191970" stroke="#191970" points="940.9185,-123.6856 950.7839,-119.8225 940.6627,-116.6902 940.9185,-123.6856"/>
</g>
<!-- Node13609 -->
<g id="node12" class="node">
<title>Node13609</title>
<g id="a_node12"><a xlink:href="../../d3/db3/_flags_8c.html#a760d66f53b65ac257876ca0f6308f09f" target="_top" xlink:title="omc_Flags_loadFlags">
<polygon fill="#ffffff" stroke="#000000" points="972,-63.5 972,-82.5 1084,-82.5 1084,-63.5 972,-63.5"/>
<text text-anchor="middle" x="1028" y="-70.5" font-family="Helvetica,sans-Serif" font-size="10.00" fill="#000000">omc_Flags_loadFlags</text>
</a>
</g>
</g>
<!-- Node13608&#45;&gt;Node13609 -->
<g id="edge12" class="edge">
<title>Node13608&#45;&gt;Node13609</title>
<path fill="none" stroke="#191970" d="M882.8568,-76.7896C906.5054,-76.1722 935.6896,-75.4102 961.6722,-74.7318"/>
<polygon fill="#191970" stroke="#191970" points="961.9243,-78.2265 971.8296,-74.4666 961.7416,-71.2289 961.9243,-78.2265"/>
</g>
<!-- Node13610 -->
<g id="node13" class="node">
<title>Node13610</title>
<g id="a_node13"><a xlink:href="../../da/d72/_compiler_2boot_2build_2list_8c.html#a3ec1ee3a5ff53be9af368e290be09182" target="_top" xlink:title="omc_List_fold">
<polygon fill="#ffffff" stroke="#000000" points="1181,-63.5 1181,-82.5 1258,-82.5 1258,-63.5 1181,-63.5"/>
<text text-anchor="middle" x="1219.5" y="-70.5" font-family="Helvetica,sans-Serif" font-size="10.00" fill="#000000">omc_List_fold</text>
</a>
</g>
</g>
<!-- Node13609&#45;&gt;Node13610 -->
<g id="edge13" class="edge">
<title>Node13609&#45;&gt;Node13610</title>
<path fill="none" stroke="#191970" d="M1084.1624,-73C1111.6377,-73 1144.3914,-73 1170.7944,-73"/>
<polygon fill="#191970" stroke="#191970" points="1170.946,-76.5001 1180.946,-73 1170.946,-69.5001 1170.946,-76.5001"/>
</g>
<!-- Node13613 -->
<g id="node16" class="node">
<title>Node13613</title>
<g id="a_node16"><a xlink:href="../../d7/d52/_tpl_8c.html#ada57037d1430be632aea182a946c3245" target="_top" xlink:title="omc_Tpl_writeStr">
<polygon fill="#ffffff" stroke="#000000" points="595.5,-38.5 595.5,-57.5 688.5,-57.5 688.5,-38.5 595.5,-38.5"/>
<text text-anchor="middle" x="642" y="-45.5" font-family="Helvetica,sans-Serif" font-size="10.00" fill="#000000">omc_Tpl_writeStr</text>
</a>
</g>
</g>
<!-- Node13612&#45;&gt;Node13613 -->
<g id="edge16" class="edge">
<title>Node13612&#45;&gt;Node13613</title>
<path fill="none" stroke="#191970" d="M517.5925,-48C539.8651,-48 564.1043,-48 585.221,-48"/>
<polygon fill="#191970" stroke="#191970" points="585.3143,-51.5001 595.3143,-48 585.3142,-44.5001 585.3143,-51.5001"/>
</g>
<!-- Node13614 -->
<g id="node17" class="node">
<title>Node13614</title>
<g id="a_node17"><a xlink:href="../../d7/d52/_tpl_8c.html#a1038a57834f028b49f38adc4d5fcd049" target="_top" xlink:title="omc_Tpl_writeTok">
<polygon fill="#ffffff" stroke="#000000" points="593.5,-.5 593.5,-19.5 690.5,-19.5 690.5,-.5 593.5,-.5"/>
<text text-anchor="middle" x="642" y="-7.5" font-family="Helvetica,sans-Serif" font-size="10.00" fill="#000000">omc_Tpl_writeTok</text>
</a>
</g>
</g>
<!-- Node13612&#45;&gt;Node13614 -->
<g id="edge17" class="edge">
<title>Node13612&#45;&gt;Node13614</title>
<path fill="none" stroke="#191970" d="M495.2061,-38.46C521.9694,-33.2712 555.2511,-26.8187 583.3547,-21.37"/>
<polygon fill="#191970" stroke="#191970" points="584.3017,-24.7517 593.4527,-19.4122 582.9693,-17.8796 584.3017,-24.7517"/>
</g>
</g>
</svg>
