<?xml version="1.0" encoding="UTF-8" standalone="no"?>
<!DOCTYPE svg PUBLIC "-//W3C//DTD SVG 1.1//EN"
 "http://www.w3.org/Graphics/SVG/1.1/DTD/svg11.dtd">
<!-- Generated by graphviz version 2.40.1 (20161225.0304)
 -->
<!-- Title: omc_CodegenCpp_fun__249 Pages: 1 -->
<svg width="1825pt" height="39pt"
 viewBox="0.00 0.00 1825.00 39.00" xmlns="http://www.w3.org/2000/svg" xmlns:xlink="http://www.w3.org/1999/xlink">
<g id="graph0" class="graph" transform="scale(1 1) rotate(0) translate(4 35)">
<title>omc_CodegenCpp_fun__249</title>
<polygon fill="#ffffff" stroke="transparent" points="-4,4 -4,-35 1821,-35 1821,4 -4,4"/>
<!-- Node239915 -->
<g id="node1" class="node">
<title>Node239915</title>
<polygon fill="#bfbfbf" stroke="#000000" points="0,-6 0,-25 143,-25 143,-6 0,-6"/>
<text text-anchor="middle" x="71.5" y="-13" font-family="Helvetica,sans-Serif" font-size="10.00" fill="#000000">omc_CodegenCpp_fun__249</text>
</g>
<!-- Node239916 -->
<g id="node2" class="node">
<title>Node239916</title>
<g id="a_node2"><a xlink:href="../../d0/df9/_codegen_cpp_8c.html#aa360045d9c6a43d41fd3c10f42cc0550" target="_top" xlink:title="omc_CodegenCpp_fun__250">
<polygon fill="#ffffff" stroke="#000000" points="179,-6 179,-25 322,-25 322,-6 179,-6"/>
<text text-anchor="middle" x="250.5" y="-13" font-family="Helvetica,sans-Serif" font-size="10.00" fill="#000000">omc_CodegenCpp_fun__250</text>
</a>
</g>
</g>
<!-- Node239915&#45;&gt;Node239916 -->
<g id="edge1" class="edge">
<title>Node239915&#45;&gt;Node239916</title>
<path fill="none" stroke="#191970" d="M153.0428,-15.5C161.6381,-15.5 170.3321,-15.5 178.8042,-15.5"/>
<polygon fill="#191970" stroke="#191970" points="153.0173,-12.0001 143.0172,-15.5 153.0172,-19.0001 153.0173,-12.0001"/>
</g>
<!-- Node239917 -->
<g id="node3" class="node">
<title>Node239917</title>
<g id="a_node3"><a xlink:href="../../d0/df9/_codegen_cpp_8c.html#a4de0ffe861c89deb75f3e085a172dd4e" target="_top" xlink:title="omc_CodegenCpp_fun__251">
<polygon fill="#ffffff" stroke="#000000" points="358,-6 358,-25 501,-25 501,-6 358,-6"/>
<text text-anchor="middle" x="429.5" y="-13" font-family="Helvetica,sans-Serif" font-size="10.00" fill="#000000">omc_CodegenCpp_fun__251</text>
</a>
</g>
</g>
<!-- Node239916&#45;&gt;Node239917 -->
<g id="edge2" class="edge">
<title>Node239916&#45;&gt;Node239917</title>
<path fill="none" stroke="#191970" d="M332.0428,-15.5C340.6381,-15.5 349.3321,-15.5 357.8042,-15.5"/>
<polygon fill="#191970" stroke="#191970" points="332.0173,-12.0001 322.0172,-15.5 332.0172,-19.0001 332.0173,-12.0001"/>
</g>
<!-- Node239918 -->
<g id="node4" class="node">
<title>Node239918</title>
<g id="a_node4"><a xlink:href="../../d6/d8e/_codegen_cpp_8h.html#a20b8357ae78c1dd0fbb2410bb5219c37" target="_top" xlink:title="omc_CodegenCpp_setMainFBInputVars">
<polygon fill="#ffffff" stroke="#000000" points="537,-6 537,-25 729,-25 729,-6 537,-6"/>
<text text-anchor="middle" x="633" y="-13" font-family="Helvetica,sans-Serif" font-size="10.00" fill="#000000">omc_CodegenCpp_setMainFBInputVars</text>
</a>
</g>
</g>
<!-- Node239917&#45;&gt;Node239918 -->
<g id="edge3" class="edge">
<title>Node239917&#45;&gt;Node239918</title>
<path fill="none" stroke="#191970" d="M511.395,-15.5C519.8048,-15.5 528.4029,-15.5 536.9473,-15.5"/>
<polygon fill="#191970" stroke="#191970" points="511.2465,-12.0001 501.2465,-15.5 511.2465,-19.0001 511.2465,-12.0001"/>
</g>
<!-- Node239919 -->
<g id="node5" class="node">
<title>Node239919</title>
<g id="a_node5"><a xlink:href="../../d0/df9/_codegen_cpp_8c.html#a0df1b39ca3d266ae3be6c28889331e82" target="_top" xlink:title="omc_CodegenCpp_fun__221">
<polygon fill="#ffffff" stroke="#000000" points="765,-6 765,-25 908,-25 908,-6 765,-6"/>
<text text-anchor="middle" x="836.5" y="-13" font-family="Helvetica,sans-Serif" font-size="10.00" fill="#000000">omc_CodegenCpp_fun__221</text>
</a>
</g>
</g>
<!-- Node239918&#45;&gt;Node239919 -->
<g id="edge4" class="edge">
<title>Node239918&#45;&gt;Node239919</title>
<path fill="none" stroke="#191970" d="M739.2581,-15.5C747.9166,-15.5 756.5315,-15.5 764.8513,-15.5"/>
<polygon fill="#191970" stroke="#191970" points="739.0888,-12.0001 729.0888,-15.5 739.0887,-19.0001 739.0888,-12.0001"/>
</g>
<!-- Node239920 -->
<g id="node6" class="node">
<title>Node239920</title>
<g id="a_node6"><a xlink:href="../../d0/df9/_codegen_cpp_8c.html#ab3eb22debec3bb6c070cc2ff9a463668" target="_top" xlink:title="omc_CodegenCpp_fun__231">
<polygon fill="#ffffff" stroke="#000000" points="944,-6 944,-25 1087,-25 1087,-6 944,-6"/>
<text text-anchor="middle" x="1015.5" y="-13" font-family="Helvetica,sans-Serif" font-size="10.00" fill="#000000">omc_CodegenCpp_fun__231</text>
</a>
</g>
</g>
<!-- Node239919&#45;&gt;Node239920 -->
<g id="edge5" class="edge">
<title>Node239919&#45;&gt;Node239920</title>
<path fill="none" stroke="#191970" d="M918.0428,-15.5C926.6381,-15.5 935.3321,-15.5 943.8042,-15.5"/>
<polygon fill="#191970" stroke="#191970" points="918.0173,-12.0001 908.0172,-15.5 918.0172,-19.0001 918.0173,-12.0001"/>
</g>
<!-- Node239921 -->
<g id="node7" class="node">
<title>Node239921</title>
<g id="a_node7"><a xlink:href="../../d6/d8e/_codegen_cpp_8h.html#a1a669712b06151b047a28979fb45fe58" target="_top" xlink:title="omc_CodegenCpp_simulation\lMainFile">
<polygon fill="#ffffff" stroke="#000000" points="1123,-.5 1123,-30.5 1270,-30.5 1270,-.5 1123,-.5"/>
<text text-anchor="start" x="1131" y="-18.5" font-family="Helvetica,sans-Serif" font-size="10.00" fill="#000000">omc_CodegenCpp_simulation</text>
<text text-anchor="middle" x="1196.5" y="-7.5" font-family="Helvetica,sans-Serif" font-size="10.00" fill="#000000">MainFile</text>
</a>
</g>
</g>
<!-- Node239920&#45;&gt;Node239921 -->
<g id="edge6" class="edge">
<title>Node239920&#45;&gt;Node239921</title>
<path fill="none" stroke="#191970" d="M1097.0449,-15.5C1105.6294,-15.5 1114.3225,-15.5 1122.811,-15.5"/>
<polygon fill="#191970" stroke="#191970" points="1097.036,-12.0001 1087.036,-15.5 1097.036,-19.0001 1097.036,-12.0001"/>
</g>
<!-- Node239922 -->
<g id="node8" class="node">
<title>Node239922</title>
<g id="a_node8"><a xlink:href="../../d0/df9/_codegen_cpp_8c.html#aa7c7709a5cda769632291bb6f29d8b29" target="_top" xlink:title="omc_CodegenCpp_fun__46">
<polygon fill="#ffffff" stroke="#000000" points="1306,-6 1306,-25 1443,-25 1443,-6 1306,-6"/>
<text text-anchor="middle" x="1374.5" y="-13" font-family="Helvetica,sans-Serif" font-size="10.00" fill="#000000">omc_CodegenCpp_fun__46</text>
</a>
</g>
</g>
<!-- Node239921&#45;&gt;Node239922 -->
<g id="edge7" class="edge">
<title>Node239921&#45;&gt;Node239922</title>
<path fill="none" stroke="#191970" d="M1280.4575,-15.5C1288.9214,-15.5 1297.4464,-15.5 1305.7248,-15.5"/>
<polygon fill="#191970" stroke="#191970" points="1280.1843,-12.0001 1270.1843,-15.5 1280.1843,-19.0001 1280.1843,-12.0001"/>
</g>
<!-- Node239923 -->
<g id="node9" class="node">
<title>Node239923</title>
<g id="a_node9"><a xlink:href="../../d6/d8e/_codegen_cpp_8h.html#a54676ae5ee46975a3ec1566a9856625c" target="_top" xlink:title="omc_CodegenCpp_translate\lModel">
<polygon fill="#ffffff" stroke="#000000" points="1479,-.5 1479,-30.5 1619,-30.5 1619,-.5 1479,-.5"/>
<text text-anchor="start" x="1487" y="-18.5" font-family="Helvetica,sans-Serif" font-size="10.00" fill="#000000">omc_CodegenCpp_translate</text>
<text text-anchor="middle" x="1549" y="-7.5" font-family="Helvetica,sans-Serif" font-size="10.00" fill="#000000">Model</text>
</a>
</g>
</g>
<!-- Node239922&#45;&gt;Node239923 -->
<g id="edge8" class="edge">
<title>Node239922&#45;&gt;Node239923</title>
<path fill="none" stroke="#191970" d="M1453.4852,-15.5C1461.9643,-15.5 1470.5484,-15.5 1478.9134,-15.5"/>
<polygon fill="#191970" stroke="#191970" points="1453.2166,-12.0001 1443.2165,-15.5 1453.2165,-19.0001 1453.2166,-12.0001"/>
</g>
<!-- Node239924 -->
<g id="node10" class="node">
<title>Node239924</title>
<g id="a_node10"><a xlink:href="../../d5/d4c/_codegen_f_m_u_cpp_8h.html#a1fc774045fbfd7b6dc9872f8b61ccdad" target="_top" xlink:title="omc_CodegenFMUCpp_translate\lModel">
<polygon fill="#ffffff" stroke="#000000" points="1655,-.5 1655,-30.5 1817,-30.5 1817,-.5 1655,-.5"/>
<text text-anchor="start" x="1663" y="-18.5" font-family="Helvetica,sans-Serif" font-size="10.00" fill="#000000">omc_CodegenFMUCpp_translate</text>
<text text-anchor="middle" x="1736" y="-7.5" font-family="Helvetica,sans-Serif" font-size="10.00" fill="#000000">Model</text>
</a>
</g>
</g>
<!-- Node239923&#45;&gt;Node239924 -->
<g id="edge9" class="edge">
<title>Node239923&#45;&gt;Node239924</title>
<path fill="none" stroke="#191970" d="M1629.3393,-15.5C1637.7557,-15.5 1646.3173,-15.5 1654.744,-15.5"/>
<polygon fill="#191970" stroke="#191970" points="1629.164,-12.0001 1619.1639,-15.5 1629.1639,-19.0001 1629.164,-12.0001"/>
</g>
</g>
</svg>
