<?xml version="1.0" encoding="UTF-8" standalone="no"?>
<!DOCTYPE svg PUBLIC "-//W3C//DTD SVG 1.1//EN"
 "http://www.w3.org/Graphics/SVG/1.1/DTD/svg11.dtd">
<!-- Generated by graphviz version 2.40.1 (20161225.0304)
 -->
<!-- Title: omc_CodegenCpp_fun__738 Pages: 1 -->
<svg width="645pt" height="254pt"
 viewBox="0.00 0.00 645.00 253.53" xmlns="http://www.w3.org/2000/svg" xmlns:xlink="http://www.w3.org/1999/xlink">
<g id="graph0" class="graph" transform="scale(1 1) rotate(0) translate(4 249.5286)">
<title>omc_CodegenCpp_fun__738</title>
<polygon fill="#ffffff" stroke="transparent" points="-4,4 -4,-249.5286 641,-249.5286 641,4 -4,4"/>
<!-- Node281367 -->
<g id="node1" class="node">
<title>Node281367</title>
<polygon fill="#bfbfbf" stroke="#000000" points="0,-144.6875 0,-163.6875 143,-163.6875 143,-144.6875 0,-144.6875"/>
<text text-anchor="middle" x="71.5" y="-151.6875" font-family="Helvetica,sans-Serif" font-size="10.00" fill="#000000">omc_CodegenCpp_fun__738</text>
</g>
<!-- Node281368 -->
<g id="node2" class="node">
<title>Node281368</title>
<g id="a_node2"><a xlink:href="../../d0/df9/_codegen_cpp_8c.html#accd603d6a498dd3bc8bfcf15622607e9" target="_top" xlink:title="omc_CodegenCpp_lastIdent\lOfPath">
<polygon fill="#ffffff" stroke="#000000" points="180.5,-205.1875 180.5,-235.1875 320.5,-235.1875 320.5,-205.1875 180.5,-205.1875"/>
<text text-anchor="start" x="188.5" y="-223.1875" font-family="Helvetica,sans-Serif" font-size="10.00" fill="#000000">omc_CodegenCpp_lastIdent</text>
<text text-anchor="middle" x="250.5" y="-212.1875" font-family="Helvetica,sans-Serif" font-size="10.00" fill="#000000">OfPath</text>
</a>
</g>
</g>
<!-- Node281367&#45;&gt;Node281368 -->
<g id="edge1" class="edge">
<title>Node281367&#45;&gt;Node281368</title>
<path fill="none" stroke="#191970" d="M97.5281,-163.7844C124.2684,-173.644 166.5828,-189.2459 199.936,-201.5438"/>
<polygon fill="#191970" stroke="#191970" points="198.9342,-204.9047 209.5276,-205.0803 201.3559,-198.3369 198.9342,-204.9047"/>
</g>
<!-- Node281370 -->
<g id="node4" class="node">
<title>Node281370</title>
<g id="a_node4"><a xlink:href="../../d0/df9/_codegen_cpp_8c.html#a3f8832dd02a55103979aabd31aeebf49" target="_top" xlink:title="omc_CodegenCpp_fun__737">
<polygon fill="#ffffff" stroke="#000000" points="179,-122.6875 179,-141.6875 322,-141.6875 322,-122.6875 179,-122.6875"/>
<text text-anchor="middle" x="250.5" y="-129.6875" font-family="Helvetica,sans-Serif" font-size="10.00" fill="#000000">omc_CodegenCpp_fun__737</text>
</a>
</g>
</g>
<!-- Node281367&#45;&gt;Node281370 -->
<g id="edge3" class="edge">
<title>Node281367&#45;&gt;Node281370</title>
<path fill="none" stroke="#191970" d="M143.0172,-145.3976C151.4862,-144.3568 160.1793,-143.2883 168.776,-142.2318"/>
<polygon fill="#191970" stroke="#191970" points="169.3059,-145.6931 178.8042,-140.9992 168.4519,-138.7453 169.3059,-145.6931"/>
</g>
<!-- Node281369 -->
<g id="node3" class="node">
<title>Node281369</title>
<g id="a_node3"><a xlink:href="../../d7/d52/_tpl_8c.html#ada57037d1430be632aea182a946c3245" target="_top" xlink:title="omc_Tpl_writeStr">
<polygon fill="#ffffff" stroke="#000000" points="540.5,-217.6875 540.5,-236.6875 633.5,-236.6875 633.5,-217.6875 540.5,-217.6875"/>
<text text-anchor="middle" x="587" y="-224.6875" font-family="Helvetica,sans-Serif" font-size="10.00" fill="#000000">omc_Tpl_writeStr</text>
</a>
</g>
</g>
<!-- Node281368&#45;&gt;Node281369 -->
<g id="edge2" class="edge">
<title>Node281368&#45;&gt;Node281369</title>
<path fill="none" stroke="#191970" d="M316.7259,-235.2003C330.3082,-237.6928 344.5614,-239.8871 358,-241.1875 421.2601,-247.3085 437.6512,-246.31 501,-241.1875 510.512,-240.4183 520.5585,-239.178 530.2984,-237.7456"/>
<polygon fill="#191970" stroke="#191970" points="530.9564,-241.1855 540.3022,-236.1949 529.8841,-234.2681 530.9564,-241.1855"/>
</g>
<!-- Node281370&#45;&gt;Node281369 -->
<g id="edge7" class="edge">
<title>Node281370&#45;&gt;Node281369</title>
<path fill="none" stroke="#191970" d="M265.527,-141.7251C285.7491,-154.1187 323.2092,-175.5454 358,-187.1875 415.0505,-206.2783 483.304,-216.6987 530.3714,-222.0731"/>
<polygon fill="#191970" stroke="#191970" points="530.0538,-225.5592 540.3772,-223.1761 530.8209,-218.6014 530.0538,-225.5592"/>
</g>
<!-- Node281371 -->
<g id="node5" class="node">
<title>Node281371</title>
<g id="a_node5"><a xlink:href="../../d7/d52/_tpl_8c.html#a99d6bda0846441f21c5081261888085a" target="_top" xlink:title="omc_Tpl_pushBlock">
<polygon fill="#ffffff" stroke="#000000" points="377,-27.6875 377,-46.6875 482,-46.6875 482,-27.6875 377,-27.6875"/>
<text text-anchor="middle" x="429.5" y="-34.6875" font-family="Helvetica,sans-Serif" font-size="10.00" fill="#000000">omc_Tpl_pushBlock</text>
</a>
</g>
</g>
<!-- Node281370&#45;&gt;Node281371 -->
<g id="edge4" class="edge">
<title>Node281370&#45;&gt;Node281371</title>
<path fill="none" stroke="#191970" d="M262.7643,-122.537C282.0865,-107.7013 321.2117,-79.1297 358,-61.1875 366.5562,-57.0145 376.0194,-53.276 385.1842,-50.0618"/>
<polygon fill="#191970" stroke="#191970" points="386.5872,-53.2829 394.9548,-46.7841 384.3609,-46.6464 386.5872,-53.2829"/>
</g>
<!-- Node281372 -->
<g id="node6" class="node">
<title>Node281372</title>
<g id="a_node6"><a xlink:href="../../d7/d52/_tpl_8c.html#a1038a57834f028b49f38adc4d5fcd049" target="_top" xlink:title="omc_Tpl_writeTok">
<polygon fill="#ffffff" stroke="#000000" points="538.5,-8.6875 538.5,-27.6875 635.5,-27.6875 635.5,-8.6875 538.5,-8.6875"/>
<text text-anchor="middle" x="587" y="-15.6875" font-family="Helvetica,sans-Serif" font-size="10.00" fill="#000000">omc_Tpl_writeTok</text>
</a>
</g>
</g>
<!-- Node281370&#45;&gt;Node281372 -->
<g id="edge5" class="edge">
<title>Node281370&#45;&gt;Node281372</title>
<path fill="none" stroke="#191970" d="M255.8953,-122.3652C269.4095,-98.9299 307.2962,-40.0664 358,-18.1875 414.9127,6.3706 487.4414,1.0158 535.4556,-6.9254"/>
<polygon fill="#191970" stroke="#191970" points="534.8614,-10.3746 545.3148,-8.6494 536.0672,-3.4792 534.8614,-10.3746"/>
</g>
<!-- Node281373 -->
<g id="node7" class="node">
<title>Node281373</title>
<g id="a_node7"><a xlink:href="../../d7/d52/_tpl_8c.html#a7e5a397e973cf3de37af50d58cbb789f" target="_top" xlink:title="omc_Tpl_writeText">
<polygon fill="#ffffff" stroke="#000000" points="537,-141.6875 537,-160.6875 637,-160.6875 637,-141.6875 537,-141.6875"/>
<text text-anchor="middle" x="587" y="-148.6875" font-family="Helvetica,sans-Serif" font-size="10.00" fill="#000000">omc_Tpl_writeText</text>
</a>
</g>
</g>
<!-- Node281370&#45;&gt;Node281373 -->
<g id="edge6" class="edge">
<title>Node281370&#45;&gt;Node281373</title>
<path fill="none" stroke="#191970" d="M270.9475,-141.7765C292.1684,-151.1584 326.589,-164.7991 358,-170.1875 420.6406,-180.933 437.8197,-177.0835 501,-170.1875 514.5663,-168.7067 529.1261,-165.9491 542.3378,-162.9849"/>
<polygon fill="#191970" stroke="#191970" points="543.1975,-166.3784 552.1393,-160.6956 541.6053,-159.5618 543.1975,-166.3784"/>
</g>
<!-- Node281374 -->
<g id="node8" class="node">
<title>Node281374</title>
<g id="a_node8"><a xlink:href="../../d2/d57/build_2include_2omc_2c_2meta_2meta__modelica__builtin_8h.html#a751bf2360cb3df6de97811998890b7ea" target="_top" xlink:title="intString">
<polygon fill="#ffffff" stroke="#000000" points="560.5,-65.6875 560.5,-84.6875 613.5,-84.6875 613.5,-65.6875 560.5,-65.6875"/>
<text text-anchor="middle" x="587" y="-72.6875" font-family="Helvetica,sans-Serif" font-size="10.00" fill="#000000">intString</text>
</a>
</g>
</g>
<!-- Node281370&#45;&gt;Node281374 -->
<g id="edge8" class="edge">
<title>Node281370&#45;&gt;Node281374</title>
<path fill="none" stroke="#191970" d="M272.2552,-122.6284C293.6379,-113.6841 327.4195,-100.7464 358,-94.1875 424.7662,-79.8674 504.6252,-76.2027 550.2207,-75.3464"/>
<polygon fill="#191970" stroke="#191970" points="550.2841,-78.846 560.2295,-75.1937 550.1773,-71.8468 550.2841,-78.846"/>
</g>
<!-- Node281375 -->
<g id="node9" class="node">
<title>Node281375</title>
<g id="a_node9"><a xlink:href="../../d7/d52/_tpl_8c.html#a6cf6c8514535aa47abb9ff6badd4f6a5" target="_top" xlink:title="omc_Tpl_popBlock">
<polygon fill="#ffffff" stroke="#000000" points="379.5,-141.6875 379.5,-160.6875 479.5,-160.6875 479.5,-141.6875 379.5,-141.6875"/>
<text text-anchor="middle" x="429.5" y="-148.6875" font-family="Helvetica,sans-Serif" font-size="10.00" fill="#000000">omc_Tpl_popBlock</text>
</a>
</g>
</g>
<!-- Node281370&#45;&gt;Node281375 -->
<g id="edge9" class="edge">
<title>Node281370&#45;&gt;Node281375</title>
<path fill="none" stroke="#191970" d="M322.0172,-139.7787C337.6041,-141.4332 353.9499,-143.1682 369.0569,-144.7717"/>
<polygon fill="#191970" stroke="#191970" points="368.9794,-148.2831 379.293,-145.8582 369.7183,-141.3222 368.9794,-148.2831"/>
</g>
<!-- Node281376 -->
<g id="node10" class="node">
<title>Node281376</title>
<g id="a_node10"><a xlink:href="../../d0/df9/_codegen_cpp_8c.html#a98628630a7a978836502523dd9c4d37c" target="_top" xlink:title="omc_CodegenCpp_fun__736">
<polygon fill="#ffffff" stroke="#000000" points="358,-103.6875 358,-122.6875 501,-122.6875 501,-103.6875 358,-103.6875"/>
<text text-anchor="middle" x="429.5" y="-110.6875" font-family="Helvetica,sans-Serif" font-size="10.00" fill="#000000">omc_CodegenCpp_fun__736</text>
</a>
</g>
</g>
<!-- Node281370&#45;&gt;Node281376 -->
<g id="edge10" class="edge">
<title>Node281370&#45;&gt;Node281376</title>
<path fill="none" stroke="#191970" d="M322.0172,-124.5962C330.4862,-123.6973 339.1793,-122.7746 347.776,-121.8621"/>
<polygon fill="#191970" stroke="#191970" points="348.2295,-125.3337 357.8042,-120.7976 347.4906,-118.3728 348.2295,-125.3337"/>
</g>
<!-- Node281376&#45;&gt;Node281369 -->
<g id="edge13" class="edge">
<title>Node281376&#45;&gt;Node281369</title>
<path fill="none" stroke="#191970" d="M480.2371,-122.7453C487.4902,-125.2145 494.639,-128.3102 501,-132.1875 505.371,-134.8518 547.9215,-182.8034 571.4852,-209.5365"/>
<polygon fill="#191970" stroke="#191970" points="569.1611,-212.1934 578.3961,-217.3863 574.4151,-207.5678 569.1611,-212.1934"/>
</g>
<!-- Node281376&#45;&gt;Node281372 -->
<g id="edge11" class="edge">
<title>Node281376&#45;&gt;Node281372</title>
<path fill="none" stroke="#191970" d="M445.4687,-103.5556C472.9438,-86.9833 529.3511,-52.9598 562.0495,-33.237"/>
<polygon fill="#191970" stroke="#191970" points="564.2339,-36.0069 570.989,-27.8449 560.6184,-30.0128 564.2339,-36.0069"/>
</g>
<!-- Node281376&#45;&gt;Node281373 -->
<g id="edge12" class="edge">
<title>Node281376&#45;&gt;Node281373</title>
<path fill="none" stroke="#191970" d="M469.2439,-122.7765C490.0277,-127.791 515.6611,-133.9755 537.6995,-139.2927"/>
<polygon fill="#191970" stroke="#191970" points="536.9999,-142.7243 547.5419,-141.6674 538.6417,-135.9196 536.9999,-142.7243"/>
</g>
<!-- Node281376&#45;&gt;Node281374 -->
<g id="edge14" class="edge">
<title>Node281376&#45;&gt;Node281374</title>
<path fill="none" stroke="#191970" d="M469.2439,-103.5985C494.1221,-97.5961 525.9488,-89.9173 550.241,-84.0563"/>
<polygon fill="#191970" stroke="#191970" points="551.2483,-87.4138 560.1484,-81.6659 549.6064,-80.609 551.2483,-87.4138"/>
</g>
</g>
</svg>
