<?xml version="1.0" encoding="UTF-8" standalone="no"?>
<!DOCTYPE svg PUBLIC "-//W3C//DTD SVG 1.1//EN"
 "http://www.w3.org/Graphics/SVG/1.1/DTD/svg11.dtd">
<!-- Generated by graphviz version 2.40.1 (20161225.0304)
 -->
<!-- Title: omc_CodegenCpp_lm__1114 Pages: 1 -->
<svg width="914pt" height="130pt"
 viewBox="0.00 0.00 914.00 129.50" xmlns="http://www.w3.org/2000/svg" xmlns:xlink="http://www.w3.org/1999/xlink">
<g id="graph0" class="graph" transform="scale(1 1) rotate(0) translate(4 125.5)">
<title>omc_CodegenCpp_lm__1114</title>
<polygon fill="#ffffff" stroke="transparent" points="-4,4 -4,-125.5 910,-125.5 910,4 -4,4"/>
<!-- Node320973 -->
<g id="node1" class="node">
<title>Node320973</title>
<polygon fill="#bfbfbf" stroke="#000000" points="0,-30 0,-49 145,-49 145,-30 0,-30"/>
<text text-anchor="middle" x="72.5" y="-37" font-family="Helvetica,sans-Serif" font-size="10.00" fill="#000000">omc_CodegenCpp_lm__1114</text>
</g>
<!-- Node320974 -->
<g id="node2" class="node">
<title>Node320974</title>
<g id="a_node2"><a xlink:href="../../d0/df9/_codegen_cpp_8c.html#ab08f500d527f49171ed6060e2dd118b3" target="_top" xlink:title="omc_CodegenCpp_fun\l__1115">
<polygon fill="#ffffff" stroke="#000000" points="184,-49.5 184,-79.5 300,-79.5 300,-49.5 184,-49.5"/>
<text text-anchor="start" x="192" y="-67.5" font-family="Helvetica,sans-Serif" font-size="10.00" fill="#000000">omc_CodegenCpp_fun</text>
<text text-anchor="middle" x="242" y="-56.5" font-family="Helvetica,sans-Serif" font-size="10.00" fill="#000000">__1115</text>
</a>
</g>
</g>
<!-- Node320973&#45;&gt;Node320974 -->
<g id="edge1" class="edge">
<title>Node320973&#45;&gt;Node320974</title>
<path fill="none" stroke="#191970" d="M147.2449,-50.5243C159.4708,-52.3276 171.9784,-54.1723 183.7307,-55.9057"/>
<polygon fill="#191970" stroke="#191970" points="147.4679,-47.0194 137.0642,-49.0227 146.4465,-53.9445 147.4679,-47.0194"/>
</g>
<!-- Node320980 -->
<g id="node8" class="node">
<title>Node320980</title>
<g id="a_node8"><a xlink:href="../../d0/df9/_codegen_cpp_8c.html#aee5fde8da03c21e050fedfc31a9d7975" target="_top" xlink:title="boxptr_CodegenCpp_lm\l__1114">
<polygon fill="#ffffff" stroke="#000000" points="181,-.5 181,-30.5 303,-30.5 303,-.5 181,-.5"/>
<text text-anchor="start" x="189" y="-18.5" font-family="Helvetica,sans-Serif" font-size="10.00" fill="#000000">boxptr_CodegenCpp_lm</text>
<text text-anchor="middle" x="242" y="-7.5" font-family="Helvetica,sans-Serif" font-size="10.00" fill="#000000">__1114</text>
</a>
</g>
</g>
<!-- Node320973&#45;&gt;Node320980 -->
<g id="edge7" class="edge">
<title>Node320973&#45;&gt;Node320980</title>
<path fill="none" stroke="#191970" d="M150.1786,-28.5013C160.4483,-27.0471 170.8575,-25.5733 180.7973,-24.1659"/>
<polygon fill="#191970" stroke="#191970" points="149.3885,-25.0781 139.9779,-29.9456 150.3699,-32.009 149.3885,-25.0781"/>
</g>
<!-- Node320975 -->
<g id="node3" class="node">
<title>Node320975</title>
<g id="a_node3"><a xlink:href="../../d0/df9/_codegen_cpp_8c.html#a2b10c8cdcd9afd5270be2521f3f35cc9" target="_top" xlink:title="omc_CodegenCpp_fun\l__1116">
<polygon fill="#ffffff" stroke="#000000" points="343.5,-74.5 343.5,-104.5 459.5,-104.5 459.5,-74.5 343.5,-74.5"/>
<text text-anchor="start" x="351.5" y="-92.5" font-family="Helvetica,sans-Serif" font-size="10.00" fill="#000000">omc_CodegenCpp_fun</text>
<text text-anchor="middle" x="401.5" y="-81.5" font-family="Helvetica,sans-Serif" font-size="10.00" fill="#000000">__1116</text>
</a>
</g>
</g>
<!-- Node320974&#45;&gt;Node320975 -->
<g id="edge2" class="edge">
<title>Node320974&#45;&gt;Node320975</title>
<path fill="none" stroke="#191970" d="M310.0657,-75.1686C321.1094,-76.8996 332.4587,-78.6785 343.2416,-80.3686"/>
<polygon fill="#191970" stroke="#191970" points="310.4557,-71.6871 300.0344,-73.5963 309.3717,-78.6027 310.4557,-71.6871"/>
</g>
<!-- Node320979 -->
<g id="node7" class="node">
<title>Node320979</title>
<g id="a_node7"><a xlink:href="../../d0/df9/_codegen_cpp_8c.html#a256bca4cbc2e23434417e53e2614b222" target="_top" xlink:title="boxptr_CodegenCpp_fun\l__1115">
<polygon fill="#ffffff" stroke="#000000" points="339,-25.5 339,-55.5 464,-55.5 464,-25.5 339,-25.5"/>
<text text-anchor="start" x="347" y="-43.5" font-family="Helvetica,sans-Serif" font-size="10.00" fill="#000000">boxptr_CodegenCpp_fun</text>
<text text-anchor="middle" x="401.5" y="-32.5" font-family="Helvetica,sans-Serif" font-size="10.00" fill="#000000">__1115</text>
</a>
</g>
</g>
<!-- Node320974&#45;&gt;Node320979 -->
<g id="edge6" class="edge">
<title>Node320974&#45;&gt;Node320979</title>
<path fill="none" stroke="#191970" d="M309.9501,-54.2755C319.5698,-52.8281 329.4237,-51.3453 338.9352,-49.9141"/>
<polygon fill="#191970" stroke="#191970" points="309.4022,-50.8185 300.0344,-55.7676 310.4439,-57.7406 309.4022,-50.8185"/>
</g>
<!-- Node320976 -->
<g id="node4" class="node">
<title>Node320976</title>
<g id="a_node4"><a xlink:href="../../d6/d8e/_codegen_cpp_8h.html#aa82face5887af818c30d80fe8f41b3ff" target="_top" xlink:title="omc_CodegenCpp_saveDiscreteVars">
<polygon fill="#ffffff" stroke="#000000" points="500,-102 500,-121 681,-121 681,-102 500,-102"/>
<text text-anchor="middle" x="590.5" y="-109" font-family="Helvetica,sans-Serif" font-size="10.00" fill="#000000">omc_CodegenCpp_saveDiscreteVars</text>
</a>
</g>
</g>
<!-- Node320975&#45;&gt;Node320976 -->
<g id="edge3" class="edge">
<title>Node320975&#45;&gt;Node320976</title>
<path fill="none" stroke="#191970" d="M469.749,-97.4443C482.426,-98.92 495.7876,-100.4753 508.818,-101.992"/>
<polygon fill="#191970" stroke="#191970" points="470.0861,-93.96 459.7484,-96.2802 469.2766,-100.9131 470.0861,-93.96"/>
</g>
<!-- Node320978 -->
<g id="node6" class="node">
<title>Node320978</title>
<g id="a_node6"><a xlink:href="../../d0/df9/_codegen_cpp_8c.html#a9bae4d1bbe9baa562831482ac5e511db" target="_top" xlink:title="boxptr_CodegenCpp_fun\l__1116">
<polygon fill="#ffffff" stroke="#000000" points="528,-52.5 528,-82.5 653,-82.5 653,-52.5 528,-52.5"/>
<text text-anchor="start" x="536" y="-70.5" font-family="Helvetica,sans-Serif" font-size="10.00" fill="#000000">boxptr_CodegenCpp_fun</text>
<text text-anchor="middle" x="590.5" y="-59.5" font-family="Helvetica,sans-Serif" font-size="10.00" fill="#000000">__1116</text>
</a>
</g>
</g>
<!-- Node320975&#45;&gt;Node320978 -->
<g id="edge5" class="edge">
<title>Node320975&#45;&gt;Node320978</title>
<path fill="none" stroke="#191970" d="M469.8003,-81.5497C488.7546,-79.3434 509.2357,-76.9593 527.8498,-74.7926"/>
<polygon fill="#191970" stroke="#191970" points="469.2766,-78.0869 459.7484,-82.7198 470.0861,-85.04 469.2766,-78.0869"/>
</g>
<!-- Node320977 -->
<g id="node5" class="node">
<title>Node320977</title>
<g id="a_node5"><a xlink:href="../../d6/d8e/_codegen_cpp_8h.html#af893b6ca876696dcb376f3f6ed7b6ef6" target="_top" xlink:title="boxptr_CodegenCpp_saveDiscreteVars">
<polygon fill="#ffffff" stroke="#000000" points="717,-102 717,-121 906,-121 906,-102 717,-102"/>
<text text-anchor="middle" x="811.5" y="-109" font-family="Helvetica,sans-Serif" font-size="10.00" fill="#000000">boxptr_CodegenCpp_saveDiscreteVars</text>
</a>
</g>
</g>
<!-- Node320976&#45;&gt;Node320977 -->
<g id="edge4" class="edge">
<title>Node320976&#45;&gt;Node320977</title>
<path fill="none" stroke="#191970" d="M691.0461,-111.5C699.6233,-111.5 708.2811,-111.5 716.8106,-111.5"/>
<polygon fill="#191970" stroke="#191970" points="691.0269,-108.0001 681.0268,-111.5 691.0268,-115.0001 691.0269,-108.0001"/>
</g>
</g>
</svg>
