<?xml version="1.0" encoding="UTF-8" standalone="no"?>
<!DOCTYPE svg PUBLIC "-//W3C//DTD SVG 1.1//EN"
 "http://www.w3.org/Graphics/SVG/1.1/DTD/svg11.dtd">
<!-- Generated by graphviz version 2.40.1 (20161225.0304)
 -->
<!-- Title: boxptr_CodegenCpp_lm__713 Pages: 1 -->
<svg width="1889pt" height="559pt"
 viewBox="0.00 0.00 1889.00 559.33" xmlns="http://www.w3.org/2000/svg" xmlns:xlink="http://www.w3.org/1999/xlink">
<g id="graph0" class="graph" transform="scale(1 1) rotate(0) translate(4 555.3341)">
<title>boxptr_CodegenCpp_lm__713</title>
<polygon fill="#ffffff" stroke="transparent" points="-4,4 -4,-555.3341 1885,-555.3341 1885,4 -4,4"/>
<!-- Node138566 -->
<g id="node1" class="node">
<title>Node138566</title>
<polygon fill="#bfbfbf" stroke="#000000" points="0,-434.8341 0,-453.8341 148,-453.8341 148,-434.8341 0,-434.8341"/>
<text text-anchor="middle" x="74" y="-441.8341" font-family="Helvetica,sans-Serif" font-size="10.00" fill="#000000">boxptr_CodegenCpp_lm__713</text>
</g>
<!-- Node138567 -->
<g id="node2" class="node">
<title>Node138567</title>
<g id="a_node2"><a xlink:href="../../d0/df9/_codegen_cpp_8c.html#a4bfbc247f15e489452f0ac5ab24fc505" target="_top" xlink:title="omc_CodegenCpp_lm__713">
<polygon fill="#ffffff" stroke="#000000" points="184,-434.8341 184,-453.8341 324,-453.8341 324,-434.8341 184,-434.8341"/>
<text text-anchor="middle" x="254" y="-441.8341" font-family="Helvetica,sans-Serif" font-size="10.00" fill="#000000">omc_CodegenCpp_lm__713</text>
</a>
</g>
</g>
<!-- Node138566&#45;&gt;Node138567 -->
<g id="edge1" class="edge">
<title>Node138566&#45;&gt;Node138567</title>
<path fill="none" stroke="#191970" d="M148.2521,-444.3341C156.6516,-444.3341 165.24,-444.3341 173.7123,-444.3341"/>
<polygon fill="#191970" stroke="#191970" points="173.9685,-447.8342 183.9684,-444.3341 173.9684,-440.8342 173.9685,-447.8342"/>
</g>
<!-- Node138568 -->
<g id="node3" class="node">
<title>Node138568</title>
<g id="a_node3"><a xlink:href="../../d7/d52/_tpl_8c.html#a1038a57834f028b49f38adc4d5fcd049" target="_top" xlink:title="omc_Tpl_writeTok">
<polygon fill="#ffffff" stroke="#000000" points="1635,-396.8341 1635,-415.8341 1732,-415.8341 1732,-396.8341 1635,-396.8341"/>
<text text-anchor="middle" x="1683.5" y="-403.8341" font-family="Helvetica,sans-Serif" font-size="10.00" fill="#000000">omc_Tpl_writeTok</text>
</a>
</g>
</g>
<!-- Node138567&#45;&gt;Node138568 -->
<g id="edge2" class="edge">
<title>Node138567&#45;&gt;Node138568</title>
<path fill="none" stroke="#191970" d="M273.8242,-454.0183C329.629,-480.3573 493.379,-551.3341 637.5,-551.3341 637.5,-551.3341 637.5,-551.3341 1337.5,-551.3341 1470.2146,-551.3341 1610.8671,-459.4691 1662.7395,-421.9808"/>
<polygon fill="#191970" stroke="#191970" points="1665.1079,-424.5842 1671.1019,-415.8479 1660.9681,-418.9395 1665.1079,-424.5842"/>
</g>
<!-- Node138569 -->
<g id="node4" class="node">
<title>Node138569</title>
<g id="a_node4"><a xlink:href="../../de/d91/_codegen_util_8c.html#a1f1383df613db73164b297470f762459" target="_top" xlink:title="omc_CodegenUtil_underscorePath">
<polygon fill="#ffffff" stroke="#000000" points="360,-453.8341 360,-472.8341 528,-472.8341 528,-453.8341 360,-453.8341"/>
<text text-anchor="middle" x="444" y="-460.8341" font-family="Helvetica,sans-Serif" font-size="10.00" fill="#000000">omc_CodegenUtil_underscorePath</text>
</a>
</g>
</g>
<!-- Node138567&#45;&gt;Node138569 -->
<g id="edge3" class="edge">
<title>Node138567&#45;&gt;Node138569</title>
<path fill="none" stroke="#191970" d="M324.2092,-451.355C332.5669,-452.1908 341.1999,-453.0541 349.8239,-453.9165"/>
<polygon fill="#191970" stroke="#191970" points="349.6278,-457.4142 359.9265,-454.9267 350.3244,-450.449 349.6278,-457.4142"/>
</g>
<!-- Node138574 -->
<g id="node9" class="node">
<title>Node138574</title>
<g id="a_node9"><a xlink:href="../../df/da2/_codegen_cpp_common_8c.html#a57b75a0e73aab69b82dee78fedb8de65" target="_top" xlink:title="omc_CodegenCppCommon_cref">
<polygon fill="#ffffff" stroke="#000000" points="364.5,-415.8341 364.5,-434.8341 523.5,-434.8341 523.5,-415.8341 364.5,-415.8341"/>
<text text-anchor="middle" x="444" y="-422.8341" font-family="Helvetica,sans-Serif" font-size="10.00" fill="#000000">omc_CodegenCppCommon_cref</text>
</a>
</g>
</g>
<!-- Node138567&#45;&gt;Node138574 -->
<g id="edge9" class="edge">
<title>Node138567&#45;&gt;Node138574</title>
<path fill="none" stroke="#191970" d="M324.2092,-437.3132C334.0403,-436.33 344.2522,-435.3088 354.3823,-434.2958"/>
<polygon fill="#191970" stroke="#191970" points="354.8658,-437.765 364.4679,-433.2873 354.1693,-430.7998 354.8658,-437.765"/>
</g>
<!-- Node138588 -->
<g id="node23" class="node">
<title>Node138588</title>
<g id="a_node23"><a xlink:href="../../d7/d52/_tpl_8c.html#ae3c38d796bafc525ba51ed985d39c720" target="_top" xlink:title="omc_Tpl_nextIter">
<polygon fill="#ffffff" stroke="#000000" points="1464.5,-140.8341 1464.5,-159.8341 1556.5,-159.8341 1556.5,-140.8341 1464.5,-140.8341"/>
<text text-anchor="middle" x="1510.5" y="-147.8341" font-family="Helvetica,sans-Serif" font-size="10.00" fill="#000000">omc_Tpl_nextIter</text>
</a>
</g>
</g>
<!-- Node138567&#45;&gt;Node138588 -->
<g id="edge44" class="edge">
<title>Node138567&#45;&gt;Node138588</title>
<path fill="none" stroke="#191970" d="M260.923,-434.5206C300.3468,-379.6508 503.3805,-110.4222 747,-29.3341 1023.6316,62.742 1380.5789,-88.5891 1482.3201,-136.5219"/>
<polygon fill="#191970" stroke="#191970" points="1480.8247,-139.6864 1491.3581,-140.8262 1483.8346,-133.3665 1480.8247,-139.6864"/>
</g>
<!-- Node138569&#45;&gt;Node138568 -->
<g id="edge8" class="edge">
<title>Node138569&#45;&gt;Node138568</title>
<path fill="none" stroke="#191970" d="M528.0694,-463.3341C603.6679,-463.3341 717.76,-463.3341 817,-463.3341 817,-463.3341 817,-463.3341 1337.5,-463.3341 1447.0075,-463.3341 1573.4487,-435.1926 1638.962,-418.4566"/>
<polygon fill="#191970" stroke="#191970" points="1640.137,-421.768 1648.9414,-415.8746 1638.3835,-414.9911 1640.137,-421.768"/>
</g>
<!-- Node138570 -->
<g id="node5" class="node">
<title>Node138570</title>
<g id="a_node5"><a xlink:href="../../de/d91/_codegen_util_8c.html#a4a3591cd347973b3220fe437765dab23" target="_top" xlink:title="omc_CodegenUtil_replaceDot\lAndUnderscore">
<polygon fill="#ffffff" stroke="#000000" points="564,-492.3341 564,-522.3341 711,-522.3341 711,-492.3341 564,-492.3341"/>
<text text-anchor="start" x="572" y="-510.3341" font-family="Helvetica,sans-Serif" font-size="10.00" fill="#000000">omc_CodegenUtil_replaceDot</text>
<text text-anchor="middle" x="637.5" y="-499.3341" font-family="Helvetica,sans-Serif" font-size="10.00" fill="#000000">AndUnderscore</text>
</a>
</g>
</g>
<!-- Node138569&#45;&gt;Node138570 -->
<g id="edge4" class="edge">
<title>Node138569&#45;&gt;Node138570</title>
<path fill="none" stroke="#191970" d="M485.9866,-472.8814C507.967,-477.8795 535.5702,-484.1562 561.174,-489.9783"/>
<polygon fill="#191970" stroke="#191970" points="560.7195,-493.4642 571.2466,-492.2687 562.2716,-486.6384 560.7195,-493.4642"/>
</g>
<!-- Node138571 -->
<g id="node6" class="node">
<title>Node138571</title>
<g id="a_node6"><a xlink:href="../../d1/d95/_system_8c.html#a058b959f3f74b2d76bb6b21a01cdddb1" target="_top" xlink:title="omc_System_stringReplace">
<polygon fill="#ffffff" stroke="#000000" points="747,-497.8341 747,-516.8341 887,-516.8341 887,-497.8341 747,-497.8341"/>
<text text-anchor="middle" x="817" y="-504.8341" font-family="Helvetica,sans-Serif" font-size="10.00" fill="#000000">omc_System_stringReplace</text>
</a>
</g>
</g>
<!-- Node138570&#45;&gt;Node138571 -->
<g id="edge5" class="edge">
<title>Node138570&#45;&gt;Node138571</title>
<path fill="none" stroke="#191970" d="M711.0274,-507.3341C719.425,-507.3341 728.0185,-507.3341 736.5007,-507.3341"/>
<polygon fill="#191970" stroke="#191970" points="736.7711,-510.8342 746.7711,-507.3341 736.7711,-503.8342 736.7711,-510.8342"/>
</g>
<!-- Node138572 -->
<g id="node7" class="node">
<title>Node138572</title>
<g id="a_node7"><a xlink:href="../../d8/d28/_compiler_2boot_2build_2system_8h.html#abd9e4634afacfdd5c965aee4d8662e35" target="_top" xlink:title="System_stringReplace">
<polygon fill="#ffffff" stroke="#000000" points="933.5,-497.8341 933.5,-516.8341 1049.5,-516.8341 1049.5,-497.8341 933.5,-497.8341"/>
<text text-anchor="middle" x="991.5" y="-504.8341" font-family="Helvetica,sans-Serif" font-size="10.00" fill="#000000">System_stringReplace</text>
</a>
</g>
</g>
<!-- Node138571&#45;&gt;Node138572 -->
<g id="edge6" class="edge">
<title>Node138571&#45;&gt;Node138572</title>
<path fill="none" stroke="#191970" d="M887.2215,-507.3341C899.0878,-507.3341 911.3912,-507.3341 923.2073,-507.3341"/>
<polygon fill="#191970" stroke="#191970" points="923.4424,-510.8342 933.4423,-507.3341 923.4423,-503.8342 923.4424,-510.8342"/>
</g>
<!-- Node138573 -->
<g id="node8" class="node">
<title>Node138573</title>
<g id="a_node8"><a xlink:href="../../d0/dfd/printimpl_8c.html#a0ba59718edccbb5a0e203e2c9600a69c" target="_top" xlink:title="_replace">
<polygon fill="#ffffff" stroke="#000000" points="1138,-497.8341 1138,-516.8341 1191,-516.8341 1191,-497.8341 1138,-497.8341"/>
<text text-anchor="middle" x="1164.5" y="-504.8341" font-family="Helvetica,sans-Serif" font-size="10.00" fill="#000000">_replace</text>
</a>
</g>
</g>
<!-- Node138572&#45;&gt;Node138573 -->
<g id="edge7" class="edge">
<title>Node138572&#45;&gt;Node138573</title>
<path fill="none" stroke="#191970" d="M1049.5878,-507.3341C1075.3488,-507.3341 1104.8921,-507.3341 1127.572,-507.3341"/>
<polygon fill="#191970" stroke="#191970" points="1127.7888,-510.8342 1137.7888,-507.3341 1127.7887,-503.8342 1127.7888,-510.8342"/>
</g>
<!-- Node138574&#45;&gt;Node138568 -->
<g id="edge10" class="edge">
<title>Node138574&#45;&gt;Node138568</title>
<path fill="none" stroke="#191970" d="M523.6743,-425.3341C599.1953,-425.3341 715.8173,-425.3341 817,-425.3341 817,-425.3341 817,-425.3341 1337.5,-425.3341 1438.4976,-425.3341 1555.8293,-417.163 1624.6368,-411.5378"/>
<polygon fill="#191970" stroke="#191970" points="1625.1639,-415.0062 1634.8411,-410.6931 1624.5864,-408.0301 1625.1639,-415.0062"/>
</g>
<!-- Node138575 -->
<g id="node10" class="node">
<title>Node138575</title>
<g id="a_node10"><a xlink:href="../../df/da2/_codegen_cpp_common_8c.html#a8e300448429575b7e97d2efc9c2398c0" target="_top" xlink:title="omc_CodegenCppCommon\l_crefToCStr">
<polygon fill="#ffffff" stroke="#000000" points="569,-175.3341 569,-205.3341 706,-205.3341 706,-175.3341 569,-175.3341"/>
<text text-anchor="start" x="577" y="-193.3341" font-family="Helvetica,sans-Serif" font-size="10.00" fill="#000000">omc_CodegenCppCommon</text>
<text text-anchor="middle" x="637.5" y="-182.3341" font-family="Helvetica,sans-Serif" font-size="10.00" fill="#000000">_crefToCStr</text>
</a>
</g>
</g>
<!-- Node138574&#45;&gt;Node138575 -->
<g id="edge11" class="edge">
<title>Node138574&#45;&gt;Node138575</title>
<path fill="none" stroke="#191970" d="M451.8251,-415.8307C480.089,-381.5051 577.4017,-263.3216 618.714,-213.1492"/>
<polygon fill="#191970" stroke="#191970" points="621.4167,-215.373 625.0713,-205.4284 616.0128,-210.9234 621.4167,-215.373"/>
</g>
<!-- Node138575&#45;&gt;Node138568 -->
<g id="edge35" class="edge">
<title>Node138575&#45;&gt;Node138568</title>
<path fill="none" stroke="#191970" d="M651.7437,-205.4652C696.7906,-251.5952 842.0404,-387.3341 991.5,-387.3341 991.5,-387.3341 991.5,-387.3341 1337.5,-387.3341 1438.4976,-387.3341 1555.8293,-395.5052 1624.6368,-401.1304"/>
<polygon fill="#191970" stroke="#191970" points="1624.5864,-404.6381 1634.8411,-401.9751 1625.1639,-397.6619 1624.5864,-404.6381"/>
</g>
<!-- Node138576 -->
<g id="node11" class="node">
<title>Node138576</title>
<g id="a_node11"><a xlink:href="../../d3/db3/_flags_8c.html#a34e6591659b1578969141a635ff24042" target="_top" xlink:title="omc_Flags_isSet">
<polygon fill="#ffffff" stroke="#000000" points="771,-202.8341 771,-221.8341 863,-221.8341 863,-202.8341 771,-202.8341"/>
<text text-anchor="middle" x="817" y="-209.8341" font-family="Helvetica,sans-Serif" font-size="10.00" fill="#000000">omc_Flags_isSet</text>
</a>
</g>
</g>
<!-- Node138575&#45;&gt;Node138576 -->
<g id="edge12" class="edge">
<title>Node138575&#45;&gt;Node138576</title>
<path fill="none" stroke="#191970" d="M706.1296,-198.7455C724.2484,-200.9662 743.5847,-203.3361 760.9514,-205.4646"/>
<polygon fill="#191970" stroke="#191970" points="760.5735,-208.9444 770.925,-206.687 761.4251,-201.9964 760.5735,-208.9444"/>
</g>
<!-- Node138579 -->
<g id="node14" class="node">
<title>Node138579</title>
<g id="a_node14"><a xlink:href="../../df/da2/_codegen_cpp_common_8c.html#a47d192320ab9898e0f2e95ce42710b87" target="_top" xlink:title="omc_CodegenCppCommon\l_fun__85">
<polygon fill="#ffffff" stroke="#000000" points="748.5,-241.3341 748.5,-271.3341 885.5,-271.3341 885.5,-241.3341 748.5,-241.3341"/>
<text text-anchor="start" x="756.5" y="-259.3341" font-family="Helvetica,sans-Serif" font-size="10.00" fill="#000000">omc_CodegenCppCommon</text>
<text text-anchor="middle" x="817" y="-248.3341" font-family="Helvetica,sans-Serif" font-size="10.00" fill="#000000">_fun__85</text>
</a>
</g>
</g>
<!-- Node138575&#45;&gt;Node138579 -->
<g id="edge15" class="edge">
<title>Node138575&#45;&gt;Node138579</title>
<path fill="none" stroke="#191970" d="M677.2355,-205.3784C697.9955,-213.1963 723.8371,-222.862 747,-231.3341 752.8059,-233.4577 758.8902,-235.6619 764.9454,-237.8423"/>
<polygon fill="#191970" stroke="#191970" points="763.7979,-241.149 774.3924,-241.234 766.1633,-234.5608 763.7979,-241.149"/>
</g>
<!-- Node138585 -->
<g id="node20" class="node">
<title>Node138585</title>
<g id="a_node20"><a xlink:href="../../d7/d52/_tpl_8c.html#ada57037d1430be632aea182a946c3245" target="_top" xlink:title="omc_Tpl_writeStr">
<polygon fill="#ffffff" stroke="#000000" points="1788,-137.8341 1788,-156.8341 1881,-156.8341 1881,-137.8341 1788,-137.8341"/>
<text text-anchor="middle" x="1834.5" y="-144.8341" font-family="Helvetica,sans-Serif" font-size="10.00" fill="#000000">omc_Tpl_writeStr</text>
</a>
</g>
</g>
<!-- Node138575&#45;&gt;Node138585 -->
<g id="edge34" class="edge">
<title>Node138575&#45;&gt;Node138585</title>
<path fill="none" stroke="#191970" d="M654.605,-175.0571C674.9862,-157.87 710.8457,-130.7386 747,-118.3341 821.2222,-92.8683 844.6582,-108.8062 923,-104.3341 1214.0817,-87.7176 1288.9215,-75.0236 1579,-104.3341 1648.438,-111.3503 1727.5594,-125.657 1779.1197,-135.8397"/>
<polygon fill="#191970" stroke="#191970" points="1778.5622,-139.2974 1789.0532,-137.8179 1779.9294,-132.4322 1778.5622,-139.2974"/>
</g>
<!-- Node138591 -->
<g id="node26" class="node">
<title>Node138591</title>
<g id="a_node26"><a xlink:href="../../d7/d52/_tpl_8c.html#a7e5a397e973cf3de37af50d58cbb789f" target="_top" xlink:title="omc_Tpl_writeText">
<polygon fill="#ffffff" stroke="#000000" points="767,-38.8341 767,-57.8341 867,-57.8341 867,-38.8341 767,-38.8341"/>
<text text-anchor="middle" x="817" y="-45.8341" font-family="Helvetica,sans-Serif" font-size="10.00" fill="#000000">omc_Tpl_writeText</text>
</a>
</g>
</g>
<!-- Node138575&#45;&gt;Node138591 -->
<g id="edge36" class="edge">
<title>Node138575&#45;&gt;Node138591</title>
<path fill="none" stroke="#191970" d="M647.8087,-175.047C665.3626,-150.1219 703.4195,-100.6704 747,-72.3341 753.5886,-68.0501 761.0254,-64.4431 768.5288,-61.4342"/>
<polygon fill="#191970" stroke="#191970" points="769.8391,-64.6814 778.0098,-57.9367 767.4165,-58.114 769.8391,-64.6814"/>
</g>
<!-- Node138592 -->
<g id="node27" class="node">
<title>Node138592</title>
<g id="a_node27"><a xlink:href="../../df/da2/_codegen_cpp_common_8c.html#a6eb83bc845be4e3c0cbadeb6cb9d4754" target="_top" xlink:title="omc_CodegenCppCommon\l_fun__86">
<polygon fill="#ffffff" stroke="#000000" points="748.5,-153.3341 748.5,-183.3341 885.5,-183.3341 885.5,-153.3341 748.5,-153.3341"/>
<text text-anchor="start" x="756.5" y="-171.3341" font-family="Helvetica,sans-Serif" font-size="10.00" fill="#000000">omc_CodegenCppCommon</text>
<text text-anchor="middle" x="817" y="-160.3341" font-family="Helvetica,sans-Serif" font-size="10.00" fill="#000000">_fun__86</text>
</a>
</g>
</g>
<!-- Node138575&#45;&gt;Node138592 -->
<g id="edge37" class="edge">
<title>Node138575&#45;&gt;Node138592</title>
<path fill="none" stroke="#191970" d="M706.1296,-181.9226C716.6299,-180.6357 727.5391,-179.2986 738.2369,-177.9875"/>
<polygon fill="#191970" stroke="#191970" points="738.9085,-181.4314 748.4085,-176.7408 738.0569,-174.4834 738.9085,-181.4314"/>
</g>
<!-- Node138577 -->
<g id="node12" class="node">
<title>Node138577</title>
<g id="a_node12"><a xlink:href="../../d3/db3/_flags_8c.html#a760d66f53b65ac257876ca0f6308f09f" target="_top" xlink:title="omc_Flags_loadFlags">
<polygon fill="#ffffff" stroke="#000000" points="935.5,-202.8341 935.5,-221.8341 1047.5,-221.8341 1047.5,-202.8341 935.5,-202.8341"/>
<text text-anchor="middle" x="991.5" y="-209.8341" font-family="Helvetica,sans-Serif" font-size="10.00" fill="#000000">omc_Flags_loadFlags</text>
</a>
</g>
</g>
<!-- Node138576&#45;&gt;Node138577 -->
<g id="edge13" class="edge">
<title>Node138576&#45;&gt;Node138577</title>
<path fill="none" stroke="#191970" d="M863.3047,-212.3341C882.2211,-212.3341 904.4584,-212.3341 925.0535,-212.3341"/>
<polygon fill="#191970" stroke="#191970" points="925.3276,-215.8342 935.3275,-212.3341 925.3275,-208.8342 925.3276,-215.8342"/>
</g>
<!-- Node138578 -->
<g id="node13" class="node">
<title>Node138578</title>
<g id="a_node13"><a xlink:href="../../da/d72/_compiler_2boot_2build_2list_8c.html#a3ec1ee3a5ff53be9af368e290be09182" target="_top" xlink:title="omc_List_fold">
<polygon fill="#ffffff" stroke="#000000" points="1126,-202.8341 1126,-221.8341 1203,-221.8341 1203,-202.8341 1126,-202.8341"/>
<text text-anchor="middle" x="1164.5" y="-209.8341" font-family="Helvetica,sans-Serif" font-size="10.00" fill="#000000">omc_List_fold</text>
</a>
</g>
</g>
<!-- Node138577&#45;&gt;Node138578 -->
<g id="edge14" class="edge">
<title>Node138577&#45;&gt;Node138578</title>
<path fill="none" stroke="#191970" d="M1047.6681,-212.3341C1069.6281,-212.3341 1094.5744,-212.3341 1115.7606,-212.3341"/>
<polygon fill="#191970" stroke="#191970" points="1115.8294,-215.8342 1125.8294,-212.3341 1115.8294,-208.8342 1115.8294,-215.8342"/>
</g>
<!-- Node138580 -->
<g id="node15" class="node">
<title>Node138580</title>
<g id="a_node15"><a xlink:href="../../df/da2/_codegen_cpp_common_8c.html#a3adf051f8d1ea480a9623f5101c09677" target="_top" xlink:title="omc_CodegenCppCommon\l_subscriptsToCStr">
<polygon fill="#ffffff" stroke="#000000" points="923,-241.3341 923,-271.3341 1060,-271.3341 1060,-241.3341 923,-241.3341"/>
<text text-anchor="start" x="931" y="-259.3341" font-family="Helvetica,sans-Serif" font-size="10.00" fill="#000000">omc_CodegenCppCommon</text>
<text text-anchor="middle" x="991.5" y="-248.3341" font-family="Helvetica,sans-Serif" font-size="10.00" fill="#000000">_subscriptsToCStr</text>
</a>
</g>
</g>
<!-- Node138579&#45;&gt;Node138580 -->
<g id="edge16" class="edge">
<title>Node138579&#45;&gt;Node138580</title>
<path fill="none" stroke="#191970" d="M885.7165,-256.3341C894.5864,-256.3341 903.7241,-256.3341 912.7397,-256.3341"/>
<polygon fill="#191970" stroke="#191970" points="912.8461,-259.8342 922.8461,-256.3341 912.846,-252.8342 912.8461,-259.8342"/>
</g>
<!-- Node138581 -->
<g id="node16" class="node">
<title>Node138581</title>
<g id="a_node16"><a xlink:href="../../df/da2/_codegen_cpp_common_8c.html#a6d25301ad054a2567ece9822ff214d46" target="_top" xlink:title="omc_CodegenCppCommon\l_fun__41">
<polygon fill="#ffffff" stroke="#000000" points="1096,-241.3341 1096,-271.3341 1233,-271.3341 1233,-241.3341 1096,-241.3341"/>
<text text-anchor="start" x="1104" y="-259.3341" font-family="Helvetica,sans-Serif" font-size="10.00" fill="#000000">omc_CodegenCppCommon</text>
<text text-anchor="middle" x="1164.5" y="-248.3341" font-family="Helvetica,sans-Serif" font-size="10.00" fill="#000000">_fun__41</text>
</a>
</g>
</g>
<!-- Node138580&#45;&gt;Node138581 -->
<g id="edge17" class="edge">
<title>Node138580&#45;&gt;Node138581</title>
<path fill="none" stroke="#191970" d="M1060.3713,-256.3341C1068.678,-256.3341 1077.2111,-256.3341 1085.6466,-256.3341"/>
<polygon fill="#191970" stroke="#191970" points="1085.8657,-259.8342 1095.8657,-256.3341 1085.8657,-252.8342 1085.8657,-259.8342"/>
</g>
<!-- Node138581&#45;&gt;Node138568 -->
<g id="edge18" class="edge">
<title>Node138581&#45;&gt;Node138568</title>
<path fill="none" stroke="#191970" d="M1180.4011,-271.3727C1199.7159,-288.684 1234.0688,-316.5036 1269,-330.3341 1398.3287,-381.5398 1443.3122,-342.7273 1579,-373.3341 1602.3389,-378.5986 1627.9646,-386.6539 1647.9987,-393.488"/>
<polygon fill="#191970" stroke="#191970" points="1647.0414,-396.8604 1657.6362,-396.8278 1649.3336,-390.2463 1647.0414,-396.8604"/>
</g>
<!-- Node138582 -->
<g id="node17" class="node">
<title>Node138582</title>
<g id="a_node17"><a xlink:href="../../d7/d52/_tpl_8c.html#a79ae8e0232bfdb080d90e9f7890dc199" target="_top" xlink:title="omc_Tpl_pushIter">
<polygon fill="#ffffff" stroke="#000000" points="1290,-202.8341 1290,-221.8341 1385,-221.8341 1385,-202.8341 1290,-202.8341"/>
<text text-anchor="middle" x="1337.5" y="-209.8341" font-family="Helvetica,sans-Serif" font-size="10.00" fill="#000000">omc_Tpl_pushIter</text>
</a>
</g>
</g>
<!-- Node138581&#45;&gt;Node138582 -->
<g id="edge19" class="edge">
<title>Node138581&#45;&gt;Node138582</title>
<path fill="none" stroke="#191970" d="M1223.5529,-241.3148C1245.3398,-235.7736 1269.7184,-229.5733 1290.3179,-224.3341"/>
<polygon fill="#191970" stroke="#191970" points="1291.2702,-227.7035 1300.0989,-221.8465 1289.5447,-220.9194 1291.2702,-227.7035"/>
</g>
<!-- Node138583 -->
<g id="node18" class="node">
<title>Node138583</title>
<g id="a_node18"><a xlink:href="../../df/da2/_codegen_cpp_common_8c.html#a3cdec712b90369aceea0b9e9f4d0548e" target="_top" xlink:title="omc_CodegenCppCommon\l_lm__39">
<polygon fill="#ffffff" stroke="#000000" points="1269,-290.3341 1269,-320.3341 1406,-320.3341 1406,-290.3341 1269,-290.3341"/>
<text text-anchor="start" x="1277" y="-308.3341" font-family="Helvetica,sans-Serif" font-size="10.00" fill="#000000">omc_CodegenCppCommon</text>
<text text-anchor="middle" x="1337.5" y="-297.3341" font-family="Helvetica,sans-Serif" font-size="10.00" fill="#000000">_lm__39</text>
</a>
</g>
</g>
<!-- Node138581&#45;&gt;Node138583 -->
<g id="edge20" class="edge">
<title>Node138581&#45;&gt;Node138583</title>
<path fill="none" stroke="#191970" d="M1217.8173,-271.4355C1235.7425,-276.5126 1255.9084,-282.2243 1274.5057,-287.4918"/>
<polygon fill="#191970" stroke="#191970" points="1273.7834,-290.9248 1284.3587,-290.2825 1275.691,-284.1897 1273.7834,-290.9248"/>
</g>
<!-- Node138589 -->
<g id="node24" class="node">
<title>Node138589</title>
<g id="a_node24"><a xlink:href="../../d7/d52/_tpl_8c.html#abda700a6d3553ffecd4d194dea81a179" target="_top" xlink:title="omc_Tpl_popIter">
<polygon fill="#ffffff" stroke="#000000" points="1293,-164.8341 1293,-183.8341 1382,-183.8341 1382,-164.8341 1293,-164.8341"/>
<text text-anchor="middle" x="1337.5" y="-171.8341" font-family="Helvetica,sans-Serif" font-size="10.00" fill="#000000">omc_Tpl_popIter</text>
</a>
</g>
</g>
<!-- Node138581&#45;&gt;Node138589 -->
<g id="edge30" class="edge">
<title>Node138581&#45;&gt;Node138589</title>
<path fill="none" stroke="#191970" d="M1214.4696,-241.2122C1220.935,-238.3694 1227.2862,-235.0872 1233,-231.3341 1252.4448,-218.5616 1249.0638,-205.325 1269,-193.3341 1273.4468,-190.6595 1278.2807,-188.3509 1283.2547,-186.3603"/>
<polygon fill="#191970" stroke="#191970" points="1284.6839,-189.5666 1292.9276,-182.9115 1282.3329,-182.9732 1284.6839,-189.5666"/>
</g>
<!-- Node138590 -->
<g id="node25" class="node">
<title>Node138590</title>
<g id="a_node25"><a xlink:href="../../df/da2/_codegen_cpp_common_8c.html#a6a6d0d0da3b64f58f8bbef7eda497b4f" target="_top" xlink:title="omc_CodegenCppCommon\l_lm__40">
<polygon fill="#ffffff" stroke="#000000" points="1269,-241.3341 1269,-271.3341 1406,-271.3341 1406,-241.3341 1269,-241.3341"/>
<text text-anchor="start" x="1277" y="-259.3341" font-family="Helvetica,sans-Serif" font-size="10.00" fill="#000000">omc_CodegenCppCommon</text>
<text text-anchor="middle" x="1337.5" y="-248.3341" font-family="Helvetica,sans-Serif" font-size="10.00" fill="#000000">_lm__40</text>
</a>
</g>
</g>
<!-- Node138581&#45;&gt;Node138590 -->
<g id="edge31" class="edge">
<title>Node138581&#45;&gt;Node138590</title>
<path fill="none" stroke="#191970" d="M1233.3713,-256.3341C1241.678,-256.3341 1250.2111,-256.3341 1258.6466,-256.3341"/>
<polygon fill="#191970" stroke="#191970" points="1258.8657,-259.8342 1268.8657,-256.3341 1258.8657,-252.8342 1258.8657,-259.8342"/>
</g>
<!-- Node138584 -->
<g id="node19" class="node">
<title>Node138584</title>
<g id="a_node19"><a xlink:href="../../df/da2/_codegen_cpp_common_8c.html#a685e5f70584520279f3c8a07e4de9c3d" target="_top" xlink:title="omc_CodegenCppCommon\l_subscriptToCStr">
<polygon fill="#ffffff" stroke="#000000" points="1442,-220.3341 1442,-250.3341 1579,-250.3341 1579,-220.3341 1442,-220.3341"/>
<text text-anchor="start" x="1450" y="-238.3341" font-family="Helvetica,sans-Serif" font-size="10.00" fill="#000000">omc_CodegenCppCommon</text>
<text text-anchor="middle" x="1510.5" y="-227.3341" font-family="Helvetica,sans-Serif" font-size="10.00" fill="#000000">_subscriptToCStr</text>
</a>
</g>
</g>
<!-- Node138583&#45;&gt;Node138584 -->
<g id="edge21" class="edge">
<title>Node138583&#45;&gt;Node138584</title>
<path fill="none" stroke="#191970" d="M1382.2707,-290.2107C1390.2149,-287.3674 1398.3809,-284.3405 1406,-281.3341 1426.8214,-273.1182 1449.6067,-263.2001 1468.5721,-254.6801"/>
<polygon fill="#191970" stroke="#191970" points="1470.1584,-257.8041 1477.8297,-250.4965 1467.2756,-251.4253 1470.1584,-257.8041"/>
</g>
<!-- Node138583&#45;&gt;Node138588 -->
<g id="edge29" class="edge">
<title>Node138583&#45;&gt;Node138588</title>
<path fill="none" stroke="#191970" d="M1393.0468,-290.1626C1397.6982,-287.6483 1402.1035,-284.7267 1406,-281.3341 1432.3844,-258.361 1420.5746,-238.9901 1442,-211.3341 1455.5331,-193.8655 1474.5217,-177.4116 1489.0751,-166.005"/>
<polygon fill="#191970" stroke="#191970" points="1491.2382,-168.7569 1497.0566,-159.9027 1486.9866,-163.196 1491.2382,-168.7569"/>
</g>
<!-- Node138584&#45;&gt;Node138568 -->
<g id="edge24" class="edge">
<title>Node138584&#45;&gt;Node138568</title>
<path fill="none" stroke="#191970" d="M1525.8526,-250.5092C1558.1597,-282.4427 1632.9517,-356.3702 1666.5823,-389.6119"/>
<polygon fill="#191970" stroke="#191970" points="1664.2614,-392.2391 1673.8339,-396.7797 1669.1823,-387.2606 1664.2614,-392.2391"/>
</g>
<!-- Node138584&#45;&gt;Node138585 -->
<g id="edge22" class="edge">
<title>Node138584&#45;&gt;Node138585</title>
<path fill="none" stroke="#191970" d="M1527.9348,-220.1023C1547.5997,-203.9034 1581.2575,-179.0379 1615,-167.3341 1667.9931,-148.953 1732.2641,-145.0644 1777.5238,-145.0981"/>
<polygon fill="#191970" stroke="#191970" points="1777.7147,-148.5995 1787.7399,-145.1724 1777.7657,-141.5997 1777.7147,-148.5995"/>
</g>
<!-- Node138586 -->
<g id="node21" class="node">
<title>Node138586</title>
<g id="a_node21"><a xlink:href="../../d2/d57/build_2include_2omc_2c_2meta_2meta__modelica__builtin_8h.html#a751bf2360cb3df6de97811998890b7ea" target="_top" xlink:title="intString">
<polygon fill="#ffffff" stroke="#000000" points="1808,-203.8341 1808,-222.8341 1861,-222.8341 1861,-203.8341 1808,-203.8341"/>
<text text-anchor="middle" x="1834.5" y="-210.8341" font-family="Helvetica,sans-Serif" font-size="10.00" fill="#000000">intString</text>
</a>
</g>
</g>
<!-- Node138584&#45;&gt;Node138586 -->
<g id="edge23" class="edge">
<title>Node138584&#45;&gt;Node138586</title>
<path fill="none" stroke="#191970" d="M1579.2121,-230.6684C1645.945,-226.1372 1744.7154,-219.4306 1797.71,-215.8322"/>
<polygon fill="#191970" stroke="#191970" points="1798.2458,-219.3039 1807.9857,-215.1344 1797.7716,-212.32 1798.2458,-219.3039"/>
</g>
<!-- Node138587 -->
<g id="node22" class="node">
<title>Node138587</title>
<g id="a_node22"><a xlink:href="../../df/da2/_codegen_cpp_common_8c.html#a49d5712369c4249a559db2fa124934d9" target="_top" xlink:title="omc_CodegenCppCommon\l_fun__43">
<polygon fill="#ffffff" stroke="#000000" points="1615,-176.3341 1615,-206.3341 1752,-206.3341 1752,-176.3341 1615,-176.3341"/>
<text text-anchor="start" x="1623" y="-194.3341" font-family="Helvetica,sans-Serif" font-size="10.00" fill="#000000">omc_CodegenCppCommon</text>
<text text-anchor="middle" x="1683.5" y="-183.3341" font-family="Helvetica,sans-Serif" font-size="10.00" fill="#000000">_fun__43</text>
</a>
</g>
</g>
<!-- Node138584&#45;&gt;Node138587 -->
<g id="edge25" class="edge">
<title>Node138584&#45;&gt;Node138587</title>
<path fill="none" stroke="#191970" d="M1569.5529,-220.3148C1584.0864,-216.6184 1599.7732,-212.6287 1614.7222,-208.8267"/>
<polygon fill="#191970" stroke="#191970" points="1615.591,-212.2172 1624.4197,-206.3603 1613.8655,-205.4332 1615.591,-212.2172"/>
</g>
<!-- Node138587&#45;&gt;Node138575 -->
<g id="edge28" class="edge">
<title>Node138587&#45;&gt;Node138575</title>
<path fill="none" stroke="#191970" d="M1662.6188,-176.2023C1642.2934,-162.2572 1610.0168,-142.1382 1579,-131.3341 1505.5747,-105.7576 1483.5362,-111.128 1406,-105.3341 1259.7201,-94.4033 889.5162,-108.6006 747,-143.3341 721.901,-149.4511 695.2336,-160.7837 674.5,-170.7882"/>
<polygon fill="#191970" stroke="#191970" points="672.8382,-167.7051 665.4182,-175.2678 675.9349,-173.983 672.8382,-167.7051"/>
</g>
<!-- Node138587&#45;&gt;Node138585 -->
<g id="edge26" class="edge">
<title>Node138587&#45;&gt;Node138585</title>
<path fill="none" stroke="#191970" d="M1735.0433,-176.3148C1753.4696,-170.9456 1774.0197,-164.9575 1791.6349,-159.8246"/>
<polygon fill="#191970" stroke="#191970" points="1793.0075,-163.0702 1801.6291,-156.9124 1791.0492,-156.3497 1793.0075,-163.0702"/>
</g>
<!-- Node138587&#45;&gt;Node138586 -->
<g id="edge27" class="edge">
<title>Node138587&#45;&gt;Node138586</title>
<path fill="none" stroke="#191970" d="M1752.3719,-201.3684C1767.9916,-203.6441 1783.9926,-205.9754 1797.6731,-207.9686"/>
<polygon fill="#191970" stroke="#191970" points="1797.2373,-211.4419 1807.6375,-209.4203 1798.2466,-204.5151 1797.2373,-211.4419"/>
</g>
<!-- Node138590&#45;&gt;Node138584 -->
<g id="edge32" class="edge">
<title>Node138590&#45;&gt;Node138584</title>
<path fill="none" stroke="#191970" d="M1406.3713,-247.974C1414.7692,-246.9546 1423.3987,-245.9071 1431.9246,-244.8721"/>
<polygon fill="#191970" stroke="#191970" points="1432.3604,-248.345 1441.8657,-243.6654 1431.5168,-241.396 1432.3604,-248.345"/>
</g>
<!-- Node138590&#45;&gt;Node138588 -->
<g id="edge33" class="edge">
<title>Node138590&#45;&gt;Node138588</title>
<path fill="none" stroke="#191970" d="M1384.783,-241.2687C1392.0561,-238.3311 1399.3511,-235.0067 1406,-231.3341 1439.0526,-213.0767 1472.7762,-184.8375 1492.6608,-166.9832"/>
<polygon fill="#191970" stroke="#191970" points="1495.2602,-169.3497 1500.2932,-160.0266 1490.5448,-164.1762 1495.2602,-169.3497"/>
</g>
<!-- Node138593 -->
<g id="node28" class="node">
<title>Node138593</title>
<g id="a_node28"><a xlink:href="../../df/da2/_codegen_cpp_common_8c.html#a7e0d7d39c3ab26a87c9a8916ff990207" target="_top" xlink:title="omc_CodegenCppCommon\l_subscriptsToCStrForArray">
<polygon fill="#ffffff" stroke="#000000" points="1096,-153.3341 1096,-183.3341 1233,-183.3341 1233,-153.3341 1096,-153.3341"/>
<text text-anchor="start" x="1104" y="-171.3341" font-family="Helvetica,sans-Serif" font-size="10.00" fill="#000000">omc_CodegenCppCommon</text>
<text text-anchor="middle" x="1164.5" y="-160.3341" font-family="Helvetica,sans-Serif" font-size="10.00" fill="#000000">_subscriptsToCStrForArray</text>
</a>
</g>
</g>
<!-- Node138592&#45;&gt;Node138593 -->
<g id="edge38" class="edge">
<title>Node138592&#45;&gt;Node138593</title>
<path fill="none" stroke="#191970" d="M885.6548,-168.3341C943.2447,-168.3341 1025.5087,-168.3341 1085.7609,-168.3341"/>
<polygon fill="#191970" stroke="#191970" points="1085.9878,-171.8342 1095.9878,-168.3341 1085.9878,-164.8342 1085.9878,-171.8342"/>
</g>
<!-- Node138593&#45;&gt;Node138582 -->
<g id="edge39" class="edge">
<title>Node138593&#45;&gt;Node138582</title>
<path fill="none" stroke="#191970" d="M1223.5529,-183.3533C1245.3398,-188.8945 1269.7184,-195.0948 1290.3179,-200.334"/>
<polygon fill="#191970" stroke="#191970" points="1289.5447,-203.7487 1300.0989,-202.8216 1291.2702,-196.9647 1289.5447,-203.7487"/>
</g>
<!-- Node138593&#45;&gt;Node138589 -->
<g id="edge43" class="edge">
<title>Node138593&#45;&gt;Node138589</title>
<path fill="none" stroke="#191970" d="M1233.3713,-170.7227C1249.8352,-171.2937 1267.1889,-171.8955 1282.9078,-172.4407"/>
<polygon fill="#191970" stroke="#191970" points="1282.8601,-175.9411 1292.9754,-172.7899 1283.1028,-168.9453 1282.8601,-175.9411"/>
</g>
<!-- Node138594 -->
<g id="node29" class="node">
<title>Node138594</title>
<g id="a_node29"><a xlink:href="../../df/da2/_codegen_cpp_common_8c.html#a14408e491537d673bbe3a652e9dcaa82" target="_top" xlink:title="omc_CodegenCppCommon\l_lm__48">
<polygon fill="#ffffff" stroke="#000000" points="1269,-115.3341 1269,-145.3341 1406,-145.3341 1406,-115.3341 1269,-115.3341"/>
<text text-anchor="start" x="1277" y="-133.3341" font-family="Helvetica,sans-Serif" font-size="10.00" fill="#000000">omc_CodegenCppCommon</text>
<text text-anchor="middle" x="1337.5" y="-122.3341" font-family="Helvetica,sans-Serif" font-size="10.00" fill="#000000">_lm__48</text>
</a>
</g>
</g>
<!-- Node138593&#45;&gt;Node138594 -->
<g id="edge40" class="edge">
<title>Node138593&#45;&gt;Node138594</title>
<path fill="none" stroke="#191970" d="M1232.8742,-153.3155C1241.5204,-151.4163 1250.4197,-149.4615 1259.205,-147.5318"/>
<polygon fill="#191970" stroke="#191970" points="1260.0397,-150.932 1269.0559,-145.368 1258.5379,-144.095 1260.0397,-150.932"/>
</g>
<!-- Node138594&#45;&gt;Node138584 -->
<g id="edge41" class="edge">
<title>Node138594&#45;&gt;Node138584</title>
<path fill="none" stroke="#191970" d="M1384.7637,-145.4345C1392.0393,-148.3676 1399.3401,-151.6814 1406,-155.3341 1435.7562,-171.6542 1466.1623,-195.9679 1486.4467,-213.5051"/>
<polygon fill="#191970" stroke="#191970" points="1484.4007,-216.3661 1494.2264,-220.3292 1489.0167,-211.1037 1484.4007,-216.3661"/>
</g>
<!-- Node138594&#45;&gt;Node138588 -->
<g id="edge42" class="edge">
<title>Node138594&#45;&gt;Node138588</title>
<path fill="none" stroke="#191970" d="M1406.3713,-138.2961C1422.219,-140.1282 1438.8913,-142.0556 1454.1362,-143.818"/>
<polygon fill="#191970" stroke="#191970" points="1454.0989,-147.3369 1464.4347,-145.0086 1454.9029,-140.3833 1454.0989,-147.3369"/>
</g>
</g>
</svg>
