<?xml version="1.0" encoding="UTF-8" standalone="no"?>
<!DOCTYPE svg PUBLIC "-//W3C//DTD SVG 1.1//EN"
 "http://www.w3.org/Graphics/SVG/1.1/DTD/svg11.dtd">
<!-- Generated by graphviz version 2.40.1 (20161225.0304)
 -->
<!-- Title: boxptr_CodegenCpp_fun__395 Pages: 1 -->
<svg width="479pt" height="256pt"
 viewBox="0.00 0.00 479.00 256.00" xmlns="http://www.w3.org/2000/svg" xmlns:xlink="http://www.w3.org/1999/xlink">
<g id="graph0" class="graph" transform="scale(1 1) rotate(0) translate(4 252)">
<title>boxptr_CodegenCpp_fun__395</title>
<polygon fill="#ffffff" stroke="transparent" points="-4,4 -4,-252 475,-252 475,4 -4,4"/>
<!-- Node53613 -->
<g id="node1" class="node">
<title>Node53613</title>
<polygon fill="#bfbfbf" stroke="#000000" points="0,-114.5 0,-133.5 151,-133.5 151,-114.5 0,-114.5"/>
<text text-anchor="middle" x="75.5" y="-121.5" font-family="Helvetica,sans-Serif" font-size="10.00" fill="#000000">boxptr_CodegenCpp_fun__395</text>
</g>
<!-- Node53614 -->
<g id="node2" class="node">
<title>Node53614</title>
<g id="a_node2"><a xlink:href="../../d0/df9/_codegen_cpp_8c.html#abf4351187f1a97c55fc56c85e79c319c" target="_top" xlink:title="omc_CodegenCpp_fun__395">
<polygon fill="#ffffff" stroke="#000000" points="187,-114.5 187,-133.5 330,-133.5 330,-114.5 187,-114.5"/>
<text text-anchor="middle" x="258.5" y="-121.5" font-family="Helvetica,sans-Serif" font-size="10.00" fill="#000000">omc_CodegenCpp_fun__395</text>
</a>
</g>
</g>
<!-- Node53613&#45;&gt;Node53614 -->
<g id="edge1" class="edge">
<title>Node53613&#45;&gt;Node53614</title>
<path fill="none" stroke="#191970" d="M151.2541,-124C159.6428,-124 168.2135,-124 176.6727,-124"/>
<polygon fill="#191970" stroke="#191970" points="176.9161,-127.5001 186.9161,-124 176.9161,-120.5001 176.9161,-127.5001"/>
</g>
<!-- Node53615 -->
<g id="node3" class="node">
<title>Node53615</title>
<g id="a_node3"><a xlink:href="../../d7/d52/_tpl_8c.html#a1038a57834f028b49f38adc4d5fcd049" target="_top" xlink:title="omc_Tpl_writeTok">
<polygon fill="#ffffff" stroke="#000000" points="370,-228.5 370,-247.5 467,-247.5 467,-228.5 370,-228.5"/>
<text text-anchor="middle" x="418.5" y="-235.5" font-family="Helvetica,sans-Serif" font-size="10.00" fill="#000000">omc_Tpl_writeTok</text>
</a>
</g>
</g>
<!-- Node53614&#45;&gt;Node53615 -->
<g id="edge2" class="edge">
<title>Node53614&#45;&gt;Node53615</title>
<path fill="none" stroke="#191970" d="M267.0498,-133.6791C284.1368,-152.501 324.4451,-194.3446 366,-219 369.4192,-221.0287 373.0904,-222.895 376.8451,-224.5989"/>
<polygon fill="#191970" stroke="#191970" points="375.6763,-227.9032 386.2543,-228.5 378.3572,-221.4369 375.6763,-227.9032"/>
</g>
<!-- Node53616 -->
<g id="node4" class="node">
<title>Node53616</title>
<g id="a_node4"><a xlink:href="../../d7/d52/_tpl_8c.html#a7e5a397e973cf3de37af50d58cbb789f" target="_top" xlink:title="omc_Tpl_writeText">
<polygon fill="#ffffff" stroke="#000000" points="368.5,-190.5 368.5,-209.5 468.5,-209.5 468.5,-190.5 368.5,-190.5"/>
<text text-anchor="middle" x="418.5" y="-197.5" font-family="Helvetica,sans-Serif" font-size="10.00" fill="#000000">omc_Tpl_writeText</text>
</a>
</g>
</g>
<!-- Node53614&#45;&gt;Node53616 -->
<g id="edge3" class="edge">
<title>Node53614&#45;&gt;Node53616</title>
<path fill="none" stroke="#191970" d="M274.8985,-133.6261C295.6756,-145.6034 332.7852,-166.271 366,-181 370.5246,-183.0064 375.333,-184.9684 380.1319,-186.8237"/>
<polygon fill="#191970" stroke="#191970" points="379.2825,-190.2426 389.8751,-190.4626 381.7317,-183.685 379.2825,-190.2426"/>
</g>
<!-- Node53617 -->
<g id="node5" class="node">
<title>Node53617</title>
<g id="a_node5"><a xlink:href="../../d7/d52/_tpl_8c.html#ada57037d1430be632aea182a946c3245" target="_top" xlink:title="omc_Tpl_writeStr">
<polygon fill="#ffffff" stroke="#000000" points="372,-152.5 372,-171.5 465,-171.5 465,-152.5 372,-152.5"/>
<text text-anchor="middle" x="418.5" y="-159.5" font-family="Helvetica,sans-Serif" font-size="10.00" fill="#000000">omc_Tpl_writeStr</text>
</a>
</g>
</g>
<!-- Node53614&#45;&gt;Node53617 -->
<g id="edge4" class="edge">
<title>Node53614&#45;&gt;Node53617</title>
<path fill="none" stroke="#191970" d="M298.8748,-133.589C319.9885,-138.6035 346.0287,-144.7881 368.4169,-150.1053"/>
<polygon fill="#191970" stroke="#191970" points="367.8774,-153.5744 378.4156,-152.4799 369.495,-146.7639 367.8774,-153.5744"/>
</g>
<!-- Node53618 -->
<g id="node6" class="node">
<title>Node53618</title>
<g id="a_node6"><a xlink:href="../../d2/d57/build_2include_2omc_2c_2meta_2meta__modelica__builtin_8h.html#a751bf2360cb3df6de97811998890b7ea" target="_top" xlink:title="intString">
<polygon fill="#ffffff" stroke="#000000" points="392,-114.5 392,-133.5 445,-133.5 445,-114.5 392,-114.5"/>
<text text-anchor="middle" x="418.5" y="-121.5" font-family="Helvetica,sans-Serif" font-size="10.00" fill="#000000">intString</text>
</a>
</g>
</g>
<!-- Node53614&#45;&gt;Node53618 -->
<g id="edge5" class="edge">
<title>Node53614&#45;&gt;Node53618</title>
<path fill="none" stroke="#191970" d="M330.0764,-124C347.9238,-124 366.3367,-124 381.7088,-124"/>
<polygon fill="#191970" stroke="#191970" points="381.821,-127.5001 391.8209,-124 381.8209,-120.5001 381.821,-127.5001"/>
</g>
<!-- Node53619 -->
<g id="node7" class="node">
<title>Node53619</title>
<g id="a_node7"><a xlink:href="../../d2/d57/build_2include_2omc_2c_2meta_2meta__modelica__builtin_8h.html#a6983369f3c3e3e8cc41ac483c9a9baf1" target="_top" xlink:title="listLength">
<polygon fill="#ffffff" stroke="#000000" points="389,-76.5 389,-95.5 448,-95.5 448,-76.5 389,-76.5"/>
<text text-anchor="middle" x="418.5" y="-83.5" font-family="Helvetica,sans-Serif" font-size="10.00" fill="#000000">listLength</text>
</a>
</g>
</g>
<!-- Node53614&#45;&gt;Node53619 -->
<g id="edge6" class="edge">
<title>Node53614&#45;&gt;Node53619</title>
<path fill="none" stroke="#191970" d="M298.8748,-114.411C323.4188,-108.5818 354.6203,-101.1714 379.0032,-95.3805"/>
<polygon fill="#191970" stroke="#191970" points="380.0756,-98.7232 388.9962,-93.0071 378.4581,-91.9127 380.0756,-98.7232"/>
</g>
<!-- Node53620 -->
<g id="node8" class="node">
<title>Node53620</title>
<g id="a_node8"><a xlink:href="../../d7/d52/_tpl_8c.html#a99d6bda0846441f21c5081261888085a" target="_top" xlink:title="omc_Tpl_pushBlock">
<polygon fill="#ffffff" stroke="#000000" points="366,-38.5 366,-57.5 471,-57.5 471,-38.5 366,-38.5"/>
<text text-anchor="middle" x="418.5" y="-45.5" font-family="Helvetica,sans-Serif" font-size="10.00" fill="#000000">omc_Tpl_pushBlock</text>
</a>
</g>
</g>
<!-- Node53614&#45;&gt;Node53620 -->
<g id="edge7" class="edge">
<title>Node53614&#45;&gt;Node53620</title>
<path fill="none" stroke="#191970" d="M274.8985,-114.3739C295.6756,-102.3966 332.7852,-81.729 366,-67 370.5246,-64.9936 375.333,-63.0316 380.1319,-61.1763"/>
<polygon fill="#191970" stroke="#191970" points="381.7317,-64.315 389.8751,-57.5374 379.2825,-57.7574 381.7317,-64.315"/>
</g>
<!-- Node53621 -->
<g id="node9" class="node">
<title>Node53621</title>
<g id="a_node9"><a xlink:href="../../d7/d52/_tpl_8c.html#a6cf6c8514535aa47abb9ff6badd4f6a5" target="_top" xlink:title="omc_Tpl_popBlock">
<polygon fill="#ffffff" stroke="#000000" points="368.5,-.5 368.5,-19.5 468.5,-19.5 468.5,-.5 368.5,-.5"/>
<text text-anchor="middle" x="418.5" y="-7.5" font-family="Helvetica,sans-Serif" font-size="10.00" fill="#000000">omc_Tpl_popBlock</text>
</a>
</g>
</g>
<!-- Node53614&#45;&gt;Node53621 -->
<g id="edge8" class="edge">
<title>Node53614&#45;&gt;Node53621</title>
<path fill="none" stroke="#191970" d="M267.0498,-114.3209C284.1368,-95.499 324.4451,-53.6554 366,-29 369.4192,-26.9713 373.0904,-25.105 376.8451,-23.4011"/>
<polygon fill="#191970" stroke="#191970" points="378.3572,-26.5631 386.2543,-19.5 375.6763,-20.0968 378.3572,-26.5631"/>
</g>
</g>
</svg>
