<?xml version="1.0" encoding="UTF-8" standalone="no"?>
<!DOCTYPE svg PUBLIC "-//W3C//DTD SVG 1.1//EN"
 "http://www.w3.org/Graphics/SVG/1.1/DTD/svg11.dtd">
<!-- Generated by graphviz version 2.40.1 (20161225.0304)
 -->
<!-- Title: boxptr_CodegenCpp_isOutput Pages: 1 -->
<svg width="617pt" height="39pt"
 viewBox="0.00 0.00 617.00 39.00" xmlns="http://www.w3.org/2000/svg" xmlns:xlink="http://www.w3.org/1999/xlink">
<g id="graph0" class="graph" transform="scale(1 1) rotate(0) translate(4 35)">
<title>boxptr_CodegenCpp_isOutput</title>
<polygon fill="#ffffff" stroke="transparent" points="-4,4 -4,-35 613,-35 613,4 -4,4"/>
<!-- Node103662 -->
<g id="node1" class="node">
<title>Node103662</title>
<polygon fill="#bfbfbf" stroke="#000000" points="0,-6 0,-25 148,-25 148,-6 0,-6"/>
<text text-anchor="middle" x="74" y="-13" font-family="Helvetica,sans-Serif" font-size="10.00" fill="#000000">boxptr_CodegenCpp_isOutput</text>
</g>
<!-- Node103663 -->
<g id="node2" class="node">
<title>Node103663</title>
<g id="a_node2"><a xlink:href="../../d0/df9/_codegen_cpp_8c.html#a0ad4249afbac9866b291ea51f52a1f27" target="_top" xlink:title="omc_CodegenCpp_isOutput">
<polygon fill="#ffffff" stroke="#000000" points="184,-6 184,-25 324,-25 324,-6 184,-6"/>
<text text-anchor="middle" x="254" y="-13" font-family="Helvetica,sans-Serif" font-size="10.00" fill="#000000">omc_CodegenCpp_isOutput</text>
</a>
</g>
</g>
<!-- Node103662&#45;&gt;Node103663 -->
<g id="edge1" class="edge">
<title>Node103662&#45;&gt;Node103663</title>
<path fill="none" stroke="#191970" d="M148.2521,-15.5C156.6516,-15.5 165.24,-15.5 173.7123,-15.5"/>
<polygon fill="#191970" stroke="#191970" points="173.9685,-19.0001 183.9684,-15.5 173.9684,-12.0001 173.9685,-19.0001"/>
</g>
<!-- Node103664 -->
<g id="node3" class="node">
<title>Node103664</title>
<g id="a_node3"><a xlink:href="../../d0/df9/_codegen_cpp_8c.html#ab9abe32383686ad873fbefe8b5f63b39" target="_top" xlink:title="omc_CodegenCpp_fun\l__1128">
<polygon fill="#ffffff" stroke="#000000" points="360,-.5 360,-30.5 476,-30.5 476,-.5 360,-.5"/>
<text text-anchor="start" x="368" y="-18.5" font-family="Helvetica,sans-Serif" font-size="10.00" fill="#000000">omc_CodegenCpp_fun</text>
<text text-anchor="middle" x="418" y="-7.5" font-family="Helvetica,sans-Serif" font-size="10.00" fill="#000000">__1128</text>
</a>
</g>
</g>
<!-- Node103663&#45;&gt;Node103664 -->
<g id="edge2" class="edge">
<title>Node103663&#45;&gt;Node103664</title>
<path fill="none" stroke="#191970" d="M324.0265,-15.5C332.506,-15.5 341.1601,-15.5 349.6154,-15.5"/>
<polygon fill="#191970" stroke="#191970" points="349.8055,-19.0001 359.8055,-15.5 349.8055,-12.0001 349.8055,-19.0001"/>
</g>
<!-- Node103665 -->
<g id="node4" class="node">
<title>Node103665</title>
<g id="a_node4"><a xlink:href="../../d7/d52/_tpl_8c.html#a1038a57834f028b49f38adc4d5fcd049" target="_top" xlink:title="omc_Tpl_writeTok">
<polygon fill="#ffffff" stroke="#000000" points="512,-6 512,-25 609,-25 609,-6 512,-6"/>
<text text-anchor="middle" x="560.5" y="-13" font-family="Helvetica,sans-Serif" font-size="10.00" fill="#000000">omc_Tpl_writeTok</text>
</a>
</g>
</g>
<!-- Node103664&#45;&gt;Node103665 -->
<g id="edge3" class="edge">
<title>Node103664&#45;&gt;Node103665</title>
<path fill="none" stroke="#191970" d="M476.3714,-15.5C484.7865,-15.5 493.4497,-15.5 501.8699,-15.5"/>
<polygon fill="#191970" stroke="#191970" points="501.9872,-19.0001 511.9872,-15.5 501.9872,-12.0001 501.9872,-19.0001"/>
</g>
</g>
</svg>
