<?xml version="1.0" encoding="UTF-8" standalone="no"?>
<!DOCTYPE svg PUBLIC "-//W3C//DTD SVG 1.1//EN"
 "http://www.w3.org/Graphics/SVG/1.1/DTD/svg11.dtd">
<!-- Generated by graphviz version 2.40.1 (20161225.0304)
 -->
<!-- Title: omc_CodegenCpp_fun__226 Pages: 1 -->
<svg width="1052pt" height="363pt"
 viewBox="0.00 0.00 1052.00 362.52" xmlns="http://www.w3.org/2000/svg" xmlns:xlink="http://www.w3.org/1999/xlink">
<g id="graph0" class="graph" transform="scale(1 1) rotate(0) translate(4 358.5218)">
<title>omc_CodegenCpp_fun__226</title>
<polygon fill="#ffffff" stroke="transparent" points="-4,4 -4,-358.5218 1048,-358.5218 1048,4 -4,4"/>
<!-- Node239233 -->
<g id="node1" class="node">
<title>Node239233</title>
<polygon fill="#bfbfbf" stroke="#000000" points="0,-46.0218 0,-65.0218 143,-65.0218 143,-46.0218 0,-46.0218"/>
<text text-anchor="middle" x="71.5" y="-53.0218" font-family="Helvetica,sans-Serif" font-size="10.00" fill="#000000">omc_CodegenCpp_fun__226</text>
</g>
<!-- Node239234 -->
<g id="node2" class="node">
<title>Node239234</title>
<g id="a_node2"><a xlink:href="../../d7/d52/_tpl_8c.html#a1038a57834f028b49f38adc4d5fcd049" target="_top" xlink:title="omc_Tpl_writeTok">
<polygon fill="#ffffff" stroke="#000000" points="753.5,-46.0218 753.5,-65.0218 850.5,-65.0218 850.5,-46.0218 753.5,-46.0218"/>
<text text-anchor="middle" x="802" y="-53.0218" font-family="Helvetica,sans-Serif" font-size="10.00" fill="#000000">omc_Tpl_writeTok</text>
</a>
</g>
</g>
<!-- Node239233&#45;&gt;Node239234 -->
<g id="edge1" class="edge">
<title>Node239233&#45;&gt;Node239234</title>
<path fill="none" stroke="#191970" d="M112.5753,-46.013C213.8804,-24.0637 483.3903,25.1752 703,-16.5218 728.1517,-21.2974 755.0847,-32.3318 774.4993,-41.4491"/>
<polygon fill="#191970" stroke="#191970" points="773.1237,-44.6715 783.651,-45.8666 776.1667,-38.3675 773.1237,-44.6715"/>
</g>
<!-- Node239235 -->
<g id="node3" class="node">
<title>Node239235</title>
<g id="a_node3"><a xlink:href="../../d0/df9/_codegen_cpp_8c.html#a53be4b3d138afc096483708edcdd31f5" target="_top" xlink:title="omc_CodegenCpp_dotPath">
<polygon fill="#ffffff" stroke="#000000" points="566,-46.0218 566,-65.0218 703,-65.0218 703,-46.0218 566,-46.0218"/>
<text text-anchor="middle" x="634.5" y="-53.0218" font-family="Helvetica,sans-Serif" font-size="10.00" fill="#000000">omc_CodegenCpp_dotPath</text>
</a>
</g>
</g>
<!-- Node239233&#45;&gt;Node239235 -->
<g id="edge2" class="edge">
<title>Node239233&#45;&gt;Node239235</title>
<path fill="none" stroke="#191970" d="M143.09,-55.5218C248.7796,-55.5218 445.865,-55.5218 555.5985,-55.5218"/>
<polygon fill="#191970" stroke="#191970" points="555.6149,-59.0219 565.6148,-55.5218 555.6148,-52.0219 555.6149,-59.0219"/>
</g>
<!-- Node239237 -->
<g id="node5" class="node">
<title>Node239237</title>
<g id="a_node5"><a xlink:href="../../d0/df9/_codegen_cpp_8c.html#ae2f00da29ec351848e6b25452929ff38" target="_top" xlink:title="omc_CodegenCpp_generateMeasure\lTimeStartCode">
<polygon fill="#ffffff" stroke="#000000" points="179,-160.5218 179,-190.5218 357,-190.5218 357,-160.5218 179,-160.5218"/>
<text text-anchor="start" x="187" y="-178.5218" font-family="Helvetica,sans-Serif" font-size="10.00" fill="#000000">omc_CodegenCpp_generateMeasure</text>
<text text-anchor="middle" x="268" y="-167.5218" font-family="Helvetica,sans-Serif" font-size="10.00" fill="#000000">TimeStartCode</text>
</a>
</g>
</g>
<!-- Node239233&#45;&gt;Node239237 -->
<g id="edge5" class="edge">
<title>Node239233&#45;&gt;Node239237</title>
<path fill="none" stroke="#191970" d="M87.2483,-65.1391C119.1322,-84.6102 191.9252,-129.0639 234.7735,-155.2309"/>
<polygon fill="#191970" stroke="#191970" points="233.0783,-158.2966 243.4369,-160.5215 236.7266,-152.3225 233.0783,-158.2966"/>
</g>
<!-- Node239235&#45;&gt;Node239234 -->
<g id="edge4" class="edge">
<title>Node239235&#45;&gt;Node239234</title>
<path fill="none" stroke="#191970" d="M703.112,-55.5218C716.443,-55.5218 730.3034,-55.5218 743.2808,-55.5218"/>
<polygon fill="#191970" stroke="#191970" points="743.4721,-59.0219 753.4721,-55.5218 743.4721,-52.0219 743.4721,-59.0219"/>
</g>
<!-- Node239236 -->
<g id="node4" class="node">
<title>Node239236</title>
<g id="a_node4"><a xlink:href="../../d7/d52/_tpl_8c.html#ada57037d1430be632aea182a946c3245" target="_top" xlink:title="omc_Tpl_writeStr">
<polygon fill="#ffffff" stroke="#000000" points="755.5,-215.0218 755.5,-234.0218 848.5,-234.0218 848.5,-215.0218 755.5,-215.0218"/>
<text text-anchor="middle" x="802" y="-222.0218" font-family="Helvetica,sans-Serif" font-size="10.00" fill="#000000">omc_Tpl_writeStr</text>
</a>
</g>
</g>
<!-- Node239235&#45;&gt;Node239236 -->
<g id="edge3" class="edge">
<title>Node239235&#45;&gt;Node239236</title>
<path fill="none" stroke="#191970" d="M685.4302,-65.1566C691.6758,-67.6044 697.7109,-70.6736 703,-74.5218 750.1498,-108.8271 781.217,-172.9787 794.5568,-205.1219"/>
<polygon fill="#191970" stroke="#191970" points="791.4292,-206.7265 798.3988,-214.7062 797.9266,-204.1219 791.4292,-206.7265"/>
</g>
<!-- Node239238 -->
<g id="node6" class="node">
<title>Node239238</title>
<g id="a_node6"><a xlink:href="../../d3/db3/_flags_8c.html#a1bdc57ee7db1a86ebd954e1aa4d04c0c" target="_top" xlink:title="omc_Flags_getConfigString">
<polygon fill="#ffffff" stroke="#000000" points="393,-272.0218 393,-291.0218 530,-291.0218 530,-272.0218 393,-272.0218"/>
<text text-anchor="middle" x="461.5" y="-279.0218" font-family="Helvetica,sans-Serif" font-size="10.00" fill="#000000">omc_Flags_getConfigString</text>
</a>
</g>
</g>
<!-- Node239237&#45;&gt;Node239238 -->
<g id="edge6" class="edge">
<title>Node239237&#45;&gt;Node239238</title>
<path fill="none" stroke="#191970" d="M295.7238,-190.7091C332.8482,-211.0459 398.2652,-246.8816 434.8398,-266.9173"/>
<polygon fill="#191970" stroke="#191970" points="433.4614,-270.1529 443.9132,-271.8877 436.8245,-264.0137 433.4614,-270.1529"/>
</g>
<!-- Node239242 -->
<g id="node10" class="node">
<title>Node239242</title>
<g id="a_node10"><a xlink:href="../../d0/df9/_codegen_cpp_8c.html#a29dfeae3c583452980d52fc4e29c887d" target="_top" xlink:title="omc_CodegenCpp_fun\l__1667">
<polygon fill="#ffffff" stroke="#000000" points="403.5,-160.5218 403.5,-190.5218 519.5,-190.5218 519.5,-160.5218 403.5,-160.5218"/>
<text text-anchor="start" x="411.5" y="-178.5218" font-family="Helvetica,sans-Serif" font-size="10.00" fill="#000000">omc_CodegenCpp_fun</text>
<text text-anchor="middle" x="461.5" y="-167.5218" font-family="Helvetica,sans-Serif" font-size="10.00" fill="#000000">__1667</text>
</a>
</g>
</g>
<!-- Node239237&#45;&gt;Node239242 -->
<g id="edge10" class="edge">
<title>Node239237&#45;&gt;Node239242</title>
<path fill="none" stroke="#191970" d="M357.104,-175.5218C369.2251,-175.5218 381.5073,-175.5218 393.1832,-175.5218"/>
<polygon fill="#191970" stroke="#191970" points="393.2684,-179.0219 403.2684,-175.5218 393.2683,-172.0219 393.2684,-179.0219"/>
</g>
<!-- Node239239 -->
<g id="node7" class="node">
<title>Node239239</title>
<g id="a_node7"><a xlink:href="../../d3/db3/_flags_8c.html#a96ba70d54b6662cf90933a207c0c6b8e" target="_top" xlink:title="omc_Flags_getConfigValue">
<polygon fill="#ffffff" stroke="#000000" points="566,-335.0218 566,-354.0218 703,-354.0218 703,-335.0218 566,-335.0218"/>
<text text-anchor="middle" x="634.5" y="-342.0218" font-family="Helvetica,sans-Serif" font-size="10.00" fill="#000000">omc_Flags_getConfigValue</text>
</a>
</g>
</g>
<!-- Node239238&#45;&gt;Node239239 -->
<g id="edge7" class="edge">
<title>Node239238&#45;&gt;Node239239</title>
<path fill="none" stroke="#191970" d="M482.0138,-291.0809C502.8673,-300.5783 536.2502,-315.1804 566,-325.5218 572.579,-327.8088 579.5864,-330.0108 586.5137,-332.0542"/>
<polygon fill="#191970" stroke="#191970" points="585.9691,-335.5389 596.5462,-334.926 587.8955,-328.8091 585.9691,-335.5389"/>
</g>
<!-- Node239240 -->
<g id="node8" class="node">
<title>Node239240</title>
<g id="a_node8"><a xlink:href="../../d3/db3/_flags_8c.html#a760d66f53b65ac257876ca0f6308f09f" target="_top" xlink:title="omc_Flags_loadFlags">
<polygon fill="#ffffff" stroke="#000000" points="746,-335.0218 746,-354.0218 858,-354.0218 858,-335.0218 746,-335.0218"/>
<text text-anchor="middle" x="802" y="-342.0218" font-family="Helvetica,sans-Serif" font-size="10.00" fill="#000000">omc_Flags_loadFlags</text>
</a>
</g>
</g>
<!-- Node239239&#45;&gt;Node239240 -->
<g id="edge8" class="edge">
<title>Node239239&#45;&gt;Node239240</title>
<path fill="none" stroke="#191970" d="M703.112,-344.5218C713.8611,-344.5218 724.9543,-344.5218 735.6514,-344.5218"/>
<polygon fill="#191970" stroke="#191970" points="735.7617,-348.0219 745.7617,-344.5218 735.7617,-341.0219 735.7617,-348.0219"/>
</g>
<!-- Node239241 -->
<g id="node9" class="node">
<title>Node239241</title>
<g id="a_node9"><a xlink:href="../../da/d72/_compiler_2boot_2build_2list_8c.html#a3ec1ee3a5ff53be9af368e290be09182" target="_top" xlink:title="omc_List_fold">
<polygon fill="#ffffff" stroke="#000000" points="934,-335.0218 934,-354.0218 1011,-354.0218 1011,-335.0218 934,-335.0218"/>
<text text-anchor="middle" x="972.5" y="-342.0218" font-family="Helvetica,sans-Serif" font-size="10.00" fill="#000000">omc_List_fold</text>
</a>
</g>
</g>
<!-- Node239240&#45;&gt;Node239241 -->
<g id="edge9" class="edge">
<title>Node239240&#45;&gt;Node239241</title>
<path fill="none" stroke="#191970" d="M858.3006,-344.5218C879.4601,-344.5218 903.3197,-344.5218 923.7374,-344.5218"/>
<polygon fill="#191970" stroke="#191970" points="923.7618,-348.0219 933.7618,-344.5218 923.7617,-341.0219 923.7618,-348.0219"/>
</g>
<!-- Node239242&#45;&gt;Node239234 -->
<g id="edge18" class="edge">
<title>Node239242&#45;&gt;Node239234</title>
<path fill="none" stroke="#191970" d="M467.5004,-160.086C480.2659,-129.7046 513.3278,-62.8201 566,-36.5218 631.9206,-3.6089 721.2312,-26.1021 768.8575,-42.5476"/>
<polygon fill="#191970" stroke="#191970" points="767.7697,-45.8756 778.3643,-45.943 770.1241,-39.2834 767.7697,-45.8756"/>
</g>
<!-- Node239242&#45;&gt;Node239236 -->
<g id="edge19" class="edge">
<title>Node239242&#45;&gt;Node239236</title>
<path fill="none" stroke="#191970" d="M476.4307,-190.7663C495.3187,-208.8496 529.7756,-237.9947 566,-249.5218 634.4003,-271.2878 719.001,-251.8506 766.0743,-237.2102"/>
<polygon fill="#191970" stroke="#191970" points="767.3586,-240.4739 775.809,-234.0831 765.2177,-233.8093 767.3586,-240.4739"/>
</g>
<!-- Node239243 -->
<g id="node11" class="node">
<title>Node239243</title>
<g id="a_node11"><a xlink:href="../../d0/df9/_codegen_cpp_8c.html#ad22d6be9ee44b19cc166c693d814c3f7" target="_top" xlink:title="omc_CodegenCpp_fun\l__1665">
<polygon fill="#ffffff" stroke="#000000" points="576.5,-209.5218 576.5,-239.5218 692.5,-239.5218 692.5,-209.5218 576.5,-209.5218"/>
<text text-anchor="start" x="584.5" y="-227.5218" font-family="Helvetica,sans-Serif" font-size="10.00" fill="#000000">omc_CodegenCpp_fun</text>
<text text-anchor="middle" x="634.5" y="-216.5218" font-family="Helvetica,sans-Serif" font-size="10.00" fill="#000000">__1665</text>
</a>
</g>
</g>
<!-- Node239242&#45;&gt;Node239243 -->
<g id="edge11" class="edge">
<title>Node239242&#45;&gt;Node239243</title>
<path fill="none" stroke="#191970" d="M514.8173,-190.6233C532.7425,-195.7004 552.9084,-201.4121 571.5057,-206.6795"/>
<polygon fill="#191970" stroke="#191970" points="570.7834,-210.1126 581.3587,-209.4703 572.691,-203.3775 570.7834,-210.1126"/>
</g>
<!-- Node239244 -->
<g id="node12" class="node">
<title>Node239244</title>
<g id="a_node12"><a xlink:href="../../d7/d52/_tpl_8c.html#a4af96d109f0c655c66046cf20edcebcd" target="_top" xlink:title="omc_Tpl_softNewLine">
<polygon fill="#ffffff" stroke="#000000" points="577.5,-297.0218 577.5,-316.0218 691.5,-316.0218 691.5,-297.0218 577.5,-297.0218"/>
<text text-anchor="middle" x="634.5" y="-304.0218" font-family="Helvetica,sans-Serif" font-size="10.00" fill="#000000">omc_Tpl_softNewLine</text>
</a>
</g>
</g>
<!-- Node239242&#45;&gt;Node239244 -->
<g id="edge14" class="edge">
<title>Node239242&#45;&gt;Node239244</title>
<path fill="none" stroke="#191970" d="M472.6554,-190.8112C490.1383,-213.7639 526.1399,-257.1351 566,-282.5218 572.7259,-286.8055 580.3122,-290.4379 587.9226,-293.4793"/>
<polygon fill="#191970" stroke="#191970" points="586.9191,-296.8397 597.5124,-297.0201 589.3437,-290.273 586.9191,-296.8397"/>
</g>
<!-- Node239247 -->
<g id="node15" class="node">
<title>Node239247</title>
<g id="a_node15"><a xlink:href="../../d7/d52/_tpl_8c.html#a99d6bda0846441f21c5081261888085a" target="_top" xlink:title="omc_Tpl_pushBlock">
<polygon fill="#ffffff" stroke="#000000" points="582,-122.0218 582,-141.0218 687,-141.0218 687,-122.0218 582,-122.0218"/>
<text text-anchor="middle" x="634.5" y="-129.0218" font-family="Helvetica,sans-Serif" font-size="10.00" fill="#000000">omc_Tpl_pushBlock</text>
</a>
</g>
</g>
<!-- Node239242&#45;&gt;Node239247 -->
<g id="edge17" class="edge">
<title>Node239242&#45;&gt;Node239247</title>
<path fill="none" stroke="#191970" d="M519.5878,-160.7481C541.5206,-155.1698 566.1949,-148.8942 587.041,-143.5923"/>
<polygon fill="#191970" stroke="#191970" points="588.1095,-146.9321 596.9383,-141.0751 586.3841,-140.1481 588.1095,-146.9321"/>
</g>
<!-- Node239248 -->
<g id="node16" class="node">
<title>Node239248</title>
<g id="a_node16"><a xlink:href="../../d7/d52/_tpl_8c.html#a6cf6c8514535aa47abb9ff6badd4f6a5" target="_top" xlink:title="omc_Tpl_popBlock">
<polygon fill="#ffffff" stroke="#000000" points="584.5,-84.0218 584.5,-103.0218 684.5,-103.0218 684.5,-84.0218 584.5,-84.0218"/>
<text text-anchor="middle" x="634.5" y="-91.0218" font-family="Helvetica,sans-Serif" font-size="10.00" fill="#000000">omc_Tpl_popBlock</text>
</a>
</g>
</g>
<!-- Node239242&#45;&gt;Node239248 -->
<g id="edge20" class="edge">
<title>Node239242&#45;&gt;Node239248</title>
<path fill="none" stroke="#191970" d="M482.5913,-160.4445C503.0688,-146.3894 535.4516,-125.674 566,-112.5218 571.4463,-110.177 577.2612,-108.0431 583.1144,-106.1235"/>
<polygon fill="#191970" stroke="#191970" points="584.4164,-109.3848 592.9429,-103.0959 582.3556,-102.695 584.4164,-109.3848"/>
</g>
<!-- Node239249 -->
<g id="node17" class="node">
<title>Node239249</title>
<g id="a_node17"><a xlink:href="../../d0/df9/_codegen_cpp_8c.html#a83e474ddb78cbe0dc3dfa565ed309bd2" target="_top" xlink:title="omc_CodegenCpp_fun\l__1666">
<polygon fill="#ffffff" stroke="#000000" points="576.5,-160.5218 576.5,-190.5218 692.5,-190.5218 692.5,-160.5218 576.5,-160.5218"/>
<text text-anchor="start" x="584.5" y="-178.5218" font-family="Helvetica,sans-Serif" font-size="10.00" fill="#000000">omc_CodegenCpp_fun</text>
<text text-anchor="middle" x="634.5" y="-167.5218" font-family="Helvetica,sans-Serif" font-size="10.00" fill="#000000">__1666</text>
</a>
</g>
</g>
<!-- Node239242&#45;&gt;Node239249 -->
<g id="edge21" class="edge">
<title>Node239242&#45;&gt;Node239249</title>
<path fill="none" stroke="#191970" d="M519.5878,-175.5218C534.5649,-175.5218 550.8206,-175.5218 566.2626,-175.5218"/>
<polygon fill="#191970" stroke="#191970" points="566.2711,-179.0219 576.2711,-175.5218 566.271,-172.0219 566.2711,-179.0219"/>
</g>
<!-- Node239243&#45;&gt;Node239234 -->
<g id="edge12" class="edge">
<title>Node239243&#45;&gt;Node239234</title>
<path fill="none" stroke="#191970" d="M688.225,-209.5199C693.4668,-206.9529 698.5008,-203.9733 703,-200.5218 747.9785,-166.018 779.8541,-105.121 793.9267,-74.3884"/>
<polygon fill="#191970" stroke="#191970" points="797.1455,-75.7636 798.0098,-65.2041 790.7492,-72.9199 797.1455,-75.7636"/>
</g>
<!-- Node239243&#45;&gt;Node239236 -->
<g id="edge13" class="edge">
<title>Node239243&#45;&gt;Node239236</title>
<path fill="none" stroke="#191970" d="M692.6133,-224.5218C709.5931,-224.5218 728.1289,-224.5218 745.0367,-224.5218"/>
<polygon fill="#191970" stroke="#191970" points="745.3254,-228.0219 755.3254,-224.5218 745.3254,-221.0219 745.3254,-228.0219"/>
</g>
<!-- Node239245 -->
<g id="node13" class="node">
<title>Node239245</title>
<g id="a_node13"><a xlink:href="../../d7/d52/_tpl_8c.html#a2bc2d55a944d62577b3596f42906ee58" target="_top" xlink:title="omc_Tpl_isAtStartOfLine">
<polygon fill="#ffffff" stroke="#000000" points="739,-297.0218 739,-316.0218 865,-316.0218 865,-297.0218 739,-297.0218"/>
<text text-anchor="middle" x="802" y="-304.0218" font-family="Helvetica,sans-Serif" font-size="10.00" fill="#000000">omc_Tpl_isAtStartOfLine</text>
</a>
</g>
</g>
<!-- Node239244&#45;&gt;Node239245 -->
<g id="edge15" class="edge">
<title>Node239244&#45;&gt;Node239245</title>
<path fill="none" stroke="#191970" d="M691.6755,-306.5218C703.5221,-306.5218 716.16,-306.5218 728.4968,-306.5218"/>
<polygon fill="#191970" stroke="#191970" points="728.765,-310.0219 738.765,-306.5218 728.7649,-303.0219 728.765,-310.0219"/>
</g>
<!-- Node239246 -->
<g id="node14" class="node">
<title>Node239246</title>
<g id="a_node14"><a xlink:href="../../d7/d52/_tpl_8c.html#a1b27a1e34bf7c6c0e2b26e628b21c9f7" target="_top" xlink:title="omc_Tpl_isAtStartOfLineTok">
<polygon fill="#ffffff" stroke="#000000" points="901,-297.0218 901,-316.0218 1044,-316.0218 1044,-297.0218 901,-297.0218"/>
<text text-anchor="middle" x="972.5" y="-304.0218" font-family="Helvetica,sans-Serif" font-size="10.00" fill="#000000">omc_Tpl_isAtStartOfLineTok</text>
</a>
</g>
</g>
<!-- Node239245&#45;&gt;Node239246 -->
<g id="edge16" class="edge">
<title>Node239245&#45;&gt;Node239246</title>
<path fill="none" stroke="#191970" d="M865.0035,-306.5218C873.3898,-306.5218 882.085,-306.5218 890.7323,-306.5218"/>
<polygon fill="#191970" stroke="#191970" points="890.8402,-310.0219 900.8402,-306.5218 890.8402,-303.0219 890.8402,-310.0219"/>
</g>
<!-- Node239249&#45;&gt;Node239234 -->
<g id="edge22" class="edge">
<title>Node239249&#45;&gt;Node239234</title>
<path fill="none" stroke="#191970" d="M683.5841,-160.4537C690.3215,-157.5774 696.9836,-154.2718 703,-150.5218 737.4692,-129.0378 769.9404,-94.0289 787.7839,-73.0421"/>
<polygon fill="#191970" stroke="#191970" points="790.5756,-75.1594 794.2932,-65.2381 785.2001,-70.6756 790.5756,-75.1594"/>
</g>
</g>
</svg>
