<?xml version="1.0" encoding="UTF-8" standalone="no"?>
<!DOCTYPE svg PUBLIC "-//W3C//DTD SVG 1.1//EN"
 "http://www.w3.org/Graphics/SVG/1.1/DTD/svg11.dtd">
<!-- Generated by graphviz version 2.40.1 (20161225.0304)
 -->
<!-- Title: omc_CodegenCpp_lm__58 Pages: 1 -->
<svg width="707pt" height="237pt"
 viewBox="0.00 0.00 707.00 237.00" xmlns="http://www.w3.org/2000/svg" xmlns:xlink="http://www.w3.org/1999/xlink">
<g id="graph0" class="graph" transform="scale(1 1) rotate(0) translate(4 233)">
<title>omc_CodegenCpp_lm__58</title>
<polygon fill="#ffffff" stroke="transparent" points="-4,4 -4,-233 703,-233 703,4 -4,4"/>
<!-- Node366594 -->
<g id="node1" class="node">
<title>Node366594</title>
<polygon fill="#bfbfbf" stroke="#000000" points="0,-95.5 0,-114.5 134,-114.5 134,-95.5 0,-95.5"/>
<text text-anchor="middle" x="67" y="-102.5" font-family="Helvetica,sans-Serif" font-size="10.00" fill="#000000">omc_CodegenCpp_lm__58</text>
</g>
<!-- Node366595 -->
<g id="node2" class="node">
<title>Node366595</title>
<g id="a_node2"><a xlink:href="../../d7/d52/_tpl_8c.html#a5ea76e329a6adbbec62206d9e8b62373" target="_top" xlink:title="omc_Tpl_getIteri__i0">
<polygon fill="#ffffff" stroke="#000000" points="170,-190.5 170,-209.5 277,-209.5 277,-190.5 170,-190.5"/>
<text text-anchor="middle" x="223.5" y="-197.5" font-family="Helvetica,sans-Serif" font-size="10.00" fill="#000000">omc_Tpl_getIteri__i0</text>
</a>
</g>
</g>
<!-- Node366594&#45;&gt;Node366595 -->
<g id="edge1" class="edge">
<title>Node366594&#45;&gt;Node366595</title>
<path fill="none" stroke="#191970" d="M77.7045,-114.5887C95.6657,-130.2723 133.4994,-161.6028 170,-181 173.9249,-183.0858 178.1271,-185.0263 182.387,-186.8079"/>
<polygon fill="#191970" stroke="#191970" points="181.1318,-190.0751 191.72,-190.4494 183.6762,-183.5539 181.1318,-190.0751"/>
</g>
<!-- Node366602 -->
<g id="node9" class="node">
<title>Node366602</title>
<g id="a_node9"><a xlink:href="../../d7/d52/_tpl_8c.html#a1038a57834f028b49f38adc4d5fcd049" target="_top" xlink:title="omc_Tpl_writeTok">
<polygon fill="#ffffff" stroke="#000000" points="175,-152.5 175,-171.5 272,-171.5 272,-152.5 175,-152.5"/>
<text text-anchor="middle" x="223.5" y="-159.5" font-family="Helvetica,sans-Serif" font-size="10.00" fill="#000000">omc_Tpl_writeTok</text>
</a>
</g>
</g>
<!-- Node366594&#45;&gt;Node366602 -->
<g id="edge8" class="edge">
<title>Node366594&#45;&gt;Node366602</title>
<path fill="none" stroke="#191970" d="M92.7891,-114.6135C113.6036,-122.3486 143.6549,-133.4625 170,-143 175.5216,-144.999 181.3709,-147.0966 187.0962,-149.1386"/>
<polygon fill="#191970" stroke="#191970" points="185.94,-152.4421 196.5347,-152.4957 188.2858,-145.8469 185.94,-152.4421"/>
</g>
<!-- Node366603 -->
<g id="node10" class="node">
<title>Node366603</title>
<g id="a_node10"><a xlink:href="../../d7/d52/_tpl_8c.html#a7e5a397e973cf3de37af50d58cbb789f" target="_top" xlink:title="omc_Tpl_writeText">
<polygon fill="#ffffff" stroke="#000000" points="173.5,-114.5 173.5,-133.5 273.5,-133.5 273.5,-114.5 173.5,-114.5"/>
<text text-anchor="middle" x="223.5" y="-121.5" font-family="Helvetica,sans-Serif" font-size="10.00" fill="#000000">omc_Tpl_writeText</text>
</a>
</g>
</g>
<!-- Node366594&#45;&gt;Node366603 -->
<g id="edge9" class="edge">
<title>Node366594&#45;&gt;Node366603</title>
<path fill="none" stroke="#191970" d="M134.2783,-113.168C143.891,-114.335 153.729,-115.5294 163.1965,-116.6788"/>
<polygon fill="#191970" stroke="#191970" points="162.9473,-120.1742 173.2962,-117.905 163.791,-113.2252 162.9473,-120.1742"/>
</g>
<!-- Node366604 -->
<g id="node11" class="node">
<title>Node366604</title>
<g id="a_node11"><a xlink:href="../../d7/d52/_tpl_8c.html#ada57037d1430be632aea182a946c3245" target="_top" xlink:title="omc_Tpl_writeStr">
<polygon fill="#ffffff" stroke="#000000" points="177,-76.5 177,-95.5 270,-95.5 270,-76.5 177,-76.5"/>
<text text-anchor="middle" x="223.5" y="-83.5" font-family="Helvetica,sans-Serif" font-size="10.00" fill="#000000">omc_Tpl_writeStr</text>
</a>
</g>
</g>
<!-- Node366594&#45;&gt;Node366604 -->
<g id="edge10" class="edge">
<title>Node366594&#45;&gt;Node366604</title>
<path fill="none" stroke="#191970" d="M134.2783,-96.832C144.9654,-95.5346 155.931,-94.2033 166.3564,-92.9376"/>
<polygon fill="#191970" stroke="#191970" points="167.0661,-96.3772 176.5714,-91.6974 166.2224,-89.4282 167.0661,-96.3772"/>
</g>
<!-- Node366605 -->
<g id="node12" class="node">
<title>Node366605</title>
<g id="a_node12"><a xlink:href="../../d2/d57/build_2include_2omc_2c_2meta_2meta__modelica__builtin_8h.html#a751bf2360cb3df6de97811998890b7ea" target="_top" xlink:title="intString">
<polygon fill="#ffffff" stroke="#000000" points="197,-38.5 197,-57.5 250,-57.5 250,-38.5 197,-38.5"/>
<text text-anchor="middle" x="223.5" y="-45.5" font-family="Helvetica,sans-Serif" font-size="10.00" fill="#000000">intString</text>
</a>
</g>
</g>
<!-- Node366594&#45;&gt;Node366605 -->
<g id="edge11" class="edge">
<title>Node366594&#45;&gt;Node366605</title>
<path fill="none" stroke="#191970" d="M92.7891,-95.3865C113.6036,-87.6514 143.6549,-76.5375 170,-67 175.581,-64.9796 181.4967,-62.8583 187.2808,-60.7955"/>
<polygon fill="#191970" stroke="#191970" points="188.5593,-64.0557 196.8085,-57.4072 186.2138,-57.4603 188.5593,-64.0557"/>
</g>
<!-- Node366606 -->
<g id="node13" class="node">
<title>Node366606</title>
<g id="a_node13"><a xlink:href="../../d7/d52/_tpl_8c.html#ae3c38d796bafc525ba51ed985d39c720" target="_top" xlink:title="omc_Tpl_nextIter">
<polygon fill="#ffffff" stroke="#000000" points="177.5,-.5 177.5,-19.5 269.5,-19.5 269.5,-.5 177.5,-.5"/>
<text text-anchor="middle" x="223.5" y="-7.5" font-family="Helvetica,sans-Serif" font-size="10.00" fill="#000000">omc_Tpl_nextIter</text>
</a>
</g>
</g>
<!-- Node366594&#45;&gt;Node366606 -->
<g id="edge12" class="edge">
<title>Node366594&#45;&gt;Node366606</title>
<path fill="none" stroke="#191970" d="M77.7045,-95.4113C95.6657,-79.7277 133.4994,-48.3972 170,-29 173.9249,-26.9142 178.1271,-24.9737 182.387,-23.1921"/>
<polygon fill="#191970" stroke="#191970" points="183.6762,-26.4461 191.72,-19.5506 181.1318,-19.9249 183.6762,-26.4461"/>
</g>
<!-- Node366596 -->
<g id="node3" class="node">
<title>Node366596</title>
<g id="a_node3"><a xlink:href="../../d3/db3/_flags_8c.html#a34e6591659b1578969141a635ff24042" target="_top" xlink:title="omc_Flags_isSet">
<polygon fill="#ffffff" stroke="#000000" points="315,-209.5 315,-228.5 407,-228.5 407,-209.5 315,-209.5"/>
<text text-anchor="middle" x="361" y="-216.5" font-family="Helvetica,sans-Serif" font-size="10.00" fill="#000000">omc_Flags_isSet</text>
</a>
</g>
</g>
<!-- Node366595&#45;&gt;Node366596 -->
<g id="edge2" class="edge">
<title>Node366595&#45;&gt;Node366596</title>
<path fill="none" stroke="#191970" d="M277.0548,-207.4003C286.1494,-208.657 295.6175,-209.9653 304.7784,-211.2312"/>
<polygon fill="#191970" stroke="#191970" points="304.5696,-214.7355 314.9546,-212.6374 305.5278,-207.8014 304.5696,-214.7355"/>
</g>
<!-- Node366599 -->
<g id="node6" class="node">
<title>Node366599</title>
<g id="a_node6"><a xlink:href="../../d6/d1d/_compiler_2boot_2build_2debug_8c.html#a465f6e24432a8b1db4c7576ea09e7259" target="_top" xlink:title="omc_Debug_trace">
<polygon fill="#ffffff" stroke="#000000" points="313,-171.5 313,-190.5 409,-190.5 409,-171.5 313,-171.5"/>
<text text-anchor="middle" x="361" y="-178.5" font-family="Helvetica,sans-Serif" font-size="10.00" fill="#000000">omc_Debug_trace</text>
</a>
</g>
</g>
<!-- Node366595&#45;&gt;Node366599 -->
<g id="edge5" class="edge">
<title>Node366595&#45;&gt;Node366599</title>
<path fill="none" stroke="#191970" d="M277.0548,-192.5997C285.4178,-191.4441 294.0965,-190.2448 302.5618,-189.0751"/>
<polygon fill="#191970" stroke="#191970" points="303.3194,-192.5038 312.7462,-187.6678 302.3612,-185.5696 303.3194,-192.5038"/>
</g>
<!-- Node366597 -->
<g id="node4" class="node">
<title>Node366597</title>
<g id="a_node4"><a xlink:href="../../d3/db3/_flags_8c.html#a760d66f53b65ac257876ca0f6308f09f" target="_top" xlink:title="omc_Flags_loadFlags">
<polygon fill="#ffffff" stroke="#000000" points="449.5,-209.5 449.5,-228.5 561.5,-228.5 561.5,-209.5 449.5,-209.5"/>
<text text-anchor="middle" x="505.5" y="-216.5" font-family="Helvetica,sans-Serif" font-size="10.00" fill="#000000">omc_Flags_loadFlags</text>
</a>
</g>
</g>
<!-- Node366596&#45;&gt;Node366597 -->
<g id="edge3" class="edge">
<title>Node366596&#45;&gt;Node366597</title>
<path fill="none" stroke="#191970" d="M407.118,-219C417.3205,-219 428.3264,-219 439.1543,-219"/>
<polygon fill="#191970" stroke="#191970" points="439.4492,-222.5001 449.4491,-219 439.4491,-215.5001 439.4492,-222.5001"/>
</g>
<!-- Node366598 -->
<g id="node5" class="node">
<title>Node366598</title>
<g id="a_node5"><a xlink:href="../../da/d72/_compiler_2boot_2build_2list_8c.html#a3ec1ee3a5ff53be9af368e290be09182" target="_top" xlink:title="omc_List_fold">
<polygon fill="#ffffff" stroke="#000000" points="612,-209.5 612,-228.5 689,-228.5 689,-209.5 612,-209.5"/>
<text text-anchor="middle" x="650.5" y="-216.5" font-family="Helvetica,sans-Serif" font-size="10.00" fill="#000000">omc_List_fold</text>
</a>
</g>
</g>
<!-- Node366597&#45;&gt;Node366598 -->
<g id="edge4" class="edge">
<title>Node366597&#45;&gt;Node366598</title>
<path fill="none" stroke="#191970" d="M561.5608,-219C574.7662,-219 588.7398,-219 601.601,-219"/>
<polygon fill="#191970" stroke="#191970" points="601.6412,-222.5001 611.6412,-219 601.6411,-215.5001 601.6412,-222.5001"/>
</g>
<!-- Node366600 -->
<g id="node7" class="node">
<title>Node366600</title>
<g id="a_node7"><a xlink:href="../../dc/d4a/_print_8c.html#a136f27763cbad8fdab9e975d877aff4b" target="_top" xlink:title="omc_Print_printErrorBuf">
<polygon fill="#ffffff" stroke="#000000" points="445,-171.5 445,-190.5 566,-190.5 566,-171.5 445,-171.5"/>
<text text-anchor="middle" x="505.5" y="-178.5" font-family="Helvetica,sans-Serif" font-size="10.00" fill="#000000">omc_Print_printErrorBuf</text>
</a>
</g>
</g>
<!-- Node366599&#45;&gt;Node366600 -->
<g id="edge6" class="edge">
<title>Node366599&#45;&gt;Node366600</title>
<path fill="none" stroke="#191970" d="M409.1164,-181C417.3777,-181 426.1146,-181 434.8211,-181"/>
<polygon fill="#191970" stroke="#191970" points="434.9975,-184.5001 444.9974,-181 434.9974,-177.5001 434.9975,-184.5001"/>
</g>
<!-- Node366601 -->
<g id="node8" class="node">
<title>Node366601</title>
<g id="a_node8"><a xlink:href="../../db/def/_print_8h.html#ac4ef051f731ad4fd851c45be8d215b4c" target="_top" xlink:title="Print_printErrorBuf">
<polygon fill="#ffffff" stroke="#000000" points="602,-171.5 602,-190.5 699,-190.5 699,-171.5 602,-171.5"/>
<text text-anchor="middle" x="650.5" y="-178.5" font-family="Helvetica,sans-Serif" font-size="10.00" fill="#000000">Print_printErrorBuf</text>
</a>
</g>
</g>
<!-- Node366600&#45;&gt;Node366601 -->
<g id="edge7" class="edge">
<title>Node366600&#45;&gt;Node366601</title>
<path fill="none" stroke="#191970" d="M566.1529,-181C574.6494,-181 583.3691,-181 591.8279,-181"/>
<polygon fill="#191970" stroke="#191970" points="591.984,-184.5001 601.984,-181 591.984,-177.5001 591.984,-184.5001"/>
</g>
</g>
</svg>
