<?xml version="1.0" encoding="UTF-8" standalone="no"?>
<!DOCTYPE svg PUBLIC "-//W3C//DTD SVG 1.1//EN"
 "http://www.w3.org/Graphics/SVG/1.1/DTD/svg11.dtd">
<!-- Generated by graphviz version 2.40.1 (20161225.0304)
 -->
<!-- Title: omc_CodegenCpp_memberVariableInitialize Pages: 1 -->
<svg width="1115pt" height="100pt"
 viewBox="0.00 0.00 1115.00 99.50" xmlns="http://www.w3.org/2000/svg" xmlns:xlink="http://www.w3.org/1999/xlink">
<g id="graph0" class="graph" transform="scale(1 1) rotate(0) translate(4 95.5)">
<title>omc_CodegenCpp_memberVariableInitialize</title>
<polygon fill="#ffffff" stroke="transparent" points="-4,4 -4,-95.5 1111,-95.5 1111,4 -4,4"/>
<!-- Node384557 -->
<g id="node1" class="node">
<title>Node384557</title>
<polygon fill="#bfbfbf" stroke="#000000" points="0,-39 0,-69 173,-69 173,-39 0,-39"/>
<text text-anchor="start" x="8" y="-57" font-family="Helvetica,sans-Serif" font-size="10.00" fill="#000000">omc_CodegenCpp_memberVariable</text>
<text text-anchor="middle" x="86.5" y="-46" font-family="Helvetica,sans-Serif" font-size="10.00" fill="#000000">Initialize</text>
</g>
<!-- Node384558 -->
<g id="node2" class="node">
<title>Node384558</title>
<g id="a_node2"><a xlink:href="../../d6/d8e/_codegen_cpp_8h.html#aaeeac1003bd7258be5f56bb464093c21" target="_top" xlink:title="boxptr_CodegenCpp_member\lVariableInitialize">
<polygon fill="#ffffff" stroke="#000000" points="209,-61 209,-91 355,-91 355,-61 209,-61"/>
<text text-anchor="start" x="217" y="-79" font-family="Helvetica,sans-Serif" font-size="10.00" fill="#000000">boxptr_CodegenCpp_member</text>
<text text-anchor="middle" x="282" y="-68" font-family="Helvetica,sans-Serif" font-size="10.00" fill="#000000">VariableInitialize</text>
</a>
</g>
</g>
<!-- Node384557&#45;&gt;Node384558 -->
<g id="edge1" class="edge">
<title>Node384557&#45;&gt;Node384558</title>
<path fill="none" stroke="#191970" d="M183.2227,-64.8844C191.8613,-65.8565 200.5105,-66.8298 208.9006,-67.774"/>
<polygon fill="#191970" stroke="#191970" points="183.4316,-61.3859 173.1029,-63.7456 182.6488,-68.342 183.4316,-61.3859"/>
</g>
<!-- Node384559 -->
<g id="node3" class="node">
<title>Node384559</title>
<g id="a_node3"><a xlink:href="../../d0/df9/_codegen_cpp_8c.html#a0f63c8a6bba3ee49eeb8a5daeacf892c" target="_top" xlink:title="omc_CodegenCpp_fun__379">
<polygon fill="#ffffff" stroke="#000000" points="210.5,-22.5 210.5,-41.5 353.5,-41.5 353.5,-22.5 210.5,-22.5"/>
<text text-anchor="middle" x="282" y="-29.5" font-family="Helvetica,sans-Serif" font-size="10.00" fill="#000000">omc_CodegenCpp_fun__379</text>
</a>
</g>
</g>
<!-- Node384557&#45;&gt;Node384559 -->
<g id="edge2" class="edge">
<title>Node384557&#45;&gt;Node384559</title>
<path fill="none" stroke="#191970" d="M183.0686,-43.1329C192.272,-42.0973 201.4894,-41.06 210.3943,-40.0579"/>
<polygon fill="#191970" stroke="#191970" points="182.6488,-39.658 173.1029,-44.2544 183.4316,-46.6141 182.6488,-39.658"/>
</g>
<!-- Node384560 -->
<g id="node4" class="node">
<title>Node384560</title>
<g id="a_node4"><a xlink:href="../../d6/d8e/_codegen_cpp_8h.html#a08aa31f2e455245b654026d594cdd59d" target="_top" xlink:title="omc_CodegenCpp_simulation\lCppFile">
<polygon fill="#ffffff" stroke="#000000" points="393,-39 393,-69 540,-69 540,-39 393,-39"/>
<text text-anchor="start" x="401" y="-57" font-family="Helvetica,sans-Serif" font-size="10.00" fill="#000000">omc_CodegenCpp_simulation</text>
<text text-anchor="middle" x="466.5" y="-46" font-family="Helvetica,sans-Serif" font-size="10.00" fill="#000000">CppFile</text>
</a>
</g>
</g>
<!-- Node384559&#45;&gt;Node384560 -->
<g id="edge3" class="edge">
<title>Node384559&#45;&gt;Node384560</title>
<path fill="none" stroke="#191970" d="M363.6404,-41.7349C373.3513,-42.8928 383.2211,-44.0697 392.8117,-45.2133"/>
<polygon fill="#191970" stroke="#191970" points="363.9407,-38.246 353.5966,-40.5373 363.1118,-45.1968 363.9407,-38.246"/>
</g>
<!-- Node384565 -->
<g id="node9" class="node">
<title>Node384565</title>
<g id="a_node9"><a xlink:href="../../d0/df9/_codegen_cpp_8c.html#a0144912157c3ae361900fab7b6b286ee" target="_top" xlink:title="boxptr_CodegenCpp_fun__379">
<polygon fill="#ffffff" stroke="#000000" points="391,-.5 391,-19.5 542,-19.5 542,-.5 391,-.5"/>
<text text-anchor="middle" x="466.5" y="-7.5" font-family="Helvetica,sans-Serif" font-size="10.00" fill="#000000">boxptr_CodegenCpp_fun__379</text>
</a>
</g>
</g>
<!-- Node384559&#45;&gt;Node384565 -->
<g id="edge8" class="edge">
<title>Node384559&#45;&gt;Node384565</title>
<path fill="none" stroke="#191970" d="M363.7467,-22.2524C372.8051,-21.1723 382.0003,-20.0758 390.977,-19.0055"/>
<polygon fill="#191970" stroke="#191970" points="363.1118,-18.8032 353.5966,-23.4627 363.9407,-25.754 363.1118,-18.8032"/>
</g>
<!-- Node384561 -->
<g id="node5" class="node">
<title>Node384561</title>
<g id="a_node5"><a xlink:href="../../d6/d8e/_codegen_cpp_8h.html#a1b9394bb588f6735b3db560edcfc3db7" target="_top" xlink:title="boxptr_CodegenCpp_simulation\lCppFile">
<polygon fill="#ffffff" stroke="#000000" points="578,-61 578,-91 733,-91 733,-61 578,-61"/>
<text text-anchor="start" x="586" y="-79" font-family="Helvetica,sans-Serif" font-size="10.00" fill="#000000">boxptr_CodegenCpp_simulation</text>
<text text-anchor="middle" x="655.5" y="-68" font-family="Helvetica,sans-Serif" font-size="10.00" fill="#000000">CppFile</text>
</a>
</g>
</g>
<!-- Node384560&#45;&gt;Node384561 -->
<g id="edge4" class="edge">
<title>Node384560&#45;&gt;Node384561</title>
<path fill="none" stroke="#191970" d="M550.3251,-63.7574C559.4364,-64.818 568.6818,-65.8942 577.7166,-66.9458"/>
<polygon fill="#191970" stroke="#191970" points="550.4512,-60.2485 540.1135,-62.5688 549.6418,-67.2016 550.4512,-60.2485"/>
</g>
<!-- Node384562 -->
<g id="node6" class="node">
<title>Node384562</title>
<g id="a_node6"><a xlink:href="../../d0/df9/_codegen_cpp_8c.html#aa7c7709a5cda769632291bb6f29d8b29" target="_top" xlink:title="omc_CodegenCpp_fun__46">
<polygon fill="#ffffff" stroke="#000000" points="587,-22.5 587,-41.5 724,-41.5 724,-22.5 587,-22.5"/>
<text text-anchor="middle" x="655.5" y="-29.5" font-family="Helvetica,sans-Serif" font-size="10.00" fill="#000000">omc_CodegenCpp_fun__46</text>
</a>
</g>
</g>
<!-- Node384560&#45;&gt;Node384562 -->
<g id="edge5" class="edge">
<title>Node384560&#45;&gt;Node384562</title>
<path fill="none" stroke="#191970" d="M550.2732,-44.2486C562.4572,-42.8304 574.8821,-41.3841 586.7237,-40.0057"/>
<polygon fill="#191970" stroke="#191970" points="549.6418,-40.7984 540.1135,-45.4312 550.4512,-47.7515 549.6418,-40.7984"/>
</g>
<!-- Node384563 -->
<g id="node7" class="node">
<title>Node384563</title>
<g id="a_node7"><a xlink:href="../../d6/d8e/_codegen_cpp_8h.html#a54676ae5ee46975a3ec1566a9856625c" target="_top" xlink:title="omc_CodegenCpp_translate\lModel">
<polygon fill="#ffffff" stroke="#000000" points="769,-17 769,-47 909,-47 909,-17 769,-17"/>
<text text-anchor="start" x="777" y="-35" font-family="Helvetica,sans-Serif" font-size="10.00" fill="#000000">omc_CodegenCpp_translate</text>
<text text-anchor="middle" x="839" y="-24" font-family="Helvetica,sans-Serif" font-size="10.00" fill="#000000">Model</text>
</a>
</g>
</g>
<!-- Node384562&#45;&gt;Node384563 -->
<g id="edge6" class="edge">
<title>Node384562&#45;&gt;Node384563</title>
<path fill="none" stroke="#191970" d="M734.164,-32C745.7326,-32 757.5846,-32 768.9639,-32"/>
<polygon fill="#191970" stroke="#191970" points="734.0896,-28.5001 724.0896,-32 734.0895,-35.5001 734.0896,-28.5001"/>
</g>
<!-- Node384564 -->
<g id="node8" class="node">
<title>Node384564</title>
<g id="a_node8"><a xlink:href="../../d5/d4c/_codegen_f_m_u_cpp_8h.html#a1fc774045fbfd7b6dc9872f8b61ccdad" target="_top" xlink:title="omc_CodegenFMUCpp_translate\lModel">
<polygon fill="#ffffff" stroke="#000000" points="945,-17 945,-47 1107,-47 1107,-17 945,-17"/>
<text text-anchor="start" x="953" y="-35" font-family="Helvetica,sans-Serif" font-size="10.00" fill="#000000">omc_CodegenFMUCpp_translate</text>
<text text-anchor="middle" x="1026" y="-24" font-family="Helvetica,sans-Serif" font-size="10.00" fill="#000000">Model</text>
</a>
</g>
</g>
<!-- Node384563&#45;&gt;Node384564 -->
<g id="edge7" class="edge">
<title>Node384563&#45;&gt;Node384564</title>
<path fill="none" stroke="#191970" d="M919.3393,-32C927.7557,-32 936.3173,-32 944.744,-32"/>
<polygon fill="#191970" stroke="#191970" points="919.164,-28.5001 909.1639,-32 919.1639,-35.5001 919.164,-28.5001"/>
</g>
</g>
</svg>
