<?xml version="1.0" encoding="UTF-8" standalone="no"?>
<!DOCTYPE svg PUBLIC "-//W3C//DTD SVG 1.1//EN"
 "http://www.w3.org/Graphics/SVG/1.1/DTD/svg11.dtd">
<!-- Generated by graphviz version 2.40.1 (20161225.0304)
 -->
<!-- Title: omc_CodegenCpp_lm__1263 Pages: 1 -->
<svg width="1850pt" height="110pt"
 viewBox="0.00 0.00 1850.00 110.00" xmlns="http://www.w3.org/2000/svg" xmlns:xlink="http://www.w3.org/1999/xlink">
<g id="graph0" class="graph" transform="scale(1 1) rotate(0) translate(4 106)">
<title>omc_CodegenCpp_lm__1263</title>
<polygon fill="#ffffff" stroke="transparent" points="-4,4 -4,-106 1846,-106 1846,4 -4,4"/>
<!-- Node325553 -->
<g id="node1" class="node">
<title>Node325553</title>
<polygon fill="#bfbfbf" stroke="#000000" points="0,-52 0,-71 145,-71 145,-52 0,-52"/>
<text text-anchor="middle" x="72.5" y="-59" font-family="Helvetica,sans-Serif" font-size="10.00" fill="#000000">omc_CodegenCpp_lm__1263</text>
</g>
<!-- Node325554 -->
<g id="node2" class="node">
<title>Node325554</title>
<g id="a_node2"><a xlink:href="../../d6/d8e/_codegen_cpp_8h.html#a732416e481640865a458e3ce7dc2afde" target="_top" xlink:title="omc_CodegenCpp_generateAlgloops\lSystemVariables">
<polygon fill="#ffffff" stroke="#000000" points="181,-46.5 181,-76.5 359,-76.5 359,-46.5 181,-46.5"/>
<text text-anchor="start" x="189" y="-64.5" font-family="Helvetica,sans-Serif" font-size="10.00" fill="#000000">omc_CodegenCpp_generateAlgloops</text>
<text text-anchor="middle" x="270" y="-53.5" font-family="Helvetica,sans-Serif" font-size="10.00" fill="#000000">SystemVariables</text>
</a>
</g>
</g>
<!-- Node325553&#45;&gt;Node325554 -->
<g id="edge1" class="edge">
<title>Node325553&#45;&gt;Node325554</title>
<path fill="none" stroke="#191970" d="M155.3267,-61.5C163.7062,-61.5 172.2428,-61.5 180.6865,-61.5"/>
<polygon fill="#191970" stroke="#191970" points="155.2003,-58.0001 145.2003,-61.5 155.2003,-65.0001 155.2003,-58.0001"/>
</g>
<!-- Node325555 -->
<g id="node3" class="node">
<title>Node325555</title>
<g id="a_node3"><a xlink:href="../../d0/df9/_codegen_cpp_8c.html#ad89a1a22590887b820bebdea8aa451ee" target="_top" xlink:title="omc_CodegenCpp_fun__814">
<polygon fill="#ffffff" stroke="#000000" points="747,-52 747,-71 890,-71 890,-52 747,-52"/>
<text text-anchor="middle" x="818.5" y="-59" font-family="Helvetica,sans-Serif" font-size="10.00" fill="#000000">omc_CodegenCpp_fun__814</text>
</a>
</g>
</g>
<!-- Node325554&#45;&gt;Node325555 -->
<g id="edge2" class="edge">
<title>Node325554&#45;&gt;Node325555</title>
<path fill="none" stroke="#191970" d="M369.0435,-61.5C477.8658,-61.5 650.0015,-61.5 746.6105,-61.5"/>
<polygon fill="#191970" stroke="#191970" points="369.041,-58.0001 359.041,-61.5 369.041,-65.0001 369.041,-58.0001"/>
</g>
<!-- Node325563 -->
<g id="node11" class="node">
<title>Node325563</title>
<g id="a_node11"><a xlink:href="../../d0/df9/_codegen_cpp_8c.html#a067be58afde37c7eff4905f54ce9c278" target="_top" xlink:title="omc_CodegenCpp_lm__807">
<polygon fill="#ffffff" stroke="#000000" points="395,-33 395,-52 535,-52 535,-33 395,-33"/>
<text text-anchor="middle" x="465" y="-40" font-family="Helvetica,sans-Serif" font-size="10.00" fill="#000000">omc_CodegenCpp_lm__807</text>
</a>
</g>
</g>
<!-- Node325554&#45;&gt;Node325563 -->
<g id="edge10" class="edge">
<title>Node325554&#45;&gt;Node325563</title>
<path fill="none" stroke="#191970" d="M369.3179,-51.8229C377.9217,-50.9846 386.5066,-50.1481 394.8045,-49.3396"/>
<polygon fill="#191970" stroke="#191970" points="368.8386,-48.3529 359.2252,-52.8063 369.5175,-55.3199 368.8386,-48.3529"/>
</g>
<!-- Node325556 -->
<g id="node4" class="node">
<title>Node325556</title>
<g id="a_node4"><a xlink:href="../../d6/d8e/_codegen_cpp_8h.html#a5d7c1c02482548c6bf595b53a52332d6" target="_top" xlink:title="omc_CodegenCpp_generateClass\lDeclarationCode">
<polygon fill="#ffffff" stroke="#000000" points="926,-46.5 926,-76.5 1092,-76.5 1092,-46.5 926,-46.5"/>
<text text-anchor="start" x="934" y="-64.5" font-family="Helvetica,sans-Serif" font-size="10.00" fill="#000000">omc_CodegenCpp_generateClass</text>
<text text-anchor="middle" x="1009" y="-53.5" font-family="Helvetica,sans-Serif" font-size="10.00" fill="#000000">DeclarationCode</text>
</a>
</g>
</g>
<!-- Node325555&#45;&gt;Node325556 -->
<g id="edge3" class="edge">
<title>Node325555&#45;&gt;Node325556</title>
<path fill="none" stroke="#191970" d="M900.4156,-61.5C908.8232,-61.5 917.3722,-61.5 925.7936,-61.5"/>
<polygon fill="#191970" stroke="#191970" points="900.2485,-58.0001 890.2484,-61.5 900.2484,-65.0001 900.2485,-58.0001"/>
</g>
<!-- Node325557 -->
<g id="node5" class="node">
<title>Node325557</title>
<g id="a_node5"><a xlink:href="../../d6/d8e/_codegen_cpp_8h.html#af93ea1c3c866e17120b77bbc7a6c0433" target="_top" xlink:title="boxptr_CodegenCpp_generate\lClassDeclarationCode">
<polygon fill="#ffffff" stroke="#000000" points="1128,-71.5 1128,-101.5 1277,-101.5 1277,-71.5 1128,-71.5"/>
<text text-anchor="start" x="1136" y="-89.5" font-family="Helvetica,sans-Serif" font-size="10.00" fill="#000000">boxptr_CodegenCpp_generate</text>
<text text-anchor="middle" x="1202.5" y="-78.5" font-family="Helvetica,sans-Serif" font-size="10.00" fill="#000000">ClassDeclarationCode</text>
</a>
</g>
</g>
<!-- Node325556&#45;&gt;Node325557 -->
<g id="edge4" class="edge">
<title>Node325556&#45;&gt;Node325557</title>
<path fill="none" stroke="#191970" d="M1102.2596,-73.549C1110.8706,-74.6616 1119.5185,-75.7789 1127.93,-76.8656"/>
<polygon fill="#191970" stroke="#191970" points="1102.5505,-70.0576 1092.1844,-72.2473 1101.6535,-76.9999 1102.5505,-70.0576"/>
</g>
<!-- Node325558 -->
<g id="node6" class="node">
<title>Node325558</title>
<g id="a_node6"><a xlink:href="../../d6/d8e/_codegen_cpp_8h.html#ad1f2c2b6ce251e824c45cde3a79307da" target="_top" xlink:title="omc_CodegenCpp_simulation\lHeaderFile">
<polygon fill="#ffffff" stroke="#000000" points="1129,-22.5 1129,-52.5 1276,-52.5 1276,-22.5 1129,-22.5"/>
<text text-anchor="start" x="1137" y="-40.5" font-family="Helvetica,sans-Serif" font-size="10.00" fill="#000000">omc_CodegenCpp_simulation</text>
<text text-anchor="middle" x="1202.5" y="-29.5" font-family="Helvetica,sans-Serif" font-size="10.00" fill="#000000">HeaderFile</text>
</a>
</g>
</g>
<!-- Node325556&#45;&gt;Node325558 -->
<g id="edge5" class="edge">
<title>Node325556&#45;&gt;Node325558</title>
<path fill="none" stroke="#191970" d="M1102.233,-49.9362C1111.1626,-48.8287 1120.1323,-47.7162 1128.8371,-46.6365"/>
<polygon fill="#191970" stroke="#191970" points="1101.6775,-46.4782 1092.1844,-51.1826 1102.5392,-53.425 1101.6775,-46.4782"/>
</g>
<!-- Node325559 -->
<g id="node7" class="node">
<title>Node325559</title>
<g id="a_node7"><a xlink:href="../../d6/d8e/_codegen_cpp_8h.html#a7457b9a8fab6b86f989c15710f1c111a" target="_top" xlink:title="boxptr_CodegenCpp_simulation\lHeaderFile">
<polygon fill="#ffffff" stroke="#000000" points="1313,-44.5 1313,-74.5 1468,-74.5 1468,-44.5 1313,-44.5"/>
<text text-anchor="start" x="1321" y="-62.5" font-family="Helvetica,sans-Serif" font-size="10.00" fill="#000000">boxptr_CodegenCpp_simulation</text>
<text text-anchor="middle" x="1390.5" y="-51.5" font-family="Helvetica,sans-Serif" font-size="10.00" fill="#000000">HeaderFile</text>
</a>
</g>
</g>
<!-- Node325558&#45;&gt;Node325559 -->
<g id="edge6" class="edge">
<title>Node325558&#45;&gt;Node325559</title>
<path fill="none" stroke="#191970" d="M1286.2231,-47.2974C1295.1068,-48.337 1304.1144,-49.391 1312.9234,-50.4219"/>
<polygon fill="#191970" stroke="#191970" points="1286.602,-43.8179 1276.263,-46.1318 1285.7884,-50.7705 1286.602,-43.8179"/>
</g>
<!-- Node325560 -->
<g id="node8" class="node">
<title>Node325560</title>
<g id="a_node8"><a xlink:href="../../d0/df9/_codegen_cpp_8c.html#aa7c7709a5cda769632291bb6f29d8b29" target="_top" xlink:title="omc_CodegenCpp_fun__46">
<polygon fill="#ffffff" stroke="#000000" points="1322,-6 1322,-25 1459,-25 1459,-6 1322,-6"/>
<text text-anchor="middle" x="1390.5" y="-13" font-family="Helvetica,sans-Serif" font-size="10.00" fill="#000000">omc_CodegenCpp_fun__46</text>
</a>
</g>
</g>
<!-- Node325558&#45;&gt;Node325560 -->
<g id="edge7" class="edge">
<title>Node325558&#45;&gt;Node325560</title>
<path fill="none" stroke="#191970" d="M1286.206,-27.7046C1298.1258,-26.3098 1310.2691,-24.8887 1321.8567,-23.5327"/>
<polygon fill="#191970" stroke="#191970" points="1285.7884,-24.2295 1276.263,-28.8682 1286.602,-31.1821 1285.7884,-24.2295"/>
</g>
<!-- Node325561 -->
<g id="node9" class="node">
<title>Node325561</title>
<g id="a_node9"><a xlink:href="../../d6/d8e/_codegen_cpp_8h.html#a54676ae5ee46975a3ec1566a9856625c" target="_top" xlink:title="omc_CodegenCpp_translate\lModel">
<polygon fill="#ffffff" stroke="#000000" points="1504,-.5 1504,-30.5 1644,-30.5 1644,-.5 1504,-.5"/>
<text text-anchor="start" x="1512" y="-18.5" font-family="Helvetica,sans-Serif" font-size="10.00" fill="#000000">omc_CodegenCpp_translate</text>
<text text-anchor="middle" x="1574" y="-7.5" font-family="Helvetica,sans-Serif" font-size="10.00" fill="#000000">Model</text>
</a>
</g>
</g>
<!-- Node325560&#45;&gt;Node325561 -->
<g id="edge8" class="edge">
<title>Node325560&#45;&gt;Node325561</title>
<path fill="none" stroke="#191970" d="M1469.164,-15.5C1480.7326,-15.5 1492.5846,-15.5 1503.9639,-15.5"/>
<polygon fill="#191970" stroke="#191970" points="1469.0896,-12.0001 1459.0896,-15.5 1469.0895,-19.0001 1469.0896,-12.0001"/>
</g>
<!-- Node325562 -->
<g id="node10" class="node">
<title>Node325562</title>
<g id="a_node10"><a xlink:href="../../d5/d4c/_codegen_f_m_u_cpp_8h.html#a1fc774045fbfd7b6dc9872f8b61ccdad" target="_top" xlink:title="omc_CodegenFMUCpp_translate\lModel">
<polygon fill="#ffffff" stroke="#000000" points="1680,-.5 1680,-30.5 1842,-30.5 1842,-.5 1680,-.5"/>
<text text-anchor="start" x="1688" y="-18.5" font-family="Helvetica,sans-Serif" font-size="10.00" fill="#000000">omc_CodegenFMUCpp_translate</text>
<text text-anchor="middle" x="1761" y="-7.5" font-family="Helvetica,sans-Serif" font-size="10.00" fill="#000000">Model</text>
</a>
</g>
</g>
<!-- Node325561&#45;&gt;Node325562 -->
<g id="edge9" class="edge">
<title>Node325561&#45;&gt;Node325562</title>
<path fill="none" stroke="#191970" d="M1654.3393,-15.5C1662.7557,-15.5 1671.3173,-15.5 1679.744,-15.5"/>
<polygon fill="#191970" stroke="#191970" points="1654.164,-12.0001 1644.1639,-15.5 1654.1639,-19.0001 1654.164,-12.0001"/>
</g>
<!-- Node325564 -->
<g id="node12" class="node">
<title>Node325564</title>
<g id="a_node12"><a xlink:href="../../d0/df9/_codegen_cpp_8c.html#afa3fbb4ed3a755a3464db7ed8e045e42" target="_top" xlink:title="omc_CodegenCpp_lm__808">
<polygon fill="#ffffff" stroke="#000000" points="571,-33 571,-52 711,-52 711,-33 571,-33"/>
<text text-anchor="middle" x="641" y="-40" font-family="Helvetica,sans-Serif" font-size="10.00" fill="#000000">omc_CodegenCpp_lm__808</text>
</a>
</g>
</g>
<!-- Node325563&#45;&gt;Node325564 -->
<g id="edge11" class="edge">
<title>Node325563&#45;&gt;Node325564</title>
<path fill="none" stroke="#191970" d="M545.1006,-42.5C553.7058,-42.5 562.4124,-42.5 570.888,-42.5"/>
<polygon fill="#191970" stroke="#191970" points="545.0656,-39.0001 535.0656,-42.5 545.0655,-46.0001 545.0656,-39.0001"/>
</g>
<!-- Node325564&#45;&gt;Node325555 -->
<g id="edge12" class="edge">
<title>Node325564&#45;&gt;Node325555</title>
<path fill="none" stroke="#191970" d="M721.1341,-51.0777C729.6956,-51.9942 738.365,-52.9222 746.8196,-53.8272"/>
<polygon fill="#191970" stroke="#191970" points="721.4684,-47.5936 711.1527,-50.0093 720.7233,-54.5539 721.4684,-47.5936"/>
</g>
</g>
</svg>
