<?xml version="1.0" encoding="UTF-8" standalone="no"?>
<!DOCTYPE svg PUBLIC "-//W3C//DTD SVG 1.1//EN"
 "http://www.w3.org/Graphics/SVG/1.1/DTD/svg11.dtd">
<!-- Generated by graphviz version 2.40.1 (20161225.0304)
 -->
<!-- Title: omc_CodegenCpp_fun__1679 Pages: 1 -->
<svg width="1659pt" height="537pt"
 viewBox="0.00 0.00 1659.00 537.00" xmlns="http://www.w3.org/2000/svg" xmlns:xlink="http://www.w3.org/1999/xlink">
<g id="graph0" class="graph" transform="scale(1 1) rotate(0) translate(4 533)">
<title>omc_CodegenCpp_fun__1679</title>
<polygon fill="#ffffff" stroke="transparent" points="-4,4 -4,-533 1655,-533 1655,4 -4,4"/>
<!-- Node237284 -->
<g id="node1" class="node">
<title>Node237284</title>
<polygon fill="#bfbfbf" stroke="#000000" points="0,-42 0,-72 116,-72 116,-42 0,-42"/>
<text text-anchor="start" x="8" y="-60" font-family="Helvetica,sans-Serif" font-size="10.00" fill="#000000">omc_CodegenCpp_fun</text>
<text text-anchor="middle" x="58" y="-49" font-family="Helvetica,sans-Serif" font-size="10.00" fill="#000000">__1679</text>
</g>
<!-- Node237285 -->
<g id="node2" class="node">
<title>Node237285</title>
<g id="a_node2"><a xlink:href="../../df/da2/_codegen_cpp_common_8c.html#a57b75a0e73aab69b82dee78fedb8de65" target="_top" xlink:title="omc_CodegenCppCommon_cref">
<polygon fill="#ffffff" stroke="#000000" points="152,-66.5 152,-85.5 311,-85.5 311,-66.5 152,-66.5"/>
<text text-anchor="middle" x="231.5" y="-73.5" font-family="Helvetica,sans-Serif" font-size="10.00" fill="#000000">omc_CodegenCppCommon_cref</text>
</a>
</g>
</g>
<!-- Node237284&#45;&gt;Node237285 -->
<g id="edge1" class="edge">
<title>Node237284&#45;&gt;Node237285</title>
<path fill="none" stroke="#191970" d="M116.2556,-63.3796C124.4635,-64.2784 133.0541,-65.2192 141.6853,-66.1644"/>
<polygon fill="#191970" stroke="#191970" points="141.494,-69.6643 151.8156,-67.2738 142.256,-62.7059 141.494,-69.6643"/>
</g>
<!-- Node237286 -->
<g id="node3" class="node">
<title>Node237286</title>
<g id="a_node3"><a xlink:href="../../d7/d52/_tpl_8c.html#a1038a57834f028b49f38adc4d5fcd049" target="_top" xlink:title="omc_Tpl_writeTok">
<polygon fill="#ffffff" stroke="#000000" points="1405,-104.5 1405,-123.5 1502,-123.5 1502,-104.5 1405,-104.5"/>
<text text-anchor="middle" x="1453.5" y="-111.5" font-family="Helvetica,sans-Serif" font-size="10.00" fill="#000000">omc_Tpl_writeTok</text>
</a>
</g>
</g>
<!-- Node237284&#45;&gt;Node237286 -->
<g id="edge36" class="edge">
<title>Node237284&#45;&gt;Node237286</title>
<path fill="none" stroke="#191970" d="M116.1561,-52.008C186.859,-46.3786 309.8389,-38 415.5,-38 415.5,-38 415.5,-38 1107.5,-38 1216.2239,-38 1243.6615,-50.0801 1349,-77 1373.5175,-83.2656 1400.4168,-92.8555 1420.7836,-100.7021"/>
<polygon fill="#191970" stroke="#191970" points="1419.6301,-104.009 1430.2181,-104.3918 1422.1798,-97.4899 1419.6301,-104.009"/>
</g>
<!-- Node237297 -->
<g id="node14" class="node">
<title>Node237297</title>
<g id="a_node14"><a xlink:href="../../d7/d52/_tpl_8c.html#ada57037d1430be632aea182a946c3245" target="_top" xlink:title="omc_Tpl_writeStr">
<polygon fill="#ffffff" stroke="#000000" points="1558,-423.5 1558,-442.5 1651,-442.5 1651,-423.5 1558,-423.5"/>
<text text-anchor="middle" x="1604.5" y="-430.5" font-family="Helvetica,sans-Serif" font-size="10.00" fill="#000000">omc_Tpl_writeStr</text>
</a>
</g>
</g>
<!-- Node237284&#45;&gt;Node237297 -->
<g id="edge37" class="edge">
<title>Node237284&#45;&gt;Node237297</title>
<path fill="none" stroke="#191970" d="M61.3583,-72.1697C80.2167,-152.9596 180.6105,-529 415.5,-529 415.5,-529 415.5,-529 1280.5,-529 1394.5092,-529 1522.1315,-473.6803 1577.0018,-447.0283"/>
<polygon fill="#191970" stroke="#191970" points="1578.6562,-450.115 1586.0798,-442.5558 1575.5626,-443.8357 1578.6562,-450.115"/>
</g>
<!-- Node237298 -->
<g id="node15" class="node">
<title>Node237298</title>
<g id="a_node15"><a xlink:href="../../d2/d57/build_2include_2omc_2c_2meta_2meta__modelica__builtin_8h.html#a751bf2360cb3df6de97811998890b7ea" target="_top" xlink:title="intString">
<polygon fill="#ffffff" stroke="#000000" points="1578,-312.5 1578,-331.5 1631,-331.5 1631,-312.5 1578,-312.5"/>
<text text-anchor="middle" x="1604.5" y="-319.5" font-family="Helvetica,sans-Serif" font-size="10.00" fill="#000000">intString</text>
</a>
</g>
</g>
<!-- Node237284&#45;&gt;Node237298 -->
<g id="edge38" class="edge">
<title>Node237284&#45;&gt;Node237298</title>
<path fill="none" stroke="#191970" d="M116.0658,-41.9494C186.4241,-25.0619 308.8123,0 415.5,0 415.5,0 415.5,0 1280.5,0 1395.8393,0 1441.5176,-12.3819 1522,-95 1580.2846,-154.8313 1597.8157,-258.9931 1602.7259,-302.27"/>
<polygon fill="#191970" stroke="#191970" points="1599.2565,-302.7482 1603.76,-312.3382 1606.2199,-302.0329 1599.2565,-302.7482"/>
</g>
<!-- Node237285&#45;&gt;Node237286 -->
<g id="edge2" class="edge">
<title>Node237285&#45;&gt;Node237286</title>
<path fill="none" stroke="#191970" d="M311.2561,-76C383.6062,-76 493.207,-76 588.5,-76 588.5,-76 588.5,-76 1107.5,-76 1208.9521,-76 1326.1422,-92.3422 1394.7984,-103.5926"/>
<polygon fill="#191970" stroke="#191970" points="1394.5412,-107.0977 1404.9793,-105.282 1395.6872,-100.1921 1394.5412,-107.0977"/>
</g>
<!-- Node237287 -->
<g id="node4" class="node">
<title>Node237287</title>
<g id="a_node4"><a xlink:href="../../df/da2/_codegen_cpp_common_8c.html#a8e300448429575b7e97d2efc9c2398c0" target="_top" xlink:title="omc_CodegenCppCommon\l_crefToCStr">
<polygon fill="#ffffff" stroke="#000000" points="347,-285 347,-315 484,-315 484,-285 347,-285"/>
<text text-anchor="start" x="355" y="-303" font-family="Helvetica,sans-Serif" font-size="10.00" fill="#000000">omc_CodegenCppCommon</text>
<text text-anchor="middle" x="415.5" y="-292" font-family="Helvetica,sans-Serif" font-size="10.00" fill="#000000">_crefToCStr</text>
</a>
</g>
</g>
<!-- Node237285&#45;&gt;Node237287 -->
<g id="edge3" class="edge">
<title>Node237285&#45;&gt;Node237287</title>
<path fill="none" stroke="#191970" d="M239.4063,-85.625C266.5954,-118.7248 356.7551,-228.4844 396.4533,-276.8127"/>
<polygon fill="#191970" stroke="#191970" points="393.9817,-279.3179 403.0336,-284.8236 399.3908,-274.8747 393.9817,-279.3179"/>
</g>
<!-- Node237287&#45;&gt;Node237286 -->
<g id="edge27" class="edge">
<title>Node237287&#45;&gt;Node237286</title>
<path fill="none" stroke="#191970" d="M427.8375,-284.886C445.9968,-263.5151 481.9117,-224.4611 520,-201 617.1368,-141.167 647.4143,-114 761.5,-114 761.5,-114 761.5,-114 1107.5,-114 1208.3457,-114 1325.7247,-114 1394.5828,-114"/>
<polygon fill="#191970" stroke="#191970" points="1394.7949,-117.5001 1404.7949,-114 1394.7948,-110.5001 1394.7949,-117.5001"/>
</g>
<!-- Node237288 -->
<g id="node5" class="node">
<title>Node237288</title>
<g id="a_node5"><a xlink:href="../../d3/db3/_flags_8c.html#a34e6591659b1578969141a635ff24042" target="_top" xlink:title="omc_Flags_isSet">
<polygon fill="#ffffff" stroke="#000000" points="542.5,-481.5 542.5,-500.5 634.5,-500.5 634.5,-481.5 542.5,-481.5"/>
<text text-anchor="middle" x="588.5" y="-488.5" font-family="Helvetica,sans-Serif" font-size="10.00" fill="#000000">omc_Flags_isSet</text>
</a>
</g>
</g>
<!-- Node237287&#45;&gt;Node237288 -->
<g id="edge4" class="edge">
<title>Node237287&#45;&gt;Node237288</title>
<path fill="none" stroke="#191970" d="M421.0158,-315.3213C433.5185,-347.9407 467.103,-424.7181 520,-467 525.2907,-471.229 531.3794,-474.7401 537.6978,-477.6484"/>
<polygon fill="#191970" stroke="#191970" points="536.4733,-480.9291 547.0532,-481.4915 539.1332,-474.4542 536.4733,-480.9291"/>
</g>
<!-- Node237291 -->
<g id="node8" class="node">
<title>Node237291</title>
<g id="a_node8"><a xlink:href="../../df/da2/_codegen_cpp_common_8c.html#a47d192320ab9898e0f2e95ce42710b87" target="_top" xlink:title="omc_CodegenCppCommon\l_fun__85">
<polygon fill="#ffffff" stroke="#000000" points="520,-263 520,-293 657,-293 657,-263 520,-263"/>
<text text-anchor="start" x="528" y="-281" font-family="Helvetica,sans-Serif" font-size="10.00" fill="#000000">omc_CodegenCppCommon</text>
<text text-anchor="middle" x="588.5" y="-270" font-family="Helvetica,sans-Serif" font-size="10.00" fill="#000000">_fun__85</text>
</a>
</g>
</g>
<!-- Node237287&#45;&gt;Node237291 -->
<g id="edge7" class="edge">
<title>Node237287&#45;&gt;Node237291</title>
<path fill="none" stroke="#191970" d="M484.3713,-291.2418C492.7692,-290.1739 501.3987,-289.0765 509.9246,-287.9922"/>
<polygon fill="#191970" stroke="#191970" points="510.3871,-291.4617 519.8657,-286.7281 509.504,-284.5176 510.3871,-291.4617"/>
</g>
<!-- Node237287&#45;&gt;Node237297 -->
<g id="edge26" class="edge">
<title>Node237287&#45;&gt;Node237297</title>
<path fill="none" stroke="#191970" d="M428.0428,-315.0227C446.1779,-335.7481 481.7631,-372.8315 520,-393 617.8224,-444.5978 650.9036,-453 761.5,-453 761.5,-453 761.5,-453 1280.5,-453 1374.384,-453 1483.2803,-444.5309 1547.8953,-438.615"/>
<polygon fill="#191970" stroke="#191970" points="1548.2424,-442.0979 1557.8763,-437.6891 1547.5957,-435.1278 1548.2424,-442.0979"/>
</g>
<!-- Node237303 -->
<g id="node20" class="node">
<title>Node237303</title>
<g id="a_node20"><a xlink:href="../../d7/d52/_tpl_8c.html#a7e5a397e973cf3de37af50d58cbb789f" target="_top" xlink:title="omc_Tpl_writeText">
<polygon fill="#ffffff" stroke="#000000" points="538.5,-312.5 538.5,-331.5 638.5,-331.5 638.5,-312.5 538.5,-312.5"/>
<text text-anchor="middle" x="588.5" y="-319.5" font-family="Helvetica,sans-Serif" font-size="10.00" fill="#000000">omc_Tpl_writeText</text>
</a>
</g>
</g>
<!-- Node237287&#45;&gt;Node237303 -->
<g id="edge28" class="edge">
<title>Node237287&#45;&gt;Node237303</title>
<path fill="none" stroke="#191970" d="M484.3713,-308.7582C498.8535,-310.5999 514.0242,-312.5291 528.165,-314.3273"/>
<polygon fill="#191970" stroke="#191970" points="527.8935,-317.8209 538.2552,-315.6105 528.7766,-310.8768 527.8935,-317.8209"/>
</g>
<!-- Node237304 -->
<g id="node21" class="node">
<title>Node237304</title>
<g id="a_node21"><a xlink:href="../../df/da2/_codegen_cpp_common_8c.html#a6eb83bc845be4e3c0cbadeb6cb9d4754" target="_top" xlink:title="omc_CodegenCppCommon\l_fun__86">
<polygon fill="#ffffff" stroke="#000000" points="520,-210 520,-240 657,-240 657,-210 520,-210"/>
<text text-anchor="start" x="528" y="-228" font-family="Helvetica,sans-Serif" font-size="10.00" fill="#000000">omc_CodegenCppCommon</text>
<text text-anchor="middle" x="588.5" y="-217" font-family="Helvetica,sans-Serif" font-size="10.00" fill="#000000">_fun__86</text>
</a>
</g>
</g>
<!-- Node237287&#45;&gt;Node237304 -->
<g id="edge29" class="edge">
<title>Node237287&#45;&gt;Node237304</title>
<path fill="none" stroke="#191970" d="M449.3321,-284.9623C469.7637,-275.9169 496.3419,-264.2144 520,-254 527.5019,-250.7611 535.4801,-247.3516 543.2407,-244.0538"/>
<polygon fill="#191970" stroke="#191970" points="544.7122,-247.2316 552.5525,-240.1056 541.9796,-240.787 544.7122,-247.2316"/>
</g>
<!-- Node237289 -->
<g id="node6" class="node">
<title>Node237289</title>
<g id="a_node6"><a xlink:href="../../d3/db3/_flags_8c.html#a760d66f53b65ac257876ca0f6308f09f" target="_top" xlink:title="omc_Flags_loadFlags">
<polygon fill="#ffffff" stroke="#000000" points="705.5,-481.5 705.5,-500.5 817.5,-500.5 817.5,-481.5 705.5,-481.5"/>
<text text-anchor="middle" x="761.5" y="-488.5" font-family="Helvetica,sans-Serif" font-size="10.00" fill="#000000">omc_Flags_loadFlags</text>
</a>
</g>
</g>
<!-- Node237288&#45;&gt;Node237289 -->
<g id="edge5" class="edge">
<title>Node237288&#45;&gt;Node237289</title>
<path fill="none" stroke="#191970" d="M634.8608,-491C653.4407,-491 675.1953,-491 695.3799,-491"/>
<polygon fill="#191970" stroke="#191970" points="695.4532,-494.5001 705.4532,-491 695.4532,-487.5001 695.4532,-494.5001"/>
</g>
<!-- Node237290 -->
<g id="node7" class="node">
<title>Node237290</title>
<g id="a_node7"><a xlink:href="../../da/d72/_compiler_2boot_2build_2list_8c.html#a3ec1ee3a5ff53be9af368e290be09182" target="_top" xlink:title="omc_List_fold">
<polygon fill="#ffffff" stroke="#000000" points="896,-481.5 896,-500.5 973,-500.5 973,-481.5 896,-481.5"/>
<text text-anchor="middle" x="934.5" y="-488.5" font-family="Helvetica,sans-Serif" font-size="10.00" fill="#000000">omc_List_fold</text>
</a>
</g>
</g>
<!-- Node237289&#45;&gt;Node237290 -->
<g id="edge6" class="edge">
<title>Node237289&#45;&gt;Node237290</title>
<path fill="none" stroke="#191970" d="M817.6681,-491C839.6281,-491 864.5744,-491 885.7606,-491"/>
<polygon fill="#191970" stroke="#191970" points="885.8294,-494.5001 895.8294,-491 885.8294,-487.5001 885.8294,-494.5001"/>
</g>
<!-- Node237292 -->
<g id="node9" class="node">
<title>Node237292</title>
<g id="a_node9"><a xlink:href="../../df/da2/_codegen_cpp_common_8c.html#a3adf051f8d1ea480a9623f5101c09677" target="_top" xlink:title="omc_CodegenCppCommon\l_subscriptsToCStr">
<polygon fill="#ffffff" stroke="#000000" points="693,-263 693,-293 830,-293 830,-263 693,-263"/>
<text text-anchor="start" x="701" y="-281" font-family="Helvetica,sans-Serif" font-size="10.00" fill="#000000">omc_CodegenCppCommon</text>
<text text-anchor="middle" x="761.5" y="-270" font-family="Helvetica,sans-Serif" font-size="10.00" fill="#000000">_subscriptsToCStr</text>
</a>
</g>
</g>
<!-- Node237291&#45;&gt;Node237292 -->
<g id="edge8" class="edge">
<title>Node237291&#45;&gt;Node237292</title>
<path fill="none" stroke="#191970" d="M657.3713,-278C665.678,-278 674.2111,-278 682.6466,-278"/>
<polygon fill="#191970" stroke="#191970" points="682.8657,-281.5001 692.8657,-278 682.8657,-274.5001 682.8657,-281.5001"/>
</g>
<!-- Node237293 -->
<g id="node10" class="node">
<title>Node237293</title>
<g id="a_node10"><a xlink:href="../../df/da2/_codegen_cpp_common_8c.html#a6d25301ad054a2567ece9822ff214d46" target="_top" xlink:title="omc_CodegenCppCommon\l_fun__41">
<polygon fill="#ffffff" stroke="#000000" points="866,-263 866,-293 1003,-293 1003,-263 866,-263"/>
<text text-anchor="start" x="874" y="-281" font-family="Helvetica,sans-Serif" font-size="10.00" fill="#000000">omc_CodegenCppCommon</text>
<text text-anchor="middle" x="934.5" y="-270" font-family="Helvetica,sans-Serif" font-size="10.00" fill="#000000">_fun__41</text>
</a>
</g>
</g>
<!-- Node237292&#45;&gt;Node237293 -->
<g id="edge9" class="edge">
<title>Node237292&#45;&gt;Node237293</title>
<path fill="none" stroke="#191970" d="M830.3713,-278C838.678,-278 847.2111,-278 855.6466,-278"/>
<polygon fill="#191970" stroke="#191970" points="855.8657,-281.5001 865.8657,-278 855.8657,-274.5001 855.8657,-281.5001"/>
</g>
<!-- Node237293&#45;&gt;Node237286 -->
<g id="edge10" class="edge">
<title>Node237293&#45;&gt;Node237286</title>
<path fill="none" stroke="#191970" d="M1003.2016,-279.8573C1052.2538,-279.4438 1119.3128,-275.3011 1176,-259 1278.1455,-229.6267 1386.1414,-160.5347 1431.4622,-129.5326"/>
<polygon fill="#191970" stroke="#191970" points="1433.6765,-132.2569 1439.9143,-123.6929 1429.6974,-126.4978 1433.6765,-132.2569"/>
</g>
<!-- Node237294 -->
<g id="node11" class="node">
<title>Node237294</title>
<g id="a_node11"><a xlink:href="../../d7/d52/_tpl_8c.html#a79ae8e0232bfdb080d90e9f7890dc199" target="_top" xlink:title="omc_Tpl_pushIter">
<polygon fill="#ffffff" stroke="#000000" points="1060,-230.5 1060,-249.5 1155,-249.5 1155,-230.5 1060,-230.5"/>
<text text-anchor="middle" x="1107.5" y="-237.5" font-family="Helvetica,sans-Serif" font-size="10.00" fill="#000000">omc_Tpl_pushIter</text>
</a>
</g>
</g>
<!-- Node237293&#45;&gt;Node237294 -->
<g id="edge11" class="edge">
<title>Node237293&#45;&gt;Node237294</title>
<path fill="none" stroke="#191970" d="M1002.8742,-262.9814C1020.0029,-259.219 1038.1244,-255.2386 1054.3863,-251.6666"/>
<polygon fill="#191970" stroke="#191970" points="1055.2296,-255.0649 1064.2458,-249.5009 1053.7277,-248.2279 1055.2296,-255.0649"/>
</g>
<!-- Node237295 -->
<g id="node12" class="node">
<title>Node237295</title>
<g id="a_node12"><a xlink:href="../../df/da2/_codegen_cpp_common_8c.html#a3cdec712b90369aceea0b9e9f4d0548e" target="_top" xlink:title="omc_CodegenCppCommon\l_lm__39">
<polygon fill="#ffffff" stroke="#000000" points="1039,-307 1039,-337 1176,-337 1176,-307 1039,-307"/>
<text text-anchor="start" x="1047" y="-325" font-family="Helvetica,sans-Serif" font-size="10.00" fill="#000000">omc_CodegenCppCommon</text>
<text text-anchor="middle" x="1107.5" y="-314" font-family="Helvetica,sans-Serif" font-size="10.00" fill="#000000">_lm__39</text>
</a>
</g>
</g>
<!-- Node237293&#45;&gt;Node237295 -->
<g id="edge12" class="edge">
<title>Node237293&#45;&gt;Node237295</title>
<path fill="none" stroke="#191970" d="M993.5529,-293.0192C1008.0864,-296.7156 1023.7732,-300.7053 1038.7222,-304.5074"/>
<polygon fill="#191970" stroke="#191970" points="1037.8655,-307.9009 1048.4197,-306.9738 1039.591,-301.1168 1037.8655,-307.9009"/>
</g>
<!-- Node237301 -->
<g id="node18" class="node">
<title>Node237301</title>
<g id="a_node18"><a xlink:href="../../d7/d52/_tpl_8c.html#abda700a6d3553ffecd4d194dea81a179" target="_top" xlink:title="omc_Tpl_popIter">
<polygon fill="#ffffff" stroke="#000000" points="1063,-192.5 1063,-211.5 1152,-211.5 1152,-192.5 1063,-192.5"/>
<text text-anchor="middle" x="1107.5" y="-199.5" font-family="Helvetica,sans-Serif" font-size="10.00" fill="#000000">omc_Tpl_popIter</text>
</a>
</g>
</g>
<!-- Node237293&#45;&gt;Node237301 -->
<g id="edge22" class="edge">
<title>Node237293&#45;&gt;Node237301</title>
<path fill="none" stroke="#191970" d="M958.6349,-262.7626C979.3308,-250.2093 1010.2701,-232.6406 1039,-221 1044.8549,-218.6277 1051.1071,-216.4445 1057.3636,-214.4696"/>
<polygon fill="#191970" stroke="#191970" points="1058.5672,-217.7628 1067.1423,-211.5404 1056.5585,-211.0572 1058.5672,-217.7628"/>
</g>
<!-- Node237302 -->
<g id="node19" class="node">
<title>Node237302</title>
<g id="a_node19"><a xlink:href="../../df/da2/_codegen_cpp_common_8c.html#a6a6d0d0da3b64f58f8bbef7eda497b4f" target="_top" xlink:title="omc_CodegenCppCommon\l_lm__40">
<polygon fill="#ffffff" stroke="#000000" points="1039,-356 1039,-386 1176,-386 1176,-356 1039,-356"/>
<text text-anchor="start" x="1047" y="-374" font-family="Helvetica,sans-Serif" font-size="10.00" fill="#000000">omc_CodegenCppCommon</text>
<text text-anchor="middle" x="1107.5" y="-363" font-family="Helvetica,sans-Serif" font-size="10.00" fill="#000000">_lm__40</text>
</a>
</g>
</g>
<!-- Node237293&#45;&gt;Node237302 -->
<g id="edge23" class="edge">
<title>Node237293&#45;&gt;Node237302</title>
<path fill="none" stroke="#191970" d="M954.0361,-293.0304C974.3934,-308.1693 1007.6408,-331.4519 1039,-347 1042.581,-348.7755 1046.3261,-350.4794 1050.1398,-352.1023"/>
<polygon fill="#191970" stroke="#191970" points="1049.1232,-355.4662 1059.7064,-355.9639 1051.7435,-348.9751 1049.1232,-355.4662"/>
</g>
<!-- Node237296 -->
<g id="node13" class="node">
<title>Node237296</title>
<g id="a_node13"><a xlink:href="../../df/da2/_codegen_cpp_common_8c.html#a685e5f70584520279f3c8a07e4de9c3d" target="_top" xlink:title="omc_CodegenCppCommon\l_subscriptToCStr">
<polygon fill="#ffffff" stroke="#000000" points="1212,-307 1212,-337 1349,-337 1349,-307 1212,-307"/>
<text text-anchor="start" x="1220" y="-325" font-family="Helvetica,sans-Serif" font-size="10.00" fill="#000000">omc_CodegenCppCommon</text>
<text text-anchor="middle" x="1280.5" y="-314" font-family="Helvetica,sans-Serif" font-size="10.00" fill="#000000">_subscriptToCStr</text>
</a>
</g>
</g>
<!-- Node237295&#45;&gt;Node237296 -->
<g id="edge13" class="edge">
<title>Node237295&#45;&gt;Node237296</title>
<path fill="none" stroke="#191970" d="M1176.3713,-322C1184.678,-322 1193.2111,-322 1201.6466,-322"/>
<polygon fill="#191970" stroke="#191970" points="1201.8657,-325.5001 1211.8657,-322 1201.8657,-318.5001 1201.8657,-325.5001"/>
</g>
<!-- Node237300 -->
<g id="node17" class="node">
<title>Node237300</title>
<g id="a_node17"><a xlink:href="../../d7/d52/_tpl_8c.html#ae3c38d796bafc525ba51ed985d39c720" target="_top" xlink:title="omc_Tpl_nextIter">
<polygon fill="#ffffff" stroke="#000000" points="1234.5,-356.5 1234.5,-375.5 1326.5,-375.5 1326.5,-356.5 1234.5,-356.5"/>
<text text-anchor="middle" x="1280.5" y="-363.5" font-family="Helvetica,sans-Serif" font-size="10.00" fill="#000000">omc_Tpl_nextIter</text>
</a>
</g>
</g>
<!-- Node237295&#45;&gt;Node237300 -->
<g id="edge21" class="edge">
<title>Node237295&#45;&gt;Node237300</title>
<path fill="none" stroke="#191970" d="M1166.5529,-337.0192C1188.3398,-342.5604 1212.7184,-348.7607 1233.3179,-353.9999"/>
<polygon fill="#191970" stroke="#191970" points="1232.5447,-357.4146 1243.0989,-356.4876 1234.2702,-350.6306 1232.5447,-357.4146"/>
</g>
<!-- Node237296&#45;&gt;Node237286 -->
<g id="edge16" class="edge">
<title>Node237296&#45;&gt;Node237286</title>
<path fill="none" stroke="#191970" d="M1326.0332,-306.8873C1334.2396,-302.8714 1342.3029,-297.9496 1349,-292 1400.2272,-246.4903 1433.2301,-169.6556 1446.6527,-133.6834"/>
<polygon fill="#191970" stroke="#191970" points="1450.0772,-134.5057 1450.1882,-123.9115 1443.4947,-132.1242 1450.0772,-134.5057"/>
</g>
<!-- Node237296&#45;&gt;Node237297 -->
<g id="edge14" class="edge">
<title>Node237296&#45;&gt;Node237297</title>
<path fill="none" stroke="#191970" d="M1331.8791,-337.1178C1337.916,-339.9297 1343.7768,-343.2049 1349,-347 1370.0025,-362.2601 1362.7799,-379.5746 1385,-393 1434.4701,-422.8898 1500.8433,-431.5254 1547.6082,-433.5289"/>
<polygon fill="#191970" stroke="#191970" points="1547.7538,-437.0358 1557.8664,-433.876 1547.9906,-430.0398 1547.7538,-437.0358"/>
</g>
<!-- Node237296&#45;&gt;Node237298 -->
<g id="edge15" class="edge">
<title>Node237296&#45;&gt;Node237298</title>
<path fill="none" stroke="#191970" d="M1349.2121,-322C1415.945,-322 1514.7154,-322 1567.71,-322"/>
<polygon fill="#191970" stroke="#191970" points="1567.9858,-325.5001 1577.9857,-322 1567.9857,-318.5001 1567.9858,-325.5001"/>
</g>
<!-- Node237299 -->
<g id="node16" class="node">
<title>Node237299</title>
<g id="a_node16"><a xlink:href="../../df/da2/_codegen_cpp_common_8c.html#a49d5712369c4249a559db2fa124934d9" target="_top" xlink:title="omc_CodegenCppCommon\l_fun__43">
<polygon fill="#ffffff" stroke="#000000" points="1385,-353 1385,-383 1522,-383 1522,-353 1385,-353"/>
<text text-anchor="start" x="1393" y="-371" font-family="Helvetica,sans-Serif" font-size="10.00" fill="#000000">omc_CodegenCppCommon</text>
<text text-anchor="middle" x="1453.5" y="-360" font-family="Helvetica,sans-Serif" font-size="10.00" fill="#000000">_fun__43</text>
</a>
</g>
</g>
<!-- Node237296&#45;&gt;Node237299 -->
<g id="edge17" class="edge">
<title>Node237296&#45;&gt;Node237299</title>
<path fill="none" stroke="#191970" d="M1337.1467,-337.0621C1353.0599,-341.2934 1370.5095,-345.9332 1386.9433,-350.3029"/>
<polygon fill="#191970" stroke="#191970" points="1386.4581,-353.7954 1397.0217,-352.9826 1388.2569,-347.0304 1386.4581,-353.7954"/>
</g>
<!-- Node237299&#45;&gt;Node237287 -->
<g id="edge20" class="edge">
<title>Node237299&#45;&gt;Node237287</title>
<path fill="none" stroke="#191970" d="M1384.9427,-382.8711C1315.4016,-396.6406 1204.4938,-415 1107.5,-415 761.5,-415 761.5,-415 761.5,-415 642.2849,-415 511.2164,-352.7605 450.2558,-319.8572"/>
<polygon fill="#191970" stroke="#191970" points="451.8863,-316.7597 441.4329,-315.0342 448.5287,-322.9019 451.8863,-316.7597"/>
</g>
<!-- Node237299&#45;&gt;Node237297 -->
<g id="edge18" class="edge">
<title>Node237299&#45;&gt;Node237297</title>
<path fill="none" stroke="#191970" d="M1488.522,-383.0757C1514.0572,-394.0676 1548.3629,-408.835 1573.03,-419.4533"/>
<polygon fill="#191970" stroke="#191970" points="1571.7315,-422.7048 1582.3006,-423.444 1574.4993,-416.2752 1571.7315,-422.7048"/>
</g>
<!-- Node237299&#45;&gt;Node237298 -->
<g id="edge19" class="edge">
<title>Node237299&#45;&gt;Node237298</title>
<path fill="none" stroke="#191970" d="M1502.943,-352.9379C1524.1839,-346.4672 1548.561,-339.041 1568.1074,-333.0865"/>
<polygon fill="#191970" stroke="#191970" points="1569.3004,-336.3819 1577.8464,-330.1196 1567.2605,-329.6858 1569.3004,-336.3819"/>
</g>
<!-- Node237302&#45;&gt;Node237296 -->
<g id="edge24" class="edge">
<title>Node237302&#45;&gt;Node237296</title>
<path fill="none" stroke="#191970" d="M1160.8173,-355.8986C1178.7425,-350.8215 1198.9084,-345.1098 1217.5057,-339.8423"/>
<polygon fill="#191970" stroke="#191970" points="1218.691,-343.1443 1227.3587,-337.0516 1216.7834,-336.4093 1218.691,-343.1443"/>
</g>
<!-- Node237302&#45;&gt;Node237300 -->
<g id="edge25" class="edge">
<title>Node237302&#45;&gt;Node237300</title>
<path fill="none" stroke="#191970" d="M1176.3713,-369.0095C1192.219,-368.5515 1208.8913,-368.0696 1224.1362,-367.629"/>
<polygon fill="#191970" stroke="#191970" points="1224.54,-371.1189 1234.4347,-367.3314 1224.3378,-364.1218 1224.54,-371.1189"/>
</g>
<!-- Node237305 -->
<g id="node22" class="node">
<title>Node237305</title>
<g id="a_node22"><a xlink:href="../../df/da2/_codegen_cpp_common_8c.html#a7e0d7d39c3ab26a87c9a8916ff990207" target="_top" xlink:title="omc_CodegenCppCommon\l_subscriptsToCStrForArray">
<polygon fill="#ffffff" stroke="#000000" points="866,-194 866,-224 1003,-224 1003,-194 866,-194"/>
<text text-anchor="start" x="874" y="-212" font-family="Helvetica,sans-Serif" font-size="10.00" fill="#000000">omc_CodegenCppCommon</text>
<text text-anchor="middle" x="934.5" y="-201" font-family="Helvetica,sans-Serif" font-size="10.00" fill="#000000">_subscriptsToCStrForArray</text>
</a>
</g>
</g>
<!-- Node237304&#45;&gt;Node237305 -->
<g id="edge30" class="edge">
<title>Node237304&#45;&gt;Node237305</title>
<path fill="none" stroke="#191970" d="M657.2721,-221.8198C714.4664,-219.175 795.8917,-215.4096 855.7034,-212.6438"/>
<polygon fill="#191970" stroke="#191970" points="856.0304,-216.1325 865.858,-212.1742 855.707,-209.14 856.0304,-216.1325"/>
</g>
<!-- Node237305&#45;&gt;Node237294 -->
<g id="edge31" class="edge">
<title>Node237305&#45;&gt;Node237294</title>
<path fill="none" stroke="#191970" d="M1003.3713,-221.3411C1018.7597,-224.0986 1034.9255,-226.9953 1049.807,-229.662"/>
<polygon fill="#191970" stroke="#191970" points="1049.4186,-233.148 1059.8792,-231.4668 1050.6533,-226.2578 1049.4186,-233.148"/>
</g>
<!-- Node237305&#45;&gt;Node237301 -->
<g id="edge35" class="edge">
<title>Node237305&#45;&gt;Node237301</title>
<path fill="none" stroke="#191970" d="M1003.3713,-206.2133C1019.8352,-205.5471 1037.1889,-204.845 1052.9078,-204.2089"/>
<polygon fill="#191970" stroke="#191970" points="1053.1251,-207.7031 1062.9754,-203.8016 1052.8421,-200.7088 1053.1251,-207.7031"/>
</g>
<!-- Node237306 -->
<g id="node23" class="node">
<title>Node237306</title>
<g id="a_node23"><a xlink:href="../../df/da2/_codegen_cpp_common_8c.html#a14408e491537d673bbe3a652e9dcaa82" target="_top" xlink:title="omc_CodegenCppCommon\l_lm__48">
<polygon fill="#ffffff" stroke="#000000" points="1039,-143 1039,-173 1176,-173 1176,-143 1039,-143"/>
<text text-anchor="start" x="1047" y="-161" font-family="Helvetica,sans-Serif" font-size="10.00" fill="#000000">omc_CodegenCppCommon</text>
<text text-anchor="middle" x="1107.5" y="-150" font-family="Helvetica,sans-Serif" font-size="10.00" fill="#000000">_lm__48</text>
</a>
</g>
</g>
<!-- Node237305&#45;&gt;Node237306 -->
<g id="edge32" class="edge">
<title>Node237305&#45;&gt;Node237306</title>
<path fill="none" stroke="#191970" d="M985.47,-193.9742C1004.742,-188.2928 1026.862,-181.7719 1046.9302,-175.8558"/>
<polygon fill="#191970" stroke="#191970" points="1047.9934,-179.1914 1056.5956,-173.0065 1046.014,-172.4771 1047.9934,-179.1914"/>
</g>
<!-- Node237306&#45;&gt;Node237296 -->
<g id="edge33" class="edge">
<title>Node237306&#45;&gt;Node237296</title>
<path fill="none" stroke="#191970" d="M1158.9504,-173.0207C1164.9754,-175.8488 1170.8138,-179.1544 1176,-183 1218.0154,-214.1547 1251.0234,-266.8032 1267.9726,-297.5844"/>
<polygon fill="#191970" stroke="#191970" points="1265.0846,-299.6042 1272.9023,-306.755 1271.2502,-296.2897 1265.0846,-299.6042"/>
</g>
<!-- Node237306&#45;&gt;Node237300 -->
<g id="edge34" class="edge">
<title>Node237306&#45;&gt;Node237300</title>
<path fill="none" stroke="#191970" d="M1164.0623,-173.0134C1168.5043,-175.7955 1172.5835,-179.0926 1176,-183 1225.1202,-239.1782 1160.6896,-292.8149 1212,-347 1215.6714,-350.8771 1220.0584,-353.9864 1224.8142,-356.4766"/>
<polygon fill="#191970" stroke="#191970" points="1223.7526,-359.8291 1234.3234,-360.5417 1226.5042,-353.3926 1223.7526,-359.8291"/>
</g>
</g>
</svg>
