<?xml version="1.0" encoding="UTF-8" standalone="no"?>
<!DOCTYPE svg PUBLIC "-//W3C//DTD SVG 1.1//EN"
 "http://www.w3.org/Graphics/SVG/1.1/DTD/svg11.dtd">
<!-- Generated by graphviz version 2.40.1 (20161225.0304)
 -->
<!-- Title: omc_CodegenCpp_fun__1105 Pages: 1 -->
<svg width="1266pt" height="166pt"
 viewBox="0.00 0.00 1266.00 165.50" xmlns="http://www.w3.org/2000/svg" xmlns:xlink="http://www.w3.org/1999/xlink">
<g id="graph0" class="graph" transform="scale(1 1) rotate(0) translate(4 161.5)">
<title>omc_CodegenCpp_fun__1105</title>
<polygon fill="#ffffff" stroke="transparent" points="-4,4 -4,-161.5 1262,-161.5 1262,4 -4,4"/>
<!-- Node200790 -->
<g id="node1" class="node">
<title>Node200790</title>
<polygon fill="#bfbfbf" stroke="#000000" points="0,-55 0,-85 116,-85 116,-55 0,-55"/>
<text text-anchor="start" x="8" y="-73" font-family="Helvetica,sans-Serif" font-size="10.00" fill="#000000">omc_CodegenCpp_fun</text>
<text text-anchor="middle" x="58" y="-62" font-family="Helvetica,sans-Serif" font-size="10.00" fill="#000000">__1105</text>
</g>
<!-- Node200791 -->
<g id="node2" class="node">
<title>Node200791</title>
<g id="a_node2"><a xlink:href="../../d6/d8e/_codegen_cpp_8h.html#a6f4886d50c54188bf040a2f17f42a30b" target="_top" xlink:title="omc_CodegenCpp_writeValue\lValst">
<polygon fill="#ffffff" stroke="#000000" points="152,-80 152,-110 301,-110 301,-80 152,-80"/>
<text text-anchor="start" x="160" y="-98" font-family="Helvetica,sans-Serif" font-size="10.00" fill="#000000">omc_CodegenCpp_writeValue</text>
<text text-anchor="middle" x="226.5" y="-87" font-family="Helvetica,sans-Serif" font-size="10.00" fill="#000000">Valst</text>
</a>
</g>
</g>
<!-- Node200790&#45;&gt;Node200791 -->
<g id="edge1" class="edge">
<title>Node200790&#45;&gt;Node200791</title>
<path fill="none" stroke="#191970" d="M126.5035,-80.1637C134.8429,-81.401 143.3957,-82.67 151.8193,-83.9198"/>
<polygon fill="#191970" stroke="#191970" points="126.8656,-76.6792 116.4602,-78.6736 125.8383,-83.6034 126.8656,-76.6792"/>
</g>
<!-- Node200805 -->
<g id="node16" class="node">
<title>Node200805</title>
<g id="a_node16"><a xlink:href="../../d0/df9/_codegen_cpp_8c.html#a27b301fc1851266084dd5ba6af970780" target="_top" xlink:title="boxptr_CodegenCpp_fun\l__1105">
<polygon fill="#ffffff" stroke="#000000" points="164,-31 164,-61 289,-61 289,-31 164,-31"/>
<text text-anchor="start" x="172" y="-49" font-family="Helvetica,sans-Serif" font-size="10.00" fill="#000000">boxptr_CodegenCpp_fun</text>
<text text-anchor="middle" x="226.5" y="-38" font-family="Helvetica,sans-Serif" font-size="10.00" fill="#000000">__1105</text>
</a>
</g>
</g>
<!-- Node200790&#45;&gt;Node200805 -->
<g id="edge15" class="edge">
<title>Node200790&#45;&gt;Node200805</title>
<path fill="none" stroke="#191970" d="M126.6594,-60.2206C138.9585,-58.4688 151.7169,-56.6516 163.8363,-54.9254"/>
<polygon fill="#191970" stroke="#191970" points="125.8668,-56.7981 116.4602,-61.6733 126.8539,-63.7282 125.8668,-56.7981"/>
</g>
<!-- Node200792 -->
<g id="node3" class="node">
<title>Node200792</title>
<g id="a_node3"><a xlink:href="../../d6/d8e/_codegen_cpp_8h.html#a3616e40d86937fec5374feb7a08c16bf" target="_top" xlink:title="boxptr_CodegenCpp_writeValue\lValst">
<polygon fill="#ffffff" stroke="#000000" points="337,-102 337,-132 494,-132 494,-102 337,-102"/>
<text text-anchor="start" x="345" y="-120" font-family="Helvetica,sans-Serif" font-size="10.00" fill="#000000">boxptr_CodegenCpp_writeValue</text>
<text text-anchor="middle" x="415.5" y="-109" font-family="Helvetica,sans-Serif" font-size="10.00" fill="#000000">Valst</text>
</a>
</g>
</g>
<!-- Node200791&#45;&gt;Node200792 -->
<g id="edge2" class="edge">
<title>Node200791&#45;&gt;Node200792</title>
<path fill="none" stroke="#191970" d="M311.207,-104.8601C319.7907,-105.8592 328.4833,-106.8711 336.9975,-107.8621"/>
<polygon fill="#191970" stroke="#191970" points="311.5354,-101.3748 301.1978,-103.695 310.726,-108.3278 311.5354,-101.3748"/>
</g>
<!-- Node200793 -->
<g id="node4" class="node">
<title>Node200793</title>
<g id="a_node4"><a xlink:href="../../d0/df9/_codegen_cpp_8c.html#a79b2df2a145ebd0e4560343cafe10934" target="_top" xlink:title="omc_CodegenCpp_lm__1101">
<polygon fill="#ffffff" stroke="#000000" points="343,-63.5 343,-82.5 488,-82.5 488,-63.5 343,-63.5"/>
<text text-anchor="middle" x="415.5" y="-70.5" font-family="Helvetica,sans-Serif" font-size="10.00" fill="#000000">omc_CodegenCpp_lm__1101</text>
</a>
</g>
</g>
<!-- Node200791&#45;&gt;Node200793 -->
<g id="edge3" class="edge">
<title>Node200791&#45;&gt;Node200793</title>
<path fill="none" stroke="#191970" d="M311.2537,-85.1345C321.8127,-83.9054 332.5358,-82.6572 342.888,-81.4522"/>
<polygon fill="#191970" stroke="#191970" points="310.726,-81.6722 301.1978,-86.305 311.5354,-88.6252 310.726,-81.6722"/>
</g>
<!-- Node200794 -->
<g id="node5" class="node">
<title>Node200794</title>
<g id="a_node5"><a xlink:href="../../d6/d8e/_codegen_cpp_8h.html#ae0a5861d48e1f6a2e142b255da7ef246" target="_top" xlink:title="omc_CodegenCpp_writeOutput\lVarsWithSplit">
<polygon fill="#ffffff" stroke="#000000" points="530,-83 530,-113 683,-113 683,-83 530,-83"/>
<text text-anchor="start" x="538" y="-101" font-family="Helvetica,sans-Serif" font-size="10.00" fill="#000000">omc_CodegenCpp_writeOutput</text>
<text text-anchor="middle" x="606.5" y="-90" font-family="Helvetica,sans-Serif" font-size="10.00" fill="#000000">VarsWithSplit</text>
</a>
</g>
</g>
<!-- Node200793&#45;&gt;Node200794 -->
<g id="edge4" class="edge">
<title>Node200793&#45;&gt;Node200794</title>
<path fill="none" stroke="#191970" d="M498.2327,-83.8289C508.7255,-85.2023 519.4276,-86.6031 529.8201,-87.9634"/>
<polygon fill="#191970" stroke="#191970" points="498.6235,-80.3503 488.2538,-82.5227 497.7149,-87.2911 498.6235,-80.3503"/>
</g>
<!-- Node200804 -->
<g id="node15" class="node">
<title>Node200804</title>
<g id="a_node15"><a xlink:href="../../d0/df9/_codegen_cpp_8c.html#af4f024dc9fdac552fde6374b17df11b6" target="_top" xlink:title="boxptr_CodegenCpp_lm\l__1101">
<polygon fill="#ffffff" stroke="#000000" points="545.5,-34 545.5,-64 667.5,-64 667.5,-34 545.5,-34"/>
<text text-anchor="start" x="553.5" y="-52" font-family="Helvetica,sans-Serif" font-size="10.00" fill="#000000">boxptr_CodegenCpp_lm</text>
<text text-anchor="middle" x="606.5" y="-41" font-family="Helvetica,sans-Serif" font-size="10.00" fill="#000000">__1101</text>
</a>
</g>
</g>
<!-- Node200793&#45;&gt;Node200804 -->
<g id="edge14" class="edge">
<title>Node200793&#45;&gt;Node200804</title>
<path fill="none" stroke="#191970" d="M498.5296,-62.567C514.296,-60.5858 530.5237,-58.5468 545.454,-56.6707"/>
<polygon fill="#191970" stroke="#191970" points="497.7394,-59.1386 488.2538,-63.8582 498.6121,-66.084 497.7394,-59.1386"/>
</g>
<!-- Node200795 -->
<g id="node6" class="node">
<title>Node200795</title>
<g id="a_node6"><a xlink:href="../../d6/d8e/_codegen_cpp_8h.html#ac4d76e4a16290daa888c96613c411802" target="_top" xlink:title="boxptr_CodegenCpp_writeOutput\lVarsWithSplit">
<polygon fill="#ffffff" stroke="#000000" points="719,-127 719,-157 880,-157 880,-127 719,-127"/>
<text text-anchor="start" x="727" y="-145" font-family="Helvetica,sans-Serif" font-size="10.00" fill="#000000">boxptr_CodegenCpp_writeOutput</text>
<text text-anchor="middle" x="799.5" y="-134" font-family="Helvetica,sans-Serif" font-size="10.00" fill="#000000">VarsWithSplit</text>
</a>
</g>
</g>
<!-- Node200794&#45;&gt;Node200795 -->
<g id="edge5" class="edge">
<title>Node200794&#45;&gt;Node200795</title>
<path fill="none" stroke="#191970" d="M682.2456,-115.2684C699.2066,-119.1352 717.0654,-123.2066 733.5896,-126.9738"/>
<polygon fill="#191970" stroke="#191970" points="682.9077,-111.8296 672.3798,-113.0192 681.3517,-118.6545 682.9077,-111.8296"/>
</g>
<!-- Node200796 -->
<g id="node7" class="node">
<title>Node200796</title>
<g id="a_node7"><a xlink:href="../../d0/df9/_codegen_cpp_8c.html#a7705e50ff4815fe95829340275dcc017" target="_top" xlink:title="omc_CodegenCpp_fun__138">
<polygon fill="#ffffff" stroke="#000000" points="728,-88.5 728,-107.5 871,-107.5 871,-88.5 728,-88.5"/>
<text text-anchor="middle" x="799.5" y="-95.5" font-family="Helvetica,sans-Serif" font-size="10.00" fill="#000000">omc_CodegenCpp_fun__138</text>
</a>
</g>
</g>
<!-- Node200794&#45;&gt;Node200796 -->
<g id="edge6" class="edge">
<title>Node200794&#45;&gt;Node200796</title>
<path fill="none" stroke="#191970" d="M693.1534,-98C704.7187,-98 716.4747,-98 727.7475,-98"/>
<polygon fill="#191970" stroke="#191970" points="693.0559,-94.5001 683.0559,-98 693.0559,-101.5001 693.0559,-94.5001"/>
</g>
<!-- Node200800 -->
<g id="node11" class="node">
<title>Node200800</title>
<g id="a_node11"><a xlink:href="../../d0/df9/_codegen_cpp_8c.html#af5596855fda4662a923eed54bbb55e51" target="_top" xlink:title="omc_CodegenCpp_fun__110">
<polygon fill="#ffffff" stroke="#000000" points="728,-44.5 728,-63.5 871,-63.5 871,-44.5 728,-44.5"/>
<text text-anchor="middle" x="799.5" y="-51.5" font-family="Helvetica,sans-Serif" font-size="10.00" fill="#000000">omc_CodegenCpp_fun__110</text>
</a>
</g>
</g>
<!-- Node200794&#45;&gt;Node200800 -->
<g id="edge10" class="edge">
<title>Node200794&#45;&gt;Node200800</title>
<path fill="none" stroke="#191970" d="M682.4663,-80.6813C708.1091,-74.8352 735.7802,-68.5268 757.7751,-63.5124"/>
<polygon fill="#191970" stroke="#191970" points="681.3517,-77.3455 672.3798,-82.9808 682.9077,-84.1704 681.3517,-77.3455"/>
</g>
<!-- Node200797 -->
<g id="node8" class="node">
<title>Node200797</title>
<g id="a_node8"><a xlink:href="../../d6/d8e/_codegen_cpp_8h.html#ab2ab7ce3b9e5b1b62a9c0e9b7a2ef998" target="_top" xlink:title="omc_CodegenCpp_simulation\lWriteOutputAliasVarsCppFile">
<polygon fill="#ffffff" stroke="#000000" points="918,-127 918,-157 1065,-157 1065,-127 918,-127"/>
<text text-anchor="start" x="926" y="-145" font-family="Helvetica,sans-Serif" font-size="10.00" fill="#000000">omc_CodegenCpp_simulation</text>
<text text-anchor="middle" x="991.5" y="-134" font-family="Helvetica,sans-Serif" font-size="10.00" fill="#000000">WriteOutputAliasVarsCppFile</text>
</a>
</g>
</g>
<!-- Node200796&#45;&gt;Node200797 -->
<g id="edge7" class="edge">
<title>Node200796&#45;&gt;Node200797</title>
<path fill="none" stroke="#191970" d="M851.0484,-109.8132C874.0174,-115.0769 901.3434,-121.3391 925.7602,-126.9346"/>
<polygon fill="#191970" stroke="#191970" points="851.6903,-106.3696 841.1611,-107.5473 850.1266,-113.1927 851.6903,-106.3696"/>
</g>
<!-- Node200799 -->
<g id="node10" class="node">
<title>Node200799</title>
<g id="a_node10"><a xlink:href="../../d0/df9/_codegen_cpp_8c.html#af493d0294cb00a2072b3974a65072a70" target="_top" xlink:title="boxptr_CodegenCpp_fun__138">
<polygon fill="#ffffff" stroke="#000000" points="916,-88.5 916,-107.5 1067,-107.5 1067,-88.5 916,-88.5"/>
<text text-anchor="middle" x="991.5" y="-95.5" font-family="Helvetica,sans-Serif" font-size="10.00" fill="#000000">boxptr_CodegenCpp_fun__138</text>
</a>
</g>
</g>
<!-- Node200796&#45;&gt;Node200799 -->
<g id="edge9" class="edge">
<title>Node200796&#45;&gt;Node200799</title>
<path fill="none" stroke="#191970" d="M881.2909,-98C892.7988,-98 904.5853,-98 915.9691,-98"/>
<polygon fill="#191970" stroke="#191970" points="881.2668,-94.5001 871.2667,-98 881.2667,-101.5001 881.2668,-94.5001"/>
</g>
<!-- Node200798 -->
<g id="node9" class="node">
<title>Node200798</title>
<g id="a_node9"><a xlink:href="../../d6/d8e/_codegen_cpp_8h.html#a037143719782aff4c3b6f3614741b264" target="_top" xlink:title="boxptr_CodegenCpp_simulation\lWriteOutputAliasVarsCppFile">
<polygon fill="#ffffff" stroke="#000000" points="1103,-127 1103,-157 1258,-157 1258,-127 1103,-127"/>
<text text-anchor="start" x="1111" y="-145" font-family="Helvetica,sans-Serif" font-size="10.00" fill="#000000">boxptr_CodegenCpp_simulation</text>
<text text-anchor="middle" x="1180.5" y="-134" font-family="Helvetica,sans-Serif" font-size="10.00" fill="#000000">WriteOutputAliasVarsCppFile</text>
</a>
</g>
</g>
<!-- Node200797&#45;&gt;Node200798 -->
<g id="edge8" class="edge">
<title>Node200797&#45;&gt;Node200798</title>
<path fill="none" stroke="#191970" d="M1075.3251,-142C1084.4364,-142 1093.6818,-142 1102.7166,-142"/>
<polygon fill="#191970" stroke="#191970" points="1075.1136,-138.5001 1065.1135,-142 1075.1135,-145.5001 1075.1136,-138.5001"/>
</g>
<!-- Node200801 -->
<g id="node12" class="node">
<title>Node200801</title>
<g id="a_node12"><a xlink:href="../../d6/d8e/_codegen_cpp_8h.html#a43cec33d923d579233f7eb32b2826bb7" target="_top" xlink:title="omc_CodegenCpp_simulation\lWriteOutputAlgVarsCppFile">
<polygon fill="#ffffff" stroke="#000000" points="918,-39 918,-69 1065,-69 1065,-39 918,-39"/>
<text text-anchor="start" x="926" y="-57" font-family="Helvetica,sans-Serif" font-size="10.00" fill="#000000">omc_CodegenCpp_simulation</text>
<text text-anchor="middle" x="991.5" y="-46" font-family="Helvetica,sans-Serif" font-size="10.00" fill="#000000">WriteOutputAlgVarsCppFile</text>
</a>
</g>
</g>
<!-- Node200800&#45;&gt;Node200801 -->
<g id="edge11" class="edge">
<title>Node200800&#45;&gt;Node200801</title>
<path fill="none" stroke="#191970" d="M881.3698,-54C893.5044,-54 905.9469,-54 917.8989,-54"/>
<polygon fill="#191970" stroke="#191970" points="881.2668,-50.5001 871.2667,-54 881.2667,-57.5001 881.2668,-50.5001"/>
</g>
<!-- Node200803 -->
<g id="node14" class="node">
<title>Node200803</title>
<g id="a_node14"><a xlink:href="../../d0/df9/_codegen_cpp_8c.html#ad61e1ec1043537141736d50f21192c17" target="_top" xlink:title="boxptr_CodegenCpp_fun__110">
<polygon fill="#ffffff" stroke="#000000" points="916,-.5 916,-19.5 1067,-19.5 1067,-.5 916,-.5"/>
<text text-anchor="middle" x="991.5" y="-7.5" font-family="Helvetica,sans-Serif" font-size="10.00" fill="#000000">boxptr_CodegenCpp_fun__110</text>
</a>
</g>
</g>
<!-- Node200800&#45;&gt;Node200803 -->
<g id="edge13" class="edge">
<title>Node200800&#45;&gt;Node200803</title>
<path fill="none" stroke="#191970" d="M850.9215,-42.2159C881.9157,-35.1131 920.8788,-26.184 949.9202,-19.5287"/>
<polygon fill="#191970" stroke="#191970" points="850.1266,-38.8073 841.1611,-44.4527 851.6903,-45.6304 850.1266,-38.8073"/>
</g>
<!-- Node200802 -->
<g id="node13" class="node">
<title>Node200802</title>
<g id="a_node13"><a xlink:href="../../d6/d8e/_codegen_cpp_8h.html#a555e1bac9a9344dd55011486920819fe" target="_top" xlink:title="boxptr_CodegenCpp_simulation\lWriteOutputAlgVarsCppFile">
<polygon fill="#ffffff" stroke="#000000" points="1103,-39 1103,-69 1258,-69 1258,-39 1103,-39"/>
<text text-anchor="start" x="1111" y="-57" font-family="Helvetica,sans-Serif" font-size="10.00" fill="#000000">boxptr_CodegenCpp_simulation</text>
<text text-anchor="middle" x="1180.5" y="-46" font-family="Helvetica,sans-Serif" font-size="10.00" fill="#000000">WriteOutputAlgVarsCppFile</text>
</a>
</g>
</g>
<!-- Node200801&#45;&gt;Node200802 -->
<g id="edge12" class="edge">
<title>Node200801&#45;&gt;Node200802</title>
<path fill="none" stroke="#191970" d="M1075.3251,-54C1084.4364,-54 1093.6818,-54 1102.7166,-54"/>
<polygon fill="#191970" stroke="#191970" points="1075.1136,-50.5001 1065.1135,-54 1075.1135,-57.5001 1075.1136,-50.5001"/>
</g>
</g>
</svg>
