<?xml version="1.0" encoding="UTF-8" standalone="no"?>
<!DOCTYPE svg PUBLIC "-//W3C//DTD SVG 1.1//EN"
 "http://www.w3.org/Graphics/SVG/1.1/DTD/svg11.dtd">
<!-- Generated by graphviz version 2.40.1 (20161225.0304)
 -->
<!-- Title: omc_CodegenCpp_fun__1036 Pages: 1 -->
<svg width="1180pt" height="100pt"
 viewBox="0.00 0.00 1180.00 99.50" xmlns="http://www.w3.org/2000/svg" xmlns:xlink="http://www.w3.org/1999/xlink">
<g id="graph0" class="graph" transform="scale(1 1) rotate(0) translate(4 95.5)">
<title>omc_CodegenCpp_fun__1036</title>
<polygon fill="#ffffff" stroke="transparent" points="-4,4 -4,-95.5 1176,-95.5 1176,4 -4,4"/>
<!-- Node200131 -->
<g id="node1" class="node">
<title>Node200131</title>
<polygon fill="#bfbfbf" stroke="#000000" points="0,-22.5 0,-52.5 116,-52.5 116,-22.5 0,-22.5"/>
<text text-anchor="start" x="8" y="-40.5" font-family="Helvetica,sans-Serif" font-size="10.00" fill="#000000">omc_CodegenCpp_fun</text>
<text text-anchor="middle" x="58" y="-29.5" font-family="Helvetica,sans-Serif" font-size="10.00" fill="#000000">__1036</text>
</g>
<!-- Node200132 -->
<g id="node2" class="node">
<title>Node200132</title>
<g id="a_node2"><a xlink:href="../../d0/df9/_codegen_cpp_8c.html#aa9b6fe80743c93421928231238b114ad" target="_top" xlink:title="omc_CodegenCpp_fun\l__1037">
<polygon fill="#ffffff" stroke="#000000" points="152,-22.5 152,-52.5 268,-52.5 268,-22.5 152,-22.5"/>
<text text-anchor="start" x="160" y="-40.5" font-family="Helvetica,sans-Serif" font-size="10.00" fill="#000000">omc_CodegenCpp_fun</text>
<text text-anchor="middle" x="210" y="-29.5" font-family="Helvetica,sans-Serif" font-size="10.00" fill="#000000">__1037</text>
</a>
</g>
</g>
<!-- Node200131&#45;&gt;Node200132 -->
<g id="edge1" class="edge">
<title>Node200131&#45;&gt;Node200132</title>
<path fill="none" stroke="#191970" d="M126.5423,-37.5C134.9862,-37.5 143.5541,-37.5 151.8236,-37.5"/>
<polygon fill="#191970" stroke="#191970" points="126.3325,-34.0001 116.3325,-37.5 126.3324,-41.0001 126.3325,-34.0001"/>
</g>
<!-- Node200133 -->
<g id="node3" class="node">
<title>Node200133</title>
<g id="a_node3"><a xlink:href="../../d6/d8e/_codegen_cpp_8h.html#aabe2eb1dd8a922197abc74eae70d7daf" target="_top" xlink:title="omc_CodegenCpp_initVals2">
<polygon fill="#ffffff" stroke="#000000" points="304,-50 304,-69 444,-69 444,-50 304,-50"/>
<text text-anchor="middle" x="374" y="-57" font-family="Helvetica,sans-Serif" font-size="10.00" fill="#000000">omc_CodegenCpp_initVals2</text>
</a>
</g>
</g>
<!-- Node200132&#45;&gt;Node200133 -->
<g id="edge2" class="edge">
<title>Node200132&#45;&gt;Node200133</title>
<path fill="none" stroke="#191970" d="M278.4083,-46.6767C286.8098,-47.8038 295.4071,-48.9571 303.8341,-50.0875"/>
<polygon fill="#191970" stroke="#191970" points="278.6586,-43.179 268.282,-45.3183 277.7279,-50.1169 278.6586,-43.179"/>
</g>
<!-- Node200141 -->
<g id="node11" class="node">
<title>Node200141</title>
<g id="a_node11"><a xlink:href="../../d0/df9/_codegen_cpp_8c.html#a961a3ff57be55b656ca7315df792764c" target="_top" xlink:title="boxptr_CodegenCpp_fun\l__1037">
<polygon fill="#ffffff" stroke="#000000" points="311.5,-.5 311.5,-30.5 436.5,-30.5 436.5,-.5 311.5,-.5"/>
<text text-anchor="start" x="319.5" y="-18.5" font-family="Helvetica,sans-Serif" font-size="10.00" fill="#000000">boxptr_CodegenCpp_fun</text>
<text text-anchor="middle" x="374" y="-7.5" font-family="Helvetica,sans-Serif" font-size="10.00" fill="#000000">__1037</text>
</a>
</g>
</g>
<!-- Node200132&#45;&gt;Node200141 -->
<g id="edge10" class="edge">
<title>Node200132&#45;&gt;Node200141</title>
<path fill="none" stroke="#191970" d="M278.2643,-28.3426C289.2634,-26.8671 300.602,-25.3461 311.4576,-23.8898"/>
<polygon fill="#191970" stroke="#191970" points="277.7279,-24.8831 268.282,-29.6817 278.6586,-31.821 277.7279,-24.8831"/>
</g>
<!-- Node200134 -->
<g id="node4" class="node">
<title>Node200134</title>
<g id="a_node4"><a xlink:href="../../d6/d8e/_codegen_cpp_8h.html#aa232b6940f03a8e459345b16c10284f0" target="_top" xlink:title="boxptr_CodegenCpp_initVals2">
<polygon fill="#ffffff" stroke="#000000" points="480,-69 480,-88 629,-88 629,-69 480,-69"/>
<text text-anchor="middle" x="554.5" y="-76" font-family="Helvetica,sans-Serif" font-size="10.00" fill="#000000">boxptr_CodegenCpp_initVals2</text>
</a>
</g>
</g>
<!-- Node200133&#45;&gt;Node200134 -->
<g id="edge3" class="edge">
<title>Node200133&#45;&gt;Node200134</title>
<path fill="none" stroke="#191970" d="M454.0051,-67.9216C462.5548,-68.8216 471.2287,-69.7346 479.7146,-70.6278"/>
<polygon fill="#191970" stroke="#191970" points="454.3558,-64.4393 444.0444,-66.8731 453.623,-71.4008 454.3558,-64.4393"/>
</g>
<!-- Node200135 -->
<g id="node5" class="node">
<title>Node200135</title>
<g id="a_node5"><a xlink:href="../../d0/df9/_codegen_cpp_8c.html#aab0929d2cb620596312f8cb74e3aff96" target="_top" xlink:title="omc_CodegenCpp_lm__1034">
<polygon fill="#ffffff" stroke="#000000" points="482,-31 482,-50 627,-50 627,-31 482,-31"/>
<text text-anchor="middle" x="554.5" y="-38" font-family="Helvetica,sans-Serif" font-size="10.00" fill="#000000">omc_CodegenCpp_lm__1034</text>
</a>
</g>
</g>
<!-- Node200133&#45;&gt;Node200135 -->
<g id="edge4" class="edge">
<title>Node200133&#45;&gt;Node200135</title>
<path fill="none" stroke="#191970" d="M454.0098,-51.0779C463.2636,-50.1038 472.6629,-49.1144 481.8117,-48.1514"/>
<polygon fill="#191970" stroke="#191970" points="453.623,-47.5992 444.0444,-52.1269 454.3558,-54.5607 453.623,-47.5992"/>
</g>
<!-- Node200136 -->
<g id="node6" class="node">
<title>Node200136</title>
<g id="a_node6"><a xlink:href="../../d6/d8e/_codegen_cpp_8h.html#aedec70199d66b22435534d8d77155855" target="_top" xlink:title="omc_CodegenCpp_initVals1">
<polygon fill="#ffffff" stroke="#000000" points="665,-53 665,-72 805,-72 805,-53 665,-53"/>
<text text-anchor="middle" x="735" y="-60" font-family="Helvetica,sans-Serif" font-size="10.00" fill="#000000">omc_CodegenCpp_initVals1</text>
</a>
</g>
</g>
<!-- Node200135&#45;&gt;Node200136 -->
<g id="edge5" class="edge">
<title>Node200135&#45;&gt;Node200136</title>
<path fill="none" stroke="#191970" d="M637.1297,-50.5712C646.3958,-51.7006 655.7698,-52.8431 664.8572,-53.9507"/>
<polygon fill="#191970" stroke="#191970" points="637.4861,-47.0888 627.136,-49.3531 636.6391,-54.0374 637.4861,-47.0888"/>
</g>
<!-- Node200140 -->
<g id="node10" class="node">
<title>Node200140</title>
<g id="a_node10"><a xlink:href="../../d0/df9/_codegen_cpp_8c.html#a75fc33353e6aa5c261dd24c6cf0da9dc" target="_top" xlink:title="boxptr_CodegenCpp_lm\l__1034">
<polygon fill="#ffffff" stroke="#000000" points="674,-3.5 674,-33.5 796,-33.5 796,-3.5 674,-3.5"/>
<text text-anchor="start" x="682" y="-21.5" font-family="Helvetica,sans-Serif" font-size="10.00" fill="#000000">boxptr_CodegenCpp_lm</text>
<text text-anchor="middle" x="735" y="-10.5" font-family="Helvetica,sans-Serif" font-size="10.00" fill="#000000">__1034</text>
</a>
</g>
</g>
<!-- Node200135&#45;&gt;Node200140 -->
<g id="edge9" class="edge">
<title>Node200135&#45;&gt;Node200140</title>
<path fill="none" stroke="#191970" d="M637.3766,-30.3987C649.6428,-28.9037 662.0918,-27.3863 673.8093,-25.9581"/>
<polygon fill="#191970" stroke="#191970" points="636.6391,-26.9626 627.136,-31.6469 637.4861,-33.9112 636.6391,-26.9626"/>
</g>
<!-- Node200137 -->
<g id="node7" class="node">
<title>Node200137</title>
<g id="a_node7"><a xlink:href="../../d6/d8e/_codegen_cpp_8h.html#ae94ea980a63866cffa1092c9b16776ea" target="_top" xlink:title="boxptr_CodegenCpp_initVals1">
<polygon fill="#ffffff" stroke="#000000" points="841,-72 841,-91 990,-91 990,-72 841,-72"/>
<text text-anchor="middle" x="915.5" y="-79" font-family="Helvetica,sans-Serif" font-size="10.00" fill="#000000">boxptr_CodegenCpp_initVals1</text>
</a>
</g>
</g>
<!-- Node200136&#45;&gt;Node200137 -->
<g id="edge6" class="edge">
<title>Node200136&#45;&gt;Node200137</title>
<path fill="none" stroke="#191970" d="M815.0051,-70.9216C823.5548,-71.8216 832.2287,-72.7346 840.7146,-73.6278"/>
<polygon fill="#191970" stroke="#191970" points="815.3558,-67.4393 805.0444,-69.8731 814.623,-74.4008 815.3558,-67.4393"/>
</g>
<!-- Node200138 -->
<g id="node8" class="node">
<title>Node200138</title>
<g id="a_node8"><a xlink:href="../../d6/d8e/_codegen_cpp_8h.html#ad42e3d3b6b0a29ed3b1cde8223aa27f4" target="_top" xlink:title="omc_CodegenCpp_arrayInit">
<polygon fill="#ffffff" stroke="#000000" points="846.5,-34 846.5,-53 984.5,-53 984.5,-34 846.5,-34"/>
<text text-anchor="middle" x="915.5" y="-41" font-family="Helvetica,sans-Serif" font-size="10.00" fill="#000000">omc_CodegenCpp_arrayInit</text>
</a>
</g>
</g>
<!-- Node200136&#45;&gt;Node200138 -->
<g id="edge7" class="edge">
<title>Node200136&#45;&gt;Node200138</title>
<path fill="none" stroke="#191970" d="M815.0028,-54.0787C825.4685,-52.977 836.1205,-51.8557 846.3859,-50.7752"/>
<polygon fill="#191970" stroke="#191970" points="814.623,-50.5992 805.0444,-55.1269 815.3558,-57.5607 814.623,-50.5992"/>
</g>
<!-- Node200139 -->
<g id="node9" class="node">
<title>Node200139</title>
<g id="a_node9"><a xlink:href="../../d6/d8e/_codegen_cpp_8h.html#a3adab128bde3d1c738f7b174652aa50e" target="_top" xlink:title="boxptr_CodegenCpp_arrayInit">
<polygon fill="#ffffff" stroke="#000000" points="1026,-34 1026,-53 1172,-53 1172,-34 1026,-34"/>
<text text-anchor="middle" x="1099" y="-41" font-family="Helvetica,sans-Serif" font-size="10.00" fill="#000000">boxptr_CodegenCpp_arrayInit</text>
</a>
</g>
</g>
<!-- Node200138&#45;&gt;Node200139 -->
<g id="edge8" class="edge">
<title>Node200138&#45;&gt;Node200139</title>
<path fill="none" stroke="#191970" d="M994.8572,-43.5C1005.1936,-43.5 1015.7437,-43.5 1025.9698,-43.5"/>
<polygon fill="#191970" stroke="#191970" points="994.612,-40.0001 984.612,-43.5 994.612,-47.0001 994.612,-40.0001"/>
</g>
</g>
</svg>
