<?xml version="1.0" encoding="UTF-8" standalone="no"?>
<!DOCTYPE svg PUBLIC "-//W3C//DTD SVG 1.1//EN"
 "http://www.w3.org/Graphics/SVG/1.1/DTD/svg11.dtd">
<!-- Generated by graphviz version 2.40.1 (20161225.0304)
 -->
<!-- Title: omc_CodegenCpp_lm__503 Pages: 1 -->
<svg width="973pt" height="296pt"
 viewBox="0.00 0.00 973.00 296.00" xmlns="http://www.w3.org/2000/svg" xmlns:xlink="http://www.w3.org/1999/xlink">
<g id="graph0" class="graph" transform="scale(1 1) rotate(0) translate(4 292)">
<title>omc_CodegenCpp_lm__503</title>
<polygon fill="#ffffff" stroke="transparent" points="-4,4 -4,-292 969,-292 969,4 -4,4"/>
<!-- Node361344 -->
<g id="node1" class="node">
<title>Node361344</title>
<polygon fill="#bfbfbf" stroke="#000000" points="0,-142.5 0,-161.5 140,-161.5 140,-142.5 0,-142.5"/>
<text text-anchor="middle" x="70" y="-149.5" font-family="Helvetica,sans-Serif" font-size="10.00" fill="#000000">omc_CodegenCpp_lm__503</text>
</g>
<!-- Node361345 -->
<g id="node2" class="node">
<title>Node361345</title>
<g id="a_node2"><a xlink:href="../../d7/d52/_tpl_8c.html#a1038a57834f028b49f38adc4d5fcd049" target="_top" xlink:title="omc_Tpl_writeTok">
<polygon fill="#ffffff" stroke="#000000" points="868,-221.5 868,-240.5 965,-240.5 965,-221.5 868,-221.5"/>
<text text-anchor="middle" x="916.5" y="-228.5" font-family="Helvetica,sans-Serif" font-size="10.00" fill="#000000">omc_Tpl_writeTok</text>
</a>
</g>
</g>
<!-- Node361344&#45;&gt;Node361345 -->
<g id="edge1" class="edge">
<title>Node361344&#45;&gt;Node361345</title>
<path fill="none" stroke="#191970" d="M83.4797,-161.5633C128.4788,-192.5197 278.5348,-288 417.5,-288 417.5,-288 417.5,-288 590.5,-288 693.6372,-288 812.4226,-259.9743 874.2007,-243.226"/>
<polygon fill="#191970" stroke="#191970" points="875.2603,-246.5647 883.9758,-240.5405 873.4058,-239.8148 875.2603,-246.5647"/>
</g>
<!-- Node361346 -->
<g id="node3" class="node">
<title>Node361346</title>
<g id="a_node3"><a xlink:href="../../df/da2/_codegen_cpp_common_8c.html#a9861b035b8ff10de651cb64ca491503c" target="_top" xlink:title="omc_CodegenCppCommon\l_crefStr">
<polygon fill="#ffffff" stroke="#000000" points="176,-137 176,-167 313,-167 313,-137 176,-137"/>
<text text-anchor="start" x="184" y="-155" font-family="Helvetica,sans-Serif" font-size="10.00" fill="#000000">omc_CodegenCppCommon</text>
<text text-anchor="middle" x="244.5" y="-144" font-family="Helvetica,sans-Serif" font-size="10.00" fill="#000000">_crefStr</text>
</a>
</g>
</g>
<!-- Node361344&#45;&gt;Node361346 -->
<g id="edge2" class="edge">
<title>Node361344&#45;&gt;Node361346</title>
<path fill="none" stroke="#191970" d="M140.2215,-152C148.5704,-152 157.1356,-152 165.5953,-152"/>
<polygon fill="#191970" stroke="#191970" points="165.8402,-155.5001 175.8402,-152 165.8402,-148.5001 165.8402,-155.5001"/>
</g>
<!-- Node361353 -->
<g id="node10" class="node">
<title>Node361353</title>
<g id="a_node10"><a xlink:href="../../d7/d52/_tpl_8c.html#ae3c38d796bafc525ba51ed985d39c720" target="_top" xlink:title="omc_Tpl_nextIter">
<polygon fill="#ffffff" stroke="#000000" points="717.5,-.5 717.5,-19.5 809.5,-19.5 809.5,-.5 717.5,-.5"/>
<text text-anchor="middle" x="763.5" y="-7.5" font-family="Helvetica,sans-Serif" font-size="10.00" fill="#000000">omc_Tpl_nextIter</text>
</a>
</g>
</g>
<!-- Node361344&#45;&gt;Node361353 -->
<g id="edge15" class="edge">
<title>Node361344&#45;&gt;Node361353</title>
<path fill="none" stroke="#191970" d="M97.7762,-142.4033C147.5608,-125.5265 255.5274,-90.3931 349,-70 475.628,-42.3733 626.8702,-24.1302 707.0603,-15.5969"/>
<polygon fill="#191970" stroke="#191970" points="707.8444,-19.0339 717.4231,-14.5063 707.1117,-12.0723 707.8444,-19.0339"/>
</g>
<!-- Node361346&#45;&gt;Node361345 -->
<g id="edge3" class="edge">
<title>Node361346&#45;&gt;Node361345</title>
<path fill="none" stroke="#191970" d="M307.2136,-167.0261C320.9797,-170.3181 335.4805,-173.7808 349,-177 425.8695,-195.3037 444.0963,-204.7726 522,-218 598.2132,-230.9403 617.7999,-231.9946 695,-236 755.8071,-239.1549 771.1377,-237.7991 832,-236 840.3408,-235.7534 849.1387,-235.3703 857.7805,-234.9232"/>
<polygon fill="#191970" stroke="#191970" points="858.0233,-238.4153 867.8169,-234.3735 857.6404,-231.4258 858.0233,-238.4153"/>
</g>
<!-- Node361347 -->
<g id="node4" class="node">
<title>Node361347</title>
<g id="a_node4"><a xlink:href="../../df/da2/_codegen_cpp_common_8c.html#af2f965aa5ba4cba5f127eb931f7f8850" target="_top" xlink:title="omc_CodegenCppCommon\l_subscriptsStr">
<polygon fill="#ffffff" stroke="#000000" points="349,-137 349,-167 486,-167 486,-137 349,-137"/>
<text text-anchor="start" x="357" y="-155" font-family="Helvetica,sans-Serif" font-size="10.00" fill="#000000">omc_CodegenCppCommon</text>
<text text-anchor="middle" x="417.5" y="-144" font-family="Helvetica,sans-Serif" font-size="10.00" fill="#000000">_subscriptsStr</text>
</a>
</g>
</g>
<!-- Node361346&#45;&gt;Node361347 -->
<g id="edge4" class="edge">
<title>Node361346&#45;&gt;Node361347</title>
<path fill="none" stroke="#191970" d="M313.3713,-152C321.678,-152 330.2111,-152 338.6466,-152"/>
<polygon fill="#191970" stroke="#191970" points="338.8657,-155.5001 348.8657,-152 338.8657,-148.5001 338.8657,-155.5001"/>
</g>
<!-- Node361351 -->
<g id="node8" class="node">
<title>Node361351</title>
<g id="a_node8"><a xlink:href="../../d7/d52/_tpl_8c.html#ada57037d1430be632aea182a946c3245" target="_top" xlink:title="omc_Tpl_writeStr">
<polygon fill="#ffffff" stroke="#000000" points="870,-60.5 870,-79.5 963,-79.5 963,-60.5 870,-60.5"/>
<text text-anchor="middle" x="916.5" y="-67.5" font-family="Helvetica,sans-Serif" font-size="10.00" fill="#000000">omc_Tpl_writeStr</text>
</a>
</g>
</g>
<!-- Node361346&#45;&gt;Node361351 -->
<g id="edge14" class="edge">
<title>Node361346&#45;&gt;Node361351</title>
<path fill="none" stroke="#191970" d="M281.3832,-136.8343C333.7888,-116.1866 433.3007,-80.2801 522,-67 641.1178,-49.1657 782.7387,-57.2489 859.7379,-64.0581"/>
<polygon fill="#191970" stroke="#191970" points="859.4346,-67.5448 869.7105,-64.9651 860.0686,-60.5736 859.4346,-67.5448"/>
</g>
<!-- Node361347&#45;&gt;Node361345 -->
<g id="edge5" class="edge">
<title>Node361347&#45;&gt;Node361345</title>
<path fill="none" stroke="#191970" d="M449.2323,-167.1204C469.5709,-176.135 496.7921,-186.9657 522,-193 638.8744,-220.9774 779.9023,-228.4673 857.7235,-230.4024"/>
<polygon fill="#191970" stroke="#191970" points="857.7387,-233.9035 867.8153,-230.6308 857.8971,-226.9053 857.7387,-233.9035"/>
</g>
<!-- Node361348 -->
<g id="node5" class="node">
<title>Node361348</title>
<g id="a_node5"><a xlink:href="../../d7/d52/_tpl_8c.html#a79ae8e0232bfdb080d90e9f7890dc199" target="_top" xlink:title="omc_Tpl_pushIter">
<polygon fill="#ffffff" stroke="#000000" points="543,-76.5 543,-95.5 638,-95.5 638,-76.5 543,-76.5"/>
<text text-anchor="middle" x="590.5" y="-83.5" font-family="Helvetica,sans-Serif" font-size="10.00" fill="#000000">omc_Tpl_pushIter</text>
</a>
</g>
</g>
<!-- Node361347&#45;&gt;Node361348 -->
<g id="edge6" class="edge">
<title>Node361347&#45;&gt;Node361348</title>
<path fill="none" stroke="#191970" d="M449.0746,-136.8109C469.581,-127.2695 497.0428,-115.0923 522,-106 529.3662,-103.3164 537.2763,-100.7374 545.0113,-98.3753"/>
<polygon fill="#191970" stroke="#191970" points="546.0724,-101.7114 554.6612,-95.5078 544.0785,-95.0013 546.0724,-101.7114"/>
</g>
<!-- Node361349 -->
<g id="node6" class="node">
<title>Node361349</title>
<g id="a_node6"><a xlink:href="../../df/da2/_codegen_cpp_common_8c.html#aeb592a3f01c414977ae08532e1aba07d" target="_top" xlink:title="omc_CodegenCppCommon\l_lm__55">
<polygon fill="#ffffff" stroke="#000000" points="522,-115 522,-145 659,-145 659,-115 522,-115"/>
<text text-anchor="start" x="530" y="-133" font-family="Helvetica,sans-Serif" font-size="10.00" fill="#000000">omc_CodegenCppCommon</text>
<text text-anchor="middle" x="590.5" y="-122" font-family="Helvetica,sans-Serif" font-size="10.00" fill="#000000">_lm__55</text>
</a>
</g>
</g>
<!-- Node361347&#45;&gt;Node361349 -->
<g id="edge7" class="edge">
<title>Node361347&#45;&gt;Node361349</title>
<path fill="none" stroke="#191970" d="M486.3713,-143.2418C494.7692,-142.1739 503.3987,-141.0765 511.9246,-139.9922"/>
<polygon fill="#191970" stroke="#191970" points="512.3871,-143.4617 521.8657,-138.7281 511.504,-136.5176 512.3871,-143.4617"/>
</g>
<!-- Node361354 -->
<g id="node11" class="node">
<title>Node361354</title>
<g id="a_node11"><a xlink:href="../../d7/d52/_tpl_8c.html#abda700a6d3553ffecd4d194dea81a179" target="_top" xlink:title="omc_Tpl_popIter">
<polygon fill="#ffffff" stroke="#000000" points="546,-164.5 546,-183.5 635,-183.5 635,-164.5 546,-164.5"/>
<text text-anchor="middle" x="590.5" y="-171.5" font-family="Helvetica,sans-Serif" font-size="10.00" fill="#000000">omc_Tpl_popIter</text>
</a>
</g>
</g>
<!-- Node361347&#45;&gt;Node361354 -->
<g id="edge13" class="edge">
<title>Node361347&#45;&gt;Node361354</title>
<path fill="none" stroke="#191970" d="M486.3713,-160.7582C502.8352,-162.8519 520.1889,-165.0587 535.9078,-167.0576"/>
<polygon fill="#191970" stroke="#191970" points="535.6138,-170.5484 545.9754,-168.3379 536.4969,-163.6043 535.6138,-170.5484"/>
</g>
<!-- Node361350 -->
<g id="node7" class="node">
<title>Node361350</title>
<g id="a_node7"><a xlink:href="../../df/da2/_codegen_cpp_common_8c.html#a056403326b7d6abbc7681836d5d806a9" target="_top" xlink:title="omc_CodegenCppCommon\l_subscriptStr">
<polygon fill="#ffffff" stroke="#000000" points="695,-115 695,-145 832,-145 832,-115 695,-115"/>
<text text-anchor="start" x="703" y="-133" font-family="Helvetica,sans-Serif" font-size="10.00" fill="#000000">omc_CodegenCppCommon</text>
<text text-anchor="middle" x="763.5" y="-122" font-family="Helvetica,sans-Serif" font-size="10.00" fill="#000000">_subscriptStr</text>
</a>
</g>
</g>
<!-- Node361349&#45;&gt;Node361350 -->
<g id="edge8" class="edge">
<title>Node361349&#45;&gt;Node361350</title>
<path fill="none" stroke="#191970" d="M659.3713,-130C667.678,-130 676.2111,-130 684.6466,-130"/>
<polygon fill="#191970" stroke="#191970" points="684.8657,-133.5001 694.8657,-130 684.8657,-126.5001 684.8657,-133.5001"/>
</g>
<!-- Node361349&#45;&gt;Node361353 -->
<g id="edge12" class="edge">
<title>Node361349&#45;&gt;Node361353</title>
<path fill="none" stroke="#191970" d="M639.1308,-114.9352C646.0042,-112.0446 652.8252,-108.734 659,-105 694.933,-83.2708 729.5582,-48.0965 748.5429,-27.1921"/>
<polygon fill="#191970" stroke="#191970" points="751.1946,-29.4774 755.2429,-19.6865 745.9725,-24.8158 751.1946,-29.4774"/>
</g>
<!-- Node361350&#45;&gt;Node361345 -->
<g id="edge11" class="edge">
<title>Node361350&#45;&gt;Node361345</title>
<path fill="none" stroke="#191970" d="M786.4056,-145.1207C815.1405,-164.0895 864.1492,-196.4416 893.1098,-215.5594"/>
<polygon fill="#191970" stroke="#191970" points="891.4832,-218.6794 901.757,-221.2677 895.3396,-212.8375 891.4832,-218.6794"/>
</g>
<!-- Node361350&#45;&gt;Node361351 -->
<g id="edge9" class="edge">
<title>Node361350&#45;&gt;Node361351</title>
<path fill="none" stroke="#191970" d="M802.1084,-114.8595C827.0061,-105.0956 859.0679,-92.5224 882.9102,-83.1725"/>
<polygon fill="#191970" stroke="#191970" points="884.2248,-86.4165 892.2567,-79.5072 881.6691,-79.8997 884.2248,-86.4165"/>
</g>
<!-- Node361352 -->
<g id="node9" class="node">
<title>Node361352</title>
<g id="a_node9"><a xlink:href="../../d2/d57/build_2include_2omc_2c_2meta_2meta__modelica__builtin_8h.html#a751bf2360cb3df6de97811998890b7ea" target="_top" xlink:title="intString">
<polygon fill="#ffffff" stroke="#000000" points="890,-120.5 890,-139.5 943,-139.5 943,-120.5 890,-120.5"/>
<text text-anchor="middle" x="916.5" y="-127.5" font-family="Helvetica,sans-Serif" font-size="10.00" fill="#000000">intString</text>
</a>
</g>
</g>
<!-- Node361350&#45;&gt;Node361352 -->
<g id="edge10" class="edge">
<title>Node361350&#45;&gt;Node361352</title>
<path fill="none" stroke="#191970" d="M832.3911,-130C848.5717,-130 865.2109,-130 879.3745,-130"/>
<polygon fill="#191970" stroke="#191970" points="879.6744,-133.5001 889.6744,-130 879.6743,-126.5001 879.6744,-133.5001"/>
</g>
</g>
</svg>
