<?xml version="1.0" encoding="UTF-8" standalone="no"?>
<!DOCTYPE svg PUBLIC "-//W3C//DTD SVG 1.1//EN"
 "http://www.w3.org/Graphics/SVG/1.1/DTD/svg11.dtd">
<!-- Generated by graphviz version 2.40.1 (20161225.0304)
 -->
<!-- Title: omc_CodegenCpp_lm__65 Pages: 1 -->
<svg width="1060pt" height="83pt"
 viewBox="0.00 0.00 1060.00 83.00" xmlns="http://www.w3.org/2000/svg" xmlns:xlink="http://www.w3.org/1999/xlink">
<g id="graph0" class="graph" transform="scale(1 1) rotate(0) translate(4 79)">
<title>omc_CodegenCpp_lm__65</title>
<polygon fill="#ffffff" stroke="transparent" points="-4,4 -4,-79 1056,-79 1056,4 -4,4"/>
<!-- Node368762 -->
<g id="node1" class="node">
<title>Node368762</title>
<polygon fill="#bfbfbf" stroke="#000000" points="0,-28 0,-47 134,-47 134,-28 0,-28"/>
<text text-anchor="middle" x="67" y="-35" font-family="Helvetica,sans-Serif" font-size="10.00" fill="#000000">omc_CodegenCpp_lm__65</text>
</g>
<!-- Node368763 -->
<g id="node2" class="node">
<title>Node368763</title>
<g id="a_node2"><a xlink:href="../../d0/df9/_codegen_cpp_8c.html#a03b64bea78f1aaf8cc3861dc1ca0e426" target="_top" xlink:title="omc_CodegenCpp_lm__66">
<polygon fill="#ffffff" stroke="#000000" points="170,-28 170,-47 304,-47 304,-28 170,-28"/>
<text text-anchor="middle" x="237" y="-35" font-family="Helvetica,sans-Serif" font-size="10.00" fill="#000000">omc_CodegenCpp_lm__66</text>
</a>
</g>
</g>
<!-- Node368762&#45;&gt;Node368763 -->
<g id="edge1" class="edge">
<title>Node368762&#45;&gt;Node368763</title>
<path fill="none" stroke="#191970" d="M144.4246,-37.5C152.8759,-37.5 161.4279,-37.5 169.7428,-37.5"/>
<polygon fill="#191970" stroke="#191970" points="144.1885,-34.0001 134.1885,-37.5 144.1885,-41.0001 144.1885,-34.0001"/>
</g>
<!-- Node368764 -->
<g id="node3" class="node">
<title>Node368764</title>
<g id="a_node3"><a xlink:href="../../d6/d8e/_codegen_cpp_8h.html#affd623d6570d91dd1b1e6e70b036bdb4" target="_top" xlink:title="omc_CodegenCpp_simulation\lJacobianHeaderFile">
<polygon fill="#ffffff" stroke="#000000" points="340,-22.5 340,-52.5 487,-52.5 487,-22.5 340,-22.5"/>
<text text-anchor="start" x="348" y="-40.5" font-family="Helvetica,sans-Serif" font-size="10.00" fill="#000000">omc_CodegenCpp_simulation</text>
<text text-anchor="middle" x="413.5" y="-29.5" font-family="Helvetica,sans-Serif" font-size="10.00" fill="#000000">JacobianHeaderFile</text>
</a>
</g>
</g>
<!-- Node368763&#45;&gt;Node368764 -->
<g id="edge2" class="edge">
<title>Node368763&#45;&gt;Node368764</title>
<path fill="none" stroke="#191970" d="M314.4779,-37.5C322.951,-37.5 331.5587,-37.5 339.982,-37.5"/>
<polygon fill="#191970" stroke="#191970" points="314.2306,-34.0001 304.2306,-37.5 314.2305,-41.0001 314.2306,-34.0001"/>
</g>
<!-- Node368765 -->
<g id="node4" class="node">
<title>Node368765</title>
<g id="a_node4"><a xlink:href="../../d6/d8e/_codegen_cpp_8h.html#a980dae52c876b4cbf38e50075d88945b" target="_top" xlink:title="boxptr_CodegenCpp_simulation\lJacobianHeaderFile">
<polygon fill="#ffffff" stroke="#000000" points="523,-44.5 523,-74.5 678,-74.5 678,-44.5 523,-44.5"/>
<text text-anchor="start" x="531" y="-62.5" font-family="Helvetica,sans-Serif" font-size="10.00" fill="#000000">boxptr_CodegenCpp_simulation</text>
<text text-anchor="middle" x="600.5" y="-51.5" font-family="Helvetica,sans-Serif" font-size="10.00" fill="#000000">JacobianHeaderFile</text>
</a>
</g>
</g>
<!-- Node368764&#45;&gt;Node368765 -->
<g id="edge3" class="edge">
<title>Node368764&#45;&gt;Node368765</title>
<path fill="none" stroke="#191970" d="M497.1427,-47.3403C505.7233,-48.3498 514.4158,-49.3724 522.9269,-50.3738"/>
<polygon fill="#191970" stroke="#191970" points="497.4794,-43.8559 487.1389,-46.1634 496.6614,-50.8079 497.4794,-43.8559"/>
</g>
<!-- Node368766 -->
<g id="node5" class="node">
<title>Node368766</title>
<g id="a_node5"><a xlink:href="../../d0/df9/_codegen_cpp_8c.html#aa7c7709a5cda769632291bb6f29d8b29" target="_top" xlink:title="omc_CodegenCpp_fun__46">
<polygon fill="#ffffff" stroke="#000000" points="532,-6 532,-25 669,-25 669,-6 532,-6"/>
<text text-anchor="middle" x="600.5" y="-13" font-family="Helvetica,sans-Serif" font-size="10.00" fill="#000000">omc_CodegenCpp_fun__46</text>
</a>
</g>
</g>
<!-- Node368764&#45;&gt;Node368766 -->
<g id="edge4" class="edge">
<title>Node368764&#45;&gt;Node368766</title>
<path fill="none" stroke="#191970" d="M497.2303,-27.6494C508.7932,-26.289 520.5576,-24.905 531.8057,-23.5817"/>
<polygon fill="#191970" stroke="#191970" points="496.6615,-24.1921 487.1389,-28.8366 497.4794,-31.1441 496.6615,-24.1921"/>
</g>
<!-- Node368767 -->
<g id="node6" class="node">
<title>Node368767</title>
<g id="a_node6"><a xlink:href="../../d6/d8e/_codegen_cpp_8h.html#a54676ae5ee46975a3ec1566a9856625c" target="_top" xlink:title="omc_CodegenCpp_translate\lModel">
<polygon fill="#ffffff" stroke="#000000" points="714,-.5 714,-30.5 854,-30.5 854,-.5 714,-.5"/>
<text text-anchor="start" x="722" y="-18.5" font-family="Helvetica,sans-Serif" font-size="10.00" fill="#000000">omc_CodegenCpp_translate</text>
<text text-anchor="middle" x="784" y="-7.5" font-family="Helvetica,sans-Serif" font-size="10.00" fill="#000000">Model</text>
</a>
</g>
</g>
<!-- Node368766&#45;&gt;Node368767 -->
<g id="edge5" class="edge">
<title>Node368766&#45;&gt;Node368767</title>
<path fill="none" stroke="#191970" d="M679.164,-15.5C690.7326,-15.5 702.5846,-15.5 713.9639,-15.5"/>
<polygon fill="#191970" stroke="#191970" points="679.0896,-12.0001 669.0896,-15.5 679.0895,-19.0001 679.0896,-12.0001"/>
</g>
<!-- Node368768 -->
<g id="node7" class="node">
<title>Node368768</title>
<g id="a_node7"><a xlink:href="../../d5/d4c/_codegen_f_m_u_cpp_8h.html#a1fc774045fbfd7b6dc9872f8b61ccdad" target="_top" xlink:title="omc_CodegenFMUCpp_translate\lModel">
<polygon fill="#ffffff" stroke="#000000" points="890,-.5 890,-30.5 1052,-30.5 1052,-.5 890,-.5"/>
<text text-anchor="start" x="898" y="-18.5" font-family="Helvetica,sans-Serif" font-size="10.00" fill="#000000">omc_CodegenFMUCpp_translate</text>
<text text-anchor="middle" x="971" y="-7.5" font-family="Helvetica,sans-Serif" font-size="10.00" fill="#000000">Model</text>
</a>
</g>
</g>
<!-- Node368767&#45;&gt;Node368768 -->
<g id="edge6" class="edge">
<title>Node368767&#45;&gt;Node368768</title>
<path fill="none" stroke="#191970" d="M864.3393,-15.5C872.7557,-15.5 881.3173,-15.5 889.744,-15.5"/>
<polygon fill="#191970" stroke="#191970" points="864.164,-12.0001 854.1639,-15.5 864.1639,-19.0001 864.164,-12.0001"/>
</g>
</g>
</svg>
