<?xml version="1.0" encoding="UTF-8" standalone="no"?>
<!DOCTYPE svg PUBLIC "-//W3C//DTD SVG 1.1//EN"
 "http://www.w3.org/Graphics/SVG/1.1/DTD/svg11.dtd">
<!-- Generated by graphviz version 2.40.1 (20161225.0304)
 -->
<!-- Title: omc_CodegenCpp_fun__1265 Pages: 1 -->
<svg width="2371pt" height="110pt"
 viewBox="0.00 0.00 2371.00 110.00" xmlns="http://www.w3.org/2000/svg" xmlns:xlink="http://www.w3.org/1999/xlink">
<g id="graph0" class="graph" transform="scale(1 1) rotate(0) translate(4 106)">
<title>omc_CodegenCpp_fun__1265</title>
<polygon fill="#ffffff" stroke="transparent" points="-4,4 -4,-106 2367,-106 2367,4 -4,4"/>
<!-- Node208538 -->
<g id="node1" class="node">
<title>Node208538</title>
<polygon fill="#bfbfbf" stroke="#000000" points="0,-46.5 0,-76.5 116,-76.5 116,-46.5 0,-46.5"/>
<text text-anchor="start" x="8" y="-64.5" font-family="Helvetica,sans-Serif" font-size="10.00" fill="#000000">omc_CodegenCpp_fun</text>
<text text-anchor="middle" x="58" y="-53.5" font-family="Helvetica,sans-Serif" font-size="10.00" fill="#000000">__1265</text>
</g>
<!-- Node208539 -->
<g id="node2" class="node">
<title>Node208539</title>
<g id="a_node2"><a xlink:href="../../d6/d8e/_codegen_cpp_8h.html#a29eff065b9850ef2efd89a42f49521a2" target="_top" xlink:title="omc_CodegenCpp_generateAlgloops\lSystemVariables2">
<polygon fill="#ffffff" stroke="#000000" points="152,-46.5 152,-76.5 330,-76.5 330,-46.5 152,-46.5"/>
<text text-anchor="start" x="160" y="-64.5" font-family="Helvetica,sans-Serif" font-size="10.00" fill="#000000">omc_CodegenCpp_generateAlgloops</text>
<text text-anchor="middle" x="241" y="-53.5" font-family="Helvetica,sans-Serif" font-size="10.00" fill="#000000">SystemVariables2</text>
</a>
</g>
</g>
<!-- Node208538&#45;&gt;Node208539 -->
<g id="edge1" class="edge">
<title>Node208538&#45;&gt;Node208539</title>
<path fill="none" stroke="#191970" d="M126.2265,-61.5C134.615,-61.5 143.2831,-61.5 151.9223,-61.5"/>
<polygon fill="#191970" stroke="#191970" points="126.1538,-58.0001 116.1538,-61.5 126.1538,-65.0001 126.1538,-58.0001"/>
</g>
<!-- Node208540 -->
<g id="node3" class="node">
<title>Node208540</title>
<g id="a_node3"><a xlink:href="../../d0/df9/_codegen_cpp_8c.html#aa2632880fc943aff9889ce33f5854f66" target="_top" xlink:title="omc_CodegenCpp_smf\l__1262">
<polygon fill="#ffffff" stroke="#000000" points="366,-46.5 366,-76.5 485,-76.5 485,-46.5 366,-46.5"/>
<text text-anchor="start" x="374" y="-64.5" font-family="Helvetica,sans-Serif" font-size="10.00" fill="#000000">omc_CodegenCpp_smf</text>
<text text-anchor="middle" x="425.5" y="-53.5" font-family="Helvetica,sans-Serif" font-size="10.00" fill="#000000">__1262</text>
</a>
</g>
</g>
<!-- Node208539&#45;&gt;Node208540 -->
<g id="edge2" class="edge">
<title>Node208539&#45;&gt;Node208540</title>
<path fill="none" stroke="#191970" d="M340.2695,-61.5C348.9944,-61.5 357.635,-61.5 365.8768,-61.5"/>
<polygon fill="#191970" stroke="#191970" points="340.0075,-58.0001 330.0074,-61.5 340.0074,-65.0001 340.0075,-58.0001"/>
</g>
<!-- Node208541 -->
<g id="node4" class="node">
<title>Node208541</title>
<g id="a_node4"><a xlink:href="../../d0/df9/_codegen_cpp_8c.html#a5f872e7e81ffefc048cbe38cfbf44879" target="_top" xlink:title="omc_CodegenCpp_lm__1263">
<polygon fill="#ffffff" stroke="#000000" points="521,-52 521,-71 666,-71 666,-52 521,-52"/>
<text text-anchor="middle" x="593.5" y="-59" font-family="Helvetica,sans-Serif" font-size="10.00" fill="#000000">omc_CodegenCpp_lm__1263</text>
</a>
</g>
</g>
<!-- Node208540&#45;&gt;Node208541 -->
<g id="edge3" class="edge">
<title>Node208540&#45;&gt;Node208541</title>
<path fill="none" stroke="#191970" d="M495.3249,-61.5C503.7209,-61.5 512.3115,-61.5 520.7479,-61.5"/>
<polygon fill="#191970" stroke="#191970" points="495.2036,-58.0001 485.2035,-61.5 495.2035,-65.0001 495.2036,-58.0001"/>
</g>
<!-- Node208542 -->
<g id="node5" class="node">
<title>Node208542</title>
<g id="a_node5"><a xlink:href="../../d6/d8e/_codegen_cpp_8h.html#a732416e481640865a458e3ce7dc2afde" target="_top" xlink:title="omc_CodegenCpp_generateAlgloops\lSystemVariables">
<polygon fill="#ffffff" stroke="#000000" points="702,-46.5 702,-76.5 880,-76.5 880,-46.5 702,-46.5"/>
<text text-anchor="start" x="710" y="-64.5" font-family="Helvetica,sans-Serif" font-size="10.00" fill="#000000">omc_CodegenCpp_generateAlgloops</text>
<text text-anchor="middle" x="791" y="-53.5" font-family="Helvetica,sans-Serif" font-size="10.00" fill="#000000">SystemVariables</text>
</a>
</g>
</g>
<!-- Node208541&#45;&gt;Node208542 -->
<g id="edge4" class="edge">
<title>Node208541&#45;&gt;Node208542</title>
<path fill="none" stroke="#191970" d="M676.3267,-61.5C684.7062,-61.5 693.2428,-61.5 701.6865,-61.5"/>
<polygon fill="#191970" stroke="#191970" points="676.2003,-58.0001 666.2003,-61.5 676.2003,-65.0001 676.2003,-58.0001"/>
</g>
<!-- Node208543 -->
<g id="node6" class="node">
<title>Node208543</title>
<g id="a_node6"><a xlink:href="../../d0/df9/_codegen_cpp_8c.html#ad89a1a22590887b820bebdea8aa451ee" target="_top" xlink:title="omc_CodegenCpp_fun__814">
<polygon fill="#ffffff" stroke="#000000" points="1268,-52 1268,-71 1411,-71 1411,-52 1268,-52"/>
<text text-anchor="middle" x="1339.5" y="-59" font-family="Helvetica,sans-Serif" font-size="10.00" fill="#000000">omc_CodegenCpp_fun__814</text>
</a>
</g>
</g>
<!-- Node208542&#45;&gt;Node208543 -->
<g id="edge5" class="edge">
<title>Node208542&#45;&gt;Node208543</title>
<path fill="none" stroke="#191970" d="M890.0435,-61.5C998.8658,-61.5 1171.0015,-61.5 1267.6105,-61.5"/>
<polygon fill="#191970" stroke="#191970" points="890.041,-58.0001 880.041,-61.5 890.041,-65.0001 890.041,-58.0001"/>
</g>
<!-- Node208551 -->
<g id="node14" class="node">
<title>Node208551</title>
<g id="a_node14"><a xlink:href="../../d0/df9/_codegen_cpp_8c.html#a067be58afde37c7eff4905f54ce9c278" target="_top" xlink:title="omc_CodegenCpp_lm__807">
<polygon fill="#ffffff" stroke="#000000" points="916,-33 916,-52 1056,-52 1056,-33 916,-33"/>
<text text-anchor="middle" x="986" y="-40" font-family="Helvetica,sans-Serif" font-size="10.00" fill="#000000">omc_CodegenCpp_lm__807</text>
</a>
</g>
</g>
<!-- Node208542&#45;&gt;Node208551 -->
<g id="edge13" class="edge">
<title>Node208542&#45;&gt;Node208551</title>
<path fill="none" stroke="#191970" d="M890.3179,-51.8229C898.9217,-50.9846 907.5066,-50.1481 915.8045,-49.3396"/>
<polygon fill="#191970" stroke="#191970" points="889.8386,-48.3529 880.2252,-52.8063 890.5175,-55.3199 889.8386,-48.3529"/>
</g>
<!-- Node208544 -->
<g id="node7" class="node">
<title>Node208544</title>
<g id="a_node7"><a xlink:href="../../d6/d8e/_codegen_cpp_8h.html#a5d7c1c02482548c6bf595b53a52332d6" target="_top" xlink:title="omc_CodegenCpp_generateClass\lDeclarationCode">
<polygon fill="#ffffff" stroke="#000000" points="1447,-46.5 1447,-76.5 1613,-76.5 1613,-46.5 1447,-46.5"/>
<text text-anchor="start" x="1455" y="-64.5" font-family="Helvetica,sans-Serif" font-size="10.00" fill="#000000">omc_CodegenCpp_generateClass</text>
<text text-anchor="middle" x="1530" y="-53.5" font-family="Helvetica,sans-Serif" font-size="10.00" fill="#000000">DeclarationCode</text>
</a>
</g>
</g>
<!-- Node208543&#45;&gt;Node208544 -->
<g id="edge6" class="edge">
<title>Node208543&#45;&gt;Node208544</title>
<path fill="none" stroke="#191970" d="M1421.4156,-61.5C1429.8232,-61.5 1438.3722,-61.5 1446.7936,-61.5"/>
<polygon fill="#191970" stroke="#191970" points="1421.2485,-58.0001 1411.2484,-61.5 1421.2484,-65.0001 1421.2485,-58.0001"/>
</g>
<!-- Node208545 -->
<g id="node8" class="node">
<title>Node208545</title>
<g id="a_node8"><a xlink:href="../../d6/d8e/_codegen_cpp_8h.html#af93ea1c3c866e17120b77bbc7a6c0433" target="_top" xlink:title="boxptr_CodegenCpp_generate\lClassDeclarationCode">
<polygon fill="#ffffff" stroke="#000000" points="1649,-71.5 1649,-101.5 1798,-101.5 1798,-71.5 1649,-71.5"/>
<text text-anchor="start" x="1657" y="-89.5" font-family="Helvetica,sans-Serif" font-size="10.00" fill="#000000">boxptr_CodegenCpp_generate</text>
<text text-anchor="middle" x="1723.5" y="-78.5" font-family="Helvetica,sans-Serif" font-size="10.00" fill="#000000">ClassDeclarationCode</text>
</a>
</g>
</g>
<!-- Node208544&#45;&gt;Node208545 -->
<g id="edge7" class="edge">
<title>Node208544&#45;&gt;Node208545</title>
<path fill="none" stroke="#191970" d="M1623.2596,-73.549C1631.8706,-74.6616 1640.5185,-75.7789 1648.93,-76.8656"/>
<polygon fill="#191970" stroke="#191970" points="1623.5505,-70.0576 1613.1844,-72.2473 1622.6535,-76.9999 1623.5505,-70.0576"/>
</g>
<!-- Node208546 -->
<g id="node9" class="node">
<title>Node208546</title>
<g id="a_node9"><a xlink:href="../../d6/d8e/_codegen_cpp_8h.html#ad1f2c2b6ce251e824c45cde3a79307da" target="_top" xlink:title="omc_CodegenCpp_simulation\lHeaderFile">
<polygon fill="#ffffff" stroke="#000000" points="1650,-22.5 1650,-52.5 1797,-52.5 1797,-22.5 1650,-22.5"/>
<text text-anchor="start" x="1658" y="-40.5" font-family="Helvetica,sans-Serif" font-size="10.00" fill="#000000">omc_CodegenCpp_simulation</text>
<text text-anchor="middle" x="1723.5" y="-29.5" font-family="Helvetica,sans-Serif" font-size="10.00" fill="#000000">HeaderFile</text>
</a>
</g>
</g>
<!-- Node208544&#45;&gt;Node208546 -->
<g id="edge8" class="edge">
<title>Node208544&#45;&gt;Node208546</title>
<path fill="none" stroke="#191970" d="M1623.233,-49.9362C1632.1626,-48.8287 1641.1323,-47.7162 1649.8371,-46.6365"/>
<polygon fill="#191970" stroke="#191970" points="1622.6775,-46.4782 1613.1844,-51.1826 1623.5392,-53.425 1622.6775,-46.4782"/>
</g>
<!-- Node208547 -->
<g id="node10" class="node">
<title>Node208547</title>
<g id="a_node10"><a xlink:href="../../d6/d8e/_codegen_cpp_8h.html#a7457b9a8fab6b86f989c15710f1c111a" target="_top" xlink:title="boxptr_CodegenCpp_simulation\lHeaderFile">
<polygon fill="#ffffff" stroke="#000000" points="1834,-44.5 1834,-74.5 1989,-74.5 1989,-44.5 1834,-44.5"/>
<text text-anchor="start" x="1842" y="-62.5" font-family="Helvetica,sans-Serif" font-size="10.00" fill="#000000">boxptr_CodegenCpp_simulation</text>
<text text-anchor="middle" x="1911.5" y="-51.5" font-family="Helvetica,sans-Serif" font-size="10.00" fill="#000000">HeaderFile</text>
</a>
</g>
</g>
<!-- Node208546&#45;&gt;Node208547 -->
<g id="edge9" class="edge">
<title>Node208546&#45;&gt;Node208547</title>
<path fill="none" stroke="#191970" d="M1807.2231,-47.2974C1816.1068,-48.337 1825.1144,-49.391 1833.9234,-50.4219"/>
<polygon fill="#191970" stroke="#191970" points="1807.602,-43.8179 1797.263,-46.1318 1806.7884,-50.7705 1807.602,-43.8179"/>
</g>
<!-- Node208548 -->
<g id="node11" class="node">
<title>Node208548</title>
<g id="a_node11"><a xlink:href="../../d0/df9/_codegen_cpp_8c.html#aa7c7709a5cda769632291bb6f29d8b29" target="_top" xlink:title="omc_CodegenCpp_fun__46">
<polygon fill="#ffffff" stroke="#000000" points="1843,-6 1843,-25 1980,-25 1980,-6 1843,-6"/>
<text text-anchor="middle" x="1911.5" y="-13" font-family="Helvetica,sans-Serif" font-size="10.00" fill="#000000">omc_CodegenCpp_fun__46</text>
</a>
</g>
</g>
<!-- Node208546&#45;&gt;Node208548 -->
<g id="edge10" class="edge">
<title>Node208546&#45;&gt;Node208548</title>
<path fill="none" stroke="#191970" d="M1807.206,-27.7046C1819.1258,-26.3098 1831.2691,-24.8887 1842.8567,-23.5327"/>
<polygon fill="#191970" stroke="#191970" points="1806.7884,-24.2295 1797.263,-28.8682 1807.602,-31.1821 1806.7884,-24.2295"/>
</g>
<!-- Node208549 -->
<g id="node12" class="node">
<title>Node208549</title>
<g id="a_node12"><a xlink:href="../../d6/d8e/_codegen_cpp_8h.html#a54676ae5ee46975a3ec1566a9856625c" target="_top" xlink:title="omc_CodegenCpp_translate\lModel">
<polygon fill="#ffffff" stroke="#000000" points="2025,-.5 2025,-30.5 2165,-30.5 2165,-.5 2025,-.5"/>
<text text-anchor="start" x="2033" y="-18.5" font-family="Helvetica,sans-Serif" font-size="10.00" fill="#000000">omc_CodegenCpp_translate</text>
<text text-anchor="middle" x="2095" y="-7.5" font-family="Helvetica,sans-Serif" font-size="10.00" fill="#000000">Model</text>
</a>
</g>
</g>
<!-- Node208548&#45;&gt;Node208549 -->
<g id="edge11" class="edge">
<title>Node208548&#45;&gt;Node208549</title>
<path fill="none" stroke="#191970" d="M1990.164,-15.5C2001.7326,-15.5 2013.5846,-15.5 2024.9639,-15.5"/>
<polygon fill="#191970" stroke="#191970" points="1990.0896,-12.0001 1980.0896,-15.5 1990.0895,-19.0001 1990.0896,-12.0001"/>
</g>
<!-- Node208550 -->
<g id="node13" class="node">
<title>Node208550</title>
<g id="a_node13"><a xlink:href="../../d5/d4c/_codegen_f_m_u_cpp_8h.html#a1fc774045fbfd7b6dc9872f8b61ccdad" target="_top" xlink:title="omc_CodegenFMUCpp_translate\lModel">
<polygon fill="#ffffff" stroke="#000000" points="2201,-.5 2201,-30.5 2363,-30.5 2363,-.5 2201,-.5"/>
<text text-anchor="start" x="2209" y="-18.5" font-family="Helvetica,sans-Serif" font-size="10.00" fill="#000000">omc_CodegenFMUCpp_translate</text>
<text text-anchor="middle" x="2282" y="-7.5" font-family="Helvetica,sans-Serif" font-size="10.00" fill="#000000">Model</text>
</a>
</g>
</g>
<!-- Node208549&#45;&gt;Node208550 -->
<g id="edge12" class="edge">
<title>Node208549&#45;&gt;Node208550</title>
<path fill="none" stroke="#191970" d="M2175.3393,-15.5C2183.7557,-15.5 2192.3173,-15.5 2200.744,-15.5"/>
<polygon fill="#191970" stroke="#191970" points="2175.164,-12.0001 2165.1639,-15.5 2175.1639,-19.0001 2175.164,-12.0001"/>
</g>
<!-- Node208552 -->
<g id="node15" class="node">
<title>Node208552</title>
<g id="a_node15"><a xlink:href="../../d0/df9/_codegen_cpp_8c.html#afa3fbb4ed3a755a3464db7ed8e045e42" target="_top" xlink:title="omc_CodegenCpp_lm__808">
<polygon fill="#ffffff" stroke="#000000" points="1092,-33 1092,-52 1232,-52 1232,-33 1092,-33"/>
<text text-anchor="middle" x="1162" y="-40" font-family="Helvetica,sans-Serif" font-size="10.00" fill="#000000">omc_CodegenCpp_lm__808</text>
</a>
</g>
</g>
<!-- Node208551&#45;&gt;Node208552 -->
<g id="edge14" class="edge">
<title>Node208551&#45;&gt;Node208552</title>
<path fill="none" stroke="#191970" d="M1066.1006,-42.5C1074.7058,-42.5 1083.4124,-42.5 1091.888,-42.5"/>
<polygon fill="#191970" stroke="#191970" points="1066.0656,-39.0001 1056.0656,-42.5 1066.0655,-46.0001 1066.0656,-39.0001"/>
</g>
<!-- Node208552&#45;&gt;Node208543 -->
<g id="edge15" class="edge">
<title>Node208552&#45;&gt;Node208543</title>
<path fill="none" stroke="#191970" d="M1242.1341,-51.0777C1250.6956,-51.9942 1259.365,-52.9222 1267.8196,-53.8272"/>
<polygon fill="#191970" stroke="#191970" points="1242.4684,-47.5936 1232.1527,-50.0093 1241.7233,-54.5539 1242.4684,-47.5936"/>
</g>
</g>
</svg>
