<?xml version="1.0" encoding="UTF-8" standalone="no"?>
<!DOCTYPE svg PUBLIC "-//W3C//DTD SVG 1.1//EN"
 "http://www.w3.org/Graphics/SVG/1.1/DTD/svg11.dtd">
<!-- Generated by graphviz version 2.40.1 (20161225.0304)
 -->
<!-- Title: omc_CodegenCpp_giveVariablesDefault Pages: 1 -->
<svg width="533pt" height="83pt"
 viewBox="0.00 0.00 533.00 83.00" xmlns="http://www.w3.org/2000/svg" xmlns:xlink="http://www.w3.org/1999/xlink">
<g id="graph0" class="graph" transform="scale(1 1) rotate(0) translate(4 79)">
<title>omc_CodegenCpp_giveVariablesDefault</title>
<polygon fill="#ffffff" stroke="transparent" points="-4,4 -4,-79 529,-79 529,4 -4,4"/>
<!-- Node310106 -->
<g id="node1" class="node">
<title>Node310106</title>
<polygon fill="#bfbfbf" stroke="#000000" points="0,-22.5 0,-52.5 161,-52.5 161,-22.5 0,-22.5"/>
<text text-anchor="start" x="8" y="-40.5" font-family="Helvetica,sans-Serif" font-size="10.00" fill="#000000">omc_CodegenCpp_giveVariables</text>
<text text-anchor="middle" x="80.5" y="-29.5" font-family="Helvetica,sans-Serif" font-size="10.00" fill="#000000">Default</text>
</g>
<!-- Node310107 -->
<g id="node2" class="node">
<title>Node310107</title>
<g id="a_node2"><a xlink:href="../../d6/d8e/_codegen_cpp_8h.html#a2b6feb5d3a90274cef94ccd619f2685c" target="_top" xlink:title="boxptr_CodegenCpp_giveVariables\lDefault">
<polygon fill="#ffffff" stroke="#000000" points="197,-44.5 197,-74.5 367,-74.5 367,-44.5 197,-44.5"/>
<text text-anchor="start" x="205" y="-62.5" font-family="Helvetica,sans-Serif" font-size="10.00" fill="#000000">boxptr_CodegenCpp_giveVariables</text>
<text text-anchor="middle" x="282" y="-51.5" font-family="Helvetica,sans-Serif" font-size="10.00" fill="#000000">Default</text>
</a>
</g>
</g>
<!-- Node310106&#45;&gt;Node310107 -->
<g id="edge1" class="edge">
<title>Node310106&#45;&gt;Node310107</title>
<path fill="none" stroke="#191970" d="M171.0729,-47.3889C179.7002,-48.3308 188.428,-49.2837 196.9999,-50.2196"/>
<polygon fill="#191970" stroke="#191970" points="171.3277,-43.896 161.0068,-46.2898 170.5679,-50.8546 171.3277,-43.896"/>
</g>
<!-- Node310108 -->
<g id="node3" class="node">
<title>Node310108</title>
<g id="a_node3"><a xlink:href="../../d0/df9/_codegen_cpp_8c.html#a87774c933b55d2c5a1a323f32f7c9021" target="_top" xlink:title="omc_CodegenCpp_lm__1639">
<polygon fill="#ffffff" stroke="#000000" points="209.5,-6 209.5,-25 354.5,-25 354.5,-6 209.5,-6"/>
<text text-anchor="middle" x="282" y="-13" font-family="Helvetica,sans-Serif" font-size="10.00" fill="#000000">omc_CodegenCpp_lm__1639</text>
</a>
</g>
</g>
<!-- Node310106&#45;&gt;Node310108 -->
<g id="edge2" class="edge">
<title>Node310106&#45;&gt;Node310108</title>
<path fill="none" stroke="#191970" d="M171.2136,-27.5958C184.0189,-26.1977 197.0426,-24.7757 209.4463,-23.4215"/>
<polygon fill="#191970" stroke="#191970" points="170.5679,-24.1454 161.0068,-28.7102 171.3277,-31.104 170.5679,-24.1454"/>
</g>
<!-- Node310109 -->
<g id="node4" class="node">
<title>Node310109</title>
<g id="a_node4"><a xlink:href="../../d0/df9/_codegen_cpp_8c.html#a0bcd3c281cad863de0bc35d831a15335" target="_top" xlink:title="boxptr_CodegenCpp_lm\l__1639">
<polygon fill="#ffffff" stroke="#000000" points="403,-.5 403,-30.5 525,-30.5 525,-.5 403,-.5"/>
<text text-anchor="start" x="411" y="-18.5" font-family="Helvetica,sans-Serif" font-size="10.00" fill="#000000">boxptr_CodegenCpp_lm</text>
<text text-anchor="middle" x="464" y="-7.5" font-family="Helvetica,sans-Serif" font-size="10.00" fill="#000000">__1639</text>
</a>
</g>
</g>
<!-- Node310108&#45;&gt;Node310109 -->
<g id="edge3" class="edge">
<title>Node310108&#45;&gt;Node310109</title>
<path fill="none" stroke="#191970" d="M364.8883,-15.5C377.654,-15.5 390.6343,-15.5 402.8136,-15.5"/>
<polygon fill="#191970" stroke="#191970" points="364.7159,-12.0001 354.7159,-15.5 364.7158,-19.0001 364.7159,-12.0001"/>
</g>
</g>
</svg>
