<?xml version="1.0" encoding="UTF-8" standalone="no"?>
<!DOCTYPE svg PUBLIC "-//W3C//DTD SVG 1.1//EN"
 "http://www.w3.org/Graphics/SVG/1.1/DTD/svg11.dtd">
<!-- Generated by graphviz version 2.40.1 (20161225.0304)
 -->
<!-- Title: omc_CodegenCpp_simulationDAEMethods Pages: 1 -->
<svg width="917pt" height="105pt"
 viewBox="0.00 0.00 917.00 105.00" xmlns="http://www.w3.org/2000/svg" xmlns:xlink="http://www.w3.org/1999/xlink">
<g id="graph0" class="graph" transform="scale(1 1) rotate(0) translate(4 101)">
<title>omc_CodegenCpp_simulationDAEMethods</title>
<polygon fill="#ffffff" stroke="transparent" points="-4,4 -4,-101 913,-101 913,4 -4,4"/>
<!-- Node390080 -->
<g id="node1" class="node">
<title>Node390080</title>
<polygon fill="#bfbfbf" stroke="#000000" points="0,-44.5 0,-74.5 147,-74.5 147,-44.5 0,-44.5"/>
<text text-anchor="start" x="8" y="-62.5" font-family="Helvetica,sans-Serif" font-size="10.00" fill="#000000">omc_CodegenCpp_simulation</text>
<text text-anchor="middle" x="73.5" y="-51.5" font-family="Helvetica,sans-Serif" font-size="10.00" fill="#000000">DAEMethods</text>
</g>
<!-- Node390081 -->
<g id="node2" class="node">
<title>Node390081</title>
<g id="a_node2"><a xlink:href="../../d6/d8e/_codegen_cpp_8h.html#a892dbb7bfe689543836abc8c9abc9402" target="_top" xlink:title="boxptr_CodegenCpp_simulation\lDAEMethods">
<polygon fill="#ffffff" stroke="#000000" points="193.5,-66.5 193.5,-96.5 348.5,-96.5 348.5,-66.5 193.5,-66.5"/>
<text text-anchor="start" x="201.5" y="-84.5" font-family="Helvetica,sans-Serif" font-size="10.00" fill="#000000">boxptr_CodegenCpp_simulation</text>
<text text-anchor="middle" x="271" y="-73.5" font-family="Helvetica,sans-Serif" font-size="10.00" fill="#000000">DAEMethods</text>
</a>
</g>
</g>
<!-- Node390080&#45;&gt;Node390081 -->
<g id="edge1" class="edge">
<title>Node390080&#45;&gt;Node390081</title>
<path fill="none" stroke="#191970" d="M157.0791,-68.8101C169.1344,-70.1529 181.4986,-71.5302 193.4299,-72.8593"/>
<polygon fill="#191970" stroke="#191970" points="157.3677,-65.3207 147.0417,-67.692 156.5927,-72.2776 157.3677,-65.3207"/>
</g>
<!-- Node390082 -->
<g id="node3" class="node">
<title>Node390082</title>
<g id="a_node3"><a xlink:href="../../d6/d8e/_codegen_cpp_8h.html#ae8560ff391cfa0357fa1a63e68320179" target="_top" xlink:title="omc_CodegenCpp_updateResiduals">
<polygon fill="#ffffff" stroke="#000000" points="183,-28 183,-47 359,-47 359,-28 183,-28"/>
<text text-anchor="middle" x="271" y="-35" font-family="Helvetica,sans-Serif" font-size="10.00" fill="#000000">omc_CodegenCpp_updateResiduals</text>
</a>
</g>
</g>
<!-- Node390080&#45;&gt;Node390082 -->
<g id="edge2" class="edge">
<title>Node390080&#45;&gt;Node390082</title>
<path fill="none" stroke="#191970" d="M157.1106,-50.1864C166.4721,-49.1436 176.0196,-48.0801 185.4057,-47.0346"/>
<polygon fill="#191970" stroke="#191970" points="156.5927,-46.7224 147.0417,-51.308 157.3677,-53.6793 156.5927,-46.7224"/>
</g>
<!-- Node390083 -->
<g id="node4" class="node">
<title>Node390083</title>
<g id="a_node4"><a xlink:href="../../d6/d8e/_codegen_cpp_8h.html#af9a632f29b2f99ce3542b7627df381f8" target="_top" xlink:title="boxptr_CodegenCpp_update\lResiduals">
<polygon fill="#ffffff" stroke="#000000" points="395,-44.5 395,-74.5 535,-74.5 535,-44.5 395,-44.5"/>
<text text-anchor="start" x="403" y="-62.5" font-family="Helvetica,sans-Serif" font-size="10.00" fill="#000000">boxptr_CodegenCpp_update</text>
<text text-anchor="middle" x="465" y="-51.5" font-family="Helvetica,sans-Serif" font-size="10.00" fill="#000000">Residuals</text>
</a>
</g>
</g>
<!-- Node390082&#45;&gt;Node390083 -->
<g id="edge3" class="edge">
<title>Node390082&#45;&gt;Node390083</title>
<path fill="none" stroke="#191970" d="M364.9938,-48.1591C375.0551,-49.3001 385.1596,-50.4459 394.8737,-51.5475"/>
<polygon fill="#191970" stroke="#191970" points="365.2936,-44.6707 354.9629,-47.0216 364.5048,-51.6262 365.2936,-44.6707"/>
</g>
<!-- Node390084 -->
<g id="node5" class="node">
<title>Node390084</title>
<g id="a_node5"><a xlink:href="../../d0/df9/_codegen_cpp_8c.html#aa7c7709a5cda769632291bb6f29d8b29" target="_top" xlink:title="omc_CodegenCpp_fun__46">
<polygon fill="#ffffff" stroke="#000000" points="396.5,-6 396.5,-25 533.5,-25 533.5,-6 396.5,-6"/>
<text text-anchor="middle" x="465" y="-13" font-family="Helvetica,sans-Serif" font-size="10.00" fill="#000000">omc_CodegenCpp_fun__46</text>
</a>
</g>
</g>
<!-- Node390082&#45;&gt;Node390084 -->
<g id="edge4" class="edge">
<title>Node390082&#45;&gt;Node390084</title>
<path fill="none" stroke="#191970" d="M365.0542,-26.8341C375.6116,-25.6368 386.2154,-24.4343 396.3651,-23.2833"/>
<polygon fill="#191970" stroke="#191970" points="364.5048,-23.3738 354.9629,-27.9784 365.2936,-30.3293 364.5048,-23.3738"/>
</g>
<!-- Node390085 -->
<g id="node6" class="node">
<title>Node390085</title>
<g id="a_node6"><a xlink:href="../../d6/d8e/_codegen_cpp_8h.html#a54676ae5ee46975a3ec1566a9856625c" target="_top" xlink:title="omc_CodegenCpp_translate\lModel">
<polygon fill="#ffffff" stroke="#000000" points="571,-.5 571,-30.5 711,-30.5 711,-.5 571,-.5"/>
<text text-anchor="start" x="579" y="-18.5" font-family="Helvetica,sans-Serif" font-size="10.00" fill="#000000">omc_CodegenCpp_translate</text>
<text text-anchor="middle" x="641" y="-7.5" font-family="Helvetica,sans-Serif" font-size="10.00" fill="#000000">Model</text>
</a>
</g>
</g>
<!-- Node390084&#45;&gt;Node390085 -->
<g id="edge5" class="edge">
<title>Node390084&#45;&gt;Node390085</title>
<path fill="none" stroke="#191970" d="M543.7036,-15.5C552.7651,-15.5 561.9596,-15.5 570.8969,-15.5"/>
<polygon fill="#191970" stroke="#191970" points="543.5502,-12.0001 533.5502,-15.5 543.5501,-19.0001 543.5502,-12.0001"/>
</g>
<!-- Node390086 -->
<g id="node7" class="node">
<title>Node390086</title>
<g id="a_node7"><a xlink:href="../../d5/d4c/_codegen_f_m_u_cpp_8h.html#a1fc774045fbfd7b6dc9872f8b61ccdad" target="_top" xlink:title="omc_CodegenFMUCpp_translate\lModel">
<polygon fill="#ffffff" stroke="#000000" points="747,-.5 747,-30.5 909,-30.5 909,-.5 747,-.5"/>
<text text-anchor="start" x="755" y="-18.5" font-family="Helvetica,sans-Serif" font-size="10.00" fill="#000000">omc_CodegenFMUCpp_translate</text>
<text text-anchor="middle" x="828" y="-7.5" font-family="Helvetica,sans-Serif" font-size="10.00" fill="#000000">Model</text>
</a>
</g>
</g>
<!-- Node390085&#45;&gt;Node390086 -->
<g id="edge6" class="edge">
<title>Node390085&#45;&gt;Node390086</title>
<path fill="none" stroke="#191970" d="M721.3393,-15.5C729.7557,-15.5 738.3173,-15.5 746.744,-15.5"/>
<polygon fill="#191970" stroke="#191970" points="721.164,-12.0001 711.1639,-15.5 721.1639,-19.0001 721.164,-12.0001"/>
</g>
</g>
</svg>
