<?xml version="1.0" encoding="UTF-8" standalone="no"?>
<!DOCTYPE svg PUBLIC "-//W3C//DTD SVG 1.1//EN"
 "http://www.w3.org/Graphics/SVG/1.1/DTD/svg11.dtd">
<!-- Generated by graphviz version 2.40.1 (20161225.0304)
 -->
<!-- Title: omc_CodegenCpp_fun__356 Pages: 1 -->
<svg width="1269pt" height="116pt"
 viewBox="0.00 0.00 1269.00 115.50" xmlns="http://www.w3.org/2000/svg" xmlns:xlink="http://www.w3.org/1999/xlink">
<g id="graph0" class="graph" transform="scale(1 1) rotate(0) translate(4 111.5)">
<title>omc_CodegenCpp_fun__356</title>
<polygon fill="#ffffff" stroke="transparent" points="-4,4 -4,-111.5 1265,-111.5 1265,4 -4,4"/>
<!-- Node245454 -->
<g id="node1" class="node">
<title>Node245454</title>
<polygon fill="#bfbfbf" stroke="#000000" points="0,-19.5 0,-38.5 143,-38.5 143,-19.5 0,-19.5"/>
<text text-anchor="middle" x="71.5" y="-26.5" font-family="Helvetica,sans-Serif" font-size="10.00" fill="#000000">omc_CodegenCpp_fun__356</text>
</g>
<!-- Node245455 -->
<g id="node2" class="node">
<title>Node245455</title>
<g id="a_node2"><a xlink:href="../../d0/df9/_codegen_cpp_8c.html#a852642d75b568dab64cf7583cc11ab7b" target="_top" xlink:title="omc_CodegenCpp_fun__374">
<polygon fill="#ffffff" stroke="#000000" points="179,-19.5 179,-38.5 322,-38.5 322,-19.5 179,-19.5"/>
<text text-anchor="middle" x="250.5" y="-26.5" font-family="Helvetica,sans-Serif" font-size="10.00" fill="#000000">omc_CodegenCpp_fun__374</text>
</a>
</g>
</g>
<!-- Node245454&#45;&gt;Node245455 -->
<g id="edge1" class="edge">
<title>Node245454&#45;&gt;Node245455</title>
<path fill="none" stroke="#191970" d="M153.0428,-29C161.6381,-29 170.3321,-29 178.8042,-29"/>
<polygon fill="#191970" stroke="#191970" points="153.0173,-25.5001 143.0172,-29 153.0172,-32.5001 153.0173,-25.5001"/>
</g>
<!-- Node245456 -->
<g id="node3" class="node">
<title>Node245456</title>
<g id="a_node3"><a xlink:href="../../d0/df9/_codegen_cpp_8c.html#a8d4898836bebad31337e7f27dc2660bf" target="_top" xlink:title="omc_CodegenCpp_fun__376">
<polygon fill="#ffffff" stroke="#000000" points="362,-38.5 362,-57.5 505,-57.5 505,-38.5 362,-38.5"/>
<text text-anchor="middle" x="433.5" y="-45.5" font-family="Helvetica,sans-Serif" font-size="10.00" fill="#000000">omc_CodegenCpp_fun__376</text>
</a>
</g>
</g>
<!-- Node245455&#45;&gt;Node245456 -->
<g id="edge2" class="edge">
<title>Node245455&#45;&gt;Node245456</title>
<path fill="none" stroke="#191970" d="M332.2122,-37.4838C342.0461,-38.5048 352.0325,-39.5416 361.7101,-40.5464"/>
<polygon fill="#191970" stroke="#191970" points="332.3468,-33.979 322.0388,-36.4275 331.6239,-40.9416 332.3468,-33.979"/>
</g>
<!-- Node245463 -->
<g id="node10" class="node">
<title>Node245463</title>
<g id="a_node10"><a xlink:href="../../d0/df9/_codegen_cpp_8c.html#a34848354f1b6dac2fdaf95d873a02699" target="_top" xlink:title="boxptr_CodegenCpp_fun__374">
<polygon fill="#ffffff" stroke="#000000" points="358,-.5 358,-19.5 509,-19.5 509,-.5 358,-.5"/>
<text text-anchor="middle" x="433.5" y="-7.5" font-family="Helvetica,sans-Serif" font-size="10.00" fill="#000000">boxptr_CodegenCpp_fun__374</text>
</a>
</g>
</g>
<!-- Node245455&#45;&gt;Node245463 -->
<g id="edge9" class="edge">
<title>Node245455&#45;&gt;Node245463</title>
<path fill="none" stroke="#191970" d="M332.0259,-20.5356C340.5952,-19.6459 349.2826,-18.7439 357.7826,-17.8614"/>
<polygon fill="#191970" stroke="#191970" points="331.6239,-17.0584 322.0388,-21.5725 332.3468,-24.021 331.6239,-17.0584"/>
</g>
<!-- Node245457 -->
<g id="node4" class="node">
<title>Node245457</title>
<g id="a_node4"><a xlink:href="../../d6/d8e/_codegen_cpp_8h.html#a24fc64eaeb1e57c446532b30a8374f4e" target="_top" xlink:title="omc_CodegenCpp_simulation\lMakefile">
<polygon fill="#ffffff" stroke="#000000" points="547,-55 547,-85 694,-85 694,-55 547,-55"/>
<text text-anchor="start" x="555" y="-73" font-family="Helvetica,sans-Serif" font-size="10.00" fill="#000000">omc_CodegenCpp_simulation</text>
<text text-anchor="middle" x="620.5" y="-62" font-family="Helvetica,sans-Serif" font-size="10.00" fill="#000000">Makefile</text>
</a>
</g>
</g>
<!-- Node245456&#45;&gt;Node245457 -->
<g id="edge3" class="edge">
<title>Node245456&#45;&gt;Node245457</title>
<path fill="none" stroke="#191970" d="M515.2391,-57.6164C525.7253,-58.85 536.4121,-60.1073 546.7604,-61.3248"/>
<polygon fill="#191970" stroke="#191970" points="515.6048,-54.1353 505.2643,-56.4429 514.7868,-61.0874 515.6048,-54.1353"/>
</g>
<!-- Node245462 -->
<g id="node9" class="node">
<title>Node245462</title>
<g id="a_node9"><a xlink:href="../../d0/df9/_codegen_cpp_8c.html#a604f973d2c93fb109b9d03aac3fd66f8" target="_top" xlink:title="boxptr_CodegenCpp_fun__376">
<polygon fill="#ffffff" stroke="#000000" points="545,-16.5 545,-35.5 696,-35.5 696,-16.5 545,-16.5"/>
<text text-anchor="middle" x="620.5" y="-23.5" font-family="Helvetica,sans-Serif" font-size="10.00" fill="#000000">boxptr_CodegenCpp_fun__376</text>
</a>
</g>
</g>
<!-- Node245456&#45;&gt;Node245462 -->
<g id="edge8" class="edge">
<title>Node245456&#45;&gt;Node245462</title>
<path fill="none" stroke="#191970" d="M515.4012,-38.3646C525.2064,-37.211 535.1843,-36.0371 544.8948,-34.8947"/>
<polygon fill="#191970" stroke="#191970" points="514.7868,-34.9126 505.2643,-39.5571 515.6048,-41.8647 514.7868,-34.9126"/>
</g>
<!-- Node245458 -->
<g id="node5" class="node">
<title>Node245458</title>
<g id="a_node5"><a xlink:href="../../d6/d8e/_codegen_cpp_8h.html#a3abde2c9199a2301715e37351d0ee7a8" target="_top" xlink:title="boxptr_CodegenCpp_simulation\lMakefile">
<polygon fill="#ffffff" stroke="#000000" points="732,-77 732,-107 887,-107 887,-77 732,-77"/>
<text text-anchor="start" x="740" y="-95" font-family="Helvetica,sans-Serif" font-size="10.00" fill="#000000">boxptr_CodegenCpp_simulation</text>
<text text-anchor="middle" x="809.5" y="-84" font-family="Helvetica,sans-Serif" font-size="10.00" fill="#000000">Makefile</text>
</a>
</g>
</g>
<!-- Node245457&#45;&gt;Node245458 -->
<g id="edge4" class="edge">
<title>Node245457&#45;&gt;Node245458</title>
<path fill="none" stroke="#191970" d="M704.3251,-79.7574C713.4364,-80.818 722.6818,-81.8942 731.7166,-82.9458"/>
<polygon fill="#191970" stroke="#191970" points="704.4512,-76.2485 694.1135,-78.5688 703.6418,-83.2016 704.4512,-76.2485"/>
</g>
<!-- Node245459 -->
<g id="node6" class="node">
<title>Node245459</title>
<g id="a_node6"><a xlink:href="../../d0/df9/_codegen_cpp_8c.html#aa7c7709a5cda769632291bb6f29d8b29" target="_top" xlink:title="omc_CodegenCpp_fun__46">
<polygon fill="#ffffff" stroke="#000000" points="741,-38.5 741,-57.5 878,-57.5 878,-38.5 741,-38.5"/>
<text text-anchor="middle" x="809.5" y="-45.5" font-family="Helvetica,sans-Serif" font-size="10.00" fill="#000000">omc_CodegenCpp_fun__46</text>
</a>
</g>
</g>
<!-- Node245457&#45;&gt;Node245459 -->
<g id="edge5" class="edge">
<title>Node245457&#45;&gt;Node245459</title>
<path fill="none" stroke="#191970" d="M704.2732,-60.2486C716.4572,-58.8304 728.8821,-57.3841 740.7237,-56.0057"/>
<polygon fill="#191970" stroke="#191970" points="703.6418,-56.7984 694.1135,-61.4312 704.4512,-63.7515 703.6418,-56.7984"/>
</g>
<!-- Node245460 -->
<g id="node7" class="node">
<title>Node245460</title>
<g id="a_node7"><a xlink:href="../../d6/d8e/_codegen_cpp_8h.html#a54676ae5ee46975a3ec1566a9856625c" target="_top" xlink:title="omc_CodegenCpp_translate\lModel">
<polygon fill="#ffffff" stroke="#000000" points="923,-33 923,-63 1063,-63 1063,-33 923,-33"/>
<text text-anchor="start" x="931" y="-51" font-family="Helvetica,sans-Serif" font-size="10.00" fill="#000000">omc_CodegenCpp_translate</text>
<text text-anchor="middle" x="993" y="-40" font-family="Helvetica,sans-Serif" font-size="10.00" fill="#000000">Model</text>
</a>
</g>
</g>
<!-- Node245459&#45;&gt;Node245460 -->
<g id="edge6" class="edge">
<title>Node245459&#45;&gt;Node245460</title>
<path fill="none" stroke="#191970" d="M888.164,-48C899.7326,-48 911.5846,-48 922.9639,-48"/>
<polygon fill="#191970" stroke="#191970" points="888.0896,-44.5001 878.0896,-48 888.0895,-51.5001 888.0896,-44.5001"/>
</g>
<!-- Node245461 -->
<g id="node8" class="node">
<title>Node245461</title>
<g id="a_node8"><a xlink:href="../../d5/d4c/_codegen_f_m_u_cpp_8h.html#a1fc774045fbfd7b6dc9872f8b61ccdad" target="_top" xlink:title="omc_CodegenFMUCpp_translate\lModel">
<polygon fill="#ffffff" stroke="#000000" points="1099,-33 1099,-63 1261,-63 1261,-33 1099,-33"/>
<text text-anchor="start" x="1107" y="-51" font-family="Helvetica,sans-Serif" font-size="10.00" fill="#000000">omc_CodegenFMUCpp_translate</text>
<text text-anchor="middle" x="1180" y="-40" font-family="Helvetica,sans-Serif" font-size="10.00" fill="#000000">Model</text>
</a>
</g>
</g>
<!-- Node245460&#45;&gt;Node245461 -->
<g id="edge7" class="edge">
<title>Node245460&#45;&gt;Node245461</title>
<path fill="none" stroke="#191970" d="M1073.3393,-48C1081.7557,-48 1090.3173,-48 1098.744,-48"/>
<polygon fill="#191970" stroke="#191970" points="1073.164,-44.5001 1063.1639,-48 1073.1639,-51.5001 1073.164,-44.5001"/>
</g>
</g>
</svg>
