<?xml version="1.0" encoding="UTF-8" standalone="no"?>
<!DOCTYPE svg PUBLIC "-//W3C//DTD SVG 1.1//EN"
 "http://www.w3.org/Graphics/SVG/1.1/DTD/svg11.dtd">
<!-- Generated by graphviz version 2.40.1 (20161225.0304)
 -->
<!-- Title: omc_CodegenCpp_zeroCrossingsTpl2 Pages: 1 -->
<svg width="1674pt" height="100pt"
 viewBox="0.00 0.00 1674.00 99.50" xmlns="http://www.w3.org/2000/svg" xmlns:xlink="http://www.w3.org/1999/xlink">
<g id="graph0" class="graph" transform="scale(1 1) rotate(0) translate(4 95.5)">
<title>omc_CodegenCpp_zeroCrossingsTpl2</title>
<polygon fill="#ffffff" stroke="transparent" points="-4,4 -4,-95.5 1670,-95.5 1670,4 -4,4"/>
<!-- Node405451 -->
<g id="node1" class="node">
<title>Node405451</title>
<polygon fill="#bfbfbf" stroke="#000000" points="0,-22.5 0,-41.5 185,-41.5 185,-22.5 0,-22.5"/>
<text text-anchor="middle" x="92.5" y="-29.5" font-family="Helvetica,sans-Serif" font-size="10.00" fill="#000000">omc_CodegenCpp_zeroCrossingsTpl2</text>
</g>
<!-- Node405452 -->
<g id="node2" class="node">
<title>Node405452</title>
<g id="a_node2"><a xlink:href="../../d6/d8e/_codegen_cpp_8h.html#a89e56ebc2a132431293e485bf7f42b8d" target="_top" xlink:title="omc_CodegenCpp_functionOnly\lZeroCrossing">
<polygon fill="#ffffff" stroke="#000000" points="221,-17 221,-47 379,-47 379,-17 221,-17"/>
<text text-anchor="start" x="229" y="-35" font-family="Helvetica,sans-Serif" font-size="10.00" fill="#000000">omc_CodegenCpp_functionOnly</text>
<text text-anchor="middle" x="300" y="-24" font-family="Helvetica,sans-Serif" font-size="10.00" fill="#000000">ZeroCrossing</text>
</a>
</g>
</g>
<!-- Node405451&#45;&gt;Node405452 -->
<g id="edge1" class="edge">
<title>Node405451&#45;&gt;Node405452</title>
<path fill="none" stroke="#191970" d="M195.1785,-32C203.8456,-32 212.5226,-32 220.9676,-32"/>
<polygon fill="#191970" stroke="#191970" points="195.0233,-28.5001 185.0232,-32 195.0232,-35.5001 195.0233,-28.5001"/>
</g>
<!-- Node405453 -->
<g id="node3" class="node">
<title>Node405453</title>
<g id="a_node3"><a xlink:href="../../d0/df9/_codegen_cpp_8c.html#a415810f2ec386743c5154c6c8f3edddc" target="_top" xlink:title="omc_CodegenCpp_fun__707">
<polygon fill="#ffffff" stroke="#000000" points="415,-22.5 415,-41.5 558,-41.5 558,-22.5 415,-22.5"/>
<text text-anchor="middle" x="486.5" y="-29.5" font-family="Helvetica,sans-Serif" font-size="10.00" fill="#000000">omc_CodegenCpp_fun__707</text>
</a>
</g>
</g>
<!-- Node405452&#45;&gt;Node405453 -->
<g id="edge2" class="edge">
<title>Node405452&#45;&gt;Node405453</title>
<path fill="none" stroke="#191970" d="M389.2018,-32C397.8465,-32 406.5378,-32 414.9776,-32"/>
<polygon fill="#191970" stroke="#191970" points="389.0928,-28.5001 379.0928,-32 389.0928,-35.5001 389.0928,-28.5001"/>
</g>
<!-- Node405454 -->
<g id="node4" class="node">
<title>Node405454</title>
<g id="a_node4"><a xlink:href="../../d6/d8e/_codegen_cpp_8h.html#ac0fff69f8c9828faabeef00a0442a80b" target="_top" xlink:title="omc_CodegenCpp_init">
<polygon fill="#ffffff" stroke="#000000" points="611.5,-41.5 611.5,-60.5 727.5,-60.5 727.5,-41.5 611.5,-41.5"/>
<text text-anchor="middle" x="669.5" y="-48.5" font-family="Helvetica,sans-Serif" font-size="10.00" fill="#000000">omc_CodegenCpp_init</text>
</a>
</g>
</g>
<!-- Node405453&#45;&gt;Node405454 -->
<g id="edge3" class="edge">
<title>Node405453&#45;&gt;Node405454</title>
<path fill="none" stroke="#191970" d="M568.0545,-40.4674C582.6269,-41.9804 597.5398,-43.5287 611.2912,-44.9565"/>
<polygon fill="#191970" stroke="#191970" points="568.3468,-36.979 558.0388,-39.4275 567.6239,-43.9416 568.3468,-36.979"/>
</g>
<!-- Node405463 -->
<g id="node13" class="node">
<title>Node405463</title>
<g id="a_node13"><a xlink:href="../../d0/df9/_codegen_cpp_8c.html#a7ae52fb5f2bdf010ad4d02561993ab48" target="_top" xlink:title="boxptr_CodegenCpp_fun__707">
<polygon fill="#ffffff" stroke="#000000" points="594,-3.5 594,-22.5 745,-22.5 745,-3.5 594,-3.5"/>
<text text-anchor="middle" x="669.5" y="-10.5" font-family="Helvetica,sans-Serif" font-size="10.00" fill="#000000">boxptr_CodegenCpp_fun__707</text>
</a>
</g>
</g>
<!-- Node405453&#45;&gt;Node405463 -->
<g id="edge12" class="edge">
<title>Node405453&#45;&gt;Node405463</title>
<path fill="none" stroke="#191970" d="M568.0259,-23.5356C576.5952,-22.6459 585.2826,-21.7439 593.7826,-20.8614"/>
<polygon fill="#191970" stroke="#191970" points="567.6239,-20.0584 558.0388,-24.5725 568.3468,-27.021 567.6239,-20.0584"/>
</g>
<!-- Node405455 -->
<g id="node5" class="node">
<title>Node405455</title>
<g id="a_node5"><a xlink:href="../../d6/d8e/_codegen_cpp_8h.html#abd40527a1c1adc7ee1426bd310cdb993" target="_top" xlink:title="boxptr_CodegenCpp_init">
<polygon fill="#ffffff" stroke="#000000" points="787.5,-60.5 787.5,-79.5 911.5,-79.5 911.5,-60.5 787.5,-60.5"/>
<text text-anchor="middle" x="849.5" y="-67.5" font-family="Helvetica,sans-Serif" font-size="10.00" fill="#000000">boxptr_CodegenCpp_init</text>
</a>
</g>
</g>
<!-- Node405454&#45;&gt;Node405455 -->
<g id="edge4" class="edge">
<title>Node405454&#45;&gt;Node405455</title>
<path fill="none" stroke="#191970" d="M737.9028,-58.2203C754.1422,-59.9345 771.3786,-61.7538 787.3228,-63.4369"/>
<polygon fill="#191970" stroke="#191970" points="738.253,-54.7379 727.9408,-57.1688 737.5182,-61.6992 738.253,-54.7379"/>
</g>
<!-- Node405456 -->
<g id="node6" class="node">
<title>Node405456</title>
<g id="a_node6"><a xlink:href="../../d0/df9/_codegen_cpp_8c.html#a954148b0dc99e696e01e0b6f6e8e6a5f" target="_top" xlink:title="omc_CodegenCpp_fun__79">
<polygon fill="#ffffff" stroke="#000000" points="781,-22.5 781,-41.5 918,-41.5 918,-22.5 781,-22.5"/>
<text text-anchor="middle" x="849.5" y="-29.5" font-family="Helvetica,sans-Serif" font-size="10.00" fill="#000000">omc_CodegenCpp_fun__79</text>
</a>
</g>
</g>
<!-- Node405454&#45;&gt;Node405456 -->
<g id="edge5" class="edge">
<title>Node405454&#45;&gt;Node405456</title>
<path fill="none" stroke="#191970" d="M737.9774,-43.7718C751.9685,-42.295 766.6969,-40.7403 780.6993,-39.2623"/>
<polygon fill="#191970" stroke="#191970" points="737.5182,-40.3008 727.9408,-44.8312 738.253,-47.2621 737.5182,-40.3008"/>
</g>
<!-- Node405457 -->
<g id="node7" class="node">
<title>Node405457</title>
<g id="a_node7"><a xlink:href="../../d6/d8e/_codegen_cpp_8h.html#add0c769243a8180c2706b4f39f55d28e" target="_top" xlink:title="omc_CodegenCpp_simulation\lInitCppFile">
<polygon fill="#ffffff" stroke="#000000" points="954,-39 954,-69 1101,-69 1101,-39 954,-39"/>
<text text-anchor="start" x="962" y="-57" font-family="Helvetica,sans-Serif" font-size="10.00" fill="#000000">omc_CodegenCpp_simulation</text>
<text text-anchor="middle" x="1027.5" y="-46" font-family="Helvetica,sans-Serif" font-size="10.00" fill="#000000">InitCppFile</text>
</a>
</g>
</g>
<!-- Node405456&#45;&gt;Node405457 -->
<g id="edge6" class="edge">
<title>Node405456&#45;&gt;Node405457</title>
<path fill="none" stroke="#191970" d="M928.0805,-41.7122C936.6806,-42.7751 945.4123,-43.8543 953.9483,-44.9093"/>
<polygon fill="#191970" stroke="#191970" points="928.4187,-38.2274 918.0648,-40.4743 927.56,-45.1746 928.4187,-38.2274"/>
</g>
<!-- Node405462 -->
<g id="node12" class="node">
<title>Node405462</title>
<g id="a_node12"><a xlink:href="../../d0/df9/_codegen_cpp_8c.html#a3e017b22577c199e680bae66f40bdb64" target="_top" xlink:title="boxptr_CodegenCpp_fun__79">
<polygon fill="#ffffff" stroke="#000000" points="954.5,-.5 954.5,-19.5 1100.5,-19.5 1100.5,-.5 954.5,-.5"/>
<text text-anchor="middle" x="1027.5" y="-7.5" font-family="Helvetica,sans-Serif" font-size="10.00" fill="#000000">boxptr_CodegenCpp_fun__79</text>
</a>
</g>
</g>
<!-- Node405456&#45;&gt;Node405462 -->
<g id="edge11" class="edge">
<title>Node405456&#45;&gt;Node405462</title>
<path fill="none" stroke="#191970" d="M928.1647,-22.2774C936.8373,-21.2055 945.6426,-20.1172 954.2452,-19.054"/>
<polygon fill="#191970" stroke="#191970" points="927.56,-18.8254 918.0648,-23.5257 928.4187,-25.7726 927.56,-18.8254"/>
</g>
<!-- Node405458 -->
<g id="node8" class="node">
<title>Node405458</title>
<g id="a_node8"><a xlink:href="../../d6/d8e/_codegen_cpp_8h.html#a116ded935091e83b939ed564f83c75d5" target="_top" xlink:title="boxptr_CodegenCpp_simulation\lInitCppFile">
<polygon fill="#ffffff" stroke="#000000" points="1137,-61 1137,-91 1292,-91 1292,-61 1137,-61"/>
<text text-anchor="start" x="1145" y="-79" font-family="Helvetica,sans-Serif" font-size="10.00" fill="#000000">boxptr_CodegenCpp_simulation</text>
<text text-anchor="middle" x="1214.5" y="-68" font-family="Helvetica,sans-Serif" font-size="10.00" fill="#000000">InitCppFile</text>
</a>
</g>
</g>
<!-- Node405457&#45;&gt;Node405458 -->
<g id="edge7" class="edge">
<title>Node405457&#45;&gt;Node405458</title>
<path fill="none" stroke="#191970" d="M1111.1427,-63.8403C1119.7233,-64.8498 1128.4158,-65.8724 1136.9269,-66.8738"/>
<polygon fill="#191970" stroke="#191970" points="1111.4794,-60.3559 1101.1389,-62.6634 1110.6614,-67.3079 1111.4794,-60.3559"/>
</g>
<!-- Node405459 -->
<g id="node9" class="node">
<title>Node405459</title>
<g id="a_node9"><a xlink:href="../../d0/df9/_codegen_cpp_8c.html#aa7c7709a5cda769632291bb6f29d8b29" target="_top" xlink:title="omc_CodegenCpp_fun__46">
<polygon fill="#ffffff" stroke="#000000" points="1146,-22.5 1146,-41.5 1283,-41.5 1283,-22.5 1146,-22.5"/>
<text text-anchor="middle" x="1214.5" y="-29.5" font-family="Helvetica,sans-Serif" font-size="10.00" fill="#000000">omc_CodegenCpp_fun__46</text>
</a>
</g>
</g>
<!-- Node405457&#45;&gt;Node405459 -->
<g id="edge8" class="edge">
<title>Node405457&#45;&gt;Node405459</title>
<path fill="none" stroke="#191970" d="M1111.2303,-44.1494C1122.7932,-42.789 1134.5576,-41.405 1145.8057,-40.0817"/>
<polygon fill="#191970" stroke="#191970" points="1110.6615,-40.6921 1101.1389,-45.3366 1111.4794,-47.6441 1110.6615,-40.6921"/>
</g>
<!-- Node405460 -->
<g id="node10" class="node">
<title>Node405460</title>
<g id="a_node10"><a xlink:href="../../d6/d8e/_codegen_cpp_8h.html#a54676ae5ee46975a3ec1566a9856625c" target="_top" xlink:title="omc_CodegenCpp_translate\lModel">
<polygon fill="#ffffff" stroke="#000000" points="1328,-17 1328,-47 1468,-47 1468,-17 1328,-17"/>
<text text-anchor="start" x="1336" y="-35" font-family="Helvetica,sans-Serif" font-size="10.00" fill="#000000">omc_CodegenCpp_translate</text>
<text text-anchor="middle" x="1398" y="-24" font-family="Helvetica,sans-Serif" font-size="10.00" fill="#000000">Model</text>
</a>
</g>
</g>
<!-- Node405459&#45;&gt;Node405460 -->
<g id="edge9" class="edge">
<title>Node405459&#45;&gt;Node405460</title>
<path fill="none" stroke="#191970" d="M1293.164,-32C1304.7326,-32 1316.5846,-32 1327.9639,-32"/>
<polygon fill="#191970" stroke="#191970" points="1293.0896,-28.5001 1283.0896,-32 1293.0895,-35.5001 1293.0896,-28.5001"/>
</g>
<!-- Node405461 -->
<g id="node11" class="node">
<title>Node405461</title>
<g id="a_node11"><a xlink:href="../../d5/d4c/_codegen_f_m_u_cpp_8h.html#a1fc774045fbfd7b6dc9872f8b61ccdad" target="_top" xlink:title="omc_CodegenFMUCpp_translate\lModel">
<polygon fill="#ffffff" stroke="#000000" points="1504,-17 1504,-47 1666,-47 1666,-17 1504,-17"/>
<text text-anchor="start" x="1512" y="-35" font-family="Helvetica,sans-Serif" font-size="10.00" fill="#000000">omc_CodegenFMUCpp_translate</text>
<text text-anchor="middle" x="1585" y="-24" font-family="Helvetica,sans-Serif" font-size="10.00" fill="#000000">Model</text>
</a>
</g>
</g>
<!-- Node405460&#45;&gt;Node405461 -->
<g id="edge10" class="edge">
<title>Node405460&#45;&gt;Node405461</title>
<path fill="none" stroke="#191970" d="M1478.3393,-32C1486.7557,-32 1495.3173,-32 1503.744,-32"/>
<polygon fill="#191970" stroke="#191970" points="1478.164,-28.5001 1468.1639,-32 1478.1639,-35.5001 1478.164,-28.5001"/>
</g>
</g>
</svg>
