<?xml version="1.0" encoding="UTF-8" standalone="no"?>
<!DOCTYPE svg PUBLIC "-//W3C//DTD SVG 1.1//EN"
 "http://www.w3.org/Graphics/SVG/1.1/DTD/svg11.dtd">
<!-- Generated by graphviz version 2.40.1 (20161225.0304)
 -->
<!-- Title: omc_CodegenCpp_numBoolAlgvars Pages: 1 -->
<svg width="311pt" height="66pt"
 viewBox="0.00 0.00 311.00 66.00" xmlns="http://www.w3.org/2000/svg" xmlns:xlink="http://www.w3.org/1999/xlink">
<g id="graph0" class="graph" transform="scale(1 1) rotate(0) translate(4 62)">
<title>omc_CodegenCpp_numBoolAlgvars</title>
<polygon fill="#ffffff" stroke="transparent" points="-4,4 -4,-62 307,-62 307,4 -4,4"/>
<!-- Node385597 -->
<g id="node1" class="node">
<title>Node385597</title>
<polygon fill="#bfbfbf" stroke="#000000" points="0,-19.5 0,-38.5 174,-38.5 174,-19.5 0,-19.5"/>
<text text-anchor="middle" x="87" y="-26.5" font-family="Helvetica,sans-Serif" font-size="10.00" fill="#000000">omc_CodegenCpp_numBoolAlgvars</text>
</g>
<!-- Node385598 -->
<g id="node2" class="node">
<title>Node385598</title>
<g id="a_node2"><a xlink:href="../../d7/d52/_tpl_8c.html#ada57037d1430be632aea182a946c3245" target="_top" xlink:title="omc_Tpl_writeStr">
<polygon fill="#ffffff" stroke="#000000" points="210,-38.5 210,-57.5 303,-57.5 303,-38.5 210,-38.5"/>
<text text-anchor="middle" x="256.5" y="-45.5" font-family="Helvetica,sans-Serif" font-size="10.00" fill="#000000">omc_Tpl_writeStr</text>
</a>
</g>
</g>
<!-- Node385597&#45;&gt;Node385598 -->
<g id="edge1" class="edge">
<title>Node385597&#45;&gt;Node385598</title>
<path fill="none" stroke="#191970" d="M172.2466,-38.5557C181.4901,-39.5918 190.7257,-40.6271 199.5136,-41.6121"/>
<polygon fill="#191970" stroke="#191970" points="199.2701,-45.1067 209.5977,-42.7425 200.0499,-38.1502 199.2701,-45.1067"/>
</g>
<!-- Node385599 -->
<g id="node3" class="node">
<title>Node385599</title>
<g id="a_node3"><a xlink:href="../../d2/d57/build_2include_2omc_2c_2meta_2meta__modelica__builtin_8h.html#a751bf2360cb3df6de97811998890b7ea" target="_top" xlink:title="intString">
<polygon fill="#ffffff" stroke="#000000" points="230,-.5 230,-19.5 283,-19.5 283,-.5 230,-.5"/>
<text text-anchor="middle" x="256.5" y="-7.5" font-family="Helvetica,sans-Serif" font-size="10.00" fill="#000000">intString</text>
</a>
</g>
</g>
<!-- Node385597&#45;&gt;Node385599 -->
<g id="edge2" class="edge">
<title>Node385597&#45;&gt;Node385599</title>
<path fill="none" stroke="#191970" d="M172.2466,-19.4443C188.9328,-17.5739 205.5933,-15.7064 219.6407,-14.1317"/>
<polygon fill="#191970" stroke="#191970" points="220.2828,-17.5818 229.8306,-12.9895 219.5029,-10.6253 220.2828,-17.5818"/>
</g>
</g>
</svg>
