<?xml version="1.0" encoding="UTF-8" standalone="no"?>
<!DOCTYPE svg PUBLIC "-//W3C//DTD SVG 1.1//EN"
 "http://www.w3.org/Graphics/SVG/1.1/DTD/svg11.dtd">
<!-- Generated by graphviz version 2.40.1 (20161225.0304)
 -->
<!-- Title: omc_CodegenCpp_fun__375 Pages: 1 -->
<svg width="1082pt" height="100pt"
 viewBox="0.00 0.00 1082.00 99.50" xmlns="http://www.w3.org/2000/svg" xmlns:xlink="http://www.w3.org/1999/xlink">
<g id="graph0" class="graph" transform="scale(1 1) rotate(0) translate(4 95.5)">
<title>omc_CodegenCpp_fun__375</title>
<polygon fill="#ffffff" stroke="transparent" points="-4,4 -4,-95.5 1078,-95.5 1078,4 -4,4"/>
<!-- Node245685 -->
<g id="node1" class="node">
<title>Node245685</title>
<polygon fill="#bfbfbf" stroke="#000000" points="0,-22.5 0,-41.5 143,-41.5 143,-22.5 0,-22.5"/>
<text text-anchor="middle" x="71.5" y="-29.5" font-family="Helvetica,sans-Serif" font-size="10.00" fill="#000000">omc_CodegenCpp_fun__375</text>
</g>
<!-- Node245686 -->
<g id="node2" class="node">
<title>Node245686</title>
<g id="a_node2"><a xlink:href="../../d0/df9/_codegen_cpp_8c.html#a8d4898836bebad31337e7f27dc2660bf" target="_top" xlink:title="omc_CodegenCpp_fun__376">
<polygon fill="#ffffff" stroke="#000000" points="179,-22.5 179,-41.5 322,-41.5 322,-22.5 179,-22.5"/>
<text text-anchor="middle" x="250.5" y="-29.5" font-family="Helvetica,sans-Serif" font-size="10.00" fill="#000000">omc_CodegenCpp_fun__376</text>
</a>
</g>
</g>
<!-- Node245685&#45;&gt;Node245686 -->
<g id="edge1" class="edge">
<title>Node245685&#45;&gt;Node245686</title>
<path fill="none" stroke="#191970" d="M153.0428,-32C161.6381,-32 170.3321,-32 178.8042,-32"/>
<polygon fill="#191970" stroke="#191970" points="153.0173,-28.5001 143.0172,-32 153.0172,-35.5001 153.0173,-28.5001"/>
</g>
<!-- Node245687 -->
<g id="node3" class="node">
<title>Node245687</title>
<g id="a_node3"><a xlink:href="../../d6/d8e/_codegen_cpp_8h.html#a24fc64eaeb1e57c446532b30a8374f4e" target="_top" xlink:title="omc_CodegenCpp_simulation\lMakefile">
<polygon fill="#ffffff" stroke="#000000" points="360,-39 360,-69 507,-69 507,-39 360,-39"/>
<text text-anchor="start" x="368" y="-57" font-family="Helvetica,sans-Serif" font-size="10.00" fill="#000000">omc_CodegenCpp_simulation</text>
<text text-anchor="middle" x="433.5" y="-46" font-family="Helvetica,sans-Serif" font-size="10.00" fill="#000000">Makefile</text>
</a>
</g>
</g>
<!-- Node245686&#45;&gt;Node245687 -->
<g id="edge2" class="edge">
<title>Node245686&#45;&gt;Node245687</title>
<path fill="none" stroke="#191970" d="M332.0354,-41.8021C341.315,-42.9176 350.7328,-44.0498 359.9012,-45.1521"/>
<polygon fill="#191970" stroke="#191970" points="332.3851,-38.319 322.0388,-40.6003 331.5495,-45.269 332.3851,-38.319"/>
</g>
<!-- Node245692 -->
<g id="node8" class="node">
<title>Node245692</title>
<g id="a_node8"><a xlink:href="../../d0/df9/_codegen_cpp_8c.html#a604f973d2c93fb109b9d03aac3fd66f8" target="_top" xlink:title="boxptr_CodegenCpp_fun__376">
<polygon fill="#ffffff" stroke="#000000" points="358,-.5 358,-19.5 509,-19.5 509,-.5 358,-.5"/>
<text text-anchor="middle" x="433.5" y="-7.5" font-family="Helvetica,sans-Serif" font-size="10.00" fill="#000000">boxptr_CodegenCpp_fun__376</text>
</a>
</g>
</g>
<!-- Node245686&#45;&gt;Node245692 -->
<g id="edge7" class="edge">
<title>Node245686&#45;&gt;Node245692</title>
<path fill="none" stroke="#191970" d="M332.0259,-22.1991C340.5952,-21.1689 349.2826,-20.1245 357.7826,-19.1026"/>
<polygon fill="#191970" stroke="#191970" points="331.5495,-18.731 322.0388,-23.3997 332.3851,-25.681 331.5495,-18.731"/>
</g>
<!-- Node245688 -->
<g id="node4" class="node">
<title>Node245688</title>
<g id="a_node4"><a xlink:href="../../d6/d8e/_codegen_cpp_8h.html#a3abde2c9199a2301715e37351d0ee7a8" target="_top" xlink:title="boxptr_CodegenCpp_simulation\lMakefile">
<polygon fill="#ffffff" stroke="#000000" points="545,-61 545,-91 700,-91 700,-61 545,-61"/>
<text text-anchor="start" x="553" y="-79" font-family="Helvetica,sans-Serif" font-size="10.00" fill="#000000">boxptr_CodegenCpp_simulation</text>
<text text-anchor="middle" x="622.5" y="-68" font-family="Helvetica,sans-Serif" font-size="10.00" fill="#000000">Makefile</text>
</a>
</g>
</g>
<!-- Node245687&#45;&gt;Node245688 -->
<g id="edge3" class="edge">
<title>Node245687&#45;&gt;Node245688</title>
<path fill="none" stroke="#191970" d="M517.3251,-63.7574C526.4364,-64.818 535.6818,-65.8942 544.7166,-66.9458"/>
<polygon fill="#191970" stroke="#191970" points="517.4512,-60.2485 507.1135,-62.5688 516.6418,-67.2016 517.4512,-60.2485"/>
</g>
<!-- Node245689 -->
<g id="node5" class="node">
<title>Node245689</title>
<g id="a_node5"><a xlink:href="../../d0/df9/_codegen_cpp_8c.html#aa7c7709a5cda769632291bb6f29d8b29" target="_top" xlink:title="omc_CodegenCpp_fun__46">
<polygon fill="#ffffff" stroke="#000000" points="554,-22.5 554,-41.5 691,-41.5 691,-22.5 554,-22.5"/>
<text text-anchor="middle" x="622.5" y="-29.5" font-family="Helvetica,sans-Serif" font-size="10.00" fill="#000000">omc_CodegenCpp_fun__46</text>
</a>
</g>
</g>
<!-- Node245687&#45;&gt;Node245689 -->
<g id="edge4" class="edge">
<title>Node245687&#45;&gt;Node245689</title>
<path fill="none" stroke="#191970" d="M517.2732,-44.2486C529.4572,-42.8304 541.8821,-41.3841 553.7237,-40.0057"/>
<polygon fill="#191970" stroke="#191970" points="516.6418,-40.7984 507.1135,-45.4312 517.4512,-47.7515 516.6418,-40.7984"/>
</g>
<!-- Node245690 -->
<g id="node6" class="node">
<title>Node245690</title>
<g id="a_node6"><a xlink:href="../../d6/d8e/_codegen_cpp_8h.html#a54676ae5ee46975a3ec1566a9856625c" target="_top" xlink:title="omc_CodegenCpp_translate\lModel">
<polygon fill="#ffffff" stroke="#000000" points="736,-17 736,-47 876,-47 876,-17 736,-17"/>
<text text-anchor="start" x="744" y="-35" font-family="Helvetica,sans-Serif" font-size="10.00" fill="#000000">omc_CodegenCpp_translate</text>
<text text-anchor="middle" x="806" y="-24" font-family="Helvetica,sans-Serif" font-size="10.00" fill="#000000">Model</text>
</a>
</g>
</g>
<!-- Node245689&#45;&gt;Node245690 -->
<g id="edge5" class="edge">
<title>Node245689&#45;&gt;Node245690</title>
<path fill="none" stroke="#191970" d="M701.164,-32C712.7326,-32 724.5846,-32 735.9639,-32"/>
<polygon fill="#191970" stroke="#191970" points="701.0896,-28.5001 691.0896,-32 701.0895,-35.5001 701.0896,-28.5001"/>
</g>
<!-- Node245691 -->
<g id="node7" class="node">
<title>Node245691</title>
<g id="a_node7"><a xlink:href="../../d5/d4c/_codegen_f_m_u_cpp_8h.html#a1fc774045fbfd7b6dc9872f8b61ccdad" target="_top" xlink:title="omc_CodegenFMUCpp_translate\lModel">
<polygon fill="#ffffff" stroke="#000000" points="912,-17 912,-47 1074,-47 1074,-17 912,-17"/>
<text text-anchor="start" x="920" y="-35" font-family="Helvetica,sans-Serif" font-size="10.00" fill="#000000">omc_CodegenFMUCpp_translate</text>
<text text-anchor="middle" x="993" y="-24" font-family="Helvetica,sans-Serif" font-size="10.00" fill="#000000">Model</text>
</a>
</g>
</g>
<!-- Node245690&#45;&gt;Node245691 -->
<g id="edge6" class="edge">
<title>Node245690&#45;&gt;Node245691</title>
<path fill="none" stroke="#191970" d="M886.3393,-32C894.7557,-32 903.3173,-32 911.744,-32"/>
<polygon fill="#191970" stroke="#191970" points="886.164,-28.5001 876.1639,-32 886.1639,-35.5001 886.164,-28.5001"/>
</g>
</g>
</svg>
