<?xml version="1.0" encoding="UTF-8" standalone="no"?>
<!DOCTYPE svg PUBLIC "-//W3C//DTD SVG 1.1//EN"
 "http://www.w3.org/Graphics/SVG/1.1/DTD/svg11.dtd">
<!-- Generated by graphviz version 2.40.1 (20161225.0304)
 -->
<!-- Title: omc_CodegenCpp_fun__133 Pages: 1 -->
<svg width="852pt" height="154pt"
 viewBox="0.00 0.00 852.00 154.00" xmlns="http://www.w3.org/2000/svg" xmlns:xlink="http://www.w3.org/1999/xlink">
<g id="graph0" class="graph" transform="scale(1 1) rotate(0) translate(4 150)">
<title>omc_CodegenCpp_fun__133</title>
<polygon fill="#ffffff" stroke="transparent" points="-4,4 -4,-150 848,-150 848,4 -4,4"/>
<!-- Node216093 -->
<g id="node1" class="node">
<title>Node216093</title>
<polygon fill="#bfbfbf" stroke="#000000" points="0,-69.5 0,-88.5 143,-88.5 143,-69.5 0,-69.5"/>
<text text-anchor="middle" x="71.5" y="-76.5" font-family="Helvetica,sans-Serif" font-size="10.00" fill="#000000">omc_CodegenCpp_fun__133</text>
</g>
<!-- Node216094 -->
<g id="node2" class="node">
<title>Node216094</title>
<g id="a_node2"><a xlink:href="../../d7/d52/_tpl_8c.html#a1038a57834f028b49f38adc4d5fcd049" target="_top" xlink:title="omc_Tpl_writeTok">
<polygon fill="#ffffff" stroke="#000000" points="385,-126.5 385,-145.5 482,-145.5 482,-126.5 385,-126.5"/>
<text text-anchor="middle" x="433.5" y="-133.5" font-family="Helvetica,sans-Serif" font-size="10.00" fill="#000000">omc_Tpl_writeTok</text>
</a>
</g>
</g>
<!-- Node216093&#45;&gt;Node216094 -->
<g id="edge1" class="edge">
<title>Node216093&#45;&gt;Node216094</title>
<path fill="none" stroke="#191970" d="M93.2434,-88.6146C114.6173,-97.6001 148.3927,-110.5675 179,-117 245.0559,-130.8825 322.6205,-134.9708 374.6035,-136.0056"/>
<polygon fill="#191970" stroke="#191970" points="374.5908,-139.5058 384.6481,-136.1738 374.7081,-132.5067 374.5908,-139.5058"/>
</g>
<!-- Node216095 -->
<g id="node3" class="node">
<title>Node216095</title>
<g id="a_node3"><a xlink:href="../../d7/d52/_tpl_8c.html#a79ae8e0232bfdb080d90e9f7890dc199" target="_top" xlink:title="omc_Tpl_pushIter">
<polygon fill="#ffffff" stroke="#000000" points="201.5,-88.5 201.5,-107.5 296.5,-107.5 296.5,-88.5 201.5,-88.5"/>
<text text-anchor="middle" x="249" y="-95.5" font-family="Helvetica,sans-Serif" font-size="10.00" fill="#000000">omc_Tpl_pushIter</text>
</a>
</g>
</g>
<!-- Node216093&#45;&gt;Node216095 -->
<g id="edge2" class="edge">
<title>Node216093&#45;&gt;Node216095</title>
<path fill="none" stroke="#191970" d="M143.1844,-86.6733C159.0541,-88.372 175.6803,-90.1517 190.9288,-91.7839"/>
<polygon fill="#191970" stroke="#191970" points="190.9233,-95.3032 201.239,-92.8876 191.6684,-88.343 190.9233,-95.3032"/>
</g>
<!-- Node216096 -->
<g id="node4" class="node">
<title>Node216096</title>
<g id="a_node4"><a xlink:href="../../d0/df9/_codegen_cpp_8c.html#afa8f7bd55825accc3ff7cee7ad2bc9fa" target="_top" xlink:title="omc_CodegenCpp_lm__132">
<polygon fill="#ffffff" stroke="#000000" points="179,-50.5 179,-69.5 319,-69.5 319,-50.5 179,-50.5"/>
<text text-anchor="middle" x="249" y="-57.5" font-family="Helvetica,sans-Serif" font-size="10.00" fill="#000000">omc_CodegenCpp_lm__132</text>
</a>
</g>
</g>
<!-- Node216093&#45;&gt;Node216096 -->
<g id="edge3" class="edge">
<title>Node216093&#45;&gt;Node216096</title>
<path fill="none" stroke="#191970" d="M143.1844,-71.3267C151.6214,-70.4236 160.2722,-69.4976 168.8161,-68.5831"/>
<polygon fill="#191970" stroke="#191970" points="169.207,-72.0613 178.7776,-67.5168 168.4619,-65.1011 169.207,-72.0613"/>
</g>
<!-- Node216102 -->
<g id="node10" class="node">
<title>Node216102</title>
<g id="a_node10"><a xlink:href="../../d7/d52/_tpl_8c.html#abda700a6d3553ffecd4d194dea81a179" target="_top" xlink:title="omc_Tpl_popIter">
<polygon fill="#ffffff" stroke="#000000" points="204.5,-12.5 204.5,-31.5 293.5,-31.5 293.5,-12.5 204.5,-12.5"/>
<text text-anchor="middle" x="249" y="-19.5" font-family="Helvetica,sans-Serif" font-size="10.00" fill="#000000">omc_Tpl_popIter</text>
</a>
</g>
</g>
<!-- Node216093&#45;&gt;Node216102 -->
<g id="edge10" class="edge">
<title>Node216093&#45;&gt;Node216102</title>
<path fill="none" stroke="#191970" d="M96.95,-69.3986C118.6196,-61.3694 150.655,-49.8431 179,-41 186.438,-38.6795 194.3698,-36.3707 202.1222,-34.2037"/>
<polygon fill="#191970" stroke="#191970" points="203.0808,-37.57 211.7952,-31.5442 201.2251,-30.8205 203.0808,-37.57"/>
</g>
<!-- Node216096&#45;&gt;Node216094 -->
<g id="edge4" class="edge">
<title>Node216096&#45;&gt;Node216094</title>
<path fill="none" stroke="#191970" d="M297.862,-69.5414C305.2241,-72.0207 312.5147,-75.1237 319,-79 338.9693,-90.9358 334.8681,-105.3407 355,-117 361.2566,-120.6235 368.1774,-123.5581 375.2411,-125.9344"/>
<polygon fill="#191970" stroke="#191970" points="374.3288,-129.3147 384.913,-128.8409 376.3434,-122.6109 374.3288,-129.3147"/>
</g>
<!-- Node216097 -->
<g id="node5" class="node">
<title>Node216097</title>
<g id="a_node5"><a xlink:href="../../d9/d7c/_compiler_2boot_2build_2util_8c.html#a0f96a57566dff2c80b35326f8c575873" target="_top" xlink:title="omc_Util_escapeModelicaString\lToCString">
<polygon fill="#ffffff" stroke="#000000" points="355,-77 355,-107 512,-107 512,-77 355,-77"/>
<text text-anchor="start" x="363" y="-95" font-family="Helvetica,sans-Serif" font-size="10.00" fill="#000000">omc_Util_escapeModelicaString</text>
<text text-anchor="middle" x="433.5" y="-84" font-family="Helvetica,sans-Serif" font-size="10.00" fill="#000000">ToCString</text>
</a>
</g>
</g>
<!-- Node216096&#45;&gt;Node216097 -->
<g id="edge5" class="edge">
<title>Node216096&#45;&gt;Node216097</title>
<path fill="none" stroke="#191970" d="M303.8566,-69.5144C316.7633,-71.753 330.8457,-74.1955 344.8186,-76.619"/>
<polygon fill="#191970" stroke="#191970" points="344.5044,-80.1166 354.9555,-78.3771 345.7007,-73.2196 344.5044,-80.1166"/>
</g>
<!-- Node216100 -->
<g id="node8" class="node">
<title>Node216100</title>
<g id="a_node8"><a xlink:href="../../d7/d52/_tpl_8c.html#ada57037d1430be632aea182a946c3245" target="_top" xlink:title="omc_Tpl_writeStr">
<polygon fill="#ffffff" stroke="#000000" points="387,-38.5 387,-57.5 480,-57.5 480,-38.5 387,-38.5"/>
<text text-anchor="middle" x="433.5" y="-45.5" font-family="Helvetica,sans-Serif" font-size="10.00" fill="#000000">omc_Tpl_writeStr</text>
</a>
</g>
</g>
<!-- Node216096&#45;&gt;Node216100 -->
<g id="edge8" class="edge">
<title>Node216096&#45;&gt;Node216100</title>
<path fill="none" stroke="#191970" d="M319.0146,-55.4462C338.1066,-54.2044 358.5497,-52.8748 376.801,-51.6877"/>
<polygon fill="#191970" stroke="#191970" points="377.227,-55.1675 386.9787,-51.0258 376.7726,-48.1823 377.227,-55.1675"/>
</g>
<!-- Node216101 -->
<g id="node9" class="node">
<title>Node216101</title>
<g id="a_node9"><a xlink:href="../../d7/d52/_tpl_8c.html#ae3c38d796bafc525ba51ed985d39c720" target="_top" xlink:title="omc_Tpl_nextIter">
<polygon fill="#ffffff" stroke="#000000" points="387.5,-.5 387.5,-19.5 479.5,-19.5 479.5,-.5 387.5,-.5"/>
<text text-anchor="middle" x="433.5" y="-7.5" font-family="Helvetica,sans-Serif" font-size="10.00" fill="#000000">omc_Tpl_nextIter</text>
</a>
</g>
</g>
<!-- Node216096&#45;&gt;Node216101 -->
<g id="edge9" class="edge">
<title>Node216096&#45;&gt;Node216101</title>
<path fill="none" stroke="#191970" d="M285.8046,-50.4305C296.5423,-47.5252 308.2716,-44.2412 319,-41 335.1448,-36.1224 338.7895,-33.6546 355,-29 363.5192,-26.5539 372.6173,-24.1573 381.4891,-21.935"/>
<polygon fill="#191970" stroke="#191970" points="382.4913,-25.2929 391.3665,-19.5066 380.82,-18.4953 382.4913,-25.2929"/>
</g>
<!-- Node216098 -->
<g id="node6" class="node">
<title>Node216098</title>
<g id="a_node6"><a xlink:href="../../d1/d95/_system_8c.html#a170d374b1efa7c49852464d3033532fe" target="_top" xlink:title="omc_System_escapedString">
<polygon fill="#ffffff" stroke="#000000" points="548,-82.5 548,-101.5 690,-101.5 690,-82.5 548,-82.5"/>
<text text-anchor="middle" x="619" y="-89.5" font-family="Helvetica,sans-Serif" font-size="10.00" fill="#000000">omc_System_escapedString</text>
</a>
</g>
</g>
<!-- Node216097&#45;&gt;Node216098 -->
<g id="edge6" class="edge">
<title>Node216097&#45;&gt;Node216098</title>
<path fill="none" stroke="#191970" d="M512.1687,-92C520.593,-92 529.1759,-92 537.6308,-92"/>
<polygon fill="#191970" stroke="#191970" points="537.8611,-95.5001 547.8611,-92 537.861,-88.5001 537.8611,-95.5001"/>
</g>
<!-- Node216099 -->
<g id="node7" class="node">
<title>Node216099</title>
<g id="a_node7"><a xlink:href="../../d8/d28/_compiler_2boot_2build_2system_8h.html#aae4f4ade8d6d1432e5d84736552cb4e6" target="_top" xlink:title="System_escapedString">
<polygon fill="#ffffff" stroke="#000000" points="726,-82.5 726,-101.5 844,-101.5 844,-82.5 726,-82.5"/>
<text text-anchor="middle" x="785" y="-89.5" font-family="Helvetica,sans-Serif" font-size="10.00" fill="#000000">System_escapedString</text>
</a>
</g>
</g>
<!-- Node216098&#45;&gt;Node216099 -->
<g id="edge7" class="edge">
<title>Node216098&#45;&gt;Node216099</title>
<path fill="none" stroke="#191970" d="M690.3623,-92C698.7962,-92 707.3936,-92 715.7969,-92"/>
<polygon fill="#191970" stroke="#191970" points="715.9268,-95.5001 725.9268,-92 715.9268,-88.5001 715.9268,-95.5001"/>
</g>
</g>
</svg>
