<?xml version="1.0" encoding="UTF-8" standalone="no"?>
<!DOCTYPE svg PUBLIC "-//W3C//DTD SVG 1.1//EN"
 "http://www.w3.org/Graphics/SVG/1.1/DTD/svg11.dtd">
<!-- Generated by graphviz version 2.40.1 (20161225.0304)
 -->
<!-- Title: omc_CodegenCpp_fun__1039 Pages: 1 -->
<svg width="1572pt" height="198pt"
 viewBox="0.00 0.00 1572.00 197.50" xmlns="http://www.w3.org/2000/svg" xmlns:xlink="http://www.w3.org/1999/xlink">
<g id="graph0" class="graph" transform="scale(1 1) rotate(0) translate(4 193.5)">
<title>omc_CodegenCpp_fun__1039</title>
<polygon fill="#ffffff" stroke="transparent" points="-4,4 -4,-193.5 1568,-193.5 1568,4 -4,4"/>
<!-- Node200185 -->
<g id="node1" class="node">
<title>Node200185</title>
<polygon fill="#bfbfbf" stroke="#000000" points="0,-50.5 0,-80.5 116,-80.5 116,-50.5 0,-50.5"/>
<text text-anchor="start" x="8" y="-68.5" font-family="Helvetica,sans-Serif" font-size="10.00" fill="#000000">omc_CodegenCpp_fun</text>
<text text-anchor="middle" x="58" y="-57.5" font-family="Helvetica,sans-Serif" font-size="10.00" fill="#000000">__1039</text>
</g>
<!-- Node200186 -->
<g id="node2" class="node">
<title>Node200186</title>
<g id="a_node2"><a xlink:href="../../d6/d8e/_codegen_cpp_8h.html#a0c933e3d02f73bdc9f983a102dbc8641" target="_top" xlink:title="omc_CodegenCpp_initVal">
<polygon fill="#ffffff" stroke="#000000" points="152,-78 152,-97 282,-97 282,-78 152,-78"/>
<text text-anchor="middle" x="217" y="-85" font-family="Helvetica,sans-Serif" font-size="10.00" fill="#000000">omc_CodegenCpp_initVal</text>
</a>
</g>
</g>
<!-- Node200185&#45;&gt;Node200186 -->
<g id="edge1" class="edge">
<title>Node200185&#45;&gt;Node200186</title>
<path fill="none" stroke="#191970" d="M126.2294,-74.9405C134.7754,-76.123 143.4987,-77.33 151.9935,-78.5054"/>
<polygon fill="#191970" stroke="#191970" points="126.6882,-71.4708 116.3029,-73.5671 125.7288,-78.4047 126.6882,-71.4708"/>
</g>
<!-- Node200204 -->
<g id="node20" class="node">
<title>Node200204</title>
<g id="a_node20"><a xlink:href="../../d0/df9/_codegen_cpp_8c.html#aad5720d95c43afd9e5ba2ceb6f61ef0c" target="_top" xlink:title="boxptr_CodegenCpp_fun\l__1039">
<polygon fill="#ffffff" stroke="#000000" points="154.5,-28.5 154.5,-58.5 279.5,-58.5 279.5,-28.5 154.5,-28.5"/>
<text text-anchor="start" x="162.5" y="-46.5" font-family="Helvetica,sans-Serif" font-size="10.00" fill="#000000">boxptr_CodegenCpp_fun</text>
<text text-anchor="middle" x="217" y="-35.5" font-family="Helvetica,sans-Serif" font-size="10.00" fill="#000000">__1039</text>
</a>
</g>
</g>
<!-- Node200185&#45;&gt;Node200204 -->
<g id="edge19" class="edge">
<title>Node200185&#45;&gt;Node200204</title>
<path fill="none" stroke="#191970" d="M126.323,-56.0465C135.6561,-54.7551 145.1988,-53.4348 154.4229,-52.1585"/>
<polygon fill="#191970" stroke="#191970" points="125.7288,-52.5953 116.3029,-57.4329 126.6882,-59.5292 125.7288,-52.5953"/>
</g>
<!-- Node200187 -->
<g id="node3" class="node">
<title>Node200187</title>
<g id="a_node3"><a xlink:href="../../d0/df9/_codegen_cpp_8c.html#ae6a732a29d4ca9c75b2d7ec56c4825e4" target="_top" xlink:title="omc_CodegenCpp_fun\l__1036">
<polygon fill="#ffffff" stroke="#000000" points="332.5,-95.5 332.5,-125.5 448.5,-125.5 448.5,-95.5 332.5,-95.5"/>
<text text-anchor="start" x="340.5" y="-113.5" font-family="Helvetica,sans-Serif" font-size="10.00" fill="#000000">omc_CodegenCpp_fun</text>
<text text-anchor="middle" x="390.5" y="-102.5" font-family="Helvetica,sans-Serif" font-size="10.00" fill="#000000">__1036</text>
</a>
</g>
</g>
<!-- Node200186&#45;&gt;Node200187 -->
<g id="edge2" class="edge">
<title>Node200186&#45;&gt;Node200187</title>
<path fill="none" stroke="#191970" d="M292.2937,-97.4813C305.7499,-99.2651 319.5804,-101.0986 332.4594,-102.8059"/>
<polygon fill="#191970" stroke="#191970" points="292.4719,-93.9744 282.0986,-96.1298 291.5519,-100.9137 292.4719,-93.9744"/>
</g>
<!-- Node200198 -->
<g id="node14" class="node">
<title>Node200198</title>
<g id="a_node14"><a xlink:href="../../d0/df9/_codegen_cpp_8c.html#a97a779a7d315ed13f938629c6455d7e2" target="_top" xlink:title="omc_CodegenCpp_lm__1031">
<polygon fill="#ffffff" stroke="#000000" points="318,-55 318,-74 463,-74 463,-55 318,-55"/>
<text text-anchor="middle" x="390.5" y="-62" font-family="Helvetica,sans-Serif" font-size="10.00" fill="#000000">omc_CodegenCpp_lm__1031</text>
</a>
</g>
</g>
<!-- Node200186&#45;&gt;Node200198 -->
<g id="edge13" class="edge">
<title>Node200186&#45;&gt;Node200198</title>
<path fill="none" stroke="#191970" d="M292.2753,-77.5211C301.025,-76.3612 309.9332,-75.1803 318.6354,-74.0267"/>
<polygon fill="#191970" stroke="#191970" points="291.5519,-74.0863 282.0986,-78.8702 292.4719,-81.0256 291.5519,-74.0863"/>
</g>
<!-- Node200188 -->
<g id="node4" class="node">
<title>Node200188</title>
<g id="a_node4"><a xlink:href="../../d0/df9/_codegen_cpp_8c.html#aa9b6fe80743c93421928231238b114ad" target="_top" xlink:title="omc_CodegenCpp_fun\l__1037">
<polygon fill="#ffffff" stroke="#000000" points="520,-98.5 520,-128.5 636,-128.5 636,-98.5 520,-98.5"/>
<text text-anchor="start" x="528" y="-116.5" font-family="Helvetica,sans-Serif" font-size="10.00" fill="#000000">omc_CodegenCpp_fun</text>
<text text-anchor="middle" x="578" y="-105.5" font-family="Helvetica,sans-Serif" font-size="10.00" fill="#000000">__1037</text>
</a>
</g>
</g>
<!-- Node200187&#45;&gt;Node200188 -->
<g id="edge3" class="edge">
<title>Node200187&#45;&gt;Node200188</title>
<path fill="none" stroke="#191970" d="M458.5678,-111.5891C478.6757,-111.9108 500.4917,-112.2599 519.9094,-112.5705"/>
<polygon fill="#191970" stroke="#191970" points="458.5969,-108.0892 448.5421,-111.4287 458.4848,-115.0883 458.5969,-108.0892"/>
</g>
<!-- Node200189 -->
<g id="node5" class="node">
<title>Node200189</title>
<g id="a_node5"><a xlink:href="../../d6/d8e/_codegen_cpp_8h.html#aabe2eb1dd8a922197abc74eae70d7daf" target="_top" xlink:title="omc_CodegenCpp_initVals2">
<polygon fill="#ffffff" stroke="#000000" points="694.5,-148 694.5,-167 834.5,-167 834.5,-148 694.5,-148"/>
<text text-anchor="middle" x="764.5" y="-155" font-family="Helvetica,sans-Serif" font-size="10.00" fill="#000000">omc_CodegenCpp_initVals2</text>
</a>
</g>
</g>
<!-- Node200188&#45;&gt;Node200189 -->
<g id="edge4" class="edge">
<title>Node200188&#45;&gt;Node200189</title>
<path fill="none" stroke="#191970" d="M646.1184,-129.5708C672.301,-135.7479 701.34,-142.599 724.1045,-147.9697"/>
<polygon fill="#191970" stroke="#191970" points="646.7791,-126.1307 636.2426,-127.2409 645.1717,-132.9437 646.7791,-126.1307"/>
</g>
<!-- Node200197 -->
<g id="node13" class="node">
<title>Node200197</title>
<g id="a_node13"><a xlink:href="../../d0/df9/_codegen_cpp_8c.html#a961a3ff57be55b656ca7315df792764c" target="_top" xlink:title="boxptr_CodegenCpp_fun\l__1037">
<polygon fill="#ffffff" stroke="#000000" points="702,-98.5 702,-128.5 827,-128.5 827,-98.5 702,-98.5"/>
<text text-anchor="start" x="710" y="-116.5" font-family="Helvetica,sans-Serif" font-size="10.00" fill="#000000">boxptr_CodegenCpp_fun</text>
<text text-anchor="middle" x="764.5" y="-105.5" font-family="Helvetica,sans-Serif" font-size="10.00" fill="#000000">__1037</text>
</a>
</g>
</g>
<!-- Node200188&#45;&gt;Node200197 -->
<g id="edge12" class="edge">
<title>Node200188&#45;&gt;Node200197</title>
<path fill="none" stroke="#191970" d="M646.4452,-113.5C664.5727,-113.5 684.0489,-113.5 701.8515,-113.5"/>
<polygon fill="#191970" stroke="#191970" points="646.2427,-110.0001 636.2426,-113.5 646.2426,-117.0001 646.2427,-110.0001"/>
</g>
<!-- Node200190 -->
<g id="node6" class="node">
<title>Node200190</title>
<g id="a_node6"><a xlink:href="../../d6/d8e/_codegen_cpp_8h.html#aa232b6940f03a8e459345b16c10284f0" target="_top" xlink:title="boxptr_CodegenCpp_initVals2">
<polygon fill="#ffffff" stroke="#000000" points="872,-167 872,-186 1021,-186 1021,-167 872,-167"/>
<text text-anchor="middle" x="946.5" y="-174" font-family="Helvetica,sans-Serif" font-size="10.00" fill="#000000">boxptr_CodegenCpp_initVals2</text>
</a>
</g>
</g>
<!-- Node200189&#45;&gt;Node200190 -->
<g id="edge5" class="edge">
<title>Node200189&#45;&gt;Node200190</title>
<path fill="none" stroke="#191970" d="M844.7269,-165.8753C853.7627,-166.8186 862.9422,-167.7769 871.9023,-168.7123"/>
<polygon fill="#191970" stroke="#191970" points="844.915,-162.376 834.6056,-164.8187 844.1881,-169.3382 844.915,-162.376"/>
</g>
<!-- Node200191 -->
<g id="node7" class="node">
<title>Node200191</title>
<g id="a_node7"><a xlink:href="../../d0/df9/_codegen_cpp_8c.html#aab0929d2cb620596312f8cb74e3aff96" target="_top" xlink:title="omc_CodegenCpp_lm__1034">
<polygon fill="#ffffff" stroke="#000000" points="874,-129 874,-148 1019,-148 1019,-129 874,-129"/>
<text text-anchor="middle" x="946.5" y="-136" font-family="Helvetica,sans-Serif" font-size="10.00" fill="#000000">omc_CodegenCpp_lm__1034</text>
</a>
</g>
</g>
<!-- Node200189&#45;&gt;Node200191 -->
<g id="edge6" class="edge">
<title>Node200189&#45;&gt;Node200191</title>
<path fill="none" stroke="#191970" d="M844.617,-149.1361C854.2998,-148.1253 864.1494,-147.097 873.7187,-146.098"/>
<polygon fill="#191970" stroke="#191970" points="844.1881,-145.6618 834.6056,-150.1813 844.915,-152.624 844.1881,-145.6618"/>
</g>
<!-- Node200192 -->
<g id="node8" class="node">
<title>Node200192</title>
<g id="a_node8"><a xlink:href="../../d6/d8e/_codegen_cpp_8h.html#aedec70199d66b22435534d8d77155855" target="_top" xlink:title="omc_CodegenCpp_initVals1">
<polygon fill="#ffffff" stroke="#000000" points="1057,-151 1057,-170 1197,-170 1197,-151 1057,-151"/>
<text text-anchor="middle" x="1127" y="-158" font-family="Helvetica,sans-Serif" font-size="10.00" fill="#000000">omc_CodegenCpp_initVals1</text>
</a>
</g>
</g>
<!-- Node200191&#45;&gt;Node200192 -->
<g id="edge7" class="edge">
<title>Node200191&#45;&gt;Node200192</title>
<path fill="none" stroke="#191970" d="M1029.1297,-148.5712C1038.3958,-149.7006 1047.7698,-150.8431 1056.8572,-151.9507"/>
<polygon fill="#191970" stroke="#191970" points="1029.4861,-145.0888 1019.136,-147.3531 1028.6391,-152.0374 1029.4861,-145.0888"/>
</g>
<!-- Node200196 -->
<g id="node12" class="node">
<title>Node200196</title>
<g id="a_node12"><a xlink:href="../../d0/df9/_codegen_cpp_8c.html#a75fc33353e6aa5c261dd24c6cf0da9dc" target="_top" xlink:title="boxptr_CodegenCpp_lm\l__1034">
<polygon fill="#ffffff" stroke="#000000" points="1066,-101.5 1066,-131.5 1188,-131.5 1188,-101.5 1066,-101.5"/>
<text text-anchor="start" x="1074" y="-119.5" font-family="Helvetica,sans-Serif" font-size="10.00" fill="#000000">boxptr_CodegenCpp_lm</text>
<text text-anchor="middle" x="1127" y="-108.5" font-family="Helvetica,sans-Serif" font-size="10.00" fill="#000000">__1034</text>
</a>
</g>
</g>
<!-- Node200191&#45;&gt;Node200196 -->
<g id="edge11" class="edge">
<title>Node200191&#45;&gt;Node200196</title>
<path fill="none" stroke="#191970" d="M1029.3766,-128.3987C1041.6428,-126.9037 1054.0918,-125.3863 1065.8093,-123.9581"/>
<polygon fill="#191970" stroke="#191970" points="1028.6391,-124.9626 1019.136,-129.6469 1029.4861,-131.9112 1028.6391,-124.9626"/>
</g>
<!-- Node200193 -->
<g id="node9" class="node">
<title>Node200193</title>
<g id="a_node9"><a xlink:href="../../d6/d8e/_codegen_cpp_8h.html#ae94ea980a63866cffa1092c9b16776ea" target="_top" xlink:title="boxptr_CodegenCpp_initVals1">
<polygon fill="#ffffff" stroke="#000000" points="1233,-170 1233,-189 1382,-189 1382,-170 1233,-170"/>
<text text-anchor="middle" x="1307.5" y="-177" font-family="Helvetica,sans-Serif" font-size="10.00" fill="#000000">boxptr_CodegenCpp_initVals1</text>
</a>
</g>
</g>
<!-- Node200192&#45;&gt;Node200193 -->
<g id="edge8" class="edge">
<title>Node200192&#45;&gt;Node200193</title>
<path fill="none" stroke="#191970" d="M1207.0051,-168.9216C1215.5548,-169.8216 1224.2287,-170.7346 1232.7146,-171.6278"/>
<polygon fill="#191970" stroke="#191970" points="1207.3558,-165.4393 1197.0444,-167.8731 1206.623,-172.4008 1207.3558,-165.4393"/>
</g>
<!-- Node200194 -->
<g id="node10" class="node">
<title>Node200194</title>
<g id="a_node10"><a xlink:href="../../d6/d8e/_codegen_cpp_8h.html#ad42e3d3b6b0a29ed3b1cde8223aa27f4" target="_top" xlink:title="omc_CodegenCpp_arrayInit">
<polygon fill="#ffffff" stroke="#000000" points="1238.5,-132 1238.5,-151 1376.5,-151 1376.5,-132 1238.5,-132"/>
<text text-anchor="middle" x="1307.5" y="-139" font-family="Helvetica,sans-Serif" font-size="10.00" fill="#000000">omc_CodegenCpp_arrayInit</text>
</a>
</g>
</g>
<!-- Node200192&#45;&gt;Node200194 -->
<g id="edge9" class="edge">
<title>Node200192&#45;&gt;Node200194</title>
<path fill="none" stroke="#191970" d="M1207.0028,-152.0787C1217.4685,-150.977 1228.1205,-149.8557 1238.3859,-148.7752"/>
<polygon fill="#191970" stroke="#191970" points="1206.623,-148.5992 1197.0444,-153.1269 1207.3558,-155.5607 1206.623,-148.5992"/>
</g>
<!-- Node200195 -->
<g id="node11" class="node">
<title>Node200195</title>
<g id="a_node11"><a xlink:href="../../d6/d8e/_codegen_cpp_8h.html#a3adab128bde3d1c738f7b174652aa50e" target="_top" xlink:title="boxptr_CodegenCpp_arrayInit">
<polygon fill="#ffffff" stroke="#000000" points="1418,-132 1418,-151 1564,-151 1564,-132 1418,-132"/>
<text text-anchor="middle" x="1491" y="-139" font-family="Helvetica,sans-Serif" font-size="10.00" fill="#000000">boxptr_CodegenCpp_arrayInit</text>
</a>
</g>
</g>
<!-- Node200194&#45;&gt;Node200195 -->
<g id="edge10" class="edge">
<title>Node200194&#45;&gt;Node200195</title>
<path fill="none" stroke="#191970" d="M1386.8572,-141.5C1397.1936,-141.5 1407.7437,-141.5 1417.9698,-141.5"/>
<polygon fill="#191970" stroke="#191970" points="1386.612,-138.0001 1376.612,-141.5 1386.612,-145.0001 1386.612,-138.0001"/>
</g>
<!-- Node200199 -->
<g id="node15" class="node">
<title>Node200199</title>
<g id="a_node15"><a xlink:href="../../d6/d8e/_codegen_cpp_8h.html#a28348cf2ed0599e6de68dc7d72ec50ff" target="_top" xlink:title="omc_CodegenCpp_initValsArray">
<polygon fill="#ffffff" stroke="#000000" points="499,-55 499,-74 657,-74 657,-55 499,-55"/>
<text text-anchor="middle" x="578" y="-62" font-family="Helvetica,sans-Serif" font-size="10.00" fill="#000000">omc_CodegenCpp_initValsArray</text>
</a>
</g>
</g>
<!-- Node200198&#45;&gt;Node200199 -->
<g id="edge14" class="edge">
<title>Node200198&#45;&gt;Node200199</title>
<path fill="none" stroke="#191970" d="M473.4434,-64.5C481.8543,-64.5 490.3828,-64.5 498.7533,-64.5"/>
<polygon fill="#191970" stroke="#191970" points="473.2608,-61.0001 463.2608,-64.5 473.2607,-68.0001 473.2608,-61.0001"/>
</g>
<!-- Node200203 -->
<g id="node19" class="node">
<title>Node200203</title>
<g id="a_node19"><a xlink:href="../../d0/df9/_codegen_cpp_8c.html#ac59ce9e488bc91765752163df50c4f63" target="_top" xlink:title="boxptr_CodegenCpp_lm\l__1031">
<polygon fill="#ffffff" stroke="#000000" points="517,-5.5 517,-35.5 639,-35.5 639,-5.5 517,-5.5"/>
<text text-anchor="start" x="525" y="-23.5" font-family="Helvetica,sans-Serif" font-size="10.00" fill="#000000">boxptr_CodegenCpp_lm</text>
<text text-anchor="middle" x="578" y="-12.5" font-family="Helvetica,sans-Serif" font-size="10.00" fill="#000000">__1031</text>
</a>
</g>
</g>
<!-- Node200198&#45;&gt;Node200203 -->
<g id="edge18" class="edge">
<title>Node200198&#45;&gt;Node200203</title>
<path fill="none" stroke="#191970" d="M441.1962,-52.6033C464.4744,-47.1407 492.2765,-40.6164 516.719,-34.8806"/>
<polygon fill="#191970" stroke="#191970" points="440.1206,-49.2605 431.1847,-54.9527 441.7199,-56.0754 440.1206,-49.2605"/>
</g>
<!-- Node200200 -->
<g id="node16" class="node">
<title>Node200200</title>
<g id="a_node16"><a xlink:href="../../d6/d8e/_codegen_cpp_8h.html#a5179c06efd7a7a36dff9fef4f2351c45" target="_top" xlink:title="boxptr_CodegenCpp_initVals\lArray">
<polygon fill="#ffffff" stroke="#000000" points="693,-49.5 693,-79.5 836,-79.5 836,-49.5 693,-49.5"/>
<text text-anchor="start" x="701" y="-67.5" font-family="Helvetica,sans-Serif" font-size="10.00" fill="#000000">boxptr_CodegenCpp_initVals</text>
<text text-anchor="middle" x="764.5" y="-56.5" font-family="Helvetica,sans-Serif" font-size="10.00" fill="#000000">Array</text>
</a>
</g>
</g>
<!-- Node200199&#45;&gt;Node200200 -->
<g id="edge15" class="edge">
<title>Node200199&#45;&gt;Node200200</title>
<path fill="none" stroke="#191970" d="M667.2018,-64.5C675.8465,-64.5 684.5378,-64.5 692.9776,-64.5"/>
<polygon fill="#191970" stroke="#191970" points="667.0928,-61.0001 657.0928,-64.5 667.0928,-68.0001 667.0928,-61.0001"/>
</g>
<!-- Node200201 -->
<g id="node17" class="node">
<title>Node200201</title>
<g id="a_node17"><a xlink:href="../../d6/d8e/_codegen_cpp_8h.html#a5156fa626c2499bb1881725ae338b40c" target="_top" xlink:title="omc_CodegenCpp_initialize\lArrayElements">
<polygon fill="#ffffff" stroke="#000000" points="695.5,-.5 695.5,-30.5 833.5,-30.5 833.5,-.5 695.5,-.5"/>
<text text-anchor="start" x="703.5" y="-18.5" font-family="Helvetica,sans-Serif" font-size="10.00" fill="#000000">omc_CodegenCpp_initialize</text>
<text text-anchor="middle" x="764.5" y="-7.5" font-family="Helvetica,sans-Serif" font-size="10.00" fill="#000000">ArrayElements</text>
</a>
</g>
</g>
<!-- Node200199&#45;&gt;Node200201 -->
<g id="edge16" class="edge">
<title>Node200199&#45;&gt;Node200201</title>
<path fill="none" stroke="#191970" d="M626.1791,-52.4296C636.3639,-49.8424 647.0421,-47.1035 657,-44.5 674.0186,-40.0505 692.5215,-35.0999 709.3031,-30.5668"/>
<polygon fill="#191970" stroke="#191970" points="625.0386,-49.1078 616.2037,-54.9555 626.7569,-55.8937 625.0386,-49.1078"/>
</g>
<!-- Node200202 -->
<g id="node18" class="node">
<title>Node200202</title>
<g id="a_node18"><a xlink:href="../../d6/d8e/_codegen_cpp_8h.html#abb6c0e405b5517d4ee5c583cdf67ebee" target="_top" xlink:title="boxptr_CodegenCpp_initialize\lArrayElements">
<polygon fill="#ffffff" stroke="#000000" points="873.5,-.5 873.5,-30.5 1019.5,-30.5 1019.5,-.5 873.5,-.5"/>
<text text-anchor="start" x="881.5" y="-18.5" font-family="Helvetica,sans-Serif" font-size="10.00" fill="#000000">boxptr_CodegenCpp_initialize</text>
<text text-anchor="middle" x="946.5" y="-7.5" font-family="Helvetica,sans-Serif" font-size="10.00" fill="#000000">ArrayElements</text>
</a>
</g>
</g>
<!-- Node200201&#45;&gt;Node200202 -->
<g id="edge17" class="edge">
<title>Node200201&#45;&gt;Node200202</title>
<path fill="none" stroke="#191970" d="M843.7056,-15.5C853.519,-15.5 863.5186,-15.5 873.2373,-15.5"/>
<polygon fill="#191970" stroke="#191970" points="843.5659,-12.0001 833.5659,-15.5 843.5659,-19.0001 843.5659,-12.0001"/>
</g>
</g>
</svg>
