<?xml version="1.0" encoding="UTF-8" standalone="no"?>
<!DOCTYPE svg PUBLIC "-//W3C//DTD SVG 1.1//EN"
 "http://www.w3.org/Graphics/SVG/1.1/DTD/svg11.dtd">
<!-- Generated by graphviz version 2.40.1 (20161225.0304)
 -->
<!-- Title: omc_CodegenCpp_lm__1676 Pages: 1 -->
<svg width="2255pt" height="243pt"
 viewBox="0.00 0.00 2255.00 243.32" xmlns="http://www.w3.org/2000/svg" xmlns:xlink="http://www.w3.org/1999/xlink">
<g id="graph0" class="graph" transform="scale(1 1) rotate(0) translate(4 239.3175)">
<title>omc_CodegenCpp_lm__1676</title>
<polygon fill="#ffffff" stroke="transparent" points="-4,4 -4,-239.3175 2251,-239.3175 2251,4 -4,4"/>
<!-- Node347863 -->
<g id="node1" class="node">
<title>Node347863</title>
<polygon fill="#bfbfbf" stroke="#000000" points="0,-48.8175 0,-67.8175 145,-67.8175 145,-48.8175 0,-48.8175"/>
<text text-anchor="middle" x="72.5" y="-55.8175" font-family="Helvetica,sans-Serif" font-size="10.00" fill="#000000">omc_CodegenCpp_lm__1676</text>
</g>
<!-- Node347864 -->
<g id="node2" class="node">
<title>Node347864</title>
<g id="a_node2"><a xlink:href="../../d7/d52/_tpl_8c.html#a79ae8e0232bfdb080d90e9f7890dc199" target="_top" xlink:title="omc_Tpl_pushIter">
<polygon fill="#ffffff" stroke="#000000" points="206,-86.8175 206,-105.8175 301,-105.8175 301,-86.8175 206,-86.8175"/>
<text text-anchor="middle" x="253.5" y="-93.8175" font-family="Helvetica,sans-Serif" font-size="10.00" fill="#000000">omc_Tpl_pushIter</text>
</a>
</g>
</g>
<!-- Node347863&#45;&gt;Node347864 -->
<g id="edge1" class="edge">
<title>Node347863&#45;&gt;Node347864</title>
<path fill="none" stroke="#191970" d="M118.1739,-67.9065C142.4892,-73.0114 172.5802,-79.3288 198.2084,-84.7093"/>
<polygon fill="#191970" stroke="#191970" points="197.6487,-88.168 208.1545,-86.7974 199.087,-81.3174 197.6487,-88.168"/>
</g>
<!-- Node347865 -->
<g id="node3" class="node">
<title>Node347865</title>
<g id="a_node3"><a xlink:href="../../d0/df9/_codegen_cpp_8c.html#afc4235bee2d7d492e679318fc670e818" target="_top" xlink:title="omc_CodegenCpp_lm__1675">
<polygon fill="#ffffff" stroke="#000000" points="181,-48.8175 181,-67.8175 326,-67.8175 326,-48.8175 181,-48.8175"/>
<text text-anchor="middle" x="253.5" y="-55.8175" font-family="Helvetica,sans-Serif" font-size="10.00" fill="#000000">omc_CodegenCpp_lm__1675</text>
</a>
</g>
</g>
<!-- Node347863&#45;&gt;Node347865 -->
<g id="edge2" class="edge">
<title>Node347863&#45;&gt;Node347865</title>
<path fill="none" stroke="#191970" d="M145.0767,-58.3175C153.5595,-58.3175 162.2611,-58.3175 170.8671,-58.3175"/>
<polygon fill="#191970" stroke="#191970" points="170.907,-61.8176 180.907,-58.3175 170.907,-54.8176 170.907,-61.8176"/>
</g>
<!-- Node347895 -->
<g id="node33" class="node">
<title>Node347895</title>
<g id="a_node33"><a xlink:href="../../d7/d52/_tpl_8c.html#abda700a6d3553ffecd4d194dea81a179" target="_top" xlink:title="omc_Tpl_popIter">
<polygon fill="#ffffff" stroke="#000000" points="209,-10.8175 209,-29.8175 298,-29.8175 298,-10.8175 209,-10.8175"/>
<text text-anchor="middle" x="253.5" y="-17.8175" font-family="Helvetica,sans-Serif" font-size="10.00" fill="#000000">omc_Tpl_popIter</text>
</a>
</g>
</g>
<!-- Node347863&#45;&gt;Node347895 -->
<g id="edge36" class="edge">
<title>Node347863&#45;&gt;Node347895</title>
<path fill="none" stroke="#191970" d="M118.1739,-48.7285C142.6741,-43.5848 173.0382,-37.21 198.7923,-31.8031"/>
<polygon fill="#191970" stroke="#191970" points="199.7127,-35.1862 208.7802,-29.7062 198.2744,-28.3356 199.7127,-35.1862"/>
</g>
<!-- Node347866 -->
<g id="node4" class="node">
<title>Node347866</title>
<g id="a_node4"><a xlink:href="../../d0/df9/_codegen_cpp_8c.html#a7eb0a84f5911abea88fa7918a771b39a" target="_top" xlink:title="omc_CodegenCpp_generateEquation\lMemberFuncDecls2">
<polygon fill="#ffffff" stroke="#000000" points="362,-65.3175 362,-95.3175 541,-95.3175 541,-65.3175 362,-65.3175"/>
<text text-anchor="start" x="370" y="-83.3175" font-family="Helvetica,sans-Serif" font-size="10.00" fill="#000000">omc_CodegenCpp_generateEquation</text>
<text text-anchor="middle" x="451.5" y="-72.3175" font-family="Helvetica,sans-Serif" font-size="10.00" fill="#000000">MemberFuncDecls2</text>
</a>
</g>
</g>
<!-- Node347865&#45;&gt;Node347866 -->
<g id="edge3" class="edge">
<title>Node347865&#45;&gt;Node347866</title>
<path fill="none" stroke="#191970" d="M326.1036,-66.3846C334.433,-67.31 343.0314,-68.2654 351.6385,-69.2218"/>
<polygon fill="#191970" stroke="#191970" points="351.4054,-72.7173 361.7308,-70.3431 352.1785,-65.7601 351.4054,-72.7173"/>
</g>
<!-- Node347894 -->
<g id="node32" class="node">
<title>Node347894</title>
<g id="a_node32"><a xlink:href="../../d7/d52/_tpl_8c.html#ae3c38d796bafc525ba51ed985d39c720" target="_top" xlink:title="omc_Tpl_nextIter">
<polygon fill="#ffffff" stroke="#000000" points="405.5,-26.8175 405.5,-45.8175 497.5,-45.8175 497.5,-26.8175 405.5,-26.8175"/>
<text text-anchor="middle" x="451.5" y="-33.8175" font-family="Helvetica,sans-Serif" font-size="10.00" fill="#000000">omc_Tpl_nextIter</text>
</a>
</g>
</g>
<!-- Node347865&#45;&gt;Node347894 -->
<g id="edge35" class="edge">
<title>Node347865&#45;&gt;Node347894</title>
<path fill="none" stroke="#191970" d="M326.1036,-50.2504C348.9707,-47.7096 373.8648,-44.9436 395.4009,-42.5507"/>
<polygon fill="#191970" stroke="#191970" points="395.8066,-46.0273 405.3589,-41.4443 395.0335,-39.0701 395.8066,-46.0273"/>
</g>
<!-- Node347867 -->
<g id="node5" class="node">
<title>Node347867</title>
<g id="a_node5"><a xlink:href="../../d0/df9/_codegen_cpp_8c.html#a7e187ae104bd4e3b36363f962d5753b3" target="_top" xlink:title="omc_CodegenCpp_fun__821">
<polygon fill="#ffffff" stroke="#000000" points="577,-70.8175 577,-89.8175 720,-89.8175 720,-70.8175 577,-70.8175"/>
<text text-anchor="middle" x="648.5" y="-77.8175" font-family="Helvetica,sans-Serif" font-size="10.00" fill="#000000">omc_CodegenCpp_fun__821</text>
</a>
</g>
</g>
<!-- Node347866&#45;&gt;Node347867 -->
<g id="edge4" class="edge">
<title>Node347866&#45;&gt;Node347867</title>
<path fill="none" stroke="#191970" d="M541.0651,-80.3175C549.5919,-80.3175 558.2087,-80.3175 566.6571,-80.3175"/>
<polygon fill="#191970" stroke="#191970" points="566.8615,-83.8176 576.8615,-80.3175 566.8615,-76.8176 566.8615,-83.8176"/>
</g>
<!-- Node347868 -->
<g id="node6" class="node">
<title>Node347868</title>
<g id="a_node6"><a xlink:href="../../d7/d52/_tpl_8c.html#a1038a57834f028b49f38adc4d5fcd049" target="_top" xlink:title="omc_Tpl_writeTok">
<polygon fill="#ffffff" stroke="#000000" points="1111.5,-158.8175 1111.5,-177.8175 1208.5,-177.8175 1208.5,-158.8175 1111.5,-158.8175"/>
<text text-anchor="middle" x="1160" y="-165.8175" font-family="Helvetica,sans-Serif" font-size="10.00" fill="#000000">omc_Tpl_writeTok</text>
</a>
</g>
</g>
<!-- Node347867&#45;&gt;Node347868 -->
<g id="edge5" class="edge">
<title>Node347867&#45;&gt;Node347868</title>
<path fill="none" stroke="#191970" d="M689.5221,-89.8227C709.5378,-94.3718 733.99,-99.7985 756,-104.3175 833.9592,-120.3237 853.4342,-124.6191 932,-137.3175 989.3775,-146.5913 1055.1821,-155.3371 1101.301,-161.1596"/>
<polygon fill="#191970" stroke="#191970" points="1101.0569,-164.6563 1111.415,-162.4294 1101.9289,-157.7108 1101.0569,-164.6563"/>
</g>
<!-- Node347869 -->
<g id="node7" class="node">
<title>Node347869</title>
<g id="a_node7"><a xlink:href="../../d7/d52/_tpl_8c.html#a7e5a397e973cf3de37af50d58cbb789f" target="_top" xlink:title="omc_Tpl_writeText">
<polygon fill="#ffffff" stroke="#000000" points="776,-26.8175 776,-45.8175 876,-45.8175 876,-26.8175 776,-26.8175"/>
<text text-anchor="middle" x="826" y="-33.8175" font-family="Helvetica,sans-Serif" font-size="10.00" fill="#000000">omc_Tpl_writeText</text>
</a>
</g>
</g>
<!-- Node347867&#45;&gt;Node347869 -->
<g id="edge6" class="edge">
<title>Node347867&#45;&gt;Node347869</title>
<path fill="none" stroke="#191970" d="M687.0149,-70.7701C713.6475,-64.1683 749.2792,-55.3356 777.7965,-48.2665"/>
<polygon fill="#191970" stroke="#191970" points="778.6962,-51.6495 787.5603,-45.8462 777.0119,-44.8551 778.6962,-51.6495"/>
</g>
<!-- Node347870 -->
<g id="node8" class="node">
<title>Node347870</title>
<g id="a_node8"><a xlink:href="../../d1/dda/_codegen_util_simulation_8c.html#a6baea90a2524af114184c2bc2a0d499b" target="_top" xlink:title="omc_CodegenUtilSimulation\l_equationIndex">
<polygon fill="#ffffff" stroke="#000000" points="756,-65.3175 756,-95.3175 896,-95.3175 896,-65.3175 756,-65.3175"/>
<text text-anchor="start" x="764" y="-83.3175" font-family="Helvetica,sans-Serif" font-size="10.00" fill="#000000">omc_CodegenUtilSimulation</text>
<text text-anchor="middle" x="826" y="-72.3175" font-family="Helvetica,sans-Serif" font-size="10.00" fill="#000000">_equationIndex</text>
</a>
</g>
</g>
<!-- Node347867&#45;&gt;Node347870 -->
<g id="edge7" class="edge">
<title>Node347867&#45;&gt;Node347870</title>
<path fill="none" stroke="#191970" d="M720.1844,-80.3175C728.5297,-80.3175 737.0841,-80.3175 745.5375,-80.3175"/>
<polygon fill="#191970" stroke="#191970" points="745.7776,-83.8176 755.7776,-80.3175 745.7776,-76.8176 745.7776,-83.8176"/>
</g>
<!-- Node347871 -->
<g id="node9" class="node">
<title>Node347871</title>
<g id="a_node9"><a xlink:href="../../d7/d52/_tpl_8c.html#ada57037d1430be632aea182a946c3245" target="_top" xlink:title="omc_Tpl_writeStr">
<polygon fill="#ffffff" stroke="#000000" points="1113.5,-32.8175 1113.5,-51.8175 1206.5,-51.8175 1206.5,-32.8175 1113.5,-32.8175"/>
<text text-anchor="middle" x="1160" y="-39.8175" font-family="Helvetica,sans-Serif" font-size="10.00" fill="#000000">omc_Tpl_writeStr</text>
</a>
</g>
</g>
<!-- Node347870&#45;&gt;Node347871 -->
<g id="edge8" class="edge">
<title>Node347870&#45;&gt;Node347871</title>
<path fill="none" stroke="#191970" d="M896.1006,-75.9978C940.5808,-72.8617 999.2912,-67.9942 1051,-61.3175 1068.0386,-59.1174 1086.4759,-56.1356 1103.2549,-53.1867"/>
<polygon fill="#191970" stroke="#191970" points="1104.2327,-56.5675 1113.4606,-51.3621 1103.0007,-49.6767 1104.2327,-56.5675"/>
</g>
<!-- Node347872 -->
<g id="node10" class="node">
<title>Node347872</title>
<g id="a_node10"><a xlink:href="../../d2/d57/build_2include_2omc_2c_2meta_2meta__modelica__builtin_8h.html#a751bf2360cb3df6de97811998890b7ea" target="_top" xlink:title="intString">
<polygon fill="#ffffff" stroke="#000000" points="1309,-38.8175 1309,-57.8175 1362,-57.8175 1362,-38.8175 1309,-38.8175"/>
<text text-anchor="middle" x="1335.5" y="-45.8175" font-family="Helvetica,sans-Serif" font-size="10.00" fill="#000000">intString</text>
</a>
</g>
</g>
<!-- Node347870&#45;&gt;Node347872 -->
<g id="edge9" class="edge">
<title>Node347870&#45;&gt;Node347872</title>
<path fill="none" stroke="#191970" d="M875.6623,-65.2802C882.691,-62.3856 889.6716,-59.0666 896,-55.3175 914.4178,-44.4063 911.9902,-30.9252 932,-23.3175 1059.8217,25.2802 1226.802,-14.5763 1299.296,-36.3957"/>
<polygon fill="#191970" stroke="#191970" points="1298.2972,-39.7503 1308.8843,-39.3437 1300.3545,-33.0594 1298.2972,-39.7503"/>
</g>
<!-- Node347873 -->
<g id="node11" class="node">
<title>Node347873</title>
<g id="a_node11"><a xlink:href="../../de/d91/_codegen_util_8c.html#af48b901deeaf48bcc1e241d6b8e048a8" target="_top" xlink:title="omc_CodegenUtil_error">
<polygon fill="#ffffff" stroke="#000000" points="932,-108.8175 932,-127.8175 1051,-127.8175 1051,-108.8175 932,-108.8175"/>
<text text-anchor="middle" x="991.5" y="-115.8175" font-family="Helvetica,sans-Serif" font-size="10.00" fill="#000000">omc_CodegenUtil_error</text>
</a>
</g>
</g>
<!-- Node347870&#45;&gt;Node347873 -->
<g id="edge10" class="edge">
<title>Node347870&#45;&gt;Node347873</title>
<path fill="none" stroke="#191970" d="M891.41,-95.3361C907.5674,-99.046 924.6483,-102.9679 940.0365,-106.5011"/>
<polygon fill="#191970" stroke="#191970" points="939.3479,-109.934 949.8776,-108.7607 940.9145,-103.1115 939.3479,-109.934"/>
</g>
<!-- Node347893 -->
<g id="node31" class="node">
<title>Node347893</title>
<g id="a_node31"><a xlink:href="../../d7/d52/_tpl_8c.html#a8a187b1be8ff955570284667e296c266" target="_top" xlink:title="omc_Tpl_sourceInfo">
<polygon fill="#ffffff" stroke="#000000" points="939,-32.8175 939,-51.8175 1044,-51.8175 1044,-32.8175 939,-32.8175"/>
<text text-anchor="middle" x="991.5" y="-39.8175" font-family="Helvetica,sans-Serif" font-size="10.00" fill="#000000">omc_Tpl_sourceInfo</text>
</a>
</g>
</g>
<!-- Node347870&#45;&gt;Node347893 -->
<g id="edge34" class="edge">
<title>Node347870&#45;&gt;Node347893</title>
<path fill="none" stroke="#191970" d="M891.41,-65.2989C907.5674,-61.589 924.6483,-57.6671 940.0365,-54.1339"/>
<polygon fill="#191970" stroke="#191970" points="940.9145,-57.5235 949.8776,-51.8743 939.3479,-50.701 940.9145,-57.5235"/>
</g>
<!-- Node347873&#45;&gt;Node347868 -->
<g id="edge12" class="edge">
<title>Node347873&#45;&gt;Node347868</title>
<path fill="none" stroke="#191970" d="M1019.3627,-127.844C1038.3385,-134.213 1064.0771,-142.6203 1087,-149.3175 1094.9537,-151.6413 1103.4352,-153.977 1111.6977,-156.1769"/>
<polygon fill="#191970" stroke="#191970" points="1111.0562,-159.6271 1121.6173,-158.7829 1112.8348,-152.8568 1111.0562,-159.6271"/>
</g>
<!-- Node347873&#45;&gt;Node347871 -->
<g id="edge33" class="edge">
<title>Node347873&#45;&gt;Node347871</title>
<path fill="none" stroke="#191970" d="M1021.2704,-108.7134C1031.1056,-104.9226 1041.8613,-100.0811 1051,-94.3175 1069.3589,-82.7389 1067.9342,-71.6908 1087,-61.3175 1092.1586,-58.5108 1097.7499,-56.1044 1103.464,-54.0442"/>
<polygon fill="#191970" stroke="#191970" points="1104.716,-57.3175 1113.1417,-50.8943 1102.5495,-50.6612 1104.716,-57.3175"/>
</g>
<!-- Node347874 -->
<g id="node12" class="node">
<title>Node347874</title>
<g id="a_node12"><a xlink:href="../../d7/d52/_tpl_8c.html#ad5588ef8965b11d3e9cb9829a3b76c94" target="_top" xlink:title="omc_Tpl_addSourceTemplate\lError">
<polygon fill="#ffffff" stroke="#000000" points="1087,-71.3175 1087,-101.3175 1233,-101.3175 1233,-71.3175 1087,-71.3175"/>
<text text-anchor="start" x="1095" y="-89.3175" font-family="Helvetica,sans-Serif" font-size="10.00" fill="#000000">omc_Tpl_addSourceTemplate</text>
<text text-anchor="middle" x="1160" y="-78.3175" font-family="Helvetica,sans-Serif" font-size="10.00" fill="#000000">Error</text>
</a>
</g>
</g>
<!-- Node347873&#45;&gt;Node347874 -->
<g id="edge11" class="edge">
<title>Node347873&#45;&gt;Node347874</title>
<path fill="none" stroke="#191970" d="M1041.5993,-108.8031C1052.6646,-106.7017 1064.6759,-104.4206 1076.6625,-102.1442"/>
<polygon fill="#191970" stroke="#191970" points="1077.5328,-105.5416 1086.7042,-100.2372 1076.2267,-98.6645 1077.5328,-105.5416"/>
</g>
<!-- Node347875 -->
<g id="node13" class="node">
<title>Node347875</title>
<g id="a_node13"><a xlink:href="../../db/da1/_compiler_2boot_2build_2error_8c.html#a10cc72f611e7b81b3a327aa48da0c015" target="_top" xlink:title="omc_Error_infoStr">
<polygon fill="#ffffff" stroke="#000000" points="1112.5,-120.8175 1112.5,-139.8175 1207.5,-139.8175 1207.5,-120.8175 1112.5,-120.8175"/>
<text text-anchor="middle" x="1160" y="-127.8175" font-family="Helvetica,sans-Serif" font-size="10.00" fill="#000000">omc_Error_infoStr</text>
</a>
</g>
</g>
<!-- Node347873&#45;&gt;Node347875 -->
<g id="edge13" class="edge">
<title>Node347873&#45;&gt;Node347875</title>
<path fill="none" stroke="#191970" d="M1051.3812,-122.582C1067.9883,-123.7647 1085.9774,-125.0459 1102.4483,-126.2189"/>
<polygon fill="#191970" stroke="#191970" points="1102.2582,-129.7141 1112.4816,-126.9334 1102.7555,-122.7318 1102.2582,-129.7141"/>
</g>
<!-- Node347875&#45;&gt;Node347872 -->
<g id="edge32" class="edge">
<title>Node347875&#45;&gt;Node347872</title>
<path fill="none" stroke="#191970" d="M1202.7559,-120.7315C1212.8584,-117.8876 1223.4616,-114.4146 1233,-110.3175 1262.4967,-97.6477 1293.6881,-77.7156 1313.8065,-63.8853"/>
<polygon fill="#191970" stroke="#191970" points="1316.0289,-66.6024 1322.225,-58.0083 1312.0219,-60.8627 1316.0289,-66.6024"/>
</g>
<!-- Node347876 -->
<g id="node14" class="node">
<title>Node347876</title>
<g id="a_node14"><a xlink:href="../../d7/deb/build_2include_2omc_2c_2util_2modelica__string_8c.html#a751007abc59e9ca7978f2af10a0c814f" target="_top" xlink:title="stringAppend">
<polygon fill="#ffffff" stroke="#000000" points="1298.5,-139.8175 1298.5,-158.8175 1372.5,-158.8175 1372.5,-139.8175 1298.5,-139.8175"/>
<text text-anchor="middle" x="1335.5" y="-146.8175" font-family="Helvetica,sans-Serif" font-size="10.00" fill="#000000">stringAppend</text>
</a>
</g>
</g>
<!-- Node347875&#45;&gt;Node347876 -->
<g id="edge14" class="edge">
<title>Node347875&#45;&gt;Node347876</title>
<path fill="none" stroke="#191970" d="M1207.9561,-135.5093C1233.0211,-138.2229 1263.5818,-141.5315 1288.5042,-144.2296"/>
<polygon fill="#191970" stroke="#191970" points="1288.1366,-147.7102 1298.4552,-145.3069 1288.8901,-140.7509 1288.1366,-147.7102"/>
</g>
<!-- Node347877 -->
<g id="node15" class="node">
<title>Node347877</title>
<g id="a_node15"><a xlink:href="../../d9/d7c/_compiler_2boot_2build_2util_8c.html#ad7f719bd6355b185d211a8c8ff0cc7be" target="_top" xlink:title="omc_Util_testsuiteFriendly">
<polygon fill="#ffffff" stroke="#000000" points="1269,-101.8175 1269,-120.8175 1402,-120.8175 1402,-101.8175 1269,-101.8175"/>
<text text-anchor="middle" x="1335.5" y="-108.8175" font-family="Helvetica,sans-Serif" font-size="10.00" fill="#000000">omc_Util_testsuiteFriendly</text>
</a>
</g>
</g>
<!-- Node347875&#45;&gt;Node347877 -->
<g id="edge15" class="edge">
<title>Node347875&#45;&gt;Node347877</title>
<path fill="none" stroke="#191970" d="M1207.9561,-125.1257C1223.6512,-123.4265 1241.5012,-121.494 1258.7723,-119.6242"/>
<polygon fill="#191970" stroke="#191970" points="1259.2886,-123.0888 1268.8538,-118.5327 1258.5351,-116.1295 1259.2886,-123.0888"/>
</g>
<!-- Node347878 -->
<g id="node16" class="node">
<title>Node347878</title>
<g id="a_node16"><a xlink:href="../../d9/d7c/_compiler_2boot_2build_2util_8c.html#ab96745984cab835c8ae43a8f02fb268b" target="_top" xlink:title="omc_Util_testsuiteFriendly2">
<polygon fill="#ffffff" stroke="#000000" points="1463.5,-139.8175 1463.5,-158.8175 1601.5,-158.8175 1601.5,-139.8175 1463.5,-139.8175"/>
<text text-anchor="middle" x="1532.5" y="-146.8175" font-family="Helvetica,sans-Serif" font-size="10.00" fill="#000000">omc_Util_testsuiteFriendly2</text>
</a>
</g>
</g>
<!-- Node347877&#45;&gt;Node347878 -->
<g id="edge16" class="edge">
<title>Node347877&#45;&gt;Node347878</title>
<path fill="none" stroke="#191970" d="M1384.9571,-120.8574C1411.654,-126.0071 1444.804,-132.4015 1472.9151,-137.8239"/>
<polygon fill="#191970" stroke="#191970" points="1472.5406,-141.3162 1483.0225,-139.7736 1473.8665,-134.4429 1472.5406,-141.3162"/>
</g>
<!-- Node347886 -->
<g id="node24" class="node">
<title>Node347886</title>
<g id="a_node24"><a xlink:href="../../d1/d5c/_config_8c.html#afa2f208e09cd9979df49295043109099" target="_top" xlink:title="omc_Config_getRunningTestsuite">
<polygon fill="#ffffff" stroke="#000000" points="1450.5,-101.8175 1450.5,-120.8175 1614.5,-120.8175 1614.5,-101.8175 1450.5,-101.8175"/>
<text text-anchor="middle" x="1532.5" y="-108.8175" font-family="Helvetica,sans-Serif" font-size="10.00" fill="#000000">omc_Config_getRunningTestsuite</text>
</a>
</g>
</g>
<!-- Node347877&#45;&gt;Node347886 -->
<g id="edge24" class="edge">
<title>Node347877&#45;&gt;Node347886</title>
<path fill="none" stroke="#191970" d="M1402.1952,-111.3175C1414.438,-111.3175 1427.4152,-111.3175 1440.2503,-111.3175"/>
<polygon fill="#191970" stroke="#191970" points="1440.4966,-114.8176 1450.4965,-111.3175 1440.4965,-107.8176 1440.4966,-114.8176"/>
</g>
<!-- Node347891 -->
<g id="node29" class="node">
<title>Node347891</title>
<g id="a_node29"><a xlink:href="../../d1/d5c/_config_8c.html#a9b4cae615bdffda9b7abbe6e04b1e6a5" target="_top" xlink:title="omc_Config_getRunningWSMTestsuite">
<polygon fill="#ffffff" stroke="#000000" points="1438,-63.8175 1438,-82.8175 1627,-82.8175 1627,-63.8175 1438,-63.8175"/>
<text text-anchor="middle" x="1532.5" y="-70.8175" font-family="Helvetica,sans-Serif" font-size="10.00" fill="#000000">omc_Config_getRunningWSMTestsuite</text>
</a>
</g>
</g>
<!-- Node347877&#45;&gt;Node347891 -->
<g id="edge29" class="edge">
<title>Node347877&#45;&gt;Node347891</title>
<path fill="none" stroke="#191970" d="M1384.9571,-101.7775C1411.654,-96.6279 1444.804,-90.2335 1472.9151,-84.811"/>
<polygon fill="#191970" stroke="#191970" points="1473.8665,-88.1921 1483.0225,-82.8614 1472.5406,-81.3188 1473.8665,-88.1921"/>
</g>
<!-- Node347879 -->
<g id="node17" class="node">
<title>Node347879</title>
<g id="a_node17"><a xlink:href="../../d1/d95/_system_8c.html#acb158f48d2d963dbc65eb161259659a7" target="_top" xlink:title="omc_System_basename">
<polygon fill="#ffffff" stroke="#000000" points="1669,-177.8175 1669,-196.8175 1794,-196.8175 1794,-177.8175 1669,-177.8175"/>
<text text-anchor="middle" x="1731.5" y="-184.8175" font-family="Helvetica,sans-Serif" font-size="10.00" fill="#000000">omc_System_basename</text>
</a>
</g>
</g>
<!-- Node347878&#45;&gt;Node347879 -->
<g id="edge17" class="edge">
<title>Node347878&#45;&gt;Node347879</title>
<path fill="none" stroke="#191970" d="M1582.4592,-158.8574C1609.5454,-164.0297 1643.2075,-170.4576 1671.6835,-175.8952"/>
<polygon fill="#191970" stroke="#191970" points="1671.0412,-179.3358 1681.5202,-177.7736 1672.3542,-172.46 1671.0412,-179.3358"/>
</g>
<!-- Node347884 -->
<g id="node22" class="node">
<title>Node347884</title>
<g id="a_node22"><a xlink:href="../../d1/d95/_system_8c.html#ab4261551580fc07778c15d3b0cb0cdfd" target="_top" xlink:title="omc_System_os">
<polygon fill="#ffffff" stroke="#000000" points="1686.5,-139.8175 1686.5,-158.8175 1776.5,-158.8175 1776.5,-139.8175 1686.5,-139.8175"/>
<text text-anchor="middle" x="1731.5" y="-146.8175" font-family="Helvetica,sans-Serif" font-size="10.00" fill="#000000">omc_System_os</text>
</a>
</g>
</g>
<!-- Node347878&#45;&gt;Node347884 -->
<g id="edge22" class="edge">
<title>Node347878&#45;&gt;Node347884</title>
<path fill="none" stroke="#191970" d="M1601.5421,-149.3175C1625.8792,-149.3175 1652.9068,-149.3175 1675.9829,-149.3175"/>
<polygon fill="#191970" stroke="#191970" points="1676.2836,-152.8176 1686.2836,-149.3175 1676.2835,-145.8176 1676.2836,-152.8176"/>
</g>
<!-- Node347880 -->
<g id="node18" class="node">
<title>Node347880</title>
<g id="a_node18"><a xlink:href="../../d8/d28/_compiler_2boot_2build_2system_8h.html#a7b722b53b1ba7f3ffdc3624727daa000" target="_top" xlink:title="System_basename">
<polygon fill="#ffffff" stroke="#000000" points="1854,-177.8175 1854,-196.8175 1955,-196.8175 1955,-177.8175 1854,-177.8175"/>
<text text-anchor="middle" x="1904.5" y="-184.8175" font-family="Helvetica,sans-Serif" font-size="10.00" fill="#000000">System_basename</text>
</a>
</g>
</g>
<!-- Node347879&#45;&gt;Node347880 -->
<g id="edge18" class="edge">
<title>Node347879&#45;&gt;Node347880</title>
<path fill="none" stroke="#191970" d="M1794.4464,-187.3175C1810.4551,-187.3175 1827.6291,-187.3175 1843.5371,-187.3175"/>
<polygon fill="#191970" stroke="#191970" points="1843.7833,-190.8176 1853.7833,-187.3175 1843.7832,-183.8176 1843.7833,-190.8176"/>
</g>
<!-- Node347881 -->
<g id="node19" class="node">
<title>Node347881</title>
<g id="a_node19"><a xlink:href="../../d4/d45/systemimpl_8c.html#af0ce445d63d4d737a2ed25d05b45463c" target="_top" xlink:title="SystemImpl__basename">
<polygon fill="#ffffff" stroke="#000000" points="2009,-215.8175 2009,-234.8175 2134,-234.8175 2134,-215.8175 2009,-215.8175"/>
<text text-anchor="middle" x="2071.5" y="-222.8175" font-family="Helvetica,sans-Serif" font-size="10.00" fill="#000000">SystemImpl__basename</text>
</a>
</g>
</g>
<!-- Node347880&#45;&gt;Node347881 -->
<g id="edge19" class="edge">
<title>Node347880&#45;&gt;Node347881</title>
<path fill="none" stroke="#191970" d="M1946.6412,-196.9065C1968.8771,-201.9662 1996.3482,-208.2171 2019.8564,-213.5663"/>
<polygon fill="#191970" stroke="#191970" points="2019.1345,-216.9914 2029.6619,-215.7974 2020.6877,-210.1659 2019.1345,-216.9914"/>
</g>
<!-- Node347882 -->
<g id="node20" class="node">
<title>Node347882</title>
<g id="a_node20"><a xlink:href="../../d7/dcd/group__core_utils.html#gaeccaa0b46edead0608a6982dddb917ec" target="_top" xlink:title="Allocate memory for a Modelica string which is used as return argument of an external Modelica functi...">
<polygon fill="#ffffff" stroke="#000000" points="2013.5,-177.8175 2013.5,-196.8175 2129.5,-196.8175 2129.5,-177.8175 2013.5,-177.8175"/>
<text text-anchor="middle" x="2071.5" y="-184.8175" font-family="Helvetica,sans-Serif" font-size="10.00" fill="#000000">ModelicaAllocateString</text>
</a>
</g>
</g>
<!-- Node347880&#45;&gt;Node347882 -->
<g id="edge20" class="edge">
<title>Node347880&#45;&gt;Node347882</title>
<path fill="none" stroke="#191970" d="M1955.0587,-187.3175C1970.1001,-187.3175 1986.8399,-187.3175 2002.83,-187.3175"/>
<polygon fill="#191970" stroke="#191970" points="2003.2042,-190.8176 2013.2042,-187.3175 2003.2041,-183.8176 2003.2042,-190.8176"/>
</g>
<!-- Node347883 -->
<g id="node21" class="node">
<title>Node347883</title>
<g id="a_node21"><a xlink:href="../../d6/d84/3rd_party_2open62541_2open62541_8h.html#aa383452fe445bfae989358c9d7d96f4f" target="_top" xlink:title="strlen">
<polygon fill="#ffffff" stroke="#000000" points="2051,-139.8175 2051,-158.8175 2092,-158.8175 2092,-139.8175 2051,-139.8175"/>
<text text-anchor="middle" x="2071.5" y="-146.8175" font-family="Helvetica,sans-Serif" font-size="10.00" fill="#000000">strlen</text>
</a>
</g>
</g>
<!-- Node347880&#45;&gt;Node347883 -->
<g id="edge21" class="edge">
<title>Node347880&#45;&gt;Node347883</title>
<path fill="none" stroke="#191970" d="M1946.6412,-177.7285C1975.9852,-171.0514 2014.4462,-162.2998 2040.8852,-156.2837"/>
<polygon fill="#191970" stroke="#191970" points="2041.7549,-159.6754 2050.7291,-154.0438 2040.2017,-152.8499 2041.7549,-159.6754"/>
</g>
<!-- Node347885 -->
<g id="node23" class="node">
<title>Node347885</title>
<g id="a_node23"><a xlink:href="../../d8/d28/_compiler_2boot_2build_2system_8h.html#a967ce96198372dc665f235bb728adb6f" target="_top" xlink:title="System_os">
<polygon fill="#ffffff" stroke="#000000" points="1871.5,-139.8175 1871.5,-158.8175 1937.5,-158.8175 1937.5,-139.8175 1871.5,-139.8175"/>
<text text-anchor="middle" x="1904.5" y="-146.8175" font-family="Helvetica,sans-Serif" font-size="10.00" fill="#000000">System_os</text>
</a>
</g>
</g>
<!-- Node347884&#45;&gt;Node347885 -->
<g id="edge23" class="edge">
<title>Node347884&#45;&gt;Node347885</title>
<path fill="none" stroke="#191970" d="M1776.5021,-149.3175C1802.6358,-149.3175 1835.3924,-149.3175 1861.2258,-149.3175"/>
<polygon fill="#191970" stroke="#191970" points="1861.4739,-152.8176 1871.4739,-149.3175 1861.4738,-145.8176 1861.4739,-152.8176"/>
</g>
<!-- Node347887 -->
<g id="node25" class="node">
<title>Node347887</title>
<g id="a_node25"><a xlink:href="../../d3/db3/_flags_8c.html#a1bdc57ee7db1a86ebd954e1aa4d04c0c" target="_top" xlink:title="omc_Flags_getConfigString">
<polygon fill="#ffffff" stroke="#000000" points="1663,-101.8175 1663,-120.8175 1800,-120.8175 1800,-101.8175 1663,-101.8175"/>
<text text-anchor="middle" x="1731.5" y="-108.8175" font-family="Helvetica,sans-Serif" font-size="10.00" fill="#000000">omc_Flags_getConfigString</text>
</a>
</g>
</g>
<!-- Node347886&#45;&gt;Node347887 -->
<g id="edge25" class="edge">
<title>Node347886&#45;&gt;Node347887</title>
<path fill="none" stroke="#191970" d="M1614.5898,-111.3175C1627.1364,-111.3175 1640.0642,-111.3175 1652.5414,-111.3175"/>
<polygon fill="#191970" stroke="#191970" points="1652.898,-114.8176 1662.898,-111.3175 1652.8979,-107.8176 1652.898,-114.8176"/>
</g>
<!-- Node347888 -->
<g id="node26" class="node">
<title>Node347888</title>
<g id="a_node26"><a xlink:href="../../d3/db3/_flags_8c.html#a96ba70d54b6662cf90933a207c0c6b8e" target="_top" xlink:title="omc_Flags_getConfigValue">
<polygon fill="#ffffff" stroke="#000000" points="1836,-82.8175 1836,-101.8175 1973,-101.8175 1973,-82.8175 1836,-82.8175"/>
<text text-anchor="middle" x="1904.5" y="-89.8175" font-family="Helvetica,sans-Serif" font-size="10.00" fill="#000000">omc_Flags_getConfigValue</text>
</a>
</g>
</g>
<!-- Node347887&#45;&gt;Node347888 -->
<g id="edge26" class="edge">
<title>Node347887&#45;&gt;Node347888</title>
<path fill="none" stroke="#191970" d="M1800.3713,-103.7536C1808.7692,-102.8313 1817.3987,-101.8835 1825.9246,-100.9472"/>
<polygon fill="#191970" stroke="#191970" points="1826.3076,-104.4262 1835.8657,-99.8554 1825.5433,-97.4681 1826.3076,-104.4262"/>
</g>
<!-- Node347889 -->
<g id="node27" class="node">
<title>Node347889</title>
<g id="a_node27"><a xlink:href="../../d3/db3/_flags_8c.html#a760d66f53b65ac257876ca0f6308f09f" target="_top" xlink:title="omc_Flags_loadFlags">
<polygon fill="#ffffff" stroke="#000000" points="2015.5,-82.8175 2015.5,-101.8175 2127.5,-101.8175 2127.5,-82.8175 2015.5,-82.8175"/>
<text text-anchor="middle" x="2071.5" y="-89.8175" font-family="Helvetica,sans-Serif" font-size="10.00" fill="#000000">omc_Flags_loadFlags</text>
</a>
</g>
</g>
<!-- Node347888&#45;&gt;Node347889 -->
<g id="edge27" class="edge">
<title>Node347888&#45;&gt;Node347889</title>
<path fill="none" stroke="#191970" d="M1973.3895,-92.3175C1983.9016,-92.3175 1994.7327,-92.3175 2005.188,-92.3175"/>
<polygon fill="#191970" stroke="#191970" points="2005.4923,-95.8176 2015.4922,-92.3175 2005.4922,-88.8176 2005.4923,-95.8176"/>
</g>
<!-- Node347890 -->
<g id="node28" class="node">
<title>Node347890</title>
<g id="a_node28"><a xlink:href="../../da/d72/_compiler_2boot_2build_2list_8c.html#a3ec1ee3a5ff53be9af368e290be09182" target="_top" xlink:title="omc_List_fold">
<polygon fill="#ffffff" stroke="#000000" points="2170,-82.8175 2170,-101.8175 2247,-101.8175 2247,-82.8175 2170,-82.8175"/>
<text text-anchor="middle" x="2208.5" y="-89.8175" font-family="Helvetica,sans-Serif" font-size="10.00" fill="#000000">omc_List_fold</text>
</a>
</g>
</g>
<!-- Node347889&#45;&gt;Node347890 -->
<g id="edge28" class="edge">
<title>Node347889&#45;&gt;Node347890</title>
<path fill="none" stroke="#191970" d="M2127.6184,-92.3175C2138.2594,-92.3175 2149.3126,-92.3175 2159.7046,-92.3175"/>
<polygon fill="#191970" stroke="#191970" points="2159.8364,-95.8176 2169.8363,-92.3175 2159.8363,-88.8176 2159.8364,-95.8176"/>
</g>
<!-- Node347892 -->
<g id="node30" class="node">
<title>Node347892</title>
<g id="a_node30"><a xlink:href="../../d3/db3/_flags_8c.html#abc3d84cf6e1cf18f0cec0f052e7c85d9" target="_top" xlink:title="omc_Flags_getConfigBool">
<polygon fill="#ffffff" stroke="#000000" points="1666,-63.8175 1666,-82.8175 1797,-82.8175 1797,-63.8175 1666,-63.8175"/>
<text text-anchor="middle" x="1731.5" y="-70.8175" font-family="Helvetica,sans-Serif" font-size="10.00" fill="#000000">omc_Flags_getConfigBool</text>
</a>
</g>
</g>
<!-- Node347891&#45;&gt;Node347892 -->
<g id="edge30" class="edge">
<title>Node347891&#45;&gt;Node347892</title>
<path fill="none" stroke="#191970" d="M1627.0463,-73.3175C1636.6938,-73.3175 1646.4037,-73.3175 1655.8118,-73.3175"/>
<polygon fill="#191970" stroke="#191970" points="1655.885,-76.8176 1665.8849,-73.3175 1655.8849,-69.8176 1655.885,-76.8176"/>
</g>
<!-- Node347892&#45;&gt;Node347888 -->
<g id="edge31" class="edge">
<title>Node347892&#45;&gt;Node347888</title>
<path fill="none" stroke="#191970" d="M1797.3974,-80.5548C1806.6537,-81.5714 1816.2443,-82.6247 1825.7107,-83.6643"/>
<polygon fill="#191970" stroke="#191970" points="1825.5899,-87.172 1835.9123,-84.7847 1826.3542,-80.2139 1825.5899,-87.172"/>
</g>
</g>
</svg>
