<?xml version="1.0" encoding="UTF-8" standalone="no"?>
<!DOCTYPE svg PUBLIC "-//W3C//DTD SVG 1.1//EN"
 "http://www.w3.org/Graphics/SVG/1.1/DTD/svg11.dtd">
<!-- Generated by graphviz version 2.40.1 (20161225.0304)
 -->
<!-- Title: omc_CodegenCpp_lm__368 Pages: 1 -->
<svg width="1266pt" height="116pt"
 viewBox="0.00 0.00 1266.00 115.50" xmlns="http://www.w3.org/2000/svg" xmlns:xlink="http://www.w3.org/1999/xlink">
<g id="graph0" class="graph" transform="scale(1 1) rotate(0) translate(4 111.5)">
<title>omc_CodegenCpp_lm__368</title>
<polygon fill="#ffffff" stroke="transparent" points="-4,4 -4,-111.5 1262,-111.5 1262,4 -4,4"/>
<!-- Node353700 -->
<g id="node1" class="node">
<title>Node353700</title>
<polygon fill="#bfbfbf" stroke="#000000" points="0,-19.5 0,-38.5 140,-38.5 140,-19.5 0,-19.5"/>
<text text-anchor="middle" x="70" y="-26.5" font-family="Helvetica,sans-Serif" font-size="10.00" fill="#000000">omc_CodegenCpp_lm__368</text>
</g>
<!-- Node353701 -->
<g id="node2" class="node">
<title>Node353701</title>
<g id="a_node2"><a xlink:href="../../d0/df9/_codegen_cpp_8c.html#a852642d75b568dab64cf7583cc11ab7b" target="_top" xlink:title="omc_CodegenCpp_fun__374">
<polygon fill="#ffffff" stroke="#000000" points="176,-19.5 176,-38.5 319,-38.5 319,-19.5 176,-19.5"/>
<text text-anchor="middle" x="247.5" y="-26.5" font-family="Helvetica,sans-Serif" font-size="10.00" fill="#000000">omc_CodegenCpp_fun__374</text>
</a>
</g>
</g>
<!-- Node353700&#45;&gt;Node353701 -->
<g id="edge1" class="edge">
<title>Node353700&#45;&gt;Node353701</title>
<path fill="none" stroke="#191970" d="M150.4134,-29C158.884,-29 167.4569,-29 175.8196,-29"/>
<polygon fill="#191970" stroke="#191970" points="150.1527,-25.5001 140.1527,-29 150.1527,-32.5001 150.1527,-25.5001"/>
</g>
<!-- Node353702 -->
<g id="node3" class="node">
<title>Node353702</title>
<g id="a_node3"><a xlink:href="../../d0/df9/_codegen_cpp_8c.html#a8d4898836bebad31337e7f27dc2660bf" target="_top" xlink:title="omc_CodegenCpp_fun__376">
<polygon fill="#ffffff" stroke="#000000" points="359,-38.5 359,-57.5 502,-57.5 502,-38.5 359,-38.5"/>
<text text-anchor="middle" x="430.5" y="-45.5" font-family="Helvetica,sans-Serif" font-size="10.00" fill="#000000">omc_CodegenCpp_fun__376</text>
</a>
</g>
</g>
<!-- Node353701&#45;&gt;Node353702 -->
<g id="edge2" class="edge">
<title>Node353701&#45;&gt;Node353702</title>
<path fill="none" stroke="#191970" d="M329.2122,-37.4838C339.0461,-38.5048 349.0325,-39.5416 358.7101,-40.5464"/>
<polygon fill="#191970" stroke="#191970" points="329.3468,-33.979 319.0388,-36.4275 328.6239,-40.9416 329.3468,-33.979"/>
</g>
<!-- Node353709 -->
<g id="node10" class="node">
<title>Node353709</title>
<g id="a_node10"><a xlink:href="../../d0/df9/_codegen_cpp_8c.html#a34848354f1b6dac2fdaf95d873a02699" target="_top" xlink:title="boxptr_CodegenCpp_fun__374">
<polygon fill="#ffffff" stroke="#000000" points="355,-.5 355,-19.5 506,-19.5 506,-.5 355,-.5"/>
<text text-anchor="middle" x="430.5" y="-7.5" font-family="Helvetica,sans-Serif" font-size="10.00" fill="#000000">boxptr_CodegenCpp_fun__374</text>
</a>
</g>
</g>
<!-- Node353701&#45;&gt;Node353709 -->
<g id="edge9" class="edge">
<title>Node353701&#45;&gt;Node353709</title>
<path fill="none" stroke="#191970" d="M329.0259,-20.5356C337.5952,-19.6459 346.2826,-18.7439 354.7826,-17.8614"/>
<polygon fill="#191970" stroke="#191970" points="328.6239,-17.0584 319.0388,-21.5725 329.3468,-24.021 328.6239,-17.0584"/>
</g>
<!-- Node353703 -->
<g id="node4" class="node">
<title>Node353703</title>
<g id="a_node4"><a xlink:href="../../d6/d8e/_codegen_cpp_8h.html#a24fc64eaeb1e57c446532b30a8374f4e" target="_top" xlink:title="omc_CodegenCpp_simulation\lMakefile">
<polygon fill="#ffffff" stroke="#000000" points="544,-55 544,-85 691,-85 691,-55 544,-55"/>
<text text-anchor="start" x="552" y="-73" font-family="Helvetica,sans-Serif" font-size="10.00" fill="#000000">omc_CodegenCpp_simulation</text>
<text text-anchor="middle" x="617.5" y="-62" font-family="Helvetica,sans-Serif" font-size="10.00" fill="#000000">Makefile</text>
</a>
</g>
</g>
<!-- Node353702&#45;&gt;Node353703 -->
<g id="edge3" class="edge">
<title>Node353702&#45;&gt;Node353703</title>
<path fill="none" stroke="#191970" d="M512.2391,-57.6164C522.7253,-58.85 533.4121,-60.1073 543.7604,-61.3248"/>
<polygon fill="#191970" stroke="#191970" points="512.6048,-54.1353 502.2643,-56.4429 511.7868,-61.0874 512.6048,-54.1353"/>
</g>
<!-- Node353708 -->
<g id="node9" class="node">
<title>Node353708</title>
<g id="a_node9"><a xlink:href="../../d0/df9/_codegen_cpp_8c.html#a604f973d2c93fb109b9d03aac3fd66f8" target="_top" xlink:title="boxptr_CodegenCpp_fun__376">
<polygon fill="#ffffff" stroke="#000000" points="542,-16.5 542,-35.5 693,-35.5 693,-16.5 542,-16.5"/>
<text text-anchor="middle" x="617.5" y="-23.5" font-family="Helvetica,sans-Serif" font-size="10.00" fill="#000000">boxptr_CodegenCpp_fun__376</text>
</a>
</g>
</g>
<!-- Node353702&#45;&gt;Node353708 -->
<g id="edge8" class="edge">
<title>Node353702&#45;&gt;Node353708</title>
<path fill="none" stroke="#191970" d="M512.4012,-38.3646C522.2064,-37.211 532.1843,-36.0371 541.8948,-34.8947"/>
<polygon fill="#191970" stroke="#191970" points="511.7868,-34.9126 502.2643,-39.5571 512.6048,-41.8647 511.7868,-34.9126"/>
</g>
<!-- Node353704 -->
<g id="node5" class="node">
<title>Node353704</title>
<g id="a_node5"><a xlink:href="../../d6/d8e/_codegen_cpp_8h.html#a3abde2c9199a2301715e37351d0ee7a8" target="_top" xlink:title="boxptr_CodegenCpp_simulation\lMakefile">
<polygon fill="#ffffff" stroke="#000000" points="729,-77 729,-107 884,-107 884,-77 729,-77"/>
<text text-anchor="start" x="737" y="-95" font-family="Helvetica,sans-Serif" font-size="10.00" fill="#000000">boxptr_CodegenCpp_simulation</text>
<text text-anchor="middle" x="806.5" y="-84" font-family="Helvetica,sans-Serif" font-size="10.00" fill="#000000">Makefile</text>
</a>
</g>
</g>
<!-- Node353703&#45;&gt;Node353704 -->
<g id="edge4" class="edge">
<title>Node353703&#45;&gt;Node353704</title>
<path fill="none" stroke="#191970" d="M701.3251,-79.7574C710.4364,-80.818 719.6818,-81.8942 728.7166,-82.9458"/>
<polygon fill="#191970" stroke="#191970" points="701.4512,-76.2485 691.1135,-78.5688 700.6418,-83.2016 701.4512,-76.2485"/>
</g>
<!-- Node353705 -->
<g id="node6" class="node">
<title>Node353705</title>
<g id="a_node6"><a xlink:href="../../d0/df9/_codegen_cpp_8c.html#aa7c7709a5cda769632291bb6f29d8b29" target="_top" xlink:title="omc_CodegenCpp_fun__46">
<polygon fill="#ffffff" stroke="#000000" points="738,-38.5 738,-57.5 875,-57.5 875,-38.5 738,-38.5"/>
<text text-anchor="middle" x="806.5" y="-45.5" font-family="Helvetica,sans-Serif" font-size="10.00" fill="#000000">omc_CodegenCpp_fun__46</text>
</a>
</g>
</g>
<!-- Node353703&#45;&gt;Node353705 -->
<g id="edge5" class="edge">
<title>Node353703&#45;&gt;Node353705</title>
<path fill="none" stroke="#191970" d="M701.2732,-60.2486C713.4572,-58.8304 725.8821,-57.3841 737.7237,-56.0057"/>
<polygon fill="#191970" stroke="#191970" points="700.6418,-56.7984 691.1135,-61.4312 701.4512,-63.7515 700.6418,-56.7984"/>
</g>
<!-- Node353706 -->
<g id="node7" class="node">
<title>Node353706</title>
<g id="a_node7"><a xlink:href="../../d6/d8e/_codegen_cpp_8h.html#a54676ae5ee46975a3ec1566a9856625c" target="_top" xlink:title="omc_CodegenCpp_translate\lModel">
<polygon fill="#ffffff" stroke="#000000" points="920,-33 920,-63 1060,-63 1060,-33 920,-33"/>
<text text-anchor="start" x="928" y="-51" font-family="Helvetica,sans-Serif" font-size="10.00" fill="#000000">omc_CodegenCpp_translate</text>
<text text-anchor="middle" x="990" y="-40" font-family="Helvetica,sans-Serif" font-size="10.00" fill="#000000">Model</text>
</a>
</g>
</g>
<!-- Node353705&#45;&gt;Node353706 -->
<g id="edge6" class="edge">
<title>Node353705&#45;&gt;Node353706</title>
<path fill="none" stroke="#191970" d="M885.164,-48C896.7326,-48 908.5846,-48 919.9639,-48"/>
<polygon fill="#191970" stroke="#191970" points="885.0896,-44.5001 875.0896,-48 885.0895,-51.5001 885.0896,-44.5001"/>
</g>
<!-- Node353707 -->
<g id="node8" class="node">
<title>Node353707</title>
<g id="a_node8"><a xlink:href="../../d5/d4c/_codegen_f_m_u_cpp_8h.html#a1fc774045fbfd7b6dc9872f8b61ccdad" target="_top" xlink:title="omc_CodegenFMUCpp_translate\lModel">
<polygon fill="#ffffff" stroke="#000000" points="1096,-33 1096,-63 1258,-63 1258,-33 1096,-33"/>
<text text-anchor="start" x="1104" y="-51" font-family="Helvetica,sans-Serif" font-size="10.00" fill="#000000">omc_CodegenFMUCpp_translate</text>
<text text-anchor="middle" x="1177" y="-40" font-family="Helvetica,sans-Serif" font-size="10.00" fill="#000000">Model</text>
</a>
</g>
</g>
<!-- Node353706&#45;&gt;Node353707 -->
<g id="edge7" class="edge">
<title>Node353706&#45;&gt;Node353707</title>
<path fill="none" stroke="#191970" d="M1070.3393,-48C1078.7557,-48 1087.3173,-48 1095.744,-48"/>
<polygon fill="#191970" stroke="#191970" points="1070.164,-44.5001 1060.1639,-48 1070.1639,-51.5001 1070.164,-44.5001"/>
</g>
</g>
</svg>
