<?xml version="1.0" encoding="UTF-8" standalone="no"?>
<!DOCTYPE svg PUBLIC "-//W3C//DTD SVG 1.1//EN"
 "http://www.w3.org/Graphics/SVG/1.1/DTD/svg11.dtd">
<!-- Generated by graphviz version 2.40.1 (20161225.0304)
 -->
<!-- Title: omc_CodegenCpp_lm__1402 Pages: 1 -->
<svg width="1855pt" height="100pt"
 viewBox="0.00 0.00 1855.00 99.50" xmlns="http://www.w3.org/2000/svg" xmlns:xlink="http://www.w3.org/1999/xlink">
<g id="graph0" class="graph" transform="scale(1 1) rotate(0) translate(4 95.5)">
<title>omc_CodegenCpp_lm__1402</title>
<polygon fill="#ffffff" stroke="transparent" points="-4,4 -4,-95.5 1851,-95.5 1851,4 -4,4"/>
<!-- Node331658 -->
<g id="node1" class="node">
<title>Node331658</title>
<polygon fill="#bfbfbf" stroke="#000000" points="0,-22.5 0,-41.5 145,-41.5 145,-22.5 0,-22.5"/>
<text text-anchor="middle" x="72.5" y="-29.5" font-family="Helvetica,sans-Serif" font-size="10.00" fill="#000000">omc_CodegenCpp_lm__1402</text>
</g>
<!-- Node331659 -->
<g id="node2" class="node">
<title>Node331659</title>
<g id="a_node2"><a xlink:href="../../d6/d8e/_codegen_cpp_8h.html#ae85c563ec1067ba6c5f9373f4babdf86" target="_top" xlink:title="omc_CodegenCpp_zeroCrossingsTpl2">
<polygon fill="#ffffff" stroke="#000000" points="181,-22.5 181,-41.5 366,-41.5 366,-22.5 181,-22.5"/>
<text text-anchor="middle" x="273.5" y="-29.5" font-family="Helvetica,sans-Serif" font-size="10.00" fill="#000000">omc_CodegenCpp_zeroCrossingsTpl2</text>
</a>
</g>
</g>
<!-- Node331658&#45;&gt;Node331659 -->
<g id="edge1" class="edge">
<title>Node331658&#45;&gt;Node331659</title>
<path fill="none" stroke="#191970" d="M155.2279,-32C163.6424,-32 172.2287,-32 180.7405,-32"/>
<polygon fill="#191970" stroke="#191970" points="155.0656,-28.5001 145.0656,-32 155.0656,-35.5001 155.0656,-28.5001"/>
</g>
<!-- Node331660 -->
<g id="node3" class="node">
<title>Node331660</title>
<g id="a_node3"><a xlink:href="../../d6/d8e/_codegen_cpp_8h.html#a89e56ebc2a132431293e485bf7f42b8d" target="_top" xlink:title="omc_CodegenCpp_functionOnly\lZeroCrossing">
<polygon fill="#ffffff" stroke="#000000" points="402,-17 402,-47 560,-47 560,-17 402,-17"/>
<text text-anchor="start" x="410" y="-35" font-family="Helvetica,sans-Serif" font-size="10.00" fill="#000000">omc_CodegenCpp_functionOnly</text>
<text text-anchor="middle" x="481" y="-24" font-family="Helvetica,sans-Serif" font-size="10.00" fill="#000000">ZeroCrossing</text>
</a>
</g>
</g>
<!-- Node331659&#45;&gt;Node331660 -->
<g id="edge2" class="edge">
<title>Node331659&#45;&gt;Node331660</title>
<path fill="none" stroke="#191970" d="M376.1785,-32C384.8456,-32 393.5226,-32 401.9676,-32"/>
<polygon fill="#191970" stroke="#191970" points="376.0233,-28.5001 366.0232,-32 376.0232,-35.5001 376.0233,-28.5001"/>
</g>
<!-- Node331661 -->
<g id="node4" class="node">
<title>Node331661</title>
<g id="a_node4"><a xlink:href="../../d0/df9/_codegen_cpp_8c.html#a415810f2ec386743c5154c6c8f3edddc" target="_top" xlink:title="omc_CodegenCpp_fun__707">
<polygon fill="#ffffff" stroke="#000000" points="596,-22.5 596,-41.5 739,-41.5 739,-22.5 596,-22.5"/>
<text text-anchor="middle" x="667.5" y="-29.5" font-family="Helvetica,sans-Serif" font-size="10.00" fill="#000000">omc_CodegenCpp_fun__707</text>
</a>
</g>
</g>
<!-- Node331660&#45;&gt;Node331661 -->
<g id="edge3" class="edge">
<title>Node331660&#45;&gt;Node331661</title>
<path fill="none" stroke="#191970" d="M570.2018,-32C578.8465,-32 587.5378,-32 595.9776,-32"/>
<polygon fill="#191970" stroke="#191970" points="570.0928,-28.5001 560.0928,-32 570.0928,-35.5001 570.0928,-28.5001"/>
</g>
<!-- Node331662 -->
<g id="node5" class="node">
<title>Node331662</title>
<g id="a_node5"><a xlink:href="../../d6/d8e/_codegen_cpp_8h.html#ac0fff69f8c9828faabeef00a0442a80b" target="_top" xlink:title="omc_CodegenCpp_init">
<polygon fill="#ffffff" stroke="#000000" points="792.5,-41.5 792.5,-60.5 908.5,-60.5 908.5,-41.5 792.5,-41.5"/>
<text text-anchor="middle" x="850.5" y="-48.5" font-family="Helvetica,sans-Serif" font-size="10.00" fill="#000000">omc_CodegenCpp_init</text>
</a>
</g>
</g>
<!-- Node331661&#45;&gt;Node331662 -->
<g id="edge4" class="edge">
<title>Node331661&#45;&gt;Node331662</title>
<path fill="none" stroke="#191970" d="M749.0545,-40.4674C763.6269,-41.9804 778.5398,-43.5287 792.2912,-44.9565"/>
<polygon fill="#191970" stroke="#191970" points="749.3468,-36.979 739.0388,-39.4275 748.6239,-43.9416 749.3468,-36.979"/>
</g>
<!-- Node331671 -->
<g id="node14" class="node">
<title>Node331671</title>
<g id="a_node14"><a xlink:href="../../d0/df9/_codegen_cpp_8c.html#a7ae52fb5f2bdf010ad4d02561993ab48" target="_top" xlink:title="boxptr_CodegenCpp_fun__707">
<polygon fill="#ffffff" stroke="#000000" points="775,-3.5 775,-22.5 926,-22.5 926,-3.5 775,-3.5"/>
<text text-anchor="middle" x="850.5" y="-10.5" font-family="Helvetica,sans-Serif" font-size="10.00" fill="#000000">boxptr_CodegenCpp_fun__707</text>
</a>
</g>
</g>
<!-- Node331661&#45;&gt;Node331671 -->
<g id="edge13" class="edge">
<title>Node331661&#45;&gt;Node331671</title>
<path fill="none" stroke="#191970" d="M749.0259,-23.5356C757.5952,-22.6459 766.2826,-21.7439 774.7826,-20.8614"/>
<polygon fill="#191970" stroke="#191970" points="748.6239,-20.0584 739.0388,-24.5725 749.3468,-27.021 748.6239,-20.0584"/>
</g>
<!-- Node331663 -->
<g id="node6" class="node">
<title>Node331663</title>
<g id="a_node6"><a xlink:href="../../d6/d8e/_codegen_cpp_8h.html#abd40527a1c1adc7ee1426bd310cdb993" target="_top" xlink:title="boxptr_CodegenCpp_init">
<polygon fill="#ffffff" stroke="#000000" points="968.5,-60.5 968.5,-79.5 1092.5,-79.5 1092.5,-60.5 968.5,-60.5"/>
<text text-anchor="middle" x="1030.5" y="-67.5" font-family="Helvetica,sans-Serif" font-size="10.00" fill="#000000">boxptr_CodegenCpp_init</text>
</a>
</g>
</g>
<!-- Node331662&#45;&gt;Node331663 -->
<g id="edge5" class="edge">
<title>Node331662&#45;&gt;Node331663</title>
<path fill="none" stroke="#191970" d="M918.9028,-58.2203C935.1422,-59.9345 952.3786,-61.7538 968.3228,-63.4369"/>
<polygon fill="#191970" stroke="#191970" points="919.253,-54.7379 908.9408,-57.1688 918.5182,-61.6992 919.253,-54.7379"/>
</g>
<!-- Node331664 -->
<g id="node7" class="node">
<title>Node331664</title>
<g id="a_node7"><a xlink:href="../../d0/df9/_codegen_cpp_8c.html#a954148b0dc99e696e01e0b6f6e8e6a5f" target="_top" xlink:title="omc_CodegenCpp_fun__79">
<polygon fill="#ffffff" stroke="#000000" points="962,-22.5 962,-41.5 1099,-41.5 1099,-22.5 962,-22.5"/>
<text text-anchor="middle" x="1030.5" y="-29.5" font-family="Helvetica,sans-Serif" font-size="10.00" fill="#000000">omc_CodegenCpp_fun__79</text>
</a>
</g>
</g>
<!-- Node331662&#45;&gt;Node331664 -->
<g id="edge6" class="edge">
<title>Node331662&#45;&gt;Node331664</title>
<path fill="none" stroke="#191970" d="M918.9774,-43.7718C932.9685,-42.295 947.6969,-40.7403 961.6993,-39.2623"/>
<polygon fill="#191970" stroke="#191970" points="918.5182,-40.3008 908.9408,-44.8312 919.253,-47.2621 918.5182,-40.3008"/>
</g>
<!-- Node331665 -->
<g id="node8" class="node">
<title>Node331665</title>
<g id="a_node8"><a xlink:href="../../d6/d8e/_codegen_cpp_8h.html#add0c769243a8180c2706b4f39f55d28e" target="_top" xlink:title="omc_CodegenCpp_simulation\lInitCppFile">
<polygon fill="#ffffff" stroke="#000000" points="1135,-39 1135,-69 1282,-69 1282,-39 1135,-39"/>
<text text-anchor="start" x="1143" y="-57" font-family="Helvetica,sans-Serif" font-size="10.00" fill="#000000">omc_CodegenCpp_simulation</text>
<text text-anchor="middle" x="1208.5" y="-46" font-family="Helvetica,sans-Serif" font-size="10.00" fill="#000000">InitCppFile</text>
</a>
</g>
</g>
<!-- Node331664&#45;&gt;Node331665 -->
<g id="edge7" class="edge">
<title>Node331664&#45;&gt;Node331665</title>
<path fill="none" stroke="#191970" d="M1109.0805,-41.7122C1117.6806,-42.7751 1126.4123,-43.8543 1134.9483,-44.9093"/>
<polygon fill="#191970" stroke="#191970" points="1109.4187,-38.2274 1099.0648,-40.4743 1108.56,-45.1746 1109.4187,-38.2274"/>
</g>
<!-- Node331670 -->
<g id="node13" class="node">
<title>Node331670</title>
<g id="a_node13"><a xlink:href="../../d0/df9/_codegen_cpp_8c.html#a3e017b22577c199e680bae66f40bdb64" target="_top" xlink:title="boxptr_CodegenCpp_fun__79">
<polygon fill="#ffffff" stroke="#000000" points="1135.5,-.5 1135.5,-19.5 1281.5,-19.5 1281.5,-.5 1135.5,-.5"/>
<text text-anchor="middle" x="1208.5" y="-7.5" font-family="Helvetica,sans-Serif" font-size="10.00" fill="#000000">boxptr_CodegenCpp_fun__79</text>
</a>
</g>
</g>
<!-- Node331664&#45;&gt;Node331670 -->
<g id="edge12" class="edge">
<title>Node331664&#45;&gt;Node331670</title>
<path fill="none" stroke="#191970" d="M1109.1647,-22.2774C1117.8373,-21.2055 1126.6426,-20.1172 1135.2452,-19.054"/>
<polygon fill="#191970" stroke="#191970" points="1108.56,-18.8254 1099.0648,-23.5257 1109.4187,-25.7726 1108.56,-18.8254"/>
</g>
<!-- Node331666 -->
<g id="node9" class="node">
<title>Node331666</title>
<g id="a_node9"><a xlink:href="../../d6/d8e/_codegen_cpp_8h.html#a116ded935091e83b939ed564f83c75d5" target="_top" xlink:title="boxptr_CodegenCpp_simulation\lInitCppFile">
<polygon fill="#ffffff" stroke="#000000" points="1318,-61 1318,-91 1473,-91 1473,-61 1318,-61"/>
<text text-anchor="start" x="1326" y="-79" font-family="Helvetica,sans-Serif" font-size="10.00" fill="#000000">boxptr_CodegenCpp_simulation</text>
<text text-anchor="middle" x="1395.5" y="-68" font-family="Helvetica,sans-Serif" font-size="10.00" fill="#000000">InitCppFile</text>
</a>
</g>
</g>
<!-- Node331665&#45;&gt;Node331666 -->
<g id="edge8" class="edge">
<title>Node331665&#45;&gt;Node331666</title>
<path fill="none" stroke="#191970" d="M1292.1427,-63.8403C1300.7233,-64.8498 1309.4158,-65.8724 1317.9269,-66.8738"/>
<polygon fill="#191970" stroke="#191970" points="1292.4794,-60.3559 1282.1389,-62.6634 1291.6614,-67.3079 1292.4794,-60.3559"/>
</g>
<!-- Node331667 -->
<g id="node10" class="node">
<title>Node331667</title>
<g id="a_node10"><a xlink:href="../../d0/df9/_codegen_cpp_8c.html#aa7c7709a5cda769632291bb6f29d8b29" target="_top" xlink:title="omc_CodegenCpp_fun__46">
<polygon fill="#ffffff" stroke="#000000" points="1327,-22.5 1327,-41.5 1464,-41.5 1464,-22.5 1327,-22.5"/>
<text text-anchor="middle" x="1395.5" y="-29.5" font-family="Helvetica,sans-Serif" font-size="10.00" fill="#000000">omc_CodegenCpp_fun__46</text>
</a>
</g>
</g>
<!-- Node331665&#45;&gt;Node331667 -->
<g id="edge9" class="edge">
<title>Node331665&#45;&gt;Node331667</title>
<path fill="none" stroke="#191970" d="M1292.2303,-44.1494C1303.7932,-42.789 1315.5576,-41.405 1326.8057,-40.0817"/>
<polygon fill="#191970" stroke="#191970" points="1291.6615,-40.6921 1282.1389,-45.3366 1292.4794,-47.6441 1291.6615,-40.6921"/>
</g>
<!-- Node331668 -->
<g id="node11" class="node">
<title>Node331668</title>
<g id="a_node11"><a xlink:href="../../d6/d8e/_codegen_cpp_8h.html#a54676ae5ee46975a3ec1566a9856625c" target="_top" xlink:title="omc_CodegenCpp_translate\lModel">
<polygon fill="#ffffff" stroke="#000000" points="1509,-17 1509,-47 1649,-47 1649,-17 1509,-17"/>
<text text-anchor="start" x="1517" y="-35" font-family="Helvetica,sans-Serif" font-size="10.00" fill="#000000">omc_CodegenCpp_translate</text>
<text text-anchor="middle" x="1579" y="-24" font-family="Helvetica,sans-Serif" font-size="10.00" fill="#000000">Model</text>
</a>
</g>
</g>
<!-- Node331667&#45;&gt;Node331668 -->
<g id="edge10" class="edge">
<title>Node331667&#45;&gt;Node331668</title>
<path fill="none" stroke="#191970" d="M1474.164,-32C1485.7326,-32 1497.5846,-32 1508.9639,-32"/>
<polygon fill="#191970" stroke="#191970" points="1474.0896,-28.5001 1464.0896,-32 1474.0895,-35.5001 1474.0896,-28.5001"/>
</g>
<!-- Node331669 -->
<g id="node12" class="node">
<title>Node331669</title>
<g id="a_node12"><a xlink:href="../../d5/d4c/_codegen_f_m_u_cpp_8h.html#a1fc774045fbfd7b6dc9872f8b61ccdad" target="_top" xlink:title="omc_CodegenFMUCpp_translate\lModel">
<polygon fill="#ffffff" stroke="#000000" points="1685,-17 1685,-47 1847,-47 1847,-17 1685,-17"/>
<text text-anchor="start" x="1693" y="-35" font-family="Helvetica,sans-Serif" font-size="10.00" fill="#000000">omc_CodegenFMUCpp_translate</text>
<text text-anchor="middle" x="1766" y="-24" font-family="Helvetica,sans-Serif" font-size="10.00" fill="#000000">Model</text>
</a>
</g>
</g>
<!-- Node331668&#45;&gt;Node331669 -->
<g id="edge11" class="edge">
<title>Node331668&#45;&gt;Node331669</title>
<path fill="none" stroke="#191970" d="M1659.3393,-32C1667.7557,-32 1676.3173,-32 1684.744,-32"/>
<polygon fill="#191970" stroke="#191970" points="1659.164,-28.5001 1649.1639,-32 1659.1639,-35.5001 1659.164,-28.5001"/>
</g>
</g>
</svg>
