<?xml version="1.0" encoding="UTF-8" standalone="no"?>
<!DOCTYPE svg PUBLIC "-//W3C//DTD SVG 1.1//EN"
 "http://www.w3.org/Graphics/SVG/1.1/DTD/svg11.dtd">
<!-- Generated by graphviz version 2.40.1 (20161225.0304)
 -->
<!-- Title: omc_CodegenCpp_fun__488 Pages: 1 -->
<svg width="2874pt" height="230pt"
 viewBox="0.00 0.00 2874.00 229.50" xmlns="http://www.w3.org/2000/svg" xmlns:xlink="http://www.w3.org/1999/xlink">
<g id="graph0" class="graph" transform="scale(1 1) rotate(0) translate(4 225.5)">
<title>omc_CodegenCpp_fun__488</title>
<polygon fill="#ffffff" stroke="transparent" points="-4,4 -4,-225.5 2870,-225.5 2870,4 -4,4"/>
<!-- Node262895 -->
<g id="node1" class="node">
<title>Node262895</title>
<polygon fill="#bfbfbf" stroke="#000000" points="0,-34 0,-53 143,-53 143,-34 0,-34"/>
<text text-anchor="middle" x="71.5" y="-41" font-family="Helvetica,sans-Serif" font-size="10.00" fill="#000000">omc_CodegenCpp_fun__488</text>
</g>
<!-- Node262896 -->
<g id="node2" class="node">
<title>Node262896</title>
<g id="a_node2"><a xlink:href="../../d6/d8e/_codegen_cpp_8h.html#a261bef5426dd107694db7f5bbc3de8a6" target="_top" xlink:title="omc_CodegenCpp_tupplearrayassign">
<polygon fill="#ffffff" stroke="#000000" points="179,-53 179,-72 358,-72 358,-53 179,-53"/>
<text text-anchor="middle" x="268.5" y="-60" font-family="Helvetica,sans-Serif" font-size="10.00" fill="#000000">omc_CodegenCpp_tupplearrayassign</text>
</a>
</g>
</g>
<!-- Node262895&#45;&gt;Node262896 -->
<g id="edge1" class="edge">
<title>Node262895&#45;&gt;Node262896</title>
<path fill="none" stroke="#191970" d="M153.3126,-51.3906C161.7021,-52.1997 170.258,-53.0249 178.7271,-53.8417"/>
<polygon fill="#191970" stroke="#191970" points="153.4686,-47.8895 143.1788,-50.4132 152.7966,-54.8571 153.4686,-47.8895"/>
</g>
<!-- Node262930 -->
<g id="node36" class="node">
<title>Node262930</title>
<g id="a_node36"><a xlink:href="../../d0/df9/_codegen_cpp_8c.html#a290a82e3cd869fff02a4e5fb1a7e2815" target="_top" xlink:title="boxptr_CodegenCpp_fun__488">
<polygon fill="#ffffff" stroke="#000000" points="193,-15 193,-34 344,-34 344,-15 193,-15"/>
<text text-anchor="middle" x="268.5" y="-22" font-family="Helvetica,sans-Serif" font-size="10.00" fill="#000000">boxptr_CodegenCpp_fun__488</text>
</a>
</g>
</g>
<!-- Node262895&#45;&gt;Node262930 -->
<g id="edge40" class="edge">
<title>Node262895&#45;&gt;Node262930</title>
<path fill="none" stroke="#191970" d="M153.1467,-35.6254C166.3083,-34.3561 179.8836,-33.0468 192.8948,-31.7919"/>
<polygon fill="#191970" stroke="#191970" points="152.7966,-32.1429 143.1788,-36.5868 153.4686,-39.1105 152.7966,-32.1429"/>
</g>
<!-- Node262897 -->
<g id="node3" class="node">
<title>Node262897</title>
<g id="a_node3"><a xlink:href="../../d0/df9/_codegen_cpp_8c.html#a4933b9c7836eeb4dc67791b55e413ac5" target="_top" xlink:title="omc_CodegenCpp_lm__495">
<polygon fill="#ffffff" stroke="#000000" points="418,-96 418,-115 558,-115 558,-96 418,-96"/>
<text text-anchor="middle" x="488" y="-103" font-family="Helvetica,sans-Serif" font-size="10.00" fill="#000000">omc_CodegenCpp_lm__495</text>
</a>
</g>
</g>
<!-- Node262896&#45;&gt;Node262897 -->
<g id="edge2" class="edge">
<title>Node262896&#45;&gt;Node262897</title>
<path fill="none" stroke="#191970" d="M327.3169,-74.0222C362.3758,-80.8902 406.345,-89.5038 439.422,-95.9836"/>
<polygon fill="#191970" stroke="#191970" points="327.7005,-70.5309 317.2142,-72.0431 326.3547,-77.4003 327.7005,-70.5309"/>
</g>
<!-- Node262926 -->
<g id="node32" class="node">
<title>Node262926</title>
<g id="a_node32"><a xlink:href="../../d6/d8e/_codegen_cpp_8h.html#a27c99e8cfad1a221e52c8aae0107e099" target="_top" xlink:title="boxptr_CodegenCpp_tupplearrayassign">
<polygon fill="#ffffff" stroke="#000000" points="394,-15 394,-34 582,-34 582,-15 394,-15"/>
<text text-anchor="middle" x="488" y="-22" font-family="Helvetica,sans-Serif" font-size="10.00" fill="#000000">boxptr_CodegenCpp_tupplearrayassign</text>
</a>
</g>
</g>
<!-- Node262896&#45;&gt;Node262926 -->
<g id="edge33" class="edge">
<title>Node262896&#45;&gt;Node262926</title>
<path fill="none" stroke="#191970" d="M333.6331,-51.2241C365.2121,-45.7571 402.7304,-39.2619 432.8715,-34.0439"/>
<polygon fill="#191970" stroke="#191970" points="332.8622,-47.8054 323.6058,-52.96 334.0563,-54.7028 332.8622,-47.8054"/>
</g>
<!-- Node262927 -->
<g id="node33" class="node">
<title>Node262927</title>
<g id="a_node33"><a xlink:href="../../d0/df9/_codegen_cpp_8c.html#abca12f6b4962fd3e61d34a784cb64f96" target="_top" xlink:title="omc_CodegenCpp_lm__486">
<polygon fill="#ffffff" stroke="#000000" points="418,-53 418,-72 558,-72 558,-53 418,-53"/>
<text text-anchor="middle" x="488" y="-60" font-family="Helvetica,sans-Serif" font-size="10.00" fill="#000000">omc_CodegenCpp_lm__486</text>
</a>
</g>
</g>
<!-- Node262896&#45;&gt;Node262927 -->
<g id="edge34" class="edge">
<title>Node262896&#45;&gt;Node262927</title>
<path fill="none" stroke="#191970" d="M368.4318,-62.5C385.1179,-62.5 402.1092,-62.5 417.8462,-62.5"/>
<polygon fill="#191970" stroke="#191970" points="368.0957,-59.0001 358.0956,-62.5 368.0956,-66.0001 368.0957,-59.0001"/>
</g>
<!-- Node262898 -->
<g id="node4" class="node">
<title>Node262898</title>
<g id="a_node4"><a xlink:href="../../d6/d8e/_codegen_cpp_8h.html#ae85fef427629c7bc20842c8614fdd6c0" target="_top" xlink:title="omc_CodegenCpp_functionHeader\lExternFunction">
<polygon fill="#ffffff" stroke="#000000" points="618,-93.5 618,-123.5 787,-123.5 787,-93.5 618,-93.5"/>
<text text-anchor="start" x="626" y="-111.5" font-family="Helvetica,sans-Serif" font-size="10.00" fill="#000000">omc_CodegenCpp_functionHeader</text>
<text text-anchor="middle" x="702.5" y="-100.5" font-family="Helvetica,sans-Serif" font-size="10.00" fill="#000000">ExternFunction</text>
</a>
</g>
</g>
<!-- Node262897&#45;&gt;Node262898 -->
<g id="edge3" class="edge">
<title>Node262897&#45;&gt;Node262898</title>
<path fill="none" stroke="#191970" d="M568.6657,-106.6282C584.7498,-106.8531 601.6851,-107.09 617.8971,-107.3167"/>
<polygon fill="#191970" stroke="#191970" points="568.2833,-103.1226 558.2353,-106.4823 568.1854,-110.1219 568.2833,-103.1226"/>
</g>
<!-- Node262899 -->
<g id="node5" class="node">
<title>Node262899</title>
<g id="a_node5"><a xlink:href="../../d0/df9/_codegen_cpp_8c.html#a2ff27224d1e028bb29b7acddca3ef5a4" target="_top" xlink:title="omc_CodegenCpp_fun__437">
<polygon fill="#ffffff" stroke="#000000" points="824.5,-150 824.5,-169 967.5,-169 967.5,-150 824.5,-150"/>
<text text-anchor="middle" x="896" y="-157" font-family="Helvetica,sans-Serif" font-size="10.00" fill="#000000">omc_CodegenCpp_fun__437</text>
</a>
</g>
</g>
<!-- Node262898&#45;&gt;Node262899 -->
<g id="edge4" class="edge">
<title>Node262898&#45;&gt;Node262899</title>
<path fill="none" stroke="#191970" d="M769.2029,-126.0806C799.5863,-134.0886 834.3589,-143.2535 859.7957,-149.9578"/>
<polygon fill="#191970" stroke="#191970" points="770.0716,-122.6901 759.5098,-123.5258 768.2875,-129.459 770.0716,-122.6901"/>
</g>
<!-- Node262918 -->
<g id="node24" class="node">
<title>Node262918</title>
<g id="a_node24"><a xlink:href="../../d0/df9/_codegen_cpp_8c.html#a4e78b0248ac3ecd9966fbc88727636bf" target="_top" xlink:title="omc_CodegenCpp_fun__435">
<polygon fill="#ffffff" stroke="#000000" points="824.5,-93 824.5,-112 967.5,-112 967.5,-93 824.5,-93"/>
<text text-anchor="middle" x="896" y="-100" font-family="Helvetica,sans-Serif" font-size="10.00" fill="#000000">omc_CodegenCpp_fun__435</text>
</a>
</g>
</g>
<!-- Node262898&#45;&gt;Node262918 -->
<g id="edge23" class="edge">
<title>Node262898&#45;&gt;Node262918</title>
<path fill="none" stroke="#191970" d="M797.3116,-105.5601C806.3884,-105.2787 815.4878,-104.9965 824.2904,-104.7236"/>
<polygon fill="#191970" stroke="#191970" points="796.9771,-102.0687 787.0904,-105.877 797.1941,-109.0653 796.9771,-102.0687"/>
</g>
<!-- Node262922 -->
<g id="node28" class="node">
<title>Node262922</title>
<g id="a_node28"><a xlink:href="../../d0/df9/_codegen_cpp_8c.html#a8cfb05f7c6fa31907abb6d84df1ec7b0" target="_top" xlink:title="omc_CodegenCpp_fun__433">
<polygon fill="#ffffff" stroke="#000000" points="824.5,-50 824.5,-69 967.5,-69 967.5,-50 824.5,-50"/>
<text text-anchor="middle" x="896" y="-57" font-family="Helvetica,sans-Serif" font-size="10.00" fill="#000000">omc_CodegenCpp_fun__433</text>
</a>
</g>
</g>
<!-- Node262898&#45;&gt;Node262922 -->
<g id="edge28" class="edge">
<title>Node262898&#45;&gt;Node262922</title>
<path fill="none" stroke="#191970" d="M771.6259,-90.9952C800.8554,-83.5935 833.7564,-75.262 858.3743,-69.028"/>
<polygon fill="#191970" stroke="#191970" points="770.7062,-87.6176 761.8714,-93.4654 772.4246,-94.4034 770.7062,-87.6176"/>
</g>
<!-- Node262900 -->
<g id="node6" class="node">
<title>Node262900</title>
<g id="a_node6"><a xlink:href="../../d0/df9/_codegen_cpp_8c.html#ad68c094aeb824bd3537ee20c9e61ab98" target="_top" xlink:title="omc_CodegenCpp_fun__438">
<polygon fill="#ffffff" stroke="#000000" points="1009,-202 1009,-221 1152,-221 1152,-202 1009,-202"/>
<text text-anchor="middle" x="1080.5" y="-209" font-family="Helvetica,sans-Serif" font-size="10.00" fill="#000000">omc_CodegenCpp_fun__438</text>
</a>
</g>
</g>
<!-- Node262899&#45;&gt;Node262900 -->
<g id="edge5" class="edge">
<title>Node262899&#45;&gt;Node262900</title>
<path fill="none" stroke="#191970" d="M936.0832,-172.1321C956.6235,-178.4789 982.0754,-186.1491 1005,-192.5 1016.7231,-195.7477 1029.535,-199.0602 1041.221,-201.9905"/>
<polygon fill="#191970" stroke="#191970" points="937.0151,-168.7567 926.427,-169.1344 934.9396,-175.442 937.0151,-168.7567"/>
</g>
<!-- Node262917 -->
<g id="node23" class="node">
<title>Node262917</title>
<g id="a_node23"><a xlink:href="../../d0/df9/_codegen_cpp_8c.html#a1f8c1667d92103ce1ad8012fa6b70b57" target="_top" xlink:title="boxptr_CodegenCpp_fun__437">
<polygon fill="#ffffff" stroke="#000000" points="1005,-164 1005,-183 1156,-183 1156,-164 1005,-164"/>
<text text-anchor="middle" x="1080.5" y="-171" font-family="Helvetica,sans-Serif" font-size="10.00" fill="#000000">boxptr_CodegenCpp_fun__437</text>
</a>
</g>
</g>
<!-- Node262899&#45;&gt;Node262917 -->
<g id="edge22" class="edge">
<title>Node262899&#45;&gt;Node262917</title>
<path fill="none" stroke="#191970" d="M977.7467,-165.703C986.8051,-166.3904 996.0003,-167.0881 1004.977,-167.7693"/>
<polygon fill="#191970" stroke="#191970" points="977.8328,-162.1996 967.5966,-164.9328 977.3031,-169.1795 977.8328,-162.1996"/>
</g>
<!-- Node262901 -->
<g id="node7" class="node">
<title>Node262901</title>
<g id="a_node7"><a xlink:href="../../d6/d8e/_codegen_cpp_8h.html#af25df141200622465b8e773e7519d770" target="_top" xlink:title="omc_CodegenCpp_functionHeader\lBody1">
<polygon fill="#ffffff" stroke="#000000" points="1192,-139.5 1192,-169.5 1361,-169.5 1361,-139.5 1192,-139.5"/>
<text text-anchor="start" x="1200" y="-157.5" font-family="Helvetica,sans-Serif" font-size="10.00" fill="#000000">omc_CodegenCpp_functionHeader</text>
<text text-anchor="middle" x="1276.5" y="-146.5" font-family="Helvetica,sans-Serif" font-size="10.00" fill="#000000">Body1</text>
</a>
</g>
</g>
<!-- Node262900&#45;&gt;Node262901 -->
<g id="edge6" class="edge">
<title>Node262900&#45;&gt;Node262901</title>
<path fill="none" stroke="#191970" d="M1129.8892,-199.516C1138.6124,-197.2727 1147.5906,-194.8819 1156,-192.5 1180.9044,-185.4461 1208.4519,-176.8214 1230.9146,-169.5727"/>
<polygon fill="#191970" stroke="#191970" points="1129.024,-196.1246 1120.1927,-201.9778 1130.7465,-202.9093 1129.024,-196.1246"/>
</g>
<!-- Node262916 -->
<g id="node22" class="node">
<title>Node262916</title>
<g id="a_node22"><a xlink:href="../../d0/df9/_codegen_cpp_8c.html#ab0a7f4ddcb6ce609cd85bc63530fac78" target="_top" xlink:title="boxptr_CodegenCpp_fun__438">
<polygon fill="#ffffff" stroke="#000000" points="1201,-202 1201,-221 1352,-221 1352,-202 1201,-202"/>
<text text-anchor="middle" x="1276.5" y="-209" font-family="Helvetica,sans-Serif" font-size="10.00" fill="#000000">boxptr_CodegenCpp_fun__438</text>
</a>
</g>
</g>
<!-- Node262900&#45;&gt;Node262916 -->
<g id="edge21" class="edge">
<title>Node262900&#45;&gt;Node262916</title>
<path fill="none" stroke="#191970" d="M1162.2425,-211.5C1175.0217,-211.5 1188.1802,-211.5 1200.816,-211.5"/>
<polygon fill="#191970" stroke="#191970" points="1162.0925,-208.0001 1152.0925,-211.5 1162.0924,-215.0001 1162.0925,-208.0001"/>
</g>
<!-- Node262902 -->
<g id="node8" class="node">
<title>Node262902</title>
<g id="a_node8"><a xlink:href="../../d6/d8e/_codegen_cpp_8h.html#add8f6dde7bfddfff53f4b2e107d9deb5" target="_top" xlink:title="boxptr_CodegenCpp_function\lHeaderBody1">
<polygon fill="#ffffff" stroke="#000000" points="1397,-161.5 1397,-191.5 1543,-191.5 1543,-161.5 1397,-161.5"/>
<text text-anchor="start" x="1405" y="-179.5" font-family="Helvetica,sans-Serif" font-size="10.00" fill="#000000">boxptr_CodegenCpp_function</text>
<text text-anchor="middle" x="1470" y="-168.5" font-family="Helvetica,sans-Serif" font-size="10.00" fill="#000000">HeaderBody1</text>
</a>
</g>
</g>
<!-- Node262901&#45;&gt;Node262902 -->
<g id="edge7" class="edge">
<title>Node262901&#45;&gt;Node262902</title>
<path fill="none" stroke="#191970" d="M1371.1724,-165.2638C1379.7833,-166.2428 1388.4162,-167.2243 1396.798,-168.1773"/>
<polygon fill="#191970" stroke="#191970" points="1371.4218,-161.7697 1361.0904,-164.1175 1370.631,-168.7249 1371.4218,-161.7697"/>
</g>
<!-- Node262903 -->
<g id="node9" class="node">
<title>Node262903</title>
<g id="a_node9"><a xlink:href="../../d0/df9/_codegen_cpp_8c.html#aaa5ef60e468a29d7cd6761847514eaf4" target="_top" xlink:title="omc_CodegenCpp_lm__430">
<polygon fill="#ffffff" stroke="#000000" points="1400,-123 1400,-142 1540,-142 1540,-123 1400,-123"/>
<text text-anchor="middle" x="1470" y="-130" font-family="Helvetica,sans-Serif" font-size="10.00" fill="#000000">omc_CodegenCpp_lm__430</text>
</a>
</g>
</g>
<!-- Node262901&#45;&gt;Node262903 -->
<g id="edge8" class="edge">
<title>Node262901&#45;&gt;Node262903</title>
<path fill="none" stroke="#191970" d="M1371.122,-143.7419C1380.7736,-142.6446 1390.4534,-141.5441 1399.7771,-140.484"/>
<polygon fill="#191970" stroke="#191970" points="1370.631,-140.2751 1361.0904,-144.8825 1371.4218,-147.2303 1370.631,-140.2751"/>
</g>
<!-- Node262904 -->
<g id="node10" class="node">
<title>Node262904</title>
<g id="a_node10"><a xlink:href="../../d0/df9/_codegen_cpp_8c.html#a6c41eaa10be73c09fb255a01e28e2524" target="_top" xlink:title="omc_CodegenCpp_fun__431">
<polygon fill="#ffffff" stroke="#000000" points="1581.5,-142 1581.5,-161 1724.5,-161 1724.5,-142 1581.5,-142"/>
<text text-anchor="middle" x="1653" y="-149" font-family="Helvetica,sans-Serif" font-size="10.00" fill="#000000">omc_CodegenCpp_fun__431</text>
</a>
</g>
</g>
<!-- Node262903&#45;&gt;Node262904 -->
<g id="edge9" class="edge">
<title>Node262903&#45;&gt;Node262904</title>
<path fill="none" stroke="#191970" d="M1550.462,-140.854C1560.778,-141.925 1571.2838,-143.0158 1581.4448,-144.0708"/>
<polygon fill="#191970" stroke="#191970" points="1550.5372,-137.3431 1540.2292,-139.7916 1549.8143,-144.3056 1550.5372,-137.3431"/>
</g>
<!-- Node262915 -->
<g id="node21" class="node">
<title>Node262915</title>
<g id="a_node21"><a xlink:href="../../d0/df9/_codegen_cpp_8c.html#a9b68ccff171d9902796d1a7f056219ff" target="_top" xlink:title="boxptr_CodegenCpp_lm__430">
<polygon fill="#ffffff" stroke="#000000" points="1579,-104 1579,-123 1727,-123 1727,-104 1579,-104"/>
<text text-anchor="middle" x="1653" y="-111" font-family="Helvetica,sans-Serif" font-size="10.00" fill="#000000">boxptr_CodegenCpp_lm__430</text>
</a>
</g>
</g>
<!-- Node262903&#45;&gt;Node262915 -->
<g id="edge20" class="edge">
<title>Node262903&#45;&gt;Node262915</title>
<path fill="none" stroke="#191970" d="M1550.3706,-124.1555C1559.7922,-123.1773 1569.3735,-122.1825 1578.7071,-121.2135"/>
<polygon fill="#191970" stroke="#191970" points="1549.8143,-120.6944 1540.2292,-125.2084 1550.5372,-127.6569 1549.8143,-120.6944"/>
</g>
<!-- Node262905 -->
<g id="node11" class="node">
<title>Node262905</title>
<g id="a_node11"><a xlink:href="../../d6/d8e/_codegen_cpp_8h.html#ab52bedec8c42a3841fe992f6e0187c9c" target="_top" xlink:title="omc_CodegenCpp_functionHeader\lBodies1">
<polygon fill="#ffffff" stroke="#000000" points="1763,-158.5 1763,-188.5 1932,-188.5 1932,-158.5 1763,-158.5"/>
<text text-anchor="start" x="1771" y="-176.5" font-family="Helvetica,sans-Serif" font-size="10.00" fill="#000000">omc_CodegenCpp_functionHeader</text>
<text text-anchor="middle" x="1847.5" y="-165.5" font-family="Helvetica,sans-Serif" font-size="10.00" fill="#000000">Bodies1</text>
</a>
</g>
</g>
<!-- Node262904&#45;&gt;Node262905 -->
<g id="edge10" class="edge">
<title>Node262904&#45;&gt;Node262905</title>
<path fill="none" stroke="#191970" d="M1734.6334,-160.7336C1743.9704,-161.7897 1753.5046,-162.8681 1762.8795,-163.9285"/>
<polygon fill="#191970" stroke="#191970" points="1734.9261,-157.2445 1724.596,-159.5983 1734.1392,-164.2001 1734.9261,-157.2445"/>
</g>
<!-- Node262914 -->
<g id="node20" class="node">
<title>Node262914</title>
<g id="a_node20"><a xlink:href="../../d0/df9/_codegen_cpp_8c.html#ab910279430ee2b87b0e39f99ed11e39c" target="_top" xlink:title="boxptr_CodegenCpp_fun__431">
<polygon fill="#ffffff" stroke="#000000" points="1772,-120 1772,-139 1923,-139 1923,-120 1772,-120"/>
<text text-anchor="middle" x="1847.5" y="-127" font-family="Helvetica,sans-Serif" font-size="10.00" fill="#000000">boxptr_CodegenCpp_fun__431</text>
</a>
</g>
</g>
<!-- Node262904&#45;&gt;Node262914 -->
<g id="edge19" class="edge">
<title>Node262904&#45;&gt;Node262914</title>
<path fill="none" stroke="#191970" d="M1734.8044,-142.2471C1747.0726,-140.8594 1759.6774,-139.4337 1771.8107,-138.0613"/>
<polygon fill="#191970" stroke="#191970" points="1734.1392,-138.7999 1724.596,-143.4017 1734.9261,-145.7555 1734.1392,-138.7999"/>
</g>
<!-- Node262906 -->
<g id="node12" class="node">
<title>Node262906</title>
<g id="a_node12"><a xlink:href="../../d6/d8e/_codegen_cpp_8h.html#a44704cd05097bae3d14193496f926526" target="_top" xlink:title="boxptr_CodegenCpp_function\lHeaderBodies1">
<polygon fill="#ffffff" stroke="#000000" points="1968,-180.5 1968,-210.5 2114,-210.5 2114,-180.5 1968,-180.5"/>
<text text-anchor="start" x="1976" y="-198.5" font-family="Helvetica,sans-Serif" font-size="10.00" fill="#000000">boxptr_CodegenCpp_function</text>
<text text-anchor="middle" x="2041" y="-187.5" font-family="Helvetica,sans-Serif" font-size="10.00" fill="#000000">HeaderBodies1</text>
</a>
</g>
</g>
<!-- Node262905&#45;&gt;Node262906 -->
<g id="edge11" class="edge">
<title>Node262905&#45;&gt;Node262906</title>
<path fill="none" stroke="#191970" d="M1942.1724,-184.2638C1950.7833,-185.2428 1959.4162,-186.2243 1967.798,-187.1773"/>
<polygon fill="#191970" stroke="#191970" points="1942.4218,-180.7697 1932.0904,-183.1175 1941.631,-187.7249 1942.4218,-180.7697"/>
</g>
<!-- Node262907 -->
<g id="node13" class="node">
<title>Node262907</title>
<g id="a_node13"><a xlink:href="../../d0/df9/_codegen_cpp_8c.html#aae918ec957115e4a8ef10dd4cde7cd0e" target="_top" xlink:title="omc_CodegenCpp_fun__297">
<polygon fill="#ffffff" stroke="#000000" points="1969.5,-142 1969.5,-161 2112.5,-161 2112.5,-142 1969.5,-142"/>
<text text-anchor="middle" x="2041" y="-149" font-family="Helvetica,sans-Serif" font-size="10.00" fill="#000000">omc_CodegenCpp_fun__297</text>
</a>
</g>
</g>
<!-- Node262905&#45;&gt;Node262907 -->
<g id="edge12" class="edge">
<title>Node262905&#45;&gt;Node262907</title>
<path fill="none" stroke="#191970" d="M1942.3116,-162.7204C1951.3884,-161.6884 1960.4878,-160.6538 1969.2904,-159.653"/>
<polygon fill="#191970" stroke="#191970" points="1941.631,-159.2751 1932.0904,-163.8825 1942.4218,-166.2303 1941.631,-159.2751"/>
</g>
<!-- Node262908 -->
<g id="node14" class="node">
<title>Node262908</title>
<g id="a_node14"><a xlink:href="../../d6/d8e/_codegen_cpp_8h.html#a584f9253f636f53e25f3babe24215d50" target="_top" xlink:title="omc_CodegenCpp_simulation\lTypesHeaderFile">
<polygon fill="#ffffff" stroke="#000000" points="2152,-158.5 2152,-188.5 2299,-188.5 2299,-158.5 2152,-158.5"/>
<text text-anchor="start" x="2160" y="-176.5" font-family="Helvetica,sans-Serif" font-size="10.00" fill="#000000">omc_CodegenCpp_simulation</text>
<text text-anchor="middle" x="2225.5" y="-165.5" font-family="Helvetica,sans-Serif" font-size="10.00" fill="#000000">TypesHeaderFile</text>
</a>
</g>
</g>
<!-- Node262907&#45;&gt;Node262908 -->
<g id="edge13" class="edge">
<title>Node262907&#45;&gt;Node262908</title>
<path fill="none" stroke="#191970" d="M2122.6404,-161.2349C2132.3513,-162.3928 2142.2211,-163.5697 2151.8117,-164.7133"/>
<polygon fill="#191970" stroke="#191970" points="2122.9407,-157.746 2112.5966,-160.0373 2122.1118,-164.6968 2122.9407,-157.746"/>
</g>
<!-- Node262913 -->
<g id="node19" class="node">
<title>Node262913</title>
<g id="a_node19"><a xlink:href="../../d0/df9/_codegen_cpp_8c.html#ab13cf8fd6ac8935945ee33ce1dfd3726" target="_top" xlink:title="boxptr_CodegenCpp_fun__297">
<polygon fill="#ffffff" stroke="#000000" points="2150,-120 2150,-139 2301,-139 2301,-120 2150,-120"/>
<text text-anchor="middle" x="2225.5" y="-127" font-family="Helvetica,sans-Serif" font-size="10.00" fill="#000000">boxptr_CodegenCpp_fun__297</text>
</a>
</g>
</g>
<!-- Node262907&#45;&gt;Node262913 -->
<g id="edge18" class="edge">
<title>Node262907&#45;&gt;Node262913</title>
<path fill="none" stroke="#191970" d="M2122.7467,-141.7524C2131.8051,-140.6723 2141.0003,-139.5758 2149.977,-138.5055"/>
<polygon fill="#191970" stroke="#191970" points="2122.1118,-138.3032 2112.5966,-142.9627 2122.9407,-145.254 2122.1118,-138.3032"/>
</g>
<!-- Node262909 -->
<g id="node15" class="node">
<title>Node262909</title>
<g id="a_node15"><a xlink:href="../../d6/d8e/_codegen_cpp_8h.html#a7939e11fa705c4b359b70ce50f248428" target="_top" xlink:title="boxptr_CodegenCpp_simulation\lTypesHeaderFile">
<polygon fill="#ffffff" stroke="#000000" points="2337,-180.5 2337,-210.5 2492,-210.5 2492,-180.5 2337,-180.5"/>
<text text-anchor="start" x="2345" y="-198.5" font-family="Helvetica,sans-Serif" font-size="10.00" fill="#000000">boxptr_CodegenCpp_simulation</text>
<text text-anchor="middle" x="2414.5" y="-187.5" font-family="Helvetica,sans-Serif" font-size="10.00" fill="#000000">TypesHeaderFile</text>
</a>
</g>
</g>
<!-- Node262908&#45;&gt;Node262909 -->
<g id="edge14" class="edge">
<title>Node262908&#45;&gt;Node262909</title>
<path fill="none" stroke="#191970" d="M2309.3251,-183.2574C2318.4364,-184.318 2327.6818,-185.3942 2336.7166,-186.4458"/>
<polygon fill="#191970" stroke="#191970" points="2309.4512,-179.7485 2299.1135,-182.0688 2308.6418,-186.7016 2309.4512,-179.7485"/>
</g>
<!-- Node262910 -->
<g id="node16" class="node">
<title>Node262910</title>
<g id="a_node16"><a xlink:href="../../d0/df9/_codegen_cpp_8c.html#aa7c7709a5cda769632291bb6f29d8b29" target="_top" xlink:title="omc_CodegenCpp_fun__46">
<polygon fill="#ffffff" stroke="#000000" points="2346,-142 2346,-161 2483,-161 2483,-142 2346,-142"/>
<text text-anchor="middle" x="2414.5" y="-149" font-family="Helvetica,sans-Serif" font-size="10.00" fill="#000000">omc_CodegenCpp_fun__46</text>
</a>
</g>
</g>
<!-- Node262908&#45;&gt;Node262910 -->
<g id="edge15" class="edge">
<title>Node262908&#45;&gt;Node262910</title>
<path fill="none" stroke="#191970" d="M2309.2732,-163.7486C2321.4572,-162.3304 2333.8821,-160.8841 2345.7237,-159.5057"/>
<polygon fill="#191970" stroke="#191970" points="2308.6418,-160.2984 2299.1135,-164.9312 2309.4512,-167.2515 2308.6418,-160.2984"/>
</g>
<!-- Node262911 -->
<g id="node17" class="node">
<title>Node262911</title>
<g id="a_node17"><a xlink:href="../../d6/d8e/_codegen_cpp_8h.html#a54676ae5ee46975a3ec1566a9856625c" target="_top" xlink:title="omc_CodegenCpp_translate\lModel">
<polygon fill="#ffffff" stroke="#000000" points="2528,-136.5 2528,-166.5 2668,-166.5 2668,-136.5 2528,-136.5"/>
<text text-anchor="start" x="2536" y="-154.5" font-family="Helvetica,sans-Serif" font-size="10.00" fill="#000000">omc_CodegenCpp_translate</text>
<text text-anchor="middle" x="2598" y="-143.5" font-family="Helvetica,sans-Serif" font-size="10.00" fill="#000000">Model</text>
</a>
</g>
</g>
<!-- Node262910&#45;&gt;Node262911 -->
<g id="edge16" class="edge">
<title>Node262910&#45;&gt;Node262911</title>
<path fill="none" stroke="#191970" d="M2493.164,-151.5C2504.7326,-151.5 2516.5846,-151.5 2527.9639,-151.5"/>
<polygon fill="#191970" stroke="#191970" points="2493.0896,-148.0001 2483.0896,-151.5 2493.0895,-155.0001 2493.0896,-148.0001"/>
</g>
<!-- Node262912 -->
<g id="node18" class="node">
<title>Node262912</title>
<g id="a_node18"><a xlink:href="../../d5/d4c/_codegen_f_m_u_cpp_8h.html#a1fc774045fbfd7b6dc9872f8b61ccdad" target="_top" xlink:title="omc_CodegenFMUCpp_translate\lModel">
<polygon fill="#ffffff" stroke="#000000" points="2704,-136.5 2704,-166.5 2866,-166.5 2866,-136.5 2704,-136.5"/>
<text text-anchor="start" x="2712" y="-154.5" font-family="Helvetica,sans-Serif" font-size="10.00" fill="#000000">omc_CodegenFMUCpp_translate</text>
<text text-anchor="middle" x="2785" y="-143.5" font-family="Helvetica,sans-Serif" font-size="10.00" fill="#000000">Model</text>
</a>
</g>
</g>
<!-- Node262911&#45;&gt;Node262912 -->
<g id="edge17" class="edge">
<title>Node262911&#45;&gt;Node262912</title>
<path fill="none" stroke="#191970" d="M2678.3393,-151.5C2686.7557,-151.5 2695.3173,-151.5 2703.744,-151.5"/>
<polygon fill="#191970" stroke="#191970" points="2678.164,-148.0001 2668.1639,-151.5 2678.1639,-155.0001 2678.164,-148.0001"/>
</g>
<!-- Node262919 -->
<g id="node25" class="node">
<title>Node262919</title>
<g id="a_node25"><a xlink:href="../../d0/df9/_codegen_cpp_8c.html#a838e07e5fb867151fb841516e261ca87" target="_top" xlink:title="omc_CodegenCpp_fun__436">
<polygon fill="#ffffff" stroke="#000000" points="1009,-126 1009,-145 1152,-145 1152,-126 1009,-126"/>
<text text-anchor="middle" x="1080.5" y="-133" font-family="Helvetica,sans-Serif" font-size="10.00" fill="#000000">omc_CodegenCpp_fun__436</text>
</a>
</g>
</g>
<!-- Node262918&#45;&gt;Node262919 -->
<g id="edge24" class="edge">
<title>Node262918&#45;&gt;Node262919</title>
<path fill="none" stroke="#191970" d="M959.3336,-113.828C981.4533,-117.7843 1006.0407,-122.1821 1027.2549,-125.9765"/>
<polygon fill="#191970" stroke="#191970" points="959.8251,-110.3604 949.365,-112.045 958.5926,-117.251 959.8251,-110.3604"/>
</g>
<!-- Node262921 -->
<g id="node27" class="node">
<title>Node262921</title>
<g id="a_node27"><a xlink:href="../../d0/df9/_codegen_cpp_8c.html#ad562aa3eb7e5b7d6b60e92be7eef906c" target="_top" xlink:title="boxptr_CodegenCpp_fun__435">
<polygon fill="#ffffff" stroke="#000000" points="1005,-88 1005,-107 1156,-107 1156,-88 1005,-88"/>
<text text-anchor="middle" x="1080.5" y="-95" font-family="Helvetica,sans-Serif" font-size="10.00" fill="#000000">boxptr_CodegenCpp_fun__435</text>
</a>
</g>
</g>
<!-- Node262918&#45;&gt;Node262921 -->
<g id="edge27" class="edge">
<title>Node262918&#45;&gt;Node262921</title>
<path fill="none" stroke="#191970" d="M977.7467,-100.2846C986.8051,-100.0392 996.0003,-99.79 1004.977,-99.5467"/>
<polygon fill="#191970" stroke="#191970" points="977.4981,-96.79 967.5966,-100.5597 977.6878,-103.7874 977.4981,-96.79"/>
</g>
<!-- Node262919&#45;&gt;Node262901 -->
<g id="edge25" class="edge">
<title>Node262919&#45;&gt;Node262901</title>
<path fill="none" stroke="#191970" d="M1162.1876,-143.4187C1171.9685,-144.3668 1181.9725,-145.3366 1191.795,-146.2888"/>
<polygon fill="#191970" stroke="#191970" points="1162.3836,-139.9214 1152.0925,-142.4401 1161.7081,-146.8887 1162.3836,-139.9214"/>
</g>
<!-- Node262920 -->
<g id="node26" class="node">
<title>Node262920</title>
<g id="a_node26"><a xlink:href="../../d0/df9/_codegen_cpp_8c.html#a33614f516ad6c3c8f3839e52c540f1e6" target="_top" xlink:title="boxptr_CodegenCpp_fun__436">
<polygon fill="#ffffff" stroke="#000000" points="1201,-101 1201,-120 1352,-120 1352,-101 1201,-101"/>
<text text-anchor="middle" x="1276.5" y="-108" font-family="Helvetica,sans-Serif" font-size="10.00" fill="#000000">boxptr_CodegenCpp_fun__436</text>
</a>
</g>
</g>
<!-- Node262919&#45;&gt;Node262920 -->
<g id="edge26" class="edge">
<title>Node262919&#45;&gt;Node262920</title>
<path fill="none" stroke="#191970" d="M1162.0672,-125.096C1175.2362,-123.4163 1188.8129,-121.6846 1201.8089,-120.0269"/>
<polygon fill="#191970" stroke="#191970" points="1161.5692,-121.6311 1152.0925,-126.3683 1162.455,-128.5748 1161.5692,-121.6311"/>
</g>
<!-- Node262923 -->
<g id="node29" class="node">
<title>Node262923</title>
<g id="a_node29"><a xlink:href="../../d0/df9/_codegen_cpp_8c.html#afbca64e4c54b111f53e92927826c4e06" target="_top" xlink:title="omc_CodegenCpp_fun__434">
<polygon fill="#ffffff" stroke="#000000" points="1009,-50 1009,-69 1152,-69 1152,-50 1009,-50"/>
<text text-anchor="middle" x="1080.5" y="-57" font-family="Helvetica,sans-Serif" font-size="10.00" fill="#000000">omc_CodegenCpp_fun__434</text>
</a>
</g>
</g>
<!-- Node262922&#45;&gt;Node262923 -->
<g id="edge29" class="edge">
<title>Node262922&#45;&gt;Node262923</title>
<path fill="none" stroke="#191970" d="M977.8747,-59.5C988.2314,-59.5 998.7647,-59.5 1008.9437,-59.5"/>
<polygon fill="#191970" stroke="#191970" points="977.5966,-56.0001 967.5966,-59.5 977.5966,-63.0001 977.5966,-56.0001"/>
</g>
<!-- Node262925 -->
<g id="node31" class="node">
<title>Node262925</title>
<g id="a_node31"><a xlink:href="../../d0/df9/_codegen_cpp_8c.html#af6021e5319e504b7ddf086e1aec10b4e" target="_top" xlink:title="boxptr_CodegenCpp_fun__433">
<polygon fill="#ffffff" stroke="#000000" points="1005,-12 1005,-31 1156,-31 1156,-12 1005,-12"/>
<text text-anchor="middle" x="1080.5" y="-19" font-family="Helvetica,sans-Serif" font-size="10.00" fill="#000000">boxptr_CodegenCpp_fun__433</text>
</a>
</g>
</g>
<!-- Node262922&#45;&gt;Node262925 -->
<g id="edge32" class="edge">
<title>Node262922&#45;&gt;Node262925</title>
<path fill="none" stroke="#191970" d="M952.3672,-47.8905C978.6074,-42.486 1009.436,-36.1365 1034.2776,-31.0201"/>
<polygon fill="#191970" stroke="#191970" points="951.6455,-44.4656 942.5571,-49.911 953.0576,-51.3217 951.6455,-44.4656"/>
</g>
<!-- Node262923&#45;&gt;Node262901 -->
<g id="edge30" class="edge">
<title>Node262923&#45;&gt;Node262901</title>
<path fill="none" stroke="#191970" d="M1146.6947,-73.0829C1149.9437,-74.6909 1153.0691,-76.4891 1156,-78.5 1178.8779,-94.1965 1169.4496,-113.3365 1192,-129.5 1197.3468,-133.3324 1203.2815,-136.5828 1209.4556,-139.3384"/>
<polygon fill="#191970" stroke="#191970" points="1147.8394,-69.7654 1137.2697,-69.0359 1145.0775,-76.1975 1147.8394,-69.7654"/>
</g>
<!-- Node262924 -->
<g id="node30" class="node">
<title>Node262924</title>
<g id="a_node30"><a xlink:href="../../d0/df9/_codegen_cpp_8c.html#a70d8889391691ff0bf9a425204f11ccc" target="_top" xlink:title="boxptr_CodegenCpp_fun__434">
<polygon fill="#ffffff" stroke="#000000" points="1201,-50 1201,-69 1352,-69 1352,-50 1201,-50"/>
<text text-anchor="middle" x="1276.5" y="-57" font-family="Helvetica,sans-Serif" font-size="10.00" fill="#000000">boxptr_CodegenCpp_fun__434</text>
</a>
</g>
</g>
<!-- Node262923&#45;&gt;Node262924 -->
<g id="edge31" class="edge">
<title>Node262923&#45;&gt;Node262924</title>
<path fill="none" stroke="#191970" d="M1162.2425,-59.5C1175.0217,-59.5 1188.1802,-59.5 1200.816,-59.5"/>
<polygon fill="#191970" stroke="#191970" points="1162.0925,-56.0001 1152.0925,-59.5 1162.0924,-63.0001 1162.0925,-56.0001"/>
</g>
<!-- Node262928 -->
<g id="node34" class="node">
<title>Node262928</title>
<g id="a_node34"><a xlink:href="../../d6/d8e/_codegen_cpp_8h.html#aab980a5144bed2f35d5b12db91b54d6c" target="_top" xlink:title="omc_CodegenCpp_functionHeader\lRegularFunction1">
<polygon fill="#ffffff" stroke="#000000" points="618,-44.5 618,-74.5 787,-74.5 787,-44.5 618,-44.5"/>
<text text-anchor="start" x="626" y="-62.5" font-family="Helvetica,sans-Serif" font-size="10.00" fill="#000000">omc_CodegenCpp_functionHeader</text>
<text text-anchor="middle" x="702.5" y="-51.5" font-family="Helvetica,sans-Serif" font-size="10.00" fill="#000000">RegularFunction1</text>
</a>
</g>
</g>
<!-- Node262927&#45;&gt;Node262928 -->
<g id="edge35" class="edge">
<title>Node262927&#45;&gt;Node262928</title>
<path fill="none" stroke="#191970" d="M568.6657,-61.3718C584.7498,-61.1469 601.6851,-60.91 617.8971,-60.6833"/>
<polygon fill="#191970" stroke="#191970" points="568.1854,-57.8781 558.2353,-61.5177 568.2833,-64.8774 568.1854,-57.8781"/>
</g>
<!-- Node262928&#45;&gt;Node262899 -->
<g id="edge37" class="edge">
<title>Node262928&#45;&gt;Node262899</title>
<path fill="none" stroke="#191970" d="M778.2523,-78.7447C781.266,-80.2188 784.1955,-81.8014 787,-83.5 806.8992,-95.5523 804.426,-107.4914 823,-121.5 838.5139,-133.2006 858.1468,-143.1939 873.1439,-149.9917"/>
<polygon fill="#191970" stroke="#191970" points="779.5599,-75.4959 768.9997,-74.6406 776.7217,-81.8947 779.5599,-75.4959"/>
</g>
<!-- Node262928&#45;&gt;Node262918 -->
<g id="edge38" class="edge">
<title>Node262928&#45;&gt;Node262918</title>
<path fill="none" stroke="#191970" d="M779.9973,-76.7216C804.9344,-82.2632 831.6498,-88.2 853.1499,-92.9777"/>
<polygon fill="#191970" stroke="#191970" points="780.6981,-73.292 770.1769,-74.5393 779.1795,-80.1254 780.6981,-73.292"/>
</g>
<!-- Node262928&#45;&gt;Node262922 -->
<g id="edge39" class="edge">
<title>Node262928&#45;&gt;Node262922</title>
<path fill="none" stroke="#191970" d="M797.3116,-59.5C806.3884,-59.5 815.4878,-59.5 824.2904,-59.5"/>
<polygon fill="#191970" stroke="#191970" points="797.0905,-56.0001 787.0904,-59.5 797.0904,-63.0001 797.0905,-56.0001"/>
</g>
<!-- Node262929 -->
<g id="node35" class="node">
<title>Node262929</title>
<g id="a_node35"><a xlink:href="../../d6/d8e/_codegen_cpp_8h.html#a3df729c88f5234af100783824b13c294" target="_top" xlink:title="boxptr_CodegenCpp_function\lHeaderRegularFunction1">
<polygon fill="#ffffff" stroke="#000000" points="823,-.5 823,-30.5 969,-30.5 969,-.5 823,-.5"/>
<text text-anchor="start" x="831" y="-18.5" font-family="Helvetica,sans-Serif" font-size="10.00" fill="#000000">boxptr_CodegenCpp_function</text>
<text text-anchor="middle" x="896" y="-7.5" font-family="Helvetica,sans-Serif" font-size="10.00" fill="#000000">HeaderRegularFunction1</text>
</a>
</g>
</g>
<!-- Node262928&#45;&gt;Node262929 -->
<g id="edge36" class="edge">
<title>Node262928&#45;&gt;Node262929</title>
<path fill="none" stroke="#191970" d="M778.4418,-42.2316C795.4467,-38.3648 813.3519,-34.2934 829.9188,-30.5262"/>
<polygon fill="#191970" stroke="#191970" points="777.5255,-38.8505 768.5505,-44.4808 779.0777,-45.6763 777.5255,-38.8505"/>
</g>
</g>
</svg>
