<?xml version="1.0" encoding="UTF-8" standalone="no"?>
<!DOCTYPE svg PUBLIC "-//W3C//DTD SVG 1.1//EN"
 "http://www.w3.org/Graphics/SVG/1.1/DTD/svg11.dtd">
<!-- Generated by graphviz version 2.40.1 (20161225.0304)
 -->
<!-- Title: omc_CodegenCpp_fun__251 Pages: 1 -->
<svg width="1467pt" height="39pt"
 viewBox="0.00 0.00 1467.00 39.00" xmlns="http://www.w3.org/2000/svg" xmlns:xlink="http://www.w3.org/1999/xlink">
<g id="graph0" class="graph" transform="scale(1 1) rotate(0) translate(4 35)">
<title>omc_CodegenCpp_fun__251</title>
<polygon fill="#ffffff" stroke="transparent" points="-4,4 -4,-35 1463,-35 1463,4 -4,4"/>
<!-- Node239987 -->
<g id="node1" class="node">
<title>Node239987</title>
<polygon fill="#bfbfbf" stroke="#000000" points="0,-6 0,-25 143,-25 143,-6 0,-6"/>
<text text-anchor="middle" x="71.5" y="-13" font-family="Helvetica,sans-Serif" font-size="10.00" fill="#000000">omc_CodegenCpp_fun__251</text>
</g>
<!-- Node239988 -->
<g id="node2" class="node">
<title>Node239988</title>
<g id="a_node2"><a xlink:href="../../d6/d8e/_codegen_cpp_8h.html#a20b8357ae78c1dd0fbb2410bb5219c37" target="_top" xlink:title="omc_CodegenCpp_setMainFBInputVars">
<polygon fill="#ffffff" stroke="#000000" points="179,-6 179,-25 371,-25 371,-6 179,-6"/>
<text text-anchor="middle" x="275" y="-13" font-family="Helvetica,sans-Serif" font-size="10.00" fill="#000000">omc_CodegenCpp_setMainFBInputVars</text>
</a>
</g>
</g>
<!-- Node239987&#45;&gt;Node239988 -->
<g id="edge1" class="edge">
<title>Node239987&#45;&gt;Node239988</title>
<path fill="none" stroke="#191970" d="M153.395,-15.5C161.8048,-15.5 170.4029,-15.5 178.9473,-15.5"/>
<polygon fill="#191970" stroke="#191970" points="153.2465,-12.0001 143.2465,-15.5 153.2465,-19.0001 153.2465,-12.0001"/>
</g>
<!-- Node239989 -->
<g id="node3" class="node">
<title>Node239989</title>
<g id="a_node3"><a xlink:href="../../d0/df9/_codegen_cpp_8c.html#a0df1b39ca3d266ae3be6c28889331e82" target="_top" xlink:title="omc_CodegenCpp_fun__221">
<polygon fill="#ffffff" stroke="#000000" points="407,-6 407,-25 550,-25 550,-6 407,-6"/>
<text text-anchor="middle" x="478.5" y="-13" font-family="Helvetica,sans-Serif" font-size="10.00" fill="#000000">omc_CodegenCpp_fun__221</text>
</a>
</g>
</g>
<!-- Node239988&#45;&gt;Node239989 -->
<g id="edge2" class="edge">
<title>Node239988&#45;&gt;Node239989</title>
<path fill="none" stroke="#191970" d="M381.2581,-15.5C389.9166,-15.5 398.5315,-15.5 406.8513,-15.5"/>
<polygon fill="#191970" stroke="#191970" points="381.0888,-12.0001 371.0888,-15.5 381.0887,-19.0001 381.0888,-12.0001"/>
</g>
<!-- Node239990 -->
<g id="node4" class="node">
<title>Node239990</title>
<g id="a_node4"><a xlink:href="../../d0/df9/_codegen_cpp_8c.html#ab3eb22debec3bb6c070cc2ff9a463668" target="_top" xlink:title="omc_CodegenCpp_fun__231">
<polygon fill="#ffffff" stroke="#000000" points="586,-6 586,-25 729,-25 729,-6 586,-6"/>
<text text-anchor="middle" x="657.5" y="-13" font-family="Helvetica,sans-Serif" font-size="10.00" fill="#000000">omc_CodegenCpp_fun__231</text>
</a>
</g>
</g>
<!-- Node239989&#45;&gt;Node239990 -->
<g id="edge3" class="edge">
<title>Node239989&#45;&gt;Node239990</title>
<path fill="none" stroke="#191970" d="M560.0428,-15.5C568.6381,-15.5 577.3321,-15.5 585.8042,-15.5"/>
<polygon fill="#191970" stroke="#191970" points="560.0173,-12.0001 550.0172,-15.5 560.0172,-19.0001 560.0173,-12.0001"/>
</g>
<!-- Node239991 -->
<g id="node5" class="node">
<title>Node239991</title>
<g id="a_node5"><a xlink:href="../../d6/d8e/_codegen_cpp_8h.html#a1a669712b06151b047a28979fb45fe58" target="_top" xlink:title="omc_CodegenCpp_simulation\lMainFile">
<polygon fill="#ffffff" stroke="#000000" points="765,-.5 765,-30.5 912,-30.5 912,-.5 765,-.5"/>
<text text-anchor="start" x="773" y="-18.5" font-family="Helvetica,sans-Serif" font-size="10.00" fill="#000000">omc_CodegenCpp_simulation</text>
<text text-anchor="middle" x="838.5" y="-7.5" font-family="Helvetica,sans-Serif" font-size="10.00" fill="#000000">MainFile</text>
</a>
</g>
</g>
<!-- Node239990&#45;&gt;Node239991 -->
<g id="edge4" class="edge">
<title>Node239990&#45;&gt;Node239991</title>
<path fill="none" stroke="#191970" d="M739.0449,-15.5C747.6294,-15.5 756.3225,-15.5 764.811,-15.5"/>
<polygon fill="#191970" stroke="#191970" points="739.036,-12.0001 729.036,-15.5 739.036,-19.0001 739.036,-12.0001"/>
</g>
<!-- Node239992 -->
<g id="node6" class="node">
<title>Node239992</title>
<g id="a_node6"><a xlink:href="../../d0/df9/_codegen_cpp_8c.html#aa7c7709a5cda769632291bb6f29d8b29" target="_top" xlink:title="omc_CodegenCpp_fun__46">
<polygon fill="#ffffff" stroke="#000000" points="948,-6 948,-25 1085,-25 1085,-6 948,-6"/>
<text text-anchor="middle" x="1016.5" y="-13" font-family="Helvetica,sans-Serif" font-size="10.00" fill="#000000">omc_CodegenCpp_fun__46</text>
</a>
</g>
</g>
<!-- Node239991&#45;&gt;Node239992 -->
<g id="edge5" class="edge">
<title>Node239991&#45;&gt;Node239992</title>
<path fill="none" stroke="#191970" d="M922.4575,-15.5C930.9214,-15.5 939.4464,-15.5 947.7248,-15.5"/>
<polygon fill="#191970" stroke="#191970" points="922.1843,-12.0001 912.1843,-15.5 922.1843,-19.0001 922.1843,-12.0001"/>
</g>
<!-- Node239993 -->
<g id="node7" class="node">
<title>Node239993</title>
<g id="a_node7"><a xlink:href="../../d6/d8e/_codegen_cpp_8h.html#a54676ae5ee46975a3ec1566a9856625c" target="_top" xlink:title="omc_CodegenCpp_translate\lModel">
<polygon fill="#ffffff" stroke="#000000" points="1121,-.5 1121,-30.5 1261,-30.5 1261,-.5 1121,-.5"/>
<text text-anchor="start" x="1129" y="-18.5" font-family="Helvetica,sans-Serif" font-size="10.00" fill="#000000">omc_CodegenCpp_translate</text>
<text text-anchor="middle" x="1191" y="-7.5" font-family="Helvetica,sans-Serif" font-size="10.00" fill="#000000">Model</text>
</a>
</g>
</g>
<!-- Node239992&#45;&gt;Node239993 -->
<g id="edge6" class="edge">
<title>Node239992&#45;&gt;Node239993</title>
<path fill="none" stroke="#191970" d="M1095.4852,-15.5C1103.9643,-15.5 1112.5484,-15.5 1120.9134,-15.5"/>
<polygon fill="#191970" stroke="#191970" points="1095.2166,-12.0001 1085.2165,-15.5 1095.2165,-19.0001 1095.2166,-12.0001"/>
</g>
<!-- Node239994 -->
<g id="node8" class="node">
<title>Node239994</title>
<g id="a_node8"><a xlink:href="../../d5/d4c/_codegen_f_m_u_cpp_8h.html#a1fc774045fbfd7b6dc9872f8b61ccdad" target="_top" xlink:title="omc_CodegenFMUCpp_translate\lModel">
<polygon fill="#ffffff" stroke="#000000" points="1297,-.5 1297,-30.5 1459,-30.5 1459,-.5 1297,-.5"/>
<text text-anchor="start" x="1305" y="-18.5" font-family="Helvetica,sans-Serif" font-size="10.00" fill="#000000">omc_CodegenFMUCpp_translate</text>
<text text-anchor="middle" x="1378" y="-7.5" font-family="Helvetica,sans-Serif" font-size="10.00" fill="#000000">Model</text>
</a>
</g>
</g>
<!-- Node239993&#45;&gt;Node239994 -->
<g id="edge7" class="edge">
<title>Node239993&#45;&gt;Node239994</title>
<path fill="none" stroke="#191970" d="M1271.3393,-15.5C1279.7557,-15.5 1288.3173,-15.5 1296.744,-15.5"/>
<polygon fill="#191970" stroke="#191970" points="1271.164,-12.0001 1261.1639,-15.5 1271.1639,-19.0001 1271.164,-12.0001"/>
</g>
</g>
</svg>
