<?xml version="1.0" encoding="UTF-8" standalone="no"?>
<!DOCTYPE svg PUBLIC "-//W3C//DTD SVG 1.1//EN"
 "http://www.w3.org/Graphics/SVG/1.1/DTD/svg11.dtd">
<!-- Generated by graphviz version 2.40.1 (20161225.0304)
 -->
<!-- Title: omc_CodegenCpp_fun__1037 Pages: 1 -->
<svg width="1028pt" height="100pt"
 viewBox="0.00 0.00 1028.00 99.50" xmlns="http://www.w3.org/2000/svg" xmlns:xlink="http://www.w3.org/1999/xlink">
<g id="graph0" class="graph" transform="scale(1 1) rotate(0) translate(4 95.5)">
<title>omc_CodegenCpp_fun__1037</title>
<polygon fill="#ffffff" stroke="transparent" points="-4,4 -4,-95.5 1024,-95.5 1024,4 -4,4"/>
<!-- Node200173 -->
<g id="node1" class="node">
<title>Node200173</title>
<polygon fill="#bfbfbf" stroke="#000000" points="0,-22.5 0,-52.5 116,-52.5 116,-22.5 0,-22.5"/>
<text text-anchor="start" x="8" y="-40.5" font-family="Helvetica,sans-Serif" font-size="10.00" fill="#000000">omc_CodegenCpp_fun</text>
<text text-anchor="middle" x="58" y="-29.5" font-family="Helvetica,sans-Serif" font-size="10.00" fill="#000000">__1037</text>
</g>
<!-- Node200174 -->
<g id="node2" class="node">
<title>Node200174</title>
<g id="a_node2"><a xlink:href="../../d6/d8e/_codegen_cpp_8h.html#aabe2eb1dd8a922197abc74eae70d7daf" target="_top" xlink:title="omc_CodegenCpp_initVals2">
<polygon fill="#ffffff" stroke="#000000" points="152,-50 152,-69 292,-69 292,-50 152,-50"/>
<text text-anchor="middle" x="222" y="-57" font-family="Helvetica,sans-Serif" font-size="10.00" fill="#000000">omc_CodegenCpp_initVals2</text>
</a>
</g>
</g>
<!-- Node200173&#45;&gt;Node200174 -->
<g id="edge1" class="edge">
<title>Node200173&#45;&gt;Node200174</title>
<path fill="none" stroke="#191970" d="M126.4083,-46.6767C134.8098,-47.8038 143.4071,-48.9571 151.8341,-50.0875"/>
<polygon fill="#191970" stroke="#191970" points="126.6586,-43.179 116.282,-45.3183 125.7279,-50.1169 126.6586,-43.179"/>
</g>
<!-- Node200182 -->
<g id="node10" class="node">
<title>Node200182</title>
<g id="a_node10"><a xlink:href="../../d0/df9/_codegen_cpp_8c.html#a961a3ff57be55b656ca7315df792764c" target="_top" xlink:title="boxptr_CodegenCpp_fun\l__1037">
<polygon fill="#ffffff" stroke="#000000" points="159.5,-.5 159.5,-30.5 284.5,-30.5 284.5,-.5 159.5,-.5"/>
<text text-anchor="start" x="167.5" y="-18.5" font-family="Helvetica,sans-Serif" font-size="10.00" fill="#000000">boxptr_CodegenCpp_fun</text>
<text text-anchor="middle" x="222" y="-7.5" font-family="Helvetica,sans-Serif" font-size="10.00" fill="#000000">__1037</text>
</a>
</g>
</g>
<!-- Node200173&#45;&gt;Node200182 -->
<g id="edge9" class="edge">
<title>Node200173&#45;&gt;Node200182</title>
<path fill="none" stroke="#191970" d="M126.2643,-28.3426C137.2634,-26.8671 148.602,-25.3461 159.4576,-23.8898"/>
<polygon fill="#191970" stroke="#191970" points="125.7279,-24.8831 116.282,-29.6817 126.6586,-31.821 125.7279,-24.8831"/>
</g>
<!-- Node200175 -->
<g id="node3" class="node">
<title>Node200175</title>
<g id="a_node3"><a xlink:href="../../d6/d8e/_codegen_cpp_8h.html#aa232b6940f03a8e459345b16c10284f0" target="_top" xlink:title="boxptr_CodegenCpp_initVals2">
<polygon fill="#ffffff" stroke="#000000" points="328,-69 328,-88 477,-88 477,-69 328,-69"/>
<text text-anchor="middle" x="402.5" y="-76" font-family="Helvetica,sans-Serif" font-size="10.00" fill="#000000">boxptr_CodegenCpp_initVals2</text>
</a>
</g>
</g>
<!-- Node200174&#45;&gt;Node200175 -->
<g id="edge2" class="edge">
<title>Node200174&#45;&gt;Node200175</title>
<path fill="none" stroke="#191970" d="M302.0051,-67.9216C310.5548,-68.8216 319.2287,-69.7346 327.7146,-70.6278"/>
<polygon fill="#191970" stroke="#191970" points="302.3558,-64.4393 292.0444,-66.8731 301.623,-71.4008 302.3558,-64.4393"/>
</g>
<!-- Node200176 -->
<g id="node4" class="node">
<title>Node200176</title>
<g id="a_node4"><a xlink:href="../../d0/df9/_codegen_cpp_8c.html#aab0929d2cb620596312f8cb74e3aff96" target="_top" xlink:title="omc_CodegenCpp_lm__1034">
<polygon fill="#ffffff" stroke="#000000" points="330,-31 330,-50 475,-50 475,-31 330,-31"/>
<text text-anchor="middle" x="402.5" y="-38" font-family="Helvetica,sans-Serif" font-size="10.00" fill="#000000">omc_CodegenCpp_lm__1034</text>
</a>
</g>
</g>
<!-- Node200174&#45;&gt;Node200176 -->
<g id="edge3" class="edge">
<title>Node200174&#45;&gt;Node200176</title>
<path fill="none" stroke="#191970" d="M302.0098,-51.0779C311.2636,-50.1038 320.6629,-49.1144 329.8117,-48.1514"/>
<polygon fill="#191970" stroke="#191970" points="301.623,-47.5992 292.0444,-52.1269 302.3558,-54.5607 301.623,-47.5992"/>
</g>
<!-- Node200177 -->
<g id="node5" class="node">
<title>Node200177</title>
<g id="a_node5"><a xlink:href="../../d6/d8e/_codegen_cpp_8h.html#aedec70199d66b22435534d8d77155855" target="_top" xlink:title="omc_CodegenCpp_initVals1">
<polygon fill="#ffffff" stroke="#000000" points="513,-53 513,-72 653,-72 653,-53 513,-53"/>
<text text-anchor="middle" x="583" y="-60" font-family="Helvetica,sans-Serif" font-size="10.00" fill="#000000">omc_CodegenCpp_initVals1</text>
</a>
</g>
</g>
<!-- Node200176&#45;&gt;Node200177 -->
<g id="edge4" class="edge">
<title>Node200176&#45;&gt;Node200177</title>
<path fill="none" stroke="#191970" d="M485.1297,-50.5712C494.3958,-51.7006 503.7698,-52.8431 512.8572,-53.9507"/>
<polygon fill="#191970" stroke="#191970" points="485.4861,-47.0888 475.136,-49.3531 484.6391,-54.0374 485.4861,-47.0888"/>
</g>
<!-- Node200181 -->
<g id="node9" class="node">
<title>Node200181</title>
<g id="a_node9"><a xlink:href="../../d0/df9/_codegen_cpp_8c.html#a75fc33353e6aa5c261dd24c6cf0da9dc" target="_top" xlink:title="boxptr_CodegenCpp_lm\l__1034">
<polygon fill="#ffffff" stroke="#000000" points="522,-3.5 522,-33.5 644,-33.5 644,-3.5 522,-3.5"/>
<text text-anchor="start" x="530" y="-21.5" font-family="Helvetica,sans-Serif" font-size="10.00" fill="#000000">boxptr_CodegenCpp_lm</text>
<text text-anchor="middle" x="583" y="-10.5" font-family="Helvetica,sans-Serif" font-size="10.00" fill="#000000">__1034</text>
</a>
</g>
</g>
<!-- Node200176&#45;&gt;Node200181 -->
<g id="edge8" class="edge">
<title>Node200176&#45;&gt;Node200181</title>
<path fill="none" stroke="#191970" d="M485.3766,-30.3987C497.6428,-28.9037 510.0918,-27.3863 521.8093,-25.9581"/>
<polygon fill="#191970" stroke="#191970" points="484.6391,-26.9626 475.136,-31.6469 485.4861,-33.9112 484.6391,-26.9626"/>
</g>
<!-- Node200178 -->
<g id="node6" class="node">
<title>Node200178</title>
<g id="a_node6"><a xlink:href="../../d6/d8e/_codegen_cpp_8h.html#ae94ea980a63866cffa1092c9b16776ea" target="_top" xlink:title="boxptr_CodegenCpp_initVals1">
<polygon fill="#ffffff" stroke="#000000" points="689,-72 689,-91 838,-91 838,-72 689,-72"/>
<text text-anchor="middle" x="763.5" y="-79" font-family="Helvetica,sans-Serif" font-size="10.00" fill="#000000">boxptr_CodegenCpp_initVals1</text>
</a>
</g>
</g>
<!-- Node200177&#45;&gt;Node200178 -->
<g id="edge5" class="edge">
<title>Node200177&#45;&gt;Node200178</title>
<path fill="none" stroke="#191970" d="M663.0051,-70.9216C671.5548,-71.8216 680.2287,-72.7346 688.7146,-73.6278"/>
<polygon fill="#191970" stroke="#191970" points="663.3558,-67.4393 653.0444,-69.8731 662.623,-74.4008 663.3558,-67.4393"/>
</g>
<!-- Node200179 -->
<g id="node7" class="node">
<title>Node200179</title>
<g id="a_node7"><a xlink:href="../../d6/d8e/_codegen_cpp_8h.html#ad42e3d3b6b0a29ed3b1cde8223aa27f4" target="_top" xlink:title="omc_CodegenCpp_arrayInit">
<polygon fill="#ffffff" stroke="#000000" points="694.5,-34 694.5,-53 832.5,-53 832.5,-34 694.5,-34"/>
<text text-anchor="middle" x="763.5" y="-41" font-family="Helvetica,sans-Serif" font-size="10.00" fill="#000000">omc_CodegenCpp_arrayInit</text>
</a>
</g>
</g>
<!-- Node200177&#45;&gt;Node200179 -->
<g id="edge6" class="edge">
<title>Node200177&#45;&gt;Node200179</title>
<path fill="none" stroke="#191970" d="M663.0028,-54.0787C673.4685,-52.977 684.1205,-51.8557 694.3859,-50.7752"/>
<polygon fill="#191970" stroke="#191970" points="662.623,-50.5992 653.0444,-55.1269 663.3558,-57.5607 662.623,-50.5992"/>
</g>
<!-- Node200180 -->
<g id="node8" class="node">
<title>Node200180</title>
<g id="a_node8"><a xlink:href="../../d6/d8e/_codegen_cpp_8h.html#a3adab128bde3d1c738f7b174652aa50e" target="_top" xlink:title="boxptr_CodegenCpp_arrayInit">
<polygon fill="#ffffff" stroke="#000000" points="874,-34 874,-53 1020,-53 1020,-34 874,-34"/>
<text text-anchor="middle" x="947" y="-41" font-family="Helvetica,sans-Serif" font-size="10.00" fill="#000000">boxptr_CodegenCpp_arrayInit</text>
</a>
</g>
</g>
<!-- Node200179&#45;&gt;Node200180 -->
<g id="edge7" class="edge">
<title>Node200179&#45;&gt;Node200180</title>
<path fill="none" stroke="#191970" d="M842.8572,-43.5C853.1936,-43.5 863.7437,-43.5 873.9698,-43.5"/>
<polygon fill="#191970" stroke="#191970" points="842.612,-40.0001 832.612,-43.5 842.612,-47.0001 842.612,-40.0001"/>
</g>
</g>
</svg>
