<?xml version="1.0" encoding="UTF-8" standalone="no"?>
<!DOCTYPE svg PUBLIC "-//W3C//DTD SVG 1.1//EN"
 "http://www.w3.org/Graphics/SVG/1.1/DTD/svg11.dtd">
<!-- Generated by graphviz version 2.40.1 (20161225.0304)
 -->
<!-- Title: omc_CodegenCpp_fun__423 Pages: 1 -->
<svg width="1688pt" height="100pt"
 viewBox="0.00 0.00 1688.00 99.50" xmlns="http://www.w3.org/2000/svg" xmlns:xlink="http://www.w3.org/1999/xlink">
<g id="graph0" class="graph" transform="scale(1 1) rotate(0) translate(4 95.5)">
<title>omc_CodegenCpp_fun__423</title>
<polygon fill="#ffffff" stroke="transparent" points="-4,4 -4,-95.5 1684,-95.5 1684,4 -4,4"/>
<!-- Node253145 -->
<g id="node1" class="node">
<title>Node253145</title>
<polygon fill="#bfbfbf" stroke="#000000" points="0,-25.5 0,-44.5 143,-44.5 143,-25.5 0,-25.5"/>
<text text-anchor="middle" x="71.5" y="-32.5" font-family="Helvetica,sans-Serif" font-size="10.00" fill="#000000">omc_CodegenCpp_fun__423</text>
</g>
<!-- Node253146 -->
<g id="node2" class="node">
<title>Node253146</title>
<g id="a_node2"><a xlink:href="../../d6/d8e/_codegen_cpp_8h.html#aa7bf4b3d5f5ba849bd224221f6915dba" target="_top" xlink:title="omc_CodegenCpp_functionBody">
<polygon fill="#ffffff" stroke="#000000" points="179,-44.5 179,-63.5 339,-63.5 339,-44.5 179,-44.5"/>
<text text-anchor="middle" x="259" y="-51.5" font-family="Helvetica,sans-Serif" font-size="10.00" fill="#000000">omc_CodegenCpp_functionBody</text>
</a>
</g>
</g>
<!-- Node253145&#45;&gt;Node253146 -->
<g id="edge1" class="edge">
<title>Node253145&#45;&gt;Node253146</title>
<path fill="none" stroke="#191970" d="M153.1428,-43.2731C161.6908,-44.1393 170.3753,-45.0194 178.9058,-45.8838"/>
<polygon fill="#191970" stroke="#191970" points="153.4902,-39.7905 143.1883,-42.2644 152.7844,-46.7548 153.4902,-39.7905"/>
</g>
<!-- Node253159 -->
<g id="node15" class="node">
<title>Node253159</title>
<g id="a_node15"><a xlink:href="../../d0/df9/_codegen_cpp_8c.html#a96a234fdc78aaa0ae05ba779f4a74990" target="_top" xlink:title="boxptr_CodegenCpp_fun__423">
<polygon fill="#ffffff" stroke="#000000" points="183.5,-6.5 183.5,-25.5 334.5,-25.5 334.5,-6.5 183.5,-6.5"/>
<text text-anchor="middle" x="259" y="-13.5" font-family="Helvetica,sans-Serif" font-size="10.00" fill="#000000">boxptr_CodegenCpp_fun__423</text>
</a>
</g>
</g>
<!-- Node253145&#45;&gt;Node253159 -->
<g id="edge14" class="edge">
<title>Node253145&#45;&gt;Node253159</title>
<path fill="none" stroke="#191970" d="M153.4462,-26.6961C163.3703,-25.6905 173.4736,-24.6667 183.3018,-23.6707"/>
<polygon fill="#191970" stroke="#191970" points="152.7844,-23.2452 143.1883,-27.7356 153.4902,-30.2095 152.7844,-23.2452"/>
</g>
<!-- Node253147 -->
<g id="node3" class="node">
<title>Node253147</title>
<g id="a_node3"><a xlink:href="../../d6/d8e/_codegen_cpp_8h.html#ac35e9943eb22b27f2e8cea56c55500fc" target="_top" xlink:title="boxptr_CodegenCpp_functionBody">
<polygon fill="#ffffff" stroke="#000000" points="375,-63.5 375,-82.5 543,-82.5 543,-63.5 375,-63.5"/>
<text text-anchor="middle" x="459" y="-70.5" font-family="Helvetica,sans-Serif" font-size="10.00" fill="#000000">boxptr_CodegenCpp_functionBody</text>
</a>
</g>
</g>
<!-- Node253146&#45;&gt;Node253147 -->
<g id="edge2" class="edge">
<title>Node253146&#45;&gt;Node253147</title>
<path fill="none" stroke="#191970" d="M349.1731,-62.5664C357.7235,-63.3787 366.3706,-64.2002 374.8612,-65.0068"/>
<polygon fill="#191970" stroke="#191970" points="349.4815,-59.0801 339.1953,-61.6185 348.8194,-66.0487 349.4815,-59.0801"/>
</g>
<!-- Node253148 -->
<g id="node4" class="node">
<title>Node253148</title>
<g id="a_node4"><a xlink:href="../../d0/df9/_codegen_cpp_8c.html#af696da50043abe3a6b07181990019978" target="_top" xlink:title="omc_CodegenCpp_lm__418">
<polygon fill="#ffffff" stroke="#000000" points="389,-25.5 389,-44.5 529,-44.5 529,-25.5 389,-25.5"/>
<text text-anchor="middle" x="459" y="-32.5" font-family="Helvetica,sans-Serif" font-size="10.00" fill="#000000">omc_CodegenCpp_lm__418</text>
</a>
</g>
</g>
<!-- Node253146&#45;&gt;Node253148 -->
<g id="edge3" class="edge">
<title>Node253146&#45;&gt;Node253148</title>
<path fill="none" stroke="#191970" d="M349.2712,-45.4242C362.5265,-44.165 376.0119,-42.8839 388.7841,-41.6705"/>
<polygon fill="#191970" stroke="#191970" points="348.8194,-41.9513 339.1953,-46.3815 349.4815,-48.9199 348.8194,-41.9513"/>
</g>
<!-- Node253149 -->
<g id="node5" class="node">
<title>Node253149</title>
<g id="a_node5"><a xlink:href="../../d6/d8e/_codegen_cpp_8h.html#a453993f6b22016c0d68c5818de56029e" target="_top" xlink:title="omc_CodegenCpp_functionBodies">
<polygon fill="#ffffff" stroke="#000000" points="579,-44.5 579,-63.5 746,-63.5 746,-44.5 579,-44.5"/>
<text text-anchor="middle" x="662.5" y="-51.5" font-family="Helvetica,sans-Serif" font-size="10.00" fill="#000000">omc_CodegenCpp_functionBodies</text>
</a>
</g>
</g>
<!-- Node253148&#45;&gt;Node253149 -->
<g id="edge4" class="edge">
<title>Node253148&#45;&gt;Node253149</title>
<path fill="none" stroke="#191970" d="M539.284,-42.4958C552.2166,-43.7033 565.634,-44.956 578.648,-46.1711"/>
<polygon fill="#191970" stroke="#191970" points="539.3153,-38.9836 529.0332,-41.5387 538.6645,-45.9533 539.3153,-38.9836"/>
</g>
<!-- Node253158 -->
<g id="node14" class="node">
<title>Node253158</title>
<g id="a_node14"><a xlink:href="../../d0/df9/_codegen_cpp_8c.html#aabb49f0552d625aaa8ad7f44b71c294f" target="_top" xlink:title="boxptr_CodegenCpp_lm__418">
<polygon fill="#ffffff" stroke="#000000" points="588.5,-6.5 588.5,-25.5 736.5,-25.5 736.5,-6.5 588.5,-6.5"/>
<text text-anchor="middle" x="662.5" y="-13.5" font-family="Helvetica,sans-Serif" font-size="10.00" fill="#000000">boxptr_CodegenCpp_lm__418</text>
</a>
</g>
</g>
<!-- Node253148&#45;&gt;Node253158 -->
<g id="edge13" class="edge">
<title>Node253148&#45;&gt;Node253158</title>
<path fill="none" stroke="#191970" d="M539.0049,-27.5303C555.2055,-26.0177 572.1775,-24.4331 588.1725,-22.9397"/>
<polygon fill="#191970" stroke="#191970" points="538.6645,-24.0467 529.0332,-28.4613 539.3153,-31.0164 538.6645,-24.0467"/>
</g>
<!-- Node253150 -->
<g id="node6" class="node">
<title>Node253150</title>
<g id="a_node6"><a xlink:href="../../d6/d8e/_codegen_cpp_8h.html#ae9522ffb5140b3d3e1a9c4b35c59384b" target="_top" xlink:title="boxptr_CodegenCpp_function\lBodies">
<polygon fill="#ffffff" stroke="#000000" points="782,-61 782,-91 928,-91 928,-61 782,-61"/>
<text text-anchor="start" x="790" y="-79" font-family="Helvetica,sans-Serif" font-size="10.00" fill="#000000">boxptr_CodegenCpp_function</text>
<text text-anchor="middle" x="855" y="-68" font-family="Helvetica,sans-Serif" font-size="10.00" fill="#000000">Bodies</text>
</a>
</g>
</g>
<!-- Node253149&#45;&gt;Node253150 -->
<g id="edge5" class="edge">
<title>Node253149&#45;&gt;Node253150</title>
<path fill="none" stroke="#191970" d="M755.9782,-64.6832C764.6631,-65.6758 773.3781,-66.6718 781.8401,-67.6389"/>
<polygon fill="#191970" stroke="#191970" points="756.1465,-61.1798 745.8137,-63.5216 755.3516,-68.1345 756.1465,-61.1798"/>
</g>
<!-- Node253151 -->
<g id="node7" class="node">
<title>Node253151</title>
<g id="a_node7"><a xlink:href="../../d0/df9/_codegen_cpp_8c.html#ade40310fbb44e7b57108ea3ff6d3b18a" target="_top" xlink:title="omc_CodegenCpp_fun__293">
<polygon fill="#ffffff" stroke="#000000" points="783.5,-22.5 783.5,-41.5 926.5,-41.5 926.5,-22.5 783.5,-22.5"/>
<text text-anchor="middle" x="855" y="-29.5" font-family="Helvetica,sans-Serif" font-size="10.00" fill="#000000">omc_CodegenCpp_fun__293</text>
</a>
</g>
</g>
<!-- Node253149&#45;&gt;Node253151 -->
<g id="edge6" class="edge">
<title>Node253149&#45;&gt;Node253151</title>
<path fill="none" stroke="#191970" d="M755.8198,-43.3349C765.0691,-42.2778 774.3545,-41.2166 783.334,-40.1904"/>
<polygon fill="#191970" stroke="#191970" points="755.3516,-39.8655 745.8137,-44.4784 756.1465,-46.8202 755.3516,-39.8655"/>
</g>
<!-- Node253152 -->
<g id="node8" class="node">
<title>Node253152</title>
<g id="a_node8"><a xlink:href="../../d6/d8e/_codegen_cpp_8h.html#a738440a8ed8356746070beb8add5c382" target="_top" xlink:title="omc_CodegenCpp_simulation\lFunctionsFile">
<polygon fill="#ffffff" stroke="#000000" points="966,-39 966,-69 1113,-69 1113,-39 966,-39"/>
<text text-anchor="start" x="974" y="-57" font-family="Helvetica,sans-Serif" font-size="10.00" fill="#000000">omc_CodegenCpp_simulation</text>
<text text-anchor="middle" x="1039.5" y="-46" font-family="Helvetica,sans-Serif" font-size="10.00" fill="#000000">FunctionsFile</text>
</a>
</g>
</g>
<!-- Node253151&#45;&gt;Node253152 -->
<g id="edge7" class="edge">
<title>Node253151&#45;&gt;Node253152</title>
<path fill="none" stroke="#191970" d="M936.6404,-41.7349C946.3513,-42.8928 956.2211,-44.0697 965.8117,-45.2133"/>
<polygon fill="#191970" stroke="#191970" points="936.9407,-38.246 926.5966,-40.5373 936.1118,-45.1968 936.9407,-38.246"/>
</g>
<!-- Node253157 -->
<g id="node13" class="node">
<title>Node253157</title>
<g id="a_node13"><a xlink:href="../../d0/df9/_codegen_cpp_8c.html#a61e793724169d4a8b59d5acb4e1a0e0d" target="_top" xlink:title="boxptr_CodegenCpp_fun__293">
<polygon fill="#ffffff" stroke="#000000" points="964,-.5 964,-19.5 1115,-19.5 1115,-.5 964,-.5"/>
<text text-anchor="middle" x="1039.5" y="-7.5" font-family="Helvetica,sans-Serif" font-size="10.00" fill="#000000">boxptr_CodegenCpp_fun__293</text>
</a>
</g>
</g>
<!-- Node253151&#45;&gt;Node253157 -->
<g id="edge12" class="edge">
<title>Node253151&#45;&gt;Node253157</title>
<path fill="none" stroke="#191970" d="M936.7467,-22.2524C945.8051,-21.1723 955.0003,-20.0758 963.977,-19.0055"/>
<polygon fill="#191970" stroke="#191970" points="936.1118,-18.8032 926.5966,-23.4627 936.9407,-25.754 936.1118,-18.8032"/>
</g>
<!-- Node253153 -->
<g id="node9" class="node">
<title>Node253153</title>
<g id="a_node9"><a xlink:href="../../d6/d8e/_codegen_cpp_8h.html#a0b991e24fb97a0c69f2d1576e0849305" target="_top" xlink:title="boxptr_CodegenCpp_simulation\lFunctionsFile">
<polygon fill="#ffffff" stroke="#000000" points="1151,-61 1151,-91 1306,-91 1306,-61 1151,-61"/>
<text text-anchor="start" x="1159" y="-79" font-family="Helvetica,sans-Serif" font-size="10.00" fill="#000000">boxptr_CodegenCpp_simulation</text>
<text text-anchor="middle" x="1228.5" y="-68" font-family="Helvetica,sans-Serif" font-size="10.00" fill="#000000">FunctionsFile</text>
</a>
</g>
</g>
<!-- Node253152&#45;&gt;Node253153 -->
<g id="edge8" class="edge">
<title>Node253152&#45;&gt;Node253153</title>
<path fill="none" stroke="#191970" d="M1123.3251,-63.7574C1132.4364,-64.818 1141.6818,-65.8942 1150.7166,-66.9458"/>
<polygon fill="#191970" stroke="#191970" points="1123.4512,-60.2485 1113.1135,-62.5688 1122.6418,-67.2016 1123.4512,-60.2485"/>
</g>
<!-- Node253154 -->
<g id="node10" class="node">
<title>Node253154</title>
<g id="a_node10"><a xlink:href="../../d0/df9/_codegen_cpp_8c.html#aa7c7709a5cda769632291bb6f29d8b29" target="_top" xlink:title="omc_CodegenCpp_fun__46">
<polygon fill="#ffffff" stroke="#000000" points="1160,-22.5 1160,-41.5 1297,-41.5 1297,-22.5 1160,-22.5"/>
<text text-anchor="middle" x="1228.5" y="-29.5" font-family="Helvetica,sans-Serif" font-size="10.00" fill="#000000">omc_CodegenCpp_fun__46</text>
</a>
</g>
</g>
<!-- Node253152&#45;&gt;Node253154 -->
<g id="edge9" class="edge">
<title>Node253152&#45;&gt;Node253154</title>
<path fill="none" stroke="#191970" d="M1123.2732,-44.2486C1135.4572,-42.8304 1147.8821,-41.3841 1159.7237,-40.0057"/>
<polygon fill="#191970" stroke="#191970" points="1122.6418,-40.7984 1113.1135,-45.4312 1123.4512,-47.7515 1122.6418,-40.7984"/>
</g>
<!-- Node253155 -->
<g id="node11" class="node">
<title>Node253155</title>
<g id="a_node11"><a xlink:href="../../d6/d8e/_codegen_cpp_8h.html#a54676ae5ee46975a3ec1566a9856625c" target="_top" xlink:title="omc_CodegenCpp_translate\lModel">
<polygon fill="#ffffff" stroke="#000000" points="1342,-17 1342,-47 1482,-47 1482,-17 1342,-17"/>
<text text-anchor="start" x="1350" y="-35" font-family="Helvetica,sans-Serif" font-size="10.00" fill="#000000">omc_CodegenCpp_translate</text>
<text text-anchor="middle" x="1412" y="-24" font-family="Helvetica,sans-Serif" font-size="10.00" fill="#000000">Model</text>
</a>
</g>
</g>
<!-- Node253154&#45;&gt;Node253155 -->
<g id="edge10" class="edge">
<title>Node253154&#45;&gt;Node253155</title>
<path fill="none" stroke="#191970" d="M1307.164,-32C1318.7326,-32 1330.5846,-32 1341.9639,-32"/>
<polygon fill="#191970" stroke="#191970" points="1307.0896,-28.5001 1297.0896,-32 1307.0895,-35.5001 1307.0896,-28.5001"/>
</g>
<!-- Node253156 -->
<g id="node12" class="node">
<title>Node253156</title>
<g id="a_node12"><a xlink:href="../../d5/d4c/_codegen_f_m_u_cpp_8h.html#a1fc774045fbfd7b6dc9872f8b61ccdad" target="_top" xlink:title="omc_CodegenFMUCpp_translate\lModel">
<polygon fill="#ffffff" stroke="#000000" points="1518,-17 1518,-47 1680,-47 1680,-17 1518,-17"/>
<text text-anchor="start" x="1526" y="-35" font-family="Helvetica,sans-Serif" font-size="10.00" fill="#000000">omc_CodegenFMUCpp_translate</text>
<text text-anchor="middle" x="1599" y="-24" font-family="Helvetica,sans-Serif" font-size="10.00" fill="#000000">Model</text>
</a>
</g>
</g>
<!-- Node253155&#45;&gt;Node253156 -->
<g id="edge11" class="edge">
<title>Node253155&#45;&gt;Node253156</title>
<path fill="none" stroke="#191970" d="M1492.3393,-32C1500.7557,-32 1509.3173,-32 1517.744,-32"/>
<polygon fill="#191970" stroke="#191970" points="1492.164,-28.5001 1482.1639,-32 1492.1639,-35.5001 1492.164,-28.5001"/>
</g>
</g>
</svg>
