<?xml version="1.0" encoding="UTF-8" standalone="no"?>
<!DOCTYPE svg PUBLIC "-//W3C//DTD SVG 1.1//EN"
 "http://www.w3.org/Graphics/SVG/1.1/DTD/svg11.dtd">
<!-- Generated by graphviz version 2.40.1 (20161225.0304)
 -->
<!-- Title: omc_CodegenCpp_fun__1437 Pages: 1 -->
<svg width="1264pt" height="100pt"
 viewBox="0.00 0.00 1264.00 99.50" xmlns="http://www.w3.org/2000/svg" xmlns:xlink="http://www.w3.org/1999/xlink">
<g id="graph0" class="graph" transform="scale(1 1) rotate(0) translate(4 95.5)">
<title>omc_CodegenCpp_fun__1437</title>
<polygon fill="#ffffff" stroke="transparent" points="-4,4 -4,-95.5 1260,-95.5 1260,4 -4,4"/>
<!-- Node223080 -->
<g id="node1" class="node">
<title>Node223080</title>
<polygon fill="#bfbfbf" stroke="#000000" points="0,-39 0,-69 116,-69 116,-39 0,-39"/>
<text text-anchor="start" x="8" y="-57" font-family="Helvetica,sans-Serif" font-size="10.00" fill="#000000">omc_CodegenCpp_fun</text>
<text text-anchor="middle" x="58" y="-46" font-family="Helvetica,sans-Serif" font-size="10.00" fill="#000000">__1437</text>
</g>
<!-- Node223081 -->
<g id="node2" class="node">
<title>Node223081</title>
<g id="a_node2"><a xlink:href="../../d6/d8e/_codegen_cpp_8h.html#a27d5e8698775c22965f9b0c2713fb954" target="_top" xlink:title="omc_CodegenCpp_giveZeroFunc1">
<polygon fill="#ffffff" stroke="#000000" points="152,-44.5 152,-63.5 319,-63.5 319,-44.5 152,-44.5"/>
<text text-anchor="middle" x="235.5" y="-51.5" font-family="Helvetica,sans-Serif" font-size="10.00" fill="#000000">omc_CodegenCpp_giveZeroFunc1</text>
</a>
</g>
</g>
<!-- Node223080&#45;&gt;Node223081 -->
<g id="edge1" class="edge">
<title>Node223080&#45;&gt;Node223081</title>
<path fill="none" stroke="#191970" d="M126.1996,-54C134.586,-54 143.2315,-54 151.8137,-54"/>
<polygon fill="#191970" stroke="#191970" points="126.1202,-50.5001 116.1201,-54 126.1201,-57.5001 126.1202,-50.5001"/>
</g>
<!-- Node223082 -->
<g id="node3" class="node">
<title>Node223082</title>
<g id="a_node3"><a xlink:href="../../d6/d8e/_codegen_cpp_8h.html#ac1333db53e0060cd0ddd6bf2629e4632" target="_top" xlink:title="boxptr_CodegenCpp_giveZero\lFunc1">
<polygon fill="#ffffff" stroke="#000000" points="355,-61 355,-91 504,-91 504,-61 355,-61"/>
<text text-anchor="start" x="363" y="-79" font-family="Helvetica,sans-Serif" font-size="10.00" fill="#000000">boxptr_CodegenCpp_giveZero</text>
<text text-anchor="middle" x="429.5" y="-68" font-family="Helvetica,sans-Serif" font-size="10.00" fill="#000000">Func1</text>
</a>
</g>
</g>
<!-- Node223081&#45;&gt;Node223082 -->
<g id="edge2" class="edge">
<title>Node223081&#45;&gt;Node223082</title>
<path fill="none" stroke="#191970" d="M329.2665,-64.6333C337.8851,-65.6107 346.5377,-66.5919 354.9519,-67.5461"/>
<polygon fill="#191970" stroke="#191970" points="329.5118,-61.1388 319.1811,-63.4896 328.723,-68.0942 329.5118,-61.1388"/>
</g>
<!-- Node223083 -->
<g id="node4" class="node">
<title>Node223083</title>
<g id="a_node4"><a xlink:href="../../d0/df9/_codegen_cpp_8c.html#a0f63c8a6bba3ee49eeb8a5daeacf892c" target="_top" xlink:title="omc_CodegenCpp_fun__379">
<polygon fill="#ffffff" stroke="#000000" points="358,-22.5 358,-41.5 501,-41.5 501,-22.5 358,-22.5"/>
<text text-anchor="middle" x="429.5" y="-29.5" font-family="Helvetica,sans-Serif" font-size="10.00" fill="#000000">omc_CodegenCpp_fun__379</text>
</a>
</g>
</g>
<!-- Node223081&#45;&gt;Node223083 -->
<g id="edge3" class="edge">
<title>Node223081&#45;&gt;Node223083</title>
<path fill="none" stroke="#191970" d="M329.2229,-43.3716C338.8896,-42.2754 348.5997,-41.1743 357.9687,-40.1118"/>
<polygon fill="#191970" stroke="#191970" points="328.723,-39.9058 319.1811,-44.5104 329.5118,-46.8612 328.723,-39.9058"/>
</g>
<!-- Node223084 -->
<g id="node5" class="node">
<title>Node223084</title>
<g id="a_node5"><a xlink:href="../../d6/d8e/_codegen_cpp_8h.html#a08aa31f2e455245b654026d594cdd59d" target="_top" xlink:title="omc_CodegenCpp_simulation\lCppFile">
<polygon fill="#ffffff" stroke="#000000" points="542,-39 542,-69 689,-69 689,-39 542,-39"/>
<text text-anchor="start" x="550" y="-57" font-family="Helvetica,sans-Serif" font-size="10.00" fill="#000000">omc_CodegenCpp_simulation</text>
<text text-anchor="middle" x="615.5" y="-46" font-family="Helvetica,sans-Serif" font-size="10.00" fill="#000000">CppFile</text>
</a>
</g>
</g>
<!-- Node223083&#45;&gt;Node223084 -->
<g id="edge4" class="edge">
<title>Node223083&#45;&gt;Node223084</title>
<path fill="none" stroke="#191970" d="M511.2216,-41.666C521.3758,-42.867 531.712,-44.0896 541.7364,-45.2753"/>
<polygon fill="#191970" stroke="#191970" points="511.4883,-38.1732 501.1464,-40.4743 510.666,-45.1248 511.4883,-38.1732"/>
</g>
<!-- Node223089 -->
<g id="node10" class="node">
<title>Node223089</title>
<g id="a_node10"><a xlink:href="../../d0/df9/_codegen_cpp_8c.html#a0144912157c3ae361900fab7b6b286ee" target="_top" xlink:title="boxptr_CodegenCpp_fun__379">
<polygon fill="#ffffff" stroke="#000000" points="540,-.5 540,-19.5 691,-19.5 691,-.5 540,-.5"/>
<text text-anchor="middle" x="615.5" y="-7.5" font-family="Helvetica,sans-Serif" font-size="10.00" fill="#000000">boxptr_CodegenCpp_fun__379</text>
</a>
</g>
</g>
<!-- Node223083&#45;&gt;Node223089 -->
<g id="edge9" class="edge">
<title>Node223083&#45;&gt;Node223089</title>
<path fill="none" stroke="#191970" d="M511.3583,-22.3178C520.8436,-21.1959 530.4857,-20.0555 539.8823,-18.944"/>
<polygon fill="#191970" stroke="#191970" points="510.666,-18.8752 501.1464,-23.5257 511.4883,-25.8268 510.666,-18.8752"/>
</g>
<!-- Node223085 -->
<g id="node6" class="node">
<title>Node223085</title>
<g id="a_node6"><a xlink:href="../../d6/d8e/_codegen_cpp_8h.html#a1b9394bb588f6735b3db560edcfc3db7" target="_top" xlink:title="boxptr_CodegenCpp_simulation\lCppFile">
<polygon fill="#ffffff" stroke="#000000" points="727,-61 727,-91 882,-91 882,-61 727,-61"/>
<text text-anchor="start" x="735" y="-79" font-family="Helvetica,sans-Serif" font-size="10.00" fill="#000000">boxptr_CodegenCpp_simulation</text>
<text text-anchor="middle" x="804.5" y="-68" font-family="Helvetica,sans-Serif" font-size="10.00" fill="#000000">CppFile</text>
</a>
</g>
</g>
<!-- Node223084&#45;&gt;Node223085 -->
<g id="edge5" class="edge">
<title>Node223084&#45;&gt;Node223085</title>
<path fill="none" stroke="#191970" d="M699.3251,-63.7574C708.4364,-64.818 717.6818,-65.8942 726.7166,-66.9458"/>
<polygon fill="#191970" stroke="#191970" points="699.4512,-60.2485 689.1135,-62.5688 698.6418,-67.2016 699.4512,-60.2485"/>
</g>
<!-- Node223086 -->
<g id="node7" class="node">
<title>Node223086</title>
<g id="a_node7"><a xlink:href="../../d0/df9/_codegen_cpp_8c.html#aa7c7709a5cda769632291bb6f29d8b29" target="_top" xlink:title="omc_CodegenCpp_fun__46">
<polygon fill="#ffffff" stroke="#000000" points="736,-22.5 736,-41.5 873,-41.5 873,-22.5 736,-22.5"/>
<text text-anchor="middle" x="804.5" y="-29.5" font-family="Helvetica,sans-Serif" font-size="10.00" fill="#000000">omc_CodegenCpp_fun__46</text>
</a>
</g>
</g>
<!-- Node223084&#45;&gt;Node223086 -->
<g id="edge6" class="edge">
<title>Node223084&#45;&gt;Node223086</title>
<path fill="none" stroke="#191970" d="M699.2732,-44.2486C711.4572,-42.8304 723.8821,-41.3841 735.7237,-40.0057"/>
<polygon fill="#191970" stroke="#191970" points="698.6418,-40.7984 689.1135,-45.4312 699.4512,-47.7515 698.6418,-40.7984"/>
</g>
<!-- Node223087 -->
<g id="node8" class="node">
<title>Node223087</title>
<g id="a_node8"><a xlink:href="../../d6/d8e/_codegen_cpp_8h.html#a54676ae5ee46975a3ec1566a9856625c" target="_top" xlink:title="omc_CodegenCpp_translate\lModel">
<polygon fill="#ffffff" stroke="#000000" points="918,-17 918,-47 1058,-47 1058,-17 918,-17"/>
<text text-anchor="start" x="926" y="-35" font-family="Helvetica,sans-Serif" font-size="10.00" fill="#000000">omc_CodegenCpp_translate</text>
<text text-anchor="middle" x="988" y="-24" font-family="Helvetica,sans-Serif" font-size="10.00" fill="#000000">Model</text>
</a>
</g>
</g>
<!-- Node223086&#45;&gt;Node223087 -->
<g id="edge7" class="edge">
<title>Node223086&#45;&gt;Node223087</title>
<path fill="none" stroke="#191970" d="M883.164,-32C894.7326,-32 906.5846,-32 917.9639,-32"/>
<polygon fill="#191970" stroke="#191970" points="883.0896,-28.5001 873.0896,-32 883.0895,-35.5001 883.0896,-28.5001"/>
</g>
<!-- Node223088 -->
<g id="node9" class="node">
<title>Node223088</title>
<g id="a_node9"><a xlink:href="../../d5/d4c/_codegen_f_m_u_cpp_8h.html#a1fc774045fbfd7b6dc9872f8b61ccdad" target="_top" xlink:title="omc_CodegenFMUCpp_translate\lModel">
<polygon fill="#ffffff" stroke="#000000" points="1094,-17 1094,-47 1256,-47 1256,-17 1094,-17"/>
<text text-anchor="start" x="1102" y="-35" font-family="Helvetica,sans-Serif" font-size="10.00" fill="#000000">omc_CodegenFMUCpp_translate</text>
<text text-anchor="middle" x="1175" y="-24" font-family="Helvetica,sans-Serif" font-size="10.00" fill="#000000">Model</text>
</a>
</g>
</g>
<!-- Node223087&#45;&gt;Node223088 -->
<g id="edge8" class="edge">
<title>Node223087&#45;&gt;Node223088</title>
<path fill="none" stroke="#191970" d="M1068.3393,-32C1076.7557,-32 1085.3173,-32 1093.744,-32"/>
<polygon fill="#191970" stroke="#191970" points="1068.164,-28.5001 1058.1639,-32 1068.1639,-35.5001 1068.164,-28.5001"/>
</g>
</g>
</svg>
