<?xml version="1.0" encoding="UTF-8" standalone="no"?>
<!DOCTYPE svg PUBLIC "-//W3C//DTD SVG 1.1//EN"
 "http://www.w3.org/Graphics/SVG/1.1/DTD/svg11.dtd">
<!-- Generated by graphviz version 2.40.1 (20161225.0304)
 -->
<!-- Title: omc_CodegenCpp_fun__647 Pages: 1 -->
<svg width="2595pt" height="218pt"
 viewBox="0.00 0.00 2595.00 218.00" xmlns="http://www.w3.org/2000/svg" xmlns:xlink="http://www.w3.org/1999/xlink">
<g id="graph0" class="graph" transform="scale(1 1) rotate(0) translate(4 214)">
<title>omc_CodegenCpp_fun__647</title>
<polygon fill="#ffffff" stroke="transparent" points="-4,4 -4,-214 2591,-214 2591,4 -4,4"/>
<!-- Node273949 -->
<g id="node1" class="node">
<title>Node273949</title>
<polygon fill="#bfbfbf" stroke="#000000" points="0,-95.5 0,-114.5 143,-114.5 143,-95.5 0,-95.5"/>
<text text-anchor="middle" x="71.5" y="-102.5" font-family="Helvetica,sans-Serif" font-size="10.00" fill="#000000">omc_CodegenCpp_fun__647</text>
</g>
<!-- Node273950 -->
<g id="node2" class="node">
<title>Node273950</title>
<g id="a_node2"><a xlink:href="../../d6/d8e/_codegen_cpp_8h.html#a3b41b389e3bf33c49adb021d2340dc9b" target="_top" xlink:title="omc_CodegenCpp_varInit">
<polygon fill="#ffffff" stroke="#000000" points="179,-95.5 179,-114.5 309,-114.5 309,-95.5 179,-95.5"/>
<text text-anchor="middle" x="244" y="-102.5" font-family="Helvetica,sans-Serif" font-size="10.00" fill="#000000">omc_CodegenCpp_varInit</text>
</a>
</g>
</g>
<!-- Node273949&#45;&gt;Node273950 -->
<g id="edge1" class="edge">
<title>Node273949&#45;&gt;Node273950</title>
<path fill="none" stroke="#191970" d="M153.2233,-105C161.8395,-105 170.5162,-105 178.9081,-105"/>
<polygon fill="#191970" stroke="#191970" points="153.157,-101.5001 143.1569,-105 153.1569,-108.5001 153.157,-101.5001"/>
</g>
<!-- Node273951 -->
<g id="node3" class="node">
<title>Node273951</title>
<g id="a_node3"><a xlink:href="../../d6/d8e/_codegen_cpp_8h.html#a390ce11f97abf8e831fae2d230e86e8a" target="_top" xlink:title="boxptr_CodegenCpp_varInit">
<polygon fill="#ffffff" stroke="#000000" points="346,-133.5 346,-152.5 484,-152.5 484,-133.5 346,-133.5"/>
<text text-anchor="middle" x="415" y="-140.5" font-family="Helvetica,sans-Serif" font-size="10.00" fill="#000000">boxptr_CodegenCpp_varInit</text>
</a>
</g>
</g>
<!-- Node273950&#45;&gt;Node273951 -->
<g id="edge2" class="edge">
<title>Node273950&#45;&gt;Node273951</title>
<path fill="none" stroke="#191970" d="M297.2092,-116.8243C321.3172,-122.1816 349.4401,-128.4311 372.1598,-133.4799"/>
<polygon fill="#191970" stroke="#191970" points="297.6717,-113.3417 287.1505,-114.589 296.1531,-120.175 297.6717,-113.3417"/>
</g>
<!-- Node273952 -->
<g id="node4" class="node">
<title>Node273952</title>
<g id="a_node4"><a xlink:href="../../d0/df9/_codegen_cpp_8c.html#af27c3c84e54eec8efbc0c44a54a1f77b" target="_top" xlink:title="omc_CodegenCpp_lm__535">
<polygon fill="#ffffff" stroke="#000000" points="345,-95.5 345,-114.5 485,-114.5 485,-95.5 345,-95.5"/>
<text text-anchor="middle" x="415" y="-102.5" font-family="Helvetica,sans-Serif" font-size="10.00" fill="#000000">omc_CodegenCpp_lm__535</text>
</a>
</g>
</g>
<!-- Node273950&#45;&gt;Node273952 -->
<g id="edge3" class="edge">
<title>Node273950&#45;&gt;Node273952</title>
<path fill="none" stroke="#191970" d="M319.3974,-105C327.8837,-105 336.5047,-105 344.9197,-105"/>
<polygon fill="#191970" stroke="#191970" points="319.1356,-101.5001 309.1356,-105 319.1355,-108.5001 319.1356,-101.5001"/>
</g>
<!-- Node273981 -->
<g id="node33" class="node">
<title>Node273981</title>
<g id="a_node33"><a xlink:href="../../d0/df9/_codegen_cpp_8c.html#a903417df3205ac0f305ffe0e9f7336af" target="_top" xlink:title="omc_CodegenCpp_lm__516">
<polygon fill="#ffffff" stroke="#000000" points="345,-51.5 345,-70.5 485,-70.5 485,-51.5 345,-51.5"/>
<text text-anchor="middle" x="415" y="-58.5" font-family="Helvetica,sans-Serif" font-size="10.00" fill="#000000">omc_CodegenCpp_lm__516</text>
</a>
</g>
</g>
<!-- Node273950&#45;&gt;Node273981 -->
<g id="edge34" class="edge">
<title>Node273950&#45;&gt;Node273981</title>
<path fill="none" stroke="#191970" d="M290.8763,-92.9383C318.3014,-85.8815 352.4389,-77.0976 377.968,-70.5287"/>
<polygon fill="#191970" stroke="#191970" points="289.9168,-89.5711 281.1045,-95.4527 291.6612,-96.3502 289.9168,-89.5711"/>
</g>
<!-- Node273953 -->
<g id="node5" class="node">
<title>Node273953</title>
<g id="a_node5"><a xlink:href="../../d6/d8e/_codegen_cpp_8h.html#aac3fe7aa6dce7675a08cda38a2ac675d" target="_top" xlink:title="omc_CodegenCpp_functionBody\lExternalFunction">
<polygon fill="#ffffff" stroke="#000000" points="521,-134 521,-164 681,-164 681,-134 521,-134"/>
<text text-anchor="start" x="529" y="-152" font-family="Helvetica,sans-Serif" font-size="10.00" fill="#000000">omc_CodegenCpp_functionBody</text>
<text text-anchor="middle" x="601" y="-141" font-family="Helvetica,sans-Serif" font-size="10.00" fill="#000000">ExternalFunction</text>
</a>
</g>
</g>
<!-- Node273952&#45;&gt;Node273953 -->
<g id="edge4" class="edge">
<title>Node273952&#45;&gt;Node273953</title>
<path fill="none" stroke="#191970" d="M465.2371,-116.884C487.4261,-122.1331 513.7669,-128.3642 537.3146,-133.9346"/>
<polygon fill="#191970" stroke="#191970" points="465.8964,-113.4435 455.3592,-114.5473 464.2849,-120.2555 465.8964,-113.4435"/>
</g>
<!-- Node273980 -->
<g id="node32" class="node">
<title>Node273980</title>
<g id="a_node32"><a xlink:href="../../d0/df9/_codegen_cpp_8c.html#a134d1c16012cc482e1c798b806bc944c" target="_top" xlink:title="boxptr_CodegenCpp_lm__535">
<polygon fill="#ffffff" stroke="#000000" points="527,-95.5 527,-114.5 675,-114.5 675,-95.5 527,-95.5"/>
<text text-anchor="middle" x="601" y="-102.5" font-family="Helvetica,sans-Serif" font-size="10.00" fill="#000000">boxptr_CodegenCpp_lm__535</text>
</a>
</g>
</g>
<!-- Node273952&#45;&gt;Node273980 -->
<g id="edge33" class="edge">
<title>Node273952&#45;&gt;Node273980</title>
<path fill="none" stroke="#191970" d="M495.111,-105C505.6927,-105 516.5015,-105 526.9748,-105"/>
<polygon fill="#191970" stroke="#191970" points="495.0536,-101.5001 485.0536,-105 495.0536,-108.5001 495.0536,-101.5001"/>
</g>
<!-- Node273954 -->
<g id="node6" class="node">
<title>Node273954</title>
<g id="a_node6"><a xlink:href="../../d6/d8e/_codegen_cpp_8h.html#a0bb76a6aa1df0586bfe897ed1d7a78c3" target="_top" xlink:title="boxptr_CodegenCpp_function\lBodyExternalFunction">
<polygon fill="#ffffff" stroke="#000000" points="717,-178 717,-208 863,-208 863,-178 717,-178"/>
<text text-anchor="start" x="725" y="-196" font-family="Helvetica,sans-Serif" font-size="10.00" fill="#000000">boxptr_CodegenCpp_function</text>
<text text-anchor="middle" x="790" y="-185" font-family="Helvetica,sans-Serif" font-size="10.00" fill="#000000">BodyExternalFunction</text>
</a>
</g>
</g>
<!-- Node273953&#45;&gt;Node273954 -->
<g id="edge5" class="edge">
<title>Node273953&#45;&gt;Node273954</title>
<path fill="none" stroke="#191970" d="M675.6416,-166.3769C692.112,-170.2112 709.4251,-174.2418 725.4556,-177.9738"/>
<polygon fill="#191970" stroke="#191970" points="676.0476,-162.8779 665.5145,-164.0192 674.4604,-169.6956 676.0476,-162.8779"/>
</g>
<!-- Node273955 -->
<g id="node7" class="node">
<title>Node273955</title>
<g id="a_node7"><a xlink:href="../../d0/df9/_codegen_cpp_8c.html#a31fb4d339f4438eacc3f1baec1664194" target="_top" xlink:title="omc_CodegenCpp_fun__424">
<polygon fill="#ffffff" stroke="#000000" points="718.5,-139.5 718.5,-158.5 861.5,-158.5 861.5,-139.5 718.5,-139.5"/>
<text text-anchor="middle" x="790" y="-146.5" font-family="Helvetica,sans-Serif" font-size="10.00" fill="#000000">omc_CodegenCpp_fun__424</text>
</a>
</g>
</g>
<!-- Node273953&#45;&gt;Node273955 -->
<g id="edge6" class="edge">
<title>Node273953&#45;&gt;Node273955</title>
<path fill="none" stroke="#191970" d="M691.3618,-149C700.4389,-149 709.5671,-149 718.4104,-149"/>
<polygon fill="#191970" stroke="#191970" points="691.153,-145.5001 681.153,-149 691.153,-152.5001 691.153,-145.5001"/>
</g>
<!-- Node273972 -->
<g id="node24" class="node">
<title>Node273972</title>
<g id="a_node24"><a xlink:href="../../d0/df9/_codegen_cpp_8c.html#aef7a77865521c06aa215a2845cf659ff" target="_top" xlink:title="omc_CodegenCpp_fun__422">
<polygon fill="#ffffff" stroke="#000000" points="718.5,-95.5 718.5,-114.5 861.5,-114.5 861.5,-95.5 718.5,-95.5"/>
<text text-anchor="middle" x="790" y="-102.5" font-family="Helvetica,sans-Serif" font-size="10.00" fill="#000000">omc_CodegenCpp_fun__422</text>
</a>
</g>
</g>
<!-- Node273953&#45;&gt;Node273972 -->
<g id="edge23" class="edge">
<title>Node273953&#45;&gt;Node273972</title>
<path fill="none" stroke="#191970" d="M675.3919,-131.6813C700.5032,-125.8352 727.6008,-119.5268 749.1398,-114.5124"/>
<polygon fill="#191970" stroke="#191970" points="674.4604,-128.3044 665.5145,-133.9808 676.0476,-135.1221 674.4604,-128.3044"/>
</g>
<!-- Node273976 -->
<g id="node28" class="node">
<title>Node273976</title>
<g id="a_node28"><a xlink:href="../../d0/df9/_codegen_cpp_8c.html#a17a19e1be43ffa2fe67d308d2e040e9d" target="_top" xlink:title="omc_CodegenCpp_fun__420">
<polygon fill="#ffffff" stroke="#000000" points="718.5,-51.5 718.5,-70.5 861.5,-70.5 861.5,-51.5 718.5,-51.5"/>
<text text-anchor="middle" x="790" y="-58.5" font-family="Helvetica,sans-Serif" font-size="10.00" fill="#000000">omc_CodegenCpp_fun__420</text>
</a>
</g>
</g>
<!-- Node273953&#45;&gt;Node273976 -->
<g id="edge28" class="edge">
<title>Node273953&#45;&gt;Node273976</title>
<path fill="none" stroke="#191970" d="M670.3768,-129.8342C674.0564,-128.0466 677.6239,-126.1056 681,-124 700.7399,-111.6886 697.4285,-98.5774 717,-86 727.2554,-79.4095 739.444,-74.3454 750.8956,-70.5554"/>
<polygon fill="#191970" stroke="#191970" points="668.7703,-126.7177 661.0446,-133.9678 671.6053,-133.1179 668.7703,-126.7177"/>
</g>
<!-- Node273956 -->
<g id="node8" class="node">
<title>Node273956</title>
<g id="a_node8"><a xlink:href="../../d0/df9/_codegen_cpp_8c.html#a0293d1fb74dc891241eba4d1c3ee8f58" target="_top" xlink:title="omc_CodegenCpp_fun__425">
<polygon fill="#ffffff" stroke="#000000" points="903,-190.5 903,-209.5 1046,-209.5 1046,-190.5 903,-190.5"/>
<text text-anchor="middle" x="974.5" y="-197.5" font-family="Helvetica,sans-Serif" font-size="10.00" fill="#000000">omc_CodegenCpp_fun__425</text>
</a>
</g>
</g>
<!-- Node273955&#45;&gt;Node273956 -->
<g id="edge7" class="edge">
<title>Node273955&#45;&gt;Node273956</title>
<path fill="none" stroke="#191970" d="M836.3342,-161.2866C845.2105,-163.7555 854.4119,-166.3943 863,-169 879.139,-173.8967 882.8108,-176.272 899,-181 910.4174,-184.3344 922.9068,-187.6215 934.3819,-190.4999"/>
<polygon fill="#191970" stroke="#191970" points="837.0709,-157.8593 826.5008,-158.5822 835.2146,-164.6087 837.0709,-157.8593"/>
</g>
<!-- Node273971 -->
<g id="node23" class="node">
<title>Node273971</title>
<g id="a_node23"><a xlink:href="../../d0/df9/_codegen_cpp_8c.html#ad0bc76f0fa9efab2dc139ec646371f10" target="_top" xlink:title="boxptr_CodegenCpp_fun__424">
<polygon fill="#ffffff" stroke="#000000" points="899,-152.5 899,-171.5 1050,-171.5 1050,-152.5 899,-152.5"/>
<text text-anchor="middle" x="974.5" y="-159.5" font-family="Helvetica,sans-Serif" font-size="10.00" fill="#000000">boxptr_CodegenCpp_fun__424</text>
</a>
</g>
</g>
<!-- Node273955&#45;&gt;Node273971 -->
<g id="edge22" class="edge">
<title>Node273955&#45;&gt;Node273971</title>
<path fill="none" stroke="#191970" d="M871.7467,-154.7599C880.8051,-155.3982 890.0003,-156.0461 898.977,-156.6786"/>
<polygon fill="#191970" stroke="#191970" points="871.8179,-151.2564 861.5966,-154.0447 871.3258,-158.239 871.8179,-151.2564"/>
</g>
<!-- Node273957 -->
<g id="node9" class="node">
<title>Node273957</title>
<g id="a_node9"><a xlink:href="../../d6/d8e/_codegen_cpp_8h.html#aa7bf4b3d5f5ba849bd224221f6915dba" target="_top" xlink:title="omc_CodegenCpp_functionBody">
<polygon fill="#ffffff" stroke="#000000" points="1086,-95.5 1086,-114.5 1246,-114.5 1246,-95.5 1086,-95.5"/>
<text text-anchor="middle" x="1166" y="-102.5" font-family="Helvetica,sans-Serif" font-size="10.00" fill="#000000">omc_CodegenCpp_functionBody</text>
</a>
</g>
</g>
<!-- Node273956&#45;&gt;Node273957 -->
<g id="edge8" class="edge">
<title>Node273956&#45;&gt;Node273957</title>
<path fill="none" stroke="#191970" d="M1041.4791,-186.2553C1044.4586,-184.688 1047.3184,-182.9429 1050,-181 1074.2636,-163.42 1061.6196,-141.4176 1086,-124 1091.4593,-120.0998 1097.6106,-116.9913 1104.0157,-114.5153"/>
<polygon fill="#191970" stroke="#191970" points="1039.9033,-183.1268 1032.2409,-190.4438 1042.7939,-189.5021 1039.9033,-183.1268"/>
</g>
<!-- Node273970 -->
<g id="node22" class="node">
<title>Node273970</title>
<g id="a_node22"><a xlink:href="../../d0/df9/_codegen_cpp_8c.html#af6c3a8422d145463e9e91fd9e55d32f5" target="_top" xlink:title="boxptr_CodegenCpp_fun__425">
<polygon fill="#ffffff" stroke="#000000" points="1090.5,-190.5 1090.5,-209.5 1241.5,-209.5 1241.5,-190.5 1090.5,-190.5"/>
<text text-anchor="middle" x="1166" y="-197.5" font-family="Helvetica,sans-Serif" font-size="10.00" fill="#000000">boxptr_CodegenCpp_fun__425</text>
</a>
</g>
</g>
<!-- Node273956&#45;&gt;Node273970 -->
<g id="edge21" class="edge">
<title>Node273956&#45;&gt;Node273970</title>
<path fill="none" stroke="#191970" d="M1056.3496,-200C1067.633,-200 1079.1794,-200 1090.3442,-200"/>
<polygon fill="#191970" stroke="#191970" points="1056.0799,-196.5001 1046.0799,-200 1056.0798,-203.5001 1056.0799,-196.5001"/>
</g>
<!-- Node273958 -->
<g id="node10" class="node">
<title>Node273958</title>
<g id="a_node10"><a xlink:href="../../d6/d8e/_codegen_cpp_8h.html#ac35e9943eb22b27f2e8cea56c55500fc" target="_top" xlink:title="boxptr_CodegenCpp_functionBody">
<polygon fill="#ffffff" stroke="#000000" points="1282,-114.5 1282,-133.5 1450,-133.5 1450,-114.5 1282,-114.5"/>
<text text-anchor="middle" x="1366" y="-121.5" font-family="Helvetica,sans-Serif" font-size="10.00" fill="#000000">boxptr_CodegenCpp_functionBody</text>
</a>
</g>
</g>
<!-- Node273957&#45;&gt;Node273958 -->
<g id="edge9" class="edge">
<title>Node273957&#45;&gt;Node273958</title>
<path fill="none" stroke="#191970" d="M1256.1731,-113.5664C1264.7235,-114.3787 1273.3706,-115.2002 1281.8612,-116.0068"/>
<polygon fill="#191970" stroke="#191970" points="1256.4815,-110.0801 1246.1953,-112.6185 1255.8194,-117.0487 1256.4815,-110.0801"/>
</g>
<!-- Node273959 -->
<g id="node11" class="node">
<title>Node273959</title>
<g id="a_node11"><a xlink:href="../../d0/df9/_codegen_cpp_8c.html#af696da50043abe3a6b07181990019978" target="_top" xlink:title="omc_CodegenCpp_lm__418">
<polygon fill="#ffffff" stroke="#000000" points="1296,-76.5 1296,-95.5 1436,-95.5 1436,-76.5 1296,-76.5"/>
<text text-anchor="middle" x="1366" y="-83.5" font-family="Helvetica,sans-Serif" font-size="10.00" fill="#000000">omc_CodegenCpp_lm__418</text>
</a>
</g>
</g>
<!-- Node273957&#45;&gt;Node273959 -->
<g id="edge10" class="edge">
<title>Node273957&#45;&gt;Node273959</title>
<path fill="none" stroke="#191970" d="M1256.2712,-96.4242C1269.5265,-95.165 1283.0119,-93.8839 1295.7841,-92.6705"/>
<polygon fill="#191970" stroke="#191970" points="1255.8194,-92.9513 1246.1953,-97.3815 1256.4815,-99.9199 1255.8194,-92.9513"/>
</g>
<!-- Node273960 -->
<g id="node12" class="node">
<title>Node273960</title>
<g id="a_node12"><a xlink:href="../../d6/d8e/_codegen_cpp_8h.html#a453993f6b22016c0d68c5818de56029e" target="_top" xlink:title="omc_CodegenCpp_functionBodies">
<polygon fill="#ffffff" stroke="#000000" points="1486,-95.5 1486,-114.5 1653,-114.5 1653,-95.5 1486,-95.5"/>
<text text-anchor="middle" x="1569.5" y="-102.5" font-family="Helvetica,sans-Serif" font-size="10.00" fill="#000000">omc_CodegenCpp_functionBodies</text>
</a>
</g>
</g>
<!-- Node273959&#45;&gt;Node273960 -->
<g id="edge11" class="edge">
<title>Node273959&#45;&gt;Node273960</title>
<path fill="none" stroke="#191970" d="M1446.284,-93.4958C1459.2166,-94.7033 1472.634,-95.956 1485.648,-97.1711"/>
<polygon fill="#191970" stroke="#191970" points="1446.3153,-89.9836 1436.0332,-92.5387 1445.6645,-96.9533 1446.3153,-89.9836"/>
</g>
<!-- Node273969 -->
<g id="node21" class="node">
<title>Node273969</title>
<g id="a_node21"><a xlink:href="../../d0/df9/_codegen_cpp_8c.html#aabb49f0552d625aaa8ad7f44b71c294f" target="_top" xlink:title="boxptr_CodegenCpp_lm__418">
<polygon fill="#ffffff" stroke="#000000" points="1495.5,-57.5 1495.5,-76.5 1643.5,-76.5 1643.5,-57.5 1495.5,-57.5"/>
<text text-anchor="middle" x="1569.5" y="-64.5" font-family="Helvetica,sans-Serif" font-size="10.00" fill="#000000">boxptr_CodegenCpp_lm__418</text>
</a>
</g>
</g>
<!-- Node273959&#45;&gt;Node273969 -->
<g id="edge20" class="edge">
<title>Node273959&#45;&gt;Node273969</title>
<path fill="none" stroke="#191970" d="M1446.0049,-78.5303C1462.2055,-77.0177 1479.1775,-75.4331 1495.1725,-73.9397"/>
<polygon fill="#191970" stroke="#191970" points="1445.6645,-75.0467 1436.0332,-79.4613 1446.3153,-82.0164 1445.6645,-75.0467"/>
</g>
<!-- Node273961 -->
<g id="node13" class="node">
<title>Node273961</title>
<g id="a_node13"><a xlink:href="../../d6/d8e/_codegen_cpp_8h.html#ae9522ffb5140b3d3e1a9c4b35c59384b" target="_top" xlink:title="boxptr_CodegenCpp_function\lBodies">
<polygon fill="#ffffff" stroke="#000000" points="1689,-112 1689,-142 1835,-142 1835,-112 1689,-112"/>
<text text-anchor="start" x="1697" y="-130" font-family="Helvetica,sans-Serif" font-size="10.00" fill="#000000">boxptr_CodegenCpp_function</text>
<text text-anchor="middle" x="1762" y="-119" font-family="Helvetica,sans-Serif" font-size="10.00" fill="#000000">Bodies</text>
</a>
</g>
</g>
<!-- Node273960&#45;&gt;Node273961 -->
<g id="edge12" class="edge">
<title>Node273960&#45;&gt;Node273961</title>
<path fill="none" stroke="#191970" d="M1662.9782,-115.6832C1671.6631,-116.6758 1680.3781,-117.6718 1688.8401,-118.6389"/>
<polygon fill="#191970" stroke="#191970" points="1663.1465,-112.1798 1652.8137,-114.5216 1662.3516,-119.1345 1663.1465,-112.1798"/>
</g>
<!-- Node273962 -->
<g id="node14" class="node">
<title>Node273962</title>
<g id="a_node14"><a xlink:href="../../d0/df9/_codegen_cpp_8c.html#ade40310fbb44e7b57108ea3ff6d3b18a" target="_top" xlink:title="omc_CodegenCpp_fun__293">
<polygon fill="#ffffff" stroke="#000000" points="1690.5,-73.5 1690.5,-92.5 1833.5,-92.5 1833.5,-73.5 1690.5,-73.5"/>
<text text-anchor="middle" x="1762" y="-80.5" font-family="Helvetica,sans-Serif" font-size="10.00" fill="#000000">omc_CodegenCpp_fun__293</text>
</a>
</g>
</g>
<!-- Node273960&#45;&gt;Node273962 -->
<g id="edge13" class="edge">
<title>Node273960&#45;&gt;Node273962</title>
<path fill="none" stroke="#191970" d="M1662.8198,-94.3349C1672.0691,-93.2778 1681.3545,-92.2166 1690.334,-91.1904"/>
<polygon fill="#191970" stroke="#191970" points="1662.3516,-90.8655 1652.8137,-95.4784 1663.1465,-97.8202 1662.3516,-90.8655"/>
</g>
<!-- Node273963 -->
<g id="node15" class="node">
<title>Node273963</title>
<g id="a_node15"><a xlink:href="../../d6/d8e/_codegen_cpp_8h.html#a738440a8ed8356746070beb8add5c382" target="_top" xlink:title="omc_CodegenCpp_simulation\lFunctionsFile">
<polygon fill="#ffffff" stroke="#000000" points="1873,-90 1873,-120 2020,-120 2020,-90 1873,-90"/>
<text text-anchor="start" x="1881" y="-108" font-family="Helvetica,sans-Serif" font-size="10.00" fill="#000000">omc_CodegenCpp_simulation</text>
<text text-anchor="middle" x="1946.5" y="-97" font-family="Helvetica,sans-Serif" font-size="10.00" fill="#000000">FunctionsFile</text>
</a>
</g>
</g>
<!-- Node273962&#45;&gt;Node273963 -->
<g id="edge14" class="edge">
<title>Node273962&#45;&gt;Node273963</title>
<path fill="none" stroke="#191970" d="M1843.6404,-92.7349C1853.3513,-93.8928 1863.2211,-95.0697 1872.8117,-96.2133"/>
<polygon fill="#191970" stroke="#191970" points="1843.9407,-89.246 1833.5966,-91.5373 1843.1118,-96.1968 1843.9407,-89.246"/>
</g>
<!-- Node273968 -->
<g id="node20" class="node">
<title>Node273968</title>
<g id="a_node20"><a xlink:href="../../d0/df9/_codegen_cpp_8c.html#a61e793724169d4a8b59d5acb4e1a0e0d" target="_top" xlink:title="boxptr_CodegenCpp_fun__293">
<polygon fill="#ffffff" stroke="#000000" points="1871,-51.5 1871,-70.5 2022,-70.5 2022,-51.5 1871,-51.5"/>
<text text-anchor="middle" x="1946.5" y="-58.5" font-family="Helvetica,sans-Serif" font-size="10.00" fill="#000000">boxptr_CodegenCpp_fun__293</text>
</a>
</g>
</g>
<!-- Node273962&#45;&gt;Node273968 -->
<g id="edge19" class="edge">
<title>Node273962&#45;&gt;Node273968</title>
<path fill="none" stroke="#191970" d="M1843.7467,-73.2524C1852.8051,-72.1723 1862.0003,-71.0758 1870.977,-70.0055"/>
<polygon fill="#191970" stroke="#191970" points="1843.1118,-69.8032 1833.5966,-74.4627 1843.9407,-76.754 1843.1118,-69.8032"/>
</g>
<!-- Node273964 -->
<g id="node16" class="node">
<title>Node273964</title>
<g id="a_node16"><a xlink:href="../../d6/d8e/_codegen_cpp_8h.html#a0b991e24fb97a0c69f2d1576e0849305" target="_top" xlink:title="boxptr_CodegenCpp_simulation\lFunctionsFile">
<polygon fill="#ffffff" stroke="#000000" points="2058,-112 2058,-142 2213,-142 2213,-112 2058,-112"/>
<text text-anchor="start" x="2066" y="-130" font-family="Helvetica,sans-Serif" font-size="10.00" fill="#000000">boxptr_CodegenCpp_simulation</text>
<text text-anchor="middle" x="2135.5" y="-119" font-family="Helvetica,sans-Serif" font-size="10.00" fill="#000000">FunctionsFile</text>
</a>
</g>
</g>
<!-- Node273963&#45;&gt;Node273964 -->
<g id="edge15" class="edge">
<title>Node273963&#45;&gt;Node273964</title>
<path fill="none" stroke="#191970" d="M2030.3251,-114.7574C2039.4364,-115.818 2048.6818,-116.8942 2057.7166,-117.9458"/>
<polygon fill="#191970" stroke="#191970" points="2030.4512,-111.2485 2020.1135,-113.5688 2029.6418,-118.2016 2030.4512,-111.2485"/>
</g>
<!-- Node273965 -->
<g id="node17" class="node">
<title>Node273965</title>
<g id="a_node17"><a xlink:href="../../d0/df9/_codegen_cpp_8c.html#aa7c7709a5cda769632291bb6f29d8b29" target="_top" xlink:title="omc_CodegenCpp_fun__46">
<polygon fill="#ffffff" stroke="#000000" points="2067,-73.5 2067,-92.5 2204,-92.5 2204,-73.5 2067,-73.5"/>
<text text-anchor="middle" x="2135.5" y="-80.5" font-family="Helvetica,sans-Serif" font-size="10.00" fill="#000000">omc_CodegenCpp_fun__46</text>
</a>
</g>
</g>
<!-- Node273963&#45;&gt;Node273965 -->
<g id="edge16" class="edge">
<title>Node273963&#45;&gt;Node273965</title>
<path fill="none" stroke="#191970" d="M2030.2732,-95.2486C2042.4572,-93.8304 2054.8821,-92.3841 2066.7237,-91.0057"/>
<polygon fill="#191970" stroke="#191970" points="2029.6418,-91.7984 2020.1135,-96.4312 2030.4512,-98.7515 2029.6418,-91.7984"/>
</g>
<!-- Node273966 -->
<g id="node18" class="node">
<title>Node273966</title>
<g id="a_node18"><a xlink:href="../../d6/d8e/_codegen_cpp_8h.html#a54676ae5ee46975a3ec1566a9856625c" target="_top" xlink:title="omc_CodegenCpp_translate\lModel">
<polygon fill="#ffffff" stroke="#000000" points="2249,-68 2249,-98 2389,-98 2389,-68 2249,-68"/>
<text text-anchor="start" x="2257" y="-86" font-family="Helvetica,sans-Serif" font-size="10.00" fill="#000000">omc_CodegenCpp_translate</text>
<text text-anchor="middle" x="2319" y="-75" font-family="Helvetica,sans-Serif" font-size="10.00" fill="#000000">Model</text>
</a>
</g>
</g>
<!-- Node273965&#45;&gt;Node273966 -->
<g id="edge17" class="edge">
<title>Node273965&#45;&gt;Node273966</title>
<path fill="none" stroke="#191970" d="M2214.164,-83C2225.7326,-83 2237.5846,-83 2248.9639,-83"/>
<polygon fill="#191970" stroke="#191970" points="2214.0896,-79.5001 2204.0896,-83 2214.0895,-86.5001 2214.0896,-79.5001"/>
</g>
<!-- Node273967 -->
<g id="node19" class="node">
<title>Node273967</title>
<g id="a_node19"><a xlink:href="../../d5/d4c/_codegen_f_m_u_cpp_8h.html#a1fc774045fbfd7b6dc9872f8b61ccdad" target="_top" xlink:title="omc_CodegenFMUCpp_translate\lModel">
<polygon fill="#ffffff" stroke="#000000" points="2425,-68 2425,-98 2587,-98 2587,-68 2425,-68"/>
<text text-anchor="start" x="2433" y="-86" font-family="Helvetica,sans-Serif" font-size="10.00" fill="#000000">omc_CodegenFMUCpp_translate</text>
<text text-anchor="middle" x="2506" y="-75" font-family="Helvetica,sans-Serif" font-size="10.00" fill="#000000">Model</text>
</a>
</g>
</g>
<!-- Node273966&#45;&gt;Node273967 -->
<g id="edge18" class="edge">
<title>Node273966&#45;&gt;Node273967</title>
<path fill="none" stroke="#191970" d="M2399.3393,-83C2407.7557,-83 2416.3173,-83 2424.744,-83"/>
<polygon fill="#191970" stroke="#191970" points="2399.164,-79.5001 2389.1639,-83 2399.1639,-86.5001 2399.164,-79.5001"/>
</g>
<!-- Node273973 -->
<g id="node25" class="node">
<title>Node273973</title>
<g id="a_node25"><a xlink:href="../../d0/df9/_codegen_cpp_8c.html#afcd6a7bf3b089a60e7ae971751fff17b" target="_top" xlink:title="omc_CodegenCpp_fun__423">
<polygon fill="#ffffff" stroke="#000000" points="903,-114.5 903,-133.5 1046,-133.5 1046,-114.5 903,-114.5"/>
<text text-anchor="middle" x="974.5" y="-121.5" font-family="Helvetica,sans-Serif" font-size="10.00" fill="#000000">omc_CodegenCpp_fun__423</text>
</a>
</g>
</g>
<!-- Node273972&#45;&gt;Node273973 -->
<g id="edge24" class="edge">
<title>Node273972&#45;&gt;Node273973</title>
<path fill="none" stroke="#191970" d="M871.5511,-113.3982C882.0119,-114.4755 892.6587,-115.5719 902.9437,-116.6311"/>
<polygon fill="#191970" stroke="#191970" points="871.9026,-109.916 861.5966,-112.3731 871.1854,-116.8792 871.9026,-109.916"/>
</g>
<!-- Node273975 -->
<g id="node27" class="node">
<title>Node273975</title>
<g id="a_node27"><a xlink:href="../../d0/df9/_codegen_cpp_8c.html#af950c283c9e6b56456d1e8774ccce8be" target="_top" xlink:title="boxptr_CodegenCpp_fun__422">
<polygon fill="#ffffff" stroke="#000000" points="899,-76.5 899,-95.5 1050,-95.5 1050,-76.5 899,-76.5"/>
<text text-anchor="middle" x="974.5" y="-83.5" font-family="Helvetica,sans-Serif" font-size="10.00" fill="#000000">boxptr_CodegenCpp_fun__422</text>
</a>
</g>
</g>
<!-- Node273972&#45;&gt;Node273975 -->
<g id="edge27" class="edge">
<title>Node273972&#45;&gt;Node273975</title>
<path fill="none" stroke="#191970" d="M871.7467,-96.5816C880.8051,-95.6488 890.0003,-94.7019 898.977,-93.7774"/>
<polygon fill="#191970" stroke="#191970" points="871.1854,-93.1208 861.5966,-97.6269 871.9025,-100.084 871.1854,-93.1208"/>
</g>
<!-- Node273973&#45;&gt;Node273957 -->
<g id="edge25" class="edge">
<title>Node273973&#45;&gt;Node273957</title>
<path fill="none" stroke="#191970" d="M1056.2125,-115.8928C1066.0226,-114.9194 1076.0337,-113.9262 1085.8216,-112.955"/>
<polygon fill="#191970" stroke="#191970" points="1055.6854,-112.4278 1046.0799,-116.8981 1056.3766,-119.3936 1055.6854,-112.4278"/>
</g>
<!-- Node273974 -->
<g id="node26" class="node">
<title>Node273974</title>
<g id="a_node26"><a xlink:href="../../d0/df9/_codegen_cpp_8c.html#a96a234fdc78aaa0ae05ba779f4a74990" target="_top" xlink:title="boxptr_CodegenCpp_fun__423">
<polygon fill="#ffffff" stroke="#000000" points="1090.5,-133.5 1090.5,-152.5 1241.5,-152.5 1241.5,-133.5 1090.5,-133.5"/>
<text text-anchor="middle" x="1166" y="-140.5" font-family="Helvetica,sans-Serif" font-size="10.00" fill="#000000">boxptr_CodegenCpp_fun__423</text>
</a>
</g>
</g>
<!-- Node273973&#45;&gt;Node273974 -->
<g id="edge26" class="edge">
<title>Node273973&#45;&gt;Node273974</title>
<path fill="none" stroke="#191970" d="M1056.3496,-132.1209C1067.633,-133.2403 1079.1794,-134.3859 1090.3442,-135.4937"/>
<polygon fill="#191970" stroke="#191970" points="1056.3766,-128.6064 1046.0799,-131.1019 1055.6854,-135.5722 1056.3766,-128.6064"/>
</g>
<!-- Node273977 -->
<g id="node29" class="node">
<title>Node273977</title>
<g id="a_node29"><a xlink:href="../../d0/df9/_codegen_cpp_8c.html#ace5497637dd01f1cd1a1d6711066d25e" target="_top" xlink:title="omc_CodegenCpp_fun__421">
<polygon fill="#ffffff" stroke="#000000" points="903,-38.5 903,-57.5 1046,-57.5 1046,-38.5 903,-38.5"/>
<text text-anchor="middle" x="974.5" y="-45.5" font-family="Helvetica,sans-Serif" font-size="10.00" fill="#000000">omc_CodegenCpp_fun__421</text>
</a>
</g>
</g>
<!-- Node273976&#45;&gt;Node273977 -->
<g id="edge29" class="edge">
<title>Node273976&#45;&gt;Node273977</title>
<path fill="none" stroke="#191970" d="M871.8747,-55.2311C882.2314,-54.5013 892.7647,-53.7591 902.9437,-53.0419"/>
<polygon fill="#191970" stroke="#191970" points="871.3258,-51.761 861.5966,-55.9553 871.8179,-58.7436 871.3258,-51.761"/>
</g>
<!-- Node273979 -->
<g id="node31" class="node">
<title>Node273979</title>
<g id="a_node31"><a xlink:href="../../d0/df9/_codegen_cpp_8c.html#aaa663cfa9ae51d0976d26bc30c020c0e" target="_top" xlink:title="boxptr_CodegenCpp_fun__420">
<polygon fill="#ffffff" stroke="#000000" points="899,-.5 899,-19.5 1050,-19.5 1050,-.5 899,-.5"/>
<text text-anchor="middle" x="974.5" y="-7.5" font-family="Helvetica,sans-Serif" font-size="10.00" fill="#000000">boxptr_CodegenCpp_fun__420</text>
</a>
</g>
</g>
<!-- Node273976&#45;&gt;Node273979 -->
<g id="edge32" class="edge">
<title>Node273976&#45;&gt;Node273979</title>
<path fill="none" stroke="#191970" d="M836.3342,-48.7134C845.2105,-46.2445 854.4119,-43.6057 863,-41 879.139,-36.1033 882.8108,-33.728 899,-29 910.4174,-25.6656 922.9068,-22.3785 934.3819,-19.5001"/>
<polygon fill="#191970" stroke="#191970" points="835.2146,-45.3913 826.5008,-51.4178 837.0709,-52.1407 835.2146,-45.3913"/>
</g>
<!-- Node273977&#45;&gt;Node273957 -->
<g id="edge30" class="edge">
<title>Node273977&#45;&gt;Node273957</title>
<path fill="none" stroke="#191970" d="M1024.484,-60.0539C1033.0244,-62.2632 1041.7875,-64.6247 1050,-67 1080.5363,-75.8322 1115.1133,-87.3604 1138.512,-95.393"/>
<polygon fill="#191970" stroke="#191970" points="1025.1615,-56.6147 1014.607,-57.5384 1023.4338,-63.3982 1025.1615,-56.6147"/>
</g>
<!-- Node273978 -->
<g id="node30" class="node">
<title>Node273978</title>
<g id="a_node30"><a xlink:href="../../d0/df9/_codegen_cpp_8c.html#a45a81dbd4623210f2b459e30f8ef578d" target="_top" xlink:title="boxptr_CodegenCpp_fun__421">
<polygon fill="#ffffff" stroke="#000000" points="1090.5,-38.5 1090.5,-57.5 1241.5,-57.5 1241.5,-38.5 1090.5,-38.5"/>
<text text-anchor="middle" x="1166" y="-45.5" font-family="Helvetica,sans-Serif" font-size="10.00" fill="#000000">boxptr_CodegenCpp_fun__421</text>
</a>
</g>
</g>
<!-- Node273977&#45;&gt;Node273978 -->
<g id="edge31" class="edge">
<title>Node273977&#45;&gt;Node273978</title>
<path fill="none" stroke="#191970" d="M1056.3496,-48C1067.633,-48 1079.1794,-48 1090.3442,-48"/>
<polygon fill="#191970" stroke="#191970" points="1056.0799,-44.5001 1046.0799,-48 1056.0798,-51.5001 1056.0799,-44.5001"/>
</g>
<!-- Node273982 -->
<g id="node34" class="node">
<title>Node273982</title>
<g id="a_node34"><a xlink:href="../../d6/d8e/_codegen_cpp_8h.html#a79505691c00a3dab0449d03c95e2c6cb" target="_top" xlink:title="omc_CodegenCpp_functionBody\lRegularFunction">
<polygon fill="#ffffff" stroke="#000000" points="521,-46 521,-76 681,-76 681,-46 521,-46"/>
<text text-anchor="start" x="529" y="-64" font-family="Helvetica,sans-Serif" font-size="10.00" fill="#000000">omc_CodegenCpp_functionBody</text>
<text text-anchor="middle" x="601" y="-53" font-family="Helvetica,sans-Serif" font-size="10.00" fill="#000000">RegularFunction</text>
</a>
</g>
</g>
<!-- Node273981&#45;&gt;Node273982 -->
<g id="edge35" class="edge">
<title>Node273981&#45;&gt;Node273982</title>
<path fill="none" stroke="#191970" d="M495.2538,-61C503.6897,-61 512.2683,-61 520.7048,-61"/>
<polygon fill="#191970" stroke="#191970" points="495.0536,-57.5001 485.0536,-61 495.0536,-64.5001 495.0536,-57.5001"/>
</g>
<!-- Node273984 -->
<g id="node36" class="node">
<title>Node273984</title>
<g id="a_node36"><a xlink:href="../../d0/df9/_codegen_cpp_8c.html#a3e7620b267eb81b5e195ddd69362acc9" target="_top" xlink:title="boxptr_CodegenCpp_lm__516">
<polygon fill="#ffffff" stroke="#000000" points="527,-7.5 527,-26.5 675,-26.5 675,-7.5 527,-7.5"/>
<text text-anchor="middle" x="601" y="-14.5" font-family="Helvetica,sans-Serif" font-size="10.00" fill="#000000">boxptr_CodegenCpp_lm__516</text>
</a>
</g>
</g>
<!-- Node273981&#45;&gt;Node273984 -->
<g id="edge40" class="edge">
<title>Node273981&#45;&gt;Node273984</title>
<path fill="none" stroke="#191970" d="M465.205,-49.1236C495.1669,-42.0358 532.7075,-33.1552 560.7195,-26.5287"/>
<polygon fill="#191970" stroke="#191970" points="464.2849,-45.7445 455.3592,-51.4527 465.8964,-52.5565 464.2849,-45.7445"/>
</g>
<!-- Node273982&#45;&gt;Node273955 -->
<g id="edge37" class="edge">
<title>Node273982&#45;&gt;Node273955</title>
<path fill="none" stroke="#191970" d="M670.3768,-80.1658C674.0564,-81.9534 677.6239,-83.8944 681,-86 700.7399,-98.3114 697.4285,-111.4226 717,-124 727.2554,-130.5905 739.444,-135.6546 750.8956,-139.4446"/>
<polygon fill="#191970" stroke="#191970" points="671.6053,-76.8821 661.0446,-76.0322 668.7703,-83.2823 671.6053,-76.8821"/>
</g>
<!-- Node273982&#45;&gt;Node273972 -->
<g id="edge38" class="edge">
<title>Node273982&#45;&gt;Node273972</title>
<path fill="none" stroke="#191970" d="M675.3919,-78.3187C700.5032,-84.1648 727.6008,-90.4732 749.1398,-95.4876"/>
<polygon fill="#191970" stroke="#191970" points="676.0476,-74.8779 665.5145,-76.0192 674.4604,-81.6956 676.0476,-74.8779"/>
</g>
<!-- Node273982&#45;&gt;Node273976 -->
<g id="edge39" class="edge">
<title>Node273982&#45;&gt;Node273976</title>
<path fill="none" stroke="#191970" d="M691.3618,-61C700.4389,-61 709.5671,-61 718.4104,-61"/>
<polygon fill="#191970" stroke="#191970" points="691.153,-57.5001 681.153,-61 691.153,-64.5001 691.153,-57.5001"/>
</g>
<!-- Node273983 -->
<g id="node35" class="node">
<title>Node273983</title>
<g id="a_node35"><a xlink:href="../../d6/d8e/_codegen_cpp_8h.html#a7215af824d79e67d2f4c7ee54319716b" target="_top" xlink:title="boxptr_CodegenCpp_function\lBodyRegularFunction">
<polygon fill="#ffffff" stroke="#000000" points="717,-2 717,-32 863,-32 863,-2 717,-2"/>
<text text-anchor="start" x="725" y="-20" font-family="Helvetica,sans-Serif" font-size="10.00" fill="#000000">boxptr_CodegenCpp_function</text>
<text text-anchor="middle" x="790" y="-9" font-family="Helvetica,sans-Serif" font-size="10.00" fill="#000000">BodyRegularFunction</text>
</a>
</g>
</g>
<!-- Node273982&#45;&gt;Node273983 -->
<g id="edge36" class="edge">
<title>Node273982&#45;&gt;Node273983</title>
<path fill="none" stroke="#191970" d="M675.6416,-43.6231C692.112,-39.7888 709.4251,-35.7582 725.4556,-32.0262"/>
<polygon fill="#191970" stroke="#191970" points="674.4604,-40.3044 665.5145,-45.9808 676.0476,-47.1221 674.4604,-40.3044"/>
</g>
</g>
</svg>
