<?xml version="1.0" encoding="UTF-8" standalone="no"?>
<!DOCTYPE svg PUBLIC "-//W3C//DTD SVG 1.1//EN"
 "http://www.w3.org/Graphics/SVG/1.1/DTD/svg11.dtd">
<!-- Generated by graphviz version 2.40.1 (20161225.0304)
 -->
<!-- Title: omc_CodegenCpp_lm__1248 Pages: 1 -->
<svg width="2087pt" height="113pt"
 viewBox="0.00 0.00 2087.00 113.00" xmlns="http://www.w3.org/2000/svg" xmlns:xlink="http://www.w3.org/1999/xlink">
<g id="graph0" class="graph" transform="scale(1 1) rotate(0) translate(4 109)">
<title>omc_CodegenCpp_lm__1248</title>
<polygon fill="#ffffff" stroke="transparent" points="-4,4 -4,-109 2083,-109 2083,4 -4,4"/>
<!-- Node325435 -->
<g id="node1" class="node">
<title>Node325435</title>
<polygon fill="#bfbfbf" stroke="#000000" points="0,-30 0,-49 145,-49 145,-30 0,-30"/>
<text text-anchor="middle" x="72.5" y="-37" font-family="Helvetica,sans-Serif" font-size="10.00" fill="#000000">omc_CodegenCpp_lm__1248</text>
</g>
<!-- Node325436 -->
<g id="node2" class="node">
<title>Node325436</title>
<g id="a_node2"><a xlink:href="../../d0/df9/_codegen_cpp_8c.html#a813bdc6f4892d3e94496bdf537e3cfa8" target="_top" xlink:title="omc_CodegenCpp_lm__1249">
<polygon fill="#ffffff" stroke="#000000" points="181,-30 181,-49 326,-49 326,-30 181,-30"/>
<text text-anchor="middle" x="253.5" y="-37" font-family="Helvetica,sans-Serif" font-size="10.00" fill="#000000">omc_CodegenCpp_lm__1249</text>
</a>
</g>
</g>
<!-- Node325435&#45;&gt;Node325436 -->
<g id="edge1" class="edge">
<title>Node325435&#45;&gt;Node325436</title>
<path fill="none" stroke="#191970" d="M155.1164,-39.5C163.7223,-39.5 172.424,-39.5 180.907,-39.5"/>
<polygon fill="#191970" stroke="#191970" points="155.0767,-36.0001 145.0767,-39.5 155.0767,-43.0001 155.0767,-36.0001"/>
</g>
<!-- Node325437 -->
<g id="node3" class="node">
<title>Node325437</title>
<g id="a_node3"><a xlink:href="../../d6/d8e/_codegen_cpp_8h.html#a6b438954984a9c005a893cac2fb5c643" target="_top" xlink:title="omc_CodegenCpp_generateAlgloopsolver\lVariables2">
<polygon fill="#ffffff" stroke="#000000" points="362,-24.5 362,-54.5 561,-54.5 561,-24.5 362,-24.5"/>
<text text-anchor="start" x="370" y="-42.5" font-family="Helvetica,sans-Serif" font-size="10.00" fill="#000000">omc_CodegenCpp_generateAlgloopsolver</text>
<text text-anchor="middle" x="461.5" y="-31.5" font-family="Helvetica,sans-Serif" font-size="10.00" fill="#000000">Variables2</text>
</a>
</g>
</g>
<!-- Node325436&#45;&gt;Node325437 -->
<g id="edge2" class="edge">
<title>Node325436&#45;&gt;Node325437</title>
<path fill="none" stroke="#191970" d="M336.3294,-39.5C344.684,-39.5 353.2289,-39.5 361.736,-39.5"/>
<polygon fill="#191970" stroke="#191970" points="336.2483,-36.0001 326.2483,-39.5 336.2483,-43.0001 336.2483,-36.0001"/>
</g>
<!-- Node325438 -->
<g id="node4" class="node">
<title>Node325438</title>
<g id="a_node4"><a xlink:href="../../d0/df9/_codegen_cpp_8c.html#a9ebd2ffd8dd206964ad9cefd3f7655ea" target="_top" xlink:title="omc_CodegenCpp_fun\l__1246">
<polygon fill="#ffffff" stroke="#000000" points="597,-24.5 597,-54.5 713,-54.5 713,-24.5 597,-24.5"/>
<text text-anchor="start" x="605" y="-42.5" font-family="Helvetica,sans-Serif" font-size="10.00" fill="#000000">omc_CodegenCpp_fun</text>
<text text-anchor="middle" x="655" y="-31.5" font-family="Helvetica,sans-Serif" font-size="10.00" fill="#000000">__1246</text>
</a>
</g>
</g>
<!-- Node325437&#45;&gt;Node325438 -->
<g id="edge3" class="edge">
<title>Node325437&#45;&gt;Node325438</title>
<path fill="none" stroke="#191970" d="M571.3659,-39.5C580.0827,-39.5 588.6547,-39.5 596.792,-39.5"/>
<polygon fill="#191970" stroke="#191970" points="571.0841,-36.0001 561.0841,-39.5 571.0841,-43.0001 571.0841,-36.0001"/>
</g>
<!-- Node325439 -->
<g id="node5" class="node">
<title>Node325439</title>
<g id="a_node5"><a xlink:href="../../d6/d8e/_codegen_cpp_8h.html#a350598fd4e7c504e656e8ebefeac8ec9" target="_top" xlink:title="omc_CodegenCpp_generateAlgloopsolver\lVariables">
<polygon fill="#ffffff" stroke="#000000" points="749,-49.5 749,-79.5 948,-79.5 948,-49.5 749,-49.5"/>
<text text-anchor="start" x="757" y="-67.5" font-family="Helvetica,sans-Serif" font-size="10.00" fill="#000000">omc_CodegenCpp_generateAlgloopsolver</text>
<text text-anchor="middle" x="848.5" y="-56.5" font-family="Helvetica,sans-Serif" font-size="10.00" fill="#000000">Variables</text>
</a>
</g>
</g>
<!-- Node325438&#45;&gt;Node325439 -->
<g id="edge4" class="edge">
<title>Node325438&#45;&gt;Node325439</title>
<path fill="none" stroke="#191970" d="M723.0974,-48.2981C731.473,-49.3802 740.1634,-50.503 748.8849,-51.6298"/>
<polygon fill="#191970" stroke="#191970" points="723.4224,-44.8111 713.0564,-47.0008 722.5255,-51.7534 723.4224,-44.8111"/>
</g>
<!-- Node325448 -->
<g id="node14" class="node">
<title>Node325448</title>
<g id="a_node14"><a xlink:href="../../d0/df9/_codegen_cpp_8c.html#a26f3c17c65e2a89b7a939cd1e03b9e0c" target="_top" xlink:title="boxptr_CodegenCpp_fun\l__1246">
<polygon fill="#ffffff" stroke="#000000" points="786,-.5 786,-30.5 911,-30.5 911,-.5 786,-.5"/>
<text text-anchor="start" x="794" y="-18.5" font-family="Helvetica,sans-Serif" font-size="10.00" fill="#000000">boxptr_CodegenCpp_fun</text>
<text text-anchor="middle" x="848.5" y="-7.5" font-family="Helvetica,sans-Serif" font-size="10.00" fill="#000000">__1246</text>
</a>
</g>
</g>
<!-- Node325438&#45;&gt;Node325448 -->
<g id="edge13" class="edge">
<title>Node325438&#45;&gt;Node325448</title>
<path fill="none" stroke="#191970" d="M723.1976,-31.0414C743.5578,-28.5161 765.771,-25.761 785.7638,-23.2812"/>
<polygon fill="#191970" stroke="#191970" points="722.5495,-27.5949 713.0564,-32.2992 723.4112,-34.5416 722.5495,-27.5949"/>
</g>
<!-- Node325440 -->
<g id="node6" class="node">
<title>Node325440</title>
<g id="a_node6"><a xlink:href="../../d0/df9/_codegen_cpp_8c.html#ad89a1a22590887b820bebdea8aa451ee" target="_top" xlink:title="omc_CodegenCpp_fun__814">
<polygon fill="#ffffff" stroke="#000000" points="984,-55 984,-74 1127,-74 1127,-55 984,-55"/>
<text text-anchor="middle" x="1055.5" y="-62" font-family="Helvetica,sans-Serif" font-size="10.00" fill="#000000">omc_CodegenCpp_fun__814</text>
</a>
</g>
</g>
<!-- Node325439&#45;&gt;Node325440 -->
<g id="edge5" class="edge">
<title>Node325439&#45;&gt;Node325440</title>
<path fill="none" stroke="#191970" d="M958.2859,-64.5C966.9872,-64.5 975.6289,-64.5 983.964,-64.5"/>
<polygon fill="#191970" stroke="#191970" points="958.059,-61.0001 948.059,-64.5 958.0589,-68.0001 958.059,-61.0001"/>
</g>
<!-- Node325441 -->
<g id="node7" class="node">
<title>Node325441</title>
<g id="a_node7"><a xlink:href="../../d6/d8e/_codegen_cpp_8h.html#a5d7c1c02482548c6bf595b53a52332d6" target="_top" xlink:title="omc_CodegenCpp_generateClass\lDeclarationCode">
<polygon fill="#ffffff" stroke="#000000" points="1163,-49.5 1163,-79.5 1329,-79.5 1329,-49.5 1163,-49.5"/>
<text text-anchor="start" x="1171" y="-67.5" font-family="Helvetica,sans-Serif" font-size="10.00" fill="#000000">omc_CodegenCpp_generateClass</text>
<text text-anchor="middle" x="1246" y="-56.5" font-family="Helvetica,sans-Serif" font-size="10.00" fill="#000000">DeclarationCode</text>
</a>
</g>
</g>
<!-- Node325440&#45;&gt;Node325441 -->
<g id="edge6" class="edge">
<title>Node325440&#45;&gt;Node325441</title>
<path fill="none" stroke="#191970" d="M1137.4156,-64.5C1145.8232,-64.5 1154.3722,-64.5 1162.7936,-64.5"/>
<polygon fill="#191970" stroke="#191970" points="1137.2485,-61.0001 1127.2484,-64.5 1137.2484,-68.0001 1137.2485,-61.0001"/>
</g>
<!-- Node325442 -->
<g id="node8" class="node">
<title>Node325442</title>
<g id="a_node8"><a xlink:href="../../d6/d8e/_codegen_cpp_8h.html#af93ea1c3c866e17120b77bbc7a6c0433" target="_top" xlink:title="boxptr_CodegenCpp_generate\lClassDeclarationCode">
<polygon fill="#ffffff" stroke="#000000" points="1365,-74.5 1365,-104.5 1514,-104.5 1514,-74.5 1365,-74.5"/>
<text text-anchor="start" x="1373" y="-92.5" font-family="Helvetica,sans-Serif" font-size="10.00" fill="#000000">boxptr_CodegenCpp_generate</text>
<text text-anchor="middle" x="1439.5" y="-81.5" font-family="Helvetica,sans-Serif" font-size="10.00" fill="#000000">ClassDeclarationCode</text>
</a>
</g>
</g>
<!-- Node325441&#45;&gt;Node325442 -->
<g id="edge7" class="edge">
<title>Node325441&#45;&gt;Node325442</title>
<path fill="none" stroke="#191970" d="M1339.2596,-76.549C1347.8706,-77.6616 1356.5185,-78.7789 1364.93,-79.8656"/>
<polygon fill="#191970" stroke="#191970" points="1339.5505,-73.0576 1329.1844,-75.2473 1338.6535,-79.9999 1339.5505,-73.0576"/>
</g>
<!-- Node325443 -->
<g id="node9" class="node">
<title>Node325443</title>
<g id="a_node9"><a xlink:href="../../d6/d8e/_codegen_cpp_8h.html#ad1f2c2b6ce251e824c45cde3a79307da" target="_top" xlink:title="omc_CodegenCpp_simulation\lHeaderFile">
<polygon fill="#ffffff" stroke="#000000" points="1366,-25.5 1366,-55.5 1513,-55.5 1513,-25.5 1366,-25.5"/>
<text text-anchor="start" x="1374" y="-43.5" font-family="Helvetica,sans-Serif" font-size="10.00" fill="#000000">omc_CodegenCpp_simulation</text>
<text text-anchor="middle" x="1439.5" y="-32.5" font-family="Helvetica,sans-Serif" font-size="10.00" fill="#000000">HeaderFile</text>
</a>
</g>
</g>
<!-- Node325441&#45;&gt;Node325443 -->
<g id="edge8" class="edge">
<title>Node325441&#45;&gt;Node325443</title>
<path fill="none" stroke="#191970" d="M1339.233,-52.9362C1348.1626,-51.8287 1357.1323,-50.7162 1365.8371,-49.6365"/>
<polygon fill="#191970" stroke="#191970" points="1338.6775,-49.4782 1329.1844,-54.1826 1339.5392,-56.425 1338.6775,-49.4782"/>
</g>
<!-- Node325444 -->
<g id="node10" class="node">
<title>Node325444</title>
<g id="a_node10"><a xlink:href="../../d6/d8e/_codegen_cpp_8h.html#a7457b9a8fab6b86f989c15710f1c111a" target="_top" xlink:title="boxptr_CodegenCpp_simulation\lHeaderFile">
<polygon fill="#ffffff" stroke="#000000" points="1550,-47.5 1550,-77.5 1705,-77.5 1705,-47.5 1550,-47.5"/>
<text text-anchor="start" x="1558" y="-65.5" font-family="Helvetica,sans-Serif" font-size="10.00" fill="#000000">boxptr_CodegenCpp_simulation</text>
<text text-anchor="middle" x="1627.5" y="-54.5" font-family="Helvetica,sans-Serif" font-size="10.00" fill="#000000">HeaderFile</text>
</a>
</g>
</g>
<!-- Node325443&#45;&gt;Node325444 -->
<g id="edge9" class="edge">
<title>Node325443&#45;&gt;Node325444</title>
<path fill="none" stroke="#191970" d="M1523.2231,-50.2974C1532.1068,-51.337 1541.1144,-52.391 1549.9234,-53.4219"/>
<polygon fill="#191970" stroke="#191970" points="1523.602,-46.8179 1513.263,-49.1318 1522.7884,-53.7705 1523.602,-46.8179"/>
</g>
<!-- Node325445 -->
<g id="node11" class="node">
<title>Node325445</title>
<g id="a_node11"><a xlink:href="../../d0/df9/_codegen_cpp_8c.html#aa7c7709a5cda769632291bb6f29d8b29" target="_top" xlink:title="omc_CodegenCpp_fun__46">
<polygon fill="#ffffff" stroke="#000000" points="1559,-9 1559,-28 1696,-28 1696,-9 1559,-9"/>
<text text-anchor="middle" x="1627.5" y="-16" font-family="Helvetica,sans-Serif" font-size="10.00" fill="#000000">omc_CodegenCpp_fun__46</text>
</a>
</g>
</g>
<!-- Node325443&#45;&gt;Node325445 -->
<g id="edge10" class="edge">
<title>Node325443&#45;&gt;Node325445</title>
<path fill="none" stroke="#191970" d="M1523.206,-30.7046C1535.1258,-29.3098 1547.2691,-27.8887 1558.8567,-26.5327"/>
<polygon fill="#191970" stroke="#191970" points="1522.7884,-27.2295 1513.263,-31.8682 1523.602,-34.1821 1522.7884,-27.2295"/>
</g>
<!-- Node325446 -->
<g id="node12" class="node">
<title>Node325446</title>
<g id="a_node12"><a xlink:href="../../d6/d8e/_codegen_cpp_8h.html#a54676ae5ee46975a3ec1566a9856625c" target="_top" xlink:title="omc_CodegenCpp_translate\lModel">
<polygon fill="#ffffff" stroke="#000000" points="1741,-3.5 1741,-33.5 1881,-33.5 1881,-3.5 1741,-3.5"/>
<text text-anchor="start" x="1749" y="-21.5" font-family="Helvetica,sans-Serif" font-size="10.00" fill="#000000">omc_CodegenCpp_translate</text>
<text text-anchor="middle" x="1811" y="-10.5" font-family="Helvetica,sans-Serif" font-size="10.00" fill="#000000">Model</text>
</a>
</g>
</g>
<!-- Node325445&#45;&gt;Node325446 -->
<g id="edge11" class="edge">
<title>Node325445&#45;&gt;Node325446</title>
<path fill="none" stroke="#191970" d="M1706.164,-18.5C1717.7326,-18.5 1729.5846,-18.5 1740.9639,-18.5"/>
<polygon fill="#191970" stroke="#191970" points="1706.0896,-15.0001 1696.0896,-18.5 1706.0895,-22.0001 1706.0896,-15.0001"/>
</g>
<!-- Node325447 -->
<g id="node13" class="node">
<title>Node325447</title>
<g id="a_node13"><a xlink:href="../../d5/d4c/_codegen_f_m_u_cpp_8h.html#a1fc774045fbfd7b6dc9872f8b61ccdad" target="_top" xlink:title="omc_CodegenFMUCpp_translate\lModel">
<polygon fill="#ffffff" stroke="#000000" points="1917,-3.5 1917,-33.5 2079,-33.5 2079,-3.5 1917,-3.5"/>
<text text-anchor="start" x="1925" y="-21.5" font-family="Helvetica,sans-Serif" font-size="10.00" fill="#000000">omc_CodegenFMUCpp_translate</text>
<text text-anchor="middle" x="1998" y="-10.5" font-family="Helvetica,sans-Serif" font-size="10.00" fill="#000000">Model</text>
</a>
</g>
</g>
<!-- Node325446&#45;&gt;Node325447 -->
<g id="edge12" class="edge">
<title>Node325446&#45;&gt;Node325447</title>
<path fill="none" stroke="#191970" d="M1891.3393,-18.5C1899.7557,-18.5 1908.3173,-18.5 1916.744,-18.5"/>
<polygon fill="#191970" stroke="#191970" points="1891.164,-15.0001 1881.1639,-18.5 1891.1639,-22.0001 1891.164,-15.0001"/>
</g>
</g>
</svg>
