<?xml version="1.0" encoding="UTF-8" standalone="no"?>
<!DOCTYPE svg PUBLIC "-//W3C//DTD SVG 1.1//EN"
 "http://www.w3.org/Graphics/SVG/1.1/DTD/svg11.dtd">
<!-- Generated by graphviz version 2.40.1 (20161225.0304)
 -->
<!-- Title: install&#45;gcc.GccInstall.doDownload Pages: 1 -->
<svg width="989pt" height="190pt"
 viewBox="0.00 0.00 989.00 189.71" xmlns="http://www.w3.org/2000/svg" xmlns:xlink="http://www.w3.org/1999/xlink">
<g id="graph0" class="graph" transform="scale(1 1) rotate(0) translate(4 185.7141)">
<title>install&#45;gcc.GccInstall.doDownload</title>
<polygon fill="#ffffff" stroke="transparent" points="-4,4 -4,-185.7141 985,-185.7141 985,4 -4,4"/>
<!-- Node24 -->
<g id="node1" class="node">
<title>Node24</title>
<polygon fill="#bfbfbf" stroke="#000000" points="0,-96.5 0,-126.5 122,-126.5 122,-96.5 0,-96.5"/>
<text text-anchor="start" x="8" y="-114.5" font-family="Helvetica,sans-Serif" font-size="10.00" fill="#000000">install&#45;gcc.GccInstall.do</text>
<text text-anchor="middle" x="61" y="-103.5" font-family="Helvetica,sans-Serif" font-size="10.00" fill="#000000">Download</text>
</g>
<!-- Node25 -->
<g id="node2" class="node">
<title>Node25</title>
<g id="a_node2"><a xlink:href="../../dd/d6f/namespace_general_script_support.html#a853dd14ba9798151bed42f97e1801f25" target="_top" xlink:title="GeneralScriptSupport.remove\lDirIfExists">
<polygon fill="#ffffff" stroke="#000000" points="158,-118.5 158,-148.5 303,-148.5 303,-118.5 158,-118.5"/>
<text text-anchor="start" x="166" y="-136.5" font-family="Helvetica,sans-Serif" font-size="10.00" fill="#000000">GeneralScriptSupport.remove</text>
<text text-anchor="middle" x="230.5" y="-125.5" font-family="Helvetica,sans-Serif" font-size="10.00" fill="#000000">DirIfExists</text>
</a>
</g>
</g>
<!-- Node24&#45;&gt;Node25 -->
<g id="edge1" class="edge">
<title>Node24&#45;&gt;Node25</title>
<path fill="none" stroke="#191970" d="M122.1934,-119.4425C130.5085,-120.5218 139.1522,-121.6437 147.7682,-122.7619"/>
<polygon fill="#191970" stroke="#191970" points="147.481,-126.254 157.8484,-124.0703 148.3821,-119.3122 147.481,-126.254"/>
</g>
<!-- Node27 -->
<g id="node4" class="node">
<title>Node27</title>
<g id="a_node4"><a xlink:href="../../dd/d6f/namespace_general_script_support.html#a5ad5bfa731a90789df6d6e0743e4d684" target="_top" xlink:title="GeneralScriptSupport.echo\lRunSysCmnd">
<polygon fill="#ffffff" stroke="#000000" points="339,-74.5 339,-104.5 473,-104.5 473,-74.5 339,-74.5"/>
<text text-anchor="start" x="347" y="-92.5" font-family="Helvetica,sans-Serif" font-size="10.00" fill="#000000">GeneralScriptSupport.echo</text>
<text text-anchor="middle" x="406" y="-81.5" font-family="Helvetica,sans-Serif" font-size="10.00" fill="#000000">RunSysCmnd</text>
</a>
</g>
</g>
<!-- Node24&#45;&gt;Node27 -->
<g id="edge14" class="edge">
<title>Node24&#45;&gt;Node27</title>
<path fill="none" stroke="#191970" d="M122.2815,-107.5922C179.8755,-103.9195 266.3048,-98.4081 328.6287,-94.4338"/>
<polygon fill="#191970" stroke="#191970" points="329.0472,-97.9143 338.8041,-93.785 328.6016,-90.9285 329.0472,-97.9143"/>
</g>
<!-- Node26 -->
<g id="node3" class="node">
<title>Node26</title>
<g id="a_node3"><a xlink:href="../../d7/dac/ml__agg___v_b_m_e_t_i_s_8c.html#a9cef0428d1f079994cfd332d31e1a9ea" target="_top" xlink:title="print">
<polygon fill="#ffffff" stroke="#000000" points="896.5,-148 896.5,-167 931.5,-167 931.5,-148 896.5,-148"/>
<text text-anchor="middle" x="914" y="-155" font-family="Helvetica,sans-Serif" font-size="10.00" fill="#000000">print</text>
</a>
</g>
</g>
<!-- Node25&#45;&gt;Node26 -->
<g id="edge2" class="edge">
<title>Node25&#45;&gt;Node26</title>
<path fill="none" stroke="#191970" d="M303.4208,-146.6246C413.4881,-164.6878 628.5949,-193.183 811,-176.5 836.7516,-174.1447 865.6777,-168.5429 886.3045,-164.0284"/>
<polygon fill="#191970" stroke="#191970" points="887.2837,-167.3958 896.2738,-161.7897 885.7499,-160.5659 887.2837,-167.3958"/>
</g>
<!-- Node25&#45;&gt;Node27 -->
<g id="edge3" class="edge">
<title>Node25&#45;&gt;Node27</title>
<path fill="none" stroke="#191970" d="M290.4063,-118.4808C305.1498,-114.7844 321.0633,-110.7947 336.2283,-106.9926"/>
<polygon fill="#191970" stroke="#191970" points="337.2173,-110.3531 346.0659,-104.5262 335.515,-103.5632 337.2173,-110.3531"/>
</g>
<!-- Node27&#45;&gt;Node26 -->
<g id="edge4" class="edge">
<title>Node27&#45;&gt;Node26</title>
<path fill="none" stroke="#191970" d="M431.2219,-104.6364C451.4712,-115.9385 481.0409,-130.5773 509,-137.5 647.2009,-171.7186 819.8066,-164.3536 886.205,-159.7515"/>
<polygon fill="#191970" stroke="#191970" points="886.5637,-163.2347 896.2825,-159.0162 886.0543,-156.2532 886.5637,-163.2347"/>
</g>
<!-- Node28 -->
<g id="node5" class="node">
<title>Node28</title>
<g id="a_node5"><a xlink:href="../../dd/d6f/namespace_general_script_support.html#aab45246ad6dd05fb1672fe10796ef54f" target="_top" xlink:title="GeneralScriptSupport.sorted\l_dict_str">
<polygon fill="#ffffff" stroke="#000000" points="509,-98.5 509,-128.5 649,-128.5 649,-98.5 509,-98.5"/>
<text text-anchor="start" x="517" y="-116.5" font-family="Helvetica,sans-Serif" font-size="10.00" fill="#000000">GeneralScriptSupport.sorted</text>
<text text-anchor="middle" x="579" y="-105.5" font-family="Helvetica,sans-Serif" font-size="10.00" fill="#000000">_dict_str</text>
</a>
</g>
</g>
<!-- Node27&#45;&gt;Node28 -->
<g id="edge5" class="edge">
<title>Node27&#45;&gt;Node28</title>
<path fill="none" stroke="#191970" d="M473.3817,-98.8477C481.7691,-100.0113 490.4091,-101.2099 498.9642,-102.3968"/>
<polygon fill="#191970" stroke="#191970" points="498.5618,-105.8744 508.948,-103.7818 499.5238,-98.9408 498.5618,-105.8744"/>
</g>
<!-- Node29 -->
<g id="node6" class="node">
<title>Node29</title>
<g id="a_node6"><a xlink:href="../../dd/d6f/namespace_general_script_support.html#ada35381caacd9d1fbb268b5f8be5ec22" target="_top" xlink:title="System interaction utilties. ">
<polygon fill="#ffffff" stroke="#000000" points="516,-49.5 516,-79.5 642,-79.5 642,-49.5 516,-49.5"/>
<text text-anchor="start" x="524" y="-67.5" font-family="Helvetica,sans-Serif" font-size="10.00" fill="#000000">GeneralScriptSupport.run</text>
<text text-anchor="middle" x="579" y="-56.5" font-family="Helvetica,sans-Serif" font-size="10.00" fill="#000000">SysCmnd</text>
</a>
</g>
</g>
<!-- Node27&#45;&gt;Node29 -->
<g id="edge6" class="edge">
<title>Node27&#45;&gt;Node29</title>
<path fill="none" stroke="#191970" d="M465.5368,-74.4468C478.4659,-72.2814 492.288,-70.2073 505.6787,-68.4157"/>
<polygon fill="#191970" stroke="#191970" points="506.3446,-71.8588 515.8125,-67.1039 505.4459,-64.9167 506.3446,-71.8588"/>
</g>
<!-- Node32 -->
<g id="node9" class="node">
<title>Node32</title>
<g id="a_node9"><a xlink:href="../../dd/d6f/namespace_general_script_support.html#af2ec5a3aa03fb3a13f3caba52e11e6ce" target="_top" xlink:title="GeneralScriptSupport.get\lCmndOutput">
<polygon fill="#ffffff" stroke="#000000" points="516,-.5 516,-30.5 642,-30.5 642,-.5 516,-.5"/>
<text text-anchor="start" x="524" y="-18.5" font-family="Helvetica,sans-Serif" font-size="10.00" fill="#000000">GeneralScriptSupport.get</text>
<text text-anchor="middle" x="579" y="-7.5" font-family="Helvetica,sans-Serif" font-size="10.00" fill="#000000">CmndOutput</text>
</a>
</g>
</g>
<!-- Node27&#45;&gt;Node32 -->
<g id="edge12" class="edge">
<title>Node27&#45;&gt;Node32</title>
<path fill="none" stroke="#191970" d="M434.8714,-74.315C455.2859,-63.8685 483.4567,-50.033 509,-39.5 513.4428,-37.668 518.0817,-35.859 522.7647,-34.1053"/>
<polygon fill="#191970" stroke="#191970" points="524.1953,-37.3091 532.3902,-30.5938 521.7962,-30.733 524.1953,-37.3091"/>
</g>
<!-- Node29&#45;&gt;Node27 -->
<g id="edge11" class="edge">
<title>Node29&#45;&gt;Node27</title>
<path fill="none" stroke="#191970" d="M519.6807,-79.5168C508.0304,-81.4704 495.648,-83.3507 483.5046,-85.0174"/>
<polygon fill="#191970" stroke="#191970" points="482.8328,-81.5758 473.3817,-86.364 483.7559,-88.5147 482.8328,-81.5758"/>
</g>
<!-- Node30 -->
<g id="node7" class="node">
<title>Node30</title>
<g id="a_node7"><a xlink:href="../../dd/d6f/namespace_general_script_support.html#ae597363742c9dbe343b3d5affd143633" target="_top" xlink:title="GeneralScriptSupport.run\lSysCmndInterface">
<polygon fill="#ffffff" stroke="#000000" points="685,-49.5 685,-79.5 811,-79.5 811,-49.5 685,-49.5"/>
<text text-anchor="start" x="693" y="-67.5" font-family="Helvetica,sans-Serif" font-size="10.00" fill="#000000">GeneralScriptSupport.run</text>
<text text-anchor="middle" x="748" y="-56.5" font-family="Helvetica,sans-Serif" font-size="10.00" fill="#000000">SysCmndInterface</text>
</a>
</g>
</g>
<!-- Node29&#45;&gt;Node30 -->
<g id="edge7" class="edge">
<title>Node29&#45;&gt;Node30</title>
<path fill="none" stroke="#191970" d="M642.4102,-57.9404C652.9149,-57.7471 663.8841,-57.701 674.6102,-57.8021"/>
<polygon fill="#191970" stroke="#191970" points="674.7486,-61.3043 684.7965,-57.9443 674.8463,-54.305 674.7486,-61.3043"/>
</g>
<!-- Node30&#45;&gt;Node26 -->
<g id="edge8" class="edge">
<title>Node30&#45;&gt;Node26</title>
<path fill="none" stroke="#191970" d="M775.0402,-79.649C806.1788,-97.0942 856.9867,-125.5588 887.7764,-142.8085"/>
<polygon fill="#191970" stroke="#191970" points="886.2103,-145.9429 896.6452,-147.7771 889.6317,-139.836 886.2103,-145.9429"/>
</g>
<!-- Node30&#45;&gt;Node29 -->
<g id="edge10" class="edge">
<title>Node30&#45;&gt;Node29</title>
<path fill="none" stroke="#191970" d="M684.7965,-71.0557C674.298,-71.2511 663.3302,-71.2991 652.6009,-71.1998"/>
<polygon fill="#191970" stroke="#191970" points="652.4574,-67.6976 642.4102,-71.0596 652.361,-74.697 652.4574,-67.6976"/>
</g>
<!-- Node31 -->
<g id="node8" class="node">
<title>Node31</title>
<g id="a_node8"><a xlink:href="../../dd/d6f/namespace_general_script_support.html#aabf63342788b4f4266ba05935e46aabf" target="_top" xlink:title="GeneralScriptSupport.write\lStrToFile">
<polygon fill="#ffffff" stroke="#000000" points="847,-49.5 847,-79.5 981,-79.5 981,-49.5 847,-49.5"/>
<text text-anchor="start" x="855" y="-67.5" font-family="Helvetica,sans-Serif" font-size="10.00" fill="#000000">GeneralScriptSupport.write</text>
<text text-anchor="middle" x="914" y="-56.5" font-family="Helvetica,sans-Serif" font-size="10.00" fill="#000000">StrToFile</text>
</a>
</g>
</g>
<!-- Node30&#45;&gt;Node31 -->
<g id="edge9" class="edge">
<title>Node30&#45;&gt;Node31</title>
<path fill="none" stroke="#191970" d="M811.231,-64.5C819.5037,-64.5 828.0545,-64.5 836.5282,-64.5"/>
<polygon fill="#191970" stroke="#191970" points="836.8021,-68.0001 846.802,-64.5 836.802,-61.0001 836.8021,-68.0001"/>
</g>
<!-- Node32&#45;&gt;Node30 -->
<g id="edge13" class="edge">
<title>Node32&#45;&gt;Node30</title>
<path fill="none" stroke="#191970" d="M631.0846,-30.6014C648.5952,-35.6785 668.2949,-41.3902 686.4622,-46.6577"/>
<polygon fill="#191970" stroke="#191970" points="685.5083,-50.0252 696.0874,-49.4484 687.4577,-43.3021 685.5083,-50.0252"/>
</g>
</g>
</svg>
