<?xml version="1.0" encoding="UTF-8" standalone="no"?>
<!DOCTYPE svg PUBLIC "-//W3C//DTD SVG 1.1//EN"
 "http://www.w3.org/Graphics/SVG/1.1/DTD/svg11.dtd">
<!-- Generated by graphviz version 2.40.1 (20161225.0304)
 -->
<!-- Title: install&#45;gcc.GccInstall.doInstall Pages: 1 -->
<svg width="816pt" height="225pt"
 viewBox="0.00 0.00 816.00 225.00" xmlns="http://www.w3.org/2000/svg" xmlns:xlink="http://www.w3.org/1999/xlink">
<g id="graph0" class="graph" transform="scale(1 1) rotate(0) translate(4 221)">
<title>install&#45;gcc.GccInstall.doInstall</title>
<polygon fill="#ffffff" stroke="transparent" points="-4,4 -4,-221 812,-221 812,4 -4,4"/>
<!-- Node34 -->
<g id="node1" class="node">
<title>Node34</title>
<polygon fill="#bfbfbf" stroke="#000000" points="0,-73.5 0,-103.5 122,-103.5 122,-73.5 0,-73.5"/>
<text text-anchor="start" x="8" y="-91.5" font-family="Helvetica,sans-Serif" font-size="10.00" fill="#000000">install&#45;gcc.GccInstall.do</text>
<text text-anchor="middle" x="61" y="-80.5" font-family="Helvetica,sans-Serif" font-size="10.00" fill="#000000">Install</text>
</g>
<!-- Node35 -->
<g id="node2" class="node">
<title>Node35</title>
<g id="a_node2"><a xlink:href="../../dd/d6f/namespace_general_script_support.html#a324f0def17e10266ba65360c818f20f5" target="_top" xlink:title="GeneralScriptSupport.echo\lChDir">
<polygon fill="#ffffff" stroke="#000000" points="504,-186.5 504,-216.5 638,-216.5 638,-186.5 504,-186.5"/>
<text text-anchor="start" x="512" y="-204.5" font-family="Helvetica,sans-Serif" font-size="10.00" fill="#000000">GeneralScriptSupport.echo</text>
<text text-anchor="middle" x="571" y="-193.5" font-family="Helvetica,sans-Serif" font-size="10.00" fill="#000000">ChDir</text>
</a>
</g>
</g>
<!-- Node34&#45;&gt;Node35 -->
<g id="edge1" class="edge">
<title>Node34&#45;&gt;Node35</title>
<path fill="none" stroke="#191970" d="M109.3163,-103.6403C162.4897,-119.8909 250.6905,-145.6376 328,-162.5 383.0504,-174.5073 445.865,-184.4928 493.8375,-191.3533"/>
<polygon fill="#191970" stroke="#191970" points="493.449,-194.8331 503.8409,-192.7694 494.4303,-187.9022 493.449,-194.8331"/>
</g>
<!-- Node37 -->
<g id="node4" class="node">
<title>Node37</title>
<g id="a_node4"><a xlink:href="../../dd/d6f/namespace_general_script_support.html#a5ad5bfa731a90789df6d6e0743e4d684" target="_top" xlink:title="GeneralScriptSupport.echo\lRunSysCmnd">
<polygon fill="#ffffff" stroke="#000000" points="158,-73.5 158,-103.5 292,-103.5 292,-73.5 158,-73.5"/>
<text text-anchor="start" x="166" y="-91.5" font-family="Helvetica,sans-Serif" font-size="10.00" fill="#000000">GeneralScriptSupport.echo</text>
<text text-anchor="middle" x="225" y="-80.5" font-family="Helvetica,sans-Serif" font-size="10.00" fill="#000000">RunSysCmnd</text>
</a>
</g>
</g>
<!-- Node34&#45;&gt;Node37 -->
<g id="edge3" class="edge">
<title>Node34&#45;&gt;Node37</title>
<path fill="none" stroke="#191970" d="M122.0675,-88.5C130.4459,-88.5 139.1368,-88.5 147.7573,-88.5"/>
<polygon fill="#191970" stroke="#191970" points="147.8218,-92.0001 157.8217,-88.5 147.8217,-85.0001 147.8218,-92.0001"/>
</g>
<!-- Node43 -->
<g id="node10" class="node">
<title>Node43</title>
<g id="a_node10"><a xlink:href="../../da/d88/namespace_install_program_driver.html#a62bcad0443ed4e22d5482027d845ec14" target="_top" xlink:title="InstallProgramDriver.get\lParallelOpt">
<polygon fill="#ffffff" stroke="#000000" points="164,-24.5 164,-54.5 286,-54.5 286,-24.5 164,-24.5"/>
<text text-anchor="start" x="172" y="-42.5" font-family="Helvetica,sans-Serif" font-size="10.00" fill="#000000">InstallProgramDriver.get</text>
<text text-anchor="middle" x="225" y="-31.5" font-family="Helvetica,sans-Serif" font-size="10.00" fill="#000000">ParallelOpt</text>
</a>
</g>
</g>
<!-- Node34&#45;&gt;Node43 -->
<g id="edge14" class="edge">
<title>Node34&#45;&gt;Node43</title>
<path fill="none" stroke="#191970" d="M111.5436,-73.3986C128.4579,-68.3449 147.4769,-62.6624 165.0391,-57.4152"/>
<polygon fill="#191970" stroke="#191970" points="166.0438,-60.7679 174.6233,-54.5516 164.0398,-54.0609 166.0438,-60.7679"/>
</g>
<!-- Node36 -->
<g id="node3" class="node">
<title>Node36</title>
<g id="a_node3"><a xlink:href="../../d7/dac/ml__agg___v_b_m_e_t_i_s_8c.html#a9cef0428d1f079994cfd332d31e1a9ea" target="_top" xlink:title="print">
<polygon fill="#ffffff" stroke="#000000" points="723.5,-148 723.5,-167 758.5,-167 758.5,-148 723.5,-148"/>
<text text-anchor="middle" x="741" y="-155" font-family="Helvetica,sans-Serif" font-size="10.00" fill="#000000">print</text>
</a>
</g>
</g>
<!-- Node35&#45;&gt;Node36 -->
<g id="edge2" class="edge">
<title>Node35&#45;&gt;Node36</title>
<path fill="none" stroke="#191970" d="M629.0289,-186.4808C657.5934,-179.0876 690.6914,-170.5211 713.4542,-164.6295"/>
<polygon fill="#191970" stroke="#191970" points="714.6284,-167.941 723.4324,-162.0469 712.8744,-161.1643 714.6284,-167.941"/>
</g>
<!-- Node37&#45;&gt;Node36 -->
<g id="edge4" class="edge">
<title>Node37&#45;&gt;Node36</title>
<path fill="none" stroke="#191970" d="M248.8961,-103.5783C269.1126,-115.4618 299.2956,-131.2026 328,-138.5 469.0174,-174.3501 645.6693,-165.3377 713.0982,-160.0327"/>
<polygon fill="#191970" stroke="#191970" points="713.6407,-163.5 723.3191,-159.1896 713.0651,-156.5237 713.6407,-163.5"/>
</g>
<!-- Node38 -->
<g id="node5" class="node">
<title>Node38</title>
<g id="a_node5"><a xlink:href="../../dd/d6f/namespace_general_script_support.html#aab45246ad6dd05fb1672fe10796ef54f" target="_top" xlink:title="GeneralScriptSupport.sorted\l_dict_str">
<polygon fill="#ffffff" stroke="#000000" points="328,-98.5 328,-128.5 468,-128.5 468,-98.5 328,-98.5"/>
<text text-anchor="start" x="336" y="-116.5" font-family="Helvetica,sans-Serif" font-size="10.00" fill="#000000">GeneralScriptSupport.sorted</text>
<text text-anchor="middle" x="398" y="-105.5" font-family="Helvetica,sans-Serif" font-size="10.00" fill="#000000">_dict_str</text>
</a>
</g>
</g>
<!-- Node37&#45;&gt;Node38 -->
<g id="edge5" class="edge">
<title>Node37&#45;&gt;Node38</title>
<path fill="none" stroke="#191970" d="M292.3817,-98.2372C300.7691,-99.4493 309.4091,-100.6978 317.9642,-101.9341"/>
<polygon fill="#191970" stroke="#191970" points="317.5501,-105.4106 327.948,-103.3769 318.5514,-98.4825 317.5501,-105.4106"/>
</g>
<!-- Node39 -->
<g id="node6" class="node">
<title>Node39</title>
<g id="a_node6"><a xlink:href="../../dd/d6f/namespace_general_script_support.html#ada35381caacd9d1fbb268b5f8be5ec22" target="_top" xlink:title="System interaction utilties. ">
<polygon fill="#ffffff" stroke="#000000" points="335,-49.5 335,-79.5 461,-79.5 461,-49.5 335,-49.5"/>
<text text-anchor="start" x="343" y="-67.5" font-family="Helvetica,sans-Serif" font-size="10.00" fill="#000000">GeneralScriptSupport.run</text>
<text text-anchor="middle" x="398" y="-56.5" font-family="Helvetica,sans-Serif" font-size="10.00" fill="#000000">SysCmnd</text>
</a>
</g>
</g>
<!-- Node37&#45;&gt;Node39 -->
<g id="edge6" class="edge">
<title>Node37&#45;&gt;Node39</title>
<path fill="none" stroke="#191970" d="M286.4804,-73.4784C298.895,-71.4939 312.0619,-69.6053 324.8317,-67.9723"/>
<polygon fill="#191970" stroke="#191970" points="325.4702,-71.4201 334.9656,-66.7204 324.6119,-64.4729 325.4702,-71.4201"/>
</g>
<!-- Node42 -->
<g id="node9" class="node">
<title>Node42</title>
<g id="a_node9"><a xlink:href="../../dd/d6f/namespace_general_script_support.html#af2ec5a3aa03fb3a13f3caba52e11e6ce" target="_top" xlink:title="GeneralScriptSupport.get\lCmndOutput">
<polygon fill="#ffffff" stroke="#000000" points="335,-.5 335,-30.5 461,-30.5 461,-.5 335,-.5"/>
<text text-anchor="start" x="343" y="-18.5" font-family="Helvetica,sans-Serif" font-size="10.00" fill="#000000">GeneralScriptSupport.get</text>
<text text-anchor="middle" x="398" y="-7.5" font-family="Helvetica,sans-Serif" font-size="10.00" fill="#000000">CmndOutput</text>
</a>
</g>
</g>
<!-- Node37&#45;&gt;Node42 -->
<g id="edge12" class="edge">
<title>Node37&#45;&gt;Node42</title>
<path fill="none" stroke="#191970" d="M269.949,-73.3676C277.4413,-70.3822 285.0356,-67.0602 292,-63.5 309.1221,-54.7472 310.762,-48.0223 328,-39.5 331.5899,-37.7252 335.3435,-36.0267 339.1676,-34.4124"/>
<polygon fill="#191970" stroke="#191970" points="340.7782,-37.5379 348.7656,-30.5771 338.1807,-31.0377 340.7782,-37.5379"/>
</g>
<!-- Node39&#45;&gt;Node37 -->
<g id="edge11" class="edge">
<title>Node39&#45;&gt;Node37</title>
<path fill="none" stroke="#191970" d="M336.4491,-79.5328C325.4045,-81.2977 313.7666,-82.9863 302.344,-84.4865"/>
<polygon fill="#191970" stroke="#191970" points="301.8602,-81.0197 292.3817,-85.7535 302.7434,-87.9638 301.8602,-81.0197"/>
</g>
<!-- Node40 -->
<g id="node7" class="node">
<title>Node40</title>
<g id="a_node7"><a xlink:href="../../dd/d6f/namespace_general_script_support.html#ae597363742c9dbe343b3d5affd143633" target="_top" xlink:title="GeneralScriptSupport.run\lSysCmndInterface">
<polygon fill="#ffffff" stroke="#000000" points="508,-49.5 508,-79.5 634,-79.5 634,-49.5 508,-49.5"/>
<text text-anchor="start" x="516" y="-67.5" font-family="Helvetica,sans-Serif" font-size="10.00" fill="#000000">GeneralScriptSupport.run</text>
<text text-anchor="middle" x="571" y="-56.5" font-family="Helvetica,sans-Serif" font-size="10.00" fill="#000000">SysCmndInterface</text>
</a>
</g>
</g>
<!-- Node39&#45;&gt;Node40 -->
<g id="edge7" class="edge">
<title>Node39&#45;&gt;Node40</title>
<path fill="none" stroke="#191970" d="M461.4365,-57.9679C473.2647,-57.7394 485.7136,-57.6906 497.807,-57.8215"/>
<polygon fill="#191970" stroke="#191970" points="497.8085,-61.3218 507.8604,-57.9737 497.9145,-54.3226 497.8085,-61.3218"/>
</g>
<!-- Node40&#45;&gt;Node36 -->
<g id="edge8" class="edge">
<title>Node40&#45;&gt;Node36</title>
<path fill="none" stroke="#191970" d="M598.6918,-79.649C630.5807,-97.0942 682.6128,-125.5588 714.1445,-142.8085"/>
<polygon fill="#191970" stroke="#191970" points="712.7742,-146.0483 723.227,-147.7771 716.1338,-139.9072 712.7742,-146.0483"/>
</g>
<!-- Node40&#45;&gt;Node39 -->
<g id="edge10" class="edge">
<title>Node40&#45;&gt;Node39</title>
<path fill="none" stroke="#191970" d="M507.8604,-71.0263C496.0426,-71.2578 483.596,-71.3096 471.4967,-71.1817"/>
<polygon fill="#191970" stroke="#191970" points="471.4875,-67.6813 461.4365,-71.0321 471.3833,-74.6805 471.4875,-67.6813"/>
</g>
<!-- Node41 -->
<g id="node8" class="node">
<title>Node41</title>
<g id="a_node8"><a xlink:href="../../dd/d6f/namespace_general_script_support.html#aabf63342788b4f4266ba05935e46aabf" target="_top" xlink:title="GeneralScriptSupport.write\lStrToFile">
<polygon fill="#ffffff" stroke="#000000" points="674,-49.5 674,-79.5 808,-79.5 808,-49.5 674,-49.5"/>
<text text-anchor="start" x="682" y="-67.5" font-family="Helvetica,sans-Serif" font-size="10.00" fill="#000000">GeneralScriptSupport.write</text>
<text text-anchor="middle" x="741" y="-56.5" font-family="Helvetica,sans-Serif" font-size="10.00" fill="#000000">StrToFile</text>
</a>
</g>
</g>
<!-- Node40&#45;&gt;Node41 -->
<g id="edge9" class="edge">
<title>Node40&#45;&gt;Node41</title>
<path fill="none" stroke="#191970" d="M634.3017,-64.5C643.9004,-64.5 653.8947,-64.5 663.749,-64.5"/>
<polygon fill="#191970" stroke="#191970" points="663.945,-68.0001 673.945,-64.5 663.9449,-61.0001 663.945,-68.0001"/>
</g>
<!-- Node42&#45;&gt;Node40 -->
<g id="edge13" class="edge">
<title>Node42&#45;&gt;Node40</title>
<path fill="none" stroke="#191970" d="M451.3173,-30.6014C469.2425,-35.6785 489.4084,-41.3902 508.0057,-46.6577"/>
<polygon fill="#191970" stroke="#191970" points="507.2834,-50.0907 517.8587,-49.4484 509.191,-43.3557 507.2834,-50.0907"/>
</g>
</g>
</svg>
