<?xml version="1.0" encoding="UTF-8" standalone="no"?>
<!DOCTYPE svg PUBLIC "-//W3C//DTD SVG 1.1//EN"
 "http://www.w3.org/Graphics/SVG/1.1/DTD/svg11.dtd">
<!-- Generated by graphviz version 2.40.1 (20161225.0304)
 -->
<!-- Title: boost::numeric::bindings::umfpack::symbolic Pages: 1 -->
<svg width="301pt" height="39pt"
 viewBox="0.00 0.00 301.00 39.00" xmlns="http://www.w3.org/2000/svg" xmlns:xlink="http://www.w3.org/1999/xlink">
<g id="graph0" class="graph" transform="scale(1 1) rotate(0) translate(4 35)">
<title>boost::numeric::bindings::umfpack::symbolic</title>
<polygon fill="#ffffff" stroke="transparent" points="-4,4 -4,-35 297,-35 297,4 -4,4"/>
<!-- Node126 -->
<g id="node1" class="node">
<title>Node126</title>
<polygon fill="#bfbfbf" stroke="#000000" points="0,-.5 0,-30.5 123,-30.5 123,-.5 0,-.5"/>
<text text-anchor="start" x="8" y="-18.5" font-family="Helvetica,sans-Serif" font-size="10.00" fill="#000000">boost::numeric::bindings</text>
<text text-anchor="middle" x="61.5" y="-7.5" font-family="Helvetica,sans-Serif" font-size="10.00" fill="#000000">::umfpack::symbolic</text>
</g>
<!-- Node127 -->
<g id="node2" class="node">
<title>Node127</title>
<g id="a_node2"><a xlink:href="../../d1/d20/namespaceboost_1_1numeric_1_1bindings_1_1umfpack_1_1detail.html#a911a27dfcb9872675d4d8e62b5cf7840" target="_top" xlink:title="boost::numeric::bindings\l::umfpack::detail::symbolic">
<polygon fill="#ffffff" stroke="#000000" points="159,-.5 159,-30.5 293,-30.5 293,-.5 159,-.5"/>
<text text-anchor="start" x="167" y="-18.5" font-family="Helvetica,sans-Serif" font-size="10.00" fill="#000000">boost::numeric::bindings</text>
<text text-anchor="middle" x="226" y="-7.5" font-family="Helvetica,sans-Serif" font-size="10.00" fill="#000000">::umfpack::detail::symbolic</text>
</a>
</g>
</g>
<!-- Node126&#45;&gt;Node127 -->
<g id="edge1" class="edge">
<title>Node126&#45;&gt;Node127</title>
<path fill="none" stroke="#191970" d="M123.2217,-15.5C131.6091,-15.5 140.3007,-15.5 148.9165,-15.5"/>
<polygon fill="#191970" stroke="#191970" points="148.973,-19.0001 158.9729,-15.5 148.9729,-12.0001 148.973,-19.0001"/>
</g>
</g>
</svg>
