<?xml version="1.0" encoding="UTF-8" standalone="no"?>
<!DOCTYPE svg PUBLIC "-//W3C//DTD SVG 1.1//EN"
 "http://www.w3.org/Graphics/SVG/1.1/DTD/svg11.dtd">
<!-- Generated by graphviz version 2.40.1 (20161225.0304)
 -->
<!-- Title: mat_setcol Pages: 1 -->
<svg width="191pt" height="66pt"
 viewBox="0.00 0.00 191.00 66.00" xmlns="http://www.w3.org/2000/svg" xmlns:xlink="http://www.w3.org/1999/xlink">
<g id="graph0" class="graph" transform="scale(1 1) rotate(0) translate(4 62)">
<title>mat_setcol</title>
<polygon fill="#ffffff" stroke="transparent" points="-4,4 -4,-62 187,-62 187,4 -4,4"/>
<!-- Node801 -->
<g id="node1" class="node">
<title>Node801</title>
<polygon fill="#bfbfbf" stroke="#000000" points="0,-.5 0,-19.5 65,-19.5 65,-.5 0,-.5"/>
<text text-anchor="middle" x="32.5" y="-7.5" font-family="Helvetica,sans-Serif" font-size="10.00" fill="#000000">mat_setcol</text>
</g>
<!-- Node802 -->
<g id="node2" class="node">
<title>Node802</title>
<g id="a_node2"><a xlink:href="../../d2/d33/build_2include_2omc_2lpsolve_2lp__matrix_8h.html#a8025e5e32b2dc272bdd7ad3b6381d314" target="_top" xlink:title="mat_mergemat">
<polygon fill="#ffffff" stroke="#000000" points="101,-38.5 101,-57.5 183,-57.5 183,-38.5 101,-38.5"/>
<text text-anchor="middle" x="142" y="-45.5" font-family="Helvetica,sans-Serif" font-size="10.00" fill="#000000">mat_mergemat</text>
</a>
</g>
</g>
<!-- Node801&#45;&gt;Node802 -->
<g id="edge1" class="edge">
<title>Node801&#45;&gt;Node802</title>
<path fill="none" stroke="#191970" d="M69.8792,-22.9718C84.4676,-28.0344 100.8917,-33.7341 114.3774,-38.4141"/>
<polygon fill="#191970" stroke="#191970" points="70.7263,-19.561 60.1315,-19.589 68.4313,-26.1741 70.7263,-19.561"/>
</g>
<!-- Node803 -->
<g id="node3" class="node">
<title>Node803</title>
<g id="a_node3"><a xlink:href="../../d2/d33/build_2include_2omc_2lpsolve_2lp__matrix_8h.html#a5837615af370330b157d64f375718962" target="_top" xlink:title="mat_setrow">
<polygon fill="#ffffff" stroke="#000000" points="108,-.5 108,-19.5 176,-19.5 176,-.5 108,-.5"/>
<text text-anchor="middle" x="142" y="-7.5" font-family="Helvetica,sans-Serif" font-size="10.00" fill="#000000">mat_setrow</text>
</a>
</g>
</g>
<!-- Node801&#45;&gt;Node803 -->
<g id="edge2" class="edge">
<title>Node801&#45;&gt;Node803</title>
<path fill="none" stroke="#191970" d="M75.1808,-3.3979C86.0137,-3.1284 97.51,-3.2272 107.8566,-3.6943"/>
<polygon fill="#191970" stroke="#191970" points="74.9221,.095 65.0571,-3.7692 75.1787,-6.9003 74.9221,.095"/>
</g>
<!-- Node803&#45;&gt;Node801 -->
<g id="edge3" class="edge">
<title>Node803&#45;&gt;Node801</title>
<path fill="none" stroke="#191970" d="M97.6436,-16.6407C86.7473,-16.8724 75.2808,-16.7357 65.0571,-16.2308"/>
<polygon fill="#191970" stroke="#191970" points="97.9768,-20.1318 107.8566,-16.3057 97.7472,-13.1355 97.9768,-20.1318"/>
</g>
</g>
</svg>
