<?xml version="1.0" encoding="UTF-8" standalone="no"?>
<!DOCTYPE svg PUBLIC "-//W3C//DTD SVG 1.1//EN"
 "http://www.w3.org/Graphics/SVG/1.1/DTD/svg11.dtd">
<!-- Generated by graphviz version 2.40.1 (20161225.0304)
 -->
<!-- Title: mat_validate Pages: 1 -->
<svg width="421pt" height="142pt"
 viewBox="0.00 0.00 421.00 142.00" xmlns="http://www.w3.org/2000/svg" xmlns:xlink="http://www.w3.org/1999/xlink">
<g id="graph0" class="graph" transform="scale(1 1) rotate(0) translate(4 138)">
<title>mat_validate</title>
<polygon fill="#ffffff" stroke="transparent" points="-4,4 -4,-138 417,-138 417,4 -4,4"/>
<!-- Node856 -->
<g id="node1" class="node">
<title>Node856</title>
<polygon fill="#bfbfbf" stroke="#000000" points="0,-57.5 0,-76.5 72,-76.5 72,-57.5 0,-57.5"/>
<text text-anchor="middle" x="36" y="-64.5" font-family="Helvetica,sans-Serif" font-size="10.00" fill="#000000">mat_validate</text>
</g>
<!-- Node857 -->
<g id="node2" class="node">
<title>Node857</title>
<g id="a_node2"><a xlink:href="../../d2/d33/build_2include_2omc_2lpsolve_2lp__matrix_8h.html#adbd1aad8dd9973d9fcb55ffe330bcf4c" target="_top" xlink:title="mat_rowlength">
<polygon fill="#ffffff" stroke="#000000" points="111,-114.5 111,-133.5 191,-133.5 191,-114.5 111,-114.5"/>
<text text-anchor="middle" x="151" y="-121.5" font-family="Helvetica,sans-Serif" font-size="10.00" fill="#000000">mat_rowlength</text>
</a>
</g>
</g>
<!-- Node856&#45;&gt;Node857 -->
<g id="edge1" class="edge">
<title>Node856&#45;&gt;Node857</title>
<path fill="none" stroke="#191970" d="M62.0868,-81.3288C75.6622,-88.642 92.5986,-97.5443 108,-105 114.6115,-108.2006 121.8889,-111.4991 128.5468,-114.4311"/>
<polygon fill="#191970" stroke="#191970" points="63.7449,-78.2465 53.2856,-76.5569 60.4084,-84.4002 63.7449,-78.2465"/>
</g>
<!-- Node858 -->
<g id="node3" class="node">
<title>Node858</title>
<g id="a_node3"><a xlink:href="../../d2/d33/build_2include_2omc_2lpsolve_2lp__matrix_8h.html#a331839e0f42ab0c1d448bc60992236a3" target="_top" xlink:title="mat_indexrange">
<polygon fill="#ffffff" stroke="#000000" points="108,-76.5 108,-95.5 194,-95.5 194,-76.5 108,-76.5"/>
<text text-anchor="middle" x="151" y="-83.5" font-family="Helvetica,sans-Serif" font-size="10.00" fill="#000000">mat_indexrange</text>
</a>
</g>
</g>
<!-- Node856&#45;&gt;Node858 -->
<g id="edge2" class="edge">
<title>Node856&#45;&gt;Node858</title>
<path fill="none" stroke="#191970" d="M82.169,-74.6279C90.6284,-76.0256 99.4286,-77.4795 107.7973,-78.8622"/>
<polygon fill="#191970" stroke="#191970" points="82.508,-71.1366 72.0712,-72.9596 81.3669,-78.0429 82.508,-71.1366"/>
</g>
<!-- Node859 -->
<g id="node4" class="node">
<title>Node859</title>
<g id="a_node4"><a xlink:href="../../d2/d33/build_2include_2omc_2lpsolve_2lp__matrix_8h.html#a5837615af370330b157d64f375718962" target="_top" xlink:title="mat_setrow">
<polygon fill="#ffffff" stroke="#000000" points="117,-38.5 117,-57.5 185,-57.5 185,-38.5 117,-38.5"/>
<text text-anchor="middle" x="151" y="-45.5" font-family="Helvetica,sans-Serif" font-size="10.00" fill="#000000">mat_setrow</text>
</a>
</g>
</g>
<!-- Node856&#45;&gt;Node859 -->
<g id="edge3" class="edge">
<title>Node856&#45;&gt;Node859</title>
<path fill="none" stroke="#191970" d="M82.0069,-59.3989C93.5583,-57.4904 105.7549,-55.4753 116.6277,-53.6789"/>
<polygon fill="#191970" stroke="#191970" points="81.3669,-55.9571 72.0712,-61.0404 82.508,-62.8634 81.3669,-55.9571"/>
</g>
<!-- Node862 -->
<g id="node7" class="node">
<title>Node862</title>
<g id="a_node7"><a xlink:href="../../d2/d33/build_2include_2omc_2lpsolve_2lp__matrix_8h.html#a8d86bb85bc75750c913d7396e3610a20" target="_top" xlink:title="mat_multrow">
<polygon fill="#ffffff" stroke="#000000" points="114.5,-.5 114.5,-19.5 187.5,-19.5 187.5,-.5 114.5,-.5"/>
<text text-anchor="middle" x="151" y="-7.5" font-family="Helvetica,sans-Serif" font-size="10.00" fill="#000000">mat_multrow</text>
</a>
</g>
</g>
<!-- Node856&#45;&gt;Node862 -->
<g id="edge7" class="edge">
<title>Node856&#45;&gt;Node862</title>
<path fill="none" stroke="#191970" d="M62.0868,-52.6712C75.6622,-45.358 92.5986,-36.4557 108,-29 114.6115,-25.7994 121.8889,-22.5009 128.5468,-19.5689"/>
<polygon fill="#191970" stroke="#191970" points="60.4084,-49.5998 53.2856,-57.4431 63.7449,-55.7535 60.4084,-49.5998"/>
</g>
<!-- Node860 -->
<g id="node5" class="node">
<title>Node860</title>
<g id="a_node5"><a xlink:href="../../d2/d33/build_2include_2omc_2lpsolve_2lp__matrix_8h.html#a71e7dd8e4b57b44fa4edffdffd67436a" target="_top" xlink:title="mat_setcol">
<polygon fill="#ffffff" stroke="#000000" points="230,-38.5 230,-57.5 295,-57.5 295,-38.5 230,-38.5"/>
<text text-anchor="middle" x="262.5" y="-45.5" font-family="Helvetica,sans-Serif" font-size="10.00" fill="#000000">mat_setcol</text>
</a>
</g>
</g>
<!-- Node859&#45;&gt;Node860 -->
<g id="edge4" class="edge">
<title>Node859&#45;&gt;Node860</title>
<path fill="none" stroke="#191970" d="M195.3644,-41.3767C206.8563,-41.1177 219.0223,-41.2558 229.795,-41.7911"/>
<polygon fill="#191970" stroke="#191970" points="194.9351,-37.8892 185.0595,-41.7263 195.1725,-44.8851 194.9351,-37.8892"/>
</g>
<!-- Node860&#45;&gt;Node859 -->
<g id="edge6" class="edge">
<title>Node860&#45;&gt;Node859</title>
<path fill="none" stroke="#191970" d="M219.5693,-54.5888C208.1373,-54.881 195.9449,-54.776 185.0595,-54.2737"/>
<polygon fill="#191970" stroke="#191970" points="219.9319,-58.0779 229.795,-54.2089 219.6719,-51.0827 219.9319,-58.0779"/>
</g>
<!-- Node861 -->
<g id="node6" class="node">
<title>Node861</title>
<g id="a_node6"><a xlink:href="../../d2/d33/build_2include_2omc_2lpsolve_2lp__matrix_8h.html#a8025e5e32b2dc272bdd7ad3b6381d314" target="_top" xlink:title="mat_mergemat">
<polygon fill="#ffffff" stroke="#000000" points="331,-38.5 331,-57.5 413,-57.5 413,-38.5 331,-38.5"/>
<text text-anchor="middle" x="372" y="-45.5" font-family="Helvetica,sans-Serif" font-size="10.00" fill="#000000">mat_mergemat</text>
</a>
</g>
</g>
<!-- Node860&#45;&gt;Node861 -->
<g id="edge5" class="edge">
<title>Node860&#45;&gt;Node861</title>
<path fill="none" stroke="#191970" d="M305.1057,-48C313.5565,-48 322.4137,-48 330.816,-48"/>
<polygon fill="#191970" stroke="#191970" points="305.0572,-44.5001 295.0571,-48 305.0571,-51.5001 305.0572,-44.5001"/>
</g>
</g>
</svg>
