<?xml version="1.0" encoding="UTF-8" standalone="no"?>
<!DOCTYPE svg PUBLIC "-//W3C//DTD SVG 1.1//EN"
 "http://www.w3.org/Graphics/SVG/1.1/DTD/svg11.dtd">
<!-- Generated by graphviz version 2.40.1 (20161225.0304)
 -->
<!-- Title: mat_memopt Pages: 1 -->
<svg width="181pt" height="142pt"
 viewBox="0.00 0.00 181.00 142.00" xmlns="http://www.w3.org/2000/svg" xmlns:xlink="http://www.w3.org/1999/xlink">
<g id="graph0" class="graph" transform="scale(1 1) rotate(0) translate(4 138)">
<title>mat_memopt</title>
<polygon fill="#ffffff" stroke="transparent" points="-4,4 -4,-138 177,-138 177,4 -4,4"/>
<!-- Node414 -->
<g id="node1" class="node">
<title>Node414</title>
<polygon fill="#bfbfbf" stroke="#000000" points="0,-57.5 0,-76.5 74,-76.5 74,-57.5 0,-57.5"/>
<text text-anchor="middle" x="37" y="-64.5" font-family="Helvetica,sans-Serif" font-size="10.00" fill="#000000">mat_memopt</text>
</g>
<!-- Node415 -->
<g id="node2" class="node">
<title>Node415</title>
<g id="a_node2"><a xlink:href="../../dc/de4/3rd_party_2lpsolve_2build_2include_2lpsolve_2lp__lib_8h.html#ab3ddb3000059d0f1975540149e46effa" target="_top" xlink:title="MYBOOL">
<polygon fill="#ffffff" stroke="#000000" points="112,-114.5 112,-133.5 171,-133.5 171,-114.5 112,-114.5"/>
<text text-anchor="middle" x="141.5" y="-121.5" font-family="Helvetica,sans-Serif" font-size="10.00" fill="#000000">MYBOOL</text>
</a>
</g>
</g>
<!-- Node414&#45;&gt;Node415 -->
<g id="edge1" class="edge">
<title>Node414&#45;&gt;Node415</title>
<path fill="none" stroke="#191970" d="M54.727,-76.6693C71.2655,-85.6903 96.1567,-99.2673 115.0447,-109.5698"/>
<polygon fill="#191970" stroke="#191970" points="113.5798,-112.7576 124.0348,-114.4735 116.9318,-106.6123 113.5798,-112.7576"/>
</g>
<!-- Node416 -->
<g id="node3" class="node">
<title>Node416</title>
<g id="a_node3"><a xlink:href="../../dc/d51/mallocx_8c.html#a107a5b003f5c4846342feae2c4b5e379" target="_top" xlink:title="realloc">
<polygon fill="#ffffff" stroke="#000000" points="119,-76.5 119,-95.5 164,-95.5 164,-76.5 119,-76.5"/>
<text text-anchor="middle" x="141.5" y="-83.5" font-family="Helvetica,sans-Serif" font-size="10.00" fill="#000000">realloc</text>
</a>
</g>
</g>
<!-- Node414&#45;&gt;Node416 -->
<g id="edge2" class="edge">
<title>Node414&#45;&gt;Node416</title>
<path fill="none" stroke="#191970" d="M74.137,-73.7522C85.4291,-75.8053 97.7515,-78.0457 108.7336,-80.0425"/>
<polygon fill="#191970" stroke="#191970" points="108.3099,-83.5227 118.7747,-81.8681 109.5622,-76.6357 108.3099,-83.5227"/>
</g>
<!-- Node417 -->
<g id="node4" class="node">
<title>Node417</title>
<g id="a_node4"><a xlink:href="../../d1/daa/3rd_party_2lpsolve_2build_2include_2lpsolve_2lp__utils_8h.html#a2081b8e14a0691b7e3931fa280ad9e63" target="_top" xlink:title="allocINT">
<polygon fill="#ffffff" stroke="#000000" points="115,-38.5 115,-57.5 168,-57.5 168,-38.5 115,-38.5"/>
<text text-anchor="middle" x="141.5" y="-45.5" font-family="Helvetica,sans-Serif" font-size="10.00" fill="#000000">allocINT</text>
</a>
</g>
</g>
<!-- Node414&#45;&gt;Node417 -->
<g id="edge3" class="edge">
<title>Node414&#45;&gt;Node417</title>
<path fill="none" stroke="#191970" d="M74.137,-60.2478C84.1513,-58.427 94.9759,-56.4589 104.9574,-54.6441"/>
<polygon fill="#191970" stroke="#191970" points="105.772,-58.0535 114.9846,-52.821 104.5198,-51.1664 105.772,-58.0535"/>
</g>
<!-- Node418 -->
<g id="node5" class="node">
<title>Node418</title>
<g id="a_node5"><a xlink:href="../../d1/daa/3rd_party_2lpsolve_2build_2include_2lpsolve_2lp__utils_8h.html#a7b25e1f9aee74052b4b6df28443ebf48" target="_top" xlink:title="allocREAL">
<polygon fill="#ffffff" stroke="#000000" points="110,-.5 110,-19.5 173,-19.5 173,-.5 110,-.5"/>
<text text-anchor="middle" x="141.5" y="-7.5" font-family="Helvetica,sans-Serif" font-size="10.00" fill="#000000">allocREAL</text>
</a>
</g>
</g>
<!-- Node414&#45;&gt;Node418 -->
<g id="edge4" class="edge">
<title>Node414&#45;&gt;Node418</title>
<path fill="none" stroke="#191970" d="M54.727,-57.3307C71.2655,-48.3097 96.1567,-34.7327 115.0447,-24.4302"/>
<polygon fill="#191970" stroke="#191970" points="116.9318,-27.3877 124.0348,-19.5265 113.5798,-21.2424 116.9318,-27.3877"/>
</g>
</g>
</svg>
