<?xml version="1.0" encoding="UTF-8" standalone="no"?>
<!DOCTYPE svg PUBLIC "-//W3C//DTD SVG 1.1//EN"
 "http://www.w3.org/Graphics/SVG/1.1/DTD/svg11.dtd">
<!-- Generated by graphviz version 2.40.1 (20161225.0304)
 -->
<!-- Title: mat_collength Pages: 1 -->
<svg width="312pt" height="104pt"
 viewBox="0.00 0.00 312.00 104.00" xmlns="http://www.w3.org/2000/svg" xmlns:xlink="http://www.w3.org/1999/xlink">
<g id="graph0" class="graph" transform="scale(1 1) rotate(0) translate(4 100)">
<title>mat_collength</title>
<polygon fill="#ffffff" stroke="transparent" points="-4,4 -4,-100 308,-100 308,4 -4,4"/>
<!-- Node158 -->
<g id="node1" class="node">
<title>Node158</title>
<polygon fill="#bfbfbf" stroke="#000000" points="0,-38.5 0,-57.5 77,-57.5 77,-38.5 0,-38.5"/>
<text text-anchor="middle" x="38.5" y="-45.5" font-family="Helvetica,sans-Serif" font-size="10.00" fill="#000000">mat_collength</text>
</g>
<!-- Node159 -->
<g id="node2" class="node">
<title>Node159</title>
<g id="a_node2"><a xlink:href="../../d2/d33/build_2include_2omc_2lpsolve_2lp__matrix_8h.html#a71e7dd8e4b57b44fa4edffdffd67436a" target="_top" xlink:title="mat_setcol">
<polygon fill="#ffffff" stroke="#000000" points="117,-38.5 117,-57.5 182,-57.5 182,-38.5 117,-38.5"/>
<text text-anchor="middle" x="149.5" y="-45.5" font-family="Helvetica,sans-Serif" font-size="10.00" fill="#000000">mat_setcol</text>
</a>
</g>
</g>
<!-- Node158&#45;&gt;Node159 -->
<g id="edge1" class="edge">
<title>Node158&#45;&gt;Node159</title>
<path fill="none" stroke="#191970" d="M87.3037,-48C97.3373,-48 107.6672,-48 116.9557,-48"/>
<polygon fill="#191970" stroke="#191970" points="87.0109,-44.5001 77.0109,-48 87.0109,-51.5001 87.0109,-44.5001"/>
</g>
<!-- Node160 -->
<g id="node3" class="node">
<title>Node160</title>
<g id="a_node3"><a xlink:href="../../d2/d33/build_2include_2omc_2lpsolve_2lp__matrix_8h.html#a8025e5e32b2dc272bdd7ad3b6381d314" target="_top" xlink:title="mat_mergemat">
<polygon fill="#ffffff" stroke="#000000" points="222,-76.5 222,-95.5 304,-95.5 304,-76.5 222,-76.5"/>
<text text-anchor="middle" x="263" y="-83.5" font-family="Helvetica,sans-Serif" font-size="10.00" fill="#000000">mat_mergemat</text>
</a>
</g>
</g>
<!-- Node158&#45;&gt;Node160 -->
<g id="edge5" class="edge">
<title>Node158&#45;&gt;Node160</title>
<path fill="none" stroke="#191970" d="M82.222,-60.1114C92.2795,-62.6291 102.9684,-65.093 113,-67 149.4899,-73.9365 191.4687,-79.0097 221.7203,-82.1602"/>
<polygon fill="#191970" stroke="#191970" points="82.979,-56.6923 72.4227,-57.5944 81.2375,-63.4722 82.979,-56.6923"/>
</g>
<!-- Node162 -->
<g id="node5" class="node">
<title>Node162</title>
<g id="a_node5"><a xlink:href="../../d2/d33/build_2include_2omc_2lpsolve_2lp__matrix_8h.html#a8d86bb85bc75750c913d7396e3610a20" target="_top" xlink:title="mat_multrow">
<polygon fill="#ffffff" stroke="#000000" points="113,-.5 113,-19.5 186,-19.5 186,-.5 113,-.5"/>
<text text-anchor="middle" x="149.5" y="-7.5" font-family="Helvetica,sans-Serif" font-size="10.00" fill="#000000">mat_multrow</text>
</a>
</g>
</g>
<!-- Node158&#45;&gt;Node162 -->
<g id="edge6" class="edge">
<title>Node158&#45;&gt;Node162</title>
<path fill="none" stroke="#191970" d="M76.3913,-35.0282C91.1795,-29.9656 107.8285,-24.2659 121.499,-19.5859"/>
<polygon fill="#191970" stroke="#191970" points="74.8373,-31.8607 66.51,-38.411 77.1046,-38.4834 74.8373,-31.8607"/>
</g>
<!-- Node159&#45;&gt;Node160 -->
<g id="edge2" class="edge">
<title>Node159&#45;&gt;Node160</title>
<path fill="none" stroke="#191970" d="M187.809,-60.8259C203.0383,-65.9247 220.2556,-71.6891 234.3683,-76.4141"/>
<polygon fill="#191970" stroke="#191970" points="188.7347,-57.445 178.1408,-57.589 186.5123,-64.0828 188.7347,-57.445"/>
</g>
<!-- Node161 -->
<g id="node4" class="node">
<title>Node161</title>
<g id="a_node4"><a xlink:href="../../d2/d33/build_2include_2omc_2lpsolve_2lp__matrix_8h.html#a5837615af370330b157d64f375718962" target="_top" xlink:title="mat_setrow">
<polygon fill="#ffffff" stroke="#000000" points="229,-38.5 229,-57.5 297,-57.5 297,-38.5 229,-38.5"/>
<text text-anchor="middle" x="263" y="-45.5" font-family="Helvetica,sans-Serif" font-size="10.00" fill="#000000">mat_setrow</text>
</a>
</g>
</g>
<!-- Node159&#45;&gt;Node161 -->
<g id="edge3" class="edge">
<title>Node159&#45;&gt;Node161</title>
<path fill="none" stroke="#191970" d="M192.3477,-41.4333C204.425,-41.1089 217.3974,-41.2151 228.8886,-41.752"/>
<polygon fill="#191970" stroke="#191970" points="191.883,-37.9485 182.0245,-41.8294 192.1514,-44.9434 191.883,-37.9485"/>
</g>
<!-- Node161&#45;&gt;Node159 -->
<g id="edge4" class="edge">
<title>Node161&#45;&gt;Node159</title>
<path fill="none" stroke="#191970" d="M218.8368,-54.6002C206.5752,-54.8965 193.4881,-54.7533 182.0245,-54.1706"/>
<polygon fill="#191970" stroke="#191970" points="219.0173,-58.0961 228.8886,-54.248 218.7721,-51.1004 219.0173,-58.0961"/>
</g>
</g>
</svg>
