<?xml version="1.0" encoding="UTF-8" standalone="no"?>
<!DOCTYPE svg PUBLIC "-//W3C//DTD SVG 1.1//EN"
 "http://www.w3.org/Graphics/SVG/1.1/DTD/svg11.dtd">
<!-- Generated by graphviz version 2.40.1 (20161225.0304)
 -->
<!-- Title: Teuchos::SerialDenseSolver::factor Pages: 1 -->
<svg width="581pt" height="199pt"
 viewBox="0.00 0.00 581.00 199.20" xmlns="http://www.w3.org/2000/svg" xmlns:xlink="http://www.w3.org/1999/xlink">
<g id="graph0" class="graph" transform="scale(1 1) rotate(0) translate(4 195.2038)">
<title>Teuchos::SerialDenseSolver::factor</title>
<polygon fill="#ffffff" stroke="transparent" points="-4,4 -4,-195.2038 577,-195.2038 577,4 -4,4"/>
<!-- Node121 -->
<g id="node1" class="node">
<title>Node121</title>
<polygon fill="#bfbfbf" stroke="#000000" points="0,-93.5 0,-123.5 141,-123.5 141,-93.5 0,-93.5"/>
<text text-anchor="start" x="8" y="-111.5" font-family="Helvetica,sans-Serif" font-size="10.00" fill="#000000">Teuchos::SerialDenseSolver</text>
<text text-anchor="middle" x="70.5" y="-100.5" font-family="Helvetica,sans-Serif" font-size="10.00" fill="#000000">::factor</text>
</g>
<!-- Node122 -->
<g id="node2" class="node">
<title>Node122</title>
<g id="a_node2"><a xlink:href="../../d5/d76/teuchos_2numerics_2example_2_dense_matrix_2cxx__main_8cpp.html#a0ddf1224851353fc92bfbff6f499fa97" target="_top" xlink:title="main">
<polygon fill="#ffffff" stroke="#000000" points="409.5,-165 409.5,-184 447.5,-184 447.5,-165 409.5,-165"/>
<text text-anchor="middle" x="428.5" y="-172" font-family="Helvetica,sans-Serif" font-size="10.00" fill="#000000">main</text>
</a>
</g>
</g>
<!-- Node121&#45;&gt;Node122 -->
<g id="edge1" class="edge">
<title>Node121&#45;&gt;Node122</title>
<path fill="none" stroke="#191970" d="M94.8179,-130.16C115.1648,-146.7391 145.8045,-168.2776 177,-177.5 260.5401,-202.1971 366.612,-186.5795 409.3635,-178.4829"/>
<polygon fill="#191970" stroke="#191970" points="96.9349,-127.3677 87.0194,-123.6349 92.4429,-132.7363 96.9349,-127.3677"/>
</g>
<!-- Node123 -->
<g id="node3" class="node">
<title>Node123</title>
<g id="a_node3"><a xlink:href="../../d2/d56/class_teuchos_1_1_serial_dense_solver.html#a9b8b4063a4a319289bce3f5a39234e48" target="_top" xlink:title="Causes all solves to compute solution to best ability using iterative refinement. ...">
<polygon fill="#ffffff" stroke="#000000" points="358,-49.5 358,-79.5 499,-79.5 499,-49.5 358,-49.5"/>
<text text-anchor="start" x="366" y="-67.5" font-family="Helvetica,sans-Serif" font-size="10.00" fill="#000000">Teuchos::SerialDenseSolver</text>
<text text-anchor="middle" x="428.5" y="-56.5" font-family="Helvetica,sans-Serif" font-size="10.00" fill="#000000">::solveToRefinedSolution</text>
</a>
</g>
</g>
<!-- Node121&#45;&gt;Node123 -->
<g id="edge2" class="edge">
<title>Node121&#45;&gt;Node123</title>
<path fill="none" stroke="#191970" d="M151.0423,-105.5986C200.5727,-103.027 265.2171,-98.2554 322,-89.5 338.3302,-86.982 355.8611,-83.2882 371.8905,-79.5084"/>
<polygon fill="#191970" stroke="#191970" points="150.8408,-102.1042 141.0281,-106.0993 151.1904,-109.0955 150.8408,-102.1042"/>
</g>
<!-- Node125 -->
<g id="node5" class="node">
<title>Node125</title>
<g id="a_node5"><a xlink:href="../../d2/d56/class_teuchos_1_1_serial_dense_solver.html#adc64b51fe90fbabac20eb5ebc7278776" target="_top" xlink:title="Computes the solution X to AX = B for the this matrix and the B provided to SetVectors().. ">
<polygon fill="#ffffff" stroke="#000000" points="179,-137.5 179,-167.5 320,-167.5 320,-137.5 179,-137.5"/>
<text text-anchor="start" x="187" y="-155.5" font-family="Helvetica,sans-Serif" font-size="10.00" fill="#000000">Teuchos::SerialDenseSolver</text>
<text text-anchor="middle" x="249.5" y="-144.5" font-family="Helvetica,sans-Serif" font-size="10.00" fill="#000000">::solve</text>
</a>
</g>
</g>
<!-- Node121&#45;&gt;Node125 -->
<g id="edge4" class="edge">
<title>Node121&#45;&gt;Node125</title>
<path fill="none" stroke="#191970" d="M141.634,-125.9855C157.1005,-129.7873 173.3316,-133.777 188.3707,-137.4738"/>
<polygon fill="#191970" stroke="#191970" points="142.1474,-122.5075 131.601,-123.5192 140.4764,-129.3052 142.1474,-122.5075"/>
</g>
<!-- Node126 -->
<g id="node6" class="node">
<title>Node126</title>
<g id="a_node6"><a xlink:href="../../d2/d56/class_teuchos_1_1_serial_dense_solver.html#a700ba09e4c9f3e9680b63cc49715ee08" target="_top" xlink:title="Inverts the this matrix. ">
<polygon fill="#ffffff" stroke="#000000" points="179,-.5 179,-30.5 320,-30.5 320,-.5 179,-.5"/>
<text text-anchor="start" x="187" y="-18.5" font-family="Helvetica,sans-Serif" font-size="10.00" fill="#000000">Teuchos::SerialDenseSolver</text>
<text text-anchor="middle" x="249.5" y="-7.5" font-family="Helvetica,sans-Serif" font-size="10.00" fill="#000000">::invert</text>
</a>
</g>
</g>
<!-- Node121&#45;&gt;Node126 -->
<g id="edge7" class="edge">
<title>Node121&#45;&gt;Node126</title>
<path fill="none" stroke="#191970" d="M98.7653,-87.3321C119.5811,-72.4682 149.017,-52.9237 177,-39.5 183.8139,-36.2313 191.1877,-33.2284 198.5344,-30.5349"/>
<polygon fill="#191970" stroke="#191970" points="96.451,-84.6864 90.4013,-93.3842 100.5546,-90.3575 96.451,-84.6864"/>
</g>
<!-- Node127 -->
<g id="node7" class="node">
<title>Node127</title>
<g id="a_node7"><a xlink:href="../../d2/d56/class_teuchos_1_1_serial_dense_solver.html#a83a5b2c8bd0932ff63b438f3c36f878b" target="_top" xlink:title="Returns the reciprocal of the 1&#45;norm condition number of the this matrix. ">
<polygon fill="#ffffff" stroke="#000000" points="177,-49.5 177,-79.5 322,-79.5 322,-49.5 177,-49.5"/>
<text text-anchor="start" x="185" y="-67.5" font-family="Helvetica,sans-Serif" font-size="10.00" fill="#000000">Teuchos::SerialDenseSolver</text>
<text text-anchor="middle" x="249.5" y="-56.5" font-family="Helvetica,sans-Serif" font-size="10.00" fill="#000000">::reciprocalConditionEstimate</text>
</a>
</g>
</g>
<!-- Node121&#45;&gt;Node127 -->
<g id="edge10" class="edge">
<title>Node121&#45;&gt;Node127</title>
<path fill="none" stroke="#191970" d="M141.634,-91.0145C157.1005,-87.2127 173.3316,-83.223 188.3707,-79.5262"/>
<polygon fill="#191970" stroke="#191970" points="140.4764,-87.6948 131.601,-93.4808 142.1474,-94.4925 140.4764,-87.6948"/>
</g>
<!-- Node124 -->
<g id="node4" class="node">
<title>Node124</title>
<g id="a_node4"><a xlink:href="../../d2/d6e/cxx__main__solver_8cpp.html#a0ddf1224851353fc92bfbff6f499fa97" target="_top" xlink:title="main">
<polygon fill="#ffffff" stroke="#000000" points="535,-31 535,-50 573,-50 573,-31 535,-31"/>
<text text-anchor="middle" x="554" y="-38" font-family="Helvetica,sans-Serif" font-size="10.00" fill="#000000">main</text>
</a>
</g>
</g>
<!-- Node123&#45;&gt;Node124 -->
<g id="edge3" class="edge">
<title>Node123&#45;&gt;Node124</title>
<path fill="none" stroke="#191970" d="M509.3319,-49.0421C518.7716,-47.2369 527.6144,-45.5459 534.9009,-44.1524"/>
<polygon fill="#191970" stroke="#191970" points="508.4835,-45.6408 499.319,-50.9569 509.7984,-52.5162 508.4835,-45.6408"/>
</g>
<!-- Node125&#45;&gt;Node122 -->
<g id="edge5" class="edge">
<title>Node125&#45;&gt;Node122</title>
<path fill="none" stroke="#191970" d="M330.5417,-162.4604C359.8536,-166.063 390.3864,-169.8156 409.4128,-172.1541"/>
<polygon fill="#191970" stroke="#191970" points="330.5978,-158.9411 320.2455,-161.195 329.7439,-165.8888 330.5978,-158.9411"/>
</g>
<!-- Node125&#45;&gt;Node123 -->
<g id="edge6" class="edge">
<title>Node125&#45;&gt;Node123</title>
<path fill="none" stroke="#191970" d="M297.6872,-133.4033C305.8666,-129.9222 314.2252,-126.2127 322,-122.5 350.118,-109.0727 381.3199,-91.7855 402.6421,-79.5891"/>
<polygon fill="#191970" stroke="#191970" points="296.0848,-130.2798 288.2134,-137.3715 298.7892,-136.7363 296.0848,-130.2798"/>
</g>
<!-- Node126&#45;&gt;Node123 -->
<g id="edge8" class="edge">
<title>Node126&#45;&gt;Node123</title>
<path fill="none" stroke="#191970" d="M314.3362,-33.2485C333.7363,-38.5591 354.8133,-44.3288 373.5157,-49.4484"/>
<polygon fill="#191970" stroke="#191970" points="315.2358,-29.866 304.6665,-30.6014 313.3875,-36.6176 315.2358,-29.866"/>
</g>
<!-- Node126&#45;&gt;Node124 -->
<g id="edge9" class="edge">
<title>Node126&#45;&gt;Node124</title>
<path fill="none" stroke="#191970" d="M330.1622,-22.1225C399.528,-27.8176 494.5625,-35.6201 534.779,-38.9219"/>
<polygon fill="#191970" stroke="#191970" points="330.3767,-18.6284 320.1238,-21.2983 329.8038,-25.605 330.3767,-18.6284"/>
</g>
<!-- Node127&#45;&gt;Node123 -->
<g id="edge11" class="edge">
<title>Node127&#45;&gt;Node123</title>
<path fill="none" stroke="#191970" d="M332.1018,-64.5C340.716,-64.5 349.416,-64.5 357.8799,-64.5"/>
<polygon fill="#191970" stroke="#191970" points="332.0481,-61.0001 322.0481,-64.5 332.0481,-68.0001 332.0481,-61.0001"/>
</g>
</g>
</svg>
