<?xml version="1.0" encoding="UTF-8" standalone="no"?>
<!DOCTYPE svg PUBLIC "-//W3C//DTD SVG 1.1//EN"
 "http://www.w3.org/Graphics/SVG/1.1/DTD/svg11.dtd">
<!-- Generated by graphviz version 2.40.1 (20161225.0304)
 -->
<!-- Title: Teuchos::SerialDenseSolver::setMatrix Pages: 1 -->
<svg width="503pt" height="78pt"
 viewBox="0.00 0.00 503.00 77.50" xmlns="http://www.w3.org/2000/svg" xmlns:xlink="http://www.w3.org/1999/xlink">
<g id="graph0" class="graph" transform="scale(1 1) rotate(0) translate(4 73.5)">
<title>Teuchos::SerialDenseSolver::setMatrix</title>
<polygon fill="#ffffff" stroke="transparent" points="-4,4 -4,-73.5 499,-73.5 499,4 -4,4"/>
<!-- Node304 -->
<g id="node1" class="node">
<title>Node304</title>
<polygon fill="#bfbfbf" stroke="#000000" points="0,-17 0,-47 141,-47 141,-17 0,-17"/>
<text text-anchor="start" x="8" y="-35" font-family="Helvetica,sans-Serif" font-size="10.00" fill="#000000">Teuchos::SerialDenseSolver</text>
<text text-anchor="middle" x="70.5" y="-24" font-family="Helvetica,sans-Serif" font-size="10.00" fill="#000000">::setMatrix</text>
</g>
<!-- Node305 -->
<g id="node2" class="node">
<title>Node305</title>
<g id="a_node2"><a xlink:href="../../d2/d56/class_teuchos_1_1_serial_dense_solver.html#a41356f6eed327e87e83cde0357da068a" target="_top" xlink:title="Teuchos::SerialDenseSolver\l::resetMatrix">
<polygon fill="#ffffff" stroke="#000000" points="177,-17 177,-47 318,-47 318,-17 177,-17"/>
<text text-anchor="start" x="185" y="-35" font-family="Helvetica,sans-Serif" font-size="10.00" fill="#000000">Teuchos::SerialDenseSolver</text>
<text text-anchor="middle" x="247.5" y="-24" font-family="Helvetica,sans-Serif" font-size="10.00" fill="#000000">::resetMatrix</text>
</a>
</g>
</g>
<!-- Node304&#45;&gt;Node305 -->
<g id="edge1" class="edge">
<title>Node304&#45;&gt;Node305</title>
<path fill="none" stroke="#191970" d="M141.2182,-32C149.57,-32 158.1422,-32 166.6204,-32"/>
<polygon fill="#191970" stroke="#191970" points="166.8942,-35.5001 176.8942,-32 166.8942,-28.5001 166.8942,-35.5001"/>
</g>
<!-- Node306 -->
<g id="node3" class="node">
<title>Node306</title>
<g id="a_node3"><a xlink:href="../../d2/d56/class_teuchos_1_1_serial_dense_solver.html#a3c36cd3065a377e851ed20961df34afe" target="_top" xlink:title="Teuchos::SerialDenseSolver\l::resetVectors">
<polygon fill="#ffffff" stroke="#000000" points="354,-39 354,-69 495,-69 495,-39 354,-39"/>
<text text-anchor="start" x="362" y="-57" font-family="Helvetica,sans-Serif" font-size="10.00" fill="#000000">Teuchos::SerialDenseSolver</text>
<text text-anchor="middle" x="424.5" y="-46" font-family="Helvetica,sans-Serif" font-size="10.00" fill="#000000">::resetVectors</text>
</a>
</g>
</g>
<!-- Node305&#45;&gt;Node306 -->
<g id="edge2" class="edge">
<title>Node305&#45;&gt;Node306</title>
<path fill="none" stroke="#191970" d="M318.2182,-40.7898C326.6618,-41.8393 335.3306,-42.9168 343.8998,-43.9819"/>
<polygon fill="#191970" stroke="#191970" points="343.5388,-47.4639 353.8942,-45.2241 344.4023,-40.5173 343.5388,-47.4639"/>
</g>
<!-- Node307 -->
<g id="node4" class="node">
<title>Node307</title>
<g id="a_node4"><a xlink:href="../../d1/df7/struct_teuchos_1_1_scalar_traits.html#a146d96d758b245a3ca2272680ebf52b4" target="_top" xlink:title="Returns representation of one for this scalar type. ">
<polygon fill="#ffffff" stroke="#000000" points="357.5,-.5 357.5,-19.5 491.5,-19.5 491.5,-.5 357.5,-.5"/>
<text text-anchor="middle" x="424.5" y="-7.5" font-family="Helvetica,sans-Serif" font-size="10.00" fill="#000000">Teuchos::ScalarTraits::one</text>
</a>
</g>
</g>
<!-- Node305&#45;&gt;Node307 -->
<g id="edge3" class="edge">
<title>Node305&#45;&gt;Node307</title>
<path fill="none" stroke="#191970" d="M318.2182,-23.2102C327.7947,-22.0199 337.661,-20.7936 347.3431,-19.5901"/>
<polygon fill="#191970" stroke="#191970" points="347.8544,-23.0536 357.3463,-18.3468 346.9909,-16.107 347.8544,-23.0536"/>
</g>
</g>
</svg>
