<?xml version="1.0" encoding="UTF-8" standalone="no"?>
<!DOCTYPE svg PUBLIC "-//W3C//DTD SVG 1.1//EN"
 "http://www.w3.org/Graphics/SVG/1.1/DTD/svg11.dtd">
<!-- Generated by graphviz version 2.40.1 (20161225.0304)
 -->
<!-- Title: omc_AvlTreeString_setTreeLeftRight Pages: 1 -->
<svg width="503pt" height="91pt"
 viewBox="0.00 0.00 503.00 90.84" xmlns="http://www.w3.org/2000/svg" xmlns:xlink="http://www.w3.org/1999/xlink">
<g id="graph0" class="graph" transform="scale(1 1) rotate(0) translate(4 86.8435)">
<title>omc_AvlTreeString_setTreeLeftRight</title>
<polygon fill="#ffffff" stroke="transparent" points="-4,4 -4,-86.8435 499,-86.8435 499,4 -4,4"/>
<!-- Node187 -->
<g id="node1" class="node">
<title>Node187</title>
<polygon fill="#bfbfbf" stroke="#000000" points="0,-44.5 0,-74.5 138,-74.5 138,-44.5 0,-44.5"/>
<text text-anchor="start" x="8" y="-62.5" font-family="Helvetica,sans-Serif" font-size="10.00" fill="#000000">omc_AvlTreeString_setTree</text>
<text text-anchor="middle" x="69" y="-51.5" font-family="Helvetica,sans-Serif" font-size="10.00" fill="#000000">LeftRight</text>
</g>
<!-- Node188 -->
<g id="node2" class="node">
<title>Node188</title>
<g id="a_node2"><a xlink:href="../../d2/d76/_avl_tree_string_8c.html#acad0501010601d66bd792449f3563e15" target="_top" xlink:title="omc_AvlTreeString_balance">
<polygon fill="#ffffff" stroke="#000000" points="356,-50 356,-69 495,-69 495,-50 356,-50"/>
<text text-anchor="middle" x="425.5" y="-57" font-family="Helvetica,sans-Serif" font-size="10.00" fill="#000000">omc_AvlTreeString_balance</text>
</a>
</g>
</g>
<!-- Node187&#45;&gt;Node188 -->
<g id="edge1" class="edge">
<title>Node187&#45;&gt;Node188</title>
<path fill="none" stroke="#191970" d="M148.3249,-75.4029C156.9608,-76.6712 165.6451,-77.7502 174,-78.5 238.6291,-84.3003 255.3685,-84.2735 320,-78.5 340.7612,-76.6454 363.5498,-72.7769 382.6178,-69.0116"/>
<polygon fill="#191970" stroke="#191970" points="148.6508,-71.9116 138.2321,-73.8355 147.5765,-78.8287 148.6508,-71.9116"/>
</g>
<!-- Node189 -->
<g id="node3" class="node">
<title>Node189</title>
<g id="a_node3"><a xlink:href="../../d2/d76/_avl_tree_string_8c.html#a1571537ec77798b0bb8da0495a744b3f" target="_top" xlink:title="omc_AvlTreeString_rotateLeft">
<polygon fill="#ffffff" stroke="#000000" points="174,-50 174,-69 320,-69 320,-50 174,-50"/>
<text text-anchor="middle" x="247" y="-57" font-family="Helvetica,sans-Serif" font-size="10.00" fill="#000000">omc_AvlTreeString_rotateLeft</text>
</a>
</g>
</g>
<!-- Node187&#45;&gt;Node189 -->
<g id="edge2" class="edge">
<title>Node187&#45;&gt;Node189</title>
<path fill="none" stroke="#191970" d="M148.3445,-59.5C156.8297,-59.5 165.4334,-59.5 173.8421,-59.5"/>
<polygon fill="#191970" stroke="#191970" points="148.0742,-56.0001 138.0742,-59.5 148.0742,-63.0001 148.0742,-56.0001"/>
</g>
<!-- Node190 -->
<g id="node4" class="node">
<title>Node190</title>
<g id="a_node4"><a xlink:href="../../d2/d76/_avl_tree_string_8c.html#afe50245a5acfbb39e080096d70efce2b" target="_top" xlink:title="omc_AvlTreeString_rotate\lRight">
<polygon fill="#ffffff" stroke="#000000" points="182,-.5 182,-30.5 312,-30.5 312,-.5 182,-.5"/>
<text text-anchor="start" x="190" y="-18.5" font-family="Helvetica,sans-Serif" font-size="10.00" fill="#000000">omc_AvlTreeString_rotate</text>
<text text-anchor="middle" x="247" y="-7.5" font-family="Helvetica,sans-Serif" font-size="10.00" fill="#000000">Right</text>
</a>
</g>
</g>
<!-- Node187&#45;&gt;Node190 -->
<g id="edge4" class="edge">
<title>Node187&#45;&gt;Node190</title>
<path fill="none" stroke="#191970" d="M139.7366,-42.0145C155.1167,-38.2127 171.2571,-34.223 186.2122,-30.5262"/>
<polygon fill="#191970" stroke="#191970" points="138.6275,-38.6833 129.7597,-44.4808 140.3074,-45.4787 138.6275,-38.6833"/>
</g>
<!-- Node189&#45;&gt;Node188 -->
<g id="edge3" class="edge">
<title>Node189&#45;&gt;Node188</title>
<path fill="none" stroke="#191970" d="M330.1835,-59.5C338.8041,-59.5 347.5006,-59.5 355.9491,-59.5"/>
<polygon fill="#191970" stroke="#191970" points="330.1178,-56.0001 320.1178,-59.5 330.1178,-63.0001 330.1178,-56.0001"/>
</g>
<!-- Node190&#45;&gt;Node188 -->
<g id="edge5" class="edge">
<title>Node190&#45;&gt;Node188</title>
<path fill="none" stroke="#191970" d="M317.8891,-32.9741C341.4278,-38.7763 366.7475,-45.0176 386.9098,-49.9876"/>
<polygon fill="#191970" stroke="#191970" points="318.4774,-29.5144 307.9303,-30.5192 316.802,-36.3109 318.4774,-29.5144"/>
</g>
</g>
</svg>
