<?xml version="1.0" encoding="UTF-8" standalone="no"?>
<!DOCTYPE svg PUBLIC "-//W3C//DTD SVG 1.1//EN"
 "http://www.w3.org/Graphics/SVG/1.1/DTD/svg11.dtd">
<!-- Generated by graphviz version 2.40.1 (20161225.0304)
 -->
<!-- Title: omc_AvlTreeString_keyStr Pages: 1 -->
<svg width="530pt" height="28pt"
 viewBox="0.00 0.00 530.00 28.00" xmlns="http://www.w3.org/2000/svg" xmlns:xlink="http://www.w3.org/1999/xlink">
<g id="graph0" class="graph" transform="scale(1 1) rotate(0) translate(4 24)">
<title>omc_AvlTreeString_keyStr</title>
<polygon fill="#ffffff" stroke="transparent" points="-4,4 -4,-24 526,-24 526,4 -4,4"/>
<!-- Node137 -->
<g id="node1" class="node">
<title>Node137</title>
<polygon fill="#bfbfbf" stroke="#000000" points="0,-.5 0,-19.5 134,-19.5 134,-.5 0,-.5"/>
<text text-anchor="middle" x="67" y="-7.5" font-family="Helvetica,sans-Serif" font-size="10.00" fill="#000000">omc_AvlTreeString_keyStr</text>
</g>
<!-- Node138 -->
<g id="node2" class="node">
<title>Node138</title>
<g id="a_node2"><a xlink:href="../../dd/d82/_avl_tree_string_8h.html#a05ceb67b9ba7d25eaff1bfc17bfb915f" target="_top" xlink:title="omc_AvlTreeString_printNodeStr">
<polygon fill="#ffffff" stroke="#000000" points="170,-.5 170,-19.5 330,-19.5 330,-.5 170,-.5"/>
<text text-anchor="middle" x="250" y="-7.5" font-family="Helvetica,sans-Serif" font-size="10.00" fill="#000000">omc_AvlTreeString_printNodeStr</text>
</a>
</g>
</g>
<!-- Node137&#45;&gt;Node138 -->
<g id="edge1" class="edge">
<title>Node137&#45;&gt;Node138</title>
<path fill="none" stroke="#191970" d="M144.3099,-10C152.7612,-10 161.378,-10 169.8625,-10"/>
<polygon fill="#191970" stroke="#191970" points="144.1034,-6.5001 134.1033,-10 144.1033,-13.5001 144.1034,-6.5001"/>
</g>
<!-- Node139 -->
<g id="node3" class="node">
<title>Node139</title>
<g id="a_node3"><a xlink:href="../../dd/d82/_avl_tree_string_8h.html#ab62098a490c3451e684d6c85718164dd" target="_top" xlink:title="omc_AvlTreeString_printTreeStr">
<polygon fill="#ffffff" stroke="#000000" points="366,-.5 366,-19.5 522,-19.5 522,-.5 366,-.5"/>
<text text-anchor="middle" x="444" y="-7.5" font-family="Helvetica,sans-Serif" font-size="10.00" fill="#000000">omc_AvlTreeString_printTreeStr</text>
</a>
</g>
</g>
<!-- Node138&#45;&gt;Node139 -->
<g id="edge2" class="edge">
<title>Node138&#45;&gt;Node139</title>
<path fill="none" stroke="#191970" d="M340.0445,-10C348.62,-10 357.2684,-10 365.7196,-10"/>
<polygon fill="#191970" stroke="#191970" points="340.0273,-6.5001 330.0273,-10 340.0272,-13.5001 340.0273,-6.5001"/>
</g>
</g>
</svg>
