<?xml version="1.0" encoding="UTF-8" standalone="no"?>
<!DOCTYPE svg PUBLIC "-//W3C//DTD SVG 1.1//EN"
 "http://www.w3.org/Graphics/SVG/1.1/DTD/svg11.dtd">
<!-- Generated by graphviz version 2.40.1 (20161225.0304)
 -->
<!-- Title: boxptr_DynLoad_executeFunction Pages: 1 -->
<svg width="1504pt" height="583pt"
 viewBox="0.00 0.00 1504.00 582.50" xmlns="http://www.w3.org/2000/svg" xmlns:xlink="http://www.w3.org/1999/xlink">
<g id="graph0" class="graph" transform="scale(1 1) rotate(0) translate(4 578.5)">
<title>boxptr_DynLoad_executeFunction</title>
<polygon fill="#ffffff" stroke="transparent" points="-4,4 -4,-578.5 1500,-578.5 1500,4 -4,4"/>
<!-- Node0 -->
<g id="node1" class="node">
<title>Node0</title>
<polygon fill="#bfbfbf" stroke="#000000" points="0,-407.5 0,-426.5 165,-426.5 165,-407.5 0,-407.5"/>
<text text-anchor="middle" x="82.5" y="-414.5" font-family="Helvetica,sans-Serif" font-size="10.00" fill="#000000">boxptr_DynLoad_executeFunction</text>
</g>
<!-- Node1 -->
<g id="node2" class="node">
<title>Node1</title>
<g id="a_node2"><a xlink:href="../../d0/d36/_dyn_load_8c.html#a94816ae4059d63986c7c21c350ba0e24" target="_top" xlink:title="omc_DynLoad_executeFunction">
<polygon fill="#ffffff" stroke="#000000" points="201,-407.5 201,-426.5 358,-426.5 358,-407.5 201,-407.5"/>
<text text-anchor="middle" x="279.5" y="-414.5" font-family="Helvetica,sans-Serif" font-size="10.00" fill="#000000">omc_DynLoad_executeFunction</text>
</a>
</g>
</g>
<!-- Node0&#45;&gt;Node1 -->
<g id="edge1" class="edge">
<title>Node0&#45;&gt;Node1</title>
<path fill="none" stroke="#191970" d="M165.1895,-417C173.5736,-417 182.1147,-417 190.561,-417"/>
<polygon fill="#191970" stroke="#191970" points="190.8,-420.5001 200.7999,-417 190.7999,-413.5001 190.8,-420.5001"/>
</g>
<!-- Node2 -->
<g id="node3" class="node">
<title>Node2</title>
<g id="a_node3"><a xlink:href="../../dc/d3f/_stack_overflow_8c.html#a732b6f043bb56f88cde89d3282763139" target="_top" xlink:title="omc_StackOverflow_clearStacktrace\lMessages">
<polygon fill="#ffffff" stroke="#000000" points="394,-544 394,-574 573,-574 573,-544 394,-544"/>
<text text-anchor="start" x="402" y="-562" font-family="Helvetica,sans-Serif" font-size="10.00" fill="#000000">omc_StackOverflow_clearStacktrace</text>
<text text-anchor="middle" x="483.5" y="-551" font-family="Helvetica,sans-Serif" font-size="10.00" fill="#000000">Messages</text>
</a>
</g>
</g>
<!-- Node1&#45;&gt;Node2 -->
<g id="edge2" class="edge">
<title>Node1&#45;&gt;Node2</title>
<path fill="none" stroke="#191970" d="M285.9984,-426.637C301.7365,-449.2077 344.2849,-505.7894 394,-535 397.0038,-536.7649 400.1398,-538.4029 403.3642,-539.9229"/>
<polygon fill="#191970" stroke="#191970" points="402.0787,-543.1799 412.649,-543.9015 404.8359,-536.7457 402.0787,-543.1799"/>
</g>
<!-- Node4 -->
<g id="node5" class="node">
<title>Node4</title>
<g id="a_node5"><a xlink:href="../../d0/d36/_dyn_load_8c.html#aaadcd080acdabfd297958bf682f8c4dc" target="_top" xlink:title="omc_DynLoad_executeFunction\l_executeFunction__internal">
<polygon fill="#ffffff" stroke="#000000" points="405,-495 405,-525 562,-525 562,-495 405,-495"/>
<text text-anchor="start" x="413" y="-513" font-family="Helvetica,sans-Serif" font-size="10.00" fill="#000000">omc_DynLoad_executeFunction</text>
<text text-anchor="middle" x="483.5" y="-502" font-family="Helvetica,sans-Serif" font-size="10.00" fill="#000000">_executeFunction__internal</text>
</a>
</g>
</g>
<!-- Node1&#45;&gt;Node4 -->
<g id="edge4" class="edge">
<title>Node1&#45;&gt;Node4</title>
<path fill="none" stroke="#191970" d="M292.5874,-426.5768C313.2004,-441.2599 354.9163,-469.3757 394,-486 398.7811,-488.0337 403.7804,-489.9362 408.8666,-491.7083"/>
<polygon fill="#191970" stroke="#191970" points="408.1275,-495.1498 418.7206,-494.9556 410.3185,-488.5015 408.1275,-495.1498"/>
</g>
<!-- Node7 -->
<g id="node8" class="node">
<title>Node7</title>
<g id="a_node8"><a xlink:href="../../dc/d3f/_stack_overflow_8c.html#a2b97cf65ad0e61b843271270ece8940b" target="_top" xlink:title="omc_StackOverflow_hasStacktrace\lMessages">
<polygon fill="#ffffff" stroke="#000000" points="397,-446 397,-476 570,-476 570,-446 397,-446"/>
<text text-anchor="start" x="405" y="-464" font-family="Helvetica,sans-Serif" font-size="10.00" fill="#000000">omc_StackOverflow_hasStacktrace</text>
<text text-anchor="middle" x="483.5" y="-453" font-family="Helvetica,sans-Serif" font-size="10.00" fill="#000000">Messages</text>
</a>
</g>
</g>
<!-- Node1&#45;&gt;Node7 -->
<g id="edge7" class="edge">
<title>Node1&#45;&gt;Node7</title>
<path fill="none" stroke="#191970" d="M323.765,-426.5473C347.1431,-431.5897 376.5546,-437.9334 403.7484,-443.7987"/>
<polygon fill="#191970" stroke="#191970" points="403.1383,-447.2475 413.6515,-445.9346 404.6142,-440.4049 403.1383,-447.2475"/>
</g>
<!-- Node9 -->
<g id="node10" class="node">
<title>Node9</title>
<g id="a_node10"><a xlink:href="../../d7/deb/build_2include_2omc_2c_2util_2modelica__string_8c.html#a751007abc59e9ca7978f2af10a0c814f" target="_top" xlink:title="stringAppend">
<polygon fill="#ffffff" stroke="#000000" points="446.5,-407.5 446.5,-426.5 520.5,-426.5 520.5,-407.5 446.5,-407.5"/>
<text text-anchor="middle" x="483.5" y="-414.5" font-family="Helvetica,sans-Serif" font-size="10.00" fill="#000000">stringAppend</text>
</a>
</g>
</g>
<!-- Node1&#45;&gt;Node9 -->
<g id="edge9" class="edge">
<title>Node1&#45;&gt;Node9</title>
<path fill="none" stroke="#191970" d="M358.0799,-417C384.3602,-417 412.8332,-417 435.9974,-417"/>
<polygon fill="#191970" stroke="#191970" points="436.2399,-420.5001 446.2399,-417 436.2399,-413.5001 436.2399,-420.5001"/>
</g>
<!-- Node10 -->
<g id="node11" class="node">
<title>Node10</title>
<g id="a_node11"><a xlink:href="../../d2/d57/build_2include_2omc_2c_2meta_2meta__modelica__builtin_8h.html#a6f570947bebe207c25a64ea25f5ca884" target="_top" xlink:title="stringDelimitList">
<polygon fill="#ffffff" stroke="#000000" points="440,-369.5 440,-388.5 527,-388.5 527,-369.5 440,-369.5"/>
<text text-anchor="middle" x="483.5" y="-376.5" font-family="Helvetica,sans-Serif" font-size="10.00" fill="#000000">stringDelimitList</text>
</a>
</g>
</g>
<!-- Node1&#45;&gt;Node10 -->
<g id="edge10" class="edge">
<title>Node1&#45;&gt;Node10</title>
<path fill="none" stroke="#191970" d="M330.7145,-407.46C360.9353,-401.8307 399.1416,-394.7138 429.7877,-389.0052"/>
<polygon fill="#191970" stroke="#191970" points="430.6785,-392.3996 439.8684,-387.1275 429.3965,-385.518 430.6785,-392.3996"/>
</g>
<!-- Node11 -->
<g id="node12" class="node">
<title>Node11</title>
<g id="a_node12"><a xlink:href="../../dc/d3f/_stack_overflow_8c.html#a29bb8d7eab3095d47c6109aa70218011" target="_top" xlink:title="omc_StackOverflow_readable\lStacktraceMessages">
<polygon fill="#ffffff" stroke="#000000" points="410,-282 410,-312 557,-312 557,-282 410,-282"/>
<text text-anchor="start" x="418" y="-300" font-family="Helvetica,sans-Serif" font-size="10.00" fill="#000000">omc_StackOverflow_readable</text>
<text text-anchor="middle" x="483.5" y="-289" font-family="Helvetica,sans-Serif" font-size="10.00" fill="#000000">StacktraceMessages</text>
</a>
</g>
</g>
<!-- Node1&#45;&gt;Node11 -->
<g id="edge11" class="edge">
<title>Node1&#45;&gt;Node11</title>
<path fill="none" stroke="#191970" d="M288.3051,-407.3695C306.302,-388.2577 349.3819,-345.3699 394,-322 398.3276,-319.7333 402.8836,-317.6531 407.5536,-315.7469"/>
<polygon fill="#191970" stroke="#191970" points="409.1473,-318.8861 417.2624,-312.0747 406.6708,-312.3388 409.1473,-318.8861"/>
</g>
<!-- Node34 -->
<g id="node35" class="node">
<title>Node34</title>
<g id="a_node35"><a xlink:href="../../db/da1/_compiler_2boot_2build_2error_8c.html#af2095b97605381e4a896bbbf299ba506" target="_top" xlink:title="omc_Error_addInternalError">
<polygon fill="#ffffff" stroke="#000000" points="415.5,-331.5 415.5,-350.5 551.5,-350.5 551.5,-331.5 415.5,-331.5"/>
<text text-anchor="middle" x="483.5" y="-338.5" font-family="Helvetica,sans-Serif" font-size="10.00" fill="#000000">omc_Error_addInternalError</text>
</a>
</g>
</g>
<!-- Node1&#45;&gt;Node34 -->
<g id="edge35" class="edge">
<title>Node1&#45;&gt;Node34</title>
<path fill="none" stroke="#191970" d="M295.6148,-407.3348C317.2747,-394.7334 357.3076,-372.7957 394,-360 401.6774,-357.3227 409.8629,-354.9564 418.0463,-352.8838"/>
<polygon fill="#191970" stroke="#191970" points="419.0839,-356.2343 427.9929,-350.5002 417.4525,-349.427 419.0839,-356.2343"/>
</g>
<!-- Node3 -->
<g id="node4" class="node">
<title>Node3</title>
<g id="a_node4"><a xlink:href="../../d5/d6a/_stack_overflow_8h.html#a29427bd9169ee9436e86ad8854c4a3f2" target="_top" xlink:title="mmc_clearStacktraceMessages">
<polygon fill="#ffffff" stroke="#000000" points="618.5,-549.5 618.5,-568.5 775.5,-568.5 775.5,-549.5 618.5,-549.5"/>
<text text-anchor="middle" x="697" y="-556.5" font-family="Helvetica,sans-Serif" font-size="10.00" fill="#000000">mmc_clearStacktraceMessages</text>
</a>
</g>
</g>
<!-- Node2&#45;&gt;Node3 -->
<g id="edge3" class="edge">
<title>Node2&#45;&gt;Node3</title>
<path fill="none" stroke="#191970" d="M573.1152,-559C584.7656,-559 596.6956,-559 608.3304,-559"/>
<polygon fill="#191970" stroke="#191970" points="608.4645,-562.5001 618.4645,-559 608.4644,-555.5001 608.4645,-562.5001"/>
</g>
<!-- Node5 -->
<g id="node6" class="node">
<title>Node5</title>
<g id="a_node6"><a xlink:href="../../db/d3b/_dyn_load_8h.html#a5bd35f55f73790e1fc68564b8a9a28af" target="_top" xlink:title="DynLoad_executeFunction">
<polygon fill="#ffffff" stroke="#000000" points="630.5,-500.5 630.5,-519.5 763.5,-519.5 763.5,-500.5 630.5,-500.5"/>
<text text-anchor="middle" x="697" y="-507.5" font-family="Helvetica,sans-Serif" font-size="10.00" fill="#000000">DynLoad_executeFunction</text>
</a>
</g>
</g>
<!-- Node4&#45;&gt;Node5 -->
<g id="edge5" class="edge">
<title>Node4&#45;&gt;Node5</title>
<path fill="none" stroke="#191970" d="M562.09,-510C581.1383,-510 601.4749,-510 620.4286,-510"/>
<polygon fill="#191970" stroke="#191970" points="620.4984,-513.5001 630.4984,-510 620.4983,-506.5001 620.4984,-513.5001"/>
</g>
<!-- Node6 -->
<g id="node7" class="node">
<title>Node6</title>
<g id="a_node7"><a xlink:href="../../d4/d45/systemimpl_8c.html#a3d49f0cdd061df9cda7c57012b9db2ec" target="_top" xlink:title="lookup_ptr">
<polygon fill="#ffffff" stroke="#000000" points="864.5,-500.5 864.5,-519.5 926.5,-519.5 926.5,-500.5 864.5,-500.5"/>
<text text-anchor="middle" x="895.5" y="-507.5" font-family="Helvetica,sans-Serif" font-size="10.00" fill="#000000">lookup_ptr</text>
</a>
</g>
</g>
<!-- Node5&#45;&gt;Node6 -->
<g id="edge6" class="edge">
<title>Node5&#45;&gt;Node6</title>
<path fill="none" stroke="#191970" d="M763.6498,-510C793.5451,-510 827.8795,-510 854.0158,-510"/>
<polygon fill="#191970" stroke="#191970" points="854.319,-513.5001 864.3189,-510 854.3189,-506.5001 854.319,-513.5001"/>
</g>
<!-- Node8 -->
<g id="node9" class="node">
<title>Node8</title>
<g id="a_node9"><a xlink:href="../../d5/d6a/_stack_overflow_8h.html#a221643aeaf2b7d64e0a8db54c6f54898" target="_top" xlink:title="mmc_hasStacktraceMessages">
<polygon fill="#ffffff" stroke="#000000" points="621,-451.5 621,-470.5 773,-470.5 773,-451.5 621,-451.5"/>
<text text-anchor="middle" x="697" y="-458.5" font-family="Helvetica,sans-Serif" font-size="10.00" fill="#000000">mmc_hasStacktraceMessages</text>
</a>
</g>
</g>
<!-- Node7&#45;&gt;Node8 -->
<g id="edge8" class="edge">
<title>Node7&#45;&gt;Node8</title>
<path fill="none" stroke="#191970" d="M570.0308,-461C583.4789,-461 597.3714,-461 610.8118,-461"/>
<polygon fill="#191970" stroke="#191970" points="610.9869,-464.5001 620.9869,-461 610.9868,-457.5001 610.9869,-464.5001"/>
</g>
<!-- Node12 -->
<g id="node13" class="node">
<title>Node12</title>
<g id="a_node13"><a xlink:href="../../d1/d5c/_config_8c.html#afa2f208e09cd9979df49295043109099" target="_top" xlink:title="omc_Config_getRunningTestsuite">
<polygon fill="#ffffff" stroke="#000000" points="615,-331.5 615,-350.5 779,-350.5 779,-331.5 615,-331.5"/>
<text text-anchor="middle" x="697" y="-338.5" font-family="Helvetica,sans-Serif" font-size="10.00" fill="#000000">omc_Config_getRunningTestsuite</text>
</a>
</g>
</g>
<!-- Node11&#45;&gt;Node12 -->
<g id="edge12" class="edge">
<title>Node11&#45;&gt;Node12</title>
<path fill="none" stroke="#191970" d="M556.3774,-312.0192C583.998,-317.7115 614.9938,-324.0994 640.8418,-329.4264"/>
<polygon fill="#191970" stroke="#191970" points="640.3425,-332.897 650.8432,-331.4876 641.7555,-326.0411 640.3425,-332.897"/>
</g>
<!-- Node17 -->
<g id="node18" class="node">
<title>Node17</title>
<g id="a_node18"><a xlink:href="../../dc/d3f/_stack_overflow_8c.html#ac6164cdc873f0bfb176260a6b4c6ff6e" target="_top" xlink:title="omc_StackOverflow_getStacktrace\lMessages">
<polygon fill="#ffffff" stroke="#000000" points="611.5,-282 611.5,-312 782.5,-312 782.5,-282 611.5,-282"/>
<text text-anchor="start" x="619.5" y="-300" font-family="Helvetica,sans-Serif" font-size="10.00" fill="#000000">omc_StackOverflow_getStacktrace</text>
<text text-anchor="middle" x="697" y="-289" font-family="Helvetica,sans-Serif" font-size="10.00" fill="#000000">Messages</text>
</a>
</g>
</g>
<!-- Node11&#45;&gt;Node17 -->
<g id="edge17" class="edge">
<title>Node11&#45;&gt;Node17</title>
<path fill="none" stroke="#191970" d="M557.2735,-297C571.4735,-297 586.5366,-297 601.3139,-297"/>
<polygon fill="#191970" stroke="#191970" points="601.4846,-300.5001 611.4846,-297 601.4845,-293.5001 601.4846,-300.5001"/>
</g>
<!-- Node19 -->
<g id="node20" class="node">
<title>Node19</title>
<g id="a_node20"><a xlink:href="../../dc/d3f/_stack_overflow_8c.html#a2dee545a35e54f63fcf3626e5df6f56e" target="_top" xlink:title="omc_StackOverflow_stripAddresses">
<polygon fill="#ffffff" stroke="#000000" points="609,-243.5 609,-262.5 785,-262.5 785,-243.5 609,-243.5"/>
<text text-anchor="middle" x="697" y="-250.5" font-family="Helvetica,sans-Serif" font-size="10.00" fill="#000000">omc_StackOverflow_stripAddresses</text>
</a>
</g>
</g>
<!-- Node11&#45;&gt;Node19 -->
<g id="edge19" class="edge">
<title>Node11&#45;&gt;Node19</title>
<path fill="none" stroke="#191970" d="M556.3774,-281.9808C583.998,-276.2885 614.9938,-269.9006 640.8418,-264.5736"/>
<polygon fill="#191970" stroke="#191970" points="641.7555,-267.9589 650.8432,-262.5124 640.3425,-261.103 641.7555,-267.9589"/>
</g>
<!-- Node13 -->
<g id="node14" class="node">
<title>Node13</title>
<g id="a_node14"><a xlink:href="../../d3/db3/_flags_8c.html#a1bdc57ee7db1a86ebd954e1aa4d04c0c" target="_top" xlink:title="omc_Flags_getConfigString">
<polygon fill="#ffffff" stroke="#000000" points="827,-332.5 827,-351.5 964,-351.5 964,-332.5 827,-332.5"/>
<text text-anchor="middle" x="895.5" y="-339.5" font-family="Helvetica,sans-Serif" font-size="10.00" fill="#000000">omc_Flags_getConfigString</text>
</a>
</g>
</g>
<!-- Node12&#45;&gt;Node13 -->
<g id="edge13" class="edge">
<title>Node12&#45;&gt;Node13</title>
<path fill="none" stroke="#191970" d="M779.1704,-341.414C791.586,-341.4765 804.3692,-341.5409 816.7112,-341.6031"/>
<polygon fill="#191970" stroke="#191970" points="816.9393,-345.1042 826.9569,-341.6547 816.9746,-338.1043 816.9393,-345.1042"/>
</g>
<!-- Node14 -->
<g id="node15" class="node">
<title>Node14</title>
<g id="a_node15"><a xlink:href="../../d3/db3/_flags_8c.html#a96ba70d54b6662cf90933a207c0c6b8e" target="_top" xlink:title="omc_Flags_getConfigValue">
<polygon fill="#ffffff" stroke="#000000" points="1006,-333.5 1006,-352.5 1143,-352.5 1143,-333.5 1006,-333.5"/>
<text text-anchor="middle" x="1074.5" y="-340.5" font-family="Helvetica,sans-Serif" font-size="10.00" fill="#000000">omc_Flags_getConfigValue</text>
</a>
</g>
</g>
<!-- Node13&#45;&gt;Node14 -->
<g id="edge14" class="edge">
<title>Node13&#45;&gt;Node14</title>
<path fill="none" stroke="#191970" d="M964.1941,-342.3838C974.5794,-342.4418 985.3603,-342.502 995.9345,-342.5611"/>
<polygon fill="#191970" stroke="#191970" points="995.9702,-346.0612 1005.9897,-342.6173 996.0094,-339.0614 995.9702,-346.0612"/>
</g>
<!-- Node15 -->
<g id="node16" class="node">
<title>Node15</title>
<g id="a_node16"><a xlink:href="../../d3/db3/_flags_8c.html#a760d66f53b65ac257876ca0f6308f09f" target="_top" xlink:title="omc_Flags_loadFlags">
<polygon fill="#ffffff" stroke="#000000" points="1186.5,-336.5 1186.5,-355.5 1298.5,-355.5 1298.5,-336.5 1186.5,-336.5"/>
<text text-anchor="middle" x="1242.5" y="-343.5" font-family="Helvetica,sans-Serif" font-size="10.00" fill="#000000">omc_Flags_loadFlags</text>
</a>
</g>
</g>
<!-- Node14&#45;&gt;Node15 -->
<g id="edge15" class="edge">
<title>Node14&#45;&gt;Node15</title>
<path fill="none" stroke="#191970" d="M1143.3168,-344.2289C1154.1666,-344.4226 1165.3661,-344.6226 1176.1583,-344.8153"/>
<polygon fill="#191970" stroke="#191970" points="1176.295,-348.3182 1186.3559,-344.9974 1176.42,-341.3193 1176.295,-348.3182"/>
</g>
<!-- Node16 -->
<g id="node17" class="node">
<title>Node16</title>
<g id="a_node17"><a xlink:href="../../da/d72/_compiler_2boot_2build_2list_8c.html#a3ec1ee3a5ff53be9af368e290be09182" target="_top" xlink:title="omc_List_fold">
<polygon fill="#ffffff" stroke="#000000" points="1342,-342.5 1342,-361.5 1419,-361.5 1419,-342.5 1342,-342.5"/>
<text text-anchor="middle" x="1380.5" y="-349.5" font-family="Helvetica,sans-Serif" font-size="10.00" fill="#000000">omc_List_fold</text>
</a>
</g>
</g>
<!-- Node15&#45;&gt;Node16 -->
<g id="edge16" class="edge">
<title>Node15&#45;&gt;Node16</title>
<path fill="none" stroke="#191970" d="M1298.6299,-348.4404C1309.6004,-348.9174 1321.0209,-349.414 1331.7284,-349.8795"/>
<polygon fill="#191970" stroke="#191970" points="1331.5954,-353.3769 1341.738,-350.3147 1331.8995,-346.3835 1331.5954,-353.3769"/>
</g>
<!-- Node18 -->
<g id="node19" class="node">
<title>Node18</title>
<g id="a_node19"><a xlink:href="../../d5/d6a/_stack_overflow_8h.html#a35a1404461f7be07cf9ba90f93aa8315" target="_top" xlink:title="mmc_getStacktraceMessages\l_threadData">
<polygon fill="#ffffff" stroke="#000000" points="821,-282 821,-312 970,-312 970,-282 821,-282"/>
<text text-anchor="start" x="829" y="-300" font-family="Helvetica,sans-Serif" font-size="10.00" fill="#000000">mmc_getStacktraceMessages</text>
<text text-anchor="middle" x="895.5" y="-289" font-family="Helvetica,sans-Serif" font-size="10.00" fill="#000000">_threadData</text>
</a>
</g>
</g>
<!-- Node17&#45;&gt;Node18 -->
<g id="edge18" class="edge">
<title>Node17&#45;&gt;Node18</title>
<path fill="none" stroke="#191970" d="M782.6221,-297C791.9461,-297 801.4336,-297 810.7471,-297"/>
<polygon fill="#191970" stroke="#191970" points="810.7689,-300.5001 820.7689,-297 810.7689,-293.5001 810.7689,-300.5001"/>
</g>
<!-- Node20 -->
<g id="node21" class="node">
<title>Node20</title>
<g id="a_node21"><a xlink:href="../../d1/d95/_system_8c.html#af4ee178a494a93c0aba547ce82e7f403" target="_top" xlink:title="omc_System_regex">
<polygon fill="#ffffff" stroke="#000000" points="843.5,-230.5 843.5,-249.5 947.5,-249.5 947.5,-230.5 843.5,-230.5"/>
<text text-anchor="middle" x="895.5" y="-237.5" font-family="Helvetica,sans-Serif" font-size="10.00" fill="#000000">omc_System_regex</text>
</a>
</g>
</g>
<!-- Node19&#45;&gt;Node20 -->
<g id="edge20" class="edge">
<title>Node19&#45;&gt;Node20</title>
<path fill="none" stroke="#191970" d="M785.221,-247.2223C801.3738,-246.1644 817.9212,-245.0807 833.1232,-244.0851"/>
<polygon fill="#191970" stroke="#191970" points="833.6615,-247.5575 843.4113,-243.4113 833.2039,-240.5724 833.6615,-247.5575"/>
</g>
<!-- Node21 -->
<g id="node22" class="node">
<title>Node21</title>
<g id="a_node22"><a xlink:href="../../d8/d28/_compiler_2boot_2build_2system_8h.html#a7c20ab6d7ecb2cb478fb5739f8581bf3" target="_top" xlink:title="System_regex">
<polygon fill="#ffffff" stroke="#000000" points="1034.5,-205.5 1034.5,-224.5 1114.5,-224.5 1114.5,-205.5 1034.5,-205.5"/>
<text text-anchor="middle" x="1074.5" y="-212.5" font-family="Helvetica,sans-Serif" font-size="10.00" fill="#000000">System_regex</text>
</a>
</g>
</g>
<!-- Node20&#45;&gt;Node21 -->
<g id="edge21" class="edge">
<title>Node20&#45;&gt;Node21</title>
<path fill="none" stroke="#191970" d="M947.7554,-232.7018C971.9539,-229.3221 1000.5736,-225.3249 1024.4884,-221.9849"/>
<polygon fill="#191970" stroke="#191970" points="1025.0032,-225.447 1034.4229,-220.5974 1024.0349,-218.5143 1025.0032,-225.447"/>
</g>
<!-- Node22 -->
<g id="node23" class="node">
<title>Node22</title>
<g id="a_node23"><a xlink:href="../../d4/d6b/build_2include_2omc_2c_2util_2utility_8c.html#abc11c26ce9d5eaf728bfee9160f61b58" target="_top" xlink:title="OpenModelica_regexImpl">
<polygon fill="#ffffff" stroke="#000000" points="1179,-154.5 1179,-173.5 1306,-173.5 1306,-154.5 1179,-154.5"/>
<text text-anchor="middle" x="1242.5" y="-161.5" font-family="Helvetica,sans-Serif" font-size="10.00" fill="#000000">OpenModelica_regexImpl</text>
</a>
</g>
</g>
<!-- Node21&#45;&gt;Node22 -->
<g id="edge22" class="edge">
<title>Node21&#45;&gt;Node22</title>
<path fill="none" stroke="#191970" d="M1106.0995,-205.4073C1132.9674,-197.251 1171.744,-185.4795 1201.0903,-176.5708"/>
<polygon fill="#191970" stroke="#191970" points="1202.4901,-179.8037 1211.0422,-173.5497 1200.4567,-173.1055 1202.4901,-179.8037"/>
</g>
<!-- Node23 -->
<g id="node24" class="node">
<title>Node23</title>
<g id="a_node24"><a xlink:href="../../dc/ddc/3rd_party_2flex-2_85_835_2parse_8c.html#a5faf6a2d99f50a4655dd390199a8db7b" target="_top" xlink:title="malloc">
<polygon fill="#ffffff" stroke="#000000" points="1358,-304.5 1358,-323.5 1403,-323.5 1403,-304.5 1358,-304.5"/>
<text text-anchor="middle" x="1380.5" y="-311.5" font-family="Helvetica,sans-Serif" font-size="10.00" fill="#000000">malloc</text>
</a>
</g>
</g>
<!-- Node22&#45;&gt;Node23 -->
<g id="edge23" class="edge">
<title>Node22&#45;&gt;Node23</title>
<path fill="none" stroke="#191970" d="M1247.778,-173.7755C1260.9176,-197.35 1297.28,-258.1039 1342,-295 1344.1363,-296.7625 1346.4635,-298.4137 1348.8811,-299.9486"/>
<polygon fill="#191970" stroke="#191970" points="1347.4212,-303.1429 1357.8538,-304.9902 1350.8502,-297.0403 1347.4212,-303.1429"/>
</g>
<!-- Node24 -->
<g id="node25" class="node">
<title>Node24</title>
<g id="a_node25"><a xlink:href="../../d6/d84/3rd_party_2open62541_2open62541_8h.html#a362b656d9de3289b55b1035d14cb4b5d" target="_top" xlink:title="memset">
<polygon fill="#ffffff" stroke="#000000" points="1354.5,-266.5 1354.5,-285.5 1406.5,-285.5 1406.5,-266.5 1354.5,-266.5"/>
<text text-anchor="middle" x="1380.5" y="-273.5" font-family="Helvetica,sans-Serif" font-size="10.00" fill="#000000">memset</text>
</a>
</g>
</g>
<!-- Node22&#45;&gt;Node24 -->
<g id="edge24" class="edge">
<title>Node22&#45;&gt;Node24</title>
<path fill="none" stroke="#191970" d="M1251.0458,-173.6895C1267.3616,-191.7762 1304.6607,-231.1775 1342,-257 1344.3564,-258.6296 1346.8731,-260.1982 1349.4489,-261.6873"/>
<polygon fill="#191970" stroke="#191970" points="1347.8186,-264.7845 1358.2868,-266.4175 1351.1218,-258.6128 1347.8186,-264.7845"/>
</g>
<!-- Node25 -->
<g id="node26" class="node">
<title>Node25</title>
<g id="a_node26"><a xlink:href="../../d8/d8d/gkregex_8c.html#ab9ce42647bc1d700e60ac3e69fcdc8e1" target="_top" xlink:title="regcomp">
<polygon fill="#ffffff" stroke="#000000" points="1353.5,-228.5 1353.5,-247.5 1407.5,-247.5 1407.5,-228.5 1353.5,-228.5"/>
<text text-anchor="middle" x="1380.5" y="-235.5" font-family="Helvetica,sans-Serif" font-size="10.00" fill="#000000">regcomp</text>
</a>
</g>
</g>
<!-- Node22&#45;&gt;Node25 -->
<g id="edge25" class="edge">
<title>Node22&#45;&gt;Node25</title>
<path fill="none" stroke="#191970" d="M1259.2717,-173.5832C1278.946,-184.7519 1312.6139,-203.6377 1342,-219 1344.9725,-220.5539 1348.0895,-222.1486 1351.2085,-223.7218"/>
<polygon fill="#191970" stroke="#191970" points="1349.917,-226.9886 1360.4286,-228.3141 1353.0379,-220.7228 1349.917,-226.9886"/>
</g>
<!-- Node26 -->
<g id="node27" class="node">
<title>Node26</title>
<g id="a_node27"><a xlink:href="../../dc/ddc/3rd_party_2flex-2_85_835_2parse_8c.html#af07d89f5ceaea0c7c8252cc41fd75f37" target="_top" xlink:title="free">
<polygon fill="#ffffff" stroke="#000000" points="1364,-190.5 1364,-209.5 1397,-209.5 1397,-190.5 1364,-190.5"/>
<text text-anchor="middle" x="1380.5" y="-197.5" font-family="Helvetica,sans-Serif" font-size="10.00" fill="#000000">free</text>
</a>
</g>
</g>
<!-- Node22&#45;&gt;Node26 -->
<g id="edge26" class="edge">
<title>Node22&#45;&gt;Node26</title>
<path fill="none" stroke="#191970" d="M1279.1192,-173.5528C1302.6175,-179.6828 1332.5957,-187.5032 1353.842,-193.0457"/>
<polygon fill="#191970" stroke="#191970" points="1353.2299,-196.5031 1363.7896,-195.6408 1354.9969,-189.7298 1353.2299,-196.5031"/>
</g>
<!-- Node27 -->
<g id="node28" class="node">
<title>Node27</title>
<g id="a_node28"><a xlink:href="../../dc/d08/gkregex_8h.html#a0284fc25f2802396427939f37caccc1c" target="_top" xlink:title="regerror">
<polygon fill="#ffffff" stroke="#000000" points="1355.5,-152.5 1355.5,-171.5 1405.5,-171.5 1405.5,-152.5 1355.5,-152.5"/>
<text text-anchor="middle" x="1380.5" y="-159.5" font-family="Helvetica,sans-Serif" font-size="10.00" fill="#000000">regerror</text>
</a>
</g>
</g>
<!-- Node22&#45;&gt;Node27 -->
<g id="edge27" class="edge">
<title>Node22&#45;&gt;Node27</title>
<path fill="none" stroke="#191970" d="M1306.2487,-163.0761C1319.5499,-162.8833 1333.1129,-162.6868 1344.9451,-162.5153"/>
<polygon fill="#191970" stroke="#191970" points="1345.3195,-166.0103 1355.2677,-162.3657 1345.218,-159.0111 1345.3195,-166.0103"/>
</g>
<!-- Node28 -->
<g id="node29" class="node">
<title>Node28</title>
<g id="a_node29"><a xlink:href="../../d8/d8d/gkregex_8c.html#ad94d0de532eaa4fd959b8adde4d64898" target="_top" xlink:title="regfree">
<polygon fill="#ffffff" stroke="#000000" points="1357,-114.5 1357,-133.5 1404,-133.5 1404,-114.5 1357,-114.5"/>
<text text-anchor="middle" x="1380.5" y="-121.5" font-family="Helvetica,sans-Serif" font-size="10.00" fill="#000000">regfree</text>
</a>
</g>
</g>
<!-- Node22&#45;&gt;Node28 -->
<g id="edge28" class="edge">
<title>Node22&#45;&gt;Node28</title>
<path fill="none" stroke="#191970" d="M1275.5544,-154.419C1297.1692,-148.1539 1325.313,-139.9962 1347.0139,-133.7061"/>
<polygon fill="#191970" stroke="#191970" points="1348.1577,-137.0187 1356.788,-130.873 1346.2089,-130.2954 1348.1577,-137.0187"/>
</g>
<!-- Node29 -->
<g id="node30" class="node">
<title>Node29</title>
<g id="a_node30"><a xlink:href="../../d8/d8d/gkregex_8c.html#a7937edf3fae8c7c9d49b20510fe8da13" target="_top" xlink:title="regexec">
<polygon fill="#ffffff" stroke="#000000" points="1355,-76.5 1355,-95.5 1406,-95.5 1406,-76.5 1355,-76.5"/>
<text text-anchor="middle" x="1380.5" y="-83.5" font-family="Helvetica,sans-Serif" font-size="10.00" fill="#000000">regexec</text>
</a>
</g>
</g>
<!-- Node22&#45;&gt;Node29 -->
<g id="edge29" class="edge">
<title>Node22&#45;&gt;Node29</title>
<path fill="none" stroke="#191970" d="M1257.7998,-154.4298C1277.1563,-142.4384 1311.6338,-121.4645 1342,-105 1344.9486,-103.4013 1348.0502,-101.7775 1351.1599,-100.1869"/>
<polygon fill="#191970" stroke="#191970" points="1352.9959,-103.1818 1360.3684,-95.5728 1349.86,-96.9235 1352.9959,-103.1818"/>
</g>
<!-- Node32 -->
<g id="node33" class="node">
<title>Node32</title>
<g id="a_node33"><a xlink:href="../../d6/dcd/malloc_8c.html#ab1cc1a3ff560049e22576031c7c2345b" target="_top" xlink:title="strdup">
<polygon fill="#ffffff" stroke="#000000" points="1358.5,-38.5 1358.5,-57.5 1402.5,-57.5 1402.5,-38.5 1358.5,-38.5"/>
<text text-anchor="middle" x="1380.5" y="-45.5" font-family="Helvetica,sans-Serif" font-size="10.00" fill="#000000">strdup</text>
</a>
</g>
</g>
<!-- Node22&#45;&gt;Node32 -->
<g id="edge32" class="edge">
<title>Node22&#45;&gt;Node32</title>
<path fill="none" stroke="#191970" d="M1250.4577,-154.4426C1266.3505,-135.7949 1303.7887,-94.024 1342,-67 1344.3391,-65.3457 1346.8438,-63.7599 1349.4115,-62.2592"/>
<polygon fill="#191970" stroke="#191970" points="1351.0892,-65.331 1358.2358,-57.5095 1347.7714,-59.1672 1351.0892,-65.331"/>
</g>
<!-- Node33 -->
<g id="node34" class="node">
<title>Node33</title>
<g id="a_node34"><a xlink:href="../../d6/d84/3rd_party_2open62541_2open62541_8h.html#a9bb523029391a4525c52a8e90e877692" target="_top" xlink:title="memcpy">
<polygon fill="#ffffff" stroke="#000000" points="1353.5,-.5 1353.5,-19.5 1407.5,-19.5 1407.5,-.5 1353.5,-.5"/>
<text text-anchor="middle" x="1380.5" y="-7.5" font-family="Helvetica,sans-Serif" font-size="10.00" fill="#000000">memcpy</text>
</a>
</g>
</g>
<!-- Node22&#45;&gt;Node33 -->
<g id="edge34" class="edge">
<title>Node22&#45;&gt;Node33</title>
<path fill="none" stroke="#191970" d="M1247.5112,-154.2722C1260.3153,-130.2163 1296.4586,-67.1293 1342,-29 1343.7645,-27.5227 1345.6634,-26.1253 1347.6386,-24.8101"/>
<polygon fill="#191970" stroke="#191970" points="1349.7337,-27.64 1356.6069,-19.5771 1346.2058,-21.594 1349.7337,-27.64"/>
</g>
<!-- Node30 -->
<g id="node31" class="node">
<title>Node30</title>
<g id="a_node31"><a xlink:href="../../d8/d8d/gkregex_8c.html#a57d99bcb8016cf11ae0f54c776052ff8" target="_top" xlink:title="if">
<polygon fill="#ffffff" stroke="#000000" points="1461,-76.5 1461,-95.5 1490,-95.5 1490,-76.5 1461,-76.5"/>
<text text-anchor="middle" x="1475.5" y="-83.5" font-family="Helvetica,sans-Serif" font-size="10.00" fill="#000000">if</text>
</a>
</g>
</g>
<!-- Node29&#45;&gt;Node30 -->
<g id="edge30" class="edge">
<title>Node29&#45;&gt;Node30</title>
<path fill="none" stroke="#191970" d="M1406.4592,-86C1420.2441,-86 1437.0997,-86 1450.7055,-86"/>
<polygon fill="#191970" stroke="#191970" points="1450.7995,-89.5001 1460.7995,-86 1450.7995,-82.5001 1450.7995,-89.5001"/>
</g>
<!-- Node31 -->
<g id="node32" class="node">
<title>Node31</title>
<g id="a_node32"><a xlink:href="../../d6/d84/3rd_party_2open62541_2open62541_8h.html#aa383452fe445bfae989358c9d7d96f4f" target="_top" xlink:title="strlen">
<polygon fill="#ffffff" stroke="#000000" points="1455,-38.5 1455,-57.5 1496,-57.5 1496,-38.5 1455,-38.5"/>
<text text-anchor="middle" x="1475.5" y="-45.5" font-family="Helvetica,sans-Serif" font-size="10.00" fill="#000000">strlen</text>
</a>
</g>
</g>
<!-- Node29&#45;&gt;Node31 -->
<g id="edge31" class="edge">
<title>Node29&#45;&gt;Node31</title>
<path fill="none" stroke="#191970" d="M1404.4725,-76.411C1416.8246,-71.4702 1432.0164,-65.3934 1445.1757,-60.1297"/>
<polygon fill="#191970" stroke="#191970" points="1446.777,-63.2589 1454.7619,-56.2952 1444.1772,-56.7595 1446.777,-63.2589"/>
</g>
<!-- Node32&#45;&gt;Node31 -->
<g id="edge33" class="edge">
<title>Node32&#45;&gt;Node31</title>
<path fill="none" stroke="#191970" d="M1402.5337,-48C1415.1131,-48 1431.0758,-48 1444.8612,-48"/>
<polygon fill="#191970" stroke="#191970" points="1444.8864,-51.5001 1454.8864,-48 1444.8864,-44.5001 1444.8864,-51.5001"/>
</g>
<!-- Node34&#45;&gt;Node12 -->
<g id="edge36" class="edge">
<title>Node34&#45;&gt;Node12</title>
<path fill="none" stroke="#191970" d="M551.6397,-341C568.4721,-341 586.7846,-341 604.5582,-341"/>
<polygon fill="#191970" stroke="#191970" points="604.9456,-344.5001 614.9455,-341 604.9455,-337.5001 604.9456,-344.5001"/>
</g>
</g>
</svg>
