<?xml version="1.0" encoding="UTF-8" standalone="no"?>
<!DOCTYPE svg PUBLIC "-//W3C//DTD SVG 1.1//EN"
 "http://www.w3.org/Graphics/SVG/1.1/DTD/svg11.dtd">
<!-- Generated by graphviz version 2.40.1 (20161225.0304)
 -->
<!-- Title: FM_Mc2WayCutRefine Pages: 1 -->
<svg width="952pt" height="433pt"
 viewBox="0.00 0.00 952.00 432.50" xmlns="http://www.w3.org/2000/svg" xmlns:xlink="http://www.w3.org/1999/xlink">
<g id="graph0" class="graph" transform="scale(1 1) rotate(0) translate(4 428.5)">
<title>FM_Mc2WayCutRefine</title>
<polygon fill="#ffffff" stroke="transparent" points="-4,4 -4,-428.5 948,-428.5 948,4 -4,4"/>
<!-- Node136 -->
<g id="node1" class="node">
<title>Node136</title>
<polygon fill="#bfbfbf" stroke="#000000" points="0,-196 0,-215 119,-215 119,-196 0,-196"/>
<text text-anchor="middle" x="59.5" y="-203" font-family="Helvetica,sans-Serif" font-size="10.00" fill="#000000">FM_Mc2WayCutRefine</text>
</g>
<!-- Node137 -->
<g id="node2" class="node">
<title>Node137</title>
<g id="a_node2"><a xlink:href="../../dd/d06/libmetis_2proto_8h.html#a441fc96c12245126725dabd436958502" target="_top" xlink:title="iwspacemalloc">
<polygon fill="#ffffff" stroke="#000000" points="192,-348 192,-367 273,-367 273,-348 192,-348"/>
<text text-anchor="middle" x="232.5" y="-355" font-family="Helvetica,sans-Serif" font-size="10.00" fill="#000000">iwspacemalloc</text>
</a>
</g>
</g>
<!-- Node136&#45;&gt;Node137 -->
<g id="edge1" class="edge">
<title>Node136&#45;&gt;Node137</title>
<path fill="none" stroke="#191970" d="M64.0021,-215.1586C75.5897,-238.9605 108.8046,-300.8643 155,-333.5 163.0258,-339.17 172.433,-343.5321 181.8726,-346.878"/>
<polygon fill="#191970" stroke="#191970" points="181.0739,-350.2971 191.6648,-350.0091 183.2059,-343.6296 181.0739,-350.2971"/>
</g>
<!-- Node149 -->
<g id="node14" class="node">
<title>Node149</title>
<g id="a_node14"><a xlink:href="../../dd/d06/libmetis_2proto_8h.html#a8fbf14fa1b6600107eb5a03c655e50a4" target="_top" xlink:title="rwspacemalloc">
<polygon fill="#ffffff" stroke="#000000" points="191.5,-386 191.5,-405 273.5,-405 273.5,-386 191.5,-386"/>
<text text-anchor="middle" x="232.5" y="-393" font-family="Helvetica,sans-Serif" font-size="10.00" fill="#000000">rwspacemalloc</text>
</a>
</g>
</g>
<!-- Node136&#45;&gt;Node149 -->
<g id="edge17" class="edge">
<title>Node136&#45;&gt;Node149</title>
<path fill="none" stroke="#191970" d="M61.9115,-215.047C69.7941,-244.2146 97.6535,-332.8196 155,-376.5 162.6885,-382.3563 171.9422,-386.4317 181.337,-389.262"/>
<polygon fill="#191970" stroke="#191970" points="180.5617,-392.6765 191.1188,-391.7832 182.3089,-385.8981 180.5617,-392.6765"/>
</g>
<!-- Node150 -->
<g id="node15" class="node">
<title>Node150</title>
<g id="a_node15"><a xlink:href="../../dd/d06/libmetis_2proto_8h.html#a555f2ae3f4e5561c9b1ef592bf0f8476" target="_top" xlink:title="wspacemalloc">
<polygon fill="#ffffff" stroke="#000000" points="368,-310 368,-329 447,-329 447,-310 368,-310"/>
<text text-anchor="middle" x="407.5" y="-317" font-family="Helvetica,sans-Serif" font-size="10.00" fill="#000000">wspacemalloc</text>
</a>
</g>
</g>
<!-- Node136&#45;&gt;Node150 -->
<g id="edge19" class="edge">
<title>Node136&#45;&gt;Node150</title>
<path fill="none" stroke="#191970" d="M65.7034,-215.2588C79.135,-235.411 113.1029,-281.3389 155,-300.5 220.2145,-330.3251 304.842,-329.8553 357.6631,-325.5889"/>
<polygon fill="#191970" stroke="#191970" points="358.1355,-329.0608 367.788,-324.6928 357.5184,-322.0881 358.1355,-329.0608"/>
</g>
<!-- Node151 -->
<g id="node16" class="node">
<title>Node151</title>
<g id="a_node16"><a xlink:href="../../dd/d06/libmetis_2proto_8h.html#a156c57a10f383c2b1f9543e0092c1cfe" target="_top" xlink:title="iargmax_nrm">
<polygon fill="#ffffff" stroke="#000000" points="196,-272 196,-291 269,-291 269,-272 196,-272"/>
<text text-anchor="middle" x="232.5" y="-279" font-family="Helvetica,sans-Serif" font-size="10.00" fill="#000000">iargmax_nrm</text>
</a>
</g>
</g>
<!-- Node136&#45;&gt;Node151 -->
<g id="edge21" class="edge">
<title>Node136&#45;&gt;Node151</title>
<path fill="none" stroke="#191970" d="M72.743,-215.1568C90.5898,-227.749 123.7379,-249.6765 155,-262.5 164.81,-266.524 175.6816,-269.8402 186.1032,-272.5121"/>
<polygon fill="#191970" stroke="#191970" points="185.3658,-275.9346 195.9078,-274.8785 187.0082,-269.1299 185.3658,-275.9346"/>
</g>
<!-- Node152 -->
<g id="node17" class="node">
<title>Node152</title>
<g id="a_node17"><a xlink:href="../../d7/ddc/mcutil_8c.html#a232d17c76d3e7d402ea128d0de5b8138" target="_top" xlink:title="ComputeLoadImbalanceDiffVec">
<polygon fill="#ffffff" stroke="#000000" points="155,-234 155,-253 310,-253 310,-234 155,-234"/>
<text text-anchor="middle" x="232.5" y="-241" font-family="Helvetica,sans-Serif" font-size="10.00" fill="#000000">ComputeLoadImbalanceDiffVec</text>
</a>
</g>
</g>
<!-- Node136&#45;&gt;Node152 -->
<g id="edge22" class="edge">
<title>Node136&#45;&gt;Node152</title>
<path fill="none" stroke="#191970" d="M103.1552,-215.089C126.2929,-220.1713 154.9024,-226.4554 179.3268,-231.8203"/>
<polygon fill="#191970" stroke="#191970" points="178.6406,-235.253 189.1587,-233.9799 180.1425,-228.416 178.6406,-235.253"/>
</g>
<!-- Node153 -->
<g id="node18" class="node">
<title>Node153</title>
<g id="a_node18"><a xlink:href="../../d2/d1b/fm_8c.html#a6e4663b4acc63be2c1b33533e7827f1a" target="_top" xlink:title="Print2WayRefineStats">
<polygon fill="#ffffff" stroke="#000000" points="175.5,-196 175.5,-215 289.5,-215 289.5,-196 175.5,-196"/>
<text text-anchor="middle" x="232.5" y="-203" font-family="Helvetica,sans-Serif" font-size="10.00" fill="#000000">Print2WayRefineStats</text>
</a>
</g>
</g>
<!-- Node136&#45;&gt;Node153 -->
<g id="edge23" class="edge">
<title>Node136&#45;&gt;Node153</title>
<path fill="none" stroke="#191970" d="M119.0368,-205.5C133.8871,-205.5 149.9155,-205.5 165.115,-205.5"/>
<polygon fill="#191970" stroke="#191970" points="165.4807,-209.0001 175.4807,-205.5 165.4807,-202.0001 165.4807,-209.0001"/>
</g>
<!-- Node154 -->
<g id="node19" class="node">
<title>Node154</title>
<g id="a_node19"><a xlink:href="../../d7/ddc/mcutil_8c.html#a855ba0e639f2f1a3082b1b4695b791aa" target="_top" xlink:title="ComputeLoadImbalance">
<polygon fill="#ffffff" stroke="#000000" points="346.5,-177 346.5,-196 468.5,-196 468.5,-177 346.5,-177"/>
<text text-anchor="middle" x="407.5" y="-184" font-family="Helvetica,sans-Serif" font-size="10.00" fill="#000000">ComputeLoadImbalance</text>
</a>
</g>
</g>
<!-- Node136&#45;&gt;Node154 -->
<g id="edge30" class="edge">
<title>Node136&#45;&gt;Node154</title>
<path fill="none" stroke="#191970" d="M98.2711,-195.9899C115.5232,-192.2249 136.1578,-188.3562 155,-186.5 215.9146,-180.4992 285.4973,-181.0445 336.1706,-182.7801"/>
<polygon fill="#191970" stroke="#191970" points="336.2439,-186.2851 346.3655,-183.1541 336.5005,-179.2898 336.2439,-186.2851"/>
</g>
<!-- Node155 -->
<g id="node20" class="node">
<title>Node155</title>
<g id="a_node20"><a xlink:href="../../dd/d3e/3rd_party_2metis-5_81_80_2libmetis_2debug_8c.html#a99abc93df5d5bca5819ed55a767c4e0e" target="_top" xlink:title="ComputeCut">
<polygon fill="#ffffff" stroke="#000000" points="196.5,-120 196.5,-139 268.5,-139 268.5,-120 196.5,-120"/>
<text text-anchor="middle" x="232.5" y="-127" font-family="Helvetica,sans-Serif" font-size="10.00" fill="#000000">ComputeCut</text>
</a>
</g>
</g>
<!-- Node136&#45;&gt;Node155 -->
<g id="edge25" class="edge">
<title>Node136&#45;&gt;Node155</title>
<path fill="none" stroke="#191970" d="M74.9083,-195.8642C93.4027,-184.5957 125.6074,-165.9084 155,-153.5 165.0303,-149.2656 176.069,-145.4003 186.5928,-142.0671"/>
<polygon fill="#191970" stroke="#191970" points="187.9388,-145.3154 196.475,-139.0398 185.8884,-138.6224 187.9388,-145.3154"/>
</g>
<!-- Node156 -->
<g id="node21" class="node">
<title>Node156</title>
<g id="a_node21"><a xlink:href="../../dd/d3e/3rd_party_2metis-5_81_80_2libmetis_2debug_8c.html#addb0519d730bbc2793667e245d7de9b4" target="_top" xlink:title="CheckBnd">
<polygon fill="#ffffff" stroke="#000000" points="201.5,-82 201.5,-101 263.5,-101 263.5,-82 201.5,-82"/>
<text text-anchor="middle" x="232.5" y="-89" font-family="Helvetica,sans-Serif" font-size="10.00" fill="#000000">CheckBnd</text>
</a>
</g>
</g>
<!-- Node136&#45;&gt;Node156 -->
<g id="edge26" class="edge">
<title>Node136&#45;&gt;Node156</title>
<path fill="none" stroke="#191970" d="M66.1923,-195.9887C80.2846,-176.7062 115.0319,-132.9404 155,-110.5 166.0415,-104.3007 179.0785,-100.1061 191.2784,-97.2749"/>
<polygon fill="#191970" stroke="#191970" points="192.1862,-100.6612 201.2671,-95.2034 190.7647,-93.8071 192.1862,-100.6612"/>
</g>
<!-- Node157 -->
<g id="node22" class="node">
<title>Node157</title>
<g id="a_node22"><a xlink:href="../../d2/d1b/fm_8c.html#a51193f4b76d298d94234642136879390" target="_top" xlink:title="SelectQueue">
<polygon fill="#ffffff" stroke="#000000" points="196,-44 196,-63 269,-63 269,-44 196,-44"/>
<text text-anchor="middle" x="232.5" y="-51" font-family="Helvetica,sans-Serif" font-size="10.00" fill="#000000">SelectQueue</text>
</a>
</g>
</g>
<!-- Node136&#45;&gt;Node157 -->
<g id="edge27" class="edge">
<title>Node136&#45;&gt;Node157</title>
<path fill="none" stroke="#191970" d="M63.6116,-195.6522C74.5223,-170.7859 106.7158,-105.1263 155,-72.5 164.2276,-66.2648 175.3023,-62.0719 186.154,-59.2537"/>
<polygon fill="#191970" stroke="#191970" points="187.0133,-62.6478 195.9977,-57.0327 185.4726,-55.8195 187.0133,-62.6478"/>
</g>
<!-- Node158 -->
<g id="node23" class="node">
<title>Node158</title>
<g id="a_node23"><a xlink:href="../../d7/ddc/mcutil_8c.html#a9c21f030c536d46b47d12116cc295645" target="_top" xlink:title="BetterBalance2Way">
<polygon fill="#ffffff" stroke="#000000" points="180.5,-6 180.5,-25 284.5,-25 284.5,-6 180.5,-6"/>
<text text-anchor="middle" x="232.5" y="-13" font-family="Helvetica,sans-Serif" font-size="10.00" fill="#000000">BetterBalance2Way</text>
</a>
</g>
</g>
<!-- Node136&#45;&gt;Node158 -->
<g id="edge28" class="edge">
<title>Node136&#45;&gt;Node158</title>
<path fill="none" stroke="#191970" d="M61.9115,-195.953C69.7941,-166.7854 97.6535,-78.1804 155,-34.5 159.7302,-30.897 165.0528,-27.9681 170.6363,-25.5886"/>
<polygon fill="#191970" stroke="#191970" points="172.0329,-28.8045 180.2205,-22.0805 169.6267,-22.231 172.0329,-28.8045"/>
</g>
<!-- Node138 -->
<g id="node3" class="node">
<title>Node138</title>
<g id="a_node3"><a xlink:href="../../d5/d06/wspace_8c.html#a555f2ae3f4e5561c9b1ef592bf0f8476" target="_top" xlink:title="wspacemalloc">
<polygon fill="#ffffff" stroke="#000000" points="368,-348 368,-367 447,-367 447,-348 368,-348"/>
<text text-anchor="middle" x="407.5" y="-355" font-family="Helvetica,sans-Serif" font-size="10.00" fill="#000000">wspacemalloc</text>
</a>
</g>
</g>
<!-- Node137&#45;&gt;Node138 -->
<g id="edge2" class="edge">
<title>Node137&#45;&gt;Node138</title>
<path fill="none" stroke="#191970" d="M273.0884,-357.5C298.2252,-357.5 330.6956,-357.5 357.4248,-357.5"/>
<polygon fill="#191970" stroke="#191970" points="357.7351,-361.0001 367.7351,-357.5 357.7351,-354.0001 357.7351,-361.0001"/>
</g>
<!-- Node139 -->
<g id="node4" class="node">
<title>Node139</title>
<g id="a_node4"><a xlink:href="../../d3/d5a/gk__proto_8h.html#ab7a380f0696a0d5421653fad336bcae0" target="_top" xlink:title="gk_mcoreMalloc">
<polygon fill="#ffffff" stroke="#000000" points="505,-329 505,-348 593,-348 593,-329 505,-329"/>
<text text-anchor="middle" x="549" y="-336" font-family="Helvetica,sans-Serif" font-size="10.00" fill="#000000">gk_mcoreMalloc</text>
</a>
</g>
</g>
<!-- Node138&#45;&gt;Node139 -->
<g id="edge3" class="edge">
<title>Node138&#45;&gt;Node139</title>
<path fill="none" stroke="#191970" d="M447.2922,-352.1569C461.9771,-350.1851 478.8785,-347.9156 494.633,-345.8002"/>
<polygon fill="#191970" stroke="#191970" points="495.3403,-349.2367 504.7856,-344.4369 494.4087,-342.2989 495.3403,-349.2367"/>
</g>
<!-- Node140 -->
<g id="node5" class="node">
<title>Node140</title>
<g id="a_node5"><a xlink:href="../../d6/d0e/class_teuchos_1_1_ptr.html#af7234a3ac243772a707da53d011276fb" target="_top" xlink:title="Create a pointer to an object from a raw pointer. ">
<polygon fill="#ffffff" stroke="#000000" points="759.5,-367 759.5,-386 849.5,-386 849.5,-367 759.5,-367"/>
<text text-anchor="middle" x="804.5" y="-374" font-family="Helvetica,sans-Serif" font-size="10.00" fill="#000000">Teuchos::Ptr::ptr</text>
</a>
</g>
</g>
<!-- Node139&#45;&gt;Node140 -->
<g id="edge4" class="edge">
<title>Node139&#45;&gt;Node140</title>
<path fill="none" stroke="#191970" d="M593.1023,-343.0012C624.6314,-346.4229 668.0256,-351.5472 706,-357.5 719.9838,-359.6921 735.0164,-362.4073 749.0224,-365.0926"/>
<polygon fill="#191970" stroke="#191970" points="748.5257,-368.5615 759.0099,-367.0347 749.8619,-361.6902 748.5257,-368.5615"/>
</g>
<!-- Node141 -->
<g id="node6" class="node">
<title>Node141</title>
<g id="a_node6"><a xlink:href="../../d7/d8a/mcore_8c.html#a366348b623d380f773e5946011e14059" target="_top" xlink:title="gk_mcoreAdd">
<polygon fill="#ffffff" stroke="#000000" points="629,-367 629,-386 706,-386 706,-367 629,-367"/>
<text text-anchor="middle" x="667.5" y="-374" font-family="Helvetica,sans-Serif" font-size="10.00" fill="#000000">gk_mcoreAdd</text>
</a>
</g>
</g>
<!-- Node139&#45;&gt;Node141 -->
<g id="edge5" class="edge">
<title>Node139&#45;&gt;Node141</title>
<path fill="none" stroke="#191970" d="M578.9026,-348.089C593.7787,-352.8594 611.9571,-358.6888 627.9674,-363.8229"/>
<polygon fill="#191970" stroke="#191970" points="627.0159,-367.1932 637.607,-366.9141 629.1534,-360.5276 627.0159,-367.1932"/>
</g>
<!-- Node145 -->
<g id="node10" class="node">
<title>Node145</title>
<g id="a_node10"><a xlink:href="../../d3/d5a/gk__proto_8h.html#aba6f76f5c67b9b7e9c2e45988d3d3e9d" target="_top" xlink:title="gk_malloc">
<polygon fill="#ffffff" stroke="#000000" points="637,-291 637,-310 698,-310 698,-291 637,-291"/>
<text text-anchor="middle" x="667.5" y="-298" font-family="Helvetica,sans-Serif" font-size="10.00" fill="#000000">gk_malloc</text>
</a>
</g>
</g>
<!-- Node139&#45;&gt;Node145 -->
<g id="edge10" class="edge">
<title>Node139&#45;&gt;Node145</title>
<path fill="none" stroke="#191970" d="M578.9026,-328.911C593.7787,-324.1406 611.9571,-318.3112 627.9674,-313.1771"/>
<polygon fill="#191970" stroke="#191970" points="629.1534,-316.4724 637.607,-310.0859 627.0159,-309.8068 629.1534,-316.4724"/>
</g>
<!-- Node141&#45;&gt;Node140 -->
<g id="edge9" class="edge">
<title>Node141&#45;&gt;Node140</title>
<path fill="none" stroke="#191970" d="M706.0267,-376.5C719.4006,-376.5 734.6733,-376.5 749.1346,-376.5"/>
<polygon fill="#191970" stroke="#191970" points="749.4825,-380.0001 759.4825,-376.5 749.4824,-373.0001 749.4825,-380.0001"/>
</g>
<!-- Node142 -->
<g id="node7" class="node">
<title>Node142</title>
<g id="a_node7"><a xlink:href="../../dc/d51/mallocx_8c.html#a107a5b003f5c4846342feae2c4b5e379" target="_top" xlink:title="realloc">
<polygon fill="#ffffff" stroke="#000000" points="782,-405 782,-424 827,-424 827,-405 782,-405"/>
<text text-anchor="middle" x="804.5" y="-412" font-family="Helvetica,sans-Serif" font-size="10.00" fill="#000000">realloc</text>
</a>
</g>
</g>
<!-- Node141&#45;&gt;Node142 -->
<g id="edge6" class="edge">
<title>Node141&#45;&gt;Node142</title>
<path fill="none" stroke="#191970" d="M702.0709,-386.089C723.5971,-392.0598 751.1037,-399.6894 772.1912,-405.5384"/>
<polygon fill="#191970" stroke="#191970" points="771.4015,-408.9515 781.9732,-408.2517 773.2725,-402.2061 771.4015,-408.9515"/>
</g>
<!-- Node143 -->
<g id="node8" class="node">
<title>Node143</title>
<g id="a_node8"><a xlink:href="../../d0/d3e/3rd_party_2metis-5_81_80_2_g_klib_2error_8c.html#a4c320c13bcdc9967613253ef4c73f59f" target="_top" xlink:title="gk_errexit">
<polygon fill="#ffffff" stroke="#000000" points="775,-329 775,-348 834,-348 834,-329 775,-329"/>
<text text-anchor="middle" x="804.5" y="-336" font-family="Helvetica,sans-Serif" font-size="10.00" fill="#000000">gk_errexit</text>
</a>
</g>
</g>
<!-- Node141&#45;&gt;Node143 -->
<g id="edge7" class="edge">
<title>Node141&#45;&gt;Node143</title>
<path fill="none" stroke="#191970" d="M702.0709,-366.911C721.1936,-361.6069 745.036,-354.9937 764.905,-349.4825"/>
<polygon fill="#191970" stroke="#191970" points="765.8928,-352.8408 774.5935,-346.7952 764.0218,-346.0955 765.8928,-352.8408"/>
</g>
<!-- Node144 -->
<g id="node9" class="node">
<title>Node144</title>
<g id="a_node9"><a xlink:href="../../d4/d98/g_09_09malloc_8c.html#a49f789e614e57e410f598885b800c2df" target="_top" xlink:title="fprintf">
<polygon fill="#ffffff" stroke="#000000" points="903,-310 903,-329 944,-329 944,-310 903,-310"/>
<text text-anchor="middle" x="923.5" y="-317" font-family="Helvetica,sans-Serif" font-size="10.00" fill="#000000">fprintf</text>
</a>
</g>
</g>
<!-- Node143&#45;&gt;Node144 -->
<g id="edge8" class="edge">
<title>Node143&#45;&gt;Node144</title>
<path fill="none" stroke="#191970" d="M834.2218,-333.7545C852.0614,-330.9062 874.7131,-327.2895 892.7358,-324.4119"/>
<polygon fill="#191970" stroke="#191970" points="893.4179,-327.8474 902.741,-322.8145 892.3142,-320.935 893.4179,-327.8474"/>
</g>
<!-- Node145&#45;&gt;Node140 -->
<g id="edge11" class="edge">
<title>Node145&#45;&gt;Node140</title>
<path fill="none" stroke="#191970" d="M684.4333,-310.1299C691.316,-314.2786 699.2265,-319.3541 706,-324.5 723.2832,-337.6303 723.1481,-346.7428 742,-357.5 745.8724,-359.7096 750.0293,-361.6887 754.292,-363.4559"/>
<polygon fill="#191970" stroke="#191970" points="753.1315,-366.7586 763.7237,-366.9934 755.5897,-360.2044 753.1315,-366.7586"/>
</g>
<!-- Node145&#45;&gt;Node143 -->
<g id="edge16" class="edge">
<title>Node145&#45;&gt;Node143</title>
<path fill="none" stroke="#191970" d="M698.2455,-309.0279C717.9959,-314.5062 743.8361,-321.6735 765.0884,-327.5683"/>
<polygon fill="#191970" stroke="#191970" points="764.2264,-330.9613 774.7981,-330.2615 766.0974,-324.216 764.2264,-330.9613"/>
</g>
<!-- Node145&#45;&gt;Node144 -->
<g id="edge13" class="edge">
<title>Node145&#45;&gt;Node144</title>
<path fill="none" stroke="#191970" d="M698.1253,-302.773C747.3355,-306.4253 843.4721,-313.5604 892.757,-317.2183"/>
<polygon fill="#191970" stroke="#191970" points="892.5804,-320.7147 902.8121,-317.9646 893.0986,-313.7339 892.5804,-320.7147"/>
</g>
<!-- Node146 -->
<g id="node11" class="node">
<title>Node146</title>
<g id="a_node11"><a xlink:href="../../dc/ddc/3rd_party_2flex-2_85_835_2parse_8c.html#a5faf6a2d99f50a4655dd390199a8db7b" target="_top" xlink:title="malloc">
<polygon fill="#ffffff" stroke="#000000" points="782,-253 782,-272 827,-272 827,-253 782,-253"/>
<text text-anchor="middle" x="804.5" y="-260" font-family="Helvetica,sans-Serif" font-size="10.00" fill="#000000">malloc</text>
</a>
</g>
</g>
<!-- Node145&#45;&gt;Node146 -->
<g id="edge12" class="edge">
<title>Node145&#45;&gt;Node146</title>
<path fill="none" stroke="#191970" d="M698.2455,-291.9721C720.2745,-285.8618 749.8794,-277.6502 772.2444,-271.4468"/>
<polygon fill="#191970" stroke="#191970" points="773.2569,-274.7982 781.9576,-268.7526 771.3859,-268.0529 773.2569,-274.7982"/>
</g>
<!-- Node147 -->
<g id="node12" class="node">
<title>Node147</title>
<g id="a_node12"><a xlink:href="../../df/dd5/memory_8c.html#ad2327b94227019b6753b6b09400c0522" target="_top" xlink:title="gk_GetCurMemoryUsed">
<polygon fill="#ffffff" stroke="#000000" points="743.5,-215 743.5,-234 865.5,-234 865.5,-215 743.5,-215"/>
<text text-anchor="middle" x="804.5" y="-222" font-family="Helvetica,sans-Serif" font-size="10.00" fill="#000000">gk_GetCurMemoryUsed</text>
</a>
</g>
</g>
<!-- Node145&#45;&gt;Node147 -->
<g id="edge14" class="edge">
<title>Node145&#45;&gt;Node147</title>
<path fill="none" stroke="#191970" d="M677.7744,-290.6839C691.4319,-278.1204 716.7888,-256.437 742,-243.5 746.3135,-241.2865 750.9293,-239.2825 755.6261,-237.4797"/>
<polygon fill="#191970" stroke="#191970" points="757.0465,-240.6899 765.3098,-234.059 754.715,-234.0896 757.0465,-240.6899"/>
</g>
<!-- Node148 -->
<g id="node13" class="node">
<title>Node148</title>
<g id="a_node13"><a xlink:href="../../df/dd5/memory_8c.html#a656fd5266ae12a96e53125486f8fea52" target="_top" xlink:title="gk_GetMaxMemoryUsed">
<polygon fill="#ffffff" stroke="#000000" points="742,-177 742,-196 867,-196 867,-177 742,-177"/>
<text text-anchor="middle" x="804.5" y="-184" font-family="Helvetica,sans-Serif" font-size="10.00" fill="#000000">gk_GetMaxMemoryUsed</text>
</a>
</g>
</g>
<!-- Node145&#45;&gt;Node148 -->
<g id="edge15" class="edge">
<title>Node145&#45;&gt;Node148</title>
<path fill="none" stroke="#191970" d="M672.4299,-290.8223C682.7031,-271.6255 708.2775,-228.5926 742,-205.5 744.8949,-203.5176 748.0029,-201.7369 751.2302,-200.138"/>
<polygon fill="#191970" stroke="#191970" points="752.7773,-203.2822 760.5635,-196.0972 749.9961,-196.8584 752.7773,-203.2822"/>
</g>
<!-- Node149&#45;&gt;Node138 -->
<g id="edge18" class="edge">
<title>Node149&#45;&gt;Node138</title>
<path fill="none" stroke="#191970" d="M273.5297,-386.5907C298.7915,-381.1053 331.3331,-374.0391 358.0183,-368.2446"/>
<polygon fill="#191970" stroke="#191970" points="358.902,-371.6344 367.9316,-366.092 357.4166,-364.7938 358.902,-371.6344"/>
</g>
<!-- Node150&#45;&gt;Node139 -->
<g id="edge20" class="edge">
<title>Node150&#45;&gt;Node139</title>
<path fill="none" stroke="#191970" d="M447.2922,-324.8431C461.9771,-326.8149 478.8785,-329.0844 494.633,-331.1998"/>
<polygon fill="#191970" stroke="#191970" points="494.4087,-334.7011 504.7856,-332.5631 495.3403,-327.7633 494.4087,-334.7011"/>
</g>
<!-- Node153&#45;&gt;Node154 -->
<g id="edge24" class="edge">
<title>Node153&#45;&gt;Node154</title>
<path fill="none" stroke="#191970" d="M289.8015,-199.2787C304.6838,-197.6629 320.8945,-195.9029 336.3936,-194.2201"/>
<polygon fill="#191970" stroke="#191970" points="336.891,-197.6868 346.4547,-193.1278 336.1353,-190.7277 336.891,-197.6868"/>
</g>
<!-- Node159 -->
<g id="node24" class="node">
<title>Node159</title>
<g id="a_node24"><a xlink:href="../../dd/d11/namespaceboost_1_1numeric_1_1bindings_1_1blas_1_1detail.html#a9c2babe60818789ab2cb8cce42e93043" target="_top" xlink:title="boost::numeric::bindings\l::blas::detail::nrm2">
<polygon fill="#ffffff" stroke="#000000" points="346,-.5 346,-30.5 469,-30.5 469,-.5 346,-.5"/>
<text text-anchor="start" x="354" y="-18.5" font-family="Helvetica,sans-Serif" font-size="10.00" fill="#000000">boost::numeric::bindings</text>
<text text-anchor="middle" x="407.5" y="-7.5" font-family="Helvetica,sans-Serif" font-size="10.00" fill="#000000">::blas::detail::nrm2</text>
</a>
</g>
</g>
<!-- Node158&#45;&gt;Node159 -->
<g id="edge29" class="edge">
<title>Node158&#45;&gt;Node159</title>
<path fill="none" stroke="#191970" d="M284.532,-15.5C300.4682,-15.5 318.2938,-15.5 335.3205,-15.5"/>
<polygon fill="#191970" stroke="#191970" points="335.7948,-19.0001 345.7948,-15.5 335.7948,-12.0001 335.7948,-19.0001"/>
</g>
</g>
</svg>
