<?xml version="1.0" encoding="UTF-8" standalone="no"?>
<!DOCTYPE svg PUBLIC "-//W3C//DTD SVG 1.1//EN"
 "http://www.w3.org/Graphics/SVG/1.1/DTD/svg11.dtd">
<!-- Generated by graphviz version 2.40.1 (20161225.0304)
 -->
<!-- Title: omc_ConnectUtil_generateInStreamExp Pages: 1 -->
<svg width="295pt" height="39pt"
 viewBox="0.00 0.00 295.00 39.00" xmlns="http://www.w3.org/2000/svg" xmlns:xlink="http://www.w3.org/1999/xlink">
<g id="graph0" class="graph" transform="scale(1 1) rotate(0) translate(4 35)">
<title>omc_ConnectUtil_generateInStreamExp</title>
<polygon fill="#ffffff" stroke="transparent" points="-4,4 -4,-35 291,-35 291,4 -4,4"/>
<!-- Node1941 -->
<g id="node1" class="node">
<title>Node1941</title>
<polygon fill="#bfbfbf" stroke="#000000" points="0,-.5 0,-30.5 135,-30.5 135,-.5 0,-.5"/>
<text text-anchor="start" x="8" y="-18.5" font-family="Helvetica,sans-Serif" font-size="10.00" fill="#000000">omc_ConnectUtil_generate</text>
<text text-anchor="middle" x="67.5" y="-7.5" font-family="Helvetica,sans-Serif" font-size="10.00" fill="#000000">InStreamExp</text>
</g>
<!-- Node1942 -->
<g id="node2" class="node">
<title>Node1942</title>
<g id="a_node2"><a xlink:href="../../d3/d5a/_connect_util_8c.html#a01842737a7a004771371c46cfa4a904e" target="_top" xlink:title="boxptr_ConnectUtil\l_generateInStreamExp">
<polygon fill="#ffffff" stroke="#000000" points="171,-.5 171,-30.5 287,-30.5 287,-.5 171,-.5"/>
<text text-anchor="start" x="179" y="-18.5" font-family="Helvetica,sans-Serif" font-size="10.00" fill="#000000">boxptr_ConnectUtil</text>
<text text-anchor="middle" x="229" y="-7.5" font-family="Helvetica,sans-Serif" font-size="10.00" fill="#000000">_generateInStreamExp</text>
</a>
</g>
</g>
<!-- Node1941&#45;&gt;Node1942 -->
<g id="edge1" class="edge">
<title>Node1941&#45;&gt;Node1942</title>
<path fill="none" stroke="#191970" d="M145.1888,-15.5C153.8605,-15.5 162.5792,-15.5 170.9443,-15.5"/>
<polygon fill="#191970" stroke="#191970" points="145.0548,-12.0001 135.0548,-15.5 145.0547,-19.0001 145.0548,-12.0001"/>
</g>
</g>
</svg>
