<?xml version="1.0" encoding="UTF-8" standalone="no"?>
<!DOCTYPE svg PUBLIC "-//W3C//DTD SVG 1.1//EN"
 "http://www.w3.org/Graphics/SVG/1.1/DTD/svg11.dtd">
<!-- Generated by graphviz version 2.40.1 (20161225.0304)
 -->
<!-- Title: omc_ConnectUtil_mergeWithRest Pages: 1 -->
<svg width="680pt" height="139pt"
 viewBox="0.00 0.00 680.00 139.03" xmlns="http://www.w3.org/2000/svg" xmlns:xlink="http://www.w3.org/1999/xlink">
<g id="graph0" class="graph" transform="scale(1 1) rotate(0) translate(4 135.0284)">
<title>omc_ConnectUtil_mergeWithRest</title>
<polygon fill="#ffffff" stroke="transparent" points="-4,4 -4,-135.0284 676,-135.0284 676,4 -4,4"/>
<!-- Node2358 -->
<g id="node1" class="node">
<title>Node2358</title>
<polygon fill="#bfbfbf" stroke="#000000" points="0,-54.5284 0,-73.5284 166,-73.5284 166,-54.5284 0,-54.5284"/>
<text text-anchor="middle" x="83" y="-61.5284" font-family="Helvetica,sans-Serif" font-size="10.00" fill="#000000">omc_ConnectUtil_mergeWithRest</text>
</g>
<!-- Node2359 -->
<g id="node2" class="node">
<title>Node2359</title>
<g id="a_node2"><a xlink:href="../../d2/d57/build_2include_2omc_2c_2meta_2meta__modelica__builtin_8h.html#a81001ba45c298ade27540edd2589777c" target="_top" xlink:title="listReverse">
<polygon fill="#ffffff" stroke="#000000" points="227.5,-111.5284 227.5,-130.5284 293.5,-130.5284 293.5,-111.5284 227.5,-111.5284"/>
<text text-anchor="middle" x="260.5" y="-118.5284" font-family="Helvetica,sans-Serif" font-size="10.00" fill="#000000">listReverse</text>
</a>
</g>
</g>
<!-- Node2358&#45;&gt;Node2359 -->
<g id="edge1" class="edge">
<title>Node2358&#45;&gt;Node2359</title>
<path fill="none" stroke="#191970" d="M112.7095,-73.569C142.4032,-83.1044 188.2344,-97.822 220.9827,-108.3384"/>
<polygon fill="#191970" stroke="#191970" points="220.1023,-111.7316 230.6936,-111.4568 222.2426,-105.0668 220.1023,-111.7316"/>
</g>
<!-- Node2360 -->
<g id="node3" class="node">
<title>Node2360</title>
<g id="a_node3"><a xlink:href="../../da/d72/_compiler_2boot_2build_2list_8c.html#a4f655d1e061564d848fd77c3d797dc72" target="_top" xlink:title="omc_List_intersectionOnTrue">
<polygon fill="#ffffff" stroke="#000000" points="355,-92.5284 355,-111.5284 499,-111.5284 499,-92.5284 355,-92.5284"/>
<text text-anchor="middle" x="427" y="-99.5284" font-family="Helvetica,sans-Serif" font-size="10.00" fill="#000000">omc_List_intersectionOnTrue</text>
</a>
</g>
</g>
<!-- Node2358&#45;&gt;Node2360 -->
<g id="edge2" class="edge">
<title>Node2358&#45;&gt;Node2360</title>
<path fill="none" stroke="#191970" d="M166.2728,-73.2272C220.4459,-79.2114 290.7899,-86.982 344.7565,-92.9434"/>
<polygon fill="#191970" stroke="#191970" points="344.6541,-96.4533 354.978,-94.0725 345.4228,-89.4956 344.6541,-96.4533"/>
</g>
<!-- Node2362 -->
<g id="node5" class="node">
<title>Node2362</title>
<g id="a_node5"><a xlink:href="../../da/d72/_compiler_2boot_2build_2list_8c.html#ae6e75e40a4f67cd6916f66e6033da6ea" target="_top" xlink:title="omc_List_unionOnTrue">
<polygon fill="#ffffff" stroke="#000000" points="202,-35.5284 202,-54.5284 319,-54.5284 319,-35.5284 202,-35.5284"/>
<text text-anchor="middle" x="260.5" y="-42.5284" font-family="Helvetica,sans-Serif" font-size="10.00" fill="#000000">omc_List_unionOnTrue</text>
</a>
</g>
</g>
<!-- Node2358&#45;&gt;Node2362 -->
<g id="edge4" class="edge">
<title>Node2358&#45;&gt;Node2362</title>
<path fill="none" stroke="#191970" d="M166.0333,-55.1404C174.6288,-54.2203 183.2962,-53.2925 191.7111,-52.3918"/>
<polygon fill="#191970" stroke="#191970" points="192.2577,-55.8533 201.8283,-51.3088 191.5126,-48.8931 192.2577,-55.8533"/>
</g>
<!-- Node2364 -->
<g id="node7" class="node">
<title>Node2364</title>
<g id="a_node7"><a xlink:href="../../da/d72/_compiler_2boot_2build_2list_8c.html#a22f5b7cd064c1d413b9056674f5c910b" target="_top" xlink:title="omc_List_consOnTrue">
<polygon fill="#ffffff" stroke="#000000" points="546,-16.5284 546,-35.5284 661,-35.5284 661,-16.5284 546,-16.5284"/>
<text text-anchor="middle" x="603.5" y="-23.5284" font-family="Helvetica,sans-Serif" font-size="10.00" fill="#000000">omc_List_consOnTrue</text>
</a>
</g>
</g>
<!-- Node2358&#45;&gt;Node2364 -->
<g id="edge9" class="edge">
<title>Node2358&#45;&gt;Node2364</title>
<path fill="none" stroke="#191970" d="M108.1616,-54.4875C131.9952,-45.8125 168.956,-33.2902 202,-26.0284 331.1871,2.3618 367.2646,4.8501 499,-7.0284 516.0338,-8.5644 534.4419,-11.4814 550.9926,-14.5771"/>
<polygon fill="#191970" stroke="#191970" points="550.5462,-18.0556 561.0287,-16.517 551.8747,-11.1828 550.5462,-18.0556"/>
</g>
<!-- Node2361 -->
<g id="node4" class="node">
<title>Node2361</title>
<g id="a_node4"><a xlink:href="../../da/d72/_compiler_2boot_2build_2list_8c.html#a46ff38d9ba124b9a152c68891c64cb54" target="_top" xlink:title="omc_List_isMemberOnTrue">
<polygon fill="#ffffff" stroke="#000000" points="535,-73.5284 535,-92.5284 672,-92.5284 672,-73.5284 535,-73.5284"/>
<text text-anchor="middle" x="603.5" y="-80.5284" font-family="Helvetica,sans-Serif" font-size="10.00" fill="#000000">omc_List_isMemberOnTrue</text>
</a>
</g>
</g>
<!-- Node2360&#45;&gt;Node2361 -->
<g id="edge3" class="edge">
<title>Node2360&#45;&gt;Node2361</title>
<path fill="none" stroke="#191970" d="M499.0439,-94.273C507.5393,-93.3585 516.2423,-92.4216 524.8231,-91.4979"/>
<polygon fill="#191970" stroke="#191970" points="525.2524,-94.972 534.8203,-90.4217 524.5031,-88.0122 525.2524,-94.972"/>
</g>
<!-- Node2363 -->
<g id="node6" class="node">
<title>Node2363</title>
<g id="a_node6"><a xlink:href="../../da/d72/_compiler_2boot_2build_2list_8c.html#a9781b9c074e2211b732f747006ec58bd" target="_top" xlink:title="omc_List_unionEltOnTrue">
<polygon fill="#ffffff" stroke="#000000" points="362.5,-54.5284 362.5,-73.5284 491.5,-73.5284 491.5,-54.5284 362.5,-54.5284"/>
<text text-anchor="middle" x="427" y="-61.5284" font-family="Helvetica,sans-Serif" font-size="10.00" fill="#000000">omc_List_unionEltOnTrue</text>
</a>
</g>
</g>
<!-- Node2362&#45;&gt;Node2363 -->
<g id="edge5" class="edge">
<title>Node2362&#45;&gt;Node2363</title>
<path fill="none" stroke="#191970" d="M319.2017,-51.7271C329.8823,-52.9459 341.155,-54.2323 352.2257,-55.4956"/>
<polygon fill="#191970" stroke="#191970" points="351.9806,-58.9903 362.313,-56.6467 352.7743,-52.0354 351.9806,-58.9903"/>
</g>
<!-- Node2365 -->
<g id="node8" class="node">
<title>Node2365</title>
<g id="a_node8"><a xlink:href="../../d2/d57/build_2include_2omc_2c_2meta_2meta__modelica__builtin_8h.html#ad7cc5a28ee76a604bbbddfd643761734" target="_top" xlink:title="listReverseInPlace">
<polygon fill="#ffffff" stroke="#000000" points="377.5,-16.5284 377.5,-35.5284 476.5,-35.5284 476.5,-16.5284 377.5,-16.5284"/>
<text text-anchor="middle" x="427" y="-23.5284" font-family="Helvetica,sans-Serif" font-size="10.00" fill="#000000">listReverseInPlace</text>
</a>
</g>
</g>
<!-- Node2362&#45;&gt;Node2365 -->
<g id="edge8" class="edge">
<title>Node2362&#45;&gt;Node2365</title>
<path fill="none" stroke="#191970" d="M319.2017,-38.3297C334.7925,-36.5506 351.6449,-34.6275 367.289,-32.8423"/>
<polygon fill="#191970" stroke="#191970" points="367.8308,-36.3033 377.3695,-31.692 367.0371,-29.3484 367.8308,-36.3033"/>
</g>
<!-- Node2363&#45;&gt;Node2361 -->
<g id="edge7" class="edge">
<title>Node2363&#45;&gt;Node2361</title>
<path fill="none" stroke="#191970" d="M491.7199,-70.9954C502.4915,-72.155 513.7676,-73.3689 524.84,-74.5608"/>
<polygon fill="#191970" stroke="#191970" points="524.6137,-78.0566 534.9309,-75.6471 525.3629,-71.0968 524.6137,-78.0566"/>
</g>
<!-- Node2363&#45;&gt;Node2364 -->
<g id="edge6" class="edge">
<title>Node2363&#45;&gt;Node2364</title>
<path fill="none" stroke="#191970" d="M471.5384,-54.4394C495.1442,-49.3572 524.3325,-43.073 549.2511,-37.7081"/>
<polygon fill="#191970" stroke="#191970" points="550.2426,-41.0749 559.2819,-35.5485 548.7692,-34.2317 550.2426,-41.0749"/>
</g>
</g>
</svg>
