<?xml version="1.0" encoding="UTF-8" standalone="no"?>
<!DOCTYPE svg PUBLIC "-//W3C//DTD SVG 1.1//EN"
 "http://www.w3.org/Graphics/SVG/1.1/DTD/svg11.dtd">
<!-- Generated by graphviz version 2.40.1 (20161225.0304)
 -->
<!-- Title: boxptr_ConnectUtil_sumOutside2 Pages: 1 -->
<svg width="983pt" height="137pt"
 viewBox="0.00 0.00 983.00 137.00" xmlns="http://www.w3.org/2000/svg" xmlns:xlink="http://www.w3.org/1999/xlink">
<g id="graph0" class="graph" transform="scale(1 1) rotate(0) translate(4 133)">
<title>boxptr_ConnectUtil_sumOutside2</title>
<polygon fill="#ffffff" stroke="transparent" points="-4,4 -4,-133 979,-133 979,4 -4,4"/>
<!-- Node853 -->
<g id="node1" class="node">
<title>Node853</title>
<polygon fill="#bfbfbf" stroke="#000000" points="0,-49.5 0,-79.5 101,-79.5 101,-49.5 0,-49.5"/>
<text text-anchor="start" x="8" y="-67.5" font-family="Helvetica,sans-Serif" font-size="10.00" fill="#000000">boxptr_ConnectUtil</text>
<text text-anchor="middle" x="50.5" y="-56.5" font-family="Helvetica,sans-Serif" font-size="10.00" fill="#000000">_sumOutside2</text>
</g>
<!-- Node854 -->
<g id="node2" class="node">
<title>Node854</title>
<g id="a_node2"><a xlink:href="../../d3/d5a/_connect_util_8c.html#a6196d9b898c2c22a41f8cb354f502b50" target="_top" xlink:title="omc_ConnectUtil_sumOutside2">
<polygon fill="#ffffff" stroke="#000000" points="137,-55 137,-74 292,-74 292,-55 137,-55"/>
<text text-anchor="middle" x="214.5" y="-62" font-family="Helvetica,sans-Serif" font-size="10.00" fill="#000000">omc_ConnectUtil_sumOutside2</text>
</a>
</g>
</g>
<!-- Node853&#45;&gt;Node854 -->
<g id="edge1" class="edge">
<title>Node853&#45;&gt;Node854</title>
<path fill="none" stroke="#191970" d="M101.0436,-64.5C109.3177,-64.5 118.0954,-64.5 126.9598,-64.5"/>
<polygon fill="#191970" stroke="#191970" points="126.9827,-68.0001 136.9827,-64.5 126.9827,-61.0001 126.9827,-68.0001"/>
</g>
<!-- Node855 -->
<g id="node3" class="node">
<title>Node855</title>
<g id="a_node3"><a xlink:href="../../d3/d5a/_connect_util_8c.html#a184485a290cc8cc5036c9c2c7f32cbbe" target="_top" xlink:title="omc_ConnectUtil_flowExp">
<polygon fill="#ffffff" stroke="#000000" points="328,-55 328,-74 461,-74 461,-55 328,-55"/>
<text text-anchor="middle" x="394.5" y="-62" font-family="Helvetica,sans-Serif" font-size="10.00" fill="#000000">omc_ConnectUtil_flowExp</text>
</a>
</g>
</g>
<!-- Node854&#45;&gt;Node855 -->
<g id="edge2" class="edge">
<title>Node854&#45;&gt;Node855</title>
<path fill="none" stroke="#191970" d="M292.1422,-64.5C300.598,-64.5 309.202,-64.5 317.6482,-64.5"/>
<polygon fill="#191970" stroke="#191970" points="317.8518,-68.0001 327.8518,-64.5 317.8517,-61.0001 317.8518,-68.0001"/>
</g>
<!-- Node856 -->
<g id="node4" class="node">
<title>Node856</title>
<g id="a_node4"><a xlink:href="../../d1/d08/_expression_8c.html#a709f5f88a0de42de5e2520d606c17275" target="_top" xlink:title="omc_Expression_crefExp">
<polygon fill="#ffffff" stroke="#000000" points="497,-55 497,-74 625,-74 625,-55 497,-55"/>
<text text-anchor="middle" x="561" y="-62" font-family="Helvetica,sans-Serif" font-size="10.00" fill="#000000">omc_Expression_crefExp</text>
</a>
</g>
</g>
<!-- Node855&#45;&gt;Node856 -->
<g id="edge3" class="edge">
<title>Node855&#45;&gt;Node856</title>
<path fill="none" stroke="#191970" d="M461.2626,-64.5C469.6241,-64.5 478.2169,-64.5 486.6849,-64.5"/>
<polygon fill="#191970" stroke="#191970" points="486.9282,-68.0001 496.9282,-64.5 486.9281,-61.0001 486.9282,-68.0001"/>
</g>
<!-- Node857 -->
<g id="node5" class="node">
<title>Node857</title>
<g id="a_node5"><a xlink:href="../../d9/d14/_component_reference_8c.html#a4cbfe93b088d5e37d7d9bbd8c886f54d" target="_top" xlink:title="omc_ComponentReference\l_crefLastType">
<polygon fill="#ffffff" stroke="#000000" points="662.5,-98.5 662.5,-128.5 798.5,-128.5 798.5,-98.5 662.5,-98.5"/>
<text text-anchor="start" x="670.5" y="-116.5" font-family="Helvetica,sans-Serif" font-size="10.00" fill="#000000">omc_ComponentReference</text>
<text text-anchor="middle" x="730.5" y="-105.5" font-family="Helvetica,sans-Serif" font-size="10.00" fill="#000000">_crefLastType</text>
</a>
</g>
</g>
<!-- Node856&#45;&gt;Node857 -->
<g id="edge4" class="edge">
<title>Node856&#45;&gt;Node857</title>
<path fill="none" stroke="#191970" d="M594.0837,-74.064C615.2618,-80.1863 643.4005,-88.3208 668.6191,-95.6111"/>
<polygon fill="#191970" stroke="#191970" points="667.9057,-99.0482 678.4844,-98.463 669.8498,-92.3235 667.9057,-99.0482"/>
</g>
<!-- Node858 -->
<g id="node6" class="node">
<title>Node858</title>
<g id="a_node6"><a xlink:href="../../d9/d14/_component_reference_8c.html#a3f6103afac7dca99c57aa2db9673bd27" target="_top" xlink:title="omc_ComponentReference\l_crefLastSubs">
<polygon fill="#ffffff" stroke="#000000" points="662.5,-49.5 662.5,-79.5 798.5,-79.5 798.5,-49.5 662.5,-49.5"/>
<text text-anchor="start" x="670.5" y="-67.5" font-family="Helvetica,sans-Serif" font-size="10.00" fill="#000000">omc_ComponentReference</text>
<text text-anchor="middle" x="730.5" y="-56.5" font-family="Helvetica,sans-Serif" font-size="10.00" fill="#000000">_crefLastSubs</text>
</a>
</g>
</g>
<!-- Node856&#45;&gt;Node858 -->
<g id="edge5" class="edge">
<title>Node856&#45;&gt;Node858</title>
<path fill="none" stroke="#191970" d="M625.0807,-64.5C633.9356,-64.5 643.111,-64.5 652.1875,-64.5"/>
<polygon fill="#191970" stroke="#191970" points="652.3706,-68.0001 662.3706,-64.5 652.3706,-61.0001 652.3706,-68.0001"/>
</g>
<!-- Node859 -->
<g id="node7" class="node">
<title>Node859</title>
<g id="a_node7"><a xlink:href="../../d1/d08/_expression_8c.html#acdd0e6e6845c989964d03169ad05e5e8" target="_top" xlink:title="omc_Expression_unliftArray\lTypeWithSubs">
<polygon fill="#ffffff" stroke="#000000" points="661,-.5 661,-30.5 800,-30.5 800,-.5 661,-.5"/>
<text text-anchor="start" x="669" y="-18.5" font-family="Helvetica,sans-Serif" font-size="10.00" fill="#000000">omc_Expression_unliftArray</text>
<text text-anchor="middle" x="730.5" y="-7.5" font-family="Helvetica,sans-Serif" font-size="10.00" fill="#000000">TypeWithSubs</text>
</a>
</g>
</g>
<!-- Node856&#45;&gt;Node859 -->
<g id="edge6" class="edge">
<title>Node856&#45;&gt;Node859</title>
<path fill="none" stroke="#191970" d="M594.0837,-54.936C615.2618,-48.8137 643.4005,-40.6792 668.6191,-33.3889"/>
<polygon fill="#191970" stroke="#191970" points="669.8498,-36.6765 678.4844,-30.537 667.9057,-29.9518 669.8498,-36.6765"/>
</g>
<!-- Node860 -->
<g id="node8" class="node">
<title>Node860</title>
<g id="a_node8"><a xlink:href="../../d1/d08/_expression_8c.html#a1e88195201ddbc16bb324633d806a27d" target="_top" xlink:title="omc_Expression_unliftArray">
<polygon fill="#ffffff" stroke="#000000" points="836,-6 836,-25 975,-25 975,-6 836,-6"/>
<text text-anchor="middle" x="905.5" y="-13" font-family="Helvetica,sans-Serif" font-size="10.00" fill="#000000">omc_Expression_unliftArray</text>
</a>
</g>
</g>
<!-- Node859&#45;&gt;Node860 -->
<g id="edge7" class="edge">
<title>Node859&#45;&gt;Node860</title>
<path fill="none" stroke="#191970" d="M800.1675,-15.5C808.5024,-15.5 817.0628,-15.5 825.5285,-15.5"/>
<polygon fill="#191970" stroke="#191970" points="825.7864,-19.0001 835.7863,-15.5 825.7863,-12.0001 825.7864,-19.0001"/>
</g>
</g>
</svg>
