<?xml version="1.0" encoding="UTF-8" standalone="no"?>
<!DOCTYPE svg PUBLIC "-//W3C//DTD SVG 1.1//EN"
 "http://www.w3.org/Graphics/SVG/1.1/DTD/svg11.dtd">
<!-- Generated by graphviz version 2.40.1 (20161225.0304)
 -->
<!-- Title: omc_ConnectUtil_countConnectorVars Pages: 1 -->
<svg width="797pt" height="88pt"
 viewBox="0.00 0.00 797.00 88.00" xmlns="http://www.w3.org/2000/svg" xmlns:xlink="http://www.w3.org/1999/xlink">
<g id="graph0" class="graph" transform="scale(1 1) rotate(0) translate(4 84)">
<title>omc_ConnectUtil_countConnectorVars</title>
<polygon fill="#ffffff" stroke="transparent" points="-4,4 -4,-84 793,-84 793,4 -4,4"/>
<!-- Node1509 -->
<g id="node1" class="node">
<title>Node1509</title>
<polygon fill="#bfbfbf" stroke="#000000" points="0,-30 0,-49 187,-49 187,-30 0,-30"/>
<text text-anchor="middle" x="93.5" y="-37" font-family="Helvetica,sans-Serif" font-size="10.00" fill="#000000">omc_ConnectUtil_countConnectorVars</text>
</g>
<!-- Node1510 -->
<g id="node2" class="node">
<title>Node1510</title>
<g id="a_node2"><a xlink:href="../../d3/d5a/_connect_util_8c.html#ab659562197eb989aa3f6d39343bc7061" target="_top" xlink:title="boxptr_ConnectUtil\l_countConnectorVars">
<polygon fill="#ffffff" stroke="#000000" points="252,-49.5 252,-79.5 363,-79.5 363,-49.5 252,-49.5"/>
<text text-anchor="start" x="260" y="-67.5" font-family="Helvetica,sans-Serif" font-size="10.00" fill="#000000">boxptr_ConnectUtil</text>
<text text-anchor="middle" x="307.5" y="-56.5" font-family="Helvetica,sans-Serif" font-size="10.00" fill="#000000">_countConnectorVars</text>
</a>
</g>
</g>
<!-- Node1509&#45;&gt;Node1510 -->
<g id="edge1" class="edge">
<title>Node1509&#45;&gt;Node1510</title>
<path fill="none" stroke="#191970" d="M185.0166,-50.1912C207.7172,-52.8431 231.3677,-55.606 251.764,-57.9888"/>
<polygon fill="#191970" stroke="#191970" points="185.3533,-46.7068 175.0147,-49.0227 184.541,-53.6595 185.3533,-46.7068"/>
</g>
<!-- Node1511 -->
<g id="node3" class="node">
<title>Node1511</title>
<g id="a_node3"><a xlink:href="../../da/df9/_connect_util_8h.html#a779f879f956f00681e416f597a491c9a" target="_top" xlink:title="omc_ConnectUtil_checkConnector\lBalance">
<polygon fill="#ffffff" stroke="#000000" points="223,-.5 223,-30.5 392,-30.5 392,-.5 223,-.5"/>
<text text-anchor="start" x="231" y="-18.5" font-family="Helvetica,sans-Serif" font-size="10.00" fill="#000000">omc_ConnectUtil_checkConnector</text>
<text text-anchor="middle" x="307.5" y="-7.5" font-family="Helvetica,sans-Serif" font-size="10.00" fill="#000000">Balance</text>
</a>
</g>
</g>
<!-- Node1509&#45;&gt;Node1511 -->
<g id="edge2" class="edge">
<title>Node1509&#45;&gt;Node1511</title>
<path fill="none" stroke="#191970" d="M188.3752,-28.8598C199.8125,-27.5771 211.437,-26.2734 222.7168,-25.0084"/>
<polygon fill="#191970" stroke="#191970" points="187.9334,-25.3873 178.3858,-29.9801 188.7136,-32.3437 187.9334,-25.3873"/>
</g>
<!-- Node1512 -->
<g id="node4" class="node">
<title>Node1512</title>
<g id="a_node4"><a xlink:href="../../da/df9/_connect_util_8h.html#a74022d15bda993cf79ffd555b21a95c7" target="_top" xlink:title="omc_ConnectUtil_addConnector\lVariablesFromDAE">
<polygon fill="#ffffff" stroke="#000000" points="428,-.5 428,-30.5 586,-30.5 586,-.5 428,-.5"/>
<text text-anchor="start" x="436" y="-18.5" font-family="Helvetica,sans-Serif" font-size="10.00" fill="#000000">omc_ConnectUtil_addConnector</text>
<text text-anchor="middle" x="507" y="-7.5" font-family="Helvetica,sans-Serif" font-size="10.00" fill="#000000">VariablesFromDAE</text>
</a>
</g>
</g>
<!-- Node1511&#45;&gt;Node1512 -->
<g id="edge3" class="edge">
<title>Node1511&#45;&gt;Node1512</title>
<path fill="none" stroke="#191970" d="M402.196,-15.5C410.8242,-15.5 419.503,-15.5 427.9733,-15.5"/>
<polygon fill="#191970" stroke="#191970" points="402.106,-12.0001 392.106,-15.5 402.1059,-19.0001 402.106,-12.0001"/>
</g>
<!-- Node1513 -->
<g id="node5" class="node">
<title>Node1513</title>
<g id="a_node5"><a xlink:href="../../da/df9/_connect_util_8h.html#a066f1cea0d4eb419504a0707324360d2" target="_top" xlink:title="boxptr_ConnectUtil\l_addConnectorVariablesFromDAE">
<polygon fill="#ffffff" stroke="#000000" points="622,-.5 622,-30.5 789,-30.5 789,-.5 622,-.5"/>
<text text-anchor="start" x="630" y="-18.5" font-family="Helvetica,sans-Serif" font-size="10.00" fill="#000000">boxptr_ConnectUtil</text>
<text text-anchor="middle" x="705.5" y="-7.5" font-family="Helvetica,sans-Serif" font-size="10.00" fill="#000000">_addConnectorVariablesFromDAE</text>
</a>
</g>
</g>
<!-- Node1512&#45;&gt;Node1513 -->
<g id="edge4" class="edge">
<title>Node1512&#45;&gt;Node1513</title>
<path fill="none" stroke="#191970" d="M596.0447,-15.5C604.6356,-15.5 613.3295,-15.5 621.8654,-15.5"/>
<polygon fill="#191970" stroke="#191970" points="596.0229,-12.0001 586.0228,-15.5 596.0228,-19.0001 596.0229,-12.0001"/>
</g>
</g>
</svg>
