<?xml version="1.0" encoding="UTF-8" standalone="no"?>
<!DOCTYPE svg PUBLIC "-//W3C//DTD SVG 1.1//EN"
 "http://www.w3.org/Graphics/SVG/1.1/DTD/svg11.dtd">
<!-- Generated by graphviz version 2.40.1 (20161225.0304)
 -->
<!-- Title: omc_ConnectUtil_equationsDispatch Pages: 1 -->
<svg width="461pt" height="39pt"
 viewBox="0.00 0.00 461.00 39.00" xmlns="http://www.w3.org/2000/svg" xmlns:xlink="http://www.w3.org/1999/xlink">
<g id="graph0" class="graph" transform="scale(1 1) rotate(0) translate(4 35)">
<title>omc_ConnectUtil_equationsDispatch</title>
<polygon fill="#ffffff" stroke="transparent" points="-4,4 -4,-35 457,-35 457,4 -4,4"/>
<!-- Node1672 -->
<g id="node1" class="node">
<title>Node1672</title>
<polygon fill="#bfbfbf" stroke="#000000" points="0,-.5 0,-30.5 140,-30.5 140,-.5 0,-.5"/>
<text text-anchor="start" x="8" y="-18.5" font-family="Helvetica,sans-Serif" font-size="10.00" fill="#000000">omc_ConnectUtil_equations</text>
<text text-anchor="middle" x="70" y="-7.5" font-family="Helvetica,sans-Serif" font-size="10.00" fill="#000000">Dispatch</text>
</g>
<!-- Node1673 -->
<g id="node2" class="node">
<title>Node1673</title>
<g id="a_node2"><a xlink:href="../../da/df9/_connect_util_8h.html#a1e6af227db592e6ea1b19c26260c486a" target="_top" xlink:title="omc_ConnectUtil_equations">
<polygon fill="#ffffff" stroke="#000000" points="176,-6 176,-25 316,-25 316,-6 176,-6"/>
<text text-anchor="middle" x="246" y="-13" font-family="Helvetica,sans-Serif" font-size="10.00" fill="#000000">omc_ConnectUtil_equations</text>
</a>
</g>
</g>
<!-- Node1672&#45;&gt;Node1673 -->
<g id="edge1" class="edge">
<title>Node1672&#45;&gt;Node1673</title>
<path fill="none" stroke="#191970" d="M150.1006,-15.5C158.7058,-15.5 167.4124,-15.5 175.888,-15.5"/>
<polygon fill="#191970" stroke="#191970" points="150.0656,-12.0001 140.0656,-15.5 150.0655,-19.0001 150.0656,-12.0001"/>
</g>
<!-- Node1674 -->
<g id="node3" class="node">
<title>Node1674</title>
<g id="a_node3"><a xlink:href="../../da/df9/_connect_util_8h.html#a03e679bc32122873a3be9d77d9393c16" target="_top" xlink:title="boxptr_ConnectUtil\l_equations">
<polygon fill="#ffffff" stroke="#000000" points="352,-.5 352,-30.5 453,-30.5 453,-.5 352,-.5"/>
<text text-anchor="start" x="360" y="-18.5" font-family="Helvetica,sans-Serif" font-size="10.00" fill="#000000">boxptr_ConnectUtil</text>
<text text-anchor="middle" x="402.5" y="-7.5" font-family="Helvetica,sans-Serif" font-size="10.00" fill="#000000">_equations</text>
</a>
</g>
</g>
<!-- Node1673&#45;&gt;Node1674 -->
<g id="edge2" class="edge">
<title>Node1673&#45;&gt;Node1674</title>
<path fill="none" stroke="#191970" d="M326.2103,-15.5C334.9082,-15.5 343.5737,-15.5 351.7768,-15.5"/>
<polygon fill="#191970" stroke="#191970" points="326.0107,-12.0001 316.0107,-15.5 326.0106,-19.0001 326.0107,-12.0001"/>
</g>
</g>
</svg>
