<?xml version="1.0" encoding="UTF-8" standalone="no"?>
<!DOCTYPE svg PUBLIC "-//W3C//DTD SVG 1.1//EN"
 "http://www.w3.org/Graphics/SVG/1.1/DTD/svg11.dtd">
<!-- Generated by graphviz version 2.40.1 (20161225.0304)
 -->
<!-- Title: omc_ConnectUtil_makePositiveMaxCall Pages: 1 -->
<svg width="1122pt" height="161pt"
 viewBox="0.00 0.00 1122.00 161.00" xmlns="http://www.w3.org/2000/svg" xmlns:xlink="http://www.w3.org/1999/xlink">
<g id="graph0" class="graph" transform="scale(1 1) rotate(0) translate(4 157)">
<title>omc_ConnectUtil_makePositiveMaxCall</title>
<polygon fill="#ffffff" stroke="transparent" points="-4,4 -4,-157 1118,-157 1118,4 -4,4"/>
<!-- Node2287 -->
<g id="node1" class="node">
<title>Node2287</title>
<polygon fill="#bfbfbf" stroke="#000000" points="0,-71 0,-101 157,-101 157,-71 0,-71"/>
<text text-anchor="start" x="8" y="-89" font-family="Helvetica,sans-Serif" font-size="10.00" fill="#000000">omc_ConnectUtil_makePositive</text>
<text text-anchor="middle" x="78.5" y="-78" font-family="Helvetica,sans-Serif" font-size="10.00" fill="#000000">MaxCall</text>
</g>
<!-- Node2288 -->
<g id="node2" class="node">
<title>Node2288</title>
<g id="a_node2"><a xlink:href="../../d1/d08/_expression_8c.html#a007abae479310b1b518673105ceba117" target="_top" xlink:title="omc_Expression_typeof">
<polygon fill="#ffffff" stroke="#000000" points="209.5,-133.5 209.5,-152.5 331.5,-152.5 331.5,-133.5 209.5,-133.5"/>
<text text-anchor="middle" x="270.5" y="-140.5" font-family="Helvetica,sans-Serif" font-size="10.00" fill="#000000">omc_Expression_typeof</text>
</a>
</g>
</g>
<!-- Node2287&#45;&gt;Node2288 -->
<g id="edge1" class="edge">
<title>Node2287&#45;&gt;Node2288</title>
<path fill="none" stroke="#191970" d="M121.2004,-101.0738C142.6244,-108.4057 169.0495,-117.1018 193,-124 201.4147,-126.4236 210.399,-128.8088 219.1586,-131.0267"/>
<polygon fill="#191970" stroke="#191970" points="218.3613,-134.4349 228.9105,-133.4528 220.0514,-127.642 218.3613,-134.4349"/>
</g>
<!-- Node2289 -->
<g id="node3" class="node">
<title>Node2289</title>
<g id="a_node3"><a xlink:href="../../d3/df6/_types_8c.html#a331ccf591256f8c51b30a42f7a86de95" target="_top" xlink:title="omc_Types_lookupAttributeExp">
<polygon fill="#ffffff" stroke="#000000" points="193,-95.5 193,-114.5 348,-114.5 348,-95.5 193,-95.5"/>
<text text-anchor="middle" x="270.5" y="-102.5" font-family="Helvetica,sans-Serif" font-size="10.00" fill="#000000">omc_Types_lookupAttributeExp</text>
</a>
</g>
</g>
<!-- Node2287&#45;&gt;Node2289 -->
<g id="edge2" class="edge">
<title>Node2287&#45;&gt;Node2289</title>
<path fill="none" stroke="#191970" d="M157.1477,-93.7828C165.6333,-94.6226 174.3059,-95.4808 182.8885,-96.3301"/>
<polygon fill="#191970" stroke="#191970" points="182.6096,-99.8195 192.9057,-97.3214 183.299,-92.8535 182.6096,-99.8195"/>
</g>
<!-- Node2294 -->
<g id="node8" class="node">
<title>Node2294</title>
<g id="a_node8"><a xlink:href="../../d3/df6/_types_8c.html#a52a515af1bdf31e96ea8866a30ec3e63" target="_top" xlink:title="omc_Types_getAttributes">
<polygon fill="#ffffff" stroke="#000000" points="206.5,-57.5 206.5,-76.5 334.5,-76.5 334.5,-57.5 206.5,-57.5"/>
<text text-anchor="middle" x="270.5" y="-64.5" font-family="Helvetica,sans-Serif" font-size="10.00" fill="#000000">omc_Types_getAttributes</text>
</a>
</g>
</g>
<!-- Node2287&#45;&gt;Node2294 -->
<g id="edge7" class="edge">
<title>Node2287&#45;&gt;Node2294</title>
<path fill="none" stroke="#191970" d="M157.1477,-78.2172C170.0589,-76.9395 183.4033,-75.6189 196.2043,-74.3522"/>
<polygon fill="#191970" stroke="#191970" points="196.7286,-77.8175 206.3353,-73.3496 196.0392,-70.8515 196.7286,-77.8175"/>
</g>
<!-- Node2295 -->
<g id="node9" class="node">
<title>Node2295</title>
<g id="a_node9"><a xlink:href="../../d1/d08/_expression_8c.html#a86ff87e9d52467d2a652e29256f6a679" target="_top" xlink:title="omc_Expression_expMul">
<polygon fill="#ffffff" stroke="#000000" points="207.5,-19.5 207.5,-38.5 333.5,-38.5 333.5,-19.5 207.5,-19.5"/>
<text text-anchor="middle" x="270.5" y="-26.5" font-family="Helvetica,sans-Serif" font-size="10.00" fill="#000000">omc_Expression_expMul</text>
</a>
</g>
</g>
<!-- Node2287&#45;&gt;Node2295 -->
<g id="edge8" class="edge">
<title>Node2287&#45;&gt;Node2295</title>
<path fill="none" stroke="#191970" d="M121.2004,-70.9262C142.6244,-63.5943 169.0495,-54.8982 193,-48 201.4147,-45.5764 210.399,-43.1912 219.1586,-40.9733"/>
<polygon fill="#191970" stroke="#191970" points="220.0514,-44.358 228.9105,-38.5472 218.3613,-37.5651 220.0514,-44.358"/>
</g>
<!-- Node2290 -->
<g id="node4" class="node">
<title>Node2290</title>
<g id="a_node4"><a xlink:href="../../d3/df6/_types_8c.html#a4baa71478305f6c35f02fd6bc171c2c6" target="_top" xlink:title="omc_Types_varName">
<polygon fill="#ffffff" stroke="#000000" points="392.5,-133.5 392.5,-152.5 505.5,-152.5 505.5,-133.5 392.5,-133.5"/>
<text text-anchor="middle" x="449" y="-140.5" font-family="Helvetica,sans-Serif" font-size="10.00" fill="#000000">omc_Types_varName</text>
</a>
</g>
</g>
<!-- Node2289&#45;&gt;Node2290 -->
<g id="edge3" class="edge">
<title>Node2289&#45;&gt;Node2290</title>
<path fill="none" stroke="#191970" d="M315.5431,-114.589C339.5225,-119.6939 369.1979,-126.0113 394.4721,-131.3918"/>
<polygon fill="#191970" stroke="#191970" points="393.7712,-134.821 404.2808,-133.4799 395.2288,-127.9744 393.7712,-134.821"/>
</g>
<!-- Node2291 -->
<g id="node5" class="node">
<title>Node2291</title>
<g id="a_node5"><a xlink:href="../../d0/d29/_d_a_e_util_8c.html#a24b8ba3e58ca4f117b054431ce63bb4c" target="_top" xlink:title="omc_DAEUtil_bindingExp">
<polygon fill="#ffffff" stroke="#000000" points="384,-95.5 384,-114.5 514,-114.5 514,-95.5 384,-95.5"/>
<text text-anchor="middle" x="449" y="-102.5" font-family="Helvetica,sans-Serif" font-size="10.00" fill="#000000">omc_DAEUtil_bindingExp</text>
</a>
</g>
</g>
<!-- Node2289&#45;&gt;Node2291 -->
<g id="edge4" class="edge">
<title>Node2289&#45;&gt;Node2291</title>
<path fill="none" stroke="#191970" d="M348.0139,-105C356.5089,-105 365.1482,-105 373.6168,-105"/>
<polygon fill="#191970" stroke="#191970" points="373.8407,-108.5001 383.8407,-105 373.8407,-101.5001 373.8407,-108.5001"/>
</g>
<!-- Node2293 -->
<g id="node7" class="node">
<title>Node2293</title>
<g id="a_node7"><a xlink:href="../../d3/df6/_types_8c.html#a07c4f18df551cdcf938ad3e04f26bbd6" target="_top" xlink:title="omc_Types_varBinding">
<polygon fill="#ffffff" stroke="#000000" points="389.5,-57.5 389.5,-76.5 508.5,-76.5 508.5,-57.5 389.5,-57.5"/>
<text text-anchor="middle" x="449" y="-64.5" font-family="Helvetica,sans-Serif" font-size="10.00" fill="#000000">omc_Types_varBinding</text>
</a>
</g>
</g>
<!-- Node2289&#45;&gt;Node2293 -->
<g id="edge6" class="edge">
<title>Node2289&#45;&gt;Node2293</title>
<path fill="none" stroke="#191970" d="M315.5431,-95.411C339.5225,-90.3061 369.1979,-83.9887 394.4721,-78.6082"/>
<polygon fill="#191970" stroke="#191970" points="395.2288,-82.0256 404.2808,-76.5201 393.7712,-75.179 395.2288,-82.0256"/>
</g>
<!-- Node2292 -->
<g id="node6" class="node">
<title>Node2292</title>
<g id="a_node6"><a xlink:href="../../da/d15/_values_util_8c.html#a82f2b40edbc61de2df64c8dcae271670" target="_top" xlink:title="omc_ValuesUtil_valueExp">
<polygon fill="#ffffff" stroke="#000000" points="560.5,-95.5 560.5,-114.5 691.5,-114.5 691.5,-95.5 560.5,-95.5"/>
<text text-anchor="middle" x="626" y="-102.5" font-family="Helvetica,sans-Serif" font-size="10.00" fill="#000000">omc_ValuesUtil_valueExp</text>
</a>
</g>
</g>
<!-- Node2291&#45;&gt;Node2292 -->
<g id="edge5" class="edge">
<title>Node2291&#45;&gt;Node2292</title>
<path fill="none" stroke="#191970" d="M514.1542,-105C525.9365,-105 538.3135,-105 550.3651,-105"/>
<polygon fill="#191970" stroke="#191970" points="550.3919,-108.5001 560.3919,-105 550.3918,-101.5001 550.3919,-108.5001"/>
</g>
<!-- Node2296 -->
<g id="node10" class="node">
<title>Node2296</title>
<g id="a_node10"><a xlink:href="../../d1/d08/_expression_8c.html#ab00afcac3649e1679e0d79b7918956c8" target="_top" xlink:title="omc_Expression_isZero">
<polygon fill="#ffffff" stroke="#000000" points="388,-19.5 388,-38.5 510,-38.5 510,-19.5 388,-19.5"/>
<text text-anchor="middle" x="449" y="-26.5" font-family="Helvetica,sans-Serif" font-size="10.00" fill="#000000">omc_Expression_isZero</text>
</a>
</g>
</g>
<!-- Node2295&#45;&gt;Node2296 -->
<g id="edge9" class="edge">
<title>Node2295&#45;&gt;Node2296</title>
<path fill="none" stroke="#191970" d="M333.6836,-29C348.0252,-29 363.3511,-29 377.9928,-29"/>
<polygon fill="#191970" stroke="#191970" points="377.9996,-32.5001 387.9995,-29 377.9995,-25.5001 377.9996,-32.5001"/>
</g>
<!-- Node2297 -->
<g id="node11" class="node">
<title>Node2297</title>
<g id="a_node11"><a xlink:href="../../da/d72/_compiler_2boot_2build_2list_8c.html#a73ae5dcb374407869d5aad5c97b6452f" target="_top" xlink:title="omc_List_mapAllValueBool">
<polygon fill="#ffffff" stroke="#000000" points="738,-19.5 738,-38.5 874,-38.5 874,-19.5 738,-19.5"/>
<text text-anchor="middle" x="806" y="-26.5" font-family="Helvetica,sans-Serif" font-size="10.00" fill="#000000">omc_List_mapAllValueBool</text>
</a>
</g>
</g>
<!-- Node2296&#45;&gt;Node2297 -->
<g id="edge10" class="edge">
<title>Node2296&#45;&gt;Node2297</title>
<path fill="none" stroke="#191970" d="M510.3705,-29C570.4526,-29 662.233,-29 727.5774,-29"/>
<polygon fill="#191970" stroke="#191970" points="727.8289,-32.5001 737.8289,-29 727.8289,-25.5001 727.8289,-32.5001"/>
</g>
<!-- Node2301 -->
<g id="node15" class="node">
<title>Node2301</title>
<g id="a_node15"><a xlink:href="../../da/d72/_compiler_2boot_2build_2list_8c.html#ababb55c76308341703bb582302a50855" target="_top" xlink:title="omc_List_mapListAllValueBool">
<polygon fill="#ffffff" stroke="#000000" points="550,-.5 550,-19.5 702,-19.5 702,-.5 550,-.5"/>
<text text-anchor="middle" x="626" y="-7.5" font-family="Helvetica,sans-Serif" font-size="10.00" fill="#000000">omc_List_mapListAllValueBool</text>
</a>
</g>
</g>
<!-- Node2296&#45;&gt;Node2301 -->
<g id="edge14" class="edge">
<title>Node2296&#45;&gt;Node2301</title>
<path fill="none" stroke="#191970" d="M510.4093,-22.408C519.8207,-21.3978 529.6844,-20.339 539.515,-19.2837"/>
<polygon fill="#191970" stroke="#191970" points="540.1578,-22.7349 549.7271,-18.1875 539.4107,-15.7749 540.1578,-22.7349"/>
</g>
<!-- Node2298 -->
<g id="node12" class="node">
<title>Node2298</title>
<g id="a_node12"><a xlink:href="../../da/d72/_compiler_2boot_2build_2list_8c.html#a6907b8b0bf5d7da1b95ed78aa13581c9" target="_top" xlink:title="omc_List_mapAllValue">
<polygon fill="#ffffff" stroke="#000000" points="910,-38.5 910,-57.5 1026,-57.5 1026,-38.5 910,-38.5"/>
<text text-anchor="middle" x="968" y="-45.5" font-family="Helvetica,sans-Serif" font-size="10.00" fill="#000000">omc_List_mapAllValue</text>
</a>
</g>
</g>
<!-- Node2297&#45;&gt;Node2298 -->
<g id="edge11" class="edge">
<title>Node2297&#45;&gt;Node2298</title>
<path fill="none" stroke="#191970" d="M874.2331,-37.0026C882.6553,-37.9904 891.2664,-39.0004 899.6897,-39.9883"/>
<polygon fill="#191970" stroke="#191970" points="899.5063,-43.4907 909.8459,-41.1795 900.3217,-36.5383 899.5063,-43.4907"/>
</g>
<!-- Node2300 -->
<g id="node14" class="node">
<title>Node2300</title>
<g id="a_node14"><a xlink:href="../../d1/dd1/3rd_party_2gc_2include_2gc_8h.html#acacfa47efcc44a29f7bb7d98f2a000f8" target="_top" xlink:title="void">
<polygon fill="#ffffff" stroke="#000000" points="950.5,-.5 950.5,-19.5 985.5,-19.5 985.5,-.5 950.5,-.5"/>
<text text-anchor="middle" x="968" y="-7.5" font-family="Helvetica,sans-Serif" font-size="10.00" fill="#000000">void</text>
</a>
</g>
</g>
<!-- Node2297&#45;&gt;Node2300 -->
<g id="edge13" class="edge">
<title>Node2297&#45;&gt;Node2300</title>
<path fill="none" stroke="#191970" d="M874.2331,-20.9974C897.4,-18.2802 921.9963,-15.3955 940.1826,-13.2625"/>
<polygon fill="#191970" stroke="#191970" points="940.8245,-16.7113 950.3487,-12.0702 940.0091,-9.759 940.8245,-16.7113"/>
</g>
<!-- Node2299 -->
<g id="node13" class="node">
<title>Node2299</title>
<g id="a_node13"><a xlink:href="../../dc/dd0/build_2include_2omc_2c_2meta_2meta__modelica_8h.html#a053b78d26cb7fe728aa97ab1a575f7ad" target="_top" xlink:title="valueEq">
<polygon fill="#ffffff" stroke="#000000" points="1062,-38.5 1062,-57.5 1114,-57.5 1114,-38.5 1062,-38.5"/>
<text text-anchor="middle" x="1088" y="-45.5" font-family="Helvetica,sans-Serif" font-size="10.00" fill="#000000">valueEq</text>
</a>
</g>
</g>
<!-- Node2298&#45;&gt;Node2299 -->
<g id="edge12" class="edge">
<title>Node2298&#45;&gt;Node2299</title>
<path fill="none" stroke="#191970" d="M1026.2424,-48C1034.9618,-48 1043.7307,-48 1051.8117,-48"/>
<polygon fill="#191970" stroke="#191970" points="1051.9768,-51.5001 1061.9768,-48 1051.9768,-44.5001 1051.9768,-51.5001"/>
</g>
<!-- Node2301&#45;&gt;Node2297 -->
<g id="edge15" class="edge">
<title>Node2301&#45;&gt;Node2297</title>
<path fill="none" stroke="#191970" d="M702.0753,-18.0302C710.6268,-18.9328 719.3502,-19.8536 727.9265,-20.7589"/>
<polygon fill="#191970" stroke="#191970" points="727.5954,-24.2433 737.9076,-21.8125 728.3303,-17.282 727.5954,-24.2433"/>
</g>
</g>
</svg>
