<?xml version="1.0" encoding="UTF-8" standalone="no"?>
<!DOCTYPE svg PUBLIC "-//W3C//DTD SVG 1.1//EN"
 "http://www.w3.org/Graphics/SVG/1.1/DTD/svg11.dtd">
<!-- Generated by graphviz version 2.40.1 (20161225.0304)
 -->
<!-- Title: omc_ConnectUtil_sizeOfType Pages: 1 -->
<svg width="981pt" height="175pt"
 viewBox="0.00 0.00 981.00 175.00" xmlns="http://www.w3.org/2000/svg" xmlns:xlink="http://www.w3.org/1999/xlink">
<g id="graph0" class="graph" transform="scale(1 1) rotate(0) translate(4 171)">
<title>omc_ConnectUtil_sizeOfType</title>
<polygon fill="#ffffff" stroke="transparent" points="-4,4 -4,-171 977,-171 977,4 -4,4"/>
<!-- Node2912 -->
<g id="node1" class="node">
<title>Node2912</title>
<polygon fill="#bfbfbf" stroke="#000000" points="0,-98 0,-117 148,-117 148,-98 0,-98"/>
<text text-anchor="middle" x="74" y="-105" font-family="Helvetica,sans-Serif" font-size="10.00" fill="#000000">omc_ConnectUtil_sizeOfType</text>
</g>
<!-- Node2913 -->
<g id="node2" class="node">
<title>Node2913</title>
<g id="a_node2"><a xlink:href="../../d3/d5a/_connect_util_8c.html#ac40c36800eaa1d8fff43c211dfb2bdd7" target="_top" xlink:title="boxptr_ConnectUtil\l_sizeOfType">
<polygon fill="#ffffff" stroke="#000000" points="227,-136.5 227,-166.5 328,-166.5 328,-136.5 227,-136.5"/>
<text text-anchor="start" x="235" y="-154.5" font-family="Helvetica,sans-Serif" font-size="10.00" fill="#000000">boxptr_ConnectUtil</text>
<text text-anchor="middle" x="277.5" y="-143.5" font-family="Helvetica,sans-Serif" font-size="10.00" fill="#000000">_sizeOfType</text>
</a>
</g>
</g>
<!-- Node2912&#45;&gt;Node2913 -->
<g id="edge1" class="edge">
<title>Node2912&#45;&gt;Node2913</title>
<path fill="none" stroke="#191970" d="M128.2445,-119.2285C158.8953,-125.8558 196.9621,-134.0864 226.9801,-140.5768"/>
<polygon fill="#191970" stroke="#191970" points="128.6703,-115.7398 118.1565,-117.0473 127.1909,-122.5817 128.6703,-115.7398"/>
</g>
<!-- Node2914 -->
<g id="node3" class="node">
<title>Node2914</title>
<g id="a_node3"><a xlink:href="../../d3/d5a/_connect_util_8c.html#a17c1ac12dc0e315d88af7bb43cd1fa0f" target="_top" xlink:title="omc_ConnectUtil_sizeOfVariableList">
<polygon fill="#ffffff" stroke="#000000" points="189,-98 189,-117 366,-117 366,-98 189,-98"/>
<text text-anchor="middle" x="277.5" y="-105" font-family="Helvetica,sans-Serif" font-size="10.00" fill="#000000">omc_ConnectUtil_sizeOfVariableList</text>
</a>
</g>
</g>
<!-- Node2912&#45;&gt;Node2914 -->
<g id="edge2" class="edge">
<title>Node2912&#45;&gt;Node2914</title>
<path fill="none" stroke="#191970" d="M158.1285,-100.8408C168.3098,-100.7349 178.7339,-100.7216 188.9761,-100.8009"/>
<polygon fill="#191970" stroke="#191970" points="157.9954,-97.3422 148.0438,-100.9775 158.0904,-104.3415 157.9954,-97.3422"/>
</g>
<!-- Node2916 -->
<g id="node5" class="node">
<title>Node2916</title>
<g id="a_node5"><a xlink:href="../../d3/d5a/_connect_util_8c.html#a1a8a4c4c3d2e2e66562f732a7742ea01" target="_top" xlink:title="omc_ConnectUtil_countConnectorVars">
<polygon fill="#ffffff" stroke="#000000" points="184,-55 184,-74 371,-74 371,-55 184,-55"/>
<text text-anchor="middle" x="277.5" y="-62" font-family="Helvetica,sans-Serif" font-size="10.00" fill="#000000">omc_ConnectUtil_countConnectorVars</text>
</a>
</g>
</g>
<!-- Node2912&#45;&gt;Node2916 -->
<g id="edge5" class="edge">
<title>Node2912&#45;&gt;Node2916</title>
<path fill="none" stroke="#191970" d="M128.9485,-95.8893C161.3826,-89.0359 201.9287,-80.4684 232.463,-74.0164"/>
<polygon fill="#191970" stroke="#191970" points="128.2236,-92.4651 119.1632,-97.9569 129.6708,-99.3138 128.2236,-92.4651"/>
</g>
<!-- Node2914&#45;&gt;Node2912 -->
<g id="edge3" class="edge">
<title>Node2914&#45;&gt;Node2912</title>
<path fill="none" stroke="#191970" d="M178.689,-114.2475C168.3727,-114.2651 158.0161,-114.1901 148.0438,-114.0225"/>
<polygon fill="#191970" stroke="#191970" points="178.9927,-117.7462 188.9761,-114.1991 178.9597,-110.7463 178.9927,-117.7462"/>
</g>
<!-- Node2915 -->
<g id="node4" class="node">
<title>Node2915</title>
<g id="a_node4"><a xlink:href="../../d3/d5a/_connect_util_8c.html#a6888e6bb50bd22685c0ba59f14ab0a7c" target="_top" xlink:title="boxptr_ConnectUtil\l_sizeOfVariableList">
<polygon fill="#ffffff" stroke="#000000" points="441,-98.5 441,-128.5 542,-128.5 542,-98.5 441,-98.5"/>
<text text-anchor="start" x="449" y="-116.5" font-family="Helvetica,sans-Serif" font-size="10.00" fill="#000000">boxptr_ConnectUtil</text>
<text text-anchor="middle" x="491.5" y="-105.5" font-family="Helvetica,sans-Serif" font-size="10.00" fill="#000000">_sizeOfVariableList</text>
</a>
</g>
</g>
<!-- Node2914&#45;&gt;Node2915 -->
<g id="edge4" class="edge">
<title>Node2914&#45;&gt;Node2915</title>
<path fill="none" stroke="#191970" d="M376.3197,-110.2706C398.6958,-110.898 421.5518,-111.5388 440.9428,-112.0825"/>
<polygon fill="#191970" stroke="#191970" points="376.1809,-106.7655 366.0867,-109.9837 375.9847,-113.7627 376.1809,-106.7655"/>
</g>
<!-- Node2917 -->
<g id="node6" class="node">
<title>Node2917</title>
<g id="a_node6"><a xlink:href="../../d3/d5a/_connect_util_8c.html#ab659562197eb989aa3f6d39343bc7061" target="_top" xlink:title="boxptr_ConnectUtil\l_countConnectorVars">
<polygon fill="#ffffff" stroke="#000000" points="436,-49.5 436,-79.5 547,-79.5 547,-49.5 436,-49.5"/>
<text text-anchor="start" x="444" y="-67.5" font-family="Helvetica,sans-Serif" font-size="10.00" fill="#000000">boxptr_ConnectUtil</text>
<text text-anchor="middle" x="491.5" y="-56.5" font-family="Helvetica,sans-Serif" font-size="10.00" fill="#000000">_countConnectorVars</text>
</a>
</g>
</g>
<!-- Node2916&#45;&gt;Node2917 -->
<g id="edge6" class="edge">
<title>Node2916&#45;&gt;Node2917</title>
<path fill="none" stroke="#191970" d="M381.2191,-64.5C400.1256,-64.5 419.1688,-64.5 435.9846,-64.5"/>
<polygon fill="#191970" stroke="#191970" points="381.0522,-61.0001 371.0522,-64.5 381.0522,-68.0001 381.0522,-61.0001"/>
</g>
<!-- Node2918 -->
<g id="node7" class="node">
<title>Node2918</title>
<g id="a_node7"><a xlink:href="../../da/df9/_connect_util_8h.html#a779f879f956f00681e416f597a491c9a" target="_top" xlink:title="omc_ConnectUtil_checkConnector\lBalance">
<polygon fill="#ffffff" stroke="#000000" points="407,-.5 407,-30.5 576,-30.5 576,-.5 407,-.5"/>
<text text-anchor="start" x="415" y="-18.5" font-family="Helvetica,sans-Serif" font-size="10.00" fill="#000000">omc_ConnectUtil_checkConnector</text>
<text text-anchor="middle" x="491.5" y="-7.5" font-family="Helvetica,sans-Serif" font-size="10.00" fill="#000000">Balance</text>
</a>
</g>
</g>
<!-- Node2916&#45;&gt;Node2918 -->
<g id="edge7" class="edge">
<title>Node2916&#45;&gt;Node2918</title>
<path fill="none" stroke="#191970" d="M328.9489,-52.7196C357.9841,-46.0714 394.571,-37.694 425.6785,-30.5713"/>
<polygon fill="#191970" stroke="#191970" points="327.9816,-49.3505 319.0151,-54.9942 329.544,-56.1739 327.9816,-49.3505"/>
</g>
<!-- Node2919 -->
<g id="node8" class="node">
<title>Node2919</title>
<g id="a_node8"><a xlink:href="../../da/df9/_connect_util_8h.html#a74022d15bda993cf79ffd555b21a95c7" target="_top" xlink:title="omc_ConnectUtil_addConnector\lVariablesFromDAE">
<polygon fill="#ffffff" stroke="#000000" points="612,-.5 612,-30.5 770,-30.5 770,-.5 612,-.5"/>
<text text-anchor="start" x="620" y="-18.5" font-family="Helvetica,sans-Serif" font-size="10.00" fill="#000000">omc_ConnectUtil_addConnector</text>
<text text-anchor="middle" x="691" y="-7.5" font-family="Helvetica,sans-Serif" font-size="10.00" fill="#000000">VariablesFromDAE</text>
</a>
</g>
</g>
<!-- Node2918&#45;&gt;Node2919 -->
<g id="edge8" class="edge">
<title>Node2918&#45;&gt;Node2919</title>
<path fill="none" stroke="#191970" d="M586.196,-15.5C594.8242,-15.5 603.503,-15.5 611.9733,-15.5"/>
<polygon fill="#191970" stroke="#191970" points="586.106,-12.0001 576.106,-15.5 586.1059,-19.0001 586.106,-12.0001"/>
</g>
<!-- Node2920 -->
<g id="node9" class="node">
<title>Node2920</title>
<g id="a_node9"><a xlink:href="../../da/df9/_connect_util_8h.html#a066f1cea0d4eb419504a0707324360d2" target="_top" xlink:title="boxptr_ConnectUtil\l_addConnectorVariablesFromDAE">
<polygon fill="#ffffff" stroke="#000000" points="806,-.5 806,-30.5 973,-30.5 973,-.5 806,-.5"/>
<text text-anchor="start" x="814" y="-18.5" font-family="Helvetica,sans-Serif" font-size="10.00" fill="#000000">boxptr_ConnectUtil</text>
<text text-anchor="middle" x="889.5" y="-7.5" font-family="Helvetica,sans-Serif" font-size="10.00" fill="#000000">_addConnectorVariablesFromDAE</text>
</a>
</g>
</g>
<!-- Node2919&#45;&gt;Node2920 -->
<g id="edge9" class="edge">
<title>Node2919&#45;&gt;Node2920</title>
<path fill="none" stroke="#191970" d="M780.0447,-15.5C788.6356,-15.5 797.3295,-15.5 805.8654,-15.5"/>
<polygon fill="#191970" stroke="#191970" points="780.0229,-12.0001 770.0228,-15.5 780.0228,-19.0001 780.0229,-12.0001"/>
</g>
</g>
</svg>
