<?xml version="1.0" encoding="UTF-8" standalone="no"?>
<!DOCTYPE svg PUBLIC "-//W3C//DTD SVG 1.1//EN"
 "http://www.w3.org/Graphics/SVG/1.1/DTD/svg11.dtd">
<!-- Generated by graphviz version 2.40.1 (20161225.0304)
 -->
<!-- Title: gk_freetokenslist Pages: 1 -->
<svg width="310pt" height="66pt"
 viewBox="0.00 0.00 310.00 66.00" xmlns="http://www.w3.org/2000/svg" xmlns:xlink="http://www.w3.org/1999/xlink">
<g id="graph0" class="graph" transform="scale(1 1) rotate(0) translate(4 62)">
<title>gk_freetokenslist</title>
<polygon fill="#ffffff" stroke="transparent" points="-4,4 -4,-62 306,-62 306,4 -4,4"/>
<!-- Node762 -->
<g id="node1" class="node">
<title>Node762</title>
<polygon fill="#bfbfbf" stroke="#000000" points="0,-19.5 0,-38.5 91,-38.5 91,-19.5 0,-19.5"/>
<text text-anchor="middle" x="45.5" y="-26.5" font-family="Helvetica,sans-Serif" font-size="10.00" fill="#000000">gk_freetokenslist</text>
</g>
<!-- Node763 -->
<g id="node2" class="node">
<title>Node763</title>
<g id="a_node2"><a xlink:href="../../d3/d5a/gk__proto_8h.html#ac8df62c4e3d0910711a9874f9cc58884" target="_top" xlink:title="gk_free">
<polygon fill="#ffffff" stroke="#000000" points="127,-19.5 127,-38.5 176,-38.5 176,-19.5 127,-19.5"/>
<text text-anchor="middle" x="151.5" y="-26.5" font-family="Helvetica,sans-Serif" font-size="10.00" fill="#000000">gk_free</text>
</a>
</g>
</g>
<!-- Node762&#45;&gt;Node763 -->
<g id="edge1" class="edge">
<title>Node762&#45;&gt;Node763</title>
<path fill="none" stroke="#191970" d="M91.0687,-29C99.7486,-29 108.6998,-29 116.9661,-29"/>
<polygon fill="#191970" stroke="#191970" points="116.9984,-32.5001 126.9984,-29 116.9984,-25.5001 116.9984,-32.5001"/>
</g>
<!-- Node764 -->
<g id="node3" class="node">
<title>Node764</title>
<g id="a_node3"><a xlink:href="../../d6/d0e/class_teuchos_1_1_ptr.html#af7234a3ac243772a707da53d011276fb" target="_top" xlink:title="Create a pointer to an object from a raw pointer. ">
<polygon fill="#ffffff" stroke="#000000" points="212,-38.5 212,-57.5 302,-57.5 302,-38.5 212,-38.5"/>
<text text-anchor="middle" x="257" y="-45.5" font-family="Helvetica,sans-Serif" font-size="10.00" fill="#000000">Teuchos::Ptr::ptr</text>
</a>
</g>
</g>
<!-- Node763&#45;&gt;Node764 -->
<g id="edge2" class="edge">
<title>Node763&#45;&gt;Node764</title>
<path fill="none" stroke="#191970" d="M176.2351,-33.4547C183.9346,-34.8413 192.7559,-36.43 201.6757,-38.0364"/>
<polygon fill="#191970" stroke="#191970" points="201.2715,-41.5198 211.7336,-39.8478 202.5123,-34.6307 201.2715,-41.5198"/>
</g>
<!-- Node765 -->
<g id="node4" class="node">
<title>Node765</title>
<g id="a_node4"><a xlink:href="../../dc/ddc/3rd_party_2flex-2_85_835_2parse_8c.html#af07d89f5ceaea0c7c8252cc41fd75f37" target="_top" xlink:title="free">
<polygon fill="#ffffff" stroke="#000000" points="240.5,-.5 240.5,-19.5 273.5,-19.5 273.5,-.5 240.5,-.5"/>
<text text-anchor="middle" x="257" y="-7.5" font-family="Helvetica,sans-Serif" font-size="10.00" fill="#000000">free</text>
</a>
</g>
</g>
<!-- Node763&#45;&gt;Node765 -->
<g id="edge3" class="edge">
<title>Node763&#45;&gt;Node765</title>
<path fill="none" stroke="#191970" d="M176.2351,-24.5453C192.4221,-21.6301 213.5673,-17.822 230.1611,-14.8335"/>
<polygon fill="#191970" stroke="#191970" points="231.0892,-18.2228 240.3105,-13.0057 229.8485,-11.3336 231.0892,-18.2228"/>
</g>
</g>
</svg>
