<?xml version="1.0" encoding="UTF-8" standalone="no"?>
<!DOCTYPE svg PUBLIC "-//W3C//DTD SVG 1.1//EN"
 "http://www.w3.org/Graphics/SVG/1.1/DTD/svg11.dtd">
<!-- Generated by graphviz version 2.40.1 (20161225.0304)
 -->
<!-- Title: gk_csr_Create Pages: 1 -->
<svg width="403pt" height="376pt"
 viewBox="0.00 0.00 403.00 375.50" xmlns="http://www.w3.org/2000/svg" xmlns:xlink="http://www.w3.org/1999/xlink">
<g id="graph0" class="graph" transform="scale(1 1) rotate(0) translate(4 371.5)">
<title>gk_csr_Create</title>
<polygon fill="#ffffff" stroke="transparent" points="-4,4 -4,-371.5 399,-371.5 399,4 -4,4"/>
<!-- Node84 -->
<g id="node1" class="node">
<title>Node84</title>
<polygon fill="#bfbfbf" stroke="#000000" points="0,-177 0,-196 80,-196 80,-177 0,-177"/>
<text text-anchor="middle" x="40" y="-184" font-family="Helvetica,sans-Serif" font-size="10.00" fill="#000000">gk_csr_Create</text>
</g>
<!-- Node85 -->
<g id="node2" class="node">
<title>Node85</title>
<g id="a_node2"><a xlink:href="../../d3/d5a/gk__proto_8h.html#a24144cf4c30d5ec4ed8b488d371476b3" target="_top" xlink:title="gk_csr_Dup">
<polygon fill="#ffffff" stroke="#000000" points="145,-348 145,-367 214,-367 214,-348 145,-348"/>
<text text-anchor="middle" x="179.5" y="-355" font-family="Helvetica,sans-Serif" font-size="10.00" fill="#000000">gk_csr_Dup</text>
</a>
</g>
</g>
<!-- Node84&#45;&gt;Node85 -->
<g id="edge1" class="edge">
<title>Node84&#45;&gt;Node85</title>
<path fill="none" stroke="#191970" d="M44.5082,-206.4266C52.892,-238.9079 73.9764,-303.18 116,-338.5 124.1043,-345.3115 134.5847,-349.6811 144.6867,-352.4842"/>
<polygon fill="#191970" stroke="#191970" points="47.8245,-205.2517 42.0589,-196.363 41.023,-206.907 47.8245,-205.2517"/>
</g>
<!-- Node86 -->
<g id="node3" class="node">
<title>Node86</title>
<g id="a_node3"><a xlink:href="../../d3/d5a/gk__proto_8h.html#a0b106b838c4dc370c32a47aaaf990375" target="_top" xlink:title="gk_csr_ExtractSubmatrix">
<polygon fill="#ffffff" stroke="#000000" points="116,-310 116,-329 243,-329 243,-310 116,-310"/>
<text text-anchor="middle" x="179.5" y="-317" font-family="Helvetica,sans-Serif" font-size="10.00" fill="#000000">gk_csr_ExtractSubmatrix</text>
</a>
</g>
</g>
<!-- Node84&#45;&gt;Node86 -->
<g id="edge2" class="edge">
<title>Node84&#45;&gt;Node86</title>
<path fill="none" stroke="#191970" d="M47.6392,-205.3626C58.866,-230.7249 82.2137,-275.5142 116,-300.5 121.2737,-304.4 127.347,-307.5053 133.6024,-309.9763"/>
<polygon fill="#191970" stroke="#191970" points="50.8292,-203.92 43.6935,-196.0884 44.3879,-206.6605 50.8292,-203.92"/>
</g>
<!-- Node87 -->
<g id="node4" class="node">
<title>Node87</title>
<g id="a_node4"><a xlink:href="../../d3/d5a/gk__proto_8h.html#aaa2391cce5eb8291e65f6dc4d8e252fd" target="_top" xlink:title="gk_csr_ExtractRows">
<polygon fill="#ffffff" stroke="#000000" points="125.5,-272 125.5,-291 233.5,-291 233.5,-272 125.5,-272"/>
<text text-anchor="middle" x="179.5" y="-279" font-family="Helvetica,sans-Serif" font-size="10.00" fill="#000000">gk_csr_ExtractRows</text>
</a>
</g>
</g>
<!-- Node84&#45;&gt;Node87 -->
<g id="edge3" class="edge">
<title>Node84&#45;&gt;Node87</title>
<path fill="none" stroke="#191970" d="M53.4287,-204.3377C67.3053,-221.582 90.4844,-247.2722 116,-262.5 122.4228,-266.3332 129.6778,-269.4447 136.9283,-271.9539"/>
<polygon fill="#191970" stroke="#191970" points="55.9744,-201.9112 47.057,-196.19 50.4602,-206.2234 55.9744,-201.9112"/>
</g>
<!-- Node88 -->
<g id="node5" class="node">
<title>Node88</title>
<g id="a_node5"><a xlink:href="../../d3/d5a/gk__proto_8h.html#ac59047c4a89fa4680d746fcdce4aa1a7" target="_top" xlink:title="gk_csr_ExtractPartition">
<polygon fill="#ffffff" stroke="#000000" points="120,-234 120,-253 239,-253 239,-234 120,-234"/>
<text text-anchor="middle" x="179.5" y="-241" font-family="Helvetica,sans-Serif" font-size="10.00" fill="#000000">gk_csr_ExtractPartition</text>
</a>
</g>
</g>
<!-- Node84&#45;&gt;Node88 -->
<g id="edge4" class="edge">
<title>Node84&#45;&gt;Node88</title>
<path fill="none" stroke="#191970" d="M65.9769,-200.8901C80.4275,-208.5354 98.8993,-217.7254 116,-224.5 124.7726,-227.9753 134.4404,-231.1737 143.5298,-233.9159"/>
<polygon fill="#191970" stroke="#191970" points="67.5819,-197.7793 57.1163,-196.1299 64.2691,-203.9458 67.5819,-197.7793"/>
</g>
<!-- Node89 -->
<g id="node6" class="node">
<title>Node89</title>
<g id="a_node6"><a xlink:href="../../d3/d5a/gk__proto_8h.html#ac438fca404c3f1ff6989aa68f83ed241" target="_top" xlink:title="gk_csr_Split">
<polygon fill="#ffffff" stroke="#000000" points="144,-196 144,-215 215,-215 215,-196 144,-196"/>
<text text-anchor="middle" x="179.5" y="-203" font-family="Helvetica,sans-Serif" font-size="10.00" fill="#000000">gk_csr_Split</text>
</a>
</g>
</g>
<!-- Node84&#45;&gt;Node89 -->
<g id="edge5" class="edge">
<title>Node84&#45;&gt;Node89</title>
<path fill="none" stroke="#191970" d="M90.5346,-193.3829C108.251,-195.7958 127.7613,-198.4531 143.9853,-200.6629"/>
<polygon fill="#191970" stroke="#191970" points="90.7301,-189.8772 80.3492,-191.9956 89.7853,-196.8132 90.7301,-189.8772"/>
</g>
<!-- Node90 -->
<g id="node7" class="node">
<title>Node90</title>
<g id="a_node7"><a xlink:href="../../d3/d5a/gk__proto_8h.html#a06edc174c5986841b589900ffce6600f" target="_top" xlink:title="gk_csr_Prune">
<polygon fill="#ffffff" stroke="#000000" points="141,-158 141,-177 218,-177 218,-158 141,-158"/>
<text text-anchor="middle" x="179.5" y="-165" font-family="Helvetica,sans-Serif" font-size="10.00" fill="#000000">gk_csr_Prune</text>
</a>
</g>
</g>
<!-- Node84&#45;&gt;Node90 -->
<g id="edge6" class="edge">
<title>Node84&#45;&gt;Node90</title>
<path fill="none" stroke="#191970" d="M90.4194,-179.6328C106.9801,-177.3773 125.1192,-174.9067 140.682,-172.787"/>
<polygon fill="#191970" stroke="#191970" points="89.7853,-176.1868 80.3492,-181.0044 90.7301,-183.1228 89.7853,-176.1868"/>
</g>
<!-- Node91 -->
<g id="node8" class="node">
<title>Node91</title>
<g id="a_node8"><a xlink:href="../../d3/d5a/gk__proto_8h.html#a66729af11e7dee3585d6191661757c37" target="_top" xlink:title="gk_csr_LowFilter">
<polygon fill="#ffffff" stroke="#000000" points="134,-120 134,-139 225,-139 225,-120 134,-120"/>
<text text-anchor="middle" x="179.5" y="-127" font-family="Helvetica,sans-Serif" font-size="10.00" fill="#000000">gk_csr_LowFilter</text>
</a>
</g>
</g>
<!-- Node84&#45;&gt;Node91 -->
<g id="edge7" class="edge">
<title>Node84&#45;&gt;Node91</title>
<path fill="none" stroke="#191970" d="M65.9769,-172.1099C80.4275,-164.4646 98.8993,-155.2746 116,-148.5 124.7726,-145.0247 134.4404,-141.8263 143.5298,-139.0841"/>
<polygon fill="#191970" stroke="#191970" points="64.2691,-169.0542 57.1163,-176.8701 67.5819,-175.2207 64.2691,-169.0542"/>
</g>
<!-- Node92 -->
<g id="node9" class="node">
<title>Node92</title>
<g id="a_node9"><a xlink:href="../../d3/d5a/gk__proto_8h.html#ad6f2c5699b47e1bc2285a1b391d7c7da" target="_top" xlink:title="gk_csr_TopKPlusFilter">
<polygon fill="#ffffff" stroke="#000000" points="121.5,-82 121.5,-101 237.5,-101 237.5,-82 121.5,-82"/>
<text text-anchor="middle" x="179.5" y="-89" font-family="Helvetica,sans-Serif" font-size="10.00" fill="#000000">gk_csr_TopKPlusFilter</text>
</a>
</g>
</g>
<!-- Node84&#45;&gt;Node92 -->
<g id="edge8" class="edge">
<title>Node84&#45;&gt;Node92</title>
<path fill="none" stroke="#191970" d="M53.4287,-168.6623C67.3053,-151.418 90.4844,-125.7278 116,-110.5 122.4228,-106.6668 129.6778,-103.5553 136.9283,-101.0461"/>
<polygon fill="#191970" stroke="#191970" points="50.4602,-166.7766 47.057,-176.81 55.9744,-171.0888 50.4602,-166.7766"/>
</g>
<!-- Node93 -->
<g id="node10" class="node">
<title>Node93</title>
<g id="a_node10"><a xlink:href="../../d3/d5a/gk__proto_8h.html#a193f32ef7dd91c2c633157bafea26080" target="_top" xlink:title="gk_csr_ZScoreFilter">
<polygon fill="#ffffff" stroke="#000000" points="127.5,-44 127.5,-63 231.5,-63 231.5,-44 127.5,-44"/>
<text text-anchor="middle" x="179.5" y="-51" font-family="Helvetica,sans-Serif" font-size="10.00" fill="#000000">gk_csr_ZScoreFilter</text>
</a>
</g>
</g>
<!-- Node84&#45;&gt;Node93 -->
<g id="edge9" class="edge">
<title>Node84&#45;&gt;Node93</title>
<path fill="none" stroke="#191970" d="M47.6392,-167.6374C58.866,-142.2751 82.2137,-97.4858 116,-72.5 121.2737,-68.6 127.347,-65.4947 133.6024,-63.0237"/>
<polygon fill="#191970" stroke="#191970" points="44.3879,-166.3395 43.6935,-176.9116 50.8292,-169.08 44.3879,-166.3395"/>
</g>
<!-- Node94 -->
<g id="node11" class="node">
<title>Node94</title>
<g id="a_node11"><a xlink:href="../../d8/d38/itemsets_8c.html#ab348ad8f89d70692400d7602e3a824bf" target="_top" xlink:title="itemsets_project_matrix">
<polygon fill="#ffffff" stroke="#000000" points="119,-6 119,-25 240,-25 240,-6 119,-6"/>
<text text-anchor="middle" x="179.5" y="-13" font-family="Helvetica,sans-Serif" font-size="10.00" fill="#000000">itemsets_project_matrix</text>
</a>
</g>
</g>
<!-- Node84&#45;&gt;Node94 -->
<g id="edge10" class="edge">
<title>Node84&#45;&gt;Node94</title>
<path fill="none" stroke="#191970" d="M44.5082,-166.5734C52.892,-134.0921 73.9764,-69.82 116,-34.5 120.5807,-30.65 125.9205,-27.5801 131.522,-25.1323"/>
<polygon fill="#191970" stroke="#191970" points="41.023,-166.093 42.0589,-176.637 47.8245,-167.7483 41.023,-166.093"/>
</g>
<!-- Node95 -->
<g id="node12" class="node">
<title>Node95</title>
<g id="a_node12"><a xlink:href="../../d8/d38/itemsets_8c.html#ab19ae99e1e3ba575373cf0fe846a8cd9" target="_top" xlink:title="itemsets_find_frequent\l_itemsets">
<polygon fill="#ffffff" stroke="#000000" points="279,-.5 279,-30.5 395,-30.5 395,-.5 279,-.5"/>
<text text-anchor="start" x="287" y="-18.5" font-family="Helvetica,sans-Serif" font-size="10.00" fill="#000000">itemsets_find_frequent</text>
<text text-anchor="middle" x="337" y="-7.5" font-family="Helvetica,sans-Serif" font-size="10.00" fill="#000000">_itemsets</text>
</a>
</g>
</g>
<!-- Node94&#45;&gt;Node95 -->
<g id="edge11" class="edge">
<title>Node94&#45;&gt;Node95</title>
<path fill="none" stroke="#191970" d="M250.5756,-15.5C260.0372,-15.5 269.6479,-15.5 278.8544,-15.5"/>
<polygon fill="#191970" stroke="#191970" points="250.3936,-12.0001 240.3936,-15.5 250.3936,-19.0001 250.3936,-12.0001"/>
</g>
</g>
</svg>
