<?xml version="1.0" encoding="UTF-8" standalone="no"?>
<!DOCTYPE svg PUBLIC "-//W3C//DTD SVG 1.1//EN"
 "http://www.w3.org/Graphics/SVG/1.1/DTD/svg11.dtd">
<!-- Generated by graphviz version 2.40.1 (20161225.0304)
 -->
<!-- Title: gk_csr_CreateIndex Pages: 1 -->
<svg width="333pt" height="104pt"
 viewBox="0.00 0.00 333.00 104.00" xmlns="http://www.w3.org/2000/svg" xmlns:xlink="http://www.w3.org/1999/xlink">
<g id="graph0" class="graph" transform="scale(1 1) rotate(0) translate(4 100)">
<title>gk_csr_CreateIndex</title>
<polygon fill="#ffffff" stroke="transparent" points="-4,4 -4,-100 329,-100 329,4 -4,4"/>
<!-- Node96 -->
<g id="node1" class="node">
<title>Node96</title>
<polygon fill="#bfbfbf" stroke="#000000" points="0,-19.5 0,-38.5 104,-38.5 104,-19.5 0,-19.5"/>
<text text-anchor="middle" x="52" y="-26.5" font-family="Helvetica,sans-Serif" font-size="10.00" fill="#000000">gk_csr_CreateIndex</text>
</g>
<!-- Node97 -->
<g id="node2" class="node">
<title>Node97</title>
<g id="a_node2"><a xlink:href="../../d3/d5a/gk__proto_8h.html#ac8df62c4e3d0910711a9874f9cc58884" target="_top" xlink:title="gk_free">
<polygon fill="#ffffff" stroke="#000000" points="145,-38.5 145,-57.5 194,-57.5 194,-38.5 145,-38.5"/>
<text text-anchor="middle" x="169.5" y="-45.5" font-family="Helvetica,sans-Serif" font-size="10.00" fill="#000000">gk_free</text>
</a>
</g>
</g>
<!-- Node96&#45;&gt;Node97 -->
<g id="edge1" class="edge">
<title>Node96&#45;&gt;Node97</title>
<path fill="none" stroke="#191970" d="M104.2215,-37.4443C114.574,-39.1184 125.2004,-40.8367 134.7932,-42.3878"/>
<polygon fill="#191970" stroke="#191970" points="134.3044,-45.8542 144.7349,-43.9954 135.4219,-38.9439 134.3044,-45.8542"/>
</g>
<!-- Node100 -->
<g id="node5" class="node">
<title>Node100</title>
<g id="a_node5"><a xlink:href="../../d0/d3e/3rd_party_2metis-5_81_80_2_g_klib_2error_8c.html#a4c320c13bcdc9967613253ef4c73f59f" target="_top" xlink:title="gk_errexit">
<polygon fill="#ffffff" stroke="#000000" points="140,-.5 140,-19.5 199,-19.5 199,-.5 140,-.5"/>
<text text-anchor="middle" x="169.5" y="-7.5" font-family="Helvetica,sans-Serif" font-size="10.00" fill="#000000">gk_errexit</text>
</a>
</g>
</g>
<!-- Node96&#45;&gt;Node100 -->
<g id="edge4" class="edge">
<title>Node96&#45;&gt;Node100</title>
<path fill="none" stroke="#191970" d="M104.2215,-20.5557C112.8406,-19.1619 121.6496,-17.7375 129.8938,-16.4044"/>
<polygon fill="#191970" stroke="#191970" points="130.6647,-19.8253 139.9778,-14.7738 129.5473,-12.9151 130.6647,-19.8253"/>
</g>
<!-- Node98 -->
<g id="node3" class="node">
<title>Node98</title>
<g id="a_node3"><a xlink:href="../../d6/d0e/class_teuchos_1_1_ptr.html#af7234a3ac243772a707da53d011276fb" target="_top" xlink:title="Create a pointer to an object from a raw pointer. ">
<polygon fill="#ffffff" stroke="#000000" points="235,-76.5 235,-95.5 325,-95.5 325,-76.5 235,-76.5"/>
<text text-anchor="middle" x="280" y="-83.5" font-family="Helvetica,sans-Serif" font-size="10.00" fill="#000000">Teuchos::Ptr::ptr</text>
</a>
</g>
</g>
<!-- Node97&#45;&gt;Node98 -->
<g id="edge2" class="edge">
<title>Node97&#45;&gt;Node98</title>
<path fill="none" stroke="#191970" d="M194.0235,-56.4334C208.2402,-61.3224 226.4366,-67.58 242.4255,-73.0785"/>
<polygon fill="#191970" stroke="#191970" points="241.4456,-76.4426 252.0403,-76.3849 243.7221,-69.8231 241.4456,-76.4426"/>
</g>
<!-- Node99 -->
<g id="node4" class="node">
<title>Node99</title>
<g id="a_node4"><a xlink:href="../../dc/ddc/3rd_party_2flex-2_85_835_2parse_8c.html#af07d89f5ceaea0c7c8252cc41fd75f37" target="_top" xlink:title="free">
<polygon fill="#ffffff" stroke="#000000" points="263.5,-38.5 263.5,-57.5 296.5,-57.5 296.5,-38.5 263.5,-38.5"/>
<text text-anchor="middle" x="280" y="-45.5" font-family="Helvetica,sans-Serif" font-size="10.00" fill="#000000">free</text>
</a>
</g>
</g>
<!-- Node97&#45;&gt;Node99 -->
<g id="edge3" class="edge">
<title>Node97&#45;&gt;Node99</title>
<path fill="none" stroke="#191970" d="M194.0235,-48C211.5872,-48 235.2252,-48 253.2705,-48"/>
<polygon fill="#191970" stroke="#191970" points="253.4197,-51.5001 263.4197,-48 253.4196,-44.5001 253.4197,-51.5001"/>
</g>
<!-- Node101 -->
<g id="node6" class="node">
<title>Node101</title>
<g id="a_node6"><a xlink:href="../../d4/d98/g_09_09malloc_8c.html#a49f789e614e57e410f598885b800c2df" target="_top" xlink:title="fprintf">
<polygon fill="#ffffff" stroke="#000000" points="259.5,-.5 259.5,-19.5 300.5,-19.5 300.5,-.5 259.5,-.5"/>
<text text-anchor="middle" x="280" y="-7.5" font-family="Helvetica,sans-Serif" font-size="10.00" fill="#000000">fprintf</text>
</a>
</g>
</g>
<!-- Node100&#45;&gt;Node101 -->
<g id="edge5" class="edge">
<title>Node100&#45;&gt;Node101</title>
<path fill="none" stroke="#191970" d="M199.112,-10C214.5907,-10 233.519,-10 249.1727,-10"/>
<polygon fill="#191970" stroke="#191970" points="249.4041,-13.5001 259.4041,-10 249.404,-6.5001 249.4041,-13.5001"/>
</g>
</g>
</svg>
