<?xml version="1.0" encoding="UTF-8" standalone="no"?>
<!DOCTYPE svg PUBLIC "-//W3C//DTD SVG 1.1//EN"
 "http://www.w3.org/Graphics/SVG/1.1/DTD/svg11.dtd">
<!-- Generated by graphviz version 2.40.1 (20161225.0304)
 -->
<!-- Title: omc_UnitCheck_unitChecking Pages: 1 -->
<svg width="966pt" height="379pt"
 viewBox="0.00 0.00 966.00 378.50" xmlns="http://www.w3.org/2000/svg" xmlns:xlink="http://www.w3.org/1999/xlink">
<g id="graph0" class="graph" transform="scale(1 1) rotate(0) translate(4 374.5)">
<title>omc_UnitCheck_unitChecking</title>
<polygon fill="#ffffff" stroke="transparent" points="-4,4 -4,-374.5 962,-374.5 962,4 -4,4"/>
<!-- Node0 -->
<g id="node1" class="node">
<title>Node0</title>
<polygon fill="#bfbfbf" stroke="#000000" points="0,-185.5 0,-204.5 149,-204.5 149,-185.5 0,-185.5"/>
<text text-anchor="middle" x="74.5" y="-192.5" font-family="Helvetica,sans-Serif" font-size="10.00" fill="#000000">omc_UnitCheck_unitChecking</text>
</g>
<!-- Node1 -->
<g id="node2" class="node">
<title>Node1</title>
<g id="a_node2"><a xlink:href="../../dd/db3/_backend_variable_8c.html#a51a1e83100b01afe350584face09be78" target="_top" xlink:title="omc_BackendVariable\l_varList">
<polygon fill="#ffffff" stroke="#000000" points="222,-337 222,-367 336,-367 336,-337 222,-337"/>
<text text-anchor="start" x="230" y="-355" font-family="Helvetica,sans-Serif" font-size="10.00" fill="#000000">omc_BackendVariable</text>
<text text-anchor="middle" x="279" y="-344" font-family="Helvetica,sans-Serif" font-size="10.00" fill="#000000">_varList</text>
</a>
</g>
</g>
<!-- Node0&#45;&gt;Node1 -->
<g id="edge1" class="edge">
<title>Node0&#45;&gt;Node1</title>
<path fill="none" stroke="#191970" d="M80.1204,-204.6423C94.4663,-228.4069 134.8705,-290.2323 185,-323 193.2556,-328.3963 202.57,-332.8338 212.0455,-336.4703"/>
<polygon fill="#191970" stroke="#191970" points="210.9467,-339.7942 221.5414,-339.8458 213.2913,-333.1985 210.9467,-339.7942"/>
</g>
<!-- Node3 -->
<g id="node4" class="node">
<title>Node3</title>
<g id="a_node4"><a xlink:href="../../d2/ddf/_backend_equation_8c.html#a0abfa61a7a3f92bf8084d92e473d2783" target="_top" xlink:title="omc_BackendEquation\l_equationList">
<polygon fill="#ffffff" stroke="#000000" points="220.5,-283 220.5,-313 337.5,-313 337.5,-283 220.5,-283"/>
<text text-anchor="start" x="228.5" y="-301" font-family="Helvetica,sans-Serif" font-size="10.00" fill="#000000">omc_BackendEquation</text>
<text text-anchor="middle" x="279" y="-290" font-family="Helvetica,sans-Serif" font-size="10.00" fill="#000000">_equationList</text>
</a>
</g>
</g>
<!-- Node0&#45;&gt;Node3 -->
<g id="edge3" class="edge">
<title>Node0&#45;&gt;Node3</title>
<path fill="none" stroke="#191970" d="M87.9162,-204.687C108.1908,-219.0174 148.1856,-246.0972 185,-264 196.5757,-269.6293 209.3346,-274.8507 221.6193,-279.4281"/>
<polygon fill="#191970" stroke="#191970" points="220.7439,-282.8338 231.338,-282.9565 223.1327,-276.254 220.7439,-282.8338"/>
</g>
<!-- Node5 -->
<g id="node6" class="node">
<title>Node5</title>
<g id="a_node6"><a xlink:href="../../dd/dd8/_hash_table_cr_to_unit_8c.html#a5c36df39d167c6847cbf476932a7bb70" target="_top" xlink:title="omc_HashTableCrToUnit\l_emptyHashTableSized">
<polygon fill="#ffffff" stroke="#000000" points="215,-224 215,-254 343,-254 343,-224 215,-224"/>
<text text-anchor="start" x="223" y="-242" font-family="Helvetica,sans-Serif" font-size="10.00" fill="#000000">omc_HashTableCrToUnit</text>
<text text-anchor="middle" x="279" y="-231" font-family="Helvetica,sans-Serif" font-size="10.00" fill="#000000">_emptyHashTableSized</text>
</a>
</g>
</g>
<!-- Node0&#45;&gt;Node5 -->
<g id="edge5" class="edge">
<title>Node0&#45;&gt;Node5</title>
<path fill="none" stroke="#191970" d="M118.8735,-204.5473C143.9879,-209.9509 176.0482,-216.849 204.8748,-223.0513"/>
<polygon fill="#191970" stroke="#191970" points="204.407,-226.5307 214.9195,-225.2125 205.8795,-219.6873 204.407,-226.5307"/>
</g>
<!-- Node6 -->
<g id="node7" class="node">
<title>Node6</title>
<g id="a_node7"><a xlink:href="../../d7/d55/_unit_8c.html#acb33e1ec634d5b18db905bc65341afbd" target="_top" xlink:title="omc_Unit_getKnownUnits">
<polygon fill="#ffffff" stroke="#000000" points="213.5,-185.5 213.5,-204.5 344.5,-204.5 344.5,-185.5 213.5,-185.5"/>
<text text-anchor="middle" x="279" y="-192.5" font-family="Helvetica,sans-Serif" font-size="10.00" fill="#000000">omc_Unit_getKnownUnits</text>
</a>
</g>
</g>
<!-- Node0&#45;&gt;Node6 -->
<g id="edge6" class="edge">
<title>Node0&#45;&gt;Node6</title>
<path fill="none" stroke="#191970" d="M149.1973,-195C166.747,-195 185.4669,-195 203.07,-195"/>
<polygon fill="#191970" stroke="#191970" points="203.2882,-198.5001 213.2882,-195 203.2882,-191.5001 203.2882,-198.5001"/>
</g>
<!-- Node14 -->
<g id="node15" class="node">
<title>Node14</title>
<g id="a_node15"><a xlink:href="../../d7/d55/_unit_8c.html#a088335799edd9190500ab50a8f4a452e" target="_top" xlink:title="omc_Unit_getKnownUnitsInverse">
<polygon fill="#ffffff" stroke="#000000" points="197.5,-128.5 197.5,-147.5 360.5,-147.5 360.5,-128.5 197.5,-128.5"/>
<text text-anchor="middle" x="279" y="-135.5" font-family="Helvetica,sans-Serif" font-size="10.00" fill="#000000">omc_Unit_getKnownUnitsInverse</text>
</a>
</g>
</g>
<!-- Node0&#45;&gt;Node14 -->
<g id="edge14" class="edge">
<title>Node0&#45;&gt;Node14</title>
<path fill="none" stroke="#191970" d="M108.7287,-185.4595C143.3816,-175.8007 197.1106,-160.8249 234.9276,-150.2842"/>
<polygon fill="#191970" stroke="#191970" points="235.9666,-153.6281 244.6596,-147.5716 234.0871,-146.8852 235.9666,-153.6281"/>
</g>
<!-- Node20 -->
<g id="node21" class="node">
<title>Node20</title>
<g id="a_node21"><a xlink:href="../../d3/db3/_flags_8c.html#a34e6591659b1578969141a635ff24042" target="_top" xlink:title="omc_Flags_isSet">
<polygon fill="#ffffff" stroke="#000000" points="233,-78.5 233,-97.5 325,-97.5 325,-78.5 233,-78.5"/>
<text text-anchor="middle" x="279" y="-85.5" font-family="Helvetica,sans-Serif" font-size="10.00" fill="#000000">omc_Flags_isSet</text>
</a>
</g>
</g>
<!-- Node0&#45;&gt;Node20 -->
<g id="edge21" class="edge">
<title>Node0&#45;&gt;Node20</title>
<path fill="none" stroke="#191970" d="M86.0654,-185.3774C105.4515,-169.6452 146.2044,-138.2463 185,-119 199.7744,-111.6705 216.6831,-105.4795 232.049,-100.6036"/>
<polygon fill="#191970" stroke="#191970" points="233.3494,-103.8659 241.8858,-97.5906 231.2993,-97.1728 233.3494,-103.8659"/>
</g>
<!-- Node23 -->
<g id="node24" class="node">
<title>Node23</title>
<g id="a_node24"><a xlink:href="../../d0/df5/_backend_dump_8c.html#abc8d8c4a528f67bb8e38938f3d71cd0f" target="_top" xlink:title="omc_BackendDump_dumpEquationList">
<polygon fill="#ffffff" stroke="#000000" points="185,-15.5 185,-34.5 373,-34.5 373,-15.5 185,-15.5"/>
<text text-anchor="middle" x="279" y="-22.5" font-family="Helvetica,sans-Serif" font-size="10.00" fill="#000000">omc_BackendDump_dumpEquationList</text>
</a>
</g>
</g>
<!-- Node0&#45;&gt;Node23 -->
<g id="edge24" class="edge">
<title>Node0&#45;&gt;Node23</title>
<path fill="none" stroke="#191970" d="M80.9034,-185.2584C96.3769,-162.3431 138.0106,-104.302 185,-69 202.0173,-56.2153 223.3441,-45.8608 241.3801,-38.4158"/>
<polygon fill="#191970" stroke="#191970" points="243.0162,-41.5317 251.0133,-34.582 240.4278,-35.0278 243.0162,-41.5317"/>
</g>
<!-- Node2 -->
<g id="node3" class="node">
<title>Node2</title>
<g id="a_node3"><a xlink:href="../../dd/db3/_backend_variable_8c.html#a02471a40fa5320d5f337733e05e97cef" target="_top" xlink:title="omc_BackendVariable\l_vararrayList">
<polygon fill="#ffffff" stroke="#000000" points="426.5,-340 426.5,-370 540.5,-370 540.5,-340 426.5,-340"/>
<text text-anchor="start" x="434.5" y="-358" font-family="Helvetica,sans-Serif" font-size="10.00" fill="#000000">omc_BackendVariable</text>
<text text-anchor="middle" x="483.5" y="-347" font-family="Helvetica,sans-Serif" font-size="10.00" fill="#000000">_vararrayList</text>
</a>
</g>
</g>
<!-- Node1&#45;&gt;Node2 -->
<g id="edge2" class="edge">
<title>Node1&#45;&gt;Node2</title>
<path fill="none" stroke="#191970" d="M336.2366,-352.8397C361.0633,-353.2039 390.3134,-353.633 416.1755,-354.0124"/>
<polygon fill="#191970" stroke="#191970" points="416.2269,-357.5134 426.2772,-354.1605 416.3297,-350.5141 416.2269,-357.5134"/>
</g>
<!-- Node4 -->
<g id="node5" class="node">
<title>Node4</title>
<g id="a_node5"><a xlink:href="../../d0/d79/_expandable_array_8c.html#ac0872cf94bb0f7d2fd6d0de34e2c000a" target="_top" xlink:title="omc_ExpandableArray\l_toList">
<polygon fill="#ffffff" stroke="#000000" points="426,-291 426,-321 541,-321 541,-291 426,-291"/>
<text text-anchor="start" x="434" y="-309" font-family="Helvetica,sans-Serif" font-size="10.00" fill="#000000">omc_ExpandableArray</text>
<text text-anchor="middle" x="483.5" y="-298" font-family="Helvetica,sans-Serif" font-size="10.00" fill="#000000">_toList</text>
</a>
</g>
</g>
<!-- Node3&#45;&gt;Node4 -->
<g id="edge4" class="edge">
<title>Node3&#45;&gt;Node4</title>
<path fill="none" stroke="#191970" d="M337.6015,-300.2925C361.979,-301.2461 390.4313,-302.3592 415.7037,-303.3478"/>
<polygon fill="#191970" stroke="#191970" points="415.8204,-306.855 425.9496,-303.7486 416.0941,-299.8603 415.8204,-306.855"/>
</g>
<!-- Node7 -->
<g id="node8" class="node">
<title>Node7</title>
<g id="a_node8"><a xlink:href="../../d0/dc3/_hash_table_string_to_unit_8c.html#a1f0a3035e0bf579b27eb1f087dfbb459" target="_top" xlink:title="omc_HashTableStringToUnit\l_emptyHashTableSized">
<polygon fill="#ffffff" stroke="#000000" points="412,-203 412,-233 555,-233 555,-203 412,-203"/>
<text text-anchor="start" x="420" y="-221" font-family="Helvetica,sans-Serif" font-size="10.00" fill="#000000">omc_HashTableStringToUnit</text>
<text text-anchor="middle" x="483.5" y="-210" font-family="Helvetica,sans-Serif" font-size="10.00" fill="#000000">_emptyHashTableSized</text>
</a>
</g>
</g>
<!-- Node6&#45;&gt;Node7 -->
<g id="edge7" class="edge">
<title>Node6&#45;&gt;Node7</title>
<path fill="none" stroke="#191970" d="M344.5489,-202.3722C362.7703,-204.4216 382.7845,-206.6726 401.8084,-208.8122"/>
<polygon fill="#191970" stroke="#191970" points="401.6248,-212.3135 411.9534,-209.9532 402.4072,-205.3574 401.6248,-212.3135"/>
</g>
<!-- Node8 -->
<g id="node9" class="node">
<title>Node8</title>
<g id="a_node9"><a xlink:href="../../d9/d7c/_compiler_2boot_2build_2util_8c.html#a042e7022ab5a96836744111d047db784" target="_top" xlink:title="omc_Util_nextPrime">
<polygon fill="#ffffff" stroke="#000000" points="431,-164.5 431,-183.5 536,-183.5 536,-164.5 431,-164.5"/>
<text text-anchor="middle" x="483.5" y="-171.5" font-family="Helvetica,sans-Serif" font-size="10.00" fill="#000000">omc_Util_nextPrime</text>
</a>
</g>
</g>
<!-- Node6&#45;&gt;Node8 -->
<g id="edge8" class="edge">
<title>Node6&#45;&gt;Node8</title>
<path fill="none" stroke="#191970" d="M344.5489,-188.2688C368.9803,-185.76 396.635,-182.9201 420.8039,-180.4382"/>
<polygon fill="#191970" stroke="#191970" points="421.3389,-183.9018 430.9291,-179.3985 420.6238,-176.9384 421.3389,-183.9018"/>
</g>
<!-- Node11 -->
<g id="node12" class="node">
<title>Node11</title>
<g id="a_node12"><a xlink:href="../../d1/d89/_base_hash_table_8c.html#a7ee0bb974fa5bbf98581c6b3a9f9b620" target="_top" xlink:title="omc_BaseHashTable_add">
<polygon fill="#ffffff" stroke="#000000" points="418,-252.5 418,-271.5 549,-271.5 549,-252.5 418,-252.5"/>
<text text-anchor="middle" x="483.5" y="-259.5" font-family="Helvetica,sans-Serif" font-size="10.00" fill="#000000">omc_BaseHashTable_add</text>
</a>
</g>
</g>
<!-- Node6&#45;&gt;Node11 -->
<g id="edge11" class="edge">
<title>Node6&#45;&gt;Node11</title>
<path fill="none" stroke="#191970" d="M342.9703,-204.533C353.2704,-207.215 363.6203,-210.6375 373,-215 391.3791,-223.5482 390.7958,-234.0853 409,-243 413.87,-245.3849 419.0706,-247.4913 424.374,-249.3476"/>
<polygon fill="#191970" stroke="#191970" points="423.3912,-252.7079 433.9822,-252.425 425.5263,-246.0415 423.3912,-252.7079"/>
</g>
<!-- Node9 -->
<g id="node10" class="node">
<title>Node9</title>
<g id="a_node10"><a xlink:href="../../d9/d7c/_compiler_2boot_2build_2util_8c.html#afd0cada86fb44fd9a498dbde9cc5d269" target="_top" xlink:title="omc_Util_nextPrime2">
<polygon fill="#ffffff" stroke="#000000" points="628.5,-172.5 628.5,-191.5 738.5,-191.5 738.5,-172.5 628.5,-172.5"/>
<text text-anchor="middle" x="683.5" y="-179.5" font-family="Helvetica,sans-Serif" font-size="10.00" fill="#000000">omc_Util_nextPrime2</text>
</a>
</g>
</g>
<!-- Node8&#45;&gt;Node9 -->
<g id="edge9" class="edge">
<title>Node8&#45;&gt;Node9</title>
<path fill="none" stroke="#191970" d="M536.0476,-176.1019C561.1907,-177.1076 591.544,-178.3218 618.1592,-179.3864"/>
<polygon fill="#191970" stroke="#191970" points="618.0262,-182.8838 628.1581,-179.7863 618.306,-175.8893 618.0262,-182.8838"/>
</g>
<!-- Node10 -->
<g id="node11" class="node">
<title>Node10</title>
<g id="a_node11"><a xlink:href="../../d9/d7c/_compiler_2boot_2build_2util_8c.html#ac0b95660c1f4c73a3d64565c98b94790" target="_top" xlink:title="omc_Util_nextPrime\l__isPrime">
<polygon fill="#ffffff" stroke="#000000" points="831,-167 831,-197 936,-197 936,-167 831,-167"/>
<text text-anchor="start" x="839" y="-185" font-family="Helvetica,sans-Serif" font-size="10.00" fill="#000000">omc_Util_nextPrime</text>
<text text-anchor="middle" x="883.5" y="-174" font-family="Helvetica,sans-Serif" font-size="10.00" fill="#000000">__isPrime</text>
</a>
</g>
</g>
<!-- Node9&#45;&gt;Node10 -->
<g id="edge10" class="edge">
<title>Node9&#45;&gt;Node10</title>
<path fill="none" stroke="#191970" d="M738.6803,-182C764.0965,-182 794.3831,-182 820.673,-182"/>
<polygon fill="#191970" stroke="#191970" points="820.9105,-185.5001 830.9105,-182 820.9104,-178.5001 820.9105,-185.5001"/>
</g>
<!-- Node12 -->
<g id="node13" class="node">
<title>Node12</title>
<g id="a_node13"><a xlink:href="../../d1/d89/_base_hash_table_8c.html#a5a7cf63369e7afb7e99219b5df4a4d40" target="_top" xlink:title="omc_BaseHashTable_valueArraySet">
<polygon fill="#ffffff" stroke="#000000" points="595,-271.5 595,-290.5 772,-290.5 772,-271.5 595,-271.5"/>
<text text-anchor="middle" x="683.5" y="-278.5" font-family="Helvetica,sans-Serif" font-size="10.00" fill="#000000">omc_BaseHashTable_valueArraySet</text>
</a>
</g>
</g>
<!-- Node11&#45;&gt;Node12 -->
<g id="edge12" class="edge">
<title>Node11&#45;&gt;Node12</title>
<path fill="none" stroke="#191970" d="M549.2645,-268.2476C560.6497,-269.3292 572.7083,-270.4748 584.7428,-271.6181"/>
<polygon fill="#191970" stroke="#191970" points="584.5446,-275.1149 594.8309,-272.5764 585.2067,-268.1463 584.5446,-275.1149"/>
</g>
<!-- Node13 -->
<g id="node14" class="node">
<title>Node13</title>
<g id="a_node14"><a xlink:href="../../d1/d89/_base_hash_table_8c.html#a6b7e862215212523f8c5bb142fba0464" target="_top" xlink:title="omc_BaseHashTable_valueArrayAdd">
<polygon fill="#ffffff" stroke="#000000" points="594,-233.5 594,-252.5 773,-252.5 773,-233.5 594,-233.5"/>
<text text-anchor="middle" x="683.5" y="-240.5" font-family="Helvetica,sans-Serif" font-size="10.00" fill="#000000">omc_BaseHashTable_valueArrayAdd</text>
</a>
</g>
</g>
<!-- Node11&#45;&gt;Node13 -->
<g id="edge13" class="edge">
<title>Node11&#45;&gt;Node13</title>
<path fill="none" stroke="#191970" d="M549.2645,-255.7524C560.2717,-254.7067 571.9082,-253.6012 583.544,-252.4958"/>
<polygon fill="#191970" stroke="#191970" points="584.1292,-255.9561 593.7533,-251.5259 583.4671,-248.9875 584.1292,-255.9561"/>
</g>
<!-- Node14&#45;&gt;Node8 -->
<g id="edge16" class="edge">
<title>Node14&#45;&gt;Node8</title>
<path fill="none" stroke="#191970" d="M332.9975,-147.5057C359.9778,-152.2553 392.7739,-158.0287 420.8558,-162.9722"/>
<polygon fill="#191970" stroke="#191970" points="420.5136,-166.4657 430.969,-164.7525 421.7273,-159.5717 420.5136,-166.4657"/>
</g>
<!-- Node15 -->
<g id="node16" class="node">
<title>Node15</title>
<g id="a_node16"><a xlink:href="../../d0/d40/_hash_table_unit_to_string_8c.html#a3479bf3eecaf5fd7bffc13758615eae7" target="_top" xlink:title="omc_HashTableUnitToString\l_emptyHashTableSized">
<polygon fill="#ffffff" stroke="#000000" points="412,-77 412,-107 555,-107 555,-77 412,-77"/>
<text text-anchor="start" x="420" y="-95" font-family="Helvetica,sans-Serif" font-size="10.00" fill="#000000">omc_HashTableUnitToString</text>
<text text-anchor="middle" x="483.5" y="-84" font-family="Helvetica,sans-Serif" font-size="10.00" fill="#000000">_emptyHashTableSized</text>
</a>
</g>
</g>
<!-- Node14&#45;&gt;Node15 -->
<g id="edge15" class="edge">
<title>Node14&#45;&gt;Node15</title>
<path fill="none" stroke="#191970" d="M321.3725,-128.4688C345.9657,-122.9368 377.6944,-115.7998 406.5536,-109.3082"/>
<polygon fill="#191970" stroke="#191970" points="407.6372,-112.652 416.6253,-107.0427 406.1009,-105.8227 407.6372,-112.652"/>
</g>
<!-- Node16 -->
<g id="node17" class="node">
<title>Node16</title>
<g id="a_node17"><a xlink:href="../../d1/d89/_base_hash_table_8c.html#a22795ae4f7103dbcef447919a138ad13" target="_top" xlink:title="omc_BaseHashTable_hasKey">
<polygon fill="#ffffff" stroke="#000000" points="409,-126.5 409,-145.5 558,-145.5 558,-126.5 409,-126.5"/>
<text text-anchor="middle" x="483.5" y="-133.5" font-family="Helvetica,sans-Serif" font-size="10.00" fill="#000000">omc_BaseHashTable_hasKey</text>
</a>
</g>
</g>
<!-- Node14&#45;&gt;Node16 -->
<g id="edge17" class="edge">
<title>Node14&#45;&gt;Node16</title>
<path fill="none" stroke="#191970" d="M360.7055,-137.2009C373.2587,-137.0782 386.2429,-136.9512 398.8584,-136.8278"/>
<polygon fill="#191970" stroke="#191970" points="398.9161,-140.3275 408.8814,-136.7298 398.8476,-133.3278 398.9161,-140.3275"/>
</g>
<!-- Node17 -->
<g id="node18" class="node">
<title>Node17</title>
<g id="a_node18"><a xlink:href="../../d1/d89/_base_hash_table_8c.html#a9af2fd7934db53475c1958c756625ed0" target="_top" xlink:title="omc_BaseHashTable_valueArray\lKeyIndexExists">
<polygon fill="#ffffff" stroke="#000000" points="602.5,-123 602.5,-153 764.5,-153 764.5,-123 602.5,-123"/>
<text text-anchor="start" x="610.5" y="-141" font-family="Helvetica,sans-Serif" font-size="10.00" fill="#000000">omc_BaseHashTable_valueArray</text>
<text text-anchor="middle" x="683.5" y="-130" font-family="Helvetica,sans-Serif" font-size="10.00" fill="#000000">KeyIndexExists</text>
</a>
</g>
</g>
<!-- Node16&#45;&gt;Node17 -->
<g id="edge18" class="edge">
<title>Node16&#45;&gt;Node17</title>
<path fill="none" stroke="#191970" d="M558.257,-136.7476C569.4128,-136.8591 581.0171,-136.9752 592.4635,-137.0896"/>
<polygon fill="#191970" stroke="#191970" points="592.432,-140.5894 602.4666,-137.1897 592.5021,-133.5897 592.432,-140.5894"/>
</g>
<!-- Node18 -->
<g id="node19" class="node">
<title>Node18</title>
<g id="a_node19"><a xlink:href="../../d1/d89/_base_hash_table_8c.html#a1dc20718d1229dd4706dff8e089bbc55" target="_top" xlink:title="omc_BaseHashTable_hasKey\lIndex">
<polygon fill="#ffffff" stroke="#000000" points="609,-74 609,-104 758,-104 758,-74 609,-74"/>
<text text-anchor="start" x="617" y="-92" font-family="Helvetica,sans-Serif" font-size="10.00" fill="#000000">omc_BaseHashTable_hasKey</text>
<text text-anchor="middle" x="683.5" y="-81" font-family="Helvetica,sans-Serif" font-size="10.00" fill="#000000">Index</text>
</a>
</g>
</g>
<!-- Node16&#45;&gt;Node18 -->
<g id="edge19" class="edge">
<title>Node16&#45;&gt;Node18</title>
<path fill="none" stroke="#191970" d="M523.973,-126.4888C548.4778,-120.7302 580.4807,-113.2095 609.3851,-106.417"/>
<polygon fill="#191970" stroke="#191970" points="610.5283,-109.7438 619.4624,-104.0488 608.9268,-102.9294 610.5283,-109.7438"/>
</g>
<!-- Node19 -->
<g id="node20" class="node">
<title>Node19</title>
<g id="a_node20"><a xlink:href="../../d1/d89/_base_hash_table_8c.html#ad6cae0daa36185ebacd9e96e4adaf37e" target="_top" xlink:title="omc_BaseHashTable_hasKey\lIndex2">
<polygon fill="#ffffff" stroke="#000000" points="809,-74 809,-104 958,-104 958,-74 809,-74"/>
<text text-anchor="start" x="817" y="-92" font-family="Helvetica,sans-Serif" font-size="10.00" fill="#000000">omc_BaseHashTable_hasKey</text>
<text text-anchor="middle" x="883.5" y="-81" font-family="Helvetica,sans-Serif" font-size="10.00" fill="#000000">Index2</text>
</a>
</g>
</g>
<!-- Node18&#45;&gt;Node19 -->
<g id="edge20" class="edge">
<title>Node18&#45;&gt;Node19</title>
<path fill="none" stroke="#191970" d="M758.257,-89C771.4308,-89 785.2299,-89 798.6559,-89"/>
<polygon fill="#191970" stroke="#191970" points="798.8336,-92.5001 808.8335,-89 798.8335,-85.5001 798.8336,-92.5001"/>
</g>
<!-- Node21 -->
<g id="node22" class="node">
<title>Node21</title>
<g id="a_node22"><a xlink:href="../../d3/db3/_flags_8c.html#a760d66f53b65ac257876ca0f6308f09f" target="_top" xlink:title="omc_Flags_loadFlags">
<polygon fill="#ffffff" stroke="#000000" points="427.5,-38.5 427.5,-57.5 539.5,-57.5 539.5,-38.5 427.5,-38.5"/>
<text text-anchor="middle" x="483.5" y="-45.5" font-family="Helvetica,sans-Serif" font-size="10.00" fill="#000000">omc_Flags_loadFlags</text>
</a>
</g>
</g>
<!-- Node20&#45;&gt;Node21 -->
<g id="edge22" class="edge">
<title>Node20&#45;&gt;Node21</title>
<path fill="none" stroke="#191970" d="M325.1488,-78.9733C354.5936,-73.214 393.028,-65.6962 424.6577,-59.5095"/>
<polygon fill="#191970" stroke="#191970" points="425.5258,-62.9061 434.6679,-57.5515 424.182,-56.0363 425.5258,-62.9061"/>
</g>
<!-- Node22 -->
<g id="node23" class="node">
<title>Node22</title>
<g id="a_node23"><a xlink:href="../../da/d72/_compiler_2boot_2build_2list_8c.html#a3ec1ee3a5ff53be9af368e290be09182" target="_top" xlink:title="omc_List_fold">
<polygon fill="#ffffff" stroke="#000000" points="645,-35.5 645,-54.5 722,-54.5 722,-35.5 645,-35.5"/>
<text text-anchor="middle" x="683.5" y="-42.5" font-family="Helvetica,sans-Serif" font-size="10.00" fill="#000000">omc_List_fold</text>
</a>
</g>
</g>
<!-- Node21&#45;&gt;Node22 -->
<g id="edge23" class="edge">
<title>Node21&#45;&gt;Node22</title>
<path fill="none" stroke="#191970" d="M539.7434,-47.1563C569.5845,-46.7087 605.9011,-46.164 634.5662,-45.734"/>
<polygon fill="#191970" stroke="#191970" points="634.8083,-49.2309 644.7546,-45.5812 634.7032,-42.2317 634.8083,-49.2309"/>
</g>
<!-- Node24 -->
<g id="node25" class="node">
<title>Node24</title>
<g id="a_node25"><a xlink:href="../../d7/deb/build_2include_2omc_2c_2util_2modelica__string_8c.html#a751007abc59e9ca7978f2af10a0c814f" target="_top" xlink:title="stringAppend">
<polygon fill="#ffffff" stroke="#000000" points="446.5,-.5 446.5,-19.5 520.5,-19.5 520.5,-.5 446.5,-.5"/>
<text text-anchor="middle" x="483.5" y="-7.5" font-family="Helvetica,sans-Serif" font-size="10.00" fill="#000000">stringAppend</text>
</a>
</g>
</g>
<!-- Node23&#45;&gt;Node24 -->
<g id="edge25" class="edge">
<title>Node23&#45;&gt;Node24</title>
<path fill="none" stroke="#191970" d="M373.1694,-18.0927C395.1044,-16.4838 417.5385,-14.8383 436.3999,-13.4548"/>
<polygon fill="#191970" stroke="#191970" points="436.768,-16.9373 446.4851,-12.715 436.2558,-9.956 436.768,-16.9373"/>
</g>
</g>
</svg>
