<?xml version="1.0" encoding="UTF-8" standalone="no"?>
<!DOCTYPE svg PUBLIC "-//W3C//DTD SVG 1.1//EN"
 "http://www.w3.org/Graphics/SVG/1.1/DTD/svg11.dtd">
<!-- Generated by graphviz version 2.40.1 (20161225.0304)
 -->
<!-- Title: Teuchos::StringIndexedOrderedValueObjectContainerBase::InvalidKeyError Pages: 1 -->
<svg width="163pt" height="162pt"
 viewBox="0.00 0.00 163.00 162.00" xmlns="http://www.w3.org/2000/svg" xmlns:xlink="http://www.w3.org/1999/xlink">
<g id="graph0" class="graph" transform="scale(1 1) rotate(0) translate(4 158)">
<title>Teuchos::StringIndexedOrderedValueObjectContainerBase::InvalidKeyError</title>
<polygon fill="#ffffff" stroke="transparent" points="-4,4 -4,-158 159,-158 159,4 -4,4"/>
<!-- Node3 -->
<g id="node1" class="node">
<title>Node3</title>
<polygon fill="#bfbfbf" stroke="#000000" points="0,-.5 0,-41.5 155,-41.5 155,-.5 0,-.5"/>
<text text-anchor="start" x="8" y="-29.5" font-family="Helvetica,sans-Serif" font-size="10.00" fill="#000000">Teuchos::StringIndexedOrdered</text>
<text text-anchor="start" x="8" y="-18.5" font-family="Helvetica,sans-Serif" font-size="10.00" fill="#000000">ValueObjectContainerBase</text>
<text text-anchor="middle" x="77.5" y="-7.5" font-family="Helvetica,sans-Serif" font-size="10.00" fill="#000000">::InvalidKeyError</text>
</g>
<!-- Node4 -->
<g id="node2" class="node">
<title>Node4</title>
<g id="a_node2"><a xlink:href="../../d8/d69/class_teuchos_1_1_exception_base.html" target="_top" xlink:title="Base exception class for Teuchos. ">
<polygon fill="#ffffff" stroke="#000000" points="14.5,-78.5 14.5,-97.5 140.5,-97.5 140.5,-78.5 14.5,-78.5"/>
<text text-anchor="middle" x="77.5" y="-85.5" font-family="Helvetica,sans-Serif" font-size="10.00" fill="#000000">Teuchos::ExceptionBase</text>
</a>
</g>
</g>
<!-- Node4&#45;&gt;Node3 -->
<g id="edge1" class="edge">
<title>Node4&#45;&gt;Node3</title>
<path fill="none" stroke="#191970" d="M77.5,-68.3919C77.5,-59.9817 77.5,-50.1519 77.5,-41.6318"/>
<polygon fill="#191970" stroke="#191970" points="74.0001,-68.4005 77.5,-78.4005 81.0001,-68.4006 74.0001,-68.4005"/>
</g>
<!-- Node5 -->
<g id="node3" class="node">
<title>Node5</title>
<polygon fill="#ffffff" stroke="#bfbfbf" points="46.5,-134.5 46.5,-153.5 108.5,-153.5 108.5,-134.5 46.5,-134.5"/>
<text text-anchor="middle" x="77.5" y="-141.5" font-family="Helvetica,sans-Serif" font-size="10.00" fill="#000000">logic_error</text>
</g>
<!-- Node5&#45;&gt;Node4 -->
<g id="edge2" class="edge">
<title>Node5&#45;&gt;Node4</title>
<path fill="none" stroke="#191970" d="M77.5,-124.1575C77.5,-115.155 77.5,-104.9199 77.5,-97.6427"/>
<polygon fill="#191970" stroke="#191970" points="74.0001,-124.2455 77.5,-134.2455 81.0001,-124.2456 74.0001,-124.2455"/>
</g>
</g>
</svg>
