<?xml version="1.0" encoding="UTF-8" standalone="no"?>
<!DOCTYPE svg PUBLIC "-//W3C//DTD SVG 1.1//EN"
 "http://www.w3.org/Graphics/SVG/1.1/DTD/svg11.dtd">
<!-- Generated by graphviz version 2.40.1 (20161225.0304)
 -->
<!-- Title: find_table_space Pages: 1 -->
<svg width="441pt" height="28pt"
 viewBox="0.00 0.00 441.00 28.00" xmlns="http://www.w3.org/2000/svg" xmlns:xlink="http://www.w3.org/1999/xlink">
<g id="graph0" class="graph" transform="scale(1 1) rotate(0) translate(4 24)">
<title>find_table_space</title>
<polygon fill="#ffffff" stroke="transparent" points="-4,4 -4,-24 437,-24 437,4 -4,4"/>
<!-- Node47 -->
<g id="node1" class="node">
<title>Node47</title>
<polygon fill="#bfbfbf" stroke="#000000" points="0,-.5 0,-19.5 90,-19.5 90,-.5 0,-.5"/>
<text text-anchor="middle" x="45" y="-7.5" font-family="Helvetica,sans-Serif" font-size="10.00" fill="#000000">find_table_space</text>
</g>
<!-- Node48 -->
<g id="node2" class="node">
<title>Node48</title>
<g id="a_node2"><a xlink:href="../../d1/df7/tblcmp_8c.html#a55be682cd28d1f90c58455ae401954c9" target="_top" xlink:title="place_state">
<polygon fill="#ffffff" stroke="#000000" points="126,-.5 126,-19.5 193,-19.5 193,-.5 126,-.5"/>
<text text-anchor="middle" x="159.5" y="-7.5" font-family="Helvetica,sans-Serif" font-size="10.00" fill="#000000">place_state</text>
</a>
</g>
</g>
<!-- Node47&#45;&gt;Node48 -->
<g id="edge1" class="edge">
<title>Node47&#45;&gt;Node48</title>
<path fill="none" stroke="#191970" d="M100.3973,-10C109.1019,-10 117.8636,-10 125.8765,-10"/>
<polygon fill="#191970" stroke="#191970" points="100.2535,-6.5001 90.2534,-10 100.2534,-13.5001 100.2535,-6.5001"/>
</g>
<!-- Node49 -->
<g id="node3" class="node">
<title>Node49</title>
<g id="a_node3"><a xlink:href="../../d0/d68/dfa_8c.html#a92f5d1efe7ac444f129846432989560a" target="_top" xlink:title="ntod">
<polygon fill="#ffffff" stroke="#000000" points="229,-.5 229,-19.5 264,-19.5 264,-.5 229,-.5"/>
<text text-anchor="middle" x="246.5" y="-7.5" font-family="Helvetica,sans-Serif" font-size="10.00" fill="#000000">ntod</text>
</a>
</g>
</g>
<!-- Node48&#45;&gt;Node49 -->
<g id="edge2" class="edge">
<title>Node48&#45;&gt;Node49</title>
<path fill="none" stroke="#191970" d="M203.3995,-10C212.3316,-10 221.2412,-10 228.6218,-10"/>
<polygon fill="#191970" stroke="#191970" points="203.3856,-6.5001 193.3856,-10 203.3856,-13.5001 203.3856,-6.5001"/>
</g>
<!-- Node50 -->
<g id="node4" class="node">
<title>Node50</title>
<g id="a_node4"><a xlink:href="../../d3/dcb/3rd_party_2flex-2_85_835_2main_8c.html#a8764597e26209288ad2864f2b5be1d57" target="_top" xlink:title="flex_main">
<polygon fill="#ffffff" stroke="#000000" points="300,-.5 300,-19.5 359,-19.5 359,-.5 300,-.5"/>
<text text-anchor="middle" x="329.5" y="-7.5" font-family="Helvetica,sans-Serif" font-size="10.00" fill="#000000">flex_main</text>
</a>
</g>
</g>
<!-- Node49&#45;&gt;Node50 -->
<g id="edge3" class="edge">
<title>Node49&#45;&gt;Node50</title>
<path fill="none" stroke="#191970" d="M274.3,-10C282.506,-10 291.5169,-10 299.8354,-10"/>
<polygon fill="#191970" stroke="#191970" points="274.1022,-6.5001 264.1022,-10 274.1021,-13.5001 274.1022,-6.5001"/>
</g>
<!-- Node51 -->
<g id="node5" class="node">
<title>Node51</title>
<g id="a_node5"><a xlink:href="../../d3/dcb/3rd_party_2flex-2_85_835_2main_8c.html#afced8478b91af5c169926dfa4426333d" target="_top" xlink:title="main">
<polygon fill="#ffffff" stroke="#000000" points="395,-.5 395,-19.5 433,-19.5 433,-.5 395,-.5"/>
<text text-anchor="middle" x="414" y="-7.5" font-family="Helvetica,sans-Serif" font-size="10.00" fill="#000000">main</text>
</a>
</g>
</g>
<!-- Node50&#45;&gt;Node51 -->
<g id="edge4" class="edge">
<title>Node50&#45;&gt;Node51</title>
<path fill="none" stroke="#191970" d="M369.0588,-10C378.0593,-10 387.2233,-10 394.9081,-10"/>
<polygon fill="#191970" stroke="#191970" points="369.054,-6.5001 359.054,-10 369.054,-13.5001 369.054,-6.5001"/>
</g>
</g>
</svg>
