<?xml version="1.0" encoding="UTF-8" standalone="no"?>
<!DOCTYPE svg PUBLIC "-//W3C//DTD SVG 1.1//EN"
 "http://www.w3.org/Graphics/SVG/1.1/DTD/svg11.dtd">
<!-- Generated by graphviz version 2.40.1 (20161225.0304)
 -->
<!-- Title: Teuchos::OrdinalTraits::one Pages: 1 -->
<svg width="336pt" height="666pt"
 viewBox="0.00 0.00 336.00 665.50" xmlns="http://www.w3.org/2000/svg" xmlns:xlink="http://www.w3.org/1999/xlink">
<g id="graph0" class="graph" transform="scale(1 1) rotate(0) translate(4 661.5)">
<title>Teuchos::OrdinalTraits::one</title>
<polygon fill="#ffffff" stroke="transparent" points="-4,4 -4,-661.5 332,-661.5 332,4 -4,4"/>
<!-- Node15 -->
<g id="node1" class="node">
<title>Node15</title>
<polygon fill="#bfbfbf" stroke="#000000" points="0,-324 0,-343 137,-343 137,-324 0,-324"/>
<text text-anchor="middle" x="68.5" y="-331" font-family="Helvetica,sans-Serif" font-size="10.00" fill="#000000">Teuchos::OrdinalTraits::one</text>
</g>
<!-- Node16 -->
<g id="node2" class="node">
<title>Node16</title>
<g id="a_node2"><a xlink:href="../../da/db9/teuchos_2numerics_2test_2_dense_matrix_2cxx__main_8cpp.html#a0ddf1224851353fc92bfbff6f499fa97" target="_top" xlink:title="main">
<polygon fill="#ffffff" stroke="#000000" points="231.5,-638 231.5,-657 269.5,-657 269.5,-638 231.5,-638"/>
<text text-anchor="middle" x="250.5" y="-645" font-family="Helvetica,sans-Serif" font-size="10.00" fill="#000000">main</text>
</a>
</g>
</g>
<!-- Node15&#45;&gt;Node16 -->
<g id="edge1" class="edge">
<title>Node15&#45;&gt;Node16</title>
<path fill="none" stroke="#191970" d="M69.3387,-353.2695C72.6998,-406.3272 89.478,-552.9407 173,-628.5 188.9235,-642.9054 213.9755,-646.832 231.2646,-647.6881"/>
<polygon fill="#191970" stroke="#191970" points="72.8274,-352.9635 68.7945,-343.1663 65.8375,-353.3401 72.8274,-352.9635"/>
</g>
<!-- Node17 -->
<g id="node3" class="node">
<title>Node17</title>
<g id="a_node3"><a xlink:href="../../d5/d00/class_teuchos_1_1_default_b_l_a_s_impl.html#a1d14b8f3f428b5542b107a51fb6945e7" target="_top" xlink:title="Scale the vector x by the constant alpha. ">
<polygon fill="#ffffff" stroke="#000000" points="175.5,-588.5 175.5,-618.5 325.5,-618.5 325.5,-588.5 175.5,-588.5"/>
<text text-anchor="start" x="183.5" y="-606.5" font-family="Helvetica,sans-Serif" font-size="10.00" fill="#000000">Teuchos::DefaultBLASImpl</text>
<text text-anchor="middle" x="250.5" y="-595.5" font-family="Helvetica,sans-Serif" font-size="10.00" fill="#000000">&lt; int, MagnitudeType &gt;::SCAL</text>
</a>
</g>
</g>
<!-- Node15&#45;&gt;Node17 -->
<g id="edge2" class="edge">
<title>Node15&#45;&gt;Node17</title>
<path fill="none" stroke="#191970" d="M71.1686,-353.1126C78.5158,-399.4586 103.3385,-516.566 173,-579.5 176.7626,-582.8992 180.9996,-585.817 185.5031,-588.3216"/>
<polygon fill="#191970" stroke="#191970" points="74.622,-352.5398 69.6923,-343.1617 67.6978,-353.5671 74.622,-352.5398"/>
</g>
<!-- Node18 -->
<g id="node4" class="node">
<title>Node18</title>
<g id="a_node4"><a xlink:href="../../d5/d00/class_teuchos_1_1_default_b_l_a_s_impl.html#a56cc4007254ed752af6e55fb0be0fc14" target="_top" xlink:title="Copy the vector x to the vector y. ">
<polygon fill="#ffffff" stroke="#000000" points="174.5,-539.5 174.5,-569.5 326.5,-569.5 326.5,-539.5 174.5,-539.5"/>
<text text-anchor="start" x="182.5" y="-557.5" font-family="Helvetica,sans-Serif" font-size="10.00" fill="#000000">Teuchos::DefaultBLASImpl</text>
<text text-anchor="middle" x="250.5" y="-546.5" font-family="Helvetica,sans-Serif" font-size="10.00" fill="#000000">&lt; int, MagnitudeType &gt;::COPY</text>
</a>
</g>
</g>
<!-- Node15&#45;&gt;Node18 -->
<g id="edge3" class="edge">
<title>Node15&#45;&gt;Node18</title>
<path fill="none" stroke="#191970" d="M73.4651,-353.152C84.47,-392.6919 114.6747,-482.1955 173,-530.5 177.1222,-533.914 181.7283,-536.8433 186.5837,-539.3565"/>
<polygon fill="#191970" stroke="#191970" points="76.8229,-352.1599 70.8628,-343.4005 70.0595,-353.9648 76.8229,-352.1599"/>
</g>
<!-- Node19 -->
<g id="node5" class="node">
<title>Node19</title>
<g id="a_node5"><a xlink:href="../../d5/d00/class_teuchos_1_1_default_b_l_a_s_impl.html#adc32ea18733ed5c3efc1c8ec3c47a791" target="_top" xlink:title="Perform the operation: y &lt;&#45; y+alpha*x. ">
<polygon fill="#ffffff" stroke="#000000" points="175,-490.5 175,-520.5 326,-520.5 326,-490.5 175,-490.5"/>
<text text-anchor="start" x="183" y="-508.5" font-family="Helvetica,sans-Serif" font-size="10.00" fill="#000000">Teuchos::DefaultBLASImpl</text>
<text text-anchor="middle" x="250.5" y="-497.5" font-family="Helvetica,sans-Serif" font-size="10.00" fill="#000000">&lt; int, MagnitudeType &gt;::AXPY</text>
</a>
</g>
</g>
<!-- Node15&#45;&gt;Node19 -->
<g id="edge4" class="edge">
<title>Node15&#45;&gt;Node19</title>
<path fill="none" stroke="#191970" d="M76.8401,-352.4894C91.6311,-383.981 125.4407,-446.958 173,-481.5 177.6726,-484.8937 182.8364,-487.8159 188.2141,-490.3307"/>
<polygon fill="#191970" stroke="#191970" points="79.8938,-350.7503 72.5608,-343.1033 73.5246,-353.6542 79.8938,-350.7503"/>
</g>
<!-- Node20 -->
<g id="node6" class="node">
<title>Node20</title>
<g id="a_node6"><a xlink:href="../../d5/d00/class_teuchos_1_1_default_b_l_a_s_impl.html#a9b98028041b82ea097d1b3843145a6fc" target="_top" xlink:title="Sum the absolute values of the entries of x. ">
<polygon fill="#ffffff" stroke="#000000" points="174,-441.5 174,-471.5 327,-471.5 327,-441.5 174,-441.5"/>
<text text-anchor="start" x="182" y="-459.5" font-family="Helvetica,sans-Serif" font-size="10.00" fill="#000000">Teuchos::DefaultBLASImpl</text>
<text text-anchor="middle" x="250.5" y="-448.5" font-family="Helvetica,sans-Serif" font-size="10.00" fill="#000000">&lt; int, MagnitudeType &gt;::ASUM</text>
</a>
</g>
</g>
<!-- Node15&#45;&gt;Node20 -->
<g id="edge5" class="edge">
<title>Node15&#45;&gt;Node20</title>
<path fill="none" stroke="#191970" d="M82.5533,-351.0751C101.0664,-373.1183 135.6758,-410.664 173,-432.5 178.8356,-435.914 185.2075,-438.8916 191.7093,-441.4763"/>
<polygon fill="#191970" stroke="#191970" points="85.1202,-348.6864 76.063,-343.1894 79.7154,-353.1348 85.1202,-348.6864"/>
</g>
<!-- Node21 -->
<g id="node7" class="node">
<title>Node21</title>
<g id="a_node7"><a xlink:href="../../d5/d00/class_teuchos_1_1_default_b_l_a_s_impl.html#aa8b7a287c05fa216e057bdd93b729d32" target="_top" xlink:title="Form the dot product of the vectors x and y. ">
<polygon fill="#ffffff" stroke="#000000" points="178,-392.5 178,-422.5 323,-422.5 323,-392.5 178,-392.5"/>
<text text-anchor="start" x="186" y="-410.5" font-family="Helvetica,sans-Serif" font-size="10.00" fill="#000000">Teuchos::DefaultBLASImpl</text>
<text text-anchor="middle" x="250.5" y="-399.5" font-family="Helvetica,sans-Serif" font-size="10.00" fill="#000000">&lt; int, MagnitudeType &gt;::DOT</text>
</a>
</g>
</g>
<!-- Node15&#45;&gt;Node21 -->
<g id="edge6" class="edge">
<title>Node15&#45;&gt;Node21</title>
<path fill="none" stroke="#191970" d="M95.5396,-347.7826C116.3588,-358.4476 146.0419,-372.9417 173,-383.5 181.0003,-386.6334 189.5882,-389.6362 198.0295,-392.3927"/>
<polygon fill="#191970" stroke="#191970" points="97.1296,-344.6646 86.6393,-343.1798 93.914,-350.8823 97.1296,-344.6646"/>
</g>
<!-- Node22 -->
<g id="node8" class="node">
<title>Node22</title>
<g id="a_node8"><a xlink:href="../../d5/d00/class_teuchos_1_1_default_b_l_a_s_impl.html#a2b4927e3b1e44865f93fd0116fbce1a7" target="_top" xlink:title="Compute the 2&#45;norm of the vector x. ">
<polygon fill="#ffffff" stroke="#000000" points="174.5,-343.5 174.5,-373.5 326.5,-373.5 326.5,-343.5 174.5,-343.5"/>
<text text-anchor="start" x="182.5" y="-361.5" font-family="Helvetica,sans-Serif" font-size="10.00" fill="#000000">Teuchos::DefaultBLASImpl</text>
<text text-anchor="middle" x="250.5" y="-350.5" font-family="Helvetica,sans-Serif" font-size="10.00" fill="#000000">&lt; int, MagnitudeType &gt;::NRM2</text>
</a>
</g>
</g>
<!-- Node15&#45;&gt;Node22 -->
<g id="edge7" class="edge">
<title>Node15&#45;&gt;Node22</title>
<path fill="none" stroke="#191970" d="M147.1579,-344.3047C156.1927,-345.5457 165.3929,-346.8095 174.3933,-348.0458"/>
<polygon fill="#191970" stroke="#191970" points="147.4304,-340.8093 137.0471,-342.9158 146.4777,-347.7442 147.4304,-340.8093"/>
</g>
<!-- Node23 -->
<g id="node9" class="node">
<title>Node23</title>
<g id="a_node9"><a xlink:href="../../d5/d00/class_teuchos_1_1_default_b_l_a_s_impl.html#a7f1dc26b17576a1ff402ca218c260535" target="_top" xlink:title="Return the index of the element of x with the maximum magnitude. ">
<polygon fill="#ffffff" stroke="#000000" points="173,-294.5 173,-324.5 328,-324.5 328,-294.5 173,-294.5"/>
<text text-anchor="start" x="181" y="-312.5" font-family="Helvetica,sans-Serif" font-size="10.00" fill="#000000">Teuchos::DefaultBLASImpl</text>
<text text-anchor="middle" x="250.5" y="-301.5" font-family="Helvetica,sans-Serif" font-size="10.00" fill="#000000">&lt; int, MagnitudeType &gt;::IAMAX</text>
</a>
</g>
</g>
<!-- Node15&#45;&gt;Node23 -->
<g id="edge8" class="edge">
<title>Node15&#45;&gt;Node23</title>
<path fill="none" stroke="#191970" d="M147.0158,-323.1463C155.5825,-322.0166 164.2997,-320.8671 172.8558,-319.7388"/>
<polygon fill="#191970" stroke="#191970" points="146.5036,-319.6834 137.0471,-324.4608 147.4188,-326.6233 146.5036,-319.6834"/>
</g>
<!-- Node24 -->
<g id="node10" class="node">
<title>Node24</title>
<g id="a_node10"><a xlink:href="../../d5/d00/class_teuchos_1_1_default_b_l_a_s_impl.html#a23d7bd613eec56c17a610d9353bfdec8" target="_top" xlink:title="Performs the matrix&#45;vector operation: y &lt;&#45; alpha*A*x+beta*y or y &lt;&#45; alpha*A&#39;*x+beta*y where A is a ge...">
<polygon fill="#ffffff" stroke="#000000" points="174,-245.5 174,-275.5 327,-275.5 327,-245.5 174,-245.5"/>
<text text-anchor="start" x="182" y="-263.5" font-family="Helvetica,sans-Serif" font-size="10.00" fill="#000000">Teuchos::DefaultBLASImpl</text>
<text text-anchor="middle" x="250.5" y="-252.5" font-family="Helvetica,sans-Serif" font-size="10.00" fill="#000000">&lt; int, MagnitudeType &gt;::GEMV</text>
</a>
</g>
</g>
<!-- Node15&#45;&gt;Node24 -->
<g id="edge9" class="edge">
<title>Node15&#45;&gt;Node24</title>
<path fill="none" stroke="#191970" d="M96.6815,-319.4511C117.493,-309.3489 146.6606,-295.7559 173,-285.5 181.9584,-282.0118 191.6258,-278.6128 200.9935,-275.5017"/>
<polygon fill="#191970" stroke="#191970" points="94.9101,-316.4213 87.4668,-323.961 97.9874,-322.7086 94.9101,-316.4213"/>
</g>
<!-- Node25 -->
<g id="node11" class="node">
<title>Node25</title>
<g id="a_node11"><a xlink:href="../../d5/d00/class_teuchos_1_1_default_b_l_a_s_impl.html#af368359e0b3cda286b94fb3539b8e600" target="_top" xlink:title="Performs the matrix&#45;vector operation: x &lt;&#45; A*x or x &lt;&#45; A&#39;*x where A is a unit/non&#45;unit n by n upper/l...">
<polygon fill="#ffffff" stroke="#000000" points="174.5,-196.5 174.5,-226.5 326.5,-226.5 326.5,-196.5 174.5,-196.5"/>
<text text-anchor="start" x="182.5" y="-214.5" font-family="Helvetica,sans-Serif" font-size="10.00" fill="#000000">Teuchos::DefaultBLASImpl</text>
<text text-anchor="middle" x="250.5" y="-203.5" font-family="Helvetica,sans-Serif" font-size="10.00" fill="#000000">&lt; int, MagnitudeType &gt;::TRMV</text>
</a>
</g>
</g>
<!-- Node15&#45;&gt;Node25 -->
<g id="edge10" class="edge">
<title>Node15&#45;&gt;Node25</title>
<path fill="none" stroke="#191970" d="M82.9568,-316.0321C101.6617,-294.4779 136.2358,-258.0466 173,-236.5 179.4645,-232.7113 186.5741,-229.4198 193.7846,-226.5821"/>
<polygon fill="#191970" stroke="#191970" points="80.1957,-313.8761 76.3789,-323.7596 85.526,-318.4135 80.1957,-313.8761"/>
</g>
<!-- Node26 -->
<g id="node12" class="node">
<title>Node26</title>
<g id="a_node12"><a xlink:href="../../d5/d00/class_teuchos_1_1_default_b_l_a_s_impl.html#ae4a8f3027f83516ab712d73cd8a08acc" target="_top" xlink:title="Performs the rank 1 operation: A &lt;&#45; alpha*x*y&#39;+A. ">
<polygon fill="#ffffff" stroke="#000000" points="177.5,-147.5 177.5,-177.5 323.5,-177.5 323.5,-147.5 177.5,-147.5"/>
<text text-anchor="start" x="185.5" y="-165.5" font-family="Helvetica,sans-Serif" font-size="10.00" fill="#000000">Teuchos::DefaultBLASImpl</text>
<text text-anchor="middle" x="250.5" y="-154.5" font-family="Helvetica,sans-Serif" font-size="10.00" fill="#000000">&lt; int, MagnitudeType &gt;::GER</text>
</a>
</g>
</g>
<!-- Node15&#45;&gt;Node26 -->
<g id="edge11" class="edge">
<title>Node15&#45;&gt;Node26</title>
<path fill="none" stroke="#191970" d="M77.1707,-314.3797C92.239,-283.2574 126.1858,-221.691 173,-187.5 178.2517,-183.6644 184.1184,-180.4 190.2095,-177.6254"/>
<polygon fill="#191970" stroke="#191970" points="73.8836,-313.145 72.7929,-323.6836 80.2175,-316.1253 73.8836,-313.145"/>
</g>
<!-- Node27 -->
<g id="node13" class="node">
<title>Node27</title>
<g id="a_node13"><a xlink:href="../../d5/d00/class_teuchos_1_1_default_b_l_a_s_impl.html#ae26dc4ffe70d91041282e36cb03c1c0d" target="_top" xlink:title="Performs the matrix&#45;matrix operation: C &lt;&#45; alpha*A*B+beta*C or C &lt;&#45; alpha*B*A+beta*C where A is an m ...">
<polygon fill="#ffffff" stroke="#000000" points="173.5,-98.5 173.5,-128.5 327.5,-128.5 327.5,-98.5 173.5,-98.5"/>
<text text-anchor="start" x="181.5" y="-116.5" font-family="Helvetica,sans-Serif" font-size="10.00" fill="#000000">Teuchos::DefaultBLASImpl</text>
<text text-anchor="middle" x="250.5" y="-105.5" font-family="Helvetica,sans-Serif" font-size="10.00" fill="#000000">&lt; int, MagnitudeType &gt;::SYMM</text>
</a>
</g>
</g>
<!-- Node15&#45;&gt;Node27 -->
<g id="edge12" class="edge">
<title>Node15&#45;&gt;Node27</title>
<path fill="none" stroke="#191970" d="M73.6442,-313.8507C84.9033,-274.6845 115.4395,-186.5359 173,-138.5 177.6674,-134.6049 182.9534,-131.313 188.5185,-128.5315"/>
<polygon fill="#191970" stroke="#191970" points="70.2047,-313.158 70.9195,-323.7287 76.9527,-315.0194 70.2047,-313.158"/>
</g>
<!-- Node28 -->
<g id="node14" class="node">
<title>Node28</title>
<g id="a_node14"><a xlink:href="../../d5/d00/class_teuchos_1_1_default_b_l_a_s_impl.html#a535ffbff2b4317776c213d9a90b9a5a5" target="_top" xlink:title="Performs the matrix&#45;matrix operation: B &lt;&#45; alpha*op(A)*B or B &lt;&#45; alpha*B*op(A) where op(A) is an unit...">
<polygon fill="#ffffff" stroke="#000000" points="173.5,-49.5 173.5,-79.5 327.5,-79.5 327.5,-49.5 173.5,-49.5"/>
<text text-anchor="start" x="181.5" y="-67.5" font-family="Helvetica,sans-Serif" font-size="10.00" fill="#000000">Teuchos::DefaultBLASImpl</text>
<text text-anchor="middle" x="250.5" y="-56.5" font-family="Helvetica,sans-Serif" font-size="10.00" fill="#000000">&lt; int, MagnitudeType &gt;::TRMM</text>
</a>
</g>
</g>
<!-- Node15&#45;&gt;Node28 -->
<g id="edge13" class="edge">
<title>Node15&#45;&gt;Node28</title>
<path fill="none" stroke="#191970" d="M71.3164,-313.8054C78.9393,-267.7477 104.2388,-152.1713 173,-89.5 177.284,-85.5954 182.1836,-82.3003 187.3919,-79.5195"/>
<polygon fill="#191970" stroke="#191970" points="67.8182,-313.5243 69.7435,-323.9427 74.7354,-314.5976 67.8182,-313.5243"/>
</g>
<!-- Node29 -->
<g id="node15" class="node">
<title>Node29</title>
<g id="a_node15"><a xlink:href="../../d5/d00/class_teuchos_1_1_default_b_l_a_s_impl.html#ac803d91ad6f6143a5e7cb424e60d856c" target="_top" xlink:title="Solves the matrix equations: op(A)*X=alpha*B or X*op(A)=alpha*B where X and B are m by n matrices...">
<polygon fill="#ffffff" stroke="#000000" points="174.5,-.5 174.5,-30.5 326.5,-30.5 326.5,-.5 174.5,-.5"/>
<text text-anchor="start" x="182.5" y="-18.5" font-family="Helvetica,sans-Serif" font-size="10.00" fill="#000000">Teuchos::DefaultBLASImpl</text>
<text text-anchor="middle" x="250.5" y="-7.5" font-family="Helvetica,sans-Serif" font-size="10.00" fill="#000000">&lt; int, MagnitudeType &gt;::TRSM</text>
</a>
</g>
</g>
<!-- Node15&#45;&gt;Node29 -->
<g id="edge14" class="edge">
<title>Node15&#45;&gt;Node29</title>
<path fill="none" stroke="#191970" d="M69.7379,-313.4981C74.0666,-261.0214 92.9881,-118.1042 173,-40.5 176.9578,-36.6613 181.5084,-33.4119 186.3793,-30.6615"/>
<polygon fill="#191970" stroke="#191970" points="66.2243,-313.5566 68.986,-323.7852 73.2057,-314.067 66.2243,-313.5566"/>
</g>
</g>
</svg>
