<?xml version="1.0" encoding="UTF-8" standalone="no"?>
<!DOCTYPE svg PUBLIC "-//W3C//DTD SVG 1.1//EN"
 "http://www.w3.org/Graphics/SVG/1.1/DTD/svg11.dtd">
<!-- Generated by graphviz version 2.40.1 (20161225.0304)
 -->
<!-- Title: mumps_async_read_th Pages: 1 -->
<svg width="879pt" height="211pt"
 viewBox="0.00 0.00 879.00 211.00" xmlns="http://www.w3.org/2000/svg" xmlns:xlink="http://www.w3.org/1999/xlink">
<g id="graph0" class="graph" transform="scale(1 1) rotate(0) translate(4 207)">
<title>mumps_async_read_th</title>
<polygon fill="#ffffff" stroke="transparent" points="-4,4 -4,-207 875,-207 875,4 -4,4"/>
<!-- Node0 -->
<g id="node1" class="node">
<title>Node0</title>
<polygon fill="#bfbfbf" stroke="#000000" points="0,-82.5 0,-101.5 118,-101.5 118,-82.5 0,-82.5"/>
<text text-anchor="middle" x="59" y="-89.5" font-family="Helvetica,sans-Serif" font-size="10.00" fill="#000000">mumps_async_read_th</text>
</g>
<!-- Node1 -->
<g id="node2" class="node">
<title>Node1</title>
<g id="a_node2"><a xlink:href="../../d0/d58/mumps__io__err_8c.html#abeaf115b118410ec94b9974279741cf9" target="_top" xlink:title="mumps_check_error_th">
<polygon fill="#ffffff" stroke="#000000" points="470,-120.5 470,-139.5 589,-139.5 589,-120.5 470,-120.5"/>
<text text-anchor="middle" x="529.5" y="-127.5" font-family="Helvetica,sans-Serif" font-size="10.00" fill="#000000">mumps_check_error_th</text>
</a>
</g>
</g>
<!-- Node0&#45;&gt;Node1 -->
<g id="edge1" class="edge">
<title>Node0&#45;&gt;Node1</title>
<path fill="none" stroke="#191970" d="M90.8569,-101.5168C109.1874,-106.7068 132.7339,-112.8916 154,-117 276.4662,-140.6593 309.3308,-139.9125 434,-136 442.3541,-135.7378 451.1132,-135.347 459.7954,-134.8881"/>
<polygon fill="#191970" stroke="#191970" points="460.1344,-138.3747 469.9234,-134.3218 459.7436,-131.3856 460.1344,-138.3747"/>
</g>
<!-- Node2 -->
<g id="node3" class="node">
<title>Node2</title>
<g id="a_node3"><a xlink:href="../../d5/dd9/mumps__io__thread_8c.html#a20b8938399caec2ccd8231467bb8e0ed" target="_top" xlink:title="mumps_clean_finished\l_queue_th">
<polygon fill="#ffffff" stroke="#000000" points="154,-77 154,-107 270,-107 270,-77 154,-77"/>
<text text-anchor="start" x="162" y="-95" font-family="Helvetica,sans-Serif" font-size="10.00" fill="#000000">mumps_clean_finished</text>
<text text-anchor="middle" x="212" y="-84" font-family="Helvetica,sans-Serif" font-size="10.00" fill="#000000">_queue_th</text>
</a>
</g>
</g>
<!-- Node0&#45;&gt;Node2 -->
<g id="edge2" class="edge">
<title>Node0&#45;&gt;Node2</title>
<path fill="none" stroke="#191970" d="M118.1538,-92C126.4636,-92 135.0617,-92 143.5272,-92"/>
<polygon fill="#191970" stroke="#191970" points="143.7592,-95.5001 153.7592,-92 143.7591,-88.5001 143.7592,-95.5001"/>
</g>
<!-- Node5 -->
<g id="node6" class="node">
<title>Node5</title>
<g id="a_node6"><a xlink:href="../../d0/d58/mumps__io__err_8c.html#a2e8fdf3ea4c54c2237714f16c4b970ab" target="_top" xlink:title="mumps_io_error">
<polygon fill="#ffffff" stroke="#000000" points="625,-38.5 625,-57.5 711,-57.5 711,-38.5 625,-38.5"/>
<text text-anchor="middle" x="668" y="-45.5" font-family="Helvetica,sans-Serif" font-size="10.00" fill="#000000">mumps_io_error</text>
</a>
</g>
</g>
<!-- Node0&#45;&gt;Node5 -->
<g id="edge14" class="edge">
<title>Node0&#45;&gt;Node5</title>
<path fill="none" stroke="#191970" d="M75.1719,-82.3237C93.5807,-71.7969 124.8806,-55.3566 154,-47 289.9178,-7.9948 328.8362,-18.2362 470,-10 522.7991,-6.9194 537.4345,1.7571 589,-10 608.7841,-14.5108 629.389,-24.6304 644.5934,-33.293"/>
<polygon fill="#191970" stroke="#191970" points="642.9158,-36.3669 653.3068,-38.4352 646.4735,-30.3385 642.9158,-36.3669"/>
</g>
<!-- Node9 -->
<g id="node10" class="node">
<title>Node9</title>
<g id="a_node10"><a xlink:href="../../d5/dd9/mumps__io__thread_8c.html#aae085caa45981bd9b66e66b255bfbfa1" target="_top" xlink:title="mumps_post_sem">
<polygon fill="#ffffff" stroke="#000000" points="481,-19.5 481,-38.5 578,-38.5 578,-19.5 481,-19.5"/>
<text text-anchor="middle" x="529.5" y="-26.5" font-family="Helvetica,sans-Serif" font-size="10.00" fill="#000000">mumps_post_sem</text>
</a>
</g>
</g>
<!-- Node0&#45;&gt;Node9 -->
<g id="edge15" class="edge">
<title>Node0&#45;&gt;Node9</title>
<path fill="none" stroke="#191970" d="M92.6411,-82.4827C110.7158,-77.6281 133.4493,-71.934 154,-68 264.8196,-46.7859 396.4011,-36.4671 470.7063,-31.9834"/>
<polygon fill="#191970" stroke="#191970" points="471.0258,-35.4707 480.8028,-31.3889 470.6143,-28.4828 471.0258,-35.4707"/>
</g>
<!-- Node10 -->
<g id="node11" class="node">
<title>Node10</title>
<g id="a_node11"><a xlink:href="../../d5/dd9/mumps__io__thread_8c.html#ad2ce096056a2c218b05d418b99ad5d40" target="_top" xlink:title="mumps_wait_sem">
<polygon fill="#ffffff" stroke="#000000" points="164,-183.5 164,-202.5 260,-202.5 260,-183.5 164,-183.5"/>
<text text-anchor="middle" x="212" y="-190.5" font-family="Helvetica,sans-Serif" font-size="10.00" fill="#000000">mumps_wait_sem</text>
</a>
</g>
</g>
<!-- Node0&#45;&gt;Node10 -->
<g id="edge12" class="edge">
<title>Node0&#45;&gt;Node10</title>
<path fill="none" stroke="#191970" d="M68.8126,-101.5939C85.2916,-117.3099 120.0643,-148.8084 154,-169 160.5029,-172.8692 167.7452,-176.4052 174.8474,-179.504"/>
<polygon fill="#191970" stroke="#191970" points="173.7848,-182.8522 184.3628,-183.4489 176.4657,-176.3859 173.7848,-182.8522"/>
</g>
<!-- Node3 -->
<g id="node4" class="node">
<title>Node3</title>
<g id="a_node4"><a xlink:href="../../d5/dd9/mumps__io__thread_8c.html#a51345ac20920222e31ab39f88033813d" target="_top" xlink:title="mumps_is_there_finished\l_request_th">
<polygon fill="#ffffff" stroke="#000000" points="306,-96 306,-126 434,-126 434,-96 306,-96"/>
<text text-anchor="start" x="314" y="-114" font-family="Helvetica,sans-Serif" font-size="10.00" fill="#000000">mumps_is_there_finished</text>
<text text-anchor="middle" x="370" y="-103" font-family="Helvetica,sans-Serif" font-size="10.00" fill="#000000">_request_th</text>
</a>
</g>
</g>
<!-- Node2&#45;&gt;Node3 -->
<g id="edge3" class="edge">
<title>Node2&#45;&gt;Node3</title>
<path fill="none" stroke="#191970" d="M270.3845,-99.0209C278.6614,-100.0162 287.263,-101.0506 295.79,-102.076"/>
<polygon fill="#191970" stroke="#191970" points="295.3952,-105.5537 305.7416,-103.2727 296.231,-98.6037 295.3952,-105.5537"/>
</g>
<!-- Node4 -->
<g id="node5" class="node">
<title>Node4</title>
<g id="a_node5"><a xlink:href="../../d5/dd9/mumps__io__thread_8c.html#a52a914165415ab38e5c4c248b65bdc23" target="_top" xlink:title="mumps_clean_request_th">
<polygon fill="#ffffff" stroke="#000000" points="306,-57.5 306,-76.5 434,-76.5 434,-57.5 306,-57.5"/>
<text text-anchor="middle" x="370" y="-64.5" font-family="Helvetica,sans-Serif" font-size="10.00" fill="#000000">mumps_clean_request_th</text>
</a>
</g>
</g>
<!-- Node2&#45;&gt;Node4 -->
<g id="edge4" class="edge">
<title>Node2&#45;&gt;Node4</title>
<path fill="none" stroke="#191970" d="M270.3845,-82.762C279.91,-81.2547 289.8655,-79.6795 299.6423,-78.1326"/>
<polygon fill="#191970" stroke="#191970" points="300.4104,-81.5546 309.7405,-76.5347 299.3163,-74.6407 300.4104,-81.5546"/>
</g>
<!-- Node4&#45;&gt;Node1 -->
<g id="edge5" class="edge">
<title>Node4&#45;&gt;Node1</title>
<path fill="none" stroke="#191970" d="M403.1467,-76.5277C413.1474,-79.6243 424.0969,-83.2387 434,-87 456.8707,-95.6864 482.0806,-107.1199 500.8534,-116.0135"/>
<polygon fill="#191970" stroke="#191970" points="499.5056,-119.2485 510.0372,-120.4047 502.5253,-112.9333 499.5056,-119.2485"/>
</g>
<!-- Node4&#45;&gt;Node5 -->
<g id="edge6" class="edge">
<title>Node4&#45;&gt;Node5</title>
<path fill="none" stroke="#191970" d="M434.2947,-62.9007C488.2394,-59.4612 564.3655,-54.6076 614.9002,-51.3856"/>
<polygon fill="#191970" stroke="#191970" points="615.2078,-54.8731 624.9648,-50.7439 614.7623,-47.8873 615.2078,-54.8731"/>
</g>
<!-- Node4&#45;&gt;Node9 -->
<g id="edge10" class="edge">
<title>Node4&#45;&gt;Node9</title>
<path fill="none" stroke="#191970" d="M410.2486,-57.411C431.2963,-52.3965 457.2552,-46.2119 479.5734,-40.8947"/>
<polygon fill="#191970" stroke="#191970" points="480.6243,-44.2424 489.5408,-38.5201 479.0019,-37.433 480.6243,-44.2424"/>
</g>
<!-- Node6 -->
<g id="node7" class="node">
<title>Node6</title>
<g id="a_node7"><a xlink:href="../../d0/d58/mumps__io__err_8c.html#ae359b055e5eb9e74782eae78d3593533" target="_top" xlink:title="mumps_io_protect_err">
<polygon fill="#ffffff" stroke="#000000" points="752.5,-76.5 752.5,-95.5 865.5,-95.5 865.5,-76.5 752.5,-76.5"/>
<text text-anchor="middle" x="809" y="-83.5" font-family="Helvetica,sans-Serif" font-size="10.00" fill="#000000">mumps_io_protect_err</text>
</a>
</g>
</g>
<!-- Node5&#45;&gt;Node6 -->
<g id="edge7" class="edge">
<title>Node5&#45;&gt;Node6</title>
<path fill="none" stroke="#191970" d="M703.5803,-57.589C721.782,-62.4944 744.1384,-68.5196 763.5723,-73.7571"/>
<polygon fill="#191970" stroke="#191970" points="762.8648,-77.1912 773.4311,-76.4141 764.6864,-70.4324 762.8648,-77.1912"/>
</g>
<!-- Node7 -->
<g id="node8" class="node">
<title>Node7</title>
<g id="a_node8"><a xlink:href="../../d6/d84/3rd_party_2open62541_2open62541_8h.html#aa383452fe445bfae989358c9d7d96f4f" target="_top" xlink:title="strlen">
<polygon fill="#ffffff" stroke="#000000" points="788.5,-38.5 788.5,-57.5 829.5,-57.5 829.5,-38.5 788.5,-38.5"/>
<text text-anchor="middle" x="809" y="-45.5" font-family="Helvetica,sans-Serif" font-size="10.00" fill="#000000">strlen</text>
</a>
</g>
</g>
<!-- Node5&#45;&gt;Node7 -->
<g id="edge8" class="edge">
<title>Node5&#45;&gt;Node7</title>
<path fill="none" stroke="#191970" d="M711.0708,-48C732.664,-48 758.3245,-48 777.9605,-48"/>
<polygon fill="#191970" stroke="#191970" points="778.1855,-51.5001 788.1855,-48 778.1855,-44.5001 778.1855,-51.5001"/>
</g>
<!-- Node8 -->
<g id="node9" class="node">
<title>Node8</title>
<g id="a_node9"><a xlink:href="../../d0/d58/mumps__io__err_8c.html#a075daa4b786a77f4a7e8c42723ebcb56" target="_top" xlink:title="mumps_io_unprotect_err">
<polygon fill="#ffffff" stroke="#000000" points="747,-.5 747,-19.5 871,-19.5 871,-.5 747,-.5"/>
<text text-anchor="middle" x="809" y="-7.5" font-family="Helvetica,sans-Serif" font-size="10.00" fill="#000000">mumps_io_unprotect_err</text>
</a>
</g>
</g>
<!-- Node5&#45;&gt;Node8 -->
<g id="edge9" class="edge">
<title>Node5&#45;&gt;Node8</title>
<path fill="none" stroke="#191970" d="M703.5803,-38.411C721.782,-33.5056 744.1384,-27.4804 763.5723,-22.2429"/>
<polygon fill="#191970" stroke="#191970" points="764.6864,-25.5676 773.4311,-19.5859 762.8648,-18.8088 764.6864,-25.5676"/>
</g>
<!-- Node9&#45;&gt;Node5 -->
<g id="edge11" class="edge">
<title>Node9&#45;&gt;Node5</title>
<path fill="none" stroke="#191970" d="M578.3299,-35.6987C590.0157,-37.3018 602.5535,-39.0218 614.4402,-40.6524"/>
<polygon fill="#191970" stroke="#191970" points="614.2978,-44.1656 624.6808,-42.0573 615.2493,-37.2306 614.2978,-44.1656"/>
</g>
<!-- Node10&#45;&gt;Node5 -->
<g id="edge13" class="edge">
<title>Node10&#45;&gt;Node5</title>
<path fill="none" stroke="#191970" d="M260.2151,-198.6558C335.5785,-205.1375 483.5637,-208.1986 589,-149 622.7997,-130.0227 647.1684,-90.1347 659.2985,-66.5615"/>
<polygon fill="#191970" stroke="#191970" points="662.451,-68.0823 663.7397,-57.5661 656.1743,-64.9833 662.451,-68.0823"/>
</g>
</g>
</svg>
