<?xml version="1.0" encoding="UTF-8" standalone="no"?>
<!DOCTYPE svg PUBLIC "-//W3C//DTD SVG 1.1//EN"
 "http://www.w3.org/Graphics/SVG/1.1/DTD/svg11.dtd">
<!-- Generated by graphviz version 2.40.1 (20161225.0304)
 -->
<!-- Title: omc_NFSCodeEnv_printExtendsStr Pages: 1 -->
<svg width="305pt" height="66pt"
 viewBox="0.00 0.00 305.00 66.00" xmlns="http://www.w3.org/2000/svg" xmlns:xlink="http://www.w3.org/1999/xlink">
<g id="graph0" class="graph" transform="scale(1 1) rotate(0) translate(4 62)">
<title>omc_NFSCodeEnv_printExtendsStr</title>
<polygon fill="#ffffff" stroke="transparent" points="-4,4 -4,-62 301,-62 301,4 -4,4"/>
<!-- Node1697 -->
<g id="node1" class="node">
<title>Node1697</title>
<polygon fill="#bfbfbf" stroke="#000000" points="0,-19.5 0,-38.5 174,-38.5 174,-19.5 0,-19.5"/>
<text text-anchor="middle" x="87" y="-26.5" font-family="Helvetica,sans-Serif" font-size="10.00" fill="#000000">omc_NFSCodeEnv_printExtendsStr</text>
</g>
<!-- Node1698 -->
<g id="node2" class="node">
<title>Node1698</title>
<g id="a_node2"><a xlink:href="../../d2/d57/build_2include_2omc_2c_2meta_2meta__modelica__builtin_8h.html#a6f570947bebe207c25a64ea25f5ca884" target="_top" xlink:title="stringDelimitList">
<polygon fill="#ffffff" stroke="#000000" points="210,-38.5 210,-57.5 297,-57.5 297,-38.5 210,-38.5"/>
<text text-anchor="middle" x="253.5" y="-45.5" font-family="Helvetica,sans-Serif" font-size="10.00" fill="#000000">stringDelimitList</text>
</a>
</g>
</g>
<!-- Node1697&#45;&gt;Node1698 -->
<g id="edge1" class="edge">
<title>Node1697&#45;&gt;Node1698</title>
<path fill="none" stroke="#191970" d="M170.7378,-38.5557C180.5047,-39.6702 190.2627,-40.7837 199.474,-41.8349"/>
<polygon fill="#191970" stroke="#191970" points="199.2805,-45.3354 209.6129,-42.9919 200.0742,-38.3806 199.2805,-45.3354"/>
</g>
<!-- Node1699 -->
<g id="node3" class="node">
<title>Node1699</title>
<g id="a_node3"><a xlink:href="../../da/d72/_compiler_2boot_2build_2list_8c.html#a70628b2c3fb199a118f80777135940ee" target="_top" xlink:title="omc_List_map">
<polygon fill="#ffffff" stroke="#000000" points="213.5,-.5 213.5,-19.5 293.5,-19.5 293.5,-.5 213.5,-.5"/>
<text text-anchor="middle" x="253.5" y="-7.5" font-family="Helvetica,sans-Serif" font-size="10.00" fill="#000000">omc_List_map</text>
</a>
</g>
</g>
<!-- Node1697&#45;&gt;Node1699 -->
<g id="edge2" class="edge">
<title>Node1697&#45;&gt;Node1699</title>
<path fill="none" stroke="#191970" d="M170.7378,-19.4443C181.913,-18.1691 193.0766,-16.8952 203.4228,-15.7145"/>
<polygon fill="#191970" stroke="#191970" points="203.9282,-19.1797 213.4668,-14.5683 203.1345,-12.2248 203.9282,-19.1797"/>
</g>
</g>
</svg>
