<?xml version="1.0" encoding="UTF-8" standalone="no"?>
<!DOCTYPE svg PUBLIC "-//W3C//DTD SVG 1.1//EN"
 "http://www.w3.org/Graphics/SVG/1.1/DTD/svg11.dtd">
<!-- Generated by graphviz version 2.40.1 (20161225.0304)
 -->
<!-- Title: omc_NFSCodeEnv_resolveRedeclaredItem Pages: 1 -->
<svg width="2461pt" height="566pt"
 viewBox="0.00 0.00 2461.00 566.00" xmlns="http://www.w3.org/2000/svg" xmlns:xlink="http://www.w3.org/1999/xlink">
<g id="graph0" class="graph" transform="scale(1 1) rotate(0) translate(4 562)">
<title>omc_NFSCodeEnv_resolveRedeclaredItem</title>
<polygon fill="#ffffff" stroke="transparent" points="-4,4 -4,-562 2457,-562 2457,4 -4,4"/>
<!-- Node1867 -->
<g id="node1" class="node">
<title>Node1867</title>
<polygon fill="#bfbfbf" stroke="#000000" points="0,-411 0,-430 207,-430 207,-411 0,-411"/>
<text text-anchor="middle" x="103.5" y="-418" font-family="Helvetica,sans-Serif" font-size="10.00" fill="#000000">omc_NFSCodeEnv_resolveRedeclaredItem</text>
</g>
<!-- Node1868 -->
<g id="node2" class="node">
<title>Node1868</title>
<g id="a_node2"><a xlink:href="../../d5/df9/_n_f_s_code_dependency_8c.html#a462dc4ec3f1d0a50951d27e67eec081d" target="_top" xlink:title="omc_NFSCodeDependency\l_lookupNameMod">
<polygon fill="#ffffff" stroke="#000000" points="243,-454.5 243,-484.5 382,-484.5 382,-454.5 243,-454.5"/>
<text text-anchor="start" x="251" y="-472.5" font-family="Helvetica,sans-Serif" font-size="10.00" fill="#000000">omc_NFSCodeDependency</text>
<text text-anchor="middle" x="312.5" y="-461.5" font-family="Helvetica,sans-Serif" font-size="10.00" fill="#000000">_lookupNameMod</text>
</a>
</g>
</g>
<!-- Node1867&#45;&gt;Node1868 -->
<g id="edge1" class="edge">
<title>Node1867&#45;&gt;Node1868</title>
<path fill="none" stroke="#191970" d="M154.3714,-432.4268C182.6728,-439.062 218.173,-447.3851 248.3627,-454.463"/>
<polygon fill="#191970" stroke="#191970" points="154.8284,-428.9391 144.2935,-430.064 153.2305,-435.7543 154.8284,-428.9391"/>
</g>
<!-- Node1869 -->
<g id="node3" class="node">
<title>Node1869</title>
<g id="a_node3"><a xlink:href="../../d5/df9/_n_f_s_code_dependency_8c.html#ab398d9ee0809294e73a94bc2a35580db" target="_top" xlink:title="omc_NFSCodeDependency\l_analyseClassDef">
<polygon fill="#ffffff" stroke="#000000" points="776,-314.5 776,-344.5 915,-344.5 915,-314.5 776,-314.5"/>
<text text-anchor="start" x="784" y="-332.5" font-family="Helvetica,sans-Serif" font-size="10.00" fill="#000000">omc_NFSCodeDependency</text>
<text text-anchor="middle" x="845.5" y="-321.5" font-family="Helvetica,sans-Serif" font-size="10.00" fill="#000000">_analyseClassDef</text>
</a>
</g>
</g>
<!-- Node1867&#45;&gt;Node1869 -->
<g id="edge2" class="edge">
<title>Node1867&#45;&gt;Node1869</title>
<path fill="none" stroke="#191970" d="M130.732,-406.1824C184.0696,-379.0419 306.8146,-320.9914 418,-300.5 543.2818,-277.4107 692.2513,-298.1895 777.1549,-314.4779"/>
<polygon fill="#191970" stroke="#191970" points="128.8944,-403.1916 121.5989,-410.8745 132.0931,-409.418 128.8944,-403.1916"/>
</g>
<!-- Node1881 -->
<g id="node15" class="node">
<title>Node1881</title>
<g id="a_node15"><a xlink:href="../../d5/df9/_n_f_s_code_dependency_8c.html#a1e3226282fe02b051a1d22308a20efd5" target="_top" xlink:title="omc_NFSCodeDependency\l_lookupClass">
<polygon fill="#ffffff" stroke="#000000" points="243,-405.5 243,-435.5 382,-435.5 382,-405.5 243,-405.5"/>
<text text-anchor="start" x="251" y="-423.5" font-family="Helvetica,sans-Serif" font-size="10.00" fill="#000000">omc_NFSCodeDependency</text>
<text text-anchor="middle" x="312.5" y="-412.5" font-family="Helvetica,sans-Serif" font-size="10.00" fill="#000000">_lookupClass</text>
</a>
</g>
</g>
<!-- Node1867&#45;&gt;Node1881 -->
<g id="edge14" class="edge">
<title>Node1867&#45;&gt;Node1881</title>
<path fill="none" stroke="#191970" d="M217.2906,-420.5C225.9658,-420.5 234.555,-420.5 242.8164,-420.5"/>
<polygon fill="#191970" stroke="#191970" points="217.0816,-417.0001 207.0816,-420.5 217.0815,-424.0001 217.0816,-417.0001"/>
</g>
<!-- Node1870 -->
<g id="node4" class="node">
<title>Node1870</title>
<g id="a_node4"><a xlink:href="../../d5/df9/_n_f_s_code_dependency_8c.html#ade8d1a183e076b6edfd18892f3e871d8" target="_top" xlink:title="omc_NFSCodeDependency\l_analyseRedeclareModifier">
<polygon fill="#ffffff" stroke="#000000" points="955,-401.5 955,-431.5 1094,-431.5 1094,-401.5 955,-401.5"/>
<text text-anchor="start" x="963" y="-419.5" font-family="Helvetica,sans-Serif" font-size="10.00" fill="#000000">omc_NFSCodeDependency</text>
<text text-anchor="middle" x="1024.5" y="-408.5" font-family="Helvetica,sans-Serif" font-size="10.00" fill="#000000">_analyseRedeclareModifier</text>
</a>
</g>
</g>
<!-- Node1869&#45;&gt;Node1870 -->
<g id="edge3" class="edge">
<title>Node1869&#45;&gt;Node1870</title>
<path fill="none" stroke="#191970" d="M875.9529,-350.163C896.5124,-363.4833 924.6128,-380.4949 951,-392.5 958.0867,-395.7241 965.735,-398.7193 973.3267,-401.4237"/>
<polygon fill="#191970" stroke="#191970" points="877.6322,-347.0788 867.3509,-344.5202 873.7926,-352.9318 877.6322,-347.0788"/>
</g>
<!-- Node1871 -->
<g id="node5" class="node">
<title>Node1871</title>
<g id="a_node5"><a xlink:href="../../d5/df9/_n_f_s_code_dependency_8c.html#a765ae5eea93d75380349b9c322acf2bd" target="_top" xlink:title="boxptr_NFSCodeDependency\l_analyseClassDef">
<polygon fill="#ffffff" stroke="#000000" points="951,-352.5 951,-382.5 1098,-382.5 1098,-352.5 951,-352.5"/>
<text text-anchor="start" x="959" y="-370.5" font-family="Helvetica,sans-Serif" font-size="10.00" fill="#000000">boxptr_NFSCodeDependency</text>
<text text-anchor="middle" x="1024.5" y="-359.5" font-family="Helvetica,sans-Serif" font-size="10.00" fill="#000000">_analyseClassDef</text>
</a>
</g>
</g>
<!-- Node1869&#45;&gt;Node1871 -->
<g id="edge4" class="edge">
<title>Node1869&#45;&gt;Node1871</title>
<path fill="none" stroke="#191970" d="M925.1052,-346.3994C934.663,-348.4285 944.3732,-350.4898 953.7926,-352.4895"/>
<polygon fill="#191970" stroke="#191970" points="925.7275,-342.9536 915.2186,-344.3006 924.2738,-349.801 925.7275,-342.9536"/>
</g>
<!-- Node1872 -->
<g id="node6" class="node">
<title>Node1872</title>
<g id="a_node6"><a xlink:href="../../d5/df9/_n_f_s_code_dependency_8c.html#aa92a7763c12fb7fb0d2ed5618f633c16" target="_top" xlink:title="omc_NFSCodeDependency\l_analyseItemNoStopOnUsed">
<polygon fill="#ffffff" stroke="#000000" points="952.5,-254.5 952.5,-284.5 1096.5,-284.5 1096.5,-254.5 952.5,-254.5"/>
<text text-anchor="start" x="960.5" y="-272.5" font-family="Helvetica,sans-Serif" font-size="10.00" fill="#000000">omc_NFSCodeDependency</text>
<text text-anchor="middle" x="1024.5" y="-261.5" font-family="Helvetica,sans-Serif" font-size="10.00" fill="#000000">_analyseItemNoStopOnUsed</text>
</a>
</g>
</g>
<!-- Node1869&#45;&gt;Node1872 -->
<g id="edge5" class="edge">
<title>Node1869&#45;&gt;Node1872</title>
<path fill="none" stroke="#191970" d="M900.1869,-311.1692C925.6448,-302.6358 955.5545,-292.6102 979.6556,-284.5317"/>
<polygon fill="#191970" stroke="#191970" points="899.0384,-307.8627 890.6693,-314.3595 901.2632,-314.4998 899.0384,-307.8627"/>
</g>
<!-- Node1874 -->
<g id="node8" class="node">
<title>Node1874</title>
<g id="a_node8"><a xlink:href="../../d5/df9/_n_f_s_code_dependency_8c.html#acc44adcc8f20521e062de220320d3a7f" target="_top" xlink:title="omc_NFSCodeDependency\l_analyseItem">
<polygon fill="#ffffff" stroke="#000000" points="955,-303.5 955,-333.5 1094,-333.5 1094,-303.5 955,-303.5"/>
<text text-anchor="start" x="963" y="-321.5" font-family="Helvetica,sans-Serif" font-size="10.00" fill="#000000">omc_NFSCodeDependency</text>
<text text-anchor="middle" x="1024.5" y="-310.5" font-family="Helvetica,sans-Serif" font-size="10.00" fill="#000000">_analyseItem</text>
</a>
</g>
</g>
<!-- Node1869&#45;&gt;Node1874 -->
<g id="edge7" class="edge">
<title>Node1869&#45;&gt;Node1874</title>
<path fill="none" stroke="#191970" d="M925.4141,-324.5891C935.2716,-323.9833 945.286,-323.3679 954.9717,-322.7727"/>
<polygon fill="#191970" stroke="#191970" points="924.9851,-321.1087 915.2186,-325.2156 925.4145,-328.0956 924.9851,-321.1087"/>
</g>
<!-- Node1873 -->
<g id="node7" class="node">
<title>Node1873</title>
<g id="a_node7"><a xlink:href="../../d5/df9/_n_f_s_code_dependency_8c.html#ad3429d01a4841e3e9c4ffb89b44177f7" target="_top" xlink:title="omc_NFSCodeDependency\l_analyseItemIfRedeclares">
<polygon fill="#ffffff" stroke="#000000" points="1134,-254.5 1134,-284.5 1273,-284.5 1273,-254.5 1134,-254.5"/>
<text text-anchor="start" x="1142" y="-272.5" font-family="Helvetica,sans-Serif" font-size="10.00" fill="#000000">omc_NFSCodeDependency</text>
<text text-anchor="middle" x="1203.5" y="-261.5" font-family="Helvetica,sans-Serif" font-size="10.00" fill="#000000">_analyseItemIfRedeclares</text>
</a>
</g>
</g>
<!-- Node1872&#45;&gt;Node1873 -->
<g id="edge6" class="edge">
<title>Node1872&#45;&gt;Node1873</title>
<path fill="none" stroke="#191970" d="M1106.7363,-269.5C1115.8299,-269.5 1125.0241,-269.5 1133.9401,-269.5"/>
<polygon fill="#191970" stroke="#191970" points="1106.5324,-266.0001 1096.5324,-269.5 1106.5324,-273.0001 1106.5324,-266.0001"/>
</g>
<!-- Node1875 -->
<g id="node9" class="node">
<title>Node1875</title>
<g id="a_node9"><a xlink:href="../../d5/df9/_n_f_s_code_dependency_8c.html#a584d51a38d4b8287c56ca21448b7d538" target="_top" xlink:title="omc_NFSCodeDependency\l_analyseCref">
<polygon fill="#ffffff" stroke="#000000" points="1134,-474.5 1134,-504.5 1273,-504.5 1273,-474.5 1134,-474.5"/>
<text text-anchor="start" x="1142" y="-492.5" font-family="Helvetica,sans-Serif" font-size="10.00" fill="#000000">omc_NFSCodeDependency</text>
<text text-anchor="middle" x="1203.5" y="-481.5" font-family="Helvetica,sans-Serif" font-size="10.00" fill="#000000">_analyseCref</text>
</a>
</g>
</g>
<!-- Node1874&#45;&gt;Node1875 -->
<g id="edge8" class="edge">
<title>Node1874&#45;&gt;Node1875</title>
<path fill="none" stroke="#191970" d="M1093.5136,-339.4101C1095.0857,-340.6931 1096.5862,-342.0548 1098,-343.5 1135.1555,-381.4813 1098.8616,-417.6452 1134,-457.5 1140.1494,-464.4747 1148.1322,-470.0277 1156.486,-474.415"/>
<polygon fill="#191970" stroke="#191970" points="1095.3455,-336.4219 1085.1254,-333.6287 1091.373,-342.1855 1095.3455,-336.4219"/>
</g>
<!-- Node1878 -->
<g id="node12" class="node">
<title>Node1878</title>
<g id="a_node12"><a xlink:href="../../d5/df9/_n_f_s_code_dependency_8c.html#a1dfbf520d29af668f10ee71c266d6a2d" target="_top" xlink:title="omc_NFSCodeDependency\l_analyseNameMod2">
<polygon fill="#ffffff" stroke="#000000" points="1134,-352.5 1134,-382.5 1273,-382.5 1273,-352.5 1134,-352.5"/>
<text text-anchor="start" x="1142" y="-370.5" font-family="Helvetica,sans-Serif" font-size="10.00" fill="#000000">omc_NFSCodeDependency</text>
<text text-anchor="middle" x="1203.5" y="-359.5" font-family="Helvetica,sans-Serif" font-size="10.00" fill="#000000">_analyseNameMod2</text>
</a>
</g>
</g>
<!-- Node1874&#45;&gt;Node1878 -->
<g id="edge11" class="edge">
<title>Node1874&#45;&gt;Node1878</title>
<path fill="none" stroke="#191970" d="M1089.3362,-336.2485C1108.7363,-341.5591 1129.8133,-347.3288 1148.5157,-352.4484"/>
<polygon fill="#191970" stroke="#191970" points="1090.2358,-332.866 1079.6665,-333.6014 1088.3875,-339.6176 1090.2358,-332.866"/>
</g>
<!-- Node1879 -->
<g id="node13" class="node">
<title>Node1879</title>
<g id="a_node13"><a xlink:href="../../d5/df9/_n_f_s_code_dependency_8c.html#ab76ae7c99d362fac41f0f20beaa1843c" target="_top" xlink:title="omc_NFSCodeDependency\l_analyseExtends">
<polygon fill="#ffffff" stroke="#000000" points="1134,-417.5 1134,-447.5 1273,-447.5 1273,-417.5 1134,-417.5"/>
<text text-anchor="start" x="1142" y="-435.5" font-family="Helvetica,sans-Serif" font-size="10.00" fill="#000000">omc_NFSCodeDependency</text>
<text text-anchor="middle" x="1203.5" y="-424.5" font-family="Helvetica,sans-Serif" font-size="10.00" fill="#000000">_analyseExtends</text>
</a>
</g>
</g>
<!-- Node1874&#45;&gt;Node1879 -->
<g id="edge12" class="edge">
<title>Node1874&#45;&gt;Node1879</title>
<path fill="none" stroke="#191970" d="M1090.0236,-338.3248C1092.7979,-339.9252 1095.4725,-341.6474 1098,-343.5 1119.7957,-359.4756 1113.8574,-374.4848 1134,-392.5 1144.8957,-402.2449 1158.5454,-410.725 1170.8569,-417.3386"/>
<polygon fill="#191970" stroke="#191970" points="1091.3758,-335.0843 1080.8829,-333.6183 1088.1713,-341.3078 1091.3758,-335.0843"/>
</g>
<!-- Node1880 -->
<g id="node14" class="node">
<title>Node1880</title>
<g id="a_node14"><a xlink:href="../../d5/df9/_n_f_s_code_dependency_8c.html#a8ddfa0bffa6b13e17c4dc0712874de5a" target="_top" xlink:title="omc_NFSCodeDependency\l_analyseRedeclaredClass2">
<polygon fill="#ffffff" stroke="#000000" points="1134,-303.5 1134,-333.5 1273,-333.5 1273,-303.5 1134,-303.5"/>
<text text-anchor="start" x="1142" y="-321.5" font-family="Helvetica,sans-Serif" font-size="10.00" fill="#000000">omc_NFSCodeDependency</text>
<text text-anchor="middle" x="1203.5" y="-310.5" font-family="Helvetica,sans-Serif" font-size="10.00" fill="#000000">_analyseRedeclaredClass2</text>
</a>
</g>
</g>
<!-- Node1874&#45;&gt;Node1880 -->
<g id="edge13" class="edge">
<title>Node1874&#45;&gt;Node1880</title>
<path fill="none" stroke="#191970" d="M1104.4141,-318.5C1114.2716,-318.5 1124.286,-318.5 1133.9717,-318.5"/>
<polygon fill="#191970" stroke="#191970" points="1104.2187,-315.0001 1094.2186,-318.5 1104.2186,-322.0001 1104.2187,-315.0001"/>
</g>
<!-- Node1876 -->
<g id="node10" class="node">
<title>Node1876</title>
<g id="a_node10"><a xlink:href="../../d5/df9/_n_f_s_code_dependency_8c.html#a0ea033376ff941f35841e21005f16ec5" target="_top" xlink:title="omc_NFSCodeDependency\l_analyseExp2">
<polygon fill="#ffffff" stroke="#000000" points="1310,-474.5 1310,-504.5 1449,-504.5 1449,-474.5 1310,-474.5"/>
<text text-anchor="start" x="1318" y="-492.5" font-family="Helvetica,sans-Serif" font-size="10.00" fill="#000000">omc_NFSCodeDependency</text>
<text text-anchor="middle" x="1379.5" y="-481.5" font-family="Helvetica,sans-Serif" font-size="10.00" fill="#000000">_analyseExp2</text>
</a>
</g>
</g>
<!-- Node1875&#45;&gt;Node1876 -->
<g id="edge9" class="edge">
<title>Node1875&#45;&gt;Node1876</title>
<path fill="none" stroke="#191970" d="M1283.0805,-489.5C1292.0175,-489.5 1301.0715,-489.5 1309.8691,-489.5"/>
<polygon fill="#191970" stroke="#191970" points="1283.0599,-486.0001 1273.0599,-489.5 1283.0598,-493.0001 1283.0599,-486.0001"/>
</g>
<!-- Node1877 -->
<g id="node11" class="node">
<title>Node1877</title>
<g id="a_node11"><a xlink:href="../../d5/df9/_n_f_s_code_dependency_8c.html#af34b796f8d264e2ad1733fc6aed6de42" target="_top" xlink:title="omc_NFSCodeDependency\l_analyseExpTraverserEnter">
<polygon fill="#ffffff" stroke="#000000" points="1494.5,-474.5 1494.5,-504.5 1633.5,-504.5 1633.5,-474.5 1494.5,-474.5"/>
<text text-anchor="start" x="1502.5" y="-492.5" font-family="Helvetica,sans-Serif" font-size="10.00" fill="#000000">omc_NFSCodeDependency</text>
<text text-anchor="middle" x="1564" y="-481.5" font-family="Helvetica,sans-Serif" font-size="10.00" fill="#000000">_analyseExpTraverserEnter</text>
</a>
</g>
</g>
<!-- Node1876&#45;&gt;Node1877 -->
<g id="edge10" class="edge">
<title>Node1876&#45;&gt;Node1877</title>
<path fill="none" stroke="#191970" d="M1459.416,-489.5C1471.0828,-489.5 1483.0177,-489.5 1494.4559,-489.5"/>
<polygon fill="#191970" stroke="#191970" points="1459.2516,-486.0001 1449.2515,-489.5 1459.2515,-493.0001 1459.2516,-486.0001"/>
</g>
<!-- Node1881&#45;&gt;Node1875 -->
<g id="edge15" class="edge">
<title>Node1881&#45;&gt;Node1875</title>
<path fill="none" stroke="#191970" d="M364.926,-439.0447C370.7025,-441.1811 376.4858,-443.361 382,-445.5 398.1601,-451.7687 401.3043,-455.8419 418,-460.5 527.3112,-490.998 557.014,-498.5 670.5,-498.5 670.5,-498.5 670.5,-498.5 845.5,-498.5 945.753,-498.5 1061.7481,-494.9292 1133.8783,-492.286"/>
<polygon fill="#191970" stroke="#191970" points="365.8535,-435.6571 355.2597,-435.505 363.4464,-442.2302 365.8535,-435.6571"/>
</g>
<!-- Node1881&#45;&gt;Node1879 -->
<g id="edge18" class="edge">
<title>Node1881&#45;&gt;Node1879</title>
<path fill="none" stroke="#191970" d="M392.1701,-434.5423C464.5321,-446.0686 574.3345,-460.5 670.5,-460.5 670.5,-460.5 670.5,-460.5 845.5,-460.5 946.0274,-460.5 1061.9512,-449.3909 1133.991,-441.1676"/>
<polygon fill="#191970" stroke="#191970" points="392.643,-431.0734 382.2134,-432.937 391.5287,-437.9842 392.643,-431.0734"/>
</g>
<!-- Node1882 -->
<g id="node16" class="node">
<title>Node1882</title>
<g id="a_node16"><a xlink:href="../../d5/df9/_n_f_s_code_dependency_8c.html#a62968089ba6feab30d0dfbdf15e09606" target="_top" xlink:title="omc_NFSCodeDependency\l_analyseConstrainClass">
<polygon fill="#ffffff" stroke="#000000" points="601,-401.5 601,-431.5 740,-431.5 740,-401.5 601,-401.5"/>
<text text-anchor="start" x="609" y="-419.5" font-family="Helvetica,sans-Serif" font-size="10.00" fill="#000000">omc_NFSCodeDependency</text>
<text text-anchor="middle" x="670.5" y="-408.5" font-family="Helvetica,sans-Serif" font-size="10.00" fill="#000000">_analyseConstrainClass</text>
</a>
</g>
</g>
<!-- Node1881&#45;&gt;Node1882 -->
<g id="edge16" class="edge">
<title>Node1881&#45;&gt;Node1882</title>
<path fill="none" stroke="#191970" d="M392.5907,-419.6051C455.1116,-418.9066 541.0981,-417.9458 600.8004,-417.2788"/>
<polygon fill="#191970" stroke="#191970" points="392.3361,-416.1077 382.3759,-419.7193 392.4144,-423.1072 392.3361,-416.1077"/>
</g>
<!-- Node1883 -->
<g id="node17" class="node">
<title>Node1883</title>
<g id="a_node17"><a xlink:href="../../d5/df9/_n_f_s_code_dependency_8c.html#a362e90240879ae667b72b82b016bb6d0" target="_top" xlink:title="omc_NFSCodeDependency\l_lookupNameInItem">
<polygon fill="#ffffff" stroke="#000000" points="422,-361.5 422,-391.5 561,-391.5 561,-361.5 422,-361.5"/>
<text text-anchor="start" x="430" y="-379.5" font-family="Helvetica,sans-Serif" font-size="10.00" fill="#000000">omc_NFSCodeDependency</text>
<text text-anchor="middle" x="491.5" y="-368.5" font-family="Helvetica,sans-Serif" font-size="10.00" fill="#000000">_lookupNameInItem</text>
</a>
</g>
</g>
<!-- Node1881&#45;&gt;Node1883 -->
<g id="edge19" class="edge">
<title>Node1881&#45;&gt;Node1883</title>
<path fill="none" stroke="#191970" d="M383.634,-403.0145C399.1005,-399.2127 415.3316,-395.223 430.3707,-391.5262"/>
<polygon fill="#191970" stroke="#191970" points="382.4764,-399.6948 373.601,-405.4808 384.1474,-406.4925 382.4764,-399.6948"/>
</g>
<!-- Node1884 -->
<g id="node18" class="node">
<title>Node1884</title>
<g id="a_node18"><a xlink:href="../../d5/df9/_n_f_s_code_dependency_8c.html#a1fffa6357b8e1256c70d8aa19e04c4c7" target="_top" xlink:title="boxptr_NFSCodeDependency\l_lookupClass">
<polygon fill="#ffffff" stroke="#000000" points="418,-527.5 418,-557.5 565,-557.5 565,-527.5 418,-527.5"/>
<text text-anchor="start" x="426" y="-545.5" font-family="Helvetica,sans-Serif" font-size="10.00" fill="#000000">boxptr_NFSCodeDependency</text>
<text text-anchor="middle" x="491.5" y="-534.5" font-family="Helvetica,sans-Serif" font-size="10.00" fill="#000000">_lookupClass</text>
</a>
</g>
</g>
<!-- Node1881&#45;&gt;Node1884 -->
<g id="edge20" class="edge">
<title>Node1881&#45;&gt;Node1884</title>
<path fill="none" stroke="#191970" d="M375.8012,-440.7691C377.9689,-442.2402 380.0455,-443.8149 382,-445.5 407.6021,-467.5737 392.8695,-489.8908 418,-512.5 424.6599,-518.4918 432.6763,-523.3749 440.9309,-527.3261"/>
<polygon fill="#191970" stroke="#191970" points="377.4444,-437.6745 367.0561,-435.593 373.879,-443.6985 377.4444,-437.6745"/>
</g>
<!-- Node1885 -->
<g id="node19" class="node">
<title>Node1885</title>
<g id="a_node19"><a xlink:href="../../d5/df9/_n_f_s_code_dependency_8c.html#ab4bdd49754c1763b078d828448bb3cf0" target="_top" xlink:title="omc_NFSCodeDependency\l_analyseClass">
<polygon fill="#ffffff" stroke="#000000" points="422,-309.5 422,-339.5 561,-339.5 561,-309.5 422,-309.5"/>
<text text-anchor="start" x="430" y="-327.5" font-family="Helvetica,sans-Serif" font-size="10.00" fill="#000000">omc_NFSCodeDependency</text>
<text text-anchor="middle" x="491.5" y="-316.5" font-family="Helvetica,sans-Serif" font-size="10.00" fill="#000000">_analyseClass</text>
</a>
</g>
</g>
<!-- Node1881&#45;&gt;Node1885 -->
<g id="edge21" class="edge">
<title>Node1881&#45;&gt;Node1885</title>
<path fill="none" stroke="#191970" d="M341.474,-399.4773C362.1391,-385.0771 390.9467,-366.1829 418,-352.5 427.2607,-347.8162 437.5007,-343.4456 447.3225,-339.6151"/>
<polygon fill="#191970" stroke="#191970" points="339.304,-396.7246 333.1449,-405.3453 343.3356,-402.4471 339.304,-396.7246"/>
</g>
<!-- Node1882&#45;&gt;Node1870 -->
<g id="edge17" class="edge">
<title>Node1882&#45;&gt;Node1870</title>
<path fill="none" stroke="#191970" d="M750.0728,-416.5C811.6055,-416.5 895.9565,-416.5 954.8403,-416.5"/>
<polygon fill="#191970" stroke="#191970" points="750.0167,-413.0001 740.0166,-416.5 750.0166,-420.0001 750.0167,-413.0001"/>
</g>
<!-- Node1885&#45;&gt;Node1869 -->
<g id="edge28" class="edge">
<title>Node1885&#45;&gt;Node1869</title>
<path fill="none" stroke="#191970" d="M571.0728,-325.6239C632.6055,-326.493 716.9565,-327.6844 775.8403,-328.5161"/>
<polygon fill="#191970" stroke="#191970" points="571.0651,-322.1235 561.0166,-325.4819 570.9662,-329.1229 571.0651,-322.1235"/>
</g>
<!-- Node1885&#45;&gt;Node1882 -->
<g id="edge24" class="edge">
<title>Node1885&#45;&gt;Node1882</title>
<path fill="none" stroke="#191970" d="M550.3193,-343.9479C555.4505,-346.5169 560.4247,-349.3633 565,-352.5 584.7268,-366.0242 581.0628,-379.2879 601,-392.5 606.1076,-395.8847 611.7431,-398.8439 617.5292,-401.4182"/>
<polygon fill="#191970" stroke="#191970" points="551.5112,-340.6429 540.9659,-339.6201 548.5717,-346.9958 551.5112,-340.6429"/>
</g>
<!-- Node1886 -->
<g id="node20" class="node">
<title>Node1886</title>
<g id="a_node20"><a xlink:href="../../d5/df9/_n_f_s_code_dependency_8c.html#a9ce7c8623441db25e93b217555c9f32b" target="_top" xlink:title="omc_NFSCodeDependency\l_analyseTypeSpec">
<polygon fill="#ffffff" stroke="#000000" points="601,-352.5 601,-382.5 740,-382.5 740,-352.5 601,-352.5"/>
<text text-anchor="start" x="609" y="-370.5" font-family="Helvetica,sans-Serif" font-size="10.00" fill="#000000">omc_NFSCodeDependency</text>
<text text-anchor="middle" x="670.5" y="-359.5" font-family="Helvetica,sans-Serif" font-size="10.00" fill="#000000">_analyseTypeSpec</text>
</a>
</g>
</g>
<!-- Node1885&#45;&gt;Node1886 -->
<g id="edge22" class="edge">
<title>Node1885&#45;&gt;Node1886</title>
<path fill="none" stroke="#191970" d="M564.0549,-341.9294C578.5979,-345.4229 593.7604,-349.0653 607.9298,-352.4692"/>
<polygon fill="#191970" stroke="#191970" points="564.6464,-338.472 554.1055,-339.5393 563.0113,-345.2784 564.6464,-338.472"/>
</g>
<!-- Node1887 -->
<g id="node21" class="node">
<title>Node1887</title>
<g id="a_node21"><a xlink:href="../../d5/df9/_n_f_s_code_dependency_8c.html#a0a19995e9cdcec26fc5f006421812f27" target="_top" xlink:title="omc_NFSCodeDependency\l_analyseMetaType">
<polygon fill="#ffffff" stroke="#000000" points="776,-265.5 776,-295.5 915,-295.5 915,-265.5 776,-265.5"/>
<text text-anchor="start" x="784" y="-283.5" font-family="Helvetica,sans-Serif" font-size="10.00" fill="#000000">omc_NFSCodeDependency</text>
<text text-anchor="middle" x="845.5" y="-272.5" font-family="Helvetica,sans-Serif" font-size="10.00" fill="#000000">_analyseMetaType</text>
</a>
</g>
</g>
<!-- Node1885&#45;&gt;Node1887 -->
<g id="edge25" class="edge">
<title>Node1885&#45;&gt;Node1887</title>
<path fill="none" stroke="#191970" d="M571.0728,-314.6096C632.6055,-306.9615 716.9565,-296.4772 775.8403,-289.1583"/>
<polygon fill="#191970" stroke="#191970" points="570.5085,-311.1527 561.0166,-315.8595 571.372,-318.0993 570.5085,-311.1527"/>
</g>
<!-- Node1888 -->
<g id="node22" class="node">
<title>Node1888</title>
<g id="a_node22"><a xlink:href="../../d2/d00/_n_f_s_code_dependency_8h.html#a2034e0f4c7461499d70bef0cd9519a14" target="_top" xlink:title="omc_NFSCodeDependency\l_analyse">
<polygon fill="#ffffff" stroke="#000000" points="601,-175.5 601,-205.5 740,-205.5 740,-175.5 601,-175.5"/>
<text text-anchor="start" x="609" y="-193.5" font-family="Helvetica,sans-Serif" font-size="10.00" fill="#000000">omc_NFSCodeDependency</text>
<text text-anchor="middle" x="670.5" y="-182.5" font-family="Helvetica,sans-Serif" font-size="10.00" fill="#000000">_analyse</text>
</a>
</g>
</g>
<!-- Node1885&#45;&gt;Node1888 -->
<g id="edge29" class="edge">
<title>Node1885&#45;&gt;Node1888</title>
<path fill="none" stroke="#191970" d="M519.9157,-303.2279C556.3234,-275.973 618.5234,-229.4098 650.3881,-205.5558"/>
<polygon fill="#191970" stroke="#191970" points="517.5935,-300.5942 511.6856,-309.389 521.7885,-306.198 517.5935,-300.5942"/>
</g>
<!-- Node1886&#45;&gt;Node1869 -->
<g id="edge23" class="edge">
<title>Node1886&#45;&gt;Node1869</title>
<path fill="none" stroke="#191970" d="M749.6283,-350.3178C758.5146,-348.3883 767.5171,-346.4334 776.2647,-344.534"/>
<polygon fill="#191970" stroke="#191970" points="748.6942,-346.939 739.6646,-352.4814 750.1796,-353.7796 748.6942,-346.939"/>
</g>
<!-- Node1887&#45;&gt;Node1872 -->
<g id="edge26" class="edge">
<title>Node1887&#45;&gt;Node1872</title>
<path fill="none" stroke="#191970" d="M925.2994,-275.5961C934.2953,-275.0433 943.4234,-274.4824 952.3145,-273.936"/>
<polygon fill="#191970" stroke="#191970" points="924.9851,-272.1087 915.2186,-276.2156 925.4145,-279.0956 924.9851,-272.1087"/>
</g>
<!-- Node1887&#45;&gt;Node1874 -->
<g id="edge27" class="edge">
<title>Node1887&#45;&gt;Node1874</title>
<path fill="none" stroke="#191970" d="M925.1028,-297.3989C935.0607,-299.5129 945.1841,-301.662 954.9717,-303.7398"/>
<polygon fill="#191970" stroke="#191970" points="925.7275,-293.9536 915.2186,-295.3006 924.2738,-300.801 925.7275,-293.9536"/>
</g>
<!-- Node1889 -->
<g id="node23" class="node">
<title>Node1889</title>
<g id="a_node23"><a xlink:href="../../d2/dfb/_n_f_s_code_flatten_8h.html#a14db34e85c0d1c5aa9075b2a7d83fae5" target="_top" xlink:title="omc_NFSCodeFlatten\l_flattenClassInProgram">
<polygon fill="#ffffff" stroke="#000000" points="786,-154.5 786,-184.5 905,-184.5 905,-154.5 786,-154.5"/>
<text text-anchor="start" x="794" y="-172.5" font-family="Helvetica,sans-Serif" font-size="10.00" fill="#000000">omc_NFSCodeFlatten</text>
<text text-anchor="middle" x="845.5" y="-161.5" font-family="Helvetica,sans-Serif" font-size="10.00" fill="#000000">_flattenClassInProgram</text>
</a>
</g>
</g>
<!-- Node1888&#45;&gt;Node1889 -->
<g id="edge30" class="edge">
<title>Node1888&#45;&gt;Node1889</title>
<path fill="none" stroke="#191970" d="M750.2,-180.936C762.2228,-179.4933 774.4437,-178.0268 785.9448,-176.6466"/>
<polygon fill="#191970" stroke="#191970" points="749.6792,-177.4733 740.1675,-182.1399 750.5133,-184.4234 749.6792,-177.4733"/>
</g>
<!-- Node1890 -->
<g id="node24" class="node">
<title>Node1890</title>
<g id="a_node24"><a xlink:href="../../d8/de6/_ceval_script_backend_8c.html#ae10056fecdb5abd9b7d626e8b82f9255" target="_top" xlink:title="omc_CevalScriptBackend\l_saveTotalModel">
<polygon fill="#ffffff" stroke="#000000" points="959.5,-101.5 959.5,-131.5 1089.5,-131.5 1089.5,-101.5 959.5,-101.5"/>
<text text-anchor="start" x="967.5" y="-119.5" font-family="Helvetica,sans-Serif" font-size="10.00" fill="#000000">omc_CevalScriptBackend</text>
<text text-anchor="middle" x="1024.5" y="-108.5" font-family="Helvetica,sans-Serif" font-size="10.00" fill="#000000">_saveTotalModel</text>
</a>
</g>
</g>
<!-- Node1889&#45;&gt;Node1890 -->
<g id="edge31" class="edge">
<title>Node1889&#45;&gt;Node1890</title>
<path fill="none" stroke="#191970" d="M906.1773,-151.5341C928.0838,-145.0478 952.5694,-137.7979 973.5575,-131.5835"/>
<polygon fill="#191970" stroke="#191970" points="904.9102,-148.259 896.3154,-154.4541 906.8976,-154.9709 904.9102,-148.259"/>
</g>
<!-- Node1892 -->
<g id="node26" class="node">
<title>Node1892</title>
<g id="a_node26"><a xlink:href="../../da/d17/_inst_util_8h.html#a53eea4ca4a7bba0d4d120d8c26d789c8" target="_top" xlink:title="omc_InstUtil_scodeFlatten">
<polygon fill="#ffffff" stroke="#000000" points="957.5,-153 957.5,-172 1091.5,-172 1091.5,-153 957.5,-153"/>
<text text-anchor="middle" x="1024.5" y="-160" font-family="Helvetica,sans-Serif" font-size="10.00" fill="#000000">omc_InstUtil_scodeFlatten</text>
</a>
</g>
</g>
<!-- Node1889&#45;&gt;Node1892 -->
<g id="edge33" class="edge">
<title>Node1889&#45;&gt;Node1892</title>
<path fill="none" stroke="#191970" d="M915.0976,-166.7783C929.0139,-166.2341 943.6065,-165.6634 957.4353,-165.1226"/>
<polygon fill="#191970" stroke="#191970" points="914.96,-163.2809 905.1044,-167.1691 915.2336,-170.2756 914.96,-163.2809"/>
</g>
<!-- Node1910 -->
<g id="node44" class="node">
<title>Node1910</title>
<g id="a_node44"><a xlink:href="../../d2/dfb/_n_f_s_code_flatten_8h.html#a6da11d7be057f9be31c4fc3bd574ca59" target="_top" xlink:title="omc_NFSCodeFlatten\l_flattenProgram">
<polygon fill="#ffffff" stroke="#000000" points="967.5,-191.5 967.5,-221.5 1081.5,-221.5 1081.5,-191.5 967.5,-191.5"/>
<text text-anchor="start" x="975.5" y="-209.5" font-family="Helvetica,sans-Serif" font-size="10.00" fill="#000000">omc_NFSCodeFlatten</text>
<text text-anchor="middle" x="1024.5" y="-198.5" font-family="Helvetica,sans-Serif" font-size="10.00" fill="#000000">_flattenProgram</text>
</a>
</g>
</g>
<!-- Node1889&#45;&gt;Node1910 -->
<g id="edge52" class="edge">
<title>Node1889&#45;&gt;Node1910</title>
<path fill="none" stroke="#191970" d="M915.1271,-183.8922C932.3888,-187.4603 950.6892,-191.243 967.2807,-194.6725"/>
<polygon fill="#191970" stroke="#191970" points="915.6059,-180.4172 905.1044,-181.8205 914.1889,-187.2723 915.6059,-180.4172"/>
</g>
<!-- Node1891 -->
<g id="node25" class="node">
<title>Node1891</title>
<g id="a_node25"><a xlink:href="../../d8/de6/_ceval_script_backend_8c.html#a4ca4f940e2681131be84734f71151d47" target="_top" xlink:title="boxptr_CevalScriptBackend\l_saveTotalModel">
<polygon fill="#ffffff" stroke="#000000" points="1134.5,-91.5 1134.5,-121.5 1272.5,-121.5 1272.5,-91.5 1134.5,-91.5"/>
<text text-anchor="start" x="1142.5" y="-109.5" font-family="Helvetica,sans-Serif" font-size="10.00" fill="#000000">boxptr_CevalScriptBackend</text>
<text text-anchor="middle" x="1203.5" y="-98.5" font-family="Helvetica,sans-Serif" font-size="10.00" fill="#000000">_saveTotalModel</text>
</a>
</g>
</g>
<!-- Node1890&#45;&gt;Node1891 -->
<g id="edge32" class="edge">
<title>Node1890&#45;&gt;Node1891</title>
<path fill="none" stroke="#191970" d="M1099.6732,-112.3004C1111.2208,-111.6553 1123.0951,-110.9919 1134.5,-110.3548"/>
<polygon fill="#191970" stroke="#191970" points="1099.4186,-108.809 1089.6295,-112.8615 1099.8092,-115.7982 1099.4186,-108.809"/>
</g>
<!-- Node1893 -->
<g id="node27" class="node">
<title>Node1893</title>
<g id="a_node27"><a xlink:href="../../d4/d31/_f_inst_8c.html#af38c171a43a9fbdd262afe93f5228661" target="_top" xlink:title="omc_FInst_doSCodeDep">
<polygon fill="#ffffff" stroke="#000000" points="1140,-216 1140,-235 1267,-235 1267,-216 1140,-216"/>
<text text-anchor="middle" x="1203.5" y="-223" font-family="Helvetica,sans-Serif" font-size="10.00" fill="#000000">omc_FInst_doSCodeDep</text>
</a>
</g>
</g>
<!-- Node1892&#45;&gt;Node1893 -->
<g id="edge34" class="edge">
<title>Node1892&#45;&gt;Node1893</title>
<path fill="none" stroke="#191970" d="M1072.7167,-174.7195C1081.196,-177.124 1089.897,-179.7575 1098,-182.5 1127.6012,-192.5186 1160.8505,-206.5501 1181.9691,-215.8247"/>
<polygon fill="#191970" stroke="#191970" points="1073.4847,-171.3006 1062.9136,-172.0092 1071.6193,-178.0475 1073.4847,-171.3006"/>
</g>
<!-- Node1896 -->
<g id="node30" class="node">
<title>Node1896</title>
<g id="a_node30"><a xlink:href="../../dd/d26/_inst_8c.html#ac45f1464d589ff01eb68b11f77cc869d" target="_top" xlink:title="omc_Inst_instantiateClass\l__dispatch">
<polygon fill="#ffffff" stroke="#000000" points="1137,-140.5 1137,-170.5 1270,-170.5 1270,-140.5 1137,-140.5"/>
<text text-anchor="start" x="1145" y="-158.5" font-family="Helvetica,sans-Serif" font-size="10.00" fill="#000000">omc_Inst_instantiateClass</text>
<text text-anchor="middle" x="1203.5" y="-147.5" font-family="Helvetica,sans-Serif" font-size="10.00" fill="#000000">__dispatch</text>
</a>
</g>
</g>
<!-- Node1892&#45;&gt;Node1896 -->
<g id="edge38" class="edge">
<title>Node1892&#45;&gt;Node1896</title>
<path fill="none" stroke="#191970" d="M1101.8222,-159.4762C1113.4891,-159.02 1125.4374,-158.5527 1136.854,-158.1063"/>
<polygon fill="#191970" stroke="#191970" points="1101.5178,-155.9854 1091.6623,-159.8735 1101.7914,-162.98 1101.5178,-155.9854"/>
</g>
<!-- Node1894 -->
<g id="node28" class="node">
<title>Node1894</title>
<g id="a_node28"><a xlink:href="../../d4/d77/_f_inst_8h.html#aee89c3ecbf8906710dfe81b0b40b787c" target="_top" xlink:title="omc_FInst_instPath">
<polygon fill="#ffffff" stroke="#000000" points="1512,-285 1512,-304 1616,-304 1616,-285 1512,-285"/>
<text text-anchor="middle" x="1564" y="-292" font-family="Helvetica,sans-Serif" font-size="10.00" fill="#000000">omc_FInst_instPath</text>
</a>
</g>
</g>
<!-- Node1893&#45;&gt;Node1894 -->
<g id="edge35" class="edge">
<title>Node1893&#45;&gt;Node1894</title>
<path fill="none" stroke="#191970" d="M1258.0629,-237.1309C1274.426,-240.5507 1292.4279,-244.2453 1309,-247.5 1379.0137,-261.2503 1460.0812,-275.9906 1511.6761,-285.2241"/>
<polygon fill="#191970" stroke="#191970" points="1258.6194,-233.6716 1248.1138,-235.0436 1257.182,-240.5224 1258.6194,-233.6716"/>
</g>
<!-- Node1895 -->
<g id="node29" class="node">
<title>Node1895</title>
<g id="a_node29"><a xlink:href="../../d4/d77/_f_inst_8h.html#a46e92ca9947abf016abfa6398f0e0d50" target="_top" xlink:title="omc_FInst_inst">
<polygon fill="#ffffff" stroke="#000000" points="1337.5,-219 1337.5,-238 1421.5,-238 1421.5,-219 1337.5,-219"/>
<text text-anchor="middle" x="1379.5" y="-226" font-family="Helvetica,sans-Serif" font-size="10.00" fill="#000000">omc_FInst_inst</text>
</a>
</g>
</g>
<!-- Node1893&#45;&gt;Node1895 -->
<g id="edge36" class="edge">
<title>Node1893&#45;&gt;Node1895</title>
<path fill="none" stroke="#191970" d="M1277.0549,-226.7538C1297.6755,-227.1053 1319.384,-227.4753 1337.4834,-227.7838"/>
<polygon fill="#191970" stroke="#191970" points="1277.0983,-223.2541 1267.04,-226.5831 1276.9789,-230.2531 1277.0983,-223.2541"/>
</g>
<!-- Node1895&#45;&gt;Node1894 -->
<g id="edge37" class="edge">
<title>Node1895&#45;&gt;Node1894</title>
<path fill="none" stroke="#191970" d="M1420.5349,-241.4315C1430.3494,-244.9653 1440.6798,-249.059 1450,-253.5 1466.9277,-261.5659 1468.6837,-268.3062 1486,-275.5 1495.0098,-279.243 1504.9242,-282.3596 1514.575,-284.9126"/>
<polygon fill="#191970" stroke="#191970" points="1421.5439,-238.0768 1410.9491,-238.0922 1419.2411,-244.6871 1421.5439,-238.0768"/>
</g>
<!-- Node1897 -->
<g id="node31" class="node">
<title>Node1897</title>
<g id="a_node31"><a xlink:href="../../d9/d5c/_inst_8h.html#ab4fe5b96b8d26cb2baedfddd9913767d" target="_top" xlink:title="omc_Inst_instantiateClass">
<polygon fill="#ffffff" stroke="#000000" points="1313,-144 1313,-163 1446,-163 1446,-144 1313,-144"/>
<text text-anchor="middle" x="1379.5" y="-151" font-family="Helvetica,sans-Serif" font-size="10.00" fill="#000000">omc_Inst_instantiateClass</text>
</a>
</g>
</g>
<!-- Node1896&#45;&gt;Node1897 -->
<g id="edge39" class="edge">
<title>Node1896&#45;&gt;Node1897</title>
<path fill="none" stroke="#191970" d="M1280.3369,-154.6269C1291.1749,-154.5037 1302.2426,-154.3779 1312.8679,-154.2572"/>
<polygon fill="#191970" stroke="#191970" points="1279.9976,-151.1304 1270.0381,-154.7439 1280.0772,-158.1299 1279.9976,-151.1304"/>
</g>
<!-- Node1909 -->
<g id="node43" class="node">
<title>Node1909</title>
<g id="a_node43"><a xlink:href="../../dd/d26/_inst_8c.html#a8e415bea69ed2055657dee14e9237395" target="_top" xlink:title="boxptr_Inst_instantiateClass\l__dispatch">
<polygon fill="#ffffff" stroke="#000000" points="1309,-94.5 1309,-124.5 1450,-124.5 1450,-94.5 1309,-94.5"/>
<text text-anchor="start" x="1317" y="-112.5" font-family="Helvetica,sans-Serif" font-size="10.00" fill="#000000">boxptr_Inst_instantiateClass</text>
<text text-anchor="middle" x="1379.5" y="-101.5" font-family="Helvetica,sans-Serif" font-size="10.00" fill="#000000">__dispatch</text>
</a>
</g>
</g>
<!-- Node1896&#45;&gt;Node1909 -->
<g id="edge51" class="edge">
<title>Node1896&#45;&gt;Node1909</title>
<path fill="none" stroke="#191970" d="M1270.9147,-137.8803C1287.7788,-133.4726 1305.7116,-128.7856 1322.0423,-124.5174"/>
<polygon fill="#191970" stroke="#191970" points="1269.9189,-134.5229 1261.129,-140.4379 1271.6891,-141.2954 1269.9189,-134.5229"/>
</g>
<!-- Node1898 -->
<g id="node32" class="node">
<title>Node1898</title>
<g id="a_node32"><a xlink:href="../../d6/d82/_ceval_script_8c.html#a79d10e3cf8025831f31007156f94e496" target="_top" xlink:title="omc_CevalScript_getNonPartial\lElementsForInstantiatedClass">
<polygon fill="#ffffff" stroke="#000000" points="1486,-235.5 1486,-265.5 1642,-265.5 1642,-235.5 1486,-235.5"/>
<text text-anchor="start" x="1494" y="-253.5" font-family="Helvetica,sans-Serif" font-size="10.00" fill="#000000">omc_CevalScript_getNonPartial</text>
<text text-anchor="middle" x="1564" y="-242.5" font-family="Helvetica,sans-Serif" font-size="10.00" fill="#000000">ElementsForInstantiatedClass</text>
</a>
</g>
</g>
<!-- Node1897&#45;&gt;Node1898 -->
<g id="edge40" class="edge">
<title>Node1897&#45;&gt;Node1898</title>
<path fill="none" stroke="#191970" d="M1398.8517,-169.4518C1419.3874,-185.7132 1453.3214,-210.7267 1486,-226.5 1492.8902,-229.8257 1500.3441,-232.8163 1507.8175,-235.4651"/>
<polygon fill="#191970" stroke="#191970" points="1400.9006,-166.6082 1390.9137,-163.0709 1396.515,-172.0641 1400.9006,-166.6082"/>
</g>
<!-- Node1899 -->
<g id="node33" class="node">
<title>Node1899</title>
<g id="a_node33"><a xlink:href="../../d8/de6/_ceval_script_backend_8c.html#ad462c200ba722743b0531ff077a790cd" target="_top" xlink:title="omc_CevalScriptBackend\l_dumpXMLDAEFrontEnd">
<polygon fill="#ffffff" stroke="#000000" points="1499,-186.5 1499,-216.5 1629,-216.5 1629,-186.5 1499,-186.5"/>
<text text-anchor="start" x="1507" y="-204.5" font-family="Helvetica,sans-Serif" font-size="10.00" fill="#000000">omc_CevalScriptBackend</text>
<text text-anchor="middle" x="1564" y="-193.5" font-family="Helvetica,sans-Serif" font-size="10.00" fill="#000000">_dumpXMLDAEFrontEnd</text>
</a>
</g>
</g>
<!-- Node1897&#45;&gt;Node1899 -->
<g id="edge41" class="edge">
<title>Node1897&#45;&gt;Node1899</title>
<path fill="none" stroke="#191970" d="M1426.0875,-165.6203C1450.3829,-171.9411 1480.3289,-179.7319 1506.1016,-186.437"/>
<polygon fill="#191970" stroke="#191970" points="1426.952,-162.2288 1416.3929,-163.0982 1425.1895,-169.0033 1426.952,-162.2288"/>
</g>
<!-- Node1901 -->
<g id="node35" class="node">
<title>Node1901</title>
<g id="a_node35"><a xlink:href="../../d6/dc9/_ceval_script_backend_8h.html#abf456455f1e67b98c1d62777f8e68c29" target="_top" xlink:title="omc_CevalScriptBackend\l_getIncidenceMatrix">
<polygon fill="#ffffff" stroke="#000000" points="1499,-137.5 1499,-167.5 1629,-167.5 1629,-137.5 1499,-137.5"/>
<text text-anchor="start" x="1507" y="-155.5" font-family="Helvetica,sans-Serif" font-size="10.00" fill="#000000">omc_CevalScriptBackend</text>
<text text-anchor="middle" x="1564" y="-144.5" font-family="Helvetica,sans-Serif" font-size="10.00" fill="#000000">_getIncidenceMatrix</text>
</a>
</g>
</g>
<!-- Node1897&#45;&gt;Node1901 -->
<g id="edge43" class="edge">
<title>Node1897&#45;&gt;Node1901</title>
<path fill="none" stroke="#191970" d="M1456.2754,-153.0839C1470.3853,-153.0074 1484.9924,-152.9282 1498.725,-152.8538"/>
<polygon fill="#191970" stroke="#191970" points="1456.0896,-149.5847 1446.1087,-153.139 1456.1276,-156.5846 1456.0896,-149.5847"/>
</g>
<!-- Node1902 -->
<g id="node36" class="node">
<title>Node1902</title>
<g id="a_node36"><a xlink:href="../../d9/d5c/_inst_8h.html#a7d027b193aba3673f6d9355a9d09e298" target="_top" xlink:title="boxptr_Inst_instantiateClass">
<polygon fill="#ffffff" stroke="#000000" points="1493.5,-99 1493.5,-118 1634.5,-118 1634.5,-99 1493.5,-99"/>
<text text-anchor="middle" x="1564" y="-106" font-family="Helvetica,sans-Serif" font-size="10.00" fill="#000000">boxptr_Inst_instantiateClass</text>
</a>
</g>
</g>
<!-- Node1897&#45;&gt;Node1902 -->
<g id="edge44" class="edge">
<title>Node1897&#45;&gt;Node1902</title>
<path fill="none" stroke="#191970" d="M1428.5248,-141.5427C1458.6857,-134.1864 1496.8117,-124.8874 1524.9287,-118.0296"/>
<polygon fill="#191970" stroke="#191970" points="1427.5135,-138.1867 1418.6277,-143.9567 1429.1723,-144.9873 1427.5135,-138.1867"/>
</g>
<!-- Node1903 -->
<g id="node37" class="node">
<title>Node1903</title>
<g id="a_node37"><a xlink:href="../../db/d73/_interactive_8c.html#a2eb5704b267b5af51c7e7668c07792f8" target="_top" xlink:title="omc_Interactive_buildEnv\lForGraphicProgramFull">
<polygon fill="#ffffff" stroke="#000000" points="1499.5,-49.5 1499.5,-79.5 1628.5,-79.5 1628.5,-49.5 1499.5,-49.5"/>
<text text-anchor="start" x="1507.5" y="-67.5" font-family="Helvetica,sans-Serif" font-size="10.00" fill="#000000">omc_Interactive_buildEnv</text>
<text text-anchor="middle" x="1564" y="-56.5" font-family="Helvetica,sans-Serif" font-size="10.00" fill="#000000">ForGraphicProgramFull</text>
</a>
</g>
</g>
<!-- Node1897&#45;&gt;Node1903 -->
<g id="edge45" class="edge">
<title>Node1897&#45;&gt;Node1903</title>
<path fill="none" stroke="#191970" d="M1439.9716,-140.0504C1443.4709,-138.4077 1446.8448,-136.5656 1450,-134.5 1471.4288,-120.4712 1464.9062,-104.0276 1486,-89.5 1491.6215,-85.6284 1497.8771,-82.3298 1504.3314,-79.5253"/>
<polygon fill="#191970" stroke="#191970" points="1438.4004,-136.9119 1430.4804,-143.9493 1441.0603,-143.3869 1438.4004,-136.9119"/>
</g>
<!-- Node1908 -->
<g id="node42" class="node">
<title>Node1908</title>
<g id="a_node42"><a xlink:href="../../d6/dd2/_uncertainties_8c.html#a730f8d3fc1b6ff9127e582f58a57604d" target="_top" xlink:title="omc_Uncertainties_flatten\lModel">
<polygon fill="#ffffff" stroke="#000000" points="1498.5,-.5 1498.5,-30.5 1629.5,-30.5 1629.5,-.5 1498.5,-.5"/>
<text text-anchor="start" x="1506.5" y="-18.5" font-family="Helvetica,sans-Serif" font-size="10.00" fill="#000000">omc_Uncertainties_flatten</text>
<text text-anchor="middle" x="1564" y="-7.5" font-family="Helvetica,sans-Serif" font-size="10.00" fill="#000000">Model</text>
</a>
</g>
</g>
<!-- Node1897&#45;&gt;Node1908 -->
<g id="edge50" class="edge">
<title>Node1897&#45;&gt;Node1908</title>
<path fill="none" stroke="#191970" d="M1444.5294,-138.8008C1446.4504,-137.4859 1448.2823,-136.0556 1450,-134.5 1483.4677,-104.1911 1453.0717,-70.394 1486,-39.5 1489.7197,-36.0101 1493.9357,-33.0271 1498.4349,-30.4775"/>
<polygon fill="#191970" stroke="#191970" points="1442.5846,-135.8801 1435.6136,-143.8586 1446.0386,-141.9686 1442.5846,-135.8801"/>
</g>
<!-- Node1900 -->
<g id="node34" class="node">
<title>Node1900</title>
<g id="a_node34"><a xlink:href="../../d8/de6/_ceval_script_backend_8c.html#ae7439096bed9283f2ed3c60fbc0659bc" target="_top" xlink:title="omc_CevalScriptBackend\l_dumpXMLDAE">
<polygon fill="#ffffff" stroke="#000000" points="1678,-186.5 1678,-216.5 1808,-216.5 1808,-186.5 1678,-186.5"/>
<text text-anchor="start" x="1686" y="-204.5" font-family="Helvetica,sans-Serif" font-size="10.00" fill="#000000">omc_CevalScriptBackend</text>
<text text-anchor="middle" x="1743" y="-193.5" font-family="Helvetica,sans-Serif" font-size="10.00" fill="#000000">_dumpXMLDAE</text>
</a>
</g>
</g>
<!-- Node1899&#45;&gt;Node1900 -->
<g id="edge42" class="edge">
<title>Node1899&#45;&gt;Node1900</title>
<path fill="none" stroke="#191970" d="M1639.3147,-201.5C1652.1475,-201.5 1665.3795,-201.5 1677.919,-201.5"/>
<polygon fill="#191970" stroke="#191970" points="1639.1295,-198.0001 1629.1295,-201.5 1639.1294,-205.0001 1639.1295,-198.0001"/>
</g>
<!-- Node1904 -->
<g id="node38" class="node">
<title>Node1904</title>
<g id="a_node38"><a xlink:href="../../db/d73/_interactive_8c.html#ad74521ca7c175a41e77e8936a329fdf6" target="_top" xlink:title="omc_Interactive_buildEnv\lForGraphicProgram">
<polygon fill="#ffffff" stroke="#000000" points="1678.5,-49.5 1678.5,-79.5 1807.5,-79.5 1807.5,-49.5 1678.5,-49.5"/>
<text text-anchor="start" x="1686.5" y="-67.5" font-family="Helvetica,sans-Serif" font-size="10.00" fill="#000000">omc_Interactive_buildEnv</text>
<text text-anchor="middle" x="1743" y="-56.5" font-family="Helvetica,sans-Serif" font-size="10.00" fill="#000000">ForGraphicProgram</text>
</a>
</g>
</g>
<!-- Node1903&#45;&gt;Node1904 -->
<g id="edge46" class="edge">
<title>Node1903&#45;&gt;Node1904</title>
<path fill="none" stroke="#191970" d="M1638.6357,-64.5C1651.8687,-64.5 1665.5478,-64.5 1678.4717,-64.5"/>
<polygon fill="#191970" stroke="#191970" points="1638.6231,-61.0001 1628.6231,-64.5 1638.6231,-68.0001 1638.6231,-61.0001"/>
</g>
<!-- Node1905 -->
<g id="node39" class="node">
<title>Node1905</title>
<g id="a_node39"><a xlink:href="../../db/d73/_interactive_8c.html#a731ca6f6678745875c50c0c94de89173" target="_top" xlink:title="omc_Interactive_getComponentitems\lAnnotationsElArgs">
<polygon fill="#ffffff" stroke="#000000" points="1844,-49.5 1844,-79.5 2023,-79.5 2023,-49.5 1844,-49.5"/>
<text text-anchor="start" x="1852" y="-67.5" font-family="Helvetica,sans-Serif" font-size="10.00" fill="#000000">omc_Interactive_getComponentitems</text>
<text text-anchor="middle" x="1933.5" y="-56.5" font-family="Helvetica,sans-Serif" font-size="10.00" fill="#000000">AnnotationsElArgs</text>
</a>
</g>
</g>
<!-- Node1904&#45;&gt;Node1905 -->
<g id="edge47" class="edge">
<title>Node1904&#45;&gt;Node1905</title>
<path fill="none" stroke="#191970" d="M1818.0136,-64.5C1826.5272,-64.5 1835.267,-64.5 1843.9436,-64.5"/>
<polygon fill="#191970" stroke="#191970" points="1817.7605,-61.0001 1807.7604,-64.5 1817.7604,-68.0001 1817.7605,-61.0001"/>
</g>
<!-- Node1906 -->
<g id="node40" class="node">
<title>Node1906</title>
<g id="a_node40"><a xlink:href="../../db/d73/_interactive_8c.html#aa2f7438670a6c767167a808117be7c26" target="_top" xlink:title="omc_Interactive_getComponentitems\lAnnotationsFromItems">
<polygon fill="#ffffff" stroke="#000000" points="2059,-49.5 2059,-79.5 2238,-79.5 2238,-49.5 2059,-49.5"/>
<text text-anchor="start" x="2067" y="-67.5" font-family="Helvetica,sans-Serif" font-size="10.00" fill="#000000">omc_Interactive_getComponentitems</text>
<text text-anchor="middle" x="2148.5" y="-56.5" font-family="Helvetica,sans-Serif" font-size="10.00" fill="#000000">AnnotationsFromItems</text>
</a>
</g>
</g>
<!-- Node1905&#45;&gt;Node1906 -->
<g id="edge48" class="edge">
<title>Node1905&#45;&gt;Node1906</title>
<path fill="none" stroke="#191970" d="M2033.3737,-64.5C2041.8149,-64.5 2050.3193,-64.5 2058.677,-64.5"/>
<polygon fill="#191970" stroke="#191970" points="2033.1225,-61.0001 2023.1225,-64.5 2033.1225,-68.0001 2033.1225,-61.0001"/>
</g>
<!-- Node1907 -->
<g id="node41" class="node">
<title>Node1907</title>
<g id="a_node41"><a xlink:href="../../db/d73/_interactive_8c.html#ad39e08213abadf81636d051805a2d626" target="_top" xlink:title="omc_Interactive_getComponentitems\lAnnotations">
<polygon fill="#ffffff" stroke="#000000" points="2274,-49.5 2274,-79.5 2453,-79.5 2453,-49.5 2274,-49.5"/>
<text text-anchor="start" x="2282" y="-67.5" font-family="Helvetica,sans-Serif" font-size="10.00" fill="#000000">omc_Interactive_getComponentitems</text>
<text text-anchor="middle" x="2363.5" y="-56.5" font-family="Helvetica,sans-Serif" font-size="10.00" fill="#000000">Annotations</text>
</a>
</g>
</g>
<!-- Node1906&#45;&gt;Node1907 -->
<g id="edge49" class="edge">
<title>Node1906&#45;&gt;Node1907</title>
<path fill="none" stroke="#191970" d="M2248.3737,-64.5C2256.8149,-64.5 2265.3193,-64.5 2273.677,-64.5"/>
<polygon fill="#191970" stroke="#191970" points="2248.1225,-61.0001 2238.1225,-64.5 2248.1225,-68.0001 2248.1225,-61.0001"/>
</g>
</g>
</svg>
