<?xml version="1.0" encoding="UTF-8" standalone="no"?>
<!DOCTYPE svg PUBLIC "-//W3C//DTD SVG 1.1//EN"
 "http://www.w3.org/Graphics/SVG/1.1/DTD/svg11.dtd">
<!-- Generated by graphviz version 2.40.1 (20161225.0304)
 -->
<!-- Title: GC_get_time_limit Pages: 1 -->
<svg width="299pt" height="28pt"
 viewBox="0.00 0.00 299.00 28.00" xmlns="http://www.w3.org/2000/svg" xmlns:xlink="http://www.w3.org/1999/xlink">
<g id="graph0" class="graph" transform="scale(1 1) rotate(0) translate(4 24)">
<title>GC_get_time_limit</title>
<polygon fill="#ffffff" stroke="transparent" points="-4,4 -4,-24 295,-24 295,4 -4,4"/>
<!-- Node1543 -->
<g id="node1" class="node">
<title>Node1543</title>
<polygon fill="#bfbfbf" stroke="#000000" points="0,-.5 0,-19.5 98,-19.5 98,-.5 0,-.5"/>
<text text-anchor="middle" x="49" y="-7.5" font-family="Helvetica,sans-Serif" font-size="10.00" fill="#000000">GC_get_time_limit</text>
</g>
<!-- Node1544 -->
<g id="node2" class="node">
<title>Node1544</title>
<g id="a_node2"><a xlink:href="../../d4/d12/3rd_party_2gc_2tests_2test_8c.html#a1441c77c68f4a3023b01ac675442c2da" target="_top" xlink:title="WinMain">
<polygon fill="#ffffff" stroke="#000000" points="134,-.5 134,-19.5 189,-19.5 189,-.5 134,-.5"/>
<text text-anchor="middle" x="161.5" y="-7.5" font-family="Helvetica,sans-Serif" font-size="10.00" fill="#000000">WinMain</text>
</a>
</g>
</g>
<!-- Node1543&#45;&gt;Node1544 -->
<g id="edge1" class="edge">
<title>Node1543&#45;&gt;Node1544</title>
<path fill="none" stroke="#191970" d="M108.176,-10C117.1801,-10 126.084,-10 133.9614,-10"/>
<polygon fill="#191970" stroke="#191970" points="108.0169,-6.5001 98.0169,-10 108.0168,-13.5001 108.0169,-6.5001"/>
</g>
<!-- Node1545 -->
<g id="node3" class="node">
<title>Node1545</title>
<g id="a_node3"><a xlink:href="../../d4/d12/3rd_party_2gc_2tests_2test_8c.html#a99b2e9cc4d3b5790643181ca7da1ba02" target="_top" xlink:title="thr_window">
<polygon fill="#ffffff" stroke="#000000" points="225,-.5 225,-19.5 291,-19.5 291,-.5 225,-.5"/>
<text text-anchor="middle" x="258" y="-7.5" font-family="Helvetica,sans-Serif" font-size="10.00" fill="#000000">thr_window</text>
</a>
</g>
</g>
<!-- Node1544&#45;&gt;Node1545 -->
<g id="edge2" class="edge">
<title>Node1544&#45;&gt;Node1545</title>
<path fill="none" stroke="#191970" d="M199.1894,-10C207.6649,-10 216.5975,-10 224.8704,-10"/>
<polygon fill="#191970" stroke="#191970" points="199.1531,-6.5001 189.153,-10 199.153,-13.5001 199.1531,-6.5001"/>
</g>
</g>
</svg>
