<?xml version="1.0" encoding="UTF-8" standalone="no"?>
<!DOCTYPE svg PUBLIC "-//W3C//DTD SVG 1.1//EN"
 "http://www.w3.org/Graphics/SVG/1.1/DTD/svg11.dtd">
<!-- Generated by graphviz version 2.40.1 (20161225.0304)
 -->
<!-- Title: qsplit Pages: 1 -->
<svg width="385pt" height="66pt"
 viewBox="0.00 0.00 385.00 66.00" xmlns="http://www.w3.org/2000/svg" xmlns:xlink="http://www.w3.org/1999/xlink">
<g id="graph0" class="graph" transform="scale(1 1) rotate(0) translate(4 62)">
<title>qsplit</title>
<polygon fill="#ffffff" stroke="transparent" points="-4,4 -4,-62 381,-62 381,4 -4,4"/>
<!-- Node141 -->
<g id="node1" class="node">
<title>Node141</title>
<polygon fill="#bfbfbf" stroke="#000000" points="0,-19.5 0,-38.5 40,-38.5 40,-19.5 0,-19.5"/>
<text text-anchor="middle" x="20" y="-26.5" font-family="Helvetica,sans-Serif" font-size="10.00" fill="#000000">qsplit</text>
</g>
<!-- Node142 -->
<g id="node2" class="node">
<title>Node142</title>
<g id="a_node2"><a xlink:href="../../d0/d62/dsparsk_8f.html#a581b36ebb84be44af68db14698993b10" target="_top" xlink:title="ilut">
<polygon fill="#ffffff" stroke="#000000" points="79,-38.5 79,-57.5 108,-57.5 108,-38.5 79,-38.5"/>
<text text-anchor="middle" x="93.5" y="-45.5" font-family="Helvetica,sans-Serif" font-size="10.00" fill="#000000">ilut</text>
</a>
</g>
</g>
<!-- Node141&#45;&gt;Node142 -->
<g id="edge1" class="edge">
<title>Node141&#45;&gt;Node142</title>
<path fill="none" stroke="#191970" d="M50.0493,-36.7679C59.9675,-39.3317 70.5597,-42.0698 78.8028,-44.2007"/>
<polygon fill="#191970" stroke="#191970" points="50.6419,-33.3061 40.0842,-34.1918 48.89,-40.0833 50.6419,-33.3061"/>
</g>
<!-- Node147 -->
<g id="node7" class="node">
<title>Node147</title>
<g id="a_node7"><a xlink:href="../../d0/d62/dsparsk_8f.html#a6fc4b2857a92ad6274f1f47fc42e3637" target="_top" xlink:title="ilutp">
<polygon fill="#ffffff" stroke="#000000" points="76,-.5 76,-19.5 111,-19.5 111,-.5 76,-.5"/>
<text text-anchor="middle" x="93.5" y="-7.5" font-family="Helvetica,sans-Serif" font-size="10.00" fill="#000000">ilutp</text>
</a>
</g>
</g>
<!-- Node141&#45;&gt;Node147 -->
<g id="edge6" class="edge">
<title>Node141&#45;&gt;Node147</title>
<path fill="none" stroke="#191970" d="M50.0493,-21.2321C58.8539,-18.9561 68.1896,-16.5428 75.9416,-14.5389"/>
<polygon fill="#191970" stroke="#191970" points="48.89,-17.9167 40.0842,-23.8082 50.6419,-24.6939 48.89,-17.9167"/>
</g>
<!-- Node143 -->
<g id="node3" class="node">
<title>Node143</title>
<g id="a_node3"><a xlink:href="../../d8/d62/dilupre_8f.html#ab22eb745e72de4735cd53f533e4e79a5" target="_top" xlink:title="djilu">
<polygon fill="#ffffff" stroke="#000000" points="147,-19.5 147,-38.5 181,-38.5 181,-19.5 147,-19.5"/>
<text text-anchor="middle" x="164" y="-26.5" font-family="Helvetica,sans-Serif" font-size="10.00" fill="#000000">djilu</text>
</a>
</g>
</g>
<!-- Node142&#45;&gt;Node143 -->
<g id="edge2" class="edge">
<title>Node142&#45;&gt;Node143</title>
<path fill="none" stroke="#191970" d="M117.8777,-41.4301C127.4512,-38.85 138.2108,-35.9503 146.9283,-33.6009"/>
<polygon fill="#191970" stroke="#191970" points="116.8524,-38.0815 108.1076,-44.0632 118.6739,-44.8403 116.8524,-38.0815"/>
</g>
<!-- Node144 -->
<g id="node4" class="node">
<title>Node144</title>
<g id="a_node4"><a xlink:href="../../d8/d62/dilupre_8f.html#a555543758abddd61f490ade40042ed48" target="_top" xlink:title="djacilu">
<polygon fill="#ffffff" stroke="#000000" points="217,-19.5 217,-38.5 261,-38.5 261,-19.5 217,-19.5"/>
<text text-anchor="middle" x="239" y="-26.5" font-family="Helvetica,sans-Serif" font-size="10.00" fill="#000000">djacilu</text>
</a>
</g>
</g>
<!-- Node143&#45;&gt;Node144 -->
<g id="edge3" class="edge">
<title>Node143&#45;&gt;Node144</title>
<path fill="none" stroke="#191970" d="M191.1815,-29C199.6391,-29 208.8559,-29 216.9206,-29"/>
<polygon fill="#191970" stroke="#191970" points="191.0187,-25.5001 181.0187,-29 191.0186,-32.5001 191.0187,-25.5001"/>
</g>
<!-- Node145 -->
<g id="node5" class="node">
<title>Node145</title>
<g id="a_node5"><a xlink:href="../../d0/d60/dheatilu_8f.html#a18f485e3b24a7540b7c03f82d7aa8366" target="_top" xlink:title="__dheatilu::f__">
<polygon fill="#ffffff" stroke="#000000" points="297,-38.5 297,-57.5 377,-57.5 377,-38.5 297,-38.5"/>
<text text-anchor="middle" x="337" y="-45.5" font-family="Helvetica,sans-Serif" font-size="10.00" fill="#000000">__dheatilu::f__</text>
</a>
</g>
</g>
<!-- Node144&#45;&gt;Node145 -->
<g id="edge4" class="edge">
<title>Node144&#45;&gt;Node145</title>
<path fill="none" stroke="#191970" d="M271.1373,-35.2307C279.3186,-36.8169 288.214,-38.5415 296.7441,-40.1953"/>
<polygon fill="#191970" stroke="#191970" points="271.7211,-31.7788 261.2377,-33.3114 270.3887,-38.6508 271.7211,-31.7788"/>
</g>
<!-- Node146 -->
<g id="node6" class="node">
<title>Node146</title>
<g id="a_node6"><a xlink:href="../../d5/d0e/dwebilu_8f.html#ac3d5339d43725ab62e52cb2729571805" target="_top" xlink:title="__dwebilu::f__">
<polygon fill="#ffffff" stroke="#000000" points="297,-.5 297,-19.5 377,-19.5 377,-.5 297,-.5"/>
<text text-anchor="middle" x="337" y="-7.5" font-family="Helvetica,sans-Serif" font-size="10.00" fill="#000000">__dwebilu::f__</text>
</a>
</g>
</g>
<!-- Node144&#45;&gt;Node146 -->
<g id="edge5" class="edge">
<title>Node144&#45;&gt;Node146</title>
<path fill="none" stroke="#191970" d="M271.1373,-22.7693C279.3186,-21.1831 288.214,-19.4585 296.7441,-17.8047"/>
<polygon fill="#191970" stroke="#191970" points="270.3887,-19.3492 261.2377,-24.6886 271.7211,-26.2212 270.3887,-19.3492"/>
</g>
<!-- Node147&#45;&gt;Node143 -->
<g id="edge7" class="edge">
<title>Node147&#45;&gt;Node143</title>
<path fill="none" stroke="#191970" d="M121.0889,-17.4353C129.8094,-19.7855 139.1872,-22.3129 146.9452,-24.4037"/>
<polygon fill="#191970" stroke="#191970" points="121.8564,-14.0173 111.2901,-14.7945 120.0348,-20.7762 121.8564,-14.0173"/>
</g>
</g>
</svg>
