<?xml version="1.0" encoding="UTF-8" standalone="no"?>
<!DOCTYPE svg PUBLIC "-//W3C//DTD SVG 1.1//EN"
 "http://www.w3.org/Graphics/SVG/1.1/DTD/svg11.dtd">
<!-- Generated by graphviz version 2.40.1 (20161225.0304)
 -->
<!-- Title: Ipopt::CachedResults::Clear Pages: 1 -->
<svg width="357pt" height="50pt"
 viewBox="0.00 0.00 357.00 50.00" xmlns="http://www.w3.org/2000/svg" xmlns:xlink="http://www.w3.org/1999/xlink">
<g id="graph0" class="graph" transform="scale(1 1) rotate(0) translate(4 46)">
<title>Ipopt::CachedResults::Clear</title>
<polygon fill="#ffffff" stroke="transparent" points="-4,4 -4,-46 353,-46 353,4 -4,4"/>
<!-- Node191 -->
<g id="node1" class="node">
<title>Node191</title>
<polygon fill="#bfbfbf" stroke="#000000" points="0,-6 0,-36 112,-36 112,-6 0,-6"/>
<text text-anchor="start" x="8" y="-24" font-family="Helvetica,sans-Serif" font-size="10.00" fill="#000000">Ipopt::CachedResults</text>
<text text-anchor="middle" x="56" y="-13" font-family="Helvetica,sans-Serif" font-size="10.00" fill="#000000">::Clear</text>
</g>
<!-- Node192 -->
<g id="node2" class="node">
<title>Node192</title>
<g id="a_node2"><a xlink:href="../../d1/ded/class_ipopt_1_1_cached_results.html#a6a0618748095bc4767ba008aebab1633" target="_top" xlink:title="Ipopt::CachedResults\l\&lt; Ipopt::SmartPtr\&lt; const\l Ipopt::Matrix \&gt; \&gt;::AddCachedResult3Dep">
<polygon fill="#ffffff" stroke="#000000" points="148,-.5 148,-41.5 349,-41.5 349,-.5 148,-.5"/>
<text text-anchor="start" x="156" y="-29.5" font-family="Helvetica,sans-Serif" font-size="10.00" fill="#000000">Ipopt::CachedResults</text>
<text text-anchor="start" x="156" y="-18.5" font-family="Helvetica,sans-Serif" font-size="10.00" fill="#000000">&lt; Ipopt::SmartPtr&lt; const</text>
<text text-anchor="middle" x="248.5" y="-7.5" font-family="Helvetica,sans-Serif" font-size="10.00" fill="#000000"> Ipopt::Matrix &gt; &gt;::AddCachedResult3Dep</text>
</a>
</g>
</g>
<!-- Node191&#45;&gt;Node192 -->
<g id="edge1" class="edge">
<title>Node191&#45;&gt;Node192</title>
<path fill="none" stroke="#191970" d="M122.3917,-21C130.5922,-21 139.1137,-21 147.6836,-21"/>
<polygon fill="#191970" stroke="#191970" points="122.1965,-17.5001 112.1965,-21 122.1964,-24.5001 122.1965,-17.5001"/>
</g>
</g>
</svg>
