<?xml version="1.0" encoding="UTF-8" standalone="no"?>
<!DOCTYPE svg PUBLIC "-//W3C//DTD SVG 1.1//EN"
 "http://www.w3.org/Graphics/SVG/1.1/DTD/svg11.dtd">
<!-- Generated by graphviz version 2.40.1 (20161225.0304)
 -->
<!-- Title: zmq::poller_base_t::execute_timers Pages: 1 -->
<svg width="665pt" height="237pt"
 viewBox="0.00 0.00 665.00 237.00" xmlns="http://www.w3.org/2000/svg" xmlns:xlink="http://www.w3.org/1999/xlink">
<g id="graph0" class="graph" transform="scale(1 1) rotate(0) translate(4 233)">
<title>zmq::poller_base_t::execute_timers</title>
<polygon fill="#ffffff" stroke="transparent" points="-4,4 -4,-233 661,-233 661,4 -4,4"/>
<!-- Node97 -->
<g id="node1" class="node">
<title>Node97</title>
<polygon fill="#bfbfbf" stroke="#000000" points="0,-90 0,-120 99,-120 99,-90 0,-90"/>
<text text-anchor="start" x="8" y="-108" font-family="Helvetica,sans-Serif" font-size="10.00" fill="#000000">zmq::poller_base_t</text>
<text text-anchor="middle" x="49.5" y="-97" font-family="Helvetica,sans-Serif" font-size="10.00" fill="#000000">::execute_timers</text>
</g>
<!-- Node98 -->
<g id="node2" class="node">
<title>Node98</title>
<g id="a_node2"><a xlink:href="../../d3/d1f/classzmq_1_1devpoll__t.html#a49a97964bb5a1e7a59d79bd3af0e1f23" target="_top" xlink:title="zmq::devpoll_t::max_fds">
<polygon fill="#ffffff" stroke="#000000" points="135.5,-190.5 135.5,-209.5 259.5,-209.5 259.5,-190.5 135.5,-190.5"/>
<text text-anchor="middle" x="197.5" y="-197.5" font-family="Helvetica,sans-Serif" font-size="10.00" fill="#000000">zmq::devpoll_t::max_fds</text>
</a>
</g>
</g>
<!-- Node97&#45;&gt;Node98 -->
<g id="edge1" class="edge">
<title>Node97&#45;&gt;Node98</title>
<path fill="none" stroke="#191970" d="M69.6755,-127.5955C85.8459,-144.4634 109.9108,-166.937 135,-181 141.7272,-184.7707 149.2903,-187.8788 156.7707,-190.4102"/>
<polygon fill="#191970" stroke="#191970" points="72.2191,-125.1912 62.826,-120.2901 67.1126,-129.9791 72.2191,-125.1912"/>
</g>
<!-- Node103 -->
<g id="node7" class="node">
<title>Node103</title>
<g id="a_node7"><a xlink:href="../../d6/d41/classzmq_1_1epoll__t.html#a4164a988314579a5d16aeaa88ba3c966" target="_top" xlink:title="zmq::epoll_t::max_fds">
<polygon fill="#ffffff" stroke="#000000" points="141,-152.5 141,-171.5 254,-171.5 254,-152.5 141,-152.5"/>
<text text-anchor="middle" x="197.5" y="-159.5" font-family="Helvetica,sans-Serif" font-size="10.00" fill="#000000">zmq::epoll_t::max_fds</text>
</a>
</g>
</g>
<!-- Node97&#45;&gt;Node103 -->
<g id="edge6" class="edge">
<title>Node97&#45;&gt;Node103</title>
<path fill="none" stroke="#191970" d="M90.1735,-124.3031C104.2207,-130.6404 120.1591,-137.4701 135,-143 144.1394,-146.4054 154.1917,-149.6671 163.512,-152.4972"/>
<polygon fill="#191970" stroke="#191970" points="91.3376,-120.9871 80.7874,-120.0164 88.4296,-127.3545 91.3376,-120.9871"/>
</g>
<!-- Node104 -->
<g id="node8" class="node">
<title>Node104</title>
<g id="a_node8"><a xlink:href="../../d3/d37/classzmq_1_1kqueue__t.html#aa55e75a8d1fb22b86d3dabdcab4a642a" target="_top" xlink:title="zmq::kqueue_t::max_fds">
<polygon fill="#ffffff" stroke="#000000" points="135,-114.5 135,-133.5 260,-133.5 260,-114.5 135,-114.5"/>
<text text-anchor="middle" x="197.5" y="-121.5" font-family="Helvetica,sans-Serif" font-size="10.00" fill="#000000">zmq::kqueue_t::max_fds</text>
</a>
</g>
</g>
<!-- Node97&#45;&gt;Node104 -->
<g id="edge7" class="edge">
<title>Node97&#45;&gt;Node104</title>
<path fill="none" stroke="#191970" d="M109.2847,-112.6751C117.6859,-113.7536 126.3412,-114.8647 134.795,-115.95"/>
<polygon fill="#191970" stroke="#191970" points="109.5579,-109.1815 99.1936,-111.3796 108.6665,-116.1245 109.5579,-109.1815"/>
</g>
<!-- Node105 -->
<g id="node9" class="node">
<title>Node105</title>
<g id="a_node9"><a xlink:href="../../d8/db4/classzmq_1_1poll__t.html#a0cf49307f759410a2953f091de3b01eb" target="_top" xlink:title="zmq::poll_t::max_fds">
<polygon fill="#ffffff" stroke="#000000" points="143.5,-76.5 143.5,-95.5 251.5,-95.5 251.5,-76.5 143.5,-76.5"/>
<text text-anchor="middle" x="197.5" y="-83.5" font-family="Helvetica,sans-Serif" font-size="10.00" fill="#000000">zmq::poll_t::max_fds</text>
</a>
</g>
</g>
<!-- Node97&#45;&gt;Node105 -->
<g id="edge8" class="edge">
<title>Node97&#45;&gt;Node105</title>
<path fill="none" stroke="#191970" d="M109.3621,-97.315C120.607,-95.8714 132.3043,-94.3697 143.3626,-92.9501"/>
<polygon fill="#191970" stroke="#191970" points="108.6665,-93.8755 99.1936,-98.6204 109.5579,-100.8185 108.6665,-93.8755"/>
</g>
<!-- Node106 -->
<g id="node10" class="node">
<title>Node106</title>
<g id="a_node10"><a xlink:href="../../de/dea/classzmq_1_1pollset__t.html#aa1fbf9f938da3c2a83b8e6a3670cecac" target="_top" xlink:title="zmq::pollset_t::max_fds">
<polygon fill="#ffffff" stroke="#000000" points="136.5,-38.5 136.5,-57.5 258.5,-57.5 258.5,-38.5 136.5,-38.5"/>
<text text-anchor="middle" x="197.5" y="-45.5" font-family="Helvetica,sans-Serif" font-size="10.00" fill="#000000">zmq::pollset_t::max_fds</text>
</a>
</g>
</g>
<!-- Node97&#45;&gt;Node106 -->
<g id="edge9" class="edge">
<title>Node97&#45;&gt;Node106</title>
<path fill="none" stroke="#191970" d="M90.1735,-85.6969C104.2207,-79.3596 120.1591,-72.5299 135,-67 144.1394,-63.5946 154.1917,-60.3329 163.512,-57.5028"/>
<polygon fill="#191970" stroke="#191970" points="88.4296,-82.6455 80.7874,-89.9836 91.3376,-89.0129 88.4296,-82.6455"/>
</g>
<!-- Node107 -->
<g id="node11" class="node">
<title>Node107</title>
<g id="a_node11"><a xlink:href="../../d8/d1f/classzmq_1_1select__t.html#a8589cba124ca9576e156e2500c00e7b6" target="_top" xlink:title="zmq::select_t::max_fds">
<polygon fill="#ffffff" stroke="#000000" points="138,-.5 138,-19.5 257,-19.5 257,-.5 138,-.5"/>
<text text-anchor="middle" x="197.5" y="-7.5" font-family="Helvetica,sans-Serif" font-size="10.00" fill="#000000">zmq::select_t::max_fds</text>
</a>
</g>
</g>
<!-- Node97&#45;&gt;Node107 -->
<g id="edge10" class="edge">
<title>Node97&#45;&gt;Node107</title>
<path fill="none" stroke="#191970" d="M69.6755,-82.4045C85.8459,-65.5366 109.9108,-43.063 135,-29 141.7272,-25.2293 149.2903,-22.1212 156.7707,-19.5898"/>
<polygon fill="#191970" stroke="#191970" points="67.1126,-80.0209 62.826,-89.7099 72.2191,-84.8088 67.1126,-80.0209"/>
</g>
<!-- Node99 -->
<g id="node3" class="node">
<title>Node99</title>
<g id="a_node3"><a xlink:href="../../d8/d3c/ctx_8cpp.html#ae4d32e4fef3d9f8fffbd1ec029a9fab1" target="_top" xlink:title="clipped_maxsocket">
<polygon fill="#ffffff" stroke="#000000" points="296,-190.5 296,-209.5 397,-209.5 397,-190.5 296,-190.5"/>
<text text-anchor="middle" x="346.5" y="-197.5" font-family="Helvetica,sans-Serif" font-size="10.00" fill="#000000">clipped_maxsocket</text>
</a>
</g>
</g>
<!-- Node98&#45;&gt;Node99 -->
<g id="edge2" class="edge">
<title>Node98&#45;&gt;Node99</title>
<path fill="none" stroke="#191970" d="M269.9926,-200C278.6915,-200 287.4269,-200 295.724,-200"/>
<polygon fill="#191970" stroke="#191970" points="269.8261,-196.5001 259.8261,-200 269.826,-203.5001 269.8261,-196.5001"/>
</g>
<!-- Node100 -->
<g id="node4" class="node">
<title>Node100</title>
<g id="a_node4"><a xlink:href="../../d5/d71/classzmq_1_1ctx__t.html#a82d3fa1a22c9e15eb640e163b66dbf8b" target="_top" xlink:title="zmq::ctx_t::set">
<polygon fill="#ffffff" stroke="#000000" points="433,-209.5 433,-228.5 516,-228.5 516,-209.5 433,-209.5"/>
<text text-anchor="middle" x="474.5" y="-216.5" font-family="Helvetica,sans-Serif" font-size="10.00" fill="#000000">zmq::ctx_t::set</text>
</a>
</g>
</g>
<!-- Node99&#45;&gt;Node100 -->
<g id="edge3" class="edge">
<title>Node99&#45;&gt;Node100</title>
<path fill="none" stroke="#191970" d="M407.2268,-209.0141C415.9273,-210.3056 424.7087,-211.6091 432.9255,-212.8288"/>
<polygon fill="#191970" stroke="#191970" points="407.4945,-205.5156 397.089,-207.5093 406.4667,-212.4397 407.4945,-205.5156"/>
</g>
<!-- Node101 -->
<g id="node5" class="node">
<title>Node101</title>
<g id="a_node5"><a xlink:href="../../d5/d71/classzmq_1_1ctx__t.html#ac54f37857599233070d28ce1059b4a0a" target="_top" xlink:title="zmq::ctx_t::get">
<polygon fill="#ffffff" stroke="#000000" points="433,-171.5 433,-190.5 516,-190.5 516,-171.5 433,-171.5"/>
<text text-anchor="middle" x="474.5" y="-178.5" font-family="Helvetica,sans-Serif" font-size="10.00" fill="#000000">zmq::ctx_t::get</text>
</a>
</g>
</g>
<!-- Node99&#45;&gt;Node101 -->
<g id="edge4" class="edge">
<title>Node99&#45;&gt;Node101</title>
<path fill="none" stroke="#191970" d="M407.2268,-190.9859C415.9273,-189.6944 424.7087,-188.3909 432.9255,-187.1712"/>
<polygon fill="#191970" stroke="#191970" points="406.4667,-187.5603 397.089,-192.4907 407.4945,-194.4844 406.4667,-187.5603"/>
</g>
<!-- Node102 -->
<g id="node6" class="node">
<title>Node102</title>
<g id="a_node6"><a xlink:href="../../de/dbd/classzmq_1_1socket__base__t.html#a3888f70bd802bc94012f1574bd4477d8" target="_top" xlink:title="zmq::socket_base_t\l::socket_base_t">
<polygon fill="#ffffff" stroke="#000000" points="552,-166 552,-196 657,-196 657,-166 552,-166"/>
<text text-anchor="start" x="560" y="-184" font-family="Helvetica,sans-Serif" font-size="10.00" fill="#000000">zmq::socket_base_t</text>
<text text-anchor="middle" x="604.5" y="-173" font-family="Helvetica,sans-Serif" font-size="10.00" fill="#000000">::socket_base_t</text>
</a>
</g>
</g>
<!-- Node101&#45;&gt;Node102 -->
<g id="edge5" class="edge">
<title>Node101&#45;&gt;Node102</title>
<path fill="none" stroke="#191970" d="M526.3611,-181C534.7252,-181 543.3921,-181 551.7763,-181"/>
<polygon fill="#191970" stroke="#191970" points="526.3484,-177.5001 516.3484,-181 526.3484,-184.5001 526.3484,-177.5001"/>
</g>
</g>
</svg>
