<?xml version="1.0" encoding="UTF-8" standalone="no"?>
<!DOCTYPE svg PUBLIC "-//W3C//DTD SVG 1.1//EN"
 "http://www.w3.org/Graphics/SVG/1.1/DTD/svg11.dtd">
<!-- Generated by graphviz version 2.40.1 (20161225.0304)
 -->
<!-- Title: EvilPack::BEvil::bEvil Pages: 1 -->
<svg width="450pt" height="1328pt"
 viewBox="0.00 0.00 450.00 1327.50" xmlns="http://www.w3.org/2000/svg" xmlns:xlink="http://www.w3.org/1999/xlink">
<g id="graph0" class="graph" transform="scale(1 1) rotate(0) translate(4 1323.5)">
<title>EvilPack::BEvil::bEvil</title>
<polygon fill="#ffffff" stroke="transparent" points="-4,4 -4,-1323.5 446,-1323.5 446,4 -4,4"/>
<!-- Node8 -->
<g id="node1" class="node">
<title>Node8</title>
<polygon fill="#bfbfbf" stroke="#000000" points="0,-683 0,-702 113,-702 113,-683 0,-683"/>
<text text-anchor="middle" x="56.5" y="-690" font-family="Helvetica,sans-Serif" font-size="10.00" fill="#000000">EvilPack::BEvil::bEvil</text>
</g>
<!-- Node9 -->
<g id="node2" class="node">
<title>Node9</title>
<g id="a_node2"><a xlink:href="../../d3/d74/namespace_teuchos.html#a8ce99105ee4c7203a1ecb670a198671a" target="_top" xlink:title="Deprecated. ">
<polygon fill="#ffffff" stroke="#000000" points="149,-683 149,-702 223,-702 223,-683 149,-683"/>
<text text-anchor="middle" x="186" y="-690" font-family="Helvetica,sans-Serif" font-size="10.00" fill="#000000">Teuchos::rcp</text>
</a>
</g>
</g>
<!-- Node8&#45;&gt;Node9 -->
<g id="edge1" class="edge">
<title>Node8&#45;&gt;Node9</title>
<path fill="none" stroke="#191970" d="M113.3006,-692.5C121.8061,-692.5 130.4974,-692.5 138.7754,-692.5"/>
<polygon fill="#191970" stroke="#191970" points="138.9948,-696.0001 148.9948,-692.5 138.9947,-689.0001 138.9948,-696.0001"/>
</g>
<!-- Node10 -->
<g id="node3" class="node">
<title>Node10</title>
<g id="a_node3"><a xlink:href="../../d5/d9a/class_teuchos_1_1_r_c_p.html#a0c6441ac96ec5797f7b487e4c851aebe" target="_top" xlink:title="Initialize from a raw pointer with a deallocation policy. ">
<polygon fill="#ffffff" stroke="#000000" points="273,-1300 273,-1319 428,-1319 428,-1300 273,-1300"/>
<text text-anchor="middle" x="350.5" y="-1307" font-family="Helvetica,sans-Serif" font-size="10.00" fill="#000000">Teuchos::RCP::rcpWithDealloc</text>
</a>
</g>
</g>
<!-- Node9&#45;&gt;Node10 -->
<g id="edge2" class="edge">
<title>Node9&#45;&gt;Node10</title>
<path fill="none" stroke="#191970" d="M186.502,-702.0479C190.4325,-775.1919 217.2197,-1245.0874 259,-1290.5 260.6065,-1292.2462 262.3281,-1293.8549 264.1464,-1295.3361"/>
<polygon fill="#191970" stroke="#191970" points="262.4231,-1298.3942 272.681,-1301.0448 266.315,-1292.5758 262.4231,-1298.3942"/>
</g>
<!-- Node11 -->
<g id="node4" class="node">
<title>Node11</title>
<g id="a_node4"><a xlink:href="../../d5/d9a/class_teuchos_1_1_r_c_p.html#a69ff146d10e16f667ef0ce4523a5eef7" target="_top" xlink:title="Initialize from a raw pointer with a deallocation policy for an undefined type. ">
<polygon fill="#ffffff" stroke="#000000" points="273,-1250.5 273,-1280.5 428,-1280.5 428,-1250.5 273,-1250.5"/>
<text text-anchor="start" x="281" y="-1268.5" font-family="Helvetica,sans-Serif" font-size="10.00" fill="#000000">Teuchos::RCP::rcpWithDealloc</text>
<text text-anchor="middle" x="350.5" y="-1257.5" font-family="Helvetica,sans-Serif" font-size="10.00" fill="#000000">Undef</text>
</a>
</g>
</g>
<!-- Node9&#45;&gt;Node11 -->
<g id="edge3" class="edge">
<title>Node9&#45;&gt;Node11</title>
<path fill="none" stroke="#191970" d="M186.644,-702.1006C191.3974,-771.753 221.8927,-1198.0426 259,-1240.5 260.7542,-1242.5072 262.6525,-1244.3604 264.6695,-1246.0713"/>
<polygon fill="#191970" stroke="#191970" points="262.8077,-1249.0421 272.9847,-1251.9881 266.8661,-1243.3387 262.8077,-1249.0421"/>
</g>
<!-- Node12 -->
<g id="node5" class="node">
<title>Node12</title>
<g id="a_node5"><a xlink:href="../../d5/d9a/class_teuchos_1_1_r_c_p.html#a6c754d72d6d232c97e38bc359ab6ef82" target="_top" xlink:title="Return a non&#45;owning weak RCP object from a raw object reference for a defined type. ">
<polygon fill="#ffffff" stroke="#000000" points="280.5,-1212 280.5,-1231 420.5,-1231 420.5,-1212 280.5,-1212"/>
<text text-anchor="middle" x="350.5" y="-1219" font-family="Helvetica,sans-Serif" font-size="10.00" fill="#000000">Teuchos::RCP::rcpFromRef</text>
</a>
</g>
</g>
<!-- Node9&#45;&gt;Node12 -->
<g id="edge4" class="edge">
<title>Node9&#45;&gt;Node12</title>
<path fill="none" stroke="#191970" d="M186.731,-702.3071C191.8505,-769.8347 223.1762,-1164.3616 259,-1202.5 262.5875,-1206.3193 266.7261,-1209.4773 271.2197,-1212.0801"/>
<polygon fill="#191970" stroke="#191970" points="269.7191,-1215.2421 280.2472,-1216.429 272.7571,-1208.9357 269.7191,-1215.2421"/>
</g>
<!-- Node13 -->
<g id="node6" class="node">
<title>Node13</title>
<g id="a_node6"><a xlink:href="../../d5/d9a/class_teuchos_1_1_r_c_p.html#a823eee3138de3b23dab97b3f37e197f3" target="_top" xlink:title="Return a non&#45;owning weak RCP object from a raw object reference for an undefined type. ">
<polygon fill="#ffffff" stroke="#000000" points="267.5,-1174 267.5,-1193 433.5,-1193 433.5,-1174 267.5,-1174"/>
<text text-anchor="middle" x="350.5" y="-1181" font-family="Helvetica,sans-Serif" font-size="10.00" fill="#000000">Teuchos::RCP::rcpFromUndefRef</text>
</a>
</g>
</g>
<!-- Node9&#45;&gt;Node13 -->
<g id="edge5" class="edge">
<title>Node9&#45;&gt;Node13</title>
<path fill="none" stroke="#191970" d="M186.8563,-702.3972C192.5504,-767.2103 225.7337,-1129.482 259,-1164.5 260.2292,-1165.7939 261.5217,-1167.0117 262.8697,-1168.1575"/>
<polygon fill="#191970" stroke="#191970" points="260.9481,-1171.0848 271.1448,-1173.962 264.9679,-1165.354 260.9481,-1171.0848"/>
</g>
<!-- Node14 -->
<g id="node7" class="node">
<title>Node14</title>
<g id="a_node7"><a xlink:href="../../d5/d9a/class_teuchos_1_1_r_c_p.html#a02148aef172f7b2c0fb2de29cb01b91a" target="_top" xlink:title="Create an RCP with and also put in an embedded object. ">
<polygon fill="#ffffff" stroke="#000000" points="266.5,-1124.5 266.5,-1154.5 434.5,-1154.5 434.5,-1124.5 266.5,-1124.5"/>
<text text-anchor="start" x="274.5" y="-1142.5" font-family="Helvetica,sans-Serif" font-size="10.00" fill="#000000">Teuchos::RCP::rcpWithEmbedded</text>
<text text-anchor="middle" x="350.5" y="-1131.5" font-family="Helvetica,sans-Serif" font-size="10.00" fill="#000000">ObjPreDestroy</text>
</a>
</g>
</g>
<!-- Node9&#45;&gt;Node14 -->
<g id="edge6" class="edge">
<title>Node9&#45;&gt;Node14</title>
<path fill="none" stroke="#191970" d="M186.2999,-702.3715C188.2486,-759.9669 200.923,-1052.2246 259,-1115.5 259.7774,-1116.3469 260.5806,-1117.1655 261.4078,-1117.9566"/>
<polygon fill="#191970" stroke="#191970" points="259.4418,-1120.8653 269.4436,-1124.3601 263.8042,-1115.3908 259.4418,-1120.8653"/>
</g>
<!-- Node15 -->
<g id="node8" class="node">
<title>Node15</title>
<g id="a_node8"><a xlink:href="../../d5/d9a/class_teuchos_1_1_r_c_p.html#a8272eea6a27f1fce6c30fc5d568f2de7" target="_top" xlink:title="Create an RCP with and also put in an embedded object. ">
<polygon fill="#ffffff" stroke="#000000" points="266.5,-1075.5 266.5,-1105.5 434.5,-1105.5 434.5,-1075.5 266.5,-1075.5"/>
<text text-anchor="start" x="274.5" y="-1093.5" font-family="Helvetica,sans-Serif" font-size="10.00" fill="#000000">Teuchos::RCP::rcpWithEmbedded</text>
<text text-anchor="middle" x="350.5" y="-1082.5" font-family="Helvetica,sans-Serif" font-size="10.00" fill="#000000">ObjPostDestroy</text>
</a>
</g>
</g>
<!-- Node9&#45;&gt;Node15 -->
<g id="edge7" class="edge">
<title>Node9&#45;&gt;Node15</title>
<path fill="none" stroke="#191970" d="M186.5486,-702.2251C189.7386,-755.3552 207.5732,-1010.1502 259,-1065.5 260.233,-1066.827 261.529,-1068.0862 262.8802,-1069.2809"/>
<polygon fill="#191970" stroke="#191970" points="261.0562,-1072.286 271.1703,-1075.4413 265.2314,-1066.6675 261.0562,-1072.286"/>
</g>
<!-- Node16 -->
<g id="node9" class="node">
<title>Node16</title>
<g id="a_node9"><a xlink:href="../../d5/d9a/class_teuchos_1_1_r_c_p.html#a506210a123b6e1747d910f037065bd73" target="_top" xlink:title="Create an RCP with and also put in an embedded object. ">
<polygon fill="#ffffff" stroke="#000000" points="259,-1037 259,-1056 442,-1056 442,-1037 259,-1037"/>
<text text-anchor="middle" x="350.5" y="-1044" font-family="Helvetica,sans-Serif" font-size="10.00" fill="#000000">Teuchos::RCP::rcpWithEmbeddedObj</text>
</a>
</g>
</g>
<!-- Node9&#45;&gt;Node16 -->
<g id="edge8" class="edge">
<title>Node9&#45;&gt;Node16</title>
<path fill="none" stroke="#191970" d="M186.7239,-702.26C190.6367,-752.3301 210.888,-979.8579 259,-1027.5 260.3078,-1028.795 261.6793,-1030.0125 263.1064,-1031.1569"/>
<polygon fill="#191970" stroke="#191970" points="261.5613,-1034.3319 271.8297,-1036.9415 265.4299,-1028.498 261.5613,-1034.3319"/>
</g>
<!-- Node17 -->
<g id="node10" class="node">
<title>Node17</title>
<g id="a_node10"><a xlink:href="../../d5/d9a/class_teuchos_1_1_r_c_p.html#abaa6bdcd39bac7dd5c12c3e0f49eba25" target="_top" xlink:title="Create a new RCP that inverts the ownership of parent and child. ">
<polygon fill="#ffffff" stroke="#000000" points="272,-987.5 272,-1017.5 429,-1017.5 429,-987.5 272,-987.5"/>
<text text-anchor="start" x="280" y="-1005.5" font-family="Helvetica,sans-Serif" font-size="10.00" fill="#000000">Teuchos::RCP::rcpWithInverted</text>
<text text-anchor="middle" x="350.5" y="-994.5" font-family="Helvetica,sans-Serif" font-size="10.00" fill="#000000">ObjOwnership</text>
</a>
</g>
</g>
<!-- Node9&#45;&gt;Node17 -->
<g id="edge9" class="edge">
<title>Node9&#45;&gt;Node17</title>
<path fill="none" stroke="#191970" d="M187.179,-702.2237C192.8478,-747.4257 218.6945,-936.5459 259,-977.5 260.4294,-978.9525 261.9345,-980.3229 263.5045,-981.6159"/>
<polygon fill="#191970" stroke="#191970" points="261.6474,-984.5882 271.8467,-987.4562 265.662,-978.8538 261.6474,-984.5882"/>
</g>
<!-- Node18 -->
<g id="node11" class="node">
<title>Node18</title>
<g id="a_node11"><a xlink:href="../../d5/d9a/class_teuchos_1_1_r_c_p.html#ae07a807743d25c57754a1988645ba791" target="_top" xlink:title="Allocate a new RCP object with a new RCPNode with memory pointing to the initial node. ">
<polygon fill="#ffffff" stroke="#000000" points="275.5,-949 275.5,-968 425.5,-968 425.5,-949 275.5,-949"/>
<text text-anchor="middle" x="350.5" y="-956" font-family="Helvetica,sans-Serif" font-size="10.00" fill="#000000">Teuchos::RCP::rcpCloneNode</text>
</a>
</g>
</g>
<!-- Node9&#45;&gt;Node18 -->
<g id="edge10" class="edge">
<title>Node9&#45;&gt;Node18</title>
<path fill="none" stroke="#191970" d="M187.4978,-702.0715C194.1505,-743.3693 222.3192,-905.7313 259,-939.5 261.3127,-941.6291 263.7994,-943.5447 266.4206,-945.267"/>
<polygon fill="#191970" stroke="#191970" points="264.7577,-948.347 275.2007,-950.1342 268.1516,-942.2247 264.7577,-948.347"/>
</g>
<!-- Node19 -->
<g id="node12" class="node">
<title>Node19</title>
<g id="a_node12"><a xlink:href="../../d5/d9a/class_teuchos_1_1_r_c_p.html#a8033d79aee37a9378d73f70eb025b05d" target="_top" xlink:title="Returns true if the underlying pointer is null. ">
<polygon fill="#ffffff" stroke="#000000" points="292.5,-911 292.5,-930 408.5,-930 408.5,-911 292.5,-911"/>
<text text-anchor="middle" x="350.5" y="-918" font-family="Helvetica,sans-Serif" font-size="10.00" fill="#000000">Teuchos::RCP::is_null</text>
</a>
</g>
</g>
<!-- Node9&#45;&gt;Node19 -->
<g id="edge11" class="edge">
<title>Node9&#45;&gt;Node19</title>
<path fill="none" stroke="#191970" d="M188.0387,-702.0834C196.1462,-739.3099 227.2084,-873.6306 259,-901.5 265.7368,-907.4056 273.8244,-911.6476 282.3668,-914.6688"/>
<polygon fill="#191970" stroke="#191970" points="281.5738,-918.0845 292.1568,-917.5848 283.572,-911.3758 281.5738,-918.0845"/>
</g>
<!-- Node20 -->
<g id="node13" class="node">
<title>Node20</title>
<g id="a_node13"><a xlink:href="../../d5/d9a/class_teuchos_1_1_r_c_p.html#ad792756b35ab5a2fa8c1d1d608763aec" target="_top" xlink:title="Returns true if p.get()!=NULL. ">
<polygon fill="#ffffff" stroke="#000000" points="291,-873 291,-892 410,-892 410,-873 291,-873"/>
<text text-anchor="middle" x="350.5" y="-880" font-family="Helvetica,sans-Serif" font-size="10.00" fill="#000000">Teuchos::RCP::nonnull</text>
</a>
</g>
</g>
<!-- Node9&#45;&gt;Node20 -->
<g id="edge12" class="edge">
<title>Node9&#45;&gt;Node20</title>
<path fill="none" stroke="#191970" d="M187.0355,-702.0763C190.7354,-731.3282 206.0491,-820.15 259,-863.5 265.426,-868.7608 272.9404,-872.6775 280.8511,-875.5772"/>
<polygon fill="#191970" stroke="#191970" points="280.0619,-878.9972 290.6504,-878.6317 282.1451,-872.3143 280.0619,-878.9972"/>
</g>
<!-- Node21 -->
<g id="node14" class="node">
<title>Node21</title>
<g id="a_node14"><a xlink:href="../../d5/d9a/class_teuchos_1_1_r_c_p.html#afab9d7e0e5480ec8b455e38de0eee49e" target="_top" xlink:title="Returns true if p.get()==NULL. ">
<polygon fill="#ffffff" stroke="#000000" points="283,-835 283,-854 418,-854 418,-835 283,-835"/>
<text text-anchor="middle" x="350.5" y="-842" font-family="Helvetica,sans-Serif" font-size="10.00" fill="#000000">Teuchos::RCP::operator==</text>
</a>
</g>
</g>
<!-- Node9&#45;&gt;Node21 -->
<g id="edge13" class="edge">
<title>Node9&#45;&gt;Node21</title>
<path fill="none" stroke="#191970" d="M188.2738,-702.0465C194.6896,-726.7767 215.3743,-793.2366 259,-825.5 263.4025,-828.7559 268.2346,-831.4835 273.3064,-833.7656"/>
<polygon fill="#191970" stroke="#191970" points="272.0652,-837.0383 282.6535,-837.41 274.6081,-830.5165 272.0652,-837.0383"/>
</g>
<!-- Node22 -->
<g id="node15" class="node">
<title>Node22</title>
<g id="a_node15"><a xlink:href="../../d5/d9a/class_teuchos_1_1_r_c_p.html#a4081b5c4ac5b9d630a695755a72771cc" target="_top" xlink:title="Returns true if p.get()!=NULL. ">
<polygon fill="#ffffff" stroke="#000000" points="284.5,-797 284.5,-816 416.5,-816 416.5,-797 284.5,-797"/>
<text text-anchor="middle" x="350.5" y="-804" font-family="Helvetica,sans-Serif" font-size="10.00" fill="#000000">Teuchos::RCP::operator!=</text>
</a>
</g>
</g>
<!-- Node9&#45;&gt;Node22 -->
<g id="edge14" class="edge">
<title>Node9&#45;&gt;Node22</title>
<path fill="none" stroke="#191970" d="M190.4588,-702.1396C200.0194,-721.6589 224.4628,-765.8385 259,-787.5 263.9309,-790.5926 269.2767,-793.1916 274.8242,-795.3745"/>
<polygon fill="#191970" stroke="#191970" points="273.7185,-798.6955 284.3133,-798.6692 276.0145,-792.0827 273.7185,-798.6955"/>
</g>
<!-- Node23 -->
<g id="node16" class="node">
<title>Node23</title>
<g id="a_node16"><a xlink:href="../../d5/d9a/class_teuchos_1_1_r_c_p.html#a61fc9f719ee13e5d961dcf47053883b4" target="_top" xlink:title="Implicit cast of underlying RCP type from T1* to T2*. ">
<polygon fill="#ffffff" stroke="#000000" points="270,-759 270,-778 431,-778 431,-759 270,-759"/>
<text text-anchor="middle" x="350.5" y="-766" font-family="Helvetica,sans-Serif" font-size="10.00" fill="#000000">Teuchos::RCP::rcp_implicit_cast</text>
</a>
</g>
</g>
<!-- Node9&#45;&gt;Node23 -->
<g id="edge15" class="edge">
<title>Node9&#45;&gt;Node23</title>
<path fill="none" stroke="#191970" d="M195.4083,-702.2351C208.4473,-715.1236 233.3219,-737.604 259,-749.5 264.3756,-751.9904 270.0792,-754.1569 275.9081,-756.0412"/>
<polygon fill="#191970" stroke="#191970" points="275.2184,-759.4866 285.7999,-758.9534 277.1954,-752.7716 275.2184,-759.4866"/>
</g>
<!-- Node24 -->
<g id="node17" class="node">
<title>Node24</title>
<g id="a_node17"><a xlink:href="../../d5/d9a/class_teuchos_1_1_r_c_p.html#a1c369381869737e67be8cab843b18076" target="_top" xlink:title="Static cast of underlying RCP type from T1* to T2*. ">
<polygon fill="#ffffff" stroke="#000000" points="273,-721 273,-740 428,-740 428,-721 273,-721"/>
<text text-anchor="middle" x="350.5" y="-728" font-family="Helvetica,sans-Serif" font-size="10.00" fill="#000000">Teuchos::RCP::rcp_static_cast</text>
</a>
</g>
</g>
<!-- Node9&#45;&gt;Node24 -->
<g id="edge16" class="edge">
<title>Node9&#45;&gt;Node24</title>
<path fill="none" stroke="#191970" d="M221.1858,-702.0368C233.1543,-705.1797 246.6306,-708.6079 259,-711.5 269.765,-714.0169 281.2819,-716.5401 292.3878,-718.8879"/>
<polygon fill="#191970" stroke="#191970" points="291.9335,-722.3685 302.4382,-720.9895 293.3663,-715.5167 291.9335,-722.3685"/>
</g>
<!-- Node25 -->
<g id="node18" class="node">
<title>Node25</title>
<g id="a_node18"><a xlink:href="../../d5/d9a/class_teuchos_1_1_r_c_p.html#a6931e6c2f74c9fa9467e5dc91c6cd983" target="_top" xlink:title="Constant cast of underlying RCP type from T1* to T2*. ">
<polygon fill="#ffffff" stroke="#000000" points="273,-683 273,-702 428,-702 428,-683 273,-683"/>
<text text-anchor="middle" x="350.5" y="-690" font-family="Helvetica,sans-Serif" font-size="10.00" fill="#000000">Teuchos::RCP::rcp_const_cast</text>
</a>
</g>
</g>
<!-- Node9&#45;&gt;Node25 -->
<g id="edge17" class="edge">
<title>Node9&#45;&gt;Node25</title>
<path fill="none" stroke="#191970" d="M223.3276,-692.5C235.2272,-692.5 248.9363,-692.5 262.8525,-692.5"/>
<polygon fill="#191970" stroke="#191970" points="262.9992,-696.0001 272.9992,-692.5 262.9992,-689.0001 262.9992,-696.0001"/>
</g>
<!-- Node26 -->
<g id="node19" class="node">
<title>Node26</title>
<g id="a_node19"><a xlink:href="../../d5/d9a/class_teuchos_1_1_r_c_p.html#a1580c807c6df3fdbcb953687b4ff60c7" target="_top" xlink:title="Dynamic cast of underlying RCP type from T1* to T2*. ">
<polygon fill="#ffffff" stroke="#000000" points="267,-645 267,-664 434,-664 434,-645 267,-645"/>
<text text-anchor="middle" x="350.5" y="-652" font-family="Helvetica,sans-Serif" font-size="10.00" fill="#000000">Teuchos::RCP::rcp_dynamic_cast</text>
</a>
</g>
</g>
<!-- Node9&#45;&gt;Node26 -->
<g id="edge18" class="edge">
<title>Node9&#45;&gt;Node26</title>
<path fill="none" stroke="#191970" d="M221.1858,-682.9632C233.1543,-679.8203 246.6306,-676.3921 259,-673.5 269.765,-670.9831 281.2819,-668.4599 292.3878,-666.1121"/>
<polygon fill="#191970" stroke="#191970" points="293.3663,-669.4833 302.4382,-664.0105 291.9335,-662.6315 293.3663,-669.4833"/>
</g>
<!-- Node27 -->
<g id="node20" class="node">
<title>Node27</title>
<g id="a_node20"><a xlink:href="../../d5/d9a/class_teuchos_1_1_r_c_p.html#addd19618c28d1cbc6959f346cee07a7f" target="_top" xlink:title="Set extra data associated with a RCP object. ">
<polygon fill="#ffffff" stroke="#000000" points="274.5,-607 274.5,-626 426.5,-626 426.5,-607 274.5,-607"/>
<text text-anchor="middle" x="350.5" y="-614" font-family="Helvetica,sans-Serif" font-size="10.00" fill="#000000">Teuchos::RCP::set_extra_data</text>
</a>
</g>
</g>
<!-- Node9&#45;&gt;Node27 -->
<g id="edge19" class="edge">
<title>Node9&#45;&gt;Node27</title>
<path fill="none" stroke="#191970" d="M195.4083,-682.7649C208.4473,-669.8764 233.3219,-647.396 259,-635.5 264.3756,-633.0096 270.0792,-630.8431 275.9081,-628.9588"/>
<polygon fill="#191970" stroke="#191970" points="277.1954,-632.2284 285.7999,-626.0466 275.2184,-625.5134 277.1954,-632.2284"/>
</g>
<!-- Node28 -->
<g id="node21" class="node">
<title>Node28</title>
<g id="a_node21"><a xlink:href="../../d5/d9a/class_teuchos_1_1_r_c_p.html#ab7f7cd634c8250ff0515bd55c5f3cde6" target="_top" xlink:title="Get a const reference to extra data associated with a RCP object. ">
<polygon fill="#ffffff" stroke="#000000" points="274.5,-569 274.5,-588 426.5,-588 426.5,-569 274.5,-569"/>
<text text-anchor="middle" x="350.5" y="-576" font-family="Helvetica,sans-Serif" font-size="10.00" fill="#000000">Teuchos::RCP::get_extra_data</text>
</a>
</g>
</g>
<!-- Node9&#45;&gt;Node28 -->
<g id="edge20" class="edge">
<title>Node9&#45;&gt;Node28</title>
<path fill="none" stroke="#191970" d="M190.4588,-682.8604C200.0194,-663.3411 224.4628,-619.1615 259,-597.5 262.3825,-595.3785 265.9602,-593.4894 269.6643,-591.8075"/>
<polygon fill="#191970" stroke="#191970" points="271.1061,-595.0005 279.0931,-588.0392 268.5083,-588.5004 271.1061,-595.0005"/>
</g>
<!-- Node29 -->
<g id="node22" class="node">
<title>Node29</title>
<g id="a_node22"><a xlink:href="../../d5/d9a/class_teuchos_1_1_r_c_p.html#a8978c29ca24e96cb61185507a0419dac" target="_top" xlink:title="Get a non&#45;const reference to extra data associated with a RCP object. ">
<polygon fill="#ffffff" stroke="#000000" points="277.5,-519.5 277.5,-549.5 423.5,-549.5 423.5,-519.5 277.5,-519.5"/>
<text text-anchor="start" x="285.5" y="-537.5" font-family="Helvetica,sans-Serif" font-size="10.00" fill="#000000">Teuchos::RCP::get_nonconst</text>
<text text-anchor="middle" x="350.5" y="-526.5" font-family="Helvetica,sans-Serif" font-size="10.00" fill="#000000">_extra_data</text>
</a>
</g>
</g>
<!-- Node9&#45;&gt;Node29 -->
<g id="edge21" class="edge">
<title>Node9&#45;&gt;Node29</title>
<path fill="none" stroke="#191970" d="M188.4892,-682.7487C195.2956,-658.1087 216.6016,-592.9364 259,-559.5 261.9538,-557.1705 265.1091,-555.0578 268.4062,-553.1415"/>
<polygon fill="#191970" stroke="#191970" points="270.1253,-556.1934 277.4248,-548.5143 266.9298,-549.9653 270.1253,-556.1934"/>
</g>
<!-- Node30 -->
<g id="node23" class="node">
<title>Node30</title>
<g id="a_node23"><a xlink:href="../../d5/d9a/class_teuchos_1_1_r_c_p.html#aac70269754b423e8e76d2e75b3dfbf96" target="_top" xlink:title="Get a pointer to const extra data (if it exists) associated with a RCP object. ">
<polygon fill="#ffffff" stroke="#000000" points="280.5,-470.5 280.5,-500.5 420.5,-500.5 420.5,-470.5 280.5,-470.5"/>
<text text-anchor="start" x="288.5" y="-488.5" font-family="Helvetica,sans-Serif" font-size="10.00" fill="#000000">Teuchos::RCP::get_optional</text>
<text text-anchor="middle" x="350.5" y="-477.5" font-family="Helvetica,sans-Serif" font-size="10.00" fill="#000000">_extra_data</text>
</a>
</g>
</g>
<!-- Node9&#45;&gt;Node30 -->
<g id="edge22" class="edge">
<title>Node9&#45;&gt;Node30</title>
<path fill="none" stroke="#191970" d="M186.9052,-682.9044C190.2793,-652.7035 204.8692,-558.7508 259,-510.5 262.6495,-507.247 266.683,-504.4122 270.9625,-501.9425"/>
<polygon fill="#191970" stroke="#191970" points="272.6897,-504.9915 280.0478,-497.3686 269.542,-498.7391 272.6897,-504.9915"/>
</g>
<!-- Node31 -->
<g id="node24" class="node">
<title>Node31</title>
<g id="a_node24"><a xlink:href="../../d5/d9a/class_teuchos_1_1_r_c_p.html#a7b838cf99afd0bb5f2ebc94ab8d73b59" target="_top" xlink:title="Get a pointer to non&#45;const extra data (if it exists) associated with a RCP object. ">
<polygon fill="#ffffff" stroke="#000000" points="280.5,-421.5 280.5,-451.5 420.5,-451.5 420.5,-421.5 280.5,-421.5"/>
<text text-anchor="start" x="288.5" y="-439.5" font-family="Helvetica,sans-Serif" font-size="10.00" fill="#000000">Teuchos::RCP::get_optional</text>
<text text-anchor="middle" x="350.5" y="-428.5" font-family="Helvetica,sans-Serif" font-size="10.00" fill="#000000">_nonconst_extra_data</text>
</a>
</g>
</g>
<!-- Node9&#45;&gt;Node31 -->
<g id="edge23" class="edge">
<title>Node9&#45;&gt;Node31</title>
<path fill="none" stroke="#191970" d="M187.7905,-682.8036C195.2993,-643.1348 225.4207,-493.7826 259,-461.5 262.5948,-458.044 266.6194,-455.0558 270.9218,-452.4731"/>
<polygon fill="#191970" stroke="#191970" points="272.8252,-455.4289 280.0946,-447.7213 269.6054,-449.2134 272.8252,-455.4289"/>
</g>
<!-- Node32 -->
<g id="node25" class="node">
<title>Node32</title>
<g id="a_node25"><a xlink:href="../../d5/d9a/class_teuchos_1_1_r_c_p.html#a62a1b34d2efe42b0a0fb4e20c1089f89" target="_top" xlink:title="Return a const reference to the underlying deallocator object. ">
<polygon fill="#ffffff" stroke="#000000" points="282,-383 282,-402 419,-402 419,-383 282,-383"/>
<text text-anchor="middle" x="350.5" y="-390" font-family="Helvetica,sans-Serif" font-size="10.00" fill="#000000">Teuchos::RCP::get_dealloc</text>
</a>
</g>
</g>
<!-- Node9&#45;&gt;Node32 -->
<g id="edge24" class="edge">
<title>Node9&#45;&gt;Node32</title>
<path fill="none" stroke="#191970" d="M187.1594,-682.8995C192.7399,-638.277 218.2494,-451.6586 259,-412.5 263.0303,-408.6271 267.6281,-405.4337 272.5682,-402.8071"/>
<polygon fill="#191970" stroke="#191970" points="274.0947,-405.9584 281.7816,-398.6671 271.2256,-399.5734 274.0947,-405.9584"/>
</g>
<!-- Node33 -->
<g id="node26" class="node">
<title>Node33</title>
<g id="a_node26"><a xlink:href="../../d5/d9a/class_teuchos_1_1_r_c_p.html#a67483a8eaf4d6a5f234e7bd6c971b009" target="_top" xlink:title="Return a non&#45;const reference to the underlying deallocator object. ">
<polygon fill="#ffffff" stroke="#000000" points="277.5,-333.5 277.5,-363.5 423.5,-363.5 423.5,-333.5 277.5,-333.5"/>
<text text-anchor="start" x="285.5" y="-351.5" font-family="Helvetica,sans-Serif" font-size="10.00" fill="#000000">Teuchos::RCP::get_nonconst</text>
<text text-anchor="middle" x="350.5" y="-340.5" font-family="Helvetica,sans-Serif" font-size="10.00" fill="#000000">_dealloc</text>
</a>
</g>
</g>
<!-- Node9&#45;&gt;Node33 -->
<g id="edge25" class="edge">
<title>Node9&#45;&gt;Node33</title>
<path fill="none" stroke="#191970" d="M186.8798,-682.9383C191.4897,-634.864 214.365,-420.0384 259,-373.5 261.8675,-370.5102 265.055,-367.8666 268.4719,-365.53"/>
<polygon fill="#191970" stroke="#191970" points="270.5108,-368.3928 277.3864,-360.3319 266.9847,-362.3457 270.5108,-368.3928"/>
</g>
<!-- Node34 -->
<g id="node27" class="node">
<title>Node34</title>
<g id="a_node27"><a xlink:href="../../d5/d9a/class_teuchos_1_1_r_c_p.html#ac7868e0bffe12f3a8c82daa61cd4cefb" target="_top" xlink:title="Return a pointer to the underlying const deallocator object if it exists. ">
<polygon fill="#ffffff" stroke="#000000" points="280.5,-284.5 280.5,-314.5 420.5,-314.5 420.5,-284.5 280.5,-284.5"/>
<text text-anchor="start" x="288.5" y="-302.5" font-family="Helvetica,sans-Serif" font-size="10.00" fill="#000000">Teuchos::RCP::get_optional</text>
<text text-anchor="middle" x="350.5" y="-291.5" font-family="Helvetica,sans-Serif" font-size="10.00" fill="#000000">_dealloc</text>
</a>
</g>
</g>
<!-- Node9&#45;&gt;Node34 -->
<g id="edge26" class="edge">
<title>Node9&#45;&gt;Node34</title>
<path fill="none" stroke="#191970" d="M186.5685,-682.904C189.8638,-630.4794 208.1671,-379.0703 259,-324.5 262.6252,-320.6083 266.7919,-317.3007 271.306,-314.4916"/>
<polygon fill="#191970" stroke="#191970" points="273.1733,-317.463 280.3638,-309.6818 269.8903,-311.2806 273.1733,-317.463"/>
</g>
<!-- Node35 -->
<g id="node28" class="node">
<title>Node35</title>
<g id="a_node28"><a xlink:href="../../d5/d9a/class_teuchos_1_1_r_c_p.html#a40a73590cabeeb6ac3556981e068bd5d" target="_top" xlink:title="Return a pointer to the underlying non&#45;const deallocator object if it exists. ">
<polygon fill="#ffffff" stroke="#000000" points="280.5,-235.5 280.5,-265.5 420.5,-265.5 420.5,-235.5 280.5,-235.5"/>
<text text-anchor="start" x="288.5" y="-253.5" font-family="Helvetica,sans-Serif" font-size="10.00" fill="#000000">Teuchos::RCP::get_optional</text>
<text text-anchor="middle" x="350.5" y="-242.5" font-family="Helvetica,sans-Serif" font-size="10.00" fill="#000000">_nonconst_dealloc</text>
</a>
</g>
</g>
<!-- Node9&#45;&gt;Node35 -->
<g id="edge27" class="edge">
<title>Node9&#45;&gt;Node35</title>
<path fill="none" stroke="#191970" d="M186.331,-682.776C188.4565,-626.0397 201.9662,-338.1266 259,-275.5 262.5811,-271.5677 266.7149,-268.2298 271.2051,-265.3987"/>
<polygon fill="#191970" stroke="#191970" points="273.0715,-268.3693 280.2274,-260.5562 269.7611,-262.2015 273.0715,-268.3693"/>
</g>
<!-- Node36 -->
<g id="node29" class="node">
<title>Node36</title>
<g id="a_node29"><a xlink:href="../../d5/d9a/class_teuchos_1_1_r_c_p.html#afd9ce82fd86820b298f9c3847d585708" target="_top" xlink:title="Get a const reference to an embedded object that was set by calling rcpWithEmbeddedObjPreDestroy(), rcpWithEmbeddedObjPostDestory(), or rcpWithEmbeddedObj(). ">
<polygon fill="#ffffff" stroke="#000000" points="269,-197 269,-216 432,-216 432,-197 269,-197"/>
<text text-anchor="middle" x="350.5" y="-204" font-family="Helvetica,sans-Serif" font-size="10.00" fill="#000000">Teuchos::RCP::getEmbeddedObj</text>
</a>
</g>
</g>
<!-- Node9&#45;&gt;Node36 -->
<g id="edge28" class="edge">
<title>Node9&#45;&gt;Node36</title>
<path fill="none" stroke="#191970" d="M186.0872,-682.8041C186.8338,-622.1859 193.869,-295.6475 259,-226.5 260.5852,-224.817 262.2767,-223.2592 264.0576,-221.818"/>
<polygon fill="#191970" stroke="#191970" points="266.041,-224.7021 272.3876,-216.2184 262.1358,-218.8926 266.041,-224.7021"/>
</g>
<!-- Node37 -->
<g id="node30" class="node">
<title>Node37</title>
<g id="a_node30"><a xlink:href="../../d5/d9a/class_teuchos_1_1_r_c_p.html#a5dfd3a9f656d730dea2902f08a765811" target="_top" xlink:title="Get a non&#45;const reference to an embedded object that was set by calling rcpWithEmbeddedObjPreDestroy(...">
<polygon fill="#ffffff" stroke="#000000" points="279,-147.5 279,-177.5 422,-177.5 422,-147.5 279,-147.5"/>
<text text-anchor="start" x="287" y="-165.5" font-family="Helvetica,sans-Serif" font-size="10.00" fill="#000000">Teuchos::RCP::getNonconst</text>
<text text-anchor="middle" x="350.5" y="-154.5" font-family="Helvetica,sans-Serif" font-size="10.00" fill="#000000">EmbeddedObj</text>
</a>
</g>
</g>
<!-- Node9&#45;&gt;Node37 -->
<g id="edge29" class="edge">
<title>Node9&#45;&gt;Node37</title>
<path fill="none" stroke="#191970" d="M186.7643,-682.8127C192.1091,-616.1065 224.6806,-226.3293 259,-187.5 262.2376,-183.8369 265.9549,-180.6872 269.997,-177.981"/>
<polygon fill="#191970" stroke="#191970" points="271.7411,-181.0156 278.7005,-173.0269 268.2783,-174.932 271.7411,-181.0156"/>
</g>
<!-- Node38 -->
<g id="node31" class="node">
<title>Node38</title>
<g id="a_node31"><a xlink:href="../../d5/d9a/class_teuchos_1_1_r_c_p.html#ae35995646037935daf4f98375cbb7ae3" target="_top" xlink:title="Get an optional Ptr to a const embedded object if it was set by calling rcpWithEmbeddedObjPreDestroy(...">
<polygon fill="#ffffff" stroke="#000000" points="282,-98.5 282,-128.5 419,-128.5 419,-98.5 282,-98.5"/>
<text text-anchor="start" x="290" y="-116.5" font-family="Helvetica,sans-Serif" font-size="10.00" fill="#000000">Teuchos::RCP::getOptional</text>
<text text-anchor="middle" x="350.5" y="-105.5" font-family="Helvetica,sans-Serif" font-size="10.00" fill="#000000">EmbeddedObj</text>
</a>
</g>
</g>
<!-- Node9&#45;&gt;Node38 -->
<g id="edge30" class="edge">
<title>Node9&#45;&gt;Node38</title>
<path fill="none" stroke="#191970" d="M186.6365,-682.7947C191.3369,-612.3823 221.5239,-181.4408 259,-138.5 262.954,-133.9695 267.6416,-130.2228 272.7732,-127.1284"/>
<polygon fill="#191970" stroke="#191970" points="274.4743,-130.1895 281.7772,-122.5136 271.2815,-123.9601 274.4743,-130.1895"/>
</g>
<!-- Node39 -->
<g id="node32" class="node">
<title>Node39</title>
<g id="a_node32"><a xlink:href="../../d5/d9a/class_teuchos_1_1_r_c_p.html#a1fcb0b191b4d3f13cd7e2c139dcc4d8e" target="_top" xlink:title="Get an optional Ptr to a non&#45;const embedded object if it was set by calling rcpWithEmbeddedObjPreDest...">
<polygon fill="#ffffff" stroke="#000000" points="282,-49.5 282,-79.5 419,-79.5 419,-49.5 282,-49.5"/>
<text text-anchor="start" x="290" y="-67.5" font-family="Helvetica,sans-Serif" font-size="10.00" fill="#000000">Teuchos::RCP::getOptional</text>
<text text-anchor="middle" x="350.5" y="-56.5" font-family="Helvetica,sans-Serif" font-size="10.00" fill="#000000">NonconstEmbeddedObj</text>
</a>
</g>
</g>
<!-- Node9&#45;&gt;Node39 -->
<g id="edge31" class="edge">
<title>Node9&#45;&gt;Node39</title>
<path fill="none" stroke="#191970" d="M186.5225,-682.8961C190.6072,-609.3195 218.3377,-136.5902 259,-89.5 262.93,-84.9487 267.6006,-81.1871 272.7204,-78.0826"/>
<polygon fill="#191970" stroke="#191970" points="274.4206,-81.144 281.7094,-73.4548 271.2164,-74.9203 274.4206,-81.144"/>
</g>
<!-- Node40 -->
<g id="node33" class="node">
<title>Node40</title>
<g id="a_node33"><a xlink:href="../../d3/d74/namespace_teuchos.html#a36781a62aaf40511a8eb5a8c8d3914f9" target="_top" xlink:title="Get the parent back from an inverted ownership RCP. ">
<polygon fill="#ffffff" stroke="#000000" points="265.5,-.5 265.5,-30.5 435.5,-30.5 435.5,-.5 265.5,-.5"/>
<text text-anchor="start" x="273.5" y="-18.5" font-family="Helvetica,sans-Serif" font-size="10.00" fill="#000000">Teuchos::getInvertedObjOwnership</text>
<text text-anchor="middle" x="350.5" y="-7.5" font-family="Helvetica,sans-Serif" font-size="10.00" fill="#000000">Parent</text>
</a>
</g>
</g>
<!-- Node9&#45;&gt;Node40 -->
<g id="edge32" class="edge">
<title>Node9&#45;&gt;Node40</title>
<path fill="none" stroke="#191970" d="M186.444,-682.618C190.0273,-604.75 215.2156,-91.6683 259,-40.5 260.0372,-39.2879 261.1269,-38.1317 262.2637,-37.029"/>
<polygon fill="#191970" stroke="#191970" points="264.7872,-39.4913 270.3919,-30.5002 260.4036,-34.0338 264.7872,-39.4913"/>
</g>
</g>
</svg>
