<?xml version="1.0" encoding="UTF-8" standalone="no"?>
<!DOCTYPE svg PUBLIC "-//W3C//DTD SVG 1.1//EN"
 "http://www.w3.org/Graphics/SVG/1.1/DTD/svg11.dtd">
<!-- Generated by graphviz version 2.40.1 (20161225.0304)
 -->
<!-- Title: fmi2_xml_get_real_variable_start Pages: 1 -->
<svg width="457pt" height="39pt"
 viewBox="0.00 0.00 457.00 39.00" xmlns="http://www.w3.org/2000/svg" xmlns:xlink="http://www.w3.org/1999/xlink">
<g id="graph0" class="graph" transform="scale(1 1) rotate(0) translate(4 35)">
<title>fmi2_xml_get_real_variable_start</title>
<polygon fill="#ffffff" stroke="transparent" points="-4,4 -4,-35 453,-35 453,4 -4,4"/>
<!-- Node63 -->
<g id="node1" class="node">
<title>Node63</title>
<polygon fill="#bfbfbf" stroke="#000000" points="0,-.5 0,-30.5 135,-30.5 135,-.5 0,-.5"/>
<text text-anchor="start" x="8" y="-18.5" font-family="Helvetica,sans-Serif" font-size="10.00" fill="#000000">fmi2_xml_get_real_variable</text>
<text text-anchor="middle" x="67.5" y="-7.5" font-family="Helvetica,sans-Serif" font-size="10.00" fill="#000000">_start</text>
</g>
<!-- Node64 -->
<g id="node2" class="node">
<title>Node64</title>
<g id="a_node2"><a xlink:href="../../db/d66/group__fmi2__import__variables.html#ga09bc24485a8ebdab4f2e7cdc6ab7d425" target="_top" xlink:title="Get the variable start attribute. ">
<polygon fill="#ffffff" stroke="#000000" points="171,-.5 171,-30.5 278,-30.5 278,-.5 171,-.5"/>
<text text-anchor="start" x="179" y="-18.5" font-family="Helvetica,sans-Serif" font-size="10.00" fill="#000000">fmi2_import_get_real</text>
<text text-anchor="middle" x="224.5" y="-7.5" font-family="Helvetica,sans-Serif" font-size="10.00" fill="#000000">_variable_start</text>
</a>
</g>
</g>
<!-- Node63&#45;&gt;Node64 -->
<g id="edge1" class="edge">
<title>Node63&#45;&gt;Node64</title>
<path fill="none" stroke="#191970" d="M145.709,-15.5C154.1433,-15.5 162.5822,-15.5 170.636,-15.5"/>
<polygon fill="#191970" stroke="#191970" points="145.4494,-12.0001 135.4494,-15.5 145.4493,-19.0001 145.4494,-12.0001"/>
</g>
<!-- Node65 -->
<g id="node3" class="node">
<title>Node65</title>
<g id="a_node3"><a xlink:href="../../df/d24/_f_m_i_impl_8c.html#a23c841fcb393a01d04a0327a30af830b" target="_top" xlink:title="getFMI2ModelVariableStart\lValue">
<polygon fill="#ffffff" stroke="#000000" points="314,-.5 314,-30.5 449,-30.5 449,-.5 314,-.5"/>
<text text-anchor="start" x="322" y="-18.5" font-family="Helvetica,sans-Serif" font-size="10.00" fill="#000000">getFMI2ModelVariableStart</text>
<text text-anchor="middle" x="381.5" y="-7.5" font-family="Helvetica,sans-Serif" font-size="10.00" fill="#000000">Value</text>
</a>
</g>
</g>
<!-- Node64&#45;&gt;Node65 -->
<g id="edge2" class="edge">
<title>Node64&#45;&gt;Node65</title>
<path fill="none" stroke="#191970" d="M288.279,-15.5C296.7503,-15.5 305.4589,-15.5 313.9907,-15.5"/>
<polygon fill="#191970" stroke="#191970" points="288.0914,-12.0001 278.0914,-15.5 288.0913,-19.0001 288.0914,-12.0001"/>
</g>
</g>
</svg>
