<?xml version="1.0" encoding="UTF-8" standalone="no"?>
<!DOCTYPE svg PUBLIC "-//W3C//DTD SVG 1.1//EN"
 "http://www.w3.org/Graphics/SVG/1.1/DTD/svg11.dtd">
<!-- Generated by graphviz version 2.40.1 (20161225.0304)
 -->
<!-- Title: fmi2_xml_get_boolean_variable_start Pages: 1 -->
<svg width="283pt" height="39pt"
 viewBox="0.00 0.00 283.00 39.00" xmlns="http://www.w3.org/2000/svg" xmlns:xlink="http://www.w3.org/1999/xlink">
<g id="graph0" class="graph" transform="scale(1 1) rotate(0) translate(4 35)">
<title>fmi2_xml_get_boolean_variable_start</title>
<polygon fill="#ffffff" stroke="transparent" points="-4,4 -4,-35 279,-35 279,4 -4,4"/>
<!-- Node2 -->
<g id="node1" class="node">
<title>Node2</title>
<polygon fill="#bfbfbf" stroke="#000000" points="0,-.5 0,-30.5 114,-30.5 114,-.5 0,-.5"/>
<text text-anchor="start" x="8" y="-18.5" font-family="Helvetica,sans-Serif" font-size="10.00" fill="#000000">fmi2_xml_get_boolean</text>
<text text-anchor="middle" x="57" y="-7.5" font-family="Helvetica,sans-Serif" font-size="10.00" fill="#000000">_variable_start</text>
</g>
<!-- Node3 -->
<g id="node2" class="node">
<title>Node3</title>
<g id="a_node2"><a xlink:href="../../db/d66/group__fmi2__import__variables.html#ga4f5b1b920c072b54a9a31771d23203fb" target="_top" xlink:title="Get start value for the variable. ">
<polygon fill="#ffffff" stroke="#000000" points="150,-.5 150,-30.5 275,-30.5 275,-.5 150,-.5"/>
<text text-anchor="start" x="158" y="-18.5" font-family="Helvetica,sans-Serif" font-size="10.00" fill="#000000">fmi2_import_get_boolean</text>
<text text-anchor="middle" x="212.5" y="-7.5" font-family="Helvetica,sans-Serif" font-size="10.00" fill="#000000">_variable_start</text>
</a>
</g>
</g>
<!-- Node2&#45;&gt;Node3 -->
<g id="edge1" class="edge">
<title>Node2&#45;&gt;Node3</title>
<path fill="none" stroke="#191970" d="M124.0271,-15.5C132.6444,-15.5 141.4409,-15.5 149.9821,-15.5"/>
<polygon fill="#191970" stroke="#191970" points="124.0195,-12.0001 114.0195,-15.5 124.0195,-19.0001 124.0195,-12.0001"/>
</g>
</g>
</svg>
