<?xml version="1.0" encoding="UTF-8" standalone="no"?>
<!DOCTYPE svg PUBLIC "-//W3C//DTD SVG 1.1//EN"
 "http://www.w3.org/Graphics/SVG/1.1/DTD/svg11.dtd">
<!-- Generated by graphviz version 2.40.1 (20161225.0304)
 -->
<!-- Title: ZeroMQ_handleRequest Pages: 1 -->
<svg width="456pt" height="256pt"
 viewBox="0.00 0.00 456.00 256.00" xmlns="http://www.w3.org/2000/svg" xmlns:xlink="http://www.w3.org/1999/xlink">
<g id="graph0" class="graph" transform="scale(1 1) rotate(0) translate(4 252)">
<title>ZeroMQ_handleRequest</title>
<polygon fill="#ffffff" stroke="transparent" points="-4,4 -4,-252 452,-252 452,4 -4,4"/>
<!-- Node41 -->
<g id="node1" class="node">
<title>Node41</title>
<polygon fill="#bfbfbf" stroke="#000000" points="0,-57.5 0,-76.5 122,-76.5 122,-57.5 0,-57.5"/>
<text text-anchor="middle" x="61" y="-64.5" font-family="Helvetica,sans-Serif" font-size="10.00" fill="#000000">ZeroMQ_handleRequest</text>
</g>
<!-- Node42 -->
<g id="node2" class="node">
<title>Node42</title>
<g id="a_node2"><a xlink:href="../../d3/dcb/zeromqimpl_8c.html#a882e5817b0325216f1736ac2c46ecaad" target="_top" xlink:title="ZeroMQImpl_handleRequest">
<polygon fill="#ffffff" stroke="#000000" points="158,-114.5 158,-133.5 299,-133.5 299,-114.5 158,-114.5"/>
<text text-anchor="middle" x="228.5" y="-121.5" font-family="Helvetica,sans-Serif" font-size="10.00" fill="#000000">ZeroMQImpl_handleRequest</text>
</a>
</g>
</g>
<!-- Node41&#45;&gt;Node42 -->
<g id="edge1" class="edge">
<title>Node41&#45;&gt;Node42</title>
<path fill="none" stroke="#191970" d="M83.4776,-76.6204C102.9745,-84.7678 132.0615,-96.4528 158,-105 165.1155,-107.3447 172.7032,-109.6194 180.1657,-111.7316"/>
<polygon fill="#191970" stroke="#191970" points="179.2827,-115.1187 189.8536,-114.4067 181.146,-108.3712 179.2827,-115.1187"/>
</g>
<!-- Node50 -->
<g id="node10" class="node">
<title>Node50</title>
<g id="a_node10"><a xlink:href="../../d7/dcd/group__core_utils.html#gaeccaa0b46edead0608a6982dddb917ec" target="_top" xlink:title="Allocate memory for a Modelica string which is used as return argument of an external Modelica functi...">
<polygon fill="#ffffff" stroke="#000000" points="170.5,-76.5 170.5,-95.5 286.5,-95.5 286.5,-76.5 170.5,-76.5"/>
<text text-anchor="middle" x="228.5" y="-83.5" font-family="Helvetica,sans-Serif" font-size="10.00" fill="#000000">ModelicaAllocateString</text>
</a>
</g>
</g>
<!-- Node41&#45;&gt;Node50 -->
<g id="edge9" class="edge">
<title>Node41&#45;&gt;Node50</title>
<path fill="none" stroke="#191970" d="M122.4197,-73.967C134.7968,-75.371 147.8759,-76.8546 160.4637,-78.2824"/>
<polygon fill="#191970" stroke="#191970" points="160.0999,-81.7635 170.4307,-79.413 160.889,-74.8082 160.0999,-81.7635"/>
</g>
<!-- Node51 -->
<g id="node11" class="node">
<title>Node51</title>
<g id="a_node11"><a xlink:href="../../d6/d84/3rd_party_2open62541_2open62541_8h.html#aa383452fe445bfae989358c9d7d96f4f" target="_top" xlink:title="strlen">
<polygon fill="#ffffff" stroke="#000000" points="208,-38.5 208,-57.5 249,-57.5 249,-38.5 208,-38.5"/>
<text text-anchor="middle" x="228.5" y="-45.5" font-family="Helvetica,sans-Serif" font-size="10.00" fill="#000000">strlen</text>
</a>
</g>
</g>
<!-- Node41&#45;&gt;Node51 -->
<g id="edge10" class="edge">
<title>Node41&#45;&gt;Node51</title>
<path fill="none" stroke="#191970" d="M122.4197,-60.033C148.1389,-57.1156 176.8892,-53.8544 197.9645,-51.4637"/>
<polygon fill="#191970" stroke="#191970" points="198.3959,-54.9373 207.9376,-50.3324 197.6068,-47.9819 198.3959,-54.9373"/>
</g>
<!-- Node52 -->
<g id="node12" class="node">
<title>Node52</title>
<g id="a_node12"><a xlink:href="../../dc/ddc/3rd_party_2flex-2_85_835_2parse_8c.html#af07d89f5ceaea0c7c8252cc41fd75f37" target="_top" xlink:title="free">
<polygon fill="#ffffff" stroke="#000000" points="212,-.5 212,-19.5 245,-19.5 245,-.5 212,-.5"/>
<text text-anchor="middle" x="228.5" y="-7.5" font-family="Helvetica,sans-Serif" font-size="10.00" fill="#000000">free</text>
</a>
</g>
</g>
<!-- Node41&#45;&gt;Node52 -->
<g id="edge11" class="edge">
<title>Node41&#45;&gt;Node52</title>
<path fill="none" stroke="#191970" d="M83.4776,-57.3796C102.9745,-49.2322 132.0615,-37.5472 158,-29 172.3449,-24.2731 188.6085,-19.8305 201.8975,-16.4314"/>
<polygon fill="#191970" stroke="#191970" points="202.9746,-19.7698 211.8237,-13.9437 201.2728,-12.9798 202.9746,-19.7698"/>
</g>
<!-- Node43 -->
<g id="node3" class="node">
<title>Node43</title>
<g id="a_node3"><a xlink:href="../../d9/de6/zmq_8h.html#a8c888cf117d859ae0d669e95cf8b64c2" target="_top" xlink:title="zmq_msg_init">
<polygon fill="#ffffff" stroke="#000000" points="353,-228.5 353,-247.5 430,-247.5 430,-228.5 353,-228.5"/>
<text text-anchor="middle" x="391.5" y="-235.5" font-family="Helvetica,sans-Serif" font-size="10.00" fill="#000000">zmq_msg_init</text>
</a>
</g>
</g>
<!-- Node42&#45;&gt;Node43 -->
<g id="edge2" class="edge">
<title>Node42&#45;&gt;Node43</title>
<path fill="none" stroke="#191970" d="M236.9014,-133.7681C253.7087,-152.7459 293.4403,-194.8503 335,-219 338.6239,-221.1058 342.5152,-223.0208 346.4987,-224.7527"/>
<polygon fill="#191970" stroke="#191970" points="345.292,-228.0393 355.8783,-228.4652 347.8682,-221.5306 345.292,-228.0393"/>
</g>
<!-- Node44 -->
<g id="node4" class="node">
<title>Node44</title>
<g id="a_node4"><a xlink:href="../../d9/de6/zmq_8h.html#ac8d32ac0426e3f13fc797fa54fee8df9" target="_top" xlink:title="zmq_msg_recv">
<polygon fill="#ffffff" stroke="#000000" points="350,-190.5 350,-209.5 433,-209.5 433,-190.5 350,-190.5"/>
<text text-anchor="middle" x="391.5" y="-197.5" font-family="Helvetica,sans-Serif" font-size="10.00" fill="#000000">zmq_msg_recv</text>
</a>
</g>
</g>
<!-- Node42&#45;&gt;Node44 -->
<g id="edge3" class="edge">
<title>Node42&#45;&gt;Node44</title>
<path fill="none" stroke="#191970" d="M244.3235,-133.5513C264.7683,-145.6369 301.6965,-166.6079 335,-181 339.9873,-183.1553 345.3053,-185.2256 350.6086,-187.1553"/>
<polygon fill="#191970" stroke="#191970" points="349.4691,-190.4646 360.0639,-190.4646 351.7815,-183.8575 349.4691,-190.4646"/>
</g>
<!-- Node45 -->
<g id="node5" class="node">
<title>Node45</title>
<g id="a_node5"><a xlink:href="../../dc/ddc/3rd_party_2flex-2_85_835_2parse_8c.html#a5faf6a2d99f50a4655dd390199a8db7b" target="_top" xlink:title="malloc">
<polygon fill="#ffffff" stroke="#000000" points="369,-152.5 369,-171.5 414,-171.5 414,-152.5 369,-152.5"/>
<text text-anchor="middle" x="391.5" y="-159.5" font-family="Helvetica,sans-Serif" font-size="10.00" fill="#000000">malloc</text>
</a>
</g>
</g>
<!-- Node42&#45;&gt;Node45 -->
<g id="edge4" class="edge">
<title>Node42&#45;&gt;Node45</title>
<path fill="none" stroke="#191970" d="M269.6318,-133.589C297.3173,-140.0433 333.3175,-148.436 358.997,-154.4226"/>
<polygon fill="#191970" stroke="#191970" points="358.4411,-157.8868 368.9746,-156.7487 360.0304,-151.0696 358.4411,-157.8868"/>
</g>
<!-- Node46 -->
<g id="node6" class="node">
<title>Node46</title>
<g id="a_node6"><a xlink:href="../../d6/d84/3rd_party_2open62541_2open62541_8h.html#a9bb523029391a4525c52a8e90e877692" target="_top" xlink:title="memcpy">
<polygon fill="#ffffff" stroke="#000000" points="364.5,-114.5 364.5,-133.5 418.5,-133.5 418.5,-114.5 364.5,-114.5"/>
<text text-anchor="middle" x="391.5" y="-121.5" font-family="Helvetica,sans-Serif" font-size="10.00" fill="#000000">memcpy</text>
</a>
</g>
</g>
<!-- Node42&#45;&gt;Node46 -->
<g id="edge5" class="edge">
<title>Node42&#45;&gt;Node46</title>
<path fill="none" stroke="#191970" d="M299.0462,-124C317.9616,-124 337.6788,-124 354.0217,-124"/>
<polygon fill="#191970" stroke="#191970" points="354.2318,-127.5001 364.2318,-124 354.2318,-120.5001 354.2318,-127.5001"/>
</g>
<!-- Node47 -->
<g id="node7" class="node">
<title>Node47</title>
<g id="a_node7"><a xlink:href="../../d9/de6/zmq_8h.html#aabc235325f4161f00acf0657e2e24d83" target="_top" xlink:title="zmq_msg_data">
<polygon fill="#ffffff" stroke="#000000" points="350,-76.5 350,-95.5 433,-95.5 433,-76.5 350,-76.5"/>
<text text-anchor="middle" x="391.5" y="-83.5" font-family="Helvetica,sans-Serif" font-size="10.00" fill="#000000">zmq_msg_data</text>
</a>
</g>
</g>
<!-- Node42&#45;&gt;Node47 -->
<g id="edge6" class="edge">
<title>Node42&#45;&gt;Node47</title>
<path fill="none" stroke="#191970" d="M269.6318,-114.411C291.2383,-109.3739 317.909,-103.1562 340.7858,-97.8229"/>
<polygon fill="#191970" stroke="#191970" points="341.7198,-101.1991 350.664,-95.5201 340.1305,-94.3819 341.7198,-101.1991"/>
</g>
<!-- Node48 -->
<g id="node8" class="node">
<title>Node48</title>
<g id="a_node8"><a xlink:href="../../d9/de6/zmq_8h.html#a14cc42a7330a4b174dc3b735afd2adcc" target="_top" xlink:title="zmq_msg_close">
<polygon fill="#ffffff" stroke="#000000" points="347.5,-38.5 347.5,-57.5 435.5,-57.5 435.5,-38.5 347.5,-38.5"/>
<text text-anchor="middle" x="391.5" y="-45.5" font-family="Helvetica,sans-Serif" font-size="10.00" fill="#000000">zmq_msg_close</text>
</a>
</g>
</g>
<!-- Node42&#45;&gt;Node48 -->
<g id="edge7" class="edge">
<title>Node42&#45;&gt;Node48</title>
<path fill="none" stroke="#191970" d="M277.7105,-114.4936C285.1252,-112.0099 292.468,-108.8963 299,-105 318.98,-93.0822 315.3937,-79.5231 335,-67 338.1507,-64.9876 341.5372,-63.1648 345.0303,-61.5181"/>
<polygon fill="#191970" stroke="#191970" points="346.576,-64.6651 354.4369,-57.5617 343.862,-58.2126 346.576,-64.6651"/>
</g>
<!-- Node49 -->
<g id="node9" class="node">
<title>Node49</title>
<g id="a_node9"><a xlink:href="../../d3/dc8/class_teuchos_1_1_comm.html#a346c8703a1ee3cb18cf3c812678cb01c" target="_top" xlink:title="Get the number of processes in the communicator. ">
<polygon fill="#ffffff" stroke="#000000" points="335,-.5 335,-19.5 448,-19.5 448,-.5 335,-.5"/>
<text text-anchor="middle" x="391.5" y="-7.5" font-family="Helvetica,sans-Serif" font-size="10.00" fill="#000000">Teuchos::Comm::size</text>
</a>
</g>
</g>
<!-- Node42&#45;&gt;Node49 -->
<g id="edge8" class="edge">
<title>Node42&#45;&gt;Node49</title>
<path fill="none" stroke="#191970" d="M283.245,-114.478C288.9326,-112.0061 294.3299,-108.9004 299,-105 327.6865,-81.0412 307.0594,-53.8246 335,-29 336.76,-27.4363 338.6534,-26.0004 340.6426,-24.682"/>
<polygon fill="#191970" stroke="#191970" points="342.7788,-27.5022 349.8608,-19.6221 339.4104,-21.3658 342.7788,-27.5022"/>
</g>
</g>
</svg>
