<?xml version="1.0" encoding="UTF-8" standalone="no"?>
<!DOCTYPE svg PUBLIC "-//W3C//DTD SVG 1.1//EN"
 "http://www.w3.org/Graphics/SVG/1.1/DTD/svg11.dtd">
<!-- Generated by graphviz version 2.40.1 (20161225.0304)
 -->
<!-- Title: ZeroMQ_close Pages: 1 -->
<svg width="188pt" height="66pt"
 viewBox="0.00 0.00 188.00 66.00" xmlns="http://www.w3.org/2000/svg" xmlns:xlink="http://www.w3.org/1999/xlink">
<g id="graph0" class="graph" transform="scale(1 1) rotate(0) translate(4 62)">
<title>ZeroMQ_close</title>
<polygon fill="#ffffff" stroke="transparent" points="-4,4 -4,-62 184,-62 184,4 -4,4"/>
<!-- Node35 -->
<g id="node1" class="node">
<title>Node35</title>
<polygon fill="#bfbfbf" stroke="#000000" points="0,-19.5 0,-38.5 80,-38.5 80,-19.5 0,-19.5"/>
<text text-anchor="middle" x="40" y="-26.5" font-family="Helvetica,sans-Serif" font-size="10.00" fill="#000000">ZeroMQ_close</text>
</g>
<!-- Node36 -->
<g id="node2" class="node">
<title>Node36</title>
<g id="a_node2"><a xlink:href="../../dc/ddc/3rd_party_2flex-2_85_835_2parse_8c.html#af07d89f5ceaea0c7c8252cc41fd75f37" target="_top" xlink:title="free">
<polygon fill="#ffffff" stroke="#000000" points="131.5,-38.5 131.5,-57.5 164.5,-57.5 164.5,-38.5 131.5,-38.5"/>
<text text-anchor="middle" x="148" y="-45.5" font-family="Helvetica,sans-Serif" font-size="10.00" fill="#000000">free</text>
</a>
</g>
</g>
<!-- Node35&#45;&gt;Node36 -->
<g id="edge1" class="edge">
<title>Node35&#45;&gt;Node36</title>
<path fill="none" stroke="#191970" d="M80.2152,-36.0749C93.9452,-38.4904 108.9493,-41.13 121.343,-43.3103"/>
<polygon fill="#191970" stroke="#191970" points="121.0096,-46.8054 131.4648,-45.091 122.2225,-39.9112 121.0096,-46.8054"/>
</g>
<!-- Node37 -->
<g id="node3" class="node">
<title>Node37</title>
<g id="a_node3"><a xlink:href="../../d9/de6/zmq_8h.html#a7f3288b9a1241ae2d2cc2a41324a7dd5" target="_top" xlink:title="zmq_close">
<polygon fill="#ffffff" stroke="#000000" points="116,-.5 116,-19.5 180,-19.5 180,-.5 116,-.5"/>
<text text-anchor="middle" x="148" y="-7.5" font-family="Helvetica,sans-Serif" font-size="10.00" fill="#000000">zmq_close</text>
</a>
</g>
</g>
<!-- Node35&#45;&gt;Node37 -->
<g id="edge2" class="edge">
<title>Node35&#45;&gt;Node37</title>
<path fill="none" stroke="#191970" d="M80.2152,-21.9251C88.572,-20.4549 97.4008,-18.9017 105.8258,-17.4195"/>
<polygon fill="#191970" stroke="#191970" points="106.6009,-20.837 115.8432,-15.6572 105.388,-13.9429 106.6009,-20.837"/>
</g>
</g>
</svg>
