<?xml version="1.0" encoding="UTF-8" standalone="no"?>
<!DOCTYPE svg PUBLIC "-//W3C//DTD SVG 1.1//EN"
 "http://www.w3.org/Graphics/SVG/1.1/DTD/svg11.dtd">
<!-- Generated by graphviz version 2.40.1 (20161225.0304)
 -->
<!-- Title: omc_NFComponent_Component_setBinding Pages: 1 -->
<svg width="338pt" height="39pt"
 viewBox="0.00 0.00 338.00 39.00" xmlns="http://www.w3.org/2000/svg" xmlns:xlink="http://www.w3.org/1999/xlink">
<g id="graph0" class="graph" transform="scale(1 1) rotate(0) translate(4 35)">
<title>omc_NFComponent_Component_setBinding</title>
<polygon fill="#ffffff" stroke="transparent" points="-4,4 -4,-35 334,-35 334,4 -4,4"/>
<!-- Node2015 -->
<g id="node1" class="node">
<title>Node2015</title>
<polygon fill="#bfbfbf" stroke="#000000" points="0,-.5 0,-30.5 160,-30.5 160,-.5 0,-.5"/>
<text text-anchor="start" x="8" y="-18.5" font-family="Helvetica,sans-Serif" font-size="10.00" fill="#000000">omc_NFComponent_Component</text>
<text text-anchor="middle" x="80" y="-7.5" font-family="Helvetica,sans-Serif" font-size="10.00" fill="#000000">_setBinding</text>
</g>
<!-- Node2016 -->
<g id="node2" class="node">
<title>Node2016</title>
<g id="a_node2"><a xlink:href="../../d9/d01/_n_f_function_8h.html#a9af159ef02e6e3f8836115868b5ea1bf" target="_top" xlink:title="omc_NFFunction_Function\l_mapExpParameter">
<polygon fill="#ffffff" stroke="#000000" points="196,-.5 196,-30.5 330,-30.5 330,-.5 196,-.5"/>
<text text-anchor="start" x="204" y="-18.5" font-family="Helvetica,sans-Serif" font-size="10.00" fill="#000000">omc_NFFunction_Function</text>
<text text-anchor="middle" x="263" y="-7.5" font-family="Helvetica,sans-Serif" font-size="10.00" fill="#000000">_mapExpParameter</text>
</a>
</g>
</g>
<!-- Node2015&#45;&gt;Node2016 -->
<g id="edge1" class="edge">
<title>Node2015&#45;&gt;Node2016</title>
<path fill="none" stroke="#191970" d="M170.1072,-15.5C178.7389,-15.5 187.3872,-15.5 195.7447,-15.5"/>
<polygon fill="#191970" stroke="#191970" points="170.0003,-12.0001 160.0002,-15.5 170.0002,-19.0001 170.0003,-12.0001"/>
</g>
</g>
</svg>
