<?xml version="1.0" encoding="UTF-8" standalone="no"?>
<!DOCTYPE svg PUBLIC "-//W3C//DTD SVG 1.1//EN"
 "http://www.w3.org/Graphics/SVG/1.1/DTD/svg11.dtd">
<!-- Generated by graphviz version 2.40.1 (20161225.0304)
 -->
<!-- Title: omc_BackendDump_subClockString Pages: 1 -->
<svg width="468pt" height="104pt"
 viewBox="0.00 0.00 468.00 104.00" xmlns="http://www.w3.org/2000/svg" xmlns:xlink="http://www.w3.org/1999/xlink">
<g id="graph0" class="graph" transform="scale(1 1) rotate(0) translate(4 100)">
<title>omc_BackendDump_subClockString</title>
<polygon fill="#ffffff" stroke="transparent" points="-4,4 -4,-100 464,-100 464,4 -4,4"/>
<!-- Node2330 -->
<g id="node1" class="node">
<title>Node2330</title>
<polygon fill="#bfbfbf" stroke="#000000" points="0,-33 0,-63 152,-63 152,-33 0,-33"/>
<text text-anchor="start" x="8" y="-51" font-family="Helvetica,sans-Serif" font-size="10.00" fill="#000000">omc_BackendDump_subClock</text>
<text text-anchor="middle" x="76" y="-40" font-family="Helvetica,sans-Serif" font-size="10.00" fill="#000000">String</text>
</g>
<!-- Node2331 -->
<g id="node2" class="node">
<title>Node2331</title>
<g id="a_node2"><a xlink:href="../../d7/deb/build_2include_2omc_2c_2util_2modelica__string_8c.html#a751007abc59e9ca7978f2af10a0c814f" target="_top" xlink:title="stringAppend">
<polygon fill="#ffffff" stroke="#000000" points="386,-76.5 386,-95.5 460,-95.5 460,-76.5 386,-76.5"/>
<text text-anchor="middle" x="423" y="-83.5" font-family="Helvetica,sans-Serif" font-size="10.00" fill="#000000">stringAppend</text>
</a>
</g>
</g>
<!-- Node2330&#45;&gt;Node2331 -->
<g id="edge1" class="edge">
<title>Node2330&#45;&gt;Node2331</title>
<path fill="none" stroke="#191970" d="M152.0804,-61.8252C164.0742,-63.7391 176.3559,-65.5444 188,-67 252.8942,-75.1121 328.3245,-80.4994 375.8606,-83.4032"/>
<polygon fill="#191970" stroke="#191970" points="375.6674,-86.8978 385.8589,-84.0024 376.0862,-79.9103 375.6674,-86.8978"/>
</g>
<!-- Node2332 -->
<g id="node3" class="node">
<title>Node2332</title>
<g id="a_node3"><a xlink:href="../../d5/d00/_m_math_8c.html#a1ee759661d18cd5507e9a523f3b80869" target="_top" xlink:title="omc_MMath_rationalString">
<polygon fill="#ffffff" stroke="#000000" points="202.5,-38.5 202.5,-57.5 335.5,-57.5 335.5,-38.5 202.5,-38.5"/>
<text text-anchor="middle" x="269" y="-45.5" font-family="Helvetica,sans-Serif" font-size="10.00" fill="#000000">omc_MMath_rationalString</text>
</a>
</g>
</g>
<!-- Node2330&#45;&gt;Node2332 -->
<g id="edge2" class="edge">
<title>Node2330&#45;&gt;Node2332</title>
<path fill="none" stroke="#191970" d="M152.0017,-48C165.283,-48 179.1074,-48 192.4046,-48"/>
<polygon fill="#191970" stroke="#191970" points="192.4527,-51.5001 202.4526,-48 192.4526,-44.5001 192.4527,-51.5001"/>
</g>
<!-- Node2334 -->
<g id="node5" class="node">
<title>Node2334</title>
<g id="a_node5"><a xlink:href="../../d0/df5/_backend_dump_8c.html#a6939ee609d2b677c86d29f812af5ee93" target="_top" xlink:title="omc_BackendDump_optionString">
<polygon fill="#ffffff" stroke="#000000" points="188,-.5 188,-19.5 350,-19.5 350,-.5 188,-.5"/>
<text text-anchor="middle" x="269" y="-7.5" font-family="Helvetica,sans-Serif" font-size="10.00" fill="#000000">omc_BackendDump_optionString</text>
</a>
</g>
</g>
<!-- Node2330&#45;&gt;Node2334 -->
<g id="edge5" class="edge">
<title>Node2330&#45;&gt;Node2334</title>
<path fill="none" stroke="#191970" d="M152.0017,-33.0359C171.4934,-29.1982 192.155,-25.1301 210.6032,-21.4978"/>
<polygon fill="#191970" stroke="#191970" points="211.4675,-24.8949 220.603,-19.5289 210.1152,-18.0268 211.4675,-24.8949"/>
</g>
<!-- Node2332&#45;&gt;Node2331 -->
<g id="edge3" class="edge">
<title>Node2332&#45;&gt;Node2331</title>
<path fill="none" stroke="#191970" d="M307.8607,-57.589C328.569,-62.6988 354.2011,-69.0236 376.0202,-74.4076"/>
<polygon fill="#191970" stroke="#191970" points="375.1981,-77.8096 385.7454,-76.8073 376.8752,-71.0135 375.1981,-77.8096"/>
</g>
<!-- Node2333 -->
<g id="node4" class="node">
<title>Node2333</title>
<g id="a_node4"><a xlink:href="../../d2/d57/build_2include_2omc_2c_2meta_2meta__modelica__builtin_8h.html#a751bf2360cb3df6de97811998890b7ea" target="_top" xlink:title="intString">
<polygon fill="#ffffff" stroke="#000000" points="396.5,-38.5 396.5,-57.5 449.5,-57.5 449.5,-38.5 396.5,-38.5"/>
<text text-anchor="middle" x="423" y="-45.5" font-family="Helvetica,sans-Serif" font-size="10.00" fill="#000000">intString</text>
</a>
</g>
</g>
<!-- Node2332&#45;&gt;Node2333 -->
<g id="edge4" class="edge">
<title>Node2332&#45;&gt;Node2333</title>
<path fill="none" stroke="#191970" d="M335.651,-48C353.0876,-48 371.2453,-48 386.4595,-48"/>
<polygon fill="#191970" stroke="#191970" points="386.4772,-51.5001 396.4772,-48 386.4771,-44.5001 386.4772,-51.5001"/>
</g>
</g>
</svg>
