<?xml version="1.0" encoding="UTF-8" standalone="no"?>
<!DOCTYPE svg PUBLIC "-//W3C//DTD SVG 1.1//EN"
 "http://www.w3.org/Graphics/SVG/1.1/DTD/svg11.dtd">
<!-- Generated by graphviz version 2.40.1 (20161225.0304)
 -->
<!-- Title: boxptr_BackendDump_dumpBackendDAEEqnList2 Pages: 1 -->
<svg width="1259pt" height="146pt"
 viewBox="0.00 0.00 1259.00 146.00" xmlns="http://www.w3.org/2000/svg" xmlns:xlink="http://www.w3.org/1999/xlink">
<g id="graph0" class="graph" transform="scale(1 1) rotate(0) translate(4 142)">
<title>boxptr_BackendDump_dumpBackendDAEEqnList2</title>
<polygon fill="#ffffff" stroke="transparent" points="-4,4 -4,-142 1255,-142 1255,4 -4,4"/>
<!-- Node143 -->
<g id="node1" class="node">
<title>Node143</title>
<polygon fill="#bfbfbf" stroke="#000000" points="0,-44.5 0,-74.5 143,-74.5 143,-44.5 0,-44.5"/>
<text text-anchor="start" x="8" y="-62.5" font-family="Helvetica,sans-Serif" font-size="10.00" fill="#000000">boxptr_BackendDump</text>
<text text-anchor="middle" x="71.5" y="-51.5" font-family="Helvetica,sans-Serif" font-size="10.00" fill="#000000">_dumpBackendDAEEqnList2</text>
</g>
<!-- Node144 -->
<g id="node2" class="node">
<title>Node144</title>
<g id="a_node2"><a xlink:href="../../d0/df5/_backend_dump_8c.html#a80c2ccfbb15b0bc8c5b56a787b1482f1" target="_top" xlink:title="omc_BackendDump_dumpBackend\lDAEEqnList2">
<polygon fill="#ffffff" stroke="#000000" points="179,-44.5 179,-74.5 352,-74.5 352,-44.5 179,-44.5"/>
<text text-anchor="start" x="187" y="-62.5" font-family="Helvetica,sans-Serif" font-size="10.00" fill="#000000">omc_BackendDump_dumpBackend</text>
<text text-anchor="middle" x="265.5" y="-51.5" font-family="Helvetica,sans-Serif" font-size="10.00" fill="#000000">DAEEqnList2</text>
</a>
</g>
</g>
<!-- Node143&#45;&gt;Node144 -->
<g id="edge1" class="edge">
<title>Node143&#45;&gt;Node144</title>
<path fill="none" stroke="#191970" d="M143.1873,-59.5C151.5658,-59.5 160.2153,-59.5 168.8609,-59.5"/>
<polygon fill="#191970" stroke="#191970" points="168.992,-63.0001 178.9919,-59.5 168.9919,-56.0001 168.992,-63.0001"/>
</g>
<!-- Node145 -->
<g id="node3" class="node">
<title>Node145</title>
<g id="a_node3"><a xlink:href="../../d7/deb/build_2include_2omc_2c_2util_2modelica__string_8c.html#a751007abc59e9ca7978f2af10a0c814f" target="_top" xlink:title="stringAppend">
<polygon fill="#ffffff" stroke="#000000" points="584.5,-47 584.5,-66 658.5,-66 658.5,-47 584.5,-47"/>
<text text-anchor="middle" x="621.5" y="-54" font-family="Helvetica,sans-Serif" font-size="10.00" fill="#000000">stringAppend</text>
</a>
</g>
</g>
<!-- Node144&#45;&gt;Node145 -->
<g id="edge2" class="edge">
<title>Node144&#45;&gt;Node145</title>
<path fill="none" stroke="#191970" d="M352.1322,-58.77C422.0777,-58.1805 517.8476,-57.3735 574.3423,-56.8974"/>
<polygon fill="#191970" stroke="#191970" points="574.4489,-60.3967 584.419,-56.8125 574.3898,-53.397 574.4489,-60.3967"/>
</g>
<!-- Node146 -->
<g id="node4" class="node">
<title>Node146</title>
<g id="a_node4"><a xlink:href="../../d8/d16/_expression_dump_8c.html#ab1b14f2e6c847006a4235d1905bb2637" target="_top" xlink:title="omc_ExpressionDump\l_printExpStr">
<polygon fill="#ffffff" stroke="#000000" points="403.5,-88.5 403.5,-118.5 519.5,-118.5 519.5,-88.5 403.5,-88.5"/>
<text text-anchor="start" x="411.5" y="-106.5" font-family="Helvetica,sans-Serif" font-size="10.00" fill="#000000">omc_ExpressionDump</text>
<text text-anchor="middle" x="461.5" y="-95.5" font-family="Helvetica,sans-Serif" font-size="10.00" fill="#000000">_printExpStr</text>
</a>
</g>
</g>
<!-- Node144&#45;&gt;Node146 -->
<g id="edge3" class="edge">
<title>Node144&#45;&gt;Node146</title>
<path fill="none" stroke="#191970" d="M332.4039,-74.5192C352.1368,-78.9491 373.7462,-83.8002 393.5445,-88.2447"/>
<polygon fill="#191970" stroke="#191970" points="392.8825,-91.6831 403.4063,-90.4586 394.4158,-84.8531 392.8825,-91.6831"/>
</g>
<!-- Node152 -->
<g id="node10" class="node">
<title>Node152</title>
<g id="a_node10"><a xlink:href="../../d0/df5/_backend_dump_8c.html#af1dd0677ee571aa0c8bf987e5d75e120" target="_top" xlink:title="omc_BackendDump_equation\lKindString">
<polygon fill="#ffffff" stroke="#000000" points="388,-.5 388,-30.5 535,-30.5 535,-.5 388,-.5"/>
<text text-anchor="start" x="396" y="-18.5" font-family="Helvetica,sans-Serif" font-size="10.00" fill="#000000">omc_BackendDump_equation</text>
<text text-anchor="middle" x="461.5" y="-7.5" font-family="Helvetica,sans-Serif" font-size="10.00" fill="#000000">KindString</text>
</a>
</g>
</g>
<!-- Node144&#45;&gt;Node152 -->
<g id="edge9" class="edge">
<title>Node144&#45;&gt;Node152</title>
<path fill="none" stroke="#191970" d="M332.4039,-44.4808C349.1833,-40.714 367.3194,-36.6426 384.5452,-32.7756"/>
<polygon fill="#191970" stroke="#191970" points="385.5746,-36.1317 394.5651,-30.5262 384.0413,-29.3017 385.5746,-36.1317"/>
</g>
<!-- Node147 -->
<g id="node5" class="node">
<title>Node147</title>
<g id="a_node5"><a xlink:href="../../d7/d52/_tpl_8c.html#a19e668217f7d6c0b176843e40633cae2" target="_top" xlink:title="omc_Tpl_tplString2">
<polygon fill="#ffffff" stroke="#000000" points="571,-94 571,-113 672,-113 672,-94 571,-94"/>
<text text-anchor="middle" x="621.5" y="-101" font-family="Helvetica,sans-Serif" font-size="10.00" fill="#000000">omc_Tpl_tplString2</text>
</a>
</g>
</g>
<!-- Node146&#45;&gt;Node147 -->
<g id="edge4" class="edge">
<title>Node146&#45;&gt;Node147</title>
<path fill="none" stroke="#191970" d="M519.7163,-103.5C533.1022,-103.5 547.369,-103.5 560.8551,-103.5"/>
<polygon fill="#191970" stroke="#191970" points="560.9883,-107.0001 570.9883,-103.5 560.9882,-100.0001 560.9883,-107.0001"/>
</g>
<!-- Node148 -->
<g id="node6" class="node">
<title>Node148</title>
<g id="a_node6"><a xlink:href="../../db/da1/_compiler_2boot_2build_2error_8c.html#a6f9ff3d03e91883492e13af7fbc088ff" target="_top" xlink:title="omc_Error_getNumErrorMessages">
<polygon fill="#ffffff" stroke="#000000" points="708,-113 708,-132 875,-132 875,-113 708,-113"/>
<text text-anchor="middle" x="791.5" y="-120" font-family="Helvetica,sans-Serif" font-size="10.00" fill="#000000">omc_Error_getNumErrorMessages</text>
</a>
</g>
</g>
<!-- Node147&#45;&gt;Node148 -->
<g id="edge5" class="edge">
<title>Node147&#45;&gt;Node148</title>
<path fill="none" stroke="#191970" d="M672.0453,-109.1492C680.2231,-110.0632 688.9131,-111.0344 697.7304,-112.0199"/>
<polygon fill="#191970" stroke="#191970" points="697.3919,-115.5037 707.7188,-113.1362 698.1695,-108.5471 697.3919,-115.5037"/>
</g>
<!-- Node151 -->
<g id="node9" class="node">
<title>Node151</title>
<g id="a_node9"><a xlink:href="../../d7/d52/_tpl_8c.html#af79df210cda1bb788fce4ef64cb58a0f" target="_top" xlink:title="omc_Tpl_tplCallWithFailError2">
<polygon fill="#ffffff" stroke="#000000" points="717,-75 717,-94 866,-94 866,-75 717,-75"/>
<text text-anchor="middle" x="791.5" y="-82" font-family="Helvetica,sans-Serif" font-size="10.00" fill="#000000">omc_Tpl_tplCallWithFailError2</text>
</a>
</g>
</g>
<!-- Node147&#45;&gt;Node151 -->
<g id="edge8" class="edge">
<title>Node147&#45;&gt;Node151</title>
<path fill="none" stroke="#191970" d="M672.0453,-97.8508C683.0561,-96.6202 694.9954,-95.2858 706.9236,-93.9527"/>
<polygon fill="#191970" stroke="#191970" points="707.3707,-97.4246 716.9201,-92.8354 706.5932,-90.4679 707.3707,-97.4246"/>
</g>
<!-- Node149 -->
<g id="node7" class="node">
<title>Node149</title>
<g id="a_node7"><a xlink:href="../../d4/dce/_error_ext_8c.html#a0195f83af0487b3e7bf35deb4225e582" target="_top" xlink:title="omc_ErrorExt_getNumError\lMessages">
<polygon fill="#ffffff" stroke="#000000" points="911,-107.5 911,-137.5 1048,-137.5 1048,-107.5 911,-107.5"/>
<text text-anchor="start" x="919" y="-125.5" font-family="Helvetica,sans-Serif" font-size="10.00" fill="#000000">omc_ErrorExt_getNumError</text>
<text text-anchor="middle" x="979.5" y="-114.5" font-family="Helvetica,sans-Serif" font-size="10.00" fill="#000000">Messages</text>
</a>
</g>
</g>
<!-- Node148&#45;&gt;Node149 -->
<g id="edge6" class="edge">
<title>Node148&#45;&gt;Node149</title>
<path fill="none" stroke="#191970" d="M875.0544,-122.5C883.5601,-122.5 892.1814,-122.5 900.635,-122.5"/>
<polygon fill="#191970" stroke="#191970" points="900.8443,-126.0001 910.8442,-122.5 900.8442,-119.0001 900.8443,-126.0001"/>
</g>
<!-- Node150 -->
<g id="node8" class="node">
<title>Node150</title>
<g id="a_node8"><a xlink:href="../../d1/d40/boot_2build_2_error_ext_8h.html#a1206137921767ad0e49abe96adf7b5e3" target="_top" xlink:title="ErrorImpl__getNumErrorMessages">
<polygon fill="#ffffff" stroke="#000000" points="1084,-113 1084,-132 1251,-132 1251,-113 1084,-113"/>
<text text-anchor="middle" x="1167.5" y="-120" font-family="Helvetica,sans-Serif" font-size="10.00" fill="#000000">ErrorImpl__getNumErrorMessages</text>
</a>
</g>
</g>
<!-- Node149&#45;&gt;Node150 -->
<g id="edge7" class="edge">
<title>Node149&#45;&gt;Node150</title>
<path fill="none" stroke="#191970" d="M1048.1703,-122.5C1056.5388,-122.5 1065.1966,-122.5 1073.8505,-122.5"/>
<polygon fill="#191970" stroke="#191970" points="1073.9901,-126.0001 1083.99,-122.5 1073.99,-119.0001 1073.9901,-126.0001"/>
</g>
<!-- Node152&#45;&gt;Node145 -->
<g id="edge10" class="edge">
<title>Node152&#45;&gt;Node145</title>
<path fill="none" stroke="#191970" d="M520.1696,-30.5341C538.0628,-35.1192 557.4918,-40.0979 574.5057,-44.4577"/>
<polygon fill="#191970" stroke="#191970" points="573.6584,-47.8536 584.2143,-46.9455 575.3961,-41.0727 573.6584,-47.8536"/>
</g>
<!-- Node153 -->
<g id="node11" class="node">
<title>Node153</title>
<g id="a_node11"><a xlink:href="../../d2/d57/build_2include_2omc_2c_2meta_2meta__modelica__builtin_8h.html#a751bf2360cb3df6de97811998890b7ea" target="_top" xlink:title="intString">
<polygon fill="#ffffff" stroke="#000000" points="595,-6 595,-25 648,-25 648,-6 595,-6"/>
<text text-anchor="middle" x="621.5" y="-13" font-family="Helvetica,sans-Serif" font-size="10.00" fill="#000000">intString</text>
</a>
</g>
</g>
<!-- Node152&#45;&gt;Node153 -->
<g id="edge11" class="edge">
<title>Node152&#45;&gt;Node153</title>
<path fill="none" stroke="#191970" d="M535.4115,-15.5C552.5424,-15.5 570.0479,-15.5 584.7613,-15.5"/>
<polygon fill="#191970" stroke="#191970" points="584.9362,-19.0001 594.9362,-15.5 584.9361,-12.0001 584.9362,-19.0001"/>
</g>
</g>
</svg>
