<?xml version="1.0" encoding="UTF-8" standalone="no"?>
<!DOCTYPE svg PUBLIC "-//W3C//DTD SVG 1.1//EN"
 "http://www.w3.org/Graphics/SVG/1.1/DTD/svg11.dtd">
<!-- Generated by graphviz version 2.40.1 (20161225.0304)
 -->
<!-- Title: omc_BackendDump_printVar Pages: 1 -->
<svg width="477pt" height="88pt"
 viewBox="0.00 0.00 477.00 88.00" xmlns="http://www.w3.org/2000/svg" xmlns:xlink="http://www.w3.org/1999/xlink">
<g id="graph0" class="graph" transform="scale(1 1) rotate(0) translate(4 84)">
<title>omc_BackendDump_printVar</title>
<polygon fill="#ffffff" stroke="transparent" points="-4,4 -4,-84 473,-84 473,4 -4,4"/>
<!-- Node2241 -->
<g id="node1" class="node">
<title>Node2241</title>
<polygon fill="#bfbfbf" stroke="#000000" points="0,-30 0,-49 144,-49 144,-30 0,-30"/>
<text text-anchor="middle" x="72" y="-37" font-family="Helvetica,sans-Serif" font-size="10.00" fill="#000000">omc_BackendDump_printVar</text>
</g>
<!-- Node2242 -->
<g id="node2" class="node">
<title>Node2242</title>
<g id="a_node2"><a xlink:href="../../d3/d4a/_evaluate_functions_8c.html#a91b03105f3dcf65f44236beb906855db" target="_top" xlink:title="omc_EvaluateFunctions\l_evaluateParameter">
<polygon fill="#ffffff" stroke="#000000" points="180,-49.5 180,-79.5 302,-79.5 302,-49.5 180,-49.5"/>
<text text-anchor="start" x="188" y="-67.5" font-family="Helvetica,sans-Serif" font-size="10.00" fill="#000000">omc_EvaluateFunctions</text>
<text text-anchor="middle" x="241" y="-56.5" font-family="Helvetica,sans-Serif" font-size="10.00" fill="#000000">_evaluateParameter</text>
</a>
</g>
</g>
<!-- Node2241&#45;&gt;Node2242 -->
<g id="edge1" class="edge">
<title>Node2241&#45;&gt;Node2242</title>
<path fill="none" stroke="#191970" d="M146.52,-50.5237C157.6647,-52.1723 169.0443,-53.8557 179.8686,-55.4569"/>
<polygon fill="#191970" stroke="#191970" points="146.7783,-47.0239 136.3738,-49.0227 145.7539,-53.9485 146.7783,-47.0239"/>
</g>
<!-- Node2243 -->
<g id="node3" class="node">
<title>Node2243</title>
<g id="a_node3"><a xlink:href="../../d6/dc2/_hpc_om_task_graph_8c.html#ad76ae40ac6b0e7d631af523512802ff7" target="_top" xlink:title="omc_HpcOmTaskGraph\l_setAnnotationsForVar">
<polygon fill="#ffffff" stroke="#000000" points="180,-.5 180,-30.5 302,-30.5 302,-.5 180,-.5"/>
<text text-anchor="start" x="188" y="-18.5" font-family="Helvetica,sans-Serif" font-size="10.00" fill="#000000">omc_HpcOmTaskGraph</text>
<text text-anchor="middle" x="241" y="-7.5" font-family="Helvetica,sans-Serif" font-size="10.00" fill="#000000">_setAnnotationsForVar</text>
</a>
</g>
</g>
<!-- Node2241&#45;&gt;Node2243 -->
<g id="edge2" class="edge">
<title>Node2241&#45;&gt;Node2243</title>
<path fill="none" stroke="#191970" d="M149.4495,-28.5013C159.6889,-27.0471 170.0673,-25.5733 179.9778,-24.1659"/>
<polygon fill="#191970" stroke="#191970" points="148.6874,-25.0743 139.2789,-29.9456 149.6717,-32.0047 148.6874,-25.0743"/>
</g>
<!-- Node2244 -->
<g id="node4" class="node">
<title>Node2244</title>
<g id="a_node4"><a xlink:href="../../d6/dc2/_hpc_om_task_graph_8c.html#a2424caa5b89dae0da16e3c4a82a6bcc6" target="_top" xlink:title="boxptr_HpcOmTaskGraph\l_setAnnotationsForVar">
<polygon fill="#ffffff" stroke="#000000" points="338,-.5 338,-30.5 469,-30.5 469,-.5 338,-.5"/>
<text text-anchor="start" x="346" y="-18.5" font-family="Helvetica,sans-Serif" font-size="10.00" fill="#000000">boxptr_HpcOmTaskGraph</text>
<text text-anchor="middle" x="403.5" y="-7.5" font-family="Helvetica,sans-Serif" font-size="10.00" fill="#000000">_setAnnotationsForVar</text>
</a>
</g>
</g>
<!-- Node2243&#45;&gt;Node2244 -->
<g id="edge3" class="edge">
<title>Node2243&#45;&gt;Node2244</title>
<path fill="none" stroke="#191970" d="M312.6076,-15.5C321.025,-15.5 329.5826,-15.5 337.9118,-15.5"/>
<polygon fill="#191970" stroke="#191970" points="312.4343,-12.0001 302.4343,-15.5 312.4342,-19.0001 312.4343,-12.0001"/>
</g>
</g>
</svg>
