<?xml version="1.0" encoding="UTF-8" standalone="no"?>
<!DOCTYPE svg PUBLIC "-//W3C//DTD SVG 1.1//EN"
 "http://www.w3.org/Graphics/SVG/1.1/DTD/svg11.dtd">
<!-- Generated by graphviz version 2.40.1 (20161225.0304)
 -->
<!-- Title: boxptr_BackendDump_debugStrCrefStrRealStrRealStrRealStr Pages: 1 -->
<svg width="1463pt" height="154pt"
 viewBox="0.00 0.00 1463.00 154.00" xmlns="http://www.w3.org/2000/svg" xmlns:xlink="http://www.w3.org/1999/xlink">
<g id="graph0" class="graph" transform="scale(1 1) rotate(0) translate(4 150)">
<title>boxptr_BackendDump_debugStrCrefStrRealStrRealStrRealStr</title>
<polygon fill="#ffffff" stroke="transparent" points="-4,4 -4,-150 1459,-150 1459,4 -4,4"/>
<!-- Node91 -->
<g id="node1" class="node">
<title>Node91</title>
<polygon fill="#bfbfbf" stroke="#000000" points="0,-53.5 0,-94.5 146,-94.5 146,-53.5 0,-53.5"/>
<text text-anchor="start" x="8" y="-82.5" font-family="Helvetica,sans-Serif" font-size="10.00" fill="#000000">boxptr_BackendDump</text>
<text text-anchor="start" x="8" y="-71.5" font-family="Helvetica,sans-Serif" font-size="10.00" fill="#000000">_debugStrCrefStrRealStrReal</text>
<text text-anchor="middle" x="73" y="-60.5" font-family="Helvetica,sans-Serif" font-size="10.00" fill="#000000">StrRealStr</text>
</g>
<!-- Node92 -->
<g id="node2" class="node">
<title>Node92</title>
<g id="a_node2"><a xlink:href="../../d0/df5/_backend_dump_8c.html#a1e444ccc7133ea7c15393864c9cb5c2b" target="_top" xlink:title="omc_BackendDump_debugStr\lCrefStrRealStrRealStrRealStr">
<polygon fill="#ffffff" stroke="#000000" points="182,-59 182,-89 331,-89 331,-59 182,-59"/>
<text text-anchor="start" x="190" y="-77" font-family="Helvetica,sans-Serif" font-size="10.00" fill="#000000">omc_BackendDump_debugStr</text>
<text text-anchor="middle" x="256.5" y="-66" font-family="Helvetica,sans-Serif" font-size="10.00" fill="#000000">CrefStrRealStrRealStrRealStr</text>
</a>
</g>
</g>
<!-- Node91&#45;&gt;Node92 -->
<g id="edge1" class="edge">
<title>Node91&#45;&gt;Node92</title>
<path fill="none" stroke="#191970" d="M146.0513,-74C154.528,-74 163.227,-74 171.8421,-74"/>
<polygon fill="#191970" stroke="#191970" points="171.8987,-77.5001 181.8987,-74 171.8986,-70.5001 171.8987,-77.5001"/>
</g>
<!-- Node93 -->
<g id="node3" class="node">
<title>Node93</title>
<g id="a_node3"><a xlink:href="../../d7/deb/build_2include_2omc_2c_2util_2modelica__string_8c.html#a751007abc59e9ca7978f2af10a0c814f" target="_top" xlink:title="stringAppend">
<polygon fill="#ffffff" stroke="#000000" points="570,-126.5 570,-145.5 644,-145.5 644,-126.5 570,-126.5"/>
<text text-anchor="middle" x="607" y="-133.5" font-family="Helvetica,sans-Serif" font-size="10.00" fill="#000000">stringAppend</text>
</a>
</g>
</g>
<!-- Node92&#45;&gt;Node93 -->
<g id="edge2" class="edge">
<title>Node92&#45;&gt;Node93</title>
<path fill="none" stroke="#191970" d="M288.1119,-89.1564C309.7959,-98.8341 339.5093,-110.7064 367,-117 432.667,-132.0334 510.7787,-135.6684 559.6361,-136.2986"/>
<polygon fill="#191970" stroke="#191970" points="559.8704,-139.8007 569.9019,-136.3921 559.9343,-132.801 559.8704,-139.8007"/>
</g>
<!-- Node94 -->
<g id="node4" class="node">
<title>Node94</title>
<g id="a_node4"><a xlink:href="../../d9/d14/_component_reference_8c.html#ad55924d78e0d18d1b2ba420131a7f489" target="_top" xlink:title="omc_ComponentReference\l_printComponentRefStr">
<polygon fill="#ffffff" stroke="#000000" points="367,-59 367,-89 503,-89 503,-59 367,-59"/>
<text text-anchor="start" x="375" y="-77" font-family="Helvetica,sans-Serif" font-size="10.00" fill="#000000">omc_ComponentReference</text>
<text text-anchor="middle" x="435" y="-66" font-family="Helvetica,sans-Serif" font-size="10.00" fill="#000000">_printComponentRefStr</text>
</a>
</g>
</g>
<!-- Node92&#45;&gt;Node94 -->
<g id="edge3" class="edge">
<title>Node92&#45;&gt;Node94</title>
<path fill="none" stroke="#191970" d="M331.1658,-74C339.5878,-74 348.1878,-74 356.6549,-74"/>
<polygon fill="#191970" stroke="#191970" points="356.8962,-77.5001 366.8961,-74 356.8961,-70.5001 356.8962,-77.5001"/>
</g>
<!-- Node105 -->
<g id="node15" class="node">
<title>Node105</title>
<g id="a_node15"><a xlink:href="../../d2/d57/build_2include_2omc_2c_2meta_2meta__modelica__builtin_8h.html#a87fa8e77dec9dc00c51dc3bada543d0d" target="_top" xlink:title="realString">
<polygon fill="#ffffff" stroke="#000000" points="406,-20.5 406,-39.5 464,-39.5 464,-20.5 406,-20.5"/>
<text text-anchor="middle" x="435" y="-27.5" font-family="Helvetica,sans-Serif" font-size="10.00" fill="#000000">realString</text>
</a>
</g>
</g>
<!-- Node92&#45;&gt;Node105 -->
<g id="edge17" class="edge">
<title>Node92&#45;&gt;Node105</title>
<path fill="none" stroke="#191970" d="M317.4303,-58.9808C343.4716,-52.5616 373.1013,-45.2579 396.1008,-39.5886"/>
<polygon fill="#191970" stroke="#191970" points="396.971,-42.9789 405.8427,-37.1872 395.2956,-36.1824 396.971,-42.9789"/>
</g>
<!-- Node94&#45;&gt;Node93 -->
<g id="edge13" class="edge">
<title>Node94&#45;&gt;Node93</title>
<path fill="none" stroke="#191970" d="M475.9601,-89.0842C495.0946,-96.1005 518.1946,-104.5277 539,-112 549.1789,-115.6558 560.2317,-119.5773 570.4095,-123.1689"/>
<polygon fill="#191970" stroke="#191970" points="569.2475,-126.4703 579.8423,-126.4919 571.5734,-119.868 569.2475,-126.4703"/>
</g>
<!-- Node94&#45;&gt;Node94 -->
<g id="edge16" class="edge">
<title>Node94&#45;&gt;Node94</title>
<path fill="none" stroke="#191970" d="M405.0255,-89.159C397.7975,-98.5566 407.7891,-107.5 435,-107.5 451.5817,-107.5 461.7691,-104.179 465.5623,-99.4579"/>
<polygon fill="#191970" stroke="#191970" points="469.0387,-98.9433 464.9745,-89.159 462.0501,-99.3422 469.0387,-98.9433"/>
</g>
<!-- Node95 -->
<g id="node5" class="node">
<title>Node95</title>
<g id="a_node5"><a xlink:href="../../d9/d14/_component_reference_8c.html#a3b4ee994a40114638276f414aef5f436" target="_top" xlink:title="omc_ComponentReference\l_printComponentRef2Str">
<polygon fill="#ffffff" stroke="#000000" points="539,-39 539,-69 675,-69 675,-39 539,-39"/>
<text text-anchor="start" x="547" y="-57" font-family="Helvetica,sans-Serif" font-size="10.00" fill="#000000">omc_ComponentReference</text>
<text text-anchor="middle" x="607" y="-46" font-family="Helvetica,sans-Serif" font-size="10.00" fill="#000000">_printComponentRef2Str</text>
</a>
</g>
</g>
<!-- Node94&#45;&gt;Node95 -->
<g id="edge4" class="edge">
<title>Node94&#45;&gt;Node95</title>
<path fill="none" stroke="#191970" d="M503.4732,-66.038C511.7318,-65.0777 520.2157,-64.0912 528.6024,-63.116"/>
<polygon fill="#191970" stroke="#191970" points="529.2336,-66.5663 538.7624,-61.9346 528.4251,-59.6131 529.2336,-66.5663"/>
</g>
<!-- Node96 -->
<g id="node6" class="node">
<title>Node96</title>
<g id="a_node6"><a xlink:href="../../d1/d5c/_config_8c.html#a4284e37cd03c9c5a3fd200be81c3152d" target="_top" xlink:title="omc_Config_modelicaOutput">
<polygon fill="#ffffff" stroke="#000000" points="711,-88.5 711,-107.5 854,-107.5 854,-88.5 711,-88.5"/>
<text text-anchor="middle" x="782.5" y="-95.5" font-family="Helvetica,sans-Serif" font-size="10.00" fill="#000000">omc_Config_modelicaOutput</text>
</a>
</g>
</g>
<!-- Node94&#45;&gt;Node96 -->
<g id="edge15" class="edge">
<title>Node94&#45;&gt;Node96</title>
<path fill="none" stroke="#191970" d="M503.2402,-78.713C559.8555,-82.6231 640.5245,-88.1945 700.6157,-92.3447"/>
<polygon fill="#191970" stroke="#191970" points="700.6121,-95.8527 710.8295,-93.0501 701.0944,-88.8693 700.6121,-95.8527"/>
</g>
<!-- Node104 -->
<g id="node14" class="node">
<title>Node104</title>
<g id="a_node14"><a xlink:href="../../d2/d57/build_2include_2omc_2c_2meta_2meta__modelica__builtin_8h.html#a751bf2360cb3df6de97811998890b7ea" target="_top" xlink:title="intString">
<polygon fill="#ffffff" stroke="#000000" points="580.5,-.5 580.5,-19.5 633.5,-19.5 633.5,-.5 580.5,-.5"/>
<text text-anchor="middle" x="607" y="-7.5" font-family="Helvetica,sans-Serif" font-size="10.00" fill="#000000">intString</text>
</a>
</g>
</g>
<!-- Node94&#45;&gt;Node104 -->
<g id="edge14" class="edge">
<title>Node94&#45;&gt;Node104</title>
<path fill="none" stroke="#191970" d="M478.9373,-58.9818C487.03,-55.8964 495.3388,-52.5108 503,-49 519.6394,-41.3748 522.0695,-35.955 539,-29 548.9494,-24.9128 560.0675,-21.3952 570.3843,-18.5369"/>
<polygon fill="#191970" stroke="#191970" points="571.5863,-21.8395 580.3609,-15.9017 569.7986,-15.0716 571.5863,-21.8395"/>
</g>
<!-- Node95&#45;&gt;Node96 -->
<g id="edge5" class="edge">
<title>Node95&#45;&gt;Node96</title>
<path fill="none" stroke="#191970" d="M666.9063,-69.0192C689.008,-74.5604 713.7389,-80.7607 734.6361,-85.9999"/>
<polygon fill="#191970" stroke="#191970" points="734.0074,-89.4506 744.5584,-88.4876 735.7098,-82.6607 734.0074,-89.4506"/>
</g>
<!-- Node101 -->
<g id="node11" class="node">
<title>Node101</title>
<g id="a_node11"><a xlink:href="../../d8/d16/_expression_dump_8c.html#ab0f49b2293eca0843549a3c91f34aa73" target="_top" xlink:title="omc_ExpressionDump\l_printListStr">
<polygon fill="#ffffff" stroke="#000000" points="724.5,-39 724.5,-69 840.5,-69 840.5,-39 724.5,-39"/>
<text text-anchor="start" x="732.5" y="-57" font-family="Helvetica,sans-Serif" font-size="10.00" fill="#000000">omc_ExpressionDump</text>
<text text-anchor="middle" x="782.5" y="-46" font-family="Helvetica,sans-Serif" font-size="10.00" fill="#000000">_printListStr</text>
</a>
</g>
</g>
<!-- Node95&#45;&gt;Node101 -->
<g id="edge10" class="edge">
<title>Node95&#45;&gt;Node101</title>
<path fill="none" stroke="#191970" d="M675.1041,-54C687.9527,-54 701.3936,-54 714.2467,-54"/>
<polygon fill="#191970" stroke="#191970" points="714.4062,-57.5001 724.4062,-54 714.4061,-50.5001 714.4062,-57.5001"/>
</g>
<!-- Node97 -->
<g id="node7" class="node">
<title>Node97</title>
<g id="a_node7"><a xlink:href="../../d3/db3/_flags_8c.html#abc3d84cf6e1cf18f0cec0f052e7c85d9" target="_top" xlink:title="omc_Flags_getConfigBool">
<polygon fill="#ffffff" stroke="#000000" points="890,-88.5 890,-107.5 1021,-107.5 1021,-88.5 890,-88.5"/>
<text text-anchor="middle" x="955.5" y="-95.5" font-family="Helvetica,sans-Serif" font-size="10.00" fill="#000000">omc_Flags_getConfigBool</text>
</a>
</g>
</g>
<!-- Node96&#45;&gt;Node97 -->
<g id="edge6" class="edge">
<title>Node96&#45;&gt;Node97</title>
<path fill="none" stroke="#191970" d="M854.1145,-98C862.5074,-98 871.0931,-98 879.5425,-98"/>
<polygon fill="#191970" stroke="#191970" points="879.7593,-101.5001 889.7593,-98 879.7593,-94.5001 879.7593,-101.5001"/>
</g>
<!-- Node98 -->
<g id="node8" class="node">
<title>Node98</title>
<g id="a_node8"><a xlink:href="../../d3/db3/_flags_8c.html#a96ba70d54b6662cf90933a207c0c6b8e" target="_top" xlink:title="omc_Flags_getConfigValue">
<polygon fill="#ffffff" stroke="#000000" points="1057,-88.5 1057,-107.5 1194,-107.5 1194,-88.5 1057,-88.5"/>
<text text-anchor="middle" x="1125.5" y="-95.5" font-family="Helvetica,sans-Serif" font-size="10.00" fill="#000000">omc_Flags_getConfigValue</text>
</a>
</g>
</g>
<!-- Node97&#45;&gt;Node98 -->
<g id="edge7" class="edge">
<title>Node97&#45;&gt;Node98</title>
<path fill="none" stroke="#191970" d="M1021.2264,-98C1029.6209,-98 1038.28,-98 1046.8525,-98"/>
<polygon fill="#191970" stroke="#191970" points="1046.8551,-101.5001 1056.855,-98 1046.855,-94.5001 1046.8551,-101.5001"/>
</g>
<!-- Node99 -->
<g id="node9" class="node">
<title>Node99</title>
<g id="a_node9"><a xlink:href="../../d3/db3/_flags_8c.html#a760d66f53b65ac257876ca0f6308f09f" target="_top" xlink:title="omc_Flags_loadFlags">
<polygon fill="#ffffff" stroke="#000000" points="1230,-88.5 1230,-107.5 1342,-107.5 1342,-88.5 1230,-88.5"/>
<text text-anchor="middle" x="1286" y="-95.5" font-family="Helvetica,sans-Serif" font-size="10.00" fill="#000000">omc_Flags_loadFlags</text>
</a>
</g>
</g>
<!-- Node98&#45;&gt;Node99 -->
<g id="edge8" class="edge">
<title>Node98&#45;&gt;Node99</title>
<path fill="none" stroke="#191970" d="M1194.032,-98C1202.5123,-98 1211.1709,-98 1219.6182,-98"/>
<polygon fill="#191970" stroke="#191970" points="1219.791,-101.5001 1229.7909,-98 1219.7909,-94.5001 1219.791,-101.5001"/>
</g>
<!-- Node100 -->
<g id="node10" class="node">
<title>Node100</title>
<g id="a_node10"><a xlink:href="../../da/d72/_compiler_2boot_2build_2list_8c.html#a3ec1ee3a5ff53be9af368e290be09182" target="_top" xlink:title="omc_List_fold">
<polygon fill="#ffffff" stroke="#000000" points="1378,-88.5 1378,-107.5 1455,-107.5 1455,-88.5 1378,-88.5"/>
<text text-anchor="middle" x="1416.5" y="-95.5" font-family="Helvetica,sans-Serif" font-size="10.00" fill="#000000">omc_List_fold</text>
</a>
</g>
</g>
<!-- Node99&#45;&gt;Node100 -->
<g id="edge9" class="edge">
<title>Node99&#45;&gt;Node100</title>
<path fill="none" stroke="#191970" d="M1342.1011,-98C1350.5528,-98 1359.2135,-98 1367.5007,-98"/>
<polygon fill="#191970" stroke="#191970" points="1367.7542,-101.5001 1377.7542,-98 1367.7541,-94.5001 1367.7542,-101.5001"/>
</g>
<!-- Node102 -->
<g id="node12" class="node">
<title>Node102</title>
<g id="a_node12"><a xlink:href="../../d2/d57/build_2include_2omc_2c_2meta_2meta__modelica__builtin_8h.html#a6f570947bebe207c25a64ea25f5ca884" target="_top" xlink:title="stringDelimitList">
<polygon fill="#ffffff" stroke="#000000" points="912,-47.5 912,-66.5 999,-66.5 999,-47.5 912,-47.5"/>
<text text-anchor="middle" x="955.5" y="-54.5" font-family="Helvetica,sans-Serif" font-size="10.00" fill="#000000">stringDelimitList</text>
</a>
</g>
</g>
<!-- Node101&#45;&gt;Node102 -->
<g id="edge11" class="edge">
<title>Node101&#45;&gt;Node102</title>
<path fill="none" stroke="#191970" d="M840.5878,-55.0073C860.3077,-55.3493 882.244,-55.7297 901.6213,-56.0657"/>
<polygon fill="#191970" stroke="#191970" points="901.7341,-59.5681 911.7933,-56.2421 901.8555,-52.5691 901.7341,-59.5681"/>
</g>
<!-- Node103 -->
<g id="node13" class="node">
<title>Node103</title>
<g id="a_node13"><a xlink:href="../../da/d72/_compiler_2boot_2build_2list_8c.html#a70628b2c3fb199a118f80777135940ee" target="_top" xlink:title="omc_List_map">
<polygon fill="#ffffff" stroke="#000000" points="915.5,-9.5 915.5,-28.5 995.5,-28.5 995.5,-9.5 915.5,-9.5"/>
<text text-anchor="middle" x="955.5" y="-16.5" font-family="Helvetica,sans-Serif" font-size="10.00" fill="#000000">omc_List_map</text>
</a>
</g>
</g>
<!-- Node101&#45;&gt;Node103 -->
<g id="edge12" class="edge">
<title>Node101&#45;&gt;Node103</title>
<path fill="none" stroke="#191970" d="M840.5878,-42.2481C861.5811,-38.0009 885.0863,-33.2456 905.3418,-29.1476"/>
<polygon fill="#191970" stroke="#191970" points="906.1949,-32.546 915.3023,-27.1325 904.8068,-25.685 906.1949,-32.546"/>
</g>
</g>
</svg>
