<?xml version="1.0" encoding="UTF-8" standalone="no"?>
<!DOCTYPE svg PUBLIC "-//W3C//DTD SVG 1.1//EN"
 "http://www.w3.org/Graphics/SVG/1.1/DTD/svg11.dtd">
<!-- Generated by graphviz version 2.40.1 (20161225.0304)
 -->
<!-- Title: MLAPI::MultiLevelAdaptiveSA::GetDomainSpace Pages: 1 -->
<svg width="812pt" height="102pt"
 viewBox="0.00 0.00 812.00 101.50" xmlns="http://www.w3.org/2000/svg" xmlns:xlink="http://www.w3.org/1999/xlink">
<g id="graph0" class="graph" transform="scale(1 1) rotate(0) translate(4 97.5)">
<title>MLAPI::MultiLevelAdaptiveSA::GetDomainSpace</title>
<polygon fill="#ffffff" stroke="transparent" points="-4,4 -4,-97.5 808,-97.5 808,4 -4,4"/>
<!-- Node407 -->
<g id="node1" class="node">
<title>Node407</title>
<polygon fill="#bfbfbf" stroke="#000000" points="0,-24.5 0,-54.5 135,-54.5 135,-24.5 0,-24.5"/>
<text text-anchor="start" x="8" y="-42.5" font-family="Helvetica,sans-Serif" font-size="10.00" fill="#000000">MLAPI::MultiLevelAdaptive</text>
<text text-anchor="middle" x="67.5" y="-31.5" font-family="Helvetica,sans-Serif" font-size="10.00" fill="#000000">SA::GetDomainSpace</text>
</g>
<!-- Node408 -->
<g id="node2" class="node">
<title>Node408</title>
<g id="a_node2"><a xlink:href="../../d1/d74/class_m_l_a_p_i_1_1_multi_level_adaptive_s_a.html#a9f907ebf7cfc6f0f37df82828a0d0287" target="_top" xlink:title="Recursively called core of the multi level preconditioner. ">
<polygon fill="#ffffff" stroke="#000000" points="171,-24.5 171,-54.5 306,-54.5 306,-24.5 171,-24.5"/>
<text text-anchor="start" x="179" y="-42.5" font-family="Helvetica,sans-Serif" font-size="10.00" fill="#000000">MLAPI::MultiLevelAdaptive</text>
<text text-anchor="middle" x="238.5" y="-31.5" font-family="Helvetica,sans-Serif" font-size="10.00" fill="#000000">SA::SolveMultiLevelSA</text>
</a>
</g>
</g>
<!-- Node407&#45;&gt;Node408 -->
<g id="edge1" class="edge">
<title>Node407&#45;&gt;Node408</title>
<path fill="none" stroke="#191970" d="M145.0998,-39.5C153.692,-39.5 162.3915,-39.5 170.8472,-39.5"/>
<polygon fill="#191970" stroke="#191970" points="145.0838,-36.0001 135.0837,-39.5 145.0837,-43.0001 145.0838,-36.0001"/>
</g>
<!-- Node409 -->
<g id="node3" class="node">
<title>Node409</title>
<g id="a_node3"><a xlink:href="../../d1/d74/class_m_l_a_p_i_1_1_multi_level_adaptive_s_a.html#a54581d09676369030c9fb1ce186d4d0a" target="_top" xlink:title="Increments the null space dimension by one. ">
<polygon fill="#ffffff" stroke="#000000" points="342,-49.5 342,-79.5 477,-79.5 477,-49.5 342,-49.5"/>
<text text-anchor="start" x="350" y="-67.5" font-family="Helvetica,sans-Serif" font-size="10.00" fill="#000000">MLAPI::MultiLevelAdaptive</text>
<text text-anchor="middle" x="409.5" y="-56.5" font-family="Helvetica,sans-Serif" font-size="10.00" fill="#000000">SA::IncrementNullSpace</text>
</a>
</g>
</g>
<!-- Node408&#45;&gt;Node409 -->
<g id="edge2" class="edge">
<title>Node408&#45;&gt;Node409</title>
<path fill="none" stroke="#191970" d="M316.0998,-50.845C324.692,-52.1012 333.3915,-53.373 341.8472,-54.6092"/>
<polygon fill="#191970" stroke="#191970" points="316.4849,-47.3642 306.0837,-49.3807 315.4722,-54.2905 316.4849,-47.3642"/>
</g>
<!-- Node413 -->
<g id="node7" class="node">
<title>Node413</title>
<g id="a_node7"><a xlink:href="../../d1/d74/class_m_l_a_p_i_1_1_multi_level_adaptive_s_a.html#ae91e1a1ad5eb1bad4e925e88fbdec7d3" target="_top" xlink:title="Applies the preconditioner to b_f, returns the result in x_f. ">
<polygon fill="#ffffff" stroke="#000000" points="342,-.5 342,-30.5 477,-30.5 477,-.5 342,-.5"/>
<text text-anchor="start" x="350" y="-18.5" font-family="Helvetica,sans-Serif" font-size="10.00" fill="#000000">MLAPI::MultiLevelAdaptive</text>
<text text-anchor="middle" x="409.5" y="-7.5" font-family="Helvetica,sans-Serif" font-size="10.00" fill="#000000">SA::Apply</text>
</a>
</g>
</g>
<!-- Node408&#45;&gt;Node413 -->
<g id="edge6" class="edge">
<title>Node408&#45;&gt;Node413</title>
<path fill="none" stroke="#191970" d="M316.0998,-28.6088C324.692,-27.4029 333.3915,-26.1819 341.8472,-24.9951"/>
<polygon fill="#191970" stroke="#191970" points="315.5002,-25.1586 306.0837,-30.0146 316.4732,-32.0906 315.5002,-25.1586"/>
</g>
<!-- Node410 -->
<g id="node4" class="node">
<title>Node410</title>
<g id="a_node4"><a xlink:href="../../d1/d74/class_m_l_a_p_i_1_1_multi_level_adaptive_s_a.html#aa844aada295b478d230e504fe88c810f" target="_top" xlink:title="Setup the adaptive multilevel hierarchy. ">
<polygon fill="#ffffff" stroke="#000000" points="513,-49.5 513,-79.5 648,-79.5 648,-49.5 513,-49.5"/>
<text text-anchor="start" x="521" y="-67.5" font-family="Helvetica,sans-Serif" font-size="10.00" fill="#000000">MLAPI::MultiLevelAdaptive</text>
<text text-anchor="middle" x="580.5" y="-56.5" font-family="Helvetica,sans-Serif" font-size="10.00" fill="#000000">SA::AdaptCompute</text>
</a>
</g>
</g>
<!-- Node409&#45;&gt;Node410 -->
<g id="edge3" class="edge">
<title>Node409&#45;&gt;Node410</title>
<path fill="none" stroke="#191970" d="M487.0998,-64.5C495.692,-64.5 504.3915,-64.5 512.8472,-64.5"/>
<polygon fill="#191970" stroke="#191970" points="487.0838,-61.0001 477.0837,-64.5 487.0837,-68.0001 487.0838,-61.0001"/>
</g>
<!-- Node411 -->
<g id="node5" class="node">
<title>Node411</title>
<g id="a_node5"><a xlink:href="../../d7/de8/_adaptive_s_a_8cpp.html#a0ddf1224851353fc92bfbff6f499fa97" target="_top" xlink:title="main">
<polygon fill="#ffffff" stroke="#000000" points="725,-74 725,-93 763,-93 763,-74 725,-74"/>
<text text-anchor="middle" x="744" y="-81" font-family="Helvetica,sans-Serif" font-size="10.00" fill="#000000">main</text>
</a>
</g>
</g>
<!-- Node410&#45;&gt;Node411 -->
<g id="edge4" class="edge">
<title>Node410&#45;&gt;Node411</title>
<path fill="none" stroke="#191970" d="M658.5629,-73.5715C683.2249,-76.4375 708.3353,-79.3555 724.8919,-81.2795"/>
<polygon fill="#191970" stroke="#191970" points="658.7555,-70.0704 648.4183,-72.3926 657.9474,-77.0236 658.7555,-70.0704"/>
</g>
<!-- Node412 -->
<g id="node6" class="node">
<title>Node412</title>
<g id="a_node6"><a xlink:href="../../d2/d41/classmlapi__data__pack.html#a049887bcc02fc853a3da37de1ecd1a55" target="_top" xlink:title="mlapi_data_pack::setup">
<polygon fill="#ffffff" stroke="#000000" points="684,-36 684,-55 804,-55 804,-36 684,-36"/>
<text text-anchor="middle" x="744" y="-43" font-family="Helvetica,sans-Serif" font-size="10.00" fill="#000000">mlapi_data_pack::setup</text>
</a>
</g>
</g>
<!-- Node410&#45;&gt;Node412 -->
<g id="edge5" class="edge">
<title>Node410&#45;&gt;Node412</title>
<path fill="none" stroke="#191970" d="M658.4089,-55.4464C666.9605,-54.4526 675.5683,-53.4523 683.8569,-52.4891"/>
<polygon fill="#191970" stroke="#191970" points="657.9474,-51.9763 648.4183,-56.6074 658.7555,-58.9296 657.9474,-51.9763"/>
</g>
</g>
</svg>
