<?xml version="1.0" encoding="UTF-8" standalone="no"?>
<!DOCTYPE svg PUBLIC "-//W3C//DTD SVG 1.1//EN"
 "http://www.w3.org/Graphics/SVG/1.1/DTD/svg11.dtd">
<!-- Generated by graphviz version 2.40.1 (20161225.0304)
 -->
<!-- Title: MLAPI::MultiLevelAdaptiveSA::AdaptCompute Pages: 1 -->
<svg width="299pt" height="66pt"
 viewBox="0.00 0.00 299.00 66.00" xmlns="http://www.w3.org/2000/svg" xmlns:xlink="http://www.w3.org/1999/xlink">
<g id="graph0" class="graph" transform="scale(1 1) rotate(0) translate(4 62)">
<title>MLAPI::MultiLevelAdaptiveSA::AdaptCompute</title>
<polygon fill="#ffffff" stroke="transparent" points="-4,4 -4,-62 295,-62 295,4 -4,4"/>
<!-- Node224 -->
<g id="node1" class="node">
<title>Node224</title>
<polygon fill="#bfbfbf" stroke="#000000" points="0,-14 0,-44 135,-44 135,-14 0,-14"/>
<text text-anchor="start" x="8" y="-32" font-family="Helvetica,sans-Serif" font-size="10.00" fill="#000000">MLAPI::MultiLevelAdaptive</text>
<text text-anchor="middle" x="67.5" y="-21" font-family="Helvetica,sans-Serif" font-size="10.00" fill="#000000">SA::AdaptCompute</text>
</g>
<!-- Node225 -->
<g id="node2" class="node">
<title>Node225</title>
<g id="a_node2"><a xlink:href="../../d7/de8/_adaptive_s_a_8cpp.html#a0ddf1224851353fc92bfbff6f499fa97" target="_top" xlink:title="main">
<polygon fill="#ffffff" stroke="#000000" points="212,-38.5 212,-57.5 250,-57.5 250,-38.5 212,-38.5"/>
<text text-anchor="middle" x="231" y="-45.5" font-family="Helvetica,sans-Serif" font-size="10.00" fill="#000000">main</text>
</a>
</g>
</g>
<!-- Node224&#45;&gt;Node225 -->
<g id="edge1" class="edge">
<title>Node224&#45;&gt;Node225</title>
<path fill="none" stroke="#191970" d="M145.5629,-38.0715C170.2249,-40.9375 195.3353,-43.8555 211.8919,-45.7795"/>
<polygon fill="#191970" stroke="#191970" points="145.7555,-34.5704 135.4183,-36.8926 144.9474,-41.5236 145.7555,-34.5704"/>
</g>
<!-- Node226 -->
<g id="node3" class="node">
<title>Node226</title>
<g id="a_node3"><a xlink:href="../../d2/d41/classmlapi__data__pack.html#a049887bcc02fc853a3da37de1ecd1a55" target="_top" xlink:title="mlapi_data_pack::setup">
<polygon fill="#ffffff" stroke="#000000" points="171,-.5 171,-19.5 291,-19.5 291,-.5 171,-.5"/>
<text text-anchor="middle" x="231" y="-7.5" font-family="Helvetica,sans-Serif" font-size="10.00" fill="#000000">mlapi_data_pack::setup</text>
</a>
</g>
</g>
<!-- Node224&#45;&gt;Node226 -->
<g id="edge2" class="edge">
<title>Node224&#45;&gt;Node226</title>
<path fill="none" stroke="#191970" d="M145.4089,-19.9464C153.9605,-18.9526 162.5683,-17.9523 170.8569,-16.9891"/>
<polygon fill="#191970" stroke="#191970" points="144.9474,-16.4763 135.4183,-21.1074 145.7555,-23.4296 144.9474,-16.4763"/>
</g>
</g>
</svg>
