<?xml version="1.0" encoding="UTF-8" standalone="no"?>
<!DOCTYPE svg PUBLIC "-//W3C//DTD SVG 1.1//EN"
 "http://www.w3.org/Graphics/SVG/1.1/DTD/svg11.dtd">
<!-- Generated by graphviz version 2.40.1 (20161225.0304)
 -->
<!-- Title: Teuchos::Hashtable::size Pages: 1 -->
<svg width="552pt" height="116pt"
 viewBox="0.00 0.00 552.00 116.00" xmlns="http://www.w3.org/2000/svg" xmlns:xlink="http://www.w3.org/1999/xlink">
<g id="graph0" class="graph" transform="scale(1 1) rotate(0) translate(4 112)">
<title>Teuchos::Hashtable::size</title>
<polygon fill="#ffffff" stroke="transparent" points="-4,4 -4,-112 548,-112 548,4 -4,4"/>
<!-- Node50 -->
<g id="node1" class="node">
<title>Node50</title>
<polygon fill="#bfbfbf" stroke="#000000" points="0,-17 0,-47 104,-47 104,-17 0,-17"/>
<text text-anchor="start" x="8" y="-35" font-family="Helvetica,sans-Serif" font-size="10.00" fill="#000000">Teuchos::Hashtable</text>
<text text-anchor="middle" x="52" y="-24" font-family="Helvetica,sans-Serif" font-size="10.00" fill="#000000">::size</text>
</g>
<!-- Node51 -->
<g id="node2" class="node">
<title>Node51</title>
<g id="a_node2"><a xlink:href="../../d3/d17/class_teuchos_1_1_hashtable.html#a9a2e1e8efa9bfbe916924791d50da8d1" target="_top" xlink:title="Get lists of keys and values in Array form. ">
<polygon fill="#ffffff" stroke="#000000" points="140,-17 140,-47 244,-47 244,-17 140,-17"/>
<text text-anchor="start" x="148" y="-35" font-family="Helvetica,sans-Serif" font-size="10.00" fill="#000000">Teuchos::Hashtable</text>
<text text-anchor="middle" x="192" y="-24" font-family="Helvetica,sans-Serif" font-size="10.00" fill="#000000">::arrayify</text>
</a>
</g>
</g>
<!-- Node50&#45;&gt;Node51 -->
<g id="edge1" class="edge">
<title>Node50&#45;&gt;Node51</title>
<path fill="none" stroke="#191970" d="M114.3869,-32C122.8847,-32 131.5339,-32 139.8256,-32"/>
<polygon fill="#191970" stroke="#191970" points="114.1309,-28.5001 104.1308,-32 114.1308,-35.5001 114.1309,-28.5001"/>
</g>
<!-- Node52 -->
<g id="node3" class="node">
<title>Node52</title>
<g id="a_node3"><a xlink:href="../../d3/d17/class_teuchos_1_1_hashtable.html#a15d3297c44b253bfd055c72ccf469f10" target="_top" xlink:title="Write to a std::string. ">
<polygon fill="#ffffff" stroke="#000000" points="280,-39 280,-69 384,-69 384,-39 280,-39"/>
<text text-anchor="start" x="288" y="-57" font-family="Helvetica,sans-Serif" font-size="10.00" fill="#000000">Teuchos::Hashtable</text>
<text text-anchor="middle" x="332" y="-46" font-family="Helvetica,sans-Serif" font-size="10.00" fill="#000000">::toString</text>
</a>
</g>
</g>
<!-- Node51&#45;&gt;Node52 -->
<g id="edge2" class="edge">
<title>Node51&#45;&gt;Node52</title>
<path fill="none" stroke="#191970" d="M254.1068,-41.7596C262.6945,-43.1091 271.4428,-44.4839 279.8256,-45.8012"/>
<polygon fill="#191970" stroke="#191970" points="254.553,-38.2869 244.1308,-40.192 253.4662,-45.202 254.553,-38.2869"/>
</g>
<!-- Node56 -->
<g id="node7" class="node">
<title>Node56</title>
<g id="a_node7"><a xlink:href="../../d3/d74/namespace_teuchos.html#a1d42ecd3b77d84f0a7ed1c5d241aeec4" target="_top" xlink:title="Teuchos::toString">
<polygon fill="#ffffff" stroke="#000000" points="285,-.5 285,-19.5 379,-19.5 379,-.5 285,-.5"/>
<text text-anchor="middle" x="332" y="-7.5" font-family="Helvetica,sans-Serif" font-size="10.00" fill="#000000">Teuchos::toString</text>
</a>
</g>
</g>
<!-- Node51&#45;&gt;Node56 -->
<g id="edge6" class="edge">
<title>Node51&#45;&gt;Node56</title>
<path fill="none" stroke="#191970" d="M254.301,-22.2098C264.5793,-20.5947 275.0817,-18.9443 284.9073,-17.4003"/>
<polygon fill="#191970" stroke="#191970" points="253.4662,-18.798 244.1308,-23.808 254.553,-25.7131 253.4662,-18.798"/>
</g>
<!-- Node53 -->
<g id="node4" class="node">
<title>Node53</title>
<g id="a_node4"><a xlink:href="../../d3/d17/class_teuchos_1_1_hashtable.html#a86ab1eafeaf25525908240612858a85a" target="_top" xlink:title="Get the value indexed by key. ">
<polygon fill="#ffffff" stroke="#000000" points="420,-88.5 420,-107.5 544,-107.5 544,-88.5 420,-88.5"/>
<text text-anchor="middle" x="482" y="-95.5" font-family="Helvetica,sans-Serif" font-size="10.00" fill="#000000">Teuchos::Hashtable::get</text>
</a>
</g>
</g>
<!-- Node52&#45;&gt;Node53 -->
<g id="edge3" class="edge">
<title>Node52&#45;&gt;Node53</title>
<path fill="none" stroke="#191970" d="M392.8594,-71.8521C412.1842,-77.5207 432.8086,-83.5705 449.3468,-88.4217"/>
<polygon fill="#191970" stroke="#191970" points="393.7828,-68.4756 383.202,-69.0192 391.8125,-75.1925 393.7828,-68.4756"/>
</g>
<!-- Node54 -->
<g id="node5" class="node">
<title>Node54</title>
<g id="a_node5"><a xlink:href="../../d3/d17/class_teuchos_1_1_hashtable.html#aff32d447dc7b2835d8c6d00c0806f483" target="_top" xlink:title="Remove from the table the element given by key. ">
<polygon fill="#ffffff" stroke="#000000" points="430,-39 430,-69 534,-69 534,-39 430,-39"/>
<text text-anchor="start" x="438" y="-57" font-family="Helvetica,sans-Serif" font-size="10.00" fill="#000000">Teuchos::Hashtable</text>
<text text-anchor="middle" x="482" y="-46" font-family="Helvetica,sans-Serif" font-size="10.00" fill="#000000">::remove</text>
</a>
</g>
</g>
<!-- Node52&#45;&gt;Node54 -->
<g id="edge4" class="edge">
<title>Node52&#45;&gt;Node54</title>
<path fill="none" stroke="#191970" d="M394.2793,-54C406.0909,-54 418.336,-54 429.7964,-54"/>
<polygon fill="#191970" stroke="#191970" points="394.0418,-50.5001 384.0418,-54 394.0417,-57.5001 394.0418,-50.5001"/>
</g>
<!-- Node55 -->
<g id="node6" class="node">
<title>Node55</title>
<g id="a_node6"><a xlink:href="../../d3/d74/namespace_teuchos.html#a9233ded94b66e0d758650582a04ae04a" target="_top" xlink:title="Teuchos::operator\&lt;\&lt;">
<polygon fill="#ffffff" stroke="#000000" points="428.5,-.5 428.5,-19.5 535.5,-19.5 535.5,-.5 428.5,-.5"/>
<text text-anchor="middle" x="482" y="-7.5" font-family="Helvetica,sans-Serif" font-size="10.00" fill="#000000">Teuchos::operator&lt;&lt;</text>
</a>
</g>
</g>
<!-- Node52&#45;&gt;Node55 -->
<g id="edge5" class="edge">
<title>Node52&#45;&gt;Node55</title>
<path fill="none" stroke="#191970" d="M392.8594,-36.1479C412.1842,-30.4793 432.8086,-24.4295 449.3468,-19.5783"/>
<polygon fill="#191970" stroke="#191970" points="391.8125,-32.8075 383.202,-38.9808 393.7828,-39.5244 391.8125,-32.8075"/>
</g>
</g>
</svg>
