<?xml version="1.0" encoding="UTF-8" standalone="no"?>
<!DOCTYPE svg PUBLIC "-//W3C//DTD SVG 1.1//EN"
 "http://www.w3.org/Graphics/SVG/1.1/DTD/svg11.dtd">
<!-- Generated by graphviz version 2.40.1 (20161225.0304)
 -->
<!-- Title: COLAMD_MAIN Pages: 1 -->
<svg width="380pt" height="66pt"
 viewBox="0.00 0.00 380.00 66.00" xmlns="http://www.w3.org/2000/svg" xmlns:xlink="http://www.w3.org/1999/xlink">
<g id="graph0" class="graph" transform="scale(1 1) rotate(0) translate(4 62)">
<title>COLAMD_MAIN</title>
<polygon fill="#ffffff" stroke="transparent" points="-4,4 -4,-62 376,-62 376,4 -4,4"/>
<!-- Node10 -->
<g id="node1" class="node">
<title>Node10</title>
<polygon fill="#bfbfbf" stroke="#000000" points="0,-19.5 0,-38.5 90,-38.5 90,-19.5 0,-19.5"/>
<text text-anchor="middle" x="45" y="-26.5" font-family="Helvetica,sans-Serif" font-size="10.00" fill="#000000">COLAMD_MAIN</text>
</g>
<!-- Node11 -->
<g id="node2" class="node">
<title>Node11</title>
<g id="a_node2"><a xlink:href="../../d6/d5c/lpsolve_2colamd_2colamd_8c.html#a637a42b0535f2ba5ef8f1e7534048cc5" target="_top" xlink:title="colamd_get_debug">
<polygon fill="#ffffff" stroke="#000000" points="136,-38.5 136,-57.5 234,-57.5 234,-38.5 136,-38.5"/>
<text text-anchor="middle" x="185" y="-45.5" font-family="Helvetica,sans-Serif" font-size="10.00" fill="#000000">colamd_get_debug</text>
</a>
</g>
</g>
<!-- Node10&#45;&gt;Node11 -->
<g id="edge1" class="edge">
<title>Node10&#45;&gt;Node11</title>
<path fill="none" stroke="#191970" d="M90.0675,-35.1163C101.3195,-36.6434 113.5602,-38.3046 125.3954,-39.9108"/>
<polygon fill="#191970" stroke="#191970" points="125.2767,-43.4267 135.6566,-41.3034 126.2182,-36.4903 125.2767,-43.4267"/>
</g>
<!-- Node12 -->
<g id="node3" class="node">
<title>Node12</title>
<g id="a_node3"><a xlink:href="../../d0/dc9/_suite_sparse_2_c_o_l_a_m_d_2_source_2colamd_8c.html#a529a34306450638e16c4a70f30982abc" target="_top" xlink:title="COLAMD_set_defaults">
<polygon fill="#ffffff" stroke="#000000" points="126,-.5 126,-19.5 244,-19.5 244,-.5 126,-.5"/>
<text text-anchor="middle" x="185" y="-7.5" font-family="Helvetica,sans-Serif" font-size="10.00" fill="#000000">COLAMD_set_defaults</text>
</a>
</g>
</g>
<!-- Node10&#45;&gt;Node12 -->
<g id="edge2" class="edge">
<title>Node10&#45;&gt;Node12</title>
<path fill="none" stroke="#191970" d="M90.0675,-22.8837C98.3726,-21.7566 107.2162,-20.5564 116.0379,-19.3591"/>
<polygon fill="#191970" stroke="#191970" points="116.5202,-22.8259 125.9587,-18.0127 115.5788,-15.8894 116.5202,-22.8259"/>
</g>
<!-- Node13 -->
<g id="node4" class="node">
<title>Node13</title>
<g id="a_node4"><a xlink:href="../../d0/dc9/_suite_sparse_2_c_o_l_a_m_d_2_source_2colamd_8c.html#ab6758d8839dee8ff6d80d34b2c5d1de7" target="_top" xlink:title="SYMAMD_MAIN">
<polygon fill="#ffffff" stroke="#000000" points="280,-.5 280,-19.5 372,-19.5 372,-.5 280,-.5"/>
<text text-anchor="middle" x="326" y="-7.5" font-family="Helvetica,sans-Serif" font-size="10.00" fill="#000000">SYMAMD_MAIN</text>
</a>
</g>
</g>
<!-- Node12&#45;&gt;Node13 -->
<g id="edge3" class="edge">
<title>Node12&#45;&gt;Node13</title>
<path fill="none" stroke="#191970" d="M244.388,-10C252.8421,-10 261.5149,-10 269.9034,-10"/>
<polygon fill="#191970" stroke="#191970" points="269.9609,-13.5001 279.9609,-10 269.9609,-6.5001 269.9609,-13.5001"/>
</g>
</g>
</svg>
