<?xml version="1.0" encoding="UTF-8" standalone="no"?>
<!DOCTYPE svg PUBLIC "-//W3C//DTD SVG 1.1//EN"
 "http://www.w3.org/Graphics/SVG/1.1/DTD/svg11.dtd">
<!-- Generated by graphviz version 2.40.1 (20161225.0304)
 -->
<!-- Title: yyfmi1lex_init_extra Pages: 1 -->
<svg width="315pt" height="104pt"
 viewBox="0.00 0.00 315.00 104.00" xmlns="http://www.w3.org/2000/svg" xmlns:xlink="http://www.w3.org/1999/xlink">
<g id="graph0" class="graph" transform="scale(1 1) rotate(0) translate(4 100)">
<title>yyfmi1lex_init_extra</title>
<polygon fill="#ffffff" stroke="transparent" points="-4,4 -4,-100 311,-100 311,4 -4,4"/>
<!-- Node89 -->
<g id="node1" class="node">
<title>Node89</title>
<polygon fill="#bfbfbf" stroke="#000000" points="0,-38.5 0,-57.5 104,-57.5 104,-38.5 0,-38.5"/>
<text text-anchor="middle" x="52" y="-45.5" font-family="Helvetica,sans-Serif" font-size="10.00" fill="#000000">yyfmi1lex_init_extra</text>
</g>
<!-- Node90 -->
<g id="node2" class="node">
<title>Node90</title>
<g id="a_node2"><a xlink:href="../../d1/d71/lex_8yyfmi1_8c.html#a11278fcecba06a9e483889ff71cbdfed" target="_top" xlink:title="yyfmi1set_extra">
<polygon fill="#ffffff" stroke="#000000" points="140,-76.5 140,-95.5 226,-95.5 226,-76.5 140,-76.5"/>
<text text-anchor="middle" x="183" y="-83.5" font-family="Helvetica,sans-Serif" font-size="10.00" fill="#000000">yyfmi1set_extra</text>
</a>
</g>
</g>
<!-- Node89&#45;&gt;Node90 -->
<g id="edge1" class="edge">
<title>Node89&#45;&gt;Node90</title>
<path fill="none" stroke="#191970" d="M85.0568,-57.589C101.8125,-62.4494 122.3577,-68.4091 140.2965,-73.6127"/>
<polygon fill="#191970" stroke="#191970" points="139.3745,-76.9895 149.9537,-76.4141 141.3247,-70.2666 139.3745,-76.9895"/>
</g>
<!-- Node91 -->
<g id="node3" class="node">
<title>Node91</title>
<g id="a_node3"><a xlink:href="../../d1/d71/lex_8yyfmi1_8c.html#a1df226c27fcbf2c86c2d5978017e417e" target="_top" xlink:title="yyfmi1alloc">
<polygon fill="#ffffff" stroke="#000000" points="150,-38.5 150,-57.5 216,-57.5 216,-38.5 150,-38.5"/>
<text text-anchor="middle" x="183" y="-45.5" font-family="Helvetica,sans-Serif" font-size="10.00" fill="#000000">yyfmi1alloc</text>
</a>
</g>
</g>
<!-- Node89&#45;&gt;Node91 -->
<g id="edge2" class="edge">
<title>Node89&#45;&gt;Node91</title>
<path fill="none" stroke="#191970" d="M104.1511,-48C115.9507,-48 128.354,-48 139.7399,-48"/>
<polygon fill="#191970" stroke="#191970" points="139.8639,-51.5001 149.8638,-48 139.8638,-44.5001 139.8639,-51.5001"/>
</g>
<!-- Node93 -->
<g id="node5" class="node">
<title>Node93</title>
<g id="a_node5"><a xlink:href="../../d6/d84/3rd_party_2open62541_2open62541_8h.html#a362b656d9de3289b55b1035d14cb4b5d" target="_top" xlink:title="memset">
<polygon fill="#ffffff" stroke="#000000" points="157,-.5 157,-19.5 209,-19.5 209,-.5 157,-.5"/>
<text text-anchor="middle" x="183" y="-7.5" font-family="Helvetica,sans-Serif" font-size="10.00" fill="#000000">memset</text>
</a>
</g>
</g>
<!-- Node89&#45;&gt;Node93 -->
<g id="edge4" class="edge">
<title>Node89&#45;&gt;Node93</title>
<path fill="none" stroke="#191970" d="M85.0568,-38.411C104.0331,-32.9064 127.8699,-25.9919 147.2764,-20.3626"/>
<polygon fill="#191970" stroke="#191970" points="148.3428,-23.6976 156.9718,-17.5502 146.3926,-16.9747 148.3428,-23.6976"/>
</g>
<!-- Node92 -->
<g id="node4" class="node">
<title>Node92</title>
<g id="a_node4"><a xlink:href="../../dc/ddc/3rd_party_2flex-2_85_835_2parse_8c.html#a5faf6a2d99f50a4655dd390199a8db7b" target="_top" xlink:title="malloc">
<polygon fill="#ffffff" stroke="#000000" points="262,-38.5 262,-57.5 307,-57.5 307,-38.5 262,-38.5"/>
<text text-anchor="middle" x="284.5" y="-45.5" font-family="Helvetica,sans-Serif" font-size="10.00" fill="#000000">malloc</text>
</a>
</g>
</g>
<!-- Node91&#45;&gt;Node92 -->
<g id="edge3" class="edge">
<title>Node91&#45;&gt;Node92</title>
<path fill="none" stroke="#191970" d="M216.2349,-48C227.5388,-48 240.1641,-48 251.4532,-48"/>
<polygon fill="#191970" stroke="#191970" points="251.7807,-51.5001 261.7807,-48 251.7806,-44.5001 251.7807,-51.5001"/>
</g>
</g>
</svg>
