<?xml version="1.0" encoding="UTF-8" standalone="no"?>
<!DOCTYPE svg PUBLIC "-//W3C//DTD SVG 1.1//EN"
 "http://www.w3.org/Graphics/SVG/1.1/DTD/svg11.dtd">
<!-- Generated by graphviz version 2.40.1 (20161225.0304)
 -->
<!-- Title: omc_ExpandableArray_set Pages: 1 -->
<svg width="460pt" height="39pt"
 viewBox="0.00 0.00 460.00 39.00" xmlns="http://www.w3.org/2000/svg" xmlns:xlink="http://www.w3.org/1999/xlink">
<g id="graph0" class="graph" transform="scale(1 1) rotate(0) translate(4 35)">
<title>omc_ExpandableArray_set</title>
<polygon fill="#ffffff" stroke="transparent" points="-4,4 -4,-35 456,-35 456,4 -4,4"/>
<!-- Node1229 -->
<g id="node1" class="node">
<title>Node1229</title>
<polygon fill="#bfbfbf" stroke="#000000" points="0,-6 0,-25 134,-25 134,-6 0,-6"/>
<text text-anchor="middle" x="67" y="-13" font-family="Helvetica,sans-Serif" font-size="10.00" fill="#000000">omc_ExpandableArray_set</text>
</g>
<!-- Node1230 -->
<g id="node2" class="node">
<title>Node1230</title>
<g id="a_node2"><a xlink:href="../../d0/d79/_expandable_array_8c.html#ab7fab390a4e8bf3f3325376f6d8459f0" target="_top" xlink:title="omc_ExpandableArray\l_expandToSize">
<polygon fill="#ffffff" stroke="#000000" points="170,-.5 170,-30.5 285,-30.5 285,-.5 170,-.5"/>
<text text-anchor="start" x="178" y="-18.5" font-family="Helvetica,sans-Serif" font-size="10.00" fill="#000000">omc_ExpandableArray</text>
<text text-anchor="middle" x="227.5" y="-7.5" font-family="Helvetica,sans-Serif" font-size="10.00" fill="#000000">_expandToSize</text>
</a>
</g>
</g>
<!-- Node1229&#45;&gt;Node1230 -->
<g id="edge1" class="edge">
<title>Node1229&#45;&gt;Node1230</title>
<path fill="none" stroke="#191970" d="M134.1365,-15.5C142.5641,-15.5 151.1901,-15.5 159.629,-15.5"/>
<polygon fill="#191970" stroke="#191970" points="159.8039,-19.0001 169.8038,-15.5 159.8038,-12.0001 159.8039,-19.0001"/>
</g>
<!-- Node1231 -->
<g id="node3" class="node">
<title>Node1231</title>
<g id="a_node3"><a xlink:href="../../da/d17/_array_8c.html#a40ebd9c91c25ca91511bed61818384d4" target="_top" xlink:title="omc_Array_expandToSize">
<polygon fill="#ffffff" stroke="#000000" points="321,-6 321,-25 452,-25 452,-6 321,-6"/>
<text text-anchor="middle" x="386.5" y="-13" font-family="Helvetica,sans-Serif" font-size="10.00" fill="#000000">omc_Array_expandToSize</text>
</a>
</g>
</g>
<!-- Node1230&#45;&gt;Node1231 -->
<g id="edge2" class="edge">
<title>Node1230&#45;&gt;Node1231</title>
<path fill="none" stroke="#191970" d="M285.3524,-15.5C293.649,-15.5 302.2861,-15.5 310.8631,-15.5"/>
<polygon fill="#191970" stroke="#191970" points="310.8802,-19.0001 320.8801,-15.5 310.8801,-12.0001 310.8802,-19.0001"/>
</g>
</g>
</svg>
