<?xml version="1.0" encoding="UTF-8" standalone="no"?>
<!DOCTYPE svg PUBLIC "-//W3C//DTD SVG 1.1//EN"
 "http://www.w3.org/Graphics/SVG/1.1/DTD/svg11.dtd">
<!-- Generated by graphviz version 2.40.1 (20161225.0304)
 -->
<!-- Title: ComplexArrayDescriptor Pages: 1 -->
<svg width="242pt" height="173pt"
 viewBox="0.00 0.00 242.00 173.00" xmlns="http://www.w3.org/2000/svg" xmlns:xlink="http://www.w3.org/1999/xlink">
<g id="graph0" class="graph" transform="scale(1 1) rotate(0) translate(4 169)">
<title>ComplexArrayDescriptor</title>
<polygon fill="#ffffff" stroke="transparent" points="-4,4 -4,-169 238,-169 238,4 -4,4"/>
<!-- Node1 -->
<g id="node1" class="node">
<title>Node1</title>
<polygon fill="#bfbfbf" stroke="#000000" points="0,-145.5 0,-164.5 124,-164.5 124,-145.5 0,-145.5"/>
<text text-anchor="middle" x="62" y="-152.5" font-family="Helvetica,sans-Serif" font-size="10.00" fill="#000000">ComplexArrayDescriptor</text>
</g>
<!-- Node2 -->
<g id="node2" class="node">
<title>Node2</title>
<g id="a_node2"><a xlink:href="../../d2/db1/union_complex_descriptor.html" target="_top" xlink:title="ComplexDescriptor">
<polygon fill="#ffffff" stroke="#000000" points="37.5,-78.5 37.5,-97.5 138.5,-97.5 138.5,-78.5 37.5,-78.5"/>
<text text-anchor="middle" x="88" y="-85.5" font-family="Helvetica,sans-Serif" font-size="10.00" fill="#000000">ComplexDescriptor</text>
</a>
</g>
</g>
<!-- Node1&#45;&gt;Node2 -->
<g id="edge2" class="edge">
<title>Node1&#45;&gt;Node2</title>
<path fill="none" stroke="#9a32cd" stroke-dasharray="5,2" d="M54.7176,-135.3766C53.4472,-128.984 53.2798,-121.9946 56,-116 59.3554,-108.6054 65.7355,-102.3959 71.9214,-97.7183"/>
<polygon fill="#9a32cd" stroke="#9a32cd" points="51.4437,-136.6552 57.5819,-145.2908 58.1687,-134.7122 51.4437,-136.6552"/>
<text text-anchor="middle" x="63" y="-119" font-family="Helvetica,sans-Serif" font-size="10.00" fill="#000000"> ad</text>
</g>
<!-- Node2&#45;&gt;Node1 -->
<g id="edge1" class="edge">
<title>Node2&#45;&gt;Node1</title>
<path fill="none" stroke="#9a32cd" stroke-dasharray="5,2" d="M80.5823,-107.1147C75.726,-119.6292 69.5866,-135.45 65.7252,-145.4005"/>
<polygon fill="#9a32cd" stroke="#9a32cd" points="83.9269,-108.1706 84.2817,-97.5817 77.401,-105.6381 83.9269,-108.1706"/>
<text text-anchor="middle" x="117.5" y="-119" font-family="Helvetica,sans-Serif" font-size="10.00" fill="#000000"> ad_element_descr</text>
</g>
<!-- Node4 -->
<g id="node4" class="node">
<title>Node4</title>
<g id="a_node4"><a xlink:href="../../d0/da1/struct_sequence_descriptor.html" target="_top" xlink:title="SequenceDescriptor">
<polygon fill="#ffffff" stroke="#000000" points="35.5,-.5 35.5,-19.5 140.5,-19.5 140.5,-.5 35.5,-.5"/>
<text text-anchor="middle" x="88" y="-7.5" font-family="Helvetica,sans-Serif" font-size="10.00" fill="#000000">SequenceDescriptor</text>
</a>
</g>
</g>
<!-- Node2&#45;&gt;Node4 -->
<g id="edge5" class="edge">
<title>Node2&#45;&gt;Node4</title>
<path fill="none" stroke="#9a32cd" stroke-dasharray="5,2" d="M58.3543,-72.3917C54.1849,-68.8867 50.4809,-64.765 48,-60 43.4845,-51.3273 43.4845,-46.6727 48,-38 52.0712,-30.1805 59.4362,-24.0933 66.7467,-19.6214"/>
<polygon fill="#9a32cd" stroke="#9a32cd" points="56.5733,-75.4204 66.7467,-78.3786 60.6385,-69.7218 56.5733,-75.4204"/>
<text text-anchor="middle" x="73.5" y="-52" font-family="Helvetica,sans-Serif" font-size="10.00" fill="#000000"> sd_second</text>
<text text-anchor="middle" x="73.5" y="-41" font-family="Helvetica,sans-Serif" font-size="10.00" fill="#000000">sd_first</text>
</g>
<!-- Node3 -->
<g id="node3" class="node">
<title>Node3</title>
<g id="a_node3"><a xlink:href="../../d9/d5f/struct_leaf_descriptor.html" target="_top" xlink:title="LeafDescriptor">
<polygon fill="#ffffff" stroke="#000000" points="154,-145.5 154,-164.5 234,-164.5 234,-145.5 154,-145.5"/>
<text text-anchor="middle" x="194" y="-152.5" font-family="Helvetica,sans-Serif" font-size="10.00" fill="#000000">LeafDescriptor</text>
</a>
</g>
</g>
<!-- Node3&#45;&gt;Node2 -->
<g id="edge3" class="edge">
<title>Node3&#45;&gt;Node2</title>
<path fill="none" stroke="#9a32cd" stroke-dasharray="5,2" d="M182.7182,-136.8079C177.4649,-129.5334 170.6756,-121.5759 163,-116 151.8676,-107.913 138.1291,-101.8934 125.465,-97.5516"/>
<polygon fill="#9a32cd" stroke="#9a32cd" points="180.0233,-139.0733 188.502,-145.4265 185.8358,-135.1726 180.0233,-139.0733"/>
<text text-anchor="middle" x="179.5" y="-119" font-family="Helvetica,sans-Serif" font-size="10.00" fill="#000000"> ld</text>
</g>
<!-- Node4&#45;&gt;Node2 -->
<g id="edge4" class="edge">
<title>Node4&#45;&gt;Node2</title>
<path fill="none" stroke="#9a32cd" stroke-dasharray="5,2" d="M99.5632,-28.6029C100.9803,-31.6456 102.2067,-34.8392 103,-38 105.3802,-47.4836 105.3802,-50.5164 103,-60 101.3622,-66.5256 97.8787,-73.1906 94.6807,-78.3801"/>
<polygon fill="#9a32cd" stroke="#9a32cd" points="102.5313,-26.7346 94.6807,-19.6199 96.3811,-30.0774 102.5313,-26.7346"/>
<text text-anchor="middle" x="111" y="-46.5" font-family="Helvetica,sans-Serif" font-size="10.00" fill="#000000"> sd</text>
</g>
</g>
</svg>
