<?xml version="1.0" encoding="UTF-8" standalone="no"?>
<!DOCTYPE svg PUBLIC "-//W3C//DTD SVG 1.1//EN"
 "http://www.w3.org/Graphics/SVG/1.1/DTD/svg11.dtd">
<!-- Generated by graphviz version 2.40.1 (20161225.0304)
 -->
<!-- Title: omc_IOStream_create Pages: 1 -->
<svg width="760pt" height="598pt"
 viewBox="0.00 0.00 760.00 597.50" xmlns="http://www.w3.org/2000/svg" xmlns:xlink="http://www.w3.org/1999/xlink">
<g id="graph0" class="graph" transform="scale(1 1) rotate(0) translate(4 593.5)">
<title>omc_IOStream_create</title>
<polygon fill="#ffffff" stroke="transparent" points="-4,4 -4,-593.5 756,-593.5 756,4 -4,4"/>
<!-- Node72 -->
<g id="node1" class="node">
<title>Node72</title>
<polygon fill="#bfbfbf" stroke="#000000" points="0,-284.5 0,-303.5 115,-303.5 115,-284.5 0,-284.5"/>
<text text-anchor="middle" x="57.5" y="-291.5" font-family="Helvetica,sans-Serif" font-size="10.00" fill="#000000">omc_IOStream_create</text>
</g>
<!-- Node73 -->
<g id="node2" class="node">
<title>Node73</title>
<g id="a_node2"><a xlink:href="../../df/df2/_backend_dump_8h.html#a61d5d3f6233a530f84f5e85e24ecb807" target="_top" xlink:title="omc_BackendDump_dumpConstraints">
<polygon fill="#ffffff" stroke="#000000" points="154.5,-561.5 154.5,-580.5 339.5,-580.5 339.5,-561.5 154.5,-561.5"/>
<text text-anchor="middle" x="247" y="-568.5" font-family="Helvetica,sans-Serif" font-size="10.00" fill="#000000">omc_BackendDump_dumpConstraints</text>
</a>
</g>
</g>
<!-- Node72&#45;&gt;Node73 -->
<g id="edge1" class="edge">
<title>Node72&#45;&gt;Node73</title>
<path fill="none" stroke="#191970" d="M58.7474,-313.7121C62.859,-361.3485 80.1363,-483.4693 151,-547 157.9075,-553.1927 166.1723,-557.8407 174.9146,-561.3202"/>
<polygon fill="#191970" stroke="#191970" points="62.221,-313.2299 57.9763,-303.5226 55.241,-313.7582 62.221,-313.2299"/>
</g>
<!-- Node75 -->
<g id="node4" class="node">
<title>Node75</title>
<g id="a_node4"><a xlink:href="../../df/df2/_backend_dump_8h.html#a480ce9fbb074acf2cc5ca335e073d383" target="_top" xlink:title="omc_BackendDump_dumpAlgorithms">
<polygon fill="#ffffff" stroke="#000000" points="156.5,-518.5 156.5,-537.5 337.5,-537.5 337.5,-518.5 156.5,-518.5"/>
<text text-anchor="middle" x="247" y="-525.5" font-family="Helvetica,sans-Serif" font-size="10.00" fill="#000000">omc_BackendDump_dumpAlgorithms</text>
</a>
</g>
</g>
<!-- Node72&#45;&gt;Node75 -->
<g id="edge3" class="edge">
<title>Node72&#45;&gt;Node75</title>
<path fill="none" stroke="#191970" d="M59.94,-313.5455C66.3656,-356.2555 87.8514,-458.144 151,-509 155.6313,-512.7298 160.7907,-515.7949 166.2472,-518.3073"/>
<polygon fill="#191970" stroke="#191970" points="63.4002,-313.0161 58.5592,-303.5919 56.4666,-313.978 63.4002,-313.0161"/>
</g>
<!-- Node77 -->
<g id="node6" class="node">
<title>Node77</title>
<g id="a_node6"><a xlink:href="../../d2/db8/_d_a_e_dump_8h.html#ad3472e156d6eca50f9e01b13b449692c" target="_top" xlink:title="omc_DAEDump_dumpDAEElementsStr">
<polygon fill="#ffffff" stroke="#000000" points="151,-480.5 151,-499.5 343,-499.5 343,-480.5 151,-480.5"/>
<text text-anchor="middle" x="247" y="-487.5" font-family="Helvetica,sans-Serif" font-size="10.00" fill="#000000">omc_DAEDump_dumpDAEElementsStr</text>
</a>
</g>
</g>
<!-- Node72&#45;&gt;Node77 -->
<g id="edge5" class="edge">
<title>Node72&#45;&gt;Node77</title>
<path fill="none" stroke="#191970" d="M61.9221,-313.5859C71.3712,-350.654 97.1958,-430.9322 151,-471 156.0418,-474.7546 161.6316,-477.8208 167.5057,-480.3192"/>
<polygon fill="#191970" stroke="#191970" points="65.2513,-312.4612 59.5026,-303.5616 58.4467,-314.1037 65.2513,-312.4612"/>
</g>
<!-- Node78 -->
<g id="node7" class="node">
<title>Node78</title>
<g id="a_node7"><a xlink:href="../../d2/db8/_d_a_e_dump_8h.html#ac8ff43ab5b452e3876a7b04b3888bf7d" target="_top" xlink:title="omc_DAEDump_dumpConstraintsStr">
<polygon fill="#ffffff" stroke="#000000" points="157,-442.5 157,-461.5 337,-461.5 337,-442.5 157,-442.5"/>
<text text-anchor="middle" x="247" y="-449.5" font-family="Helvetica,sans-Serif" font-size="10.00" fill="#000000">omc_DAEDump_dumpConstraintsStr</text>
</a>
</g>
</g>
<!-- Node72&#45;&gt;Node78 -->
<g id="edge6" class="edge">
<title>Node72&#45;&gt;Node78</title>
<path fill="none" stroke="#191970" d="M64.7151,-313.1846C77.2704,-343.7715 106.1621,-403.1715 151,-433 156.7997,-436.8583 163.2042,-439.9681 169.8708,-442.4702"/>
<polygon fill="#191970" stroke="#191970" points="67.8837,-311.6791 60.956,-303.6629 61.3727,-314.2496 67.8837,-311.6791"/>
</g>
<!-- Node79 -->
<g id="node8" class="node">
<title>Node79</title>
<g id="a_node8"><a xlink:href="../../d2/db8/_d_a_e_dump_8h.html#a060f8b6f6025d41e23a3da9d84ffce7a" target="_top" xlink:title="omc_DAEDump_dumpAlgorithmsStr">
<polygon fill="#ffffff" stroke="#000000" points="159,-404.5 159,-423.5 335,-423.5 335,-404.5 159,-404.5"/>
<text text-anchor="middle" x="247" y="-411.5" font-family="Helvetica,sans-Serif" font-size="10.00" fill="#000000">omc_DAEDump_dumpAlgorithmsStr</text>
</a>
</g>
</g>
<!-- Node72&#45;&gt;Node79 -->
<g id="edge7" class="edge">
<title>Node72&#45;&gt;Node79</title>
<path fill="none" stroke="#191970" d="M68.9565,-312.1963C84.547,-335.3349 114.7022,-374.7124 151,-395 157.9704,-398.8959 165.6172,-402.0017 173.4571,-404.4762"/>
<polygon fill="#191970" stroke="#191970" points="71.768,-310.1008 63.3638,-303.6494 65.9106,-313.9336 71.768,-310.1008"/>
</g>
<!-- Node80 -->
<g id="node9" class="node">
<title>Node80</title>
<g id="a_node9"><a xlink:href="../../d2/db8/_d_a_e_dump_8h.html#ab6c224e18d40831599718cca5f47bc21" target="_top" xlink:title="omc_DAEDump_dumpElementsStr">
<polygon fill="#ffffff" stroke="#000000" points="161.5,-366.5 161.5,-385.5 332.5,-385.5 332.5,-366.5 161.5,-366.5"/>
<text text-anchor="middle" x="247" y="-373.5" font-family="Helvetica,sans-Serif" font-size="10.00" fill="#000000">omc_DAEDump_dumpElementsStr</text>
</a>
</g>
</g>
<!-- Node72&#45;&gt;Node80 -->
<g id="edge8" class="edge">
<title>Node72&#45;&gt;Node80</title>
<path fill="none" stroke="#191970" d="M76.406,-310.0874C94.4196,-324.5655 122.8884,-345.3077 151,-357 160.3339,-360.8822 170.5149,-363.9861 180.645,-366.4639"/>
<polygon fill="#191970" stroke="#191970" points="78.3986,-307.1947 68.4503,-303.5503 73.9546,-312.6031 78.3986,-307.1947"/>
</g>
<!-- Node81 -->
<g id="node10" class="node">
<title>Node81</title>
<g id="a_node10"><a xlink:href="../../d6/de3/_d_a_e_dump_8c.html#a416ceeef3bb2addd179342bdec8576cf" target="_top" xlink:title="omc_DAEDump_dumpVars">
<polygon fill="#ffffff" stroke="#000000" points="178.5,-328.5 178.5,-347.5 315.5,-347.5 315.5,-328.5 178.5,-328.5"/>
<text text-anchor="middle" x="247" y="-335.5" font-family="Helvetica,sans-Serif" font-size="10.00" fill="#000000">omc_DAEDump_dumpVars</text>
</a>
</g>
</g>
<!-- Node72&#45;&gt;Node81 -->
<g id="edge9" class="edge">
<title>Node72&#45;&gt;Node81</title>
<path fill="none" stroke="#191970" d="M101.0756,-306.2892C116.7581,-310.5427 134.6204,-315.1937 151,-319 165.3976,-322.3458 181.0968,-325.6118 195.55,-328.466"/>
<polygon fill="#191970" stroke="#191970" points="101.6915,-302.8291 91.1222,-303.5643 99.8431,-309.5807 101.6915,-302.8291"/>
</g>
<!-- Node86 -->
<g id="node15" class="node">
<title>Node86</title>
<g id="a_node15"><a xlink:href="../../d6/dff/_mathematica_dump_8c.html#a97d3863c128beb81b1da3f3524375032" target="_top" xlink:title="omc_MathematicaDump\l_dumpSingleAlgorithmStr">
<polygon fill="#ffffff" stroke="#000000" points="183.5,-279 183.5,-309 310.5,-309 310.5,-279 183.5,-279"/>
<text text-anchor="start" x="191.5" y="-297" font-family="Helvetica,sans-Serif" font-size="10.00" fill="#000000">omc_MathematicaDump</text>
<text text-anchor="middle" x="247" y="-286" font-family="Helvetica,sans-Serif" font-size="10.00" fill="#000000">_dumpSingleAlgorithmStr</text>
</a>
</g>
</g>
<!-- Node72&#45;&gt;Node86 -->
<g id="edge14" class="edge">
<title>Node72&#45;&gt;Node86</title>
<path fill="none" stroke="#191970" d="M125.1742,-294C144.1268,-294 164.6573,-294 183.3669,-294"/>
<polygon fill="#191970" stroke="#191970" points="125.1281,-290.5001 115.1281,-294 125.128,-297.5001 125.1281,-290.5001"/>
</g>
<!-- Node87 -->
<g id="node16" class="node">
<title>Node87</title>
<g id="a_node16"><a xlink:href="../../d7/db1/_n_f_equation_8h.html#a4301cf99d22f62958ba1a28946f33d57" target="_top" xlink:title="omc_NFEquation_toStringList">
<polygon fill="#ffffff" stroke="#000000" points="173.5,-240.5 173.5,-259.5 320.5,-259.5 320.5,-240.5 173.5,-240.5"/>
<text text-anchor="middle" x="247" y="-247.5" font-family="Helvetica,sans-Serif" font-size="10.00" fill="#000000">omc_NFEquation_toStringList</text>
</a>
</g>
</g>
<!-- Node72&#45;&gt;Node87 -->
<g id="edge15" class="edge">
<title>Node72&#45;&gt;Node87</title>
<path fill="none" stroke="#191970" d="M102.6732,-281.9592C117.9794,-277.9982 135.199,-273.6718 151,-270 166.5877,-266.3777 183.6715,-262.719 199.0512,-259.539"/>
<polygon fill="#191970" stroke="#191970" points="101.7198,-278.5906 92.9252,-284.4988 103.4846,-285.3645 101.7198,-278.5906"/>
</g>
<!-- Node88 -->
<g id="node17" class="node">
<title>Node88</title>
<g id="a_node17"><a xlink:href="../../d7/db1/_n_f_equation_8h.html#a555f11f99f9a987bd1372dc109240f3d" target="_top" xlink:title="omc_NFEquation_toString">
<polygon fill="#ffffff" stroke="#000000" points="181.5,-202.5 181.5,-221.5 312.5,-221.5 312.5,-202.5 181.5,-202.5"/>
<text text-anchor="middle" x="247" y="-209.5" font-family="Helvetica,sans-Serif" font-size="10.00" fill="#000000">omc_NFEquation_toString</text>
</a>
</g>
</g>
<!-- Node72&#45;&gt;Node88 -->
<g id="edge16" class="edge">
<title>Node72&#45;&gt;Node88</title>
<path fill="none" stroke="#191970" d="M76.406,-277.9126C94.4196,-263.4345 122.8884,-242.6923 151,-231 160.5692,-227.02 171.0287,-223.8579 181.411,-221.3499"/>
<polygon fill="#191970" stroke="#191970" points="73.9546,-275.3969 68.4503,-284.4497 78.3986,-280.8053 73.9546,-275.3969"/>
</g>
<!-- Node89 -->
<g id="node18" class="node">
<title>Node89</title>
<g id="a_node18"><a xlink:href="../../d5/dac/_n_f_flat_model_8h.html#a8f445926cb0229006e09bbf956e632b7" target="_top" xlink:title="omc_NFFlatModel_toString">
<polygon fill="#ffffff" stroke="#000000" points="179,-164.5 179,-183.5 315,-183.5 315,-164.5 179,-164.5"/>
<text text-anchor="middle" x="247" y="-171.5" font-family="Helvetica,sans-Serif" font-size="10.00" fill="#000000">omc_NFFlatModel_toString</text>
</a>
</g>
</g>
<!-- Node72&#45;&gt;Node89 -->
<g id="edge17" class="edge">
<title>Node72&#45;&gt;Node89</title>
<path fill="none" stroke="#191970" d="M68.9565,-275.8037C84.547,-252.6651 114.7022,-213.2876 151,-193 159.6018,-188.1923 169.2336,-184.5878 178.9872,-181.8881"/>
<polygon fill="#191970" stroke="#191970" points="65.9106,-274.0664 63.3638,-284.3506 71.768,-277.8992 65.9106,-274.0664"/>
</g>
<!-- Node90 -->
<g id="node19" class="node">
<title>Node90</title>
<g id="a_node19"><a xlink:href="../../d3/d84/_n_f_o_c_connection_graph_8c.html#ad78dece6b7f05a025af3bb5d3ff627e9" target="_top" xlink:title="omc_NFOCConnectionGraph\l_generateGraphViz">
<polygon fill="#ffffff" stroke="#000000" points="174.5,-115 174.5,-145 319.5,-145 319.5,-115 174.5,-115"/>
<text text-anchor="start" x="182.5" y="-133" font-family="Helvetica,sans-Serif" font-size="10.00" fill="#000000">omc_NFOCConnectionGraph</text>
<text text-anchor="middle" x="247" y="-122" font-family="Helvetica,sans-Serif" font-size="10.00" fill="#000000">_generateGraphViz</text>
</a>
</g>
</g>
<!-- Node72&#45;&gt;Node90 -->
<g id="edge18" class="edge">
<title>Node72&#45;&gt;Node90</title>
<path fill="none" stroke="#191970" d="M64.9229,-275.118C77.7712,-244.9576 107.0671,-186.1461 151,-155 158.025,-150.0197 165.9679,-146.0311 174.2023,-142.8369"/>
<polygon fill="#191970" stroke="#191970" points="61.6316,-273.9192 61.0672,-284.499 68.1061,-276.5803 61.6316,-273.9192"/>
</g>
<!-- Node91 -->
<g id="node20" class="node">
<title>Node91</title>
<g id="a_node20"><a xlink:href="../../dd/d28/_n_f_statement_8h.html#af1fea7977289ad953c676eacb352ef01" target="_top" xlink:title="omc_NFStatement_toStringList">
<polygon fill="#ffffff" stroke="#000000" points="170,-76.5 170,-95.5 324,-95.5 324,-76.5 170,-76.5"/>
<text text-anchor="middle" x="247" y="-83.5" font-family="Helvetica,sans-Serif" font-size="10.00" fill="#000000">omc_NFStatement_toStringList</text>
</a>
</g>
</g>
<!-- Node72&#45;&gt;Node91 -->
<g id="edge19" class="edge">
<title>Node72&#45;&gt;Node91</title>
<path fill="none" stroke="#191970" d="M61.271,-274.1764C69.7943,-235.1388 94.3835,-148.3438 151,-105 156.666,-100.6623 163.0568,-97.2365 169.7821,-94.5401"/>
<polygon fill="#191970" stroke="#191970" points="57.7849,-273.7533 59.2012,-284.2531 64.6418,-275.1618 57.7849,-273.7533"/>
</g>
<!-- Node93 -->
<g id="node22" class="node">
<title>Node93</title>
<g id="a_node22"><a xlink:href="../../dd/d28/_n_f_statement_8h.html#a73e089b17b55ab1b7d14b9b24e202519" target="_top" xlink:title="omc_NFStatement_toString">
<polygon fill="#ffffff" stroke="#000000" points="178,-38.5 178,-57.5 316,-57.5 316,-38.5 178,-38.5"/>
<text text-anchor="middle" x="247" y="-45.5" font-family="Helvetica,sans-Serif" font-size="10.00" fill="#000000">omc_NFStatement_toString</text>
</a>
</g>
</g>
<!-- Node72&#45;&gt;Node93 -->
<g id="edge21" class="edge">
<title>Node72&#45;&gt;Node93</title>
<path fill="none" stroke="#191970" d="M59.4641,-274.2961C65.0071,-229.8111 84.9545,-121.2587 151,-67 158.7455,-60.6368 168.0199,-56.1975 177.7071,-53.1332"/>
<polygon fill="#191970" stroke="#191970" points="55.9699,-274.0485 58.3231,-284.3787 62.9255,-274.8357 55.9699,-274.0485"/>
</g>
<!-- Node94 -->
<g id="node23" class="node">
<title>Node94</title>
<g id="a_node23"><a xlink:href="../../d7/d45/_n_f_variable_8h.html#af4f2d858712531c13f0f013948e8ba28" target="_top" xlink:title="omc_NFVariable_toString">
<polygon fill="#ffffff" stroke="#000000" points="183,-.5 183,-19.5 311,-19.5 311,-.5 183,-.5"/>
<text text-anchor="middle" x="247" y="-7.5" font-family="Helvetica,sans-Serif" font-size="10.00" fill="#000000">omc_NFVariable_toString</text>
</a>
</g>
</g>
<!-- Node72&#45;&gt;Node94 -->
<g id="edge22" class="edge">
<title>Node72&#45;&gt;Node94</title>
<path fill="none" stroke="#191970" d="M61.7983,-274.3069C74.3226,-218.7174 112.3499,-62.4566 151,-29 159.992,-21.2163 171.2442,-16.2687 182.8483,-13.1882"/>
<polygon fill="#191970" stroke="#191970" points="58.3326,-273.7686 59.581,-284.2896 65.1661,-275.2864 58.3326,-273.7686"/>
</g>
<!-- Node74 -->
<g id="node3" class="node">
<title>Node74</title>
<g id="a_node3"><a xlink:href="../../df/df2/_backend_dump_8h.html#a6dc178f1ffc38a9e394f81755b8c39b7" target="_top" xlink:title="boxptr_BackendDump\l_dumpConstraints">
<polygon fill="#ffffff" stroke="#000000" points="401.5,-559 401.5,-589 514.5,-589 514.5,-559 401.5,-559"/>
<text text-anchor="start" x="409.5" y="-577" font-family="Helvetica,sans-Serif" font-size="10.00" fill="#000000">boxptr_BackendDump</text>
<text text-anchor="middle" x="458" y="-566" font-family="Helvetica,sans-Serif" font-size="10.00" fill="#000000">_dumpConstraints</text>
</a>
</g>
</g>
<!-- Node73&#45;&gt;Node74 -->
<g id="edge2" class="edge">
<title>Node73&#45;&gt;Node74</title>
<path fill="none" stroke="#191970" d="M349.9438,-572.4637C367.6451,-572.7153 385.4425,-572.9684 401.341,-573.1944"/>
<polygon fill="#191970" stroke="#191970" points="349.5965,-568.9585 339.5477,-572.3158 349.4969,-575.9578 349.5965,-568.9585"/>
</g>
<!-- Node76 -->
<g id="node5" class="node">
<title>Node76</title>
<g id="a_node5"><a xlink:href="../../df/df2/_backend_dump_8h.html#a1b26cbf46693fcca87f0a5e389bf0d3e" target="_top" xlink:title="boxptr_BackendDump\l_dumpAlgorithms">
<polygon fill="#ffffff" stroke="#000000" points="401.5,-510 401.5,-540 514.5,-540 514.5,-510 401.5,-510"/>
<text text-anchor="start" x="409.5" y="-528" font-family="Helvetica,sans-Serif" font-size="10.00" fill="#000000">boxptr_BackendDump</text>
<text text-anchor="middle" x="458" y="-517" font-family="Helvetica,sans-Serif" font-size="10.00" fill="#000000">_dumpAlgorithms</text>
</a>
</g>
</g>
<!-- Node75&#45;&gt;Node76 -->
<g id="edge4" class="edge">
<title>Node75&#45;&gt;Node76</title>
<path fill="none" stroke="#191970" d="M347.86,-526.566C366.1944,-526.3053 384.7161,-526.042 401.2043,-525.8075"/>
<polygon fill="#191970" stroke="#191970" points="347.6567,-523.0684 337.7075,-526.7103 347.7563,-530.0677 347.6567,-523.0684"/>
</g>
<!-- Node82 -->
<g id="node11" class="node">
<title>Node82</title>
<g id="a_node11"><a xlink:href="../../d6/de3/_d_a_e_dump_8c.html#a29bb8cf1bebeaf03d30ed236be94b794" target="_top" xlink:title="boxptr_DAEDump_dumpVars">
<polygon fill="#ffffff" stroke="#000000" points="385,-372.5 385,-391.5 531,-391.5 531,-372.5 385,-372.5"/>
<text text-anchor="middle" x="458" y="-379.5" font-family="Helvetica,sans-Serif" font-size="10.00" fill="#000000">boxptr_DAEDump_dumpVars</text>
</a>
</g>
</g>
<!-- Node81&#45;&gt;Node82 -->
<g id="edge10" class="edge">
<title>Node81&#45;&gt;Node82</title>
<path fill="none" stroke="#191970" d="M306.391,-349.5746C318.5118,-351.9873 331.1734,-354.5444 343,-357 366.9059,-361.9637 393.5518,-367.7408 415.1706,-372.4903"/>
<polygon fill="#191970" stroke="#191970" points="306.8567,-346.0989 296.3669,-347.5872 305.4953,-352.9652 306.8567,-346.0989"/>
</g>
<!-- Node83 -->
<g id="node12" class="node">
<title>Node83</title>
<g id="a_node12"><a xlink:href="../../d2/db8/_d_a_e_dump_8h.html#aef825b4b10c7d8961de884af6cfb0a5d" target="_top" xlink:title="omc_DAEDump_dumpFunction\lElements">
<polygon fill="#ffffff" stroke="#000000" points="380.5,-323 380.5,-353 535.5,-353 535.5,-323 380.5,-323"/>
<text text-anchor="start" x="388.5" y="-341" font-family="Helvetica,sans-Serif" font-size="10.00" fill="#000000">omc_DAEDump_dumpFunction</text>
<text text-anchor="middle" x="458" y="-330" font-family="Helvetica,sans-Serif" font-size="10.00" fill="#000000">Elements</text>
</a>
</g>
</g>
<!-- Node81&#45;&gt;Node83 -->
<g id="edge11" class="edge">
<title>Node81&#45;&gt;Node83</title>
<path fill="none" stroke="#191970" d="M325.8515,-338C343.6643,-338 362.5617,-338 380.3256,-338"/>
<polygon fill="#191970" stroke="#191970" points="325.5057,-334.5001 315.5057,-338 325.5056,-341.5001 325.5057,-334.5001"/>
</g>
<!-- Node84 -->
<g id="node13" class="node">
<title>Node84</title>
<g id="a_node13"><a xlink:href="../../d2/db8/_d_a_e_dump_8h.html#a84a4c867b5a22d90546bb25d35222247" target="_top" xlink:title="omc_DAEDump_dumpElements">
<polygon fill="#ffffff" stroke="#000000" points="379,-284.5 379,-303.5 537,-303.5 537,-284.5 379,-284.5"/>
<text text-anchor="middle" x="458" y="-291.5" font-family="Helvetica,sans-Serif" font-size="10.00" fill="#000000">omc_DAEDump_dumpElements</text>
</a>
</g>
</g>
<!-- Node81&#45;&gt;Node84 -->
<g id="edge12" class="edge">
<title>Node81&#45;&gt;Node84</title>
<path fill="none" stroke="#191970" d="M306.391,-326.4254C318.5118,-324.0127 331.1734,-321.4556 343,-319 366.9059,-314.0363 393.5518,-308.2592 415.1706,-303.5097"/>
<polygon fill="#191970" stroke="#191970" points="305.4953,-323.0348 296.3669,-328.4128 306.8567,-329.9011 305.4953,-323.0348"/>
</g>
<!-- Node85 -->
<g id="node14" class="node">
<title>Node85</title>
<g id="a_node14"><a xlink:href="../../d6/de3/_d_a_e_dump_8c.html#a7e95ba6293de8743a8c166c5d34fa7d2" target="_top" xlink:title="omc_DAEDump_dumpCompElement">
<polygon fill="#ffffff" stroke="#000000" points="573,-284.5 573,-303.5 752,-303.5 752,-284.5 573,-284.5"/>
<text text-anchor="middle" x="662.5" y="-291.5" font-family="Helvetica,sans-Serif" font-size="10.00" fill="#000000">omc_DAEDump_dumpCompElement</text>
</a>
</g>
</g>
<!-- Node84&#45;&gt;Node85 -->
<g id="edge13" class="edge">
<title>Node84&#45;&gt;Node85</title>
<path fill="none" stroke="#191970" d="M547.2928,-294C555.7395,-294 564.306,-294 572.7568,-294"/>
<polygon fill="#191970" stroke="#191970" points="547.0651,-290.5001 537.065,-294 547.065,-297.5001 547.0651,-290.5001"/>
</g>
<!-- Node92 -->
<g id="node21" class="node">
<title>Node92</title>
<g id="a_node21"><a xlink:href="../../db/dc2/_n_f_algorithm_8h.html#a4a681c1b94c11c51c56587e945441834" target="_top" xlink:title="omc_NFAlgorithm_toString">
<polygon fill="#ffffff" stroke="#000000" points="391,-76.5 391,-95.5 525,-95.5 525,-76.5 391,-76.5"/>
<text text-anchor="middle" x="458" y="-83.5" font-family="Helvetica,sans-Serif" font-size="10.00" fill="#000000">omc_NFAlgorithm_toString</text>
</a>
</g>
</g>
<!-- Node91&#45;&gt;Node92 -->
<g id="edge20" class="edge">
<title>Node91&#45;&gt;Node92</title>
<path fill="none" stroke="#191970" d="M334.1872,-86C353.1221,-86 372.8688,-86 390.886,-86"/>
<polygon fill="#191970" stroke="#191970" points="334.0715,-82.5001 324.0715,-86 334.0715,-89.5001 334.0715,-82.5001"/>
</g>
</g>
</svg>
