<?xml version="1.0" encoding="UTF-8" standalone="no"?>
<!DOCTYPE svg PUBLIC "-//W3C//DTD SVG 1.1//EN"
 "http://www.w3.org/Graphics/SVG/1.1/DTD/svg11.dtd">
<!-- Generated by graphviz version 2.40.1 (20161225.0304)
 -->
<!-- Title: omc_Refactor_getExtentModification Pages: 1 -->
<svg width="1147pt" height="66pt"
 viewBox="0.00 0.00 1147.00 66.00" xmlns="http://www.w3.org/2000/svg" xmlns:xlink="http://www.w3.org/1999/xlink">
<g id="graph0" class="graph" transform="scale(1 1) rotate(0) translate(4 62)">
<title>omc_Refactor_getExtentModification</title>
<polygon fill="#ffffff" stroke="transparent" points="-4,4 -4,-62 1143,-62 1143,4 -4,4"/>
<!-- Node593 -->
<g id="node1" class="node">
<title>Node593</title>
<polygon fill="#bfbfbf" stroke="#000000" points="0,-19.5 0,-38.5 178,-38.5 178,-19.5 0,-19.5"/>
<text text-anchor="middle" x="89" y="-26.5" font-family="Helvetica,sans-Serif" font-size="10.00" fill="#000000">omc_Refactor_getExtentModification</text>
</g>
<!-- Node594 -->
<g id="node2" class="node">
<title>Node594</title>
<g id="a_node2"><a xlink:href="../../d1/d0b/_refactor_8c.html#a268493e9595ebde473a894b1dede2a4c" target="_top" xlink:title="omc_Refactor_getCoordsFrom\lLayerArgs">
<polygon fill="#ffffff" stroke="#000000" points="214,-14 214,-44 365,-44 365,-14 214,-14"/>
<text text-anchor="start" x="222" y="-32" font-family="Helvetica,sans-Serif" font-size="10.00" fill="#000000">omc_Refactor_getCoordsFrom</text>
<text text-anchor="middle" x="289.5" y="-21" font-family="Helvetica,sans-Serif" font-size="10.00" fill="#000000">LayerArgs</text>
</a>
</g>
</g>
<!-- Node593&#45;&gt;Node594 -->
<g id="edge1" class="edge">
<title>Node593&#45;&gt;Node594</title>
<path fill="none" stroke="#191970" d="M188.2051,-29C196.8217,-29 205.4487,-29 213.8313,-29"/>
<polygon fill="#191970" stroke="#191970" points="188.1099,-25.5001 178.1098,-29 188.1098,-32.5001 188.1099,-25.5001"/>
</g>
<!-- Node595 -->
<g id="node3" class="node">
<title>Node595</title>
<g id="a_node3"><a xlink:href="../../d1/d0b/_refactor_8c.html#acf27f6b0a4bd438ca0fb07e659567814" target="_top" xlink:title="omc_Refactor_getCoordsIn\lAnnList">
<polygon fill="#ffffff" stroke="#000000" points="401,-14 401,-44 538,-44 538,-14 401,-14"/>
<text text-anchor="start" x="409" y="-32" font-family="Helvetica,sans-Serif" font-size="10.00" fill="#000000">omc_Refactor_getCoordsIn</text>
<text text-anchor="middle" x="469.5" y="-21" font-family="Helvetica,sans-Serif" font-size="10.00" fill="#000000">AnnList</text>
</a>
</g>
</g>
<!-- Node594&#45;&gt;Node595 -->
<g id="edge2" class="edge">
<title>Node594&#45;&gt;Node595</title>
<path fill="none" stroke="#191970" d="M375.1008,-29C383.6965,-29 392.3457,-29 400.734,-29"/>
<polygon fill="#191970" stroke="#191970" points="375.0539,-25.5001 365.0538,-29 375.0538,-32.5001 375.0539,-25.5001"/>
</g>
<!-- Node596 -->
<g id="node4" class="node">
<title>Node596</title>
<g id="a_node4"><a xlink:href="../../d1/d0b/_refactor_8c.html#a0c2271ac1475c2ec8a3c29259ec3b73b" target="_top" xlink:title="omc_Refactor_getCoordsIn\lClass">
<polygon fill="#ffffff" stroke="#000000" points="574,-14 574,-44 711,-44 711,-14 574,-14"/>
<text text-anchor="start" x="582" y="-32" font-family="Helvetica,sans-Serif" font-size="10.00" fill="#000000">omc_Refactor_getCoordsIn</text>
<text text-anchor="middle" x="642.5" y="-21" font-family="Helvetica,sans-Serif" font-size="10.00" fill="#000000">Class</text>
</a>
</g>
</g>
<!-- Node595&#45;&gt;Node596 -->
<g id="edge3" class="edge">
<title>Node595&#45;&gt;Node596</title>
<path fill="none" stroke="#191970" d="M548.5941,-29C557.0314,-29 565.5633,-29 573.8657,-29"/>
<polygon fill="#191970" stroke="#191970" points="548.3713,-25.5001 538.3713,-29 548.3712,-32.5001 548.3713,-25.5001"/>
</g>
<!-- Node597 -->
<g id="node5" class="node">
<title>Node597</title>
<g id="a_node5"><a xlink:href="../../d1/d0b/_refactor_8c.html#a46418749c254cb6955f67c10a9a78727" target="_top" xlink:title="omc_Refactor_getCoordsInPath">
<polygon fill="#ffffff" stroke="#000000" points="747,-19.5 747,-38.5 904,-38.5 904,-19.5 747,-19.5"/>
<text text-anchor="middle" x="825.5" y="-26.5" font-family="Helvetica,sans-Serif" font-size="10.00" fill="#000000">omc_Refactor_getCoordsInPath</text>
</a>
</g>
</g>
<!-- Node596&#45;&gt;Node597 -->
<g id="edge4" class="edge">
<title>Node596&#45;&gt;Node597</title>
<path fill="none" stroke="#191970" d="M721.39,-29C729.8501,-29 738.4569,-29 746.9136,-29"/>
<polygon fill="#191970" stroke="#191970" points="721.1631,-25.5001 711.1631,-29 721.1631,-32.5001 721.1631,-25.5001"/>
</g>
<!-- Node598 -->
<g id="node6" class="node">
<title>Node598</title>
<g id="a_node6"><a xlink:href="../../d1/d0b/_refactor_8c.html#afa8176bf2dfc0578730fd0cf1edfc987" target="_top" xlink:title="omc_Refactor_getDiagramTransformation">
<polygon fill="#ffffff" stroke="#000000" points="940,-38.5 940,-57.5 1139,-57.5 1139,-38.5 940,-38.5"/>
<text text-anchor="middle" x="1039.5" y="-45.5" font-family="Helvetica,sans-Serif" font-size="10.00" fill="#000000">omc_Refactor_getDiagramTransformation</text>
</a>
</g>
</g>
<!-- Node597&#45;&gt;Node598 -->
<g id="edge5" class="edge">
<title>Node597&#45;&gt;Node598</title>
<path fill="none" stroke="#191970" d="M914.4031,-36.8933C922.7809,-37.6371 931.3111,-38.3944 939.7803,-39.1464"/>
<polygon fill="#191970" stroke="#191970" points="914.5444,-33.3921 904.274,-35.994 913.9253,-40.3647 914.5444,-33.3921"/>
</g>
<!-- Node599 -->
<g id="node7" class="node">
<title>Node599</title>
<g id="a_node7"><a xlink:href="../../d1/d0b/_refactor_8c.html#a329398066df385507942d604888ba1ed" target="_top" xlink:title="omc_Refactor_getIconTransformation">
<polygon fill="#ffffff" stroke="#000000" points="949,-.5 949,-19.5 1130,-19.5 1130,-.5 949,-.5"/>
<text text-anchor="middle" x="1039.5" y="-7.5" font-family="Helvetica,sans-Serif" font-size="10.00" fill="#000000">omc_Refactor_getIconTransformation</text>
</a>
</g>
</g>
<!-- Node597&#45;&gt;Node599 -->
<g id="edge6" class="edge">
<title>Node597&#45;&gt;Node599</title>
<path fill="none" stroke="#191970" d="M914.2579,-21.1196C925.7188,-20.1021 937.4675,-19.059 948.9568,-18.0389"/>
<polygon fill="#191970" stroke="#191970" points="913.9253,-17.6353 904.274,-22.006 914.5444,-24.6079 913.9253,-17.6353"/>
</g>
</g>
</svg>
