<?xml version="1.0" encoding="UTF-8" standalone="no"?>
<!DOCTYPE svg PUBLIC "-//W3C//DTD SVG 1.1//EN"
 "http://www.w3.org/Graphics/SVG/1.1/DTD/svg11.dtd">
<!-- Generated by graphviz version 2.40.1 (20161225.0304)
 -->
<!-- Title: omc_Refactor_refactorGraphicalAnnotation Pages: 1 -->
<svg width="345pt" height="39pt"
 viewBox="0.00 0.00 345.00 39.00" xmlns="http://www.w3.org/2000/svg" xmlns:xlink="http://www.w3.org/1999/xlink">
<g id="graph0" class="graph" transform="scale(1 1) rotate(0) translate(4 35)">
<title>omc_Refactor_refactorGraphicalAnnotation</title>
<polygon fill="#ffffff" stroke="transparent" points="-4,4 -4,-35 341,-35 341,4 -4,4"/>
<!-- Node1179 -->
<g id="node1" class="node">
<title>Node1179</title>
<polygon fill="#bfbfbf" stroke="#000000" points="0,-.5 0,-30.5 158,-30.5 158,-.5 0,-.5"/>
<text text-anchor="start" x="8" y="-18.5" font-family="Helvetica,sans-Serif" font-size="10.00" fill="#000000">omc_Refactor_refactorGraphical</text>
<text text-anchor="middle" x="79" y="-7.5" font-family="Helvetica,sans-Serif" font-size="10.00" fill="#000000">Annotation</text>
</g>
<!-- Node1180 -->
<g id="node2" class="node">
<title>Node1180</title>
<g id="a_node2"><a xlink:href="../../d1/d0b/_refactor_8c.html#a734e76fd0efb63158c1f4c9bfa828927" target="_top" xlink:title="omc_Refactor_refactorGraph\lAnnInClass">
<polygon fill="#ffffff" stroke="#000000" points="194,-.5 194,-30.5 337,-30.5 337,-.5 194,-.5"/>
<text text-anchor="start" x="202" y="-18.5" font-family="Helvetica,sans-Serif" font-size="10.00" fill="#000000">omc_Refactor_refactorGraph</text>
<text text-anchor="middle" x="265.5" y="-7.5" font-family="Helvetica,sans-Serif" font-size="10.00" fill="#000000">AnnInClass</text>
</a>
</g>
</g>
<!-- Node1179&#45;&gt;Node1180 -->
<g id="edge1" class="edge">
<title>Node1179&#45;&gt;Node1180</title>
<path fill="none" stroke="#191970" d="M158.0928,-15.5C166.6556,-15.5 175.3814,-15.5 183.9723,-15.5"/>
<polygon fill="#191970" stroke="#191970" points="183.9776,-19.0001 193.9776,-15.5 183.9775,-12.0001 183.9776,-19.0001"/>
</g>
</g>
</svg>
