<?xml version="1.0" encoding="UTF-8" standalone="no"?>
<!DOCTYPE svg PUBLIC "-//W3C//DTD SVG 1.1//EN"
 "http://www.w3.org/Graphics/SVG/1.1/DTD/svg11.dtd">
<!-- Generated by graphviz version 2.40.1 (20161225.0304)
 -->
<!-- Title: boxptr_Vectorization_expEqualNoCrefSubs Pages: 1 -->
<svg width="868pt" height="310pt"
 viewBox="0.00 0.00 868.00 309.50" xmlns="http://www.w3.org/2000/svg" xmlns:xlink="http://www.w3.org/1999/xlink">
<g id="graph0" class="graph" transform="scale(1 1) rotate(0) translate(4 305.5)">
<title>boxptr_Vectorization_expEqualNoCrefSubs</title>
<polygon fill="#ffffff" stroke="transparent" points="-4,4 -4,-305.5 864,-305.5 864,4 -4,4"/>
<!-- Node38 -->
<g id="node1" class="node">
<title>Node38</title>
<polygon fill="#bfbfbf" stroke="#000000" points="0,-141.5 0,-171.5 116,-171.5 116,-141.5 0,-141.5"/>
<text text-anchor="start" x="8" y="-159.5" font-family="Helvetica,sans-Serif" font-size="10.00" fill="#000000">boxptr_Vectorization</text>
<text text-anchor="middle" x="58" y="-148.5" font-family="Helvetica,sans-Serif" font-size="10.00" fill="#000000">_expEqualNoCrefSubs</text>
</g>
<!-- Node39 -->
<g id="node2" class="node">
<title>Node39</title>
<g id="a_node2"><a xlink:href="../../d1/df3/_vectorization_8c.html#a73e71b897f0864778368afd30df270b8" target="_top" xlink:title="omc_Vectorization_expEqual\lNoCrefSubs">
<polygon fill="#ffffff" stroke="#000000" points="152,-141.5 152,-171.5 295,-171.5 295,-141.5 152,-141.5"/>
<text text-anchor="start" x="160" y="-159.5" font-family="Helvetica,sans-Serif" font-size="10.00" fill="#000000">omc_Vectorization_expEqual</text>
<text text-anchor="middle" x="223.5" y="-148.5" font-family="Helvetica,sans-Serif" font-size="10.00" fill="#000000">NoCrefSubs</text>
</a>
</g>
</g>
<!-- Node38&#45;&gt;Node39 -->
<g id="edge1" class="edge">
<title>Node38&#45;&gt;Node39</title>
<path fill="none" stroke="#191970" d="M116.3491,-156.5C124.5765,-156.5 133.1573,-156.5 141.7242,-156.5"/>
<polygon fill="#191970" stroke="#191970" points="141.7526,-160.0001 151.7525,-156.5 141.7525,-153.0001 141.7526,-160.0001"/>
</g>
<!-- Node39&#45;&gt;Node39 -->
<g id="edge16" class="edge">
<title>Node39&#45;&gt;Node39</title>
<path fill="none" stroke="#191970" d="M194.9196,-171.659C188.0279,-181.0566 197.5547,-190 223.5,-190 239.3104,-190 249.024,-186.679 252.6408,-181.9579"/>
<polygon fill="#191970" stroke="#191970" points="256.1187,-181.454 252.0804,-171.659 249.129,-181.8344 256.1187,-181.454"/>
</g>
<!-- Node40 -->
<g id="node3" class="node">
<title>Node40</title>
<g id="a_node3"><a xlink:href="../../d0/d78/_absyn_8c.html#a8ad96aa8a78d49e3c6e12575c1bee42d" target="_top" xlink:title="omc_Absyn_pathEqual">
<polygon fill="#ffffff" stroke="#000000" points="350,-282 350,-301 467,-301 467,-282 350,-282"/>
<text text-anchor="middle" x="408.5" y="-289" font-family="Helvetica,sans-Serif" font-size="10.00" fill="#000000">omc_Absyn_pathEqual</text>
</a>
</g>
</g>
<!-- Node39&#45;&gt;Node40 -->
<g id="edge2" class="edge">
<title>Node39&#45;&gt;Node40</title>
<path fill="none" stroke="#191970" d="M233.0748,-171.563C249.7857,-196.5663 286.7492,-246.4587 331,-272.5 334.6937,-274.6737 338.6265,-276.5996 342.6867,-278.3057"/>
<polygon fill="#191970" stroke="#191970" points="341.7462,-281.6902 352.339,-281.901 344.1897,-275.1305 341.7462,-281.6902"/>
</g>
<!-- Node41 -->
<g id="node4" class="node">
<title>Node41</title>
<g id="a_node4"><a xlink:href="../../d9/d14/_component_reference_8c.html#a5138b6780a4be3cf70b3967faf748741" target="_top" xlink:title="omc_ComponentReference\l_crefEqualWithoutSubs">
<polygon fill="#ffffff" stroke="#000000" points="340.5,-232.5 340.5,-262.5 476.5,-262.5 476.5,-232.5 340.5,-232.5"/>
<text text-anchor="start" x="348.5" y="-250.5" font-family="Helvetica,sans-Serif" font-size="10.00" fill="#000000">omc_ComponentReference</text>
<text text-anchor="middle" x="408.5" y="-239.5" font-family="Helvetica,sans-Serif" font-size="10.00" fill="#000000">_crefEqualWithoutSubs</text>
</a>
</g>
</g>
<!-- Node39&#45;&gt;Node41 -->
<g id="edge3" class="edge">
<title>Node39&#45;&gt;Node41</title>
<path fill="none" stroke="#191970" d="M244.8805,-171.7509C265.9853,-186.2835 299.5672,-208.0337 331,-222.5 335.8963,-224.7534 341.0531,-226.8901 346.2842,-228.8949"/>
<polygon fill="#191970" stroke="#191970" points="345.1465,-232.2055 355.7402,-232.3578 347.5536,-225.6324 345.1465,-232.2055"/>
</g>
<!-- Node43 -->
<g id="node6" class="node">
<title>Node43</title>
<g id="a_node6"><a xlink:href="../../dc/dd0/build_2include_2omc_2c_2meta_2meta__modelica_8h.html#a053b78d26cb7fe728aa97ab1a575f7ad" target="_top" xlink:title="valueEq">
<polygon fill="#ffffff" stroke="#000000" points="382.5,-194 382.5,-213 434.5,-213 434.5,-194 382.5,-194"/>
<text text-anchor="middle" x="408.5" y="-201" font-family="Helvetica,sans-Serif" font-size="10.00" fill="#000000">valueEq</text>
</a>
</g>
</g>
<!-- Node39&#45;&gt;Node43 -->
<g id="edge5" class="edge">
<title>Node39&#45;&gt;Node43</title>
<path fill="none" stroke="#191970" d="M282.5438,-171.5003C312.0988,-179.0089 346.9201,-187.8554 372.4511,-194.3416"/>
<polygon fill="#191970" stroke="#191970" points="371.8829,-197.8084 382.4368,-196.8785 373.6065,-191.0239 371.8829,-197.8084"/>
</g>
<!-- Node44 -->
<g id="node7" class="node">
<title>Node44</title>
<g id="a_node7"><a xlink:href="../../d1/df3/_vectorization_8c.html#a4d6b618e9895e5b6e1761f2920d00b6b" target="_top" xlink:title="omc_Vectorization_expEqual\lNoCrefSubsList">
<polygon fill="#ffffff" stroke="#000000" points="535.5,-137.5 535.5,-167.5 678.5,-167.5 678.5,-137.5 535.5,-137.5"/>
<text text-anchor="start" x="543.5" y="-155.5" font-family="Helvetica,sans-Serif" font-size="10.00" fill="#000000">omc_Vectorization_expEqual</text>
<text text-anchor="middle" x="607" y="-144.5" font-family="Helvetica,sans-Serif" font-size="10.00" fill="#000000">NoCrefSubsList</text>
</a>
</g>
</g>
<!-- Node39&#45;&gt;Node44 -->
<g id="edge6" class="edge">
<title>Node39&#45;&gt;Node44</title>
<path fill="none" stroke="#191970" d="M295.1835,-150.3526C360.4487,-147.9592 456.766,-146.8711 525.0559,-147.7048"/>
<polygon fill="#191970" stroke="#191970" points="525.2953,-151.2083 535.3432,-147.8484 525.3931,-144.209 525.2953,-151.2083"/>
</g>
<!-- Node46 -->
<g id="node9" class="node">
<title>Node46</title>
<g id="a_node9"><a xlink:href="../../d1/df3/_vectorization_8c.html#a7fefd9c08e0bd0f37c839ca7d8688596" target="_top" xlink:title="omc_Vectorization_expEqual\lNoCrefSubsListList">
<polygon fill="#ffffff" stroke="#000000" points="337,-88.5 337,-118.5 480,-118.5 480,-88.5 337,-88.5"/>
<text text-anchor="start" x="345" y="-106.5" font-family="Helvetica,sans-Serif" font-size="10.00" fill="#000000">omc_Vectorization_expEqual</text>
<text text-anchor="middle" x="408.5" y="-95.5" font-family="Helvetica,sans-Serif" font-size="10.00" fill="#000000">NoCrefSubsListList</text>
</a>
</g>
</g>
<!-- Node39&#45;&gt;Node46 -->
<g id="edge9" class="edge">
<title>Node39&#45;&gt;Node46</title>
<path fill="none" stroke="#191970" d="M276.0187,-141.4541C297.7934,-135.216 323.2282,-127.9292 345.9577,-121.4175"/>
<polygon fill="#191970" stroke="#191970" points="347.2006,-124.7023 355.85,-118.5835 345.2727,-117.973 347.2006,-124.7023"/>
</g>
<!-- Node47 -->
<g id="node10" class="node">
<title>Node47</title>
<g id="a_node10"><a xlink:href="../../d1/d08/_expression_8c.html#a62367232beff9bc254a8929d1bdb2e7e" target="_top" xlink:title="omc_Expression_operatorEqual">
<polygon fill="#ffffff" stroke="#000000" points="331,-50 331,-69 486,-69 486,-50 331,-50"/>
<text text-anchor="middle" x="408.5" y="-57" font-family="Helvetica,sans-Serif" font-size="10.00" fill="#000000">omc_Expression_operatorEqual</text>
</a>
</g>
</g>
<!-- Node39&#45;&gt;Node47 -->
<g id="edge12" class="edge">
<title>Node39&#45;&gt;Node47</title>
<path fill="none" stroke="#191970" d="M240.4881,-141.2464C260.6808,-123.8845 296.0578,-95.8249 331,-79.5 337.0902,-76.6547 343.646,-74.1706 350.2741,-72.0127"/>
<polygon fill="#191970" stroke="#191970" points="351.4284,-75.3204 359.9909,-69.0806 349.4061,-68.6188 351.4284,-75.3204"/>
</g>
<!-- Node51 -->
<g id="node14" class="node">
<title>Node51</title>
<g id="a_node14"><a xlink:href="../../d1/df3/_vectorization_8c.html#aba16601a4e7a8764878010608be3d5c6" target="_top" xlink:title="omc_Vectorization_expEqual\lNoCrefSubsOpt">
<polygon fill="#ffffff" stroke="#000000" points="337,-.5 337,-30.5 480,-30.5 480,-.5 337,-.5"/>
<text text-anchor="start" x="345" y="-18.5" font-family="Helvetica,sans-Serif" font-size="10.00" fill="#000000">omc_Vectorization_expEqual</text>
<text text-anchor="middle" x="408.5" y="-7.5" font-family="Helvetica,sans-Serif" font-size="10.00" fill="#000000">NoCrefSubsOpt</text>
</a>
</g>
</g>
<!-- Node39&#45;&gt;Node51 -->
<g id="edge17" class="edge">
<title>Node39&#45;&gt;Node51</title>
<path fill="none" stroke="#191970" d="M230.2634,-141.4057C244.6923,-116.1398 280.6943,-66.6837 328.4878,-33.5864"/>
<polygon fill="#191970" stroke="#191970" points="330.4953,-36.4549 336.899,-28.0143 326.6294,-30.6192 330.4953,-36.4549"/>
</g>
<!-- Node42 -->
<g id="node5" class="node">
<title>Node42</title>
<g id="a_node5"><a xlink:href="../../d9/d14/_component_reference_8c.html#a99ac04f8b8c62cc1b0011fe3ad646592" target="_top" xlink:title="omc_ComponentReference\l_crefEqualWithoutSubs2">
<polygon fill="#ffffff" stroke="#000000" points="539,-232.5 539,-262.5 675,-262.5 675,-232.5 539,-232.5"/>
<text text-anchor="start" x="547" y="-250.5" font-family="Helvetica,sans-Serif" font-size="10.00" fill="#000000">omc_ComponentReference</text>
<text text-anchor="middle" x="607" y="-239.5" font-family="Helvetica,sans-Serif" font-size="10.00" fill="#000000">_crefEqualWithoutSubs2</text>
</a>
</g>
</g>
<!-- Node41&#45;&gt;Node42 -->
<g id="edge4" class="edge">
<title>Node41&#45;&gt;Node42</title>
<path fill="none" stroke="#191970" d="M476.5347,-247.5C493.328,-247.5 511.4487,-247.5 528.6867,-247.5"/>
<polygon fill="#191970" stroke="#191970" points="528.7174,-251.0001 538.7174,-247.5 528.7174,-244.0001 528.7174,-251.0001"/>
</g>
<!-- Node44&#45;&gt;Node39 -->
<g id="edge8" class="edge">
<title>Node44&#45;&gt;Node39</title>
<path fill="none" stroke="#191970" d="M535.3432,-158.6464C470.0866,-161.0402 373.7697,-162.1287 305.4721,-161.2956"/>
<polygon fill="#191970" stroke="#191970" points="305.2314,-157.792 295.1835,-161.152 305.1337,-164.7913 305.2314,-157.792"/>
</g>
<!-- Node45 -->
<g id="node8" class="node">
<title>Node45</title>
<g id="a_node8"><a xlink:href="../../d2/d57/build_2include_2omc_2c_2meta_2meta__modelica__builtin_8h.html#a6983369f3c3e3e8cc41ac483c9a9baf1" target="_top" xlink:title="listLength">
<polygon fill="#ffffff" stroke="#000000" points="764.5,-126 764.5,-145 823.5,-145 823.5,-126 764.5,-126"/>
<text text-anchor="middle" x="794" y="-133" font-family="Helvetica,sans-Serif" font-size="10.00" fill="#000000">listLength</text>
</a>
</g>
</g>
<!-- Node44&#45;&gt;Node45 -->
<g id="edge7" class="edge">
<title>Node44&#45;&gt;Node45</title>
<path fill="none" stroke="#191970" d="M678.7643,-145.976C704.2563,-143.6585 732.0303,-141.1336 753.9233,-139.1433"/>
<polygon fill="#191970" stroke="#191970" points="754.5205,-142.6036 764.1625,-138.2125 753.8867,-135.6323 754.5205,-142.6036"/>
</g>
<!-- Node46&#45;&gt;Node44 -->
<g id="edge11" class="edge">
<title>Node46&#45;&gt;Node44</title>
<path fill="none" stroke="#191970" d="M469.4055,-118.5346C490.5549,-123.7554 514.4493,-129.6537 536.3203,-135.0526"/>
<polygon fill="#191970" stroke="#191970" points="535.6622,-138.4952 546.2096,-137.4938 537.3399,-131.6992 535.6622,-138.4952"/>
</g>
<!-- Node46&#45;&gt;Node45 -->
<g id="edge10" class="edge">
<title>Node46&#45;&gt;Node45</title>
<path fill="none" stroke="#191970" d="M480.1061,-109.444C560.9597,-116.1555 689.6395,-126.8371 754.2456,-132.2"/>
<polygon fill="#191970" stroke="#191970" points="754.1651,-135.7053 764.4204,-133.0446 754.7443,-128.7293 754.1651,-135.7053"/>
</g>
<!-- Node48 -->
<g id="node11" class="node">
<title>Node48</title>
<g id="a_node11"><a xlink:href="../../d1/d08/_expression_8c.html#a8c477fe35fb2e4dd1e7b0f8d9b0113d3" target="_top" xlink:title="omc_Expression_operatorCompare">
<polygon fill="#ffffff" stroke="#000000" points="522,-50 522,-69 692,-69 692,-50 522,-50"/>
<text text-anchor="middle" x="607" y="-57" font-family="Helvetica,sans-Serif" font-size="10.00" fill="#000000">omc_Expression_operatorCompare</text>
</a>
</g>
</g>
<!-- Node47&#45;&gt;Node48 -->
<g id="edge13" class="edge">
<title>Node47&#45;&gt;Node48</title>
<path fill="none" stroke="#191970" d="M486.0981,-59.5C494.5388,-59.5 503.1992,-59.5 511.8186,-59.5"/>
<polygon fill="#191970" stroke="#191970" points="511.9026,-63.0001 521.9025,-59.5 511.9025,-56.0001 511.9026,-63.0001"/>
</g>
<!-- Node49 -->
<g id="node12" class="node">
<title>Node49</title>
<g id="a_node12"><a xlink:href="../../d0/d78/_absyn_8c.html#a32967c17d7e54d1e80801db59aa80bb5" target="_top" xlink:title="omc_Absyn_pathCompare">
<polygon fill="#ffffff" stroke="#000000" points="728,-72 728,-91 860,-91 860,-72 728,-72"/>
<text text-anchor="middle" x="794" y="-79" font-family="Helvetica,sans-Serif" font-size="10.00" fill="#000000">omc_Absyn_pathCompare</text>
</a>
</g>
</g>
<!-- Node48&#45;&gt;Node49 -->
<g id="edge14" class="edge">
<title>Node48&#45;&gt;Node49</title>
<path fill="none" stroke="#191970" d="M687.9333,-69.0216C697.8235,-70.1851 707.9047,-71.3711 717.7234,-72.5263"/>
<polygon fill="#191970" stroke="#191970" points="717.5011,-76.0242 727.8416,-73.7167 718.319,-69.0721 717.5011,-76.0242"/>
</g>
<!-- Node50 -->
<g id="node13" class="node">
<title>Node50</title>
<g id="a_node13"><a xlink:href="../../d9/d7c/_compiler_2boot_2build_2util_8c.html#a8c1b9eb65476185bd4d9073249caefa4" target="_top" xlink:title="omc_Util_intCompare">
<polygon fill="#ffffff" stroke="#000000" points="738.5,-34 738.5,-53 849.5,-53 849.5,-34 738.5,-34"/>
<text text-anchor="middle" x="794" y="-41" font-family="Helvetica,sans-Serif" font-size="10.00" fill="#000000">omc_Util_intCompare</text>
</a>
</g>
</g>
<!-- Node48&#45;&gt;Node50 -->
<g id="edge15" class="edge">
<title>Node48&#45;&gt;Node50</title>
<path fill="none" stroke="#191970" d="M692.0187,-52.2257C704.1822,-51.1849 716.5387,-50.1277 728.2558,-49.1252"/>
<polygon fill="#191970" stroke="#191970" points="728.7019,-52.5999 738.367,-48.26 728.105,-45.6254 728.7019,-52.5999"/>
</g>
<!-- Node51&#45;&gt;Node39 -->
<g id="edge18" class="edge">
<title>Node51&#45;&gt;Node39</title>
<path fill="none" stroke="#191970" d="M374.8097,-30.6206C360.5584,-35.241 344.2309,-41.0618 331,-49.5 295.589,-72.0839 264.1149,-109.0945 244.5157,-133.3083"/>
<polygon fill="#191970" stroke="#191970" points="241.6321,-131.309 238.0915,-141.2947 247.0865,-135.6965 241.6321,-131.309"/>
</g>
</g>
</svg>
