<?xml version="1.0" encoding="UTF-8" standalone="no"?>
<!DOCTYPE svg PUBLIC "-//W3C//DTD SVG 1.1//EN"
 "http://www.w3.org/Graphics/SVG/1.1/DTD/svg11.dtd">
<!-- Generated by graphviz version 2.40.1 (20161225.0304)
 -->
<!-- Title: omc_Vectorization_getCrefIdcsForEquation Pages: 1 -->
<svg width="487pt" height="194pt"
 viewBox="0.00 0.00 487.00 194.00" xmlns="http://www.w3.org/2000/svg" xmlns:xlink="http://www.w3.org/1999/xlink">
<g id="graph0" class="graph" transform="scale(1 1) rotate(0) translate(4 190)">
<title>omc_Vectorization_getCrefIdcsForEquation</title>
<polygon fill="#ffffff" stroke="transparent" points="-4,4 -4,-190 483,-190 483,4 -4,4"/>
<!-- Node370 -->
<g id="node1" class="node">
<title>Node370</title>
<polygon fill="#bfbfbf" stroke="#000000" points="0,-80.5 0,-110.5 135,-110.5 135,-80.5 0,-80.5"/>
<text text-anchor="start" x="8" y="-98.5" font-family="Helvetica,sans-Serif" font-size="10.00" fill="#000000">omc_Vectorization_getCref</text>
<text text-anchor="middle" x="67.5" y="-87.5" font-family="Helvetica,sans-Serif" font-size="10.00" fill="#000000">IdcsForEquation</text>
</g>
<!-- Node371 -->
<g id="node2" class="node">
<title>Node371</title>
<g id="a_node2"><a xlink:href="../../d2/ddf/_backend_equation_8c.html#a9861bb0402a258cafb6ed98e8c525aed" target="_top" xlink:title="omc_BackendEquation\l_equationCrefs">
<polygon fill="#ffffff" stroke="#000000" points="180.5,-155.5 180.5,-185.5 297.5,-185.5 297.5,-155.5 180.5,-155.5"/>
<text text-anchor="start" x="188.5" y="-173.5" font-family="Helvetica,sans-Serif" font-size="10.00" fill="#000000">omc_BackendEquation</text>
<text text-anchor="middle" x="239" y="-162.5" font-family="Helvetica,sans-Serif" font-size="10.00" fill="#000000">_equationCrefs</text>
</a>
</g>
</g>
<!-- Node370&#45;&gt;Node371 -->
<g id="edge1" class="edge">
<title>Node370&#45;&gt;Node371</title>
<path fill="none" stroke="#191970" d="M97.0385,-110.7219C117.5524,-121.057 145.6476,-134.7462 171,-145.5 175.9937,-147.6182 181.2346,-149.7321 186.4977,-151.7832"/>
<polygon fill="#191970" stroke="#191970" points="185.3562,-155.0938 195.9468,-155.3946 187.8553,-148.5551 185.3562,-155.0938"/>
</g>
<!-- Node372 -->
<g id="node3" class="node">
<title>Node372</title>
<g id="a_node3"><a xlink:href="../../da/d72/_compiler_2boot_2build_2list_8c.html#a25f434e867e031d2843ad6d2a367a56d" target="_top" xlink:title="omc_List_filter1OnTrue">
<polygon fill="#ffffff" stroke="#000000" points="180,-117 180,-136 298,-136 298,-117 180,-117"/>
<text text-anchor="middle" x="239" y="-124" font-family="Helvetica,sans-Serif" font-size="10.00" fill="#000000">omc_List_filter1OnTrue</text>
</a>
</g>
</g>
<!-- Node370&#45;&gt;Node372 -->
<g id="edge2" class="edge">
<title>Node370&#45;&gt;Node372</title>
<path fill="none" stroke="#191970" d="M135.2813,-107.752C148.7856,-110.193 162.9124,-112.7466 176.2393,-115.1555"/>
<polygon fill="#191970" stroke="#191970" points="175.7878,-118.6305 186.251,-116.9652 177.033,-111.7422 175.7878,-118.6305"/>
</g>
<!-- Node373 -->
<g id="node4" class="node">
<title>Node373</title>
<g id="a_node4"><a xlink:href="../../d9/d14/_component_reference_8c.html#a61a4b427dc6a1a1498d05f7d0afa3a72" target="_top" xlink:title="omc_ComponentReference\l_crefSubs">
<polygon fill="#ffffff" stroke="#000000" points="171,-49.5 171,-79.5 307,-79.5 307,-49.5 171,-49.5"/>
<text text-anchor="start" x="179" y="-67.5" font-family="Helvetica,sans-Serif" font-size="10.00" fill="#000000">omc_ComponentReference</text>
<text text-anchor="middle" x="239" y="-56.5" font-family="Helvetica,sans-Serif" font-size="10.00" fill="#000000">_crefSubs</text>
</a>
</g>
</g>
<!-- Node370&#45;&gt;Node373 -->
<g id="edge3" class="edge">
<title>Node370&#45;&gt;Node373</title>
<path fill="none" stroke="#191970" d="M135.2813,-83.248C143.6932,-81.7275 152.3465,-80.1633 160.8977,-78.6176"/>
<polygon fill="#191970" stroke="#191970" points="161.6504,-82.0384 170.8684,-76.8153 160.4053,-75.15 161.6504,-82.0384"/>
</g>
<!-- Node375 -->
<g id="node6" class="node">
<title>Node375</title>
<g id="a_node6"><a xlink:href="../../d9/d14/_component_reference_8c.html#a5138b6780a4be3cf70b3967faf748741" target="_top" xlink:title="omc_ComponentReference\l_crefEqualWithoutSubs">
<polygon fill="#ffffff" stroke="#000000" points="171,-.5 171,-30.5 307,-30.5 307,-.5 171,-.5"/>
<text text-anchor="start" x="179" y="-18.5" font-family="Helvetica,sans-Serif" font-size="10.00" fill="#000000">omc_ComponentReference</text>
<text text-anchor="middle" x="239" y="-7.5" font-family="Helvetica,sans-Serif" font-size="10.00" fill="#000000">_crefEqualWithoutSubs</text>
</a>
</g>
</g>
<!-- Node370&#45;&gt;Node375 -->
<g id="edge6" class="edge">
<title>Node370&#45;&gt;Node375</title>
<path fill="none" stroke="#191970" d="M92.8822,-80.3134C113.4966,-68.3375 143.5486,-51.6809 171,-39.5 175.1017,-37.68 179.3879,-35.8991 183.7265,-34.1821"/>
<polygon fill="#191970" stroke="#191970" points="185.1684,-37.3779 193.2569,-30.5349 182.6665,-30.8403 185.1684,-37.3779"/>
</g>
<!-- Node373&#45;&gt;Node373 -->
<g id="edge4" class="edge">
<title>Node373&#45;&gt;Node373</title>
<path fill="none" stroke="#191970" d="M209.374,-79.659C202.2301,-89.0566 212.1055,-98 239,-98 255.3889,-98 265.4578,-94.679 269.2069,-89.9579"/>
<polygon fill="#191970" stroke="#191970" points="272.6837,-89.446 268.626,-79.659 265.6948,-89.8403 272.6837,-89.446"/>
</g>
<!-- Node374 -->
<g id="node5" class="node">
<title>Node374</title>
<g id="a_node5"><a xlink:href="../../d2/d57/build_2include_2omc_2c_2meta_2meta__modelica__builtin_8h.html#a56b7e8a835b2d388f5984ca7378bc1ec" target="_top" xlink:title="listAppend">
<polygon fill="#ffffff" stroke="#000000" points="380,-55 380,-74 442,-74 442,-55 380,-55"/>
<text text-anchor="middle" x="411" y="-62" font-family="Helvetica,sans-Serif" font-size="10.00" fill="#000000">listAppend</text>
</a>
</g>
</g>
<!-- Node373&#45;&gt;Node374 -->
<g id="edge5" class="edge">
<title>Node373&#45;&gt;Node374</title>
<path fill="none" stroke="#191970" d="M307.4732,-64.5C328.559,-64.5 351.1128,-64.5 369.769,-64.5"/>
<polygon fill="#191970" stroke="#191970" points="369.9797,-68.0001 379.9797,-64.5 369.9797,-61.0001 369.9797,-68.0001"/>
</g>
<!-- Node376 -->
<g id="node7" class="node">
<title>Node376</title>
<g id="a_node7"><a xlink:href="../../d9/d14/_component_reference_8c.html#a99ac04f8b8c62cc1b0011fe3ad646592" target="_top" xlink:title="omc_ComponentReference\l_crefEqualWithoutSubs2">
<polygon fill="#ffffff" stroke="#000000" points="343,-.5 343,-30.5 479,-30.5 479,-.5 343,-.5"/>
<text text-anchor="start" x="351" y="-18.5" font-family="Helvetica,sans-Serif" font-size="10.00" fill="#000000">omc_ComponentReference</text>
<text text-anchor="middle" x="411" y="-7.5" font-family="Helvetica,sans-Serif" font-size="10.00" fill="#000000">_crefEqualWithoutSubs2</text>
</a>
</g>
</g>
<!-- Node375&#45;&gt;Node376 -->
<g id="edge7" class="edge">
<title>Node375&#45;&gt;Node376</title>
<path fill="none" stroke="#191970" d="M307.4732,-15.5C315.7318,-15.5 324.2157,-15.5 332.6024,-15.5"/>
<polygon fill="#191970" stroke="#191970" points="332.7625,-19.0001 342.7624,-15.5 332.7624,-12.0001 332.7625,-19.0001"/>
</g>
</g>
</svg>
