<?xml version="1.0" encoding="UTF-8" standalone="no"?>
<!DOCTYPE svg PUBLIC "-//W3C//DTD SVG 1.1//EN"
 "http://www.w3.org/Graphics/SVG/1.1/DTD/svg11.dtd">
<!-- Generated by graphviz version 2.40.1 (20161225.0304)
 -->
<!-- Title: Ipopt::GenAugSystemSolver::InitializeImpl Pages: 1 -->
<svg width="681pt" height="214pt"
 viewBox="0.00 0.00 681.00 214.00" xmlns="http://www.w3.org/2000/svg" xmlns:xlink="http://www.w3.org/1999/xlink">
<g id="graph0" class="graph" transform="scale(1 1) rotate(0) translate(4 210)">
<title>Ipopt::GenAugSystemSolver::InitializeImpl</title>
<polygon fill="#ffffff" stroke="transparent" points="-4,4 -4,-210 677,-210 677,4 -4,4"/>
<!-- Node8 -->
<g id="node1" class="node">
<title>Node8</title>
<polygon fill="#bfbfbf" stroke="#000000" points="0,-82.5 0,-112.5 141,-112.5 141,-82.5 0,-82.5"/>
<text text-anchor="start" x="8" y="-100.5" font-family="Helvetica,sans-Serif" font-size="10.00" fill="#000000">Ipopt::GenAugSystemSolver</text>
<text text-anchor="middle" x="70.5" y="-89.5" font-family="Helvetica,sans-Serif" font-size="10.00" fill="#000000">::InitializeImpl</text>
</g>
<!-- Node9 -->
<g id="node2" class="node">
<title>Node9</title>
<g id="a_node2"><a xlink:href="../../d3/d45/class_ipopt_1_1_options_list.html#a4928529408519fbb64d2deee8dbf7574" target="_top" xlink:title="Ipopt::OptionsList\l::GetBoolValue">
<polygon fill="#ffffff" stroke="#000000" points="191,-175.5 191,-205.5 285,-205.5 285,-175.5 191,-175.5"/>
<text text-anchor="start" x="199" y="-193.5" font-family="Helvetica,sans-Serif" font-size="10.00" fill="#000000">Ipopt::OptionsList</text>
<text text-anchor="middle" x="238" y="-182.5" font-family="Helvetica,sans-Serif" font-size="10.00" fill="#000000">::GetBoolValue</text>
</a>
</g>
</g>
<!-- Node8&#45;&gt;Node9 -->
<g id="edge1" class="edge">
<title>Node8&#45;&gt;Node9</title>
<path fill="none" stroke="#191970" d="M90.9717,-112.5328C111.8864,-127.4593 145.6506,-150.3832 177,-166.5 180.2799,-168.1862 183.7069,-169.8301 187.1912,-171.4154"/>
<polygon fill="#191970" stroke="#191970" points="185.9207,-174.6795 196.4865,-175.4635 188.7158,-168.2617 185.9207,-174.6795"/>
</g>
<!-- Node13 -->
<g id="node6" class="node">
<title>Node13</title>
<g id="a_node6"><a xlink:href="../../d6/d4a/class_ipopt_1_1_algorithm_strategy_object.html#af33506203825c1679fdb8e3b02df0cd7" target="_top" xlink:title="Ipopt::AlgorithmStrategy\lObject::Jnlst">
<polygon fill="#ffffff" stroke="#000000" points="177,-126.5 177,-156.5 299,-156.5 299,-126.5 177,-126.5"/>
<text text-anchor="start" x="185" y="-144.5" font-family="Helvetica,sans-Serif" font-size="10.00" fill="#000000">Ipopt::AlgorithmStrategy</text>
<text text-anchor="middle" x="238" y="-133.5" font-family="Helvetica,sans-Serif" font-size="10.00" fill="#000000">Object::Jnlst</text>
</a>
</g>
</g>
<!-- Node8&#45;&gt;Node13 -->
<g id="edge6" class="edge">
<title>Node8&#45;&gt;Node13</title>
<path fill="none" stroke="#191970" d="M127.6755,-112.5192C141.613,-116.1804 156.6459,-120.1294 170.995,-123.8987"/>
<polygon fill="#191970" stroke="#191970" points="170.2368,-127.3182 180.798,-126.4738 172.0154,-120.5479 170.2368,-127.3182"/>
</g>
<!-- Node14 -->
<g id="node7" class="node">
<title>Node14</title>
<g id="a_node7"><a xlink:href="../../d6/d4a/class_ipopt_1_1_algorithm_strategy_object.html#a2a151fb4b58f2186237b55d97af77ef7" target="_top" xlink:title="Ipopt::AlgorithmStrategy\lObject::IpNLP">
<polygon fill="#ffffff" stroke="#000000" points="335,-93.5 335,-123.5 457,-123.5 457,-93.5 335,-93.5"/>
<text text-anchor="start" x="343" y="-111.5" font-family="Helvetica,sans-Serif" font-size="10.00" fill="#000000">Ipopt::AlgorithmStrategy</text>
<text text-anchor="middle" x="396" y="-100.5" font-family="Helvetica,sans-Serif" font-size="10.00" fill="#000000">Object::IpNLP</text>
</a>
</g>
</g>
<!-- Node8&#45;&gt;Node14 -->
<g id="edge7" class="edge">
<title>Node8&#45;&gt;Node14</title>
<path fill="none" stroke="#191970" d="M141.1287,-99.8868C195.4064,-101.7211 270.0669,-104.2442 324.5491,-106.0854"/>
<polygon fill="#191970" stroke="#191970" points="324.7082,-109.5927 334.8207,-106.4325 324.9447,-102.5967 324.7082,-109.5927"/>
</g>
<!-- Node15 -->
<g id="node8" class="node">
<title>Node15</title>
<g id="a_node8"><a xlink:href="../../d6/d4a/class_ipopt_1_1_algorithm_strategy_object.html#a8b39e20ef00543ac41de1e4bb8a75930" target="_top" xlink:title="Ipopt::AlgorithmStrategy\lObject::IpData">
<polygon fill="#ffffff" stroke="#000000" points="335,-44.5 335,-74.5 457,-74.5 457,-44.5 335,-44.5"/>
<text text-anchor="start" x="343" y="-62.5" font-family="Helvetica,sans-Serif" font-size="10.00" fill="#000000">Ipopt::AlgorithmStrategy</text>
<text text-anchor="middle" x="396" y="-51.5" font-family="Helvetica,sans-Serif" font-size="10.00" fill="#000000">Object::IpData</text>
</a>
</g>
</g>
<!-- Node8&#45;&gt;Node15 -->
<g id="edge9" class="edge">
<title>Node8&#45;&gt;Node15</title>
<path fill="none" stroke="#191970" d="M141.1287,-89.2546C195.4064,-82.918 270.0669,-74.2019 324.5491,-67.8414"/>
<polygon fill="#191970" stroke="#191970" points="325.2941,-71.2783 334.8207,-66.6423 324.4823,-64.3255 325.2941,-71.2783"/>
</g>
<!-- Node16 -->
<g id="node9" class="node">
<title>Node16</title>
<g id="a_node9"><a xlink:href="../../d6/d4a/class_ipopt_1_1_algorithm_strategy_object.html#aa597d0c5c9f01cb0f3970f49fea8a730" target="_top" xlink:title="Ipopt::AlgorithmStrategy\lObject::IpCq">
<polygon fill="#ffffff" stroke="#000000" points="177,-.5 177,-30.5 299,-30.5 299,-.5 177,-.5"/>
<text text-anchor="start" x="185" y="-18.5" font-family="Helvetica,sans-Serif" font-size="10.00" fill="#000000">Ipopt::AlgorithmStrategy</text>
<text text-anchor="middle" x="238" y="-7.5" font-family="Helvetica,sans-Serif" font-size="10.00" fill="#000000">Object::IpCq</text>
</a>
</g>
</g>
<!-- Node8&#45;&gt;Node16 -->
<g id="edge11" class="edge">
<title>Node8&#45;&gt;Node16</title>
<path fill="none" stroke="#191970" d="M101.2221,-82.4599C128.4078,-69.1511 168.2574,-49.6426 197.9389,-35.112"/>
<polygon fill="#191970" stroke="#191970" points="199.747,-38.1238 207.1895,-30.5833 196.6691,-31.8368 199.747,-38.1238"/>
</g>
<!-- Node10 -->
<g id="node3" class="node">
<title>Node10</title>
<g id="a_node3"><a xlink:href="../../d3/d45/class_ipopt_1_1_options_list.html#a13e0bbf486f83cf0044a009cadaa16a6" target="_top" xlink:title="Ipopt::OptionsList\l::GetStringValue">
<polygon fill="#ffffff" stroke="#000000" points="349,-142.5 349,-172.5 443,-172.5 443,-142.5 349,-142.5"/>
<text text-anchor="start" x="357" y="-160.5" font-family="Helvetica,sans-Serif" font-size="10.00" fill="#000000">Ipopt::OptionsList</text>
<text text-anchor="middle" x="396" y="-149.5" font-family="Helvetica,sans-Serif" font-size="10.00" fill="#000000">::GetStringValue</text>
</a>
</g>
</g>
<!-- Node9&#45;&gt;Node10 -->
<g id="edge2" class="edge">
<title>Node9&#45;&gt;Node10</title>
<path fill="none" stroke="#191970" d="M285.4052,-180.5989C302.1979,-177.0916 321.271,-173.1079 338.7925,-169.4484"/>
<polygon fill="#191970" stroke="#191970" points="339.8275,-172.8078 348.9007,-167.3372 338.3963,-165.9557 339.8275,-172.8078"/>
</g>
<!-- Node11 -->
<g id="node4" class="node">
<title>Node11</title>
<g id="a_node4"><a xlink:href="../../d7/db2/namespace_ipopt.html#a412b04fd3180a55969ff76224d5bfec6" target="_top" xlink:title="Ipopt::IsValid">
<polygon fill="#ffffff" stroke="#000000" points="493,-99 493,-118 567,-118 567,-99 493,-99"/>
<text text-anchor="middle" x="530" y="-106" font-family="Helvetica,sans-Serif" font-size="10.00" fill="#000000">Ipopt::IsValid</text>
</a>
</g>
</g>
<!-- Node10&#45;&gt;Node11 -->
<g id="edge3" class="edge">
<title>Node10&#45;&gt;Node11</title>
<path fill="none" stroke="#191970" d="M437.2978,-142.3986C455.4256,-135.7697 476.5121,-128.059 493.9901,-121.6678"/>
<polygon fill="#191970" stroke="#191970" points="495.6245,-124.7969 503.8142,-118.0754 493.2204,-118.2226 495.6245,-124.7969"/>
</g>
<!-- Node12 -->
<g id="node5" class="node">
<title>Node12</title>
<g id="a_node5"><a xlink:href="../../d7/db2/namespace_ipopt.html#acfc346e8412ed6def2dc1858b78bde1b" target="_top" xlink:title="Ipopt::IsNull">
<polygon fill="#ffffff" stroke="#000000" points="603,-118 603,-137 673,-137 673,-118 603,-118"/>
<text text-anchor="middle" x="638" y="-125" font-family="Helvetica,sans-Serif" font-size="10.00" fill="#000000">Ipopt::IsNull</text>
</a>
</g>
</g>
<!-- Node10&#45;&gt;Node12 -->
<g id="edge5" class="edge">
<title>Node10&#45;&gt;Node12</title>
<path fill="none" stroke="#191970" d="M443.2345,-151.6445C486.4397,-146.2885 549.9353,-138.4171 592.5652,-133.1324"/>
<polygon fill="#191970" stroke="#191970" points="593.168,-136.5846 602.6614,-131.8808 592.3067,-129.6377 593.168,-136.5846"/>
</g>
<!-- Node11&#45;&gt;Node12 -->
<g id="edge4" class="edge">
<title>Node11&#45;&gt;Node12</title>
<path fill="none" stroke="#191970" d="M567.1675,-115.0387C575.5001,-116.5046 584.4268,-118.0751 593.0379,-119.59"/>
<polygon fill="#191970" stroke="#191970" points="592.4919,-123.0476 602.9472,-121.3333 593.7049,-116.1535 592.4919,-123.0476"/>
</g>
<!-- Node14&#45;&gt;Node11 -->
<g id="edge8" class="edge">
<title>Node14&#45;&gt;Node11</title>
<path fill="none" stroke="#191970" d="M457.1181,-108.5C465.66,-108.5 474.3304,-108.5 482.5682,-108.5"/>
<polygon fill="#191970" stroke="#191970" points="482.7292,-112.0001 492.7292,-108.5 482.7291,-105.0001 482.7292,-112.0001"/>
</g>
<!-- Node15&#45;&gt;Node11 -->
<g id="edge10" class="edge">
<title>Node15&#45;&gt;Node11</title>
<path fill="none" stroke="#191970" d="M437.2978,-74.6014C455.4256,-81.2303 476.5121,-88.941 493.9901,-95.3322"/>
<polygon fill="#191970" stroke="#191970" points="493.2204,-98.7774 503.8142,-98.9246 495.6245,-92.2031 493.2204,-98.7774"/>
</g>
<!-- Node16&#45;&gt;Node11 -->
<g id="edge12" class="edge">
<title>Node16&#45;&gt;Node11</title>
<path fill="none" stroke="#191970" d="M299.4704,-9.7686C345.0635,-8.0777 407.6094,-11.2858 457,-34.5 483.2861,-46.8548 505.374,-72.9237 518.1528,-90.5795"/>
<polygon fill="#191970" stroke="#191970" points="515.3763,-92.7172 523.9596,-98.9282 521.1229,-88.7202 515.3763,-92.7172"/>
</g>
</g>
</svg>
