<?xml version="1.0" encoding="UTF-8" standalone="no"?>
<!DOCTYPE svg PUBLIC "-//W3C//DTD SVG 1.1//EN"
 "http://www.w3.org/Graphics/SVG/1.1/DTD/svg11.dtd">
<!-- Generated by graphviz version 2.40.1 (20161225.0304)
 -->
<!-- Title: STRING_POOL Pages: 1 -->
<svg width="228pt" height="117pt"
 viewBox="0.00 0.00 227.50 117.00" xmlns="http://www.w3.org/2000/svg" xmlns:xlink="http://www.w3.org/1999/xlink">
<g id="graph0" class="graph" transform="scale(1 1) rotate(0) translate(4 113)">
<title>STRING_POOL</title>
<polygon fill="#ffffff" stroke="transparent" points="-4,4 -4,-113 223.5,-113 223.5,4 -4,4"/>
<!-- Node1 -->
<g id="node1" class="node">
<title>Node1</title>
<polygon fill="#bfbfbf" stroke="#000000" points="46.5,-.5 46.5,-19.5 133.5,-19.5 133.5,-.5 46.5,-.5"/>
<text text-anchor="middle" x="90" y="-7.5" font-family="Helvetica,sans-Serif" font-size="10.00" fill="#000000">STRING_POOL</text>
</g>
<!-- Node2 -->
<g id="node2" class="node">
<title>Node2</title>
<g id="a_node2"><a xlink:href="../../d1/d7f/structblock.html" target="_top" xlink:title="block">
<polygon fill="#ffffff" stroke="#000000" points="0,-84 0,-103 40,-103 40,-84 0,-84"/>
<text text-anchor="middle" x="20" y="-91" font-family="Helvetica,sans-Serif" font-size="10.00" fill="#000000">block</text>
</a>
</g>
</g>
<!-- Node2&#45;&gt;Node1 -->
<g id="edge1" class="edge">
<title>Node2&#45;&gt;Node1</title>
<path fill="none" stroke="#9a32cd" stroke-dasharray="5,2" d="M32.9775,-75.7563C41.2754,-64.6661 52.4286,-50.2199 63,-38 68.4785,-31.6672 74.9845,-24.8999 80.2371,-19.6049"/>
<polygon fill="#9a32cd" stroke="#9a32cd" points="30.141,-73.7055 27.0006,-83.8243 35.7657,-77.8724 30.141,-73.7055"/>
<text text-anchor="middle" x="86.5" y="-52" font-family="Helvetica,sans-Serif" font-size="10.00" fill="#000000"> blocks</text>
<text text-anchor="middle" x="86.5" y="-41" font-family="Helvetica,sans-Serif" font-size="10.00" fill="#000000">freeBlocks</text>
</g>
<!-- Node2&#45;&gt;Node2 -->
<g id="edge2" class="edge">
<title>Node2&#45;&gt;Node2</title>
<path fill="none" stroke="#9a32cd" stroke-dasharray="5,2" d="M50.4158,-100.9829C54.9402,-99.8172 58,-97.3229 58,-93.5 58,-87.2266 49.7602,-84.5309 40.3294,-85.4131"/>
<polygon fill="#9a32cd" stroke="#9a32cd" points="50.1023,-97.4953 40.3294,-101.5869 50.5208,-104.4828 50.1023,-97.4953"/>
<text text-anchor="middle" x="69" y="-91" font-family="Helvetica,sans-Serif" font-size="10.00" fill="#000000"> next</text>
</g>
<!-- Node3 -->
<g id="node3" class="node">
<title>Node3</title>
<g id="a_node3"><a xlink:href="../../d8/dc0/struct_x_m_l___memory___handling___suite.html" target="_top" xlink:title="XML_Memory_Handling\l_Suite">
<polygon fill="#ffffff" stroke="#000000" points="98.5,-78.5 98.5,-108.5 219.5,-108.5 219.5,-78.5 98.5,-78.5"/>
<text text-anchor="start" x="106.5" y="-96.5" font-family="Helvetica,sans-Serif" font-size="10.00" fill="#000000">XML_Memory_Handling</text>
<text text-anchor="middle" x="159" y="-85.5" font-family="Helvetica,sans-Serif" font-size="10.00" fill="#000000">_Suite</text>
</a>
</g>
</g>
<!-- Node3&#45;&gt;Node1 -->
<g id="edge3" class="edge">
<title>Node3&#45;&gt;Node1</title>
<path fill="none" stroke="#9a32cd" stroke-dasharray="5,2" d="M139.9279,-70.42C126.0646,-53.6434 108.0158,-31.8017 97.8522,-19.5023"/>
<polygon fill="#9a32cd" stroke="#9a32cd" points="137.2763,-72.7057 146.3443,-78.1848 142.6723,-68.2466 137.2763,-72.7057"/>
<text text-anchor="middle" x="142.5" y="-46.5" font-family="Helvetica,sans-Serif" font-size="10.00" fill="#000000"> mem</text>
</g>
</g>
</svg>
