<?xml version="1.0" encoding="UTF-8" standalone="no"?>
<!DOCTYPE svg PUBLIC "-//W3C//DTD SVG 1.1//EN"
 "http://www.w3.org/Graphics/SVG/1.1/DTD/svg11.dtd">
<!-- Generated by graphviz version 2.40.1 (20161225.0304)
 -->
<!-- Title: zmq::options_t::set_curve_key Pages: 1 -->
<svg width="238pt" height="66pt"
 viewBox="0.00 0.00 238.00 66.00" xmlns="http://www.w3.org/2000/svg" xmlns:xlink="http://www.w3.org/1999/xlink">
<g id="graph0" class="graph" transform="scale(1 1) rotate(0) translate(4 62)">
<title>zmq::options_t::set_curve_key</title>
<polygon fill="#ffffff" stroke="transparent" points="-4,4 -4,-62 234,-62 234,4 -4,4"/>
<!-- Node10 -->
<g id="node1" class="node">
<title>Node10</title>
<polygon fill="#bfbfbf" stroke="#000000" points="0,-14 0,-44 101,-44 101,-14 0,-14"/>
<text text-anchor="start" x="8" y="-32" font-family="Helvetica,sans-Serif" font-size="10.00" fill="#000000">zmq::options_t::set</text>
<text text-anchor="middle" x="50.5" y="-21" font-family="Helvetica,sans-Serif" font-size="10.00" fill="#000000">_curve_key</text>
</g>
<!-- Node11 -->
<g id="node2" class="node">
<title>Node11</title>
<g id="a_node2"><a xlink:href="../../d6/d84/3rd_party_2open62541_2open62541_8h.html#a9bb523029391a4525c52a8e90e877692" target="_top" xlink:title="memcpy">
<polygon fill="#ffffff" stroke="#000000" points="156.5,-38.5 156.5,-57.5 210.5,-57.5 210.5,-38.5 156.5,-38.5"/>
<text text-anchor="middle" x="183.5" y="-45.5" font-family="Helvetica,sans-Serif" font-size="10.00" fill="#000000">memcpy</text>
</a>
</g>
</g>
<!-- Node10&#45;&gt;Node11 -->
<g id="edge1" class="edge">
<title>Node10&#45;&gt;Node11</title>
<path fill="none" stroke="#191970" d="M101.161,-36.2373C116.1366,-38.3767 132.25,-40.6786 146.2172,-42.6739"/>
<polygon fill="#191970" stroke="#191970" points="146.0307,-46.1827 156.4252,-44.1322 147.0207,-39.253 146.0307,-46.1827"/>
</g>
<!-- Node12 -->
<g id="node3" class="node">
<title>Node12</title>
<g id="a_node3"><a xlink:href="../../d9/de6/zmq_8h.html#afc01d5fa2ca249909f31693051003796" target="_top" xlink:title="zmq_z85_decode">
<polygon fill="#ffffff" stroke="#000000" points="137,-.5 137,-19.5 230,-19.5 230,-.5 137,-.5"/>
<text text-anchor="middle" x="183.5" y="-7.5" font-family="Helvetica,sans-Serif" font-size="10.00" fill="#000000">zmq_z85_decode</text>
</a>
</g>
</g>
<!-- Node10&#45;&gt;Node12 -->
<g id="edge2" class="edge">
<title>Node10&#45;&gt;Node12</title>
<path fill="none" stroke="#191970" d="M101.161,-21.7627C109.6031,-20.5567 118.4068,-19.299 126.9838,-18.0737"/>
<polygon fill="#191970" stroke="#191970" points="127.5085,-21.5344 136.913,-16.6553 126.5185,-14.6048 127.5085,-21.5344"/>
</g>
</g>
</svg>
