<?xml version="1.0" encoding="UTF-8" standalone="no"?>
<!DOCTYPE svg PUBLIC "-//W3C//DTD SVG 1.1//EN"
 "http://www.w3.org/Graphics/SVG/1.1/DTD/svg11.dtd">
<!-- Generated by graphviz version 2.40.1 (20161225.0304)
 -->
<!-- Title: Ipopt::CompoundVector::AddVectorQuotientImpl Pages: 1 -->
<svg width="1234pt" height="872pt"
 viewBox="0.00 0.00 1234.00 872.00" xmlns="http://www.w3.org/2000/svg" xmlns:xlink="http://www.w3.org/1999/xlink">
<g id="graph0" class="graph" transform="scale(1 1) rotate(0) translate(4 868)">
<title>Ipopt::CompoundVector::AddVectorQuotientImpl</title>
<polygon fill="#ffffff" stroke="transparent" points="-4,4 -4,-868 1230,-868 1230,4 -4,4"/>
<!-- Node150 -->
<g id="node1" class="node">
<title>Node150</title>
<polygon fill="#bfbfbf" stroke="#000000" points="0,-490.5 0,-520.5 124,-520.5 124,-490.5 0,-490.5"/>
<text text-anchor="start" x="8" y="-508.5" font-family="Helvetica,sans-Serif" font-size="10.00" fill="#000000">Ipopt::CompoundVector</text>
<text text-anchor="middle" x="62" y="-497.5" font-family="Helvetica,sans-Serif" font-size="10.00" fill="#000000">::AddVectorQuotientImpl</text>
</g>
<!-- Node151 -->
<g id="node2" class="node">
<title>Node151</title>
<g id="a_node2"><a xlink:href="../../d3/d37/class_ipopt_1_1_compound_vector.html#aa67df7bdd158450e21951d64dddd8ed2" target="_top" xlink:title="Ipopt::CompoundVector\l::GetCompNonConst">
<polygon fill="#ffffff" stroke="#000000" points="160,-490.5 160,-520.5 280,-520.5 280,-490.5 160,-490.5"/>
<text text-anchor="start" x="168" y="-508.5" font-family="Helvetica,sans-Serif" font-size="10.00" fill="#000000">Ipopt::CompoundVector</text>
<text text-anchor="middle" x="220" y="-497.5" font-family="Helvetica,sans-Serif" font-size="10.00" fill="#000000">::GetCompNonConst</text>
</a>
</g>
</g>
<!-- Node150&#45;&gt;Node151 -->
<g id="edge1" class="edge">
<title>Node150&#45;&gt;Node151</title>
<path fill="none" stroke="#191970" d="M134.6439,-505.5C143.0653,-505.5 151.5836,-505.5 159.8127,-505.5"/>
<polygon fill="#191970" stroke="#191970" points="134.4458,-502.0001 124.4458,-505.5 134.4457,-509.0001 134.4458,-502.0001"/>
</g>
<!-- Node152 -->
<g id="node3" class="node">
<title>Node152</title>
<g id="a_node3"><a xlink:href="../../d8/d18/class_ipopt_1_1_iterates_vector.html#a26bc6e4fe52d02d7e554e7589ad8f416" target="_top" xlink:title="Ipopt::IteratesVector\l::GetTagSum">
<polygon fill="#ffffff" stroke="#000000" points="332.5,-833.5 332.5,-863.5 438.5,-863.5 438.5,-833.5 332.5,-833.5"/>
<text text-anchor="start" x="340.5" y="-851.5" font-family="Helvetica,sans-Serif" font-size="10.00" fill="#000000">Ipopt::IteratesVector</text>
<text text-anchor="middle" x="385.5" y="-840.5" font-family="Helvetica,sans-Serif" font-size="10.00" fill="#000000">::GetTagSum</text>
</a>
</g>
</g>
<!-- Node151&#45;&gt;Node152 -->
<g id="edge2" class="edge">
<title>Node151&#45;&gt;Node152</title>
<path fill="none" stroke="#191970" d="M224.5644,-530.899C237.1963,-598.6109 274.4413,-781.2369 316,-824.5 320.5984,-829.287 326.1963,-833.1196 332.1979,-836.1879"/>
<polygon fill="#191970" stroke="#191970" points="227.94,-529.9036 222.6871,-520.7027 221.0557,-531.1712 227.94,-529.9036"/>
</g>
<!-- Node153 -->
<g id="node4" class="node">
<title>Node153</title>
<g id="a_node4"><a xlink:href="../../d2/d66/class_ipopt_1_1_index_schur_data.html#a46c1246ea2c1a52e190bdb564df488b5" target="_top" xlink:title="Ipopt::IndexSchurData\l::GetRow">
<polygon fill="#ffffff" stroke="#000000" points="328,-784.5 328,-814.5 443,-814.5 443,-784.5 328,-784.5"/>
<text text-anchor="start" x="336" y="-802.5" font-family="Helvetica,sans-Serif" font-size="10.00" fill="#000000">Ipopt::IndexSchurData</text>
<text text-anchor="middle" x="385.5" y="-791.5" font-family="Helvetica,sans-Serif" font-size="10.00" fill="#000000">::GetRow</text>
</a>
</g>
</g>
<!-- Node151&#45;&gt;Node153 -->
<g id="edge3" class="edge">
<title>Node151&#45;&gt;Node153</title>
<path fill="none" stroke="#191970" d="M221.8547,-530.9302C227.0643,-583.8287 246.3876,-706.5191 316,-775.5 319.5363,-779.0042 323.6081,-781.9977 327.9702,-784.5548"/>
<polygon fill="#191970" stroke="#191970" points="225.3209,-530.3947 220.9442,-520.7461 218.3487,-531.018 225.3209,-530.3947"/>
</g>
<!-- Node154 -->
<g id="node5" class="node">
<title>Node154</title>
<g id="a_node5"><a xlink:href="../../d2/d66/class_ipopt_1_1_index_schur_data.html#a07d5469992b4bfa6143614f00f9ca4e8" target="_top" xlink:title="Ipopt::IndexSchurData\l::TransMultiply">
<polygon fill="#ffffff" stroke="#000000" points="328,-735.5 328,-765.5 443,-765.5 443,-735.5 328,-735.5"/>
<text text-anchor="start" x="336" y="-753.5" font-family="Helvetica,sans-Serif" font-size="10.00" fill="#000000">Ipopt::IndexSchurData</text>
<text text-anchor="middle" x="385.5" y="-742.5" font-family="Helvetica,sans-Serif" font-size="10.00" fill="#000000">::TransMultiply</text>
</a>
</g>
</g>
<!-- Node151&#45;&gt;Node154 -->
<g id="edge4" class="edge">
<title>Node151&#45;&gt;Node154</title>
<path fill="none" stroke="#191970" d="M224.0596,-530.3872C232.7395,-575.7439 257.3092,-672.179 316,-726.5 319.7473,-729.9683 324.0204,-732.9387 328.5634,-735.4822"/>
<polygon fill="#191970" stroke="#191970" points="227.4969,-529.7266 222.269,-520.5115 220.6092,-530.9755 227.4969,-529.7266"/>
</g>
<!-- Node155 -->
<g id="node6" class="node">
<title>Node155</title>
<g id="a_node6"><a xlink:href="../../d1/dcc/class_ipopt_1_1_n_l_p_bounds_remover.html#aa9b258b8b2cb2172a6001e345eeba021" target="_top" xlink:title="Ipopt::NLPBoundsRemover\l::GetBoundsInformation">
<polygon fill="#ffffff" stroke="#000000" points="317,-686.5 317,-716.5 454,-716.5 454,-686.5 317,-686.5"/>
<text text-anchor="start" x="325" y="-704.5" font-family="Helvetica,sans-Serif" font-size="10.00" fill="#000000">Ipopt::NLPBoundsRemover</text>
<text text-anchor="middle" x="385.5" y="-693.5" font-family="Helvetica,sans-Serif" font-size="10.00" fill="#000000">::GetBoundsInformation</text>
</a>
</g>
</g>
<!-- Node151&#45;&gt;Node155 -->
<g id="edge5" class="edge">
<title>Node151&#45;&gt;Node155</title>
<path fill="none" stroke="#191970" d="M227.3927,-530.073C239.7803,-567.191 268.188,-637.4638 316,-677.5 320.1105,-680.942 324.743,-683.9006 329.6155,-686.4418"/>
<polygon fill="#191970" stroke="#191970" points="230.7181,-528.981 224.3207,-520.5356 224.0552,-531.1271 230.7181,-528.981"/>
</g>
<!-- Node157 -->
<g id="node8" class="node">
<title>Node157</title>
<g id="a_node8"><a xlink:href="../../d1/dcc/class_ipopt_1_1_n_l_p_bounds_remover.html#aac6f68a0b703e9024a517a57bb9a4c75" target="_top" xlink:title="Ipopt::NLPBoundsRemover\l::GetStartingPoint">
<polygon fill="#ffffff" stroke="#000000" points="317,-637.5 317,-667.5 454,-667.5 454,-637.5 317,-637.5"/>
<text text-anchor="start" x="325" y="-655.5" font-family="Helvetica,sans-Serif" font-size="10.00" fill="#000000">Ipopt::NLPBoundsRemover</text>
<text text-anchor="middle" x="385.5" y="-644.5" font-family="Helvetica,sans-Serif" font-size="10.00" fill="#000000">::GetStartingPoint</text>
</a>
</g>
</g>
<!-- Node151&#45;&gt;Node157 -->
<g id="edge7" class="edge">
<title>Node151&#45;&gt;Node157</title>
<path fill="none" stroke="#191970" d="M233.056,-529.6484C249.1367,-557.2507 278.9313,-602.0204 316,-628.5 320.7781,-631.9132 326.083,-634.8746 331.5712,-637.4365"/>
<polygon fill="#191970" stroke="#191970" points="235.9325,-527.6261 227.9505,-520.6592 229.8457,-531.0831 235.9325,-527.6261"/>
</g>
<!-- Node158 -->
<g id="node9" class="node">
<title>Node158</title>
<g id="a_node9"><a xlink:href="../../d1/dcc/class_ipopt_1_1_n_l_p_bounds_remover.html#a5f1ca810b9267d89153bd02a5d56a22b" target="_top" xlink:title="Ipopt::NLPBoundsRemover\l::Eval_d">
<polygon fill="#ffffff" stroke="#000000" points="317,-588.5 317,-618.5 454,-618.5 454,-588.5 317,-588.5"/>
<text text-anchor="start" x="325" y="-606.5" font-family="Helvetica,sans-Serif" font-size="10.00" fill="#000000">Ipopt::NLPBoundsRemover</text>
<text text-anchor="middle" x="385.5" y="-595.5" font-family="Helvetica,sans-Serif" font-size="10.00" fill="#000000">::Eval_d</text>
</a>
</g>
</g>
<!-- Node151&#45;&gt;Node158 -->
<g id="edge9" class="edge">
<title>Node151&#45;&gt;Node158</title>
<path fill="none" stroke="#191970" d="M243.8361,-527.4298C262.389,-543.5807 289.3788,-565.1428 316,-579.5 322.0671,-582.7721 328.667,-585.7316 335.305,-588.3649"/>
<polygon fill="#191970" stroke="#191970" points="245.9905,-524.6626 236.1824,-520.656 241.3512,-529.9045 245.9905,-524.6626"/>
</g>
<!-- Node160 -->
<g id="node11" class="node">
<title>Node160</title>
<g id="a_node11"><a xlink:href="../../d1/da5/class_ipopt_1_1_resto_ipopt_n_l_p.html#aa7bd8850c5d66b5dca80d11d4f35c17c" target="_top" xlink:title="Ipopt::RestoIpoptNLP\l::grad_f">
<polygon fill="#ffffff" stroke="#000000" points="329.5,-539.5 329.5,-569.5 441.5,-569.5 441.5,-539.5 329.5,-539.5"/>
<text text-anchor="start" x="337.5" y="-557.5" font-family="Helvetica,sans-Serif" font-size="10.00" fill="#000000">Ipopt::RestoIpoptNLP</text>
<text text-anchor="middle" x="385.5" y="-546.5" font-family="Helvetica,sans-Serif" font-size="10.00" fill="#000000">::grad_f</text>
</a>
</g>
</g>
<!-- Node151&#45;&gt;Node160 -->
<g id="edge11" class="edge">
<title>Node151&#45;&gt;Node160</title>
<path fill="none" stroke="#191970" d="M280.6844,-523.467C298.4168,-528.717 317.6075,-534.3989 334.6625,-539.4484"/>
<polygon fill="#191970" stroke="#191970" points="281.5881,-520.0844 271.0059,-520.6014 279.6008,-526.7964 281.5881,-520.0844"/>
</g>
<!-- Node161 -->
<g id="node12" class="node">
<title>Node161</title>
<g id="a_node12"><a xlink:href="../../da/d5c/class_ipopt_1_1_compound_matrix.html#a9797b0e566f930f0b51a4e8397417e65" target="_top" xlink:title="Ipopt::CompoundMatrix\l::MultVectorImpl">
<polygon fill="#ffffff" stroke="#000000" points="326,-490.5 326,-520.5 445,-520.5 445,-490.5 326,-490.5"/>
<text text-anchor="start" x="334" y="-508.5" font-family="Helvetica,sans-Serif" font-size="10.00" fill="#000000">Ipopt::CompoundMatrix</text>
<text text-anchor="middle" x="385.5" y="-497.5" font-family="Helvetica,sans-Serif" font-size="10.00" fill="#000000">::MultVectorImpl</text>
</a>
</g>
</g>
<!-- Node151&#45;&gt;Node161 -->
<g id="edge12" class="edge">
<title>Node151&#45;&gt;Node161</title>
<path fill="none" stroke="#191970" d="M290.4685,-505.5C302.2614,-505.5 314.3947,-505.5 325.8813,-505.5"/>
<polygon fill="#191970" stroke="#191970" points="290.2175,-502.0001 280.2175,-505.5 290.2174,-509.0001 290.2175,-502.0001"/>
</g>
<!-- Node163 -->
<g id="node14" class="node">
<title>Node163</title>
<g id="a_node14"><a xlink:href="../../da/d5c/class_ipopt_1_1_compound_matrix.html#a5182ab339c756de8c2b849555fdcff2c" target="_top" xlink:title="Ipopt::CompoundMatrix\l::TransMultVectorImpl">
<polygon fill="#ffffff" stroke="#000000" points="326,-441.5 326,-471.5 445,-471.5 445,-441.5 326,-441.5"/>
<text text-anchor="start" x="334" y="-459.5" font-family="Helvetica,sans-Serif" font-size="10.00" fill="#000000">Ipopt::CompoundMatrix</text>
<text text-anchor="middle" x="385.5" y="-448.5" font-family="Helvetica,sans-Serif" font-size="10.00" fill="#000000">::TransMultVectorImpl</text>
</a>
</g>
</g>
<!-- Node151&#45;&gt;Node163 -->
<g id="edge14" class="edge">
<title>Node151&#45;&gt;Node163</title>
<path fill="none" stroke="#191970" d="M280.6844,-487.533C298.4168,-482.283 317.6075,-476.6011 334.6625,-471.5516"/>
<polygon fill="#191970" stroke="#191970" points="279.6008,-484.2036 271.0059,-490.3986 281.5881,-490.9156 279.6008,-484.2036"/>
</g>
<!-- Node164 -->
<g id="node15" class="node">
<title>Node164</title>
<g id="a_node15"><a xlink:href="../../da/d5c/class_ipopt_1_1_compound_matrix.html#a3b7c201e11c91a7e4e67e6987d43bffe" target="_top" xlink:title="Ipopt::CompoundMatrix\l::AddMSinvZImpl">
<polygon fill="#ffffff" stroke="#000000" points="326,-392.5 326,-422.5 445,-422.5 445,-392.5 326,-392.5"/>
<text text-anchor="start" x="334" y="-410.5" font-family="Helvetica,sans-Serif" font-size="10.00" fill="#000000">Ipopt::CompoundMatrix</text>
<text text-anchor="middle" x="385.5" y="-399.5" font-family="Helvetica,sans-Serif" font-size="10.00" fill="#000000">::AddMSinvZImpl</text>
</a>
</g>
</g>
<!-- Node151&#45;&gt;Node164 -->
<g id="edge16" class="edge">
<title>Node151&#45;&gt;Node164</title>
<path fill="none" stroke="#191970" d="M244.2781,-483.6953C262.8727,-467.8559 289.7172,-446.7806 316,-432.5 322.7603,-428.8269 330.1694,-425.5022 337.5519,-422.5645"/>
<polygon fill="#191970" stroke="#191970" points="241.8658,-481.1543 236.5937,-490.3442 246.4461,-486.4478 241.8658,-481.1543"/>
</g>
<!-- Node165 -->
<g id="node16" class="node">
<title>Node165</title>
<g id="a_node16"><a xlink:href="../../da/d5c/class_ipopt_1_1_compound_matrix.html#ac646b2f5ec7c68973e87907c31f1893c" target="_top" xlink:title="Ipopt::CompoundMatrix\l::ComputeRowAMaxImpl">
<polygon fill="#ffffff" stroke="#000000" points="322,-343.5 322,-373.5 449,-373.5 449,-343.5 322,-343.5"/>
<text text-anchor="start" x="330" y="-361.5" font-family="Helvetica,sans-Serif" font-size="10.00" fill="#000000">Ipopt::CompoundMatrix</text>
<text text-anchor="middle" x="385.5" y="-350.5" font-family="Helvetica,sans-Serif" font-size="10.00" fill="#000000">::ComputeRowAMaxImpl</text>
</a>
</g>
</g>
<!-- Node151&#45;&gt;Node165 -->
<g id="edge18" class="edge">
<title>Node151&#45;&gt;Node165</title>
<path fill="none" stroke="#191970" d="M233.4226,-481.1972C249.6633,-453.8666 279.4306,-409.8677 316,-383.5 321.3046,-379.6752 327.2539,-376.3822 333.3806,-373.5608"/>
<polygon fill="#191970" stroke="#191970" points="230.2413,-479.7063 228.2532,-490.113 236.297,-483.2175 230.2413,-479.7063"/>
</g>
<!-- Node166 -->
<g id="node17" class="node">
<title>Node166</title>
<g id="a_node17"><a xlink:href="../../da/d5c/class_ipopt_1_1_compound_matrix.html#a4d3de2faf84f557de6eb65bc15300c2b" target="_top" xlink:title="Ipopt::CompoundMatrix\l::ComputeColAMaxImpl">
<polygon fill="#ffffff" stroke="#000000" points="324.5,-294.5 324.5,-324.5 446.5,-324.5 446.5,-294.5 324.5,-294.5"/>
<text text-anchor="start" x="332.5" y="-312.5" font-family="Helvetica,sans-Serif" font-size="10.00" fill="#000000">Ipopt::CompoundMatrix</text>
<text text-anchor="middle" x="385.5" y="-301.5" font-family="Helvetica,sans-Serif" font-size="10.00" fill="#000000">::ComputeColAMaxImpl</text>
</a>
</g>
</g>
<!-- Node151&#45;&gt;Node166 -->
<g id="edge20" class="edge">
<title>Node151&#45;&gt;Node166</title>
<path fill="none" stroke="#191970" d="M227.753,-480.3926C240.4086,-443.3977 268.9268,-374.3323 316,-334.5 320.5028,-330.6898 325.6314,-327.4418 331.0155,-324.6768"/>
<polygon fill="#191970" stroke="#191970" points="224.2766,-479.7585 224.4663,-490.3517 230.924,-481.9523 224.2766,-479.7585"/>
</g>
<!-- Node167 -->
<g id="node18" class="node">
<title>Node167</title>
<g id="a_node18"><a xlink:href="../../d7/db7/class_ipopt_1_1_compound_sym_matrix.html#acf7add005d623583aac560d0ce78289f" target="_top" xlink:title="Ipopt::CompoundSymMatrix\l::MultVectorImpl">
<polygon fill="#ffffff" stroke="#000000" points="316,-245.5 316,-275.5 455,-275.5 455,-245.5 316,-245.5"/>
<text text-anchor="start" x="324" y="-263.5" font-family="Helvetica,sans-Serif" font-size="10.00" fill="#000000">Ipopt::CompoundSymMatrix</text>
<text text-anchor="middle" x="385.5" y="-252.5" font-family="Helvetica,sans-Serif" font-size="10.00" fill="#000000">::MultVectorImpl</text>
</a>
</g>
</g>
<!-- Node151&#45;&gt;Node167 -->
<g id="edge22" class="edge">
<title>Node151&#45;&gt;Node167</title>
<path fill="none" stroke="#191970" d="M224.0596,-480.6128C232.7395,-435.2561 257.3092,-338.821 316,-284.5 319.7473,-281.0317 324.0204,-278.0613 328.5634,-275.5178"/>
<polygon fill="#191970" stroke="#191970" points="220.6092,-480.0245 222.269,-490.4885 227.4969,-481.2734 220.6092,-480.0245"/>
</g>
<!-- Node169 -->
<g id="node20" class="node">
<title>Node169</title>
<g id="a_node20"><a xlink:href="../../d7/db7/class_ipopt_1_1_compound_sym_matrix.html#a374d534a6999572f182803d144d07221" target="_top" xlink:title="Ipopt::CompoundSymMatrix\l::ComputeRowAMaxImpl">
<polygon fill="#ffffff" stroke="#000000" points="316,-196.5 316,-226.5 455,-226.5 455,-196.5 316,-196.5"/>
<text text-anchor="start" x="324" y="-214.5" font-family="Helvetica,sans-Serif" font-size="10.00" fill="#000000">Ipopt::CompoundSymMatrix</text>
<text text-anchor="middle" x="385.5" y="-203.5" font-family="Helvetica,sans-Serif" font-size="10.00" fill="#000000">::ComputeRowAMaxImpl</text>
</a>
</g>
</g>
<!-- Node151&#45;&gt;Node169 -->
<g id="edge24" class="edge">
<title>Node151&#45;&gt;Node169</title>
<path fill="none" stroke="#191970" d="M221.8547,-480.0698C227.0643,-427.1713 246.3876,-304.4809 316,-235.5 319.4456,-232.0857 323.3996,-229.1561 327.6352,-226.6428"/>
<polygon fill="#191970" stroke="#191970" points="218.3487,-479.982 220.9442,-490.2539 225.3209,-480.6053 218.3487,-479.982"/>
</g>
<!-- Node170 -->
<g id="node21" class="node">
<title>Node170</title>
<g id="a_node21"><a xlink:href="../../de/d0a/class_ipopt_1_1_triplet_helper.html#ad50ab104a515bedd6eb88b2d83fbac53" target="_top" xlink:title="Ipopt::TripletHelper\l::PutValuesInVector">
<polygon fill="#ffffff" stroke="#000000" points="333.5,-123.5 333.5,-153.5 437.5,-153.5 437.5,-123.5 333.5,-123.5"/>
<text text-anchor="start" x="341.5" y="-141.5" font-family="Helvetica,sans-Serif" font-size="10.00" fill="#000000">Ipopt::TripletHelper</text>
<text text-anchor="middle" x="385.5" y="-130.5" font-family="Helvetica,sans-Serif" font-size="10.00" fill="#000000">::PutValuesInVector</text>
</a>
</g>
</g>
<!-- Node151&#45;&gt;Node170 -->
<g id="edge26" class="edge">
<title>Node151&#45;&gt;Node170</title>
<path fill="none" stroke="#191970" d="M221.9495,-480.3021C227.5027,-422.9276 247.719,-280.2777 316,-186.5 326.0125,-172.7487 341.2211,-161.6041 354.861,-153.5273"/>
<polygon fill="#191970" stroke="#191970" points="218.4605,-480.0232 221.0495,-490.2968 225.4323,-480.651 218.4605,-480.0232"/>
</g>
<!-- Node156 -->
<g id="node7" class="node">
<title>Node156</title>
<g id="a_node7"><a xlink:href="../../d1/dcc/class_ipopt_1_1_n_l_p_bounds_remover.html#a8af075022694a01745bb1287c08d3a5f" target="_top" xlink:title="Ipopt::NLPBoundsRemover\l::ProcessOptions">
<polygon fill="#ffffff" stroke="#000000" points="507,-661.5 507,-691.5 644,-691.5 644,-661.5 507,-661.5"/>
<text text-anchor="start" x="515" y="-679.5" font-family="Helvetica,sans-Serif" font-size="10.00" fill="#000000">Ipopt::NLPBoundsRemover</text>
<text text-anchor="middle" x="575.5" y="-668.5" font-family="Helvetica,sans-Serif" font-size="10.00" fill="#000000">::ProcessOptions</text>
</a>
</g>
</g>
<!-- Node155&#45;&gt;Node156 -->
<g id="edge6" class="edge">
<title>Node155&#45;&gt;Node156</title>
<path fill="none" stroke="#191970" d="M464.2455,-691.1387C478.331,-689.2854 492.9079,-687.3674 506.6874,-685.5543"/>
<polygon fill="#191970" stroke="#191970" points="463.5523,-687.6997 454.0944,-692.4744 464.4655,-694.6399 463.5523,-687.6997"/>
</g>
<!-- Node157&#45;&gt;Node156 -->
<g id="edge8" class="edge">
<title>Node157&#45;&gt;Node156</title>
<path fill="none" stroke="#191970" d="M464.2455,-662.4468C478.331,-664.226 492.9079,-666.0673 506.6874,-667.8079"/>
<polygon fill="#191970" stroke="#191970" points="464.4542,-658.9454 454.0944,-661.1646 463.5769,-665.8902 464.4542,-658.9454"/>
</g>
<!-- Node159 -->
<g id="node10" class="node">
<title>Node159</title>
<g id="a_node10"><a xlink:href="../../d1/dcc/class_ipopt_1_1_n_l_p_bounds_remover.html#a382ca2e4f138bb09e5058725e76be1bb" target="_top" xlink:title="Ipopt::NLPBoundsRemover\l::Eval_jac_c">
<polygon fill="#ffffff" stroke="#000000" points="507,-588.5 507,-618.5 644,-618.5 644,-588.5 507,-588.5"/>
<text text-anchor="start" x="515" y="-606.5" font-family="Helvetica,sans-Serif" font-size="10.00" fill="#000000">Ipopt::NLPBoundsRemover</text>
<text text-anchor="middle" x="575.5" y="-595.5" font-family="Helvetica,sans-Serif" font-size="10.00" fill="#000000">::Eval_jac_c</text>
</a>
</g>
</g>
<!-- Node158&#45;&gt;Node159 -->
<g id="edge10" class="edge">
<title>Node158&#45;&gt;Node159</title>
<path fill="none" stroke="#191970" d="M464.2455,-603.5C478.331,-603.5 492.9079,-603.5 506.6874,-603.5"/>
<polygon fill="#191970" stroke="#191970" points="464.0944,-600.0001 454.0944,-603.5 464.0943,-607.0001 464.0944,-600.0001"/>
</g>
<!-- Node162 -->
<g id="node13" class="node">
<title>Node162</title>
<g id="a_node13"><a xlink:href="../../da/d5c/class_ipopt_1_1_compound_matrix.html#a1f1996437233a45385d39d3c8d2135a9" target="_top" xlink:title="Ipopt::CompoundMatrix\l::GetCompNonConst">
<polygon fill="#ffffff" stroke="#000000" points="516,-392.5 516,-422.5 635,-422.5 635,-392.5 516,-392.5"/>
<text text-anchor="start" x="524" y="-410.5" font-family="Helvetica,sans-Serif" font-size="10.00" fill="#000000">Ipopt::CompoundMatrix</text>
<text text-anchor="middle" x="575.5" y="-399.5" font-family="Helvetica,sans-Serif" font-size="10.00" fill="#000000">::GetCompNonConst</text>
</a>
</g>
</g>
<!-- Node161&#45;&gt;Node162 -->
<g id="edge13" class="edge">
<title>Node161&#45;&gt;Node162</title>
<path fill="none" stroke="#191970" d="M443.0948,-486.7203C447.165,-485.0552 451.17,-483.3107 455,-481.5 491.3994,-464.292 530.6153,-438.7621 554.1008,-422.6349"/>
<polygon fill="#191970" stroke="#191970" points="441.5724,-483.5574 433.5307,-490.4553 444.1188,-490.0778 441.5724,-483.5574"/>
</g>
<!-- Node163&#45;&gt;Node162 -->
<g id="edge15" class="edge">
<title>Node163&#45;&gt;Node162</title>
<path fill="none" stroke="#191970" d="M453.5503,-438.9502C474.4146,-433.5694 497.1697,-427.701 517.3127,-422.5062"/>
<polygon fill="#191970" stroke="#191970" points="452.6066,-435.579 443.7975,-441.4654 454.3547,-442.3572 452.6066,-435.579"/>
</g>
<!-- Node164&#45;&gt;Node162 -->
<g id="edge17" class="edge">
<title>Node164&#45;&gt;Node162</title>
<path fill="none" stroke="#191970" d="M455.3124,-407.5C475.1637,-407.5 496.5964,-407.5 515.7892,-407.5"/>
<polygon fill="#191970" stroke="#191970" points="455.0959,-404.0001 445.0959,-407.5 455.0958,-411.0001 455.0959,-404.0001"/>
</g>
<!-- Node165&#45;&gt;Node162 -->
<g id="edge19" class="edge">
<title>Node165&#45;&gt;Node162</title>
<path fill="none" stroke="#191970" d="M453.5503,-376.0498C474.4146,-381.4306 497.1697,-387.299 517.3127,-392.4938"/>
<polygon fill="#191970" stroke="#191970" points="454.3547,-372.6428 443.7975,-373.5346 452.6066,-379.421 454.3547,-372.6428"/>
</g>
<!-- Node166&#45;&gt;Node162 -->
<g id="edge21" class="edge">
<title>Node166&#45;&gt;Node162</title>
<path fill="none" stroke="#191970" d="M441.2925,-328.4481C445.978,-330.3769 450.6018,-332.4026 455,-334.5 490.9865,-351.6617 529.9984,-376.564 553.5938,-392.3922"/>
<polygon fill="#191970" stroke="#191970" points="442.2271,-325.054 431.6406,-324.6326 439.6536,-331.5638 442.2271,-325.054"/>
</g>
<!-- Node168 -->
<g id="node19" class="node">
<title>Node168</title>
<g id="a_node19"><a xlink:href="../../d7/db7/class_ipopt_1_1_compound_sym_matrix.html#a97726b0c39984628f93e388f110cb639" target="_top" xlink:title="Ipopt::CompoundSymMatrix\l::GetCompNonConst">
<polygon fill="#ffffff" stroke="#000000" points="506,-245.5 506,-275.5 645,-275.5 645,-245.5 506,-245.5"/>
<text text-anchor="start" x="514" y="-263.5" font-family="Helvetica,sans-Serif" font-size="10.00" fill="#000000">Ipopt::CompoundSymMatrix</text>
<text text-anchor="middle" x="575.5" y="-252.5" font-family="Helvetica,sans-Serif" font-size="10.00" fill="#000000">::GetCompNonConst</text>
</a>
</g>
</g>
<!-- Node167&#45;&gt;Node168 -->
<g id="edge23" class="edge">
<title>Node167&#45;&gt;Node168</title>
<path fill="none" stroke="#191970" d="M465.3562,-260.5C478.8066,-260.5 492.6727,-260.5 505.8383,-260.5"/>
<polygon fill="#191970" stroke="#191970" points="465.1701,-257.0001 455.1701,-260.5 465.1701,-264.0001 465.1701,-257.0001"/>
</g>
<!-- Node169&#45;&gt;Node168 -->
<g id="edge25" class="edge">
<title>Node169&#45;&gt;Node168</title>
<path fill="none" stroke="#191970" d="M453.5503,-229.0498C474.4146,-234.4306 497.1697,-240.299 517.3127,-245.4938"/>
<polygon fill="#191970" stroke="#191970" points="454.3547,-225.6428 443.7975,-226.5346 452.6066,-232.421 454.3547,-225.6428"/>
</g>
<!-- Node171 -->
<g id="node22" class="node">
<title>Node171</title>
<g id="a_node22"><a xlink:href="../../dc/d4c/class_ipopt_1_1_iterative_solver_termination_tester.html#ac0783069a6d4c5bc4df419be56c9a853" target="_top" xlink:title="Ipopt::IterativeSolverTermination\lTester::GetVectors">
<polygon fill="#ffffff" stroke="#000000" points="496.5,-196.5 496.5,-226.5 654.5,-226.5 654.5,-196.5 496.5,-196.5"/>
<text text-anchor="start" x="504.5" y="-214.5" font-family="Helvetica,sans-Serif" font-size="10.00" fill="#000000">Ipopt::IterativeSolverTermination</text>
<text text-anchor="middle" x="575.5" y="-203.5" font-family="Helvetica,sans-Serif" font-size="10.00" fill="#000000">Tester::GetVectors</text>
</a>
</g>
</g>
<!-- Node170&#45;&gt;Node171 -->
<g id="edge27" class="edge">
<title>Node170&#45;&gt;Node171</title>
<path fill="none" stroke="#191970" d="M424.7316,-157.9268C444.3592,-167.2387 468.6432,-178.1532 491,-186.5 500.4594,-190.0316 510.6578,-193.4039 520.5854,-196.4643"/>
<polygon fill="#191970" stroke="#191970" points="426.0296,-154.6677 415.4991,-153.5025 423.0045,-160.9804 426.0296,-154.6677"/>
</g>
<!-- Node179 -->
<g id="node30" class="node">
<title>Node179</title>
<g id="a_node30"><a xlink:href="../../d2/d97/class_ipopt_1_1_equilibration_scaling.html#abf0f8b124f1ec79e8fdfd0e6372518c8" target="_top" xlink:title="Ipopt::EquilibrationScaling\l::DetermineScalingParametersImpl">
<polygon fill="#ffffff" stroke="#000000" points="491,-147.5 491,-177.5 660,-177.5 660,-147.5 491,-147.5"/>
<text text-anchor="start" x="499" y="-165.5" font-family="Helvetica,sans-Serif" font-size="10.00" fill="#000000">Ipopt::EquilibrationScaling</text>
<text text-anchor="middle" x="575.5" y="-154.5" font-family="Helvetica,sans-Serif" font-size="10.00" fill="#000000">::DetermineScalingParametersImpl</text>
</a>
</g>
</g>
<!-- Node170&#45;&gt;Node179 -->
<g id="edge35" class="edge">
<title>Node170&#45;&gt;Node179</title>
<path fill="none" stroke="#191970" d="M447.958,-146.3894C461.7051,-148.1259 476.4863,-149.993 490.9411,-151.8189"/>
<polygon fill="#191970" stroke="#191970" points="448.0295,-142.8707 437.6696,-145.0898 447.1522,-149.8155 448.0295,-142.8707"/>
</g>
<!-- Node181 -->
<g id="node32" class="node">
<title>Node181</title>
<g id="a_node32"><a xlink:href="../../d1/dc1/class_ipopt_1_1_point_perturber.html#a88bec82424dd400c45be0efc92d08c54" target="_top" xlink:title="Ipopt::PointPerturber\l::MakeNewPerturbedPoint">
<polygon fill="#ffffff" stroke="#000000" points="510,-98.5 510,-128.5 641,-128.5 641,-98.5 510,-98.5"/>
<text text-anchor="start" x="518" y="-116.5" font-family="Helvetica,sans-Serif" font-size="10.00" fill="#000000">Ipopt::PointPerturber</text>
<text text-anchor="middle" x="575.5" y="-105.5" font-family="Helvetica,sans-Serif" font-size="10.00" fill="#000000">::MakeNewPerturbedPoint</text>
</a>
</g>
</g>
<!-- Node170&#45;&gt;Node181 -->
<g id="edge37" class="edge">
<title>Node170&#45;&gt;Node181</title>
<path fill="none" stroke="#191970" d="M447.8421,-130.2971C467.7149,-127.6823 489.7584,-124.7818 509.8576,-122.1372"/>
<polygon fill="#191970" stroke="#191970" points="447.1276,-126.8609 437.6696,-131.6356 448.0408,-133.801 447.1276,-126.8609"/>
</g>
<!-- Node183 -->
<g id="node34" class="node">
<title>Node183</title>
<g id="a_node34"><a xlink:href="../../d3/d7a/class_ipopt_1_1_gen_aug_system_solver.html#ad38be8fb1547ec3921db9f1978252aa6" target="_top" xlink:title="Ipopt::GenAugSystemSolver\l::MultiSolve">
<polygon fill="#ffffff" stroke="#000000" points="505,-49.5 505,-79.5 646,-79.5 646,-49.5 505,-49.5"/>
<text text-anchor="start" x="513" y="-67.5" font-family="Helvetica,sans-Serif" font-size="10.00" fill="#000000">Ipopt::GenAugSystemSolver</text>
<text text-anchor="middle" x="575.5" y="-56.5" font-family="Helvetica,sans-Serif" font-size="10.00" fill="#000000">::MultiSolve</text>
</a>
</g>
</g>
<!-- Node170&#45;&gt;Node183 -->
<g id="edge39" class="edge">
<title>Node170&#45;&gt;Node183</title>
<path fill="none" stroke="#191970" d="M423.0669,-118.8293C442.9227,-108.9132 467.9068,-97.1833 491,-88.5 499.422,-85.3332 508.4503,-82.3514 517.3581,-79.6374"/>
<polygon fill="#191970" stroke="#191970" points="421.3953,-115.7525 414.0469,-123.3848 424.551,-122.0008 421.3953,-115.7525"/>
</g>
<!-- Node184 -->
<g id="node35" class="node">
<title>Node184</title>
<g id="a_node35"><a xlink:href="../../d0/d03/class_ipopt_1_1_t_sym_linear_solver.html#a69439490a9ee40fb6b9514b6a25f5a82" target="_top" xlink:title="Ipopt::TSymLinearSolver\l::MultiSolve">
<polygon fill="#ffffff" stroke="#000000" points="513,-.5 513,-30.5 638,-30.5 638,-.5 513,-.5"/>
<text text-anchor="start" x="521" y="-18.5" font-family="Helvetica,sans-Serif" font-size="10.00" fill="#000000">Ipopt::TSymLinearSolver</text>
<text text-anchor="middle" x="575.5" y="-7.5" font-family="Helvetica,sans-Serif" font-size="10.00" fill="#000000">::MultiSolve</text>
</a>
</g>
</g>
<!-- Node170&#45;&gt;Node184 -->
<g id="edge40" class="edge">
<title>Node170&#45;&gt;Node184</title>
<path fill="none" stroke="#191970" d="M404.0135,-115.6607C423.4335,-93.1538 455.96,-59.3389 491,-39.5 497.7682,-35.668 505.1933,-32.4103 512.745,-29.6502"/>
<polygon fill="#191970" stroke="#191970" points="401.2577,-113.4991 397.4713,-123.3943 406.602,-118.0201 401.2577,-113.4991"/>
</g>
<!-- Node172 -->
<g id="node23" class="node">
<title>Node172</title>
<g id="a_node23"><a xlink:href="../../db/dfd/class_ipopt_1_1_inexact_normal_termination_tester.html#a7f08f4dac795a267b64012f193a537ef" target="_top" xlink:title="Ipopt::InexactNormalTermination\lTester::TestTermination">
<polygon fill="#ffffff" stroke="#000000" points="696,-294.5 696,-324.5 855,-324.5 855,-294.5 696,-294.5"/>
<text text-anchor="start" x="704" y="-312.5" font-family="Helvetica,sans-Serif" font-size="10.00" fill="#000000">Ipopt::InexactNormalTermination</text>
<text text-anchor="middle" x="775.5" y="-301.5" font-family="Helvetica,sans-Serif" font-size="10.00" fill="#000000">Tester::TestTermination</text>
</a>
</g>
</g>
<!-- Node171&#45;&gt;Node172 -->
<g id="edge28" class="edge">
<title>Node171&#45;&gt;Node172</title>
<path fill="none" stroke="#191970" d="M653.3381,-231.3157C655.6349,-232.6229 657.8627,-234.0159 660,-235.5 682.1969,-250.9133 674.0206,-268.7782 696,-284.5 701.4132,-288.372 707.4479,-291.6598 713.7059,-294.4481"/>
<polygon fill="#191970" stroke="#191970" points="654.6868,-228.0757 644.1835,-226.6863 651.5279,-234.3224 654.6868,-228.0757"/>
</g>
<!-- Node174 -->
<g id="node25" class="node">
<title>Node174</title>
<g id="a_node25"><a xlink:href="../../d2/d75/class_ipopt_1_1_inexact_p_d_termination_tester.html#a00f09c5e0d6a45dab385dbaba4972030" target="_top" xlink:title="Ipopt::InexactPDTermination\lTester::TestTermination">
<polygon fill="#ffffff" stroke="#000000" points="704.5,-245.5 704.5,-275.5 846.5,-275.5 846.5,-245.5 704.5,-245.5"/>
<text text-anchor="start" x="712.5" y="-263.5" font-family="Helvetica,sans-Serif" font-size="10.00" fill="#000000">Ipopt::InexactPDTermination</text>
<text text-anchor="middle" x="775.5" y="-252.5" font-family="Helvetica,sans-Serif" font-size="10.00" fill="#000000">Tester::TestTermination</text>
</a>
</g>
</g>
<!-- Node171&#45;&gt;Node174 -->
<g id="edge30" class="edge">
<title>Node171&#45;&gt;Node174</title>
<path fill="none" stroke="#191970" d="M646.8338,-228.9768C668.8775,-234.3775 692.9511,-240.2755 714.2503,-245.4938"/>
<polygon fill="#191970" stroke="#191970" points="647.4114,-225.5149 636.8658,-226.5346 645.7456,-232.3138 647.4114,-225.5149"/>
</g>
<!-- Node176 -->
<g id="node27" class="node">
<title>Node176</title>
<g id="a_node27"><a xlink:href="../../dc/d4c/class_ipopt_1_1_iterative_solver_termination_tester.html#abe48fb7f1a6895271f21124e07e011b2" target="_top" xlink:title="Ipopt::IterativeSolverTermination\lTester::GetJnlst">
<polygon fill="#ffffff" stroke="#000000" points="696.5,-196.5 696.5,-226.5 854.5,-226.5 854.5,-196.5 696.5,-196.5"/>
<text text-anchor="start" x="704.5" y="-214.5" font-family="Helvetica,sans-Serif" font-size="10.00" fill="#000000">Ipopt::IterativeSolverTermination</text>
<text text-anchor="middle" x="775.5" y="-203.5" font-family="Helvetica,sans-Serif" font-size="10.00" fill="#000000">Tester::GetJnlst</text>
</a>
</g>
</g>
<!-- Node171&#45;&gt;Node176 -->
<g id="edge32" class="edge">
<title>Node171&#45;&gt;Node176</title>
<path fill="none" stroke="#191970" d="M664.6227,-211.5C675.2025,-211.5 685.9467,-211.5 696.3739,-211.5"/>
<polygon fill="#191970" stroke="#191970" points="664.5453,-208.0001 654.5453,-211.5 664.5453,-215.0001 664.5453,-208.0001"/>
</g>
<!-- Node173 -->
<g id="node24" class="node">
<title>Node173</title>
<g id="a_node24"><a xlink:href="../../db/dfd/class_ipopt_1_1_inexact_normal_termination_tester.html#a23aac0ac16a1f9c8b8094efbd99d5389" target="_top" xlink:title="Ipopt::InexactNormalTermination\lTester::InitializeSolve">
<polygon fill="#ffffff" stroke="#000000" points="891,-294.5 891,-324.5 1050,-324.5 1050,-294.5 891,-294.5"/>
<text text-anchor="start" x="899" y="-312.5" font-family="Helvetica,sans-Serif" font-size="10.00" fill="#000000">Ipopt::InexactNormalTermination</text>
<text text-anchor="middle" x="970.5" y="-301.5" font-family="Helvetica,sans-Serif" font-size="10.00" fill="#000000">Tester::InitializeSolve</text>
</a>
</g>
</g>
<!-- Node172&#45;&gt;Node173 -->
<g id="edge29" class="edge">
<title>Node172&#45;&gt;Node173</title>
<path fill="none" stroke="#191970" d="M865.117,-309.5C873.6999,-309.5 882.3647,-309.5 890.8432,-309.5"/>
<polygon fill="#191970" stroke="#191970" points="865.0953,-306.0001 855.0952,-309.5 865.0952,-313.0001 865.0953,-306.0001"/>
</g>
<!-- Node175 -->
<g id="node26" class="node">
<title>Node175</title>
<g id="a_node26"><a xlink:href="../../d2/d75/class_ipopt_1_1_inexact_p_d_termination_tester.html#a5193674461c771aa213f912d6cc1e9c4" target="_top" xlink:title="Ipopt::InexactPDTermination\lTester::InitializeSolve">
<polygon fill="#ffffff" stroke="#000000" points="899.5,-245.5 899.5,-275.5 1041.5,-275.5 1041.5,-245.5 899.5,-245.5"/>
<text text-anchor="start" x="907.5" y="-263.5" font-family="Helvetica,sans-Serif" font-size="10.00" fill="#000000">Ipopt::InexactPDTermination</text>
<text text-anchor="middle" x="970.5" y="-252.5" font-family="Helvetica,sans-Serif" font-size="10.00" fill="#000000">Tester::InitializeSolve</text>
</a>
</g>
</g>
<!-- Node174&#45;&gt;Node175 -->
<g id="edge31" class="edge">
<title>Node174&#45;&gt;Node175</title>
<path fill="none" stroke="#191970" d="M856.9166,-260.5C871.0468,-260.5 885.6404,-260.5 899.4659,-260.5"/>
<polygon fill="#191970" stroke="#191970" points="856.7272,-257.0001 846.7272,-260.5 856.7272,-264.0001 856.7272,-257.0001"/>
</g>
<!-- Node177 -->
<g id="node28" class="node">
<title>Node177</title>
<g id="a_node28"><a xlink:href="../../d7/d60/_ip_iterative_pardiso_solver_interface_8cpp.html#af1e732a36029066cbf04714e4d87b389" target="_top" xlink:title="IpoptTerminationTest">
<polygon fill="#ffffff" stroke="#000000" points="916,-202 916,-221 1025,-221 1025,-202 916,-202"/>
<text text-anchor="middle" x="970.5" y="-209" font-family="Helvetica,sans-Serif" font-size="10.00" fill="#000000">IpoptTerminationTest</text>
</a>
</g>
</g>
<!-- Node176&#45;&gt;Node177 -->
<g id="edge33" class="edge">
<title>Node176&#45;&gt;Node177</title>
<path fill="none" stroke="#191970" d="M864.7405,-211.5C882.1757,-211.5 899.9658,-211.5 915.859,-211.5"/>
<polygon fill="#191970" stroke="#191970" points="864.5329,-208.0001 854.5329,-211.5 864.5328,-215.0001 864.5329,-208.0001"/>
</g>
<!-- Node178 -->
<g id="node29" class="node">
<title>Node178</title>
<g id="a_node29"><a xlink:href="../../dd/d66/class_ipopt_1_1_iterative_pardiso_solver_interface.html#a7546f5099489c1170e2706a143f20dc9" target="_top" xlink:title="Ipopt::IterativePardisoSolver\lInterface::InitializeImpl">
<polygon fill="#ffffff" stroke="#000000" points="1086,-196.5 1086,-226.5 1226,-226.5 1226,-196.5 1086,-196.5"/>
<text text-anchor="start" x="1094" y="-214.5" font-family="Helvetica,sans-Serif" font-size="10.00" fill="#000000">Ipopt::IterativePardisoSolver</text>
<text text-anchor="middle" x="1156" y="-203.5" font-family="Helvetica,sans-Serif" font-size="10.00" fill="#000000">Interface::InitializeImpl</text>
</a>
</g>
</g>
<!-- Node177&#45;&gt;Node178 -->
<g id="edge34" class="edge">
<title>Node177&#45;&gt;Node178</title>
<path fill="none" stroke="#191970" d="M1035.1701,-211.5C1051.56,-211.5 1069.2415,-211.5 1085.8869,-211.5"/>
<polygon fill="#191970" stroke="#191970" points="1035.1528,-208.0001 1025.1528,-211.5 1035.1528,-215.0001 1035.1528,-208.0001"/>
</g>
<!-- Node180 -->
<g id="node31" class="node">
<title>Node180</title>
<g id="a_node31"><a xlink:href="../../d2/d97/class_ipopt_1_1_equilibration_scaling.html#aaa90dcdc42921d83efe722c0f72b7d33" target="_top" xlink:title="Ipopt::EquilibrationScaling\l::~EquilibrationScaling">
<polygon fill="#ffffff" stroke="#000000" points="710.5,-147.5 710.5,-177.5 840.5,-177.5 840.5,-147.5 710.5,-147.5"/>
<text text-anchor="start" x="718.5" y="-165.5" font-family="Helvetica,sans-Serif" font-size="10.00" fill="#000000">Ipopt::EquilibrationScaling</text>
<text text-anchor="middle" x="775.5" y="-154.5" font-family="Helvetica,sans-Serif" font-size="10.00" fill="#000000">::~EquilibrationScaling</text>
</a>
</g>
</g>
<!-- Node179&#45;&gt;Node180 -->
<g id="edge36" class="edge">
<title>Node179&#45;&gt;Node180</title>
<path fill="none" stroke="#191970" d="M670.3504,-162.5C683.9028,-162.5 697.5815,-162.5 710.3876,-162.5"/>
<polygon fill="#191970" stroke="#191970" points="670.0282,-159.0001 660.0281,-162.5 670.0281,-166.0001 670.0282,-159.0001"/>
</g>
<!-- Node182 -->
<g id="node33" class="node">
<title>Node182</title>
<g id="a_node33"><a xlink:href="../../d1/dc1/class_ipopt_1_1_point_perturber.html#a75b8c79374d99e3ff79bcfff9091a788" target="_top" xlink:title="Ipopt::PointPerturber\l::PointPerturber">
<polygon fill="#ffffff" stroke="#000000" points="722,-98.5 722,-128.5 829,-128.5 829,-98.5 722,-98.5"/>
<text text-anchor="start" x="730" y="-116.5" font-family="Helvetica,sans-Serif" font-size="10.00" fill="#000000">Ipopt::PointPerturber</text>
<text text-anchor="middle" x="775.5" y="-105.5" font-family="Helvetica,sans-Serif" font-size="10.00" fill="#000000">::PointPerturber</text>
</a>
</g>
</g>
<!-- Node181&#45;&gt;Node182 -->
<g id="edge38" class="edge">
<title>Node181&#45;&gt;Node182</title>
<path fill="none" stroke="#191970" d="M651.5052,-113.5C674.8882,-113.5 700.1315,-113.5 721.6997,-113.5"/>
<polygon fill="#191970" stroke="#191970" points="651.2645,-110.0001 641.2645,-113.5 651.2645,-117.0001 651.2645,-110.0001"/>
</g>
</g>
</svg>
