<?xml version="1.0" encoding="UTF-8" standalone="no"?>
<!DOCTYPE svg PUBLIC "-//W3C//DTD SVG 1.1//EN"
 "http://www.w3.org/Graphics/SVG/1.1/DTD/svg11.dtd">
<!-- Generated by graphviz version 2.40.1 (20161225.0304)
 -->
<!-- Title: zmq::kqueue_t::add_fd Pages: 1 -->
<svg width="550pt" height="104pt"
 viewBox="0.00 0.00 550.00 104.00" xmlns="http://www.w3.org/2000/svg" xmlns:xlink="http://www.w3.org/1999/xlink">
<g id="graph0" class="graph" transform="scale(1 1) rotate(0) translate(4 100)">
<title>zmq::kqueue_t::add_fd</title>
<polygon fill="#ffffff" stroke="transparent" points="-4,4 -4,-100 546,-100 546,4 -4,4"/>
<!-- Node6 -->
<g id="node1" class="node">
<title>Node6</title>
<polygon fill="#bfbfbf" stroke="#000000" points="0,-37.5 0,-56.5 116,-56.5 116,-37.5 0,-37.5"/>
<text text-anchor="middle" x="58" y="-44.5" font-family="Helvetica,sans-Serif" font-size="10.00" fill="#000000">zmq::kqueue_t::add_fd</text>
</g>
<!-- Node7 -->
<g id="node2" class="node">
<title>Node7</title>
<g id="a_node2"><a xlink:href="../../d1/d83/classzmq_1_1poller__base__t.html#a61455c93d9d53ffe68b4e176892459c1" target="_top" xlink:title="zmq::poller_base_t\l::adjust_load">
<polygon fill="#ffffff" stroke="#000000" points="152,-32 152,-62 251,-62 251,-32 152,-32"/>
<text text-anchor="start" x="160" y="-50" font-family="Helvetica,sans-Serif" font-size="10.00" fill="#000000">zmq::poller_base_t</text>
<text text-anchor="middle" x="201.5" y="-39" font-family="Helvetica,sans-Serif" font-size="10.00" fill="#000000">::adjust_load</text>
</a>
</g>
</g>
<!-- Node6&#45;&gt;Node7 -->
<g id="edge1" class="edge">
<title>Node6&#45;&gt;Node7</title>
<path fill="none" stroke="#191970" d="M116.3669,-47C124.7521,-47 133.39,-47 141.8006,-47"/>
<polygon fill="#191970" stroke="#191970" points="141.9145,-50.5001 151.9145,-47 141.9145,-43.5001 141.9145,-50.5001"/>
</g>
<!-- Node8 -->
<g id="node3" class="node">
<title>Node8</title>
<g id="a_node3"><a xlink:href="../../d9/d23/classzmq_1_1atomic__counter__t.html#ab11988f84d9cb8a58a4be3929c3db01a" target="_top" xlink:title="zmq::atomic_counter\l_t::add">
<polygon fill="#ffffff" stroke="#000000" points="287,-57 287,-87 395,-87 395,-57 287,-57"/>
<text text-anchor="start" x="295" y="-75" font-family="Helvetica,sans-Serif" font-size="10.00" fill="#000000">zmq::atomic_counter</text>
<text text-anchor="middle" x="341" y="-64" font-family="Helvetica,sans-Serif" font-size="10.00" fill="#000000">_t::add</text>
</a>
</g>
</g>
<!-- Node7&#45;&gt;Node8 -->
<g id="edge2" class="edge">
<title>Node7&#45;&gt;Node8</title>
<path fill="none" stroke="#191970" d="M251.0753,-55.8845C259.4058,-57.3774 268.1565,-58.9456 276.7931,-60.4934"/>
<polygon fill="#191970" stroke="#191970" points="276.3867,-63.9762 286.8473,-62.2952 277.6215,-57.086 276.3867,-63.9762"/>
</g>
<!-- Node12 -->
<g id="node7" class="node">
<title>Node12</title>
<g id="a_node7"><a xlink:href="../../d9/d23/classzmq_1_1atomic__counter__t.html#a0d29a10e45fc702fce16907cab738acb" target="_top" xlink:title="zmq::atomic_counter\l_t::sub">
<polygon fill="#ffffff" stroke="#000000" points="287,-8 287,-38 395,-38 395,-8 287,-8"/>
<text text-anchor="start" x="295" y="-26" font-family="Helvetica,sans-Serif" font-size="10.00" fill="#000000">zmq::atomic_counter</text>
<text text-anchor="middle" x="341" y="-15" font-family="Helvetica,sans-Serif" font-size="10.00" fill="#000000">_t::sub</text>
</a>
</g>
</g>
<!-- Node7&#45;&gt;Node12 -->
<g id="edge6" class="edge">
<title>Node7&#45;&gt;Node12</title>
<path fill="none" stroke="#191970" d="M251.0753,-38.4709C259.4058,-37.0377 268.1565,-35.5322 276.7931,-34.0464"/>
<polygon fill="#191970" stroke="#191970" points="277.5855,-37.4615 286.8473,-32.3166 276.3986,-30.5629 277.5855,-37.4615"/>
</g>
<!-- Node9 -->
<g id="node4" class="node">
<title>Node9</title>
<g id="a_node4"><a xlink:href="../../d2/d3c/os__dep_8c.html#aaa5bed87c5f571a4f368f9f5c8ccbc13" target="_top" xlink:title="__asm__">
<polygon fill="#ffffff" stroke="#000000" points="458.5,-76.5 458.5,-95.5 514.5,-95.5 514.5,-76.5 458.5,-76.5"/>
<text text-anchor="middle" x="486.5" y="-83.5" font-family="Helvetica,sans-Serif" font-size="10.00" fill="#000000">__asm__</text>
</a>
</g>
</g>
<!-- Node8&#45;&gt;Node9 -->
<g id="edge3" class="edge">
<title>Node8&#45;&gt;Node9</title>
<path fill="none" stroke="#191970" d="M395.1788,-77.2131C412.8088,-78.9094 431.9983,-80.7558 448.2158,-82.3163"/>
<polygon fill="#191970" stroke="#191970" points="448.1084,-85.822 458.3977,-83.296 448.7789,-78.8542 448.1084,-85.822"/>
</g>
<!-- Node10 -->
<g id="node5" class="node">
<title>Node10</title>
<g id="a_node5"><a xlink:href="../../d2/da1/classzmq_1_1mutex__t.html#a1b03f33ec230b53bc2711151664abe5e" target="_top" xlink:title="zmq::mutex_t::lock">
<polygon fill="#ffffff" stroke="#000000" points="436,-38.5 436,-57.5 537,-57.5 537,-38.5 436,-38.5"/>
<text text-anchor="middle" x="486.5" y="-45.5" font-family="Helvetica,sans-Serif" font-size="10.00" fill="#000000">zmq::mutex_t::lock</text>
</a>
</g>
</g>
<!-- Node8&#45;&gt;Node10 -->
<g id="edge4" class="edge">
<title>Node8&#45;&gt;Node10</title>
<path fill="none" stroke="#191970" d="M395.1788,-63.0633C405.1168,-61.424 415.5502,-59.7031 425.6676,-58.0342"/>
<polygon fill="#191970" stroke="#191970" points="426.3524,-61.4686 435.6495,-56.3877 425.2131,-54.562 426.3524,-61.4686"/>
</g>
<!-- Node11 -->
<g id="node6" class="node">
<title>Node11</title>
<g id="a_node6"><a xlink:href="../../d2/da1/classzmq_1_1mutex__t.html#a3ec7cc522005f9e9105c1f23f93e4d60" target="_top" xlink:title="zmq::mutex_t::unlock">
<polygon fill="#ffffff" stroke="#000000" points="431,-.5 431,-19.5 542,-19.5 542,-.5 431,-.5"/>
<text text-anchor="middle" x="486.5" y="-7.5" font-family="Helvetica,sans-Serif" font-size="10.00" fill="#000000">zmq::mutex_t::unlock</text>
</a>
</g>
</g>
<!-- Node8&#45;&gt;Node11 -->
<g id="edge5" class="edge">
<title>Node8&#45;&gt;Node11</title>
<path fill="none" stroke="#191970" d="M375.7283,-56.9796C382.1707,-54.0761 388.8164,-51.0017 395,-48 411.2754,-40.0994 414.3914,-36.1738 431,-29 435.8428,-26.9082 440.9979,-24.8851 446.1407,-22.9885"/>
<polygon fill="#191970" stroke="#191970" points="447.6779,-26.1569 455.9302,-19.5123 445.3355,-19.5604 447.6779,-26.1569"/>
</g>
<!-- Node12&#45;&gt;Node9 -->
<g id="edge7" class="edge">
<title>Node12&#45;&gt;Node9</title>
<path fill="none" stroke="#191970" d="M374.2566,-38.0661C381.1456,-41.2793 388.3336,-44.7004 395,-48 411.2143,-56.0253 414.3914,-59.8262 431,-67 436.5703,-69.406 442.5538,-71.7212 448.4566,-73.8575"/>
<polygon fill="#191970" stroke="#191970" points="447.6322,-77.2768 458.227,-77.2684 449.9394,-70.668 447.6322,-77.2768"/>
</g>
<!-- Node12&#45;&gt;Node10 -->
<g id="edge8" class="edge">
<title>Node12&#45;&gt;Node10</title>
<path fill="none" stroke="#191970" d="M395.1788,-32.3091C405.1168,-34.0166 415.5502,-35.8093 425.6676,-37.5477"/>
<polygon fill="#191970" stroke="#191970" points="425.2012,-41.0188 435.6495,-39.2628 426.3866,-34.1199 425.2012,-41.0188"/>
</g>
<!-- Node12&#45;&gt;Node11 -->
<g id="edge9" class="edge">
<title>Node12&#45;&gt;Node11</title>
<path fill="none" stroke="#191970" d="M395.1788,-18.1593C403.5412,-17.4121 412.2545,-16.6336 420.8351,-15.867"/>
<polygon fill="#191970" stroke="#191970" points="421.1691,-19.3512 430.8179,-14.975 420.5461,-12.3789 421.1691,-19.3512"/>
</g>
</g>
</svg>
