<?xml version="1.0" encoding="UTF-8" standalone="no"?>
<!DOCTYPE svg PUBLIC "-//W3C//DTD SVG 1.1//EN"
 "http://www.w3.org/Graphics/SVG/1.1/DTD/svg11.dtd">
<!-- Generated by graphviz version 2.40.1 (20161225.0304)
 -->
<!-- Title: Ipopt::CompoundVector::MaxImpl Pages: 1 -->
<svg width="542pt" height="171pt"
 viewBox="0.00 0.00 542.00 171.00" xmlns="http://www.w3.org/2000/svg" xmlns:xlink="http://www.w3.org/1999/xlink">
<g id="graph0" class="graph" transform="scale(1 1) rotate(0) translate(4 167)">
<title>Ipopt::CompoundVector::MaxImpl</title>
<polygon fill="#ffffff" stroke="transparent" points="-4,4 -4,-167 538,-167 538,4 -4,4"/>
<!-- Node1250 -->
<g id="node1" class="node">
<title>Node1250</title>
<polygon fill="#bfbfbf" stroke="#000000" points="0,-55 0,-85 120,-85 120,-55 0,-55"/>
<text text-anchor="start" x="8" y="-73" font-family="Helvetica,sans-Serif" font-size="10.00" fill="#000000">Ipopt::CompoundVector</text>
<text text-anchor="middle" x="60" y="-62" font-family="Helvetica,sans-Serif" font-size="10.00" fill="#000000">::MaxImpl</text>
</g>
<!-- Node1251 -->
<g id="node2" class="node">
<title>Node1251</title>
<g id="a_node2"><a xlink:href="../../d3/d37/class_ipopt_1_1_compound_vector.html#aeb5dd2d3cdc54c781143325ec899f17b" target="_top" xlink:title="Ipopt::CompoundVector\l::NComps">
<polygon fill="#ffffff" stroke="#000000" points="156,-118 156,-148 276,-148 276,-118 156,-118"/>
<text text-anchor="start" x="164" y="-136" font-family="Helvetica,sans-Serif" font-size="10.00" fill="#000000">Ipopt::CompoundVector</text>
<text text-anchor="middle" x="216" y="-125" font-family="Helvetica,sans-Serif" font-size="10.00" fill="#000000">::NComps</text>
</a>
</g>
</g>
<!-- Node1250&#45;&gt;Node1251 -->
<g id="edge1" class="edge">
<title>Node1250&#45;&gt;Node1251</title>
<path fill="none" stroke="#191970" d="M97.3659,-85.0901C118.8979,-93.7857 146.1615,-104.796 169.1216,-114.0684"/>
<polygon fill="#191970" stroke="#191970" points="168.0859,-117.4247 178.669,-117.924 170.7072,-110.934 168.0859,-117.4247"/>
</g>
<!-- Node1255 -->
<g id="node6" class="node">
<title>Node1255</title>
<g id="a_node6"><a xlink:href="../../d8/db7/class_ipopt_1_1_vector.html#a92acdd5daea1c4fa798a8731ad25850e" target="_top" xlink:title="Ipopt::Vector::Dim">
<polygon fill="#ffffff" stroke="#000000" points="167.5,-79.5 167.5,-98.5 264.5,-98.5 264.5,-79.5 167.5,-79.5"/>
<text text-anchor="middle" x="216" y="-86.5" font-family="Helvetica,sans-Serif" font-size="10.00" fill="#000000">Ipopt::Vector::Dim</text>
</a>
</g>
</g>
<!-- Node1250&#45;&gt;Node1255 -->
<g id="edge5" class="edge">
<title>Node1250&#45;&gt;Node1255</title>
<path fill="none" stroke="#191970" d="M120.3137,-77.3459C132.5047,-78.8307 145.3042,-80.3896 157.434,-81.867"/>
<polygon fill="#191970" stroke="#191970" points="157.0876,-85.3506 167.4374,-83.0853 157.934,-78.4019 157.0876,-85.3506"/>
</g>
<!-- Node1256 -->
<g id="node7" class="node">
<title>Node1256</title>
<g id="a_node7"><a xlink:href="../../d7/db2/namespace_ipopt.html#a58d1b9886a207be5b242eb514fe79e95" target="_top" xlink:title="Ipopt::Max">
<polygon fill="#ffffff" stroke="#000000" points="184.5,-41.5 184.5,-60.5 247.5,-60.5 247.5,-41.5 184.5,-41.5"/>
<text text-anchor="middle" x="216" y="-48.5" font-family="Helvetica,sans-Serif" font-size="10.00" fill="#000000">Ipopt::Max</text>
</a>
</g>
</g>
<!-- Node1250&#45;&gt;Node1256 -->
<g id="edge6" class="edge">
<title>Node1250&#45;&gt;Node1256</title>
<path fill="none" stroke="#191970" d="M120.3137,-62.6541C138.1782,-60.4783 157.3493,-58.1434 173.805,-56.1391"/>
<polygon fill="#191970" stroke="#191970" points="174.6822,-59.5582 184.1857,-54.8748 173.8358,-52.6096 174.6822,-59.5582"/>
</g>
<!-- Node1257 -->
<g id="node8" class="node">
<title>Node1257</title>
<g id="a_node8"><a xlink:href="../../d8/db7/class_ipopt_1_1_vector.html#a04dc195d0ec41c3fa42300c8d81cd694" target="_top" xlink:title="Ipopt::Vector::Max">
<polygon fill="#ffffff" stroke="#000000" points="167,-3.5 167,-22.5 265,-22.5 265,-3.5 167,-3.5"/>
<text text-anchor="middle" x="216" y="-10.5" font-family="Helvetica,sans-Serif" font-size="10.00" fill="#000000">Ipopt::Vector::Max</text>
</a>
</g>
</g>
<!-- Node1250&#45;&gt;Node1257 -->
<g id="edge7" class="edge">
<title>Node1250&#45;&gt;Node1257</title>
<path fill="none" stroke="#191970" d="M96.2411,-54.9583C114.1188,-47.7169 136.0721,-39.0894 156,-32 162.0126,-29.861 168.4048,-27.709 174.6904,-25.6613"/>
<polygon fill="#191970" stroke="#191970" points="175.9555,-28.9313 184.4101,-22.5462 173.819,-22.2653 175.9555,-28.9313"/>
</g>
<!-- Node1252 -->
<g id="node3" class="node">
<title>Node1252</title>
<g id="a_node3"><a xlink:href="../../d7/db2/namespace_ipopt.html#a412b04fd3180a55969ff76224d5bfec6" target="_top" xlink:title="Ipopt::IsValid">
<polygon fill="#ffffff" stroke="#000000" points="333,-143.5 333,-162.5 407,-162.5 407,-143.5 333,-143.5"/>
<text text-anchor="middle" x="370" y="-150.5" font-family="Helvetica,sans-Serif" font-size="10.00" fill="#000000">Ipopt::IsValid</text>
</a>
</g>
</g>
<!-- Node1251&#45;&gt;Node1252 -->
<g id="edge2" class="edge">
<title>Node1251&#45;&gt;Node1252</title>
<path fill="none" stroke="#191970" d="M276.4229,-140.8471C291.7474,-142.8373 307.9915,-144.9469 322.5685,-146.8401"/>
<polygon fill="#191970" stroke="#191970" points="322.4838,-150.3584 332.8513,-148.1755 323.3853,-143.4167 322.4838,-150.3584"/>
</g>
<!-- Node1254 -->
<g id="node5" class="node">
<title>Node1254</title>
<g id="a_node5"><a xlink:href="../../d7/db2/namespace_ipopt.html#a4ae001947e506b5b8f4f134b8a4ead23" target="_top" xlink:title="Ipopt::GetRawPtr">
<polygon fill="#ffffff" stroke="#000000" points="323.5,-105.5 323.5,-124.5 416.5,-124.5 416.5,-105.5 323.5,-105.5"/>
<text text-anchor="middle" x="370" y="-112.5" font-family="Helvetica,sans-Serif" font-size="10.00" fill="#000000">Ipopt::GetRawPtr</text>
</a>
</g>
</g>
<!-- Node1251&#45;&gt;Node1254 -->
<g id="edge4" class="edge">
<title>Node1251&#45;&gt;Node1254</title>
<path fill="none" stroke="#191970" d="M276.4229,-125.9376C288.4149,-124.5359 300.9701,-123.0684 312.8489,-121.68"/>
<polygon fill="#191970" stroke="#191970" points="313.5566,-125.1212 323.0826,-120.4839 312.7438,-118.1685 313.5566,-125.1212"/>
</g>
<!-- Node1253 -->
<g id="node4" class="node">
<title>Node1253</title>
<g id="a_node4"><a xlink:href="../../d7/db2/namespace_ipopt.html#acfc346e8412ed6def2dc1858b78bde1b" target="_top" xlink:title="Ipopt::IsNull">
<polygon fill="#ffffff" stroke="#000000" points="464,-143.5 464,-162.5 534,-162.5 534,-143.5 464,-143.5"/>
<text text-anchor="middle" x="499" y="-150.5" font-family="Helvetica,sans-Serif" font-size="10.00" fill="#000000">Ipopt::IsNull</text>
</a>
</g>
</g>
<!-- Node1252&#45;&gt;Node1253 -->
<g id="edge3" class="edge">
<title>Node1252&#45;&gt;Node1253</title>
<path fill="none" stroke="#191970" d="M407.3121,-153C421.8224,-153 438.5795,-153 453.7674,-153"/>
<polygon fill="#191970" stroke="#191970" points="453.9845,-156.5001 463.9844,-153 453.9844,-149.5001 453.9845,-156.5001"/>
</g>
<!-- Node1258 -->
<g id="node9" class="node">
<title>Node1258</title>
<g id="a_node9"><a xlink:href="../../d0/d0a/class_ipopt_1_1_tagged_object.html#a352e0245b4505a0b6190a6417da087f7" target="_top" xlink:title="Ipopt::TaggedObject\l::GetTag">
<polygon fill="#ffffff" stroke="#000000" points="317.5,-39 317.5,-69 422.5,-69 422.5,-39 317.5,-39"/>
<text text-anchor="start" x="325.5" y="-57" font-family="Helvetica,sans-Serif" font-size="10.00" fill="#000000">Ipopt::TaggedObject</text>
<text text-anchor="middle" x="370" y="-46" font-family="Helvetica,sans-Serif" font-size="10.00" fill="#000000">::GetTag</text>
</a>
</g>
</g>
<!-- Node1257&#45;&gt;Node1258 -->
<g id="edge8" class="edge">
<title>Node1257&#45;&gt;Node1258</title>
<path fill="none" stroke="#191970" d="M251.7178,-22.5093C268.2883,-26.9209 288.4803,-32.2967 307.4571,-37.349"/>
<polygon fill="#191970" stroke="#191970" points="306.6804,-40.764 317.2443,-39.9547 308.4814,-33.9997 306.6804,-40.764"/>
</g>
<!-- Node1259 -->
<g id="node10" class="node">
<title>Node1259</title>
<g id="a_node10"><a xlink:href="../../d8/db7/class_ipopt_1_1_vector.html#a3d1a73d53c608d56a644b8282b06c039" target="_top" xlink:title="Ipopt::Vector::MaxImpl">
<polygon fill="#ffffff" stroke="#000000" points="312,-.5 312,-19.5 428,-19.5 428,-.5 312,-.5"/>
<text text-anchor="middle" x="370" y="-7.5" font-family="Helvetica,sans-Serif" font-size="10.00" fill="#000000">Ipopt::Vector::MaxImpl</text>
</a>
</g>
</g>
<!-- Node1257&#45;&gt;Node1259 -->
<g id="edge9" class="edge">
<title>Node1257&#45;&gt;Node1259</title>
<path fill="none" stroke="#191970" d="M265.15,-12.0425C276.7721,-11.8161 289.3726,-11.5707 301.6739,-11.331"/>
<polygon fill="#191970" stroke="#191970" points="301.9788,-14.8258 311.9087,-11.1316 301.8424,-7.8272 301.9788,-14.8258"/>
</g>
</g>
</svg>
