<?xml version="1.0" encoding="UTF-8" standalone="no"?>
<!DOCTYPE svg PUBLIC "-//W3C//DTD SVG 1.1//EN"
 "http://www.w3.org/Graphics/SVG/1.1/DTD/svg11.dtd">
<!-- Generated by graphviz version 2.40.1 (20161225.0304)
 -->
<!-- Title: omc_NFModifier_ModTable_join Pages: 1 -->
<svg width="1313pt" height="123pt"
 viewBox="0.00 0.00 1313.00 123.00" xmlns="http://www.w3.org/2000/svg" xmlns:xlink="http://www.w3.org/1999/xlink">
<g id="graph0" class="graph" transform="scale(1 1) rotate(0) translate(4 119)">
<title>omc_NFModifier_ModTable_join</title>
<polygon fill="#ffffff" stroke="transparent" points="-4,4 -4,-119 1309,-119 1309,4 -4,4"/>
<!-- Node396 -->
<g id="node1" class="node">
<title>Node396</title>
<polygon fill="#bfbfbf" stroke="#000000" points="0,-38.5 0,-57.5 157,-57.5 157,-38.5 0,-38.5"/>
<text text-anchor="middle" x="78.5" y="-45.5" font-family="Helvetica,sans-Serif" font-size="10.00" fill="#000000">omc_NFModifier_ModTable_join</text>
</g>
<!-- Node397 -->
<g id="node2" class="node">
<title>Node397</title>
<g id="a_node2"><a xlink:href="../../d3/db6/_n_f_modifier_8h.html#a3a238168312eb1e5cd93b7d40ae44548" target="_top" xlink:title="omc_NFModifier_Modifier\l_merge">
<polygon fill="#ffffff" stroke="#000000" points="386,-33 386,-63 514,-63 514,-33 386,-33"/>
<text text-anchor="start" x="394" y="-51" font-family="Helvetica,sans-Serif" font-size="10.00" fill="#000000">omc_NFModifier_Modifier</text>
<text text-anchor="middle" x="450" y="-40" font-family="Helvetica,sans-Serif" font-size="10.00" fill="#000000">_merge</text>
</a>
</g>
</g>
<!-- Node396&#45;&gt;Node397 -->
<g id="edge1" class="edge">
<title>Node396&#45;&gt;Node397</title>
<path fill="none" stroke="#191970" d="M167.4167,-55.6765C176.0569,-56.2156 184.694,-56.6741 193,-57 262.7241,-59.736 280.2925,-60.1305 350,-57 361.5801,-56.4799 373.8918,-55.6228 385.7736,-54.6387"/>
<polygon fill="#191970" stroke="#191970" points="167.5007,-52.1745 157.2922,-55.0096 167.0405,-59.1594 167.5007,-52.1745"/>
</g>
<!-- Node407 -->
<g id="node12" class="node">
<title>Node407</title>
<g id="a_node12"><a xlink:href="../../d3/db6/_n_f_modifier_8h.html#add9394a1ad6fb7ed3f9c9b13826a1b2d" target="_top" xlink:title="omc_NFModifier_ModTable_join">
<polygon fill="#ffffff" stroke="#000000" points="193,-10.5 193,-29.5 350,-29.5 350,-10.5 193,-10.5"/>
<text text-anchor="middle" x="271.5" y="-17.5" font-family="Helvetica,sans-Serif" font-size="10.00" fill="#000000">omc_NFModifier_ModTable_join</text>
</a>
</g>
</g>
<!-- Node396&#45;&gt;Node407 -->
<g id="edge11" class="edge">
<title>Node396&#45;&gt;Node407</title>
<path fill="none" stroke="#191970" d="M154.0401,-37.0408C171.1149,-34.5636 189.1095,-31.953 205.7434,-29.5398"/>
<polygon fill="#191970" stroke="#191970" points="153.5042,-33.5818 144.1103,-38.4814 154.5092,-40.5093 153.5042,-33.5818"/>
</g>
<!-- Node398 -->
<g id="node3" class="node">
<title>Node398</title>
<g id="a_node3"><a xlink:href="../../da/d9b/_n_f_inst_8h.html#a8acc9b958ba18fef353020299497e239" target="_top" xlink:title="omc_NFInst_instComponentDef">
<polygon fill="#ffffff" stroke="#000000" points="550,-76.5 550,-95.5 708,-95.5 708,-76.5 550,-76.5"/>
<text text-anchor="middle" x="629" y="-83.5" font-family="Helvetica,sans-Serif" font-size="10.00" fill="#000000">omc_NFInst_instComponentDef</text>
</a>
</g>
</g>
<!-- Node397&#45;&gt;Node398 -->
<g id="edge2" class="edge">
<title>Node397&#45;&gt;Node398</title>
<path fill="none" stroke="#191970" d="M524.0212,-63.714C544.4157,-68.0436 565.9161,-72.6079 584.1114,-76.4706"/>
<polygon fill="#191970" stroke="#191970" points="524.6264,-60.2645 514.1175,-61.6115 523.1727,-67.1119 524.6264,-60.2645"/>
</g>
<!-- Node404 -->
<g id="node9" class="node">
<title>Node404</title>
<g id="a_node9"><a xlink:href="../../da/d9b/_n_f_inst_8h.html#ab23e1c2c01d5a882e202f78461844e2e" target="_top" xlink:title="omc_NFInst_modifyExtends">
<polygon fill="#ffffff" stroke="#000000" points="558.5,-38.5 558.5,-57.5 699.5,-57.5 699.5,-38.5 558.5,-38.5"/>
<text text-anchor="middle" x="629" y="-45.5" font-family="Helvetica,sans-Serif" font-size="10.00" fill="#000000">omc_NFInst_modifyExtends</text>
</a>
</g>
</g>
<!-- Node397&#45;&gt;Node404 -->
<g id="edge8" class="edge">
<title>Node397&#45;&gt;Node404</title>
<path fill="none" stroke="#191970" d="M524.3391,-48C535.5933,-48 547.1768,-48 558.3498,-48"/>
<polygon fill="#191970" stroke="#191970" points="524.1176,-44.5001 514.1175,-48 524.1175,-51.5001 524.1176,-44.5001"/>
</g>
<!-- Node405 -->
<g id="node10" class="node">
<title>Node405</title>
<g id="a_node10"><a xlink:href="../../da/d9b/_n_f_inst_8h.html#a1ff7705e9eb4936ddf795b5817e1d56f" target="_top" xlink:title="omc_NFInst_instClassDef">
<polygon fill="#ffffff" stroke="#000000" points="562.5,-.5 562.5,-19.5 695.5,-19.5 695.5,-.5 562.5,-.5"/>
<text text-anchor="middle" x="629" y="-7.5" font-family="Helvetica,sans-Serif" font-size="10.00" fill="#000000">omc_NFInst_instClassDef</text>
</a>
</g>
</g>
<!-- Node397&#45;&gt;Node405 -->
<g id="edge9" class="edge">
<title>Node397&#45;&gt;Node405</title>
<path fill="none" stroke="#191970" d="M524.0212,-32.286C544.4157,-27.9564 565.9161,-23.3921 584.1114,-19.5294"/>
<polygon fill="#191970" stroke="#191970" points="523.1727,-28.8881 514.1175,-34.3885 524.6264,-35.7355 523.1727,-28.8881"/>
</g>
<!-- Node399 -->
<g id="node4" class="node">
<title>Node399</title>
<g id="a_node4"><a xlink:href="../../da/d9b/_n_f_inst_8h.html#afb5e1697300683931164c6f2105d19eb" target="_top" xlink:title="boxptr_NFInst_instComponentDef">
<polygon fill="#ffffff" stroke="#000000" points="744,-95.5 744,-114.5 910,-114.5 910,-95.5 744,-95.5"/>
<text text-anchor="middle" x="827" y="-102.5" font-family="Helvetica,sans-Serif" font-size="10.00" fill="#000000">boxptr_NFInst_instComponentDef</text>
</a>
</g>
</g>
<!-- Node398&#45;&gt;Node399 -->
<g id="edge3" class="edge">
<title>Node398&#45;&gt;Node399</title>
<path fill="none" stroke="#191970" d="M718.0919,-94.5492C726.6485,-95.3703 735.3048,-96.201 743.8018,-97.0163"/>
<polygon fill="#191970" stroke="#191970" points="718.3971,-91.0625 708.1085,-93.5912 717.7284,-98.0305 718.3971,-91.0625"/>
</g>
<!-- Node400 -->
<g id="node5" class="node">
<title>Node400</title>
<g id="a_node5"><a xlink:href="../../da/d9b/_n_f_inst_8h.html#a78cfb03e5c6b1e44b80ce57359ef909d" target="_top" xlink:title="omc_NFInst_instComponent">
<polygon fill="#ffffff" stroke="#000000" points="756,-57.5 756,-76.5 898,-76.5 898,-57.5 756,-57.5"/>
<text text-anchor="middle" x="827" y="-64.5" font-family="Helvetica,sans-Serif" font-size="10.00" fill="#000000">omc_NFInst_instComponent</text>
</a>
</g>
</g>
<!-- Node398&#45;&gt;Node400 -->
<g id="edge4" class="edge">
<title>Node398&#45;&gt;Node400</title>
<path fill="none" stroke="#191970" d="M718.1379,-77.4464C730.7208,-76.2389 743.5183,-75.0109 755.7065,-73.8413"/>
<polygon fill="#191970" stroke="#191970" points="717.7284,-73.9695 708.1085,-78.4088 718.3971,-80.9375 717.7284,-73.9695"/>
</g>
<!-- Node401 -->
<g id="node6" class="node">
<title>Node401</title>
<g id="a_node6"><a xlink:href="../../da/d9b/_n_f_inst_8h.html#a1417ea3100df59e5a732d205efdc1e47" target="_top" xlink:title="boxptr_NFInst_instComponent">
<polygon fill="#ffffff" stroke="#000000" points="954,-79.5 954,-98.5 1104,-98.5 1104,-79.5 954,-79.5"/>
<text text-anchor="middle" x="1029" y="-86.5" font-family="Helvetica,sans-Serif" font-size="10.00" fill="#000000">boxptr_NFInst_instComponent</text>
</a>
</g>
</g>
<!-- Node400&#45;&gt;Node401 -->
<g id="edge5" class="edge">
<title>Node400&#45;&gt;Node401</title>
<path fill="none" stroke="#191970" d="M908.5066,-75.877C923.5314,-77.5133 939.1544,-79.2148 953.9767,-80.8291"/>
<polygon fill="#191970" stroke="#191970" points="908.5378,-72.3597 898.2176,-74.7564 907.7799,-79.3186 908.5378,-72.3597"/>
</g>
<!-- Node402 -->
<g id="node7" class="node">
<title>Node402</title>
<g id="a_node7"><a xlink:href="../../da/d9b/_n_f_inst_8h.html#a9b4dd646c932c634dd0e7e06c893734c" target="_top" xlink:title="omc_NFInst_redeclareComponent\lElement">
<polygon fill="#ffffff" stroke="#000000" points="946,-30 946,-60 1112,-60 1112,-30 946,-30"/>
<text text-anchor="start" x="954" y="-48" font-family="Helvetica,sans-Serif" font-size="10.00" fill="#000000">omc_NFInst_redeclareComponent</text>
<text text-anchor="middle" x="1029" y="-37" font-family="Helvetica,sans-Serif" font-size="10.00" fill="#000000">Element</text>
</a>
</g>
</g>
<!-- Node400&#45;&gt;Node402 -->
<g id="edge6" class="edge">
<title>Node400&#45;&gt;Node402</title>
<path fill="none" stroke="#191970" d="M908.4848,-58.1254C920.8414,-56.7796 933.6032,-55.3898 945.9917,-54.0405"/>
<polygon fill="#191970" stroke="#191970" points="907.7799,-54.6814 898.2176,-59.2436 908.5378,-61.6403 907.7799,-54.6814"/>
</g>
<!-- Node403 -->
<g id="node8" class="node">
<title>Node403</title>
<g id="a_node8"><a xlink:href="../../da/d9b/_n_f_inst_8h.html#ac22c33194b8e1da7d9f5c3b3bc618d36" target="_top" xlink:title="omc_NFInst_redeclareElements">
<polygon fill="#ffffff" stroke="#000000" points="1148,-35.5 1148,-54.5 1305,-54.5 1305,-35.5 1148,-35.5"/>
<text text-anchor="middle" x="1226.5" y="-42.5" font-family="Helvetica,sans-Serif" font-size="10.00" fill="#000000">omc_NFInst_redeclareElements</text>
</a>
</g>
</g>
<!-- Node402&#45;&gt;Node403 -->
<g id="edge7" class="edge">
<title>Node402&#45;&gt;Node403</title>
<path fill="none" stroke="#191970" d="M1122.2043,-45C1130.7741,-45 1139.3998,-45 1147.8221,-45"/>
<polygon fill="#191970" stroke="#191970" points="1122.1854,-41.5001 1112.1854,-45 1122.1853,-48.5001 1122.1854,-41.5001"/>
</g>
<!-- Node406 -->
<g id="node11" class="node">
<title>Node406</title>
<g id="a_node11"><a xlink:href="../../da/d9b/_n_f_inst_8h.html#a916eb3817d484cfa5eba7332007334db" target="_top" xlink:title="boxptr_NFInst_instClassDef">
<polygon fill="#ffffff" stroke="#000000" points="756.5,-.5 756.5,-19.5 897.5,-19.5 897.5,-.5 756.5,-.5"/>
<text text-anchor="middle" x="827" y="-7.5" font-family="Helvetica,sans-Serif" font-size="10.00" fill="#000000">boxptr_NFInst_instClassDef</text>
</a>
</g>
</g>
<!-- Node405&#45;&gt;Node406 -->
<g id="edge10" class="edge">
<title>Node405&#45;&gt;Node406</title>
<path fill="none" stroke="#191970" d="M705.979,-10C722.605,-10 740.1038,-10 756.4683,-10"/>
<polygon fill="#191970" stroke="#191970" points="705.7578,-6.5001 695.7577,-10 705.7577,-13.5001 705.7578,-6.5001"/>
</g>
<!-- Node407&#45;&gt;Node397 -->
<g id="edge12" class="edge">
<title>Node407&#45;&gt;Node397</title>
<path fill="none" stroke="#191970" d="M342.7081,-31.1699C357.01,-33.4133 371.9568,-35.7579 385.9956,-37.9601"/>
<polygon fill="#191970" stroke="#191970" points="342.8519,-27.6497 332.4303,-29.5577 341.7671,-34.5652 342.8519,-27.6497"/>
</g>
<!-- Node407&#45;&gt;Node407 -->
<g id="edge13" class="edge">
<title>Node407&#45;&gt;Node407</title>
<path fill="none" stroke="#191970" d="M238.1418,-37.8913C238.6304,-43.5406 249.7498,-48 271.5,-48 303.1367,-48 312.2817,-38.5653 298.935,-29.7571"/>
<polygon fill="#191970" stroke="#191970" points="241.0078,-39.9012 244.065,-29.7571 235.3491,-35.7806 241.0078,-39.9012"/>
</g>
</g>
</svg>
