<?xml version="1.0" encoding="UTF-8" standalone="no"?>
<!DOCTYPE svg PUBLIC "-//W3C//DTD SVG 1.1//EN"
 "http://www.w3.org/Graphics/SVG/1.1/DTD/svg11.dtd">
<!-- Generated by graphviz version 2.40.1 (20161225.0304)
 -->
<!-- Title: omc_NFModifier_Modifier_fromElement Pages: 1 -->
<svg width="927pt" height="123pt"
 viewBox="0.00 0.00 927.00 123.00" xmlns="http://www.w3.org/2000/svg" xmlns:xlink="http://www.w3.org/1999/xlink">
<g id="graph0" class="graph" transform="scale(1 1) rotate(0) translate(4 119)">
<title>omc_NFModifier_Modifier_fromElement</title>
<polygon fill="#ffffff" stroke="transparent" points="-4,4 -4,-119 923,-119 923,4 -4,4"/>
<!-- Node166 -->
<g id="node1" class="node">
<title>Node166</title>
<polygon fill="#bfbfbf" stroke="#000000" points="0,-33 0,-63 128,-63 128,-33 0,-33"/>
<text text-anchor="start" x="8" y="-51" font-family="Helvetica,sans-Serif" font-size="10.00" fill="#000000">omc_NFModifier_Modifier</text>
<text text-anchor="middle" x="64" y="-40" font-family="Helvetica,sans-Serif" font-size="10.00" fill="#000000">_fromElement</text>
</g>
<!-- Node167 -->
<g id="node2" class="node">
<title>Node167</title>
<g id="a_node2"><a xlink:href="../../da/d9b/_n_f_inst_8h.html#a8acc9b958ba18fef353020299497e239" target="_top" xlink:title="omc_NFInst_instComponentDef">
<polygon fill="#ffffff" stroke="#000000" points="164,-76.5 164,-95.5 322,-95.5 322,-76.5 164,-76.5"/>
<text text-anchor="middle" x="243" y="-83.5" font-family="Helvetica,sans-Serif" font-size="10.00" fill="#000000">omc_NFInst_instComponentDef</text>
</a>
</g>
</g>
<!-- Node166&#45;&gt;Node167 -->
<g id="edge1" class="edge">
<title>Node166&#45;&gt;Node167</title>
<path fill="none" stroke="#191970" d="M138.0212,-63.714C158.4157,-68.0436 179.9161,-72.6079 198.1114,-76.4706"/>
<polygon fill="#191970" stroke="#191970" points="138.6264,-60.2645 128.1175,-61.6115 137.1727,-67.1119 138.6264,-60.2645"/>
</g>
<!-- Node173 -->
<g id="node8" class="node">
<title>Node173</title>
<g id="a_node8"><a xlink:href="../../da/d9b/_n_f_inst_8h.html#ab23e1c2c01d5a882e202f78461844e2e" target="_top" xlink:title="omc_NFInst_modifyExtends">
<polygon fill="#ffffff" stroke="#000000" points="172.5,-38.5 172.5,-57.5 313.5,-57.5 313.5,-38.5 172.5,-38.5"/>
<text text-anchor="middle" x="243" y="-45.5" font-family="Helvetica,sans-Serif" font-size="10.00" fill="#000000">omc_NFInst_modifyExtends</text>
</a>
</g>
</g>
<!-- Node166&#45;&gt;Node173 -->
<g id="edge7" class="edge">
<title>Node166&#45;&gt;Node173</title>
<path fill="none" stroke="#191970" d="M138.3391,-48C149.5933,-48 161.1768,-48 172.3498,-48"/>
<polygon fill="#191970" stroke="#191970" points="138.1176,-44.5001 128.1175,-48 138.1175,-51.5001 138.1176,-44.5001"/>
</g>
<!-- Node174 -->
<g id="node9" class="node">
<title>Node174</title>
<g id="a_node9"><a xlink:href="../../da/d9b/_n_f_inst_8h.html#a1ff7705e9eb4936ddf795b5817e1d56f" target="_top" xlink:title="omc_NFInst_instClassDef">
<polygon fill="#ffffff" stroke="#000000" points="176.5,-.5 176.5,-19.5 309.5,-19.5 309.5,-.5 176.5,-.5"/>
<text text-anchor="middle" x="243" y="-7.5" font-family="Helvetica,sans-Serif" font-size="10.00" fill="#000000">omc_NFInst_instClassDef</text>
</a>
</g>
</g>
<!-- Node166&#45;&gt;Node174 -->
<g id="edge8" class="edge">
<title>Node166&#45;&gt;Node174</title>
<path fill="none" stroke="#191970" d="M138.0212,-32.286C158.4157,-27.9564 179.9161,-23.3921 198.1114,-19.5294"/>
<polygon fill="#191970" stroke="#191970" points="137.1727,-28.8881 128.1175,-34.3885 138.6264,-35.7355 137.1727,-28.8881"/>
</g>
<!-- Node168 -->
<g id="node3" class="node">
<title>Node168</title>
<g id="a_node3"><a xlink:href="../../da/d9b/_n_f_inst_8h.html#afb5e1697300683931164c6f2105d19eb" target="_top" xlink:title="boxptr_NFInst_instComponentDef">
<polygon fill="#ffffff" stroke="#000000" points="358,-95.5 358,-114.5 524,-114.5 524,-95.5 358,-95.5"/>
<text text-anchor="middle" x="441" y="-102.5" font-family="Helvetica,sans-Serif" font-size="10.00" fill="#000000">boxptr_NFInst_instComponentDef</text>
</a>
</g>
</g>
<!-- Node167&#45;&gt;Node168 -->
<g id="edge2" class="edge">
<title>Node167&#45;&gt;Node168</title>
<path fill="none" stroke="#191970" d="M332.0919,-94.5492C340.6485,-95.3703 349.3048,-96.201 357.8018,-97.0163"/>
<polygon fill="#191970" stroke="#191970" points="332.3971,-91.0625 322.1085,-93.5912 331.7284,-98.0305 332.3971,-91.0625"/>
</g>
<!-- Node169 -->
<g id="node4" class="node">
<title>Node169</title>
<g id="a_node4"><a xlink:href="../../da/d9b/_n_f_inst_8h.html#a78cfb03e5c6b1e44b80ce57359ef909d" target="_top" xlink:title="omc_NFInst_instComponent">
<polygon fill="#ffffff" stroke="#000000" points="370,-57.5 370,-76.5 512,-76.5 512,-57.5 370,-57.5"/>
<text text-anchor="middle" x="441" y="-64.5" font-family="Helvetica,sans-Serif" font-size="10.00" fill="#000000">omc_NFInst_instComponent</text>
</a>
</g>
</g>
<!-- Node167&#45;&gt;Node169 -->
<g id="edge3" class="edge">
<title>Node167&#45;&gt;Node169</title>
<path fill="none" stroke="#191970" d="M332.1379,-77.4464C344.7208,-76.2389 357.5183,-75.0109 369.7065,-73.8413"/>
<polygon fill="#191970" stroke="#191970" points="331.7284,-73.9695 322.1085,-78.4088 332.3971,-80.9375 331.7284,-73.9695"/>
</g>
<!-- Node170 -->
<g id="node5" class="node">
<title>Node170</title>
<g id="a_node5"><a xlink:href="../../da/d9b/_n_f_inst_8h.html#a1417ea3100df59e5a732d205efdc1e47" target="_top" xlink:title="boxptr_NFInst_instComponent">
<polygon fill="#ffffff" stroke="#000000" points="568,-79.5 568,-98.5 718,-98.5 718,-79.5 568,-79.5"/>
<text text-anchor="middle" x="643" y="-86.5" font-family="Helvetica,sans-Serif" font-size="10.00" fill="#000000">boxptr_NFInst_instComponent</text>
</a>
</g>
</g>
<!-- Node169&#45;&gt;Node170 -->
<g id="edge4" class="edge">
<title>Node169&#45;&gt;Node170</title>
<path fill="none" stroke="#191970" d="M522.5066,-75.877C537.5314,-77.5133 553.1544,-79.2148 567.9767,-80.8291"/>
<polygon fill="#191970" stroke="#191970" points="522.5378,-72.3597 512.2176,-74.7564 521.7799,-79.3186 522.5378,-72.3597"/>
</g>
<!-- Node171 -->
<g id="node6" class="node">
<title>Node171</title>
<g id="a_node6"><a xlink:href="../../da/d9b/_n_f_inst_8h.html#a9b4dd646c932c634dd0e7e06c893734c" target="_top" xlink:title="omc_NFInst_redeclareComponent\lElement">
<polygon fill="#ffffff" stroke="#000000" points="560,-30 560,-60 726,-60 726,-30 560,-30"/>
<text text-anchor="start" x="568" y="-48" font-family="Helvetica,sans-Serif" font-size="10.00" fill="#000000">omc_NFInst_redeclareComponent</text>
<text text-anchor="middle" x="643" y="-37" font-family="Helvetica,sans-Serif" font-size="10.00" fill="#000000">Element</text>
</a>
</g>
</g>
<!-- Node169&#45;&gt;Node171 -->
<g id="edge5" class="edge">
<title>Node169&#45;&gt;Node171</title>
<path fill="none" stroke="#191970" d="M522.4848,-58.1254C534.8414,-56.7796 547.6032,-55.3898 559.9917,-54.0405"/>
<polygon fill="#191970" stroke="#191970" points="521.7799,-54.6814 512.2176,-59.2436 522.5378,-61.6403 521.7799,-54.6814"/>
</g>
<!-- Node172 -->
<g id="node7" class="node">
<title>Node172</title>
<g id="a_node7"><a xlink:href="../../da/d9b/_n_f_inst_8h.html#ac22c33194b8e1da7d9f5c3b3bc618d36" target="_top" xlink:title="omc_NFInst_redeclareElements">
<polygon fill="#ffffff" stroke="#000000" points="762,-35.5 762,-54.5 919,-54.5 919,-35.5 762,-35.5"/>
<text text-anchor="middle" x="840.5" y="-42.5" font-family="Helvetica,sans-Serif" font-size="10.00" fill="#000000">omc_NFInst_redeclareElements</text>
</a>
</g>
</g>
<!-- Node171&#45;&gt;Node172 -->
<g id="edge6" class="edge">
<title>Node171&#45;&gt;Node172</title>
<path fill="none" stroke="#191970" d="M736.2043,-45C744.7741,-45 753.3998,-45 761.8221,-45"/>
<polygon fill="#191970" stroke="#191970" points="736.1854,-41.5001 726.1854,-45 736.1853,-48.5001 736.1854,-41.5001"/>
</g>
<!-- Node175 -->
<g id="node10" class="node">
<title>Node175</title>
<g id="a_node10"><a xlink:href="../../da/d9b/_n_f_inst_8h.html#a916eb3817d484cfa5eba7332007334db" target="_top" xlink:title="boxptr_NFInst_instClassDef">
<polygon fill="#ffffff" stroke="#000000" points="370.5,-.5 370.5,-19.5 511.5,-19.5 511.5,-.5 370.5,-.5"/>
<text text-anchor="middle" x="441" y="-7.5" font-family="Helvetica,sans-Serif" font-size="10.00" fill="#000000">boxptr_NFInst_instClassDef</text>
</a>
</g>
</g>
<!-- Node174&#45;&gt;Node175 -->
<g id="edge9" class="edge">
<title>Node174&#45;&gt;Node175</title>
<path fill="none" stroke="#191970" d="M319.979,-10C336.605,-10 354.1038,-10 370.4683,-10"/>
<polygon fill="#191970" stroke="#191970" points="319.7578,-6.5001 309.7577,-10 319.7577,-13.5001 319.7578,-6.5001"/>
</g>
</g>
</svg>
