<?xml version="1.0" encoding="UTF-8" standalone="no"?>
<!DOCTYPE svg PUBLIC "-//W3C//DTD SVG 1.1//EN"
 "http://www.w3.org/Graphics/SVG/1.1/DTD/svg11.dtd">
<!-- Generated by graphviz version 2.40.1 (20161225.0304)
 -->
<!-- Title: omc_NFModifier_ModTable_balance Pages: 1 -->
<svg width="491pt" height="199pt"
 viewBox="0.00 0.00 491.00 199.42" xmlns="http://www.w3.org/2000/svg" xmlns:xlink="http://www.w3.org/1999/xlink">
<g id="graph0" class="graph" transform="scale(1 1) rotate(0) translate(4 195.4241)">
<title>omc_NFModifier_ModTable_balance</title>
<polygon fill="#ffffff" stroke="transparent" points="-4,4 -4,-195.4241 487,-195.4241 487,4 -4,4"/>
<!-- Node344 -->
<g id="node1" class="node">
<title>Node344</title>
<polygon fill="#bfbfbf" stroke="#000000" points="0,-88.5 0,-118.5 137,-118.5 137,-88.5 0,-88.5"/>
<text text-anchor="start" x="8" y="-106.5" font-family="Helvetica,sans-Serif" font-size="10.00" fill="#000000">omc_NFModifier_ModTable</text>
<text text-anchor="middle" x="68.5" y="-95.5" font-family="Helvetica,sans-Serif" font-size="10.00" fill="#000000">_balance</text>
</g>
<!-- Node345 -->
<g id="node2" class="node">
<title>Node345</title>
<g id="a_node2"><a xlink:href="../../d1/d3e/_n_f_modifier_8c.html#ac110f8514a24fd5609854d1d2dc22243" target="_top" xlink:title="omc_NFModifier_ModTable\l_height">
<polygon fill="#ffffff" stroke="#000000" points="346,-159.5 346,-189.5 483,-189.5 483,-159.5 346,-159.5"/>
<text text-anchor="start" x="354" y="-177.5" font-family="Helvetica,sans-Serif" font-size="10.00" fill="#000000">omc_NFModifier_ModTable</text>
<text text-anchor="middle" x="414.5" y="-166.5" font-family="Helvetica,sans-Serif" font-size="10.00" fill="#000000">_height</text>
</a>
</g>
</g>
<!-- Node344&#45;&gt;Node345 -->
<g id="edge1" class="edge">
<title>Node344&#45;&gt;Node345</title>
<path fill="none" stroke="#191970" d="M83.4307,-118.7444C102.3187,-136.8278 136.7756,-165.9729 173,-177.5 225.5037,-194.2074 287.7359,-192.9728 335.8763,-187.8133"/>
<polygon fill="#191970" stroke="#191970" points="336.3917,-191.2772 345.9265,-186.6578 335.5921,-184.323 336.3917,-191.2772"/>
</g>
<!-- Node346 -->
<g id="node3" class="node">
<title>Node346</title>
<g id="a_node3"><a xlink:href="../../d1/d3e/_n_f_modifier_8c.html#aa042d481ab16d1723ce29bdbe2f1216a" target="_top" xlink:title="omc_NFModifier_ModTable\l_calculateBalance">
<polygon fill="#ffffff" stroke="#000000" points="173,-137.5 173,-167.5 310,-167.5 310,-137.5 173,-137.5"/>
<text text-anchor="start" x="181" y="-155.5" font-family="Helvetica,sans-Serif" font-size="10.00" fill="#000000">omc_NFModifier_ModTable</text>
<text text-anchor="middle" x="241.5" y="-144.5" font-family="Helvetica,sans-Serif" font-size="10.00" fill="#000000">_calculateBalance</text>
</a>
</g>
</g>
<!-- Node344&#45;&gt;Node346 -->
<g id="edge2" class="edge">
<title>Node344&#45;&gt;Node346</title>
<path fill="none" stroke="#191970" d="M121.8173,-118.6014C139.7425,-123.6785 159.9084,-129.3902 178.5057,-134.6577"/>
<polygon fill="#191970" stroke="#191970" points="177.7834,-138.0907 188.3587,-137.4484 179.691,-131.3557 177.7834,-138.0907"/>
</g>
<!-- Node347 -->
<g id="node4" class="node">
<title>Node347</title>
<g id="a_node4"><a xlink:href="../../d1/d3e/_n_f_modifier_8c.html#a904d16e8d6777cc19d8dd34bde79fba8" target="_top" xlink:title="omc_NFModifier_ModTable\l_rotateLeft">
<polygon fill="#ffffff" stroke="#000000" points="173,-88.5 173,-118.5 310,-118.5 310,-88.5 173,-88.5"/>
<text text-anchor="start" x="181" y="-106.5" font-family="Helvetica,sans-Serif" font-size="10.00" fill="#000000">omc_NFModifier_ModTable</text>
<text text-anchor="middle" x="241.5" y="-95.5" font-family="Helvetica,sans-Serif" font-size="10.00" fill="#000000">_rotateLeft</text>
</a>
</g>
</g>
<!-- Node344&#45;&gt;Node347 -->
<g id="edge4" class="edge">
<title>Node344&#45;&gt;Node347</title>
<path fill="none" stroke="#191970" d="M137.3713,-103.5C145.678,-103.5 154.2111,-103.5 162.6466,-103.5"/>
<polygon fill="#191970" stroke="#191970" points="162.8657,-107.0001 172.8657,-103.5 162.8657,-100.0001 162.8657,-107.0001"/>
</g>
<!-- Node348 -->
<g id="node5" class="node">
<title>Node348</title>
<g id="a_node5"><a xlink:href="../../d1/d3e/_n_f_modifier_8c.html#aa11683ee0728876a8e24734285f7686c" target="_top" xlink:title="omc_NFModifier_ModTable\l_setTreeLeftRight">
<polygon fill="#ffffff" stroke="#000000" points="346,-44.5 346,-74.5 483,-74.5 483,-44.5 346,-44.5"/>
<text text-anchor="start" x="354" y="-62.5" font-family="Helvetica,sans-Serif" font-size="10.00" fill="#000000">omc_NFModifier_ModTable</text>
<text text-anchor="middle" x="414.5" y="-51.5" font-family="Helvetica,sans-Serif" font-size="10.00" fill="#000000">_setTreeLeftRight</text>
</a>
</g>
</g>
<!-- Node344&#45;&gt;Node348 -->
<g id="edge6" class="edge">
<title>Node344&#45;&gt;Node348</title>
<path fill="none" stroke="#191970" d="M127.0737,-88.4963C141.9717,-85.1088 158.009,-81.8299 173,-79.5 226.9311,-71.1179 288.2208,-66.0951 335.561,-63.1795"/>
<polygon fill="#191970" stroke="#191970" points="335.9745,-66.6611 345.7481,-62.5712 335.5572,-59.6736 335.9745,-66.6611"/>
</g>
<!-- Node349 -->
<g id="node6" class="node">
<title>Node349</title>
<g id="a_node6"><a xlink:href="../../d1/d3e/_n_f_modifier_8c.html#a2ce92fc510e0c89b57541e8e2c8dcaf5" target="_top" xlink:title="omc_NFModifier_ModTable\l_rotateRight">
<polygon fill="#ffffff" stroke="#000000" points="173,-.5 173,-30.5 310,-30.5 310,-.5 173,-.5"/>
<text text-anchor="start" x="181" y="-18.5" font-family="Helvetica,sans-Serif" font-size="10.00" fill="#000000">omc_NFModifier_ModTable</text>
<text text-anchor="middle" x="241.5" y="-7.5" font-family="Helvetica,sans-Serif" font-size="10.00" fill="#000000">_rotateRight</text>
</a>
</g>
</g>
<!-- Node344&#45;&gt;Node349 -->
<g id="edge7" class="edge">
<title>Node344&#45;&gt;Node349</title>
<path fill="none" stroke="#191970" d="M94.3352,-88.2704C115.2664,-76.1493 145.6654,-59.0341 173,-45.5 180.3617,-41.855 188.269,-38.1791 196.0024,-34.7103"/>
<polygon fill="#191970" stroke="#191970" points="197.5711,-37.8436 205.3008,-30.5978 194.7397,-31.4418 197.5711,-37.8436"/>
</g>
<!-- Node346&#45;&gt;Node345 -->
<g id="edge3" class="edge">
<title>Node346&#45;&gt;Node345</title>
<path fill="none" stroke="#191970" d="M310.3713,-161.2582C318.7692,-162.3261 327.3987,-163.4235 335.9246,-164.5078"/>
<polygon fill="#191970" stroke="#191970" points="335.504,-167.9824 345.8657,-165.7719 336.3871,-161.0383 335.504,-167.9824"/>
</g>
<!-- Node347&#45;&gt;Node348 -->
<g id="edge5" class="edge">
<title>Node347&#45;&gt;Node348</title>
<path fill="none" stroke="#191970" d="M300.5529,-88.4808C315.0864,-84.7844 330.7732,-80.7947 345.7222,-76.9926"/>
<polygon fill="#191970" stroke="#191970" points="346.591,-80.3832 355.4197,-74.5262 344.8655,-73.5991 346.591,-80.3832"/>
</g>
<!-- Node349&#45;&gt;Node348 -->
<g id="edge8" class="edge">
<title>Node349&#45;&gt;Node348</title>
<path fill="none" stroke="#191970" d="M300.5529,-30.5192C315.0864,-34.2156 330.7732,-38.2053 345.7222,-42.0074"/>
<polygon fill="#191970" stroke="#191970" points="344.8655,-45.4009 355.4197,-44.4738 346.591,-38.6168 344.8655,-45.4009"/>
</g>
</g>
</svg>
