<?xml version="1.0" encoding="UTF-8" standalone="no"?>
<!DOCTYPE svg PUBLIC "-//W3C//DTD SVG 1.1//EN"
 "http://www.w3.org/Graphics/SVG/1.1/DTD/svg11.dtd">
<!-- Generated by graphviz version 2.40.1 (20161225.0304)
 -->
<!-- Title: omc_FGraphBuildEnv_analyseExp2 Pages: 1 -->
<svg width="1005pt" height="221pt"
 viewBox="0.00 0.00 1005.00 221.00" xmlns="http://www.w3.org/2000/svg" xmlns:xlink="http://www.w3.org/1999/xlink">
<g id="graph0" class="graph" transform="scale(1 1) rotate(0) translate(4 217)">
<title>omc_FGraphBuildEnv_analyseExp2</title>
<polygon fill="#ffffff" stroke="transparent" points="-4,4 -4,-217 1001,-217 1001,4 -4,4"/>
<!-- Node76 -->
<g id="node1" class="node">
<title>Node76</title>
<polygon fill="#bfbfbf" stroke="#000000" points="0,-57.5 0,-87.5 112,-87.5 112,-57.5 0,-57.5"/>
<text text-anchor="start" x="8" y="-75.5" font-family="Helvetica,sans-Serif" font-size="10.00" fill="#000000">omc_FGraphBuildEnv</text>
<text text-anchor="middle" x="56" y="-64.5" font-family="Helvetica,sans-Serif" font-size="10.00" fill="#000000">_analyseExp2</text>
</g>
<!-- Node77 -->
<g id="node2" class="node">
<title>Node77</title>
<g id="a_node2"><a xlink:href="../../d2/df6/_f_graph_build_env_8c.html#a500718369ba236e1c7813dae7159a107" target="_top" xlink:title="omc_FGraphBuildEnv\l_analyseCref">
<polygon fill="#ffffff" stroke="#000000" points="148,-120.5 148,-150.5 260,-150.5 260,-120.5 148,-120.5"/>
<text text-anchor="start" x="156" y="-138.5" font-family="Helvetica,sans-Serif" font-size="10.00" fill="#000000">omc_FGraphBuildEnv</text>
<text text-anchor="middle" x="204" y="-127.5" font-family="Helvetica,sans-Serif" font-size="10.00" fill="#000000">_analyseCref</text>
</a>
</g>
</g>
<!-- Node76&#45;&gt;Node77 -->
<g id="edge1" class="edge">
<title>Node76&#45;&gt;Node77</title>
<path fill="none" stroke="#191970" d="M91.4497,-87.5901C111.7863,-96.2469 137.5121,-107.1977 159.2337,-116.4441"/>
<polygon fill="#191970" stroke="#191970" points="158.0115,-119.7277 168.5834,-120.424 160.7532,-113.2869 158.0115,-119.7277"/>
</g>
<!-- Node82 -->
<g id="node7" class="node">
<title>Node82</title>
<g id="a_node7"><a xlink:href="../../d2/df6/_f_graph_build_env_8c.html#ac454bfbb67683656e4ae9dd0efc2b50d" target="_top" xlink:title="omc_FGraphBuildEnv\l_addIterators">
<polygon fill="#ffffff" stroke="#000000" points="148,-57.5 148,-87.5 260,-87.5 260,-57.5 148,-57.5"/>
<text text-anchor="start" x="156" y="-75.5" font-family="Helvetica,sans-Serif" font-size="10.00" fill="#000000">omc_FGraphBuildEnv</text>
<text text-anchor="middle" x="204" y="-64.5" font-family="Helvetica,sans-Serif" font-size="10.00" fill="#000000">_addIterators</text>
</a>
</g>
</g>
<!-- Node76&#45;&gt;Node82 -->
<g id="edge7" class="edge">
<title>Node76&#45;&gt;Node82</title>
<path fill="none" stroke="#191970" d="M112.3747,-72.5C120.6214,-72.5 129.1782,-72.5 137.6023,-72.5"/>
<polygon fill="#191970" stroke="#191970" points="137.7821,-76.0001 147.7821,-72.5 137.7821,-69.0001 137.7821,-76.0001"/>
</g>
<!-- Node92 -->
<g id="node17" class="node">
<title>Node92</title>
<g id="a_node17"><a xlink:href="../../d2/df6/_f_graph_build_env_8c.html#a90a17422752d4175628208010e5de4b1" target="_top" xlink:title="omc_FGraphBuildEnv\l_addMatchScope">
<polygon fill="#ffffff" stroke="#000000" points="148,-8.5 148,-38.5 260,-38.5 260,-8.5 148,-8.5"/>
<text text-anchor="start" x="156" y="-26.5" font-family="Helvetica,sans-Serif" font-size="10.00" fill="#000000">omc_FGraphBuildEnv</text>
<text text-anchor="middle" x="204" y="-15.5" font-family="Helvetica,sans-Serif" font-size="10.00" fill="#000000">_addMatchScope</text>
</a>
</g>
</g>
<!-- Node76&#45;&gt;Node92 -->
<g id="edge18" class="edge">
<title>Node76&#45;&gt;Node92</title>
<path fill="none" stroke="#191970" d="M101.6125,-57.3986C116.594,-52.4385 133.4051,-46.8726 149.0071,-41.7071"/>
<polygon fill="#191970" stroke="#191970" points="150.1449,-45.0173 158.5381,-38.5516 147.9448,-38.372 150.1449,-45.0173"/>
</g>
<!-- Node78 -->
<g id="node3" class="node">
<title>Node78</title>
<g id="a_node3"><a xlink:href="../../d2/df6/_f_graph_build_env_8c.html#ab114d234b4169e073a982f173c4a125b" target="_top" xlink:title="omc_FGraphBuildEnv\l_mkCrefNode">
<polygon fill="#ffffff" stroke="#000000" points="317,-164.5 317,-194.5 429,-194.5 429,-164.5 317,-164.5"/>
<text text-anchor="start" x="325" y="-182.5" font-family="Helvetica,sans-Serif" font-size="10.00" fill="#000000">omc_FGraphBuildEnv</text>
<text text-anchor="middle" x="373" y="-171.5" font-family="Helvetica,sans-Serif" font-size="10.00" fill="#000000">_mkCrefNode</text>
</a>
</g>
</g>
<!-- Node77&#45;&gt;Node78 -->
<g id="edge2" class="edge">
<title>Node77&#45;&gt;Node78</title>
<path fill="none" stroke="#191970" d="M260.2746,-150.1514C275.2402,-154.0477 291.5403,-158.2915 306.9756,-162.3102"/>
<polygon fill="#191970" stroke="#191970" points="306.4119,-165.7801 316.9712,-164.9126 308.1757,-159.0059 306.4119,-165.7801"/>
</g>
<!-- Node81 -->
<g id="node6" class="node">
<title>Node81</title>
<g id="a_node6"><a xlink:href="../../d1/dd1/3rd_party_2gc_2include_2gc_8h.html#acacfa47efcc44a29f7bb7d98f2a000f8" target="_top" xlink:title="void">
<polygon fill="#ffffff" stroke="#000000" points="355.5,-126 355.5,-145 390.5,-145 390.5,-126 355.5,-126"/>
<text text-anchor="middle" x="373" y="-133" font-family="Helvetica,sans-Serif" font-size="10.00" fill="#000000">void</text>
</a>
</g>
</g>
<!-- Node77&#45;&gt;Node81 -->
<g id="edge6" class="edge">
<title>Node77&#45;&gt;Node81</title>
<path fill="none" stroke="#191970" d="M260.2746,-135.5C288.7895,-135.5 322.1492,-135.5 345.1406,-135.5"/>
<polygon fill="#191970" stroke="#191970" points="345.2235,-139.0001 355.2235,-135.5 345.2235,-132.0001 345.2235,-139.0001"/>
</g>
<!-- Node79 -->
<g id="node4" class="node">
<title>Node79</title>
<g id="a_node4"><a xlink:href="../../d0/d78/_absyn_8c.html#a1aefd725196f1d164e9b91c91a99839d" target="_top" xlink:title="omc_Absyn_printComponent\lRefStr">
<polygon fill="#ffffff" stroke="#000000" points="486,-164.5 486,-194.5 629,-194.5 629,-164.5 486,-164.5"/>
<text text-anchor="start" x="494" y="-182.5" font-family="Helvetica,sans-Serif" font-size="10.00" fill="#000000">omc_Absyn_printComponent</text>
<text text-anchor="middle" x="557.5" y="-171.5" font-family="Helvetica,sans-Serif" font-size="10.00" fill="#000000">RefStr</text>
</a>
</g>
</g>
<!-- Node78&#45;&gt;Node79 -->
<g id="edge3" class="edge">
<title>Node78&#45;&gt;Node79</title>
<path fill="none" stroke="#191970" d="M429.1075,-179.5C443.805,-179.5 459.9564,-179.5 475.6968,-179.5"/>
<polygon fill="#191970" stroke="#191970" points="475.9617,-183.0001 485.9617,-179.5 475.9617,-176.0001 475.9617,-183.0001"/>
</g>
<!-- Node79&#45;&gt;Node79 -->
<g id="edge4" class="edge">
<title>Node79&#45;&gt;Node79</title>
<path fill="none" stroke="#191970" d="M527.874,-194.659C520.7301,-204.0566 530.6055,-213 557.5,-213 573.8889,-213 583.9578,-209.679 587.7069,-204.9579"/>
<polygon fill="#191970" stroke="#191970" points="591.1837,-204.446 587.126,-194.659 584.1948,-204.8403 591.1837,-204.446"/>
</g>
<!-- Node80 -->
<g id="node5" class="node">
<title>Node80</title>
<g id="a_node5"><a xlink:href="../../d7/deb/build_2include_2omc_2c_2util_2modelica__string_8c.html#a751007abc59e9ca7978f2af10a0c814f" target="_top" xlink:title="stringAppend">
<polygon fill="#ffffff" stroke="#000000" points="691.5,-170 691.5,-189 765.5,-189 765.5,-170 691.5,-170"/>
<text text-anchor="middle" x="728.5" y="-177" font-family="Helvetica,sans-Serif" font-size="10.00" fill="#000000">stringAppend</text>
</a>
</g>
</g>
<!-- Node79&#45;&gt;Node80 -->
<g id="edge5" class="edge">
<title>Node79&#45;&gt;Node80</title>
<path fill="none" stroke="#191970" d="M629.0286,-179.5C646.5962,-179.5 664.9727,-179.5 681.0823,-179.5"/>
<polygon fill="#191970" stroke="#191970" points="681.3099,-183.0001 691.3099,-179.5 681.3099,-176.0001 681.3099,-183.0001"/>
</g>
<!-- Node83 -->
<g id="node8" class="node">
<title>Node83</title>
<g id="a_node8"><a xlink:href="../../d2/d0f/_f_node_8c.html#ad837a8a6752bd4ad53681789eb1192b8" target="_top" xlink:title="omc_FNode_child">
<polygon fill="#ffffff" stroke="#000000" points="325.5,-88 325.5,-107 420.5,-107 420.5,-88 325.5,-88"/>
<text text-anchor="middle" x="373" y="-95" font-family="Helvetica,sans-Serif" font-size="10.00" fill="#000000">omc_FNode_child</text>
</a>
</g>
</g>
<!-- Node82&#45;&gt;Node83 -->
<g id="edge8" class="edge">
<title>Node82&#45;&gt;Node83</title>
<path fill="none" stroke="#191970" d="M260.2746,-80.8246C277.9332,-83.4369 297.4499,-86.3239 315.2115,-88.9514"/>
<polygon fill="#191970" stroke="#191970" points="315.0346,-92.4632 325.4392,-90.4644 316.059,-85.5386 315.0346,-92.4632"/>
</g>
<!-- Node89 -->
<g id="node14" class="node">
<title>Node89</title>
<g id="a_node14"><a xlink:href="../../d2/d0f/_f_node_8c.html#a1cf3518b5e46675631e2c0cbce675115" target="_top" xlink:title="omc_FNode_addIteratorsToRef">
<polygon fill="#ffffff" stroke="#000000" points="296,-50 296,-69 450,-69 450,-50 296,-50"/>
<text text-anchor="middle" x="373" y="-57" font-family="Helvetica,sans-Serif" font-size="10.00" fill="#000000">omc_FNode_addIteratorsToRef</text>
</a>
</g>
</g>
<!-- Node82&#45;&gt;Node89 -->
<g id="edge14" class="edge">
<title>Node82&#45;&gt;Node89</title>
<path fill="none" stroke="#191970" d="M260.2746,-68.1712C268.4873,-67.5394 277.1018,-66.8768 285.7549,-66.2112"/>
<polygon fill="#191970" stroke="#191970" points="286.2065,-69.6869 295.9086,-65.4301 285.6696,-62.7075 286.2065,-69.6869"/>
</g>
<!-- Node91 -->
<g id="node16" class="node">
<title>Node91</title>
<g id="a_node16"><a xlink:href="../../d2/df6/_f_graph_build_env_8c.html#a202f163d1be1a93831b1515fd629e0b6" target="_top" xlink:title="omc_FGraphBuildEnv\l_addIterators__helper">
<polygon fill="#ffffff" stroke="#000000" points="317,-.5 317,-30.5 429,-30.5 429,-.5 317,-.5"/>
<text text-anchor="start" x="325" y="-18.5" font-family="Helvetica,sans-Serif" font-size="10.00" fill="#000000">omc_FGraphBuildEnv</text>
<text text-anchor="middle" x="373" y="-7.5" font-family="Helvetica,sans-Serif" font-size="10.00" fill="#000000">_addIterators__helper</text>
</a>
</g>
</g>
<!-- Node82&#45;&gt;Node91 -->
<g id="edge17" class="edge">
<title>Node82&#45;&gt;Node91</title>
<path fill="none" stroke="#191970" d="M246.5341,-57.4987C262.0754,-52.0721 279.8106,-45.943 296,-40.5 302.5341,-38.3032 309.3909,-36.0304 316.2069,-33.7916"/>
<polygon fill="#191970" stroke="#191970" points="317.7053,-36.984 326.1215,-30.5483 315.5289,-30.3309 317.7053,-36.984"/>
</g>
<!-- Node84 -->
<g id="node9" class="node">
<title>Node84</title>
<g id="a_node9"><a xlink:href="../../d2/d0f/_f_node_8c.html#a7bf4bb951c0fff6c3768cc9949676448" target="_top" xlink:title="omc_FNode_childFromNode">
<polygon fill="#ffffff" stroke="#000000" points="487,-107 487,-126 628,-126 628,-107 487,-107"/>
<text text-anchor="middle" x="557.5" y="-114" font-family="Helvetica,sans-Serif" font-size="10.00" fill="#000000">omc_FNode_childFromNode</text>
</a>
</g>
</g>
<!-- Node83&#45;&gt;Node84 -->
<g id="edge9" class="edge">
<title>Node83&#45;&gt;Node84</title>
<path fill="none" stroke="#191970" d="M420.5133,-102.393C437.6974,-104.1626 457.6141,-106.2136 476.8475,-108.1943"/>
<polygon fill="#191970" stroke="#191970" points="476.5189,-111.6789 486.8249,-109.2218 477.2361,-104.7157 476.5189,-111.6789"/>
</g>
<!-- Node88 -->
<g id="node13" class="node">
<title>Node88</title>
<g id="a_node13"><a xlink:href="../../d2/d0f/_f_node_8c.html#ab9dbc34a8a7187057b8c2533b409fae3" target="_top" xlink:title="omc_FNode_fromRef">
<polygon fill="#ffffff" stroke="#000000" points="502.5,-69 502.5,-88 612.5,-88 612.5,-69 502.5,-69"/>
<text text-anchor="middle" x="557.5" y="-76" font-family="Helvetica,sans-Serif" font-size="10.00" fill="#000000">omc_FNode_fromRef</text>
</a>
</g>
</g>
<!-- Node83&#45;&gt;Node88 -->
<g id="edge13" class="edge">
<title>Node83&#45;&gt;Node88</title>
<path fill="none" stroke="#191970" d="M420.5133,-92.607C442.3744,-90.3558 468.6581,-87.649 492.331,-85.2112"/>
<polygon fill="#191970" stroke="#191970" points="492.7074,-88.691 502.2962,-84.1849 491.9903,-81.7278 492.7074,-88.691"/>
</g>
<!-- Node85 -->
<g id="node10" class="node">
<title>Node85</title>
<g id="a_node10"><a xlink:href="../../d2/d0f/_f_node_8c.html#aa3678179506f22ed3f92e3ef17ba350e" target="_top" xlink:title="omc_FNode_children">
<polygon fill="#ffffff" stroke="#000000" points="674,-119 674,-138 783,-138 783,-119 674,-119"/>
<text text-anchor="middle" x="728.5" y="-126" font-family="Helvetica,sans-Serif" font-size="10.00" fill="#000000">omc_FNode_children</text>
</a>
</g>
</g>
<!-- Node84&#45;&gt;Node85 -->
<g id="edge10" class="edge">
<title>Node84&#45;&gt;Node85</title>
<path fill="none" stroke="#191970" d="M628.0395,-121.4501C639.8514,-122.279 652.0565,-123.1355 663.7148,-123.9537"/>
<polygon fill="#191970" stroke="#191970" points="663.5751,-127.4524 673.7957,-124.6611 664.0652,-120.4696 663.5751,-127.4524"/>
</g>
<!-- Node86 -->
<g id="node11" class="node">
<title>Node86</title>
<g id="a_node11"><a xlink:href="../../d2/d08/_f_core_8c.html#ab107186a2eea148b54dfa1236c7dc57f" target="_top" xlink:title="omc_FCore_RefTree_get">
<polygon fill="#ffffff" stroke="#000000" points="665,-81 665,-100 792,-100 792,-81 665,-81"/>
<text text-anchor="middle" x="728.5" y="-88" font-family="Helvetica,sans-Serif" font-size="10.00" fill="#000000">omc_FCore_RefTree_get</text>
</a>
</g>
</g>
<!-- Node84&#45;&gt;Node86 -->
<g id="edge11" class="edge">
<title>Node84&#45;&gt;Node86</title>
<path fill="none" stroke="#191970" d="M620.2031,-106.9662C631.7039,-105.2175 643.7984,-103.3786 655.5681,-101.5891"/>
<polygon fill="#191970" stroke="#191970" points="656.4442,-104.9962 665.8045,-100.0327 655.392,-98.0757 656.4442,-104.9962"/>
</g>
<!-- Node87 -->
<g id="node12" class="node">
<title>Node87</title>
<g id="a_node12"><a xlink:href="../../d2/d08/_f_core_8c.html#a556c8fab7d705963fe0541d94033aa6e" target="_top" xlink:title="omc_FCore_RefTree_keyCompare">
<polygon fill="#ffffff" stroke="#000000" points="828,-81 828,-100 997,-100 997,-81 828,-81"/>
<text text-anchor="middle" x="912.5" y="-88" font-family="Helvetica,sans-Serif" font-size="10.00" fill="#000000">omc_FCore_RefTree_keyCompare</text>
</a>
</g>
</g>
<!-- Node86&#45;&gt;Node87 -->
<g id="edge12" class="edge">
<title>Node86&#45;&gt;Node87</title>
<path fill="none" stroke="#191970" d="M792.08,-90.5C800.3674,-90.5 808.9959,-90.5 817.658,-90.5"/>
<polygon fill="#191970" stroke="#191970" points="817.8237,-94.0001 827.8236,-90.5 817.8236,-87.0001 817.8237,-94.0001"/>
</g>
<!-- Node89&#45;&gt;Node88 -->
<g id="edge15" class="edge">
<title>Node89&#45;&gt;Node88</title>
<path fill="none" stroke="#191970" d="M450.1756,-67.4476C464.1034,-68.8819 478.5023,-70.3647 492.0559,-71.7605"/>
<polygon fill="#191970" stroke="#191970" points="491.9278,-75.2657 502.2338,-72.8086 492.6449,-68.3026 491.9278,-75.2657"/>
</g>
<!-- Node90 -->
<g id="node15" class="node">
<title>Node90</title>
<g id="a_node15"><a xlink:href="../../d2/d57/build_2include_2omc_2c_2meta_2meta__modelica__builtin_8h.html#a56b7e8a835b2d388f5984ca7378bc1ec" target="_top" xlink:title="listAppend">
<polygon fill="#ffffff" stroke="#000000" points="526.5,-31 526.5,-50 588.5,-50 588.5,-31 526.5,-31"/>
<text text-anchor="middle" x="557.5" y="-38" font-family="Helvetica,sans-Serif" font-size="10.00" fill="#000000">listAppend</text>
</a>
</g>
</g>
<!-- Node89&#45;&gt;Node90 -->
<g id="edge16" class="edge">
<title>Node89&#45;&gt;Node90</title>
<path fill="none" stroke="#191970" d="M450.1756,-51.5524C472.7752,-49.225 496.6155,-46.7699 516.0715,-44.7663"/>
<polygon fill="#191970" stroke="#191970" points="516.5153,-48.2392 526.1041,-43.7332 515.7982,-41.2761 516.5153,-48.2392"/>
</g>
</g>
</svg>
