<?xml version="1.0" encoding="UTF-8" standalone="no"?>
<!DOCTYPE svg PUBLIC "-//W3C//DTD SVG 1.1//EN"
 "http://www.w3.org/Graphics/SVG/1.1/DTD/svg11.dtd">
<!-- Generated by graphviz version 2.40.1 (20161225.0304)
 -->
<!-- Title: omc_FGraphBuildEnv_analyseCref Pages: 1 -->
<svg width="557pt" height="96pt"
 viewBox="0.00 0.00 557.00 95.50" xmlns="http://www.w3.org/2000/svg" xmlns:xlink="http://www.w3.org/1999/xlink">
<g id="graph0" class="graph" transform="scale(1 1) rotate(0) translate(4 91.5)">
<title>omc_FGraphBuildEnv_analyseCref</title>
<polygon fill="#ffffff" stroke="transparent" points="-4,4 -4,-91.5 553,-91.5 553,4 -4,4"/>
<!-- Node61 -->
<g id="node1" class="node">
<title>Node61</title>
<polygon fill="#bfbfbf" stroke="#000000" points="0,-17 0,-47 112,-47 112,-17 0,-17"/>
<text text-anchor="start" x="8" y="-35" font-family="Helvetica,sans-Serif" font-size="10.00" fill="#000000">omc_FGraphBuildEnv</text>
<text text-anchor="middle" x="56" y="-24" font-family="Helvetica,sans-Serif" font-size="10.00" fill="#000000">_analyseCref</text>
</g>
<!-- Node62 -->
<g id="node2" class="node">
<title>Node62</title>
<g id="a_node2"><a xlink:href="../../d2/df6/_f_graph_build_env_8c.html#ab114d234b4169e073a982f173c4a125b" target="_top" xlink:title="omc_FGraphBuildEnv\l_mkCrefNode">
<polygon fill="#ffffff" stroke="#000000" points="148,-39 148,-69 260,-69 260,-39 148,-39"/>
<text text-anchor="start" x="156" y="-57" font-family="Helvetica,sans-Serif" font-size="10.00" fill="#000000">omc_FGraphBuildEnv</text>
<text text-anchor="middle" x="204" y="-46" font-family="Helvetica,sans-Serif" font-size="10.00" fill="#000000">_mkCrefNode</text>
</a>
</g>
</g>
<!-- Node61&#45;&gt;Node62 -->
<g id="edge1" class="edge">
<title>Node61&#45;&gt;Node62</title>
<path fill="none" stroke="#191970" d="M112.3747,-40.38C120.712,-41.6194 129.3663,-42.9058 137.8799,-44.1713"/>
<polygon fill="#191970" stroke="#191970" points="137.3761,-47.6348 147.7821,-45.6433 138.4054,-40.7109 137.3761,-47.6348"/>
</g>
<!-- Node65 -->
<g id="node5" class="node">
<title>Node65</title>
<g id="a_node5"><a xlink:href="../../d1/dd1/3rd_party_2gc_2include_2gc_8h.html#acacfa47efcc44a29f7bb7d98f2a000f8" target="_top" xlink:title="void">
<polygon fill="#ffffff" stroke="#000000" points="186.5,-.5 186.5,-19.5 221.5,-19.5 221.5,-.5 186.5,-.5"/>
<text text-anchor="middle" x="204" y="-7.5" font-family="Helvetica,sans-Serif" font-size="10.00" fill="#000000">void</text>
</a>
</g>
</g>
<!-- Node61&#45;&gt;Node65 -->
<g id="edge5" class="edge">
<title>Node61&#45;&gt;Node65</title>
<path fill="none" stroke="#191970" d="M112.3747,-23.62C134.2603,-20.3667 158.3298,-16.7888 176.3051,-14.1168"/>
<polygon fill="#191970" stroke="#191970" points="177.0017,-17.5518 186.3784,-12.6194 175.9724,-10.6279 177.0017,-17.5518"/>
</g>
<!-- Node63 -->
<g id="node3" class="node">
<title>Node63</title>
<g id="a_node3"><a xlink:href="../../d0/d78/_absyn_8c.html#a1aefd725196f1d164e9b91c91a99839d" target="_top" xlink:title="omc_Absyn_printComponent\lRefStr">
<polygon fill="#ffffff" stroke="#000000" points="296,-39 296,-69 439,-69 439,-39 296,-39"/>
<text text-anchor="start" x="304" y="-57" font-family="Helvetica,sans-Serif" font-size="10.00" fill="#000000">omc_Absyn_printComponent</text>
<text text-anchor="middle" x="367.5" y="-46" font-family="Helvetica,sans-Serif" font-size="10.00" fill="#000000">RefStr</text>
</a>
</g>
</g>
<!-- Node62&#45;&gt;Node63 -->
<g id="edge2" class="edge">
<title>Node62&#45;&gt;Node63</title>
<path fill="none" stroke="#191970" d="M260.2674,-54C268.5001,-54 277.1159,-54 285.732,-54"/>
<polygon fill="#191970" stroke="#191970" points="285.8237,-57.5001 295.8237,-54 285.8237,-50.5001 285.8237,-57.5001"/>
</g>
<!-- Node63&#45;&gt;Node63 -->
<g id="edge3" class="edge">
<title>Node63&#45;&gt;Node63</title>
<path fill="none" stroke="#191970" d="M342.405,-69.159C336.3538,-78.5566 344.7188,-87.5 367.5,-87.5 381.3823,-87.5 389.9113,-84.179 393.0871,-79.4579"/>
<polygon fill="#191970" stroke="#191970" points="396.5683,-78.9805 392.595,-69.159 389.5763,-79.3147 396.5683,-78.9805"/>
</g>
<!-- Node64 -->
<g id="node4" class="node">
<title>Node64</title>
<g id="a_node4"><a xlink:href="../../d7/deb/build_2include_2omc_2c_2util_2modelica__string_8c.html#a751007abc59e9ca7978f2af10a0c814f" target="_top" xlink:title="stringAppend">
<polygon fill="#ffffff" stroke="#000000" points="475,-44.5 475,-63.5 549,-63.5 549,-44.5 475,-44.5"/>
<text text-anchor="middle" x="512" y="-51.5" font-family="Helvetica,sans-Serif" font-size="10.00" fill="#000000">stringAppend</text>
</a>
</g>
</g>
<!-- Node63&#45;&gt;Node64 -->
<g id="edge4" class="edge">
<title>Node63&#45;&gt;Node64</title>
<path fill="none" stroke="#191970" d="M439.3267,-54C447.9924,-54 456.6663,-54 464.8496,-54"/>
<polygon fill="#191970" stroke="#191970" points="464.9153,-57.5001 474.9152,-54 464.9152,-50.5001 464.9153,-57.5001"/>
</g>
</g>
</svg>
