<?xml version="1.0" encoding="UTF-8" standalone="no"?>
<!DOCTYPE svg PUBLIC "-//W3C//DTD SVG 1.1//EN"
 "http://www.w3.org/Graphics/SVG/1.1/DTD/svg11.dtd">
<!-- Generated by graphviz version 2.40.1 (20161225.0304)
 -->
<!-- Title: ML_Operator_BlkMatInsert Pages: 1 -->
<svg width="335pt" height="142pt"
 viewBox="0.00 0.00 335.00 142.00" xmlns="http://www.w3.org/2000/svg" xmlns:xlink="http://www.w3.org/1999/xlink">
<g id="graph0" class="graph" transform="scale(1 1) rotate(0) translate(4 138)">
<title>ML_Operator_BlkMatInsert</title>
<polygon fill="#ffffff" stroke="transparent" points="-4,4 -4,-138 331,-138 331,4 -4,4"/>
<!-- Node406 -->
<g id="node1" class="node">
<title>Node406</title>
<polygon fill="#bfbfbf" stroke="#000000" points="0,-76.5 0,-95.5 134,-95.5 134,-76.5 0,-76.5"/>
<text text-anchor="middle" x="67" y="-83.5" font-family="Helvetica,sans-Serif" font-size="10.00" fill="#000000">ML_Operator_BlkMatInsert</text>
</g>
<!-- Node407 -->
<g id="node2" class="node">
<title>Node407</title>
<g id="a_node2"><a xlink:href="../../da/d6c/group__jm__vector.html#gaac2916bbf5bdc0c66a10d0bd32c9134b" target="_top" xlink:title="if">
<polygon fill="#ffffff" stroke="#000000" points="190,-114.5 190,-133.5 219,-133.5 219,-114.5 190,-114.5"/>
<text text-anchor="middle" x="204.5" y="-121.5" font-family="Helvetica,sans-Serif" font-size="10.00" fill="#000000">if</text>
</a>
</g>
</g>
<!-- Node406&#45;&gt;Node407 -->
<g id="edge1" class="edge">
<title>Node406&#45;&gt;Node407</title>
<path fill="none" stroke="#191970" d="M101.6971,-95.589C126.1733,-102.3533 158.3535,-111.2468 180.1415,-117.2682"/>
<polygon fill="#191970" stroke="#191970" points="179.3523,-120.6812 189.9234,-119.9716 181.217,-113.9342 179.3523,-120.6812"/>
</g>
<!-- Node408 -->
<g id="node3" class="node">
<title>Node408</title>
<g id="a_node3"><a xlink:href="../../d6/de2/ml__utils_8c.html#a84a03c2d5c462ed7c0de12bc3384d576" target="_top" xlink:title="pr_error">
<polygon fill="#ffffff" stroke="#000000" points="179.5,-76.5 179.5,-95.5 229.5,-95.5 229.5,-76.5 179.5,-76.5"/>
<text text-anchor="middle" x="204.5" y="-83.5" font-family="Helvetica,sans-Serif" font-size="10.00" fill="#000000">pr_error</text>
</a>
</g>
</g>
<!-- Node406&#45;&gt;Node408 -->
<g id="edge2" class="edge">
<title>Node406&#45;&gt;Node408</title>
<path fill="none" stroke="#191970" d="M134.1388,-86C146.2051,-86 158.3376,-86 169.0484,-86"/>
<polygon fill="#191970" stroke="#191970" points="169.2304,-89.5001 179.2303,-86 169.2303,-82.5001 169.2304,-89.5001"/>
</g>
<!-- Node410 -->
<g id="node5" class="node">
<title>Node410</title>
<g id="a_node5"><a xlink:href="../../d8/d08/ml__memory_8c.html#ab87b354d6e82cccbd10c498870d74c6b" target="_top" xlink:title="ML_allocate">
<polygon fill="#ffffff" stroke="#000000" points="170,-38.5 170,-57.5 239,-57.5 239,-38.5 170,-38.5"/>
<text text-anchor="middle" x="204.5" y="-45.5" font-family="Helvetica,sans-Serif" font-size="10.00" fill="#000000">ML_allocate</text>
</a>
</g>
</g>
<!-- Node406&#45;&gt;Node410 -->
<g id="edge4" class="edge">
<title>Node406&#45;&gt;Node410</title>
<path fill="none" stroke="#191970" d="M101.6971,-76.411C119.3656,-71.5281 141.0485,-65.5357 159.939,-60.315"/>
<polygon fill="#191970" stroke="#191970" points="161.1077,-63.6233 169.814,-57.5859 159.243,-56.8762 161.1077,-63.6233"/>
</g>
<!-- Node409 -->
<g id="node4" class="node">
<title>Node409</title>
<g id="a_node4"><a xlink:href="../../d4/d98/g_09_09malloc_8c.html#a49f789e614e57e410f598885b800c2df" target="_top" xlink:title="fprintf">
<polygon fill="#ffffff" stroke="#000000" points="280.5,-76.5 280.5,-95.5 321.5,-95.5 321.5,-76.5 280.5,-76.5"/>
<text text-anchor="middle" x="301" y="-83.5" font-family="Helvetica,sans-Serif" font-size="10.00" fill="#000000">fprintf</text>
</a>
</g>
</g>
<!-- Node408&#45;&gt;Node409 -->
<g id="edge3" class="edge">
<title>Node408&#45;&gt;Node409</title>
<path fill="none" stroke="#191970" d="M229.6023,-86C242.0287,-86 257.1394,-86 270.2543,-86"/>
<polygon fill="#191970" stroke="#191970" points="270.2548,-89.5001 280.2548,-86 270.2548,-82.5001 270.2548,-89.5001"/>
</g>
<!-- Node411 -->
<g id="node6" class="node">
<title>Node411</title>
<g id="a_node6"><a xlink:href="../../dc/ddc/3rd_party_2flex-2_85_835_2parse_8c.html#a5faf6a2d99f50a4655dd390199a8db7b" target="_top" xlink:title="malloc">
<polygon fill="#ffffff" stroke="#000000" points="278.5,-38.5 278.5,-57.5 323.5,-57.5 323.5,-38.5 278.5,-38.5"/>
<text text-anchor="middle" x="301" y="-45.5" font-family="Helvetica,sans-Serif" font-size="10.00" fill="#000000">malloc</text>
</a>
</g>
</g>
<!-- Node410&#45;&gt;Node411 -->
<g id="edge5" class="edge">
<title>Node410&#45;&gt;Node411</title>
<path fill="none" stroke="#191970" d="M239.0661,-48C248.5752,-48 258.8572,-48 268.2599,-48"/>
<polygon fill="#191970" stroke="#191970" points="268.4141,-51.5001 278.4141,-48 268.414,-44.5001 268.4141,-51.5001"/>
</g>
<!-- Node412 -->
<g id="node7" class="node">
<title>Node412</title>
<g id="a_node7"><a xlink:href="../../da/d6c/ml__aztec__utils_8c.html#a7db311c960b81177df79b7e832fc86ca" target="_top" xlink:title="ML_free">
<polygon fill="#ffffff" stroke="#000000" points="275,-.5 275,-19.5 327,-19.5 327,-.5 275,-.5"/>
<text text-anchor="middle" x="301" y="-7.5" font-family="Helvetica,sans-Serif" font-size="10.00" fill="#000000">ML_free</text>
</a>
</g>
</g>
<!-- Node410&#45;&gt;Node412 -->
<g id="edge6" class="edge">
<title>Node410&#45;&gt;Node412</title>
<path fill="none" stroke="#191970" d="M228.851,-38.411C240.5082,-33.8206 254.6554,-28.2497 267.3235,-23.2612"/>
<polygon fill="#191970" stroke="#191970" points="268.6346,-26.5066 276.6568,-19.5859 266.0698,-19.9934 268.6346,-26.5066"/>
</g>
</g>
</svg>
