<?xml version="1.0" encoding="UTF-8" standalone="no"?>
<!DOCTYPE svg PUBLIC "-//W3C//DTD SVG 1.1//EN"
 "http://www.w3.org/Graphics/SVG/1.1/DTD/svg11.dtd">
<!-- Generated by graphviz version 2.40.1 (20161225.0304)
 -->
<!-- Title: ML_Gen_Restrictor_TransP Pages: 1 -->
<svg width="920pt" height="674pt"
 viewBox="0.00 0.00 920.00 674.00" xmlns="http://www.w3.org/2000/svg" xmlns:xlink="http://www.w3.org/1999/xlink">
<g id="graph0" class="graph" transform="scale(1 1) rotate(0) translate(4 670)">
<title>ML_Gen_Restrictor_TransP</title>
<polygon fill="#ffffff" stroke="transparent" points="-4,4 -4,-670 916,-670 916,4 -4,4"/>
<!-- Node254 -->
<g id="node1" class="node">
<title>Node254</title>
<polygon fill="#bfbfbf" stroke="#000000" points="0,-323.5 0,-342.5 138,-342.5 138,-323.5 0,-323.5"/>
<text text-anchor="middle" x="69" y="-330.5" font-family="Helvetica,sans-Serif" font-size="10.00" fill="#000000">ML_Gen_Restrictor_TransP</text>
</g>
<!-- Node255 -->
<g id="node2" class="node">
<title>Node255</title>
<g id="a_node2"><a xlink:href="../../d1/da9/ml__comminfoop_8c.html#a25cef348c6124167ce17f935bcf8f995" target="_top" xlink:title="ML_CommInfoOP_Get_Nneighbors">
<polygon fill="#ffffff" stroke="#000000" points="174,-646.5 174,-665.5 345,-665.5 345,-646.5 174,-646.5"/>
<text text-anchor="middle" x="259.5" y="-653.5" font-family="Helvetica,sans-Serif" font-size="10.00" fill="#000000">ML_CommInfoOP_Get_Nneighbors</text>
</a>
</g>
</g>
<!-- Node254&#45;&gt;Node255 -->
<g id="edge1" class="edge">
<title>Node254&#45;&gt;Node255</title>
<path fill="none" stroke="#191970" d="M70.9818,-342.503C80.9298,-389.3237 126.8131,-594.9032 174,-637 175.7516,-638.5627 177.603,-640.006 179.5355,-641.3387"/>
<polygon fill="#191970" stroke="#191970" points="178.0624,-644.5297 188.4725,-646.4999 181.5632,-638.4679 178.0624,-644.5297"/>
</g>
<!-- Node256 -->
<g id="node3" class="node">
<title>Node256</title>
<g id="a_node3"><a xlink:href="../../d1/da9/ml__comminfoop_8c.html#ab7e315e7a31febfebcfe56df61d4f92c" target="_top" xlink:title="ML_CommInfoOP_Get_neighbors">
<polygon fill="#ffffff" stroke="#000000" points="177.5,-361.5 177.5,-380.5 341.5,-380.5 341.5,-361.5 177.5,-361.5"/>
<text text-anchor="middle" x="259.5" y="-368.5" font-family="Helvetica,sans-Serif" font-size="10.00" fill="#000000">ML_CommInfoOP_Get_neighbors</text>
</a>
</g>
</g>
<!-- Node254&#45;&gt;Node256 -->
<g id="edge2" class="edge">
<title>Node254&#45;&gt;Node256</title>
<path fill="none" stroke="#191970" d="M117.0712,-342.589C142.7759,-347.7165 174.6134,-354.0672 201.6642,-359.4632"/>
<polygon fill="#191970" stroke="#191970" points="201.283,-362.956 211.7745,-361.4799 202.6524,-356.0913 201.283,-362.956"/>
</g>
<!-- Node257 -->
<g id="node4" class="node">
<title>Node257</title>
<g id="a_node4"><a xlink:href="../../d8/d08/ml__memory_8c.html#ab87b354d6e82cccbd10c498870d74c6b" target="_top" xlink:title="ML_allocate">
<polygon fill="#ffffff" stroke="#000000" points="625,-494.5 625,-513.5 694,-513.5 694,-494.5 625,-494.5"/>
<text text-anchor="middle" x="659.5" y="-501.5" font-family="Helvetica,sans-Serif" font-size="10.00" fill="#000000">ML_allocate</text>
</a>
</g>
</g>
<!-- Node254&#45;&gt;Node257 -->
<g id="edge10" class="edge">
<title>Node254&#45;&gt;Node257</title>
<path fill="none" stroke="#191970" d="M72.8512,-342.677C83.9235,-369.0359 118.6398,-442.1269 174,-472 249.2842,-512.6243 509.3526,-508.997 614.6812,-505.7108"/>
<polygon fill="#191970" stroke="#191970" points="615.0913,-509.1994 624.9719,-505.3753 614.8631,-502.2031 615.0913,-509.1994"/>
</g>
<!-- Node259 -->
<g id="node6" class="node">
<title>Node259</title>
<g id="a_node6"><a xlink:href="../../da/d6c/ml__aztec__utils_8c.html#a7db311c960b81177df79b7e832fc86ca" target="_top" xlink:title="ML_free">
<polygon fill="#ffffff" stroke="#000000" points="816,-361.5 816,-380.5 868,-380.5 868,-361.5 816,-361.5"/>
<text text-anchor="middle" x="842" y="-368.5" font-family="Helvetica,sans-Serif" font-size="10.00" fill="#000000">ML_free</text>
</a>
</g>
</g>
<!-- Node254&#45;&gt;Node259 -->
<g id="edge15" class="edge">
<title>Node254&#45;&gt;Node259</title>
<path fill="none" stroke="#191970" d="M81.6998,-342.6586C100.6035,-356.3642 137.8129,-380.8111 174,-390 408.5909,-449.569 704.4457,-399.4336 805.9281,-378.8339"/>
<polygon fill="#191970" stroke="#191970" points="806.8742,-382.2125 815.9607,-376.764 805.4597,-375.3569 806.8742,-382.2125"/>
</g>
<!-- Node260 -->
<g id="node7" class="node">
<title>Node260</title>
<g id="a_node7"><a xlink:href="../../d6/de2/ml__utils_8c.html#a84a03c2d5c462ed7c0de12bc3384d576" target="_top" xlink:title="pr_error">
<polygon fill="#ffffff" stroke="#000000" points="439,-342.5 439,-361.5 489,-361.5 489,-342.5 439,-342.5"/>
<text text-anchor="middle" x="464" y="-349.5" font-family="Helvetica,sans-Serif" font-size="10.00" fill="#000000">pr_error</text>
</a>
</g>
</g>
<!-- Node254&#45;&gt;Node260 -->
<g id="edge23" class="edge">
<title>Node254&#45;&gt;Node260</title>
<path fill="none" stroke="#191970" d="M138.2558,-336.3313C222.9303,-340.4042 363.0127,-347.1424 428.3673,-350.286"/>
<polygon fill="#191970" stroke="#191970" points="428.4083,-353.7919 438.5649,-350.7765 428.7446,-346.8 428.4083,-353.7919"/>
</g>
<!-- Node262 -->
<g id="node9" class="node">
<title>Node262</title>
<g id="a_node9"><a xlink:href="../../d1/da9/ml__comminfoop_8c.html#a2ce8d1bb74c5d417d9289e8cf8cb2827" target="_top" xlink:title="ML_CommInfoOP_Get_Nrcvlist">
<polygon fill="#ffffff" stroke="#000000" points="182,-152.5 182,-171.5 337,-171.5 337,-152.5 182,-152.5"/>
<text text-anchor="middle" x="259.5" y="-159.5" font-family="Helvetica,sans-Serif" font-size="10.00" fill="#000000">ML_CommInfoOP_Get_Nrcvlist</text>
</a>
</g>
</g>
<!-- Node254&#45;&gt;Node262 -->
<g id="edge8" class="edge">
<title>Node254&#45;&gt;Node262</title>
<path fill="none" stroke="#191970" d="M73.0589,-323.3874C84.6622,-297.0991 120.6095,-223.483 174,-186 180.1593,-181.6758 187.0782,-178.1281 194.2432,-175.218"/>
<polygon fill="#191970" stroke="#191970" points="195.9134,-178.3352 204.1179,-171.6318 193.5238,-171.7556 195.9134,-178.3352"/>
</g>
<!-- Node263 -->
<g id="node10" class="node">
<title>Node263</title>
<g id="a_node10"><a xlink:href="../../d1/da9/ml__comminfoop_8c.html#a890f0287db2558dd69b214b70d5c804f" target="_top" xlink:title="ML_CommInfoOP_Get_Nsendlist">
<polygon fill="#ffffff" stroke="#000000" points="178,-114.5 178,-133.5 341,-133.5 341,-114.5 178,-114.5"/>
<text text-anchor="middle" x="259.5" y="-121.5" font-family="Helvetica,sans-Serif" font-size="10.00" fill="#000000">ML_CommInfoOP_Get_Nsendlist</text>
</a>
</g>
</g>
<!-- Node254&#45;&gt;Node263 -->
<g id="edge9" class="edge">
<title>Node254&#45;&gt;Node263</title>
<path fill="none" stroke="#191970" d="M71.3365,-323.237C79.4366,-291.6234 109.4201,-191.314 174,-143 176.477,-141.1469 179.1002,-139.4683 181.8308,-137.9483"/>
<polygon fill="#191970" stroke="#191970" points="183.3662,-141.0937 190.8693,-133.6134 180.3391,-134.782 183.3662,-141.0937"/>
</g>
<!-- Node264 -->
<g id="node11" class="node">
<title>Node264</title>
<g id="a_node11"><a xlink:href="../../d1/da9/ml__comminfoop_8c.html#a90a2d898b28ee1754a68fab0f0d58503" target="_top" xlink:title="ML_CommInfoOP_Set_neighbors">
<polygon fill="#ffffff" stroke="#000000" points="178,-608.5 178,-627.5 341,-627.5 341,-608.5 178,-608.5"/>
<text text-anchor="middle" x="259.5" y="-615.5" font-family="Helvetica,sans-Serif" font-size="10.00" fill="#000000">ML_CommInfoOP_Set_neighbors</text>
</a>
</g>
</g>
<!-- Node254&#45;&gt;Node264 -->
<g id="edge11" class="edge">
<title>Node254&#45;&gt;Node264</title>
<path fill="none" stroke="#191970" d="M69.8718,-342.5172C73.864,-380.4272 93.8183,-522.1017 174,-594 178.4856,-598.0222 183.5941,-601.3757 189.0307,-604.1709"/>
<polygon fill="#191970" stroke="#191970" points="187.8795,-607.4898 198.4379,-608.3674 190.7313,-601.097 187.8795,-607.4898"/>
</g>
<!-- Node266 -->
<g id="node13" class="node">
<title>Node266</title>
<g id="a_node13"><a xlink:href="../../d1/da9/ml__comminfoop_8c.html#a67a78761b73abd34be6371c791363a23" target="_top" xlink:title="ML_CommInfoOP_Get_sendlist">
<polygon fill="#ffffff" stroke="#000000" points="386.5,-570.5 386.5,-589.5 541.5,-589.5 541.5,-570.5 386.5,-570.5"/>
<text text-anchor="middle" x="464" y="-577.5" font-family="Helvetica,sans-Serif" font-size="10.00" fill="#000000">ML_CommInfoOP_Get_sendlist</text>
</a>
</g>
</g>
<!-- Node254&#45;&gt;Node266 -->
<g id="edge16" class="edge">
<title>Node254&#45;&gt;Node266</title>
<path fill="none" stroke="#191970" d="M70.2949,-342.5122C75.5868,-377.3228 98.9799,-498.4775 174,-551 239.4723,-596.838 334.5556,-597.1509 397.7829,-590.6673"/>
<polygon fill="#191970" stroke="#191970" points="398.4835,-594.111 408.0357,-589.5279 397.7103,-587.1539 398.4835,-594.111"/>
</g>
<!-- Node267 -->
<g id="node14" class="node">
<title>Node267</title>
<g id="a_node14"><a xlink:href="../../d1/da9/ml__comminfoop_8c.html#a6f8ee7ba79d4edb0a165f275dba43950" target="_top" xlink:title="ML_CommInfoOP_Get_rcvlist">
<polygon fill="#ffffff" stroke="#000000" points="390,-532.5 390,-551.5 538,-551.5 538,-532.5 390,-532.5"/>
<text text-anchor="middle" x="464" y="-539.5" font-family="Helvetica,sans-Serif" font-size="10.00" fill="#000000">ML_CommInfoOP_Get_rcvlist</text>
</a>
</g>
</g>
<!-- Node254&#45;&gt;Node267 -->
<g id="edge18" class="edge">
<title>Node254&#45;&gt;Node267</title>
<path fill="none" stroke="#191970" d="M71.1736,-342.8686C78.7745,-374.761 107.4022,-475.4474 174,-518 242.0506,-561.481 338.1876,-560.0189 400.8029,-552.7871"/>
<polygon fill="#191970" stroke="#191970" points="401.4438,-556.2346 410.938,-551.5324 400.5837,-549.2876 401.4438,-556.2346"/>
</g>
<!-- Node268 -->
<g id="node15" class="node">
<title>Node268</title>
<g id="a_node15"><a xlink:href="../../d1/da9/ml__comminfoop_8c.html#af1c53a07be65fd4c52e4f678bcae1fd3" target="_top" xlink:title="ML_CommInfoOP_Set_exch_info">
<polygon fill="#ffffff" stroke="#000000" points="382.5,-456.5 382.5,-475.5 545.5,-475.5 545.5,-456.5 382.5,-456.5"/>
<text text-anchor="middle" x="464" y="-463.5" font-family="Helvetica,sans-Serif" font-size="10.00" fill="#000000">ML_CommInfoOP_Set_exch_info</text>
</a>
</g>
</g>
<!-- Node254&#45;&gt;Node268 -->
<g id="edge20" class="edge">
<title>Node254&#45;&gt;Node268</title>
<path fill="none" stroke="#191970" d="M74.8509,-342.7947C88.771,-365.0704 126.2917,-419.3455 174,-442 235.5822,-471.2425 312.8205,-476.3249 372.0985,-474.5925"/>
<polygon fill="#191970" stroke="#191970" points="372.3328,-478.0864 382.1995,-474.2268 372.0794,-471.091 372.3328,-478.0864"/>
</g>
<!-- Node269 -->
<g id="node16" class="node">
<title>Node269</title>
<g id="a_node16"><a xlink:href="../../dc/d02/ml__mat__formats_8c.html#a16a37d0cf5d8405c35ae382a506cd353" target="_top" xlink:title="ML_CSR_MSRdata_Destroy">
<polygon fill="#ffffff" stroke="#000000" points="588,-133.5 588,-152.5 731,-152.5 731,-133.5 588,-133.5"/>
<text text-anchor="middle" x="659.5" y="-140.5" font-family="Helvetica,sans-Serif" font-size="10.00" fill="#000000">ML_CSR_MSRdata_Destroy</text>
</a>
</g>
</g>
<!-- Node254&#45;&gt;Node269 -->
<g id="edge24" class="edge">
<title>Node254&#45;&gt;Node269</title>
<path fill="none" stroke="#191970" d="M74.9675,-323.213C89.1329,-300.8765 127.1341,-245.9938 174,-219 241.4635,-180.1424 277.2652,-219.3826 345,-181 365.2406,-169.5304 359.6287,-152.1925 381,-143 455.3732,-111.0097 551.6039,-120.8683 609.2797,-131.5165"/>
<polygon fill="#191970" stroke="#191970" points="608.757,-134.9801 619.2384,-133.4342 610.0806,-128.1064 608.757,-134.9801"/>
</g>
<!-- Node270 -->
<g id="node17" class="node">
<title>Node270</title>
<g id="a_node17"><a xlink:href="../../d5/d1b/ml__struct_8c.html#a3bf259885887b56209f13084b7e9114f" target="_top" xlink:title="ML_Init_Restrictor">
<polygon fill="#ffffff" stroke="#000000" points="211,-76.5 211,-95.5 308,-95.5 308,-76.5 211,-76.5"/>
<text text-anchor="middle" x="259.5" y="-83.5" font-family="Helvetica,sans-Serif" font-size="10.00" fill="#000000">ML_Init_Restrictor</text>
</a>
</g>
</g>
<!-- Node254&#45;&gt;Node270 -->
<g id="edge26" class="edge">
<title>Node254&#45;&gt;Node270</title>
<path fill="none" stroke="#191970" d="M70.3666,-323.3639C75.9091,-288.0475 100.0657,-164.6591 174,-105 181.8103,-98.6977 191.2763,-94.3822 201.0252,-91.4479"/>
<polygon fill="#191970" stroke="#191970" points="201.9922,-94.8134 210.8176,-88.9516 200.2629,-88.0304 201.9922,-94.8134"/>
</g>
<!-- Node273 -->
<g id="node20" class="node">
<title>Node273</title>
<g id="a_node20"><a xlink:href="../../d8/dbe/ml__operator_8c.html#a36dedad8915211167a18341b2bee95b5" target="_top" xlink:title="ML_Operator_Set_ApplyFunc">
<polygon fill="#ffffff" stroke="#000000" points="187,-38.5 187,-57.5 332,-57.5 332,-38.5 187,-38.5"/>
<text text-anchor="middle" x="259.5" y="-45.5" font-family="Helvetica,sans-Serif" font-size="10.00" fill="#000000">ML_Operator_Set_ApplyFunc</text>
</a>
</g>
</g>
<!-- Node254&#45;&gt;Node273 -->
<g id="edge29" class="edge">
<title>Node254&#45;&gt;Node273</title>
<path fill="none" stroke="#191970" d="M69.6723,-323.4388C72.9323,-284.7202 90.5587,-138.2503 174,-67 175.9731,-65.3152 178.0629,-63.7706 180.2452,-62.355"/>
<polygon fill="#191970" stroke="#191970" points="181.988,-65.391 189.0696,-57.5105 178.6194,-59.2549 181.988,-65.391"/>
</g>
<!-- Node274 -->
<g id="node21" class="node">
<title>Node274</title>
<g id="a_node21"><a xlink:href="../../dc/d02/ml__mat__formats_8c.html#a58533214696f2bfe8130ed80ce84e22e" target="_top" xlink:title="CSR_matvec">
<polygon fill="#ffffff" stroke="#000000" points="221.5,-266.5 221.5,-285.5 297.5,-285.5 297.5,-266.5 221.5,-266.5"/>
<text text-anchor="middle" x="259.5" y="-273.5" font-family="Helvetica,sans-Serif" font-size="10.00" fill="#000000">CSR_matvec</text>
</a>
</g>
</g>
<!-- Node254&#45;&gt;Node274 -->
<g id="edge30" class="edge">
<title>Node254&#45;&gt;Node274</title>
<path fill="none" stroke="#191970" d="M100.8854,-323.4595C132.8913,-313.8829 182.366,-299.0795 217.5421,-288.5543"/>
<polygon fill="#191970" stroke="#191970" points="218.9335,-291.7914 227.5106,-285.5716 216.9269,-285.0852 218.9335,-291.7914"/>
</g>
<!-- Node280 -->
<g id="node27" class="node">
<title>Node280</title>
<g id="a_node27"><a xlink:href="../../d8/dbe/ml__operator_8c.html#a49dca38f1d43d7ea7ffb96cbd258e4b8" target="_top" xlink:title="ML_Operator_Set_Getrow">
<polygon fill="#ffffff" stroke="#000000" points="194.5,-.5 194.5,-19.5 324.5,-19.5 324.5,-.5 194.5,-.5"/>
<text text-anchor="middle" x="259.5" y="-7.5" font-family="Helvetica,sans-Serif" font-size="10.00" fill="#000000">ML_Operator_Set_Getrow</text>
</a>
</g>
</g>
<!-- Node254&#45;&gt;Node280 -->
<g id="edge42" class="edge">
<title>Node254&#45;&gt;Node280</title>
<path fill="none" stroke="#191970" d="M70.9818,-323.497C80.9298,-276.6763 126.8131,-71.0968 174,-29 177.4111,-25.9569 181.2001,-23.3664 185.2313,-21.1643"/>
<polygon fill="#191970" stroke="#191970" points="186.7761,-24.3062 194.3902,-16.9389 183.8437,-17.95 186.7761,-24.3062"/>
</g>
<!-- Node282 -->
<g id="node29" class="node">
<title>Node282</title>
<g id="a_node29"><a xlink:href="../../dc/d02/ml__mat__formats_8c.html#af447df1942356f2126cd98332be9a606" target="_top" xlink:title="CSR_getrow">
<polygon fill="#ffffff" stroke="#000000" points="223,-228.5 223,-247.5 296,-247.5 296,-228.5 223,-228.5"/>
<text text-anchor="middle" x="259.5" y="-235.5" font-family="Helvetica,sans-Serif" font-size="10.00" fill="#000000">CSR_getrow</text>
</a>
</g>
</g>
<!-- Node254&#45;&gt;Node282 -->
<g id="edge44" class="edge">
<title>Node254&#45;&gt;Node282</title>
<path fill="none" stroke="#191970" d="M79.1225,-323.4345C96.8749,-307.2051 135.4157,-274.3511 174,-257 186.0371,-251.587 199.7405,-247.6604 212.5966,-244.8346"/>
<polygon fill="#191970" stroke="#191970" points="213.5689,-248.2089 222.6772,-242.7969 212.1819,-241.3476 213.5689,-248.2089"/>
</g>
<!-- Node256&#45;&gt;Node257 -->
<g id="edge3" class="edge">
<title>Node256&#45;&gt;Node257</title>
<path fill="none" stroke="#191970" d="M307.7778,-380.5047C365.6946,-392.6453 465.2153,-415.8699 547,-447 578.1548,-458.8586 612.0436,-476.7728 634.3951,-489.3454"/>
<polygon fill="#191970" stroke="#191970" points="632.8043,-492.4672 643.2263,-494.3734 636.2677,-486.384 632.8043,-492.4672"/>
</g>
<!-- Node256&#45;&gt;Node260 -->
<g id="edge6" class="edge">
<title>Node256&#45;&gt;Node260</title>
<path fill="none" stroke="#191970" d="M341.794,-363.3541C372.1514,-360.5336 404.9507,-357.4862 428.9188,-355.2594"/>
<polygon fill="#191970" stroke="#191970" points="429.3094,-358.7383 438.9427,-354.3281 428.6617,-351.7683 429.3094,-358.7383"/>
</g>
<!-- Node258 -->
<g id="node5" class="node">
<title>Node258</title>
<g id="a_node5"><a xlink:href="../../dc/ddc/3rd_party_2flex-2_85_835_2parse_8c.html#a5faf6a2d99f50a4655dd390199a8db7b" target="_top" xlink:title="malloc">
<polygon fill="#ffffff" stroke="#000000" points="819.5,-494.5 819.5,-513.5 864.5,-513.5 864.5,-494.5 819.5,-494.5"/>
<text text-anchor="middle" x="842" y="-501.5" font-family="Helvetica,sans-Serif" font-size="10.00" fill="#000000">malloc</text>
</a>
</g>
</g>
<!-- Node257&#45;&gt;Node258 -->
<g id="edge4" class="edge">
<title>Node257&#45;&gt;Node258</title>
<path fill="none" stroke="#191970" d="M694.2564,-504C727.3345,-504 776.7411,-504 809.1671,-504"/>
<polygon fill="#191970" stroke="#191970" points="809.4647,-507.5001 819.4647,-504 809.4646,-500.5001 809.4647,-507.5001"/>
</g>
<!-- Node257&#45;&gt;Node259 -->
<g id="edge5" class="edge">
<title>Node257&#45;&gt;Node259</title>
<path fill="none" stroke="#191970" d="M694.1878,-497.0066C707.8703,-493.2795 723.3157,-487.8061 736,-480 775.6682,-455.5877 811.0131,-413.042 829.1477,-388.9597"/>
<polygon fill="#191970" stroke="#191970" points="832.1124,-390.8365 835.2285,-380.7103 826.4777,-386.6831 832.1124,-390.8365"/>
</g>
<!-- Node261 -->
<g id="node8" class="node">
<title>Node261</title>
<g id="a_node8"><a xlink:href="../../d4/d98/g_09_09malloc_8c.html#a49f789e614e57e410f598885b800c2df" target="_top" xlink:title="fprintf">
<polygon fill="#ffffff" stroke="#000000" points="639,-342.5 639,-361.5 680,-361.5 680,-342.5 639,-342.5"/>
<text text-anchor="middle" x="659.5" y="-349.5" font-family="Helvetica,sans-Serif" font-size="10.00" fill="#000000">fprintf</text>
</a>
</g>
</g>
<!-- Node260&#45;&gt;Node261 -->
<g id="edge7" class="edge">
<title>Node260&#45;&gt;Node261</title>
<path fill="none" stroke="#191970" d="M489.158,-352C524.8845,-352 590.2496,-352 628.789,-352"/>
<polygon fill="#191970" stroke="#191970" points="628.9009,-355.5001 638.9008,-352 628.9008,-348.5001 628.9009,-355.5001"/>
</g>
<!-- Node264&#45;&gt;Node257 -->
<g id="edge14" class="edge">
<title>Node264&#45;&gt;Node257</title>
<path fill="none" stroke="#191970" d="M312.6604,-627.534C384.087,-639.3233 506.7278,-655.6823 547,-637 598.0219,-613.3309 634.2849,-553.8595 650.3056,-523.0961"/>
<polygon fill="#191970" stroke="#191970" points="653.5861,-524.3631 654.9547,-513.8571 647.3332,-521.2166 653.5861,-524.3631"/>
</g>
<!-- Node265 -->
<g id="node12" class="node">
<title>Node265</title>
<g id="a_node12"><a xlink:href="../../d1/da9/ml__comminfoop_8c.html#a2356cfac70c23c3898fd629386ce3851" target="_top" xlink:title="ML_CommInfoOP_Create">
<polygon fill="#ffffff" stroke="#000000" points="399,-608.5 399,-627.5 529,-627.5 529,-608.5 399,-608.5"/>
<text text-anchor="middle" x="464" y="-615.5" font-family="Helvetica,sans-Serif" font-size="10.00" fill="#000000">ML_CommInfoOP_Create</text>
</a>
</g>
</g>
<!-- Node264&#45;&gt;Node265 -->
<g id="edge12" class="edge">
<title>Node264&#45;&gt;Node265</title>
<path fill="none" stroke="#191970" d="M341.2055,-618C356.9025,-618 373.2732,-618 388.7544,-618"/>
<polygon fill="#191970" stroke="#191970" points="388.7833,-621.5001 398.7832,-618 388.7832,-614.5001 388.7833,-621.5001"/>
</g>
<!-- Node265&#45;&gt;Node257 -->
<g id="edge13" class="edge">
<title>Node265&#45;&gt;Node257</title>
<path fill="none" stroke="#191970" d="M521.9443,-608.4848C530.5824,-606.0062 539.1972,-602.8966 547,-599 586.748,-579.1508 624.3775,-542.4674 644.4453,-520.9555"/>
<polygon fill="#191970" stroke="#191970" points="647.0789,-523.262 651.2444,-513.5204 641.9131,-518.5381 647.0789,-523.262"/>
</g>
<!-- Node266&#45;&gt;Node257 -->
<g id="edge17" class="edge">
<title>Node266&#45;&gt;Node257</title>
<path fill="none" stroke="#191970" d="M514.6056,-570.4858C525.4379,-567.8772 536.713,-564.7201 547,-561 578.5286,-549.5981 612.5898,-531.4429 634.8736,-518.6926"/>
<polygon fill="#191970" stroke="#191970" points="636.7677,-521.6402 643.6611,-513.5946 633.255,-515.5854 636.7677,-521.6402"/>
</g>
<!-- Node267&#45;&gt;Node257 -->
<g id="edge19" class="edge">
<title>Node267&#45;&gt;Node257</title>
<path fill="none" stroke="#191970" d="M513.0806,-532.46C544.3794,-526.3764 584.616,-518.5555 614.9867,-512.6522"/>
<polygon fill="#191970" stroke="#191970" points="615.7325,-516.0728 624.881,-510.729 614.3968,-509.2014 615.7325,-516.0728"/>
</g>
<!-- Node268&#45;&gt;Node257 -->
<g id="edge21" class="edge">
<title>Node268&#45;&gt;Node257</title>
<path fill="none" stroke="#191970" d="M513.0806,-475.54C544.3794,-481.6236 584.616,-489.4445 614.9867,-495.3478"/>
<polygon fill="#191970" stroke="#191970" points="614.3968,-498.7986 624.881,-497.271 615.7325,-491.9272 614.3968,-498.7986"/>
</g>
<!-- Node268&#45;&gt;Node259 -->
<g id="edge22" class="edge">
<title>Node268&#45;&gt;Node259</title>
<path fill="none" stroke="#191970" d="M545.6749,-469.2691C600.8916,-468.9769 674.6406,-463.6424 736,-442 770.1784,-429.9447 803.9696,-404.2946 823.9058,-387.3531"/>
<polygon fill="#191970" stroke="#191970" points="826.316,-389.8954 831.5623,-380.6907 821.721,-384.6147 826.316,-389.8954"/>
</g>
<!-- Node269&#45;&gt;Node259 -->
<g id="edge25" class="edge">
<title>Node269&#45;&gt;Node259</title>
<path fill="none" stroke="#191970" d="M688.5542,-152.6203C704.0291,-158.8501 722.5826,-168.2098 736,-181 789.003,-231.5254 822.5178,-314.4866 835.6648,-351.7829"/>
<polygon fill="#191970" stroke="#191970" points="832.4126,-353.0896 838.9618,-361.4178 839.0355,-350.8232 832.4126,-353.0896"/>
</g>
<!-- Node271 -->
<g id="node18" class="node">
<title>Node271</title>
<g id="a_node18"><a xlink:href="../../d8/dbe/ml__operator_8c.html#a8a95d1b3346b7c47a9f845928fef489a" target="_top" xlink:title="ML_Operator_Set_1Levels">
<polygon fill="#ffffff" stroke="#000000" points="398,-76.5 398,-95.5 530,-95.5 530,-76.5 398,-76.5"/>
<text text-anchor="middle" x="464" y="-83.5" font-family="Helvetica,sans-Serif" font-size="10.00" fill="#000000">ML_Operator_Set_1Levels</text>
</a>
</g>
</g>
<!-- Node270&#45;&gt;Node271 -->
<g id="edge27" class="edge">
<title>Node270&#45;&gt;Node271</title>
<path fill="none" stroke="#191970" d="M308.223,-86C332.0025,-86 361.1611,-86 387.794,-86"/>
<polygon fill="#191970" stroke="#191970" points="387.8612,-89.5001 397.8612,-86 387.8612,-82.5001 387.8612,-89.5001"/>
</g>
<!-- Node272 -->
<g id="node19" class="node">
<title>Node272</title>
<g id="a_node19"><a xlink:href="../../d8/dbe/ml__operator_8c.html#a22502cff00883df2ab93aa0ef476fd72" target="_top" xlink:title="ML_Operator_Set_ApplyFuncData">
<polygon fill="#ffffff" stroke="#000000" points="381,-38.5 381,-57.5 547,-57.5 547,-38.5 381,-38.5"/>
<text text-anchor="middle" x="464" y="-45.5" font-family="Helvetica,sans-Serif" font-size="10.00" fill="#000000">ML_Operator_Set_ApplyFuncData</text>
</a>
</g>
</g>
<!-- Node270&#45;&gt;Node272 -->
<g id="edge28" class="edge">
<title>Node270&#45;&gt;Node272</title>
<path fill="none" stroke="#191970" d="M308.223,-76.9463C336.5624,-71.6803 372.5415,-64.9947 402.7808,-59.3757"/>
<polygon fill="#191970" stroke="#191970" points="403.6042,-62.7827 412.7964,-57.5146 402.3253,-55.9005 403.6042,-62.7827"/>
</g>
<!-- Node274&#45;&gt;Node257 -->
<g id="edge32" class="edge">
<title>Node274&#45;&gt;Node257</title>
<path fill="none" stroke="#191970" d="M297.7508,-281.8967C371.1794,-293.4603 526.4721,-319.1867 547,-333 576.3537,-352.7522 628.108,-445.2355 649.6554,-485.3542"/>
<polygon fill="#191970" stroke="#191970" points="646.6579,-487.1716 654.4507,-494.3495 652.835,-483.8786 646.6579,-487.1716"/>
</g>
<!-- Node274&#45;&gt;Node259 -->
<g id="edge41" class="edge">
<title>Node274&#45;&gt;Node259</title>
<path fill="none" stroke="#191970" d="M297.6267,-268.4821C321.4775,-264.1669 352.9026,-259.1836 381,-257 538.3034,-244.7748 591.3537,-193.982 736,-257 780.7945,-276.5156 815.1877,-325.3259 831.5289,-352.319"/>
<polygon fill="#191970" stroke="#191970" points="828.6452,-354.321 836.7184,-361.182 834.6859,-350.784 828.6452,-354.321"/>
</g>
<!-- Node274&#45;&gt;Node260 -->
<g id="edge33" class="edge">
<title>Node274&#45;&gt;Node260</title>
<path fill="none" stroke="#191970" d="M279.8316,-285.6145C303.7166,-296.6944 344.6979,-315.0385 381,-328 396.4951,-333.5325 413.9494,-338.73 428.8393,-342.8639"/>
<polygon fill="#191970" stroke="#191970" points="428.114,-346.2938 438.6825,-345.547 429.9549,-339.5402 428.114,-346.2938"/>
</g>
<!-- Node275 -->
<g id="node22" class="node">
<title>Node275</title>
<g id="a_node22"><a xlink:href="../../da/d6c/group__jm__vector.html#gaac2916bbf5bdc0c66a10d0bd32c9134b" target="_top" xlink:title="if">
<polygon fill="#ffffff" stroke="#000000" points="449.5,-152.5 449.5,-171.5 478.5,-171.5 478.5,-152.5 449.5,-152.5"/>
<text text-anchor="middle" x="464" y="-159.5" font-family="Helvetica,sans-Serif" font-size="10.00" fill="#000000">if</text>
</a>
</g>
</g>
<!-- Node274&#45;&gt;Node275 -->
<g id="edge31" class="edge">
<title>Node274&#45;&gt;Node275</title>
<path fill="none" stroke="#191970" d="M297.8844,-274.5797C313.8221,-272.2965 331.6672,-267.3498 345,-257 372.9479,-235.3051 353.7471,-208.5618 381,-186 397.5353,-172.3109 421.5213,-166.4267 439.4605,-163.8991"/>
<polygon fill="#191970" stroke="#191970" points="439.9425,-167.3667 449.4747,-162.742 439.139,-160.413 439.9425,-167.3667"/>
</g>
<!-- Node276 -->
<g id="node23" class="node">
<title>Node276</title>
<g id="a_node23"><a xlink:href="../../d1/da9/ml__comminfoop_8c.html#a54d54632421530b8d261e1d9388c51b8" target="_top" xlink:title="ML_exchange_bdry">
<polygon fill="#ffffff" stroke="#000000" points="413.5,-266.5 413.5,-285.5 514.5,-285.5 514.5,-266.5 413.5,-266.5"/>
<text text-anchor="middle" x="464" y="-273.5" font-family="Helvetica,sans-Serif" font-size="10.00" fill="#000000">ML_exchange_bdry</text>
</a>
</g>
</g>
<!-- Node274&#45;&gt;Node276 -->
<g id="edge34" class="edge">
<title>Node274&#45;&gt;Node276</title>
<path fill="none" stroke="#191970" d="M297.9649,-276C327.5336,-276 368.9512,-276 403.022,-276"/>
<polygon fill="#191970" stroke="#191970" points="403.3387,-279.5001 413.3386,-276 403.3386,-272.5001 403.3387,-279.5001"/>
</g>
<!-- Node277 -->
<g id="node24" class="node">
<title>Node277</title>
<g id="a_node24"><a xlink:href="../../d6/de2/ml__utils_8c.html#ab9104f4e136b1a0627c2b3e23d1a003c" target="_top" xlink:title="GetClock">
<polygon fill="#ffffff" stroke="#000000" points="630.5,-190.5 630.5,-209.5 688.5,-209.5 688.5,-190.5 630.5,-190.5"/>
<text text-anchor="middle" x="659.5" y="-197.5" font-family="Helvetica,sans-Serif" font-size="10.00" fill="#000000">GetClock</text>
</a>
</g>
</g>
<!-- Node274&#45;&gt;Node277 -->
<g id="edge40" class="edge">
<title>Node274&#45;&gt;Node277</title>
<path fill="none" stroke="#191970" d="M297.5847,-271.8999C312.943,-269.1552 330.4358,-264.588 345,-257 364.2492,-246.9711 361.1282,-232.7305 381,-224 460.3074,-189.1569 564.4156,-191.2347 620.1839,-195.6865"/>
<polygon fill="#191970" stroke="#191970" points="620.0796,-199.1905 630.3446,-196.5676 620.6844,-192.2167 620.0796,-199.1905"/>
</g>
<!-- Node276&#45;&gt;Node257 -->
<g id="edge37" class="edge">
<title>Node276&#45;&gt;Node257</title>
<path fill="none" stroke="#191970" d="M514.6426,-283.5827C526.1848,-287.1342 537.7565,-292.3476 547,-300 574.2529,-322.5618 566.174,-339.877 583,-371 605.4662,-412.5556 633.518,-460.3629 648.635,-485.8175"/>
<polygon fill="#191970" stroke="#191970" points="645.6333,-487.6177 653.7567,-494.4192 651.6478,-484.0364 645.6333,-487.6177"/>
</g>
<!-- Node276&#45;&gt;Node259 -->
<g id="edge39" class="edge">
<title>Node276&#45;&gt;Node259</title>
<path fill="none" stroke="#191970" d="M514.6353,-284.4569C569.6419,-294.1421 659.855,-311.4834 736,-333 760.736,-339.9898 788.0251,-349.8237 808.7193,-357.7364"/>
<polygon fill="#191970" stroke="#191970" points="807.7192,-361.1022 818.3085,-361.4456 810.2446,-354.5736 807.7192,-361.1022"/>
</g>
<!-- Node276&#45;&gt;Node277 -->
<g id="edge35" class="edge">
<title>Node276&#45;&gt;Node277</title>
<path fill="none" stroke="#191970" d="M488.7602,-266.3745C523.4276,-252.8977 586.5519,-228.3583 625.5718,-213.1895"/>
<polygon fill="#191970" stroke="#191970" points="626.8885,-216.4328 634.9408,-209.5473 624.3522,-209.9085 626.8885,-216.4328"/>
</g>
<!-- Node279 -->
<g id="node26" class="node">
<title>Node279</title>
<g id="a_node26"><a xlink:href="../../d1/da9/ml__comminfoop_8c.html#a4d86925c1126ff715612eb2e7a0bc6de" target="_top" xlink:title="ML_Comm_Envelope_Get_Tag">
<polygon fill="#ffffff" stroke="#000000" points="583,-266.5 583,-285.5 736,-285.5 736,-266.5 583,-266.5"/>
<text text-anchor="middle" x="659.5" y="-273.5" font-family="Helvetica,sans-Serif" font-size="10.00" fill="#000000">ML_Comm_Envelope_Get_Tag</text>
</a>
</g>
</g>
<!-- Node276&#45;&gt;Node279 -->
<g id="edge38" class="edge">
<title>Node276&#45;&gt;Node279</title>
<path fill="none" stroke="#191970" d="M514.6004,-276C532.4087,-276 552.9626,-276 572.8907,-276"/>
<polygon fill="#191970" stroke="#191970" points="572.9214,-279.5001 582.9214,-276 572.9213,-272.5001 572.9214,-279.5001"/>
</g>
<!-- Node278 -->
<g id="node25" class="node">
<title>Node278</title>
<g id="a_node25"><a xlink:href="../../d6/de2/ml__utils_8c.html#a3eef8dfcae9ecd19bd4d0b8e14239d7b" target="_top" xlink:title="machine_dependent_second">
<polygon fill="#ffffff" stroke="#000000" points="772,-190.5 772,-209.5 912,-209.5 912,-190.5 772,-190.5"/>
<text text-anchor="middle" x="842" y="-197.5" font-family="Helvetica,sans-Serif" font-size="10.00" fill="#000000">machine_dependent_second</text>
</a>
</g>
</g>
<!-- Node277&#45;&gt;Node278 -->
<g id="edge36" class="edge">
<title>Node277&#45;&gt;Node278</title>
<path fill="none" stroke="#191970" d="M688.8218,-200C708.5689,-200 735.6424,-200 761.5399,-200"/>
<polygon fill="#191970" stroke="#191970" points="761.7711,-203.5001 771.7711,-200 761.7711,-196.5001 761.7711,-203.5001"/>
</g>
<!-- Node281 -->
<g id="node28" class="node">
<title>Node281</title>
<g id="a_node28"><a xlink:href="../../d3/dc8/class_teuchos_1_1_comm.html#a346c8703a1ee3cb18cf3c812678cb01c" target="_top" xlink:title="Get the number of processes in the communicator. ">
<polygon fill="#ffffff" stroke="#000000" points="407.5,-.5 407.5,-19.5 520.5,-19.5 520.5,-.5 407.5,-.5"/>
<text text-anchor="middle" x="464" y="-7.5" font-family="Helvetica,sans-Serif" font-size="10.00" fill="#000000">Teuchos::Comm::size</text>
</a>
</g>
</g>
<!-- Node280&#45;&gt;Node281 -->
<g id="edge43" class="edge">
<title>Node280&#45;&gt;Node281</title>
<path fill="none" stroke="#191970" d="M324.7673,-10C347.8812,-10 373.909,-10 397.1524,-10"/>
<polygon fill="#191970" stroke="#191970" points="397.2698,-13.5001 407.2698,-10 397.2698,-6.5001 397.2698,-13.5001"/>
</g>
<!-- Node282&#45;&gt;Node275 -->
<g id="edge45" class="edge">
<title>Node282&#45;&gt;Node275</title>
<path fill="none" stroke="#191970" d="M296.012,-231.0439C311.6183,-227.246 329.7218,-221.71 345,-214 363.0961,-204.868 362.9397,-195.2027 381,-186 399.4186,-176.6147 422.06,-170.379 439.0399,-166.6217"/>
<polygon fill="#191970" stroke="#191970" points="440.1964,-169.9566 449.2794,-164.5023 438.7775,-163.1019 440.1964,-169.9566"/>
</g>
</g>
</svg>
