<?xml version="1.0" encoding="UTF-8" standalone="no"?>
<!DOCTYPE svg PUBLIC "-//W3C//DTD SVG 1.1//EN"
 "http://www.w3.org/Graphics/SVG/1.1/DTD/svg11.dtd">
<!-- Generated by graphviz version 2.40.1 (20161225.0304)
 -->
<!-- Title: boxptr_VisualXML_isVisualizationVar Pages: 1 -->
<svg width="592pt" height="39pt"
 viewBox="0.00 0.00 592.00 39.00" xmlns="http://www.w3.org/2000/svg" xmlns:xlink="http://www.w3.org/1999/xlink">
<g id="graph0" class="graph" transform="scale(1 1) rotate(0) translate(4 35)">
<title>boxptr_VisualXML_isVisualizationVar</title>
<polygon fill="#ffffff" stroke="transparent" points="-4,4 -4,-35 588,-35 588,4 -4,4"/>
<!-- Node48 -->
<g id="node1" class="node">
<title>Node48</title>
<polygon fill="#bfbfbf" stroke="#000000" points="0,-6 0,-25 179,-25 179,-6 0,-6"/>
<text text-anchor="middle" x="89.5" y="-13" font-family="Helvetica,sans-Serif" font-size="10.00" fill="#000000">boxptr_VisualXML_isVisualizationVar</text>
</g>
<!-- Node49 -->
<g id="node2" class="node">
<title>Node49</title>
<g id="a_node2"><a xlink:href="../../d0/d2a/_visual_x_m_l_8c.html#a3388cca3ce631f3933b82d015fa8ac45" target="_top" xlink:title="omc_VisualXML_isVisualizationVar">
<polygon fill="#ffffff" stroke="#000000" points="215,-6 215,-25 386,-25 386,-6 215,-6"/>
<text text-anchor="middle" x="300.5" y="-13" font-family="Helvetica,sans-Serif" font-size="10.00" fill="#000000">omc_VisualXML_isVisualizationVar</text>
</a>
</g>
</g>
<!-- Node48&#45;&gt;Node49 -->
<g id="edge1" class="edge">
<title>Node48&#45;&gt;Node49</title>
<path fill="none" stroke="#191970" d="M179.289,-15.5C187.6619,-15.5 196.17,-15.5 204.5957,-15.5"/>
<polygon fill="#191970" stroke="#191970" points="204.8179,-19.0001 214.8179,-15.5 204.8178,-12.0001 204.8179,-19.0001"/>
</g>
<!-- Node50 -->
<g id="node3" class="node">
<title>Node50</title>
<g id="a_node3"><a xlink:href="../../dc/dd3/_element_source_8c.html#a16dcd5721c7c8d4735559986d524fbfc" target="_top" xlink:title="omc_ElementSource_getElement\lSourceTypes">
<polygon fill="#ffffff" stroke="#000000" points="422,-.5 422,-30.5 584,-30.5 584,-.5 422,-.5"/>
<text text-anchor="start" x="430" y="-18.5" font-family="Helvetica,sans-Serif" font-size="10.00" fill="#000000">omc_ElementSource_getElement</text>
<text text-anchor="middle" x="503" y="-7.5" font-family="Helvetica,sans-Serif" font-size="10.00" fill="#000000">SourceTypes</text>
</a>
</g>
</g>
<!-- Node49&#45;&gt;Node50 -->
<g id="edge2" class="edge">
<title>Node49&#45;&gt;Node50</title>
<path fill="none" stroke="#191970" d="M386.0847,-15.5C394.619,-15.5 403.3054,-15.5 411.8935,-15.5"/>
<polygon fill="#191970" stroke="#191970" points="411.915,-19.0001 421.915,-15.5 411.9149,-12.0001 411.915,-19.0001"/>
</g>
</g>
</svg>
