<?xml version="1.0" encoding="UTF-8" standalone="no"?>
<!DOCTYPE svg PUBLIC "-//W3C//DTD SVG 1.1//EN"
 "http://www.w3.org/Graphics/SVG/1.1/DTD/svg11.dtd">
<!-- Generated by graphviz version 2.40.1 (20161225.0304)
 -->
<!-- Title: omc_VisualXML_visualizationInfoXML Pages: 1 -->
<svg width="1134pt" height="218pt"
 viewBox="0.00 0.00 1134.00 217.50" xmlns="http://www.w3.org/2000/svg" xmlns:xlink="http://www.w3.org/1999/xlink">
<g id="graph0" class="graph" transform="scale(1 1) rotate(0) translate(4 213.5)">
<title>omc_VisualXML_visualizationInfoXML</title>
<polygon fill="#ffffff" stroke="transparent" points="-4,4 -4,-213.5 1130,-213.5 1130,4 -4,4"/>
<!-- Node637 -->
<g id="node1" class="node">
<title>Node637</title>
<polygon fill="#bfbfbf" stroke="#000000" points="0,-71.5 0,-101.5 147,-101.5 147,-71.5 0,-71.5"/>
<text text-anchor="start" x="8" y="-89.5" font-family="Helvetica,sans-Serif" font-size="10.00" fill="#000000">omc_VisualXML_visualization</text>
<text text-anchor="middle" x="73.5" y="-78.5" font-family="Helvetica,sans-Serif" font-size="10.00" fill="#000000">InfoXML</text>
</g>
<!-- Node638 -->
<g id="node2" class="node">
<title>Node638</title>
<g id="a_node2"><a xlink:href="../../d3/dcc/_sim_code_util_8h.html#a1314618b252b21af8b161032738a7651" target="_top" xlink:title="omc_SimCodeUtil_createSimCode">
<polygon fill="#ffffff" stroke="#000000" points="183,-77 183,-96 352,-96 352,-77 183,-77"/>
<text text-anchor="middle" x="267.5" y="-84" font-family="Helvetica,sans-Serif" font-size="10.00" fill="#000000">omc_SimCodeUtil_createSimCode</text>
</a>
</g>
</g>
<!-- Node637&#45;&gt;Node638 -->
<g id="edge1" class="edge">
<title>Node637&#45;&gt;Node638</title>
<path fill="none" stroke="#191970" d="M157.3545,-86.5C165.8151,-86.5 174.4115,-86.5 182.88,-86.5"/>
<polygon fill="#191970" stroke="#191970" points="157.1197,-83.0001 147.1197,-86.5 157.1197,-90.0001 157.1197,-83.0001"/>
</g>
<!-- Node639 -->
<g id="node3" class="node">
<title>Node639</title>
<g id="a_node3"><a xlink:href="../../d5/d90/_hpc_om_sim_code_main_8h.html#a6c5a377bd8998f762595b05f7049fe24" target="_top" xlink:title="omc_HpcOmSimCodeMain\l_createSimCode">
<polygon fill="#ffffff" stroke="#000000" points="392.5,-137.5 392.5,-167.5 528.5,-167.5 528.5,-137.5 392.5,-137.5"/>
<text text-anchor="start" x="400.5" y="-155.5" font-family="Helvetica,sans-Serif" font-size="10.00" fill="#000000">omc_HpcOmSimCodeMain</text>
<text text-anchor="middle" x="460.5" y="-144.5" font-family="Helvetica,sans-Serif" font-size="10.00" fill="#000000">_createSimCode</text>
</a>
</g>
</g>
<!-- Node638&#45;&gt;Node639 -->
<g id="edge2" class="edge">
<title>Node638&#45;&gt;Node639</title>
<path fill="none" stroke="#191970" d="M305.3917,-99.4578C337.2465,-110.3511 382.8165,-125.9347 416.3231,-137.3929"/>
<polygon fill="#191970" stroke="#191970" points="306.1584,-96.021 295.5639,-96.097 303.8934,-102.6445 306.1584,-96.021"/>
</g>
<!-- Node640 -->
<g id="node4" class="node">
<title>Node640</title>
<g id="a_node4"><a xlink:href="../../d9/d4b/_sim_code_main_8c.html#ac470739128f7f03fe0a4c1e8d25a3e2d" target="_top" xlink:title="omc_SimCodeMain_createSimCode">
<polygon fill="#ffffff" stroke="#000000" points="569,-121 569,-140 744,-140 744,-121 569,-121"/>
<text text-anchor="middle" x="656.5" y="-128" font-family="Helvetica,sans-Serif" font-size="10.00" fill="#000000">omc_SimCodeMain_createSimCode</text>
</a>
</g>
</g>
<!-- Node638&#45;&gt;Node640 -->
<g id="edge11" class="edge">
<title>Node638&#45;&gt;Node640</title>
<path fill="none" stroke="#191970" d="M362.0316,-97.1925C426.2218,-104.4531 510.362,-113.9703 572.2575,-120.9713"/>
<polygon fill="#191970" stroke="#191970" points="362.2373,-93.6935 351.9072,-96.0473 361.4504,-100.6492 362.2373,-93.6935"/>
</g>
<!-- Node648 -->
<g id="node12" class="node">
<title>Node648</title>
<g id="a_node12"><a xlink:href="../../d9/d4b/_sim_code_main_8c.html#ad5b764079de95b1558324efd9720b38e" target="_top" xlink:title="omc_SimCodeMain_generate\lModelCodeXML">
<polygon fill="#ffffff" stroke="#000000" points="388,-49.5 388,-79.5 533,-79.5 533,-49.5 388,-49.5"/>
<text text-anchor="start" x="396" y="-67.5" font-family="Helvetica,sans-Serif" font-size="10.00" fill="#000000">omc_SimCodeMain_generate</text>
<text text-anchor="middle" x="460.5" y="-56.5" font-family="Helvetica,sans-Serif" font-size="10.00" fill="#000000">ModelCodeXML</text>
</a>
</g>
</g>
<!-- Node638&#45;&gt;Node648 -->
<g id="edge12" class="edge">
<title>Node638&#45;&gt;Node648</title>
<path fill="none" stroke="#191970" d="M361.1055,-75.8299C370.0565,-74.8096 379.0408,-73.7855 387.7498,-72.7928"/>
<polygon fill="#191970" stroke="#191970" points="360.5693,-72.3683 351.0301,-76.9784 361.3622,-79.3233 360.5693,-72.3683"/>
</g>
<!-- Node650 -->
<g id="node14" class="node">
<title>Node650</title>
<g id="a_node14"><a xlink:href="../../d3/dcc/_sim_code_util_8h.html#a87f12ec8e4c99d4872a209ed70e03305" target="_top" xlink:title="boxptr_SimCodeUtil\l_createSimCode">
<polygon fill="#ffffff" stroke="#000000" points="408.5,-.5 408.5,-30.5 512.5,-30.5 512.5,-.5 408.5,-.5"/>
<text text-anchor="start" x="416.5" y="-18.5" font-family="Helvetica,sans-Serif" font-size="10.00" fill="#000000">boxptr_SimCodeUtil</text>
<text text-anchor="middle" x="460.5" y="-7.5" font-family="Helvetica,sans-Serif" font-size="10.00" fill="#000000">_createSimCode</text>
</a>
</g>
</g>
<!-- Node638&#45;&gt;Node650 -->
<g id="edge14" class="edge">
<title>Node638&#45;&gt;Node650</title>
<path fill="none" stroke="#191970" d="M300.3115,-73.1679C324.4431,-63.4935 358.1059,-50.2697 388,-39.5 396.3574,-36.4892 405.3063,-33.4104 413.9645,-30.5055"/>
<polygon fill="#191970" stroke="#191970" points="298.8853,-69.969 290.9146,-76.9488 301.4983,-76.463 298.8853,-69.969"/>
</g>
<!-- Node639&#45;&gt;Node640 -->
<g id="edge3" class="edge">
<title>Node639&#45;&gt;Node640</title>
<path fill="none" stroke="#191970" d="M538.7624,-143.7154C549.5911,-142.5 560.7553,-141.2469 571.696,-140.0188"/>
<polygon fill="#191970" stroke="#191970" points="538.0484,-140.2735 528.5012,-144.8672 538.8293,-147.2298 538.0484,-140.2735"/>
</g>
<!-- Node641 -->
<g id="node5" class="node">
<title>Node641</title>
<g id="a_node5"><a xlink:href="../../d9/d4b/_sim_code_main_8c.html#aa38c82517245125ff06f548914391a43" target="_top" xlink:title="boxptr_SimCodeMain\l_createSimCode">
<polygon fill="#ffffff" stroke="#000000" points="797.5,-164.5 797.5,-194.5 907.5,-194.5 907.5,-164.5 797.5,-164.5"/>
<text text-anchor="start" x="805.5" y="-182.5" font-family="Helvetica,sans-Serif" font-size="10.00" fill="#000000">boxptr_SimCodeMain</text>
<text text-anchor="middle" x="852.5" y="-171.5" font-family="Helvetica,sans-Serif" font-size="10.00" fill="#000000">_createSimCode</text>
</a>
</g>
</g>
<!-- Node640&#45;&gt;Node641 -->
<g id="edge4" class="edge">
<title>Node640&#45;&gt;Node641</title>
<path fill="none" stroke="#191970" d="M704.7185,-142.5546C732.7357,-149.5589 768.1442,-158.411 797.2774,-165.6944"/>
<polygon fill="#191970" stroke="#191970" points="705.3064,-139.0939 694.7561,-140.064 703.6086,-145.8849 705.3064,-139.0939"/>
</g>
<!-- Node642 -->
<g id="node6" class="node">
<title>Node642</title>
<g id="a_node6"><a xlink:href="../../df/da7/_sim_code_main_8h.html#a4ebae0d0d12267b15510a3f6619a17f3" target="_top" xlink:title="omc_SimCodeMain_generate\lModelCode">
<polygon fill="#ffffff" stroke="#000000" points="780,-115.5 780,-145.5 925,-145.5 925,-115.5 780,-115.5"/>
<text text-anchor="start" x="788" y="-133.5" font-family="Helvetica,sans-Serif" font-size="10.00" fill="#000000">omc_SimCodeMain_generate</text>
<text text-anchor="middle" x="852.5" y="-122.5" font-family="Helvetica,sans-Serif" font-size="10.00" fill="#000000">ModelCode</text>
</a>
</g>
</g>
<!-- Node640&#45;&gt;Node642 -->
<g id="edge5" class="edge">
<title>Node640&#45;&gt;Node642</title>
<path fill="none" stroke="#191970" d="M754.276,-130.5C762.8899,-130.5 771.5061,-130.5 779.8584,-130.5"/>
<polygon fill="#191970" stroke="#191970" points="754.1811,-127.0001 744.1811,-130.5 754.1811,-134.0001 754.1811,-127.0001"/>
</g>
<!-- Node646 -->
<g id="node10" class="node">
<title>Node646</title>
<g id="a_node10"><a xlink:href="../../d9/d4b/_sim_code_main_8c.html#a8d34ec6bc45143b5659bf129aa382713" target="_top" xlink:title="omc_SimCodeMain_generate\lModelCodeFMU">
<polygon fill="#ffffff" stroke="#000000" points="780,-66.5 780,-96.5 925,-96.5 925,-66.5 780,-66.5"/>
<text text-anchor="start" x="788" y="-84.5" font-family="Helvetica,sans-Serif" font-size="10.00" fill="#000000">omc_SimCodeMain_generate</text>
<text text-anchor="middle" x="852.5" y="-73.5" font-family="Helvetica,sans-Serif" font-size="10.00" fill="#000000">ModelCodeFMU</text>
</a>
</g>
</g>
<!-- Node640&#45;&gt;Node646 -->
<g id="edge9" class="edge">
<title>Node640&#45;&gt;Node646</title>
<path fill="none" stroke="#191970" d="M704.5568,-118.4858C731.0401,-111.865 764.1644,-103.5839 792.3521,-96.537"/>
<polygon fill="#191970" stroke="#191970" points="703.6086,-115.1151 694.7561,-120.936 705.3064,-121.9061 703.6086,-115.1151"/>
</g>
<!-- Node643 -->
<g id="node7" class="node">
<title>Node643</title>
<g id="a_node7"><a xlink:href="../../d0/d6a/_compiler_2boot_2build_2main_8c.html#ab7024b3f58beed9694b520bf36072f4c" target="_top" xlink:title="omc_Main_simcodegen">
<polygon fill="#ffffff" stroke="#000000" points="984,-190 984,-209 1103,-209 1103,-190 984,-190"/>
<text text-anchor="middle" x="1043.5" y="-197" font-family="Helvetica,sans-Serif" font-size="10.00" fill="#000000">omc_Main_simcodegen</text>
</a>
</g>
</g>
<!-- Node642&#45;&gt;Node643 -->
<g id="edge6" class="edge">
<title>Node642&#45;&gt;Node643</title>
<path fill="none" stroke="#191970" d="M911.5482,-149.3159C916.1649,-151.2532 920.6996,-153.3181 925,-155.5 942.3716,-164.3138 943.187,-172.6162 961,-180.5 969.6018,-184.307 979.059,-187.3981 988.4062,-189.8931"/>
<polygon fill="#191970" stroke="#191970" points="912.5911,-145.9641 902.0055,-145.5217 910.0048,-152.4688 912.5911,-145.9641"/>
</g>
<!-- Node644 -->
<g id="node8" class="node">
<title>Node644</title>
<g id="a_node8"><a xlink:href="../../db/dd3/_open_t_u_r_n_s_8h.html#abed2ae4cf854648f70bcf2e01cf1e86f" target="_top" xlink:title="omc_OpenTURNS_generateOpen\lTURNSInterface">
<polygon fill="#ffffff" stroke="#000000" points="961,-140.5 961,-170.5 1126,-170.5 1126,-140.5 961,-140.5"/>
<text text-anchor="start" x="969" y="-158.5" font-family="Helvetica,sans-Serif" font-size="10.00" fill="#000000">omc_OpenTURNS_generateOpen</text>
<text text-anchor="middle" x="1043.5" y="-147.5" font-family="Helvetica,sans-Serif" font-size="10.00" fill="#000000">TURNSInterface</text>
</a>
</g>
</g>
<!-- Node642&#45;&gt;Node644 -->
<g id="edge7" class="edge">
<title>Node642&#45;&gt;Node644</title>
<path fill="none" stroke="#191970" d="M935.4114,-141.3523C943.8071,-142.4512 952.335,-143.5674 960.7292,-144.6661"/>
<polygon fill="#191970" stroke="#191970" points="935.6235,-137.8503 925.2538,-140.0227 934.7149,-144.7911 935.6235,-137.8503"/>
</g>
<!-- Node645 -->
<g id="node9" class="node">
<title>Node645</title>
<g id="a_node9"><a xlink:href="../../df/da7/_sim_code_main_8h.html#a3c5404be5c86c5d2ebb147c64bd58577" target="_top" xlink:title="boxptr_SimCodeMain\l_generateModelCode">
<polygon fill="#ffffff" stroke="#000000" points="988.5,-91.5 988.5,-121.5 1098.5,-121.5 1098.5,-91.5 988.5,-91.5"/>
<text text-anchor="start" x="996.5" y="-109.5" font-family="Helvetica,sans-Serif" font-size="10.00" fill="#000000">boxptr_SimCodeMain</text>
<text text-anchor="middle" x="1043.5" y="-98.5" font-family="Helvetica,sans-Serif" font-size="10.00" fill="#000000">_generateModelCode</text>
</a>
</g>
</g>
<!-- Node642&#45;&gt;Node645 -->
<g id="edge8" class="edge">
<title>Node642&#45;&gt;Node645</title>
<path fill="none" stroke="#191970" d="M935.1849,-120.1103C953.2059,-117.8459 971.8469,-115.5035 988.4781,-113.4137"/>
<polygon fill="#191970" stroke="#191970" points="934.7394,-116.6386 925.2538,-121.3582 935.6121,-123.584 934.7394,-116.6386"/>
</g>
<!-- Node647 -->
<g id="node11" class="node">
<title>Node647</title>
<g id="a_node11"><a xlink:href="../../d9/d4b/_sim_code_main_8c.html#acdfc7351ea06bbb3cd54cc8836772e9c" target="_top" xlink:title="boxptr_SimCodeMain\l_generateModelCodeFMU">
<polygon fill="#ffffff" stroke="#000000" points="978,-42.5 978,-72.5 1109,-72.5 1109,-42.5 978,-42.5"/>
<text text-anchor="start" x="986" y="-60.5" font-family="Helvetica,sans-Serif" font-size="10.00" fill="#000000">boxptr_SimCodeMain</text>
<text text-anchor="middle" x="1043.5" y="-49.5" font-family="Helvetica,sans-Serif" font-size="10.00" fill="#000000">_generateModelCodeFMU</text>
</a>
</g>
</g>
<!-- Node646&#45;&gt;Node647 -->
<g id="edge10" class="edge">
<title>Node646&#45;&gt;Node647</title>
<path fill="none" stroke="#191970" d="M935.4869,-71.0723C949.6561,-69.2919 964.1993,-67.4645 977.8396,-65.7505"/>
<polygon fill="#191970" stroke="#191970" points="934.7394,-67.6386 925.2538,-72.3582 935.6121,-74.584 934.7394,-67.6386"/>
</g>
<!-- Node649 -->
<g id="node13" class="node">
<title>Node649</title>
<g id="a_node13"><a xlink:href="../../d9/d4b/_sim_code_main_8c.html#a117a14d65bdd7f6116700e489a0dc692" target="_top" xlink:title="boxptr_SimCodeMain\l_generateModelCodeXML">
<polygon fill="#ffffff" stroke="#000000" points="592,-49.5 592,-79.5 721,-79.5 721,-49.5 592,-49.5"/>
<text text-anchor="start" x="600" y="-67.5" font-family="Helvetica,sans-Serif" font-size="10.00" fill="#000000">boxptr_SimCodeMain</text>
<text text-anchor="middle" x="656.5" y="-56.5" font-family="Helvetica,sans-Serif" font-size="10.00" fill="#000000">_generateModelCodeXML</text>
</a>
</g>
</g>
<!-- Node648&#45;&gt;Node649 -->
<g id="edge13" class="edge">
<title>Node648&#45;&gt;Node649</title>
<path fill="none" stroke="#191970" d="M543.2552,-64.5C559.5433,-64.5 576.4073,-64.5 591.9877,-64.5"/>
<polygon fill="#191970" stroke="#191970" points="543.2047,-61.0001 533.2046,-64.5 543.2046,-68.0001 543.2047,-61.0001"/>
</g>
</g>
</svg>
