<?xml version="1.0" encoding="UTF-8" standalone="no"?>
<!DOCTYPE svg PUBLIC "-//W3C//DTD SVG 1.1//EN"
 "http://www.w3.org/Graphics/SVG/1.1/DTD/svg11.dtd">
<!-- Generated by graphviz version 2.40.1 (20161225.0304)
 -->
<!-- Title: Ipopt::OptionsList::SetNumericValue Pages: 1 -->
<svg width="327pt" height="85pt"
 viewBox="0.00 0.00 327.00 85.00" xmlns="http://www.w3.org/2000/svg" xmlns:xlink="http://www.w3.org/1999/xlink">
<g id="graph0" class="graph" transform="scale(1 1) rotate(0) translate(4 81)">
<title>Ipopt::OptionsList::SetNumericValue</title>
<polygon fill="#ffffff" stroke="transparent" points="-4,4 -4,-81 323,-81 323,4 -4,4"/>
<!-- Node428 -->
<g id="node1" class="node">
<title>Node428</title>
<polygon fill="#bfbfbf" stroke="#000000" points="0,-14 0,-44 99,-44 99,-14 0,-14"/>
<text text-anchor="start" x="8" y="-32" font-family="Helvetica,sans-Serif" font-size="10.00" fill="#000000">Ipopt::OptionsList</text>
<text text-anchor="middle" x="49.5" y="-21" font-family="Helvetica,sans-Serif" font-size="10.00" fill="#000000">::SetNumericValue</text>
</g>
<!-- Node429 -->
<g id="node2" class="node">
<title>Node429</title>
<g id="a_node2"><a xlink:href="../../d7/db2/namespace_ipopt.html#aceae25d4f0b8f7d737c265a6a75dac66" target="_top" xlink:title="Ipopt::Snprintf">
<polygon fill="#ffffff" stroke="#000000" points="135,-57.5 135,-76.5 213,-76.5 213,-57.5 135,-57.5"/>
<text text-anchor="middle" x="174" y="-64.5" font-family="Helvetica,sans-Serif" font-size="10.00" fill="#000000">Ipopt::Snprintf</text>
</a>
</g>
</g>
<!-- Node428&#45;&gt;Node429 -->
<g id="edge1" class="edge">
<title>Node428&#45;&gt;Node429</title>
<path fill="none" stroke="#191970" d="M98.7057,-44.0186C110.0501,-47.4811 121.9996,-51.1284 132.9542,-54.472"/>
<polygon fill="#191970" stroke="#191970" points="132.1027,-57.8714 142.6889,-57.4432 134.1462,-51.1763 132.1027,-57.8714"/>
</g>
<!-- Node430 -->
<g id="node3" class="node">
<title>Node430</title>
<g id="a_node3"><a xlink:href="../../d7/db2/namespace_ipopt.html#a412b04fd3180a55969ff76224d5bfec6" target="_top" xlink:title="Ipopt::IsValid">
<polygon fill="#ffffff" stroke="#000000" points="137,-19.5 137,-38.5 211,-38.5 211,-19.5 137,-19.5"/>
<text text-anchor="middle" x="174" y="-26.5" font-family="Helvetica,sans-Serif" font-size="10.00" fill="#000000">Ipopt::IsValid</text>
</a>
</g>
</g>
<!-- Node428&#45;&gt;Node430 -->
<g id="edge2" class="edge">
<title>Node428&#45;&gt;Node430</title>
<path fill="none" stroke="#191970" d="M99.0634,-29C108.2274,-29 117.7744,-29 126.8639,-29"/>
<polygon fill="#191970" stroke="#191970" points="126.887,-32.5001 136.8869,-29 126.8869,-25.5001 126.887,-32.5001"/>
</g>
<!-- Node431 -->
<g id="node4" class="node">
<title>Node431</title>
<g id="a_node4"><a xlink:href="../../d7/db2/namespace_ipopt.html#acfc346e8412ed6def2dc1858b78bde1b" target="_top" xlink:title="Ipopt::IsNull">
<polygon fill="#ffffff" stroke="#000000" points="249,-.5 249,-19.5 319,-19.5 319,-.5 249,-.5"/>
<text text-anchor="middle" x="284" y="-7.5" font-family="Helvetica,sans-Serif" font-size="10.00" fill="#000000">Ipopt::IsNull</text>
</a>
</g>
</g>
<!-- Node428&#45;&gt;Node431 -->
<g id="edge4" class="edge">
<title>Node428&#45;&gt;Node431</title>
<path fill="none" stroke="#191970" d="M99.3772,-15.9966C110.989,-13.5056 123.3614,-11.2776 135,-10 169.7324,-6.1873 209.2941,-6.3981 238.9194,-7.4478"/>
<polygon fill="#191970" stroke="#191970" points="238.8278,-10.9469 248.9596,-7.8489 239.1073,-3.9525 238.8278,-10.9469"/>
</g>
<!-- Node430&#45;&gt;Node431 -->
<g id="edge3" class="edge">
<title>Node430&#45;&gt;Node431</title>
<path fill="none" stroke="#191970" d="M211.241,-22.5675C220.0263,-21.05 229.4888,-19.4156 238.5898,-17.8436"/>
<polygon fill="#191970" stroke="#191970" points="239.3978,-21.2559 248.6562,-16.1048 238.2063,-14.3581 239.3978,-21.2559"/>
</g>
</g>
</svg>
