<?xml version="1.0" encoding="UTF-8" standalone="no"?>
<!DOCTYPE svg PUBLIC "-//W3C//DTD SVG 1.1//EN"
 "http://www.w3.org/Graphics/SVG/1.1/DTD/svg11.dtd">
<!-- Generated by graphviz version 2.40.1 (20161225.0304)
 -->
<!-- Title: omc_NFBinding_Binding_isClassBinding Pages: 1 -->
<svg width="307pt" height="88pt"
 viewBox="0.00 0.00 307.00 88.00" xmlns="http://www.w3.org/2000/svg" xmlns:xlink="http://www.w3.org/1999/xlink">
<g id="graph0" class="graph" transform="scale(1 1) rotate(0) translate(4 84)">
<title>omc_NFBinding_Binding_isClassBinding</title>
<polygon fill="#ffffff" stroke="transparent" points="-4,4 -4,-84 303,-84 303,4 -4,4"/>
<!-- Node415 -->
<g id="node1" class="node">
<title>Node415</title>
<polygon fill="#bfbfbf" stroke="#000000" points="0,-24.5 0,-54.5 124,-54.5 124,-24.5 0,-24.5"/>
<text text-anchor="start" x="8" y="-42.5" font-family="Helvetica,sans-Serif" font-size="10.00" fill="#000000">omc_NFBinding_Binding</text>
<text text-anchor="middle" x="62" y="-31.5" font-family="Helvetica,sans-Serif" font-size="10.00" fill="#000000">_isClassBinding</text>
</g>
<!-- Node416 -->
<g id="node2" class="node">
<title>Node416</title>
<g id="a_node2"><a xlink:href="../../d3/dcf/_n_f_binding_8c.html#a81e367538f942a4808dbf2089c4aa4a6" target="_top" xlink:title="omc_NFBinding_Binding\l_parents">
<polygon fill="#ffffff" stroke="#000000" points="167.5,-49.5 167.5,-79.5 291.5,-79.5 291.5,-49.5 167.5,-49.5"/>
<text text-anchor="start" x="175.5" y="-67.5" font-family="Helvetica,sans-Serif" font-size="10.00" fill="#000000">omc_NFBinding_Binding</text>
<text text-anchor="middle" x="229.5" y="-56.5" font-family="Helvetica,sans-Serif" font-size="10.00" fill="#000000">_parents</text>
</a>
</g>
</g>
<!-- Node415&#45;&gt;Node416 -->
<g id="edge1" class="edge">
<title>Node415&#45;&gt;Node416</title>
<path fill="none" stroke="#191970" d="M124.3708,-48.8091C135.124,-50.414 146.3811,-52.0942 157.3663,-53.7338"/>
<polygon fill="#191970" stroke="#191970" points="156.9489,-57.2102 167.3561,-55.2248 157.9823,-50.2869 156.9489,-57.2102"/>
</g>
<!-- Node417 -->
<g id="node3" class="node">
<title>Node417</title>
<g id="a_node3"><a xlink:href="../../d7/d21/_n_f_inst_node_8c.html#a70ee44b0f48e02585e96f713b32e25ee" target="_top" xlink:title="omc_NFInstNode_InstNode\l_isClass">
<polygon fill="#ffffff" stroke="#000000" points="160,-.5 160,-30.5 299,-30.5 299,-.5 160,-.5"/>
<text text-anchor="start" x="168" y="-18.5" font-family="Helvetica,sans-Serif" font-size="10.00" fill="#000000">omc_NFInstNode_InstNode</text>
<text text-anchor="middle" x="229.5" y="-7.5" font-family="Helvetica,sans-Serif" font-size="10.00" fill="#000000">_isClass</text>
</a>
</g>
</g>
<!-- Node415&#45;&gt;Node417 -->
<g id="edge2" class="edge">
<title>Node415&#45;&gt;Node417</title>
<path fill="none" stroke="#191970" d="M124.3708,-30.5633C132.6606,-29.3755 141.2499,-28.1448 149.7832,-26.9221"/>
<polygon fill="#191970" stroke="#191970" points="150.3511,-30.3766 159.7535,-25.4935 149.3582,-23.4473 150.3511,-30.3766"/>
</g>
</g>
</svg>
