<?xml version="1.0" encoding="UTF-8" standalone="no"?>
<!DOCTYPE svg PUBLIC "-//W3C//DTD SVG 1.1//EN"
 "http://www.w3.org/Graphics/SVG/1.1/DTD/svg11.dtd">
<!-- Generated by graphviz version 2.40.1 (20161225.0304)
 -->
<!-- Title: omc_NFSubscript_expand Pages: 1 -->
<svg width="1051pt" height="203pt"
 viewBox="0.00 0.00 1051.00 202.50" xmlns="http://www.w3.org/2000/svg" xmlns:xlink="http://www.w3.org/1999/xlink">
<g id="graph0" class="graph" transform="scale(1 1) rotate(0) translate(4 198.5)">
<title>omc_NFSubscript_expand</title>
<polygon fill="#ffffff" stroke="transparent" points="-4,4 -4,-198.5 1047,-198.5 1047,4 -4,4"/>
<!-- Node743 -->
<g id="node1" class="node">
<title>Node743</title>
<polygon fill="#bfbfbf" stroke="#000000" points="0,-55 0,-74 132,-74 132,-55 0,-55"/>
<text text-anchor="middle" x="66" y="-62" font-family="Helvetica,sans-Serif" font-size="10.00" fill="#000000">omc_NFSubscript_expand</text>
</g>
<!-- Node744 -->
<g id="node2" class="node">
<title>Node744</title>
<g id="a_node2"><a xlink:href="../../d0/d93/_n_f_subscript_8c.html#a821b6cddaa4650909c6f864dcb33869f" target="_top" xlink:title="omc_NFSubscript_expandSlice">
<polygon fill="#ffffff" stroke="#000000" points="168,-99 168,-118 322,-118 322,-99 168,-99"/>
<text text-anchor="middle" x="245" y="-106" font-family="Helvetica,sans-Serif" font-size="10.00" fill="#000000">omc_NFSubscript_expandSlice</text>
</a>
</g>
</g>
<!-- Node743&#45;&gt;Node744 -->
<g id="edge1" class="edge">
<title>Node743&#45;&gt;Node744</title>
<path fill="none" stroke="#191970" d="M104.8403,-74.0473C131.698,-80.6492 167.6309,-89.4819 196.3892,-96.551"/>
<polygon fill="#191970" stroke="#191970" points="195.689,-99.983 206.2355,-98.9713 197.36,-93.1853 195.689,-99.983"/>
</g>
<!-- Node752 -->
<g id="node10" class="node">
<title>Node752</title>
<g id="a_node10"><a xlink:href="../../d0/d18/_n_f_range_iterator_8c.html#acddf967279d0929c275690c036aa6b87" target="_top" xlink:title="omc_NFRangeIterator\l_fromDim">
<polygon fill="#ffffff" stroke="#000000" points="188.5,-49.5 188.5,-79.5 301.5,-79.5 301.5,-49.5 188.5,-49.5"/>
<text text-anchor="start" x="196.5" y="-67.5" font-family="Helvetica,sans-Serif" font-size="10.00" fill="#000000">omc_NFRangeIterator</text>
<text text-anchor="middle" x="245" y="-56.5" font-family="Helvetica,sans-Serif" font-size="10.00" fill="#000000">_fromDim</text>
</a>
</g>
</g>
<!-- Node743&#45;&gt;Node752 -->
<g id="edge10" class="edge">
<title>Node743&#45;&gt;Node752</title>
<path fill="none" stroke="#191970" d="M132.1444,-64.5C147.1141,-64.5 163.0211,-64.5 178.0249,-64.5"/>
<polygon fill="#191970" stroke="#191970" points="178.2452,-68.0001 188.2451,-64.5 178.2451,-61.0001 178.2452,-68.0001"/>
</g>
<!-- Node753 -->
<g id="node11" class="node">
<title>Node753</title>
<g id="a_node11"><a xlink:href="../../d0/d18/_n_f_range_iterator_8c.html#a648feef6877f6f09affe363165d6c85a" target="_top" xlink:title="omc_NFRangeIterator\l_isValid">
<polygon fill="#ffffff" stroke="#000000" points="188.5,-.5 188.5,-30.5 301.5,-30.5 301.5,-.5 188.5,-.5"/>
<text text-anchor="start" x="196.5" y="-18.5" font-family="Helvetica,sans-Serif" font-size="10.00" fill="#000000">omc_NFRangeIterator</text>
<text text-anchor="middle" x="245" y="-7.5" font-family="Helvetica,sans-Serif" font-size="10.00" fill="#000000">_isValid</text>
</a>
</g>
</g>
<!-- Node743&#45;&gt;Node753 -->
<g id="edge11" class="edge">
<title>Node743&#45;&gt;Node753</title>
<path fill="none" stroke="#191970" d="M100.9379,-54.936C123.501,-48.7595 153.5453,-40.5351 180.3571,-33.1955"/>
<polygon fill="#191970" stroke="#191970" points="181.348,-36.5531 190.069,-30.537 179.4998,-29.8015 181.348,-36.5531"/>
</g>
<!-- Node745 -->
<g id="node3" class="node">
<title>Node745</title>
<g id="a_node3"><a xlink:href="../../d3/dd0/_n_f_expand_exp_8c.html#abdbb203b2a38eba742e3420c19a5185c" target="_top" xlink:title="omc_NFExpandExp_expand">
<polygon fill="#ffffff" stroke="#000000" points="373,-137 373,-156 514,-156 514,-137 373,-137"/>
<text text-anchor="middle" x="443.5" y="-144" font-family="Helvetica,sans-Serif" font-size="10.00" fill="#000000">omc_NFExpandExp_expand</text>
</a>
</g>
</g>
<!-- Node744&#45;&gt;Node745 -->
<g id="edge2" class="edge">
<title>Node744&#45;&gt;Node745</title>
<path fill="none" stroke="#191970" d="M294.8337,-118.04C321.7339,-123.1896 355.1362,-129.584 383.4614,-135.0065"/>
<polygon fill="#191970" stroke="#191970" points="383.166,-138.5134 393.6458,-136.9561 384.4822,-131.6382 383.166,-138.5134"/>
</g>
<!-- Node750 -->
<g id="node8" class="node">
<title>Node750</title>
<g id="a_node8"><a xlink:href="../../db/d0c/_n_f_expression_8c.html#ab51b5d3ccd14f00b7db09b4b99a81a7e" target="_top" xlink:title="omc_NFExpression_isArray">
<polygon fill="#ffffff" stroke="#000000" points="374,-99 374,-118 513,-118 513,-99 374,-99"/>
<text text-anchor="middle" x="443.5" y="-106" font-family="Helvetica,sans-Serif" font-size="10.00" fill="#000000">omc_NFExpression_isArray</text>
</a>
</g>
</g>
<!-- Node744&#45;&gt;Node750 -->
<g id="edge8" class="edge">
<title>Node744&#45;&gt;Node750</title>
<path fill="none" stroke="#191970" d="M322.0294,-108.5C335.6636,-108.5 349.8876,-108.5 363.599,-108.5"/>
<polygon fill="#191970" stroke="#191970" points="363.966,-112.0001 373.966,-108.5 363.9659,-105.0001 363.966,-112.0001"/>
</g>
<!-- Node751 -->
<g id="node9" class="node">
<title>Node751</title>
<g id="a_node9"><a xlink:href="../../db/d0c/_n_f_expression_8c.html#ad66f68f5fbeb7e0623975d7e763312b9" target="_top" xlink:title="omc_NFExpression_arrayElements">
<polygon fill="#ffffff" stroke="#000000" points="358,-61 358,-80 529,-80 529,-61 358,-61"/>
<text text-anchor="middle" x="443.5" y="-68" font-family="Helvetica,sans-Serif" font-size="10.00" fill="#000000">omc_NFExpression_arrayElements</text>
</a>
</g>
</g>
<!-- Node744&#45;&gt;Node751 -->
<g id="edge9" class="edge">
<title>Node744&#45;&gt;Node751</title>
<path fill="none" stroke="#191970" d="M294.8337,-98.96C321.7339,-93.8104 355.1362,-87.416 383.4614,-81.9935"/>
<polygon fill="#191970" stroke="#191970" points="384.4822,-85.3618 393.6458,-80.0439 383.166,-78.4866 384.4822,-85.3618"/>
</g>
<!-- Node746 -->
<g id="node4" class="node">
<title>Node746</title>
<g id="a_node4"><a xlink:href="../../d3/dd0/_n_f_expand_exp_8c.html#aedfd70ecd722c7d205c160cc24d03623" target="_top" xlink:title="omc_NFExpandExp_expandCref">
<polygon fill="#ffffff" stroke="#000000" points="565,-175 565,-194 725,-194 725,-175 565,-175"/>
<text text-anchor="middle" x="645" y="-182" font-family="Helvetica,sans-Serif" font-size="10.00" fill="#000000">omc_NFExpandExp_expandCref</text>
</a>
</g>
</g>
<!-- Node745&#45;&gt;Node746 -->
<g id="edge3" class="edge">
<title>Node745&#45;&gt;Node746</title>
<path fill="none" stroke="#191970" d="M494.0869,-156.04C521.5133,-161.2122 555.5983,-167.6401 584.432,-173.0778"/>
<polygon fill="#191970" stroke="#191970" points="583.9169,-176.5422 594.3923,-174.9561 585.2142,-169.6635 583.9169,-176.5422"/>
</g>
<!-- Node749 -->
<g id="node7" class="node">
<title>Node749</title>
<g id="a_node7"><a xlink:href="../../d3/dd0/_n_f_expand_exp_8c.html#a4ff230047c8e2d3044c57ddbf87be919" target="_top" xlink:title="omc_NFExpandExp_expandList">
<polygon fill="#ffffff" stroke="#000000" points="566.5,-137 566.5,-156 723.5,-156 723.5,-137 566.5,-137"/>
<text text-anchor="middle" x="645" y="-144" font-family="Helvetica,sans-Serif" font-size="10.00" fill="#000000">omc_NFExpandExp_expandList</text>
</a>
</g>
</g>
<!-- Node745&#45;&gt;Node749 -->
<g id="edge6" class="edge">
<title>Node745&#45;&gt;Node749</title>
<path fill="none" stroke="#191970" d="M514.258,-140.0232C527.7631,-139.7702 542.0593,-139.693 556.0479,-139.7913"/>
<polygon fill="#191970" stroke="#191970" points="556.1286,-143.2922 566.1637,-139.894 556.1997,-136.2926 556.1286,-143.2922"/>
</g>
<!-- Node747 -->
<g id="node5" class="node">
<title>Node747</title>
<g id="a_node5"><a xlink:href="../../d4/dc3/_n_f_type_8c.html#a4ac6c39aec704bb854d57bf6ded378c1" target="_top" xlink:title="omc_NFType_hasZeroDimension">
<polygon fill="#ffffff" stroke="#000000" points="761,-175 761,-194 924,-194 924,-175 761,-175"/>
<text text-anchor="middle" x="842.5" y="-182" font-family="Helvetica,sans-Serif" font-size="10.00" fill="#000000">omc_NFType_hasZeroDimension</text>
</a>
</g>
</g>
<!-- Node746&#45;&gt;Node747 -->
<g id="edge4" class="edge">
<title>Node746&#45;&gt;Node747</title>
<path fill="none" stroke="#191970" d="M725.0461,-184.5C733.5,-184.5 742.1437,-184.5 750.7171,-184.5"/>
<polygon fill="#191970" stroke="#191970" points="750.7335,-188.0001 760.7335,-184.5 750.7335,-181.0001 750.7335,-188.0001"/>
</g>
<!-- Node748 -->
<g id="node6" class="node">
<title>Node748</title>
<g id="a_node6"><a xlink:href="../../da/d72/_compiler_2boot_2build_2list_8c.html#abb96b3079e0726f3b1683f7f314e7a51" target="_top" xlink:title="omc_List_exist">
<polygon fill="#ffffff" stroke="#000000" points="960,-175 960,-194 1043,-194 1043,-175 960,-175"/>
<text text-anchor="middle" x="1001.5" y="-182" font-family="Helvetica,sans-Serif" font-size="10.00" fill="#000000">omc_List_exist</text>
</a>
</g>
</g>
<!-- Node747&#45;&gt;Node748 -->
<g id="edge5" class="edge">
<title>Node747&#45;&gt;Node748</title>
<path fill="none" stroke="#191970" d="M924.3288,-184.5C932.9961,-184.5 941.6264,-184.5 949.8073,-184.5"/>
<polygon fill="#191970" stroke="#191970" points="949.8983,-188.0001 959.8983,-184.5 949.8982,-181.0001 949.8983,-188.0001"/>
</g>
<!-- Node749&#45;&gt;Node745 -->
<g id="edge7" class="edge">
<title>Node749&#45;&gt;Node745</title>
<path fill="none" stroke="#191970" d="M566.1637,-153.106C552.5229,-153.2879 538.3189,-153.2975 524.6187,-153.1348"/>
<polygon fill="#191970" stroke="#191970" points="524.3103,-149.6298 514.258,-152.9768 524.2035,-156.629 524.3103,-149.6298"/>
</g>
</g>
</svg>
