<?xml version="1.0" encoding="UTF-8" standalone="no"?>
<!DOCTYPE svg PUBLIC "-//W3C//DTD SVG 1.1//EN"
 "http://www.w3.org/Graphics/SVG/1.1/DTD/svg11.dtd">
<!-- Generated by graphviz version 2.40.1 (20161225.0304)
 -->
<!-- Title: printRelations Pages: 1 -->
<svg width="359pt" height="28pt"
 viewBox="0.00 0.00 359.00 28.00" xmlns="http://www.w3.org/2000/svg" xmlns:xlink="http://www.w3.org/1999/xlink">
<g id="graph0" class="graph" transform="scale(1 1) rotate(0) translate(4 24)">
<title>printRelations</title>
<polygon fill="#ffffff" stroke="transparent" points="-4,4 -4,-24 355,-24 355,4 -4,4"/>
<!-- Node66 -->
<g id="node1" class="node">
<title>Node66</title>
<polygon fill="#bfbfbf" stroke="#000000" points="0,-.5 0,-19.5 77,-19.5 77,-.5 0,-.5"/>
<text text-anchor="middle" x="38.5" y="-7.5" font-family="Helvetica,sans-Serif" font-size="10.00" fill="#000000">printRelations</text>
</g>
<!-- Node67 -->
<g id="node2" class="node">
<title>Node67</title>
<g id="a_node2"><a xlink:href="../../d3/dfb/_simulation_runtime_2c_2simulation_2solver_2model__help_8h.html#aa9e2d960cd66f0f2e69c28d11845d2ed" target="_top" xlink:title="updateDiscreteSystem">
<polygon fill="#ffffff" stroke="#000000" points="113,-.5 113,-19.5 229,-19.5 229,-.5 113,-.5"/>
<text text-anchor="middle" x="171" y="-7.5" font-family="Helvetica,sans-Serif" font-size="10.00" fill="#000000">updateDiscreteSystem</text>
</a>
</g>
</g>
<!-- Node66&#45;&gt;Node67 -->
<g id="edge1" class="edge">
<title>Node66&#45;&gt;Node67</title>
<path fill="none" stroke="#191970" d="M87.4059,-10C95.6759,-10 104.3337,-10 112.8128,-10"/>
<polygon fill="#191970" stroke="#191970" points="87.1807,-6.5001 77.1807,-10 87.1806,-13.5001 87.1807,-6.5001"/>
</g>
<!-- Node68 -->
<g id="node3" class="node">
<title>Node68</title>
<g id="a_node3"><a xlink:href="../../d4/d93/_simulation_runtime_2c_2simulation_2solver_2solver__main_8h.html#a3d5cf19eb04b378ac42cd6355cc8ffe8" target="_top" xlink:title="finishSimulation">
<polygon fill="#ffffff" stroke="#000000" points="265,-.5 265,-19.5 351,-19.5 351,-.5 265,-.5"/>
<text text-anchor="middle" x="308" y="-7.5" font-family="Helvetica,sans-Serif" font-size="10.00" fill="#000000">finishSimulation</text>
</a>
</g>
</g>
<!-- Node67&#45;&gt;Node68 -->
<g id="edge2" class="edge">
<title>Node67&#45;&gt;Node68</title>
<path fill="none" stroke="#191970" d="M239.2611,-10C247.9471,-10 256.6382,-10 264.7758,-10"/>
<polygon fill="#191970" stroke="#191970" points="239.1004,-6.5001 229.1003,-10 239.1003,-13.5001 239.1004,-6.5001"/>
</g>
</g>
</svg>
