<?xml version="1.0" encoding="UTF-8" standalone="no"?>
<!DOCTYPE svg PUBLIC "-//W3C//DTD SVG 1.1//EN"
 "http://www.w3.org/Graphics/SVG/1.1/DTD/svg11.dtd">
<!-- Generated by graphviz version 2.40.1 (20161225.0304)
 -->
<!-- Title: omc_DoubleEndedList_clear Pages: 1 -->
<svg width="492pt" height="104pt"
 viewBox="0.00 0.00 492.00 104.00" xmlns="http://www.w3.org/2000/svg" xmlns:xlink="http://www.w3.org/1999/xlink">
<g id="graph0" class="graph" transform="scale(1 1) rotate(0) translate(4 100)">
<title>omc_DoubleEndedList_clear</title>
<polygon fill="#ffffff" stroke="transparent" points="-4,4 -4,-100 488,-100 488,4 -4,4"/>
<!-- Node4 -->
<g id="node1" class="node">
<title>Node4</title>
<polygon fill="#bfbfbf" stroke="#000000" points="0,-33 0,-63 115,-63 115,-33 0,-33"/>
<text text-anchor="start" x="8" y="-51" font-family="Helvetica,sans-Serif" font-size="10.00" fill="#000000">omc_DoubleEndedList</text>
<text text-anchor="middle" x="57.5" y="-40" font-family="Helvetica,sans-Serif" font-size="10.00" fill="#000000">_clear</text>
</g>
<!-- Node5 -->
<g id="node2" class="node">
<title>Node5</title>
<g id="a_node2"><a xlink:href="../../d8/de3/_mutable_8c.html#a4d9367043438a5c1a24d17f1f9559996" target="_top" xlink:title="omc_Mutable_access">
<polygon fill="#ffffff" stroke="#000000" points="151,-76.5 151,-95.5 263,-95.5 263,-76.5 151,-76.5"/>
<text text-anchor="middle" x="207" y="-83.5" font-family="Helvetica,sans-Serif" font-size="10.00" fill="#000000">omc_Mutable_access</text>
</a>
</g>
</g>
<!-- Node4&#45;&gt;Node5 -->
<g id="edge1" class="edge">
<title>Node4&#45;&gt;Node5</title>
<path fill="none" stroke="#191970" d="M115.3006,-62.6918C129.8467,-66.3891 145.2966,-70.3162 159.2864,-73.8721"/>
<polygon fill="#191970" stroke="#191970" points="158.6272,-77.3158 169.1813,-76.3872 160.3517,-70.5315 158.6272,-77.3158"/>
</g>
<!-- Node6 -->
<g id="node3" class="node">
<title>Node6</title>
<g id="a_node3"><a xlink:href="../../d8/de3/_mutable_8c.html#a453a811f6b99a2c2625aa9e95c27cb2c" target="_top" xlink:title="omc_Mutable_update">
<polygon fill="#ffffff" stroke="#000000" points="152,-38.5 152,-57.5 262,-57.5 262,-38.5 152,-38.5"/>
<text text-anchor="middle" x="207" y="-45.5" font-family="Helvetica,sans-Serif" font-size="10.00" fill="#000000">omc_Mutable_update</text>
</a>
</g>
</g>
<!-- Node4&#45;&gt;Node6 -->
<g id="edge2" class="edge">
<title>Node4&#45;&gt;Node6</title>
<path fill="none" stroke="#191970" d="M115.3006,-48C123.923,-48 132.8629,-48 141.6281,-48"/>
<polygon fill="#191970" stroke="#191970" points="141.8079,-51.5001 151.8079,-48 141.8078,-44.5001 141.8079,-51.5001"/>
</g>
<!-- Node7 -->
<g id="node4" class="node">
<title>Node7</title>
<g id="a_node4"><a xlink:href="../../df/dcc/_compiler_2boot_2build_2gc_8c.html#a1c0ee4b3562dc9592c03fc36b3af9cfe" target="_top" xlink:title="omc_GC_free">
<polygon fill="#ffffff" stroke="#000000" points="168.5,-.5 168.5,-19.5 245.5,-19.5 245.5,-.5 168.5,-.5"/>
<text text-anchor="middle" x="207" y="-7.5" font-family="Helvetica,sans-Serif" font-size="10.00" fill="#000000">omc_GC_free</text>
</a>
</g>
</g>
<!-- Node4&#45;&gt;Node7 -->
<g id="edge3" class="edge">
<title>Node4&#45;&gt;Node7</title>
<path fill="none" stroke="#191970" d="M115.3006,-33.3082C129.8467,-29.6109 145.2966,-25.6838 159.2864,-22.1279"/>
<polygon fill="#191970" stroke="#191970" points="160.3517,-25.4685 169.1813,-19.6128 158.6272,-18.6842 160.3517,-25.4685"/>
</g>
<!-- Node8 -->
<g id="node5" class="node">
<title>Node8</title>
<g id="a_node5"><a xlink:href="../../db/d78/_g_c__includes_8h.html#a058339c824360e351908670c7ff16c44" target="_top" xlink:title="omc_GC_free_ext">
<polygon fill="#ffffff" stroke="#000000" points="299,-.5 299,-19.5 395,-19.5 395,-.5 299,-.5"/>
<text text-anchor="middle" x="347" y="-7.5" font-family="Helvetica,sans-Serif" font-size="10.00" fill="#000000">omc_GC_free_ext</text>
</a>
</g>
</g>
<!-- Node7&#45;&gt;Node8 -->
<g id="edge4" class="edge">
<title>Node7&#45;&gt;Node8</title>
<path fill="none" stroke="#191970" d="M245.6262,-10C258.8472,-10 273.9509,-10 288.3901,-10"/>
<polygon fill="#191970" stroke="#191970" points="288.7503,-13.5001 298.7503,-10 288.7502,-6.5001 288.7503,-13.5001"/>
</g>
<!-- Node9 -->
<g id="node6" class="node">
<title>Node9</title>
<g id="a_node6"><a xlink:href="../../d1/dd1/3rd_party_2gc_2include_2gc_8h.html#aef11fb85e24d9cdb7da9ef9df26d45b3" target="_top" xlink:title="GC_free">
<polygon fill="#ffffff" stroke="#000000" points="431,-.5 431,-19.5 484,-19.5 484,-.5 431,-.5"/>
<text text-anchor="middle" x="457.5" y="-7.5" font-family="Helvetica,sans-Serif" font-size="10.00" fill="#000000">GC_free</text>
</a>
</g>
</g>
<!-- Node8&#45;&gt;Node9 -->
<g id="edge5" class="edge">
<title>Node8&#45;&gt;Node9</title>
<path fill="none" stroke="#191970" d="M395.1455,-10C403.6376,-10 412.3574,-10 420.4844,-10"/>
<polygon fill="#191970" stroke="#191970" points="420.7577,-13.5001 430.7576,-10 420.7576,-6.5001 420.7577,-13.5001"/>
</g>
</g>
</svg>
