<?xml version="1.0" encoding="UTF-8" standalone="no"?>
<!DOCTYPE svg PUBLIC "-//W3C//DTD SVG 1.1//EN"
 "http://www.w3.org/Graphics/SVG/1.1/DTD/svg11.dtd">
<!-- Generated by graphviz version 2.40.1 (20161225.0304)
 -->
<!-- Title: omc_ReduceDAE_meanValueReplacements2 Pages: 1 -->
<svg width="659pt" height="28pt"
 viewBox="0.00 0.00 659.00 28.00" xmlns="http://www.w3.org/2000/svg" xmlns:xlink="http://www.w3.org/1999/xlink">
<g id="graph0" class="graph" transform="scale(1 1) rotate(0) translate(4 24)">
<title>omc_ReduceDAE_meanValueReplacements2</title>
<polygon fill="#ffffff" stroke="transparent" points="-4,4 -4,-24 655,-24 655,4 -4,4"/>
<!-- Node713 -->
<g id="node1" class="node">
<title>Node713</title>
<polygon fill="#bfbfbf" stroke="#000000" points="0,-.5 0,-19.5 218,-19.5 218,-.5 0,-.5"/>
<text text-anchor="middle" x="109" y="-7.5" font-family="Helvetica,sans-Serif" font-size="10.00" fill="#000000">omc_ReduceDAE_meanValueReplacements2</text>
</g>
<!-- Node714 -->
<g id="node2" class="node">
<title>Node714</title>
<g id="a_node2"><a xlink:href="../../d3/d1b/_reduce_d_a_e_8c.html#a3ee598fbb3462113e71020dc65995927" target="_top" xlink:title="omc_ReduceDAE_meanValueReplacements">
<polygon fill="#ffffff" stroke="#000000" points="254,-.5 254,-19.5 466,-19.5 466,-.5 254,-.5"/>
<text text-anchor="middle" x="360" y="-7.5" font-family="Helvetica,sans-Serif" font-size="10.00" fill="#000000">omc_ReduceDAE_meanValueReplacements</text>
</a>
</g>
</g>
<!-- Node713&#45;&gt;Node714 -->
<g id="edge1" class="edge">
<title>Node713&#45;&gt;Node714</title>
<path fill="none" stroke="#191970" d="M228.5961,-10C237.009,-10 245.4572,-10 253.7893,-10"/>
<polygon fill="#191970" stroke="#191970" points="228.3621,-6.5001 218.3621,-10 228.3621,-13.5001 228.3621,-6.5001"/>
</g>
<!-- Node715 -->
<g id="node3" class="node">
<title>Node715</title>
<g id="a_node3"><a xlink:href="../../dd/d28/_reduce_d_a_e_8h.html#ae5cabd4d039c42add7e28af1cd13b56a" target="_top" xlink:title="omc_ReduceDAE_buildLabels">
<polygon fill="#ffffff" stroke="#000000" points="502,-.5 502,-19.5 651,-19.5 651,-.5 502,-.5"/>
<text text-anchor="middle" x="576.5" y="-7.5" font-family="Helvetica,sans-Serif" font-size="10.00" fill="#000000">omc_ReduceDAE_buildLabels</text>
</a>
</g>
</g>
<!-- Node714&#45;&gt;Node715 -->
<g id="edge2" class="edge">
<title>Node714&#45;&gt;Node715</title>
<path fill="none" stroke="#191970" d="M476.2404,-10C484.9226,-10 493.5358,-10 501.8551,-10"/>
<polygon fill="#191970" stroke="#191970" points="476.0302,-6.5001 466.0302,-10 476.0301,-13.5001 476.0302,-6.5001"/>
</g>
</g>
</svg>
