<?xml version="1.0" encoding="UTF-8" standalone="no"?>
<!DOCTYPE svg PUBLIC "-//W3C//DTD SVG 1.1//EN"
 "http://www.w3.org/Graphics/SVG/1.1/DTD/svg11.dtd">
<!-- Generated by graphviz version 2.40.1 (20161225.0304)
 -->
<!-- Title: omc_NFExpandExp_expandLogicalUnary Pages: 1 -->
<svg width="871pt" height="104pt"
 viewBox="0.00 0.00 871.00 104.00" xmlns="http://www.w3.org/2000/svg" xmlns:xlink="http://www.w3.org/1999/xlink">
<g id="graph0" class="graph" transform="scale(1 1) rotate(0) translate(4 100)">
<title>omc_NFExpandExp_expandLogicalUnary</title>
<polygon fill="#ffffff" stroke="transparent" points="-4,4 -4,-100 867,-100 867,4 -4,4"/>
<!-- Node1405 -->
<g id="node1" class="node">
<title>Node1405</title>
<polygon fill="#bfbfbf" stroke="#000000" points="0,-14 0,-44 172,-44 172,-14 0,-14"/>
<text text-anchor="start" x="8" y="-32" font-family="Helvetica,sans-Serif" font-size="10.00" fill="#000000">omc_NFExpandExp_expandLogical</text>
<text text-anchor="middle" x="86" y="-21" font-family="Helvetica,sans-Serif" font-size="10.00" fill="#000000">Unary</text>
</g>
<!-- Node1406 -->
<g id="node2" class="node">
<title>Node1406</title>
<g id="a_node2"><a xlink:href="../../d3/dd0/_n_f_expand_exp_8c.html#abdbb203b2a38eba742e3420c19a5185c" target="_top" xlink:title="omc_NFExpandExp_expand">
<polygon fill="#ffffff" stroke="#000000" points="208,-38.5 208,-57.5 349,-57.5 349,-38.5 208,-38.5"/>
<text text-anchor="middle" x="278.5" y="-45.5" font-family="Helvetica,sans-Serif" font-size="10.00" fill="#000000">omc_NFExpandExp_expand</text>
</a>
</g>
</g>
<!-- Node1405&#45;&gt;Node1406 -->
<g id="edge1" class="edge">
<title>Node1405&#45;&gt;Node1406</title>
<path fill="none" stroke="#191970" d="M172.1154,-37.4997C180.5845,-38.3356 189.1594,-39.182 197.574,-40.0125"/>
<polygon fill="#191970" stroke="#191970" points="197.445,-43.5167 207.7405,-41.0159 198.1326,-36.5505 197.445,-43.5167"/>
</g>
<!-- Node1411 -->
<g id="node7" class="node">
<title>Node1411</title>
<g id="a_node7"><a xlink:href="../../dc/d36/_n_f_operator_8c.html#a0ea3f579c370f87ef165340592dd35b6" target="_top" xlink:title="omc_NFOperator_scalarize">
<polygon fill="#ffffff" stroke="#000000" points="210.5,-.5 210.5,-19.5 346.5,-19.5 346.5,-.5 210.5,-.5"/>
<text text-anchor="middle" x="278.5" y="-7.5" font-family="Helvetica,sans-Serif" font-size="10.00" fill="#000000">omc_NFOperator_scalarize</text>
</a>
</g>
</g>
<!-- Node1405&#45;&gt;Node1411 -->
<g id="edge7" class="edge">
<title>Node1405&#45;&gt;Node1411</title>
<path fill="none" stroke="#191970" d="M172.1154,-20.5003C181.5253,-19.5715 191.0659,-18.6299 200.372,-17.7113"/>
<polygon fill="#191970" stroke="#191970" points="200.753,-21.1908 210.3608,-16.7254 200.0653,-14.2247 200.753,-21.1908"/>
</g>
<!-- Node1407 -->
<g id="node3" class="node">
<title>Node1407</title>
<g id="a_node3"><a xlink:href="../../d3/dd0/_n_f_expand_exp_8c.html#aedfd70ecd722c7d205c160cc24d03623" target="_top" xlink:title="omc_NFExpandExp_expandCref">
<polygon fill="#ffffff" stroke="#000000" points="385,-76.5 385,-95.5 545,-95.5 545,-76.5 385,-76.5"/>
<text text-anchor="middle" x="465" y="-83.5" font-family="Helvetica,sans-Serif" font-size="10.00" fill="#000000">omc_NFExpandExp_expandCref</text>
</a>
</g>
</g>
<!-- Node1406&#45;&gt;Node1407 -->
<g id="edge2" class="edge">
<title>Node1406&#45;&gt;Node1407</title>
<path fill="none" stroke="#191970" d="M325.5618,-57.589C350.7268,-62.7165 381.8958,-69.0672 408.3786,-74.4632"/>
<polygon fill="#191970" stroke="#191970" points="407.7791,-77.9129 418.2766,-76.4799 409.1767,-71.0538 407.7791,-77.9129"/>
</g>
<!-- Node1410 -->
<g id="node6" class="node">
<title>Node1410</title>
<g id="a_node6"><a xlink:href="../../d3/dd0/_n_f_expand_exp_8c.html#a4ff230047c8e2d3044c57ddbf87be919" target="_top" xlink:title="omc_NFExpandExp_expandList">
<polygon fill="#ffffff" stroke="#000000" points="386.5,-38.5 386.5,-57.5 543.5,-57.5 543.5,-38.5 386.5,-38.5"/>
<text text-anchor="middle" x="465" y="-45.5" font-family="Helvetica,sans-Serif" font-size="10.00" fill="#000000">omc_NFExpandExp_expandList</text>
</a>
</g>
</g>
<!-- Node1406&#45;&gt;Node1410 -->
<g id="edge5" class="edge">
<title>Node1406&#45;&gt;Node1410</title>
<path fill="none" stroke="#191970" d="M349.0077,-41.4317C357.8513,-41.2878 366.9855,-41.2294 376.0651,-41.2564"/>
<polygon fill="#191970" stroke="#191970" points="376.2519,-44.7576 386.2747,-41.3233 376.2978,-37.7578 376.2519,-44.7576"/>
</g>
<!-- Node1408 -->
<g id="node4" class="node">
<title>Node1408</title>
<g id="a_node4"><a xlink:href="../../d4/dc3/_n_f_type_8c.html#a4ac6c39aec704bb854d57bf6ded378c1" target="_top" xlink:title="omc_NFType_hasZeroDimension">
<polygon fill="#ffffff" stroke="#000000" points="581,-76.5 581,-95.5 744,-95.5 744,-76.5 581,-76.5"/>
<text text-anchor="middle" x="662.5" y="-83.5" font-family="Helvetica,sans-Serif" font-size="10.00" fill="#000000">omc_NFType_hasZeroDimension</text>
</a>
</g>
</g>
<!-- Node1407&#45;&gt;Node1408 -->
<g id="edge3" class="edge">
<title>Node1407&#45;&gt;Node1408</title>
<path fill="none" stroke="#191970" d="M545.0461,-86C553.5,-86 562.1437,-86 570.7171,-86"/>
<polygon fill="#191970" stroke="#191970" points="570.7335,-89.5001 580.7335,-86 570.7335,-82.5001 570.7335,-89.5001"/>
</g>
<!-- Node1409 -->
<g id="node5" class="node">
<title>Node1409</title>
<g id="a_node5"><a xlink:href="../../da/d72/_compiler_2boot_2build_2list_8c.html#abb96b3079e0726f3b1683f7f314e7a51" target="_top" xlink:title="omc_List_exist">
<polygon fill="#ffffff" stroke="#000000" points="780,-76.5 780,-95.5 863,-95.5 863,-76.5 780,-76.5"/>
<text text-anchor="middle" x="821.5" y="-83.5" font-family="Helvetica,sans-Serif" font-size="10.00" fill="#000000">omc_List_exist</text>
</a>
</g>
</g>
<!-- Node1408&#45;&gt;Node1409 -->
<g id="edge4" class="edge">
<title>Node1408&#45;&gt;Node1409</title>
<path fill="none" stroke="#191970" d="M744.3288,-86C752.9961,-86 761.6264,-86 769.8073,-86"/>
<polygon fill="#191970" stroke="#191970" points="769.8983,-89.5001 779.8983,-86 769.8982,-82.5001 769.8983,-89.5001"/>
</g>
<!-- Node1410&#45;&gt;Node1406 -->
<g id="edge6" class="edge">
<title>Node1410&#45;&gt;Node1406</title>
<path fill="none" stroke="#191970" d="M386.2747,-54.6767C377.2851,-54.7681 368.111,-54.774 359.0975,-54.6945"/>
<polygon fill="#191970" stroke="#191970" points="359.0507,-51.1937 349.0077,-54.5683 358.9631,-58.1932 359.0507,-51.1937"/>
</g>
</g>
</svg>
