<?xml version="1.0" encoding="UTF-8" standalone="no"?>
<!DOCTYPE svg PUBLIC "-//W3C//DTD SVG 1.1//EN"
 "http://www.w3.org/Graphics/SVG/1.1/DTD/svg11.dtd">
<!-- Generated by graphviz version 2.40.1 (20161225.0304)
 -->
<!-- Title: omc_NFExpandExp_expandBuiltinGeneric Pages: 1 -->
<svg width="894pt" height="134pt"
 viewBox="0.00 0.00 894.00 133.50" xmlns="http://www.w3.org/2000/svg" xmlns:xlink="http://www.w3.org/1999/xlink">
<g id="graph0" class="graph" transform="scale(1 1) rotate(0) translate(4 129.5)">
<title>omc_NFExpandExp_expandBuiltinGeneric</title>
<polygon fill="#ffffff" stroke="transparent" points="-4,4 -4,-129.5 890,-129.5 890,4 -4,4"/>
<!-- Node1032 -->
<g id="node1" class="node">
<title>Node1032</title>
<polygon fill="#bfbfbf" stroke="#000000" points="0,-62.5 0,-92.5 168,-92.5 168,-62.5 0,-62.5"/>
<text text-anchor="start" x="8" y="-80.5" font-family="Helvetica,sans-Serif" font-size="10.00" fill="#000000">omc_NFExpandExp_expandBuiltin</text>
<text text-anchor="middle" x="84" y="-69.5" font-family="Helvetica,sans-Serif" font-size="10.00" fill="#000000">Generic</text>
</g>
<!-- Node1033 -->
<g id="node2" class="node">
<title>Node1033</title>
<g id="a_node2"><a xlink:href="../../d4/dc3/_n_f_type_8c.html#aa3d05008c6c70c4f5ecfe1ee17dd1d7b" target="_top" xlink:title="omc_NFType_arrayElementType">
<polygon fill="#ffffff" stroke="#000000" points="207.5,-106 207.5,-125 368.5,-125 368.5,-106 207.5,-106"/>
<text text-anchor="middle" x="288" y="-113" font-family="Helvetica,sans-Serif" font-size="10.00" fill="#000000">omc_NFType_arrayElementType</text>
</a>
</g>
</g>
<!-- Node1032&#45;&gt;Node1033 -->
<g id="edge1" class="edge">
<title>Node1032&#45;&gt;Node1033</title>
<path fill="none" stroke="#191970" d="M164.6262,-92.5186C185.3959,-96.3875 207.4035,-100.4869 226.9916,-104.1357"/>
<polygon fill="#191970" stroke="#191970" points="226.5232,-107.6086 236.995,-105.9991 227.8051,-100.7269 226.5232,-107.6086"/>
</g>
<!-- Node1034 -->
<g id="node3" class="node">
<title>Node1034</title>
<g id="a_node3"><a xlink:href="../../d3/dd0/_n_f_expand_exp_8c.html#abdbb203b2a38eba742e3420c19a5185c" target="_top" xlink:title="omc_NFExpandExp_expand">
<polygon fill="#ffffff" stroke="#000000" points="217.5,-68 217.5,-87 358.5,-87 358.5,-68 217.5,-68"/>
<text text-anchor="middle" x="288" y="-75" font-family="Helvetica,sans-Serif" font-size="10.00" fill="#000000">omc_NFExpandExp_expand</text>
</a>
</g>
</g>
<!-- Node1032&#45;&gt;Node1034 -->
<g id="edge2" class="edge">
<title>Node1032&#45;&gt;Node1034</title>
<path fill="none" stroke="#191970" d="M168.1524,-77.5C181.0562,-77.5 194.3534,-77.5 207.1828,-77.5"/>
<polygon fill="#191970" stroke="#191970" points="207.3551,-81.0001 217.355,-77.5 207.355,-74.0001 207.3551,-81.0001"/>
</g>
<!-- Node1039 -->
<g id="node8" class="node">
<title>Node1039</title>
<g id="a_node8"><a xlink:href="../../d3/dd0/_n_f_expand_exp_8c.html#a2caa64ed0bd0756006ff2d6abcc312d2" target="_top" xlink:title="omc_NFExpandExp_expandBuiltin\lGeneric2">
<polygon fill="#ffffff" stroke="#000000" points="204,-.5 204,-30.5 372,-30.5 372,-.5 204,-.5"/>
<text text-anchor="start" x="212" y="-18.5" font-family="Helvetica,sans-Serif" font-size="10.00" fill="#000000">omc_NFExpandExp_expandBuiltin</text>
<text text-anchor="middle" x="288" y="-7.5" font-family="Helvetica,sans-Serif" font-size="10.00" fill="#000000">Generic2</text>
</a>
</g>
</g>
<!-- Node1032&#45;&gt;Node1039 -->
<g id="edge8" class="edge">
<title>Node1032&#45;&gt;Node1039</title>
<path fill="none" stroke="#191970" d="M133.3827,-62.4915C162.1116,-53.7602 198.5092,-42.6982 228.7724,-33.5006"/>
<polygon fill="#191970" stroke="#191970" points="229.8149,-36.8419 238.365,-30.5851 227.7793,-30.1443 229.8149,-36.8419"/>
</g>
<!-- Node1035 -->
<g id="node4" class="node">
<title>Node1035</title>
<g id="a_node4"><a xlink:href="../../d3/dd0/_n_f_expand_exp_8c.html#aedfd70ecd722c7d205c160cc24d03623" target="_top" xlink:title="omc_NFExpandExp_expandCref">
<polygon fill="#ffffff" stroke="#000000" points="408,-106 408,-125 568,-125 568,-106 408,-106"/>
<text text-anchor="middle" x="488" y="-113" font-family="Helvetica,sans-Serif" font-size="10.00" fill="#000000">omc_NFExpandExp_expandCref</text>
</a>
</g>
</g>
<!-- Node1034&#45;&gt;Node1035 -->
<g id="edge3" class="edge">
<title>Node1034&#45;&gt;Node1035</title>
<path fill="none" stroke="#191970" d="M338.2103,-87.04C365.4326,-92.2122 399.2639,-98.6401 427.8829,-104.0778"/>
<polygon fill="#191970" stroke="#191970" points="427.2915,-107.5279 437.7691,-105.9561 428.5981,-100.6509 427.2915,-107.5279"/>
</g>
<!-- Node1038 -->
<g id="node7" class="node">
<title>Node1038</title>
<g id="a_node7"><a xlink:href="../../d3/dd0/_n_f_expand_exp_8c.html#a4ff230047c8e2d3044c57ddbf87be919" target="_top" xlink:title="omc_NFExpandExp_expandList">
<polygon fill="#ffffff" stroke="#000000" points="409.5,-68 409.5,-87 566.5,-87 566.5,-68 409.5,-68"/>
<text text-anchor="middle" x="488" y="-75" font-family="Helvetica,sans-Serif" font-size="10.00" fill="#000000">omc_NFExpandExp_expandList</text>
</a>
</g>
</g>
<!-- Node1034&#45;&gt;Node1038 -->
<g id="edge6" class="edge">
<title>Node1034&#45;&gt;Node1038</title>
<path fill="none" stroke="#191970" d="M358.5125,-71.0179C371.5969,-70.7736 385.421,-70.6964 398.973,-70.7863"/>
<polygon fill="#191970" stroke="#191970" points="399.2325,-74.2889 409.2665,-70.8875 399.3014,-67.2892 399.2325,-74.2889"/>
</g>
<!-- Node1036 -->
<g id="node5" class="node">
<title>Node1036</title>
<g id="a_node5"><a xlink:href="../../d4/dc3/_n_f_type_8c.html#a4ac6c39aec704bb854d57bf6ded378c1" target="_top" xlink:title="omc_NFType_hasZeroDimension">
<polygon fill="#ffffff" stroke="#000000" points="604,-106 604,-125 767,-125 767,-106 604,-106"/>
<text text-anchor="middle" x="685.5" y="-113" font-family="Helvetica,sans-Serif" font-size="10.00" fill="#000000">omc_NFType_hasZeroDimension</text>
</a>
</g>
</g>
<!-- Node1035&#45;&gt;Node1036 -->
<g id="edge4" class="edge">
<title>Node1035&#45;&gt;Node1036</title>
<path fill="none" stroke="#191970" d="M568.0461,-115.5C576.5,-115.5 585.1437,-115.5 593.7171,-115.5"/>
<polygon fill="#191970" stroke="#191970" points="593.7335,-119.0001 603.7335,-115.5 593.7335,-112.0001 593.7335,-119.0001"/>
</g>
<!-- Node1037 -->
<g id="node6" class="node">
<title>Node1037</title>
<g id="a_node6"><a xlink:href="../../da/d72/_compiler_2boot_2build_2list_8c.html#abb96b3079e0726f3b1683f7f314e7a51" target="_top" xlink:title="omc_List_exist">
<polygon fill="#ffffff" stroke="#000000" points="803,-106 803,-125 886,-125 886,-106 803,-106"/>
<text text-anchor="middle" x="844.5" y="-113" font-family="Helvetica,sans-Serif" font-size="10.00" fill="#000000">omc_List_exist</text>
</a>
</g>
</g>
<!-- Node1036&#45;&gt;Node1037 -->
<g id="edge5" class="edge">
<title>Node1036&#45;&gt;Node1037</title>
<path fill="none" stroke="#191970" d="M767.3288,-115.5C775.9961,-115.5 784.6264,-115.5 792.8073,-115.5"/>
<polygon fill="#191970" stroke="#191970" points="792.8983,-119.0001 802.8983,-115.5 792.8982,-112.0001 792.8983,-119.0001"/>
</g>
<!-- Node1038&#45;&gt;Node1034 -->
<g id="edge7" class="edge">
<title>Node1038&#45;&gt;Node1034</title>
<path fill="none" stroke="#191970" d="M409.2665,-84.1125C395.9189,-84.2875 382.0414,-84.2955 368.6457,-84.1364"/>
<polygon fill="#191970" stroke="#191970" points="368.5647,-80.6348 358.5125,-83.9821 368.4581,-87.634 368.5647,-80.6348"/>
</g>
<!-- Node1039&#45;&gt;Node1039 -->
<g id="edge9" class="edge">
<title>Node1039&#45;&gt;Node1039</title>
<path fill="none" stroke="#191970" d="M253.1459,-30.659C244.7413,-40.0566 256.3594,-49 288,-49 307.281,-49 319.1269,-45.679 323.5376,-40.9579"/>
<polygon fill="#191970" stroke="#191970" points="327.0087,-40.4053 322.8541,-30.659 320.0241,-40.8688 327.0087,-40.4053"/>
</g>
</g>
</svg>
