<?xml version="1.0" encoding="UTF-8" standalone="no"?>
<!DOCTYPE svg PUBLIC "-//W3C//DTD SVG 1.1//EN"
 "http://www.w3.org/Graphics/SVG/1.1/DTD/svg11.dtd">
<!-- Generated by graphviz version 2.40.1 (20161225.0304)
 -->
<!-- Title: omc_NFExpandExp_expandBinaryDotProduct Pages: 1 -->
<svg width="1345pt" height="804pt"
 viewBox="0.00 0.00 1345.00 804.00" xmlns="http://www.w3.org/2000/svg" xmlns:xlink="http://www.w3.org/1999/xlink">
<g id="graph0" class="graph" transform="scale(1 1) rotate(0) translate(4 800)">
<title>omc_NFExpandExp_expandBinaryDotProduct</title>
<polygon fill="#ffffff" stroke="transparent" points="-4,4 -4,-800 1341,-800 1341,4 -4,4"/>
<!-- Node807 -->
<g id="node1" class="node">
<title>Node807</title>
<polygon fill="#bfbfbf" stroke="#000000" points="0,-676 0,-706 169,-706 169,-676 0,-676"/>
<text text-anchor="start" x="8" y="-694" font-family="Helvetica,sans-Serif" font-size="10.00" fill="#000000">omc_NFExpandExp_expandBinary</text>
<text text-anchor="middle" x="84.5" y="-683" font-family="Helvetica,sans-Serif" font-size="10.00" fill="#000000">DotProduct</text>
</g>
<!-- Node808 -->
<g id="node2" class="node">
<title>Node808</title>
<g id="a_node2"><a xlink:href="../../d3/dd0/_n_f_expand_exp_8c.html#abdbb203b2a38eba742e3420c19a5185c" target="_top" xlink:title="omc_NFExpandExp_expand">
<polygon fill="#ffffff" stroke="#000000" points="215,-757.5 215,-776.5 356,-776.5 356,-757.5 215,-757.5"/>
<text text-anchor="middle" x="285.5" y="-764.5" font-family="Helvetica,sans-Serif" font-size="10.00" fill="#000000">omc_NFExpandExp_expand</text>
</a>
</g>
</g>
<!-- Node807&#45;&gt;Node808 -->
<g id="edge1" class="edge">
<title>Node807&#45;&gt;Node808</title>
<path fill="none" stroke="#191970" d="M124.2111,-706.0152C161.1269,-719.9734 215.5707,-740.5591 250.7887,-753.8753"/>
<polygon fill="#191970" stroke="#191970" points="249.59,-757.1639 260.1816,-757.4269 252.0658,-750.6163 249.59,-757.1639"/>
</g>
<!-- Node813 -->
<g id="node7" class="node">
<title>Node813</title>
<g id="a_node7"><a xlink:href="../../d3/dd0/_n_f_expand_exp_8c.html#a0c94576da1957ac92d1a01e35b4c639b" target="_top" xlink:title="omc_NFExpandExp_makeScalar\lProduct">
<polygon fill="#ffffff" stroke="#000000" points="205,-638 205,-668 366,-668 366,-638 205,-638"/>
<text text-anchor="start" x="213" y="-656" font-family="Helvetica,sans-Serif" font-size="10.00" fill="#000000">omc_NFExpandExp_makeScalar</text>
<text text-anchor="middle" x="285.5" y="-645" font-family="Helvetica,sans-Serif" font-size="10.00" fill="#000000">Product</text>
</a>
</g>
</g>
<!-- Node807&#45;&gt;Node813 -->
<g id="edge7" class="edge">
<title>Node807&#45;&gt;Node813</title>
<path fill="none" stroke="#191970" d="M163.9405,-675.9814C174.4182,-674.0005 185.2157,-671.9592 195.8493,-669.9489"/>
<polygon fill="#191970" stroke="#191970" points="196.8026,-673.3308 205.9783,-668.034 195.5022,-666.4526 196.8026,-673.3308"/>
</g>
<!-- Node809 -->
<g id="node3" class="node">
<title>Node809</title>
<g id="a_node3"><a xlink:href="../../d3/dd0/_n_f_expand_exp_8c.html#aedfd70ecd722c7d205c160cc24d03623" target="_top" xlink:title="omc_NFExpandExp_expandCref">
<polygon fill="#ffffff" stroke="#000000" points="402,-738.5 402,-757.5 562,-757.5 562,-738.5 402,-738.5"/>
<text text-anchor="middle" x="482" y="-745.5" font-family="Helvetica,sans-Serif" font-size="10.00" fill="#000000">omc_NFExpandExp_expandCref</text>
</a>
</g>
</g>
<!-- Node808&#45;&gt;Node809 -->
<g id="edge2" class="edge">
<title>Node808&#45;&gt;Node809</title>
<path fill="none" stroke="#191970" d="M356.1634,-760.1674C367.768,-759.0453 379.9313,-757.8692 391.9307,-756.709"/>
<polygon fill="#191970" stroke="#191970" points="392.3391,-760.1859 401.9558,-755.7396 391.6654,-753.2184 392.3391,-760.1859"/>
</g>
<!-- Node812 -->
<g id="node6" class="node">
<title>Node812</title>
<g id="a_node6"><a xlink:href="../../d3/dd0/_n_f_expand_exp_8c.html#a4ff230047c8e2d3044c57ddbf87be919" target="_top" xlink:title="omc_NFExpandExp_expandList">
<polygon fill="#ffffff" stroke="#000000" points="403.5,-776.5 403.5,-795.5 560.5,-795.5 560.5,-776.5 403.5,-776.5"/>
<text text-anchor="middle" x="482" y="-783.5" font-family="Helvetica,sans-Serif" font-size="10.00" fill="#000000">omc_NFExpandExp_expandList</text>
</a>
</g>
</g>
<!-- Node808&#45;&gt;Node812 -->
<g id="edge5" class="edge">
<title>Node808&#45;&gt;Node812</title>
<path fill="none" stroke="#191970" d="M356.1634,-767.3249C380.9714,-769.277 408.3329,-772.0934 431.188,-775.0914"/>
<polygon fill="#191970" stroke="#191970" points="430.9648,-778.5934 441.3465,-776.4792 431.9123,-771.6578 430.9648,-778.5934"/>
</g>
<!-- Node810 -->
<g id="node4" class="node">
<title>Node810</title>
<g id="a_node4"><a xlink:href="../../d4/dc3/_n_f_type_8c.html#a4ac6c39aec704bb854d57bf6ded378c1" target="_top" xlink:title="omc_NFType_hasZeroDimension">
<polygon fill="#ffffff" stroke="#000000" points="598,-738.5 598,-757.5 761,-757.5 761,-738.5 598,-738.5"/>
<text text-anchor="middle" x="679.5" y="-745.5" font-family="Helvetica,sans-Serif" font-size="10.00" fill="#000000">omc_NFType_hasZeroDimension</text>
</a>
</g>
</g>
<!-- Node809&#45;&gt;Node810 -->
<g id="edge3" class="edge">
<title>Node809&#45;&gt;Node810</title>
<path fill="none" stroke="#191970" d="M562.0461,-748C570.5,-748 579.1437,-748 587.7171,-748"/>
<polygon fill="#191970" stroke="#191970" points="587.7335,-751.5001 597.7335,-748 587.7335,-744.5001 587.7335,-751.5001"/>
</g>
<!-- Node811 -->
<g id="node5" class="node">
<title>Node811</title>
<g id="a_node5"><a xlink:href="../../da/d72/_compiler_2boot_2build_2list_8c.html#abb96b3079e0726f3b1683f7f314e7a51" target="_top" xlink:title="omc_List_exist">
<polygon fill="#ffffff" stroke="#000000" points="834.5,-738.5 834.5,-757.5 917.5,-757.5 917.5,-738.5 834.5,-738.5"/>
<text text-anchor="middle" x="876" y="-745.5" font-family="Helvetica,sans-Serif" font-size="10.00" fill="#000000">omc_List_exist</text>
</a>
</g>
</g>
<!-- Node810&#45;&gt;Node811 -->
<g id="edge4" class="edge">
<title>Node810&#45;&gt;Node811</title>
<path fill="none" stroke="#191970" d="M761.1266,-748C782.4888,-748 804.9308,-748 824.2536,-748"/>
<polygon fill="#191970" stroke="#191970" points="824.3453,-751.5001 834.3452,-748 824.3452,-744.5001 824.3453,-751.5001"/>
</g>
<!-- Node812&#45;&gt;Node808 -->
<g id="edge6" class="edge">
<title>Node812&#45;&gt;Node808</title>
<path fill="none" stroke="#191970" d="M403.2037,-785.012C380.6278,-783.1086 356.6244,-780.5748 336.2228,-777.8969"/>
<polygon fill="#191970" stroke="#191970" points="336.5967,-774.4155 326.2149,-776.5295 335.6491,-781.3511 336.5967,-774.4155"/>
</g>
<!-- Node814 -->
<g id="node8" class="node">
<title>Node814</title>
<g id="a_node8"><a xlink:href="../../d4/dc3/_n_f_type_8c.html#a9d801f33937a4a22981ff40632b5af79" target="_top" xlink:title="omc_NFType_unliftArray">
<polygon fill="#ffffff" stroke="#000000" points="419.5,-624.5 419.5,-643.5 544.5,-643.5 544.5,-624.5 419.5,-624.5"/>
<text text-anchor="middle" x="482" y="-631.5" font-family="Helvetica,sans-Serif" font-size="10.00" fill="#000000">omc_NFType_unliftArray</text>
</a>
</g>
</g>
<!-- Node813&#45;&gt;Node814 -->
<g id="edge8" class="edge">
<title>Node813&#45;&gt;Node814</title>
<path fill="none" stroke="#191970" d="M366.2747,-645.1897C380.4997,-643.8143 395.2297,-642.39 409.2197,-641.0373"/>
<polygon fill="#191970" stroke="#191970" points="409.6412,-644.5129 419.2579,-640.0667 408.9675,-637.5454 409.6412,-644.5129"/>
</g>
<!-- Node815 -->
<g id="node9" class="node">
<title>Node815</title>
<g id="a_node9"><a xlink:href="../../db/d0c/_n_f_expression_8c.html#a826cdb2ac12eb496e232d85ae33d644a" target="_top" xlink:title="omc_NFExpression_makeZero">
<polygon fill="#ffffff" stroke="#000000" points="1185,-448.5 1185,-467.5 1337,-467.5 1337,-448.5 1185,-448.5"/>
<text text-anchor="middle" x="1261" y="-455.5" font-family="Helvetica,sans-Serif" font-size="10.00" fill="#000000">omc_NFExpression_makeZero</text>
</a>
</g>
</g>
<!-- Node813&#45;&gt;Node815 -->
<g id="edge9" class="edge">
<title>Node813&#45;&gt;Node815</title>
<path fill="none" stroke="#191970" d="M323.4385,-637.9899C345.9156,-629.7661 375.1638,-620.2121 402,-615 523.3545,-591.4307 555.8779,-596 679.5,-596 679.5,-596 679.5,-596 876,-596 997.6268,-596 1039.0924,-629.0903 1149,-577 1195.7841,-554.8269 1232.7801,-503.7981 1250.1703,-476.3187"/>
<polygon fill="#191970" stroke="#191970" points="1253.2334,-478.0192 1255.4877,-467.6669 1247.2697,-474.3538 1253.2334,-478.0192"/>
</g>
<!-- Node816 -->
<g id="node10" class="node">
<title>Node816</title>
<g id="a_node10"><a xlink:href="../../dc/d36/_n_f_operator_8c.html#ac50169e1f47f94e763d5f1f61b1780d3" target="_top" xlink:title="omc_NFOperator_makeMul">
<polygon fill="#ffffff" stroke="#000000" points="413.5,-700.5 413.5,-719.5 550.5,-719.5 550.5,-700.5 413.5,-700.5"/>
<text text-anchor="middle" x="482" y="-707.5" font-family="Helvetica,sans-Serif" font-size="10.00" fill="#000000">omc_NFOperator_makeMul</text>
</a>
</g>
</g>
<!-- Node813&#45;&gt;Node816 -->
<g id="edge10" class="edge">
<title>Node813&#45;&gt;Node816</title>
<path fill="none" stroke="#191970" d="M328.6703,-668.0175C350.5166,-675.3777 377.5271,-684.1151 402,-691 410.7797,-693.47 420.16,-695.8905 429.2942,-698.1325"/>
<polygon fill="#191970" stroke="#191970" points="428.5274,-701.5478 439.0692,-700.489 430.168,-694.7427 428.5274,-701.5478"/>
</g>
<!-- Node817 -->
<g id="node11" class="node">
<title>Node817</title>
<g id="a_node11"><a xlink:href="../../dc/d36/_n_f_operator_8c.html#aa087f111067b23f769524db82aee34ab" target="_top" xlink:title="omc_NFOperator_makeAdd">
<polygon fill="#ffffff" stroke="#000000" points="413,-662.5 413,-681.5 551,-681.5 551,-662.5 413,-662.5"/>
<text text-anchor="middle" x="482" y="-669.5" font-family="Helvetica,sans-Serif" font-size="10.00" fill="#000000">omc_NFOperator_makeAdd</text>
</a>
</g>
</g>
<!-- Node813&#45;&gt;Node817 -->
<g id="edge11" class="edge">
<title>Node813&#45;&gt;Node817</title>
<path fill="none" stroke="#191970" d="M366.2747,-660.8103C378.3487,-661.9777 390.7866,-663.1804 402.8268,-664.3446"/>
<polygon fill="#191970" stroke="#191970" points="402.54,-667.8331 412.8305,-665.3119 403.2138,-660.8656 402.54,-667.8331"/>
</g>
<!-- Node818 -->
<g id="node12" class="node">
<title>Node818</title>
<g id="a_node12"><a xlink:href="../../d5/d79/_n_f_simplify_exp_8c.html#a092836efc4aee0c9d4e4c85552cdfdee" target="_top" xlink:title="omc_NFSimplifyExp_simplify\lBinaryOp">
<polygon fill="#ffffff" stroke="#000000" points="409,-267 409,-297 555,-297 555,-267 409,-267"/>
<text text-anchor="start" x="417" y="-285" font-family="Helvetica,sans-Serif" font-size="10.00" fill="#000000">omc_NFSimplifyExp_simplify</text>
<text text-anchor="middle" x="482" y="-274" font-family="Helvetica,sans-Serif" font-size="10.00" fill="#000000">BinaryOp</text>
</a>
</g>
</g>
<!-- Node813&#45;&gt;Node818 -->
<g id="edge12" class="edge">
<title>Node813&#45;&gt;Node818</title>
<path fill="none" stroke="#191970" d="M293.4464,-637.9969C323.6882,-580.8992 431.7738,-376.8291 469.1635,-306.2358"/>
<polygon fill="#191970" stroke="#191970" points="472.3671,-307.6651 473.9547,-297.1898 466.1812,-304.3887 472.3671,-307.6651"/>
</g>
<!-- Node819 -->
<g id="node13" class="node">
<title>Node819</title>
<g id="a_node13"><a xlink:href="../../db/d0c/_n_f_expression_8c.html#ac5812ec343cab5b9ebba4554fed4117b" target="_top" xlink:title="omc_NFExpression_isLiteral">
<polygon fill="#ffffff" stroke="#000000" points="608.5,-38.5 608.5,-57.5 750.5,-57.5 750.5,-38.5 608.5,-38.5"/>
<text text-anchor="middle" x="679.5" y="-45.5" font-family="Helvetica,sans-Serif" font-size="10.00" fill="#000000">omc_NFExpression_isLiteral</text>
</a>
</g>
</g>
<!-- Node818&#45;&gt;Node819 -->
<g id="edge13" class="edge">
<title>Node818&#45;&gt;Node819</title>
<path fill="none" stroke="#191970" d="M494.9585,-266.6466C530.1972,-224.8954 627.6113,-109.4782 664.8054,-65.4103"/>
<polygon fill="#191970" stroke="#191970" points="667.6298,-67.4904 671.4051,-57.591 662.2804,-62.9754 667.6298,-67.4904"/>
</g>
<!-- Node822 -->
<g id="node16" class="node">
<title>Node822</title>
<g id="a_node16"><a xlink:href="../../d8/d8f/_n_f_ceval_8c.html#acb7a1ae2004c23ac50b7347e7e938861" target="_top" xlink:title="omc_NFCeval_evalBinaryOp">
<polygon fill="#ffffff" stroke="#000000" points="608,-272.5 608,-291.5 751,-291.5 751,-272.5 608,-272.5"/>
<text text-anchor="middle" x="679.5" y="-279.5" font-family="Helvetica,sans-Serif" font-size="10.00" fill="#000000">omc_NFCeval_evalBinaryOp</text>
</a>
</g>
</g>
<!-- Node818&#45;&gt;Node822 -->
<g id="edge17" class="edge">
<title>Node818&#45;&gt;Node822</title>
<path fill="none" stroke="#191970" d="M555.261,-282C569.0417,-282 583.5332,-282 597.5586,-282"/>
<polygon fill="#191970" stroke="#191970" points="597.6721,-285.5001 607.672,-282 597.672,-278.5001 597.6721,-285.5001"/>
</g>
<!-- Node819&#45;&gt;Node819 -->
<g id="edge15" class="edge">
<title>Node819&#45;&gt;Node819</title>
<path fill="none" stroke="#191970" d="M649.2907,-57.7571C634.5943,-66.5653 644.6641,-76 679.5,-76 703.994,-76 716.244,-71.3356 716.25,-65.5043"/>
<polygon fill="#191970" stroke="#191970" points="718.8347,-63.1402 709.7093,-57.7571 713.486,-67.6559 718.8347,-63.1402"/>
</g>
<!-- Node820 -->
<g id="node14" class="node">
<title>Node820</title>
<g id="a_node14"><a xlink:href="../../da/d72/_compiler_2boot_2build_2list_8c.html#a470ca2e23df4b5cabfd40966cd5fe180" target="_top" xlink:title="omc_List_all">
<polygon fill="#ffffff" stroke="#000000" points="840.5,-.5 840.5,-19.5 911.5,-19.5 911.5,-.5 840.5,-.5"/>
<text text-anchor="middle" x="876" y="-7.5" font-family="Helvetica,sans-Serif" font-size="10.00" fill="#000000">omc_List_all</text>
</a>
</g>
</g>
<!-- Node819&#45;&gt;Node820 -->
<g id="edge14" class="edge">
<title>Node819&#45;&gt;Node820</title>
<path fill="none" stroke="#191970" d="M728.8316,-38.46C759.9842,-32.4356 799.946,-24.7076 830.3642,-18.8252"/>
<polygon fill="#191970" stroke="#191970" points="831.1341,-22.2413 840.2876,-16.9062 829.8049,-15.3686 831.1341,-22.2413"/>
</g>
<!-- Node821 -->
<g id="node15" class="node">
<title>Node821</title>
<g id="a_node15"><a xlink:href="../../d9/d7c/_compiler_2boot_2build_2util_8c.html#a1285f488d4e0ee94136a56e146dd9b34" target="_top" xlink:title="omc_Util_applyOptionOrDefault">
<polygon fill="#ffffff" stroke="#000000" points="798.5,-38.5 798.5,-57.5 953.5,-57.5 953.5,-38.5 798.5,-38.5"/>
<text text-anchor="middle" x="876" y="-45.5" font-family="Helvetica,sans-Serif" font-size="10.00" fill="#000000">omc_Util_applyOptionOrDefault</text>
</a>
</g>
</g>
<!-- Node819&#45;&gt;Node821 -->
<g id="edge16" class="edge">
<title>Node819&#45;&gt;Node821</title>
<path fill="none" stroke="#191970" d="M750.7188,-48C762.9387,-48 775.7635,-48 788.3534,-48"/>
<polygon fill="#191970" stroke="#191970" points="788.3838,-51.5001 798.3837,-48 788.3837,-44.5001 788.3838,-51.5001"/>
</g>
<!-- Node823 -->
<g id="node17" class="node">
<title>Node823</title>
<g id="a_node17"><a xlink:href="../../d8/d8f/_n_f_ceval_8c.html#a10bb8f58bb2c20725aacabc45711528a" target="_top" xlink:title="omc_NFCeval_evalBinaryAdd">
<polygon fill="#ffffff" stroke="#000000" points="1187,-202.5 1187,-221.5 1335,-221.5 1335,-202.5 1187,-202.5"/>
<text text-anchor="middle" x="1261" y="-209.5" font-family="Helvetica,sans-Serif" font-size="10.00" fill="#000000">omc_NFCeval_evalBinaryAdd</text>
</a>
</g>
</g>
<!-- Node822&#45;&gt;Node823 -->
<g id="edge18" class="edge">
<title>Node822&#45;&gt;Node823</title>
<path fill="none" stroke="#191970" d="M707.6332,-272.4324C731.2152,-264.8178 765.9206,-254.5491 797,-249 928.3123,-225.5546 1083.1916,-216.961 1176.6561,-213.8142"/>
<polygon fill="#191970" stroke="#191970" points="1177.0223,-217.3042 1186.9039,-213.4827 1176.7959,-210.3079 1177.0223,-217.3042"/>
</g>
<!-- Node824 -->
<g id="node18" class="node">
<title>Node824</title>
<g id="a_node18"><a xlink:href="../../d8/d8f/_n_f_ceval_8c.html#a14b43e15039d20bbba35ae8335d659e0" target="_top" xlink:title="omc_NFCeval_evalBinarySub">
<polygon fill="#ffffff" stroke="#000000" points="802,-152.5 802,-171.5 950,-171.5 950,-152.5 802,-152.5"/>
<text text-anchor="middle" x="876" y="-159.5" font-family="Helvetica,sans-Serif" font-size="10.00" fill="#000000">omc_NFCeval_evalBinarySub</text>
</a>
</g>
</g>
<!-- Node822&#45;&gt;Node824 -->
<g id="edge19" class="edge">
<title>Node822&#45;&gt;Node824</title>
<path fill="none" stroke="#191970" d="M688.6148,-272.3632C707.2253,-253.2211 751.6767,-210.1741 797,-186 805.4482,-181.494 814.8662,-177.7054 824.1728,-174.5668"/>
<polygon fill="#191970" stroke="#191970" points="825.3053,-177.8796 833.7854,-171.5284 823.1955,-171.205 825.3053,-177.8796"/>
</g>
<!-- Node825 -->
<g id="node19" class="node">
<title>Node825</title>
<g id="a_node19"><a xlink:href="../../d8/d8f/_n_f_ceval_8c.html#a89e780e578909c53a02454f6acbe657b" target="_top" xlink:title="omc_NFCeval_evalBinaryMul">
<polygon fill="#ffffff" stroke="#000000" points="1188,-145.5 1188,-164.5 1334,-164.5 1334,-145.5 1188,-145.5"/>
<text text-anchor="middle" x="1261" y="-152.5" font-family="Helvetica,sans-Serif" font-size="10.00" fill="#000000">omc_NFCeval_evalBinaryMul</text>
</a>
</g>
</g>
<!-- Node822&#45;&gt;Node825 -->
<g id="edge20" class="edge">
<title>Node822&#45;&gt;Node825</title>
<path fill="none" stroke="#191970" d="M683.8698,-272.4759C696.6878,-245.8545 737.0954,-170.8013 797,-143 940.844,-76.243 1137.7276,-119.2119 1221.1043,-142.6585"/>
<polygon fill="#191970" stroke="#191970" points="1220.3549,-146.0847 1230.9325,-145.4811 1222.2872,-139.3567 1220.3549,-146.0847"/>
</g>
<!-- Node826 -->
<g id="node20" class="node">
<title>Node826</title>
<g id="a_node20"><a xlink:href="../../d8/d8f/_n_f_ceval_8c.html#aa5067c44312ef4803cc69a3fa2e33f29" target="_top" xlink:title="omc_NFCeval_evalBinaryDiv">
<polygon fill="#ffffff" stroke="#000000" points="803,-76.5 803,-95.5 949,-95.5 949,-76.5 803,-76.5"/>
<text text-anchor="middle" x="876" y="-83.5" font-family="Helvetica,sans-Serif" font-size="10.00" fill="#000000">omc_NFCeval_evalBinaryDiv</text>
</a>
</g>
</g>
<!-- Node822&#45;&gt;Node826 -->
<g id="edge21" class="edge">
<title>Node822&#45;&gt;Node826</title>
<path fill="none" stroke="#191970" d="M683.4135,-272.11C695.5525,-242.7198 735.4875,-155.1525 797,-110 802.8788,-105.6848 809.541,-102.1368 816.443,-99.2216"/>
<polygon fill="#191970" stroke="#191970" points="817.8368,-102.4365 825.9526,-95.6259 815.361,-95.889 817.8368,-102.4365"/>
</g>
<!-- Node828 -->
<g id="node22" class="node">
<title>Node828</title>
<g id="a_node22"><a xlink:href="../../d8/d8f/_n_f_ceval_8c.html#aa86c2cc0a71be25eb561c0ba9b449f7a" target="_top" xlink:title="omc_NFCeval_evalBinaryPow">
<polygon fill="#ffffff" stroke="#000000" points="801,-548.5 801,-567.5 951,-567.5 951,-548.5 801,-548.5"/>
<text text-anchor="middle" x="876" y="-555.5" font-family="Helvetica,sans-Serif" font-size="10.00" fill="#000000">omc_NFCeval_evalBinaryPow</text>
</a>
</g>
</g>
<!-- Node822&#45;&gt;Node828 -->
<g id="edge23" class="edge">
<title>Node822&#45;&gt;Node828</title>
<path fill="none" stroke="#191970" d="M680.8748,-291.7465C686.792,-329.8997 713.6887,-470.3804 797,-539 799.0484,-540.6872 801.2223,-542.229 803.4923,-543.6377"/>
<polygon fill="#191970" stroke="#191970" points="802.1788,-546.9006 812.6616,-548.4371 805.425,-540.6988 802.1788,-546.9006"/>
</g>
<!-- Node830 -->
<g id="node24" class="node">
<title>Node830</title>
<g id="a_node24"><a xlink:href="../../d8/d8f/_n_f_ceval_8c.html#afb2602874249b274f0d0789258281b86" target="_top" xlink:title="omc_NFCeval_evalBinaryScalar\lArray">
<polygon fill="#ffffff" stroke="#000000" points="797,-481 797,-511 955,-511 955,-481 797,-481"/>
<text text-anchor="start" x="805" y="-499" font-family="Helvetica,sans-Serif" font-size="10.00" fill="#000000">omc_NFCeval_evalBinaryScalar</text>
<text text-anchor="middle" x="876" y="-488" font-family="Helvetica,sans-Serif" font-size="10.00" fill="#000000">Array</text>
</a>
</g>
</g>
<!-- Node822&#45;&gt;Node830 -->
<g id="edge25" class="edge">
<title>Node822&#45;&gt;Node830</title>
<path fill="none" stroke="#191970" d="M682.6391,-291.5767C693.3099,-322.6196 731.226,-421.3791 797,-472 798.7998,-473.3851 800.6794,-474.6908 802.622,-475.9214"/>
<polygon fill="#191970" stroke="#191970" points="801.0504,-479.0521 811.4914,-480.8509 804.451,-472.9336 801.0504,-479.0521"/>
</g>
<!-- Node831 -->
<g id="node25" class="node">
<title>Node831</title>
<g id="a_node25"><a xlink:href="../../d8/d8f/_n_f_ceval_8c.html#a29f018b2d091521471ccf0ed22fae33e" target="_top" xlink:title="omc_NFCeval_evalBinaryArray\lScalar">
<polygon fill="#ffffff" stroke="#000000" points="799,-414 799,-444 953,-444 953,-414 799,-414"/>
<text text-anchor="start" x="807" y="-432" font-family="Helvetica,sans-Serif" font-size="10.00" fill="#000000">omc_NFCeval_evalBinaryArray</text>
<text text-anchor="middle" x="876" y="-421" font-family="Helvetica,sans-Serif" font-size="10.00" fill="#000000">Scalar</text>
</a>
</g>
</g>
<!-- Node822&#45;&gt;Node831 -->
<g id="edge27" class="edge">
<title>Node822&#45;&gt;Node831</title>
<path fill="none" stroke="#191970" d="M685.9581,-291.5934C701.9747,-314.6492 745.9416,-373.5833 797,-405 799.661,-406.6374 802.4416,-408.1699 805.3021,-409.6035"/>
<polygon fill="#191970" stroke="#191970" points="804.1088,-412.9055 814.6612,-413.8532 807.0029,-406.5318 804.1088,-412.9055"/>
</g>
<!-- Node832 -->
<g id="node26" class="node">
<title>Node832</title>
<g id="a_node26"><a xlink:href="../../d8/d8f/_n_f_ceval_8c.html#a0a7c9131d352a4204f5c4019fcfb7984" target="_top" xlink:title="omc_NFCeval_evalBinaryMul\lVectorMatrix">
<polygon fill="#ffffff" stroke="#000000" points="803,-316 803,-346 949,-346 949,-316 803,-316"/>
<text text-anchor="start" x="811" y="-334" font-family="Helvetica,sans-Serif" font-size="10.00" fill="#000000">omc_NFCeval_evalBinaryMul</text>
<text text-anchor="middle" x="876" y="-323" font-family="Helvetica,sans-Serif" font-size="10.00" fill="#000000">VectorMatrix</text>
</a>
</g>
</g>
<!-- Node822&#45;&gt;Node832 -->
<g id="edge29" class="edge">
<title>Node822&#45;&gt;Node832</title>
<path fill="none" stroke="#191970" d="M717.8537,-291.564C742.8398,-297.7947 776.1835,-306.1094 805.811,-313.4974"/>
<polygon fill="#191970" stroke="#191970" points="805.149,-316.9394 815.6987,-315.963 806.8427,-310.1474 805.149,-316.9394"/>
</g>
<!-- Node834 -->
<g id="node28" class="node">
<title>Node834</title>
<g id="a_node28"><a xlink:href="../../d8/d8f/_n_f_ceval_8c.html#a39515355de321065ed30dc09cd2d0d7b" target="_top" xlink:title="omc_NFCeval_evalBinaryScalar\lProduct">
<polygon fill="#ffffff" stroke="#000000" points="991,-248 991,-278 1149,-278 1149,-248 991,-248"/>
<text text-anchor="start" x="999" y="-266" font-family="Helvetica,sans-Serif" font-size="10.00" fill="#000000">omc_NFCeval_evalBinaryScalar</text>
<text text-anchor="middle" x="1070" y="-255" font-family="Helvetica,sans-Serif" font-size="10.00" fill="#000000">Product</text>
</a>
</g>
</g>
<!-- Node822&#45;&gt;Node834 -->
<g id="edge38" class="edge">
<title>Node822&#45;&gt;Node834</title>
<path fill="none" stroke="#191970" d="M716.5128,-272.4458C739.5013,-267.0109 769.7599,-260.7535 797,-258 858.1448,-251.8192 927.3742,-253.181 980.8183,-256.0309"/>
<polygon fill="#191970" stroke="#191970" points="980.7682,-259.5335 990.9484,-256.5989 981.1601,-252.5445 980.7682,-259.5335"/>
</g>
<!-- Node836 -->
<g id="node30" class="node">
<title>Node836</title>
<g id="a_node30"><a xlink:href="../../d8/d8f/_n_f_ceval_8c.html#a31b5f83033684ec9a512f3c458246db5" target="_top" xlink:title="omc_NFCeval_evalBinaryMul\lMatrixVector">
<polygon fill="#ffffff" stroke="#000000" points="803,-267 803,-297 949,-297 949,-267 803,-267"/>
<text text-anchor="start" x="811" y="-285" font-family="Helvetica,sans-Serif" font-size="10.00" fill="#000000">omc_NFCeval_evalBinaryMul</text>
<text text-anchor="middle" x="876" y="-274" font-family="Helvetica,sans-Serif" font-size="10.00" fill="#000000">MatrixVector</text>
</a>
</g>
</g>
<!-- Node822&#45;&gt;Node836 -->
<g id="edge36" class="edge">
<title>Node822&#45;&gt;Node836</title>
<path fill="none" stroke="#191970" d="M751.2751,-282C764.642,-282 778.7153,-282 792.4007,-282"/>
<polygon fill="#191970" stroke="#191970" points="792.7723,-285.5001 802.7723,-282 792.7722,-278.5001 792.7723,-285.5001"/>
</g>
<!-- Node837 -->
<g id="node31" class="node">
<title>Node837</title>
<g id="a_node31"><a xlink:href="../../d8/d8f/_n_f_ceval_8c.html#a25b0a93f9842fe77a16b2ace3e89386c" target="_top" xlink:title="omc_NFCeval_evalBinaryMatrix\lProduct">
<polygon fill="#ffffff" stroke="#000000" points="797,-365 797,-395 955,-395 955,-365 797,-365"/>
<text text-anchor="start" x="805" y="-383" font-family="Helvetica,sans-Serif" font-size="10.00" fill="#000000">omc_NFCeval_evalBinaryMatrix</text>
<text text-anchor="middle" x="876" y="-372" font-family="Helvetica,sans-Serif" font-size="10.00" fill="#000000">Product</text>
</a>
</g>
</g>
<!-- Node822&#45;&gt;Node837 -->
<g id="edge39" class="edge">
<title>Node822&#45;&gt;Node837</title>
<path fill="none" stroke="#191970" d="M692.2396,-291.6427C713.1355,-307.0761 756.4327,-337.4693 797,-356 801.1458,-357.8938 805.4805,-359.6873 809.8931,-361.3764"/>
<polygon fill="#191970" stroke="#191970" points="809.0407,-364.7901 819.6349,-364.9054 811.4249,-358.2086 809.0407,-364.7901"/>
</g>
<!-- Node827 -->
<g id="node21" class="node">
<title>Node827</title>
<g id="a_node21"><a xlink:href="../../d8/d8f/_n_f_ceval_8c.html#a840d042e1cbabea5855e5adb06cc0a73" target="_top" xlink:title="omc_NFCeval_EvalTarget\l_hasInfo">
<polygon fill="#ffffff" stroke="#000000" points="1004,-65 1004,-95 1136,-95 1136,-65 1004,-65"/>
<text text-anchor="start" x="1012" y="-83" font-family="Helvetica,sans-Serif" font-size="10.00" fill="#000000">omc_NFCeval_EvalTarget</text>
<text text-anchor="middle" x="1070" y="-72" font-family="Helvetica,sans-Serif" font-size="10.00" fill="#000000">_hasInfo</text>
</a>
</g>
</g>
<!-- Node826&#45;&gt;Node827 -->
<g id="edge22" class="edge">
<title>Node826&#45;&gt;Node827</title>
<path fill="none" stroke="#191970" d="M949.0666,-83.7402C963.6406,-83.2895 978.9835,-82.8149 993.664,-82.3609"/>
<polygon fill="#191970" stroke="#191970" points="993.8172,-85.8579 1003.7041,-82.0504 993.6007,-78.8613 993.8172,-85.8579"/>
</g>
<!-- Node829 -->
<g id="node23" class="node">
<title>Node829</title>
<g id="a_node23"><a xlink:href="../../d3/d1b/netstream-main_8cpp.html#aed138f72d7301a9034a719a95c4903da" target="_top" xlink:title="e">
<polygon fill="#ffffff" stroke="#000000" points="1055.5,-548.5 1055.5,-567.5 1084.5,-567.5 1084.5,-548.5 1055.5,-548.5"/>
<text text-anchor="middle" x="1070" y="-555.5" font-family="Helvetica,sans-Serif" font-size="10.00" fill="#000000">e</text>
</a>
</g>
</g>
<!-- Node828&#45;&gt;Node829 -->
<g id="edge24" class="edge">
<title>Node828&#45;&gt;Node829</title>
<path fill="none" stroke="#191970" d="M951.0055,-558C984.3264,-558 1021.3024,-558 1045.0581,-558"/>
<polygon fill="#191970" stroke="#191970" points="1045.283,-561.5001 1055.2829,-558 1045.2829,-554.5001 1045.283,-561.5001"/>
</g>
<!-- Node830&#45;&gt;Node830 -->
<g id="edge26" class="edge">
<title>Node830&#45;&gt;Node830</title>
<path fill="none" stroke="#191970" d="M842.1915,-511.159C834.0391,-520.5566 845.3086,-529.5 876,-529.5 894.7026,-529.5 906.1931,-526.179 910.4715,-521.4579"/>
<polygon fill="#191970" stroke="#191970" points="913.9438,-520.9135 909.8085,-511.159 906.9582,-521.3632 913.9438,-520.9135"/>
</g>
<!-- Node831&#45;&gt;Node831 -->
<g id="edge28" class="edge">
<title>Node831&#45;&gt;Node831</title>
<path fill="none" stroke="#191970" d="M842.1915,-444.159C834.0391,-453.5566 845.3086,-462.5 876,-462.5 894.7026,-462.5 906.1931,-459.179 910.4715,-454.4579"/>
<polygon fill="#191970" stroke="#191970" points="913.9438,-453.9135 909.8085,-444.159 906.9582,-454.3632 913.9438,-453.9135"/>
</g>
<!-- Node833 -->
<g id="node27" class="node">
<title>Node833</title>
<g id="a_node27"><a xlink:href="../../db/d0c/_n_f_expression_8c.html#aea0d4ad2c8b8b2ba27a044ff88a356ab" target="_top" xlink:title="omc_NFExpression_transpose\lArray">
<polygon fill="#ffffff" stroke="#000000" points="994.5,-340 994.5,-370 1145.5,-370 1145.5,-340 994.5,-340"/>
<text text-anchor="start" x="1002.5" y="-358" font-family="Helvetica,sans-Serif" font-size="10.00" fill="#000000">omc_NFExpression_transpose</text>
<text text-anchor="middle" x="1070" y="-347" font-family="Helvetica,sans-Serif" font-size="10.00" fill="#000000">Array</text>
</a>
</g>
</g>
<!-- Node832&#45;&gt;Node833 -->
<g id="edge30" class="edge">
<title>Node832&#45;&gt;Node833</title>
<path fill="none" stroke="#191970" d="M949.0666,-340.0392C960.5308,-341.4574 972.4707,-342.9345 984.1898,-344.3843"/>
<polygon fill="#191970" stroke="#191970" points="984.06,-347.8948 994.4141,-345.6492 984.9195,-340.9478 984.06,-347.8948"/>
</g>
<!-- Node832&#45;&gt;Node834 -->
<g id="edge31" class="edge">
<title>Node832&#45;&gt;Node834</title>
<path fill="none" stroke="#191970" d="M927.5883,-315.9006C936.7549,-313.0548 946.186,-310.0208 955,-307 977.6072,-299.2519 1002.4005,-289.8799 1023.1593,-281.7799"/>
<polygon fill="#191970" stroke="#191970" points="1024.6632,-284.9497 1032.6937,-278.0388 1022.1062,-278.4334 1024.6632,-284.9497"/>
</g>
<!-- Node834&#45;&gt;Node815 -->
<g id="edge33" class="edge">
<title>Node834&#45;&gt;Node815</title>
<path fill="none" stroke="#191970" d="M1089.1581,-278.2417C1105.5696,-291.5871 1129.5622,-311.7943 1149,-331 1186.4125,-367.9658 1226.2336,-415.2905 1246.8247,-440.4415"/>
<polygon fill="#191970" stroke="#191970" points="1244.243,-442.814 1253.2706,-448.3596 1249.6716,-438.3947 1244.243,-442.814"/>
</g>
<!-- Node834&#45;&gt;Node823 -->
<g id="edge34" class="edge">
<title>Node834&#45;&gt;Node823</title>
<path fill="none" stroke="#191970" d="M1126.2732,-247.9742C1154.6673,-240.3925 1188.661,-231.3157 1215.3982,-224.1764"/>
<polygon fill="#191970" stroke="#191970" points="1216.5049,-227.5036 1225.2634,-221.5422 1214.699,-220.7405 1216.5049,-227.5036"/>
</g>
<!-- Node834&#45;&gt;Node825 -->
<g id="edge35" class="edge">
<title>Node834&#45;&gt;Node825</title>
<path fill="none" stroke="#191970" d="M1093.4481,-247.9374C1116.4523,-233.3491 1152.6841,-210.8738 1185,-193 1200.1034,-184.6464 1217.276,-175.9911 1231.4717,-169.0548"/>
<polygon fill="#191970" stroke="#191970" points="1233.2896,-172.0633 1240.7619,-164.5523 1230.2366,-165.7641 1233.2896,-172.0633"/>
</g>
<!-- Node835 -->
<g id="node29" class="node">
<title>Node835</title>
<g id="a_node29"><a xlink:href="../../d2/d57/build_2include_2omc_2c_2meta_2meta__modelica__builtin_8h.html#a6983369f3c3e3e8cc41ac483c9a9baf1" target="_top" xlink:title="listLength">
<polygon fill="#ffffff" stroke="#000000" points="1231.5,-253.5 1231.5,-272.5 1290.5,-272.5 1290.5,-253.5 1231.5,-253.5"/>
<text text-anchor="middle" x="1261" y="-260.5" font-family="Helvetica,sans-Serif" font-size="10.00" fill="#000000">listLength</text>
</a>
</g>
</g>
<!-- Node834&#45;&gt;Node835 -->
<g id="edge32" class="edge">
<title>Node834&#45;&gt;Node835</title>
<path fill="none" stroke="#191970" d="M1149.0657,-263C1173.8238,-263 1200.1013,-263 1220.9698,-263"/>
<polygon fill="#191970" stroke="#191970" points="1221.0505,-266.5001 1231.0504,-263 1221.0504,-259.5001 1221.0505,-266.5001"/>
</g>
<!-- Node836&#45;&gt;Node834 -->
<g id="edge37" class="edge">
<title>Node836&#45;&gt;Node834</title>
<path fill="none" stroke="#191970" d="M949.0666,-274.844C959.4039,-273.8316 970.1279,-272.7813 980.7281,-271.7431"/>
<polygon fill="#191970" stroke="#191970" points="981.2253,-275.2113 990.8365,-270.7531 980.5429,-268.2446 981.2253,-275.2113"/>
</g>
<!-- Node837&#45;&gt;Node833 -->
<g id="edge40" class="edge">
<title>Node837&#45;&gt;Node833</title>
<path fill="none" stroke="#191970" d="M955.187,-369.7955C964.7515,-368.5629 974.5553,-367.2996 984.209,-366.0555"/>
<polygon fill="#191970" stroke="#191970" points="984.7279,-369.5177 994.1985,-364.7682 983.8332,-362.5751 984.7279,-369.5177"/>
</g>
</g>
</svg>
