<?xml version="1.0" encoding="UTF-8" standalone="no"?>
<!DOCTYPE svg PUBLIC "-//W3C//DTD SVG 1.1//EN"
 "http://www.w3.org/Graphics/SVG/1.1/DTD/svg11.dtd">
<!-- Generated by graphviz version 2.40.1 (20161225.0304)
 -->
<!-- Title: boxptr_NFExpandExp_expand Pages: 1 -->
<svg width="812pt" height="72pt"
 viewBox="0.00 0.00 812.00 71.50" xmlns="http://www.w3.org/2000/svg" xmlns:xlink="http://www.w3.org/1999/xlink">
<g id="graph0" class="graph" transform="scale(1 1) rotate(0) translate(4 67.5)">
<title>boxptr_NFExpandExp_expand</title>
<polygon fill="#ffffff" stroke="transparent" points="-4,4 -4,-67.5 808,-67.5 808,4 -4,4"/>
<!-- Node0 -->
<g id="node1" class="node">
<title>Node0</title>
<polygon fill="#bfbfbf" stroke="#000000" points="0,-.5 0,-30.5 113,-30.5 113,-.5 0,-.5"/>
<text text-anchor="start" x="8" y="-18.5" font-family="Helvetica,sans-Serif" font-size="10.00" fill="#000000">boxptr_NFExpandExp</text>
<text text-anchor="middle" x="56.5" y="-7.5" font-family="Helvetica,sans-Serif" font-size="10.00" fill="#000000">_expand</text>
</g>
<!-- Node1 -->
<g id="node2" class="node">
<title>Node1</title>
<g id="a_node2"><a xlink:href="../../d3/dd0/_n_f_expand_exp_8c.html#abdbb203b2a38eba742e3420c19a5185c" target="_top" xlink:title="omc_NFExpandExp_expand">
<polygon fill="#ffffff" stroke="#000000" points="149,-6 149,-25 290,-25 290,-6 149,-6"/>
<text text-anchor="middle" x="219.5" y="-13" font-family="Helvetica,sans-Serif" font-size="10.00" fill="#000000">omc_NFExpandExp_expand</text>
</a>
</g>
</g>
<!-- Node0&#45;&gt;Node1 -->
<g id="edge1" class="edge">
<title>Node0&#45;&gt;Node1</title>
<path fill="none" stroke="#191970" d="M113.052,-15.5C121.3792,-15.5 130.091,-15.5 138.7907,-15.5"/>
<polygon fill="#191970" stroke="#191970" points="138.9742,-19.0001 148.9742,-15.5 138.9742,-12.0001 138.9742,-19.0001"/>
</g>
<!-- Node2 -->
<g id="node3" class="node">
<title>Node2</title>
<g id="a_node3"><a xlink:href="../../d3/dd0/_n_f_expand_exp_8c.html#aedfd70ecd722c7d205c160cc24d03623" target="_top" xlink:title="omc_NFExpandExp_expandCref">
<polygon fill="#ffffff" stroke="#000000" points="326,-44 326,-63 486,-63 486,-44 326,-44"/>
<text text-anchor="middle" x="406" y="-51" font-family="Helvetica,sans-Serif" font-size="10.00" fill="#000000">omc_NFExpandExp_expandCref</text>
</a>
</g>
</g>
<!-- Node1&#45;&gt;Node2 -->
<g id="edge2" class="edge">
<title>Node1&#45;&gt;Node2</title>
<path fill="none" stroke="#191970" d="M266.5618,-25.089C291.7268,-30.2165 322.8958,-36.5672 349.3786,-41.9632"/>
<polygon fill="#191970" stroke="#191970" points="348.7791,-45.4129 359.2766,-43.9799 350.1767,-38.5538 348.7791,-45.4129"/>
</g>
<!-- Node5 -->
<g id="node6" class="node">
<title>Node5</title>
<g id="a_node6"><a xlink:href="../../d3/dd0/_n_f_expand_exp_8c.html#a4ff230047c8e2d3044c57ddbf87be919" target="_top" xlink:title="omc_NFExpandExp_expandList">
<polygon fill="#ffffff" stroke="#000000" points="327.5,-6 327.5,-25 484.5,-25 484.5,-6 327.5,-6"/>
<text text-anchor="middle" x="406" y="-13" font-family="Helvetica,sans-Serif" font-size="10.00" fill="#000000">omc_NFExpandExp_expandList</text>
</a>
</g>
</g>
<!-- Node1&#45;&gt;Node5 -->
<g id="edge5" class="edge">
<title>Node1&#45;&gt;Node5</title>
<path fill="none" stroke="#191970" d="M290.0077,-8.9317C298.8513,-8.7878 307.9855,-8.7294 317.0651,-8.7564"/>
<polygon fill="#191970" stroke="#191970" points="317.2519,-12.2576 327.2747,-8.8233 317.2978,-5.2578 317.2519,-12.2576"/>
</g>
<!-- Node3 -->
<g id="node4" class="node">
<title>Node3</title>
<g id="a_node4"><a xlink:href="../../d4/dc3/_n_f_type_8c.html#a4ac6c39aec704bb854d57bf6ded378c1" target="_top" xlink:title="omc_NFType_hasZeroDimension">
<polygon fill="#ffffff" stroke="#000000" points="522,-44 522,-63 685,-63 685,-44 522,-44"/>
<text text-anchor="middle" x="603.5" y="-51" font-family="Helvetica,sans-Serif" font-size="10.00" fill="#000000">omc_NFType_hasZeroDimension</text>
</a>
</g>
</g>
<!-- Node2&#45;&gt;Node3 -->
<g id="edge3" class="edge">
<title>Node2&#45;&gt;Node3</title>
<path fill="none" stroke="#191970" d="M486.0461,-53.5C494.5,-53.5 503.1437,-53.5 511.7171,-53.5"/>
<polygon fill="#191970" stroke="#191970" points="511.7335,-57.0001 521.7335,-53.5 511.7335,-50.0001 511.7335,-57.0001"/>
</g>
<!-- Node4 -->
<g id="node5" class="node">
<title>Node4</title>
<g id="a_node5"><a xlink:href="../../da/d72/_compiler_2boot_2build_2list_8c.html#abb96b3079e0726f3b1683f7f314e7a51" target="_top" xlink:title="omc_List_exist">
<polygon fill="#ffffff" stroke="#000000" points="721,-44 721,-63 804,-63 804,-44 721,-44"/>
<text text-anchor="middle" x="762.5" y="-51" font-family="Helvetica,sans-Serif" font-size="10.00" fill="#000000">omc_List_exist</text>
</a>
</g>
</g>
<!-- Node3&#45;&gt;Node4 -->
<g id="edge4" class="edge">
<title>Node3&#45;&gt;Node4</title>
<path fill="none" stroke="#191970" d="M685.3288,-53.5C693.9961,-53.5 702.6264,-53.5 710.8073,-53.5"/>
<polygon fill="#191970" stroke="#191970" points="710.8983,-57.0001 720.8983,-53.5 710.8982,-50.0001 710.8983,-57.0001"/>
</g>
<!-- Node5&#45;&gt;Node1 -->
<g id="edge6" class="edge">
<title>Node5&#45;&gt;Node1</title>
<path fill="none" stroke="#191970" d="M327.2747,-22.1767C318.2851,-22.2681 309.111,-22.274 300.0975,-22.1945"/>
<polygon fill="#191970" stroke="#191970" points="300.0507,-18.6937 290.0077,-22.0683 299.9631,-25.6932 300.0507,-18.6937"/>
</g>
</g>
</svg>
