<?xml version="1.0" encoding="UTF-8" standalone="no"?>
<!DOCTYPE svg PUBLIC "-//W3C//DTD SVG 1.1//EN"
 "http://www.w3.org/Graphics/SVG/1.1/DTD/svg11.dtd">
<!-- Generated by graphviz version 2.40.1 (20161225.0304)
 -->
<!-- Title: omc_UnitParserExt_registerWeight Pages: 1 -->
<svg width="530pt" height="88pt"
 viewBox="0.00 0.00 530.00 88.00" xmlns="http://www.w3.org/2000/svg" xmlns:xlink="http://www.w3.org/1999/xlink">
<g id="graph0" class="graph" transform="scale(1 1) rotate(0) translate(4 84)">
<title>omc_UnitParserExt_registerWeight</title>
<polygon fill="#ffffff" stroke="transparent" points="-4,4 -4,-84 526,-84 526,4 -4,4"/>
<!-- Node179 -->
<g id="node1" class="node">
<title>Node179</title>
<polygon fill="#bfbfbf" stroke="#000000" points="0,-24.5 0,-54.5 140,-54.5 140,-24.5 0,-24.5"/>
<text text-anchor="start" x="8" y="-42.5" font-family="Helvetica,sans-Serif" font-size="10.00" fill="#000000">omc_UnitParserExt_register</text>
<text text-anchor="middle" x="70" y="-31.5" font-family="Helvetica,sans-Serif" font-size="10.00" fill="#000000">Weight</text>
</g>
<!-- Node180 -->
<g id="node2" class="node">
<title>Node180</title>
<g id="a_node2"><a xlink:href="../../d1/d2e/_unit_absyn_builder_8c.html#ab05d82c31278fda873161d2a85d10091" target="_top" xlink:title="omc_UnitAbsynBuilder\l_registerUnitWeightDefineunits2">
<polygon fill="#ffffff" stroke="#000000" points="176,-49.5 176,-79.5 334,-79.5 334,-49.5 176,-49.5"/>
<text text-anchor="start" x="184" y="-67.5" font-family="Helvetica,sans-Serif" font-size="10.00" fill="#000000">omc_UnitAbsynBuilder</text>
<text text-anchor="middle" x="255" y="-56.5" font-family="Helvetica,sans-Serif" font-size="10.00" fill="#000000">_registerUnitWeightDefineunits2</text>
</a>
</g>
</g>
<!-- Node179&#45;&gt;Node180 -->
<g id="edge1" class="edge">
<title>Node179&#45;&gt;Node180</title>
<path fill="none" stroke="#191970" d="M150.1376,-50.3294C158.6704,-51.4825 167.3462,-52.6549 175.8673,-53.8064"/>
<polygon fill="#191970" stroke="#191970" points="150.583,-46.8579 140.2044,-48.9871 149.6455,-53.7948 150.583,-46.8579"/>
</g>
<!-- Node182 -->
<g id="node4" class="node">
<title>Node182</title>
<g id="a_node4"><a xlink:href="../../d6/d92/_unit_parser_ext_8h.html#a6a5d393fd87a5719bc68d678be6de3a1" target="_top" xlink:title="boxptr_UnitParserExt\l_registerWeight">
<polygon fill="#ffffff" stroke="#000000" points="200,-.5 200,-30.5 310,-30.5 310,-.5 200,-.5"/>
<text text-anchor="start" x="208" y="-18.5" font-family="Helvetica,sans-Serif" font-size="10.00" fill="#000000">boxptr_UnitParserExt</text>
<text text-anchor="middle" x="255" y="-7.5" font-family="Helvetica,sans-Serif" font-size="10.00" fill="#000000">_registerWeight</text>
</a>
</g>
</g>
<!-- Node179&#45;&gt;Node182 -->
<g id="edge3" class="edge">
<title>Node179&#45;&gt;Node182</title>
<path fill="none" stroke="#191970" d="M150.4843,-29.0588C167.1359,-26.8986 184.3159,-24.6698 199.8164,-22.659"/>
<polygon fill="#191970" stroke="#191970" points="149.6709,-25.6349 140.2044,-30.3924 150.5716,-32.5767 149.6709,-25.6349"/>
</g>
<!-- Node181 -->
<g id="node3" class="node">
<title>Node181</title>
<g id="a_node3"><a xlink:href="../../d1/d2e/_unit_absyn_builder_8c.html#a861793b04ef65a123083fc31d4450b3e" target="_top" xlink:title="omc_UnitAbsynBuilder\l_registerUnitWeightDefineunits">
<polygon fill="#ffffff" stroke="#000000" points="370,-49.5 370,-79.5 522,-79.5 522,-49.5 370,-49.5"/>
<text text-anchor="start" x="378" y="-67.5" font-family="Helvetica,sans-Serif" font-size="10.00" fill="#000000">omc_UnitAbsynBuilder</text>
<text text-anchor="middle" x="446" y="-56.5" font-family="Helvetica,sans-Serif" font-size="10.00" fill="#000000">_registerUnitWeightDefineunits</text>
</a>
</g>
</g>
<!-- Node180&#45;&gt;Node181 -->
<g id="edge2" class="edge">
<title>Node180&#45;&gt;Node181</title>
<path fill="none" stroke="#191970" d="M344.0891,-64.5C352.6688,-64.5 361.3178,-64.5 369.7575,-64.5"/>
<polygon fill="#191970" stroke="#191970" points="344.0658,-61.0001 334.0657,-64.5 344.0657,-68.0001 344.0658,-61.0001"/>
</g>
</g>
</svg>
