<?xml version="1.0" encoding="UTF-8" standalone="no"?>
<!DOCTYPE svg PUBLIC "-//W3C//DTD SVG 1.1//EN"
 "http://www.w3.org/Graphics/SVG/1.1/DTD/svg11.dtd">
<!-- Generated by graphviz version 2.40.1 (20161225.0304)
 -->
<!-- Title: omc_UnitParserExt_unit2str Pages: 1 -->
<svg width="947pt" height="112pt"
 viewBox="0.00 0.00 947.00 112.00" xmlns="http://www.w3.org/2000/svg" xmlns:xlink="http://www.w3.org/1999/xlink">
<g id="graph0" class="graph" transform="scale(1 1) rotate(0) translate(4 108)">
<title>omc_UnitParserExt_unit2str</title>
<polygon fill="#ffffff" stroke="transparent" points="-4,4 -4,-108 943,-108 943,4 -4,4"/>
<!-- Node307 -->
<g id="node1" class="node">
<title>Node307</title>
<polygon fill="#bfbfbf" stroke="#000000" points="0,-30 0,-49 140,-49 140,-30 0,-30"/>
<text text-anchor="middle" x="70" y="-37" font-family="Helvetica,sans-Serif" font-size="10.00" fill="#000000">omc_UnitParserExt_unit2str</text>
</g>
<!-- Node308 -->
<g id="node2" class="node">
<title>Node308</title>
<g id="a_node2"><a xlink:href="../../d0/d07/_unit_absyn_builder_8h.html#ab1fbc2090990a9d6d53ad18d974f5dce" target="_top" xlink:title="omc_UnitAbsynBuilder\l_unit2str">
<polygon fill="#ffffff" stroke="#000000" points="176,-49.5 176,-79.5 292,-79.5 292,-49.5 176,-49.5"/>
<text text-anchor="start" x="184" y="-67.5" font-family="Helvetica,sans-Serif" font-size="10.00" fill="#000000">omc_UnitAbsynBuilder</text>
<text text-anchor="middle" x="234" y="-56.5" font-family="Helvetica,sans-Serif" font-size="10.00" fill="#000000">_unit2str</text>
</a>
</g>
</g>
<!-- Node307&#45;&gt;Node308 -->
<g id="edge1" class="edge">
<title>Node307&#45;&gt;Node308</title>
<path fill="none" stroke="#191970" d="M142.575,-50.5633C153.6764,-52.2555 165.0113,-53.9834 175.7514,-55.6206"/>
<polygon fill="#191970" stroke="#191970" points="142.8825,-47.0698 132.4692,-49.0227 141.8275,-53.9898 142.8825,-47.0698"/>
</g>
<!-- Node315 -->
<g id="node9" class="node">
<title>Node315</title>
<g id="a_node9"><a xlink:href="../../d6/d92/_unit_parser_ext_8h.html#ab325baba53c8d87a68472fd989fba3f1" target="_top" xlink:title="boxptr_UnitParserExt\l_unit2str">
<polygon fill="#ffffff" stroke="#000000" points="179,-.5 179,-30.5 289,-30.5 289,-.5 179,-.5"/>
<text text-anchor="start" x="187" y="-18.5" font-family="Helvetica,sans-Serif" font-size="10.00" fill="#000000">boxptr_UnitParserExt</text>
<text text-anchor="middle" x="234" y="-7.5" font-family="Helvetica,sans-Serif" font-size="10.00" fill="#000000">_unit2str</text>
</a>
</g>
</g>
<!-- Node307&#45;&gt;Node315 -->
<g id="edge8" class="edge">
<title>Node307&#45;&gt;Node315</title>
<path fill="none" stroke="#191970" d="M145.2134,-28.4932C156.5839,-26.8292 168.1296,-25.1396 178.968,-23.5535"/>
<polygon fill="#191970" stroke="#191970" points="144.6762,-25.0344 135.2884,-29.9456 145.6898,-31.9606 144.6762,-25.0344"/>
</g>
<!-- Node309 -->
<g id="node3" class="node">
<title>Node309</title>
<g id="a_node3"><a xlink:href="../../db/dd4/_inst_util_8c.html#a15c7c642e658dc9504b0c710431e1c77" target="_top" xlink:title="omc_InstUtil_updateDeduced\lUnits2">
<polygon fill="#ffffff" stroke="#000000" points="328,-73.5 328,-103.5 474,-103.5 474,-73.5 328,-73.5"/>
<text text-anchor="start" x="336" y="-91.5" font-family="Helvetica,sans-Serif" font-size="10.00" fill="#000000">omc_InstUtil_updateDeduced</text>
<text text-anchor="middle" x="401" y="-80.5" font-family="Helvetica,sans-Serif" font-size="10.00" fill="#000000">Units2</text>
</a>
</g>
</g>
<!-- Node308&#45;&gt;Node309 -->
<g id="edge2" class="edge">
<title>Node308&#45;&gt;Node309</title>
<path fill="none" stroke="#191970" d="M302.5105,-74.3458C310.8967,-75.551 319.4914,-76.7862 327.9412,-78.0005"/>
<polygon fill="#191970" stroke="#191970" points="302.8047,-70.8522 292.4085,-72.894 301.8089,-77.781 302.8047,-70.8522"/>
</g>
<!-- Node310 -->
<g id="node4" class="node">
<title>Node310</title>
<g id="a_node4"><a xlink:href="../../d1/d2e/_unit_absyn_builder_8c.html#a6dff5ede3982cbbcad9635c0a0893f74" target="_top" xlink:title="omc_UnitAbsynBuilder\l_printUnit">
<polygon fill="#ffffff" stroke="#000000" points="343,-24.5 343,-54.5 459,-54.5 459,-24.5 343,-24.5"/>
<text text-anchor="start" x="351" y="-42.5" font-family="Helvetica,sans-Serif" font-size="10.00" fill="#000000">omc_UnitAbsynBuilder</text>
<text text-anchor="middle" x="401" y="-31.5" font-family="Helvetica,sans-Serif" font-size="10.00" fill="#000000">_printUnit</text>
</a>
</g>
</g>
<!-- Node308&#45;&gt;Node310 -->
<g id="edge3" class="edge">
<title>Node308&#45;&gt;Node310</title>
<path fill="none" stroke="#191970" d="M302.5332,-54.2405C315.9402,-52.2335 329.8793,-50.1468 342.9065,-48.1966"/>
<polygon fill="#191970" stroke="#191970" points="301.7801,-50.8142 292.4085,-55.7562 302.8165,-57.7371 301.7801,-50.8142"/>
</g>
<!-- Node311 -->
<g id="node5" class="node">
<title>Node311</title>
<g id="a_node5"><a xlink:href="../../d1/d2e/_unit_absyn_builder_8c.html#a579581d2a754c16d13494f4daeb2f76c" target="_top" xlink:title="omc_UnitAbsynBuilder\l_printStore2">
<polygon fill="#ffffff" stroke="#000000" points="510,-24.5 510,-54.5 626,-54.5 626,-24.5 510,-24.5"/>
<text text-anchor="start" x="518" y="-42.5" font-family="Helvetica,sans-Serif" font-size="10.00" fill="#000000">omc_UnitAbsynBuilder</text>
<text text-anchor="middle" x="568" y="-31.5" font-family="Helvetica,sans-Serif" font-size="10.00" fill="#000000">_printStore2</text>
</a>
</g>
</g>
<!-- Node310&#45;&gt;Node311 -->
<g id="edge4" class="edge">
<title>Node310&#45;&gt;Node311</title>
<path fill="none" stroke="#191970" d="M469.5332,-39.5C482.9402,-39.5 496.8793,-39.5 509.9065,-39.5"/>
<polygon fill="#191970" stroke="#191970" points="469.4085,-36.0001 459.4085,-39.5 469.4085,-43.0001 469.4085,-36.0001"/>
</g>
<!-- Node312 -->
<g id="node6" class="node">
<title>Node312</title>
<g id="a_node6"><a xlink:href="../../d1/d2e/_unit_absyn_builder_8c.html#a07c3716c9c1b890eac943817ede1ff89" target="_top" xlink:title="boxptr_UnitAbsynBuilder\l_printStore2">
<polygon fill="#ffffff" stroke="#000000" points="662,-49.5 662,-79.5 787,-79.5 787,-49.5 662,-49.5"/>
<text text-anchor="start" x="670" y="-67.5" font-family="Helvetica,sans-Serif" font-size="10.00" fill="#000000">boxptr_UnitAbsynBuilder</text>
<text text-anchor="middle" x="724.5" y="-56.5" font-family="Helvetica,sans-Serif" font-size="10.00" fill="#000000">_printStore2</text>
</a>
</g>
</g>
<!-- Node311&#45;&gt;Node312 -->
<g id="edge5" class="edge">
<title>Node311&#45;&gt;Node312</title>
<path fill="none" stroke="#191970" d="M636.2255,-50.3986C644.787,-51.7663 653.5114,-53.16 661.9794,-54.5127"/>
<polygon fill="#191970" stroke="#191970" points="636.7018,-46.9304 626.2748,-48.8091 635.5975,-53.8428 636.7018,-46.9304"/>
</g>
<!-- Node313 -->
<g id="node7" class="node">
<title>Node313</title>
<g id="a_node7"><a xlink:href="../../d0/d07/_unit_absyn_builder_8h.html#a453716e208f0e70e2098d7c0a569985b" target="_top" xlink:title="omc_UnitAbsynBuilder\l_printStore">
<polygon fill="#ffffff" stroke="#000000" points="666.5,-.5 666.5,-30.5 782.5,-30.5 782.5,-.5 666.5,-.5"/>
<text text-anchor="start" x="674.5" y="-18.5" font-family="Helvetica,sans-Serif" font-size="10.00" fill="#000000">omc_UnitAbsynBuilder</text>
<text text-anchor="middle" x="724.5" y="-7.5" font-family="Helvetica,sans-Serif" font-size="10.00" fill="#000000">_printStore</text>
</a>
</g>
</g>
<!-- Node311&#45;&gt;Node313 -->
<g id="edge6" class="edge">
<title>Node311&#45;&gt;Node313</title>
<path fill="none" stroke="#191970" d="M636.2421,-29.0348C646.3096,-27.4909 656.6017,-25.9125 666.4372,-24.4042"/>
<polygon fill="#191970" stroke="#191970" points="635.6287,-25.5878 626.2748,-30.5633 636.6898,-32.5069 635.6287,-25.5878"/>
</g>
<!-- Node314 -->
<g id="node8" class="node">
<title>Node314</title>
<g id="a_node8"><a xlink:href="../../d0/d07/_unit_absyn_builder_8h.html#a00a1c0d7eaf5e12bb0f6fd8bf6765283" target="_top" xlink:title="omc_UnitAbsynBuilder\l_printInstStore">
<polygon fill="#ffffff" stroke="#000000" points="823,-.5 823,-30.5 939,-30.5 939,-.5 823,-.5"/>
<text text-anchor="start" x="831" y="-18.5" font-family="Helvetica,sans-Serif" font-size="10.00" fill="#000000">omc_UnitAbsynBuilder</text>
<text text-anchor="middle" x="881" y="-7.5" font-family="Helvetica,sans-Serif" font-size="10.00" fill="#000000">_printInstStore</text>
</a>
</g>
</g>
<!-- Node313&#45;&gt;Node314 -->
<g id="edge7" class="edge">
<title>Node313&#45;&gt;Node314</title>
<path fill="none" stroke="#191970" d="M793.0568,-15.5C803.024,-15.5 813.2042,-15.5 822.9372,-15.5"/>
<polygon fill="#191970" stroke="#191970" points="792.7749,-12.0001 782.7748,-15.5 792.7748,-19.0001 792.7749,-12.0001"/>
</g>
</g>
</svg>
