<?xml version="1.0" encoding="UTF-8" standalone="no"?>
<!DOCTYPE svg PUBLIC "-//W3C//DTD SVG 1.1//EN"
 "http://www.w3.org/Graphics/SVG/1.1/DTD/svg11.dtd">
<!-- Generated by graphviz version 2.40.1 (20161225.0304)
 -->
<!-- Title: Teuchos::SimpleFunctionXMLConverter&lt; OperandType &gt; Pages: 1 -->
<svg width="922pt" height="186pt"
 viewBox="0.00 0.00 922.00 186.00" xmlns="http://www.w3.org/2000/svg" xmlns:xlink="http://www.w3.org/1999/xlink">
<g id="graph0" class="graph" transform="scale(1 1) rotate(0) translate(4 182)">
<title>Teuchos::SimpleFunctionXMLConverter&lt; OperandType &gt;</title>
<polygon fill="#ffffff" stroke="transparent" points="-4,4 -4,-182 918,-182 918,4 -4,4"/>
<!-- Node0 -->
<g id="node1" class="node">
<title>Node0</title>
<polygon fill="#bfbfbf" stroke="#000000" points="531,-73.5 531,-103.5 722,-103.5 722,-73.5 531,-73.5"/>
<text text-anchor="start" x="539" y="-91.5" font-family="Helvetica,sans-Serif" font-size="10.00" fill="#000000">Teuchos::SimpleFunctionXMLConverter</text>
<text text-anchor="middle" x="626.5" y="-80.5" font-family="Helvetica,sans-Serif" font-size="10.00" fill="#000000">&lt; OperandType &gt;</text>
</g>
<!-- Node4 -->
<g id="node5" class="node">
<title>Node4</title>
<g id="a_node5"><a xlink:href="../../d7/dca/class_teuchos_1_1_addition_function_x_m_l_converter.html" target="_top" xlink:title="Class for converting AdditionFunction objects to and from XML. ">
<polygon fill="#ffffff" stroke="#000000" points="758,-147.5 758,-177.5 914,-177.5 914,-147.5 758,-147.5"/>
<text text-anchor="start" x="766" y="-165.5" font-family="Helvetica,sans-Serif" font-size="10.00" fill="#000000">Teuchos::AdditionFunction</text>
<text text-anchor="middle" x="836" y="-154.5" font-family="Helvetica,sans-Serif" font-size="10.00" fill="#000000">XMLConverter&lt; OperandType &gt;</text>
</a>
</g>
</g>
<!-- Node0&#45;&gt;Node4 -->
<g id="edge4" class="edge">
<title>Node0&#45;&gt;Node4</title>
<path fill="none" stroke="#191970" d="M673.8113,-107.3395C698.7206,-117.0421 729.8586,-128.8318 758,-138.5 766.8437,-141.5383 776.3117,-144.6052 785.4945,-147.484"/>
<polygon fill="#191970" stroke="#191970" points="674.8304,-103.98 664.2425,-103.5959 672.2799,-110.4988 674.8304,-103.98"/>
</g>
<!-- Node5 -->
<g id="node6" class="node">
<title>Node5</title>
<g id="a_node6"><a xlink:href="../../d0/d39/class_teuchos_1_1_division_function_x_m_l_converter.html" target="_top" xlink:title="Class for converting DivisionFunction objects to and from XML. ">
<polygon fill="#ffffff" stroke="#000000" points="758,-98.5 758,-128.5 914,-128.5 914,-98.5 758,-98.5"/>
<text text-anchor="start" x="766" y="-116.5" font-family="Helvetica,sans-Serif" font-size="10.00" fill="#000000">Teuchos::DivisionFunction</text>
<text text-anchor="middle" x="836" y="-105.5" font-family="Helvetica,sans-Serif" font-size="10.00" fill="#000000">XMLConverter&lt; OperandType &gt;</text>
</a>
</g>
</g>
<!-- Node0&#45;&gt;Node5 -->
<g id="edge5" class="edge">
<title>Node0&#45;&gt;Node5</title>
<path fill="none" stroke="#191970" d="M732.1854,-101.1116C740.8245,-102.1425 749.4551,-103.1724 757.8422,-104.1733"/>
<polygon fill="#191970" stroke="#191970" points="732.3983,-97.6123 722.054,-99.9026 731.5688,-104.563 732.3983,-97.6123"/>
</g>
<!-- Node6 -->
<g id="node7" class="node">
<title>Node6</title>
<g id="a_node7"><a xlink:href="../../db/d4e/class_teuchos_1_1_multiplication_function_x_m_l_converter.html" target="_top" xlink:title="Class for converting MultiplicationFunction objects to and from XML. ">
<polygon fill="#ffffff" stroke="#000000" points="758,-49.5 758,-79.5 914,-79.5 914,-49.5 758,-49.5"/>
<text text-anchor="start" x="766" y="-67.5" font-family="Helvetica,sans-Serif" font-size="10.00" fill="#000000">Teuchos::MultiplicationFunction</text>
<text text-anchor="middle" x="836" y="-56.5" font-family="Helvetica,sans-Serif" font-size="10.00" fill="#000000">XMLConverter&lt; OperandType &gt;</text>
</a>
</g>
</g>
<!-- Node0&#45;&gt;Node6 -->
<g id="edge6" class="edge">
<title>Node0&#45;&gt;Node6</title>
<path fill="none" stroke="#191970" d="M732.1854,-76.3928C740.8245,-75.4032 749.4551,-74.4145 757.8422,-73.4536"/>
<polygon fill="#191970" stroke="#191970" points="731.5906,-72.938 722.054,-77.5535 732.3874,-79.8925 731.5906,-72.938"/>
</g>
<!-- Node7 -->
<g id="node8" class="node">
<title>Node7</title>
<g id="a_node8"><a xlink:href="../../de/de7/class_teuchos_1_1_subtraction_function_x_m_l_converter.html" target="_top" xlink:title="Class for converting SubtractionFunction objects to and from XML. ">
<polygon fill="#ffffff" stroke="#000000" points="758,-.5 758,-30.5 914,-30.5 914,-.5 758,-.5"/>
<text text-anchor="start" x="766" y="-18.5" font-family="Helvetica,sans-Serif" font-size="10.00" fill="#000000">Teuchos::SubtractionFunction</text>
<text text-anchor="middle" x="836" y="-7.5" font-family="Helvetica,sans-Serif" font-size="10.00" fill="#000000">XMLConverter&lt; OperandType &gt;</text>
</a>
</g>
</g>
<!-- Node0&#45;&gt;Node7 -->
<g id="edge7" class="edge">
<title>Node0&#45;&gt;Node7</title>
<path fill="none" stroke="#191970" d="M674.6578,-69.7893C699.4374,-60.357 730.2026,-48.9466 758,-39.5 766.8537,-36.4912 776.3267,-33.4386 785.5111,-30.5647"/>
<polygon fill="#191970" stroke="#191970" points="673.2186,-66.5924 665.1271,-73.4318 675.7177,-73.1311 673.2186,-66.5924"/>
</g>
<!-- Node1 -->
<g id="node2" class="node">
<title>Node1</title>
<g id="a_node2"><a xlink:href="../../d0/da8/class_teuchos_1_1_function_object_x_m_l_converter.html" target="_top" xlink:title="An abstract base class for converting FunctionObjects to and from XML. ">
<polygon fill="#ffffff" stroke="#000000" points="306,-79 306,-98 495,-98 495,-79 306,-79"/>
<text text-anchor="middle" x="400.5" y="-86" font-family="Helvetica,sans-Serif" font-size="10.00" fill="#000000">Teuchos::FunctionObjectXMLConverter</text>
</a>
</g>
</g>
<!-- Node1&#45;&gt;Node0 -->
<g id="edge1" class="edge">
<title>Node1&#45;&gt;Node0</title>
<path fill="none" stroke="#191970" d="M505.0906,-88.5C513.6924,-88.5 522.3595,-88.5 530.8911,-88.5"/>
<polygon fill="#191970" stroke="#191970" points="505.0349,-85.0001 495.0349,-88.5 505.0348,-92.0001 505.0349,-85.0001"/>
</g>
<!-- Node2 -->
<g id="node3" class="node">
<title>Node2</title>
<g id="a_node3"><a xlink:href="../../de/d8a/class_teuchos_1_1_describable.html" target="_top" xlink:title="Base class for all objects that can describe themselves. ">
<polygon fill="#ffffff" stroke="#000000" points="158,-79 158,-98 270,-98 270,-79 158,-79"/>
<text text-anchor="middle" x="214" y="-86" font-family="Helvetica,sans-Serif" font-size="10.00" fill="#000000">Teuchos::Describable</text>
</a>
</g>
</g>
<!-- Node2&#45;&gt;Node1 -->
<g id="edge2" class="edge">
<title>Node2&#45;&gt;Node1</title>
<path fill="none" stroke="#191970" d="M280.4448,-88.5C288.6712,-88.5 297.2017,-88.5 305.7491,-88.5"/>
<polygon fill="#191970" stroke="#191970" points="280.2091,-85.0001 270.2091,-88.5 280.209,-92.0001 280.2091,-85.0001"/>
</g>
<!-- Node3 -->
<g id="node4" class="node">
<title>Node3</title>
<g id="a_node4"><a xlink:href="../../df/d61/class_teuchos_1_1_labeled_object.html" target="_top" xlink:title="Base class for objects that contain a std::string label. ">
<polygon fill="#ffffff" stroke="#000000" points="0,-79 0,-98 122,-98 122,-79 0,-79"/>
<text text-anchor="middle" x="61" y="-86" font-family="Helvetica,sans-Serif" font-size="10.00" fill="#000000">Teuchos::LabeledObject</text>
</a>
</g>
</g>
<!-- Node3&#45;&gt;Node2 -->
<g id="edge3" class="edge">
<title>Node3&#45;&gt;Node2</title>
<path fill="none" stroke="#191970" d="M132.5374,-88.5C140.9448,-88.5 149.4326,-88.5 157.5921,-88.5"/>
<polygon fill="#191970" stroke="#191970" points="132.3494,-85.0001 122.3494,-88.5 132.3493,-92.0001 132.3494,-85.0001"/>
</g>
</g>
</svg>
