<?xml version="1.0" encoding="UTF-8" standalone="no"?>
<!DOCTYPE svg PUBLIC "-//W3C//DTD SVG 1.1//EN"
 "http://www.w3.org/Graphics/SVG/1.1/DTD/svg11.dtd">
<!-- Generated by graphviz version 2.40.1 (20161225.0304)
 -->
<!-- Title: fill_zlib_filefunc64_32_def_from_filefunc32 Pages: 1 -->
<svg width="228pt" height="66pt"
 viewBox="0.00 0.00 228.00 66.00" xmlns="http://www.w3.org/2000/svg" xmlns:xlink="http://www.w3.org/1999/xlink">
<g id="graph0" class="graph" transform="scale(1 1) rotate(0) translate(4 62)">
<title>fill_zlib_filefunc64_32_def_from_filefunc32</title>
<polygon fill="#ffffff" stroke="transparent" points="-4,4 -4,-62 224,-62 224,4 -4,4"/>
<!-- Node1 -->
<g id="node1" class="node">
<title>Node1</title>
<polygon fill="#bfbfbf" stroke="#000000" points="0,-14 0,-44 123,-44 123,-14 0,-14"/>
<text text-anchor="start" x="8" y="-32" font-family="Helvetica,sans-Serif" font-size="10.00" fill="#000000">fill_zlib_filefunc64</text>
<text text-anchor="middle" x="61.5" y="-21" font-family="Helvetica,sans-Serif" font-size="10.00" fill="#000000">_32_def_from_filefunc32</text>
</g>
<!-- Node2 -->
<g id="node2" class="node">
<title>Node2</title>
<g id="a_node2"><a xlink:href="../../d6/da7/unzip_8c.html#a920361c17f591352b947778d75249d5d" target="_top" xlink:title="unzOpen2">
<polygon fill="#ffffff" stroke="#000000" points="159,-38.5 159,-57.5 220,-57.5 220,-38.5 159,-38.5"/>
<text text-anchor="middle" x="189.5" y="-45.5" font-family="Helvetica,sans-Serif" font-size="10.00" fill="#000000">unzOpen2</text>
</a>
</g>
</g>
<!-- Node1&#45;&gt;Node2 -->
<g id="edge1" class="edge">
<title>Node1&#45;&gt;Node2</title>
<path fill="none" stroke="#191970" d="M133.4114,-39.6743C142.3659,-41.0035 151.1106,-42.3016 158.9298,-43.4622"/>
<polygon fill="#191970" stroke="#191970" points="133.656,-36.1724 123.2504,-38.1661 132.6281,-43.0965 133.656,-36.1724"/>
</g>
<!-- Node3 -->
<g id="node3" class="node">
<title>Node3</title>
<g id="a_node3"><a xlink:href="../../d0/d5f/zip_8c.html#a07449509c0da16867d0a8ec94a4d50ae" target="_top" xlink:title="zipOpen2">
<polygon fill="#ffffff" stroke="#000000" points="160.5,-.5 160.5,-19.5 218.5,-19.5 218.5,-.5 160.5,-.5"/>
<text text-anchor="middle" x="189.5" y="-7.5" font-family="Helvetica,sans-Serif" font-size="10.00" fill="#000000">zipOpen2</text>
</a>
</g>
</g>
<!-- Node1&#45;&gt;Node3 -->
<g id="edge2" class="edge">
<title>Node1&#45;&gt;Node3</title>
<path fill="none" stroke="#191970" d="M133.2267,-18.3531C142.754,-16.9389 152.0496,-15.559 160.2521,-14.3415"/>
<polygon fill="#191970" stroke="#191970" points="132.6281,-14.9035 123.2504,-19.8339 133.656,-21.8276 132.6281,-14.9035"/>
</g>
</g>
</svg>
