<?xml version="1.0" encoding="UTF-8" standalone="no"?>
<!DOCTYPE svg PUBLIC "-//W3C//DTD SVG 1.1//EN"
 "http://www.w3.org/Graphics/SVG/1.1/DTD/svg11.dtd">
<!-- Generated by graphviz version 2.40.1 (20161225.0304)
 -->
<!-- Title: _daskr_dslvk_ Pages: 1 -->
<svg width="450pt" height="294pt"
 viewBox="0.00 0.00 450.00 294.00" xmlns="http://www.w3.org/2000/svg" xmlns:xlink="http://www.w3.org/1999/xlink">
<g id="graph0" class="graph" transform="scale(1 1) rotate(0) translate(4 290)">
<title>_daskr_dslvk_</title>
<polygon fill="#ffffff" stroke="transparent" points="-4,4 -4,-290 446,-290 446,4 -4,4"/>
<!-- Node217 -->
<g id="node1" class="node">
<title>Node217</title>
<polygon fill="#bfbfbf" stroke="#000000" points="0,-228.5 0,-247.5 80,-247.5 80,-228.5 0,-228.5"/>
<text text-anchor="middle" x="40" y="-235.5" font-family="Helvetica,sans-Serif" font-size="10.00" fill="#000000">_daskr_dslvk_</text>
</g>
<!-- Node218 -->
<g id="node2" class="node">
<title>Node218</title>
<g id="a_node2"><a xlink:href="../../dc/db5/dlinpk_8c.html#a3e4786b5c2203e34073e0429ab7da5e7" target="_top" xlink:title="_daskr_dscal_">
<polygon fill="#ffffff" stroke="#000000" points="241.5,-266.5 241.5,-285.5 321.5,-285.5 321.5,-266.5 241.5,-266.5"/>
<text text-anchor="middle" x="281.5" y="-273.5" font-family="Helvetica,sans-Serif" font-size="10.00" fill="#000000">_daskr_dscal_</text>
</a>
</g>
</g>
<!-- Node217&#45;&gt;Node218 -->
<g id="edge1" class="edge">
<title>Node217&#45;&gt;Node218</title>
<path fill="none" stroke="#191970" d="M80.1812,-245.6977C91.7292,-247.8297 104.3502,-250.083 116,-252 154.5169,-258.338 198.2256,-264.6385 231.0487,-269.1927"/>
<polygon fill="#191970" stroke="#191970" points="230.9181,-272.7078 241.3027,-270.6078 231.8751,-265.7735 230.9181,-272.7078"/>
</g>
<!-- Node219 -->
<g id="node3" class="node">
<title>Node219</title>
<g id="a_node3"><a xlink:href="../../dc/db5/dlinpk_8c.html#af4c66122d08e05eaf84899761ed3bdbd" target="_top" xlink:title="_daskr_dcopy_">
<polygon fill="#ffffff" stroke="#000000" points="240,-228.5 240,-247.5 323,-247.5 323,-228.5 240,-228.5"/>
<text text-anchor="middle" x="281.5" y="-235.5" font-family="Helvetica,sans-Serif" font-size="10.00" fill="#000000">_daskr_dcopy_</text>
</a>
</g>
</g>
<!-- Node217&#45;&gt;Node219 -->
<g id="edge2" class="edge">
<title>Node217&#45;&gt;Node219</title>
<path fill="none" stroke="#191970" d="M80.1499,-238C121.0879,-238 184.773,-238 229.5355,-238"/>
<polygon fill="#191970" stroke="#191970" points="229.6316,-241.5001 239.6316,-238 229.6316,-234.5001 229.6316,-241.5001"/>
</g>
<!-- Node220 -->
<g id="node4" class="node">
<title>Node220</title>
<g id="a_node4"><a xlink:href="../../d3/d26/ddaskr_8c.html#a1f2f3eb68b528981fdd304d93755aa7f" target="_top" xlink:title="_daskr_dspigm_">
<polygon fill="#ffffff" stroke="#000000" points="116,-152.5 116,-171.5 204,-171.5 204,-152.5 116,-152.5"/>
<text text-anchor="middle" x="160" y="-159.5" font-family="Helvetica,sans-Serif" font-size="10.00" fill="#000000">_daskr_dspigm_</text>
</a>
</g>
</g>
<!-- Node217&#45;&gt;Node220 -->
<g id="edge3" class="edge">
<title>Node217&#45;&gt;Node220</title>
<path fill="none" stroke="#191970" d="M55.1981,-228.3745C75.6658,-215.4117 112.2938,-192.2139 136.3716,-176.9646"/>
<polygon fill="#191970" stroke="#191970" points="138.3498,-179.8547 144.9253,-171.5473 134.6044,-173.941 138.3498,-179.8547"/>
</g>
<!-- Node220&#45;&gt;Node218 -->
<g id="edge6" class="edge">
<title>Node220&#45;&gt;Node218</title>
<path fill="none" stroke="#191970" d="M165.9451,-171.5623C177.9292,-190.1794 206.7027,-231.6806 240,-257 242.1722,-258.6517 244.5109,-260.2029 246.9322,-261.6507"/>
<polygon fill="#191970" stroke="#191970" points="245.4399,-264.8214 255.911,-266.4358 248.7321,-258.6439 245.4399,-264.8214"/>
</g>
<!-- Node220&#45;&gt;Node219 -->
<g id="edge9" class="edge">
<title>Node220&#45;&gt;Node219</title>
<path fill="none" stroke="#191970" d="M171.9853,-171.6414C187.2221,-183.6345 214.6063,-204.3184 240,-219 242.8812,-220.6658 245.9341,-222.2964 249.0247,-223.8586"/>
<polygon fill="#191970" stroke="#191970" points="247.7469,-227.1277 258.276,-228.3063 250.78,-220.8189 247.7469,-227.1277"/>
</g>
<!-- Node221 -->
<g id="node5" class="node">
<title>Node221</title>
<g id="a_node5"><a xlink:href="../../d3/d26/ddaskr_8c.html#a5bb495770a705566c01e9deab692f0e7" target="_top" xlink:title="_daskr_datv_">
<polygon fill="#ffffff" stroke="#000000" points="244,-190.5 244,-209.5 319,-209.5 319,-190.5 244,-190.5"/>
<text text-anchor="middle" x="281.5" y="-197.5" font-family="Helvetica,sans-Serif" font-size="10.00" fill="#000000">_daskr_datv_</text>
</a>
</g>
</g>
<!-- Node220&#45;&gt;Node221 -->
<g id="edge4" class="edge">
<title>Node220&#45;&gt;Node221</title>
<path fill="none" stroke="#191970" d="M190.6596,-171.589C205.9124,-176.3594 224.5509,-182.1888 240.9666,-187.3229"/>
<polygon fill="#191970" stroke="#191970" points="240.2614,-190.7694 250.8502,-190.4141 242.3509,-184.0886 240.2614,-190.7694"/>
</g>
<!-- Node222 -->
<g id="node6" class="node">
<title>Node222</title>
<g id="a_node6"><a xlink:href="../../dc/db5/dlinpk_8c.html#a4553ecccc39983f9d76763f4bd764b9b" target="_top" xlink:title="_daskr_dnrm2_">
<polygon fill="#ffffff" stroke="#000000" points="359,-152.5 359,-171.5 442,-171.5 442,-152.5 359,-152.5"/>
<text text-anchor="middle" x="400.5" y="-159.5" font-family="Helvetica,sans-Serif" font-size="10.00" fill="#000000">_daskr_dnrm2_</text>
</a>
</g>
</g>
<!-- Node220&#45;&gt;Node222 -->
<g id="edge5" class="edge">
<title>Node220&#45;&gt;Node222</title>
<path fill="none" stroke="#191970" d="M204.1114,-162C244.9124,-162 305.58,-162 348.6747,-162"/>
<polygon fill="#191970" stroke="#191970" points="348.6811,-165.5001 358.6811,-162 348.6811,-158.5001 348.6811,-165.5001"/>
</g>
<!-- Node223 -->
<g id="node7" class="node">
<title>Node223</title>
<g id="a_node7"><a xlink:href="../../d3/d26/ddaskr_8c.html#ad55da8a32d8fce1670a9e963408cbd41" target="_top" xlink:title="_daskr_dhels_">
<polygon fill="#ffffff" stroke="#000000" points="241.5,-38.5 241.5,-57.5 321.5,-57.5 321.5,-38.5 241.5,-38.5"/>
<text text-anchor="middle" x="281.5" y="-45.5" font-family="Helvetica,sans-Serif" font-size="10.00" fill="#000000">_daskr_dhels_</text>
</a>
</g>
</g>
<!-- Node220&#45;&gt;Node223 -->
<g id="edge7" class="edge">
<title>Node220&#45;&gt;Node223</title>
<path fill="none" stroke="#191970" d="M166.8691,-152.4213C179.7551,-134.9156 209.0585,-97.2388 240,-72 244.0873,-68.666 248.6943,-65.5119 253.3131,-62.6529"/>
<polygon fill="#191970" stroke="#191970" points="255.1966,-65.6063 262.0763,-57.549 251.6736,-59.5574 255.1966,-65.6063"/>
</g>
<!-- Node224 -->
<g id="node8" class="node">
<title>Node224</title>
<g id="a_node8"><a xlink:href="../../d3/d26/ddaskr_8c.html#a17693c1729d62d72d6faee8e7f2dd035" target="_top" xlink:title="_daskr_dheqr_">
<polygon fill="#ffffff" stroke="#000000" points="241.5,-.5 241.5,-19.5 321.5,-19.5 321.5,-.5 241.5,-.5"/>
<text text-anchor="middle" x="281.5" y="-7.5" font-family="Helvetica,sans-Serif" font-size="10.00" fill="#000000">_daskr_dheqr_</text>
</a>
</g>
</g>
<!-- Node220&#45;&gt;Node224 -->
<g id="edge8" class="edge">
<title>Node220&#45;&gt;Node224</title>
<path fill="none" stroke="#191970" d="M163.4881,-152.3006C172.5484,-128.3368 199.0133,-65.6288 240,-29 241.6802,-27.4984 243.4992,-26.096 245.4055,-24.7892"/>
<polygon fill="#191970" stroke="#191970" points="247.3011,-27.7352 254.1617,-19.6616 243.7638,-21.6947 247.3011,-27.7352"/>
</g>
<!-- Node225 -->
<g id="node9" class="node">
<title>Node225</title>
<g id="a_node9"><a xlink:href="../../d3/d26/ddaskr_8c.html#a92151e12ac1c66cb25430c57f9376117" target="_top" xlink:title="_daskr_dorth_">
<polygon fill="#ffffff" stroke="#000000" points="242.5,-114.5 242.5,-133.5 320.5,-133.5 320.5,-114.5 242.5,-114.5"/>
<text text-anchor="middle" x="281.5" y="-121.5" font-family="Helvetica,sans-Serif" font-size="10.00" fill="#000000">_daskr_dorth_</text>
</a>
</g>
</g>
<!-- Node220&#45;&gt;Node225 -->
<g id="edge10" class="edge">
<title>Node220&#45;&gt;Node225</title>
<path fill="none" stroke="#191970" d="M190.6596,-152.411C205.9124,-147.6406 224.5509,-141.8112 240.9666,-136.6771"/>
<polygon fill="#191970" stroke="#191970" points="242.3509,-139.9114 250.8502,-133.5859 240.2614,-133.2306 242.3509,-139.9114"/>
</g>
<!-- Node227 -->
<g id="node11" class="node">
<title>Node227</title>
<g id="a_node11"><a xlink:href="../../dc/db5/dlinpk_8c.html#a73393dbf5ad05b7714afd5c72932c366" target="_top" xlink:title="_daskr_daxpy_">
<polygon fill="#ffffff" stroke="#000000" points="359,-76.5 359,-95.5 442,-95.5 442,-76.5 359,-76.5"/>
<text text-anchor="middle" x="400.5" y="-83.5" font-family="Helvetica,sans-Serif" font-size="10.00" fill="#000000">_daskr_daxpy_</text>
</a>
</g>
</g>
<!-- Node220&#45;&gt;Node227 -->
<g id="edge14" class="edge">
<title>Node220&#45;&gt;Node227</title>
<path fill="none" stroke="#191970" d="M169.8678,-152.3948C184.0668,-139.2196 211.6817,-115.9331 240,-105 274.7211,-91.5949 316.5509,-86.9803 348.8012,-85.6457"/>
<polygon fill="#191970" stroke="#191970" points="349.032,-89.1402 358.9143,-85.3207 348.807,-82.1438 349.032,-89.1402"/>
</g>
<!-- Node225&#45;&gt;Node222 -->
<g id="edge12" class="edge">
<title>Node225&#45;&gt;Node222</title>
<path fill="none" stroke="#191970" d="M311.5287,-133.589C326.4677,-138.3594 344.7227,-144.1888 360.8006,-149.3229"/>
<polygon fill="#191970" stroke="#191970" points="359.8901,-152.7062 370.4809,-152.4141 362.0195,-146.0379 359.8901,-152.7062"/>
</g>
<!-- Node226 -->
<g id="node10" class="node">
<title>Node226</title>
<g id="a_node10"><a xlink:href="../../dc/db5/dlinpk_8c.html#ab2a7cdccba27af07c4d0495d912d3728" target="_top" xlink:title="_daskr_ddot_">
<polygon fill="#ffffff" stroke="#000000" points="363,-114.5 363,-133.5 438,-133.5 438,-114.5 363,-114.5"/>
<text text-anchor="middle" x="400.5" y="-121.5" font-family="Helvetica,sans-Serif" font-size="10.00" fill="#000000">_daskr_ddot_</text>
</a>
</g>
</g>
<!-- Node225&#45;&gt;Node226 -->
<g id="edge11" class="edge">
<title>Node225&#45;&gt;Node226</title>
<path fill="none" stroke="#191970" d="M320.7948,-124C330.9498,-124 341.9957,-124 352.5389,-124"/>
<polygon fill="#191970" stroke="#191970" points="352.863,-127.5001 362.863,-124 352.8629,-120.5001 352.863,-127.5001"/>
</g>
<!-- Node225&#45;&gt;Node227 -->
<g id="edge13" class="edge">
<title>Node225&#45;&gt;Node227</title>
<path fill="none" stroke="#191970" d="M311.5287,-114.411C326.4677,-109.6406 344.7227,-103.8112 360.8006,-98.6771"/>
<polygon fill="#191970" stroke="#191970" points="362.0195,-101.9621 370.4809,-95.5859 359.8901,-95.2938 362.0195,-101.9621"/>
</g>
</g>
</svg>
