<?xml version="1.0" encoding="UTF-8" standalone="no"?>
<!DOCTYPE svg PUBLIC "-//W3C//DTD SVG 1.1//EN"
 "http://www.w3.org/Graphics/SVG/1.1/DTD/svg11.dtd">
<!-- Generated by graphviz version 2.40.1 (20161225.0304)
 -->
<!-- Title: _daskr_dnsd_ Pages: 1 -->
<svg width="328pt" height="142pt"
 viewBox="0.00 0.00 328.00 142.00" xmlns="http://www.w3.org/2000/svg" xmlns:xlink="http://www.w3.org/1999/xlink">
<g id="graph0" class="graph" transform="scale(1 1) rotate(0) translate(4 138)">
<title>_daskr_dnsd_</title>
<polygon fill="#ffffff" stroke="transparent" points="-4,4 -4,-138 324,-138 324,4 -4,4"/>
<!-- Node136 -->
<g id="node1" class="node">
<title>Node136</title>
<polygon fill="#bfbfbf" stroke="#000000" points="0,-57.5 0,-76.5 77,-76.5 77,-57.5 0,-57.5"/>
<text text-anchor="middle" x="38.5" y="-64.5" font-family="Helvetica,sans-Serif" font-size="10.00" fill="#000000">_daskr_dnsd_</text>
</g>
<!-- Node137 -->
<g id="node2" class="node">
<title>Node137</title>
<g id="a_node2"><a xlink:href="../../d1/d2d/daux_8c.html#a532dfd0e819c18cc62cca0c877aa5154" target="_top" xlink:title="_daskr_real_pow">
<polygon fill="#ffffff" stroke="#000000" points="113.5,-114.5 113.5,-133.5 203.5,-133.5 203.5,-114.5 113.5,-114.5"/>
<text text-anchor="middle" x="158.5" y="-121.5" font-family="Helvetica,sans-Serif" font-size="10.00" fill="#000000">_daskr_real_pow</text>
</a>
</g>
</g>
<!-- Node136&#45;&gt;Node137 -->
<g id="edge1" class="edge">
<title>Node136&#45;&gt;Node137</title>
<path fill="none" stroke="#191970" d="M56.3764,-76.6023C71.3515,-84.5287 93.3683,-95.9103 113,-105 116.9326,-106.8208 121.0892,-108.6645 125.2274,-110.4509"/>
<polygon fill="#191970" stroke="#191970" points="124.1625,-113.8007 134.7357,-114.4771 126.892,-107.3548 124.1625,-113.8007"/>
</g>
<!-- Node138 -->
<g id="node3" class="node">
<title>Node138</title>
<g id="a_node3"><a xlink:href="../../d3/d26/ddaskr_8c.html#a93f8e6042faf257dd586b5733da8ec70" target="_top" xlink:title="_daskr_dslvd_">
<polygon fill="#ffffff" stroke="#000000" points="118.5,-76.5 118.5,-95.5 198.5,-95.5 198.5,-76.5 118.5,-76.5"/>
<text text-anchor="middle" x="158.5" y="-83.5" font-family="Helvetica,sans-Serif" font-size="10.00" fill="#000000">_daskr_dslvd_</text>
</a>
</g>
</g>
<!-- Node136&#45;&gt;Node138 -->
<g id="edge2" class="edge">
<title>Node136&#45;&gt;Node138</title>
<path fill="none" stroke="#191970" d="M77.1293,-73.1163C86.9955,-74.6785 97.7485,-76.381 108.1091,-78.0214"/>
<polygon fill="#191970" stroke="#191970" points="107.8671,-81.5266 118.2914,-79.6336 108.9618,-74.6128 107.8671,-81.5266"/>
</g>
<!-- Node141 -->
<g id="node6" class="node">
<title>Node141</title>
<g id="a_node6"><a xlink:href="../../d3/d26/ddaskr_8c.html#ab48efa45728d85869ae8281ddc674183" target="_top" xlink:title="_daskr_ddwnrm_">
<polygon fill="#ffffff" stroke="#000000" points="113,-38.5 113,-57.5 204,-57.5 204,-38.5 113,-38.5"/>
<text text-anchor="middle" x="158.5" y="-45.5" font-family="Helvetica,sans-Serif" font-size="10.00" fill="#000000">_daskr_ddwnrm_</text>
</a>
</g>
</g>
<!-- Node136&#45;&gt;Node141 -->
<g id="edge5" class="edge">
<title>Node136&#45;&gt;Node141</title>
<path fill="none" stroke="#191970" d="M77.1293,-60.8837C85.304,-59.5894 94.0876,-58.1986 102.7522,-56.8267"/>
<polygon fill="#191970" stroke="#191970" points="103.496,-60.2527 112.8256,-55.2318 102.4013,-53.3388 103.496,-60.2527"/>
</g>
<!-- Node142 -->
<g id="node7" class="node">
<title>Node142</title>
<g id="a_node7"><a xlink:href="../../d3/d1b/netstream-main_8cpp.html#aed138f72d7301a9034a719a95c4903da" target="_top" xlink:title="e">
<polygon fill="#ffffff" stroke="#000000" points="144,-.5 144,-19.5 173,-19.5 173,-.5 144,-.5"/>
<text text-anchor="middle" x="158.5" y="-7.5" font-family="Helvetica,sans-Serif" font-size="10.00" fill="#000000">e</text>
</a>
</g>
</g>
<!-- Node136&#45;&gt;Node142 -->
<g id="edge6" class="edge">
<title>Node136&#45;&gt;Node142</title>
<path fill="none" stroke="#191970" d="M56.3764,-57.3977C71.3515,-49.4713 93.3683,-38.0897 113,-29 119.785,-25.8585 127.2366,-22.6489 134.1102,-19.7834"/>
<polygon fill="#191970" stroke="#191970" points="135.7001,-22.9143 143.6222,-15.8793 133.0422,-16.4385 135.7001,-22.9143"/>
</g>
<!-- Node139 -->
<g id="node4" class="node">
<title>Node139</title>
<g id="a_node4"><a xlink:href="../../dc/db5/dlinpk_8c.html#a39c5031a06cef2dbef6202448deb6da4" target="_top" xlink:title="_daskr_dgbsl_">
<polygon fill="#ffffff" stroke="#000000" points="240,-95.5 240,-114.5 320,-114.5 320,-95.5 240,-95.5"/>
<text text-anchor="middle" x="280" y="-102.5" font-family="Helvetica,sans-Serif" font-size="10.00" fill="#000000">_daskr_dgbsl_</text>
</a>
</g>
</g>
<!-- Node138&#45;&gt;Node139 -->
<g id="edge3" class="edge">
<title>Node138&#45;&gt;Node139</title>
<path fill="none" stroke="#191970" d="M198.6204,-92.274C208.5739,-93.8305 219.3658,-95.5181 229.7372,-97.14"/>
<polygon fill="#191970" stroke="#191970" points="229.501,-100.6455 239.9218,-98.7326 230.5826,-93.7296 229.501,-100.6455"/>
</g>
<!-- Node140 -->
<g id="node5" class="node">
<title>Node140</title>
<g id="a_node5"><a xlink:href="../../dc/db5/dlinpk_8c.html#a624c26fb74ea85963095328af7424e27" target="_top" xlink:title="_daskr_dgesl_">
<polygon fill="#ffffff" stroke="#000000" points="240,-57.5 240,-76.5 320,-76.5 320,-57.5 240,-57.5"/>
<text text-anchor="middle" x="280" y="-64.5" font-family="Helvetica,sans-Serif" font-size="10.00" fill="#000000">_daskr_dgesl_</text>
</a>
</g>
</g>
<!-- Node138&#45;&gt;Node140 -->
<g id="edge4" class="edge">
<title>Node138&#45;&gt;Node140</title>
<path fill="none" stroke="#191970" d="M198.6204,-79.726C208.5739,-78.1695 219.3658,-76.4819 229.7372,-74.86"/>
<polygon fill="#191970" stroke="#191970" points="230.5826,-78.2704 239.9218,-73.2674 229.501,-71.3545 230.5826,-78.2704"/>
</g>
</g>
</svg>
