<?xml version="1.0" encoding="UTF-8" standalone="no"?>
<!DOCTYPE svg PUBLIC "-//W3C//DTD SVG 1.1//EN"
 "http://www.w3.org/Graphics/SVG/1.1/DTD/svg11.dtd">
<!-- Generated by graphviz version 2.40.1 (20161225.0304)
 -->
<!-- Title: Teuchos::EmbeddedObjDealloc::embeddedObjDeallocArrayDelete Pages: 1 -->
<svg width="366pt" height="66pt"
 viewBox="0.00 0.00 366.00 66.00" xmlns="http://www.w3.org/2000/svg" xmlns:xlink="http://www.w3.org/1999/xlink">
<g id="graph0" class="graph" transform="scale(1 1) rotate(0) translate(4 62)">
<title>Teuchos::EmbeddedObjDealloc::embeddedObjDeallocArrayDelete</title>
<polygon fill="#ffffff" stroke="transparent" points="-4,4 -4,-62 362,-62 362,4 -4,4"/>
<!-- Node10 -->
<g id="node1" class="node">
<title>Node10</title>
<polygon fill="#bfbfbf" stroke="#000000" points="0,-14 0,-44 167,-44 167,-14 0,-14"/>
<text text-anchor="start" x="8" y="-32" font-family="Helvetica,sans-Serif" font-size="10.00" fill="#000000">Teuchos::EmbeddedObjDealloc</text>
<text text-anchor="middle" x="83.5" y="-21" font-family="Helvetica,sans-Serif" font-size="10.00" fill="#000000">::embeddedObjDeallocArrayDelete</text>
</g>
<!-- Node11 -->
<g id="node2" class="node">
<title>Node11</title>
<g id="a_node2"><a xlink:href="../../d5/d9a/class_teuchos_1_1_r_c_p.html#a7fd9e80180eec6cf6e3038505d3dc7a4" target="_top" xlink:title="Conversion function that takes in a boost::shared_ptr object and spits out a Teuchos::RCP object...">
<polygon fill="#ffffff" stroke="#000000" points="230,-38.5 230,-57.5 331,-57.5 331,-38.5 230,-38.5"/>
<text text-anchor="middle" x="280.5" y="-45.5" font-family="Helvetica,sans-Serif" font-size="10.00" fill="#000000">Teuchos::RCP::rcp</text>
</a>
</g>
</g>
<!-- Node10&#45;&gt;Node11 -->
<g id="edge1" class="edge">
<title>Node10&#45;&gt;Node11</title>
<path fill="none" stroke="#191970" d="M167.0457,-37.0577C184.7619,-38.7664 203.1388,-40.5388 219.8116,-42.1468"/>
<polygon fill="#191970" stroke="#191970" points="219.6617,-45.6485 229.9515,-43.1248 220.3337,-38.6808 219.6617,-45.6485"/>
</g>
<!-- Node12 -->
<g id="node3" class="node">
<title>Node12</title>
<g id="a_node3"><a xlink:href="../../d5/d9a/class_teuchos_1_1_r_c_p.html#a0c6441ac96ec5797f7b487e4c851aebe" target="_top" xlink:title="Initialize from a raw pointer with a deallocation policy. ">
<polygon fill="#ffffff" stroke="#000000" points="203,-.5 203,-19.5 358,-19.5 358,-.5 203,-.5"/>
<text text-anchor="middle" x="280.5" y="-7.5" font-family="Helvetica,sans-Serif" font-size="10.00" fill="#000000">Teuchos::RCP::rcpWithDealloc</text>
</a>
</g>
</g>
<!-- Node10&#45;&gt;Node12 -->
<g id="edge2" class="edge">
<title>Node10&#45;&gt;Node12</title>
<path fill="none" stroke="#191970" d="M167.0457,-20.9423C175.563,-20.1208 184.2329,-19.2846 192.7929,-18.4591"/>
<polygon fill="#191970" stroke="#191970" points="193.1574,-21.9402 202.7752,-17.4963 192.4853,-14.9726 193.1574,-21.9402"/>
</g>
</g>
</svg>
