<?xml version="1.0" encoding="UTF-8" standalone="no"?>
<!DOCTYPE svg PUBLIC "-//W3C//DTD SVG 1.1//EN"
 "http://www.w3.org/Graphics/SVG/1.1/DTD/svg11.dtd">
<!-- Generated by graphviz version 2.40.1 (20161225.0304)
 -->
<!-- Title: Ipopt::ConvergenceCheck Pages: 1 -->
<svg width="139pt" height="151pt"
 viewBox="0.00 0.00 139.00 151.00" xmlns="http://www.w3.org/2000/svg" xmlns:xlink="http://www.w3.org/1999/xlink">
<g id="graph0" class="graph" transform="scale(1 1) rotate(0) translate(4 147)">
<title>Ipopt::ConvergenceCheck</title>
<polygon fill="#ffffff" stroke="transparent" points="-4,4 -4,-147 135,-147 135,4 -4,4"/>
<!-- Node7 -->
<g id="node1" class="node">
<title>Node7</title>
<polygon fill="#bfbfbf" stroke="#000000" points="0,-.5 0,-19.5 131,-19.5 131,-.5 0,-.5"/>
<text text-anchor="middle" x="65.5" y="-7.5" font-family="Helvetica,sans-Serif" font-size="10.00" fill="#000000">Ipopt::ConvergenceCheck</text>
</g>
<!-- Node8 -->
<g id="node2" class="node">
<title>Node8</title>
<g id="a_node2"><a xlink:href="../../d6/d4a/class_ipopt_1_1_algorithm_strategy_object.html" target="_top" xlink:title="Ipopt::AlgorithmStrategy\lObject">
<polygon fill="#ffffff" stroke="#000000" points="4.5,-56.5 4.5,-86.5 126.5,-86.5 126.5,-56.5 4.5,-56.5"/>
<text text-anchor="start" x="12.5" y="-74.5" font-family="Helvetica,sans-Serif" font-size="10.00" fill="#000000">Ipopt::AlgorithmStrategy</text>
<text text-anchor="middle" x="65.5" y="-63.5" font-family="Helvetica,sans-Serif" font-size="10.00" fill="#000000">Object</text>
</a>
</g>
</g>
<!-- Node8&#45;&gt;Node7 -->
<g id="edge1" class="edge">
<title>Node8&#45;&gt;Node7</title>
<path fill="none" stroke="#191970" d="M65.5,-46.2849C65.5,-36.9858 65.5,-26.9883 65.5,-19.8469"/>
<polygon fill="#191970" stroke="#191970" points="62.0001,-46.2977 65.5,-56.2977 69.0001,-46.2978 62.0001,-46.2977"/>
</g>
<!-- Node9 -->
<g id="node3" class="node">
<title>Node9</title>
<g id="a_node3"><a xlink:href="../../da/d10/class_ipopt_1_1_referenced_object.html" target="_top" xlink:title="Ipopt::ReferencedObject">
<polygon fill="#ffffff" stroke="#000000" points="4,-123.5 4,-142.5 127,-142.5 127,-123.5 4,-123.5"/>
<text text-anchor="middle" x="65.5" y="-130.5" font-family="Helvetica,sans-Serif" font-size="10.00" fill="#000000">Ipopt::ReferencedObject</text>
</a>
</g>
</g>
<!-- Node9&#45;&gt;Node8 -->
<g id="edge2" class="edge">
<title>Node9&#45;&gt;Node8</title>
<path fill="none" stroke="#191970" d="M65.5,-113.3693C65.5,-104.681 65.5,-94.6241 65.5,-86.5446"/>
<polygon fill="#191970" stroke="#191970" points="62.0001,-113.3906 65.5,-123.3906 69.0001,-113.3907 62.0001,-113.3906"/>
</g>
</g>
</svg>
