<?xml version="1.0" encoding="UTF-8" standalone="no"?>
<!DOCTYPE svg PUBLIC "-//W3C//DTD SVG 1.1//EN"
 "http://www.w3.org/Graphics/SVG/1.1/DTD/svg11.dtd">
<!-- Generated by graphviz version 2.40.1 (20161225.0304)
 -->
<!-- Title: omc_Interactive_getAccessAnnotation Pages: 1 -->
<svg width="1626pt" height="471pt"
 viewBox="0.00 0.00 1626.00 471.00" xmlns="http://www.w3.org/2000/svg" xmlns:xlink="http://www.w3.org/1999/xlink">
<g id="graph0" class="graph" transform="scale(1 1) rotate(0) translate(4 467)">
<title>omc_Interactive_getAccessAnnotation</title>
<polygon fill="#ffffff" stroke="transparent" points="-4,4 -4,-467 1622,-467 1622,4 -4,4"/>
<!-- Node2355 -->
<g id="node1" class="node">
<title>Node2355</title>
<polygon fill="#bfbfbf" stroke="#000000" points="0,-186 0,-216 138,-216 138,-186 0,-186"/>
<text text-anchor="start" x="8" y="-204" font-family="Helvetica,sans-Serif" font-size="10.00" fill="#000000">omc_Interactive_getAccess</text>
<text text-anchor="middle" x="69" y="-193" font-family="Helvetica,sans-Serif" font-size="10.00" fill="#000000">Annotation</text>
</g>
<!-- Node2356 -->
<g id="node2" class="node">
<title>Node2356</title>
<g id="a_node2"><a xlink:href="../../db/d73/_interactive_8c.html#a1be730371fd1e4f71e853f20dc0fc8c0" target="_top" xlink:title="omc_Interactive_getNamed\lAnnotation">
<polygon fill="#ffffff" stroke="#000000" points="174,-186 174,-216 311,-216 311,-186 174,-186"/>
<text text-anchor="start" x="182" y="-204" font-family="Helvetica,sans-Serif" font-size="10.00" fill="#000000">omc_Interactive_getNamed</text>
<text text-anchor="middle" x="242.5" y="-193" font-family="Helvetica,sans-Serif" font-size="10.00" fill="#000000">Annotation</text>
</a>
</g>
</g>
<!-- Node2355&#45;&gt;Node2356 -->
<g id="edge1" class="edge">
<title>Node2355&#45;&gt;Node2356</title>
<path fill="none" stroke="#191970" d="M138.0703,-201C146.5605,-201 155.2866,-201 163.9044,-201"/>
<polygon fill="#191970" stroke="#191970" points="163.9506,-204.5001 173.9506,-201 163.9506,-197.5001 163.9506,-204.5001"/>
</g>
<!-- Node2357 -->
<g id="node3" class="node">
<title>Node2357</title>
<g id="a_node3"><a xlink:href="../../db/d73/_interactive_8c.html#a6725f24e4d4d6fb348c2918fecfb9092" target="_top" xlink:title="omc_Interactive_getPathed\lClassInProgram">
<polygon fill="#ffffff" stroke="#000000" points="361.5,-186 361.5,-216 497.5,-216 497.5,-186 361.5,-186"/>
<text text-anchor="start" x="369.5" y="-204" font-family="Helvetica,sans-Serif" font-size="10.00" fill="#000000">omc_Interactive_getPathed</text>
<text text-anchor="middle" x="429.5" y="-193" font-family="Helvetica,sans-Serif" font-size="10.00" fill="#000000">ClassInProgram</text>
</a>
</g>
</g>
<!-- Node2356&#45;&gt;Node2357 -->
<g id="edge2" class="edge">
<title>Node2356&#45;&gt;Node2357</title>
<path fill="none" stroke="#191970" d="M311.0701,-201C324.1112,-201 337.8503,-201 351.1677,-201"/>
<polygon fill="#191970" stroke="#191970" points="351.2508,-204.5001 361.2508,-201 351.2508,-197.5001 351.2508,-204.5001"/>
</g>
<!-- Node2367 -->
<g id="node13" class="node">
<title>Node2367</title>
<g id="a_node13"><a xlink:href="../../d1/dd1/3rd_party_2gc_2include_2gc_8h.html#acacfa47efcc44a29f7bb7d98f2a000f8" target="_top" xlink:title="void">
<polygon fill="#ffffff" stroke="#000000" points="1530,-194.5 1530,-213.5 1565,-213.5 1565,-194.5 1530,-194.5"/>
<text text-anchor="middle" x="1547.5" y="-201.5" font-family="Helvetica,sans-Serif" font-size="10.00" fill="#000000">void</text>
</a>
</g>
</g>
<!-- Node2356&#45;&gt;Node2367 -->
<g id="edge39" class="edge">
<title>Node2356&#45;&gt;Node2367</title>
<path fill="none" stroke="#191970" d="M253.8508,-216.2187C296.9803,-272.1359 457.3535,-463 637,-463 637,-463 637,-463 1192.5,-463 1314.385,-463 1349.0448,-427.0012 1441,-347 1484.0129,-309.5787 1520.26,-251.9847 1537.2126,-222.6142"/>
<polygon fill="#191970" stroke="#191970" points="1540.319,-224.2315 1542.204,-213.8057 1534.2288,-220.7804 1540.319,-224.2315"/>
</g>
<!-- Node2381 -->
<g id="node27" class="node">
<title>Node2381</title>
<g id="a_node27"><a xlink:href="../../d0/d78/_absyn_8c.html#a398b2c48503908c545f049f5fa3d856a" target="_top" xlink:title="omc_Absyn_getNamedAnnotation\lInClass">
<polygon fill="#ffffff" stroke="#000000" points="347,-52 347,-82 512,-82 512,-52 347,-52"/>
<text text-anchor="start" x="355" y="-70" font-family="Helvetica,sans-Serif" font-size="10.00" fill="#000000">omc_Absyn_getNamedAnnotation</text>
<text text-anchor="middle" x="429.5" y="-59" font-family="Helvetica,sans-Serif" font-size="10.00" fill="#000000">InClass</text>
</a>
</g>
</g>
<!-- Node2356&#45;&gt;Node2381 -->
<g id="edge33" class="edge">
<title>Node2356&#45;&gt;Node2381</title>
<path fill="none" stroke="#191970" d="M263.5878,-185.889C296.9254,-161.9999 361.909,-115.4342 399.9023,-88.2091"/>
<polygon fill="#191970" stroke="#191970" points="402.3994,-90.7255 408.4893,-82.0558 398.3221,-85.0356 402.3994,-90.7255"/>
</g>
<!-- Node2358 -->
<g id="node4" class="node">
<title>Node2358</title>
<g id="a_node4"><a xlink:href="../../db/d73/_interactive_8c.html#a94088fd09396293fce13cc6f42b0f8fa" target="_top" xlink:title="omc_Interactive_getPathed\lClassInProgramWork">
<polygon fill="#ffffff" stroke="#000000" points="569,-164 569,-194 705,-194 705,-164 569,-164"/>
<text text-anchor="start" x="577" y="-182" font-family="Helvetica,sans-Serif" font-size="10.00" fill="#000000">omc_Interactive_getPathed</text>
<text text-anchor="middle" x="637" y="-171" font-family="Helvetica,sans-Serif" font-size="10.00" fill="#000000">ClassInProgramWork</text>
</a>
</g>
</g>
<!-- Node2357&#45;&gt;Node2358 -->
<g id="edge3" class="edge">
<title>Node2357&#45;&gt;Node2358</title>
<path fill="none" stroke="#191970" d="M497.7307,-187.3805C517.2332,-184.8971 538.64,-182.5672 558.695,-180.736"/>
<polygon fill="#191970" stroke="#191970" points="559.0741,-184.2162 568.7283,-179.8522 558.4598,-177.2432 559.0741,-184.2162"/>
</g>
<!-- Node2357&#45;&gt;Node2367 -->
<g id="edge32" class="edge">
<title>Node2357&#45;&gt;Node2367</title>
<path fill="none" stroke="#191970" d="M497.5753,-206.9245C578.438,-213.4406 717.4414,-223 837,-223 837,-223 837,-223 1192.5,-223 1314.5179,-223 1459.7897,-211.669 1519.6326,-206.5077"/>
<polygon fill="#191970" stroke="#191970" points="1520.1304,-209.9777 1529.7875,-205.6199 1519.5206,-203.0043 1520.1304,-209.9777"/>
</g>
<!-- Node2369 -->
<g id="node15" class="node">
<title>Node2369</title>
<g id="a_node15"><a xlink:href="../../d7/d1c/_f_builtin_8c.html#a39ccd88d72001ca29a15abe18a97d4c4" target="_top" xlink:title="omc_FBuiltin_getInitialFunctions">
<polygon fill="#ffffff" stroke="#000000" points="558,-308.5 558,-327.5 716,-327.5 716,-308.5 558,-308.5"/>
<text text-anchor="middle" x="637" y="-315.5" font-family="Helvetica,sans-Serif" font-size="10.00" fill="#000000">omc_FBuiltin_getInitialFunctions</text>
</a>
</g>
</g>
<!-- Node2357&#45;&gt;Node2369 -->
<g id="edge18" class="edge">
<title>Node2357&#45;&gt;Node2369</title>
<path fill="none" stroke="#191970" d="M456.2022,-216.0562C496.3305,-238.6827 571.6882,-281.1736 611.2505,-303.481"/>
<polygon fill="#191970" stroke="#191970" points="609.6089,-306.5734 620.0387,-308.4363 613.047,-300.4759 609.6089,-306.5734"/>
</g>
<!-- Node2358&#45;&gt;Node2357 -->
<g id="edge6" class="edge">
<title>Node2358&#45;&gt;Node2357</title>
<path fill="none" stroke="#191970" d="M568.7283,-192.6247C549.2231,-195.1079 527.8159,-197.4373 507.7629,-199.2679"/>
<polygon fill="#191970" stroke="#191970" points="507.3851,-195.7875 497.7307,-200.1513 507.9992,-202.7605 507.3851,-195.7875"/>
</g>
<!-- Node2359 -->
<g id="node5" class="node">
<title>Node2359</title>
<g id="a_node5"><a xlink:href="../../db/d73/_interactive_8c.html#a0decc2aabeed83ab0e2d11f7c5f7078a" target="_top" xlink:title="omc_Interactive_getClass\lInProgram">
<polygon fill="#ffffff" stroke="#000000" points="951,-71 951,-101 1082,-101 1082,-71 951,-71"/>
<text text-anchor="start" x="959" y="-89" font-family="Helvetica,sans-Serif" font-size="10.00" fill="#000000">omc_Interactive_getClass</text>
<text text-anchor="middle" x="1016.5" y="-78" font-family="Helvetica,sans-Serif" font-size="10.00" fill="#000000">InProgram</text>
</a>
</g>
</g>
<!-- Node2358&#45;&gt;Node2359 -->
<g id="edge4" class="edge">
<title>Node2358&#45;&gt;Node2359</title>
<path fill="none" stroke="#191970" d="M655.9951,-163.9094C679.398,-146.2691 721.1001,-117.8545 762,-105 820.1522,-86.7232 889.304,-82.6034 940.8375,-82.7028"/>
<polygon fill="#191970" stroke="#191970" points="940.8756,-86.203 950.9008,-82.776 940.9266,-79.2032 940.8756,-86.203"/>
</g>
<!-- Node2361 -->
<g id="node7" class="node">
<title>Node2361</title>
<g id="a_node7"><a xlink:href="../../db/d73/_interactive_8c.html#a53acc6f98f291721c9a118bb4afe429c" target="_top" xlink:title="omc_Interactive_getPathed\lClassInProgramWorkNoThrow">
<polygon fill="#ffffff" stroke="#000000" points="762,-164 762,-194 912,-194 912,-164 762,-164"/>
<text text-anchor="start" x="770" y="-182" font-family="Helvetica,sans-Serif" font-size="10.00" fill="#000000">omc_Interactive_getPathed</text>
<text text-anchor="middle" x="837" y="-171" font-family="Helvetica,sans-Serif" font-size="10.00" fill="#000000">ClassInProgramWorkNoThrow</text>
</a>
</g>
</g>
<!-- Node2358&#45;&gt;Node2361 -->
<g id="edge7" class="edge">
<title>Node2358&#45;&gt;Node2361</title>
<path fill="none" stroke="#191970" d="M705.2693,-179C720.2145,-179 736.2146,-179 751.7309,-179"/>
<polygon fill="#191970" stroke="#191970" points="751.8416,-182.5001 761.8416,-179 751.8415,-175.5001 751.8416,-182.5001"/>
</g>
<!-- Node2368 -->
<g id="node14" class="node">
<title>Node2368</title>
<g id="a_node14"><a xlink:href="../../db/d73/_interactive_8c.html#a9f36d43b7641634cb0d9a738c7ed88c5" target="_top" xlink:title="omc_Interactive_getPathed\lClassInProgramWorkThrow">
<polygon fill="#ffffff" stroke="#000000" points="768.5,-115 768.5,-145 905.5,-145 905.5,-115 768.5,-115"/>
<text text-anchor="start" x="776.5" y="-133" font-family="Helvetica,sans-Serif" font-size="10.00" fill="#000000">omc_Interactive_getPathed</text>
<text text-anchor="middle" x="837" y="-122" font-family="Helvetica,sans-Serif" font-size="10.00" fill="#000000">ClassInProgramWorkThrow</text>
</a>
</g>
</g>
<!-- Node2358&#45;&gt;Node2368 -->
<g id="edge16" class="edge">
<title>Node2358&#45;&gt;Node2368</title>
<path fill="none" stroke="#191970" d="M698.3658,-163.9654C719.675,-158.7446 743.7499,-152.8463 765.7862,-147.4474"/>
<polygon fill="#191970" stroke="#191970" points="766.8704,-150.7853 775.7503,-145.0062 765.2046,-143.9864 766.8704,-150.7853"/>
</g>
<!-- Node2360 -->
<g id="node6" class="node">
<title>Node2360</title>
<g id="a_node6"><a xlink:href="../../da/d72/_compiler_2boot_2build_2list_8c.html#aaa81bbdddf6ecc72a7ba180a14e0458b" target="_top" xlink:title="omc_List_find1">
<polygon fill="#ffffff" stroke="#000000" points="1151,-78.5 1151,-97.5 1234,-97.5 1234,-78.5 1151,-78.5"/>
<text text-anchor="middle" x="1192.5" y="-85.5" font-family="Helvetica,sans-Serif" font-size="10.00" fill="#000000">omc_List_find1</text>
</a>
</g>
</g>
<!-- Node2359&#45;&gt;Node2360 -->
<g id="edge5" class="edge">
<title>Node2359&#45;&gt;Node2360</title>
<path fill="none" stroke="#191970" d="M1082.0359,-86.7447C1101.4069,-86.9649 1122.3342,-87.2027 1140.71,-87.4115"/>
<polygon fill="#191970" stroke="#191970" points="1140.8767,-90.9135 1150.9159,-87.5275 1140.9563,-83.914 1140.8767,-90.9135"/>
</g>
<!-- Node2362 -->
<g id="node8" class="node">
<title>Node2362</title>
<g id="a_node8"><a xlink:href="../../db/d73/_interactive_8c.html#ab1a6c5772a699f50ca691f1b72680977" target="_top" xlink:title="omc_Interactive_getClass\lInClass">
<polygon fill="#ffffff" stroke="#000000" points="951,-120 951,-150 1082,-150 1082,-120 951,-120"/>
<text text-anchor="start" x="959" y="-138" font-family="Helvetica,sans-Serif" font-size="10.00" fill="#000000">omc_Interactive_getClass</text>
<text text-anchor="middle" x="1016.5" y="-127" font-family="Helvetica,sans-Serif" font-size="10.00" fill="#000000">InClass</text>
</a>
</g>
</g>
<!-- Node2361&#45;&gt;Node2362 -->
<g id="edge8" class="edge">
<title>Node2361&#45;&gt;Node2362</title>
<path fill="none" stroke="#191970" d="M898.2717,-163.9808C913.3513,-160.2844 929.6274,-156.2947 945.138,-152.4926"/>
<polygon fill="#191970" stroke="#191970" points="946.3207,-155.8064 955.1999,-150.0262 944.6542,-149.0077 946.3207,-155.8064"/>
</g>
<!-- Node2361&#45;&gt;Node2367 -->
<g id="edge15" class="edge">
<title>Node2361&#45;&gt;Node2367</title>
<path fill="none" stroke="#191970" d="M912.0279,-181.64C1067.422,-187.1077 1418.4169,-199.458 1519.6723,-203.0208"/>
<polygon fill="#191970" stroke="#191970" points="1519.6076,-206.5206 1529.7245,-203.3745 1519.8538,-199.525 1519.6076,-206.5206"/>
</g>
<!-- Node2362&#45;&gt;Node2360 -->
<g id="edge9" class="edge">
<title>Node2362&#45;&gt;Node2360</title>
<path fill="none" stroke="#191970" d="M1072.6714,-119.9997C1096.6828,-113.5876 1124.3479,-106.1997 1147.0423,-100.1393"/>
<polygon fill="#191970" stroke="#191970" points="1148.0044,-103.5051 1156.7628,-97.5434 1146.1984,-96.7421 1148.0044,-103.5051"/>
</g>
<!-- Node2363 -->
<g id="node9" class="node">
<title>Node2363</title>
<g id="a_node9"><a xlink:href="../../db/d73/_interactive_8c.html#aa82da3f923157554cf2609abe0034767" target="_top" xlink:title="omc_Interactive_getClasses\lInClass">
<polygon fill="#ffffff" stroke="#000000" points="1122,-120 1122,-150 1263,-150 1263,-120 1122,-120"/>
<text text-anchor="start" x="1130" y="-138" font-family="Helvetica,sans-Serif" font-size="10.00" fill="#000000">omc_Interactive_getClasses</text>
<text text-anchor="middle" x="1192.5" y="-127" font-family="Helvetica,sans-Serif" font-size="10.00" fill="#000000">InClass</text>
</a>
</g>
</g>
<!-- Node2362&#45;&gt;Node2363 -->
<g id="edge10" class="edge">
<title>Node2362&#45;&gt;Node2363</title>
<path fill="none" stroke="#191970" d="M1082.0359,-135C1091.6832,-135 1101.7166,-135 1111.6285,-135"/>
<polygon fill="#191970" stroke="#191970" points="1111.8926,-138.5001 1121.8926,-135 1111.8925,-131.5001 1111.8926,-138.5001"/>
</g>
<!-- Node2364 -->
<g id="node10" class="node">
<title>Node2364</title>
<g id="a_node10"><a xlink:href="../../db/d73/_interactive_8c.html#a59cd6bddf2c4370dc4579f063e2f1930" target="_top" xlink:title="omc_Interactive_getClasses\lInParts">
<polygon fill="#ffffff" stroke="#000000" points="1300,-120 1300,-150 1441,-150 1441,-120 1300,-120"/>
<text text-anchor="start" x="1308" y="-138" font-family="Helvetica,sans-Serif" font-size="10.00" fill="#000000">omc_Interactive_getClasses</text>
<text text-anchor="middle" x="1370.5" y="-127" font-family="Helvetica,sans-Serif" font-size="10.00" fill="#000000">InParts</text>
</a>
</g>
</g>
<!-- Node2363&#45;&gt;Node2364 -->
<g id="edge11" class="edge">
<title>Node2363&#45;&gt;Node2364</title>
<path fill="none" stroke="#191970" d="M1263.106,-135C1271.9213,-135 1280.9884,-135 1289.9405,-135"/>
<polygon fill="#191970" stroke="#191970" points="1289.9795,-138.5001 1299.9794,-135 1289.9794,-131.5001 1289.9795,-138.5001"/>
</g>
<!-- Node2365 -->
<g id="node11" class="node">
<title>Node2365</title>
<g id="a_node11"><a xlink:href="../../db/d73/_interactive_8c.html#a8cd7c2589481fea8e60d03ad82def175" target="_top" xlink:title="omc_Interactive_getClasses\lInElts">
<polygon fill="#ffffff" stroke="#000000" points="1477,-120 1477,-150 1618,-150 1618,-120 1477,-120"/>
<text text-anchor="start" x="1485" y="-138" font-family="Helvetica,sans-Serif" font-size="10.00" fill="#000000">omc_Interactive_getClasses</text>
<text text-anchor="middle" x="1547.5" y="-127" font-family="Helvetica,sans-Serif" font-size="10.00" fill="#000000">InElts</text>
</a>
</g>
</g>
<!-- Node2364&#45;&gt;Node2365 -->
<g id="edge12" class="edge">
<title>Node2364&#45;&gt;Node2365</title>
<path fill="none" stroke="#191970" d="M1441.2182,-135C1449.57,-135 1458.1422,-135 1466.6204,-135"/>
<polygon fill="#191970" stroke="#191970" points="1466.8942,-138.5001 1476.8942,-135 1466.8942,-131.5001 1466.8942,-138.5001"/>
</g>
<!-- Node2366 -->
<g id="node12" class="node">
<title>Node2366</title>
<g id="a_node12"><a xlink:href="../../d2/d57/build_2include_2omc_2c_2meta_2meta__modelica__builtin_8h.html#a56b7e8a835b2d388f5984ca7378bc1ec" target="_top" xlink:title="listAppend">
<polygon fill="#ffffff" stroke="#000000" points="1516.5,-41.5 1516.5,-60.5 1578.5,-60.5 1578.5,-41.5 1516.5,-41.5"/>
<text text-anchor="middle" x="1547.5" y="-48.5" font-family="Helvetica,sans-Serif" font-size="10.00" fill="#000000">listAppend</text>
</a>
</g>
</g>
<!-- Node2364&#45;&gt;Node2366 -->
<g id="edge13" class="edge">
<title>Node2364&#45;&gt;Node2366</title>
<path fill="none" stroke="#191970" d="M1402.1441,-119.9825C1435.0358,-104.3729 1486.0977,-80.1401 1518.1232,-64.9415"/>
<polygon fill="#191970" stroke="#191970" points="1519.8762,-67.9838 1527.4098,-60.5343 1516.8749,-61.6598 1519.8762,-67.9838"/>
</g>
<!-- Node2364&#45;&gt;Node2367 -->
<g id="edge14" class="edge">
<title>Node2364&#45;&gt;Node2367</title>
<path fill="none" stroke="#191970" d="M1409.3434,-150.1423C1442.8426,-163.2014 1490.3764,-181.7315 1520.05,-193.2992"/>
<polygon fill="#191970" stroke="#191970" points="1519.1605,-196.7089 1529.7488,-197.08 1521.703,-190.1869 1519.1605,-196.7089"/>
</g>
<!-- Node2368&#45;&gt;Node2362 -->
<g id="edge17" class="edge">
<title>Node2368&#45;&gt;Node2362</title>
<path fill="none" stroke="#191970" d="M905.6296,-131.9117C917.1119,-132.2315 929.0831,-132.565 940.7322,-132.8895"/>
<polygon fill="#191970" stroke="#191970" points="940.7723,-136.3919 950.8659,-133.1718 940.9673,-129.3946 940.7723,-136.3919"/>
</g>
<!-- Node2370 -->
<g id="node16" class="node">
<title>Node2370</title>
<g id="a_node16"><a xlink:href="../../d3/db3/_flags_8c.html#a34e6591659b1578969141a635ff24042" target="_top" xlink:title="omc_Flags_isSet">
<polygon fill="#ffffff" stroke="#000000" points="970.5,-365.5 970.5,-384.5 1062.5,-384.5 1062.5,-365.5 970.5,-365.5"/>
<text text-anchor="middle" x="1016.5" y="-372.5" font-family="Helvetica,sans-Serif" font-size="10.00" fill="#000000">omc_Flags_isSet</text>
</a>
</g>
</g>
<!-- Node2369&#45;&gt;Node2370 -->
<g id="edge19" class="edge">
<title>Node2369&#45;&gt;Node2370</title>
<path fill="none" stroke="#191970" d="M662.4425,-327.5472C687.4141,-336.4827 726.7728,-349.4141 762,-356 829.3701,-368.5951 908.2457,-372.9063 960.1245,-374.3459"/>
<polygon fill="#191970" stroke="#191970" points="960.0441,-377.8449 970.1289,-374.5972 960.2199,-370.8471 960.0441,-377.8449"/>
</g>
<!-- Node2373 -->
<g id="node19" class="node">
<title>Node2373</title>
<g id="a_node19"><a xlink:href="../../d7/deb/build_2include_2omc_2c_2util_2modelica__string_8c.html#a751007abc59e9ca7978f2af10a0c814f" target="_top" xlink:title="stringAppend">
<polygon fill="#ffffff" stroke="#000000" points="800,-251.5 800,-270.5 874,-270.5 874,-251.5 800,-251.5"/>
<text text-anchor="middle" x="837" y="-258.5" font-family="Helvetica,sans-Serif" font-size="10.00" fill="#000000">stringAppend</text>
</a>
</g>
</g>
<!-- Node2369&#45;&gt;Node2373 -->
<g id="edge22" class="edge">
<title>Node2369&#45;&gt;Node2373</title>
<path fill="none" stroke="#191970" d="M666.9404,-308.4656C692.1908,-300.5289 729.3336,-289.0976 762,-280 771.0275,-277.4858 780.7047,-274.9309 790.0071,-272.5442"/>
<polygon fill="#191970" stroke="#191970" points="791.0748,-275.8842 799.9055,-270.0302 789.3516,-269.0996 791.0748,-275.8842"/>
</g>
<!-- Node2374 -->
<g id="node20" class="node">
<title>Node2374</title>
<g id="a_node20"><a xlink:href="../../db/d8a/_settings_8c.html#a50f4b9de23b5202f6ee4225b4e08b2d2" target="_top" xlink:title="omc_Settings_getInstallation\lDirectoryPath">
<polygon fill="#ffffff" stroke="#000000" points="765.5,-404 765.5,-434 908.5,-434 908.5,-404 765.5,-404"/>
<text text-anchor="start" x="773.5" y="-422" font-family="Helvetica,sans-Serif" font-size="10.00" fill="#000000">omc_Settings_getInstallation</text>
<text text-anchor="middle" x="837" y="-411" font-family="Helvetica,sans-Serif" font-size="10.00" fill="#000000">DirectoryPath</text>
</a>
</g>
</g>
<!-- Node2369&#45;&gt;Node2374 -->
<g id="edge23" class="edge">
<title>Node2369&#45;&gt;Node2374</title>
<path fill="none" stroke="#191970" d="M652.4188,-327.6672C675.6626,-342.0295 721.2948,-369.4108 762,-389 769.9878,-392.8441 778.6035,-396.6189 787.0501,-400.1242"/>
<polygon fill="#191970" stroke="#191970" points="785.8905,-403.4309 796.4723,-403.9567 788.528,-396.9468 785.8905,-403.4309"/>
</g>
<!-- Node2377 -->
<g id="node23" class="node">
<title>Node2377</title>
<g id="a_node23"><a xlink:href="../../d9/d7c/_compiler_2boot_2build_2util_8c.html#ad68c3faf9201d411f2989d49f79a146a" target="_top" xlink:title="omc_Util_assoc">
<polygon fill="#ffffff" stroke="#000000" points="793.5,-327.5 793.5,-346.5 880.5,-346.5 880.5,-327.5 793.5,-327.5"/>
<text text-anchor="middle" x="837" y="-334.5" font-family="Helvetica,sans-Serif" font-size="10.00" fill="#000000">omc_Util_assoc</text>
</a>
</g>
</g>
<!-- Node2369&#45;&gt;Node2377 -->
<g id="edge27" class="edge">
<title>Node2369&#45;&gt;Node2377</title>
<path fill="none" stroke="#191970" d="M716.0453,-325.5093C738.556,-327.6478 762.55,-329.9273 783.1828,-331.8874"/>
<polygon fill="#191970" stroke="#191970" points="783.0431,-335.3898 793.3293,-332.8513 783.7051,-328.4211 783.0431,-335.3898"/>
</g>
<!-- Node2379 -->
<g id="node25" class="node">
<title>Node2379</title>
<g id="a_node25"><a xlink:href="../../d3/db3/_flags_8c.html#add52ff282ca5df852c1905fabb4571c9" target="_top" xlink:title="omc_Flags_getConfigEnum">
<polygon fill="#ffffff" stroke="#000000" points="768.5,-289.5 768.5,-308.5 905.5,-308.5 905.5,-289.5 768.5,-289.5"/>
<text text-anchor="middle" x="837" y="-296.5" font-family="Helvetica,sans-Serif" font-size="10.00" fill="#000000">omc_Flags_getConfigEnum</text>
</a>
</g>
</g>
<!-- Node2369&#45;&gt;Node2379 -->
<g id="edge29" class="edge">
<title>Node2369&#45;&gt;Node2379</title>
<path fill="none" stroke="#191970" d="M716.0453,-310.4907C729.9273,-309.1719 744.3734,-307.7995 758.2475,-306.4815"/>
<polygon fill="#191970" stroke="#191970" points="758.6084,-309.9631 768.2326,-305.5329 757.9464,-302.9944 758.6084,-309.9631"/>
</g>
<!-- Node2371 -->
<g id="node17" class="node">
<title>Node2371</title>
<g id="a_node17"><a xlink:href="../../d3/db3/_flags_8c.html#a760d66f53b65ac257876ca0f6308f09f" target="_top" xlink:title="omc_Flags_loadFlags">
<polygon fill="#ffffff" stroke="#000000" points="1136.5,-318.5 1136.5,-337.5 1248.5,-337.5 1248.5,-318.5 1136.5,-318.5"/>
<text text-anchor="middle" x="1192.5" y="-325.5" font-family="Helvetica,sans-Serif" font-size="10.00" fill="#000000">omc_Flags_loadFlags</text>
</a>
</g>
</g>
<!-- Node2370&#45;&gt;Node2371 -->
<g id="edge20" class="edge">
<title>Node2370&#45;&gt;Node2371</title>
<path fill="none" stroke="#191970" d="M1052.1162,-365.4888C1079.46,-358.1868 1117.4128,-348.0517 1146.9633,-340.1604"/>
<polygon fill="#191970" stroke="#191970" points="1147.8767,-343.5392 1156.6351,-337.5776 1146.0706,-336.7762 1147.8767,-343.5392"/>
</g>
<!-- Node2372 -->
<g id="node18" class="node">
<title>Node2372</title>
<g id="a_node18"><a xlink:href="../../da/d72/_compiler_2boot_2build_2list_8c.html#a3ec1ee3a5ff53be9af368e290be09182" target="_top" xlink:title="omc_List_fold">
<polygon fill="#ffffff" stroke="#000000" points="1332,-318.5 1332,-337.5 1409,-337.5 1409,-318.5 1332,-318.5"/>
<text text-anchor="middle" x="1370.5" y="-325.5" font-family="Helvetica,sans-Serif" font-size="10.00" fill="#000000">omc_List_fold</text>
</a>
</g>
</g>
<!-- Node2371&#45;&gt;Node2372 -->
<g id="edge21" class="edge">
<title>Node2371&#45;&gt;Node2372</title>
<path fill="none" stroke="#191970" d="M1248.8203,-328C1272.3148,-328 1299.3376,-328 1321.9407,-328"/>
<polygon fill="#191970" stroke="#191970" points="1321.9863,-331.5001 1331.9863,-328 1321.9862,-324.5001 1321.9863,-331.5001"/>
</g>
<!-- Node2375 -->
<g id="node21" class="node">
<title>Node2375</title>
<g id="a_node21"><a xlink:href="../../d4/d4a/_settings_8h.html#aa560265d614bc84fcd9a24b5e7911902" target="_top" xlink:title="Settings_getInstallation\lDirectoryPath">
<polygon fill="#ffffff" stroke="#000000" points="957,-404 957,-434 1076,-434 1076,-404 957,-404"/>
<text text-anchor="start" x="965" y="-422" font-family="Helvetica,sans-Serif" font-size="10.00" fill="#000000">Settings_getInstallation</text>
<text text-anchor="middle" x="1016.5" y="-411" font-family="Helvetica,sans-Serif" font-size="10.00" fill="#000000">DirectoryPath</text>
</a>
</g>
</g>
<!-- Node2374&#45;&gt;Node2375 -->
<g id="edge24" class="edge">
<title>Node2374&#45;&gt;Node2375</title>
<path fill="none" stroke="#191970" d="M908.717,-419C921.1524,-419 934.0695,-419 946.4594,-419"/>
<polygon fill="#191970" stroke="#191970" points="946.7209,-422.5001 956.7208,-419 946.7208,-415.5001 946.7209,-422.5001"/>
</g>
<!-- Node2376 -->
<g id="node22" class="node">
<title>Node2376</title>
<g id="a_node22"><a xlink:href="../../d9/d08/settingsimpl_8c.html#add138f2c89e6604d53c1adf2d64fe2e3" target="_top" xlink:title="SettingsImpl__getInstallation\lDirectoryPath">
<polygon fill="#ffffff" stroke="#000000" points="1121,-386 1121,-416 1264,-416 1264,-386 1121,-386"/>
<text text-anchor="start" x="1129" y="-404" font-family="Helvetica,sans-Serif" font-size="10.00" fill="#000000">SettingsImpl__getInstallation</text>
<text text-anchor="middle" x="1192.5" y="-393" font-family="Helvetica,sans-Serif" font-size="10.00" fill="#000000">DirectoryPath</text>
</a>
</g>
</g>
<!-- Node2375&#45;&gt;Node2376 -->
<g id="edge25" class="edge">
<title>Node2375&#45;&gt;Node2376</title>
<path fill="none" stroke="#191970" d="M1076.0856,-412.906C1087.1924,-411.7701 1098.9757,-410.565 1110.6156,-409.3745"/>
<polygon fill="#191970" stroke="#191970" points="1111.1952,-412.8336 1120.7872,-408.3343 1110.4829,-405.8699 1111.1952,-412.8336"/>
</g>
<!-- Node2376&#45;&gt;Node2376 -->
<g id="edge26" class="edge">
<title>Node2376&#45;&gt;Node2376</title>
<path fill="none" stroke="#191970" d="M1161.8284,-416.159C1154.4324,-425.5566 1164.6563,-434.5 1192.5,-434.5 1209.4673,-434.5 1219.8916,-431.179 1223.7731,-426.4579"/>
<polygon fill="#191970" stroke="#191970" points="1227.2488,-425.9379 1223.1716,-416.159 1220.2607,-426.3461 1227.2488,-425.9379"/>
</g>
<!-- Node2378 -->
<g id="node24" class="node">
<title>Node2378</title>
<g id="a_node24"><a xlink:href="../../dc/dd0/build_2include_2omc_2c_2meta_2meta__modelica_8h.html#a053b78d26cb7fe728aa97ab1a575f7ad" target="_top" xlink:title="valueEq">
<polygon fill="#ffffff" stroke="#000000" points="990.5,-327.5 990.5,-346.5 1042.5,-346.5 1042.5,-327.5 990.5,-327.5"/>
<text text-anchor="middle" x="1016.5" y="-334.5" font-family="Helvetica,sans-Serif" font-size="10.00" fill="#000000">valueEq</text>
</a>
</g>
</g>
<!-- Node2377&#45;&gt;Node2378 -->
<g id="edge28" class="edge">
<title>Node2377&#45;&gt;Node2378</title>
<path fill="none" stroke="#191970" d="M880.9106,-337C911.4153,-337 951.5774,-337 980.2578,-337"/>
<polygon fill="#191970" stroke="#191970" points="980.2656,-340.5001 990.2656,-337 980.2655,-333.5001 980.2656,-340.5001"/>
</g>
<!-- Node2380 -->
<g id="node26" class="node">
<title>Node2380</title>
<g id="a_node26"><a xlink:href="../../d3/db3/_flags_8c.html#a96ba70d54b6662cf90933a207c0c6b8e" target="_top" xlink:title="omc_Flags_getConfigValue">
<polygon fill="#ffffff" stroke="#000000" points="948,-289.5 948,-308.5 1085,-308.5 1085,-289.5 948,-289.5"/>
<text text-anchor="middle" x="1016.5" y="-296.5" font-family="Helvetica,sans-Serif" font-size="10.00" fill="#000000">omc_Flags_getConfigValue</text>
</a>
</g>
</g>
<!-- Node2379&#45;&gt;Node2380 -->
<g id="edge30" class="edge">
<title>Node2379&#45;&gt;Node2380</title>
<path fill="none" stroke="#191970" d="M905.6296,-299C916.1299,-299 927.0391,-299 937.7369,-299"/>
<polygon fill="#191970" stroke="#191970" points="937.9085,-302.5001 947.9085,-299 937.9084,-295.5001 937.9085,-302.5001"/>
</g>
<!-- Node2380&#45;&gt;Node2371 -->
<g id="edge31" class="edge">
<title>Node2380&#45;&gt;Node2371</title>
<path fill="none" stroke="#191970" d="M1074.6168,-308.5761C1091.0344,-311.2812 1109.0267,-314.2459 1125.9013,-317.0264"/>
<polygon fill="#191970" stroke="#191970" points="1125.8036,-320.5574 1136.2397,-318.7298 1126.9418,-313.6505 1125.8036,-320.5574"/>
</g>
<!-- Node2382 -->
<g id="node28" class="node">
<title>Node2382</title>
<g id="a_node28"><a xlink:href="../../da/d72/_compiler_2boot_2build_2list_8c.html#a65a694e3889f2f5d8af963dcfbbaf1cf" target="_top" xlink:title="omc_List_flatten">
<polygon fill="#ffffff" stroke="#000000" points="592.5,-38.5 592.5,-57.5 681.5,-57.5 681.5,-38.5 592.5,-38.5"/>
<text text-anchor="middle" x="637" y="-45.5" font-family="Helvetica,sans-Serif" font-size="10.00" fill="#000000">omc_List_flatten</text>
</a>
</g>
</g>
<!-- Node2381&#45;&gt;Node2382 -->
<g id="edge34" class="edge">
<title>Node2381&#45;&gt;Node2382</title>
<path fill="none" stroke="#191970" d="M512.1057,-59.4361C535.6099,-57.2839 560.626,-54.9933 582.0479,-53.0318"/>
<polygon fill="#191970" stroke="#191970" points="582.6138,-56.4947 592.253,-52.0973 581.9755,-49.5238 582.6138,-56.4947"/>
</g>
<!-- Node2384 -->
<g id="node30" class="node">
<title>Node2384</title>
<g id="a_node30"><a xlink:href="../../da/d72/_compiler_2boot_2build_2list_8c.html#a70628b2c3fb199a118f80777135940ee" target="_top" xlink:title="omc_List_map">
<polygon fill="#ffffff" stroke="#000000" points="597,-.5 597,-19.5 677,-19.5 677,-.5 597,-.5"/>
<text text-anchor="middle" x="637" y="-7.5" font-family="Helvetica,sans-Serif" font-size="10.00" fill="#000000">omc_List_map</text>
</a>
</g>
</g>
<!-- Node2381&#45;&gt;Node2384 -->
<g id="edge37" class="edge">
<title>Node2381&#45;&gt;Node2384</title>
<path fill="none" stroke="#191970" d="M472.8083,-51.9638C495.1143,-44.5128 522.8433,-35.7008 548,-29 560.5287,-25.6628 574.1704,-22.5128 586.9241,-19.7728"/>
<polygon fill="#191970" stroke="#191970" points="587.8594,-23.1527 596.9238,-17.6676 586.4172,-16.3028 587.8594,-23.1527"/>
</g>
<!-- Node2385 -->
<g id="node31" class="node">
<title>Node2385</title>
<g id="a_node31"><a xlink:href="../../d0/d78/_absyn_8c.html#ab831c61b00e06407584466e28fe425da" target="_top" xlink:title="omc_Absyn_getNamedAnnotationStr">
<polygon fill="#ffffff" stroke="#000000" points="548,-76.5 548,-95.5 726,-95.5 726,-76.5 548,-76.5"/>
<text text-anchor="middle" x="637" y="-83.5" font-family="Helvetica,sans-Serif" font-size="10.00" fill="#000000">omc_Absyn_getNamedAnnotationStr</text>
</a>
</g>
</g>
<!-- Node2381&#45;&gt;Node2385 -->
<g id="edge38" class="edge">
<title>Node2381&#45;&gt;Node2385</title>
<path fill="none" stroke="#191970" d="M512.1057,-74.5639C520.5538,-75.3375 529.1972,-76.1289 537.7988,-76.9165"/>
<polygon fill="#191970" stroke="#191970" points="537.5855,-80.4115 547.863,-77.8381 538.2238,-73.4407 537.5855,-80.4115"/>
</g>
<!-- Node2382&#45;&gt;Node2366 -->
<g id="edge36" class="edge">
<title>Node2382&#45;&gt;Node2366</title>
<path fill="none" stroke="#191970" d="M681.7275,-40.3548C705.5107,-36.504 735.281,-32.0236 762,-29 874.7066,-16.246 903.0741,-10 1016.5,-10 1016.5,-10 1016.5,-10 1192.5,-10 1306.7487,-10 1440.322,-31.2149 1506.302,-43.1236"/>
<polygon fill="#191970" stroke="#191970" points="1505.8314,-46.5955 1516.2977,-44.9503 1507.0899,-39.7095 1505.8314,-46.5955"/>
</g>
<!-- Node2383 -->
<g id="node29" class="node">
<title>Node2383</title>
<g id="a_node29"><a xlink:href="../../d2/d57/build_2include_2omc_2c_2meta_2meta__modelica__builtin_8h.html#a81001ba45c298ade27540edd2589777c" target="_top" xlink:title="listReverse">
<polygon fill="#ffffff" stroke="#000000" points="804,-38.5 804,-57.5 870,-57.5 870,-38.5 804,-38.5"/>
<text text-anchor="middle" x="837" y="-45.5" font-family="Helvetica,sans-Serif" font-size="10.00" fill="#000000">listReverse</text>
</a>
</g>
</g>
<!-- Node2382&#45;&gt;Node2383 -->
<g id="edge35" class="edge">
<title>Node2382&#45;&gt;Node2383</title>
<path fill="none" stroke="#191970" d="M681.8839,-48C715.2429,-48 760.5022,-48 793.5207,-48"/>
<polygon fill="#191970" stroke="#191970" points="793.7803,-51.5001 803.7803,-48 793.7803,-44.5001 793.7803,-51.5001"/>
</g>
</g>
</svg>
