<?xml version="1.0" encoding="UTF-8" standalone="no"?>
<!DOCTYPE svg PUBLIC "-//W3C//DTD SVG 1.1//EN"
 "http://www.w3.org/Graphics/SVG/1.1/DTD/svg11.dtd">
<!-- Generated by graphviz version 2.40.1 (20161225.0304)
 -->
<!-- Title: boxptr_Interactive_setSourceFile Pages: 1 -->
<svg width="1565pt" height="399pt"
 viewBox="0.00 0.00 1565.00 399.00" xmlns="http://www.w3.org/2000/svg" xmlns:xlink="http://www.w3.org/1999/xlink">
<g id="graph0" class="graph" transform="scale(1 1) rotate(0) translate(4 395)">
<title>boxptr_Interactive_setSourceFile</title>
<polygon fill="#ffffff" stroke="transparent" points="-4,4 -4,-395 1561,-395 1561,4 -4,4"/>
<!-- Node1500 -->
<g id="node1" class="node">
<title>Node1500</title>
<polygon fill="#bfbfbf" stroke="#000000" points="0,-92 0,-122 95,-122 95,-92 0,-92"/>
<text text-anchor="start" x="8" y="-110" font-family="Helvetica,sans-Serif" font-size="10.00" fill="#000000">boxptr_Interactive</text>
<text text-anchor="middle" x="47.5" y="-99" font-family="Helvetica,sans-Serif" font-size="10.00" fill="#000000">_setSourceFile</text>
</g>
<!-- Node1501 -->
<g id="node2" class="node">
<title>Node1501</title>
<g id="a_node2"><a xlink:href="../../db/d73/_interactive_8c.html#a81143e15164c0a89efc3d9a0e70e13e6" target="_top" xlink:title="omc_Interactive_setSourceFile">
<polygon fill="#ffffff" stroke="#000000" points="131,-97.5 131,-116.5 283,-116.5 283,-97.5 131,-97.5"/>
<text text-anchor="middle" x="207" y="-104.5" font-family="Helvetica,sans-Serif" font-size="10.00" fill="#000000">omc_Interactive_setSourceFile</text>
</a>
</g>
</g>
<!-- Node1500&#45;&gt;Node1501 -->
<g id="edge1" class="edge">
<title>Node1500&#45;&gt;Node1501</title>
<path fill="none" stroke="#191970" d="M95.3553,-107C103.4016,-107 111.9665,-107 120.6364,-107"/>
<polygon fill="#191970" stroke="#191970" points="120.8376,-110.5001 130.8375,-107 120.8375,-103.5001 120.8376,-110.5001"/>
</g>
<!-- Node1502 -->
<g id="node3" class="node">
<title>Node1502</title>
<g id="a_node3"><a xlink:href="../../db/d73/_interactive_8c.html#a6725f24e4d4d6fb348c2918fecfb9092" target="_top" xlink:title="omc_Interactive_getPathed\lClassInProgram">
<polygon fill="#ffffff" stroke="#000000" points="327,-136 327,-166 463,-166 463,-136 327,-136"/>
<text text-anchor="start" x="335" y="-154" font-family="Helvetica,sans-Serif" font-size="10.00" fill="#000000">omc_Interactive_getPathed</text>
<text text-anchor="middle" x="395" y="-143" font-family="Helvetica,sans-Serif" font-size="10.00" fill="#000000">ClassInProgram</text>
</a>
</g>
</g>
<!-- Node1501&#45;&gt;Node1502 -->
<g id="edge2" class="edge">
<title>Node1501&#45;&gt;Node1502</title>
<path fill="none" stroke="#191970" d="M247.7932,-116.5473C269.1488,-121.5455 295.9674,-127.8222 320.8434,-133.6442"/>
<polygon fill="#191970" stroke="#191970" points="320.0953,-137.0636 330.6298,-135.9346 321.6905,-130.2478 320.0953,-137.0636"/>
</g>
<!-- Node1526 -->
<g id="node27" class="node">
<title>Node1526</title>
<g id="a_node27"><a xlink:href="../../db/d73/_interactive_8c.html#a6fbcf90560afec65156acb876da0db65" target="_top" xlink:title="omc_Interactive_buildWithin">
<polygon fill="#ffffff" stroke="#000000" points="325,-97.5 325,-116.5 465,-116.5 465,-97.5 325,-97.5"/>
<text text-anchor="middle" x="395" y="-104.5" font-family="Helvetica,sans-Serif" font-size="10.00" fill="#000000">omc_Interactive_buildWithin</text>
</a>
</g>
</g>
<!-- Node1501&#45;&gt;Node1526 -->
<g id="edge33" class="edge">
<title>Node1501&#45;&gt;Node1526</title>
<path fill="none" stroke="#191970" d="M283.1958,-107C293.5014,-107 304.1033,-107 314.4813,-107"/>
<polygon fill="#191970" stroke="#191970" points="314.7655,-110.5001 324.7655,-107 314.7654,-103.5001 314.7655,-110.5001"/>
</g>
<!-- Node1528 -->
<g id="node29" class="node">
<title>Node1528</title>
<g id="a_node29"><a xlink:href="../../d0/d78/_absyn_8c.html#a5a8c1b8acbf3aab8cfd7c1e6e5a06406" target="_top" xlink:title="omc_Absyn_setClassFilename">
<polygon fill="#ffffff" stroke="#000000" points="319,-59.5 319,-78.5 471,-78.5 471,-59.5 319,-59.5"/>
<text text-anchor="middle" x="395" y="-66.5" font-family="Helvetica,sans-Serif" font-size="10.00" fill="#000000">omc_Absyn_setClassFilename</text>
</a>
</g>
</g>
<!-- Node1501&#45;&gt;Node1528 -->
<g id="edge35" class="edge">
<title>Node1501&#45;&gt;Node1528</title>
<path fill="none" stroke="#191970" d="M254.4403,-97.411C279.8077,-92.2835 311.2274,-85.9328 337.9232,-80.5368"/>
<polygon fill="#191970" stroke="#191970" points="338.7925,-83.932 347.9008,-78.5201 337.4056,-77.0707 338.7925,-83.932"/>
</g>
<!-- Node1503 -->
<g id="node4" class="node">
<title>Node1503</title>
<g id="a_node4"><a xlink:href="../../db/d73/_interactive_8c.html#a94088fd09396293fce13cc6f42b0f8fa" target="_top" xlink:title="omc_Interactive_getPathed\lClassInProgramWork">
<polygon fill="#ffffff" stroke="#000000" points="518,-136 518,-166 654,-166 654,-136 518,-136"/>
<text text-anchor="start" x="526" y="-154" font-family="Helvetica,sans-Serif" font-size="10.00" fill="#000000">omc_Interactive_getPathed</text>
<text text-anchor="middle" x="586" y="-143" font-family="Helvetica,sans-Serif" font-size="10.00" fill="#000000">ClassInProgramWork</text>
</a>
</g>
</g>
<!-- Node1502&#45;&gt;Node1503 -->
<g id="edge3" class="edge">
<title>Node1502&#45;&gt;Node1503</title>
<path fill="none" stroke="#191970" d="M463.1465,-144.5024C477.5961,-144.2288 492.9582,-144.1777 507.7493,-144.3488"/>
<polygon fill="#191970" stroke="#191970" points="507.8277,-147.8503 517.8798,-144.5029 507.9342,-140.8511 507.8277,-147.8503"/>
</g>
<!-- Node1512 -->
<g id="node13" class="node">
<title>Node1512</title>
<g id="a_node13"><a xlink:href="../../d1/dd1/3rd_party_2gc_2include_2gc_8h.html#acacfa47efcc44a29f7bb7d98f2a000f8" target="_top" xlink:title="void">
<polygon fill="#ffffff" stroke="#000000" points="1469,-97.5 1469,-116.5 1504,-116.5 1504,-97.5 1469,-97.5"/>
<text text-anchor="middle" x="1486.5" y="-104.5" font-family="Helvetica,sans-Serif" font-size="10.00" fill="#000000">void</text>
</a>
</g>
</g>
<!-- Node1502&#45;&gt;Node1512 -->
<g id="edge32" class="edge">
<title>Node1502&#45;&gt;Node1512</title>
<path fill="none" stroke="#191970" d="M407.0219,-166.0131C450.5561,-218.5549 606.3595,-391 776,-391 776,-391 776,-391 1131.5,-391 1301.9416,-391 1437.4393,-188.9151 1475.666,-125.6803"/>
<polygon fill="#191970" stroke="#191970" points="1478.8576,-127.1608 1480.9565,-116.7759 1472.8396,-123.5853 1478.8576,-127.1608"/>
</g>
<!-- Node1514 -->
<g id="node15" class="node">
<title>Node1514</title>
<g id="a_node15"><a xlink:href="../../d7/d1c/_f_builtin_8c.html#a39ccd88d72001ca29a15abe18a97d4c4" target="_top" xlink:title="omc_FBuiltin_getInitialFunctions">
<polygon fill="#ffffff" stroke="#000000" points="507,-236.5 507,-255.5 665,-255.5 665,-236.5 507,-236.5"/>
<text text-anchor="middle" x="586" y="-243.5" font-family="Helvetica,sans-Serif" font-size="10.00" fill="#000000">omc_FBuiltin_getInitialFunctions</text>
</a>
</g>
</g>
<!-- Node1502&#45;&gt;Node1514 -->
<g id="edge18" class="edge">
<title>Node1502&#45;&gt;Node1514</title>
<path fill="none" stroke="#191970" d="M425.2645,-166.053C461.5128,-184.0823 521.7799,-214.0581 557.3137,-231.7319"/>
<polygon fill="#191970" stroke="#191970" points="556.1273,-235.0508 566.6396,-236.3705 559.2447,-228.7833 556.1273,-235.0508"/>
</g>
<!-- Node1503&#45;&gt;Node1502 -->
<g id="edge6" class="edge">
<title>Node1503&#45;&gt;Node1502</title>
<path fill="none" stroke="#191970" d="M517.8798,-157.4971C503.4313,-157.7709 488.0694,-157.8224 473.2776,-157.6515"/>
<polygon fill="#191970" stroke="#191970" points="473.1985,-154.15 463.1465,-157.4976 473.0921,-161.1492 473.1985,-154.15"/>
</g>
<!-- Node1504 -->
<g id="node5" class="node">
<title>Node1504</title>
<g id="a_node5"><a xlink:href="../../db/d73/_interactive_8c.html#a0decc2aabeed83ab0e2d11f7c5f7078a" target="_top" xlink:title="omc_Interactive_getClass\lInProgram">
<polygon fill="#ffffff" stroke="#000000" points="890,-136 890,-166 1021,-166 1021,-136 890,-136"/>
<text text-anchor="start" x="898" y="-154" font-family="Helvetica,sans-Serif" font-size="10.00" fill="#000000">omc_Interactive_getClass</text>
<text text-anchor="middle" x="955.5" y="-143" font-family="Helvetica,sans-Serif" font-size="10.00" fill="#000000">InProgram</text>
</a>
</g>
</g>
<!-- Node1503&#45;&gt;Node1504 -->
<g id="edge4" class="edge">
<title>Node1503&#45;&gt;Node1504</title>
<path fill="none" stroke="#191970" d="M654.2026,-151C718.037,-151 813.2465,-151 879.4935,-151"/>
<polygon fill="#191970" stroke="#191970" points="879.8679,-154.5001 889.8678,-151 879.8678,-147.5001 879.8679,-154.5001"/>
</g>
<!-- Node1506 -->
<g id="node7" class="node">
<title>Node1506</title>
<g id="a_node7"><a xlink:href="../../db/d73/_interactive_8c.html#a53acc6f98f291721c9a118bb4afe429c" target="_top" xlink:title="omc_Interactive_getPathed\lClassInProgramWorkNoThrow">
<polygon fill="#ffffff" stroke="#000000" points="701,-92 701,-122 851,-122 851,-92 701,-92"/>
<text text-anchor="start" x="709" y="-110" font-family="Helvetica,sans-Serif" font-size="10.00" fill="#000000">omc_Interactive_getPathed</text>
<text text-anchor="middle" x="776" y="-99" font-family="Helvetica,sans-Serif" font-size="10.00" fill="#000000">ClassInProgramWorkNoThrow</text>
</a>
</g>
</g>
<!-- Node1503&#45;&gt;Node1506 -->
<g id="edge7" class="edge">
<title>Node1503&#45;&gt;Node1506</title>
<path fill="none" stroke="#191970" d="M650.8558,-135.9808C666.9695,-132.2492 684.374,-128.2186 700.9325,-124.384"/>
<polygon fill="#191970" stroke="#191970" points="702.1616,-127.6921 711.1141,-122.0262 700.5823,-120.8726 702.1616,-127.6921"/>
</g>
<!-- Node1513 -->
<g id="node14" class="node">
<title>Node1513</title>
<g id="a_node14"><a xlink:href="../../db/d73/_interactive_8c.html#a9f36d43b7641634cb0d9a738c7ed88c5" target="_top" xlink:title="omc_Interactive_getPathed\lClassInProgramWorkThrow">
<polygon fill="#ffffff" stroke="#000000" points="707.5,-43 707.5,-73 844.5,-73 844.5,-43 707.5,-43"/>
<text text-anchor="start" x="715.5" y="-61" font-family="Helvetica,sans-Serif" font-size="10.00" fill="#000000">omc_Interactive_getPathed</text>
<text text-anchor="middle" x="776" y="-50" font-family="Helvetica,sans-Serif" font-size="10.00" fill="#000000">ClassInProgramWorkThrow</text>
</a>
</g>
</g>
<!-- Node1503&#45;&gt;Node1513 -->
<g id="edge16" class="edge">
<title>Node1503&#45;&gt;Node1513</title>
<path fill="none" stroke="#191970" d="M646.3902,-135.9811C652.935,-133.1755 659.2845,-129.8748 665,-126 685.9138,-111.8214 680.109,-96.2122 701,-82 703.2536,-80.4668 705.6112,-79.0269 708.0427,-77.675"/>
<polygon fill="#191970" stroke="#191970" points="709.7265,-80.7465 717.1176,-73.1556 706.6059,-74.4806 709.7265,-80.7465"/>
</g>
<!-- Node1505 -->
<g id="node6" class="node">
<title>Node1505</title>
<g id="a_node6"><a xlink:href="../../da/d72/_compiler_2boot_2build_2list_8c.html#aaa81bbdddf6ecc72a7ba180a14e0458b" target="_top" xlink:title="omc_List_find1">
<polygon fill="#ffffff" stroke="#000000" points="1090,-59.5 1090,-78.5 1173,-78.5 1173,-59.5 1090,-59.5"/>
<text text-anchor="middle" x="1131.5" y="-66.5" font-family="Helvetica,sans-Serif" font-size="10.00" fill="#000000">omc_List_find1</text>
</a>
</g>
</g>
<!-- Node1504&#45;&gt;Node1505 -->
<g id="edge5" class="edge">
<title>Node1504&#45;&gt;Node1505</title>
<path fill="none" stroke="#191970" d="M987.7811,-135.9599C1020.3373,-120.7917 1070.1777,-97.5706 1101.7865,-82.8438"/>
<polygon fill="#191970" stroke="#191970" points="1103.3852,-85.9602 1110.9715,-78.5644 1100.4289,-79.6151 1103.3852,-85.9602"/>
</g>
<!-- Node1507 -->
<g id="node8" class="node">
<title>Node1507</title>
<g id="a_node8"><a xlink:href="../../db/d73/_interactive_8c.html#ab1a6c5772a699f50ca691f1b72680977" target="_top" xlink:title="omc_Interactive_getClass\lInClass">
<polygon fill="#ffffff" stroke="#000000" points="890,-46 890,-76 1021,-76 1021,-46 890,-46"/>
<text text-anchor="start" x="898" y="-64" font-family="Helvetica,sans-Serif" font-size="10.00" fill="#000000">omc_Interactive_getClass</text>
<text text-anchor="middle" x="955.5" y="-53" font-family="Helvetica,sans-Serif" font-size="10.00" fill="#000000">InClass</text>
</a>
</g>
</g>
<!-- Node1506&#45;&gt;Node1507 -->
<g id="edge8" class="edge">
<title>Node1506&#45;&gt;Node1507</title>
<path fill="none" stroke="#191970" d="M834.775,-91.9379C851.4419,-87.6667 869.7331,-82.9793 886.925,-78.5735"/>
<polygon fill="#191970" stroke="#191970" points="888.0816,-81.8903 896.8997,-76.0174 886.3438,-75.1094 888.0816,-81.8903"/>
</g>
<!-- Node1506&#45;&gt;Node1512 -->
<g id="edge15" class="edge">
<title>Node1506&#45;&gt;Node1512</title>
<path fill="none" stroke="#191970" d="M851.0279,-107C1006.422,-107 1357.4169,-107 1458.6723,-107"/>
<polygon fill="#191970" stroke="#191970" points="1458.7245,-110.5001 1468.7245,-107 1458.7244,-103.5001 1458.7245,-110.5001"/>
</g>
<!-- Node1507&#45;&gt;Node1505 -->
<g id="edge9" class="edge">
<title>Node1507&#45;&gt;Node1505</title>
<path fill="none" stroke="#191970" d="M1021.0359,-63.9789C1040.4069,-64.8594 1061.3342,-65.8106 1079.71,-66.6459"/>
<polygon fill="#191970" stroke="#191970" points="1079.7672,-70.152 1089.9159,-67.1098 1080.0851,-63.1593 1079.7672,-70.152"/>
</g>
<!-- Node1508 -->
<g id="node9" class="node">
<title>Node1508</title>
<g id="a_node9"><a xlink:href="../../db/d73/_interactive_8c.html#aa82da3f923157554cf2609abe0034767" target="_top" xlink:title="omc_Interactive_getClasses\lInClass">
<polygon fill="#ffffff" stroke="#000000" points="1061,-10 1061,-40 1202,-40 1202,-10 1061,-10"/>
<text text-anchor="start" x="1069" y="-28" font-family="Helvetica,sans-Serif" font-size="10.00" fill="#000000">omc_Interactive_getClasses</text>
<text text-anchor="middle" x="1131.5" y="-17" font-family="Helvetica,sans-Serif" font-size="10.00" fill="#000000">InClass</text>
</a>
</g>
</g>
<!-- Node1507&#45;&gt;Node1508 -->
<g id="edge10" class="edge">
<title>Node1507&#45;&gt;Node1508</title>
<path fill="none" stroke="#191970" d="M1021.0359,-47.5949C1030.7848,-45.6008 1040.9278,-43.5261 1050.9415,-41.4779"/>
<polygon fill="#191970" stroke="#191970" points="1051.7968,-44.8755 1060.8926,-39.4424 1050.394,-38.0175 1051.7968,-44.8755"/>
</g>
<!-- Node1509 -->
<g id="node10" class="node">
<title>Node1509</title>
<g id="a_node10"><a xlink:href="../../db/d73/_interactive_8c.html#a59cd6bddf2c4370dc4579f063e2f1930" target="_top" xlink:title="omc_Interactive_getClasses\lInParts">
<polygon fill="#ffffff" stroke="#000000" points="1239,-29 1239,-59 1380,-59 1380,-29 1239,-29"/>
<text text-anchor="start" x="1247" y="-47" font-family="Helvetica,sans-Serif" font-size="10.00" fill="#000000">omc_Interactive_getClasses</text>
<text text-anchor="middle" x="1309.5" y="-36" font-family="Helvetica,sans-Serif" font-size="10.00" fill="#000000">InParts</text>
</a>
</g>
</g>
<!-- Node1508&#45;&gt;Node1509 -->
<g id="edge11" class="edge">
<title>Node1508&#45;&gt;Node1509</title>
<path fill="none" stroke="#191970" d="M1202.106,-32.5366C1210.9213,-33.4776 1219.9884,-34.4454 1228.9405,-35.401"/>
<polygon fill="#191970" stroke="#191970" points="1228.6644,-38.8913 1238.9794,-36.4725 1229.4074,-31.9308 1228.6644,-38.8913"/>
</g>
<!-- Node1510 -->
<g id="node11" class="node">
<title>Node1510</title>
<g id="a_node11"><a xlink:href="../../db/d73/_interactive_8c.html#a8cd7c2589481fea8e60d03ad82def175" target="_top" xlink:title="omc_Interactive_getClasses\lInElts">
<polygon fill="#ffffff" stroke="#000000" points="1416,-39 1416,-69 1557,-69 1557,-39 1416,-39"/>
<text text-anchor="start" x="1424" y="-57" font-family="Helvetica,sans-Serif" font-size="10.00" fill="#000000">omc_Interactive_getClasses</text>
<text text-anchor="middle" x="1486.5" y="-46" font-family="Helvetica,sans-Serif" font-size="10.00" fill="#000000">InElts</text>
</a>
</g>
</g>
<!-- Node1509&#45;&gt;Node1510 -->
<g id="edge12" class="edge">
<title>Node1509&#45;&gt;Node1510</title>
<path fill="none" stroke="#191970" d="M1380.2182,-47.9954C1388.6618,-48.4724 1397.3306,-48.9622 1405.8998,-49.4463"/>
<polygon fill="#191970" stroke="#191970" points="1405.7126,-52.9412 1415.8942,-50.011 1406.1076,-45.9524 1405.7126,-52.9412"/>
</g>
<!-- Node1511 -->
<g id="node12" class="node">
<title>Node1511</title>
<g id="a_node12"><a xlink:href="../../d2/d57/build_2include_2omc_2c_2meta_2meta__modelica__builtin_8h.html#a56b7e8a835b2d388f5984ca7378bc1ec" target="_top" xlink:title="listAppend">
<polygon fill="#ffffff" stroke="#000000" points="1455.5,-.5 1455.5,-19.5 1517.5,-19.5 1517.5,-.5 1455.5,-.5"/>
<text text-anchor="middle" x="1486.5" y="-7.5" font-family="Helvetica,sans-Serif" font-size="10.00" fill="#000000">listAppend</text>
</a>
</g>
</g>
<!-- Node1509&#45;&gt;Node1511 -->
<g id="edge13" class="edge">
<title>Node1509&#45;&gt;Node1511</title>
<path fill="none" stroke="#191970" d="M1380.2182,-30.4157C1402.2562,-26.1824 1425.8286,-21.6544 1445.1601,-17.941"/>
<polygon fill="#191970" stroke="#191970" points="1445.9785,-21.3479 1455.1387,-16.0242 1444.6579,-14.4735 1445.9785,-21.3479"/>
</g>
<!-- Node1509&#45;&gt;Node1512 -->
<g id="edge14" class="edge">
<title>Node1509&#45;&gt;Node1512</title>
<path fill="none" stroke="#191970" d="M1351.8959,-59.0901C1385.0516,-70.8912 1430.1852,-86.9557 1458.8357,-97.1534"/>
<polygon fill="#191970" stroke="#191970" points="1457.998,-100.5703 1468.5927,-100.6262 1460.3453,-93.9755 1457.998,-100.5703"/>
</g>
<!-- Node1513&#45;&gt;Node1507 -->
<g id="edge17" class="edge">
<title>Node1513&#45;&gt;Node1507</title>
<path fill="none" stroke="#191970" d="M844.6296,-59.147C856.1119,-59.3389 868.0831,-59.539 879.7322,-59.7337"/>
<polygon fill="#191970" stroke="#191970" points="879.8088,-63.2354 889.8659,-59.9031 879.9258,-56.2363 879.8088,-63.2354"/>
</g>
<!-- Node1515 -->
<g id="node16" class="node">
<title>Node1515</title>
<g id="a_node16"><a xlink:href="../../d3/db3/_flags_8c.html#a34e6591659b1578969141a635ff24042" target="_top" xlink:title="omc_Flags_isSet">
<polygon fill="#ffffff" stroke="#000000" points="909.5,-223.5 909.5,-242.5 1001.5,-242.5 1001.5,-223.5 909.5,-223.5"/>
<text text-anchor="middle" x="955.5" y="-230.5" font-family="Helvetica,sans-Serif" font-size="10.00" fill="#000000">omc_Flags_isSet</text>
</a>
</g>
</g>
<!-- Node1514&#45;&gt;Node1515 -->
<g id="edge19" class="edge">
<title>Node1514&#45;&gt;Node1515</title>
<path fill="none" stroke="#191970" d="M665.267,-243.2112C735.6722,-240.7341 836.8129,-237.1757 899.2207,-234.9801"/>
<polygon fill="#191970" stroke="#191970" points="899.4006,-238.476 909.2713,-234.6264 899.1544,-231.4803 899.4006,-238.476"/>
</g>
<!-- Node1518 -->
<g id="node19" class="node">
<title>Node1518</title>
<g id="a_node19"><a xlink:href="../../d7/deb/build_2include_2omc_2c_2util_2modelica__string_8c.html#a751007abc59e9ca7978f2af10a0c814f" target="_top" xlink:title="stringAppend">
<polygon fill="#ffffff" stroke="#000000" points="739,-255.5 739,-274.5 813,-274.5 813,-255.5 739,-255.5"/>
<text text-anchor="middle" x="776" y="-262.5" font-family="Helvetica,sans-Serif" font-size="10.00" fill="#000000">stringAppend</text>
</a>
</g>
</g>
<!-- Node1514&#45;&gt;Node1518 -->
<g id="edge22" class="edge">
<title>Node1514&#45;&gt;Node1518</title>
<path fill="none" stroke="#191970" d="M665.2013,-253.9201C686.8655,-256.0866 709.6575,-258.3658 728.899,-260.2899"/>
<polygon fill="#191970" stroke="#191970" points="728.6036,-263.7777 738.9022,-261.2902 729.3002,-256.8125 728.6036,-263.7777"/>
</g>
<!-- Node1519 -->
<g id="node20" class="node">
<title>Node1519</title>
<g id="a_node20"><a xlink:href="../../db/d8a/_settings_8c.html#a50f4b9de23b5202f6ee4225b4e08b2d2" target="_top" xlink:title="omc_Settings_getInstallation\lDirectoryPath">
<polygon fill="#ffffff" stroke="#000000" points="704.5,-294 704.5,-324 847.5,-324 847.5,-294 704.5,-294"/>
<text text-anchor="start" x="712.5" y="-312" font-family="Helvetica,sans-Serif" font-size="10.00" fill="#000000">omc_Settings_getInstallation</text>
<text text-anchor="middle" x="776" y="-301" font-family="Helvetica,sans-Serif" font-size="10.00" fill="#000000">DirectoryPath</text>
</a>
</g>
</g>
<!-- Node1514&#45;&gt;Node1519 -->
<g id="edge23" class="edge">
<title>Node1514&#45;&gt;Node1519</title>
<path fill="none" stroke="#191970" d="M614.8569,-255.5683C642.9446,-264.8816 686.3463,-279.2727 721.0333,-290.7742"/>
<polygon fill="#191970" stroke="#191970" points="719.9723,-294.1097 730.5657,-293.935 722.1755,-287.4655 719.9723,-294.1097"/>
</g>
<!-- Node1522 -->
<g id="node23" class="node">
<title>Node1522</title>
<g id="a_node23"><a xlink:href="../../d9/d7c/_compiler_2boot_2build_2util_8c.html#ad68c3faf9201d411f2989d49f79a146a" target="_top" xlink:title="omc_Util_assoc">
<polygon fill="#ffffff" stroke="#000000" points="732.5,-343.5 732.5,-362.5 819.5,-362.5 819.5,-343.5 732.5,-343.5"/>
<text text-anchor="middle" x="776" y="-350.5" font-family="Helvetica,sans-Serif" font-size="10.00" fill="#000000">omc_Util_assoc</text>
</a>
</g>
</g>
<!-- Node1514&#45;&gt;Node1522 -->
<g id="edge27" class="edge">
<title>Node1514&#45;&gt;Node1522</title>
<path fill="none" stroke="#191970" d="M595.8697,-255.6401C614.7149,-273.5194 657.8049,-311.9138 701,-333 707.6605,-336.2514 714.9209,-339.0289 722.216,-341.386"/>
<polygon fill="#191970" stroke="#191970" points="721.549,-344.8394 732.1323,-344.3447 723.5504,-338.1316 721.549,-344.8394"/>
</g>
<!-- Node1524 -->
<g id="node25" class="node">
<title>Node1524</title>
<g id="a_node25"><a xlink:href="../../d3/db3/_flags_8c.html#add52ff282ca5df852c1905fabb4571c9" target="_top" xlink:title="omc_Flags_getConfigEnum">
<polygon fill="#ffffff" stroke="#000000" points="707.5,-179.5 707.5,-198.5 844.5,-198.5 844.5,-179.5 707.5,-179.5"/>
<text text-anchor="middle" x="776" y="-186.5" font-family="Helvetica,sans-Serif" font-size="10.00" fill="#000000">omc_Flags_getConfigEnum</text>
</a>
</g>
</g>
<!-- Node1514&#45;&gt;Node1524 -->
<g id="edge29" class="edge">
<title>Node1514&#45;&gt;Node1524</title>
<path fill="none" stroke="#191970" d="M617.8017,-236.4595C649.7236,-226.8829 699.0685,-212.0795 734.1523,-201.5543"/>
<polygon fill="#191970" stroke="#191970" points="735.522,-204.7976 744.0945,-198.5716 733.5105,-198.0928 735.522,-204.7976"/>
</g>
<!-- Node1516 -->
<g id="node17" class="node">
<title>Node1516</title>
<g id="a_node17"><a xlink:href="../../d3/db3/_flags_8c.html#a760d66f53b65ac257876ca0f6308f09f" target="_top" xlink:title="omc_Flags_loadFlags">
<polygon fill="#ffffff" stroke="#000000" points="1075.5,-204.5 1075.5,-223.5 1187.5,-223.5 1187.5,-204.5 1075.5,-204.5"/>
<text text-anchor="middle" x="1131.5" y="-211.5" font-family="Helvetica,sans-Serif" font-size="10.00" fill="#000000">omc_Flags_loadFlags</text>
</a>
</g>
</g>
<!-- Node1515&#45;&gt;Node1516 -->
<g id="edge20" class="edge">
<title>Node1515&#45;&gt;Node1516</title>
<path fill="none" stroke="#191970" d="M1001.7419,-228.008C1021.0849,-225.9198 1043.9321,-223.4534 1065.0221,-221.1766"/>
<polygon fill="#191970" stroke="#191970" points="1065.6447,-224.6298 1075.2113,-220.0766 1064.8933,-217.6702 1065.6447,-224.6298"/>
</g>
<!-- Node1517 -->
<g id="node18" class="node">
<title>Node1517</title>
<g id="a_node18"><a xlink:href="../../da/d72/_compiler_2boot_2build_2list_8c.html#a3ec1ee3a5ff53be9af368e290be09182" target="_top" xlink:title="omc_List_fold">
<polygon fill="#ffffff" stroke="#000000" points="1271,-204.5 1271,-223.5 1348,-223.5 1348,-204.5 1271,-204.5"/>
<text text-anchor="middle" x="1309.5" y="-211.5" font-family="Helvetica,sans-Serif" font-size="10.00" fill="#000000">omc_List_fold</text>
</a>
</g>
</g>
<!-- Node1516&#45;&gt;Node1517 -->
<g id="edge21" class="edge">
<title>Node1516&#45;&gt;Node1517</title>
<path fill="none" stroke="#191970" d="M1187.8203,-214C1211.3148,-214 1238.3376,-214 1260.9407,-214"/>
<polygon fill="#191970" stroke="#191970" points="1260.9863,-217.5001 1270.9863,-214 1260.9862,-210.5001 1260.9863,-217.5001"/>
</g>
<!-- Node1520 -->
<g id="node21" class="node">
<title>Node1520</title>
<g id="a_node21"><a xlink:href="../../d4/d4a/_settings_8h.html#aa560265d614bc84fcd9a24b5e7911902" target="_top" xlink:title="Settings_getInstallation\lDirectoryPath">
<polygon fill="#ffffff" stroke="#000000" points="896,-294 896,-324 1015,-324 1015,-294 896,-294"/>
<text text-anchor="start" x="904" y="-312" font-family="Helvetica,sans-Serif" font-size="10.00" fill="#000000">Settings_getInstallation</text>
<text text-anchor="middle" x="955.5" y="-301" font-family="Helvetica,sans-Serif" font-size="10.00" fill="#000000">DirectoryPath</text>
</a>
</g>
</g>
<!-- Node1519&#45;&gt;Node1520 -->
<g id="edge24" class="edge">
<title>Node1519&#45;&gt;Node1520</title>
<path fill="none" stroke="#191970" d="M847.717,-309C860.1524,-309 873.0695,-309 885.4594,-309"/>
<polygon fill="#191970" stroke="#191970" points="885.7209,-312.5001 895.7208,-309 885.7208,-305.5001 885.7209,-312.5001"/>
</g>
<!-- Node1521 -->
<g id="node22" class="node">
<title>Node1521</title>
<g id="a_node22"><a xlink:href="../../d9/d08/settingsimpl_8c.html#add138f2c89e6604d53c1adf2d64fe2e3" target="_top" xlink:title="SettingsImpl__getInstallation\lDirectoryPath">
<polygon fill="#ffffff" stroke="#000000" points="1060,-294 1060,-324 1203,-324 1203,-294 1060,-294"/>
<text text-anchor="start" x="1068" y="-312" font-family="Helvetica,sans-Serif" font-size="10.00" fill="#000000">SettingsImpl__getInstallation</text>
<text text-anchor="middle" x="1131.5" y="-301" font-family="Helvetica,sans-Serif" font-size="10.00" fill="#000000">DirectoryPath</text>
</a>
</g>
</g>
<!-- Node1520&#45;&gt;Node1521 -->
<g id="edge25" class="edge">
<title>Node1520&#45;&gt;Node1521</title>
<path fill="none" stroke="#191970" d="M1015.0856,-309C1026.1924,-309 1037.9757,-309 1049.6156,-309"/>
<polygon fill="#191970" stroke="#191970" points="1049.7872,-312.5001 1059.7872,-309 1049.7871,-305.5001 1049.7872,-312.5001"/>
</g>
<!-- Node1521&#45;&gt;Node1521 -->
<g id="edge26" class="edge">
<title>Node1521&#45;&gt;Node1521</title>
<path fill="none" stroke="#191970" d="M1100.8284,-324.159C1093.4324,-333.5566 1103.6563,-342.5 1131.5,-342.5 1148.4673,-342.5 1158.8916,-339.179 1162.7731,-334.4579"/>
<polygon fill="#191970" stroke="#191970" points="1166.2488,-333.9379 1162.1716,-324.159 1159.2607,-334.3461 1166.2488,-333.9379"/>
</g>
<!-- Node1523 -->
<g id="node24" class="node">
<title>Node1523</title>
<g id="a_node24"><a xlink:href="../../dc/dd0/build_2include_2omc_2c_2meta_2meta__modelica_8h.html#a053b78d26cb7fe728aa97ab1a575f7ad" target="_top" xlink:title="valueEq">
<polygon fill="#ffffff" stroke="#000000" points="929.5,-343.5 929.5,-362.5 981.5,-362.5 981.5,-343.5 929.5,-343.5"/>
<text text-anchor="middle" x="955.5" y="-350.5" font-family="Helvetica,sans-Serif" font-size="10.00" fill="#000000">valueEq</text>
</a>
</g>
</g>
<!-- Node1522&#45;&gt;Node1523 -->
<g id="edge28" class="edge">
<title>Node1522&#45;&gt;Node1523</title>
<path fill="none" stroke="#191970" d="M819.9106,-353C850.4153,-353 890.5774,-353 919.2578,-353"/>
<polygon fill="#191970" stroke="#191970" points="919.2656,-356.5001 929.2656,-353 919.2655,-349.5001 919.2656,-356.5001"/>
</g>
<!-- Node1525 -->
<g id="node26" class="node">
<title>Node1525</title>
<g id="a_node26"><a xlink:href="../../d3/db3/_flags_8c.html#a96ba70d54b6662cf90933a207c0c6b8e" target="_top" xlink:title="omc_Flags_getConfigValue">
<polygon fill="#ffffff" stroke="#000000" points="887,-185.5 887,-204.5 1024,-204.5 1024,-185.5 887,-185.5"/>
<text text-anchor="middle" x="955.5" y="-192.5" font-family="Helvetica,sans-Serif" font-size="10.00" fill="#000000">omc_Flags_getConfigValue</text>
</a>
</g>
</g>
<!-- Node1524&#45;&gt;Node1525 -->
<g id="edge30" class="edge">
<title>Node1524&#45;&gt;Node1525</title>
<path fill="none" stroke="#191970" d="M844.6296,-191.294C855.1299,-191.645 866.0391,-192.0097 876.7369,-192.3672"/>
<polygon fill="#191970" stroke="#191970" points="876.7971,-195.8711 886.9085,-192.7072 877.031,-188.875 876.7971,-195.8711"/>
</g>
<!-- Node1525&#45;&gt;Node1516 -->
<g id="edge31" class="edge">
<title>Node1525&#45;&gt;Node1516</title>
<path fill="none" stroke="#191970" d="M1024.0502,-202.4003C1037.587,-203.8617 1051.7702,-205.3928 1065.2299,-206.8458"/>
<polygon fill="#191970" stroke="#191970" points="1065.041,-210.3457 1075.3589,-207.9393 1065.7923,-203.3861 1065.041,-210.3457"/>
</g>
<!-- Node1527 -->
<g id="node28" class="node">
<title>Node1527</title>
<g id="a_node28"><a xlink:href="../../d0/d78/_absyn_8c.html#a101585ea1e4328015378ba92518493a5" target="_top" xlink:title="omc_Absyn_stripLast">
<polygon fill="#ffffff" stroke="#000000" points="530.5,-97.5 530.5,-116.5 641.5,-116.5 641.5,-97.5 530.5,-97.5"/>
<text text-anchor="middle" x="586" y="-104.5" font-family="Helvetica,sans-Serif" font-size="10.00" fill="#000000">omc_Absyn_stripLast</text>
</a>
</g>
</g>
<!-- Node1526&#45;&gt;Node1527 -->
<g id="edge34" class="edge">
<title>Node1526&#45;&gt;Node1527</title>
<path fill="none" stroke="#191970" d="M465.0368,-107C483.0148,-107 502.2916,-107 520.055,-107"/>
<polygon fill="#191970" stroke="#191970" points="520.3178,-110.5001 530.3177,-107 520.3177,-103.5001 520.3178,-110.5001"/>
</g>
</g>
</svg>
