<?xml version="1.0" encoding="UTF-8" standalone="no"?>
<!DOCTYPE svg PUBLIC "-//W3C//DTD SVG 1.1//EN"
 "http://www.w3.org/Graphics/SVG/1.1/DTD/svg11.dtd">
<!-- Generated by graphviz version 2.40.1 (20161225.0304)
 -->
<!-- Title: omc_Interactive_isRecord Pages: 1 -->
<svg width="1397pt" height="385pt"
 viewBox="0.00 0.00 1397.00 385.00" xmlns="http://www.w3.org/2000/svg" xmlns:xlink="http://www.w3.org/1999/xlink">
<g id="graph0" class="graph" transform="scale(1 1) rotate(0) translate(4 381)">
<title>omc_Interactive_isRecord</title>
<polygon fill="#ffffff" stroke="transparent" points="-4,4 -4,-381 1393,-381 1393,4 -4,4"/>
<!-- Node5038 -->
<g id="node1" class="node">
<title>Node5038</title>
<polygon fill="#bfbfbf" stroke="#000000" points="0,-31.5 0,-50.5 131,-50.5 131,-31.5 0,-31.5"/>
<text text-anchor="middle" x="65.5" y="-38.5" font-family="Helvetica,sans-Serif" font-size="10.00" fill="#000000">omc_Interactive_isRecord</text>
</g>
<!-- Node5039 -->
<g id="node2" class="node">
<title>Node5039</title>
<g id="a_node2"><a xlink:href="../../db/d73/_interactive_8c.html#a6725f24e4d4d6fb348c2918fecfb9092" target="_top" xlink:title="omc_Interactive_getPathed\lClassInProgram">
<polygon fill="#ffffff" stroke="#000000" points="167,-89 167,-119 303,-119 303,-89 167,-89"/>
<text text-anchor="start" x="175" y="-107" font-family="Helvetica,sans-Serif" font-size="10.00" fill="#000000">omc_Interactive_getPathed</text>
<text text-anchor="middle" x="235" y="-96" font-family="Helvetica,sans-Serif" font-size="10.00" fill="#000000">ClassInProgram</text>
</a>
</g>
</g>
<!-- Node5038&#45;&gt;Node5039 -->
<g id="edge1" class="edge">
<title>Node5038&#45;&gt;Node5039</title>
<path fill="none" stroke="#191970" d="M91.2434,-50.5683C115.9794,-59.7622 154.0289,-73.9046 184.77,-85.3304"/>
<polygon fill="#191970" stroke="#191970" points="183.875,-88.7317 194.4679,-88.935 186.3138,-82.1702 183.875,-88.7317"/>
</g>
<!-- Node5049 -->
<g id="node12" class="node">
<title>Node5049</title>
<g id="a_node12"><a xlink:href="../../d1/dd1/3rd_party_2gc_2include_2gc_8h.html#acacfa47efcc44a29f7bb7d98f2a000f8" target="_top" xlink:title="void">
<polygon fill="#ffffff" stroke="#000000" points="1301,-47.5 1301,-66.5 1336,-66.5 1336,-47.5 1301,-47.5"/>
<text text-anchor="middle" x="1318.5" y="-54.5" font-family="Helvetica,sans-Serif" font-size="10.00" fill="#000000">void</text>
</a>
</g>
</g>
<!-- Node5038&#45;&gt;Node5049 -->
<g id="edge32" class="edge">
<title>Node5038&#45;&gt;Node5049</title>
<path fill="none" stroke="#191970" d="M115.4887,-31.4907C183.6171,-19.3789 309.5655,0 418,0 418,0 418,0 963.5,0 1087.1601,0 1232.0209,-34.1341 1291.2171,-49.5729"/>
<polygon fill="#191970" stroke="#191970" points="1290.3677,-52.9686 1300.9301,-52.1402 1292.1566,-46.201 1290.3677,-52.9686"/>
</g>
<!-- Node5040 -->
<g id="node3" class="node">
<title>Node5040</title>
<g id="a_node3"><a xlink:href="../../db/d73/_interactive_8c.html#a94088fd09396293fce13cc6f42b0f8fa" target="_top" xlink:title="omc_Interactive_getPathed\lClassInProgramWork">
<polygon fill="#ffffff" stroke="#000000" points="350,-89 350,-119 486,-119 486,-89 350,-89"/>
<text text-anchor="start" x="358" y="-107" font-family="Helvetica,sans-Serif" font-size="10.00" fill="#000000">omc_Interactive_getPathed</text>
<text text-anchor="middle" x="418" y="-96" font-family="Helvetica,sans-Serif" font-size="10.00" fill="#000000">ClassInProgramWork</text>
</a>
</g>
</g>
<!-- Node5039&#45;&gt;Node5040 -->
<g id="edge2" class="edge">
<title>Node5039&#45;&gt;Node5040</title>
<path fill="none" stroke="#191970" d="M303.1424,-97.4494C315.0511,-97.2419 327.5254,-97.1964 339.6826,-97.3127"/>
<polygon fill="#191970" stroke="#191970" points="339.7546,-100.8138 349.8006,-97.4484 339.8485,-93.8145 339.7546,-100.8138"/>
</g>
<!-- Node5039&#45;&gt;Node5049 -->
<g id="edge31" class="edge">
<title>Node5039&#45;&gt;Node5049</title>
<path fill="none" stroke="#191970" d="M286.6882,-88.941C358.2271,-69.4617 491.7641,-38 608,-38 608,-38 608,-38 963.5,-38 1085.5179,-38 1230.7897,-49.331 1290.6326,-54.4923"/>
<polygon fill="#191970" stroke="#191970" points="1290.5206,-57.9957 1300.7875,-55.3801 1291.1304,-51.0223 1290.5206,-57.9957"/>
</g>
<!-- Node5051 -->
<g id="node14" class="node">
<title>Node5051</title>
<g id="a_node14"><a xlink:href="../../d7/d1c/_f_builtin_8c.html#a39ccd88d72001ca29a15abe18a97d4c4" target="_top" xlink:title="omc_FBuiltin_getInitialFunctions">
<polygon fill="#ffffff" stroke="#000000" points="339,-272.5 339,-291.5 497,-291.5 497,-272.5 339,-272.5"/>
<text text-anchor="middle" x="418" y="-279.5" font-family="Helvetica,sans-Serif" font-size="10.00" fill="#000000">omc_FBuiltin_getInitialFunctions</text>
</a>
</g>
</g>
<!-- Node5039&#45;&gt;Node5051 -->
<g id="edge17" class="edge">
<title>Node5039&#45;&gt;Node5051</title>
<path fill="none" stroke="#191970" d="M250.6025,-119.1762C284.6739,-152.3167 365.5059,-230.9402 400.9012,-265.3684"/>
<polygon fill="#191970" stroke="#191970" points="398.5038,-267.9191 408.1125,-272.3826 403.3845,-262.9012 398.5038,-267.9191"/>
</g>
<!-- Node5040&#45;&gt;Node5039 -->
<g id="edge5" class="edge">
<title>Node5040&#45;&gt;Node5039</title>
<path fill="none" stroke="#191970" d="M349.8006,-110.5516C337.8902,-110.7585 325.4155,-110.8036 313.2593,-110.6868"/>
<polygon fill="#191970" stroke="#191970" points="313.1887,-107.1856 303.1424,-110.5506 313.0944,-114.185 313.1887,-107.1856"/>
</g>
<!-- Node5041 -->
<g id="node4" class="node">
<title>Node5041</title>
<g id="a_node4"><a xlink:href="../../db/d73/_interactive_8c.html#a0decc2aabeed83ab0e2d11f7c5f7078a" target="_top" xlink:title="omc_Interactive_getClass\lInProgram">
<polygon fill="#ffffff" stroke="#000000" points="722,-106 722,-136 853,-136 853,-106 722,-106"/>
<text text-anchor="start" x="730" y="-124" font-family="Helvetica,sans-Serif" font-size="10.00" fill="#000000">omc_Interactive_getClass</text>
<text text-anchor="middle" x="787.5" y="-113" font-family="Helvetica,sans-Serif" font-size="10.00" fill="#000000">InProgram</text>
</a>
</g>
</g>
<!-- Node5040&#45;&gt;Node5041 -->
<g id="edge3" class="edge">
<title>Node5040&#45;&gt;Node5041</title>
<path fill="none" stroke="#191970" d="M486.2026,-107.1379C550.037,-110.0748 645.2465,-114.4552 711.4935,-117.5031"/>
<polygon fill="#191970" stroke="#191970" points="711.7175,-121.017 721.8678,-117.9804 712.0393,-114.0244 711.7175,-121.017"/>
</g>
<!-- Node5043 -->
<g id="node6" class="node">
<title>Node5043</title>
<g id="a_node6"><a xlink:href="../../db/d73/_interactive_8c.html#a53acc6f98f291721c9a118bb4afe429c" target="_top" xlink:title="omc_Interactive_getPathed\lClassInProgramWorkNoThrow">
<polygon fill="#ffffff" stroke="#000000" points="533,-67 533,-97 683,-97 683,-67 533,-67"/>
<text text-anchor="start" x="541" y="-85" font-family="Helvetica,sans-Serif" font-size="10.00" fill="#000000">omc_Interactive_getPathed</text>
<text text-anchor="middle" x="608" y="-74" font-family="Helvetica,sans-Serif" font-size="10.00" fill="#000000">ClassInProgramWorkNoThrow</text>
</a>
</g>
</g>
<!-- Node5040&#45;&gt;Node5043 -->
<g id="edge6" class="edge">
<title>Node5040&#45;&gt;Node5043</title>
<path fill="none" stroke="#191970" d="M486.0577,-96.1196C497.8705,-94.7518 510.2891,-93.3139 522.4965,-91.9004"/>
<polygon fill="#191970" stroke="#191970" points="523.1521,-95.348 532.6831,-90.7209 522.3469,-88.3944 523.1521,-95.348"/>
</g>
<!-- Node5050 -->
<g id="node13" class="node">
<title>Node5050</title>
<g id="a_node13"><a xlink:href="../../db/d73/_interactive_8c.html#a9f36d43b7641634cb0d9a738c7ed88c5" target="_top" xlink:title="omc_Interactive_getPathed\lClassInProgramWorkThrow">
<polygon fill="#ffffff" stroke="#000000" points="539.5,-155 539.5,-185 676.5,-185 676.5,-155 539.5,-155"/>
<text text-anchor="start" x="547.5" y="-173" font-family="Helvetica,sans-Serif" font-size="10.00" fill="#000000">omc_Interactive_getPathed</text>
<text text-anchor="middle" x="608" y="-162" font-family="Helvetica,sans-Serif" font-size="10.00" fill="#000000">ClassInProgramWorkThrow</text>
</a>
</g>
</g>
<!-- Node5040&#45;&gt;Node5050 -->
<g id="edge15" class="edge">
<title>Node5040&#45;&gt;Node5050</title>
<path fill="none" stroke="#191970" d="M461.5898,-119.1417C489.3478,-128.784 525.4854,-141.337 554.9125,-151.5591"/>
<polygon fill="#191970" stroke="#191970" points="554.0182,-154.9535 564.613,-154.9287 556.3152,-148.3411 554.0182,-154.9535"/>
</g>
<!-- Node5042 -->
<g id="node5" class="node">
<title>Node5042</title>
<g id="a_node5"><a xlink:href="../../da/d72/_compiler_2boot_2build_2list_8c.html#aaa81bbdddf6ecc72a7ba180a14e0458b" target="_top" xlink:title="omc_List_find1">
<polygon fill="#ffffff" stroke="#000000" points="922,-112.5 922,-131.5 1005,-131.5 1005,-112.5 922,-112.5"/>
<text text-anchor="middle" x="963.5" y="-119.5" font-family="Helvetica,sans-Serif" font-size="10.00" fill="#000000">omc_List_find1</text>
</a>
</g>
</g>
<!-- Node5041&#45;&gt;Node5042 -->
<g id="edge4" class="edge">
<title>Node5041&#45;&gt;Node5042</title>
<path fill="none" stroke="#191970" d="M853.0359,-121.3724C872.4069,-121.4824 893.3342,-121.6013 911.71,-121.7057"/>
<polygon fill="#191970" stroke="#191970" points="911.8961,-125.2068 921.9159,-121.7637 911.9359,-118.2069 911.8961,-125.2068"/>
</g>
<!-- Node5044 -->
<g id="node7" class="node">
<title>Node5044</title>
<g id="a_node7"><a xlink:href="../../db/d73/_interactive_8c.html#ab1a6c5772a699f50ca691f1b72680977" target="_top" xlink:title="omc_Interactive_getClass\lInClass">
<polygon fill="#ffffff" stroke="#000000" points="722,-155 722,-185 853,-185 853,-155 722,-155"/>
<text text-anchor="start" x="730" y="-173" font-family="Helvetica,sans-Serif" font-size="10.00" fill="#000000">omc_Interactive_getClass</text>
<text text-anchor="middle" x="787.5" y="-162" font-family="Helvetica,sans-Serif" font-size="10.00" fill="#000000">InClass</text>
</a>
</g>
</g>
<!-- Node5043&#45;&gt;Node5044 -->
<g id="edge7" class="edge">
<title>Node5043&#45;&gt;Node5044</title>
<path fill="none" stroke="#191970" d="M632.0711,-97.2139C654.1497,-110.7897 688.0266,-130.6791 719,-145 723.6215,-147.1368 728.4815,-149.2192 733.3912,-151.2117"/>
<polygon fill="#191970" stroke="#191970" points="732.2566,-154.5263 742.8441,-154.9229 734.8148,-148.0104 732.2566,-154.5263"/>
</g>
<!-- Node5043&#45;&gt;Node5049 -->
<g id="edge14" class="edge">
<title>Node5043&#45;&gt;Node5049</title>
<path fill="none" stroke="#191970" d="M683.0279,-79.36C838.422,-73.8923 1189.4169,-61.542 1290.6723,-57.9792"/>
<polygon fill="#191970" stroke="#191970" points="1290.8538,-61.475 1300.7245,-57.6255 1290.6076,-54.4794 1290.8538,-61.475"/>
</g>
<!-- Node5044&#45;&gt;Node5042 -->
<g id="edge8" class="edge">
<title>Node5044&#45;&gt;Node5042</title>
<path fill="none" stroke="#191970" d="M842.7046,-154.9442C867.1173,-148.2862 895.4595,-140.5565 918.5528,-134.2583"/>
<polygon fill="#191970" stroke="#191970" points="919.7037,-137.5724 928.4304,-131.5644 917.8618,-130.819 919.7037,-137.5724"/>
</g>
<!-- Node5045 -->
<g id="node8" class="node">
<title>Node5045</title>
<g id="a_node8"><a xlink:href="../../db/d73/_interactive_8c.html#aa82da3f923157554cf2609abe0034767" target="_top" xlink:title="omc_Interactive_getClasses\lInClass">
<polygon fill="#ffffff" stroke="#000000" points="893,-153 893,-183 1034,-183 1034,-153 893,-153"/>
<text text-anchor="start" x="901" y="-171" font-family="Helvetica,sans-Serif" font-size="10.00" fill="#000000">omc_Interactive_getClasses</text>
<text text-anchor="middle" x="963.5" y="-160" font-family="Helvetica,sans-Serif" font-size="10.00" fill="#000000">InClass</text>
</a>
</g>
</g>
<!-- Node5044&#45;&gt;Node5045 -->
<g id="edge9" class="edge">
<title>Node5044&#45;&gt;Node5045</title>
<path fill="none" stroke="#191970" d="M853.0359,-169.2553C862.6832,-169.1456 872.7166,-169.0316 882.6285,-168.919"/>
<polygon fill="#191970" stroke="#191970" points="882.933,-172.4159 892.8926,-168.8024 882.8534,-165.4163 882.933,-172.4159"/>
</g>
<!-- Node5046 -->
<g id="node9" class="node">
<title>Node5046</title>
<g id="a_node9"><a xlink:href="../../db/d73/_interactive_8c.html#a59cd6bddf2c4370dc4579f063e2f1930" target="_top" xlink:title="omc_Interactive_getClasses\lInParts">
<polygon fill="#ffffff" stroke="#000000" points="1071,-124 1071,-154 1212,-154 1212,-124 1071,-124"/>
<text text-anchor="start" x="1079" y="-142" font-family="Helvetica,sans-Serif" font-size="10.00" fill="#000000">omc_Interactive_getClasses</text>
<text text-anchor="middle" x="1141.5" y="-131" font-family="Helvetica,sans-Serif" font-size="10.00" fill="#000000">InParts</text>
</a>
</g>
</g>
<!-- Node5045&#45;&gt;Node5046 -->
<g id="edge10" class="edge">
<title>Node5045&#45;&gt;Node5046</title>
<path fill="none" stroke="#191970" d="M1034.106,-156.4968C1042.9213,-155.0606 1051.9884,-153.5834 1060.9405,-152.1249"/>
<polygon fill="#191970" stroke="#191970" points="1061.6724,-155.5519 1070.9794,-150.4893 1060.5467,-148.6429 1061.6724,-155.5519"/>
</g>
<!-- Node5047 -->
<g id="node10" class="node">
<title>Node5047</title>
<g id="a_node10"><a xlink:href="../../db/d73/_interactive_8c.html#a8cd7c2589481fea8e60d03ad82def175" target="_top" xlink:title="omc_Interactive_getClasses\lInElts">
<polygon fill="#ffffff" stroke="#000000" points="1248,-97 1248,-127 1389,-127 1389,-97 1248,-97"/>
<text text-anchor="start" x="1256" y="-115" font-family="Helvetica,sans-Serif" font-size="10.00" fill="#000000">omc_Interactive_getClasses</text>
<text text-anchor="middle" x="1318.5" y="-104" font-family="Helvetica,sans-Serif" font-size="10.00" fill="#000000">InElts</text>
</a>
</g>
</g>
<!-- Node5046&#45;&gt;Node5047 -->
<g id="edge11" class="edge">
<title>Node5046&#45;&gt;Node5047</title>
<path fill="none" stroke="#191970" d="M1212.2182,-128.2125C1220.6618,-126.9245 1229.3306,-125.6021 1237.8998,-124.2949"/>
<polygon fill="#191970" stroke="#191970" points="1238.5364,-127.7384 1247.8942,-122.7704 1237.4807,-120.8185 1238.5364,-127.7384"/>
</g>
<!-- Node5048 -->
<g id="node11" class="node">
<title>Node5048</title>
<g id="a_node11"><a xlink:href="../../d2/d57/build_2include_2omc_2c_2meta_2meta__modelica__builtin_8h.html#a56b7e8a835b2d388f5984ca7378bc1ec" target="_top" xlink:title="listAppend">
<polygon fill="#ffffff" stroke="#000000" points="1287.5,-146.5 1287.5,-165.5 1349.5,-165.5 1349.5,-146.5 1287.5,-146.5"/>
<text text-anchor="middle" x="1318.5" y="-153.5" font-family="Helvetica,sans-Serif" font-size="10.00" fill="#000000">listAppend</text>
</a>
</g>
</g>
<!-- Node5046&#45;&gt;Node5048 -->
<g id="edge12" class="edge">
<title>Node5046&#45;&gt;Node5048</title>
<path fill="none" stroke="#191970" d="M1212.2182,-145.7921C1234.2562,-147.9088 1257.8286,-150.1728 1277.1601,-152.0295"/>
<polygon fill="#191970" stroke="#191970" points="1276.8498,-155.5157 1287.1387,-152.9879 1277.5191,-148.5478 1276.8498,-155.5157"/>
</g>
<!-- Node5046&#45;&gt;Node5049 -->
<g id="edge13" class="edge">
<title>Node5046&#45;&gt;Node5049</title>
<path fill="none" stroke="#191970" d="M1171.5993,-123.7862C1192.8206,-113.1873 1221.9826,-98.8776 1248,-87 1262.1744,-80.529 1278.1382,-73.6986 1291.286,-68.1926"/>
<polygon fill="#191970" stroke="#191970" points="1292.8277,-71.3421 1300.7151,-64.2682 1290.1379,-64.8795 1292.8277,-71.3421"/>
</g>
<!-- Node5050&#45;&gt;Node5044 -->
<g id="edge16" class="edge">
<title>Node5050&#45;&gt;Node5044</title>
<path fill="none" stroke="#191970" d="M676.6296,-170C688.1119,-170 700.0831,-170 711.7322,-170"/>
<polygon fill="#191970" stroke="#191970" points="711.8659,-173.5001 721.8659,-170 711.8659,-166.5001 711.8659,-173.5001"/>
</g>
<!-- Node5052 -->
<g id="node15" class="node">
<title>Node5052</title>
<g id="a_node15"><a xlink:href="../../d3/db3/_flags_8c.html#a34e6591659b1578969141a635ff24042" target="_top" xlink:title="omc_Flags_isSet">
<polygon fill="#ffffff" stroke="#000000" points="741.5,-357.5 741.5,-376.5 833.5,-376.5 833.5,-357.5 741.5,-357.5"/>
<text text-anchor="middle" x="787.5" y="-364.5" font-family="Helvetica,sans-Serif" font-size="10.00" fill="#000000">omc_Flags_isSet</text>
</a>
</g>
</g>
<!-- Node5051&#45;&gt;Node5052 -->
<g id="edge18" class="edge">
<title>Node5051&#45;&gt;Node5052</title>
<path fill="none" stroke="#191970" d="M428.0569,-291.5167C446.8771,-308.6207 489.4654,-344.0708 533,-358 598.5318,-378.9673 678.4404,-377.7681 731.0286,-373.6044"/>
<polygon fill="#191970" stroke="#191970" points="731.5039,-377.0766 741.1696,-372.7378 730.9079,-370.102 731.5039,-377.0766"/>
</g>
<!-- Node5055 -->
<g id="node18" class="node">
<title>Node5055</title>
<g id="a_node18"><a xlink:href="../../d7/deb/build_2include_2omc_2c_2util_2modelica__string_8c.html#a751007abc59e9ca7978f2af10a0c814f" target="_top" xlink:title="stringAppend">
<polygon fill="#ffffff" stroke="#000000" points="571,-329.5 571,-348.5 645,-348.5 645,-329.5 571,-329.5"/>
<text text-anchor="middle" x="608" y="-336.5" font-family="Helvetica,sans-Serif" font-size="10.00" fill="#000000">stringAppend</text>
</a>
</g>
</g>
<!-- Node5051&#45;&gt;Node5055 -->
<g id="edge21" class="edge">
<title>Node5051&#45;&gt;Node5055</title>
<path fill="none" stroke="#191970" d="M445.2472,-291.6101C468.4419,-299.6445 502.7196,-311.1737 533,-320 541.9966,-322.6224 551.6598,-325.2265 560.9581,-327.6277"/>
<polygon fill="#191970" stroke="#191970" points="560.3015,-331.072 570.8557,-330.1447 562.0268,-324.288 560.3015,-331.072"/>
</g>
<!-- Node5056 -->
<g id="node19" class="node">
<title>Node5056</title>
<g id="a_node19"><a xlink:href="../../db/d8a/_settings_8c.html#a50f4b9de23b5202f6ee4225b4e08b2d2" target="_top" xlink:title="omc_Settings_getInstallation\lDirectoryPath">
<polygon fill="#ffffff" stroke="#000000" points="536.5,-204 536.5,-234 679.5,-234 679.5,-204 536.5,-204"/>
<text text-anchor="start" x="544.5" y="-222" font-family="Helvetica,sans-Serif" font-size="10.00" fill="#000000">omc_Settings_getInstallation</text>
<text text-anchor="middle" x="608" y="-211" font-family="Helvetica,sans-Serif" font-size="10.00" fill="#000000">DirectoryPath</text>
</a>
</g>
</g>
<!-- Node5051&#45;&gt;Node5056 -->
<g id="edge22" class="edge">
<title>Node5051&#45;&gt;Node5056</title>
<path fill="none" stroke="#191970" d="M446.8569,-272.4317C474.9446,-263.1184 518.3463,-248.7273 553.0333,-237.2258"/>
<polygon fill="#191970" stroke="#191970" points="554.1755,-240.5345 562.5657,-234.065 551.9723,-233.8903 554.1755,-240.5345"/>
</g>
<!-- Node5059 -->
<g id="node22" class="node">
<title>Node5059</title>
<g id="a_node22"><a xlink:href="../../d9/d7c/_compiler_2boot_2build_2util_8c.html#ad68c3faf9201d411f2989d49f79a146a" target="_top" xlink:title="omc_Util_assoc">
<polygon fill="#ffffff" stroke="#000000" points="564.5,-253.5 564.5,-272.5 651.5,-272.5 651.5,-253.5 564.5,-253.5"/>
<text text-anchor="middle" x="608" y="-260.5" font-family="Helvetica,sans-Serif" font-size="10.00" fill="#000000">omc_Util_assoc</text>
</a>
</g>
</g>
<!-- Node5051&#45;&gt;Node5059 -->
<g id="edge26" class="edge">
<title>Node5051&#45;&gt;Node5059</title>
<path fill="none" stroke="#191970" d="M497.2013,-274.0799C516.438,-272.1562 536.564,-270.1436 554.3039,-268.3696"/>
<polygon fill="#191970" stroke="#191970" points="554.8463,-271.8329 564.4483,-267.3552 554.1497,-264.8677 554.8463,-271.8329"/>
</g>
<!-- Node5061 -->
<g id="node24" class="node">
<title>Node5061</title>
<g id="a_node24"><a xlink:href="../../d3/db3/_flags_8c.html#add52ff282ca5df852c1905fabb4571c9" target="_top" xlink:title="omc_Flags_getConfigEnum">
<polygon fill="#ffffff" stroke="#000000" points="539.5,-291.5 539.5,-310.5 676.5,-310.5 676.5,-291.5 539.5,-291.5"/>
<text text-anchor="middle" x="608" y="-298.5" font-family="Helvetica,sans-Serif" font-size="10.00" fill="#000000">omc_Flags_getConfigEnum</text>
</a>
</g>
</g>
<!-- Node5051&#45;&gt;Node5061 -->
<g id="edge28" class="edge">
<title>Node5051&#45;&gt;Node5061</title>
<path fill="none" stroke="#191970" d="M497.2013,-289.9201C507.7727,-290.9773 518.6126,-292.0613 529.1775,-293.1177"/>
<polygon fill="#191970" stroke="#191970" points="528.906,-296.608 539.2047,-294.1205 529.6026,-289.6427 528.906,-296.608"/>
</g>
<!-- Node5053 -->
<g id="node16" class="node">
<title>Node5053</title>
<g id="a_node16"><a xlink:href="../../d3/db3/_flags_8c.html#a760d66f53b65ac257876ca0f6308f09f" target="_top" xlink:title="omc_Flags_loadFlags">
<polygon fill="#ffffff" stroke="#000000" points="907.5,-328.5 907.5,-347.5 1019.5,-347.5 1019.5,-328.5 907.5,-328.5"/>
<text text-anchor="middle" x="963.5" y="-335.5" font-family="Helvetica,sans-Serif" font-size="10.00" fill="#000000">omc_Flags_loadFlags</text>
</a>
</g>
</g>
<!-- Node5052&#45;&gt;Node5053 -->
<g id="edge19" class="edge">
<title>Node5052&#45;&gt;Node5053</title>
<path fill="none" stroke="#191970" d="M833.7419,-359.3806C853.1729,-356.1789 876.1399,-352.3946 897.3096,-348.9064"/>
<polygon fill="#191970" stroke="#191970" points="897.9134,-352.3542 907.2113,-347.2748 896.7752,-345.4473 897.9134,-352.3542"/>
</g>
<!-- Node5054 -->
<g id="node17" class="node">
<title>Node5054</title>
<g id="a_node17"><a xlink:href="../../da/d72/_compiler_2boot_2build_2list_8c.html#a3ec1ee3a5ff53be9af368e290be09182" target="_top" xlink:title="omc_List_fold">
<polygon fill="#ffffff" stroke="#000000" points="1103,-328.5 1103,-347.5 1180,-347.5 1180,-328.5 1103,-328.5"/>
<text text-anchor="middle" x="1141.5" y="-335.5" font-family="Helvetica,sans-Serif" font-size="10.00" fill="#000000">omc_List_fold</text>
</a>
</g>
</g>
<!-- Node5053&#45;&gt;Node5054 -->
<g id="edge20" class="edge">
<title>Node5053&#45;&gt;Node5054</title>
<path fill="none" stroke="#191970" d="M1019.8203,-338C1043.3148,-338 1070.3376,-338 1092.9407,-338"/>
<polygon fill="#191970" stroke="#191970" points="1092.9863,-341.5001 1102.9863,-338 1092.9862,-334.5001 1092.9863,-341.5001"/>
</g>
<!-- Node5057 -->
<g id="node20" class="node">
<title>Node5057</title>
<g id="a_node20"><a xlink:href="../../d4/d4a/_settings_8h.html#aa560265d614bc84fcd9a24b5e7911902" target="_top" xlink:title="Settings_getInstallation\lDirectoryPath">
<polygon fill="#ffffff" stroke="#000000" points="728,-204 728,-234 847,-234 847,-204 728,-204"/>
<text text-anchor="start" x="736" y="-222" font-family="Helvetica,sans-Serif" font-size="10.00" fill="#000000">Settings_getInstallation</text>
<text text-anchor="middle" x="787.5" y="-211" font-family="Helvetica,sans-Serif" font-size="10.00" fill="#000000">DirectoryPath</text>
</a>
</g>
</g>
<!-- Node5056&#45;&gt;Node5057 -->
<g id="edge23" class="edge">
<title>Node5056&#45;&gt;Node5057</title>
<path fill="none" stroke="#191970" d="M679.717,-219C692.1524,-219 705.0695,-219 717.4594,-219"/>
<polygon fill="#191970" stroke="#191970" points="717.7209,-222.5001 727.7208,-219 717.7208,-215.5001 717.7209,-222.5001"/>
</g>
<!-- Node5058 -->
<g id="node21" class="node">
<title>Node5058</title>
<g id="a_node21"><a xlink:href="../../d9/d08/settingsimpl_8c.html#add138f2c89e6604d53c1adf2d64fe2e3" target="_top" xlink:title="SettingsImpl__getInstallation\lDirectoryPath">
<polygon fill="#ffffff" stroke="#000000" points="892,-204 892,-234 1035,-234 1035,-204 892,-204"/>
<text text-anchor="start" x="900" y="-222" font-family="Helvetica,sans-Serif" font-size="10.00" fill="#000000">SettingsImpl__getInstallation</text>
<text text-anchor="middle" x="963.5" y="-211" font-family="Helvetica,sans-Serif" font-size="10.00" fill="#000000">DirectoryPath</text>
</a>
</g>
</g>
<!-- Node5057&#45;&gt;Node5058 -->
<g id="edge24" class="edge">
<title>Node5057&#45;&gt;Node5058</title>
<path fill="none" stroke="#191970" d="M847.0856,-219C858.1924,-219 869.9757,-219 881.6156,-219"/>
<polygon fill="#191970" stroke="#191970" points="881.7872,-222.5001 891.7872,-219 881.7871,-215.5001 881.7872,-222.5001"/>
</g>
<!-- Node5058&#45;&gt;Node5058 -->
<g id="edge25" class="edge">
<title>Node5058&#45;&gt;Node5058</title>
<path fill="none" stroke="#191970" d="M932.8284,-234.159C925.4324,-243.5566 935.6563,-252.5 963.5,-252.5 980.4673,-252.5 990.8916,-249.179 994.7731,-244.4579"/>
<polygon fill="#191970" stroke="#191970" points="998.2488,-243.9379 994.1716,-234.159 991.2607,-244.3461 998.2488,-243.9379"/>
</g>
<!-- Node5060 -->
<g id="node23" class="node">
<title>Node5060</title>
<g id="a_node23"><a xlink:href="../../dc/dd0/build_2include_2omc_2c_2meta_2meta__modelica_8h.html#a053b78d26cb7fe728aa97ab1a575f7ad" target="_top" xlink:title="valueEq">
<polygon fill="#ffffff" stroke="#000000" points="761.5,-253.5 761.5,-272.5 813.5,-272.5 813.5,-253.5 761.5,-253.5"/>
<text text-anchor="middle" x="787.5" y="-260.5" font-family="Helvetica,sans-Serif" font-size="10.00" fill="#000000">valueEq</text>
</a>
</g>
</g>
<!-- Node5059&#45;&gt;Node5060 -->
<g id="edge27" class="edge">
<title>Node5059&#45;&gt;Node5060</title>
<path fill="none" stroke="#191970" d="M651.9106,-263C682.4153,-263 722.5774,-263 751.2578,-263"/>
<polygon fill="#191970" stroke="#191970" points="751.2656,-266.5001 761.2656,-263 751.2655,-259.5001 751.2656,-266.5001"/>
</g>
<!-- Node5062 -->
<g id="node25" class="node">
<title>Node5062</title>
<g id="a_node25"><a xlink:href="../../d3/db3/_flags_8c.html#a96ba70d54b6662cf90933a207c0c6b8e" target="_top" xlink:title="omc_Flags_getConfigValue">
<polygon fill="#ffffff" stroke="#000000" points="719,-300.5 719,-319.5 856,-319.5 856,-300.5 719,-300.5"/>
<text text-anchor="middle" x="787.5" y="-307.5" font-family="Helvetica,sans-Serif" font-size="10.00" fill="#000000">omc_Flags_getConfigValue</text>
</a>
</g>
</g>
<!-- Node5061&#45;&gt;Node5062 -->
<g id="edge29" class="edge">
<title>Node5061&#45;&gt;Node5062</title>
<path fill="none" stroke="#191970" d="M676.6296,-304.441C687.1299,-304.9675 698.0391,-305.5145 708.7369,-306.0509"/>
<polygon fill="#191970" stroke="#191970" points="708.7457,-309.5556 718.9085,-306.5609 709.0963,-302.5644 708.7457,-309.5556"/>
</g>
<!-- Node5062&#45;&gt;Node5053 -->
<g id="edge30" class="edge">
<title>Node5062&#45;&gt;Node5053</title>
<path fill="none" stroke="#191970" d="M847.577,-319.5577C863.5754,-322.1029 880.9475,-324.8666 897.2559,-327.4612"/>
<polygon fill="#191970" stroke="#191970" points="896.8253,-330.9366 907.251,-329.0513 897.9251,-324.0235 896.8253,-330.9366"/>
</g>
</g>
</svg>
