<?xml version="1.0" encoding="UTF-8" standalone="no"?>
<!DOCTYPE svg PUBLIC "-//W3C//DTD SVG 1.1//EN"
 "http://www.w3.org/Graphics/SVG/1.1/DTD/svg11.dtd">
<!-- Generated by graphviz version 2.40.1 (20161225.0304)
 -->
<!-- Title: boxptr_Interactive_getDocumentationClassAnnotation Pages: 1 -->
<svg width="1868pt" height="471pt"
 viewBox="0.00 0.00 1868.00 471.00" xmlns="http://www.w3.org/2000/svg" xmlns:xlink="http://www.w3.org/1999/xlink">
<g id="graph0" class="graph" transform="scale(1 1) rotate(0) translate(4 467)">
<title>boxptr_Interactive_getDocumentationClassAnnotation</title>
<polygon fill="#ffffff" stroke="transparent" points="-4,4 -4,-467 1864,-467 1864,4 -4,4"/>
<!-- Node578 -->
<g id="node1" class="node">
<title>Node578</title>
<polygon fill="#bfbfbf" stroke="#000000" points="0,-186 0,-216 173,-216 173,-186 0,-186"/>
<text text-anchor="start" x="8" y="-204" font-family="Helvetica,sans-Serif" font-size="10.00" fill="#000000">boxptr_Interactive</text>
<text text-anchor="middle" x="86.5" y="-193" font-family="Helvetica,sans-Serif" font-size="10.00" fill="#000000">_getDocumentationClassAnnotation</text>
</g>
<!-- Node579 -->
<g id="node2" class="node">
<title>Node579</title>
<g id="a_node2"><a xlink:href="../../db/d73/_interactive_8c.html#ac1a6c05717b3479b6896ead132d25234" target="_top" xlink:title="omc_Interactive_getDocumentation\lClassAnnotation">
<polygon fill="#ffffff" stroke="#000000" points="209,-186 209,-216 380,-216 380,-186 209,-186"/>
<text text-anchor="start" x="217" y="-204" font-family="Helvetica,sans-Serif" font-size="10.00" fill="#000000">omc_Interactive_getDocumentation</text>
<text text-anchor="middle" x="294.5" y="-193" font-family="Helvetica,sans-Serif" font-size="10.00" fill="#000000">ClassAnnotation</text>
</a>
</g>
</g>
<!-- Node578&#45;&gt;Node579 -->
<g id="edge1" class="edge">
<title>Node578&#45;&gt;Node579</title>
<path fill="none" stroke="#191970" d="M173.2046,-201C181.6972,-201 190.3482,-201 198.9223,-201"/>
<polygon fill="#191970" stroke="#191970" points="198.9382,-204.5001 208.9382,-201 198.9381,-197.5001 198.9382,-204.5001"/>
</g>
<!-- Node580 -->
<g id="node3" class="node">
<title>Node580</title>
<g id="a_node3"><a xlink:href="../../db/d73/_interactive_8c.html#a1be730371fd1e4f71e853f20dc0fc8c0" target="_top" xlink:title="omc_Interactive_getNamed\lAnnotation">
<polygon fill="#ffffff" stroke="#000000" points="416,-186 416,-216 553,-216 553,-186 416,-186"/>
<text text-anchor="start" x="424" y="-204" font-family="Helvetica,sans-Serif" font-size="10.00" fill="#000000">omc_Interactive_getNamed</text>
<text text-anchor="middle" x="484.5" y="-193" font-family="Helvetica,sans-Serif" font-size="10.00" fill="#000000">Annotation</text>
</a>
</g>
</g>
<!-- Node579&#45;&gt;Node580 -->
<g id="edge2" class="edge">
<title>Node579&#45;&gt;Node580</title>
<path fill="none" stroke="#191970" d="M380.051,-201C388.5942,-201 397.2403,-201 405.7093,-201"/>
<polygon fill="#191970" stroke="#191970" points="405.9329,-204.5001 415.9329,-201 405.9329,-197.5001 405.9329,-204.5001"/>
</g>
<!-- Node581 -->
<g id="node4" class="node">
<title>Node581</title>
<g id="a_node4"><a xlink:href="../../db/d73/_interactive_8c.html#a6725f24e4d4d6fb348c2918fecfb9092" target="_top" xlink:title="omc_Interactive_getPathed\lClassInProgram">
<polygon fill="#ffffff" stroke="#000000" points="603.5,-186 603.5,-216 739.5,-216 739.5,-186 603.5,-186"/>
<text text-anchor="start" x="611.5" y="-204" font-family="Helvetica,sans-Serif" font-size="10.00" fill="#000000">omc_Interactive_getPathed</text>
<text text-anchor="middle" x="671.5" y="-193" font-family="Helvetica,sans-Serif" font-size="10.00" fill="#000000">ClassInProgram</text>
</a>
</g>
</g>
<!-- Node580&#45;&gt;Node581 -->
<g id="edge3" class="edge">
<title>Node580&#45;&gt;Node581</title>
<path fill="none" stroke="#191970" d="M553.0701,-201C566.1112,-201 579.8503,-201 593.1677,-201"/>
<polygon fill="#191970" stroke="#191970" points="593.2508,-204.5001 603.2508,-201 593.2508,-197.5001 593.2508,-204.5001"/>
</g>
<!-- Node591 -->
<g id="node14" class="node">
<title>Node591</title>
<g id="a_node14"><a xlink:href="../../d1/dd1/3rd_party_2gc_2include_2gc_8h.html#acacfa47efcc44a29f7bb7d98f2a000f8" target="_top" xlink:title="void">
<polygon fill="#ffffff" stroke="#000000" points="1772,-194.5 1772,-213.5 1807,-213.5 1807,-194.5 1772,-194.5"/>
<text text-anchor="middle" x="1789.5" y="-201.5" font-family="Helvetica,sans-Serif" font-size="10.00" fill="#000000">void</text>
</a>
</g>
</g>
<!-- Node580&#45;&gt;Node591 -->
<g id="edge40" class="edge">
<title>Node580&#45;&gt;Node591</title>
<path fill="none" stroke="#191970" d="M495.8508,-216.2187C538.9803,-272.1359 699.3535,-463 879,-463 879,-463 879,-463 1434.5,-463 1556.385,-463 1591.0448,-427.0012 1683,-347 1726.0129,-309.5787 1762.26,-251.9847 1779.2126,-222.6142"/>
<polygon fill="#191970" stroke="#191970" points="1782.319,-224.2315 1784.204,-213.8057 1776.2288,-220.7804 1782.319,-224.2315"/>
</g>
<!-- Node605 -->
<g id="node28" class="node">
<title>Node605</title>
<g id="a_node28"><a xlink:href="../../d0/d78/_absyn_8c.html#a398b2c48503908c545f049f5fa3d856a" target="_top" xlink:title="omc_Absyn_getNamedAnnotation\lInClass">
<polygon fill="#ffffff" stroke="#000000" points="589,-52 589,-82 754,-82 754,-52 589,-52"/>
<text text-anchor="start" x="597" y="-70" font-family="Helvetica,sans-Serif" font-size="10.00" fill="#000000">omc_Absyn_getNamedAnnotation</text>
<text text-anchor="middle" x="671.5" y="-59" font-family="Helvetica,sans-Serif" font-size="10.00" fill="#000000">InClass</text>
</a>
</g>
</g>
<!-- Node580&#45;&gt;Node605 -->
<g id="edge34" class="edge">
<title>Node580&#45;&gt;Node605</title>
<path fill="none" stroke="#191970" d="M505.5878,-185.889C538.9254,-161.9999 603.909,-115.4342 641.9023,-88.2091"/>
<polygon fill="#191970" stroke="#191970" points="644.3994,-90.7255 650.4893,-82.0558 640.3221,-85.0356 644.3994,-90.7255"/>
</g>
<!-- Node582 -->
<g id="node5" class="node">
<title>Node582</title>
<g id="a_node5"><a xlink:href="../../db/d73/_interactive_8c.html#a94088fd09396293fce13cc6f42b0f8fa" target="_top" xlink:title="omc_Interactive_getPathed\lClassInProgramWork">
<polygon fill="#ffffff" stroke="#000000" points="811,-164 811,-194 947,-194 947,-164 811,-164"/>
<text text-anchor="start" x="819" y="-182" font-family="Helvetica,sans-Serif" font-size="10.00" fill="#000000">omc_Interactive_getPathed</text>
<text text-anchor="middle" x="879" y="-171" font-family="Helvetica,sans-Serif" font-size="10.00" fill="#000000">ClassInProgramWork</text>
</a>
</g>
</g>
<!-- Node581&#45;&gt;Node582 -->
<g id="edge4" class="edge">
<title>Node581&#45;&gt;Node582</title>
<path fill="none" stroke="#191970" d="M739.7307,-187.3805C759.2332,-184.8971 780.64,-182.5672 800.695,-180.736"/>
<polygon fill="#191970" stroke="#191970" points="801.0741,-184.2162 810.7283,-179.8522 800.4598,-177.2432 801.0741,-184.2162"/>
</g>
<!-- Node581&#45;&gt;Node591 -->
<g id="edge33" class="edge">
<title>Node581&#45;&gt;Node591</title>
<path fill="none" stroke="#191970" d="M739.5753,-206.9245C820.438,-213.4406 959.4414,-223 1079,-223 1079,-223 1079,-223 1434.5,-223 1556.5179,-223 1701.7897,-211.669 1761.6326,-206.5077"/>
<polygon fill="#191970" stroke="#191970" points="1762.1304,-209.9777 1771.7875,-205.6199 1761.5206,-203.0043 1762.1304,-209.9777"/>
</g>
<!-- Node593 -->
<g id="node16" class="node">
<title>Node593</title>
<g id="a_node16"><a xlink:href="../../d7/d1c/_f_builtin_8c.html#a39ccd88d72001ca29a15abe18a97d4c4" target="_top" xlink:title="omc_FBuiltin_getInitialFunctions">
<polygon fill="#ffffff" stroke="#000000" points="800,-308.5 800,-327.5 958,-327.5 958,-308.5 800,-308.5"/>
<text text-anchor="middle" x="879" y="-315.5" font-family="Helvetica,sans-Serif" font-size="10.00" fill="#000000">omc_FBuiltin_getInitialFunctions</text>
</a>
</g>
</g>
<!-- Node581&#45;&gt;Node593 -->
<g id="edge19" class="edge">
<title>Node581&#45;&gt;Node593</title>
<path fill="none" stroke="#191970" d="M698.2022,-216.0562C738.3305,-238.6827 813.6882,-281.1736 853.2505,-303.481"/>
<polygon fill="#191970" stroke="#191970" points="851.6089,-306.5734 862.0387,-308.4363 855.047,-300.4759 851.6089,-306.5734"/>
</g>
<!-- Node582&#45;&gt;Node581 -->
<g id="edge7" class="edge">
<title>Node582&#45;&gt;Node581</title>
<path fill="none" stroke="#191970" d="M810.7283,-192.6247C791.2231,-195.1079 769.8159,-197.4373 749.7629,-199.2679"/>
<polygon fill="#191970" stroke="#191970" points="749.3851,-195.7875 739.7307,-200.1513 749.9992,-202.7605 749.3851,-195.7875"/>
</g>
<!-- Node583 -->
<g id="node6" class="node">
<title>Node583</title>
<g id="a_node6"><a xlink:href="../../db/d73/_interactive_8c.html#a0decc2aabeed83ab0e2d11f7c5f7078a" target="_top" xlink:title="omc_Interactive_getClass\lInProgram">
<polygon fill="#ffffff" stroke="#000000" points="1193,-71 1193,-101 1324,-101 1324,-71 1193,-71"/>
<text text-anchor="start" x="1201" y="-89" font-family="Helvetica,sans-Serif" font-size="10.00" fill="#000000">omc_Interactive_getClass</text>
<text text-anchor="middle" x="1258.5" y="-78" font-family="Helvetica,sans-Serif" font-size="10.00" fill="#000000">InProgram</text>
</a>
</g>
</g>
<!-- Node582&#45;&gt;Node583 -->
<g id="edge5" class="edge">
<title>Node582&#45;&gt;Node583</title>
<path fill="none" stroke="#191970" d="M897.9951,-163.9094C921.398,-146.2691 963.1001,-117.8545 1004,-105 1062.1522,-86.7232 1131.304,-82.6034 1182.8375,-82.7028"/>
<polygon fill="#191970" stroke="#191970" points="1182.8756,-86.203 1192.9008,-82.776 1182.9266,-79.2032 1182.8756,-86.203"/>
</g>
<!-- Node585 -->
<g id="node8" class="node">
<title>Node585</title>
<g id="a_node8"><a xlink:href="../../db/d73/_interactive_8c.html#a53acc6f98f291721c9a118bb4afe429c" target="_top" xlink:title="omc_Interactive_getPathed\lClassInProgramWorkNoThrow">
<polygon fill="#ffffff" stroke="#000000" points="1004,-164 1004,-194 1154,-194 1154,-164 1004,-164"/>
<text text-anchor="start" x="1012" y="-182" font-family="Helvetica,sans-Serif" font-size="10.00" fill="#000000">omc_Interactive_getPathed</text>
<text text-anchor="middle" x="1079" y="-171" font-family="Helvetica,sans-Serif" font-size="10.00" fill="#000000">ClassInProgramWorkNoThrow</text>
</a>
</g>
</g>
<!-- Node582&#45;&gt;Node585 -->
<g id="edge8" class="edge">
<title>Node582&#45;&gt;Node585</title>
<path fill="none" stroke="#191970" d="M947.2693,-179C962.2145,-179 978.2146,-179 993.7309,-179"/>
<polygon fill="#191970" stroke="#191970" points="993.8416,-182.5001 1003.8416,-179 993.8415,-175.5001 993.8416,-182.5001"/>
</g>
<!-- Node592 -->
<g id="node15" class="node">
<title>Node592</title>
<g id="a_node15"><a xlink:href="../../db/d73/_interactive_8c.html#a9f36d43b7641634cb0d9a738c7ed88c5" target="_top" xlink:title="omc_Interactive_getPathed\lClassInProgramWorkThrow">
<polygon fill="#ffffff" stroke="#000000" points="1010.5,-115 1010.5,-145 1147.5,-145 1147.5,-115 1010.5,-115"/>
<text text-anchor="start" x="1018.5" y="-133" font-family="Helvetica,sans-Serif" font-size="10.00" fill="#000000">omc_Interactive_getPathed</text>
<text text-anchor="middle" x="1079" y="-122" font-family="Helvetica,sans-Serif" font-size="10.00" fill="#000000">ClassInProgramWorkThrow</text>
</a>
</g>
</g>
<!-- Node582&#45;&gt;Node592 -->
<g id="edge17" class="edge">
<title>Node582&#45;&gt;Node592</title>
<path fill="none" stroke="#191970" d="M940.3658,-163.9654C961.675,-158.7446 985.7499,-152.8463 1007.7862,-147.4474"/>
<polygon fill="#191970" stroke="#191970" points="1008.8704,-150.7853 1017.7503,-145.0062 1007.2046,-143.9864 1008.8704,-150.7853"/>
</g>
<!-- Node584 -->
<g id="node7" class="node">
<title>Node584</title>
<g id="a_node7"><a xlink:href="../../da/d72/_compiler_2boot_2build_2list_8c.html#aaa81bbdddf6ecc72a7ba180a14e0458b" target="_top" xlink:title="omc_List_find1">
<polygon fill="#ffffff" stroke="#000000" points="1393,-78.5 1393,-97.5 1476,-97.5 1476,-78.5 1393,-78.5"/>
<text text-anchor="middle" x="1434.5" y="-85.5" font-family="Helvetica,sans-Serif" font-size="10.00" fill="#000000">omc_List_find1</text>
</a>
</g>
</g>
<!-- Node583&#45;&gt;Node584 -->
<g id="edge6" class="edge">
<title>Node583&#45;&gt;Node584</title>
<path fill="none" stroke="#191970" d="M1324.0359,-86.7447C1343.4069,-86.9649 1364.3342,-87.2027 1382.71,-87.4115"/>
<polygon fill="#191970" stroke="#191970" points="1382.8767,-90.9135 1392.9159,-87.5275 1382.9563,-83.914 1382.8767,-90.9135"/>
</g>
<!-- Node586 -->
<g id="node9" class="node">
<title>Node586</title>
<g id="a_node9"><a xlink:href="../../db/d73/_interactive_8c.html#ab1a6c5772a699f50ca691f1b72680977" target="_top" xlink:title="omc_Interactive_getClass\lInClass">
<polygon fill="#ffffff" stroke="#000000" points="1193,-120 1193,-150 1324,-150 1324,-120 1193,-120"/>
<text text-anchor="start" x="1201" y="-138" font-family="Helvetica,sans-Serif" font-size="10.00" fill="#000000">omc_Interactive_getClass</text>
<text text-anchor="middle" x="1258.5" y="-127" font-family="Helvetica,sans-Serif" font-size="10.00" fill="#000000">InClass</text>
</a>
</g>
</g>
<!-- Node585&#45;&gt;Node586 -->
<g id="edge9" class="edge">
<title>Node585&#45;&gt;Node586</title>
<path fill="none" stroke="#191970" d="M1140.2717,-163.9808C1155.3513,-160.2844 1171.6274,-156.2947 1187.138,-152.4926"/>
<polygon fill="#191970" stroke="#191970" points="1188.3207,-155.8064 1197.1999,-150.0262 1186.6542,-149.0077 1188.3207,-155.8064"/>
</g>
<!-- Node585&#45;&gt;Node591 -->
<g id="edge16" class="edge">
<title>Node585&#45;&gt;Node591</title>
<path fill="none" stroke="#191970" d="M1154.0279,-181.64C1309.422,-187.1077 1660.4169,-199.458 1761.6723,-203.0208"/>
<polygon fill="#191970" stroke="#191970" points="1761.6076,-206.5206 1771.7245,-203.3745 1761.8538,-199.525 1761.6076,-206.5206"/>
</g>
<!-- Node586&#45;&gt;Node584 -->
<g id="edge10" class="edge">
<title>Node586&#45;&gt;Node584</title>
<path fill="none" stroke="#191970" d="M1314.6714,-119.9997C1338.6828,-113.5876 1366.3479,-106.1997 1389.0423,-100.1393"/>
<polygon fill="#191970" stroke="#191970" points="1390.0044,-103.5051 1398.7628,-97.5434 1388.1984,-96.7421 1390.0044,-103.5051"/>
</g>
<!-- Node587 -->
<g id="node10" class="node">
<title>Node587</title>
<g id="a_node10"><a xlink:href="../../db/d73/_interactive_8c.html#aa82da3f923157554cf2609abe0034767" target="_top" xlink:title="omc_Interactive_getClasses\lInClass">
<polygon fill="#ffffff" stroke="#000000" points="1364,-120 1364,-150 1505,-150 1505,-120 1364,-120"/>
<text text-anchor="start" x="1372" y="-138" font-family="Helvetica,sans-Serif" font-size="10.00" fill="#000000">omc_Interactive_getClasses</text>
<text text-anchor="middle" x="1434.5" y="-127" font-family="Helvetica,sans-Serif" font-size="10.00" fill="#000000">InClass</text>
</a>
</g>
</g>
<!-- Node586&#45;&gt;Node587 -->
<g id="edge11" class="edge">
<title>Node586&#45;&gt;Node587</title>
<path fill="none" stroke="#191970" d="M1324.0359,-135C1333.6832,-135 1343.7166,-135 1353.6285,-135"/>
<polygon fill="#191970" stroke="#191970" points="1353.8926,-138.5001 1363.8926,-135 1353.8925,-131.5001 1353.8926,-138.5001"/>
</g>
<!-- Node588 -->
<g id="node11" class="node">
<title>Node588</title>
<g id="a_node11"><a xlink:href="../../db/d73/_interactive_8c.html#a59cd6bddf2c4370dc4579f063e2f1930" target="_top" xlink:title="omc_Interactive_getClasses\lInParts">
<polygon fill="#ffffff" stroke="#000000" points="1542,-120 1542,-150 1683,-150 1683,-120 1542,-120"/>
<text text-anchor="start" x="1550" y="-138" font-family="Helvetica,sans-Serif" font-size="10.00" fill="#000000">omc_Interactive_getClasses</text>
<text text-anchor="middle" x="1612.5" y="-127" font-family="Helvetica,sans-Serif" font-size="10.00" fill="#000000">InParts</text>
</a>
</g>
</g>
<!-- Node587&#45;&gt;Node588 -->
<g id="edge12" class="edge">
<title>Node587&#45;&gt;Node588</title>
<path fill="none" stroke="#191970" d="M1505.106,-135C1513.9213,-135 1522.9884,-135 1531.9405,-135"/>
<polygon fill="#191970" stroke="#191970" points="1531.9795,-138.5001 1541.9794,-135 1531.9794,-131.5001 1531.9795,-138.5001"/>
</g>
<!-- Node589 -->
<g id="node12" class="node">
<title>Node589</title>
<g id="a_node12"><a xlink:href="../../db/d73/_interactive_8c.html#a8cd7c2589481fea8e60d03ad82def175" target="_top" xlink:title="omc_Interactive_getClasses\lInElts">
<polygon fill="#ffffff" stroke="#000000" points="1719,-120 1719,-150 1860,-150 1860,-120 1719,-120"/>
<text text-anchor="start" x="1727" y="-138" font-family="Helvetica,sans-Serif" font-size="10.00" fill="#000000">omc_Interactive_getClasses</text>
<text text-anchor="middle" x="1789.5" y="-127" font-family="Helvetica,sans-Serif" font-size="10.00" fill="#000000">InElts</text>
</a>
</g>
</g>
<!-- Node588&#45;&gt;Node589 -->
<g id="edge13" class="edge">
<title>Node588&#45;&gt;Node589</title>
<path fill="none" stroke="#191970" d="M1683.2182,-135C1691.57,-135 1700.1422,-135 1708.6204,-135"/>
<polygon fill="#191970" stroke="#191970" points="1708.8942,-138.5001 1718.8942,-135 1708.8942,-131.5001 1708.8942,-138.5001"/>
</g>
<!-- Node590 -->
<g id="node13" class="node">
<title>Node590</title>
<g id="a_node13"><a xlink:href="../../d2/d57/build_2include_2omc_2c_2meta_2meta__modelica__builtin_8h.html#a56b7e8a835b2d388f5984ca7378bc1ec" target="_top" xlink:title="listAppend">
<polygon fill="#ffffff" stroke="#000000" points="1758.5,-41.5 1758.5,-60.5 1820.5,-60.5 1820.5,-41.5 1758.5,-41.5"/>
<text text-anchor="middle" x="1789.5" y="-48.5" font-family="Helvetica,sans-Serif" font-size="10.00" fill="#000000">listAppend</text>
</a>
</g>
</g>
<!-- Node588&#45;&gt;Node590 -->
<g id="edge14" class="edge">
<title>Node588&#45;&gt;Node590</title>
<path fill="none" stroke="#191970" d="M1644.1441,-119.9825C1677.0358,-104.3729 1728.0977,-80.1401 1760.1232,-64.9415"/>
<polygon fill="#191970" stroke="#191970" points="1761.8762,-67.9838 1769.4098,-60.5343 1758.8749,-61.6598 1761.8762,-67.9838"/>
</g>
<!-- Node588&#45;&gt;Node591 -->
<g id="edge15" class="edge">
<title>Node588&#45;&gt;Node591</title>
<path fill="none" stroke="#191970" d="M1651.3434,-150.1423C1684.8426,-163.2014 1732.3764,-181.7315 1762.05,-193.2992"/>
<polygon fill="#191970" stroke="#191970" points="1761.1605,-196.7089 1771.7488,-197.08 1763.703,-190.1869 1761.1605,-196.7089"/>
</g>
<!-- Node592&#45;&gt;Node586 -->
<g id="edge18" class="edge">
<title>Node592&#45;&gt;Node586</title>
<path fill="none" stroke="#191970" d="M1147.6296,-131.9117C1159.1119,-132.2315 1171.0831,-132.565 1182.7322,-132.8895"/>
<polygon fill="#191970" stroke="#191970" points="1182.7723,-136.3919 1192.8659,-133.1718 1182.9673,-129.3946 1182.7723,-136.3919"/>
</g>
<!-- Node594 -->
<g id="node17" class="node">
<title>Node594</title>
<g id="a_node17"><a xlink:href="../../d3/db3/_flags_8c.html#a34e6591659b1578969141a635ff24042" target="_top" xlink:title="omc_Flags_isSet">
<polygon fill="#ffffff" stroke="#000000" points="1212.5,-365.5 1212.5,-384.5 1304.5,-384.5 1304.5,-365.5 1212.5,-365.5"/>
<text text-anchor="middle" x="1258.5" y="-372.5" font-family="Helvetica,sans-Serif" font-size="10.00" fill="#000000">omc_Flags_isSet</text>
</a>
</g>
</g>
<!-- Node593&#45;&gt;Node594 -->
<g id="edge20" class="edge">
<title>Node593&#45;&gt;Node594</title>
<path fill="none" stroke="#191970" d="M904.4425,-327.5472C929.4141,-336.4827 968.7728,-349.4141 1004,-356 1071.3701,-368.5951 1150.2457,-372.9063 1202.1245,-374.3459"/>
<polygon fill="#191970" stroke="#191970" points="1202.0441,-377.8449 1212.1289,-374.5972 1202.2199,-370.8471 1202.0441,-377.8449"/>
</g>
<!-- Node597 -->
<g id="node20" class="node">
<title>Node597</title>
<g id="a_node20"><a xlink:href="../../d7/deb/build_2include_2omc_2c_2util_2modelica__string_8c.html#a751007abc59e9ca7978f2af10a0c814f" target="_top" xlink:title="stringAppend">
<polygon fill="#ffffff" stroke="#000000" points="1042,-251.5 1042,-270.5 1116,-270.5 1116,-251.5 1042,-251.5"/>
<text text-anchor="middle" x="1079" y="-258.5" font-family="Helvetica,sans-Serif" font-size="10.00" fill="#000000">stringAppend</text>
</a>
</g>
</g>
<!-- Node593&#45;&gt;Node597 -->
<g id="edge23" class="edge">
<title>Node593&#45;&gt;Node597</title>
<path fill="none" stroke="#191970" d="M908.9404,-308.4656C934.1908,-300.5289 971.3336,-289.0976 1004,-280 1013.0275,-277.4858 1022.7047,-274.9309 1032.0071,-272.5442"/>
<polygon fill="#191970" stroke="#191970" points="1033.0748,-275.8842 1041.9055,-270.0302 1031.3516,-269.0996 1033.0748,-275.8842"/>
</g>
<!-- Node598 -->
<g id="node21" class="node">
<title>Node598</title>
<g id="a_node21"><a xlink:href="../../db/d8a/_settings_8c.html#a50f4b9de23b5202f6ee4225b4e08b2d2" target="_top" xlink:title="omc_Settings_getInstallation\lDirectoryPath">
<polygon fill="#ffffff" stroke="#000000" points="1007.5,-404 1007.5,-434 1150.5,-434 1150.5,-404 1007.5,-404"/>
<text text-anchor="start" x="1015.5" y="-422" font-family="Helvetica,sans-Serif" font-size="10.00" fill="#000000">omc_Settings_getInstallation</text>
<text text-anchor="middle" x="1079" y="-411" font-family="Helvetica,sans-Serif" font-size="10.00" fill="#000000">DirectoryPath</text>
</a>
</g>
</g>
<!-- Node593&#45;&gt;Node598 -->
<g id="edge24" class="edge">
<title>Node593&#45;&gt;Node598</title>
<path fill="none" stroke="#191970" d="M894.4188,-327.6672C917.6626,-342.0295 963.2948,-369.4108 1004,-389 1011.9878,-392.8441 1020.6035,-396.6189 1029.0501,-400.1242"/>
<polygon fill="#191970" stroke="#191970" points="1027.8905,-403.4309 1038.4723,-403.9567 1030.528,-396.9468 1027.8905,-403.4309"/>
</g>
<!-- Node601 -->
<g id="node24" class="node">
<title>Node601</title>
<g id="a_node24"><a xlink:href="../../d9/d7c/_compiler_2boot_2build_2util_8c.html#ad68c3faf9201d411f2989d49f79a146a" target="_top" xlink:title="omc_Util_assoc">
<polygon fill="#ffffff" stroke="#000000" points="1035.5,-327.5 1035.5,-346.5 1122.5,-346.5 1122.5,-327.5 1035.5,-327.5"/>
<text text-anchor="middle" x="1079" y="-334.5" font-family="Helvetica,sans-Serif" font-size="10.00" fill="#000000">omc_Util_assoc</text>
</a>
</g>
</g>
<!-- Node593&#45;&gt;Node601 -->
<g id="edge28" class="edge">
<title>Node593&#45;&gt;Node601</title>
<path fill="none" stroke="#191970" d="M958.0453,-325.5093C980.556,-327.6478 1004.55,-329.9273 1025.1828,-331.8874"/>
<polygon fill="#191970" stroke="#191970" points="1025.0431,-335.3898 1035.3293,-332.8513 1025.7051,-328.4211 1025.0431,-335.3898"/>
</g>
<!-- Node603 -->
<g id="node26" class="node">
<title>Node603</title>
<g id="a_node26"><a xlink:href="../../d3/db3/_flags_8c.html#add52ff282ca5df852c1905fabb4571c9" target="_top" xlink:title="omc_Flags_getConfigEnum">
<polygon fill="#ffffff" stroke="#000000" points="1010.5,-289.5 1010.5,-308.5 1147.5,-308.5 1147.5,-289.5 1010.5,-289.5"/>
<text text-anchor="middle" x="1079" y="-296.5" font-family="Helvetica,sans-Serif" font-size="10.00" fill="#000000">omc_Flags_getConfigEnum</text>
</a>
</g>
</g>
<!-- Node593&#45;&gt;Node603 -->
<g id="edge30" class="edge">
<title>Node593&#45;&gt;Node603</title>
<path fill="none" stroke="#191970" d="M958.0453,-310.4907C971.9273,-309.1719 986.3734,-307.7995 1000.2475,-306.4815"/>
<polygon fill="#191970" stroke="#191970" points="1000.6084,-309.9631 1010.2326,-305.5329 999.9464,-302.9944 1000.6084,-309.9631"/>
</g>
<!-- Node595 -->
<g id="node18" class="node">
<title>Node595</title>
<g id="a_node18"><a xlink:href="../../d3/db3/_flags_8c.html#a760d66f53b65ac257876ca0f6308f09f" target="_top" xlink:title="omc_Flags_loadFlags">
<polygon fill="#ffffff" stroke="#000000" points="1378.5,-318.5 1378.5,-337.5 1490.5,-337.5 1490.5,-318.5 1378.5,-318.5"/>
<text text-anchor="middle" x="1434.5" y="-325.5" font-family="Helvetica,sans-Serif" font-size="10.00" fill="#000000">omc_Flags_loadFlags</text>
</a>
</g>
</g>
<!-- Node594&#45;&gt;Node595 -->
<g id="edge21" class="edge">
<title>Node594&#45;&gt;Node595</title>
<path fill="none" stroke="#191970" d="M1294.1162,-365.4888C1321.46,-358.1868 1359.4128,-348.0517 1388.9633,-340.1604"/>
<polygon fill="#191970" stroke="#191970" points="1389.8767,-343.5392 1398.6351,-337.5776 1388.0706,-336.7762 1389.8767,-343.5392"/>
</g>
<!-- Node596 -->
<g id="node19" class="node">
<title>Node596</title>
<g id="a_node19"><a xlink:href="../../da/d72/_compiler_2boot_2build_2list_8c.html#a3ec1ee3a5ff53be9af368e290be09182" target="_top" xlink:title="omc_List_fold">
<polygon fill="#ffffff" stroke="#000000" points="1574,-318.5 1574,-337.5 1651,-337.5 1651,-318.5 1574,-318.5"/>
<text text-anchor="middle" x="1612.5" y="-325.5" font-family="Helvetica,sans-Serif" font-size="10.00" fill="#000000">omc_List_fold</text>
</a>
</g>
</g>
<!-- Node595&#45;&gt;Node596 -->
<g id="edge22" class="edge">
<title>Node595&#45;&gt;Node596</title>
<path fill="none" stroke="#191970" d="M1490.8203,-328C1514.3148,-328 1541.3376,-328 1563.9407,-328"/>
<polygon fill="#191970" stroke="#191970" points="1563.9863,-331.5001 1573.9863,-328 1563.9862,-324.5001 1563.9863,-331.5001"/>
</g>
<!-- Node599 -->
<g id="node22" class="node">
<title>Node599</title>
<g id="a_node22"><a xlink:href="../../d4/d4a/_settings_8h.html#aa560265d614bc84fcd9a24b5e7911902" target="_top" xlink:title="Settings_getInstallation\lDirectoryPath">
<polygon fill="#ffffff" stroke="#000000" points="1199,-404 1199,-434 1318,-434 1318,-404 1199,-404"/>
<text text-anchor="start" x="1207" y="-422" font-family="Helvetica,sans-Serif" font-size="10.00" fill="#000000">Settings_getInstallation</text>
<text text-anchor="middle" x="1258.5" y="-411" font-family="Helvetica,sans-Serif" font-size="10.00" fill="#000000">DirectoryPath</text>
</a>
</g>
</g>
<!-- Node598&#45;&gt;Node599 -->
<g id="edge25" class="edge">
<title>Node598&#45;&gt;Node599</title>
<path fill="none" stroke="#191970" d="M1150.717,-419C1163.1524,-419 1176.0695,-419 1188.4594,-419"/>
<polygon fill="#191970" stroke="#191970" points="1188.7209,-422.5001 1198.7208,-419 1188.7208,-415.5001 1188.7209,-422.5001"/>
</g>
<!-- Node600 -->
<g id="node23" class="node">
<title>Node600</title>
<g id="a_node23"><a xlink:href="../../d9/d08/settingsimpl_8c.html#add138f2c89e6604d53c1adf2d64fe2e3" target="_top" xlink:title="SettingsImpl__getInstallation\lDirectoryPath">
<polygon fill="#ffffff" stroke="#000000" points="1363,-386 1363,-416 1506,-416 1506,-386 1363,-386"/>
<text text-anchor="start" x="1371" y="-404" font-family="Helvetica,sans-Serif" font-size="10.00" fill="#000000">SettingsImpl__getInstallation</text>
<text text-anchor="middle" x="1434.5" y="-393" font-family="Helvetica,sans-Serif" font-size="10.00" fill="#000000">DirectoryPath</text>
</a>
</g>
</g>
<!-- Node599&#45;&gt;Node600 -->
<g id="edge26" class="edge">
<title>Node599&#45;&gt;Node600</title>
<path fill="none" stroke="#191970" d="M1318.0856,-412.906C1329.1924,-411.7701 1340.9757,-410.565 1352.6156,-409.3745"/>
<polygon fill="#191970" stroke="#191970" points="1353.1952,-412.8336 1362.7872,-408.3343 1352.4829,-405.8699 1353.1952,-412.8336"/>
</g>
<!-- Node600&#45;&gt;Node600 -->
<g id="edge27" class="edge">
<title>Node600&#45;&gt;Node600</title>
<path fill="none" stroke="#191970" d="M1403.8284,-416.159C1396.4324,-425.5566 1406.6563,-434.5 1434.5,-434.5 1451.4673,-434.5 1461.8916,-431.179 1465.7731,-426.4579"/>
<polygon fill="#191970" stroke="#191970" points="1469.2488,-425.9379 1465.1716,-416.159 1462.2607,-426.3461 1469.2488,-425.9379"/>
</g>
<!-- Node602 -->
<g id="node25" class="node">
<title>Node602</title>
<g id="a_node25"><a xlink:href="../../dc/dd0/build_2include_2omc_2c_2meta_2meta__modelica_8h.html#a053b78d26cb7fe728aa97ab1a575f7ad" target="_top" xlink:title="valueEq">
<polygon fill="#ffffff" stroke="#000000" points="1232.5,-327.5 1232.5,-346.5 1284.5,-346.5 1284.5,-327.5 1232.5,-327.5"/>
<text text-anchor="middle" x="1258.5" y="-334.5" font-family="Helvetica,sans-Serif" font-size="10.00" fill="#000000">valueEq</text>
</a>
</g>
</g>
<!-- Node601&#45;&gt;Node602 -->
<g id="edge29" class="edge">
<title>Node601&#45;&gt;Node602</title>
<path fill="none" stroke="#191970" d="M1122.9106,-337C1153.4153,-337 1193.5774,-337 1222.2578,-337"/>
<polygon fill="#191970" stroke="#191970" points="1222.2656,-340.5001 1232.2656,-337 1222.2655,-333.5001 1222.2656,-340.5001"/>
</g>
<!-- Node604 -->
<g id="node27" class="node">
<title>Node604</title>
<g id="a_node27"><a xlink:href="../../d3/db3/_flags_8c.html#a96ba70d54b6662cf90933a207c0c6b8e" target="_top" xlink:title="omc_Flags_getConfigValue">
<polygon fill="#ffffff" stroke="#000000" points="1190,-289.5 1190,-308.5 1327,-308.5 1327,-289.5 1190,-289.5"/>
<text text-anchor="middle" x="1258.5" y="-296.5" font-family="Helvetica,sans-Serif" font-size="10.00" fill="#000000">omc_Flags_getConfigValue</text>
</a>
</g>
</g>
<!-- Node603&#45;&gt;Node604 -->
<g id="edge31" class="edge">
<title>Node603&#45;&gt;Node604</title>
<path fill="none" stroke="#191970" d="M1147.6296,-299C1158.1299,-299 1169.0391,-299 1179.7369,-299"/>
<polygon fill="#191970" stroke="#191970" points="1179.9085,-302.5001 1189.9085,-299 1179.9084,-295.5001 1179.9085,-302.5001"/>
</g>
<!-- Node604&#45;&gt;Node595 -->
<g id="edge32" class="edge">
<title>Node604&#45;&gt;Node595</title>
<path fill="none" stroke="#191970" d="M1316.6168,-308.5761C1333.0344,-311.2812 1351.0267,-314.2459 1367.9013,-317.0264"/>
<polygon fill="#191970" stroke="#191970" points="1367.8036,-320.5574 1378.2397,-318.7298 1368.9418,-313.6505 1367.8036,-320.5574"/>
</g>
<!-- Node606 -->
<g id="node29" class="node">
<title>Node606</title>
<g id="a_node29"><a xlink:href="../../da/d72/_compiler_2boot_2build_2list_8c.html#a65a694e3889f2f5d8af963dcfbbaf1cf" target="_top" xlink:title="omc_List_flatten">
<polygon fill="#ffffff" stroke="#000000" points="834.5,-38.5 834.5,-57.5 923.5,-57.5 923.5,-38.5 834.5,-38.5"/>
<text text-anchor="middle" x="879" y="-45.5" font-family="Helvetica,sans-Serif" font-size="10.00" fill="#000000">omc_List_flatten</text>
</a>
</g>
</g>
<!-- Node605&#45;&gt;Node606 -->
<g id="edge35" class="edge">
<title>Node605&#45;&gt;Node606</title>
<path fill="none" stroke="#191970" d="M754.1057,-59.4361C777.6099,-57.2839 802.626,-54.9933 824.0479,-53.0318"/>
<polygon fill="#191970" stroke="#191970" points="824.6138,-56.4947 834.253,-52.0973 823.9755,-49.5238 824.6138,-56.4947"/>
</g>
<!-- Node608 -->
<g id="node31" class="node">
<title>Node608</title>
<g id="a_node31"><a xlink:href="../../da/d72/_compiler_2boot_2build_2list_8c.html#a70628b2c3fb199a118f80777135940ee" target="_top" xlink:title="omc_List_map">
<polygon fill="#ffffff" stroke="#000000" points="839,-.5 839,-19.5 919,-19.5 919,-.5 839,-.5"/>
<text text-anchor="middle" x="879" y="-7.5" font-family="Helvetica,sans-Serif" font-size="10.00" fill="#000000">omc_List_map</text>
</a>
</g>
</g>
<!-- Node605&#45;&gt;Node608 -->
<g id="edge38" class="edge">
<title>Node605&#45;&gt;Node608</title>
<path fill="none" stroke="#191970" d="M714.8083,-51.9638C737.1143,-44.5128 764.8433,-35.7008 790,-29 802.5287,-25.6628 816.1704,-22.5128 828.9241,-19.7728"/>
<polygon fill="#191970" stroke="#191970" points="829.8594,-23.1527 838.9238,-17.6676 828.4172,-16.3028 829.8594,-23.1527"/>
</g>
<!-- Node609 -->
<g id="node32" class="node">
<title>Node609</title>
<g id="a_node32"><a xlink:href="../../d0/d78/_absyn_8c.html#ab831c61b00e06407584466e28fe425da" target="_top" xlink:title="omc_Absyn_getNamedAnnotationStr">
<polygon fill="#ffffff" stroke="#000000" points="790,-76.5 790,-95.5 968,-95.5 968,-76.5 790,-76.5"/>
<text text-anchor="middle" x="879" y="-83.5" font-family="Helvetica,sans-Serif" font-size="10.00" fill="#000000">omc_Absyn_getNamedAnnotationStr</text>
</a>
</g>
</g>
<!-- Node605&#45;&gt;Node609 -->
<g id="edge39" class="edge">
<title>Node605&#45;&gt;Node609</title>
<path fill="none" stroke="#191970" d="M754.1057,-74.5639C762.5538,-75.3375 771.1972,-76.1289 779.7988,-76.9165"/>
<polygon fill="#191970" stroke="#191970" points="779.5855,-80.4115 789.863,-77.8381 780.2238,-73.4407 779.5855,-80.4115"/>
</g>
<!-- Node606&#45;&gt;Node590 -->
<g id="edge37" class="edge">
<title>Node606&#45;&gt;Node590</title>
<path fill="none" stroke="#191970" d="M923.7275,-40.3548C947.5107,-36.504 977.281,-32.0236 1004,-29 1116.7066,-16.246 1145.0741,-10 1258.5,-10 1258.5,-10 1258.5,-10 1434.5,-10 1548.7487,-10 1682.322,-31.2149 1748.302,-43.1236"/>
<polygon fill="#191970" stroke="#191970" points="1747.8314,-46.5955 1758.2977,-44.9503 1749.0899,-39.7095 1747.8314,-46.5955"/>
</g>
<!-- Node607 -->
<g id="node30" class="node">
<title>Node607</title>
<g id="a_node30"><a xlink:href="../../d2/d57/build_2include_2omc_2c_2meta_2meta__modelica__builtin_8h.html#a81001ba45c298ade27540edd2589777c" target="_top" xlink:title="listReverse">
<polygon fill="#ffffff" stroke="#000000" points="1046,-38.5 1046,-57.5 1112,-57.5 1112,-38.5 1046,-38.5"/>
<text text-anchor="middle" x="1079" y="-45.5" font-family="Helvetica,sans-Serif" font-size="10.00" fill="#000000">listReverse</text>
</a>
</g>
</g>
<!-- Node606&#45;&gt;Node607 -->
<g id="edge36" class="edge">
<title>Node606&#45;&gt;Node607</title>
<path fill="none" stroke="#191970" d="M923.8839,-48C957.2429,-48 1002.5022,-48 1035.5207,-48"/>
<polygon fill="#191970" stroke="#191970" points="1035.7803,-51.5001 1045.7803,-48 1035.7803,-44.5001 1035.7803,-51.5001"/>
</g>
</g>
</svg>
