<?xml version="1.0" encoding="UTF-8" standalone="no"?>
<!DOCTYPE svg PUBLIC "-//W3C//DTD SVG 1.1//EN"
 "http://www.w3.org/Graphics/SVG/1.1/DTD/svg11.dtd">
<!-- Generated by graphviz version 2.40.1 (20161225.0304)
 -->
<!-- Title: boxptr_Interactive_isOperatorRecord Pages: 1 -->
<svg width="1537pt" height="385pt"
 viewBox="0.00 0.00 1537.00 385.00" xmlns="http://www.w3.org/2000/svg" xmlns:xlink="http://www.w3.org/1999/xlink">
<g id="graph0" class="graph" transform="scale(1 1) rotate(0) translate(4 381)">
<title>boxptr_Interactive_isOperatorRecord</title>
<polygon fill="#ffffff" stroke="transparent" points="-4,4 -4,-381 1533,-381 1533,4 -4,4"/>
<!-- Node906 -->
<g id="node1" class="node">
<title>Node906</title>
<polygon fill="#bfbfbf" stroke="#000000" points="0,-26 0,-56 98,-56 98,-26 0,-26"/>
<text text-anchor="start" x="8" y="-44" font-family="Helvetica,sans-Serif" font-size="10.00" fill="#000000">boxptr_Interactive</text>
<text text-anchor="middle" x="49" y="-33" font-family="Helvetica,sans-Serif" font-size="10.00" fill="#000000">_isOperatorRecord</text>
</g>
<!-- Node907 -->
<g id="node2" class="node">
<title>Node907</title>
<g id="a_node2"><a xlink:href="../../db/d73/_interactive_8c.html#abfa162dbf46b5049e902fa9cfccfeec1" target="_top" xlink:title="omc_Interactive_isOperator\lRecord">
<polygon fill="#ffffff" stroke="#000000" points="134,-26 134,-56 271,-56 271,-26 134,-26"/>
<text text-anchor="start" x="142" y="-44" font-family="Helvetica,sans-Serif" font-size="10.00" fill="#000000">omc_Interactive_isOperator</text>
<text text-anchor="middle" x="202.5" y="-33" font-family="Helvetica,sans-Serif" font-size="10.00" fill="#000000">Record</text>
</a>
</g>
</g>
<!-- Node906&#45;&gt;Node907 -->
<g id="edge1" class="edge">
<title>Node906&#45;&gt;Node907</title>
<path fill="none" stroke="#191970" d="M98.4133,-41C106.5394,-41 115.1358,-41 123.7657,-41"/>
<polygon fill="#191970" stroke="#191970" points="123.8856,-44.5001 133.8856,-41 123.8855,-37.5001 123.8856,-44.5001"/>
</g>
<!-- Node908 -->
<g id="node3" class="node">
<title>Node908</title>
<g id="a_node3"><a xlink:href="../../db/d73/_interactive_8c.html#a6725f24e4d4d6fb348c2918fecfb9092" target="_top" xlink:title="omc_Interactive_getPathed\lClassInProgram">
<polygon fill="#ffffff" stroke="#000000" points="307,-89 307,-119 443,-119 443,-89 307,-89"/>
<text text-anchor="start" x="315" y="-107" font-family="Helvetica,sans-Serif" font-size="10.00" fill="#000000">omc_Interactive_getPathed</text>
<text text-anchor="middle" x="375" y="-96" font-family="Helvetica,sans-Serif" font-size="10.00" fill="#000000">ClassInProgram</text>
</a>
</g>
</g>
<!-- Node907&#45;&gt;Node908 -->
<g id="edge2" class="edge">
<title>Node907&#45;&gt;Node908</title>
<path fill="none" stroke="#191970" d="M243.818,-56.0901C267.9463,-64.9021 298.5834,-76.0913 324.1809,-85.44"/>
<polygon fill="#191970" stroke="#191970" points="323.1266,-88.781 333.7205,-88.924 325.5281,-82.2058 323.1266,-88.781"/>
</g>
<!-- Node918 -->
<g id="node13" class="node">
<title>Node918</title>
<g id="a_node13"><a xlink:href="../../d1/dd1/3rd_party_2gc_2include_2gc_8h.html#acacfa47efcc44a29f7bb7d98f2a000f8" target="_top" xlink:title="void">
<polygon fill="#ffffff" stroke="#000000" points="1441,-47.5 1441,-66.5 1476,-66.5 1476,-47.5 1441,-47.5"/>
<text text-anchor="middle" x="1458.5" y="-54.5" font-family="Helvetica,sans-Serif" font-size="10.00" fill="#000000">void</text>
</a>
</g>
</g>
<!-- Node907&#45;&gt;Node918 -->
<g id="edge33" class="edge">
<title>Node907&#45;&gt;Node918</title>
<path fill="none" stroke="#191970" d="M271.0455,-28.3641C342.4403,-16.3173 457.6635,0 558,0 558,0 558,0 1103.5,0 1227.1601,0 1372.0209,-34.1341 1431.2171,-49.5729"/>
<polygon fill="#191970" stroke="#191970" points="1430.3677,-52.9686 1440.9301,-52.1402 1432.1566,-46.201 1430.3677,-52.9686"/>
</g>
<!-- Node909 -->
<g id="node4" class="node">
<title>Node909</title>
<g id="a_node4"><a xlink:href="../../db/d73/_interactive_8c.html#a94088fd09396293fce13cc6f42b0f8fa" target="_top" xlink:title="omc_Interactive_getPathed\lClassInProgramWork">
<polygon fill="#ffffff" stroke="#000000" points="490,-89 490,-119 626,-119 626,-89 490,-89"/>
<text text-anchor="start" x="498" y="-107" font-family="Helvetica,sans-Serif" font-size="10.00" fill="#000000">omc_Interactive_getPathed</text>
<text text-anchor="middle" x="558" y="-96" font-family="Helvetica,sans-Serif" font-size="10.00" fill="#000000">ClassInProgramWork</text>
</a>
</g>
</g>
<!-- Node908&#45;&gt;Node909 -->
<g id="edge3" class="edge">
<title>Node908&#45;&gt;Node909</title>
<path fill="none" stroke="#191970" d="M443.1424,-97.4494C455.0511,-97.2419 467.5254,-97.1964 479.6826,-97.3127"/>
<polygon fill="#191970" stroke="#191970" points="479.7546,-100.8138 489.8006,-97.4484 479.8485,-93.8145 479.7546,-100.8138"/>
</g>
<!-- Node908&#45;&gt;Node918 -->
<g id="edge32" class="edge">
<title>Node908&#45;&gt;Node918</title>
<path fill="none" stroke="#191970" d="M426.6882,-88.941C498.2271,-69.4617 631.7641,-38 748,-38 748,-38 748,-38 1103.5,-38 1225.5179,-38 1370.7897,-49.331 1430.6326,-54.4923"/>
<polygon fill="#191970" stroke="#191970" points="1430.5206,-57.9957 1440.7875,-55.3801 1431.1304,-51.0223 1430.5206,-57.9957"/>
</g>
<!-- Node920 -->
<g id="node15" class="node">
<title>Node920</title>
<g id="a_node15"><a xlink:href="../../d7/d1c/_f_builtin_8c.html#a39ccd88d72001ca29a15abe18a97d4c4" target="_top" xlink:title="omc_FBuiltin_getInitialFunctions">
<polygon fill="#ffffff" stroke="#000000" points="479,-272.5 479,-291.5 637,-291.5 637,-272.5 479,-272.5"/>
<text text-anchor="middle" x="558" y="-279.5" font-family="Helvetica,sans-Serif" font-size="10.00" fill="#000000">omc_FBuiltin_getInitialFunctions</text>
</a>
</g>
</g>
<!-- Node908&#45;&gt;Node920 -->
<g id="edge18" class="edge">
<title>Node908&#45;&gt;Node920</title>
<path fill="none" stroke="#191970" d="M390.6025,-119.1762C424.6739,-152.3167 505.5059,-230.9402 540.9012,-265.3684"/>
<polygon fill="#191970" stroke="#191970" points="538.5038,-267.9191 548.1125,-272.3826 543.3845,-262.9012 538.5038,-267.9191"/>
</g>
<!-- Node909&#45;&gt;Node908 -->
<g id="edge6" class="edge">
<title>Node909&#45;&gt;Node908</title>
<path fill="none" stroke="#191970" d="M489.8006,-110.5516C477.8902,-110.7585 465.4155,-110.8036 453.2593,-110.6868"/>
<polygon fill="#191970" stroke="#191970" points="453.1887,-107.1856 443.1424,-110.5506 453.0944,-114.185 453.1887,-107.1856"/>
</g>
<!-- Node910 -->
<g id="node5" class="node">
<title>Node910</title>
<g id="a_node5"><a xlink:href="../../db/d73/_interactive_8c.html#a0decc2aabeed83ab0e2d11f7c5f7078a" target="_top" xlink:title="omc_Interactive_getClass\lInProgram">
<polygon fill="#ffffff" stroke="#000000" points="862,-106 862,-136 993,-136 993,-106 862,-106"/>
<text text-anchor="start" x="870" y="-124" font-family="Helvetica,sans-Serif" font-size="10.00" fill="#000000">omc_Interactive_getClass</text>
<text text-anchor="middle" x="927.5" y="-113" font-family="Helvetica,sans-Serif" font-size="10.00" fill="#000000">InProgram</text>
</a>
</g>
</g>
<!-- Node909&#45;&gt;Node910 -->
<g id="edge4" class="edge">
<title>Node909&#45;&gt;Node910</title>
<path fill="none" stroke="#191970" d="M626.2026,-107.1379C690.037,-110.0748 785.2465,-114.4552 851.4935,-117.5031"/>
<polygon fill="#191970" stroke="#191970" points="851.7175,-121.017 861.8678,-117.9804 852.0393,-114.0244 851.7175,-121.017"/>
</g>
<!-- Node912 -->
<g id="node7" class="node">
<title>Node912</title>
<g id="a_node7"><a xlink:href="../../db/d73/_interactive_8c.html#a53acc6f98f291721c9a118bb4afe429c" target="_top" xlink:title="omc_Interactive_getPathed\lClassInProgramWorkNoThrow">
<polygon fill="#ffffff" stroke="#000000" points="673,-67 673,-97 823,-97 823,-67 673,-67"/>
<text text-anchor="start" x="681" y="-85" font-family="Helvetica,sans-Serif" font-size="10.00" fill="#000000">omc_Interactive_getPathed</text>
<text text-anchor="middle" x="748" y="-74" font-family="Helvetica,sans-Serif" font-size="10.00" fill="#000000">ClassInProgramWorkNoThrow</text>
</a>
</g>
</g>
<!-- Node909&#45;&gt;Node912 -->
<g id="edge7" class="edge">
<title>Node909&#45;&gt;Node912</title>
<path fill="none" stroke="#191970" d="M626.0577,-96.1196C637.8705,-94.7518 650.2891,-93.3139 662.4965,-91.9004"/>
<polygon fill="#191970" stroke="#191970" points="663.1521,-95.348 672.6831,-90.7209 662.3469,-88.3944 663.1521,-95.348"/>
</g>
<!-- Node919 -->
<g id="node14" class="node">
<title>Node919</title>
<g id="a_node14"><a xlink:href="../../db/d73/_interactive_8c.html#a9f36d43b7641634cb0d9a738c7ed88c5" target="_top" xlink:title="omc_Interactive_getPathed\lClassInProgramWorkThrow">
<polygon fill="#ffffff" stroke="#000000" points="679.5,-155 679.5,-185 816.5,-185 816.5,-155 679.5,-155"/>
<text text-anchor="start" x="687.5" y="-173" font-family="Helvetica,sans-Serif" font-size="10.00" fill="#000000">omc_Interactive_getPathed</text>
<text text-anchor="middle" x="748" y="-162" font-family="Helvetica,sans-Serif" font-size="10.00" fill="#000000">ClassInProgramWorkThrow</text>
</a>
</g>
</g>
<!-- Node909&#45;&gt;Node919 -->
<g id="edge16" class="edge">
<title>Node909&#45;&gt;Node919</title>
<path fill="none" stroke="#191970" d="M601.5898,-119.1417C629.3478,-128.784 665.4854,-141.337 694.9125,-151.5591"/>
<polygon fill="#191970" stroke="#191970" points="694.0182,-154.9535 704.613,-154.9287 696.3152,-148.3411 694.0182,-154.9535"/>
</g>
<!-- Node911 -->
<g id="node6" class="node">
<title>Node911</title>
<g id="a_node6"><a xlink:href="../../da/d72/_compiler_2boot_2build_2list_8c.html#aaa81bbdddf6ecc72a7ba180a14e0458b" target="_top" xlink:title="omc_List_find1">
<polygon fill="#ffffff" stroke="#000000" points="1062,-112.5 1062,-131.5 1145,-131.5 1145,-112.5 1062,-112.5"/>
<text text-anchor="middle" x="1103.5" y="-119.5" font-family="Helvetica,sans-Serif" font-size="10.00" fill="#000000">omc_List_find1</text>
</a>
</g>
</g>
<!-- Node910&#45;&gt;Node911 -->
<g id="edge5" class="edge">
<title>Node910&#45;&gt;Node911</title>
<path fill="none" stroke="#191970" d="M993.0359,-121.3724C1012.4069,-121.4824 1033.3342,-121.6013 1051.71,-121.7057"/>
<polygon fill="#191970" stroke="#191970" points="1051.8961,-125.2068 1061.9159,-121.7637 1051.9359,-118.2069 1051.8961,-125.2068"/>
</g>
<!-- Node913 -->
<g id="node8" class="node">
<title>Node913</title>
<g id="a_node8"><a xlink:href="../../db/d73/_interactive_8c.html#ab1a6c5772a699f50ca691f1b72680977" target="_top" xlink:title="omc_Interactive_getClass\lInClass">
<polygon fill="#ffffff" stroke="#000000" points="862,-155 862,-185 993,-185 993,-155 862,-155"/>
<text text-anchor="start" x="870" y="-173" font-family="Helvetica,sans-Serif" font-size="10.00" fill="#000000">omc_Interactive_getClass</text>
<text text-anchor="middle" x="927.5" y="-162" font-family="Helvetica,sans-Serif" font-size="10.00" fill="#000000">InClass</text>
</a>
</g>
</g>
<!-- Node912&#45;&gt;Node913 -->
<g id="edge8" class="edge">
<title>Node912&#45;&gt;Node913</title>
<path fill="none" stroke="#191970" d="M772.0711,-97.2139C794.1497,-110.7897 828.0266,-130.6791 859,-145 863.6215,-147.1368 868.4815,-149.2192 873.3912,-151.2117"/>
<polygon fill="#191970" stroke="#191970" points="872.2566,-154.5263 882.8441,-154.9229 874.8148,-148.0104 872.2566,-154.5263"/>
</g>
<!-- Node912&#45;&gt;Node918 -->
<g id="edge15" class="edge">
<title>Node912&#45;&gt;Node918</title>
<path fill="none" stroke="#191970" d="M823.0279,-79.36C978.422,-73.8923 1329.4169,-61.542 1430.6723,-57.9792"/>
<polygon fill="#191970" stroke="#191970" points="1430.8538,-61.475 1440.7245,-57.6255 1430.6076,-54.4794 1430.8538,-61.475"/>
</g>
<!-- Node913&#45;&gt;Node911 -->
<g id="edge9" class="edge">
<title>Node913&#45;&gt;Node911</title>
<path fill="none" stroke="#191970" d="M982.7046,-154.9442C1007.1173,-148.2862 1035.4595,-140.5565 1058.5528,-134.2583"/>
<polygon fill="#191970" stroke="#191970" points="1059.7037,-137.5724 1068.4304,-131.5644 1057.8618,-130.819 1059.7037,-137.5724"/>
</g>
<!-- Node914 -->
<g id="node9" class="node">
<title>Node914</title>
<g id="a_node9"><a xlink:href="../../db/d73/_interactive_8c.html#aa82da3f923157554cf2609abe0034767" target="_top" xlink:title="omc_Interactive_getClasses\lInClass">
<polygon fill="#ffffff" stroke="#000000" points="1033,-153 1033,-183 1174,-183 1174,-153 1033,-153"/>
<text text-anchor="start" x="1041" y="-171" font-family="Helvetica,sans-Serif" font-size="10.00" fill="#000000">omc_Interactive_getClasses</text>
<text text-anchor="middle" x="1103.5" y="-160" font-family="Helvetica,sans-Serif" font-size="10.00" fill="#000000">InClass</text>
</a>
</g>
</g>
<!-- Node913&#45;&gt;Node914 -->
<g id="edge10" class="edge">
<title>Node913&#45;&gt;Node914</title>
<path fill="none" stroke="#191970" d="M993.0359,-169.2553C1002.6832,-169.1456 1012.7166,-169.0316 1022.6285,-168.919"/>
<polygon fill="#191970" stroke="#191970" points="1022.933,-172.4159 1032.8926,-168.8024 1022.8534,-165.4163 1022.933,-172.4159"/>
</g>
<!-- Node915 -->
<g id="node10" class="node">
<title>Node915</title>
<g id="a_node10"><a xlink:href="../../db/d73/_interactive_8c.html#a59cd6bddf2c4370dc4579f063e2f1930" target="_top" xlink:title="omc_Interactive_getClasses\lInParts">
<polygon fill="#ffffff" stroke="#000000" points="1211,-124 1211,-154 1352,-154 1352,-124 1211,-124"/>
<text text-anchor="start" x="1219" y="-142" font-family="Helvetica,sans-Serif" font-size="10.00" fill="#000000">omc_Interactive_getClasses</text>
<text text-anchor="middle" x="1281.5" y="-131" font-family="Helvetica,sans-Serif" font-size="10.00" fill="#000000">InParts</text>
</a>
</g>
</g>
<!-- Node914&#45;&gt;Node915 -->
<g id="edge11" class="edge">
<title>Node914&#45;&gt;Node915</title>
<path fill="none" stroke="#191970" d="M1174.106,-156.4968C1182.9213,-155.0606 1191.9884,-153.5834 1200.9405,-152.1249"/>
<polygon fill="#191970" stroke="#191970" points="1201.6724,-155.5519 1210.9794,-150.4893 1200.5467,-148.6429 1201.6724,-155.5519"/>
</g>
<!-- Node916 -->
<g id="node11" class="node">
<title>Node916</title>
<g id="a_node11"><a xlink:href="../../db/d73/_interactive_8c.html#a8cd7c2589481fea8e60d03ad82def175" target="_top" xlink:title="omc_Interactive_getClasses\lInElts">
<polygon fill="#ffffff" stroke="#000000" points="1388,-97 1388,-127 1529,-127 1529,-97 1388,-97"/>
<text text-anchor="start" x="1396" y="-115" font-family="Helvetica,sans-Serif" font-size="10.00" fill="#000000">omc_Interactive_getClasses</text>
<text text-anchor="middle" x="1458.5" y="-104" font-family="Helvetica,sans-Serif" font-size="10.00" fill="#000000">InElts</text>
</a>
</g>
</g>
<!-- Node915&#45;&gt;Node916 -->
<g id="edge12" class="edge">
<title>Node915&#45;&gt;Node916</title>
<path fill="none" stroke="#191970" d="M1352.2182,-128.2125C1360.6618,-126.9245 1369.3306,-125.6021 1377.8998,-124.2949"/>
<polygon fill="#191970" stroke="#191970" points="1378.5364,-127.7384 1387.8942,-122.7704 1377.4807,-120.8185 1378.5364,-127.7384"/>
</g>
<!-- Node917 -->
<g id="node12" class="node">
<title>Node917</title>
<g id="a_node12"><a xlink:href="../../d2/d57/build_2include_2omc_2c_2meta_2meta__modelica__builtin_8h.html#a56b7e8a835b2d388f5984ca7378bc1ec" target="_top" xlink:title="listAppend">
<polygon fill="#ffffff" stroke="#000000" points="1427.5,-146.5 1427.5,-165.5 1489.5,-165.5 1489.5,-146.5 1427.5,-146.5"/>
<text text-anchor="middle" x="1458.5" y="-153.5" font-family="Helvetica,sans-Serif" font-size="10.00" fill="#000000">listAppend</text>
</a>
</g>
</g>
<!-- Node915&#45;&gt;Node917 -->
<g id="edge13" class="edge">
<title>Node915&#45;&gt;Node917</title>
<path fill="none" stroke="#191970" d="M1352.2182,-145.7921C1374.2562,-147.9088 1397.8286,-150.1728 1417.1601,-152.0295"/>
<polygon fill="#191970" stroke="#191970" points="1416.8498,-155.5157 1427.1387,-152.9879 1417.5191,-148.5478 1416.8498,-155.5157"/>
</g>
<!-- Node915&#45;&gt;Node918 -->
<g id="edge14" class="edge">
<title>Node915&#45;&gt;Node918</title>
<path fill="none" stroke="#191970" d="M1311.5993,-123.7862C1332.8206,-113.1873 1361.9826,-98.8776 1388,-87 1402.1744,-80.529 1418.1382,-73.6986 1431.286,-68.1926"/>
<polygon fill="#191970" stroke="#191970" points="1432.8277,-71.3421 1440.7151,-64.2682 1430.1379,-64.8795 1432.8277,-71.3421"/>
</g>
<!-- Node919&#45;&gt;Node913 -->
<g id="edge17" class="edge">
<title>Node919&#45;&gt;Node913</title>
<path fill="none" stroke="#191970" d="M816.6296,-170C828.1119,-170 840.0831,-170 851.7322,-170"/>
<polygon fill="#191970" stroke="#191970" points="851.8659,-173.5001 861.8659,-170 851.8659,-166.5001 851.8659,-173.5001"/>
</g>
<!-- Node921 -->
<g id="node16" class="node">
<title>Node921</title>
<g id="a_node16"><a xlink:href="../../d3/db3/_flags_8c.html#a34e6591659b1578969141a635ff24042" target="_top" xlink:title="omc_Flags_isSet">
<polygon fill="#ffffff" stroke="#000000" points="881.5,-357.5 881.5,-376.5 973.5,-376.5 973.5,-357.5 881.5,-357.5"/>
<text text-anchor="middle" x="927.5" y="-364.5" font-family="Helvetica,sans-Serif" font-size="10.00" fill="#000000">omc_Flags_isSet</text>
</a>
</g>
</g>
<!-- Node920&#45;&gt;Node921 -->
<g id="edge19" class="edge">
<title>Node920&#45;&gt;Node921</title>
<path fill="none" stroke="#191970" d="M568.0569,-291.5167C586.8771,-308.6207 629.4654,-344.0708 673,-358 738.5318,-378.9673 818.4404,-377.7681 871.0286,-373.6044"/>
<polygon fill="#191970" stroke="#191970" points="871.5039,-377.0766 881.1696,-372.7378 870.9079,-370.102 871.5039,-377.0766"/>
</g>
<!-- Node924 -->
<g id="node19" class="node">
<title>Node924</title>
<g id="a_node19"><a xlink:href="../../d7/deb/build_2include_2omc_2c_2util_2modelica__string_8c.html#a751007abc59e9ca7978f2af10a0c814f" target="_top" xlink:title="stringAppend">
<polygon fill="#ffffff" stroke="#000000" points="711,-329.5 711,-348.5 785,-348.5 785,-329.5 711,-329.5"/>
<text text-anchor="middle" x="748" y="-336.5" font-family="Helvetica,sans-Serif" font-size="10.00" fill="#000000">stringAppend</text>
</a>
</g>
</g>
<!-- Node920&#45;&gt;Node924 -->
<g id="edge22" class="edge">
<title>Node920&#45;&gt;Node924</title>
<path fill="none" stroke="#191970" d="M585.2472,-291.6101C608.4419,-299.6445 642.7196,-311.1737 673,-320 681.9966,-322.6224 691.6598,-325.2265 700.9581,-327.6277"/>
<polygon fill="#191970" stroke="#191970" points="700.3015,-331.072 710.8557,-330.1447 702.0268,-324.288 700.3015,-331.072"/>
</g>
<!-- Node925 -->
<g id="node20" class="node">
<title>Node925</title>
<g id="a_node20"><a xlink:href="../../db/d8a/_settings_8c.html#a50f4b9de23b5202f6ee4225b4e08b2d2" target="_top" xlink:title="omc_Settings_getInstallation\lDirectoryPath">
<polygon fill="#ffffff" stroke="#000000" points="676.5,-204 676.5,-234 819.5,-234 819.5,-204 676.5,-204"/>
<text text-anchor="start" x="684.5" y="-222" font-family="Helvetica,sans-Serif" font-size="10.00" fill="#000000">omc_Settings_getInstallation</text>
<text text-anchor="middle" x="748" y="-211" font-family="Helvetica,sans-Serif" font-size="10.00" fill="#000000">DirectoryPath</text>
</a>
</g>
</g>
<!-- Node920&#45;&gt;Node925 -->
<g id="edge23" class="edge">
<title>Node920&#45;&gt;Node925</title>
<path fill="none" stroke="#191970" d="M586.8569,-272.4317C614.9446,-263.1184 658.3463,-248.7273 693.0333,-237.2258"/>
<polygon fill="#191970" stroke="#191970" points="694.1755,-240.5345 702.5657,-234.065 691.9723,-233.8903 694.1755,-240.5345"/>
</g>
<!-- Node928 -->
<g id="node23" class="node">
<title>Node928</title>
<g id="a_node23"><a xlink:href="../../d9/d7c/_compiler_2boot_2build_2util_8c.html#ad68c3faf9201d411f2989d49f79a146a" target="_top" xlink:title="omc_Util_assoc">
<polygon fill="#ffffff" stroke="#000000" points="704.5,-253.5 704.5,-272.5 791.5,-272.5 791.5,-253.5 704.5,-253.5"/>
<text text-anchor="middle" x="748" y="-260.5" font-family="Helvetica,sans-Serif" font-size="10.00" fill="#000000">omc_Util_assoc</text>
</a>
</g>
</g>
<!-- Node920&#45;&gt;Node928 -->
<g id="edge27" class="edge">
<title>Node920&#45;&gt;Node928</title>
<path fill="none" stroke="#191970" d="M637.2013,-274.0799C656.438,-272.1562 676.564,-270.1436 694.3039,-268.3696"/>
<polygon fill="#191970" stroke="#191970" points="694.8463,-271.8329 704.4483,-267.3552 694.1497,-264.8677 694.8463,-271.8329"/>
</g>
<!-- Node930 -->
<g id="node25" class="node">
<title>Node930</title>
<g id="a_node25"><a xlink:href="../../d3/db3/_flags_8c.html#add52ff282ca5df852c1905fabb4571c9" target="_top" xlink:title="omc_Flags_getConfigEnum">
<polygon fill="#ffffff" stroke="#000000" points="679.5,-291.5 679.5,-310.5 816.5,-310.5 816.5,-291.5 679.5,-291.5"/>
<text text-anchor="middle" x="748" y="-298.5" font-family="Helvetica,sans-Serif" font-size="10.00" fill="#000000">omc_Flags_getConfigEnum</text>
</a>
</g>
</g>
<!-- Node920&#45;&gt;Node930 -->
<g id="edge29" class="edge">
<title>Node920&#45;&gt;Node930</title>
<path fill="none" stroke="#191970" d="M637.2013,-289.9201C647.7727,-290.9773 658.6126,-292.0613 669.1775,-293.1177"/>
<polygon fill="#191970" stroke="#191970" points="668.906,-296.608 679.2047,-294.1205 669.6026,-289.6427 668.906,-296.608"/>
</g>
<!-- Node922 -->
<g id="node17" class="node">
<title>Node922</title>
<g id="a_node17"><a xlink:href="../../d3/db3/_flags_8c.html#a760d66f53b65ac257876ca0f6308f09f" target="_top" xlink:title="omc_Flags_loadFlags">
<polygon fill="#ffffff" stroke="#000000" points="1047.5,-328.5 1047.5,-347.5 1159.5,-347.5 1159.5,-328.5 1047.5,-328.5"/>
<text text-anchor="middle" x="1103.5" y="-335.5" font-family="Helvetica,sans-Serif" font-size="10.00" fill="#000000">omc_Flags_loadFlags</text>
</a>
</g>
</g>
<!-- Node921&#45;&gt;Node922 -->
<g id="edge20" class="edge">
<title>Node921&#45;&gt;Node922</title>
<path fill="none" stroke="#191970" d="M973.7419,-359.3806C993.1729,-356.1789 1016.1399,-352.3946 1037.3096,-348.9064"/>
<polygon fill="#191970" stroke="#191970" points="1037.9134,-352.3542 1047.2113,-347.2748 1036.7752,-345.4473 1037.9134,-352.3542"/>
</g>
<!-- Node923 -->
<g id="node18" class="node">
<title>Node923</title>
<g id="a_node18"><a xlink:href="../../da/d72/_compiler_2boot_2build_2list_8c.html#a3ec1ee3a5ff53be9af368e290be09182" target="_top" xlink:title="omc_List_fold">
<polygon fill="#ffffff" stroke="#000000" points="1243,-328.5 1243,-347.5 1320,-347.5 1320,-328.5 1243,-328.5"/>
<text text-anchor="middle" x="1281.5" y="-335.5" font-family="Helvetica,sans-Serif" font-size="10.00" fill="#000000">omc_List_fold</text>
</a>
</g>
</g>
<!-- Node922&#45;&gt;Node923 -->
<g id="edge21" class="edge">
<title>Node922&#45;&gt;Node923</title>
<path fill="none" stroke="#191970" d="M1159.8203,-338C1183.3148,-338 1210.3376,-338 1232.9407,-338"/>
<polygon fill="#191970" stroke="#191970" points="1232.9863,-341.5001 1242.9863,-338 1232.9862,-334.5001 1232.9863,-341.5001"/>
</g>
<!-- Node926 -->
<g id="node21" class="node">
<title>Node926</title>
<g id="a_node21"><a xlink:href="../../d4/d4a/_settings_8h.html#aa560265d614bc84fcd9a24b5e7911902" target="_top" xlink:title="Settings_getInstallation\lDirectoryPath">
<polygon fill="#ffffff" stroke="#000000" points="868,-204 868,-234 987,-234 987,-204 868,-204"/>
<text text-anchor="start" x="876" y="-222" font-family="Helvetica,sans-Serif" font-size="10.00" fill="#000000">Settings_getInstallation</text>
<text text-anchor="middle" x="927.5" y="-211" font-family="Helvetica,sans-Serif" font-size="10.00" fill="#000000">DirectoryPath</text>
</a>
</g>
</g>
<!-- Node925&#45;&gt;Node926 -->
<g id="edge24" class="edge">
<title>Node925&#45;&gt;Node926</title>
<path fill="none" stroke="#191970" d="M819.717,-219C832.1524,-219 845.0695,-219 857.4594,-219"/>
<polygon fill="#191970" stroke="#191970" points="857.7209,-222.5001 867.7208,-219 857.7208,-215.5001 857.7209,-222.5001"/>
</g>
<!-- Node927 -->
<g id="node22" class="node">
<title>Node927</title>
<g id="a_node22"><a xlink:href="../../d9/d08/settingsimpl_8c.html#add138f2c89e6604d53c1adf2d64fe2e3" target="_top" xlink:title="SettingsImpl__getInstallation\lDirectoryPath">
<polygon fill="#ffffff" stroke="#000000" points="1032,-204 1032,-234 1175,-234 1175,-204 1032,-204"/>
<text text-anchor="start" x="1040" y="-222" font-family="Helvetica,sans-Serif" font-size="10.00" fill="#000000">SettingsImpl__getInstallation</text>
<text text-anchor="middle" x="1103.5" y="-211" font-family="Helvetica,sans-Serif" font-size="10.00" fill="#000000">DirectoryPath</text>
</a>
</g>
</g>
<!-- Node926&#45;&gt;Node927 -->
<g id="edge25" class="edge">
<title>Node926&#45;&gt;Node927</title>
<path fill="none" stroke="#191970" d="M987.0856,-219C998.1924,-219 1009.9757,-219 1021.6156,-219"/>
<polygon fill="#191970" stroke="#191970" points="1021.7872,-222.5001 1031.7872,-219 1021.7871,-215.5001 1021.7872,-222.5001"/>
</g>
<!-- Node927&#45;&gt;Node927 -->
<g id="edge26" class="edge">
<title>Node927&#45;&gt;Node927</title>
<path fill="none" stroke="#191970" d="M1072.8284,-234.159C1065.4324,-243.5566 1075.6563,-252.5 1103.5,-252.5 1120.4673,-252.5 1130.8916,-249.179 1134.7731,-244.4579"/>
<polygon fill="#191970" stroke="#191970" points="1138.2488,-243.9379 1134.1716,-234.159 1131.2607,-244.3461 1138.2488,-243.9379"/>
</g>
<!-- Node929 -->
<g id="node24" class="node">
<title>Node929</title>
<g id="a_node24"><a xlink:href="../../dc/dd0/build_2include_2omc_2c_2meta_2meta__modelica_8h.html#a053b78d26cb7fe728aa97ab1a575f7ad" target="_top" xlink:title="valueEq">
<polygon fill="#ffffff" stroke="#000000" points="901.5,-253.5 901.5,-272.5 953.5,-272.5 953.5,-253.5 901.5,-253.5"/>
<text text-anchor="middle" x="927.5" y="-260.5" font-family="Helvetica,sans-Serif" font-size="10.00" fill="#000000">valueEq</text>
</a>
</g>
</g>
<!-- Node928&#45;&gt;Node929 -->
<g id="edge28" class="edge">
<title>Node928&#45;&gt;Node929</title>
<path fill="none" stroke="#191970" d="M791.9106,-263C822.4153,-263 862.5774,-263 891.2578,-263"/>
<polygon fill="#191970" stroke="#191970" points="891.2656,-266.5001 901.2656,-263 891.2655,-259.5001 891.2656,-266.5001"/>
</g>
<!-- Node931 -->
<g id="node26" class="node">
<title>Node931</title>
<g id="a_node26"><a xlink:href="../../d3/db3/_flags_8c.html#a96ba70d54b6662cf90933a207c0c6b8e" target="_top" xlink:title="omc_Flags_getConfigValue">
<polygon fill="#ffffff" stroke="#000000" points="859,-300.5 859,-319.5 996,-319.5 996,-300.5 859,-300.5"/>
<text text-anchor="middle" x="927.5" y="-307.5" font-family="Helvetica,sans-Serif" font-size="10.00" fill="#000000">omc_Flags_getConfigValue</text>
</a>
</g>
</g>
<!-- Node930&#45;&gt;Node931 -->
<g id="edge30" class="edge">
<title>Node930&#45;&gt;Node931</title>
<path fill="none" stroke="#191970" d="M816.6296,-304.441C827.1299,-304.9675 838.0391,-305.5145 848.7369,-306.0509"/>
<polygon fill="#191970" stroke="#191970" points="848.7457,-309.5556 858.9085,-306.5609 849.0963,-302.5644 848.7457,-309.5556"/>
</g>
<!-- Node931&#45;&gt;Node922 -->
<g id="edge31" class="edge">
<title>Node931&#45;&gt;Node922</title>
<path fill="none" stroke="#191970" d="M987.577,-319.5577C1003.5754,-322.1029 1020.9475,-324.8666 1037.2559,-327.4612"/>
<polygon fill="#191970" stroke="#191970" points="1036.8253,-330.9366 1047.251,-329.0513 1037.9251,-324.0235 1036.8253,-330.9366"/>
</g>
</g>
</svg>
