<?xml version="1.0" encoding="UTF-8" standalone="no"?>
<!DOCTYPE svg PUBLIC "-//W3C//DTD SVG 1.1//EN"
 "http://www.w3.org/Graphics/SVG/1.1/DTD/svg11.dtd">
<!-- Generated by graphviz version 2.40.1 (20161225.0304)
 -->
<!-- Title: Change2FNumberingOrder Pages: 1 -->
<svg width="342pt" height="28pt"
 viewBox="0.00 0.00 342.00 28.00" xmlns="http://www.w3.org/2000/svg" xmlns:xlink="http://www.w3.org/1999/xlink">
<g id="graph0" class="graph" transform="scale(1 1) rotate(0) translate(4 24)">
<title>Change2FNumberingOrder</title>
<polygon fill="#ffffff" stroke="transparent" points="-4,4 -4,-24 338,-24 338,4 -4,4"/>
<!-- Node57 -->
<g id="node1" class="node">
<title>Node57</title>
<polygon fill="#bfbfbf" stroke="#000000" points="0,-.5 0,-19.5 133,-19.5 133,-.5 0,-.5"/>
<text text-anchor="middle" x="66.5" y="-7.5" font-family="Helvetica,sans-Serif" font-size="10.00" fill="#000000">Change2FNumberingOrder</text>
</g>
<!-- Node58 -->
<g id="node2" class="node">
<title>Node58</title>
<g id="a_node2"><a xlink:href="../../d2/d99/ometis_8c.html#a8304f0dd6d180587f73b0b70de3b01b7" target="_top" xlink:title="METIS_NodeND">
<polygon fill="#ffffff" stroke="#000000" points="169,-.5 169,-19.5 260,-19.5 260,-.5 169,-.5"/>
<text text-anchor="middle" x="214.5" y="-7.5" font-family="Helvetica,sans-Serif" font-size="10.00" fill="#000000">METIS_NodeND</text>
</a>
</g>
</g>
<!-- Node57&#45;&gt;Node58 -->
<g id="edge1" class="edge">
<title>Node57&#45;&gt;Node58</title>
<path fill="none" stroke="#191970" d="M143.4019,-10C152.1476,-10 160.8391,-10 168.9869,-10"/>
<polygon fill="#191970" stroke="#191970" points="143.1398,-6.5001 133.1397,-10 143.1397,-13.5001 143.1398,-6.5001"/>
</g>
<!-- Node59 -->
<g id="node3" class="node">
<title>Node59</title>
<g id="a_node3"><a xlink:href="../../d3/d51/ndmetis_8c.html#a0ddf1224851353fc92bfbff6f499fa97" target="_top" xlink:title="main">
<polygon fill="#ffffff" stroke="#000000" points="296,-.5 296,-19.5 334,-19.5 334,-.5 296,-.5"/>
<text text-anchor="middle" x="315" y="-7.5" font-family="Helvetica,sans-Serif" font-size="10.00" fill="#000000">main</text>
</a>
</g>
</g>
<!-- Node58&#45;&gt;Node59 -->
<g id="edge2" class="edge">
<title>Node58&#45;&gt;Node59</title>
<path fill="none" stroke="#191970" d="M270.0848,-10C279.3044,-10 288.2817,-10 295.7563,-10"/>
<polygon fill="#191970" stroke="#191970" points="270.0452,-6.5001 260.0452,-10 270.0452,-13.5001 270.0452,-6.5001"/>
</g>
</g>
</svg>
