<?xml version="1.0" encoding="UTF-8" standalone="no"?>
<!DOCTYPE svg PUBLIC "-//W3C//DTD SVG 1.1//EN"
 "http://www.w3.org/Graphics/SVG/1.1/DTD/svg11.dtd">
<!-- Generated by graphviz version 2.40.1 (20161225.0304)
 -->
<!-- Title: omc_DAEQuery_getVariables Pages: 1 -->
<svg width="507pt" height="116pt"
 viewBox="0.00 0.00 507.00 115.50" xmlns="http://www.w3.org/2000/svg" xmlns:xlink="http://www.w3.org/1999/xlink">
<g id="graph0" class="graph" transform="scale(1 1) rotate(0) translate(4 111.5)">
<title>omc_DAEQuery_getVariables</title>
<polygon fill="#ffffff" stroke="transparent" points="-4,4 -4,-111.5 503,-111.5 503,4 -4,4"/>
<!-- Node47 -->
<g id="node1" class="node">
<title>Node47</title>
<polygon fill="#bfbfbf" stroke="#000000" points="0,-38.5 0,-57.5 147,-57.5 147,-38.5 0,-38.5"/>
<text text-anchor="middle" x="73.5" y="-45.5" font-family="Helvetica,sans-Serif" font-size="10.00" fill="#000000">omc_DAEQuery_getVariables</text>
</g>
<!-- Node48 -->
<g id="node2" class="node">
<title>Node48</title>
<g id="a_node2"><a xlink:href="../../dd/db3/_backend_variable_8c.html#a51a1e83100b01afe350584face09be78" target="_top" xlink:title="omc_BackendVariable\l_varList">
<polygon fill="#ffffff" stroke="#000000" points="194.5,-77 194.5,-107 308.5,-107 308.5,-77 194.5,-77"/>
<text text-anchor="start" x="202.5" y="-95" font-family="Helvetica,sans-Serif" font-size="10.00" fill="#000000">omc_BackendVariable</text>
<text text-anchor="middle" x="251.5" y="-84" font-family="Helvetica,sans-Serif" font-size="10.00" fill="#000000">_varList</text>
</a>
</g>
</g>
<!-- Node47&#45;&gt;Node48 -->
<g id="edge1" class="edge">
<title>Node47&#45;&gt;Node48</title>
<path fill="none" stroke="#191970" d="M112.1233,-57.5473C133.2421,-62.7677 160.0035,-69.3829 184.4183,-75.418"/>
<polygon fill="#191970" stroke="#191970" points="183.8074,-78.8723 194.3552,-77.8743 185.4873,-72.0768 183.8074,-78.8723"/>
</g>
<!-- Node50 -->
<g id="node4" class="node">
<title>Node50</title>
<g id="a_node4"><a xlink:href="../../d3/d2a/_d_a_e_query_8c.html#abae0ca13c8b4ccec92f27c87598a98f6" target="_top" xlink:title="omc_DAEQuery_dumpVars">
<polygon fill="#ffffff" stroke="#000000" points="183,-38.5 183,-57.5 320,-57.5 320,-38.5 183,-38.5"/>
<text text-anchor="middle" x="251.5" y="-45.5" font-family="Helvetica,sans-Serif" font-size="10.00" fill="#000000">omc_DAEQuery_dumpVars</text>
</a>
</g>
</g>
<!-- Node47&#45;&gt;Node50 -->
<g id="edge3" class="edge">
<title>Node47&#45;&gt;Node50</title>
<path fill="none" stroke="#191970" d="M147.1843,-48C155.5478,-48 164.0973,-48 172.5254,-48"/>
<polygon fill="#191970" stroke="#191970" points="172.7249,-51.5001 182.7248,-48 172.7248,-44.5001 172.7249,-51.5001"/>
</g>
<!-- Node52 -->
<g id="node6" class="node">
<title>Node52</title>
<g id="a_node6"><a xlink:href="../../d7/deb/build_2include_2omc_2c_2util_2modelica__string_8c.html#a751007abc59e9ca7978f2af10a0c814f" target="_top" xlink:title="stringAppend">
<polygon fill="#ffffff" stroke="#000000" points="214.5,-.5 214.5,-19.5 288.5,-19.5 288.5,-.5 214.5,-.5"/>
<text text-anchor="middle" x="251.5" y="-7.5" font-family="Helvetica,sans-Serif" font-size="10.00" fill="#000000">stringAppend</text>
</a>
</g>
</g>
<!-- Node47&#45;&gt;Node52 -->
<g id="edge5" class="edge">
<title>Node47&#45;&gt;Node52</title>
<path fill="none" stroke="#191970" d="M118.4169,-38.411C144.7181,-32.7961 177.8908,-25.7143 204.5371,-20.0258"/>
<polygon fill="#191970" stroke="#191970" points="205.3532,-23.4305 214.402,-17.9198 203.8917,-16.5848 205.3532,-23.4305"/>
</g>
<!-- Node49 -->
<g id="node3" class="node">
<title>Node49</title>
<g id="a_node3"><a xlink:href="../../dd/db3/_backend_variable_8c.html#a02471a40fa5320d5f337733e05e97cef" target="_top" xlink:title="omc_BackendVariable\l_vararrayList">
<polygon fill="#ffffff" stroke="#000000" points="370.5,-77 370.5,-107 484.5,-107 484.5,-77 370.5,-77"/>
<text text-anchor="start" x="378.5" y="-95" font-family="Helvetica,sans-Serif" font-size="10.00" fill="#000000">omc_BackendVariable</text>
<text text-anchor="middle" x="427.5" y="-84" font-family="Helvetica,sans-Serif" font-size="10.00" fill="#000000">_vararrayList</text>
</a>
</g>
</g>
<!-- Node48&#45;&gt;Node49 -->
<g id="edge2" class="edge">
<title>Node48&#45;&gt;Node49</title>
<path fill="none" stroke="#191970" d="M308.6422,-92C325.017,-92 343.0241,-92 359.9607,-92"/>
<polygon fill="#191970" stroke="#191970" points="360.3436,-95.5001 370.3436,-92 360.3436,-88.5001 360.3436,-95.5001"/>
</g>
<!-- Node51 -->
<g id="node5" class="node">
<title>Node51</title>
<g id="a_node5"><a xlink:href="../../d3/d2a/_d_a_e_query_8c.html#ab94ec071136385921c0a95df2e064b7e" target="_top" xlink:title="omc_DAEQuery_dumpVars2">
<polygon fill="#ffffff" stroke="#000000" points="356,-38.5 356,-57.5 499,-57.5 499,-38.5 356,-38.5"/>
<text text-anchor="middle" x="427.5" y="-45.5" font-family="Helvetica,sans-Serif" font-size="10.00" fill="#000000">omc_DAEQuery_dumpVars2</text>
</a>
</g>
</g>
<!-- Node50&#45;&gt;Node51 -->
<g id="edge4" class="edge">
<title>Node50&#45;&gt;Node51</title>
<path fill="none" stroke="#191970" d="M320.0502,-48C328.5137,-48 337.2299,-48 345.864,-48"/>
<polygon fill="#191970" stroke="#191970" points="345.9419,-51.5001 355.9418,-48 345.9418,-44.5001 345.9419,-51.5001"/>
</g>
</g>
</svg>
