<?xml version="1.0" encoding="UTF-8" standalone="no"?>
<!DOCTYPE svg PUBLIC "-//W3C//DTD SVG 1.1//EN"
 "http://www.w3.org/Graphics/SVG/1.1/DTD/svg11.dtd">
<!-- Generated by graphviz version 2.40.1 (20161225.0304)
 -->
<!-- Title: omc_Expression_getLhsCrefsFromStatements Pages: 1 -->
<svg width="383pt" height="85pt"
 viewBox="0.00 0.00 383.00 85.00" xmlns="http://www.w3.org/2000/svg" xmlns:xlink="http://www.w3.org/1999/xlink">
<g id="graph0" class="graph" transform="scale(1 1) rotate(0) translate(4 81)">
<title>omc_Expression_getLhsCrefsFromStatements</title>
<polygon fill="#ffffff" stroke="transparent" points="-4,4 -4,-81 379,-81 379,4 -4,4"/>
<!-- Node15454 -->
<g id="node1" class="node">
<title>Node15454</title>
<polygon fill="#bfbfbf" stroke="#000000" points="0,-33 0,-63 148,-63 148,-33 0,-33"/>
<text text-anchor="start" x="8" y="-51" font-family="Helvetica,sans-Serif" font-size="10.00" fill="#000000">omc_Expression_getLhsCrefs</text>
<text text-anchor="middle" x="74" y="-40" font-family="Helvetica,sans-Serif" font-size="10.00" fill="#000000">FromStatements</text>
</g>
<!-- Node15455 -->
<g id="node2" class="node">
<title>Node15455</title>
<g id="a_node2"><a xlink:href="../../da/d72/_compiler_2boot_2build_2list_8c.html#a70628b2c3fb199a118f80777135940ee" target="_top" xlink:title="omc_List_map">
<polygon fill="#ffffff" stroke="#000000" points="188.5,-57.5 188.5,-76.5 268.5,-76.5 268.5,-57.5 188.5,-57.5"/>
<text text-anchor="middle" x="228.5" y="-64.5" font-family="Helvetica,sans-Serif" font-size="10.00" fill="#000000">omc_List_map</text>
</a>
</g>
</g>
<!-- Node15454&#45;&gt;Node15455 -->
<g id="edge1" class="edge">
<title>Node15454&#45;&gt;Node15455</title>
<path fill="none" stroke="#191970" d="M148.0823,-57.1104C158.3195,-58.3694 168.631,-59.6375 178.296,-60.826"/>
<polygon fill="#191970" stroke="#191970" points="178.1433,-64.3336 188.4958,-62.0804 178.9978,-57.3859 178.1433,-64.3336"/>
</g>
<!-- Node15456 -->
<g id="node3" class="node">
<title>Node15456</title>
<g id="a_node3"><a xlink:href="../../da/d72/_compiler_2boot_2build_2list_8c.html#a65a694e3889f2f5d8af963dcfbbaf1cf" target="_top" xlink:title="omc_List_flatten">
<polygon fill="#ffffff" stroke="#000000" points="184,-19.5 184,-38.5 273,-38.5 273,-19.5 184,-19.5"/>
<text text-anchor="middle" x="228.5" y="-26.5" font-family="Helvetica,sans-Serif" font-size="10.00" fill="#000000">omc_List_flatten</text>
</a>
</g>
</g>
<!-- Node15454&#45;&gt;Node15456 -->
<g id="edge2" class="edge">
<title>Node15454&#45;&gt;Node15456</title>
<path fill="none" stroke="#191970" d="M148.0823,-38.8896C156.7815,-37.8198 165.5343,-36.7434 173.8986,-35.7147"/>
<polygon fill="#191970" stroke="#191970" points="174.3806,-39.1819 183.8786,-34.4874 173.5262,-32.2343 174.3806,-39.1819"/>
</g>
<!-- Node15457 -->
<g id="node4" class="node">
<title>Node15457</title>
<g id="a_node4"><a xlink:href="../../d2/d57/build_2include_2omc_2c_2meta_2meta__modelica__builtin_8h.html#a81001ba45c298ade27540edd2589777c" target="_top" xlink:title="listReverse">
<polygon fill="#ffffff" stroke="#000000" points="309,-38.5 309,-57.5 375,-57.5 375,-38.5 309,-38.5"/>
<text text-anchor="middle" x="342" y="-45.5" font-family="Helvetica,sans-Serif" font-size="10.00" fill="#000000">listReverse</text>
</a>
</g>
</g>
<!-- Node15456&#45;&gt;Node15457 -->
<g id="edge3" class="edge">
<title>Node15456&#45;&gt;Node15457</title>
<path fill="none" stroke="#191970" d="M273.0324,-36.4548C281.5098,-37.8739 290.3689,-39.3569 298.8038,-40.7689"/>
<polygon fill="#191970" stroke="#191970" points="298.3871,-44.2478 308.8278,-42.4469 299.5429,-37.3439 298.3871,-44.2478"/>
</g>
<!-- Node15458 -->
<g id="node5" class="node">
<title>Node15458</title>
<g id="a_node5"><a xlink:href="../../d2/d57/build_2include_2omc_2c_2meta_2meta__modelica__builtin_8h.html#a56b7e8a835b2d388f5984ca7378bc1ec" target="_top" xlink:title="listAppend">
<polygon fill="#ffffff" stroke="#000000" points="311,-.5 311,-19.5 373,-19.5 373,-.5 311,-.5"/>
<text text-anchor="middle" x="342" y="-7.5" font-family="Helvetica,sans-Serif" font-size="10.00" fill="#000000">listAppend</text>
</a>
</g>
</g>
<!-- Node15456&#45;&gt;Node15458 -->
<g id="edge4" class="edge">
<title>Node15456&#45;&gt;Node15458</title>
<path fill="none" stroke="#191970" d="M273.0324,-21.5452C282.2375,-20.0043 291.8929,-18.388 300.9663,-16.8691"/>
<polygon fill="#191970" stroke="#191970" points="301.6234,-20.3079 310.9082,-15.2048 300.4676,-13.4039 301.6234,-20.3079"/>
</g>
</g>
</svg>
