<?xml version="1.0" encoding="UTF-8" standalone="no"?>
<!DOCTYPE svg PUBLIC "-//W3C//DTD SVG 1.1//EN"
 "http://www.w3.org/Graphics/SVG/1.1/DTD/svg11.dtd">
<!-- Generated by graphviz version 2.40.1 (20161225.0304)
 -->
<!-- Title: omc_Expression_expStructuralEqualListLst Pages: 1 -->
<svg width="751pt" height="169pt"
 viewBox="0.00 0.00 751.00 169.00" xmlns="http://www.w3.org/2000/svg" xmlns:xlink="http://www.w3.org/1999/xlink">
<g id="graph0" class="graph" transform="scale(1 1) rotate(0) translate(4 165)">
<title>omc_Expression_expStructuralEqualListLst</title>
<polygon fill="#ffffff" stroke="transparent" points="-4,4 -4,-165 747,-165 747,4 -4,4"/>
<!-- Node14156 -->
<g id="node1" class="node">
<title>Node14156</title>
<polygon fill="#bfbfbf" stroke="#000000" points="0,-86.5 0,-116.5 152,-116.5 152,-86.5 0,-86.5"/>
<text text-anchor="start" x="8" y="-104.5" font-family="Helvetica,sans-Serif" font-size="10.00" fill="#000000">omc_Expression_expStructural</text>
<text text-anchor="middle" x="76" y="-93.5" font-family="Helvetica,sans-Serif" font-size="10.00" fill="#000000">EqualListLst</text>
</g>
<!-- Node14157 -->
<g id="node2" class="node">
<title>Node14157</title>
<g id="a_node2"><a xlink:href="../../d1/d08/_expression_8c.html#ad48c449146a40f67414b7daa8130f48b" target="_top" xlink:title="boxptr_Expression_expStructural\lEqualListLst">
<polygon fill="#ffffff" stroke="#000000" points="188,-130.5 188,-160.5 349,-160.5 349,-130.5 188,-130.5"/>
<text text-anchor="start" x="196" y="-148.5" font-family="Helvetica,sans-Serif" font-size="10.00" fill="#000000">boxptr_Expression_expStructural</text>
<text text-anchor="middle" x="268.5" y="-137.5" font-family="Helvetica,sans-Serif" font-size="10.00" fill="#000000">EqualListLst</text>
</a>
</g>
</g>
<!-- Node14156&#45;&gt;Node14157 -->
<g id="edge1" class="edge">
<title>Node14156&#45;&gt;Node14157</title>
<path fill="none" stroke="#191970" d="M151.5494,-118.7684C168.4664,-122.6352 186.279,-126.7066 202.7604,-130.4738"/>
<polygon fill="#191970" stroke="#191970" points="152.2377,-115.3356 141.7092,-116.5192 150.6778,-122.1596 152.2377,-115.3356"/>
</g>
<!-- Node14158 -->
<g id="node3" class="node">
<title>Node14158</title>
<g id="a_node3"><a xlink:href="../../d6/d99/_expression_8h.html#aaec4489fc588c0d3fdd77c07bad746b4" target="_top" xlink:title="omc_Expression_expStructural\lEqual">
<polygon fill="#ffffff" stroke="#000000" points="192.5,-24.5 192.5,-54.5 344.5,-54.5 344.5,-24.5 192.5,-24.5"/>
<text text-anchor="start" x="200.5" y="-42.5" font-family="Helvetica,sans-Serif" font-size="10.00" fill="#000000">omc_Expression_expStructural</text>
<text text-anchor="middle" x="268.5" y="-31.5" font-family="Helvetica,sans-Serif" font-size="10.00" fill="#000000">Equal</text>
</a>
</g>
</g>
<!-- Node14156&#45;&gt;Node14158 -->
<g id="edge2" class="edge">
<title>Node14156&#45;&gt;Node14158</title>
<path fill="none" stroke="#191970" d="M132.3805,-83.3411C160.7558,-74.202 194.7466,-63.2544 221.663,-54.5851"/>
<polygon fill="#191970" stroke="#191970" points="131.0444,-80.0943 122.5989,-86.4915 133.1904,-86.7572 131.0444,-80.0943"/>
</g>
<!-- Node14158&#45;&gt;Node14158 -->
<g id="edge7" class="edge">
<title>Node14158&#45;&gt;Node14158</title>
<path fill="none" stroke="#191970" d="M234.3839,-64.9579C238.6182,-69.679 249.9902,-73 268.5,-73 298.875,-73 310.0283,-64.0566 301.96,-54.659"/>
<polygon fill="#191970" stroke="#191970" points="237.8971,-64.8613 235.04,-54.659 230.9112,-64.4162 237.8971,-64.8613"/>
</g>
<!-- Node14159 -->
<g id="node4" class="node">
<title>Node14159</title>
<g id="a_node4"><a xlink:href="../../d6/d99/_expression_8h.html#a1e59a748f2cac7fd57b7d46f3febc2d7" target="_top" xlink:title="omc_Expression_expStructural\lEqualList">
<polygon fill="#ffffff" stroke="#000000" points="389.5,-49.5 389.5,-79.5 541.5,-79.5 541.5,-49.5 389.5,-49.5"/>
<text text-anchor="start" x="397.5" y="-67.5" font-family="Helvetica,sans-Serif" font-size="10.00" fill="#000000">omc_Expression_expStructural</text>
<text text-anchor="middle" x="465.5" y="-56.5" font-family="Helvetica,sans-Serif" font-size="10.00" fill="#000000">EqualList</text>
</a>
</g>
</g>
<!-- Node14158&#45;&gt;Node14159 -->
<g id="edge3" class="edge">
<title>Node14158&#45;&gt;Node14159</title>
<path fill="none" stroke="#191970" d="M354.6212,-43.7267C369.1083,-45.4532 383.9585,-47.4232 397.8911,-49.4743"/>
<polygon fill="#191970" stroke="#191970" points="355.0019,-40.2475 344.6653,-42.5723 354.1956,-47.2009 355.0019,-40.2475"/>
</g>
<!-- Node14161 -->
<g id="node6" class="node">
<title>Node14161</title>
<g id="a_node6"><a xlink:href="../../d6/d99/_expression_8h.html#a1c8c4d439ed69b6b62a80e38812ffc44" target="_top" xlink:title="boxptr_Expression_expStructural\lEqual">
<polygon fill="#ffffff" stroke="#000000" points="385,-.5 385,-30.5 546,-30.5 546,-.5 385,-.5"/>
<text text-anchor="start" x="393" y="-18.5" font-family="Helvetica,sans-Serif" font-size="10.00" fill="#000000">boxptr_Expression_expStructural</text>
<text text-anchor="middle" x="465.5" y="-7.5" font-family="Helvetica,sans-Serif" font-size="10.00" fill="#000000">Equal</text>
</a>
</g>
</g>
<!-- Node14158&#45;&gt;Node14161 -->
<g id="edge8" class="edge">
<title>Node14158&#45;&gt;Node14161</title>
<path fill="none" stroke="#191970" d="M354.6625,-29.0031C364.7338,-27.7761 374.9799,-26.5278 384.9707,-25.3107"/>
<polygon fill="#191970" stroke="#191970" points="354.1687,-25.5372 344.6653,-30.221 355.0152,-32.4859 354.1687,-25.5372"/>
</g>
<!-- Node14159&#45;&gt;Node14156 -->
<g id="edge4" class="edge">
<title>Node14159&#45;&gt;Node14156</title>
<path fill="none" stroke="#191970" d="M379.3232,-78.643C369.1194,-80.0722 358.8389,-81.3995 349,-82.5 282.6615,-89.9201 206.9089,-94.9186 152.0576,-97.9184"/>
<polygon fill="#191970" stroke="#191970" points="380.0811,-82.0702 389.4822,-77.1846 379.0863,-75.1412 380.0811,-82.0702"/>
</g>
<!-- Node14159&#45;&gt;Node14158 -->
<g id="edge6" class="edge">
<title>Node14159&#45;&gt;Node14158</title>
<path fill="none" stroke="#191970" d="M379.3116,-60.2653C364.8151,-58.5371 349.9573,-56.5653 336.0206,-54.5127"/>
<polygon fill="#191970" stroke="#191970" points="378.9374,-63.7453 389.2741,-61.4209 379.744,-56.7919 378.9374,-63.7453"/>
</g>
<!-- Node14160 -->
<g id="node5" class="node">
<title>Node14160</title>
<g id="a_node5"><a xlink:href="../../d6/d99/_expression_8h.html#a523407fc4923dead6642cc1558d37828" target="_top" xlink:title="boxptr_Expression_expStructural\lEqualList">
<polygon fill="#ffffff" stroke="#000000" points="582,-49.5 582,-79.5 743,-79.5 743,-49.5 582,-49.5"/>
<text text-anchor="start" x="590" y="-67.5" font-family="Helvetica,sans-Serif" font-size="10.00" fill="#000000">boxptr_Expression_expStructural</text>
<text text-anchor="middle" x="662.5" y="-56.5" font-family="Helvetica,sans-Serif" font-size="10.00" fill="#000000">EqualList</text>
</a>
</g>
</g>
<!-- Node14159&#45;&gt;Node14160 -->
<g id="edge5" class="edge">
<title>Node14159&#45;&gt;Node14160</title>
<path fill="none" stroke="#191970" d="M551.9772,-64.5C561.9472,-64.5 572.084,-64.5 581.9707,-64.5"/>
<polygon fill="#191970" stroke="#191970" points="551.6654,-61.0001 541.6653,-64.5 551.6653,-68.0001 551.6654,-61.0001"/>
</g>
</g>
</svg>
