<?xml version="1.0" encoding="UTF-8" standalone="no"?>
<!DOCTYPE svg PUBLIC "-//W3C//DTD SVG 1.1//EN"
 "http://www.w3.org/Graphics/SVG/1.1/DTD/svg11.dtd">
<!-- Generated by graphviz version 2.40.1 (20161225.0304)
 -->
<!-- Title: omc_Expression_expandFactorsWork3 Pages: 1 -->
<svg width="1343pt" height="194pt"
 viewBox="0.00 0.00 1343.00 194.00" xmlns="http://www.w3.org/2000/svg" xmlns:xlink="http://www.w3.org/1999/xlink">
<g id="graph0" class="graph" transform="scale(1 1) rotate(0) translate(4 190)">
<title>omc_Expression_expandFactorsWork3</title>
<polygon fill="#ffffff" stroke="transparent" points="-4,4 -4,-190 1339,-190 1339,4 -4,4"/>
<!-- Node12078 -->
<g id="node1" class="node">
<title>Node12078</title>
<polygon fill="#bfbfbf" stroke="#000000" points="0,-104 0,-134 159,-134 159,-104 0,-104"/>
<text text-anchor="start" x="8" y="-122" font-family="Helvetica,sans-Serif" font-size="10.00" fill="#000000">omc_Expression_expandFactors</text>
<text text-anchor="middle" x="79.5" y="-111" font-family="Helvetica,sans-Serif" font-size="10.00" fill="#000000">Work3</text>
</g>
<!-- Node12079 -->
<g id="node2" class="node">
<title>Node12079</title>
<g id="a_node2"><a xlink:href="../../d1/d08/_expression_8c.html#a99136d8765932048ec8a229fe0a6a990" target="_top" xlink:title="omc_Expression_factorsWork">
<polygon fill="#ffffff" stroke="#000000" points="212,-128.5 212,-147.5 360,-147.5 360,-128.5 212,-128.5"/>
<text text-anchor="middle" x="286" y="-135.5" font-family="Helvetica,sans-Serif" font-size="10.00" fill="#000000">omc_Expression_factorsWork</text>
</a>
</g>
</g>
<!-- Node12078&#45;&gt;Node12079 -->
<g id="edge1" class="edge">
<title>Node12078&#45;&gt;Node12079</title>
<path fill="none" stroke="#191970" d="M159.0429,-126.3187C173.0311,-127.6058 187.633,-128.9493 201.7446,-130.2477"/>
<polygon fill="#191970" stroke="#191970" points="201.639,-133.7527 211.9176,-131.1837 202.2804,-126.7821 201.639,-133.7527"/>
</g>
<!-- Node12080 -->
<g id="node3" class="node">
<title>Node12080</title>
<g id="a_node3"><a xlink:href="../../d1/d08/_expression_8c.html#ab6c48b6e78ab8a66020834b752f78b42" target="_top" xlink:title="omc_Expression_expandFactorsWork">
<polygon fill="#ffffff" stroke="#000000" points="195,-90.5 195,-109.5 377,-109.5 377,-90.5 195,-90.5"/>
<text text-anchor="middle" x="286" y="-97.5" font-family="Helvetica,sans-Serif" font-size="10.00" fill="#000000">omc_Expression_expandFactorsWork</text>
</a>
</g>
</g>
<!-- Node12078&#45;&gt;Node12080 -->
<g id="edge2" class="edge">
<title>Node12078&#45;&gt;Node12080</title>
<path fill="none" stroke="#191970" d="M159.0429,-111.6813C167.4541,-110.9074 176.0872,-110.113 184.7022,-109.3204"/>
<polygon fill="#191970" stroke="#191970" points="185.1555,-112.7936 194.7927,-108.392 184.514,-105.823 185.1555,-112.7936"/>
</g>
<!-- Node12081 -->
<g id="node4" class="node">
<title>Node12081</title>
<g id="a_node4"><a xlink:href="../../d1/d08/_expression_8c.html#a858225d1261a885f5dce4051227856bb" target="_top" xlink:title="omc_Expression_expPowLst">
<polygon fill="#ffffff" stroke="#000000" points="413,-166.5 413,-185.5 556,-185.5 556,-166.5 413,-166.5"/>
<text text-anchor="middle" x="484.5" y="-173.5" font-family="Helvetica,sans-Serif" font-size="10.00" fill="#000000">omc_Expression_expPowLst</text>
</a>
</g>
</g>
<!-- Node12080&#45;&gt;Node12081 -->
<g id="edge3" class="edge">
<title>Node12080&#45;&gt;Node12081</title>
<path fill="none" stroke="#191970" d="M354.7301,-109.6175C362.499,-112.0703 370.0947,-115.1454 377,-119 397.3138,-130.3394 392.9991,-145.1173 413,-157 416.6646,-159.1772 420.5808,-161.1092 424.6216,-162.823"/>
<polygon fill="#191970" stroke="#191970" points="423.6249,-166.1876 434.2168,-166.4386 426.0932,-159.6372 423.6249,-166.1876"/>
</g>
<!-- Node12083 -->
<g id="node6" class="node">
<title>Node12083</title>
<g id="a_node6"><a xlink:href="../../d2/d57/build_2include_2omc_2c_2meta_2meta__modelica__builtin_8h.html#a56b7e8a835b2d388f5984ca7378bc1ec" target="_top" xlink:title="listAppend">
<polygon fill="#ffffff" stroke="#000000" points="453.5,-128.5 453.5,-147.5 515.5,-147.5 515.5,-128.5 453.5,-128.5"/>
<text text-anchor="middle" x="484.5" y="-135.5" font-family="Helvetica,sans-Serif" font-size="10.00" fill="#000000">listAppend</text>
</a>
</g>
</g>
<!-- Node12080&#45;&gt;Node12083 -->
<g id="edge5" class="edge">
<title>Node12080&#45;&gt;Node12083</title>
<path fill="none" stroke="#191970" d="M335.8337,-109.54C368.9542,-115.8804 411.9318,-124.1078 443.1533,-130.0848"/>
<polygon fill="#191970" stroke="#191970" points="442.7799,-133.5768 453.2596,-132.0195 444.0961,-126.7016 442.7799,-133.5768"/>
</g>
<!-- Node12084 -->
<g id="node7" class="node">
<title>Node12084</title>
<g id="a_node7"><a xlink:href="../../d1/d08/_expression_8c.html#ac0a088414e8c45a0201c4962d09434c8" target="_top" xlink:title="omc_Expression_negate">
<polygon fill="#ffffff" stroke="#000000" points="422.5,-90.5 422.5,-109.5 546.5,-109.5 546.5,-90.5 422.5,-90.5"/>
<text text-anchor="middle" x="484.5" y="-97.5" font-family="Helvetica,sans-Serif" font-size="10.00" fill="#000000">omc_Expression_negate</text>
</a>
</g>
</g>
<!-- Node12080&#45;&gt;Node12084 -->
<g id="edge6" class="edge">
<title>Node12080&#45;&gt;Node12084</title>
<path fill="none" stroke="#191970" d="M377.1165,-100C388.8212,-100 400.6778,-100 412.0293,-100"/>
<polygon fill="#191970" stroke="#191970" points="412.2933,-103.5001 422.2932,-100 412.2932,-96.5001 412.2933,-103.5001"/>
</g>
<!-- Node12088 -->
<g id="node11" class="node">
<title>Node12088</title>
<g id="a_node11"><a xlink:href="../../d1/d08/_expression_8c.html#a86ff87e9d52467d2a652e29256f6a679" target="_top" xlink:title="omc_Expression_expMul">
<polygon fill="#ffffff" stroke="#000000" points="421.5,-52.5 421.5,-71.5 547.5,-71.5 547.5,-52.5 421.5,-52.5"/>
<text text-anchor="middle" x="484.5" y="-59.5" font-family="Helvetica,sans-Serif" font-size="10.00" fill="#000000">omc_Expression_expMul</text>
</a>
</g>
</g>
<!-- Node12080&#45;&gt;Node12088 -->
<g id="edge10" class="edge">
<title>Node12080&#45;&gt;Node12088</title>
<path fill="none" stroke="#191970" d="M335.8337,-90.46C362.7339,-85.3104 396.1362,-78.916 424.4614,-73.4935"/>
<polygon fill="#191970" stroke="#191970" points="425.4822,-76.8618 434.6458,-71.5439 424.166,-69.9866 425.4822,-76.8618"/>
</g>
<!-- Node12089 -->
<g id="node12" class="node">
<title>Node12089</title>
<g id="a_node12"><a xlink:href="../../d1/d08/_expression_8c.html#ab00afcac3649e1679e0d79b7918956c8" target="_top" xlink:title="omc_Expression_isZero">
<polygon fill="#ffffff" stroke="#000000" points="602.5,-33.5 602.5,-52.5 724.5,-52.5 724.5,-33.5 602.5,-33.5"/>
<text text-anchor="middle" x="663.5" y="-40.5" font-family="Helvetica,sans-Serif" font-size="10.00" fill="#000000">omc_Expression_isZero</text>
</a>
</g>
</g>
<!-- Node12080&#45;&gt;Node12089 -->
<g id="edge18" class="edge">
<title>Node12080&#45;&gt;Node12089</title>
<path fill="none" stroke="#191970" d="M301.6864,-90.32C324.9566,-76.5879 370.4627,-52.1081 413,-43 472.3787,-30.2858 541.506,-31.441 592.0826,-35.1185"/>
<polygon fill="#191970" stroke="#191970" points="592.0209,-38.6242 602.2624,-35.9107 592.5641,-31.6453 592.0209,-38.6242"/>
</g>
<!-- Node12082 -->
<g id="node5" class="node">
<title>Node12082</title>
<g id="a_node5"><a xlink:href="../../da/d72/_compiler_2boot_2build_2list_8c.html#a8adbf51ce877b23370be11654c6de6de" target="_top" xlink:title="omc_List_map1">
<polygon fill="#ffffff" stroke="#000000" points="620.5,-166.5 620.5,-185.5 706.5,-185.5 706.5,-166.5 620.5,-166.5"/>
<text text-anchor="middle" x="663.5" y="-173.5" font-family="Helvetica,sans-Serif" font-size="10.00" fill="#000000">omc_List_map1</text>
</a>
</g>
</g>
<!-- Node12081&#45;&gt;Node12082 -->
<g id="edge4" class="edge">
<title>Node12081&#45;&gt;Node12082</title>
<path fill="none" stroke="#191970" d="M556.0172,-176C574.0812,-176 593.1645,-176 610.1574,-176"/>
<polygon fill="#191970" stroke="#191970" points="610.44,-179.5001 620.44,-176 610.44,-172.5001 610.44,-179.5001"/>
</g>
<!-- Node12085 -->
<g id="node8" class="node">
<title>Node12085</title>
<g id="a_node8"><a xlink:href="../../d1/d08/_expression_8c.html#abb569396f7e6c94642fb186c17aebe29" target="_top" xlink:title="omc_Expression_isMulOrDiv">
<polygon fill="#ffffff" stroke="#000000" points="592,-90.5 592,-109.5 735,-109.5 735,-90.5 592,-90.5"/>
<text text-anchor="middle" x="663.5" y="-97.5" font-family="Helvetica,sans-Serif" font-size="10.00" fill="#000000">omc_Expression_isMulOrDiv</text>
</a>
</g>
</g>
<!-- Node12084&#45;&gt;Node12085 -->
<g id="edge7" class="edge">
<title>Node12084&#45;&gt;Node12085</title>
<path fill="none" stroke="#191970" d="M546.6032,-100C557.9274,-100 569.8993,-100 581.6917,-100"/>
<polygon fill="#191970" stroke="#191970" points="581.9878,-103.5001 591.9878,-100 581.9878,-96.5001 581.9878,-103.5001"/>
</g>
<!-- Node12086 -->
<g id="node9" class="node">
<title>Node12086</title>
<g id="a_node9"><a xlink:href="../../d1/d08/_expression_8c.html#a6828937858de521d2be4a2811bc978f0" target="_top" xlink:title="omc_Expression_isMul">
<polygon fill="#ffffff" stroke="#000000" points="788,-123.5 788,-142.5 906,-142.5 906,-123.5 788,-123.5"/>
<text text-anchor="middle" x="847" y="-130.5" font-family="Helvetica,sans-Serif" font-size="10.00" fill="#000000">omc_Expression_isMul</text>
</a>
</g>
</g>
<!-- Node12085&#45;&gt;Node12086 -->
<g id="edge8" class="edge">
<title>Node12085&#45;&gt;Node12086</title>
<path fill="none" stroke="#191970" d="M716.5758,-109.545C737.6877,-113.3416 762.1434,-117.7397 784.134,-121.6944"/>
<polygon fill="#191970" stroke="#191970" points="783.5818,-125.1512 794.0435,-123.4765 784.8209,-118.2617 783.5818,-125.1512"/>
</g>
<!-- Node12087 -->
<g id="node10" class="node">
<title>Node12087</title>
<g id="a_node10"><a xlink:href="../../d1/d08/_expression_8c.html#a5f24d146c82cf1616874574a7dd2e0e1" target="_top" xlink:title="omc_Expression_isDiv">
<polygon fill="#ffffff" stroke="#000000" points="788.5,-85.5 788.5,-104.5 905.5,-104.5 905.5,-85.5 788.5,-85.5"/>
<text text-anchor="middle" x="847" y="-92.5" font-family="Helvetica,sans-Serif" font-size="10.00" fill="#000000">omc_Expression_isDiv</text>
</a>
</g>
</g>
<!-- Node12085&#45;&gt;Node12087 -->
<g id="edge9" class="edge">
<title>Node12085&#45;&gt;Node12087</title>
<path fill="none" stroke="#191970" d="M735.2343,-98.0454C749.3896,-97.6597 764.2131,-97.2558 778.2664,-96.8729"/>
<polygon fill="#191970" stroke="#191970" points="778.4418,-100.3695 788.3427,-96.5983 778.251,-93.3721 778.4418,-100.3695"/>
</g>
<!-- Node12088&#45;&gt;Node12089 -->
<g id="edge11" class="edge">
<title>Node12088&#45;&gt;Node12089</title>
<path fill="none" stroke="#191970" d="M547.6087,-55.3013C562.0841,-53.7648 577.571,-52.121 592.3592,-50.5513"/>
<polygon fill="#191970" stroke="#191970" points="592.8898,-54.0147 602.4644,-49.4786 592.1508,-47.0538 592.8898,-54.0147"/>
</g>
<!-- Node12090 -->
<g id="node13" class="node">
<title>Node12090</title>
<g id="a_node13"><a xlink:href="../../da/d72/_compiler_2boot_2build_2list_8c.html#a73ae5dcb374407869d5aad5c97b6452f" target="_top" xlink:title="omc_List_mapAllValueBool">
<polygon fill="#ffffff" stroke="#000000" points="959,-19.5 959,-38.5 1095,-38.5 1095,-19.5 959,-19.5"/>
<text text-anchor="middle" x="1027" y="-26.5" font-family="Helvetica,sans-Serif" font-size="10.00" fill="#000000">omc_List_mapAllValueBool</text>
</a>
</g>
</g>
<!-- Node12089&#45;&gt;Node12090 -->
<g id="edge12" class="edge">
<title>Node12089&#45;&gt;Node12090</title>
<path fill="none" stroke="#191970" d="M724.7518,-40.6409C786.4332,-38.2653 881.8144,-34.5917 948.898,-32.0081"/>
<polygon fill="#191970" stroke="#191970" points="949.1392,-35.5015 958.997,-31.6191 948.8697,-28.5066 949.1392,-35.5015"/>
</g>
<!-- Node12094 -->
<g id="node17" class="node">
<title>Node12094</title>
<g id="a_node17"><a xlink:href="../../da/d72/_compiler_2boot_2build_2list_8c.html#ababb55c76308341703bb582302a50855" target="_top" xlink:title="omc_List_mapListAllValueBool">
<polygon fill="#ffffff" stroke="#000000" points="771,-.5 771,-19.5 923,-19.5 923,-.5 771,-.5"/>
<text text-anchor="middle" x="847" y="-7.5" font-family="Helvetica,sans-Serif" font-size="10.00" fill="#000000">omc_List_mapListAllValueBool</text>
</a>
</g>
</g>
<!-- Node12089&#45;&gt;Node12094 -->
<g id="edge16" class="edge">
<title>Node12089&#45;&gt;Node12094</title>
<path fill="none" stroke="#191970" d="M716.5758,-33.455C737.6877,-29.6584 762.1434,-25.2603 784.134,-21.3056"/>
<polygon fill="#191970" stroke="#191970" points="784.8209,-24.7383 794.0435,-19.5235 783.5818,-17.8488 784.8209,-24.7383"/>
</g>
<!-- Node12091 -->
<g id="node14" class="node">
<title>Node12091</title>
<g id="a_node14"><a xlink:href="../../da/d72/_compiler_2boot_2build_2list_8c.html#a6907b8b0bf5d7da1b95ed78aa13581c9" target="_top" xlink:title="omc_List_mapAllValue">
<polygon fill="#ffffff" stroke="#000000" points="1131,-38.5 1131,-57.5 1247,-57.5 1247,-38.5 1131,-38.5"/>
<text text-anchor="middle" x="1189" y="-45.5" font-family="Helvetica,sans-Serif" font-size="10.00" fill="#000000">omc_List_mapAllValue</text>
</a>
</g>
</g>
<!-- Node12090&#45;&gt;Node12091 -->
<g id="edge13" class="edge">
<title>Node12090&#45;&gt;Node12091</title>
<path fill="none" stroke="#191970" d="M1095.2331,-37.0026C1103.6553,-37.9904 1112.2664,-39.0004 1120.6897,-39.9883"/>
<polygon fill="#191970" stroke="#191970" points="1120.5063,-43.4907 1130.8459,-41.1795 1121.3217,-36.5383 1120.5063,-43.4907"/>
</g>
<!-- Node12093 -->
<g id="node16" class="node">
<title>Node12093</title>
<g id="a_node16"><a xlink:href="../../d1/dd1/3rd_party_2gc_2include_2gc_8h.html#acacfa47efcc44a29f7bb7d98f2a000f8" target="_top" xlink:title="void">
<polygon fill="#ffffff" stroke="#000000" points="1171.5,-.5 1171.5,-19.5 1206.5,-19.5 1206.5,-.5 1171.5,-.5"/>
<text text-anchor="middle" x="1189" y="-7.5" font-family="Helvetica,sans-Serif" font-size="10.00" fill="#000000">void</text>
</a>
</g>
</g>
<!-- Node12090&#45;&gt;Node12093 -->
<g id="edge15" class="edge">
<title>Node12090&#45;&gt;Node12093</title>
<path fill="none" stroke="#191970" d="M1095.2331,-20.9974C1118.4,-18.2802 1142.9963,-15.3955 1161.1826,-13.2625"/>
<polygon fill="#191970" stroke="#191970" points="1161.8245,-16.7113 1171.3487,-12.0702 1161.0091,-9.759 1161.8245,-16.7113"/>
</g>
<!-- Node12092 -->
<g id="node15" class="node">
<title>Node12092</title>
<g id="a_node15"><a xlink:href="../../dc/dd0/build_2include_2omc_2c_2meta_2meta__modelica_8h.html#a053b78d26cb7fe728aa97ab1a575f7ad" target="_top" xlink:title="valueEq">
<polygon fill="#ffffff" stroke="#000000" points="1283,-38.5 1283,-57.5 1335,-57.5 1335,-38.5 1283,-38.5"/>
<text text-anchor="middle" x="1309" y="-45.5" font-family="Helvetica,sans-Serif" font-size="10.00" fill="#000000">valueEq</text>
</a>
</g>
</g>
<!-- Node12091&#45;&gt;Node12092 -->
<g id="edge14" class="edge">
<title>Node12091&#45;&gt;Node12092</title>
<path fill="none" stroke="#191970" d="M1247.2424,-48C1255.9618,-48 1264.7307,-48 1272.8117,-48"/>
<polygon fill="#191970" stroke="#191970" points="1272.9768,-51.5001 1282.9768,-48 1272.9768,-44.5001 1272.9768,-51.5001"/>
</g>
<!-- Node12094&#45;&gt;Node12090 -->
<g id="edge17" class="edge">
<title>Node12094&#45;&gt;Node12090</title>
<path fill="none" stroke="#191970" d="M923.0753,-18.0302C931.6268,-18.9328 940.3502,-19.8536 948.9265,-20.7589"/>
<polygon fill="#191970" stroke="#191970" points="948.5954,-24.2433 958.9076,-21.8125 949.3303,-17.282 948.5954,-24.2433"/>
</g>
</g>
</svg>
