<?xml version="1.0" encoding="UTF-8" standalone="no"?>
<!DOCTYPE svg PUBLIC "-//W3C//DTD SVG 1.1//EN"
 "http://www.w3.org/Graphics/SVG/1.1/DTD/svg11.dtd">
<!-- Generated by graphviz version 2.40.1 (20161225.0304)
 -->
<!-- Title: omc_Expression_prependSubscriptExp Pages: 1 -->
<svg width="540pt" height="112pt"
 viewBox="0.00 0.00 540.00 112.00" xmlns="http://www.w3.org/2000/svg" xmlns:xlink="http://www.w3.org/1999/xlink">
<g id="graph0" class="graph" transform="scale(1 1) rotate(0) translate(4 108)">
<title>omc_Expression_prependSubscriptExp</title>
<polygon fill="#ffffff" stroke="transparent" points="-4,4 -4,-108 536,-108 536,4 -4,4"/>
<!-- Node26773 -->
<g id="node1" class="node">
<title>Node26773</title>
<polygon fill="#bfbfbf" stroke="#000000" points="0,-30 0,-49 188,-49 188,-30 0,-30"/>
<text text-anchor="middle" x="94" y="-37" font-family="Helvetica,sans-Serif" font-size="10.00" fill="#000000">omc_Expression_prependSubscriptExp</text>
</g>
<!-- Node26774 -->
<g id="node2" class="node">
<title>Node26774</title>
<g id="a_node2"><a xlink:href="../../d9/d14/_component_reference_8c.html#a98a8360029d5518fb72089f8e09a1053" target="_top" xlink:title="omc_ComponentReference\l_crefStripLastSubs">
<polygon fill="#ffffff" stroke="#000000" points="224,-49.5 224,-79.5 360,-79.5 360,-49.5 224,-49.5"/>
<text text-anchor="start" x="232" y="-67.5" font-family="Helvetica,sans-Serif" font-size="10.00" fill="#000000">omc_ComponentReference</text>
<text text-anchor="middle" x="292" y="-56.5" font-family="Helvetica,sans-Serif" font-size="10.00" fill="#000000">_crefStripLastSubs</text>
</a>
</g>
</g>
<!-- Node26773&#45;&gt;Node26774 -->
<g id="edge1" class="edge">
<title>Node26773&#45;&gt;Node26774</title>
<path fill="none" stroke="#191970" d="M169.4201,-49.0227C183.9826,-50.8614 199.2677,-52.7914 213.9131,-54.6405"/>
<polygon fill="#191970" stroke="#191970" points="213.5735,-58.1254 223.9332,-55.9057 214.4505,-51.1805 213.5735,-58.1254"/>
</g>
<!-- Node26777 -->
<g id="node5" class="node">
<title>Node26777</title>
<g id="a_node5"><a xlink:href="../../d9/d14/_component_reference_8c.html#a3f6103afac7dca99c57aa2db9673bd27" target="_top" xlink:title="omc_ComponentReference\l_crefLastSubs">
<polygon fill="#ffffff" stroke="#000000" points="224,-.5 224,-30.5 360,-30.5 360,-.5 224,-.5"/>
<text text-anchor="start" x="232" y="-18.5" font-family="Helvetica,sans-Serif" font-size="10.00" fill="#000000">omc_ComponentReference</text>
<text text-anchor="middle" x="292" y="-7.5" font-family="Helvetica,sans-Serif" font-size="10.00" fill="#000000">_crefLastSubs</text>
</a>
</g>
</g>
<!-- Node26773&#45;&gt;Node26777 -->
<g id="edge5" class="edge">
<title>Node26773&#45;&gt;Node26777</title>
<path fill="none" stroke="#191970" d="M172.5392,-29.9801C186.0472,-28.3428 200.0866,-26.641 213.5912,-25.0041"/>
<polygon fill="#191970" stroke="#191970" points="214.2901,-28.4451 223.7963,-23.7671 213.4478,-21.4959 214.2901,-28.4451"/>
</g>
<!-- Node26774&#45;&gt;Node26774 -->
<g id="edge3" class="edge">
<title>Node26774&#45;&gt;Node26774</title>
<path fill="none" stroke="#191970" d="M262.0255,-79.659C254.7975,-89.0566 264.7891,-98 292,-98 308.5817,-98 318.7691,-94.679 322.5623,-89.9579"/>
<polygon fill="#191970" stroke="#191970" points="326.0387,-89.4433 321.9745,-79.659 319.0501,-89.8422 326.0387,-89.4433"/>
</g>
<!-- Node26775 -->
<g id="node3" class="node">
<title>Node26775</title>
<g id="a_node3"><a xlink:href="../../d9/d14/_component_reference_8c.html#a99f05249d0101f2fc925a24367484623" target="_top" xlink:title="omc_ComponentReference\l_makeCrefIdent">
<polygon fill="#ffffff" stroke="#000000" points="396,-73.5 396,-103.5 532,-103.5 532,-73.5 396,-73.5"/>
<text text-anchor="start" x="404" y="-91.5" font-family="Helvetica,sans-Serif" font-size="10.00" fill="#000000">omc_ComponentReference</text>
<text text-anchor="middle" x="464" y="-80.5" font-family="Helvetica,sans-Serif" font-size="10.00" fill="#000000">_makeCrefIdent</text>
</a>
</g>
</g>
<!-- Node26774&#45;&gt;Node26775 -->
<g id="edge2" class="edge">
<title>Node26774&#45;&gt;Node26775</title>
<path fill="none" stroke="#191970" d="M360.4732,-74.0544C368.7318,-75.2068 377.2157,-76.3906 385.6024,-77.5608"/>
<polygon fill="#191970" stroke="#191970" points="385.3747,-81.0629 395.7624,-78.9785 386.3421,-74.13 385.3747,-81.0629"/>
</g>
<!-- Node26776 -->
<g id="node4" class="node">
<title>Node26776</title>
<g id="a_node4"><a xlink:href="../../d9/d14/_component_reference_8c.html#a7432b89e50552d0f7590711f64ca96e8" target="_top" xlink:title="omc_ComponentReference\l_makeCrefQual">
<polygon fill="#ffffff" stroke="#000000" points="396,-24.5 396,-54.5 532,-54.5 532,-24.5 396,-24.5"/>
<text text-anchor="start" x="404" y="-42.5" font-family="Helvetica,sans-Serif" font-size="10.00" fill="#000000">omc_ComponentReference</text>
<text text-anchor="middle" x="464" y="-31.5" font-family="Helvetica,sans-Serif" font-size="10.00" fill="#000000">_makeCrefQual</text>
</a>
</g>
</g>
<!-- Node26774&#45;&gt;Node26776 -->
<g id="edge4" class="edge">
<title>Node26774&#45;&gt;Node26776</title>
<path fill="none" stroke="#191970" d="M360.4732,-54.5475C368.7318,-53.3471 377.2157,-52.114 385.6024,-50.895"/>
<polygon fill="#191970" stroke="#191970" points="386.3699,-54.3203 395.7624,-49.4183 385.3629,-47.3931 386.3699,-54.3203"/>
</g>
</g>
</svg>
