<?xml version="1.0" encoding="UTF-8" standalone="no"?>
<!DOCTYPE svg PUBLIC "-//W3C//DTD SVG 1.1//EN"
 "http://www.w3.org/Graphics/SVG/1.1/DTD/svg11.dtd">
<!-- Generated by graphviz version 2.40.1 (20161225.0304)
 -->
<!-- Title: omc_Expression_isConst Pages: 1 -->
<svg width="715pt" height="163pt"
 viewBox="0.00 0.00 715.00 163.00" xmlns="http://www.w3.org/2000/svg" xmlns:xlink="http://www.w3.org/1999/xlink">
<g id="graph0" class="graph" transform="scale(1 1) rotate(0) translate(4 159)">
<title>omc_Expression_isConst</title>
<polygon fill="#ffffff" stroke="transparent" points="-4,4 -4,-159 711,-159 711,4 -4,4"/>
<!-- Node18114 -->
<g id="node1" class="node">
<title>Node18114</title>
<polygon fill="#bfbfbf" stroke="#000000" points="0,-82.5 0,-101.5 128,-101.5 128,-82.5 0,-82.5"/>
<text text-anchor="middle" x="64" y="-89.5" font-family="Helvetica,sans-Serif" font-size="10.00" fill="#000000">omc_Expression_isConst</text>
</g>
<!-- Node18115 -->
<g id="node2" class="node">
<title>Node18115</title>
<g id="a_node2"><a xlink:href="../../d1/d08/_expression_8c.html#a39215e53d9016b476087f501ca51cf4c" target="_top" xlink:title="omc_Expression_isConstWork">
<polygon fill="#ffffff" stroke="#000000" points="164,-82.5 164,-101.5 316,-101.5 316,-82.5 164,-82.5"/>
<text text-anchor="middle" x="240" y="-89.5" font-family="Helvetica,sans-Serif" font-size="10.00" fill="#000000">omc_Expression_isConstWork</text>
</a>
</g>
</g>
<!-- Node18114&#45;&gt;Node18115 -->
<g id="edge1" class="edge">
<title>Node18114&#45;&gt;Node18115</title>
<path fill="none" stroke="#191970" d="M128.0379,-92C136.3738,-92 145.0203,-92 153.6457,-92"/>
<polygon fill="#191970" stroke="#191970" points="153.7416,-95.5001 163.7416,-92 153.7415,-88.5001 153.7416,-95.5001"/>
</g>
<!-- Node18116 -->
<g id="node3" class="node">
<title>Node18116</title>
<g id="a_node3"><a xlink:href="../../d1/d08/_expression_8c.html#a40995c4d638faf58a829d251e0180d6c" target="_top" xlink:title="omc_Expression_isConstWorkList">
<polygon fill="#ffffff" stroke="#000000" points="540,-135.5 540,-154.5 707,-154.5 707,-135.5 540,-135.5"/>
<text text-anchor="middle" x="623.5" y="-142.5" font-family="Helvetica,sans-Serif" font-size="10.00" fill="#000000">omc_Expression_isConstWorkList</text>
</a>
</g>
</g>
<!-- Node18115&#45;&gt;Node18116 -->
<g id="edge2" class="edge">
<title>Node18115&#45;&gt;Node18116</title>
<path fill="none" stroke="#191970" d="M316.2835,-101.3871C328.1946,-103.7686 340.3978,-106.1135 352,-108 426.0377,-120.0386 512.323,-127.8951 567.4004,-134.2663"/>
<polygon fill="#191970" stroke="#191970" points="567.3066,-137.7796 577.6489,-135.4804 568.1301,-130.8282 567.3066,-137.7796"/>
</g>
<!-- Node18117 -->
<g id="node4" class="node">
<title>Node18117</title>
<g id="a_node4"><a xlink:href="../../d1/d08/_expression_8c.html#a1e693c45bb00bf492a9b08f89f816743" target="_top" xlink:title="omc_Expression_isConstWork\lListList">
<polygon fill="#ffffff" stroke="#000000" points="352,-77 352,-107 504,-107 504,-77 352,-77"/>
<text text-anchor="start" x="360" y="-95" font-family="Helvetica,sans-Serif" font-size="10.00" fill="#000000">omc_Expression_isConstWork</text>
<text text-anchor="middle" x="428" y="-84" font-family="Helvetica,sans-Serif" font-size="10.00" fill="#000000">ListList</text>
</a>
</g>
</g>
<!-- Node18115&#45;&gt;Node18117 -->
<g id="edge4" class="edge">
<title>Node18115&#45;&gt;Node18117</title>
<path fill="none" stroke="#191970" d="M316.1958,-92C324.5174,-92 333.0322,-92 341.4663,-92"/>
<polygon fill="#191970" stroke="#191970" points="341.6958,-95.5001 351.6957,-92 341.6957,-88.5001 341.6958,-95.5001"/>
</g>
<!-- Node18118 -->
<g id="node5" class="node">
<title>Node18118</title>
<g id="a_node5"><a xlink:href="../../d2/d57/build_2include_2omc_2c_2meta_2meta__modelica__builtin_8h.html#a339b6737229642944fcc2ea39346daea" target="_top" xlink:title="listMember">
<polygon fill="#ffffff" stroke="#000000" points="395.5,-38.5 395.5,-57.5 460.5,-57.5 460.5,-38.5 395.5,-38.5"/>
<text text-anchor="middle" x="428" y="-45.5" font-family="Helvetica,sans-Serif" font-size="10.00" fill="#000000">listMember</text>
</a>
</g>
</g>
<!-- Node18115&#45;&gt;Node18118 -->
<g id="edge6" class="edge">
<title>Node18115&#45;&gt;Node18118</title>
<path fill="none" stroke="#191970" d="M280.7932,-82.4527C311.7812,-75.2001 354.272,-65.2555 385.6392,-57.9142"/>
<polygon fill="#191970" stroke="#191970" points="386.4646,-61.3157 395.4039,-55.6289 384.8694,-54.4999 386.4646,-61.3157"/>
</g>
<!-- Node18119 -->
<g id="node6" class="node">
<title>Node18119</title>
<g id="a_node6"><a xlink:href="../../d0/d78/_absyn_8c.html#a6744a7f65f2c6b34ca52d4506d096371" target="_top" xlink:title="omc_Absyn_pathFirstIdent">
<polygon fill="#ffffff" stroke="#000000" points="361,-.5 361,-19.5 495,-19.5 495,-.5 361,-.5"/>
<text text-anchor="middle" x="428" y="-7.5" font-family="Helvetica,sans-Serif" font-size="10.00" fill="#000000">omc_Absyn_pathFirstIdent</text>
</a>
</g>
</g>
<!-- Node18115&#45;&gt;Node18119 -->
<g id="edge7" class="edge">
<title>Node18115&#45;&gt;Node18119</title>
<path fill="none" stroke="#191970" d="M254.2318,-82.3369C274.9216,-68.6823 314.8952,-43.7635 352,-29 358.2829,-26.5001 364.992,-24.2546 371.7248,-22.2589"/>
<polygon fill="#191970" stroke="#191970" points="372.8687,-25.5735 381.5591,-19.5133 370.9863,-18.8313 372.8687,-25.5735"/>
</g>
<!-- Node18116&#45;&gt;Node18115 -->
<g id="edge3" class="edge">
<title>Node18116&#45;&gt;Node18115</title>
<path fill="none" stroke="#191970" d="M539.9895,-146.6363C486.123,-143.3847 414.6733,-136.1908 352,-126 321.1341,-120.9812 286.0139,-112.7185 263.4597,-105.0021"/>
<polygon fill="#191970" stroke="#191970" points="264.6346,-101.705 254.0415,-101.5088 262.2002,-108.2681 264.6346,-101.705"/>
</g>
<!-- Node18117&#45;&gt;Node18116 -->
<g id="edge5" class="edge">
<title>Node18117&#45;&gt;Node18116</title>
<path fill="none" stroke="#191970" d="M483.4995,-107.0459C513.4605,-115.1683 549.9791,-125.0685 578.2059,-132.7208"/>
<polygon fill="#191970" stroke="#191970" points="577.6351,-136.1923 588.2026,-135.4309 579.4668,-129.4362 577.6351,-136.1923"/>
</g>
</g>
</svg>
