<?xml version="1.0" encoding="UTF-8" standalone="no"?>
<!DOCTYPE svg PUBLIC "-//W3C//DTD SVG 1.1//EN"
 "http://www.w3.org/Graphics/SVG/1.1/DTD/svg11.dtd">
<!-- Generated by graphviz version 2.40.1 (20161225.0304)
 -->
<!-- Title: omc_Expression_extractCrefsFromExpDerPreStart Pages: 1 -->
<svg width="748pt" height="52pt"
 viewBox="0.00 0.00 748.00 51.50" xmlns="http://www.w3.org/2000/svg" xmlns:xlink="http://www.w3.org/1999/xlink">
<g id="graph0" class="graph" transform="scale(1 1) rotate(0) translate(4 47.5)">
<title>omc_Expression_extractCrefsFromExpDerPreStart</title>
<polygon fill="#ffffff" stroke="transparent" points="-4,4 -4,-47.5 744,-47.5 744,4 -4,4"/>
<!-- Node14508 -->
<g id="node1" class="node">
<title>Node14508</title>
<polygon fill="#bfbfbf" stroke="#000000" points="0,-.5 0,-30.5 149,-30.5 149,-.5 0,-.5"/>
<text text-anchor="start" x="8" y="-18.5" font-family="Helvetica,sans-Serif" font-size="10.00" fill="#000000">omc_Expression_extractCrefs</text>
<text text-anchor="middle" x="74.5" y="-7.5" font-family="Helvetica,sans-Serif" font-size="10.00" fill="#000000">FromExpDerPreStart</text>
</g>
<!-- Node14509 -->
<g id="node2" class="node">
<title>Node14509</title>
<g id="a_node2"><a xlink:href="../../d1/d08/_expression_8c.html#a948bf6c7b5eefb8cbdee2a63e5b73068" target="_top" xlink:title="omc_Expression_traverseExp\lDerPreStart">
<polygon fill="#ffffff" stroke="#000000" points="185,-.5 185,-30.5 332,-30.5 332,-.5 185,-.5"/>
<text text-anchor="start" x="193" y="-18.5" font-family="Helvetica,sans-Serif" font-size="10.00" fill="#000000">omc_Expression_traverseExp</text>
<text text-anchor="middle" x="258.5" y="-7.5" font-family="Helvetica,sans-Serif" font-size="10.00" fill="#000000">DerPreStart</text>
</a>
</g>
</g>
<!-- Node14508&#45;&gt;Node14509 -->
<g id="edge1" class="edge">
<title>Node14508&#45;&gt;Node14509</title>
<path fill="none" stroke="#191970" d="M149.0746,-15.5C157.4316,-15.5 165.9877,-15.5 174.4533,-15.5"/>
<polygon fill="#191970" stroke="#191970" points="174.7152,-19.0001 184.7152,-15.5 174.7152,-12.0001 174.7152,-19.0001"/>
</g>
<!-- Node14510 -->
<g id="node3" class="node">
<title>Node14510</title>
<g id="a_node3"><a xlink:href="../../d1/d08/_expression_8c.html#a2c35c75423b3773f6759e16463aa0e5a" target="_top" xlink:title="omc_Expression_traverseExpCref">
<polygon fill="#ffffff" stroke="#000000" points="368,-6 368,-25 534,-25 534,-6 368,-6"/>
<text text-anchor="middle" x="451" y="-13" font-family="Helvetica,sans-Serif" font-size="10.00" fill="#000000">omc_Expression_traverseExpCref</text>
</a>
</g>
</g>
<!-- Node14509&#45;&gt;Node14510 -->
<g id="edge2" class="edge">
<title>Node14509&#45;&gt;Node14510</title>
<path fill="none" stroke="#191970" d="M332.1,-15.5C340.4916,-15.5 349.1268,-15.5 357.7303,-15.5"/>
<polygon fill="#191970" stroke="#191970" points="357.7989,-19.0001 367.7988,-15.5 357.7988,-12.0001 357.7989,-19.0001"/>
</g>
<!-- Node14510&#45;&gt;Node14510 -->
<g id="edge4" class="edge">
<title>Node14510&#45;&gt;Node14510</title>
<path fill="none" stroke="#191970" d="M421.4072,-25.2571C407.0107,-34.0653 416.875,-43.5 451,-43.5 474.9941,-43.5 486.9941,-38.8356 487,-33.0043"/>
<polygon fill="#191970" stroke="#191970" points="489.6631,-30.7325 480.5928,-25.2571 484.2689,-35.1937 489.6631,-30.7325"/>
</g>
<!-- Node14511 -->
<g id="node4" class="node">
<title>Node14511</title>
<g id="a_node4"><a xlink:href="../../d1/d08/_expression_8c.html#a586a4dd58624528efbb1fb6a2bbdfd16" target="_top" xlink:title="omc_Expression_traverseExpSubs">
<polygon fill="#ffffff" stroke="#000000" points="570,-6 570,-25 740,-25 740,-6 570,-6"/>
<text text-anchor="middle" x="655" y="-13" font-family="Helvetica,sans-Serif" font-size="10.00" fill="#000000">omc_Expression_traverseExpSubs</text>
</a>
</g>
</g>
<!-- Node14510&#45;&gt;Node14511 -->
<g id="edge3" class="edge">
<title>Node14510&#45;&gt;Node14511</title>
<path fill="none" stroke="#191970" d="M534.2688,-15.5C542.5714,-15.5 551.0453,-15.5 559.4604,-15.5"/>
<polygon fill="#191970" stroke="#191970" points="559.6804,-19.0001 569.6803,-15.5 559.6803,-12.0001 559.6804,-19.0001"/>
</g>
</g>
</svg>
