<?xml version="1.0" encoding="UTF-8" standalone="no"?>
<!DOCTYPE svg PUBLIC "-//W3C//DTD SVG 1.1//EN"
 "http://www.w3.org/Graphics/SVG/1.1/DTD/svg11.dtd">
<!-- Generated by graphviz version 2.40.1 (20161225.0304)
 -->
<!-- Title: boxptr_Expression_isCrefScalar Pages: 1 -->
<svg width="693pt" height="252pt"
 viewBox="0.00 0.00 693.00 251.50" xmlns="http://www.w3.org/2000/svg" xmlns:xlink="http://www.w3.org/1999/xlink">
<g id="graph0" class="graph" transform="scale(1 1) rotate(0) translate(4 247.5)">
<title>boxptr_Expression_isCrefScalar</title>
<polygon fill="#ffffff" stroke="transparent" points="-4,4 -4,-247.5 689,-247.5 689,4 -4,4"/>
<!-- Node995 -->
<g id="node1" class="node">
<title>Node995</title>
<polygon fill="#bfbfbf" stroke="#000000" points="0,-71 0,-101 129,-101 129,-71 0,-71"/>
<text text-anchor="start" x="8" y="-89" font-family="Helvetica,sans-Serif" font-size="10.00" fill="#000000">boxptr_Expression_isCref</text>
<text text-anchor="middle" x="64.5" y="-78" font-family="Helvetica,sans-Serif" font-size="10.00" fill="#000000">Scalar</text>
</g>
<!-- Node996 -->
<g id="node2" class="node">
<title>Node996</title>
<g id="a_node2"><a xlink:href="../../d1/d08/_expression_8c.html#a1cae55c1b61b3dbc02aa5308ca815cf5" target="_top" xlink:title="omc_Expression_isCrefScalar">
<polygon fill="#ffffff" stroke="#000000" points="165,-76.5 165,-95.5 314,-95.5 314,-76.5 165,-76.5"/>
<text text-anchor="middle" x="239.5" y="-83.5" font-family="Helvetica,sans-Serif" font-size="10.00" fill="#000000">omc_Expression_isCrefScalar</text>
</a>
</g>
</g>
<!-- Node995&#45;&gt;Node996 -->
<g id="edge1" class="edge">
<title>Node995&#45;&gt;Node996</title>
<path fill="none" stroke="#191970" d="M129.1663,-86C137.4941,-86 146.1186,-86 154.7082,-86"/>
<polygon fill="#191970" stroke="#191970" points="154.7558,-89.5001 164.7558,-86 154.7558,-82.5001 154.7558,-89.5001"/>
</g>
<!-- Node997 -->
<g id="node3" class="node">
<title>Node997</title>
<g id="a_node3"><a xlink:href="../../d1/d08/_expression_8c.html#a85eb9caefe6cf7fcd5087c852b55b907" target="_top" xlink:title="omc_Expression_expCref">
<polygon fill="#ffffff" stroke="#000000" points="353.5,-120.5 353.5,-139.5 482.5,-139.5 482.5,-120.5 353.5,-120.5"/>
<text text-anchor="middle" x="418" y="-127.5" font-family="Helvetica,sans-Serif" font-size="10.00" fill="#000000">omc_Expression_expCref</text>
</a>
</g>
</g>
<!-- Node996&#45;&gt;Node997 -->
<g id="edge2" class="edge">
<title>Node996&#45;&gt;Node997</title>
<path fill="none" stroke="#191970" d="M278.2318,-95.5473C305.0145,-102.1492 340.847,-110.9819 369.5249,-118.051"/>
<polygon fill="#191970" stroke="#191970" points="368.7967,-121.4761 379.3437,-120.4713 370.4721,-114.6796 368.7967,-121.4761"/>
</g>
<!-- Node998 -->
<g id="node4" class="node">
<title>Node998</title>
<g id="a_node4"><a xlink:href="../../d9/d14/_component_reference_8c.html#a6b0e1fecfd57ba5e9ad1b64d47caf553" target="_top" xlink:title="omc_ComponentReference\l_crefHasScalarSubscripts">
<polygon fill="#ffffff" stroke="#000000" points="350,-71 350,-101 486,-101 486,-71 350,-71"/>
<text text-anchor="start" x="358" y="-89" font-family="Helvetica,sans-Serif" font-size="10.00" fill="#000000">omc_ComponentReference</text>
<text text-anchor="middle" x="418" y="-78" font-family="Helvetica,sans-Serif" font-size="10.00" fill="#000000">_crefHasScalarSubscripts</text>
</a>
</g>
</g>
<!-- Node996&#45;&gt;Node998 -->
<g id="edge3" class="edge">
<title>Node996&#45;&gt;Node998</title>
<path fill="none" stroke="#191970" d="M314.1658,-86C322.5878,-86 331.1878,-86 339.6549,-86"/>
<polygon fill="#191970" stroke="#191970" points="339.8962,-89.5001 349.8961,-86 339.8961,-82.5001 339.8962,-89.5001"/>
</g>
<!-- Node1004 -->
<g id="node10" class="node">
<title>Node1004</title>
<g id="a_node10"><a xlink:href="../../d1/dd1/3rd_party_2gc_2include_2gc_8h.html#acacfa47efcc44a29f7bb7d98f2a000f8" target="_top" xlink:title="void">
<polygon fill="#ffffff" stroke="#000000" points="586,-.5 586,-19.5 621,-19.5 621,-.5 586,-.5"/>
<text text-anchor="middle" x="603.5" y="-7.5" font-family="Helvetica,sans-Serif" font-size="10.00" fill="#000000">void</text>
</a>
</g>
</g>
<!-- Node996&#45;&gt;Node1004 -->
<g id="edge10" class="edge">
<title>Node996&#45;&gt;Node1004</title>
<path fill="none" stroke="#191970" d="M282.7704,-76.4808C303.1556,-72.0273 327.815,-66.6844 350,-62 432.1736,-44.6487 529.5109,-24.9101 576.0483,-15.523"/>
<polygon fill="#191970" stroke="#191970" points="576.8561,-18.9307 585.9674,-13.5239 575.473,-12.0687 576.8561,-18.9307"/>
</g>
<!-- Node999 -->
<g id="node5" class="node">
<title>Node999</title>
<g id="a_node5"><a xlink:href="../../d9/d14/_component_reference_8c.html#a3f6103afac7dca99c57aa2db9673bd27" target="_top" xlink:title="omc_ComponentReference\l_crefLastSubs">
<polygon fill="#ffffff" stroke="#000000" points="535.5,-213 535.5,-243 671.5,-243 671.5,-213 535.5,-213"/>
<text text-anchor="start" x="543.5" y="-231" font-family="Helvetica,sans-Serif" font-size="10.00" fill="#000000">omc_ComponentReference</text>
<text text-anchor="middle" x="603.5" y="-220" font-family="Helvetica,sans-Serif" font-size="10.00" fill="#000000">_crefLastSubs</text>
</a>
</g>
</g>
<!-- Node998&#45;&gt;Node999 -->
<g id="edge4" class="edge">
<title>Node998&#45;&gt;Node999</title>
<path fill="none" stroke="#191970" d="M472.5446,-101.0558C477.4547,-103.8353 482.0534,-107.1201 486,-111 517.6061,-142.0725 489.3871,-173.986 522,-204 523.5059,-205.3859 525.088,-206.6921 526.7335,-207.9231"/>
<polygon fill="#191970" stroke="#191970" points="525.119,-211.0446 535.4318,-213.473 528.8842,-205.1435 525.119,-211.0446"/>
</g>
<!-- Node1000 -->
<g id="node6" class="node">
<title>Node1000</title>
<g id="a_node6"><a xlink:href="../../d1/d08/_expression_8c.html#a5ff6627ae2c8b6d4dd46cf1ff5cf2873" target="_top" xlink:title="omc_Expression_subscript\lConstants">
<polygon fill="#ffffff" stroke="#000000" points="536.5,-164 536.5,-194 670.5,-194 670.5,-164 536.5,-164"/>
<text text-anchor="start" x="544.5" y="-182" font-family="Helvetica,sans-Serif" font-size="10.00" fill="#000000">omc_Expression_subscript</text>
<text text-anchor="middle" x="603.5" y="-171" font-family="Helvetica,sans-Serif" font-size="10.00" fill="#000000">Constants</text>
</a>
</g>
</g>
<!-- Node998&#45;&gt;Node1000 -->
<g id="edge5" class="edge">
<title>Node998&#45;&gt;Node1000</title>
<path fill="none" stroke="#191970" d="M468.5723,-101.0981C474.7024,-103.9229 480.6717,-107.2067 486,-111 506.5835,-125.654 500.9447,-141.0323 522,-155 524.4199,-156.6053 526.9495,-158.1056 529.5578,-159.5076"/>
<polygon fill="#191970" stroke="#191970" points="528.1556,-162.717 538.6836,-163.9053 531.1945,-156.4111 528.1556,-162.717"/>
</g>
<!-- Node1001 -->
<g id="node7" class="node">
<title>Node1001</title>
<g id="a_node7"><a xlink:href="../../d9/d14/_component_reference_8c.html#a4cbfe93b088d5e37d7d9bbd8c886f54d" target="_top" xlink:title="omc_ComponentReference\l_crefLastType">
<polygon fill="#ffffff" stroke="#000000" points="535.5,-115 535.5,-145 671.5,-145 671.5,-115 535.5,-115"/>
<text text-anchor="start" x="543.5" y="-133" font-family="Helvetica,sans-Serif" font-size="10.00" fill="#000000">omc_ComponentReference</text>
<text text-anchor="middle" x="603.5" y="-122" font-family="Helvetica,sans-Serif" font-size="10.00" fill="#000000">_crefLastType</text>
</a>
</g>
</g>
<!-- Node998&#45;&gt;Node1001 -->
<g id="edge6" class="edge">
<title>Node998&#45;&gt;Node1001</title>
<path fill="none" stroke="#191970" d="M481.3198,-101.0192C497.0518,-104.7508 514.0441,-108.7814 530.2104,-112.616"/>
<polygon fill="#191970" stroke="#191970" points="529.6131,-116.0713 540.1509,-114.9738 531.2287,-109.2603 529.6131,-116.0713"/>
</g>
<!-- Node1002 -->
<g id="node8" class="node">
<title>Node1002</title>
<g id="a_node8"><a xlink:href="../../d1/d08/_expression_8c.html#a2a1eb1eb06654bbf7faa4000e0c7cbf3" target="_top" xlink:title="omc_Expression_arrayDimension">
<polygon fill="#ffffff" stroke="#000000" points="522,-76.5 522,-95.5 685,-95.5 685,-76.5 522,-76.5"/>
<text text-anchor="middle" x="603.5" y="-83.5" font-family="Helvetica,sans-Serif" font-size="10.00" fill="#000000">omc_Expression_arrayDimension</text>
</a>
</g>
</g>
<!-- Node998&#45;&gt;Node1002 -->
<g id="edge7" class="edge">
<title>Node998&#45;&gt;Node1002</title>
<path fill="none" stroke="#191970" d="M486.02,-86C494.4182,-86 503.1081,-86 511.786,-86"/>
<polygon fill="#191970" stroke="#191970" points="511.9493,-89.5001 521.9493,-86 511.9493,-82.5001 511.9493,-89.5001"/>
</g>
<!-- Node1003 -->
<g id="node9" class="node">
<title>Node1003</title>
<g id="a_node9"><a xlink:href="../../d2/d57/build_2include_2omc_2c_2meta_2meta__modelica__builtin_8h.html#a6983369f3c3e3e8cc41ac483c9a9baf1" target="_top" xlink:title="listLength">
<polygon fill="#ffffff" stroke="#000000" points="574,-38.5 574,-57.5 633,-57.5 633,-38.5 574,-38.5"/>
<text text-anchor="middle" x="603.5" y="-45.5" font-family="Helvetica,sans-Serif" font-size="10.00" fill="#000000">listLength</text>
</a>
</g>
</g>
<!-- Node998&#45;&gt;Node1003 -->
<g id="edge8" class="edge">
<title>Node998&#45;&gt;Node1003</title>
<path fill="none" stroke="#191970" d="M486.02,-72.066C512.2033,-66.7023 541.223,-60.7576 563.8692,-56.1184"/>
<polygon fill="#191970" stroke="#191970" points="564.6985,-59.5213 573.7927,-54.0856 563.2937,-52.6637 564.6985,-59.5213"/>
</g>
<!-- Node998&#45;&gt;Node1004 -->
<g id="edge9" class="edge">
<title>Node998&#45;&gt;Node1004</title>
<path fill="none" stroke="#191970" d="M441.073,-70.9556C461.5848,-58.1761 492.7678,-40.177 522,-29 539.4774,-22.3175 559.9967,-17.5499 576.0738,-14.4618"/>
<polygon fill="#191970" stroke="#191970" points="576.7079,-17.904 585.9206,-12.6718 575.4558,-11.0169 576.7079,-17.904"/>
</g>
</g>
</svg>
