<?xml version="1.0" encoding="UTF-8" standalone="no"?>
<!DOCTYPE svg PUBLIC "-//W3C//DTD SVG 1.1//EN"
 "http://www.w3.org/Graphics/SVG/1.1/DTD/svg11.dtd">
<!-- Generated by graphviz version 2.40.1 (20161225.0304)
 -->
<!-- Title: omc_Expression_expandExpression Pages: 1 -->
<svg width="808pt" height="101pt"
 viewBox="0.00 0.00 808.00 101.00" xmlns="http://www.w3.org/2000/svg" xmlns:xlink="http://www.w3.org/1999/xlink">
<g id="graph0" class="graph" transform="scale(1 1) rotate(0) translate(4 97)">
<title>omc_Expression_expandExpression</title>
<polygon fill="#ffffff" stroke="transparent" points="-4,4 -4,-97 804,-97 804,4 -4,4"/>
<!-- Node11927 -->
<g id="node1" class="node">
<title>Node11927</title>
<polygon fill="#bfbfbf" stroke="#000000" points="0,-25 0,-44 175,-44 175,-25 0,-25"/>
<text text-anchor="middle" x="87.5" y="-32" font-family="Helvetica,sans-Serif" font-size="10.00" fill="#000000">omc_Expression_expandExpression</text>
</g>
<!-- Node11928 -->
<g id="node2" class="node">
<title>Node11928</title>
<g id="a_node2"><a xlink:href="../../d1/d08/_expression_8c.html#a6f8ad2d00ac7847f8fe6b71ca61130cc" target="_top" xlink:title="omc_Expression_traversingextend\lArrExp">
<polygon fill="#ffffff" stroke="#000000" points="422,-62.5 422,-92.5 589,-92.5 589,-62.5 422,-62.5"/>
<text text-anchor="start" x="430" y="-80.5" font-family="Helvetica,sans-Serif" font-size="10.00" fill="#000000">omc_Expression_traversingextend</text>
<text text-anchor="middle" x="505.5" y="-69.5" font-family="Helvetica,sans-Serif" font-size="10.00" fill="#000000">ArrExp</text>
</a>
</g>
</g>
<!-- Node11927&#45;&gt;Node11928 -->
<g id="edge1" class="edge">
<title>Node11927&#45;&gt;Node11928</title>
<path fill="none" stroke="#191970" d="M121.6571,-47.4593C146.1338,-56.0683 180.0998,-66.6487 211,-71.5 281.4757,-82.5646 362.5927,-83.3522 421.8266,-81.7775"/>
<polygon fill="#191970" stroke="#191970" points="122.7078,-44.1178 112.1133,-44.0333 120.3427,-50.7062 122.7078,-44.1178"/>
</g>
<!-- Node11930 -->
<g id="node4" class="node">
<title>Node11930</title>
<g id="a_node4"><a xlink:href="../../d6/d99/_expression_8h.html#ad390a56fb5043135fea8021c12ac0abe" target="_top" xlink:title="omc_Expression_expandExpression">
<polygon fill="#ffffff" stroke="#000000" points="211,-25 211,-44 386,-44 386,-25 211,-25"/>
<text text-anchor="middle" x="298.5" y="-32" font-family="Helvetica,sans-Serif" font-size="10.00" fill="#000000">omc_Expression_expandExpression</text>
</a>
</g>
</g>
<!-- Node11927&#45;&gt;Node11930 -->
<g id="edge3" class="edge">
<title>Node11927&#45;&gt;Node11930</title>
<path fill="none" stroke="#191970" d="M185.4234,-34.5C193.8845,-34.5 202.4108,-34.5 210.7833,-34.5"/>
<polygon fill="#191970" stroke="#191970" points="185.15,-31.0001 175.1499,-34.5 185.1499,-38.0001 185.15,-31.0001"/>
</g>
<!-- Node11931 -->
<g id="node5" class="node">
<title>Node11931</title>
<g id="a_node5"><a xlink:href="../../d6/d99/_expression_8h.html#a1c5839ad35e877f57e9c8ef8cb36a8a4" target="_top" xlink:title="boxptr_Expression_expand\lExpression">
<polygon fill="#ffffff" stroke="#000000" points="438.5,-.5 438.5,-30.5 572.5,-30.5 572.5,-.5 438.5,-.5"/>
<text text-anchor="start" x="446.5" y="-18.5" font-family="Helvetica,sans-Serif" font-size="10.00" fill="#000000">boxptr_Expression_expand</text>
<text text-anchor="middle" x="505.5" y="-7.5" font-family="Helvetica,sans-Serif" font-size="10.00" fill="#000000">Expression</text>
</a>
</g>
</g>
<!-- Node11927&#45;&gt;Node11931 -->
<g id="edge7" class="edge">
<title>Node11927&#45;&gt;Node11931</title>
<path fill="none" stroke="#191970" d="M147.7077,-23.3538C167.7648,-20.1448 190.2757,-17.0849 211,-15.5 288.8714,-9.5449 378.6641,-10.6964 438.4274,-12.5939"/>
<polygon fill="#191970" stroke="#191970" points="147.0724,-19.9111 137.7724,-24.9866 148.2076,-26.8185 147.0724,-19.9111"/>
</g>
<!-- Node11929 -->
<g id="node3" class="node">
<title>Node11929</title>
<g id="a_node3"><a xlink:href="../../d1/d08/_expression_8c.html#a89d40b780beb3a4a41716f1786927c5c" target="_top" xlink:title="boxptr_Expression_traversingextend\lArrExp">
<polygon fill="#ffffff" stroke="#000000" points="625,-62.5 625,-92.5 800,-92.5 800,-62.5 625,-62.5"/>
<text text-anchor="start" x="633" y="-80.5" font-family="Helvetica,sans-Serif" font-size="10.00" fill="#000000">boxptr_Expression_traversingextend</text>
<text text-anchor="middle" x="712.5" y="-69.5" font-family="Helvetica,sans-Serif" font-size="10.00" fill="#000000">ArrExp</text>
</a>
</g>
</g>
<!-- Node11928&#45;&gt;Node11929 -->
<g id="edge2" class="edge">
<title>Node11928&#45;&gt;Node11929</title>
<path fill="none" stroke="#191970" d="M599.1096,-77.5C607.6858,-77.5 616.3534,-77.5 624.8739,-77.5"/>
<polygon fill="#191970" stroke="#191970" points="599.0982,-74.0001 589.0982,-77.5 599.0981,-81.0001 599.0982,-74.0001"/>
</g>
<!-- Node11930&#45;&gt;Node11928 -->
<g id="edge4" class="edge">
<title>Node11930&#45;&gt;Node11928</title>
<path fill="none" stroke="#191970" d="M354.5358,-46.1403C378.7758,-51.1756 407.4493,-57.132 433.2604,-62.4937"/>
<polygon fill="#191970" stroke="#191970" points="354.9429,-42.6502 344.44,-44.0431 353.5191,-49.5039 354.9429,-42.6502"/>
</g>
<!-- Node11930&#45;&gt;Node11930 -->
<g id="edge5" class="edge">
<title>Node11930&#45;&gt;Node11930</title>
<path fill="none" stroke="#191970" d="M259.8936,-51.6138C259.3154,-57.626 272.1842,-62.5 298.5,-62.5 335.1133,-62.5 345.6968,-53.0653 330.2506,-44.2571"/>
<polygon fill="#191970" stroke="#191970" points="262.4923,-53.959 266.7494,-44.2571 257.3713,-49.1867 262.4923,-53.959"/>
</g>
<!-- Node11930&#45;&gt;Node11931 -->
<g id="edge6" class="edge">
<title>Node11930&#45;&gt;Node11931</title>
<path fill="none" stroke="#191970" d="M396.5423,-25.501C410.6806,-24.2032 424.955,-22.893 438.3064,-21.6675"/>
<polygon fill="#191970" stroke="#191970" points="395.9248,-22.0428 386.2866,-26.4423 396.5647,-29.0135 395.9248,-22.0428"/>
</g>
</g>
</svg>
