<?xml version="1.0" encoding="UTF-8" standalone="no"?>
<!DOCTYPE svg PUBLIC "-//W3C//DTD SVG 1.1//EN"
 "http://www.w3.org/Graphics/SVG/1.1/DTD/svg11.dtd">
<!-- Generated by graphviz version 2.40.1 (20161225.0304)
 -->
<!-- Title: omc_Expression_listToArray2 Pages: 1 -->
<svg width="1581pt" height="420pt"
 viewBox="0.00 0.00 1581.00 420.00" xmlns="http://www.w3.org/2000/svg" xmlns:xlink="http://www.w3.org/1999/xlink">
<g id="graph0" class="graph" transform="scale(1 1) rotate(0) translate(4 416)">
<title>omc_Expression_listToArray2</title>
<polygon fill="#ffffff" stroke="transparent" points="-4,4 -4,-416 1577,-416 1577,4 -4,4"/>
<!-- Node22041 -->
<g id="node1" class="node">
<title>Node22041</title>
<polygon fill="#bfbfbf" stroke="#000000" points="0,-272.5 0,-291.5 147,-291.5 147,-272.5 0,-272.5"/>
<text text-anchor="middle" x="73.5" y="-279.5" font-family="Helvetica,sans-Serif" font-size="10.00" fill="#000000">omc_Expression_listToArray2</text>
</g>
<!-- Node22042 -->
<g id="node2" class="node">
<title>Node22042</title>
<g id="a_node2"><a xlink:href="../../d1/d08/_expression_8c.html#a84a4a599617a28cbc59e20244ed382d4" target="_top" xlink:title="omc_Expression_dimensionSize">
<polygon fill="#ffffff" stroke="#000000" points="366,-392.5 366,-411.5 524,-411.5 524,-392.5 366,-392.5"/>
<text text-anchor="middle" x="445" y="-399.5" font-family="Helvetica,sans-Serif" font-size="10.00" fill="#000000">omc_Expression_dimensionSize</text>
</a>
</g>
</g>
<!-- Node22041&#45;&gt;Node22042 -->
<g id="edge1" class="edge">
<title>Node22041&#45;&gt;Node22042</title>
<path fill="none" stroke="#191970" d="M82.3464,-291.6511C99.6754,-309.8607 140.1555,-349.0648 183,-367 237.5671,-389.8425 303.6116,-398.5551 355.7391,-401.576"/>
<polygon fill="#191970" stroke="#191970" points="355.8036,-405.0839 365.9715,-402.1068 356.1663,-398.0933 355.8036,-405.0839"/>
</g>
<!-- Node22043 -->
<g id="node3" class="node">
<title>Node22043</title>
<g id="a_node3"><a xlink:href="../../d2/d57/build_2include_2omc_2c_2meta_2meta__modelica__builtin_8h.html#a6983369f3c3e3e8cc41ac483c9a9baf1" target="_top" xlink:title="listLength">
<polygon fill="#ffffff" stroke="#000000" points="415.5,-354.5 415.5,-373.5 474.5,-373.5 474.5,-354.5 415.5,-354.5"/>
<text text-anchor="middle" x="445" y="-361.5" font-family="Helvetica,sans-Serif" font-size="10.00" fill="#000000">listLength</text>
</a>
</g>
</g>
<!-- Node22041&#45;&gt;Node22043 -->
<g id="edge2" class="edge">
<title>Node22041&#45;&gt;Node22043</title>
<path fill="none" stroke="#191970" d="M86.5147,-291.5187C106.2486,-305.377 145.4309,-330.6858 183,-342 259.0556,-364.9047 352.7699,-366.8361 404.996,-365.7238"/>
<polygon fill="#191970" stroke="#191970" points="405.2754,-369.2178 415.18,-365.4564 405.0916,-362.2202 405.2754,-369.2178"/>
</g>
<!-- Node22044 -->
<g id="node4" class="node">
<title>Node22044</title>
<g id="a_node4"><a xlink:href="../../d1/d08/_expression_8c.html#ab8e8c2e53280eaf2a1973b3fe8f0ceda" target="_top" xlink:title="omc_Expression_makeArray\lFromList">
<polygon fill="#ffffff" stroke="#000000" points="374,-267 374,-297 516,-297 516,-267 374,-267"/>
<text text-anchor="start" x="382" y="-285" font-family="Helvetica,sans-Serif" font-size="10.00" fill="#000000">omc_Expression_makeArray</text>
<text text-anchor="middle" x="445" y="-274" font-family="Helvetica,sans-Serif" font-size="10.00" fill="#000000">FromList</text>
</a>
</g>
</g>
<!-- Node22041&#45;&gt;Node22044 -->
<g id="edge3" class="edge">
<title>Node22041&#45;&gt;Node22044</title>
<path fill="none" stroke="#191970" d="M147.3406,-282C209.8072,-282 299.1943,-282 363.6919,-282"/>
<polygon fill="#191970" stroke="#191970" points="363.8218,-285.5001 373.8218,-282 363.8217,-278.5001 363.8218,-285.5001"/>
</g>
<!-- Node22046 -->
<g id="node6" class="node">
<title>Node22046</title>
<g id="a_node6"><a xlink:href="../../db/da1/_compiler_2boot_2build_2error_8c.html#ac7cb956267dd6443414eb83a5c0b4693" target="_top" xlink:title="omc_Error_addMessage">
<polygon fill="#ffffff" stroke="#000000" points="384,-228.5 384,-247.5 506,-247.5 506,-228.5 384,-228.5"/>
<text text-anchor="middle" x="445" y="-235.5" font-family="Helvetica,sans-Serif" font-size="10.00" fill="#000000">omc_Error_addMessage</text>
</a>
</g>
</g>
<!-- Node22041&#45;&gt;Node22046 -->
<g id="edge5" class="edge">
<title>Node22041&#45;&gt;Node22046</title>
<path fill="none" stroke="#191970" d="M147.3406,-273.2544C213.1214,-265.4634 308.7548,-254.1367 373.7397,-246.44"/>
<polygon fill="#191970" stroke="#191970" points="374.3781,-249.8889 383.897,-245.237 373.5547,-242.9375 374.3781,-249.8889"/>
</g>
<!-- Node22072 -->
<g id="node32" class="node">
<title>Node22072</title>
<g id="a_node32"><a xlink:href="../../da/d72/_compiler_2boot_2build_2list_8c.html#a5b6a1b48bea0f84ff61fd4367934937f" target="_top" xlink:title="omc_List_splitLast">
<polygon fill="#ffffff" stroke="#000000" points="207.5,-191.5 207.5,-210.5 305.5,-210.5 305.5,-191.5 207.5,-191.5"/>
<text text-anchor="middle" x="256.5" y="-198.5" font-family="Helvetica,sans-Serif" font-size="10.00" fill="#000000">omc_List_splitLast</text>
</a>
</g>
</g>
<!-- Node22041&#45;&gt;Node22072 -->
<g id="edge34" class="edge">
<title>Node22041&#45;&gt;Node22072</title>
<path fill="none" stroke="#191970" d="M91.0053,-272.3484C112.3583,-260.7774 149.7282,-241.1746 183,-227 193.9794,-222.3225 206.1148,-217.7828 217.3074,-213.8408"/>
<polygon fill="#191970" stroke="#191970" points="218.5406,-217.1178 226.8478,-210.5421 216.2531,-210.5021 218.5406,-217.1178"/>
</g>
<!-- Node22075 -->
<g id="node35" class="node">
<title>Node22075</title>
<g id="a_node35"><a xlink:href="../../d1/d08/_expression_8c.html#adc71e7f14b3da5263d442864157b6e30" target="_top" xlink:title="omc_Expression_listToArray3">
<polygon fill="#ffffff" stroke="#000000" points="183,-313.5 183,-332.5 330,-332.5 330,-313.5 183,-313.5"/>
<text text-anchor="middle" x="256.5" y="-320.5" font-family="Helvetica,sans-Serif" font-size="10.00" fill="#000000">omc_Expression_listToArray3</text>
</a>
</g>
</g>
<!-- Node22041&#45;&gt;Node22075 -->
<g id="edge37" class="edge">
<title>Node22041&#45;&gt;Node22075</title>
<path fill="none" stroke="#191970" d="M115.9438,-291.5093C142.1803,-297.3874 176.0567,-304.9772 203.9777,-311.2327"/>
<polygon fill="#191970" stroke="#191970" points="203.4464,-314.7004 213.9697,-313.4714 204.9769,-307.8697 203.4464,-314.7004"/>
</g>
<!-- Node22077 -->
<g id="node37" class="node">
<title>Node22077</title>
<g id="a_node37"><a xlink:href="../../d1/dd1/3rd_party_2gc_2include_2gc_8h.html#acacfa47efcc44a29f7bb7d98f2a000f8" target="_top" xlink:title="void">
<polygon fill="#ffffff" stroke="#000000" points="239,-153.5 239,-172.5 274,-172.5 274,-153.5 239,-153.5"/>
<text text-anchor="middle" x="256.5" y="-160.5" font-family="Helvetica,sans-Serif" font-size="10.00" fill="#000000">void</text>
</a>
</g>
</g>
<!-- Node22041&#45;&gt;Node22077 -->
<g id="edge43" class="edge">
<title>Node22041&#45;&gt;Node22077</title>
<path fill="none" stroke="#191970" d="M81.1619,-272.3635C97.6018,-252.3543 138.4069,-206.1605 183,-182 197.1287,-174.3451 214.4709,-169.672 228.7611,-166.8768"/>
<polygon fill="#191970" stroke="#191970" points="229.7431,-170.2582 238.9902,-165.087 228.5366,-163.363 229.7431,-170.2582"/>
</g>
<!-- Node22045 -->
<g id="node5" class="node">
<title>Node22045</title>
<g id="a_node5"><a xlink:href="../../d1/d08/_expression_8c.html#a007abae479310b1b518673105ceba117" target="_top" xlink:title="omc_Expression_typeof">
<polygon fill="#ffffff" stroke="#000000" points="583,-342.5 583,-361.5 705,-361.5 705,-342.5 583,-342.5"/>
<text text-anchor="middle" x="644" y="-349.5" font-family="Helvetica,sans-Serif" font-size="10.00" fill="#000000">omc_Expression_typeof</text>
</a>
</g>
</g>
<!-- Node22044&#45;&gt;Node22045 -->
<g id="edge4" class="edge">
<title>Node22044&#45;&gt;Node22045</title>
<path fill="none" stroke="#191970" d="M500.2949,-297.004C508.4144,-299.9178 516.5459,-303.2512 524,-307 541.6322,-315.8677 542.0108,-324.8808 560,-333 565.6343,-335.543 571.6396,-337.7601 577.7492,-339.6904"/>
<polygon fill="#191970" stroke="#191970" points="576.8179,-343.0645 587.3973,-342.4931 578.7707,-336.3424 576.8179,-343.0645"/>
</g>
<!-- Node22047 -->
<g id="node7" class="node">
<title>Node22047</title>
<g id="a_node7"><a xlink:href="../../d3/db3/_flags_8c.html#abc3d84cf6e1cf18f0cec0f052e7c85d9" target="_top" xlink:title="omc_Flags_getConfigBool">
<polygon fill="#ffffff" stroke="#000000" points="992,-114.5 992,-133.5 1123,-133.5 1123,-114.5 992,-114.5"/>
<text text-anchor="middle" x="1057.5" y="-121.5" font-family="Helvetica,sans-Serif" font-size="10.00" fill="#000000">omc_Flags_getConfigBool</text>
</a>
</g>
</g>
<!-- Node22046&#45;&gt;Node22047 -->
<g id="edge6" class="edge">
<title>Node22046&#45;&gt;Node22047</title>
<path fill="none" stroke="#191970" d="M502.2056,-228.4362C509.8063,-225.9752 517.2834,-222.8834 524,-219 544.1404,-207.3552 539.0964,-191.2114 560,-181 717.6738,-103.9763 779.19,-167.161 953,-143 968.1364,-140.8959 984.4244,-138.1629 999.5319,-135.4287"/>
<polygon fill="#191970" stroke="#191970" points="1000.5727,-138.796 1009.7738,-133.5433 999.3053,-131.9117 1000.5727,-138.796"/>
</g>
<!-- Node22051 -->
<g id="node11" class="node">
<title>Node22051</title>
<g id="a_node11"><a xlink:href="../../db/da1/_compiler_2boot_2build_2error_8c.html#aeb78c231e1d6119f91343f400ce91a08" target="_top" xlink:title="omc_Error_getCurrentComponent">
<polygon fill="#ffffff" stroke="#000000" points="562.5,-190.5 562.5,-209.5 725.5,-209.5 725.5,-190.5 562.5,-190.5"/>
<text text-anchor="middle" x="644" y="-197.5" font-family="Helvetica,sans-Serif" font-size="10.00" fill="#000000">omc_Error_getCurrentComponent</text>
</a>
</g>
</g>
<!-- Node22046&#45;&gt;Node22051 -->
<g id="edge10" class="edge">
<title>Node22046&#45;&gt;Node22051</title>
<path fill="none" stroke="#191970" d="M494.9592,-228.46C522.0454,-223.2878 555.7075,-216.8599 584.1835,-211.4222"/>
<polygon fill="#191970" stroke="#191970" points="584.8542,-214.8575 594.0202,-209.5439 583.5412,-207.9817 584.8542,-214.8575"/>
</g>
<!-- Node22052 -->
<g id="node12" class="node">
<title>Node22052</title>
<g id="a_node12"><a xlink:href="../../d7/deb/build_2include_2omc_2c_2util_2modelica__string_8c.html#a751007abc59e9ca7978f2af10a0c814f" target="_top" xlink:title="stringAppend">
<polygon fill="#ffffff" stroke="#000000" points="821.5,-209.5 821.5,-228.5 895.5,-228.5 895.5,-209.5 821.5,-209.5"/>
<text text-anchor="middle" x="858.5" y="-216.5" font-family="Helvetica,sans-Serif" font-size="10.00" fill="#000000">stringAppend</text>
</a>
</g>
</g>
<!-- Node22046&#45;&gt;Node22052 -->
<g id="edge15" class="edge">
<title>Node22046&#45;&gt;Node22052</title>
<path fill="none" stroke="#191970" d="M506.0133,-235.1965C589.0482,-231.3811 735.8937,-224.6337 811.1461,-221.1759"/>
<polygon fill="#191970" stroke="#191970" points="811.4466,-224.6659 821.2753,-220.7104 811.1252,-217.6732 811.4466,-224.6659"/>
</g>
<!-- Node22053 -->
<g id="node13" class="node">
<title>Node22053</title>
<g id="a_node13"><a xlink:href="../../d9/d7c/_compiler_2boot_2build_2util_8c.html#af677b04abc76ada92619360b1a4e1238" target="_top" xlink:title="omc_Util_translateContent">
<polygon fill="#ffffff" stroke="#000000" points="577.5,-304.5 577.5,-323.5 710.5,-323.5 710.5,-304.5 577.5,-304.5"/>
<text text-anchor="middle" x="644" y="-311.5" font-family="Helvetica,sans-Serif" font-size="10.00" fill="#000000">omc_Util_translateContent</text>
</a>
</g>
</g>
<!-- Node22046&#45;&gt;Node22053 -->
<g id="edge12" class="edge">
<title>Node22046&#45;&gt;Node22053</title>
<path fill="none" stroke="#191970" d="M499.671,-247.6243C508.1278,-250.2914 516.5257,-253.6854 524,-258 543.8708,-269.4705 539.9845,-283.7839 560,-295 563.9966,-297.2396 568.2398,-299.2152 572.6134,-300.9581"/>
<polygon fill="#191970" stroke="#191970" points="571.7564,-304.3677 582.3511,-304.4136 574.0974,-297.7707 571.7564,-304.3677"/>
</g>
<!-- Node22056 -->
<g id="node16" class="node">
<title>Node22056</title>
<g id="a_node16"><a xlink:href="../../d4/dce/_error_ext_8c.html#a2aab7fef8718e5c7b0e410daf818bf99" target="_top" xlink:title="omc_ErrorExt_addSourceMessage">
<polygon fill="#ffffff" stroke="#000000" points="560,-266.5 560,-285.5 728,-285.5 728,-266.5 560,-266.5"/>
<text text-anchor="middle" x="644" y="-273.5" font-family="Helvetica,sans-Serif" font-size="10.00" fill="#000000">omc_ErrorExt_addSourceMessage</text>
</a>
</g>
</g>
<!-- Node22046&#45;&gt;Node22056 -->
<g id="edge16" class="edge">
<title>Node22046&#45;&gt;Node22056</title>
<path fill="none" stroke="#191970" d="M494.9592,-247.54C522.0454,-252.7122 555.7075,-259.1401 584.1835,-264.5778"/>
<polygon fill="#191970" stroke="#191970" points="583.5412,-268.0183 594.0202,-266.4561 584.8542,-261.1425 583.5412,-268.0183"/>
</g>
<!-- Node22060 -->
<g id="node20" class="node">
<title>Node22060</title>
<g id="a_node20"><a xlink:href="../../d9/d7c/_compiler_2boot_2build_2util_8c.html#ad7f719bd6355b185d211a8c8ff0cc7be" target="_top" xlink:title="omc_Util_testsuiteFriendly">
<polygon fill="#ffffff" stroke="#000000" points="577.5,-95.5 577.5,-114.5 710.5,-114.5 710.5,-95.5 577.5,-95.5"/>
<text text-anchor="middle" x="644" y="-102.5" font-family="Helvetica,sans-Serif" font-size="10.00" fill="#000000">omc_Util_testsuiteFriendly</text>
</a>
</g>
</g>
<!-- Node22046&#45;&gt;Node22060 -->
<g id="edge20" class="edge">
<title>Node22046&#45;&gt;Node22060</title>
<path fill="none" stroke="#191970" d="M506.1884,-229.0679C512.5899,-226.4901 518.6876,-223.1982 524,-219 551.7586,-197.0634 535.0308,-173.0658 560,-148 572.7347,-135.2161 590.0602,-125.4729 605.669,-118.5204"/>
<polygon fill="#191970" stroke="#191970" points="607.2486,-121.6531 615.1095,-114.5499 604.5347,-115.2006 607.2486,-121.6531"/>
</g>
<!-- Node22048 -->
<g id="node8" class="node">
<title>Node22048</title>
<g id="a_node8"><a xlink:href="../../d3/db3/_flags_8c.html#a96ba70d54b6662cf90933a207c0c6b8e" target="_top" xlink:title="omc_Flags_getConfigValue">
<polygon fill="#ffffff" stroke="#000000" points="1162,-114.5 1162,-133.5 1299,-133.5 1299,-114.5 1162,-114.5"/>
<text text-anchor="middle" x="1230.5" y="-121.5" font-family="Helvetica,sans-Serif" font-size="10.00" fill="#000000">omc_Flags_getConfigValue</text>
</a>
</g>
</g>
<!-- Node22047&#45;&gt;Node22048 -->
<g id="edge7" class="edge">
<title>Node22047&#45;&gt;Node22048</title>
<path fill="none" stroke="#191970" d="M1123.3974,-124C1132.6537,-124 1142.2443,-124 1151.7107,-124"/>
<polygon fill="#191970" stroke="#191970" points="1151.9123,-127.5001 1161.9123,-124 1151.9123,-120.5001 1151.9123,-127.5001"/>
</g>
<!-- Node22049 -->
<g id="node9" class="node">
<title>Node22049</title>
<g id="a_node9"><a xlink:href="../../d3/db3/_flags_8c.html#a760d66f53b65ac257876ca0f6308f09f" target="_top" xlink:title="omc_Flags_loadFlags">
<polygon fill="#ffffff" stroke="#000000" points="1341.5,-114.5 1341.5,-133.5 1453.5,-133.5 1453.5,-114.5 1341.5,-114.5"/>
<text text-anchor="middle" x="1397.5" y="-121.5" font-family="Helvetica,sans-Serif" font-size="10.00" fill="#000000">omc_Flags_loadFlags</text>
</a>
</g>
</g>
<!-- Node22048&#45;&gt;Node22049 -->
<g id="edge8" class="edge">
<title>Node22048&#45;&gt;Node22049</title>
<path fill="none" stroke="#191970" d="M1299.3895,-124C1309.9016,-124 1320.7327,-124 1331.188,-124"/>
<polygon fill="#191970" stroke="#191970" points="1331.4923,-127.5001 1341.4922,-124 1331.4922,-120.5001 1331.4923,-127.5001"/>
</g>
<!-- Node22050 -->
<g id="node10" class="node">
<title>Node22050</title>
<g id="a_node10"><a xlink:href="../../da/d72/_compiler_2boot_2build_2list_8c.html#a3ec1ee3a5ff53be9af368e290be09182" target="_top" xlink:title="omc_List_fold">
<polygon fill="#ffffff" stroke="#000000" points="1496,-114.5 1496,-133.5 1573,-133.5 1573,-114.5 1496,-114.5"/>
<text text-anchor="middle" x="1534.5" y="-121.5" font-family="Helvetica,sans-Serif" font-size="10.00" fill="#000000">omc_List_fold</text>
</a>
</g>
</g>
<!-- Node22049&#45;&gt;Node22050 -->
<g id="edge9" class="edge">
<title>Node22049&#45;&gt;Node22050</title>
<path fill="none" stroke="#191970" d="M1453.6184,-124C1464.2594,-124 1475.3126,-124 1485.7046,-124"/>
<polygon fill="#191970" stroke="#191970" points="1485.8364,-127.5001 1495.8363,-124 1485.8363,-120.5001 1485.8364,-127.5001"/>
</g>
<!-- Node22051&#45;&gt;Node22052 -->
<g id="edge11" class="edge">
<title>Node22051&#45;&gt;Node22052</title>
<path fill="none" stroke="#191970" d="M725.7052,-207.2373C754.633,-209.7997 786.1934,-212.5952 811.2858,-214.8179"/>
<polygon fill="#191970" stroke="#191970" points="810.9954,-218.3057 821.2652,-215.7018 811.613,-211.333 810.9954,-218.3057"/>
</g>
<!-- Node22054 -->
<g id="node14" class="node">
<title>Node22054</title>
<g id="a_node14"><a xlink:href="../../d1/d95/_system_8c.html#ae39e41c84235850a135a73187a387d21" target="_top" xlink:title="omc_System_gettext">
<polygon fill="#ffffff" stroke="#000000" points="803.5,-304.5 803.5,-323.5 913.5,-323.5 913.5,-304.5 803.5,-304.5"/>
<text text-anchor="middle" x="858.5" y="-311.5" font-family="Helvetica,sans-Serif" font-size="10.00" fill="#000000">omc_System_gettext</text>
</a>
</g>
</g>
<!-- Node22053&#45;&gt;Node22054 -->
<g id="edge13" class="edge">
<title>Node22053&#45;&gt;Node22054</title>
<path fill="none" stroke="#191970" d="M710.6933,-314C736.9674,-314 767.0497,-314 793.1875,-314"/>
<polygon fill="#191970" stroke="#191970" points="793.3698,-317.5001 803.3698,-314 793.3697,-310.5001 793.3698,-317.5001"/>
</g>
<!-- Node22055 -->
<g id="node15" class="node">
<title>Node22055</title>
<g id="a_node15"><a xlink:href="../../d8/d28/_compiler_2boot_2build_2system_8h.html#a082d216ff61d9f3b30e1fe92e3fc5860" target="_top" xlink:title="SystemImpl__gettext">
<polygon fill="#ffffff" stroke="#000000" points="1002.5,-304.5 1002.5,-323.5 1112.5,-323.5 1112.5,-304.5 1002.5,-304.5"/>
<text text-anchor="middle" x="1057.5" y="-311.5" font-family="Helvetica,sans-Serif" font-size="10.00" fill="#000000">SystemImpl__gettext</text>
</a>
</g>
</g>
<!-- Node22054&#45;&gt;Node22055 -->
<g id="edge14" class="edge">
<title>Node22054&#45;&gt;Node22055</title>
<path fill="none" stroke="#191970" d="M913.6683,-314C937.9315,-314 966.6155,-314 991.9594,-314"/>
<polygon fill="#191970" stroke="#191970" points="992.2244,-317.5001 1002.2244,-314 992.2243,-310.5001 992.2244,-317.5001"/>
</g>
<!-- Node22057 -->
<g id="node17" class="node">
<title>Node22057</title>
<g id="a_node17"><a xlink:href="../../d1/d40/boot_2build_2_error_ext_8h.html#afef4410ffb05473c1ca2f30078ee39a8" target="_top" xlink:title="Error_addSourceMessage">
<polygon fill="#ffffff" stroke="#000000" points="794,-266.5 794,-285.5 923,-285.5 923,-266.5 794,-266.5"/>
<text text-anchor="middle" x="858.5" y="-273.5" font-family="Helvetica,sans-Serif" font-size="10.00" fill="#000000">Error_addSourceMessage</text>
</a>
</g>
</g>
<!-- Node22056&#45;&gt;Node22057 -->
<g id="edge17" class="edge">
<title>Node22056&#45;&gt;Node22057</title>
<path fill="none" stroke="#191970" d="M728.1604,-276C746.4949,-276 765.7744,-276 783.7157,-276"/>
<polygon fill="#191970" stroke="#191970" points="783.818,-279.5001 793.8179,-276 783.8179,-272.5001 783.818,-279.5001"/>
</g>
<!-- Node22058 -->
<g id="node18" class="node">
<title>Node22058</title>
<g id="a_node18"><a xlink:href="../../dc/d1d/errorext_8cpp.html#a658c4e234277aba60ad929952c45d9e2" target="_top" xlink:title="add_source_message">
<polygon fill="#ffffff" stroke="#000000" points="1001.5,-266.5 1001.5,-285.5 1113.5,-285.5 1113.5,-266.5 1001.5,-266.5"/>
<text text-anchor="middle" x="1057.5" y="-273.5" font-family="Helvetica,sans-Serif" font-size="10.00" fill="#000000">add_source_message</text>
</a>
</g>
</g>
<!-- Node22057&#45;&gt;Node22058 -->
<g id="edge18" class="edge">
<title>Node22057&#45;&gt;Node22058</title>
<path fill="none" stroke="#191970" d="M923.1096,-276C944.8597,-276 969.1566,-276 991.0463,-276"/>
<polygon fill="#191970" stroke="#191970" points="991.2456,-279.5001 1001.2456,-276 991.2455,-272.5001 991.2456,-279.5001"/>
</g>
<!-- Node22059 -->
<g id="node19" class="node">
<title>Node22059</title>
<g id="a_node19"><a xlink:href="../../d4/dbe/_o_m_c_monitor_8c.html#ad78b5494db8b59027d08860c5efce10f" target="_top" xlink:title="ErrorMessage">
<polygon fill="#ffffff" stroke="#000000" points="1192,-266.5 1192,-285.5 1269,-285.5 1269,-266.5 1192,-266.5"/>
<text text-anchor="middle" x="1230.5" y="-273.5" font-family="Helvetica,sans-Serif" font-size="10.00" fill="#000000">ErrorMessage</text>
</a>
</g>
</g>
<!-- Node22058&#45;&gt;Node22059 -->
<g id="edge19" class="edge">
<title>Node22058&#45;&gt;Node22059</title>
<path fill="none" stroke="#191970" d="M1113.6681,-276C1135.6281,-276 1160.5744,-276 1181.7606,-276"/>
<polygon fill="#191970" stroke="#191970" points="1181.8294,-279.5001 1191.8294,-276 1181.8294,-272.5001 1181.8294,-279.5001"/>
</g>
<!-- Node22061 -->
<g id="node21" class="node">
<title>Node22061</title>
<g id="a_node21"><a xlink:href="../../d9/d7c/_compiler_2boot_2build_2util_8c.html#ab96745984cab835c8ae43a8f02fb268b" target="_top" xlink:title="omc_Util_testsuiteFriendly2">
<polygon fill="#ffffff" stroke="#000000" points="789.5,-38.5 789.5,-57.5 927.5,-57.5 927.5,-38.5 789.5,-38.5"/>
<text text-anchor="middle" x="858.5" y="-45.5" font-family="Helvetica,sans-Serif" font-size="10.00" fill="#000000">omc_Util_testsuiteFriendly2</text>
</a>
</g>
</g>
<!-- Node22060&#45;&gt;Node22061 -->
<g id="edge21" class="edge">
<title>Node22060&#45;&gt;Node22061</title>
<path fill="none" stroke="#191970" d="M671.3984,-95.3905C695.563,-87.14 731.8372,-75.2998 764,-67 774.1919,-64.3699 785.0802,-61.8853 795.7076,-59.6334"/>
<polygon fill="#191970" stroke="#191970" points="796.7018,-63.0019 805.7854,-57.5485 795.2837,-56.147 796.7018,-63.0019"/>
</g>
<!-- Node22069 -->
<g id="node29" class="node">
<title>Node22069</title>
<g id="a_node29"><a xlink:href="../../d1/d5c/_config_8c.html#afa2f208e09cd9979df49295043109099" target="_top" xlink:title="omc_Config_getRunningTestsuite">
<polygon fill="#ffffff" stroke="#000000" points="776.5,-76.5 776.5,-95.5 940.5,-95.5 940.5,-76.5 776.5,-76.5"/>
<text text-anchor="middle" x="858.5" y="-83.5" font-family="Helvetica,sans-Serif" font-size="10.00" fill="#000000">omc_Config_getRunningTestsuite</text>
</a>
</g>
</g>
<!-- Node22060&#45;&gt;Node22069 -->
<g id="edge29" class="edge">
<title>Node22060&#45;&gt;Node22069</title>
<path fill="none" stroke="#191970" d="M710.6933,-99.0924C728.311,-97.5319 747.641,-95.8197 766.3459,-94.1628"/>
<polygon fill="#191970" stroke="#191970" points="766.7048,-97.6448 776.3569,-93.2761 766.0871,-90.6721 766.7048,-97.6448"/>
</g>
<!-- Node22071 -->
<g id="node31" class="node">
<title>Node22071</title>
<g id="a_node31"><a xlink:href="../../d1/d5c/_config_8c.html#a9b4cae615bdffda9b7abbe6e04b1e6a5" target="_top" xlink:title="omc_Config_getRunningWSMTestsuite">
<polygon fill="#ffffff" stroke="#000000" points="764,-114.5 764,-133.5 953,-133.5 953,-114.5 764,-114.5"/>
<text text-anchor="middle" x="858.5" y="-121.5" font-family="Helvetica,sans-Serif" font-size="10.00" fill="#000000">omc_Config_getRunningWSMTestsuite</text>
</a>
</g>
</g>
<!-- Node22060&#45;&gt;Node22071 -->
<g id="edge32" class="edge">
<title>Node22060&#45;&gt;Node22071</title>
<path fill="none" stroke="#191970" d="M710.6933,-110.9076C724.3828,-112.1202 739.1061,-113.4243 753.7667,-114.7229"/>
<polygon fill="#191970" stroke="#191970" points="753.623,-118.2238 763.8928,-115.6199 754.2407,-111.2511 753.623,-118.2238"/>
</g>
<!-- Node22062 -->
<g id="node22" class="node">
<title>Node22062</title>
<g id="a_node22"><a xlink:href="../../d1/d95/_system_8c.html#acb158f48d2d963dbc65eb161259659a7" target="_top" xlink:title="omc_System_basename">
<polygon fill="#ffffff" stroke="#000000" points="995,-38.5 995,-57.5 1120,-57.5 1120,-38.5 995,-38.5"/>
<text text-anchor="middle" x="1057.5" y="-45.5" font-family="Helvetica,sans-Serif" font-size="10.00" fill="#000000">omc_System_basename</text>
</a>
</g>
</g>
<!-- Node22061&#45;&gt;Node22062 -->
<g id="edge22" class="edge">
<title>Node22061&#45;&gt;Node22062</title>
<path fill="none" stroke="#191970" d="M927.5421,-48C946.012,-48 966.0315,-48 984.6974,-48"/>
<polygon fill="#191970" stroke="#191970" points="984.9096,-51.5001 994.9096,-48 984.9096,-44.5001 984.9096,-51.5001"/>
</g>
<!-- Node22067 -->
<g id="node27" class="node">
<title>Node22067</title>
<g id="a_node27"><a xlink:href="../../d1/d95/_system_8c.html#ab4261551580fc07778c15d3b0cb0cdfd" target="_top" xlink:title="omc_System_os">
<polygon fill="#ffffff" stroke="#000000" points="1012.5,-.5 1012.5,-19.5 1102.5,-19.5 1102.5,-.5 1012.5,-.5"/>
<text text-anchor="middle" x="1057.5" y="-7.5" font-family="Helvetica,sans-Serif" font-size="10.00" fill="#000000">omc_System_os</text>
</a>
</g>
</g>
<!-- Node22061&#45;&gt;Node22067 -->
<g id="edge27" class="edge">
<title>Node22061&#45;&gt;Node22067</title>
<path fill="none" stroke="#191970" d="M908.4592,-38.46C936.9873,-33.0125 972.81,-26.172 1002.1851,-20.5626"/>
<polygon fill="#191970" stroke="#191970" points="1003.118,-23.9478 1012.284,-18.6342 1001.805,-17.0721 1003.118,-23.9478"/>
</g>
<!-- Node22063 -->
<g id="node23" class="node">
<title>Node22063</title>
<g id="a_node23"><a xlink:href="../../d8/d28/_compiler_2boot_2build_2system_8h.html#a7b722b53b1ba7f3ffdc3624727daa000" target="_top" xlink:title="System_basename">
<polygon fill="#ffffff" stroke="#000000" points="1180,-38.5 1180,-57.5 1281,-57.5 1281,-38.5 1180,-38.5"/>
<text text-anchor="middle" x="1230.5" y="-45.5" font-family="Helvetica,sans-Serif" font-size="10.00" fill="#000000">System_basename</text>
</a>
</g>
</g>
<!-- Node22062&#45;&gt;Node22063 -->
<g id="edge23" class="edge">
<title>Node22062&#45;&gt;Node22063</title>
<path fill="none" stroke="#191970" d="M1120.4464,-48C1136.4551,-48 1153.6291,-48 1169.5371,-48"/>
<polygon fill="#191970" stroke="#191970" points="1169.7833,-51.5001 1179.7833,-48 1169.7832,-44.5001 1169.7833,-51.5001"/>
</g>
<!-- Node22064 -->
<g id="node24" class="node">
<title>Node22064</title>
<g id="a_node24"><a xlink:href="../../d4/d45/systemimpl_8c.html#af0ce445d63d4d737a2ed25d05b45463c" target="_top" xlink:title="SystemImpl__basename">
<polygon fill="#ffffff" stroke="#000000" points="1335,-76.5 1335,-95.5 1460,-95.5 1460,-76.5 1335,-76.5"/>
<text text-anchor="middle" x="1397.5" y="-83.5" font-family="Helvetica,sans-Serif" font-size="10.00" fill="#000000">SystemImpl__basename</text>
</a>
</g>
</g>
<!-- Node22063&#45;&gt;Node22064 -->
<g id="edge24" class="edge">
<title>Node22063&#45;&gt;Node22064</title>
<path fill="none" stroke="#191970" d="M1272.6412,-57.589C1294.8771,-62.6487 1322.3482,-68.8996 1345.8564,-74.2488"/>
<polygon fill="#191970" stroke="#191970" points="1345.1345,-77.6739 1355.6619,-76.4799 1346.6877,-70.8484 1345.1345,-77.6739"/>
</g>
<!-- Node22065 -->
<g id="node25" class="node">
<title>Node22065</title>
<g id="a_node25"><a xlink:href="../../d7/dcd/group__core_utils.html#gaeccaa0b46edead0608a6982dddb917ec" target="_top" xlink:title="Allocate memory for a Modelica string which is used as return argument of an external Modelica functi...">
<polygon fill="#ffffff" stroke="#000000" points="1339.5,-38.5 1339.5,-57.5 1455.5,-57.5 1455.5,-38.5 1339.5,-38.5"/>
<text text-anchor="middle" x="1397.5" y="-45.5" font-family="Helvetica,sans-Serif" font-size="10.00" fill="#000000">ModelicaAllocateString</text>
</a>
</g>
</g>
<!-- Node22063&#45;&gt;Node22065 -->
<g id="edge25" class="edge">
<title>Node22063&#45;&gt;Node22065</title>
<path fill="none" stroke="#191970" d="M1281.0587,-48C1296.1001,-48 1312.8399,-48 1328.83,-48"/>
<polygon fill="#191970" stroke="#191970" points="1329.2042,-51.5001 1339.2042,-48 1329.2041,-44.5001 1329.2042,-51.5001"/>
</g>
<!-- Node22066 -->
<g id="node26" class="node">
<title>Node22066</title>
<g id="a_node26"><a xlink:href="../../d6/d84/3rd_party_2open62541_2open62541_8h.html#aa383452fe445bfae989358c9d7d96f4f" target="_top" xlink:title="strlen">
<polygon fill="#ffffff" stroke="#000000" points="1377,-.5 1377,-19.5 1418,-19.5 1418,-.5 1377,-.5"/>
<text text-anchor="middle" x="1397.5" y="-7.5" font-family="Helvetica,sans-Serif" font-size="10.00" fill="#000000">strlen</text>
</a>
</g>
</g>
<!-- Node22063&#45;&gt;Node22066 -->
<g id="edge26" class="edge">
<title>Node22063&#45;&gt;Node22066</title>
<path fill="none" stroke="#191970" d="M1272.6412,-38.411C1301.9852,-31.7339 1340.4462,-22.9823 1366.8852,-16.9662"/>
<polygon fill="#191970" stroke="#191970" points="1367.7549,-20.3579 1376.7291,-14.7263 1366.2017,-13.5324 1367.7549,-20.3579"/>
</g>
<!-- Node22068 -->
<g id="node28" class="node">
<title>Node22068</title>
<g id="a_node28"><a xlink:href="../../d8/d28/_compiler_2boot_2build_2system_8h.html#a967ce96198372dc665f235bb728adb6f" target="_top" xlink:title="System_os">
<polygon fill="#ffffff" stroke="#000000" points="1197.5,-.5 1197.5,-19.5 1263.5,-19.5 1263.5,-.5 1197.5,-.5"/>
<text text-anchor="middle" x="1230.5" y="-7.5" font-family="Helvetica,sans-Serif" font-size="10.00" fill="#000000">System_os</text>
</a>
</g>
</g>
<!-- Node22067&#45;&gt;Node22068 -->
<g id="edge28" class="edge">
<title>Node22067&#45;&gt;Node22068</title>
<path fill="none" stroke="#191970" d="M1102.5021,-10C1128.6358,-10 1161.3924,-10 1187.2258,-10"/>
<polygon fill="#191970" stroke="#191970" points="1187.4739,-13.5001 1197.4739,-10 1187.4738,-6.5001 1187.4739,-13.5001"/>
</g>
<!-- Node22070 -->
<g id="node30" class="node">
<title>Node22070</title>
<g id="a_node30"><a xlink:href="../../d3/db3/_flags_8c.html#a1bdc57ee7db1a86ebd954e1aa4d04c0c" target="_top" xlink:title="omc_Flags_getConfigString">
<polygon fill="#ffffff" stroke="#000000" points="989,-76.5 989,-95.5 1126,-95.5 1126,-76.5 989,-76.5"/>
<text text-anchor="middle" x="1057.5" y="-83.5" font-family="Helvetica,sans-Serif" font-size="10.00" fill="#000000">omc_Flags_getConfigString</text>
</a>
</g>
</g>
<!-- Node22069&#45;&gt;Node22070 -->
<g id="edge30" class="edge">
<title>Node22069&#45;&gt;Node22070</title>
<path fill="none" stroke="#191970" d="M940.5898,-86C953.1364,-86 966.0642,-86 978.5414,-86"/>
<polygon fill="#191970" stroke="#191970" points="978.898,-89.5001 988.898,-86 978.8979,-82.5001 978.898,-89.5001"/>
</g>
<!-- Node22070&#45;&gt;Node22048 -->
<g id="edge31" class="edge">
<title>Node22070&#45;&gt;Node22048</title>
<path fill="none" stroke="#191970" d="M1101.1552,-95.589C1124.2929,-100.6713 1152.9024,-106.9554 1177.3268,-112.3203"/>
<polygon fill="#191970" stroke="#191970" points="1176.6406,-115.753 1187.1587,-114.4799 1178.1425,-108.916 1176.6406,-115.753"/>
</g>
<!-- Node22071&#45;&gt;Node22047 -->
<g id="edge33" class="edge">
<title>Node22071&#45;&gt;Node22047</title>
<path fill="none" stroke="#191970" d="M953.0463,-124C962.6938,-124 972.4037,-124 981.8118,-124"/>
<polygon fill="#191970" stroke="#191970" points="981.885,-127.5001 991.8849,-124 981.8849,-120.5001 981.885,-127.5001"/>
</g>
<!-- Node22073 -->
<g id="node33" class="node">
<title>Node22073</title>
<g id="a_node33"><a xlink:href="../../d2/d57/build_2include_2omc_2c_2meta_2meta__modelica__builtin_8h.html#a81001ba45c298ade27540edd2589777c" target="_top" xlink:title="listReverse">
<polygon fill="#ffffff" stroke="#000000" points="412,-152.5 412,-171.5 478,-171.5 478,-152.5 412,-152.5"/>
<text text-anchor="middle" x="445" y="-159.5" font-family="Helvetica,sans-Serif" font-size="10.00" fill="#000000">listReverse</text>
</a>
</g>
</g>
<!-- Node22072&#45;&gt;Node22073 -->
<g id="edge35" class="edge">
<title>Node22072&#45;&gt;Node22073</title>
<path fill="none" stroke="#191970" d="M302.6123,-191.4595C332.837,-185.2061 372.0899,-177.0848 401.7254,-170.9534"/>
<polygon fill="#191970" stroke="#191970" points="402.6927,-174.3274 411.7762,-168.8739 401.2744,-167.4726 402.6927,-174.3274"/>
</g>
<!-- Node22074 -->
<g id="node34" class="node">
<title>Node22074</title>
<g id="a_node34"><a xlink:href="../../d2/d57/build_2include_2omc_2c_2meta_2meta__modelica__builtin_8h.html#ad7cc5a28ee76a604bbbddfd643761734" target="_top" xlink:title="listReverseInPlace">
<polygon fill="#ffffff" stroke="#000000" points="395.5,-190.5 395.5,-209.5 494.5,-209.5 494.5,-190.5 395.5,-190.5"/>
<text text-anchor="middle" x="445" y="-197.5" font-family="Helvetica,sans-Serif" font-size="10.00" fill="#000000">listReverseInPlace</text>
</a>
</g>
</g>
<!-- Node22072&#45;&gt;Node22074 -->
<g id="edge36" class="edge">
<title>Node22072&#45;&gt;Node22074</title>
<path fill="none" stroke="#191970" d="M305.5341,-200.7399C329.7907,-200.6112 359.2838,-200.4547 384.8897,-200.3189"/>
<polygon fill="#191970" stroke="#191970" points="385.247,-203.8171 395.2282,-200.264 385.2098,-196.8172 385.247,-203.8171"/>
</g>
<!-- Node22075&#45;&gt;Node22042 -->
<g id="edge38" class="edge">
<title>Node22075&#45;&gt;Node22042</title>
<path fill="none" stroke="#191970" d="M271.1221,-332.6649C291.5646,-345.7841 330.209,-369.1738 366,-383 372.4539,-385.4932 379.3346,-387.7284 386.2417,-389.7131"/>
<polygon fill="#191970" stroke="#191970" points="385.7667,-393.2103 396.3336,-392.4424 387.5942,-386.4531 385.7667,-393.2103"/>
</g>
<!-- Node22075&#45;&gt;Node22043 -->
<g id="edge39" class="edge">
<title>Node22075&#45;&gt;Node22043</title>
<path fill="none" stroke="#191970" d="M300.2195,-332.5093C331.9764,-339.4166 374.5998,-348.6875 405.3669,-355.3795"/>
<polygon fill="#191970" stroke="#191970" points="404.7981,-358.8376 415.3136,-357.543 406.2859,-351.9975 404.7981,-358.8376"/>
</g>
<!-- Node22075&#45;&gt;Node22044 -->
<g id="edge42" class="edge">
<title>Node22075&#45;&gt;Node22044</title>
<path fill="none" stroke="#191970" d="M300.2195,-313.4907C319.7358,-309.2458 343.3563,-304.1082 365.8066,-299.2251"/>
<polygon fill="#191970" stroke="#191970" points="366.6518,-302.6232 375.6795,-297.0777 365.164,-295.7831 366.6518,-302.6232"/>
</g>
<!-- Node22075&#45;&gt;Node22046 -->
<g id="edge40" class="edge">
<title>Node22075&#45;&gt;Node22046</title>
<path fill="none" stroke="#191970" d="M269.6659,-313.4666C289.5926,-299.4466 329.0181,-273.2808 366,-258 373.0006,-255.1074 380.5284,-252.5499 388.0566,-250.3139"/>
<polygon fill="#191970" stroke="#191970" points="389.2214,-253.6225 397.9092,-247.5585 387.3361,-246.8812 389.2214,-253.6225"/>
</g>
<!-- Node22076 -->
<g id="node36" class="node">
<title>Node22076</title>
<g id="a_node36"><a xlink:href="../../da/d72/_compiler_2boot_2build_2list_8c.html#a80cc62cc0ef2d9ea902f1f0735a0d034" target="_top" xlink:title="omc_List_split">
<polygon fill="#ffffff" stroke="#000000" points="405,-316.5 405,-335.5 485,-335.5 485,-316.5 405,-316.5"/>
<text text-anchor="middle" x="445" y="-323.5" font-family="Helvetica,sans-Serif" font-size="10.00" fill="#000000">omc_List_split</text>
</a>
</g>
</g>
<!-- Node22075&#45;&gt;Node22076 -->
<g id="edge41" class="edge">
<title>Node22075&#45;&gt;Node22076</title>
<path fill="none" stroke="#191970" d="M330.1889,-324.1728C351.8201,-324.517 374.9703,-324.8855 394.7753,-325.2007"/>
<polygon fill="#191970" stroke="#191970" points="394.7469,-328.7006 404.8013,-325.3602 394.8583,-321.7014 394.7469,-328.7006"/>
</g>
</g>
</svg>
