<?xml version="1.0" encoding="UTF-8" standalone="no"?>
<!DOCTYPE svg PUBLIC "-//W3C//DTD SVG 1.1//EN"
 "http://www.w3.org/Graphics/SVG/1.1/DTD/svg11.dtd">
<!-- Generated by graphviz version 2.40.1 (20161225.0304)
 -->
<!-- Title: omc_Expression_makeAsubAddIndex Pages: 1 -->
<svg width="351pt" height="39pt"
 viewBox="0.00 0.00 351.00 39.00" xmlns="http://www.w3.org/2000/svg" xmlns:xlink="http://www.w3.org/1999/xlink">
<g id="graph0" class="graph" transform="scale(1 1) rotate(0) translate(4 35)">
<title>omc_Expression_makeAsubAddIndex</title>
<polygon fill="#ffffff" stroke="transparent" points="-4,4 -4,-35 347,-35 347,4 -4,4"/>
<!-- Node22129 -->
<g id="node1" class="node">
<title>Node22129</title>
<polygon fill="#bfbfbf" stroke="#000000" points="0,-.5 0,-30.5 158,-30.5 158,-.5 0,-.5"/>
<text text-anchor="start" x="8" y="-18.5" font-family="Helvetica,sans-Serif" font-size="10.00" fill="#000000">omc_Expression_makeAsubAdd</text>
<text text-anchor="middle" x="79" y="-7.5" font-family="Helvetica,sans-Serif" font-size="10.00" fill="#000000">Index</text>
</g>
<!-- Node22130 -->
<g id="node2" class="node">
<title>Node22130</title>
<g id="a_node2"><a xlink:href="../../d6/d99/_expression_8h.html#a14798e1a1b390f714f3f70596ae105bf" target="_top" xlink:title="boxptr_Expression_makeAsub\lAddIndex">
<polygon fill="#ffffff" stroke="#000000" points="194,-.5 194,-30.5 343,-30.5 343,-.5 194,-.5"/>
<text text-anchor="start" x="202" y="-18.5" font-family="Helvetica,sans-Serif" font-size="10.00" fill="#000000">boxptr_Expression_makeAsub</text>
<text text-anchor="middle" x="268.5" y="-7.5" font-family="Helvetica,sans-Serif" font-size="10.00" fill="#000000">AddIndex</text>
</a>
</g>
</g>
<!-- Node22129&#45;&gt;Node22130 -->
<g id="edge1" class="edge">
<title>Node22129&#45;&gt;Node22130</title>
<path fill="none" stroke="#191970" d="M168.5333,-15.5C176.9873,-15.5 185.4968,-15.5 193.7916,-15.5"/>
<polygon fill="#191970" stroke="#191970" points="168.2671,-12.0001 158.2671,-15.5 168.267,-19.0001 168.2671,-12.0001"/>
</g>
</g>
</svg>
