<?xml version="1.0" encoding="UTF-8" standalone="no"?>
<!DOCTYPE svg PUBLIC "-//W3C//DTD SVG 1.1//EN"
 "http://www.w3.org/Graphics/SVG/1.1/DTD/svg11.dtd">
<!-- Generated by graphviz version 2.40.1 (20161225.0304)
 -->
<!-- Title: boxptr_Expression_opComplexity Pages: 1 -->
<svg width="1599pt" height="294pt"
 viewBox="0.00 0.00 1599.00 294.00" xmlns="http://www.w3.org/2000/svg" xmlns:xlink="http://www.w3.org/1999/xlink">
<g id="graph0" class="graph" transform="scale(1 1) rotate(0) translate(4 290)">
<title>boxptr_Expression_opComplexity</title>
<polygon fill="#ffffff" stroke="transparent" points="-4,4 -4,-290 1595,-290 1595,4 -4,4"/>
<!-- Node1323 -->
<g id="node1" class="node">
<title>Node1323</title>
<polygon fill="#bfbfbf" stroke="#000000" points="0,-133.5 0,-152.5 163,-152.5 163,-133.5 0,-133.5"/>
<text text-anchor="middle" x="81.5" y="-140.5" font-family="Helvetica,sans-Serif" font-size="10.00" fill="#000000">boxptr_Expression_opComplexity</text>
</g>
<!-- Node1324 -->
<g id="node2" class="node">
<title>Node1324</title>
<g id="a_node2"><a xlink:href="../../d1/d08/_expression_8c.html#adf1219c4a8b02d209e93a5da42a81c9f" target="_top" xlink:title="omc_Expression_opComplexity">
<polygon fill="#ffffff" stroke="#000000" points="199,-133.5 199,-152.5 354,-152.5 354,-133.5 199,-133.5"/>
<text text-anchor="middle" x="276.5" y="-140.5" font-family="Helvetica,sans-Serif" font-size="10.00" fill="#000000">omc_Expression_opComplexity</text>
</a>
</g>
</g>
<!-- Node1323&#45;&gt;Node1324 -->
<g id="edge1" class="edge">
<title>Node1323&#45;&gt;Node1324</title>
<path fill="none" stroke="#191970" d="M163.0677,-143C171.452,-143 179.9978,-143 188.4481,-143"/>
<polygon fill="#191970" stroke="#191970" points="188.691,-146.5001 198.6909,-143 188.6909,-139.5001 188.691,-146.5001"/>
</g>
<!-- Node1325 -->
<g id="node3" class="node">
<title>Node1325</title>
<g id="a_node3"><a xlink:href="../../d1/d08/_expression_8c.html#aaece54f8da8f428f90733e541d93ed3d" target="_top" xlink:title="omc_Expression_tpComplexity">
<polygon fill="#ffffff" stroke="#000000" points="390,-209.5 390,-228.5 542,-228.5 542,-209.5 390,-209.5"/>
<text text-anchor="middle" x="466" y="-216.5" font-family="Helvetica,sans-Serif" font-size="10.00" fill="#000000">omc_Expression_tpComplexity</text>
</a>
</g>
</g>
<!-- Node1324&#45;&gt;Node1325 -->
<g id="edge2" class="edge">
<title>Node1324&#45;&gt;Node1325</title>
<path fill="none" stroke="#191970" d="M300.5003,-152.6255C333.9613,-166.0452 394.7727,-190.4339 432.6311,-205.6172"/>
<polygon fill="#191970" stroke="#191970" points="431.6103,-208.9788 442.1946,-209.4527 434.216,-202.4818 431.6103,-208.9788"/>
</g>
<!-- Node1327 -->
<g id="node5" class="node">
<title>Node1327</title>
<g id="a_node5"><a xlink:href="../../db/da1/_compiler_2boot_2build_2error_8c.html#ac7cb956267dd6443414eb83a5c0b4693" target="_top" xlink:title="omc_Error_addMessage">
<polygon fill="#ffffff" stroke="#000000" points="405,-114.5 405,-133.5 527,-133.5 527,-114.5 405,-114.5"/>
<text text-anchor="middle" x="466" y="-121.5" font-family="Helvetica,sans-Serif" font-size="10.00" fill="#000000">omc_Error_addMessage</text>
</a>
</g>
</g>
<!-- Node1324&#45;&gt;Node1327 -->
<g id="edge4" class="edge">
<title>Node1324&#45;&gt;Node1327</title>
<path fill="none" stroke="#191970" d="M354.1237,-135.2172C367.5631,-133.8697 381.478,-132.4745 394.7379,-131.145"/>
<polygon fill="#191970" stroke="#191970" points="395.1305,-134.6233 404.7314,-130.143 394.4321,-127.6582 395.1305,-134.6233"/>
</g>
<!-- Node1326 -->
<g id="node4" class="node">
<title>Node1326</title>
<g id="a_node4"><a xlink:href="../../da/d72/_compiler_2boot_2build_2list_8c.html#a997adca56a546c8e84f98edee3074da5" target="_top" xlink:title="omc_List_applyAndFold">
<polygon fill="#ffffff" stroke="#000000" points="601.5,-266.5 601.5,-285.5 722.5,-285.5 722.5,-266.5 601.5,-266.5"/>
<text text-anchor="middle" x="662" y="-273.5" font-family="Helvetica,sans-Serif" font-size="10.00" fill="#000000">omc_List_applyAndFold</text>
</a>
</g>
</g>
<!-- Node1325&#45;&gt;Node1326 -->
<g id="edge3" class="edge">
<title>Node1325&#45;&gt;Node1326</title>
<path fill="none" stroke="#191970" d="M498.3269,-228.6014C520.6873,-235.2239 551.1343,-244.2043 578,-252 591.2323,-255.8397 605.6511,-259.9765 618.748,-263.716"/>
<polygon fill="#191970" stroke="#191970" points="617.8876,-267.1101 628.4641,-266.4867 619.8073,-260.3784 617.8876,-267.1101"/>
</g>
<!-- Node1328 -->
<g id="node6" class="node">
<title>Node1328</title>
<g id="a_node6"><a xlink:href="../../d3/db3/_flags_8c.html#abc3d84cf6e1cf18f0cec0f052e7c85d9" target="_top" xlink:title="omc_Flags_getConfigBool">
<polygon fill="#ffffff" stroke="#000000" points="1010,-190.5 1010,-209.5 1141,-209.5 1141,-190.5 1010,-190.5"/>
<text text-anchor="middle" x="1075.5" y="-197.5" font-family="Helvetica,sans-Serif" font-size="10.00" fill="#000000">omc_Flags_getConfigBool</text>
</a>
</g>
</g>
<!-- Node1327&#45;&gt;Node1328 -->
<g id="edge5" class="edge">
<title>Node1327&#45;&gt;Node1328</title>
<path fill="none" stroke="#191970" d="M481.3246,-133.6018C502.3383,-146.3393 541.6413,-168.6492 578,-181 744.1564,-237.4424 796.2278,-234.7592 971,-219 988.0338,-217.4641 1006.4419,-214.5471 1022.9926,-211.4513"/>
<polygon fill="#191970" stroke="#191970" points="1023.8747,-214.8457 1033.0287,-209.5114 1022.5462,-207.9729 1023.8747,-214.8457"/>
</g>
<!-- Node1332 -->
<g id="node10" class="node">
<title>Node1332</title>
<g id="a_node10"><a xlink:href="../../db/da1/_compiler_2boot_2build_2error_8c.html#aeb78c231e1d6119f91343f400ce91a08" target="_top" xlink:title="omc_Error_getCurrentComponent">
<polygon fill="#ffffff" stroke="#000000" points="580.5,-76.5 580.5,-95.5 743.5,-95.5 743.5,-76.5 580.5,-76.5"/>
<text text-anchor="middle" x="662" y="-83.5" font-family="Helvetica,sans-Serif" font-size="10.00" fill="#000000">omc_Error_getCurrentComponent</text>
</a>
</g>
</g>
<!-- Node1327&#45;&gt;Node1332 -->
<g id="edge9" class="edge">
<title>Node1327&#45;&gt;Node1332</title>
<path fill="none" stroke="#191970" d="M515.2061,-114.46C541.7674,-109.3104 574.7491,-102.916 602.7175,-97.4935"/>
<polygon fill="#191970" stroke="#191970" points="603.6227,-100.8833 612.7737,-95.5439 602.2903,-94.0113 603.6227,-100.8833"/>
</g>
<!-- Node1333 -->
<g id="node11" class="node">
<title>Node1333</title>
<g id="a_node11"><a xlink:href="../../d7/deb/build_2include_2omc_2c_2util_2modelica__string_8c.html#a751007abc59e9ca7978f2af10a0c814f" target="_top" xlink:title="stringAppend">
<polygon fill="#ffffff" stroke="#000000" points="839.5,-76.5 839.5,-95.5 913.5,-95.5 913.5,-76.5 839.5,-76.5"/>
<text text-anchor="middle" x="876.5" y="-83.5" font-family="Helvetica,sans-Serif" font-size="10.00" fill="#000000">stringAppend</text>
</a>
</g>
</g>
<!-- Node1327&#45;&gt;Node1333 -->
<g id="edge14" class="edge">
<title>Node1327&#45;&gt;Node1333</title>
<path fill="none" stroke="#191970" d="M527.0186,-121.2123C583.8192,-118.2968 670.7836,-113.0155 746,-105 773.6894,-102.0492 804.5246,-97.6136 829.2666,-93.7701"/>
<polygon fill="#191970" stroke="#191970" points="830.1355,-97.1766 839.4702,-92.1652 829.0478,-90.2616 830.1355,-97.1766"/>
</g>
<!-- Node1334 -->
<g id="node12" class="node">
<title>Node1334</title>
<g id="a_node12"><a xlink:href="../../d9/d7c/_compiler_2boot_2build_2util_8c.html#af677b04abc76ada92619360b1a4e1238" target="_top" xlink:title="omc_Util_translateContent">
<polygon fill="#ffffff" stroke="#000000" points="595.5,-38.5 595.5,-57.5 728.5,-57.5 728.5,-38.5 595.5,-38.5"/>
<text text-anchor="middle" x="662" y="-45.5" font-family="Helvetica,sans-Serif" font-size="10.00" fill="#000000">omc_Util_translateContent</text>
</a>
</g>
</g>
<!-- Node1327&#45;&gt;Node1334 -->
<g id="edge11" class="edge">
<title>Node1327&#45;&gt;Node1334</title>
<path fill="none" stroke="#191970" d="M481.7571,-114.3873C502.9378,-101.844 542.0895,-79.9704 578,-67 585.2181,-64.3929 592.9185,-62.0675 600.6177,-60.0156"/>
<polygon fill="#191970" stroke="#191970" points="601.4944,-63.4041 610.333,-57.5621 599.7804,-56.6172 601.4944,-63.4041"/>
</g>
<!-- Node1337 -->
<g id="node15" class="node">
<title>Node1337</title>
<g id="a_node15"><a xlink:href="../../d4/dce/_error_ext_8c.html#a2aab7fef8718e5c7b0e410daf818bf99" target="_top" xlink:title="omc_ErrorExt_addSourceMessage">
<polygon fill="#ffffff" stroke="#000000" points="578,-.5 578,-19.5 746,-19.5 746,-.5 578,-.5"/>
<text text-anchor="middle" x="662" y="-7.5" font-family="Helvetica,sans-Serif" font-size="10.00" fill="#000000">omc_ErrorExt_addSourceMessage</text>
</a>
</g>
</g>
<!-- Node1327&#45;&gt;Node1337 -->
<g id="edge15" class="edge">
<title>Node1327&#45;&gt;Node1337</title>
<path fill="none" stroke="#191970" d="M474.2045,-114.4686C491.3879,-95.1489 533.2859,-51.3182 578,-29 582.8495,-26.5795 588.0099,-24.4635 593.2959,-22.6143"/>
<polygon fill="#191970" stroke="#191970" points="594.4326,-25.9257 602.9063,-19.5658 592.3161,-19.2533 594.4326,-25.9257"/>
</g>
<!-- Node1341 -->
<g id="node19" class="node">
<title>Node1341</title>
<g id="a_node19"><a xlink:href="../../d9/d7c/_compiler_2boot_2build_2util_8c.html#ad7f719bd6355b185d211a8c8ff0cc7be" target="_top" xlink:title="omc_Util_testsuiteFriendly">
<polygon fill="#ffffff" stroke="#000000" points="595.5,-152.5 595.5,-171.5 728.5,-171.5 728.5,-152.5 595.5,-152.5"/>
<text text-anchor="middle" x="662" y="-159.5" font-family="Helvetica,sans-Serif" font-size="10.00" fill="#000000">omc_Util_testsuiteFriendly</text>
</a>
</g>
</g>
<!-- Node1327&#45;&gt;Node1341 -->
<g id="edge19" class="edge">
<title>Node1327&#45;&gt;Node1341</title>
<path fill="none" stroke="#191970" d="M515.2061,-133.54C541.7674,-138.6896 574.7491,-145.084 602.7175,-150.5065"/>
<polygon fill="#191970" stroke="#191970" points="602.2903,-153.9887 612.7737,-152.4561 603.6227,-147.1167 602.2903,-153.9887"/>
</g>
<!-- Node1329 -->
<g id="node7" class="node">
<title>Node1329</title>
<g id="a_node7"><a xlink:href="../../d3/db3/_flags_8c.html#a96ba70d54b6662cf90933a207c0c6b8e" target="_top" xlink:title="omc_Flags_getConfigValue">
<polygon fill="#ffffff" stroke="#000000" points="1180,-190.5 1180,-209.5 1317,-209.5 1317,-190.5 1180,-190.5"/>
<text text-anchor="middle" x="1248.5" y="-197.5" font-family="Helvetica,sans-Serif" font-size="10.00" fill="#000000">omc_Flags_getConfigValue</text>
</a>
</g>
</g>
<!-- Node1328&#45;&gt;Node1329 -->
<g id="edge6" class="edge">
<title>Node1328&#45;&gt;Node1329</title>
<path fill="none" stroke="#191970" d="M1141.3974,-200C1150.6537,-200 1160.2443,-200 1169.7107,-200"/>
<polygon fill="#191970" stroke="#191970" points="1169.9123,-203.5001 1179.9123,-200 1169.9123,-196.5001 1169.9123,-203.5001"/>
</g>
<!-- Node1330 -->
<g id="node8" class="node">
<title>Node1330</title>
<g id="a_node8"><a xlink:href="../../d3/db3/_flags_8c.html#a760d66f53b65ac257876ca0f6308f09f" target="_top" xlink:title="omc_Flags_loadFlags">
<polygon fill="#ffffff" stroke="#000000" points="1359.5,-190.5 1359.5,-209.5 1471.5,-209.5 1471.5,-190.5 1359.5,-190.5"/>
<text text-anchor="middle" x="1415.5" y="-197.5" font-family="Helvetica,sans-Serif" font-size="10.00" fill="#000000">omc_Flags_loadFlags</text>
</a>
</g>
</g>
<!-- Node1329&#45;&gt;Node1330 -->
<g id="edge7" class="edge">
<title>Node1329&#45;&gt;Node1330</title>
<path fill="none" stroke="#191970" d="M1317.3895,-200C1327.9016,-200 1338.7327,-200 1349.188,-200"/>
<polygon fill="#191970" stroke="#191970" points="1349.4923,-203.5001 1359.4922,-200 1349.4922,-196.5001 1349.4923,-203.5001"/>
</g>
<!-- Node1331 -->
<g id="node9" class="node">
<title>Node1331</title>
<g id="a_node9"><a xlink:href="../../da/d72/_compiler_2boot_2build_2list_8c.html#a3ec1ee3a5ff53be9af368e290be09182" target="_top" xlink:title="omc_List_fold">
<polygon fill="#ffffff" stroke="#000000" points="1514,-190.5 1514,-209.5 1591,-209.5 1591,-190.5 1514,-190.5"/>
<text text-anchor="middle" x="1552.5" y="-197.5" font-family="Helvetica,sans-Serif" font-size="10.00" fill="#000000">omc_List_fold</text>
</a>
</g>
</g>
<!-- Node1330&#45;&gt;Node1331 -->
<g id="edge8" class="edge">
<title>Node1330&#45;&gt;Node1331</title>
<path fill="none" stroke="#191970" d="M1471.6184,-200C1482.2594,-200 1493.3126,-200 1503.7046,-200"/>
<polygon fill="#191970" stroke="#191970" points="1503.8364,-203.5001 1513.8363,-200 1503.8363,-196.5001 1503.8364,-203.5001"/>
</g>
<!-- Node1332&#45;&gt;Node1333 -->
<g id="edge10" class="edge">
<title>Node1332&#45;&gt;Node1333</title>
<path fill="none" stroke="#191970" d="M743.7052,-86C772.5044,-86 803.9129,-86 828.9509,-86"/>
<polygon fill="#191970" stroke="#191970" points="829.2652,-89.5001 839.2652,-86 829.2652,-82.5001 829.2652,-89.5001"/>
</g>
<!-- Node1335 -->
<g id="node13" class="node">
<title>Node1335</title>
<g id="a_node13"><a xlink:href="../../d1/d95/_system_8c.html#ae39e41c84235850a135a73187a387d21" target="_top" xlink:title="omc_System_gettext">
<polygon fill="#ffffff" stroke="#000000" points="821.5,-38.5 821.5,-57.5 931.5,-57.5 931.5,-38.5 821.5,-38.5"/>
<text text-anchor="middle" x="876.5" y="-45.5" font-family="Helvetica,sans-Serif" font-size="10.00" fill="#000000">omc_System_gettext</text>
</a>
</g>
</g>
<!-- Node1334&#45;&gt;Node1335 -->
<g id="edge12" class="edge">
<title>Node1334&#45;&gt;Node1335</title>
<path fill="none" stroke="#191970" d="M728.6933,-48C754.9674,-48 785.0497,-48 811.1875,-48"/>
<polygon fill="#191970" stroke="#191970" points="811.3698,-51.5001 821.3698,-48 811.3697,-44.5001 811.3698,-51.5001"/>
</g>
<!-- Node1336 -->
<g id="node14" class="node">
<title>Node1336</title>
<g id="a_node14"><a xlink:href="../../d8/d28/_compiler_2boot_2build_2system_8h.html#a082d216ff61d9f3b30e1fe92e3fc5860" target="_top" xlink:title="SystemImpl__gettext">
<polygon fill="#ffffff" stroke="#000000" points="1020.5,-38.5 1020.5,-57.5 1130.5,-57.5 1130.5,-38.5 1020.5,-38.5"/>
<text text-anchor="middle" x="1075.5" y="-45.5" font-family="Helvetica,sans-Serif" font-size="10.00" fill="#000000">SystemImpl__gettext</text>
</a>
</g>
</g>
<!-- Node1335&#45;&gt;Node1336 -->
<g id="edge13" class="edge">
<title>Node1335&#45;&gt;Node1336</title>
<path fill="none" stroke="#191970" d="M931.6683,-48C955.9315,-48 984.6155,-48 1009.9594,-48"/>
<polygon fill="#191970" stroke="#191970" points="1010.2244,-51.5001 1020.2244,-48 1010.2243,-44.5001 1010.2244,-51.5001"/>
</g>
<!-- Node1338 -->
<g id="node16" class="node">
<title>Node1338</title>
<g id="a_node16"><a xlink:href="../../d1/d40/boot_2build_2_error_ext_8h.html#afef4410ffb05473c1ca2f30078ee39a8" target="_top" xlink:title="Error_addSourceMessage">
<polygon fill="#ffffff" stroke="#000000" points="812,-.5 812,-19.5 941,-19.5 941,-.5 812,-.5"/>
<text text-anchor="middle" x="876.5" y="-7.5" font-family="Helvetica,sans-Serif" font-size="10.00" fill="#000000">Error_addSourceMessage</text>
</a>
</g>
</g>
<!-- Node1337&#45;&gt;Node1338 -->
<g id="edge16" class="edge">
<title>Node1337&#45;&gt;Node1338</title>
<path fill="none" stroke="#191970" d="M746.1604,-10C764.4949,-10 783.7744,-10 801.7157,-10"/>
<polygon fill="#191970" stroke="#191970" points="801.818,-13.5001 811.8179,-10 801.8179,-6.5001 801.818,-13.5001"/>
</g>
<!-- Node1339 -->
<g id="node17" class="node">
<title>Node1339</title>
<g id="a_node17"><a xlink:href="../../dc/d1d/errorext_8cpp.html#a658c4e234277aba60ad929952c45d9e2" target="_top" xlink:title="add_source_message">
<polygon fill="#ffffff" stroke="#000000" points="1019.5,-.5 1019.5,-19.5 1131.5,-19.5 1131.5,-.5 1019.5,-.5"/>
<text text-anchor="middle" x="1075.5" y="-7.5" font-family="Helvetica,sans-Serif" font-size="10.00" fill="#000000">add_source_message</text>
</a>
</g>
</g>
<!-- Node1338&#45;&gt;Node1339 -->
<g id="edge17" class="edge">
<title>Node1338&#45;&gt;Node1339</title>
<path fill="none" stroke="#191970" d="M941.1096,-10C962.8597,-10 987.1566,-10 1009.0463,-10"/>
<polygon fill="#191970" stroke="#191970" points="1009.2456,-13.5001 1019.2456,-10 1009.2455,-6.5001 1009.2456,-13.5001"/>
</g>
<!-- Node1340 -->
<g id="node18" class="node">
<title>Node1340</title>
<g id="a_node18"><a xlink:href="../../d4/dbe/_o_m_c_monitor_8c.html#ad78b5494db8b59027d08860c5efce10f" target="_top" xlink:title="ErrorMessage">
<polygon fill="#ffffff" stroke="#000000" points="1210,-.5 1210,-19.5 1287,-19.5 1287,-.5 1210,-.5"/>
<text text-anchor="middle" x="1248.5" y="-7.5" font-family="Helvetica,sans-Serif" font-size="10.00" fill="#000000">ErrorMessage</text>
</a>
</g>
</g>
<!-- Node1339&#45;&gt;Node1340 -->
<g id="edge18" class="edge">
<title>Node1339&#45;&gt;Node1340</title>
<path fill="none" stroke="#191970" d="M1131.6681,-10C1153.6281,-10 1178.5744,-10 1199.7606,-10"/>
<polygon fill="#191970" stroke="#191970" points="1199.8294,-13.5001 1209.8294,-10 1199.8294,-6.5001 1199.8294,-13.5001"/>
</g>
<!-- Node1342 -->
<g id="node20" class="node">
<title>Node1342</title>
<g id="a_node20"><a xlink:href="../../d9/d7c/_compiler_2boot_2build_2util_8c.html#ab96745984cab835c8ae43a8f02fb268b" target="_top" xlink:title="omc_Util_testsuiteFriendly2">
<polygon fill="#ffffff" stroke="#000000" points="807.5,-114.5 807.5,-133.5 945.5,-133.5 945.5,-114.5 807.5,-114.5"/>
<text text-anchor="middle" x="876.5" y="-121.5" font-family="Helvetica,sans-Serif" font-size="10.00" fill="#000000">omc_Util_testsuiteFriendly2</text>
</a>
</g>
</g>
<!-- Node1341&#45;&gt;Node1342 -->
<g id="edge20" class="edge">
<title>Node1341&#45;&gt;Node1342</title>
<path fill="none" stroke="#191970" d="M715.8505,-152.46C745.1739,-147.2652 781.6475,-140.8037 812.4262,-135.3511"/>
<polygon fill="#191970" stroke="#191970" points="813.3912,-138.7347 822.6273,-133.5439 812.1701,-131.842 813.3912,-138.7347"/>
</g>
<!-- Node1350 -->
<g id="node28" class="node">
<title>Node1350</title>
<g id="a_node28"><a xlink:href="../../d1/d5c/_config_8c.html#afa2f208e09cd9979df49295043109099" target="_top" xlink:title="omc_Config_getRunningTestsuite">
<polygon fill="#ffffff" stroke="#000000" points="794.5,-152.5 794.5,-171.5 958.5,-171.5 958.5,-152.5 794.5,-152.5"/>
<text text-anchor="middle" x="876.5" y="-159.5" font-family="Helvetica,sans-Serif" font-size="10.00" fill="#000000">omc_Config_getRunningTestsuite</text>
</a>
</g>
</g>
<!-- Node1341&#45;&gt;Node1350 -->
<g id="edge28" class="edge">
<title>Node1341&#45;&gt;Node1350</title>
<path fill="none" stroke="#191970" d="M728.6933,-162C746.311,-162 765.641,-162 784.3459,-162"/>
<polygon fill="#191970" stroke="#191970" points="784.357,-165.5001 794.3569,-162 784.3569,-158.5001 784.357,-165.5001"/>
</g>
<!-- Node1352 -->
<g id="node30" class="node">
<title>Node1352</title>
<g id="a_node30"><a xlink:href="../../d1/d5c/_config_8c.html#a9b4cae615bdffda9b7abbe6e04b1e6a5" target="_top" xlink:title="omc_Config_getRunningWSMTestsuite">
<polygon fill="#ffffff" stroke="#000000" points="782,-190.5 782,-209.5 971,-209.5 971,-190.5 782,-190.5"/>
<text text-anchor="middle" x="876.5" y="-197.5" font-family="Helvetica,sans-Serif" font-size="10.00" fill="#000000">omc_Config_getRunningWSMTestsuite</text>
</a>
</g>
</g>
<!-- Node1341&#45;&gt;Node1352 -->
<g id="edge31" class="edge">
<title>Node1341&#45;&gt;Node1352</title>
<path fill="none" stroke="#191970" d="M715.8505,-171.54C745.1739,-176.7348 781.6475,-183.1963 812.4262,-188.6489"/>
<polygon fill="#191970" stroke="#191970" points="812.1701,-192.158 822.6273,-190.4561 813.3912,-185.2653 812.1701,-192.158"/>
</g>
<!-- Node1343 -->
<g id="node21" class="node">
<title>Node1343</title>
<g id="a_node21"><a xlink:href="../../d1/d95/_system_8c.html#acb158f48d2d963dbc65eb161259659a7" target="_top" xlink:title="omc_System_basename">
<polygon fill="#ffffff" stroke="#000000" points="1013,-114.5 1013,-133.5 1138,-133.5 1138,-114.5 1013,-114.5"/>
<text text-anchor="middle" x="1075.5" y="-121.5" font-family="Helvetica,sans-Serif" font-size="10.00" fill="#000000">omc_System_basename</text>
</a>
</g>
</g>
<!-- Node1342&#45;&gt;Node1343 -->
<g id="edge21" class="edge">
<title>Node1342&#45;&gt;Node1343</title>
<path fill="none" stroke="#191970" d="M945.5421,-124C964.012,-124 984.0315,-124 1002.6974,-124"/>
<polygon fill="#191970" stroke="#191970" points="1002.9096,-127.5001 1012.9096,-124 1002.9096,-120.5001 1002.9096,-127.5001"/>
</g>
<!-- Node1348 -->
<g id="node26" class="node">
<title>Node1348</title>
<g id="a_node26"><a xlink:href="../../d1/d95/_system_8c.html#ab4261551580fc07778c15d3b0cb0cdfd" target="_top" xlink:title="omc_System_os">
<polygon fill="#ffffff" stroke="#000000" points="1030.5,-76.5 1030.5,-95.5 1120.5,-95.5 1120.5,-76.5 1030.5,-76.5"/>
<text text-anchor="middle" x="1075.5" y="-83.5" font-family="Helvetica,sans-Serif" font-size="10.00" fill="#000000">omc_System_os</text>
</a>
</g>
</g>
<!-- Node1342&#45;&gt;Node1348 -->
<g id="edge26" class="edge">
<title>Node1342&#45;&gt;Node1348</title>
<path fill="none" stroke="#191970" d="M926.4592,-114.46C954.9873,-109.0125 990.81,-102.172 1020.1851,-96.5626"/>
<polygon fill="#191970" stroke="#191970" points="1021.118,-99.9478 1030.284,-94.6342 1019.805,-93.0721 1021.118,-99.9478"/>
</g>
<!-- Node1344 -->
<g id="node22" class="node">
<title>Node1344</title>
<g id="a_node22"><a xlink:href="../../d8/d28/_compiler_2boot_2build_2system_8h.html#a7b722b53b1ba7f3ffdc3624727daa000" target="_top" xlink:title="System_basename">
<polygon fill="#ffffff" stroke="#000000" points="1198,-114.5 1198,-133.5 1299,-133.5 1299,-114.5 1198,-114.5"/>
<text text-anchor="middle" x="1248.5" y="-121.5" font-family="Helvetica,sans-Serif" font-size="10.00" fill="#000000">System_basename</text>
</a>
</g>
</g>
<!-- Node1343&#45;&gt;Node1344 -->
<g id="edge22" class="edge">
<title>Node1343&#45;&gt;Node1344</title>
<path fill="none" stroke="#191970" d="M1138.4464,-124C1154.4551,-124 1171.6291,-124 1187.5371,-124"/>
<polygon fill="#191970" stroke="#191970" points="1187.7833,-127.5001 1197.7833,-124 1187.7832,-120.5001 1187.7833,-127.5001"/>
</g>
<!-- Node1345 -->
<g id="node23" class="node">
<title>Node1345</title>
<g id="a_node23"><a xlink:href="../../d4/d45/systemimpl_8c.html#af0ce445d63d4d737a2ed25d05b45463c" target="_top" xlink:title="SystemImpl__basename">
<polygon fill="#ffffff" stroke="#000000" points="1353,-152.5 1353,-171.5 1478,-171.5 1478,-152.5 1353,-152.5"/>
<text text-anchor="middle" x="1415.5" y="-159.5" font-family="Helvetica,sans-Serif" font-size="10.00" fill="#000000">SystemImpl__basename</text>
</a>
</g>
</g>
<!-- Node1344&#45;&gt;Node1345 -->
<g id="edge23" class="edge">
<title>Node1344&#45;&gt;Node1345</title>
<path fill="none" stroke="#191970" d="M1290.6412,-133.589C1312.8771,-138.6487 1340.3482,-144.8996 1363.8564,-150.2488"/>
<polygon fill="#191970" stroke="#191970" points="1363.1345,-153.6739 1373.6619,-152.4799 1364.6877,-146.8484 1363.1345,-153.6739"/>
</g>
<!-- Node1346 -->
<g id="node24" class="node">
<title>Node1346</title>
<g id="a_node24"><a xlink:href="../../d7/dcd/group__core_utils.html#gaeccaa0b46edead0608a6982dddb917ec" target="_top" xlink:title="Allocate memory for a Modelica string which is used as return argument of an external Modelica functi...">
<polygon fill="#ffffff" stroke="#000000" points="1357.5,-114.5 1357.5,-133.5 1473.5,-133.5 1473.5,-114.5 1357.5,-114.5"/>
<text text-anchor="middle" x="1415.5" y="-121.5" font-family="Helvetica,sans-Serif" font-size="10.00" fill="#000000">ModelicaAllocateString</text>
</a>
</g>
</g>
<!-- Node1344&#45;&gt;Node1346 -->
<g id="edge24" class="edge">
<title>Node1344&#45;&gt;Node1346</title>
<path fill="none" stroke="#191970" d="M1299.0587,-124C1314.1001,-124 1330.8399,-124 1346.83,-124"/>
<polygon fill="#191970" stroke="#191970" points="1347.2042,-127.5001 1357.2042,-124 1347.2041,-120.5001 1347.2042,-127.5001"/>
</g>
<!-- Node1347 -->
<g id="node25" class="node">
<title>Node1347</title>
<g id="a_node25"><a xlink:href="../../d6/d84/3rd_party_2open62541_2open62541_8h.html#aa383452fe445bfae989358c9d7d96f4f" target="_top" xlink:title="strlen">
<polygon fill="#ffffff" stroke="#000000" points="1395,-76.5 1395,-95.5 1436,-95.5 1436,-76.5 1395,-76.5"/>
<text text-anchor="middle" x="1415.5" y="-83.5" font-family="Helvetica,sans-Serif" font-size="10.00" fill="#000000">strlen</text>
</a>
</g>
</g>
<!-- Node1344&#45;&gt;Node1347 -->
<g id="edge25" class="edge">
<title>Node1344&#45;&gt;Node1347</title>
<path fill="none" stroke="#191970" d="M1290.6412,-114.411C1319.9852,-107.7339 1358.4462,-98.9823 1384.8852,-92.9662"/>
<polygon fill="#191970" stroke="#191970" points="1385.7549,-96.3579 1394.7291,-90.7263 1384.2017,-89.5324 1385.7549,-96.3579"/>
</g>
<!-- Node1349 -->
<g id="node27" class="node">
<title>Node1349</title>
<g id="a_node27"><a xlink:href="../../d8/d28/_compiler_2boot_2build_2system_8h.html#a967ce96198372dc665f235bb728adb6f" target="_top" xlink:title="System_os">
<polygon fill="#ffffff" stroke="#000000" points="1215.5,-76.5 1215.5,-95.5 1281.5,-95.5 1281.5,-76.5 1215.5,-76.5"/>
<text text-anchor="middle" x="1248.5" y="-83.5" font-family="Helvetica,sans-Serif" font-size="10.00" fill="#000000">System_os</text>
</a>
</g>
</g>
<!-- Node1348&#45;&gt;Node1349 -->
<g id="edge27" class="edge">
<title>Node1348&#45;&gt;Node1349</title>
<path fill="none" stroke="#191970" d="M1120.5021,-86C1146.6358,-86 1179.3924,-86 1205.2258,-86"/>
<polygon fill="#191970" stroke="#191970" points="1205.4739,-89.5001 1215.4739,-86 1205.4738,-82.5001 1205.4739,-89.5001"/>
</g>
<!-- Node1351 -->
<g id="node29" class="node">
<title>Node1351</title>
<g id="a_node29"><a xlink:href="../../d3/db3/_flags_8c.html#a1bdc57ee7db1a86ebd954e1aa4d04c0c" target="_top" xlink:title="omc_Flags_getConfigString">
<polygon fill="#ffffff" stroke="#000000" points="1007,-152.5 1007,-171.5 1144,-171.5 1144,-152.5 1007,-152.5"/>
<text text-anchor="middle" x="1075.5" y="-159.5" font-family="Helvetica,sans-Serif" font-size="10.00" fill="#000000">omc_Flags_getConfigString</text>
</a>
</g>
</g>
<!-- Node1350&#45;&gt;Node1351 -->
<g id="edge29" class="edge">
<title>Node1350&#45;&gt;Node1351</title>
<path fill="none" stroke="#191970" d="M958.5898,-162C971.1364,-162 984.0642,-162 996.5414,-162"/>
<polygon fill="#191970" stroke="#191970" points="996.898,-165.5001 1006.898,-162 996.8979,-158.5001 996.898,-165.5001"/>
</g>
<!-- Node1351&#45;&gt;Node1329 -->
<g id="edge30" class="edge">
<title>Node1351&#45;&gt;Node1329</title>
<path fill="none" stroke="#191970" d="M1119.1552,-171.589C1142.2929,-176.6713 1170.9024,-182.9554 1195.3268,-188.3203"/>
<polygon fill="#191970" stroke="#191970" points="1194.6406,-191.753 1205.1587,-190.4799 1196.1425,-184.916 1194.6406,-191.753"/>
</g>
<!-- Node1352&#45;&gt;Node1328 -->
<g id="edge32" class="edge">
<title>Node1352&#45;&gt;Node1328</title>
<path fill="none" stroke="#191970" d="M971.0463,-200C980.6938,-200 990.4037,-200 999.8118,-200"/>
<polygon fill="#191970" stroke="#191970" points="999.885,-203.5001 1009.8849,-200 999.8849,-196.5001 999.885,-203.5001"/>
</g>
</g>
</svg>
