<?xml version="1.0" encoding="UTF-8" standalone="no"?>
<!DOCTYPE svg PUBLIC "-//W3C//DTD SVG 1.1//EN"
 "http://www.w3.org/Graphics/SVG/1.1/DTD/svg11.dtd">
<!-- Generated by graphviz version 2.40.1 (20161225.0304)
 -->
<!-- Title: omc_Expression_containsCallTo__traverser Pages: 1 -->
<svg width="333pt" height="39pt"
 viewBox="0.00 0.00 333.00 39.00" xmlns="http://www.w3.org/2000/svg" xmlns:xlink="http://www.w3.org/1999/xlink">
<g id="graph0" class="graph" transform="scale(1 1) rotate(0) translate(4 35)">
<title>omc_Expression_containsCallTo__traverser</title>
<polygon fill="#ffffff" stroke="transparent" points="-4,4 -4,-35 329,-35 329,4 -4,4"/>
<!-- Node7437 -->
<g id="node1" class="node">
<title>Node7437</title>
<polygon fill="#bfbfbf" stroke="#000000" points="0,-.5 0,-30.5 149,-30.5 149,-.5 0,-.5"/>
<text text-anchor="start" x="8" y="-18.5" font-family="Helvetica,sans-Serif" font-size="10.00" fill="#000000">omc_Expression_containsCall</text>
<text text-anchor="middle" x="74.5" y="-7.5" font-family="Helvetica,sans-Serif" font-size="10.00" fill="#000000">To__traverser</text>
</g>
<!-- Node7438 -->
<g id="node2" class="node">
<title>Node7438</title>
<g id="a_node2"><a xlink:href="../../d1/d08/_expression_8c.html#a01e2df6c03ca5ded6e6f5edb364242c2" target="_top" xlink:title="boxptr_Expression_contains\lCallTo__traverser">
<polygon fill="#ffffff" stroke="#000000" points="185,-.5 185,-30.5 325,-30.5 325,-.5 185,-.5"/>
<text text-anchor="start" x="193" y="-18.5" font-family="Helvetica,sans-Serif" font-size="10.00" fill="#000000">boxptr_Expression_contains</text>
<text text-anchor="middle" x="255" y="-7.5" font-family="Helvetica,sans-Serif" font-size="10.00" fill="#000000">CallTo__traverser</text>
</a>
</g>
</g>
<!-- Node7437&#45;&gt;Node7438 -->
<g id="edge1" class="edge">
<title>Node7437&#45;&gt;Node7438</title>
<path fill="none" stroke="#191970" d="M159.271,-15.5C167.8757,-15.5 176.5471,-15.5 184.9708,-15.5"/>
<polygon fill="#191970" stroke="#191970" points="159.2192,-12.0001 149.2192,-15.5 159.2192,-19.0001 159.2192,-12.0001"/>
</g>
</g>
</svg>
