<?xml version="1.0" encoding="UTF-8" standalone="no"?>
<!DOCTYPE svg PUBLIC "-//W3C//DTD SVG 1.1//EN"
 "http://www.w3.org/Graphics/SVG/1.1/DTD/svg11.dtd">
<!-- Generated by graphviz version 2.40.1 (20161225.0304)
 -->
<!-- Title: omc_Expression_expStructuralEqualList Pages: 1 -->
<svg width="939pt" height="165pt"
 viewBox="0.00 0.00 939.00 165.37" xmlns="http://www.w3.org/2000/svg" xmlns:xlink="http://www.w3.org/1999/xlink">
<g id="graph0" class="graph" transform="scale(1 1) rotate(0) translate(4 161.3704)">
<title>omc_Expression_expStructuralEqualList</title>
<polygon fill="#ffffff" stroke="transparent" points="-4,4 -4,-161.3704 935,-161.3704 935,4 -4,4"/>
<!-- Node14137 -->
<g id="node1" class="node">
<title>Node14137</title>
<polygon fill="#bfbfbf" stroke="#000000" points="0,-20.8704 0,-50.8704 152,-50.8704 152,-20.8704 0,-20.8704"/>
<text text-anchor="start" x="8" y="-38.8704" font-family="Helvetica,sans-Serif" font-size="10.00" fill="#000000">omc_Expression_expStructural</text>
<text text-anchor="middle" x="76" y="-27.8704" font-family="Helvetica,sans-Serif" font-size="10.00" fill="#000000">EqualList</text>
</g>
<!-- Node14138 -->
<g id="node2" class="node">
<title>Node14138</title>
<g id="a_node2"><a xlink:href="../../d1/d08/_expression_8c.html#a7c8c81b1e75771592c75f77a16d5cc47" target="_top" xlink:title="omc_Expression_expStructural\lEqualListLst">
<polygon fill="#ffffff" stroke="#000000" points="188,-73.8704 188,-103.8704 340,-103.8704 340,-73.8704 188,-73.8704"/>
<text text-anchor="start" x="196" y="-91.8704" font-family="Helvetica,sans-Serif" font-size="10.00" fill="#000000">omc_Expression_expStructural</text>
<text text-anchor="middle" x="264" y="-80.8704" font-family="Helvetica,sans-Serif" font-size="10.00" fill="#000000">EqualListLst</text>
</a>
</g>
</g>
<!-- Node14137&#45;&gt;Node14138 -->
<g id="edge1" class="edge">
<title>Node14137&#45;&gt;Node14138</title>
<path fill="none" stroke="#191970" d="M139.1069,-53.6612C162.2724,-60.1919 188.2542,-67.5165 210.4962,-73.7869"/>
<polygon fill="#191970" stroke="#191970" points="139.9449,-50.2611 129.3704,-50.9163 138.0455,-56.9985 139.9449,-50.2611"/>
</g>
<!-- Node14140 -->
<g id="node4" class="node">
<title>Node14140</title>
<g id="a_node4"><a xlink:href="../../d6/d99/_expression_8h.html#aaec4489fc588c0d3fdd77c07bad746b4" target="_top" xlink:title="omc_Expression_expStructural\lEqual">
<polygon fill="#ffffff" stroke="#000000" points="380.5,-20.8704 380.5,-50.8704 532.5,-50.8704 532.5,-20.8704 380.5,-20.8704"/>
<text text-anchor="start" x="388.5" y="-38.8704" font-family="Helvetica,sans-Serif" font-size="10.00" fill="#000000">omc_Expression_expStructural</text>
<text text-anchor="middle" x="456.5" y="-27.8704" font-family="Helvetica,sans-Serif" font-size="10.00" fill="#000000">Equal</text>
</a>
</g>
</g>
<!-- Node14137&#45;&gt;Node14140 -->
<g id="edge11" class="edge">
<title>Node14137&#45;&gt;Node14140</title>
<path fill="none" stroke="#191970" d="M162.398,-35.8704C227.9712,-35.8704 317.2765,-35.8704 380.2212,-35.8704"/>
<polygon fill="#191970" stroke="#191970" points="162.0854,-32.3705 152.0854,-35.8704 162.0853,-39.3705 162.0854,-32.3705"/>
</g>
<!-- Node14142 -->
<g id="node6" class="node">
<title>Node14142</title>
<g id="a_node6"><a xlink:href="../../d6/d99/_expression_8h.html#a523407fc4923dead6642cc1558d37828" target="_top" xlink:title="boxptr_Expression_expStructural\lEqualList">
<polygon fill="#ffffff" stroke="#000000" points="770,-22.8704 770,-52.8704 931,-52.8704 931,-22.8704 770,-22.8704"/>
<text text-anchor="start" x="778" y="-40.8704" font-family="Helvetica,sans-Serif" font-size="10.00" fill="#000000">boxptr_Expression_expStructural</text>
<text text-anchor="middle" x="850.5" y="-29.8704" font-family="Helvetica,sans-Serif" font-size="10.00" fill="#000000">EqualList</text>
</a>
</g>
</g>
<!-- Node14137&#45;&gt;Node14142 -->
<g id="edge10" class="edge">
<title>Node14137&#45;&gt;Node14142</title>
<path fill="none" stroke="#191970" d="M162.2562,-24.2951C288.2898,-9.2593 529.9735,12.4629 734,-10.8704 754.9367,-13.2648 777.5851,-18.0049 797.2965,-22.8543"/>
<polygon fill="#191970" stroke="#191970" points="161.7823,-20.8268 152.2742,-25.5009 162.6218,-27.7763 161.7823,-20.8268"/>
</g>
<!-- Node14139 -->
<g id="node3" class="node">
<title>Node14139</title>
<g id="a_node3"><a xlink:href="../../d1/d08/_expression_8c.html#ad48c449146a40f67414b7daa8130f48b" target="_top" xlink:title="boxptr_Expression_expStructural\lEqualListLst">
<polygon fill="#ffffff" stroke="#000000" points="376,-126.8704 376,-156.8704 537,-156.8704 537,-126.8704 376,-126.8704"/>
<text text-anchor="start" x="384" y="-144.8704" font-family="Helvetica,sans-Serif" font-size="10.00" fill="#000000">boxptr_Expression_expStructural</text>
<text text-anchor="middle" x="456.5" y="-133.8704" font-family="Helvetica,sans-Serif" font-size="10.00" fill="#000000">EqualListLst</text>
</a>
</g>
</g>
<!-- Node14138&#45;&gt;Node14139 -->
<g id="edge2" class="edge">
<title>Node14138&#45;&gt;Node14139</title>
<path fill="none" stroke="#191970" d="M328.2999,-106.5738C352.0998,-113.1264 378.8395,-120.4885 401.7155,-126.7869"/>
<polygon fill="#191970" stroke="#191970" points="329.2182,-103.1964 318.6479,-103.9163 327.36,-109.9453 329.2182,-103.1964"/>
</g>
<!-- Node14138&#45;&gt;Node14140 -->
<g id="edge3" class="edge">
<title>Node14138&#45;&gt;Node14140</title>
<path fill="none" stroke="#191970" d="M328.2999,-71.167C352.0998,-64.6144 378.8395,-57.2523 401.7155,-50.9539"/>
<polygon fill="#191970" stroke="#191970" points="327.36,-67.7955 318.6479,-73.8245 329.2182,-74.5444 327.36,-67.7955"/>
</g>
<!-- Node14140&#45;&gt;Node14140 -->
<g id="edge8" class="edge">
<title>Node14140&#45;&gt;Node14140</title>
<path fill="none" stroke="#191970" d="M422.3839,-61.3283C426.6182,-66.0494 437.9902,-69.3704 456.5,-69.3704 486.875,-69.3704 498.0283,-60.427 489.96,-51.0294"/>
<polygon fill="#191970" stroke="#191970" points="425.8971,-61.2317 423.04,-51.0294 418.9112,-60.7866 425.8971,-61.2317"/>
</g>
<!-- Node14141 -->
<g id="node5" class="node">
<title>Node14141</title>
<g id="a_node5"><a xlink:href="../../d6/d99/_expression_8h.html#a1e59a748f2cac7fd57b7d46f3febc2d7" target="_top" xlink:title="omc_Expression_expStructural\lEqualList">
<polygon fill="#ffffff" stroke="#000000" points="577.5,-69.8704 577.5,-99.8704 729.5,-99.8704 729.5,-69.8704 577.5,-69.8704"/>
<text text-anchor="start" x="585.5" y="-87.8704" font-family="Helvetica,sans-Serif" font-size="10.00" fill="#000000">omc_Expression_expStructural</text>
<text text-anchor="middle" x="653.5" y="-76.8704" font-family="Helvetica,sans-Serif" font-size="10.00" fill="#000000">EqualList</text>
</a>
</g>
</g>
<!-- Node14140&#45;&gt;Node14141 -->
<g id="edge4" class="edge">
<title>Node14140&#45;&gt;Node14141</title>
<path fill="none" stroke="#191970" d="M542.6521,-50.5965C567.9161,-56.6857 594.2811,-63.6492 614.9572,-69.7982"/>
<polygon fill="#191970" stroke="#191970" points="543.2038,-47.1301 532.6653,-48.2217 541.5844,-53.9402 543.2038,-47.1301"/>
</g>
<!-- Node14143 -->
<g id="node7" class="node">
<title>Node14143</title>
<g id="a_node7"><a xlink:href="../../d6/d99/_expression_8h.html#a1c8c4d439ed69b6b62a80e38812ffc44" target="_top" xlink:title="boxptr_Expression_expStructural\lEqual">
<polygon fill="#ffffff" stroke="#000000" points="573,-20.8704 573,-50.8704 734,-50.8704 734,-20.8704 573,-20.8704"/>
<text text-anchor="start" x="581" y="-38.8704" font-family="Helvetica,sans-Serif" font-size="10.00" fill="#000000">boxptr_Expression_expStructural</text>
<text text-anchor="middle" x="653.5" y="-27.8704" font-family="Helvetica,sans-Serif" font-size="10.00" fill="#000000">Equal</text>
</a>
</g>
</g>
<!-- Node14140&#45;&gt;Node14143 -->
<g id="edge9" class="edge">
<title>Node14140&#45;&gt;Node14143</title>
<path fill="none" stroke="#191970" d="M542.9772,-35.8704C552.9472,-35.8704 563.084,-35.8704 572.9707,-35.8704"/>
<polygon fill="#191970" stroke="#191970" points="542.6654,-32.3705 532.6653,-35.8704 542.6653,-39.3705 542.6654,-32.3705"/>
</g>
<!-- Node14141&#45;&gt;Node14138 -->
<g id="edge5" class="edge">
<title>Node14141&#45;&gt;Node14138</title>
<path fill="none" stroke="#191970" d="M567.073,-85.758C499.0599,-86.4564 405.1986,-87.4203 340.0242,-88.0897"/>
<polygon fill="#191970" stroke="#191970" points="567.372,-89.2552 577.3355,-85.6526 567.3001,-82.2555 567.372,-89.2552"/>
</g>
<!-- Node14141&#45;&gt;Node14140 -->
<g id="edge7" class="edge">
<title>Node14141&#45;&gt;Node14140</title>
<path fill="none" stroke="#191970" d="M567.2389,-70.1181C541.9708,-64.0261 515.6113,-57.0622 494.9512,-50.9154"/>
<polygon fill="#191970" stroke="#191970" points="566.6893,-73.5849 577.2278,-72.494 568.3092,-66.7749 566.6893,-73.5849"/>
</g>
<!-- Node14141&#45;&gt;Node14142 -->
<g id="edge6" class="edge">
<title>Node14141&#45;&gt;Node14142</title>
<path fill="none" stroke="#191970" d="M726.1272,-67.5431C746.2832,-62.7343 767.9948,-57.5544 787.548,-52.8894"/>
<polygon fill="#191970" stroke="#191970" points="725.2884,-64.1449 716.3737,-69.8701 726.9129,-70.9538 725.2884,-64.1449"/>
</g>
</g>
</svg>
