<?xml version="1.0" encoding="UTF-8" standalone="no"?>
<!DOCTYPE svg PUBLIC "-//W3C//DTD SVG 1.1//EN"
 "http://www.w3.org/Graphics/SVG/1.1/DTD/svg11.dtd">
<!-- Generated by graphviz version 2.40.1 (20161225.0304)
 -->
<!-- Title: omc_Expression_priority Pages: 1 -->
<svg width="515pt" height="72pt"
 viewBox="0.00 0.00 515.00 71.50" xmlns="http://www.w3.org/2000/svg" xmlns:xlink="http://www.w3.org/1999/xlink">
<g id="graph0" class="graph" transform="scale(1 1) rotate(0) translate(4 67.5)">
<title>omc_Expression_priority</title>
<polygon fill="#ffffff" stroke="transparent" points="-4,4 -4,-67.5 511,-67.5 511,4 -4,4"/>
<!-- Node26783 -->
<g id="node1" class="node">
<title>Node26783</title>
<polygon fill="#bfbfbf" stroke="#000000" points="0,-25 0,-44 124,-44 124,-25 0,-25"/>
<text text-anchor="middle" x="62" y="-32" font-family="Helvetica,sans-Serif" font-size="10.00" fill="#000000">omc_Expression_priority</text>
</g>
<!-- Node26784 -->
<g id="node2" class="node">
<title>Node26784</title>
<g id="a_node2"><a xlink:href="../../d6/d99/_expression_8h.html#a40638bd9a8b04d47c5bf9677aaabc410" target="_top" xlink:title="boxptr_Expression_priority">
<polygon fill="#ffffff" stroke="#000000" points="184,-44 184,-63 316,-63 316,-44 184,-44"/>
<text text-anchor="middle" x="250" y="-51" font-family="Helvetica,sans-Serif" font-size="10.00" fill="#000000">boxptr_Expression_priority</text>
</a>
</g>
</g>
<!-- Node26783&#45;&gt;Node26784 -->
<g id="edge1" class="edge">
<title>Node26783&#45;&gt;Node26784</title>
<path fill="none" stroke="#191970" d="M134.1094,-41.7877C150.4427,-43.4384 167.7097,-45.1834 183.7854,-46.8081"/>
<polygon fill="#191970" stroke="#191970" points="134.3805,-38.2973 124.0793,-40.774 133.6766,-45.2618 134.3805,-38.2973"/>
</g>
<!-- Node26785 -->
<g id="node3" class="node">
<title>Node26785</title>
<g id="a_node3"><a xlink:href="../../d6/d99/_expression_8h.html#a3dbf71af713da0e823a00785336a1f76" target="_top" xlink:title="omc_Expression_shouldParenthesize">
<polygon fill="#ffffff" stroke="#000000" points="160,-6 160,-25 340,-25 340,-6 160,-6"/>
<text text-anchor="middle" x="250" y="-13" font-family="Helvetica,sans-Serif" font-size="10.00" fill="#000000">omc_Expression_shouldParenthesize</text>
</a>
</g>
</g>
<!-- Node26783&#45;&gt;Node26785 -->
<g id="edge2" class="edge">
<title>Node26783&#45;&gt;Node26785</title>
<path fill="none" stroke="#191970" d="M134.1636,-27.2069C142.5465,-26.3597 151.1747,-25.4877 159.761,-24.6199"/>
<polygon fill="#191970" stroke="#191970" points="133.6766,-23.7382 124.0793,-28.226 134.3805,-30.7027 133.6766,-23.7382"/>
</g>
<!-- Node26786 -->
<g id="node4" class="node">
<title>Node26786</title>
<g id="a_node4"><a xlink:href="../../d6/d99/_expression_8h.html#a2ab90bc6eb13b0327d34982f44151d77" target="_top" xlink:title="boxptr_Expression_should\lParenthesize">
<polygon fill="#ffffff" stroke="#000000" points="376,-.5 376,-30.5 507,-30.5 507,-.5 376,-.5"/>
<text text-anchor="start" x="384" y="-18.5" font-family="Helvetica,sans-Serif" font-size="10.00" fill="#000000">boxptr_Expression_should</text>
<text text-anchor="middle" x="441.5" y="-7.5" font-family="Helvetica,sans-Serif" font-size="10.00" fill="#000000">Parenthesize</text>
</a>
</g>
</g>
<!-- Node26785&#45;&gt;Node26786 -->
<g id="edge3" class="edge">
<title>Node26785&#45;&gt;Node26786</title>
<path fill="none" stroke="#191970" d="M350.3033,-15.5C358.9539,-15.5 367.5547,-15.5 375.8226,-15.5"/>
<polygon fill="#191970" stroke="#191970" points="350.1425,-12.0001 340.1425,-15.5 350.1425,-19.0001 350.1425,-12.0001"/>
</g>
</g>
</svg>
