<?xml version="1.0" encoding="UTF-8" standalone="no"?>
<!DOCTYPE svg PUBLIC "-//W3C//DTD SVG 1.1//EN"
 "http://www.w3.org/Graphics/SVG/1.1/DTD/svg11.dtd">
<!-- Generated by graphviz version 2.40.1 (20161225.0304)
 -->
<!-- Title: omc_Expression_traverseExpBidirCref Pages: 1 -->
<svg width="1108pt" height="176pt"
 viewBox="0.00 0.00 1108.00 176.00" xmlns="http://www.w3.org/2000/svg" xmlns:xlink="http://www.w3.org/1999/xlink">
<g id="graph0" class="graph" transform="scale(1 1) rotate(0) translate(4 172)">
<title>omc_Expression_traverseExpBidirCref</title>
<polygon fill="#ffffff" stroke="transparent" points="-4,4 -4,-172 1104,-172 1104,4 -4,4"/>
<!-- Node30144 -->
<g id="node1" class="node">
<title>Node30144</title>
<polygon fill="#bfbfbf" stroke="#000000" points="0,-71.5 0,-101.5 147,-101.5 147,-71.5 0,-71.5"/>
<text text-anchor="start" x="8" y="-89.5" font-family="Helvetica,sans-Serif" font-size="10.00" fill="#000000">omc_Expression_traverseExp</text>
<text text-anchor="middle" x="73.5" y="-78.5" font-family="Helvetica,sans-Serif" font-size="10.00" fill="#000000">BidirCref</text>
</g>
<!-- Node30145 -->
<g id="node2" class="node">
<title>Node30145</title>
<g id="a_node2"><a xlink:href="../../d6/d99/_expression_8h.html#a75affd943cc3f41289d42e90e506d7e5" target="_top" xlink:title="omc_Expression_traverseExp\lBidirCref">
<polygon fill="#ffffff" stroke="#000000" points="183,-93.5 183,-123.5 330,-123.5 330,-93.5 183,-93.5"/>
<text text-anchor="start" x="191" y="-111.5" font-family="Helvetica,sans-Serif" font-size="10.00" fill="#000000">omc_Expression_traverseExp</text>
<text text-anchor="middle" x="256.5" y="-100.5" font-family="Helvetica,sans-Serif" font-size="10.00" fill="#000000">BidirCref</text>
</a>
</g>
</g>
<!-- Node30144&#45;&gt;Node30145 -->
<g id="edge1" class="edge">
<title>Node30144&#45;&gt;Node30145</title>
<path fill="none" stroke="#191970" d="M157.1089,-96.5513C165.6507,-97.5782 174.2849,-98.6162 182.7107,-99.6292"/>
<polygon fill="#191970" stroke="#191970" points="157.4884,-93.0718 147.1421,-95.3531 156.6528,-100.0218 157.4884,-93.0718"/>
</g>
<!-- Node30146 -->
<g id="node3" class="node">
<title>Node30146</title>
<g id="a_node3"><a xlink:href="../../d1/d08/_expression_8c.html#a596cd64ec740459351f56341f63c35c9" target="_top" xlink:title="omc_Expression_traverseExp\lBidirSubExps">
<polygon fill="#ffffff" stroke="#000000" points="366,-71.5 366,-101.5 513,-101.5 513,-71.5 366,-71.5"/>
<text text-anchor="start" x="374" y="-89.5" font-family="Helvetica,sans-Serif" font-size="10.00" fill="#000000">omc_Expression_traverseExp</text>
<text text-anchor="middle" x="439.5" y="-78.5" font-family="Helvetica,sans-Serif" font-size="10.00" fill="#000000">BidirSubExps</text>
</a>
</g>
</g>
<!-- Node30144&#45;&gt;Node30146 -->
<g id="edge10" class="edge">
<title>Node30144&#45;&gt;Node30146</title>
<path fill="none" stroke="#191970" d="M157.2893,-84.8127C165.9716,-84.6848 174.6641,-84.5761 183,-84.5 248.3306,-83.9034 264.6694,-83.9034 330,-84.5 341.5978,-84.6059 353.8857,-84.7749 365.8764,-84.9709"/>
<polygon fill="#191970" stroke="#191970" points="157.068,-81.3157 147.1236,-84.9709 157.1769,-88.3148 157.068,-81.3157"/>
</g>
<!-- Node30145&#45;&gt;Node30145 -->
<g id="edge2" class="edge">
<title>Node30145&#45;&gt;Node30145</title>
<path fill="none" stroke="#191970" d="M224.1608,-133.9579C228.1746,-138.679 238.9543,-142 256.5,-142 285.293,-142 295.8654,-133.0566 288.2173,-123.659"/>
<polygon fill="#191970" stroke="#191970" points="227.6735,-133.8518 224.7827,-123.659 220.6862,-133.4298 227.6735,-133.8518"/>
</g>
<!-- Node30145&#45;&gt;Node30146 -->
<g id="edge3" class="edge">
<title>Node30145&#45;&gt;Node30146</title>
<path fill="none" stroke="#191970" d="M340.1089,-98.4487C348.6507,-97.4218 357.2849,-96.3838 365.7107,-95.3708"/>
<polygon fill="#191970" stroke="#191970" points="339.6528,-94.9782 330.1421,-99.6469 340.4884,-101.9282 339.6528,-94.9782"/>
</g>
<!-- Node30147 -->
<g id="node4" class="node">
<title>Node30147</title>
<g id="a_node4"><a xlink:href="../../d6/d99/_expression_8h.html#ae5ff55808c5b3e09ecdf00673ebd2d90" target="_top" xlink:title="omc_Expression_traverseExp\lBidir">
<polygon fill="#ffffff" stroke="#000000" points="549,-71.5 549,-101.5 696,-101.5 696,-71.5 549,-71.5"/>
<text text-anchor="start" x="557" y="-89.5" font-family="Helvetica,sans-Serif" font-size="10.00" fill="#000000">omc_Expression_traverseExp</text>
<text text-anchor="middle" x="622.5" y="-78.5" font-family="Helvetica,sans-Serif" font-size="10.00" fill="#000000">Bidir</text>
</a>
</g>
</g>
<!-- Node30146&#45;&gt;Node30147 -->
<g id="edge4" class="edge">
<title>Node30146&#45;&gt;Node30147</title>
<path fill="none" stroke="#191970" d="M523.3875,-86.5C531.8384,-86.5 540.3765,-86.5 548.7107,-86.5"/>
<polygon fill="#191970" stroke="#191970" points="523.1421,-83.0001 513.1421,-86.5 523.142,-90.0001 523.1421,-83.0001"/>
</g>
<!-- Node30148 -->
<g id="node5" class="node">
<title>Node30148</title>
<g id="a_node5"><a xlink:href="../../d4/d57/_ceval_function_8c.html#aabcb9d6b7f8c22929303401eb6579981" target="_top" xlink:title="omc_CevalFunction_getElement\lDependenciesFromDims">
<polygon fill="#ffffff" stroke="#000000" points="732,-137.5 732,-167.5 890,-167.5 890,-137.5 732,-137.5"/>
<text text-anchor="start" x="740" y="-155.5" font-family="Helvetica,sans-Serif" font-size="10.00" fill="#000000">omc_CevalFunction_getElement</text>
<text text-anchor="middle" x="811" y="-144.5" font-family="Helvetica,sans-Serif" font-size="10.00" fill="#000000">DependenciesFromDims</text>
</a>
</g>
</g>
<!-- Node30147&#45;&gt;Node30148 -->
<g id="edge5" class="edge">
<title>Node30147&#45;&gt;Node30148</title>
<path fill="none" stroke="#191970" d="M675.382,-105.0157C704.6091,-115.2491 740.4573,-127.8007 767.9555,-137.4287"/>
<polygon fill="#191970" stroke="#191970" points="676.3405,-101.643 665.7457,-101.6417 674.0273,-108.2498 676.3405,-101.643"/>
</g>
<!-- Node30149 -->
<g id="node6" class="node">
<title>Node30149</title>
<g id="a_node6"><a xlink:href="../../d1/d08/_expression_8c.html#aecf10f0e7981140b30a096f706a8d1d3" target="_top" xlink:title="omc_Expression_traverseReduction\lIteratorBidir">
<polygon fill="#ffffff" stroke="#000000" points="926,-46.5 926,-76.5 1100,-76.5 1100,-46.5 926,-46.5"/>
<text text-anchor="start" x="934" y="-64.5" font-family="Helvetica,sans-Serif" font-size="10.00" fill="#000000">omc_Expression_traverseReduction</text>
<text text-anchor="middle" x="1013" y="-53.5" font-family="Helvetica,sans-Serif" font-size="10.00" fill="#000000">IteratorBidir</text>
</a>
</g>
</g>
<!-- Node30147&#45;&gt;Node30149 -->
<g id="edge6" class="edge">
<title>Node30147&#45;&gt;Node30149</title>
<path fill="none" stroke="#191970" d="M706.2866,-89.0309C714.9695,-89.2227 723.6628,-89.3858 732,-89.5 802.2156,-90.4617 820.2171,-97.3425 890,-89.5 912.8516,-86.9319 937.6499,-81.76 958.9536,-76.5523"/>
<polygon fill="#191970" stroke="#191970" points="706.1995,-85.528 696.1205,-88.7936 706.0361,-92.5261 706.1995,-85.528"/>
</g>
<!-- Node30150 -->
<g id="node7" class="node">
<title>Node30150</title>
<g id="a_node7"><a xlink:href="../../d1/d08/_expression_8c.html#a32a6aca5e81067425043c3018a836e11" target="_top" xlink:title="omc_Expression_traverseExp\lBidirSubs">
<polygon fill="#ffffff" stroke="#000000" points="737.5,-49.5 737.5,-79.5 884.5,-79.5 884.5,-49.5 737.5,-49.5"/>
<text text-anchor="start" x="745.5" y="-67.5" font-family="Helvetica,sans-Serif" font-size="10.00" fill="#000000">omc_Expression_traverseExp</text>
<text text-anchor="middle" x="811" y="-56.5" font-family="Helvetica,sans-Serif" font-size="10.00" fill="#000000">BidirSubs</text>
</a>
</g>
</g>
<!-- Node30147&#45;&gt;Node30150 -->
<g id="edge7" class="edge">
<title>Node30147&#45;&gt;Node30150</title>
<path fill="none" stroke="#191970" d="M706.4269,-76.7048C716.7391,-75.5013 727.2182,-74.2782 737.3623,-73.0943"/>
<polygon fill="#191970" stroke="#191970" points="705.7157,-73.264 696.1889,-77.8997 706.5272,-80.2168 705.7157,-73.264"/>
</g>
<!-- Node30151 -->
<g id="node8" class="node">
<title>Node30151</title>
<g id="a_node8"><a xlink:href="../../d6/d99/_expression_8h.html#abd442ba7239d88998e096de7c8af4403" target="_top" xlink:title="omc_Expression_traverseExp\lOptBidir">
<polygon fill="#ffffff" stroke="#000000" points="737.5,-.5 737.5,-30.5 884.5,-30.5 884.5,-.5 737.5,-.5"/>
<text text-anchor="start" x="745.5" y="-18.5" font-family="Helvetica,sans-Serif" font-size="10.00" fill="#000000">omc_Expression_traverseExp</text>
<text text-anchor="middle" x="811" y="-7.5" font-family="Helvetica,sans-Serif" font-size="10.00" fill="#000000">OptBidir</text>
</a>
</g>
</g>
<!-- Node30147&#45;&gt;Node30151 -->
<g id="edge8" class="edge">
<title>Node30147&#45;&gt;Node30151</title>
<path fill="none" stroke="#191970" d="M664.4196,-67.2172C684.6325,-58.2526 709.3533,-47.7715 732,-39.5 740.4825,-36.4018 749.5744,-33.375 758.4621,-30.5722"/>
<polygon fill="#191970" stroke="#191970" points="662.882,-64.0707 655.1814,-71.3475 665.7391,-70.4611 662.882,-64.0707"/>
</g>
<!-- Node30151&#45;&gt;Node30149 -->
<g id="edge9" class="edge">
<title>Node30151&#45;&gt;Node30149</title>
<path fill="none" stroke="#191970" d="M887.019,-32.8113C906.7664,-37.3082 927.8731,-42.1147 947.0542,-46.4826"/>
<polygon fill="#191970" stroke="#191970" points="887.6699,-29.3699 877.1424,-30.5621 886.1156,-36.1952 887.6699,-29.3699"/>
</g>
</g>
</svg>
