<?xml version="1.0" encoding="UTF-8" standalone="no"?>
<!DOCTYPE svg PUBLIC "-//W3C//DTD SVG 1.1//EN"
 "http://www.w3.org/Graphics/SVG/1.1/DTD/svg11.dtd">
<!-- Generated by graphviz version 2.40.1 (20161225.0304)
 -->
<!-- Title: omc_Expression_addNoEventToEventTriggeringFunctions Pages: 1 -->
<svg width="721pt" height="39pt"
 viewBox="0.00 0.00 721.00 39.00" xmlns="http://www.w3.org/2000/svg" xmlns:xlink="http://www.w3.org/1999/xlink">
<g id="graph0" class="graph" transform="scale(1 1) rotate(0) translate(4 35)">
<title>omc_Expression_addNoEventToEventTriggeringFunctions</title>
<polygon fill="#ffffff" stroke="transparent" points="-4,4 -4,-35 717,-35 717,4 -4,4"/>
<!-- Node1777 -->
<g id="node1" class="node">
<title>Node1777</title>
<polygon fill="#bfbfbf" stroke="#000000" points="0,-.5 0,-30.5 149,-30.5 149,-.5 0,-.5"/>
<text text-anchor="start" x="8" y="-18.5" font-family="Helvetica,sans-Serif" font-size="10.00" fill="#000000">omc_Expression_addNoEvent</text>
<text text-anchor="middle" x="74.5" y="-7.5" font-family="Helvetica,sans-Serif" font-size="10.00" fill="#000000">ToEventTriggeringFunctions</text>
</g>
<!-- Node1778 -->
<g id="node2" class="node">
<title>Node1778</title>
<g id="a_node2"><a xlink:href="../../d1/d08/_expression_8c.html#ac50878465361809952eea011c036eb93" target="_top" xlink:title="omc_Expression_traverseExp\lDummy">
<polygon fill="#ffffff" stroke="#000000" points="185,-.5 185,-30.5 332,-30.5 332,-.5 185,-.5"/>
<text text-anchor="start" x="193" y="-18.5" font-family="Helvetica,sans-Serif" font-size="10.00" fill="#000000">omc_Expression_traverseExp</text>
<text text-anchor="middle" x="258.5" y="-7.5" font-family="Helvetica,sans-Serif" font-size="10.00" fill="#000000">Dummy</text>
</a>
</g>
</g>
<!-- Node1777&#45;&gt;Node1778 -->
<g id="edge1" class="edge">
<title>Node1777&#45;&gt;Node1778</title>
<path fill="none" stroke="#191970" d="M149.0746,-15.5C157.4316,-15.5 165.9877,-15.5 174.4533,-15.5"/>
<polygon fill="#191970" stroke="#191970" points="174.7152,-19.0001 184.7152,-15.5 174.7152,-12.0001 174.7152,-19.0001"/>
</g>
<!-- Node1779 -->
<g id="node3" class="node">
<title>Node1779</title>
<g id="a_node3"><a xlink:href="../../d1/d08/_expression_8c.html#aae2ed5a7c0c9b70b6c66638bc345357d" target="_top" xlink:title="omc_Expression_traverseExp\lBottomUp">
<polygon fill="#ffffff" stroke="#000000" points="368,-.5 368,-30.5 515,-30.5 515,-.5 368,-.5"/>
<text text-anchor="start" x="376" y="-18.5" font-family="Helvetica,sans-Serif" font-size="10.00" fill="#000000">omc_Expression_traverseExp</text>
<text text-anchor="middle" x="441.5" y="-7.5" font-family="Helvetica,sans-Serif" font-size="10.00" fill="#000000">BottomUp</text>
</a>
</g>
</g>
<!-- Node1778&#45;&gt;Node1779 -->
<g id="edge2" class="edge">
<title>Node1778&#45;&gt;Node1779</title>
<path fill="none" stroke="#191970" d="M332.1421,-15.5C340.4739,-15.5 349.0113,-15.5 357.4632,-15.5"/>
<polygon fill="#191970" stroke="#191970" points="357.7108,-19.0001 367.7107,-15.5 357.7107,-12.0001 357.7108,-19.0001"/>
</g>
<!-- Node1780 -->
<g id="node4" class="node">
<title>Node1780</title>
<g id="a_node4"><a xlink:href="../../d1/d08/_expression_8c.html#add3db321c96f54919494182b71eb10c7" target="_top" xlink:title="omc_Expression_traverseExpClk">
<polygon fill="#ffffff" stroke="#000000" points="551,-6 551,-25 713,-25 713,-6 551,-6"/>
<text text-anchor="middle" x="632" y="-13" font-family="Helvetica,sans-Serif" font-size="10.00" fill="#000000">omc_Expression_traverseExpClk</text>
</a>
</g>
</g>
<!-- Node1779&#45;&gt;Node1780 -->
<g id="edge3" class="edge">
<title>Node1779&#45;&gt;Node1780</title>
<path fill="none" stroke="#191970" d="M515.1523,-8.9067C523.5807,-8.7825 532.2472,-8.7321 540.8687,-8.7556"/>
<polygon fill="#191970" stroke="#191970" points="540.9307,-12.256 550.9519,-8.8171 540.9735,-5.2561 540.9307,-12.256"/>
</g>
<!-- Node1780&#45;&gt;Node1779 -->
<g id="edge4" class="edge">
<title>Node1780&#45;&gt;Node1779</title>
<path fill="none" stroke="#191970" d="M550.9519,-22.1829C542.5019,-22.2633 533.8994,-22.2715 525.4185,-22.2074"/>
<polygon fill="#191970" stroke="#191970" points="525.1906,-18.7047 515.1523,-22.0933 525.1128,-25.7043 525.1906,-18.7047"/>
</g>
</g>
</svg>
