<?xml version="1.0" encoding="UTF-8" standalone="no"?>
<!DOCTYPE svg PUBLIC "-//W3C//DTD SVG 1.1//EN"
 "http://www.w3.org/Graphics/SVG/1.1/DTD/svg11.dtd">
<!-- Generated by graphviz version 2.40.1 (20161225.0304)
 -->
<!-- Title: boxptr_Expression_isConstValueWork Pages: 1 -->
<svg width="735pt" height="92pt"
 viewBox="0.00 0.00 735.00 92.00" xmlns="http://www.w3.org/2000/svg" xmlns:xlink="http://www.w3.org/1999/xlink">
<g id="graph0" class="graph" transform="scale(1 1) rotate(0) translate(4 88)">
<title>boxptr_Expression_isConstValueWork</title>
<polygon fill="#ffffff" stroke="transparent" points="-4,4 -4,-88 731,-88 731,4 -4,4"/>
<!-- Node942 -->
<g id="node1" class="node">
<title>Node942</title>
<polygon fill="#bfbfbf" stroke="#000000" points="0,-53.5 0,-83.5 137,-83.5 137,-53.5 0,-53.5"/>
<text text-anchor="start" x="8" y="-71.5" font-family="Helvetica,sans-Serif" font-size="10.00" fill="#000000">boxptr_Expression_isConst</text>
<text text-anchor="middle" x="68.5" y="-60.5" font-family="Helvetica,sans-Serif" font-size="10.00" fill="#000000">ValueWork</text>
</g>
<!-- Node943 -->
<g id="node2" class="node">
<title>Node943</title>
<g id="a_node2"><a xlink:href="../../d1/d08/_expression_8c.html#ab28be4598b159080ce17ac73386d8a2e" target="_top" xlink:title="omc_Expression_isConstValueWork">
<polygon fill="#ffffff" stroke="#000000" points="173,-59 173,-78 349,-78 349,-59 173,-59"/>
<text text-anchor="middle" x="261" y="-66" font-family="Helvetica,sans-Serif" font-size="10.00" fill="#000000">omc_Expression_isConstValueWork</text>
</a>
</g>
</g>
<!-- Node942&#45;&gt;Node943 -->
<g id="edge1" class="edge">
<title>Node942&#45;&gt;Node943</title>
<path fill="none" stroke="#191970" d="M137.1816,-68.5C145.4856,-68.5 154.0886,-68.5 162.7133,-68.5"/>
<polygon fill="#191970" stroke="#191970" points="162.8315,-72.0001 172.8315,-68.5 162.8314,-65.0001 162.8315,-72.0001"/>
</g>
<!-- Node944 -->
<g id="node3" class="node">
<title>Node944</title>
<g id="a_node3"><a xlink:href="../../d1/d08/_expression_8c.html#a78844c1939ea8f170ec6a6dbb4da43e6" target="_top" xlink:title="omc_Expression_isConstValue\lWorkList">
<polygon fill="#ffffff" stroke="#000000" points="574,-53.5 574,-83.5 727,-83.5 727,-53.5 574,-53.5"/>
<text text-anchor="start" x="582" y="-71.5" font-family="Helvetica,sans-Serif" font-size="10.00" fill="#000000">omc_Expression_isConstValue</text>
<text text-anchor="middle" x="650.5" y="-60.5" font-family="Helvetica,sans-Serif" font-size="10.00" fill="#000000">WorkList</text>
</a>
</g>
</g>
<!-- Node943&#45;&gt;Node944 -->
<g id="edge2" class="edge">
<title>Node943&#45;&gt;Node944</title>
<path fill="none" stroke="#191970" d="M349.3836,-62.7392C413.619,-61.4077 500.1249,-61.4204 563.9347,-62.7774"/>
<polygon fill="#191970" stroke="#191970" points="563.8966,-66.2773 573.974,-63.0067 564.0566,-59.2791 563.8966,-66.2773"/>
</g>
<!-- Node945 -->
<g id="node4" class="node">
<title>Node945</title>
<g id="a_node4"><a xlink:href="../../d1/d08/_expression_8c.html#a7b470a83d80affbe12835d2839e9647a" target="_top" xlink:title="omc_Expression_isConstValue\lWorkListList">
<polygon fill="#ffffff" stroke="#000000" points="385,-.5 385,-30.5 538,-30.5 538,-.5 385,-.5"/>
<text text-anchor="start" x="393" y="-18.5" font-family="Helvetica,sans-Serif" font-size="10.00" fill="#000000">omc_Expression_isConstValue</text>
<text text-anchor="middle" x="461.5" y="-7.5" font-family="Helvetica,sans-Serif" font-size="10.00" fill="#000000">WorkListList</text>
</a>
</g>
</g>
<!-- Node943&#45;&gt;Node945 -->
<g id="edge4" class="edge">
<title>Node943&#45;&gt;Node945</title>
<path fill="none" stroke="#191970" d="M297.309,-58.9021C324.4104,-51.7382 362.2118,-41.7458 394.7128,-33.1545"/>
<polygon fill="#191970" stroke="#191970" points="395.838,-36.4773 404.6114,-30.5379 394.049,-29.7098 395.838,-36.4773"/>
</g>
<!-- Node944&#45;&gt;Node943 -->
<g id="edge3" class="edge">
<title>Node944&#45;&gt;Node943</title>
<path fill="none" stroke="#191970" d="M573.974,-73.9933C512.5952,-75.4972 426.0114,-75.6513 359.4671,-74.4556"/>
<polygon fill="#191970" stroke="#191970" points="359.4494,-70.9547 349.3836,-74.2608 359.3141,-77.9534 359.4494,-70.9547"/>
</g>
<!-- Node945&#45;&gt;Node944 -->
<g id="edge5" class="edge">
<title>Node945&#45;&gt;Node944</title>
<path fill="none" stroke="#191970" d="M515.1543,-30.5459C537.4995,-36.812 563.6176,-44.1362 586.9176,-50.67"/>
<polygon fill="#191970" stroke="#191970" points="586.1379,-54.0863 596.7116,-53.4165 588.028,-47.3463 586.1379,-54.0863"/>
</g>
</g>
</svg>
