<?xml version="1.0" encoding="UTF-8" standalone="no"?>
<!DOCTYPE svg PUBLIC "-//W3C//DTD SVG 1.1//EN"
 "http://www.w3.org/Graphics/SVG/1.1/DTD/svg11.dtd">
<!-- Generated by graphviz version 2.40.1 (20161225.0304)
 -->
<!-- Title: omc_Expression_addNoEventToRelationsAndConds Pages: 1 -->
<svg width="500pt" height="72pt"
 viewBox="0.00 0.00 500.00 71.50" xmlns="http://www.w3.org/2000/svg" xmlns:xlink="http://www.w3.org/1999/xlink">
<g id="graph0" class="graph" transform="scale(1 1) rotate(0) translate(4 67.5)">
<title>omc_Expression_addNoEventToRelationsAndConds</title>
<polygon fill="#ffffff" stroke="transparent" points="-4,4 -4,-67.5 496,-67.5 496,4 -4,4"/>
<!-- Node1807 -->
<g id="node1" class="node">
<title>Node1807</title>
<polygon fill="#bfbfbf" stroke="#000000" points="0,-14 0,-44 149,-44 149,-14 0,-14"/>
<text text-anchor="start" x="8" y="-32" font-family="Helvetica,sans-Serif" font-size="10.00" fill="#000000">omc_Expression_addNoEvent</text>
<text text-anchor="middle" x="74.5" y="-21" font-family="Helvetica,sans-Serif" font-size="10.00" fill="#000000">ToRelationsAndConds</text>
</g>
<!-- Node1808 -->
<g id="node2" class="node">
<title>Node1808</title>
<g id="a_node2"><a xlink:href="../../d0/d9b/_backend_inline_8c.html#aab3d2e7a4cfb66f601971c4e06553b35" target="_top" xlink:title="omc_BackendInline_addNoEvent">
<polygon fill="#ffffff" stroke="#000000" points="185,-38.5 185,-57.5 346,-57.5 346,-38.5 185,-38.5"/>
<text text-anchor="middle" x="265.5" y="-45.5" font-family="Helvetica,sans-Serif" font-size="10.00" fill="#000000">omc_BackendInline_addNoEvent</text>
</a>
</g>
</g>
<!-- Node1807&#45;&gt;Node1808 -->
<g id="edge1" class="edge">
<title>Node1807&#45;&gt;Node1808</title>
<path fill="none" stroke="#191970" d="M159.1413,-37.4198C167.6989,-38.2711 176.3744,-39.1341 184.8881,-39.981"/>
<polygon fill="#191970" stroke="#191970" points="159.4636,-33.9347 149.1662,-36.4275 158.7706,-40.9003 159.4636,-33.9347"/>
</g>
<!-- Node1810 -->
<g id="node4" class="node">
<title>Node1810</title>
<g id="a_node4"><a xlink:href="../../d0/d3c/_inline_8h.html#a146821433208a73b9d93905c0b8a090e" target="_top" xlink:title="omc_Inline_inlineCall">
<polygon fill="#ffffff" stroke="#000000" points="211,-.5 211,-19.5 320,-19.5 320,-.5 211,-.5"/>
<text text-anchor="middle" x="265.5" y="-7.5" font-family="Helvetica,sans-Serif" font-size="10.00" fill="#000000">omc_Inline_inlineCall</text>
</a>
</g>
</g>
<!-- Node1807&#45;&gt;Node1810 -->
<g id="edge3" class="edge">
<title>Node1807&#45;&gt;Node1810</title>
<path fill="none" stroke="#191970" d="M159.4029,-20.5542C176.9143,-18.8122 194.9068,-17.0224 210.9863,-15.4228"/>
<polygon fill="#191970" stroke="#191970" points="158.7706,-17.0997 149.1662,-21.5725 159.4636,-24.0653 158.7706,-17.0997"/>
</g>
<!-- Node1809 -->
<g id="node3" class="node">
<title>Node1809</title>
<g id="a_node3"><a xlink:href="../../d0/d9b/_backend_inline_8c.html#a1dba0bf9f8b9fa2d96c0bae0dc761179" target="_top" xlink:title="boxptr_BackendInline\l_addNoEvent">
<polygon fill="#ffffff" stroke="#000000" points="382,-33 382,-63 492,-63 492,-33 382,-33"/>
<text text-anchor="start" x="390" y="-51" font-family="Helvetica,sans-Serif" font-size="10.00" fill="#000000">boxptr_BackendInline</text>
<text text-anchor="middle" x="437" y="-40" font-family="Helvetica,sans-Serif" font-size="10.00" fill="#000000">_addNoEvent</text>
</a>
</g>
</g>
<!-- Node1808&#45;&gt;Node1809 -->
<g id="edge2" class="edge">
<title>Node1808&#45;&gt;Node1809</title>
<path fill="none" stroke="#191970" d="M356.3543,-48C364.9711,-48 373.519,-48 381.6482,-48"/>
<polygon fill="#191970" stroke="#191970" points="356.2282,-44.5001 346.2281,-48 356.2281,-51.5001 356.2282,-44.5001"/>
</g>
</g>
</svg>
