<?xml version="1.0" encoding="UTF-8" standalone="no"?>
<!DOCTYPE svg PUBLIC "-//W3C//DTD SVG 1.1//EN"
 "http://www.w3.org/Graphics/SVG/1.1/DTD/svg11.dtd">
<!-- Generated by graphviz version 2.40.1 (20161225.0304)
 -->
<!-- Title: boxptr_Expression_traverseExpTopDown1 Pages: 1 -->
<svg width="695pt" height="61pt"
 viewBox="0.00 0.00 695.00 61.00" xmlns="http://www.w3.org/2000/svg" xmlns:xlink="http://www.w3.org/1999/xlink">
<g id="graph0" class="graph" transform="scale(1 1) rotate(0) translate(4 57)">
<title>boxptr_Expression_traverseExpTopDown1</title>
<polygon fill="#ffffff" stroke="transparent" points="-4,4 -4,-57 691,-57 691,4 -4,4"/>
<!-- Node1548 -->
<g id="node1" class="node">
<title>Node1548</title>
<polygon fill="#bfbfbf" stroke="#000000" points="0,-.5 0,-30.5 138,-30.5 138,-.5 0,-.5"/>
<text text-anchor="start" x="8" y="-18.5" font-family="Helvetica,sans-Serif" font-size="10.00" fill="#000000">boxptr_Expression_traverse</text>
<text text-anchor="middle" x="69" y="-7.5" font-family="Helvetica,sans-Serif" font-size="10.00" fill="#000000">ExpTopDown1</text>
</g>
<!-- Node1549 -->
<g id="node2" class="node">
<title>Node1549</title>
<g id="a_node2"><a xlink:href="../../d1/d08/_expression_8c.html#a284ed83da5ddebfd921c04212bd203c8" target="_top" xlink:title="omc_Expression_traverseExp\lTopDown1">
<polygon fill="#ffffff" stroke="#000000" points="174,-.5 174,-30.5 321,-30.5 321,-.5 174,-.5"/>
<text text-anchor="start" x="182" y="-18.5" font-family="Helvetica,sans-Serif" font-size="10.00" fill="#000000">omc_Expression_traverseExp</text>
<text text-anchor="middle" x="247.5" y="-7.5" font-family="Helvetica,sans-Serif" font-size="10.00" fill="#000000">TopDown1</text>
</a>
</g>
</g>
<!-- Node1548&#45;&gt;Node1549 -->
<g id="edge1" class="edge">
<title>Node1548&#45;&gt;Node1549</title>
<path fill="none" stroke="#191970" d="M138.0128,-15.5C146.4743,-15.5 155.1921,-15.5 163.8396,-15.5"/>
<polygon fill="#191970" stroke="#191970" points="163.9392,-19.0001 173.9392,-15.5 163.9392,-12.0001 163.9392,-19.0001"/>
</g>
<!-- Node1550 -->
<g id="node3" class="node">
<title>Node1550</title>
<g id="a_node3"><a xlink:href="../../d1/d08/_expression_8c.html#a1b5b8886210ecb39c98e6f75d7842a64" target="_top" xlink:title="omc_Expression_traverseExp\lTopDownClockHelper">
<polygon fill="#ffffff" stroke="#000000" points="357,-22.5 357,-52.5 504,-52.5 504,-22.5 357,-22.5"/>
<text text-anchor="start" x="365" y="-40.5" font-family="Helvetica,sans-Serif" font-size="10.00" fill="#000000">omc_Expression_traverseExp</text>
<text text-anchor="middle" x="430.5" y="-29.5" font-family="Helvetica,sans-Serif" font-size="10.00" fill="#000000">TopDownClockHelper</text>
</a>
</g>
</g>
<!-- Node1549&#45;&gt;Node1550 -->
<g id="edge2" class="edge">
<title>Node1549&#45;&gt;Node1550</title>
<path fill="none" stroke="#191970" d="M321.1421,-24.3531C329.5655,-25.3658 338.199,-26.4037 346.7418,-27.4307"/>
<polygon fill="#191970" stroke="#191970" points="346.3644,-30.9105 356.7107,-28.6292 347.2,-23.9605 346.3644,-30.9105"/>
</g>
<!-- Node1551 -->
<g id="node4" class="node">
<title>Node1551</title>
<g id="a_node4"><a xlink:href="../../d1/d08/_expression_8c.html#a6662428de193bfcdb5dc1713add71ecb" target="_top" xlink:title="omc_Expression_traverseExp\lTopDown">
<polygon fill="#ffffff" stroke="#000000" points="540,-.5 540,-30.5 687,-30.5 687,-.5 540,-.5"/>
<text text-anchor="start" x="548" y="-18.5" font-family="Helvetica,sans-Serif" font-size="10.00" fill="#000000">omc_Expression_traverseExp</text>
<text text-anchor="middle" x="613.5" y="-7.5" font-family="Helvetica,sans-Serif" font-size="10.00" fill="#000000">TopDown</text>
</a>
</g>
</g>
<!-- Node1550&#45;&gt;Node1551 -->
<g id="edge3" class="edge">
<title>Node1550&#45;&gt;Node1551</title>
<path fill="none" stroke="#191970" d="M504.1421,-28.6469C512.5655,-27.6342 521.199,-26.5963 529.7418,-25.5693"/>
<polygon fill="#191970" stroke="#191970" points="530.2,-29.0395 539.7107,-24.3708 529.3644,-22.0895 530.2,-29.0395"/>
</g>
<!-- Node1551&#45;&gt;Node1549 -->
<g id="edge4" class="edge">
<title>Node1551&#45;&gt;Node1549</title>
<path fill="none" stroke="#191970" d="M539.8764,-13.9709C527.8857,-13.7749 515.5978,-13.6059 504,-13.5 438.6694,-12.9034 422.3306,-12.9034 357,-13.5 348.6641,-13.5761 339.9716,-13.6848 331.2893,-13.8127"/>
<polygon fill="#191970" stroke="#191970" points="331.068,-10.3157 321.1236,-13.9709 331.1769,-17.3148 331.068,-10.3157"/>
</g>
</g>
</svg>
