<?xml version="1.0" encoding="UTF-8" standalone="no"?>
<!DOCTYPE svg PUBLIC "-//W3C//DTD SVG 1.1//EN"
 "http://www.w3.org/Graphics/SVG/1.1/DTD/svg11.dtd">
<!-- Generated by graphviz version 2.40.1 (20161225.0304)
 -->
<!-- Title: omc_Expression_rangesToSubscripts Pages: 1 -->
<svg width="541pt" height="137pt"
 viewBox="0.00 0.00 541.00 137.00" xmlns="http://www.w3.org/2000/svg" xmlns:xlink="http://www.w3.org/1999/xlink">
<g id="graph0" class="graph" transform="scale(1 1) rotate(0) translate(4 133)">
<title>omc_Expression_rangesToSubscripts</title>
<polygon fill="#ffffff" stroke="transparent" points="-4,4 -4,-133 537,-133 537,4 -4,4"/>
<!-- Node26891 -->
<g id="node1" class="node">
<title>Node26891</title>
<polygon fill="#bfbfbf" stroke="#000000" points="0,-55 0,-74 182,-74 182,-55 0,-55"/>
<text text-anchor="middle" x="91" y="-62" font-family="Helvetica,sans-Serif" font-size="10.00" fill="#000000">omc_Expression_rangesToSubscripts</text>
</g>
<!-- Node26892 -->
<g id="node2" class="node">
<title>Node26892</title>
<g id="a_node2"><a xlink:href="../../de/d7d/_backend_d_a_e_util_8h.html#ab8802b9e4c059e90de73ca6bc9066cc4" target="_top" xlink:title="omc_BackendDAEUtil\l_getArrayEquationSub">
<polygon fill="#ffffff" stroke="#000000" points="236,-98.5 236,-128.5 351,-128.5 351,-98.5 236,-98.5"/>
<text text-anchor="start" x="244" y="-116.5" font-family="Helvetica,sans-Serif" font-size="10.00" fill="#000000">omc_BackendDAEUtil</text>
<text text-anchor="middle" x="293.5" y="-105.5" font-family="Helvetica,sans-Serif" font-size="10.00" fill="#000000">_getArrayEquationSub</text>
</a>
</g>
</g>
<!-- Node26891&#45;&gt;Node26892 -->
<g id="edge1" class="edge">
<title>Node26891&#45;&gt;Node26892</title>
<path fill="none" stroke="#191970" d="M140.3588,-76.4436C169.1293,-83.4054 205.5603,-92.2208 235.6707,-99.5067"/>
<polygon fill="#191970" stroke="#191970" points="141.0674,-73.0141 130.5248,-74.064 139.4211,-79.8178 141.0674,-73.0141"/>
</g>
<!-- Node26894 -->
<g id="node4" class="node">
<title>Node26894</title>
<g id="a_node4"><a xlink:href="../../d4/dd2/_remove_simple_equations_8c.html#a1f26d6444a94d17c22038a117655cbb6" target="_top" xlink:title="omc_RemoveSimpleEquations\l_simpleArrayEquationAcausal">
<polygon fill="#ffffff" stroke="#000000" points="218,-49.5 218,-79.5 369,-79.5 369,-49.5 218,-49.5"/>
<text text-anchor="start" x="226" y="-67.5" font-family="Helvetica,sans-Serif" font-size="10.00" fill="#000000">omc_RemoveSimpleEquations</text>
<text text-anchor="middle" x="293.5" y="-56.5" font-family="Helvetica,sans-Serif" font-size="10.00" fill="#000000">_simpleArrayEquationAcausal</text>
</a>
</g>
</g>
<!-- Node26891&#45;&gt;Node26894 -->
<g id="edge3" class="edge">
<title>Node26891&#45;&gt;Node26894</title>
<path fill="none" stroke="#191970" d="M192.3068,-64.5C200.9466,-64.5 209.5858,-64.5 217.9728,-64.5"/>
<polygon fill="#191970" stroke="#191970" points="192.1794,-61.0001 182.1794,-64.5 192.1793,-68.0001 192.1794,-61.0001"/>
</g>
<!-- Node26895 -->
<g id="node5" class="node">
<title>Node26895</title>
<g id="a_node5"><a xlink:href="../../d2/d88/_symbolic_jacobian_8c.html#abb737e24113a1f1d3b74b5d2b84865ed" target="_top" xlink:title="omc_SymbolicJacobian\l_calculateJacobianRow">
<polygon fill="#ffffff" stroke="#000000" points="233.5,-.5 233.5,-30.5 353.5,-30.5 353.5,-.5 233.5,-.5"/>
<text text-anchor="start" x="241.5" y="-18.5" font-family="Helvetica,sans-Serif" font-size="10.00" fill="#000000">omc_SymbolicJacobian</text>
<text text-anchor="middle" x="293.5" y="-7.5" font-family="Helvetica,sans-Serif" font-size="10.00" fill="#000000">_calculateJacobianRow</text>
</a>
</g>
</g>
<!-- Node26891&#45;&gt;Node26895 -->
<g id="edge4" class="edge">
<title>Node26891&#45;&gt;Node26895</title>
<path fill="none" stroke="#191970" d="M140.4923,-52.5241C168.4991,-45.7471 203.7327,-37.2215 233.328,-30.0601"/>
<polygon fill="#191970" stroke="#191970" points="139.4211,-49.1822 130.5248,-54.936 141.0674,-55.9859 139.4211,-49.1822"/>
</g>
<!-- Node26893 -->
<g id="node3" class="node">
<title>Node26893</title>
<g id="a_node3"><a xlink:href="../../de/d7d/_backend_d_a_e_util_8h.html#a9d1022c50ec1dd8cb78aabceb28e8f69" target="_top" xlink:title="boxptr_BackendDAEUtil\l_getArrayEquationSub">
<polygon fill="#ffffff" stroke="#000000" points="407.5,-98.5 407.5,-128.5 530.5,-128.5 530.5,-98.5 407.5,-98.5"/>
<text text-anchor="start" x="415.5" y="-116.5" font-family="Helvetica,sans-Serif" font-size="10.00" fill="#000000">boxptr_BackendDAEUtil</text>
<text text-anchor="middle" x="469" y="-105.5" font-family="Helvetica,sans-Serif" font-size="10.00" fill="#000000">_getArrayEquationSub</text>
</a>
</g>
</g>
<!-- Node26892&#45;&gt;Node26893 -->
<g id="edge2" class="edge">
<title>Node26892&#45;&gt;Node26893</title>
<path fill="none" stroke="#191970" d="M361.7368,-113.5C376.8139,-113.5 392.7004,-113.5 407.4915,-113.5"/>
<polygon fill="#191970" stroke="#191970" points="361.4517,-110.0001 351.4516,-113.5 361.4516,-117.0001 361.4517,-110.0001"/>
</g>
<!-- Node26896 -->
<g id="node6" class="node">
<title>Node26896</title>
<g id="a_node6"><a xlink:href="../../d2/d88/_symbolic_jacobian_8c.html#af28021e845e5f7cdfcebddcef55d9d16" target="_top" xlink:title="boxptr_SymbolicJacobian\l_calculateJacobianRow">
<polygon fill="#ffffff" stroke="#000000" points="405,-.5 405,-30.5 533,-30.5 533,-.5 405,-.5"/>
<text text-anchor="start" x="413" y="-18.5" font-family="Helvetica,sans-Serif" font-size="10.00" fill="#000000">boxptr_SymbolicJacobian</text>
<text text-anchor="middle" x="469" y="-7.5" font-family="Helvetica,sans-Serif" font-size="10.00" fill="#000000">_calculateJacobianRow</text>
</a>
</g>
</g>
<!-- Node26895&#45;&gt;Node26896 -->
<g id="edge5" class="edge">
<title>Node26895&#45;&gt;Node26896</title>
<path fill="none" stroke="#191970" d="M364.0813,-15.5C377.5718,-15.5 391.6257,-15.5 404.8994,-15.5"/>
<polygon fill="#191970" stroke="#191970" points="363.8972,-12.0001 353.8971,-15.5 363.8971,-19.0001 363.8972,-12.0001"/>
</g>
</g>
</svg>
