<?xml version="1.0" encoding="UTF-8" standalone="no"?>
<!DOCTYPE svg PUBLIC "-//W3C//DTD SVG 1.1//EN"
 "http://www.w3.org/Graphics/SVG/1.1/DTD/svg11.dtd">
<!-- Generated by graphviz version 2.40.1 (20161225.0304)
 -->
<!-- Title: omc_Graphviz_nodename Pages: 1 -->
<svg width="248pt" height="104pt"
 viewBox="0.00 0.00 248.00 104.00" xmlns="http://www.w3.org/2000/svg" xmlns:xlink="http://www.w3.org/1999/xlink">
<g id="graph0" class="graph" transform="scale(1 1) rotate(0) translate(4 100)">
<title>omc_Graphviz_nodename</title>
<polygon fill="#ffffff" stroke="transparent" points="-4,4 -4,-100 244,-100 244,4 -4,4"/>
<!-- Node58 -->
<g id="node1" class="node">
<title>Node58</title>
<polygon fill="#bfbfbf" stroke="#000000" points="0,-38.5 0,-57.5 130,-57.5 130,-38.5 0,-38.5"/>
<text text-anchor="middle" x="65" y="-45.5" font-family="Helvetica,sans-Serif" font-size="10.00" fill="#000000">omc_Graphviz_nodename</text>
</g>
<!-- Node59 -->
<g id="node2" class="node">
<title>Node59</title>
<g id="a_node2"><a xlink:href="../../d2/d57/build_2include_2omc_2c_2meta_2meta__modelica__builtin_8h.html#a2f1bc231541cb303839d0c6b46af692e" target="_top" xlink:title="tick">
<polygon fill="#ffffff" stroke="#000000" points="187,-76.5 187,-95.5 219,-95.5 219,-76.5 187,-76.5"/>
<text text-anchor="middle" x="203" y="-83.5" font-family="Helvetica,sans-Serif" font-size="10.00" fill="#000000">tick</text>
</a>
</g>
</g>
<!-- Node58&#45;&gt;Node59 -->
<g id="edge1" class="edge">
<title>Node58&#45;&gt;Node59</title>
<path fill="none" stroke="#191970" d="M99.8232,-57.589C123.8395,-64.2022 155.2461,-72.8504 177.0716,-78.8603"/>
<polygon fill="#191970" stroke="#191970" points="176.3715,-82.2977 186.9419,-81.5782 178.2299,-75.5489 176.3715,-82.2977"/>
</g>
<!-- Node60 -->
<g id="node3" class="node">
<title>Node60</title>
<g id="a_node3"><a xlink:href="../../d2/d57/build_2include_2omc_2c_2meta_2meta__modelica__builtin_8h.html#a751bf2360cb3df6de97811998890b7ea" target="_top" xlink:title="intString">
<polygon fill="#ffffff" stroke="#000000" points="176.5,-38.5 176.5,-57.5 229.5,-57.5 229.5,-38.5 176.5,-38.5"/>
<text text-anchor="middle" x="203" y="-45.5" font-family="Helvetica,sans-Serif" font-size="10.00" fill="#000000">intString</text>
</a>
</g>
</g>
<!-- Node58&#45;&gt;Node60 -->
<g id="edge2" class="edge">
<title>Node58&#45;&gt;Node60</title>
<path fill="none" stroke="#191970" d="M130.3628,-48C142.7165,-48 155.226,-48 166.3016,-48"/>
<polygon fill="#191970" stroke="#191970" points="166.4293,-51.5001 176.4292,-48 166.4292,-44.5001 166.4293,-51.5001"/>
</g>
<!-- Node61 -->
<g id="node4" class="node">
<title>Node61</title>
<g id="a_node4"><a xlink:href="../../d7/deb/build_2include_2omc_2c_2util_2modelica__string_8c.html#a751007abc59e9ca7978f2af10a0c814f" target="_top" xlink:title="stringAppend">
<polygon fill="#ffffff" stroke="#000000" points="166,-.5 166,-19.5 240,-19.5 240,-.5 166,-.5"/>
<text text-anchor="middle" x="203" y="-7.5" font-family="Helvetica,sans-Serif" font-size="10.00" fill="#000000">stringAppend</text>
</a>
</g>
</g>
<!-- Node58&#45;&gt;Node61 -->
<g id="edge3" class="edge">
<title>Node58&#45;&gt;Node61</title>
<path fill="none" stroke="#191970" d="M99.8232,-38.411C117.6377,-33.5056 139.5184,-27.4804 158.5389,-22.2429"/>
<polygon fill="#191970" stroke="#191970" points="159.476,-25.6152 168.1879,-19.5859 157.6175,-18.8664 159.476,-25.6152"/>
</g>
</g>
</svg>
