<?xml version="1.0" encoding="UTF-8" standalone="no"?>
<!DOCTYPE svg PUBLIC "-//W3C//DTD SVG 1.1//EN"
 "http://www.w3.org/Graphics/SVG/1.1/DTD/svg11.dtd">
<!-- Generated by graphviz version 2.40.1 (20161225.0304)
 -->
<!-- Title: Ipopt::Ma57TSolverInterface::InitializeStructure Pages: 1 -->
<svg width="704pt" height="497pt"
 viewBox="0.00 0.00 704.00 497.00" xmlns="http://www.w3.org/2000/svg" xmlns:xlink="http://www.w3.org/1999/xlink">
<g id="graph0" class="graph" transform="scale(1 1) rotate(0) translate(4 493)">
<title>Ipopt::Ma57TSolverInterface::InitializeStructure</title>
<polygon fill="#ffffff" stroke="transparent" points="-4,4 -4,-493 700,-493 700,4 -4,4"/>
<!-- Node22 -->
<g id="node1" class="node">
<title>Node22</title>
<polygon fill="#bfbfbf" stroke="#000000" points="0,-229.5 0,-259.5 140,-259.5 140,-229.5 0,-229.5"/>
<text text-anchor="start" x="8" y="-247.5" font-family="Helvetica,sans-Serif" font-size="10.00" fill="#000000">Ipopt::Ma57TSolverInterface</text>
<text text-anchor="middle" x="70" y="-236.5" font-family="Helvetica,sans-Serif" font-size="10.00" fill="#000000">::InitializeStructure</text>
</g>
<!-- Node23 -->
<g id="node2" class="node">
<title>Node23</title>
<g id="a_node2"><a xlink:href="../../d6/d4a/class_ipopt_1_1_algorithm_strategy_object.html#a5f6310084b90871ee4eec3d89bb407ee" target="_top" xlink:title="Ipopt::AlgorithmStrategy\lObject::HaveIpData">
<polygon fill="#ffffff" stroke="#000000" points="204.5,-409.5 204.5,-439.5 326.5,-439.5 326.5,-409.5 204.5,-409.5"/>
<text text-anchor="start" x="212.5" y="-427.5" font-family="Helvetica,sans-Serif" font-size="10.00" fill="#000000">Ipopt::AlgorithmStrategy</text>
<text text-anchor="middle" x="265.5" y="-416.5" font-family="Helvetica,sans-Serif" font-size="10.00" fill="#000000">Object::HaveIpData</text>
</a>
</g>
</g>
<!-- Node22&#45;&gt;Node23 -->
<g id="edge1" class="edge">
<title>Node22&#45;&gt;Node23</title>
<path fill="none" stroke="#191970" d="M75.9179,-259.5834C88.9952,-290.8931 123.4247,-363.126 176,-400.5 181.6381,-404.5079 187.9072,-407.8466 194.4364,-410.6277"/>
<polygon fill="#191970" stroke="#191970" points="193.554,-414.0365 204.1452,-414.3164 196.0402,-407.4929 193.554,-414.0365"/>
</g>
<!-- Node27 -->
<g id="node6" class="node">
<title>Node27</title>
<g id="a_node6"><a xlink:href="../../d6/d4a/class_ipopt_1_1_algorithm_strategy_object.html#a8b39e20ef00543ac41de1e4bb8a75930" target="_top" xlink:title="Ipopt::AlgorithmStrategy\lObject::IpData">
<polygon fill="#ffffff" stroke="#000000" points="204.5,-458.5 204.5,-488.5 326.5,-488.5 326.5,-458.5 204.5,-458.5"/>
<text text-anchor="start" x="212.5" y="-476.5" font-family="Helvetica,sans-Serif" font-size="10.00" fill="#000000">Ipopt::AlgorithmStrategy</text>
<text text-anchor="middle" x="265.5" y="-465.5" font-family="Helvetica,sans-Serif" font-size="10.00" fill="#000000">Object::IpData</text>
</a>
</g>
</g>
<!-- Node22&#45;&gt;Node27 -->
<g id="edge5" class="edge">
<title>Node22&#45;&gt;Node27</title>
<path fill="none" stroke="#191970" d="M73.3267,-259.534C82.5349,-297.5219 112.0188,-397.9945 176,-449.5 181.6861,-454.0773 188.1682,-457.786 194.9856,-460.7902"/>
<polygon fill="#191970" stroke="#191970" points="193.8578,-464.1069 204.4466,-464.4655 196.3926,-457.5819 193.8578,-464.1069"/>
</g>
<!-- Node28 -->
<g id="node7" class="node">
<title>Node28</title>
<g id="a_node7"><a xlink:href="../../de/dd4/class_ipopt_1_1_ipopt_data.html#a53fde5ffec9d56518fb90db19d39aac7" target="_top" xlink:title="Ipopt::IpoptData::Timing\lStats">
<polygon fill="#ffffff" stroke="#000000" points="204.5,-360.5 204.5,-390.5 326.5,-390.5 326.5,-360.5 204.5,-360.5"/>
<text text-anchor="start" x="212.5" y="-378.5" font-family="Helvetica,sans-Serif" font-size="10.00" fill="#000000">Ipopt::IpoptData::Timing</text>
<text text-anchor="middle" x="265.5" y="-367.5" font-family="Helvetica,sans-Serif" font-size="10.00" fill="#000000">Stats</text>
</a>
</g>
</g>
<!-- Node22&#45;&gt;Node28 -->
<g id="edge7" class="edge">
<title>Node22&#45;&gt;Node28</title>
<path fill="none" stroke="#191970" d="M80.8473,-259.7785C98.233,-283.1199 134.6178,-327.4729 176,-351.5 181.7953,-354.8648 188.0743,-357.7701 194.5262,-360.2762"/>
<polygon fill="#191970" stroke="#191970" points="193.4718,-363.6159 204.0665,-363.6695 195.8176,-357.0207 193.4718,-363.6159"/>
</g>
<!-- Node29 -->
<g id="node8" class="node">
<title>Node29</title>
<g id="a_node8"><a xlink:href="../../de/d34/class_ipopt_1_1_timing_statistics.html#aa6ff53186bb85b6f00116742d25e1989" target="_top" xlink:title="Ipopt::TimingStatistics\l::LinearSystemSymbolicFactorization">
<polygon fill="#ffffff" stroke="#000000" points="176,-311.5 176,-341.5 355,-341.5 355,-311.5 176,-311.5"/>
<text text-anchor="start" x="184" y="-329.5" font-family="Helvetica,sans-Serif" font-size="10.00" fill="#000000">Ipopt::TimingStatistics</text>
<text text-anchor="middle" x="265.5" y="-318.5" font-family="Helvetica,sans-Serif" font-size="10.00" fill="#000000">::LinearSystemSymbolicFactorization</text>
</a>
</g>
</g>
<!-- Node22&#45;&gt;Node29 -->
<g id="edge8" class="edge">
<title>Node22&#45;&gt;Node29</title>
<path fill="none" stroke="#191970" d="M94.5172,-259.7021C115.532,-272.2339 146.9273,-289.7907 176,-301.5 182.1332,-303.9702 188.5966,-306.2903 195.1272,-308.4449"/>
<polygon fill="#191970" stroke="#191970" points="194.1226,-311.798 204.7127,-311.4816 196.2367,-305.1249 194.1226,-311.798"/>
</g>
<!-- Node30 -->
<g id="node9" class="node">
<title>Node30</title>
<g id="a_node9"><a xlink:href="../../de/df0/class_ipopt_1_1_timed_task.html#afb6b9e7754f57ded5c93b58123eed42c" target="_top" xlink:title="Ipopt::TimedTask::Start">
<polygon fill="#ffffff" stroke="#000000" points="205.5,-235 205.5,-254 325.5,-254 325.5,-235 205.5,-235"/>
<text text-anchor="middle" x="265.5" y="-242" font-family="Helvetica,sans-Serif" font-size="10.00" fill="#000000">Ipopt::TimedTask::Start</text>
</a>
</g>
</g>
<!-- Node22&#45;&gt;Node30 -->
<g id="edge9" class="edge">
<title>Node22&#45;&gt;Node30</title>
<path fill="none" stroke="#191970" d="M140.0278,-244.5C157.971,-244.5 177.2728,-244.5 195.2283,-244.5"/>
<polygon fill="#191970" stroke="#191970" points="195.3348,-248.0001 205.3348,-244.5 195.3348,-241.0001 195.3348,-248.0001"/>
</g>
<!-- Node35 -->
<g id="node14" class="node">
<title>Node35</title>
<g id="a_node14"><a xlink:href="../../d8/df7/_ip_ma57_t_solver_interface_8cpp.html#ae3f070131e329d4c48077e96f894e7e5" target="_top" xlink:title="F77_FUNC">
<polygon fill="#ffffff" stroke="#000000" points="232,-197 232,-216 299,-216 299,-197 232,-197"/>
<text text-anchor="middle" x="265.5" y="-204" font-family="Helvetica,sans-Serif" font-size="10.00" fill="#000000">F77_FUNC</text>
</a>
</g>
</g>
<!-- Node22&#45;&gt;Node35 -->
<g id="edge14" class="edge">
<title>Node22&#45;&gt;Node35</title>
<path fill="none" stroke="#191970" d="M140.0278,-230.8885C167.3503,-225.5777 197.8228,-219.6546 221.8953,-214.9756"/>
<polygon fill="#191970" stroke="#191970" points="222.6439,-218.3957 231.7924,-213.0519 221.3083,-211.5243 222.6439,-218.3957"/>
</g>
<!-- Node36 -->
<g id="node15" class="node">
<title>Node36</title>
<g id="a_node15"><a xlink:href="../../d6/d4a/class_ipopt_1_1_algorithm_strategy_object.html#af33506203825c1679fdb8e3b02df0cd7" target="_top" xlink:title="Ipopt::AlgorithmStrategy\lObject::Jnlst">
<polygon fill="#ffffff" stroke="#000000" points="204.5,-147.5 204.5,-177.5 326.5,-177.5 326.5,-147.5 204.5,-147.5"/>
<text text-anchor="start" x="212.5" y="-165.5" font-family="Helvetica,sans-Serif" font-size="10.00" fill="#000000">Ipopt::AlgorithmStrategy</text>
<text text-anchor="middle" x="265.5" y="-154.5" font-family="Helvetica,sans-Serif" font-size="10.00" fill="#000000">Object::Jnlst</text>
</a>
</g>
</g>
<!-- Node22&#45;&gt;Node36 -->
<g id="edge15" class="edge">
<title>Node22&#45;&gt;Node36</title>
<path fill="none" stroke="#191970" d="M94.5172,-229.2979C115.532,-216.7661 146.9273,-199.2093 176,-187.5 182.1332,-185.0298 188.5966,-182.7097 195.1272,-180.5551"/>
<polygon fill="#191970" stroke="#191970" points="196.2367,-183.8751 204.7127,-177.5184 194.1226,-177.202 196.2367,-183.8751"/>
</g>
<!-- Node37 -->
<g id="node16" class="node">
<title>Node37</title>
<g id="a_node16"><a xlink:href="../../d0/d1d/class_ipopt_1_1_journalist.html#af36c292ab2c6708c5585f5fdeca2f91c" target="_top" xlink:title="Ipopt::Journalist::\lPrintf">
<polygon fill="#ffffff" stroke="#000000" points="219.5,-98.5 219.5,-128.5 311.5,-128.5 311.5,-98.5 219.5,-98.5"/>
<text text-anchor="start" x="227.5" y="-116.5" font-family="Helvetica,sans-Serif" font-size="10.00" fill="#000000">Ipopt::Journalist::</text>
<text text-anchor="middle" x="265.5" y="-105.5" font-family="Helvetica,sans-Serif" font-size="10.00" fill="#000000">Printf</text>
</a>
</g>
</g>
<!-- Node22&#45;&gt;Node37 -->
<g id="edge16" class="edge">
<title>Node22&#45;&gt;Node37</title>
<path fill="none" stroke="#191970" d="M80.8473,-229.2215C98.233,-205.8801 134.6178,-161.5271 176,-137.5 186.1146,-131.6273 197.7027,-127.1546 209.1116,-123.7603"/>
<polygon fill="#191970" stroke="#191970" points="210.3248,-127.0572 219.0499,-121.047 208.4812,-120.3044 210.3248,-127.0572"/>
</g>
<!-- Node39 -->
<g id="node18" class="node">
<title>Node39</title>
<g id="a_node18"><a xlink:href="../../de/df0/class_ipopt_1_1_timed_task.html#a6827517c3cce99921a870411c1d36b1d" target="_top" xlink:title="Ipopt::TimedTask::End">
<polygon fill="#ffffff" stroke="#000000" points="207.5,-273 207.5,-292 323.5,-292 323.5,-273 207.5,-273"/>
<text text-anchor="middle" x="265.5" y="-280" font-family="Helvetica,sans-Serif" font-size="10.00" fill="#000000">Ipopt::TimedTask::End</text>
</a>
</g>
</g>
<!-- Node22&#45;&gt;Node39 -->
<g id="edge18" class="edge">
<title>Node22&#45;&gt;Node39</title>
<path fill="none" stroke="#191970" d="M140.0278,-258.1115C161.7779,-262.3392 185.5243,-266.9548 206.4491,-271.0221"/>
<polygon fill="#191970" stroke="#191970" points="205.9895,-274.4982 216.4736,-272.9706 207.3252,-267.6268 205.9895,-274.4982"/>
</g>
<!-- Node40 -->
<g id="node19" class="node">
<title>Node40</title>
<g id="a_node19"><a xlink:href="../../de/d34/class_ipopt_1_1_timing_statistics.html#af853f25944df5e1354dc3ad72b84a8c7" target="_top" xlink:title="Ipopt::TimingStatistics\l::LinearSystemFactorization">
<polygon fill="#ffffff" stroke="#000000" points="196,-49.5 196,-79.5 335,-79.5 335,-49.5 196,-49.5"/>
<text text-anchor="start" x="204" y="-67.5" font-family="Helvetica,sans-Serif" font-size="10.00" fill="#000000">Ipopt::TimingStatistics</text>
<text text-anchor="middle" x="265.5" y="-56.5" font-family="Helvetica,sans-Serif" font-size="10.00" fill="#000000">::LinearSystemFactorization</text>
</a>
</g>
</g>
<!-- Node22&#45;&gt;Node40 -->
<g id="edge22" class="edge">
<title>Node22&#45;&gt;Node40</title>
<path fill="none" stroke="#191970" d="M75.9179,-229.4166C88.9952,-198.1069 123.4247,-125.874 176,-88.5 179.2984,-86.1552 182.8129,-84.0396 186.469,-82.1306"/>
<polygon fill="#191970" stroke="#191970" points="188.2084,-85.182 195.8066,-77.7983 185.2623,-78.8321 188.2084,-85.182"/>
</g>
<!-- Node41 -->
<g id="node20" class="node">
<title>Node41</title>
<g id="a_node20"><a xlink:href="../../de/d34/class_ipopt_1_1_timing_statistics.html#a0ce293140965f65991b52137932769c9" target="_top" xlink:title="Ipopt::TimingStatistics\l::LinearSystemBackSolve">
<polygon fill="#ffffff" stroke="#000000" points="200.5,-.5 200.5,-30.5 330.5,-30.5 330.5,-.5 200.5,-.5"/>
<text text-anchor="start" x="208.5" y="-18.5" font-family="Helvetica,sans-Serif" font-size="10.00" fill="#000000">Ipopt::TimingStatistics</text>
<text text-anchor="middle" x="265.5" y="-7.5" font-family="Helvetica,sans-Serif" font-size="10.00" fill="#000000">::LinearSystemBackSolve</text>
</a>
</g>
</g>
<!-- Node22&#45;&gt;Node41 -->
<g id="edge23" class="edge">
<title>Node22&#45;&gt;Node41</title>
<path fill="none" stroke="#191970" d="M73.3267,-229.466C82.5349,-191.4781 112.0188,-91.0055 176,-39.5 180.5759,-35.8164 185.6673,-32.6953 191.0341,-30.0513"/>
<polygon fill="#191970" stroke="#191970" points="192.5039,-33.2288 200.2837,-26.0368 189.7169,-26.8076 192.5039,-33.2288"/>
</g>
<!-- Node24 -->
<g id="node3" class="node">
<title>Node24</title>
<g id="a_node3"><a xlink:href="../../d7/db2/namespace_ipopt.html#a412b04fd3180a55969ff76224d5bfec6" target="_top" xlink:title="Ipopt::IsValid">
<polygon fill="#ffffff" stroke="#000000" points="433,-461 433,-480 507,-480 507,-461 433,-461"/>
<text text-anchor="middle" x="470" y="-468" font-family="Helvetica,sans-Serif" font-size="10.00" fill="#000000">Ipopt::IsValid</text>
</a>
</g>
</g>
<!-- Node23&#45;&gt;Node24 -->
<g id="edge2" class="edge">
<title>Node23&#45;&gt;Node24</title>
<path fill="none" stroke="#191970" d="M326.5797,-438.2392C357.5323,-445.2016 394.5273,-453.5233 423.1907,-459.9708"/>
<polygon fill="#191970" stroke="#191970" points="422.4339,-463.3879 432.9583,-462.1679 423.9702,-456.5586 422.4339,-463.3879"/>
</g>
<!-- Node26 -->
<g id="node5" class="node">
<title>Node26</title>
<g id="a_node5"><a xlink:href="../../d6/d4a/class_ipopt_1_1_algorithm_strategy_object.html#af2d972f86eec83a96682bd6741a1d265" target="_top" xlink:title="Ipopt::AlgorithmStrategy\lObject::AlgorithmStrategyObject">
<polygon fill="#ffffff" stroke="#000000" points="391,-409.5 391,-439.5 549,-439.5 549,-409.5 391,-409.5"/>
<text text-anchor="start" x="399" y="-427.5" font-family="Helvetica,sans-Serif" font-size="10.00" fill="#000000">Ipopt::AlgorithmStrategy</text>
<text text-anchor="middle" x="470" y="-416.5" font-family="Helvetica,sans-Serif" font-size="10.00" fill="#000000">Object::AlgorithmStrategyObject</text>
</a>
</g>
</g>
<!-- Node23&#45;&gt;Node26 -->
<g id="edge4" class="edge">
<title>Node23&#45;&gt;Node26</title>
<path fill="none" stroke="#191970" d="M326.5797,-424.5C343.5608,-424.5 362.3604,-424.5 380.6053,-424.5"/>
<polygon fill="#191970" stroke="#191970" points="380.6692,-428.0001 390.6691,-424.5 380.6691,-421.0001 380.6692,-428.0001"/>
</g>
<!-- Node25 -->
<g id="node4" class="node">
<title>Node25</title>
<g id="a_node4"><a xlink:href="../../d7/db2/namespace_ipopt.html#acfc346e8412ed6def2dc1858b78bde1b" target="_top" xlink:title="Ipopt::IsNull">
<polygon fill="#ffffff" stroke="#000000" points="605.5,-461 605.5,-480 675.5,-480 675.5,-461 605.5,-461"/>
<text text-anchor="middle" x="640.5" y="-468" font-family="Helvetica,sans-Serif" font-size="10.00" fill="#000000">Ipopt::IsNull</text>
</a>
</g>
</g>
<!-- Node24&#45;&gt;Node25 -->
<g id="edge3" class="edge">
<title>Node24&#45;&gt;Node25</title>
<path fill="none" stroke="#191970" d="M507.4169,-470.5C533.3196,-470.5 567.9333,-470.5 595.3671,-470.5"/>
<polygon fill="#191970" stroke="#191970" points="595.4968,-474.0001 605.4967,-470.5 595.4967,-467.0001 595.4968,-474.0001"/>
</g>
<!-- Node27&#45;&gt;Node24 -->
<g id="edge6" class="edge">
<title>Node27&#45;&gt;Node24</title>
<path fill="none" stroke="#191970" d="M326.5797,-472.604C357.3971,-472.1519 394.2044,-471.6119 422.8147,-471.1922"/>
<polygon fill="#191970" stroke="#191970" points="423.0107,-474.6898 432.9583,-471.0434 422.908,-467.6906 423.0107,-474.6898"/>
</g>
<!-- Node31 -->
<g id="node10" class="node">
<title>Node31</title>
<g id="a_node10"><a xlink:href="../../d7/db2/namespace_ipopt.html#a0e00edb9cdae73cd02665950f0fdd2d2" target="_top" xlink:title="Ipopt::CpuTime">
<polygon fill="#ffffff" stroke="#000000" points="428,-292 428,-311 512,-311 512,-292 428,-292"/>
<text text-anchor="middle" x="470" y="-299" font-family="Helvetica,sans-Serif" font-size="10.00" fill="#000000">Ipopt::CpuTime</text>
</a>
</g>
</g>
<!-- Node30&#45;&gt;Node31 -->
<g id="edge10" class="edge">
<title>Node30&#45;&gt;Node31</title>
<path fill="none" stroke="#191970" d="M322.0272,-254.0199C333.116,-256.5785 344.5451,-259.7144 355,-263.5 372.0109,-269.6594 374.0733,-276.1128 391,-282.5 399.5292,-285.7184 408.7866,-288.5227 417.8609,-290.9169"/>
<polygon fill="#191970" stroke="#191970" points="417.0419,-294.3198 427.5926,-293.3541 418.7425,-287.5295 417.0419,-294.3198"/>
</g>
<!-- Node32 -->
<g id="node11" class="node">
<title>Node32</title>
<g id="a_node11"><a xlink:href="../../d7/db2/namespace_ipopt.html#a515733f54c02a37932dee7b5196bbd93" target="_top" xlink:title="Ipopt::SysTime">
<polygon fill="#ffffff" stroke="#000000" points="428.5,-254 428.5,-273 511.5,-273 511.5,-254 428.5,-254"/>
<text text-anchor="middle" x="470" y="-261" font-family="Helvetica,sans-Serif" font-size="10.00" fill="#000000">Ipopt::SysTime</text>
</a>
</g>
</g>
<!-- Node30&#45;&gt;Node32 -->
<g id="edge11" class="edge">
<title>Node30&#45;&gt;Node32</title>
<path fill="none" stroke="#191970" d="M325.7507,-250.0979C355.1314,-252.8276 390.1117,-256.0776 418.267,-258.6935"/>
<polygon fill="#191970" stroke="#191970" points="418.0272,-262.1862 428.3082,-259.6264 418.6749,-255.2162 418.0272,-262.1862"/>
</g>
<!-- Node33 -->
<g id="node12" class="node">
<title>Node33</title>
<g id="a_node12"><a xlink:href="../../d7/db2/namespace_ipopt.html#a3f01a06ffec7ca3063c795befe7d8d65" target="_top" xlink:title="Ipopt::WallclockTime">
<polygon fill="#ffffff" stroke="#000000" points="415.5,-216 415.5,-235 524.5,-235 524.5,-216 415.5,-216"/>
<text text-anchor="middle" x="470" y="-223" font-family="Helvetica,sans-Serif" font-size="10.00" fill="#000000">Ipopt::WallclockTime</text>
</a>
</g>
</g>
<!-- Node30&#45;&gt;Node33 -->
<g id="edge12" class="edge">
<title>Node30&#45;&gt;Node33</title>
<path fill="none" stroke="#191970" d="M325.7507,-238.9021C350.7063,-236.5835 379.7019,-233.8896 405.1235,-231.5276"/>
<polygon fill="#191970" stroke="#191970" points="405.7744,-234.9823 415.4077,-230.5721 405.1267,-228.0124 405.7744,-234.9823"/>
</g>
<!-- Node34 -->
<g id="node13" class="node">
<title>Node34</title>
<g id="a_node13"><a xlink:href="../../db/d8f/_ip_utils_8cpp.html#adf087c0fc1da06470ed777cfd20fce3b" target="_top" xlink:title="IpCoinGetTimeOfDay">
<polygon fill="#ffffff" stroke="#000000" points="585,-216 585,-235 696,-235 696,-216 585,-216"/>
<text text-anchor="middle" x="640.5" y="-223" font-family="Helvetica,sans-Serif" font-size="10.00" fill="#000000">IpCoinGetTimeOfDay</text>
</a>
</g>
</g>
<!-- Node33&#45;&gt;Node34 -->
<g id="edge13" class="edge">
<title>Node33&#45;&gt;Node34</title>
<path fill="none" stroke="#191970" d="M524.8858,-225.5C540.7673,-225.5 558.2661,-225.5 574.7391,-225.5"/>
<polygon fill="#191970" stroke="#191970" points="574.8397,-229.0001 584.8397,-225.5 574.8396,-222.0001 574.8397,-229.0001"/>
</g>
<!-- Node38 -->
<g id="node17" class="node">
<title>Node38</title>
<g id="a_node17"><a xlink:href="../../d0/d1d/class_ipopt_1_1_journalist.html#a0246a370d7fc421484490bd90604e4d7" target="_top" xlink:title="Ipopt::Journalist::\lVPrintf">
<polygon fill="#ffffff" stroke="#000000" points="424,-98.5 424,-128.5 516,-128.5 516,-98.5 424,-98.5"/>
<text text-anchor="start" x="432" y="-116.5" font-family="Helvetica,sans-Serif" font-size="10.00" fill="#000000">Ipopt::Journalist::</text>
<text text-anchor="middle" x="470" y="-105.5" font-family="Helvetica,sans-Serif" font-size="10.00" fill="#000000">VPrintf</text>
</a>
</g>
</g>
<!-- Node37&#45;&gt;Node38 -->
<g id="edge17" class="edge">
<title>Node37&#45;&gt;Node38</title>
<path fill="none" stroke="#191970" d="M311.6488,-113.5C341.8376,-113.5 381.4763,-113.5 413.5423,-113.5"/>
<polygon fill="#191970" stroke="#191970" points="413.6657,-117.0001 423.6657,-113.5 413.6656,-110.0001 413.6657,-117.0001"/>
</g>
<!-- Node39&#45;&gt;Node31 -->
<g id="edge19" class="edge">
<title>Node39&#45;&gt;Node31</title>
<path fill="none" stroke="#191970" d="M323.5545,-287.8938C353.1069,-290.6395 388.7585,-293.9519 417.4858,-296.6209"/>
<polygon fill="#191970" stroke="#191970" points="417.4512,-300.1327 427.7321,-297.5729 418.0988,-293.1627 417.4512,-300.1327"/>
</g>
<!-- Node39&#45;&gt;Node32 -->
<g id="edge20" class="edge">
<title>Node39&#45;&gt;Node32</title>
<path fill="none" stroke="#191970" d="M323.5545,-277.1062C353.3173,-274.3409 389.2663,-271.0009 418.0981,-268.3222"/>
<polygon fill="#191970" stroke="#191970" points="418.7404,-271.7777 428.3737,-267.3675 418.0928,-264.8077 418.7404,-271.7777"/>
</g>
<!-- Node39&#45;&gt;Node33 -->
<g id="edge21" class="edge">
<title>Node39&#45;&gt;Node33</title>
<path fill="none" stroke="#191970" d="M322.0272,-272.9801C333.116,-270.4215 344.5451,-267.2856 355,-263.5 372.0109,-257.3406 374.0733,-250.8872 391,-244.5 397.7145,-241.9663 404.8802,-239.6893 412.0527,-237.667"/>
<polygon fill="#191970" stroke="#191970" points="413.0363,-241.0271 421.7958,-235.067 411.2314,-234.2638 413.0363,-241.0271"/>
</g>
</g>
</svg>
