<?xml version="1.0" encoding="UTF-8" standalone="no"?>
<!DOCTYPE svg PUBLIC "-//W3C//DTD SVG 1.1//EN"
 "http://www.w3.org/Graphics/SVG/1.1/DTD/svg11.dtd">
<!-- Generated by graphviz version 2.40.1 (20161225.0304)
 -->
<!-- Title: MeasureTimePAPI::initializeDirty Pages: 1 -->
<svg width="331pt" height="78pt"
 viewBox="0.00 0.00 331.00 77.50" xmlns="http://www.w3.org/2000/svg" xmlns:xlink="http://www.w3.org/1999/xlink">
<g id="graph0" class="graph" transform="scale(1 1) rotate(0) translate(4 73.5)">
<title>MeasureTimePAPI::initializeDirty</title>
<polygon fill="#ffffff" stroke="transparent" points="-4,4 -4,-73.5 327,-73.5 327,4 -4,4"/>
<!-- Node14 -->
<g id="node1" class="node">
<title>Node14</title>
<polygon fill="#bfbfbf" stroke="#000000" points="0,-22.5 0,-52.5 140,-52.5 140,-22.5 0,-22.5"/>
<text text-anchor="start" x="8" y="-40.5" font-family="Helvetica,sans-Serif" font-size="10.00" fill="#000000">MeasureTimePAPI::initialize</text>
<text text-anchor="middle" x="70" y="-29.5" font-family="Helvetica,sans-Serif" font-size="10.00" fill="#000000">Dirty</text>
</g>
<!-- Node15 -->
<g id="node2" class="node">
<title>Node15</title>
<g id="a_node2"><a xlink:href="../../d6/df2/class_measure_time.html#a2782baf659443a72c40e95334471e10c" target="_top" xlink:title="MeasureTime::initializeThread">
<polygon fill="#ffffff" stroke="#000000" points="176,-50 176,-69 323,-69 323,-50 176,-50"/>
<text text-anchor="middle" x="249.5" y="-57" font-family="Helvetica,sans-Serif" font-size="10.00" fill="#000000">MeasureTime::initializeThread</text>
</a>
</g>
</g>
<!-- Node14&#45;&gt;Node15 -->
<g id="edge1" class="edge">
<title>Node14&#45;&gt;Node15</title>
<path fill="none" stroke="#191970" d="M140.1706,-46.1003C148.5808,-47.1311 157.2321,-48.1914 165.8093,-49.2426"/>
<polygon fill="#191970" stroke="#191970" points="165.4737,-52.7276 175.8253,-50.4702 166.3254,-45.7796 165.4737,-52.7276"/>
</g>
<!-- Node16 -->
<g id="node3" class="node">
<title>Node16</title>
<g id="a_node3"><a xlink:href="../../d6/df2/class_measure_time.html#ae5653e2ef7ba70019670ff82e2b059d2" target="_top" xlink:title="MeasureTime::deinitialize\lThread">
<polygon fill="#ffffff" stroke="#000000" points="185.5,-.5 185.5,-30.5 313.5,-30.5 313.5,-.5 185.5,-.5"/>
<text text-anchor="start" x="193.5" y="-18.5" font-family="Helvetica,sans-Serif" font-size="10.00" fill="#000000">MeasureTime::deinitialize</text>
<text text-anchor="middle" x="249.5" y="-7.5" font-family="Helvetica,sans-Serif" font-size="10.00" fill="#000000">Thread</text>
</a>
</g>
</g>
<!-- Node14&#45;&gt;Node16 -->
<g id="edge2" class="edge">
<title>Node14&#45;&gt;Node16</title>
<path fill="none" stroke="#191970" d="M140.1706,-28.8997C151.6544,-27.4922 163.5877,-26.0296 175.168,-24.6103"/>
<polygon fill="#191970" stroke="#191970" points="175.7336,-28.0673 185.2336,-23.3767 174.882,-21.1193 175.7336,-28.0673"/>
</g>
</g>
</svg>
