<?xml version="1.0" encoding="UTF-8" standalone="no"?>
<!DOCTYPE svg PUBLIC "-//W3C//DTD SVG 1.1//EN"
 "http://www.w3.org/Graphics/SVG/1.1/DTD/svg11.dtd">
<!-- Generated by graphviz version 2.40.1 (20161225.0304)
 -->
<!-- Title: omc_EvaluateFunctions_evaluateParameter Pages: 1 -->
<svg width="806pt" height="271pt"
 viewBox="0.00 0.00 806.00 270.82" xmlns="http://www.w3.org/2000/svg" xmlns:xlink="http://www.w3.org/1999/xlink">
<g id="graph0" class="graph" transform="scale(1 1) rotate(0) translate(4 266.8188)">
<title>omc_EvaluateFunctions_evaluateParameter</title>
<polygon fill="#ffffff" stroke="transparent" points="-4,4 -4,-266.8188 802,-266.8188 802,4 -4,4"/>
<!-- Node1198 -->
<g id="node1" class="node">
<title>Node1198</title>
<polygon fill="#bfbfbf" stroke="#000000" points="0,-110.5 0,-140.5 122,-140.5 122,-110.5 0,-110.5"/>
<text text-anchor="start" x="8" y="-128.5" font-family="Helvetica,sans-Serif" font-size="10.00" fill="#000000">omc_EvaluateFunctions</text>
<text text-anchor="middle" x="61" y="-117.5" font-family="Helvetica,sans-Serif" font-size="10.00" fill="#000000">_evaluateParameter</text>
</g>
<!-- Node1199 -->
<g id="node2" class="node">
<title>Node1199</title>
<g id="a_node2"><a xlink:href="../../d0/df5/_backend_dump_8c.html#a0464dd0aae44a509354344249356384e" target="_top" xlink:title="omc_BackendDump_printVar">
<polygon fill="#ffffff" stroke="#000000" points="158,-226 158,-245 302,-245 302,-226 158,-226"/>
<text text-anchor="middle" x="230" y="-233" font-family="Helvetica,sans-Serif" font-size="10.00" fill="#000000">omc_BackendDump_printVar</text>
</a>
</g>
</g>
<!-- Node1198&#45;&gt;Node1199 -->
<g id="edge1" class="edge">
<title>Node1198&#45;&gt;Node1199</title>
<path fill="none" stroke="#191970" d="M73.0818,-140.8378C89.9321,-161.1829 122.4476,-196.8114 158,-216.5 162.1633,-218.8056 166.6181,-220.841 171.1944,-222.6362"/>
<polygon fill="#191970" stroke="#191970" points="170.1094,-225.9649 180.7042,-225.9935 172.4397,-219.3641 170.1094,-225.9649"/>
</g>
<!-- Node1203 -->
<g id="node6" class="node">
<title>Node1203</title>
<g id="a_node6"><a xlink:href="../../dd/db3/_backend_variable_8c.html#a58b43911154ba16928e4ad4ae09d46c8" target="_top" xlink:title="omc_BackendVariable\l_varBindExp">
<polygon fill="#ffffff" stroke="#000000" points="173,-176.5 173,-206.5 287,-206.5 287,-176.5 173,-176.5"/>
<text text-anchor="start" x="181" y="-194.5" font-family="Helvetica,sans-Serif" font-size="10.00" fill="#000000">omc_BackendVariable</text>
<text text-anchor="middle" x="230" y="-183.5" font-family="Helvetica,sans-Serif" font-size="10.00" fill="#000000">_varBindExp</text>
</a>
</g>
</g>
<!-- Node1198&#45;&gt;Node1203 -->
<g id="edge5" class="edge">
<title>Node1198&#45;&gt;Node1203</title>
<path fill="none" stroke="#191970" d="M95.344,-140.6659C113.7977,-148.6498 137.0101,-158.4299 158,-166.5 163.7546,-168.7125 169.7996,-170.9478 175.8386,-173.1243"/>
<polygon fill="#191970" stroke="#191970" points="174.6863,-176.4292 185.281,-176.4844 177.0331,-169.8343 174.6863,-176.4292"/>
</g>
<!-- Node1204 -->
<g id="node7" class="node">
<title>Node1204</title>
<g id="a_node7"><a xlink:href="../../d1/d08/_expression_8c.html#abb6261636c32a169e00a08fd658adec4" target="_top" xlink:title="omc_Expression_isCall">
<polygon fill="#ffffff" stroke="#000000" points="170.5,-138 170.5,-157 289.5,-157 289.5,-138 170.5,-138"/>
<text text-anchor="middle" x="230" y="-145" font-family="Helvetica,sans-Serif" font-size="10.00" fill="#000000">omc_Expression_isCall</text>
</a>
</g>
</g>
<!-- Node1198&#45;&gt;Node1204 -->
<g id="edge6" class="edge">
<title>Node1198&#45;&gt;Node1204</title>
<path fill="none" stroke="#191970" d="M122.0129,-133.4425C134.4717,-135.0644 147.6704,-136.7825 160.4029,-138.44"/>
<polygon fill="#191970" stroke="#191970" points="160.123,-141.933 170.4912,-139.7533 161.0267,-134.9916 160.123,-141.933"/>
</g>
<!-- Node1205 -->
<g id="node8" class="node">
<title>Node1205</title>
<g id="a_node8"><a xlink:href="../../d8/d16/_expression_dump_8c.html#a66b0c2cb025be489478b72c8c09a8de5" target="_top" xlink:title="omc_ExpressionDump\l_dumpExp">
<polygon fill="#ffffff" stroke="#000000" points="172,-88.5 172,-118.5 288,-118.5 288,-88.5 172,-88.5"/>
<text text-anchor="start" x="180" y="-106.5" font-family="Helvetica,sans-Serif" font-size="10.00" fill="#000000">omc_ExpressionDump</text>
<text text-anchor="middle" x="230" y="-95.5" font-family="Helvetica,sans-Serif" font-size="10.00" fill="#000000">_dumpExp</text>
</a>
</g>
</g>
<!-- Node1198&#45;&gt;Node1205 -->
<g id="edge7" class="edge">
<title>Node1198&#45;&gt;Node1205</title>
<path fill="none" stroke="#191970" d="M122.0129,-117.5575C134.9717,-115.8705 148.7311,-114.0794 161.9338,-112.3607"/>
<polygon fill="#191970" stroke="#191970" points="162.4344,-115.8251 171.8989,-111.0635 161.5307,-108.8837 162.4344,-115.8251"/>
</g>
<!-- Node1209 -->
<g id="node12" class="node">
<title>Node1209</title>
<g id="a_node12"><a xlink:href="../../d1/dd1/3rd_party_2gc_2include_2gc_8h.html#acacfa47efcc44a29f7bb7d98f2a000f8" target="_top" xlink:title="void">
<polygon fill="#ffffff" stroke="#000000" points="742,-73 742,-92 777,-92 777,-73 742,-73"/>
<text text-anchor="middle" x="759.5" y="-80" font-family="Helvetica,sans-Serif" font-size="10.00" fill="#000000">void</text>
</a>
</g>
</g>
<!-- Node1198&#45;&gt;Node1209 -->
<g id="edge17" class="edge">
<title>Node1198&#45;&gt;Node1209</title>
<path fill="none" stroke="#191970" d="M84.5875,-110.3095C103.5661,-99.0391 131.3713,-84.6115 158,-78.5 374.2027,-28.88 645.7387,-64.3579 731.9318,-77.8767"/>
<polygon fill="#191970" stroke="#191970" points="731.5275,-81.3565 741.9552,-79.4824 732.6348,-74.4446 731.5275,-81.3565"/>
</g>
<!-- Node1210 -->
<g id="node13" class="node">
<title>Node1210</title>
<g id="a_node13"><a xlink:href="../../d3/d4a/_evaluate_functions_8c.html#a313ab29ba487aa8b8d064d9ef6dc7ec1" target="_top" xlink:title="omc_EvaluateFunctions\l_evaluateConstantFunction">
<polygon fill="#ffffff" stroke="#000000" points="162,-.5 162,-30.5 298,-30.5 298,-.5 162,-.5"/>
<text text-anchor="start" x="170" y="-18.5" font-family="Helvetica,sans-Serif" font-size="10.00" fill="#000000">omc_EvaluateFunctions</text>
<text text-anchor="middle" x="230" y="-7.5" font-family="Helvetica,sans-Serif" font-size="10.00" fill="#000000">_evaluateConstantFunction</text>
</a>
</g>
</g>
<!-- Node1198&#45;&gt;Node1210 -->
<g id="edge13" class="edge">
<title>Node1198&#45;&gt;Node1210</title>
<path fill="none" stroke="#191970" d="M76.3703,-110.3482C94.6296,-92.9636 126.5877,-64.4243 158,-45.5 164.3796,-41.6566 171.3414,-38.0799 178.3406,-34.8328"/>
<polygon fill="#191970" stroke="#191970" points="180.1331,-37.8668 187.8572,-30.615 177.2967,-31.4671 180.1331,-37.8668"/>
</g>
<!-- Node1200 -->
<g id="node3" class="node">
<title>Node1200</title>
<g id="a_node3"><a xlink:href="../../d7/deb/build_2include_2omc_2c_2util_2modelica__string_8c.html#a751007abc59e9ca7978f2af10a0c814f" target="_top" xlink:title="stringAppend">
<polygon fill="#ffffff" stroke="#000000" points="722.5,-114 722.5,-133 796.5,-133 796.5,-114 722.5,-114"/>
<text text-anchor="middle" x="759.5" y="-121" font-family="Helvetica,sans-Serif" font-size="10.00" fill="#000000">stringAppend</text>
</a>
</g>
</g>
<!-- Node1199&#45;&gt;Node1200 -->
<g id="edge2" class="edge">
<title>Node1199&#45;&gt;Node1200</title>
<path fill="none" stroke="#191970" d="M273.7108,-245.0096C358.3997,-261.0901 548.5045,-285.5892 685,-216.5 716.5326,-200.5393 739.1569,-164.4653 750.72,-142.23"/>
<polygon fill="#191970" stroke="#191970" points="753.936,-143.623 755.2468,-133.1096 747.6658,-140.5109 753.936,-143.623"/>
</g>
<!-- Node1201 -->
<g id="node4" class="node">
<title>Node1201</title>
<g id="a_node4"><a xlink:href="../../d0/df5/_backend_dump_8c.html#aab3816f634e9ce5b85a68a0eed2c754a" target="_top" xlink:title="omc_BackendDump_varString">
<polygon fill="#ffffff" stroke="#000000" points="338,-185 338,-204 487,-204 487,-185 338,-185"/>
<text text-anchor="middle" x="412.5" y="-192" font-family="Helvetica,sans-Serif" font-size="10.00" fill="#000000">omc_BackendDump_varString</text>
</a>
</g>
</g>
<!-- Node1199&#45;&gt;Node1201 -->
<g id="edge3" class="edge">
<title>Node1199&#45;&gt;Node1201</title>
<path fill="none" stroke="#191970" d="M272.3279,-225.9907C298.4927,-220.1126 332.2765,-212.5228 360.1212,-206.2673"/>
<polygon fill="#191970" stroke="#191970" points="361.0963,-209.6355 370.0859,-204.0286 359.5619,-202.8058 361.0963,-209.6355"/>
</g>
<!-- Node1202 -->
<g id="node5" class="node">
<title>Node1202</title>
<g id="a_node5"><a xlink:href="../../dc/dd3/_element_source_8c.html#a16dcd5721c7c8d4735559986d524fbfc" target="_top" xlink:title="omc_ElementSource_getElement\lSourceTypes">
<polygon fill="#ffffff" stroke="#000000" points="523,-176.5 523,-206.5 685,-206.5 685,-176.5 523,-176.5"/>
<text text-anchor="start" x="531" y="-194.5" font-family="Helvetica,sans-Serif" font-size="10.00" fill="#000000">omc_ElementSource_getElement</text>
<text text-anchor="middle" x="604" y="-183.5" font-family="Helvetica,sans-Serif" font-size="10.00" fill="#000000">SourceTypes</text>
</a>
</g>
</g>
<!-- Node1201&#45;&gt;Node1202 -->
<g id="edge4" class="edge">
<title>Node1201&#45;&gt;Node1202</title>
<path fill="none" stroke="#191970" d="M487.0872,-193.3315C495.5413,-193.1991 504.2271,-193.063 512.8627,-192.9277"/>
<polygon fill="#191970" stroke="#191970" points="513.0163,-196.4259 522.9603,-192.7696 512.9066,-189.4267 513.0163,-196.4259"/>
</g>
<!-- Node1206 -->
<g id="node9" class="node">
<title>Node1206</title>
<g id="a_node9"><a xlink:href="../../d8/d16/_expression_dump_8c.html#a97076d35435285700da1dacc43e455f0" target="_top" xlink:title="omc_ExpressionDump\l_dumpExpStr">
<polygon fill="#ffffff" stroke="#000000" points="354.5,-88.5 354.5,-118.5 470.5,-118.5 470.5,-88.5 354.5,-88.5"/>
<text text-anchor="start" x="362.5" y="-106.5" font-family="Helvetica,sans-Serif" font-size="10.00" fill="#000000">omc_ExpressionDump</text>
<text text-anchor="middle" x="412.5" y="-95.5" font-family="Helvetica,sans-Serif" font-size="10.00" fill="#000000">_dumpExpStr</text>
</a>
</g>
</g>
<!-- Node1205&#45;&gt;Node1206 -->
<g id="edge8" class="edge">
<title>Node1205&#45;&gt;Node1206</title>
<path fill="none" stroke="#191970" d="M288.2459,-103.5C306.1133,-103.5 325.9318,-103.5 344.3965,-103.5"/>
<polygon fill="#191970" stroke="#191970" points="344.4944,-107.0001 354.4943,-103.5 344.4943,-100.0001 344.4944,-107.0001"/>
</g>
<!-- Node1207 -->
<g id="node10" class="node">
<title>Node1207</title>
<g id="a_node10"><a xlink:href="../../d1/dfc/expat__lib_8c.html#adf65e97c498597b0fa234e787465c538" target="_top" xlink:title="_start">
<polygon fill="#ffffff" stroke="#000000" points="583.5,-138 583.5,-157 624.5,-157 624.5,-138 583.5,-138"/>
<text text-anchor="middle" x="604" y="-145" font-family="Helvetica,sans-Serif" font-size="10.00" fill="#000000">_start</text>
</a>
</g>
</g>
<!-- Node1206&#45;&gt;Node1207 -->
<g id="edge9" class="edge">
<title>Node1206&#45;&gt;Node1207</title>
<path fill="none" stroke="#191970" d="M470.7363,-116.8807C504.497,-124.6377 545.6485,-134.0929 573.2107,-140.4257"/>
<polygon fill="#191970" stroke="#191970" points="572.5353,-143.8616 583.0651,-142.6899 574.1028,-137.0394 572.5353,-143.8616"/>
</g>
<!-- Node1208 -->
<g id="node11" class="node">
<title>Node1208</title>
<g id="a_node11"><a xlink:href="../../d8/d16/_expression_dump_8c.html#aa6a689793f7aa2847f0343ec3ab17dda" target="_top" xlink:title="omc_ExpressionDump\l_genStringNTime">
<polygon fill="#ffffff" stroke="#000000" points="546,-88.5 546,-118.5 662,-118.5 662,-88.5 546,-88.5"/>
<text text-anchor="start" x="554" y="-106.5" font-family="Helvetica,sans-Serif" font-size="10.00" fill="#000000">omc_ExpressionDump</text>
<text text-anchor="middle" x="604" y="-95.5" font-family="Helvetica,sans-Serif" font-size="10.00" fill="#000000">_genStringNTime</text>
</a>
</g>
</g>
<!-- Node1206&#45;&gt;Node1208 -->
<g id="edge10" class="edge">
<title>Node1206&#45;&gt;Node1208</title>
<path fill="none" stroke="#191970" d="M470.7363,-103.5C491.1624,-103.5 514.294,-103.5 535.4845,-103.5"/>
<polygon fill="#191970" stroke="#191970" points="535.7108,-107.0001 545.7108,-103.5 535.7108,-100.0001 535.7108,-107.0001"/>
</g>
<!-- Node1208&#45;&gt;Node1200 -->
<g id="edge11" class="edge">
<title>Node1208&#45;&gt;Node1200</title>
<path fill="none" stroke="#191970" d="M662.3449,-111.0042C678.7459,-113.1136 696.3775,-115.3814 712.059,-117.3983"/>
<polygon fill="#191970" stroke="#191970" points="711.685,-120.8789 722.0498,-118.6833 712.578,-113.9361 711.685,-120.8789"/>
</g>
<!-- Node1208&#45;&gt;Node1209 -->
<g id="edge12" class="edge">
<title>Node1208&#45;&gt;Node1209</title>
<path fill="none" stroke="#191970" d="M662.3449,-95.6206C686.0846,-92.4146 712.4027,-88.8604 731.6529,-86.2607"/>
<polygon fill="#191970" stroke="#191970" points="732.3861,-89.6935 741.8277,-84.8866 731.4492,-82.7565 732.3861,-89.6935"/>
</g>
<!-- Node1211 -->
<g id="node14" class="node">
<title>Node1211</title>
<g id="a_node14"><a xlink:href="../../d3/db3/_flags_8c.html#a34e6591659b1578969141a635ff24042" target="_top" xlink:title="omc_Flags_isSet">
<polygon fill="#ffffff" stroke="#000000" points="366.5,-6 366.5,-25 458.5,-25 458.5,-6 366.5,-6"/>
<text text-anchor="middle" x="412.5" y="-13" font-family="Helvetica,sans-Serif" font-size="10.00" fill="#000000">omc_Flags_isSet</text>
</a>
</g>
</g>
<!-- Node1210&#45;&gt;Node1211 -->
<g id="edge14" class="edge">
<title>Node1210&#45;&gt;Node1211</title>
<path fill="none" stroke="#191970" d="M298.2158,-15.5C317.2622,-15.5 337.7411,-15.5 356.0285,-15.5"/>
<polygon fill="#191970" stroke="#191970" points="356.2264,-19.0001 366.2264,-15.5 356.2263,-12.0001 356.2264,-19.0001"/>
</g>
<!-- Node1212 -->
<g id="node15" class="node">
<title>Node1212</title>
<g id="a_node15"><a xlink:href="../../d3/db3/_flags_8c.html#a760d66f53b65ac257876ca0f6308f09f" target="_top" xlink:title="omc_Flags_loadFlags">
<polygon fill="#ffffff" stroke="#000000" points="548,-6 548,-25 660,-25 660,-6 548,-6"/>
<text text-anchor="middle" x="604" y="-13" font-family="Helvetica,sans-Serif" font-size="10.00" fill="#000000">omc_Flags_loadFlags</text>
</a>
</g>
</g>
<!-- Node1211&#45;&gt;Node1212 -->
<g id="edge15" class="edge">
<title>Node1211&#45;&gt;Node1212</title>
<path fill="none" stroke="#191970" d="M458.8568,-15.5C482.5054,-15.5 511.6896,-15.5 537.6722,-15.5"/>
<polygon fill="#191970" stroke="#191970" points="537.8296,-19.0001 547.8296,-15.5 537.8295,-12.0001 537.8296,-19.0001"/>
</g>
<!-- Node1213 -->
<g id="node16" class="node">
<title>Node1213</title>
<g id="a_node16"><a xlink:href="../../da/d72/_compiler_2boot_2build_2list_8c.html#a3ec1ee3a5ff53be9af368e290be09182" target="_top" xlink:title="omc_List_fold">
<polygon fill="#ffffff" stroke="#000000" points="721,-6 721,-25 798,-25 798,-6 721,-6"/>
<text text-anchor="middle" x="759.5" y="-13" font-family="Helvetica,sans-Serif" font-size="10.00" fill="#000000">omc_List_fold</text>
</a>
</g>
</g>
<!-- Node1212&#45;&gt;Node1213 -->
<g id="edge16" class="edge">
<title>Node1212&#45;&gt;Node1213</title>
<path fill="none" stroke="#191970" d="M660.1391,-15.5C676.6952,-15.5 694.6714,-15.5 710.7246,-15.5"/>
<polygon fill="#191970" stroke="#191970" points="710.962,-19.0001 720.9619,-15.5 710.9619,-12.0001 710.962,-19.0001"/>
</g>
</g>
</svg>
