<?xml version="1.0" encoding="UTF-8" standalone="no"?>
<!DOCTYPE svg PUBLIC "-//W3C//DTD SVG 1.1//EN"
 "http://www.w3.org/Graphics/SVG/1.1/DTD/svg11.dtd">
<!-- Generated by graphviz version 2.40.1 (20161225.0304)
 -->
<!-- Title: omc_EvaluateFunctions_partiallyConstantArrayNeedsExpansion Pages: 1 -->
<svg width="1452pt" height="227pt"
 viewBox="0.00 0.00 1452.00 227.00" xmlns="http://www.w3.org/2000/svg" xmlns:xlink="http://www.w3.org/1999/xlink">
<g id="graph0" class="graph" transform="scale(1 1) rotate(0) translate(4 223)">
<title>omc_EvaluateFunctions_partiallyConstantArrayNeedsExpansion</title>
<polygon fill="#ffffff" stroke="transparent" points="-4,4 -4,-223 1448,-223 1448,4 -4,4"/>
<!-- Node1754 -->
<g id="node1" class="node">
<title>Node1754</title>
<polygon fill="#bfbfbf" stroke="#000000" points="0,-134.5 0,-175.5 147,-175.5 147,-134.5 0,-134.5"/>
<text text-anchor="start" x="8" y="-163.5" font-family="Helvetica,sans-Serif" font-size="10.00" fill="#000000">omc_EvaluateFunctions</text>
<text text-anchor="start" x="8" y="-152.5" font-family="Helvetica,sans-Serif" font-size="10.00" fill="#000000">_partiallyConstantArrayNeeds</text>
<text text-anchor="middle" x="73.5" y="-141.5" font-family="Helvetica,sans-Serif" font-size="10.00" fill="#000000">Expansion</text>
</g>
<!-- Node1755 -->
<g id="node2" class="node">
<title>Node1755</title>
<g id="a_node2"><a xlink:href="../../d3/df6/_types_8c.html#a682885897c4107b20cf3d17ed7bf6f66" target="_top" xlink:title="omc_Types_isArray">
<polygon fill="#ffffff" stroke="#000000" points="199.5,-189.5 199.5,-208.5 303.5,-208.5 303.5,-189.5 199.5,-189.5"/>
<text text-anchor="middle" x="251.5" y="-196.5" font-family="Helvetica,sans-Serif" font-size="10.00" fill="#000000">omc_Types_isArray</text>
</a>
</g>
</g>
<!-- Node1754&#45;&gt;Node1755 -->
<g id="edge1" class="edge">
<title>Node1754&#45;&gt;Node1755</title>
<path fill="none" stroke="#191970" d="M147.1843,-173.2141C166.0528,-177.8782 185.8681,-182.7764 203.0993,-187.0358"/>
<polygon fill="#191970" stroke="#191970" points="202.3718,-190.4612 212.9195,-189.4632 204.0516,-183.6658 202.3718,-190.4612"/>
</g>
<!-- Node1756 -->
<g id="node3" class="node">
<title>Node1756</title>
<g id="a_node3"><a xlink:href="../../d9/d14/_component_reference_8c.html#afbfaea421bd2606f3a4ccf658b91b0bd" target="_top" xlink:title="omc_ComponentReference\l_crefType">
<polygon fill="#ffffff" stroke="#000000" points="183.5,-140 183.5,-170 319.5,-170 319.5,-140 183.5,-140"/>
<text text-anchor="start" x="191.5" y="-158" font-family="Helvetica,sans-Serif" font-size="10.00" fill="#000000">omc_ComponentReference</text>
<text text-anchor="middle" x="251.5" y="-147" font-family="Helvetica,sans-Serif" font-size="10.00" fill="#000000">_crefType</text>
</a>
</g>
</g>
<!-- Node1754&#45;&gt;Node1756 -->
<g id="edge2" class="edge">
<title>Node1754&#45;&gt;Node1756</title>
<path fill="none" stroke="#191970" d="M147.1843,-155C155.7772,-155 164.5664,-155 173.2186,-155"/>
<polygon fill="#191970" stroke="#191970" points="173.2925,-158.5001 183.2925,-155 173.2924,-151.5001 173.2925,-158.5001"/>
</g>
<!-- Node1774 -->
<g id="node21" class="node">
<title>Node1774</title>
<g id="a_node21"><a xlink:href="../../da/d72/_compiler_2boot_2build_2list_8c.html#a46ff38d9ba124b9a152c68891c64cb54" target="_top" xlink:title="omc_List_isMemberOnTrue">
<polygon fill="#ffffff" stroke="#000000" points="183,-101.5 183,-120.5 320,-120.5 320,-101.5 183,-101.5"/>
<text text-anchor="middle" x="251.5" y="-108.5" font-family="Helvetica,sans-Serif" font-size="10.00" fill="#000000">omc_List_isMemberOnTrue</text>
</a>
</g>
</g>
<!-- Node1754&#45;&gt;Node1774 -->
<g id="edge24" class="edge">
<title>Node1754&#45;&gt;Node1774</title>
<path fill="none" stroke="#191970" d="M147.1843,-136.7859C166.0528,-132.1218 185.8681,-127.2236 203.0993,-122.9642"/>
<polygon fill="#191970" stroke="#191970" points="204.0516,-126.3342 212.9195,-120.5368 202.3718,-119.5388 204.0516,-126.3342"/>
</g>
<!-- Node1757 -->
<g id="node4" class="node">
<title>Node1757</title>
<g id="a_node4"><a xlink:href="../../d3/db3/_flags_8c.html#a34e6591659b1578969141a635ff24042" target="_top" xlink:title="omc_Flags_isSet">
<polygon fill="#ffffff" stroke="#000000" points="1068.5,-199.5 1068.5,-218.5 1160.5,-218.5 1160.5,-199.5 1068.5,-199.5"/>
<text text-anchor="middle" x="1114.5" y="-206.5" font-family="Helvetica,sans-Serif" font-size="10.00" fill="#000000">omc_Flags_isSet</text>
</a>
</g>
</g>
<!-- Node1756&#45;&gt;Node1757 -->
<g id="edge3" class="edge">
<title>Node1756&#45;&gt;Node1757</title>
<path fill="none" stroke="#191970" d="M292.622,-170.0237C321.5026,-180.5639 355.1422,-192.8137 356,-193 460.5622,-215.7118 488.9996,-212 596,-212 596,-212 596,-212 771.5,-212 872.608,-212 990.4744,-210.6804 1058.3968,-209.7916"/>
<polygon fill="#191970" stroke="#191970" points="1058.5006,-213.2906 1068.4533,-209.6584 1058.4078,-206.2912 1058.5006,-213.2906"/>
</g>
<!-- Node1760 -->
<g id="node7" class="node">
<title>Node1760</title>
<g id="a_node7"><a xlink:href="../../d6/d1d/_compiler_2boot_2build_2debug_8c.html#a465f6e24432a8b1db4c7576ea09e7259" target="_top" xlink:title="omc_Debug_trace">
<polygon fill="#ffffff" stroke="#000000" points="376,-164.5 376,-183.5 472,-183.5 472,-164.5 376,-164.5"/>
<text text-anchor="middle" x="424" y="-171.5" font-family="Helvetica,sans-Serif" font-size="10.00" fill="#000000">omc_Debug_trace</text>
</a>
</g>
</g>
<!-- Node1756&#45;&gt;Node1760 -->
<g id="edge6" class="edge">
<title>Node1756&#45;&gt;Node1760</title>
<path fill="none" stroke="#191970" d="M319.6766,-162.5093C334.9797,-164.1949 351.0777,-165.968 365.9243,-167.6033"/>
<polygon fill="#191970" stroke="#191970" points="365.6547,-171.0946 375.9778,-168.7106 366.4211,-164.1367 365.6547,-171.0946"/>
</g>
<!-- Node1763 -->
<g id="node10" class="node">
<title>Node1763</title>
<g id="a_node10"><a xlink:href="../../d6/d1d/_compiler_2boot_2build_2debug_8c.html#a39cb2cfbaaec041a9681a736f5faa624" target="_top" xlink:title="omc_Debug_traceln">
<polygon fill="#ffffff" stroke="#000000" points="372,-126.5 372,-145.5 476,-145.5 476,-126.5 372,-126.5"/>
<text text-anchor="middle" x="424" y="-133.5" font-family="Helvetica,sans-Serif" font-size="10.00" fill="#000000">omc_Debug_traceln</text>
</a>
</g>
</g>
<!-- Node1756&#45;&gt;Node1763 -->
<g id="edge9" class="edge">
<title>Node1756&#45;&gt;Node1763</title>
<path fill="none" stroke="#191970" d="M319.6766,-147.4907C333.4847,-145.9698 347.94,-144.3776 361.5392,-142.8797"/>
<polygon fill="#191970" stroke="#191970" points="362.1902,-146.3293 371.7469,-141.7554 361.4238,-139.3714 362.1902,-146.3293"/>
</g>
<!-- Node1764 -->
<g id="node11" class="node">
<title>Node1764</title>
<g id="a_node11"><a xlink:href="../../d9/d14/_component_reference_8c.html#ad55924d78e0d18d1b2ba420131a7f489" target="_top" xlink:title="omc_ComponentReference\l_printComponentRefStr">
<polygon fill="#ffffff" stroke="#000000" points="356,-59 356,-89 492,-89 492,-59 356,-59"/>
<text text-anchor="start" x="364" y="-77" font-family="Helvetica,sans-Serif" font-size="10.00" fill="#000000">omc_ComponentReference</text>
<text text-anchor="middle" x="424" y="-66" font-family="Helvetica,sans-Serif" font-size="10.00" fill="#000000">_printComponentRefStr</text>
</a>
</g>
</g>
<!-- Node1756&#45;&gt;Node1764 -->
<g id="edge11" class="edge">
<title>Node1756&#45;&gt;Node1764</title>
<path fill="none" stroke="#191970" d="M295.7268,-139.9209C303.8823,-136.8415 312.262,-133.4736 320,-130 343.8485,-119.2943 369.7338,-105.3648 389.714,-94.0767"/>
<polygon fill="#191970" stroke="#191970" points="391.4954,-97.09 398.45,-89.0972 388.029,-91.0085 391.4954,-97.09"/>
</g>
<!-- Node1758 -->
<g id="node5" class="node">
<title>Node1758</title>
<g id="a_node5"><a xlink:href="../../d3/db3/_flags_8c.html#a760d66f53b65ac257876ca0f6308f09f" target="_top" xlink:title="omc_Flags_loadFlags">
<polygon fill="#ffffff" stroke="#000000" points="1219,-177.5 1219,-196.5 1331,-196.5 1331,-177.5 1219,-177.5"/>
<text text-anchor="middle" x="1275" y="-184.5" font-family="Helvetica,sans-Serif" font-size="10.00" fill="#000000">omc_Flags_loadFlags</text>
</a>
</g>
</g>
<!-- Node1757&#45;&gt;Node1758 -->
<g id="edge4" class="edge">
<title>Node1757&#45;&gt;Node1758</title>
<path fill="none" stroke="#191970" d="M1160.9233,-202.6367C1175.7327,-200.6067 1192.4233,-198.3189 1208.3742,-196.1325"/>
<polygon fill="#191970" stroke="#191970" points="1209.2902,-199.5398 1218.7222,-194.7141 1208.3395,-192.6046 1209.2902,-199.5398"/>
</g>
<!-- Node1759 -->
<g id="node6" class="node">
<title>Node1759</title>
<g id="a_node6"><a xlink:href="../../da/d72/_compiler_2boot_2build_2list_8c.html#a3ec1ee3a5ff53be9af368e290be09182" target="_top" xlink:title="omc_List_fold">
<polygon fill="#ffffff" stroke="#000000" points="1367,-177.5 1367,-196.5 1444,-196.5 1444,-177.5 1367,-177.5"/>
<text text-anchor="middle" x="1405.5" y="-184.5" font-family="Helvetica,sans-Serif" font-size="10.00" fill="#000000">omc_List_fold</text>
</a>
</g>
</g>
<!-- Node1758&#45;&gt;Node1759 -->
<g id="edge5" class="edge">
<title>Node1758&#45;&gt;Node1759</title>
<path fill="none" stroke="#191970" d="M1331.1011,-187C1339.5528,-187 1348.2135,-187 1356.5007,-187"/>
<polygon fill="#191970" stroke="#191970" points="1356.7542,-190.5001 1366.7542,-187 1356.7541,-183.5001 1356.7542,-190.5001"/>
</g>
<!-- Node1761 -->
<g id="node8" class="node">
<title>Node1761</title>
<g id="a_node8"><a xlink:href="../../dc/d4a/_print_8c.html#a136f27763cbad8fdab9e975d877aff4b" target="_top" xlink:title="omc_Print_printErrorBuf">
<polygon fill="#ffffff" stroke="#000000" points="535.5,-164.5 535.5,-183.5 656.5,-183.5 656.5,-164.5 535.5,-164.5"/>
<text text-anchor="middle" x="596" y="-171.5" font-family="Helvetica,sans-Serif" font-size="10.00" fill="#000000">omc_Print_printErrorBuf</text>
</a>
</g>
</g>
<!-- Node1760&#45;&gt;Node1761 -->
<g id="edge7" class="edge">
<title>Node1760&#45;&gt;Node1761</title>
<path fill="none" stroke="#191970" d="M472.3693,-174C488.7322,-174 507.3591,-174 525.1007,-174"/>
<polygon fill="#191970" stroke="#191970" points="525.4207,-177.5001 535.4207,-174 525.4206,-170.5001 525.4207,-177.5001"/>
</g>
<!-- Node1762 -->
<g id="node9" class="node">
<title>Node1762</title>
<g id="a_node9"><a xlink:href="../../db/def/_print_8h.html#ac4ef051f731ad4fd851c45be8d215b4c" target="_top" xlink:title="Print_printErrorBuf">
<polygon fill="#ffffff" stroke="#000000" points="723,-164.5 723,-183.5 820,-183.5 820,-164.5 723,-164.5"/>
<text text-anchor="middle" x="771.5" y="-171.5" font-family="Helvetica,sans-Serif" font-size="10.00" fill="#000000">Print_printErrorBuf</text>
</a>
</g>
</g>
<!-- Node1761&#45;&gt;Node1762 -->
<g id="edge8" class="edge">
<title>Node1761&#45;&gt;Node1762</title>
<path fill="none" stroke="#191970" d="M656.8888,-174C675.0146,-174 694.8325,-174 712.8147,-174"/>
<polygon fill="#191970" stroke="#191970" points="712.8775,-177.5001 722.8775,-174 712.8774,-170.5001 712.8775,-177.5001"/>
</g>
<!-- Node1763&#45;&gt;Node1761 -->
<g id="edge10" class="edge">
<title>Node1763&#45;&gt;Node1761</title>
<path fill="none" stroke="#191970" d="M467.4029,-145.589C490.4068,-150.6713 518.8509,-156.9554 543.1342,-162.3203"/>
<polygon fill="#191970" stroke="#191970" points="542.3896,-165.7402 552.9092,-164.4799 543.8998,-158.905 542.3896,-165.7402"/>
</g>
<!-- Node1764&#45;&gt;Node1764 -->
<g id="edge23" class="edge">
<title>Node1764&#45;&gt;Node1764</title>
<path fill="none" stroke="#191970" d="M394.0255,-89.159C386.7975,-98.5566 396.7891,-107.5 424,-107.5 440.5817,-107.5 450.7691,-104.179 454.5623,-99.4579"/>
<polygon fill="#191970" stroke="#191970" points="458.0387,-98.9433 453.9745,-89.159 451.0501,-99.3422 458.0387,-98.9433"/>
</g>
<!-- Node1765 -->
<g id="node12" class="node">
<title>Node1765</title>
<g id="a_node12"><a xlink:href="../../d9/d14/_component_reference_8c.html#a3b4ee994a40114638276f414aef5f436" target="_top" xlink:title="omc_ComponentReference\l_printComponentRef2Str">
<polygon fill="#ffffff" stroke="#000000" points="528,-77 528,-107 664,-107 664,-77 528,-77"/>
<text text-anchor="start" x="536" y="-95" font-family="Helvetica,sans-Serif" font-size="10.00" fill="#000000">omc_ComponentReference</text>
<text text-anchor="middle" x="596" y="-84" font-family="Helvetica,sans-Serif" font-size="10.00" fill="#000000">_printComponentRef2Str</text>
</a>
</g>
</g>
<!-- Node1764&#45;&gt;Node1765 -->
<g id="edge12" class="edge">
<title>Node1764&#45;&gt;Node1765</title>
<path fill="none" stroke="#191970" d="M492.4732,-81.1658C500.7318,-82.0301 509.2157,-82.9179 517.6024,-83.7956"/>
<polygon fill="#191970" stroke="#191970" points="517.4524,-87.2989 527.7624,-84.8589 518.1811,-80.337 517.4524,-87.2989"/>
</g>
<!-- Node1766 -->
<g id="node13" class="node">
<title>Node1766</title>
<g id="a_node13"><a xlink:href="../../d1/d5c/_config_8c.html#a4284e37cd03c9c5a3fd200be81c3152d" target="_top" xlink:title="omc_Config_modelicaOutput">
<polygon fill="#ffffff" stroke="#000000" points="700,-126.5 700,-145.5 843,-145.5 843,-126.5 700,-126.5"/>
<text text-anchor="middle" x="771.5" y="-133.5" font-family="Helvetica,sans-Serif" font-size="10.00" fill="#000000">omc_Config_modelicaOutput</text>
</a>
</g>
</g>
<!-- Node1764&#45;&gt;Node1766 -->
<g id="edge22" class="edge">
<title>Node1764&#45;&gt;Node1766</title>
<path fill="none" stroke="#191970" d="M454.146,-89.0051C474.4914,-98.4167 502.2325,-109.8883 528,-116 580.8692,-128.5399 641.7983,-133.538 689.4831,-135.402"/>
<polygon fill="#191970" stroke="#191970" points="689.6405,-138.9096 699.7574,-135.7634 689.8867,-131.9139 689.6405,-138.9096"/>
</g>
<!-- Node1772 -->
<g id="node19" class="node">
<title>Node1772</title>
<g id="a_node19"><a xlink:href="../../d7/deb/build_2include_2omc_2c_2util_2modelica__string_8c.html#a751007abc59e9ca7978f2af10a0c814f" target="_top" xlink:title="stringAppend">
<polygon fill="#ffffff" stroke="#000000" points="559,-38.5 559,-57.5 633,-57.5 633,-38.5 559,-38.5"/>
<text text-anchor="middle" x="596" y="-45.5" font-family="Helvetica,sans-Serif" font-size="10.00" fill="#000000">stringAppend</text>
</a>
</g>
</g>
<!-- Node1764&#45;&gt;Node1772 -->
<g id="edge20" class="edge">
<title>Node1764&#45;&gt;Node1772</title>
<path fill="none" stroke="#191970" d="M492.4732,-63.6494C511.4248,-60.7846 531.5623,-57.7406 548.9899,-55.1062"/>
<polygon fill="#191970" stroke="#191970" points="549.544,-58.5623 558.9085,-53.6069 548.4977,-51.6409 549.544,-58.5623"/>
</g>
<!-- Node1773 -->
<g id="node20" class="node">
<title>Node1773</title>
<g id="a_node20"><a xlink:href="../../d2/d57/build_2include_2omc_2c_2meta_2meta__modelica__builtin_8h.html#a751bf2360cb3df6de97811998890b7ea" target="_top" xlink:title="intString">
<polygon fill="#ffffff" stroke="#000000" points="569.5,-.5 569.5,-19.5 622.5,-19.5 622.5,-.5 569.5,-.5"/>
<text text-anchor="middle" x="596" y="-7.5" font-family="Helvetica,sans-Serif" font-size="10.00" fill="#000000">intString</text>
</a>
</g>
</g>
<!-- Node1764&#45;&gt;Node1773 -->
<g id="edge21" class="edge">
<title>Node1764&#45;&gt;Node1773</title>
<path fill="none" stroke="#191970" d="M455.8736,-58.8679C476.2285,-49.5409 503.336,-37.7361 528,-29 538.0523,-25.4394 549.1257,-22.1046 559.3653,-19.2532"/>
<polygon fill="#191970" stroke="#191970" points="560.5216,-22.5662 569.2582,-16.5726 558.6908,-15.8098 560.5216,-22.5662"/>
</g>
<!-- Node1765&#45;&gt;Node1766 -->
<g id="edge13" class="edge">
<title>Node1765&#45;&gt;Node1766</title>
<path fill="none" stroke="#191970" d="M655.9063,-107.0192C678.008,-112.5604 702.7389,-118.7607 723.6361,-123.9999"/>
<polygon fill="#191970" stroke="#191970" points="723.0074,-127.4506 733.5584,-126.4876 724.7098,-120.6607 723.0074,-127.4506"/>
</g>
<!-- Node1769 -->
<g id="node16" class="node">
<title>Node1769</title>
<g id="a_node16"><a xlink:href="../../d8/d16/_expression_dump_8c.html#ab0f49b2293eca0843549a3c91f34aa73" target="_top" xlink:title="omc_ExpressionDump\l_printListStr">
<polygon fill="#ffffff" stroke="#000000" points="713.5,-77 713.5,-107 829.5,-107 829.5,-77 713.5,-77"/>
<text text-anchor="start" x="721.5" y="-95" font-family="Helvetica,sans-Serif" font-size="10.00" fill="#000000">omc_ExpressionDump</text>
<text text-anchor="middle" x="771.5" y="-84" font-family="Helvetica,sans-Serif" font-size="10.00" fill="#000000">_printListStr</text>
</a>
</g>
</g>
<!-- Node1765&#45;&gt;Node1769 -->
<g id="edge17" class="edge">
<title>Node1765&#45;&gt;Node1769</title>
<path fill="none" stroke="#191970" d="M664.1041,-92C676.9527,-92 690.3936,-92 703.2467,-92"/>
<polygon fill="#191970" stroke="#191970" points="703.4062,-95.5001 713.4062,-92 703.4061,-88.5001 703.4062,-95.5001"/>
</g>
<!-- Node1767 -->
<g id="node14" class="node">
<title>Node1767</title>
<g id="a_node14"><a xlink:href="../../d3/db3/_flags_8c.html#abc3d84cf6e1cf18f0cec0f052e7c85d9" target="_top" xlink:title="omc_Flags_getConfigBool">
<polygon fill="#ffffff" stroke="#000000" points="879,-152.5 879,-171.5 1010,-171.5 1010,-152.5 879,-152.5"/>
<text text-anchor="middle" x="944.5" y="-159.5" font-family="Helvetica,sans-Serif" font-size="10.00" fill="#000000">omc_Flags_getConfigBool</text>
</a>
</g>
</g>
<!-- Node1766&#45;&gt;Node1767 -->
<g id="edge14" class="edge">
<title>Node1766&#45;&gt;Node1767</title>
<path fill="none" stroke="#191970" d="M834.9365,-145.5338C846.6893,-147.3001 859.055,-149.1586 871.0758,-150.9652"/>
<polygon fill="#191970" stroke="#191970" points="870.662,-154.4422 881.0712,-152.4673 871.7024,-147.5199 870.662,-154.4422"/>
</g>
<!-- Node1768 -->
<g id="node15" class="node">
<title>Node1768</title>
<g id="a_node15"><a xlink:href="../../d3/db3/_flags_8c.html#a96ba70d54b6662cf90933a207c0c6b8e" target="_top" xlink:title="omc_Flags_getConfigValue">
<polygon fill="#ffffff" stroke="#000000" points="1046,-158.5 1046,-177.5 1183,-177.5 1183,-158.5 1046,-158.5"/>
<text text-anchor="middle" x="1114.5" y="-165.5" font-family="Helvetica,sans-Serif" font-size="10.00" fill="#000000">omc_Flags_getConfigValue</text>
</a>
</g>
</g>
<!-- Node1767&#45;&gt;Node1768 -->
<g id="edge15" class="edge">
<title>Node1767&#45;&gt;Node1768</title>
<path fill="none" stroke="#191970" d="M1010.2264,-164.3198C1018.6209,-164.616 1027.28,-164.9216 1035.8525,-165.2242"/>
<polygon fill="#191970" stroke="#191970" points="1035.7378,-168.7222 1045.855,-165.5772 1035.9847,-161.7266 1035.7378,-168.7222"/>
</g>
<!-- Node1768&#45;&gt;Node1758 -->
<g id="edge16" class="edge">
<title>Node1768&#45;&gt;Node1758</title>
<path fill="none" stroke="#191970" d="M1183.032,-176.1128C1191.5123,-177.1167 1200.1709,-178.1417 1208.6182,-179.1417"/>
<polygon fill="#191970" stroke="#191970" points="1208.4488,-182.646 1218.7909,-180.346 1209.2717,-175.6946 1208.4488,-182.646"/>
</g>
<!-- Node1770 -->
<g id="node17" class="node">
<title>Node1770</title>
<g id="a_node17"><a xlink:href="../../d2/d57/build_2include_2omc_2c_2meta_2meta__modelica__builtin_8h.html#a6f570947bebe207c25a64ea25f5ca884" target="_top" xlink:title="stringDelimitList">
<polygon fill="#ffffff" stroke="#000000" points="901,-101.5 901,-120.5 988,-120.5 988,-101.5 901,-101.5"/>
<text text-anchor="middle" x="944.5" y="-108.5" font-family="Helvetica,sans-Serif" font-size="10.00" fill="#000000">stringDelimitList</text>
</a>
</g>
</g>
<!-- Node1769&#45;&gt;Node1770 -->
<g id="edge18" class="edge">
<title>Node1769&#45;&gt;Node1770</title>
<path fill="none" stroke="#191970" d="M829.5878,-98.3796C849.3077,-100.5454 871.244,-102.9545 890.6213,-105.0827"/>
<polygon fill="#191970" stroke="#191970" points="890.4709,-108.5871 900.7933,-106.1998 891.2352,-101.629 890.4709,-108.5871"/>
</g>
<!-- Node1771 -->
<g id="node18" class="node">
<title>Node1771</title>
<g id="a_node18"><a xlink:href="../../da/d72/_compiler_2boot_2build_2list_8c.html#a70628b2c3fb199a118f80777135940ee" target="_top" xlink:title="omc_List_map">
<polygon fill="#ffffff" stroke="#000000" points="904.5,-63.5 904.5,-82.5 984.5,-82.5 984.5,-63.5 904.5,-63.5"/>
<text text-anchor="middle" x="944.5" y="-70.5" font-family="Helvetica,sans-Serif" font-size="10.00" fill="#000000">omc_List_map</text>
</a>
</g>
</g>
<!-- Node1769&#45;&gt;Node1771 -->
<g id="edge19" class="edge">
<title>Node1769&#45;&gt;Node1771</title>
<path fill="none" stroke="#191970" d="M829.5878,-85.6204C850.5811,-83.3148 874.0863,-80.7333 894.3418,-78.5087"/>
<polygon fill="#191970" stroke="#191970" points="894.7442,-81.9856 904.3023,-77.4148 893.9799,-75.0275 894.7442,-81.9856"/>
</g>
</g>
</svg>
