<?xml version="1.0" encoding="UTF-8" standalone="no"?>
<!DOCTYPE svg PUBLIC "-//W3C//DTD SVG 1.1//EN"
 "http://www.w3.org/Graphics/SVG/1.1/DTD/svg11.dtd">
<!-- Generated by graphviz version 2.40.1 (20161225.0304)
 -->
<!-- Title: omc_EvaluateFunctions_buildVariableFunctionParts Pages: 1 -->
<svg width="504pt" height="142pt"
 viewBox="0.00 0.00 504.00 142.00" xmlns="http://www.w3.org/2000/svg" xmlns:xlink="http://www.w3.org/1999/xlink">
<g id="graph0" class="graph" transform="scale(1 1) rotate(0) translate(4 138)">
<title>omc_EvaluateFunctions_buildVariableFunctionParts</title>
<polygon fill="#ffffff" stroke="transparent" points="-4,4 -4,-138 500,-138 500,4 -4,4"/>
<!-- Node512 -->
<g id="node1" class="node">
<title>Node512</title>
<polygon fill="#bfbfbf" stroke="#000000" points="0,-52 0,-82 138,-82 138,-52 0,-52"/>
<text text-anchor="start" x="8" y="-70" font-family="Helvetica,sans-Serif" font-size="10.00" fill="#000000">omc_EvaluateFunctions</text>
<text text-anchor="middle" x="69" y="-59" font-family="Helvetica,sans-Serif" font-size="10.00" fill="#000000">_buildVariableFunctionParts</text>
</g>
<!-- Node513 -->
<g id="node2" class="node">
<title>Node513</title>
<g id="a_node2"><a xlink:href="../../da/d72/_compiler_2boot_2build_2list_8c.html#a70628b2c3fb199a118f80777135940ee" target="_top" xlink:title="omc_List_map">
<polygon fill="#ffffff" stroke="#000000" points="208.5,-114.5 208.5,-133.5 288.5,-133.5 288.5,-114.5 208.5,-114.5"/>
<text text-anchor="middle" x="248.5" y="-121.5" font-family="Helvetica,sans-Serif" font-size="10.00" fill="#000000">omc_List_map</text>
</a>
</g>
</g>
<!-- Node512&#45;&gt;Node513 -->
<g id="edge1" class="edge">
<title>Node512&#45;&gt;Node513</title>
<path fill="none" stroke="#191970" d="M108.0835,-82.172C127.7117,-89.528 151.9504,-98.2161 174,-105 181.8909,-107.4278 190.3177,-109.7915 198.5608,-111.9805"/>
<polygon fill="#191970" stroke="#191970" points="197.9173,-115.4294 208.4761,-114.5564 199.6775,-108.6543 197.9173,-115.4294"/>
</g>
<!-- Node514 -->
<g id="node3" class="node">
<title>Node514</title>
<g id="a_node3"><a xlink:href="../../da/d72/_compiler_2boot_2build_2list_8c.html#a5a44fbeaf9a79350cc42d34a89b16553" target="_top" xlink:title="omc_List_intersection1OnTrue">
<polygon fill="#ffffff" stroke="#000000" points="174,-76.5 174,-95.5 323,-95.5 323,-76.5 174,-76.5"/>
<text text-anchor="middle" x="248.5" y="-83.5" font-family="Helvetica,sans-Serif" font-size="10.00" fill="#000000">omc_List_intersection1OnTrue</text>
</a>
</g>
</g>
<!-- Node512&#45;&gt;Node514 -->
<g id="edge2" class="edge">
<title>Node512&#45;&gt;Node514</title>
<path fill="none" stroke="#191970" d="M138.1426,-74.3187C146.5188,-75.2053 155.1482,-76.1187 163.717,-77.0258"/>
<polygon fill="#191970" stroke="#191970" points="163.4165,-80.5134 173.7294,-78.0856 164.1534,-73.5523 163.4165,-80.5134"/>
</g>
<!-- Node516 -->
<g id="node5" class="node">
<title>Node516</title>
<g id="a_node5"><a xlink:href="../../da/d72/_compiler_2boot_2build_2list_8c.html#a8adbf51ce877b23370be11654c6de6de" target="_top" xlink:title="omc_List_map1">
<polygon fill="#ffffff" stroke="#000000" points="205.5,-38.5 205.5,-57.5 291.5,-57.5 291.5,-38.5 205.5,-38.5"/>
<text text-anchor="middle" x="248.5" y="-45.5" font-family="Helvetica,sans-Serif" font-size="10.00" fill="#000000">omc_List_map1</text>
</a>
</g>
</g>
<!-- Node512&#45;&gt;Node516 -->
<g id="edge4" class="edge">
<title>Node512&#45;&gt;Node516</title>
<path fill="none" stroke="#191970" d="M138.1426,-59.6813C157.1368,-57.6708 177.4328,-55.5224 195.3725,-53.6235"/>
<polygon fill="#191970" stroke="#191970" points="195.7772,-57.1003 205.3532,-52.5671 195.0403,-50.1392 195.7772,-57.1003"/>
</g>
<!-- Node517 -->
<g id="node6" class="node">
<title>Node517</title>
<g id="a_node6"><a xlink:href="../../da/d72/_compiler_2boot_2build_2list_8c.html#afd2ab549530962f72b8cf4bf5eef1bd4" target="_top" xlink:title="omc_List_hasOneElement">
<polygon fill="#ffffff" stroke="#000000" points="183,-.5 183,-19.5 314,-19.5 314,-.5 183,-.5"/>
<text text-anchor="middle" x="248.5" y="-7.5" font-family="Helvetica,sans-Serif" font-size="10.00" fill="#000000">omc_List_hasOneElement</text>
</a>
</g>
</g>
<!-- Node512&#45;&gt;Node517 -->
<g id="edge5" class="edge">
<title>Node512&#45;&gt;Node517</title>
<path fill="none" stroke="#191970" d="M108.0835,-51.828C127.7117,-44.472 151.9504,-35.7839 174,-29 181.8002,-26.6001 190.1241,-24.2628 198.2765,-22.0951"/>
<polygon fill="#191970" stroke="#191970" points="199.2924,-25.4474 208.0889,-19.5422 197.5298,-18.6729 199.2924,-25.4474"/>
</g>
<!-- Node515 -->
<g id="node4" class="node">
<title>Node515</title>
<g id="a_node4"><a xlink:href="../../da/d72/_compiler_2boot_2build_2list_8c.html#a46ff38d9ba124b9a152c68891c64cb54" target="_top" xlink:title="omc_List_isMemberOnTrue">
<polygon fill="#ffffff" stroke="#000000" points="359,-76.5 359,-95.5 496,-95.5 496,-76.5 359,-76.5"/>
<text text-anchor="middle" x="427.5" y="-83.5" font-family="Helvetica,sans-Serif" font-size="10.00" fill="#000000">omc_List_isMemberOnTrue</text>
</a>
</g>
</g>
<!-- Node514&#45;&gt;Node515 -->
<g id="edge3" class="edge">
<title>Node514&#45;&gt;Node515</title>
<path fill="none" stroke="#191970" d="M323.1159,-86C331.5045,-86 340.0725,-86 348.514,-86"/>
<polygon fill="#191970" stroke="#191970" points="348.7274,-89.5001 358.7274,-86 348.7274,-82.5001 348.7274,-89.5001"/>
</g>
</g>
</svg>
