<?xml version="1.0" encoding="UTF-8" standalone="no"?>
<!DOCTYPE svg PUBLIC "-//W3C//DTD SVG 1.1//EN"
 "http://www.w3.org/Graphics/SVG/1.1/DTD/svg11.dtd">
<!-- Generated by graphviz version 2.40.1 (20161225.0304)
 -->
<!-- Title: mem_done Pages: 1 -->
<svg width="248pt" height="104pt"
 viewBox="0.00 0.00 248.00 104.00" xmlns="http://www.w3.org/2000/svg" xmlns:xlink="http://www.w3.org/1999/xlink">
<g id="graph0" class="graph" transform="scale(1 1) rotate(0) translate(4 100)">
<title>mem_done</title>
<polygon fill="#ffffff" stroke="transparent" points="-4,4 -4,-100 244,-100 244,4 -4,4"/>
<!-- Node252 -->
<g id="node1" class="node">
<title>Node252</title>
<polygon fill="#bfbfbf" stroke="#000000" points="0,-38.5 0,-57.5 65,-57.5 65,-38.5 0,-38.5"/>
<text text-anchor="middle" x="32.5" y="-45.5" font-family="Helvetica,sans-Serif" font-size="10.00" fill="#000000">mem_done</text>
</g>
<!-- Node253 -->
<g id="node2" class="node">
<title>Node253</title>
<g id="a_node2"><a xlink:href="../../d1/d0f/infcover_8c.html#a643c6bce856c13ef1177205e10fc99d1" target="_top" xlink:title="mem_high">
<polygon fill="#ffffff" stroke="#000000" points="101,-76.5 101,-95.5 163,-95.5 163,-76.5 101,-76.5"/>
<text text-anchor="middle" x="132" y="-83.5" font-family="Helvetica,sans-Serif" font-size="10.00" fill="#000000">mem_high</text>
</a>
</g>
</g>
<!-- Node252&#45;&gt;Node253 -->
<g id="edge1" class="edge">
<title>Node252&#45;&gt;Node253</title>
<path fill="none" stroke="#191970" d="M57.6081,-57.589C69.6277,-62.1794 84.2147,-67.7503 97.2765,-72.7388"/>
<polygon fill="#191970" stroke="#191970" points="96.3093,-76.1159 106.9,-76.4141 98.8068,-69.5766 96.3093,-76.1159"/>
</g>
<!-- Node254 -->
<g id="node3" class="node">
<title>Node254</title>
<g id="a_node3"><a xlink:href="../../d4/d98/g_09_09malloc_8c.html#a49f789e614e57e410f598885b800c2df" target="_top" xlink:title="fprintf">
<polygon fill="#ffffff" stroke="#000000" points="199,-57.5 199,-76.5 240,-76.5 240,-57.5 199,-57.5"/>
<text text-anchor="middle" x="219.5" y="-64.5" font-family="Helvetica,sans-Serif" font-size="10.00" fill="#000000">fprintf</text>
</a>
</g>
</g>
<!-- Node252&#45;&gt;Node254 -->
<g id="edge4" class="edge">
<title>Node252&#45;&gt;Node254</title>
<path fill="none" stroke="#191970" d="M65.0729,-51.3095C99.8206,-54.8401 154.453,-60.3909 188.5614,-63.8565"/>
<polygon fill="#191970" stroke="#191970" points="188.5605,-67.3744 198.8631,-64.9032 189.2681,-60.4102 188.5605,-67.3744"/>
</g>
<!-- Node255 -->
<g id="node4" class="node">
<title>Node255</title>
<g id="a_node4"><a xlink:href="../../dc/ddc/3rd_party_2flex-2_85_835_2parse_8c.html#af07d89f5ceaea0c7c8252cc41fd75f37" target="_top" xlink:title="free">
<polygon fill="#ffffff" stroke="#000000" points="115.5,-.5 115.5,-19.5 148.5,-19.5 148.5,-.5 115.5,-.5"/>
<text text-anchor="middle" x="132" y="-7.5" font-family="Helvetica,sans-Serif" font-size="10.00" fill="#000000">free</text>
</a>
</g>
</g>
<!-- Node252&#45;&gt;Node255 -->
<g id="edge3" class="edge">
<title>Node252&#45;&gt;Node255</title>
<path fill="none" stroke="#191970" d="M57.6081,-38.411C72.2957,-32.8016 90.817,-25.7282 105.7045,-20.0425"/>
<polygon fill="#191970" stroke="#191970" points="107.2458,-23.2005 115.3389,-16.363 104.7483,-16.6612 107.2458,-23.2005"/>
</g>
<!-- Node253&#45;&gt;Node254 -->
<g id="edge2" class="edge">
<title>Node253&#45;&gt;Node254</title>
<path fill="none" stroke="#191970" d="M163.0956,-79.2478C171.5467,-77.4127 180.6871,-75.4279 189.0993,-73.6013"/>
<polygon fill="#191970" stroke="#191970" points="189.8744,-77.0146 198.9039,-71.4723 188.3889,-70.1741 189.8744,-77.0146"/>
</g>
</g>
</svg>
