<?xml version="1.0" encoding="UTF-8" standalone="no"?>
<!DOCTYPE svg PUBLIC "-//W3C//DTD SVG 1.1//EN"
 "http://www.w3.org/Graphics/SVG/1.1/DTD/svg11.dtd">
<!-- Generated by graphviz version 2.40.1 (20161225.0304)
 -->
<!-- Title: ML_Aggregate_Set_GlobalNumber Pages: 1 -->
<svg width="330pt" height="116pt"
 viewBox="0.00 0.00 330.00 115.50" xmlns="http://www.w3.org/2000/svg" xmlns:xlink="http://www.w3.org/1999/xlink">
<g id="graph0" class="graph" transform="scale(1 1) rotate(0) translate(4 111.5)">
<title>ML_Aggregate_Set_GlobalNumber</title>
<polygon fill="#ffffff" stroke="transparent" points="-4,4 -4,-111.5 326,-111.5 326,4 -4,4"/>
<!-- Node67 -->
<g id="node1" class="node">
<title>Node67</title>
<polygon fill="#bfbfbf" stroke="#000000" points="0,-50 0,-69 167,-69 167,-50 0,-50"/>
<text text-anchor="middle" x="83.5" y="-57" font-family="Helvetica,sans-Serif" font-size="10.00" fill="#000000">ML_Aggregate_Set_GlobalNumber</text>
</g>
<!-- Node68 -->
<g id="node2" class="node">
<title>Node68</title>
<g id="a_node2"><a xlink:href="../../d4/d98/g_09_09malloc_8c.html#a49f789e614e57e410f598885b800c2df" target="_top" xlink:title="fprintf">
<polygon fill="#ffffff" stroke="#000000" points="242,-88 242,-107 283,-107 283,-88 242,-88"/>
<text text-anchor="middle" x="262.5" y="-95" font-family="Helvetica,sans-Serif" font-size="10.00" fill="#000000">fprintf</text>
</a>
</g>
</g>
<!-- Node67&#45;&gt;Node68 -->
<g id="edge1" class="edge">
<title>Node67&#45;&gt;Node68</title>
<path fill="none" stroke="#191970" d="M128.6693,-69.089C160.812,-75.9126 203.1604,-84.9028 231.5321,-90.9258"/>
<polygon fill="#191970" stroke="#191970" points="231.1621,-94.4252 241.671,-93.0782 232.6158,-87.5778 231.1621,-94.4252"/>
</g>
<!-- Node69 -->
<g id="node3" class="node">
<title>Node69</title>
<g id="a_node3"><a xlink:href="../../d8/d08/ml__memory_8c.html#ab656aed9d908a79217671761d4ba9a75" target="_top" xlink:title="ML_memory_alloc">
<polygon fill="#ffffff" stroke="#000000" points="214.5,-50 214.5,-69 310.5,-69 310.5,-50 214.5,-50"/>
<text text-anchor="middle" x="262.5" y="-57" font-family="Helvetica,sans-Serif" font-size="10.00" fill="#000000">ML_memory_alloc</text>
</a>
</g>
</g>
<!-- Node67&#45;&gt;Node69 -->
<g id="edge2" class="edge">
<title>Node67&#45;&gt;Node69</title>
<path fill="none" stroke="#191970" d="M167.235,-59.5C179.7617,-59.5 192.4396,-59.5 204.2818,-59.5"/>
<polygon fill="#191970" stroke="#191970" points="204.4486,-63.0001 214.4485,-59.5 204.4485,-56.0001 204.4486,-63.0001"/>
</g>
<!-- Node70 -->
<g id="node4" class="node">
<title>Node70</title>
<g id="a_node4"><a xlink:href="../../d3/d5f/ml__agg___m_e_t_i_s_8c.html#af671b26b2cd39f1140224009f9205b2b" target="_top" xlink:title="ML_Aggregate_Options\l_Defaults">
<polygon fill="#ffffff" stroke="#000000" points="203,-.5 203,-30.5 322,-30.5 322,-.5 203,-.5"/>
<text text-anchor="start" x="211" y="-18.5" font-family="Helvetica,sans-Serif" font-size="10.00" fill="#000000">ML_Aggregate_Options</text>
<text text-anchor="middle" x="262.5" y="-7.5" font-family="Helvetica,sans-Serif" font-size="10.00" fill="#000000">_Defaults</text>
</a>
</g>
</g>
<!-- Node67&#45;&gt;Node70 -->
<g id="edge3" class="edge">
<title>Node67&#45;&gt;Node70</title>
<path fill="none" stroke="#191970" d="M122.3403,-49.9527C143.0355,-44.8656 169.1189,-38.454 193.1563,-32.5454"/>
<polygon fill="#191970" stroke="#191970" points="194.0804,-35.9225 202.9558,-30.1366 192.4094,-29.1248 194.0804,-35.9225"/>
</g>
</g>
</svg>
