<?xml version="1.0" encoding="UTF-8" standalone="no"?>
<!DOCTYPE svg PUBLIC "-//W3C//DTD SVG 1.1//EN"
 "http://www.w3.org/Graphics/SVG/1.1/DTD/svg11.dtd">
<!-- Generated by graphviz version 2.40.1 (20161225.0304)
 -->
<!-- Title: omc_ElementSource_getInfo Pages: 1 -->
<svg width="781pt" height="432pt"
 viewBox="0.00 0.00 781.00 431.50" xmlns="http://www.w3.org/2000/svg" xmlns:xlink="http://www.w3.org/1999/xlink">
<g id="graph0" class="graph" transform="scale(1 1) rotate(0) translate(4 427.5)">
<title>omc_ElementSource_getInfo</title>
<polygon fill="#ffffff" stroke="transparent" points="-4,4 -4,-427.5 777,-427.5 777,4 -4,4"/>
<!-- Node677 -->
<g id="node1" class="node">
<title>Node677</title>
<polygon fill="#bfbfbf" stroke="#000000" points="0,-228.5 0,-247.5 143,-247.5 143,-228.5 0,-228.5"/>
<text text-anchor="middle" x="71.5" y="-235.5" font-family="Helvetica,sans-Serif" font-size="10.00" fill="#000000">omc_ElementSource_getInfo</text>
</g>
<!-- Node678 -->
<g id="node2" class="node">
<title>Node678</title>
<g id="a_node2"><a xlink:href="../../de/d5c/_n_f_ceval_8h.html#abc4bbd4f21ed1459ba92943e54b42f2c" target="_top" xlink:title="omc_NFCeval_EvalTarget\l_getInfo">
<polygon fill="#ffffff" stroke="#000000" points="202,-393 202,-423 334,-423 334,-393 202,-393"/>
<text text-anchor="start" x="210" y="-411" font-family="Helvetica,sans-Serif" font-size="10.00" fill="#000000">omc_NFCeval_EvalTarget</text>
<text text-anchor="middle" x="268" y="-400" font-family="Helvetica,sans-Serif" font-size="10.00" fill="#000000">_getInfo</text>
</a>
</g>
</g>
<!-- Node677&#45;&gt;Node678 -->
<g id="edge1" class="edge">
<title>Node677&#45;&gt;Node678</title>
<path fill="none" stroke="#191970" d="M80.4572,-257.1889C96.0122,-288.3848 131.0096,-349.9322 179,-383 185.8722,-387.7353 193.6247,-391.5784 201.6163,-394.6963"/>
<polygon fill="#191970" stroke="#191970" points="83.4465,-255.3314 75.9367,-247.8579 77.1469,-258.3834 83.4465,-255.3314"/>
</g>
<!-- Node680 -->
<g id="node4" class="node">
<title>Node680</title>
<g id="a_node4"><a xlink:href="../../d7/db1/_n_f_equation_8h.html#aa9c5270c22be856f6873695841eb5aca" target="_top" xlink:title="omc_NFEquation_info">
<polygon fill="#ffffff" stroke="#000000" points="211.5,-354.5 211.5,-373.5 324.5,-373.5 324.5,-354.5 211.5,-354.5"/>
<text text-anchor="middle" x="268" y="-361.5" font-family="Helvetica,sans-Serif" font-size="10.00" fill="#000000">omc_NFEquation_info</text>
</a>
</g>
</g>
<!-- Node677&#45;&gt;Node680 -->
<g id="edge3" class="edge">
<title>Node677&#45;&gt;Node680</title>
<path fill="none" stroke="#191970" d="M84.0814,-255.7939C102.1817,-279.976 137.9441,-322.7468 179,-345 188.8622,-350.3455 200.0997,-354.1874 211.1912,-356.9485"/>
<polygon fill="#191970" stroke="#191970" points="86.7602,-253.5276 78.0349,-247.5176 81.108,-257.657 86.7602,-253.5276"/>
</g>
<!-- Node681 -->
<g id="node5" class="node">
<title>Node681</title>
<g id="a_node5"><a xlink:href="../../d8/dff/_n_f_o_c_connection_graph_8h.html#acb675a989a44f3da143dc651ac716299" target="_top" xlink:title="omc_NFOCConnectionGraph\l_generateEqualityConstraintEquation">
<polygon fill="#ffffff" stroke="#000000" points="179,-305 179,-335 357,-335 357,-305 179,-305"/>
<text text-anchor="start" x="187" y="-323" font-family="Helvetica,sans-Serif" font-size="10.00" fill="#000000">omc_NFOCConnectionGraph</text>
<text text-anchor="middle" x="268" y="-312" font-family="Helvetica,sans-Serif" font-size="10.00" fill="#000000">_generateEqualityConstraintEquation</text>
</a>
</g>
</g>
<!-- Node677&#45;&gt;Node681 -->
<g id="edge4" class="edge">
<title>Node677&#45;&gt;Node681</title>
<path fill="none" stroke="#191970" d="M95.7315,-252.7778C117.0637,-265.3126 149.2739,-283.1032 179,-295 188.0892,-298.6376 197.9001,-301.9612 207.5727,-304.9137"/>
<polygon fill="#191970" stroke="#191970" points="97.4027,-249.6995 87.019,-247.5944 93.8236,-255.7153 97.4027,-249.6995"/>
</g>
<!-- Node683 -->
<g id="node7" class="node">
<title>Node683</title>
<g id="a_node7"><a xlink:href="../../dd/d28/_n_f_statement_8h.html#abfe8db6d0b94ead84b4f5f58b3e712fe" target="_top" xlink:title="omc_NFStatement_info">
<polygon fill="#ffffff" stroke="#000000" points="208,-266.5 208,-285.5 328,-285.5 328,-266.5 208,-266.5"/>
<text text-anchor="middle" x="268" y="-273.5" font-family="Helvetica,sans-Serif" font-size="10.00" fill="#000000">omc_NFStatement_info</text>
</a>
</g>
</g>
<!-- Node677&#45;&gt;Node683 -->
<g id="edge6" class="edge">
<title>Node677&#45;&gt;Node683</title>
<path fill="none" stroke="#191970" d="M130.9123,-249.4894C158.9495,-254.9114 192.0157,-261.3058 218.6481,-266.4561"/>
<polygon fill="#191970" stroke="#191970" points="131.3143,-246.0024 120.8316,-247.54 129.9852,-252.875 131.3143,-246.0024"/>
</g>
<!-- Node684 -->
<g id="node8" class="node">
<title>Node684</title>
<g id="a_node8"><a xlink:href="../../db/d98/_n_f_typing_8h.html#ade05a944c418751103c070db01206620" target="_top" xlink:title="omc_NFTyping_typeReinit">
<polygon fill="#ffffff" stroke="#000000" points="201.5,-228.5 201.5,-247.5 334.5,-247.5 334.5,-228.5 201.5,-228.5"/>
<text text-anchor="middle" x="268" y="-235.5" font-family="Helvetica,sans-Serif" font-size="10.00" fill="#000000">omc_NFTyping_typeReinit</text>
</a>
</g>
</g>
<!-- Node677&#45;&gt;Node684 -->
<g id="edge7" class="edge">
<title>Node677&#45;&gt;Node684</title>
<path fill="none" stroke="#191970" d="M153.619,-238C169.5142,-238 185.9886,-238 201.3161,-238"/>
<polygon fill="#191970" stroke="#191970" points="153.2751,-234.5001 143.2751,-238 153.2751,-241.5001 153.2751,-234.5001"/>
</g>
<!-- Node686 -->
<g id="node10" class="node">
<title>Node686</title>
<g id="a_node10"><a xlink:href="../../db/d98/_n_f_typing_8h.html#a7018ac1893ee0edb4f8ec74e019fd26a" target="_top" xlink:title="omc_NFTyping_typeCondition">
<polygon fill="#ffffff" stroke="#000000" points="193.5,-190.5 193.5,-209.5 342.5,-209.5 342.5,-190.5 193.5,-190.5"/>
<text text-anchor="middle" x="268" y="-197.5" font-family="Helvetica,sans-Serif" font-size="10.00" fill="#000000">omc_NFTyping_typeCondition</text>
</a>
</g>
</g>
<!-- Node677&#45;&gt;Node686 -->
<g id="edge9" class="edge">
<title>Node677&#45;&gt;Node686</title>
<path fill="none" stroke="#191970" d="M130.9123,-226.5106C158.9495,-221.0886 192.0157,-214.6942 218.6481,-209.5439"/>
<polygon fill="#191970" stroke="#191970" points="129.9852,-223.125 120.8316,-228.46 131.3143,-229.9976 129.9852,-223.125"/>
</g>
<!-- Node690 -->
<g id="node14" class="node">
<title>Node690</title>
<g id="a_node14"><a xlink:href="../../db/d98/_n_f_typing_8h.html#a40d21ffeacc68fff734c3b3a6861488d" target="_top" xlink:title="omc_NFTyping_typeStatement">
<polygon fill="#ffffff" stroke="#000000" points="192,-133.5 192,-152.5 344,-152.5 344,-133.5 192,-133.5"/>
<text text-anchor="middle" x="268" y="-140.5" font-family="Helvetica,sans-Serif" font-size="10.00" fill="#000000">omc_NFTyping_typeStatement</text>
</a>
</g>
</g>
<!-- Node677&#45;&gt;Node690 -->
<g id="edge13" class="edge">
<title>Node677&#45;&gt;Node690</title>
<path fill="none" stroke="#191970" d="M97.2741,-223.5493C118.8586,-211.6382 150.6054,-194.5602 179,-181 200.6799,-170.6465 225.9097,-160.0028 243.9587,-152.6236"/>
<polygon fill="#191970" stroke="#191970" points="95.4504,-220.5584 88.4032,-228.4696 98.8457,-226.6799 95.4504,-220.5584"/>
</g>
<!-- Node696 -->
<g id="node20" class="node">
<title>Node696</title>
<g id="a_node20"><a xlink:href="../../db/d98/_n_f_typing_8h.html#a323984277cbb3615fa141aa4d22319f1" target="_top" xlink:title="omc_NFTyping_typeConnect">
<polygon fill="#ffffff" stroke="#000000" points="196,-57.5 196,-76.5 340,-76.5 340,-57.5 196,-57.5"/>
<text text-anchor="middle" x="268" y="-64.5" font-family="Helvetica,sans-Serif" font-size="10.00" fill="#000000">omc_NFTyping_typeConnect</text>
</a>
</g>
</g>
<!-- Node677&#45;&gt;Node696 -->
<g id="edge19" class="edge">
<title>Node677&#45;&gt;Node696</title>
<path fill="none" stroke="#191970" d="M85.5201,-220.6494C105.008,-197.1465 142.0689,-154.6164 179,-124 202.025,-104.9119 231.8107,-87.0229 250.4131,-76.5445"/>
<polygon fill="#191970" stroke="#191970" points="82.8061,-218.4394 79.1683,-228.3901 88.2174,-222.8799 82.8061,-218.4394"/>
</g>
<!-- Node698 -->
<g id="node22" class="node">
<title>Node698</title>
<g id="a_node22"><a xlink:href="../../db/d98/_n_f_typing_8h.html#a28ef14923ecfbafa09593bf608b599d1" target="_top" xlink:title="omc_NFTyping_typeEquation">
<polygon fill="#ffffff" stroke="#000000" points="195,-19.5 195,-38.5 341,-38.5 341,-19.5 195,-19.5"/>
<text text-anchor="middle" x="268" y="-26.5" font-family="Helvetica,sans-Serif" font-size="10.00" fill="#000000">omc_NFTyping_typeEquation</text>
</a>
</g>
</g>
<!-- Node677&#45;&gt;Node698 -->
<g id="edge21" class="edge">
<title>Node677&#45;&gt;Node698</title>
<path fill="none" stroke="#191970" d="M76.7197,-218.3409C88.1716,-179.2509 119.3606,-91.7695 179,-48 184.2223,-44.1673 190.0547,-41.0749 196.1678,-38.5841"/>
<polygon fill="#191970" stroke="#191970" points="73.2822,-217.6369 73.9512,-228.2106 80.022,-219.5275 73.2822,-217.6369"/>
</g>
<!-- Node679 -->
<g id="node3" class="node">
<title>Node679</title>
<g id="a_node3"><a xlink:href="../../d8/d8f/_n_f_ceval_8c.html#a94c11c48334f44c25c6c32944e48ff3f" target="_top" xlink:title="omc_NFCeval_evalSize">
<polygon fill="#ffffff" stroke="#000000" points="421,-398.5 421,-417.5 543,-417.5 543,-398.5 421,-398.5"/>
<text text-anchor="middle" x="482" y="-405.5" font-family="Helvetica,sans-Serif" font-size="10.00" fill="#000000">omc_NFCeval_evalSize</text>
</a>
</g>
</g>
<!-- Node678&#45;&gt;Node679 -->
<g id="edge2" class="edge">
<title>Node678&#45;&gt;Node679</title>
<path fill="none" stroke="#191970" d="M344.4503,-408C369.5148,-408 397.0205,-408 420.8043,-408"/>
<polygon fill="#191970" stroke="#191970" points="344.2454,-404.5001 334.2454,-408 344.2454,-411.5001 344.2454,-404.5001"/>
</g>
<!-- Node682 -->
<g id="node6" class="node">
<title>Node682</title>
<g id="a_node6"><a xlink:href="../../d8/dff/_n_f_o_c_connection_graph_8h.html#aab9b45f6b4ec1c0b72b48a9beeafeeb1" target="_top" xlink:title="boxptr_NFOCConnectionGraph\l_generateEqualityConstraintEquation">
<polygon fill="#ffffff" stroke="#000000" points="393,-305 393,-335 571,-335 571,-305 393,-305"/>
<text text-anchor="start" x="401" y="-323" font-family="Helvetica,sans-Serif" font-size="10.00" fill="#000000">boxptr_NFOCConnectionGraph</text>
<text text-anchor="middle" x="482" y="-312" font-family="Helvetica,sans-Serif" font-size="10.00" fill="#000000">_generateEqualityConstraintEquation</text>
</a>
</g>
</g>
<!-- Node681&#45;&gt;Node682 -->
<g id="edge5" class="edge">
<title>Node681&#45;&gt;Node682</title>
<path fill="none" stroke="#191970" d="M367.2299,-320C375.8066,-320 384.4503,-320 392.9388,-320"/>
<polygon fill="#191970" stroke="#191970" points="367.2057,-316.5001 357.2057,-320 367.2056,-323.5001 367.2057,-316.5001"/>
</g>
<!-- Node685 -->
<g id="node9" class="node">
<title>Node685</title>
<g id="a_node9"><a xlink:href="../../db/d98/_n_f_typing_8h.html#a668168db4e4e4988752de3965c91db9a" target="_top" xlink:title="boxptr_NFTyping_typeReinit">
<polygon fill="#ffffff" stroke="#000000" points="411.5,-266.5 411.5,-285.5 552.5,-285.5 552.5,-266.5 411.5,-266.5"/>
<text text-anchor="middle" x="482" y="-273.5" font-family="Helvetica,sans-Serif" font-size="10.00" fill="#000000">boxptr_NFTyping_typeReinit</text>
</a>
</g>
</g>
<!-- Node684&#45;&gt;Node685 -->
<g id="edge8" class="edge">
<title>Node684&#45;&gt;Node685</title>
<path fill="none" stroke="#191970" d="M331.9013,-249.347C362.6053,-254.7991 398.9942,-261.2607 428.2529,-266.4561"/>
<polygon fill="#191970" stroke="#191970" points="332.1829,-245.8423 321.725,-247.54 330.959,-252.7345 332.1829,-245.8423"/>
</g>
<!-- Node687 -->
<g id="node11" class="node">
<title>Node687</title>
<g id="a_node11"><a xlink:href="../../db/d98/_n_f_typing_8h.html#aa9a19f2f865ec4d90facbcbd4c7e4e32" target="_top" xlink:title="omc_NFTyping_typeIfEquation">
<polygon fill="#ffffff" stroke="#000000" points="406,-228.5 406,-247.5 558,-247.5 558,-228.5 406,-228.5"/>
<text text-anchor="middle" x="482" y="-235.5" font-family="Helvetica,sans-Serif" font-size="10.00" fill="#000000">omc_NFTyping_typeIfEquation</text>
</a>
</g>
</g>
<!-- Node686&#45;&gt;Node687 -->
<g id="edge10" class="edge">
<title>Node686&#45;&gt;Node687</title>
<path fill="none" stroke="#191970" d="M331.9013,-211.347C362.6053,-216.7991 398.9942,-223.2607 428.2529,-228.4561"/>
<polygon fill="#191970" stroke="#191970" points="332.1829,-207.8423 321.725,-209.54 330.959,-214.7345 332.1829,-207.8423"/>
</g>
<!-- Node689 -->
<g id="node13" class="node">
<title>Node689</title>
<g id="a_node13"><a xlink:href="../../db/d98/_n_f_typing_8h.html#a3a429496129acd5dcfc32edeac911adf" target="_top" xlink:title="boxptr_NFTyping_typeCondition">
<polygon fill="#ffffff" stroke="#000000" points="403.5,-190.5 403.5,-209.5 560.5,-209.5 560.5,-190.5 403.5,-190.5"/>
<text text-anchor="middle" x="482" y="-197.5" font-family="Helvetica,sans-Serif" font-size="10.00" fill="#000000">boxptr_NFTyping_typeCondition</text>
</a>
</g>
</g>
<!-- Node686&#45;&gt;Node689 -->
<g id="edge12" class="edge">
<title>Node686&#45;&gt;Node689</title>
<path fill="none" stroke="#191970" d="M352.8124,-200C369.4807,-200 386.9004,-200 403.3558,-200"/>
<polygon fill="#191970" stroke="#191970" points="352.5464,-196.5001 342.5464,-200 352.5464,-203.5001 352.5464,-196.5001"/>
</g>
<!-- Node688 -->
<g id="node12" class="node">
<title>Node688</title>
<g id="a_node12"><a xlink:href="../../db/d98/_n_f_typing_8h.html#a0d33623ed62ceda8d126abb91e34af2e" target="_top" xlink:title="boxptr_NFTyping_typeIfEquation">
<polygon fill="#ffffff" stroke="#000000" points="610,-228.5 610,-247.5 770,-247.5 770,-228.5 610,-228.5"/>
<text text-anchor="middle" x="690" y="-235.5" font-family="Helvetica,sans-Serif" font-size="10.00" fill="#000000">boxptr_NFTyping_typeIfEquation</text>
</a>
</g>
</g>
<!-- Node687&#45;&gt;Node688 -->
<g id="edge11" class="edge">
<title>Node687&#45;&gt;Node688</title>
<path fill="none" stroke="#191970" d="M568.628,-238C582.2988,-238 596.3817,-238 609.8956,-238"/>
<polygon fill="#191970" stroke="#191970" points="568.2705,-234.5001 558.2704,-238 568.2704,-241.5001 568.2705,-234.5001"/>
</g>
<!-- Node691 -->
<g id="node15" class="node">
<title>Node691</title>
<g id="a_node15"><a xlink:href="../../db/d98/_n_f_typing_8h.html#a1d5e3217a98842ca910fd13315ff9af4" target="_top" xlink:title="boxptr_NFTyping_typeStatement">
<polygon fill="#ffffff" stroke="#000000" points="401.5,-152.5 401.5,-171.5 562.5,-171.5 562.5,-152.5 401.5,-152.5"/>
<text text-anchor="middle" x="482" y="-159.5" font-family="Helvetica,sans-Serif" font-size="10.00" fill="#000000">boxptr_NFTyping_typeStatement</text>
</a>
</g>
</g>
<!-- Node690&#45;&gt;Node691 -->
<g id="edge14" class="edge">
<title>Node690&#45;&gt;Node691</title>
<path fill="none" stroke="#191970" d="M354.2067,-150.6539C369.8181,-152.0399 386.0436,-153.4805 401.4841,-154.8514"/>
<polygon fill="#191970" stroke="#191970" points="354.3213,-147.1504 344.0509,-149.7522 353.7022,-154.1229 354.3213,-147.1504"/>
</g>
<!-- Node692 -->
<g id="node16" class="node">
<title>Node692</title>
<g id="a_node16"><a xlink:href="../../db/d98/_n_f_typing_8h.html#a10f3f71320ba9b0df5efe25054480e24" target="_top" xlink:title="omc_NFTyping_typeStatements">
<polygon fill="#ffffff" stroke="#000000" points="403,-114.5 403,-133.5 561,-133.5 561,-114.5 403,-114.5"/>
<text text-anchor="middle" x="482" y="-121.5" font-family="Helvetica,sans-Serif" font-size="10.00" fill="#000000">omc_NFTyping_typeStatements</text>
</a>
</g>
</g>
<!-- Node690&#45;&gt;Node692 -->
<g id="edge15" class="edge">
<title>Node690&#45;&gt;Node692</title>
<path fill="none" stroke="#191970" d="M354.0139,-135.3632C370.1754,-133.9283 387.0018,-132.4344 402.9389,-131.0194"/>
<polygon fill="#191970" stroke="#191970" points="353.7022,-131.8771 344.0509,-136.2478 354.3213,-138.8496 353.7022,-131.8771"/>
</g>
<!-- Node694 -->
<g id="node18" class="node">
<title>Node694</title>
<g id="a_node18"><a xlink:href="../../db/d98/_n_f_typing_8h.html#a7a22648cb6c7cb3cb10b71004bbc584b" target="_top" xlink:title="omc_NFTyping_typeAlgorithm">
<polygon fill="#ffffff" stroke="#000000" points="407.5,-76.5 407.5,-95.5 556.5,-95.5 556.5,-76.5 407.5,-76.5"/>
<text text-anchor="middle" x="482" y="-83.5" font-family="Helvetica,sans-Serif" font-size="10.00" fill="#000000">omc_NFTyping_typeAlgorithm</text>
</a>
</g>
</g>
<!-- Node690&#45;&gt;Node694 -->
<g id="edge17" class="edge">
<title>Node690&#45;&gt;Node694</title>
<path fill="none" stroke="#191970" d="M306.5256,-130.3639C331.1174,-122.5282 363.7573,-112.5518 393,-105 406.156,-101.6025 420.5168,-98.3435 433.7883,-95.5133"/>
<polygon fill="#191970" stroke="#191970" points="305.3017,-127.0808 296.8493,-133.4688 307.4405,-133.7461 305.3017,-127.0808"/>
</g>
<!-- Node693 -->
<g id="node17" class="node">
<title>Node693</title>
<g id="a_node17"><a xlink:href="../../db/d98/_n_f_typing_8h.html#a76699eeb121016133c45ccc4f1d46352" target="_top" xlink:title="boxptr_NFTyping_typeStatements">
<polygon fill="#ffffff" stroke="#000000" points="607,-114.5 607,-133.5 773,-133.5 773,-114.5 607,-114.5"/>
<text text-anchor="middle" x="690" y="-121.5" font-family="Helvetica,sans-Serif" font-size="10.00" fill="#000000">boxptr_NFTyping_typeStatements</text>
</a>
</g>
</g>
<!-- Node692&#45;&gt;Node693 -->
<g id="edge16" class="edge">
<title>Node692&#45;&gt;Node693</title>
<path fill="none" stroke="#191970" d="M571.4693,-124C583.2131,-124 595.2092,-124 606.8424,-124"/>
<polygon fill="#191970" stroke="#191970" points="571.2293,-120.5001 561.2292,-124 571.2292,-127.5001 571.2293,-120.5001"/>
</g>
<!-- Node695 -->
<g id="node19" class="node">
<title>Node695</title>
<g id="a_node19"><a xlink:href="../../db/d98/_n_f_typing_8h.html#a52814de2415451646a64b1871dc0c22b" target="_top" xlink:title="boxptr_NFTyping_typeAlgorithm">
<polygon fill="#ffffff" stroke="#000000" points="611.5,-76.5 611.5,-95.5 768.5,-95.5 768.5,-76.5 611.5,-76.5"/>
<text text-anchor="middle" x="690" y="-83.5" font-family="Helvetica,sans-Serif" font-size="10.00" fill="#000000">boxptr_NFTyping_typeAlgorithm</text>
</a>
</g>
</g>
<!-- Node694&#45;&gt;Node695 -->
<g id="edge18" class="edge">
<title>Node694&#45;&gt;Node695</title>
<path fill="none" stroke="#191970" d="M566.6551,-86C581.4635,-86 596.8142,-86 611.4487,-86"/>
<polygon fill="#191970" stroke="#191970" points="566.5053,-82.5001 556.5053,-86 566.5052,-89.5001 566.5053,-82.5001"/>
</g>
<!-- Node697 -->
<g id="node21" class="node">
<title>Node697</title>
<g id="a_node21"><a xlink:href="../../db/d98/_n_f_typing_8h.html#ada3193795163c9b24339f984294f71b8" target="_top" xlink:title="boxptr_NFTyping_typeConnect">
<polygon fill="#ffffff" stroke="#000000" points="406,-38.5 406,-57.5 558,-57.5 558,-38.5 406,-38.5"/>
<text text-anchor="middle" x="482" y="-45.5" font-family="Helvetica,sans-Serif" font-size="10.00" fill="#000000">boxptr_NFTyping_typeConnect</text>
</a>
</g>
</g>
<!-- Node696&#45;&gt;Node697 -->
<g id="edge20" class="edge">
<title>Node696&#45;&gt;Node697</title>
<path fill="none" stroke="#191970" d="M350.1834,-59.7033C368.4549,-58.0811 387.7481,-56.3682 405.7688,-54.7682"/>
<polygon fill="#191970" stroke="#191970" points="349.8036,-56.2232 340.1523,-60.594 350.4227,-63.1958 349.8036,-56.2232"/>
</g>
<!-- Node699 -->
<g id="node23" class="node">
<title>Node699</title>
<g id="a_node23"><a xlink:href="../../db/d98/_n_f_typing_8h.html#ac13b1e658611632372d5529ac2830946" target="_top" xlink:title="boxptr_NFTyping_typeEquation">
<polygon fill="#ffffff" stroke="#000000" points="405,-.5 405,-19.5 559,-19.5 559,-.5 405,-.5"/>
<text text-anchor="middle" x="482" y="-7.5" font-family="Helvetica,sans-Serif" font-size="10.00" fill="#000000">boxptr_NFTyping_typeEquation</text>
</a>
</g>
</g>
<!-- Node698&#45;&gt;Node699 -->
<g id="edge22" class="edge">
<title>Node698&#45;&gt;Node699</title>
<path fill="none" stroke="#191970" d="M351.3148,-21.6029C368.9557,-20.0366 387.5009,-18.3901 404.8994,-16.8454"/>
<polygon fill="#191970" stroke="#191970" points="350.6994,-18.1437 341.0481,-22.5144 351.3185,-25.1162 350.6994,-18.1437"/>
</g>
</g>
</svg>
