<?xml version="1.0" encoding="UTF-8" standalone="no"?>
<!DOCTYPE svg PUBLIC "-//W3C//DTD SVG 1.1//EN"
 "http://www.w3.org/Graphics/SVG/1.1/DTD/svg11.dtd">
<!-- Generated by graphviz version 2.40.1 (20161225.0304)
 -->
<!-- Title: omc_NFExpression_foldList Pages: 1 -->
<svg width="663pt" height="122pt"
 viewBox="0.00 0.00 663.00 122.00" xmlns="http://www.w3.org/2000/svg" xmlns:xlink="http://www.w3.org/1999/xlink">
<g id="graph0" class="graph" transform="scale(1 1) rotate(0) translate(4 118)">
<title>omc_NFExpression_foldList</title>
<polygon fill="#ffffff" stroke="transparent" points="-4,4 -4,-118 659,-118 659,4 -4,4"/>
<!-- Node2542 -->
<g id="node1" class="node">
<title>Node2542</title>
<polygon fill="#bfbfbf" stroke="#000000" points="0,-47.5 0,-66.5 140,-66.5 140,-47.5 0,-47.5"/>
<text text-anchor="middle" x="70" y="-54.5" font-family="Helvetica,sans-Serif" font-size="10.00" fill="#000000">omc_NFExpression_foldList</text>
</g>
<!-- Node2543 -->
<g id="node2" class="node">
<title>Node2543</title>
<g id="a_node2"><a xlink:href="../../db/d0c/_n_f_expression_8c.html#ab08a4910f3f6b6bcf6d9dccac7916436" target="_top" xlink:title="omc_NFExpression_fold">
<polygon fill="#ffffff" stroke="#000000" points="176,-47.5 176,-66.5 300,-66.5 300,-47.5 176,-47.5"/>
<text text-anchor="middle" x="238" y="-54.5" font-family="Helvetica,sans-Serif" font-size="10.00" fill="#000000">omc_NFExpression_fold</text>
</a>
</g>
</g>
<!-- Node2542&#45;&gt;Node2543 -->
<g id="edge1" class="edge">
<title>Node2542&#45;&gt;Node2543</title>
<path fill="none" stroke="#191970" d="M140.2737,-57C148.6477,-57 157.2088,-57 165.6118,-57"/>
<polygon fill="#191970" stroke="#191970" points="165.7601,-60.5001 175.76,-57 165.76,-53.5001 165.7601,-60.5001"/>
</g>
<!-- Node2543&#45;&gt;Node2543 -->
<g id="edge2" class="edge">
<title>Node2543&#45;&gt;Node2543</title>
<path fill="none" stroke="#191970" d="M212.1063,-66.7571C199.5094,-75.5653 208.1406,-85 238,-85 258.0618,-85 268.5408,-80.741 269.4371,-75.2746"/>
<polygon fill="#191970" stroke="#191970" points="272.2819,-73.2291 263.8937,-66.7571 266.415,-77.0475 272.2819,-73.2291"/>
</g>
<!-- Node2544 -->
<g id="node3" class="node">
<title>Node2544</title>
<g id="a_node3"><a xlink:href="../../db/d0c/_n_f_expression_8c.html#aa6231af2c3561a8648133a0d4292abd4" target="_top" xlink:title="omc_NFExpression_foldCref">
<polygon fill="#ffffff" stroke="#000000" points="336,-94.5 336,-113.5 479,-113.5 479,-94.5 336,-94.5"/>
<text text-anchor="middle" x="407.5" y="-101.5" font-family="Helvetica,sans-Serif" font-size="10.00" fill="#000000">omc_NFExpression_foldCref</text>
</a>
</g>
</g>
<!-- Node2543&#45;&gt;Node2544 -->
<g id="edge3" class="edge">
<title>Node2543&#45;&gt;Node2544</title>
<path fill="none" stroke="#191970" d="M272.3009,-66.5112C298.5202,-73.7814 334.8683,-83.8602 363.2734,-91.7366"/>
<polygon fill="#191970" stroke="#191970" points="362.388,-95.1231 372.9597,-94.4224 364.2585,-88.3776 362.388,-95.1231"/>
</g>
<!-- Node2545 -->
<g id="node4" class="node">
<title>Node2545</title>
<g id="a_node4"><a xlink:href="../../db/d0c/_n_f_expression_8c.html#ac9520385b0ebb5b62c173253bfd49b1e" target="_top" xlink:title="omc_NFExpression_foldList">
<polygon fill="#ffffff" stroke="#000000" points="515,-47.5 515,-66.5 655,-66.5 655,-47.5 515,-47.5"/>
<text text-anchor="middle" x="585" y="-54.5" font-family="Helvetica,sans-Serif" font-size="10.00" fill="#000000">omc_NFExpression_foldList</text>
</a>
</g>
</g>
<!-- Node2543&#45;&gt;Node2545 -->
<g id="edge4" class="edge">
<title>Node2543&#45;&gt;Node2545</title>
<path fill="none" stroke="#191970" d="M300.0366,-51.6841C357.189,-49.9489 442.3248,-49.7883 504.6569,-51.2023"/>
<polygon fill="#191970" stroke="#191970" points="504.7632,-54.7059 514.8463,-51.4531 504.9355,-47.708 504.7632,-54.7059"/>
</g>
<!-- Node2546 -->
<g id="node5" class="node">
<title>Node2546</title>
<g id="a_node5"><a xlink:href="../../db/d0c/_n_f_expression_8c.html#ac86e4c673150f2ade33ea47264d6929a" target="_top" xlink:title="omc_NFExpression_foldCall">
<polygon fill="#ffffff" stroke="#000000" points="337,-.5 337,-19.5 478,-19.5 478,-.5 337,-.5"/>
<text text-anchor="middle" x="407.5" y="-7.5" font-family="Helvetica,sans-Serif" font-size="10.00" fill="#000000">omc_NFExpression_foldCall</text>
</a>
</g>
</g>
<!-- Node2543&#45;&gt;Node2546 -->
<g id="edge6" class="edge">
<title>Node2543&#45;&gt;Node2546</title>
<path fill="none" stroke="#191970" d="M256.4621,-47.4791C276.5921,-39.9637 309.9871,-29.9642 340.2638,-22.0234"/>
<polygon fill="#191970" stroke="#191970" points="341.1536,-25.4086 349.9635,-19.5234 339.4064,-18.6301 341.1536,-25.4086"/>
</g>
<!-- Node2545&#45;&gt;Node2543 -->
<g id="edge5" class="edge">
<title>Node2545&#45;&gt;Node2543</title>
<path fill="none" stroke="#191970" d="M514.8463,-62.5469C455.3334,-64.1329 370.2953,-64.1508 310.2052,-62.6007"/>
<polygon fill="#191970" stroke="#191970" points="310.1307,-59.0973 300.0366,-62.3159 309.9347,-66.0945 310.1307,-59.0973"/>
</g>
<!-- Node2546&#45;&gt;Node2543 -->
<g id="edge8" class="edge">
<title>Node2546&#45;&gt;Node2543</title>
<path fill="none" stroke="#191970" d="M388.8134,-19.6046C368.8065,-27.056 335.8825,-36.9209 305.8931,-44.8041"/>
<polygon fill="#191970" stroke="#191970" points="304.6656,-41.5062 295.8582,-47.3952 306.4157,-48.2839 304.6656,-41.5062"/>
</g>
<!-- Node2546&#45;&gt;Node2545 -->
<g id="edge7" class="edge">
<title>Node2546&#45;&gt;Node2545</title>
<path fill="none" stroke="#191970" d="M443.4198,-19.5112C470.9965,-26.8132 509.2729,-36.9483 539.0752,-44.8396"/>
<polygon fill="#191970" stroke="#191970" points="538.2667,-48.2461 548.8295,-47.4224 540.0585,-41.4793 538.2667,-48.2461"/>
</g>
<!-- Node2547 -->
<g id="node6" class="node">
<title>Node2547</title>
<g id="a_node6"><a xlink:href="../../d9/d7c/_compiler_2boot_2build_2util_8c.html#aba4a7f37305a10621a18bb3a87fa1076" target="_top" xlink:title="omc_Util_tuple22">
<polygon fill="#ffffff" stroke="#000000" points="539,-.5 539,-19.5 631,-19.5 631,-.5 539,-.5"/>
<text text-anchor="middle" x="585" y="-7.5" font-family="Helvetica,sans-Serif" font-size="10.00" fill="#000000">omc_Util_tuple22</text>
</a>
</g>
</g>
<!-- Node2546&#45;&gt;Node2547 -->
<g id="edge9" class="edge">
<title>Node2546&#45;&gt;Node2547</title>
<path fill="none" stroke="#191970" d="M478.1627,-10C494.8963,-10 512.5257,-10 528.533,-10"/>
<polygon fill="#191970" stroke="#191970" points="528.7921,-13.5001 538.7921,-10 528.792,-6.5001 528.7921,-13.5001"/>
</g>
</g>
</svg>
