<?xml version="1.0" encoding="UTF-8" standalone="no"?>
<!DOCTYPE svg PUBLIC "-//W3C//DTD SVG 1.1//EN"
 "http://www.w3.org/Graphics/SVG/1.1/DTD/svg11.dtd">
<!-- Generated by graphviz version 2.40.1 (20161225.0304)
 -->
<!-- Title: boxptr_NFExpression_callContains Pages: 1 -->
<svg width="1091pt" height="184pt"
 viewBox="0.00 0.00 1091.00 184.40" xmlns="http://www.w3.org/2000/svg" xmlns:xlink="http://www.w3.org/1999/xlink">
<g id="graph0" class="graph" transform="scale(1 1) rotate(0) translate(4 180.404)">
<title>boxptr_NFExpression_callContains</title>
<polygon fill="#ffffff" stroke="transparent" points="-4,4 -4,-180.404 1087,-180.404 1087,4 -4,4"/>
<!-- Node14 -->
<g id="node1" class="node">
<title>Node14</title>
<polygon fill="#bfbfbf" stroke="#000000" points="0,-53.404 0,-83.404 111,-83.404 111,-53.404 0,-53.404"/>
<text text-anchor="start" x="8" y="-71.404" font-family="Helvetica,sans-Serif" font-size="10.00" fill="#000000">boxptr_NFExpression</text>
<text text-anchor="middle" x="55.5" y="-60.404" font-family="Helvetica,sans-Serif" font-size="10.00" fill="#000000">_callContains</text>
</g>
<!-- Node15 -->
<g id="node2" class="node">
<title>Node15</title>
<g id="a_node2"><a xlink:href="../../db/d0c/_n_f_expression_8c.html#aa1ca8fb5ea8108ccf785f43677e3d8bf" target="_top" xlink:title="omc_NFExpression_callContains">
<polygon fill="#ffffff" stroke="#000000" points="147,-58.904 147,-77.904 309,-77.904 309,-58.904 147,-58.904"/>
<text text-anchor="middle" x="228" y="-65.904" font-family="Helvetica,sans-Serif" font-size="10.00" fill="#000000">omc_NFExpression_callContains</text>
</a>
</g>
</g>
<!-- Node14&#45;&gt;Node15 -->
<g id="edge1" class="edge">
<title>Node14&#45;&gt;Node15</title>
<path fill="none" stroke="#191970" d="M111.0296,-68.404C119.2413,-68.404 127.8803,-68.404 136.5897,-68.404"/>
<polygon fill="#191970" stroke="#191970" points="136.8248,-71.9041 146.8248,-68.404 136.8248,-64.9041 136.8248,-71.9041"/>
</g>
<!-- Node16 -->
<g id="node3" class="node">
<title>Node16</title>
<g id="a_node3"><a xlink:href="../../db/d0c/_n_f_expression_8c.html#a7f3fcc9af2d36560e1bdf3913ae4b7f1" target="_top" xlink:title="omc_NFExpression_listContains">
<polygon fill="#ffffff" stroke="#000000" points="345,-105.904 345,-124.904 505,-124.904 505,-105.904 345,-105.904"/>
<text text-anchor="middle" x="425" y="-112.904" font-family="Helvetica,sans-Serif" font-size="10.00" fill="#000000">omc_NFExpression_listContains</text>
</a>
</g>
</g>
<!-- Node15&#45;&gt;Node16 -->
<g id="edge2" class="edge">
<title>Node15&#45;&gt;Node16</title>
<path fill="none" stroke="#191970" d="M267.8659,-77.9151C298.7384,-85.2806 341.6933,-95.5288 374.8906,-103.4489"/>
<polygon fill="#191970" stroke="#191970" points="374.3165,-106.9101 384.8558,-105.8264 375.9411,-100.1012 374.3165,-106.9101"/>
</g>
<!-- Node17 -->
<g id="node4" class="node">
<title>Node17</title>
<g id="a_node4"><a xlink:href="../../db/d0c/_n_f_expression_8c.html#aba9c2c3ba16ba96b1a893db8c41eb80b" target="_top" xlink:title="omc_NFExpression_contains">
<polygon fill="#ffffff" stroke="#000000" points="541,-81.904 541,-100.904 686,-100.904 686,-81.904 541,-81.904"/>
<text text-anchor="middle" x="613.5" y="-88.904" font-family="Helvetica,sans-Serif" font-size="10.00" fill="#000000">omc_NFExpression_contains</text>
</a>
</g>
</g>
<!-- Node15&#45;&gt;Node17 -->
<g id="edge16" class="edge">
<title>Node15&#45;&gt;Node17</title>
<path fill="none" stroke="#191970" d="M309.2836,-67.6283C375.229,-70.0546 467.6964,-75.58 533.3385,-81.0219"/>
<polygon fill="#191970" stroke="#191970" points="533.3754,-84.5375 543.6352,-81.8941 533.9663,-77.5625 533.3754,-84.5375"/>
</g>
<!-- Node16&#45;&gt;Node17 -->
<g id="edge3" class="edge">
<title>Node16&#45;&gt;Node17</title>
<path fill="none" stroke="#191970" d="M458.2661,-105.877C478.4204,-102.1698 505.0946,-98.3021 530.6367,-95.2482"/>
<polygon fill="#191970" stroke="#191970" points="531.2005,-98.7063 540.7305,-94.0773 530.3938,-91.753 531.2005,-98.7063"/>
</g>
<!-- Node17&#45;&gt;Node15 -->
<g id="edge12" class="edge">
<title>Node17&#45;&gt;Node15</title>
<path fill="none" stroke="#191970" d="M540.9356,-92.4874C474.6215,-90.2495 376.7259,-84.4708 308.1346,-78.7838"/>
<polygon fill="#191970" stroke="#191970" points="308.0709,-75.2659 297.8111,-77.9092 307.48,-82.2409 308.0709,-75.2659"/>
</g>
<!-- Node17&#45;&gt;Node16 -->
<g id="edge8" class="edge">
<title>Node17&#45;&gt;Node16</title>
<path fill="none" stroke="#191970" d="M580.0384,-100.9668C561.8931,-104.2985 538.5049,-107.7572 515.4232,-110.6362"/>
<polygon fill="#191970" stroke="#191970" points="514.7203,-107.1958 505.2143,-111.874 515.5629,-114.1449 514.7203,-107.1958"/>
</g>
<!-- Node17&#45;&gt;Node17 -->
<g id="edge9" class="edge">
<title>Node17&#45;&gt;Node17</title>
<path fill="none" stroke="#191970" d="M584.5237,-101.161C570.4272,-109.9692 580.0859,-119.404 613.5,-119.404 636.4722,-119.404 648.2162,-114.9446 648.7322,-109.2952"/>
<polygon fill="#191970" stroke="#191970" points="651.3471,-106.9541 642.4763,-101.161 645.7983,-111.2216 651.3471,-106.9541"/>
</g>
<!-- Node18 -->
<g id="node5" class="node">
<title>Node18</title>
<g id="a_node5"><a xlink:href="../../db/d0c/_n_f_expression_8c.html#ad3cb61eb3b5df454c74f9ba4e001216b" target="_top" xlink:title="omc_NFExpression_crefContains">
<polygon fill="#ffffff" stroke="#000000" points="725,-138.904 725,-157.904 889,-157.904 889,-138.904 725,-138.904"/>
<text text-anchor="middle" x="807" y="-145.904" font-family="Helvetica,sans-Serif" font-size="10.00" fill="#000000">omc_NFExpression_crefContains</text>
</a>
</g>
</g>
<!-- Node17&#45;&gt;Node18 -->
<g id="edge4" class="edge">
<title>Node17&#45;&gt;Node18</title>
<path fill="none" stroke="#191970" d="M638.2289,-100.995C660.0496,-109.2336 692.8309,-121.0669 722,-129.404 730.8619,-131.9369 740.3225,-134.3408 749.5944,-136.5334"/>
<polygon fill="#191970" stroke="#191970" points="749.0134,-139.9912 759.5439,-138.826 750.5851,-133.1699 749.0134,-139.9912"/>
</g>
<!-- Node20 -->
<g id="node7" class="node">
<title>Node20</title>
<g id="a_node7"><a xlink:href="../../db/d0c/_n_f_expression_8c.html#adcd929f515dcc1754d189f9a8adbaa8b" target="_top" xlink:title="omc_NFExpression_containsOpt">
<polygon fill="#ffffff" stroke="#000000" points="726.5,-100.904 726.5,-119.904 887.5,-119.904 887.5,-100.904 726.5,-100.904"/>
<text text-anchor="middle" x="807" y="-107.904" font-family="Helvetica,sans-Serif" font-size="10.00" fill="#000000">omc_NFExpression_containsOpt</text>
</a>
</g>
</g>
<!-- Node17&#45;&gt;Node20 -->
<g id="edge10" class="edge">
<title>Node17&#45;&gt;Node20</title>
<path fill="none" stroke="#191970" d="M686.1028,-91.9734C709.71,-93.9118 735.3664,-96.6189 756.9457,-99.493"/>
<polygon fill="#191970" stroke="#191970" points="756.4812,-102.962 766.8672,-100.8687 757.4427,-96.0283 756.4812,-102.962"/>
</g>
<!-- Node21 -->
<g id="node8" class="node">
<title>Node21</title>
<g id="a_node8"><a xlink:href="../../d0/d93/_n_f_subscript_8c.html#a97e94194e1278b91335b554bc36fb204" target="_top" xlink:title="omc_NFSubscript_listContainsExp">
<polygon fill="#ffffff" stroke="#000000" points="722,-24.904 722,-43.904 892,-43.904 892,-24.904 722,-24.904"/>
<text text-anchor="middle" x="807" y="-31.904" font-family="Helvetica,sans-Serif" font-size="10.00" fill="#000000">omc_NFSubscript_listContainsExp</text>
</a>
</g>
</g>
<!-- Node17&#45;&gt;Node21 -->
<g id="edge13" class="edge">
<title>Node17&#45;&gt;Node21</title>
<path fill="none" stroke="#191970" d="M644.3176,-81.851C666.0077,-75.1715 695.7383,-66.1044 722,-58.404 735.2499,-54.5189 749.6952,-50.3975 762.8556,-46.6868"/>
<polygon fill="#191970" stroke="#191970" points="763.9482,-50.0154 772.628,-43.9399 762.0539,-43.2765 763.9482,-50.0154"/>
</g>
<!-- Node18&#45;&gt;Node18 -->
<g id="edge7" class="edge">
<title>Node18&#45;&gt;Node18</title>
<path fill="none" stroke="#191970" d="M777.4072,-158.161C763.0107,-166.9692 772.875,-176.404 807,-176.404 830.9941,-176.404 842.9941,-171.7396 843,-165.9082"/>
<polygon fill="#191970" stroke="#191970" points="845.6631,-163.6365 836.5928,-158.161 840.2689,-168.0977 845.6631,-163.6365"/>
</g>
<!-- Node19 -->
<g id="node6" class="node">
<title>Node19</title>
<g id="a_node6"><a xlink:href="../../db/d0c/_n_f_expression_8c.html#a9453df6752cbb0843578027324a29014" target="_top" xlink:title="omc_NFExpression_subscripts\lContains">
<polygon fill="#ffffff" stroke="#000000" points="929,-68.404 929,-98.404 1082,-98.404 1082,-68.404 929,-68.404"/>
<text text-anchor="start" x="937" y="-86.404" font-family="Helvetica,sans-Serif" font-size="10.00" fill="#000000">omc_NFExpression_subscripts</text>
<text text-anchor="middle" x="1005.5" y="-75.404" font-family="Helvetica,sans-Serif" font-size="10.00" fill="#000000">Contains</text>
</a>
</g>
</g>
<!-- Node18&#45;&gt;Node19 -->
<g id="edge5" class="edge">
<title>Node18&#45;&gt;Node19</title>
<path fill="none" stroke="#191970" d="M856.3583,-138.8188C868.1368,-136.1341 880.5967,-132.9625 892,-129.404 915.9371,-121.9341 941.9079,-111.584 962.9582,-102.5927"/>
<polygon fill="#191970" stroke="#191970" points="964.4684,-105.753 972.2588,-98.5725 961.6909,-99.3276 964.4684,-105.753"/>
</g>
<!-- Node19&#45;&gt;Node17 -->
<g id="edge6" class="edge">
<title>Node19&#45;&gt;Node17</title>
<path fill="none" stroke="#191970" d="M928.7227,-84.9708C861.9075,-86.3344 765.2826,-88.3064 696.6535,-89.707"/>
<polygon fill="#191970" stroke="#191970" points="696.24,-86.2146 686.3135,-89.918 696.3829,-93.2131 696.24,-86.2146"/>
</g>
<!-- Node20&#45;&gt;Node17 -->
<g id="edge11" class="edge">
<title>Node20&#45;&gt;Node17</title>
<path fill="none" stroke="#191970" d="M726.2479,-109.1421C704.994,-107.2767 682.6806,-104.8621 663.5652,-102.3164"/>
<polygon fill="#191970" stroke="#191970" points="663.9793,-98.8404 653.5933,-100.9335 663.0177,-105.774 663.9793,-98.8404"/>
</g>
<!-- Node22 -->
<g id="node9" class="node">
<title>Node22</title>
<g id="a_node9"><a xlink:href="../../d0/d93/_n_f_subscript_8c.html#a1f7c5576c4260dd9851a32ce87cab499" target="_top" xlink:title="omc_NFSubscript_containsExp">
<polygon fill="#ffffff" stroke="#000000" points="928,-13.904 928,-32.904 1083,-32.904 1083,-13.904 928,-13.904"/>
<text text-anchor="middle" x="1005.5" y="-20.904" font-family="Helvetica,sans-Serif" font-size="10.00" fill="#000000">omc_NFSubscript_containsExp</text>
</a>
</g>
</g>
<!-- Node21&#45;&gt;Node22 -->
<g id="edge14" class="edge">
<title>Node21&#45;&gt;Node22</title>
<path fill="none" stroke="#191970" d="M892.0457,-29.6911C900.5921,-29.2175 909.282,-28.7359 917.8548,-28.2609"/>
<polygon fill="#191970" stroke="#191970" points="918.0581,-31.7551 927.8491,-27.707 917.6707,-24.7658 918.0581,-31.7551"/>
</g>
<!-- Node22&#45;&gt;Node17 -->
<g id="edge15" class="edge">
<title>Node22&#45;&gt;Node17</title>
<path fill="none" stroke="#191970" d="M963.4786,-13.818C907.067,-2.8172 804.4116,10.588 722,-15.404 685.1805,-27.0166 649.9941,-56.0796 630.1316,-74.7135"/>
<polygon fill="#191970" stroke="#191970" points="627.6028,-72.2896 622.8302,-81.7486 632.4599,-77.3304 627.6028,-72.2896"/>
</g>
</g>
</svg>
