<?xml version="1.0" encoding="UTF-8" standalone="no"?>
<!DOCTYPE svg PUBLIC "-//W3C//DTD SVG 1.1//EN"
 "http://www.w3.org/Graphics/SVG/1.1/DTD/svg11.dtd">
<!-- Generated by graphviz version 2.40.1 (20161225.0304)
 -->
<!-- Title: boxptr_NFExpression_promote Pages: 1 -->
<svg width="659pt" height="88pt"
 viewBox="0.00 0.00 659.00 88.00" xmlns="http://www.w3.org/2000/svg" xmlns:xlink="http://www.w3.org/1999/xlink">
<g id="graph0" class="graph" transform="scale(1 1) rotate(0) translate(4 84)">
<title>boxptr_NFExpression_promote</title>
<polygon fill="#ffffff" stroke="transparent" points="-4,4 -4,-84 655,-84 655,4 -4,4"/>
<!-- Node353 -->
<g id="node1" class="node">
<title>Node353</title>
<polygon fill="#bfbfbf" stroke="#000000" points="0,-14 0,-44 111,-44 111,-14 0,-14"/>
<text text-anchor="start" x="8" y="-32" font-family="Helvetica,sans-Serif" font-size="10.00" fill="#000000">boxptr_NFExpression</text>
<text text-anchor="middle" x="55.5" y="-21" font-family="Helvetica,sans-Serif" font-size="10.00" fill="#000000">_promote</text>
</g>
<!-- Node354 -->
<g id="node2" class="node">
<title>Node354</title>
<g id="a_node2"><a xlink:href="../../db/d0c/_n_f_expression_8c.html#a8d886482501474236f366ffd4c65e644" target="_top" xlink:title="omc_NFExpression_promote">
<polygon fill="#ffffff" stroke="#000000" points="147,-19.5 147,-38.5 290,-38.5 290,-19.5 147,-19.5"/>
<text text-anchor="middle" x="218.5" y="-26.5" font-family="Helvetica,sans-Serif" font-size="10.00" fill="#000000">omc_NFExpression_promote</text>
</a>
</g>
</g>
<!-- Node353&#45;&gt;Node354 -->
<g id="edge1" class="edge">
<title>Node353&#45;&gt;Node354</title>
<path fill="none" stroke="#191970" d="M111.1395,-29C119.4254,-29 128.1092,-29 136.7961,-29"/>
<polygon fill="#191970" stroke="#191970" points="136.9716,-32.5001 146.9715,-29 136.9715,-25.5001 136.9716,-32.5001"/>
</g>
<!-- Node355 -->
<g id="node3" class="node">
<title>Node355</title>
<g id="a_node3"><a xlink:href="../../d4/dc3/_n_f_type_8c.html#a2914885cd4dd1b244067729718e343f3" target="_top" xlink:title="omc_NFType_dimensionCount">
<polygon fill="#ffffff" stroke="#000000" points="327.5,-38.5 327.5,-57.5 479.5,-57.5 479.5,-38.5 327.5,-38.5"/>
<text text-anchor="middle" x="403.5" y="-45.5" font-family="Helvetica,sans-Serif" font-size="10.00" fill="#000000">omc_NFType_dimensionCount</text>
</a>
</g>
</g>
<!-- Node354&#45;&gt;Node355 -->
<g id="edge2" class="edge">
<title>Node354&#45;&gt;Node355</title>
<path fill="none" stroke="#191970" d="M290.0258,-36.3459C298.8909,-37.2564 308.0272,-38.1947 317.0854,-39.125"/>
<polygon fill="#191970" stroke="#191970" points="316.9552,-42.6299 327.2605,-40.17 317.6704,-35.6666 316.9552,-42.6299"/>
</g>
<!-- Node358 -->
<g id="node6" class="node">
<title>Node358</title>
<g id="a_node6"><a xlink:href="../../d0/d8b/_n_f_dimension_8c.html#ad925557d27693bf70a628f4915bfc3b3" target="_top" xlink:title="omc_NFDimension_fromInteger">
<polygon fill="#ffffff" stroke="#000000" points="326,-.5 326,-19.5 481,-19.5 481,-.5 326,-.5"/>
<text text-anchor="middle" x="403.5" y="-7.5" font-family="Helvetica,sans-Serif" font-size="10.00" fill="#000000">omc_NFDimension_fromInteger</text>
</a>
</g>
</g>
<!-- Node354&#45;&gt;Node358 -->
<g id="edge5" class="edge">
<title>Node354&#45;&gt;Node358</title>
<path fill="none" stroke="#191970" d="M290.0258,-21.6541C298.4301,-20.791 307.0783,-19.9028 315.6725,-19.0201"/>
<polygon fill="#191970" stroke="#191970" points="316.1287,-22.4918 325.7187,-17.9883 315.4135,-15.5284 316.1287,-22.4918"/>
</g>
<!-- Node356 -->
<g id="node4" class="node">
<title>Node356</title>
<g id="a_node4"><a xlink:href="../../d2/d57/build_2include_2omc_2c_2meta_2meta__modelica__builtin_8h.html#a6983369f3c3e3e8cc41ac483c9a9baf1" target="_top" xlink:title="listLength">
<polygon fill="#ffffff" stroke="#000000" points="554.5,-60.5 554.5,-79.5 613.5,-79.5 613.5,-60.5 554.5,-60.5"/>
<text text-anchor="middle" x="584" y="-67.5" font-family="Helvetica,sans-Serif" font-size="10.00" fill="#000000">listLength</text>
</a>
</g>
</g>
<!-- Node355&#45;&gt;Node356 -->
<g id="edge3" class="edge">
<title>Node355&#45;&gt;Node356</title>
<path fill="none" stroke="#191970" d="M479.5251,-57.2662C501.7992,-59.9811 525.2591,-62.8404 544.2926,-65.1603"/>
<polygon fill="#191970" stroke="#191970" points="544.0257,-68.6536 554.3757,-66.3893 544.8727,-61.705 544.0257,-68.6536"/>
</g>
<!-- Node357 -->
<g id="node5" class="node">
<title>Node357</title>
<g id="a_node5"><a xlink:href="../../d0/d18/_n_f_function_8c.html#aae69cc226b1a0aa4a0b10d706367e116" target="_top" xlink:title="omc_NFFunction_Function\l_returnType">
<polygon fill="#ffffff" stroke="#000000" points="517,-11 517,-41 651,-41 651,-11 517,-11"/>
<text text-anchor="start" x="525" y="-29" font-family="Helvetica,sans-Serif" font-size="10.00" fill="#000000">omc_NFFunction_Function</text>
<text text-anchor="middle" x="584" y="-18" font-family="Helvetica,sans-Serif" font-size="10.00" fill="#000000">_returnType</text>
</a>
</g>
</g>
<!-- Node355&#45;&gt;Node357 -->
<g id="edge4" class="edge">
<title>Node355&#45;&gt;Node357</title>
<path fill="none" stroke="#191970" d="M479.5251,-38.7338C488.5553,-37.6331 497.7805,-36.5088 506.8265,-35.4062"/>
<polygon fill="#191970" stroke="#191970" points="507.4407,-38.8573 516.9438,-34.1731 506.5938,-31.9087 507.4407,-38.8573"/>
</g>
</g>
</svg>
