<?xml version="1.0" encoding="UTF-8" standalone="no"?>
<!DOCTYPE svg PUBLIC "-//W3C//DTD SVG 1.1//EN"
 "http://www.w3.org/Graphics/SVG/1.1/DTD/svg11.dtd">
<!-- Generated by graphviz version 2.40.1 (20161225.0304)
 -->
<!-- Title: omc_NFExpression_makeMutable Pages: 1 -->
<svg width="341pt" height="88pt"
 viewBox="0.00 0.00 341.00 88.00" xmlns="http://www.w3.org/2000/svg" xmlns:xlink="http://www.w3.org/1999/xlink">
<g id="graph0" class="graph" transform="scale(1 1) rotate(0) translate(4 84)">
<title>omc_NFExpression_makeMutable</title>
<polygon fill="#ffffff" stroke="transparent" points="-4,4 -4,-84 337,-84 337,4 -4,4"/>
<!-- Node3330 -->
<g id="node1" class="node">
<title>Node3330</title>
<polygon fill="#bfbfbf" stroke="#000000" points="0,-30 0,-49 167,-49 167,-30 0,-30"/>
<text text-anchor="middle" x="83.5" y="-37" font-family="Helvetica,sans-Serif" font-size="10.00" fill="#000000">omc_NFExpression_makeMutable</text>
</g>
<!-- Node3331 -->
<g id="node2" class="node">
<title>Node3331</title>
<g id="a_node2"><a xlink:href="../../da/d0e/_n_f_eval_function_8c.html#a04a0a4abc20fc61f471d6311e7e1c565" target="_top" xlink:title="omc_NFEvalFunction\l_optimizeStatement">
<polygon fill="#ffffff" stroke="#000000" points="212.5,-49.5 212.5,-79.5 323.5,-79.5 323.5,-49.5 212.5,-49.5"/>
<text text-anchor="start" x="220.5" y="-67.5" font-family="Helvetica,sans-Serif" font-size="10.00" fill="#000000">omc_NFEvalFunction</text>
<text text-anchor="middle" x="268" y="-56.5" font-family="Helvetica,sans-Serif" font-size="10.00" fill="#000000">_optimizeStatement</text>
</a>
</g>
</g>
<!-- Node3330&#45;&gt;Node3331 -->
<g id="edge1" class="edge">
<title>Node3330&#45;&gt;Node3331</title>
<path fill="none" stroke="#191970" d="M163.8572,-50.3885C180.1801,-52.6003 197.0081,-54.8805 212.2509,-56.9459"/>
<polygon fill="#191970" stroke="#191970" points="164.1573,-46.8973 153.7779,-49.0227 163.2173,-53.8339 164.1573,-46.8973"/>
</g>
<!-- Node3332 -->
<g id="node3" class="node">
<title>Node3332</title>
<g id="a_node3"><a xlink:href="../../da/d0e/_n_f_eval_function_8c.html#ab41b520ed87df774497dfcd500e66810" target="_top" xlink:title="omc_NFEvalFunction\l_addMutableReplacement">
<polygon fill="#ffffff" stroke="#000000" points="203,-.5 203,-30.5 333,-30.5 333,-.5 203,-.5"/>
<text text-anchor="start" x="211" y="-18.5" font-family="Helvetica,sans-Serif" font-size="10.00" fill="#000000">omc_NFEvalFunction</text>
<text text-anchor="middle" x="268" y="-7.5" font-family="Helvetica,sans-Serif" font-size="10.00" fill="#000000">_addMutableReplacement</text>
</a>
</g>
</g>
<!-- Node3330&#45;&gt;Node3332 -->
<g id="edge2" class="edge">
<title>Node3330&#45;&gt;Node3332</title>
<path fill="none" stroke="#191970" d="M166.8062,-28.6634C178.9366,-27.0855 191.2752,-25.4805 202.9725,-23.9589"/>
<polygon fill="#191970" stroke="#191970" points="166.1492,-25.2193 156.6843,-29.9801 167.0522,-32.1608 166.1492,-25.2193"/>
</g>
</g>
</svg>
