<?xml version="1.0" encoding="UTF-8" standalone="no"?>
<!DOCTYPE svg PUBLIC "-//W3C//DTD SVG 1.1//EN"
 "http://www.w3.org/Graphics/SVG/1.1/DTD/svg11.dtd">
<!-- Generated by graphviz version 2.40.1 (20161225.0304)
 -->
<!-- Title: boxptr_NFExpression_isEqual Pages: 1 -->
<svg width="1399pt" height="625pt"
 viewBox="0.00 0.00 1399.00 625.22" xmlns="http://www.w3.org/2000/svg" xmlns:xlink="http://www.w3.org/1999/xlink">
<g id="graph0" class="graph" transform="scale(1 1) rotate(0) translate(4 621.2165)">
<title>boxptr_NFExpression_isEqual</title>
<polygon fill="#ffffff" stroke="transparent" points="-4,4 -4,-621.2165 1395,-621.2165 1395,4 -4,4"/>
<!-- Node222 -->
<g id="node1" class="node">
<title>Node222</title>
<polygon fill="#bfbfbf" stroke="#000000" points="0,-273 0,-303 111,-303 111,-273 0,-273"/>
<text text-anchor="start" x="8" y="-291" font-family="Helvetica,sans-Serif" font-size="10.00" fill="#000000">boxptr_NFExpression</text>
<text text-anchor="middle" x="55.5" y="-280" font-family="Helvetica,sans-Serif" font-size="10.00" fill="#000000">_isEqual</text>
</g>
<!-- Node223 -->
<g id="node2" class="node">
<title>Node223</title>
<g id="a_node2"><a xlink:href="../../db/d0c/_n_f_expression_8c.html#aa83916a8474577be18b1952b56ad8d23" target="_top" xlink:title="omc_NFExpression_isEqual">
<polygon fill="#ffffff" stroke="#000000" points="147,-278.5 147,-297.5 287,-297.5 287,-278.5 147,-278.5"/>
<text text-anchor="middle" x="217" y="-285.5" font-family="Helvetica,sans-Serif" font-size="10.00" fill="#000000">omc_NFExpression_isEqual</text>
</a>
</g>
</g>
<!-- Node222&#45;&gt;Node223 -->
<g id="edge1" class="edge">
<title>Node222&#45;&gt;Node223</title>
<path fill="none" stroke="#191970" d="M111.0791,-288C119.3423,-288 127.9962,-288 136.644,-288"/>
<polygon fill="#191970" stroke="#191970" points="136.7693,-291.5001 146.7693,-288 136.7693,-284.5001 136.7693,-291.5001"/>
</g>
<!-- Node224 -->
<g id="node3" class="node">
<title>Node224</title>
<g id="a_node3"><a xlink:href="../../db/d0c/_n_f_expression_8c.html#a29247005017021d1563c08df473367c4" target="_top" xlink:title="omc_NFExpression_compare">
<polygon fill="#ffffff" stroke="#000000" points="323,-278.5 323,-297.5 469,-297.5 469,-278.5 323,-278.5"/>
<text text-anchor="middle" x="396" y="-285.5" font-family="Helvetica,sans-Serif" font-size="10.00" fill="#000000">omc_NFExpression_compare</text>
</a>
</g>
</g>
<!-- Node223&#45;&gt;Node224 -->
<g id="edge2" class="edge">
<title>Node223&#45;&gt;Node224</title>
<path fill="none" stroke="#191970" d="M287.2318,-288C295.5181,-288 304.0357,-288 312.482,-288"/>
<polygon fill="#191970" stroke="#191970" points="312.7289,-291.5001 322.7288,-288 312.7288,-284.5001 312.7289,-291.5001"/>
</g>
<!-- Node224&#45;&gt;Node224 -->
<g id="edge25" class="edge">
<title>Node224&#45;&gt;Node224</title>
<path fill="none" stroke="#191970" d="M368.565,-297.7571C355.2183,-306.5653 364.3633,-316 396,-316 417.7502,-316 428.8696,-311.5406 429.3582,-305.8913"/>
<polygon fill="#191970" stroke="#191970" points="432.1509,-303.7806 423.435,-297.7571 426.4922,-307.9012 432.1509,-303.7806"/>
</g>
<!-- Node225 -->
<g id="node4" class="node">
<title>Node225</title>
<g id="a_node4"><a xlink:href="../../d9/d7c/_compiler_2boot_2build_2util_8c.html#a8c1b9eb65476185bd4d9073249caefa4" target="_top" xlink:title="omc_Util_intCompare">
<polygon fill="#ffffff" stroke="#000000" points="1280,-486.5 1280,-505.5 1391,-505.5 1391,-486.5 1280,-486.5"/>
<text text-anchor="middle" x="1335.5" y="-493.5" font-family="Helvetica,sans-Serif" font-size="10.00" fill="#000000">omc_Util_intCompare</text>
</a>
</g>
</g>
<!-- Node224&#45;&gt;Node225 -->
<g id="edge3" class="edge">
<title>Node224&#45;&gt;Node225</title>
<path fill="none" stroke="#191970" d="M420.9604,-297.5392C470.4608,-314.8375 583.407,-346.1391 666,-307 688.833,-296.1799 679.167,-273.8201 702,-263 813.8869,-209.9791 1178.0069,-265.9536 1244,-313 1300.3353,-353.1613 1323.9134,-438.1433 1331.9692,-476.4957"/>
<polygon fill="#191970" stroke="#191970" points="1328.5535,-477.2657 1333.9176,-486.4022 1335.4219,-475.9147 1328.5535,-477.2657"/>
</g>
<!-- Node226 -->
<g id="node5" class="node">
<title>Node226</title>
<g id="a_node5"><a xlink:href="../../d9/d7c/_compiler_2boot_2build_2util_8c.html#ad3153e4a426627a738650a4f34f9c2ce" target="_top" xlink:title="omc_Util_realCompare">
<polygon fill="#ffffff" stroke="#000000" points="527.5,-278.5 527.5,-297.5 643.5,-297.5 643.5,-278.5 527.5,-278.5"/>
<text text-anchor="middle" x="585.5" y="-285.5" font-family="Helvetica,sans-Serif" font-size="10.00" fill="#000000">omc_Util_realCompare</text>
</a>
</g>
</g>
<!-- Node224&#45;&gt;Node226 -->
<g id="edge4" class="edge">
<title>Node224&#45;&gt;Node226</title>
<path fill="none" stroke="#191970" d="M469.2656,-288C485.0714,-288 501.7191,-288 517.321,-288"/>
<polygon fill="#191970" stroke="#191970" points="517.4034,-291.5001 527.4033,-288 517.4033,-284.5001 517.4034,-291.5001"/>
</g>
<!-- Node227 -->
<g id="node6" class="node">
<title>Node227</title>
<g id="a_node6"><a xlink:href="../../d9/d7c/_compiler_2boot_2build_2util_8c.html#a6f55cec19f885ce4f99b4bfa140e48c0" target="_top" xlink:title="omc_Util_boolCompare">
<polygon fill="#ffffff" stroke="#000000" points="526,-240.5 526,-259.5 645,-259.5 645,-240.5 526,-240.5"/>
<text text-anchor="middle" x="585.5" y="-247.5" font-family="Helvetica,sans-Serif" font-size="10.00" fill="#000000">omc_Util_boolCompare</text>
</a>
</g>
</g>
<!-- Node224&#45;&gt;Node227 -->
<g id="edge5" class="edge">
<title>Node224&#45;&gt;Node227</title>
<path fill="none" stroke="#191970" d="M443.8189,-278.411C469.3886,-273.2835 501.059,-266.9328 527.9678,-261.5368"/>
<polygon fill="#191970" stroke="#191970" points="528.9084,-264.9179 538.025,-259.5201 527.532,-258.0546 528.9084,-264.9179"/>
</g>
<!-- Node228 -->
<g id="node7" class="node">
<title>Node228</title>
<g id="a_node7"><a xlink:href="../../d0/d78/_absyn_8c.html#a32967c17d7e54d1e80801db59aa80bb5" target="_top" xlink:title="omc_Absyn_pathCompare">
<polygon fill="#ffffff" stroke="#000000" points="718,-272.5 718,-291.5 850,-291.5 850,-272.5 718,-272.5"/>
<text text-anchor="middle" x="784" y="-279.5" font-family="Helvetica,sans-Serif" font-size="10.00" fill="#000000">omc_Absyn_pathCompare</text>
</a>
</g>
</g>
<!-- Node224&#45;&gt;Node228 -->
<g id="edge6" class="edge">
<title>Node224&#45;&gt;Node228</title>
<path fill="none" stroke="#191970" d="M410.7365,-297.6742C430.9859,-310.331 469.0088,-331.8546 505,-340 574.7906,-355.7946 600.4518,-368.699 666,-340 687.6087,-330.539 681.606,-312.8544 702,-301 705.8711,-298.7498 709.9903,-296.7661 714.2427,-295.0173"/>
<polygon fill="#191970" stroke="#191970" points="715.5302,-298.2732 723.7201,-291.5519 713.1263,-291.6989 715.5302,-298.2732"/>
</g>
<!-- Node229 -->
<g id="node8" class="node">
<title>Node229</title>
<g id="a_node8"><a xlink:href="../../d4/dc3/_n_f_type_8c.html#a4ab0aa4e9194285825c06c70aaa1ad0b" target="_top" xlink:title="omc_NFType_enumName">
<polygon fill="#ffffff" stroke="#000000" points="520,-202.5 520,-221.5 651,-221.5 651,-202.5 520,-202.5"/>
<text text-anchor="middle" x="585.5" y="-209.5" font-family="Helvetica,sans-Serif" font-size="10.00" fill="#000000">omc_NFType_enumName</text>
</a>
</g>
</g>
<!-- Node224&#45;&gt;Node229 -->
<g id="edge7" class="edge">
<title>Node224&#45;&gt;Node229</title>
<path fill="none" stroke="#191970" d="M411.3144,-278.4121C431.9049,-265.8963 469.9827,-244.053 505,-231 511.8454,-228.4483 519.1492,-226.1604 526.459,-224.1323"/>
<polygon fill="#191970" stroke="#191970" points="527.6036,-227.4505 536.388,-221.5273 525.8271,-220.6797 527.6036,-227.4505"/>
</g>
<!-- Node230 -->
<g id="node9" class="node">
<title>Node230</title>
<g id="a_node9"><a xlink:href="../../db/d0c/_n_f_expression_8c.html#ac35259fe4fa86d750fd03cfa24d8d567" target="_top" xlink:title="omc_NFExpression_ClockKind\l_compare">
<polygon fill="#ffffff" stroke="#000000" points="509,-153 509,-183 662,-183 662,-153 509,-153"/>
<text text-anchor="start" x="517" y="-171" font-family="Helvetica,sans-Serif" font-size="10.00" fill="#000000">omc_NFExpression_ClockKind</text>
<text text-anchor="middle" x="585.5" y="-160" font-family="Helvetica,sans-Serif" font-size="10.00" fill="#000000">_compare</text>
</a>
</g>
</g>
<!-- Node224&#45;&gt;Node230 -->
<g id="edge8" class="edge">
<title>Node224&#45;&gt;Node230</title>
<path fill="none" stroke="#191970" d="M400.8345,-278.3566C414.2732,-258.4004 453.9296,-215.1607 500.1893,-186.9894"/>
<polygon fill="#191970" stroke="#191970" points="502.0214,-189.9727 508.899,-181.9136 498.4968,-183.9248 502.0214,-189.9727"/>
</g>
<!-- Node231 -->
<g id="node10" class="node">
<title>Node231</title>
<g id="a_node10"><a xlink:href="../../df/d26/_n_f_component_ref_8c.html#ab1971c29e5423e2686c708b0fbba97c3" target="_top" xlink:title="omc_NFComponentRef\l_compare">
<polygon fill="#ffffff" stroke="#000000" points="724,-437 724,-467 844,-467 844,-437 724,-437"/>
<text text-anchor="start" x="732" y="-455" font-family="Helvetica,sans-Serif" font-size="10.00" fill="#000000">omc_NFComponentRef</text>
<text text-anchor="middle" x="784" y="-444" font-family="Helvetica,sans-Serif" font-size="10.00" fill="#000000">_compare</text>
</a>
</g>
</g>
<!-- Node224&#45;&gt;Node231 -->
<g id="edge10" class="edge">
<title>Node224&#45;&gt;Node231</title>
<path fill="none" stroke="#191970" d="M400.4824,-297.5115C412.9434,-322.7526 450.692,-391.5108 505,-421 569.475,-456.0099 654.6001,-460.5645 713.793,-458.3758"/>
<polygon fill="#191970" stroke="#191970" points="713.9614,-461.8719 723.7968,-457.9328 713.6517,-454.8787 713.9614,-461.8719"/>
</g>
<!-- Node235 -->
<g id="node14" class="node">
<title>Node235</title>
<g id="a_node14"><a xlink:href="../../d0/d93/_n_f_subscript_8c.html#a81da3d5c6f8994b7d853ba100a761cf8" target="_top" xlink:title="omc_NFSubscript_compareList">
<polygon fill="#ffffff" stroke="#000000" points="909,-486.5 909,-505.5 1063,-505.5 1063,-486.5 909,-486.5"/>
<text text-anchor="middle" x="986" y="-493.5" font-family="Helvetica,sans-Serif" font-size="10.00" fill="#000000">omc_NFSubscript_compareList</text>
</a>
</g>
</g>
<!-- Node224&#45;&gt;Node235 -->
<g id="edge37" class="edge">
<title>Node224&#45;&gt;Node235</title>
<path fill="none" stroke="#191970" d="M397.6334,-297.7461C403.9913,-332.2818 430.5305,-449.4073 505,-499 645.5715,-592.613 864.2367,-536.4434 949.8733,-508.7252"/>
<polygon fill="#191970" stroke="#191970" points="951.0081,-512.0364 959.4066,-505.5777 948.8134,-505.3893 951.0081,-512.0364"/>
</g>
<!-- Node238 -->
<g id="node17" class="node">
<title>Node238</title>
<g id="a_node17"><a xlink:href="../../dc/dd0/build_2include_2omc_2c_2meta_2meta__modelica_8h.html#af129ecd241889f9515fe7ae33e186ea5" target="_top" xlink:title="valueCompare">
<polygon fill="#ffffff" stroke="#000000" points="545.5,-114.5 545.5,-133.5 625.5,-133.5 625.5,-114.5 545.5,-114.5"/>
<text text-anchor="middle" x="585.5" y="-121.5" font-family="Helvetica,sans-Serif" font-size="10.00" fill="#000000">valueCompare</text>
</a>
</g>
</g>
<!-- Node224&#45;&gt;Node238 -->
<g id="edge20" class="edge">
<title>Node224&#45;&gt;Node238</title>
<path fill="none" stroke="#191970" d="M400.2763,-278.399C412.482,-252.1638 450.1707,-178.8432 505,-143 514.0173,-137.1052 524.6631,-133.0336 535.2084,-130.223"/>
<polygon fill="#191970" stroke="#191970" points="536.2821,-133.5669 545.2316,-127.8962 534.6992,-126.7482 536.2821,-133.5669"/>
</g>
<!-- Node239 -->
<g id="node18" class="node">
<title>Node239</title>
<g id="a_node18"><a xlink:href="../../db/d0c/_n_f_expression_8c.html#a694a0bc940c6a309f760e7f97a20ee60" target="_top" xlink:title="omc_NFExpression_compareList">
<polygon fill="#ffffff" stroke="#000000" points="703.5,-486.5 703.5,-505.5 864.5,-505.5 864.5,-486.5 703.5,-486.5"/>
<text text-anchor="middle" x="784" y="-493.5" font-family="Helvetica,sans-Serif" font-size="10.00" fill="#000000">omc_NFExpression_compareList</text>
</a>
</g>
</g>
<!-- Node224&#45;&gt;Node239 -->
<g id="edge21" class="edge">
<title>Node224&#45;&gt;Node239</title>
<path fill="none" stroke="#191970" d="M400.8508,-297.8754C412.7291,-326.6075 446.6422,-407.6277 505,-445 560.646,-480.6357 635.1193,-490.3772 693.1257,-492.9362"/>
<polygon fill="#191970" stroke="#191970" points="693.2634,-496.4438 703.3883,-493.3235 693.5274,-489.4488 693.2634,-496.4438"/>
</g>
<!-- Node240 -->
<g id="node19" class="node">
<title>Node240</title>
<g id="a_node19"><a xlink:href="../../db/d0c/_n_f_expression_8c.html#adf54cd48cf92e77cd27777920e162f63" target="_top" xlink:title="omc_NFExpression_compareOpt">
<polygon fill="#ffffff" stroke="#000000" points="505,-76.5 505,-95.5 666,-95.5 666,-76.5 505,-76.5"/>
<text text-anchor="middle" x="585.5" y="-83.5" font-family="Helvetica,sans-Serif" font-size="10.00" fill="#000000">omc_NFExpression_compareOpt</text>
</a>
</g>
</g>
<!-- Node224&#45;&gt;Node240 -->
<g id="edge26" class="edge">
<title>Node224&#45;&gt;Node240</title>
<path fill="none" stroke="#191970" d="M397.8594,-278.1736C405.4226,-246.9317 436.4011,-152.517 497.3615,-101.9814"/>
<polygon fill="#191970" stroke="#191970" points="499.6196,-104.6589 505.3484,-95.7464 495.3121,-99.1411 499.6196,-104.6589"/>
</g>
<!-- Node241 -->
<g id="node20" class="node">
<title>Node241</title>
<g id="a_node20"><a xlink:href="../../d9/dd8/_n_f_call_8c.html#a9ff815f0303d2d7b5237a383ddaca009" target="_top" xlink:title="omc_NFCall_Call_compare">
<polygon fill="#ffffff" stroke="#000000" points="517,-392.5 517,-411.5 654,-411.5 654,-392.5 517,-392.5"/>
<text text-anchor="middle" x="585.5" y="-399.5" font-family="Helvetica,sans-Serif" font-size="10.00" fill="#000000">omc_NFCall_Call_compare</text>
</a>
</g>
</g>
<!-- Node224&#45;&gt;Node241 -->
<g id="edge28" class="edge">
<title>Node224&#45;&gt;Node241</title>
<path fill="none" stroke="#191970" d="M404.9619,-297.6194C422.4782,-315.8756 463.2092,-355.7105 505,-378 513.4997,-382.5334 522.9727,-386.3252 532.3507,-389.4563"/>
<polygon fill="#191970" stroke="#191970" points="531.4557,-392.8434 542.0444,-392.4834 533.5423,-386.1616 531.4557,-392.8434"/>
</g>
<!-- Node245 -->
<g id="node24" class="node">
<title>Node245</title>
<g id="a_node24"><a xlink:href="../../dc/d36/_n_f_operator_8c.html#a757cf6e05d51c93a65e41c21b982f897" target="_top" xlink:title="omc_NFOperator_compare">
<polygon fill="#ffffff" stroke="#000000" points="919,-590.5 919,-609.5 1053,-609.5 1053,-590.5 919,-590.5"/>
<text text-anchor="middle" x="986" y="-597.5" font-family="Helvetica,sans-Serif" font-size="10.00" fill="#000000">omc_NFOperator_compare</text>
</a>
</g>
</g>
<!-- Node224&#45;&gt;Node245 -->
<g id="edge35" class="edge">
<title>Node224&#45;&gt;Node245</title>
<path fill="none" stroke="#191970" d="M396.9357,-297.6884C401.1542,-335.5716 421.9901,-474.6512 505,-537 626.0946,-627.9543 814.4011,-622.2145 915.7446,-610.7452"/>
<polygon fill="#191970" stroke="#191970" points="916.3526,-614.1977 925.872,-609.5469 915.53,-607.2462 916.3526,-614.1977"/>
</g>
<!-- Node246 -->
<g id="node25" class="node">
<title>Node246</title>
<g id="a_node25"><a xlink:href="../../d8/de3/_mutable_8c.html#a4d9367043438a5c1a24d17f1f9559996" target="_top" xlink:title="omc_Mutable_access">
<polygon fill="#ffffff" stroke="#000000" points="529.5,-38.5 529.5,-57.5 641.5,-57.5 641.5,-38.5 529.5,-38.5"/>
<text text-anchor="middle" x="585.5" y="-45.5" font-family="Helvetica,sans-Serif" font-size="10.00" fill="#000000">omc_Mutable_access</text>
</a>
</g>
</g>
<!-- Node224&#45;&gt;Node246 -->
<g id="edge38" class="edge">
<title>Node224&#45;&gt;Node246</title>
<path fill="none" stroke="#191970" d="M397.7608,-278.2004C404.5488,-243.4066 432.3605,-124.8081 505,-67 509.4241,-63.4792 514.3917,-60.5919 519.6309,-58.2267"/>
<polygon fill="#191970" stroke="#191970" points="521.2194,-61.3657 529.2961,-54.5088 518.7062,-54.8324 521.2194,-61.3657"/>
</g>
<!-- Node247 -->
<g id="node26" class="node">
<title>Node247</title>
<g id="a_node26"><a xlink:href="../../db/da1/_compiler_2boot_2build_2error_8c.html#a202663346d8015c6413dbcc62dff1933" target="_top" xlink:title="omc_Error_assertion">
<polygon fill="#ffffff" stroke="#000000" points="532,-.5 532,-19.5 639,-19.5 639,-.5 532,-.5"/>
<text text-anchor="middle" x="585.5" y="-7.5" font-family="Helvetica,sans-Serif" font-size="10.00" fill="#000000">omc_Error_assertion</text>
</a>
</g>
</g>
<!-- Node224&#45;&gt;Node247 -->
<g id="edge39" class="edge">
<title>Node224&#45;&gt;Node247</title>
<path fill="none" stroke="#191970" d="M396.9689,-278.4476C401.3567,-240.4164 422.8719,-98.473 505,-29 510.1562,-24.6383 516.1348,-21.238 522.4597,-18.593"/>
<polygon fill="#191970" stroke="#191970" points="523.6663,-21.8787 531.9186,-15.2342 521.3239,-15.2823 523.6663,-21.8787"/>
</g>
<!-- Node230&#45;&gt;Node224 -->
<g id="edge9" class="edge">
<title>Node230&#45;&gt;Node224</title>
<path fill="none" stroke="#191970" d="M552.5137,-183.1184C537.4331,-187.9212 519.6959,-193.7991 505,-202 470.9416,-221.0061 438.0734,-251.9363 417.4967,-271.3029"/>
<polygon fill="#191970" stroke="#191970" points="414.8814,-268.9571 409.9782,-278.3491 419.6681,-274.0647 414.8814,-268.9571"/>
</g>
<!-- Node232 -->
<g id="node11" class="node">
<title>Node232</title>
<g id="a_node11"><a xlink:href="../../d7/d21/_n_f_inst_node_8c.html#a0448a520b8f4a2cf341ecde6c2f2fd93" target="_top" xlink:title="omc_NFInstNode_InstNode_name">
<polygon fill="#ffffff" stroke="#000000" points="902,-366.5 902,-385.5 1070,-385.5 1070,-366.5 902,-366.5"/>
<text text-anchor="middle" x="986" y="-373.5" font-family="Helvetica,sans-Serif" font-size="10.00" fill="#000000">omc_NFInstNode_InstNode_name</text>
</a>
</g>
</g>
<!-- Node231&#45;&gt;Node232 -->
<g id="edge11" class="edge">
<title>Node231&#45;&gt;Node232</title>
<path fill="none" stroke="#191970" d="M839.771,-436.91C848.6708,-433.9579 857.681,-430.6355 866,-427 882.9733,-419.5825 885.2061,-413.8151 902,-406 915.7831,-399.586 931.348,-393.6795 945.3012,-388.8346"/>
<polygon fill="#191970" stroke="#191970" points="946.7817,-392.0284 955.128,-385.5022 944.5336,-385.3991 946.7817,-392.0284"/>
</g>
<!-- Node231&#45;&gt;Node235 -->
<g id="edge14" class="edge">
<title>Node231&#45;&gt;Node235</title>
<path fill="none" stroke="#191970" d="M844.0597,-465.0823C872.006,-471.1696 904.9861,-478.3534 932.1189,-484.2635"/>
<polygon fill="#191970" stroke="#191970" points="931.693,-487.7528 942.2089,-486.4613 933.1829,-480.9131 931.693,-487.7528"/>
</g>
<!-- Node233 -->
<g id="node12" class="node">
<title>Node233</title>
<g id="a_node12"><a xlink:href="../../d7/deb/build_2include_2omc_2c_2util_2modelica__string_8c.html#a672ff4045e2d75c0029e6cc5d7f0a507" target="_top" xlink:title="modelica_integer_to\l_modelica_string">
<polygon fill="#ffffff" stroke="#000000" points="1123,-361 1123,-391 1227,-391 1227,-361 1123,-361"/>
<text text-anchor="start" x="1131" y="-379" font-family="Helvetica,sans-Serif" font-size="10.00" fill="#000000">modelica_integer_to</text>
<text text-anchor="middle" x="1175" y="-368" font-family="Helvetica,sans-Serif" font-size="10.00" fill="#000000">_modelica_string</text>
</a>
</g>
</g>
<!-- Node232&#45;&gt;Node233 -->
<g id="edge12" class="edge">
<title>Node232&#45;&gt;Node233</title>
<path fill="none" stroke="#191970" d="M1070.2742,-376C1084.5507,-376 1099.1422,-376 1112.7247,-376"/>
<polygon fill="#191970" stroke="#191970" points="1112.8928,-379.5001 1122.8928,-376 1112.8927,-372.5001 1112.8928,-379.5001"/>
</g>
<!-- Node234 -->
<g id="node13" class="node">
<title>Node234</title>
<g id="a_node13"><a xlink:href="../../d7/deb/build_2include_2omc_2c_2util_2modelica__string_8c.html#a751007abc59e9ca7978f2af10a0c814f" target="_top" xlink:title="stringAppend">
<polygon fill="#ffffff" stroke="#000000" points="1138,-322.5 1138,-341.5 1212,-341.5 1212,-322.5 1138,-322.5"/>
<text text-anchor="middle" x="1175" y="-329.5" font-family="Helvetica,sans-Serif" font-size="10.00" fill="#000000">stringAppend</text>
</a>
</g>
</g>
<!-- Node232&#45;&gt;Node234 -->
<g id="edge13" class="edge">
<title>Node232&#45;&gt;Node234</title>
<path fill="none" stroke="#191970" d="M1027.0102,-366.4527C1056.6626,-359.5494 1096.7919,-350.2072 1127.7823,-342.9925"/>
<polygon fill="#191970" stroke="#191970" points="1128.9674,-346.3103 1137.9133,-340.6339 1127.3802,-339.4926 1128.9674,-346.3103"/>
</g>
<!-- Node235&#45;&gt;Node225 -->
<g id="edge15" class="edge">
<title>Node235&#45;&gt;Node225</title>
<path fill="none" stroke="#191970" d="M1063.1319,-496C1125.0485,-496 1211.0383,-496 1269.7304,-496"/>
<polygon fill="#191970" stroke="#191970" points="1269.9959,-499.5001 1279.9959,-496 1269.9958,-492.5001 1269.9959,-499.5001"/>
</g>
<!-- Node236 -->
<g id="node15" class="node">
<title>Node236</title>
<g id="a_node15"><a xlink:href="../../d2/d57/build_2include_2omc_2c_2meta_2meta__modelica__builtin_8h.html#a6983369f3c3e3e8cc41ac483c9a9baf1" target="_top" xlink:title="listLength">
<polygon fill="#ffffff" stroke="#000000" points="1145.5,-448.5 1145.5,-467.5 1204.5,-467.5 1204.5,-448.5 1145.5,-448.5"/>
<text text-anchor="middle" x="1175" y="-455.5" font-family="Helvetica,sans-Serif" font-size="10.00" fill="#000000">listLength</text>
</a>
</g>
</g>
<!-- Node235&#45;&gt;Node236 -->
<g id="edge16" class="edge">
<title>Node235&#45;&gt;Node236</title>
<path fill="none" stroke="#191970" d="M1033.6927,-486.411C1065.0933,-480.0976 1105.7185,-471.9296 1135.345,-465.973"/>
<polygon fill="#191970" stroke="#191970" points="1136.2185,-469.3675 1145.3324,-463.9649 1134.8386,-462.5048 1136.2185,-469.3675"/>
</g>
<!-- Node237 -->
<g id="node16" class="node">
<title>Node237</title>
<g id="a_node16"><a xlink:href="../../d0/d93/_n_f_subscript_8c.html#a02c756a4231e677f3c1512eac08695c0" target="_top" xlink:title="omc_NFSubscript_compare">
<polygon fill="#ffffff" stroke="#000000" points="1106,-524.5 1106,-543.5 1244,-543.5 1244,-524.5 1106,-524.5"/>
<text text-anchor="middle" x="1175" y="-531.5" font-family="Helvetica,sans-Serif" font-size="10.00" fill="#000000">omc_NFSubscript_compare</text>
</a>
</g>
</g>
<!-- Node235&#45;&gt;Node237 -->
<g id="edge17" class="edge">
<title>Node235&#45;&gt;Node237</title>
<path fill="none" stroke="#191970" d="M1033.6927,-505.589C1059.195,-510.7165 1090.7818,-517.0672 1117.6196,-522.4632"/>
<polygon fill="#191970" stroke="#191970" points="1117.1565,-525.9401 1127.6503,-524.4799 1118.5364,-519.0774 1117.1565,-525.9401"/>
</g>
<!-- Node237&#45;&gt;Node224 -->
<g id="edge19" class="edge">
<title>Node237&#45;&gt;Node224</title>
<path fill="none" stroke="#191970" d="M1105.9139,-539.0307C955.0221,-548.664 601.766,-563.441 505,-499 436.6393,-453.4755 408.6679,-351.0432 399.6208,-307.8295"/>
<polygon fill="#191970" stroke="#191970" points="403.0012,-306.8805 397.6334,-297.7461 396.1333,-308.2341 403.0012,-306.8805"/>
</g>
<!-- Node237&#45;&gt;Node225 -->
<g id="edge18" class="edge">
<title>Node237&#45;&gt;Node225</title>
<path fill="none" stroke="#191970" d="M1215.5009,-524.411C1236.6806,-519.3965 1262.8022,-513.2119 1285.2604,-507.8947"/>
<polygon fill="#191970" stroke="#191970" points="1286.3657,-511.2299 1295.2903,-505.5201 1284.7529,-504.4182 1286.3657,-511.2299"/>
</g>
<!-- Node239&#45;&gt;Node224 -->
<g id="edge24" class="edge">
<title>Node239&#45;&gt;Node224</title>
<path fill="none" stroke="#191970" d="M744.4632,-505.5366C687.019,-511.9966 579.2495,-510.5493 505,-463 446.8645,-425.7701 412.9878,-345.2241 400.9875,-307.5927"/>
<polygon fill="#191970" stroke="#191970" points="404.2764,-306.3734 398.0709,-297.7861 397.5669,-308.369 404.2764,-306.3734"/>
</g>
<!-- Node239&#45;&gt;Node225 -->
<g id="edge22" class="edge">
<title>Node239&#45;&gt;Node225</title>
<path fill="none" stroke="#191970" d="M829.5312,-486.4283C841.517,-483.4931 854.3502,-479.9738 866,-476 882.5715,-470.3474 885.0812,-464.508 902,-460 1049.1522,-420.791 1097.5841,-397.1253 1244,-439 1271.5817,-446.8883 1298.9374,-465.7652 1316.4496,-479.6437"/>
<polygon fill="#191970" stroke="#191970" points="1314.7033,-482.7372 1324.6591,-486.361 1319.1361,-477.3196 1314.7033,-482.7372"/>
</g>
<!-- Node239&#45;&gt;Node236 -->
<g id="edge23" class="edge">
<title>Node239&#45;&gt;Node236</title>
<path fill="none" stroke="#191970" d="M836.7256,-486.4685C857.0672,-483.0652 880.5615,-479.4669 902,-477 984.7458,-467.4785 1082.1896,-462.0875 1135.3952,-459.635"/>
<polygon fill="#191970" stroke="#191970" points="1135.5966,-463.1296 1145.429,-459.1833 1135.2817,-456.1367 1135.5966,-463.1296"/>
</g>
<!-- Node240&#45;&gt;Node224 -->
<g id="edge27" class="edge">
<title>Node240&#45;&gt;Node224</title>
<path fill="none" stroke="#191970" d="M554.8171,-95.5244C538.6951,-98.6842 519.3595,-103.471 505,-114 449.6293,-154.6002 417.2397,-232.5712 403.6225,-268.9137"/>
<polygon fill="#191970" stroke="#191970" points="400.3066,-267.7897 400.1346,-278.3831 406.8753,-270.2091 400.3066,-267.7897"/>
</g>
<!-- Node241&#45;&gt;Node228 -->
<g id="edge30" class="edge">
<title>Node241&#45;&gt;Node228</title>
<path fill="none" stroke="#191970" d="M640.6613,-392.3504C649.8293,-388.9256 658.7107,-384.2857 666,-378 694.6097,-353.3293 672.6387,-324.7713 702,-301 704.087,-299.3104 706.2968,-297.7654 708.6011,-296.3531"/>
<polygon fill="#191970" stroke="#191970" points="710.6279,-299.2449 717.8974,-291.5374 707.4081,-293.0294 710.6279,-299.2449"/>
</g>
<!-- Node241&#45;&gt;Node231 -->
<g id="edge29" class="edge">
<title>Node241&#45;&gt;Node231</title>
<path fill="none" stroke="#191970" d="M623.3036,-411.5223C648.9834,-417.9908 683.7113,-426.7384 714.313,-434.4466"/>
<polygon fill="#191970" stroke="#191970" points="713.5349,-437.8599 724.0869,-436.9085 715.2448,-431.0719 713.5349,-437.8599"/>
</g>
<!-- Node241&#45;&gt;Node239 -->
<g id="edge33" class="edge">
<title>Node241&#45;&gt;Node239</title>
<path fill="none" stroke="#191970" d="M597.6704,-411.6563C618.076,-427.3872 660.9953,-458.5394 702,-476 708.9369,-478.9539 716.3979,-481.5283 723.892,-483.7564"/>
<polygon fill="#191970" stroke="#191970" points="723.1495,-487.1827 733.7216,-486.4889 725.0243,-480.4384 723.1495,-487.1827"/>
</g>
<!-- Node242 -->
<g id="node21" class="node">
<title>Node242</title>
<g id="a_node21"><a xlink:href="../../d0/d18/_n_f_function_8c.html#ae4efe7d4abf1e8f9a763d59c1a75254f" target="_top" xlink:title="omc_NFFunction_Function_name">
<polygon fill="#ffffff" stroke="#000000" points="702,-360.5 702,-379.5 866,-379.5 866,-360.5 702,-360.5"/>
<text text-anchor="middle" x="784" y="-367.5" font-family="Helvetica,sans-Serif" font-size="10.00" fill="#000000">omc_NFFunction_Function_name</text>
</a>
</g>
</g>
<!-- Node241&#45;&gt;Node242 -->
<g id="edge31" class="edge">
<title>Node241&#45;&gt;Node242</title>
<path fill="none" stroke="#191970" d="M644.5191,-392.4856C666.6193,-388.9228 691.923,-384.8436 714.8575,-381.1464"/>
<polygon fill="#191970" stroke="#191970" points="715.5501,-384.58 724.8655,-379.533 714.4359,-377.6692 715.5501,-384.58"/>
</g>
<!-- Node243 -->
<g id="node22" class="node">
<title>Node243</title>
<g id="a_node22"><a xlink:href="../../df/d26/_n_f_component_ref_8c.html#acaced5774427acd4b9ac9d403c7acd97" target="_top" xlink:title="omc_NFComponentRef\l_toPath">
<polygon fill="#ffffff" stroke="#000000" points="724,-311 724,-341 844,-341 844,-311 724,-311"/>
<text text-anchor="start" x="732" y="-329" font-family="Helvetica,sans-Serif" font-size="10.00" fill="#000000">omc_NFComponentRef</text>
<text text-anchor="middle" x="784" y="-318" font-family="Helvetica,sans-Serif" font-size="10.00" fill="#000000">_toPath</text>
</a>
</g>
</g>
<!-- Node241&#45;&gt;Node243 -->
<g id="edge32" class="edge">
<title>Node241&#45;&gt;Node243</title>
<path fill="none" stroke="#191970" d="M627.945,-392.3824C640.5498,-388.7287 654.1477,-383.9703 666,-378 683.8618,-369.0025 684.166,-360.0526 702,-351 706.5288,-348.7012 711.3073,-346.571 716.1884,-344.6053"/>
<polygon fill="#191970" stroke="#191970" points="717.5446,-347.8345 725.6629,-341.0269 715.0713,-341.286 717.5446,-347.8345"/>
</g>
<!-- Node244 -->
<g id="node23" class="node">
<title>Node244</title>
<g id="a_node23"><a xlink:href="../../d9/dd8/_n_f_call_8c.html#aecda0913056549a7a9ca4f45a3aa3356" target="_top" xlink:title="omc_NFCall_Call_arguments">
<polygon fill="#ffffff" stroke="#000000" points="711.5,-398.5 711.5,-417.5 856.5,-417.5 856.5,-398.5 711.5,-398.5"/>
<text text-anchor="middle" x="784" y="-405.5" font-family="Helvetica,sans-Serif" font-size="10.00" fill="#000000">omc_NFCall_Call_arguments</text>
</a>
</g>
</g>
<!-- Node241&#45;&gt;Node244 -->
<g id="edge34" class="edge">
<title>Node241&#45;&gt;Node244</title>
<path fill="none" stroke="#191970" d="M654.0904,-404.0733C669.2581,-404.5317 685.4852,-405.0222 701.1515,-405.4958"/>
<polygon fill="#191970" stroke="#191970" points="701.2476,-409.0002 711.3488,-405.804 701.4591,-402.0034 701.2476,-409.0002"/>
</g>
<!-- Node245&#45;&gt;Node225 -->
<g id="edge36" class="edge">
<title>Node245&#45;&gt;Node225</title>
<path fill="none" stroke="#191970" d="M1053.0782,-594.752C1106.2823,-588.9542 1181.7817,-577.0363 1244,-553 1270.314,-542.8343 1297.361,-524.8798 1315.156,-511.8322"/>
<polygon fill="#191970" stroke="#191970" points="1317.6663,-514.3244 1323.5653,-505.5237 1313.4657,-508.7249 1317.6663,-514.3244"/>
</g>
</g>
</svg>
