<?xml version="1.0" encoding="UTF-8" standalone="no"?>
<!DOCTYPE svg PUBLIC "-//W3C//DTD SVG 1.1//EN"
 "http://www.w3.org/Graphics/SVG/1.1/DTD/svg11.dtd">
<!-- Generated by graphviz version 2.40.1 (20161225.0304)
 -->
<!-- Title: omc_NFExpression_compare Pages: 1 -->
<svg width="1447pt" height="820pt"
 viewBox="0.00 0.00 1447.00 820.46" xmlns="http://www.w3.org/2000/svg" xmlns:xlink="http://www.w3.org/1999/xlink">
<g id="graph0" class="graph" transform="scale(1 1) rotate(0) translate(4 816.4634)">
<title>omc_NFExpression_compare</title>
<polygon fill="#ffffff" stroke="transparent" points="-4,4 -4,-816.4634 1443,-816.4634 1443,4 -4,4"/>
<!-- Node1705 -->
<g id="node1" class="node">
<title>Node1705</title>
<polygon fill="#bfbfbf" stroke="#000000" points="0,-496.2786 0,-515.2786 146,-515.2786 146,-496.2786 0,-496.2786"/>
<text text-anchor="middle" x="73" y="-503.2786" font-family="Helvetica,sans-Serif" font-size="10.00" fill="#000000">omc_NFExpression_compare</text>
</g>
<!-- Node1706 -->
<g id="node2" class="node">
<title>Node1706</title>
<g id="a_node2"><a xlink:href="../../d9/d7c/_compiler_2boot_2build_2util_8c.html#a8c1b9eb65476185bd4d9073249caefa4" target="_top" xlink:title="omc_Util_intCompare">
<polygon fill="#ffffff" stroke="#000000" points="1328,-508.2786 1328,-527.2786 1439,-527.2786 1439,-508.2786 1328,-508.2786"/>
<text text-anchor="middle" x="1383.5" y="-515.2786" font-family="Helvetica,sans-Serif" font-size="10.00" fill="#000000">omc_Util_intCompare</text>
</a>
</g>
</g>
<!-- Node1705&#45;&gt;Node1706 -->
<g id="edge1" class="edge">
<title>Node1705&#45;&gt;Node1706</title>
<path fill="none" stroke="#191970" d="M74.3513,-515.3447C79.9921,-551.5743 105.066,-681.5508 182,-745.7786 274.1813,-822.7355 323.9177,-811.7786 444,-811.7786 444,-811.7786 444,-811.7786 1034,-811.7786 1205.6017,-811.7786 1336.8468,-601.6575 1373.3267,-536.6872"/>
<polygon fill="#191970" stroke="#191970" points="1376.5955,-538.0075 1378.3595,-527.5605 1370.4657,-534.6272 1376.5955,-538.0075"/>
</g>
<!-- Node1707 -->
<g id="node3" class="node">
<title>Node1707</title>
<g id="a_node3"><a xlink:href="../../d9/d7c/_compiler_2boot_2build_2util_8c.html#ad3153e4a426627a738650a4f34f9c2ce" target="_top" xlink:title="omc_Util_realCompare">
<polygon fill="#ffffff" stroke="#000000" points="575.5,-688.2786 575.5,-707.2786 691.5,-707.2786 691.5,-688.2786 575.5,-688.2786"/>
<text text-anchor="middle" x="633.5" y="-695.2786" font-family="Helvetica,sans-Serif" font-size="10.00" fill="#000000">omc_Util_realCompare</text>
</a>
</g>
</g>
<!-- Node1705&#45;&gt;Node1707 -->
<g id="edge2" class="edge">
<title>Node1705&#45;&gt;Node1707</title>
<path fill="none" stroke="#191970" d="M78.9565,-515.6157C93.442,-538.619 132.9512,-596.0678 182,-623.7786 303.9852,-692.6958 472.2168,-701.7739 565.0545,-700.7551"/>
<polygon fill="#191970" stroke="#191970" points="565.2256,-704.253 575.171,-700.6006 565.1187,-697.2538 565.2256,-704.253"/>
</g>
<!-- Node1708 -->
<g id="node4" class="node">
<title>Node1708</title>
<g id="a_node4"><a xlink:href="../../d9/d7c/_compiler_2boot_2build_2util_8c.html#a6f55cec19f885ce4f99b4bfa140e48c0" target="_top" xlink:title="omc_Util_boolCompare">
<polygon fill="#ffffff" stroke="#000000" points="574,-650.2786 574,-669.2786 693,-669.2786 693,-650.2786 574,-650.2786"/>
<text text-anchor="middle" x="633.5" y="-657.2786" font-family="Helvetica,sans-Serif" font-size="10.00" fill="#000000">omc_Util_boolCompare</text>
</a>
</g>
</g>
<!-- Node1705&#45;&gt;Node1708 -->
<g id="edge3" class="edge">
<title>Node1705&#45;&gt;Node1708</title>
<path fill="none" stroke="#191970" d="M82.4863,-515.4751C100.2499,-533.0003 140.4992,-569.7946 182,-587.7786 308.9332,-642.7839 472.297,-656.2652 563.657,-659.2672"/>
<polygon fill="#191970" stroke="#191970" points="563.7939,-662.7727 573.8928,-659.5694 564.0005,-655.7758 563.7939,-662.7727"/>
</g>
<!-- Node1709 -->
<g id="node5" class="node">
<title>Node1709</title>
<g id="a_node5"><a xlink:href="../../d0/d78/_absyn_8c.html#a32967c17d7e54d1e80801db59aa80bb5" target="_top" xlink:title="omc_Absyn_pathCompare">
<polygon fill="#ffffff" stroke="#000000" points="766,-274.2786 766,-293.2786 898,-293.2786 898,-274.2786 766,-274.2786"/>
<text text-anchor="middle" x="832" y="-281.2786" font-family="Helvetica,sans-Serif" font-size="10.00" fill="#000000">omc_Absyn_pathCompare</text>
</a>
</g>
</g>
<!-- Node1705&#45;&gt;Node1709 -->
<g id="edge4" class="edge">
<title>Node1705&#45;&gt;Node1709</title>
<path fill="none" stroke="#191970" d="M76.4425,-496.0605C87.1788,-467.1916 122.9108,-381.2545 182,-337.7786 375.4613,-195.436 482.7929,-177.7248 714,-242.7786 732.0502,-247.8573 732.6435,-257.6823 750,-264.7786 756.1799,-267.3053 762.7657,-269.5353 769.4157,-271.494"/>
<polygon fill="#191970" stroke="#191970" points="768.5949,-274.8981 779.1648,-274.1726 770.4495,-268.1482 768.5949,-274.8981"/>
</g>
<!-- Node1710 -->
<g id="node6" class="node">
<title>Node1710</title>
<g id="a_node6"><a xlink:href="../../d4/dc3/_n_f_type_8c.html#a4ab0aa4e9194285825c06c70aaa1ad0b" target="_top" xlink:title="omc_NFType_enumName">
<polygon fill="#ffffff" stroke="#000000" points="568,-612.2786 568,-631.2786 699,-631.2786 699,-612.2786 568,-612.2786"/>
<text text-anchor="middle" x="633.5" y="-619.2786" font-family="Helvetica,sans-Serif" font-size="10.00" fill="#000000">omc_NFType_enumName</text>
</a>
</g>
</g>
<!-- Node1705&#45;&gt;Node1710 -->
<g id="edge5" class="edge">
<title>Node1705&#45;&gt;Node1710</title>
<path fill="none" stroke="#191970" d="M88.9926,-515.3291C109.7036,-527.2386 147.2731,-547.3032 182,-557.7786 310.4499,-596.5257 466.6949,-612.0192 557.6449,-618.0662"/>
<polygon fill="#191970" stroke="#191970" points="557.6599,-621.5743 567.8641,-618.724 558.1096,-614.5888 557.6599,-621.5743"/>
</g>
<!-- Node1711 -->
<g id="node7" class="node">
<title>Node1711</title>
<g id="a_node7"><a xlink:href="../../db/d0c/_n_f_expression_8c.html#ac35259fe4fa86d750fd03cfa24d8d567" target="_top" xlink:title="omc_NFExpression_ClockKind\l_compare">
<polygon fill="#ffffff" stroke="#000000" points="182,-451.7786 182,-481.7786 335,-481.7786 335,-451.7786 182,-451.7786"/>
<text text-anchor="start" x="190" y="-469.7786" font-family="Helvetica,sans-Serif" font-size="10.00" fill="#000000">omc_NFExpression_ClockKind</text>
<text text-anchor="middle" x="258.5" y="-458.7786" font-family="Helvetica,sans-Serif" font-size="10.00" fill="#000000">_compare</text>
</a>
</g>
</g>
<!-- Node1705&#45;&gt;Node1711 -->
<g id="edge6" class="edge">
<title>Node1705&#45;&gt;Node1711</title>
<path fill="none" stroke="#191970" d="M118.3784,-496.2381C136.0763,-492.5173 156.9197,-488.1351 177.0432,-483.9043"/>
<polygon fill="#191970" stroke="#191970" points="177.7813,-487.3257 186.8472,-481.8431 176.341,-480.4755 177.7813,-487.3257"/>
</g>
<!-- Node1712 -->
<g id="node8" class="node">
<title>Node1712</title>
<g id="a_node8"><a xlink:href="../../db/d0c/_n_f_expression_8c.html#a29247005017021d1563c08df473367c4" target="_top" xlink:title="omc_NFExpression_compare">
<polygon fill="#ffffff" stroke="#000000" points="371,-413.2786 371,-432.2786 517,-432.2786 517,-413.2786 371,-413.2786"/>
<text text-anchor="middle" x="444" y="-420.2786" font-family="Helvetica,sans-Serif" font-size="10.00" fill="#000000">omc_NFExpression_compare</text>
</a>
</g>
</g>
<!-- Node1705&#45;&gt;Node1712 -->
<g id="edge47" class="edge">
<title>Node1705&#45;&gt;Node1712</title>
<path fill="none" stroke="#191970" d="M85.2137,-496.2165C104.5089,-481.7158 143.7896,-454.6039 182,-442.7786 239.9127,-424.8558 308.3008,-420.1512 360.6831,-419.7712"/>
<polygon fill="#191970" stroke="#191970" points="360.9454,-423.2708 370.9382,-419.7503 360.9311,-416.2708 360.9454,-423.2708"/>
</g>
<!-- Node1713 -->
<g id="node9" class="node">
<title>Node1713</title>
<g id="a_node9"><a xlink:href="../../df/d26/_n_f_component_ref_8c.html#ab1971c29e5423e2686c708b0fbba97c3" target="_top" xlink:title="omc_NFComponentRef\l_compare">
<polygon fill="#ffffff" stroke="#000000" points="772,-148.7786 772,-178.7786 892,-178.7786 892,-148.7786 772,-148.7786"/>
<text text-anchor="start" x="780" y="-166.7786" font-family="Helvetica,sans-Serif" font-size="10.00" fill="#000000">omc_NFComponentRef</text>
<text text-anchor="middle" x="832" y="-155.7786" font-family="Helvetica,sans-Serif" font-size="10.00" fill="#000000">_compare</text>
</a>
</g>
</g>
<!-- Node1705&#45;&gt;Node1713 -->
<g id="edge44" class="edge">
<title>Node1705&#45;&gt;Node1713</title>
<path fill="none" stroke="#191970" d="M74.0549,-496.0174C80.4205,-439.103 115.6766,-150.8226 182,-98.7786 368.0332,47.2017 502.4937,14.9745 714,-90.7786 737.8514,-102.7043 728.1674,-123.4669 750,-138.7786 753.9068,-141.5185 758.1213,-143.9643 762.5051,-146.1466"/>
<polygon fill="#191970" stroke="#191970" points="761.14,-149.3702 771.6969,-150.2659 764.0027,-142.9823 761.14,-149.3702"/>
</g>
<!-- Node1717 -->
<g id="node13" class="node">
<title>Node1717</title>
<g id="a_node13"><a xlink:href="../../d0/d93/_n_f_subscript_8c.html#a81da3d5c6f8994b7d853ba100a761cf8" target="_top" xlink:title="omc_NFSubscript_compareList">
<polygon fill="#ffffff" stroke="#000000" points="957,-489.2786 957,-508.2786 1111,-508.2786 1111,-489.2786 957,-489.2786"/>
<text text-anchor="middle" x="1034" y="-496.2786" font-family="Helvetica,sans-Serif" font-size="10.00" fill="#000000">omc_NFSubscript_compareList</text>
</a>
</g>
</g>
<!-- Node1705&#45;&gt;Node1717 -->
<g id="edge51" class="edge">
<title>Node1705&#45;&gt;Node1717</title>
<path fill="none" stroke="#191970" d="M75.309,-515.5607C83.5433,-548.2163 114.6441,-654.3627 182,-706.7786 275.5769,-779.5994 602.5506,-788.2574 714,-747.7786 851.9405,-697.6781 977.4389,-564.0374 1019.2753,-516.152"/>
<polygon fill="#191970" stroke="#191970" points="1022.0042,-518.347 1025.8908,-508.4907 1016.7061,-513.772 1022.0042,-518.347"/>
</g>
<!-- Node1720 -->
<g id="node16" class="node">
<title>Node1720</title>
<g id="a_node16"><a xlink:href="../../dc/dd0/build_2include_2omc_2c_2meta_2meta__modelica_8h.html#af129ecd241889f9515fe7ae33e186ea5" target="_top" xlink:title="valueCompare">
<polygon fill="#ffffff" stroke="#000000" points="593.5,-574.2786 593.5,-593.2786 673.5,-593.2786 673.5,-574.2786 593.5,-574.2786"/>
<text text-anchor="middle" x="633.5" y="-581.2786" font-family="Helvetica,sans-Serif" font-size="10.00" fill="#000000">valueCompare</text>
</a>
</g>
</g>
<!-- Node1705&#45;&gt;Node1720 -->
<g id="edge45" class="edge">
<title>Node1705&#45;&gt;Node1720</title>
<path fill="none" stroke="#191970" d="M106.6337,-515.3146C128.0554,-521.0878 156.479,-528.1965 182,-532.7786 326.5953,-558.7395 499.7528,-573.9187 583.3944,-580.2641"/>
<polygon fill="#191970" stroke="#191970" points="583.151,-583.7556 593.3845,-581.0121 583.6738,-576.7751 583.151,-583.7556"/>
</g>
<!-- Node1721 -->
<g id="node17" class="node">
<title>Node1721</title>
<g id="a_node17"><a xlink:href="../../db/d0c/_n_f_expression_8c.html#a694a0bc940c6a309f760e7f97a20ee60" target="_top" xlink:title="omc_NFExpression_compareList">
<polygon fill="#ffffff" stroke="#000000" points="751.5,-413.2786 751.5,-432.2786 912.5,-432.2786 912.5,-413.2786 751.5,-413.2786"/>
<text text-anchor="middle" x="832" y="-420.2786" font-family="Helvetica,sans-Serif" font-size="10.00" fill="#000000">omc_NFExpression_compareList</text>
</a>
</g>
</g>
<!-- Node1705&#45;&gt;Node1721 -->
<g id="edge46" class="edge">
<title>Node1705&#45;&gt;Node1721</title>
<path fill="none" stroke="#191970" d="M76.6526,-515.5232C87.7249,-543.6439 123.7665,-625.428 182,-664.7786 280.4216,-731.2858 623.5601,-793.7893 714,-716.7786 790.4373,-651.6913 701.1114,-581.4651 750,-493.7786 763.2994,-469.9247 787.8481,-450.3109 806.6315,-437.7889"/>
<polygon fill="#191970" stroke="#191970" points="808.528,-440.7306 815.0543,-432.3845 804.7477,-434.8391 808.528,-440.7306"/>
</g>
<!-- Node1722 -->
<g id="node18" class="node">
<title>Node1722</title>
<g id="a_node18"><a xlink:href="../../db/d0c/_n_f_expression_8c.html#adf54cd48cf92e77cd27777920e162f63" target="_top" xlink:title="omc_NFExpression_compareOpt">
<polygon fill="#ffffff" stroke="#000000" points="553,-252.2786 553,-271.2786 714,-271.2786 714,-252.2786 553,-252.2786"/>
<text text-anchor="middle" x="633.5" y="-259.2786" font-family="Helvetica,sans-Serif" font-size="10.00" fill="#000000">omc_NFExpression_compareOpt</text>
</a>
</g>
</g>
<!-- Node1705&#45;&gt;Node1722 -->
<g id="edge48" class="edge">
<title>Node1705&#45;&gt;Node1722</title>
<path fill="none" stroke="#191970" d="M82.411,-496.2636C100.3668,-478.5511 141.3586,-440.1987 182,-416.7786 334.6987,-328.7839 383.2661,-324.2164 553,-276.7786 557.0818,-275.6378 561.3046,-274.5593 565.5803,-273.544"/>
<polygon fill="#191970" stroke="#191970" points="566.6217,-276.8973 575.6112,-271.2902 565.0871,-270.0676 566.6217,-276.8973"/>
</g>
<!-- Node1723 -->
<g id="node19" class="node">
<title>Node1723</title>
<g id="a_node19"><a xlink:href="../../d9/dd8/_n_f_call_8c.html#a9ff815f0303d2d7b5237a383ddaca009" target="_top" xlink:title="omc_NFCall_Call_compare">
<polygon fill="#ffffff" stroke="#000000" points="565,-176.2786 565,-195.2786 702,-195.2786 702,-176.2786 565,-176.2786"/>
<text text-anchor="middle" x="633.5" y="-183.2786" font-family="Helvetica,sans-Serif" font-size="10.00" fill="#000000">omc_NFCall_Call_compare</text>
</a>
</g>
</g>
<!-- Node1705&#45;&gt;Node1723 -->
<g id="edge49" class="edge">
<title>Node1705&#45;&gt;Node1723</title>
<path fill="none" stroke="#191970" d="M75.0882,-496.0499C85.3782,-449.0779 132.2006,-246.5119 182,-209.7786 239.1803,-167.6009 441.2799,-173.0748 554.7374,-179.8972"/>
<polygon fill="#191970" stroke="#191970" points="554.5645,-183.3931 564.7616,-180.5174 554.9968,-176.4065 554.5645,-183.3931"/>
</g>
<!-- Node1727 -->
<g id="node23" class="node">
<title>Node1727</title>
<g id="a_node23"><a xlink:href="../../dc/d36/_n_f_operator_8c.html#a757cf6e05d51c93a65e41c21b982f897" target="_top" xlink:title="omc_NFOperator_compare">
<polygon fill="#ffffff" stroke="#000000" points="566.5,-536.2786 566.5,-555.2786 700.5,-555.2786 700.5,-536.2786 566.5,-536.2786"/>
<text text-anchor="middle" x="633.5" y="-543.2786" font-family="Helvetica,sans-Serif" font-size="10.00" fill="#000000">omc_NFOperator_compare</text>
</a>
</g>
</g>
<!-- Node1705&#45;&gt;Node1727 -->
<g id="edge50" class="edge">
<title>Node1705&#45;&gt;Node1727</title>
<path fill="none" stroke="#191970" d="M146.2756,-511.0079C252.3504,-518.5779 447.8072,-532.5267 556.1295,-540.2571"/>
<polygon fill="#191970" stroke="#191970" points="556.1106,-543.7645 566.3344,-540.9853 556.6089,-536.7823 556.1106,-543.7645"/>
</g>
<!-- Node1728 -->
<g id="node24" class="node">
<title>Node1728</title>
<g id="a_node24"><a xlink:href="../../d8/de3/_mutable_8c.html#a4d9367043438a5c1a24d17f1f9559996" target="_top" xlink:title="omc_Mutable_access">
<polygon fill="#ffffff" stroke="#000000" points="577.5,-138.2786 577.5,-157.2786 689.5,-157.2786 689.5,-138.2786 577.5,-138.2786"/>
<text text-anchor="middle" x="633.5" y="-145.2786" font-family="Helvetica,sans-Serif" font-size="10.00" fill="#000000">omc_Mutable_access</text>
</a>
</g>
</g>
<!-- Node1705&#45;&gt;Node1728 -->
<g id="edge52" class="edge">
<title>Node1705&#45;&gt;Node1728</title>
<path fill="none" stroke="#191970" d="M74.6591,-496.2454C83.5472,-446.3475 127.1766,-215.9374 182,-173.7786 240.4699,-128.8156 456.3128,-135.8467 567.0346,-142.7715"/>
<polygon fill="#191970" stroke="#191970" points="566.8849,-146.269 577.089,-143.4182 567.3343,-139.2835 566.8849,-146.269"/>
</g>
<!-- Node1729 -->
<g id="node25" class="node">
<title>Node1729</title>
<g id="a_node25"><a xlink:href="../../db/da1/_compiler_2boot_2build_2error_8c.html#a202663346d8015c6413dbcc62dff1933" target="_top" xlink:title="omc_Error_assertion">
<polygon fill="#ffffff" stroke="#000000" points="580,-100.2786 580,-119.2786 687,-119.2786 687,-100.2786 580,-100.2786"/>
<text text-anchor="middle" x="633.5" y="-107.2786" font-family="Helvetica,sans-Serif" font-size="10.00" fill="#000000">omc_Error_assertion</text>
</a>
</g>
</g>
<!-- Node1705&#45;&gt;Node1729 -->
<g id="edge53" class="edge">
<title>Node1705&#45;&gt;Node1729</title>
<path fill="none" stroke="#191970" d="M74.3333,-496.2685C81.976,-443.2132 121.9973,-184.4774 182,-136.7786 240.2086,-90.506 459.4035,-97.9215 569.5286,-104.9131"/>
<polygon fill="#191970" stroke="#191970" points="569.6294,-108.427 579.8363,-105.5866 570.0858,-101.4419 569.6294,-108.427"/>
</g>
<!-- Node1711&#45;&gt;Node1712 -->
<g id="edge7" class="edge">
<title>Node1711&#45;&gt;Node1712</title>
<path fill="none" stroke="#191970" d="M298.2944,-451.6822C318.1353,-446.0517 342.8384,-439.8543 366.2348,-434.5532"/>
<polygon fill="#191970" stroke="#191970" points="367.1646,-437.9319 376.1638,-432.3404 365.6419,-431.0995 367.1646,-437.9319"/>
</g>
<!-- Node1712&#45;&gt;Node1706 -->
<g id="edge8" class="edge">
<title>Node1712&#45;&gt;Node1706</title>
<path fill="none" stroke="#191970" d="M491.5613,-413.2674C564.4977,-399.5339 708.5066,-375.7786 832,-375.7786 832,-375.7786 832,-375.7786 1034,-375.7786 1149.4914,-375.7786 1190.6739,-351.3594 1292,-406.7786 1331.0736,-428.1495 1360.1101,-473.6087 1374.1328,-499.2266"/>
<polygon fill="#191970" stroke="#191970" points="1371.1473,-501.0683 1378.9118,-508.2768 1377.3373,-497.7996 1371.1473,-501.0683"/>
</g>
<!-- Node1712&#45;&gt;Node1707 -->
<g id="edge9" class="edge">
<title>Node1712&#45;&gt;Node1707</title>
<path fill="none" stroke="#191970" d="M445.0383,-432.4805C449.6408,-470.4605 471.7204,-610.3144 553,-678.7786 556.9486,-682.1046 561.3759,-684.8712 566.0695,-687.1698"/>
<polygon fill="#191970" stroke="#191970" points="564.7908,-690.4286 575.3682,-691.0375 567.4792,-683.9654 564.7908,-690.4286"/>
</g>
<!-- Node1712&#45;&gt;Node1708 -->
<g id="edge10" class="edge">
<title>Node1712&#45;&gt;Node1708</title>
<path fill="none" stroke="#191970" d="M445.8052,-432.448C452.7428,-466.7793 480.9971,-583.7966 553,-640.7786 556.4203,-643.4854 560.1622,-645.8173 564.1014,-647.8252"/>
<polygon fill="#191970" stroke="#191970" points="563.0253,-651.1736 573.5919,-651.9463 565.8134,-644.7528 563.0253,-651.1736"/>
</g>
<!-- Node1712&#45;&gt;Node1709 -->
<g id="edge11" class="edge">
<title>Node1712&#45;&gt;Node1709</title>
<path fill="none" stroke="#191970" d="M458.5974,-413.1201C478.9953,-399.9766 517.5197,-376.4214 553,-361.7786 594.7889,-344.5322 715.4701,-313.0436 783.6348,-295.8202"/>
<polygon fill="#191970" stroke="#191970" points="784.8577,-299.1215 793.6995,-293.2843 783.1474,-292.3337 784.8577,-299.1215"/>
</g>
<!-- Node1712&#45;&gt;Node1710 -->
<g id="edge12" class="edge">
<title>Node1712&#45;&gt;Node1710</title>
<path fill="none" stroke="#191970" d="M446.8671,-432.4326C456.4044,-462.7882 490.0791,-556.9943 553,-602.7786 555.6706,-604.7218 558.511,-606.4692 561.4694,-608.0404"/>
<polygon fill="#191970" stroke="#191970" points="560.0966,-611.2612 570.6457,-612.2443 563.0121,-604.8972 560.0966,-611.2612"/>
</g>
<!-- Node1712&#45;&gt;Node1711 -->
<g id="edge13" class="edge">
<title>Node1712&#45;&gt;Node1711</title>
<path fill="none" stroke="#191970" d="M422.5878,-432.3626C403.376,-438.5304 373.8608,-446.2752 345.1318,-452.9667"/>
<polygon fill="#191970" stroke="#191970" points="343.9856,-449.6387 335.0209,-455.2854 345.5503,-456.4616 343.9856,-449.6387"/>
</g>
<!-- Node1712&#45;&gt;Node1712 -->
<g id="edge29" class="edge">
<title>Node1712&#45;&gt;Node1712</title>
<path fill="none" stroke="#191970" d="M415.6403,-432.5356C401.8436,-441.3439 411.2969,-450.7786 444,-450.7786 466.4834,-450.7786 477.9776,-446.3192 478.4826,-440.6698"/>
<polygon fill="#191970" stroke="#191970" points="481.1701,-438.4203 472.3597,-432.5356 475.5774,-442.6301 481.1701,-438.4203"/>
</g>
<!-- Node1712&#45;&gt;Node1713 -->
<g id="edge14" class="edge">
<title>Node1712&#45;&gt;Node1713</title>
<path fill="none" stroke="#191970" d="M450.5998,-413.0548C465.8521,-391.4055 505.8696,-339.1469 553,-313.7786 617.3179,-279.159 658.1329,-327.8337 714,-280.7786 747.5829,-252.4927 717.7795,-218.6071 750,-188.7786 753.7935,-185.2667 758.0672,-182.2476 762.6209,-179.6521"/>
<polygon fill="#191970" stroke="#191970" points="764.2661,-182.7431 771.6704,-175.165 761.1565,-176.4717 764.2661,-182.7431"/>
</g>
<!-- Node1712&#45;&gt;Node1717 -->
<g id="edge41" class="edge">
<title>Node1712&#45;&gt;Node1717</title>
<path fill="none" stroke="#191970" d="M484.4566,-432.3042C504.9129,-436.8682 530.1793,-442.1227 553,-445.7786 689.8036,-467.6947 849.9595,-483.3686 946.6092,-491.7478"/>
<polygon fill="#191970" stroke="#191970" points="946.3645,-495.2396 956.6278,-492.61 946.9648,-488.2654 946.3645,-495.2396"/>
</g>
<!-- Node1712&#45;&gt;Node1720 -->
<g id="edge24" class="edge">
<title>Node1712&#45;&gt;Node1720</title>
<path fill="none" stroke="#191970" d="M448.5137,-432.5551C461.0523,-458.5642 498.9764,-529.8491 553,-564.7786 562.0469,-570.6279 572.7049,-574.6806 583.2527,-577.4874"/>
<polygon fill="#191970" stroke="#191970" points="582.7431,-580.9621 593.2756,-579.8147 584.3264,-574.1435 582.7431,-580.9621"/>
</g>
<!-- Node1712&#45;&gt;Node1721 -->
<g id="edge25" class="edge">
<title>Node1712&#45;&gt;Node1721</title>
<path fill="none" stroke="#191970" d="M517.436,-417.3554C580.8585,-415.7318 672.7631,-415.5983 740.8694,-416.9549"/>
<polygon fill="#191970" stroke="#191970" points="741.0901,-420.4603 751.1629,-417.1756 741.2402,-413.462 741.0901,-420.4603"/>
</g>
<!-- Node1712&#45;&gt;Node1722 -->
<g id="edge30" class="edge">
<title>Node1712&#45;&gt;Node1722</title>
<path fill="none" stroke="#191970" d="M448.8102,-413.124C460.7912,-395.5139 492.7463,-360.1865 517,-328.7786 534.1802,-306.5308 530.2457,-293.2821 553,-276.7786 553.0849,-276.717 553.1699,-276.6557 553.255,-276.5944"/>
<polygon fill="#191970" stroke="#191970" points="554.9885,-279.6391 561.5804,-271.3446 551.2548,-273.718 554.9885,-279.6391"/>
</g>
<!-- Node1712&#45;&gt;Node1723 -->
<g id="edge32" class="edge">
<title>Node1712&#45;&gt;Node1723</title>
<path fill="none" stroke="#191970" d="M448.2301,-412.8714C460.8674,-384.0841 500.7285,-298.9352 553,-242.7786 568.7511,-225.8568 590.2761,-210.931 607.105,-200.6019"/>
<polygon fill="#191970" stroke="#191970" points="609.1096,-203.4816 615.9048,-195.3529 605.5236,-197.4698 609.1096,-203.4816"/>
</g>
<!-- Node1712&#45;&gt;Node1727 -->
<g id="edge39" class="edge">
<title>Node1712&#45;&gt;Node1727</title>
<path fill="none" stroke="#191970" d="M451.964,-432.4876C468.6491,-452.2081 509.3581,-497.1632 553,-521.7786 561.0223,-526.3034 569.9859,-530.0564 578.9379,-533.1429"/>
<polygon fill="#191970" stroke="#191970" points="578.0113,-536.5212 588.6023,-536.2356 580.1448,-529.8542 578.0113,-536.5212"/>
</g>
<!-- Node1712&#45;&gt;Node1728 -->
<g id="edge42" class="edge">
<title>Node1712&#45;&gt;Node1728</title>
<path fill="none" stroke="#191970" d="M445.0383,-413.0766C449.6408,-375.0966 471.7204,-235.2427 553,-166.7786 557.5029,-162.9857 562.6283,-159.9203 568.0613,-157.4468"/>
<polygon fill="#191970" stroke="#191970" points="569.3758,-160.6911 577.4394,-153.8187 566.8502,-154.1626 569.3758,-160.6911"/>
</g>
<!-- Node1712&#45;&gt;Node1729 -->
<g id="edge43" class="edge">
<title>Node1712&#45;&gt;Node1729</title>
<path fill="none" stroke="#191970" d="M444.4486,-413.1132C446.9077,-371.8599 462.2418,-208.9871 553,-128.7786 558.0605,-124.3063 563.9787,-120.836 570.2685,-118.1504"/>
<polygon fill="#191970" stroke="#191970" points="571.4733,-121.4367 579.6931,-114.752 569.0988,-114.8517 571.4733,-121.4367"/>
</g>
<!-- Node1714 -->
<g id="node10" class="node">
<title>Node1714</title>
<g id="a_node10"><a xlink:href="../../d7/d21/_n_f_inst_node_8c.html#a0448a520b8f4a2cf341ecde6c2f2fd93" target="_top" xlink:title="omc_NFInstNode_InstNode_name">
<polygon fill="#ffffff" stroke="#000000" points="950,-154.2786 950,-173.2786 1118,-173.2786 1118,-154.2786 950,-154.2786"/>
<text text-anchor="middle" x="1034" y="-161.2786" font-family="Helvetica,sans-Serif" font-size="10.00" fill="#000000">omc_NFInstNode_InstNode_name</text>
</a>
</g>
</g>
<!-- Node1713&#45;&gt;Node1714 -->
<g id="edge15" class="edge">
<title>Node1713&#45;&gt;Node1714</title>
<path fill="none" stroke="#191970" d="M892.0597,-163.7786C907.0839,-163.7786 923.5629,-163.7786 939.8061,-163.7786"/>
<polygon fill="#191970" stroke="#191970" points="939.8742,-167.2787 949.8742,-163.7786 939.8741,-160.2787 939.8742,-167.2787"/>
</g>
<!-- Node1713&#45;&gt;Node1717 -->
<g id="edge18" class="edge">
<title>Node1713&#45;&gt;Node1717</title>
<path fill="none" stroke="#191970" d="M892.3487,-175.1444C900.2729,-178.5617 907.7853,-183.0041 914,-188.7786 1002.0188,-270.5622 1026.24,-424.3504 1032.217,-478.9387"/>
<polygon fill="#191970" stroke="#191970" points="1028.7478,-479.4208 1033.2319,-489.0199 1035.7126,-478.7196 1028.7478,-479.4208"/>
</g>
<!-- Node1715 -->
<g id="node11" class="node">
<title>Node1715</title>
<g id="a_node11"><a xlink:href="../../d7/deb/build_2include_2omc_2c_2util_2modelica__string_8c.html#a672ff4045e2d75c0029e6cc5d7f0a507" target="_top" xlink:title="modelica_integer_to\l_modelica_string">
<polygon fill="#ffffff" stroke="#000000" points="1171,-126.7786 1171,-156.7786 1275,-156.7786 1275,-126.7786 1171,-126.7786"/>
<text text-anchor="start" x="1179" y="-144.7786" font-family="Helvetica,sans-Serif" font-size="10.00" fill="#000000">modelica_integer_to</text>
<text text-anchor="middle" x="1223" y="-133.7786" font-family="Helvetica,sans-Serif" font-size="10.00" fill="#000000">_modelica_string</text>
</a>
</g>
</g>
<!-- Node1714&#45;&gt;Node1715 -->
<g id="edge16" class="edge">
<title>Node1714&#45;&gt;Node1715</title>
<path fill="none" stroke="#191970" d="M1115.7989,-154.257C1130.8111,-152.5096 1146.2589,-150.7114 1160.5895,-149.0433"/>
<polygon fill="#191970" stroke="#191970" points="1161.2765,-152.4871 1170.8047,-147.8542 1160.4671,-145.534 1161.2765,-152.4871"/>
</g>
<!-- Node1716 -->
<g id="node12" class="node">
<title>Node1716</title>
<g id="a_node12"><a xlink:href="../../d7/deb/build_2include_2omc_2c_2util_2modelica__string_8c.html#a751007abc59e9ca7978f2af10a0c814f" target="_top" xlink:title="stringAppend">
<polygon fill="#ffffff" stroke="#000000" points="1186,-176.2786 1186,-195.2786 1260,-195.2786 1260,-176.2786 1186,-176.2786"/>
<text text-anchor="middle" x="1223" y="-183.2786" font-family="Helvetica,sans-Serif" font-size="10.00" fill="#000000">stringAppend</text>
</a>
</g>
</g>
<!-- Node1714&#45;&gt;Node1716 -->
<g id="edge17" class="edge">
<title>Node1714&#45;&gt;Node1716</title>
<path fill="none" stroke="#191970" d="M1115.7989,-173.3002C1136.2429,-175.6799 1157.4945,-178.1536 1175.6324,-180.2649"/>
<polygon fill="#191970" stroke="#191970" points="1175.3044,-183.7503 1185.642,-181.43 1176.1138,-176.7972 1175.3044,-183.7503"/>
</g>
<!-- Node1717&#45;&gt;Node1706 -->
<g id="edge19" class="edge">
<title>Node1717&#45;&gt;Node1706</title>
<path fill="none" stroke="#191970" d="M1111.1319,-502.9717C1173.0485,-506.3377 1259.0383,-511.0124 1317.7304,-514.2031"/>
<polygon fill="#191970" stroke="#191970" points="1317.8206,-517.7131 1327.9959,-514.7612 1318.2006,-510.7234 1317.8206,-517.7131"/>
</g>
<!-- Node1718 -->
<g id="node14" class="node">
<title>Node1718</title>
<g id="a_node14"><a xlink:href="../../d2/d57/build_2include_2omc_2c_2meta_2meta__modelica__builtin_8h.html#a6983369f3c3e3e8cc41ac483c9a9baf1" target="_top" xlink:title="listLength">
<polygon fill="#ffffff" stroke="#000000" points="1193.5,-451.2786 1193.5,-470.2786 1252.5,-470.2786 1252.5,-451.2786 1193.5,-451.2786"/>
<text text-anchor="middle" x="1223" y="-458.2786" font-family="Helvetica,sans-Serif" font-size="10.00" fill="#000000">listLength</text>
</a>
</g>
</g>
<!-- Node1717&#45;&gt;Node1718 -->
<g id="edge20" class="edge">
<title>Node1717&#45;&gt;Node1718</title>
<path fill="none" stroke="#191970" d="M1081.6927,-489.1896C1113.0933,-482.8762 1153.7185,-474.7082 1183.345,-468.7516"/>
<polygon fill="#191970" stroke="#191970" points="1184.2185,-472.1461 1193.3324,-466.7435 1182.8386,-465.2834 1184.2185,-472.1461"/>
</g>
<!-- Node1719 -->
<g id="node15" class="node">
<title>Node1719</title>
<g id="a_node15"><a xlink:href="../../d0/d93/_n_f_subscript_8c.html#a02c756a4231e677f3c1512eac08695c0" target="_top" xlink:title="omc_NFSubscript_compare">
<polygon fill="#ffffff" stroke="#000000" points="1154,-527.2786 1154,-546.2786 1292,-546.2786 1292,-527.2786 1154,-527.2786"/>
<text text-anchor="middle" x="1223" y="-534.2786" font-family="Helvetica,sans-Serif" font-size="10.00" fill="#000000">omc_NFSubscript_compare</text>
</a>
</g>
</g>
<!-- Node1717&#45;&gt;Node1719 -->
<g id="edge21" class="edge">
<title>Node1717&#45;&gt;Node1719</title>
<path fill="none" stroke="#191970" d="M1081.6927,-508.3676C1107.195,-513.495 1138.7818,-519.8458 1165.6196,-525.2418"/>
<polygon fill="#191970" stroke="#191970" points="1165.1565,-528.7187 1175.6503,-527.2585 1166.5364,-521.856 1165.1565,-528.7187"/>
</g>
<!-- Node1719&#45;&gt;Node1706 -->
<g id="edge22" class="edge">
<title>Node1719&#45;&gt;Node1706</title>
<path fill="none" stroke="#191970" d="M1292.4642,-528.5554C1300.8965,-527.5572 1309.4907,-526.5398 1317.8651,-525.5485"/>
<polygon fill="#191970" stroke="#191970" points="1318.4262,-529.0066 1327.9454,-524.3551 1317.6032,-522.0551 1318.4262,-529.0066"/>
</g>
<!-- Node1719&#45;&gt;Node1712 -->
<g id="edge23" class="edge">
<title>Node1719&#45;&gt;Node1712</title>
<path fill="none" stroke="#191970" d="M1153.6265,-537.5312C1030.4419,-537.2073 766.4014,-528.9961 553,-470.7786 523.6332,-462.7671 491.9963,-448.0966 470.4114,-437.075"/>
<polygon fill="#191970" stroke="#191970" points="472.016,-433.9645 461.5292,-432.4551 468.7859,-440.1747 472.016,-433.9645"/>
</g>
<!-- Node1721&#45;&gt;Node1706 -->
<g id="edge26" class="edge">
<title>Node1721&#45;&gt;Node1706</title>
<path fill="none" stroke="#191970" d="M893.2948,-413.2465C983.8928,-401.7823 1157.3456,-389.9841 1292,-441.7786 1323.7565,-453.9937 1352.5381,-481.9675 1369.0194,-500.3548"/>
<polygon fill="#191970" stroke="#191970" points="1366.4926,-502.7832 1375.6928,-508.0375 1371.7773,-498.1927 1366.4926,-502.7832"/>
</g>
<!-- Node1721&#45;&gt;Node1712 -->
<g id="edge28" class="edge">
<title>Node1721&#45;&gt;Node1712</title>
<path fill="none" stroke="#191970" d="M751.1629,-428.3816C685.7722,-429.8881 594.0081,-429.9106 527.8296,-428.4491"/>
<polygon fill="#191970" stroke="#191970" points="527.5164,-424.9407 517.436,-428.2018 527.3499,-431.9387 527.5164,-424.9407"/>
</g>
<!-- Node1721&#45;&gt;Node1718 -->
<g id="edge27" class="edge">
<title>Node1721&#45;&gt;Node1718</title>
<path fill="none" stroke="#191970" d="M909.4002,-432.3027C922.9251,-433.8695 936.8668,-435.4225 950,-436.7786 1032.9702,-445.3456 1130.331,-453.4343 1183.4621,-457.6821"/>
<polygon fill="#191970" stroke="#191970" points="1183.235,-461.175 1193.4812,-458.4794 1183.7904,-454.1971 1183.235,-461.175"/>
</g>
<!-- Node1722&#45;&gt;Node1712 -->
<g id="edge31" class="edge">
<title>Node1722&#45;&gt;Node1712</title>
<path fill="none" stroke="#191970" d="M612.6328,-271.2988C595.302,-275.9028 570.7081,-281.9351 553,-294.7786 530.2457,-311.2821 534.1802,-324.5308 517,-346.7786 500.8011,-367.7557 481.1668,-390.4812 466.3426,-405.795"/>
<polygon fill="#191970" stroke="#191970" points="463.6595,-403.5287 459.0725,-413.0791 468.6141,-408.4737 463.6595,-403.5287"/>
</g>
<!-- Node1723&#45;&gt;Node1709 -->
<g id="edge34" class="edge">
<title>Node1723&#45;&gt;Node1709</title>
<path fill="none" stroke="#191970" d="M685.01,-195.2841C695.2504,-198.7315 705.464,-203.4167 714,-209.7786 737.4249,-227.2373 726.0448,-248.055 750,-264.7786 752.7559,-266.7025 755.6785,-268.4341 758.7156,-269.9924"/>
<polygon fill="#191970" stroke="#191970" points="757.5582,-273.308 768.1182,-274.1664 760.3984,-266.91 757.5582,-273.308"/>
</g>
<!-- Node1723&#45;&gt;Node1713 -->
<g id="edge33" class="edge">
<title>Node1723&#45;&gt;Node1713</title>
<path fill="none" stroke="#191970" d="M702.0904,-178.1766C721.3667,-176.0402 742.3541,-173.7142 761.727,-171.567"/>
<polygon fill="#191970" stroke="#191970" points="762.1394,-175.0428 771.693,-170.4625 761.3682,-168.0854 762.1394,-175.0428"/>
</g>
<!-- Node1723&#45;&gt;Node1721 -->
<g id="edge37" class="edge">
<title>Node1723&#45;&gt;Node1721</title>
<path fill="none" stroke="#191970" d="M651.1124,-195.3368C668.5844,-205.4429 695.3729,-222.6852 714,-242.7786 735.142,-265.5849 733.22,-276.5957 750,-302.7786 773.6785,-339.7256 803.0295,-381.8548 819.4177,-405.0734"/>
<polygon fill="#191970" stroke="#191970" points="816.5808,-407.1237 825.2151,-413.2638 822.2943,-403.0795 816.5808,-407.1237"/>
</g>
<!-- Node1724 -->
<g id="node20" class="node">
<title>Node1724</title>
<g id="a_node20"><a xlink:href="../../d0/d18/_n_f_function_8c.html#ae4efe7d4abf1e8f9a763d59c1a75254f" target="_top" xlink:title="omc_NFFunction_Function_name">
<polygon fill="#ffffff" stroke="#000000" points="750,-198.2786 750,-217.2786 914,-217.2786 914,-198.2786 750,-198.2786"/>
<text text-anchor="middle" x="832" y="-205.2786" font-family="Helvetica,sans-Serif" font-size="10.00" fill="#000000">omc_NFFunction_Function_name</text>
</a>
</g>
</g>
<!-- Node1723&#45;&gt;Node1724 -->
<g id="edge35" class="edge">
<title>Node1723&#45;&gt;Node1724</title>
<path fill="none" stroke="#191970" d="M702.0904,-193.3805C714.2044,-194.7232 726.9942,-196.1407 739.6344,-197.5416"/>
<polygon fill="#191970" stroke="#191970" points="739.3989,-201.0368 749.7237,-198.6598 740.1701,-194.0794 739.3989,-201.0368"/>
</g>
<!-- Node1725 -->
<g id="node21" class="node">
<title>Node1725</title>
<g id="a_node21"><a xlink:href="../../df/d26/_n_f_component_ref_8c.html#acaced5774427acd4b9ac9d403c7acd97" target="_top" xlink:title="omc_NFComponentRef\l_toPath">
<polygon fill="#ffffff" stroke="#000000" points="772,-99.7786 772,-129.7786 892,-129.7786 892,-99.7786 772,-99.7786"/>
<text text-anchor="start" x="780" y="-117.7786" font-family="Helvetica,sans-Serif" font-size="10.00" fill="#000000">omc_NFComponentRef</text>
<text text-anchor="middle" x="832" y="-106.7786" font-family="Helvetica,sans-Serif" font-size="10.00" fill="#000000">_toPath</text>
</a>
</g>
</g>
<!-- Node1723&#45;&gt;Node1725 -->
<g id="edge36" class="edge">
<title>Node1723&#45;&gt;Node1725</title>
<path fill="none" stroke="#191970" d="M688.2866,-176.2042C697.107,-173.7187 705.9695,-170.6223 714,-166.7786 732.2834,-158.0275 731.9547,-148.0106 750,-138.7786 753.9699,-136.7476 758.1382,-134.8626 762.4036,-133.1174"/>
<polygon fill="#191970" stroke="#191970" points="763.7572,-136.3472 771.857,-129.5176 761.2661,-129.8054 763.7572,-136.3472"/>
</g>
<!-- Node1726 -->
<g id="node22" class="node">
<title>Node1726</title>
<g id="a_node22"><a xlink:href="../../d9/dd8/_n_f_call_8c.html#aecda0913056549a7a9ca4f45a3aa3356" target="_top" xlink:title="omc_NFCall_Call_arguments">
<polygon fill="#ffffff" stroke="#000000" points="759.5,-236.2786 759.5,-255.2786 904.5,-255.2786 904.5,-236.2786 759.5,-236.2786"/>
<text text-anchor="middle" x="832" y="-243.2786" font-family="Helvetica,sans-Serif" font-size="10.00" fill="#000000">omc_NFCall_Call_arguments</text>
</a>
</g>
</g>
<!-- Node1723&#45;&gt;Node1726 -->
<g id="edge38" class="edge">
<title>Node1723&#45;&gt;Node1726</title>
<path fill="none" stroke="#191970" d="M669.9562,-195.3813C683.8931,-199.3809 699.8347,-204.3582 714,-209.7786 730.5257,-216.1022 733.2861,-220.9707 750,-226.7786 757.3763,-229.3418 765.2461,-231.6627 773.082,-233.7309"/>
<polygon fill="#191970" stroke="#191970" points="772.3976,-237.1678 782.9495,-236.2147 774.1064,-230.3795 772.3976,-237.1678"/>
</g>
<!-- Node1727&#45;&gt;Node1706 -->
<g id="edge40" class="edge">
<title>Node1727&#45;&gt;Node1706</title>
<path fill="none" stroke="#191970" d="M700.5258,-555.2224C716.6915,-557.1154 733.9355,-558.8168 750,-559.7786 990.4649,-574.1753 1056.312,-605.5963 1292,-555.7786 1314.7192,-550.9764 1338.9221,-540.6715 1356.7259,-532.0031"/>
<polygon fill="#191970" stroke="#191970" points="1358.5366,-535.0106 1365.9084,-527.4009 1355.4001,-528.7525 1358.5366,-535.0106"/>
</g>
</g>
</svg>
