<?xml version="1.0" encoding="UTF-8" standalone="no"?>
<!DOCTYPE svg PUBLIC "-//W3C//DTD SVG 1.1//EN"
 "http://www.w3.org/Graphics/SVG/1.1/DTD/svg11.dtd">
<!-- Generated by graphviz version 2.40.1 (20161225.0304)
 -->
<!-- Title: boxptr_NFExpression_compareList Pages: 1 -->
<svg width="1420pt" height="723pt"
 viewBox="0.00 0.00 1420.00 723.00" xmlns="http://www.w3.org/2000/svg" xmlns:xlink="http://www.w3.org/1999/xlink">
<g id="graph0" class="graph" transform="scale(1 1) rotate(0) translate(4 719)">
<title>boxptr_NFExpression_compareList</title>
<polygon fill="#ffffff" stroke="transparent" points="-4,4 -4,-719 1416,-719 1416,4 -4,4"/>
<!-- Node76 -->
<g id="node1" class="node">
<title>Node76</title>
<polygon fill="#bfbfbf" stroke="#000000" points="0,-346 0,-376 111,-376 111,-346 0,-346"/>
<text text-anchor="start" x="8" y="-364" font-family="Helvetica,sans-Serif" font-size="10.00" fill="#000000">boxptr_NFExpression</text>
<text text-anchor="middle" x="55.5" y="-353" font-family="Helvetica,sans-Serif" font-size="10.00" fill="#000000">_compareList</text>
</g>
<!-- Node77 -->
<g id="node2" class="node">
<title>Node77</title>
<g id="a_node2"><a xlink:href="../../db/d0c/_n_f_expression_8c.html#a694a0bc940c6a309f760e7f97a20ee60" target="_top" xlink:title="omc_NFExpression_compareList">
<polygon fill="#ffffff" stroke="#000000" points="147,-351.5 147,-370.5 308,-370.5 308,-351.5 147,-351.5"/>
<text text-anchor="middle" x="227.5" y="-358.5" font-family="Helvetica,sans-Serif" font-size="10.00" fill="#000000">omc_NFExpression_compareList</text>
</a>
</g>
</g>
<!-- Node76&#45;&gt;Node77 -->
<g id="edge1" class="edge">
<title>Node76&#45;&gt;Node77</title>
<path fill="none" stroke="#191970" d="M111.3435,-361C119.5219,-361 128.1169,-361 136.7759,-361"/>
<polygon fill="#191970" stroke="#191970" points="136.9492,-364.5001 146.9492,-361 136.9491,-357.5001 136.9492,-364.5001"/>
</g>
<!-- Node78 -->
<g id="node3" class="node">
<title>Node78</title>
<g id="a_node3"><a xlink:href="../../d9/d7c/_compiler_2boot_2build_2util_8c.html#a8c1b9eb65476185bd4d9073249caefa4" target="_top" xlink:title="omc_Util_intCompare">
<polygon fill="#ffffff" stroke="#000000" points="1301,-256.5 1301,-275.5 1412,-275.5 1412,-256.5 1301,-256.5"/>
<text text-anchor="middle" x="1356.5" y="-263.5" font-family="Helvetica,sans-Serif" font-size="10.00" fill="#000000">omc_Util_intCompare</text>
</a>
</g>
</g>
<!-- Node77&#45;&gt;Node78 -->
<g id="edge2" class="edge">
<title>Node77&#45;&gt;Node78</title>
<path fill="none" stroke="#191970" d="M237.1336,-370.865C271.9664,-405.7327 396.1782,-523.2018 526,-563 594.413,-583.9727 615.56,-567.0655 687,-563 945.1405,-548.3096 1059.7422,-654.231 1265,-497 1333.8188,-444.2836 1350.9769,-331.9752 1355.1735,-286.1263"/>
<polygon fill="#191970" stroke="#191970" points="1358.6767,-286.2255 1355.9848,-275.9784 1351.6989,-285.6677 1358.6767,-286.2255"/>
</g>
<!-- Node79 -->
<g id="node4" class="node">
<title>Node79</title>
<g id="a_node4"><a xlink:href="../../d2/d57/build_2include_2omc_2c_2meta_2meta__modelica__builtin_8h.html#a6983369f3c3e3e8cc41ac483c9a9baf1" target="_top" xlink:title="listLength">
<polygon fill="#ffffff" stroke="#000000" points="1166.5,-123.5 1166.5,-142.5 1225.5,-142.5 1225.5,-123.5 1166.5,-123.5"/>
<text text-anchor="middle" x="1196" y="-130.5" font-family="Helvetica,sans-Serif" font-size="10.00" fill="#000000">listLength</text>
</a>
</g>
</g>
<!-- Node77&#45;&gt;Node79 -->
<g id="edge3" class="edge">
<title>Node77&#45;&gt;Node79</title>
<path fill="none" stroke="#191970" d="M231.6317,-351.3441C256.9108,-293.935 396.5893,0 606.5,0 606.5,0 606.5,0 805,0 950.6495,0 1111.3393,-83.7398 1171.4966,-118.3264"/>
<polygon fill="#191970" stroke="#191970" points="1169.8676,-121.4279 1180.2706,-123.435 1173.3897,-115.3786 1169.8676,-121.4279"/>
</g>
<!-- Node80 -->
<g id="node5" class="node">
<title>Node80</title>
<g id="a_node5"><a xlink:href="../../db/d0c/_n_f_expression_8c.html#a29247005017021d1563c08df473367c4" target="_top" xlink:title="omc_NFExpression_compare">
<polygon fill="#ffffff" stroke="#000000" points="344,-351.5 344,-370.5 490,-370.5 490,-351.5 344,-351.5"/>
<text text-anchor="middle" x="417" y="-358.5" font-family="Helvetica,sans-Serif" font-size="10.00" fill="#000000">omc_NFExpression_compare</text>
</a>
</g>
</g>
<!-- Node77&#45;&gt;Node80 -->
<g id="edge4" class="edge">
<title>Node77&#45;&gt;Node80</title>
<path fill="none" stroke="#191970" d="M308.1398,-354.317C316.5907,-354.2362 325.1947,-354.2285 333.6749,-354.2938"/>
<polygon fill="#191970" stroke="#191970" points="333.8998,-357.7965 343.9387,-354.4097 333.9789,-350.7969 333.8998,-357.7965"/>
</g>
<!-- Node80&#45;&gt;Node77 -->
<g id="edge23" class="edge">
<title>Node80&#45;&gt;Node77</title>
<path fill="none" stroke="#191970" d="M343.9387,-367.5903C335.5135,-367.7164 326.8466,-367.7678 318.2242,-367.7446"/>
<polygon fill="#191970" stroke="#191970" points="318.1611,-364.2442 308.1398,-367.683 318.1183,-371.2441 318.1611,-364.2442"/>
</g>
<!-- Node80&#45;&gt;Node78 -->
<g id="edge5" class="edge">
<title>Node80&#45;&gt;Node78</title>
<path fill="none" stroke="#191970" d="M417.2904,-351.2341C419.1017,-309.5978 432.1624,-145.6885 526,-72 624.2457,5.15 680.0826,-38 805,-38 805,-38 805,-38 1007,-38 1126.5382,-38 1170.3974,-40.9266 1265,-114 1310.772,-149.3554 1338.6251,-214.6223 1350.2203,-246.8996"/>
<polygon fill="#191970" stroke="#191970" points="1346.9596,-248.1802 1353.5317,-256.4903 1353.5763,-245.8956 1346.9596,-248.1802"/>
</g>
<!-- Node80&#45;&gt;Node80 -->
<g id="edge24" class="edge">
<title>Node80&#45;&gt;Node80</title>
<path fill="none" stroke="#191970" d="M388.0237,-370.7571C373.9272,-379.5653 383.5859,-389 417,-389 439.9722,-389 451.7162,-384.5406 452.2322,-378.8913"/>
<polygon fill="#191970" stroke="#191970" points="454.8471,-376.5501 445.9763,-370.7571 449.2983,-380.8176 454.8471,-376.5501"/>
</g>
<!-- Node81 -->
<g id="node6" class="node">
<title>Node81</title>
<g id="a_node6"><a xlink:href="../../d9/d7c/_compiler_2boot_2build_2util_8c.html#ad3153e4a426627a738650a4f34f9c2ce" target="_top" xlink:title="omc_Util_realCompare">
<polygon fill="#ffffff" stroke="#000000" points="548.5,-180.5 548.5,-199.5 664.5,-199.5 664.5,-180.5 548.5,-180.5"/>
<text text-anchor="middle" x="606.5" y="-187.5" font-family="Helvetica,sans-Serif" font-size="10.00" fill="#000000">omc_Util_realCompare</text>
</a>
</g>
</g>
<!-- Node80&#45;&gt;Node81 -->
<g id="edge6" class="edge">
<title>Node80&#45;&gt;Node81</title>
<path fill="none" stroke="#191970" d="M420.9713,-351.3305C432.6454,-324.1804 469.6145,-246.7722 526,-209 529.9668,-206.3427 534.2611,-204.0551 538.7311,-202.0861"/>
<polygon fill="#191970" stroke="#191970" points="540.0306,-205.3362 548.104,-198.4754 537.5143,-198.8042 540.0306,-205.3362"/>
</g>
<!-- Node82 -->
<g id="node7" class="node">
<title>Node82</title>
<g id="a_node7"><a xlink:href="../../d9/d7c/_compiler_2boot_2build_2util_8c.html#a6f55cec19f885ce4f99b4bfa140e48c0" target="_top" xlink:title="omc_Util_boolCompare">
<polygon fill="#ffffff" stroke="#000000" points="547,-142.5 547,-161.5 666,-161.5 666,-142.5 547,-142.5"/>
<text text-anchor="middle" x="606.5" y="-149.5" font-family="Helvetica,sans-Serif" font-size="10.00" fill="#000000">omc_Util_boolCompare</text>
</a>
</g>
</g>
<!-- Node80&#45;&gt;Node82 -->
<g id="edge7" class="edge">
<title>Node80&#45;&gt;Node82</title>
<path fill="none" stroke="#191970" d="M419.5714,-351.2647C428.4269,-319.7361 460.7664,-219.6573 526,-171 529.5934,-168.3197 533.5075,-166.0106 537.6107,-164.0219"/>
<polygon fill="#191970" stroke="#191970" points="538.9688,-167.2478 546.8443,-160.1607 536.2681,-160.7897 538.9688,-167.2478"/>
</g>
<!-- Node83 -->
<g id="node8" class="node">
<title>Node83</title>
<g id="a_node8"><a xlink:href="../../d0/d78/_absyn_8c.html#a32967c17d7e54d1e80801db59aa80bb5" target="_top" xlink:title="omc_Absyn_pathCompare">
<polygon fill="#ffffff" stroke="#000000" points="739,-367.5 739,-386.5 871,-386.5 871,-367.5 739,-367.5"/>
<text text-anchor="middle" x="805" y="-374.5" font-family="Helvetica,sans-Serif" font-size="10.00" fill="#000000">omc_Absyn_pathCompare</text>
</a>
</g>
</g>
<!-- Node80&#45;&gt;Node83 -->
<g id="edge8" class="edge">
<title>Node80&#45;&gt;Node83</title>
<path fill="none" stroke="#191970" d="M490.1442,-358.3406C544.5122,-357.01 620.4716,-356.5101 687,-361 703.0566,-362.0836 720.2589,-363.9876 736.4255,-366.1129"/>
<polygon fill="#191970" stroke="#191970" points="735.9581,-369.5815 746.3382,-367.4595 736.9004,-362.6452 735.9581,-369.5815"/>
</g>
<!-- Node84 -->
<g id="node9" class="node">
<title>Node84</title>
<g id="a_node9"><a xlink:href="../../d4/dc3/_n_f_type_8c.html#a4ab0aa4e9194285825c06c70aaa1ad0b" target="_top" xlink:title="omc_NFType_enumName">
<polygon fill="#ffffff" stroke="#000000" points="541,-104.5 541,-123.5 672,-123.5 672,-104.5 541,-104.5"/>
<text text-anchor="middle" x="606.5" y="-111.5" font-family="Helvetica,sans-Serif" font-size="10.00" fill="#000000">omc_NFType_enumName</text>
</a>
</g>
</g>
<!-- Node80&#45;&gt;Node84 -->
<g id="edge9" class="edge">
<title>Node80&#45;&gt;Node84</title>
<path fill="none" stroke="#191970" d="M418.5693,-351.3875C424.8486,-316.1534 451.5272,-193.0159 526,-133 528.1034,-131.3049 530.3324,-129.7563 532.6571,-128.3419"/>
<polygon fill="#191970" stroke="#191970" points="534.7392,-131.2073 542.0355,-123.5253 531.5411,-124.9805 534.7392,-131.2073"/>
</g>
<!-- Node85 -->
<g id="node10" class="node">
<title>Node85</title>
<g id="a_node10"><a xlink:href="../../db/d0c/_n_f_expression_8c.html#ac35259fe4fa86d750fd03cfa24d8d567" target="_top" xlink:title="omc_NFExpression_ClockKind\l_compare">
<polygon fill="#ffffff" stroke="#000000" points="530,-523 530,-553 683,-553 683,-523 530,-523"/>
<text text-anchor="start" x="538" y="-541" font-family="Helvetica,sans-Serif" font-size="10.00" fill="#000000">omc_NFExpression_ClockKind</text>
<text text-anchor="middle" x="606.5" y="-530" font-family="Helvetica,sans-Serif" font-size="10.00" fill="#000000">_compare</text>
</a>
</g>
</g>
<!-- Node80&#45;&gt;Node85 -->
<g id="edge10" class="edge">
<title>Node80&#45;&gt;Node85</title>
<path fill="none" stroke="#191970" d="M423.4329,-370.6372C437.5382,-396.7387 474.1179,-466.5759 526,-504 535.455,-510.8202 546.8209,-515.8166 557.9928,-519.7351"/>
<polygon fill="#191970" stroke="#191970" points="557.1149,-523.1305 567.7077,-522.9199 559.2955,-516.4788 557.1149,-523.1305"/>
</g>
<!-- Node86 -->
<g id="node11" class="node">
<title>Node86</title>
<g id="a_node11"><a xlink:href="../../df/d26/_n_f_component_ref_8c.html#ab1971c29e5423e2686c708b0fbba97c3" target="_top" xlink:title="omc_NFComponentRef\l_compare">
<polygon fill="#ffffff" stroke="#000000" points="745,-441 745,-471 865,-471 865,-441 745,-441"/>
<text text-anchor="start" x="753" y="-459" font-family="Helvetica,sans-Serif" font-size="10.00" fill="#000000">omc_NFComponentRef</text>
<text text-anchor="middle" x="805" y="-448" font-family="Helvetica,sans-Serif" font-size="10.00" fill="#000000">_compare</text>
</a>
</g>
</g>
<!-- Node80&#45;&gt;Node86 -->
<g id="edge12" class="edge">
<title>Node80&#45;&gt;Node86</title>
<path fill="none" stroke="#191970" d="M426.7548,-370.648C444.6394,-387.6323 484.6545,-422.4473 526,-437 594.0429,-460.9496 677.0842,-463.4992 734.7941,-461.4221"/>
<polygon fill="#191970" stroke="#191970" points="735.0604,-464.9141 744.9063,-461.0015 734.7695,-457.9202 735.0604,-464.9141"/>
</g>
<!-- Node90 -->
<g id="node15" class="node">
<title>Node90</title>
<g id="a_node15"><a xlink:href="../../d0/d93/_n_f_subscript_8c.html#a81da3d5c6f8994b7d853ba100a761cf8" target="_top" xlink:title="omc_NFSubscript_compareList">
<polygon fill="#ffffff" stroke="#000000" points="930,-256.5 930,-275.5 1084,-275.5 1084,-256.5 930,-256.5"/>
<text text-anchor="middle" x="1007" y="-263.5" font-family="Helvetica,sans-Serif" font-size="10.00" fill="#000000">omc_NFSubscript_compareList</text>
</a>
</g>
</g>
<!-- Node80&#45;&gt;Node90 -->
<g id="edge36" class="edge">
<title>Node80&#45;&gt;Node90</title>
<path fill="none" stroke="#191970" d="M447.275,-351.4899C469.0026,-344.9548 499.0775,-336.4981 526,-331 662.3553,-303.1534 822.9682,-284.1834 919.7883,-274.2266"/>
<polygon fill="#191970" stroke="#191970" points="920.2305,-277.6998 929.8239,-273.2034 919.5204,-270.7359 920.2305,-277.6998"/>
</g>
<!-- Node92 -->
<g id="node17" class="node">
<title>Node92</title>
<g id="a_node17"><a xlink:href="../../dc/dd0/build_2include_2omc_2c_2meta_2meta__modelica_8h.html#af129ecd241889f9515fe7ae33e186ea5" target="_top" xlink:title="valueCompare">
<polygon fill="#ffffff" stroke="#000000" points="566.5,-484.5 566.5,-503.5 646.5,-503.5 646.5,-484.5 566.5,-484.5"/>
<text text-anchor="middle" x="606.5" y="-491.5" font-family="Helvetica,sans-Serif" font-size="10.00" fill="#000000">valueCompare</text>
</a>
</g>
</g>
<!-- Node80&#45;&gt;Node92 -->
<g id="edge22" class="edge">
<title>Node80&#45;&gt;Node92</title>
<path fill="none" stroke="#191970" d="M424.0014,-370.7491C439.7645,-391.9916 480.2552,-442.7299 526,-470 535.3989,-475.603 546.2035,-479.9833 556.7823,-483.3763"/>
<polygon fill="#191970" stroke="#191970" points="555.8051,-486.7371 566.3874,-486.2215 557.7933,-480.0253 555.8051,-486.7371"/>
</g>
<!-- Node93 -->
<g id="node18" class="node">
<title>Node93</title>
<g id="a_node18"><a xlink:href="../../db/d0c/_n_f_expression_8c.html#adf54cd48cf92e77cd27777920e162f63" target="_top" xlink:title="omc_NFExpression_compareOpt">
<polygon fill="#ffffff" stroke="#000000" points="526,-408.5 526,-427.5 687,-427.5 687,-408.5 526,-408.5"/>
<text text-anchor="middle" x="606.5" y="-415.5" font-family="Helvetica,sans-Serif" font-size="10.00" fill="#000000">omc_NFExpression_compareOpt</text>
</a>
</g>
</g>
<!-- Node80&#45;&gt;Node93 -->
<g id="edge25" class="edge">
<title>Node80&#45;&gt;Node93</title>
<path fill="none" stroke="#191970" d="M464.9456,-370.541C483.8311,-376.6609 505.798,-384.1117 526,-390 544.6596,-395.4388 566.091,-400.4377 582.1471,-405.2717"/>
<polygon fill="#191970" stroke="#191970" points="581.2465,-408.6593 591.8388,-408.4275 583.4139,-402.0032 581.2465,-408.6593"/>
</g>
<!-- Node94 -->
<g id="node19" class="node">
<title>Node94</title>
<g id="a_node19"><a xlink:href="../../d9/dd8/_n_f_call_8c.html#a9ff815f0303d2d7b5237a383ddaca009" target="_top" xlink:title="omc_NFCall_Call_compare">
<polygon fill="#ffffff" stroke="#000000" points="538,-610.5 538,-629.5 675,-629.5 675,-610.5 538,-610.5"/>
<text text-anchor="middle" x="606.5" y="-617.5" font-family="Helvetica,sans-Serif" font-size="10.00" fill="#000000">omc_NFCall_Call_compare</text>
</a>
</g>
</g>
<!-- Node80&#45;&gt;Node94 -->
<g id="edge27" class="edge">
<title>Node80&#45;&gt;Node94</title>
<path fill="none" stroke="#191970" d="M420.43,-370.8043C431.6386,-401.8127 469.7296,-499.4539 526,-563 541.2303,-580.1995 562.6052,-595.026 579.5019,-605.2431"/>
<polygon fill="#191970" stroke="#191970" points="577.9628,-608.3978 588.3608,-610.4309 581.5002,-602.3573 577.9628,-608.3978"/>
</g>
<!-- Node98 -->
<g id="node23" class="node">
<title>Node98</title>
<g id="a_node23"><a xlink:href="../../dc/d36/_n_f_operator_8c.html#a757cf6e05d51c93a65e41c21b982f897" target="_top" xlink:title="omc_NFOperator_compare">
<polygon fill="#ffffff" stroke="#000000" points="940,-294.5 940,-313.5 1074,-313.5 1074,-294.5 940,-294.5"/>
<text text-anchor="middle" x="1007" y="-301.5" font-family="Helvetica,sans-Serif" font-size="10.00" fill="#000000">omc_NFOperator_compare</text>
</a>
</g>
</g>
<!-- Node80&#45;&gt;Node98 -->
<g id="edge34" class="edge">
<title>Node80&#45;&gt;Node98</title>
<path fill="none" stroke="#191970" d="M490.2339,-353.9249C602.2722,-343.1008 815.2435,-322.5256 929.6806,-311.4698"/>
<polygon fill="#191970" stroke="#191970" points="930.1503,-314.9409 939.7673,-310.4954 929.4771,-307.9733 930.1503,-314.9409"/>
</g>
<!-- Node99 -->
<g id="node24" class="node">
<title>Node99</title>
<g id="a_node24"><a xlink:href="../../d8/de3/_mutable_8c.html#a4d9367043438a5c1a24d17f1f9559996" target="_top" xlink:title="omc_Mutable_access">
<polygon fill="#ffffff" stroke="#000000" points="550.5,-370.5 550.5,-389.5 662.5,-389.5 662.5,-370.5 550.5,-370.5"/>
<text text-anchor="middle" x="606.5" y="-377.5" font-family="Helvetica,sans-Serif" font-size="10.00" fill="#000000">omc_Mutable_access</text>
</a>
</g>
</g>
<!-- Node80&#45;&gt;Node99 -->
<g id="edge37" class="edge">
<title>Node80&#45;&gt;Node99</title>
<path fill="none" stroke="#191970" d="M490.2656,-368.3459C506.6694,-369.9906 523.9801,-371.7262 540.0874,-373.3412"/>
<polygon fill="#191970" stroke="#191970" points="540.1776,-376.8677 550.4769,-374.3829 540.876,-369.9026 540.1776,-376.8677"/>
</g>
<!-- Node100 -->
<g id="node25" class="node">
<title>Node100</title>
<g id="a_node25"><a xlink:href="../../db/da1/_compiler_2boot_2build_2error_8c.html#a202663346d8015c6413dbcc62dff1933" target="_top" xlink:title="omc_Error_assertion">
<polygon fill="#ffffff" stroke="#000000" points="553,-218.5 553,-237.5 660,-237.5 660,-218.5 553,-218.5"/>
<text text-anchor="middle" x="606.5" y="-225.5" font-family="Helvetica,sans-Serif" font-size="10.00" fill="#000000">omc_Error_assertion</text>
</a>
</g>
</g>
<!-- Node80&#45;&gt;Node100 -->
<g id="edge38" class="edge">
<title>Node80&#45;&gt;Node100</title>
<path fill="none" stroke="#191970" d="M424.0014,-351.2509C439.7645,-330.0084 480.2552,-279.2701 526,-252 533.5542,-247.4967 542.0163,-243.7833 550.5396,-240.7375"/>
<polygon fill="#191970" stroke="#191970" points="551.7393,-244.0274 560.1433,-237.5758 549.5503,-237.3784 551.7393,-244.0274"/>
</g>
<!-- Node85&#45;&gt;Node80 -->
<g id="edge11" class="edge">
<title>Node85&#45;&gt;Node80</title>
<path fill="none" stroke="#191970" d="M529.6467,-524.4825C528.4038,-523.6835 527.1869,-522.8561 526,-522 473.9698,-484.469 437.3294,-414.3396 423.3127,-380.1417"/>
<polygon fill="#191970" stroke="#191970" points="426.5585,-378.8308 419.697,-370.758 420.0266,-381.3477 426.5585,-378.8308"/>
</g>
<!-- Node87 -->
<g id="node12" class="node">
<title>Node87</title>
<g id="a_node12"><a xlink:href="../../d7/d21/_n_f_inst_node_8c.html#a0448a520b8f4a2cf341ecde6c2f2fd93" target="_top" xlink:title="omc_NFInstNode_InstNode_name">
<polygon fill="#ffffff" stroke="#000000" points="923,-446.5 923,-465.5 1091,-465.5 1091,-446.5 923,-446.5"/>
<text text-anchor="middle" x="1007" y="-453.5" font-family="Helvetica,sans-Serif" font-size="10.00" fill="#000000">omc_NFInstNode_InstNode_name</text>
</a>
</g>
</g>
<!-- Node86&#45;&gt;Node87 -->
<g id="edge13" class="edge">
<title>Node86&#45;&gt;Node87</title>
<path fill="none" stroke="#191970" d="M865.0597,-456C880.0839,-456 896.5629,-456 912.8061,-456"/>
<polygon fill="#191970" stroke="#191970" points="912.8742,-459.5001 922.8742,-456 912.8741,-452.5001 912.8742,-459.5001"/>
</g>
<!-- Node86&#45;&gt;Node90 -->
<g id="edge16" class="edge">
<title>Node86&#45;&gt;Node90</title>
<path fill="none" stroke="#191970" d="M834.0742,-440.9206C851.6513,-430.4598 873.2469,-415.0076 887,-396 917.4022,-353.9824 884.6942,-319.9634 923,-285 924.7048,-283.4439 926.5095,-282.0065 928.3957,-280.6789"/>
<polygon fill="#191970" stroke="#191970" points="930.2904,-283.6251 937.1323,-275.5357 926.7391,-277.5928 930.2904,-283.6251"/>
</g>
<!-- Node88 -->
<g id="node13" class="node">
<title>Node88</title>
<g id="a_node13"><a xlink:href="../../d7/deb/build_2include_2omc_2c_2util_2modelica__string_8c.html#a672ff4045e2d75c0029e6cc5d7f0a507" target="_top" xlink:title="modelica_integer_to\l_modelica_string">
<polygon fill="#ffffff" stroke="#000000" points="1144,-419 1144,-449 1248,-449 1248,-419 1144,-419"/>
<text text-anchor="start" x="1152" y="-437" font-family="Helvetica,sans-Serif" font-size="10.00" fill="#000000">modelica_integer_to</text>
<text text-anchor="middle" x="1196" y="-426" font-family="Helvetica,sans-Serif" font-size="10.00" fill="#000000">_modelica_string</text>
</a>
</g>
</g>
<!-- Node87&#45;&gt;Node88 -->
<g id="edge14" class="edge">
<title>Node87&#45;&gt;Node88</title>
<path fill="none" stroke="#191970" d="M1088.7989,-446.4784C1103.8111,-444.731 1119.2589,-442.9328 1133.5895,-441.2647"/>
<polygon fill="#191970" stroke="#191970" points="1134.2765,-444.7085 1143.8047,-440.0756 1133.4671,-437.7554 1134.2765,-444.7085"/>
</g>
<!-- Node89 -->
<g id="node14" class="node">
<title>Node89</title>
<g id="a_node14"><a xlink:href="../../d7/deb/build_2include_2omc_2c_2util_2modelica__string_8c.html#a751007abc59e9ca7978f2af10a0c814f" target="_top" xlink:title="stringAppend">
<polygon fill="#ffffff" stroke="#000000" points="1159,-468.5 1159,-487.5 1233,-487.5 1233,-468.5 1159,-468.5"/>
<text text-anchor="middle" x="1196" y="-475.5" font-family="Helvetica,sans-Serif" font-size="10.00" fill="#000000">stringAppend</text>
</a>
</g>
</g>
<!-- Node87&#45;&gt;Node89 -->
<g id="edge15" class="edge">
<title>Node87&#45;&gt;Node89</title>
<path fill="none" stroke="#191970" d="M1088.7989,-465.5216C1109.2429,-467.9013 1130.4945,-470.375 1148.6324,-472.4863"/>
<polygon fill="#191970" stroke="#191970" points="1148.3044,-475.9717 1158.642,-473.6515 1149.1138,-469.0186 1148.3044,-475.9717"/>
</g>
<!-- Node90&#45;&gt;Node78 -->
<g id="edge17" class="edge">
<title>Node90&#45;&gt;Node78</title>
<path fill="none" stroke="#191970" d="M1084.1319,-266C1146.0485,-266 1232.0383,-266 1290.7304,-266"/>
<polygon fill="#191970" stroke="#191970" points="1290.9959,-269.5001 1300.9959,-266 1290.9958,-262.5001 1290.9959,-269.5001"/>
</g>
<!-- Node90&#45;&gt;Node79 -->
<g id="edge18" class="edge">
<title>Node90&#45;&gt;Node79</title>
<path fill="none" stroke="#191970" d="M1020.5924,-256.435C1052.7978,-233.7719 1134.0103,-176.6224 1173.6035,-148.7605"/>
<polygon fill="#191970" stroke="#191970" points="1176.113,-151.2744 1182.2768,-142.6571 1172.0845,-145.5497 1176.113,-151.2744"/>
</g>
<!-- Node91 -->
<g id="node16" class="node">
<title>Node91</title>
<g id="a_node16"><a xlink:href="../../d0/d93/_n_f_subscript_8c.html#a02c756a4231e677f3c1512eac08695c0" target="_top" xlink:title="omc_NFSubscript_compare">
<polygon fill="#ffffff" stroke="#000000" points="1127,-218.5 1127,-237.5 1265,-237.5 1265,-218.5 1127,-218.5"/>
<text text-anchor="middle" x="1196" y="-225.5" font-family="Helvetica,sans-Serif" font-size="10.00" fill="#000000">omc_NFSubscript_compare</text>
</a>
</g>
</g>
<!-- Node90&#45;&gt;Node91 -->
<g id="edge19" class="edge">
<title>Node90&#45;&gt;Node91</title>
<path fill="none" stroke="#191970" d="M1054.6927,-256.411C1080.195,-251.2835 1111.7818,-244.9328 1138.6196,-239.5368"/>
<polygon fill="#191970" stroke="#191970" points="1139.5364,-242.9226 1148.6503,-237.5201 1138.1565,-236.0599 1139.5364,-242.9226"/>
</g>
<!-- Node91&#45;&gt;Node78 -->
<g id="edge20" class="edge">
<title>Node91&#45;&gt;Node78</title>
<path fill="none" stroke="#191970" d="M1236.5009,-237.589C1257.6806,-242.6035 1283.8022,-248.7881 1306.2604,-254.1053"/>
<polygon fill="#191970" stroke="#191970" points="1305.7529,-257.5818 1316.2903,-256.4799 1307.3657,-250.7701 1305.7529,-257.5818"/>
</g>
<!-- Node91&#45;&gt;Node80 -->
<g id="edge21" class="edge">
<title>Node91&#45;&gt;Node80</title>
<path fill="none" stroke="#191970" d="M1171.307,-218.4058C1063.6651,-177.2771 635.9261,-21.2476 526,-95 440.4639,-152.3885 422.0007,-290.1369 418.057,-341.3694"/>
<polygon fill="#191970" stroke="#191970" points="414.5588,-341.2269 417.3886,-351.4368 421.5435,-341.6906 414.5588,-341.2269"/>
</g>
<!-- Node93&#45;&gt;Node80 -->
<g id="edge26" class="edge">
<title>Node93&#45;&gt;Node80</title>
<path fill="none" stroke="#191970" d="M527.6614,-408.481C527.1053,-408.3211 526.5514,-408.1607 526,-408 494.4659,-398.8087 458.6316,-385.8105 436.9289,-375.2857"/>
<polygon fill="#191970" stroke="#191970" points="438.5042,-372.1599 428.018,-370.6465 435.2717,-378.3689 438.5042,-372.1599"/>
</g>
<!-- Node94&#45;&gt;Node77 -->
<g id="edge32" class="edge">
<title>Node94&#45;&gt;Node77</title>
<path fill="none" stroke="#191970" d="M551.8392,-629.5276C494.8497,-636.376 405.4339,-638.1074 344,-596 267.8339,-543.795 239.2351,-426.8461 230.6361,-380.4774"/>
<polygon fill="#191970" stroke="#191970" points="234.0663,-379.7738 228.9015,-370.5231 227.1702,-380.9755 234.0663,-379.7738"/>
</g>
<!-- Node94&#45;&gt;Node83 -->
<g id="edge29" class="edge">
<title>Node94&#45;&gt;Node83</title>
<path fill="none" stroke="#191970" d="M627.4452,-610.3484C645.8055,-600.8346 671.8616,-584.5939 687,-563 721.6609,-513.5586 687.7162,-480.9988 723,-432 735.7622,-414.2771 756.1317,-400.5721 773.3754,-391.2756"/>
<polygon fill="#191970" stroke="#191970" points="775.2617,-394.2418 782.5655,-386.5668 772.0697,-388.0119 775.2617,-394.2418"/>
</g>
<!-- Node94&#45;&gt;Node86 -->
<g id="edge28" class="edge">
<title>Node94&#45;&gt;Node86</title>
<path fill="none" stroke="#191970" d="M621.1327,-610.4161C637.5644,-599.4778 664.8309,-580.7934 687,-563 721.4901,-535.3176 758.9374,-500.4652 782.1876,-478.2039"/>
<polygon fill="#191970" stroke="#191970" points="784.7235,-480.6209 789.5034,-471.1656 779.8704,-475.5764 784.7235,-480.6209"/>
</g>
<!-- Node95 -->
<g id="node20" class="node">
<title>Node95</title>
<g id="a_node20"><a xlink:href="../../d0/d18/_n_f_function_8c.html#ae4efe7d4abf1e8f9a763d59c1a75254f" target="_top" xlink:title="omc_NFFunction_Function_name">
<polygon fill="#ffffff" stroke="#000000" points="723,-657.5 723,-676.5 887,-676.5 887,-657.5 723,-657.5"/>
<text text-anchor="middle" x="805" y="-664.5" font-family="Helvetica,sans-Serif" font-size="10.00" fill="#000000">omc_NFFunction_Function_name</text>
</a>
</g>
</g>
<!-- Node94&#45;&gt;Node95 -->
<g id="edge30" class="edge">
<title>Node94&#45;&gt;Node95</title>
<path fill="none" stroke="#191970" d="M645.8464,-629.5413C668.4158,-634.993 697.2883,-641.9315 723,-648 732.9202,-650.3414 743.5219,-652.8173 753.6974,-655.1808"/>
<polygon fill="#191970" stroke="#191970" points="753.1576,-658.6484 763.6897,-657.4975 754.7387,-651.8293 753.1576,-658.6484"/>
</g>
<!-- Node96 -->
<g id="node21" class="node">
<title>Node96</title>
<g id="a_node21"><a xlink:href="../../df/d26/_n_f_component_ref_8c.html#acaced5774427acd4b9ac9d403c7acd97" target="_top" xlink:title="omc_NFComponentRef\l_toPath">
<polygon fill="#ffffff" stroke="#000000" points="745,-608 745,-638 865,-638 865,-608 745,-608"/>
<text text-anchor="start" x="753" y="-626" font-family="Helvetica,sans-Serif" font-size="10.00" fill="#000000">omc_NFComponentRef</text>
<text text-anchor="middle" x="805" y="-615" font-family="Helvetica,sans-Serif" font-size="10.00" fill="#000000">_toPath</text>
</a>
</g>
</g>
<!-- Node94&#45;&gt;Node96 -->
<g id="edge31" class="edge">
<title>Node94&#45;&gt;Node96</title>
<path fill="none" stroke="#191970" d="M675.0904,-621.0366C694.2783,-621.3266 715.1616,-621.6422 734.4603,-621.9339"/>
<polygon fill="#191970" stroke="#191970" points="734.6412,-625.4369 744.693,-622.0886 734.747,-618.4377 734.6412,-625.4369"/>
</g>
<!-- Node97 -->
<g id="node22" class="node">
<title>Node97</title>
<g id="a_node22"><a xlink:href="../../d9/dd8/_n_f_call_8c.html#aecda0913056549a7a9ca4f45a3aa3356" target="_top" xlink:title="omc_NFCall_Call_arguments">
<polygon fill="#ffffff" stroke="#000000" points="732.5,-695.5 732.5,-714.5 877.5,-714.5 877.5,-695.5 732.5,-695.5"/>
<text text-anchor="middle" x="805" y="-702.5" font-family="Helvetica,sans-Serif" font-size="10.00" fill="#000000">omc_NFCall_Call_arguments</text>
</a>
</g>
</g>
<!-- Node94&#45;&gt;Node97 -->
<g id="edge33" class="edge">
<title>Node94&#45;&gt;Node97</title>
<path fill="none" stroke="#191970" d="M620.1939,-629.5056C641.3272,-643.761 683.5795,-670.6392 723,-686 729.6463,-688.5898 736.7394,-690.8828 743.8671,-692.898"/>
<polygon fill="#191970" stroke="#191970" points="743.006,-696.2906 753.5695,-695.4756 744.8034,-689.5253 743.006,-696.2906"/>
</g>
<!-- Node98&#45;&gt;Node78 -->
<g id="edge35" class="edge">
<title>Node98&#45;&gt;Node78</title>
<path fill="none" stroke="#191970" d="M1074.2071,-298.8423C1126.3425,-294.5769 1200.3705,-287.9433 1265,-280 1273.3689,-278.9714 1282.1509,-277.7764 1290.8252,-276.5263"/>
<polygon fill="#191970" stroke="#191970" points="1291.5432,-279.9584 1300.9273,-275.0402 1290.5244,-273.033 1291.5432,-279.9584"/>
</g>
</g>
</svg>
