<?xml version="1.0" encoding="UTF-8" standalone="no"?>
<!DOCTYPE svg PUBLIC "-//W3C//DTD SVG 1.1//EN"
 "http://www.w3.org/Graphics/SVG/1.1/DTD/svg11.dtd">
<!-- Generated by graphviz version 2.40.1 (20161225.0304)
 -->
<!-- Title: omc_NFExpression_ClockKind_toString Pages: 1 -->
<svg width="880pt" height="319pt"
 viewBox="0.00 0.00 880.00 319.49" xmlns="http://www.w3.org/2000/svg" xmlns:xlink="http://www.w3.org/1999/xlink">
<g id="graph0" class="graph" transform="scale(1 1) rotate(0) translate(4 315.4906)">
<title>omc_NFExpression_ClockKind_toString</title>
<polygon fill="#ffffff" stroke="transparent" points="-4,4 -4,-315.4906 876,-315.4906 876,4 -4,4"/>
<!-- Node1608 -->
<g id="node1" class="node">
<title>Node1608</title>
<polygon fill="#bfbfbf" stroke="#000000" points="0,-223 0,-253 153,-253 153,-223 0,-223"/>
<text text-anchor="start" x="8" y="-241" font-family="Helvetica,sans-Serif" font-size="10.00" fill="#000000">omc_NFExpression_ClockKind</text>
<text text-anchor="middle" x="76.5" y="-230" font-family="Helvetica,sans-Serif" font-size="10.00" fill="#000000">_toString</text>
</g>
<!-- Node1609 -->
<g id="node2" class="node">
<title>Node1609</title>
<g id="a_node2"><a xlink:href="../../d7/deb/build_2include_2omc_2c_2util_2modelica__string_8c.html#a751007abc59e9ca7978f2af10a0c814f" target="_top" xlink:title="stringAppend">
<polygon fill="#ffffff" stroke="#000000" points="783,-177.5 783,-196.5 857,-196.5 857,-177.5 783,-177.5"/>
<text text-anchor="middle" x="820" y="-184.5" font-family="Helvetica,sans-Serif" font-size="10.00" fill="#000000">stringAppend</text>
</a>
</g>
</g>
<!-- Node1608&#45;&gt;Node1609 -->
<g id="edge1" class="edge">
<title>Node1608&#45;&gt;Node1609</title>
<path fill="none" stroke="#191970" d="M122.2911,-253.0736C232.7146,-286.7147 520.1763,-358.0105 732,-266 763.1905,-252.4517 790.8583,-223.3645 806.505,-204.5174"/>
<polygon fill="#191970" stroke="#191970" points="809.2761,-206.6565 812.8176,-196.6711 803.8221,-202.2686 809.2761,-206.6565"/>
</g>
<!-- Node1610 -->
<g id="node3" class="node">
<title>Node1610</title>
<g id="a_node3"><a xlink:href="../../db/d0c/_n_f_expression_8c.html#aa21cd13e8dae56b3a64fa1e0764ca504" target="_top" xlink:title="omc_NFExpression_toString">
<polygon fill="#ffffff" stroke="#000000" points="189,-149.5 189,-168.5 331,-168.5 331,-149.5 189,-149.5"/>
<text text-anchor="middle" x="260" y="-156.5" font-family="Helvetica,sans-Serif" font-size="10.00" fill="#000000">omc_NFExpression_toString</text>
</a>
</g>
</g>
<!-- Node1608&#45;&gt;Node1610 -->
<g id="edge2" class="edge">
<title>Node1608&#45;&gt;Node1610</title>
<path fill="none" stroke="#191970" d="M111.4469,-222.9548C145.1838,-208.4304 195.8139,-186.6332 228.3813,-172.6124"/>
<polygon fill="#191970" stroke="#191970" points="230.0689,-175.6965 237.8699,-168.5274 227.3009,-169.267 230.0689,-175.6965"/>
</g>
<!-- Node1610&#45;&gt;Node1609 -->
<g id="edge5" class="edge">
<title>Node1610&#45;&gt;Node1609</title>
<path fill="none" stroke="#191970" d="M266.3046,-168.6759C280.9207,-190.0994 319.5219,-241.1313 367,-260 519.3651,-320.5529 719.5458,-236.5527 792.1696,-201.2949"/>
<polygon fill="#191970" stroke="#191970" points="794.1345,-204.2283 801.5524,-196.6635 791.0361,-197.9514 794.1345,-204.2283"/>
</g>
<!-- Node1610&#45;&gt;Node1610 -->
<g id="edge19" class="edge">
<title>Node1610&#45;&gt;Node1610</title>
<path fill="none" stroke="#191970" d="M231.9485,-168.7571C218.3018,-177.5653 227.6523,-187 260,-187 282.239,-187 293.6083,-182.5406 294.1078,-176.8913"/>
<polygon fill="#191970" stroke="#191970" points="296.8308,-174.6878 288.0515,-168.7571 291.2162,-178.8682 296.8308,-174.6878"/>
</g>
<!-- Node1611 -->
<g id="node4" class="node">
<title>Node1611</title>
<g id="a_node4"><a xlink:href="../../d2/d57/build_2include_2omc_2c_2meta_2meta__modelica__builtin_8h.html#a751bf2360cb3df6de97811998890b7ea" target="_top" xlink:title="intString">
<polygon fill="#ffffff" stroke="#000000" points="421,-231.5 421,-250.5 474,-250.5 474,-231.5 421,-231.5"/>
<text text-anchor="middle" x="447.5" y="-238.5" font-family="Helvetica,sans-Serif" font-size="10.00" fill="#000000">intString</text>
</a>
</g>
</g>
<!-- Node1610&#45;&gt;Node1611 -->
<g id="edge3" class="edge">
<title>Node1610&#45;&gt;Node1611</title>
<path fill="none" stroke="#191970" d="M273.1716,-168.5365C292.7219,-182.2662 330.9934,-207.5367 367,-222 380.9391,-227.5991 396.9281,-231.7949 410.9642,-234.7993"/>
<polygon fill="#191970" stroke="#191970" points="410.2876,-238.2332 420.7822,-236.7794 411.6716,-231.3714 410.2876,-238.2332"/>
</g>
<!-- Node1612 -->
<g id="node5" class="node">
<title>Node1612</title>
<g id="a_node5"><a xlink:href="../../d2/d57/build_2include_2omc_2c_2meta_2meta__modelica__builtin_8h.html#a87fa8e77dec9dc00c51dc3bada543d0d" target="_top" xlink:title="realString">
<polygon fill="#ffffff" stroke="#000000" points="418.5,-193.5 418.5,-212.5 476.5,-212.5 476.5,-193.5 418.5,-193.5"/>
<text text-anchor="middle" x="447.5" y="-200.5" font-family="Helvetica,sans-Serif" font-size="10.00" fill="#000000">realString</text>
</a>
</g>
</g>
<!-- Node1610&#45;&gt;Node1612 -->
<g id="edge4" class="edge">
<title>Node1610&#45;&gt;Node1612</title>
<path fill="none" stroke="#191970" d="M300.6847,-168.5473C332.6594,-176.0507 376.9136,-186.4357 408.4576,-193.838"/>
<polygon fill="#191970" stroke="#191970" points="407.6857,-197.2519 418.2208,-196.1292 409.2849,-190.437 407.6857,-197.2519"/>
</g>
<!-- Node1613 -->
<g id="node6" class="node">
<title>Node1613</title>
<g id="a_node6"><a xlink:href="../../db/d0c/_n_f_expression_8c.html#a689e3cabdc1f90e81d96100ef7508aa2" target="_top" xlink:title="omc_NFExpression_ClockKind\l_toString">
<polygon fill="#ffffff" stroke="#000000" points="371,-144 371,-174 524,-174 524,-144 371,-144"/>
<text text-anchor="start" x="379" y="-162" font-family="Helvetica,sans-Serif" font-size="10.00" fill="#000000">omc_NFExpression_ClockKind</text>
<text text-anchor="middle" x="447.5" y="-151" font-family="Helvetica,sans-Serif" font-size="10.00" fill="#000000">_toString</text>
</a>
</g>
</g>
<!-- Node1610&#45;&gt;Node1613 -->
<g id="edge6" class="edge">
<title>Node1610&#45;&gt;Node1613</title>
<path fill="none" stroke="#191970" d="M331.1531,-152.4274C340.7642,-152.2738 350.7123,-152.2199 360.5597,-152.2659"/>
<polygon fill="#191970" stroke="#191970" points="360.7384,-155.7673 370.7669,-152.3498 360.7961,-148.7676 360.7384,-155.7673"/>
</g>
<!-- Node1614 -->
<g id="node7" class="node">
<title>Node1614</title>
<g id="a_node7"><a xlink:href="../../df/d26/_n_f_component_ref_8c.html#a6ed4d3459688e0bb2548fe4d77323305" target="_top" xlink:title="omc_NFComponentRef\l_toString">
<polygon fill="#ffffff" stroke="#000000" points="387.5,-77 387.5,-107 507.5,-107 507.5,-77 387.5,-77"/>
<text text-anchor="start" x="395.5" y="-95" font-family="Helvetica,sans-Serif" font-size="10.00" fill="#000000">omc_NFComponentRef</text>
<text text-anchor="middle" x="447.5" y="-84" font-family="Helvetica,sans-Serif" font-size="10.00" fill="#000000">_toString</text>
</a>
</g>
</g>
<!-- Node1610&#45;&gt;Node1614 -->
<g id="edge9" class="edge">
<title>Node1610&#45;&gt;Node1614</title>
<path fill="none" stroke="#191970" d="M286.8642,-149.4005C315.1871,-139.2798 360.5046,-123.0864 395.7959,-110.4756"/>
<polygon fill="#191970" stroke="#191970" points="397.2224,-113.6827 405.4615,-107.0218 394.8669,-107.0909 397.2224,-113.6827"/>
</g>
<!-- Node1619 -->
<g id="node12" class="node">
<title>Node1619</title>
<g id="a_node12"><a xlink:href="../../d4/dc3/_n_f_type_8c.html#ae755ce0a7da1e27fe0adc1802a04fc29" target="_top" xlink:title="omc_NFType_typenameString">
<polygon fill="#ffffff" stroke="#000000" points="373,-38.5 373,-57.5 522,-57.5 522,-38.5 373,-38.5"/>
<text text-anchor="middle" x="447.5" y="-45.5" font-family="Helvetica,sans-Serif" font-size="10.00" fill="#000000">omc_NFType_typenameString</text>
</a>
</g>
</g>
<!-- Node1610&#45;&gt;Node1619 -->
<g id="edge17" class="edge">
<title>Node1610&#45;&gt;Node1619</title>
<path fill="none" stroke="#191970" d="M268.3355,-149.2199C285.0372,-130.2797 324.6467,-88.5659 367,-67 371.6007,-64.6574 376.4969,-62.598 381.5148,-60.7885"/>
<polygon fill="#191970" stroke="#191970" points="382.8468,-64.0357 391.2691,-57.608 380.6767,-57.3805 382.8468,-64.0357"/>
</g>
<!-- Node1620 -->
<g id="node13" class="node">
<title>Node1620</title>
<g id="a_node13"><a xlink:href="../../d4/dc3/_n_f_type_8c.html#aa3d05008c6c70c4f5ecfe1ee17dd1d7b" target="_top" xlink:title="omc_NFType_arrayElementType">
<polygon fill="#ffffff" stroke="#000000" points="367,-.5 367,-19.5 528,-19.5 528,-.5 367,-.5"/>
<text text-anchor="middle" x="447.5" y="-7.5" font-family="Helvetica,sans-Serif" font-size="10.00" fill="#000000">omc_NFType_arrayElementType</text>
</a>
</g>
</g>
<!-- Node1610&#45;&gt;Node1620 -->
<g id="edge18" class="edge">
<title>Node1610&#45;&gt;Node1620</title>
<path fill="none" stroke="#191970" d="M264.9914,-149.3489C278.1187,-124.9836 316.1327,-60.6764 367,-29 370.3997,-26.8829 374.0141,-25.0016 377.7562,-23.3298"/>
<polygon fill="#191970" stroke="#191970" points="379.2438,-26.5058 387.2709,-19.5909 376.6836,-19.9908 379.2438,-26.5058"/>
</g>
<!-- Node1613&#45;&gt;Node1609 -->
<g id="edge7" class="edge">
<title>Node1613&#45;&gt;Node1609</title>
<path fill="none" stroke="#191970" d="M524.2306,-164.7677C598.8767,-170.3787 709.9243,-178.7259 772.5567,-183.4338"/>
<polygon fill="#191970" stroke="#191970" points="772.318,-186.9256 782.5522,-184.1851 772.8427,-179.9453 772.318,-186.9256"/>
</g>
<!-- Node1613&#45;&gt;Node1610 -->
<g id="edge8" class="edge">
<title>Node1613&#45;&gt;Node1610</title>
<path fill="none" stroke="#191970" d="M370.7669,-165.6502C361.0423,-165.7654 351.065,-165.7809 341.2725,-165.6966"/>
<polygon fill="#191970" stroke="#191970" points="341.1952,-162.1955 331.1531,-165.5726 341.1094,-169.1949 341.1952,-162.1955"/>
</g>
<!-- Node1614&#45;&gt;Node1609 -->
<g id="edge10" class="edge">
<title>Node1614&#45;&gt;Node1609</title>
<path fill="none" stroke="#191970" d="M489.7556,-107.0881C511.7187,-114.5968 539.1066,-123.4446 564,-130 637.6689,-149.3998 657.7853,-146.8059 732,-164 746.2358,-167.2982 761.6784,-171.2172 775.5953,-174.8774"/>
<polygon fill="#191970" stroke="#191970" points="774.857,-178.3025 785.4202,-177.4842 776.6522,-171.5366 774.857,-178.3025"/>
</g>
<!-- Node1614&#45;&gt;Node1614 -->
<g id="edge16" class="edge">
<title>Node1614&#45;&gt;Node1614</title>
<path fill="none" stroke="#191970" d="M415.0857,-107.159C407.2694,-116.5566 418.0742,-125.5 447.5,-125.5 465.4313,-125.5 476.448,-122.179 480.55,-117.4579"/>
<polygon fill="#191970" stroke="#191970" points="484.0238,-116.9244 479.9143,-107.159 477.0371,-117.3556 484.0238,-116.9244"/>
</g>
<!-- Node1615 -->
<g id="node8" class="node">
<title>Node1615</title>
<g id="a_node8"><a xlink:href="../../d7/d21/_n_f_inst_node_8c.html#a0448a520b8f4a2cf341ecde6c2f2fd93" target="_top" xlink:title="omc_NFInstNode_InstNode_name">
<polygon fill="#ffffff" stroke="#000000" points="564,-101.5 564,-120.5 732,-120.5 732,-101.5 564,-101.5"/>
<text text-anchor="middle" x="648" y="-108.5" font-family="Helvetica,sans-Serif" font-size="10.00" fill="#000000">omc_NFInstNode_InstNode_name</text>
</a>
</g>
</g>
<!-- Node1614&#45;&gt;Node1615 -->
<g id="edge11" class="edge">
<title>Node1614&#45;&gt;Node1615</title>
<path fill="none" stroke="#191970" d="M507.6566,-97.7006C522.1338,-99.0725 537.9465,-100.571 553.5701,-102.0515"/>
<polygon fill="#191970" stroke="#191970" points="553.5082,-105.5613 563.7938,-103.0204 554.1686,-98.5925 553.5082,-105.5613"/>
</g>
<!-- Node1617 -->
<g id="node10" class="node">
<title>Node1617</title>
<g id="a_node10"><a xlink:href="../../d0/d93/_n_f_subscript_8c.html#a838dcb1a0a3fa30093af4434ca20aab7" target="_top" xlink:title="omc_NFSubscript_toStringList">
<polygon fill="#ffffff" stroke="#000000" points="573,-62.5 573,-81.5 723,-81.5 723,-62.5 573,-62.5"/>
<text text-anchor="middle" x="648" y="-69.5" font-family="Helvetica,sans-Serif" font-size="10.00" fill="#000000">omc_NFSubscript_toStringList</text>
</a>
</g>
</g>
<!-- Node1614&#45;&gt;Node1617 -->
<g id="edge14" class="edge">
<title>Node1614&#45;&gt;Node1617</title>
<path fill="none" stroke="#191970" d="M507.6566,-85.9993C525.0607,-84.2633 544.3951,-82.3347 563.0106,-80.4777"/>
<polygon fill="#191970" stroke="#191970" points="563.3593,-83.9604 572.9625,-79.485 562.6644,-76.995 563.3593,-83.9604"/>
</g>
<!-- Node1615&#45;&gt;Node1609 -->
<g id="edge13" class="edge">
<title>Node1615&#45;&gt;Node1609</title>
<path fill="none" stroke="#191970" d="M689.3179,-120.55C703.1508,-124.3368 718.4841,-129.1897 732,-135 755.3848,-145.0529 780.1911,-160.1653 797.4846,-171.5115"/>
<polygon fill="#191970" stroke="#191970" points="796.0021,-174.73 806.2624,-177.3714 799.8887,-168.9081 796.0021,-174.73"/>
</g>
<!-- Node1616 -->
<g id="node9" class="node">
<title>Node1616</title>
<g id="a_node9"><a xlink:href="../../d7/deb/build_2include_2omc_2c_2util_2modelica__string_8c.html#a672ff4045e2d75c0029e6cc5d7f0a507" target="_top" xlink:title="modelica_integer_to\l_modelica_string">
<polygon fill="#ffffff" stroke="#000000" points="768,-98 768,-128 872,-128 872,-98 768,-98"/>
<text text-anchor="start" x="776" y="-116" font-family="Helvetica,sans-Serif" font-size="10.00" fill="#000000">modelica_integer_to</text>
<text text-anchor="middle" x="820" y="-105" font-family="Helvetica,sans-Serif" font-size="10.00" fill="#000000">_modelica_string</text>
</a>
</g>
</g>
<!-- Node1615&#45;&gt;Node1616 -->
<g id="edge12" class="edge">
<title>Node1615&#45;&gt;Node1616</title>
<path fill="none" stroke="#191970" d="M732.2364,-111.9795C740.7348,-112.0783 749.2561,-112.1774 757.4683,-112.2729"/>
<polygon fill="#191970" stroke="#191970" points="757.64,-115.775 767.6801,-112.3916 757.7215,-108.7755 757.64,-115.775"/>
</g>
<!-- Node1618 -->
<g id="node11" class="node">
<title>Node1618</title>
<g id="a_node11"><a xlink:href="../../da/d72/_compiler_2boot_2build_2list_8c.html#ac6039d0bf54fda4c417fe289f1aa7d89" target="_top" xlink:title="omc_List_toString">
<polygon fill="#ffffff" stroke="#000000" points="772.5,-59.5 772.5,-78.5 867.5,-78.5 867.5,-59.5 772.5,-59.5"/>
<text text-anchor="middle" x="820" y="-66.5" font-family="Helvetica,sans-Serif" font-size="10.00" fill="#000000">omc_List_toString</text>
</a>
</g>
</g>
<!-- Node1617&#45;&gt;Node1618 -->
<g id="edge15" class="edge">
<title>Node1617&#45;&gt;Node1618</title>
<path fill="none" stroke="#191970" d="M723.1915,-70.6885C736.1859,-70.4619 749.5147,-70.2294 761.9659,-70.0122"/>
<polygon fill="#191970" stroke="#191970" points="762.2545,-73.5078 772.1919,-69.8339 762.1324,-66.5089 762.2545,-73.5078"/>
</g>
</g>
</svg>
