<?xml version="1.0" encoding="UTF-8" standalone="no"?>
<!DOCTYPE svg PUBLIC "-//W3C//DTD SVG 1.1//EN"
 "http://www.w3.org/Graphics/SVG/1.1/DTD/svg11.dtd">
<!-- Generated by graphviz version 2.40.1 (20161225.0304)
 -->
<!-- Title: omc_NFExpression_applyIndexSubscriptArray Pages: 1 -->
<svg width="1165pt" height="214pt"
 viewBox="0.00 0.00 1165.00 214.00" xmlns="http://www.w3.org/2000/svg" xmlns:xlink="http://www.w3.org/1999/xlink">
<g id="graph0" class="graph" transform="scale(1 1) rotate(0) translate(4 210)">
<title>omc_NFExpression_applyIndexSubscriptArray</title>
<polygon fill="#ffffff" stroke="transparent" points="-4,4 -4,-210 1161,-210 1161,4 -4,4"/>
<!-- Node625 -->
<g id="node1" class="node">
<title>Node625</title>
<polygon fill="#bfbfbf" stroke="#000000" points="0,-71 0,-101 155,-101 155,-71 0,-71"/>
<text text-anchor="start" x="8" y="-89" font-family="Helvetica,sans-Serif" font-size="10.00" fill="#000000">omc_NFExpression_applyIndex</text>
<text text-anchor="middle" x="77.5" y="-78" font-family="Helvetica,sans-Serif" font-size="10.00" fill="#000000">SubscriptArray</text>
</g>
<!-- Node626 -->
<g id="node2" class="node">
<title>Node626</title>
<g id="a_node2"><a xlink:href="../../d2/dfa/_n_f_expression_8h.html#a38174046b4c8d57266209c1241a4ff48" target="_top" xlink:title="omc_NFExpression_applySubscript\lArray">
<polygon fill="#ffffff" stroke="#000000" points="191,-85 191,-115 364,-115 364,-85 191,-85"/>
<text text-anchor="start" x="199" y="-103" font-family="Helvetica,sans-Serif" font-size="10.00" fill="#000000">omc_NFExpression_applySubscript</text>
<text text-anchor="middle" x="277.5" y="-92" font-family="Helvetica,sans-Serif" font-size="10.00" fill="#000000">Array</text>
</a>
</g>
</g>
<!-- Node625&#45;&gt;Node626 -->
<g id="edge1" class="edge">
<title>Node625&#45;&gt;Node626</title>
<path fill="none" stroke="#191970" d="M165.1122,-92.1329C173.6929,-92.7335 182.3971,-93.3428 190.967,-93.9427"/>
<polygon fill="#191970" stroke="#191970" points="165.3315,-88.6397 155.1115,-91.4328 164.8426,-95.6226 165.3315,-88.6397"/>
</g>
<!-- Node627 -->
<g id="node3" class="node">
<title>Node627</title>
<g id="a_node3"><a xlink:href="../../d2/dfa/_n_f_expression_8h.html#a42f737d3d937f57e51c520756f6c41b9" target="_top" xlink:title="omc_NFExpression_applySubscript">
<polygon fill="#ffffff" stroke="#000000" points="400,-98.5 400,-117.5 573,-117.5 573,-98.5 400,-98.5"/>
<text text-anchor="middle" x="486.5" y="-105.5" font-family="Helvetica,sans-Serif" font-size="10.00" fill="#000000">omc_NFExpression_applySubscript</text>
</a>
</g>
</g>
<!-- Node626&#45;&gt;Node627 -->
<g id="edge2" class="edge">
<title>Node626&#45;&gt;Node627</title>
<path fill="none" stroke="#191970" d="M374.0268,-103.6948C382.5937,-104.0227 391.2324,-104.3534 399.711,-104.6779"/>
<polygon fill="#191970" stroke="#191970" points="374.1436,-100.1968 364.017,-103.3117 373.8757,-107.1917 374.1436,-100.1968"/>
</g>
<!-- Node628 -->
<g id="node4" class="node">
<title>Node628</title>
<g id="a_node4"><a xlink:href="../../d2/dfa/_n_f_expression_8h.html#ab82aaf4b11fb0045bcb018c515d05042" target="_top" xlink:title="omc_NFExpression_applySubscriptIf">
<polygon fill="#ffffff" stroke="#000000" points="614.5,-186.5 614.5,-205.5 793.5,-205.5 793.5,-186.5 614.5,-186.5"/>
<text text-anchor="middle" x="704" y="-193.5" font-family="Helvetica,sans-Serif" font-size="10.00" fill="#000000">omc_NFExpression_applySubscriptIf</text>
</a>
</g>
</g>
<!-- Node627&#45;&gt;Node628 -->
<g id="edge3" class="edge">
<title>Node627&#45;&gt;Node628</title>
<path fill="none" stroke="#191970" d="M519.2387,-122.7062C543.1512,-136.4917 576.8763,-156.0849 609,-168 632.9702,-176.8909 661.967,-181.9221 681.5709,-186.4265"/>
<polygon fill="#191970" stroke="#191970" points="520.6769,-119.4962 510.2614,-117.555 517.193,-125.5677 520.6769,-119.4962"/>
</g>
<!-- Node629 -->
<g id="node5" class="node">
<title>Node629</title>
<g id="a_node5"><a xlink:href="../../d2/dfa/_n_f_expression_8h.html#aed4280bfed6483b023bef2dc307b66da" target="_top" xlink:title="omc_NFExpression_applyIndex\lSubscriptArrayConstructor">
<polygon fill="#ffffff" stroke="#000000" points="626.5,-137 626.5,-167 781.5,-167 781.5,-137 626.5,-137"/>
<text text-anchor="start" x="634.5" y="-155" font-family="Helvetica,sans-Serif" font-size="10.00" fill="#000000">omc_NFExpression_applyIndex</text>
<text text-anchor="middle" x="704" y="-144" font-family="Helvetica,sans-Serif" font-size="10.00" fill="#000000">SubscriptArrayConstructor</text>
</a>
</g>
</g>
<!-- Node627&#45;&gt;Node629 -->
<g id="edge5" class="edge">
<title>Node627&#45;&gt;Node629</title>
<path fill="none" stroke="#191970" d="M543.4993,-119.5309C569.8027,-124.852 601.3733,-131.2387 629.5292,-136.9346"/>
<polygon fill="#191970" stroke="#191970" points="544.1897,-116.0997 533.6943,-117.5473 542.8017,-122.9608 544.1897,-116.0997"/>
</g>
<!-- Node631 -->
<g id="node7" class="node">
<title>Node631</title>
<g id="a_node7"><a xlink:href="../../d2/dfa/_n_f_expression_8h.html#adc8f18bc043b92bc40291fdd5a0ad47f" target="_top" xlink:title="omc_NFExpression_applySubscriptCall">
<polygon fill="#ffffff" stroke="#000000" points="609,-98.5 609,-117.5 799,-117.5 799,-98.5 609,-98.5"/>
<text text-anchor="middle" x="704" y="-105.5" font-family="Helvetica,sans-Serif" font-size="10.00" fill="#000000">omc_NFExpression_applySubscriptCall</text>
</a>
</g>
</g>
<!-- Node627&#45;&gt;Node631 -->
<g id="edge8" class="edge">
<title>Node627&#45;&gt;Node631</title>
<path fill="none" stroke="#191970" d="M583.3331,-101.2862C591.7843,-101.2347 600.3326,-101.2382 608.7707,-101.2966"/>
<polygon fill="#191970" stroke="#191970" points="583.0555,-97.7884 573.0867,-101.3762 583.1171,-104.7881 583.0555,-97.7884"/>
</g>
<!-- Node632 -->
<g id="node8" class="node">
<title>Node632</title>
<g id="a_node8"><a xlink:href="../../d2/dfa/_n_f_expression_8h.html#a7667ea68914bbe768f0af5cd2dcd163f" target="_top" xlink:title="omc_NFExpression_applySubscripts">
<polygon fill="#ffffff" stroke="#000000" points="615,-22.5 615,-41.5 793,-41.5 793,-22.5 615,-22.5"/>
<text text-anchor="middle" x="704" y="-29.5" font-family="Helvetica,sans-Serif" font-size="10.00" fill="#000000">omc_NFExpression_applySubscripts</text>
</a>
</g>
</g>
<!-- Node627&#45;&gt;Node632 -->
<g id="edge10" class="edge">
<title>Node627&#45;&gt;Node632</title>
<path fill="none" stroke="#191970" d="M515.6149,-94.137C540.1312,-82.8307 576.3281,-66.9886 609,-56 625.4462,-50.4686 643.8683,-45.535 660.0809,-41.6009"/>
<polygon fill="#191970" stroke="#191970" points="514.0937,-90.9844 506.5049,-98.3777 517.0478,-97.3305 514.0937,-90.9844"/>
</g>
<!-- Node628&#45;&gt;Node627 -->
<g id="edge4" class="edge">
<title>Node628&#45;&gt;Node627</title>
<path fill="none" stroke="#191970" d="M604.8662,-184.2334C556.3666,-164.6816 511.13,-134.0921 493.8308,-117.6866"/>
<polygon fill="#191970" stroke="#191970" points="603.6881,-187.5304 614.2776,-187.8694 606.2109,-181.0007 603.6881,-187.5304"/>
</g>
<!-- Node630 -->
<g id="node6" class="node">
<title>Node630</title>
<g id="a_node6"><a xlink:href="../../d2/dfa/_n_f_expression_8h.html#a033464c2714ff9cd8b8c97642a5499f7" target="_top" xlink:title="omc_NFExpression_applySubscript\lArrayConstructor">
<polygon fill="#ffffff" stroke="#000000" points="835,-112 835,-142 1008,-142 1008,-112 835,-112"/>
<text text-anchor="start" x="843" y="-130" font-family="Helvetica,sans-Serif" font-size="10.00" fill="#000000">omc_NFExpression_applySubscript</text>
<text text-anchor="middle" x="921.5" y="-119" font-family="Helvetica,sans-Serif" font-size="10.00" fill="#000000">ArrayConstructor</text>
</a>
</g>
</g>
<!-- Node629&#45;&gt;Node630 -->
<g id="edge6" class="edge">
<title>Node629&#45;&gt;Node630</title>
<path fill="none" stroke="#191970" d="M791.796,-141.9085C805.9357,-140.2833 820.5666,-138.6015 834.683,-136.979"/>
<polygon fill="#191970" stroke="#191970" points="791.1362,-138.4612 781.6013,-143.0803 791.9356,-145.4154 791.1362,-138.4612"/>
</g>
<!-- Node630&#45;&gt;Node627 -->
<g id="edge7" class="edge">
<title>Node630&#45;&gt;Node627</title>
<path fill="none" stroke="#191970" d="M873.9834,-108.604C851.6023,-100.8925 824.3147,-92.8362 799,-89 707.2388,-75.0945 598.861,-88.1914 536.8556,-98.4562"/>
<polygon fill="#191970" stroke="#191970" points="872.98,-111.9614 883.5748,-111.99 875.3103,-105.3607 872.98,-111.9614"/>
</g>
<!-- Node631&#45;&gt;Node627 -->
<g id="edge9" class="edge">
<title>Node631&#45;&gt;Node627</title>
<path fill="none" stroke="#191970" d="M598.7174,-114.7469C590.1312,-114.7621 581.5162,-114.721 573.0867,-114.6238"/>
<polygon fill="#191970" stroke="#191970" points="598.786,-118.2468 608.7707,-114.7034 598.7556,-111.2468 598.786,-118.2468"/>
</g>
<!-- Node632&#45;&gt;Node625 -->
<g id="edge13" class="edge">
<title>Node632&#45;&gt;Node625</title>
<path fill="none" stroke="#191970" d="M604.4529,-40.4694C501.0911,-49.2794 334.7113,-63.5061 191,-76 179.373,-77.0108 167.0766,-78.0869 155.037,-79.1444"/>
<polygon fill="#191970" stroke="#191970" points="604.8992,-43.9441 614.5658,-39.6075 604.3047,-36.9694 604.8992,-43.9441"/>
</g>
<!-- Node633 -->
<g id="node9" class="node">
<title>Node633</title>
<g id="a_node9"><a xlink:href="../../da/d0e/_n_f_eval_function_8c.html#afe0eead29e3f6b55342c23c7990b9d88" target="_top" xlink:title="omc_NFEvalFunction\l_applyReplacementCref">
<polygon fill="#ffffff" stroke="#000000" points="860.5,-39 860.5,-69 982.5,-69 982.5,-39 860.5,-39"/>
<text text-anchor="start" x="868.5" y="-57" font-family="Helvetica,sans-Serif" font-size="10.00" fill="#000000">omc_NFEvalFunction</text>
<text text-anchor="middle" x="921.5" y="-46" font-family="Helvetica,sans-Serif" font-size="10.00" fill="#000000">_applyReplacementCref</text>
</a>
</g>
</g>
<!-- Node632&#45;&gt;Node633 -->
<g id="edge11" class="edge">
<title>Node632&#45;&gt;Node633</title>
<path fill="none" stroke="#191970" d="M803.2402,-42.0381C822.7415,-44.0106 842.6537,-46.0247 860.4428,-47.8241"/>
<polygon fill="#191970" stroke="#191970" points="803.3946,-38.5359 793.0931,-41.0117 802.6901,-45.5004 803.3946,-38.5359"/>
</g>
<!-- Node635 -->
<g id="node11" class="node">
<title>Node635</title>
<g id="a_node11"><a xlink:href="../../de/d12/_n_f_inline_8c.html#aa85c612581195f94d7e9e362b0d4a155" target="_top" xlink:title="omc_NFInline_replaceCrefNode">
<polygon fill="#ffffff" stroke="#000000" points="843.5,-.5 843.5,-19.5 999.5,-19.5 999.5,-.5 843.5,-.5"/>
<text text-anchor="middle" x="921.5" y="-7.5" font-family="Helvetica,sans-Serif" font-size="10.00" fill="#000000">omc_NFInline_replaceCrefNode</text>
</a>
</g>
</g>
<!-- Node632&#45;&gt;Node635 -->
<g id="edge14" class="edge">
<title>Node632&#45;&gt;Node635</title>
<path fill="none" stroke="#191970" d="M803.3097,-21.9549C816.737,-20.5967 830.3577,-19.219 843.3448,-17.9054"/>
<polygon fill="#191970" stroke="#191970" points="802.6901,-18.4996 793.0931,-22.9883 803.3946,-25.4641 802.6901,-18.4996"/>
</g>
<!-- Node634 -->
<g id="node10" class="node">
<title>Node634</title>
<g id="a_node10"><a xlink:href="../../da/d0e/_n_f_eval_function_8c.html#a0b3f982d2991d496ff025665151b72a0" target="_top" xlink:title="omc_NFEvalFunction\l_applyReplacements2">
<polygon fill="#ffffff" stroke="#000000" points="1044,-39 1044,-69 1157,-69 1157,-39 1044,-39"/>
<text text-anchor="start" x="1052" y="-57" font-family="Helvetica,sans-Serif" font-size="10.00" fill="#000000">omc_NFEvalFunction</text>
<text text-anchor="middle" x="1100.5" y="-46" font-family="Helvetica,sans-Serif" font-size="10.00" fill="#000000">_applyReplacements2</text>
</a>
</g>
</g>
<!-- Node633&#45;&gt;Node634 -->
<g id="edge12" class="edge">
<title>Node633&#45;&gt;Node634</title>
<path fill="none" stroke="#191970" d="M992.9979,-54C1009.9186,-54 1027.7348,-54 1043.8902,-54"/>
<polygon fill="#191970" stroke="#191970" points="992.601,-50.5001 982.601,-54 992.601,-57.5001 992.601,-50.5001"/>
</g>
</g>
</svg>
