<?xml version="1.0" encoding="UTF-8" standalone="no"?>
<!DOCTYPE svg PUBLIC "-//W3C//DTD SVG 1.1//EN"
 "http://www.w3.org/Graphics/SVG/1.1/DTD/svg11.dtd">
<!-- Generated by graphviz version 2.40.1 (20161225.0304)
 -->
<!-- Title: omc_Initialization_isVarExplicitSolvable Pages: 1 -->
<svg width="560pt" height="88pt"
 viewBox="0.00 0.00 560.00 88.00" xmlns="http://www.w3.org/2000/svg" xmlns:xlink="http://www.w3.org/1999/xlink">
<g id="graph0" class="graph" transform="scale(1 1) rotate(0) translate(4 84)">
<title>omc_Initialization_isVarExplicitSolvable</title>
<polygon fill="#ffffff" stroke="transparent" points="-4,4 -4,-84 556,-84 556,4 -4,4"/>
<!-- Node628 -->
<g id="node1" class="node">
<title>Node628</title>
<polygon fill="#bfbfbf" stroke="#000000" points="0,-24.5 0,-54.5 114,-54.5 114,-24.5 0,-24.5"/>
<text text-anchor="start" x="8" y="-42.5" font-family="Helvetica,sans-Serif" font-size="10.00" fill="#000000">omc_Initialization</text>
<text text-anchor="middle" x="57" y="-31.5" font-family="Helvetica,sans-Serif" font-size="10.00" fill="#000000">_isVarExplicitSolvable</text>
</g>
<!-- Node629 -->
<g id="node2" class="node">
<title>Node629</title>
<g id="a_node2"><a xlink:href="../../d2/dfb/_compiler_2boot_2build_2initialization_8c.html#a01dd132a4952bc1b175c35bb2afa10af" target="_top" xlink:title="omc_Initialization\l_setupVarReplacements">
<polygon fill="#ffffff" stroke="#000000" points="150,-49.5 150,-79.5 274,-79.5 274,-49.5 150,-49.5"/>
<text text-anchor="start" x="158" y="-67.5" font-family="Helvetica,sans-Serif" font-size="10.00" fill="#000000">omc_Initialization</text>
<text text-anchor="middle" x="212" y="-56.5" font-family="Helvetica,sans-Serif" font-size="10.00" fill="#000000">_setupVarReplacements</text>
</a>
</g>
</g>
<!-- Node628&#45;&gt;Node629 -->
<g id="edge1" class="edge">
<title>Node628&#45;&gt;Node629</title>
<path fill="none" stroke="#191970" d="M124.1541,-50.3313C132.6564,-51.7027 141.3279,-53.1013 149.7493,-54.4596"/>
<polygon fill="#191970" stroke="#191970" points="124.7057,-46.8751 114.2759,-48.738 123.591,-53.7858 124.7057,-46.8751"/>
</g>
<!-- Node632 -->
<g id="node5" class="node">
<title>Node632</title>
<g id="a_node5"><a xlink:href="../../d2/dfb/_compiler_2boot_2build_2initialization_8c.html#aef348bcb4c30146e14acdb2154bbb0e4" target="_top" xlink:title="boxptr_Initialization\l_isVarExplicitSolvable">
<polygon fill="#ffffff" stroke="#000000" points="155,-.5 155,-30.5 269,-30.5 269,-.5 155,-.5"/>
<text text-anchor="start" x="163" y="-18.5" font-family="Helvetica,sans-Serif" font-size="10.00" fill="#000000">boxptr_Initialization</text>
<text text-anchor="middle" x="212" y="-7.5" font-family="Helvetica,sans-Serif" font-size="10.00" fill="#000000">_isVarExplicitSolvable</text>
</a>
</g>
</g>
<!-- Node628&#45;&gt;Node632 -->
<g id="edge4" class="edge">
<title>Node628&#45;&gt;Node632</title>
<path fill="none" stroke="#191970" d="M124.3693,-29.0686C134.5689,-27.4893 145.0067,-25.8732 154.9595,-24.3321"/>
<polygon fill="#191970" stroke="#191970" points="123.6226,-25.6425 114.2759,-30.6315 124.6937,-32.56 123.6226,-25.6425"/>
</g>
<!-- Node630 -->
<g id="node3" class="node">
<title>Node630</title>
<g id="a_node3"><a xlink:href="../../d2/dfb/_compiler_2boot_2build_2initialization_8c.html#ac0b23b4e5f2f14ed262ef24fec943ce9" target="_top" xlink:title="omc_Initialization\l_consistencyCheck">
<polygon fill="#ffffff" stroke="#000000" points="310,-49.5 310,-79.5 413,-79.5 413,-49.5 310,-49.5"/>
<text text-anchor="start" x="318" y="-67.5" font-family="Helvetica,sans-Serif" font-size="10.00" fill="#000000">omc_Initialization</text>
<text text-anchor="middle" x="361.5" y="-56.5" font-family="Helvetica,sans-Serif" font-size="10.00" fill="#000000">_consistencyCheck</text>
</a>
</g>
</g>
<!-- Node629&#45;&gt;Node630 -->
<g id="edge2" class="edge">
<title>Node629&#45;&gt;Node630</title>
<path fill="none" stroke="#191970" d="M284.197,-64.5C292.8374,-64.5 301.5232,-64.5 309.7922,-64.5"/>
<polygon fill="#191970" stroke="#191970" points="284.1027,-61.0001 274.1027,-64.5 284.1026,-68.0001 284.1027,-61.0001"/>
</g>
<!-- Node631 -->
<g id="node4" class="node">
<title>Node631</title>
<g id="a_node4"><a xlink:href="../../d2/dfb/_compiler_2boot_2build_2initialization_8c.html#af09c81011bed8118eab5eb5b99124d4d" target="_top" xlink:title="boxptr_Initialization\l_consistencyCheck">
<polygon fill="#ffffff" stroke="#000000" points="449,-49.5 449,-79.5 552,-79.5 552,-49.5 449,-49.5"/>
<text text-anchor="start" x="457" y="-67.5" font-family="Helvetica,sans-Serif" font-size="10.00" fill="#000000">boxptr_Initialization</text>
<text text-anchor="middle" x="500.5" y="-56.5" font-family="Helvetica,sans-Serif" font-size="10.00" fill="#000000">_consistencyCheck</text>
</a>
</g>
</g>
<!-- Node630&#45;&gt;Node631 -->
<g id="edge3" class="edge">
<title>Node630&#45;&gt;Node631</title>
<path fill="none" stroke="#191970" d="M423.4413,-64.5C431.8784,-64.5 440.4658,-64.5 448.6983,-64.5"/>
<polygon fill="#191970" stroke="#191970" points="423.2585,-61.0001 413.2585,-64.5 423.2584,-68.0001 423.2585,-61.0001"/>
</g>
</g>
</svg>
