<?xml version="1.0" encoding="UTF-8" standalone="no"?>
<!DOCTYPE svg PUBLIC "-//W3C//DTD SVG 1.1//EN"
 "http://www.w3.org/Graphics/SVG/1.1/DTD/svg11.dtd">
<!-- Generated by graphviz version 2.40.1 (20161225.0304)
 -->
<!-- Title: omc_Initialization_warnAboutVars2Work Pages: 1 -->
<svg width="486pt" height="186pt"
 viewBox="0.00 0.00 486.00 186.00" xmlns="http://www.w3.org/2000/svg" xmlns:xlink="http://www.w3.org/1999/xlink">
<g id="graph0" class="graph" transform="scale(1 1) rotate(0) translate(4 182)">
<title>omc_Initialization_warnAboutVars2Work</title>
<polygon fill="#ffffff" stroke="transparent" points="-4,4 -4,-182 482,-182 482,4 -4,4"/>
<!-- Node1052 -->
<g id="node1" class="node">
<title>Node1052</title>
<polygon fill="#bfbfbf" stroke="#000000" points="0,-73.5 0,-103.5 117,-103.5 117,-73.5 0,-73.5"/>
<text text-anchor="start" x="8" y="-91.5" font-family="Helvetica,sans-Serif" font-size="10.00" fill="#000000">omc_Initialization</text>
<text text-anchor="middle" x="58.5" y="-80.5" font-family="Helvetica,sans-Serif" font-size="10.00" fill="#000000">_warnAboutVars2Work</text>
</g>
<!-- Node1053 -->
<g id="node2" class="node">
<title>Node1053</title>
<g id="a_node2"><a xlink:href="../../d1/d95/_system_8c.html#ad2e105aeacd5b1f062d1a0f82e45e34a" target="_top" xlink:title="omc_System_StringAllocator\l_constructor">
<polygon fill="#ffffff" stroke="#000000" points="153,-147.5 153,-177.5 296,-177.5 296,-147.5 153,-147.5"/>
<text text-anchor="start" x="161" y="-165.5" font-family="Helvetica,sans-Serif" font-size="10.00" fill="#000000">omc_System_StringAllocator</text>
<text text-anchor="middle" x="224.5" y="-154.5" font-family="Helvetica,sans-Serif" font-size="10.00" fill="#000000">_constructor</text>
</a>
</g>
</g>
<!-- Node1052&#45;&gt;Node1053 -->
<g id="edge1" class="edge">
<title>Node1052&#45;&gt;Node1053</title>
<path fill="none" stroke="#191970" d="M84.4151,-103.6842C103.0956,-114.262 129.1191,-128.2552 153,-138.5 157.3583,-140.3697 161.9146,-142.1907 166.5255,-143.9395"/>
<polygon fill="#191970" stroke="#191970" points="165.4274,-147.2646 176.0211,-147.4199 167.8364,-140.6922 165.4274,-147.2646"/>
</g>
<!-- Node1055 -->
<g id="node4" class="node">
<title>Node1055</title>
<g id="a_node4"><a xlink:href="../../d1/d95/_system_8c.html#af8847d2041f2dc8d967e8aecf3dc8c02" target="_top" xlink:title="omc_System_stringAllocator\lStringCopy">
<polygon fill="#ffffff" stroke="#000000" points="153.5,-98.5 153.5,-128.5 295.5,-128.5 295.5,-98.5 153.5,-98.5"/>
<text text-anchor="start" x="161.5" y="-116.5" font-family="Helvetica,sans-Serif" font-size="10.00" fill="#000000">omc_System_stringAllocator</text>
<text text-anchor="middle" x="224.5" y="-105.5" font-family="Helvetica,sans-Serif" font-size="10.00" fill="#000000">StringCopy</text>
</a>
</g>
</g>
<!-- Node1052&#45;&gt;Node1055 -->
<g id="edge3" class="edge">
<title>Node1052&#45;&gt;Node1055</title>
<path fill="none" stroke="#191970" d="M117.0254,-97.3141C125.5708,-98.601 134.4963,-99.9452 143.3928,-101.2851"/>
<polygon fill="#191970" stroke="#191970" points="142.9934,-104.7643 153.4031,-102.7926 144.0359,-97.8424 142.9934,-104.7643"/>
</g>
<!-- Node1057 -->
<g id="node6" class="node">
<title>Node1057</title>
<g id="a_node6"><a xlink:href="../../d1/d95/_system_8c.html#af314a780e1ba28e87940376fefe833ca" target="_top" xlink:title="omc_System_stringAllocator\lResult">
<polygon fill="#ffffff" stroke="#000000" points="153.5,-49.5 153.5,-79.5 295.5,-79.5 295.5,-49.5 153.5,-49.5"/>
<text text-anchor="start" x="161.5" y="-67.5" font-family="Helvetica,sans-Serif" font-size="10.00" fill="#000000">omc_System_stringAllocator</text>
<text text-anchor="middle" x="224.5" y="-56.5" font-family="Helvetica,sans-Serif" font-size="10.00" fill="#000000">Result</text>
</a>
</g>
</g>
<!-- Node1052&#45;&gt;Node1057 -->
<g id="edge5" class="edge">
<title>Node1052&#45;&gt;Node1057</title>
<path fill="none" stroke="#191970" d="M117.0254,-80.0385C125.5708,-78.803 134.4963,-77.5126 143.3928,-76.2263"/>
<polygon fill="#191970" stroke="#191970" points="144.0069,-79.674 153.4031,-74.7791 143.0052,-72.7461 144.0069,-79.674"/>
</g>
<!-- Node1059 -->
<g id="node8" class="node">
<title>Node1059</title>
<g id="a_node8"><a xlink:href="../../d1/d95/_system_8c.html#abaad6ae894ae7b9dde52307668f61597" target="_top" xlink:title="omc_System_StringAllocator\l_destructor">
<polygon fill="#ffffff" stroke="#000000" points="153,-.5 153,-30.5 296,-30.5 296,-.5 153,-.5"/>
<text text-anchor="start" x="161" y="-18.5" font-family="Helvetica,sans-Serif" font-size="10.00" fill="#000000">omc_System_StringAllocator</text>
<text text-anchor="middle" x="224.5" y="-7.5" font-family="Helvetica,sans-Serif" font-size="10.00" fill="#000000">_destructor</text>
</a>
</g>
</g>
<!-- Node1052&#45;&gt;Node1059 -->
<g id="edge7" class="edge">
<title>Node1052&#45;&gt;Node1059</title>
<path fill="none" stroke="#191970" d="M85.7431,-73.4386C104.3778,-63.4421 129.8114,-50.3907 153,-40.5 158.0651,-38.3396 163.3863,-36.217 168.7442,-34.1777"/>
<polygon fill="#191970" stroke="#191970" points="170.22,-37.3635 178.3807,-30.6068 167.7877,-30.7996 170.22,-37.3635"/>
</g>
<!-- Node1054 -->
<g id="node3" class="node">
<title>Node1054</title>
<g id="a_node3"><a xlink:href="../../dd/ddb/_system__includes_8h.html#a9f4da0f15063aa18a9e6ab5baa0ae36c" target="_top" xlink:title="StringAllocator_constructor">
<polygon fill="#ffffff" stroke="#000000" points="338,-153 338,-172 472,-172 472,-153 338,-153"/>
<text text-anchor="middle" x="405" y="-160" font-family="Helvetica,sans-Serif" font-size="10.00" fill="#000000">StringAllocator_constructor</text>
</a>
</g>
</g>
<!-- Node1053&#45;&gt;Node1054 -->
<g id="edge2" class="edge">
<title>Node1053&#45;&gt;Node1054</title>
<path fill="none" stroke="#191970" d="M296.0976,-162.5C306.5401,-162.5 317.3309,-162.5 327.8774,-162.5"/>
<polygon fill="#191970" stroke="#191970" points="327.8947,-166.0001 337.8947,-162.5 327.8947,-159.0001 327.8947,-166.0001"/>
</g>
<!-- Node1056 -->
<g id="node5" class="node">
<title>Node1056</title>
<g id="a_node5"><a xlink:href="../../dd/ddb/_system__includes_8h.html#a8e19a7a58e3c6431947680216dd4fa2a" target="_top" xlink:title="om_stringAllocatorStringCopy">
<polygon fill="#ffffff" stroke="#000000" points="332,-104 332,-123 478,-123 478,-104 332,-104"/>
<text text-anchor="middle" x="405" y="-111" font-family="Helvetica,sans-Serif" font-size="10.00" fill="#000000">om_stringAllocatorStringCopy</text>
</a>
</g>
</g>
<!-- Node1055&#45;&gt;Node1056 -->
<g id="edge4" class="edge">
<title>Node1055&#45;&gt;Node1056</title>
<path fill="none" stroke="#191970" d="M295.5793,-113.5C304.1591,-113.5 312.9812,-113.5 321.7158,-113.5"/>
<polygon fill="#191970" stroke="#191970" points="321.9095,-117.0001 331.9095,-113.5 321.9095,-110.0001 321.9095,-117.0001"/>
</g>
<!-- Node1058 -->
<g id="node7" class="node">
<title>Node1058</title>
<g id="a_node7"><a xlink:href="../../dd/ddb/_system__includes_8h.html#ac5166cb81d1b1b91e6d70ab97c6c9bc3" target="_top" xlink:title="om_stringAllocatorResult">
<polygon fill="#ffffff" stroke="#000000" points="342,-55 342,-74 468,-74 468,-55 342,-55"/>
<text text-anchor="middle" x="405" y="-62" font-family="Helvetica,sans-Serif" font-size="10.00" fill="#000000">om_stringAllocatorResult</text>
</a>
</g>
</g>
<!-- Node1057&#45;&gt;Node1058 -->
<g id="edge6" class="edge">
<title>Node1057&#45;&gt;Node1058</title>
<path fill="none" stroke="#191970" d="M295.5793,-64.5C307.4062,-64.5 319.6935,-64.5 331.5774,-64.5"/>
<polygon fill="#191970" stroke="#191970" points="331.8951,-68.0001 341.8951,-64.5 331.8951,-61.0001 331.8951,-68.0001"/>
</g>
</g>
</svg>
