<?xml version="1.0" encoding="UTF-8" standalone="no"?>
<!DOCTYPE svg PUBLIC "-//W3C//DTD SVG 1.1//EN"
 "http://www.w3.org/Graphics/SVG/1.1/DTD/svg11.dtd">
<!-- Generated by graphviz version 2.40.1 (20161225.0304)
 -->
<!-- Title: omc_Initialization_inlineWhenForInitializationWhenEquation Pages: 1 -->
<svg width="316pt" height="50pt"
 viewBox="0.00 0.00 316.00 50.00" xmlns="http://www.w3.org/2000/svg" xmlns:xlink="http://www.w3.org/1999/xlink">
<g id="graph0" class="graph" transform="scale(1 1) rotate(0) translate(4 46)">
<title>omc_Initialization_inlineWhenForInitializationWhenEquation</title>
<polygon fill="#ffffff" stroke="transparent" points="-4,4 -4,-46 312,-46 312,4 -4,4"/>
<!-- Node595 -->
<g id="node1" class="node">
<title>Node595</title>
<polygon fill="#bfbfbf" stroke="#000000" points="0,-.5 0,-41.5 136,-41.5 136,-.5 0,-.5"/>
<text text-anchor="start" x="8" y="-29.5" font-family="Helvetica,sans-Serif" font-size="10.00" fill="#000000">omc_Initialization</text>
<text text-anchor="start" x="8" y="-18.5" font-family="Helvetica,sans-Serif" font-size="10.00" fill="#000000">_inlineWhenForInitialization</text>
<text text-anchor="middle" x="68" y="-7.5" font-family="Helvetica,sans-Serif" font-size="10.00" fill="#000000">WhenEquation</text>
</g>
<!-- Node596 -->
<g id="node2" class="node">
<title>Node596</title>
<g id="a_node2"><a xlink:href="../../d2/dfb/_compiler_2boot_2build_2initialization_8c.html#a365838c17a9e5356e362cbd7f4c4d9bb" target="_top" xlink:title="omc_Initialization\l_inlineWhenForInitialization\lEquation">
<polygon fill="#ffffff" stroke="#000000" points="172,-.5 172,-41.5 308,-41.5 308,-.5 172,-.5"/>
<text text-anchor="start" x="180" y="-29.5" font-family="Helvetica,sans-Serif" font-size="10.00" fill="#000000">omc_Initialization</text>
<text text-anchor="start" x="180" y="-18.5" font-family="Helvetica,sans-Serif" font-size="10.00" fill="#000000">_inlineWhenForInitialization</text>
<text text-anchor="middle" x="240" y="-7.5" font-family="Helvetica,sans-Serif" font-size="10.00" fill="#000000">Equation</text>
</a>
</g>
</g>
<!-- Node595&#45;&gt;Node596 -->
<g id="edge1" class="edge">
<title>Node595&#45;&gt;Node596</title>
<path fill="none" stroke="#191970" d="M146.6369,-21C155.0254,-21 163.5081,-21 171.7624,-21"/>
<polygon fill="#191970" stroke="#191970" points="146.4732,-17.5001 136.4732,-21 146.4731,-24.5001 146.4732,-17.5001"/>
</g>
</g>
</svg>
