<?xml version="1.0" encoding="UTF-8" standalone="no"?>
<!DOCTYPE svg PUBLIC "-//W3C//DTD SVG 1.1//EN"
 "http://www.w3.org/Graphics/SVG/1.1/DTD/svg11.dtd">
<!-- Generated by graphviz version 2.40.1 (20161225.0304)
 -->
<!-- Title: omc_Socket_close Pages: 1 -->
<svg width="280pt" height="66pt"
 viewBox="0.00 0.00 280.00 66.00" xmlns="http://www.w3.org/2000/svg" xmlns:xlink="http://www.w3.org/1999/xlink">
<g id="graph0" class="graph" transform="scale(1 1) rotate(0) translate(4 62)">
<title>omc_Socket_close</title>
<polygon fill="#ffffff" stroke="transparent" points="-4,4 -4,-62 276,-62 276,4 -4,4"/>
<!-- Node34 -->
<g id="node1" class="node">
<title>Node34</title>
<polygon fill="#bfbfbf" stroke="#000000" points="0,-19.5 0,-38.5 100,-38.5 100,-19.5 0,-19.5"/>
<text text-anchor="middle" x="50" y="-26.5" font-family="Helvetica,sans-Serif" font-size="10.00" fill="#000000">omc_Socket_close</text>
</g>
<!-- Node35 -->
<g id="node2" class="node">
<title>Node35</title>
<g id="a_node2"><a xlink:href="../../d0/d6a/_compiler_2boot_2build_2main_8c.html#a64779a5b994e47c6ca9988c07bdd6c6e" target="_top" xlink:title="omc_Main_interactivemode">
<polygon fill="#ffffff" stroke="#000000" points="136,-38.5 136,-57.5 272,-57.5 272,-38.5 136,-38.5"/>
<text text-anchor="middle" x="204" y="-45.5" font-family="Helvetica,sans-Serif" font-size="10.00" fill="#000000">omc_Main_interactivemode</text>
</a>
</g>
</g>
<!-- Node34&#45;&gt;Node35 -->
<g id="edge1" class="edge">
<title>Node34&#45;&gt;Node35</title>
<path fill="none" stroke="#191970" d="M110.4292,-36.4556C118.7641,-37.4839 127.3708,-38.5458 135.8334,-39.5898"/>
<polygon fill="#191970" stroke="#191970" points="110.7787,-32.9722 100.4254,-35.2213 109.9215,-39.9195 110.7787,-32.9722"/>
</g>
<!-- Node36 -->
<g id="node3" class="node">
<title>Node36</title>
<g id="a_node3"><a xlink:href="../../d9/d8a/_compiler_2boot_2build_2_socket_8h.html#a17f1eb32fb4f4fde10f1d8a8875e0774" target="_top" xlink:title="boxptr_Socket_close">
<polygon fill="#ffffff" stroke="#000000" points="150,-.5 150,-19.5 258,-19.5 258,-.5 150,-.5"/>
<text text-anchor="middle" x="204" y="-7.5" font-family="Helvetica,sans-Serif" font-size="10.00" fill="#000000">boxptr_Socket_close</text>
</a>
</g>
</g>
<!-- Node34&#45;&gt;Node36 -->
<g id="edge2" class="edge">
<title>Node34&#45;&gt;Node36</title>
<path fill="none" stroke="#191970" d="M110.6146,-21.5216C123.5288,-19.9283 137.0879,-18.2554 149.746,-16.6937"/>
<polygon fill="#191970" stroke="#191970" points="109.9215,-18.0805 100.4254,-22.7787 110.7787,-25.0278 109.9215,-18.0805"/>
</g>
</g>
</svg>
