<?xml version="1.0" encoding="UTF-8" standalone="no"?>
<!DOCTYPE svg PUBLIC "-//W3C//DTD SVG 1.1//EN"
 "http://www.w3.org/Graphics/SVG/1.1/DTD/svg11.dtd">
<!-- Generated by graphviz version 2.40.1 (20161225.0304)
 -->
<!-- Title: modelInfoGetEquation Pages: 1 -->
<svg width="625pt" height="522pt"
 viewBox="0.00 0.00 625.00 522.00" xmlns="http://www.w3.org/2000/svg" xmlns:xlink="http://www.w3.org/1999/xlink">
<g id="graph0" class="graph" transform="scale(1 1) rotate(0) translate(4 518)">
<title>modelInfoGetEquation</title>
<polygon fill="#ffffff" stroke="transparent" points="-4,4 -4,-518 621,-518 621,4 -4,4"/>
<!-- Node1 -->
<g id="node1" class="node">
<title>Node1</title>
<polygon fill="#bfbfbf" stroke="#000000" points="0,-266.5 0,-285.5 113,-285.5 113,-266.5 0,-266.5"/>
<text text-anchor="middle" x="56.5" y="-273.5" font-family="Helvetica,sans-Serif" font-size="10.00" fill="#000000">modelInfoGetEquation</text>
</g>
<!-- Node2 -->
<g id="node2" class="node">
<title>Node2</title>
<g id="a_node2"><a xlink:href="../../d1/d69/build_2include_2omc_2c_2simulation_2solver_2linear_system_8c.html#af62b4e4d2756eaf12c8149bbec02864b" target="_top" xlink:title="check_linear_solution">
<polygon fill="#ffffff" stroke="#000000" points="165.5,-494.5 165.5,-513.5 275.5,-513.5 275.5,-494.5 165.5,-494.5"/>
<text text-anchor="middle" x="220.5" y="-501.5" font-family="Helvetica,sans-Serif" font-size="10.00" fill="#000000">check_linear_solution</text>
</a>
</g>
</g>
<!-- Node1&#45;&gt;Node2 -->
<g id="edge1" class="edge">
<title>Node1&#45;&gt;Node2</title>
<path fill="none" stroke="#191970" d="M59.4089,-295.5534C66.6293,-336.9906 89.3042,-434.0077 149,-485 153.7854,-489.0877 159.3583,-492.3066 165.2421,-494.8397"/>
<polygon fill="#191970" stroke="#191970" points="62.856,-294.9443 57.7961,-285.6359 55.9467,-296.068 62.856,-294.9443"/>
</g>
<!-- Node4 -->
<g id="node4" class="node">
<title>Node4</title>
<g id="a_node4"><a xlink:href="../../db/d27/_simulation_runtime_2c_2simulation_2solver_2mixed_system_8h.html#a964e34d78d8ccaba25f33c40b7cea65a" target="_top" xlink:title="check_mixed_solutions">
<polygon fill="#ffffff" stroke="#000000" points="161,-456.5 161,-475.5 280,-475.5 280,-456.5 161,-456.5"/>
<text text-anchor="middle" x="220.5" y="-463.5" font-family="Helvetica,sans-Serif" font-size="10.00" fill="#000000">check_mixed_solutions</text>
</a>
</g>
</g>
<!-- Node1&#45;&gt;Node4 -->
<g id="edge3" class="edge">
<title>Node1&#45;&gt;Node4</title>
<path fill="none" stroke="#191970" d="M61.5331,-295.6347C71.7341,-331.3777 98.3045,-407.0557 149,-447 153.9434,-450.8951 159.6139,-453.9951 165.5521,-456.4618"/>
<polygon fill="#191970" stroke="#191970" points="64.8889,-294.6368 58.8842,-285.9079 58.1349,-296.4762 64.8889,-294.6368"/>
</g>
<!-- Node5 -->
<g id="node5" class="node">
<title>Node5</title>
<g id="a_node5"><a xlink:href="../../df/d99/build_2include_2omc_2c_2simulation_2solver_2nonlinear_solver_homotopy_8c.html#a990973a99c97f948c3601511a36f2b64" target="_top" xlink:title="printUnknowns">
<polygon fill="#ffffff" stroke="#000000" points="179.5,-418.5 179.5,-437.5 261.5,-437.5 261.5,-418.5 179.5,-418.5"/>
<text text-anchor="middle" x="220.5" y="-425.5" font-family="Helvetica,sans-Serif" font-size="10.00" fill="#000000">printUnknowns</text>
</a>
</g>
</g>
<!-- Node1&#45;&gt;Node5 -->
<g id="edge4" class="edge">
<title>Node1&#45;&gt;Node5</title>
<path fill="none" stroke="#191970" d="M64.5855,-295.271C77.8308,-324.4414 106.9518,-379.5228 149,-409 157.9395,-415.2669 168.8252,-419.4668 179.379,-422.2815"/>
<polygon fill="#191970" stroke="#191970" points="67.6504,-293.5447 60.4295,-285.7917 61.2395,-296.3555 67.6504,-293.5447"/>
</g>
<!-- Node6 -->
<g id="node6" class="node">
<title>Node6</title>
<g id="a_node6"><a xlink:href="../../df/d99/build_2include_2omc_2c_2simulation_2solver_2nonlinear_solver_homotopy_8c.html#ad4f00dc1f7c74817c45ece391c623974" target="_top" xlink:title="printNewtonStep">
<polygon fill="#ffffff" stroke="#000000" points="176,-380.5 176,-399.5 265,-399.5 265,-380.5 176,-380.5"/>
<text text-anchor="middle" x="220.5" y="-387.5" font-family="Helvetica,sans-Serif" font-size="10.00" fill="#000000">printNewtonStep</text>
</a>
</g>
</g>
<!-- Node1&#45;&gt;Node6 -->
<g id="edge5" class="edge">
<title>Node1&#45;&gt;Node6</title>
<path fill="none" stroke="#191970" d="M69.1891,-294.0338C85.2951,-315.5719 115.0957,-351.1699 149,-371 157.2043,-375.7986 166.6398,-379.4105 175.9092,-382.121"/>
<polygon fill="#191970" stroke="#191970" points="71.8711,-291.7712 63.1529,-285.7509 66.2139,-295.894 71.8711,-291.7712"/>
</g>
<!-- Node7 -->
<g id="node7" class="node">
<title>Node7</title>
<g id="a_node7"><a xlink:href="../../df/d99/build_2include_2omc_2c_2simulation_2solver_2nonlinear_solver_homotopy_8c.html#a4bfddb653587bbca4db3ce278dc7b28d" target="_top" xlink:title="printHomotopyUnknowns">
<polygon fill="#ffffff" stroke="#000000" points="157,-342.5 157,-361.5 284,-361.5 284,-342.5 157,-342.5"/>
<text text-anchor="middle" x="220.5" y="-349.5" font-family="Helvetica,sans-Serif" font-size="10.00" fill="#000000">printHomotopyUnknowns</text>
</a>
</g>
</g>
<!-- Node1&#45;&gt;Node7 -->
<g id="edge6" class="edge">
<title>Node1&#45;&gt;Node7</title>
<path fill="none" stroke="#191970" d="M77.9289,-291.7258C96.0711,-304.4062 123.1745,-321.8982 149,-333 157.6139,-336.7029 167.1292,-339.839 176.3313,-342.4304"/>
<polygon fill="#191970" stroke="#191970" points="79.4893,-288.5404 69.3128,-285.5927 75.4299,-294.2432 79.4893,-288.5404"/>
</g>
<!-- Node8 -->
<g id="node8" class="node">
<title>Node8</title>
<g id="a_node8"><a xlink:href="../../df/d99/build_2include_2omc_2c_2simulation_2solver_2nonlinear_solver_homotopy_8c.html#affc495b359ca17852578dc457c8c5b0f" target="_top" xlink:title="printHomotopyPredictorStep">
<polygon fill="#ffffff" stroke="#000000" points="150.5,-304.5 150.5,-323.5 290.5,-323.5 290.5,-304.5 150.5,-304.5"/>
<text text-anchor="middle" x="220.5" y="-311.5" font-family="Helvetica,sans-Serif" font-size="10.00" fill="#000000">printHomotopyPredictorStep</text>
</a>
</g>
</g>
<!-- Node1&#45;&gt;Node8 -->
<g id="edge7" class="edge">
<title>Node1&#45;&gt;Node8</title>
<path fill="none" stroke="#191970" d="M107.841,-287.8961C130.8929,-293.2374 157.7211,-299.4537 179.4135,-304.4799"/>
<polygon fill="#191970" stroke="#191970" points="108.4161,-284.4367 97.8841,-285.589 106.836,-291.256 108.4161,-284.4367"/>
</g>
<!-- Node9 -->
<g id="node9" class="node">
<title>Node9</title>
<g id="a_node9"><a xlink:href="../../df/d99/build_2include_2omc_2c_2simulation_2solver_2nonlinear_solver_homotopy_8c.html#ab46b7894571fd67cce78dc64519b1121" target="_top" xlink:title="printHomotopyCorrectorStep">
<polygon fill="#ffffff" stroke="#000000" points="150,-266.5 150,-285.5 291,-285.5 291,-266.5 150,-266.5"/>
<text text-anchor="middle" x="220.5" y="-273.5" font-family="Helvetica,sans-Serif" font-size="10.00" fill="#000000">printHomotopyCorrectorStep</text>
</a>
</g>
</g>
<!-- Node1&#45;&gt;Node9 -->
<g id="edge8" class="edge">
<title>Node1&#45;&gt;Node9</title>
<path fill="none" stroke="#191970" d="M123.4685,-276C132.1584,-276 141.0814,-276 149.8291,-276"/>
<polygon fill="#191970" stroke="#191970" points="123.399,-272.5001 113.399,-276 123.3989,-279.5001 123.399,-272.5001"/>
</g>
<!-- Node10 -->
<g id="node10" class="node">
<title>Node10</title>
<g id="a_node10"><a xlink:href="../../dd/d6c/build_2include_2omc_2c_2simulation_2solver_2nonlinear_system_8c.html#ad559a040596c648613160b35e81afc7e" target="_top" xlink:title="print_csvLineIterStatsHeader">
<polygon fill="#ffffff" stroke="#000000" points="149,-228.5 149,-247.5 292,-247.5 292,-228.5 149,-228.5"/>
<text text-anchor="middle" x="220.5" y="-235.5" font-family="Helvetica,sans-Serif" font-size="10.00" fill="#000000">print_csvLineIterStatsHeader</text>
</a>
</g>
</g>
<!-- Node1&#45;&gt;Node10 -->
<g id="edge9" class="edge">
<title>Node1&#45;&gt;Node10</title>
<path fill="none" stroke="#191970" d="M107.841,-264.1039C130.8929,-258.7626 157.7211,-252.5463 179.4135,-247.5201"/>
<polygon fill="#191970" stroke="#191970" points="106.836,-260.744 97.8841,-266.411 108.4161,-267.5633 106.836,-260.744"/>
</g>
<!-- Node11 -->
<g id="node11" class="node">
<title>Node11</title>
<g id="a_node11"><a xlink:href="../../dd/d6c/build_2include_2omc_2c_2simulation_2solver_2nonlinear_system_8c.html#a7623f1ae0d3b0a2851cdff45e5445808" target="_top" xlink:title="printNonLinearInitialInfo">
<polygon fill="#ffffff" stroke="#000000" points="334,-190.5 334,-209.5 453,-209.5 453,-190.5 334,-190.5"/>
<text text-anchor="middle" x="393.5" y="-197.5" font-family="Helvetica,sans-Serif" font-size="10.00" fill="#000000">printNonLinearInitialInfo</text>
</a>
</g>
</g>
<!-- Node1&#45;&gt;Node11 -->
<g id="edge10" class="edge">
<title>Node1&#45;&gt;Node11</title>
<path fill="none" stroke="#191970" d="M75.7571,-260.3038C93.5782,-246.7548 121.41,-227.9873 149,-219 209.8246,-199.1867 283.474,-196.0859 333.942,-196.9051"/>
<polygon fill="#191970" stroke="#191970" points="73.5867,-257.5579 67.8576,-266.4702 77.894,-263.0758 73.5867,-257.5579"/>
</g>
<!-- Node12 -->
<g id="node12" class="node">
<title>Node12</title>
<g id="a_node12"><a xlink:href="../../d0/d38/_simulation_runtime_2c_2simulation_2solver_2nonlinear_system_8h.html#ab0dab4c5c0a1140a09eb29e0c593070c" target="_top" xlink:title="solve_nonlinear_system">
<polygon fill="#ffffff" stroke="#000000" points="495,-114.5 495,-133.5 617,-133.5 617,-114.5 495,-114.5"/>
<text text-anchor="middle" x="556" y="-121.5" font-family="Helvetica,sans-Serif" font-size="10.00" fill="#000000">solve_nonlinear_system</text>
</a>
</g>
</g>
<!-- Node1&#45;&gt;Node12 -->
<g id="edge14" class="edge">
<title>Node1&#45;&gt;Node12</title>
<path fill="none" stroke="#191970" d="M70.4029,-258.5981C86.9412,-239.211 116.4378,-208.5537 149,-193 274.9298,-132.8483 321.6139,-167.5278 459,-143 475.2175,-140.1047 492.9124,-136.709 508.6962,-133.5953"/>
<polygon fill="#191970" stroke="#191970" points="67.6381,-256.4491 63.9442,-266.3791 73.0243,-260.92 67.6381,-256.4491"/>
</g>
<!-- Node13 -->
<g id="node13" class="node">
<title>Node13</title>
<g id="a_node13"><a xlink:href="../../dd/d6c/build_2include_2omc_2c_2simulation_2solver_2nonlinear_system_8c.html#ab170107ba336472d3bf8f835141696fc" target="_top" xlink:title="printNonLinearFinishInfo">
<polygon fill="#ffffff" stroke="#000000" points="332.5,-114.5 332.5,-133.5 454.5,-133.5 454.5,-114.5 332.5,-114.5"/>
<text text-anchor="middle" x="393.5" y="-121.5" font-family="Helvetica,sans-Serif" font-size="10.00" fill="#000000">printNonLinearFinishInfo</text>
</a>
</g>
</g>
<!-- Node1&#45;&gt;Node13 -->
<g id="edge12" class="edge">
<title>Node1&#45;&gt;Node13</title>
<path fill="none" stroke="#191970" d="M64.0643,-257.0316C76.774,-227.9423 105.3824,-173.057 149,-148 204.9378,-115.8654 280.1245,-113.3247 332.2887,-116.6257"/>
<polygon fill="#191970" stroke="#191970" points="60.7423,-255.9031 60.1028,-266.4786 67.1977,-258.6102 60.7423,-255.9031"/>
</g>
<!-- Node14 -->
<g id="node14" class="node">
<title>Node14</title>
<g id="a_node14"><a xlink:href="../../dd/d6c/build_2include_2omc_2c_2simulation_2solver_2nonlinear_system_8c.html#a7924cf0b0fe19b3776951c4c4e90721d" target="_top" xlink:title="check_nonlinear_solution">
<polygon fill="#ffffff" stroke="#000000" points="157.5,-76.5 157.5,-95.5 283.5,-95.5 283.5,-76.5 157.5,-76.5"/>
<text text-anchor="middle" x="220.5" y="-83.5" font-family="Helvetica,sans-Serif" font-size="10.00" fill="#000000">check_nonlinear_solution</text>
</a>
</g>
</g>
<!-- Node1&#45;&gt;Node14 -->
<g id="edge15" class="edge">
<title>Node1&#45;&gt;Node14</title>
<path fill="none" stroke="#191970" d="M62.2481,-256.2977C73.3315,-221.7069 100.9092,-149.9451 149,-110 156.5543,-103.7253 165.8191,-99.0672 175.1439,-95.6171"/>
<polygon fill="#191970" stroke="#191970" points="58.8171,-255.5479 59.2242,-266.1349 65.5081,-257.6047 58.8171,-255.5479"/>
</g>
<!-- Node16 -->
<g id="node16" class="node">
<title>Node16</title>
<g id="a_node16"><a xlink:href="../../d4/de2/nonlinear_solver_newton_8h.html#a38ba64dd08361053b03a65265601066a" target="_top" xlink:title="solveNewton">
<polygon fill="#ffffff" stroke="#000000" points="183.5,-19.5 183.5,-38.5 257.5,-38.5 257.5,-19.5 183.5,-19.5"/>
<text text-anchor="middle" x="220.5" y="-26.5" font-family="Helvetica,sans-Serif" font-size="10.00" fill="#000000">solveNewton</text>
</a>
</g>
</g>
<!-- Node1&#45;&gt;Node16 -->
<g id="edge18" class="edge">
<title>Node1&#45;&gt;Node16</title>
<path fill="none" stroke="#191970" d="M60.5562,-256.642C69.8034,-216.6921 95.8756,-124.0845 149,-67 160.9709,-54.1367 178.2984,-44.7753 192.8974,-38.5629"/>
<polygon fill="#191970" stroke="#191970" points="57.1313,-255.9199 58.3856,-266.4402 63.9657,-257.4339 57.1313,-255.9199"/>
</g>
<!-- Node3 -->
<g id="node3" class="node">
<title>Node3</title>
<g id="a_node3"><a xlink:href="../../d8/da5/_simulation_runtime_2c_2simulation_2solver_2linear_system_8h.html#ad72a0bdfa452ab6c3ad9eb2d145b1096" target="_top" xlink:title="check_linear_solutions">
<polygon fill="#ffffff" stroke="#000000" points="335.5,-494.5 335.5,-513.5 451.5,-513.5 451.5,-494.5 335.5,-494.5"/>
<text text-anchor="middle" x="393.5" y="-501.5" font-family="Helvetica,sans-Serif" font-size="10.00" fill="#000000">check_linear_solutions</text>
</a>
</g>
</g>
<!-- Node2&#45;&gt;Node3 -->
<g id="edge2" class="edge">
<title>Node2&#45;&gt;Node3</title>
<path fill="none" stroke="#191970" d="M286.1482,-504C302.291,-504 319.4641,-504 335.2315,-504"/>
<polygon fill="#191970" stroke="#191970" points="285.714,-500.5001 275.7139,-504 285.7139,-507.5001 285.714,-500.5001"/>
</g>
<!-- Node11&#45;&gt;Node12 -->
<g id="edge11" class="edge">
<title>Node11&#45;&gt;Node12</title>
<path fill="none" stroke="#191970" d="M431.7631,-187.0078C440.7934,-183.6599 450.3171,-179.8948 459,-176 488.2889,-162.8621 520.9106,-144.5732 539.877,-133.5519"/>
<polygon fill="#191970" stroke="#191970" points="430.4318,-183.7674 422.2212,-190.4633 432.8154,-190.3491 430.4318,-183.7674"/>
</g>
<!-- Node13&#45;&gt;Node12 -->
<g id="edge13" class="edge">
<title>Node13&#45;&gt;Node12</title>
<path fill="none" stroke="#191970" d="M465.1334,-124C475.0111,-124 485.0812,-124 494.7484,-124"/>
<polygon fill="#191970" stroke="#191970" points="464.9343,-120.5001 454.9343,-124 464.9342,-127.5001 464.9343,-120.5001"/>
</g>
<!-- Node14&#45;&gt;Node12 -->
<g id="edge16" class="edge">
<title>Node14&#45;&gt;Node12</title>
<path fill="none" stroke="#191970" d="M293.8819,-89.6785C341.1681,-92.5828 403.8888,-97.4324 459,-105 476.6808,-107.4278 496.0047,-111.0188 512.7187,-114.4272"/>
<polygon fill="#191970" stroke="#191970" points="293.9228,-86.1747 283.7314,-89.0703 293.5041,-93.1622 293.9228,-86.1747"/>
</g>
<!-- Node15 -->
<g id="node15" class="node">
<title>Node15</title>
<g id="a_node15"><a xlink:href="../../d0/d38/_simulation_runtime_2c_2simulation_2solver_2nonlinear_system_8h.html#a69b02d50bd69f9a6f3c668448bf64600" target="_top" xlink:title="check_nonlinear_solutions">
<polygon fill="#ffffff" stroke="#000000" points="328,-38.5 328,-57.5 459,-57.5 459,-38.5 328,-38.5"/>
<text text-anchor="middle" x="393.5" y="-45.5" font-family="Helvetica,sans-Serif" font-size="10.00" fill="#000000">check_nonlinear_solutions</text>
</a>
</g>
</g>
<!-- Node14&#45;&gt;Node15 -->
<g id="edge17" class="edge">
<title>Node14&#45;&gt;Node15</title>
<path fill="none" stroke="#191970" d="M274.0051,-74.2474C298.4673,-68.8742 327.0707,-62.5914 350.1587,-57.5201"/>
<polygon fill="#191970" stroke="#191970" points="273.1714,-70.847 264.1552,-76.411 274.6733,-77.684 273.1714,-70.847"/>
</g>
<!-- Node17 -->
<g id="node17" class="node">
<title>Node17</title>
<g id="a_node17"><a xlink:href="../../dd/d6c/build_2include_2omc_2c_2simulation_2solver_2nonlinear_system_8c.html#adbab09aaddf4cae686163982ee1baa72" target="_top" xlink:title="solveNLS">
<polygon fill="#ffffff" stroke="#000000" points="364,-.5 364,-19.5 423,-19.5 423,-.5 364,-.5"/>
<text text-anchor="middle" x="393.5" y="-7.5" font-family="Helvetica,sans-Serif" font-size="10.00" fill="#000000">solveNLS</text>
</a>
</g>
</g>
<!-- Node16&#45;&gt;Node17 -->
<g id="edge19" class="edge">
<title>Node16&#45;&gt;Node17</title>
<path fill="none" stroke="#191970" d="M267.6761,-23.8188C298.3897,-20.4456 337.5063,-16.1496 363.9077,-13.25"/>
<polygon fill="#191970" stroke="#191970" points="267.1709,-20.3532 257.6128,-24.924 267.9352,-27.3113 267.1709,-20.3532"/>
</g>
<!-- Node17&#45;&gt;Node12 -->
<g id="edge20" class="edge">
<title>Node17&#45;&gt;Node12</title>
<path fill="none" stroke="#191970" d="M432.9857,-18.0544C441.8904,-20.7822 451.0517,-24.3573 459,-29 498.6897,-52.1832 534.1955,-95.1687 548.8628,-114.3377"/>
<polygon fill="#191970" stroke="#191970" points="433.6909,-14.618 423.1195,-15.3229 431.8232,-21.3643 433.6909,-14.618"/>
</g>
</g>
</svg>
