<?xml version="1.0" encoding="UTF-8" standalone="no"?>
<!DOCTYPE svg PUBLIC "-//W3C//DTD SVG 1.1//EN"
 "http://www.w3.org/Graphics/SVG/1.1/DTD/svg11.dtd">
<!-- Generated by graphviz version 2.40.1 (20161225.0304)
 -->
<!-- Title: zmq::gssapi_client_t::status Pages: 1 -->
<svg width="494pt" height="248pt"
 viewBox="0.00 0.00 494.00 248.00" xmlns="http://www.w3.org/2000/svg" xmlns:xlink="http://www.w3.org/1999/xlink">
<g id="graph0" class="graph" transform="scale(1 1) rotate(0) translate(4 244)">
<title>zmq::gssapi_client_t::status</title>
<polygon fill="#ffffff" stroke="transparent" points="-4,4 -4,-244 490,-244 490,4 -4,4"/>
<!-- Node67 -->
<g id="node1" class="node">
<title>Node67</title>
<polygon fill="#bfbfbf" stroke="#000000" points="0,-155 0,-185 98,-185 98,-155 0,-155"/>
<text text-anchor="start" x="8" y="-173" font-family="Helvetica,sans-Serif" font-size="10.00" fill="#000000">zmq::gssapi_client</text>
<text text-anchor="middle" x="49" y="-162" font-family="Helvetica,sans-Serif" font-size="10.00" fill="#000000">_t::status</text>
</g>
<!-- Node68 -->
<g id="node2" class="node">
<title>Node68</title>
<g id="a_node2"><a xlink:href="../../d6/d84/3rd_party_2open62541_2open62541_8h.html#aa383452fe445bfae989358c9d7d96f4f" target="_top" xlink:title="strlen">
<polygon fill="#ffffff" stroke="#000000" points="176,-220.5 176,-239.5 217,-239.5 217,-220.5 176,-220.5"/>
<text text-anchor="middle" x="196.5" y="-227.5" font-family="Helvetica,sans-Serif" font-size="10.00" fill="#000000">strlen</text>
</a>
</g>
</g>
<!-- Node67&#45;&gt;Node68 -->
<g id="edge1" class="edge">
<title>Node67&#45;&gt;Node68</title>
<path fill="none" stroke="#191970" d="M77.6195,-185.1714C93.8787,-193.4416 114.7703,-203.4911 134,-211 144.3001,-215.022 155.8202,-218.7364 166.1371,-221.7941"/>
<polygon fill="#191970" stroke="#191970" points="165.3852,-225.2197 175.9631,-224.6199 167.32,-218.4923 165.3852,-225.2197"/>
</g>
<!-- Node69 -->
<g id="node3" class="node">
<title>Node69</title>
<g id="a_node3"><a xlink:href="../../dc/ddc/3rd_party_2flex-2_85_835_2parse_8c.html#af07d89f5ceaea0c7c8252cc41fd75f37" target="_top" xlink:title="free">
<polygon fill="#ffffff" stroke="#000000" points="180,-182.5 180,-201.5 213,-201.5 213,-182.5 180,-182.5"/>
<text text-anchor="middle" x="196.5" y="-189.5" font-family="Helvetica,sans-Serif" font-size="10.00" fill="#000000">free</text>
</a>
</g>
</g>
<!-- Node67&#45;&gt;Node69 -->
<g id="edge2" class="edge">
<title>Node67&#45;&gt;Node69</title>
<path fill="none" stroke="#191970" d="M98.1154,-177.3257C122.126,-180.9069 150.0724,-185.0752 170.0312,-188.0521"/>
<polygon fill="#191970" stroke="#191970" points="169.5422,-191.5178 179.9491,-189.5314 170.5749,-184.5944 169.5422,-191.5178"/>
</g>
<!-- Node70 -->
<g id="node4" class="node">
<title>Node70</title>
<g id="a_node4"><a xlink:href="../../d6/de9/classzmq_1_1gssapi__mechanism__base__t.html#a5fd68ec27781d56ce6eb73f3b8d12feb" target="_top" xlink:title="zmq::gssapi_mechanism\l_base_t::produce_initiate">
<polygon fill="#ffffff" stroke="#000000" points="134,-133 134,-163 259,-163 259,-133 134,-133"/>
<text text-anchor="start" x="142" y="-151" font-family="Helvetica,sans-Serif" font-size="10.00" fill="#000000">zmq::gssapi_mechanism</text>
<text text-anchor="middle" x="196.5" y="-140" font-family="Helvetica,sans-Serif" font-size="10.00" fill="#000000">_base_t::produce_initiate</text>
</a>
</g>
</g>
<!-- Node67&#45;&gt;Node70 -->
<g id="edge3" class="edge">
<title>Node67&#45;&gt;Node70</title>
<path fill="none" stroke="#191970" d="M98.1154,-162.6743C106.3675,-161.4435 115.0845,-160.1433 123.7823,-158.846"/>
<polygon fill="#191970" stroke="#191970" points="124.5808,-162.2657 133.9551,-157.3287 123.5481,-155.3423 124.5808,-162.2657"/>
</g>
<!-- Node75 -->
<g id="node9" class="node">
<title>Node75</title>
<g id="a_node9"><a xlink:href="../../d6/de9/classzmq_1_1gssapi__mechanism__base__t.html#ac60dd3738dadb74ce3129a2158e6bac7" target="_top" xlink:title="zmq::gssapi_mechanism\l_base_t::process_initiate">
<polygon fill="#ffffff" stroke="#000000" points="134,-71 134,-101 259,-101 259,-71 134,-71"/>
<text text-anchor="start" x="142" y="-89" font-family="Helvetica,sans-Serif" font-size="10.00" fill="#000000">zmq::gssapi_mechanism</text>
<text text-anchor="middle" x="196.5" y="-78" font-family="Helvetica,sans-Serif" font-size="10.00" fill="#000000">_base_t::process_initiate</text>
</a>
</g>
</g>
<!-- Node67&#45;&gt;Node75 -->
<g id="edge8" class="edge">
<title>Node67&#45;&gt;Node75</title>
<path fill="none" stroke="#191970" d="M75.37,-154.9825C99.238,-141.3899 134.5876,-121.2586 160.9461,-106.2476"/>
<polygon fill="#191970" stroke="#191970" points="162.9033,-109.1609 169.8609,-101.1707 159.4392,-103.0781 162.9033,-109.1609"/>
</g>
<!-- Node71 -->
<g id="node5" class="node">
<title>Node71</title>
<g id="a_node5"><a xlink:href="../../de/d92/classzmq_1_1msg__t.html#a2d40a80f7828b6ab4f63a1d2afa2af82" target="_top" xlink:title="zmq::msg_t::init_size">
<polygon fill="#ffffff" stroke="#000000" points="295,-190.5 295,-209.5 405,-209.5 405,-190.5 295,-190.5"/>
<text text-anchor="middle" x="350" y="-197.5" font-family="Helvetica,sans-Serif" font-size="10.00" fill="#000000">zmq::msg_t::init_size</text>
</a>
</g>
</g>
<!-- Node70&#45;&gt;Node71 -->
<g id="edge4" class="edge">
<title>Node70&#45;&gt;Node71</title>
<path fill="none" stroke="#191970" d="M240.8986,-163.0406C263.4731,-170.6879 290.6181,-179.8837 312.1843,-187.1895"/>
<polygon fill="#191970" stroke="#191970" points="311.0697,-190.5072 321.6641,-190.4009 313.3158,-183.8773 311.0697,-190.5072"/>
</g>
<!-- Node73 -->
<g id="node7" class="node">
<title>Node73</title>
<g id="a_node7"><a xlink:href="../../d6/d84/3rd_party_2open62541_2open62541_8h.html#a9bb523029391a4525c52a8e90e877692" target="_top" xlink:title="memcpy">
<polygon fill="#ffffff" stroke="#000000" points="323,-114.5 323,-133.5 377,-133.5 377,-114.5 323,-114.5"/>
<text text-anchor="middle" x="350" y="-121.5" font-family="Helvetica,sans-Serif" font-size="10.00" fill="#000000">memcpy</text>
</a>
</g>
</g>
<!-- Node70&#45;&gt;Node73 -->
<g id="edge6" class="edge">
<title>Node70&#45;&gt;Node73</title>
<path fill="none" stroke="#191970" d="M259.3772,-138.169C277.5792,-135.3231 296.858,-132.3088 312.933,-129.7955"/>
<polygon fill="#191970" stroke="#191970" points="313.6512,-133.2258 322.9905,-128.223 312.5698,-126.3098 313.6512,-133.2258"/>
</g>
<!-- Node74 -->
<g id="node8" class="node">
<title>Node74</title>
<g id="a_node8"><a xlink:href="../../d0/db9/namespacezmq.html#ad5c57c99bfdccc20d8b93c0fcf324ee0" target="_top" xlink:title="zmq::put_uint32">
<polygon fill="#ffffff" stroke="#000000" points="307,-152.5 307,-171.5 393,-171.5 393,-152.5 307,-152.5"/>
<text text-anchor="middle" x="350" y="-159.5" font-family="Helvetica,sans-Serif" font-size="10.00" fill="#000000">zmq::put_uint32</text>
</a>
</g>
</g>
<!-- Node70&#45;&gt;Node74 -->
<g id="edge7" class="edge">
<title>Node70&#45;&gt;Node74</title>
<path fill="none" stroke="#191970" d="M259.3772,-153.7347C271.6723,-154.8561 284.4587,-156.0223 296.4171,-157.113"/>
<polygon fill="#191970" stroke="#191970" points="296.4031,-160.6261 306.6797,-158.049 297.039,-153.6551 296.4031,-160.6261"/>
</g>
<!-- Node72 -->
<g id="node6" class="node">
<title>Node72</title>
<g id="a_node6"><a xlink:href="../../dc/ddc/3rd_party_2flex-2_85_835_2parse_8c.html#a5faf6a2d99f50a4655dd390199a8db7b" target="_top" xlink:title="malloc">
<polygon fill="#ffffff" stroke="#000000" points="441,-133.5 441,-152.5 486,-152.5 486,-133.5 441,-133.5"/>
<text text-anchor="middle" x="463.5" y="-140.5" font-family="Helvetica,sans-Serif" font-size="10.00" fill="#000000">malloc</text>
</a>
</g>
</g>
<!-- Node71&#45;&gt;Node72 -->
<g id="edge5" class="edge">
<title>Node71&#45;&gt;Node72</title>
<path fill="none" stroke="#191970" d="M381.9465,-190.4362C389.6438,-187.7325 397.7381,-184.5469 405,-181 417.9226,-174.6882 431.4441,-166.0556 442.2282,-158.6133"/>
<polygon fill="#191970" stroke="#191970" points="444.4229,-161.3481 450.5698,-152.7188 440.3832,-155.6314 444.4229,-161.3481"/>
</g>
<!-- Node75&#45;&gt;Node72 -->
<g id="edge11" class="edge">
<title>Node75&#45;&gt;Node72</title>
<path fill="none" stroke="#191970" d="M259.2712,-83.9335C301.5423,-84.4048 357.9466,-88.7001 405,-105 419.267,-109.9423 433.5124,-119.0832 444.3734,-127.1611"/>
<polygon fill="#191970" stroke="#191970" points="442.2488,-129.9426 452.294,-133.311 446.5419,-124.4136 442.2488,-129.9426"/>
</g>
<!-- Node75&#45;&gt;Node73 -->
<g id="edge12" class="edge">
<title>Node75&#45;&gt;Node73</title>
<path fill="none" stroke="#191970" d="M257.1673,-101.0186C276.0433,-105.6915 296.2783,-110.7008 313.0231,-114.8461"/>
<polygon fill="#191970" stroke="#191970" points="312.4066,-118.2991 322.9547,-117.3047 314.0888,-111.5042 312.4066,-118.2991"/>
</g>
<!-- Node76 -->
<g id="node10" class="node">
<title>Node76</title>
<g id="a_node10"><a xlink:href="../../d6/d84/3rd_party_2open62541_2open62541_8h.html#ac376fcece8fcc2d0f8b1cf3de18b10df" target="_top" xlink:title="memcmp">
<polygon fill="#ffffff" stroke="#000000" points="321.5,-38.5 321.5,-57.5 378.5,-57.5 378.5,-38.5 321.5,-38.5"/>
<text text-anchor="middle" x="350" y="-45.5" font-family="Helvetica,sans-Serif" font-size="10.00" fill="#000000">memcmp</text>
</a>
</g>
</g>
<!-- Node75&#45;&gt;Node76 -->
<g id="edge9" class="edge">
<title>Node75&#45;&gt;Node76</title>
<path fill="none" stroke="#191970" d="M257.1673,-70.9814C275.4882,-66.4459 295.0892,-61.5936 311.5367,-57.5219"/>
<polygon fill="#191970" stroke="#191970" points="312.4645,-60.8979 321.3304,-55.0974 310.7823,-54.103 312.4645,-60.8979"/>
</g>
<!-- Node77 -->
<g id="node11" class="node">
<title>Node77</title>
<g id="a_node11"><a xlink:href="../../d0/db9/namespacezmq.html#ab8c7a8879b3221819198f1476efa8bb0" target="_top" xlink:title="zmq::get_uint32">
<polygon fill="#ffffff" stroke="#000000" points="307,-.5 307,-19.5 393,-19.5 393,-.5 307,-.5"/>
<text text-anchor="middle" x="350" y="-7.5" font-family="Helvetica,sans-Serif" font-size="10.00" fill="#000000">zmq::get_uint32</text>
</a>
</g>
</g>
<!-- Node75&#45;&gt;Node77 -->
<g id="edge10" class="edge">
<title>Node75&#45;&gt;Node77</title>
<path fill="none" stroke="#191970" d="M219.7056,-70.863C239.2491,-58.5369 268.2241,-41.2349 295,-29 299.6474,-26.8764 304.6053,-24.8503 309.5696,-22.9661"/>
<polygon fill="#191970" stroke="#191970" points="310.8371,-26.2295 319.0441,-19.529 308.4499,-19.6491 310.8371,-26.2295"/>
</g>
</g>
</svg>
