<?xml version="1.0" encoding="UTF-8" standalone="no"?>
<!DOCTYPE svg PUBLIC "-//W3C//DTD SVG 1.1//EN"
 "http://www.w3.org/Graphics/SVG/1.1/DTD/svg11.dtd">
<!-- Generated by graphviz version 2.40.1 (20161225.0304)
 -->
<!-- Title: omc_ResolveLoops_resolveLoops__findLoops Pages: 1 -->
<svg width="316pt" height="39pt"
 viewBox="0.00 0.00 316.00 39.00" xmlns="http://www.w3.org/2000/svg" xmlns:xlink="http://www.w3.org/1999/xlink">
<g id="graph0" class="graph" transform="scale(1 1) rotate(0) translate(4 35)">
<title>omc_ResolveLoops_resolveLoops__findLoops</title>
<polygon fill="#ffffff" stroke="transparent" points="-4,4 -4,-35 312,-35 312,4 -4,4"/>
<!-- Node278 -->
<g id="node1" class="node">
<title>Node278</title>
<polygon fill="#bfbfbf" stroke="#000000" points="0,-.5 0,-30.5 140,-30.5 140,-.5 0,-.5"/>
<text text-anchor="start" x="8" y="-18.5" font-family="Helvetica,sans-Serif" font-size="10.00" fill="#000000">omc_ResolveLoops_resolve</text>
<text text-anchor="middle" x="70" y="-7.5" font-family="Helvetica,sans-Serif" font-size="10.00" fill="#000000">Loops__findLoops</text>
</g>
<!-- Node279 -->
<g id="node2" class="node">
<title>Node279</title>
<g id="a_node2"><a xlink:href="../../d3/d47/_resolve_loops_8h.html#a85100028331873d75b00f89184cbb55f" target="_top" xlink:title="boxptr_ResolveLoops\l_resolveLoops__findLoops">
<polygon fill="#ffffff" stroke="#000000" points="176,-.5 176,-30.5 308,-30.5 308,-.5 176,-.5"/>
<text text-anchor="start" x="184" y="-18.5" font-family="Helvetica,sans-Serif" font-size="10.00" fill="#000000">boxptr_ResolveLoops</text>
<text text-anchor="middle" x="242" y="-7.5" font-family="Helvetica,sans-Serif" font-size="10.00" fill="#000000">_resolveLoops__findLoops</text>
</a>
</g>
</g>
<!-- Node278&#45;&gt;Node279 -->
<g id="edge1" class="edge">
<title>Node278&#45;&gt;Node279</title>
<path fill="none" stroke="#191970" d="M150.6698,-15.5C159.0895,-15.5 167.5777,-15.5 175.8097,-15.5"/>
<polygon fill="#191970" stroke="#191970" points="150.4553,-12.0001 140.4553,-15.5 150.4552,-19.0001 150.4553,-12.0001"/>
</g>
</g>
</svg>
