<?xml version="1.0" encoding="UTF-8" standalone="no"?>
<!DOCTYPE svg PUBLIC "-//W3C//DTD SVG 1.1//EN"
 "http://www.w3.org/Graphics/SVG/1.1/DTD/svg11.dtd">
<!-- Generated by graphviz version 2.40.1 (20161225.0304)
 -->
<!-- Title: Belos::LinearProblem::getLSNumber Pages: 1 -->
<svg width="881pt" height="277pt"
 viewBox="0.00 0.00 881.00 277.00" xmlns="http://www.w3.org/2000/svg" xmlns:xlink="http://www.w3.org/1999/xlink">
<g id="graph0" class="graph" transform="scale(1 1) rotate(0) translate(4 273)">
<title>Belos::LinearProblem::getLSNumber</title>
<polygon fill="#ffffff" stroke="transparent" points="-4,4 -4,-273 877,-273 877,4 -4,4"/>
<!-- Node78 -->
<g id="node1" class="node">
<title>Node78</title>
<polygon fill="#bfbfbf" stroke="#000000" points="0,-120.5 0,-150.5 110,-150.5 110,-120.5 0,-120.5"/>
<text text-anchor="start" x="8" y="-138.5" font-family="Helvetica,sans-Serif" font-size="10.00" fill="#000000">Belos::LinearProblem</text>
<text text-anchor="middle" x="55" y="-127.5" font-family="Helvetica,sans-Serif" font-size="10.00" fill="#000000">::getLSNumber</text>
</g>
<!-- Node79 -->
<g id="node2" class="node">
<title>Node79</title>
<g id="a_node2"><a xlink:href="../../d6/dfe/class_belos_1_1_status_test_gen_res_norm.html#a66861d6f92b572996845ae52e2eb6a51" target="_top" xlink:title="Check convergence status: Passed, Failed, or Undefined. ">
<polygon fill="#ffffff" stroke="#000000" points="337,-238.5 337,-268.5 492,-268.5 492,-238.5 337,-238.5"/>
<text text-anchor="start" x="345" y="-256.5" font-family="Helvetica,sans-Serif" font-size="10.00" fill="#000000">Belos::StatusTestGenResNorm</text>
<text text-anchor="middle" x="414.5" y="-245.5" font-family="Helvetica,sans-Serif" font-size="10.00" fill="#000000">::checkStatus</text>
</a>
</g>
</g>
<!-- Node78&#45;&gt;Node79 -->
<g id="edge1" class="edge">
<title>Node78&#45;&gt;Node79</title>
<path fill="none" stroke="#191970" d="M70.2844,-159.0981C86.2296,-181.4867 113.4273,-213.9507 146,-229.5 205.6568,-257.9784 281.2226,-262.3369 336.9799,-260.5224"/>
<polygon fill="#191970" stroke="#191970" points="73.1034,-157.0207 64.5432,-150.7779 67.342,-160.9964 73.1034,-157.0207"/>
</g>
<!-- Node81 -->
<g id="node4" class="node">
<title>Node81</title>
<g id="a_node4"><a xlink:href="../../d6/dfe/class_belos_1_1_status_test_gen_res_norm.html#a304dc544be9304a246df9b377f1fd38b" target="_top" xlink:title="Call to setup initial scaling std::vector. ">
<polygon fill="#ffffff" stroke="#000000" points="146,-189.5 146,-219.5 301,-219.5 301,-189.5 146,-189.5"/>
<text text-anchor="start" x="154" y="-207.5" font-family="Helvetica,sans-Serif" font-size="10.00" fill="#000000">Belos::StatusTestGenResNorm</text>
<text text-anchor="middle" x="223.5" y="-196.5" font-family="Helvetica,sans-Serif" font-size="10.00" fill="#000000">::firstCallCheckStatusSetup</text>
</a>
</g>
</g>
<!-- Node78&#45;&gt;Node81 -->
<g id="edge3" class="edge">
<title>Node78&#45;&gt;Node81</title>
<path fill="none" stroke="#191970" d="M101.5414,-154.5585C128.3617,-165.5413 161.6058,-179.1546 186.6082,-189.393"/>
<polygon fill="#191970" stroke="#191970" points="102.5586,-151.193 91.978,-150.6423 99.9058,-157.6709 102.5586,-151.193"/>
</g>
<!-- Node83 -->
<g id="node6" class="node">
<title>Node83</title>
<g id="a_node6"><a xlink:href="../../d0/d6b/class_belos_1_1_status_test_imp_res_norm.html#a95249d6b3070c0f9aa3d148f56e367ef" target="_top" xlink:title="Check convergence status: Passed, Failed, or Undefined. ">
<polygon fill="#ffffff" stroke="#000000" points="337.5,-140.5 337.5,-170.5 491.5,-170.5 491.5,-140.5 337.5,-140.5"/>
<text text-anchor="start" x="345.5" y="-158.5" font-family="Helvetica,sans-Serif" font-size="10.00" fill="#000000">Belos::StatusTestImpResNorm</text>
<text text-anchor="middle" x="414.5" y="-147.5" font-family="Helvetica,sans-Serif" font-size="10.00" fill="#000000">::checkStatus</text>
</a>
</g>
</g>
<!-- Node78&#45;&gt;Node83 -->
<g id="edge6" class="edge">
<title>Node78&#45;&gt;Node83</title>
<path fill="none" stroke="#191970" d="M120.6754,-139.1537C181.7701,-142.5526 272.8282,-147.6184 337.3584,-151.2084"/>
<polygon fill="#191970" stroke="#191970" points="120.563,-135.6421 110.384,-138.5812 120.1741,-142.6313 120.563,-135.6421"/>
</g>
<!-- Node86 -->
<g id="node9" class="node">
<title>Node86</title>
<g id="a_node9"><a xlink:href="../../d0/d6b/class_belos_1_1_status_test_imp_res_norm.html#adc7c9b9000a53f57c52d0dc32c5a262d" target="_top" xlink:title="Call to setup initial scaling vector. ">
<polygon fill="#ffffff" stroke="#000000" points="146.5,-98.5 146.5,-128.5 300.5,-128.5 300.5,-98.5 146.5,-98.5"/>
<text text-anchor="start" x="154.5" y="-116.5" font-family="Helvetica,sans-Serif" font-size="10.00" fill="#000000">Belos::StatusTestImpResNorm</text>
<text text-anchor="middle" x="223.5" y="-105.5" font-family="Helvetica,sans-Serif" font-size="10.00" fill="#000000">::firstCallCheckStatusSetup</text>
</a>
</g>
</g>
<!-- Node78&#45;&gt;Node86 -->
<g id="edge9" class="edge">
<title>Node78&#45;&gt;Node86</title>
<path fill="none" stroke="#191970" d="M120.1483,-126.994C128.7757,-125.8676 137.6853,-124.7043 146.4887,-123.5549"/>
<polygon fill="#191970" stroke="#191970" points="119.6359,-123.5311 110.1732,-128.2964 120.5422,-130.4722 119.6359,-123.5311"/>
</g>
<!-- Node91 -->
<g id="node14" class="node">
<title>Node91</title>
<g id="a_node14"><a xlink:href="../../d6/dc4/class_belos_1_1_status_test_res_norm_output.html#a3229b6737564a69477c653fedf845ee7" target="_top" xlink:title="Belos::StatusTestResNorm\lOutput::checkStatus">
<polygon fill="#ffffff" stroke="#000000" points="155,-49.5 155,-79.5 292,-79.5 292,-49.5 155,-49.5"/>
<text text-anchor="start" x="163" y="-67.5" font-family="Helvetica,sans-Serif" font-size="10.00" fill="#000000">Belos::StatusTestResNorm</text>
<text text-anchor="middle" x="223.5" y="-56.5" font-family="Helvetica,sans-Serif" font-size="10.00" fill="#000000">Output::checkStatus</text>
</a>
</g>
</g>
<!-- Node78&#45;&gt;Node91 -->
<g id="edge16" class="edge">
<title>Node78&#45;&gt;Node91</title>
<path fill="none" stroke="#191970" d="M91.2076,-115.5612C107.6525,-106.9339 127.523,-97.0959 146,-89.5 154.63,-85.9522 163.9614,-82.5721 173.0589,-79.5089"/>
<polygon fill="#191970" stroke="#191970" points="89.1469,-112.6926 81.9574,-120.4748 92.4307,-118.8746 89.1469,-112.6926"/>
</g>
<!-- Node92 -->
<g id="node15" class="node">
<title>Node92</title>
<g id="a_node15"><a xlink:href="../../d3/d7c/class_belos_1_1_status_test_user_output.html#a23a9f126db59336af4058f1fcd1699a5" target="_top" xlink:title="Belos::StatusTestUserOutput\l::checkStatus">
<polygon fill="#ffffff" stroke="#000000" points="150.5,-.5 150.5,-30.5 296.5,-30.5 296.5,-.5 150.5,-.5"/>
<text text-anchor="start" x="158.5" y="-18.5" font-family="Helvetica,sans-Serif" font-size="10.00" fill="#000000">Belos::StatusTestUserOutput</text>
<text text-anchor="middle" x="223.5" y="-7.5" font-family="Helvetica,sans-Serif" font-size="10.00" fill="#000000">::checkStatus</text>
</a>
</g>
</g>
<!-- Node78&#45;&gt;Node92 -->
<g id="edge17" class="edge">
<title>Node78&#45;&gt;Node92</title>
<path fill="none" stroke="#191970" d="M71.5197,-112.1324C88.0425,-90.3871 115.3531,-58.5531 146,-39.5 151.5025,-36.0791 157.5299,-33.1127 163.7157,-30.5479"/>
<polygon fill="#191970" stroke="#191970" points="68.6774,-110.0894 65.5276,-120.2052 74.2982,-114.2616 68.6774,-110.0894"/>
</g>
<!-- Node80 -->
<g id="node3" class="node">
<title>Node80</title>
<g id="a_node3"><a xlink:href="../../d6/dfe/class_belos_1_1_status_test_gen_res_norm.html#a2a5aaf2ddb054ca833859ff9af2d9266" target="_top" xlink:title="Set whether the only maximum residual norm is displayed when the print() method is called...">
<polygon fill="#ffffff" stroke="#000000" points="528,-238.5 528,-268.5 683,-268.5 683,-238.5 528,-238.5"/>
<text text-anchor="start" x="536" y="-256.5" font-family="Helvetica,sans-Serif" font-size="10.00" fill="#000000">Belos::StatusTestGenResNorm</text>
<text text-anchor="middle" x="605.5" y="-245.5" font-family="Helvetica,sans-Serif" font-size="10.00" fill="#000000">::setShowMaxResNormOnly</text>
</a>
</g>
</g>
<!-- Node79&#45;&gt;Node80 -->
<g id="edge2" class="edge">
<title>Node79&#45;&gt;Node80</title>
<path fill="none" stroke="#191970" d="M502.1934,-253.5C510.7647,-253.5 519.4204,-253.5 527.8818,-253.5"/>
<polygon fill="#191970" stroke="#191970" points="502.187,-250.0001 492.187,-253.5 502.187,-257.0001 502.187,-250.0001"/>
</g>
<!-- Node81&#45;&gt;Node79 -->
<g id="edge5" class="edge">
<title>Node81&#45;&gt;Node79</title>
<path fill="none" stroke="#191970" d="M291.9084,-222.0498C312.8826,-227.4306 335.7575,-233.299 356.0065,-238.4938"/>
<polygon fill="#191970" stroke="#191970" points="292.6604,-218.6294 282.1043,-219.5346 290.9209,-225.4099 292.6604,-218.6294"/>
</g>
<!-- Node82 -->
<g id="node5" class="node">
<title>Node82</title>
<g id="a_node5"><a xlink:href="../../d6/dfe/class_belos_1_1_status_test_gen_res_norm.html#aeb8754300009834be89d604786e0e5be" target="_top" xlink:title="Belos::StatusTestGenResNorm\l::getLOADetected">
<polygon fill="#ffffff" stroke="#000000" points="337,-189.5 337,-219.5 492,-219.5 492,-189.5 337,-189.5"/>
<text text-anchor="start" x="345" y="-207.5" font-family="Helvetica,sans-Serif" font-size="10.00" fill="#000000">Belos::StatusTestGenResNorm</text>
<text text-anchor="middle" x="414.5" y="-196.5" font-family="Helvetica,sans-Serif" font-size="10.00" fill="#000000">::getLOADetected</text>
</a>
</g>
</g>
<!-- Node81&#45;&gt;Node82 -->
<g id="edge4" class="edge">
<title>Node81&#45;&gt;Node82</title>
<path fill="none" stroke="#191970" d="M311.1934,-204.5C319.7647,-204.5 328.4204,-204.5 336.8818,-204.5"/>
<polygon fill="#191970" stroke="#191970" points="311.187,-201.0001 301.187,-204.5 311.187,-208.0001 311.187,-201.0001"/>
</g>
<!-- Node84 -->
<g id="node7" class="node">
<title>Node84</title>
<g id="a_node7"><a xlink:href="../../d0/d6b/class_belos_1_1_status_test_imp_res_norm.html#adae716113c9688aecaae5d2c64171aaf" target="_top" xlink:title="Set whether the only maximum residual norm is displayed when the print() method is called...">
<polygon fill="#ffffff" stroke="#000000" points="528.5,-173.5 528.5,-203.5 682.5,-203.5 682.5,-173.5 528.5,-173.5"/>
<text text-anchor="start" x="536.5" y="-191.5" font-family="Helvetica,sans-Serif" font-size="10.00" fill="#000000">Belos::StatusTestImpResNorm</text>
<text text-anchor="middle" x="605.5" y="-180.5" font-family="Helvetica,sans-Serif" font-size="10.00" fill="#000000">::setShowMaxResNormOnly</text>
</a>
</g>
</g>
<!-- Node83&#45;&gt;Node84 -->
<g id="edge7" class="edge">
<title>Node83&#45;&gt;Node84</title>
<path fill="none" stroke="#191970" d="M501.6484,-170.5571C510.5679,-172.0981 519.5853,-173.6561 528.3861,-175.1767"/>
<polygon fill="#191970" stroke="#191970" points="502.0864,-167.0809 491.6365,-168.8272 500.8946,-173.9788 502.0864,-167.0809"/>
</g>
<!-- Node85 -->
<g id="node8" class="node">
<title>Node85</title>
<g id="a_node8"><a xlink:href="../../d0/d6b/class_belos_1_1_status_test_imp_res_norm.html#a63cfcd4961cd567a2ec025cced795fe3" target="_top" xlink:title="Define form of the scaling, its norm, its optional weighting vector, or, alternatively, define an explicit value. ">
<polygon fill="#ffffff" stroke="#000000" points="528.5,-124.5 528.5,-154.5 682.5,-154.5 682.5,-124.5 528.5,-124.5"/>
<text text-anchor="start" x="536.5" y="-142.5" font-family="Helvetica,sans-Serif" font-size="10.00" fill="#000000">Belos::StatusTestImpResNorm</text>
<text text-anchor="middle" x="605.5" y="-131.5" font-family="Helvetica,sans-Serif" font-size="10.00" fill="#000000">::defineScaleForm</text>
</a>
</g>
</g>
<!-- Node83&#45;&gt;Node85 -->
<g id="edge8" class="edge">
<title>Node83&#45;&gt;Node85</title>
<path fill="none" stroke="#191970" d="M501.6484,-148.1996C510.5679,-147.4524 519.5853,-146.697 528.3861,-145.9598"/>
<polygon fill="#191970" stroke="#191970" points="501.3094,-144.7157 491.6365,-149.0383 501.8938,-151.6912 501.3094,-144.7157"/>
</g>
<!-- Node86&#45;&gt;Node83 -->
<g id="edge11" class="edge">
<title>Node86&#45;&gt;Node83</title>
<path fill="none" stroke="#191970" d="M301.975,-130.7563C316.6586,-133.9851 331.8971,-137.336 346.2409,-140.4902"/>
<polygon fill="#191970" stroke="#191970" points="302.4343,-127.2737 291.9159,-128.5443 300.9309,-134.1104 302.4343,-127.2737"/>
</g>
<!-- Node87 -->
<g id="node10" class="node">
<title>Node87</title>
<g id="a_node10"><a xlink:href="../../d0/d6b/class_belos_1_1_status_test_imp_res_norm.html#a7dfed3994b93626667ca2c60d0114222" target="_top" xlink:title="Returns a boolean indicating a loss of accuracy has been detected in computing the residual...">
<polygon fill="#ffffff" stroke="#000000" points="337.5,-91.5 337.5,-121.5 491.5,-121.5 491.5,-91.5 337.5,-91.5"/>
<text text-anchor="start" x="345.5" y="-109.5" font-family="Helvetica,sans-Serif" font-size="10.00" fill="#000000">Belos::StatusTestImpResNorm</text>
<text text-anchor="middle" x="414.5" y="-98.5" font-family="Helvetica,sans-Serif" font-size="10.00" fill="#000000">::getLOADetected</text>
</a>
</g>
</g>
<!-- Node86&#45;&gt;Node87 -->
<g id="edge10" class="edge">
<title>Node86&#45;&gt;Node87</title>
<path fill="none" stroke="#191970" d="M310.6484,-110.3061C319.5679,-109.9792 328.5853,-109.6487 337.3861,-109.3262"/>
<polygon fill="#191970" stroke="#191970" points="310.5015,-106.809 300.6365,-110.673 310.758,-113.8043 310.5015,-106.809"/>
</g>
<!-- Node88 -->
<g id="node11" class="node">
<title>Node88</title>
<g id="a_node11"><a xlink:href="../../d0/d6b/class_belos_1_1_status_test_imp_res_norm.html#a5e2d5468aef81195eb7acc8ffda4e7ea" target="_top" xlink:title="Print message for each status specific to this stopping test. ">
<polygon fill="#ffffff" stroke="#000000" points="337.5,-42.5 337.5,-72.5 491.5,-72.5 491.5,-42.5 337.5,-42.5"/>
<text text-anchor="start" x="345.5" y="-60.5" font-family="Helvetica,sans-Serif" font-size="10.00" fill="#000000">Belos::StatusTestImpResNorm</text>
<text text-anchor="middle" x="414.5" y="-49.5" font-family="Helvetica,sans-Serif" font-size="10.00" fill="#000000">::printStatus</text>
</a>
</g>
</g>
<!-- Node86&#45;&gt;Node88 -->
<g id="edge12" class="edge">
<title>Node86&#45;&gt;Node88</title>
<path fill="none" stroke="#191970" d="M284.5564,-95.5986C309.8921,-88.1704 338.9625,-79.6471 363.1742,-72.5484"/>
<polygon fill="#191970" stroke="#191970" points="283.2958,-92.3208 274.6845,-98.493 285.2653,-99.0381 283.2958,-92.3208"/>
</g>
<!-- Node89 -->
<g id="node12" class="node">
<title>Node89</title>
<g id="a_node12"><a xlink:href="../../d0/d6b/class_belos_1_1_status_test_imp_res_norm.html#a908a597588d01fecf4c49e82ec564fde" target="_top" xlink:title="Return the result of the most recent CheckStatus call. ">
<polygon fill="#ffffff" stroke="#000000" points="719,-42.5 719,-72.5 873,-72.5 873,-42.5 719,-42.5"/>
<text text-anchor="start" x="727" y="-60.5" font-family="Helvetica,sans-Serif" font-size="10.00" fill="#000000">Belos::StatusTestImpResNorm</text>
<text text-anchor="middle" x="796" y="-49.5" font-family="Helvetica,sans-Serif" font-size="10.00" fill="#000000">::getStatus</text>
</a>
</g>
</g>
<!-- Node88&#45;&gt;Node89 -->
<g id="edge13" class="edge">
<title>Node88&#45;&gt;Node89</title>
<path fill="none" stroke="#191970" d="M502.0142,-59.1967C510.7926,-59.3205 519.5721,-59.4258 528,-59.5 596.8862,-60.1069 614.1138,-60.1096 683,-59.5 694.576,-59.3976 706.8183,-59.2361 718.8049,-59.0483"/>
<polygon fill="#191970" stroke="#191970" points="501.7817,-55.6929 491.7307,-59.0435 501.6774,-62.6921 501.7817,-55.6929"/>
</g>
<!-- Node90 -->
<g id="node13" class="node">
<title>Node90</title>
<g id="a_node13"><a xlink:href="../../d0/d6b/class_belos_1_1_status_test_imp_res_norm.html#a6d54495ca8436639a63077fd27789186" target="_top" xlink:title="Output formatted description of stopping test to output stream. ">
<polygon fill="#ffffff" stroke="#000000" points="528.5,-20.5 528.5,-50.5 682.5,-50.5 682.5,-20.5 528.5,-20.5"/>
<text text-anchor="start" x="536.5" y="-38.5" font-family="Helvetica,sans-Serif" font-size="10.00" fill="#000000">Belos::StatusTestImpResNorm</text>
<text text-anchor="middle" x="605.5" y="-27.5" font-family="Helvetica,sans-Serif" font-size="10.00" fill="#000000">::print</text>
</a>
</g>
</g>
<!-- Node88&#45;&gt;Node90 -->
<g id="edge14" class="edge">
<title>Node88&#45;&gt;Node90</title>
<path fill="none" stroke="#191970" d="M501.6484,-47.462C510.5679,-46.4346 519.5853,-45.3959 528.3861,-44.3822"/>
<polygon fill="#191970" stroke="#191970" points="501.1703,-43.9938 491.6365,-48.6152 501.9713,-50.9478 501.1703,-43.9938"/>
</g>
<!-- Node90&#45;&gt;Node89 -->
<g id="edge15" class="edge">
<title>Node90&#45;&gt;Node89</title>
<path fill="none" stroke="#191970" d="M692.8794,-45.5911C701.5928,-46.5973 710.3945,-47.6138 718.9904,-48.6065"/>
<polygon fill="#191970" stroke="#191970" points="693.0446,-42.087 682.709,-44.4165 692.2414,-49.0407 693.0446,-42.087"/>
</g>
</g>
</svg>
