<?xml version="1.0" encoding="UTF-8" standalone="no"?>
<!DOCTYPE svg PUBLIC "-//W3C//DTD SVG 1.1//EN"
 "http://www.w3.org/Graphics/SVG/1.1/DTD/svg11.dtd">
<!-- Generated by graphviz version 2.40.1 (20161225.0304)
 -->
<!-- Title: Ipopt::IpoptAlgorithm::SearchDirCalc Pages: 1 -->
<svg width="538pt" height="39pt"
 viewBox="0.00 0.00 538.00 39.00" xmlns="http://www.w3.org/2000/svg" xmlns:xlink="http://www.w3.org/1999/xlink">
<g id="graph0" class="graph" transform="scale(1 1) rotate(0) translate(4 35)">
<title>Ipopt::IpoptAlgorithm::SearchDirCalc</title>
<polygon fill="#ffffff" stroke="transparent" points="-4,4 -4,-35 534,-35 534,4 -4,4"/>
<!-- Node153 -->
<g id="node1" class="node">
<title>Node153</title>
<polygon fill="#bfbfbf" stroke="#000000" points="0,-.5 0,-30.5 107,-30.5 107,-.5 0,-.5"/>
<text text-anchor="start" x="8" y="-18.5" font-family="Helvetica,sans-Serif" font-size="10.00" fill="#000000">Ipopt::IpoptAlgorithm</text>
<text text-anchor="middle" x="53.5" y="-7.5" font-family="Helvetica,sans-Serif" font-size="10.00" fill="#000000">::SearchDirCalc</text>
</g>
<!-- Node154 -->
<g id="node2" class="node">
<title>Node154</title>
<g id="a_node2"><a xlink:href="../../d0/dce/class_ipopt_1_1_ipopt_algorithm.html#a5eef186d1402793cce0864035c35d7c0" target="_top" xlink:title="Ipopt::IpoptAlgorithm\l::print_copyright_message">
<polygon fill="#ffffff" stroke="#000000" points="143,-.5 143,-30.5 274,-30.5 274,-.5 143,-.5"/>
<text text-anchor="start" x="151" y="-18.5" font-family="Helvetica,sans-Serif" font-size="10.00" fill="#000000">Ipopt::IpoptAlgorithm</text>
<text text-anchor="middle" x="208.5" y="-7.5" font-family="Helvetica,sans-Serif" font-size="10.00" fill="#000000">::print_copyright_message</text>
</a>
</g>
</g>
<!-- Node153&#45;&gt;Node154 -->
<g id="edge1" class="edge">
<title>Node153&#45;&gt;Node154</title>
<path fill="none" stroke="#191970" d="M107.2765,-15.5C115.5092,-15.5 124.1372,-15.5 132.7367,-15.5"/>
<polygon fill="#191970" stroke="#191970" points="132.7933,-19.0001 142.7933,-15.5 132.7932,-12.0001 132.7933,-19.0001"/>
</g>
<!-- Node155 -->
<g id="node3" class="node">
<title>Node155</title>
<g id="a_node3"><a xlink:href="../../d0/d1d/class_ipopt_1_1_journalist.html#af36c292ab2c6708c5585f5fdeca2f91c" target="_top" xlink:title="Ipopt::Journalist::\lPrintf">
<polygon fill="#ffffff" stroke="#000000" points="310,-.5 310,-30.5 402,-30.5 402,-.5 310,-.5"/>
<text text-anchor="start" x="318" y="-18.5" font-family="Helvetica,sans-Serif" font-size="10.00" fill="#000000">Ipopt::Journalist::</text>
<text text-anchor="middle" x="356" y="-7.5" font-family="Helvetica,sans-Serif" font-size="10.00" fill="#000000">Printf</text>
</a>
</g>
</g>
<!-- Node154&#45;&gt;Node155 -->
<g id="edge2" class="edge">
<title>Node154&#45;&gt;Node155</title>
<path fill="none" stroke="#191970" d="M274.0546,-15.5C282.5878,-15.5 291.2692,-15.5 299.6342,-15.5"/>
<polygon fill="#191970" stroke="#191970" points="299.6495,-19.0001 309.6495,-15.5 299.6494,-12.0001 299.6495,-19.0001"/>
</g>
<!-- Node156 -->
<g id="node4" class="node">
<title>Node156</title>
<g id="a_node4"><a xlink:href="../../d0/d1d/class_ipopt_1_1_journalist.html#a0246a370d7fc421484490bd90604e4d7" target="_top" xlink:title="Ipopt::Journalist::\lVPrintf">
<polygon fill="#ffffff" stroke="#000000" points="438,-.5 438,-30.5 530,-30.5 530,-.5 438,-.5"/>
<text text-anchor="start" x="446" y="-18.5" font-family="Helvetica,sans-Serif" font-size="10.00" fill="#000000">Ipopt::Journalist::</text>
<text text-anchor="middle" x="484" y="-7.5" font-family="Helvetica,sans-Serif" font-size="10.00" fill="#000000">VPrintf</text>
</a>
</g>
</g>
<!-- Node155&#45;&gt;Node156 -->
<g id="edge3" class="edge">
<title>Node155&#45;&gt;Node156</title>
<path fill="none" stroke="#191970" d="M402.2109,-15.5C410.4583,-15.5 419.1339,-15.5 427.6276,-15.5"/>
<polygon fill="#191970" stroke="#191970" points="427.8569,-19.0001 437.8569,-15.5 427.8569,-12.0001 427.8569,-19.0001"/>
</g>
</g>
</svg>
