<?xml version="1.0" encoding="UTF-8" standalone="no"?>
<!DOCTYPE svg PUBLIC "-//W3C//DTD SVG 1.1//EN"
 "http://www.w3.org/Graphics/SVG/1.1/DTD/svg11.dtd">
<!-- Generated by graphviz version 2.40.1 (20161225.0304)
 -->
<!-- Title: substr Pages: 1 -->
<svg width="250pt" height="104pt"
 viewBox="0.00 0.00 250.00 104.00" xmlns="http://www.w3.org/2000/svg" xmlns:xlink="http://www.w3.org/1999/xlink">
<g id="graph0" class="graph" transform="scale(1 1) rotate(0) translate(4 100)">
<title>substr</title>
<polygon fill="#ffffff" stroke="transparent" points="-4,4 -4,-100 246,-100 246,4 -4,4"/>
<!-- Node244 -->
<g id="node1" class="node">
<title>Node244</title>
<polygon fill="#bfbfbf" stroke="#000000" points="0,-38.5 0,-57.5 44,-57.5 44,-38.5 0,-38.5"/>
<text text-anchor="middle" x="22" y="-45.5" font-family="Helvetica,sans-Serif" font-size="10.00" fill="#000000">substr</text>
</g>
<!-- Node245 -->
<g id="node2" class="node">
<title>Node245</title>
<g id="a_node2"><a xlink:href="../../d6/d84/3rd_party_2open62541_2open62541_8h.html#aa383452fe445bfae989358c9d7d96f4f" target="_top" xlink:title="strlen">
<polygon fill="#ffffff" stroke="#000000" points="102,-76.5 102,-95.5 143,-95.5 143,-76.5 102,-76.5"/>
<text text-anchor="middle" x="122.5" y="-83.5" font-family="Helvetica,sans-Serif" font-size="10.00" fill="#000000">strlen</text>
</a>
</g>
</g>
<!-- Node244&#45;&gt;Node245 -->
<g id="edge1" class="edge">
<title>Node244&#45;&gt;Node245</title>
<path fill="none" stroke="#191970" d="M44.3042,-56.4334C58.4405,-61.7785 76.9034,-68.7595 92.3389,-74.5958"/>
<polygon fill="#191970" stroke="#191970" points="91.3776,-77.9741 101.9691,-78.2371 93.8533,-71.4265 91.3776,-77.9741"/>
</g>
<!-- Node246 -->
<g id="node3" class="node">
<title>Node246</title>
<g id="a_node3"><a xlink:href="../../dc/ddc/3rd_party_2flex-2_85_835_2parse_8c.html#a5faf6a2d99f50a4655dd390199a8db7b" target="_top" xlink:title="malloc">
<polygon fill="#ffffff" stroke="#000000" points="100,-38.5 100,-57.5 145,-57.5 145,-38.5 100,-38.5"/>
<text text-anchor="middle" x="122.5" y="-45.5" font-family="Helvetica,sans-Serif" font-size="10.00" fill="#000000">malloc</text>
</a>
</g>
</g>
<!-- Node244&#45;&gt;Node246 -->
<g id="edge2" class="edge">
<title>Node244&#45;&gt;Node246</title>
<path fill="none" stroke="#191970" d="M44.3042,-48C57.6129,-48 74.7562,-48 89.598,-48"/>
<polygon fill="#191970" stroke="#191970" points="89.9107,-51.5001 99.9106,-48 89.9106,-44.5001 89.9107,-51.5001"/>
</g>
<!-- Node247 -->
<g id="node4" class="node">
<title>Node247</title>
<g id="a_node4"><a xlink:href="../../d2/d9f/hbio_8c.html#a88c77ebb1b55ae8b14f5d23130dd00fb" target="_top" xlink:title="IOHBTerminate">
<polygon fill="#ffffff" stroke="#000000" points="80,-.5 80,-19.5 165,-19.5 165,-.5 80,-.5"/>
<text text-anchor="middle" x="122.5" y="-7.5" font-family="Helvetica,sans-Serif" font-size="10.00" fill="#000000">IOHBTerminate</text>
</a>
</g>
</g>
<!-- Node244&#45;&gt;Node247 -->
<g id="edge3" class="edge">
<title>Node244&#45;&gt;Node247</title>
<path fill="none" stroke="#191970" d="M44.3042,-39.5666C56.9903,-34.7698 73.1607,-28.6556 87.5007,-23.2336"/>
<polygon fill="#191970" stroke="#191970" points="88.9548,-26.4257 97.0706,-19.6151 86.479,-19.8781 88.9548,-26.4257"/>
</g>
<!-- Node248 -->
<g id="node5" class="node">
<title>Node248</title>
<g id="a_node5"><a xlink:href="../../d4/d98/g_09_09malloc_8c.html#a49f789e614e57e410f598885b800c2df" target="_top" xlink:title="fprintf">
<polygon fill="#ffffff" stroke="#000000" points="201,-.5 201,-19.5 242,-19.5 242,-.5 201,-.5"/>
<text text-anchor="middle" x="221.5" y="-7.5" font-family="Helvetica,sans-Serif" font-size="10.00" fill="#000000">fprintf</text>
</a>
</g>
</g>
<!-- Node247&#45;&gt;Node248 -->
<g id="edge4" class="edge">
<title>Node247&#45;&gt;Node248</title>
<path fill="none" stroke="#191970" d="M165.0595,-10C173.6591,-10 182.5439,-10 190.6477,-10"/>
<polygon fill="#191970" stroke="#191970" points="190.7615,-13.5001 200.7614,-10 190.7614,-6.5001 190.7615,-13.5001"/>
</g>
</g>
</svg>
