<?xml version="1.0" encoding="UTF-8" standalone="no"?>
<!DOCTYPE svg PUBLIC "-//W3C//DTD SVG 1.1//EN"
 "http://www.w3.org/Graphics/SVG/1.1/DTD/svg11.dtd">
<!-- Generated by graphviz version 2.40.1 (20161225.0304)
 -->
<!-- Title: readHB_newmat_double Pages: 1 -->
<svg width="503pt" height="143pt"
 viewBox="0.00 0.00 503.00 143.00" xmlns="http://www.w3.org/2000/svg" xmlns:xlink="http://www.w3.org/1999/xlink">
<g id="graph0" class="graph" transform="scale(1 1) rotate(0) translate(4 139)">
<title>readHB_newmat_double</title>
<polygon fill="#ffffff" stroke="transparent" points="-4,4 -4,-139 499,-139 499,4 -4,4"/>
<!-- Node238 -->
<g id="node1" class="node">
<title>Node238</title>
<polygon fill="#bfbfbf" stroke="#000000" points="0,-71.5 0,-90.5 123,-90.5 123,-71.5 0,-71.5"/>
<text text-anchor="middle" x="61.5" y="-78.5" font-family="Helvetica,sans-Serif" font-size="10.00" fill="#000000">readHB_newmat_double</text>
</g>
<!-- Node239 -->
<g id="node2" class="node">
<title>Node239</title>
<g id="a_node2"><a xlink:href="../../df/d4e/test_2_block_c_g_2test__bl__cg__complex__hb_8cpp.html#a0ddf1224851353fc92bfbff6f499fa97" target="_top" xlink:title="main">
<polygon fill="#ffffff" stroke="#000000" points="214.5,-115.5 214.5,-134.5 252.5,-134.5 252.5,-115.5 214.5,-115.5"/>
<text text-anchor="middle" x="233.5" y="-122.5" font-family="Helvetica,sans-Serif" font-size="10.00" fill="#000000">main</text>
</a>
</g>
</g>
<!-- Node238&#45;&gt;Node239 -->
<g id="edge1" class="edge">
<title>Node238&#45;&gt;Node239</title>
<path fill="none" stroke="#191970" d="M108.2538,-93.0012C124.3363,-97.1259 142.4563,-101.7694 159,-106 177.7512,-110.7951 199.1616,-116.2538 214.2032,-120.0859"/>
<polygon fill="#191970" stroke="#191970" points="109.0919,-89.6029 98.5358,-90.5083 107.3525,-96.3834 109.0919,-89.6029"/>
</g>
<!-- Node240 -->
<g id="node3" class="node">
<title>Node240</title>
<g id="a_node3"><a xlink:href="../../d0/d93/class_belos_1_1_tpetra_1_1_harwell_boeing_reader.html#a4ffc66536c2a1f2d2af3e2262bb51fc3" target="_top" xlink:title="Read the sparse matrix from the file with the given name. ">
<polygon fill="#ffffff" stroke="#000000" points="161.5,-66 161.5,-96 305.5,-96 305.5,-66 161.5,-66"/>
<text text-anchor="start" x="169.5" y="-84" font-family="Helvetica,sans-Serif" font-size="10.00" fill="#000000">Belos::Tpetra::HarwellBoeing</text>
<text text-anchor="middle" x="233.5" y="-73" font-family="Helvetica,sans-Serif" font-size="10.00" fill="#000000">Reader::readFromFile</text>
</a>
</g>
</g>
<!-- Node238&#45;&gt;Node240 -->
<g id="edge2" class="edge">
<title>Node238&#45;&gt;Node240</title>
<path fill="none" stroke="#191970" d="M133.1543,-81C142.5151,-81 152.1094,-81 161.4763,-81"/>
<polygon fill="#191970" stroke="#191970" points="133.1102,-77.5001 123.1101,-81 133.1101,-84.5001 133.1102,-77.5001"/>
</g>
<!-- Node241 -->
<g id="node4" class="node">
<title>Node241</title>
<g id="a_node4"><a xlink:href="../../d6/d17/namespace_belos_1_1_test.html#a19c76a98cb47b74db1ce3dc620dbb006" target="_top" xlink:title="Belos::Test::loadSparseMatrix">
<polygon fill="#ffffff" stroke="#000000" points="159,-27.5 159,-46.5 308,-46.5 308,-27.5 159,-27.5"/>
<text text-anchor="middle" x="233.5" y="-34.5" font-family="Helvetica,sans-Serif" font-size="10.00" fill="#000000">Belos::Test::loadSparseMatrix</text>
</a>
</g>
</g>
<!-- Node238&#45;&gt;Node241 -->
<g id="edge3" class="edge">
<title>Node238&#45;&gt;Node241</title>
<path fill="none" stroke="#191970" d="M108.6505,-68.9383C136.2359,-61.8815 170.5731,-53.0976 196.2514,-46.5287"/>
<polygon fill="#191970" stroke="#191970" points="107.642,-65.5834 98.8214,-71.4527 109.3769,-72.3651 107.642,-65.5834"/>
</g>
<!-- Node242 -->
<g id="node5" class="node">
<title>Node242</title>
<g id="a_node5"><a xlink:href="../../d3/da0/class_sparse_matrix_loader_3_01double_00_01_local_ordinal_type_00_01_global_ordinal_type_00_01_node_type_01_4.html#acb5986315921330839f9e2412820f42a" target="_top" xlink:title="SparseMatrixLoader\l\&lt; double, LocalOrdinalType,\l GlobalOrdinalType, NodeType\l \&gt;::load">
<polygon fill="#ffffff" stroke="#000000" points="344,-39 344,-91 495,-91 495,-39 344,-39"/>
<text text-anchor="start" x="352" y="-79" font-family="Helvetica,sans-Serif" font-size="10.00" fill="#000000">SparseMatrixLoader</text>
<text text-anchor="start" x="352" y="-68" font-family="Helvetica,sans-Serif" font-size="10.00" fill="#000000">&lt; double, LocalOrdinalType,</text>
<text text-anchor="start" x="352" y="-57" font-family="Helvetica,sans-Serif" font-size="10.00" fill="#000000"> GlobalOrdinalType, NodeType</text>
<text text-anchor="middle" x="419.5" y="-46" font-family="Helvetica,sans-Serif" font-size="10.00" fill="#000000"> &gt;::load</text>
</a>
</g>
</g>
<!-- Node241&#45;&gt;Node242 -->
<g id="edge4" class="edge">
<title>Node241&#45;&gt;Node242</title>
<path fill="none" stroke="#191970" d="M306.833,-48.0394C319.0149,-49.8732 331.6686,-51.7781 343.9053,-53.6202"/>
<polygon fill="#191970" stroke="#191970" points="307.1403,-44.5463 296.7307,-46.5186 306.0982,-51.4683 307.1403,-44.5463"/>
</g>
<!-- Node243 -->
<g id="node6" class="node">
<title>Node243</title>
<g id="a_node6"><a xlink:href="../../d9/d6e/belos__orthomanager__tpetra__benchmark_8cpp.html#a0ddf1224851353fc92bfbff6f499fa97" target="_top" xlink:title="main">
<polygon fill="#ffffff" stroke="#000000" points="400.5,-.5 400.5,-19.5 438.5,-19.5 438.5,-.5 400.5,-.5"/>
<text text-anchor="middle" x="419.5" y="-7.5" font-family="Helvetica,sans-Serif" font-size="10.00" fill="#000000">main</text>
</a>
</g>
</g>
<!-- Node241&#45;&gt;Node243 -->
<g id="edge5" class="edge">
<title>Node241&#45;&gt;Node243</title>
<path fill="none" stroke="#191970" d="M309.274,-26.0005C342.5103,-21.1759 378.7882,-15.9098 400.3184,-12.7844"/>
<polygon fill="#191970" stroke="#191970" points="308.4701,-22.5805 299.0766,-27.4808 309.4757,-29.5079 308.4701,-22.5805"/>
</g>
</g>
</svg>
