<?xml version="1.0" encoding="UTF-8" standalone="no"?>
<!DOCTYPE svg PUBLIC "-//W3C//DTD SVG 1.1//EN"
 "http://www.w3.org/Graphics/SVG/1.1/DTD/svg11.dtd">
<!-- Generated by graphviz version 2.40.1 (20161225.0304)
 -->
<!-- Title: omc_InstExtends_lookupVarNoErrorMessage Pages: 1 -->
<svg width="514pt" height="39pt"
 viewBox="0.00 0.00 514.00 39.00" xmlns="http://www.w3.org/2000/svg" xmlns:xlink="http://www.w3.org/1999/xlink">
<g id="graph0" class="graph" transform="scale(1 1) rotate(0) translate(4 35)">
<title>omc_InstExtends_lookupVarNoErrorMessage</title>
<polygon fill="#ffffff" stroke="transparent" points="-4,4 -4,-35 510,-35 510,4 -4,4"/>
<!-- Node1700 -->
<g id="node1" class="node">
<title>Node1700</title>
<polygon fill="#bfbfbf" stroke="#000000" points="0,-.5 0,-30.5 142,-30.5 142,-.5 0,-.5"/>
<text text-anchor="start" x="8" y="-18.5" font-family="Helvetica,sans-Serif" font-size="10.00" fill="#000000">omc_InstExtends_lookupVar</text>
<text text-anchor="middle" x="71" y="-7.5" font-family="Helvetica,sans-Serif" font-size="10.00" fill="#000000">NoErrorMessage</text>
</g>
<!-- Node1701 -->
<g id="node2" class="node">
<title>Node1701</title>
<g id="a_node2"><a xlink:href="../../d1/d38/_inst_extends_8c.html#af09ab174aff991860c85578dd116e046" target="_top" xlink:title="omc_InstExtends_fixCref">
<polygon fill="#ffffff" stroke="#000000" points="178,-6 178,-25 306,-25 306,-6 178,-6"/>
<text text-anchor="middle" x="242" y="-13" font-family="Helvetica,sans-Serif" font-size="10.00" fill="#000000">omc_InstExtends_fixCref</text>
</a>
</g>
</g>
<!-- Node1700&#45;&gt;Node1701 -->
<g id="edge1" class="edge">
<title>Node1700&#45;&gt;Node1701</title>
<path fill="none" stroke="#191970" d="M152.0909,-15.5C160.6994,-15.5 169.3676,-15.5 177.7453,-15.5"/>
<polygon fill="#191970" stroke="#191970" points="152.0339,-12.0001 142.0338,-15.5 152.0338,-19.0001 152.0339,-12.0001"/>
</g>
<!-- Node1702 -->
<g id="node3" class="node">
<title>Node1702</title>
<g id="a_node3"><a xlink:href="../../d1/d38/_inst_extends_8c.html#a0a3b4167d465d55b965d938bae8a4fb7" target="_top" xlink:title="omc_InstExtends_fixExpTraverse">
<polygon fill="#ffffff" stroke="#000000" points="342,-6 342,-25 506,-25 506,-6 342,-6"/>
<text text-anchor="middle" x="424" y="-13" font-family="Helvetica,sans-Serif" font-size="10.00" fill="#000000">omc_InstExtends_fixExpTraverse</text>
</a>
</g>
</g>
<!-- Node1701&#45;&gt;Node1702 -->
<g id="edge2" class="edge">
<title>Node1701&#45;&gt;Node1702</title>
<path fill="none" stroke="#191970" d="M316.3339,-15.5C324.7664,-15.5 333.3967,-15.5 341.9215,-15.5"/>
<polygon fill="#191970" stroke="#191970" points="316.1664,-12.0001 306.1664,-15.5 316.1664,-19.0001 316.1664,-12.0001"/>
</g>
</g>
</svg>
