<?xml version="1.0" encoding="UTF-8" standalone="no"?>
<!DOCTYPE svg PUBLIC "-//W3C//DTD SVG 1.1//EN"
 "http://www.w3.org/Graphics/SVG/1.1/DTD/svg11.dtd">
<!-- Generated by graphviz version 2.40.1 (20161225.0304)
 -->
<!-- Title: omc_InstExtends_instClassExtendsList Pages: 1 -->
<svg width="726pt" height="124pt"
 viewBox="0.00 0.00 726.00 123.50" xmlns="http://www.w3.org/2000/svg" xmlns:xlink="http://www.w3.org/1999/xlink">
<g id="graph0" class="graph" transform="scale(1 1) rotate(0) translate(4 119.5)">
<title>omc_InstExtends_instClassExtendsList</title>
<polygon fill="#ffffff" stroke="transparent" points="-4,4 -4,-119.5 722,-119.5 722,4 -4,4"/>
<!-- Node1267 -->
<g id="node1" class="node">
<title>Node1267</title>
<polygon fill="#bfbfbf" stroke="#000000" points="0,-51.5 0,-81.5 140,-81.5 140,-51.5 0,-51.5"/>
<text text-anchor="start" x="8" y="-69.5" font-family="Helvetica,sans-Serif" font-size="10.00" fill="#000000">omc_InstExtends_instClass</text>
<text text-anchor="middle" x="70" y="-58.5" font-family="Helvetica,sans-Serif" font-size="10.00" fill="#000000">ExtendsList</text>
</g>
<!-- Node1268 -->
<g id="node2" class="node">
<title>Node1268</title>
<g id="a_node2"><a xlink:href="../../d1/d38/_inst_extends_8c.html#a20d1cd2bd200b28d5fd832fe9b06e829" target="_top" xlink:title="omc_InstExtends_instExtends\lAndClassExtendsList2">
<polygon fill="#ffffff" stroke="#000000" points="176,-51.5 176,-81.5 326,-81.5 326,-51.5 176,-51.5"/>
<text text-anchor="start" x="184" y="-69.5" font-family="Helvetica,sans-Serif" font-size="10.00" fill="#000000">omc_InstExtends_instExtends</text>
<text text-anchor="middle" x="251" y="-58.5" font-family="Helvetica,sans-Serif" font-size="10.00" fill="#000000">AndClassExtendsList2</text>
</a>
</g>
</g>
<!-- Node1267&#45;&gt;Node1268 -->
<g id="edge1" class="edge">
<title>Node1267&#45;&gt;Node1268</title>
<path fill="none" stroke="#191970" d="M150.4187,-66.5C158.8288,-66.5 167.3564,-66.5 175.7063,-66.5"/>
<polygon fill="#191970" stroke="#191970" points="150.2384,-63.0001 140.2384,-66.5 150.2384,-70.0001 150.2384,-63.0001"/>
</g>
<!-- Node1269 -->
<g id="node3" class="node">
<title>Node1269</title>
<g id="a_node3"><a xlink:href="../../d1/d38/_inst_extends_8c.html#a6120c464da490cd2902907c857cb5eb7" target="_top" xlink:title="boxptr_InstExtends\l_instExtendsAndClassExtends\lList2">
<polygon fill="#ffffff" stroke="#000000" points="362,-74 362,-115 514,-115 514,-74 362,-74"/>
<text text-anchor="start" x="370" y="-103" font-family="Helvetica,sans-Serif" font-size="10.00" fill="#000000">boxptr_InstExtends</text>
<text text-anchor="start" x="370" y="-92" font-family="Helvetica,sans-Serif" font-size="10.00" fill="#000000">_instExtendsAndClassExtends</text>
<text text-anchor="middle" x="438" y="-81" font-family="Helvetica,sans-Serif" font-size="10.00" fill="#000000">List2</text>
</a>
</g>
</g>
<!-- Node1268&#45;&gt;Node1269 -->
<g id="edge2" class="edge">
<title>Node1268&#45;&gt;Node1269</title>
<path fill="none" stroke="#191970" d="M336.2628,-79.2666C344.8421,-80.5512 353.5146,-81.8498 361.9884,-83.1186"/>
<polygon fill="#191970" stroke="#191970" points="336.6598,-75.7871 326.2517,-77.7676 335.6232,-82.71 336.6598,-75.7871"/>
</g>
<!-- Node1270 -->
<g id="node4" class="node">
<title>Node1270</title>
<g id="a_node4"><a xlink:href="../../df/d13/_inst_extends_8h.html#a0aa487997c4fce1f22d9ac339ec6087f" target="_top" xlink:title="omc_InstExtends_instExtends\lAndClassExtendsList">
<polygon fill="#ffffff" stroke="#000000" points="363,-24.5 363,-54.5 513,-54.5 513,-24.5 363,-24.5"/>
<text text-anchor="start" x="371" y="-42.5" font-family="Helvetica,sans-Serif" font-size="10.00" fill="#000000">omc_InstExtends_instExtends</text>
<text text-anchor="middle" x="438" y="-31.5" font-family="Helvetica,sans-Serif" font-size="10.00" fill="#000000">AndClassExtendsList</text>
</a>
</g>
</g>
<!-- Node1268&#45;&gt;Node1270 -->
<g id="edge3" class="edge">
<title>Node1268&#45;&gt;Node1270</title>
<path fill="none" stroke="#191970" d="M336.2362,-54.1932C345.1329,-52.9086 354.1301,-51.6096 362.9023,-50.343"/>
<polygon fill="#191970" stroke="#191970" points="335.6489,-50.7416 326.2517,-55.6348 336.6493,-57.6697 335.6489,-50.7416"/>
</g>
<!-- Node1271 -->
<g id="node5" class="node">
<title>Node1271</title>
<g id="a_node5"><a xlink:href="../../df/d13/_inst_extends_8h.html#ac02db7ddc271944ac5f131ad526f53ef" target="_top" xlink:title="boxptr_InstExtends\l_instExtendsAndClassExtendsList">
<polygon fill="#ffffff" stroke="#000000" points="550,-49.5 550,-79.5 718,-79.5 718,-49.5 550,-49.5"/>
<text text-anchor="start" x="558" y="-67.5" font-family="Helvetica,sans-Serif" font-size="10.00" fill="#000000">boxptr_InstExtends</text>
<text text-anchor="middle" x="634" y="-56.5" font-family="Helvetica,sans-Serif" font-size="10.00" fill="#000000">_instExtendsAndClassExtendsList</text>
</a>
</g>
</g>
<!-- Node1270&#45;&gt;Node1271 -->
<g id="edge4" class="edge">
<title>Node1270&#45;&gt;Node1271</title>
<path fill="none" stroke="#191970" d="M523.1401,-50.3597C531.9958,-51.4893 540.994,-52.637 549.8387,-53.7651"/>
<polygon fill="#191970" stroke="#191970" points="523.5807,-46.8876 513.2182,-49.0942 522.6949,-53.8314 523.5807,-46.8876"/>
</g>
<!-- Node1272 -->
<g id="node6" class="node">
<title>Node1272</title>
<g id="a_node6"><a xlink:href="../../da/d17/_inst_util_8h.html#a11f7fc098235c46a051aa544a877a5a2" target="_top" xlink:title="omc_InstUtil_extractConstraining\lComps">
<polygon fill="#ffffff" stroke="#000000" points="553,-.5 553,-30.5 715,-30.5 715,-.5 553,-.5"/>
<text text-anchor="start" x="561" y="-18.5" font-family="Helvetica,sans-Serif" font-size="10.00" fill="#000000">omc_InstUtil_extractConstraining</text>
<text text-anchor="middle" x="634" y="-7.5" font-family="Helvetica,sans-Serif" font-size="10.00" fill="#000000">Comps</text>
</a>
</g>
</g>
<!-- Node1270&#45;&gt;Node1272 -->
<g id="edge5" class="edge">
<title>Node1270&#45;&gt;Node1272</title>
<path fill="none" stroke="#191970" d="M523.3332,-29.051C533.115,-27.8533 543.068,-26.6345 552.7936,-25.4436"/>
<polygon fill="#191970" stroke="#191970" points="522.7186,-25.6001 513.2182,-30.2896 523.5695,-32.5482 522.7186,-25.6001"/>
</g>
</g>
</svg>
