<?xml version="1.0" encoding="UTF-8" standalone="no"?>
<!DOCTYPE svg PUBLIC "-//W3C//DTD SVG 1.1//EN"
 "http://www.w3.org/Graphics/SVG/1.1/DTD/svg11.dtd">
<!-- Generated by graphviz version 2.40.1 (20161225.0304)
 -->
<!-- Title: boxptr_InstExtends_instExtendsList Pages: 1 -->
<svg width="1915pt" height="542pt"
 viewBox="0.00 0.00 1915.00 542.16" xmlns="http://www.w3.org/2000/svg" xmlns:xlink="http://www.w3.org/1999/xlink">
<g id="graph0" class="graph" transform="scale(1 1) rotate(0) translate(4 538.1596)">
<title>boxptr_InstExtends_instExtendsList</title>
<polygon fill="#ffffff" stroke="transparent" points="-4,4 -4,-538.1596 1911,-538.1596 1911,4 -4,4"/>
<!-- Node168 -->
<g id="node1" class="node">
<title>Node168</title>
<polygon fill="#bfbfbf" stroke="#000000" points="0,-264 0,-294 101,-294 101,-264 0,-264"/>
<text text-anchor="start" x="8" y="-282" font-family="Helvetica,sans-Serif" font-size="10.00" fill="#000000">boxptr_InstExtends</text>
<text text-anchor="middle" x="50.5" y="-271" font-family="Helvetica,sans-Serif" font-size="10.00" fill="#000000">_instExtendsList</text>
</g>
<!-- Node169 -->
<g id="node2" class="node">
<title>Node169</title>
<g id="a_node2"><a xlink:href="../../d1/d38/_inst_extends_8c.html#af062917ef50a0c9b21d8b4cf6a9b7975" target="_top" xlink:title="omc_InstExtends_instExtendsList">
<polygon fill="#ffffff" stroke="#000000" points="137,-269.5 137,-288.5 303,-288.5 303,-269.5 137,-269.5"/>
<text text-anchor="middle" x="220" y="-276.5" font-family="Helvetica,sans-Serif" font-size="10.00" fill="#000000">omc_InstExtends_instExtendsList</text>
</a>
</g>
</g>
<!-- Node168&#45;&gt;Node169 -->
<g id="edge1" class="edge">
<title>Node168&#45;&gt;Node169</title>
<path fill="none" stroke="#191970" d="M101.3556,-279C109.4157,-279 117.9656,-279 126.637,-279"/>
<polygon fill="#191970" stroke="#191970" points="126.8503,-282.5001 136.8502,-279 126.8502,-275.5001 126.8503,-282.5001"/>
</g>
<!-- Node170 -->
<g id="node3" class="node">
<title>Node170</title>
<g id="a_node3"><a xlink:href="../../d2/d57/build_2include_2omc_2c_2meta_2meta__modelica__builtin_8h.html#a81001ba45c298ade27540edd2589777c" target="_top" xlink:title="listReverse">
<polygon fill="#ffffff" stroke="#000000" points="599,-509.5 599,-528.5 665,-528.5 665,-509.5 599,-509.5"/>
<text text-anchor="middle" x="632" y="-516.5" font-family="Helvetica,sans-Serif" font-size="10.00" fill="#000000">listReverse</text>
</a>
</g>
</g>
<!-- Node169&#45;&gt;Node170 -->
<g id="edge2" class="edge">
<title>Node169&#45;&gt;Node170</title>
<path fill="none" stroke="#191970" d="M222.0354,-288.9427C229.8278,-324.1732 261.3197,-443.6377 339,-494 415.5355,-543.6201 527.9543,-536.1566 588.8916,-527.119"/>
<polygon fill="#191970" stroke="#191970" points="589.5961,-530.5514 598.9337,-525.5454 588.5124,-523.6358 589.5961,-530.5514"/>
</g>
<!-- Node171 -->
<g id="node4" class="node">
<title>Node171</title>
<g id="a_node4"><a xlink:href="../../d0/d78/_absyn_8c.html#aa90ee78f7c8fc6fd5b988d9d6eadda59" target="_top" xlink:title="omc_Absyn_makeNotFullyQualified">
<polygon fill="#ffffff" stroke="#000000" points="339,-421.5 339,-440.5 512,-440.5 512,-421.5 339,-421.5"/>
<text text-anchor="middle" x="425.5" y="-428.5" font-family="Helvetica,sans-Serif" font-size="10.00" fill="#000000">omc_Absyn_makeNotFullyQualified</text>
</a>
</g>
</g>
<!-- Node169&#45;&gt;Node171 -->
<g id="edge3" class="edge">
<title>Node169&#45;&gt;Node171</title>
<path fill="none" stroke="#191970" d="M225.5377,-288.5553C240.4151,-313.3066 283.8838,-379.8131 339,-412 342.8379,-414.2413 346.912,-416.2187 351.1199,-417.9632"/>
<polygon fill="#191970" stroke="#191970" points="349.9127,-421.2483 360.5061,-421.4222 352.3333,-414.6801 349.9127,-421.2483"/>
</g>
<!-- Node172 -->
<g id="node5" class="node">
<title>Node172</title>
<g id="a_node5"><a xlink:href="../../db/dd4/_inst_util_8c.html#a3ebd5d95d4ddb3f0241ff31dd600aaac" target="_top" xlink:title="omc_InstUtil_isBuiltInClass">
<polygon fill="#ffffff" stroke="#000000" points="356.5,-383.5 356.5,-402.5 494.5,-402.5 494.5,-383.5 356.5,-383.5"/>
<text text-anchor="middle" x="425.5" y="-390.5" font-family="Helvetica,sans-Serif" font-size="10.00" fill="#000000">omc_InstUtil_isBuiltInClass</text>
</a>
</g>
</g>
<!-- Node169&#45;&gt;Node172 -->
<g id="edge4" class="edge">
<title>Node169&#45;&gt;Node172</title>
<path fill="none" stroke="#191970" d="M229.931,-288.6441C249.3053,-306.9427 294.1836,-346.8468 339,-369 348.3169,-373.6055 358.6496,-377.4401 368.8366,-380.593"/>
<polygon fill="#191970" stroke="#191970" points="367.9413,-383.9776 378.5209,-383.4099 369.8964,-377.2562 367.9413,-383.9776"/>
</g>
<!-- Node181 -->
<g id="node14" class="node">
<title>Node181</title>
<g id="a_node14"><a xlink:href="../../db/dd4/_inst_util_8c.html#aa873b18e8f2f6b94d6f77c0f22ff327e" target="_top" xlink:title="omc_InstUtil_chainRedeclares">
<polygon fill="#ffffff" stroke="#000000" points="350.5,-307.5 350.5,-326.5 500.5,-326.5 500.5,-307.5 350.5,-307.5"/>
<text text-anchor="middle" x="425.5" y="-314.5" font-family="Helvetica,sans-Serif" font-size="10.00" fill="#000000">omc_InstUtil_chainRedeclares</text>
</a>
</g>
</g>
<!-- Node169&#45;&gt;Node181 -->
<g id="edge13" class="edge">
<title>Node169&#45;&gt;Node181</title>
<path fill="none" stroke="#191970" d="M271.5911,-288.54C299.562,-293.7122 334.3236,-300.1401 363.7297,-305.5778"/>
<polygon fill="#191970" stroke="#191970" points="363.418,-309.0794 373.8877,-307.4561 364.6908,-302.1961 363.418,-309.0794"/>
</g>
<!-- Node196 -->
<g id="node29" class="node">
<title>Node196</title>
<g id="a_node29"><a xlink:href="../../d0/d78/_absyn_8c.html#a6744a7f65f2c6b34ca52d4506d096371" target="_top" xlink:title="omc_Absyn_pathFirstIdent">
<polygon fill="#ffffff" stroke="#000000" points="358.5,-269.5 358.5,-288.5 492.5,-288.5 492.5,-269.5 358.5,-269.5"/>
<text text-anchor="middle" x="425.5" y="-276.5" font-family="Helvetica,sans-Serif" font-size="10.00" fill="#000000">omc_Absyn_pathFirstIdent</text>
</a>
</g>
</g>
<!-- Node169&#45;&gt;Node196 -->
<g id="edge28" class="edge">
<title>Node169&#45;&gt;Node196</title>
<path fill="none" stroke="#191970" d="M303.2885,-279C318.204,-279 333.6874,-279 348.4188,-279"/>
<polygon fill="#191970" stroke="#191970" points="348.481,-282.5001 358.481,-279 348.4809,-275.5001 348.481,-282.5001"/>
</g>
<!-- Node197 -->
<g id="node30" class="node">
<title>Node197</title>
<g id="a_node30"><a xlink:href="../../d0/d78/_absyn_8c.html#a8ad96aa8a78d49e3c6e12575c1bee42d" target="_top" xlink:title="omc_Absyn_pathEqual">
<polygon fill="#ffffff" stroke="#000000" points="367,-231.5 367,-250.5 484,-250.5 484,-231.5 367,-231.5"/>
<text text-anchor="middle" x="425.5" y="-238.5" font-family="Helvetica,sans-Serif" font-size="10.00" fill="#000000">omc_Absyn_pathEqual</text>
</a>
</g>
</g>
<!-- Node169&#45;&gt;Node197 -->
<g id="edge29" class="edge">
<title>Node169&#45;&gt;Node197</title>
<path fill="none" stroke="#191970" d="M271.5911,-269.46C299.562,-264.2878 334.3236,-257.8599 363.7297,-252.4222"/>
<polygon fill="#191970" stroke="#191970" points="364.6908,-255.8039 373.8877,-250.5439 363.418,-248.9206 364.6908,-255.8039"/>
</g>
<!-- Node198 -->
<g id="node31" class="node">
<title>Node198</title>
<g id="a_node31"><a xlink:href="../../d4/d47/_class_inf_8c.html#a13bf30a04c4c83a98a949a2fb106aa2a" target="_top" xlink:title="omc_ClassInf_getStateName">
<polygon fill="#ffffff" stroke="#000000" points="352.5,-193.5 352.5,-212.5 498.5,-212.5 498.5,-193.5 352.5,-193.5"/>
<text text-anchor="middle" x="425.5" y="-200.5" font-family="Helvetica,sans-Serif" font-size="10.00" fill="#000000">omc_ClassInf_getStateName</text>
</a>
</g>
</g>
<!-- Node169&#45;&gt;Node198 -->
<g id="edge30" class="edge">
<title>Node169&#45;&gt;Node198</title>
<path fill="none" stroke="#191970" d="M236.8167,-269.4099C259.4039,-256.8915 301.094,-235.0456 339,-222 346.6486,-219.3677 354.8066,-217.0149 362.9417,-214.9378"/>
<polygon fill="#191970" stroke="#191970" points="363.9253,-218.3008 372.8176,-212.5408 362.2742,-211.4983 363.9253,-218.3008"/>
</g>
<!-- Node199 -->
<g id="node32" class="node">
<title>Node199</title>
<g id="a_node32"><a xlink:href="../../d0/d78/_absyn_8c.html#aa2092bcad05f556016d6ebe8c04e7ce1" target="_top" xlink:title="omc_Absyn_joinPaths">
<polygon fill="#ffffff" stroke="#000000" points="368.5,-155.5 368.5,-174.5 482.5,-174.5 482.5,-155.5 368.5,-155.5"/>
<text text-anchor="middle" x="425.5" y="-162.5" font-family="Helvetica,sans-Serif" font-size="10.00" fill="#000000">omc_Absyn_joinPaths</text>
</a>
</g>
</g>
<!-- Node169&#45;&gt;Node199 -->
<g id="edge31" class="edge">
<title>Node169&#45;&gt;Node199</title>
<path fill="none" stroke="#191970" d="M228.8392,-269.4659C247.3216,-250.1414 292.2315,-206.3022 339,-184 345.1541,-181.0653 351.7716,-178.5773 358.5073,-176.4691"/>
<polygon fill="#191970" stroke="#191970" points="359.7621,-179.7509 368.4202,-173.6445 357.8439,-173.0189 359.7621,-179.7509"/>
</g>
<!-- Node200 -->
<g id="node33" class="node">
<title>Node200</title>
<g id="a_node33"><a xlink:href="../../d8/de4/_f_graph_8c.html#ac218e9d6fac2377364044d8a46d14226" target="_top" xlink:title="omc_FGraph_getGraphName">
<polygon fill="#ffffff" stroke="#000000" points="353.5,-117.5 353.5,-136.5 497.5,-136.5 497.5,-117.5 353.5,-117.5"/>
<text text-anchor="middle" x="425.5" y="-124.5" font-family="Helvetica,sans-Serif" font-size="10.00" fill="#000000">omc_FGraph_getGraphName</text>
</a>
</g>
</g>
<!-- Node169&#45;&gt;Node200 -->
<g id="edge32" class="edge">
<title>Node169&#45;&gt;Node200</title>
<path fill="none" stroke="#191970" d="M225.5377,-269.4447C240.4151,-244.6934 283.8838,-178.1869 339,-146 342.8379,-143.7587 346.912,-141.7813 351.1199,-140.0368"/>
<polygon fill="#191970" stroke="#191970" points="352.3333,-143.3199 360.5061,-136.5778 349.9127,-136.7517 352.3333,-143.3199"/>
</g>
<!-- Node202 -->
<g id="node35" class="node">
<title>Node202</title>
<g id="a_node35"><a xlink:href="../../d0/d78/_absyn_8c.html#a5c812730d254bd01caeec355b370ce05" target="_top" xlink:title="omc_Absyn_makeIdentPathFrom\lString">
<polygon fill="#ffffff" stroke="#000000" points="551,-74 551,-104 713,-104 713,-74 551,-74"/>
<text text-anchor="start" x="559" y="-92" font-family="Helvetica,sans-Serif" font-size="10.00" fill="#000000">omc_Absyn_makeIdentPathFrom</text>
<text text-anchor="middle" x="632" y="-81" font-family="Helvetica,sans-Serif" font-size="10.00" fill="#000000">String</text>
</a>
</g>
</g>
<!-- Node169&#45;&gt;Node202 -->
<g id="edge38" class="edge">
<title>Node169&#45;&gt;Node202</title>
<path fill="none" stroke="#191970" d="M223.2656,-269.352C234.0802,-239.0989 271.9074,-145.8633 339,-108 399.976,-73.5886 479.8667,-70.6336 540.822,-75.286"/>
<polygon fill="#191970" stroke="#191970" points="540.5607,-78.7763 550.8196,-76.1297 541.1493,-71.8011 540.5607,-78.7763"/>
</g>
<!-- Node206 -->
<g id="node39" class="node">
<title>Node206</title>
<g id="a_node39"><a xlink:href="../../d1/d38/_inst_extends_8c.html#a77b116c566ad5e35b7c768d41dea5aa6" target="_top" xlink:title="omc_InstExtends_lookupBase\lClass">
<polygon fill="#ffffff" stroke="#000000" points="351,-30 351,-60 500,-60 500,-30 351,-30"/>
<text text-anchor="start" x="359" y="-48" font-family="Helvetica,sans-Serif" font-size="10.00" fill="#000000">omc_InstExtends_lookupBase</text>
<text text-anchor="middle" x="425.5" y="-37" font-family="Helvetica,sans-Serif" font-size="10.00" fill="#000000">Class</text>
</a>
</g>
</g>
<!-- Node169&#45;&gt;Node206 -->
<g id="edge39" class="edge">
<title>Node169&#45;&gt;Node206</title>
<path fill="none" stroke="#191970" d="M222.9402,-269.2872C233.2563,-236.8252 270.915,-130.9965 339,-75 343.8338,-71.0245 349.2269,-67.5622 354.8931,-64.5493"/>
<polygon fill="#191970" stroke="#191970" points="356.4877,-67.6661 363.9805,-60.1754 353.4519,-61.3586 356.4877,-67.6661"/>
</g>
<!-- Node211 -->
<g id="node44" class="node">
<title>Node211</title>
<g id="a_node44"><a xlink:href="../../d3/db3/_flags_8c.html#abc3d84cf6e1cf18f0cec0f052e7c85d9" target="_top" xlink:title="omc_Flags_getConfigBool">
<polygon fill="#ffffff" stroke="#000000" points="989.5,-348.5 989.5,-367.5 1120.5,-367.5 1120.5,-348.5 989.5,-348.5"/>
<text text-anchor="middle" x="1055" y="-355.5" font-family="Helvetica,sans-Serif" font-size="10.00" fill="#000000">omc_Flags_getConfigBool</text>
</a>
</g>
</g>
<!-- Node169&#45;&gt;Node211 -->
<g id="edge45" class="edge">
<title>Node169&#45;&gt;Node211</title>
<path fill="none" stroke="#191970" d="M234.6437,-288.5104C256.3801,-302.0313 298.9358,-326.2504 339,-336 458.498,-365.0796 820.7252,-362.3577 979.295,-359.6159"/>
<polygon fill="#191970" stroke="#191970" points="979.5042,-363.1128 989.4404,-359.4356 979.3798,-356.1139 979.5042,-363.1128"/>
</g>
<!-- Node212 -->
<g id="node45" class="node">
<title>Node212</title>
<g id="a_node45"><a xlink:href="../../d8/de4/_f_graph_8c.html#a20a350c055fd644a2ddbcfa33f77a135" target="_top" xlink:title="omc_FGraph_printGraphPathStr">
<polygon fill="#ffffff" stroke="#000000" points="347.5,-465.5 347.5,-484.5 503.5,-484.5 503.5,-465.5 347.5,-465.5"/>
<text text-anchor="middle" x="425.5" y="-472.5" font-family="Helvetica,sans-Serif" font-size="10.00" fill="#000000">omc_FGraph_printGraphPathStr</text>
</a>
</g>
</g>
<!-- Node169&#45;&gt;Node212 -->
<g id="edge47" class="edge">
<title>Node169&#45;&gt;Node212</title>
<path fill="none" stroke="#191970" d="M223.9893,-288.8712C236.3553,-318.1989 276.9808,-405.5283 339,-450 345.848,-454.9105 353.6475,-458.8614 361.694,-462.0393"/>
<polygon fill="#191970" stroke="#191970" points="360.6166,-465.3708 371.2113,-465.4258 362.9633,-458.7759 360.6166,-465.3708"/>
</g>
<!-- Node173 -->
<g id="node6" class="node">
<title>Node173</title>
<g id="a_node6"><a xlink:href="../../d1/d5c/_config_8c.html#a5705ea984e5ef29cb5d60584cf7dc12f" target="_top" xlink:title="omc_Config_synchronousFeatures\lAllowed">
<polygon fill="#ffffff" stroke="#000000" points="548,-384 548,-414 716,-414 716,-384 548,-384"/>
<text text-anchor="start" x="556" y="-402" font-family="Helvetica,sans-Serif" font-size="10.00" fill="#000000">omc_Config_synchronousFeatures</text>
<text text-anchor="middle" x="632" y="-391" font-family="Helvetica,sans-Serif" font-size="10.00" fill="#000000">Allowed</text>
</a>
</g>
</g>
<!-- Node172&#45;&gt;Node173 -->
<g id="edge5" class="edge">
<title>Node172&#45;&gt;Node173</title>
<path fill="none" stroke="#191970" d="M494.5486,-395.0063C508.4572,-395.4104 523.2992,-395.8416 537.8955,-396.2657"/>
<polygon fill="#191970" stroke="#191970" points="537.8494,-399.7658 547.9469,-396.5578 538.0528,-392.7687 537.8494,-399.7658"/>
</g>
<!-- Node174 -->
<g id="node7" class="node">
<title>Node174</title>
<g id="a_node7"><a xlink:href="../../d1/d5c/_config_8c.html#a1192f8f849a8184bebb93a9c4961c228" target="_top" xlink:title="omc_Config_getLanguageStandard">
<polygon fill="#ffffff" stroke="#000000" points="753.5,-424.5 753.5,-443.5 922.5,-443.5 922.5,-424.5 753.5,-424.5"/>
<text text-anchor="middle" x="838" y="-431.5" font-family="Helvetica,sans-Serif" font-size="10.00" fill="#000000">omc_Config_getLanguageStandard</text>
</a>
</g>
</g>
<!-- Node173&#45;&gt;Node174 -->
<g id="edge6" class="edge">
<title>Node173&#45;&gt;Node174</title>
<path fill="none" stroke="#191970" d="M716.0852,-413.2863C734.5922,-416.4307 753.9429,-419.7185 771.6354,-422.7245"/>
<polygon fill="#191970" stroke="#191970" points="771.397,-426.234 781.842,-424.4586 772.5695,-419.3329 771.397,-426.234"/>
</g>
<!-- Node180 -->
<g id="node13" class="node">
<title>Node180</title>
<g id="a_node13"><a xlink:href="../../d1/d5c/_config_8c.html#a54bfa9f1ee54e033f6c3ba11dc4e1b1c" target="_top" xlink:title="omc_Config_languageStandardInt">
<polygon fill="#ffffff" stroke="#000000" points="756,-386.5 756,-405.5 920,-405.5 920,-386.5 756,-386.5"/>
<text text-anchor="middle" x="838" y="-393.5" font-family="Helvetica,sans-Serif" font-size="10.00" fill="#000000">omc_Config_languageStandardInt</text>
</a>
</g>
</g>
<!-- Node173&#45;&gt;Node180 -->
<g id="edge12" class="edge">
<title>Node173&#45;&gt;Node180</title>
<path fill="none" stroke="#191970" d="M716.0852,-397.7755C725.8285,-397.6336 735.8056,-397.4883 745.6515,-397.3449"/>
<polygon fill="#191970" stroke="#191970" points="745.9012,-400.8417 755.8491,-397.1964 745.7992,-393.8425 745.9012,-400.8417"/>
</g>
<!-- Node175 -->
<g id="node8" class="node">
<title>Node175</title>
<g id="a_node8"><a xlink:href="../../d1/d5c/_config_8c.html#aba95a6811ebe291fd9399ff7a564741c" target="_top" xlink:title="omc_Config_intLanguageStandard">
<polygon fill="#ffffff" stroke="#000000" points="972,-424.5 972,-443.5 1138,-443.5 1138,-424.5 972,-424.5"/>
<text text-anchor="middle" x="1055" y="-431.5" font-family="Helvetica,sans-Serif" font-size="10.00" fill="#000000">omc_Config_intLanguageStandard</text>
</a>
</g>
</g>
<!-- Node174&#45;&gt;Node175 -->
<g id="edge7" class="edge">
<title>Node174&#45;&gt;Node175</title>
<path fill="none" stroke="#191970" d="M922.5192,-434C935.2898,-434 948.527,-434 961.4742,-434"/>
<polygon fill="#191970" stroke="#191970" points="961.7809,-437.5001 971.7809,-434 961.7808,-430.5001 961.7809,-437.5001"/>
</g>
<!-- Node176 -->
<g id="node9" class="node">
<title>Node176</title>
<g id="a_node9"><a xlink:href="../../d3/db3/_flags_8c.html#add52ff282ca5df852c1905fabb4571c9" target="_top" xlink:title="omc_Flags_getConfigEnum">
<polygon fill="#ffffff" stroke="#000000" points="986.5,-386.5 986.5,-405.5 1123.5,-405.5 1123.5,-386.5 986.5,-386.5"/>
<text text-anchor="middle" x="1055" y="-393.5" font-family="Helvetica,sans-Serif" font-size="10.00" fill="#000000">omc_Flags_getConfigEnum</text>
</a>
</g>
</g>
<!-- Node174&#45;&gt;Node176 -->
<g id="edge8" class="edge">
<title>Node174&#45;&gt;Node176</title>
<path fill="none" stroke="#191970" d="M892.4782,-424.46C922.2723,-419.2426 959.363,-412.7475 990.5852,-407.28"/>
<polygon fill="#191970" stroke="#191970" points="991.2531,-410.7164 1000.4994,-405.5439 990.0456,-403.8213 991.2531,-410.7164"/>
</g>
<!-- Node177 -->
<g id="node10" class="node">
<title>Node177</title>
<g id="a_node10"><a xlink:href="../../d3/db3/_flags_8c.html#a96ba70d54b6662cf90933a207c0c6b8e" target="_top" xlink:title="omc_Flags_getConfigValue">
<polygon fill="#ffffff" stroke="#000000" points="1215,-367.5 1215,-386.5 1352,-386.5 1352,-367.5 1215,-367.5"/>
<text text-anchor="middle" x="1283.5" y="-374.5" font-family="Helvetica,sans-Serif" font-size="10.00" fill="#000000">omc_Flags_getConfigValue</text>
</a>
</g>
</g>
<!-- Node176&#45;&gt;Node177 -->
<g id="edge9" class="edge">
<title>Node176&#45;&gt;Node177</title>
<path fill="none" stroke="#191970" d="M1123.5575,-390.2994C1149.202,-388.167 1178.5236,-385.7289 1204.9975,-383.5276"/>
<polygon fill="#191970" stroke="#191970" points="1205.3153,-387.0133 1214.9909,-382.6966 1204.7352,-380.0374 1205.3153,-387.0133"/>
</g>
<!-- Node178 -->
<g id="node11" class="node">
<title>Node178</title>
<g id="a_node11"><a xlink:href="../../d3/db3/_flags_8c.html#a760d66f53b65ac257876ca0f6308f09f" target="_top" xlink:title="omc_Flags_loadFlags">
<polygon fill="#ffffff" stroke="#000000" points="1438.5,-367.5 1438.5,-386.5 1550.5,-386.5 1550.5,-367.5 1438.5,-367.5"/>
<text text-anchor="middle" x="1494.5" y="-374.5" font-family="Helvetica,sans-Serif" font-size="10.00" fill="#000000">omc_Flags_loadFlags</text>
</a>
</g>
</g>
<!-- Node177&#45;&gt;Node178 -->
<g id="edge10" class="edge">
<title>Node177&#45;&gt;Node178</title>
<path fill="none" stroke="#191970" d="M1352.0057,-377C1376.4333,-377 1403.8907,-377 1428.1353,-377"/>
<polygon fill="#191970" stroke="#191970" points="1428.311,-380.5001 1438.3109,-377 1428.3109,-373.5001 1428.311,-380.5001"/>
</g>
<!-- Node179 -->
<g id="node12" class="node">
<title>Node179</title>
<g id="a_node12"><a xlink:href="../../da/d72/_compiler_2boot_2build_2list_8c.html#a3ec1ee3a5ff53be9af368e290be09182" target="_top" xlink:title="omc_List_fold">
<polygon fill="#ffffff" stroke="#000000" points="1637.5,-367.5 1637.5,-386.5 1714.5,-386.5 1714.5,-367.5 1637.5,-367.5"/>
<text text-anchor="middle" x="1676" y="-374.5" font-family="Helvetica,sans-Serif" font-size="10.00" fill="#000000">omc_List_fold</text>
</a>
</g>
</g>
<!-- Node178&#45;&gt;Node179 -->
<g id="edge11" class="edge">
<title>Node178&#45;&gt;Node179</title>
<path fill="none" stroke="#191970" d="M1550.9328,-377C1575.4077,-377 1603.788,-377 1627.3211,-377"/>
<polygon fill="#191970" stroke="#191970" points="1627.4218,-380.5001 1637.4218,-377 1627.4217,-373.5001 1627.4218,-380.5001"/>
</g>
<!-- Node182 -->
<g id="node15" class="node">
<title>Node182</title>
<g id="a_node15"><a xlink:href="../../db/dd4/_inst_util_8c.html#ac9d3d98f06c2d0f9c832debedddb2d9e" target="_top" xlink:title="omc_InstUtil_chainRedeclare\l__dispatch">
<polygon fill="#ffffff" stroke="#000000" points="559.5,-277 559.5,-307 704.5,-307 704.5,-277 559.5,-277"/>
<text text-anchor="start" x="567.5" y="-295" font-family="Helvetica,sans-Serif" font-size="10.00" fill="#000000">omc_InstUtil_chainRedeclare</text>
<text text-anchor="middle" x="632" y="-284" font-family="Helvetica,sans-Serif" font-size="10.00" fill="#000000">__dispatch</text>
</a>
</g>
</g>
<!-- Node181&#45;&gt;Node182 -->
<g id="edge14" class="edge">
<title>Node181&#45;&gt;Node182</title>
<path fill="none" stroke="#191970" d="M500.6354,-307.9037C516.3386,-306.0026 532.9811,-303.9878 548.9524,-302.0542"/>
<polygon fill="#191970" stroke="#191970" points="549.8274,-305.4739 559.3342,-300.7973 548.986,-298.5246 549.8274,-305.4739"/>
</g>
<!-- Node183 -->
<g id="node16" class="node">
<title>Node183</title>
<g id="a_node16"><a xlink:href="../../d1/dd5/_mod_8c.html#abb2a7a2f5b81182f825d60a9b76c3645" target="_top" xlink:title="omc_Mod_lookupCompModification">
<polygon fill="#ffffff" stroke="#000000" points="752,-282.5 752,-301.5 924,-301.5 924,-282.5 752,-282.5"/>
<text text-anchor="middle" x="838" y="-289.5" font-family="Helvetica,sans-Serif" font-size="10.00" fill="#000000">omc_Mod_lookupCompModification</text>
</a>
</g>
</g>
<!-- Node182&#45;&gt;Node183 -->
<g id="edge15" class="edge">
<title>Node182&#45;&gt;Node183</title>
<path fill="none" stroke="#191970" d="M704.6279,-292C716.6931,-292 729.3688,-292 741.9075,-292"/>
<polygon fill="#191970" stroke="#191970" points="741.9196,-295.5001 751.9196,-292 741.9195,-288.5001 741.9196,-295.5001"/>
</g>
<!-- Node195 -->
<g id="node28" class="node">
<title>Node195</title>
<g id="a_node28"><a xlink:href="../../d9/d9e/_s_code_8c.html#a2b41d20eb1343b18bb1cb29fe032eb1c" target="_top" xlink:title="omc_SCode_setClassName">
<polygon fill="#ffffff" stroke="#000000" points="767.5,-244.5 767.5,-263.5 908.5,-263.5 908.5,-244.5 767.5,-244.5"/>
<text text-anchor="middle" x="838" y="-251.5" font-family="Helvetica,sans-Serif" font-size="10.00" fill="#000000">omc_SCode_setClassName</text>
</a>
</g>
</g>
<!-- Node182&#45;&gt;Node195 -->
<g id="edge27" class="edge">
<title>Node182&#45;&gt;Node195</title>
<path fill="none" stroke="#191970" d="M704.6279,-278.6026C728.0333,-274.2851 753.7367,-269.5437 776.2791,-265.3854"/>
<polygon fill="#191970" stroke="#191970" points="777.1953,-268.7755 786.3944,-263.5195 775.9254,-261.8917 777.1953,-268.7755"/>
</g>
<!-- Node184 -->
<g id="node17" class="node">
<title>Node184</title>
<g id="a_node17"><a xlink:href="../../d1/dd5/_mod_8c.html#a331986be2234781cbadce2601c16cc3e" target="_top" xlink:title="omc_Mod_lookupCompModification2">
<polygon fill="#ffffff" stroke="#000000" points="966.5,-310.5 966.5,-329.5 1143.5,-329.5 1143.5,-310.5 966.5,-310.5"/>
<text text-anchor="middle" x="1055" y="-317.5" font-family="Helvetica,sans-Serif" font-size="10.00" fill="#000000">omc_Mod_lookupCompModification2</text>
</a>
</g>
</g>
<!-- Node183&#45;&gt;Node184 -->
<g id="edge16" class="edge">
<title>Node183&#45;&gt;Node184</title>
<path fill="none" stroke="#191970" d="M911.7691,-301.5186C930.8118,-303.9757 951.4501,-306.6387 970.9731,-309.1578"/>
<polygon fill="#191970" stroke="#191970" points="970.7007,-312.6516 981.0664,-310.4602 971.5965,-305.7092 970.7007,-312.6516"/>
</g>
<!-- Node185 -->
<g id="node18" class="node">
<title>Node185</title>
<g id="a_node18"><a xlink:href="../../d1/dd5/_mod_8c.html#a1ef6619b13b726a644be847c1ad07cbc" target="_top" xlink:title="omc_Mod_lookupComplexComp\lModification">
<polygon fill="#ffffff" stroke="#000000" points="976,-261 976,-291 1134,-291 1134,-261 976,-261"/>
<text text-anchor="start" x="984" y="-279" font-family="Helvetica,sans-Serif" font-size="10.00" fill="#000000">omc_Mod_lookupComplexComp</text>
<text text-anchor="middle" x="1055" y="-268" font-family="Helvetica,sans-Serif" font-size="10.00" fill="#000000">Modification</text>
</a>
</g>
</g>
<!-- Node183&#45;&gt;Node185 -->
<g id="edge17" class="edge">
<title>Node183&#45;&gt;Node185</title>
<path fill="none" stroke="#191970" d="M924.0758,-285.6534C937.6542,-284.6522 951.7225,-283.6149 965.3792,-282.608"/>
<polygon fill="#191970" stroke="#191970" points="966.0118,-286.0709 975.7273,-281.845 965.497,-279.0899 966.0118,-286.0709"/>
</g>
<!-- Node186 -->
<g id="node19" class="node">
<title>Node186</title>
<g id="a_node19"><a xlink:href="../../d1/dd5/_mod_8c.html#a89a4a128b3e1af052cbd33366b0b91cd" target="_top" xlink:title="omc_Mod_checkDuplicateModifications">
<polygon fill="#ffffff" stroke="#000000" points="960,-222.5 960,-241.5 1150,-241.5 1150,-222.5 960,-222.5"/>
<text text-anchor="middle" x="1055" y="-229.5" font-family="Helvetica,sans-Serif" font-size="10.00" fill="#000000">omc_Mod_checkDuplicateModifications</text>
</a>
</g>
</g>
<!-- Node183&#45;&gt;Node186 -->
<g id="edge18" class="edge">
<title>Node183&#45;&gt;Node186</title>
<path fill="none" stroke="#191970" d="M893.3527,-282.436C903.7094,-279.9022 914.3164,-276.7866 924,-273 941.2512,-266.2541 942.7155,-258.66 960,-252 968.056,-248.8959 976.6916,-246.2332 985.3522,-243.9597"/>
<polygon fill="#191970" stroke="#191970" points="986.2391,-247.3459 995.1115,-241.5553 984.5645,-240.5492 986.2391,-247.3459"/>
</g>
<!-- Node187 -->
<g id="node20" class="node">
<title>Node187</title>
<g id="a_node20"><a xlink:href="../../d1/dd5/_mod_8c.html#a507496ef27f7f01037487e42a8c01908" target="_top" xlink:title="omc_Mod_mergeRedeclareWith\lBinding">
<polygon fill="#ffffff" stroke="#000000" points="1205.5,-239 1205.5,-269 1361.5,-269 1361.5,-239 1205.5,-239"/>
<text text-anchor="start" x="1213.5" y="-257" font-family="Helvetica,sans-Serif" font-size="10.00" fill="#000000">omc_Mod_mergeRedeclareWith</text>
<text text-anchor="middle" x="1283.5" y="-246" font-family="Helvetica,sans-Serif" font-size="10.00" fill="#000000">Binding</text>
</a>
</g>
</g>
<!-- Node186&#45;&gt;Node187 -->
<g id="edge19" class="edge">
<title>Node186&#45;&gt;Node187</title>
<path fill="none" stroke="#191970" d="M1150.25,-241.1707C1165.1744,-242.6076 1180.5438,-244.0874 1195.3008,-245.5082"/>
<polygon fill="#191970" stroke="#191970" points="1195.1169,-249.0066 1205.4063,-246.4811 1195.7878,-242.0388 1195.1169,-249.0066"/>
</g>
<!-- Node188 -->
<g id="node21" class="node">
<title>Node188</title>
<g id="a_node21"><a xlink:href="../../d1/dd5/_mod_8c.html#ad5e13c25f5af9f6840d105ce093b54d7" target="_top" xlink:title="omc_Mod_checkDuplicateModifications2">
<polygon fill="#ffffff" stroke="#000000" points="1186,-200.5 1186,-219.5 1381,-219.5 1381,-200.5 1186,-200.5"/>
<text text-anchor="middle" x="1283.5" y="-207.5" font-family="Helvetica,sans-Serif" font-size="10.00" fill="#000000">omc_Mod_checkDuplicateModifications2</text>
</a>
</g>
</g>
<!-- Node186&#45;&gt;Node188 -->
<g id="edge20" class="edge">
<title>Node186&#45;&gt;Node188</title>
<path fill="none" stroke="#191970" d="M1150.25,-222.8293C1158.6995,-222.0158 1167.2916,-221.1886 1175.8345,-220.366"/>
<polygon fill="#191970" stroke="#191970" points="1176.2105,-223.8461 1185.829,-219.4038 1175.5396,-216.8783 1176.2105,-223.8461"/>
</g>
<!-- Node189 -->
<g id="node22" class="node">
<title>Node189</title>
<g id="a_node22"><a xlink:href="../../da/d72/_compiler_2boot_2build_2list_8c.html#a9144dd3e1cd6c7828502d53370096bd8" target="_top" xlink:title="omc_List_deleteMemberOnTrue">
<polygon fill="#ffffff" stroke="#000000" points="1417,-238.5 1417,-257.5 1572,-257.5 1572,-238.5 1417,-238.5"/>
<text text-anchor="middle" x="1494.5" y="-245.5" font-family="Helvetica,sans-Serif" font-size="10.00" fill="#000000">omc_List_deleteMemberOnTrue</text>
</a>
</g>
</g>
<!-- Node188&#45;&gt;Node189 -->
<g id="edge21" class="edge">
<title>Node188&#45;&gt;Node189</title>
<path fill="none" stroke="#191970" d="M1336.4719,-219.54C1365.3168,-224.7348 1401.1952,-231.1963 1431.4717,-236.6489"/>
<polygon fill="#191970" stroke="#191970" points="1431.0443,-240.1282 1441.5063,-238.4561 1432.2851,-233.239 1431.0443,-240.1282"/>
</g>
<!-- Node191 -->
<g id="node24" class="node">
<title>Node191</title>
<g id="a_node24"><a xlink:href="../../d1/dd5/_mod_8c.html#a6c367946bc250548de314abccdb72f0b" target="_top" xlink:title="omc_Mod_subModName">
<polygon fill="#ffffff" stroke="#000000" points="1432,-200.5 1432,-219.5 1557,-219.5 1557,-200.5 1432,-200.5"/>
<text text-anchor="middle" x="1494.5" y="-207.5" font-family="Helvetica,sans-Serif" font-size="10.00" fill="#000000">omc_Mod_subModName</text>
</a>
</g>
</g>
<!-- Node188&#45;&gt;Node191 -->
<g id="edge23" class="edge">
<title>Node188&#45;&gt;Node191</title>
<path fill="none" stroke="#191970" d="M1381.2791,-210C1394.8889,-210 1408.671,-210 1421.7128,-210"/>
<polygon fill="#191970" stroke="#191970" points="1421.9961,-213.5001 1431.996,-210 1421.996,-206.5001 1421.9961,-213.5001"/>
</g>
<!-- Node192 -->
<g id="node25" class="node">
<title>Node192</title>
<g id="a_node25"><a xlink:href="../../d1/dd5/_mod_8c.html#a370b1250395814ca2b33f27b998fb3ee" target="_top" xlink:title="omc_Mod_subModInfo">
<polygon fill="#ffffff" stroke="#000000" points="1436.5,-162.5 1436.5,-181.5 1552.5,-181.5 1552.5,-162.5 1436.5,-162.5"/>
<text text-anchor="middle" x="1494.5" y="-169.5" font-family="Helvetica,sans-Serif" font-size="10.00" fill="#000000">omc_Mod_subModInfo</text>
</a>
</g>
</g>
<!-- Node188&#45;&gt;Node192 -->
<g id="edge24" class="edge">
<title>Node188&#45;&gt;Node192</title>
<path fill="none" stroke="#191970" d="M1336.4719,-200.46C1365.3168,-195.2652 1401.1952,-188.8037 1431.4717,-183.3511"/>
<polygon fill="#191970" stroke="#191970" points="1432.2851,-186.761 1441.5063,-181.5439 1431.0443,-179.8718 1432.2851,-186.761"/>
</g>
<!-- Node190 -->
<g id="node23" class="node">
<title>Node190</title>
<g id="a_node23"><a xlink:href="../../da/d72/_compiler_2boot_2build_2list_8c.html#a56541974efce2621174e32890b60c03a" target="_top" xlink:title="omc_List_append__reverse">
<polygon fill="#ffffff" stroke="#000000" points="1608,-238.5 1608,-257.5 1744,-257.5 1744,-238.5 1608,-238.5"/>
<text text-anchor="middle" x="1676" y="-245.5" font-family="Helvetica,sans-Serif" font-size="10.00" fill="#000000">omc_List_append__reverse</text>
</a>
</g>
</g>
<!-- Node189&#45;&gt;Node190 -->
<g id="edge22" class="edge">
<title>Node189&#45;&gt;Node190</title>
<path fill="none" stroke="#191970" d="M1572.2622,-248C1580.6758,-248 1589.2414,-248 1597.6617,-248"/>
<polygon fill="#191970" stroke="#191970" points="1597.8407,-251.5001 1607.8407,-248 1597.8406,-244.5001 1597.8407,-251.5001"/>
</g>
<!-- Node193 -->
<g id="node26" class="node">
<title>Node193</title>
<g id="a_node26"><a xlink:href="../../d1/dd5/_mod_8c.html#a1503dab9d8ab150db56413b756a840bd" target="_top" xlink:title="omc_Mod_getModInfo">
<polygon fill="#ffffff" stroke="#000000" points="1619.5,-162.5 1619.5,-181.5 1732.5,-181.5 1732.5,-162.5 1619.5,-162.5"/>
<text text-anchor="middle" x="1676" y="-169.5" font-family="Helvetica,sans-Serif" font-size="10.00" fill="#000000">omc_Mod_getModInfo</text>
</a>
</g>
</g>
<!-- Node192&#45;&gt;Node193 -->
<g id="edge25" class="edge">
<title>Node192&#45;&gt;Node193</title>
<path fill="none" stroke="#191970" d="M1552.6767,-172C1570.6988,-172 1590.6972,-172 1609.253,-172"/>
<polygon fill="#191970" stroke="#191970" points="1609.3917,-175.5001 1619.3916,-172 1609.3916,-168.5001 1609.3917,-175.5001"/>
</g>
<!-- Node194 -->
<g id="node27" class="node">
<title>Node194</title>
<g id="a_node27"><a xlink:href="../../d9/d9e/_s_code_8c.html#adaf5eda35fe553bf35664556f073c53a" target="_top" xlink:title="omc_SCode_elementInfo">
<polygon fill="#ffffff" stroke="#000000" points="1780,-162.5 1780,-181.5 1907,-181.5 1907,-162.5 1780,-162.5"/>
<text text-anchor="middle" x="1843.5" y="-169.5" font-family="Helvetica,sans-Serif" font-size="10.00" fill="#000000">omc_SCode_elementInfo</text>
</a>
</g>
</g>
<!-- Node193&#45;&gt;Node194 -->
<g id="edge26" class="edge">
<title>Node193&#45;&gt;Node194</title>
<path fill="none" stroke="#191970" d="M1732.7079,-172C1744.5714,-172 1757.2459,-172 1769.6283,-172"/>
<polygon fill="#191970" stroke="#191970" points="1769.9366,-175.5001 1779.9366,-172 1769.9366,-168.5001 1769.9366,-175.5001"/>
</g>
<!-- Node201 -->
<g id="node34" class="node">
<title>Node201</title>
<g id="a_node34"><a xlink:href="../../d8/de4/_f_graph_8c.html#a036581a7cb87b6a6e3e9898752006eea" target="_top" xlink:title="omc_FGraph_currentScope">
<polygon fill="#ffffff" stroke="#000000" points="564,-161.5 564,-180.5 700,-180.5 700,-161.5 564,-161.5"/>
<text text-anchor="middle" x="632" y="-168.5" font-family="Helvetica,sans-Serif" font-size="10.00" fill="#000000">omc_FGraph_currentScope</text>
</a>
</g>
</g>
<!-- Node200&#45;&gt;Node201 -->
<g id="edge33" class="edge">
<title>Node200&#45;&gt;Node201</title>
<path fill="none" stroke="#191970" d="M470.3074,-136.5473C501.6972,-143.2357 543.8325,-152.2137 577.2206,-159.3279"/>
<polygon fill="#191970" stroke="#191970" points="576.7702,-162.8104 587.28,-161.4713 578.229,-155.9641 576.7702,-162.8104"/>
</g>
<!-- Node200&#45;&gt;Node202 -->
<g id="edge34" class="edge">
<title>Node200&#45;&gt;Node202</title>
<path fill="none" stroke="#191970" d="M477.3421,-117.46C496.6125,-113.9139 519.0904,-109.7776 540.8423,-105.7748"/>
<polygon fill="#191970" stroke="#191970" points="541.5699,-109.1997 550.7713,-103.9477 540.303,-102.3153 541.5699,-109.1997"/>
</g>
<!-- Node203 -->
<g id="node36" class="node">
<title>Node203</title>
<g id="a_node36"><a xlink:href="../../d2/d0f/_f_node_8c.html#ac4be285f5930ece6b4a48363c7e194ed" target="_top" xlink:title="omc_FNode_refName">
<polygon fill="#ffffff" stroke="#000000" points="575.5,-123.5 575.5,-142.5 688.5,-142.5 688.5,-123.5 575.5,-123.5"/>
<text text-anchor="middle" x="632" y="-130.5" font-family="Helvetica,sans-Serif" font-size="10.00" fill="#000000">omc_FNode_refName</text>
</a>
</g>
</g>
<!-- Node200&#45;&gt;Node203 -->
<g id="edge35" class="edge">
<title>Node200&#45;&gt;Node203</title>
<path fill="none" stroke="#191970" d="M497.7237,-129.0985C519.7123,-129.7374 543.7706,-130.4364 565.3719,-131.0641"/>
<polygon fill="#191970" stroke="#191970" points="565.3347,-134.5644 575.4322,-131.3564 565.5381,-127.5673 565.3347,-134.5644"/>
</g>
<!-- Node204 -->
<g id="node37" class="node">
<title>Node204</title>
<g id="a_node37"><a xlink:href="../../d2/d0f/_f_node_8c.html#ad0051d6dec4182a2aeb8d78b27565627" target="_top" xlink:title="omc_FNode_name">
<polygon fill="#ffffff" stroke="#000000" points="788.5,-123.5 788.5,-142.5 887.5,-142.5 887.5,-123.5 788.5,-123.5"/>
<text text-anchor="middle" x="838" y="-130.5" font-family="Helvetica,sans-Serif" font-size="10.00" fill="#000000">omc_FNode_name</text>
</a>
</g>
</g>
<!-- Node203&#45;&gt;Node204 -->
<g id="edge36" class="edge">
<title>Node203&#45;&gt;Node204</title>
<path fill="none" stroke="#191970" d="M688.5629,-133C716.3564,-133 749.8554,-133 778.0864,-133"/>
<polygon fill="#191970" stroke="#191970" points="778.2286,-136.5001 788.2286,-133 778.2285,-129.5001 778.2286,-136.5001"/>
</g>
<!-- Node205 -->
<g id="node38" class="node">
<title>Node205</title>
<g id="a_node38"><a xlink:href="../../d2/d0f/_f_node_8c.html#ab9dbc34a8a7187057b8c2533b409fae3" target="_top" xlink:title="omc_FNode_fromRef">
<polygon fill="#ffffff" stroke="#000000" points="783,-82.5 783,-101.5 893,-101.5 893,-82.5 783,-82.5"/>
<text text-anchor="middle" x="838" y="-89.5" font-family="Helvetica,sans-Serif" font-size="10.00" fill="#000000">omc_FNode_fromRef</text>
</a>
</g>
</g>
<!-- Node203&#45;&gt;Node205 -->
<g id="edge37" class="edge">
<title>Node203&#45;&gt;Node205</title>
<path fill="none" stroke="#191970" d="M679.7783,-123.4907C709.7009,-117.5353 748.4513,-109.8228 780.1137,-103.5211"/>
<polygon fill="#191970" stroke="#191970" points="781,-106.9134 790.1244,-101.5286 779.6335,-100.048 781,-106.9134"/>
</g>
<!-- Node207 -->
<g id="node40" class="node">
<title>Node207</title>
<g id="a_node40"><a xlink:href="../../d0/d1b/_lookup_8c.html#a9be7a0d0da30c5bb580ee16073707414" target="_top" xlink:title="omc_Lookup_lookupClassLocal">
<polygon fill="#ffffff" stroke="#000000" points="554.5,-35.5 554.5,-54.5 709.5,-54.5 709.5,-35.5 554.5,-35.5"/>
<text text-anchor="middle" x="632" y="-42.5" font-family="Helvetica,sans-Serif" font-size="10.00" fill="#000000">omc_Lookup_lookupClassLocal</text>
</a>
</g>
</g>
<!-- Node206&#45;&gt;Node207 -->
<g id="edge40" class="edge">
<title>Node206&#45;&gt;Node207</title>
<path fill="none" stroke="#191970" d="M500.0512,-45C514.4126,-45 529.5786,-45 544.312,-45"/>
<polygon fill="#191970" stroke="#191970" points="544.4277,-48.5001 554.4276,-45 544.4276,-41.5001 544.4277,-48.5001"/>
</g>
<!-- Node207&#45;&gt;Node205 -->
<g id="edge42" class="edge">
<title>Node207&#45;&gt;Node205</title>
<path fill="none" stroke="#191970" d="M674.308,-54.5423C687.6494,-57.5587 702.4424,-60.9109 716,-64 739.1386,-69.2721 764.7368,-75.1415 786.4856,-80.1391"/>
<polygon fill="#191970" stroke="#191970" points="785.974,-83.6128 796.504,-82.4422 787.5423,-76.7907 785.974,-83.6128"/>
</g>
<!-- Node208 -->
<g id="node41" class="node">
<title>Node208</title>
<g id="a_node41"><a xlink:href="../../d2/d0f/_f_node_8c.html#aa3678179506f22ed3f92e3ef17ba350e" target="_top" xlink:title="omc_FNode_children">
<polygon fill="#ffffff" stroke="#000000" points="783.5,-38.5 783.5,-57.5 892.5,-57.5 892.5,-38.5 783.5,-38.5"/>
<text text-anchor="middle" x="838" y="-45.5" font-family="Helvetica,sans-Serif" font-size="10.00" fill="#000000">omc_FNode_children</text>
</a>
</g>
</g>
<!-- Node207&#45;&gt;Node208 -->
<g id="edge41" class="edge">
<title>Node207&#45;&gt;Node208</title>
<path fill="none" stroke="#191970" d="M709.5862,-46.1299C730.5634,-46.4354 753.0406,-46.7627 773.2331,-47.0568"/>
<polygon fill="#191970" stroke="#191970" points="773.2039,-50.5566 783.2538,-47.2027 773.3059,-43.5574 773.2039,-50.5566"/>
</g>
<!-- Node209 -->
<g id="node42" class="node">
<title>Node209</title>
<g id="a_node42"><a xlink:href="../../d2/d08/_f_core_8c.html#ab107186a2eea148b54dfa1236c7dc57f" target="_top" xlink:title="omc_FCore_RefTree_get">
<polygon fill="#ffffff" stroke="#000000" points="774.5,-.5 774.5,-19.5 901.5,-19.5 901.5,-.5 774.5,-.5"/>
<text text-anchor="middle" x="838" y="-7.5" font-family="Helvetica,sans-Serif" font-size="10.00" fill="#000000">omc_FCore_RefTree_get</text>
</a>
</g>
</g>
<!-- Node207&#45;&gt;Node209 -->
<g id="edge43" class="edge">
<title>Node207&#45;&gt;Node209</title>
<path fill="none" stroke="#191970" d="M688.0183,-35.4823C713.9014,-31.0847 744.8221,-25.8312 771.8454,-21.2399"/>
<polygon fill="#191970" stroke="#191970" points="772.7204,-24.6414 781.9929,-19.5158 771.5478,-17.7403 772.7204,-24.6414"/>
</g>
<!-- Node210 -->
<g id="node43" class="node">
<title>Node210</title>
<g id="a_node43"><a xlink:href="../../d2/d08/_f_core_8c.html#a556c8fab7d705963fe0541d94033aa6e" target="_top" xlink:title="omc_FCore_RefTree_keyCompare">
<polygon fill="#ffffff" stroke="#000000" points="970.5,-.5 970.5,-19.5 1139.5,-19.5 1139.5,-.5 970.5,-.5"/>
<text text-anchor="middle" x="1055" y="-7.5" font-family="Helvetica,sans-Serif" font-size="10.00" fill="#000000">omc_FCore_RefTree_keyCompare</text>
</a>
</g>
</g>
<!-- Node209&#45;&gt;Node210 -->
<g id="edge44" class="edge">
<title>Node209&#45;&gt;Node210</title>
<path fill="none" stroke="#191970" d="M901.6409,-10C919.9582,-10 940.3459,-10 960.1203,-10"/>
<polygon fill="#191970" stroke="#191970" points="960.3909,-13.5001 970.3909,-10 960.3909,-6.5001 960.3909,-13.5001"/>
</g>
<!-- Node211&#45;&gt;Node177 -->
<g id="edge46" class="edge">
<title>Node211&#45;&gt;Node177</title>
<path fill="none" stroke="#191970" d="M1120.7851,-363.4701C1146.8554,-365.6379 1177.0586,-368.1493 1204.3138,-370.4156"/>
<polygon fill="#191970" stroke="#191970" points="1204.3448,-373.9302 1214.6005,-371.2709 1204.925,-366.9542 1204.3448,-373.9302"/>
</g>
<!-- Node212&#45;&gt;Node170 -->
<g id="edge48" class="edge">
<title>Node212&#45;&gt;Node170</title>
<path fill="none" stroke="#191970" d="M470.3074,-484.5473C505.5032,-492.0467 554.2083,-502.4245 588.945,-509.8261"/>
<polygon fill="#191970" stroke="#191970" points="588.2873,-513.2644 598.7971,-511.9253 589.7461,-506.4181 588.2873,-513.2644"/>
</g>
<!-- Node213 -->
<g id="node46" class="node">
<title>Node213</title>
<g id="a_node46"><a xlink:href="../../d2/d57/build_2include_2omc_2c_2meta_2meta__modelica__builtin_8h.html#a6f570947bebe207c25a64ea25f5ca884" target="_top" xlink:title="stringDelimitList">
<polygon fill="#ffffff" stroke="#000000" points="588.5,-471.5 588.5,-490.5 675.5,-490.5 675.5,-471.5 588.5,-471.5"/>
<text text-anchor="middle" x="632" y="-478.5" font-family="Helvetica,sans-Serif" font-size="10.00" fill="#000000">stringDelimitList</text>
</a>
</g>
</g>
<!-- Node212&#45;&gt;Node213 -->
<g id="edge49" class="edge">
<title>Node212&#45;&gt;Node213</title>
<path fill="none" stroke="#191970" d="M503.5688,-477.2683C528.4289,-477.9907 555.3633,-478.7733 578.1152,-479.4343"/>
<polygon fill="#191970" stroke="#191970" points="578.1546,-482.9369 588.252,-479.7289 578.3579,-475.9398 578.1546,-482.9369"/>
</g>
<!-- Node214 -->
<g id="node47" class="node">
<title>Node214</title>
<g id="a_node47"><a xlink:href="../../da/d72/_compiler_2boot_2build_2list_8c.html#a70628b2c3fb199a118f80777135940ee" target="_top" xlink:title="omc_List_map">
<polygon fill="#ffffff" stroke="#000000" points="592,-433.5 592,-452.5 672,-452.5 672,-433.5 592,-433.5"/>
<text text-anchor="middle" x="632" y="-440.5" font-family="Helvetica,sans-Serif" font-size="10.00" fill="#000000">omc_List_map</text>
</a>
</g>
</g>
<!-- Node212&#45;&gt;Node214 -->
<g id="edge50" class="edge">
<title>Node212&#45;&gt;Node214</title>
<path fill="none" stroke="#191970" d="M486.8977,-465.4856C517.0748,-460.8092 552.9935,-455.2431 581.5441,-450.8188"/>
<polygon fill="#191970" stroke="#191970" points="582.359,-454.2344 591.7051,-449.2443 581.287,-447.317 582.359,-454.2344"/>
</g>
</g>
</svg>
