<?xml version="1.0" encoding="UTF-8" standalone="no"?>
<!DOCTYPE svg PUBLIC "-//W3C//DTD SVG 1.1//EN"
 "http://www.w3.org/Graphics/SVG/1.1/DTD/svg11.dtd">
<!-- Generated by graphviz version 2.40.1 (20161225.0304)
 -->
<!-- Title: omc_NFTypeCheck_implicitConstructAndMatch2 Pages: 1 -->
<svg width="329pt" height="88pt"
 viewBox="0.00 0.00 329.00 88.00" xmlns="http://www.w3.org/2000/svg" xmlns:xlink="http://www.w3.org/1999/xlink">
<g id="graph0" class="graph" transform="scale(1 1) rotate(0) translate(4 84)">
<title>omc_NFTypeCheck_implicitConstructAndMatch2</title>
<polygon fill="#ffffff" stroke="transparent" points="-4,4 -4,-84 325,-84 325,4 -4,4"/>
<!-- Node5740 -->
<g id="node1" class="node">
<title>Node5740</title>
<polygon fill="#bfbfbf" stroke="#000000" points="0,-24.5 0,-54.5 140,-54.5 140,-24.5 0,-24.5"/>
<text text-anchor="start" x="8" y="-42.5" font-family="Helvetica,sans-Serif" font-size="10.00" fill="#000000">omc_NFTypeCheck_implicit</text>
<text text-anchor="middle" x="70" y="-31.5" font-family="Helvetica,sans-Serif" font-size="10.00" fill="#000000">ConstructAndMatch2</text>
</g>
<!-- Node5741 -->
<g id="node2" class="node">
<title>Node5741</title>
<g id="a_node2"><a xlink:href="../../d4/d91/_n_f_type_check_8h.html#a2aab2b96792641f7a872288fbbabe87c" target="_top" xlink:title="boxptr_NFTypeCheck\l_implicitConstructAndMatch2">
<polygon fill="#ffffff" stroke="#000000" points="176,-49.5 176,-79.5 321,-79.5 321,-49.5 176,-49.5"/>
<text text-anchor="start" x="184" y="-67.5" font-family="Helvetica,sans-Serif" font-size="10.00" fill="#000000">boxptr_NFTypeCheck</text>
<text text-anchor="middle" x="248.5" y="-56.5" font-family="Helvetica,sans-Serif" font-size="10.00" fill="#000000">_implicitConstructAndMatch2</text>
</a>
</g>
</g>
<!-- Node5740&#45;&gt;Node5741 -->
<g id="edge1" class="edge">
<title>Node5740&#45;&gt;Node5741</title>
<path fill="none" stroke="#191970" d="M150.0158,-50.7067C158.5786,-51.906 167.2561,-53.1213 175.7283,-54.3079"/>
<polygon fill="#191970" stroke="#191970" points="150.4244,-47.2298 140.0356,-49.3089 149.4535,-54.1622 150.4244,-47.2298"/>
</g>
<!-- Node5742 -->
<g id="node3" class="node">
<title>Node5742</title>
<g id="a_node3"><a xlink:href="../../d4/d91/_n_f_type_check_8h.html#a5cab9874f7c4c034d191d04cc9aa9e4c" target="_top" xlink:title="omc_NFTypeCheck_implicit\lConstructAndMatch">
<polygon fill="#ffffff" stroke="#000000" points="178.5,-.5 178.5,-30.5 318.5,-30.5 318.5,-.5 178.5,-.5"/>
<text text-anchor="start" x="186.5" y="-18.5" font-family="Helvetica,sans-Serif" font-size="10.00" fill="#000000">omc_NFTypeCheck_implicit</text>
<text text-anchor="middle" x="248.5" y="-7.5" font-family="Helvetica,sans-Serif" font-size="10.00" fill="#000000">ConstructAndMatch</text>
</a>
</g>
</g>
<!-- Node5740&#45;&gt;Node5742 -->
<g id="edge2" class="edge">
<title>Node5740&#45;&gt;Node5742</title>
<path fill="none" stroke="#191970" d="M150.1694,-28.7209C159.576,-27.4562 169.1186,-26.1731 178.3734,-24.9288"/>
<polygon fill="#191970" stroke="#191970" points="149.48,-25.282 140.0356,-30.0834 150.4128,-32.2196 149.48,-25.282"/>
</g>
</g>
</svg>
