<?xml version="1.0" encoding="UTF-8" standalone="no"?>
<!DOCTYPE svg PUBLIC "-//W3C//DTD SVG 1.1//EN"
 "http://www.w3.org/Graphics/SVG/1.1/DTD/svg11.dtd">
<!-- Generated by graphviz version 2.40.1 (20161225.0304)
 -->
<!-- Title: omc_NFTypeCheck_checkBinaryOperationEW Pages: 1 -->
<svg width="526pt" height="88pt"
 viewBox="0.00 0.00 526.00 88.00" xmlns="http://www.w3.org/2000/svg" xmlns:xlink="http://www.w3.org/1999/xlink">
<g id="graph0" class="graph" transform="scale(1 1) rotate(0) translate(4 84)">
<title>omc_NFTypeCheck_checkBinaryOperationEW</title>
<polygon fill="#ffffff" stroke="transparent" points="-4,4 -4,-84 522,-84 522,4 -4,4"/>
<!-- Node3404 -->
<g id="node1" class="node">
<title>Node3404</title>
<polygon fill="#bfbfbf" stroke="#000000" points="0,-24.5 0,-54.5 164,-54.5 164,-24.5 0,-24.5"/>
<text text-anchor="start" x="8" y="-42.5" font-family="Helvetica,sans-Serif" font-size="10.00" fill="#000000">omc_NFTypeCheck_checkBinary</text>
<text text-anchor="middle" x="82" y="-31.5" font-family="Helvetica,sans-Serif" font-size="10.00" fill="#000000">OperationEW</text>
</g>
<!-- Node3405 -->
<g id="node2" class="node">
<title>Node3405</title>
<g id="a_node2"><a xlink:href="../../d4/d91/_n_f_type_check_8h.html#a9fb315d155e2873cd03483544e79e108" target="_top" xlink:title="boxptr_NFTypeCheck\l_checkBinaryOperationEW">
<polygon fill="#ffffff" stroke="#000000" points="215,-49.5 215,-79.5 349,-79.5 349,-49.5 215,-49.5"/>
<text text-anchor="start" x="223" y="-67.5" font-family="Helvetica,sans-Serif" font-size="10.00" fill="#000000">boxptr_NFTypeCheck</text>
<text text-anchor="middle" x="282" y="-56.5" font-family="Helvetica,sans-Serif" font-size="10.00" fill="#000000">_checkBinaryOperationEW</text>
</a>
</g>
</g>
<!-- Node3404&#45;&gt;Node3405 -->
<g id="edge1" class="edge">
<title>Node3404&#45;&gt;Node3405</title>
<path fill="none" stroke="#191970" d="M174.5246,-51.0656C188.077,-52.7596 201.8136,-54.4767 214.7312,-56.0914"/>
<polygon fill="#191970" stroke="#191970" points="174.5704,-47.5441 164.2135,-49.7767 173.7021,-54.4901 174.5704,-47.5441"/>
</g>
<!-- Node3406 -->
<g id="node3" class="node">
<title>Node3406</title>
<g id="a_node3"><a xlink:href="../../d4/d91/_n_f_type_check_8h.html#a6ea133c1069bd86d7189218df7b8223f" target="_top" xlink:title="omc_NFTypeCheck_checkBinary\lOperation">
<polygon fill="#ffffff" stroke="#000000" points="200,-.5 200,-30.5 364,-30.5 364,-.5 200,-.5"/>
<text text-anchor="start" x="208" y="-18.5" font-family="Helvetica,sans-Serif" font-size="10.00" fill="#000000">omc_NFTypeCheck_checkBinary</text>
<text text-anchor="middle" x="282" y="-7.5" font-family="Helvetica,sans-Serif" font-size="10.00" fill="#000000">Operation</text>
</a>
</g>
</g>
<!-- Node3404&#45;&gt;Node3406 -->
<g id="edge2" class="edge">
<title>Node3404&#45;&gt;Node3406</title>
<path fill="none" stroke="#191970" d="M174.1874,-28.4375C182.7264,-27.4128 191.3418,-26.379 199.7826,-25.3661"/>
<polygon fill="#191970" stroke="#191970" points="173.7252,-24.9678 164.2135,-29.6344 174.5593,-31.9179 173.7252,-24.9678"/>
</g>
<!-- Node3407 -->
<g id="node4" class="node">
<title>Node3407</title>
<g id="a_node4"><a xlink:href="../../d4/d91/_n_f_type_check_8h.html#a23e4cf9285696cf5b7aedf6439e00086" target="_top" xlink:title="boxptr_NFTypeCheck\l_checkBinaryOperation">
<polygon fill="#ffffff" stroke="#000000" points="400,-.5 400,-30.5 518,-30.5 518,-.5 400,-.5"/>
<text text-anchor="start" x="408" y="-18.5" font-family="Helvetica,sans-Serif" font-size="10.00" fill="#000000">boxptr_NFTypeCheck</text>
<text text-anchor="middle" x="459" y="-7.5" font-family="Helvetica,sans-Serif" font-size="10.00" fill="#000000">_checkBinaryOperation</text>
</a>
</g>
</g>
<!-- Node3406&#45;&gt;Node3407 -->
<g id="edge3" class="edge">
<title>Node3406&#45;&gt;Node3407</title>
<path fill="none" stroke="#191970" d="M374.2657,-15.5C382.989,-15.5 391.6634,-15.5 399.9491,-15.5"/>
<polygon fill="#191970" stroke="#191970" points="374.0233,-12.0001 364.0232,-15.5 374.0232,-19.0001 374.0233,-12.0001"/>
</g>
</g>
</svg>
