<?xml version="1.0" encoding="UTF-8" standalone="no"?>
<!DOCTYPE svg PUBLIC "-//W3C//DTD SVG 1.1//EN"
 "http://www.w3.org/Graphics/SVG/1.1/DTD/svg11.dtd">
<!-- Generated by graphviz version 2.40.1 (20161225.0304)
 -->
<!-- Title: omc_NFTypeCheck_matchExpressions__cast Pages: 1 -->
<svg width="1008pt" height="680pt"
 viewBox="0.00 0.00 1008.00 679.50" xmlns="http://www.w3.org/2000/svg" xmlns:xlink="http://www.w3.org/1999/xlink">
<g id="graph0" class="graph" transform="scale(1 1) rotate(0) translate(4 675.5)">
<title>omc_NFTypeCheck_matchExpressions__cast</title>
<polygon fill="#ffffff" stroke="transparent" points="-4,4 -4,-675.5 1004,-675.5 1004,4 -4,4"/>
<!-- Node7099 -->
<g id="node1" class="node">
<title>Node7099</title>
<polygon fill="#bfbfbf" stroke="#000000" points="0,-519 0,-549 191,-549 191,-519 0,-519"/>
<text text-anchor="start" x="8" y="-537" font-family="Helvetica,sans-Serif" font-size="10.00" fill="#000000">omc_NFTypeCheck_matchExpressions</text>
<text text-anchor="middle" x="95.5" y="-526" font-family="Helvetica,sans-Serif" font-size="10.00" fill="#000000">__cast</text>
</g>
<!-- Node7100 -->
<g id="node2" class="node">
<title>Node7100</title>
<g id="a_node2"><a xlink:href="../../d4/d91/_n_f_type_check_8h.html#a581664b112a2e5fa76d22dd9e60317b7" target="_top" xlink:title="boxptr_NFTypeCheck\l_matchExpressions__cast">
<polygon fill="#ffffff" stroke="#000000" points="697.5,-641 697.5,-671 829.5,-671 829.5,-641 697.5,-641"/>
<text text-anchor="start" x="705.5" y="-659" font-family="Helvetica,sans-Serif" font-size="10.00" fill="#000000">boxptr_NFTypeCheck</text>
<text text-anchor="middle" x="763.5" y="-648" font-family="Helvetica,sans-Serif" font-size="10.00" fill="#000000">_matchExpressions__cast</text>
</a>
</g>
</g>
<!-- Node7099&#45;&gt;Node7100 -->
<g id="edge1" class="edge">
<title>Node7099&#45;&gt;Node7100</title>
<path fill="none" stroke="#191970" d="M136.2954,-553.3187C201.6022,-583.0628 334.4502,-638.7556 454,-659 537.6973,-673.1732 560.1179,-660.0743 645,-659 661.9767,-658.7851 680.3183,-658.3972 697.3818,-657.97"/>
<polygon fill="#191970" stroke="#191970" points="137.7081,-550.1161 127.1596,-549.1258 134.7882,-556.4781 137.7081,-550.1161"/>
</g>
<!-- Node7101 -->
<g id="node3" class="node">
<title>Node7101</title>
<g id="a_node3"><a xlink:href="../../d4/d91/_n_f_type_check_8h.html#a60ef04ca61cc8c6d71c1a9357dc35518" target="_top" xlink:title="omc_NFTypeCheck_matchExpressions">
<polygon fill="#ffffff" stroke="#000000" points="227,-404.5 227,-423.5 418,-423.5 418,-404.5 227,-404.5"/>
<text text-anchor="middle" x="322.5" y="-411.5" font-family="Helvetica,sans-Serif" font-size="10.00" fill="#000000">omc_NFTypeCheck_matchExpressions</text>
</a>
</g>
</g>
<!-- Node7099&#45;&gt;Node7101 -->
<g id="edge2" class="edge">
<title>Node7099&#45;&gt;Node7101</title>
<path fill="none" stroke="#191970" d="M133.3578,-513.9871C182.8503,-487.8236 267.5668,-443.0396 304.4534,-423.5401"/>
<polygon fill="#191970" stroke="#191970" points="131.4547,-511.0341 124.2497,-518.8019 134.7262,-517.2226 131.4547,-511.0341"/>
</g>
<!-- Node7102 -->
<g id="node4" class="node">
<title>Node7102</title>
<g id="a_node4"><a xlink:href="../../d4/d91/_n_f_type_check_8h.html#a9807990a3cd96a1ec0af3a1e9c4021e7" target="_top" xlink:title="omc_NFTypeCheck_matchBoxed\lExpressions">
<polygon fill="#ffffff" stroke="#000000" points="467.5,-570 467.5,-600 631.5,-600 631.5,-570 467.5,-570"/>
<text text-anchor="start" x="475.5" y="-588" font-family="Helvetica,sans-Serif" font-size="10.00" fill="#000000">omc_NFTypeCheck_matchBoxed</text>
<text text-anchor="middle" x="549.5" y="-577" font-family="Helvetica,sans-Serif" font-size="10.00" fill="#000000">Expressions</text>
</a>
</g>
</g>
<!-- Node7101&#45;&gt;Node7102 -->
<g id="edge3" class="edge">
<title>Node7101&#45;&gt;Node7102</title>
<path fill="none" stroke="#191970" d="M337.2921,-432.0587C358.8192,-461.9683 401.9451,-520.5413 454,-552 467.8996,-560.4 484.6344,-565.8707 500.1861,-569.8893"/>
<polygon fill="#191970" stroke="#191970" points="340.0008,-429.8306 331.3187,-423.7583 334.3191,-433.9195 340.0008,-429.8306"/>
</g>
<!-- Node7104 -->
<g id="node6" class="node">
<title>Node7104</title>
<g id="a_node6"><a xlink:href="../../d4/d91/_n_f_type_check_8h.html#aa50e15ebf5a8ef517a6c74781fff25a8" target="_top" xlink:title="omc_NFTypeCheck_matchArray\lExpressions">
<polygon fill="#ffffff" stroke="#000000" points="469.5,-521 469.5,-551 629.5,-551 629.5,-521 469.5,-521"/>
<text text-anchor="start" x="477.5" y="-539" font-family="Helvetica,sans-Serif" font-size="10.00" fill="#000000">omc_NFTypeCheck_matchArray</text>
<text text-anchor="middle" x="549.5" y="-528" font-family="Helvetica,sans-Serif" font-size="10.00" fill="#000000">Expressions</text>
</a>
</g>
</g>
<!-- Node7101&#45;&gt;Node7104 -->
<g id="edge6" class="edge">
<title>Node7101&#45;&gt;Node7104</title>
<path fill="none" stroke="#191970" d="M346.7832,-429.9906C371.8091,-450.0955 412.8683,-483.4683 454,-503 470.8326,-510.9931 490.6444,-516.5305 507.8467,-520.9491"/>
<polygon fill="#191970" stroke="#191970" points="348.9315,-427.2271 338.9338,-423.7202 344.5625,-432.6963 348.9315,-427.2271"/>
</g>
<!-- Node7106 -->
<g id="node8" class="node">
<title>Node7106</title>
<g id="a_node8"><a xlink:href="../../d4/d91/_n_f_type_check_8h.html#aca536678aa78a908a2fecafc6cb131c0" target="_top" xlink:title="omc_NFTypeCheck_matchExpressions\l__cast">
<polygon fill="#ffffff" stroke="#000000" points="454,-619 454,-649 645,-649 645,-619 454,-619"/>
<text text-anchor="start" x="462" y="-637" font-family="Helvetica,sans-Serif" font-size="10.00" fill="#000000">omc_NFTypeCheck_matchExpressions</text>
<text text-anchor="middle" x="549.5" y="-626" font-family="Helvetica,sans-Serif" font-size="10.00" fill="#000000">__cast</text>
</a>
</g>
</g>
<!-- Node7101&#45;&gt;Node7106 -->
<g id="edge9" class="edge">
<title>Node7101&#45;&gt;Node7106</title>
<path fill="none" stroke="#191970" d="M331.9856,-433.1416C349.4773,-471.481 390.892,-556.6071 454,-601 466.1647,-609.5572 481.0909,-615.07 495.4966,-618.9726"/>
<polygon fill="#191970" stroke="#191970" points="334.9987,-431.31 327.6883,-423.6413 328.6208,-434.195 334.9987,-431.31"/>
</g>
<!-- Node7107 -->
<g id="node9" class="node">
<title>Node7107</title>
<g id="a_node9"><a xlink:href="../../d4/d91/_n_f_type_check_8h.html#a5be75d3ab7c254773603896a7d5f2371" target="_top" xlink:title="boxptr_NFTypeCheck\l_matchExpressions">
<polygon fill="#ffffff" stroke="#000000" points="493,-472 493,-502 606,-502 606,-472 493,-472"/>
<text text-anchor="start" x="501" y="-490" font-family="Helvetica,sans-Serif" font-size="10.00" fill="#000000">boxptr_NFTypeCheck</text>
<text text-anchor="middle" x="549.5" y="-479" font-family="Helvetica,sans-Serif" font-size="10.00" fill="#000000">_matchExpressions</text>
</a>
</g>
</g>
<!-- Node7101&#45;&gt;Node7107 -->
<g id="edge12" class="edge">
<title>Node7101&#45;&gt;Node7107</title>
<path fill="none" stroke="#191970" d="M355.4913,-427.4501C381.8782,-437.9255 419.9617,-452.4167 454,-463 466.4883,-466.8829 480.0408,-470.5883 492.9064,-473.8756"/>
<polygon fill="#191970" stroke="#191970" points="356.5685,-424.1114 345.9838,-423.6485 353.9696,-430.6111 356.5685,-424.1114"/>
</g>
<!-- Node7108 -->
<g id="node10" class="node">
<title>Node7108</title>
<g id="a_node10"><a xlink:href="../../d4/d91/_n_f_type_check_8h.html#a9a33f77d59a7b0702e0cdbba46aada79" target="_top" xlink:title="omc_NFTypeCheck_checkRelation\lOperation">
<polygon fill="#ffffff" stroke="#000000" points="463.5,-423 463.5,-453 635.5,-453 635.5,-423 463.5,-423"/>
<text text-anchor="start" x="471.5" y="-441" font-family="Helvetica,sans-Serif" font-size="10.00" fill="#000000">omc_NFTypeCheck_checkRelation</text>
<text text-anchor="middle" x="549.5" y="-430" font-family="Helvetica,sans-Serif" font-size="10.00" fill="#000000">Operation</text>
</a>
</g>
</g>
<!-- Node7101&#45;&gt;Node7108 -->
<g id="edge13" class="edge">
<title>Node7101&#45;&gt;Node7108</title>
<path fill="none" stroke="#191970" d="M422.8005,-424.6045C436.296,-426.0313 450.0439,-427.4848 463.2669,-428.8828"/>
<polygon fill="#191970" stroke="#191970" points="422.855,-421.0908 412.5424,-423.5199 422.119,-428.052 422.855,-421.0908"/>
</g>
<!-- Node7110 -->
<g id="node12" class="node">
<title>Node7110</title>
<g id="a_node12"><a xlink:href="../../d4/d91/_n_f_type_check_8h.html#acd87f79448c28425ad068c5fd30a8109" target="_top" xlink:title="omc_NFTypeCheck_checkLogical\lBinaryOperation">
<polygon fill="#ffffff" stroke="#000000" points="466,-374 466,-404 633,-404 633,-374 466,-374"/>
<text text-anchor="start" x="474" y="-392" font-family="Helvetica,sans-Serif" font-size="10.00" fill="#000000">omc_NFTypeCheck_checkLogical</text>
<text text-anchor="middle" x="549.5" y="-381" font-family="Helvetica,sans-Serif" font-size="10.00" fill="#000000">BinaryOperation</text>
</a>
</g>
</g>
<!-- Node7101&#45;&gt;Node7110 -->
<g id="edge15" class="edge">
<title>Node7101&#45;&gt;Node7110</title>
<path fill="none" stroke="#191970" d="M419.1178,-403.3593C434.6795,-401.6454 450.6743,-399.8839 465.8966,-398.2074"/>
<polygon fill="#191970" stroke="#191970" points="418.5233,-399.9035 408.9665,-404.4773 419.2896,-406.8614 418.5233,-399.9035"/>
</g>
<!-- Node7112 -->
<g id="node14" class="node">
<title>Node7112</title>
<g id="a_node14"><a xlink:href="../../d4/d91/_n_f_type_check_8h.html#a579ef1018d6b7b5aa83b8bb647196ef1" target="_top" xlink:title="omc_NFTypeCheck_checkBinary\lOperationEW">
<polygon fill="#ffffff" stroke="#000000" points="467.5,-325 467.5,-355 631.5,-355 631.5,-325 467.5,-325"/>
<text text-anchor="start" x="475.5" y="-343" font-family="Helvetica,sans-Serif" font-size="10.00" fill="#000000">omc_NFTypeCheck_checkBinary</text>
<text text-anchor="middle" x="549.5" y="-332" font-family="Helvetica,sans-Serif" font-size="10.00" fill="#000000">OperationEW</text>
</a>
</g>
</g>
<!-- Node7101&#45;&gt;Node7112 -->
<g id="edge17" class="edge">
<title>Node7101&#45;&gt;Node7112</title>
<path fill="none" stroke="#191970" d="M355.5202,-400.6419C381.9231,-390.2177 420.0141,-375.7504 454,-365 465.0299,-361.511 476.8826,-358.1239 488.3575,-355.0274"/>
<polygon fill="#191970" stroke="#191970" points="354.0066,-397.4771 346.0062,-404.423 356.5919,-403.9822 354.0066,-397.4771"/>
</g>
<!-- Node7116 -->
<g id="node18" class="node">
<title>Node7116</title>
<g id="a_node18"><a xlink:href="../../d4/d91/_n_f_type_check_8h.html#a6085248c3c281b55c39b0b8f37f9282b" target="_top" xlink:title="omc_NFTypeCheck_checkBinary\lOperationMul">
<polygon fill="#ffffff" stroke="#000000" points="467.5,-276 467.5,-306 631.5,-306 631.5,-276 467.5,-276"/>
<text text-anchor="start" x="475.5" y="-294" font-family="Helvetica,sans-Serif" font-size="10.00" fill="#000000">omc_NFTypeCheck_checkBinary</text>
<text text-anchor="middle" x="549.5" y="-283" font-family="Helvetica,sans-Serif" font-size="10.00" fill="#000000">OperationMul</text>
</a>
</g>
</g>
<!-- Node7101&#45;&gt;Node7116 -->
<g id="edge21" class="edge">
<title>Node7101&#45;&gt;Node7116</title>
<path fill="none" stroke="#191970" d="M340.0426,-397.3833C363.9654,-375.6025 409.0116,-337.6345 454,-316 461.9544,-312.1748 470.5733,-308.8769 479.2674,-306.0489"/>
<polygon fill="#191970" stroke="#191970" points="337.4638,-395.0009 332.4965,-404.3591 342.2155,-400.1411 337.4638,-395.0009"/>
</g>
<!-- Node7117 -->
<g id="node19" class="node">
<title>Node7117</title>
<g id="a_node19"><a xlink:href="../../d4/d91/_n_f_type_check_8h.html#a413f1525b381ae5dbdc8b27527b31d75" target="_top" xlink:title="omc_NFTypeCheck_checkBinary\lOperationSub">
<polygon fill="#ffffff" stroke="#000000" points="467.5,-227 467.5,-257 631.5,-257 631.5,-227 467.5,-227"/>
<text text-anchor="start" x="475.5" y="-245" font-family="Helvetica,sans-Serif" font-size="10.00" fill="#000000">omc_NFTypeCheck_checkBinary</text>
<text text-anchor="middle" x="549.5" y="-234" font-family="Helvetica,sans-Serif" font-size="10.00" fill="#000000">OperationSub</text>
</a>
</g>
</g>
<!-- Node7101&#45;&gt;Node7117 -->
<g id="edge23" class="edge">
<title>Node7101&#45;&gt;Node7117</title>
<path fill="none" stroke="#191970" d="M333.6183,-395.7493C353.6588,-364.4485 398.9228,-300.6557 454,-267 460.2885,-263.1573 467.1588,-259.9003 474.2381,-257.1404"/>
<polygon fill="#191970" stroke="#191970" points="330.572,-394.0192 328.2256,-404.3509 336.5029,-397.7374 330.572,-394.0192"/>
</g>
<!-- Node7118 -->
<g id="node20" class="node">
<title>Node7118</title>
<g id="a_node20"><a xlink:href="../../d4/d91/_n_f_type_check_8h.html#a74506cf2b933fb7ed5e6781508fe408c" target="_top" xlink:title="omc_NFTypeCheck_checkBinary\lOperationAdd">
<polygon fill="#ffffff" stroke="#000000" points="467.5,-178 467.5,-208 631.5,-208 631.5,-178 467.5,-178"/>
<text text-anchor="start" x="475.5" y="-196" font-family="Helvetica,sans-Serif" font-size="10.00" fill="#000000">omc_NFTypeCheck_checkBinary</text>
<text text-anchor="middle" x="549.5" y="-185" font-family="Helvetica,sans-Serif" font-size="10.00" fill="#000000">OperationAdd</text>
</a>
</g>
</g>
<!-- Node7101&#45;&gt;Node7118 -->
<g id="edge25" class="edge">
<title>Node7101&#45;&gt;Node7118</title>
<path fill="none" stroke="#191970" d="M329.7641,-394.985C345.8251,-355.5721 388.223,-264.755 454,-218 459.448,-214.1275 465.4524,-210.8547 471.7174,-208.0888"/>
<polygon fill="#191970" stroke="#191970" points="326.4414,-393.8696 326.0129,-404.4558 332.9495,-396.4474 326.4414,-393.8696"/>
</g>
<!-- Node7119 -->
<g id="node21" class="node">
<title>Node7119</title>
<g id="a_node21"><a xlink:href="../../d4/d91/_n_f_type_check_8h.html#a5ade6acde18f6b7f38da8676d69af1f5" target="_top" xlink:title="omc_NFTypeCheck_checkOverloaded\lBinaryArrayEW">
<polygon fill="#ffffff" stroke="#000000" points="457,-129 457,-159 642,-159 642,-129 457,-129"/>
<text text-anchor="start" x="465" y="-147" font-family="Helvetica,sans-Serif" font-size="10.00" fill="#000000">omc_NFTypeCheck_checkOverloaded</text>
<text text-anchor="middle" x="549.5" y="-136" font-family="Helvetica,sans-Serif" font-size="10.00" fill="#000000">BinaryArrayEW</text>
</a>
</g>
</g>
<!-- Node7101&#45;&gt;Node7119 -->
<g id="edge27" class="edge">
<title>Node7101&#45;&gt;Node7119</title>
<path fill="none" stroke="#191970" d="M327.2157,-394.4899C339.5167,-347.9051 377.0961,-229.5671 454,-169 458.8471,-165.1826 464.2195,-161.9444 469.8737,-159.1981"/>
<polygon fill="#191970" stroke="#191970" points="323.7486,-393.9233 324.6806,-404.477 330.5334,-395.6456 323.7486,-393.9233"/>
</g>
<!-- Node7121 -->
<g id="node23" class="node">
<title>Node7121</title>
<g id="a_node23"><a xlink:href="../../d4/d91/_n_f_type_check_8h.html#ada6cce56dad6bfcd7e4c751ca84d528b" target="_top" xlink:title="omc_NFTypeCheck_checkOverloaded\lBinaryArrayAddSub">
<polygon fill="#ffffff" stroke="#000000" points="457,-80 457,-110 642,-110 642,-80 457,-80"/>
<text text-anchor="start" x="465" y="-98" font-family="Helvetica,sans-Serif" font-size="10.00" fill="#000000">omc_NFTypeCheck_checkOverloaded</text>
<text text-anchor="middle" x="549.5" y="-87" font-family="Helvetica,sans-Serif" font-size="10.00" fill="#000000">BinaryArrayAddSub</text>
</a>
</g>
</g>
<!-- Node7101&#45;&gt;Node7121 -->
<g id="edge29" class="edge">
<title>Node7101&#45;&gt;Node7121</title>
<path fill="none" stroke="#191970" d="M325.3677,-394.2585C334.1346,-341.2832 365.584,-194.9448 454,-120 458.5758,-116.1214 463.6855,-112.836 469.0976,-110.0542"/>
<polygon fill="#191970" stroke="#191970" points="321.8773,-393.9261 323.7907,-404.3467 328.7933,-395.0073 321.8773,-393.9261"/>
</g>
<!-- Node7123 -->
<g id="node25" class="node">
<title>Node7123</title>
<g id="a_node25"><a xlink:href="../../db/d98/_n_f_typing_8h.html#a28ef14923ecfbafa09593bf608b599d1" target="_top" xlink:title="omc_NFTyping_typeEquation">
<polygon fill="#ffffff" stroke="#000000" points="476.5,-39.5 476.5,-58.5 622.5,-58.5 622.5,-39.5 476.5,-39.5"/>
<text text-anchor="middle" x="549.5" y="-46.5" font-family="Helvetica,sans-Serif" font-size="10.00" fill="#000000">omc_NFTyping_typeEquation</text>
</a>
</g>
</g>
<!-- Node7101&#45;&gt;Node7123 -->
<g id="edge31" class="edge">
<title>Node7101&#45;&gt;Node7123</title>
<path fill="none" stroke="#191970" d="M323.8514,-394.0616C328.9765,-334.9442 352.4701,-159.2536 454,-71 460.5489,-65.3074 468.2787,-61.0099 476.459,-57.7774"/>
<polygon fill="#191970" stroke="#191970" points="320.3435,-394.0281 323.0537,-404.2704 327.3222,-394.5735 320.3435,-394.0281"/>
</g>
<!-- Node7125 -->
<g id="node27" class="node">
<title>Node7125</title>
<g id="a_node27"><a xlink:href="../../db/d98/_n_f_typing_8h.html#aff5a53e30eff3167fc188d6e1c71d1f1" target="_top" xlink:title="omc_NFTyping_typeRange">
<polygon fill="#ffffff" stroke="#000000" points="481.5,-1.5 481.5,-20.5 617.5,-20.5 617.5,-1.5 481.5,-1.5"/>
<text text-anchor="middle" x="549.5" y="-8.5" font-family="Helvetica,sans-Serif" font-size="10.00" fill="#000000">omc_NFTyping_typeRange</text>
</a>
</g>
</g>
<!-- Node7101&#45;&gt;Node7125 -->
<g id="edge33" class="edge">
<title>Node7101&#45;&gt;Node7125</title>
<path fill="none" stroke="#191970" d="M326.5423,-394.3206C341.5552,-323.1294 396.2257,-80.5318 454,-30 461.7619,-23.2111 471.2471,-18.5788 481.1935,-15.4607"/>
<polygon fill="#191970" stroke="#191970" points="323.0934,-393.7151 324.4789,-404.219 329.9461,-395.1437 323.0934,-393.7151"/>
</g>
<!-- Node7102&#45;&gt;Node7101 -->
<g id="edge5" class="edge">
<title>Node7102&#45;&gt;Node7101</title>
<path fill="none" stroke="#191970" d="M458.0518,-572.3245C456.6777,-571.576 455.3259,-570.8013 454,-570 390.1128,-531.3905 339.6751,-451.9395 326.1091,-423.6455"/>
<polygon fill="#191970" stroke="#191970" points="456.8853,-575.6497 467.4074,-576.8896 459.9551,-569.3587 456.8853,-575.6497"/>
</g>
<!-- Node7103 -->
<g id="node5" class="node">
<title>Node7103</title>
<g id="a_node5"><a xlink:href="../../d4/d91/_n_f_type_check_8h.html#adc387592c3422bbe4adf410a84810786" target="_top" xlink:title="boxptr_NFTypeCheck\l_matchBoxedExpressions">
<polygon fill="#ffffff" stroke="#000000" points="698,-570 698,-600 829,-600 829,-570 698,-570"/>
<text text-anchor="start" x="706" y="-588" font-family="Helvetica,sans-Serif" font-size="10.00" fill="#000000">boxptr_NFTypeCheck</text>
<text text-anchor="middle" x="763.5" y="-577" font-family="Helvetica,sans-Serif" font-size="10.00" fill="#000000">_matchBoxedExpressions</text>
</a>
</g>
</g>
<!-- Node7102&#45;&gt;Node7103 -->
<g id="edge4" class="edge">
<title>Node7102&#45;&gt;Node7103</title>
<path fill="none" stroke="#191970" d="M641.7345,-585C660.6211,-585 680.1336,-585 697.8568,-585"/>
<polygon fill="#191970" stroke="#191970" points="641.626,-581.5001 631.626,-585 641.6259,-588.5001 641.626,-581.5001"/>
</g>
<!-- Node7104&#45;&gt;Node7101 -->
<g id="edge8" class="edge">
<title>Node7104&#45;&gt;Node7101</title>
<path fill="none" stroke="#191970" d="M460.1403,-523.755C458.0575,-522.8717 456.0076,-521.9533 454,-521 399.7311,-495.23 345.5883,-445.3653 328.2306,-423.5917"/>
<polygon fill="#191970" stroke="#191970" points="458.8662,-527.0148 469.4539,-527.4035 461.4195,-520.4971 458.8662,-527.0148"/>
</g>
<!-- Node7105 -->
<g id="node7" class="node">
<title>Node7105</title>
<g id="a_node7"><a xlink:href="../../d4/d91/_n_f_type_check_8h.html#a544188e889e5dc0f5e8190fa43150160" target="_top" xlink:title="boxptr_NFTypeCheck\l_matchArrayExpressions">
<polygon fill="#ffffff" stroke="#000000" points="700.5,-521 700.5,-551 826.5,-551 826.5,-521 700.5,-521"/>
<text text-anchor="start" x="708.5" y="-539" font-family="Helvetica,sans-Serif" font-size="10.00" fill="#000000">boxptr_NFTypeCheck</text>
<text text-anchor="middle" x="763.5" y="-528" font-family="Helvetica,sans-Serif" font-size="10.00" fill="#000000">_matchArrayExpressions</text>
</a>
</g>
</g>
<!-- Node7104&#45;&gt;Node7105 -->
<g id="edge7" class="edge">
<title>Node7104&#45;&gt;Node7105</title>
<path fill="none" stroke="#191970" d="M640.0242,-536C660.3736,-536 681.5376,-536 700.4763,-536"/>
<polygon fill="#191970" stroke="#191970" points="639.7946,-532.5001 629.7946,-536 639.7945,-539.5001 639.7946,-532.5001"/>
</g>
<!-- Node7106&#45;&gt;Node7100 -->
<g id="edge10" class="edge">
<title>Node7106&#45;&gt;Node7100</title>
<path fill="none" stroke="#191970" d="M655.5687,-644.9043C669.7876,-646.366 684.0283,-647.83 697.2866,-649.193"/>
<polygon fill="#191970" stroke="#191970" points="655.539,-641.3828 645.2334,-643.8418 654.8231,-648.3461 655.539,-641.3828"/>
</g>
<!-- Node7106&#45;&gt;Node7101 -->
<g id="edge11" class="edge">
<title>Node7106&#45;&gt;Node7101</title>
<path fill="none" stroke="#191970" d="M445.4347,-612.6275C376.1972,-558.2788 334.9396,-456.3815 324.9053,-423.8146"/>
<polygon fill="#191970" stroke="#191970" points="443.4563,-615.5182 453.5644,-618.6927 447.6421,-609.9076 443.4563,-615.5182"/>
</g>
<!-- Node7109 -->
<g id="node11" class="node">
<title>Node7109</title>
<g id="a_node11"><a xlink:href="../../d4/d91/_n_f_type_check_8h.html#a51fd8062c069886efafa16513697a2e7" target="_top" xlink:title="boxptr_NFTypeCheck\l_checkRelationOperation">
<polygon fill="#ffffff" stroke="#000000" points="700.5,-423 700.5,-453 826.5,-453 826.5,-423 700.5,-423"/>
<text text-anchor="start" x="708.5" y="-441" font-family="Helvetica,sans-Serif" font-size="10.00" fill="#000000">boxptr_NFTypeCheck</text>
<text text-anchor="middle" x="763.5" y="-430" font-family="Helvetica,sans-Serif" font-size="10.00" fill="#000000">_checkRelationOperation</text>
</a>
</g>
</g>
<!-- Node7108&#45;&gt;Node7109 -->
<g id="edge14" class="edge">
<title>Node7108&#45;&gt;Node7109</title>
<path fill="none" stroke="#191970" d="M645.8155,-438C664.2778,-438 683.1686,-438 700.2597,-438"/>
<polygon fill="#191970" stroke="#191970" points="645.617,-434.5001 635.617,-438 645.6169,-441.5001 645.617,-434.5001"/>
</g>
<!-- Node7111 -->
<g id="node13" class="node">
<title>Node7111</title>
<g id="a_node13"><a xlink:href="../../d4/d91/_n_f_type_check_8h.html#ae6f24f501c8f7ca45c1743486f357337" target="_top" xlink:title="boxptr_NFTypeCheck\l_checkLogicalBinaryOperation">
<polygon fill="#ffffff" stroke="#000000" points="689,-374 689,-404 838,-404 838,-374 689,-374"/>
<text text-anchor="start" x="697" y="-392" font-family="Helvetica,sans-Serif" font-size="10.00" fill="#000000">boxptr_NFTypeCheck</text>
<text text-anchor="middle" x="763.5" y="-381" font-family="Helvetica,sans-Serif" font-size="10.00" fill="#000000">_checkLogicalBinaryOperation</text>
</a>
</g>
</g>
<!-- Node7110&#45;&gt;Node7111 -->
<g id="edge16" class="edge">
<title>Node7110&#45;&gt;Node7111</title>
<path fill="none" stroke="#191970" d="M643.1591,-389C658.4808,-389 674.1731,-389 688.953,-389"/>
<polygon fill="#191970" stroke="#191970" points="643.1575,-385.5001 633.1574,-389 643.1574,-392.5001 643.1575,-385.5001"/>
</g>
<!-- Node7113 -->
<g id="node15" class="node">
<title>Node7113</title>
<g id="a_node15"><a xlink:href="../../d4/d91/_n_f_type_check_8h.html#a9fb315d155e2873cd03483544e79e108" target="_top" xlink:title="boxptr_NFTypeCheck\l_checkBinaryOperationEW">
<polygon fill="#ffffff" stroke="#000000" points="696.5,-325 696.5,-355 830.5,-355 830.5,-325 696.5,-325"/>
<text text-anchor="start" x="704.5" y="-343" font-family="Helvetica,sans-Serif" font-size="10.00" fill="#000000">boxptr_NFTypeCheck</text>
<text text-anchor="middle" x="763.5" y="-332" font-family="Helvetica,sans-Serif" font-size="10.00" fill="#000000">_checkBinaryOperationEW</text>
</a>
</g>
</g>
<!-- Node7112&#45;&gt;Node7113 -->
<g id="edge18" class="edge">
<title>Node7112&#45;&gt;Node7113</title>
<path fill="none" stroke="#191970" d="M641.7148,-340C660.0087,-340 678.8904,-340 696.1653,-340"/>
<polygon fill="#191970" stroke="#191970" points="641.626,-336.5001 631.626,-340 641.6259,-343.5001 641.626,-336.5001"/>
</g>
<!-- Node7114 -->
<g id="node16" class="node">
<title>Node7114</title>
<g id="a_node16"><a xlink:href="../../d4/d91/_n_f_type_check_8h.html#a6ea133c1069bd86d7189218df7b8223f" target="_top" xlink:title="omc_NFTypeCheck_checkBinary\lOperation">
<polygon fill="#ffffff" stroke="#000000" points="681.5,-251 681.5,-281 845.5,-281 845.5,-251 681.5,-251"/>
<text text-anchor="start" x="689.5" y="-269" font-family="Helvetica,sans-Serif" font-size="10.00" fill="#000000">omc_NFTypeCheck_checkBinary</text>
<text text-anchor="middle" x="763.5" y="-258" font-family="Helvetica,sans-Serif" font-size="10.00" fill="#000000">Operation</text>
</a>
</g>
</g>
<!-- Node7112&#45;&gt;Node7114 -->
<g id="edge19" class="edge">
<title>Node7112&#45;&gt;Node7114</title>
<path fill="none" stroke="#191970" d="M624.8955,-322.2034C631.7328,-320.2434 638.5187,-318.1676 645,-316 674.8587,-306.0141 707.7744,-291.8603 731.3216,-281.1591"/>
<polygon fill="#191970" stroke="#191970" points="623.5685,-318.9394 614.8708,-324.9891 625.4428,-325.6839 623.5685,-318.9394"/>
</g>
<!-- Node7115 -->
<g id="node17" class="node">
<title>Node7115</title>
<g id="a_node17"><a xlink:href="../../d4/d91/_n_f_type_check_8h.html#a23e4cf9285696cf5b7aedf6439e00086" target="_top" xlink:title="boxptr_NFTypeCheck\l_checkBinaryOperation">
<polygon fill="#ffffff" stroke="#000000" points="882,-251 882,-281 1000,-281 1000,-251 882,-251"/>
<text text-anchor="start" x="890" y="-269" font-family="Helvetica,sans-Serif" font-size="10.00" fill="#000000">boxptr_NFTypeCheck</text>
<text text-anchor="middle" x="941" y="-258" font-family="Helvetica,sans-Serif" font-size="10.00" fill="#000000">_checkBinaryOperation</text>
</a>
</g>
</g>
<!-- Node7114&#45;&gt;Node7115 -->
<g id="edge20" class="edge">
<title>Node7114&#45;&gt;Node7115</title>
<path fill="none" stroke="#191970" d="M856.0263,-266C864.7743,-266 873.4732,-266 881.7823,-266"/>
<polygon fill="#191970" stroke="#191970" points="855.755,-262.5001 845.7549,-266 855.7549,-269.5001 855.755,-262.5001"/>
</g>
<!-- Node7116&#45;&gt;Node7114 -->
<g id="edge22" class="edge">
<title>Node7116&#45;&gt;Node7114</title>
<path fill="none" stroke="#191970" d="M641.625,-280.2377C654.7965,-278.699 668.2747,-277.1244 681.2402,-275.6098"/>
<polygon fill="#191970" stroke="#191970" points="641.1523,-276.7691 631.626,-281.4058 641.9646,-283.7218 641.1523,-276.7691"/>
</g>
<!-- Node7117&#45;&gt;Node7114 -->
<g id="edge24" class="edge">
<title>Node7117&#45;&gt;Node7114</title>
<path fill="none" stroke="#191970" d="M641.625,-252.3318C654.7965,-253.809 668.2747,-255.3205 681.2402,-256.7746"/>
<polygon fill="#191970" stroke="#191970" points="641.9538,-248.8468 631.626,-251.2104 641.1736,-255.8032 641.9538,-248.8468"/>
</g>
<!-- Node7118&#45;&gt;Node7114 -->
<g id="edge26" class="edge">
<title>Node7118&#45;&gt;Node7114</title>
<path fill="none" stroke="#191970" d="M621.4613,-210.7718C629.4467,-213.0596 637.4255,-215.4861 645,-218 674.072,-227.6486 706.2355,-240.8431 729.7094,-250.9567"/>
<polygon fill="#191970" stroke="#191970" points="622.3177,-207.377 611.7444,-208.0535 620.4318,-214.1182 622.3177,-207.377"/>
</g>
<!-- Node7120 -->
<g id="node22" class="node">
<title>Node7120</title>
<g id="a_node22"><a xlink:href="../../d4/d91/_n_f_type_check_8h.html#a4a3b0301021e037659f39c7c7e418873" target="_top" xlink:title="boxptr_NFTypeCheck\l_checkOverloadedBinaryArrayEW">
<polygon fill="#ffffff" stroke="#000000" points="681,-137 681,-167 846,-167 846,-137 681,-137"/>
<text text-anchor="start" x="689" y="-155" font-family="Helvetica,sans-Serif" font-size="10.00" fill="#000000">boxptr_NFTypeCheck</text>
<text text-anchor="middle" x="763.5" y="-144" font-family="Helvetica,sans-Serif" font-size="10.00" fill="#000000">_checkOverloadedBinaryArrayEW</text>
</a>
</g>
</g>
<!-- Node7119&#45;&gt;Node7120 -->
<g id="edge28" class="edge">
<title>Node7119&#45;&gt;Node7120</title>
<path fill="none" stroke="#191970" d="M652.1222,-147.8363C661.7503,-148.1963 671.4258,-148.558 680.8362,-148.9098"/>
<polygon fill="#191970" stroke="#191970" points="652.2427,-144.3385 642.1189,-147.4624 651.9811,-151.3336 652.2427,-144.3385"/>
</g>
<!-- Node7122 -->
<g id="node24" class="node">
<title>Node7122</title>
<g id="a_node24"><a xlink:href="../../d4/d91/_n_f_type_check_8h.html#ab54ceab937f82ed5aeaa1bd9870c2a64" target="_top" xlink:title="boxptr_NFTypeCheck\l_checkOverloadedBinaryArray\lAddSub">
<polygon fill="#ffffff" stroke="#000000" points="689,-76.5 689,-117.5 838,-117.5 838,-76.5 689,-76.5"/>
<text text-anchor="start" x="697" y="-105.5" font-family="Helvetica,sans-Serif" font-size="10.00" fill="#000000">boxptr_NFTypeCheck</text>
<text text-anchor="start" x="697" y="-94.5" font-family="Helvetica,sans-Serif" font-size="10.00" fill="#000000">_checkOverloadedBinaryArray</text>
<text text-anchor="middle" x="763.5" y="-83.5" font-family="Helvetica,sans-Serif" font-size="10.00" fill="#000000">AddSub</text>
</a>
</g>
</g>
<!-- Node7121&#45;&gt;Node7122 -->
<g id="edge30" class="edge">
<title>Node7121&#45;&gt;Node7122</title>
<path fill="none" stroke="#191970" d="M652.3942,-95.9616C664.6639,-96.0763 677.0057,-96.1916 688.7729,-96.3016"/>
<polygon fill="#191970" stroke="#191970" points="652.1512,-92.4593 642.1189,-95.8656 652.0857,-99.459 652.1512,-92.4593"/>
</g>
<!-- Node7124 -->
<g id="node26" class="node">
<title>Node7124</title>
<g id="a_node26"><a xlink:href="../../db/d98/_n_f_typing_8h.html#ac13b1e658611632372d5529ac2830946" target="_top" xlink:title="boxptr_NFTyping_typeEquation">
<polygon fill="#ffffff" stroke="#000000" points="686.5,-38.5 686.5,-57.5 840.5,-57.5 840.5,-38.5 686.5,-38.5"/>
<text text-anchor="middle" x="763.5" y="-45.5" font-family="Helvetica,sans-Serif" font-size="10.00" fill="#000000">boxptr_NFTyping_typeEquation</text>
</a>
</g>
</g>
<!-- Node7123&#45;&gt;Node7124 -->
<g id="edge32" class="edge">
<title>Node7123&#45;&gt;Node7124</title>
<path fill="none" stroke="#191970" d="M632.8148,-48.6107C650.4557,-48.5282 669.0009,-48.4416 686.3994,-48.3603"/>
<polygon fill="#191970" stroke="#191970" points="632.5316,-45.1119 622.5481,-48.6587 632.5644,-52.1118 632.5316,-45.1119"/>
</g>
<!-- Node7126 -->
<g id="node28" class="node">
<title>Node7126</title>
<g id="a_node28"><a xlink:href="../../db/d98/_n_f_typing_8h.html#a38ab406c133222358e352c7096245b81" target="_top" xlink:title="boxptr_NFTyping_typeRange">
<polygon fill="#ffffff" stroke="#000000" points="691.5,-.5 691.5,-19.5 835.5,-19.5 835.5,-.5 691.5,-.5"/>
<text text-anchor="middle" x="763.5" y="-7.5" font-family="Helvetica,sans-Serif" font-size="10.00" fill="#000000">boxptr_NFTyping_typeRange</text>
</a>
</g>
</g>
<!-- Node7125&#45;&gt;Node7126 -->
<g id="edge34" class="edge">
<title>Node7125&#45;&gt;Node7126</title>
<path fill="none" stroke="#191970" d="M627.5755,-10.6352C648.3788,-10.5379 670.7592,-10.4334 691.2359,-10.3377"/>
<polygon fill="#191970" stroke="#191970" points="627.4885,-7.1354 617.505,-10.6822 627.5213,-14.1354 627.4885,-7.1354"/>
</g>
</g>
</svg>
