<?xml version="1.0" encoding="UTF-8" standalone="no"?>
<!DOCTYPE svg PUBLIC "-//W3C//DTD SVG 1.1//EN"
 "http://www.w3.org/Graphics/SVG/1.1/DTD/svg11.dtd">
<!-- Generated by graphviz version 2.40.1 (20161225.0304)
 -->
<!-- Title: omc_NFEnvExtends_qualifyExtends2 Pages: 1 -->
<svg width="2116pt" height="347pt"
 viewBox="0.00 0.00 2116.00 346.50" xmlns="http://www.w3.org/2000/svg" xmlns:xlink="http://www.w3.org/1999/xlink">
<g id="graph0" class="graph" transform="scale(1 1) rotate(0) translate(4 342.5)">
<title>omc_NFEnvExtends_qualifyExtends2</title>
<polygon fill="#ffffff" stroke="transparent" points="-4,4 -4,-342.5 2112,-342.5 2112,4 -4,4"/>
<!-- Node735 -->
<g id="node1" class="node">
<title>Node735</title>
<polygon fill="#bfbfbf" stroke="#000000" points="0,-210 0,-240 141,-240 141,-210 0,-210"/>
<text text-anchor="start" x="8" y="-228" font-family="Helvetica,sans-Serif" font-size="10.00" fill="#000000">omc_NFEnvExtends_qualify</text>
<text text-anchor="middle" x="70.5" y="-217" font-family="Helvetica,sans-Serif" font-size="10.00" fill="#000000">Extends2</text>
</g>
<!-- Node736 -->
<g id="node2" class="node">
<title>Node736</title>
<g id="a_node2"><a xlink:href="../../d1/d2f/_n_f_env_extends_8c.html#afb921cc167ae06b91327c294dc4d3174" target="_top" xlink:title="omc_NFEnvExtends_lookupQualified\lExtends">
<polygon fill="#ffffff" stroke="#000000" points="177,-308 177,-338 356,-338 356,-308 177,-308"/>
<text text-anchor="start" x="185" y="-326" font-family="Helvetica,sans-Serif" font-size="10.00" fill="#000000">omc_NFEnvExtends_lookupQualified</text>
<text text-anchor="middle" x="266.5" y="-315" font-family="Helvetica,sans-Serif" font-size="10.00" fill="#000000">Extends</text>
</a>
</g>
</g>
<!-- Node735&#45;&gt;Node736 -->
<g id="edge1" class="edge">
<title>Node735&#45;&gt;Node736</title>
<path fill="none" stroke="#191970" d="M88.1641,-240.1723C108.384,-256.8199 143.1002,-283.2628 177,-299 181.3319,-301.011 185.8626,-302.8783 190.4879,-304.6082"/>
<polygon fill="#191970" stroke="#191970" points="189.4865,-307.9659 200.0813,-307.9682 191.8004,-301.3594 189.4865,-307.9659"/>
</g>
<!-- Node738 -->
<g id="node4" class="node">
<title>Node738</title>
<g id="a_node4"><a xlink:href="../../d1/d2f/_n_f_env_extends_8c.html#a790d55852801f04ed6e8d86cc640fe1a" target="_top" xlink:title="omc_NFEnvExtends_addUnqualified\lToTable">
<polygon fill="#ffffff" stroke="#000000" points="178,-259 178,-289 355,-289 355,-259 178,-259"/>
<text text-anchor="start" x="186" y="-277" font-family="Helvetica,sans-Serif" font-size="10.00" fill="#000000">omc_NFEnvExtends_addUnqualified</text>
<text text-anchor="middle" x="266.5" y="-266" font-family="Helvetica,sans-Serif" font-size="10.00" fill="#000000">ToTable</text>
</a>
</g>
</g>
<!-- Node735&#45;&gt;Node738 -->
<g id="edge3" class="edge">
<title>Node735&#45;&gt;Node738</title>
<path fill="none" stroke="#191970" d="M130.6385,-240.0346C151.5215,-245.2554 175.1149,-251.1537 196.7105,-256.5526"/>
<polygon fill="#191970" stroke="#191970" points="195.9249,-259.9639 206.4753,-258.9938 197.6227,-253.1729 195.9249,-259.9639"/>
</g>
<!-- Node739 -->
<g id="node5" class="node">
<title>Node739</title>
<g id="a_node5"><a xlink:href="../../da/db6/_n_f_s_code_env_8c.html#a52332136ab5ad3d50b8dec13990c7de4" target="_top" xlink:title="omc_NFSCodeEnv_removeExtend\lFromLocalScope">
<polygon fill="#ffffff" stroke="#000000" points="181.5,-210 181.5,-240 351.5,-240 351.5,-210 181.5,-210"/>
<text text-anchor="start" x="189.5" y="-228" font-family="Helvetica,sans-Serif" font-size="10.00" fill="#000000">omc_NFSCodeEnv_removeExtend</text>
<text text-anchor="middle" x="266.5" y="-217" font-family="Helvetica,sans-Serif" font-size="10.00" fill="#000000">FromLocalScope</text>
</a>
</g>
</g>
<!-- Node735&#45;&gt;Node739 -->
<g id="edge4" class="edge">
<title>Node735&#45;&gt;Node739</title>
<path fill="none" stroke="#191970" d="M141.2605,-225C151.0469,-225 161.2271,-225 171.3662,-225"/>
<polygon fill="#191970" stroke="#191970" points="171.4757,-228.5001 181.4757,-225 171.4756,-221.5001 171.4757,-228.5001"/>
</g>
<!-- Node742 -->
<g id="node8" class="node">
<title>Node742</title>
<g id="a_node8"><a xlink:href="../../d1/d2f/_n_f_env_extends_8c.html#afd7bc17a1ca445d52b6adbe204025f32" target="_top" xlink:title="omc_NFEnvExtends_qualify\lExtends3">
<polygon fill="#ffffff" stroke="#000000" points="196,-161 196,-191 337,-191 337,-161 196,-161"/>
<text text-anchor="start" x="204" y="-179" font-family="Helvetica,sans-Serif" font-size="10.00" fill="#000000">omc_NFEnvExtends_qualify</text>
<text text-anchor="middle" x="266.5" y="-168" font-family="Helvetica,sans-Serif" font-size="10.00" fill="#000000">Extends3</text>
</a>
</g>
</g>
<!-- Node735&#45;&gt;Node742 -->
<g id="edge7" class="edge">
<title>Node735&#45;&gt;Node742</title>
<path fill="none" stroke="#191970" d="M130.6385,-209.9654C151.5215,-204.7446 175.1149,-198.8463 196.7105,-193.4474"/>
<polygon fill="#191970" stroke="#191970" points="197.6227,-196.8271 206.4753,-191.0062 195.9249,-190.0361 197.6227,-196.8271"/>
</g>
<!-- Node767 -->
<g id="node33" class="node">
<title>Node767</title>
<g id="a_node33"><a xlink:href="../../da/d72/_compiler_2boot_2build_2list_8c.html#af417a53ce428576bddd0834fd510e09c" target="_top" xlink:title="omc_List_map2__0">
<polygon fill="#ffffff" stroke="#000000" points="438,-110.5 438,-129.5 539,-129.5 539,-110.5 438,-110.5"/>
<text text-anchor="middle" x="488.5" y="-117.5" font-family="Helvetica,sans-Serif" font-size="10.00" fill="#000000">omc_List_map2__0</text>
</a>
</g>
</g>
<!-- Node735&#45;&gt;Node767 -->
<g id="edge36" class="edge">
<title>Node735&#45;&gt;Node767</title>
<path fill="none" stroke="#191970" d="M86.6703,-209.7299C106.3212,-192.1959 141.2991,-164.1623 177,-151 259.96,-120.414 363.2847,-116.1835 427.5835,-117.163"/>
<polygon fill="#191970" stroke="#191970" points="427.8806,-120.6695 437.949,-117.3713 428.0214,-113.671 427.8806,-120.6695"/>
</g>
<!-- Node737 -->
<g id="node3" class="node">
<title>Node737</title>
<g id="a_node3"><a xlink:href="../../d1/d2f/_n_f_env_extends_8c.html#a18f5a61c5e7dfaaa7dec089762b258ba" target="_top" xlink:title="omc_NFEnvExtends_lookupQualified\lExtends2">
<polygon fill="#ffffff" stroke="#000000" points="399,-308 399,-338 578,-338 578,-308 399,-308"/>
<text text-anchor="start" x="407" y="-326" font-family="Helvetica,sans-Serif" font-size="10.00" fill="#000000">omc_NFEnvExtends_lookupQualified</text>
<text text-anchor="middle" x="488.5" y="-315" font-family="Helvetica,sans-Serif" font-size="10.00" fill="#000000">Extends2</text>
</a>
</g>
</g>
<!-- Node736&#45;&gt;Node737 -->
<g id="edge2" class="edge">
<title>Node736&#45;&gt;Node737</title>
<path fill="none" stroke="#191970" d="M356.156,-323C366.8257,-323 377.7688,-323 388.5706,-323"/>
<polygon fill="#191970" stroke="#191970" points="388.8703,-326.5001 398.8702,-323 388.8702,-319.5001 388.8703,-326.5001"/>
</g>
<!-- Node740 -->
<g id="node6" class="node">
<title>Node740</title>
<g id="a_node6"><a xlink:href="../../da/d72/_compiler_2boot_2build_2list_8c.html#a9144dd3e1cd6c7828502d53370096bd8" target="_top" xlink:title="omc_List_deleteMemberOnTrue">
<polygon fill="#ffffff" stroke="#000000" points="411,-264.5 411,-283.5 566,-283.5 566,-264.5 411,-264.5"/>
<text text-anchor="middle" x="488.5" y="-271.5" font-family="Helvetica,sans-Serif" font-size="10.00" fill="#000000">omc_List_deleteMemberOnTrue</text>
</a>
</g>
</g>
<!-- Node739&#45;&gt;Node740 -->
<g id="edge5" class="edge">
<title>Node739&#45;&gt;Node740</title>
<path fill="none" stroke="#191970" d="M334.616,-240.0346C367.0229,-247.1875 405.1926,-255.6123 435.4097,-262.2819"/>
<polygon fill="#191970" stroke="#191970" points="434.8132,-265.7344 445.3325,-264.472 436.322,-258.8989 434.8132,-265.7344"/>
</g>
<!-- Node741 -->
<g id="node7" class="node">
<title>Node741</title>
<g id="a_node7"><a xlink:href="../../da/d72/_compiler_2boot_2build_2list_8c.html#a56541974efce2621174e32890b60c03a" target="_top" xlink:title="omc_List_append__reverse">
<polygon fill="#ffffff" stroke="#000000" points="651.5,-301.5 651.5,-320.5 787.5,-320.5 787.5,-301.5 651.5,-301.5"/>
<text text-anchor="middle" x="719.5" y="-308.5" font-family="Helvetica,sans-Serif" font-size="10.00" fill="#000000">omc_List_append__reverse</text>
</a>
</g>
</g>
<!-- Node740&#45;&gt;Node741 -->
<g id="edge6" class="edge">
<title>Node740&#45;&gt;Node741</title>
<path fill="none" stroke="#191970" d="M547.9882,-283.5284C579.1229,-288.5154 617.4224,-294.6499 649.9256,-299.856"/>
<polygon fill="#191970" stroke="#191970" points="649.3846,-303.3139 659.8123,-301.4396 650.4918,-296.402 649.3846,-303.3139"/>
</g>
<!-- Node743 -->
<g id="node9" class="node">
<title>Node743</title>
<g id="a_node9"><a xlink:href="../../d1/d2f/_n_f_env_extends_8c.html#a9de4f4a8569878bd9bf59c55e72e276a" target="_top" xlink:title="omc_NFEnvExtends_qualify\lExtendsPart">
<polygon fill="#ffffff" stroke="#000000" points="418,-152 418,-182 559,-182 559,-152 418,-152"/>
<text text-anchor="start" x="426" y="-170" font-family="Helvetica,sans-Serif" font-size="10.00" fill="#000000">omc_NFEnvExtends_qualify</text>
<text text-anchor="middle" x="488.5" y="-159" font-family="Helvetica,sans-Serif" font-size="10.00" fill="#000000">ExtendsPart</text>
</a>
</g>
</g>
<!-- Node742&#45;&gt;Node743 -->
<g id="edge8" class="edge">
<title>Node742&#45;&gt;Node743</title>
<path fill="none" stroke="#191970" d="M337.0472,-173.14C359.4983,-172.2298 384.5071,-171.2159 407.6289,-170.2786"/>
<polygon fill="#191970" stroke="#191970" points="407.9054,-173.7703 417.7554,-169.868 407.6218,-166.7761 407.9054,-173.7703"/>
</g>
<!-- Node762 -->
<g id="node28" class="node">
<title>Node762</title>
<g id="a_node28"><a xlink:href="../../d1/d2f/_n_f_env_extends_8c.html#a4c3994c44e8818188c9e81f5aa49737a" target="_top" xlink:title="omc_NFEnvExtends_makeExtendsPath">
<polygon fill="#ffffff" stroke="#000000" points="392,-216.5 392,-235.5 585,-235.5 585,-216.5 392,-216.5"/>
<text text-anchor="middle" x="488.5" y="-223.5" font-family="Helvetica,sans-Serif" font-size="10.00" fill="#000000">omc_NFEnvExtends_makeExtendsPath</text>
</a>
</g>
</g>
<!-- Node742&#45;&gt;Node762 -->
<g id="edge31" class="edge">
<title>Node742&#45;&gt;Node762</title>
<path fill="none" stroke="#191970" d="M333.1073,-191.0016C366.0395,-198.4188 405.2135,-207.2418 435.9897,-214.1734"/>
<polygon fill="#191970" stroke="#191970" points="435.5591,-217.664 446.0838,-216.4468 437.0972,-210.835 435.5591,-217.664"/>
</g>
<!-- Node744 -->
<g id="node10" class="node">
<title>Node744</title>
<g id="a_node10"><a xlink:href="../../d1/d2f/_n_f_env_extends_8c.html#a5567ac35badee9b0f2acd885a332c377" target="_top" xlink:title="omc_NFEnvExtends_lookupSimpleName">
<polygon fill="#ffffff" stroke="#000000" points="621,-149.5 621,-168.5 818,-168.5 818,-149.5 621,-149.5"/>
<text text-anchor="middle" x="719.5" y="-156.5" font-family="Helvetica,sans-Serif" font-size="10.00" fill="#000000">omc_NFEnvExtends_lookupSimpleName</text>
</a>
</g>
</g>
<!-- Node743&#45;&gt;Node744 -->
<g id="edge9" class="edge">
<title>Node743&#45;&gt;Node744</title>
<path fill="none" stroke="#191970" d="M559.0628,-164.5563C575.3671,-163.9916 593.0867,-163.3779 610.6032,-162.7713"/>
<polygon fill="#191970" stroke="#191970" points="611.008,-166.2595 620.8809,-162.4154 610.7657,-159.2637 611.008,-166.2595"/>
</g>
<!-- Node745 -->
<g id="node11" class="node">
<title>Node745</title>
<g id="a_node11"><a xlink:href="../../d1/d2f/_n_f_env_extends_8c.html#a96038e1fc5d94dae0a6ec656f4f18162" target="_top" xlink:title="omc_NFEnvExtends_lookupIn\lLocalScope">
<polygon fill="#ffffff" stroke="#000000" points="860,-144 860,-174 1009,-174 1009,-144 860,-144"/>
<text text-anchor="start" x="868" y="-162" font-family="Helvetica,sans-Serif" font-size="10.00" fill="#000000">omc_NFEnvExtends_lookupIn</text>
<text text-anchor="middle" x="934.5" y="-151" font-family="Helvetica,sans-Serif" font-size="10.00" fill="#000000">LocalScope</text>
</a>
</g>
</g>
<!-- Node744&#45;&gt;Node745 -->
<g id="edge10" class="edge">
<title>Node744&#45;&gt;Node745</title>
<path fill="none" stroke="#191970" d="M818.1904,-159C828.7051,-159 839.333,-159 849.668,-159"/>
<polygon fill="#191970" stroke="#191970" points="849.8904,-162.5001 859.8903,-159 849.8903,-155.5001 849.8904,-162.5001"/>
</g>
<!-- Node760 -->
<g id="node26" class="node">
<title>Node760</title>
<g id="a_node26"><a xlink:href="../../d9/d84/_n_f_s_code_lookup_8c.html#ad371715c44695ad71d05c30e4511f19c" target="_top" xlink:title="omc_NFSCodeLookup_frameNot\lEncapsulated">
<polygon fill="#ffffff" stroke="#000000" points="854,-193 854,-223 1015,-223 1015,-193 854,-193"/>
<text text-anchor="start" x="862" y="-211" font-family="Helvetica,sans-Serif" font-size="10.00" fill="#000000">omc_NFSCodeLookup_frameNot</text>
<text text-anchor="middle" x="934.5" y="-200" font-family="Helvetica,sans-Serif" font-size="10.00" fill="#000000">Encapsulated</text>
</a>
</g>
</g>
<!-- Node744&#45;&gt;Node760 -->
<g id="edge29" class="edge">
<title>Node744&#45;&gt;Node760</title>
<path fill="none" stroke="#191970" d="M772.0215,-168.5111C786.9213,-171.3772 803.1327,-174.6552 818,-178 834.5366,-181.7204 852.2966,-186.0969 868.8425,-190.3396"/>
<polygon fill="#191970" stroke="#191970" points="868.4081,-193.8424 878.9659,-192.957 870.1604,-187.0652 868.4081,-193.8424"/>
</g>
<!-- Node761 -->
<g id="node27" class="node">
<title>Node761</title>
<g id="a_node27"><a xlink:href="../../d1/dd1/3rd_party_2gc_2include_2gc_8h.html#acacfa47efcc44a29f7bb7d98f2a000f8" target="_top" xlink:title="void">
<polygon fill="#ffffff" stroke="#000000" points="917,-105.5 917,-124.5 952,-124.5 952,-105.5 917,-105.5"/>
<text text-anchor="middle" x="934.5" y="-112.5" font-family="Helvetica,sans-Serif" font-size="10.00" fill="#000000">void</text>
</a>
</g>
</g>
<!-- Node744&#45;&gt;Node761 -->
<g id="edge30" class="edge">
<title>Node744&#45;&gt;Node761</title>
<path fill="none" stroke="#191970" d="M766.1518,-149.4527C809.0187,-140.6799 871.1333,-127.9681 906.6985,-120.6896"/>
<polygon fill="#191970" stroke="#191970" points="907.7377,-124.0496 916.8329,-118.6156 906.3342,-117.1917 907.7377,-124.0496"/>
</g>
<!-- Node746 -->
<g id="node12" class="node">
<title>Node746</title>
<g id="a_node12"><a xlink:href="../../d9/d84/_n_f_s_code_lookup_8c.html#a46bb2f4230fd0819a11441e73ee3fb93" target="_top" xlink:title="omc_NFSCodeLookup_lookup\lInClass">
<polygon fill="#ffffff" stroke="#000000" points="1051,-144 1051,-174 1200,-174 1200,-144 1051,-144"/>
<text text-anchor="start" x="1059" y="-162" font-family="Helvetica,sans-Serif" font-size="10.00" fill="#000000">omc_NFSCodeLookup_lookup</text>
<text text-anchor="middle" x="1125.5" y="-151" font-family="Helvetica,sans-Serif" font-size="10.00" fill="#000000">InClass</text>
</a>
</g>
</g>
<!-- Node745&#45;&gt;Node746 -->
<g id="edge11" class="edge">
<title>Node745&#45;&gt;Node746</title>
<path fill="none" stroke="#191970" d="M1009.1662,-159C1019.5531,-159 1030.2856,-159 1040.8392,-159"/>
<polygon fill="#191970" stroke="#191970" points="1040.8857,-162.5001 1050.8857,-159 1040.8856,-155.5001 1040.8857,-162.5001"/>
</g>
<!-- Node747 -->
<g id="node13" class="node">
<title>Node747</title>
<g id="a_node13"><a xlink:href="../../da/db6/_n_f_s_code_env_8c.html#a9efe19b6d2206ee8e57203750a59f565" target="_top" xlink:title="omc_NFSCodeEnv_EnvTree_get">
<polygon fill="#ffffff" stroke="#000000" points="1431,-193.5 1431,-212.5 1593,-212.5 1593,-193.5 1431,-193.5"/>
<text text-anchor="middle" x="1512" y="-200.5" font-family="Helvetica,sans-Serif" font-size="10.00" fill="#000000">omc_NFSCodeEnv_EnvTree_get</text>
</a>
</g>
</g>
<!-- Node746&#45;&gt;Node747 -->
<g id="edge12" class="edge">
<title>Node746&#45;&gt;Node747</title>
<path fill="none" stroke="#191970" d="M1187.1689,-174.0085C1203.0036,-177.4167 1220.0669,-180.7042 1236,-183 1297.2008,-191.8184 1366.626,-196.8251 1420.5366,-199.6238"/>
<polygon fill="#191970" stroke="#191970" points="1420.5972,-203.1312 1430.7603,-200.1378 1420.9487,-196.14 1420.5972,-203.1312"/>
</g>
<!-- Node749 -->
<g id="node15" class="node">
<title>Node749</title>
<g id="a_node15"><a xlink:href="../../d9/d84/_n_f_s_code_lookup_8c.html#a76c1a67707b6e4eff8bbe9e5c3208118" target="_top" xlink:title="omc_NFSCodeLookup_resolve\lAlias">
<polygon fill="#ffffff" stroke="#000000" points="1236,-144 1236,-174 1388,-174 1388,-144 1236,-144"/>
<text text-anchor="start" x="1244" y="-162" font-family="Helvetica,sans-Serif" font-size="10.00" fill="#000000">omc_NFSCodeLookup_resolve</text>
<text text-anchor="middle" x="1312" y="-151" font-family="Helvetica,sans-Serif" font-size="10.00" fill="#000000">Alias</text>
</a>
</g>
</g>
<!-- Node746&#45;&gt;Node749 -->
<g id="edge14" class="edge">
<title>Node746&#45;&gt;Node749</title>
<path fill="none" stroke="#191970" d="M1200.0138,-159C1208.473,-159 1217.1468,-159 1225.7409,-159"/>
<polygon fill="#191970" stroke="#191970" points="1225.7756,-162.5001 1235.7755,-159 1225.7755,-155.5001 1225.7756,-162.5001"/>
</g>
<!-- Node748 -->
<g id="node14" class="node">
<title>Node748</title>
<g id="a_node14"><a xlink:href="../../da/db6/_n_f_s_code_env_8c.html#a444fbc877977ec8996bd6315a71a5b05" target="_top" xlink:title="omc_NFSCodeEnv_EnvTree\l_keyCompare">
<polygon fill="#ffffff" stroke="#000000" points="1642.5,-192 1642.5,-222 1785.5,-222 1785.5,-192 1642.5,-192"/>
<text text-anchor="start" x="1650.5" y="-210" font-family="Helvetica,sans-Serif" font-size="10.00" fill="#000000">omc_NFSCodeEnv_EnvTree</text>
<text text-anchor="middle" x="1714" y="-199" font-family="Helvetica,sans-Serif" font-size="10.00" fill="#000000">_keyCompare</text>
</a>
</g>
</g>
<!-- Node747&#45;&gt;Node748 -->
<g id="edge13" class="edge">
<title>Node747&#45;&gt;Node748</title>
<path fill="none" stroke="#191970" d="M1593.288,-204.6097C1606.0907,-204.8632 1619.333,-205.1254 1632.1485,-205.3792"/>
<polygon fill="#191970" stroke="#191970" points="1632.2507,-208.8818 1642.3181,-205.5806 1632.3894,-201.8832 1632.2507,-208.8818"/>
</g>
<!-- Node749&#45;&gt;Node747 -->
<g id="edge15" class="edge">
<title>Node749&#45;&gt;Node747</title>
<path fill="none" stroke="#191970" d="M1380.2693,-174.0192C1405.9144,-179.6612 1434.6656,-185.9864 1458.7488,-191.2847"/>
<polygon fill="#191970" stroke="#191970" points="1458.2432,-194.7571 1468.7617,-193.4876 1459.7473,-187.9206 1458.2432,-194.7571"/>
</g>
<!-- Node750 -->
<g id="node16" class="node">
<title>Node750</title>
<g id="a_node16"><a xlink:href="../../da/db6/_n_f_s_code_env_8c.html#a5d6e78fd21df14670b8707f85b564b26" target="_top" xlink:title="omc_NFSCodeEnv_getEnvTop\lScope">
<polygon fill="#ffffff" stroke="#000000" points="1637,-143 1637,-173 1791,-173 1791,-143 1637,-143"/>
<text text-anchor="start" x="1645" y="-161" font-family="Helvetica,sans-Serif" font-size="10.00" fill="#000000">omc_NFSCodeEnv_getEnvTop</text>
<text text-anchor="middle" x="1714" y="-150" font-family="Helvetica,sans-Serif" font-size="10.00" fill="#000000">Scope</text>
</a>
</g>
</g>
<!-- Node749&#45;&gt;Node750 -->
<g id="edge16" class="edge">
<title>Node749&#45;&gt;Node750</title>
<path fill="none" stroke="#191970" d="M1388.0857,-158.8107C1455.9927,-158.6418 1555.4148,-158.3945 1626.5711,-158.2175"/>
<polygon fill="#191970" stroke="#191970" points="1626.8662,-161.7169 1636.8574,-158.1919 1626.8487,-154.7169 1626.8662,-161.7169"/>
</g>
<!-- Node752 -->
<g id="node18" class="node">
<title>Node752</title>
<g id="a_node18"><a xlink:href="../../da/db6/_n_f_s_code_env_8c.html#ad80594920fb0caacdc3c08005bdd4ad7" target="_top" xlink:title="omc_NFSCodeEnv_enterScopePath">
<polygon fill="#ffffff" stroke="#000000" points="1424,-114.5 1424,-133.5 1600,-133.5 1600,-114.5 1424,-114.5"/>
<text text-anchor="middle" x="1512" y="-121.5" font-family="Helvetica,sans-Serif" font-size="10.00" fill="#000000">omc_NFSCodeEnv_enterScopePath</text>
</a>
</g>
</g>
<!-- Node749&#45;&gt;Node752 -->
<g id="edge18" class="edge">
<title>Node749&#45;&gt;Node752</title>
<path fill="none" stroke="#191970" d="M1388.182,-145.6682C1407.7388,-142.2457 1428.586,-138.5975 1447.4892,-135.2894"/>
<polygon fill="#191970" stroke="#191970" points="1448.2271,-138.7135 1457.474,-133.542 1447.0204,-131.8183 1448.2271,-138.7135"/>
</g>
<!-- Node751 -->
<g id="node17" class="node">
<title>Node751</title>
<g id="a_node17"><a xlink:href="../../d2/d57/build_2include_2omc_2c_2meta_2meta__modelica__builtin_8h.html#a81001ba45c298ade27540edd2589777c" target="_top" xlink:title="listReverse">
<polygon fill="#ffffff" stroke="#000000" points="2031.5,-152.5 2031.5,-171.5 2097.5,-171.5 2097.5,-152.5 2031.5,-152.5"/>
<text text-anchor="middle" x="2064.5" y="-159.5" font-family="Helvetica,sans-Serif" font-size="10.00" fill="#000000">listReverse</text>
</a>
</g>
</g>
<!-- Node750&#45;&gt;Node751 -->
<g id="edge17" class="edge">
<title>Node750&#45;&gt;Node751</title>
<path fill="none" stroke="#191970" d="M1791.3526,-158.8828C1861.9531,-159.6885 1963.7635,-160.8504 2021.0594,-161.5042"/>
<polygon fill="#191970" stroke="#191970" points="2021.1829,-165.0058 2031.2222,-161.6202 2021.2628,-158.0062 2021.1829,-165.0058"/>
</g>
<!-- Node752&#45;&gt;Node750 -->
<g id="edge28" class="edge">
<title>Node752&#45;&gt;Node750</title>
<path fill="none" stroke="#191970" d="M1568.5369,-133.5161C1586.6092,-136.558 1607.0545,-139.9993 1626.7846,-143.3202"/>
<polygon fill="#191970" stroke="#191970" points="1626.2664,-146.7821 1636.7086,-144.9906 1627.4283,-139.8792 1626.2664,-146.7821"/>
</g>
<!-- Node753 -->
<g id="node19" class="node">
<title>Node753</title>
<g id="a_node19"><a xlink:href="../../da/db6/_n_f_s_code_env_8c.html#a78244dfadbeaa355485ae20a96695f62" target="_top" xlink:title="omc_NFSCodeEnv_enterScope">
<polygon fill="#ffffff" stroke="#000000" points="1636,-76.5 1636,-95.5 1792,-95.5 1792,-76.5 1636,-76.5"/>
<text text-anchor="middle" x="1714" y="-83.5" font-family="Helvetica,sans-Serif" font-size="10.00" fill="#000000">omc_NFSCodeEnv_enterScope</text>
</a>
</g>
</g>
<!-- Node752&#45;&gt;Node753 -->
<g id="edge19" class="edge">
<title>Node752&#45;&gt;Node753</title>
<path fill="none" stroke="#191970" d="M1562.7124,-114.46C1590.2069,-109.2878 1624.3765,-102.8599 1653.2817,-97.4222"/>
<polygon fill="#191970" stroke="#191970" points="1654.0862,-100.8324 1663.2667,-95.5439 1652.792,-93.9531 1654.0862,-100.8324"/>
</g>
<!-- Node753&#45;&gt;Node746 -->
<g id="edge20" class="edge">
<title>Node753&#45;&gt;Node746</title>
<path fill="none" stroke="#191970" d="M1635.9868,-89.2552C1577.5169,-92.1449 1495.5955,-97.1479 1424,-105 1339.9601,-114.2169 1319.0577,-118.218 1236,-134 1223.8023,-136.3177 1210.9013,-139.0125 1198.3856,-141.7574"/>
<polygon fill="#191970" stroke="#191970" points="1197.4551,-138.3787 1188.4516,-143.9634 1198.9726,-145.2123 1197.4551,-138.3787"/>
</g>
<!-- Node754 -->
<g id="node20" class="node">
<title>Node754</title>
<g id="a_node20"><a xlink:href="../../da/db6/_n_f_s_code_env_8c.html#a027e82f7338fe121f6f79ed0f3aa17d6" target="_top" xlink:title="omc_NFSCodeEnv_getItemEnv">
<polygon fill="#ffffff" stroke="#000000" points="1828,-76.5 1828,-95.5 1985,-95.5 1985,-76.5 1828,-76.5"/>
<text text-anchor="middle" x="1906.5" y="-83.5" font-family="Helvetica,sans-Serif" font-size="10.00" fill="#000000">omc_NFSCodeEnv_getItemEnv</text>
</a>
</g>
</g>
<!-- Node753&#45;&gt;Node754 -->
<g id="edge21" class="edge">
<title>Node753&#45;&gt;Node754</title>
<path fill="none" stroke="#191970" d="M1792.0196,-86C1800.4842,-86 1809.1441,-86 1817.7242,-86"/>
<polygon fill="#191970" stroke="#191970" points="1817.7435,-89.5001 1827.7435,-86 1817.7435,-82.5001 1817.7435,-89.5001"/>
</g>
<!-- Node755 -->
<g id="node21" class="node">
<title>Node755</title>
<g id="a_node21"><a xlink:href="../../da/db6/_n_f_s_code_env_8c.html#a9ab508f8104d46a6a75cc1daeb0d78f3" target="_top" xlink:title="omc_NFSCodeEnv_enterFrame">
<polygon fill="#ffffff" stroke="#000000" points="1828.5,-38.5 1828.5,-57.5 1984.5,-57.5 1984.5,-38.5 1828.5,-38.5"/>
<text text-anchor="middle" x="1906.5" y="-45.5" font-family="Helvetica,sans-Serif" font-size="10.00" fill="#000000">omc_NFSCodeEnv_enterFrame</text>
</a>
</g>
</g>
<!-- Node753&#45;&gt;Node755 -->
<g id="edge22" class="edge">
<title>Node753&#45;&gt;Node755</title>
<path fill="none" stroke="#191970" d="M1762.5759,-76.411C1788.6649,-71.261 1821.0058,-64.8768 1848.4179,-59.4656"/>
<polygon fill="#191970" stroke="#191970" points="1849.1406,-62.8905 1858.2734,-57.5201 1847.7849,-56.023 1849.1406,-62.8905"/>
</g>
<!-- Node756 -->
<g id="node22" class="node">
<title>Node756</title>
<g id="a_node22"><a xlink:href="../../d7/deb/build_2include_2omc_2c_2util_2modelica__string_8c.html#a751007abc59e9ca7978f2af10a0c814f" target="_top" xlink:title="stringAppend">
<polygon fill="#ffffff" stroke="#000000" points="1869.5,-.5 1869.5,-19.5 1943.5,-19.5 1943.5,-.5 1869.5,-.5"/>
<text text-anchor="middle" x="1906.5" y="-7.5" font-family="Helvetica,sans-Serif" font-size="10.00" fill="#000000">stringAppend</text>
</a>
</g>
</g>
<!-- Node753&#45;&gt;Node756 -->
<g id="edge23" class="edge">
<title>Node753&#45;&gt;Node756</title>
<path fill="none" stroke="#191970" d="M1730.0936,-76.4859C1751.7134,-64.0516 1791.6316,-42.2986 1828,-29 1837.9798,-25.3508 1848.9299,-22.1971 1859.4014,-19.5654"/>
<polygon fill="#191970" stroke="#191970" points="1860.3398,-22.9396 1869.2472,-17.203 1858.7065,-16.1328 1860.3398,-22.9396"/>
</g>
<!-- Node757 -->
<g id="node23" class="node">
<title>Node757</title>
<g id="a_node23"><a xlink:href="../../da/db6/_n_f_s_code_env_8c.html#a570d61e560075adfed60c1bc4a2bf743" target="_top" xlink:title="omc_NFSCodeEnv_printEnvStr">
<polygon fill="#ffffff" stroke="#000000" points="1829,-114.5 1829,-133.5 1984,-133.5 1984,-114.5 1829,-114.5"/>
<text text-anchor="middle" x="1906.5" y="-121.5" font-family="Helvetica,sans-Serif" font-size="10.00" fill="#000000">omc_NFSCodeEnv_printEnvStr</text>
</a>
</g>
</g>
<!-- Node753&#45;&gt;Node757 -->
<g id="edge24" class="edge">
<title>Node753&#45;&gt;Node757</title>
<path fill="none" stroke="#191970" d="M1762.5759,-95.589C1788.6649,-100.739 1821.0058,-107.1232 1848.4179,-112.5344"/>
<polygon fill="#191970" stroke="#191970" points="1847.7849,-115.977 1858.2734,-114.4799 1849.1406,-109.1095 1847.7849,-115.977"/>
</g>
<!-- Node757&#45;&gt;Node751 -->
<g id="edge25" class="edge">
<title>Node757&#45;&gt;Node751</title>
<path fill="none" stroke="#191970" d="M1946.3701,-133.589C1969.225,-139.0858 1997.9256,-145.9884 2021.3138,-151.6135"/>
<polygon fill="#191970" stroke="#191970" points="2020.7706,-155.0825 2031.3118,-154.018 2022.4075,-148.2766 2020.7706,-155.0825"/>
</g>
<!-- Node758 -->
<g id="node24" class="node">
<title>Node758</title>
<g id="a_node24"><a xlink:href="../../d2/d57/build_2include_2omc_2c_2meta_2meta__modelica__builtin_8h.html#a6f570947bebe207c25a64ea25f5ca884" target="_top" xlink:title="stringDelimitList">
<polygon fill="#ffffff" stroke="#000000" points="2021,-76.5 2021,-95.5 2108,-95.5 2108,-76.5 2021,-76.5"/>
<text text-anchor="middle" x="2064.5" y="-83.5" font-family="Helvetica,sans-Serif" font-size="10.00" fill="#000000">stringDelimitList</text>
</a>
</g>
</g>
<!-- Node757&#45;&gt;Node758 -->
<g id="edge26" class="edge">
<title>Node757&#45;&gt;Node758</title>
<path fill="none" stroke="#191970" d="M1946.3701,-114.411C1967.2199,-109.3965 1992.9346,-103.2119 2015.0429,-97.8947"/>
<polygon fill="#191970" stroke="#191970" points="2016.0123,-101.2615 2024.9166,-95.5201 2014.3754,-94.4555 2016.0123,-101.2615"/>
</g>
<!-- Node759 -->
<g id="node25" class="node">
<title>Node759</title>
<g id="a_node25"><a xlink:href="../../da/d72/_compiler_2boot_2build_2list_8c.html#a70628b2c3fb199a118f80777135940ee" target="_top" xlink:title="omc_List_map">
<polygon fill="#ffffff" stroke="#000000" points="2024.5,-114.5 2024.5,-133.5 2104.5,-133.5 2104.5,-114.5 2024.5,-114.5"/>
<text text-anchor="middle" x="2064.5" y="-121.5" font-family="Helvetica,sans-Serif" font-size="10.00" fill="#000000">omc_List_map</text>
</a>
</g>
</g>
<!-- Node757&#45;&gt;Node759 -->
<g id="edge27" class="edge">
<title>Node757&#45;&gt;Node759</title>
<path fill="none" stroke="#191970" d="M1984.1114,-124C1994.3129,-124 2004.5453,-124 2014.1279,-124"/>
<polygon fill="#191970" stroke="#191970" points="2014.2387,-127.5001 2024.2387,-124 2014.2387,-120.5001 2014.2387,-127.5001"/>
</g>
<!-- Node763 -->
<g id="node29" class="node">
<title>Node763</title>
<g id="a_node29"><a xlink:href="../../da/db6/_n_f_s_code_env_8c.html#a3b012f5abbf3bc97cafeb52278cc35f3" target="_top" xlink:title="omc_NFSCodeEnv_getEnvPath">
<polygon fill="#ffffff" stroke="#000000" points="640.5,-263.5 640.5,-282.5 798.5,-282.5 798.5,-263.5 640.5,-263.5"/>
<text text-anchor="middle" x="719.5" y="-270.5" font-family="Helvetica,sans-Serif" font-size="10.00" fill="#000000">omc_NFSCodeEnv_getEnvPath</text>
</a>
</g>
</g>
<!-- Node762&#45;&gt;Node763 -->
<g id="edge32" class="edge">
<title>Node762&#45;&gt;Node763</title>
<path fill="none" stroke="#191970" d="M532.6262,-235.529C558.3766,-241.0387 591.5016,-248.0387 621,-254 633.325,-256.4908 646.5327,-259.0879 659.1448,-261.5332"/>
<polygon fill="#191970" stroke="#191970" points="658.6213,-264.9967 669.1036,-263.4568 659.9489,-258.1237 658.6213,-264.9967"/>
</g>
<!-- Node764 -->
<g id="node30" class="node">
<title>Node764</title>
<g id="a_node30"><a xlink:href="../../d0/d78/_absyn_8c.html#a1a5882d345a6d673a6f6f0800ccd1079" target="_top" xlink:title="omc_Absyn_joinPathsOptSuffix">
<polygon fill="#ffffff" stroke="#000000" points="642,-225.5 642,-244.5 797,-244.5 797,-225.5 642,-225.5"/>
<text text-anchor="middle" x="719.5" y="-232.5" font-family="Helvetica,sans-Serif" font-size="10.00" fill="#000000">omc_Absyn_joinPathsOptSuffix</text>
</a>
</g>
</g>
<!-- Node762&#45;&gt;Node764 -->
<g id="edge33" class="edge">
<title>Node762&#45;&gt;Node764</title>
<path fill="none" stroke="#191970" d="M585.1263,-229.7647C600.4954,-230.3635 616.3228,-230.9801 631.4799,-231.5706"/>
<polygon fill="#191970" stroke="#191970" points="631.7236,-235.0827 641.8523,-231.9748 631.9962,-228.088 631.7236,-235.0827"/>
</g>
<!-- Node766 -->
<g id="node32" class="node">
<title>Node766</title>
<g id="a_node32"><a xlink:href="../../d0/d78/_absyn_8c.html#a4539f220116ead9c47c94ea3ea75a518" target="_top" xlink:title="omc_Absyn_makeFullyQualified">
<polygon fill="#ffffff" stroke="#000000" points="641,-187.5 641,-206.5 798,-206.5 798,-187.5 641,-187.5"/>
<text text-anchor="middle" x="719.5" y="-194.5" font-family="Helvetica,sans-Serif" font-size="10.00" fill="#000000">omc_Absyn_makeFullyQualified</text>
</a>
</g>
</g>
<!-- Node762&#45;&gt;Node766 -->
<g id="edge35" class="edge">
<title>Node762&#45;&gt;Node766</title>
<path fill="none" stroke="#191970" d="M564.458,-216.4641C586.5658,-213.6887 610.8717,-210.6373 633.5485,-207.7904"/>
<polygon fill="#191970" stroke="#191970" points="634.0103,-211.26 643.4964,-206.5416 633.1383,-204.3146 634.0103,-211.26"/>
</g>
<!-- Node765 -->
<g id="node31" class="node">
<title>Node765</title>
<g id="a_node31"><a xlink:href="../../d0/d78/_absyn_8c.html#aa2092bcad05f556016d6ebe8c04e7ce1" target="_top" xlink:title="omc_Absyn_joinPaths">
<polygon fill="#ffffff" stroke="#000000" points="877.5,-242.5 877.5,-261.5 991.5,-261.5 991.5,-242.5 877.5,-242.5"/>
<text text-anchor="middle" x="934.5" y="-249.5" font-family="Helvetica,sans-Serif" font-size="10.00" fill="#000000">omc_Absyn_joinPaths</text>
</a>
</g>
</g>
<!-- Node764&#45;&gt;Node765 -->
<g id="edge34" class="edge">
<title>Node764&#45;&gt;Node765</title>
<path fill="none" stroke="#191970" d="M797.1199,-241.1374C820.0674,-242.9518 844.9881,-244.9223 867.2254,-246.6806"/>
<polygon fill="#191970" stroke="#191970" points="866.9921,-250.173 877.2369,-247.4722 867.544,-243.1948 866.9921,-250.173"/>
</g>
<!-- Node767&#45;&gt;Node761 -->
<g id="edge37" class="edge">
<title>Node767&#45;&gt;Node761</title>
<path fill="none" stroke="#191970" d="M539.2276,-119.4313C633.4772,-118.3747 832.6993,-116.1413 906.3538,-115.3155"/>
<polygon fill="#191970" stroke="#191970" points="906.7129,-118.8118 916.673,-115.1999 906.6344,-111.8123 906.7129,-118.8118"/>
</g>
</g>
</svg>
