<?xml version="1.0" encoding="UTF-8" standalone="no"?>
<!DOCTYPE svg PUBLIC "-//W3C//DTD SVG 1.1//EN"
 "http://www.w3.org/Graphics/SVG/1.1/DTD/svg11.dtd">
<!-- Generated by graphviz version 2.40.1 (20161225.0304)
 -->
<!-- Title: omc_NFEnvExtends_makeExtendsPath Pages: 1 -->
<svg width="545pt" height="104pt"
 viewBox="0.00 0.00 545.00 104.00" xmlns="http://www.w3.org/2000/svg" xmlns:xlink="http://www.w3.org/1999/xlink">
<g id="graph0" class="graph" transform="scale(1 1) rotate(0) translate(4 100)">
<title>omc_NFEnvExtends_makeExtendsPath</title>
<polygon fill="#ffffff" stroke="transparent" points="-4,4 -4,-100 541,-100 541,4 -4,4"/>
<!-- Node411 -->
<g id="node1" class="node">
<title>Node411</title>
<polygon fill="#bfbfbf" stroke="#000000" points="0,-38.5 0,-57.5 193,-57.5 193,-38.5 0,-38.5"/>
<text text-anchor="middle" x="96.5" y="-45.5" font-family="Helvetica,sans-Serif" font-size="10.00" fill="#000000">omc_NFEnvExtends_makeExtendsPath</text>
</g>
<!-- Node412 -->
<g id="node2" class="node">
<title>Node412</title>
<g id="a_node2"><a xlink:href="../../da/db6/_n_f_s_code_env_8c.html#a3b012f5abbf3bc97cafeb52278cc35f3" target="_top" xlink:title="omc_NFSCodeEnv_getEnvPath">
<polygon fill="#ffffff" stroke="#000000" points="229,-76.5 229,-95.5 387,-95.5 387,-76.5 229,-76.5"/>
<text text-anchor="middle" x="308" y="-83.5" font-family="Helvetica,sans-Serif" font-size="10.00" fill="#000000">omc_NFSCodeEnv_getEnvPath</text>
</a>
</g>
</g>
<!-- Node411&#45;&gt;Node412 -->
<g id="edge1" class="edge">
<title>Node411&#45;&gt;Node412</title>
<path fill="none" stroke="#191970" d="M149.5974,-57.54C178.5107,-62.7348 214.4741,-69.1963 244.8223,-74.6489"/>
<polygon fill="#191970" stroke="#191970" points="244.4194,-78.1325 254.8808,-76.4561 245.6573,-71.2428 244.4194,-78.1325"/>
</g>
<!-- Node413 -->
<g id="node3" class="node">
<title>Node413</title>
<g id="a_node3"><a xlink:href="../../d0/d78/_absyn_8c.html#a1a5882d345a6d673a6f6f0800ccd1079" target="_top" xlink:title="omc_Absyn_joinPathsOptSuffix">
<polygon fill="#ffffff" stroke="#000000" points="230.5,-38.5 230.5,-57.5 385.5,-57.5 385.5,-38.5 230.5,-38.5"/>
<text text-anchor="middle" x="308" y="-45.5" font-family="Helvetica,sans-Serif" font-size="10.00" fill="#000000">omc_Absyn_joinPathsOptSuffix</text>
</a>
</g>
</g>
<!-- Node411&#45;&gt;Node413 -->
<g id="edge2" class="edge">
<title>Node411&#45;&gt;Node413</title>
<path fill="none" stroke="#191970" d="M193.275,-48C202.1874,-48 211.1854,-48 220.0134,-48"/>
<polygon fill="#191970" stroke="#191970" points="220.2834,-51.5001 230.2833,-48 220.2833,-44.5001 220.2834,-51.5001"/>
</g>
<!-- Node415 -->
<g id="node5" class="node">
<title>Node415</title>
<g id="a_node5"><a xlink:href="../../d0/d78/_absyn_8c.html#a4539f220116ead9c47c94ea3ea75a518" target="_top" xlink:title="omc_Absyn_makeFullyQualified">
<polygon fill="#ffffff" stroke="#000000" points="229.5,-.5 229.5,-19.5 386.5,-19.5 386.5,-.5 229.5,-.5"/>
<text text-anchor="middle" x="308" y="-7.5" font-family="Helvetica,sans-Serif" font-size="10.00" fill="#000000">omc_Absyn_makeFullyQualified</text>
</a>
</g>
</g>
<!-- Node411&#45;&gt;Node415 -->
<g id="edge4" class="edge">
<title>Node411&#45;&gt;Node415</title>
<path fill="none" stroke="#191970" d="M149.5974,-38.46C178.5107,-33.2652 214.4741,-26.8037 244.8223,-21.3511"/>
<polygon fill="#191970" stroke="#191970" points="245.6573,-24.7572 254.8808,-19.5439 244.4194,-17.8675 245.6573,-24.7572"/>
</g>
<!-- Node414 -->
<g id="node4" class="node">
<title>Node414</title>
<g id="a_node4"><a xlink:href="../../d0/d78/_absyn_8c.html#aa2092bcad05f556016d6ebe8c04e7ce1" target="_top" xlink:title="omc_Absyn_joinPaths">
<polygon fill="#ffffff" stroke="#000000" points="423,-38.5 423,-57.5 537,-57.5 537,-38.5 423,-38.5"/>
<text text-anchor="middle" x="480" y="-45.5" font-family="Helvetica,sans-Serif" font-size="10.00" fill="#000000">omc_Absyn_joinPaths</text>
</a>
</g>
</g>
<!-- Node413&#45;&gt;Node414 -->
<g id="edge3" class="edge">
<title>Node413&#45;&gt;Node414</title>
<path fill="none" stroke="#191970" d="M385.6971,-48C394.7193,-48 403.8646,-48 412.7307,-48"/>
<polygon fill="#191970" stroke="#191970" points="412.9864,-51.5001 422.9864,-48 412.9864,-44.5001 412.9864,-51.5001"/>
</g>
</g>
</svg>
