<?xml version="1.0" encoding="UTF-8" standalone="no"?>
<!DOCTYPE svg PUBLIC "-//W3C//DTD SVG 1.1//EN"
 "http://www.w3.org/Graphics/SVG/1.1/DTD/svg11.dtd">
<!-- Generated by graphviz version 2.40.1 (20161225.0304)
 -->
<!-- Title: omc_NFEnvExtends_qualifyExtendsList Pages: 1 -->
<svg width="2725pt" height="313pt"
 viewBox="0.00 0.00 2725.00 312.50" xmlns="http://www.w3.org/2000/svg" xmlns:xlink="http://www.w3.org/1999/xlink">
<g id="graph0" class="graph" transform="scale(1 1) rotate(0) translate(4 308.5)">
<title>omc_NFEnvExtends_qualifyExtendsList</title>
<polygon fill="#ffffff" stroke="transparent" points="-4,4 -4,-308.5 2721,-308.5 2721,4 -4,4"/>
<!-- Node803 -->
<g id="node1" class="node">
<title>Node803</title>
<polygon fill="#bfbfbf" stroke="#000000" points="0,-185.5 0,-215.5 141,-215.5 141,-185.5 0,-185.5"/>
<text text-anchor="start" x="8" y="-203.5" font-family="Helvetica,sans-Serif" font-size="10.00" fill="#000000">omc_NFEnvExtends_qualify</text>
<text text-anchor="middle" x="70.5" y="-192.5" font-family="Helvetica,sans-Serif" font-size="10.00" fill="#000000">ExtendsList</text>
</g>
<!-- Node804 -->
<g id="node2" class="node">
<title>Node804</title>
<g id="a_node2"><a xlink:href="../../d1/d2f/_n_f_env_extends_8c.html#affb3c76e710ab26fa7527b76aeb5a758" target="_top" xlink:title="omc_NFEnvExtends_qualify\lLocalScope">
<polygon fill="#ffffff" stroke="#000000" points="177,-185.5 177,-215.5 318,-215.5 318,-185.5 177,-185.5"/>
<text text-anchor="start" x="185" y="-203.5" font-family="Helvetica,sans-Serif" font-size="10.00" fill="#000000">omc_NFEnvExtends_qualify</text>
<text text-anchor="middle" x="247.5" y="-192.5" font-family="Helvetica,sans-Serif" font-size="10.00" fill="#000000">LocalScope</text>
</a>
</g>
</g>
<!-- Node803&#45;&gt;Node804 -->
<g id="edge1" class="edge">
<title>Node803&#45;&gt;Node804</title>
<path fill="none" stroke="#191970" d="M151.4937,-200.5C159.9728,-200.5 168.5444,-200.5 176.8942,-200.5"/>
<polygon fill="#191970" stroke="#191970" points="151.2182,-197.0001 141.2182,-200.5 151.2181,-204.0001 151.2182,-197.0001"/>
</g>
<!-- Node805 -->
<g id="node3" class="node">
<title>Node805</title>
<g id="a_node3"><a xlink:href="../../d1/d2f/_n_f_env_extends_8c.html#a2ee549120b104fde7a52da21f425808d" target="_top" xlink:title="omc_NFEnvExtends_qualify2">
<polygon fill="#ffffff" stroke="#000000" points="354,-191 354,-210 500,-210 500,-191 354,-191"/>
<text text-anchor="middle" x="427" y="-198" font-family="Helvetica,sans-Serif" font-size="10.00" fill="#000000">omc_NFEnvExtends_qualify2</text>
</a>
</g>
</g>
<!-- Node804&#45;&gt;Node805 -->
<g id="edge2" class="edge">
<title>Node804&#45;&gt;Node805</title>
<path fill="none" stroke="#191970" d="M328.4025,-200.5C336.838,-200.5 345.3789,-200.5 353.723,-200.5"/>
<polygon fill="#191970" stroke="#191970" points="328.1855,-197.0001 318.1855,-200.5 328.1855,-204.0001 328.1855,-197.0001"/>
</g>
<!-- Node806 -->
<g id="node4" class="node">
<title>Node806</title>
<g id="a_node4"><a xlink:href="../../d1/d2f/_n_f_env_extends_8c.html#a84f36a8e974c6b0f48ba389142492f70" target="_top" xlink:title="omc_NFEnvExtends_qualify3">
<polygon fill="#ffffff" stroke="#000000" points="536,-210 536,-229 682,-229 682,-210 536,-210"/>
<text text-anchor="middle" x="609" y="-217" font-family="Helvetica,sans-Serif" font-size="10.00" fill="#000000">omc_NFEnvExtends_qualify3</text>
</a>
</g>
</g>
<!-- Node805&#45;&gt;Node806 -->
<g id="edge3" class="edge">
<title>Node805&#45;&gt;Node806</title>
<path fill="none" stroke="#191970" d="M510.2365,-209.1895C518.8043,-210.084 527.4644,-210.988 535.9103,-211.8698"/>
<polygon fill="#191970" stroke="#191970" points="510.549,-205.7032 500.2397,-208.1459 509.8222,-212.6654 510.549,-205.7032"/>
</g>
<!-- Node807 -->
<g id="node5" class="node">
<title>Node807</title>
<g id="a_node5"><a xlink:href="../../df/d5f/_n_f_env_extends_8h.html#af38b0de0f0deb0201c08b9f5e5d6cbc2" target="_top" xlink:title="omc_NFEnvExtends_qualify">
<polygon fill="#ffffff" stroke="#000000" points="538.5,-172 538.5,-191 679.5,-191 679.5,-172 538.5,-172"/>
<text text-anchor="middle" x="609" y="-179" font-family="Helvetica,sans-Serif" font-size="10.00" fill="#000000">omc_NFEnvExtends_qualify</text>
</a>
</g>
</g>
<!-- Node805&#45;&gt;Node807 -->
<g id="edge4" class="edge">
<title>Node805&#45;&gt;Node807</title>
<path fill="none" stroke="#191970" d="M510.3164,-191.8021C519.6595,-190.8268 529.1113,-189.84 538.2743,-188.8835"/>
<polygon fill="#191970" stroke="#191970" points="509.8222,-188.3346 500.2397,-192.8541 510.549,-195.2968 509.8222,-188.3346"/>
</g>
<!-- Node808 -->
<g id="node6" class="node">
<title>Node808</title>
<g id="a_node6"><a xlink:href="../../df/d5f/_n_f_env_extends_8h.html#a192085218a156ad3b43d1b09f5a59e09" target="_top" xlink:title="omc_NFEnvExtends_update">
<polygon fill="#ffffff" stroke="#000000" points="718,-172 718,-191 860,-191 860,-172 718,-172"/>
<text text-anchor="middle" x="789" y="-179" font-family="Helvetica,sans-Serif" font-size="10.00" fill="#000000">omc_NFEnvExtends_update</text>
</a>
</g>
</g>
<!-- Node807&#45;&gt;Node808 -->
<g id="edge5" class="edge">
<title>Node807&#45;&gt;Node808</title>
<path fill="none" stroke="#191970" d="M689.7633,-181.5C699.1747,-181.5 708.7222,-181.5 717.9884,-181.5"/>
<polygon fill="#191970" stroke="#191970" points="689.6242,-178.0001 679.6241,-181.5 689.6241,-185.0001 689.6242,-178.0001"/>
</g>
<!-- Node809 -->
<g id="node7" class="node">
<title>Node809</title>
<g id="a_node7"><a xlink:href="../../d2/dfb/_n_f_s_code_flatten_8h.html#a274cd1016898b87d381be2b2bc07c030" target="_top" xlink:title="omc_NFSCodeFlatten\l_flattenCompleteProgram">
<polygon fill="#ffffff" stroke="#000000" points="896,-201.5 896,-231.5 1024,-231.5 1024,-201.5 896,-201.5"/>
<text text-anchor="start" x="904" y="-219.5" font-family="Helvetica,sans-Serif" font-size="10.00" fill="#000000">omc_NFSCodeFlatten</text>
<text text-anchor="middle" x="960" y="-208.5" font-family="Helvetica,sans-Serif" font-size="10.00" fill="#000000">_flattenCompleteProgram</text>
</a>
</g>
</g>
<!-- Node808&#45;&gt;Node809 -->
<g id="edge6" class="edge">
<title>Node808&#45;&gt;Node809</title>
<path fill="none" stroke="#191970" d="M845.9648,-193.1595C861.9141,-196.4239 879.3598,-199.9947 895.7025,-203.3397"/>
<polygon fill="#191970" stroke="#191970" points="846.2252,-189.6403 835.7265,-191.0639 844.8215,-196.4981 846.2252,-189.6403"/>
</g>
<!-- Node829 -->
<g id="node27" class="node">
<title>Node829</title>
<g id="a_node27"><a xlink:href="../../d2/dfb/_n_f_s_code_flatten_8h.html#a14db34e85c0d1c5aa9075b2a7d83fae5" target="_top" xlink:title="omc_NFSCodeFlatten\l_flattenClassInProgram">
<polygon fill="#ffffff" stroke="#000000" points="900.5,-142.5 900.5,-172.5 1019.5,-172.5 1019.5,-142.5 900.5,-142.5"/>
<text text-anchor="start" x="908.5" y="-160.5" font-family="Helvetica,sans-Serif" font-size="10.00" fill="#000000">omc_NFSCodeFlatten</text>
<text text-anchor="middle" x="960" y="-149.5" font-family="Helvetica,sans-Serif" font-size="10.00" fill="#000000">_flattenClassInProgram</text>
</a>
</g>
</g>
<!-- Node808&#45;&gt;Node829 -->
<g id="edge27" class="edge">
<title>Node808&#45;&gt;Node829</title>
<path fill="none" stroke="#191970" d="M867.2507,-170.5174C878.4055,-168.9519 889.7261,-167.363 900.4457,-165.8585"/>
<polygon fill="#191970" stroke="#191970" points="866.4915,-167.0896 857.0751,-171.9456 867.4645,-174.0217 866.4915,-167.0896"/>
</g>
<!-- Node810 -->
<g id="node8" class="node">
<title>Node810</title>
<g id="a_node8"><a xlink:href="../../db/dd4/_inst_util_8c.html#a5ae900ebf3ef75952b8fac59c603c892" target="_top" xlink:title="omc_InstUtil_scodeFlatten\lProgram">
<polygon fill="#ffffff" stroke="#000000" points="1060,-211.5 1060,-241.5 1194,-241.5 1194,-211.5 1060,-211.5"/>
<text text-anchor="start" x="1068" y="-229.5" font-family="Helvetica,sans-Serif" font-size="10.00" fill="#000000">omc_InstUtil_scodeFlatten</text>
<text text-anchor="middle" x="1127" y="-218.5" font-family="Helvetica,sans-Serif" font-size="10.00" fill="#000000">Program</text>
</a>
</g>
</g>
<!-- Node809&#45;&gt;Node810 -->
<g id="edge7" class="edge">
<title>Node809&#45;&gt;Node810</title>
<path fill="none" stroke="#191970" d="M1034.3299,-220.9509C1042.797,-221.4579 1051.3913,-221.9725 1059.759,-222.4736"/>
<polygon fill="#191970" stroke="#191970" points="1034.2803,-217.4417 1024.089,-220.3377 1033.8618,-224.4292 1034.2803,-217.4417"/>
</g>
<!-- Node811 -->
<g id="node9" class="node">
<title>Node811</title>
<g id="a_node9"><a xlink:href="../../da/d17/_inst_util_8h.html#a53eea4ca4a7bba0d4d120d8c26d789c8" target="_top" xlink:title="omc_InstUtil_scodeFlatten">
<polygon fill="#ffffff" stroke="#000000" points="1232,-195 1232,-214 1366,-214 1366,-195 1232,-195"/>
<text text-anchor="middle" x="1299" y="-202" font-family="Helvetica,sans-Serif" font-size="10.00" fill="#000000">omc_InstUtil_scodeFlatten</text>
</a>
</g>
</g>
<!-- Node810&#45;&gt;Node811 -->
<g id="edge8" class="edge">
<title>Node810&#45;&gt;Node811</title>
<path fill="none" stroke="#191970" d="M1204.6964,-216.5621C1213.8073,-215.3967 1223.0437,-214.2153 1231.9914,-213.0709"/>
<polygon fill="#191970" stroke="#191970" points="1203.9604,-213.1276 1194.4853,-217.8682 1204.8486,-220.0711 1203.9604,-213.1276"/>
</g>
<!-- Node812 -->
<g id="node10" class="node">
<title>Node812</title>
<g id="a_node10"><a xlink:href="../../d4/d31/_f_inst_8c.html#af38c171a43a9fbdd262afe93f5228661" target="_top" xlink:title="omc_FInst_doSCodeDep">
<polygon fill="#ffffff" stroke="#000000" points="1407,-247 1407,-266 1534,-266 1534,-247 1407,-247"/>
<text text-anchor="middle" x="1470.5" y="-254" font-family="Helvetica,sans-Serif" font-size="10.00" fill="#000000">omc_FInst_doSCodeDep</text>
</a>
</g>
</g>
<!-- Node811&#45;&gt;Node812 -->
<g id="edge9" class="edge">
<title>Node811&#45;&gt;Node812</title>
<path fill="none" stroke="#191970" d="M1340.314,-217.0267C1370.6398,-226.2217 1411.2113,-238.5233 1438.9537,-246.935"/>
<polygon fill="#191970" stroke="#191970" points="1341.0411,-213.5899 1330.4557,-214.0376 1339.0099,-220.2887 1341.0411,-213.5899"/>
</g>
<!-- Node815 -->
<g id="node13" class="node">
<title>Node815</title>
<g id="a_node13"><a xlink:href="../../dd/d26/_inst_8c.html#ac45f1464d589ff01eb68b11f77cc869d" target="_top" xlink:title="omc_Inst_instantiateClass\l__dispatch">
<polygon fill="#ffffff" stroke="#000000" points="1404,-137.5 1404,-167.5 1537,-167.5 1537,-137.5 1404,-137.5"/>
<text text-anchor="start" x="1412" y="-155.5" font-family="Helvetica,sans-Serif" font-size="10.00" fill="#000000">omc_Inst_instantiateClass</text>
<text text-anchor="middle" x="1470.5" y="-144.5" font-family="Helvetica,sans-Serif" font-size="10.00" fill="#000000">__dispatch</text>
</a>
</g>
</g>
<!-- Node811&#45;&gt;Node815 -->
<g id="edge13" class="edge">
<title>Node811&#45;&gt;Node815</title>
<path fill="none" stroke="#191970" d="M1340.0625,-192.0496C1364.2896,-184.7037 1395.1214,-175.3553 1420.7259,-167.5918"/>
<polygon fill="#191970" stroke="#191970" points="1339.0099,-188.7113 1330.4557,-194.9624 1341.0411,-195.4101 1339.0099,-188.7113"/>
</g>
<!-- Node813 -->
<g id="node11" class="node">
<title>Node813</title>
<g id="a_node11"><a xlink:href="../../d4/d77/_f_inst_8h.html#aee89c3ecbf8906710dfe81b0b40b787c" target="_top" xlink:title="omc_FInst_instPath">
<polygon fill="#ffffff" stroke="#000000" points="1776,-285 1776,-304 1880,-304 1880,-285 1776,-285"/>
<text text-anchor="middle" x="1828" y="-292" font-family="Helvetica,sans-Serif" font-size="10.00" fill="#000000">omc_FInst_instPath</text>
</a>
</g>
</g>
<!-- Node812&#45;&gt;Node813 -->
<g id="edge10" class="edge">
<title>Node812&#45;&gt;Node813</title>
<path fill="none" stroke="#191970" d="M1526.2328,-267.9708C1541.355,-270.7711 1557.7608,-273.5258 1573,-275.5 1642.7807,-284.5398 1723.9037,-289.6692 1775.5747,-292.265"/>
<polygon fill="#191970" stroke="#191970" points="1526.4753,-264.4547 1515.9988,-266.0339 1525.1735,-271.3326 1526.4753,-264.4547"/>
</g>
<!-- Node814 -->
<g id="node12" class="node">
<title>Node814</title>
<g id="a_node12"><a xlink:href="../../d4/d77/_f_inst_8h.html#a46e92ca9947abf016abfa6398f0e0d50" target="_top" xlink:title="omc_FInst_inst">
<polygon fill="#ffffff" stroke="#000000" points="1601.5,-247 1601.5,-266 1685.5,-266 1685.5,-247 1601.5,-247"/>
<text text-anchor="middle" x="1643.5" y="-254" font-family="Helvetica,sans-Serif" font-size="10.00" fill="#000000">omc_FInst_inst</text>
</a>
</g>
</g>
<!-- Node812&#45;&gt;Node814 -->
<g id="edge11" class="edge">
<title>Node812&#45;&gt;Node814</title>
<path fill="none" stroke="#191970" d="M1544.4926,-256.5C1563.9313,-256.5 1584.2309,-256.5 1601.3523,-256.5"/>
<polygon fill="#191970" stroke="#191970" points="1544.4273,-253.0001 1534.4273,-256.5 1544.4273,-260.0001 1544.4273,-253.0001"/>
</g>
<!-- Node814&#45;&gt;Node813 -->
<g id="edge12" class="edge">
<title>Node814&#45;&gt;Node813</title>
<path fill="none" stroke="#191970" d="M1695.8814,-267.2886C1722.9011,-272.8536 1755.571,-279.5824 1781.6633,-284.9564"/>
<polygon fill="#191970" stroke="#191970" points="1696.3285,-263.8073 1685.828,-265.218 1694.9164,-270.6634 1696.3285,-263.8073"/>
</g>
<!-- Node816 -->
<g id="node14" class="node">
<title>Node816</title>
<g id="a_node14"><a xlink:href="../../d9/d5c/_inst_8h.html#ab4fe5b96b8d26cb2baedfddd9913767d" target="_top" xlink:title="omc_Inst_instantiateClass">
<polygon fill="#ffffff" stroke="#000000" points="1577,-143 1577,-162 1710,-162 1710,-143 1577,-143"/>
<text text-anchor="middle" x="1643.5" y="-150" font-family="Helvetica,sans-Serif" font-size="10.00" fill="#000000">omc_Inst_instantiateClass</text>
</a>
</g>
</g>
<!-- Node815&#45;&gt;Node816 -->
<g id="edge14" class="edge">
<title>Node815&#45;&gt;Node816</title>
<path fill="none" stroke="#191970" d="M1547.4896,-152.5C1557.2621,-152.5 1567.1984,-152.5 1576.7916,-152.5"/>
<polygon fill="#191970" stroke="#191970" points="1547.3864,-149.0001 1537.3863,-152.5 1547.3863,-156.0001 1547.3864,-149.0001"/>
</g>
<!-- Node828 -->
<g id="node26" class="node">
<title>Node828</title>
<g id="a_node26"><a xlink:href="../../dd/d26/_inst_8c.html#a8e415bea69ed2055657dee14e9237395" target="_top" xlink:title="boxptr_Inst_instantiateClass\l__dispatch">
<polygon fill="#ffffff" stroke="#000000" points="1573,-93.5 1573,-123.5 1714,-123.5 1714,-93.5 1573,-93.5"/>
<text text-anchor="start" x="1581" y="-111.5" font-family="Helvetica,sans-Serif" font-size="10.00" fill="#000000">boxptr_Inst_instantiateClass</text>
<text text-anchor="middle" x="1643.5" y="-100.5" font-family="Helvetica,sans-Serif" font-size="10.00" fill="#000000">__dispatch</text>
</a>
</g>
</g>
<!-- Node815&#45;&gt;Node828 -->
<g id="edge26" class="edge">
<title>Node815&#45;&gt;Node828</title>
<path fill="none" stroke="#191970" d="M1539.2497,-135.0145C1554.1977,-131.2127 1569.8847,-127.223 1584.4197,-123.5262"/>
<polygon fill="#191970" stroke="#191970" points="1538.3816,-131.6238 1529.5529,-137.4808 1540.1071,-138.4078 1538.3816,-131.6238"/>
</g>
<!-- Node817 -->
<g id="node15" class="node">
<title>Node817</title>
<g id="a_node15"><a xlink:href="../../d6/d82/_ceval_script_8c.html#a79d10e3cf8025831f31007156f94e496" target="_top" xlink:title="omc_CevalScript_getNonPartial\lElementsForInstantiatedClass">
<polygon fill="#ffffff" stroke="#000000" points="1750,-235.5 1750,-265.5 1906,-265.5 1906,-235.5 1750,-235.5"/>
<text text-anchor="start" x="1758" y="-253.5" font-family="Helvetica,sans-Serif" font-size="10.00" fill="#000000">omc_CevalScript_getNonPartial</text>
<text text-anchor="middle" x="1828" y="-242.5" font-family="Helvetica,sans-Serif" font-size="10.00" fill="#000000">ElementsForInstantiatedClass</text>
</a>
</g>
</g>
<!-- Node816&#45;&gt;Node817 -->
<g id="edge15" class="edge">
<title>Node816&#45;&gt;Node817</title>
<path fill="none" stroke="#191970" d="M1662.8892,-168.3746C1683.4555,-184.5732 1717.414,-209.5363 1750,-225.5 1757.5344,-229.191 1765.7389,-232.5087 1773.9045,-235.4289"/>
<polygon fill="#191970" stroke="#191970" points="1664.9352,-165.5293 1654.9381,-162.0207 1660.5652,-170.9977 1664.9352,-165.5293"/>
</g>
<!-- Node818 -->
<g id="node16" class="node">
<title>Node818</title>
<g id="a_node16"><a xlink:href="../../d8/de6/_ceval_script_backend_8c.html#ad462c200ba722743b0531ff077a790cd" target="_top" xlink:title="omc_CevalScriptBackend\l_dumpXMLDAEFrontEnd">
<polygon fill="#ffffff" stroke="#000000" points="1763,-186.5 1763,-216.5 1893,-216.5 1893,-186.5 1763,-186.5"/>
<text text-anchor="start" x="1771" y="-204.5" font-family="Helvetica,sans-Serif" font-size="10.00" fill="#000000">omc_CevalScriptBackend</text>
<text text-anchor="middle" x="1828" y="-193.5" font-family="Helvetica,sans-Serif" font-size="10.00" fill="#000000">_dumpXMLDAEFrontEnd</text>
</a>
</g>
</g>
<!-- Node816&#45;&gt;Node818 -->
<g id="edge16" class="edge">
<title>Node816&#45;&gt;Node818</title>
<path fill="none" stroke="#191970" d="M1689.3975,-164.6896C1714.2156,-171.2808 1745.0811,-179.4782 1771.3812,-186.463"/>
<polygon fill="#191970" stroke="#191970" points="1690.0748,-161.2482 1679.5114,-162.064 1688.278,-168.0137 1690.0748,-161.2482"/>
</g>
<!-- Node820 -->
<g id="node18" class="node">
<title>Node820</title>
<g id="a_node18"><a xlink:href="../../d6/dc9/_ceval_script_backend_8h.html#abf456455f1e67b98c1d62777f8e68c29" target="_top" xlink:title="omc_CevalScriptBackend\l_getIncidenceMatrix">
<polygon fill="#ffffff" stroke="#000000" points="1763,-137.5 1763,-167.5 1893,-167.5 1893,-137.5 1763,-137.5"/>
<text text-anchor="start" x="1771" y="-155.5" font-family="Helvetica,sans-Serif" font-size="10.00" fill="#000000">omc_CevalScriptBackend</text>
<text text-anchor="middle" x="1828" y="-144.5" font-family="Helvetica,sans-Serif" font-size="10.00" fill="#000000">_getIncidenceMatrix</text>
</a>
</g>
</g>
<!-- Node816&#45;&gt;Node820 -->
<g id="edge18" class="edge">
<title>Node816&#45;&gt;Node820</title>
<path fill="none" stroke="#191970" d="M1720.2754,-152.5C1734.3853,-152.5 1748.9924,-152.5 1762.725,-152.5"/>
<polygon fill="#191970" stroke="#191970" points="1720.1088,-149.0001 1710.1087,-152.5 1720.1087,-156.0001 1720.1088,-149.0001"/>
</g>
<!-- Node821 -->
<g id="node19" class="node">
<title>Node821</title>
<g id="a_node19"><a xlink:href="../../d9/d5c/_inst_8h.html#a7d027b193aba3673f6d9355a9d09e298" target="_top" xlink:title="boxptr_Inst_instantiateClass">
<polygon fill="#ffffff" stroke="#000000" points="1757.5,-99 1757.5,-118 1898.5,-118 1898.5,-99 1757.5,-99"/>
<text text-anchor="middle" x="1828" y="-106" font-family="Helvetica,sans-Serif" font-size="10.00" fill="#000000">boxptr_Inst_instantiateClass</text>
</a>
</g>
</g>
<!-- Node816&#45;&gt;Node821 -->
<g id="edge19" class="edge">
<title>Node816&#45;&gt;Node821</title>
<path fill="none" stroke="#191970" d="M1693.3001,-140.6236C1723.0204,-133.5358 1760.2583,-124.6552 1788.0444,-118.0287"/>
<polygon fill="#191970" stroke="#191970" points="1692.449,-137.2283 1683.5338,-142.9527 1694.0729,-144.0373 1692.449,-137.2283"/>
</g>
<!-- Node822 -->
<g id="node20" class="node">
<title>Node822</title>
<g id="a_node20"><a xlink:href="../../db/d73/_interactive_8c.html#a2eb5704b267b5af51c7e7668c07792f8" target="_top" xlink:title="omc_Interactive_buildEnv\lForGraphicProgramFull">
<polygon fill="#ffffff" stroke="#000000" points="1763.5,-49.5 1763.5,-79.5 1892.5,-79.5 1892.5,-49.5 1763.5,-49.5"/>
<text text-anchor="start" x="1771.5" y="-67.5" font-family="Helvetica,sans-Serif" font-size="10.00" fill="#000000">omc_Interactive_buildEnv</text>
<text text-anchor="middle" x="1828" y="-56.5" font-family="Helvetica,sans-Serif" font-size="10.00" fill="#000000">ForGraphicProgramFull</text>
</a>
</g>
</g>
<!-- Node816&#45;&gt;Node822 -->
<g id="edge20" class="edge">
<title>Node816&#45;&gt;Node822</title>
<path fill="none" stroke="#191970" d="M1701.1891,-139.3182C1705.6749,-137.3476 1710.0065,-135.0885 1714,-132.5 1734.9152,-118.9431 1729.3165,-103.4079 1750,-89.5 1755.6643,-85.6913 1761.9466,-82.4319 1768.4161,-79.6498"/>
<polygon fill="#191970" stroke="#191970" points="1699.8685,-136.0765 1691.8241,-142.9713 1702.4124,-142.5979 1699.8685,-136.0765"/>
</g>
<!-- Node827 -->
<g id="node25" class="node">
<title>Node827</title>
<g id="a_node25"><a xlink:href="../../d6/dd2/_uncertainties_8c.html#a730f8d3fc1b6ff9127e582f58a57604d" target="_top" xlink:title="omc_Uncertainties_flatten\lModel">
<polygon fill="#ffffff" stroke="#000000" points="1762.5,-.5 1762.5,-30.5 1893.5,-30.5 1893.5,-.5 1762.5,-.5"/>
<text text-anchor="start" x="1770.5" y="-18.5" font-family="Helvetica,sans-Serif" font-size="10.00" fill="#000000">omc_Uncertainties_flatten</text>
<text text-anchor="middle" x="1828" y="-7.5" font-family="Helvetica,sans-Serif" font-size="10.00" fill="#000000">Model</text>
</a>
</g>
</g>
<!-- Node816&#45;&gt;Node827 -->
<g id="edge25" class="edge">
<title>Node816&#45;&gt;Node827</title>
<path fill="none" stroke="#191970" d="M1706.468,-138.2066C1709.1456,-136.5112 1711.6769,-134.6167 1714,-132.5 1746.762,-102.6488 1717.5695,-69.711 1750,-39.5 1753.7321,-36.0233 1757.957,-33.0499 1762.4623,-30.5068"/>
<polygon fill="#191970" stroke="#191970" points="1704.6846,-135.1907 1697.4941,-142.9719 1707.9677,-141.3731 1704.6846,-135.1907"/>
</g>
<!-- Node819 -->
<g id="node17" class="node">
<title>Node819</title>
<g id="a_node17"><a xlink:href="../../d8/de6/_ceval_script_backend_8c.html#ae7439096bed9283f2ed3c60fbc0659bc" target="_top" xlink:title="omc_CevalScriptBackend\l_dumpXMLDAE">
<polygon fill="#ffffff" stroke="#000000" points="1942,-186.5 1942,-216.5 2072,-216.5 2072,-186.5 1942,-186.5"/>
<text text-anchor="start" x="1950" y="-204.5" font-family="Helvetica,sans-Serif" font-size="10.00" fill="#000000">omc_CevalScriptBackend</text>
<text text-anchor="middle" x="2007" y="-193.5" font-family="Helvetica,sans-Serif" font-size="10.00" fill="#000000">_dumpXMLDAE</text>
</a>
</g>
</g>
<!-- Node818&#45;&gt;Node819 -->
<g id="edge17" class="edge">
<title>Node818&#45;&gt;Node819</title>
<path fill="none" stroke="#191970" d="M1903.3147,-201.5C1916.1475,-201.5 1929.3795,-201.5 1941.919,-201.5"/>
<polygon fill="#191970" stroke="#191970" points="1903.1295,-198.0001 1893.1295,-201.5 1903.1294,-205.0001 1903.1295,-198.0001"/>
</g>
<!-- Node823 -->
<g id="node21" class="node">
<title>Node823</title>
<g id="a_node21"><a xlink:href="../../db/d73/_interactive_8c.html#ad74521ca7c175a41e77e8936a329fdf6" target="_top" xlink:title="omc_Interactive_buildEnv\lForGraphicProgram">
<polygon fill="#ffffff" stroke="#000000" points="1942.5,-49.5 1942.5,-79.5 2071.5,-79.5 2071.5,-49.5 1942.5,-49.5"/>
<text text-anchor="start" x="1950.5" y="-67.5" font-family="Helvetica,sans-Serif" font-size="10.00" fill="#000000">omc_Interactive_buildEnv</text>
<text text-anchor="middle" x="2007" y="-56.5" font-family="Helvetica,sans-Serif" font-size="10.00" fill="#000000">ForGraphicProgram</text>
</a>
</g>
</g>
<!-- Node822&#45;&gt;Node823 -->
<g id="edge21" class="edge">
<title>Node822&#45;&gt;Node823</title>
<path fill="none" stroke="#191970" d="M1902.6357,-64.5C1915.8687,-64.5 1929.5478,-64.5 1942.4717,-64.5"/>
<polygon fill="#191970" stroke="#191970" points="1902.6231,-61.0001 1892.6231,-64.5 1902.6231,-68.0001 1902.6231,-61.0001"/>
</g>
<!-- Node824 -->
<g id="node22" class="node">
<title>Node824</title>
<g id="a_node22"><a xlink:href="../../db/d73/_interactive_8c.html#a731ca6f6678745875c50c0c94de89173" target="_top" xlink:title="omc_Interactive_getComponentitems\lAnnotationsElArgs">
<polygon fill="#ffffff" stroke="#000000" points="2108,-49.5 2108,-79.5 2287,-79.5 2287,-49.5 2108,-49.5"/>
<text text-anchor="start" x="2116" y="-67.5" font-family="Helvetica,sans-Serif" font-size="10.00" fill="#000000">omc_Interactive_getComponentitems</text>
<text text-anchor="middle" x="2197.5" y="-56.5" font-family="Helvetica,sans-Serif" font-size="10.00" fill="#000000">AnnotationsElArgs</text>
</a>
</g>
</g>
<!-- Node823&#45;&gt;Node824 -->
<g id="edge22" class="edge">
<title>Node823&#45;&gt;Node824</title>
<path fill="none" stroke="#191970" d="M2082.0136,-64.5C2090.5272,-64.5 2099.267,-64.5 2107.9436,-64.5"/>
<polygon fill="#191970" stroke="#191970" points="2081.7605,-61.0001 2071.7604,-64.5 2081.7604,-68.0001 2081.7605,-61.0001"/>
</g>
<!-- Node825 -->
<g id="node23" class="node">
<title>Node825</title>
<g id="a_node23"><a xlink:href="../../db/d73/_interactive_8c.html#aa2f7438670a6c767167a808117be7c26" target="_top" xlink:title="omc_Interactive_getComponentitems\lAnnotationsFromItems">
<polygon fill="#ffffff" stroke="#000000" points="2323,-49.5 2323,-79.5 2502,-79.5 2502,-49.5 2323,-49.5"/>
<text text-anchor="start" x="2331" y="-67.5" font-family="Helvetica,sans-Serif" font-size="10.00" fill="#000000">omc_Interactive_getComponentitems</text>
<text text-anchor="middle" x="2412.5" y="-56.5" font-family="Helvetica,sans-Serif" font-size="10.00" fill="#000000">AnnotationsFromItems</text>
</a>
</g>
</g>
<!-- Node824&#45;&gt;Node825 -->
<g id="edge23" class="edge">
<title>Node824&#45;&gt;Node825</title>
<path fill="none" stroke="#191970" d="M2297.3737,-64.5C2305.8149,-64.5 2314.3193,-64.5 2322.677,-64.5"/>
<polygon fill="#191970" stroke="#191970" points="2297.1225,-61.0001 2287.1225,-64.5 2297.1225,-68.0001 2297.1225,-61.0001"/>
</g>
<!-- Node826 -->
<g id="node24" class="node">
<title>Node826</title>
<g id="a_node24"><a xlink:href="../../db/d73/_interactive_8c.html#ad39e08213abadf81636d051805a2d626" target="_top" xlink:title="omc_Interactive_getComponentitems\lAnnotations">
<polygon fill="#ffffff" stroke="#000000" points="2538,-49.5 2538,-79.5 2717,-79.5 2717,-49.5 2538,-49.5"/>
<text text-anchor="start" x="2546" y="-67.5" font-family="Helvetica,sans-Serif" font-size="10.00" fill="#000000">omc_Interactive_getComponentitems</text>
<text text-anchor="middle" x="2627.5" y="-56.5" font-family="Helvetica,sans-Serif" font-size="10.00" fill="#000000">Annotations</text>
</a>
</g>
</g>
<!-- Node825&#45;&gt;Node826 -->
<g id="edge24" class="edge">
<title>Node825&#45;&gt;Node826</title>
<path fill="none" stroke="#191970" d="M2512.3737,-64.5C2520.8149,-64.5 2529.3193,-64.5 2537.677,-64.5"/>
<polygon fill="#191970" stroke="#191970" points="2512.1225,-61.0001 2502.1225,-64.5 2512.1225,-68.0001 2512.1225,-61.0001"/>
</g>
<!-- Node829&#45;&gt;Node811 -->
<g id="edge30" class="edge">
<title>Node829&#45;&gt;Node811</title>
<path fill="none" stroke="#191970" d="M1029.8439,-167.1834C1089.0798,-175.396 1173.4967,-187.0998 1231.9288,-195.201"/>
<polygon fill="#191970" stroke="#191970" points="1030.212,-163.701 1019.826,-165.7945 1029.2506,-170.6347 1030.212,-163.701"/>
</g>
<!-- Node830 -->
<g id="node28" class="node">
<title>Node830</title>
<g id="a_node28"><a xlink:href="../../d8/de6/_ceval_script_backend_8c.html#ae10056fecdb5abd9b7d626e8b82f9255" target="_top" xlink:title="omc_CevalScriptBackend\l_saveTotalModel">
<polygon fill="#ffffff" stroke="#000000" points="1062,-123.5 1062,-153.5 1192,-153.5 1192,-123.5 1062,-123.5"/>
<text text-anchor="start" x="1070" y="-141.5" font-family="Helvetica,sans-Serif" font-size="10.00" fill="#000000">omc_CevalScriptBackend</text>
<text text-anchor="middle" x="1127" y="-130.5" font-family="Helvetica,sans-Serif" font-size="10.00" fill="#000000">_saveTotalModel</text>
</a>
</g>
</g>
<!-- Node829&#45;&gt;Node830 -->
<g id="edge28" class="edge">
<title>Node829&#45;&gt;Node830</title>
<path fill="none" stroke="#191970" d="M1029.8862,-149.5489C1040.507,-148.3405 1051.4298,-147.0978 1061.9422,-145.9018"/>
<polygon fill="#191970" stroke="#191970" points="1029.3594,-146.0861 1019.8191,-150.6942 1030.1507,-153.0413 1029.3594,-146.0861"/>
</g>
<!-- Node832 -->
<g id="node30" class="node">
<title>Node832</title>
<g id="a_node30"><a xlink:href="../../d2/dfb/_n_f_s_code_flatten_8h.html#a6da11d7be057f9be31c4fc3bd574ca59" target="_top" xlink:title="omc_NFSCodeFlatten\l_flattenProgram">
<polygon fill="#ffffff" stroke="#000000" points="1070,-74.5 1070,-104.5 1184,-104.5 1184,-74.5 1070,-74.5"/>
<text text-anchor="start" x="1078" y="-92.5" font-family="Helvetica,sans-Serif" font-size="10.00" fill="#000000">omc_NFSCodeFlatten</text>
<text text-anchor="middle" x="1127" y="-81.5" font-family="Helvetica,sans-Serif" font-size="10.00" fill="#000000">_flattenProgram</text>
</a>
</g>
</g>
<!-- Node829&#45;&gt;Node832 -->
<g id="edge31" class="edge">
<title>Node829&#45;&gt;Node832</title>
<path fill="none" stroke="#191970" d="M1002.1298,-138.1745C1019.8749,-130.2407 1040.8221,-121.143 1060,-113.5 1067.5753,-110.481 1075.698,-107.4235 1083.5821,-104.5479"/>
<polygon fill="#191970" stroke="#191970" points="1000.3169,-135.1521 992.6324,-142.4458 1003.1881,-141.5362 1000.3169,-135.1521"/>
</g>
<!-- Node831 -->
<g id="node29" class="node">
<title>Node831</title>
<g id="a_node29"><a xlink:href="../../d8/de6/_ceval_script_backend_8c.html#a4ca4f940e2681131be84734f71151d47" target="_top" xlink:title="boxptr_CevalScriptBackend\l_saveTotalModel">
<polygon fill="#ffffff" stroke="#000000" points="1230,-123.5 1230,-153.5 1368,-153.5 1368,-123.5 1230,-123.5"/>
<text text-anchor="start" x="1238" y="-141.5" font-family="Helvetica,sans-Serif" font-size="10.00" fill="#000000">boxptr_CevalScriptBackend</text>
<text text-anchor="middle" x="1299" y="-130.5" font-family="Helvetica,sans-Serif" font-size="10.00" fill="#000000">_saveTotalModel</text>
</a>
</g>
</g>
<!-- Node830&#45;&gt;Node831 -->
<g id="edge29" class="edge">
<title>Node830&#45;&gt;Node831</title>
<path fill="none" stroke="#191970" d="M1202.2863,-138.5C1211.4563,-138.5 1220.7914,-138.5 1229.8658,-138.5"/>
<polygon fill="#191970" stroke="#191970" points="1202.0259,-135.0001 1192.0258,-138.5 1202.0258,-142.0001 1202.0259,-135.0001"/>
</g>
</g>
</svg>
