<?xml version="1.0" encoding="UTF-8" standalone="no"?>
<!DOCTYPE svg PUBLIC "-//W3C//DTD SVG 1.1//EN"
 "http://www.w3.org/Graphics/SVG/1.1/DTD/svg11.dtd">
<!-- Generated by graphviz version 2.40.1 (20161225.0304)
 -->
<!-- Title: lis_matrix_shift_diagonal_csc Pages: 1 -->
<svg width="527pt" height="294pt"
 viewBox="0.00 0.00 527.00 294.00" xmlns="http://www.w3.org/2000/svg" xmlns:xlink="http://www.w3.org/1999/xlink">
<g id="graph0" class="graph" transform="scale(1 1) rotate(0) translate(4 290)">
<title>lis_matrix_shift_diagonal_csc</title>
<polygon fill="#ffffff" stroke="transparent" points="-4,4 -4,-290 523,-290 523,4 -4,4"/>
<!-- Node9514 -->
<g id="node1" class="node">
<title>Node9514</title>
<polygon fill="#bfbfbf" stroke="#000000" points="0,-133.5 0,-152.5 145,-152.5 145,-133.5 0,-133.5"/>
<text text-anchor="middle" x="72.5" y="-140.5" font-family="Helvetica,sans-Serif" font-size="10.00" fill="#000000">lis_matrix_shift_diagonal_csc</text>
</g>
<!-- Node9515 -->
<g id="node2" class="node">
<title>Node9515</title>
<g id="a_node2"><a xlink:href="../../d5/d58/lis__matrix__ops_8c.html#a86a5c4c1faa0e116bb02d36df879d8a9" target="_top" xlink:title="lis_matrix_shift_diagonal">
<polygon fill="#ffffff" stroke="#000000" points="181,-133.5 181,-152.5 305,-152.5 305,-133.5 181,-133.5"/>
<text text-anchor="middle" x="243" y="-140.5" font-family="Helvetica,sans-Serif" font-size="10.00" fill="#000000">lis_matrix_shift_diagonal</text>
</a>
</g>
</g>
<!-- Node9514&#45;&gt;Node9515 -->
<g id="edge1" class="edge">
<title>Node9514&#45;&gt;Node9515</title>
<path fill="none" stroke="#191970" d="M155.3631,-143C163.9642,-143 172.5979,-143 180.9133,-143"/>
<polygon fill="#191970" stroke="#191970" points="155.3019,-139.5001 145.3019,-143 155.3019,-146.5001 155.3019,-139.5001"/>
</g>
<!-- Node9516 -->
<g id="node3" class="node">
<title>Node9516</title>
<g id="a_node3"><a xlink:href="../../db/da0/lis__esolver_8c.html#a5e60d471f3154e65c367654ac21a7cde" target="_top" xlink:title="lis_esolve">
<polygon fill="#ffffff" stroke="#000000" points="348,-266.5 348,-285.5 408,-285.5 408,-266.5 348,-266.5"/>
<text text-anchor="middle" x="378" y="-273.5" font-family="Helvetica,sans-Serif" font-size="10.00" fill="#000000">lis_esolve</text>
</a>
</g>
</g>
<!-- Node9515&#45;&gt;Node9516 -->
<g id="edge2" class="edge">
<title>Node9515&#45;&gt;Node9516</title>
<path fill="none" stroke="#191970" d="M255.0289,-160.9208C271.963,-185.1194 304.832,-228.4889 341,-257 345.5367,-260.5763 350.8513,-263.7729 356.0145,-266.4778"/>
<polygon fill="#191970" stroke="#191970" points="257.8957,-158.9126 249.3454,-152.6561 252.1279,-162.879 257.8957,-158.9126"/>
</g>
<!-- Node9518 -->
<g id="node5" class="node">
<title>Node9518</title>
<g id="a_node5"><a xlink:href="../../da/dcd/lis__esolver__aii_8c.html#ae80ff9adb14e29fe00725e66a032e1d0" target="_top" xlink:title="lis_eaii">
<polygon fill="#ffffff" stroke="#000000" points="354.5,-228.5 354.5,-247.5 401.5,-247.5 401.5,-228.5 354.5,-228.5"/>
<text text-anchor="middle" x="378" y="-235.5" font-family="Helvetica,sans-Serif" font-size="10.00" fill="#000000">lis_eaii</text>
</a>
</g>
</g>
<!-- Node9515&#45;&gt;Node9518 -->
<g id="edge4" class="edge">
<title>Node9515&#45;&gt;Node9518</title>
<path fill="none" stroke="#191970" d="M261.648,-159.1556C280.8162,-175.3471 311.891,-200.4644 341,-219 346.2383,-222.3355 352.1327,-225.5742 357.6512,-228.4047"/>
<polygon fill="#191970" stroke="#191970" points="263.8455,-156.4297 253.9655,-152.6041 259.3033,-161.756 263.8455,-156.4297"/>
</g>
<!-- Node9519 -->
<g id="node6" class="node">
<title>Node9519</title>
<g id="a_node6"><a xlink:href="../../d3/d1d/lis__esolver__ii_8c.html#af60127f7e3f29865f0fe2f73e821996e" target="_top" xlink:title="lis_eii">
<polygon fill="#ffffff" stroke="#000000" points="357.5,-190.5 357.5,-209.5 398.5,-209.5 398.5,-190.5 357.5,-190.5"/>
<text text-anchor="middle" x="378" y="-197.5" font-family="Helvetica,sans-Serif" font-size="10.00" fill="#000000">lis_eii</text>
</a>
</g>
</g>
<!-- Node9515&#45;&gt;Node9519 -->
<g id="edge5" class="edge">
<title>Node9515&#45;&gt;Node9519</title>
<path fill="none" stroke="#191970" d="M274.8258,-156.4376C300.2392,-167.1677 335.1196,-181.8949 357.1075,-191.1787"/>
<polygon fill="#191970" stroke="#191970" points="276.1699,-153.2059 265.596,-152.5405 273.447,-159.6547 276.1699,-153.2059"/>
</g>
<!-- Node9520 -->
<g id="node7" class="node">
<title>Node9520</title>
<g id="a_node7"><a xlink:href="../../d3/d1d/lis__esolver__ii_8c.html#ac143b9fbeef63ed16c7ec6b719c8ffdb" target="_top" xlink:title="lis_eii_quad">
<polygon fill="#ffffff" stroke="#000000" points="344,-152.5 344,-171.5 412,-171.5 412,-152.5 344,-152.5"/>
<text text-anchor="middle" x="378" y="-159.5" font-family="Helvetica,sans-Serif" font-size="10.00" fill="#000000">lis_eii_quad</text>
</a>
</g>
</g>
<!-- Node9515&#45;&gt;Node9520 -->
<g id="edge6" class="edge">
<title>Node9515&#45;&gt;Node9520</title>
<path fill="none" stroke="#191970" d="M315.3289,-153.1796C325.2804,-154.5802 335.0912,-155.961 343.8902,-157.1994"/>
<polygon fill="#191970" stroke="#191970" points="315.753,-149.7049 305.3628,-151.777 314.7774,-156.6366 315.753,-149.7049"/>
</g>
<!-- Node9521 -->
<g id="node8" class="node">
<title>Node9521</title>
<g id="a_node8"><a xlink:href="../../d2/d2e/lis__esolver__rqi_8c.html#a4398a7527d159b440936e9f3ab8d128b" target="_top" xlink:title="lis_erqi">
<polygon fill="#ffffff" stroke="#000000" points="354.5,-114.5 354.5,-133.5 401.5,-133.5 401.5,-114.5 354.5,-114.5"/>
<text text-anchor="middle" x="378" y="-121.5" font-family="Helvetica,sans-Serif" font-size="10.00" fill="#000000">lis_erqi</text>
</a>
</g>
</g>
<!-- Node9515&#45;&gt;Node9521 -->
<g id="edge7" class="edge">
<title>Node9515&#45;&gt;Node9521</title>
<path fill="none" stroke="#191970" d="M315.5816,-132.7848C329.5919,-130.813 343.3085,-128.8825 354.2989,-127.3357"/>
<polygon fill="#191970" stroke="#191970" points="314.7774,-129.3634 305.3628,-134.223 315.753,-136.2951 314.7774,-129.3634"/>
</g>
<!-- Node9522 -->
<g id="node9" class="node">
<title>Node9522</title>
<g id="a_node9"><a xlink:href="../../d2/d2e/lis__esolver__rqi_8c.html#a1ecfe03e001749cd51e771af0fa0fb7b" target="_top" xlink:title="lis_erqi_quad">
<polygon fill="#ffffff" stroke="#000000" points="341,-76.5 341,-95.5 415,-95.5 415,-76.5 341,-76.5"/>
<text text-anchor="middle" x="378" y="-83.5" font-family="Helvetica,sans-Serif" font-size="10.00" fill="#000000">lis_erqi_quad</text>
</a>
</g>
</g>
<!-- Node9515&#45;&gt;Node9522 -->
<g id="edge8" class="edge">
<title>Node9515&#45;&gt;Node9522</title>
<path fill="none" stroke="#191970" d="M274.9246,-129.5207C299.6546,-119.0792 333.3044,-104.8715 355.3303,-95.5716"/>
<polygon fill="#191970" stroke="#191970" points="273.447,-126.3453 265.596,-133.4595 276.1699,-132.7941 273.447,-126.3453"/>
</g>
<!-- Node9523 -->
<g id="node10" class="node">
<title>Node9523</title>
<g id="a_node10"><a xlink:href="../../d1/d1a/lis__esolver__si_8c.html#a60e212a72d342783da0ad3a7b17b5fa0" target="_top" xlink:title="lis_esi">
<polygon fill="#ffffff" stroke="#000000" points="356,-38.5 356,-57.5 400,-57.5 400,-38.5 356,-38.5"/>
<text text-anchor="middle" x="378" y="-45.5" font-family="Helvetica,sans-Serif" font-size="10.00" fill="#000000">lis_esi</text>
</a>
</g>
</g>
<!-- Node9515&#45;&gt;Node9523 -->
<g id="edge9" class="edge">
<title>Node9515&#45;&gt;Node9523</title>
<path fill="none" stroke="#191970" d="M261.648,-126.8444C280.8162,-110.6529 311.891,-85.5356 341,-67 346.2383,-63.6645 352.1327,-60.4258 357.6512,-57.5953"/>
<polygon fill="#191970" stroke="#191970" points="259.3033,-124.244 253.9655,-133.3959 263.8455,-129.5703 259.3033,-124.244"/>
</g>
<!-- Node9524 -->
<g id="node11" class="node">
<title>Node9524</title>
<g id="a_node11"><a xlink:href="../../d1/d1a/lis__esolver__si_8c.html#aec9efada46c369fcbc9e52643dbe6ef5" target="_top" xlink:title="lis_esi_quad">
<polygon fill="#ffffff" stroke="#000000" points="342.5,-.5 342.5,-19.5 413.5,-19.5 413.5,-.5 342.5,-.5"/>
<text text-anchor="middle" x="378" y="-7.5" font-family="Helvetica,sans-Serif" font-size="10.00" fill="#000000">lis_esi_quad</text>
</a>
</g>
</g>
<!-- Node9515&#45;&gt;Node9524 -->
<g id="edge10" class="edge">
<title>Node9515&#45;&gt;Node9524</title>
<path fill="none" stroke="#191970" d="M255.0289,-125.0792C271.963,-100.8806 304.832,-57.5111 341,-29 345.5367,-25.4237 350.8513,-22.2271 356.0145,-19.5222"/>
<polygon fill="#191970" stroke="#191970" points="252.1279,-123.121 249.3454,-133.3439 257.8957,-127.0874 252.1279,-123.121"/>
</g>
<!-- Node9517 -->
<g id="node4" class="node">
<title>Node9517</title>
<g id="a_node4"><a xlink:href="../../de/df9/lisf__esolver_8c.html#a2e38d7e9b948f5ab87f0b5fcc36e5119" target="_top" xlink:title="lis_esolve_f">
<polygon fill="#ffffff" stroke="#000000" points="451,-266.5 451,-285.5 519,-285.5 519,-266.5 451,-266.5"/>
<text text-anchor="middle" x="485" y="-273.5" font-family="Helvetica,sans-Serif" font-size="10.00" fill="#000000">lis_esolve_f</text>
</a>
</g>
</g>
<!-- Node9516&#45;&gt;Node9517 -->
<g id="edge3" class="edge">
<title>Node9516&#45;&gt;Node9517</title>
<path fill="none" stroke="#191970" d="M418.1545,-276C428.9653,-276 440.5527,-276 450.9929,-276"/>
<polygon fill="#191970" stroke="#191970" points="418.0902,-272.5001 408.0902,-276 418.0902,-279.5001 418.0902,-272.5001"/>
</g>
</g>
</svg>
