<?xml version="1.0" encoding="UTF-8" standalone="no"?>
<!DOCTYPE svg PUBLIC "-//W3C//DTD SVG 1.1//EN"
 "http://www.w3.org/Graphics/SVG/1.1/DTD/svg11.dtd">
<!-- Generated by graphviz version 2.40.1 (20161225.0304)
 -->
<!-- Title: check_match Pages: 1 -->
<svg width="258pt" height="104pt"
 viewBox="0.00 0.00 258.00 104.00" xmlns="http://www.w3.org/2000/svg" xmlns:xlink="http://www.w3.org/1999/xlink">
<g id="graph0" class="graph" transform="scale(1 1) rotate(0) translate(4 100)">
<title>check_match</title>
<polygon fill="#ffffff" stroke="transparent" points="-4,4 -4,-100 254,-100 254,4 -4,4"/>
<!-- Node0 -->
<g id="node1" class="node">
<title>Node0</title>
<polygon fill="#bfbfbf" stroke="#000000" points="0,-38.5 0,-57.5 75,-57.5 75,-38.5 0,-38.5"/>
<text text-anchor="middle" x="37.5" y="-45.5" font-family="Helvetica,sans-Serif" font-size="10.00" fill="#000000">check_match</text>
</g>
<!-- Node1 -->
<g id="node2" class="node">
<title>Node1</title>
<g id="a_node2"><a xlink:href="../../dd/d87/_f_m_i_l_2_third_party_2_zlib_2zlib-1_82_86_2zutil_8c.html#afa24e136b162a10f0ad3b2ed3000b413" target="_top" xlink:title="zmemcmp">
<polygon fill="#ffffff" stroke="#000000" points="111,-76.5 111,-95.5 173,-95.5 173,-76.5 111,-76.5"/>
<text text-anchor="middle" x="142" y="-83.5" font-family="Helvetica,sans-Serif" font-size="10.00" fill="#000000">zmemcmp</text>
</a>
</g>
</g>
<!-- Node0&#45;&gt;Node1 -->
<g id="edge1" class="edge">
<title>Node0&#45;&gt;Node1</title>
<path fill="none" stroke="#191970" d="M63.8698,-57.589C76.6171,-62.2244 92.114,-67.8596 105.9347,-72.8853"/>
<polygon fill="#191970" stroke="#191970" points="105.0446,-76.2858 115.6387,-76.4141 107.4369,-69.7073 105.0446,-76.2858"/>
</g>
<!-- Node2 -->
<g id="node3" class="node">
<title>Node2</title>
<g id="a_node3"><a xlink:href="../../d4/d98/g_09_09malloc_8c.html#a49f789e614e57e410f598885b800c2df" target="_top" xlink:title="fprintf">
<polygon fill="#ffffff" stroke="#000000" points="209,-19.5 209,-38.5 250,-38.5 250,-19.5 209,-19.5"/>
<text text-anchor="middle" x="229.5" y="-26.5" font-family="Helvetica,sans-Serif" font-size="10.00" fill="#000000">fprintf</text>
</a>
</g>
</g>
<!-- Node0&#45;&gt;Node2 -->
<g id="edge2" class="edge">
<title>Node0&#45;&gt;Node2</title>
<path fill="none" stroke="#191970" d="M75.433,-44.2462C111.5257,-40.6745 165.159,-35.3671 198.6871,-32.0492"/>
<polygon fill="#191970" stroke="#191970" points="199.212,-35.5144 208.8187,-31.0466 198.5226,-28.5485 199.212,-35.5144"/>
</g>
<!-- Node3 -->
<g id="node4" class="node">
<title>Node3</title>
<g id="a_node4"><a xlink:href="../../dd/d87/_f_m_i_l_2_third_party_2_zlib_2zlib-1_82_86_2zutil_8c.html#a4fb8670f24b383fb3aa9b4840ff148ad" target="_top" xlink:title="z_error">
<polygon fill="#ffffff" stroke="#000000" points="118.5,-.5 118.5,-19.5 165.5,-19.5 165.5,-.5 118.5,-.5"/>
<text text-anchor="middle" x="142" y="-7.5" font-family="Helvetica,sans-Serif" font-size="10.00" fill="#000000">z_error</text>
</a>
</g>
</g>
<!-- Node0&#45;&gt;Node3 -->
<g id="edge3" class="edge">
<title>Node0&#45;&gt;Node3</title>
<path fill="none" stroke="#191970" d="M63.8698,-38.411C77.5269,-33.4448 94.3401,-27.3309 108.8666,-22.0485"/>
<polygon fill="#191970" stroke="#191970" points="110.2894,-25.2554 118.4912,-18.5487 107.8971,-18.6769 110.2894,-25.2554"/>
</g>
<!-- Node3&#45;&gt;Node2 -->
<g id="edge4" class="edge">
<title>Node3&#45;&gt;Node2</title>
<path fill="none" stroke="#191970" d="M165.9098,-15.1918C176.1096,-17.4067 188.1348,-20.0178 198.9669,-22.37"/>
<polygon fill="#191970" stroke="#191970" points="198.3734,-25.8226 208.8884,-24.5243 199.8588,-18.982 198.3734,-25.8226"/>
</g>
</g>
</svg>
