<?xml version="1.0" encoding="UTF-8" standalone="no"?>
<!DOCTYPE svg PUBLIC "-//W3C//DTD SVG 1.1//EN"
 "http://www.w3.org/Graphics/SVG/1.1/DTD/svg11.dtd">
<!-- Generated by graphviz version 2.40.1 (20161225.0304)
 -->
<!-- Title: SSYGV_F77 Pages: 1 -->
<svg width="239pt" height="88pt"
 viewBox="0.00 0.00 239.00 88.00" xmlns="http://www.w3.org/2000/svg" xmlns:xlink="http://www.w3.org/1999/xlink">
<g id="graph0" class="graph" transform="scale(1 1) rotate(0) translate(4 84)">
<title>SSYGV_F77</title>
<polygon fill="#ffffff" stroke="transparent" points="-4,4 -4,-84 235,-84 235,4 -4,4"/>
<!-- Node502 -->
<g id="node1" class="node">
<title>Node502</title>
<polygon fill="#bfbfbf" stroke="#000000" points="0,-30 0,-49 73,-49 73,-30 0,-30"/>
<text text-anchor="middle" x="36.5" y="-37" font-family="Helvetica,sans-Serif" font-size="10.00" fill="#000000">SSYGV_F77</text>
</g>
<!-- Node503 -->
<g id="node2" class="node">
<title>Node503</title>
<g id="a_node2"><a xlink:href="../../dd/d78/class_teuchos_1_1_l_a_p_a_c_k_3_01int_00_01float_01_4.html#aecc0f3b025b85ea2b1c81bfa598745f5" target="_top" xlink:title="Teuchos::LAPACK\&lt; int,\l float \&gt;::SYGV">
<polygon fill="#ffffff" stroke="#000000" points="109,-49.5 109,-79.5 231,-79.5 231,-49.5 109,-49.5"/>
<text text-anchor="start" x="117" y="-67.5" font-family="Helvetica,sans-Serif" font-size="10.00" fill="#000000">Teuchos::LAPACK&lt; int,</text>
<text text-anchor="middle" x="170" y="-56.5" font-family="Helvetica,sans-Serif" font-size="10.00" fill="#000000"> float &gt;::SYGV</text>
</a>
</g>
</g>
<!-- Node502&#45;&gt;Node503 -->
<g id="edge1" class="edge">
<title>Node502&#45;&gt;Node503</title>
<path fill="none" stroke="#191970" d="M83.2091,-48.247C91.524,-49.8041 100.2962,-51.4469 108.9402,-53.0656"/>
<polygon fill="#191970" stroke="#191970" points="83.8063,-44.7981 73.3329,-46.3975 82.5177,-51.6785 83.8063,-44.7981"/>
</g>
<!-- Node504 -->
<g id="node3" class="node">
<title>Node504</title>
<g id="a_node3"><a xlink:href="../../dd/d78/class_teuchos_1_1_l_a_p_a_c_k_3_01int_00_01float_01_4.html#a1f23b58b7bb58f4df897bdcd76b98fa2" target="_top" xlink:title="Teuchos::LAPACK\&lt; int,\l float \&gt;::HEGV">
<polygon fill="#ffffff" stroke="#000000" points="109,-.5 109,-30.5 231,-30.5 231,-.5 109,-.5"/>
<text text-anchor="start" x="117" y="-18.5" font-family="Helvetica,sans-Serif" font-size="10.00" fill="#000000">Teuchos::LAPACK&lt; int,</text>
<text text-anchor="middle" x="170" y="-7.5" font-family="Helvetica,sans-Serif" font-size="10.00" fill="#000000"> float &gt;::HEGV</text>
</a>
</g>
</g>
<!-- Node502&#45;&gt;Node504 -->
<g id="edge2" class="edge">
<title>Node502&#45;&gt;Node504</title>
<path fill="none" stroke="#191970" d="M83.2091,-31.1029C91.524,-29.608 100.2962,-28.031 108.9402,-26.477"/>
<polygon fill="#191970" stroke="#191970" points="82.5558,-27.6641 73.3329,-32.8784 83.7944,-34.5537 82.5558,-27.6641"/>
</g>
</g>
</svg>
