<?xml version="1.0" encoding="UTF-8" standalone="no"?>
<!DOCTYPE svg PUBLIC "-//W3C//DTD SVG 1.1//EN"
 "http://www.w3.org/Graphics/SVG/1.1/DTD/svg11.dtd">
<!-- Generated by graphviz version 2.40.1 (20161225.0304)
 -->
<!-- Title: ZGESV_F77 Pages: 1 -->
<svg width="238pt" height="50pt"
 viewBox="0.00 0.00 238.00 50.00" xmlns="http://www.w3.org/2000/svg" xmlns:xlink="http://www.w3.org/1999/xlink">
<g id="graph0" class="graph" transform="scale(1 1) rotate(0) translate(4 46)">
<title>ZGESV_F77</title>
<polygon fill="#ffffff" stroke="transparent" points="-4,4 -4,-46 234,-46 234,4 -4,4"/>
<!-- Node584 -->
<g id="node1" class="node">
<title>Node584</title>
<polygon fill="#bfbfbf" stroke="#000000" points="0,-11.5 0,-30.5 72,-30.5 72,-11.5 0,-11.5"/>
<text text-anchor="middle" x="36" y="-18.5" font-family="Helvetica,sans-Serif" font-size="10.00" fill="#000000">ZGESV_F77</text>
</g>
<!-- Node585 -->
<g id="node2" class="node">
<title>Node585</title>
<g id="a_node2"><a xlink:href="../../d3/dc4/class_teuchos_1_1_l_a_p_a_c_k_3_01int_00_01std_1_1complex_3_01double_01_4_01_4.html#af58896fecd18172cdfc13011c17cb7a9" target="_top" xlink:title="Teuchos::LAPACK\&lt; int,\l std::complex\&lt; double\l \&gt; \&gt;::GESV">
<polygon fill="#ffffff" stroke="#000000" points="108,-.5 108,-41.5 230,-41.5 230,-.5 108,-.5"/>
<text text-anchor="start" x="116" y="-29.5" font-family="Helvetica,sans-Serif" font-size="10.00" fill="#000000">Teuchos::LAPACK&lt; int,</text>
<text text-anchor="start" x="116" y="-18.5" font-family="Helvetica,sans-Serif" font-size="10.00" fill="#000000"> std::complex&lt; double</text>
<text text-anchor="middle" x="169" y="-7.5" font-family="Helvetica,sans-Serif" font-size="10.00" fill="#000000"> &gt; &gt;::GESV</text>
</a>
</g>
</g>
<!-- Node584&#45;&gt;Node585 -->
<g id="edge1" class="edge">
<title>Node584&#45;&gt;Node585</title>
<path fill="none" stroke="#191970" d="M82.4646,-21C90.6793,-21 99.3438,-21 107.8889,-21"/>
<polygon fill="#191970" stroke="#191970" points="82.3429,-17.5001 72.3428,-21 82.3428,-24.5001 82.3429,-17.5001"/>
</g>
</g>
</svg>
