<?xml version="1.0" encoding="UTF-8" standalone="no"?>
<!DOCTYPE svg PUBLIC "-//W3C//DTD SVG 1.1//EN"
 "http://www.w3.org/Graphics/SVG/1.1/DTD/svg11.dtd">
<!-- Generated by graphviz version 2.40.1 (20161225.0304)
 -->
<!-- Title: CVDlsSetDenseJacFnBS Pages: 1 -->
<svg width="410pt" height="47pt"
 viewBox="0.00 0.00 410.00 47.00" xmlns="http://www.w3.org/2000/svg" xmlns:xlink="http://www.w3.org/1999/xlink">
<g id="graph0" class="graph" transform="scale(1 1) rotate(0) translate(4 43)">
<title>CVDlsSetDenseJacFnBS</title>
<polygon fill="#ffffff" stroke="transparent" points="-4,4 -4,-43 406,-43 406,4 -4,4"/>
<!-- Node45 -->
<g id="node1" class="node">
<title>Node45</title>
<polygon fill="#bfbfbf" stroke="#000000" points="0,-19.5 0,-38.5 130,-38.5 130,-19.5 0,-19.5"/>
<text text-anchor="middle" x="65" y="-26.5" font-family="Helvetica,sans-Serif" font-size="10.00" fill="#000000">CVDlsSetDenseJacFnBS</text>
</g>
<!-- Node46 -->
<g id="node2" class="node">
<title>Node46</title>
<g id="a_node2"><a xlink:href="../../d9/d54/3rd_party_2sundials_2build_2include_2cvode_2cvode__impl_8h.html#aca8edaf29469da9950fe695b90ef196e" target="_top" xlink:title="cvProcessError">
<polygon fill="#ffffff" stroke="#000000" points="318,-19.5 318,-38.5 402,-38.5 402,-19.5 318,-19.5"/>
<text text-anchor="middle" x="360" y="-26.5" font-family="Helvetica,sans-Serif" font-size="10.00" fill="#000000">cvProcessError</text>
</a>
</g>
</g>
<!-- Node45&#45;&gt;Node46 -->
<g id="edge1" class="edge">
<title>Node45&#45;&gt;Node46</title>
<path fill="none" stroke="#191970" d="M130.1042,-29C183.488,-29 258.0731,-29 307.6455,-29"/>
<polygon fill="#191970" stroke="#191970" points="307.8274,-32.5001 317.8274,-29 307.8274,-25.5001 307.8274,-32.5001"/>
</g>
<!-- Node47 -->
<g id="node3" class="node">
<title>Node47</title>
<g id="a_node3"><a xlink:href="../../d0/db9/cvodes__direct_8c.html#ac693f9dedcf9a52e2c7b315673f31310" target="_top" xlink:title="CVDlsSetDenseJacFn">
<polygon fill="#ffffff" stroke="#000000" points="166,-.5 166,-19.5 282,-19.5 282,-.5 166,-.5"/>
<text text-anchor="middle" x="224" y="-7.5" font-family="Helvetica,sans-Serif" font-size="10.00" fill="#000000">CVDlsSetDenseJacFn</text>
</a>
</g>
</g>
<!-- Node45&#45;&gt;Node47 -->
<g id="edge2" class="edge">
<title>Node45&#45;&gt;Node47</title>
<path fill="none" stroke="#191970" d="M130.1302,-21.2172C138.6366,-20.2007 147.3702,-19.157 155.9236,-18.1349"/>
<polygon fill="#191970" stroke="#191970" points="156.3433,-21.6098 165.8573,-16.9479 155.5126,-14.6592 156.3433,-21.6098"/>
</g>
<!-- Node47&#45;&gt;Node46 -->
<g id="edge3" class="edge">
<title>Node47&#45;&gt;Node46</title>
<path fill="none" stroke="#191970" d="M282.0707,-18.1128C290.591,-19.3032 299.3238,-20.5232 307.7185,-21.696"/>
<polygon fill="#191970" stroke="#191970" points="307.3654,-25.1805 317.7535,-23.0979 308.334,-18.2479 307.3654,-25.1805"/>
</g>
</g>
</svg>
