<?xml version="1.0" encoding="UTF-8" standalone="no"?>
<!DOCTYPE svg PUBLIC "-//W3C//DTD SVG 1.1//EN"
 "http://www.w3.org/Graphics/SVG/1.1/DTD/svg11.dtd">
<!-- Generated by graphviz version 2.40.1 (20161225.0304)
 -->
<!-- Title: ML_BdryPts_Load_Dirichlet_Grid Pages: 1 -->
<svg width="301pt" height="66pt"
 viewBox="0.00 0.00 301.00 66.00" xmlns="http://www.w3.org/2000/svg" xmlns:xlink="http://www.w3.org/1999/xlink">
<g id="graph0" class="graph" transform="scale(1 1) rotate(0) translate(4 62)">
<title>ML_BdryPts_Load_Dirichlet_Grid</title>
<polygon fill="#ffffff" stroke="transparent" points="-4,4 -4,-62 297,-62 297,4 -4,4"/>
<!-- Node289 -->
<g id="node1" class="node">
<title>Node289</title>
<polygon fill="#bfbfbf" stroke="#000000" points="0,-19.5 0,-38.5 161,-38.5 161,-19.5 0,-19.5"/>
<text text-anchor="middle" x="80.5" y="-26.5" font-family="Helvetica,sans-Serif" font-size="10.00" fill="#000000">ML_BdryPts_Load_Dirichlet_Grid</text>
</g>
<!-- Node290 -->
<g id="node2" class="node">
<title>Node290</title>
<g id="a_node2"><a xlink:href="../../d8/d08/ml__memory_8c.html#ac0fa835db1ce7e092e6bdb285638f5de" target="_top" xlink:title="ML_memory_free">
<polygon fill="#ffffff" stroke="#000000" points="199,-38.5 199,-57.5 291,-57.5 291,-38.5 199,-38.5"/>
<text text-anchor="middle" x="245" y="-45.5" font-family="Helvetica,sans-Serif" font-size="10.00" fill="#000000">ML_memory_free</text>
</a>
</g>
</g>
<!-- Node289&#45;&gt;Node290 -->
<g id="edge1" class="edge">
<title>Node289&#45;&gt;Node290</title>
<path fill="none" stroke="#191970" d="M161.3043,-38.333C170.5315,-39.3988 179.783,-40.4673 188.594,-41.485"/>
<polygon fill="#191970" stroke="#191970" points="188.3717,-44.9825 198.7073,-42.6531 189.1749,-38.0288 188.3717,-44.9825"/>
</g>
<!-- Node291 -->
<g id="node3" class="node">
<title>Node291</title>
<g id="a_node3"><a xlink:href="../../d8/d08/ml__memory_8c.html#ab656aed9d908a79217671761d4ba9a75" target="_top" xlink:title="ML_memory_alloc">
<polygon fill="#ffffff" stroke="#000000" points="197,-.5 197,-19.5 293,-19.5 293,-.5 197,-.5"/>
<text text-anchor="middle" x="245" y="-7.5" font-family="Helvetica,sans-Serif" font-size="10.00" fill="#000000">ML_memory_alloc</text>
</a>
</g>
</g>
<!-- Node289&#45;&gt;Node291 -->
<g id="edge2" class="edge">
<title>Node289&#45;&gt;Node291</title>
<path fill="none" stroke="#191970" d="M161.3043,-19.667C169.9691,-18.6662 178.6553,-17.6629 186.9781,-16.7016"/>
<polygon fill="#191970" stroke="#191970" points="187.3916,-20.1772 196.924,-15.5529 186.5884,-13.2234 187.3916,-20.1772"/>
</g>
</g>
</svg>
