<?xml version="1.0" encoding="UTF-8" standalone="no"?>
<!DOCTYPE svg PUBLIC "-//W3C//DTD SVG 1.1//EN"
 "http://www.w3.org/Graphics/SVG/1.1/DTD/svg11.dtd">
<!-- Generated by graphviz version 2.40.1 (20161225.0304)
 -->
<!-- Title: omc_BackendInline_inlineEqs Pages: 1 -->
<svg width="478pt" height="66pt"
 viewBox="0.00 0.00 478.00 66.00" xmlns="http://www.w3.org/2000/svg" xmlns:xlink="http://www.w3.org/1999/xlink">
<g id="graph0" class="graph" transform="scale(1 1) rotate(0) translate(4 62)">
<title>omc_BackendInline_inlineEqs</title>
<polygon fill="#ffffff" stroke="transparent" points="-4,4 -4,-62 474,-62 474,4 -4,4"/>
<!-- Node436 -->
<g id="node1" class="node">
<title>Node436</title>
<polygon fill="#bfbfbf" stroke="#000000" points="0,-19.5 0,-38.5 147,-38.5 147,-19.5 0,-19.5"/>
<text text-anchor="middle" x="73.5" y="-26.5" font-family="Helvetica,sans-Serif" font-size="10.00" fill="#000000">omc_BackendInline_inlineEqs</text>
</g>
<!-- Node437 -->
<g id="node2" class="node">
<title>Node437</title>
<g id="a_node2"><a xlink:href="../../d2/d57/build_2include_2omc_2c_2meta_2meta__modelica__builtin_8h.html#a81001ba45c298ade27540edd2589777c" target="_top" xlink:title="listReverse">
<polygon fill="#ffffff" stroke="#000000" points="221,-38.5 221,-57.5 287,-57.5 287,-38.5 221,-38.5"/>
<text text-anchor="middle" x="254" y="-45.5" font-family="Helvetica,sans-Serif" font-size="10.00" fill="#000000">listReverse</text>
</a>
</g>
</g>
<!-- Node436&#45;&gt;Node437 -->
<g id="edge1" class="edge">
<title>Node436&#45;&gt;Node437</title>
<path fill="none" stroke="#191970" d="M147.1766,-36.7554C168.726,-39.0238 191.5808,-41.4296 210.5966,-43.4312"/>
<polygon fill="#191970" stroke="#191970" points="210.4219,-46.9321 220.7333,-44.4982 211.1547,-39.9705 210.4219,-46.9321"/>
</g>
<!-- Node438 -->
<g id="node3" class="node">
<title>Node438</title>
<g id="a_node3"><a xlink:href="../../d0/d9b/_backend_inline_8c.html#aa94dfa342ac161b10e82e8f05a873806" target="_top" xlink:title="omc_BackendInline_inlineEq">
<polygon fill="#ffffff" stroke="#000000" points="183,-.5 183,-19.5 325,-19.5 325,-.5 183,-.5"/>
<text text-anchor="middle" x="254" y="-7.5" font-family="Helvetica,sans-Serif" font-size="10.00" fill="#000000">omc_BackendInline_inlineEq</text>
</a>
</g>
</g>
<!-- Node436&#45;&gt;Node438 -->
<g id="edge2" class="edge">
<title>Node436&#45;&gt;Node438</title>
<path fill="none" stroke="#191970" d="M147.1766,-21.2446C155.6544,-20.3522 164.3342,-19.4385 172.9029,-18.5365"/>
<polygon fill="#191970" stroke="#191970" points="173.3133,-22.0128 182.8919,-17.4851 172.5804,-15.0512 173.3133,-22.0128"/>
</g>
<!-- Node439 -->
<g id="node4" class="node">
<title>Node439</title>
<g id="a_node4"><a xlink:href="../../df/d94/_inline_8c.html#a8a84c035518d483e707f636f129b83ac" target="_top" xlink:title="omc_Inline_inlineExp">
<polygon fill="#ffffff" stroke="#000000" points="361,-.5 361,-19.5 470,-19.5 470,-.5 361,-.5"/>
<text text-anchor="middle" x="415.5" y="-7.5" font-family="Helvetica,sans-Serif" font-size="10.00" fill="#000000">omc_Inline_inlineExp</text>
</a>
</g>
</g>
<!-- Node438&#45;&gt;Node439 -->
<g id="edge3" class="edge">
<title>Node438&#45;&gt;Node439</title>
<path fill="none" stroke="#191970" d="M325.3064,-10C333.7167,-10 342.2655,-10 350.5813,-10"/>
<polygon fill="#191970" stroke="#191970" points="350.5841,-13.5001 360.584,-10 350.584,-6.5001 350.5841,-13.5001"/>
</g>
</g>
</svg>
