<?xml version="1.0" encoding="UTF-8" standalone="no"?>
<!DOCTYPE svg PUBLIC "-//W3C//DTD SVG 1.1//EN"
 "http://www.w3.org/Graphics/SVG/1.1/DTD/svg11.dtd">
<!-- Generated by graphviz version 2.40.1 (20161225.0304)
 -->
<!-- Title: boxptr_BackendInline_inlineEqAppend__debug Pages: 1 -->
<svg width="1115pt" height="246pt"
 viewBox="0.00 0.00 1115.00 246.00" xmlns="http://www.w3.org/2000/svg" xmlns:xlink="http://www.w3.org/1999/xlink">
<g id="graph0" class="graph" transform="scale(1 1) rotate(0) translate(4 242)">
<title>boxptr_BackendInline_inlineEqAppend__debug</title>
<polygon fill="#ffffff" stroke="transparent" points="-4,4 -4,-242 1111,-242 1111,4 -4,4"/>
<!-- Node32 -->
<g id="node1" class="node">
<title>Node32</title>
<polygon fill="#bfbfbf" stroke="#000000" points="0,-114.5 0,-144.5 126,-144.5 126,-114.5 0,-114.5"/>
<text text-anchor="start" x="8" y="-132.5" font-family="Helvetica,sans-Serif" font-size="10.00" fill="#000000">boxptr_BackendInline</text>
<text text-anchor="middle" x="63" y="-121.5" font-family="Helvetica,sans-Serif" font-size="10.00" fill="#000000">_inlineEqAppend__debug</text>
</g>
<!-- Node33 -->
<g id="node2" class="node">
<title>Node33</title>
<g id="a_node2"><a xlink:href="../../d0/d9b/_backend_inline_8c.html#ac4451fbdc85a66e2f219b05ee723479c" target="_top" xlink:title="omc_BackendInline_inline\lEqAppend__debug">
<polygon fill="#ffffff" stroke="#000000" points="162,-114.5 162,-144.5 292,-144.5 292,-114.5 162,-114.5"/>
<text text-anchor="start" x="170" y="-132.5" font-family="Helvetica,sans-Serif" font-size="10.00" fill="#000000">omc_BackendInline_inline</text>
<text text-anchor="middle" x="227" y="-121.5" font-family="Helvetica,sans-Serif" font-size="10.00" fill="#000000">EqAppend__debug</text>
</a>
</g>
</g>
<!-- Node32&#45;&gt;Node33 -->
<g id="edge1" class="edge">
<title>Node32&#45;&gt;Node33</title>
<path fill="none" stroke="#191970" d="M126.4067,-129.5C134.6731,-129.5 143.2057,-129.5 151.6438,-129.5"/>
<polygon fill="#191970" stroke="#191970" points="151.8654,-133.0001 161.8654,-129.5 151.8654,-126.0001 151.8654,-133.0001"/>
</g>
<!-- Node34 -->
<g id="node3" class="node">
<title>Node34</title>
<g id="a_node3"><a xlink:href="../../d4/dac/_backend_d_a_e_util_8c.html#a3790fa7568fc4a638cbb57a7f2f239f6" target="_top" xlink:title="omc_BackendDAEUtil\l_createEqSystem">
<polygon fill="#ffffff" stroke="#000000" points="329,-163.5 329,-193.5 444,-193.5 444,-163.5 329,-163.5"/>
<text text-anchor="start" x="337" y="-181.5" font-family="Helvetica,sans-Serif" font-size="10.00" fill="#000000">omc_BackendDAEUtil</text>
<text text-anchor="middle" x="386.5" y="-170.5" font-family="Helvetica,sans-Serif" font-size="10.00" fill="#000000">_createEqSystem</text>
</a>
</g>
</g>
<!-- Node33&#45;&gt;Node34 -->
<g id="edge2" class="edge">
<title>Node33&#45;&gt;Node34</title>
<path fill="none" stroke="#191970" d="M276.1567,-144.6014C292.4546,-149.6083 310.7617,-155.2324 327.7095,-160.439"/>
<polygon fill="#191970" stroke="#191970" points="326.9186,-163.8574 337.5056,-163.4484 328.9743,-157.166 326.9186,-163.8574"/>
</g>
<!-- Node35 -->
<g id="node4" class="node">
<title>Node35</title>
<g id="a_node4"><a xlink:href="../../dd/db3/_backend_variable_8c.html#a1825961dee4807050d3444e32a9fc837" target="_top" xlink:title="omc_BackendVariable\l_listVar">
<polygon fill="#ffffff" stroke="#000000" points="329.5,-114.5 329.5,-144.5 443.5,-144.5 443.5,-114.5 329.5,-114.5"/>
<text text-anchor="start" x="337.5" y="-132.5" font-family="Helvetica,sans-Serif" font-size="10.00" fill="#000000">omc_BackendVariable</text>
<text text-anchor="middle" x="386.5" y="-121.5" font-family="Helvetica,sans-Serif" font-size="10.00" fill="#000000">_listVar</text>
</a>
</g>
</g>
<!-- Node33&#45;&gt;Node35 -->
<g id="edge3" class="edge">
<title>Node33&#45;&gt;Node35</title>
<path fill="none" stroke="#191970" d="M292.335,-129.5C301.2735,-129.5 310.4619,-129.5 319.4308,-129.5"/>
<polygon fill="#191970" stroke="#191970" points="319.4386,-133.0001 329.4386,-129.5 319.4385,-126.0001 319.4386,-133.0001"/>
</g>
<!-- Node42 -->
<g id="node11" class="node">
<title>Node42</title>
<g id="a_node11"><a xlink:href="../../d2/ddf/_backend_equation_8c.html#a8cadc7b3eaaf06c86188ceccae742d9f" target="_top" xlink:title="omc_BackendEquation\l_listEquation">
<polygon fill="#ffffff" stroke="#000000" points="328,-52.5 328,-82.5 445,-82.5 445,-52.5 328,-52.5"/>
<text text-anchor="start" x="336" y="-70.5" font-family="Helvetica,sans-Serif" font-size="10.00" fill="#000000">omc_BackendEquation</text>
<text text-anchor="middle" x="386.5" y="-59.5" font-family="Helvetica,sans-Serif" font-size="10.00" fill="#000000">_listEquation</text>
</a>
</g>
</g>
<!-- Node33&#45;&gt;Node42 -->
<g id="edge10" class="edge">
<title>Node33&#45;&gt;Node42</title>
<path fill="none" stroke="#191970" d="M265.6105,-114.4915C287.4891,-105.987 315.0562,-95.2712 338.3388,-86.221"/>
<polygon fill="#191970" stroke="#191970" points="339.6397,-89.4705 347.6922,-82.5851 337.1035,-82.9461 339.6397,-89.4705"/>
</g>
<!-- Node36 -->
<g id="node5" class="node">
<title>Node36</title>
<g id="a_node5"><a xlink:href="../../d2/d57/build_2include_2omc_2c_2meta_2meta__modelica__builtin_8h.html#a6983369f3c3e3e8cc41ac483c9a9baf1" target="_top" xlink:title="listLength">
<polygon fill="#ffffff" stroke="#000000" points="520.5,-82 520.5,-101 579.5,-101 579.5,-82 520.5,-82"/>
<text text-anchor="middle" x="550" y="-89" font-family="Helvetica,sans-Serif" font-size="10.00" fill="#000000">listLength</text>
</a>
</g>
</g>
<!-- Node35&#45;&gt;Node36 -->
<g id="edge4" class="edge">
<title>Node35&#45;&gt;Node36</title>
<path fill="none" stroke="#191970" d="M443.6844,-116.2094C465.6414,-111.1063 490.2049,-105.3973 510.1853,-100.7536"/>
<polygon fill="#191970" stroke="#191970" points="511.2299,-104.1041 520.178,-98.4311 509.6452,-97.2859 511.2299,-104.1041"/>
</g>
<!-- Node37 -->
<g id="node6" class="node">
<title>Node37</title>
<g id="a_node6"><a xlink:href="../../dd/db3/_backend_variable_8c.html#a34244689845afbbb5b480bcf6d00abaa" target="_top" xlink:title="omc_BackendVariable\l_emptyVarsSized">
<polygon fill="#ffffff" stroke="#000000" points="493,-207.5 493,-237.5 607,-237.5 607,-207.5 493,-207.5"/>
<text text-anchor="start" x="501" y="-225.5" font-family="Helvetica,sans-Serif" font-size="10.00" fill="#000000">omc_BackendVariable</text>
<text text-anchor="middle" x="550" y="-214.5" font-family="Helvetica,sans-Serif" font-size="10.00" fill="#000000">_emptyVarsSized</text>
</a>
</g>
</g>
<!-- Node35&#45;&gt;Node37 -->
<g id="edge5" class="edge">
<title>Node35&#45;&gt;Node37</title>
<path fill="none" stroke="#191970" d="M430.3029,-144.6142C435.4712,-147.2129 440.5,-150.1691 445,-153.5 465.3088,-168.5323 460.3821,-182.8944 481,-197.5 483.7032,-199.4149 486.569,-201.1987 489.5366,-202.8583"/>
<polygon fill="#191970" stroke="#191970" points="488.1786,-206.0934 498.6835,-207.4714 491.3308,-199.8432 488.1786,-206.0934"/>
</g>
<!-- Node39 -->
<g id="node8" class="node">
<title>Node39</title>
<g id="a_node8"><a xlink:href="../../dd/db3/_backend_variable_8c.html#a92102bada1c2c4a39a438d41dde4b0ea" target="_top" xlink:title="omc_BackendVariable\l_addVars">
<polygon fill="#ffffff" stroke="#000000" points="493,-158.5 493,-188.5 607,-188.5 607,-158.5 493,-158.5"/>
<text text-anchor="start" x="501" y="-176.5" font-family="Helvetica,sans-Serif" font-size="10.00" fill="#000000">omc_BackendVariable</text>
<text text-anchor="middle" x="550" y="-165.5" font-family="Helvetica,sans-Serif" font-size="10.00" fill="#000000">_addVars</text>
</a>
</g>
</g>
<!-- Node35&#45;&gt;Node39 -->
<g id="edge7" class="edge">
<title>Node35&#45;&gt;Node39</title>
<path fill="none" stroke="#191970" d="M442.3101,-144.5192C455.7839,-148.1452 470.3066,-152.0534 484.1909,-155.7899"/>
<polygon fill="#191970" stroke="#191970" points="483.598,-159.2548 494.164,-158.4738 485.4171,-152.4953 483.598,-159.2548"/>
</g>
<!-- Node41 -->
<g id="node10" class="node">
<title>Node41</title>
<g id="a_node10"><a xlink:href="../../d2/d57/build_2include_2omc_2c_2meta_2meta__modelica__builtin_8h.html#a81001ba45c298ade27540edd2589777c" target="_top" xlink:title="listReverse">
<polygon fill="#ffffff" stroke="#000000" points="517,-120 517,-139 583,-139 583,-120 517,-120"/>
<text text-anchor="middle" x="550" y="-127" font-family="Helvetica,sans-Serif" font-size="10.00" fill="#000000">listReverse</text>
</a>
</g>
</g>
<!-- Node35&#45;&gt;Node41 -->
<g id="edge9" class="edge">
<title>Node35&#45;&gt;Node41</title>
<path fill="none" stroke="#191970" d="M443.6844,-129.5C464.4479,-129.5 487.5422,-129.5 506.8876,-129.5"/>
<polygon fill="#191970" stroke="#191970" points="506.9195,-133.0001 516.9195,-129.5 506.9195,-126.0001 506.9195,-133.0001"/>
</g>
<!-- Node38 -->
<g id="node7" class="node">
<title>Node38</title>
<g id="a_node7"><a xlink:href="../../dd/db3/_backend_variable_8c.html#afc09793450257c719c63d47a4703dbcc" target="_top" xlink:title="omc_BackendVariable\l_emptyVars">
<polygon fill="#ffffff" stroke="#000000" points="665,-207.5 665,-237.5 779,-237.5 779,-207.5 665,-207.5"/>
<text text-anchor="start" x="673" y="-225.5" font-family="Helvetica,sans-Serif" font-size="10.00" fill="#000000">omc_BackendVariable</text>
<text text-anchor="middle" x="722" y="-214.5" font-family="Helvetica,sans-Serif" font-size="10.00" fill="#000000">_emptyVars</text>
</a>
</g>
</g>
<!-- Node37&#45;&gt;Node38 -->
<g id="edge6" class="edge">
<title>Node37&#45;&gt;Node38</title>
<path fill="none" stroke="#191970" d="M607.2735,-222.5C622.5048,-222.5 639.0942,-222.5 654.8035,-222.5"/>
<polygon fill="#191970" stroke="#191970" points="654.9766,-226.0001 664.9766,-222.5 654.9766,-219.0001 654.9766,-226.0001"/>
</g>
<!-- Node40 -->
<g id="node9" class="node">
<title>Node40</title>
<g id="a_node9"><a xlink:href="../../da/d72/_compiler_2boot_2build_2list_8c.html#a3ec1ee3a5ff53be9af368e290be09182" target="_top" xlink:title="omc_List_fold">
<polygon fill="#ffffff" stroke="#000000" points="683.5,-164 683.5,-183 760.5,-183 760.5,-164 683.5,-164"/>
<text text-anchor="middle" x="722" y="-171" font-family="Helvetica,sans-Serif" font-size="10.00" fill="#000000">omc_List_fold</text>
</a>
</g>
</g>
<!-- Node39&#45;&gt;Node40 -->
<g id="edge8" class="edge">
<title>Node39&#45;&gt;Node40</title>
<path fill="none" stroke="#191970" d="M607.2735,-173.5C628.6752,-173.5 652.7583,-173.5 673.3135,-173.5"/>
<polygon fill="#191970" stroke="#191970" points="673.3999,-177.0001 683.3998,-173.5 673.3998,-170.0001 673.3999,-177.0001"/>
</g>
<!-- Node42&#45;&gt;Node36 -->
<g id="edge12" class="edge">
<title>Node42&#45;&gt;Node36</title>
<path fill="none" stroke="#191970" d="M445.0654,-76.0968C466.6579,-79.2663 490.6029,-82.7812 510.1609,-85.6521"/>
<polygon fill="#191970" stroke="#191970" points="509.8394,-89.1423 520.2417,-87.1318 510.8561,-82.2165 509.8394,-89.1423"/>
</g>
<!-- Node43 -->
<g id="node12" class="node">
<title>Node43</title>
<g id="a_node12"><a xlink:href="../../d0/d79/_expandable_array_8c.html#a618eeaec12f9bd192deddeccd49802b4" target="_top" xlink:title="omc_ExpandableArray_new">
<polygon fill="#ffffff" stroke="#000000" points="481,-44 481,-63 619,-63 619,-44 481,-44"/>
<text text-anchor="middle" x="550" y="-51" font-family="Helvetica,sans-Serif" font-size="10.00" fill="#000000">omc_ExpandableArray_new</text>
</a>
</g>
</g>
<!-- Node42&#45;&gt;Node43 -->
<g id="edge11" class="edge">
<title>Node42&#45;&gt;Node43</title>
<path fill="none" stroke="#191970" d="M445.0654,-62.4852C453.4295,-61.769 462.1466,-61.0226 470.825,-60.2795"/>
<polygon fill="#191970" stroke="#191970" points="471.3065,-63.7512 480.9714,-59.4107 470.7092,-56.7767 471.3065,-63.7512"/>
</g>
<!-- Node44 -->
<g id="node13" class="node">
<title>Node44</title>
<g id="a_node13"><a xlink:href="../../d0/d79/_expandable_array_8c.html#a37ebf8fb89bacba3366dbd17b30ca1ab" target="_top" xlink:title="omc_ExpandableArray_add">
<polygon fill="#ffffff" stroke="#000000" points="482,-6 482,-25 618,-25 618,-6 482,-6"/>
<text text-anchor="middle" x="550" y="-13" font-family="Helvetica,sans-Serif" font-size="10.00" fill="#000000">omc_ExpandableArray_add</text>
</a>
</g>
</g>
<!-- Node42&#45;&gt;Node44 -->
<g id="edge13" class="edge">
<title>Node42&#45;&gt;Node44</title>
<path fill="none" stroke="#191970" d="M427.6997,-52.4371C444.1908,-46.5852 463.415,-39.9847 481,-34.5 488.3402,-32.2106 496.1636,-29.9178 503.8077,-27.757"/>
<polygon fill="#191970" stroke="#191970" points="505.0026,-31.0576 513.6976,-25.0039 503.1253,-24.314 505.0026,-31.0576"/>
</g>
<!-- Node45 -->
<g id="node14" class="node">
<title>Node45</title>
<g id="a_node14"><a xlink:href="../../d0/d79/_expandable_array_8c.html#a29ede1644133c0f09bca7fdc1a87da55" target="_top" xlink:title="omc_ExpandableArray_set">
<polygon fill="#ffffff" stroke="#000000" points="655,-6 655,-25 789,-25 789,-6 655,-6"/>
<text text-anchor="middle" x="722" y="-13" font-family="Helvetica,sans-Serif" font-size="10.00" fill="#000000">omc_ExpandableArray_set</text>
</a>
</g>
</g>
<!-- Node44&#45;&gt;Node45 -->
<g id="edge14" class="edge">
<title>Node44&#45;&gt;Node45</title>
<path fill="none" stroke="#191970" d="M618.4732,-15.5C627.0919,-15.5 635.956,-15.5 644.6988,-15.5"/>
<polygon fill="#191970" stroke="#191970" points="644.8846,-19.0001 654.8846,-15.5 644.8845,-12.0001 644.8846,-19.0001"/>
</g>
<!-- Node46 -->
<g id="node15" class="node">
<title>Node46</title>
<g id="a_node15"><a xlink:href="../../d0/d79/_expandable_array_8c.html#ab7fab390a4e8bf3f3325376f6d8459f0" target="_top" xlink:title="omc_ExpandableArray\l_expandToSize">
<polygon fill="#ffffff" stroke="#000000" points="825,-.5 825,-30.5 940,-30.5 940,-.5 825,-.5"/>
<text text-anchor="start" x="833" y="-18.5" font-family="Helvetica,sans-Serif" font-size="10.00" fill="#000000">omc_ExpandableArray</text>
<text text-anchor="middle" x="882.5" y="-7.5" font-family="Helvetica,sans-Serif" font-size="10.00" fill="#000000">_expandToSize</text>
</a>
</g>
</g>
<!-- Node45&#45;&gt;Node46 -->
<g id="edge15" class="edge">
<title>Node45&#45;&gt;Node46</title>
<path fill="none" stroke="#191970" d="M789.1365,-15.5C797.5641,-15.5 806.1901,-15.5 814.629,-15.5"/>
<polygon fill="#191970" stroke="#191970" points="814.8039,-19.0001 824.8038,-15.5 814.8038,-12.0001 814.8039,-19.0001"/>
</g>
<!-- Node47 -->
<g id="node16" class="node">
<title>Node47</title>
<g id="a_node16"><a xlink:href="../../da/d17/_array_8c.html#a40ebd9c91c25ca91511bed61818384d4" target="_top" xlink:title="omc_Array_expandToSize">
<polygon fill="#ffffff" stroke="#000000" points="976,-6 976,-25 1107,-25 1107,-6 976,-6"/>
<text text-anchor="middle" x="1041.5" y="-13" font-family="Helvetica,sans-Serif" font-size="10.00" fill="#000000">omc_Array_expandToSize</text>
</a>
</g>
</g>
<!-- Node46&#45;&gt;Node47 -->
<g id="edge16" class="edge">
<title>Node46&#45;&gt;Node47</title>
<path fill="none" stroke="#191970" d="M940.3524,-15.5C948.649,-15.5 957.2861,-15.5 965.8631,-15.5"/>
<polygon fill="#191970" stroke="#191970" points="965.8802,-19.0001 975.8801,-15.5 965.8801,-12.0001 965.8802,-19.0001"/>
</g>
</g>
</svg>
