<?xml version="1.0" encoding="UTF-8" standalone="no"?>
<!DOCTYPE svg PUBLIC "-//W3C//DTD SVG 1.1//EN"
 "http://www.w3.org/Graphics/SVG/1.1/DTD/svg11.dtd">
<!-- Generated by graphviz version 2.40.1 (20161225.0304)
 -->
<!-- Title: omc_BackendInline_normalInlineFunction Pages: 1 -->
<svg width="918pt" height="104pt"
 viewBox="0.00 0.00 918.00 103.79" xmlns="http://www.w3.org/2000/svg" xmlns:xlink="http://www.w3.org/1999/xlink">
<g id="graph0" class="graph" transform="scale(1 1) rotate(0) translate(4 99.789)">
<title>omc_BackendInline_normalInlineFunction</title>
<polygon fill="#ffffff" stroke="transparent" points="-4,4 -4,-99.789 914,-99.789 914,4 -4,4"/>
<!-- Node602 -->
<g id="node1" class="node">
<title>Node602</title>
<polygon fill="#bfbfbf" stroke="#000000" points="0,-49.5 0,-79.5 137,-79.5 137,-49.5 0,-49.5"/>
<text text-anchor="start" x="8" y="-67.5" font-family="Helvetica,sans-Serif" font-size="10.00" fill="#000000">omc_BackendInline_normal</text>
<text text-anchor="middle" x="68.5" y="-56.5" font-family="Helvetica,sans-Serif" font-size="10.00" fill="#000000">InlineFunction</text>
</g>
<!-- Node603 -->
<g id="node2" class="node">
<title>Node603</title>
<g id="a_node2"><a xlink:href="../../d3/db3/_flags_8c.html#add52ff282ca5df852c1905fabb4571c9" target="_top" xlink:title="omc_Flags_getConfigEnum">
<polygon fill="#ffffff" stroke="#000000" points="339,-44 339,-63 476,-63 476,-44 339,-44"/>
<text text-anchor="middle" x="407.5" y="-51" font-family="Helvetica,sans-Serif" font-size="10.00" fill="#000000">omc_Flags_getConfigEnum</text>
</a>
</g>
</g>
<!-- Node602&#45;&gt;Node603 -->
<g id="edge1" class="edge">
<title>Node602&#45;&gt;Node603</title>
<path fill="none" stroke="#191970" d="M120.692,-79.5275C137.2687,-83.6128 155.7709,-87.4678 173,-89.5 230.38,-96.2681 246.0153,-99.0404 303,-89.5 328.6971,-85.1978 356.5328,-75.3318 377.0094,-67.0144"/>
<polygon fill="#191970" stroke="#191970" points="378.546,-70.1658 386.4288,-63.0868 375.852,-63.705 378.546,-70.1658"/>
</g>
<!-- Node607 -->
<g id="node6" class="node">
<title>Node607</title>
<g id="a_node6"><a xlink:href="../../d0/d9b/_backend_inline_8c.html#a8ee6f218ba51a3864e6a9ae354b215f9" target="_top" xlink:title="omc_BackendInline_inline\lCalls">
<polygon fill="#ffffff" stroke="#000000" points="173,-49.5 173,-79.5 303,-79.5 303,-49.5 173,-49.5"/>
<text text-anchor="start" x="181" y="-67.5" font-family="Helvetica,sans-Serif" font-size="10.00" fill="#000000">omc_BackendInline_inline</text>
<text text-anchor="middle" x="238" y="-56.5" font-family="Helvetica,sans-Serif" font-size="10.00" fill="#000000">Calls</text>
</a>
</g>
</g>
<!-- Node602&#45;&gt;Node607 -->
<g id="edge5" class="edge">
<title>Node602&#45;&gt;Node607</title>
<path fill="none" stroke="#191970" d="M137.4421,-64.5C145.7827,-64.5 154.335,-64.5 162.7603,-64.5"/>
<polygon fill="#191970" stroke="#191970" points="162.9517,-68.0001 172.9516,-64.5 162.9516,-61.0001 162.9517,-68.0001"/>
</g>
<!-- Node608 -->
<g id="node7" class="node">
<title>Node608</title>
<g id="a_node7"><a xlink:href="../../d0/d9b/_backend_inline_8c.html#a362d4f47bb4ff95c4c1e1e14e642c48b" target="_top" xlink:title="omc_BackendInline_inline\lCallsBDAE">
<polygon fill="#ffffff" stroke="#000000" points="173,-.5 173,-30.5 303,-30.5 303,-.5 173,-.5"/>
<text text-anchor="start" x="181" y="-18.5" font-family="Helvetica,sans-Serif" font-size="10.00" fill="#000000">omc_BackendInline_inline</text>
<text text-anchor="middle" x="238" y="-7.5" font-family="Helvetica,sans-Serif" font-size="10.00" fill="#000000">CallsBDAE</text>
</a>
</g>
</g>
<!-- Node602&#45;&gt;Node608 -->
<g id="edge6" class="edge">
<title>Node602&#45;&gt;Node608</title>
<path fill="none" stroke="#191970" d="M120.7387,-49.3986C138.3011,-44.3215 158.0591,-38.6098 176.2802,-33.3423"/>
<polygon fill="#191970" stroke="#191970" points="177.2992,-36.6911 185.9338,-30.5516 175.3552,-29.9665 177.2992,-36.6911"/>
</g>
<!-- Node604 -->
<g id="node3" class="node">
<title>Node604</title>
<g id="a_node3"><a xlink:href="../../d3/db3/_flags_8c.html#a96ba70d54b6662cf90933a207c0c6b8e" target="_top" xlink:title="omc_Flags_getConfigValue">
<polygon fill="#ffffff" stroke="#000000" points="512,-44 512,-63 649,-63 649,-44 512,-44"/>
<text text-anchor="middle" x="580.5" y="-51" font-family="Helvetica,sans-Serif" font-size="10.00" fill="#000000">omc_Flags_getConfigValue</text>
</a>
</g>
</g>
<!-- Node603&#45;&gt;Node604 -->
<g id="edge2" class="edge">
<title>Node603&#45;&gt;Node604</title>
<path fill="none" stroke="#191970" d="M476.3713,-53.5C484.678,-53.5 493.2111,-53.5 501.6466,-53.5"/>
<polygon fill="#191970" stroke="#191970" points="501.8657,-57.0001 511.8657,-53.5 501.8657,-50.0001 501.8657,-57.0001"/>
</g>
<!-- Node605 -->
<g id="node4" class="node">
<title>Node605</title>
<g id="a_node4"><a xlink:href="../../d3/db3/_flags_8c.html#a760d66f53b65ac257876ca0f6308f09f" target="_top" xlink:title="omc_Flags_loadFlags">
<polygon fill="#ffffff" stroke="#000000" points="685,-25 685,-44 797,-44 797,-25 685,-25"/>
<text text-anchor="middle" x="741" y="-32" font-family="Helvetica,sans-Serif" font-size="10.00" fill="#000000">omc_Flags_loadFlags</text>
</a>
</g>
</g>
<!-- Node604&#45;&gt;Node605 -->
<g id="edge3" class="edge">
<title>Node604&#45;&gt;Node605</title>
<path fill="none" stroke="#191970" d="M649.032,-45.3872C657.5123,-44.3833 666.1709,-43.3583 674.6182,-42.3583"/>
<polygon fill="#191970" stroke="#191970" points="675.2717,-45.8054 684.7909,-41.154 674.4488,-38.854 675.2717,-45.8054"/>
</g>
<!-- Node606 -->
<g id="node5" class="node">
<title>Node606</title>
<g id="a_node5"><a xlink:href="../../da/d72/_compiler_2boot_2build_2list_8c.html#a3ec1ee3a5ff53be9af368e290be09182" target="_top" xlink:title="omc_List_fold">
<polygon fill="#ffffff" stroke="#000000" points="833,-25 833,-44 910,-44 910,-25 833,-25"/>
<text text-anchor="middle" x="871.5" y="-32" font-family="Helvetica,sans-Serif" font-size="10.00" fill="#000000">omc_List_fold</text>
</a>
</g>
</g>
<!-- Node605&#45;&gt;Node606 -->
<g id="edge4" class="edge">
<title>Node605&#45;&gt;Node606</title>
<path fill="none" stroke="#191970" d="M797.1011,-34.5C805.5528,-34.5 814.2135,-34.5 822.5007,-34.5"/>
<polygon fill="#191970" stroke="#191970" points="822.7542,-38.0001 832.7542,-34.5 822.7541,-31.0001 822.7542,-38.0001"/>
</g>
<!-- Node608&#45;&gt;Node603 -->
<g id="edge9" class="edge">
<title>Node608&#45;&gt;Node603</title>
<path fill="none" stroke="#191970" d="M303.0484,-30.0831C320.2119,-33.931 338.5166,-38.0347 354.9302,-41.7144"/>
<polygon fill="#191970" stroke="#191970" points="354.355,-45.1723 364.8784,-43.9447 355.8863,-38.3418 354.355,-45.1723"/>
</g>
<!-- Node609 -->
<g id="node8" class="node">
<title>Node609</title>
<g id="a_node8"><a xlink:href="../../d3/db3/_flags_8c.html#a34e6591659b1578969141a635ff24042" target="_top" xlink:title="omc_Flags_isSet">
<polygon fill="#ffffff" stroke="#000000" points="534.5,-6 534.5,-25 626.5,-25 626.5,-6 534.5,-6"/>
<text text-anchor="middle" x="580.5" y="-13" font-family="Helvetica,sans-Serif" font-size="10.00" fill="#000000">omc_Flags_isSet</text>
</a>
</g>
</g>
<!-- Node608&#45;&gt;Node609 -->
<g id="edge7" class="edge">
<title>Node608&#45;&gt;Node609</title>
<path fill="none" stroke="#191970" d="M303.2278,-15.5C367.1686,-15.5 463.6201,-15.5 524.2726,-15.5"/>
<polygon fill="#191970" stroke="#191970" points="524.4264,-19.0001 534.4263,-15.5 524.4263,-12.0001 524.4264,-19.0001"/>
</g>
<!-- Node609&#45;&gt;Node605 -->
<g id="edge8" class="edge">
<title>Node609&#45;&gt;Node605</title>
<path fill="none" stroke="#191970" d="M626.9233,-20.9956C641.7327,-22.7487 658.4233,-24.7246 674.3742,-26.6128"/>
<polygon fill="#191970" stroke="#191970" points="674.3801,-30.1379 684.7222,-27.8378 675.203,-23.1864 674.3801,-30.1379"/>
</g>
</g>
</svg>
