<?xml version="1.0" encoding="UTF-8" standalone="no"?>
<!DOCTYPE svg PUBLIC "-//W3C//DTD SVG 1.1//EN"
 "http://www.w3.org/Graphics/SVG/1.1/DTD/svg11.dtd">
<!-- Generated by graphviz version 2.40.1 (20161225.0304)
 -->
<!-- Title: omc_BackendInline_inlineEquationOptArray Pages: 1 -->
<svg width="289pt" height="39pt"
 viewBox="0.00 0.00 289.00 39.00" xmlns="http://www.w3.org/2000/svg" xmlns:xlink="http://www.w3.org/1999/xlink">
<g id="graph0" class="graph" transform="scale(1 1) rotate(0) translate(4 35)">
<title>omc_BackendInline_inlineEquationOptArray</title>
<polygon fill="#ffffff" stroke="transparent" points="-4,4 -4,-35 285,-35 285,4 -4,4"/>
<!-- Node483 -->
<g id="node1" class="node">
<title>Node483</title>
<polygon fill="#bfbfbf" stroke="#000000" points="0,-.5 0,-30.5 130,-30.5 130,-.5 0,-.5"/>
<text text-anchor="start" x="8" y="-18.5" font-family="Helvetica,sans-Serif" font-size="10.00" fill="#000000">omc_BackendInline_inline</text>
<text text-anchor="middle" x="65" y="-7.5" font-family="Helvetica,sans-Serif" font-size="10.00" fill="#000000">EquationOptArray</text>
</g>
<!-- Node484 -->
<g id="node2" class="node">
<title>Node484</title>
<g id="a_node2"><a xlink:href="../../d0/d79/_expandable_array_8c.html#a51fbd8fcf5dd51e9daca628bacca1b66" target="_top" xlink:title="omc_ExpandableArray\l_getLastUsedIndex">
<polygon fill="#ffffff" stroke="#000000" points="166,-.5 166,-30.5 281,-30.5 281,-.5 166,-.5"/>
<text text-anchor="start" x="174" y="-18.5" font-family="Helvetica,sans-Serif" font-size="10.00" fill="#000000">omc_ExpandableArray</text>
<text text-anchor="middle" x="223.5" y="-7.5" font-family="Helvetica,sans-Serif" font-size="10.00" fill="#000000">_getLastUsedIndex</text>
</a>
</g>
</g>
<!-- Node483&#45;&gt;Node484 -->
<g id="edge1" class="edge">
<title>Node483&#45;&gt;Node484</title>
<path fill="none" stroke="#191970" d="M130.3831,-15.5C138.7493,-15.5 147.3284,-15.5 155.7315,-15.5"/>
<polygon fill="#191970" stroke="#191970" points="155.8681,-19.0001 165.8681,-15.5 155.868,-12.0001 155.8681,-19.0001"/>
</g>
</g>
</svg>
