<?xml version="1.0" encoding="UTF-8" standalone="no"?>
<!DOCTYPE svg PUBLIC "-//W3C//DTD SVG 1.1//EN"
 "http://www.w3.org/Graphics/SVG/1.1/DTD/svg11.dtd">
<!-- Generated by graphviz version 2.40.1 (20161225.0304)
 -->
<!-- Title: IDAReInit Pages: 1 -->
<svg width="322pt" height="104pt"
 viewBox="0.00 0.00 322.00 104.00" xmlns="http://www.w3.org/2000/svg" xmlns:xlink="http://www.w3.org/1999/xlink">
<g id="graph0" class="graph" transform="scale(1 1) rotate(0) translate(4 100)">
<title>IDAReInit</title>
<polygon fill="#ffffff" stroke="transparent" points="-4,4 -4,-100 318,-100 318,4 -4,4"/>
<!-- Node101 -->
<g id="node1" class="node">
<title>Node101</title>
<polygon fill="#bfbfbf" stroke="#000000" points="0,-38.5 0,-57.5 60,-57.5 60,-38.5 0,-38.5"/>
<text text-anchor="middle" x="30" y="-45.5" font-family="Helvetica,sans-Serif" font-size="10.00" fill="#000000">IDAReInit</text>
</g>
<!-- Node102 -->
<g id="node2" class="node">
<title>Node102</title>
<g id="a_node2"><a xlink:href="../../d9/dde/fida_8h.html#ab2334f07f4b1ef687ad44c131b631400" target="_top" xlink:title="FIDA_REINIT">
<polygon fill="#ffffff" stroke="#000000" points="96,-76.5 96,-95.5 175,-95.5 175,-76.5 96,-76.5"/>
<text text-anchor="middle" x="135.5" y="-83.5" font-family="Helvetica,sans-Serif" font-size="10.00" fill="#000000">FIDA_REINIT</text>
</a>
</g>
</g>
<!-- Node101&#45;&gt;Node102 -->
<g id="edge1" class="edge">
<title>Node101&#45;&gt;Node102</title>
<path fill="none" stroke="#191970" d="M66.4197,-61.118C80.3733,-66.1439 96.0183,-71.7791 108.8864,-76.4141"/>
<polygon fill="#191970" stroke="#191970" points="67.2165,-57.6849 56.6221,-57.589 64.8443,-64.2708 67.2165,-57.6849"/>
</g>
<!-- Node103 -->
<g id="node3" class="node">
<title>Node103</title>
<g id="a_node3"><a xlink:href="../../de/ddc/build_2include_2omc_2c_2sundials_2idas_2idas_8h.html#a7c4fdaabb373f71d444f6bcd3b509684" target="_top" xlink:title="IDAReInitB">
<polygon fill="#ffffff" stroke="#000000" points="102,-38.5 102,-57.5 169,-57.5 169,-38.5 102,-38.5"/>
<text text-anchor="middle" x="135.5" y="-45.5" font-family="Helvetica,sans-Serif" font-size="10.00" fill="#000000">IDAReInitB</text>
</a>
</g>
</g>
<!-- Node101&#45;&gt;Node103 -->
<g id="edge2" class="edge">
<title>Node101&#45;&gt;Node103</title>
<path fill="none" stroke="#191970" d="M70.3628,-48C80.7866,-48 91.8944,-48 101.93,-48"/>
<polygon fill="#191970" stroke="#191970" points="70.2321,-44.5001 60.2321,-48 70.232,-51.5001 70.2321,-44.5001"/>
</g>
<!-- Node104 -->
<g id="node4" class="node">
<title>Node104</title>
<g id="a_node4"><a xlink:href="../../d1/d0d/class_ida.html#a289cf95889af136a4bb11e4c537daa78" target="_top" xlink:title="Berechung der numerischen Lösung innerhalb eines gegebenen Zeitintervalls. ">
<polygon fill="#ffffff" stroke="#000000" points="106,-.5 106,-19.5 165,-19.5 165,-.5 106,-.5"/>
<text text-anchor="middle" x="135.5" y="-7.5" font-family="Helvetica,sans-Serif" font-size="10.00" fill="#000000">Ida::solve</text>
</a>
</g>
</g>
<!-- Node101&#45;&gt;Node104 -->
<g id="edge3" class="edge">
<title>Node101&#45;&gt;Node104</title>
<path fill="none" stroke="#191970" d="M66.4197,-34.882C80.3733,-29.8561 96.0183,-24.2209 108.8864,-19.5859"/>
<polygon fill="#191970" stroke="#191970" points="64.8443,-31.7292 56.6221,-38.411 67.2165,-38.3151 64.8443,-31.7292"/>
</g>
<!-- Node105 -->
<g id="node5" class="node">
<title>Node105</title>
<g id="a_node5"><a xlink:href="../../d1/d0d/class_ida.html#ad186bf83203716276cc87d63dcac2cec" target="_top" xlink:title="Setzen der initialen Schrittweite (z.B. auch nach Nullstelle) ">
<polygon fill="#ffffff" stroke="#000000" points="211,-.5 211,-19.5 314,-19.5 314,-.5 211,-.5"/>
<text text-anchor="middle" x="262.5" y="-7.5" font-family="Helvetica,sans-Serif" font-size="10.00" fill="#000000">Ida::setInitStepSize</text>
</a>
</g>
</g>
<!-- Node104&#45;&gt;Node105 -->
<g id="edge4" class="edge">
<title>Node104&#45;&gt;Node105</title>
<path fill="none" stroke="#191970" d="M175.5845,-10C186.7528,-10 199.0448,-10 210.7806,-10"/>
<polygon fill="#191970" stroke="#191970" points="175.2759,-6.5001 165.2759,-10 175.2758,-13.5001 175.2759,-6.5001"/>
</g>
</g>
</svg>
