<?xml version="1.0" encoding="UTF-8" standalone="no"?>
<!DOCTYPE svg PUBLIC "-//W3C//DTD SVG 1.1//EN"
 "http://www.w3.org/Graphics/SVG/1.1/DTD/svg11.dtd">
<!-- Generated by graphviz version 2.40.1 (20161225.0304)
 -->
<!-- Title: omc_CodegenUtilSimulation_dumpWhenOps Pages: 1 -->
<svg width="324pt" height="57pt"
 viewBox="0.00 0.00 324.00 57.00" xmlns="http://www.w3.org/2000/svg" xmlns:xlink="http://www.w3.org/1999/xlink">
<g id="graph0" class="graph" transform="scale(1 1) rotate(0) translate(4 53)">
<title>omc_CodegenUtilSimulation_dumpWhenOps</title>
<polygon fill="#ffffff" stroke="transparent" points="-4,4 -4,-53 320,-53 320,4 -4,4"/>
<!-- Node358 -->
<g id="node1" class="node">
<title>Node358</title>
<polygon fill="#bfbfbf" stroke="#000000" points="0,-.5 0,-30.5 140,-30.5 140,-.5 0,-.5"/>
<text text-anchor="start" x="8" y="-18.5" font-family="Helvetica,sans-Serif" font-size="10.00" fill="#000000">omc_CodegenUtilSimulation</text>
<text text-anchor="middle" x="70" y="-7.5" font-family="Helvetica,sans-Serif" font-size="10.00" fill="#000000">_dumpWhenOps</text>
</g>
<!-- Node359 -->
<g id="node2" class="node">
<title>Node359</title>
<g id="a_node2"><a xlink:href="../../df/d6d/_codegen_util_simulation_8h.html#a46e613e9b740e3aeb82cfb170812d8cc" target="_top" xlink:title="omc_CodegenUtilSimulation\l_dumpWhenOps">
<polygon fill="#ffffff" stroke="#000000" points="176,-.5 176,-30.5 316,-30.5 316,-.5 176,-.5"/>
<text text-anchor="start" x="184" y="-18.5" font-family="Helvetica,sans-Serif" font-size="10.00" fill="#000000">omc_CodegenUtilSimulation</text>
<text text-anchor="middle" x="246" y="-7.5" font-family="Helvetica,sans-Serif" font-size="10.00" fill="#000000">_dumpWhenOps</text>
</a>
</g>
</g>
<!-- Node358&#45;&gt;Node359 -->
<g id="edge1" class="edge">
<title>Node358&#45;&gt;Node359</title>
<path fill="none" stroke="#191970" d="M150.1006,-15.5C158.7058,-15.5 167.4124,-15.5 175.888,-15.5"/>
<polygon fill="#191970" stroke="#191970" points="150.0656,-12.0001 140.0656,-15.5 150.0655,-19.0001 150.0656,-12.0001"/>
</g>
<!-- Node359&#45;&gt;Node359 -->
<g id="edge2" class="edge">
<title>Node359&#45;&gt;Node359</title>
<path fill="none" stroke="#191970" d="M214.7269,-40.9579C218.6084,-45.679 229.0327,-49 246,-49 273.8438,-49 284.0676,-40.0566 276.6716,-30.659"/>
<polygon fill="#191970" stroke="#191970" points="218.2393,-40.8461 215.3284,-30.659 211.2512,-40.4379 218.2393,-40.8461"/>
</g>
</g>
</svg>
