<?xml version="1.0" encoding="UTF-8" standalone="no"?>
<!DOCTYPE svg PUBLIC "-//W3C//DTD SVG 1.1//EN"
 "http://www.w3.org/Graphics/SVG/1.1/DTD/svg11.dtd">
<!-- Generated by graphviz version 2.40.1 (20161225.0304)
 -->
<!-- Title: boxptr_OperatorOverloading_AvlTreePathPathEnv_hasKey Pages: 1 -->
<svg width="927pt" height="39pt"
 viewBox="0.00 0.00 927.00 39.00" xmlns="http://www.w3.org/2000/svg" xmlns:xlink="http://www.w3.org/1999/xlink">
<g id="graph0" class="graph" transform="scale(1 1) rotate(0) translate(4 35)">
<title>boxptr_OperatorOverloading_AvlTreePathPathEnv_hasKey</title>
<polygon fill="#ffffff" stroke="transparent" points="-4,4 -4,-35 923,-35 923,4 -4,4"/>
<!-- Node35 -->
<g id="node1" class="node">
<title>Node35</title>
<polygon fill="#bfbfbf" stroke="#000000" points="0,-.5 0,-30.5 152,-30.5 152,-.5 0,-.5"/>
<text text-anchor="start" x="8" y="-18.5" font-family="Helvetica,sans-Serif" font-size="10.00" fill="#000000">boxptr_OperatorOverloading</text>
<text text-anchor="middle" x="76" y="-7.5" font-family="Helvetica,sans-Serif" font-size="10.00" fill="#000000">_AvlTreePathPathEnv_hasKey</text>
</g>
<!-- Node36 -->
<g id="node2" class="node">
<title>Node36</title>
<g id="a_node2"><a xlink:href="../../d1/dda/_operator_overloading_8c.html#ad2689db2d8c0469acd1ec1b053f0357a" target="_top" xlink:title="omc_OperatorOverloading\l_AvlTreePathPathEnv_hasKey">
<polygon fill="#ffffff" stroke="#000000" points="188,-.5 188,-30.5 340,-30.5 340,-.5 188,-.5"/>
<text text-anchor="start" x="196" y="-18.5" font-family="Helvetica,sans-Serif" font-size="10.00" fill="#000000">omc_OperatorOverloading</text>
<text text-anchor="middle" x="264" y="-7.5" font-family="Helvetica,sans-Serif" font-size="10.00" fill="#000000">_AvlTreePathPathEnv_hasKey</text>
</a>
</g>
</g>
<!-- Node35&#45;&gt;Node36 -->
<g id="edge1" class="edge">
<title>Node35&#45;&gt;Node36</title>
<path fill="none" stroke="#191970" d="M152.1958,-15.5C160.5174,-15.5 169.0322,-15.5 177.4663,-15.5"/>
<polygon fill="#191970" stroke="#191970" points="177.6958,-19.0001 187.6957,-15.5 177.6957,-12.0001 177.6958,-19.0001"/>
</g>
<!-- Node37 -->
<g id="node3" class="node">
<title>Node37</title>
<g id="a_node3"><a xlink:href="../../d1/dda/_operator_overloading_8c.html#a6fddbcb4cb40e969f33966c60eab578e" target="_top" xlink:title="omc_OperatorOverloading\l_AvlTreePathPathEnv_keyCompare">
<polygon fill="#ffffff" stroke="#000000" points="376,-.5 376,-30.5 550,-30.5 550,-.5 376,-.5"/>
<text text-anchor="start" x="384" y="-18.5" font-family="Helvetica,sans-Serif" font-size="10.00" fill="#000000">omc_OperatorOverloading</text>
<text text-anchor="middle" x="463" y="-7.5" font-family="Helvetica,sans-Serif" font-size="10.00" fill="#000000">_AvlTreePathPathEnv_keyCompare</text>
</a>
</g>
</g>
<!-- Node36&#45;&gt;Node37 -->
<g id="edge2" class="edge">
<title>Node36&#45;&gt;Node37</title>
<path fill="none" stroke="#191970" d="M340.0852,-15.5C348.5236,-15.5 357.2002,-15.5 365.8531,-15.5"/>
<polygon fill="#191970" stroke="#191970" points="365.9843,-19.0001 375.9843,-15.5 365.9842,-12.0001 365.9843,-19.0001"/>
</g>
<!-- Node38 -->
<g id="node4" class="node">
<title>Node38</title>
<g id="a_node4"><a xlink:href="../../d0/d78/_absyn_8c.html#aaf4b6f18b688ef52a1493e79052276f1" target="_top" xlink:title="omc_Absyn_pathCompareNoQual">
<polygon fill="#ffffff" stroke="#000000" points="586,-6 586,-25 751,-25 751,-6 586,-6"/>
<text text-anchor="middle" x="668.5" y="-13" font-family="Helvetica,sans-Serif" font-size="10.00" fill="#000000">omc_Absyn_pathCompareNoQual</text>
</a>
</g>
</g>
<!-- Node37&#45;&gt;Node38 -->
<g id="edge3" class="edge">
<title>Node37&#45;&gt;Node38</title>
<path fill="none" stroke="#191970" d="M550.1505,-15.5C558.5498,-15.5 567.0915,-15.5 575.544,-15.5"/>
<polygon fill="#191970" stroke="#191970" points="575.7944,-19.0001 585.7943,-15.5 575.7943,-12.0001 575.7944,-19.0001"/>
</g>
<!-- Node39 -->
<g id="node5" class="node">
<title>Node39</title>
<g id="a_node5"><a xlink:href="../../d0/d78/_absyn_8c.html#a32967c17d7e54d1e80801db59aa80bb5" target="_top" xlink:title="omc_Absyn_pathCompare">
<polygon fill="#ffffff" stroke="#000000" points="787,-6 787,-25 919,-25 919,-6 787,-6"/>
<text text-anchor="middle" x="853" y="-13" font-family="Helvetica,sans-Serif" font-size="10.00" fill="#000000">omc_Absyn_pathCompare</text>
</a>
</g>
</g>
<!-- Node38&#45;&gt;Node39 -->
<g id="edge4" class="edge">
<title>Node38&#45;&gt;Node39</title>
<path fill="none" stroke="#191970" d="M751.0365,-15.5C759.5629,-15.5 768.2013,-15.5 776.6558,-15.5"/>
<polygon fill="#191970" stroke="#191970" points="776.8575,-19.0001 786.8575,-15.5 776.8574,-12.0001 776.8575,-19.0001"/>
</g>
</g>
</svg>
