<?xml version="1.0" encoding="UTF-8" standalone="no"?>
<!DOCTYPE svg PUBLIC "-//W3C//DTD SVG 1.1//EN"
 "http://www.w3.org/Graphics/SVG/1.1/DTD/svg11.dtd">
<!-- Generated by graphviz version 2.40.1 (20161225.0304)
 -->
<!-- Title: boxptr_OperatorOverloading_AvlTreePathPathEnv_calculateBalance Pages: 1 -->
<svg width="576pt" height="50pt"
 viewBox="0.00 0.00 576.00 50.00" xmlns="http://www.w3.org/2000/svg" xmlns:xlink="http://www.w3.org/1999/xlink">
<g id="graph0" class="graph" transform="scale(1 1) rotate(0) translate(4 46)">
<title>boxptr_OperatorOverloading_AvlTreePathPathEnv_calculateBalance</title>
<polygon fill="#ffffff" stroke="transparent" points="-4,4 -4,-46 572,-46 572,4 -4,4"/>
<!-- Node31 -->
<g id="node1" class="node">
<title>Node31</title>
<polygon fill="#bfbfbf" stroke="#000000" points="0,-6 0,-36 193,-36 193,-6 0,-6"/>
<text text-anchor="start" x="8" y="-24" font-family="Helvetica,sans-Serif" font-size="10.00" fill="#000000">boxptr_OperatorOverloading</text>
<text text-anchor="middle" x="96.5" y="-13" font-family="Helvetica,sans-Serif" font-size="10.00" fill="#000000">_AvlTreePathPathEnv_calculateBalance</text>
</g>
<!-- Node32 -->
<g id="node2" class="node">
<title>Node32</title>
<g id="a_node2"><a xlink:href="../../d1/dda/_operator_overloading_8c.html#ad67cd1e9d89d057e7a08e23f993e5b92" target="_top" xlink:title="omc_OperatorOverloading\l_AvlTreePathPathEnv_calculate\lBalance">
<polygon fill="#ffffff" stroke="#000000" points="229,-.5 229,-41.5 387,-41.5 387,-.5 229,-.5"/>
<text text-anchor="start" x="237" y="-29.5" font-family="Helvetica,sans-Serif" font-size="10.00" fill="#000000">omc_OperatorOverloading</text>
<text text-anchor="start" x="237" y="-18.5" font-family="Helvetica,sans-Serif" font-size="10.00" fill="#000000">_AvlTreePathPathEnv_calculate</text>
<text text-anchor="middle" x="308" y="-7.5" font-family="Helvetica,sans-Serif" font-size="10.00" fill="#000000">Balance</text>
</a>
</g>
</g>
<!-- Node31&#45;&gt;Node32 -->
<g id="edge1" class="edge">
<title>Node31&#45;&gt;Node32</title>
<path fill="none" stroke="#191970" d="M193.275,-21C201.7039,-21 210.2094,-21 218.5752,-21"/>
<polygon fill="#191970" stroke="#191970" points="218.6958,-24.5001 228.6958,-21 218.6958,-17.5001 218.6958,-24.5001"/>
</g>
<!-- Node33 -->
<g id="node3" class="node">
<title>Node33</title>
<g id="a_node3"><a xlink:href="../../d1/dda/_operator_overloading_8c.html#a4a9df9edc5ebd3cc5fd2213f15ca3c53" target="_top" xlink:title="omc_OperatorOverloading\l_AvlTreePathPathEnv_height">
<polygon fill="#ffffff" stroke="#000000" points="423,-6 423,-36 568,-36 568,-6 423,-6"/>
<text text-anchor="start" x="431" y="-24" font-family="Helvetica,sans-Serif" font-size="10.00" fill="#000000">omc_OperatorOverloading</text>
<text text-anchor="middle" x="495.5" y="-13" font-family="Helvetica,sans-Serif" font-size="10.00" fill="#000000">_AvlTreePathPathEnv_height</text>
</a>
</g>
</g>
<!-- Node32&#45;&gt;Node33 -->
<g id="edge2" class="edge">
<title>Node32&#45;&gt;Node33</title>
<path fill="none" stroke="#191970" d="M387.2451,-21C395.6298,-21 404.173,-21 412.5978,-21"/>
<polygon fill="#191970" stroke="#191970" points="412.7969,-24.5001 422.7969,-21 412.7969,-17.5001 412.7969,-24.5001"/>
</g>
</g>
</svg>
