<?xml version="1.0" encoding="UTF-8" standalone="no"?>
<!DOCTYPE svg PUBLIC "-//W3C//DTD SVG 1.1//EN"
 "http://www.w3.org/Graphics/SVG/1.1/DTD/svg11.dtd">
<!-- Generated by graphviz version 2.40.1 (20161225.0304)
 -->
<!-- Title: omc_OperatorOverloading_makeEnumOperator Pages: 1 -->
<svg width="317pt" height="66pt"
 viewBox="0.00 0.00 317.00 66.00" xmlns="http://www.w3.org/2000/svg" xmlns:xlink="http://www.w3.org/1999/xlink">
<g id="graph0" class="graph" transform="scale(1 1) rotate(0) translate(4 62)">
<title>omc_OperatorOverloading_makeEnumOperator</title>
<polygon fill="#ffffff" stroke="transparent" points="-4,4 -4,-62 313,-62 313,4 -4,4"/>
<!-- Node1767 -->
<g id="node1" class="node">
<title>Node1767</title>
<polygon fill="#bfbfbf" stroke="#000000" points="0,-14 0,-44 130,-44 130,-14 0,-14"/>
<text text-anchor="start" x="8" y="-32" font-family="Helvetica,sans-Serif" font-size="10.00" fill="#000000">omc_OperatorOverloading</text>
<text text-anchor="middle" x="65" y="-21" font-family="Helvetica,sans-Serif" font-size="10.00" fill="#000000">_makeEnumOperator</text>
</g>
<!-- Node1768 -->
<g id="node2" class="node">
<title>Node1768</title>
<g id="a_node2"><a xlink:href="../../d3/df6/_types_8c.html#a542c2b0c2c89b37d875447805159497a" target="_top" xlink:title="omc_Types_simplifyType">
<polygon fill="#ffffff" stroke="#000000" points="173.5,-38.5 173.5,-57.5 301.5,-57.5 301.5,-38.5 173.5,-38.5"/>
<text text-anchor="middle" x="237.5" y="-45.5" font-family="Helvetica,sans-Serif" font-size="10.00" fill="#000000">omc_Types_simplifyType</text>
</a>
</g>
</g>
<!-- Node1767&#45;&gt;Node1768 -->
<g id="edge1" class="edge">
<title>Node1767&#45;&gt;Node1768</title>
<path fill="none" stroke="#191970" d="M130.2149,-36.1831C141.0258,-37.3739 152.3063,-38.6163 163.319,-39.8293"/>
<polygon fill="#191970" stroke="#191970" points="163.0132,-43.3167 173.3363,-40.9327 163.7797,-36.3588 163.0132,-43.3167"/>
</g>
<!-- Node1769 -->
<g id="node3" class="node">
<title>Node1769</title>
<g id="a_node3"><a xlink:href="../../d1/d08/_expression_8c.html#a5a60b5bdd097fd30eae93ba76cf88bc5" target="_top" xlink:title="omc_Expression_setOpType">
<polygon fill="#ffffff" stroke="#000000" points="166,-.5 166,-19.5 309,-19.5 309,-.5 166,-.5"/>
<text text-anchor="middle" x="237.5" y="-7.5" font-family="Helvetica,sans-Serif" font-size="10.00" fill="#000000">omc_Expression_setOpType</text>
</a>
</g>
</g>
<!-- Node1767&#45;&gt;Node1769 -->
<g id="edge2" class="edge">
<title>Node1767&#45;&gt;Node1769</title>
<path fill="none" stroke="#191970" d="M130.2149,-21.8169C138.581,-20.8954 147.2283,-19.943 155.8151,-18.9972"/>
<polygon fill="#191970" stroke="#191970" points="156.2903,-22.4661 165.847,-17.8922 155.5239,-15.5082 156.2903,-22.4661"/>
</g>
</g>
</svg>
