<?xml version="1.0" encoding="UTF-8" standalone="no"?>
<!DOCTYPE svg PUBLIC "-//W3C//DTD SVG 1.1//EN"
 "http://www.w3.org/Graphics/SVG/1.1/DTD/svg11.dtd">
<!-- Generated by graphviz version 2.40.1 (20161225.0304)
 -->
<!-- Title: omc_OperatorOverloading_AvlTreePathPathEnv_getOpt Pages: 1 -->
<svg width="735pt" height="39pt"
 viewBox="0.00 0.00 735.00 39.00" xmlns="http://www.w3.org/2000/svg" xmlns:xlink="http://www.w3.org/1999/xlink">
<g id="graph0" class="graph" transform="scale(1 1) rotate(0) translate(4 35)">
<title>omc_OperatorOverloading_AvlTreePathPathEnv_getOpt</title>
<polygon fill="#ffffff" stroke="transparent" points="-4,4 -4,-35 731,-35 731,4 -4,4"/>
<!-- Node635 -->
<g id="node1" class="node">
<title>Node635</title>
<polygon fill="#bfbfbf" stroke="#000000" points="0,-.5 0,-30.5 148,-30.5 148,-.5 0,-.5"/>
<text text-anchor="start" x="8" y="-18.5" font-family="Helvetica,sans-Serif" font-size="10.00" fill="#000000">omc_OperatorOverloading</text>
<text text-anchor="middle" x="74" y="-7.5" font-family="Helvetica,sans-Serif" font-size="10.00" fill="#000000">_AvlTreePathPathEnv_getOpt</text>
</g>
<!-- Node636 -->
<g id="node2" class="node">
<title>Node636</title>
<g id="a_node2"><a xlink:href="../../d1/dda/_operator_overloading_8c.html#a6fddbcb4cb40e969f33966c60eab578e" target="_top" xlink:title="omc_OperatorOverloading\l_AvlTreePathPathEnv_keyCompare">
<polygon fill="#ffffff" stroke="#000000" points="184,-.5 184,-30.5 358,-30.5 358,-.5 184,-.5"/>
<text text-anchor="start" x="192" y="-18.5" font-family="Helvetica,sans-Serif" font-size="10.00" fill="#000000">omc_OperatorOverloading</text>
<text text-anchor="middle" x="271" y="-7.5" font-family="Helvetica,sans-Serif" font-size="10.00" fill="#000000">_AvlTreePathPathEnv_keyCompare</text>
</a>
</g>
</g>
<!-- Node635&#45;&gt;Node636 -->
<g id="edge1" class="edge">
<title>Node635&#45;&gt;Node636</title>
<path fill="none" stroke="#191970" d="M148.1965,-15.5C156.5847,-15.5 165.2236,-15.5 173.8487,-15.5"/>
<polygon fill="#191970" stroke="#191970" points="173.9517,-19.0001 183.9517,-15.5 173.9517,-12.0001 173.9517,-19.0001"/>
</g>
<!-- Node637 -->
<g id="node3" class="node">
<title>Node637</title>
<g id="a_node3"><a xlink:href="../../d0/d78/_absyn_8c.html#aaf4b6f18b688ef52a1493e79052276f1" target="_top" xlink:title="omc_Absyn_pathCompareNoQual">
<polygon fill="#ffffff" stroke="#000000" points="394,-6 394,-25 559,-25 559,-6 394,-6"/>
<text text-anchor="middle" x="476.5" y="-13" font-family="Helvetica,sans-Serif" font-size="10.00" fill="#000000">omc_Absyn_pathCompareNoQual</text>
</a>
</g>
</g>
<!-- Node636&#45;&gt;Node637 -->
<g id="edge2" class="edge">
<title>Node636&#45;&gt;Node637</title>
<path fill="none" stroke="#191970" d="M358.1505,-15.5C366.5498,-15.5 375.0915,-15.5 383.544,-15.5"/>
<polygon fill="#191970" stroke="#191970" points="383.7944,-19.0001 393.7943,-15.5 383.7943,-12.0001 383.7944,-19.0001"/>
</g>
<!-- Node638 -->
<g id="node4" class="node">
<title>Node638</title>
<g id="a_node4"><a xlink:href="../../d0/d78/_absyn_8c.html#a32967c17d7e54d1e80801db59aa80bb5" target="_top" xlink:title="omc_Absyn_pathCompare">
<polygon fill="#ffffff" stroke="#000000" points="595,-6 595,-25 727,-25 727,-6 595,-6"/>
<text text-anchor="middle" x="661" y="-13" font-family="Helvetica,sans-Serif" font-size="10.00" fill="#000000">omc_Absyn_pathCompare</text>
</a>
</g>
</g>
<!-- Node637&#45;&gt;Node638 -->
<g id="edge3" class="edge">
<title>Node637&#45;&gt;Node638</title>
<path fill="none" stroke="#191970" d="M559.0365,-15.5C567.5629,-15.5 576.2013,-15.5 584.6558,-15.5"/>
<polygon fill="#191970" stroke="#191970" points="584.8575,-19.0001 594.8575,-15.5 584.8574,-12.0001 584.8575,-19.0001"/>
</g>
</g>
</svg>
