<?xml version="1.0" encoding="UTF-8" standalone="no"?>
<!DOCTYPE svg PUBLIC "-//W3C//DTD SVG 1.1//EN"
 "http://www.w3.org/Graphics/SVG/1.1/DTD/svg11.dtd">
<!-- Generated by graphviz version 2.40.1 (20161225.0304)
 -->
<!-- Title: clone_extra_repos.injectCmndLineOptionsInParser Pages: 1 -->
<svg width="314pt" height="39pt"
 viewBox="0.00 0.00 314.00 39.00" xmlns="http://www.w3.org/2000/svg" xmlns:xlink="http://www.w3.org/1999/xlink">
<g id="graph0" class="graph" transform="scale(1 1) rotate(0) translate(4 35)">
<title>clone_extra_repos.injectCmndLineOptionsInParser</title>
<polygon fill="#ffffff" stroke="transparent" points="-4,4 -4,-35 310,-35 310,4 -4,4"/>
<!-- Node245 -->
<g id="node1" class="node">
<title>Node245</title>
<polygon fill="#bfbfbf" stroke="#000000" points="0,-.5 0,-30.5 131,-30.5 131,-.5 0,-.5"/>
<text text-anchor="start" x="8" y="-18.5" font-family="Helvetica,sans-Serif" font-size="10.00" fill="#000000">clone_extra_repos.inject</text>
<text text-anchor="middle" x="65.5" y="-7.5" font-family="Helvetica,sans-Serif" font-size="10.00" fill="#000000">CmndLineOptionsInParser</text>
</g>
<!-- Node246 -->
<g id="node2" class="node">
<title>Node246</title>
<g id="a_node2"><a xlink:href="../../d1/dda/namespaceclone__extra__repos.html#a5a46b5986b482b92d4216be886e33690" target="_top" xlink:title="clone_extra_repos.getCmnd\lLineOptions">
<polygon fill="#ffffff" stroke="#000000" points="167,-.5 167,-30.5 306,-30.5 306,-.5 167,-.5"/>
<text text-anchor="start" x="175" y="-18.5" font-family="Helvetica,sans-Serif" font-size="10.00" fill="#000000">clone_extra_repos.getCmnd</text>
<text text-anchor="middle" x="236.5" y="-7.5" font-family="Helvetica,sans-Serif" font-size="10.00" fill="#000000">LineOptions</text>
</a>
</g>
</g>
<!-- Node245&#45;&gt;Node246 -->
<g id="edge1" class="edge">
<title>Node245&#45;&gt;Node246</title>
<path fill="none" stroke="#191970" d="M141.3605,-15.5C149.8231,-15.5 158.4132,-15.5 166.7936,-15.5"/>
<polygon fill="#191970" stroke="#191970" points="141.124,-12.0001 131.124,-15.5 141.124,-19.0001 141.124,-12.0001"/>
</g>
</g>
</svg>
