<?xml version="1.0" encoding="UTF-8" standalone="no"?>
<!DOCTYPE svg PUBLIC "-//W3C//DTD SVG 1.1//EN"
 "http://www.w3.org/Graphics/SVG/1.1/DTD/svg11.dtd">
<!-- Generated by graphviz version 2.40.1 (20161225.0304)
 -->
<!-- Title: ocl_device_alloc Pages: 1 -->
<svg width="219pt" height="66pt"
 viewBox="0.00 0.00 219.00 66.00" xmlns="http://www.w3.org/2000/svg" xmlns:xlink="http://www.w3.org/1999/xlink">
<g id="graph0" class="graph" transform="scale(1 1) rotate(0) translate(4 62)">
<title>ocl_device_alloc</title>
<polygon fill="#ffffff" stroke="transparent" points="-4,4 -4,-62 215,-62 215,4 -4,4"/>
<!-- Node50 -->
<g id="node1" class="node">
<title>Node50</title>
<polygon fill="#bfbfbf" stroke="#000000" points="0,-19.5 0,-38.5 89,-38.5 89,-19.5 0,-19.5"/>
<text text-anchor="middle" x="44.5" y="-26.5" font-family="Helvetica,sans-Serif" font-size="10.00" fill="#000000">ocl_device_alloc</text>
</g>
<!-- Node51 -->
<g id="node2" class="node">
<title>Node51</title>
<g id="a_node2"><a xlink:href="../../de/d9c/ocl__offcomp_8cpp.html#ab5e6cad093122a51f84ea647b2d133eb" target="_top" xlink:title="ocl_initialize">
<polygon fill="#ffffff" stroke="#000000" points="133,-38.5 133,-57.5 203,-57.5 203,-38.5 133,-38.5"/>
<text text-anchor="middle" x="168" y="-45.5" font-family="Helvetica,sans-Serif" font-size="10.00" fill="#000000">ocl_initialize</text>
</a>
</g>
</g>
<!-- Node50&#45;&gt;Node51 -->
<g id="edge1" class="edge">
<title>Node50&#45;&gt;Node51</title>
<path fill="none" stroke="#191970" d="M89.0863,-35.8594C99.977,-37.5349 111.6413,-39.3294 122.5708,-41.0109"/>
<polygon fill="#191970" stroke="#191970" points="122.3592,-44.5194 132.7751,-42.5808 123.4236,-37.6008 122.3592,-44.5194"/>
</g>
<!-- Node52 -->
<g id="node3" class="node">
<title>Node52</title>
<g id="a_node3"><a xlink:href="../../de/d9c/ocl__offcomp_8cpp.html#ac55b73307a1322d29e0d2370c701388c" target="_top" xlink:title="ocl_error_check">
<polygon fill="#ffffff" stroke="#000000" points="125,-.5 125,-19.5 211,-19.5 211,-.5 125,-.5"/>
<text text-anchor="middle" x="168" y="-7.5" font-family="Helvetica,sans-Serif" font-size="10.00" fill="#000000">ocl_error_check</text>
</a>
</g>
</g>
<!-- Node50&#45;&gt;Node52 -->
<g id="edge2" class="edge">
<title>Node50&#45;&gt;Node52</title>
<path fill="none" stroke="#191970" d="M89.0863,-22.1406C97.4292,-20.857 106.2261,-19.5037 114.7989,-18.1848"/>
<polygon fill="#191970" stroke="#191970" points="115.3675,-21.6386 124.719,-16.6586 114.303,-14.72 115.3675,-21.6386"/>
</g>
</g>
</svg>
