<?xml version="1.0" encoding="UTF-8" standalone="no"?>
<!DOCTYPE svg PUBLIC "-//W3C//DTD SVG 1.1//EN"
 "http://www.w3.org/Graphics/SVG/1.1/DTD/svg11.dtd">
<!-- Generated by graphviz version 2.40.1 (20161225.0304)
 -->
<!-- Title: ocl_alloc_init_integer_arr Pages: 1 -->
<svg width="254pt" height="66pt"
 viewBox="0.00 0.00 254.00 66.00" xmlns="http://www.w3.org/2000/svg" xmlns:xlink="http://www.w3.org/1999/xlink">
<g id="graph0" class="graph" transform="scale(1 1) rotate(0) translate(4 62)">
<title>ocl_alloc_init_integer_arr</title>
<polygon fill="#ffffff" stroke="transparent" points="-4,4 -4,-62 250,-62 250,4 -4,4"/>
<!-- Node4 -->
<g id="node1" class="node">
<title>Node4</title>
<polygon fill="#bfbfbf" stroke="#000000" points="0,-19.5 0,-38.5 124,-38.5 124,-19.5 0,-19.5"/>
<text text-anchor="middle" x="62" y="-26.5" font-family="Helvetica,sans-Serif" font-size="10.00" fill="#000000">ocl_alloc_init_integer_arr</text>
</g>
<!-- Node5 -->
<g id="node2" class="node">
<title>Node5</title>
<g id="a_node2"><a xlink:href="../../de/d9c/ocl__offcomp_8cpp.html#ab5e6cad093122a51f84ea647b2d133eb" target="_top" xlink:title="ocl_initialize">
<polygon fill="#ffffff" stroke="#000000" points="168,-38.5 168,-57.5 238,-57.5 238,-38.5 168,-38.5"/>
<text text-anchor="middle" x="203" y="-45.5" font-family="Helvetica,sans-Serif" font-size="10.00" fill="#000000">ocl_initialize</text>
</a>
</g>
</g>
<!-- Node4&#45;&gt;Node5 -->
<g id="edge1" class="edge">
<title>Node4&#45;&gt;Node5</title>
<path fill="none" stroke="#191970" d="M124.2551,-37.389C135.5482,-38.9107 147.1274,-40.4711 157.8122,-41.9109"/>
<polygon fill="#191970" stroke="#191970" points="157.3659,-45.3823 167.7437,-43.2492 158.3007,-38.445 157.3659,-45.3823"/>
</g>
<!-- Node6 -->
<g id="node3" class="node">
<title>Node6</title>
<g id="a_node3"><a xlink:href="../../de/d9c/ocl__offcomp_8cpp.html#ac55b73307a1322d29e0d2370c701388c" target="_top" xlink:title="ocl_error_check">
<polygon fill="#ffffff" stroke="#000000" points="160,-.5 160,-19.5 246,-19.5 246,-.5 160,-.5"/>
<text text-anchor="middle" x="203" y="-7.5" font-family="Helvetica,sans-Serif" font-size="10.00" fill="#000000">ocl_error_check</text>
</a>
</g>
</g>
<!-- Node4&#45;&gt;Node6 -->
<g id="edge2" class="edge">
<title>Node4&#45;&gt;Node6</title>
<path fill="none" stroke="#191970" d="M124.2551,-20.611C132.7517,-19.4661 141.4103,-18.2993 149.728,-17.1785"/>
<polygon fill="#191970" stroke="#191970" points="150.2281,-20.6428 159.671,-15.8387 149.2932,-13.7055 150.2281,-20.6428"/>
</g>
</g>
</svg>
