<?xml version="1.0" encoding="UTF-8" standalone="no"?>
<!DOCTYPE svg PUBLIC "-//W3C//DTD SVG 1.1//EN"
 "http://www.w3.org/Graphics/SVG/1.1/DTD/svg11.dtd">
<!-- Generated by graphviz version 2.40.1 (20161225.0304)
 -->
<!-- Title: MLVec::getptr Pages: 1 -->
<svg width="999pt" height="301pt"
 viewBox="0.00 0.00 999.00 301.07" xmlns="http://www.w3.org/2000/svg" xmlns:xlink="http://www.w3.org/1999/xlink">
<g id="graph0" class="graph" transform="scale(1 1) rotate(0) translate(4 297.0665)">
<title>MLVec::getptr</title>
<polygon fill="#ffffff" stroke="transparent" points="-4,4 -4,-297.0665 995,-297.0665 995,4 -4,4"/>
<!-- Node31 -->
<g id="node1" class="node">
<title>Node31</title>
<polygon fill="#bfbfbf" stroke="#000000" points="0,-136.3177 0,-155.3177 78,-155.3177 78,-136.3177 0,-136.3177"/>
<text text-anchor="middle" x="39" y="-143.3177" font-family="Helvetica,sans-Serif" font-size="10.00" fill="#000000">MLVec::getptr</text>
</g>
<!-- Node32 -->
<g id="node2" class="node">
<title>Node32</title>
<g id="a_node2"><a xlink:href="../../db/ddd/class_m_l___epetra_1_1_multi_level_preconditioner.html#a0e3e3380ddad9bf64d3bf36bc3802f8f" target="_top" xlink:title="Constructs a MultiLevelPreconditioner for multiphysics with variable dofs per node. ">
<polygon fill="#ffffff" stroke="#000000" points="815,-125.8177 815,-155.8177 991,-155.8177 991,-125.8177 815,-125.8177"/>
<text text-anchor="start" x="823" y="-143.8177" font-family="Helvetica,sans-Serif" font-size="10.00" fill="#000000">ML_Epetra::MultiLevelPreconditioner</text>
<text text-anchor="middle" x="903" y="-132.8177" font-family="Helvetica,sans-Serif" font-size="10.00" fill="#000000">::MultiLevelPreconditioner</text>
</a>
</g>
</g>
<!-- Node31&#45;&gt;Node32 -->
<g id="edge1" class="edge">
<title>Node31&#45;&gt;Node32</title>
<path fill="none" stroke="#191970" d="M53.933,-163.3669C88.8903,-202.3656 180.5291,-292.8177 278.5,-292.8177 278.5,-292.8177 278.5,-292.8177 526.5,-292.8177 640.4905,-292.8177 676.0694,-296.7985 779,-247.8177 826.2434,-225.3363 869.633,-179.8956 890.3026,-156.1134"/>
<polygon fill="#191970" stroke="#191970" points="56.2229,-160.67 46.996,-155.4628 50.9618,-165.2874 56.2229,-160.67"/>
</g>
<!-- Node33 -->
<g id="node3" class="node">
<title>Node33</title>
<g id="a_node3"><a xlink:href="../../d9/d4d/ml___multi_level_preconditioner_8h.html#ac22cc178b3e3507d5f0ee55120918fd4" target="_top" xlink:title="MLcolGlobalIds">
<polygon fill="#ffffff" stroke="#000000" points="114,-155.3177 114,-174.3177 198,-174.3177 198,-155.3177 114,-155.3177"/>
<text text-anchor="middle" x="156" y="-162.3177" font-family="Helvetica,sans-Serif" font-size="10.00" fill="#000000">MLcolGlobalIds</text>
</a>
</g>
</g>
<!-- Node31&#45;&gt;Node33 -->
<g id="edge2" class="edge">
<title>Node31&#45;&gt;Node33</title>
<path fill="none" stroke="#191970" d="M88.4132,-153.8421C96.8621,-155.2141 105.5703,-156.6283 113.8094,-157.9662"/>
<polygon fill="#191970" stroke="#191970" points="88.7165,-150.3456 78.2848,-152.1973 87.5944,-157.255 88.7165,-150.3456"/>
</g>
<!-- Node35 -->
<g id="node5" class="node">
<title>Node35</title>
<g id="a_node5"><a xlink:href="../../d9/d4d/ml___multi_level_preconditioner_8h.html#a9ed8d263615772ca6a7fe9957cfdf182" target="_top" xlink:title="dofComm">
<polygon fill="#ffffff" stroke="#000000" points="359,-98.3177 359,-117.3177 418,-117.3177 418,-98.3177 359,-98.3177"/>
<text text-anchor="middle" x="388.5" y="-105.3177" font-family="Helvetica,sans-Serif" font-size="10.00" fill="#000000">dofComm</text>
</a>
</g>
</g>
<!-- Node31&#45;&gt;Node35 -->
<g id="edge28" class="edge">
<title>Node31&#45;&gt;Node35</title>
<path fill="none" stroke="#191970" d="M88.0299,-140.4868C161.6613,-132.4811 298.5675,-117.5958 358.7796,-111.0491"/>
<polygon fill="#191970" stroke="#191970" points="87.6378,-137.0087 78.0748,-141.5692 88.3945,-143.9677 87.6378,-137.0087"/>
</g>
<!-- Node42 -->
<g id="node12" class="node">
<title>Node42</title>
<g id="a_node12"><a xlink:href="../../d9/d4d/ml___multi_level_preconditioner_8h.html#a836762a510f8cb162ba774058eb0d6aa" target="_top" xlink:title="Take Crs std::vec&#39;s, make arrays and shove them into an ML Operator. ">
<polygon fill="#ffffff" stroke="#000000" points="249.5,-79.3177 249.5,-98.3177 307.5,-98.3177 307.5,-79.3177 249.5,-79.3177"/>
<text text-anchor="middle" x="278.5" y="-86.3177" font-family="Helvetica,sans-Serif" font-size="10.00" fill="#000000">MLShove</text>
</a>
</g>
</g>
<!-- Node31&#45;&gt;Node42 -->
<g id="edge25" class="edge">
<title>Node31&#45;&gt;Node42</title>
<path fill="none" stroke="#191970" d="M66.0321,-131.8046C80.0148,-125.1071 97.5585,-117.54 114,-112.8177 160.3256,-99.5121 216.2141,-93.3529 249.475,-90.6785"/>
<polygon fill="#191970" stroke="#191970" points="64.4073,-128.7032 56.9779,-136.2567 67.4962,-134.9849 64.4073,-128.7032"/>
</g>
<!-- Node34 -->
<g id="node4" class="node">
<title>Node34</title>
<g id="a_node4"><a xlink:href="../../d9/d4d/ml___multi_level_preconditioner_8h.html#a0e099b1b06567edf571af48ff4a2b559" target="_top" xlink:title="MLfillNodalMaps">
<polygon fill="#ffffff" stroke="#000000" points="234,-198.3177 234,-217.3177 323,-217.3177 323,-198.3177 234,-198.3177"/>
<text text-anchor="middle" x="278.5" y="-205.3177" font-family="Helvetica,sans-Serif" font-size="10.00" fill="#000000">MLfillNodalMaps</text>
</a>
</g>
</g>
<!-- Node33&#45;&gt;Node34 -->
<g id="edge3" class="edge">
<title>Node33&#45;&gt;Node34</title>
<path fill="none" stroke="#191970" d="M192.6626,-177.687C211.5251,-184.3081 234.1179,-192.2387 251.3893,-198.3013"/>
<polygon fill="#191970" stroke="#191970" points="193.7816,-174.3705 183.1867,-174.3608 191.4631,-180.9754 193.7816,-174.3705"/>
</g>
<!-- Node33&#45;&gt;Node35 -->
<g id="edge24" class="edge">
<title>Node33&#45;&gt;Node35</title>
<path fill="none" stroke="#191970" d="M208.0293,-161.6927C241.4755,-158.6284 285.5234,-152.6045 323,-140.8177 340.977,-135.1637 360.0601,-125.0176 372.9619,-117.4631"/>
<polygon fill="#191970" stroke="#191970" points="207.6733,-158.2103 198.0088,-162.5517 208.2713,-165.1847 207.6733,-158.2103"/>
</g>
<!-- Node34&#45;&gt;Node32 -->
<g id="edge4" class="edge">
<title>Node34&#45;&gt;Node32</title>
<path fill="none" stroke="#191970" d="M325.9168,-219.6702C416.7456,-240.0979 620.3366,-274.819 779,-220.8177 820.9577,-206.5373 862.8353,-175.0233 885.5798,-156.0896"/>
<polygon fill="#191970" stroke="#191970" points="326.4563,-216.2031 315.9268,-217.3779 324.8907,-223.0258 326.4563,-216.2031"/>
</g>
<!-- Node34&#45;&gt;Node35 -->
<g id="edge5" class="edge">
<title>Node34&#45;&gt;Node35</title>
<path fill="none" stroke="#191970" d="M303.7875,-192.8874C310.279,-188.6439 317.0924,-183.8099 323,-178.8177 346.0569,-159.3335 369.0722,-132.1476 380.7055,-117.7233"/>
<polygon fill="#191970" stroke="#191970" points="301.8445,-189.9749 295.2503,-198.2675 305.5766,-195.897 301.8445,-189.9749"/>
</g>
<!-- Node36 -->
<g id="node6" class="node">
<title>Node36</title>
<g id="a_node6"><a xlink:href="../../d9/d4d/ml___multi_level_preconditioner_8h.html#aed0769c2f9b71ba81d9a7ab2ae0eee40" target="_top" xlink:title="MLextractDiag">
<polygon fill="#ffffff" stroke="#000000" points="486.5,-55.3177 486.5,-74.3177 566.5,-74.3177 566.5,-55.3177 486.5,-55.3177"/>
<text text-anchor="middle" x="526.5" y="-62.3177" font-family="Helvetica,sans-Serif" font-size="10.00" fill="#000000">MLextractDiag</text>
</a>
</g>
</g>
<!-- Node35&#45;&gt;Node36 -->
<g id="edge6" class="edge">
<title>Node35&#45;&gt;Node36</title>
<path fill="none" stroke="#191970" d="M406.1791,-93.353C419.2723,-86.7683 437.608,-79.956 454,-74.8177 464.4296,-71.5484 475.8205,-68.3789 486.419,-65.9137"/>
<polygon fill="#191970" stroke="#191970" points="404.3284,-90.3778 397.3077,-98.3125 407.7442,-96.4878 404.3284,-90.3778"/>
</g>
<!-- Node37 -->
<g id="node7" class="node">
<title>Node37</title>
<g id="a_node7"><a xlink:href="../../d9/d4d/ml___multi_level_preconditioner_8h.html#a72f70e1212e29118fb50f5742faf3288" target="_top" xlink:title="MLfindDirichlets">
<polygon fill="#ffffff" stroke="#000000" points="483,-17.3177 483,-36.3177 570,-36.3177 570,-17.3177 483,-17.3177"/>
<text text-anchor="middle" x="526.5" y="-24.3177" font-family="Helvetica,sans-Serif" font-size="10.00" fill="#000000">MLfindDirichlets</text>
</a>
</g>
</g>
<!-- Node35&#45;&gt;Node37 -->
<g id="edge9" class="edge">
<title>Node35&#45;&gt;Node37</title>
<path fill="none" stroke="#191970" d="M397.7418,-89.6691C409.373,-72.9633 430.6717,-49.7788 454,-36.8177 462.8719,-31.8885 473.068,-28.1992 482.9577,-25.7064"/>
<polygon fill="#191970" stroke="#191970" points="394.7427,-87.8627 392.3231,-98.1776 400.647,-91.623 394.7427,-87.8627"/>
</g>
<!-- Node38 -->
<g id="node8" class="node">
<title>Node38</title>
<g id="a_node8"><a xlink:href="../../d9/d4d/ml___multi_level_preconditioner_8h.html#a345eb5da5904c4a9c25bb5cff40d806f" target="_top" xlink:title="MLrmDirichletCols">
<polygon fill="#ffffff" stroke="#000000" points="477.5,-131.3177 477.5,-150.3177 575.5,-150.3177 575.5,-131.3177 477.5,-131.3177"/>
<text text-anchor="middle" x="526.5" y="-138.3177" font-family="Helvetica,sans-Serif" font-size="10.00" fill="#000000">MLrmDirichletCols</text>
</a>
</g>
</g>
<!-- Node35&#45;&gt;Node38 -->
<g id="edge12" class="edge">
<title>Node35&#45;&gt;Node38</title>
<path fill="none" stroke="#191970" d="M427.9614,-111.087C453.7227,-116.1666 486.2556,-124.3683 506.7268,-131.1886"/>
<polygon fill="#191970" stroke="#191970" points="428.5781,-107.6417 418.1045,-109.2397 427.2886,-114.5219 428.5781,-107.6417"/>
</g>
<!-- Node39 -->
<g id="node9" class="node">
<title>Node39</title>
<g id="a_node9"><a xlink:href="../../d9/d4d/ml___multi_level_preconditioner_8h.html#a17fdb7b4d90e62a89c4eacce822673f8" target="_top" xlink:title="MLassignGhostLocalNodeIds">
<polygon fill="#ffffff" stroke="#000000" points="454,-93.3177 454,-112.3177 599,-112.3177 599,-93.3177 454,-93.3177"/>
<text text-anchor="middle" x="526.5" y="-100.3177" font-family="Helvetica,sans-Serif" font-size="10.00" fill="#000000">MLassignGhostLocalNodeIds</text>
</a>
</g>
</g>
<!-- Node35&#45;&gt;Node39 -->
<g id="edge15" class="edge">
<title>Node35&#45;&gt;Node39</title>
<path fill="none" stroke="#191970" d="M428.2774,-100.1962C436.3385,-99.5705 445.0523,-99.0677 453.8455,-98.7085"/>
<polygon fill="#191970" stroke="#191970" points="427.7607,-96.728 418.1045,-101.0878 428.3719,-103.7012 427.7607,-96.728"/>
</g>
<!-- Node40 -->
<g id="node10" class="node">
<title>Node40</title>
<g id="a_node10"><a xlink:href="../../d9/d4d/ml___multi_level_preconditioner_8h.html#ae97af20f16385f4b3a67b46584f60502" target="_top" xlink:title="nodalComm">
<polygon fill="#ffffff" stroke="#000000" points="492,-207.3177 492,-226.3177 561,-226.3177 561,-207.3177 492,-207.3177"/>
<text text-anchor="middle" x="526.5" y="-214.3177" font-family="Helvetica,sans-Serif" font-size="10.00" fill="#000000">nodalComm</text>
</a>
</g>
</g>
<!-- Node35&#45;&gt;Node40 -->
<g id="edge18" class="edge">
<title>Node35&#45;&gt;Node40</title>
<path fill="none" stroke="#191970" d="M398.4178,-126.4891C409.5351,-145.7205 429.2849,-175.2864 454,-192.8177 465.1386,-200.7187 479.0504,-206.147 491.7008,-209.8133"/>
<polygon fill="#191970" stroke="#191970" points="401.3321,-124.5283 393.4105,-117.4927 395.2157,-127.9327 401.3321,-124.5283"/>
</g>
<!-- Node36&#45;&gt;Node32 -->
<g id="edge7" class="edge">
<title>Node36&#45;&gt;Node32</title>
<path fill="none" stroke="#191970" d="M577.0216,-72.7741C628.1373,-81.0695 709.3405,-94.9213 779,-109.8177 801.1337,-114.5509 825.3149,-120.4336 846.3982,-125.7985"/>
<polygon fill="#191970" stroke="#191970" points="577.329,-69.2785 566.899,-71.1402 576.2135,-76.189 577.329,-69.2785"/>
</g>
<!-- Node36&#45;&gt;Node35 -->
<g id="edge8" class="edge">
<title>Node36&#45;&gt;Node35</title>
<path fill="none" stroke="#191970" d="M503.9965,-77.8518C489.6017,-82.6724 470.5853,-87.6188 454,-92.8177 442.2125,-96.5127 429.4199,-101.0733 418.2944,-104.6538"/>
<polygon fill="#191970" stroke="#191970" points="505.3661,-81.0778 513.5606,-74.3621 502.9667,-74.5019 505.3661,-81.0778"/>
</g>
<!-- Node37&#45;&gt;Node32 -->
<g id="edge10" class="edge">
<title>Node37&#45;&gt;Node32</title>
<path fill="none" stroke="#191970" d="M580.2936,-33.7436C632.1663,-41.384 712.3892,-55.7504 779,-78.8177 814.7075,-91.1832 853.2557,-111.7007 877.7301,-125.7204"/>
<polygon fill="#191970" stroke="#191970" points="580.7066,-30.267 570.3095,-32.3046 579.7079,-37.1954 580.7066,-30.267"/>
</g>
<!-- Node37&#45;&gt;Node35 -->
<g id="edge11" class="edge">
<title>Node37&#45;&gt;Node35</title>
<path fill="none" stroke="#191970" d="M497.6891,-39.0525C483.8563,-42.7462 467.4145,-47.3647 454,-54.8177 433.1953,-66.3767 414.0049,-86.0668 401.8462,-98.2735"/>
<polygon fill="#191970" stroke="#191970" points="498.9134,-42.3479 507.6651,-36.3764 497.0998,-35.5869 498.9134,-42.3479"/>
</g>
<!-- Node38&#45;&gt;Node32 -->
<g id="edge13" class="edge">
<title>Node38&#45;&gt;Node32</title>
<path fill="none" stroke="#191970" d="M586.0398,-140.8177C647.6045,-140.8177 744.4079,-140.8177 814.8463,-140.8177"/>
<polygon fill="#191970" stroke="#191970" points="585.7208,-137.3178 575.7208,-140.8177 585.7208,-144.3178 585.7208,-137.3178"/>
</g>
<!-- Node38&#45;&gt;Node35 -->
<g id="edge14" class="edge">
<title>Node38&#45;&gt;Node35</title>
<path fill="none" stroke="#191970" d="M467.3918,-133.3711C446.0886,-128.5457 423.5009,-122.5393 407.9793,-117.3487"/>
<polygon fill="#191970" stroke="#191970" points="466.8651,-136.8388 477.3834,-135.5669 468.3677,-130.002 466.8651,-136.8388"/>
</g>
<!-- Node39&#45;&gt;Node32 -->
<g id="edge16" class="edge">
<title>Node39&#45;&gt;Node32</title>
<path fill="none" stroke="#191970" d="M609.0463,-111.1491C669.901,-117.2911 752.5604,-125.6339 814.7275,-131.9084"/>
<polygon fill="#191970" stroke="#191970" points="609.3939,-107.6665 599.093,-110.1445 608.6909,-114.6311 609.3939,-107.6665"/>
</g>
<!-- Node39&#45;&gt;Node35 -->
<g id="edge17" class="edge">
<title>Node39&#45;&gt;Node35</title>
<path fill="none" stroke="#191970" d="M443.8346,-112.4438C434.6998,-112.6136 425.898,-112.608 418.1045,-112.4024"/>
<polygon fill="#191970" stroke="#191970" points="443.9368,-115.9424 453.8455,-112.1917 443.7605,-108.9446 443.9368,-115.9424"/>
</g>
<!-- Node40&#45;&gt;Node32 -->
<g id="edge19" class="edge">
<title>Node40&#45;&gt;Node32</title>
<path fill="none" stroke="#191970" d="M571.0675,-218.1881C622.1319,-218.6798 707.9245,-216.1927 779,-197.8177 814.785,-188.5663 853.0029,-169.4237 877.4003,-155.8803"/>
<polygon fill="#191970" stroke="#191970" points="571.0719,-214.6879 561.0241,-218.0482 570.9744,-221.6872 571.0719,-214.6879"/>
</g>
<!-- Node40&#45;&gt;Node34 -->
<g id="edge20" class="edge">
<title>Node40&#45;&gt;Node34</title>
<path fill="none" stroke="#191970" d="M481.7849,-215.195C436.8587,-213.5646 368.0176,-211.0663 323.1239,-209.4371"/>
<polygon fill="#191970" stroke="#191970" points="481.7051,-218.6943 491.8255,-215.5593 481.959,-211.6989 481.7051,-218.6943"/>
</g>
<!-- Node41 -->
<g id="node11" class="node">
<title>Node41</title>
<g id="a_node11"><a xlink:href="../../d9/d4d/ml___multi_level_preconditioner_8h.html#aaabeabaaade74d302eb6f3b9c6b7e240" target="_top" xlink:title="MLrmDifferentDofsCrossings">
<polygon fill="#ffffff" stroke="#000000" points="635,-169.3177 635,-188.3177 779,-188.3177 779,-169.3177 635,-169.3177"/>
<text text-anchor="middle" x="707" y="-176.3177" font-family="Helvetica,sans-Serif" font-size="10.00" fill="#000000">MLrmDifferentDofsCrossings</text>
</a>
</g>
</g>
<!-- Node40&#45;&gt;Node41 -->
<g id="edge21" class="edge">
<title>Node40&#45;&gt;Node41</title>
<path fill="none" stroke="#191970" d="M571.4504,-207.3545C598.9812,-201.5585 634.1049,-194.164 661.6998,-188.3546"/>
<polygon fill="#191970" stroke="#191970" points="570.3667,-204.0058 561.3022,-209.4909 571.8088,-210.8557 570.3667,-204.0058"/>
</g>
<!-- Node41&#45;&gt;Node32 -->
<g id="edge22" class="edge">
<title>Node41&#45;&gt;Node32</title>
<path fill="none" stroke="#191970" d="M766.0528,-167.3687C784.7588,-163.742 805.7258,-159.677 825.523,-155.8388"/>
<polygon fill="#191970" stroke="#191970" points="765.3571,-163.9383 756.2061,-169.2777 766.6895,-170.8103 765.3571,-163.9383"/>
</g>
<!-- Node41&#45;&gt;Node35 -->
<g id="edge23" class="edge">
<title>Node41&#45;&gt;Node35</title>
<path fill="none" stroke="#191970" d="M624.7066,-184.6729C573.8628,-185.4036 508.2047,-181.0279 454,-159.8177 430.4733,-150.6117 408.6688,-129.8974 397.1142,-117.5719"/>
<polygon fill="#191970" stroke="#191970" points="625.0726,-188.166 634.9955,-184.453 624.9229,-181.1676 625.0726,-188.166"/>
</g>
<!-- Node42&#45;&gt;Node32 -->
<g id="edge26" class="edge">
<title>Node42&#45;&gt;Node32</title>
<path fill="none" stroke="#191970" d="M302.4938,-73.6286C335.2319,-53.8922 396.4254,-20.4632 454,-7.8177 516.9441,6.0071 534.8048,-2.1558 599,-7.8177 679.9402,-14.9564 705.1336,-5.9647 779,-39.8177 824.9382,-60.8712 868.2316,-103.0379 889.4221,-125.6563"/>
<polygon fill="#191970" stroke="#191970" points="300.36,-70.8312 293.6616,-79.0399 304.017,-76.8001 300.36,-70.8312"/>
</g>
<!-- Node42&#45;&gt;Node35 -->
<g id="edge27" class="edge">
<title>Node42&#45;&gt;Node35</title>
<path fill="none" stroke="#191970" d="M317.7013,-95.5888C331.2287,-97.9254 346.1495,-100.5026 358.7913,-102.6862"/>
<polygon fill="#191970" stroke="#191970" points="318.139,-92.1127 307.6892,-93.8595 316.9475,-99.0105 318.139,-92.1127"/>
</g>
</g>
</svg>
