<?xml version="1.0" encoding="UTF-8" standalone="no"?>
<!DOCTYPE svg PUBLIC "-//W3C//DTD SVG 1.1//EN"
 "http://www.w3.org/Graphics/SVG/1.1/DTD/svg11.dtd">
<!-- Generated by graphviz version 2.40.1 (20161225.0304)
 -->
<!-- Title: omc_AvlTreeStringString_setTreeLeftRight Pages: 1 -->
<svg width="455pt" height="103pt"
 viewBox="0.00 0.00 455.00 102.66" xmlns="http://www.w3.org/2000/svg" xmlns:xlink="http://www.w3.org/1999/xlink">
<g id="graph0" class="graph" transform="scale(1 1) rotate(0) translate(4 98.665)">
<title>omc_AvlTreeStringString_setTreeLeftRight</title>
<polygon fill="#ffffff" stroke="transparent" points="-4,4 -4,-98.665 451,-98.665 451,4 -4,4"/>
<!-- Node102 -->
<g id="node1" class="node">
<title>Node102</title>
<polygon fill="#bfbfbf" stroke="#000000" points="0,-49.5 0,-79.5 125,-79.5 125,-49.5 0,-49.5"/>
<text text-anchor="start" x="8" y="-67.5" font-family="Helvetica,sans-Serif" font-size="10.00" fill="#000000">omc_AvlTreeStringString</text>
<text text-anchor="middle" x="62.5" y="-56.5" font-family="Helvetica,sans-Serif" font-size="10.00" fill="#000000">_setTreeLeftRight</text>
</g>
<!-- Node103 -->
<g id="node2" class="node">
<title>Node103</title>
<g id="a_node2"><a xlink:href="../../dc/d3c/_avl_tree_string_string_8c.html#ad28b7da63f216ce515e45f892293ce2a" target="_top" xlink:title="omc_AvlTreeStringString\l_balance">
<polygon fill="#ffffff" stroke="#000000" points="322,-49.5 322,-79.5 447,-79.5 447,-49.5 322,-49.5"/>
<text text-anchor="start" x="330" y="-67.5" font-family="Helvetica,sans-Serif" font-size="10.00" fill="#000000">omc_AvlTreeStringString</text>
<text text-anchor="middle" x="384.5" y="-56.5" font-family="Helvetica,sans-Serif" font-size="10.00" fill="#000000">_balance</text>
</a>
</g>
</g>
<!-- Node102&#45;&gt;Node103 -->
<g id="edge1" class="edge">
<title>Node102&#45;&gt;Node103</title>
<path fill="none" stroke="#191970" d="M121.3661,-81.9731C134.3087,-85.1017 148.0258,-87.8792 161,-89.5 216.1271,-96.3866 230.8729,-96.3866 286,-89.5 302.2813,-87.4661 319.7326,-83.6106 335.3551,-79.5255"/>
<polygon fill="#191970" stroke="#191970" points="122.1968,-78.5731 111.6449,-79.5255 120.4876,-85.3612 122.1968,-78.5731"/>
</g>
<!-- Node104 -->
<g id="node3" class="node">
<title>Node104</title>
<g id="a_node3"><a xlink:href="../../dc/d3c/_avl_tree_string_string_8c.html#a268d92cee2a58986705cef054d746fbf" target="_top" xlink:title="omc_AvlTreeStringString\l_rotateLeft">
<polygon fill="#ffffff" stroke="#000000" points="161,-49.5 161,-79.5 286,-79.5 286,-49.5 161,-49.5"/>
<text text-anchor="start" x="169" y="-67.5" font-family="Helvetica,sans-Serif" font-size="10.00" fill="#000000">omc_AvlTreeStringString</text>
<text text-anchor="middle" x="223.5" y="-56.5" font-family="Helvetica,sans-Serif" font-size="10.00" fill="#000000">_rotateLeft</text>
</a>
</g>
</g>
<!-- Node102&#45;&gt;Node104 -->
<g id="edge2" class="edge">
<title>Node102&#45;&gt;Node104</title>
<path fill="none" stroke="#191970" d="M135.2184,-64.5C143.8129,-64.5 152.5268,-64.5 160.9633,-64.5"/>
<polygon fill="#191970" stroke="#191970" points="135.2078,-61.0001 125.2078,-64.5 135.2078,-68.0001 135.2078,-61.0001"/>
</g>
<!-- Node105 -->
<g id="node4" class="node">
<title>Node105</title>
<g id="a_node4"><a xlink:href="../../dc/d3c/_avl_tree_string_string_8c.html#ab5dec079022f7206e844071fd002f823" target="_top" xlink:title="omc_AvlTreeStringString\l_rotateRight">
<polygon fill="#ffffff" stroke="#000000" points="161,-.5 161,-30.5 286,-30.5 286,-.5 161,-.5"/>
<text text-anchor="start" x="169" y="-18.5" font-family="Helvetica,sans-Serif" font-size="10.00" fill="#000000">omc_AvlTreeStringString</text>
<text text-anchor="middle" x="223.5" y="-7.5" font-family="Helvetica,sans-Serif" font-size="10.00" fill="#000000">_rotateRight</text>
</a>
</g>
</g>
<!-- Node102&#45;&gt;Node105 -->
<g id="edge4" class="edge">
<title>Node102&#45;&gt;Node105</title>
<path fill="none" stroke="#191970" d="M122.0139,-46.3871C139.1301,-41.1778 157.6072,-35.5543 174.0448,-30.5516"/>
<polygon fill="#191970" stroke="#191970" points="120.6667,-43.1385 112.119,-49.3986 122.7049,-49.8352 120.6667,-43.1385"/>
</g>
<!-- Node104&#45;&gt;Node103 -->
<g id="edge3" class="edge">
<title>Node104&#45;&gt;Node103</title>
<path fill="none" stroke="#191970" d="M296.2184,-64.5C304.8129,-64.5 313.5268,-64.5 321.9633,-64.5"/>
<polygon fill="#191970" stroke="#191970" points="296.2078,-61.0001 286.2078,-64.5 296.2078,-68.0001 296.2078,-61.0001"/>
</g>
<!-- Node105&#45;&gt;Node103 -->
<g id="edge5" class="edge">
<title>Node105&#45;&gt;Node103</title>
<path fill="none" stroke="#191970" d="M283.0139,-33.6129C300.1301,-38.8222 318.6072,-44.4457 335.0448,-49.4484"/>
<polygon fill="#191970" stroke="#191970" points="283.7049,-30.1648 273.119,-30.6014 281.6667,-36.8615 283.7049,-30.1648"/>
</g>
</g>
</svg>
