<?xml version="1.0" encoding="UTF-8" standalone="no"?>
<!DOCTYPE svg PUBLIC "-//W3C//DTD SVG 1.1//EN"
 "http://www.w3.org/Graphics/SVG/1.1/DTD/svg11.dtd">
<!-- Generated by graphviz version 2.40.1 (20161225.0304)
 -->
<!-- Title: Configuration::getGlobalSettings Pages: 1 -->
<svg width="322pt" height="104pt"
 viewBox="0.00 0.00 322.00 104.00" xmlns="http://www.w3.org/2000/svg" xmlns:xlink="http://www.w3.org/1999/xlink">
<g id="graph0" class="graph" transform="scale(1 1) rotate(0) translate(4 100)">
<title>Configuration::getGlobalSettings</title>
<polygon fill="#ffffff" stroke="transparent" points="-4,4 -4,-100 318,-100 318,4 -4,4"/>
<!-- Node73 -->
<g id="node1" class="node">
<title>Node73</title>
<polygon fill="#bfbfbf" stroke="#000000" points="0,-33 0,-63 122,-63 122,-33 0,-33"/>
<text text-anchor="start" x="8" y="-51" font-family="Helvetica,sans-Serif" font-size="10.00" fill="#000000">Configuration::getGlobal</text>
<text text-anchor="middle" x="61" y="-40" font-family="Helvetica,sans-Serif" font-size="10.00" fill="#000000">Settings</text>
</g>
<!-- Node74 -->
<g id="node2" class="node">
<title>Node74</title>
<g id="a_node2"><a xlink:href="../../d3/d6f/group__core_simcontroller.html#ga88be45cf05fa2ffe06811651ae7b3d52" target="_top" xlink:title="SimManager::initialize">
<polygon fill="#ffffff" stroke="#000000" points="179.5,-76.5 179.5,-95.5 292.5,-95.5 292.5,-76.5 179.5,-76.5"/>
<text text-anchor="middle" x="236" y="-83.5" font-family="Helvetica,sans-Serif" font-size="10.00" fill="#000000">SimManager::initialize</text>
</a>
</g>
</g>
<!-- Node73&#45;&gt;Node74 -->
<g id="edge1" class="edge">
<title>Node73&#45;&gt;Node74</title>
<path fill="none" stroke="#191970" d="M132.0758,-63.4336C152.4223,-67.8517 173.9978,-72.5367 192.1859,-76.4861"/>
<polygon fill="#191970" stroke="#191970" points="132.7215,-59.9923 122.2065,-61.2906 131.2361,-66.8329 132.7215,-59.9923"/>
</g>
<!-- Node75 -->
<g id="node3" class="node">
<title>Node75</title>
<g id="a_node3"><a xlink:href="../../d3/d6f/group__core_simcontroller.html#ga8401ca09bc2b9a006cb2b9ff352cfed9" target="_top" xlink:title="SimManager::runSingleStep">
<polygon fill="#ffffff" stroke="#000000" points="167,-38.5 167,-57.5 305,-57.5 305,-38.5 167,-38.5"/>
<text text-anchor="middle" x="236" y="-45.5" font-family="Helvetica,sans-Serif" font-size="10.00" fill="#000000">SimManager::runSingleStep</text>
</a>
</g>
</g>
<!-- Node73&#45;&gt;Node75 -->
<g id="edge2" class="edge">
<title>Node73&#45;&gt;Node75</title>
<path fill="none" stroke="#191970" d="M132.4744,-48C143.7931,-48 155.4823,-48 166.749,-48"/>
<polygon fill="#191970" stroke="#191970" points="132.2065,-44.5001 122.2065,-48 132.2065,-51.5001 132.2065,-44.5001"/>
</g>
<!-- Node76 -->
<g id="node4" class="node">
<title>Node76</title>
<g id="a_node4"><a xlink:href="../../d3/d6f/group__core_simcontroller.html#gad52a0f4de286c3316d4118046b53b58a" target="_top" xlink:title="SimManager::SetCheckTimeout">
<polygon fill="#ffffff" stroke="#000000" points="158,-.5 158,-19.5 314,-19.5 314,-.5 158,-.5"/>
<text text-anchor="middle" x="236" y="-7.5" font-family="Helvetica,sans-Serif" font-size="10.00" fill="#000000">SimManager::SetCheckTimeout</text>
</a>
</g>
</g>
<!-- Node73&#45;&gt;Node76 -->
<g id="edge3" class="edge">
<title>Node73&#45;&gt;Node76</title>
<path fill="none" stroke="#191970" d="M132.0758,-32.5664C152.4223,-28.1483 173.9978,-23.4633 192.1859,-19.5139"/>
<polygon fill="#191970" stroke="#191970" points="131.2361,-29.1671 122.2065,-34.7094 132.7215,-36.0077 131.2361,-29.1671"/>
</g>
</g>
</svg>
