<?xml version="1.0" encoding="UTF-8" standalone="no"?>
<!DOCTYPE svg PUBLIC "-//W3C//DTD SVG 1.1//EN"
 "http://www.w3.org/Graphics/SVG/1.1/DTD/svg11.dtd">
<!-- Generated by graphviz version 2.40.1 (20161225.0304)
 -->
<!-- Title: partial_freeBlocks Pages: 1 -->
<svg width="571pt" height="85pt"
 viewBox="0.00 0.00 571.00 85.00" xmlns="http://www.w3.org/2000/svg" xmlns:xlink="http://www.w3.org/1999/xlink">
<g id="graph0" class="graph" transform="scale(1 1) rotate(0) translate(4 81)">
<title>partial_freeBlocks</title>
<polygon fill="#ffffff" stroke="transparent" points="-4,4 -4,-81 567,-81 567,4 -4,4"/>
<!-- Node715 -->
<g id="node1" class="node">
<title>Node715</title>
<polygon fill="#bfbfbf" stroke="#000000" points="0,-19.5 0,-38.5 95,-38.5 95,-19.5 0,-19.5"/>
<text text-anchor="middle" x="47.5" y="-26.5" font-family="Helvetica,sans-Serif" font-size="10.00" fill="#000000">partial_freeBlocks</text>
</g>
<!-- Node716 -->
<g id="node2" class="node">
<title>Node716</title>
<g id="a_node2"><a xlink:href="../../d6/dde/build_2include_2omc_2lpsolve_2lp__lib_8h.html#af9cd97825f0cd436b3c3fc3bdf1c82b8" target="_top" xlink:title="delete_lp">
<polygon fill="#ffffff" stroke="#000000" points="131,-19.5 131,-38.5 187,-38.5 187,-19.5 131,-19.5"/>
<text text-anchor="middle" x="159" y="-26.5" font-family="Helvetica,sans-Serif" font-size="10.00" fill="#000000">delete_lp</text>
</a>
</g>
</g>
<!-- Node715&#45;&gt;Node716 -->
<g id="edge1" class="edge">
<title>Node715&#45;&gt;Node716</title>
<path fill="none" stroke="#191970" d="M105.1817,-29C114.1213,-29 122.9946,-29 130.8807,-29"/>
<polygon fill="#191970" stroke="#191970" points="105.1095,-25.5001 95.1095,-29 105.1094,-32.5001 105.1095,-25.5001"/>
</g>
<!-- Node717 -->
<g id="node3" class="node">
<title>Node717</title>
<g id="a_node3"><a xlink:href="../../d6/dde/build_2include_2omc_2lpsolve_2lp__lib_8h.html#a8ea5effebbfa9ce4844bb713471a7aa1" target="_top" xlink:title="free_lp">
<polygon fill="#ffffff" stroke="#000000" points="223,-.5 223,-19.5 269,-19.5 269,-.5 223,-.5"/>
<text text-anchor="middle" x="246" y="-7.5" font-family="Helvetica,sans-Serif" font-size="10.00" fill="#000000">free_lp</text>
</a>
</g>
</g>
<!-- Node716&#45;&gt;Node717 -->
<g id="edge2" class="edge">
<title>Node716&#45;&gt;Node717</title>
<path fill="none" stroke="#191970" d="M196.8407,-20.7359C205.7444,-18.7915 214.9698,-16.7767 222.9906,-15.025"/>
<polygon fill="#191970" stroke="#191970" points="196.0292,-17.3306 187.0062,-22.8837 197.5228,-24.1694 196.0292,-17.3306"/>
</g>
<!-- Node718 -->
<g id="node4" class="node">
<title>Node718</title>
<g id="a_node4"><a xlink:href="../../d6/dde/build_2include_2omc_2lpsolve_2lp__lib_8h.html#a929e8acb9704f61e16927c915c15cd07" target="_top" xlink:title="set_callbacks">
<polygon fill="#ffffff" stroke="#000000" points="305,-38.5 305,-57.5 382,-57.5 382,-38.5 305,-38.5"/>
<text text-anchor="middle" x="343.5" y="-45.5" font-family="Helvetica,sans-Serif" font-size="10.00" fill="#000000">set_callbacks</text>
</a>
</g>
</g>
<!-- Node716&#45;&gt;Node718 -->
<g id="edge11" class="edge">
<title>Node716&#45;&gt;Node718</title>
<path fill="none" stroke="#191970" d="M197.179,-32.9317C228.7137,-36.1792 273.2769,-40.7684 304.9211,-44.0271"/>
<polygon fill="#191970" stroke="#191970" points="197.3275,-29.4286 187.0216,-31.8857 196.6104,-36.3918 197.3275,-29.4286"/>
</g>
<!-- Node717&#45;&gt;Node718 -->
<g id="edge3" class="edge">
<title>Node717&#45;&gt;Node718</title>
<path fill="none" stroke="#191970" d="M278.7198,-22.7523C291.8309,-27.8623 306.6828,-33.6507 318.8553,-38.3949"/>
<polygon fill="#191970" stroke="#191970" points="279.6945,-19.3758 269.1061,-19.0055 277.1525,-25.898 279.6945,-19.3758"/>
</g>
<!-- Node721 -->
<g id="node7" class="node">
<title>Node721</title>
<g id="a_node7"><a xlink:href="../../d6/dde/build_2include_2omc_2lpsolve_2lp__lib_8h.html#a351dd803960ab0dae2b39f2c65d3a58d" target="_top" xlink:title="read_XLI">
<polygon fill="#ffffff" stroke="#000000" points="507,-.5 507,-19.5 563,-19.5 563,-.5 507,-.5"/>
<text text-anchor="middle" x="535" y="-7.5" font-family="Helvetica,sans-Serif" font-size="10.00" fill="#000000">read_XLI</text>
</a>
</g>
</g>
<!-- Node717&#45;&gt;Node721 -->
<g id="edge10" class="edge">
<title>Node717&#45;&gt;Node721</title>
<path fill="none" stroke="#191970" d="M279.4958,-10C336.8996,-10 453.0595,-10 506.6889,-10"/>
<polygon fill="#191970" stroke="#191970" points="279.1616,-6.5001 269.1616,-10 279.1615,-13.5001 279.1616,-6.5001"/>
</g>
<!-- Node719 -->
<g id="node5" class="node">
<title>Node719</title>
<g id="a_node5"><a xlink:href="../../d6/dde/build_2include_2omc_2lpsolve_2lp__lib_8h.html#a68a0333d84dd944f67e2a0ec72e346a9" target="_top" xlink:title="make_lp">
<polygon fill="#ffffff" stroke="#000000" points="418,-38.5 418,-57.5 471,-57.5 471,-38.5 418,-38.5"/>
<text text-anchor="middle" x="444.5" y="-45.5" font-family="Helvetica,sans-Serif" font-size="10.00" fill="#000000">make_lp</text>
</a>
</g>
</g>
<!-- Node718&#45;&gt;Node719 -->
<g id="edge4" class="edge">
<title>Node718&#45;&gt;Node719</title>
<path fill="none" stroke="#191970" d="M392.4603,-41.2528C401.2274,-41.221 410.0564,-41.4607 417.8891,-41.9719"/>
<polygon fill="#191970" stroke="#191970" points="392.2035,-37.7563 382.2604,-41.4148 392.3147,-44.7554 392.2035,-37.7563"/>
</g>
<!-- Node719&#45;&gt;Node718 -->
<g id="edge7" class="edge">
<title>Node719&#45;&gt;Node718</title>
<path fill="none" stroke="#191970" d="M407.748,-54.5226C399.4571,-54.8033 390.631,-54.8241 382.2604,-54.5852"/>
<polygon fill="#191970" stroke="#191970" points="408.0715,-58.0111 417.8891,-54.0281 407.7305,-51.0194 408.0715,-58.0111"/>
</g>
<!-- Node720 -->
<g id="node6" class="node">
<title>Node720</title>
<g id="a_node6"><a xlink:href="../../d6/dde/build_2include_2omc_2lpsolve_2lp__lib_8h.html#aca83ecdbc200b414db491306f3070ae9" target="_top" xlink:title="copy_lp">
<polygon fill="#ffffff" stroke="#000000" points="510,-57.5 510,-76.5 560,-76.5 560,-57.5 510,-57.5"/>
<text text-anchor="middle" x="535" y="-64.5" font-family="Helvetica,sans-Serif" font-size="10.00" fill="#000000">copy_lp</text>
</a>
</g>
</g>
<!-- Node719&#45;&gt;Node720 -->
<g id="edge5" class="edge">
<title>Node719&#45;&gt;Node720</title>
<path fill="none" stroke="#191970" d="M480.9571,-55.654C490.6231,-57.6833 500.8459,-59.8295 509.7682,-61.7027"/>
<polygon fill="#191970" stroke="#191970" points="481.6693,-52.2273 471.1635,-53.5979 480.231,-59.0779 481.6693,-52.2273"/>
</g>
<!-- Node719&#45;&gt;Node721 -->
<g id="edge8" class="edge">
<title>Node719&#45;&gt;Node721</title>
<path fill="none" stroke="#191970" d="M476.791,-34.4413C488.491,-29.5286 501.4533,-24.0859 512.1703,-19.5859"/>
<polygon fill="#191970" stroke="#191970" points="475.2021,-31.3124 467.337,-38.411 477.9122,-37.7665 475.2021,-31.3124"/>
</g>
<!-- Node720&#45;&gt;Node718 -->
<g id="edge6" class="edge">
<title>Node720&#45;&gt;Node718</title>
<path fill="none" stroke="#191970" d="M499.6748,-69.2828C476.3865,-70.2273 445.2651,-70.422 418,-67 403.1666,-65.1383 387.0526,-61.2689 373.6178,-57.5048"/>
<polygon fill="#191970" stroke="#191970" points="499.9575,-72.7735 509.7816,-68.8064 499.6279,-65.7812 499.9575,-72.7735"/>
</g>
<!-- Node721&#45;&gt;Node718 -->
<g id="edge9" class="edge">
<title>Node721&#45;&gt;Node718</title>
<path fill="none" stroke="#191970" d="M496.9459,-15.3068C473.9879,-18.7248 444.2058,-23.5417 418,-29 404.9324,-31.7218 390.7061,-35.2163 378.2202,-38.4646"/>
<polygon fill="#191970" stroke="#191970" points="497.5895,-18.75 506.9766,-13.8375 496.5749,-11.8239 497.5895,-18.75"/>
</g>
</g>
</svg>
