<?xml version="1.0" encoding="UTF-8" standalone="no"?>
<!DOCTYPE svg PUBLIC "-//W3C//DTD SVG 1.1//EN"
 "http://www.w3.org/Graphics/SVG/1.1/DTD/svg11.dtd">
<!-- Generated by graphviz version 2.40.1 (20161225.0304)
 -->
<!-- Title: ISimObjects::~ISimObjects Pages: 1 -->
<svg width="334pt" height="344pt"
 viewBox="0.00 0.00 334.00 343.50" xmlns="http://www.w3.org/2000/svg" xmlns:xlink="http://www.w3.org/1999/xlink">
<g id="graph0" class="graph" transform="scale(1 1) rotate(0) translate(4 339.5)">
<title>ISimObjects::~ISimObjects</title>
<polygon fill="#ffffff" stroke="transparent" points="-4,4 -4,-339.5 330,-339.5 330,4 -4,4"/>
<!-- Node0 -->
<g id="node1" class="node">
<title>Node0</title>
<polygon fill="#bfbfbf" stroke="#000000" points="0,-164 0,-183 137,-183 137,-164 0,-164"/>
<text text-anchor="middle" x="68.5" y="-171" font-family="Helvetica,sans-Serif" font-size="10.00" fill="#000000">ISimObjects::~ISimObjects</text>
</g>
<!-- Node1 -->
<g id="node2" class="node">
<title>Node1</title>
<g id="a_node2"><a xlink:href="../../d2/db2/class_i_sim_objects.html#ab79e1ff10ac37a490c2555cfa968201c" target="_top" xlink:title="ISimObjects::LoadSimData">
<polygon fill="#ffffff" stroke="#000000" points="181.5,-316 181.5,-335 317.5,-335 317.5,-316 181.5,-316"/>
<text text-anchor="middle" x="249.5" y="-323" font-family="Helvetica,sans-Serif" font-size="10.00" fill="#000000">ISimObjects::LoadSimData</text>
</a>
</g>
</g>
<!-- Node0&#45;&gt;Node1 -->
<g id="edge1" class="edge">
<title>Node0&#45;&gt;Node1</title>
<path fill="none" stroke="#191970" d="M73.2715,-183.3397C85.8498,-208.1871 122.4537,-273.8058 173,-306.5 176.1743,-308.5532 179.5543,-310.3845 183.0587,-312.0179"/>
<polygon fill="#191970" stroke="#191970" points="181.9882,-315.3611 192.5696,-315.8959 184.6312,-308.8792 181.9882,-315.3611"/>
</g>
<!-- Node2 -->
<g id="node3" class="node">
<title>Node2</title>
<g id="a_node3"><a xlink:href="../../d2/db2/class_i_sim_objects.html#acf6850296e049b8ea6e0401d2915f9b2" target="_top" xlink:title="ISimObjects::LoadSimVars">
<polygon fill="#ffffff" stroke="#000000" points="182,-278 182,-297 317,-297 317,-278 182,-278"/>
<text text-anchor="middle" x="249.5" y="-285" font-family="Helvetica,sans-Serif" font-size="10.00" fill="#000000">ISimObjects::LoadSimVars</text>
</a>
</g>
</g>
<!-- Node0&#45;&gt;Node2 -->
<g id="edge2" class="edge">
<title>Node0&#45;&gt;Node2</title>
<path fill="none" stroke="#191970" d="M76.2891,-183.2739C92.2701,-202.6436 130.8285,-245.9722 173,-268.5 177.3001,-270.7971 181.8849,-272.8228 186.5918,-274.6082"/>
<polygon fill="#191970" stroke="#191970" points="185.7784,-278.0287 196.3729,-277.9453 188.0387,-271.4037 185.7784,-278.0287"/>
</g>
<!-- Node3 -->
<g id="node4" class="node">
<title>Node3</title>
<g id="a_node4"><a xlink:href="../../d2/db2/class_i_sim_objects.html#a38d71e789244e21c0e5bb5ca597d7f21" target="_top" xlink:title="ISimObjects::LoadWriter">
<polygon fill="#ffffff" stroke="#000000" points="187.5,-240 187.5,-259 311.5,-259 311.5,-240 187.5,-240"/>
<text text-anchor="middle" x="249.5" y="-247" font-family="Helvetica,sans-Serif" font-size="10.00" fill="#000000">ISimObjects::LoadWriter</text>
</a>
</g>
</g>
<!-- Node0&#45;&gt;Node3 -->
<g id="edge3" class="edge">
<title>Node0&#45;&gt;Node3</title>
<path fill="none" stroke="#191970" d="M83.1438,-183.0663C102.8417,-195.5583 139.3006,-217.3752 173,-230.5 179.34,-232.9692 186.1029,-235.196 192.8853,-237.1814"/>
<polygon fill="#191970" stroke="#191970" points="192.2182,-240.6281 202.7891,-239.9175 194.0823,-233.8809 192.2182,-240.6281"/>
</g>
<!-- Node4 -->
<g id="node5" class="node">
<title>Node4</title>
<g id="a_node5"><a xlink:href="../../d2/db2/class_i_sim_objects.html#a6ce4cab01095878babefe9881697aa7b" target="_top" xlink:title="ISimObjects::getSimData">
<polygon fill="#ffffff" stroke="#000000" points="185.5,-202 185.5,-221 313.5,-221 313.5,-202 185.5,-202"/>
<text text-anchor="middle" x="249.5" y="-209" font-family="Helvetica,sans-Serif" font-size="10.00" fill="#000000">ISimObjects::getSimData</text>
</a>
</g>
</g>
<!-- Node0&#45;&gt;Node4 -->
<g id="edge4" class="edge">
<title>Node0&#45;&gt;Node4</title>
<path fill="none" stroke="#191970" d="M114.1739,-183.089C138.4892,-188.1939 168.5802,-194.5113 194.2084,-199.8918"/>
<polygon fill="#191970" stroke="#191970" points="193.6487,-203.3505 204.1545,-201.9799 195.087,-196.4999 193.6487,-203.3505"/>
</g>
<!-- Node5 -->
<g id="node6" class="node">
<title>Node5</title>
<g id="a_node6"><a xlink:href="../../d2/db2/class_i_sim_objects.html#a8c41f728b1c61a705a1013407ac65fe0" target="_top" xlink:title="ISimObjects::getSimVars">
<polygon fill="#ffffff" stroke="#000000" points="185.5,-164 185.5,-183 313.5,-183 313.5,-164 185.5,-164"/>
<text text-anchor="middle" x="249.5" y="-171" font-family="Helvetica,sans-Serif" font-size="10.00" fill="#000000">ISimObjects::getSimVars</text>
</a>
</g>
</g>
<!-- Node0&#45;&gt;Node5 -->
<g id="edge5" class="edge">
<title>Node0&#45;&gt;Node5</title>
<path fill="none" stroke="#191970" d="M137.1864,-173.5C149.6545,-173.5 162.7099,-173.5 175.3274,-173.5"/>
<polygon fill="#191970" stroke="#191970" points="175.3329,-177.0001 185.3329,-173.5 175.3329,-170.0001 175.3329,-177.0001"/>
</g>
<!-- Node6 -->
<g id="node7" class="node">
<title>Node6</title>
<g id="a_node7"><a xlink:href="../../d2/db2/class_i_sim_objects.html#a0608e825fea15825cc6b0dba66f47a63" target="_top" xlink:title="ISimObjects::eraseSimData">
<polygon fill="#ffffff" stroke="#000000" points="180,-126 180,-145 319,-145 319,-126 180,-126"/>
<text text-anchor="middle" x="249.5" y="-133" font-family="Helvetica,sans-Serif" font-size="10.00" fill="#000000">ISimObjects::eraseSimData</text>
</a>
</g>
</g>
<!-- Node0&#45;&gt;Node6 -->
<g id="edge6" class="edge">
<title>Node0&#45;&gt;Node6</title>
<path fill="none" stroke="#191970" d="M114.1739,-163.911C138.4892,-158.8061 168.5802,-152.4887 194.2084,-147.1082"/>
<polygon fill="#191970" stroke="#191970" points="195.087,-150.5001 204.1545,-145.0201 193.6487,-143.6495 195.087,-150.5001"/>
</g>
<!-- Node7 -->
<g id="node8" class="node">
<title>Node7</title>
<g id="a_node8"><a xlink:href="../../d2/db2/class_i_sim_objects.html#aca2b6e9600263e5c4eb706016e848cfe" target="_top" xlink:title="ISimObjects::eraseSimVars">
<polygon fill="#ffffff" stroke="#000000" points="180.5,-88 180.5,-107 318.5,-107 318.5,-88 180.5,-88"/>
<text text-anchor="middle" x="249.5" y="-95" font-family="Helvetica,sans-Serif" font-size="10.00" fill="#000000">ISimObjects::eraseSimVars</text>
</a>
</g>
</g>
<!-- Node0&#45;&gt;Node7 -->
<g id="edge7" class="edge">
<title>Node0&#45;&gt;Node7</title>
<path fill="none" stroke="#191970" d="M83.1438,-163.9337C102.8417,-151.4417 139.3006,-129.6248 173,-116.5 179.34,-114.0308 186.1029,-111.804 192.8853,-109.8186"/>
<polygon fill="#191970" stroke="#191970" points="194.0823,-113.1191 202.7891,-107.0825 192.2182,-106.3719 194.0823,-113.1191"/>
</g>
<!-- Node8 -->
<g id="node9" class="node">
<title>Node8</title>
<g id="a_node9"><a xlink:href="../../d2/db2/class_i_sim_objects.html#a1b962296d663e5cd4724be60bda52a4a" target="_top" xlink:title="ISimObjects::clone">
<polygon fill="#ffffff" stroke="#000000" points="199.5,-50 199.5,-69 299.5,-69 299.5,-50 199.5,-50"/>
<text text-anchor="middle" x="249.5" y="-57" font-family="Helvetica,sans-Serif" font-size="10.00" fill="#000000">ISimObjects::clone</text>
</a>
</g>
</g>
<!-- Node0&#45;&gt;Node8 -->
<g id="edge8" class="edge">
<title>Node0&#45;&gt;Node8</title>
<path fill="none" stroke="#191970" d="M76.2891,-163.7261C92.2701,-144.3564 130.8285,-101.0278 173,-78.5 178.1809,-75.7324 183.7749,-73.3588 189.498,-71.3247"/>
<polygon fill="#191970" stroke="#191970" points="190.7479,-74.5996 199.2012,-68.2127 188.61,-67.934 190.7479,-74.5996"/>
</g>
<!-- Node9 -->
<g id="node10" class="node">
<title>Node9</title>
<g id="a_node10"><a xlink:href="../../d2/db2/class_i_sim_objects.html#af605b85e522f573b561d702fd133ff95" target="_top" xlink:title="ISimObjects::getAlgLoopSolver\lFactory">
<polygon fill="#ffffff" stroke="#000000" points="173,-.5 173,-30.5 326,-30.5 326,-.5 173,-.5"/>
<text text-anchor="start" x="181" y="-18.5" font-family="Helvetica,sans-Serif" font-size="10.00" fill="#000000">ISimObjects::getAlgLoopSolver</text>
<text text-anchor="middle" x="249.5" y="-7.5" font-family="Helvetica,sans-Serif" font-size="10.00" fill="#000000">Factory</text>
</a>
</g>
</g>
<!-- Node0&#45;&gt;Node9 -->
<g id="edge9" class="edge">
<title>Node0&#45;&gt;Node9</title>
<path fill="none" stroke="#191970" d="M73.4163,-163.8756C86.3345,-139.5334 123.6703,-75.0025 173,-40.5 175.8338,-38.518 178.8347,-36.6855 181.9439,-34.9922"/>
<polygon fill="#191970" stroke="#191970" points="183.5058,-38.1245 190.9442,-30.58 180.4245,-31.8392 183.5058,-38.1245"/>
</g>
</g>
</svg>
