<?xml version="1.0" encoding="UTF-8" standalone="no"?>
<!DOCTYPE svg PUBLIC "-//W3C//DTD SVG 1.1//EN"
 "http://www.w3.org/Graphics/SVG/1.1/DTD/svg11.dtd">
<!-- Generated by graphviz version 2.40.1 (20161225.0304)
 -->
<!-- Title: zmq::pipe_t Pages: 1 -->
<svg width="496pt" height="84pt"
 viewBox="0.00 0.00 495.50 84.00" xmlns="http://www.w3.org/2000/svg" xmlns:xlink="http://www.w3.org/1999/xlink">
<g id="graph0" class="graph" transform="scale(1 1) rotate(0) translate(4 80)">
<title>zmq::pipe_t</title>
<polygon fill="#ffffff" stroke="transparent" points="-4,4 -4,-80 491.5,-80 491.5,4 -4,4"/>
<!-- Node0 -->
<g id="node1" class="node">
<title>Node0</title>
<polygon fill="#bfbfbf" stroke="#000000" points="188,-.5 188,-19.5 256,-19.5 256,-.5 188,-.5"/>
<text text-anchor="middle" x="222" y="-7.5" font-family="Helvetica,sans-Serif" font-size="10.00" fill="#000000">zmq::pipe_t</text>
</g>
<!-- Node1 -->
<g id="node2" class="node">
<title>Node1</title>
<g id="a_node2"><a xlink:href="../../df/db7/classzmq_1_1object__t.html" target="_top" xlink:title="zmq::object_t">
<polygon fill="#ffffff" stroke="#000000" points="0,-56.5 0,-75.5 76,-75.5 76,-56.5 0,-56.5"/>
<text text-anchor="middle" x="38" y="-63.5" font-family="Helvetica,sans-Serif" font-size="10.00" fill="#000000">zmq::object_t</text>
</a>
</g>
</g>
<!-- Node1&#45;&gt;Node0 -->
<g id="edge1" class="edge">
<title>Node1&#45;&gt;Node0</title>
<path fill="none" stroke="#191970" d="M79.2157,-53.4561C112.9916,-43.1765 160.0663,-28.8494 190.782,-19.5011"/>
<polygon fill="#191970" stroke="#191970" points="78.1784,-50.1132 69.6307,-56.3733 80.2166,-56.8099 78.1784,-50.1132"/>
</g>
<!-- Node2 -->
<g id="node3" class="node">
<title>Node2</title>
<g id="a_node3"><a xlink:href="../../d2/d66/classzmq_1_1array__item__t.html" target="_top" xlink:title="zmq::array_item_t\&lt; 1 \&gt;">
<polygon fill="#ffffff" stroke="#000000" points="94.5,-56.5 94.5,-75.5 213.5,-75.5 213.5,-56.5 94.5,-56.5"/>
<text text-anchor="middle" x="154" y="-63.5" font-family="Helvetica,sans-Serif" font-size="10.00" fill="#000000">zmq::array_item_t&lt; 1 &gt;</text>
</a>
</g>
</g>
<!-- Node2&#45;&gt;Node0 -->
<g id="edge2" class="edge">
<title>Node2&#45;&gt;Node0</title>
<path fill="none" stroke="#191970" d="M173.8596,-49.645C185.6858,-39.9058 200.2892,-27.8795 210.291,-19.6427"/>
<polygon fill="#191970" stroke="#191970" points="171.339,-47.1867 165.8447,-56.2455 175.789,-52.5902 171.339,-47.1867"/>
</g>
<!-- Node3 -->
<g id="node4" class="node">
<title>Node3</title>
<g id="a_node4"><a xlink:href="../../d2/d66/classzmq_1_1array__item__t.html" target="_top" xlink:title="zmq::array_item_t\&lt; 2 \&gt;">
<polygon fill="#ffffff" stroke="#000000" points="231.5,-56.5 231.5,-75.5 350.5,-75.5 350.5,-56.5 231.5,-56.5"/>
<text text-anchor="middle" x="291" y="-63.5" font-family="Helvetica,sans-Serif" font-size="10.00" fill="#000000">zmq::array_item_t&lt; 2 &gt;</text>
</a>
</g>
</g>
<!-- Node3&#45;&gt;Node0 -->
<g id="edge3" class="edge">
<title>Node3&#45;&gt;Node0</title>
<path fill="none" stroke="#191970" d="M271.197,-49.928C259.1364,-40.1397 244.1286,-27.9595 233.8812,-19.6427"/>
<polygon fill="#191970" stroke="#191970" points="269.0109,-52.6614 278.9811,-56.2455 273.4221,-47.2262 269.0109,-52.6614"/>
</g>
<!-- Node4 -->
<g id="node5" class="node">
<title>Node4</title>
<g id="a_node5"><a xlink:href="../../d2/d66/classzmq_1_1array__item__t.html" target="_top" xlink:title="zmq::array_item_t\&lt; 3 \&gt;">
<polygon fill="#ffffff" stroke="#000000" points="368.5,-56.5 368.5,-75.5 487.5,-75.5 487.5,-56.5 368.5,-56.5"/>
<text text-anchor="middle" x="428" y="-63.5" font-family="Helvetica,sans-Serif" font-size="10.00" fill="#000000">zmq::array_item_t&lt; 3 &gt;</text>
</a>
</g>
</g>
<!-- Node4&#45;&gt;Node0 -->
<g id="edge4" class="edge">
<title>Node4&#45;&gt;Node0</title>
<path fill="none" stroke="#191970" d="M382.7652,-53.7032C344.6402,-43.3391 290.9107,-28.733 256.266,-19.315"/>
<polygon fill="#191970" stroke="#191970" points="382.0194,-57.1274 392.5873,-56.3733 383.8557,-50.3725 382.0194,-57.1274"/>
</g>
</g>
</svg>
