<?xml version="1.0" encoding="UTF-8" standalone="no"?>
<!DOCTYPE svg PUBLIC "-//W3C//DTD SVG 1.1//EN"
 "http://www.w3.org/Graphics/SVG/1.1/DTD/svg11.dtd">
<!-- Generated by graphviz version 2.40.1 (20161225.0304)
 -->
<!-- Title: omc_HpcOmEqSystems_dumpEqArrLst1 Pages: 1 -->
<svg width="303pt" height="39pt"
 viewBox="0.00 0.00 303.00 39.00" xmlns="http://www.w3.org/2000/svg" xmlns:xlink="http://www.w3.org/1999/xlink">
<g id="graph0" class="graph" transform="scale(1 1) rotate(0) translate(4 35)">
<title>omc_HpcOmEqSystems_dumpEqArrLst1</title>
<polygon fill="#ffffff" stroke="transparent" points="-4,4 -4,-35 299,-35 299,4 -4,4"/>
<!-- Node1080 -->
<g id="node1" class="node">
<title>Node1080</title>
<polygon fill="#bfbfbf" stroke="#000000" points="0,-.5 0,-30.5 125,-30.5 125,-.5 0,-.5"/>
<text text-anchor="start" x="8" y="-18.5" font-family="Helvetica,sans-Serif" font-size="10.00" fill="#000000">omc_HpcOmEqSystems</text>
<text text-anchor="middle" x="62.5" y="-7.5" font-family="Helvetica,sans-Serif" font-size="10.00" fill="#000000">_dumpEqArrLst1</text>
</g>
<!-- Node1081 -->
<g id="node2" class="node">
<title>Node1081</title>
<g id="a_node2"><a xlink:href="../../d2/d0b/_hpc_om_eq_systems_8c.html#abebb44d6ef3a320fd1365463f1061ef0" target="_top" xlink:title="boxptr_HpcOmEqSystems\l_dumpEqArrLst1">
<polygon fill="#ffffff" stroke="#000000" points="161,-.5 161,-30.5 295,-30.5 295,-.5 161,-.5"/>
<text text-anchor="start" x="169" y="-18.5" font-family="Helvetica,sans-Serif" font-size="10.00" fill="#000000">boxptr_HpcOmEqSystems</text>
<text text-anchor="middle" x="228" y="-7.5" font-family="Helvetica,sans-Serif" font-size="10.00" fill="#000000">_dumpEqArrLst1</text>
</a>
</g>
</g>
<!-- Node1080&#45;&gt;Node1081 -->
<g id="edge1" class="edge">
<title>Node1080&#45;&gt;Node1081</title>
<path fill="none" stroke="#191970" d="M135.3485,-15.5C143.854,-15.5 152.5011,-15.5 160.9234,-15.5"/>
<polygon fill="#191970" stroke="#191970" points="135.0685,-12.0001 125.0685,-15.5 135.0684,-19.0001 135.0685,-12.0001"/>
</g>
</g>
</svg>
