<?xml version="1.0" encoding="UTF-8" standalone="no"?>
<!DOCTYPE svg PUBLIC "-//W3C//DTD SVG 1.1//EN"
 "http://www.w3.org/Graphics/SVG/1.1/DTD/svg11.dtd">
<!-- Generated by graphviz version 2.40.1 (20161225.0304)
 -->
<!-- Title: boxptr_HpcOmEqSystems_reduceLinearTornSystem Pages: 1 -->
<svg width="1521pt" height="680pt"
 viewBox="0.00 0.00 1521.00 679.50" xmlns="http://www.w3.org/2000/svg" xmlns:xlink="http://www.w3.org/1999/xlink">
<g id="graph0" class="graph" transform="scale(1 1) rotate(0) translate(4 675.5)">
<title>boxptr_HpcOmEqSystems_reduceLinearTornSystem</title>
<polygon fill="#ffffff" stroke="transparent" points="-4,4 -4,-675.5 1517,-675.5 1517,4 -4,4"/>
<!-- Node294 -->
<g id="node1" class="node">
<title>Node294</title>
<polygon fill="#bfbfbf" stroke="#000000" points="0,-397 0,-427 134,-427 134,-397 0,-397"/>
<text text-anchor="start" x="8" y="-415" font-family="Helvetica,sans-Serif" font-size="10.00" fill="#000000">boxptr_HpcOmEqSystems</text>
<text text-anchor="middle" x="67" y="-404" font-family="Helvetica,sans-Serif" font-size="10.00" fill="#000000">_reduceLinearTornSystem</text>
</g>
<!-- Node295 -->
<g id="node2" class="node">
<title>Node295</title>
<g id="a_node2"><a xlink:href="../../d2/d0b/_hpc_om_eq_systems_8c.html#ac68e3de1b32143c6b5633d4d9b7e2194" target="_top" xlink:title="omc_HpcOmEqSystems\l_reduceLinearTornSystem">
<polygon fill="#ffffff" stroke="#000000" points="170,-397 170,-427 301,-427 301,-397 170,-397"/>
<text text-anchor="start" x="178" y="-415" font-family="Helvetica,sans-Serif" font-size="10.00" fill="#000000">omc_HpcOmEqSystems</text>
<text text-anchor="middle" x="235.5" y="-404" font-family="Helvetica,sans-Serif" font-size="10.00" fill="#000000">_reduceLinearTornSystem</text>
</a>
</g>
</g>
<!-- Node294&#45;&gt;Node295 -->
<g id="edge1" class="edge">
<title>Node294&#45;&gt;Node295</title>
<path fill="none" stroke="#191970" d="M134.0798,-412C142.4314,-412 151.0181,-412 159.4925,-412"/>
<polygon fill="#191970" stroke="#191970" points="159.7503,-415.5001 169.7503,-412 159.7503,-408.5001 159.7503,-415.5001"/>
</g>
<!-- Node296 -->
<g id="node3" class="node">
<title>Node296</title>
<g id="a_node3"><a xlink:href="../../d2/d0b/_hpc_om_eq_systems_8c.html#a178d9898c2a863f9d8b62d862fea6d8c" target="_top" xlink:title="omc_HpcOmEqSystems\l_reduceLinearTornSystem1">
<polygon fill="#ffffff" stroke="#000000" points="337,-419 337,-449 473,-449 473,-419 337,-419"/>
<text text-anchor="start" x="345" y="-437" font-family="Helvetica,sans-Serif" font-size="10.00" fill="#000000">omc_HpcOmEqSystems</text>
<text text-anchor="middle" x="405" y="-426" font-family="Helvetica,sans-Serif" font-size="10.00" fill="#000000">_reduceLinearTornSystem1</text>
</a>
</g>
</g>
<!-- Node295&#45;&gt;Node296 -->
<g id="edge2" class="edge">
<title>Node295&#45;&gt;Node296</title>
<path fill="none" stroke="#191970" d="M301.0331,-420.5058C309.4698,-421.6008 318.1747,-422.7306 326.789,-423.8487"/>
<polygon fill="#191970" stroke="#191970" points="326.4709,-427.3367 336.8382,-425.153 327.3719,-420.3949 326.4709,-427.3367"/>
</g>
<!-- Node339 -->
<g id="node46" class="node">
<title>Node339</title>
<g id="a_node46"><a xlink:href="../../d1/dd1/3rd_party_2gc_2include_2gc_8h.html#acacfa47efcc44a29f7bb7d98f2a000f8" target="_top" xlink:title="void">
<polygon fill="#ffffff" stroke="#000000" points="387.5,-380.5 387.5,-399.5 422.5,-399.5 422.5,-380.5 387.5,-380.5"/>
<text text-anchor="middle" x="405" y="-387.5" font-family="Helvetica,sans-Serif" font-size="10.00" fill="#000000">void</text>
</a>
</g>
</g>
<!-- Node295&#45;&gt;Node339 -->
<g id="edge51" class="edge">
<title>Node295&#45;&gt;Node339</title>
<path fill="none" stroke="#191970" d="M301.0331,-403.4942C327.5295,-400.0552 356.6713,-396.2728 377.3427,-393.5897"/>
<polygon fill="#191970" stroke="#191970" points="377.8553,-397.0527 387.3216,-392.2945 376.9542,-390.1109 377.8553,-397.0527"/>
</g>
<!-- Node297 -->
<g id="node4" class="node">
<title>Node297</title>
<g id="a_node4"><a xlink:href="../../d2/d57/build_2include_2omc_2c_2meta_2meta__modelica__builtin_8h.html#a6983369f3c3e3e8cc41ac483c9a9baf1" target="_top" xlink:title="listLength">
<polygon fill="#ffffff" stroke="#000000" points="906,-438.5 906,-457.5 965,-457.5 965,-438.5 906,-438.5"/>
<text text-anchor="middle" x="935.5" y="-445.5" font-family="Helvetica,sans-Serif" font-size="10.00" fill="#000000">listLength</text>
</a>
</g>
</g>
<!-- Node296&#45;&gt;Node297 -->
<g id="edge3" class="edge">
<title>Node296&#45;&gt;Node297</title>
<path fill="none" stroke="#191970" d="M473.0425,-436.8539C528.8979,-439.1032 610.0607,-442.1576 681,-444 756.8837,-445.9708 845.5217,-447.0978 895.6292,-447.626"/>
<polygon fill="#191970" stroke="#191970" points="895.6828,-451.1266 905.7183,-447.7297 895.7548,-444.127 895.6828,-451.1266"/>
</g>
<!-- Node298 -->
<g id="node5" class="node">
<title>Node298</title>
<g id="a_node5"><a xlink:href="../../d3/db3/_flags_8c.html#a1e76daf734b2146efc0e041e614f63d0" target="_top" xlink:title="omc_Flags_getConfigInt">
<polygon fill="#ffffff" stroke="#000000" points="515.5,-585.5 515.5,-604.5 638.5,-604.5 638.5,-585.5 515.5,-585.5"/>
<text text-anchor="middle" x="577" y="-592.5" font-family="Helvetica,sans-Serif" font-size="10.00" fill="#000000">omc_Flags_getConfigInt</text>
</a>
</g>
</g>
<!-- Node296&#45;&gt;Node298 -->
<g id="edge4" class="edge">
<title>Node296&#45;&gt;Node298</title>
<path fill="none" stroke="#191970" d="M415.8426,-449.3857C433.4432,-473.6338 470.1907,-521.3351 509,-554 521.0514,-564.1434 535.8921,-573.4002 548.631,-580.5409"/>
<polygon fill="#191970" stroke="#191970" points="547.009,-583.6429 557.4656,-585.3489 550.3552,-577.4944 547.009,-583.6429"/>
</g>
<!-- Node302 -->
<g id="node9" class="node">
<title>Node302</title>
<g id="a_node9"><a xlink:href="../../d2/d0b/_hpc_om_eq_systems_8c.html#aad5752bb70549010bfdf5677836897b7" target="_top" xlink:title="omc_HpcOmEqSystems\l_reduceLinearTornSystem2">
<polygon fill="#ffffff" stroke="#000000" points="509,-356 509,-386 645,-386 645,-356 509,-356"/>
<text text-anchor="start" x="517" y="-374" font-family="Helvetica,sans-Serif" font-size="10.00" fill="#000000">omc_HpcOmEqSystems</text>
<text text-anchor="middle" x="577" y="-363" font-family="Helvetica,sans-Serif" font-size="10.00" fill="#000000">_reduceLinearTornSystem2</text>
</a>
</g>
</g>
<!-- Node296&#45;&gt;Node302 -->
<g id="edge8" class="edge">
<title>Node296&#45;&gt;Node302</title>
<path fill="none" stroke="#191970" d="M446.1983,-418.9099C470.2566,-410.0979 500.8049,-398.9087 526.3282,-389.56"/>
<polygon fill="#191970" stroke="#191970" points="527.654,-392.8019 535.8402,-386.076 525.2464,-386.2289 527.654,-392.8019"/>
</g>
<!-- Node303 -->
<g id="node10" class="node">
<title>Node303</title>
<g id="a_node10"><a xlink:href="../../d2/ddf/_backend_equation_8c.html#a0abfa61a7a3f92bf8084d92e473d2783" target="_top" xlink:title="omc_BackendEquation\l_equationList">
<polygon fill="#ffffff" stroke="#000000" points="694.5,-641 694.5,-671 811.5,-671 811.5,-641 694.5,-641"/>
<text text-anchor="start" x="702.5" y="-659" font-family="Helvetica,sans-Serif" font-size="10.00" fill="#000000">omc_BackendEquation</text>
<text text-anchor="middle" x="753" y="-648" font-family="Helvetica,sans-Serif" font-size="10.00" fill="#000000">_equationList</text>
</a>
</g>
</g>
<!-- Node296&#45;&gt;Node303 -->
<g id="edge47" class="edge">
<title>Node296&#45;&gt;Node303</title>
<path fill="none" stroke="#191970" d="M408.9463,-449.084C419.0147,-484.3427 449.1889,-572.3153 509,-614 560.1612,-649.6562 631.6986,-658.3877 684.0863,-659.2601"/>
<polygon fill="#191970" stroke="#191970" points="684.2713,-662.7614 694.2969,-659.3354 684.323,-655.7616 684.2713,-662.7614"/>
</g>
<!-- Node305 -->
<g id="node12" class="node">
<title>Node305</title>
<g id="a_node12"><a xlink:href="../../dd/db3/_backend_variable_8c.html#a51a1e83100b01afe350584face09be78" target="_top" xlink:title="omc_BackendVariable\l_varList">
<polygon fill="#ffffff" stroke="#000000" points="696,-553 696,-583 810,-583 810,-553 696,-553"/>
<text text-anchor="start" x="704" y="-571" font-family="Helvetica,sans-Serif" font-size="10.00" fill="#000000">omc_BackendVariable</text>
<text text-anchor="middle" x="753" y="-560" font-family="Helvetica,sans-Serif" font-size="10.00" fill="#000000">_varList</text>
</a>
</g>
</g>
<!-- Node296&#45;&gt;Node305 -->
<g id="edge46" class="edge">
<title>Node296&#45;&gt;Node305</title>
<path fill="none" stroke="#191970" d="M430.4651,-449.0661C451.1567,-460.9134 481.343,-477.3137 509,-489 568.023,-513.9398 637.791,-535.8042 687.5728,-550.1698"/>
<polygon fill="#191970" stroke="#191970" points="686.6764,-553.5538 697.2536,-552.9417 688.6033,-546.8242 686.6764,-553.5538"/>
</g>
<!-- Node336 -->
<g id="node43" class="node">
<title>Node336</title>
<g id="a_node43"><a xlink:href="../../d2/d57/build_2include_2omc_2c_2meta_2meta__modelica__builtin_8h.html#a56b7e8a835b2d388f5984ca7378bc1ec" target="_top" xlink:title="listAppend">
<polygon fill="#ffffff" stroke="#000000" points="546,-317.5 546,-336.5 608,-336.5 608,-317.5 546,-317.5"/>
<text text-anchor="middle" x="577" y="-324.5" font-family="Helvetica,sans-Serif" font-size="10.00" fill="#000000">listAppend</text>
</a>
</g>
</g>
<!-- Node296&#45;&gt;Node336 -->
<g id="edge48" class="edge">
<title>Node296&#45;&gt;Node336</title>
<path fill="none" stroke="#191970" d="M457.5679,-418.9965C463.0962,-416.1882 468.3765,-412.8826 473,-409 497.4012,-388.5088 483.9334,-366.6717 509,-347 516.8314,-340.8541 526.5038,-336.5953 536.0716,-333.6446"/>
<polygon fill="#191970" stroke="#191970" points="537.1616,-336.9764 545.9229,-331.019 535.3588,-330.2125 537.1616,-336.9764"/>
</g>
<!-- Node337 -->
<g id="node44" class="node">
<title>Node337</title>
<g id="a_node44"><a xlink:href="../../da/d72/_compiler_2boot_2build_2list_8c.html#a7d6f5fe2d7c15f8c71984a865c7a1c90" target="_top" xlink:title="omc_List_fold2">
<polygon fill="#ffffff" stroke="#000000" points="535.5,-279.5 535.5,-298.5 618.5,-298.5 618.5,-279.5 535.5,-279.5"/>
<text text-anchor="middle" x="577" y="-286.5" font-family="Helvetica,sans-Serif" font-size="10.00" fill="#000000">omc_List_fold2</text>
</a>
</g>
</g>
<!-- Node296&#45;&gt;Node337 -->
<g id="edge49" class="edge">
<title>Node296&#45;&gt;Node337</title>
<path fill="none" stroke="#191970" d="M459.9857,-418.8611C464.749,-416.1009 469.1945,-412.8434 473,-409 506.5299,-375.1361 474.1453,-340.4986 509,-308 513.7656,-303.5566 519.4839,-300.1392 525.5539,-297.5134"/>
<polygon fill="#191970" stroke="#191970" points="527.073,-300.6865 535.2954,-294.005 524.701,-294.1006 527.073,-300.6865"/>
</g>
<!-- Node338 -->
<g id="node45" class="node">
<title>Node338</title>
<g id="a_node45"><a xlink:href="../../da/d72/_compiler_2boot_2build_2list_8c.html#a6a8bb48c19bac1db7306364e7c3b0bd7" target="_top" xlink:title="omc_List_intRange">
<polygon fill="#ffffff" stroke="#000000" points="526.5,-241.5 526.5,-260.5 627.5,-260.5 627.5,-241.5 526.5,-241.5"/>
<text text-anchor="middle" x="577" y="-248.5" font-family="Helvetica,sans-Serif" font-size="10.00" fill="#000000">omc_List_intRange</text>
</a>
</g>
</g>
<!-- Node296&#45;&gt;Node338 -->
<g id="edge50" class="edge">
<title>Node296&#45;&gt;Node338</title>
<path fill="none" stroke="#191970" d="M461.0007,-418.8065C465.4409,-416.0616 469.5381,-412.8223 473,-409 515.8395,-361.7002 464.3068,-315.5523 509,-270 511.5231,-267.4284 514.3631,-265.1969 517.414,-263.2612"/>
<polygon fill="#191970" stroke="#191970" points="519.2204,-266.267 526.4827,-258.5527 515.9948,-260.0545 519.2204,-266.267"/>
</g>
<!-- Node299 -->
<g id="node6" class="node">
<title>Node299</title>
<g id="a_node6"><a xlink:href="../../d3/db3/_flags_8c.html#a96ba70d54b6662cf90933a207c0c6b8e" target="_top" xlink:title="omc_Flags_getConfigValue">
<polygon fill="#ffffff" stroke="#000000" points="684.5,-602.5 684.5,-621.5 821.5,-621.5 821.5,-602.5 684.5,-602.5"/>
<text text-anchor="middle" x="753" y="-609.5" font-family="Helvetica,sans-Serif" font-size="10.00" fill="#000000">omc_Flags_getConfigValue</text>
</a>
</g>
</g>
<!-- Node298&#45;&gt;Node299 -->
<g id="edge5" class="edge">
<title>Node298&#45;&gt;Node299</title>
<path fill="none" stroke="#191970" d="M638.5563,-600.9458C650.0953,-602.0603 662.3031,-603.2395 674.2791,-604.3963"/>
<polygon fill="#191970" stroke="#191970" points="673.9744,-607.8831 684.2646,-605.3608 674.6475,-600.9155 673.9744,-607.8831"/>
</g>
<!-- Node300 -->
<g id="node7" class="node">
<title>Node300</title>
<g id="a_node7"><a xlink:href="../../d3/db3/_flags_8c.html#a760d66f53b65ac257876ca0f6308f09f" target="_top" xlink:title="omc_Flags_loadFlags">
<polygon fill="#ffffff" stroke="#000000" points="879.5,-602.5 879.5,-621.5 991.5,-621.5 991.5,-602.5 879.5,-602.5"/>
<text text-anchor="middle" x="935.5" y="-609.5" font-family="Helvetica,sans-Serif" font-size="10.00" fill="#000000">omc_Flags_loadFlags</text>
</a>
</g>
</g>
<!-- Node299&#45;&gt;Node300 -->
<g id="edge6" class="edge">
<title>Node299&#45;&gt;Node300</title>
<path fill="none" stroke="#191970" d="M821.7354,-612C837.1695,-612 853.5201,-612 868.8668,-612"/>
<polygon fill="#191970" stroke="#191970" points="869.3074,-615.5001 879.3074,-612 869.3073,-608.5001 869.3074,-615.5001"/>
</g>
<!-- Node301 -->
<g id="node8" class="node">
<title>Node301</title>
<g id="a_node8"><a xlink:href="../../da/d72/_compiler_2boot_2build_2list_8c.html#a3ec1ee3a5ff53be9af368e290be09182" target="_top" xlink:title="omc_List_fold">
<polygon fill="#ffffff" stroke="#000000" points="1082,-558.5 1082,-577.5 1159,-577.5 1159,-558.5 1082,-558.5"/>
<text text-anchor="middle" x="1120.5" y="-565.5" font-family="Helvetica,sans-Serif" font-size="10.00" fill="#000000">omc_List_fold</text>
</a>
</g>
</g>
<!-- Node300&#45;&gt;Node301 -->
<g id="edge7" class="edge">
<title>Node300&#45;&gt;Node301</title>
<path fill="none" stroke="#191970" d="M975.6422,-602.4527C1003.9033,-595.7311 1041.8868,-586.6972 1071.8685,-579.5664"/>
<polygon fill="#191970" stroke="#191970" points="1072.7851,-582.9461 1081.7038,-577.2272 1071.1654,-576.1361 1072.7851,-582.9461"/>
</g>
<!-- Node302&#45;&gt;Node297 -->
<g id="edge44" class="edge">
<title>Node302&#45;&gt;Node297</title>
<path fill="none" stroke="#191970" d="M604.3751,-386.1809C624.8571,-396.8337 653.8905,-410.4711 681,-418 755.0385,-438.5621 845.0166,-445.0343 895.7259,-447.0692"/>
<polygon fill="#191970" stroke="#191970" points="895.8104,-450.5745 905.9308,-447.4396 896.0643,-443.5791 895.8104,-450.5745"/>
</g>
<!-- Node302&#45;&gt;Node303 -->
<g id="edge9" class="edge">
<title>Node302&#45;&gt;Node303</title>
<path fill="none" stroke="#191970" d="M581.2396,-386.0938C595.5369,-436.0523 643.1993,-594.9105 681,-631 682.633,-632.5591 684.3681,-634.0214 686.1846,-635.3929"/>
<polygon fill="#191970" stroke="#191970" points="684.3081,-638.3474 694.6048,-640.8432 688.1118,-632.4711 684.3081,-638.3474"/>
</g>
<!-- Node302&#45;&gt;Node305 -->
<g id="edge11" class="edge">
<title>Node302&#45;&gt;Node305</title>
<path fill="none" stroke="#191970" d="M581.9895,-386.1715C593.7601,-419.6367 626.4464,-500.2767 681,-544 682.8378,-545.473 684.77,-546.8572 686.7744,-548.158"/>
<polygon fill="#191970" stroke="#191970" points="685.5283,-551.4737 695.9569,-553.3427 688.97,-545.3783 685.5283,-551.4737"/>
</g>
<!-- Node307 -->
<g id="node14" class="node">
<title>Node307</title>
<g id="a_node14"><a xlink:href="../../da/d72/_compiler_2boot_2build_2list_8c.html#a82a304d48e2d3a9aae9848f2c3dcadcb" target="_top" xlink:title="omc_List_map1r">
<polygon fill="#ffffff" stroke="#000000" points="708.5,-263.5 708.5,-282.5 797.5,-282.5 797.5,-263.5 708.5,-263.5"/>
<text text-anchor="middle" x="753" y="-270.5" font-family="Helvetica,sans-Serif" font-size="10.00" fill="#000000">omc_List_map1r</text>
</a>
</g>
</g>
<!-- Node302&#45;&gt;Node307 -->
<g id="edge13" class="edge">
<title>Node302&#45;&gt;Node307</title>
<path fill="none" stroke="#191970" d="M628.9858,-355.881C634.6811,-353.0862 640.1597,-349.8155 645,-346 667.6527,-328.1434 657.5309,-308.769 681,-292 686.2462,-288.2515 692.1811,-285.2424 698.3372,-282.8269"/>
<polygon fill="#191970" stroke="#191970" points="699.785,-286.0316 708.126,-279.4988 697.5316,-279.4041 699.785,-286.0316"/>
</g>
<!-- Node308 -->
<g id="node15" class="node">
<title>Node308</title>
<g id="a_node15"><a xlink:href="../../da/d72/_compiler_2boot_2build_2list_8c.html#a70628b2c3fb199a118f80777135940ee" target="_top" xlink:title="omc_List_map">
<polygon fill="#ffffff" stroke="#000000" points="713,-225.5 713,-244.5 793,-244.5 793,-225.5 713,-225.5"/>
<text text-anchor="middle" x="753" y="-232.5" font-family="Helvetica,sans-Serif" font-size="10.00" fill="#000000">omc_List_map</text>
</a>
</g>
</g>
<!-- Node302&#45;&gt;Node308 -->
<g id="edge14" class="edge">
<title>Node302&#45;&gt;Node308</title>
<path fill="none" stroke="#191970" d="M631.53,-355.9293C636.443,-353.1527 641.0464,-349.8727 645,-346 676.3669,-315.2751 648.2198,-283.2123 681,-254 687.2441,-248.4355 694.9306,-244.4701 702.9315,-241.6508"/>
<polygon fill="#191970" stroke="#191970" points="704.1691,-244.935 712.7712,-238.75 702.1896,-238.2207 704.1691,-244.935"/>
</g>
<!-- Node309 -->
<g id="node16" class="node">
<title>Node309</title>
<g id="a_node16"><a xlink:href="../../db/dee/_backend_var_transform_8c.html#a3a1179a90812a63eb5936e633674ef61" target="_top" xlink:title="omc_BackendVarTransform\l_emptyReplacements">
<polygon fill="#ffffff" stroke="#000000" points="684,-176 684,-206 822,-206 822,-176 684,-176"/>
<text text-anchor="start" x="692" y="-194" font-family="Helvetica,sans-Serif" font-size="10.00" fill="#000000">omc_BackendVarTransform</text>
<text text-anchor="middle" x="753" y="-183" font-family="Helvetica,sans-Serif" font-size="10.00" fill="#000000">_emptyReplacements</text>
</a>
</g>
</g>
<!-- Node302&#45;&gt;Node309 -->
<g id="edge15" class="edge">
<title>Node302&#45;&gt;Node309</title>
<path fill="none" stroke="#191970" d="M632.6068,-355.944C637.1861,-353.1694 641.421,-349.8858 645,-346 685.616,-301.9022 639.9864,-259.7282 681,-216 682.2447,-214.673 683.5633,-213.4163 684.9445,-212.2264"/>
<polygon fill="#191970" stroke="#191970" points="687.3753,-214.7899 693.4573,-206.1146 683.2928,-209.1036 687.3753,-214.7899"/>
</g>
<!-- Node314 -->
<g id="node21" class="node">
<title>Node314</title>
<g id="a_node21"><a xlink:href="../../da/d72/_compiler_2boot_2build_2list_8c.html#aa6443768b2652ff54b887e5756f8296f" target="_top" xlink:title="omc_List_threadFold">
<polygon fill="#ffffff" stroke="#000000" points="699.5,-137.5 699.5,-156.5 806.5,-156.5 806.5,-137.5 699.5,-137.5"/>
<text text-anchor="middle" x="753" y="-144.5" font-family="Helvetica,sans-Serif" font-size="10.00" fill="#000000">omc_List_threadFold</text>
</a>
</g>
</g>
<!-- Node302&#45;&gt;Node314 -->
<g id="edge20" class="edge">
<title>Node302&#45;&gt;Node314</title>
<path fill="none" stroke="#191970" d="M633.5509,-355.8037C637.8189,-353.0604 641.7283,-349.8222 645,-346 698.0519,-284.0202 625.0857,-225.4104 681,-166 683.7619,-163.0654 686.9187,-160.5638 690.3333,-158.4332"/>
<polygon fill="#191970" stroke="#191970" points="691.9608,-161.5321 699.274,-153.866 688.7764,-155.2983 691.9608,-161.5321"/>
</g>
<!-- Node315 -->
<g id="node22" class="node">
<title>Node315</title>
<g id="a_node22"><a xlink:href="../../d2/ddf/_backend_equation_8c.html#aeac3fefcc53c916417867bae3b3eccc6" target="_top" xlink:title="omc_BackendEquation\l_getList">
<polygon fill="#ffffff" stroke="#000000" points="694.5,-88 694.5,-118 811.5,-118 811.5,-88 694.5,-88"/>
<text text-anchor="start" x="702.5" y="-106" font-family="Helvetica,sans-Serif" font-size="10.00" fill="#000000">omc_BackendEquation</text>
<text text-anchor="middle" x="753" y="-95" font-family="Helvetica,sans-Serif" font-size="10.00" fill="#000000">_getList</text>
</a>
</g>
</g>
<!-- Node302&#45;&gt;Node315 -->
<g id="edge21" class="edge">
<title>Node302&#45;&gt;Node315</title>
<path fill="none" stroke="#191970" d="M633.6896,-355.9204C637.9285,-353.1526 641.7933,-349.8769 645,-346 707.59,-270.33 617.7274,-203.1002 681,-128 682.524,-126.1912 684.1861,-124.513 685.9598,-122.9562"/>
<polygon fill="#191970" stroke="#191970" points="688.3141,-125.573 694.3675,-116.8778 684.2129,-119.9003 688.3141,-125.573"/>
</g>
<!-- Node319 -->
<g id="node26" class="node">
<title>Node319</title>
<g id="a_node26"><a xlink:href="../../d2/ddf/_backend_equation_8c.html#a53861ca7c1e356a4a128ef4e2ec0e976" target="_top" xlink:title="omc_BackendEquation\l_replaceDerOpInEquationList">
<polygon fill="#ffffff" stroke="#000000" points="681,-39 681,-69 825,-69 825,-39 681,-39"/>
<text text-anchor="start" x="689" y="-57" font-family="Helvetica,sans-Serif" font-size="10.00" fill="#000000">omc_BackendEquation</text>
<text text-anchor="middle" x="753" y="-46" font-family="Helvetica,sans-Serif" font-size="10.00" fill="#000000">_replaceDerOpInEquationList</text>
</a>
</g>
</g>
<!-- Node302&#45;&gt;Node319 -->
<g id="edge25" class="edge">
<title>Node302&#45;&gt;Node319</title>
<path fill="none" stroke="#191970" d="M634.1303,-355.8124C638.2184,-353.0676 641.9307,-349.8266 645,-346 720.1953,-252.2497 604.3811,-170.5905 681,-78 681.714,-77.1371 682.46,-76.3051 683.235,-75.5029"/>
<polygon fill="#191970" stroke="#191970" points="685.5067,-78.1657 690.9161,-69.0559 681.0064,-72.804 685.5067,-78.1657"/>
</g>
<!-- Node323 -->
<g id="node30" class="node">
<title>Node323</title>
<g id="a_node30"><a xlink:href="../../da/d72/_compiler_2boot_2build_2list_8c.html#ac1450f37023efdef1489fe53cd3bea61" target="_top" xlink:title="omc_List_map__3">
<polygon fill="#ffffff" stroke="#000000" points="705,-.5 705,-19.5 801,-19.5 801,-.5 705,-.5"/>
<text text-anchor="middle" x="753" y="-7.5" font-family="Helvetica,sans-Serif" font-size="10.00" fill="#000000">omc_List_map__3</text>
</a>
</g>
</g>
<!-- Node302&#45;&gt;Node323 -->
<g id="edge29" class="edge">
<title>Node302&#45;&gt;Node323</title>
<path fill="none" stroke="#191970" d="M634.215,-355.8796C638.285,-353.1204 641.97,-349.8578 645,-346 732.583,-234.4882 588.2584,-136.2598 681,-29 684.9543,-24.4267 689.8666,-20.8902 695.255,-18.1643"/>
<polygon fill="#191970" stroke="#191970" points="696.7593,-21.3305 704.6875,-14.3023 694.1069,-14.8524 696.7593,-21.3305"/>
</g>
<!-- Node324 -->
<g id="node31" class="node">
<title>Node324</title>
<g id="a_node31"><a xlink:href="../../d2/ddf/_backend_equation_8c.html#a8cadc7b3eaaf06c86188ceccae742d9f" target="_top" xlink:title="omc_BackendEquation\l_listEquation">
<polygon fill="#ffffff" stroke="#000000" points="694.5,-504 694.5,-534 811.5,-534 811.5,-504 694.5,-504"/>
<text text-anchor="start" x="702.5" y="-522" font-family="Helvetica,sans-Serif" font-size="10.00" fill="#000000">omc_BackendEquation</text>
<text text-anchor="middle" x="753" y="-511" font-family="Helvetica,sans-Serif" font-size="10.00" fill="#000000">_listEquation</text>
</a>
</g>
</g>
<!-- Node302&#45;&gt;Node324 -->
<g id="edge30" class="edge">
<title>Node302&#45;&gt;Node324</title>
<path fill="none" stroke="#191970" d="M594.8444,-386.0055C626.2055,-412.3774 691.2998,-467.1158 727.434,-497.5013"/>
<polygon fill="#191970" stroke="#191970" points="725.2021,-500.1975 735.1084,-503.9548 729.7074,-494.84 725.2021,-500.1975"/>
</g>
<!-- Node330 -->
<g id="node37" class="node">
<title>Node330</title>
<g id="a_node37"><a xlink:href="../../da/d72/_compiler_2boot_2build_2list_8c.html#a569a655bd52f2c55b999d4bb0d6e09a7" target="_top" xlink:title="omc_List_unionList">
<polygon fill="#ffffff" stroke="#000000" points="702.5,-339.5 702.5,-358.5 803.5,-358.5 803.5,-339.5 702.5,-339.5"/>
<text text-anchor="middle" x="753" y="-346.5" font-family="Helvetica,sans-Serif" font-size="10.00" fill="#000000">omc_List_unionList</text>
</a>
</g>
</g>
<!-- Node302&#45;&gt;Node330 -->
<g id="edge37" class="edge">
<title>Node302&#45;&gt;Node330</title>
<path fill="none" stroke="#191970" d="M645.0462,-362.4942C660.5292,-360.5588 676.8822,-358.5147 692.048,-356.619"/>
<polygon fill="#191970" stroke="#191970" points="692.8438,-360.0469 702.3324,-355.3335 691.9755,-353.1009 692.8438,-360.0469"/>
</g>
<!-- Node332 -->
<g id="node39" class="node">
<title>Node332</title>
<g id="a_node39"><a xlink:href="../../dd/db3/_backend_variable_8c.html#acd26b3dbad834f27db67245f1cde198e" target="_top" xlink:title="omc_BackendVariable\l_listVar1">
<polygon fill="#ffffff" stroke="#000000" points="696,-378 696,-408 810,-408 810,-378 696,-378"/>
<text text-anchor="start" x="704" y="-396" font-family="Helvetica,sans-Serif" font-size="10.00" fill="#000000">omc_BackendVariable</text>
<text text-anchor="middle" x="753" y="-385" font-family="Helvetica,sans-Serif" font-size="10.00" fill="#000000">_listVar1</text>
</a>
</g>
</g>
<!-- Node302&#45;&gt;Node332 -->
<g id="edge39" class="edge">
<title>Node302&#45;&gt;Node332</title>
<path fill="none" stroke="#191970" d="M645.0462,-379.5058C658.4586,-381.1823 672.5238,-382.9405 685.9045,-384.6131"/>
<polygon fill="#191970" stroke="#191970" points="685.6244,-388.1052 695.9813,-385.8727 686.4927,-381.1593 685.6244,-388.1052"/>
</g>
<!-- Node335 -->
<g id="node42" class="node">
<title>Node335</title>
<g id="a_node42"><a xlink:href="../../da/d72/_compiler_2boot_2build_2list_8c.html#a14b18951cfd16fa0671db8204b295149" target="_top" xlink:title="omc_List_intRange2">
<polygon fill="#ffffff" stroke="#000000" points="700,-301.5 700,-320.5 806,-320.5 806,-301.5 700,-301.5"/>
<text text-anchor="middle" x="753" y="-308.5" font-family="Helvetica,sans-Serif" font-size="10.00" fill="#000000">omc_List_intRange2</text>
</a>
</g>
</g>
<!-- Node302&#45;&gt;Node335 -->
<g id="edge45" class="edge">
<title>Node302&#45;&gt;Node335</title>
<path fill="none" stroke="#191970" d="M619.244,-355.9603C627.8083,-352.7736 636.7242,-349.3561 645,-346 661.2256,-339.42 664.4823,-335.8079 681,-330 687.8755,-327.5825 695.2144,-325.3083 702.4792,-323.2316"/>
<polygon fill="#191970" stroke="#191970" points="703.5792,-326.559 712.2894,-320.5271 701.7188,-319.8107 703.5792,-326.559"/>
</g>
<!-- Node304 -->
<g id="node11" class="node">
<title>Node304</title>
<g id="a_node11"><a xlink:href="../../d0/d79/_expandable_array_8c.html#ac0872cf94bb0f7d2fd6d0de34e2c000a" target="_top" xlink:title="omc_ExpandableArray\l_toList">
<polygon fill="#ffffff" stroke="#000000" points="878,-641 878,-671 993,-671 993,-641 878,-641"/>
<text text-anchor="start" x="886" y="-659" font-family="Helvetica,sans-Serif" font-size="10.00" fill="#000000">omc_ExpandableArray</text>
<text text-anchor="middle" x="935.5" y="-648" font-family="Helvetica,sans-Serif" font-size="10.00" fill="#000000">_toList</text>
</a>
</g>
</g>
<!-- Node303&#45;&gt;Node304 -->
<g id="edge10" class="edge">
<title>Node303&#45;&gt;Node304</title>
<path fill="none" stroke="#191970" d="M811.7487,-656C829.5963,-656 849.352,-656 867.7417,-656"/>
<polygon fill="#191970" stroke="#191970" points="867.797,-659.5001 877.797,-656 867.7969,-652.5001 867.797,-659.5001"/>
</g>
<!-- Node306 -->
<g id="node13" class="node">
<title>Node306</title>
<g id="a_node13"><a xlink:href="../../dd/db3/_backend_variable_8c.html#a02471a40fa5320d5f337733e05e97cef" target="_top" xlink:title="omc_BackendVariable\l_vararrayList">
<polygon fill="#ffffff" stroke="#000000" points="878.5,-553 878.5,-583 992.5,-583 992.5,-553 878.5,-553"/>
<text text-anchor="start" x="886.5" y="-571" font-family="Helvetica,sans-Serif" font-size="10.00" fill="#000000">omc_BackendVariable</text>
<text text-anchor="middle" x="935.5" y="-560" font-family="Helvetica,sans-Serif" font-size="10.00" fill="#000000">_vararrayList</text>
</a>
</g>
</g>
<!-- Node305&#45;&gt;Node306 -->
<g id="edge12" class="edge">
<title>Node305&#45;&gt;Node306</title>
<path fill="none" stroke="#191970" d="M810.2434,-568C828.674,-568 849.2645,-568 868.3418,-568"/>
<polygon fill="#191970" stroke="#191970" points="868.4597,-571.5001 878.4597,-568 868.4597,-564.5001 868.4597,-571.5001"/>
</g>
<!-- Node310 -->
<g id="node17" class="node">
<title>Node310</title>
<g id="a_node17"><a xlink:href="../../d1/d05/_hash_table2_8c.html#a42a7e1914511622b42bf8f450ca37936" target="_top" xlink:title="omc_HashTable2_emptyHash\lTable">
<polygon fill="#ffffff" stroke="#000000" points="861,-203 861,-233 1010,-233 1010,-203 861,-203"/>
<text text-anchor="start" x="869" y="-221" font-family="Helvetica,sans-Serif" font-size="10.00" fill="#000000">omc_HashTable2_emptyHash</text>
<text text-anchor="middle" x="935.5" y="-210" font-family="Helvetica,sans-Serif" font-size="10.00" fill="#000000">Table</text>
</a>
</g>
</g>
<!-- Node309&#45;&gt;Node310 -->
<g id="edge16" class="edge">
<title>Node309&#45;&gt;Node310</title>
<path fill="none" stroke="#191970" d="M822.2556,-201.246C831.6105,-202.63 841.2933,-204.0626 850.8781,-205.4806"/>
<polygon fill="#191970" stroke="#191970" points="850.4086,-208.9491 860.8131,-206.9504 851.4331,-202.0245 850.4086,-208.9491"/>
</g>
<!-- Node312 -->
<g id="node19" class="node">
<title>Node312</title>
<g id="a_node19"><a xlink:href="../../d8/d4f/_hash_table3_8c.html#a29a425bc40afc1461fdc6eb9e3bb4522" target="_top" xlink:title="omc_HashTable3_emptyHash\lTable">
<polygon fill="#ffffff" stroke="#000000" points="861,-154 861,-184 1010,-184 1010,-154 861,-154"/>
<text text-anchor="start" x="869" y="-172" font-family="Helvetica,sans-Serif" font-size="10.00" fill="#000000">omc_HashTable3_emptyHash</text>
<text text-anchor="middle" x="935.5" y="-161" font-family="Helvetica,sans-Serif" font-size="10.00" fill="#000000">Table</text>
</a>
</g>
</g>
<!-- Node309&#45;&gt;Node312 -->
<g id="edge18" class="edge">
<title>Node309&#45;&gt;Node312</title>
<path fill="none" stroke="#191970" d="M822.2556,-182.6514C831.6105,-181.5237 841.2933,-180.3564 850.8781,-179.201"/>
<polygon fill="#191970" stroke="#191970" points="851.3039,-182.6751 860.8131,-178.0033 850.4661,-175.7254 851.3039,-182.6751"/>
</g>
<!-- Node311 -->
<g id="node18" class="node">
<title>Node311</title>
<g id="a_node18"><a xlink:href="../../d1/d05/_hash_table2_8c.html#acbd9bdb0d74d572d5a8c1b74045817a4" target="_top" xlink:title="omc_HashTable2_emptyHash\lTableSized">
<polygon fill="#ffffff" stroke="#000000" points="1046,-203 1046,-233 1195,-233 1195,-203 1046,-203"/>
<text text-anchor="start" x="1054" y="-221" font-family="Helvetica,sans-Serif" font-size="10.00" fill="#000000">omc_HashTable2_emptyHash</text>
<text text-anchor="middle" x="1120.5" y="-210" font-family="Helvetica,sans-Serif" font-size="10.00" fill="#000000">TableSized</text>
</a>
</g>
</g>
<!-- Node310&#45;&gt;Node311 -->
<g id="edge17" class="edge">
<title>Node310&#45;&gt;Node311</title>
<path fill="none" stroke="#191970" d="M1010.2133,-218C1018.5547,-218 1027.0967,-218 1035.5539,-218"/>
<polygon fill="#191970" stroke="#191970" points="1035.8086,-221.5001 1045.8085,-218 1035.8085,-214.5001 1035.8086,-221.5001"/>
</g>
<!-- Node313 -->
<g id="node20" class="node">
<title>Node313</title>
<g id="a_node20"><a xlink:href="../../d8/d4f/_hash_table3_8c.html#ab307e92b3ed417a4da95481a3bedd91b" target="_top" xlink:title="omc_HashTable3_emptyHash\lTableSized">
<polygon fill="#ffffff" stroke="#000000" points="1046,-154 1046,-184 1195,-184 1195,-154 1046,-154"/>
<text text-anchor="start" x="1054" y="-172" font-family="Helvetica,sans-Serif" font-size="10.00" fill="#000000">omc_HashTable3_emptyHash</text>
<text text-anchor="middle" x="1120.5" y="-161" font-family="Helvetica,sans-Serif" font-size="10.00" fill="#000000">TableSized</text>
</a>
</g>
</g>
<!-- Node312&#45;&gt;Node313 -->
<g id="edge19" class="edge">
<title>Node312&#45;&gt;Node313</title>
<path fill="none" stroke="#191970" d="M1010.2133,-169C1018.5547,-169 1027.0967,-169 1035.5539,-169"/>
<polygon fill="#191970" stroke="#191970" points="1035.8086,-172.5001 1045.8085,-169 1035.8085,-165.5001 1035.8086,-172.5001"/>
</g>
<!-- Node316 -->
<g id="node23" class="node">
<title>Node316</title>
<g id="a_node23"><a xlink:href="../../d2/ddf/_backend_equation_8c.html#a04a8b99d4d53d2b7ee6d5a3250a8a582" target="_top" xlink:title="omc_BackendEquation_get">
<polygon fill="#ffffff" stroke="#000000" points="867.5,-93.5 867.5,-112.5 1003.5,-112.5 1003.5,-93.5 867.5,-93.5"/>
<text text-anchor="middle" x="935.5" y="-100.5" font-family="Helvetica,sans-Serif" font-size="10.00" fill="#000000">omc_BackendEquation_get</text>
</a>
</g>
</g>
<!-- Node315&#45;&gt;Node316 -->
<g id="edge22" class="edge">
<title>Node315&#45;&gt;Node316</title>
<path fill="none" stroke="#191970" d="M811.7487,-103C826.1414,-103 841.7749,-103 856.9324,-103"/>
<polygon fill="#191970" stroke="#191970" points="857.3289,-106.5001 867.3288,-103 857.3288,-99.5001 857.3289,-106.5001"/>
</g>
<!-- Node317 -->
<g id="node24" class="node">
<title>Node317</title>
<g id="a_node24"><a xlink:href="../../d0/d79/_expandable_array_8c.html#ad94983f3b21b1abd767b1b8d2185dca4" target="_top" xlink:title="omc_ExpandableArray_get">
<polygon fill="#ffffff" stroke="#000000" points="1053.5,-93.5 1053.5,-112.5 1187.5,-112.5 1187.5,-93.5 1053.5,-93.5"/>
<text text-anchor="middle" x="1120.5" y="-100.5" font-family="Helvetica,sans-Serif" font-size="10.00" fill="#000000">omc_ExpandableArray_get</text>
</a>
</g>
</g>
<!-- Node316&#45;&gt;Node317 -->
<g id="edge23" class="edge">
<title>Node316&#45;&gt;Node317</title>
<path fill="none" stroke="#191970" d="M1003.599,-103C1016.5707,-103 1030.2319,-103 1043.459,-103"/>
<polygon fill="#191970" stroke="#191970" points="1043.4707,-106.5001 1053.4707,-103 1043.4706,-99.5001 1043.4707,-106.5001"/>
</g>
<!-- Node318 -->
<g id="node25" class="node">
<title>Node318</title>
<g id="a_node25"><a xlink:href="../../d0/d79/_expandable_array_8c.html#abed51ef3d85cdd2ee6a6fbbd9dedf1b3" target="_top" xlink:title="omc_ExpandableArray\l_occupied">
<polygon fill="#ffffff" stroke="#000000" points="1231,-88 1231,-118 1346,-118 1346,-88 1231,-88"/>
<text text-anchor="start" x="1239" y="-106" font-family="Helvetica,sans-Serif" font-size="10.00" fill="#000000">omc_ExpandableArray</text>
<text text-anchor="middle" x="1288.5" y="-95" font-family="Helvetica,sans-Serif" font-size="10.00" fill="#000000">_occupied</text>
</a>
</g>
</g>
<!-- Node317&#45;&gt;Node318 -->
<g id="edge24" class="edge">
<title>Node317&#45;&gt;Node318</title>
<path fill="none" stroke="#191970" d="M1187.864,-103C1198.6558,-103 1209.8293,-103 1220.6328,-103"/>
<polygon fill="#191970" stroke="#191970" points="1220.8529,-106.5001 1230.8529,-103 1220.8529,-99.5001 1220.8529,-106.5001"/>
</g>
<!-- Node320 -->
<g id="node27" class="node">
<title>Node320</title>
<g id="a_node27"><a xlink:href="../../d2/ddf/_backend_equation_8c.html#af378c31266cde0f5dae39577a039fa02" target="_top" xlink:title="omc_BackendEquation\l_traverseExpsOfEquationList">
<polygon fill="#ffffff" stroke="#000000" points="863.5,-39 863.5,-69 1007.5,-69 1007.5,-39 863.5,-39"/>
<text text-anchor="start" x="871.5" y="-57" font-family="Helvetica,sans-Serif" font-size="10.00" fill="#000000">omc_BackendEquation</text>
<text text-anchor="middle" x="935.5" y="-46" font-family="Helvetica,sans-Serif" font-size="10.00" fill="#000000">_traverseExpsOfEquationList</text>
</a>
</g>
</g>
<!-- Node319&#45;&gt;Node320 -->
<g id="edge26" class="edge">
<title>Node319&#45;&gt;Node320</title>
<path fill="none" stroke="#191970" d="M825.1288,-54C834.348,-54 843.8397,-54 853.2045,-54"/>
<polygon fill="#191970" stroke="#191970" points="853.2975,-57.5001 863.2975,-54 853.2974,-50.5001 853.2975,-57.5001"/>
</g>
<!-- Node321 -->
<g id="node28" class="node">
<title>Node321</title>
<g id="a_node28"><a xlink:href="../../d2/ddf/_backend_equation_8c.html#a1912408db53de88b4b5758f85af05397" target="_top" xlink:title="omc_BackendEquation\l_traverseExpsOfEquation">
<polygon fill="#ffffff" stroke="#000000" points="1056.5,-39 1056.5,-69 1184.5,-69 1184.5,-39 1056.5,-39"/>
<text text-anchor="start" x="1064.5" y="-57" font-family="Helvetica,sans-Serif" font-size="10.00" fill="#000000">omc_BackendEquation</text>
<text text-anchor="middle" x="1120.5" y="-46" font-family="Helvetica,sans-Serif" font-size="10.00" fill="#000000">_traverseExpsOfEquation</text>
</a>
</g>
</g>
<!-- Node320&#45;&gt;Node321 -->
<g id="edge27" class="edge">
<title>Node320&#45;&gt;Node321</title>
<path fill="none" stroke="#191970" d="M1007.5556,-54C1020.2842,-54 1033.5565,-54 1046.3418,-54"/>
<polygon fill="#191970" stroke="#191970" points="1046.4712,-57.5001 1056.4712,-54 1046.4711,-50.5001 1046.4712,-57.5001"/>
</g>
<!-- Node322 -->
<g id="node29" class="node">
<title>Node322</title>
<g id="a_node29"><a xlink:href="../../d1/dfc/expat__lib_8c.html#adf65e97c498597b0fa234e787465c538" target="_top" xlink:title="_start">
<polygon fill="#ffffff" stroke="#000000" points="1268,-44.5 1268,-63.5 1309,-63.5 1309,-44.5 1268,-44.5"/>
<text text-anchor="middle" x="1288.5" y="-51.5" font-family="Helvetica,sans-Serif" font-size="10.00" fill="#000000">_start</text>
</a>
</g>
</g>
<!-- Node321&#45;&gt;Node322 -->
<g id="edge28" class="edge">
<title>Node321&#45;&gt;Node322</title>
<path fill="none" stroke="#191970" d="M1184.9727,-54C1209.9154,-54 1237.2899,-54 1257.6222,-54"/>
<polygon fill="#191970" stroke="#191970" points="1257.8473,-57.5001 1267.8473,-54 1257.8473,-50.5001 1257.8473,-57.5001"/>
</g>
<!-- Node324&#45;&gt;Node297 -->
<g id="edge32" class="edge">
<title>Node324&#45;&gt;Node297</title>
<path fill="none" stroke="#191970" d="M792.3584,-503.8826C803.0962,-499.4135 814.6258,-494.2916 825,-489 841.7037,-480.48 843.7227,-474.287 861,-467 872.0344,-462.346 884.4849,-458.6205 896.0037,-455.7442"/>
<polygon fill="#191970" stroke="#191970" points="896.8946,-459.1303 905.8274,-453.4333 895.2916,-452.3163 896.8946,-459.1303"/>
</g>
<!-- Node325 -->
<g id="node32" class="node">
<title>Node325</title>
<g id="a_node32"><a xlink:href="../../d0/d79/_expandable_array_8c.html#a618eeaec12f9bd192deddeccd49802b4" target="_top" xlink:title="omc_ExpandableArray_new">
<polygon fill="#ffffff" stroke="#000000" points="866.5,-514.5 866.5,-533.5 1004.5,-533.5 1004.5,-514.5 866.5,-514.5"/>
<text text-anchor="middle" x="935.5" y="-521.5" font-family="Helvetica,sans-Serif" font-size="10.00" fill="#000000">omc_ExpandableArray_new</text>
</a>
</g>
</g>
<!-- Node324&#45;&gt;Node325 -->
<g id="edge31" class="edge">
<title>Node324&#45;&gt;Node325</title>
<path fill="none" stroke="#191970" d="M811.7487,-520.6096C825.8874,-520.9969 841.2235,-521.4171 856.1295,-521.8255"/>
<polygon fill="#191970" stroke="#191970" points="856.2681,-525.3305 866.3603,-522.1058 856.4599,-518.3331 856.2681,-525.3305"/>
</g>
<!-- Node326 -->
<g id="node33" class="node">
<title>Node326</title>
<g id="a_node33"><a xlink:href="../../d0/d79/_expandable_array_8c.html#a37ebf8fb89bacba3366dbd17b30ca1ab" target="_top" xlink:title="omc_ExpandableArray_add">
<polygon fill="#ffffff" stroke="#000000" points="867.5,-476.5 867.5,-495.5 1003.5,-495.5 1003.5,-476.5 867.5,-476.5"/>
<text text-anchor="middle" x="935.5" y="-483.5" font-family="Helvetica,sans-Serif" font-size="10.00" fill="#000000">omc_ExpandableArray_add</text>
</a>
</g>
</g>
<!-- Node324&#45;&gt;Node326 -->
<g id="edge33" class="edge">
<title>Node324&#45;&gt;Node326</title>
<path fill="none" stroke="#191970" d="M811.7487,-508.3769C831.2704,-504.847 853.075,-500.9043 872.8779,-497.3234"/>
<polygon fill="#191970" stroke="#191970" points="873.5054,-500.7668 882.723,-495.5432 872.2598,-493.8785 873.5054,-500.7668"/>
</g>
<!-- Node327 -->
<g id="node34" class="node">
<title>Node327</title>
<g id="a_node34"><a xlink:href="../../d0/d79/_expandable_array_8c.html#a29ede1644133c0f09bca7fdc1a87da55" target="_top" xlink:title="omc_ExpandableArray_set">
<polygon fill="#ffffff" stroke="#000000" points="1053.5,-476.5 1053.5,-495.5 1187.5,-495.5 1187.5,-476.5 1053.5,-476.5"/>
<text text-anchor="middle" x="1120.5" y="-483.5" font-family="Helvetica,sans-Serif" font-size="10.00" fill="#000000">omc_ExpandableArray_set</text>
</a>
</g>
</g>
<!-- Node326&#45;&gt;Node327 -->
<g id="edge34" class="edge">
<title>Node326&#45;&gt;Node327</title>
<path fill="none" stroke="#191970" d="M1003.599,-486C1016.5707,-486 1030.2319,-486 1043.459,-486"/>
<polygon fill="#191970" stroke="#191970" points="1043.4707,-489.5001 1053.4707,-486 1043.4706,-482.5001 1043.4707,-489.5001"/>
</g>
<!-- Node328 -->
<g id="node35" class="node">
<title>Node328</title>
<g id="a_node35"><a xlink:href="../../d0/d79/_expandable_array_8c.html#ab7fab390a4e8bf3f3325376f6d8459f0" target="_top" xlink:title="omc_ExpandableArray\l_expandToSize">
<polygon fill="#ffffff" stroke="#000000" points="1231,-471 1231,-501 1346,-501 1346,-471 1231,-471"/>
<text text-anchor="start" x="1239" y="-489" font-family="Helvetica,sans-Serif" font-size="10.00" fill="#000000">omc_ExpandableArray</text>
<text text-anchor="middle" x="1288.5" y="-478" font-family="Helvetica,sans-Serif" font-size="10.00" fill="#000000">_expandToSize</text>
</a>
</g>
</g>
<!-- Node327&#45;&gt;Node328 -->
<g id="edge35" class="edge">
<title>Node327&#45;&gt;Node328</title>
<path fill="none" stroke="#191970" d="M1187.864,-486C1198.6558,-486 1209.8293,-486 1220.6328,-486"/>
<polygon fill="#191970" stroke="#191970" points="1220.8529,-489.5001 1230.8529,-486 1220.8529,-482.5001 1220.8529,-489.5001"/>
</g>
<!-- Node329 -->
<g id="node36" class="node">
<title>Node329</title>
<g id="a_node36"><a xlink:href="../../da/d17/_array_8c.html#a40ebd9c91c25ca91511bed61818384d4" target="_top" xlink:title="omc_Array_expandToSize">
<polygon fill="#ffffff" stroke="#000000" points="1382,-476.5 1382,-495.5 1513,-495.5 1513,-476.5 1382,-476.5"/>
<text text-anchor="middle" x="1447.5" y="-483.5" font-family="Helvetica,sans-Serif" font-size="10.00" fill="#000000">omc_Array_expandToSize</text>
</a>
</g>
</g>
<!-- Node328&#45;&gt;Node329 -->
<g id="edge36" class="edge">
<title>Node328&#45;&gt;Node329</title>
<path fill="none" stroke="#191970" d="M1346.3524,-486C1354.649,-486 1363.2861,-486 1371.8631,-486"/>
<polygon fill="#191970" stroke="#191970" points="1371.8802,-489.5001 1381.8801,-486 1371.8801,-482.5001 1371.8802,-489.5001"/>
</g>
<!-- Node331 -->
<g id="node38" class="node">
<title>Node331</title>
<g id="a_node38"><a xlink:href="../../da/d72/_compiler_2boot_2build_2list_8c.html#a2c574f0de0710caa8e977bd221cf7cdd" target="_top" xlink:title="omc_List_reduce">
<polygon fill="#ffffff" stroke="#000000" points="890,-312.5 890,-331.5 981,-331.5 981,-312.5 890,-312.5"/>
<text text-anchor="middle" x="935.5" y="-319.5" font-family="Helvetica,sans-Serif" font-size="10.00" fill="#000000">omc_List_reduce</text>
</a>
</g>
</g>
<!-- Node330&#45;&gt;Node331 -->
<g id="edge38" class="edge">
<title>Node330&#45;&gt;Node331</title>
<path fill="none" stroke="#191970" d="M803.8364,-341.479C827.4615,-337.9838 855.6159,-333.8185 879.8144,-330.2384"/>
<polygon fill="#191970" stroke="#191970" points="880.5382,-333.6695 889.9183,-328.7436 879.5137,-326.7449 880.5382,-333.6695"/>
</g>
<!-- Node332&#45;&gt;Node297 -->
<g id="edge40" class="edge">
<title>Node332&#45;&gt;Node297</title>
<path fill="none" stroke="#191970" d="M802.8689,-408.029C832.289,-416.8953 868.99,-427.9559 896.3223,-436.193"/>
<polygon fill="#191970" stroke="#191970" points="895.3527,-439.5562 905.9373,-439.0907 897.3726,-432.854 895.3527,-439.5562"/>
</g>
<!-- Node332&#45;&gt;Node301 -->
<g id="edge41" class="edge">
<title>Node332&#45;&gt;Node301</title>
<path fill="none" stroke="#191970" d="M810.0764,-394.7803C875.9357,-397.8873 979.142,-406.321 1010,-429 1040.1167,-451.1342 1023.2143,-475.3732 1046,-505 1060.4635,-523.806 1081.4013,-540.8922 1097.3994,-552.511"/>
<polygon fill="#191970" stroke="#191970" points="1095.5196,-555.4683 1105.7066,-558.3796 1099.5586,-549.751 1095.5196,-555.4683"/>
</g>
<!-- Node333 -->
<g id="node40" class="node">
<title>Node333</title>
<g id="a_node40"><a xlink:href="../../dd/db3/_backend_variable_8c.html#a34244689845afbbb5b480bcf6d00abaa" target="_top" xlink:title="omc_BackendVariable\l_emptyVarsSized">
<polygon fill="#ffffff" stroke="#000000" points="878.5,-351 878.5,-381 992.5,-381 992.5,-351 878.5,-351"/>
<text text-anchor="start" x="886.5" y="-369" font-family="Helvetica,sans-Serif" font-size="10.00" fill="#000000">omc_BackendVariable</text>
<text text-anchor="middle" x="935.5" y="-358" font-family="Helvetica,sans-Serif" font-size="10.00" fill="#000000">_emptyVarsSized</text>
</a>
</g>
</g>
<!-- Node332&#45;&gt;Node333 -->
<g id="edge42" class="edge">
<title>Node332&#45;&gt;Node333</title>
<path fill="none" stroke="#191970" d="M810.2434,-384.5311C828.674,-381.8044 849.2645,-378.7581 868.3418,-375.9357"/>
<polygon fill="#191970" stroke="#191970" points="869.0796,-379.3648 878.4597,-374.4388 868.0551,-372.4401 869.0796,-379.3648"/>
</g>
<!-- Node334 -->
<g id="node41" class="node">
<title>Node334</title>
<g id="a_node41"><a xlink:href="../../dd/db3/_backend_variable_8c.html#afc09793450257c719c63d47a4703dbcc" target="_top" xlink:title="omc_BackendVariable\l_emptyVars">
<polygon fill="#ffffff" stroke="#000000" points="1063.5,-351 1063.5,-381 1177.5,-381 1177.5,-351 1063.5,-351"/>
<text text-anchor="start" x="1071.5" y="-369" font-family="Helvetica,sans-Serif" font-size="10.00" fill="#000000">omc_BackendVariable</text>
<text text-anchor="middle" x="1120.5" y="-358" font-family="Helvetica,sans-Serif" font-size="10.00" fill="#000000">_emptyVars</text>
</a>
</g>
</g>
<!-- Node333&#45;&gt;Node334 -->
<g id="edge43" class="edge">
<title>Node333&#45;&gt;Node334</title>
<path fill="none" stroke="#191970" d="M992.5156,-366C1011.6821,-366 1033.2442,-366 1053.1297,-366"/>
<polygon fill="#191970" stroke="#191970" points="1053.3542,-369.5001 1063.3542,-366 1053.3541,-362.5001 1053.3542,-369.5001"/>
</g>
</g>
</svg>
