<?xml version="1.0" encoding="UTF-8" standalone="no"?>
<!DOCTYPE svg PUBLIC "-//W3C//DTD SVG 1.1//EN"
 "http://www.w3.org/Graphics/SVG/1.1/DTD/svg11.dtd">
<!-- Generated by graphviz version 2.40.1 (20161225.0304)
 -->
<!-- Title: omc_Inline_getFunctionBody Pages: 1 -->
<svg width="927pt" height="78pt"
 viewBox="0.00 0.00 927.00 77.50" xmlns="http://www.w3.org/2000/svg" xmlns:xlink="http://www.w3.org/1999/xlink">
<g id="graph0" class="graph" transform="scale(1 1) rotate(0) translate(4 73.5)">
<title>omc_Inline_getFunctionBody</title>
<polygon fill="#ffffff" stroke="transparent" points="-4,4 -4,-73.5 923,-73.5 923,4 -4,4"/>
<!-- Node160 -->
<g id="node1" class="node">
<title>Node160</title>
<polygon fill="#bfbfbf" stroke="#000000" points="0,-22.5 0,-41.5 143,-41.5 143,-22.5 0,-22.5"/>
<text text-anchor="middle" x="71.5" y="-29.5" font-family="Helvetica,sans-Serif" font-size="10.00" fill="#000000">omc_Inline_getFunctionBody</text>
</g>
<!-- Node161 -->
<g id="node2" class="node">
<title>Node161</title>
<g id="a_node2"><a xlink:href="../../df/d07/_d_a_e_8c.html#a190c53fd8309c5edefade4132eb4c18f" target="_top" xlink:title="omc_DAE_AvlTreePathFunction_get">
<polygon fill="#ffffff" stroke="#000000" points="179,-42.5 179,-61.5 356,-61.5 356,-42.5 179,-42.5"/>
<text text-anchor="middle" x="267.5" y="-49.5" font-family="Helvetica,sans-Serif" font-size="10.00" fill="#000000">omc_DAE_AvlTreePathFunction_get</text>
</a>
</g>
</g>
<!-- Node160&#45;&gt;Node161 -->
<g id="edge1" class="edge">
<title>Node160&#45;&gt;Node161</title>
<path fill="none" stroke="#191970" d="M143.0925,-39.3054C151.424,-40.1555 160.0307,-41.0337 168.6462,-41.9129"/>
<polygon fill="#191970" stroke="#191970" points="168.4445,-45.4104 178.7481,-42.9437 169.1551,-38.4465 168.4445,-45.4104"/>
</g>
<!-- Node165 -->
<g id="node6" class="node">
<title>Node165</title>
<g id="a_node6"><a xlink:href="../../d3/db3/_flags_8c.html#a34e6591659b1578969141a635ff24042" target="_top" xlink:title="omc_Flags_isSet">
<polygon fill="#ffffff" stroke="#000000" points="221.5,-3.5 221.5,-22.5 313.5,-22.5 313.5,-3.5 221.5,-3.5"/>
<text text-anchor="middle" x="267.5" y="-10.5" font-family="Helvetica,sans-Serif" font-size="10.00" fill="#000000">omc_Flags_isSet</text>
</a>
</g>
</g>
<!-- Node160&#45;&gt;Node165 -->
<g id="edge5" class="edge">
<title>Node160&#45;&gt;Node165</title>
<path fill="none" stroke="#191970" d="M143.0925,-25.0599C165.5531,-22.8826 190.0136,-20.5114 211.255,-18.4523"/>
<polygon fill="#191970" stroke="#191970" points="211.7855,-21.9174 221.4011,-17.4688 211.11,-14.9501 211.7855,-21.9174"/>
</g>
<!-- Node162 -->
<g id="node3" class="node">
<title>Node162</title>
<g id="a_node3"><a xlink:href="../../df/d07/_d_a_e_8c.html#a3a29d94182019709cb71d80c012edcda" target="_top" xlink:title="omc_DAE_AvlTreePathFunction\l_keyCompare">
<polygon fill="#ffffff" stroke="#000000" points="392,-39 392,-69 550,-69 550,-39 392,-39"/>
<text text-anchor="start" x="400" y="-57" font-family="Helvetica,sans-Serif" font-size="10.00" fill="#000000">omc_DAE_AvlTreePathFunction</text>
<text text-anchor="middle" x="471" y="-46" font-family="Helvetica,sans-Serif" font-size="10.00" fill="#000000">_keyCompare</text>
</a>
</g>
</g>
<!-- Node161&#45;&gt;Node162 -->
<g id="edge2" class="edge">
<title>Node161&#45;&gt;Node162</title>
<path fill="none" stroke="#191970" d="M356.1661,-52.8714C364.6184,-52.9545 373.1931,-53.0388 381.6518,-53.1219"/>
<polygon fill="#191970" stroke="#191970" points="381.8621,-56.624 391.896,-53.2226 381.9309,-49.6244 381.8621,-56.624"/>
</g>
<!-- Node163 -->
<g id="node4" class="node">
<title>Node163</title>
<g id="a_node4"><a xlink:href="../../d0/d78/_absyn_8c.html#aaf4b6f18b688ef52a1493e79052276f1" target="_top" xlink:title="omc_Absyn_pathCompareNoQual">
<polygon fill="#ffffff" stroke="#000000" points="586,-44.5 586,-63.5 751,-63.5 751,-44.5 586,-44.5"/>
<text text-anchor="middle" x="668.5" y="-51.5" font-family="Helvetica,sans-Serif" font-size="10.00" fill="#000000">omc_Absyn_pathCompareNoQual</text>
</a>
</g>
</g>
<!-- Node162&#45;&gt;Node163 -->
<g id="edge3" class="edge">
<title>Node162&#45;&gt;Node163</title>
<path fill="none" stroke="#191970" d="M550.1928,-54C558.509,-54 567.018,-54 575.4708,-54"/>
<polygon fill="#191970" stroke="#191970" points="575.737,-57.5001 585.7369,-54 575.7369,-50.5001 575.737,-57.5001"/>
</g>
<!-- Node164 -->
<g id="node5" class="node">
<title>Node164</title>
<g id="a_node5"><a xlink:href="../../d0/d78/_absyn_8c.html#a32967c17d7e54d1e80801db59aa80bb5" target="_top" xlink:title="omc_Absyn_pathCompare">
<polygon fill="#ffffff" stroke="#000000" points="787,-44.5 787,-63.5 919,-63.5 919,-44.5 787,-44.5"/>
<text text-anchor="middle" x="853" y="-51.5" font-family="Helvetica,sans-Serif" font-size="10.00" fill="#000000">omc_Absyn_pathCompare</text>
</a>
</g>
</g>
<!-- Node163&#45;&gt;Node164 -->
<g id="edge4" class="edge">
<title>Node163&#45;&gt;Node164</title>
<path fill="none" stroke="#191970" d="M751.0365,-54C759.5629,-54 768.2013,-54 776.6558,-54"/>
<polygon fill="#191970" stroke="#191970" points="776.8575,-57.5001 786.8575,-54 776.8574,-50.5001 776.8575,-57.5001"/>
</g>
<!-- Node166 -->
<g id="node7" class="node">
<title>Node166</title>
<g id="a_node7"><a xlink:href="../../d3/db3/_flags_8c.html#a760d66f53b65ac257876ca0f6308f09f" target="_top" xlink:title="omc_Flags_loadFlags">
<polygon fill="#ffffff" stroke="#000000" points="415,-.5 415,-19.5 527,-19.5 527,-.5 415,-.5"/>
<text text-anchor="middle" x="471" y="-7.5" font-family="Helvetica,sans-Serif" font-size="10.00" fill="#000000">omc_Flags_loadFlags</text>
</a>
</g>
</g>
<!-- Node165&#45;&gt;Node166 -->
<g id="edge6" class="edge">
<title>Node165&#45;&gt;Node166</title>
<path fill="none" stroke="#191970" d="M313.6773,-12.3193C340.5316,-11.9234 374.8357,-11.4177 404.5535,-10.9796"/>
<polygon fill="#191970" stroke="#191970" points="404.9067,-14.4748 414.854,-10.8277 404.8035,-7.4756 404.9067,-14.4748"/>
</g>
<!-- Node167 -->
<g id="node8" class="node">
<title>Node167</title>
<g id="a_node8"><a xlink:href="../../da/d72/_compiler_2boot_2build_2list_8c.html#a3ec1ee3a5ff53be9af368e290be09182" target="_top" xlink:title="omc_List_fold">
<polygon fill="#ffffff" stroke="#000000" points="630,-.5 630,-19.5 707,-19.5 707,-.5 630,-.5"/>
<text text-anchor="middle" x="668.5" y="-7.5" font-family="Helvetica,sans-Serif" font-size="10.00" fill="#000000">omc_List_fold</text>
</a>
</g>
</g>
<!-- Node166&#45;&gt;Node167 -->
<g id="edge7" class="edge">
<title>Node166&#45;&gt;Node167</title>
<path fill="none" stroke="#191970" d="M527.0673,-10C556.1908,-10 591.4477,-10 619.4741,-10"/>
<polygon fill="#191970" stroke="#191970" points="619.8337,-13.5001 629.8336,-10 619.8336,-6.5001 619.8337,-13.5001"/>
</g>
</g>
</svg>
