<?xml version="1.0" encoding="UTF-8" standalone="no"?>
<!DOCTYPE svg PUBLIC "-//W3C//DTD SVG 1.1//EN"
 "http://www.w3.org/Graphics/SVG/1.1/DTD/svg11.dtd">
<!-- Generated by graphviz version 2.40.1 (20161225.0304)
 -->
<!-- Title: omc_Inline_inlineExpOpt Pages: 1 -->
<svg width="626pt" height="96pt"
 viewBox="0.00 0.00 626.00 95.50" xmlns="http://www.w3.org/2000/svg" xmlns:xlink="http://www.w3.org/1999/xlink">
<g id="graph0" class="graph" transform="scale(1 1) rotate(0) translate(4 91.5)">
<title>omc_Inline_inlineExpOpt</title>
<polygon fill="#ffffff" stroke="transparent" points="-4,4 -4,-91.5 622,-91.5 622,4 -4,4"/>
<!-- Node304 -->
<g id="node1" class="node">
<title>Node304</title>
<polygon fill="#bfbfbf" stroke="#000000" points="0,-19.5 0,-38.5 125,-38.5 125,-19.5 0,-19.5"/>
<text text-anchor="middle" x="62.5" y="-26.5" font-family="Helvetica,sans-Serif" font-size="10.00" fill="#000000">omc_Inline_inlineExpOpt</text>
</g>
<!-- Node305 -->
<g id="node2" class="node">
<title>Node305</title>
<g id="a_node2"><a xlink:href="../../d0/d9b/_backend_inline_8c.html#ae31597b7c5ad83e64c81ac320b2b132f" target="_top" xlink:title="omc_BackendInline_inlineVar">
<polygon fill="#ffffff" stroke="#000000" points="161,-38.5 161,-57.5 306,-57.5 306,-38.5 161,-38.5"/>
<text text-anchor="middle" x="233.5" y="-45.5" font-family="Helvetica,sans-Serif" font-size="10.00" fill="#000000">omc_BackendInline_inlineVar</text>
</a>
</g>
</g>
<!-- Node304&#45;&gt;Node305 -->
<g id="edge1" class="edge">
<title>Node304&#45;&gt;Node305</title>
<path fill="none" stroke="#191970" d="M135.4168,-37.1019C143.8773,-38.0419 152.5058,-39.0006 160.9612,-39.9401"/>
<polygon fill="#191970" stroke="#191970" points="135.5285,-33.5928 125.2031,-35.967 134.7554,-40.55 135.5285,-33.5928"/>
</g>
<!-- Node309 -->
<g id="node6" class="node">
<title>Node309</title>
<g id="a_node6"><a xlink:href="../../d0/d3c/_inline_8h.html#a140613cf1ec609a7aa40fefc60d61e80" target="_top" xlink:title="boxptr_Inline_inlineExpOpt">
<polygon fill="#ffffff" stroke="#000000" points="167,-.5 167,-19.5 300,-19.5 300,-.5 167,-.5"/>
<text text-anchor="middle" x="233.5" y="-7.5" font-family="Helvetica,sans-Serif" font-size="10.00" fill="#000000">boxptr_Inline_inlineExpOpt</text>
</a>
</g>
</g>
<!-- Node304&#45;&gt;Node309 -->
<g id="edge5" class="edge">
<title>Node304&#45;&gt;Node309</title>
<path fill="none" stroke="#191970" d="M135.1608,-20.9266C145.6533,-19.7607 156.4097,-18.5656 166.7786,-17.4135"/>
<polygon fill="#191970" stroke="#191970" points="134.7554,-17.45 125.2031,-22.033 135.5285,-24.4072 134.7554,-17.45"/>
</g>
<!-- Node306 -->
<g id="node3" class="node">
<title>Node306</title>
<g id="a_node3"><a xlink:href="../../d0/d9b/_backend_inline_8c.html#a306f441d5b6eaffd4556355b66d3509d" target="_top" xlink:title="boxptr_BackendInline\l_inlineVar">
<polygon fill="#ffffff" stroke="#000000" points="352,-57 352,-87 462,-87 462,-57 352,-57"/>
<text text-anchor="start" x="360" y="-75" font-family="Helvetica,sans-Serif" font-size="10.00" fill="#000000">boxptr_BackendInline</text>
<text text-anchor="middle" x="407" y="-64" font-family="Helvetica,sans-Serif" font-size="10.00" fill="#000000">_inlineVar</text>
</a>
</g>
</g>
<!-- Node305&#45;&gt;Node306 -->
<g id="edge2" class="edge">
<title>Node305&#45;&gt;Node306</title>
<path fill="none" stroke="#191970" d="M312.6203,-58.9446C325.8503,-60.7747 339.3188,-62.6378 351.7822,-64.3618"/>
<polygon fill="#191970" stroke="#191970" points="312.9556,-55.4577 302.5703,-57.5544 311.9964,-62.3917 312.9556,-55.4577"/>
</g>
<!-- Node307 -->
<g id="node4" class="node">
<title>Node307</title>
<g id="a_node4"><a xlink:href="../../d0/d9b/_backend_inline_8c.html#adcf702e1df9b63c885930e65e04cb711" target="_top" xlink:title="omc_BackendInline_inline\lVarOpt">
<polygon fill="#ffffff" stroke="#000000" points="342,-8 342,-38 472,-38 472,-8 342,-8"/>
<text text-anchor="start" x="350" y="-26" font-family="Helvetica,sans-Serif" font-size="10.00" fill="#000000">omc_BackendInline_inline</text>
<text text-anchor="middle" x="407" y="-15" font-family="Helvetica,sans-Serif" font-size="10.00" fill="#000000">VarOpt</text>
</a>
</g>
</g>
<!-- Node305&#45;&gt;Node307 -->
<g id="edge3" class="edge">
<title>Node305&#45;&gt;Node307</title>
<path fill="none" stroke="#191970" d="M309.7868,-37.0077C320.5165,-35.4616 331.4628,-33.8843 341.9564,-32.3723"/>
<polygon fill="#191970" stroke="#191970" points="308.9864,-33.5868 299.5879,-38.4773 309.9848,-40.5152 308.9864,-33.5868"/>
</g>
<!-- Node308 -->
<g id="node5" class="node">
<title>Node308</title>
<g id="a_node5"><a xlink:href="../../d0/d9b/_backend_inline_8c.html#a90755ae8196c04f489deb434a62228d1" target="_top" xlink:title="boxptr_BackendInline\l_inlineVarOpt">
<polygon fill="#ffffff" stroke="#000000" points="508,-8 508,-38 618,-38 618,-8 508,-8"/>
<text text-anchor="start" x="516" y="-26" font-family="Helvetica,sans-Serif" font-size="10.00" fill="#000000">boxptr_BackendInline</text>
<text text-anchor="middle" x="563" y="-15" font-family="Helvetica,sans-Serif" font-size="10.00" fill="#000000">_inlineVarOpt</text>
</a>
</g>
</g>
<!-- Node307&#45;&gt;Node308 -->
<g id="edge4" class="edge">
<title>Node307&#45;&gt;Node308</title>
<path fill="none" stroke="#191970" d="M482.3281,-23C490.9482,-23 499.6119,-23 507.8974,-23"/>
<polygon fill="#191970" stroke="#191970" points="482.2542,-19.5001 472.2542,-23 482.2541,-26.5001 482.2542,-19.5001"/>
</g>
</g>
</svg>
