<?xml version="1.0" encoding="UTF-8" standalone="no"?>
<!DOCTYPE svg PUBLIC "-//W3C//DTD SVG 1.1//EN"
 "http://www.w3.org/Graphics/SVG/1.1/DTD/svg11.dtd">
<!-- Generated by graphviz version 2.40.1 (20161225.0304)
 -->
<!-- Title: unixFileId Pages: 1 -->
<svg width="133pt" height="95pt"
 viewBox="0.00 0.00 133.00 95.00" xmlns="http://www.w3.org/2000/svg" xmlns:xlink="http://www.w3.org/1999/xlink">
<g id="graph0" class="graph" transform="scale(1 1) rotate(0) translate(4 91)">
<title>unixFileId</title>
<polygon fill="#ffffff" stroke="transparent" points="-4,4 -4,-91 129,-91 129,4 -4,4"/>
<!-- Node1 -->
<g id="node1" class="node">
<title>Node1</title>
<polygon fill="#bfbfbf" stroke="#000000" points="9,-.5 9,-19.5 68,-19.5 68,-.5 9,-.5"/>
<text text-anchor="middle" x="38.5" y="-7.5" font-family="Helvetica,sans-Serif" font-size="10.00" fill="#000000">unixFileId</text>
</g>
<!-- Node2 -->
<g id="node2" class="node">
<title>Node2</title>
<g id="a_node2"><a xlink:href="../../df/de3/structvxworks_file_id.html" target="_top" xlink:title="vxworksFileId">
<polygon fill="#ffffff" stroke="#000000" points="0,-67.5 0,-86.5 77,-86.5 77,-67.5 0,-67.5"/>
<text text-anchor="middle" x="38.5" y="-74.5" font-family="Helvetica,sans-Serif" font-size="10.00" fill="#000000">vxworksFileId</text>
</a>
</g>
</g>
<!-- Node2&#45;&gt;Node1 -->
<g id="edge1" class="edge">
<title>Node2&#45;&gt;Node1</title>
<path fill="none" stroke="#9a32cd" stroke-dasharray="5,2" d="M38.5,-57.1079C38.5,-44.714 38.5,-29.3263 38.5,-19.5817"/>
<polygon fill="#9a32cd" stroke="#9a32cd" points="35.0001,-57.4005 38.5,-67.4005 42.0001,-57.4006 35.0001,-57.4005"/>
<text text-anchor="middle" x="47" y="-41" font-family="Helvetica,sans-Serif" font-size="10.00" fill="#000000"> pId</text>
</g>
<!-- Node2&#45;&gt;Node2 -->
<g id="edge2" class="edge">
<title>Node2&#45;&gt;Node2</title>
<path fill="none" stroke="#9a32cd" stroke-dasharray="5,2" d="M87.2203,-81.872C91.979,-80.8896 95,-79.2656 95,-77 95,-73.375 87.2662,-71.3926 77.0552,-71.0527"/>
<polygon fill="#9a32cd" stroke="#9a32cd" points="86.6315,-78.4146 77.0552,-82.9473 87.3679,-85.3758 86.6315,-78.4146"/>
<text text-anchor="middle" x="110" y="-74.5" font-family="Helvetica,sans-Serif" font-size="10.00" fill="#000000"> pNext</text>
</g>
</g>
</svg>
