<?xml version="1.0" encoding="UTF-8" standalone="no"?>
<!DOCTYPE svg PUBLIC "-//W3C//DTD SVG 1.1//EN"
 "http://www.w3.org/Graphics/SVG/1.1/DTD/svg11.dtd">
<!-- Generated by graphviz version 2.40.1 (20161225.0304)
 -->
<!-- Title: GC_invoke_finalizers Pages: 1 -->
<svg width="455pt" height="135pt"
 viewBox="0.00 0.00 455.00 135.00" xmlns="http://www.w3.org/2000/svg" xmlns:xlink="http://www.w3.org/1999/xlink">
<g id="graph0" class="graph" transform="scale(1 1) rotate(0) translate(4 131)">
<title>GC_invoke_finalizers</title>
<polygon fill="#ffffff" stroke="transparent" points="-4,4 -4,-131 451,-131 451,4 -4,4"/>
<!-- Node634 -->
<g id="node1" class="node">
<title>Node634</title>
<polygon fill="#bfbfbf" stroke="#000000" points="0,-63.5 0,-82.5 110,-82.5 110,-63.5 0,-63.5"/>
<text text-anchor="middle" x="55" y="-70.5" font-family="Helvetica,sans-Serif" font-size="10.00" fill="#000000">GC_invoke_finalizers</text>
</g>
<!-- Node635 -->
<g id="node2" class="node">
<title>Node635</title>
<g id="a_node2"><a xlink:href="../../d3/d1e/finalize_8c.html#a652fee6be5e9011d3b1a86941584170c" target="_top" xlink:title="GC_finalize_all">
<polygon fill="#ffffff" stroke="#000000" points="158.5,-107.5 158.5,-126.5 241.5,-126.5 241.5,-107.5 158.5,-107.5"/>
<text text-anchor="middle" x="200" y="-114.5" font-family="Helvetica,sans-Serif" font-size="10.00" fill="#000000">GC_finalize_all</text>
</a>
</g>
</g>
<!-- Node634&#45;&gt;Node635 -->
<g id="edge1" class="edge">
<title>Node634&#45;&gt;Node635</title>
<path fill="none" stroke="#191970" d="M96.287,-85.5285C119.2702,-92.5027 147.4259,-101.0465 168.5986,-107.4713"/>
<polygon fill="#191970" stroke="#191970" points="97.0483,-82.102 86.4628,-82.5473 95.0156,-88.8003 97.0483,-82.102"/>
</g>
<!-- Node638 -->
<g id="node5" class="node">
<title>Node638</title>
<g id="a_node5"><a xlink:href="../../dd/d79/gc__priv_8h.html#a9a3b9b6bd4f97511d12a93222ab61049" target="_top" xlink:title="GC_notify_or_invoke\l_finalizers">
<polygon fill="#ffffff" stroke="#000000" points="146,-58 146,-88 254,-88 254,-58 146,-58"/>
<text text-anchor="start" x="154" y="-76" font-family="Helvetica,sans-Serif" font-size="10.00" fill="#000000">GC_notify_or_invoke</text>
<text text-anchor="middle" x="200" y="-65" font-family="Helvetica,sans-Serif" font-size="10.00" fill="#000000">_finalizers</text>
</a>
</g>
</g>
<!-- Node634&#45;&gt;Node638 -->
<g id="edge4" class="edge">
<title>Node634&#45;&gt;Node638</title>
<path fill="none" stroke="#191970" d="M120.4924,-73C128.9828,-73 137.6026,-73 145.8801,-73"/>
<polygon fill="#191970" stroke="#191970" points="120.232,-69.5001 110.2319,-73 120.2319,-76.5001 120.232,-69.5001"/>
</g>
<!-- Node639 -->
<g id="node6" class="node">
<title>Node639</title>
<g id="a_node6"><a xlink:href="../../d4/d12/3rd_party_2gc_2tests_2test_8c.html#a668cddfb86d2c85b386a9e873f0e7e3b" target="_top" xlink:title="check_heap_stats">
<polygon fill="#ffffff" stroke="#000000" points="152,-19.5 152,-38.5 248,-38.5 248,-19.5 152,-19.5"/>
<text text-anchor="middle" x="200" y="-26.5" font-family="Helvetica,sans-Serif" font-size="10.00" fill="#000000">check_heap_stats</text>
</a>
</g>
</g>
<!-- Node634&#45;&gt;Node639 -->
<g id="edge5" class="edge">
<title>Node634&#45;&gt;Node639</title>
<path fill="none" stroke="#191970" d="M96.287,-60.4715C119.2702,-53.4973 147.4259,-44.9535 168.5986,-38.5287"/>
<polygon fill="#191970" stroke="#191970" points="95.0156,-57.1997 86.4628,-63.4527 97.0483,-63.898 95.0156,-57.1997"/>
</g>
<!-- Node636 -->
<g id="node3" class="node">
<title>Node636</title>
<g id="a_node3"><a xlink:href="../../d4/d12/3rd_party_2gc_2tests_2test_8c.html#a1441c77c68f4a3023b01ac675442c2da" target="_top" xlink:title="WinMain">
<polygon fill="#ffffff" stroke="#000000" points="290,-76.5 290,-95.5 345,-95.5 345,-76.5 290,-76.5"/>
<text text-anchor="middle" x="317.5" y="-83.5" font-family="Helvetica,sans-Serif" font-size="10.00" fill="#000000">WinMain</text>
</a>
</g>
</g>
<!-- Node635&#45;&gt;Node636 -->
<g id="edge2" class="edge">
<title>Node635&#45;&gt;Node636</title>
<path fill="none" stroke="#191970" d="M246.1967,-104.8119C260.9438,-100.9212 276.7978,-96.7385 289.8029,-93.3073"/>
<polygon fill="#191970" stroke="#191970" points="244.9889,-101.5107 236.2126,-107.446 246.7747,-108.2791 244.9889,-101.5107"/>
</g>
<!-- Node637 -->
<g id="node4" class="node">
<title>Node637</title>
<g id="a_node4"><a xlink:href="../../d4/d12/3rd_party_2gc_2tests_2test_8c.html#a99b2e9cc4d3b5790643181ca7da1ba02" target="_top" xlink:title="thr_window">
<polygon fill="#ffffff" stroke="#000000" points="381,-38.5 381,-57.5 447,-57.5 447,-38.5 381,-38.5"/>
<text text-anchor="middle" x="414" y="-45.5" font-family="Helvetica,sans-Serif" font-size="10.00" fill="#000000">thr_window</text>
</a>
</g>
</g>
<!-- Node636&#45;&gt;Node637 -->
<g id="edge3" class="edge">
<title>Node636&#45;&gt;Node637</title>
<path fill="none" stroke="#191970" d="M351.185,-72.7354C363.8537,-67.7467 378.0007,-62.1759 389.6568,-57.5859"/>
<polygon fill="#191970" stroke="#191970" points="349.8732,-69.4903 341.851,-76.411 352.438,-76.0036 349.8732,-69.4903"/>
</g>
<!-- Node639&#45;&gt;Node636 -->
<g id="edge6" class="edge">
<title>Node639&#45;&gt;Node636</title>
<path fill="none" stroke="#191970" d="M240.0939,-42.0884C244.8384,-43.9354 249.5662,-45.9192 254,-48 271.6782,-56.2965 290.7498,-68.1374 303.3278,-76.3889"/>
<polygon fill="#191970" stroke="#191970" points="241.0141,-38.6968 230.421,-38.5021 238.5806,-45.2602 241.0141,-38.6968"/>
</g>
<!-- Node640 -->
<g id="node7" class="node">
<title>Node640</title>
<g id="a_node7"><a xlink:href="../../d4/d12/3rd_party_2gc_2tests_2test_8c.html#a1f3479a5eb21a215c63cfcd8876e3486" target="_top" xlink:title="test">
<polygon fill="#ffffff" stroke="#000000" points="301,-38.5 301,-57.5 334,-57.5 334,-38.5 301,-38.5"/>
<text text-anchor="middle" x="317.5" y="-45.5" font-family="Helvetica,sans-Serif" font-size="10.00" fill="#000000">test</text>
</a>
</g>
</g>
<!-- Node639&#45;&gt;Node640 -->
<g id="edge7" class="edge">
<title>Node639&#45;&gt;Node640</title>
<path fill="none" stroke="#191970" d="M258.3418,-38.434C273.9593,-40.9594 289.6152,-43.491 300.8949,-45.3149"/>
<polygon fill="#191970" stroke="#191970" points="258.5613,-34.9241 248.1308,-36.7828 257.4438,-41.8343 258.5613,-34.9241"/>
</g>
<!-- Node641 -->
<g id="node8" class="node">
<title>Node641</title>
<g id="a_node8"><a xlink:href="../../d4/d12/3rd_party_2gc_2tests_2test_8c.html#a840291bc02cba5474a4cb46a9b9566fe" target="_top" xlink:title="main">
<polygon fill="#ffffff" stroke="#000000" points="298.5,-.5 298.5,-19.5 336.5,-19.5 336.5,-.5 298.5,-.5"/>
<text text-anchor="middle" x="317.5" y="-7.5" font-family="Helvetica,sans-Serif" font-size="10.00" fill="#000000">main</text>
</a>
</g>
</g>
<!-- Node639&#45;&gt;Node641 -->
<g id="edge8" class="edge">
<title>Node639&#45;&gt;Node641</title>
<path fill="none" stroke="#191970" d="M258.1368,-19.5992C272.6645,-17.25 287.2422,-14.8928 298.316,-13.1021"/>
<polygon fill="#191970" stroke="#191970" points="257.4438,-16.1657 248.1308,-21.2172 258.5613,-23.0759 257.4438,-16.1657"/>
</g>
<!-- Node641&#45;&gt;Node637 -->
<g id="edge9" class="edge">
<title>Node641&#45;&gt;Node637</title>
<path fill="none" stroke="#191970" d="M346.1433,-21.2792C360.048,-26.7546 376.5703,-33.2608 389.8299,-38.4822"/>
<polygon fill="#191970" stroke="#191970" points="347.1523,-17.915 336.5653,-17.5076 344.5875,-24.4282 347.1523,-17.915"/>
</g>
</g>
</svg>
