<?xml version="1.0" encoding="UTF-8" standalone="no"?>
<!DOCTYPE svg PUBLIC "-//W3C//DTD SVG 1.1//EN"
 "http://www.w3.org/Graphics/SVG/1.1/DTD/svg11.dtd">
<!-- Generated by graphviz version 2.40.1 (20161225.0304)
 -->
<!-- Title: omc_Differentiate_dumpInputData Pages: 1 -->
<svg width="680pt" height="132pt"
 viewBox="0.00 0.00 680.00 131.50" xmlns="http://www.w3.org/2000/svg" xmlns:xlink="http://www.w3.org/1999/xlink">
<g id="graph0" class="graph" transform="scale(1 1) rotate(0) translate(4 127.5)">
<title>omc_Differentiate_dumpInputData</title>
<polygon fill="#ffffff" stroke="transparent" points="-4,4 -4,-127.5 676,-127.5 676,4 -4,4"/>
<!-- Node1028 -->
<g id="node1" class="node">
<title>Node1028</title>
<polygon fill="#bfbfbf" stroke="#000000" points="0,-66 0,-85 166,-85 166,-66 0,-66"/>
<text text-anchor="middle" x="83" y="-73" font-family="Helvetica,sans-Serif" font-size="10.00" fill="#000000">omc_Differentiate_dumpInputData</text>
</g>
<!-- Node1029 -->
<g id="node2" class="node">
<title>Node1029</title>
<g id="a_node2"><a xlink:href="../../d7/deb/build_2include_2omc_2c_2util_2modelica__string_8c.html#a751007abc59e9ca7978f2af10a0c814f" target="_top" xlink:title="stringAppend">
<polygon fill="#ffffff" stroke="#000000" points="250,-104 250,-123 324,-123 324,-104 250,-104"/>
<text text-anchor="middle" x="287" y="-111" font-family="Helvetica,sans-Serif" font-size="10.00" fill="#000000">stringAppend</text>
</a>
</g>
</g>
<!-- Node1028&#45;&gt;Node1029 -->
<g id="edge1" class="edge">
<title>Node1028&#45;&gt;Node1029</title>
<path fill="none" stroke="#191970" d="M134.2145,-85.04C166.6967,-91.0906 208.4041,-98.8596 240.0337,-104.7514"/>
<polygon fill="#191970" stroke="#191970" points="239.4527,-108.2033 249.9245,-106.5938 240.7346,-101.3216 239.4527,-108.2033"/>
</g>
<!-- Node1030 -->
<g id="node3" class="node">
<title>Node1030</title>
<g id="a_node3"><a xlink:href="../../d9/d7c/_compiler_2boot_2build_2util_8c.html#a049372c160fa344ce26314ee56987490" target="_top" xlink:title="omc_Util_getOption">
<polygon fill="#ffffff" stroke="#000000" points="235.5,-66 235.5,-85 338.5,-85 338.5,-66 235.5,-66"/>
<text text-anchor="middle" x="287" y="-73" font-family="Helvetica,sans-Serif" font-size="10.00" fill="#000000">omc_Util_getOption</text>
</a>
</g>
</g>
<!-- Node1028&#45;&gt;Node1030 -->
<g id="edge2" class="edge">
<title>Node1028&#45;&gt;Node1030</title>
<path fill="none" stroke="#191970" d="M166.2688,-75.5C185.9759,-75.5 206.649,-75.5 225.2078,-75.5"/>
<polygon fill="#191970" stroke="#191970" points="225.2812,-79.0001 235.2811,-75.5 225.2811,-72.0001 225.2812,-79.0001"/>
</g>
<!-- Node1031 -->
<g id="node4" class="node">
<title>Node1031</title>
<g id="a_node4"><a xlink:href="../../d0/df5/_backend_dump_8c.html#ac5df710ff3738f4afb54e423b97665b7" target="_top" xlink:title="omc_BackendDump_printVariables">
<polygon fill="#ffffff" stroke="#000000" points="202,-28 202,-47 372,-47 372,-28 202,-28"/>
<text text-anchor="middle" x="287" y="-35" font-family="Helvetica,sans-Serif" font-size="10.00" fill="#000000">omc_BackendDump_printVariables</text>
</a>
</g>
</g>
<!-- Node1028&#45;&gt;Node1031 -->
<g id="edge3" class="edge">
<title>Node1028&#45;&gt;Node1031</title>
<path fill="none" stroke="#191970" d="M134.2145,-65.96C161.9812,-60.7878 196.4891,-54.3599 225.6806,-48.9222"/>
<polygon fill="#191970" stroke="#191970" points="226.5745,-52.316 235.7644,-47.0439 225.2926,-45.4344 226.5745,-52.316"/>
</g>
<!-- Node1032 -->
<g id="node5" class="node">
<title>Node1032</title>
<g id="a_node5"><a xlink:href="../../da/d72/_compiler_2boot_2build_2list_8c.html#a3ec1ee3a5ff53be9af368e290be09182" target="_top" xlink:title="omc_List_fold">
<polygon fill="#ffffff" stroke="#000000" points="426.5,-50 426.5,-69 503.5,-69 503.5,-50 426.5,-50"/>
<text text-anchor="middle" x="465" y="-57" font-family="Helvetica,sans-Serif" font-size="10.00" fill="#000000">omc_List_fold</text>
</a>
</g>
</g>
<!-- Node1031&#45;&gt;Node1032 -->
<g id="edge4" class="edge">
<title>Node1031&#45;&gt;Node1032</title>
<path fill="none" stroke="#191970" d="M364.0381,-47.0216C381.6112,-49.1935 399.818,-51.4438 415.8506,-53.4253"/>
<polygon fill="#191970" stroke="#191970" points="415.6899,-56.932 426.0437,-54.6852 416.5486,-49.9849 415.6899,-56.932"/>
</g>
<!-- Node1033 -->
<g id="node6" class="node">
<title>Node1033</title>
<g id="a_node6"><a xlink:href="../../dd/db3/_backend_variable_8c.html#a51a1e83100b01afe350584face09be78" target="_top" xlink:title="omc_BackendVariable\l_varList">
<polygon fill="#ffffff" stroke="#000000" points="408,-.5 408,-30.5 522,-30.5 522,-.5 408,-.5"/>
<text text-anchor="start" x="416" y="-18.5" font-family="Helvetica,sans-Serif" font-size="10.00" fill="#000000">omc_BackendVariable</text>
<text text-anchor="middle" x="465" y="-7.5" font-family="Helvetica,sans-Serif" font-size="10.00" fill="#000000">_varList</text>
</a>
</g>
</g>
<!-- Node1031&#45;&gt;Node1033 -->
<g id="edge5" class="edge">
<title>Node1031&#45;&gt;Node1033</title>
<path fill="none" stroke="#191970" d="M364.0381,-27.9784C375.3322,-26.5825 386.888,-25.1543 397.9601,-23.7858"/>
<polygon fill="#191970" stroke="#191970" points="398.4759,-27.2488 407.9711,-22.5485 397.6172,-20.3017 398.4759,-27.2488"/>
</g>
<!-- Node1034 -->
<g id="node7" class="node">
<title>Node1034</title>
<g id="a_node7"><a xlink:href="../../dd/db3/_backend_variable_8c.html#a02471a40fa5320d5f337733e05e97cef" target="_top" xlink:title="omc_BackendVariable\l_vararrayList">
<polygon fill="#ffffff" stroke="#000000" points="558,-.5 558,-30.5 672,-30.5 672,-.5 558,-.5"/>
<text text-anchor="start" x="566" y="-18.5" font-family="Helvetica,sans-Serif" font-size="10.00" fill="#000000">omc_BackendVariable</text>
<text text-anchor="middle" x="615" y="-7.5" font-family="Helvetica,sans-Serif" font-size="10.00" fill="#000000">_vararrayList</text>
</a>
</g>
</g>
<!-- Node1033&#45;&gt;Node1034 -->
<g id="edge6" class="edge">
<title>Node1033&#45;&gt;Node1034</title>
<path fill="none" stroke="#191970" d="M522.1365,-15.5C530.3769,-15.5 538.9229,-15.5 547.3442,-15.5"/>
<polygon fill="#191970" stroke="#191970" points="547.5255,-19.0001 557.5255,-15.5 547.5255,-12.0001 547.5255,-19.0001"/>
</g>
</g>
</svg>
