<?xml version="1.0" encoding="UTF-8" standalone="no"?>
<!DOCTYPE svg PUBLIC "-//W3C//DTD SVG 1.1//EN"
 "http://www.w3.org/Graphics/SVG/1.1/DTD/svg11.dtd">
<!-- Generated by graphviz version 2.40.1 (20161225.0304)
 -->
<!-- Title: flat_modelica_parser::protected_element_list Pages: 1 -->
<svg width="497pt" height="39pt"
 viewBox="0.00 0.00 497.00 39.00" xmlns="http://www.w3.org/2000/svg" xmlns:xlink="http://www.w3.org/1999/xlink">
<g id="graph0" class="graph" transform="scale(1 1) rotate(0) translate(4 35)">
<title>flat_modelica_parser::protected_element_list</title>
<polygon fill="#ffffff" stroke="transparent" points="-4,4 -4,-35 493,-35 493,4 -4,4"/>
<!-- Node803 -->
<g id="node1" class="node">
<title>Node803</title>
<polygon fill="#bfbfbf" stroke="#000000" points="0,-.5 0,-30.5 121,-30.5 121,-.5 0,-.5"/>
<text text-anchor="start" x="8" y="-18.5" font-family="Helvetica,sans-Serif" font-size="10.00" fill="#000000">flat_modelica_parser</text>
<text text-anchor="middle" x="60.5" y="-7.5" font-family="Helvetica,sans-Serif" font-size="10.00" fill="#000000">::protected_element_list</text>
</g>
<!-- Node804 -->
<g id="node2" class="node">
<title>Node804</title>
<g id="a_node2"><a xlink:href="../../d3/d1f/classflat__modelica__parser.html#a31818193bd0698f52704723d05bf0365" target="_top" xlink:title="flat_modelica_parser\l::ANTLR_USE_NAMESPACE">
<polygon fill="#ffffff" stroke="#000000" points="157,-.5 157,-30.5 308,-30.5 308,-.5 157,-.5"/>
<text text-anchor="start" x="165" y="-18.5" font-family="Helvetica,sans-Serif" font-size="10.00" fill="#000000">flat_modelica_parser</text>
<text text-anchor="middle" x="232.5" y="-7.5" font-family="Helvetica,sans-Serif" font-size="10.00" fill="#000000">::ANTLR_USE_NAMESPACE</text>
</a>
</g>
</g>
<!-- Node803&#45;&gt;Node804 -->
<g id="edge1" class="edge">
<title>Node803&#45;&gt;Node804</title>
<path fill="none" stroke="#191970" d="M121.1408,-15.5C129.4132,-15.5 138.0295,-15.5 146.6438,-15.5"/>
<polygon fill="#191970" stroke="#191970" points="146.7347,-19.0001 156.7347,-15.5 146.7346,-12.0001 146.7347,-19.0001"/>
</g>
<!-- Node805 -->
<g id="node3" class="node">
<title>Node805</title>
<g id="a_node3"><a xlink:href="../../db/d21/flat__modelica__parser_8hpp.html#a3cc67195fc4368e8020566f42e07dc13" target="_top" xlink:title="ANTLR_USE_NAMESPACE">
<polygon fill="#ffffff" stroke="#000000" points="344,-6 344,-25 489,-25 489,-6 344,-6"/>
<text text-anchor="middle" x="416.5" y="-13" font-family="Helvetica,sans-Serif" font-size="10.00" fill="#000000">ANTLR_USE_NAMESPACE</text>
</a>
</g>
</g>
<!-- Node804&#45;&gt;Node805 -->
<g id="edge2" class="edge">
<title>Node804&#45;&gt;Node805</title>
<path fill="none" stroke="#191970" d="M308.1364,-15.5C316.5221,-15.5 325.0953,-15.5 333.565,-15.5"/>
<polygon fill="#191970" stroke="#191970" points="333.8253,-19.0001 343.8253,-15.5 333.8252,-12.0001 333.8253,-19.0001"/>
</g>
</g>
</svg>
