<?xml version="1.0" encoding="UTF-8" standalone="no"?>
<!DOCTYPE svg PUBLIC "-//W3C//DTD SVG 1.1//EN"
 "http://www.w3.org/Graphics/SVG/1.1/DTD/svg11.dtd">
<!-- Generated by graphviz version 2.40.1 (20161225.0304)
 -->
<!-- Title: flat_modelica_parser::initial_algorithm_clause Pages: 1 -->
<svg width="418pt" height="39pt"
 viewBox="0.00 0.00 418.00 39.00" xmlns="http://www.w3.org/2000/svg" xmlns:xlink="http://www.w3.org/1999/xlink">
<g id="graph0" class="graph" transform="scale(1 1) rotate(0) translate(4 35)">
<title>flat_modelica_parser::initial_algorithm_clause</title>
<polygon fill="#ffffff" stroke="transparent" points="-4,4 -4,-35 414,-35 414,4 -4,4"/>
<!-- Node639 -->
<g id="node1" class="node">
<title>Node639</title>
<polygon fill="#bfbfbf" stroke="#000000" points="0,-.5 0,-30.5 124,-30.5 124,-.5 0,-.5"/>
<text text-anchor="start" x="8" y="-18.5" font-family="Helvetica,sans-Serif" font-size="10.00" fill="#000000">flat_modelica_parser</text>
<text text-anchor="middle" x="62" y="-7.5" font-family="Helvetica,sans-Serif" font-size="10.00" fill="#000000">::initial_algorithm_clause</text>
</g>
<!-- Node640 -->
<g id="node2" class="node">
<title>Node640</title>
<g id="a_node2"><a xlink:href="../../d3/d1f/classflat__modelica__parser.html#a2501f477f2faf6b6fccebbc1f42645c4" target="_top" xlink:title="flat_modelica_parser\l::composition">
<polygon fill="#ffffff" stroke="#000000" points="160,-.5 160,-30.5 267,-30.5 267,-.5 160,-.5"/>
<text text-anchor="start" x="168" y="-18.5" font-family="Helvetica,sans-Serif" font-size="10.00" fill="#000000">flat_modelica_parser</text>
<text text-anchor="middle" x="213.5" y="-7.5" font-family="Helvetica,sans-Serif" font-size="10.00" fill="#000000">::composition</text>
</a>
</g>
</g>
<!-- Node639&#45;&gt;Node640 -->
<g id="edge1" class="edge">
<title>Node639&#45;&gt;Node640</title>
<path fill="none" stroke="#191970" d="M134.0683,-15.5C142.6428,-15.5 151.2803,-15.5 159.5401,-15.5"/>
<polygon fill="#191970" stroke="#191970" points="134.058,-12.0001 124.058,-15.5 134.0579,-19.0001 134.058,-12.0001"/>
</g>
<!-- Node641 -->
<g id="node3" class="node">
<title>Node641</title>
<g id="a_node3"><a xlink:href="../../d3/d1f/classflat__modelica__parser.html#a3f84c213222246748b920c694e5901f5" target="_top" xlink:title="flat_modelica_parser\l::class_specifier">
<polygon fill="#ffffff" stroke="#000000" points="303,-.5 303,-30.5 410,-30.5 410,-.5 303,-.5"/>
<text text-anchor="start" x="311" y="-18.5" font-family="Helvetica,sans-Serif" font-size="10.00" fill="#000000">flat_modelica_parser</text>
<text text-anchor="middle" x="356.5" y="-7.5" font-family="Helvetica,sans-Serif" font-size="10.00" fill="#000000">::class_specifier</text>
</a>
</g>
</g>
<!-- Node640&#45;&gt;Node641 -->
<g id="edge2" class="edge">
<title>Node640&#45;&gt;Node641</title>
<path fill="none" stroke="#191970" d="M277.3238,-15.5C285.7452,-15.5 294.3103,-15.5 302.5445,-15.5"/>
<polygon fill="#191970" stroke="#191970" points="277.1548,-12.0001 267.1548,-15.5 277.1547,-19.0001 277.1548,-12.0001"/>
</g>
</g>
</svg>
