<?xml version="1.0" encoding="UTF-8" standalone="no"?>
<!DOCTYPE svg PUBLIC "-//W3C//DTD SVG 1.1//EN"
 "http://www.w3.org/Graphics/SVG/1.1/DTD/svg11.dtd">
<!-- Generated by graphviz version 2.40.1 (20161225.0304)
 -->
<!-- Title: flat_modelica_parser::multi_assign_clause_a Pages: 1 -->
<svg width="416pt" height="39pt"
 viewBox="0.00 0.00 416.00 39.00" xmlns="http://www.w3.org/2000/svg" xmlns:xlink="http://www.w3.org/1999/xlink">
<g id="graph0" class="graph" transform="scale(1 1) rotate(0) translate(4 35)">
<title>flat_modelica_parser::multi_assign_clause_a</title>
<polygon fill="#ffffff" stroke="transparent" points="-4,4 -4,-35 412,-35 412,4 -4,4"/>
<!-- Node748 -->
<g id="node1" class="node">
<title>Node748</title>
<polygon fill="#bfbfbf" stroke="#000000" points="0,-.5 0,-30.5 122,-30.5 122,-.5 0,-.5"/>
<text text-anchor="start" x="8" y="-18.5" font-family="Helvetica,sans-Serif" font-size="10.00" fill="#000000">flat_modelica_parser</text>
<text text-anchor="middle" x="61" y="-7.5" font-family="Helvetica,sans-Serif" font-size="10.00" fill="#000000">::multi_assign_clause_a</text>
</g>
<!-- Node749 -->
<g id="node2" class="node">
<title>Node749</title>
<g id="a_node2"><a xlink:href="../../d3/d1f/classflat__modelica__parser.html#a9070be82572545c4f02f69a494bba5e7" target="_top" xlink:title="flat_modelica_parser\l::algorithm">
<polygon fill="#ffffff" stroke="#000000" points="158,-.5 158,-30.5 265,-30.5 265,-.5 158,-.5"/>
<text text-anchor="start" x="166" y="-18.5" font-family="Helvetica,sans-Serif" font-size="10.00" fill="#000000">flat_modelica_parser</text>
<text text-anchor="middle" x="211.5" y="-7.5" font-family="Helvetica,sans-Serif" font-size="10.00" fill="#000000">::algorithm</text>
</a>
</g>
</g>
<!-- Node748&#45;&gt;Node749 -->
<g id="edge1" class="edge">
<title>Node748&#45;&gt;Node749</title>
<path fill="none" stroke="#191970" d="M132.4657,-15.5C140.9198,-15.5 149.4377,-15.5 157.5911,-15.5"/>
<polygon fill="#191970" stroke="#191970" points="132.2141,-12.0001 122.2141,-15.5 132.2141,-19.0001 132.2141,-12.0001"/>
</g>
<!-- Node750 -->
<g id="node3" class="node">
<title>Node750</title>
<g id="a_node3"><a xlink:href="../../d3/d1f/classflat__modelica__parser.html#a24452fe5045329b5e1f706d996031e01" target="_top" xlink:title="flat_modelica_parser\l::algorithm_list">
<polygon fill="#ffffff" stroke="#000000" points="301,-.5 301,-30.5 408,-30.5 408,-.5 301,-.5"/>
<text text-anchor="start" x="309" y="-18.5" font-family="Helvetica,sans-Serif" font-size="10.00" fill="#000000">flat_modelica_parser</text>
<text text-anchor="middle" x="354.5" y="-7.5" font-family="Helvetica,sans-Serif" font-size="10.00" fill="#000000">::algorithm_list</text>
</a>
</g>
</g>
<!-- Node749&#45;&gt;Node750 -->
<g id="edge2" class="edge">
<title>Node749&#45;&gt;Node750</title>
<path fill="none" stroke="#191970" d="M275.3238,-15.5C283.7452,-15.5 292.3103,-15.5 300.5445,-15.5"/>
<polygon fill="#191970" stroke="#191970" points="275.1548,-12.0001 265.1548,-15.5 275.1547,-19.0001 275.1548,-12.0001"/>
</g>
</g>
</svg>
