<?xml version="1.0" encoding="UTF-8" standalone="no"?>
<!DOCTYPE svg PUBLIC "-//W3C//DTD SVG 1.1//EN"
 "http://www.w3.org/Graphics/SVG/1.1/DTD/svg11.dtd">
<!-- Generated by graphviz version 2.40.1 (20161225.0304)
 -->
<!-- Title: flat_modelica_parser::initial_algorithm_clause Pages: 1 -->
<svg width="500pt" height="39pt"
 viewBox="0.00 0.00 500.00 39.00" xmlns="http://www.w3.org/2000/svg" xmlns:xlink="http://www.w3.org/1999/xlink">
<g id="graph0" class="graph" transform="scale(1 1) rotate(0) translate(4 35)">
<title>flat_modelica_parser::initial_algorithm_clause</title>
<polygon fill="#ffffff" stroke="transparent" points="-4,4 -4,-35 496,-35 496,4 -4,4"/>
<!-- Node636 -->
<g id="node1" class="node">
<title>Node636</title>
<polygon fill="#bfbfbf" stroke="#000000" points="0,-.5 0,-30.5 124,-30.5 124,-.5 0,-.5"/>
<text text-anchor="start" x="8" y="-18.5" font-family="Helvetica,sans-Serif" font-size="10.00" fill="#000000">flat_modelica_parser</text>
<text text-anchor="middle" x="62" y="-7.5" font-family="Helvetica,sans-Serif" font-size="10.00" fill="#000000">::initial_algorithm_clause</text>
</g>
<!-- Node637 -->
<g id="node2" class="node">
<title>Node637</title>
<g id="a_node2"><a xlink:href="../../d3/d1f/classflat__modelica__parser.html#a31818193bd0698f52704723d05bf0365" target="_top" xlink:title="flat_modelica_parser\l::ANTLR_USE_NAMESPACE">
<polygon fill="#ffffff" stroke="#000000" points="160,-.5 160,-30.5 311,-30.5 311,-.5 160,-.5"/>
<text text-anchor="start" x="168" y="-18.5" font-family="Helvetica,sans-Serif" font-size="10.00" fill="#000000">flat_modelica_parser</text>
<text text-anchor="middle" x="235.5" y="-7.5" font-family="Helvetica,sans-Serif" font-size="10.00" fill="#000000">::ANTLR_USE_NAMESPACE</text>
</a>
</g>
</g>
<!-- Node636&#45;&gt;Node637 -->
<g id="edge1" class="edge">
<title>Node636&#45;&gt;Node637</title>
<path fill="none" stroke="#191970" d="M124.1474,-15.5C132.464,-15.5 141.1094,-15.5 149.7418,-15.5"/>
<polygon fill="#191970" stroke="#191970" points="149.849,-19.0001 159.8489,-15.5 149.8489,-12.0001 149.849,-19.0001"/>
</g>
<!-- Node638 -->
<g id="node3" class="node">
<title>Node638</title>
<g id="a_node3"><a xlink:href="../../db/d21/flat__modelica__parser_8hpp.html#a3cc67195fc4368e8020566f42e07dc13" target="_top" xlink:title="ANTLR_USE_NAMESPACE">
<polygon fill="#ffffff" stroke="#000000" points="347,-6 347,-25 492,-25 492,-6 347,-6"/>
<text text-anchor="middle" x="419.5" y="-13" font-family="Helvetica,sans-Serif" font-size="10.00" fill="#000000">ANTLR_USE_NAMESPACE</text>
</a>
</g>
</g>
<!-- Node637&#45;&gt;Node638 -->
<g id="edge2" class="edge">
<title>Node637&#45;&gt;Node638</title>
<path fill="none" stroke="#191970" d="M311.1364,-15.5C319.5221,-15.5 328.0953,-15.5 336.565,-15.5"/>
<polygon fill="#191970" stroke="#191970" points="336.8253,-19.0001 346.8253,-15.5 336.8252,-12.0001 336.8253,-19.0001"/>
</g>
</g>
</svg>
