<?xml version="1.0" encoding="UTF-8" standalone="no"?>
<!DOCTYPE svg PUBLIC "-//W3C//DTD SVG 1.1//EN"
 "http://www.w3.org/Graphics/SVG/1.1/DTD/svg11.dtd">
<!-- Generated by graphviz version 2.40.1 (20161225.0304)
 -->
<!-- Title: GC_SysVGetDataStart Pages: 1 -->
<svg width="1104pt" height="373pt"
 viewBox="0.00 0.00 1104.00 373.00" xmlns="http://www.w3.org/2000/svg" xmlns:xlink="http://www.w3.org/1999/xlink">
<g id="graph0" class="graph" transform="scale(1 1) rotate(0) translate(4 369)">
<title>GC_SysVGetDataStart</title>
<polygon fill="#ffffff" stroke="transparent" points="-4,4 -4,-369 1100,-369 1100,4 -4,4"/>
<!-- Node5554 -->
<g id="node1" class="node">
<title>Node5554</title>
<polygon fill="#bfbfbf" stroke="#000000" points="0,-257.5 0,-276.5 119,-276.5 119,-257.5 0,-257.5"/>
<text text-anchor="middle" x="59.5" y="-264.5" font-family="Helvetica,sans-Serif" font-size="10.00" fill="#000000">GC_SysVGetDataStart</text>
</g>
<!-- Node5555 -->
<g id="node2" class="node">
<title>Node5555</title>
<g id="a_node2"><a xlink:href="../../d2/d3c/os__dep_8c.html#a2acd39a73b53bb325724abfa3415b95a" target="_top" xlink:title="GC_setup_temporary\l_fault_handler">
<polygon fill="#ffffff" stroke="#000000" points="470.5,-289 470.5,-319 580.5,-319 580.5,-289 470.5,-289"/>
<text text-anchor="start" x="478.5" y="-307" font-family="Helvetica,sans-Serif" font-size="10.00" fill="#000000">GC_setup_temporary</text>
<text text-anchor="middle" x="525.5" y="-296" font-family="Helvetica,sans-Serif" font-size="10.00" fill="#000000">_fault_handler</text>
</a>
</g>
</g>
<!-- Node5554&#45;&gt;Node5555 -->
<g id="edge1" class="edge">
<title>Node5554&#45;&gt;Node5555</title>
<path fill="none" stroke="#191970" d="M95.9711,-276.5763C113.6649,-280.8217 135.3052,-285.4291 155,-288 261.2461,-301.8692 385.932,-304.4678 460.1817,-304.5883"/>
<polygon fill="#191970" stroke="#191970" points="460.3163,-308.0882 470.3168,-304.5898 460.3173,-301.0882 460.3163,-308.0882"/>
</g>
<!-- Node5557 -->
<g id="node4" class="node">
<title>Node5557</title>
<g id="a_node4"><a xlink:href="../../d1/dd1/3rd_party_2gc_2include_2gc_8h.html#acacfa47efcc44a29f7bb7d98f2a000f8" target="_top" xlink:title="void">
<polygon fill="#ffffff" stroke="#000000" points="838.5,-311.5 838.5,-330.5 873.5,-330.5 873.5,-311.5 838.5,-311.5"/>
<text text-anchor="middle" x="856" y="-318.5" font-family="Helvetica,sans-Serif" font-size="10.00" fill="#000000">void</text>
</a>
</g>
</g>
<!-- Node5554&#45;&gt;Node5557 -->
<g id="edge5" class="edge">
<title>Node5554&#45;&gt;Node5557</title>
<path fill="none" stroke="#191970" d="M76.1207,-276.5751C120.5439,-301.2344 246.3548,-365 359.5,-365 359.5,-365 359.5,-365 525.5,-365 623.4204,-365 648.2375,-361.0141 745,-346 773.8156,-341.5288 806.3081,-333.9012 828.6552,-328.2442"/>
<polygon fill="#191970" stroke="#191970" points="829.6407,-331.6048 838.4544,-325.7252 827.8978,-324.8252 829.6407,-331.6048"/>
</g>
<!-- Node5559 -->
<g id="node6" class="node">
<title>Node5559</title>
<g id="a_node6"><a xlink:href="../../db/d02/generalize-arithm_8h.html#a456340c2c302ce480bd147d402ae86a7" target="_top" xlink:title="AO_fetch_and_add">
<polygon fill="#ffffff" stroke="#000000" points="155,-131.5 155,-150.5 255,-150.5 255,-131.5 155,-131.5"/>
<text text-anchor="middle" x="205" y="-138.5" font-family="Helvetica,sans-Serif" font-size="10.00" fill="#000000">AO_fetch_and_add</text>
</a>
</g>
</g>
<!-- Node5554&#45;&gt;Node5559 -->
<g id="edge6" class="edge">
<title>Node5554&#45;&gt;Node5559</title>
<path fill="none" stroke="#191970" d="M70.6575,-257.2697C88.4656,-241.7472 124.424,-210.4343 155,-184 165.3161,-175.0812 176.8565,-165.1532 186.2488,-157.0859"/>
<polygon fill="#191970" stroke="#191970" points="188.5572,-159.717 193.8648,-150.5474 183.9974,-154.4057 188.5572,-159.717"/>
</g>
<!-- Node5571 -->
<g id="node18" class="node">
<title>Node5571</title>
<g id="a_node18"><a xlink:href="../../d1/dd1/3rd_party_2gc_2include_2gc_8h.html#a233015def2a1752a7feb7c81d34f89e6" target="_top" xlink:title="GC_noop1">
<polygon fill="#ffffff" stroke="#000000" points="494,-194.5 494,-213.5 557,-213.5 557,-194.5 494,-194.5"/>
<text text-anchor="middle" x="525.5" y="-201.5" font-family="Helvetica,sans-Serif" font-size="10.00" fill="#000000">GC_noop1</text>
</a>
</g>
</g>
<!-- Node5554&#45;&gt;Node5571 -->
<g id="edge20" class="edge">
<title>Node5554&#45;&gt;Node5571</title>
<path fill="none" stroke="#191970" d="M76.822,-257.3807C95.4893,-247.5437 126.3803,-232.7741 155,-226 271.6001,-198.4015 414.2954,-199.2892 483.6536,-201.8413"/>
<polygon fill="#191970" stroke="#191970" points="483.6102,-205.3422 493.7418,-202.2438 483.8893,-198.3478 483.6102,-205.3422"/>
</g>
<!-- Node5572 -->
<g id="node19" class="node">
<title>Node5572</title>
<g id="a_node19"><a xlink:href="../../d2/d3c/os__dep_8c.html#a4be675d8de4fc54eb1a553a4f79abdb6" target="_top" xlink:title="GC_reset_fault_handler">
<polygon fill="#ffffff" stroke="#000000" points="466,-232.5 466,-251.5 585,-251.5 585,-232.5 466,-232.5"/>
<text text-anchor="middle" x="525.5" y="-239.5" font-family="Helvetica,sans-Serif" font-size="10.00" fill="#000000">GC_reset_fault_handler</text>
</a>
</g>
</g>
<!-- Node5554&#45;&gt;Node5572 -->
<g id="edge21" class="edge">
<title>Node5554&#45;&gt;Node5572</title>
<path fill="none" stroke="#191970" d="M119.1425,-271.569C192.2539,-276.1202 319.7793,-280.6536 428,-267 447.4204,-264.5498 468.5129,-259.4574 486.096,-254.5041"/>
<polygon fill="#191970" stroke="#191970" points="487.378,-257.7764 496.0039,-251.6247 485.4245,-251.0545 487.378,-257.7764"/>
</g>
<!-- Node5573 -->
<g id="node20" class="node">
<title>Node5573</title>
<g id="a_node20"><a xlink:href="../../d2/d3c/os__dep_8c.html#ab7495901c8c30547cc2ec4bc342f810b" target="_top" xlink:title="GC_find_limit">
<polygon fill="#ffffff" stroke="#000000" points="167,-235.5 167,-254.5 243,-254.5 243,-235.5 167,-235.5"/>
<text text-anchor="middle" x="205" y="-242.5" font-family="Helvetica,sans-Serif" font-size="10.00" fill="#000000">GC_find_limit</text>
</a>
</g>
</g>
<!-- Node5554&#45;&gt;Node5573 -->
<g id="edge23" class="edge">
<title>Node5554&#45;&gt;Node5573</title>
<path fill="none" stroke="#191970" d="M119.1002,-257.9883C131.7306,-256.0785 144.908,-254.0861 157.0406,-252.2516"/>
<polygon fill="#191970" stroke="#191970" points="157.5869,-255.7089 166.9513,-250.7531 156.5403,-248.7875 157.5869,-255.7089"/>
</g>
<!-- Node5556 -->
<g id="node3" class="node">
<title>Node5556</title>
<g id="a_node3"><a xlink:href="../../d2/d3c/os__dep_8c.html#a6e8698284deaaa0c9d8e90692e82fd3f" target="_top" xlink:title="GC_set_and_save_fault\l_handler">
<polygon fill="#ffffff" stroke="#000000" points="623,-306 623,-336 745,-336 745,-306 623,-306"/>
<text text-anchor="start" x="631" y="-324" font-family="Helvetica,sans-Serif" font-size="10.00" fill="#000000">GC_set_and_save_fault</text>
<text text-anchor="middle" x="684" y="-313" font-family="Helvetica,sans-Serif" font-size="10.00" fill="#000000">_handler</text>
</a>
</g>
</g>
<!-- Node5555&#45;&gt;Node5556 -->
<g id="edge2" class="edge">
<title>Node5555&#45;&gt;Node5556</title>
<path fill="none" stroke="#191970" d="M580.9356,-309.9458C591.2185,-311.0487 602.0911,-312.2148 612.7676,-313.3599"/>
<polygon fill="#191970" stroke="#191970" points="612.6019,-316.8621 622.9181,-314.4486 613.3485,-309.9021 612.6019,-316.8621"/>
</g>
<!-- Node5558 -->
<g id="node5" class="node">
<title>Node5558</title>
<g id="a_node5"><a xlink:href="../../d2/d3c/os__dep_8c.html#a203e7f4517d4a77161a06f4fd15a960f" target="_top" xlink:title="GC_fault_handler">
<polygon fill="#ffffff" stroke="#000000" points="638,-267.5 638,-286.5 730,-286.5 730,-267.5 638,-267.5"/>
<text text-anchor="middle" x="684" y="-274.5" font-family="Helvetica,sans-Serif" font-size="10.00" fill="#000000">GC_fault_handler</text>
</a>
</g>
</g>
<!-- Node5555&#45;&gt;Node5558 -->
<g id="edge4" class="edge">
<title>Node5555&#45;&gt;Node5558</title>
<path fill="none" stroke="#191970" d="M580.9356,-294.5567C596.0224,-291.9867 612.3786,-289.2005 627.5225,-286.6208"/>
<polygon fill="#191970" stroke="#191970" points="628.5123,-290.0027 637.7825,-284.873 627.3367,-283.1021 628.5123,-290.0027"/>
</g>
<!-- Node5556&#45;&gt;Node5557 -->
<g id="edge3" class="edge">
<title>Node5556&#45;&gt;Node5557</title>
<path fill="none" stroke="#191970" d="M745.1251,-321C773.5041,-321 805.8371,-321 828.2333,-321"/>
<polygon fill="#191970" stroke="#191970" points="828.3688,-324.5001 838.3687,-321 828.3687,-317.5001 828.3688,-324.5001"/>
</g>
<!-- Node5560 -->
<g id="node7" class="node">
<title>Node5560</title>
<g id="a_node7"><a xlink:href="../../db/d02/generalize-arithm_8h.html#a2354e1f8af9625d6f586e693a5f8127d" target="_top" xlink:title="AO_compare_and_swap">
<polygon fill="#ffffff" stroke="#000000" points="298,-150.5 298,-169.5 421,-169.5 421,-150.5 298,-150.5"/>
<text text-anchor="middle" x="359.5" y="-157.5" font-family="Helvetica,sans-Serif" font-size="10.00" fill="#000000">AO_compare_and_swap</text>
</a>
</g>
</g>
<!-- Node5559&#45;&gt;Node5560 -->
<g id="edge7" class="edge">
<title>Node5559&#45;&gt;Node5560</title>
<path fill="none" stroke="#191970" d="M255.1617,-147.1688C265.6181,-148.4546 276.8325,-149.8338 287.892,-151.1938"/>
<polygon fill="#191970" stroke="#191970" points="287.6264,-154.6875 297.9788,-152.4343 288.4808,-147.7398 287.6264,-154.6875"/>
</g>
<!-- Node5563 -->
<g id="node10" class="node">
<title>Node5563</title>
<g id="a_node10"><a xlink:href="../../db/d02/generalize-arithm_8h.html#a5c9e99c843f97a3706a23a6b453e39dd" target="_top" xlink:title="AO_fetch_and_add_acquire">
<polygon fill="#ffffff" stroke="#000000" points="291,-112.5 291,-131.5 428,-131.5 428,-112.5 291,-112.5"/>
<text text-anchor="middle" x="359.5" y="-119.5" font-family="Helvetica,sans-Serif" font-size="10.00" fill="#000000">AO_fetch_and_add_acquire</text>
</a>
</g>
</g>
<!-- Node5559&#45;&gt;Node5563 -->
<g id="edge10" class="edge">
<title>Node5559&#45;&gt;Node5563</title>
<path fill="none" stroke="#191970" d="M255.1617,-134.8312C263.3313,-133.8266 271.9637,-132.765 280.6233,-131.7"/>
<polygon fill="#191970" stroke="#191970" points="281.2774,-135.1461 290.7754,-130.4516 280.4229,-128.1984 281.2774,-135.1461"/>
</g>
<!-- Node5566 -->
<g id="node13" class="node">
<title>Node5566</title>
<g id="a_node13"><a xlink:href="../../d5/d3a/generalize_8h.html#afe3a6778eacc82252ba138fc9a157b04" target="_top" xlink:title="AO_nop_full">
<polygon fill="#ffffff" stroke="#000000" points="821,-74.5 821,-93.5 891,-93.5 891,-74.5 821,-74.5"/>
<text text-anchor="middle" x="856" y="-81.5" font-family="Helvetica,sans-Serif" font-size="10.00" fill="#000000">AO_nop_full</text>
</a>
</g>
</g>
<!-- Node5559&#45;&gt;Node5566 -->
<g id="edge19" class="edge">
<title>Node5559&#45;&gt;Node5566</title>
<path fill="none" stroke="#191970" d="M221.4714,-131.4387C238.3138,-122.2209 265.5434,-108.8362 291,-103 479.9856,-59.673 713.7535,-71.9012 810.6469,-79.7435"/>
<polygon fill="#191970" stroke="#191970" points="810.4283,-83.2373 820.6846,-80.5803 811.01,-76.2615 810.4283,-83.2373"/>
</g>
<!-- Node5561 -->
<g id="node8" class="node">
<title>Node5561</title>
<g id="a_node8"><a xlink:href="../../d2/df0/arm__v6_8h.html#a665c82062fa5008f68c960783b52e141" target="_top" xlink:title="AO_fetch_compare_and_swap">
<polygon fill="#ffffff" stroke="#000000" points="781,-155.5 781,-174.5 931,-174.5 931,-155.5 781,-155.5"/>
<text text-anchor="middle" x="856" y="-162.5" font-family="Helvetica,sans-Serif" font-size="10.00" fill="#000000">AO_fetch_compare_and_swap</text>
</a>
</g>
</g>
<!-- Node5560&#45;&gt;Node5561 -->
<g id="edge8" class="edge">
<title>Node5560&#45;&gt;Node5561</title>
<path fill="none" stroke="#191970" d="M421.3782,-160.6231C509.4662,-161.5102 671.3324,-163.1403 770.7326,-164.1413"/>
<polygon fill="#191970" stroke="#191970" points="770.7125,-167.6412 780.7472,-164.2422 770.783,-160.6415 770.7125,-167.6412"/>
</g>
<!-- Node5562 -->
<g id="node9" class="node">
<title>Node5562</title>
<g id="a_node9"><a xlink:href="../../d2/d3c/os__dep_8c.html#aaa5bed87c5f571a4f368f9f5c8ccbc13" target="_top" xlink:title="__asm__">
<polygon fill="#ffffff" stroke="#000000" points="1003.5,-155.5 1003.5,-174.5 1059.5,-174.5 1059.5,-155.5 1003.5,-155.5"/>
<text text-anchor="middle" x="1031.5" y="-162.5" font-family="Helvetica,sans-Serif" font-size="10.00" fill="#000000">__asm__</text>
</a>
</g>
</g>
<!-- Node5561&#45;&gt;Node5562 -->
<g id="edge9" class="edge">
<title>Node5561&#45;&gt;Node5562</title>
<path fill="none" stroke="#191970" d="M931.1915,-165C952.5008,-165 974.8189,-165 992.9787,-165"/>
<polygon fill="#191970" stroke="#191970" points="993.1513,-168.5001 1003.1513,-165 993.1513,-161.5001 993.1513,-168.5001"/>
</g>
<!-- Node5564 -->
<g id="node11" class="node">
<title>Node5564</title>
<g id="a_node11"><a xlink:href="../../db/d02/generalize-arithm_8h.html#af56782de1236c5ae9539d442d6d4cfb0" target="_top" xlink:title="AO_compare_and_swap\l_acquire">
<polygon fill="#ffffff" stroke="#000000" points="464,-107 464,-137 587,-137 587,-107 464,-107"/>
<text text-anchor="start" x="472" y="-125" font-family="Helvetica,sans-Serif" font-size="10.00" fill="#000000">AO_compare_and_swap</text>
<text text-anchor="middle" x="525.5" y="-114" font-family="Helvetica,sans-Serif" font-size="10.00" fill="#000000">_acquire</text>
</a>
</g>
</g>
<!-- Node5563&#45;&gt;Node5564 -->
<g id="edge11" class="edge">
<title>Node5563&#45;&gt;Node5564</title>
<path fill="none" stroke="#191970" d="M428.4568,-122C436.8163,-122 445.3715,-122 453.7699,-122"/>
<polygon fill="#191970" stroke="#191970" points="453.9126,-125.5001 463.9126,-122 453.9125,-118.5001 453.9126,-125.5001"/>
</g>
<!-- Node5565 -->
<g id="node12" class="node">
<title>Node5565</title>
<g id="a_node12"><a xlink:href="../../de/d97/generalize-small_8h.html#afd0ae7be9a3252690cdbf3c635478d8b" target="_top" xlink:title="AO_fetch_compare_and\l_swap_acquire">
<polygon fill="#ffffff" stroke="#000000" points="623,-107 623,-137 745,-137 745,-107 623,-107"/>
<text text-anchor="start" x="631" y="-125" font-family="Helvetica,sans-Serif" font-size="10.00" fill="#000000">AO_fetch_compare_and</text>
<text text-anchor="middle" x="684" y="-114" font-family="Helvetica,sans-Serif" font-size="10.00" fill="#000000">_swap_acquire</text>
</a>
</g>
</g>
<!-- Node5564&#45;&gt;Node5565 -->
<g id="edge12" class="edge">
<title>Node5564&#45;&gt;Node5565</title>
<path fill="none" stroke="#191970" d="M587.2341,-122C595.5766,-122 604.1917,-122 612.684,-122"/>
<polygon fill="#191970" stroke="#191970" points="612.9554,-125.5001 622.9553,-122 612.9553,-118.5001 612.9554,-125.5001"/>
</g>
<!-- Node5565&#45;&gt;Node5561 -->
<g id="edge13" class="edge">
<title>Node5565&#45;&gt;Node5561</title>
<path fill="none" stroke="#191970" d="M744.1573,-137.0393C765.1242,-142.281 788.3504,-148.0876 808.1791,-153.0448"/>
<polygon fill="#191970" stroke="#191970" points="807.3607,-156.4478 817.911,-155.4777 809.0585,-149.6568 807.3607,-156.4478"/>
</g>
<!-- Node5565&#45;&gt;Node5566 -->
<g id="edge14" class="edge">
<title>Node5565&#45;&gt;Node5566</title>
<path fill="none" stroke="#191970" d="M745.1251,-108.4956C766.7669,-103.7143 790.7082,-98.4249 810.7885,-93.9886"/>
<polygon fill="#191970" stroke="#191970" points="811.5964,-97.3946 820.6058,-91.8196 810.0862,-90.5594 811.5964,-97.3946"/>
</g>
<!-- Node5567 -->
<g id="node14" class="node">
<title>Node5567</title>
<g id="a_node14"><a xlink:href="../../d7/d6b/ipoma-dummy_8f.html#a14e68597ab81208552434ccd2a9e8f4f" target="_top" xlink:title="dummy">
<polygon fill="#ffffff" stroke="#000000" points="1007,-76.5 1007,-95.5 1056,-95.5 1056,-76.5 1007,-76.5"/>
<text text-anchor="middle" x="1031.5" y="-83.5" font-family="Helvetica,sans-Serif" font-size="10.00" fill="#000000">dummy</text>
</a>
</g>
</g>
<!-- Node5566&#45;&gt;Node5567 -->
<g id="edge15" class="edge">
<title>Node5566&#45;&gt;Node5567</title>
<path fill="none" stroke="#191970" d="M891.0932,-84.3999C921.7849,-84.7497 966.1144,-85.2549 996.7145,-85.6036"/>
<polygon fill="#191970" stroke="#191970" points="996.8814,-89.1056 1006.9206,-85.7199 996.9612,-82.1061 996.8814,-89.1056"/>
</g>
<!-- Node5568 -->
<g id="node15" class="node">
<title>Node5568</title>
<g id="a_node15"><a xlink:href="../../d5/d3a/generalize_8h.html#a9f485bd63ce5c6a017ec241906e2f651" target="_top" xlink:title="AO_test_and_set_full">
<polygon fill="#ffffff" stroke="#000000" points="976.5,-38.5 976.5,-57.5 1086.5,-57.5 1086.5,-38.5 976.5,-38.5"/>
<text text-anchor="middle" x="1031.5" y="-45.5" font-family="Helvetica,sans-Serif" font-size="10.00" fill="#000000">AO_test_and_set_full</text>
</a>
</g>
</g>
<!-- Node5566&#45;&gt;Node5568 -->
<g id="edge16" class="edge">
<title>Node5566&#45;&gt;Node5568</title>
<path fill="none" stroke="#191970" d="M891.0932,-76.8014C915.1473,-71.8672 947.5784,-65.2147 975.2117,-59.5463"/>
<polygon fill="#191970" stroke="#191970" points="976.0582,-62.9456 985.1509,-57.5075 974.6515,-56.0884 976.0582,-62.9456"/>
</g>
<!-- Node5569 -->
<g id="node16" class="node">
<title>Node5569</title>
<g id="a_node16"><a xlink:href="../../d5/d3a/generalize_8h.html#a0af1bdd53473eb43906a057efe883f6d" target="_top" xlink:title="AO_test_and_set_acquire">
<polygon fill="#ffffff" stroke="#000000" points="967,-.5 967,-19.5 1096,-19.5 1096,-.5 967,-.5"/>
<text text-anchor="middle" x="1031.5" y="-7.5" font-family="Helvetica,sans-Serif" font-size="10.00" fill="#000000">AO_test_and_set_acquire</text>
</a>
</g>
</g>
<!-- Node5566&#45;&gt;Node5569 -->
<g id="edge17" class="edge">
<title>Node5566&#45;&gt;Node5569</title>
<path fill="none" stroke="#191970" d="M872.8844,-74.4781C894.2886,-62.68 932.5554,-42.4889 967,-29 972.8493,-26.7093 979.0896,-24.5421 985.2979,-22.5477"/>
<polygon fill="#191970" stroke="#191970" points="986.4441,-25.857 994.9668,-19.563 984.3793,-19.1684 986.4441,-25.857"/>
</g>
<!-- Node5570 -->
<g id="node17" class="node">
<title>Node5570</title>
<g id="a_node17"><a xlink:href="../../d5/d3a/generalize_8h.html#a8ec1c2583e26c57a7b4d17f239fa41e8" target="_top" xlink:title="AO_test_and_set">
<polygon fill="#ffffff" stroke="#000000" points="985.5,-114.5 985.5,-133.5 1077.5,-133.5 1077.5,-114.5 985.5,-114.5"/>
<text text-anchor="middle" x="1031.5" y="-121.5" font-family="Helvetica,sans-Serif" font-size="10.00" fill="#000000">AO_test_and_set</text>
</a>
</g>
</g>
<!-- Node5566&#45;&gt;Node5570 -->
<g id="edge18" class="edge">
<title>Node5566&#45;&gt;Node5570</title>
<path fill="none" stroke="#191970" d="M891.0932,-91.9985C916.5056,-97.7904 951.2676,-105.7134 979.8444,-112.2266"/>
<polygon fill="#191970" stroke="#191970" points="979.1412,-115.6561 989.6689,-114.4659 980.6968,-108.8311 979.1412,-115.6561"/>
</g>
<!-- Node5572&#45;&gt;Node5557 -->
<g id="edge22" class="edge">
<title>Node5572&#45;&gt;Node5557</title>
<path fill="none" stroke="#191970" d="M585.0141,-239.3336C629.9149,-238.985 692.531,-242.0852 745,-258 778.9536,-268.2987 813.8592,-290.3618 835.242,-305.4431"/>
<polygon fill="#191970" stroke="#191970" points="833.3778,-308.4139 843.5359,-311.4244 837.4723,-302.7363 833.3778,-308.4139"/>
</g>
<!-- Node5574 -->
<g id="node21" class="node">
<title>Node5574</title>
<g id="a_node21"><a xlink:href="../../d2/d3c/os__dep_8c.html#a977e7c413d4183ccfebdee4ad7c05c28" target="_top" xlink:title="GC_find_limit_with\l_bound">
<polygon fill="#ffffff" stroke="#000000" points="310,-227 310,-257 409,-257 409,-227 310,-227"/>
<text text-anchor="start" x="318" y="-245" font-family="Helvetica,sans-Serif" font-size="10.00" fill="#000000">GC_find_limit_with</text>
<text text-anchor="middle" x="359.5" y="-234" font-family="Helvetica,sans-Serif" font-size="10.00" fill="#000000">_bound</text>
</a>
</g>
</g>
<!-- Node5573&#45;&gt;Node5574 -->
<g id="edge24" class="edge">
<title>Node5573&#45;&gt;Node5574</title>
<path fill="none" stroke="#191970" d="M243.191,-244.2584C260.2338,-243.9275 280.7186,-243.5297 299.7162,-243.1609"/>
<polygon fill="#191970" stroke="#191970" points="299.8563,-246.6589 309.7864,-242.9653 299.7203,-239.6602 299.8563,-246.6589"/>
</g>
<!-- Node5574&#45;&gt;Node5555 -->
<g id="edge25" class="edge">
<title>Node5574&#45;&gt;Node5555</title>
<path fill="none" stroke="#191970" d="M399.684,-257.0085C422.5554,-265.5508 451.3999,-276.324 475.699,-285.3996"/>
<polygon fill="#191970" stroke="#191970" points="474.5182,-288.6947 485.1107,-288.9149 476.9674,-282.1371 474.5182,-288.6947"/>
</g>
<!-- Node5574&#45;&gt;Node5571 -->
<g id="edge26" class="edge">
<title>Node5574&#45;&gt;Node5571</title>
<path fill="none" stroke="#191970" d="M409.3055,-230.5987C433.0739,-225.1578 461.1906,-218.7214 483.8119,-213.5431"/>
<polygon fill="#191970" stroke="#191970" points="484.8166,-216.9037 493.7834,-211.2604 483.2545,-210.0802 484.8166,-216.9037"/>
</g>
<!-- Node5574&#45;&gt;Node5572 -->
<g id="edge27" class="edge">
<title>Node5574&#45;&gt;Node5572</title>
<path fill="none" stroke="#191970" d="M409.3055,-242C423.8768,-242 440.0823,-242 455.654,-242"/>
<polygon fill="#191970" stroke="#191970" points="455.7718,-245.5001 465.7717,-242 455.7717,-238.5001 455.7718,-245.5001"/>
</g>
</g>
</svg>
