<?xml version="1.0" encoding="UTF-8" standalone="no"?>
<!DOCTYPE svg PUBLIC "-//W3C//DTD SVG 1.1//EN"
 "http://www.w3.org/Graphics/SVG/1.1/DTD/svg11.dtd">
<!-- Generated by graphviz version 2.40.1 (20161225.0304)
 -->
<!-- Title: GC_win32_get_mem Pages: 1 -->
<svg width="493pt" height="66pt"
 viewBox="0.00 0.00 493.00 66.00" xmlns="http://www.w3.org/2000/svg" xmlns:xlink="http://www.w3.org/1999/xlink">
<g id="graph0" class="graph" transform="scale(1 1) rotate(0) translate(4 62)">
<title>GC_win32_get_mem</title>
<polygon fill="#ffffff" stroke="transparent" points="-4,4 -4,-62 489,-62 489,4 -4,4"/>
<!-- Node6229 -->
<g id="node1" class="node">
<title>Node6229</title>
<polygon fill="#bfbfbf" stroke="#000000" points="0,-19.5 0,-38.5 108,-38.5 108,-19.5 0,-19.5"/>
<text text-anchor="middle" x="54" y="-26.5" font-family="Helvetica,sans-Serif" font-size="10.00" fill="#000000">GC_win32_get_mem</text>
</g>
<!-- Node6230 -->
<g id="node2" class="node">
<title>Node6230</title>
<g id="a_node2"><a xlink:href="../../d2/d3c/os__dep_8c.html#ab3881908af4f90fd479b488bf2c18fcd" target="_top" xlink:title="GC_unix_get_mem">
<polygon fill="#ffffff" stroke="#000000" points="144,-19.5 144,-38.5 245,-38.5 245,-19.5 144,-19.5"/>
<text text-anchor="middle" x="194.5" y="-26.5" font-family="Helvetica,sans-Serif" font-size="10.00" fill="#000000">GC_unix_get_mem</text>
</a>
</g>
</g>
<!-- Node6229&#45;&gt;Node6230 -->
<g id="edge1" class="edge">
<title>Node6229&#45;&gt;Node6230</title>
<path fill="none" stroke="#191970" d="M108.321,-29C116.5558,-29 125.0988,-29 133.4645,-29"/>
<polygon fill="#191970" stroke="#191970" points="133.5482,-32.5001 143.5481,-29 133.5481,-25.5001 133.5482,-32.5001"/>
</g>
<!-- Node6231 -->
<g id="node3" class="node">
<title>Node6231</title>
<g id="a_node3"><a xlink:href="../../d2/d3c/os__dep_8c.html#a1a35e01390750247f4af21b4fc7910ee" target="_top" xlink:title="GC_unix_mmap_get_mem">
<polygon fill="#ffffff" stroke="#000000" points="281,-38.5 281,-57.5 414,-57.5 414,-38.5 281,-38.5"/>
<text text-anchor="middle" x="347.5" y="-45.5" font-family="Helvetica,sans-Serif" font-size="10.00" fill="#000000">GC_unix_mmap_get_mem</text>
</a>
</g>
</g>
<!-- Node6230&#45;&gt;Node6231 -->
<g id="edge2" class="edge">
<title>Node6230&#45;&gt;Node6231</title>
<path fill="none" stroke="#191970" d="M245.0219,-35.274C253.3698,-36.3106 262.186,-37.4055 271.0022,-38.5003"/>
<polygon fill="#191970" stroke="#191970" points="270.5758,-41.9741 280.9309,-39.7332 271.4385,-35.0275 270.5758,-41.9741"/>
</g>
<!-- Node6232 -->
<g id="node4" class="node">
<title>Node6232</title>
<g id="a_node4"><a xlink:href="../../d2/d3c/os__dep_8c.html#aac64705f70777e37c38c1560f200076f" target="_top" xlink:title="GC_unix_sbrk_get_mem">
<polygon fill="#ffffff" stroke="#000000" points="285,-.5 285,-19.5 410,-19.5 410,-.5 285,-.5"/>
<text text-anchor="middle" x="347.5" y="-7.5" font-family="Helvetica,sans-Serif" font-size="10.00" fill="#000000">GC_unix_sbrk_get_mem</text>
</a>
</g>
</g>
<!-- Node6230&#45;&gt;Node6232 -->
<g id="edge3" class="edge">
<title>Node6230&#45;&gt;Node6232</title>
<path fill="none" stroke="#191970" d="M245.0219,-22.726C254.5531,-21.5424 264.6946,-20.283 274.7496,-19.0344"/>
<polygon fill="#191970" stroke="#191970" points="275.2575,-22.4983 284.7499,-17.7925 274.3948,-15.5516 275.2575,-22.4983"/>
</g>
<!-- Node6233 -->
<g id="node5" class="node">
<title>Node6233</title>
<g id="a_node5"><a xlink:href="../../d2/d3c/os__dep_8c.html#ac80b49905a0968edf0b541007d552a55" target="_top" xlink:title="sbrk">
<polygon fill="#ffffff" stroke="#000000" points="450,-.5 450,-19.5 485,-19.5 485,-.5 450,-.5"/>
<text text-anchor="middle" x="467.5" y="-7.5" font-family="Helvetica,sans-Serif" font-size="10.00" fill="#000000">sbrk</text>
</a>
</g>
</g>
<!-- Node6232&#45;&gt;Node6233 -->
<g id="edge4" class="edge">
<title>Node6232&#45;&gt;Node6233</title>
<path fill="none" stroke="#191970" d="M410.3116,-10C420.6323,-10 430.8419,-10 439.7152,-10"/>
<polygon fill="#191970" stroke="#191970" points="439.7936,-13.5001 449.7936,-10 439.7936,-6.5001 439.7936,-13.5001"/>
</g>
</g>
</svg>
