<?xml version="1.0" encoding="UTF-8" standalone="no"?>
<!DOCTYPE svg PUBLIC "-//W3C//DTD SVG 1.1//EN"
 "http://www.w3.org/Graphics/SVG/1.1/DTD/svg11.dtd">
<!-- Generated by graphviz version 2.40.1 (20161225.0304)
 -->
<!-- Title: omc_CodegenCppHpcom_equationHPCOM__ Pages: 1 -->
<svg width="1840pt" height="259pt"
 viewBox="0.00 0.00 1840.00 259.00" xmlns="http://www.w3.org/2000/svg" xmlns:xlink="http://www.w3.org/1999/xlink">
<g id="graph0" class="graph" transform="scale(1 1) rotate(0) translate(4 255)">
<title>omc_CodegenCppHpcom_equationHPCOM__</title>
<polygon fill="#ffffff" stroke="transparent" points="-4,4 -4,-255 1836,-255 1836,4 -4,4"/>
<!-- Node2881 -->
<g id="node1" class="node">
<title>Node2881</title>
<polygon fill="#bfbfbf" stroke="#000000" points="0,-17 0,-47 129,-47 129,-17 0,-17"/>
<text text-anchor="start" x="8" y="-35" font-family="Helvetica,sans-Serif" font-size="10.00" fill="#000000">omc_CodegenCppHpcom</text>
<text text-anchor="middle" x="64.5" y="-24" font-family="Helvetica,sans-Serif" font-size="10.00" fill="#000000">_equationHPCOM__</text>
</g>
<!-- Node2882 -->
<g id="node2" class="node">
<title>Node2882</title>
<g id="a_node2"><a xlink:href="../../d0/df9/_codegen_cpp_8c.html#ad852a90949643c3ae36393e780cd2307" target="_top" xlink:title="omc_CodegenCpp_equation\l__function__call">
<polygon fill="#ffffff" stroke="#000000" points="165,-39 165,-69 305,-69 305,-39 165,-39"/>
<text text-anchor="start" x="173" y="-57" font-family="Helvetica,sans-Serif" font-size="10.00" fill="#000000">omc_CodegenCpp_equation</text>
<text text-anchor="middle" x="235" y="-46" font-family="Helvetica,sans-Serif" font-size="10.00" fill="#000000">__function__call</text>
</a>
</g>
</g>
<!-- Node2881&#45;&gt;Node2882 -->
<g id="edge1" class="edge">
<title>Node2881&#45;&gt;Node2882</title>
<path fill="none" stroke="#191970" d="M129.4451,-40.38C137.7648,-41.4535 146.3585,-42.5624 154.8835,-43.6624"/>
<polygon fill="#191970" stroke="#191970" points="154.4733,-47.1384 164.839,-44.947 155.3691,-40.1959 154.4733,-47.1384"/>
</g>
<!-- Node2909 -->
<g id="node29" class="node">
<title>Node2909</title>
<g id="a_node29"><a xlink:href="../../d7/d52/_tpl_8c.html#a51cc135d8caad2e380fbe22495dcb643" target="_top" xlink:title="omc_Tpl_strTokText">
<polygon fill="#ffffff" stroke="#000000" points="181.5,-.5 181.5,-19.5 288.5,-19.5 288.5,-.5 181.5,-.5"/>
<text text-anchor="middle" x="235" y="-7.5" font-family="Helvetica,sans-Serif" font-size="10.00" fill="#000000">omc_Tpl_strTokText</text>
</a>
</g>
</g>
<!-- Node2881&#45;&gt;Node2909 -->
<g id="edge32" class="edge">
<title>Node2881&#45;&gt;Node2909</title>
<path fill="none" stroke="#191970" d="M129.4451,-23.62C143.0937,-21.8589 157.4796,-20.0026 171.0898,-18.2465"/>
<polygon fill="#191970" stroke="#191970" points="171.8516,-21.6773 181.3215,-16.9263 170.9558,-14.7348 171.8516,-21.6773"/>
</g>
<!-- Node2883 -->
<g id="node3" class="node">
<title>Node2883</title>
<g id="a_node3"><a xlink:href="../../d1/dda/_codegen_util_simulation_8c.html#a6baea90a2524af114184c2bc2a0d499b" target="_top" xlink:title="omc_CodegenUtilSimulation\l_equationIndex">
<polygon fill="#ffffff" stroke="#000000" points="341,-140 341,-170 481,-170 481,-140 341,-140"/>
<text text-anchor="start" x="349" y="-158" font-family="Helvetica,sans-Serif" font-size="10.00" fill="#000000">omc_CodegenUtilSimulation</text>
<text text-anchor="middle" x="411" y="-147" font-family="Helvetica,sans-Serif" font-size="10.00" fill="#000000">_equationIndex</text>
</a>
</g>
</g>
<!-- Node2882&#45;&gt;Node2883 -->
<g id="edge2" class="edge">
<title>Node2882&#45;&gt;Node2883</title>
<path fill="none" stroke="#191970" d="M261.349,-69.1207C291.7648,-86.5753 341.9275,-115.3618 375.6983,-134.7417"/>
<polygon fill="#191970" stroke="#191970" points="374.3433,-137.9994 384.7587,-139.9411 377.8275,-131.9281 374.3433,-137.9994"/>
</g>
<!-- Node2888 -->
<g id="node8" class="node">
<title>Node2888</title>
<g id="a_node8"><a xlink:href="../../d7/d52/_tpl_8c.html#a1038a57834f028b49f38adc4d5fcd049" target="_top" xlink:title="omc_Tpl_writeTok">
<polygon fill="#ffffff" stroke="#000000" points="696.5,-19.5 696.5,-38.5 793.5,-38.5 793.5,-19.5 696.5,-19.5"/>
<text text-anchor="middle" x="745" y="-26.5" font-family="Helvetica,sans-Serif" font-size="10.00" fill="#000000">omc_Tpl_writeTok</text>
</a>
</g>
</g>
<!-- Node2882&#45;&gt;Node2888 -->
<g id="edge31" class="edge">
<title>Node2882&#45;&gt;Node2888</title>
<path fill="none" stroke="#191970" d="M305.1107,-50.5632C406.2977,-45.6031 591.4765,-36.5257 686.037,-31.8903"/>
<polygon fill="#191970" stroke="#191970" points="686.4636,-35.3737 696.2803,-31.3882 686.1209,-28.3821 686.4636,-35.3737"/>
</g>
<!-- Node2908 -->
<g id="node28" class="node">
<title>Node2908</title>
<g id="a_node28"><a xlink:href="../../d7/d52/_tpl_8c.html#a7e5a397e973cf3de37af50d58cbb789f" target="_top" xlink:title="omc_Tpl_writeText">
<polygon fill="#ffffff" stroke="#000000" points="361,-6.5 361,-25.5 461,-25.5 461,-6.5 361,-6.5"/>
<text text-anchor="middle" x="411" y="-13.5" font-family="Helvetica,sans-Serif" font-size="10.00" fill="#000000">omc_Tpl_writeText</text>
</a>
</g>
</g>
<!-- Node2882&#45;&gt;Node2908 -->
<g id="edge30" class="edge">
<title>Node2882&#45;&gt;Node2908</title>
<path fill="none" stroke="#191970" d="M304.5599,-38.9814C321.9856,-35.219 340.4214,-31.2386 356.9653,-27.6666"/>
<polygon fill="#191970" stroke="#191970" points="357.9596,-31.0326 366.9957,-25.5009 356.4823,-24.1903 357.9596,-31.0326"/>
</g>
<!-- Node2884 -->
<g id="node4" class="node">
<title>Node2884</title>
<g id="a_node4"><a xlink:href="../../d7/d52/_tpl_8c.html#ada57037d1430be632aea182a946c3245" target="_top" xlink:title="omc_Tpl_writeStr">
<polygon fill="#ffffff" stroke="#000000" points="698.5,-145.5 698.5,-164.5 791.5,-164.5 791.5,-145.5 698.5,-145.5"/>
<text text-anchor="middle" x="745" y="-152.5" font-family="Helvetica,sans-Serif" font-size="10.00" fill="#000000">omc_Tpl_writeStr</text>
</a>
</g>
</g>
<!-- Node2883&#45;&gt;Node2884 -->
<g id="edge3" class="edge">
<title>Node2883&#45;&gt;Node2884</title>
<path fill="none" stroke="#191970" d="M481.0173,-155C542.4246,-155 630.6045,-155 687.8444,-155"/>
<polygon fill="#191970" stroke="#191970" points="688.1589,-158.5001 698.1589,-155 688.1589,-151.5001 688.1589,-158.5001"/>
</g>
<!-- Node2885 -->
<g id="node5" class="node">
<title>Node2885</title>
<g id="a_node5"><a xlink:href="../../d2/d57/build_2include_2omc_2c_2meta_2meta__modelica__builtin_8h.html#a751bf2360cb3df6de97811998890b7ea" target="_top" xlink:title="intString">
<polygon fill="#ffffff" stroke="#000000" points="894,-174.5 894,-193.5 947,-193.5 947,-174.5 894,-174.5"/>
<text text-anchor="middle" x="920.5" y="-181.5" font-family="Helvetica,sans-Serif" font-size="10.00" fill="#000000">intString</text>
</a>
</g>
</g>
<!-- Node2883&#45;&gt;Node2885 -->
<g id="edge4" class="edge">
<title>Node2883&#45;&gt;Node2885</title>
<path fill="none" stroke="#191970" d="M481.0311,-165.196C493.0099,-166.6685 505.347,-168.0161 517,-169 651.5434,-180.3603 812.0468,-183.1172 883.2819,-183.786"/>
<polygon fill="#191970" stroke="#191970" points="883.5015,-187.2879 893.531,-183.8733 883.5613,-180.2881 883.5015,-187.2879"/>
</g>
<!-- Node2886 -->
<g id="node6" class="node">
<title>Node2886</title>
<g id="a_node6"><a xlink:href="../../de/d91/_codegen_util_8c.html#af48b901deeaf48bcc1e241d6b8e048a8" target="_top" xlink:title="omc_CodegenUtil_error">
<polygon fill="#ffffff" stroke="#000000" points="517,-107.5 517,-126.5 636,-126.5 636,-107.5 517,-107.5"/>
<text text-anchor="middle" x="576.5" y="-114.5" font-family="Helvetica,sans-Serif" font-size="10.00" fill="#000000">omc_CodegenUtil_error</text>
</a>
</g>
</g>
<!-- Node2883&#45;&gt;Node2886 -->
<g id="edge5" class="edge">
<title>Node2883&#45;&gt;Node2886</title>
<path fill="none" stroke="#191970" d="M476.41,-139.9814C492.5674,-136.2715 509.6483,-132.3496 525.0365,-128.8164"/>
<polygon fill="#191970" stroke="#191970" points="525.9145,-132.206 534.8776,-126.5568 524.3479,-125.3835 525.9145,-132.206"/>
</g>
<!-- Node2907 -->
<g id="node27" class="node">
<title>Node2907</title>
<g id="a_node27"><a xlink:href="../../d7/d52/_tpl_8c.html#a8a187b1be8ff955570284667e296c266" target="_top" xlink:title="omc_Tpl_sourceInfo">
<polygon fill="#ffffff" stroke="#000000" points="524,-221.5 524,-240.5 629,-240.5 629,-221.5 524,-221.5"/>
<text text-anchor="middle" x="576.5" y="-228.5" font-family="Helvetica,sans-Serif" font-size="10.00" fill="#000000">omc_Tpl_sourceInfo</text>
</a>
</g>
</g>
<!-- Node2883&#45;&gt;Node2907 -->
<g id="edge29" class="edge">
<title>Node2883&#45;&gt;Node2907</title>
<path fill="none" stroke="#191970" d="M440.4267,-170.151C461.5491,-180.85 490.794,-195.3054 517,-207 525.1151,-210.6214 533.9509,-214.3166 542.2701,-217.6878"/>
<polygon fill="#191970" stroke="#191970" points="541.1401,-221.0054 551.7247,-221.4727 543.7417,-214.5068 541.1401,-221.0054"/>
</g>
<!-- Node2886&#45;&gt;Node2884 -->
<g id="edge28" class="edge">
<title>Node2886&#45;&gt;Node2884</title>
<path fill="none" stroke="#191970" d="M619.0197,-126.589C641.4554,-131.6487 669.1732,-137.8996 692.8925,-143.2488"/>
<polygon fill="#191970" stroke="#191970" points="692.2611,-146.6942 702.7861,-145.4799 693.8011,-139.8657 692.2611,-146.6942"/>
</g>
<!-- Node2887 -->
<g id="node7" class="node">
<title>Node2887</title>
<g id="a_node7"><a xlink:href="../../d7/d52/_tpl_8c.html#ad5588ef8965b11d3e9cb9829a3b76c94" target="_top" xlink:title="omc_Tpl_addSourceTemplate\lError">
<polygon fill="#ffffff" stroke="#000000" points="672,-58 672,-88 818,-88 818,-58 672,-58"/>
<text text-anchor="start" x="680" y="-76" font-family="Helvetica,sans-Serif" font-size="10.00" fill="#000000">omc_Tpl_addSourceTemplate</text>
<text text-anchor="middle" x="745" y="-65" font-family="Helvetica,sans-Serif" font-size="10.00" fill="#000000">Error</text>
</a>
</g>
</g>
<!-- Node2886&#45;&gt;Node2887 -->
<g id="edge6" class="edge">
<title>Node2886&#45;&gt;Node2887</title>
<path fill="none" stroke="#191970" d="M613.062,-107.4527C631.8637,-102.543 655.3901,-96.3996 677.3498,-90.6653"/>
<polygon fill="#191970" stroke="#191970" points="678.5153,-93.9784 687.3065,-88.0654 676.7466,-87.2055 678.5153,-93.9784"/>
</g>
<!-- Node2886&#45;&gt;Node2888 -->
<g id="edge7" class="edge">
<title>Node2886&#45;&gt;Node2888</title>
<path fill="none" stroke="#191970" d="M587.1068,-107.2584C603.8861,-92.3549 638.1357,-63.9489 672,-48 677.0353,-45.6286 682.4106,-43.5209 687.8744,-41.6547"/>
<polygon fill="#191970" stroke="#191970" points="689.2593,-44.8883 697.7502,-38.5516 687.1609,-38.2102 689.2593,-44.8883"/>
</g>
<!-- Node2889 -->
<g id="node9" class="node">
<title>Node2889</title>
<g id="a_node9"><a xlink:href="../../db/da1/_compiler_2boot_2build_2error_8c.html#a10cc72f611e7b81b3a327aa48da0c015" target="_top" xlink:title="omc_Error_infoStr">
<polygon fill="#ffffff" stroke="#000000" points="697.5,-107.5 697.5,-126.5 792.5,-126.5 792.5,-107.5 697.5,-107.5"/>
<text text-anchor="middle" x="745" y="-114.5" font-family="Helvetica,sans-Serif" font-size="10.00" fill="#000000">omc_Error_infoStr</text>
</a>
</g>
</g>
<!-- Node2886&#45;&gt;Node2889 -->
<g id="edge8" class="edge">
<title>Node2886&#45;&gt;Node2889</title>
<path fill="none" stroke="#191970" d="M636.3812,-117C652.9883,-117 670.9774,-117 687.4483,-117"/>
<polygon fill="#191970" stroke="#191970" points="687.4816,-120.5001 697.4816,-117 687.4816,-113.5001 687.4816,-120.5001"/>
</g>
<!-- Node2889&#45;&gt;Node2885 -->
<g id="edge27" class="edge">
<title>Node2889&#45;&gt;Node2885</title>
<path fill="none" stroke="#191970" d="M787.0951,-126.5511C797.3208,-129.2551 808.1452,-132.4441 818,-136 844.4874,-145.5575 873.4395,-159.4559 893.797,-169.8404"/>
<polygon fill="#191970" stroke="#191970" points="892.2873,-172.9999 902.7784,-174.4786 895.4992,-166.7803 892.2873,-172.9999"/>
</g>
<!-- Node2890 -->
<g id="node10" class="node">
<title>Node2890</title>
<g id="a_node10"><a xlink:href="../../d7/deb/build_2include_2omc_2c_2util_2modelica__string_8c.html#a751007abc59e9ca7978f2af10a0c814f" target="_top" xlink:title="stringAppend">
<polygon fill="#ffffff" stroke="#000000" points="883.5,-79.5 883.5,-98.5 957.5,-98.5 957.5,-79.5 883.5,-79.5"/>
<text text-anchor="middle" x="920.5" y="-86.5" font-family="Helvetica,sans-Serif" font-size="10.00" fill="#000000">stringAppend</text>
</a>
</g>
</g>
<!-- Node2889&#45;&gt;Node2890 -->
<g id="edge9" class="edge">
<title>Node2889&#45;&gt;Node2890</title>
<path fill="none" stroke="#191970" d="M792.9561,-109.3489C818.0211,-105.3499 848.5818,-100.4741 873.5042,-96.4979"/>
<polygon fill="#191970" stroke="#191970" points="874.1316,-99.9422 883.4552,-94.9103 873.0287,-93.0296 874.1316,-99.9422"/>
</g>
<!-- Node2891 -->
<g id="node11" class="node">
<title>Node2891</title>
<g id="a_node11"><a xlink:href="../../d9/d7c/_compiler_2boot_2build_2util_8c.html#ad7f719bd6355b185d211a8c8ff0cc7be" target="_top" xlink:title="omc_Util_testsuiteFriendly">
<polygon fill="#ffffff" stroke="#000000" points="854,-117.5 854,-136.5 987,-136.5 987,-117.5 854,-117.5"/>
<text text-anchor="middle" x="920.5" y="-124.5" font-family="Helvetica,sans-Serif" font-size="10.00" fill="#000000">omc_Util_testsuiteFriendly</text>
</a>
</g>
</g>
<!-- Node2889&#45;&gt;Node2891 -->
<g id="edge10" class="edge">
<title>Node2889&#45;&gt;Node2891</title>
<path fill="none" stroke="#191970" d="M792.9561,-119.7325C808.6512,-120.6269 826.5012,-121.6439 843.7723,-122.6281"/>
<polygon fill="#191970" stroke="#191970" points="843.6708,-126.1279 853.8538,-123.2025 844.0691,-119.1392 843.6708,-126.1279"/>
</g>
<!-- Node2892 -->
<g id="node12" class="node">
<title>Node2892</title>
<g id="a_node12"><a xlink:href="../../d9/d7c/_compiler_2boot_2build_2util_8c.html#ab96745984cab835c8ae43a8f02fb268b" target="_top" xlink:title="omc_Util_testsuiteFriendly2">
<polygon fill="#ffffff" stroke="#000000" points="1048.5,-155.5 1048.5,-174.5 1186.5,-174.5 1186.5,-155.5 1048.5,-155.5"/>
<text text-anchor="middle" x="1117.5" y="-162.5" font-family="Helvetica,sans-Serif" font-size="10.00" fill="#000000">omc_Util_testsuiteFriendly2</text>
</a>
</g>
</g>
<!-- Node2891&#45;&gt;Node2892 -->
<g id="edge11" class="edge">
<title>Node2891&#45;&gt;Node2892</title>
<path fill="none" stroke="#191970" d="M969.9571,-136.54C996.654,-141.6896 1029.804,-148.084 1057.9151,-153.5065"/>
<polygon fill="#191970" stroke="#191970" points="1057.5406,-156.9987 1068.0225,-155.4561 1058.8665,-150.1254 1057.5406,-156.9987"/>
</g>
<!-- Node2900 -->
<g id="node20" class="node">
<title>Node2900</title>
<g id="a_node20"><a xlink:href="../../d1/d5c/_config_8c.html#afa2f208e09cd9979df49295043109099" target="_top" xlink:title="omc_Config_getRunningTestsuite">
<polygon fill="#ffffff" stroke="#000000" points="1035.5,-117.5 1035.5,-136.5 1199.5,-136.5 1199.5,-117.5 1035.5,-117.5"/>
<text text-anchor="middle" x="1117.5" y="-124.5" font-family="Helvetica,sans-Serif" font-size="10.00" fill="#000000">omc_Config_getRunningTestsuite</text>
</a>
</g>
</g>
<!-- Node2891&#45;&gt;Node2900 -->
<g id="edge19" class="edge">
<title>Node2891&#45;&gt;Node2900</title>
<path fill="none" stroke="#191970" d="M987.1952,-127C999.438,-127 1012.4152,-127 1025.2503,-127"/>
<polygon fill="#191970" stroke="#191970" points="1025.4966,-130.5001 1035.4965,-127 1025.4965,-123.5001 1025.4966,-130.5001"/>
</g>
<!-- Node2905 -->
<g id="node25" class="node">
<title>Node2905</title>
<g id="a_node25"><a xlink:href="../../d1/d5c/_config_8c.html#a9b4cae615bdffda9b7abbe6e04b1e6a5" target="_top" xlink:title="omc_Config_getRunningWSMTestsuite">
<polygon fill="#ffffff" stroke="#000000" points="1023,-79.5 1023,-98.5 1212,-98.5 1212,-79.5 1023,-79.5"/>
<text text-anchor="middle" x="1117.5" y="-86.5" font-family="Helvetica,sans-Serif" font-size="10.00" fill="#000000">omc_Config_getRunningWSMTestsuite</text>
</a>
</g>
</g>
<!-- Node2891&#45;&gt;Node2905 -->
<g id="edge24" class="edge">
<title>Node2891&#45;&gt;Node2905</title>
<path fill="none" stroke="#191970" d="M969.9571,-117.46C996.654,-112.3104 1029.804,-105.916 1057.9151,-100.4935"/>
<polygon fill="#191970" stroke="#191970" points="1058.8665,-103.8746 1068.0225,-98.5439 1057.5406,-97.0013 1058.8665,-103.8746"/>
</g>
<!-- Node2893 -->
<g id="node13" class="node">
<title>Node2893</title>
<g id="a_node13"><a xlink:href="../../d1/d95/_system_8c.html#acb158f48d2d963dbc65eb161259659a7" target="_top" xlink:title="omc_System_basename">
<polygon fill="#ffffff" stroke="#000000" points="1254,-193.5 1254,-212.5 1379,-212.5 1379,-193.5 1254,-193.5"/>
<text text-anchor="middle" x="1316.5" y="-200.5" font-family="Helvetica,sans-Serif" font-size="10.00" fill="#000000">omc_System_basename</text>
</a>
</g>
</g>
<!-- Node2892&#45;&gt;Node2893 -->
<g id="edge12" class="edge">
<title>Node2892&#45;&gt;Node2893</title>
<path fill="none" stroke="#191970" d="M1167.4592,-174.54C1194.5454,-179.7122 1228.2075,-186.1401 1256.6835,-191.5778"/>
<polygon fill="#191970" stroke="#191970" points="1256.0412,-195.0183 1266.5202,-193.4561 1257.3542,-188.1425 1256.0412,-195.0183"/>
</g>
<!-- Node2898 -->
<g id="node18" class="node">
<title>Node2898</title>
<g id="a_node18"><a xlink:href="../../d1/d95/_system_8c.html#ab4261551580fc07778c15d3b0cb0cdfd" target="_top" xlink:title="omc_System_os">
<polygon fill="#ffffff" stroke="#000000" points="1271.5,-155.5 1271.5,-174.5 1361.5,-174.5 1361.5,-155.5 1271.5,-155.5"/>
<text text-anchor="middle" x="1316.5" y="-162.5" font-family="Helvetica,sans-Serif" font-size="10.00" fill="#000000">omc_System_os</text>
</a>
</g>
</g>
<!-- Node2892&#45;&gt;Node2898 -->
<g id="edge17" class="edge">
<title>Node2892&#45;&gt;Node2898</title>
<path fill="none" stroke="#191970" d="M1186.5421,-165C1210.8792,-165 1237.9068,-165 1260.9829,-165"/>
<polygon fill="#191970" stroke="#191970" points="1261.2836,-168.5001 1271.2836,-165 1261.2835,-161.5001 1261.2836,-168.5001"/>
</g>
<!-- Node2894 -->
<g id="node14" class="node">
<title>Node2894</title>
<g id="a_node14"><a xlink:href="../../d8/d28/_compiler_2boot_2build_2system_8h.html#a7b722b53b1ba7f3ffdc3624727daa000" target="_top" xlink:title="System_basename">
<polygon fill="#ffffff" stroke="#000000" points="1439,-193.5 1439,-212.5 1540,-212.5 1540,-193.5 1439,-193.5"/>
<text text-anchor="middle" x="1489.5" y="-200.5" font-family="Helvetica,sans-Serif" font-size="10.00" fill="#000000">System_basename</text>
</a>
</g>
</g>
<!-- Node2893&#45;&gt;Node2894 -->
<g id="edge13" class="edge">
<title>Node2893&#45;&gt;Node2894</title>
<path fill="none" stroke="#191970" d="M1379.4464,-203C1395.4551,-203 1412.6291,-203 1428.5371,-203"/>
<polygon fill="#191970" stroke="#191970" points="1428.7833,-206.5001 1438.7833,-203 1428.7832,-199.5001 1428.7833,-206.5001"/>
</g>
<!-- Node2895 -->
<g id="node15" class="node">
<title>Node2895</title>
<g id="a_node15"><a xlink:href="../../d4/d45/systemimpl_8c.html#af0ce445d63d4d737a2ed25d05b45463c" target="_top" xlink:title="SystemImpl__basename">
<polygon fill="#ffffff" stroke="#000000" points="1594,-193.5 1594,-212.5 1719,-212.5 1719,-193.5 1594,-193.5"/>
<text text-anchor="middle" x="1656.5" y="-200.5" font-family="Helvetica,sans-Serif" font-size="10.00" fill="#000000">SystemImpl__basename</text>
</a>
</g>
</g>
<!-- Node2894&#45;&gt;Node2895 -->
<g id="edge14" class="edge">
<title>Node2894&#45;&gt;Node2895</title>
<path fill="none" stroke="#191970" d="M1540.0587,-203C1553.7868,-203 1568.9297,-203 1583.6262,-203"/>
<polygon fill="#191970" stroke="#191970" points="1583.7065,-206.5001 1593.7065,-203 1583.7065,-199.5001 1583.7065,-206.5001"/>
</g>
<!-- Node2896 -->
<g id="node16" class="node">
<title>Node2896</title>
<g id="a_node16"><a xlink:href="../../d7/dcd/group__core_utils.html#gaeccaa0b46edead0608a6982dddb917ec" target="_top" xlink:title="Allocate memory for a Modelica string which is used as return argument of an external Modelica functi...">
<polygon fill="#ffffff" stroke="#000000" points="1598.5,-155.5 1598.5,-174.5 1714.5,-174.5 1714.5,-155.5 1598.5,-155.5"/>
<text text-anchor="middle" x="1656.5" y="-162.5" font-family="Helvetica,sans-Serif" font-size="10.00" fill="#000000">ModelicaAllocateString</text>
</a>
</g>
</g>
<!-- Node2894&#45;&gt;Node2896 -->
<g id="edge15" class="edge">
<title>Node2894&#45;&gt;Node2896</title>
<path fill="none" stroke="#191970" d="M1531.6412,-193.411C1553.8771,-188.3513 1581.3482,-182.1004 1604.8564,-176.7512"/>
<polygon fill="#191970" stroke="#191970" points="1605.6877,-180.1516 1614.6619,-174.5201 1604.1345,-173.3261 1605.6877,-180.1516"/>
</g>
<!-- Node2897 -->
<g id="node17" class="node">
<title>Node2897</title>
<g id="a_node17"><a xlink:href="../../d6/d84/3rd_party_2open62541_2open62541_8h.html#aa383452fe445bfae989358c9d7d96f4f" target="_top" xlink:title="strlen">
<polygon fill="#ffffff" stroke="#000000" points="1636,-231.5 1636,-250.5 1677,-250.5 1677,-231.5 1636,-231.5"/>
<text text-anchor="middle" x="1656.5" y="-238.5" font-family="Helvetica,sans-Serif" font-size="10.00" fill="#000000">strlen</text>
</a>
</g>
</g>
<!-- Node2894&#45;&gt;Node2897 -->
<g id="edge16" class="edge">
<title>Node2894&#45;&gt;Node2897</title>
<path fill="none" stroke="#191970" d="M1531.6412,-212.589C1560.9852,-219.2661 1599.4462,-228.0177 1625.8852,-234.0338"/>
<polygon fill="#191970" stroke="#191970" points="1625.2017,-237.4676 1635.7291,-236.2737 1626.7549,-230.6421 1625.2017,-237.4676"/>
</g>
<!-- Node2899 -->
<g id="node19" class="node">
<title>Node2899</title>
<g id="a_node19"><a xlink:href="../../d8/d28/_compiler_2boot_2build_2system_8h.html#a967ce96198372dc665f235bb728adb6f" target="_top" xlink:title="System_os">
<polygon fill="#ffffff" stroke="#000000" points="1456.5,-155.5 1456.5,-174.5 1522.5,-174.5 1522.5,-155.5 1456.5,-155.5"/>
<text text-anchor="middle" x="1489.5" y="-162.5" font-family="Helvetica,sans-Serif" font-size="10.00" fill="#000000">System_os</text>
</a>
</g>
</g>
<!-- Node2898&#45;&gt;Node2899 -->
<g id="edge18" class="edge">
<title>Node2898&#45;&gt;Node2899</title>
<path fill="none" stroke="#191970" d="M1361.5021,-165C1387.6358,-165 1420.3924,-165 1446.2258,-165"/>
<polygon fill="#191970" stroke="#191970" points="1446.4739,-168.5001 1456.4739,-165 1446.4738,-161.5001 1446.4739,-168.5001"/>
</g>
<!-- Node2901 -->
<g id="node21" class="node">
<title>Node2901</title>
<g id="a_node21"><a xlink:href="../../d3/db3/_flags_8c.html#a1bdc57ee7db1a86ebd954e1aa4d04c0c" target="_top" xlink:title="omc_Flags_getConfigString">
<polygon fill="#ffffff" stroke="#000000" points="1248,-117.5 1248,-136.5 1385,-136.5 1385,-117.5 1248,-117.5"/>
<text text-anchor="middle" x="1316.5" y="-124.5" font-family="Helvetica,sans-Serif" font-size="10.00" fill="#000000">omc_Flags_getConfigString</text>
</a>
</g>
</g>
<!-- Node2900&#45;&gt;Node2901 -->
<g id="edge20" class="edge">
<title>Node2900&#45;&gt;Node2901</title>
<path fill="none" stroke="#191970" d="M1199.5898,-127C1212.1364,-127 1225.0642,-127 1237.5414,-127"/>
<polygon fill="#191970" stroke="#191970" points="1237.898,-130.5001 1247.898,-127 1237.8979,-123.5001 1237.898,-130.5001"/>
</g>
<!-- Node2902 -->
<g id="node22" class="node">
<title>Node2902</title>
<g id="a_node22"><a xlink:href="../../d3/db3/_flags_8c.html#a96ba70d54b6662cf90933a207c0c6b8e" target="_top" xlink:title="omc_Flags_getConfigValue">
<polygon fill="#ffffff" stroke="#000000" points="1421,-98.5 1421,-117.5 1558,-117.5 1558,-98.5 1421,-98.5"/>
<text text-anchor="middle" x="1489.5" y="-105.5" font-family="Helvetica,sans-Serif" font-size="10.00" fill="#000000">omc_Flags_getConfigValue</text>
</a>
</g>
</g>
<!-- Node2901&#45;&gt;Node2902 -->
<g id="edge21" class="edge">
<title>Node2901&#45;&gt;Node2902</title>
<path fill="none" stroke="#191970" d="M1385.3713,-119.4361C1393.7692,-118.5138 1402.3987,-117.566 1410.9246,-116.6297"/>
<polygon fill="#191970" stroke="#191970" points="1411.3076,-120.1087 1420.8657,-115.5379 1410.5433,-113.1506 1411.3076,-120.1087"/>
</g>
<!-- Node2903 -->
<g id="node23" class="node">
<title>Node2903</title>
<g id="a_node23"><a xlink:href="../../d3/db3/_flags_8c.html#a760d66f53b65ac257876ca0f6308f09f" target="_top" xlink:title="omc_Flags_loadFlags">
<polygon fill="#ffffff" stroke="#000000" points="1600.5,-98.5 1600.5,-117.5 1712.5,-117.5 1712.5,-98.5 1600.5,-98.5"/>
<text text-anchor="middle" x="1656.5" y="-105.5" font-family="Helvetica,sans-Serif" font-size="10.00" fill="#000000">omc_Flags_loadFlags</text>
</a>
</g>
</g>
<!-- Node2902&#45;&gt;Node2903 -->
<g id="edge22" class="edge">
<title>Node2902&#45;&gt;Node2903</title>
<path fill="none" stroke="#191970" d="M1558.3895,-108C1568.9016,-108 1579.7327,-108 1590.188,-108"/>
<polygon fill="#191970" stroke="#191970" points="1590.4923,-111.5001 1600.4922,-108 1590.4922,-104.5001 1590.4923,-111.5001"/>
</g>
<!-- Node2904 -->
<g id="node24" class="node">
<title>Node2904</title>
<g id="a_node24"><a xlink:href="../../da/d72/_compiler_2boot_2build_2list_8c.html#a3ec1ee3a5ff53be9af368e290be09182" target="_top" xlink:title="omc_List_fold">
<polygon fill="#ffffff" stroke="#000000" points="1755,-98.5 1755,-117.5 1832,-117.5 1832,-98.5 1755,-98.5"/>
<text text-anchor="middle" x="1793.5" y="-105.5" font-family="Helvetica,sans-Serif" font-size="10.00" fill="#000000">omc_List_fold</text>
</a>
</g>
</g>
<!-- Node2903&#45;&gt;Node2904 -->
<g id="edge23" class="edge">
<title>Node2903&#45;&gt;Node2904</title>
<path fill="none" stroke="#191970" d="M1712.6184,-108C1723.2594,-108 1734.3126,-108 1744.7046,-108"/>
<polygon fill="#191970" stroke="#191970" points="1744.8364,-111.5001 1754.8363,-108 1744.8363,-104.5001 1744.8364,-111.5001"/>
</g>
<!-- Node2906 -->
<g id="node26" class="node">
<title>Node2906</title>
<g id="a_node26"><a xlink:href="../../d3/db3/_flags_8c.html#abc3d84cf6e1cf18f0cec0f052e7c85d9" target="_top" xlink:title="omc_Flags_getConfigBool">
<polygon fill="#ffffff" stroke="#000000" points="1251,-79.5 1251,-98.5 1382,-98.5 1382,-79.5 1251,-79.5"/>
<text text-anchor="middle" x="1316.5" y="-86.5" font-family="Helvetica,sans-Serif" font-size="10.00" fill="#000000">omc_Flags_getConfigBool</text>
</a>
</g>
</g>
<!-- Node2905&#45;&gt;Node2906 -->
<g id="edge25" class="edge">
<title>Node2905&#45;&gt;Node2906</title>
<path fill="none" stroke="#191970" d="M1212.0463,-89C1221.6938,-89 1231.4037,-89 1240.8118,-89"/>
<polygon fill="#191970" stroke="#191970" points="1240.885,-92.5001 1250.8849,-89 1240.8849,-85.5001 1240.885,-92.5001"/>
</g>
<!-- Node2906&#45;&gt;Node2902 -->
<g id="edge26" class="edge">
<title>Node2906&#45;&gt;Node2902</title>
<path fill="none" stroke="#191970" d="M1382.3974,-96.2373C1391.6537,-97.2539 1401.2443,-98.3072 1410.7107,-99.3468"/>
<polygon fill="#191970" stroke="#191970" points="1410.5899,-102.8545 1420.9123,-100.4672 1411.3542,-95.8964 1410.5899,-102.8545"/>
</g>
</g>
</svg>
