<?xml version="1.0" encoding="UTF-8" standalone="no"?>
<!DOCTYPE svg PUBLIC "-//W3C//DTD SVG 1.1//EN"
 "http://www.w3.org/Graphics/SVG/1.1/DTD/svg11.dtd">
<!-- Generated by graphviz version 2.40.1 (20161225.0304)
 -->
<!-- Title: boxptr_CodegenCppHpcom_generateThreadHeaderDecl Pages: 1 -->
<svg width="491pt" height="39pt"
 viewBox="0.00 0.00 491.00 39.00" xmlns="http://www.w3.org/2000/svg" xmlns:xlink="http://www.w3.org/1999/xlink">
<g id="graph0" class="graph" transform="scale(1 1) rotate(0) translate(4 35)">
<title>boxptr_CodegenCppHpcom_generateThreadHeaderDecl</title>
<polygon fill="#ffffff" stroke="transparent" points="-4,4 -4,-35 487,-35 487,4 -4,4"/>
<!-- Node1257 -->
<g id="node1" class="node">
<title>Node1257</title>
<polygon fill="#bfbfbf" stroke="#000000" points="0,-.5 0,-30.5 141,-30.5 141,-.5 0,-.5"/>
<text text-anchor="start" x="8" y="-18.5" font-family="Helvetica,sans-Serif" font-size="10.00" fill="#000000">boxptr_CodegenCppHpcom</text>
<text text-anchor="middle" x="70.5" y="-7.5" font-family="Helvetica,sans-Serif" font-size="10.00" fill="#000000">_generateThreadHeaderDecl</text>
</g>
<!-- Node1258 -->
<g id="node2" class="node">
<title>Node1258</title>
<g id="a_node2"><a xlink:href="../../df/ddf/_codegen_cpp_hpcom_8c.html#a45c5da22e9c1a14f4db29a7cbd03b66c" target="_top" xlink:title="omc_CodegenCppHpcom\l_generateThreadHeaderDecl">
<polygon fill="#ffffff" stroke="#000000" points="177,-.5 177,-30.5 318,-30.5 318,-.5 177,-.5"/>
<text text-anchor="start" x="185" y="-18.5" font-family="Helvetica,sans-Serif" font-size="10.00" fill="#000000">omc_CodegenCppHpcom</text>
<text text-anchor="middle" x="247.5" y="-7.5" font-family="Helvetica,sans-Serif" font-size="10.00" fill="#000000">_generateThreadHeaderDecl</text>
</a>
</g>
</g>
<!-- Node1257&#45;&gt;Node1258 -->
<g id="edge1" class="edge">
<title>Node1257&#45;&gt;Node1258</title>
<path fill="none" stroke="#191970" d="M141.2182,-15.5C149.57,-15.5 158.1422,-15.5 166.6204,-15.5"/>
<polygon fill="#191970" stroke="#191970" points="166.8942,-19.0001 176.8942,-15.5 166.8942,-12.0001 166.8942,-19.0001"/>
</g>
<!-- Node1259 -->
<g id="node3" class="node">
<title>Node1259</title>
<g id="a_node3"><a xlink:href="../../df/ddf/_codegen_cpp_hpcom_8c.html#aff033d211d68ad6be806384f0673143b" target="_top" xlink:title="omc_CodegenCppHpcom\l_fun__88">
<polygon fill="#ffffff" stroke="#000000" points="354,-.5 354,-30.5 483,-30.5 483,-.5 354,-.5"/>
<text text-anchor="start" x="362" y="-18.5" font-family="Helvetica,sans-Serif" font-size="10.00" fill="#000000">omc_CodegenCppHpcom</text>
<text text-anchor="middle" x="418.5" y="-7.5" font-family="Helvetica,sans-Serif" font-size="10.00" fill="#000000">_fun__88</text>
</a>
</g>
</g>
<!-- Node1258&#45;&gt;Node1259 -->
<g id="edge2" class="edge">
<title>Node1258&#45;&gt;Node1259</title>
<path fill="none" stroke="#191970" d="M318.0395,-15.5C326.4769,-15.5 335.1149,-15.5 343.6109,-15.5"/>
<polygon fill="#191970" stroke="#191970" points="343.8808,-19.0001 353.8808,-15.5 343.8808,-12.0001 343.8808,-19.0001"/>
</g>
</g>
</svg>
