<?xml version="1.0" encoding="UTF-8" standalone="no"?>
<!DOCTYPE svg PUBLIC "-//W3C//DTD SVG 1.1//EN"
 "http://www.w3.org/Graphics/SVG/1.1/DTD/svg11.dtd">
<!-- Generated by graphviz version 2.40.1 (20161225.0304)
 -->
<!-- Title: omc_CodegenCppHpcom_destroyArrayLocks Pages: 1 -->
<svg width="486pt" height="94pt"
 viewBox="0.00 0.00 486.00 93.50" xmlns="http://www.w3.org/2000/svg" xmlns:xlink="http://www.w3.org/1999/xlink">
<g id="graph0" class="graph" transform="scale(1 1) rotate(0) translate(4 89.5)">
<title>omc_CodegenCppHpcom_destroyArrayLocks</title>
<polygon fill="#ffffff" stroke="transparent" points="-4,4 -4,-89.5 482,-89.5 482,4 -4,4"/>
<!-- Node2833 -->
<g id="node1" class="node">
<title>Node2833</title>
<polygon fill="#bfbfbf" stroke="#000000" points="0,-24.5 0,-54.5 129,-54.5 129,-24.5 0,-24.5"/>
<text text-anchor="start" x="8" y="-42.5" font-family="Helvetica,sans-Serif" font-size="10.00" fill="#000000">omc_CodegenCppHpcom</text>
<text text-anchor="middle" x="64.5" y="-31.5" font-family="Helvetica,sans-Serif" font-size="10.00" fill="#000000">_destroyArrayLocks</text>
</g>
<!-- Node2834 -->
<g id="node2" class="node">
<title>Node2834</title>
<g id="a_node2"><a xlink:href="../../df/ddf/_codegen_cpp_hpcom_8c.html#a65b28257fbad135171ff2d077e74d1f3" target="_top" xlink:title="omc_CodegenCppHpcom\l_fun__139">
<polygon fill="#ffffff" stroke="#000000" points="169,-49.5 169,-79.5 298,-79.5 298,-49.5 169,-49.5"/>
<text text-anchor="start" x="177" y="-67.5" font-family="Helvetica,sans-Serif" font-size="10.00" fill="#000000">omc_CodegenCppHpcom</text>
<text text-anchor="middle" x="233.5" y="-56.5" font-family="Helvetica,sans-Serif" font-size="10.00" fill="#000000">_fun__139</text>
</a>
</g>
</g>
<!-- Node2833&#45;&gt;Node2834 -->
<g id="edge1" class="edge">
<title>Node2833&#45;&gt;Node2834</title>
<path fill="none" stroke="#191970" d="M139.471,-50.5904C149.2584,-52.0382 159.2185,-53.5116 168.8171,-54.9315"/>
<polygon fill="#191970" stroke="#191970" points="139.761,-47.0953 129.3565,-49.0942 138.7366,-54.0199 139.761,-47.0953"/>
</g>
<!-- Node2836 -->
<g id="node4" class="node">
<title>Node2836</title>
<g id="a_node4"><a xlink:href="../../d0/d7b/_codegen_cpp_hpcom_8h.html#a6e170835abc5fa36265a016847454509" target="_top" xlink:title="boxptr_CodegenCppHpcom\l_destroyArrayLocks">
<polygon fill="#ffffff" stroke="#000000" points="165,-.5 165,-30.5 302,-30.5 302,-.5 165,-.5"/>
<text text-anchor="start" x="173" y="-18.5" font-family="Helvetica,sans-Serif" font-size="10.00" fill="#000000">boxptr_CodegenCppHpcom</text>
<text text-anchor="middle" x="233.5" y="-7.5" font-family="Helvetica,sans-Serif" font-size="10.00" fill="#000000">_destroyArrayLocks</text>
</a>
</g>
</g>
<!-- Node2833&#45;&gt;Node2836 -->
<g id="edge3" class="edge">
<title>Node2833&#45;&gt;Node2836</title>
<path fill="none" stroke="#191970" d="M139.2776,-28.8807C147.7992,-27.6705 156.4546,-26.4414 164.8907,-25.2433"/>
<polygon fill="#191970" stroke="#191970" points="138.765,-25.4183 129.3565,-30.2896 139.7493,-32.3487 138.765,-25.4183"/>
</g>
<!-- Node2835 -->
<g id="node3" class="node">
<title>Node2835</title>
<g id="a_node3"><a xlink:href="../../d0/d7b/_codegen_cpp_hpcom_8h.html#ae424275f1e4221d11a1587d82c7a7f7b" target="_top" xlink:title="omc_CodegenCppHpcom\l_additionalHpcomDestructor\lBodyStatements">
<polygon fill="#ffffff" stroke="#000000" points="338,-44 338,-85 478,-85 478,-44 338,-44"/>
<text text-anchor="start" x="346" y="-73" font-family="Helvetica,sans-Serif" font-size="10.00" fill="#000000">omc_CodegenCppHpcom</text>
<text text-anchor="start" x="346" y="-62" font-family="Helvetica,sans-Serif" font-size="10.00" fill="#000000">_additionalHpcomDestructor</text>
<text text-anchor="middle" x="408" y="-51" font-family="Helvetica,sans-Serif" font-size="10.00" fill="#000000">BodyStatements</text>
</a>
</g>
</g>
<!-- Node2834&#45;&gt;Node2835 -->
<g id="edge2" class="edge">
<title>Node2834&#45;&gt;Node2835</title>
<path fill="none" stroke="#191970" d="M308.5627,-64.5C318.3329,-64.5 328.3112,-64.5 337.9943,-64.5"/>
<polygon fill="#191970" stroke="#191970" points="308.4774,-61.0001 298.4774,-64.5 308.4773,-68.0001 308.4774,-61.0001"/>
</g>
</g>
</svg>
