<?xml version="1.0" encoding="UTF-8" standalone="no"?>
<!DOCTYPE svg PUBLIC "-//W3C//DTD SVG 1.1//EN"
 "http://www.w3.org/Graphics/SVG/1.1/DTD/svg11.dtd">
<!-- Generated by graphviz version 2.40.1 (20161225.0304)
 -->
<!-- Title: boxptr_CodegenCppHpcom_generateParallelEvaluate Pages: 1 -->
<svg width="1542pt" height="615pt"
 viewBox="0.00 0.00 1542.00 615.23" xmlns="http://www.w3.org/2000/svg" xmlns:xlink="http://www.w3.org/1999/xlink">
<g id="graph0" class="graph" transform="scale(1 1) rotate(0) translate(4 611.2256)">
<title>boxptr_CodegenCppHpcom_generateParallelEvaluate</title>
<polygon fill="#ffffff" stroke="transparent" points="-4,4 -4,-611.2256 1538,-611.2256 1538,4 -4,4"/>
<!-- Node1106 -->
<g id="node1" class="node">
<title>Node1106</title>
<polygon fill="#bfbfbf" stroke="#000000" points="0,-259.5344 0,-289.5344 137,-289.5344 137,-259.5344 0,-259.5344"/>
<text text-anchor="start" x="8" y="-277.5344" font-family="Helvetica,sans-Serif" font-size="10.00" fill="#000000">boxptr_CodegenCppHpcom</text>
<text text-anchor="middle" x="68.5" y="-266.5344" font-family="Helvetica,sans-Serif" font-size="10.00" fill="#000000">_generateParallelEvaluate</text>
</g>
<!-- Node1107 -->
<g id="node2" class="node">
<title>Node1107</title>
<g id="a_node2"><a xlink:href="../../df/ddf/_codegen_cpp_hpcom_8c.html#a1162e312f31a3c3590857ee8c1d6050d" target="_top" xlink:title="omc_CodegenCppHpcom\l_generateParallelEvaluate">
<polygon fill="#ffffff" stroke="#000000" points="173,-259.5344 173,-289.5344 303,-289.5344 303,-259.5344 173,-259.5344"/>
<text text-anchor="start" x="181" y="-277.5344" font-family="Helvetica,sans-Serif" font-size="10.00" fill="#000000">omc_CodegenCppHpcom</text>
<text text-anchor="middle" x="238" y="-266.5344" font-family="Helvetica,sans-Serif" font-size="10.00" fill="#000000">_generateParallelEvaluate</text>
</a>
</g>
</g>
<!-- Node1106&#45;&gt;Node1107 -->
<g id="edge1" class="edge">
<title>Node1106&#45;&gt;Node1107</title>
<path fill="none" stroke="#191970" d="M137.4421,-274.5344C145.7827,-274.5344 154.335,-274.5344 162.7603,-274.5344"/>
<polygon fill="#191970" stroke="#191970" points="162.9517,-278.0345 172.9516,-274.5344 162.9516,-271.0345 162.9517,-278.0345"/>
</g>
<!-- Node1108 -->
<g id="node3" class="node">
<title>Node1108</title>
<g id="a_node3"><a xlink:href="../../df/ddf/_codegen_cpp_hpcom_8c.html#aebdfa20df3af4588cd9c4d2fc3b82d01" target="_top" xlink:title="omc_CodegenCppHpcom\l_fun__178">
<polygon fill="#ffffff" stroke="#000000" points="339,-259.5344 339,-289.5344 468,-289.5344 468,-259.5344 339,-259.5344"/>
<text text-anchor="start" x="347" y="-277.5344" font-family="Helvetica,sans-Serif" font-size="10.00" fill="#000000">omc_CodegenCppHpcom</text>
<text text-anchor="middle" x="403.5" y="-266.5344" font-family="Helvetica,sans-Serif" font-size="10.00" fill="#000000">_fun__178</text>
</a>
</g>
</g>
<!-- Node1107&#45;&gt;Node1108 -->
<g id="edge2" class="edge">
<title>Node1107&#45;&gt;Node1108</title>
<path fill="none" stroke="#191970" d="M303.41,-274.5344C311.6962,-274.5344 320.2253,-274.5344 328.6445,-274.5344"/>
<polygon fill="#191970" stroke="#191970" points="328.8357,-278.0345 338.8357,-274.5344 328.8356,-271.0345 328.8357,-278.0345"/>
</g>
<!-- Node1109 -->
<g id="node4" class="node">
<title>Node1109</title>
<g id="a_node4"><a xlink:href="../../d3/db3/_flags_8c.html#a1bdc57ee7db1a86ebd954e1aa4d04c0c" target="_top" xlink:title="omc_Flags_getConfigString">
<polygon fill="#ffffff" stroke="#000000" points="883,-484.0344 883,-503.0344 1020,-503.0344 1020,-484.0344 883,-484.0344"/>
<text text-anchor="middle" x="951.5" y="-491.0344" font-family="Helvetica,sans-Serif" font-size="10.00" fill="#000000">omc_Flags_getConfigString</text>
</a>
</g>
</g>
<!-- Node1108&#45;&gt;Node1109 -->
<g id="edge3" class="edge">
<title>Node1108&#45;&gt;Node1109</title>
<path fill="none" stroke="#191970" d="M404.2337,-289.6342C407.3177,-334.3354 423.1924,-466.2562 504,-520.5344 636.0151,-609.2084 842.371,-539.1321 920.2985,-507.2293"/>
<polygon fill="#191970" stroke="#191970" points="922.1191,-510.2621 929.9998,-503.1808 919.4232,-503.802 922.1191,-510.2621"/>
</g>
<!-- Node1113 -->
<g id="node8" class="node">
<title>Node1113</title>
<g id="a_node8"><a xlink:href="../../df/ddf/_codegen_cpp_hpcom_8c.html#aca1370a7caaf82476f3807e273e5865f" target="_top" xlink:title="omc_CodegenCppHpcom\l_fun__145">
<polygon fill="#ffffff" stroke="#000000" points="504,-235.5344 504,-265.5344 633,-265.5344 633,-235.5344 504,-235.5344"/>
<text text-anchor="start" x="512" y="-253.5344" font-family="Helvetica,sans-Serif" font-size="10.00" fill="#000000">omc_CodegenCppHpcom</text>
<text text-anchor="middle" x="568.5" y="-242.5344" font-family="Helvetica,sans-Serif" font-size="10.00" fill="#000000">_fun__145</text>
</a>
</g>
</g>
<!-- Node1108&#45;&gt;Node1113 -->
<g id="edge7" class="edge">
<title>Node1108&#45;&gt;Node1113</title>
<path fill="none" stroke="#191970" d="M468.2388,-265.1178C476.6748,-263.8908 485.3708,-262.6259 493.9511,-261.3779"/>
<polygon fill="#191970" stroke="#191970" points="494.5558,-264.8268 503.9479,-259.9238 493.5482,-257.8997 494.5558,-264.8268"/>
</g>
<!-- Node1117 -->
<g id="node12" class="node">
<title>Node1117</title>
<g id="a_node12"><a xlink:href="../../d7/d52/_tpl_8c.html#a1038a57834f028b49f38adc4d5fcd049" target="_top" xlink:title="omc_Tpl_writeTok">
<polygon fill="#ffffff" stroke="#000000" points="1243.5,-416.0344 1243.5,-435.0344 1340.5,-435.0344 1340.5,-416.0344 1243.5,-416.0344"/>
<text text-anchor="middle" x="1292" y="-423.0344" font-family="Helvetica,sans-Serif" font-size="10.00" fill="#000000">omc_Tpl_writeTok</text>
</a>
</g>
</g>
<!-- Node1108&#45;&gt;Node1117 -->
<g id="edge46" class="edge">
<title>Node1108&#45;&gt;Node1117</title>
<path fill="none" stroke="#191970" d="M406.7853,-289.5567C418.6543,-342.4393 460.8925,-518.73 504,-554.5344 591.965,-627.5967 643.6499,-595.5344 758,-595.5344 758,-595.5344 758,-595.5344 951.5,-595.5344 1059.165,-595.5344 1100.3514,-631.3795 1193,-576.5344 1219.2597,-560.9895 1262.8389,-481.7503 1282.2049,-444.6907"/>
<polygon fill="#191970" stroke="#191970" points="1285.5022,-445.9343 1286.9905,-435.4445 1279.2855,-442.7166 1285.5022,-445.9343"/>
</g>
<!-- Node1118 -->
<g id="node13" class="node">
<title>Node1118</title>
<g id="a_node13"><a xlink:href="../../d7/d52/_tpl_8c.html#ada57037d1430be632aea182a946c3245" target="_top" xlink:title="omc_Tpl_writeStr">
<polygon fill="#ffffff" stroke="#000000" points="1245.5,-162.0344 1245.5,-181.0344 1338.5,-181.0344 1338.5,-162.0344 1245.5,-162.0344"/>
<text text-anchor="middle" x="1292" y="-169.0344" font-family="Helvetica,sans-Serif" font-size="10.00" fill="#000000">omc_Tpl_writeStr</text>
</a>
</g>
</g>
<!-- Node1108&#45;&gt;Node1118 -->
<g id="edge45" class="edge">
<title>Node1108&#45;&gt;Node1118</title>
<path fill="none" stroke="#191970" d="M404.6364,-259.5049C408.798,-216.2006 427.2714,-90.7417 504,-35.5344 595.8903,30.582 644.7957,-16.5344 758,-16.5344 758,-16.5344 758,-16.5344 951.5,-16.5344 1059.2778,-16.5344 1104.1535,22.4766 1193,-38.5344 1222.821,-59.0125 1207.5718,-82.3887 1229,-111.5344 1241.2992,-128.2632 1258.5558,-144.327 1271.8991,-155.6162"/>
<polygon fill="#191970" stroke="#191970" points="1269.6821,-158.3246 1279.6221,-161.9915 1274.1384,-152.9262 1269.6821,-158.3246"/>
</g>
<!-- Node1119 -->
<g id="node14" class="node">
<title>Node1119</title>
<g id="a_node14"><a xlink:href="../../d7/d52/_tpl_8c.html#a4af96d109f0c655c66046cf20edcebcd" target="_top" xlink:title="omc_Tpl_softNewLine">
<polygon fill="#ffffff" stroke="#000000" points="1067.5,-83.0344 1067.5,-102.0344 1181.5,-102.0344 1181.5,-83.0344 1067.5,-83.0344"/>
<text text-anchor="middle" x="1124.5" y="-90.0344" font-family="Helvetica,sans-Serif" font-size="10.00" fill="#000000">omc_Tpl_softNewLine</text>
</a>
</g>
</g>
<!-- Node1108&#45;&gt;Node1119 -->
<g id="edge48" class="edge">
<title>Node1108&#45;&gt;Node1119</title>
<path fill="none" stroke="#191970" d="M414.5577,-259.5085C431.2839,-238.0305 465.2118,-199.101 504,-180.5344 600.8211,-134.1893 917.0047,-107.0082 1056.8858,-96.9814"/>
<polygon fill="#191970" stroke="#191970" points="1057.3225,-100.4593 1067.05,-96.2609 1056.8275,-93.4769 1057.3225,-100.4593"/>
</g>
<!-- Node1122 -->
<g id="node17" class="node">
<title>Node1122</title>
<g id="a_node17"><a xlink:href="../../d7/d52/_tpl_8c.html#a99d6bda0846441f21c5081261888085a" target="_top" xlink:title="omc_Tpl_pushBlock">
<polygon fill="#ffffff" stroke="#000000" points="1072,-334.0344 1072,-353.0344 1177,-353.0344 1177,-334.0344 1072,-334.0344"/>
<text text-anchor="middle" x="1124.5" y="-341.0344" font-family="Helvetica,sans-Serif" font-size="10.00" fill="#000000">omc_Tpl_pushBlock</text>
</a>
</g>
</g>
<!-- Node1108&#45;&gt;Node1122 -->
<g id="edge51" class="edge">
<title>Node1108&#45;&gt;Node1122</title>
<path fill="none" stroke="#191970" d="M426.7248,-259.4184C446.3962,-247.5708 475.818,-232.0387 504,-225.5344 559.8648,-212.641 576.0294,-219.0954 633,-225.5344 805.2292,-245.0003 1004.2685,-304.6698 1086.227,-330.919"/>
<polygon fill="#191970" stroke="#191970" points="1085.2692,-334.2875 1095.8607,-334.0237 1087.4164,-327.625 1085.2692,-334.2875"/>
</g>
<!-- Node1123 -->
<g id="node18" class="node">
<title>Node1123</title>
<g id="a_node18"><a xlink:href="../../d7/d52/_tpl_8c.html#a6cf6c8514535aa47abb9ff6badd4f6a5" target="_top" xlink:title="omc_Tpl_popBlock">
<polygon fill="#ffffff" stroke="#000000" points="1074.5,-159.0344 1074.5,-178.0344 1174.5,-178.0344 1174.5,-159.0344 1074.5,-159.0344"/>
<text text-anchor="middle" x="1124.5" y="-166.0344" font-family="Helvetica,sans-Serif" font-size="10.00" fill="#000000">omc_Tpl_popBlock</text>
</a>
</g>
</g>
<!-- Node1108&#45;&gt;Node1123 -->
<g id="edge52" class="edge">
<title>Node1108&#45;&gt;Node1123</title>
<path fill="none" stroke="#191970" d="M422.5827,-259.4134C441.8846,-245.0584 473.1919,-224.2711 504,-214.5344 701.5158,-152.1108 951.2946,-157.3959 1064.2095,-163.9786"/>
<polygon fill="#191970" stroke="#191970" points="1064.1847,-167.4835 1074.3787,-164.5969 1064.6096,-160.4964 1064.1847,-167.4835"/>
</g>
<!-- Node1125 -->
<g id="node20" class="node">
<title>Node1125</title>
<g id="a_node20"><a xlink:href="../../df/ddf/_codegen_cpp_hpcom_8c.html#a1bb12bdf0aa7ee6c64b1d649866e4dd3" target="_top" xlink:title="omc_CodegenCppHpcom\l_fun__146">
<polygon fill="#ffffff" stroke="#000000" points="504,-431.5344 504,-461.5344 633,-461.5344 633,-431.5344 504,-431.5344"/>
<text text-anchor="start" x="512" y="-449.5344" font-family="Helvetica,sans-Serif" font-size="10.00" fill="#000000">omc_CodegenCppHpcom</text>
<text text-anchor="middle" x="568.5" y="-438.5344" font-family="Helvetica,sans-Serif" font-size="10.00" fill="#000000">_fun__146</text>
</a>
</g>
</g>
<!-- Node1108&#45;&gt;Node1125 -->
<g id="edge23" class="edge">
<title>Node1108&#45;&gt;Node1125</title>
<path fill="none" stroke="#191970" d="M409.9874,-289.8279C423.3228,-319.5263 456.5945,-385.3428 504,-422.5344 505.7567,-423.9126 507.6006,-425.2174 509.5096,-426.4523"/>
<polygon fill="#191970" stroke="#191970" points="507.8087,-429.5114 518.2285,-431.4291 511.2788,-423.4321 507.8087,-429.5114"/>
</g>
<!-- Node1130 -->
<g id="node25" class="node">
<title>Node1130</title>
<g id="a_node25"><a xlink:href="../../df/ddf/_codegen_cpp_hpcom_8c.html#ae7c43fdd2dfff8d2af66a0a6c76c41f0" target="_top" xlink:title="omc_CodegenCppHpcom\l_fun__147">
<polygon fill="#ffffff" stroke="#000000" points="504,-333.5344 504,-363.5344 633,-363.5344 633,-333.5344 504,-333.5344"/>
<text text-anchor="start" x="512" y="-351.5344" font-family="Helvetica,sans-Serif" font-size="10.00" fill="#000000">omc_CodegenCppHpcom</text>
<text text-anchor="middle" x="568.5" y="-340.5344" font-family="Helvetica,sans-Serif" font-size="10.00" fill="#000000">_fun__147</text>
</a>
</g>
</g>
<!-- Node1108&#45;&gt;Node1130 -->
<g id="edge37" class="edge">
<title>Node1108&#45;&gt;Node1130</title>
<path fill="none" stroke="#191970" d="M431.7136,-289.57C451.6523,-299.948 479.1453,-313.7631 504,-324.5344 508.0562,-326.2922 512.2873,-328.0433 516.558,-329.7528"/>
<polygon fill="#191970" stroke="#191970" points="515.3301,-333.0307 525.918,-333.4154 517.8809,-326.512 515.3301,-333.0307"/>
</g>
<!-- Node1131 -->
<g id="node26" class="node">
<title>Node1131</title>
<g id="a_node26"><a xlink:href="../../df/ddf/_codegen_cpp_hpcom_8c.html#ad8d8460896fc53bcbceb5b73cfa0ce1d" target="_top" xlink:title="omc_CodegenCppHpcom\l_fun__148">
<polygon fill="#ffffff" stroke="#000000" points="504,-382.5344 504,-412.5344 633,-412.5344 633,-382.5344 504,-382.5344"/>
<text text-anchor="start" x="512" y="-400.5344" font-family="Helvetica,sans-Serif" font-size="10.00" fill="#000000">omc_CodegenCppHpcom</text>
<text text-anchor="middle" x="568.5" y="-389.5344" font-family="Helvetica,sans-Serif" font-size="10.00" fill="#000000">_fun__148</text>
</a>
</g>
</g>
<!-- Node1108&#45;&gt;Node1131 -->
<g id="edge39" class="edge">
<title>Node1108&#45;&gt;Node1131</title>
<path fill="none" stroke="#191970" d="M415.2707,-289.6247C432.6199,-310.9667 467.0214,-349.9859 504,-373.5344 506.4565,-375.0987 509.03,-376.5827 511.6759,-377.9876"/>
<polygon fill="#191970" stroke="#191970" points="510.3617,-381.2402 520.8861,-382.4604 513.4197,-374.9435 510.3617,-381.2402"/>
</g>
<!-- Node1132 -->
<g id="node27" class="node">
<title>Node1132</title>
<g id="a_node27"><a xlink:href="../../df/ddf/_codegen_cpp_hpcom_8c.html#aac2d6f8086e4eae7ae6053ed32dd4524" target="_top" xlink:title="omc_CodegenCppHpcom\l_fun__149">
<polygon fill="#ffffff" stroke="#000000" points="504,-284.5344 504,-314.5344 633,-314.5344 633,-284.5344 504,-284.5344"/>
<text text-anchor="start" x="512" y="-302.5344" font-family="Helvetica,sans-Serif" font-size="10.00" fill="#000000">omc_CodegenCppHpcom</text>
<text text-anchor="middle" x="568.5" y="-291.5344" font-family="Helvetica,sans-Serif" font-size="10.00" fill="#000000">_fun__149</text>
</a>
</g>
</g>
<!-- Node1108&#45;&gt;Node1132 -->
<g id="edge41" class="edge">
<title>Node1108&#45;&gt;Node1132</title>
<path fill="none" stroke="#191970" d="M468.2388,-284.3433C476.6748,-285.6215 485.3708,-286.9391 493.9511,-288.2391"/>
<polygon fill="#191970" stroke="#191970" points="493.5364,-291.7161 503.9479,-289.7538 494.5851,-284.7951 493.5364,-291.7161"/>
</g>
<!-- Node1133 -->
<g id="node28" class="node">
<title>Node1133</title>
<g id="a_node28"><a xlink:href="../../df/ddf/_codegen_cpp_hpcom_8c.html#a0876e73efd9a616a9055c6d6cf6acce3" target="_top" xlink:title="omc_CodegenCppHpcom\l_fun__150">
<polygon fill="#ffffff" stroke="#000000" points="504,-480.5344 504,-510.5344 633,-510.5344 633,-480.5344 504,-480.5344"/>
<text text-anchor="start" x="512" y="-498.5344" font-family="Helvetica,sans-Serif" font-size="10.00" fill="#000000">omc_CodegenCppHpcom</text>
<text text-anchor="middle" x="568.5" y="-487.5344" font-family="Helvetica,sans-Serif" font-size="10.00" fill="#000000">_fun__150</text>
</a>
</g>
</g>
<!-- Node1108&#45;&gt;Node1133 -->
<g id="edge43" class="edge">
<title>Node1108&#45;&gt;Node1133</title>
<path fill="none" stroke="#191970" d="M407.1552,-289.7037C416.7062,-326.196 445.7974,-419.6948 504,-471.5344 505.3188,-472.709 506.7003,-473.828 508.133,-474.8939"/>
<polygon fill="#191970" stroke="#191970" points="506.5032,-478.0057 516.8158,-480.435 510.2689,-472.1049 506.5032,-478.0057"/>
</g>
<!-- Node1134 -->
<g id="node29" class="node">
<title>Node1134</title>
<g id="a_node29"><a xlink:href="../../d7/d52/_tpl_8c.html#a7e5a397e973cf3de37af50d58cbb789f" target="_top" xlink:title="omc_Tpl_writeText">
<polygon fill="#ffffff" stroke="#000000" points="518.5,-45.0344 518.5,-64.0344 618.5,-64.0344 618.5,-45.0344 518.5,-45.0344"/>
<text text-anchor="middle" x="568.5" y="-52.0344" font-family="Helvetica,sans-Serif" font-size="10.00" fill="#000000">omc_Tpl_writeText</text>
</a>
</g>
</g>
<!-- Node1108&#45;&gt;Node1134 -->
<g id="edge47" class="edge">
<title>Node1108&#45;&gt;Node1134</title>
<path fill="none" stroke="#191970" d="M407.1785,-259.4414C416.7811,-223.1327 445.9785,-130.1055 504,-78.5344 508.5196,-74.5173 513.773,-71.1505 519.2935,-68.3339"/>
<polygon fill="#191970" stroke="#191970" points="521.0588,-71.3783 528.7537,-64.0955 518.1967,-64.9901 521.0588,-71.3783"/>
</g>
<!-- Node1135 -->
<g id="node30" class="node">
<title>Node1135</title>
<g id="a_node30"><a xlink:href="../../d0/df9/_codegen_cpp_8c.html#accd603d6a498dd3bc8bfcf15622607e9" target="_top" xlink:title="omc_CodegenCpp_lastIdent\lOfPath">
<polygon fill="#ffffff" stroke="#000000" points="688,-58.5344 688,-88.5344 828,-88.5344 828,-58.5344 688,-58.5344"/>
<text text-anchor="start" x="696" y="-76.5344" font-family="Helvetica,sans-Serif" font-size="10.00" fill="#000000">omc_CodegenCpp_lastIdent</text>
<text text-anchor="middle" x="758" y="-65.5344" font-family="Helvetica,sans-Serif" font-size="10.00" fill="#000000">OfPath</text>
</a>
</g>
</g>
<!-- Node1108&#45;&gt;Node1135 -->
<g id="edge49" class="edge">
<title>Node1108&#45;&gt;Node1135</title>
<path fill="none" stroke="#191970" d="M408.3801,-259.3603C419.5793,-227.1809 450.3701,-152.1317 504,-116.5344 555.1101,-82.6096 624.3663,-72.6937 677.6521,-70.7982"/>
<polygon fill="#191970" stroke="#191970" points="677.8441,-74.2944 687.7466,-70.5273 677.6563,-67.2969 677.8441,-74.2944"/>
</g>
<!-- Node1110 -->
<g id="node5" class="node">
<title>Node1110</title>
<g id="a_node5"><a xlink:href="../../d3/db3/_flags_8c.html#a96ba70d54b6662cf90933a207c0c6b8e" target="_top" xlink:title="omc_Flags_getConfigValue">
<polygon fill="#ffffff" stroke="#000000" points="1056,-548.0344 1056,-567.0344 1193,-567.0344 1193,-548.0344 1056,-548.0344"/>
<text text-anchor="middle" x="1124.5" y="-555.0344" font-family="Helvetica,sans-Serif" font-size="10.00" fill="#000000">omc_Flags_getConfigValue</text>
</a>
</g>
</g>
<!-- Node1109&#45;&gt;Node1110 -->
<g id="edge4" class="edge">
<title>Node1109&#45;&gt;Node1110</title>
<path fill="none" stroke="#191970" d="M971.5991,-503.1618C992.4047,-512.8957 1026.0034,-527.9708 1056,-538.5344 1062.5697,-540.848 1069.5719,-543.0649 1076.4967,-545.1153"/>
<polygon fill="#191970" stroke="#191970" points="1075.9501,-548.5996 1086.5275,-547.9922 1077.8799,-541.8708 1075.9501,-548.5996"/>
</g>
<!-- Node1111 -->
<g id="node6" class="node">
<title>Node1111</title>
<g id="a_node6"><a xlink:href="../../d3/db3/_flags_8c.html#a760d66f53b65ac257876ca0f6308f09f" target="_top" xlink:title="omc_Flags_loadFlags">
<polygon fill="#ffffff" stroke="#000000" points="1236,-548.0344 1236,-567.0344 1348,-567.0344 1348,-548.0344 1236,-548.0344"/>
<text text-anchor="middle" x="1292" y="-555.0344" font-family="Helvetica,sans-Serif" font-size="10.00" fill="#000000">omc_Flags_loadFlags</text>
</a>
</g>
</g>
<!-- Node1110&#45;&gt;Node1111 -->
<g id="edge5" class="edge">
<title>Node1110&#45;&gt;Node1111</title>
<path fill="none" stroke="#191970" d="M1193.112,-557.5344C1203.8611,-557.5344 1214.9543,-557.5344 1225.6514,-557.5344"/>
<polygon fill="#191970" stroke="#191970" points="1225.7617,-561.0345 1235.7617,-557.5344 1225.7617,-554.0345 1225.7617,-561.0345"/>
</g>
<!-- Node1112 -->
<g id="node7" class="node">
<title>Node1112</title>
<g id="a_node7"><a xlink:href="../../da/d72/_compiler_2boot_2build_2list_8c.html#a3ec1ee3a5ff53be9af368e290be09182" target="_top" xlink:title="omc_List_fold">
<polygon fill="#ffffff" stroke="#000000" points="1424,-548.0344 1424,-567.0344 1501,-567.0344 1501,-548.0344 1424,-548.0344"/>
<text text-anchor="middle" x="1462.5" y="-555.0344" font-family="Helvetica,sans-Serif" font-size="10.00" fill="#000000">omc_List_fold</text>
</a>
</g>
</g>
<!-- Node1111&#45;&gt;Node1112 -->
<g id="edge6" class="edge">
<title>Node1111&#45;&gt;Node1112</title>
<path fill="none" stroke="#191970" d="M1348.3006,-557.5344C1369.4601,-557.5344 1393.3197,-557.5344 1413.7374,-557.5344"/>
<polygon fill="#191970" stroke="#191970" points="1413.7618,-561.0345 1423.7618,-557.5344 1413.7617,-554.0345 1413.7618,-561.0345"/>
</g>
<!-- Node1114 -->
<g id="node9" class="node">
<title>Node1114</title>
<g id="a_node9"><a xlink:href="../../d0/df9/_codegen_cpp_8c.html#ae2f00da29ec351848e6b25452929ff38" target="_top" xlink:title="omc_CodegenCpp_generateMeasure\lTimeStartCode">
<polygon fill="#ffffff" stroke="#000000" points="669,-284.5344 669,-314.5344 847,-314.5344 847,-284.5344 669,-284.5344"/>
<text text-anchor="start" x="677" y="-302.5344" font-family="Helvetica,sans-Serif" font-size="10.00" fill="#000000">omc_CodegenCpp_generateMeasure</text>
<text text-anchor="middle" x="758" y="-291.5344" font-family="Helvetica,sans-Serif" font-size="10.00" fill="#000000">TimeStartCode</text>
</a>
</g>
</g>
<!-- Node1113&#45;&gt;Node1114 -->
<g id="edge8" class="edge">
<title>Node1113&#45;&gt;Node1114</title>
<path fill="none" stroke="#191970" d="M626.6441,-265.569C646.7436,-270.7662 669.4401,-276.635 690.2427,-282.014"/>
<polygon fill="#191970" stroke="#191970" points="689.4081,-285.4133 699.9659,-284.5282 691.1605,-278.6362 689.4081,-285.4133"/>
</g>
<!-- Node1114&#45;&gt;Node1109 -->
<g id="edge9" class="edge">
<title>Node1114&#45;&gt;Node1109</title>
<path fill="none" stroke="#191970" d="M772.4225,-314.8289C795.4826,-339.1894 842.2138,-388.1728 883,-428.5344 899.9497,-445.3076 919.752,-464.0041 933.6936,-477.0236"/>
<polygon fill="#191970" stroke="#191970" points="931.4556,-479.7221 941.1591,-483.9758 936.2262,-474.5994 931.4556,-479.7221"/>
</g>
<!-- Node1115 -->
<g id="node10" class="node">
<title>Node1115</title>
<g id="a_node10"><a xlink:href="../../d0/df9/_codegen_cpp_8c.html#a29dfeae3c583452980d52fc4e29c887d" target="_top" xlink:title="omc_CodegenCpp_fun\l__1667">
<polygon fill="#ffffff" stroke="#000000" points="893.5,-197.5344 893.5,-227.5344 1009.5,-227.5344 1009.5,-197.5344 893.5,-197.5344"/>
<text text-anchor="start" x="901.5" y="-215.5344" font-family="Helvetica,sans-Serif" font-size="10.00" fill="#000000">omc_CodegenCpp_fun</text>
<text text-anchor="middle" x="951.5" y="-204.5344" font-family="Helvetica,sans-Serif" font-size="10.00" fill="#000000">__1667</text>
</a>
</g>
</g>
<!-- Node1114&#45;&gt;Node1115 -->
<g id="edge10" class="edge">
<title>Node1114&#45;&gt;Node1115</title>
<path fill="none" stroke="#191970" d="M791.7051,-284.3801C824.0697,-269.8286 873.1053,-247.7816 908.3174,-231.9498"/>
<polygon fill="#191970" stroke="#191970" points="910.1718,-234.9536 917.8571,-227.6607 907.3012,-228.5692 910.1718,-234.9536"/>
</g>
<!-- Node1116 -->
<g id="node11" class="node">
<title>Node1116</title>
<g id="a_node11"><a xlink:href="../../d0/df9/_codegen_cpp_8c.html#ad22d6be9ee44b19cc166c693d814c3f7" target="_top" xlink:title="omc_CodegenCpp_fun\l__1665">
<polygon fill="#ffffff" stroke="#000000" points="1066.5,-197.5344 1066.5,-227.5344 1182.5,-227.5344 1182.5,-197.5344 1066.5,-197.5344"/>
<text text-anchor="start" x="1074.5" y="-215.5344" font-family="Helvetica,sans-Serif" font-size="10.00" fill="#000000">omc_CodegenCpp_fun</text>
<text text-anchor="middle" x="1124.5" y="-204.5344" font-family="Helvetica,sans-Serif" font-size="10.00" fill="#000000">__1665</text>
</a>
</g>
</g>
<!-- Node1115&#45;&gt;Node1116 -->
<g id="edge11" class="edge">
<title>Node1115&#45;&gt;Node1116</title>
<path fill="none" stroke="#191970" d="M1009.5878,-212.5344C1024.5649,-212.5344 1040.8206,-212.5344 1056.2626,-212.5344"/>
<polygon fill="#191970" stroke="#191970" points="1056.2711,-216.0345 1066.2711,-212.5344 1056.271,-209.0345 1056.2711,-216.0345"/>
</g>
<!-- Node1115&#45;&gt;Node1117 -->
<g id="edge18" class="edge">
<title>Node1115&#45;&gt;Node1117</title>
<path fill="none" stroke="#191970" d="M994.1228,-227.5593C1003.1036,-231.7005 1012.209,-236.6938 1020,-242.5344 1039.9429,-257.4848 1035.091,-271.9679 1056,-285.5344 1109.1085,-319.993 1138.5823,-292.183 1193,-324.5344 1229.7055,-346.3558 1262.2295,-385.1418 1279.3131,-407.7715"/>
<polygon fill="#191970" stroke="#191970" points="1276.5208,-409.8822 1285.2738,-415.8518 1282.1539,-405.7267 1276.5208,-409.8822"/>
</g>
<!-- Node1115&#45;&gt;Node1118 -->
<g id="edge19" class="edge">
<title>Node1115&#45;&gt;Node1118</title>
<path fill="none" stroke="#191970" d="M969.6821,-197.2955C989.4635,-181.7977 1022.7323,-158.7868 1056,-149.5344 1123.0371,-130.8901 1204.4789,-146.4739 1252.049,-159.2034"/>
<polygon fill="#191970" stroke="#191970" points="1251.383,-162.6506 1261.9543,-161.9447 1253.2501,-155.9042 1251.383,-162.6506"/>
</g>
<!-- Node1115&#45;&gt;Node1119 -->
<g id="edge14" class="edge">
<title>Node1115&#45;&gt;Node1119</title>
<path fill="none" stroke="#191970" d="M966.6454,-197.1812C990.5852,-173.1676 1036.4546,-128.2509 1056,-116.5344 1063.0691,-112.2968 1070.9975,-108.6579 1078.8846,-105.5884"/>
<polygon fill="#191970" stroke="#191970" points="1080.219,-108.8275 1088.4241,-102.1247 1077.83,-102.2478 1080.219,-108.8275"/>
</g>
<!-- Node1115&#45;&gt;Node1122 -->
<g id="edge17" class="edge">
<title>Node1115&#45;&gt;Node1122</title>
<path fill="none" stroke="#191970" d="M998.5539,-227.6915C1006.3435,-231.6576 1013.8671,-236.5502 1020,-242.5344 1047.0387,-268.9175 1027.9811,-294.1947 1056,-319.5344 1060.4905,-323.5955 1065.7083,-326.9775 1071.2222,-329.7925"/>
<polygon fill="#191970" stroke="#191970" points="1070.1461,-333.1445 1080.7052,-334.014 1072.993,-326.7496 1070.1461,-333.1445"/>
</g>
<!-- Node1115&#45;&gt;Node1123 -->
<g id="edge20" class="edge">
<title>Node1115&#45;&gt;Node1123</title>
<path fill="none" stroke="#191970" d="M1009.5878,-197.7606C1031.5206,-192.1823 1056.1949,-185.9068 1077.041,-180.6049"/>
<polygon fill="#191970" stroke="#191970" points="1078.1095,-183.9446 1086.9383,-178.0877 1076.3841,-177.1606 1078.1095,-183.9446"/>
</g>
<!-- Node1124 -->
<g id="node19" class="node">
<title>Node1124</title>
<g id="a_node19"><a xlink:href="../../d0/df9/_codegen_cpp_8c.html#a83e474ddb78cbe0dc3dfa565ed309bd2" target="_top" xlink:title="omc_CodegenCpp_fun\l__1666">
<polygon fill="#ffffff" stroke="#000000" points="1066.5,-246.5344 1066.5,-276.5344 1182.5,-276.5344 1182.5,-246.5344 1066.5,-246.5344"/>
<text text-anchor="start" x="1074.5" y="-264.5344" font-family="Helvetica,sans-Serif" font-size="10.00" fill="#000000">omc_CodegenCpp_fun</text>
<text text-anchor="middle" x="1124.5" y="-253.5344" font-family="Helvetica,sans-Serif" font-size="10.00" fill="#000000">__1666</text>
</a>
</g>
</g>
<!-- Node1115&#45;&gt;Node1124 -->
<g id="edge21" class="edge">
<title>Node1115&#45;&gt;Node1124</title>
<path fill="none" stroke="#191970" d="M1004.8173,-227.6358C1022.7425,-232.7129 1042.9084,-238.4246 1061.5057,-243.6921"/>
<polygon fill="#191970" stroke="#191970" points="1060.7834,-247.1251 1071.3587,-246.4828 1062.691,-240.39 1060.7834,-247.1251"/>
</g>
<!-- Node1116&#45;&gt;Node1117 -->
<g id="edge12" class="edge">
<title>Node1116&#45;&gt;Node1117</title>
<path fill="none" stroke="#191970" d="M1179.6787,-227.554C1184.4612,-230.103 1188.9955,-233.074 1193,-236.5344 1247.334,-283.4861 1276.1497,-367.7127 1286.937,-405.8339"/>
<polygon fill="#191970" stroke="#191970" points="1283.6159,-406.96 1289.6117,-415.695 1290.3718,-405.1274 1283.6159,-406.96"/>
</g>
<!-- Node1116&#45;&gt;Node1118 -->
<g id="edge13" class="edge">
<title>Node1116&#45;&gt;Node1118</title>
<path fill="none" stroke="#191970" d="M1182.6133,-198.3096C1202.3964,-193.4672 1224.2917,-188.1078 1243.2634,-183.4639"/>
<polygon fill="#191970" stroke="#191970" points="1244.2989,-186.8139 1253.1799,-181.0366 1242.6345,-180.0146 1244.2989,-186.8139"/>
</g>
<!-- Node1120 -->
<g id="node15" class="node">
<title>Node1120</title>
<g id="a_node15"><a xlink:href="../../d7/d52/_tpl_8c.html#a2bc2d55a944d62577b3596f42906ee58" target="_top" xlink:title="omc_Tpl_isAtStartOfLine">
<polygon fill="#ffffff" stroke="#000000" points="1229,-83.0344 1229,-102.0344 1355,-102.0344 1355,-83.0344 1229,-83.0344"/>
<text text-anchor="middle" x="1292" y="-90.0344" font-family="Helvetica,sans-Serif" font-size="10.00" fill="#000000">omc_Tpl_isAtStartOfLine</text>
</a>
</g>
</g>
<!-- Node1119&#45;&gt;Node1120 -->
<g id="edge15" class="edge">
<title>Node1119&#45;&gt;Node1120</title>
<path fill="none" stroke="#191970" d="M1181.6755,-92.5344C1193.5221,-92.5344 1206.16,-92.5344 1218.4968,-92.5344"/>
<polygon fill="#191970" stroke="#191970" points="1218.765,-96.0345 1228.765,-92.5344 1218.7649,-89.0345 1218.765,-96.0345"/>
</g>
<!-- Node1121 -->
<g id="node16" class="node">
<title>Node1121</title>
<g id="a_node16"><a xlink:href="../../d7/d52/_tpl_8c.html#a1b27a1e34bf7c6c0e2b26e628b21c9f7" target="_top" xlink:title="omc_Tpl_isAtStartOfLineTok">
<polygon fill="#ffffff" stroke="#000000" points="1391,-83.0344 1391,-102.0344 1534,-102.0344 1534,-83.0344 1391,-83.0344"/>
<text text-anchor="middle" x="1462.5" y="-90.0344" font-family="Helvetica,sans-Serif" font-size="10.00" fill="#000000">omc_Tpl_isAtStartOfLineTok</text>
</a>
</g>
</g>
<!-- Node1120&#45;&gt;Node1121 -->
<g id="edge16" class="edge">
<title>Node1120&#45;&gt;Node1121</title>
<path fill="none" stroke="#191970" d="M1355.0035,-92.5344C1363.3898,-92.5344 1372.085,-92.5344 1380.7323,-92.5344"/>
<polygon fill="#191970" stroke="#191970" points="1380.8402,-96.0345 1390.8402,-92.5344 1380.8402,-89.0345 1380.8402,-96.0345"/>
</g>
<!-- Node1124&#45;&gt;Node1117 -->
<g id="edge22" class="edge">
<title>Node1124&#45;&gt;Node1117</title>
<path fill="none" stroke="#191970" d="M1168.1114,-276.5436C1176.8401,-280.642 1185.5928,-285.6219 1193,-291.5344 1234.2523,-324.4621 1266.9973,-378.535 1282.4022,-406.8758"/>
<polygon fill="#191970" stroke="#191970" points="1279.3331,-408.559 1287.1135,-415.7504 1285.5158,-405.2767 1279.3331,-408.559"/>
</g>
<!-- Node1126 -->
<g id="node21" class="node">
<title>Node1126</title>
<g id="a_node21"><a xlink:href="../../d0/df9/_codegen_cpp_8c.html#ababc75cdeb98d0d661b299c10fdede87" target="_top" xlink:title="omc_CodegenCpp_generateMeasure\lTimeEndCode">
<polygon fill="#ffffff" stroke="#000000" points="669,-431.5344 669,-461.5344 847,-461.5344 847,-431.5344 669,-431.5344"/>
<text text-anchor="start" x="677" y="-449.5344" font-family="Helvetica,sans-Serif" font-size="10.00" fill="#000000">omc_CodegenCpp_generateMeasure</text>
<text text-anchor="middle" x="758" y="-438.5344" font-family="Helvetica,sans-Serif" font-size="10.00" fill="#000000">TimeEndCode</text>
</a>
</g>
</g>
<!-- Node1125&#45;&gt;Node1126 -->
<g id="edge24" class="edge">
<title>Node1125&#45;&gt;Node1126</title>
<path fill="none" stroke="#191970" d="M633.1851,-446.5344C641.431,-446.5344 650.0158,-446.5344 658.6517,-446.5344"/>
<polygon fill="#191970" stroke="#191970" points="658.7957,-450.0345 668.7957,-446.5344 658.7957,-443.0345 658.7957,-450.0345"/>
</g>
<!-- Node1126&#45;&gt;Node1109 -->
<g id="edge25" class="edge">
<title>Node1126&#45;&gt;Node1109</title>
<path fill="none" stroke="#191970" d="M819.7566,-461.5347C846.3922,-468.0043 877.1174,-475.4673 902.1923,-481.5578"/>
<polygon fill="#191970" stroke="#191970" points="901.6658,-485.0317 912.2094,-483.9909 903.3181,-478.2294 901.6658,-485.0317"/>
</g>
<!-- Node1127 -->
<g id="node22" class="node">
<title>Node1127</title>
<g id="a_node22"><a xlink:href="../../d0/df9/_codegen_cpp_8c.html#a3823af36f690cb2686e6fc768c179d9d" target="_top" xlink:title="omc_CodegenCpp_fun\l__1671">
<polygon fill="#ffffff" stroke="#000000" points="893.5,-388.5344 893.5,-418.5344 1009.5,-418.5344 1009.5,-388.5344 893.5,-388.5344"/>
<text text-anchor="start" x="901.5" y="-406.5344" font-family="Helvetica,sans-Serif" font-size="10.00" fill="#000000">omc_CodegenCpp_fun</text>
<text text-anchor="middle" x="951.5" y="-395.5344" font-family="Helvetica,sans-Serif" font-size="10.00" fill="#000000">__1671</text>
</a>
</g>
</g>
<!-- Node1126&#45;&gt;Node1127 -->
<g id="edge26" class="edge">
<title>Node1126&#45;&gt;Node1127</title>
<path fill="none" stroke="#191970" d="M825.6769,-431.4951C844.3379,-427.3482 864.5896,-422.8478 883.281,-418.6942"/>
<polygon fill="#191970" stroke="#191970" points="884.1868,-422.0783 893.1894,-416.4923 882.6683,-415.245 884.1868,-422.0783"/>
</g>
<!-- Node1127&#45;&gt;Node1117 -->
<g id="edge32" class="edge">
<title>Node1127&#45;&gt;Node1117</title>
<path fill="none" stroke="#191970" d="M977.072,-418.7356C997.6066,-430.0119 1027.6025,-444.4423 1056,-450.5344 1115.5343,-463.3063 1132.5762,-458.0458 1193,-450.5344 1212.7975,-448.0733 1234.3208,-442.9447 1252.2268,-437.9695"/>
<polygon fill="#191970" stroke="#191970" points="1253.389,-441.2775 1262.0389,-435.1596 1251.4617,-434.548 1253.389,-441.2775"/>
</g>
<!-- Node1127&#45;&gt;Node1118 -->
<g id="edge33" class="edge">
<title>Node1127&#45;&gt;Node1118</title>
<path fill="none" stroke="#191970" d="M1009.7658,-399.5862C1071.688,-394.3697 1164.5296,-383.3093 1193,-362.5344 1251.891,-319.5615 1278.5313,-231.0806 1287.8645,-191.4708"/>
<polygon fill="#191970" stroke="#191970" points="1291.335,-191.9881 1290.0938,-181.4662 1284.5026,-190.4656 1291.335,-191.9881"/>
</g>
<!-- Node1127&#45;&gt;Node1119 -->
<g id="edge30" class="edge">
<title>Node1127&#45;&gt;Node1119</title>
<path fill="none" stroke="#191970" d="M957.6604,-388.4927C979.9355,-334.1133 1055.0385,-150.8434 1056,-149.5344 1068.1356,-133.0133 1086.0593,-118.3246 1100.5284,-107.9972"/>
<polygon fill="#191970" stroke="#191970" points="1102.7605,-110.7096 1109.0085,-102.1531 1098.7883,-104.9458 1102.7605,-110.7096"/>
</g>
<!-- Node1127&#45;&gt;Node1122 -->
<g id="edge31" class="edge">
<title>Node1127&#45;&gt;Node1122</title>
<path fill="none" stroke="#191970" d="M995.1552,-388.3938C1023.6829,-378.4998 1060.5286,-365.721 1087.5927,-356.3346"/>
<polygon fill="#191970" stroke="#191970" points="1088.7866,-359.6251 1097.0876,-353.0416 1086.4928,-353.0116 1088.7866,-359.6251"/>
</g>
<!-- Node1127&#45;&gt;Node1123 -->
<g id="edge34" class="edge">
<title>Node1127&#45;&gt;Node1123</title>
<path fill="none" stroke="#191970" d="M956.9236,-388.4683C973.146,-344.1702 1022.2554,-215.6918 1056,-187.5344 1058.8694,-185.1401 1062.0184,-183.0464 1065.3407,-181.2156"/>
<polygon fill="#191970" stroke="#191970" points="1066.8843,-184.3577 1074.4668,-176.9579 1063.9248,-178.0141 1066.8843,-184.3577"/>
</g>
<!-- Node1128 -->
<g id="node23" class="node">
<title>Node1128</title>
<g id="a_node23"><a xlink:href="../../d0/df9/_codegen_cpp_8c.html#a9eef4c4dcd261ed0cc4e2b3ebd46f1da" target="_top" xlink:title="omc_CodegenCpp_fun\l__1669">
<polygon fill="#ffffff" stroke="#000000" points="1066.5,-410.5344 1066.5,-440.5344 1182.5,-440.5344 1182.5,-410.5344 1066.5,-410.5344"/>
<text text-anchor="start" x="1074.5" y="-428.5344" font-family="Helvetica,sans-Serif" font-size="10.00" fill="#000000">omc_CodegenCpp_fun</text>
<text text-anchor="middle" x="1124.5" y="-417.5344" font-family="Helvetica,sans-Serif" font-size="10.00" fill="#000000">__1669</text>
</a>
</g>
</g>
<!-- Node1127&#45;&gt;Node1128 -->
<g id="edge27" class="edge">
<title>Node1127&#45;&gt;Node1128</title>
<path fill="none" stroke="#191970" d="M1009.5878,-410.9213C1024.5649,-412.8259 1040.8206,-414.8931 1056.2626,-416.8568"/>
<polygon fill="#191970" stroke="#191970" points="1055.9094,-420.34 1066.2711,-418.1295 1056.7925,-413.3959 1055.9094,-420.34"/>
</g>
<!-- Node1129 -->
<g id="node24" class="node">
<title>Node1129</title>
<g id="a_node24"><a xlink:href="../../d0/df9/_codegen_cpp_8c.html#a9f664d979cde45957125322ad8c61896" target="_top" xlink:title="omc_CodegenCpp_fun\l__1670">
<polygon fill="#ffffff" stroke="#000000" points="1066.5,-498.5344 1066.5,-528.5344 1182.5,-528.5344 1182.5,-498.5344 1066.5,-498.5344"/>
<text text-anchor="start" x="1074.5" y="-516.5344" font-family="Helvetica,sans-Serif" font-size="10.00" fill="#000000">omc_CodegenCpp_fun</text>
<text text-anchor="middle" x="1124.5" y="-505.5344" font-family="Helvetica,sans-Serif" font-size="10.00" fill="#000000">__1670</text>
</a>
</g>
</g>
<!-- Node1127&#45;&gt;Node1129 -->
<g id="edge35" class="edge">
<title>Node1127&#45;&gt;Node1129</title>
<path fill="none" stroke="#191970" d="M968.6934,-418.7878C988.6803,-436.0074 1023.1378,-464.1434 1056,-483.5344 1062.3804,-487.2993 1069.3198,-490.8763 1076.252,-494.1622"/>
<polygon fill="#191970" stroke="#191970" points="1075.097,-497.4824 1085.6473,-498.4527 1078.0049,-491.1149 1075.097,-497.4824"/>
</g>
<!-- Node1128&#45;&gt;Node1117 -->
<g id="edge28" class="edge">
<title>Node1128&#45;&gt;Node1117</title>
<path fill="none" stroke="#191970" d="M1182.6133,-425.5344C1199.0454,-425.5344 1216.9347,-425.5344 1233.3955,-425.5344"/>
<polygon fill="#191970" stroke="#191970" points="1233.4344,-429.0345 1243.4343,-425.5344 1233.4343,-422.0345 1233.4344,-429.0345"/>
</g>
<!-- Node1128&#45;&gt;Node1118 -->
<g id="edge29" class="edge">
<title>Node1128&#45;&gt;Node1118</title>
<path fill="none" stroke="#191970" d="M1171.6592,-410.4841C1179.4381,-406.5071 1186.9309,-401.5832 1193,-395.5344 1252.7124,-336.0222 1279.3167,-234.3197 1288.2779,-191.4844"/>
<polygon fill="#191970" stroke="#191970" points="1291.749,-191.9742 1290.2686,-181.4833 1284.8837,-190.6076 1291.749,-191.9742"/>
</g>
<!-- Node1129&#45;&gt;Node1117 -->
<g id="edge36" class="edge">
<title>Node1129&#45;&gt;Node1117</title>
<path fill="none" stroke="#191970" d="M1161.1309,-498.4351C1171.5459,-493.8888 1182.821,-488.7226 1193,-483.5344 1219.3524,-470.1027 1248.4406,-452.7399 1268.2256,-440.5248"/>
<polygon fill="#191970" stroke="#191970" points="1270.234,-443.3976 1276.8779,-435.1447 1266.5376,-437.4531 1270.234,-443.3976"/>
</g>
<!-- Node1130&#45;&gt;Node1114 -->
<g id="edge38" class="edge">
<title>Node1130&#45;&gt;Node1114</title>
<path fill="none" stroke="#191970" d="M626.6441,-333.4998C646.7436,-328.3025 669.4401,-322.4338 690.2427,-317.0548"/>
<polygon fill="#191970" stroke="#191970" points="691.1605,-320.4326 699.9659,-314.5406 689.4081,-313.6555 691.1605,-320.4326"/>
</g>
<!-- Node1131&#45;&gt;Node1126 -->
<g id="edge40" class="edge">
<title>Node1131&#45;&gt;Node1126</title>
<path fill="none" stroke="#191970" d="M626.6441,-412.569C646.7436,-417.7662 669.4401,-423.635 690.2427,-429.014"/>
<polygon fill="#191970" stroke="#191970" points="689.4081,-432.4133 699.9659,-431.5282 691.1605,-425.6362 689.4081,-432.4133"/>
</g>
<!-- Node1132&#45;&gt;Node1114 -->
<g id="edge42" class="edge">
<title>Node1132&#45;&gt;Node1114</title>
<path fill="none" stroke="#191970" d="M633.1851,-299.5344C641.431,-299.5344 650.0158,-299.5344 658.6517,-299.5344"/>
<polygon fill="#191970" stroke="#191970" points="658.7957,-303.0345 668.7957,-299.5344 658.7957,-296.0345 658.7957,-303.0345"/>
</g>
<!-- Node1133&#45;&gt;Node1126 -->
<g id="edge44" class="edge">
<title>Node1133&#45;&gt;Node1126</title>
<path fill="none" stroke="#191970" d="M626.6441,-480.4998C646.7436,-475.3025 669.4401,-469.4338 690.2427,-464.0548"/>
<polygon fill="#191970" stroke="#191970" points="691.1605,-467.4326 699.9659,-461.5406 689.4081,-460.6555 691.1605,-467.4326"/>
</g>
<!-- Node1135&#45;&gt;Node1118 -->
<g id="edge50" class="edge">
<title>Node1135&#45;&gt;Node1118</title>
<path fill="none" stroke="#191970" d="M821.2562,-58.519C908.8096,-40.9932 1070.0322,-20.642 1193,-73.5344 1214.3713,-82.7269 1212.5712,-95.0623 1229,-111.5344 1243.8743,-126.4479 1261.238,-142.9179 1273.9652,-154.8232"/>
<polygon fill="#191970" stroke="#191970" points="1271.8844,-157.6683 1281.5865,-161.9253 1276.6567,-152.5472 1271.8844,-157.6683"/>
</g>
</g>
</svg>
