<?xml version="1.0" encoding="UTF-8" standalone="no"?>
<!DOCTYPE svg PUBLIC "-//W3C//DTD SVG 1.1//EN"
 "http://www.w3.org/Graphics/SVG/1.1/DTD/svg11.dtd">
<!-- Generated by graphviz version 2.40.1 (20161225.0304)
 -->
<!-- Title: boxptr_CodegenCppHpcom_equationNamesHPCOM__ Pages: 1 -->
<svg width="2196pt" height="372pt"
 viewBox="0.00 0.00 2196.00 371.50" xmlns="http://www.w3.org/2000/svg" xmlns:xlink="http://www.w3.org/1999/xlink">
<g id="graph0" class="graph" transform="scale(1 1) rotate(0) translate(4 367.5)">
<title>boxptr_CodegenCppHpcom_equationNamesHPCOM__</title>
<polygon fill="#ffffff" stroke="transparent" points="-4,4 -4,-367.5 2192,-367.5 2192,4 -4,4"/>
<!-- Node162 -->
<g id="node1" class="node">
<title>Node162</title>
<polygon fill="#bfbfbf" stroke="#000000" points="0,-58 0,-88 138,-88 138,-58 0,-58"/>
<text text-anchor="start" x="8" y="-76" font-family="Helvetica,sans-Serif" font-size="10.00" fill="#000000">boxptr_CodegenCppHpcom</text>
<text text-anchor="middle" x="69" y="-65" font-family="Helvetica,sans-Serif" font-size="10.00" fill="#000000">_equationNamesHPCOM__</text>
</g>
<!-- Node163 -->
<g id="node2" class="node">
<title>Node163</title>
<g id="a_node2"><a xlink:href="../../df/ddf/_codegen_cpp_hpcom_8c.html#a60e2dd20fa25c21a5b36bf66240f531c" target="_top" xlink:title="omc_CodegenCppHpcom\l_equationNamesHPCOM__">
<polygon fill="#ffffff" stroke="#000000" points="174,-58 174,-88 312,-88 312,-58 174,-58"/>
<text text-anchor="start" x="182" y="-76" font-family="Helvetica,sans-Serif" font-size="10.00" fill="#000000">omc_CodegenCppHpcom</text>
<text text-anchor="middle" x="243" y="-65" font-family="Helvetica,sans-Serif" font-size="10.00" fill="#000000">_equationNamesHPCOM__</text>
</a>
</g>
</g>
<!-- Node162&#45;&gt;Node163 -->
<g id="edge1" class="edge">
<title>Node162&#45;&gt;Node163</title>
<path fill="none" stroke="#191970" d="M138.0193,-73C146.4757,-73 155.1691,-73 163.7607,-73"/>
<polygon fill="#191970" stroke="#191970" points="163.7795,-76.5001 173.7795,-73 163.7794,-69.5001 163.7795,-76.5001"/>
</g>
<!-- Node164 -->
<g id="node3" class="node">
<title>Node164</title>
<g id="a_node3"><a xlink:href="../../d6/dc2/_hpc_om_task_graph_8c.html#ac8380e4a9f25aa6e4c8f822d0dca676d" target="_top" xlink:title="omc_HpcOmTaskGraph\l_getSimCodeEqByIndex">
<polygon fill="#ffffff" stroke="#000000" points="865,-289 865,-319 989,-319 989,-289 865,-289"/>
<text text-anchor="start" x="873" y="-307" font-family="Helvetica,sans-Serif" font-size="10.00" fill="#000000">omc_HpcOmTaskGraph</text>
<text text-anchor="middle" x="927" y="-296" font-family="Helvetica,sans-Serif" font-size="10.00" fill="#000000">_getSimCodeEqByIndex</text>
</a>
</g>
</g>
<!-- Node163&#45;&gt;Node164 -->
<g id="edge2" class="edge">
<title>Node163&#45;&gt;Node164</title>
<path fill="none" stroke="#191970" d="M287.6153,-88.0674C408.3116,-128.8289 740.9951,-241.1826 872.4922,-285.5916"/>
<polygon fill="#191970" stroke="#191970" points="871.7583,-289.038 882.3525,-288.9217 873.9981,-282.406 871.7583,-289.038"/>
</g>
<!-- Node173 -->
<g id="node12" class="node">
<title>Node173</title>
<g id="a_node12"><a xlink:href="../../df/ddf/_codegen_cpp_hpcom_8c.html#a8032d510fbb3703d59368bdabacc07fe" target="_top" xlink:title="omc_CodegenCppHpcom\l_equationHPCOM__">
<polygon fill="#ffffff" stroke="#000000" points="348,-58 348,-88 477,-88 477,-58 348,-58"/>
<text text-anchor="start" x="356" y="-76" font-family="Helvetica,sans-Serif" font-size="10.00" fill="#000000">omc_CodegenCppHpcom</text>
<text text-anchor="middle" x="412.5" y="-65" font-family="Helvetica,sans-Serif" font-size="10.00" fill="#000000">_equationHPCOM__</text>
</a>
</g>
</g>
<!-- Node163&#45;&gt;Node173 -->
<g id="edge12" class="edge">
<title>Node163&#45;&gt;Node173</title>
<path fill="none" stroke="#191970" d="M312.4312,-73C320.7509,-73 329.2743,-73 337.6663,-73"/>
<polygon fill="#191970" stroke="#191970" points="337.8148,-76.5001 347.8148,-73 337.8148,-69.5001 337.8148,-76.5001"/>
</g>
<!-- Node194 -->
<g id="node33" class="node">
<title>Node194</title>
<g id="a_node33"><a xlink:href="../../d7/d52/_tpl_8c.html#a7e5a397e973cf3de37af50d58cbb789f" target="_top" xlink:title="omc_Tpl_writeText">
<polygon fill="#ffffff" stroke="#000000" points="709,-.5 709,-19.5 809,-19.5 809,-.5 709,-.5"/>
<text text-anchor="middle" x="759" y="-7.5" font-family="Helvetica,sans-Serif" font-size="10.00" fill="#000000">omc_Tpl_writeText</text>
</a>
</g>
</g>
<!-- Node163&#45;&gt;Node194 -->
<g id="edge41" class="edge">
<title>Node163&#45;&gt;Node194</title>
<path fill="none" stroke="#191970" d="M303.8572,-57.9609C318.2711,-54.7128 333.6314,-51.5059 348,-49 471.3242,-27.4918 617.6814,-17.1783 698.2381,-12.7957"/>
<polygon fill="#191970" stroke="#191970" points="698.8824,-16.2665 708.6826,-12.2408 698.511,-9.2764 698.8824,-16.2665"/>
</g>
<!-- Node164&#45;&gt;Node164 -->
<g id="edge10" class="edge">
<title>Node164&#45;&gt;Node164</title>
<path fill="none" stroke="#191970" d="M897.7225,-319.159C890.6627,-328.5566 900.4219,-337.5 927,-337.5 943.196,-337.5 953.1466,-334.179 956.8516,-329.4579"/>
<polygon fill="#191970" stroke="#191970" points="960.3287,-328.9487 956.2775,-319.159 953.3396,-329.3383 960.3287,-328.9487"/>
</g>
<!-- Node165 -->
<g id="node4" class="node">
<title>Node165</title>
<g id="a_node4"><a xlink:href="../../d6/dc2/_hpc_om_task_graph_8c.html#af6fba4ffe18629368f17d8228aadbd76" target="_top" xlink:title="omc_HpcOmTaskGraph\l_getIndexBySimCodeEq">
<polygon fill="#ffffff" stroke="#000000" points="1036,-333 1036,-363 1160,-363 1160,-333 1036,-333"/>
<text text-anchor="start" x="1044" y="-351" font-family="Helvetica,sans-Serif" font-size="10.00" fill="#000000">omc_HpcOmTaskGraph</text>
<text text-anchor="middle" x="1098" y="-340" font-family="Helvetica,sans-Serif" font-size="10.00" fill="#000000">_getIndexBySimCodeEq</text>
</a>
</g>
</g>
<!-- Node164&#45;&gt;Node165 -->
<g id="edge3" class="edge">
<title>Node164&#45;&gt;Node165</title>
<path fill="none" stroke="#191970" d="M985.3702,-319.0192C999.5989,-322.6804 1014.9459,-326.6294 1029.5949,-330.3987"/>
<polygon fill="#191970" stroke="#191970" points="1029.046,-333.8714 1039.6027,-332.9738 1030.7904,-327.0922 1029.046,-333.8714"/>
</g>
<!-- Node172 -->
<g id="node11" class="node">
<title>Node172</title>
<g id="a_node11"><a xlink:href="../../d7/deb/build_2include_2omc_2c_2util_2modelica__string_8c.html#a751007abc59e9ca7978f2af10a0c814f" target="_top" xlink:title="stringAppend">
<polygon fill="#ffffff" stroke="#000000" points="1238,-281.5 1238,-300.5 1312,-300.5 1312,-281.5 1238,-281.5"/>
<text text-anchor="middle" x="1275" y="-288.5" font-family="Helvetica,sans-Serif" font-size="10.00" fill="#000000">stringAppend</text>
</a>
</g>
</g>
<!-- Node164&#45;&gt;Node172 -->
<g id="edge11" class="edge">
<title>Node164&#45;&gt;Node172</title>
<path fill="none" stroke="#191970" d="M989.2154,-301.6759C1057.5954,-299.1214 1165.9182,-295.0749 1227.6998,-292.767"/>
<polygon fill="#191970" stroke="#191970" points="1228.0759,-296.2554 1237.9382,-292.3845 1227.8145,-289.2603 1228.0759,-296.2554"/>
</g>
<!-- Node166 -->
<g id="node5" class="node">
<title>Node166</title>
<g id="a_node5"><a xlink:href="../../db/da1/_compiler_2boot_2build_2error_8c.html#af2095b97605381e4a896bbbf299ba506" target="_top" xlink:title="omc_Error_addInternalError">
<polygon fill="#ffffff" stroke="#000000" points="1207,-331.5 1207,-350.5 1343,-350.5 1343,-331.5 1207,-331.5"/>
<text text-anchor="middle" x="1275" y="-338.5" font-family="Helvetica,sans-Serif" font-size="10.00" fill="#000000">omc_Error_addInternalError</text>
</a>
</g>
</g>
<!-- Node165&#45;&gt;Node166 -->
<g id="edge4" class="edge">
<title>Node165&#45;&gt;Node166</title>
<path fill="none" stroke="#191970" d="M1160.4036,-345.5321C1172.145,-345.0677 1184.5595,-344.5767 1196.7135,-344.0961"/>
<polygon fill="#191970" stroke="#191970" points="1196.9873,-347.5881 1206.8411,-343.6955 1196.7106,-340.5935 1196.9873,-347.5881"/>
</g>
<!-- Node167 -->
<g id="node6" class="node">
<title>Node167</title>
<g id="a_node6"><a xlink:href="../../d1/d5c/_config_8c.html#afa2f208e09cd9979df49295043109099" target="_top" xlink:title="omc_Config_getRunningTestsuite">
<polygon fill="#ffffff" stroke="#000000" points="1391.5,-281.5 1391.5,-300.5 1555.5,-300.5 1555.5,-281.5 1391.5,-281.5"/>
<text text-anchor="middle" x="1473.5" y="-288.5" font-family="Helvetica,sans-Serif" font-size="10.00" fill="#000000">omc_Config_getRunningTestsuite</text>
</a>
</g>
</g>
<!-- Node166&#45;&gt;Node167 -->
<g id="edge5" class="edge">
<title>Node166&#45;&gt;Node167</title>
<path fill="none" stroke="#191970" d="M1312.8036,-331.4777C1344.8485,-323.4059 1390.9829,-311.7852 1425.6072,-303.0637"/>
<polygon fill="#191970" stroke="#191970" points="1426.6575,-306.4085 1435.4996,-300.5719 1424.9476,-299.6206 1426.6575,-306.4085"/>
</g>
<!-- Node168 -->
<g id="node7" class="node">
<title>Node168</title>
<g id="a_node7"><a xlink:href="../../d3/db3/_flags_8c.html#a1bdc57ee7db1a86ebd954e1aa4d04c0c" target="_top" xlink:title="omc_Flags_getConfigString">
<polygon fill="#ffffff" stroke="#000000" points="1604,-281.5 1604,-300.5 1741,-300.5 1741,-281.5 1604,-281.5"/>
<text text-anchor="middle" x="1672.5" y="-288.5" font-family="Helvetica,sans-Serif" font-size="10.00" fill="#000000">omc_Flags_getConfigString</text>
</a>
</g>
</g>
<!-- Node167&#45;&gt;Node168 -->
<g id="edge6" class="edge">
<title>Node167&#45;&gt;Node168</title>
<path fill="none" stroke="#191970" d="M1555.5898,-291C1568.1364,-291 1581.0642,-291 1593.5414,-291"/>
<polygon fill="#191970" stroke="#191970" points="1593.898,-294.5001 1603.898,-291 1593.8979,-287.5001 1593.898,-294.5001"/>
</g>
<!-- Node169 -->
<g id="node8" class="node">
<title>Node169</title>
<g id="a_node8"><a xlink:href="../../d3/db3/_flags_8c.html#a96ba70d54b6662cf90933a207c0c6b8e" target="_top" xlink:title="omc_Flags_getConfigValue">
<polygon fill="#ffffff" stroke="#000000" points="1777,-281.5 1777,-300.5 1914,-300.5 1914,-281.5 1777,-281.5"/>
<text text-anchor="middle" x="1845.5" y="-288.5" font-family="Helvetica,sans-Serif" font-size="10.00" fill="#000000">omc_Flags_getConfigValue</text>
</a>
</g>
</g>
<!-- Node168&#45;&gt;Node169 -->
<g id="edge7" class="edge">
<title>Node168&#45;&gt;Node169</title>
<path fill="none" stroke="#191970" d="M1741.3713,-291C1749.678,-291 1758.2111,-291 1766.6466,-291"/>
<polygon fill="#191970" stroke="#191970" points="1766.8657,-294.5001 1776.8657,-291 1766.8657,-287.5001 1766.8657,-294.5001"/>
</g>
<!-- Node170 -->
<g id="node9" class="node">
<title>Node170</title>
<g id="a_node9"><a xlink:href="../../d3/db3/_flags_8c.html#a760d66f53b65ac257876ca0f6308f09f" target="_top" xlink:title="omc_Flags_loadFlags">
<polygon fill="#ffffff" stroke="#000000" points="1956.5,-281.5 1956.5,-300.5 2068.5,-300.5 2068.5,-281.5 1956.5,-281.5"/>
<text text-anchor="middle" x="2012.5" y="-288.5" font-family="Helvetica,sans-Serif" font-size="10.00" fill="#000000">omc_Flags_loadFlags</text>
</a>
</g>
</g>
<!-- Node169&#45;&gt;Node170 -->
<g id="edge8" class="edge">
<title>Node169&#45;&gt;Node170</title>
<path fill="none" stroke="#191970" d="M1914.3895,-291C1924.9016,-291 1935.7327,-291 1946.188,-291"/>
<polygon fill="#191970" stroke="#191970" points="1946.4923,-294.5001 1956.4922,-291 1946.4922,-287.5001 1946.4923,-294.5001"/>
</g>
<!-- Node171 -->
<g id="node10" class="node">
<title>Node171</title>
<g id="a_node10"><a xlink:href="../../da/d72/_compiler_2boot_2build_2list_8c.html#a3ec1ee3a5ff53be9af368e290be09182" target="_top" xlink:title="omc_List_fold">
<polygon fill="#ffffff" stroke="#000000" points="2111,-281.5 2111,-300.5 2188,-300.5 2188,-281.5 2111,-281.5"/>
<text text-anchor="middle" x="2149.5" y="-288.5" font-family="Helvetica,sans-Serif" font-size="10.00" fill="#000000">omc_List_fold</text>
</a>
</g>
</g>
<!-- Node170&#45;&gt;Node171 -->
<g id="edge9" class="edge">
<title>Node170&#45;&gt;Node171</title>
<path fill="none" stroke="#191970" d="M2068.6184,-291C2079.2594,-291 2090.3126,-291 2100.7046,-291"/>
<polygon fill="#191970" stroke="#191970" points="2100.8364,-294.5001 2110.8363,-291 2100.8363,-287.5001 2100.8364,-294.5001"/>
</g>
<!-- Node174 -->
<g id="node13" class="node">
<title>Node174</title>
<g id="a_node13"><a xlink:href="../../d0/df9/_codegen_cpp_8c.html#ad852a90949643c3ae36393e780cd2307" target="_top" xlink:title="omc_CodegenCpp_equation\l__function__call">
<polygon fill="#ffffff" stroke="#000000" points="513,-77 513,-107 653,-107 653,-77 513,-77"/>
<text text-anchor="start" x="521" y="-95" font-family="Helvetica,sans-Serif" font-size="10.00" fill="#000000">omc_CodegenCpp_equation</text>
<text text-anchor="middle" x="583" y="-84" font-family="Helvetica,sans-Serif" font-size="10.00" fill="#000000">__function__call</text>
</a>
</g>
</g>
<!-- Node173&#45;&gt;Node174 -->
<g id="edge13" class="edge">
<title>Node173&#45;&gt;Node174</title>
<path fill="none" stroke="#191970" d="M477.4451,-80.2373C485.7648,-81.1644 494.3585,-82.1221 502.8835,-83.0721"/>
<polygon fill="#191970" stroke="#191970" points="502.5128,-86.5523 512.839,-84.1815 503.2881,-79.5954 502.5128,-86.5523"/>
</g>
<!-- Node195 -->
<g id="node34" class="node">
<title>Node195</title>
<g id="a_node34"><a xlink:href="../../d7/d52/_tpl_8c.html#a51cc135d8caad2e380fbe22495dcb643" target="_top" xlink:title="omc_Tpl_strTokText">
<polygon fill="#ffffff" stroke="#000000" points="529.5,-38.5 529.5,-57.5 636.5,-57.5 636.5,-38.5 529.5,-38.5"/>
<text text-anchor="middle" x="583" y="-45.5" font-family="Helvetica,sans-Serif" font-size="10.00" fill="#000000">omc_Tpl_strTokText</text>
</a>
</g>
</g>
<!-- Node173&#45;&gt;Node195 -->
<g id="edge40" class="edge">
<title>Node173&#45;&gt;Node195</title>
<path fill="none" stroke="#191970" d="M477.4451,-63.4773C491.0937,-61.476 505.4796,-59.3666 519.0898,-57.371"/>
<polygon fill="#191970" stroke="#191970" points="519.9351,-60.7846 529.3215,-55.8708 518.9195,-53.8586 519.9351,-60.7846"/>
</g>
<!-- Node175 -->
<g id="node14" class="node">
<title>Node175</title>
<g id="a_node14"><a xlink:href="../../d1/dda/_codegen_util_simulation_8c.html#a6baea90a2524af114184c2bc2a0d499b" target="_top" xlink:title="omc_CodegenUtilSimulation\l_equationIndex">
<polygon fill="#ffffff" stroke="#000000" points="689,-109 689,-139 829,-139 829,-109 689,-109"/>
<text text-anchor="start" x="697" y="-127" font-family="Helvetica,sans-Serif" font-size="10.00" fill="#000000">omc_CodegenUtilSimulation</text>
<text text-anchor="middle" x="759" y="-116" font-family="Helvetica,sans-Serif" font-size="10.00" fill="#000000">_equationIndex</text>
</a>
</g>
</g>
<!-- Node174&#45;&gt;Node175 -->
<g id="edge14" class="edge">
<title>Node174&#45;&gt;Node175</title>
<path fill="none" stroke="#191970" d="M653.0656,-104.7392C661.5403,-106.28 670.2467,-107.863 678.8522,-109.4277"/>
<polygon fill="#191970" stroke="#191970" points="678.4232,-112.907 688.888,-111.2524 679.6754,-106.0199 678.4232,-112.907"/>
</g>
<!-- Node180 -->
<g id="node19" class="node">
<title>Node180</title>
<g id="a_node19"><a xlink:href="../../d7/d52/_tpl_8c.html#a1038a57834f028b49f38adc4d5fcd049" target="_top" xlink:title="omc_Tpl_writeTok">
<polygon fill="#ffffff" stroke="#000000" points="1049.5,-130.5 1049.5,-149.5 1146.5,-149.5 1146.5,-130.5 1049.5,-130.5"/>
<text text-anchor="middle" x="1098" y="-137.5" font-family="Helvetica,sans-Serif" font-size="10.00" fill="#000000">omc_Tpl_writeTok</text>
</a>
</g>
</g>
<!-- Node174&#45;&gt;Node180 -->
<g id="edge39" class="edge">
<title>Node174&#45;&gt;Node180</title>
<path fill="none" stroke="#191970" d="M636.9448,-76.9245C716.0667,-57.4119 867.378,-30.0354 989,-67 1025.3897,-78.0599 1060.6853,-105.7532 1080.8299,-123.6734"/>
<polygon fill="#191970" stroke="#191970" points="1078.5121,-126.2965 1088.2568,-130.4548 1083.2321,-121.1272 1078.5121,-126.2965"/>
</g>
<!-- Node174&#45;&gt;Node194 -->
<g id="edge38" class="edge">
<title>Node174&#45;&gt;Node194</title>
<path fill="none" stroke="#191970" d="M633.0842,-76.8968C639.98,-74.0257 646.811,-70.7308 653,-67 671.5889,-55.7944 670.3402,-45.0871 689,-34 696.1454,-29.7544 704.1499,-26.1219 712.1229,-23.0638"/>
<polygon fill="#191970" stroke="#191970" points="713.5335,-26.2765 721.7727,-19.6158 711.1781,-19.6847 713.5335,-26.2765"/>
</g>
<!-- Node176 -->
<g id="node15" class="node">
<title>Node176</title>
<g id="a_node15"><a xlink:href="../../d7/d52/_tpl_8c.html#ada57037d1430be632aea182a946c3245" target="_top" xlink:title="omc_Tpl_writeStr">
<polygon fill="#ffffff" stroke="#000000" points="1051.5,-256.5 1051.5,-275.5 1144.5,-275.5 1144.5,-256.5 1051.5,-256.5"/>
<text text-anchor="middle" x="1098" y="-263.5" font-family="Helvetica,sans-Serif" font-size="10.00" fill="#000000">omc_Tpl_writeStr</text>
</a>
</g>
</g>
<!-- Node175&#45;&gt;Node176 -->
<g id="edge15" class="edge">
<title>Node175&#45;&gt;Node176</title>
<path fill="none" stroke="#191970" d="M775.3306,-139.2715C795.1163,-156.9992 830.1484,-185.9743 865,-203 921.9448,-230.8186 992.9293,-247.7564 1041.489,-256.9603"/>
<polygon fill="#191970" stroke="#191970" points="1041.0283,-260.4343 1051.4976,-258.808 1042.2992,-253.5506 1041.0283,-260.4343"/>
</g>
<!-- Node177 -->
<g id="node16" class="node">
<title>Node177</title>
<g id="a_node16"><a xlink:href="../../d2/d57/build_2include_2omc_2c_2meta_2meta__modelica__builtin_8h.html#a751bf2360cb3df6de97811998890b7ea" target="_top" xlink:title="intString">
<polygon fill="#ffffff" stroke="#000000" points="1248.5,-142.5 1248.5,-161.5 1301.5,-161.5 1301.5,-142.5 1248.5,-142.5"/>
<text text-anchor="middle" x="1275" y="-149.5" font-family="Helvetica,sans-Serif" font-size="10.00" fill="#000000">intString</text>
</a>
</g>
</g>
<!-- Node175&#45;&gt;Node177 -->
<g id="edge16" class="edge">
<title>Node175&#45;&gt;Node177</title>
<path fill="none" stroke="#191970" d="M829.0602,-117.0612C911.3973,-110.3871 1051.9116,-103.6289 1171,-121 1194.7637,-124.4663 1220.6461,-132.1662 1240.646,-139.0243"/>
<polygon fill="#191970" stroke="#191970" points="1239.6458,-142.3828 1250.2406,-142.4038 1241.9714,-135.7803 1239.6458,-142.3828"/>
</g>
<!-- Node178 -->
<g id="node17" class="node">
<title>Node178</title>
<g id="a_node17"><a xlink:href="../../de/d91/_codegen_util_8c.html#af48b901deeaf48bcc1e241d6b8e048a8" target="_top" xlink:title="omc_CodegenUtil_error">
<polygon fill="#ffffff" stroke="#000000" points="867.5,-174.5 867.5,-193.5 986.5,-193.5 986.5,-174.5 867.5,-174.5"/>
<text text-anchor="middle" x="927" y="-181.5" font-family="Helvetica,sans-Serif" font-size="10.00" fill="#000000">omc_CodegenUtil_error</text>
</a>
</g>
</g>
<!-- Node175&#45;&gt;Node178 -->
<g id="edge17" class="edge">
<title>Node175&#45;&gt;Node178</title>
<path fill="none" stroke="#191970" d="M801.3935,-139.1405C828.9752,-148.9912 864.5638,-161.7014 890.8131,-171.0761"/>
<polygon fill="#191970" stroke="#191970" points="889.7853,-174.4255 900.3799,-174.4928 892.1397,-167.8333 889.7853,-174.4255"/>
</g>
<!-- Node193 -->
<g id="node32" class="node">
<title>Node193</title>
<g id="a_node32"><a xlink:href="../../d7/d52/_tpl_8c.html#a8a187b1be8ff955570284667e296c266" target="_top" xlink:title="omc_Tpl_sourceInfo">
<polygon fill="#ffffff" stroke="#000000" points="874.5,-76.5 874.5,-95.5 979.5,-95.5 979.5,-76.5 874.5,-76.5"/>
<text text-anchor="middle" x="927" y="-83.5" font-family="Helvetica,sans-Serif" font-size="10.00" fill="#000000">omc_Tpl_sourceInfo</text>
</a>
</g>
</g>
<!-- Node175&#45;&gt;Node193 -->
<g id="edge37" class="edge">
<title>Node175&#45;&gt;Node193</title>
<path fill="none" stroke="#191970" d="M825.398,-108.9814C841.7996,-105.2715 859.1385,-101.3496 874.7591,-97.8164"/>
<polygon fill="#191970" stroke="#191970" points="875.7674,-101.1768 884.7489,-95.5568 874.2231,-94.3493 875.7674,-101.1768"/>
</g>
<!-- Node178&#45;&gt;Node176 -->
<g id="edge36" class="edge">
<title>Node178&#45;&gt;Node176</title>
<path fill="none" stroke="#191970" d="M940.7453,-193.609C963.3713,-209.2927 1007.6784,-239.41 1025,-247 1030.4558,-249.3906 1036.2773,-251.5315 1042.1624,-253.436"/>
<polygon fill="#191970" stroke="#191970" points="1041.4888,-256.8883 1052.0733,-256.4202 1043.5071,-250.1856 1041.4888,-256.8883"/>
</g>
<!-- Node179 -->
<g id="node18" class="node">
<title>Node179</title>
<g id="a_node18"><a xlink:href="../../d7/d52/_tpl_8c.html#ad5588ef8965b11d3e9cb9829a3b76c94" target="_top" xlink:title="omc_Tpl_addSourceTemplate\lError">
<polygon fill="#ffffff" stroke="#000000" points="1025,-169 1025,-199 1171,-199 1171,-169 1025,-169"/>
<text text-anchor="start" x="1033" y="-187" font-family="Helvetica,sans-Serif" font-size="10.00" fill="#000000">omc_Tpl_addSourceTemplate</text>
<text text-anchor="middle" x="1098" y="-176" font-family="Helvetica,sans-Serif" font-size="10.00" fill="#000000">Error</text>
</a>
</g>
</g>
<!-- Node178&#45;&gt;Node179 -->
<g id="edge18" class="edge">
<title>Node178&#45;&gt;Node179</title>
<path fill="none" stroke="#191970" d="M986.8075,-184C995.8608,-184 1005.3377,-184 1014.7776,-184"/>
<polygon fill="#191970" stroke="#191970" points="1014.9846,-187.5001 1024.9846,-184 1014.9846,-180.5001 1014.9846,-187.5001"/>
</g>
<!-- Node178&#45;&gt;Node180 -->
<g id="edge19" class="edge">
<title>Node178&#45;&gt;Node180</title>
<path fill="none" stroke="#191970" d="M964.1045,-174.4527C989.6497,-167.8796 1023.7891,-159.0952 1051.2014,-152.0417"/>
<polygon fill="#191970" stroke="#191970" points="1052.1556,-155.4103 1060.968,-149.5287 1050.4112,-148.6311 1052.1556,-155.4103"/>
</g>
<!-- Node181 -->
<g id="node20" class="node">
<title>Node181</title>
<g id="a_node20"><a xlink:href="../../db/da1/_compiler_2boot_2build_2error_8c.html#a10cc72f611e7b81b3a327aa48da0c015" target="_top" xlink:title="omc_Error_infoStr">
<polygon fill="#ffffff" stroke="#000000" points="1050.5,-218.5 1050.5,-237.5 1145.5,-237.5 1145.5,-218.5 1050.5,-218.5"/>
<text text-anchor="middle" x="1098" y="-225.5" font-family="Helvetica,sans-Serif" font-size="10.00" fill="#000000">omc_Error_infoStr</text>
</a>
</g>
</g>
<!-- Node178&#45;&gt;Node181 -->
<g id="edge20" class="edge">
<title>Node178&#45;&gt;Node181</title>
<path fill="none" stroke="#191970" d="M964.1045,-193.5473C989.6497,-200.1204 1023.7891,-208.9048 1051.2014,-215.9583"/>
<polygon fill="#191970" stroke="#191970" points="1050.4112,-219.3689 1060.968,-218.4713 1052.1556,-212.5897 1050.4112,-219.3689"/>
</g>
<!-- Node181&#45;&gt;Node172 -->
<g id="edge21" class="edge">
<title>Node181&#45;&gt;Node172</title>
<path fill="none" stroke="#191970" d="M1138.8545,-237.514C1149.416,-240.278 1160.7079,-243.5042 1171,-247 1196.6407,-255.7091 1224.8884,-267.8292 1245.4656,-277.1442"/>
<polygon fill="#191970" stroke="#191970" points="1244.0744,-280.3566 1254.624,-281.3342 1246.9866,-273.9911 1244.0744,-280.3566"/>
</g>
<!-- Node181&#45;&gt;Node177 -->
<g id="edge35" class="edge">
<title>Node181&#45;&gt;Node177</title>
<path fill="none" stroke="#191970" d="M1141.799,-218.4773C1151.558,-215.84 1161.7498,-212.6732 1171,-209 1200.0405,-197.4683 1231.1977,-179.5779 1251.7567,-166.9202"/>
<polygon fill="#191970" stroke="#191970" points="1253.784,-169.7806 1260.4112,-161.5144 1250.0756,-163.8436 1253.784,-169.7806"/>
</g>
<!-- Node182 -->
<g id="node21" class="node">
<title>Node182</title>
<g id="a_node21"><a xlink:href="../../d9/d7c/_compiler_2boot_2build_2util_8c.html#ad7f719bd6355b185d211a8c8ff0cc7be" target="_top" xlink:title="omc_Util_testsuiteFriendly">
<polygon fill="#ffffff" stroke="#000000" points="1208.5,-224.5 1208.5,-243.5 1341.5,-243.5 1341.5,-224.5 1208.5,-224.5"/>
<text text-anchor="middle" x="1275" y="-231.5" font-family="Helvetica,sans-Serif" font-size="10.00" fill="#000000">omc_Util_testsuiteFriendly</text>
</a>
</g>
</g>
<!-- Node181&#45;&gt;Node182 -->
<g id="edge22" class="edge">
<title>Node181&#45;&gt;Node182</title>
<path fill="none" stroke="#191970" d="M1145.8987,-229.6237C1161.9886,-230.1691 1180.3644,-230.792 1198.1069,-231.3935"/>
<polygon fill="#191970" stroke="#191970" points="1198.3453,-234.9035 1208.4582,-231.7443 1198.5826,-227.9075 1198.3453,-234.9035"/>
</g>
<!-- Node182&#45;&gt;Node167 -->
<g id="edge31" class="edge">
<title>Node182&#45;&gt;Node167</title>
<path fill="none" stroke="#191970" d="M1298.2102,-243.6345C1319.0702,-252.0145 1350.6887,-264.0315 1379,-272 1388.5444,-274.6864 1398.7328,-277.147 1408.756,-279.3425"/>
<polygon fill="#191970" stroke="#191970" points="1408.1857,-282.7993 1418.694,-281.4482 1409.6367,-275.9514 1408.1857,-282.7993"/>
</g>
<!-- Node183 -->
<g id="node22" class="node">
<title>Node183</title>
<g id="a_node22"><a xlink:href="../../d9/d7c/_compiler_2boot_2build_2util_8c.html#ab96745984cab835c8ae43a8f02fb268b" target="_top" xlink:title="omc_Util_testsuiteFriendly2">
<polygon fill="#ffffff" stroke="#000000" points="1404.5,-205.5 1404.5,-224.5 1542.5,-224.5 1542.5,-205.5 1404.5,-205.5"/>
<text text-anchor="middle" x="1473.5" y="-212.5" font-family="Helvetica,sans-Serif" font-size="10.00" fill="#000000">omc_Util_testsuiteFriendly2</text>
</a>
</g>
</g>
<!-- Node182&#45;&gt;Node183 -->
<g id="edge23" class="edge">
<title>Node182&#45;&gt;Node183</title>
<path fill="none" stroke="#191970" d="M1341.6498,-227.6204C1358.5029,-226.0073 1376.7668,-224.2591 1394.1774,-222.5926"/>
<polygon fill="#191970" stroke="#191970" points="1394.6917,-226.0594 1404.3127,-221.6225 1394.0247,-219.0913 1394.6917,-226.0594"/>
</g>
<!-- Node191 -->
<g id="node30" class="node">
<title>Node191</title>
<g id="a_node30"><a xlink:href="../../d1/d5c/_config_8c.html#a9b4cae615bdffda9b7abbe6e04b1e6a5" target="_top" xlink:title="omc_Config_getRunningWSMTestsuite">
<polygon fill="#ffffff" stroke="#000000" points="1379,-243.5 1379,-262.5 1568,-262.5 1568,-243.5 1379,-243.5"/>
<text text-anchor="middle" x="1473.5" y="-250.5" font-family="Helvetica,sans-Serif" font-size="10.00" fill="#000000">omc_Config_getRunningWSMTestsuite</text>
</a>
</g>
</g>
<!-- Node182&#45;&gt;Node191 -->
<g id="edge32" class="edge">
<title>Node182&#45;&gt;Node191</title>
<path fill="none" stroke="#191970" d="M1341.6498,-240.3796C1350.4173,-241.2188 1359.5667,-242.0945 1368.779,-242.9763"/>
<polygon fill="#191970" stroke="#191970" points="1368.4971,-246.4653 1378.7851,-243.9341 1369.1641,-239.4971 1368.4971,-246.4653"/>
</g>
<!-- Node184 -->
<g id="node23" class="node">
<title>Node184</title>
<g id="a_node23"><a xlink:href="../../d1/d95/_system_8c.html#acb158f48d2d963dbc65eb161259659a7" target="_top" xlink:title="omc_System_basename">
<polygon fill="#ffffff" stroke="#000000" points="1610,-205.5 1610,-224.5 1735,-224.5 1735,-205.5 1610,-205.5"/>
<text text-anchor="middle" x="1672.5" y="-212.5" font-family="Helvetica,sans-Serif" font-size="10.00" fill="#000000">omc_System_basename</text>
</a>
</g>
</g>
<!-- Node183&#45;&gt;Node184 -->
<g id="edge24" class="edge">
<title>Node183&#45;&gt;Node184</title>
<path fill="none" stroke="#191970" d="M1542.5421,-215C1561.012,-215 1581.0315,-215 1599.6974,-215"/>
<polygon fill="#191970" stroke="#191970" points="1599.9096,-218.5001 1609.9096,-215 1599.9096,-211.5001 1599.9096,-218.5001"/>
</g>
<!-- Node189 -->
<g id="node28" class="node">
<title>Node189</title>
<g id="a_node28"><a xlink:href="../../d1/d95/_system_8c.html#ab4261551580fc07778c15d3b0cb0cdfd" target="_top" xlink:title="omc_System_os">
<polygon fill="#ffffff" stroke="#000000" points="1627.5,-167.5 1627.5,-186.5 1717.5,-186.5 1717.5,-167.5 1627.5,-167.5"/>
<text text-anchor="middle" x="1672.5" y="-174.5" font-family="Helvetica,sans-Serif" font-size="10.00" fill="#000000">omc_System_os</text>
</a>
</g>
</g>
<!-- Node183&#45;&gt;Node189 -->
<g id="edge29" class="edge">
<title>Node183&#45;&gt;Node189</title>
<path fill="none" stroke="#191970" d="M1523.4592,-205.46C1551.9873,-200.0125 1587.81,-193.172 1617.1851,-187.5626"/>
<polygon fill="#191970" stroke="#191970" points="1618.118,-190.9478 1627.284,-185.6342 1616.805,-184.0721 1618.118,-190.9478"/>
</g>
<!-- Node185 -->
<g id="node24" class="node">
<title>Node185</title>
<g id="a_node24"><a xlink:href="../../d8/d28/_compiler_2boot_2build_2system_8h.html#a7b722b53b1ba7f3ffdc3624727daa000" target="_top" xlink:title="System_basename">
<polygon fill="#ffffff" stroke="#000000" points="1795,-205.5 1795,-224.5 1896,-224.5 1896,-205.5 1795,-205.5"/>
<text text-anchor="middle" x="1845.5" y="-212.5" font-family="Helvetica,sans-Serif" font-size="10.00" fill="#000000">System_basename</text>
</a>
</g>
</g>
<!-- Node184&#45;&gt;Node185 -->
<g id="edge25" class="edge">
<title>Node184&#45;&gt;Node185</title>
<path fill="none" stroke="#191970" d="M1735.4464,-215C1751.4551,-215 1768.6291,-215 1784.5371,-215"/>
<polygon fill="#191970" stroke="#191970" points="1784.7833,-218.5001 1794.7833,-215 1784.7832,-211.5001 1784.7833,-218.5001"/>
</g>
<!-- Node186 -->
<g id="node25" class="node">
<title>Node186</title>
<g id="a_node25"><a xlink:href="../../d4/d45/systemimpl_8c.html#af0ce445d63d4d737a2ed25d05b45463c" target="_top" xlink:title="SystemImpl__basename">
<polygon fill="#ffffff" stroke="#000000" points="1950,-243.5 1950,-262.5 2075,-262.5 2075,-243.5 1950,-243.5"/>
<text text-anchor="middle" x="2012.5" y="-250.5" font-family="Helvetica,sans-Serif" font-size="10.00" fill="#000000">SystemImpl__basename</text>
</a>
</g>
</g>
<!-- Node185&#45;&gt;Node186 -->
<g id="edge26" class="edge">
<title>Node185&#45;&gt;Node186</title>
<path fill="none" stroke="#191970" d="M1887.6412,-224.589C1909.8771,-229.6487 1937.3482,-235.8996 1960.8564,-241.2488"/>
<polygon fill="#191970" stroke="#191970" points="1960.1345,-244.6739 1970.6619,-243.4799 1961.6877,-237.8484 1960.1345,-244.6739"/>
</g>
<!-- Node187 -->
<g id="node26" class="node">
<title>Node187</title>
<g id="a_node26"><a xlink:href="../../d7/dcd/group__core_utils.html#gaeccaa0b46edead0608a6982dddb917ec" target="_top" xlink:title="Allocate memory for a Modelica string which is used as return argument of an external Modelica functi...">
<polygon fill="#ffffff" stroke="#000000" points="1954.5,-205.5 1954.5,-224.5 2070.5,-224.5 2070.5,-205.5 1954.5,-205.5"/>
<text text-anchor="middle" x="2012.5" y="-212.5" font-family="Helvetica,sans-Serif" font-size="10.00" fill="#000000">ModelicaAllocateString</text>
</a>
</g>
</g>
<!-- Node185&#45;&gt;Node187 -->
<g id="edge27" class="edge">
<title>Node185&#45;&gt;Node187</title>
<path fill="none" stroke="#191970" d="M1896.0587,-215C1911.1001,-215 1927.8399,-215 1943.83,-215"/>
<polygon fill="#191970" stroke="#191970" points="1944.2042,-218.5001 1954.2042,-215 1944.2041,-211.5001 1944.2042,-218.5001"/>
</g>
<!-- Node188 -->
<g id="node27" class="node">
<title>Node188</title>
<g id="a_node27"><a xlink:href="../../d6/d84/3rd_party_2open62541_2open62541_8h.html#aa383452fe445bfae989358c9d7d96f4f" target="_top" xlink:title="strlen">
<polygon fill="#ffffff" stroke="#000000" points="1992,-167.5 1992,-186.5 2033,-186.5 2033,-167.5 1992,-167.5"/>
<text text-anchor="middle" x="2012.5" y="-174.5" font-family="Helvetica,sans-Serif" font-size="10.00" fill="#000000">strlen</text>
</a>
</g>
</g>
<!-- Node185&#45;&gt;Node188 -->
<g id="edge28" class="edge">
<title>Node185&#45;&gt;Node188</title>
<path fill="none" stroke="#191970" d="M1887.6412,-205.411C1916.9852,-198.7339 1955.4462,-189.9823 1981.8852,-183.9662"/>
<polygon fill="#191970" stroke="#191970" points="1982.7549,-187.3579 1991.7291,-181.7263 1981.2017,-180.5324 1982.7549,-187.3579"/>
</g>
<!-- Node190 -->
<g id="node29" class="node">
<title>Node190</title>
<g id="a_node29"><a xlink:href="../../d8/d28/_compiler_2boot_2build_2system_8h.html#a967ce96198372dc665f235bb728adb6f" target="_top" xlink:title="System_os">
<polygon fill="#ffffff" stroke="#000000" points="1812.5,-167.5 1812.5,-186.5 1878.5,-186.5 1878.5,-167.5 1812.5,-167.5"/>
<text text-anchor="middle" x="1845.5" y="-174.5" font-family="Helvetica,sans-Serif" font-size="10.00" fill="#000000">System_os</text>
</a>
</g>
</g>
<!-- Node189&#45;&gt;Node190 -->
<g id="edge30" class="edge">
<title>Node189&#45;&gt;Node190</title>
<path fill="none" stroke="#191970" d="M1717.5021,-177C1743.6358,-177 1776.3924,-177 1802.2258,-177"/>
<polygon fill="#191970" stroke="#191970" points="1802.4739,-180.5001 1812.4739,-177 1802.4738,-173.5001 1802.4739,-180.5001"/>
</g>
<!-- Node192 -->
<g id="node31" class="node">
<title>Node192</title>
<g id="a_node31"><a xlink:href="../../d3/db3/_flags_8c.html#abc3d84cf6e1cf18f0cec0f052e7c85d9" target="_top" xlink:title="omc_Flags_getConfigBool">
<polygon fill="#ffffff" stroke="#000000" points="1607,-243.5 1607,-262.5 1738,-262.5 1738,-243.5 1607,-243.5"/>
<text text-anchor="middle" x="1672.5" y="-250.5" font-family="Helvetica,sans-Serif" font-size="10.00" fill="#000000">omc_Flags_getConfigBool</text>
</a>
</g>
</g>
<!-- Node191&#45;&gt;Node192 -->
<g id="edge33" class="edge">
<title>Node191&#45;&gt;Node192</title>
<path fill="none" stroke="#191970" d="M1568.0463,-253C1577.6938,-253 1587.4037,-253 1596.8118,-253"/>
<polygon fill="#191970" stroke="#191970" points="1596.885,-256.5001 1606.8849,-253 1596.8849,-249.5001 1596.885,-256.5001"/>
</g>
<!-- Node192&#45;&gt;Node169 -->
<g id="edge34" class="edge">
<title>Node192&#45;&gt;Node169</title>
<path fill="none" stroke="#191970" d="M1716.1552,-262.589C1739.2929,-267.6713 1767.9024,-273.9554 1792.3268,-279.3203"/>
<polygon fill="#191970" stroke="#191970" points="1791.6406,-282.753 1802.1587,-281.4799 1793.1425,-275.916 1791.6406,-282.753"/>
</g>
</g>
</svg>
