<?xml version="1.0" encoding="UTF-8" standalone="no"?>
<!DOCTYPE svg PUBLIC "-//W3C//DTD SVG 1.1//EN"
 "http://www.w3.org/Graphics/SVG/1.1/DTD/svg11.dtd">
<!-- Generated by graphviz version 2.40.1 (20161225.0304)
 -->
<!-- Title: omc_CodegenCppHpcom_generateLevelFixedCodeForThreadLevel Pages: 1 -->
<svg width="1294pt" height="382pt"
 viewBox="0.00 0.00 1294.00 382.00" xmlns="http://www.w3.org/2000/svg" xmlns:xlink="http://www.w3.org/1999/xlink">
<g id="graph0" class="graph" transform="scale(1 1) rotate(0) translate(4 378)">
<title>omc_CodegenCppHpcom_generateLevelFixedCodeForThreadLevel</title>
<polygon fill="#ffffff" stroke="transparent" points="-4,4 -4,-378 1290,-378 1290,4 -4,4"/>
<!-- Node4250 -->
<g id="node1" class="node">
<title>Node4250</title>
<polygon fill="#bfbfbf" stroke="#000000" points="0,-191 0,-232 144,-232 144,-191 0,-191"/>
<text text-anchor="start" x="8" y="-220" font-family="Helvetica,sans-Serif" font-size="10.00" fill="#000000">omc_CodegenCppHpcom</text>
<text text-anchor="start" x="8" y="-209" font-family="Helvetica,sans-Serif" font-size="10.00" fill="#000000">_generateLevelFixedCodeFor</text>
<text text-anchor="middle" x="72" y="-198" font-family="Helvetica,sans-Serif" font-size="10.00" fill="#000000">ThreadLevel</text>
</g>
<!-- Node4251 -->
<g id="node2" class="node">
<title>Node4251</title>
<g id="a_node2"><a xlink:href="../../d0/d7b/_codegen_cpp_hpcom_8h.html#acb59ef1188c2152c6e49ab0063bee0bc" target="_top" xlink:title="boxptr_CodegenCppHpcom\l_generateLevelFixedCodeForThreadLevel">
<polygon fill="#ffffff" stroke="#000000" points="180,-343.5 180,-373.5 377,-373.5 377,-343.5 180,-343.5"/>
<text text-anchor="start" x="188" y="-361.5" font-family="Helvetica,sans-Serif" font-size="10.00" fill="#000000">boxptr_CodegenCppHpcom</text>
<text text-anchor="middle" x="278.5" y="-350.5" font-family="Helvetica,sans-Serif" font-size="10.00" fill="#000000">_generateLevelFixedCodeForThreadLevel</text>
</a>
</g>
</g>
<!-- Node4250&#45;&gt;Node4251 -->
<g id="edge1" class="edge">
<title>Node4250&#45;&gt;Node4251</title>
<path fill="none" stroke="#191970" d="M90.1877,-241.1125C109.1272,-269.4103 141.3985,-311.1181 180,-334.5 185.7207,-337.9652 191.9134,-340.9305 198.312,-343.4679"/>
<polygon fill="#191970" stroke="#191970" points="92.9173,-238.8913 84.5159,-232.4363 87.0582,-242.7216 92.9173,-238.8913"/>
</g>
<!-- Node4252 -->
<g id="node3" class="node">
<title>Node4252</title>
<g id="a_node3"><a xlink:href="../../df/ddf/_codegen_cpp_hpcom_8c.html#a133c2f6ad52a1eb0e8dd497ceafc030e" target="_top" xlink:title="omc_CodegenCppHpcom\l_lm__204">
<polygon fill="#ffffff" stroke="#000000" points="214,-245.5 214,-275.5 343,-275.5 343,-245.5 214,-245.5"/>
<text text-anchor="start" x="222" y="-263.5" font-family="Helvetica,sans-Serif" font-size="10.00" fill="#000000">omc_CodegenCppHpcom</text>
<text text-anchor="middle" x="278.5" y="-252.5" font-family="Helvetica,sans-Serif" font-size="10.00" fill="#000000">_lm__204</text>
</a>
</g>
</g>
<!-- Node4250&#45;&gt;Node4252 -->
<g id="edge2" class="edge">
<title>Node4250&#45;&gt;Node4252</title>
<path fill="none" stroke="#191970" d="M154.1093,-230.9836C174.4639,-235.8135 195.9638,-240.9151 215.2585,-245.4936"/>
<polygon fill="#191970" stroke="#191970" points="154.7616,-227.5412 144.2237,-228.6378 153.1454,-234.3521 154.7616,-227.5412"/>
</g>
<!-- Node4264 -->
<g id="node15" class="node">
<title>Node4264</title>
<g id="a_node15"><a xlink:href="../../df/ddf/_codegen_cpp_hpcom_8c.html#a4e6a5a30832a950f3056b348da6f0ab2" target="_top" xlink:title="omc_CodegenCppHpcom\l_lm__203">
<polygon fill="#ffffff" stroke="#000000" points="214,-294.5 214,-324.5 343,-324.5 343,-294.5 214,-294.5"/>
<text text-anchor="start" x="222" y="-312.5" font-family="Helvetica,sans-Serif" font-size="10.00" fill="#000000">omc_CodegenCppHpcom</text>
<text text-anchor="middle" x="278.5" y="-301.5" font-family="Helvetica,sans-Serif" font-size="10.00" fill="#000000">_lm__203</text>
</a>
</g>
</g>
<!-- Node4250&#45;&gt;Node4264 -->
<g id="edge14" class="edge">
<title>Node4250&#45;&gt;Node4264</title>
<path fill="none" stroke="#191970" d="M104.6749,-238.5337C125.1858,-254.2824 152.8198,-273.3668 180,-285.5 190.6077,-290.2353 202.2929,-294.1242 213.7948,-297.2883"/>
<polygon fill="#191970" stroke="#191970" points="106.6571,-235.6408 96.6226,-232.2412 102.3469,-241.1565 106.6571,-235.6408"/>
</g>
<!-- Node4266 -->
<g id="node17" class="node">
<title>Node4266</title>
<g id="a_node17"><a xlink:href="../../df/ddf/_codegen_cpp_hpcom_8c.html#ae9b8cd42a0ee9f208e9ce84fc2fe0b08" target="_top" xlink:title="omc_CodegenCppHpcom\l_lm__202">
<polygon fill="#ffffff" stroke="#000000" points="214,-196.5 214,-226.5 343,-226.5 343,-196.5 214,-196.5"/>
<text text-anchor="start" x="222" y="-214.5" font-family="Helvetica,sans-Serif" font-size="10.00" fill="#000000">omc_CodegenCppHpcom</text>
<text text-anchor="middle" x="278.5" y="-203.5" font-family="Helvetica,sans-Serif" font-size="10.00" fill="#000000">_lm__202</text>
</a>
</g>
</g>
<!-- Node4250&#45;&gt;Node4266 -->
<g id="edge17" class="edge">
<title>Node4250&#45;&gt;Node4266</title>
<path fill="none" stroke="#191970" d="M154.4525,-211.5C174.2291,-211.5 195.0677,-211.5 213.9011,-211.5"/>
<polygon fill="#191970" stroke="#191970" points="154.2237,-208.0001 144.2237,-211.5 154.2236,-215.0001 154.2237,-208.0001"/>
</g>
<!-- Node4268 -->
<g id="node19" class="node">
<title>Node4268</title>
<g id="a_node19"><a xlink:href="../../df/ddf/_codegen_cpp_hpcom_8c.html#a20e7a91794edc3a29c579bb3fffad370" target="_top" xlink:title="omc_CodegenCppHpcom\l_lm__193">
<polygon fill="#ffffff" stroke="#000000" points="214,-147.5 214,-177.5 343,-177.5 343,-147.5 214,-147.5"/>
<text text-anchor="start" x="222" y="-165.5" font-family="Helvetica,sans-Serif" font-size="10.00" fill="#000000">omc_CodegenCppHpcom</text>
<text text-anchor="middle" x="278.5" y="-154.5" font-family="Helvetica,sans-Serif" font-size="10.00" fill="#000000">_lm__193</text>
</a>
</g>
</g>
<!-- Node4250&#45;&gt;Node4268 -->
<g id="edge20" class="edge">
<title>Node4250&#45;&gt;Node4268</title>
<path fill="none" stroke="#191970" d="M154.1093,-192.0164C174.4639,-187.1865 195.9638,-182.0849 215.2585,-177.5064"/>
<polygon fill="#191970" stroke="#191970" points="153.1454,-188.6479 144.2237,-194.3622 154.7616,-195.4588 153.1454,-188.6479"/>
</g>
<!-- Node4272 -->
<g id="node23" class="node">
<title>Node4272</title>
<g id="a_node23"><a xlink:href="../../df/ddf/_codegen_cpp_hpcom_8c.html#a04bf81d77821724656c551981a79c0e6" target="_top" xlink:title="omc_CodegenCppHpcom\l_lm__192">
<polygon fill="#ffffff" stroke="#000000" points="214,-98.5 214,-128.5 343,-128.5 343,-98.5 214,-98.5"/>
<text text-anchor="start" x="222" y="-116.5" font-family="Helvetica,sans-Serif" font-size="10.00" fill="#000000">omc_CodegenCppHpcom</text>
<text text-anchor="middle" x="278.5" y="-105.5" font-family="Helvetica,sans-Serif" font-size="10.00" fill="#000000">_lm__192</text>
</a>
</g>
</g>
<!-- Node4250&#45;&gt;Node4272 -->
<g id="edge25" class="edge">
<title>Node4250&#45;&gt;Node4272</title>
<path fill="none" stroke="#191970" d="M104.6749,-184.4663C125.1858,-168.7176 152.8198,-149.6332 180,-137.5 190.6077,-132.7647 202.2929,-128.8758 213.7948,-125.7117"/>
<polygon fill="#191970" stroke="#191970" points="102.3469,-181.8435 96.6226,-190.7588 106.6571,-187.3592 102.3469,-181.8435"/>
</g>
<!-- Node4274 -->
<g id="node25" class="node">
<title>Node4274</title>
<g id="a_node25"><a xlink:href="../../df/ddf/_codegen_cpp_hpcom_8c.html#ac5116cfd0cb2a5a7b6c9b14ca817f392" target="_top" xlink:title="omc_CodegenCppHpcom\l_lm__191">
<polygon fill="#ffffff" stroke="#000000" points="214,-49.5 214,-79.5 343,-79.5 343,-49.5 214,-49.5"/>
<text text-anchor="start" x="222" y="-67.5" font-family="Helvetica,sans-Serif" font-size="10.00" fill="#000000">omc_CodegenCppHpcom</text>
<text text-anchor="middle" x="278.5" y="-56.5" font-family="Helvetica,sans-Serif" font-size="10.00" fill="#000000">_lm__191</text>
</a>
</g>
</g>
<!-- Node4250&#45;&gt;Node4274 -->
<g id="edge28" class="edge">
<title>Node4250&#45;&gt;Node4274</title>
<path fill="none" stroke="#191970" d="M90.1877,-181.8875C109.1272,-153.5897 141.3985,-111.8819 180,-88.5 190.3124,-82.2535 202.1584,-77.6315 213.979,-74.2119"/>
<polygon fill="#191970" stroke="#191970" points="87.0582,-180.2784 84.5159,-190.5637 92.9173,-184.1087 87.0582,-180.2784"/>
</g>
<!-- Node4253 -->
<g id="node4" class="node">
<title>Node4253</title>
<g id="a_node4"><a xlink:href="../../df/ddf/_codegen_cpp_hpcom_8c.html#a973df59e36ffb7f9e9be8014fe77de48" target="_top" xlink:title="omc_CodegenCppHpcom\l_fun__212">
<polygon fill="#ffffff" stroke="#000000" points="417,-294.5 417,-324.5 546,-324.5 546,-294.5 417,-294.5"/>
<text text-anchor="start" x="425" y="-312.5" font-family="Helvetica,sans-Serif" font-size="10.00" fill="#000000">omc_CodegenCppHpcom</text>
<text text-anchor="middle" x="481.5" y="-301.5" font-family="Helvetica,sans-Serif" font-size="10.00" fill="#000000">_fun__212</text>
</a>
</g>
</g>
<!-- Node4252&#45;&gt;Node4253 -->
<g id="edge3" class="edge">
<title>Node4252&#45;&gt;Node4253</title>
<path fill="none" stroke="#191970" d="M350.6016,-277.9038C373.058,-283.3243 397.6155,-289.252 419.3315,-294.4938"/>
<polygon fill="#191970" stroke="#191970" points="351.3284,-274.4788 340.7863,-275.5346 349.6858,-281.2834 351.3284,-274.4788"/>
</g>
<!-- Node4263 -->
<g id="node14" class="node">
<title>Node4263</title>
<g id="a_node14"><a xlink:href="../../df/ddf/_codegen_cpp_hpcom_8c.html#a6090ec5d1230a3ac2a56b22419c93722" target="_top" xlink:title="boxptr_CodegenCppHpcom\l_lm__204">
<polygon fill="#ffffff" stroke="#000000" points="413,-245.5 413,-275.5 550,-275.5 550,-245.5 413,-245.5"/>
<text text-anchor="start" x="421" y="-263.5" font-family="Helvetica,sans-Serif" font-size="10.00" fill="#000000">boxptr_CodegenCppHpcom</text>
<text text-anchor="middle" x="481.5" y="-252.5" font-family="Helvetica,sans-Serif" font-size="10.00" fill="#000000">_lm__204</text>
</a>
</g>
</g>
<!-- Node4252&#45;&gt;Node4263 -->
<g id="edge13" class="edge">
<title>Node4252&#45;&gt;Node4263</title>
<path fill="none" stroke="#191970" d="M353.1009,-260.5C372.6821,-260.5 393.7028,-260.5 412.9504,-260.5"/>
<polygon fill="#191970" stroke="#191970" points="353.0094,-257.0001 343.0094,-260.5 353.0094,-264.0001 353.0094,-257.0001"/>
</g>
<!-- Node4254 -->
<g id="node5" class="node">
<title>Node4254</title>
<g id="a_node5"><a xlink:href="../../df/ddf/_codegen_cpp_hpcom_8c.html#af2502618f08b2a98bed99c0dced86ab7" target="_top" xlink:title="omc_CodegenCppHpcom\l_fun__213">
<polygon fill="#ffffff" stroke="#000000" points="590,-196.5 590,-226.5 719,-226.5 719,-196.5 590,-196.5"/>
<text text-anchor="start" x="598" y="-214.5" font-family="Helvetica,sans-Serif" font-size="10.00" fill="#000000">omc_CodegenCppHpcom</text>
<text text-anchor="middle" x="654.5" y="-203.5" font-family="Helvetica,sans-Serif" font-size="10.00" fill="#000000">_fun__213</text>
</a>
</g>
</g>
<!-- Node4253&#45;&gt;Node4254 -->
<g id="edge4" class="edge">
<title>Node4253&#45;&gt;Node4254</title>
<path fill="none" stroke="#191970" d="M539.6341,-290.4269C543.1869,-288.8639 546.6689,-287.2198 550,-285.5 582.593,-268.6731 616.583,-242.796 636.6294,-226.5252"/>
<polygon fill="#191970" stroke="#191970" points="538.0172,-287.3082 530.1193,-294.3704 540.6974,-293.7749 538.0172,-287.3082"/>
</g>
<!-- Node4262 -->
<g id="node13" class="node">
<title>Node4262</title>
<g id="a_node13"><a xlink:href="../../df/ddf/_codegen_cpp_hpcom_8c.html#a5cab174a06ec444c940e93cfc2941d55" target="_top" xlink:title="boxptr_CodegenCppHpcom\l_fun__212">
<polygon fill="#ffffff" stroke="#000000" points="586,-294.5 586,-324.5 723,-324.5 723,-294.5 586,-294.5"/>
<text text-anchor="start" x="594" y="-312.5" font-family="Helvetica,sans-Serif" font-size="10.00" fill="#000000">boxptr_CodegenCppHpcom</text>
<text text-anchor="middle" x="654.5" y="-301.5" font-family="Helvetica,sans-Serif" font-size="10.00" fill="#000000">_fun__212</text>
</a>
</g>
</g>
<!-- Node4253&#45;&gt;Node4262 -->
<g id="edge12" class="edge">
<title>Node4253&#45;&gt;Node4262</title>
<path fill="none" stroke="#191970" d="M556.462,-309.5C566.1962,-309.5 576.1289,-309.5 585.755,-309.5"/>
<polygon fill="#191970" stroke="#191970" points="556.4111,-306.0001 546.411,-309.5 556.411,-313.0001 556.4111,-306.0001"/>
</g>
<!-- Node4255 -->
<g id="node6" class="node">
<title>Node4255</title>
<g id="a_node6"><a xlink:href="../../d0/d7b/_codegen_cpp_hpcom_8h.html#a731e559f7bbaa102e4c2e061d009842d" target="_top" xlink:title="omc_CodegenCppHpcom\l_generateLevelFixedCodeFor\lThread">
<polygon fill="#ffffff" stroke="#000000" points="759,-218 759,-259 903,-259 903,-218 759,-218"/>
<text text-anchor="start" x="767" y="-247" font-family="Helvetica,sans-Serif" font-size="10.00" fill="#000000">omc_CodegenCppHpcom</text>
<text text-anchor="start" x="767" y="-236" font-family="Helvetica,sans-Serif" font-size="10.00" fill="#000000">_generateLevelFixedCodeFor</text>
<text text-anchor="middle" x="831" y="-225" font-family="Helvetica,sans-Serif" font-size="10.00" fill="#000000">Thread</text>
</a>
</g>
</g>
<!-- Node4254&#45;&gt;Node4255 -->
<g id="edge5" class="edge">
<title>Node4254&#45;&gt;Node4255</title>
<path fill="none" stroke="#191970" d="M729.3115,-222.9443C739.0937,-224.4407 749.1015,-225.9716 758.8387,-227.4612"/>
<polygon fill="#191970" stroke="#191970" points="729.6342,-219.453 719.2199,-221.4005 728.5756,-226.3725 729.6342,-219.453"/>
</g>
<!-- Node4261 -->
<g id="node12" class="node">
<title>Node4261</title>
<g id="a_node12"><a xlink:href="../../df/ddf/_codegen_cpp_hpcom_8c.html#ab6806e50f87b6664a2dedbbdec280998" target="_top" xlink:title="boxptr_CodegenCppHpcom\l_fun__213">
<polygon fill="#ffffff" stroke="#000000" points="762.5,-168.5 762.5,-198.5 899.5,-198.5 899.5,-168.5 762.5,-168.5"/>
<text text-anchor="start" x="770.5" y="-186.5" font-family="Helvetica,sans-Serif" font-size="10.00" fill="#000000">boxptr_CodegenCppHpcom</text>
<text text-anchor="middle" x="831" y="-175.5" font-family="Helvetica,sans-Serif" font-size="10.00" fill="#000000">_fun__213</text>
</a>
</g>
</g>
<!-- Node4254&#45;&gt;Node4261 -->
<g id="edge11" class="edge">
<title>Node4254&#45;&gt;Node4261</title>
<path fill="none" stroke="#191970" d="M729.2337,-199.6442C740.2478,-197.8969 751.5496,-196.104 762.4309,-194.3778"/>
<polygon fill="#191970" stroke="#191970" points="728.5479,-196.2092 719.2199,-201.2328 729.6448,-203.1227 728.5479,-196.2092"/>
</g>
<!-- Node4256 -->
<g id="node7" class="node">
<title>Node4256</title>
<g id="a_node7"><a xlink:href="../../d0/d7b/_codegen_cpp_hpcom_8h.html#aa51aa4bad9f742cb8d046373660b6710" target="_top" xlink:title="boxptr_CodegenCppHpcom\l_generateLevelFixedCodeForThread">
<polygon fill="#ffffff" stroke="#000000" points="939,-272.5 939,-302.5 1113,-302.5 1113,-272.5 939,-272.5"/>
<text text-anchor="start" x="947" y="-290.5" font-family="Helvetica,sans-Serif" font-size="10.00" fill="#000000">boxptr_CodegenCppHpcom</text>
<text text-anchor="middle" x="1026" y="-279.5" font-family="Helvetica,sans-Serif" font-size="10.00" fill="#000000">_generateLevelFixedCodeForThread</text>
</a>
</g>
</g>
<!-- Node4255&#45;&gt;Node4256 -->
<g id="edge6" class="edge">
<title>Node4255&#45;&gt;Node4256</title>
<path fill="none" stroke="#191970" d="M912.8753,-259.0738C930.7095,-263.5552 949.2598,-268.2166 966.0552,-272.4369"/>
<polygon fill="#191970" stroke="#191970" points="913.6083,-255.6492 903.0568,-256.6066 911.9023,-262.4382 913.6083,-255.6492"/>
</g>
<!-- Node4257 -->
<g id="node8" class="node">
<title>Node4257</title>
<g id="a_node8"><a xlink:href="../../df/ddf/_codegen_cpp_hpcom_8c.html#ab6e275dc7d523e5944b2172ec14a1603" target="_top" xlink:title="omc_CodegenCppHpcom\l_lm__160">
<polygon fill="#ffffff" stroke="#000000" points="961.5,-223.5 961.5,-253.5 1090.5,-253.5 1090.5,-223.5 961.5,-223.5"/>
<text text-anchor="start" x="969.5" y="-241.5" font-family="Helvetica,sans-Serif" font-size="10.00" fill="#000000">omc_CodegenCppHpcom</text>
<text text-anchor="middle" x="1026" y="-230.5" font-family="Helvetica,sans-Serif" font-size="10.00" fill="#000000">_lm__160</text>
</a>
</g>
</g>
<!-- Node4255&#45;&gt;Node4257 -->
<g id="edge7" class="edge">
<title>Node4255&#45;&gt;Node4257</title>
<path fill="none" stroke="#191970" d="M913.4669,-238.5C929.458,-238.5 946.0018,-238.5 961.3218,-238.5"/>
<polygon fill="#191970" stroke="#191970" points="913.0568,-235.0001 903.0568,-238.5 913.0567,-242.0001 913.0568,-235.0001"/>
</g>
<!-- Node4259 -->
<g id="node10" class="node">
<title>Node4259</title>
<g id="a_node10"><a xlink:href="../../df/ddf/_codegen_cpp_hpcom_8c.html#a40695716d5d34e5ca16f791a13034bbc" target="_top" xlink:title="omc_CodegenCppHpcom\l_lm__158">
<polygon fill="#ffffff" stroke="#000000" points="961.5,-174.5 961.5,-204.5 1090.5,-204.5 1090.5,-174.5 961.5,-174.5"/>
<text text-anchor="start" x="969.5" y="-192.5" font-family="Helvetica,sans-Serif" font-size="10.00" fill="#000000">omc_CodegenCppHpcom</text>
<text text-anchor="middle" x="1026" y="-181.5" font-family="Helvetica,sans-Serif" font-size="10.00" fill="#000000">_lm__158</text>
</a>
</g>
</g>
<!-- Node4255&#45;&gt;Node4259 -->
<g id="edge9" class="edge">
<title>Node4255&#45;&gt;Node4259</title>
<path fill="none" stroke="#191970" d="M912.8753,-217.9262C930.7095,-213.4448 949.2598,-208.7834 966.0552,-204.5631"/>
<polygon fill="#191970" stroke="#191970" points="911.9023,-214.5618 903.0568,-220.3934 913.6083,-221.3508 911.9023,-214.5618"/>
</g>
<!-- Node4258 -->
<g id="node9" class="node">
<title>Node4258</title>
<g id="a_node9"><a xlink:href="../../df/ddf/_codegen_cpp_hpcom_8c.html#a5e4daff45150b74cf3d8b49a794a70db" target="_top" xlink:title="boxptr_CodegenCppHpcom\l_lm__160">
<polygon fill="#ffffff" stroke="#000000" points="1149,-223.5 1149,-253.5 1286,-253.5 1286,-223.5 1149,-223.5"/>
<text text-anchor="start" x="1157" y="-241.5" font-family="Helvetica,sans-Serif" font-size="10.00" fill="#000000">boxptr_CodegenCppHpcom</text>
<text text-anchor="middle" x="1217.5" y="-230.5" font-family="Helvetica,sans-Serif" font-size="10.00" fill="#000000">_lm__160</text>
</a>
</g>
</g>
<!-- Node4257&#45;&gt;Node4258 -->
<g id="edge8" class="edge">
<title>Node4257&#45;&gt;Node4258</title>
<path fill="none" stroke="#191970" d="M1100.847,-238.5C1116.6974,-238.5 1133.3513,-238.5 1148.9541,-238.5"/>
<polygon fill="#191970" stroke="#191970" points="1100.5662,-235.0001 1090.5662,-238.5 1100.5662,-242.0001 1100.5662,-235.0001"/>
</g>
<!-- Node4260 -->
<g id="node11" class="node">
<title>Node4260</title>
<g id="a_node11"><a xlink:href="../../df/ddf/_codegen_cpp_hpcom_8c.html#a69f067a720d6a37baa7935c340b19b45" target="_top" xlink:title="boxptr_CodegenCppHpcom\l_lm__158">
<polygon fill="#ffffff" stroke="#000000" points="1149,-174.5 1149,-204.5 1286,-204.5 1286,-174.5 1149,-174.5"/>
<text text-anchor="start" x="1157" y="-192.5" font-family="Helvetica,sans-Serif" font-size="10.00" fill="#000000">boxptr_CodegenCppHpcom</text>
<text text-anchor="middle" x="1217.5" y="-181.5" font-family="Helvetica,sans-Serif" font-size="10.00" fill="#000000">_lm__158</text>
</a>
</g>
</g>
<!-- Node4259&#45;&gt;Node4260 -->
<g id="edge10" class="edge">
<title>Node4259&#45;&gt;Node4260</title>
<path fill="none" stroke="#191970" d="M1100.847,-189.5C1116.6974,-189.5 1133.3513,-189.5 1148.9541,-189.5"/>
<polygon fill="#191970" stroke="#191970" points="1100.5662,-186.0001 1090.5662,-189.5 1100.5662,-193.0001 1100.5662,-186.0001"/>
</g>
<!-- Node4264&#45;&gt;Node4253 -->
<g id="edge15" class="edge">
<title>Node4264&#45;&gt;Node4253</title>
<path fill="none" stroke="#191970" d="M353.1177,-309.5C374.0116,-309.5 396.5433,-309.5 416.8101,-309.5"/>
<polygon fill="#191970" stroke="#191970" points="353.0094,-306.0001 343.0094,-309.5 353.0094,-313.0001 353.0094,-306.0001"/>
</g>
<!-- Node4265 -->
<g id="node16" class="node">
<title>Node4265</title>
<g id="a_node16"><a xlink:href="../../df/ddf/_codegen_cpp_hpcom_8c.html#a2046e163aaafa3ad52ef47a1620d2127" target="_top" xlink:title="boxptr_CodegenCppHpcom\l_lm__203">
<polygon fill="#ffffff" stroke="#000000" points="413,-343.5 413,-373.5 550,-373.5 550,-343.5 413,-343.5"/>
<text text-anchor="start" x="421" y="-361.5" font-family="Helvetica,sans-Serif" font-size="10.00" fill="#000000">boxptr_CodegenCppHpcom</text>
<text text-anchor="middle" x="481.5" y="-350.5" font-family="Helvetica,sans-Serif" font-size="10.00" fill="#000000">_lm__203</text>
</a>
</g>
</g>
<!-- Node4264&#45;&gt;Node4265 -->
<g id="edge16" class="edge">
<title>Node4264&#45;&gt;Node4265</title>
<path fill="none" stroke="#191970" d="M350.6016,-326.9038C373.058,-332.3243 397.6155,-338.252 419.3315,-343.4938"/>
<polygon fill="#191970" stroke="#191970" points="351.3284,-323.4788 340.7863,-324.5346 349.6858,-330.2834 351.3284,-323.4788"/>
</g>
<!-- Node4266&#45;&gt;Node4253 -->
<g id="edge18" class="edge">
<title>Node4266&#45;&gt;Node4253</title>
<path fill="none" stroke="#191970" d="M352.9158,-224.4116C361.4246,-227.5929 369.6645,-231.558 377,-236.5 399.4119,-251.599 391.2775,-269.425 413,-285.5 417.5582,-288.8731 422.6304,-291.802 427.8952,-294.3385"/>
<polygon fill="#191970" stroke="#191970" points="353.8229,-221.0238 343.2288,-221.1424 351.5846,-227.6563 353.8229,-221.0238"/>
</g>
<!-- Node4267 -->
<g id="node18" class="node">
<title>Node4267</title>
<g id="a_node18"><a xlink:href="../../df/ddf/_codegen_cpp_hpcom_8c.html#a3fb07f92f059d941acdaadb2f769b007" target="_top" xlink:title="boxptr_CodegenCppHpcom\l_lm__202">
<polygon fill="#ffffff" stroke="#000000" points="413,-196.5 413,-226.5 550,-226.5 550,-196.5 413,-196.5"/>
<text text-anchor="start" x="421" y="-214.5" font-family="Helvetica,sans-Serif" font-size="10.00" fill="#000000">boxptr_CodegenCppHpcom</text>
<text text-anchor="middle" x="481.5" y="-203.5" font-family="Helvetica,sans-Serif" font-size="10.00" fill="#000000">_lm__202</text>
</a>
</g>
</g>
<!-- Node4266&#45;&gt;Node4267 -->
<g id="edge19" class="edge">
<title>Node4266&#45;&gt;Node4267</title>
<path fill="none" stroke="#191970" d="M353.1009,-211.5C372.6821,-211.5 393.7028,-211.5 412.9504,-211.5"/>
<polygon fill="#191970" stroke="#191970" points="353.0094,-208.0001 343.0094,-211.5 353.0094,-215.0001 353.0094,-208.0001"/>
</g>
<!-- Node4269 -->
<g id="node20" class="node">
<title>Node4269</title>
<g id="a_node20"><a xlink:href="../../df/ddf/_codegen_cpp_hpcom_8c.html#a542a92c48101b24695789703b3f32c4e" target="_top" xlink:title="omc_CodegenCppHpcom\l_fun__201">
<polygon fill="#ffffff" stroke="#000000" points="417,-98.5 417,-128.5 546,-128.5 546,-98.5 417,-98.5"/>
<text text-anchor="start" x="425" y="-116.5" font-family="Helvetica,sans-Serif" font-size="10.00" fill="#000000">omc_CodegenCppHpcom</text>
<text text-anchor="middle" x="481.5" y="-105.5" font-family="Helvetica,sans-Serif" font-size="10.00" fill="#000000">_fun__201</text>
</a>
</g>
</g>
<!-- Node4268&#45;&gt;Node4269 -->
<g id="edge21" class="edge">
<title>Node4268&#45;&gt;Node4269</title>
<path fill="none" stroke="#191970" d="M350.6016,-145.0962C373.058,-139.6757 397.6155,-133.748 419.3315,-128.5062"/>
<polygon fill="#191970" stroke="#191970" points="349.6858,-141.7166 340.7863,-147.4654 351.3284,-148.5212 349.6858,-141.7166"/>
</g>
<!-- Node4271 -->
<g id="node22" class="node">
<title>Node4271</title>
<g id="a_node22"><a xlink:href="../../df/ddf/_codegen_cpp_hpcom_8c.html#a3e3d06b4daa67790e558f2a6a9522a83" target="_top" xlink:title="boxptr_CodegenCppHpcom\l_lm__193">
<polygon fill="#ffffff" stroke="#000000" points="413,-147.5 413,-177.5 550,-177.5 550,-147.5 413,-147.5"/>
<text text-anchor="start" x="421" y="-165.5" font-family="Helvetica,sans-Serif" font-size="10.00" fill="#000000">boxptr_CodegenCppHpcom</text>
<text text-anchor="middle" x="481.5" y="-154.5" font-family="Helvetica,sans-Serif" font-size="10.00" fill="#000000">_lm__193</text>
</a>
</g>
</g>
<!-- Node4268&#45;&gt;Node4271 -->
<g id="edge24" class="edge">
<title>Node4268&#45;&gt;Node4271</title>
<path fill="none" stroke="#191970" d="M353.1009,-162.5C372.6821,-162.5 393.7028,-162.5 412.9504,-162.5"/>
<polygon fill="#191970" stroke="#191970" points="353.0094,-159.0001 343.0094,-162.5 353.0094,-166.0001 353.0094,-159.0001"/>
</g>
<!-- Node4269&#45;&gt;Node4254 -->
<g id="edge22" class="edge">
<title>Node4269&#45;&gt;Node4254</title>
<path fill="none" stroke="#191970" d="M539.6341,-132.5731C543.1869,-134.1361 546.6689,-135.7802 550,-137.5 582.593,-154.3269 616.583,-180.204 636.6294,-196.4748"/>
<polygon fill="#191970" stroke="#191970" points="540.6974,-129.2251 530.1193,-128.6296 538.0172,-135.6918 540.6974,-129.2251"/>
</g>
<!-- Node4270 -->
<g id="node21" class="node">
<title>Node4270</title>
<g id="a_node21"><a xlink:href="../../df/ddf/_codegen_cpp_hpcom_8c.html#a349bdecb33ac2175ee6a9d2fcb66c45c" target="_top" xlink:title="boxptr_CodegenCppHpcom\l_fun__201">
<polygon fill="#ffffff" stroke="#000000" points="586,-98.5 586,-128.5 723,-128.5 723,-98.5 586,-98.5"/>
<text text-anchor="start" x="594" y="-116.5" font-family="Helvetica,sans-Serif" font-size="10.00" fill="#000000">boxptr_CodegenCppHpcom</text>
<text text-anchor="middle" x="654.5" y="-105.5" font-family="Helvetica,sans-Serif" font-size="10.00" fill="#000000">_fun__201</text>
</a>
</g>
</g>
<!-- Node4269&#45;&gt;Node4270 -->
<g id="edge23" class="edge">
<title>Node4269&#45;&gt;Node4270</title>
<path fill="none" stroke="#191970" d="M556.462,-113.5C566.1962,-113.5 576.1289,-113.5 585.755,-113.5"/>
<polygon fill="#191970" stroke="#191970" points="556.4111,-110.0001 546.411,-113.5 556.411,-117.0001 556.4111,-110.0001"/>
</g>
<!-- Node4272&#45;&gt;Node4269 -->
<g id="edge26" class="edge">
<title>Node4272&#45;&gt;Node4269</title>
<path fill="none" stroke="#191970" d="M353.1177,-113.5C374.0116,-113.5 396.5433,-113.5 416.8101,-113.5"/>
<polygon fill="#191970" stroke="#191970" points="353.0094,-110.0001 343.0094,-113.5 353.0094,-117.0001 353.0094,-110.0001"/>
</g>
<!-- Node4273 -->
<g id="node24" class="node">
<title>Node4273</title>
<g id="a_node24"><a xlink:href="../../df/ddf/_codegen_cpp_hpcom_8c.html#aac05193f9077a2aded008c1a93e54d07" target="_top" xlink:title="boxptr_CodegenCppHpcom\l_lm__192">
<polygon fill="#ffffff" stroke="#000000" points="413,-49.5 413,-79.5 550,-79.5 550,-49.5 413,-49.5"/>
<text text-anchor="start" x="421" y="-67.5" font-family="Helvetica,sans-Serif" font-size="10.00" fill="#000000">boxptr_CodegenCppHpcom</text>
<text text-anchor="middle" x="481.5" y="-56.5" font-family="Helvetica,sans-Serif" font-size="10.00" fill="#000000">_lm__192</text>
</a>
</g>
</g>
<!-- Node4272&#45;&gt;Node4273 -->
<g id="edge27" class="edge">
<title>Node4272&#45;&gt;Node4273</title>
<path fill="none" stroke="#191970" d="M350.6016,-96.0962C373.058,-90.6757 397.6155,-84.748 419.3315,-79.5062"/>
<polygon fill="#191970" stroke="#191970" points="349.6858,-92.7166 340.7863,-98.4654 351.3284,-99.5212 349.6858,-92.7166"/>
</g>
<!-- Node4274&#45;&gt;Node4269 -->
<g id="edge29" class="edge">
<title>Node4274&#45;&gt;Node4269</title>
<path fill="none" stroke="#191970" d="M350.6016,-81.9038C373.058,-87.3243 397.6155,-93.252 419.3315,-98.4938"/>
<polygon fill="#191970" stroke="#191970" points="351.3284,-78.4788 340.7863,-79.5346 349.6858,-85.2834 351.3284,-78.4788"/>
</g>
<!-- Node4275 -->
<g id="node26" class="node">
<title>Node4275</title>
<g id="a_node26"><a xlink:href="../../df/ddf/_codegen_cpp_hpcom_8c.html#a439d925b6db6254424113198b01741f0" target="_top" xlink:title="boxptr_CodegenCppHpcom\l_lm__191">
<polygon fill="#ffffff" stroke="#000000" points="413,-.5 413,-30.5 550,-30.5 550,-.5 413,-.5"/>
<text text-anchor="start" x="421" y="-18.5" font-family="Helvetica,sans-Serif" font-size="10.00" fill="#000000">boxptr_CodegenCppHpcom</text>
<text text-anchor="middle" x="481.5" y="-7.5" font-family="Helvetica,sans-Serif" font-size="10.00" fill="#000000">_lm__191</text>
</a>
</g>
</g>
<!-- Node4274&#45;&gt;Node4275 -->
<g id="edge30" class="edge">
<title>Node4274&#45;&gt;Node4275</title>
<path fill="none" stroke="#191970" d="M350.6016,-47.0962C373.058,-41.6757 397.6155,-35.748 419.3315,-30.5062"/>
<polygon fill="#191970" stroke="#191970" points="349.6858,-43.7166 340.7863,-49.4654 351.3284,-50.5212 349.6858,-43.7166"/>
</g>
</g>
</svg>
