<?xml version="1.0" encoding="UTF-8" standalone="no"?>
<!DOCTYPE svg PUBLIC "-//W3C//DTD SVG 1.1//EN"
 "http://www.w3.org/Graphics/SVG/1.1/DTD/svg11.dtd">
<!-- Generated by graphviz version 2.40.1 (20161225.0304)
 -->
<!-- Title: CallbackFunctions::getJacobianStructure Pages: 1 -->
<svg width="260pt" height="137pt"
 viewBox="0.00 0.00 260.00 137.00" xmlns="http://www.w3.org/2000/svg" xmlns:xlink="http://www.w3.org/1999/xlink">
<g id="graph0" class="graph" transform="scale(1 1) rotate(0) translate(4 133)">
<title>CallbackFunctions::getJacobianStructure</title>
<polygon fill="#ffffff" stroke="transparent" points="-4,4 -4,-133 256,-133 256,4 -4,4"/>
<!-- Node47 -->
<g id="node1" class="node">
<title>Node47</title>
<polygon fill="#bfbfbf" stroke="#000000" points="0,-49.5 0,-79.5 109,-79.5 109,-49.5 0,-49.5"/>
<text text-anchor="start" x="8" y="-67.5" font-family="Helvetica,sans-Serif" font-size="10.00" fill="#000000">CallbackFunctions::</text>
<text text-anchor="middle" x="54.5" y="-56.5" font-family="Helvetica,sans-Serif" font-size="10.00" fill="#000000">getJacobianStructure</text>
</g>
<!-- Node48 -->
<g id="node2" class="node">
<title>Node48</title>
<g id="a_node2"><a xlink:href="../../d1/d04/class_callback_functions.html#ac7aea8a1a3834587b805c5bf8e1f5598" target="_top" xlink:title="CallbackFunctions::\literFuncIsAvailable">
<polygon fill="#ffffff" stroke="#000000" points="146.5,-98.5 146.5,-128.5 250.5,-128.5 250.5,-98.5 146.5,-98.5"/>
<text text-anchor="start" x="154.5" y="-116.5" font-family="Helvetica,sans-Serif" font-size="10.00" fill="#000000">CallbackFunctions::</text>
<text text-anchor="middle" x="198.5" y="-105.5" font-family="Helvetica,sans-Serif" font-size="10.00" fill="#000000">iterFuncIsAvailable</text>
</a>
</g>
</g>
<!-- Node47&#45;&gt;Node48 -->
<g id="edge1" class="edge">
<title>Node47&#45;&gt;Node48</title>
<path fill="none" stroke="#191970" d="M108.543,-82.8896C123.5364,-87.9916 139.6395,-93.4711 154.0189,-98.3641"/>
<polygon fill="#191970" stroke="#191970" points="109.4742,-79.5095 98.8797,-79.6014 107.2192,-86.1363 109.4742,-79.5095"/>
</g>
<!-- Node49 -->
<g id="node3" class="node">
<title>Node49</title>
<g id="a_node3"><a xlink:href="../../da/da5/class_matlab_program.html#a75b95c37cef97ca1e0793c40e81371e5" target="_top" xlink:title="MatlabProgram::get\l_nlp_info">
<polygon fill="#ffffff" stroke="#000000" points="147.5,-49.5 147.5,-79.5 249.5,-79.5 249.5,-49.5 147.5,-49.5"/>
<text text-anchor="start" x="155.5" y="-67.5" font-family="Helvetica,sans-Serif" font-size="10.00" fill="#000000">MatlabProgram::get</text>
<text text-anchor="middle" x="198.5" y="-56.5" font-family="Helvetica,sans-Serif" font-size="10.00" fill="#000000">_nlp_info</text>
</a>
</g>
</g>
<!-- Node47&#45;&gt;Node49 -->
<g id="edge2" class="edge">
<title>Node47&#45;&gt;Node49</title>
<path fill="none" stroke="#191970" d="M119.3542,-64.5C128.6584,-64.5 138.1234,-64.5 147.1194,-64.5"/>
<polygon fill="#191970" stroke="#191970" points="119.351,-61.0001 109.351,-64.5 119.351,-68.0001 119.351,-61.0001"/>
</g>
<!-- Node50 -->
<g id="node4" class="node">
<title>Node50</title>
<g id="a_node4"><a xlink:href="../../da/da5/class_matlab_program.html#aa636f9b4289e32b2b09734931a8026e6" target="_top" xlink:title="MatlabProgram::eval\l_jac_g">
<polygon fill="#ffffff" stroke="#000000" points="145,-.5 145,-30.5 252,-30.5 252,-.5 145,-.5"/>
<text text-anchor="start" x="153" y="-18.5" font-family="Helvetica,sans-Serif" font-size="10.00" fill="#000000">MatlabProgram::eval</text>
<text text-anchor="middle" x="198.5" y="-7.5" font-family="Helvetica,sans-Serif" font-size="10.00" fill="#000000">_jac_g</text>
</a>
</g>
</g>
<!-- Node47&#45;&gt;Node50 -->
<g id="edge3" class="edge">
<title>Node47&#45;&gt;Node50</title>
<path fill="none" stroke="#191970" d="M108.543,-46.1104C123.5364,-41.0084 139.6395,-35.5289 154.0189,-30.6359"/>
<polygon fill="#191970" stroke="#191970" points="107.2192,-42.8637 98.8797,-49.3986 109.4742,-49.4905 107.2192,-42.8637"/>
</g>
</g>
</svg>
