<?xml version="1.0" encoding="UTF-8" standalone="no"?>
<!DOCTYPE svg PUBLIC "-//W3C//DTD SVG 1.1//EN"
 "http://www.w3.org/Graphics/SVG/1.1/DTD/svg11.dtd">
<!-- Generated by graphviz version 2.40.1 (20161225.0304)
 -->
<!-- Title: omc_Uncertainties_getdirectOccurrencesinEquation Pages: 1 -->
<svg width="574pt" height="83pt"
 viewBox="0.00 0.00 574.00 83.00" xmlns="http://www.w3.org/2000/svg" xmlns:xlink="http://www.w3.org/1999/xlink">
<g id="graph0" class="graph" transform="scale(1 1) rotate(0) translate(4 79)">
<title>omc_Uncertainties_getdirectOccurrencesinEquation</title>
<polygon fill="#ffffff" stroke="transparent" points="-4,4 -4,-79 570,-79 570,4 -4,4"/>
<!-- Node333 -->
<g id="node1" class="node">
<title>Node333</title>
<polygon fill="#bfbfbf" stroke="#000000" points="0,-22.5 0,-52.5 141,-52.5 141,-22.5 0,-22.5"/>
<text text-anchor="start" x="8" y="-40.5" font-family="Helvetica,sans-Serif" font-size="10.00" fill="#000000">omc_Uncertainties_getdirect</text>
<text text-anchor="middle" x="70.5" y="-29.5" font-family="Helvetica,sans-Serif" font-size="10.00" fill="#000000">OccurrencesinEquation</text>
</g>
<!-- Node334 -->
<g id="node2" class="node">
<title>Node334</title>
<g id="a_node2"><a xlink:href="../../d2/dea/_uncertainties_8h.html#acd552f3f7b93e01417ecaaaa62de0c01" target="_top" xlink:title="boxptr_Uncertainties\l_getdirectOccurrencesinEquation">
<polygon fill="#ffffff" stroke="#000000" points="201,-44.5 201,-74.5 362,-74.5 362,-44.5 201,-44.5"/>
<text text-anchor="start" x="209" y="-62.5" font-family="Helvetica,sans-Serif" font-size="10.00" fill="#000000">boxptr_Uncertainties</text>
<text text-anchor="middle" x="281.5" y="-51.5" font-family="Helvetica,sans-Serif" font-size="10.00" fill="#000000">_getdirectOccurrencesinEquation</text>
</a>
</g>
</g>
<!-- Node333&#45;&gt;Node334 -->
<g id="edge1" class="edge">
<title>Node333&#45;&gt;Node334</title>
<path fill="none" stroke="#191970" d="M151.0758,-45.9013C167.3714,-47.6003 184.5084,-49.3871 200.8079,-51.0866"/>
<polygon fill="#191970" stroke="#191970" points="151.3624,-42.4123 141.0533,-44.8563 150.6364,-49.3745 151.3624,-42.4123"/>
</g>
<!-- Node335 -->
<g id="node3" class="node">
<title>Node335</title>
<g id="a_node3"><a xlink:href="../../d2/dea/_uncertainties_8h.html#a30069ffd261e0217c95319edc09fd919" target="_top" xlink:title="omc_Uncertainties_getDependencyequation">
<polygon fill="#ffffff" stroke="#000000" points="177,-6 177,-25 386,-25 386,-6 177,-6"/>
<text text-anchor="middle" x="281.5" y="-13" font-family="Helvetica,sans-Serif" font-size="10.00" fill="#000000">omc_Uncertainties_getDependencyequation</text>
</a>
</g>
</g>
<!-- Node333&#45;&gt;Node335 -->
<g id="edge2" class="edge">
<title>Node333&#45;&gt;Node335</title>
<path fill="none" stroke="#191970" d="M151.2027,-29.0855C164.0158,-27.7495 177.3462,-26.3596 190.3783,-25.0008"/>
<polygon fill="#191970" stroke="#191970" points="150.6364,-25.6255 141.0533,-30.1437 151.3624,-32.5877 150.6364,-25.6255"/>
</g>
<!-- Node336 -->
<g id="node4" class="node">
<title>Node336</title>
<g id="a_node4"><a xlink:href="../../d2/dea/_uncertainties_8h.html#a7fadb7a69a0fcfe049c0cf1af75fc05d" target="_top" xlink:title="omc_Uncertainties_findBlock\lTargetsHelper1">
<polygon fill="#ffffff" stroke="#000000" points="422,-.5 422,-30.5 566,-30.5 566,-.5 422,-.5"/>
<text text-anchor="start" x="430" y="-18.5" font-family="Helvetica,sans-Serif" font-size="10.00" fill="#000000">omc_Uncertainties_findBlock</text>
<text text-anchor="middle" x="494" y="-7.5" font-family="Helvetica,sans-Serif" font-size="10.00" fill="#000000">TargetsHelper1</text>
</a>
</g>
</g>
<!-- Node335&#45;&gt;Node336 -->
<g id="edge3" class="edge">
<title>Node335&#45;&gt;Node336</title>
<path fill="none" stroke="#191970" d="M396.3515,-15.5C404.9864,-15.5 413.545,-15.5 421.7972,-15.5"/>
<polygon fill="#191970" stroke="#191970" points="396.1937,-12.0001 386.1937,-15.5 396.1936,-19.0001 396.1937,-12.0001"/>
</g>
</g>
</svg>
