<?xml version="1.0" encoding="UTF-8" standalone="no"?>
<!DOCTYPE svg PUBLIC "-//W3C//DTD SVG 1.1//EN"
 "http://www.w3.org/Graphics/SVG/1.1/DTD/svg11.dtd">
<!-- Generated by graphviz version 2.40.1 (20161225.0304)
 -->
<!-- Title: omc_BackendDAEOptimize_removeUnusedParameter Pages: 1 -->
<svg width="472pt" height="88pt"
 viewBox="0.00 0.00 472.00 88.00" xmlns="http://www.w3.org/2000/svg" xmlns:xlink="http://www.w3.org/1999/xlink">
<g id="graph0" class="graph" transform="scale(1 1) rotate(0) translate(4 84)">
<title>omc_BackendDAEOptimize_removeUnusedParameter</title>
<polygon fill="#ffffff" stroke="transparent" points="-4,4 -4,-84 468,-84 468,4 -4,4"/>
<!-- Node1193 -->
<g id="node1" class="node">
<title>Node1193</title>
<polygon fill="#bfbfbf" stroke="#000000" points="0,-24.5 0,-54.5 139,-54.5 139,-24.5 0,-24.5"/>
<text text-anchor="start" x="8" y="-42.5" font-family="Helvetica,sans-Serif" font-size="10.00" fill="#000000">omc_BackendDAEOptimize</text>
<text text-anchor="middle" x="69.5" y="-31.5" font-family="Helvetica,sans-Serif" font-size="10.00" fill="#000000">_removeUnusedParameter</text>
</g>
<!-- Node1194 -->
<g id="node2" class="node">
<title>Node1194</title>
<g id="a_node2"><a xlink:href="../../dd/db3/_backend_variable_8c.html#afc09793450257c719c63d47a4703dbcc" target="_top" xlink:title="omc_BackendVariable\l_emptyVars">
<polygon fill="#ffffff" stroke="#000000" points="186.5,-49.5 186.5,-79.5 300.5,-79.5 300.5,-49.5 186.5,-49.5"/>
<text text-anchor="start" x="194.5" y="-67.5" font-family="Helvetica,sans-Serif" font-size="10.00" fill="#000000">omc_BackendVariable</text>
<text text-anchor="middle" x="243.5" y="-56.5" font-family="Helvetica,sans-Serif" font-size="10.00" fill="#000000">_emptyVars</text>
</a>
</g>
</g>
<!-- Node1193&#45;&gt;Node1194 -->
<g id="edge1" class="edge">
<title>Node1193&#45;&gt;Node1194</title>
<path fill="none" stroke="#191970" d="M139.0196,-49.4884C151.2957,-51.2523 164.0563,-53.0857 176.2681,-54.8402"/>
<polygon fill="#191970" stroke="#191970" points="175.9782,-58.3345 186.3744,-56.2923 176.9738,-51.4056 175.9782,-58.3345"/>
</g>
<!-- Node1195 -->
<g id="node3" class="node">
<title>Node1195</title>
<g id="a_node3"><a xlink:href="../../dd/db3/_backend_variable_8c.html#a6cc3f385b115a74d5dda4174d971398a" target="_top" xlink:title="omc_BackendVariable\l_traverseBackendDAEVars">
<polygon fill="#ffffff" stroke="#000000" points="175,-.5 175,-30.5 312,-30.5 312,-.5 175,-.5"/>
<text text-anchor="start" x="183" y="-18.5" font-family="Helvetica,sans-Serif" font-size="10.00" fill="#000000">omc_BackendVariable</text>
<text text-anchor="middle" x="243.5" y="-7.5" font-family="Helvetica,sans-Serif" font-size="10.00" fill="#000000">_traverseBackendDAEVars</text>
</a>
</g>
</g>
<!-- Node1193&#45;&gt;Node1195 -->
<g id="edge2" class="edge">
<title>Node1193&#45;&gt;Node1195</title>
<path fill="none" stroke="#191970" d="M139.0196,-29.9111C147.5241,-28.738 156.2612,-27.5329 164.8872,-26.3431"/>
<polygon fill="#191970" stroke="#191970" points="165.5139,-29.7899 174.9418,-24.9563 164.5574,-22.8556 165.5139,-29.7899"/>
</g>
<!-- Node1196 -->
<g id="node4" class="node">
<title>Node1196</title>
<g id="a_node4"><a xlink:href="../../d4/dac/_backend_d_a_e_util_8c.html#ae83a02fe31cfc99aec2cd9fb2b16eab9" target="_top" xlink:title="omc_BackendDAEUtil\l_traverseArrayNoCopy">
<polygon fill="#ffffff" stroke="#000000" points="348,-.5 348,-30.5 464,-30.5 464,-.5 348,-.5"/>
<text text-anchor="start" x="356" y="-18.5" font-family="Helvetica,sans-Serif" font-size="10.00" fill="#000000">omc_BackendDAEUtil</text>
<text text-anchor="middle" x="406" y="-7.5" font-family="Helvetica,sans-Serif" font-size="10.00" fill="#000000">_traverseArrayNoCopy</text>
</a>
</g>
</g>
<!-- Node1195&#45;&gt;Node1196 -->
<g id="edge3" class="edge">
<title>Node1195&#45;&gt;Node1196</title>
<path fill="none" stroke="#191970" d="M312.4146,-15.5C320.7784,-15.5 329.3206,-15.5 337.6757,-15.5"/>
<polygon fill="#191970" stroke="#191970" points="337.7498,-19.0001 347.7498,-15.5 337.7497,-12.0001 337.7498,-19.0001"/>
</g>
</g>
</svg>
