<?xml version="1.0" encoding="UTF-8" standalone="no"?>
<!DOCTYPE svg PUBLIC "-//W3C//DTD SVG 1.1//EN"
 "http://www.w3.org/Graphics/SVG/1.1/DTD/svg11.dtd">
<!-- Generated by graphviz version 2.40.1 (20161225.0304)
 -->
<!-- Title: omc_AvlTreeCRToInt_fold__2 Pages: 1 -->
<svg width="268pt" height="57pt"
 viewBox="0.00 0.00 268.00 57.00" xmlns="http://www.w3.org/2000/svg" xmlns:xlink="http://www.w3.org/1999/xlink">
<g id="graph0" class="graph" transform="scale(1 1) rotate(0) translate(4 53)">
<title>omc_AvlTreeCRToInt_fold__2</title>
<polygon fill="#ffffff" stroke="transparent" points="-4,4 -4,-53 264,-53 264,4 -4,4"/>
<!-- Node111 -->
<g id="node1" class="node">
<title>Node111</title>
<polygon fill="#bfbfbf" stroke="#000000" points="0,-.5 0,-30.5 112,-30.5 112,-.5 0,-.5"/>
<text text-anchor="start" x="8" y="-18.5" font-family="Helvetica,sans-Serif" font-size="10.00" fill="#000000">omc_AvlTreeCRToInt</text>
<text text-anchor="middle" x="56" y="-7.5" font-family="Helvetica,sans-Serif" font-size="10.00" fill="#000000">_fold__2</text>
</g>
<!-- Node112 -->
<g id="node2" class="node">
<title>Node112</title>
<g id="a_node2"><a xlink:href="../../d3/df2/_avl_tree_c_r_to_int_8h.html#a37103fc3f392cf93bce7590eeb925456" target="_top" xlink:title="omc_AvlTreeCRToInt\l_fold__2">
<polygon fill="#ffffff" stroke="#000000" points="148,-.5 148,-30.5 260,-30.5 260,-.5 148,-.5"/>
<text text-anchor="start" x="156" y="-18.5" font-family="Helvetica,sans-Serif" font-size="10.00" fill="#000000">omc_AvlTreeCRToInt</text>
<text text-anchor="middle" x="204" y="-7.5" font-family="Helvetica,sans-Serif" font-size="10.00" fill="#000000">_fold__2</text>
</a>
</g>
</g>
<!-- Node111&#45;&gt;Node112 -->
<g id="edge1" class="edge">
<title>Node111&#45;&gt;Node112</title>
<path fill="none" stroke="#191970" d="M122.5579,-15.5C130.9836,-15.5 139.5393,-15.5 147.7821,-15.5"/>
<polygon fill="#191970" stroke="#191970" points="122.3747,-12.0001 112.3747,-15.5 122.3746,-19.0001 122.3747,-12.0001"/>
</g>
<!-- Node112&#45;&gt;Node112 -->
<g id="edge2" class="edge">
<title>Node112&#45;&gt;Node112</title>
<path fill="none" stroke="#191970" d="M177.7022,-40.9579C180.9661,-45.679 189.7321,-49 204,-49 227.4141,-49 236.0114,-40.0566 229.7921,-30.659"/>
<polygon fill="#191970" stroke="#191970" points="181.2132,-40.8187 178.2079,-30.659 174.2216,-40.4753 181.2132,-40.8187"/>
</g>
</g>
</svg>
