<?xml version="1.0" encoding="UTF-8" standalone="no"?>
<!DOCTYPE svg PUBLIC "-//W3C//DTD SVG 1.1//EN"
 "http://www.w3.org/Graphics/SVG/1.1/DTD/svg11.dtd">
<!-- Generated by graphviz version 2.40.1 (20161225.0304)
 -->
<!-- Title: omc_AvlTreeCRToInt_join Pages: 1 -->
<svg width="308pt" height="46pt"
 viewBox="0.00 0.00 308.00 46.00" xmlns="http://www.w3.org/2000/svg" xmlns:xlink="http://www.w3.org/1999/xlink">
<g id="graph0" class="graph" transform="scale(1 1) rotate(0) translate(4 42)">
<title>omc_AvlTreeCRToInt_join</title>
<polygon fill="#ffffff" stroke="transparent" points="-4,4 -4,-42 304,-42 304,4 -4,4"/>
<!-- Node302 -->
<g id="node1" class="node">
<title>Node302</title>
<polygon fill="#bfbfbf" stroke="#000000" points="0,-.5 0,-19.5 132,-19.5 132,-.5 0,-.5"/>
<text text-anchor="middle" x="66" y="-7.5" font-family="Helvetica,sans-Serif" font-size="10.00" fill="#000000">omc_AvlTreeCRToInt_join</text>
</g>
<!-- Node303 -->
<g id="node2" class="node">
<title>Node303</title>
<g id="a_node2"><a xlink:href="../../d3/df2/_avl_tree_c_r_to_int_8h.html#a3b7c21407973b73e8e137e11675a1d51" target="_top" xlink:title="omc_AvlTreeCRToInt_join">
<polygon fill="#ffffff" stroke="#000000" points="168,-.5 168,-19.5 300,-19.5 300,-.5 168,-.5"/>
<text text-anchor="middle" x="234" y="-7.5" font-family="Helvetica,sans-Serif" font-size="10.00" fill="#000000">omc_AvlTreeCRToInt_join</text>
</a>
</g>
</g>
<!-- Node302&#45;&gt;Node303 -->
<g id="edge1" class="edge">
<title>Node302&#45;&gt;Node303</title>
<path fill="none" stroke="#191970" d="M142.5946,-10C151.0134,-10 159.5322,-10 167.8092,-10"/>
<polygon fill="#191970" stroke="#191970" points="142.3981,-6.5001 132.398,-10 142.398,-13.5001 142.3981,-6.5001"/>
</g>
<!-- Node303&#45;&gt;Node303 -->
<g id="edge2" class="edge">
<title>Node303&#45;&gt;Node303</title>
<path fill="none" stroke="#191970" d="M202.5629,-28.2746C203.4592,-33.741 213.9382,-38 234,-38 263.8594,-38 272.4906,-28.5653 259.8937,-19.7571"/>
<polygon fill="#191970" stroke="#191970" points="205.585,-30.0475 208.1063,-19.7571 199.7181,-26.2291 205.585,-30.0475"/>
</g>
</g>
</svg>
