<?xml version="1.0" encoding="UTF-8" standalone="no"?>
<!DOCTYPE svg PUBLIC "-//W3C//DTD SVG 1.1//EN"
 "http://www.w3.org/Graphics/SVG/1.1/DTD/svg11.dtd">
<!-- Generated by graphviz version 2.40.1 (20161225.0304)
 -->
<!-- Title: SOS_infeasible Pages: 1 -->
<svg width="197pt" height="66pt"
 viewBox="0.00 0.00 197.00 66.00" xmlns="http://www.w3.org/2000/svg" xmlns:xlink="http://www.w3.org/1999/xlink">
<g id="graph0" class="graph" transform="scale(1 1) rotate(0) translate(4 62)">
<title>SOS_infeasible</title>
<polygon fill="#ffffff" stroke="transparent" points="-4,4 -4,-62 193,-62 193,4 -4,4"/>
<!-- Node541 -->
<g id="node1" class="node">
<title>Node541</title>
<polygon fill="#bfbfbf" stroke="#000000" points="0,-19.5 0,-38.5 84,-38.5 84,-19.5 0,-19.5"/>
<text text-anchor="middle" x="42" y="-26.5" font-family="Helvetica,sans-Serif" font-size="10.00" fill="#000000">SOS_infeasible</text>
</g>
<!-- Node541&#45;&gt;Node541 -->
<g id="edge2" class="edge">
<title>Node541&#45;&gt;Node541</title>
<path fill="none" stroke="#191970" d="M24.7375,-38.7571C16.3396,-47.5653 22.0938,-57 42,-57 54.4414,-57 61.3546,-53.3146 62.7397,-48.4"/>
<polygon fill="#191970" stroke="#191970" points="65.9472,-46.9768 59.2625,-38.7571 59.3622,-49.3514 65.9472,-46.9768"/>
</g>
<!-- Node542 -->
<g id="node2" class="node">
<title>Node542</title>
<g id="a_node2"><a xlink:href="../../d3/d63/3rd_party_2lpsolve_2build_2include_2lpsolve_2lp__report_8h.html#a44ef60e159dc1290b7da87301e244357" target="_top" xlink:title="report">
<polygon fill="#ffffff" stroke="#000000" points="134,-38.5 134,-57.5 175,-57.5 175,-38.5 134,-38.5"/>
<text text-anchor="middle" x="154.5" y="-45.5" font-family="Helvetica,sans-Serif" font-size="10.00" fill="#000000">report</text>
</a>
</g>
</g>
<!-- Node541&#45;&gt;Node542 -->
<g id="edge1" class="edge">
<title>Node541&#45;&gt;Node542</title>
<path fill="none" stroke="#191970" d="M84.2109,-36.129C97.3274,-38.3442 111.532,-40.7432 123.716,-42.8009"/>
<polygon fill="#191970" stroke="#191970" points="123.3816,-46.2939 133.8248,-44.5082 124.5473,-39.3917 123.3816,-46.2939"/>
</g>
<!-- Node543 -->
<g id="node3" class="node">
<title>Node543</title>
<g id="a_node3"><a xlink:href="../../dc/de4/3rd_party_2lpsolve_2build_2include_2lpsolve_2lp__lib_8h.html#a5d4509fb4e25e05b8f2799751c92439a" target="_top" xlink:title="is_semicont">
<polygon fill="#ffffff" stroke="#000000" points="120,-.5 120,-19.5 189,-19.5 189,-.5 120,-.5"/>
<text text-anchor="middle" x="154.5" y="-7.5" font-family="Helvetica,sans-Serif" font-size="10.00" fill="#000000">is_semicont</text>
</a>
</g>
</g>
<!-- Node541&#45;&gt;Node543 -->
<g id="edge3" class="edge">
<title>Node541&#45;&gt;Node543</title>
<path fill="none" stroke="#191970" d="M84.2109,-21.871C92.5442,-20.4637 101.3166,-18.9821 109.731,-17.561"/>
<polygon fill="#191970" stroke="#191970" points="110.4861,-20.9831 119.7636,-15.8666 109.3203,-14.0809 110.4861,-20.9831"/>
</g>
</g>
</svg>
