<?xml version="1.0" encoding="UTF-8" standalone="no"?>
<!DOCTYPE svg PUBLIC "-//W3C//DTD SVG 1.1//EN"
 "http://www.w3.org/Graphics/SVG/1.1/DTD/svg11.dtd">
<!-- Generated by graphviz version 2.40.1 (20161225.0304)
 -->
<!-- Title: ILinearAlgLoop::~ILinearAlgLoop Pages: 1 -->
<svg width="348pt" height="945pt"
 viewBox="0.00 0.00 348.00 944.50" xmlns="http://www.w3.org/2000/svg" xmlns:xlink="http://www.w3.org/1999/xlink">
<g id="graph0" class="graph" transform="scale(1 1) rotate(0) translate(4 940.5)">
<title>ILinearAlgLoop::~ILinearAlgLoop</title>
<polygon fill="#ffffff" stroke="transparent" points="-4,4 -4,-940.5 344,-940.5 344,4 -4,4"/>
<!-- Node0 -->
<g id="node1" class="node">
<title>Node0</title>
<polygon fill="#bfbfbf" stroke="#000000" points="0,-476 0,-506 122,-506 122,-476 0,-476"/>
<text text-anchor="start" x="8" y="-494" font-family="Helvetica,sans-Serif" font-size="10.00" fill="#000000">ILinearAlgLoop::~ILinear</text>
<text text-anchor="middle" x="61" y="-483" font-family="Helvetica,sans-Serif" font-size="10.00" fill="#000000">AlgLoop</text>
</g>
<!-- Node1 -->
<g id="node2" class="node">
<title>Node1</title>
<g id="a_node2"><a xlink:href="../../d2/d5c/class_i_linear_alg_loop.html#a42493a9b30d95adc720ec81f33bd8960" target="_top" xlink:title="Provide index of equation. ">
<polygon fill="#ffffff" stroke="#000000" points="179.5,-906 179.5,-936 318.5,-936 318.5,-906 179.5,-906"/>
<text text-anchor="start" x="187.5" y="-924" font-family="Helvetica,sans-Serif" font-size="10.00" fill="#000000">ILinearAlgLoop::getEquation</text>
<text text-anchor="middle" x="249" y="-913" font-family="Helvetica,sans-Serif" font-size="10.00" fill="#000000">Index</text>
</a>
</g>
</g>
<!-- Node0&#45;&gt;Node1 -->
<g id="edge1" class="edge">
<title>Node0&#45;&gt;Node1</title>
<path fill="none" stroke="#191970" d="M62.5767,-506.1173C69.801,-572.5609 101.8197,-837.9325 158,-896 161.6794,-899.8029 165.8787,-903.0442 170.4083,-905.8051"/>
<polygon fill="#191970" stroke="#191970" points="168.9923,-909.0142 179.4762,-910.5435 172.2342,-902.8101 168.9923,-909.0142"/>
</g>
<!-- Node2 -->
<g id="node3" class="node">
<title>Node2</title>
<g id="a_node3"><a xlink:href="../../d2/d5c/class_i_linear_alg_loop.html#a903376e140b8707cc92b1de4966c8cb2" target="_top" xlink:title="Provide number (dimension) of variables according to the data type. ">
<polygon fill="#ffffff" stroke="#000000" points="179.5,-867.5 179.5,-886.5 318.5,-886.5 318.5,-867.5 179.5,-867.5"/>
<text text-anchor="middle" x="249" y="-874.5" font-family="Helvetica,sans-Serif" font-size="10.00" fill="#000000">ILinearAlgLoop::getDimReal</text>
</a>
</g>
</g>
<!-- Node0&#45;&gt;Node2 -->
<g id="edge2" class="edge">
<title>Node0&#45;&gt;Node2</title>
<path fill="none" stroke="#191970" d="M62.8703,-506.0368C70.9584,-568.6367 104.9319,-807.6505 158,-858 161.6149,-861.4297 165.6815,-864.3085 170.0383,-866.7194"/>
<polygon fill="#191970" stroke="#191970" points="168.7929,-870 179.3369,-871.0375 171.7412,-863.6512 168.7929,-870"/>
</g>
<!-- Node3 -->
<g id="node4" class="node">
<title>Node3</title>
<g id="a_node4"><a xlink:href="../../d2/d5c/class_i_linear_alg_loop.html#a2262e00506a55d421e0a11fe92260706" target="_top" xlink:title="ILinearAlgLoop::getDimZeroFunc">
<polygon fill="#ffffff" stroke="#000000" points="169,-829.5 169,-848.5 329,-848.5 329,-829.5 169,-829.5"/>
<text text-anchor="middle" x="249" y="-836.5" font-family="Helvetica,sans-Serif" font-size="10.00" fill="#000000">ILinearAlgLoop::getDimZeroFunc</text>
</a>
</g>
</g>
<!-- Node0&#45;&gt;Node3 -->
<g id="edge3" class="edge">
<title>Node0&#45;&gt;Node3</title>
<path fill="none" stroke="#191970" d="M63.3584,-506.0539C72.8201,-564.5355 109.8472,-775.5922 158,-820 159.5127,-821.395 161.1004,-822.6983 162.752,-823.9153"/>
<polygon fill="#191970" stroke="#191970" points="161.1418,-827.0345 171.4896,-829.3092 164.8189,-821.078 161.1418,-827.0345"/>
</g>
<!-- Node4 -->
<g id="node5" class="node">
<title>Node4</title>
<g id="a_node5"><a xlink:href="../../d2/d5c/class_i_linear_alg_loop.html#a8d6898f66c42f97ec963cbf8db7ebef4" target="_top" xlink:title="(Re&#45;) initialize the system of equations ">
<polygon fill="#ffffff" stroke="#000000" points="188,-791.5 188,-810.5 310,-810.5 310,-791.5 188,-791.5"/>
<text text-anchor="middle" x="249" y="-798.5" font-family="Helvetica,sans-Serif" font-size="10.00" fill="#000000">ILinearAlgLoop::initialize</text>
</a>
</g>
</g>
<!-- Node0&#45;&gt;Node4 -->
<g id="edge4" class="edge">
<title>Node0&#45;&gt;Node4</title>
<path fill="none" stroke="#191970" d="M63.9869,-506.1523C74.9718,-560.3626 114.7457,-743.49 158,-782 163.8481,-787.2067 170.748,-791.1223 178.0909,-794.0492"/>
<polygon fill="#191970" stroke="#191970" points="176.9888,-797.3711 187.583,-797.2505 179.2259,-790.7382 176.9888,-797.3711"/>
</g>
<!-- Node5 -->
<g id="node6" class="node">
<title>Node5</title>
<g id="a_node6"><a xlink:href="../../d2/d5c/class_i_linear_alg_loop.html#a9d2ce951c6ce08d972831e3942ee7356" target="_top" xlink:title="Provide names of alg loop variables. ">
<polygon fill="#ffffff" stroke="#000000" points="173,-753.5 173,-772.5 325,-772.5 325,-753.5 173,-753.5"/>
<text text-anchor="middle" x="249" y="-760.5" font-family="Helvetica,sans-Serif" font-size="10.00" fill="#000000">ILinearAlgLoop::getNamesReal</text>
</a>
</g>
</g>
<!-- Node0&#45;&gt;Node5 -->
<g id="edge5" class="edge">
<title>Node0&#45;&gt;Node5</title>
<path fill="none" stroke="#191970" d="M61.9578,-506.0524C65.6141,-550.1243 82.6004,-679.811 158,-744 159.7973,-745.5301 161.6862,-746.9473 163.6505,-748.2597"/>
<polygon fill="#191970" stroke="#191970" points="162.2658,-751.4972 172.6945,-753.3661 165.7075,-745.4017 162.2658,-751.4972"/>
</g>
<!-- Node6 -->
<g id="node7" class="node">
<title>Node6</title>
<g id="a_node7"><a xlink:href="../../d2/d5c/class_i_linear_alg_loop.html#a623ee180be704bd89993c38f90e8ba80" target="_top" xlink:title="Provide nominal values for alg loop variables. ">
<polygon fill="#ffffff" stroke="#000000" points="170.5,-715.5 170.5,-734.5 327.5,-734.5 327.5,-715.5 170.5,-715.5"/>
<text text-anchor="middle" x="249" y="-722.5" font-family="Helvetica,sans-Serif" font-size="10.00" fill="#000000">ILinearAlgLoop::getNominalReal</text>
</a>
</g>
</g>
<!-- Node0&#45;&gt;Node6 -->
<g id="edge6" class="edge">
<title>Node0&#45;&gt;Node6</title>
<path fill="none" stroke="#191970" d="M63.081,-506.0693C69.3838,-545.6354 92.0573,-653.0656 158,-706 160.0924,-707.6796 162.2968,-709.2213 164.5899,-710.6357"/>
<polygon fill="#191970" stroke="#191970" points="163.3435,-713.9343 173.8245,-715.4837 166.5973,-707.7365 163.3435,-713.9343"/>
</g>
<!-- Node7 -->
<g id="node8" class="node">
<title>Node7</title>
<g id="a_node8"><a xlink:href="../../d2/d5c/class_i_linear_alg_loop.html#acc43bbabfc54766c4e0d52f20d9744f3" target="_top" xlink:title="Provide min values for alg loop variables. ">
<polygon fill="#ffffff" stroke="#000000" points="180.5,-677.5 180.5,-696.5 317.5,-696.5 317.5,-677.5 180.5,-677.5"/>
<text text-anchor="middle" x="249" y="-684.5" font-family="Helvetica,sans-Serif" font-size="10.00" fill="#000000">ILinearAlgLoop::getMinReal</text>
</a>
</g>
</g>
<!-- Node0&#45;&gt;Node7 -->
<g id="edge7" class="edge">
<title>Node0&#45;&gt;Node7</title>
<path fill="none" stroke="#191970" d="M64.6716,-506.1932C73.8854,-540.8682 101.4078,-626.0707 158,-668 161.9268,-670.9094 166.1979,-673.3963 170.6769,-675.5201"/>
<polygon fill="#191970" stroke="#191970" points="169.5383,-678.8359 180.1188,-679.3882 172.1921,-672.3584 169.5383,-678.8359"/>
</g>
<!-- Node8 -->
<g id="node9" class="node">
<title>Node8</title>
<g id="a_node9"><a xlink:href="../../d2/d5c/class_i_linear_alg_loop.html#a8c2356908f25331551bf84a4e0e0f268" target="_top" xlink:title="Provide max values for alg loop variables. ">
<polygon fill="#ffffff" stroke="#000000" points="179,-639.5 179,-658.5 319,-658.5 319,-639.5 179,-639.5"/>
<text text-anchor="middle" x="249" y="-646.5" font-family="Helvetica,sans-Serif" font-size="10.00" fill="#000000">ILinearAlgLoop::getMaxReal</text>
</a>
</g>
</g>
<!-- Node0&#45;&gt;Node8 -->
<g id="edge8" class="edge">
<title>Node0&#45;&gt;Node8</title>
<path fill="none" stroke="#191970" d="M67.1219,-506.4245C79.5423,-535.591 110.6087,-598.701 158,-630 161.5604,-632.3514 165.356,-634.4198 169.3001,-636.2386"/>
<polygon fill="#191970" stroke="#191970" points="168.1489,-639.5482 178.7321,-640.0449 170.7686,-633.0569 168.1489,-639.5482"/>
</g>
<!-- Node9 -->
<g id="node10" class="node">
<title>Node9</title>
<g id="a_node10"><a xlink:href="../../d2/d5c/class_i_linear_alg_loop.html#aa28f314f38dc7208ec481766d78cb58d" target="_top" xlink:title="Return simulation time. ">
<polygon fill="#ffffff" stroke="#000000" points="179,-601.5 179,-620.5 319,-620.5 319,-601.5 179,-601.5"/>
<text text-anchor="middle" x="249" y="-608.5" font-family="Helvetica,sans-Serif" font-size="10.00" fill="#000000">ILinearAlgLoop::getSimTime</text>
</a>
</g>
</g>
<!-- Node0&#45;&gt;Node9 -->
<g id="edge9" class="edge">
<title>Node0&#45;&gt;Node9</title>
<path fill="none" stroke="#191970" d="M70.9262,-506.0657C86.5945,-528.5593 119.2911,-570.5651 158,-592 162.1916,-594.3211 166.6348,-596.3594 171.215,-598.1492"/>
<polygon fill="#191970" stroke="#191970" points="170.1769,-601.4939 180.7718,-601.4852 172.4839,-594.885 170.1769,-601.4939"/>
</g>
<!-- Node10 -->
<g id="node11" class="node">
<title>Node10</title>
<g id="a_node11"><a xlink:href="../../d2/d5c/class_i_linear_alg_loop.html#a8a6dab528439eaca91d46e8367842009" target="_top" xlink:title="Provide variables of given data type. ">
<polygon fill="#ffffff" stroke="#000000" points="188.5,-563.5 188.5,-582.5 309.5,-582.5 309.5,-563.5 188.5,-563.5"/>
<text text-anchor="middle" x="249" y="-570.5" font-family="Helvetica,sans-Serif" font-size="10.00" fill="#000000">ILinearAlgLoop::getReal</text>
</a>
</g>
</g>
<!-- Node0&#45;&gt;Node10 -->
<g id="edge10" class="edge">
<title>Node0&#45;&gt;Node10</title>
<path fill="none" stroke="#191970" d="M79.5111,-506.0404C98.2115,-520.4778 128.4808,-541.8341 158,-554 164.5656,-556.7059 171.5624,-559.0429 178.6484,-561.0579"/>
<polygon fill="#191970" stroke="#191970" points="177.7724,-564.4465 188.3342,-563.6105 179.5563,-557.6776 177.7724,-564.4465"/>
</g>
<!-- Node11 -->
<g id="node12" class="node">
<title>Node11</title>
<g id="a_node12"><a xlink:href="../../d2/d5c/class_i_linear_alg_loop.html#a495facc1b98c88a7825733c42a498cbd" target="_top" xlink:title="Set variables with given data type. ">
<polygon fill="#ffffff" stroke="#000000" points="188.5,-525.5 188.5,-544.5 309.5,-544.5 309.5,-525.5 188.5,-525.5"/>
<text text-anchor="middle" x="249" y="-532.5" font-family="Helvetica,sans-Serif" font-size="10.00" fill="#000000">ILinearAlgLoop::setReal</text>
</a>
</g>
</g>
<!-- Node0&#45;&gt;Node11 -->
<g id="edge11" class="edge">
<title>Node0&#45;&gt;Node11</title>
<path fill="none" stroke="#191970" d="M117.5685,-506.0505C130.8059,-509.4415 144.8743,-512.94 158,-516 168.7102,-518.4969 180.1661,-521.0107 191.2119,-523.3555"/>
<polygon fill="#191970" stroke="#191970" points="190.7015,-526.8246 201.2076,-525.456 192.1411,-519.9742 190.7015,-526.8246"/>
</g>
<!-- Node12 -->
<g id="node13" class="node">
<title>Node12</title>
<g id="a_node13"><a xlink:href="../../d2/d5c/class_i_linear_alg_loop.html#affc1c83cbd6427a4713eca8fa7e5eec5" target="_top" xlink:title="ILinearAlgLoop::setRealStart\lValues">
<polygon fill="#ffffff" stroke="#000000" points="178,-476 178,-506 320,-506 320,-476 178,-476"/>
<text text-anchor="start" x="186" y="-494" font-family="Helvetica,sans-Serif" font-size="10.00" fill="#000000">ILinearAlgLoop::setRealStart</text>
<text text-anchor="middle" x="249" y="-483" font-family="Helvetica,sans-Serif" font-size="10.00" fill="#000000">Values</text>
</a>
</g>
</g>
<!-- Node0&#45;&gt;Node12 -->
<g id="edge12" class="edge">
<title>Node0&#45;&gt;Node12</title>
<path fill="none" stroke="#191970" d="M122.0382,-491C136.6381,-491 152.4526,-491 167.803,-491"/>
<polygon fill="#191970" stroke="#191970" points="167.8059,-494.5001 177.8059,-491 167.8059,-487.5001 167.8059,-494.5001"/>
</g>
<!-- Node13 -->
<g id="node14" class="node">
<title>Node13</title>
<g id="a_node14"><a xlink:href="../../d2/d5c/class_i_linear_alg_loop.html#a6495125635472ba7c25951c58f6491b8" target="_top" xlink:title="ILinearAlgLoop::getRealStart\lValues">
<polygon fill="#ffffff" stroke="#000000" points="178,-427 178,-457 320,-457 320,-427 178,-427"/>
<text text-anchor="start" x="186" y="-445" font-family="Helvetica,sans-Serif" font-size="10.00" fill="#000000">ILinearAlgLoop::getRealStart</text>
<text text-anchor="middle" x="249" y="-434" font-family="Helvetica,sans-Serif" font-size="10.00" fill="#000000">Values</text>
</a>
</g>
</g>
<!-- Node0&#45;&gt;Node13 -->
<g id="edge13" class="edge">
<title>Node0&#45;&gt;Node13</title>
<path fill="none" stroke="#191970" d="M118.6838,-475.9654C138.534,-470.7917 160.9374,-464.9525 181.4987,-459.5934"/>
<polygon fill="#191970" stroke="#191970" points="182.6313,-462.9152 191.4252,-457.0062 180.8658,-456.1415 182.6313,-462.9152"/>
</g>
<!-- Node14 -->
<g id="node15" class="node">
<title>Node14</title>
<g id="a_node15"><a xlink:href="../../d2/d5c/class_i_linear_alg_loop.html#a0da1b5ba4b85e1c98ecb8bec489af86a" target="_top" xlink:title="Evaluate equations for given variables. ">
<polygon fill="#ffffff" stroke="#000000" points="187,-388.5 187,-407.5 311,-407.5 311,-388.5 187,-388.5"/>
<text text-anchor="middle" x="249" y="-395.5" font-family="Helvetica,sans-Serif" font-size="10.00" fill="#000000">ILinearAlgLoop::evaluate</text>
</a>
</g>
</g>
<!-- Node0&#45;&gt;Node14 -->
<g id="edge14" class="edge">
<title>Node0&#45;&gt;Node14</title>
<path fill="none" stroke="#191970" d="M76.4232,-475.9944C94.4836,-459.2841 126.0175,-432.6967 158,-418 164.4672,-415.0282 171.3995,-412.4871 178.446,-410.3165"/>
<polygon fill="#191970" stroke="#191970" points="179.4272,-413.6764 188.0927,-407.5806 177.5171,-406.942 179.4272,-413.6764"/>
</g>
<!-- Node15 -->
<g id="node16" class="node">
<title>Node15</title>
<g id="a_node16"><a xlink:href="../../d2/d5c/class_i_linear_alg_loop.html#a45e934a913af7b7ee1ae327b36003a22" target="_top" xlink:title="Provide the right hand side (b&#45;vector) ">
<polygon fill="#ffffff" stroke="#000000" points="196,-350.5 196,-369.5 302,-369.5 302,-350.5 196,-350.5"/>
<text text-anchor="middle" x="249" y="-357.5" font-family="Helvetica,sans-Serif" font-size="10.00" fill="#000000">ILinearAlgLoop::getb</text>
</a>
</g>
</g>
<!-- Node0&#45;&gt;Node15 -->
<g id="edge15" class="edge">
<title>Node0&#45;&gt;Node15</title>
<path fill="none" stroke="#191970" d="M69.5396,-475.8961C84.2378,-451.3839 116.7538,-403.2467 158,-379 166.5567,-373.9699 176.254,-370.2601 186.0501,-367.5265"/>
<polygon fill="#191970" stroke="#191970" points="186.9731,-370.9038 195.8405,-365.1055 185.2927,-364.1084 186.9731,-370.9038"/>
</g>
<!-- Node16 -->
<g id="node17" class="node">
<title>Node16</title>
<g id="a_node17"><a xlink:href="../../d2/d5c/class_i_linear_alg_loop.html#a0848a96bb27201df34d7b113e990fb9d" target="_top" xlink:title="ILinearAlgLoop::getAMatrix">
<polygon fill="#ffffff" stroke="#000000" points="182,-312.5 182,-331.5 316,-331.5 316,-312.5 182,-312.5"/>
<text text-anchor="middle" x="249" y="-319.5" font-family="Helvetica,sans-Serif" font-size="10.00" fill="#000000">ILinearAlgLoop::getAMatrix</text>
</a>
</g>
</g>
<!-- Node0&#45;&gt;Node16 -->
<g id="edge16" class="edge">
<title>Node0&#45;&gt;Node16</title>
<path fill="none" stroke="#191970" d="M66.2275,-475.8099C77.6454,-445.0459 107.8774,-375.3865 158,-341 162.4916,-337.9185 167.3806,-335.3193 172.484,-333.1288"/>
<polygon fill="#191970" stroke="#191970" points="173.7284,-336.4002 181.8624,-329.6113 171.2701,-329.846 173.7284,-336.4002"/>
</g>
<!-- Node17 -->
<g id="node18" class="node">
<title>Node17</title>
<g id="a_node18"><a xlink:href="../../d2/d5c/class_i_linear_alg_loop.html#a6a8db356816d62dcb75cd3b805f2072e" target="_top" xlink:title="ILinearAlgLoop::getSparse\lAMatrix">
<polygon fill="#ffffff" stroke="#000000" points="183.5,-263 183.5,-293 314.5,-293 314.5,-263 183.5,-263"/>
<text text-anchor="start" x="191.5" y="-281" font-family="Helvetica,sans-Serif" font-size="10.00" fill="#000000">ILinearAlgLoop::getSparse</text>
<text text-anchor="middle" x="249" y="-270" font-family="Helvetica,sans-Serif" font-size="10.00" fill="#000000">AMatrix</text>
</a>
</g>
</g>
<!-- Node0&#45;&gt;Node17 -->
<g id="edge17" class="edge">
<title>Node0&#45;&gt;Node17</title>
<path fill="none" stroke="#191970" d="M64.3694,-475.9365C73.1605,-440.2101 100.2301,-349.8395 158,-303 162.7287,-299.166 168.0017,-295.9183 173.5615,-293.1675"/>
<polygon fill="#191970" stroke="#191970" points="175.3746,-296.1953 183.1433,-288.9914 172.5778,-289.7783 175.3746,-296.1953"/>
</g>
<!-- Node18 -->
<g id="node19" class="node">
<title>Node18</title>
<g id="a_node19"><a xlink:href="../../d2/d5c/class_i_linear_alg_loop.html#afde27234bd03d7a5abbb92c41f2e8f66" target="_top" xlink:title="ILinearAlgLoop::isLinear\lTearing">
<polygon fill="#ffffff" stroke="#000000" points="188.5,-214 188.5,-244 309.5,-244 309.5,-214 188.5,-214"/>
<text text-anchor="start" x="196.5" y="-232" font-family="Helvetica,sans-Serif" font-size="10.00" fill="#000000">ILinearAlgLoop::isLinear</text>
<text text-anchor="middle" x="249" y="-221" font-family="Helvetica,sans-Serif" font-size="10.00" fill="#000000">Tearing</text>
</a>
</g>
</g>
<!-- Node0&#45;&gt;Node18 -->
<g id="edge18" class="edge">
<title>Node0&#45;&gt;Node18</title>
<path fill="none" stroke="#191970" d="M62.6144,-475.9002C67.9138,-434.0268 88.6299,-315.485 158,-254 164.1018,-248.5918 171.2702,-244.3415 178.8598,-241.0033"/>
<polygon fill="#191970" stroke="#191970" points="180.2135,-244.2326 188.2831,-237.3673 177.6936,-237.7019 180.2135,-244.2326"/>
</g>
<!-- Node19 -->
<g id="node20" class="node">
<title>Node19</title>
<g id="a_node20"><a xlink:href="../../d2/d5c/class_i_linear_alg_loop.html#a150c0f6c8265ba695830237d54781e19" target="_top" xlink:title="ILinearAlgLoop::isConsistent">
<polygon fill="#ffffff" stroke="#000000" points="178,-175.5 178,-194.5 320,-194.5 320,-175.5 178,-175.5"/>
<text text-anchor="middle" x="249" y="-182.5" font-family="Helvetica,sans-Serif" font-size="10.00" fill="#000000">ILinearAlgLoop::isConsistent</text>
</a>
</g>
</g>
<!-- Node0&#45;&gt;Node19 -->
<g id="edge19" class="edge">
<title>Node0&#45;&gt;Node19</title>
<path fill="none" stroke="#191970" d="M64.1165,-475.751C75.3883,-422.0568 115.6118,-242.9397 158,-205 161.2543,-202.0872 164.8344,-199.5664 168.6353,-197.3873"/>
<polygon fill="#191970" stroke="#191970" points="170.3963,-200.4228 177.8557,-192.899 167.3325,-194.1289 170.3963,-200.4228"/>
</g>
<!-- Node20 -->
<g id="node21" class="node">
<title>Node20</title>
<g id="a_node21"><a xlink:href="../../d2/d5c/class_i_linear_alg_loop.html#a1474d5b5acea48fa88e075a9d032b2f2" target="_top" xlink:title="ILinearAlgLoop::getFreeVariablesLock">
<polygon fill="#ffffff" stroke="#000000" points="158,-137.5 158,-156.5 340,-156.5 340,-137.5 158,-137.5"/>
<text text-anchor="middle" x="249" y="-144.5" font-family="Helvetica,sans-Serif" font-size="10.00" fill="#000000">ILinearAlgLoop::getFreeVariablesLock</text>
</a>
</g>
</g>
<!-- Node0&#45;&gt;Node20 -->
<g id="edge20" class="edge">
<title>Node0&#45;&gt;Node20</title>
<path fill="none" stroke="#191970" d="M63.4517,-475.7307C73.1208,-417.4015 110.4208,-209.7322 158,-166 159.515,-164.6075 161.1048,-163.3065 162.7583,-162.0915"/>
<polygon fill="#191970" stroke="#191970" points="164.8239,-164.9299 171.5036,-156.706 161.1534,-158.9694 164.8239,-164.9299"/>
</g>
<!-- Node21 -->
<g id="node22" class="node">
<title>Node21</title>
<g id="a_node22"><a xlink:href="../../d2/d5c/class_i_linear_alg_loop.html#a6a23447f189f3cf93add1dd0bc0bc522" target="_top" xlink:title="ILinearAlgLoop::getUseSparse\lFormat">
<polygon fill="#ffffff" stroke="#000000" points="174.5,-88 174.5,-118 323.5,-118 323.5,-88 174.5,-88"/>
<text text-anchor="start" x="182.5" y="-106" font-family="Helvetica,sans-Serif" font-size="10.00" fill="#000000">ILinearAlgLoop::getUseSparse</text>
<text text-anchor="middle" x="249" y="-95" font-family="Helvetica,sans-Serif" font-size="10.00" fill="#000000">Format</text>
</a>
</g>
</g>
<!-- Node0&#45;&gt;Node21 -->
<g id="edge21" class="edge">
<title>Node0&#45;&gt;Node21</title>
<path fill="none" stroke="#191970" d="M63.0366,-475.7918C71.6622,-413.5698 107.0944,-179.2629 158,-128 160.3666,-125.6167 162.9378,-123.4549 165.6655,-121.4942"/>
<polygon fill="#191970" stroke="#191970" points="167.5905,-124.4193 174.2705,-116.1956 163.9202,-118.4586 167.5905,-124.4193"/>
</g>
<!-- Node22 -->
<g id="node23" class="node">
<title>Node22</title>
<g id="a_node23"><a xlink:href="../../d2/d5c/class_i_linear_alg_loop.html#a2f8a8747d7ed275596a4cd9fbd2634da" target="_top" xlink:title="ILinearAlgLoop::setUseSparse\lFormat">
<polygon fill="#ffffff" stroke="#000000" points="174.5,-39 174.5,-69 323.5,-69 323.5,-39 174.5,-39"/>
<text text-anchor="start" x="182.5" y="-57" font-family="Helvetica,sans-Serif" font-size="10.00" fill="#000000">ILinearAlgLoop::setUseSparse</text>
<text text-anchor="middle" x="249" y="-46" font-family="Helvetica,sans-Serif" font-size="10.00" fill="#000000">Format</text>
</a>
</g>
</g>
<!-- Node0&#45;&gt;Node22 -->
<g id="edge22" class="edge">
<title>Node0&#45;&gt;Node22</title>
<path fill="none" stroke="#191970" d="M62.5378,-475.6241C69.5966,-408.0436 101.0147,-138.127 158,-79 160.3308,-76.5816 162.8718,-74.3903 165.5744,-72.4051"/>
<polygon fill="#191970" stroke="#191970" points="167.5061,-75.3251 174.1187,-67.0471 163.7872,-69.3946 167.5061,-75.3251"/>
</g>
<!-- Node23 -->
<g id="node24" class="node">
<title>Node23</title>
<g id="a_node24"><a xlink:href="../../d2/d5c/class_i_linear_alg_loop.html#aaf19dfef7ef1f956938205a3900e8864" target="_top" xlink:title="ILinearAlgLoop::queryDensity">
<polygon fill="#ffffff" stroke="#000000" points="176.5,-.5 176.5,-19.5 321.5,-19.5 321.5,-.5 176.5,-.5"/>
<text text-anchor="middle" x="249" y="-7.5" font-family="Helvetica,sans-Serif" font-size="10.00" fill="#000000">ILinearAlgLoop::queryDensity</text>
</a>
</g>
</g>
<!-- Node0&#45;&gt;Node23 -->
<g id="edge23" class="edge">
<title>Node0&#45;&gt;Node23</title>
<path fill="none" stroke="#191970" d="M62.0383,-475.7174C67.2688,-403.3028 93.0866,-95.4972 158,-30 160.8644,-27.1098 164.0447,-24.5945 167.4509,-22.4083"/>
<polygon fill="#191970" stroke="#191970" points="169.1871,-25.4486 176.3324,-17.6259 165.8684,-19.2853 169.1871,-25.4486"/>
</g>
</g>
</svg>
