<?xml version="1.0" encoding="UTF-8" standalone="no"?>
<!DOCTYPE svg PUBLIC "-//W3C//DTD SVG 1.1//EN"
 "http://www.w3.org/Graphics/SVG/1.1/DTD/svg11.dtd">
<!-- Generated by graphviz version 2.40.1 (20161225.0304)
 -->
<!-- Title: omc_ErrorExt_addSourceMessage Pages: 1 -->
<svg width="602pt" height="28pt"
 viewBox="0.00 0.00 602.00 28.00" xmlns="http://www.w3.org/2000/svg" xmlns:xlink="http://www.w3.org/1999/xlink">
<g id="graph0" class="graph" transform="scale(1 1) rotate(0) translate(4 24)">
<title>omc_ErrorExt_addSourceMessage</title>
<polygon fill="#ffffff" stroke="transparent" points="-4,4 -4,-24 598,-24 598,4 -4,4"/>
<!-- Node5966 -->
<g id="node1" class="node">
<title>Node5966</title>
<polygon fill="#bfbfbf" stroke="#000000" points="0,-.5 0,-19.5 168,-19.5 168,-.5 0,-.5"/>
<text text-anchor="middle" x="84" y="-7.5" font-family="Helvetica,sans-Serif" font-size="10.00" fill="#000000">omc_ErrorExt_addSourceMessage</text>
</g>
<!-- Node5967 -->
<g id="node2" class="node">
<title>Node5967</title>
<g id="a_node2"><a xlink:href="../../d1/d40/boot_2build_2_error_ext_8h.html#afef4410ffb05473c1ca2f30078ee39a8" target="_top" xlink:title="Error_addSourceMessage">
<polygon fill="#ffffff" stroke="#000000" points="204,-.5 204,-19.5 333,-19.5 333,-.5 204,-.5"/>
<text text-anchor="middle" x="268.5" y="-7.5" font-family="Helvetica,sans-Serif" font-size="10.00" fill="#000000">Error_addSourceMessage</text>
</a>
</g>
</g>
<!-- Node5966&#45;&gt;Node5967 -->
<g id="edge1" class="edge">
<title>Node5966&#45;&gt;Node5967</title>
<path fill="none" stroke="#191970" d="M168.1514,-10C176.6648,-10 185.2709,-10 193.6767,-10"/>
<polygon fill="#191970" stroke="#191970" points="193.8109,-13.5001 203.8109,-10 193.8109,-6.5001 193.8109,-13.5001"/>
</g>
<!-- Node5968 -->
<g id="node3" class="node">
<title>Node5968</title>
<g id="a_node3"><a xlink:href="../../dc/d1d/errorext_8cpp.html#a658c4e234277aba60ad929952c45d9e2" target="_top" xlink:title="add_source_message">
<polygon fill="#ffffff" stroke="#000000" points="369,-.5 369,-19.5 481,-19.5 481,-.5 369,-.5"/>
<text text-anchor="middle" x="425" y="-7.5" font-family="Helvetica,sans-Serif" font-size="10.00" fill="#000000">add_source_message</text>
</a>
</g>
</g>
<!-- Node5967&#45;&gt;Node5968 -->
<g id="edge2" class="edge">
<title>Node5967&#45;&gt;Node5968</title>
<path fill="none" stroke="#191970" d="M333.0581,-10C341.4385,-10 350.0351,-10 358.4473,-10"/>
<polygon fill="#191970" stroke="#191970" points="358.5898,-13.5001 368.5898,-10 358.5897,-6.5001 358.5898,-13.5001"/>
</g>
<!-- Node5969 -->
<g id="node4" class="node">
<title>Node5969</title>
<g id="a_node4"><a xlink:href="../../d4/dbe/_o_m_c_monitor_8c.html#ad78b5494db8b59027d08860c5efce10f" target="_top" xlink:title="ErrorMessage">
<polygon fill="#ffffff" stroke="#000000" points="517,-.5 517,-19.5 594,-19.5 594,-.5 517,-.5"/>
<text text-anchor="middle" x="555.5" y="-7.5" font-family="Helvetica,sans-Serif" font-size="10.00" fill="#000000">ErrorMessage</text>
</a>
</g>
</g>
<!-- Node5968&#45;&gt;Node5969 -->
<g id="edge3" class="edge">
<title>Node5968&#45;&gt;Node5969</title>
<path fill="none" stroke="#191970" d="M481.1011,-10C489.5528,-10 498.2135,-10 506.5007,-10"/>
<polygon fill="#191970" stroke="#191970" points="506.7542,-13.5001 516.7542,-10 506.7541,-6.5001 506.7542,-13.5001"/>
</g>
</g>
</svg>
