<?xml version="1.0" encoding="UTF-8" standalone="no"?>
<!DOCTYPE svg PUBLIC "-//W3C//DTD SVG 1.1//EN"
 "http://www.w3.org/Graphics/SVG/1.1/DTD/svg11.dtd">
<!-- Generated by graphviz version 2.40.1 (20161225.0304)
 -->
<!-- Title: omc_ErrorExt_getNumWarningMessages Pages: 1 -->
<svg width="333pt" height="39pt"
 viewBox="0.00 0.00 333.00 39.00" xmlns="http://www.w3.org/2000/svg" xmlns:xlink="http://www.w3.org/1999/xlink">
<g id="graph0" class="graph" transform="scale(1 1) rotate(0) translate(4 35)">
<title>omc_ErrorExt_getNumWarningMessages</title>
<polygon fill="#ffffff" stroke="transparent" points="-4,4 -4,-35 329,-35 329,4 -4,4"/>
<!-- Node11198 -->
<g id="node1" class="node">
<title>Node11198</title>
<polygon fill="#bfbfbf" stroke="#000000" points="0,-.5 0,-30.5 152,-30.5 152,-.5 0,-.5"/>
<text text-anchor="start" x="8" y="-18.5" font-family="Helvetica,sans-Serif" font-size="10.00" fill="#000000">omc_ErrorExt_getNumWarning</text>
<text text-anchor="middle" x="76" y="-7.5" font-family="Helvetica,sans-Serif" font-size="10.00" fill="#000000">Messages</text>
</g>
<!-- Node11199 -->
<g id="node2" class="node">
<title>Node11199</title>
<g id="a_node2"><a xlink:href="../../d1/d40/boot_2build_2_error_ext_8h.html#aa15df3d0c3d473787c14d40b505ab070" target="_top" xlink:title="ErrorImpl__getNumWarning\lMessages">
<polygon fill="#ffffff" stroke="#000000" points="188,-.5 188,-30.5 325,-30.5 325,-.5 188,-.5"/>
<text text-anchor="start" x="196" y="-18.5" font-family="Helvetica,sans-Serif" font-size="10.00" fill="#000000">ErrorImpl__getNumWarning</text>
<text text-anchor="middle" x="256.5" y="-7.5" font-family="Helvetica,sans-Serif" font-size="10.00" fill="#000000">Messages</text>
</a>
</g>
</g>
<!-- Node11198&#45;&gt;Node11199 -->
<g id="edge1" class="edge">
<title>Node11198&#45;&gt;Node11199</title>
<path fill="none" stroke="#191970" d="M152.0251,-15.5C160.4502,-15.5 169.0449,-15.5 177.5055,-15.5"/>
<polygon fill="#191970" stroke="#191970" points="177.7388,-19.0001 187.7387,-15.5 177.7387,-12.0001 177.7388,-19.0001"/>
</g>
</g>
</svg>
