<?xml version="1.0" encoding="UTF-8" standalone="no"?>
<!DOCTYPE svg PUBLIC "-//W3C//DTD SVG 1.1//EN"
 "http://www.w3.org/Graphics/SVG/1.1/DTD/svg11.dtd">
<!-- Generated by graphviz version 2.40.1 (20161225.0304)
 -->
<!-- Title: MLMat::Apply Pages: 1 -->
<svg width="1067pt" height="1060pt"
 viewBox="0.00 0.00 1067.00 1060.34" xmlns="http://www.w3.org/2000/svg" xmlns:xlink="http://www.w3.org/1999/xlink">
<g id="graph0" class="graph" transform="scale(1 1) rotate(0) translate(4 1056.3417)">
<title>MLMat::Apply</title>
<polygon fill="#ffffff" stroke="transparent" points="-4,4 -4,-1056.3417 1063,-1056.3417 1063,4 -4,4"/>
<!-- Node52 -->
<g id="node1" class="node">
<title>Node52</title>
<polygon fill="#bfbfbf" stroke="#000000" points="0,-855.5 0,-874.5 77,-874.5 77,-855.5 0,-855.5"/>
<text text-anchor="middle" x="38.5" y="-862.5" font-family="Helvetica,sans-Serif" font-size="10.00" fill="#000000">MLMat::Apply</text>
</g>
<!-- Node53 -->
<g id="node2" class="node">
<title>Node53</title>
<g id="a_node2"><a xlink:href="../../d5/d1b/ml__struct_8c.html#a671db0326121597e493f8fec0fffbb1d" target="_top" xlink:title="ML_Solve_MGV">
<polygon fill="#ffffff" stroke="#000000" points="113,-893.5 113,-912.5 201,-912.5 201,-893.5 113,-893.5"/>
<text text-anchor="middle" x="157" y="-900.5" font-family="Helvetica,sans-Serif" font-size="10.00" fill="#000000">ML_Solve_MGV</text>
</a>
</g>
</g>
<!-- Node52&#45;&gt;Node53 -->
<g id="edge1" class="edge">
<title>Node52&#45;&gt;Node53</title>
<path fill="none" stroke="#191970" d="M68.4026,-874.589C83.2787,-879.3594 101.4571,-885.1888 117.4674,-890.3229"/>
<polygon fill="#191970" stroke="#191970" points="116.5159,-893.6932 127.107,-893.4141 118.6534,-887.0276 116.5159,-893.6932"/>
</g>
<!-- Node69 -->
<g id="node18" class="node">
<title>Node69</title>
<g id="a_node18"><a xlink:href="../../d9/df5/ml__smoother_8c.html#aff5651ed961dfff0227eeae537d46ba9" target="_top" xlink:title="ML_Smoother_Apply">
<polygon fill="#ffffff" stroke="#000000" points="415.5,-826.5 415.5,-845.5 522.5,-845.5 522.5,-826.5 415.5,-826.5"/>
<text text-anchor="middle" x="469" y="-833.5" font-family="Helvetica,sans-Serif" font-size="10.00" fill="#000000">ML_Smoother_Apply</text>
</a>
</g>
</g>
<!-- Node52&#45;&gt;Node69 -->
<g id="edge62" class="edge">
<title>Node52&#45;&gt;Node69</title>
<path fill="none" stroke="#191970" d="M77.0829,-862.4009C151.3054,-857.401 314.6271,-846.3991 405.2567,-840.294"/>
<polygon fill="#191970" stroke="#191970" points="405.6598,-843.7748 415.402,-839.6106 405.1893,-836.7907 405.6598,-843.7748"/>
</g>
<!-- Node54 -->
<g id="node3" class="node">
<title>Node54</title>
<g id="a_node3"><a xlink:href="../../d8/d08/ml__memory_8c.html#ab87b354d6e82cccbd10c498870d74c6b" target="_top" xlink:title="ML_allocate">
<polygon fill="#ffffff" stroke="#000000" points="606.5,-902.5 606.5,-921.5 675.5,-921.5 675.5,-902.5 606.5,-902.5"/>
<text text-anchor="middle" x="641" y="-909.5" font-family="Helvetica,sans-Serif" font-size="10.00" fill="#000000">ML_allocate</text>
</a>
</g>
</g>
<!-- Node53&#45;&gt;Node54 -->
<g id="edge2" class="edge">
<title>Node53&#45;&gt;Node54</title>
<path fill="none" stroke="#191970" d="M161.4978,-912.6464C171.6037,-933.0103 198.2913,-979.9913 237,-998 371.7861,-1060.7074 553.2,-965.4614 617.3388,-926.9579"/>
<polygon fill="#191970" stroke="#191970" points="619.2185,-929.9111 625.9314,-921.7143 615.5721,-923.9358 619.2185,-929.9111"/>
</g>
<!-- Node56 -->
<g id="node5" class="node">
<title>Node56</title>
<g id="a_node5"><a xlink:href="../../da/d6c/ml__aztec__utils_8c.html#a7db311c960b81177df79b7e832fc86ca" target="_top" xlink:title="ML_free">
<polygon fill="#ffffff" stroke="#000000" points="790.5,-940.5 790.5,-959.5 842.5,-959.5 842.5,-940.5 790.5,-940.5"/>
<text text-anchor="middle" x="816.5" y="-947.5" font-family="Helvetica,sans-Serif" font-size="10.00" fill="#000000">ML_free</text>
</a>
</g>
</g>
<!-- Node53&#45;&gt;Node56 -->
<g id="edge61" class="edge">
<title>Node53&#45;&gt;Node56</title>
<path fill="none" stroke="#191970" d="M160.0134,-912.7797C167.9905,-936.7341 192.1785,-998.1237 237,-1022 288.8994,-1049.6467 511.6621,-1075.9862 714,-1015 746.5126,-1005.2004 778.7096,-981.9809 798.1046,-966.1204"/>
<polygon fill="#191970" stroke="#191970" points="800.4262,-968.7412 805.8334,-959.63 795.9246,-963.3807 800.4262,-968.7412"/>
</g>
<!-- Node57 -->
<g id="node6" class="node">
<title>Node57</title>
<g id="a_node6"><a xlink:href="../../d2/d6f/ml__bdrypts_8c.html#a440b9eec63928795e126cd9355b90269" target="_top" xlink:title="ML_BdryPts_Get_Dirichlet\l_Eqn_Info">
<polygon fill="#ffffff" stroke="#000000" points="237,-473 237,-503 370,-503 370,-473 237,-473"/>
<text text-anchor="start" x="245" y="-491" font-family="Helvetica,sans-Serif" font-size="10.00" fill="#000000">ML_BdryPts_Get_Dirichlet</text>
<text text-anchor="middle" x="303.5" y="-480" font-family="Helvetica,sans-Serif" font-size="10.00" fill="#000000">_Eqn_Info</text>
</a>
</g>
</g>
<!-- Node53&#45;&gt;Node57 -->
<g id="edge5" class="edge">
<title>Node53&#45;&gt;Node57</title>
<path fill="none" stroke="#191970" d="M157.7386,-893.267C162.0423,-838.924 185.4961,-573.3151 237,-513 238.0262,-511.7982 239.1163,-510.6541 240.2612,-509.565"/>
<polygon fill="#191970" stroke="#191970" points="242.7732,-512.0454 248.5195,-503.1442 238.4765,-506.5191 242.7732,-512.0454"/>
</g>
<!-- Node58 -->
<g id="node7" class="node">
<title>Node58</title>
<g id="a_node7"><a xlink:href="../../d3/dcd/ml__vec_8c.html#ad915ae1890af3e759f31112af5812571" target="_top" xlink:title="ML_DVector_GetDataPtr">
<polygon fill="#ffffff" stroke="#000000" points="406,-902.5 406,-921.5 532,-921.5 532,-902.5 406,-902.5"/>
<text text-anchor="middle" x="469" y="-909.5" font-family="Helvetica,sans-Serif" font-size="10.00" fill="#000000">ML_DVector_GetDataPtr</text>
</a>
</g>
</g>
<!-- Node53&#45;&gt;Node58 -->
<g id="edge6" class="edge">
<title>Node53&#45;&gt;Node58</title>
<path fill="none" stroke="#191970" d="M201.0402,-904.2704C251.535,-905.727 335.1068,-908.1377 395.5083,-909.88"/>
<polygon fill="#191970" stroke="#191970" points="395.6508,-913.3855 405.7476,-910.1754 395.8528,-906.3884 395.6508,-913.3855"/>
</g>
<!-- Node59 -->
<g id="node8" class="node">
<title>Node59</title>
<g id="a_node8"><a xlink:href="../../d5/d1b/ml__struct_8c.html#a95b0c98fe445e8fb142d3c055d082f5e" target="_top" xlink:title="ML_Cycle_MG">
<polygon fill="#ffffff" stroke="#000000" points="262.5,-522.5 262.5,-541.5 344.5,-541.5 344.5,-522.5 262.5,-522.5"/>
<text text-anchor="middle" x="303.5" y="-529.5" font-family="Helvetica,sans-Serif" font-size="10.00" fill="#000000">ML_Cycle_MG</text>
</a>
</g>
</g>
<!-- Node53&#45;&gt;Node59 -->
<g id="edge7" class="edge">
<title>Node53&#45;&gt;Node59</title>
<path fill="none" stroke="#191970" d="M160.7686,-893.4563C180.1966,-844.2564 269.1615,-618.9597 295.8866,-551.2803"/>
<polygon fill="#191970" stroke="#191970" points="299.2038,-552.4092 299.6213,-541.8226 292.693,-549.8382 299.2038,-552.4092"/>
</g>
<!-- Node63 -->
<g id="node12" class="node">
<title>Node63</title>
<g id="a_node12"><a xlink:href="../../d4/d98/g_09_09malloc_8c.html#a49f789e614e57e410f598885b800c2df" target="_top" xlink:title="fprintf">
<polygon fill="#ffffff" stroke="#000000" points="968.5,-332.5 968.5,-351.5 1009.5,-351.5 1009.5,-332.5 968.5,-332.5"/>
<text text-anchor="middle" x="989" y="-339.5" font-family="Helvetica,sans-Serif" font-size="10.00" fill="#000000">fprintf</text>
</a>
</g>
</g>
<!-- Node53&#45;&gt;Node63 -->
<g id="edge55" class="edge">
<title>Node53&#45;&gt;Node63</title>
<path fill="none" stroke="#191970" d="M158.0993,-893.4699C169.485,-796.9627 269.5476,0 469,0 469,0 469,0 641,0 763.7286,0 797.6682,-44.7912 883,-133 938.5918,-190.4661 971.2989,-282.8694 983.4959,-322.7037"/>
<polygon fill="#191970" stroke="#191970" points="980.1943,-323.881 986.3942,-332.4723 986.9051,-321.8898 980.1943,-323.881"/>
</g>
<!-- Node89 -->
<g id="node38" class="node">
<title>Node89</title>
<g id="a_node38"><a xlink:href="../../da/d6c/group__jm__vector.html#gaac2916bbf5bdc0c66a10d0bd32c9134b" target="_top" xlink:title="if">
<polygon fill="#ffffff" stroke="#000000" points="289,-969.5 289,-988.5 318,-988.5 318,-969.5 289,-969.5"/>
<text text-anchor="middle" x="303.5" y="-976.5" font-family="Helvetica,sans-Serif" font-size="10.00" fill="#000000">if</text>
</a>
</g>
</g>
<!-- Node53&#45;&gt;Node89 -->
<g id="edge54" class="edge">
<title>Node53&#45;&gt;Node89</title>
<path fill="none" stroke="#191970" d="M169.7529,-912.617C185.0971,-923.8674 211.932,-942.5375 237,-955 250.5289,-961.7259 266.4224,-967.5325 279.2786,-971.7489"/>
<polygon fill="#191970" stroke="#191970" points="278.2446,-975.0927 288.8347,-974.7766 280.3589,-968.4196 278.2446,-975.0927"/>
</g>
<!-- Node90 -->
<g id="node39" class="node">
<title>Node90</title>
<g id="a_node39"><a xlink:href="../../d5/d1b/ml__struct_8c.html#ad815b80ab1920ab4f463da4b0b191bcd" target="_top" xlink:title="ML_Cycle_GGB">
<polygon fill="#ffffff" stroke="#000000" points="425,-940.5 425,-959.5 513,-959.5 513,-940.5 425,-940.5"/>
<text text-anchor="middle" x="469" y="-947.5" font-family="Helvetica,sans-Serif" font-size="10.00" fill="#000000">ML_Cycle_GGB</text>
</a>
</g>
</g>
<!-- Node53&#45;&gt;Node90 -->
<g id="edge56" class="edge">
<title>Node53&#45;&gt;Node90</title>
<path fill="none" stroke="#191970" d="M195.9105,-912.5504C208.9212,-915.5308 223.5369,-918.6497 237,-921 297.5362,-931.5682 367.609,-939.7788 414.7682,-944.7244"/>
<polygon fill="#191970" stroke="#191970" points="414.4588,-948.211 424.7662,-945.7599 415.18,-941.2482 414.4588,-948.211"/>
</g>
<!-- Node55 -->
<g id="node4" class="node">
<title>Node55</title>
<g id="a_node4"><a xlink:href="../../dc/ddc/3rd_party_2flex-2_85_835_2parse_8c.html#a5faf6a2d99f50a4655dd390199a8db7b" target="_top" xlink:title="malloc">
<polygon fill="#ffffff" stroke="#000000" points="794,-902.5 794,-921.5 839,-921.5 839,-902.5 794,-902.5"/>
<text text-anchor="middle" x="816.5" y="-909.5" font-family="Helvetica,sans-Serif" font-size="10.00" fill="#000000">malloc</text>
</a>
</g>
</g>
<!-- Node54&#45;&gt;Node55 -->
<g id="edge3" class="edge">
<title>Node54&#45;&gt;Node55</title>
<path fill="none" stroke="#191970" d="M675.6732,-912C707.0381,-912 752.8947,-912 783.6739,-912"/>
<polygon fill="#191970" stroke="#191970" points="783.8836,-915.5001 793.8835,-912 783.8835,-908.5001 783.8836,-915.5001"/>
</g>
<!-- Node54&#45;&gt;Node56 -->
<g id="edge4" class="edge">
<title>Node54&#45;&gt;Node56</title>
<path fill="none" stroke="#191970" d="M675.6732,-919.5076C706.0084,-926.0759 749.8992,-935.5793 780.5945,-942.2256"/>
<polygon fill="#191970" stroke="#191970" points="779.9455,-945.6661 790.4597,-944.3616 781.4269,-938.8246 779.9455,-945.6661"/>
</g>
<!-- Node59&#45;&gt;Node54 -->
<g id="edge12" class="edge">
<title>Node59&#45;&gt;Node54</title>
<path fill="none" stroke="#191970" d="M305.2684,-541.7421C314.3454,-590.7144 357.1752,-809.448 406,-855 419.9132,-867.9806 531.9852,-891.164 596.2045,-903.5883"/>
<polygon fill="#191970" stroke="#191970" points="595.597,-907.0356 606.078,-905.4868 596.9188,-900.1615 595.597,-907.0356"/>
</g>
<!-- Node59&#45;&gt;Node56 -->
<g id="edge17" class="edge">
<title>Node59&#45;&gt;Node56</title>
<path fill="none" stroke="#191970" d="M304.1944,-541.702C308.6499,-600.918 335.3102,-912.9723 406,-969 519.7071,-1059.1226 711.8157,-994.0658 786.0006,-963.5066"/>
<polygon fill="#191970" stroke="#191970" points="787.3978,-966.716 795.2619,-959.6163 784.6868,-960.2623 787.3978,-966.716"/>
</g>
<!-- Node59&#45;&gt;Node58 -->
<g id="edge13" class="edge">
<title>Node59&#45;&gt;Node58</title>
<path fill="none" stroke="#191970" d="M305.0723,-541.5692C313.652,-592.7563 356.2585,-833.9139 406,-888 409.5245,-891.8323 413.7263,-895.0574 418.2638,-897.7707"/>
<polygon fill="#191970" stroke="#191970" points="416.8143,-900.9603 427.3133,-902.3826 419.9928,-894.7235 416.8143,-900.9603"/>
</g>
<!-- Node59&#45;&gt;Node59 -->
<g id="edge53" class="edge">
<title>Node59&#45;&gt;Node59</title>
<path fill="none" stroke="#191970" d="M280.9972,-541.7571C270.0498,-550.5653 277.5508,-560 303.5,-560 320.5292,-560 329.6133,-555.9368 330.7525,-550.6539"/>
<polygon fill="#191970" stroke="#191970" points="333.7999,-548.9303 326.0028,-541.7571 327.6248,-552.227 333.7999,-548.9303"/>
</g>
<!-- Node60 -->
<g id="node9" class="node">
<title>Node60</title>
<g id="a_node9"><a xlink:href="../../d7/d6b/ipoma-dummy_8f.html#a14e68597ab81208552434ccd2a9e8f4f" target="_top" xlink:title="dummy">
<polygon fill="#ffffff" stroke="#000000" points="444.5,-560.5 444.5,-579.5 493.5,-579.5 493.5,-560.5 444.5,-560.5"/>
<text text-anchor="middle" x="469" y="-567.5" font-family="Helvetica,sans-Serif" font-size="10.00" fill="#000000">dummy</text>
</a>
</g>
</g>
<!-- Node59&#45;&gt;Node60 -->
<g id="edge8" class="edge">
<title>Node59&#45;&gt;Node60</title>
<path fill="none" stroke="#191970" d="M344.8357,-541.491C372.39,-547.8176 408.1985,-556.0395 434.2758,-562.0271"/>
<polygon fill="#191970" stroke="#191970" points="433.5744,-565.457 444.104,-564.2837 435.1409,-558.6346 433.5744,-565.457"/>
</g>
<!-- Node61 -->
<g id="node10" class="node">
<title>Node61</title>
<g id="a_node10"><a xlink:href="../../db/d9d/ml__comm_8c.html#a299b0f0e723fa546a1be776ce59f6022" target="_top" xlink:title="ML_Comm_Barrier">
<polygon fill="#ffffff" stroke="#000000" points="592,-458.5 592,-477.5 690,-477.5 690,-458.5 592,-458.5"/>
<text text-anchor="middle" x="641" y="-465.5" font-family="Helvetica,sans-Serif" font-size="10.00" fill="#000000">ML_Comm_Barrier</text>
</a>
</g>
</g>
<!-- Node59&#45;&gt;Node61 -->
<g id="edge9" class="edge">
<title>Node59&#45;&gt;Node61</title>
<path fill="none" stroke="#191970" d="M344.8273,-522.7894C363.484,-518.7192 385.8199,-513.9678 406,-510 465.6713,-498.2676 534.1432,-486.1863 581.7232,-478.0106"/>
<polygon fill="#191970" stroke="#191970" points="582.5824,-481.4144 591.8476,-476.2757 581.4001,-474.515 582.5824,-481.4144"/>
</g>
<!-- Node59&#45;&gt;Node63 -->
<g id="edge14" class="edge">
<title>Node59&#45;&gt;Node63</title>
<path fill="none" stroke="#191970" d="M344.6094,-527.1539C353.9499,-524.3143 363.13,-519.8843 370,-513 411.4416,-471.4721 361.9248,-424.7215 406,-386 488.6622,-313.3784 849.4548,-332.2041 957.9979,-339.6713"/>
<polygon fill="#191970" stroke="#191970" points="958.0454,-343.1833 968.2671,-340.3963 958.5384,-336.2006 958.0454,-343.1833"/>
</g>
<!-- Node64 -->
<g id="node13" class="node">
<title>Node64</title>
<g id="a_node13"><a xlink:href="../../d8/dbe/ml__operator_8c.html#a9031c5ef369cea12e948feac0eb0343a" target="_top" xlink:title="ML_Operator_Getrow">
<polygon fill="#ffffff" stroke="#000000" points="586,-420.5 586,-439.5 696,-439.5 696,-420.5 586,-420.5"/>
<text text-anchor="middle" x="641" y="-427.5" font-family="Helvetica,sans-Serif" font-size="10.00" fill="#000000">ML_Operator_Getrow</text>
</a>
</g>
</g>
<!-- Node59&#45;&gt;Node64 -->
<g id="edge15" class="edge">
<title>Node59&#45;&gt;Node64</title>
<path fill="none" stroke="#191970" d="M344.6333,-523.1441C353.2757,-520.4945 362.1457,-517.1543 370,-513 388.4106,-503.2621 387.3217,-492.2141 406,-483 459.7512,-456.4841 526.9646,-443.0466 575.7243,-436.3542"/>
<polygon fill="#191970" stroke="#191970" points="576.3784,-439.7985 585.8375,-435.0262 575.467,-432.858 576.3784,-439.7985"/>
</g>
<!-- Node65 -->
<g id="node14" class="node">
<title>Node65</title>
<g id="a_node14"><a xlink:href="../../de/d5b/ml__csolve_8c.html#ab678b3f328a42fa962345396efaeb44a" target="_top" xlink:title="ML_CSolve_Check">
<polygon fill="#ffffff" stroke="#000000" points="418.5,-294.5 418.5,-313.5 519.5,-313.5 519.5,-294.5 418.5,-294.5"/>
<text text-anchor="middle" x="469" y="-301.5" font-family="Helvetica,sans-Serif" font-size="10.00" fill="#000000">ML_CSolve_Check</text>
</a>
</g>
</g>
<!-- Node59&#45;&gt;Node65 -->
<g id="edge18" class="edge">
<title>Node59&#45;&gt;Node65</title>
<path fill="none" stroke="#191970" d="M344.6775,-527.6546C354.1291,-524.812 363.344,-520.2553 370,-513 426.6263,-451.2751 352.0691,-392.0933 406,-328 409.1768,-324.2246 413.0156,-321.0419 417.2124,-318.3589"/>
<polygon fill="#191970" stroke="#191970" points="419.0721,-321.3332 426.2322,-313.5239 415.765,-315.1637 419.0721,-321.3332"/>
</g>
<!-- Node66 -->
<g id="node15" class="node">
<title>Node66</title>
<g id="a_node15"><a xlink:href="../../de/d5b/ml__csolve_8c.html#acf6ec859d79a88885fa9947aac883f4f" target="_top" xlink:title="ML_CSolve_Apply">
<polygon fill="#ffffff" stroke="#000000" points="592,-534.5 592,-553.5 690,-553.5 690,-534.5 592,-534.5"/>
<text text-anchor="middle" x="641" y="-541.5" font-family="Helvetica,sans-Serif" font-size="10.00" fill="#000000">ML_CSolve_Apply</text>
</a>
</g>
</g>
<!-- Node59&#45;&gt;Node66 -->
<g id="edge19" class="edge">
<title>Node59&#45;&gt;Node66</title>
<path fill="none" stroke="#191970" d="M344.5467,-533.4594C403.7818,-535.5656 513.5734,-539.4693 581.6395,-541.8894"/>
<polygon fill="#191970" stroke="#191970" points="581.6616,-545.3923 591.7797,-542.2499 581.9104,-538.3967 581.6616,-545.3923"/>
</g>
<!-- Node59&#45;&gt;Node69 -->
<g id="edge23" class="edge">
<title>Node59&#45;&gt;Node69</title>
<path fill="none" stroke="#191970" d="M303.9799,-541.7649C306.4947,-582.0312 321.5176,-736.827 406,-817 407.6496,-818.5654 409.4235,-820.0023 411.2925,-821.3211"/>
<polygon fill="#191970" stroke="#191970" points="409.5998,-824.3854 420.0052,-826.38 413.1147,-818.3318 409.5998,-824.3854"/>
</g>
<!-- Node70 -->
<g id="node19" class="node">
<title>Node70</title>
<g id="a_node19"><a xlink:href="../../d6/de2/ml__utils_8c.html#a014ce25c0545fc544ca88a0c6ba29fc4" target="_top" xlink:title="ML_gdot">
<polygon fill="#ffffff" stroke="#000000" points="614,-161.5 614,-180.5 668,-180.5 668,-161.5 614,-161.5"/>
<text text-anchor="middle" x="641" y="-168.5" font-family="Helvetica,sans-Serif" font-size="10.00" fill="#000000">ML_gdot</text>
</a>
</g>
</g>
<!-- Node59&#45;&gt;Node70 -->
<g id="edge35" class="edge">
<title>Node59&#45;&gt;Node70</title>
<path fill="none" stroke="#191970" d="M344.5708,-528.3667C354.2588,-525.5359 363.6139,-520.8067 370,-513 434.3607,-434.3226 331.3487,-125.9901 406,-57 447.1267,-18.9922 480.5062,-34.9912 532,-57 577.5234,-76.457 613.1122,-125.2915 630.093,-152.3038"/>
<polygon fill="#191970" stroke="#191970" points="627.3024,-154.4508 635.4912,-161.1736 633.2821,-150.8116 627.3024,-154.4508"/>
</g>
<!-- Node73 -->
<g id="node22" class="node">
<title>Node73</title>
<g id="a_node22"><a xlink:href="../../d8/dbe/ml__operator_8c.html#a3274a612272c2980cde510e25606c951" target="_top" xlink:title="ML_Operator_Apply">
<polygon fill="#ffffff" stroke="#000000" points="589.5,-496.5 589.5,-515.5 692.5,-515.5 692.5,-496.5 589.5,-496.5"/>
<text text-anchor="middle" x="641" y="-503.5" font-family="Helvetica,sans-Serif" font-size="10.00" fill="#000000">ML_Operator_Apply</text>
</a>
</g>
</g>
<!-- Node59&#45;&gt;Node73 -->
<g id="edge34" class="edge">
<title>Node59&#45;&gt;Node73</title>
<path fill="none" stroke="#191970" d="M344.5467,-528.8379C403.1134,-524.3261 511.1022,-516.0069 579.3197,-510.7517"/>
<polygon fill="#191970" stroke="#191970" points="579.7974,-514.2253 589.499,-509.9675 579.2596,-507.246 579.7974,-514.2253"/>
</g>
<!-- Node75 -->
<g id="node24" class="node">
<title>Node75</title>
<g id="a_node24"><a xlink:href="../../da/d05/ml__mapper_8c.html#ac856780e6bd343187e0f12900202b652" target="_top" xlink:title="ML_Mapper_Check">
<polygon fill="#ffffff" stroke="#000000" points="418.5,-256.5 418.5,-275.5 519.5,-275.5 519.5,-256.5 418.5,-256.5"/>
<text text-anchor="middle" x="469" y="-263.5" font-family="Helvetica,sans-Serif" font-size="10.00" fill="#000000">ML_Mapper_Check</text>
</a>
</g>
</g>
<!-- Node59&#45;&gt;Node75 -->
<g id="edge36" class="edge">
<title>Node59&#45;&gt;Node75</title>
<path fill="none" stroke="#191970" d="M344.5121,-527.9205C354.0821,-525.0832 363.3946,-520.4625 370,-513 437.9956,-436.1818 338.5675,-362.313 406,-285 407.1874,-283.6386 408.4684,-282.373 409.8271,-281.1963"/>
<polygon fill="#191970" stroke="#191970" points="412.0565,-283.9123 418.3445,-275.3852 408.1114,-278.1299 412.0565,-283.9123"/>
</g>
<!-- Node76 -->
<g id="node25" class="node">
<title>Node76</title>
<g id="a_node25"><a xlink:href="../../da/d05/ml__mapper_8c.html#a9aa85267889d25b889ac00888c08a371" target="_top" xlink:title="ML_Mapper_Apply">
<polygon fill="#ffffff" stroke="#000000" points="420,-218.5 420,-237.5 518,-237.5 518,-218.5 420,-218.5"/>
<text text-anchor="middle" x="469" y="-225.5" font-family="Helvetica,sans-Serif" font-size="10.00" fill="#000000">ML_Mapper_Apply</text>
</a>
</g>
</g>
<!-- Node59&#45;&gt;Node76 -->
<g id="edge37" class="edge">
<title>Node59&#45;&gt;Node76</title>
<path fill="none" stroke="#191970" d="M344.6256,-528.0198C354.194,-525.1812 363.4774,-520.5349 370,-513 448.0808,-422.8008 328.5804,-337.7672 406,-247 407.536,-245.1992 409.2361,-243.5654 411.0635,-242.0834"/>
<polygon fill="#191970" stroke="#191970" points="413.2392,-244.8466 419.7785,-236.5106 409.4681,-238.9492 413.2392,-244.8466"/>
</g>
<!-- Node77 -->
<g id="node26" class="node">
<title>Node77</title>
<g id="a_node26"><a xlink:href="../../d8/dbe/ml__operator_8c.html#a09806bcc02147c3683b4a1a5f0970f1b" target="_top" xlink:title="ML_Operator_ApplyAndReset\lBdryPts">
<polygon fill="#ffffff" stroke="#000000" points="568,-371 568,-401 714,-401 714,-371 568,-371"/>
<text text-anchor="start" x="576" y="-389" font-family="Helvetica,sans-Serif" font-size="10.00" fill="#000000">ML_Operator_ApplyAndReset</text>
<text text-anchor="middle" x="641" y="-378" font-family="Helvetica,sans-Serif" font-size="10.00" fill="#000000">BdryPts</text>
</a>
</g>
</g>
<!-- Node59&#45;&gt;Node77 -->
<g id="edge38" class="edge">
<title>Node59&#45;&gt;Node77</title>
<path fill="none" stroke="#191970" d="M344.8361,-525.9484C353.8498,-523.1358 362.8257,-519.0203 370,-513 398.0169,-489.4897 377.3304,-461.7098 406,-439 448.7734,-405.1182 508.9871,-392.0057 557.7543,-387.293"/>
<polygon fill="#191970" stroke="#191970" points="558.3147,-390.7577 567.9766,-386.4103 557.7125,-383.7836 558.3147,-390.7577"/>
</g>
<!-- Node79 -->
<g id="node28" class="node">
<title>Node79</title>
<g id="a_node28"><a xlink:href="../../d5/d1b/ml__struct_8c.html#aa2486570b426fa836f6abcacd4053918" target="_top" xlink:title="ML_Cycle_MG_9">
<polygon fill="#ffffff" stroke="#000000" points="423,-180.5 423,-199.5 515,-199.5 515,-180.5 423,-180.5"/>
<text text-anchor="middle" x="469" y="-187.5" font-family="Helvetica,sans-Serif" font-size="10.00" fill="#000000">ML_Cycle_MG_9</text>
</a>
</g>
</g>
<!-- Node59&#45;&gt;Node79 -->
<g id="edge43" class="edge">
<title>Node59&#45;&gt;Node79</title>
<path fill="none" stroke="#191970" d="M344.7118,-528.0938C354.279,-525.2542 363.5404,-520.589 370,-513 458.1875,-409.3951 318.5719,-313.2465 406,-209 408.309,-206.2468 411.0016,-203.8834 413.9487,-201.8555"/>
<polygon fill="#191970" stroke="#191970" points="415.7402,-204.8648 422.821,-196.9836 412.3709,-198.7289 415.7402,-204.8648"/>
</g>
<!-- Node80 -->
<g id="node29" class="node">
<title>Node80</title>
<g id="a_node29"><a xlink:href="../../d5/d1b/ml__struct_8c.html#aac22d21476f218ef688e537360e9df72" target="_top" xlink:title="ML_Cycle_MG_8">
<polygon fill="#ffffff" stroke="#000000" points="423,-142.5 423,-161.5 515,-161.5 515,-142.5 423,-142.5"/>
<text text-anchor="middle" x="469" y="-149.5" font-family="Helvetica,sans-Serif" font-size="10.00" fill="#000000">ML_Cycle_MG_8</text>
</a>
</g>
</g>
<!-- Node59&#45;&gt;Node80 -->
<g id="edge44" class="edge">
<title>Node59&#45;&gt;Node80</title>
<path fill="none" stroke="#191970" d="M344.7796,-528.1511C354.3459,-525.3107 363.5898,-520.6308 370,-513 468.3085,-395.9725 308.5492,-288.7427 406,-171 408.291,-168.2319 410.9701,-165.8572 413.9073,-163.821"/>
<polygon fill="#191970" stroke="#191970" points="415.6977,-166.8305 422.7605,-158.9332 412.3144,-160.7024 415.6977,-166.8305"/>
</g>
<!-- Node81 -->
<g id="node30" class="node">
<title>Node81</title>
<g id="a_node30"><a xlink:href="../../d5/d1b/ml__struct_8c.html#ab710d0a4265ea1a71a39df59ef83ea95" target="_top" xlink:title="ML_Cycle_MG_7">
<polygon fill="#ffffff" stroke="#000000" points="423,-104.5 423,-123.5 515,-123.5 515,-104.5 423,-104.5"/>
<text text-anchor="middle" x="469" y="-111.5" font-family="Helvetica,sans-Serif" font-size="10.00" fill="#000000">ML_Cycle_MG_7</text>
</a>
</g>
</g>
<!-- Node59&#45;&gt;Node81 -->
<g id="edge45" class="edge">
<title>Node59&#45;&gt;Node81</title>
<path fill="none" stroke="#191970" d="M344.8342,-528.1967C354.3997,-525.3557 363.6296,-520.6641 370,-513 424.2198,-447.769 352.2583,-198.6254 406,-133 408.2766,-130.22 410.9448,-127.8363 413.874,-125.7935"/>
<polygon fill="#191970" stroke="#191970" points="415.6635,-128.8033 422.7117,-120.893 412.2689,-122.6815 415.6635,-128.8033"/>
</g>
<!-- Node82 -->
<g id="node31" class="node">
<title>Node82</title>
<g id="a_node31"><a xlink:href="../../d5/d1b/ml__struct_8c.html#a9a0c2cc2d36b57f4cc322bf29e1eec0b" target="_top" xlink:title="ML_Cycle_MG_6">
<polygon fill="#ffffff" stroke="#000000" points="423,-66.5 423,-85.5 515,-85.5 515,-66.5 423,-66.5"/>
<text text-anchor="middle" x="469" y="-73.5" font-family="Helvetica,sans-Serif" font-size="10.00" fill="#000000">ML_Cycle_MG_6</text>
</a>
</g>
</g>
<!-- Node59&#45;&gt;Node82 -->
<g id="edge46" class="edge">
<title>Node59&#45;&gt;Node82</title>
<path fill="none" stroke="#191970" d="M344.5332,-528.3358C354.2215,-525.5052 363.5861,-520.7839 370,-513 429.2889,-441.0474 347.2384,-167.3838 406,-95 408.3018,-92.1646 411.0112,-89.741 413.9905,-87.6707"/>
<polygon fill="#191970" stroke="#191970" points="415.9115,-90.6086 422.9869,-82.7225 412.538,-84.4751 415.9115,-90.6086"/>
</g>
<!-- Node83 -->
<g id="node32" class="node">
<title>Node83</title>
<g id="a_node32"><a xlink:href="../../d5/d1b/ml__struct_8c.html#ade8551fc7c459e4c481e4eab0cbb8877" target="_top" xlink:title="ML_Cycle_MG_5">
<polygon fill="#ffffff" stroke="#000000" points="423,-788.5 423,-807.5 515,-807.5 515,-788.5 423,-788.5"/>
<text text-anchor="middle" x="469" y="-795.5" font-family="Helvetica,sans-Serif" font-size="10.00" fill="#000000">ML_Cycle_MG_5</text>
</a>
</g>
</g>
<!-- Node59&#45;&gt;Node83 -->
<g id="edge47" class="edge">
<title>Node59&#45;&gt;Node83</title>
<path fill="none" stroke="#191970" d="M304.5785,-541.7138C309.1882,-578.5258 330.5853,-710.8036 406,-779 408.3394,-781.1155 410.9071,-782.9957 413.6264,-784.6668"/>
<polygon fill="#191970" stroke="#191970" points="412.2374,-787.8875 422.7344,-789.3238 415.4242,-781.655 412.2374,-787.8875"/>
</g>
<!-- Node84 -->
<g id="node33" class="node">
<title>Node84</title>
<g id="a_node33"><a xlink:href="../../d5/d1b/ml__struct_8c.html#a73d31a35d294c6c3d0e6a527e9f95e9f" target="_top" xlink:title="ML_Cycle_MG_4">
<polygon fill="#ffffff" stroke="#000000" points="423,-750.5 423,-769.5 515,-769.5 515,-750.5 423,-750.5"/>
<text text-anchor="middle" x="469" y="-757.5" font-family="Helvetica,sans-Serif" font-size="10.00" fill="#000000">ML_Cycle_MG_4</text>
</a>
</g>
</g>
<!-- Node59&#45;&gt;Node84 -->
<g id="edge48" class="edge">
<title>Node59&#45;&gt;Node84</title>
<path fill="none" stroke="#191970" d="M305.3513,-541.5753C312.2328,-574.5556 339.4529,-684.5061 406,-741 408.4045,-743.0413 411.0232,-744.8632 413.7818,-746.4895"/>
<polygon fill="#191970" stroke="#191970" points="412.4636,-749.7424 422.978,-751.0459 415.5714,-743.47 412.4636,-749.7424"/>
</g>
<!-- Node85 -->
<g id="node34" class="node">
<title>Node85</title>
<g id="a_node34"><a xlink:href="../../d5/d1b/ml__struct_8c.html#afc85131cad4169abdb0750f40f865faa" target="_top" xlink:title="ML_Cycle_MG_3">
<polygon fill="#ffffff" stroke="#000000" points="423,-712.5 423,-731.5 515,-731.5 515,-712.5 423,-712.5"/>
<text text-anchor="middle" x="469" y="-719.5" font-family="Helvetica,sans-Serif" font-size="10.00" fill="#000000">ML_Cycle_MG_3</text>
</a>
</g>
</g>
<!-- Node59&#45;&gt;Node85 -->
<g id="edge49" class="edge">
<title>Node59&#45;&gt;Node85</title>
<path fill="none" stroke="#191970" d="M306.5476,-541.833C316.114,-571.0538 348.3886,-658.1156 406,-703 408.4445,-704.9045 411.0782,-706.6187 413.8337,-708.1615"/>
<polygon fill="#191970" stroke="#191970" points="412.4343,-711.3719 422.9658,-712.5291 415.4546,-705.057 412.4343,-711.3719"/>
</g>
<!-- Node86 -->
<g id="node35" class="node">
<title>Node86</title>
<g id="a_node35"><a xlink:href="../../d5/d1b/ml__struct_8c.html#ae07c4ac3e7cc4a4a48d36801a390a59d" target="_top" xlink:title="ML_Cycle_MG_2">
<polygon fill="#ffffff" stroke="#000000" points="423,-674.5 423,-693.5 515,-693.5 515,-674.5 423,-674.5"/>
<text text-anchor="middle" x="469" y="-681.5" font-family="Helvetica,sans-Serif" font-size="10.00" fill="#000000">ML_Cycle_MG_2</text>
</a>
</g>
</g>
<!-- Node59&#45;&gt;Node86 -->
<g id="edge50" class="edge">
<title>Node59&#45;&gt;Node86</title>
<path fill="none" stroke="#191970" d="M308.2249,-541.6939C320.6675,-566.1992 356.7971,-631.0813 406,-665 408.9099,-667.006 412.0366,-668.8046 415.2851,-670.4167"/>
<polygon fill="#191970" stroke="#191970" points="414.1165,-673.7246 424.6841,-674.4833 416.8961,-667.3001 414.1165,-673.7246"/>
</g>
<!-- Node87 -->
<g id="node36" class="node">
<title>Node87</title>
<g id="a_node36"><a xlink:href="../../d5/d1b/ml__struct_8c.html#a1f260ba9d547792582fba6fcb8d07834" target="_top" xlink:title="ML_Cycle_MG_1">
<polygon fill="#ffffff" stroke="#000000" points="423,-636.5 423,-655.5 515,-655.5 515,-636.5 423,-636.5"/>
<text text-anchor="middle" x="469" y="-643.5" font-family="Helvetica,sans-Serif" font-size="10.00" fill="#000000">ML_Cycle_MG_1</text>
</a>
</g>
</g>
<!-- Node59&#45;&gt;Node87 -->
<g id="edge51" class="edge">
<title>Node59&#45;&gt;Node87</title>
<path fill="none" stroke="#191970" d="M311.1928,-541.6056C326.9628,-560.6727 364.9453,-603.484 406,-627 409.736,-629.14 413.7373,-631.0616 417.845,-632.7829"/>
<polygon fill="#191970" stroke="#191970" points="416.9558,-636.1882 427.5475,-636.4439 419.427,-629.6389 416.9558,-636.1882"/>
</g>
<!-- Node88 -->
<g id="node37" class="node">
<title>Node88</title>
<g id="a_node37"><a xlink:href="../../d5/d1b/ml__struct_8c.html#a4030b65646e37dd13843122ec7bee9d7" target="_top" xlink:title="ML_Cycle_MG_0">
<polygon fill="#ffffff" stroke="#000000" points="423,-598.5 423,-617.5 515,-617.5 515,-598.5 423,-598.5"/>
<text text-anchor="middle" x="469" y="-605.5" font-family="Helvetica,sans-Serif" font-size="10.00" fill="#000000">ML_Cycle_MG_0</text>
</a>
</g>
</g>
<!-- Node59&#45;&gt;Node88 -->
<g id="edge52" class="edge">
<title>Node59&#45;&gt;Node88</title>
<path fill="none" stroke="#191970" d="M318.269,-541.5493C337.7443,-553.8244 373.3705,-575.1963 406,-589 411.3922,-591.2811 417.1503,-593.4104 422.9118,-595.3572"/>
<polygon fill="#191970" stroke="#191970" points="421.9556,-598.7262 432.547,-598.4558 424.0987,-592.0623 421.9556,-598.7262"/>
</g>
<!-- Node62 -->
<g id="node11" class="node">
<title>Node62</title>
<g id="a_node11"><a xlink:href="../../d6/de2/ml__utils_8c.html#a84a03c2d5c462ed7c0de12bc3384d576" target="_top" xlink:title="pr_error">
<polygon fill="#ffffff" stroke="#000000" points="791.5,-458.5 791.5,-477.5 841.5,-477.5 841.5,-458.5 791.5,-458.5"/>
<text text-anchor="middle" x="816.5" y="-465.5" font-family="Helvetica,sans-Serif" font-size="10.00" fill="#000000">pr_error</text>
</a>
</g>
</g>
<!-- Node61&#45;&gt;Node62 -->
<g id="edge10" class="edge">
<title>Node61&#45;&gt;Node62</title>
<path fill="none" stroke="#191970" d="M690.3536,-468C719.2242,-468 755.0022,-468 781.0732,-468"/>
<polygon fill="#191970" stroke="#191970" points="781.253,-471.5001 791.253,-468 781.2529,-464.5001 781.253,-471.5001"/>
</g>
<!-- Node62&#45;&gt;Node63 -->
<g id="edge11" class="edge">
<title>Node62&#45;&gt;Node63</title>
<path fill="none" stroke="#191970" d="M841.7231,-463.963C854.6983,-461.1231 870.3922,-456.4584 883,-449 922.7124,-425.5074 958.0406,-383.5638 976.1606,-359.7669"/>
<polygon fill="#191970" stroke="#191970" points="979.0687,-361.7216 982.2359,-351.6113 973.4551,-357.5398 979.0687,-361.7216"/>
</g>
<!-- Node64&#45;&gt;Node62 -->
<g id="edge16" class="edge">
<title>Node64&#45;&gt;Node62</title>
<path fill="none" stroke="#191970" d="M685.2861,-439.589C714.9995,-446.0227 753.6082,-454.3824 781.2392,-460.3652"/>
<polygon fill="#191970" stroke="#191970" points="780.7358,-463.8372 791.2501,-462.5328 782.2172,-456.9958 780.7358,-463.8372"/>
</g>
<!-- Node66&#45;&gt;Node62 -->
<g id="edge22" class="edge">
<title>Node66&#45;&gt;Node62</title>
<path fill="none" stroke="#191970" d="M685.2013,-534.415C694.8419,-531.7962 704.8827,-528.6529 714,-525 721.8963,-521.8363 763.1599,-498.5147 790.8637,-482.7002"/>
<polygon fill="#191970" stroke="#191970" points="792.7271,-485.6666 799.6713,-477.6648 789.2528,-479.5896 792.7271,-485.6666"/>
</g>
<!-- Node67 -->
<g id="node16" class="node">
<title>Node67</title>
<g id="a_node16"><a xlink:href="../../d6/de2/ml__utils_8c.html#ab9104f4e136b1a0627c2b3e23d1a003c" target="_top" xlink:title="GetClock">
<polygon fill="#ffffff" stroke="#000000" points="787.5,-515.5 787.5,-534.5 845.5,-534.5 845.5,-515.5 787.5,-515.5"/>
<text text-anchor="middle" x="816.5" y="-522.5" font-family="Helvetica,sans-Serif" font-size="10.00" fill="#000000">GetClock</text>
</a>
</g>
</g>
<!-- Node66&#45;&gt;Node67 -->
<g id="edge20" class="edge">
<title>Node66&#45;&gt;Node67</title>
<path fill="none" stroke="#191970" d="M690.3536,-538.6569C717.7985,-535.6856 751.4854,-532.0386 777.1418,-529.261"/>
<polygon fill="#191970" stroke="#191970" points="777.6867,-532.7226 787.2518,-528.1665 776.9332,-525.7632 777.6867,-532.7226"/>
</g>
<!-- Node68 -->
<g id="node17" class="node">
<title>Node68</title>
<g id="a_node17"><a xlink:href="../../d6/de2/ml__utils_8c.html#a3eef8dfcae9ecd19bd4d0b8e14239d7b" target="_top" xlink:title="machine_dependent_second">
<polygon fill="#ffffff" stroke="#000000" points="919,-515.5 919,-534.5 1059,-534.5 1059,-515.5 919,-515.5"/>
<text text-anchor="middle" x="989" y="-522.5" font-family="Helvetica,sans-Serif" font-size="10.00" fill="#000000">machine_dependent_second</text>
</a>
</g>
</g>
<!-- Node67&#45;&gt;Node68 -->
<g id="edge21" class="edge">
<title>Node67&#45;&gt;Node68</title>
<path fill="none" stroke="#191970" d="M845.7623,-525C863.1838,-525 886.2201,-525 908.713,-525"/>
<polygon fill="#191970" stroke="#191970" points="908.9873,-528.5001 918.9873,-525 908.9872,-521.5001 908.9873,-528.5001"/>
</g>
<!-- Node69&#45;&gt;Node54 -->
<g id="edge25" class="edge">
<title>Node69&#45;&gt;Node54</title>
<path fill="none" stroke="#191970" d="M495.5521,-845.5697C506.8684,-849.7886 520.1646,-854.9324 532,-860 559.8709,-871.9335 591.0331,-886.9766 612.876,-897.809"/>
<polygon fill="#191970" stroke="#191970" points="611.4089,-900.9884 621.92,-902.3176 614.532,-894.7237 611.4089,-900.9884"/>
</g>
<!-- Node69&#45;&gt;Node56 -->
<g id="edge33" class="edge">
<title>Node69&#45;&gt;Node56</title>
<path fill="none" stroke="#191970" d="M522.9046,-839.578C574.8426,-845.0154 654.138,-858.6853 714,-893 734.1835,-904.5698 730.1103,-918.9321 750,-931 759.1619,-936.5588 770.0182,-940.5511 780.2739,-943.3933"/>
<polygon fill="#191970" stroke="#191970" points="779.6958,-946.856 790.2445,-945.8677 781.3819,-940.0621 779.6958,-946.856"/>
</g>
<!-- Node69&#45;&gt;Node67 -->
<g id="edge24" class="edge">
<title>Node69&#45;&gt;Node67</title>
<path fill="none" stroke="#191970" d="M511.2781,-826.4884C518.4671,-823.9755 525.6527,-820.8538 532,-817 658.4403,-740.2319 768.0455,-594.198 804.0346,-543.1557"/>
<polygon fill="#191970" stroke="#191970" points="807.0346,-544.9727 809.8853,-534.7685 801.2934,-540.9677 807.0346,-544.9727"/>
</g>
<!-- Node69&#45;&gt;Node70 -->
<g id="edge26" class="edge">
<title>Node69&#45;&gt;Node70</title>
<path fill="none" stroke="#191970" d="M520.8623,-826.3711C525.0925,-823.9004 528.9172,-820.8246 532,-817 595.652,-738.0324 545.6665,-460.9377 568,-362 582.8052,-296.4127 615.6632,-223.323 631.7561,-189.7352"/>
<polygon fill="#191970" stroke="#191970" points="634.9568,-191.1564 636.1737,-180.6317 628.6591,-188.1004 634.9568,-191.1564"/>
</g>
<!-- Node69&#45;&gt;Node73 -->
<g id="edge29" class="edge">
<title>Node69&#45;&gt;Node73</title>
<path fill="none" stroke="#191970" d="M520.3921,-826.3987C524.7738,-823.9273 528.7607,-820.8437 532,-817 616.2658,-717.0122 481.8356,-623.3564 568,-525 571.4707,-521.0382 575.6526,-517.8523 580.2366,-515.2963"/>
<polygon fill="#191970" stroke="#191970" points="581.7993,-518.4309 589.4664,-511.1189 578.9129,-512.0537 581.7993,-518.4309"/>
</g>
<!-- Node71 -->
<g id="node20" class="node">
<title>Node71</title>
<g id="a_node20"><a xlink:href="../../d6/de2/ml__utils_8c.html#aa8205be523aca7a93bc89cbdee3b1c40" target="_top" xlink:title="ML_gsum_double">
<polygon fill="#ffffff" stroke="#000000" points="770,-180.5 770,-199.5 863,-199.5 863,-180.5 770,-180.5"/>
<text text-anchor="middle" x="816.5" y="-187.5" font-family="Helvetica,sans-Serif" font-size="10.00" fill="#000000">ML_gsum_double</text>
</a>
</g>
</g>
<!-- Node70&#45;&gt;Node71 -->
<g id="edge27" class="edge">
<title>Node70&#45;&gt;Node71</title>
<path fill="none" stroke="#191970" d="M668.0373,-173.9271C692.3979,-176.5644 729.0032,-180.5274 759.7695,-183.8582"/>
<polygon fill="#191970" stroke="#191970" points="759.6347,-187.364 769.9533,-184.9608 760.3882,-180.4047 759.6347,-187.364"/>
</g>
<!-- Node72 -->
<g id="node21" class="node">
<title>Node72</title>
<g id="a_node21"><a xlink:href="../../d4/d2c/ml__lapack_8h.html#abe5c9ecee9ed14a4a4dbaf6c4f373e82" target="_top" xlink:title="DDOT_F77">
<polygon fill="#ffffff" stroke="#000000" points="783,-142.5 783,-161.5 850,-161.5 850,-142.5 783,-142.5"/>
<text text-anchor="middle" x="816.5" y="-149.5" font-family="Helvetica,sans-Serif" font-size="10.00" fill="#000000">DDOT_F77</text>
</a>
</g>
</g>
<!-- Node70&#45;&gt;Node72 -->
<g id="edge28" class="edge">
<title>Node70&#45;&gt;Node72</title>
<path fill="none" stroke="#191970" d="M668.0373,-168.0729C695.8875,-165.0578 739.7416,-160.31 772.5785,-156.755"/>
<polygon fill="#191970" stroke="#191970" points="773.2533,-160.2025 782.8184,-155.6464 772.4998,-153.2432 773.2533,-160.2025"/>
</g>
<!-- Node73&#45;&gt;Node62 -->
<g id="edge31" class="edge">
<title>Node73&#45;&gt;Node62</title>
<path fill="none" stroke="#191970" d="M685.2861,-496.411C714.9995,-489.9773 753.6082,-481.6176 781.2392,-475.6348"/>
<polygon fill="#191970" stroke="#191970" points="782.2172,-479.0042 791.2501,-473.4672 780.7358,-472.1628 782.2172,-479.0042"/>
</g>
<!-- Node73&#45;&gt;Node67 -->
<g id="edge30" class="edge">
<title>Node73&#45;&gt;Node67</title>
<path fill="none" stroke="#191970" d="M692.7066,-511.5979C719.6902,-514.5192 752.1775,-518.0363 777.0999,-520.7345"/>
<polygon fill="#191970" stroke="#191970" points="776.9609,-524.2398 787.2796,-521.8365 777.7144,-517.2804 776.9609,-524.2398"/>
</g>
<!-- Node74 -->
<g id="node23" class="node">
<title>Node74</title>
<g id="a_node23"><a xlink:href="../../d8/dbe/ml__operator_8c.html#af53fc04515185f88e362fdcb1048aea5" target="_top" xlink:title="ML_Operator_GetFlops">
<polygon fill="#ffffff" stroke="#000000" points="757.5,-420.5 757.5,-439.5 875.5,-439.5 875.5,-420.5 757.5,-420.5"/>
<text text-anchor="middle" x="816.5" y="-427.5" font-family="Helvetica,sans-Serif" font-size="10.00" fill="#000000">ML_Operator_GetFlops</text>
</a>
</g>
</g>
<!-- Node73&#45;&gt;Node74 -->
<g id="edge32" class="edge">
<title>Node73&#45;&gt;Node74</title>
<path fill="none" stroke="#191970" d="M692.7198,-496.4163C700.1364,-493.9507 707.46,-490.8629 714,-487 734.0312,-475.1684 730.1103,-461.0679 750,-449 753.5801,-446.8278 757.4188,-444.8949 761.3794,-443.1763"/>
<polygon fill="#191970" stroke="#191970" points="762.7119,-446.4137 770.7774,-439.5436 760.188,-439.8845 762.7119,-446.4137"/>
</g>
<!-- Node77&#45;&gt;Node62 -->
<g id="edge40" class="edge">
<title>Node77&#45;&gt;Node62</title>
<path fill="none" stroke="#191970" d="M695.0238,-401.1502C701.6483,-403.9664 708.1397,-407.234 714,-411 733.5715,-423.5774 730.1103,-436.9321 750,-449 759.4907,-454.7583 770.7996,-458.8356 781.3757,-461.6949"/>
<polygon fill="#191970" stroke="#191970" points="780.6648,-465.1239 791.2079,-464.0783 782.3139,-458.3209 780.6648,-465.1239"/>
</g>
<!-- Node77&#45;&gt;Node67 -->
<g id="edge39" class="edge">
<title>Node77&#45;&gt;Node67</title>
<path fill="none" stroke="#191970" d="M699.5919,-401.1502C704.7922,-403.9081 709.7044,-407.1621 714,-411 741.8717,-435.902 724.6051,-459.5767 750,-487 759.1251,-496.854 771.4009,-504.8474 782.9211,-510.9146"/>
<polygon fill="#191970" stroke="#191970" points="781.408,-514.0709 791.9233,-515.3661 784.5108,-507.7961 781.408,-514.0709"/>
</g>
<!-- Node77&#45;&gt;Node74 -->
<g id="edge42" class="edge">
<title>Node77&#45;&gt;Node74</title>
<path fill="none" stroke="#191970" d="M700.9063,-401.0192C723.008,-406.5604 747.7389,-412.7607 768.6361,-417.9999"/>
<polygon fill="#191970" stroke="#191970" points="768.0074,-421.4506 778.5584,-420.4876 769.7098,-414.6607 768.0074,-421.4506"/>
</g>
<!-- Node78 -->
<g id="node27" class="node">
<title>Node78</title>
<g id="a_node27"><a xlink:href="../../d2/d6f/ml__bdrypts_8c.html#a3a8f97b065c09deee7972297b883c60a" target="_top" xlink:title="ML_BdryPts_Get_Dirichlet\l_Grid_Info">
<polygon fill="#ffffff" stroke="#000000" points="750,-371 750,-401 883,-401 883,-371 750,-371"/>
<text text-anchor="start" x="758" y="-389" font-family="Helvetica,sans-Serif" font-size="10.00" fill="#000000">ML_BdryPts_Get_Dirichlet</text>
<text text-anchor="middle" x="816.5" y="-378" font-family="Helvetica,sans-Serif" font-size="10.00" fill="#000000">_Grid_Info</text>
</a>
</g>
</g>
<!-- Node77&#45;&gt;Node78 -->
<g id="edge41" class="edge">
<title>Node77&#45;&gt;Node78</title>
<path fill="none" stroke="#191970" d="M714.157,-386C722.5821,-386 731.1918,-386 739.6638,-386"/>
<polygon fill="#191970" stroke="#191970" points="739.9076,-389.5001 749.9076,-386 739.9075,-382.5001 739.9076,-389.5001"/>
</g>
<!-- Node90&#45;&gt;Node54 -->
<g id="edge57" class="edge">
<title>Node90&#45;&gt;Node54</title>
<path fill="none" stroke="#191970" d="M512.4029,-940.411C538.0569,-934.7432 570.4767,-927.5807 596.3462,-921.8654"/>
<polygon fill="#191970" stroke="#191970" points="597.2614,-925.2477 606.2709,-919.6727 595.7513,-918.4125 597.2614,-925.2477"/>
</g>
<!-- Node90&#45;&gt;Node56 -->
<g id="edge60" class="edge">
<title>Node90&#45;&gt;Node56</title>
<path fill="none" stroke="#191970" d="M513.0111,-950C582.3844,-950 715.867,-950 780.1491,-950"/>
<polygon fill="#191970" stroke="#191970" points="780.2186,-953.5001 790.2185,-950 780.2185,-946.5001 780.2186,-953.5001"/>
</g>
<!-- Node90&#45;&gt;Node66 -->
<g id="edge59" class="edge">
<title>Node90&#45;&gt;Node66</title>
<path fill="none" stroke="#191970" d="M513.1903,-942.9014C520.1757,-940.1316 526.7977,-936.2987 532,-931 585.1556,-876.8588 626.6367,-635.5847 637.9381,-564.0518"/>
<polygon fill="#191970" stroke="#191970" points="641.4627,-564.164 639.5417,-553.7448 634.5459,-563.0878 641.4627,-564.164"/>
</g>
<!-- Node90&#45;&gt;Node73 -->
<g id="edge58" class="edge">
<title>Node90&#45;&gt;Node73</title>
<path fill="none" stroke="#191970" d="M513.0923,-944.0575C520.3525,-941.1898 527.0962,-937.025 532,-931 589.1761,-860.7508 509.4897,-594.1418 568,-525 571.4024,-520.9794 575.5374,-517.7532 580.091,-515.1709"/>
<polygon fill="#191970" stroke="#191970" points="581.6484,-518.3073 589.2811,-510.9594 578.7321,-511.9437 581.6484,-518.3073"/>
</g>
</g>
</svg>
