<?xml version="1.0" encoding="UTF-8" standalone="no"?>
<!DOCTYPE svg PUBLIC "-//W3C//DTD SVG 1.1//EN"
 "http://www.w3.org/Graphics/SVG/1.1/DTD/svg11.dtd">
<!-- Generated by graphviz version 2.40.1 (20161225.0304)
 -->
<!-- Title: omc_InstFunction_instantiateExternalObject Pages: 1 -->
<svg width="320pt" height="39pt"
 viewBox="0.00 0.00 320.00 39.00" xmlns="http://www.w3.org/2000/svg" xmlns:xlink="http://www.w3.org/1999/xlink">
<g id="graph0" class="graph" transform="scale(1 1) rotate(0) translate(4 35)">
<title>omc_InstFunction_instantiateExternalObject</title>
<polygon fill="#ffffff" stroke="transparent" points="-4,4 -4,-35 316,-35 316,4 -4,4"/>
<!-- Node487 -->
<g id="node1" class="node">
<title>Node487</title>
<polygon fill="#bfbfbf" stroke="#000000" points="0,-.5 0,-30.5 145,-30.5 145,-.5 0,-.5"/>
<text text-anchor="start" x="8" y="-18.5" font-family="Helvetica,sans-Serif" font-size="10.00" fill="#000000">omc_InstFunction_instantiate</text>
<text text-anchor="middle" x="72.5" y="-7.5" font-family="Helvetica,sans-Serif" font-size="10.00" fill="#000000">ExternalObject</text>
</g>
<!-- Node488 -->
<g id="node2" class="node">
<title>Node488</title>
<g id="a_node2"><a xlink:href="../../d3/d52/_inst_function_8h.html#a85363fa40f3f967e00f3fb323fb84ea0" target="_top" xlink:title="boxptr_InstFunction\l_instantiateExternalObject">
<polygon fill="#ffffff" stroke="#000000" points="181,-.5 181,-30.5 312,-30.5 312,-.5 181,-.5"/>
<text text-anchor="start" x="189" y="-18.5" font-family="Helvetica,sans-Serif" font-size="10.00" fill="#000000">boxptr_InstFunction</text>
<text text-anchor="middle" x="246.5" y="-7.5" font-family="Helvetica,sans-Serif" font-size="10.00" fill="#000000">_instantiateExternalObject</text>
</a>
</g>
</g>
<!-- Node487&#45;&gt;Node488 -->
<g id="edge1" class="edge">
<title>Node487&#45;&gt;Node488</title>
<path fill="none" stroke="#191970" d="M155.091,-15.5C163.6999,-15.5 172.3665,-15.5 180.7525,-15.5"/>
<polygon fill="#191970" stroke="#191970" points="155.0317,-12.0001 145.0317,-15.5 155.0317,-19.0001 155.0317,-12.0001"/>
</g>
</g>
</svg>
