<?xml version="1.0" encoding="UTF-8" standalone="no"?>
<!DOCTYPE svg PUBLIC "-//W3C//DTD SVG 1.1//EN"
 "http://www.w3.org/Graphics/SVG/1.1/DTD/svg11.dtd">
<!-- Generated by graphviz version 2.40.1 (20161225.0304)
 -->
<!-- Title: ML_ImplicitAbs_Matvec Pages: 1 -->
<svg width="599pt" height="104pt"
 viewBox="0.00 0.00 599.00 104.00" xmlns="http://www.w3.org/2000/svg" xmlns:xlink="http://www.w3.org/1999/xlink">
<g id="graph0" class="graph" transform="scale(1 1) rotate(0) translate(4 100)">
<title>ML_ImplicitAbs_Matvec</title>
<polygon fill="#ffffff" stroke="transparent" points="-4,4 -4,-100 595,-100 595,4 -4,4"/>
<!-- Node476 -->
<g id="node1" class="node">
<title>Node476</title>
<polygon fill="#bfbfbf" stroke="#000000" points="0,-38.5 0,-57.5 122,-57.5 122,-38.5 0,-38.5"/>
<text text-anchor="middle" x="61" y="-45.5" font-family="Helvetica,sans-Serif" font-size="10.00" fill="#000000">ML_ImplicitAbs_Matvec</text>
</g>
<!-- Node477 -->
<g id="node2" class="node">
<title>Node477</title>
<g id="a_node2"><a xlink:href="../../d8/dbe/ml__operator_8c.html#a3274a612272c2980cde510e25606c951" target="_top" xlink:title="ML_Operator_Apply">
<polygon fill="#ffffff" stroke="#000000" points="158,-38.5 158,-57.5 261,-57.5 261,-38.5 158,-38.5"/>
<text text-anchor="middle" x="209.5" y="-45.5" font-family="Helvetica,sans-Serif" font-size="10.00" fill="#000000">ML_Operator_Apply</text>
</a>
</g>
</g>
<!-- Node476&#45;&gt;Node477 -->
<g id="edge1" class="edge">
<title>Node476&#45;&gt;Node477</title>
<path fill="none" stroke="#191970" d="M122.258,-48C130.6644,-48 139.3001,-48 147.7159,-48"/>
<polygon fill="#191970" stroke="#191970" points="147.842,-51.5001 157.842,-48 147.842,-44.5001 147.842,-51.5001"/>
</g>
<!-- Node478 -->
<g id="node3" class="node">
<title>Node478</title>
<g id="a_node3"><a xlink:href="../../d6/de2/ml__utils_8c.html#ab9104f4e136b1a0627c2b3e23d1a003c" target="_top" xlink:title="GetClock">
<polygon fill="#ffffff" stroke="#000000" points="327,-76.5 327,-95.5 385,-95.5 385,-76.5 327,-76.5"/>
<text text-anchor="middle" x="356" y="-83.5" font-family="Helvetica,sans-Serif" font-size="10.00" fill="#000000">GetClock</text>
</a>
</g>
</g>
<!-- Node477&#45;&gt;Node478 -->
<g id="edge2" class="edge">
<title>Node477&#45;&gt;Node478</title>
<path fill="none" stroke="#191970" d="M246.4681,-57.589C267.9818,-63.1693 295.0816,-70.1986 316.9428,-75.8691"/>
<polygon fill="#191970" stroke="#191970" points="316.3336,-79.3269 326.8921,-78.4498 318.0912,-72.5511 316.3336,-79.3269"/>
</g>
<!-- Node480 -->
<g id="node5" class="node">
<title>Node480</title>
<g id="a_node5"><a xlink:href="../../d6/de2/ml__utils_8c.html#a84a03c2d5c462ed7c0de12bc3384d576" target="_top" xlink:title="pr_error">
<polygon fill="#ffffff" stroke="#000000" points="331,-38.5 331,-57.5 381,-57.5 381,-38.5 331,-38.5"/>
<text text-anchor="middle" x="356" y="-45.5" font-family="Helvetica,sans-Serif" font-size="10.00" fill="#000000">pr_error</text>
</a>
</g>
</g>
<!-- Node477&#45;&gt;Node480 -->
<g id="edge4" class="edge">
<title>Node477&#45;&gt;Node480</title>
<path fill="none" stroke="#191970" d="M261.1504,-48C280.7535,-48 302.6232,-48 320.4181,-48"/>
<polygon fill="#191970" stroke="#191970" points="320.645,-51.5001 330.645,-48 320.6449,-44.5001 320.645,-51.5001"/>
</g>
<!-- Node482 -->
<g id="node7" class="node">
<title>Node482</title>
<g id="a_node7"><a xlink:href="../../d8/dbe/ml__operator_8c.html#af53fc04515185f88e362fdcb1048aea5" target="_top" xlink:title="ML_Operator_GetFlops">
<polygon fill="#ffffff" stroke="#000000" points="297,-.5 297,-19.5 415,-19.5 415,-.5 297,-.5"/>
<text text-anchor="middle" x="356" y="-7.5" font-family="Helvetica,sans-Serif" font-size="10.00" fill="#000000">ML_Operator_GetFlops</text>
</a>
</g>
</g>
<!-- Node477&#45;&gt;Node482 -->
<g id="edge6" class="edge">
<title>Node477&#45;&gt;Node482</title>
<path fill="none" stroke="#191970" d="M246.4681,-38.411C265.6262,-33.4417 289.2142,-27.3233 309.5878,-22.0387"/>
<polygon fill="#191970" stroke="#191970" points="310.4968,-25.4188 319.2977,-19.5201 308.7392,-18.643 310.4968,-25.4188"/>
</g>
<!-- Node479 -->
<g id="node4" class="node">
<title>Node479</title>
<g id="a_node4"><a xlink:href="../../d6/de2/ml__utils_8c.html#a3eef8dfcae9ecd19bd4d0b8e14239d7b" target="_top" xlink:title="machine_dependent_second">
<polygon fill="#ffffff" stroke="#000000" points="451,-76.5 451,-95.5 591,-95.5 591,-76.5 451,-76.5"/>
<text text-anchor="middle" x="521" y="-83.5" font-family="Helvetica,sans-Serif" font-size="10.00" fill="#000000">machine_dependent_second</text>
</a>
</g>
</g>
<!-- Node478&#45;&gt;Node479 -->
<g id="edge3" class="edge">
<title>Node478&#45;&gt;Node479</title>
<path fill="none" stroke="#191970" d="M385.1189,-86C400.7104,-86 420.7596,-86 440.6427,-86"/>
<polygon fill="#191970" stroke="#191970" points="440.684,-89.5001 450.684,-86 440.684,-82.5001 440.684,-89.5001"/>
</g>
<!-- Node481 -->
<g id="node6" class="node">
<title>Node481</title>
<g id="a_node6"><a xlink:href="../../d4/d98/g_09_09malloc_8c.html#a49f789e614e57e410f598885b800c2df" target="_top" xlink:title="fprintf">
<polygon fill="#ffffff" stroke="#000000" points="500.5,-38.5 500.5,-57.5 541.5,-57.5 541.5,-38.5 500.5,-38.5"/>
<text text-anchor="middle" x="521" y="-45.5" font-family="Helvetica,sans-Serif" font-size="10.00" fill="#000000">fprintf</text>
</a>
</g>
</g>
<!-- Node480&#45;&gt;Node481 -->
<g id="edge5" class="edge">
<title>Node480&#45;&gt;Node481</title>
<path fill="none" stroke="#191970" d="M381.0599,-48C410.2533,-48 458.4964,-48 490.0152,-48"/>
<polygon fill="#191970" stroke="#191970" points="490.4077,-51.5001 500.4077,-48 490.4076,-44.5001 490.4077,-51.5001"/>
</g>
</g>
</svg>
