<?xml version="1.0" encoding="UTF-8" standalone="no"?>
<!DOCTYPE svg PUBLIC "-//W3C//DTD SVG 1.1//EN"
 "http://www.w3.org/Graphics/SVG/1.1/DTD/svg11.dtd">
<!-- Generated by graphviz version 2.40.1 (20161225.0304)
 -->
<!-- Title: ML_multiply_all_vscale Pages: 1 -->
<svg width="686pt" height="344pt"
 viewBox="0.00 0.00 686.00 343.50" xmlns="http://www.w3.org/2000/svg" xmlns:xlink="http://www.w3.org/1999/xlink">
<g id="graph0" class="graph" transform="scale(1 1) rotate(0) translate(4 339.5)">
<title>ML_multiply_all_vscale</title>
<polygon fill="#ffffff" stroke="transparent" points="-4,4 -4,-339.5 682,-339.5 682,4 -4,4"/>
<!-- Node487 -->
<g id="node1" class="node">
<title>Node487</title>
<polygon fill="#bfbfbf" stroke="#000000" points="0,-133.5 0,-152.5 118,-152.5 118,-133.5 0,-133.5"/>
<text text-anchor="middle" x="59" y="-140.5" font-family="Helvetica,sans-Serif" font-size="10.00" fill="#000000">ML_multiply_all_vscale</text>
</g>
<!-- Node488 -->
<g id="node2" class="node">
<title>Node488</title>
<g id="a_node2"><a xlink:href="../../d1/da9/ml__comminfoop_8c.html#a9db8b8f27eaee3daa64022f209db998b" target="_top" xlink:title="ML_CommInfoOP_Compute\l_TotalRcvLength">
<polygon fill="#ffffff" stroke="#000000" points="154,-305 154,-335 294,-335 294,-305 154,-305"/>
<text text-anchor="start" x="162" y="-323" font-family="Helvetica,sans-Serif" font-size="10.00" fill="#000000">ML_CommInfoOP_Compute</text>
<text text-anchor="middle" x="224" y="-312" font-family="Helvetica,sans-Serif" font-size="10.00" fill="#000000">_TotalRcvLength</text>
</a>
</g>
</g>
<!-- Node487&#45;&gt;Node488 -->
<g id="edge1" class="edge">
<title>Node487&#45;&gt;Node488</title>
<path fill="none" stroke="#191970" d="M62.8258,-152.6362C73.4853,-178.3579 105.931,-249.432 154,-290 158.5312,-293.8241 163.6228,-297.229 168.9395,-300.2442"/>
<polygon fill="#191970" stroke="#191970" points="167.5508,-303.4665 178.0405,-304.9559 170.7692,-297.2501 167.5508,-303.4665"/>
</g>
<!-- Node489 -->
<g id="node3" class="node">
<title>Node489</title>
<g id="a_node3"><a xlink:href="../../d1/da9/ml__comminfoop_8c.html#a47c15330f0a3b3a8acfc6d9d2fba4546" target="_top" xlink:title="ML_create_unique_id">
<polygon fill="#ffffff" stroke="#000000" points="169.5,-152.5 169.5,-171.5 278.5,-171.5 278.5,-152.5 169.5,-152.5"/>
<text text-anchor="middle" x="224" y="-159.5" font-family="Helvetica,sans-Serif" font-size="10.00" fill="#000000">ML_create_unique_id</text>
</a>
</g>
</g>
<!-- Node487&#45;&gt;Node489 -->
<g id="edge2" class="edge">
<title>Node487&#45;&gt;Node489</title>
<path fill="none" stroke="#191970" d="M118.1027,-149.8058C131.4402,-151.3416 145.667,-152.9798 159.2237,-154.5409"/>
<polygon fill="#191970" stroke="#191970" points="159.0994,-158.0496 169.4342,-155.7167 159.9002,-151.0956 159.0994,-158.0496"/>
</g>
<!-- Node490 -->
<g id="node4" class="node">
<title>Node490</title>
<g id="a_node4"><a xlink:href="../../d8/d08/ml__memory_8c.html#ab87b354d6e82cccbd10c498870d74c6b" target="_top" xlink:title="ML_allocate">
<polygon fill="#ffffff" stroke="#000000" points="521,-190.5 521,-209.5 590,-209.5 590,-190.5 521,-190.5"/>
<text text-anchor="middle" x="555.5" y="-197.5" font-family="Helvetica,sans-Serif" font-size="10.00" fill="#000000">ML_allocate</text>
</a>
</g>
</g>
<!-- Node487&#45;&gt;Node490 -->
<g id="edge11" class="edge">
<title>Node487&#45;&gt;Node490</title>
<path fill="none" stroke="#191970" d="M78.4179,-152.5729C122.0547,-173.4589 231.755,-222.4876 330,-238 398.0459,-248.7441 418.2049,-254.8552 485,-238 502.5262,-233.5774 520.4325,-223.8473 533.8132,-215.3406"/>
<polygon fill="#191970" stroke="#191970" points="535.8868,-218.1654 542.2935,-209.7271 532.023,-212.3283 535.8868,-218.1654"/>
</g>
<!-- Node492 -->
<g id="node6" class="node">
<title>Node492</title>
<g id="a_node6"><a xlink:href="../../da/d6c/ml__aztec__utils_8c.html#a7db311c960b81177df79b7e832fc86ca" target="_top" xlink:title="ML_free">
<polygon fill="#ffffff" stroke="#000000" points="626,-114.5 626,-133.5 678,-133.5 678,-114.5 626,-114.5"/>
<text text-anchor="middle" x="652" y="-121.5" font-family="Helvetica,sans-Serif" font-size="10.00" fill="#000000">ML_free</text>
</a>
</g>
</g>
<!-- Node487&#45;&gt;Node492 -->
<g id="edge16" class="edge">
<title>Node487&#45;&gt;Node492</title>
<path fill="none" stroke="#191970" d="M78.5918,-133.4074C97.5103,-124.4693 127.1602,-111.3067 154,-103 295.3632,-59.2492 338.3625,-47.1222 485,-67 532.9751,-73.5034 544.469,-79.5431 590,-96 601.2254,-100.0574 613.2503,-105.275 623.6941,-110.1044"/>
<polygon fill="#191970" stroke="#191970" points="622.2349,-113.2859 632.7724,-114.3861 625.2209,-106.9547 622.2349,-113.2859"/>
</g>
<!-- Node495 -->
<g id="node9" class="node">
<title>Node495</title>
<g id="a_node9"><a xlink:href="../../d6/de2/ml__utils_8c.html#a555389cc413e2f3b73ead237c284cc11" target="_top" xlink:title="ML_az_sort">
<polygon fill="#ffffff" stroke="#000000" points="190,-.5 190,-19.5 258,-19.5 258,-.5 190,-.5"/>
<text text-anchor="middle" x="224" y="-7.5" font-family="Helvetica,sans-Serif" font-size="10.00" fill="#000000">ML_az_sort</text>
</a>
</g>
</g>
<!-- Node487&#45;&gt;Node495 -->
<g id="edge12" class="edge">
<title>Node487&#45;&gt;Node495</title>
<path fill="none" stroke="#191970" d="M64.8671,-133.3415C78.1369,-112.2798 112.5503,-61.8796 154,-34 161.9069,-28.6817 171.1082,-24.4305 180.19,-21.0745"/>
<polygon fill="#191970" stroke="#191970" points="181.5819,-24.2985 189.9311,-17.7761 179.3368,-17.6683 181.5819,-24.2985"/>
</g>
<!-- Node496 -->
<g id="node10" class="node">
<title>Node496</title>
<g id="a_node10"><a xlink:href="../../d1/da9/ml__comminfoop_8c.html#adaf1e6d3f813c9ce58206e38d52f09f3" target="_top" xlink:title="ML_transposed_exchange_bdry">
<polygon fill="#ffffff" stroke="#000000" points="330,-76.5 330,-95.5 485,-95.5 485,-76.5 330,-76.5"/>
<text text-anchor="middle" x="407.5" y="-83.5" font-family="Helvetica,sans-Serif" font-size="10.00" fill="#000000">ML_transposed_exchange_bdry</text>
</a>
</g>
</g>
<!-- Node487&#45;&gt;Node496 -->
<g id="edge13" class="edge">
<title>Node487&#45;&gt;Node496</title>
<path fill="none" stroke="#191970" d="M117.3311,-133.4595C178.4873,-123.4569 274.508,-107.7519 339.1708,-97.1758"/>
<polygon fill="#191970" stroke="#191970" points="339.9655,-100.5924 349.2694,-95.5241 338.8355,-93.6842 339.9655,-100.5924"/>
</g>
<!-- Node489&#45;&gt;Node490 -->
<g id="edge3" class="edge">
<title>Node489&#45;&gt;Node490</title>
<path fill="none" stroke="#191970" d="M236.8365,-171.6599C255.94,-185.3669 293.5281,-209.8157 330,-219 396.8034,-235.8223 416.707,-228.0413 485,-219 495.6659,-217.5879 507.0088,-215.0237 517.4074,-212.2265"/>
<polygon fill="#191970" stroke="#191970" points="518.3651,-215.593 527.035,-209.5033 516.4598,-208.8573 518.3651,-215.593"/>
</g>
<!-- Node489&#45;&gt;Node492 -->
<g id="edge10" class="edge">
<title>Node489&#45;&gt;Node492</title>
<path fill="none" stroke="#191970" d="M270.2601,-152.4809C288.7644,-148.995 310.3203,-145.336 330,-143 433.0836,-130.7637 555.7134,-126.2859 615.5333,-124.7465"/>
<polygon fill="#191970" stroke="#191970" points="615.6998,-128.2436 625.6112,-124.5 615.5285,-121.2457 615.6998,-128.2436"/>
</g>
<!-- Node493 -->
<g id="node7" class="node">
<title>Node493</title>
<g id="a_node7"><a xlink:href="../../d3/d5f/ml__agg___m_e_t_i_s_8c.html#abcfcc1c327c603059265010139a52605" target="_top" xlink:title="ML_gpartialsum_int">
<polygon fill="#ffffff" stroke="#000000" points="357,-190.5 357,-209.5 458,-209.5 458,-190.5 357,-190.5"/>
<text text-anchor="middle" x="407.5" y="-197.5" font-family="Helvetica,sans-Serif" font-size="10.00" fill="#000000">ML_gpartialsum_int</text>
</a>
</g>
</g>
<!-- Node489&#45;&gt;Node493 -->
<g id="edge6" class="edge">
<title>Node489&#45;&gt;Node493</title>
<path fill="none" stroke="#191970" d="M270.3048,-171.589C294.9559,-176.6939 325.4625,-183.0113 351.4447,-188.3918"/>
<polygon fill="#191970" stroke="#191970" points="351.0262,-191.8793 361.5282,-190.4799 352.4457,-185.0248 351.0262,-191.8793"/>
</g>
<!-- Node494 -->
<g id="node8" class="node">
<title>Node494</title>
<g id="a_node8"><a xlink:href="../../d1/da9/ml__comminfoop_8c.html#aafd0be1ca80228f817fef143db39a7af" target="_top" xlink:title="ML_cheap_exchange_bdry">
<polygon fill="#ffffff" stroke="#000000" points="341,-152.5 341,-171.5 474,-171.5 474,-152.5 341,-152.5"/>
<text text-anchor="middle" x="407.5" y="-159.5" font-family="Helvetica,sans-Serif" font-size="10.00" fill="#000000">ML_cheap_exchange_bdry</text>
</a>
</g>
</g>
<!-- Node489&#45;&gt;Node494 -->
<g id="edge7" class="edge">
<title>Node489&#45;&gt;Node494</title>
<path fill="none" stroke="#191970" d="M278.5592,-162C294.8972,-162 313.1292,-162 330.6203,-162"/>
<polygon fill="#191970" stroke="#191970" points="330.8134,-165.5001 340.8133,-162 330.8133,-158.5001 330.8134,-165.5001"/>
</g>
<!-- Node491 -->
<g id="node5" class="node">
<title>Node491</title>
<g id="a_node5"><a xlink:href="../../dc/ddc/3rd_party_2flex-2_85_835_2parse_8c.html#a5faf6a2d99f50a4655dd390199a8db7b" target="_top" xlink:title="malloc">
<polygon fill="#ffffff" stroke="#000000" points="629.5,-190.5 629.5,-209.5 674.5,-209.5 674.5,-190.5 629.5,-190.5"/>
<text text-anchor="middle" x="652" y="-197.5" font-family="Helvetica,sans-Serif" font-size="10.00" fill="#000000">malloc</text>
</a>
</g>
</g>
<!-- Node490&#45;&gt;Node491 -->
<g id="edge4" class="edge">
<title>Node490&#45;&gt;Node491</title>
<path fill="none" stroke="#191970" d="M590.0661,-200C599.5752,-200 609.8572,-200 619.2599,-200"/>
<polygon fill="#191970" stroke="#191970" points="619.4141,-203.5001 629.4141,-200 619.414,-196.5001 619.4141,-203.5001"/>
</g>
<!-- Node490&#45;&gt;Node492 -->
<g id="edge5" class="edge">
<title>Node490&#45;&gt;Node492</title>
<path fill="none" stroke="#191970" d="M569.8058,-190.4737C576.0937,-186.1783 583.5086,-180.964 590,-176 605.0514,-164.49 621.4528,-150.6742 633.6037,-140.1772"/>
<polygon fill="#191970" stroke="#191970" points="636.0207,-142.7136 641.2679,-133.5093 631.4262,-137.4324 636.0207,-142.7136"/>
</g>
<!-- Node494&#45;&gt;Node490 -->
<g id="edge8" class="edge">
<title>Node494&#45;&gt;Node490</title>
<path fill="none" stroke="#191970" d="M447.3684,-171.5895C459.4693,-174.5499 472.7911,-177.8587 485,-181 493.3825,-183.1568 502.3089,-185.5147 510.8926,-187.8131"/>
<polygon fill="#191970" stroke="#191970" points="510.1927,-191.2492 520.7587,-190.4682 512.0118,-184.4897 510.1927,-191.2492"/>
</g>
<!-- Node494&#45;&gt;Node492 -->
<g id="edge9" class="edge">
<title>Node494&#45;&gt;Node492</title>
<path fill="none" stroke="#191970" d="M474.0405,-154.7298C508.7251,-150.5666 551.7751,-144.8144 590,-138 598.4185,-136.4992 607.4213,-134.6242 615.8835,-132.739"/>
<polygon fill="#191970" stroke="#191970" points="616.8926,-136.0988 625.8616,-130.459 615.3332,-129.2747 616.8926,-136.0988"/>
</g>
<!-- Node496&#45;&gt;Node490 -->
<g id="edge14" class="edge">
<title>Node496&#45;&gt;Node490</title>
<path fill="none" stroke="#191970" d="M420.8012,-95.5003C436.3487,-106.6699 462.7821,-125.8622 485,-143 502.3389,-156.3744 521.6537,-172.0466 535.6759,-183.5691"/>
<polygon fill="#191970" stroke="#191970" points="533.7154,-186.4889 543.6577,-190.1496 538.1683,-181.0878 533.7154,-186.4889"/>
</g>
<!-- Node496&#45;&gt;Node492 -->
<g id="edge15" class="edge">
<title>Node496&#45;&gt;Node492</title>
<path fill="none" stroke="#191970" d="M485.445,-94.6605C517.8822,-98.6765 555.865,-103.9147 590,-110 598.4185,-111.5008 607.4213,-113.3758 615.8835,-115.261"/>
<polygon fill="#191970" stroke="#191970" points="615.3332,-118.7253 625.8616,-117.541 616.8926,-111.9012 615.3332,-118.7253"/>
</g>
</g>
</svg>
