<?xml version="1.0" encoding="UTF-8" standalone="no"?>
<!DOCTYPE svg PUBLIC "-//W3C//DTD SVG 1.1//EN"
 "http://www.w3.org/Graphics/SVG/1.1/DTD/svg11.dtd">
<!-- Generated by graphviz version 2.40.1 (20161225.0304)
 -->
<!-- Title: fill_alloc_real_array Pages: 1 -->
<svg width="234pt" height="66pt"
 viewBox="0.00 0.00 234.00 66.00" xmlns="http://www.w3.org/2000/svg" xmlns:xlink="http://www.w3.org/1999/xlink">
<g id="graph0" class="graph" transform="scale(1 1) rotate(0) translate(4 62)">
<title>fill_alloc_real_array</title>
<polygon fill="#ffffff" stroke="transparent" points="-4,4 -4,-62 230,-62 230,4 -4,4"/>
<!-- Node69 -->
<g id="node1" class="node">
<title>Node69</title>
<polygon fill="#bfbfbf" stroke="#000000" points="0,-19.5 0,-38.5 100,-38.5 100,-19.5 0,-19.5"/>
<text text-anchor="middle" x="50" y="-26.5" font-family="Helvetica,sans-Serif" font-size="10.00" fill="#000000">fill_alloc_real_array</text>
</g>
<!-- Node70 -->
<g id="node2" class="node">
<title>Node70</title>
<g id="a_node2"><a xlink:href="../../d3/d2c/build_2include_2omc_2c_2util_2base__array_8c.html#a51690bf7ac196ecca2511e3c1cd32ae8" target="_top" xlink:title="alloc_base_array">
<polygon fill="#ffffff" stroke="#000000" points="136,-38.5 136,-57.5 226,-57.5 226,-38.5 136,-38.5"/>
<text text-anchor="middle" x="181" y="-45.5" font-family="Helvetica,sans-Serif" font-size="10.00" fill="#000000">alloc_base_array</text>
</a>
</g>
</g>
<!-- Node69&#45;&gt;Node70 -->
<g id="edge1" class="edge">
<title>Node69&#45;&gt;Node70</title>
<path fill="none" stroke="#191970" d="M100.2734,-36.2916C108.5834,-37.4968 117.2397,-38.7523 125.6659,-39.9744"/>
<polygon fill="#191970" stroke="#191970" points="125.3923,-43.4713 135.7911,-41.443 126.3971,-36.5438 125.3923,-43.4713"/>
</g>
<!-- Node71 -->
<g id="node3" class="node">
<title>Node71</title>
<g id="a_node3"><a xlink:href="../../d4/dd8/build_2include_2omc_2c_2gc_2memory__pool_8c.html#a60ec6a711ffa4640e88a1cea1deb61e0" target="_top" xlink:title="real_alloc">
<polygon fill="#ffffff" stroke="#000000" points="152,-.5 152,-19.5 210,-19.5 210,-.5 152,-.5"/>
<text text-anchor="middle" x="181" y="-7.5" font-family="Helvetica,sans-Serif" font-size="10.00" fill="#000000">real_alloc</text>
</a>
</g>
</g>
<!-- Node69&#45;&gt;Node71 -->
<g id="edge2" class="edge">
<title>Node69&#45;&gt;Node71</title>
<path fill="none" stroke="#191970" d="M100.2734,-21.7084C114.0513,-19.7101 128.7809,-17.5738 141.8358,-15.6803"/>
<polygon fill="#191970" stroke="#191970" points="142.5023,-19.1203 151.8964,-14.2211 141.4975,-12.1928 142.5023,-19.1203"/>
</g>
</g>
</svg>
