<?xml version="1.0" encoding="UTF-8" standalone="no"?>
<!DOCTYPE svg PUBLIC "-//W3C//DTD SVG 1.1//EN"
 "http://www.w3.org/Graphics/SVG/1.1/DTD/svg11.dtd">
<!-- Generated by graphviz version 2.40.1 (20161225.0304)
 -->
<!-- Title: GC_malloc_explicitly_typed_ignore_off_page Pages: 1 -->
<svg width="337pt" height="180pt"
 viewBox="0.00 0.00 337.00 180.00" xmlns="http://www.w3.org/2000/svg" xmlns:xlink="http://www.w3.org/1999/xlink">
<g id="graph0" class="graph" transform="scale(1 1) rotate(0) translate(4 176)">
<title>GC_malloc_explicitly_typed_ignore_off_page</title>
<polygon fill="#ffffff" stroke="transparent" points="-4,4 -4,-176 333,-176 333,4 -4,4"/>
<!-- Node1401 -->
<g id="node1" class="node">
<title>Node1401</title>
<polygon fill="#bfbfbf" stroke="#000000" points="0,-71 0,-101 120,-101 120,-71 0,-71"/>
<text text-anchor="start" x="8" y="-89" font-family="Helvetica,sans-Serif" font-size="10.00" fill="#000000">GC_malloc_explicitly</text>
<text text-anchor="middle" x="60" y="-78" font-family="Helvetica,sans-Serif" font-size="10.00" fill="#000000">_typed_ignore_off_page</text>
</g>
<!-- Node1402 -->
<g id="node2" class="node">
<title>Node1402</title>
<g id="a_node2"><a xlink:href="../../d9/d8b/gcj__mlc_8c.html#ae72c89480b91b53cc2c6f245eb5ee157" target="_top" xlink:title="GC_DBG_COLLECT_AT_MALLOC">
<polygon fill="#ffffff" stroke="#000000" points="156,-152.5 156,-171.5 329,-171.5 329,-152.5 156,-152.5"/>
<text text-anchor="middle" x="242.5" y="-159.5" font-family="Helvetica,sans-Serif" font-size="10.00" fill="#000000">GC_DBG_COLLECT_AT_MALLOC</text>
</a>
</g>
</g>
<!-- Node1401&#45;&gt;Node1402 -->
<g id="edge1" class="edge">
<title>Node1401&#45;&gt;Node1402</title>
<path fill="none" stroke="#191970" d="M81.09,-101.2216C99.8905,-114.1148 128.596,-132.1809 156,-143 162.4378,-145.5416 169.2861,-147.7769 176.2015,-149.735"/>
<polygon fill="#191970" stroke="#191970" points="175.7795,-153.2433 186.3415,-152.4088 177.5644,-146.4746 175.7795,-153.2433"/>
</g>
<!-- Node1403 -->
<g id="node3" class="node">
<title>Node1403</title>
<g id="a_node3"><a xlink:href="../../d9/d8b/gcj__mlc_8c.html#a60f0e6ff7ebbdbc61041da9f189ba473" target="_top" xlink:title="UNLOCK">
<polygon fill="#ffffff" stroke="#000000" points="213,-114.5 213,-133.5 272,-133.5 272,-114.5 213,-114.5"/>
<text text-anchor="middle" x="242.5" y="-121.5" font-family="Helvetica,sans-Serif" font-size="10.00" fill="#000000">UNLOCK</text>
</a>
</g>
</g>
<!-- Node1401&#45;&gt;Node1403 -->
<g id="edge2" class="edge">
<title>Node1401&#45;&gt;Node1403</title>
<path fill="none" stroke="#191970" d="M120.0101,-98.4953C147.2813,-104.1736 178.7861,-110.7335 203.015,-115.7785"/>
<polygon fill="#191970" stroke="#191970" points="202.4163,-119.2288 212.9198,-117.8408 203.8433,-112.3758 202.4163,-119.2288"/>
</g>
<!-- Node1404 -->
<g id="node4" class="node">
<title>Node1404</title>
<g id="a_node4"><a xlink:href="../../d1/dd1/3rd_party_2gc_2include_2gc_8h.html#a8e4b29a6f09c281e53721eba5f206cf8" target="_top" xlink:title="GC_size">
<polygon fill="#ffffff" stroke="#000000" points="215,-76.5 215,-95.5 270,-95.5 270,-76.5 215,-76.5"/>
<text text-anchor="middle" x="242.5" y="-83.5" font-family="Helvetica,sans-Serif" font-size="10.00" fill="#000000">GC_size</text>
</a>
</g>
</g>
<!-- Node1401&#45;&gt;Node1404 -->
<g id="edge3" class="edge">
<title>Node1401&#45;&gt;Node1404</title>
<path fill="none" stroke="#191970" d="M120.0101,-86C147.8835,-86 180.1796,-86 204.6094,-86"/>
<polygon fill="#191970" stroke="#191970" points="204.8984,-89.5001 214.8983,-86 204.8983,-82.5001 204.8984,-89.5001"/>
</g>
<!-- Node1405 -->
<g id="node5" class="node">
<title>Node1405</title>
<g id="a_node5"><a xlink:href="../../d9/d8b/gcj__mlc_8c.html#a32bcc58af257831ed343a7969fe5f7d0" target="_top" xlink:title="GC_dirty">
<polygon fill="#ffffff" stroke="#000000" points="214.5,-38.5 214.5,-57.5 270.5,-57.5 270.5,-38.5 214.5,-38.5"/>
<text text-anchor="middle" x="242.5" y="-45.5" font-family="Helvetica,sans-Serif" font-size="10.00" fill="#000000">GC_dirty</text>
</a>
</g>
</g>
<!-- Node1401&#45;&gt;Node1405 -->
<g id="edge4" class="edge">
<title>Node1401&#45;&gt;Node1405</title>
<path fill="none" stroke="#191970" d="M120.0101,-73.5047C147.8267,-67.7128 180.048,-61.0037 204.4599,-55.9207"/>
<polygon fill="#191970" stroke="#191970" points="205.3319,-59.3143 214.4085,-53.8492 203.905,-52.4612 205.3319,-59.3143"/>
</g>
<!-- Node1406 -->
<g id="node6" class="node">
<title>Node1406</title>
<g id="a_node6"><a xlink:href="../../d9/d8b/gcj__mlc_8c.html#abf2c7e41a6d99cac6d92ae98123aa7cc" target="_top" xlink:title="REACHABLE_AFTER_DIRTY">
<polygon fill="#ffffff" stroke="#000000" points="166.5,-.5 166.5,-19.5 318.5,-19.5 318.5,-.5 166.5,-.5"/>
<text text-anchor="middle" x="242.5" y="-7.5" font-family="Helvetica,sans-Serif" font-size="10.00" fill="#000000">REACHABLE_AFTER_DIRTY</text>
</a>
</g>
</g>
<!-- Node1401&#45;&gt;Node1406 -->
<g id="edge5" class="edge">
<title>Node1401&#45;&gt;Node1406</title>
<path fill="none" stroke="#191970" d="M81.09,-70.7784C99.8905,-57.8852 128.596,-39.8191 156,-29 162.4378,-26.4584 169.2861,-24.2231 176.2015,-22.265"/>
<polygon fill="#191970" stroke="#191970" points="177.5644,-25.5254 186.3415,-19.5912 175.7795,-18.7567 177.5644,-25.5254"/>
</g>
</g>
</svg>
