<?xml version="1.0" encoding="UTF-8" standalone="no"?>
<!DOCTYPE svg PUBLIC "-//W3C//DTD SVG 1.1//EN"
 "http://www.w3.org/Graphics/SVG/1.1/DTD/svg11.dtd">
<!-- Generated by graphviz version 2.40.1 (20161225.0304)
 -->
<!-- Title: mxW_IDAResBS Pages: 1 -->
<svg width="333pt" height="66pt"
 viewBox="0.00 0.00 333.00 66.00" xmlns="http://www.w3.org/2000/svg" xmlns:xlink="http://www.w3.org/1999/xlink">
<g id="graph0" class="graph" transform="scale(1 1) rotate(0) translate(4 62)">
<title>mxW_IDAResBS</title>
<polygon fill="#ffffff" stroke="transparent" points="-4,4 -4,-62 329,-62 329,4 -4,4"/>
<!-- Node89 -->
<g id="node1" class="node">
<title>Node89</title>
<polygon fill="#bfbfbf" stroke="#000000" points="0,-19.5 0,-38.5 94,-38.5 94,-19.5 0,-19.5"/>
<text text-anchor="middle" x="47" y="-26.5" font-family="Helvetica,sans-Serif" font-size="10.00" fill="#000000">mxW_IDAResBS</text>
</g>
<!-- Node90 -->
<g id="node2" class="node">
<title>Node90</title>
<g id="a_node2"><a xlink:href="../../d4/d90/nvm_8h.html#af756fcc5f3f7dd5cc4476f785a758d03" target="_top" xlink:title="GetData">
<polygon fill="#ffffff" stroke="#000000" points="130,-38.5 130,-57.5 183,-57.5 183,-38.5 130,-38.5"/>
<text text-anchor="middle" x="156.5" y="-45.5" font-family="Helvetica,sans-Serif" font-size="10.00" fill="#000000">GetData</text>
</a>
</g>
</g>
<!-- Node89&#45;&gt;Node90 -->
<g id="edge1" class="edge">
<title>Node89&#45;&gt;Node90</title>
<path fill="none" stroke="#191970" d="M94.0733,-37.168C102.7138,-38.6672 111.6145,-40.2116 119.8915,-41.6478"/>
<polygon fill="#191970" stroke="#191970" points="119.5245,-45.1364 129.9756,-43.3976 120.7213,-38.2394 119.5245,-45.1364"/>
</g>
<!-- Node92 -->
<g id="node4" class="node">
<title>Node92</title>
<g id="a_node4"><a xlink:href="../../d4/d90/nvm_8h.html#abf43123f739eb99319661f7c8feb11cf" target="_top" xlink:title="PutData">
<polygon fill="#ffffff" stroke="#000000" points="130,-.5 130,-19.5 183,-19.5 183,-.5 130,-.5"/>
<text text-anchor="middle" x="156.5" y="-7.5" font-family="Helvetica,sans-Serif" font-size="10.00" fill="#000000">PutData</text>
</a>
</g>
</g>
<!-- Node89&#45;&gt;Node92 -->
<g id="edge3" class="edge">
<title>Node89&#45;&gt;Node92</title>
<path fill="none" stroke="#191970" d="M94.0733,-20.832C102.7138,-19.3328 111.6145,-17.7884 119.8915,-16.3522"/>
<polygon fill="#191970" stroke="#191970" points="120.7213,-19.7606 129.9756,-14.6024 119.5245,-12.8636 120.7213,-19.7606"/>
</g>
<!-- Node91 -->
<g id="node3" class="node">
<title>Node91</title>
<g id="a_node3"><a xlink:href="../../df/dc8/3rd_party_2sundials_2build_2include_2sundials_2sundials__nvector_8h.html#ab14cd7d630355c66928718a744da72d6" target="_top" xlink:title="N_VGetArrayPointer">
<polygon fill="#ffffff" stroke="#000000" points="219,-19.5 219,-38.5 325,-38.5 325,-19.5 219,-19.5"/>
<text text-anchor="middle" x="272" y="-26.5" font-family="Helvetica,sans-Serif" font-size="10.00" fill="#000000">N_VGetArrayPointer</text>
</a>
</g>
</g>
<!-- Node90&#45;&gt;Node91 -->
<g id="edge2" class="edge">
<title>Node90&#45;&gt;Node91</title>
<path fill="none" stroke="#191970" d="M183.2883,-43.5933C191.1186,-42.3052 200.027,-40.8397 209.1064,-39.3461"/>
<polygon fill="#191970" stroke="#191970" points="209.6834,-42.7984 218.9826,-37.7215 208.547,-35.8912 209.6834,-42.7984"/>
</g>
<!-- Node92&#45;&gt;Node91 -->
<g id="edge4" class="edge">
<title>Node92&#45;&gt;Node91</title>
<path fill="none" stroke="#191970" d="M183.2883,-14.4067C191.1186,-15.6948 200.027,-17.1603 209.1064,-18.6539"/>
<polygon fill="#191970" stroke="#191970" points="208.547,-22.1088 218.9826,-20.2785 209.6834,-15.2016 208.547,-22.1088"/>
</g>
</g>
</svg>
