<?xml version="1.0" encoding="UTF-8" standalone="no"?>
<!DOCTYPE svg PUBLIC "-//W3C//DTD SVG 1.1//EN"
 "http://www.w3.org/Graphics/SVG/1.1/DTD/svg11.dtd">
<!-- Generated by graphviz version 2.40.1 (20161225.0304)
 -->
<!-- Title: omc_UnitChecker_powUnitParams Pages: 1 -->
<svg width="579pt" height="65pt"
 viewBox="0.00 0.00 579.00 65.00" xmlns="http://www.w3.org/2000/svg" xmlns:xlink="http://www.w3.org/1999/xlink">
<g id="graph0" class="graph" transform="scale(1 1) rotate(0) translate(4 61)">
<title>omc_UnitChecker_powUnitParams</title>
<polygon fill="#ffffff" stroke="transparent" points="-4,4 -4,-61 575,-61 575,4 -4,4"/>
<!-- Node317 -->
<g id="node1" class="node">
<title>Node317</title>
<polygon fill="#bfbfbf" stroke="#000000" points="0,-.5 0,-19.5 170,-19.5 170,-.5 0,-.5"/>
<text text-anchor="middle" x="85" y="-7.5" font-family="Helvetica,sans-Serif" font-size="10.00" fill="#000000">omc_UnitChecker_powUnitParams</text>
</g>
<!-- Node318 -->
<g id="node2" class="node">
<title>Node318</title>
<g id="a_node2"><a xlink:href="../../d5/d3d/_unit_checker_8h.html#a9d3dbec1eb12cba861e35e13c9489c82" target="_top" xlink:title="omc_UnitChecker_powUnitParams">
<polygon fill="#ffffff" stroke="#000000" points="206,-19.5 206,-38.5 376,-38.5 376,-19.5 206,-19.5"/>
<text text-anchor="middle" x="291" y="-26.5" font-family="Helvetica,sans-Serif" font-size="10.00" fill="#000000">omc_UnitChecker_powUnitParams</text>
</a>
</g>
</g>
<!-- Node317&#45;&gt;Node318 -->
<g id="edge1" class="edge">
<title>Node317&#45;&gt;Node318</title>
<path fill="none" stroke="#191970" d="M180.2357,-18.7839C188.7605,-19.5701 197.3567,-20.363 205.7889,-21.1407"/>
<polygon fill="#191970" stroke="#191970" points="180.5543,-15.2985 170.2751,-17.8652 179.9113,-22.2689 180.5543,-15.2985"/>
</g>
<!-- Node319 -->
<g id="node3" class="node">
<title>Node319</title>
<g id="a_node3"><a xlink:href="../../d5/d3d/_unit_checker_8h.html#aad85d562ca99a58d7c80bc5304c82eed" target="_top" xlink:title="omc_UnitChecker_powSpecUnit">
<polygon fill="#ffffff" stroke="#000000" points="412,-.5 412,-19.5 571,-19.5 571,-.5 412,-.5"/>
<text text-anchor="middle" x="491.5" y="-7.5" font-family="Helvetica,sans-Serif" font-size="10.00" fill="#000000">omc_UnitChecker_powSpecUnit</text>
</a>
</g>
</g>
<!-- Node317&#45;&gt;Node319 -->
<g id="edge4" class="edge">
<title>Node317&#45;&gt;Node319</title>
<path fill="none" stroke="#191970" d="M180.4227,-10C250.8414,-10 345.5654,-10 411.9196,-10"/>
<polygon fill="#191970" stroke="#191970" points="180.2158,-6.5001 170.2157,-10 180.2157,-13.5001 180.2158,-6.5001"/>
</g>
<!-- Node318&#45;&gt;Node318 -->
<g id="edge2" class="edge">
<title>Node318&#45;&gt;Node318</title>
<path fill="none" stroke="#191970" d="M253.5,-46.5043C253.5061,-52.3356 266.0061,-57 291,-57 326.5469,-57 336.8221,-47.5653 321.8258,-38.7571"/>
<polygon fill="#191970" stroke="#191970" points="256.2989,-48.6178 260.1742,-38.7571 250.9956,-44.0489 256.2989,-48.6178"/>
</g>
<!-- Node318&#45;&gt;Node319 -->
<g id="edge3" class="edge">
<title>Node318&#45;&gt;Node319</title>
<path fill="none" stroke="#191970" d="M386.0798,-19.9899C394.6735,-19.1756 403.318,-18.3564 411.7598,-17.5564"/>
<polygon fill="#191970" stroke="#191970" points="385.6552,-16.5144 376.0301,-20.9423 386.3157,-23.4832 385.6552,-16.5144"/>
</g>
</g>
</svg>
