<?xml version="1.0" encoding="UTF-8" standalone="no"?>
<!DOCTYPE svg PUBLIC "-//W3C//DTD SVG 1.1//EN"
 "http://www.w3.org/Graphics/SVG/1.1/DTD/svg11.dtd">
<!-- Generated by graphviz version 2.40.1 (20161225.0304)
 -->
<!-- Title: omc_Static_elabBuiltinTimeInState Pages: 1 -->
<svg width="307pt" height="39pt"
 viewBox="0.00 0.00 307.00 39.00" xmlns="http://www.w3.org/2000/svg" xmlns:xlink="http://www.w3.org/1999/xlink">
<g id="graph0" class="graph" transform="scale(1 1) rotate(0) translate(4 35)">
<title>omc_Static_elabBuiltinTimeInState</title>
<polygon fill="#ffffff" stroke="transparent" points="-4,4 -4,-35 303,-35 303,4 -4,4"/>
<!-- Node13297 -->
<g id="node1" class="node">
<title>Node13297</title>
<polygon fill="#bfbfbf" stroke="#000000" points="0,-.5 0,-30.5 138,-30.5 138,-.5 0,-.5"/>
<text text-anchor="start" x="8" y="-18.5" font-family="Helvetica,sans-Serif" font-size="10.00" fill="#000000">omc_Static_elabBuiltinTime</text>
<text text-anchor="middle" x="69" y="-7.5" font-family="Helvetica,sans-Serif" font-size="10.00" fill="#000000">InState</text>
</g>
<!-- Node13298 -->
<g id="node2" class="node">
<title>Node13298</title>
<g id="a_node2"><a xlink:href="../../d0/d86/_static_8c.html#a9258df89023d3a8be3394aba50b625b0" target="_top" xlink:title="boxptr_Static_elabBuiltin\lTimeInState">
<polygon fill="#ffffff" stroke="#000000" points="174,-.5 174,-30.5 299,-30.5 299,-.5 174,-.5"/>
<text text-anchor="start" x="182" y="-18.5" font-family="Helvetica,sans-Serif" font-size="10.00" fill="#000000">boxptr_Static_elabBuiltin</text>
<text text-anchor="middle" x="236.5" y="-7.5" font-family="Helvetica,sans-Serif" font-size="10.00" fill="#000000">TimeInState</text>
</a>
</g>
</g>
<!-- Node13297&#45;&gt;Node13298 -->
<g id="edge1" class="edge">
<title>Node13297&#45;&gt;Node13298</title>
<path fill="none" stroke="#191970" d="M148.1298,-15.5C156.7214,-15.5 165.378,-15.5 173.7364,-15.5"/>
<polygon fill="#191970" stroke="#191970" points="148.0957,-12.0001 138.0957,-15.5 148.0957,-19.0001 148.0957,-12.0001"/>
</g>
</g>
</svg>
