<?xml version="1.0" encoding="UTF-8" standalone="no"?>
<!DOCTYPE svg PUBLIC "-//W3C//DTD SVG 1.1//EN"
 "http://www.w3.org/Graphics/SVG/1.1/DTD/svg11.dtd">
<!-- Generated by graphviz version 2.40.1 (20161225.0304)
 -->
<!-- Title: omc_Static_elabExp__Array Pages: 1 -->
<svg width="1571pt" height="298pt"
 viewBox="0.00 0.00 1571.00 298.26" xmlns="http://www.w3.org/2000/svg" xmlns:xlink="http://www.w3.org/1999/xlink">
<g id="graph0" class="graph" transform="scale(1 1) rotate(0) translate(4 294.2599)">
<title>omc_Static_elabExp__Array</title>
<polygon fill="#ffffff" stroke="transparent" points="-4,4 -4,-294.2599 1567,-294.2599 1567,4 -4,4"/>
<!-- Node15479 -->
<g id="node1" class="node">
<title>Node15479</title>
<polygon fill="#bfbfbf" stroke="#000000" points="0,-65.2599 0,-95.2599 107,-95.2599 107,-65.2599 0,-65.2599"/>
<text text-anchor="start" x="8" y="-83.2599" font-family="Helvetica,sans-Serif" font-size="10.00" fill="#000000">omc_Static_elabExp</text>
<text text-anchor="middle" x="53.5" y="-72.2599" font-family="Helvetica,sans-Serif" font-size="10.00" fill="#000000">__Array</text>
</g>
<!-- Node15480 -->
<g id="node2" class="node">
<title>Node15480</title>
<g id="a_node2"><a xlink:href="../../d1/d5c/_config_8c.html#abbb1ebde9dd1336640d4feb5ef557d9a" target="_top" xlink:title="omc_Config_acceptMetaModelica\lGrammar">
<polygon fill="#ffffff" stroke="#000000" points="143,-5.2599 143,-35.2599 307,-35.2599 307,-5.2599 143,-5.2599"/>
<text text-anchor="start" x="151" y="-23.2599" font-family="Helvetica,sans-Serif" font-size="10.00" fill="#000000">omc_Config_acceptMetaModelica</text>
<text text-anchor="middle" x="225" y="-12.2599" font-family="Helvetica,sans-Serif" font-size="10.00" fill="#000000">Grammar</text>
</a>
</g>
</g>
<!-- Node15479&#45;&gt;Node15480 -->
<g id="edge1" class="edge">
<title>Node15479&#45;&gt;Node15480</title>
<path fill="none" stroke="#191970" d="M96.7767,-65.1193C119.7138,-57.0947 148.0752,-47.1723 172.2879,-38.7014"/>
<polygon fill="#191970" stroke="#191970" points="173.7513,-41.8975 182.0345,-35.2915 171.4397,-35.2902 173.7513,-41.8975"/>
</g>
<!-- Node15485 -->
<g id="node7" class="node">
<title>Node15485</title>
<g id="a_node7"><a xlink:href="../../d0/d86/_static_8c.html#a983c41e910ad0d8bd71955928738d6fa" target="_top" xlink:title="omc_Static_elabExpList">
<polygon fill="#ffffff" stroke="#000000" points="164,-70.7599 164,-89.7599 286,-89.7599 286,-70.7599 164,-70.7599"/>
<text text-anchor="middle" x="225" y="-77.7599" font-family="Helvetica,sans-Serif" font-size="10.00" fill="#000000">omc_Static_elabExpList</text>
</a>
</g>
</g>
<!-- Node15479&#45;&gt;Node15485 -->
<g id="edge6" class="edge">
<title>Node15479&#45;&gt;Node15485</title>
<path fill="none" stroke="#191970" d="M107.2931,-80.2599C122.0396,-80.2599 138.2575,-80.2599 153.8162,-80.2599"/>
<polygon fill="#191970" stroke="#191970" points="153.9233,-83.76 163.9233,-80.2599 153.9233,-76.76 153.9233,-83.76"/>
</g>
<!-- Node15491 -->
<g id="node13" class="node">
<title>Node15491</title>
<g id="a_node13"><a xlink:href="../../d0/d86/_static_8c.html#a06b65774e1056b520015703bedc41240" target="_top" xlink:title="omc_Static_elabArray">
<polygon fill="#ffffff" stroke="#000000" points="168.5,-146.7599 168.5,-165.7599 281.5,-165.7599 281.5,-146.7599 168.5,-146.7599"/>
<text text-anchor="middle" x="225" y="-153.7599" font-family="Helvetica,sans-Serif" font-size="10.00" fill="#000000">omc_Static_elabArray</text>
</a>
</g>
</g>
<!-- Node15479&#45;&gt;Node15491 -->
<g id="edge12" class="edge">
<title>Node15479&#45;&gt;Node15491</title>
<path fill="none" stroke="#191970" d="M87.3829,-95.275C118.3888,-109.0152 163.8866,-129.1776 193.9634,-142.506"/>
<polygon fill="#191970" stroke="#191970" points="192.5883,-145.7249 203.1488,-146.5765 195.4243,-139.3251 192.5883,-145.7249"/>
</g>
<!-- Node15481 -->
<g id="node3" class="node">
<title>Node15481</title>
<g id="a_node3"><a xlink:href="../../d3/db3/_flags_8c.html#add52ff282ca5df852c1905fabb4571c9" target="_top" xlink:title="omc_Flags_getConfigEnum">
<polygon fill="#ffffff" stroke="#000000" points="565.5,-13.7599 565.5,-32.7599 702.5,-32.7599 702.5,-13.7599 565.5,-13.7599"/>
<text text-anchor="middle" x="634" y="-20.7599" font-family="Helvetica,sans-Serif" font-size="10.00" fill="#000000">omc_Flags_getConfigEnum</text>
</a>
</g>
</g>
<!-- Node15480&#45;&gt;Node15481 -->
<g id="edge2" class="edge">
<title>Node15480&#45;&gt;Node15481</title>
<path fill="none" stroke="#191970" d="M307.0611,-7.6869C319.0883,-6.2651 331.3459,-5.0464 343,-4.2599 418.8275,.8576 438.2341,1.7011 514,-4.2599 534.0553,-5.8377 555.8231,-8.8771 575.2436,-12.07"/>
<polygon fill="#191970" stroke="#191970" points="574.7204,-15.5311 585.1639,-13.7467 575.887,-8.629 574.7204,-15.5311"/>
</g>
<!-- Node15482 -->
<g id="node4" class="node">
<title>Node15482</title>
<g id="a_node4"><a xlink:href="../../d3/db3/_flags_8c.html#a96ba70d54b6662cf90933a207c0c6b8e" target="_top" xlink:title="omc_Flags_getConfigValue">
<polygon fill="#ffffff" stroke="#000000" points="1152,-118.7599 1152,-137.7599 1289,-137.7599 1289,-118.7599 1152,-118.7599"/>
<text text-anchor="middle" x="1220.5" y="-125.7599" font-family="Helvetica,sans-Serif" font-size="10.00" fill="#000000">omc_Flags_getConfigValue</text>
</a>
</g>
</g>
<!-- Node15481&#45;&gt;Node15482 -->
<g id="edge3" class="edge">
<title>Node15481&#45;&gt;Node15482</title>
<path fill="none" stroke="#191970" d="M702.7396,-21.6134C797.801,-21.2266 973.7702,-27.3717 1116,-71.2599 1146.4813,-80.6655 1178.1971,-99.452 1198.5767,-112.887"/>
<polygon fill="#191970" stroke="#191970" points="1196.8489,-115.9433 1207.0974,-118.6304 1200.7615,-110.1388 1196.8489,-115.9433"/>
</g>
<!-- Node15483 -->
<g id="node5" class="node">
<title>Node15483</title>
<g id="a_node5"><a xlink:href="../../d3/db3/_flags_8c.html#a760d66f53b65ac257876ca0f6308f09f" target="_top" xlink:title="omc_Flags_loadFlags">
<polygon fill="#ffffff" stroke="#000000" points="1331.5,-118.7599 1331.5,-137.7599 1443.5,-137.7599 1443.5,-118.7599 1331.5,-118.7599"/>
<text text-anchor="middle" x="1387.5" y="-125.7599" font-family="Helvetica,sans-Serif" font-size="10.00" fill="#000000">omc_Flags_loadFlags</text>
</a>
</g>
</g>
<!-- Node15482&#45;&gt;Node15483 -->
<g id="edge4" class="edge">
<title>Node15482&#45;&gt;Node15483</title>
<path fill="none" stroke="#191970" d="M1289.3895,-128.2599C1299.9016,-128.2599 1310.7327,-128.2599 1321.188,-128.2599"/>
<polygon fill="#191970" stroke="#191970" points="1321.4923,-131.76 1331.4922,-128.2599 1321.4922,-124.76 1321.4923,-131.76"/>
</g>
<!-- Node15484 -->
<g id="node6" class="node">
<title>Node15484</title>
<g id="a_node6"><a xlink:href="../../da/d72/_compiler_2boot_2build_2list_8c.html#a3ec1ee3a5ff53be9af368e290be09182" target="_top" xlink:title="omc_List_fold">
<polygon fill="#ffffff" stroke="#000000" points="1486,-118.7599 1486,-137.7599 1563,-137.7599 1563,-118.7599 1486,-118.7599"/>
<text text-anchor="middle" x="1524.5" y="-125.7599" font-family="Helvetica,sans-Serif" font-size="10.00" fill="#000000">omc_List_fold</text>
</a>
</g>
</g>
<!-- Node15483&#45;&gt;Node15484 -->
<g id="edge5" class="edge">
<title>Node15483&#45;&gt;Node15484</title>
<path fill="none" stroke="#191970" d="M1443.6184,-128.2599C1454.2594,-128.2599 1465.3126,-128.2599 1475.7046,-128.2599"/>
<polygon fill="#191970" stroke="#191970" points="1475.8364,-131.76 1485.8363,-128.2599 1475.8363,-124.76 1475.8364,-131.76"/>
</g>
<!-- Node15486 -->
<g id="node8" class="node">
<title>Node15486</title>
<g id="a_node8"><a xlink:href="../../d0/d78/_absyn_8c.html#a161dbba7880ce6c80044fa75e5f19a77" target="_top" xlink:title="omc_Absyn_crefToPath">
<polygon fill="#ffffff" stroke="#000000" points="367.5,-51.7599 367.5,-70.7599 489.5,-70.7599 489.5,-51.7599 367.5,-51.7599"/>
<text text-anchor="middle" x="428.5" y="-58.7599" font-family="Helvetica,sans-Serif" font-size="10.00" fill="#000000">omc_Absyn_crefToPath</text>
</a>
</g>
</g>
<!-- Node15485&#45;&gt;Node15486 -->
<g id="edge7" class="edge">
<title>Node15485&#45;&gt;Node15486</title>
<path fill="none" stroke="#191970" d="M286.0567,-74.5592C308.493,-72.4644 334.0897,-70.0746 357.3377,-67.904"/>
<polygon fill="#191970" stroke="#191970" points="357.8551,-71.371 367.4864,-66.9565 357.2043,-64.4013 357.8551,-71.371"/>
</g>
<!-- Node15487 -->
<g id="node9" class="node">
<title>Node15487</title>
<g id="a_node9"><a xlink:href="../../d0/d78/_absyn_8c.html#aba05998041adfb113374767462cd578a" target="_top" xlink:title="omc_Absyn_splitQualAndIdentPath">
<polygon fill="#ffffff" stroke="#000000" points="343,-13.7599 343,-32.7599 514,-32.7599 514,-13.7599 343,-13.7599"/>
<text text-anchor="middle" x="428.5" y="-20.7599" font-family="Helvetica,sans-Serif" font-size="10.00" fill="#000000">omc_Absyn_splitQualAndIdentPath</text>
</a>
</g>
</g>
<!-- Node15485&#45;&gt;Node15487 -->
<g id="edge8" class="edge">
<title>Node15485&#45;&gt;Node15487</title>
<path fill="none" stroke="#191970" d="M252.4403,-70.6232C276.2184,-62.4656 311.6369,-50.7749 343,-42.2599 352.2576,-39.7464 362.1447,-37.3179 371.7889,-35.0852"/>
<polygon fill="#191970" stroke="#191970" points="372.7366,-38.4592 381.7146,-32.8339 371.1881,-31.6326 372.7366,-38.4592"/>
</g>
<!-- Node15488 -->
<g id="node10" class="node">
<title>Node15488</title>
<g id="a_node10"><a xlink:href="../../d0/d78/_absyn_8c.html#a8ad96aa8a78d49e3c6e12575c1bee42d" target="_top" xlink:title="omc_Absyn_pathEqual">
<polygon fill="#ffffff" stroke="#000000" points="370,-89.7599 370,-108.7599 487,-108.7599 487,-89.7599 370,-89.7599"/>
<text text-anchor="middle" x="428.5" y="-96.7599" font-family="Helvetica,sans-Serif" font-size="10.00" fill="#000000">omc_Absyn_pathEqual</text>
</a>
</g>
</g>
<!-- Node15485&#45;&gt;Node15488 -->
<g id="edge9" class="edge">
<title>Node15485&#45;&gt;Node15488</title>
<path fill="none" stroke="#191970" d="M286.0567,-85.9605C309.3107,-88.1316 335.9596,-90.6197 359.8699,-92.8521"/>
<polygon fill="#191970" stroke="#191970" points="359.6495,-96.3467 369.9316,-93.7916 360.3003,-89.377 359.6495,-96.3467"/>
</g>
<!-- Node15489 -->
<g id="node11" class="node">
<title>Node15489</title>
<g id="a_node11"><a xlink:href="../../da/d72/_compiler_2boot_2build_2list_8c.html#a2ded3aa751bfadac517f3a0cefb62317" target="_top" xlink:title="omc_List_position">
<polygon fill="#ffffff" stroke="#000000" points="381,-127.7599 381,-146.7599 476,-146.7599 476,-127.7599 381,-127.7599"/>
<text text-anchor="middle" x="428.5" y="-134.7599" font-family="Helvetica,sans-Serif" font-size="10.00" fill="#000000">omc_List_position</text>
</a>
</g>
</g>
<!-- Node15485&#45;&gt;Node15489 -->
<g id="edge10" class="edge">
<title>Node15485&#45;&gt;Node15489</title>
<path fill="none" stroke="#191970" d="M252.4403,-89.8965C276.2184,-98.0541 311.6369,-109.7448 343,-118.2599 352.2576,-120.7733 362.1447,-123.2018 371.7889,-125.4345"/>
<polygon fill="#191970" stroke="#191970" points="371.1881,-128.8871 381.7146,-127.6858 372.7366,-122.0605 371.1881,-128.8871"/>
</g>
<!-- Node15490 -->
<g id="node12" class="node">
<title>Node15490</title>
<g id="a_node12"><a xlink:href="../../dc/dd0/build_2include_2omc_2c_2meta_2meta__modelica_8h.html#a053b78d26cb7fe728aa97ab1a575f7ad" target="_top" xlink:title="valueEq">
<polygon fill="#ffffff" stroke="#000000" points="608,-89.7599 608,-108.7599 660,-108.7599 660,-89.7599 608,-89.7599"/>
<text text-anchor="middle" x="634" y="-96.7599" font-family="Helvetica,sans-Serif" font-size="10.00" fill="#000000">valueEq</text>
</a>
</g>
</g>
<!-- Node15489&#45;&gt;Node15490 -->
<g id="edge11" class="edge">
<title>Node15489&#45;&gt;Node15490</title>
<path fill="none" stroke="#191970" d="M476.1624,-128.4464C513.3408,-121.5715 564.1807,-112.1705 598.0044,-105.916"/>
<polygon fill="#191970" stroke="#191970" points="598.7243,-109.3423 607.9212,-104.0822 597.4514,-102.459 598.7243,-109.3423"/>
</g>
<!-- Node15492 -->
<g id="node14" class="node">
<title>Node15492</title>
<g id="a_node14"><a xlink:href="../../db/da1/_compiler_2boot_2build_2error_8c.html#a991bd0d249f0698967bd89d565719016" target="_top" xlink:title="omc_Error_addSourceMessage">
<polygon fill="#ffffff" stroke="#000000" points="352,-165.7599 352,-184.7599 505,-184.7599 505,-165.7599 352,-165.7599"/>
<text text-anchor="middle" x="428.5" y="-172.7599" font-family="Helvetica,sans-Serif" font-size="10.00" fill="#000000">omc_Error_addSourceMessage</text>
</a>
</g>
</g>
<!-- Node15491&#45;&gt;Node15492 -->
<g id="edge13" class="edge">
<title>Node15491&#45;&gt;Node15492</title>
<path fill="none" stroke="#191970" d="M281.6861,-161.5524C300.2985,-163.2902 321.432,-165.2633 341.7497,-167.1603"/>
<polygon fill="#191970" stroke="#191970" points="341.6797,-170.6689 351.9618,-168.1138 342.3305,-163.6992 341.6797,-170.6689"/>
</g>
<!-- Node15493 -->
<g id="node15" class="node">
<title>Node15493</title>
<g id="a_node15"><a xlink:href="../../d9/d7c/_compiler_2boot_2build_2util_8c.html#af677b04abc76ada92619360b1a4e1238" target="_top" xlink:title="omc_Util_translateContent">
<polygon fill="#ffffff" stroke="#000000" points="567.5,-127.7599 567.5,-146.7599 700.5,-146.7599 700.5,-127.7599 567.5,-127.7599"/>
<text text-anchor="middle" x="634" y="-134.7599" font-family="Helvetica,sans-Serif" font-size="10.00" fill="#000000">omc_Util_translateContent</text>
</a>
</g>
</g>
<!-- Node15492&#45;&gt;Node15493 -->
<g id="edge14" class="edge">
<title>Node15492&#45;&gt;Node15493</title>
<path fill="none" stroke="#191970" d="M480.0911,-165.7199C508.062,-160.5477 542.8236,-154.1197 572.2297,-148.6821"/>
<polygon fill="#191970" stroke="#191970" points="573.1908,-152.0638 582.3877,-146.8037 571.918,-145.1805 573.1908,-152.0638"/>
</g>
<!-- Node15496 -->
<g id="node18" class="node">
<title>Node15496</title>
<g id="a_node18"><a xlink:href="../../d4/dce/_error_ext_8c.html#a2aab7fef8718e5c7b0e410daf818bf99" target="_top" xlink:title="omc_ErrorExt_addSourceMessage">
<polygon fill="#ffffff" stroke="#000000" points="550,-222.7599 550,-241.7599 718,-241.7599 718,-222.7599 550,-222.7599"/>
<text text-anchor="middle" x="634" y="-229.7599" font-family="Helvetica,sans-Serif" font-size="10.00" fill="#000000">omc_ErrorExt_addSourceMessage</text>
</a>
</g>
</g>
<!-- Node15492&#45;&gt;Node15496 -->
<g id="edge17" class="edge">
<title>Node15492&#45;&gt;Node15496</title>
<path fill="none" stroke="#191970" d="M462.8961,-184.8004C497.7184,-194.4591 551.7101,-209.4349 589.7121,-219.9756"/>
<polygon fill="#191970" stroke="#191970" points="588.92,-223.388 599.4917,-222.6882 590.791,-216.6427 588.92,-223.388"/>
</g>
<!-- Node15500 -->
<g id="node22" class="node">
<title>Node15500</title>
<g id="a_node22"><a xlink:href="../../d9/d7c/_compiler_2boot_2build_2util_8c.html#ad7f719bd6355b185d211a8c8ff0cc7be" target="_top" xlink:title="omc_Util_testsuiteFriendly">
<polygon fill="#ffffff" stroke="#000000" points="567.5,-165.7599 567.5,-184.7599 700.5,-184.7599 700.5,-165.7599 567.5,-165.7599"/>
<text text-anchor="middle" x="634" y="-172.7599" font-family="Helvetica,sans-Serif" font-size="10.00" fill="#000000">omc_Util_testsuiteFriendly</text>
</a>
</g>
</g>
<!-- Node15492&#45;&gt;Node15500 -->
<g id="edge21" class="edge">
<title>Node15492&#45;&gt;Node15500</title>
<path fill="none" stroke="#191970" d="M505.0206,-175.2599C521.9363,-175.2599 539.8684,-175.2599 556.8105,-175.2599"/>
<polygon fill="#191970" stroke="#191970" points="557.2135,-178.76 567.2135,-175.2599 557.2135,-171.76 557.2135,-178.76"/>
</g>
<!-- Node15494 -->
<g id="node16" class="node">
<title>Node15494</title>
<g id="a_node16"><a xlink:href="../../d1/d95/_system_8c.html#ae39e41c84235850a135a73187a387d21" target="_top" xlink:title="omc_System_gettext">
<polygon fill="#ffffff" stroke="#000000" points="793.5,-80.7599 793.5,-99.7599 903.5,-99.7599 903.5,-80.7599 793.5,-80.7599"/>
<text text-anchor="middle" x="848.5" y="-87.7599" font-family="Helvetica,sans-Serif" font-size="10.00" fill="#000000">omc_System_gettext</text>
</a>
</g>
</g>
<!-- Node15493&#45;&gt;Node15494 -->
<g id="edge15" class="edge">
<title>Node15493&#45;&gt;Node15494</title>
<path fill="none" stroke="#191970" d="M677.208,-127.6825C690.3237,-124.7226 704.7638,-121.4109 718,-118.2599 734.044,-114.4404 737.9112,-112.8863 754,-109.2599 765.2375,-106.7269 777.2642,-104.1824 788.8432,-101.8157"/>
<polygon fill="#191970" stroke="#191970" points="789.7652,-105.2002 798.8724,-99.7864 788.3769,-98.3392 789.7652,-105.2002"/>
</g>
<!-- Node15495 -->
<g id="node17" class="node">
<title>Node15495</title>
<g id="a_node17"><a xlink:href="../../d8/d28/_compiler_2boot_2build_2system_8h.html#a082d216ff61d9f3b30e1fe92e3fc5860" target="_top" xlink:title="SystemImpl__gettext">
<polygon fill="#ffffff" stroke="#000000" points="992.5,-80.7599 992.5,-99.7599 1102.5,-99.7599 1102.5,-80.7599 992.5,-80.7599"/>
<text text-anchor="middle" x="1047.5" y="-87.7599" font-family="Helvetica,sans-Serif" font-size="10.00" fill="#000000">SystemImpl__gettext</text>
</a>
</g>
</g>
<!-- Node15494&#45;&gt;Node15495 -->
<g id="edge16" class="edge">
<title>Node15494&#45;&gt;Node15495</title>
<path fill="none" stroke="#191970" d="M903.6683,-90.2599C927.9315,-90.2599 956.6155,-90.2599 981.9594,-90.2599"/>
<polygon fill="#191970" stroke="#191970" points="982.2244,-93.76 992.2244,-90.2599 982.2243,-86.76 982.2244,-93.76"/>
</g>
<!-- Node15497 -->
<g id="node19" class="node">
<title>Node15497</title>
<g id="a_node19"><a xlink:href="../../d1/d40/boot_2build_2_error_ext_8h.html#afef4410ffb05473c1ca2f30078ee39a8" target="_top" xlink:title="Error_addSourceMessage">
<polygon fill="#ffffff" stroke="#000000" points="784,-251.7599 784,-270.7599 913,-270.7599 913,-251.7599 784,-251.7599"/>
<text text-anchor="middle" x="848.5" y="-258.7599" font-family="Helvetica,sans-Serif" font-size="10.00" fill="#000000">Error_addSourceMessage</text>
</a>
</g>
</g>
<!-- Node15496&#45;&gt;Node15497 -->
<g id="edge18" class="edge">
<title>Node15496&#45;&gt;Node15497</title>
<path fill="none" stroke="#191970" d="M704.5324,-241.7957C726.6633,-244.7878 751.1663,-248.1005 773.5888,-251.132"/>
<polygon fill="#191970" stroke="#191970" points="773.3499,-254.6315 783.7287,-252.5029 774.2878,-247.6946 773.3499,-254.6315"/>
</g>
<!-- Node15498 -->
<g id="node20" class="node">
<title>Node15498</title>
<g id="a_node20"><a xlink:href="../../dc/d1d/errorext_8cpp.html#a658c4e234277aba60ad929952c45d9e2" target="_top" xlink:title="add_source_message">
<polygon fill="#ffffff" stroke="#000000" points="991.5,-270.7599 991.5,-289.7599 1103.5,-289.7599 1103.5,-270.7599 991.5,-270.7599"/>
<text text-anchor="middle" x="1047.5" y="-277.7599" font-family="Helvetica,sans-Serif" font-size="10.00" fill="#000000">add_source_message</text>
</a>
</g>
</g>
<!-- Node15497&#45;&gt;Node15498 -->
<g id="edge19" class="edge">
<title>Node15497&#45;&gt;Node15498</title>
<path fill="none" stroke="#191970" d="M913.1096,-267.4286C934.8597,-269.5053 959.1566,-271.8251 981.0463,-273.915"/>
<polygon fill="#191970" stroke="#191970" points="980.9581,-277.4224 991.2456,-274.8888 981.6235,-270.4541 980.9581,-277.4224"/>
</g>
<!-- Node15499 -->
<g id="node21" class="node">
<title>Node15499</title>
<g id="a_node21"><a xlink:href="../../d4/dbe/_o_m_c_monitor_8c.html#ad78b5494db8b59027d08860c5efce10f" target="_top" xlink:title="ErrorMessage">
<polygon fill="#ffffff" stroke="#000000" points="1182,-270.7599 1182,-289.7599 1259,-289.7599 1259,-270.7599 1182,-270.7599"/>
<text text-anchor="middle" x="1220.5" y="-277.7599" font-family="Helvetica,sans-Serif" font-size="10.00" fill="#000000">ErrorMessage</text>
</a>
</g>
</g>
<!-- Node15498&#45;&gt;Node15499 -->
<g id="edge20" class="edge">
<title>Node15498&#45;&gt;Node15499</title>
<path fill="none" stroke="#191970" d="M1103.6681,-280.2599C1125.6281,-280.2599 1150.5744,-280.2599 1171.7606,-280.2599"/>
<polygon fill="#191970" stroke="#191970" points="1171.8294,-283.76 1181.8294,-280.2599 1171.8294,-276.76 1171.8294,-283.76"/>
</g>
<!-- Node15501 -->
<g id="node23" class="node">
<title>Node15501</title>
<g id="a_node23"><a xlink:href="../../d9/d7c/_compiler_2boot_2build_2util_8c.html#ab96745984cab835c8ae43a8f02fb268b" target="_top" xlink:title="omc_Util_testsuiteFriendly2">
<polygon fill="#ffffff" stroke="#000000" points="779.5,-194.7599 779.5,-213.7599 917.5,-213.7599 917.5,-194.7599 779.5,-194.7599"/>
<text text-anchor="middle" x="848.5" y="-201.7599" font-family="Helvetica,sans-Serif" font-size="10.00" fill="#000000">omc_Util_testsuiteFriendly2</text>
</a>
</g>
</g>
<!-- Node15500&#45;&gt;Node15501 -->
<g id="edge22" class="edge">
<title>Node15500&#45;&gt;Node15501</title>
<path fill="none" stroke="#191970" d="M700.6933,-184.2767C722.343,-187.2037 746.5785,-190.4803 769.0622,-193.52"/>
<polygon fill="#191970" stroke="#191970" points="768.8749,-197.0265 779.2537,-194.8979 769.8128,-190.0896 768.8749,-197.0265"/>
</g>
<!-- Node15509 -->
<g id="node31" class="node">
<title>Node15509</title>
<g id="a_node31"><a xlink:href="../../d1/d5c/_config_8c.html#afa2f208e09cd9979df49295043109099" target="_top" xlink:title="omc_Config_getRunningTestsuite">
<polygon fill="#ffffff" stroke="#000000" points="766.5,-156.7599 766.5,-175.7599 930.5,-175.7599 930.5,-156.7599 766.5,-156.7599"/>
<text text-anchor="middle" x="848.5" y="-163.7599" font-family="Helvetica,sans-Serif" font-size="10.00" fill="#000000">omc_Config_getRunningTestsuite</text>
</a>
</g>
</g>
<!-- Node15500&#45;&gt;Node15509 -->
<g id="edge30" class="edge">
<title>Node15500&#45;&gt;Node15509</title>
<path fill="none" stroke="#191970" d="M700.6933,-172.4615C718.311,-171.7223 737.641,-170.9113 756.3459,-170.1265"/>
<polygon fill="#191970" stroke="#191970" points="756.5125,-173.6227 766.3569,-169.7064 756.219,-166.6288 756.5125,-173.6227"/>
</g>
<!-- Node15511 -->
<g id="node33" class="node">
<title>Node15511</title>
<g id="a_node33"><a xlink:href="../../d1/d5c/_config_8c.html#a9b4cae615bdffda9b7abbe6e04b1e6a5" target="_top" xlink:title="omc_Config_getRunningWSMTestsuite">
<polygon fill="#ffffff" stroke="#000000" points="754,-118.7599 754,-137.7599 943,-137.7599 943,-118.7599 754,-118.7599"/>
<text text-anchor="middle" x="848.5" y="-125.7599" font-family="Helvetica,sans-Serif" font-size="10.00" fill="#000000">omc_Config_getRunningWSMTestsuite</text>
</a>
</g>
</g>
<!-- Node15500&#45;&gt;Node15511 -->
<g id="edge33" class="edge">
<title>Node15500&#45;&gt;Node15511</title>
<path fill="none" stroke="#191970" d="M677.208,-165.6825C690.3237,-162.7226 704.7638,-159.4109 718,-156.2599 734.044,-152.4404 737.9112,-150.8863 754,-147.2599 765.2375,-144.7269 777.2642,-142.1824 788.8432,-139.8157"/>
<polygon fill="#191970" stroke="#191970" points="789.7652,-143.2002 798.8724,-137.7864 788.3769,-136.3392 789.7652,-143.2002"/>
</g>
<!-- Node15502 -->
<g id="node24" class="node">
<title>Node15502</title>
<g id="a_node24"><a xlink:href="../../d1/d95/_system_8c.html#acb158f48d2d963dbc65eb161259659a7" target="_top" xlink:title="omc_System_basename">
<polygon fill="#ffffff" stroke="#000000" points="985,-194.7599 985,-213.7599 1110,-213.7599 1110,-194.7599 985,-194.7599"/>
<text text-anchor="middle" x="1047.5" y="-201.7599" font-family="Helvetica,sans-Serif" font-size="10.00" fill="#000000">omc_System_basename</text>
</a>
</g>
</g>
<!-- Node15501&#45;&gt;Node15502 -->
<g id="edge23" class="edge">
<title>Node15501&#45;&gt;Node15502</title>
<path fill="none" stroke="#191970" d="M917.5421,-204.2599C936.012,-204.2599 956.0315,-204.2599 974.6974,-204.2599"/>
<polygon fill="#191970" stroke="#191970" points="974.9096,-207.76 984.9096,-204.2599 974.9096,-200.76 974.9096,-207.76"/>
</g>
<!-- Node15507 -->
<g id="node29" class="node">
<title>Node15507</title>
<g id="a_node29"><a xlink:href="../../d1/d95/_system_8c.html#ab4261551580fc07778c15d3b0cb0cdfd" target="_top" xlink:title="omc_System_os">
<polygon fill="#ffffff" stroke="#000000" points="1002.5,-232.7599 1002.5,-251.7599 1092.5,-251.7599 1092.5,-232.7599 1002.5,-232.7599"/>
<text text-anchor="middle" x="1047.5" y="-239.7599" font-family="Helvetica,sans-Serif" font-size="10.00" fill="#000000">omc_System_os</text>
</a>
</g>
</g>
<!-- Node15501&#45;&gt;Node15507 -->
<g id="edge28" class="edge">
<title>Node15501&#45;&gt;Node15507</title>
<path fill="none" stroke="#191970" d="M898.4592,-213.7998C926.9873,-219.2474 962.81,-226.0879 992.1851,-231.6972"/>
<polygon fill="#191970" stroke="#191970" points="991.805,-235.1878 1002.284,-233.6257 993.118,-228.312 991.805,-235.1878"/>
</g>
<!-- Node15503 -->
<g id="node25" class="node">
<title>Node15503</title>
<g id="a_node25"><a xlink:href="../../d8/d28/_compiler_2boot_2build_2system_8h.html#a7b722b53b1ba7f3ffdc3624727daa000" target="_top" xlink:title="System_basename">
<polygon fill="#ffffff" stroke="#000000" points="1170,-194.7599 1170,-213.7599 1271,-213.7599 1271,-194.7599 1170,-194.7599"/>
<text text-anchor="middle" x="1220.5" y="-201.7599" font-family="Helvetica,sans-Serif" font-size="10.00" fill="#000000">System_basename</text>
</a>
</g>
</g>
<!-- Node15502&#45;&gt;Node15503 -->
<g id="edge24" class="edge">
<title>Node15502&#45;&gt;Node15503</title>
<path fill="none" stroke="#191970" d="M1110.4464,-204.2599C1126.4551,-204.2599 1143.6291,-204.2599 1159.5371,-204.2599"/>
<polygon fill="#191970" stroke="#191970" points="1159.7833,-207.76 1169.7833,-204.2599 1159.7832,-200.76 1159.7833,-207.76"/>
</g>
<!-- Node15504 -->
<g id="node26" class="node">
<title>Node15504</title>
<g id="a_node26"><a xlink:href="../../d4/d45/systemimpl_8c.html#af0ce445d63d4d737a2ed25d05b45463c" target="_top" xlink:title="SystemImpl__basename">
<polygon fill="#ffffff" stroke="#000000" points="1325,-194.7599 1325,-213.7599 1450,-213.7599 1450,-194.7599 1325,-194.7599"/>
<text text-anchor="middle" x="1387.5" y="-201.7599" font-family="Helvetica,sans-Serif" font-size="10.00" fill="#000000">SystemImpl__basename</text>
</a>
</g>
</g>
<!-- Node15503&#45;&gt;Node15504 -->
<g id="edge25" class="edge">
<title>Node15503&#45;&gt;Node15504</title>
<path fill="none" stroke="#191970" d="M1271.0587,-204.2599C1284.7868,-204.2599 1299.9297,-204.2599 1314.6262,-204.2599"/>
<polygon fill="#191970" stroke="#191970" points="1314.7065,-207.76 1324.7065,-204.2599 1314.7065,-200.76 1314.7065,-207.76"/>
</g>
<!-- Node15505 -->
<g id="node27" class="node">
<title>Node15505</title>
<g id="a_node27"><a xlink:href="../../d7/dcd/group__core_utils.html#gaeccaa0b46edead0608a6982dddb917ec" target="_top" xlink:title="Allocate memory for a Modelica string which is used as return argument of an external Modelica functi...">
<polygon fill="#ffffff" stroke="#000000" points="1329.5,-156.7599 1329.5,-175.7599 1445.5,-175.7599 1445.5,-156.7599 1329.5,-156.7599"/>
<text text-anchor="middle" x="1387.5" y="-163.7599" font-family="Helvetica,sans-Serif" font-size="10.00" fill="#000000">ModelicaAllocateString</text>
</a>
</g>
</g>
<!-- Node15503&#45;&gt;Node15505 -->
<g id="edge26" class="edge">
<title>Node15503&#45;&gt;Node15505</title>
<path fill="none" stroke="#191970" d="M1262.6412,-194.6709C1284.8771,-189.6112 1312.3482,-183.3603 1335.8564,-178.0111"/>
<polygon fill="#191970" stroke="#191970" points="1336.6877,-181.4115 1345.6619,-175.7799 1335.1345,-174.586 1336.6877,-181.4115"/>
</g>
<!-- Node15506 -->
<g id="node28" class="node">
<title>Node15506</title>
<g id="a_node28"><a xlink:href="../../d6/d84/3rd_party_2open62541_2open62541_8h.html#aa383452fe445bfae989358c9d7d96f4f" target="_top" xlink:title="strlen">
<polygon fill="#ffffff" stroke="#000000" points="1367,-232.7599 1367,-251.7599 1408,-251.7599 1408,-232.7599 1367,-232.7599"/>
<text text-anchor="middle" x="1387.5" y="-239.7599" font-family="Helvetica,sans-Serif" font-size="10.00" fill="#000000">strlen</text>
</a>
</g>
</g>
<!-- Node15503&#45;&gt;Node15506 -->
<g id="edge27" class="edge">
<title>Node15503&#45;&gt;Node15506</title>
<path fill="none" stroke="#191970" d="M1262.6412,-213.8489C1291.9852,-220.5259 1330.4462,-229.2775 1356.8852,-235.2936"/>
<polygon fill="#191970" stroke="#191970" points="1356.2017,-238.7275 1366.7291,-237.5335 1357.7549,-231.902 1356.2017,-238.7275"/>
</g>
<!-- Node15508 -->
<g id="node30" class="node">
<title>Node15508</title>
<g id="a_node30"><a xlink:href="../../d8/d28/_compiler_2boot_2build_2system_8h.html#a967ce96198372dc665f235bb728adb6f" target="_top" xlink:title="System_os">
<polygon fill="#ffffff" stroke="#000000" points="1187.5,-232.7599 1187.5,-251.7599 1253.5,-251.7599 1253.5,-232.7599 1187.5,-232.7599"/>
<text text-anchor="middle" x="1220.5" y="-239.7599" font-family="Helvetica,sans-Serif" font-size="10.00" fill="#000000">System_os</text>
</a>
</g>
</g>
<!-- Node15507&#45;&gt;Node15508 -->
<g id="edge29" class="edge">
<title>Node15507&#45;&gt;Node15508</title>
<path fill="none" stroke="#191970" d="M1092.5021,-242.2599C1118.6358,-242.2599 1151.3924,-242.2599 1177.2258,-242.2599"/>
<polygon fill="#191970" stroke="#191970" points="1177.4739,-245.76 1187.4739,-242.2599 1177.4738,-238.76 1177.4739,-245.76"/>
</g>
<!-- Node15510 -->
<g id="node32" class="node">
<title>Node15510</title>
<g id="a_node32"><a xlink:href="../../d3/db3/_flags_8c.html#a1bdc57ee7db1a86ebd954e1aa4d04c0c" target="_top" xlink:title="omc_Flags_getConfigString">
<polygon fill="#ffffff" stroke="#000000" points="979,-156.7599 979,-175.7599 1116,-175.7599 1116,-156.7599 979,-156.7599"/>
<text text-anchor="middle" x="1047.5" y="-163.7599" font-family="Helvetica,sans-Serif" font-size="10.00" fill="#000000">omc_Flags_getConfigString</text>
</a>
</g>
</g>
<!-- Node15509&#45;&gt;Node15510 -->
<g id="edge31" class="edge">
<title>Node15509&#45;&gt;Node15510</title>
<path fill="none" stroke="#191970" d="M930.5898,-166.2599C943.1364,-166.2599 956.0642,-166.2599 968.5414,-166.2599"/>
<polygon fill="#191970" stroke="#191970" points="968.898,-169.76 978.898,-166.2599 968.8979,-162.76 968.898,-169.76"/>
</g>
<!-- Node15510&#45;&gt;Node15482 -->
<g id="edge32" class="edge">
<title>Node15510&#45;&gt;Node15482</title>
<path fill="none" stroke="#191970" d="M1091.1552,-156.6709C1114.2929,-151.5886 1142.9024,-145.3044 1167.3268,-139.9395"/>
<polygon fill="#191970" stroke="#191970" points="1168.1425,-143.3439 1177.1587,-137.7799 1166.6406,-136.5069 1168.1425,-143.3439"/>
</g>
<!-- Node15512 -->
<g id="node34" class="node">
<title>Node15512</title>
<g id="a_node34"><a xlink:href="../../d3/db3/_flags_8c.html#abc3d84cf6e1cf18f0cec0f052e7c85d9" target="_top" xlink:title="omc_Flags_getConfigBool">
<polygon fill="#ffffff" stroke="#000000" points="982,-118.7599 982,-137.7599 1113,-137.7599 1113,-118.7599 982,-118.7599"/>
<text text-anchor="middle" x="1047.5" y="-125.7599" font-family="Helvetica,sans-Serif" font-size="10.00" fill="#000000">omc_Flags_getConfigBool</text>
</a>
</g>
</g>
<!-- Node15511&#45;&gt;Node15512 -->
<g id="edge34" class="edge">
<title>Node15511&#45;&gt;Node15512</title>
<path fill="none" stroke="#191970" d="M943.0463,-128.2599C952.6938,-128.2599 962.4037,-128.2599 971.8118,-128.2599"/>
<polygon fill="#191970" stroke="#191970" points="971.885,-131.76 981.8849,-128.2599 971.8849,-124.76 971.885,-131.76"/>
</g>
<!-- Node15512&#45;&gt;Node15482 -->
<g id="edge35" class="edge">
<title>Node15512&#45;&gt;Node15482</title>
<path fill="none" stroke="#191970" d="M1113.3974,-128.2599C1122.6537,-128.2599 1132.2443,-128.2599 1141.7107,-128.2599"/>
<polygon fill="#191970" stroke="#191970" points="1141.9123,-131.76 1151.9123,-128.2599 1141.9123,-124.76 1141.9123,-131.76"/>
</g>
</g>
</svg>
