<?xml version="1.0" encoding="UTF-8" standalone="no"?>
<!DOCTYPE svg PUBLIC "-//W3C//DTD SVG 1.1//EN"
 "http://www.w3.org/Graphics/SVG/1.1/DTD/svg11.dtd">
<!-- Generated by graphviz version 2.40.1 (20161225.0304)
 -->
<!-- Title: boxptr_Static_extractDimensionOfChild Pages: 1 -->
<svg width="443pt" height="39pt"
 viewBox="0.00 0.00 443.00 39.00" xmlns="http://www.w3.org/2000/svg" xmlns:xlink="http://www.w3.org/1999/xlink">
<g id="graph0" class="graph" transform="scale(1 1) rotate(0) translate(4 35)">
<title>boxptr_Static_extractDimensionOfChild</title>
<polygon fill="#ffffff" stroke="transparent" points="-4,4 -4,-35 439,-35 439,4 -4,4"/>
<!-- Node7011 -->
<g id="node1" class="node">
<title>Node7011</title>
<polygon fill="#bfbfbf" stroke="#000000" points="0,-.5 0,-30.5 156,-30.5 156,-.5 0,-.5"/>
<text text-anchor="start" x="8" y="-18.5" font-family="Helvetica,sans-Serif" font-size="10.00" fill="#000000">boxptr_Static_extractDimension</text>
<text text-anchor="middle" x="78" y="-7.5" font-family="Helvetica,sans-Serif" font-size="10.00" fill="#000000">OfChild</text>
</g>
<!-- Node7012 -->
<g id="node2" class="node">
<title>Node7012</title>
<g id="a_node2"><a xlink:href="../../d0/d86/_static_8c.html#a4a334d9ad32aa701c76dc86fd7347084" target="_top" xlink:title="omc_Static_extractDimension\lOfChild">
<polygon fill="#ffffff" stroke="#000000" points="192,-.5 192,-30.5 340,-30.5 340,-.5 192,-.5"/>
<text text-anchor="start" x="200" y="-18.5" font-family="Helvetica,sans-Serif" font-size="10.00" fill="#000000">omc_Static_extractDimension</text>
<text text-anchor="middle" x="266" y="-7.5" font-family="Helvetica,sans-Serif" font-size="10.00" fill="#000000">OfChild</text>
</a>
</g>
</g>
<!-- Node7011&#45;&gt;Node7012 -->
<g id="edge1" class="edge">
<title>Node7011&#45;&gt;Node7012</title>
<path fill="none" stroke="#191970" d="M156.0957,-15.5C164.4872,-15.5 173.0529,-15.5 181.5147,-15.5"/>
<polygon fill="#191970" stroke="#191970" points="181.766,-19.0001 191.766,-15.5 181.7659,-12.0001 181.766,-19.0001"/>
</g>
<!-- Node7013 -->
<g id="node3" class="node">
<title>Node7013</title>
<g id="a_node3"><a xlink:href="../../d2/d57/build_2include_2omc_2c_2meta_2meta__modelica__builtin_8h.html#a6983369f3c3e3e8cc41ac483c9a9baf1" target="_top" xlink:title="listLength">
<polygon fill="#ffffff" stroke="#000000" points="376,-6 376,-25 435,-25 435,-6 376,-6"/>
<text text-anchor="middle" x="405.5" y="-13" font-family="Helvetica,sans-Serif" font-size="10.00" fill="#000000">listLength</text>
</a>
</g>
</g>
<!-- Node7012&#45;&gt;Node7013 -->
<g id="edge2" class="edge">
<title>Node7012&#45;&gt;Node7013</title>
<path fill="none" stroke="#191970" d="M340.2428,-15.5C349.0199,-15.5 357.7017,-15.5 365.7292,-15.5"/>
<polygon fill="#191970" stroke="#191970" points="365.8583,-19.0001 375.8583,-15.5 365.8583,-12.0001 365.8583,-19.0001"/>
</g>
</g>
</svg>
