<?xml version="1.0" encoding="UTF-8" standalone="no"?>
<!DOCTYPE svg PUBLIC "-//W3C//DTD SVG 1.1//EN"
 "http://www.w3.org/Graphics/SVG/1.1/DTD/svg11.dtd">
<!-- Generated by graphviz version 2.40.1 (20161225.0304)
 -->
<!-- Title: omc_Static_elabBuiltinProduct2 Pages: 1 -->
<svg width="1670pt" height="484pt"
 viewBox="0.00 0.00 1670.00 484.00" xmlns="http://www.w3.org/2000/svg" xmlns:xlink="http://www.w3.org/1999/xlink">
<g id="graph0" class="graph" transform="scale(1 1) rotate(0) translate(4 480)">
<title>omc_Static_elabBuiltinProduct2</title>
<polygon fill="#ffffff" stroke="transparent" points="-4,4 -4,-480 1666,-480 1666,4 -4,4"/>
<!-- Node12356 -->
<g id="node1" class="node">
<title>Node12356</title>
<polygon fill="#bfbfbf" stroke="#000000" points="0,-352.5 0,-371.5 155,-371.5 155,-352.5 0,-352.5"/>
<text text-anchor="middle" x="77.5" y="-359.5" font-family="Helvetica,sans-Serif" font-size="10.00" fill="#000000">omc_Static_elabBuiltinProduct2</text>
</g>
<!-- Node12357 -->
<g id="node2" class="node">
<title>Node12357</title>
<g id="a_node2"><a xlink:href="../../d1/d08/_expression_8c.html#ab1ad91875e9127bb5e1864f50295ade8" target="_top" xlink:title="omc_Expression_makeProductLst">
<polygon fill="#ffffff" stroke="#000000" points="191,-390.5 191,-409.5 357,-409.5 357,-390.5 191,-390.5"/>
<text text-anchor="middle" x="274" y="-397.5" font-family="Helvetica,sans-Serif" font-size="10.00" fill="#000000">omc_Expression_makeProductLst</text>
</a>
</g>
</g>
<!-- Node12356&#45;&gt;Node12357 -->
<g id="edge1" class="edge">
<title>Node12356&#45;&gt;Node12357</title>
<path fill="none" stroke="#191970" d="M126.8316,-371.54C153.4607,-376.6896 186.5266,-383.084 214.5663,-388.5065"/>
<polygon fill="#191970" stroke="#191970" points="214.1654,-391.9937 224.6481,-390.4561 215.4946,-385.121 214.1654,-391.9937"/>
</g>
<!-- Node12358 -->
<g id="node3" class="node">
<title>Node12358</title>
<g id="a_node3"><a xlink:href="../../d1/d08/_expression_8c.html#ad95aad41078bdcfca146e4eca11c9730" target="_top" xlink:title="omc_Expression_arrayElements">
<polygon fill="#ffffff" stroke="#000000" points="195,-352.5 195,-371.5 353,-371.5 353,-352.5 195,-352.5"/>
<text text-anchor="middle" x="274" y="-359.5" font-family="Helvetica,sans-Serif" font-size="10.00" fill="#000000">omc_Expression_arrayElements</text>
</a>
</g>
</g>
<!-- Node12356&#45;&gt;Node12358 -->
<g id="edge2" class="edge">
<title>Node12356&#45;&gt;Node12358</title>
<path fill="none" stroke="#191970" d="M155.162,-362C164.8755,-362 174.87,-362 184.7425,-362"/>
<polygon fill="#191970" stroke="#191970" points="184.9696,-365.5001 194.9695,-362 184.9695,-358.5001 184.9696,-365.5001"/>
</g>
<!-- Node12382 -->
<g id="node27" class="node">
<title>Node12382</title>
<g id="a_node27"><a xlink:href="../../d1/dd1/3rd_party_2gc_2include_2gc_8h.html#acacfa47efcc44a29f7bb7d98f2a000f8" target="_top" xlink:title="void">
<polygon fill="#ffffff" stroke="#000000" points="615.5,-.5 615.5,-19.5 650.5,-19.5 650.5,-.5 615.5,-.5"/>
<text text-anchor="middle" x="633" y="-7.5" font-family="Helvetica,sans-Serif" font-size="10.00" fill="#000000">void</text>
</a>
</g>
</g>
<!-- Node12356&#45;&gt;Node12382 -->
<g id="edge42" class="edge">
<title>Node12356&#45;&gt;Node12382</title>
<path fill="none" stroke="#191970" d="M87.8684,-352.48C136.9646,-307.9611 352.5477,-118.7095 565,-29 577.8803,-23.5612 592.7822,-19.1971 605.3472,-16.0297"/>
<polygon fill="#191970" stroke="#191970" points="606.3485,-19.3889 615.2565,-13.6533 604.716,-12.5819 606.3485,-19.3889"/>
</g>
<!-- Node12359 -->
<g id="node4" class="node">
<title>Node12359</title>
<g id="a_node4"><a xlink:href="../../d9/d14/_component_reference_8c.html#a3b80cb3e826afb73d2b541f5131b084c" target="_top" xlink:title="omc_ComponentReference\l_expandCref">
<polygon fill="#ffffff" stroke="#000000" points="393,-139 393,-169 529,-169 529,-139 393,-139"/>
<text text-anchor="start" x="401" y="-157" font-family="Helvetica,sans-Serif" font-size="10.00" fill="#000000">omc_ComponentReference</text>
<text text-anchor="middle" x="461" y="-146" font-family="Helvetica,sans-Serif" font-size="10.00" fill="#000000">_expandCref</text>
</a>
</g>
</g>
<!-- Node12358&#45;&gt;Node12359 -->
<g id="edge3" class="edge">
<title>Node12358&#45;&gt;Node12359</title>
<path fill="none" stroke="#191970" d="M282.7686,-352.2467C311.0377,-320.803 400.2821,-221.5365 440.7258,-176.551"/>
<polygon fill="#191970" stroke="#191970" points="443.3762,-178.838 447.4591,-169.0615 438.1706,-174.158 443.3762,-178.838"/>
</g>
<!-- Node12361 -->
<g id="node6" class="node">
<title>Node12361</title>
<g id="a_node6"><a xlink:href="../../da/d72/_compiler_2boot_2build_2list_8c.html#a70628b2c3fb199a118f80777135940ee" target="_top" xlink:title="omc_List_map">
<polygon fill="#ffffff" stroke="#000000" points="1122.5,-220.5 1122.5,-239.5 1202.5,-239.5 1202.5,-220.5 1122.5,-220.5"/>
<text text-anchor="middle" x="1162.5" y="-227.5" font-family="Helvetica,sans-Serif" font-size="10.00" fill="#000000">omc_List_map</text>
</a>
</g>
</g>
<!-- Node12358&#45;&gt;Node12361 -->
<g id="edge34" class="edge">
<title>Node12358&#45;&gt;Node12361</title>
<path fill="none" stroke="#191970" d="M334.9653,-371.5668C342.6517,-374.0254 350.196,-377.1157 357,-381 377.204,-392.534 372.8431,-407.3839 393,-419 487.9894,-473.7409 523.3663,-476 633,-476 633,-476 633,-476 809.5,-476 927.4891,-476 968.3061,-464.0019 1061,-391 1110.1894,-352.2604 1142.1705,-282.659 1155.4676,-249.1094"/>
<polygon fill="#191970" stroke="#191970" points="1158.8138,-250.1585 1159.1264,-239.5682 1152.2779,-247.652 1158.8138,-250.1585"/>
</g>
<!-- Node12383 -->
<g id="node28" class="node">
<title>Node12383</title>
<g id="a_node28"><a xlink:href="../../da/d72/_compiler_2boot_2build_2list_8c.html#a198c5fd520b6cadfe3d761a47a161a7b" target="_top" xlink:title="omc_List_mapFlat">
<polygon fill="#ffffff" stroke="#000000" points="412.5,-352.5 412.5,-371.5 509.5,-371.5 509.5,-352.5 412.5,-352.5"/>
<text text-anchor="middle" x="461" y="-359.5" font-family="Helvetica,sans-Serif" font-size="10.00" fill="#000000">omc_List_mapFlat</text>
</a>
</g>
</g>
<!-- Node12358&#45;&gt;Node12383 -->
<g id="edge35" class="edge">
<title>Node12358&#45;&gt;Node12383</title>
<path fill="none" stroke="#191970" d="M353.0338,-362C369.5512,-362 386.6859,-362 402.3082,-362"/>
<polygon fill="#191970" stroke="#191970" points="402.3342,-365.5001 412.3342,-362 402.3342,-358.5001 402.3342,-365.5001"/>
</g>
<!-- Node12386 -->
<g id="node31" class="node">
<title>Node12386</title>
<g id="a_node31"><a xlink:href="../../da/d72/_compiler_2boot_2build_2list_8c.html#a65a694e3889f2f5d8af963dcfbbaf1cf" target="_top" xlink:title="omc_List_flatten">
<polygon fill="#ffffff" stroke="#000000" points="416.5,-390.5 416.5,-409.5 505.5,-409.5 505.5,-390.5 416.5,-390.5"/>
<text text-anchor="middle" x="461" y="-397.5" font-family="Helvetica,sans-Serif" font-size="10.00" fill="#000000">omc_List_flatten</text>
</a>
</g>
</g>
<!-- Node12358&#45;&gt;Node12386 -->
<g id="edge39" class="edge">
<title>Node12358&#45;&gt;Node12386</title>
<path fill="none" stroke="#191970" d="M321.188,-371.589C347.092,-376.8529 379.3409,-383.4062 406.3368,-388.892"/>
<polygon fill="#191970" stroke="#191970" points="405.9052,-392.3757 416.4019,-390.9373 407.2992,-385.5159 405.9052,-392.3757"/>
</g>
<!-- Node12360 -->
<g id="node5" class="node">
<title>Node12360</title>
<g id="a_node5"><a xlink:href="../../d9/d14/_component_reference_8c.html#a439fd1e269bfe78cfe3fd4b8a4062df3" target="_top" xlink:title="omc_ComponentReference\l_expandCref__impl">
<polygon fill="#ffffff" stroke="#000000" points="565,-253 565,-283 701,-283 701,-253 565,-253"/>
<text text-anchor="start" x="573" y="-271" font-family="Helvetica,sans-Serif" font-size="10.00" fill="#000000">omc_ComponentReference</text>
<text text-anchor="middle" x="633" y="-260" font-family="Helvetica,sans-Serif" font-size="10.00" fill="#000000">_expandCref__impl</text>
</a>
</g>
</g>
<!-- Node12359&#45;&gt;Node12360 -->
<g id="edge4" class="edge">
<title>Node12359&#45;&gt;Node12360</title>
<path fill="none" stroke="#191970" d="M483.8403,-169.1383C514.1229,-189.2094 567.6912,-224.7139 601.7163,-247.2655"/>
<polygon fill="#191970" stroke="#191970" points="600.0702,-250.3734 610.3392,-252.9806 603.9374,-244.5386 600.0702,-250.3734"/>
</g>
<!-- Node12367 -->
<g id="node12" class="node">
<title>Node12367</title>
<g id="a_node12"><a xlink:href="../../d3/db3/_flags_8c.html#a34e6591659b1578969141a635ff24042" target="_top" xlink:title="omc_Flags_isSet">
<polygon fill="#ffffff" stroke="#000000" points="1286.5,-105.5 1286.5,-124.5 1378.5,-124.5 1378.5,-105.5 1286.5,-105.5"/>
<text text-anchor="middle" x="1332.5" y="-112.5" font-family="Helvetica,sans-Serif" font-size="10.00" fill="#000000">omc_Flags_isSet</text>
</a>
</g>
</g>
<!-- Node12359&#45;&gt;Node12367 -->
<g id="edge13" class="edge">
<title>Node12359&#45;&gt;Node12367</title>
<path fill="none" stroke="#191970" d="M529.1138,-154C599.3633,-154 712.0894,-154 809.5,-154 809.5,-154 809.5,-154 989.5,-154 1091.1131,-154 1208.5811,-136.8935 1276.3324,-125.3394"/>
<polygon fill="#191970" stroke="#191970" points="1277.106,-128.7577 1286.3645,-123.607 1275.9147,-121.8598 1277.106,-128.7577"/>
</g>
<!-- Node12370 -->
<g id="node15" class="node">
<title>Node12370</title>
<g id="a_node15"><a xlink:href="../../d7/deb/build_2include_2omc_2c_2util_2modelica__string_8c.html#a751007abc59e9ca7978f2af10a0c814f" target="_top" xlink:title="stringAppend">
<polygon fill="#ffffff" stroke="#000000" points="772.5,-106.5 772.5,-125.5 846.5,-125.5 846.5,-106.5 772.5,-106.5"/>
<text text-anchor="middle" x="809.5" y="-113.5" font-family="Helvetica,sans-Serif" font-size="10.00" fill="#000000">stringAppend</text>
</a>
</g>
</g>
<!-- Node12359&#45;&gt;Node12370 -->
<g id="edge16" class="edge">
<title>Node12359&#45;&gt;Node12370</title>
<path fill="none" stroke="#191970" d="M529.206,-144.4614C541.1275,-142.8963 553.4183,-141.3475 565,-140 633.4263,-132.0387 712.8327,-124.57 762.1279,-120.1413"/>
<polygon fill="#191970" stroke="#191970" points="762.5264,-123.6198 772.1751,-119.2434 761.9032,-116.6476 762.5264,-123.6198"/>
</g>
<!-- Node12371 -->
<g id="node16" class="node">
<title>Node12371</title>
<g id="a_node16"><a xlink:href="../../d9/d14/_component_reference_8c.html#ad55924d78e0d18d1b2ba420131a7f489" target="_top" xlink:title="omc_ComponentReference\l_printComponentRefStr">
<polygon fill="#ffffff" stroke="#000000" points="565,-39 565,-69 701,-69 701,-39 565,-39"/>
<text text-anchor="start" x="573" y="-57" font-family="Helvetica,sans-Serif" font-size="10.00" fill="#000000">omc_ComponentReference</text>
<text text-anchor="middle" x="633" y="-46" font-family="Helvetica,sans-Serif" font-size="10.00" fill="#000000">_printComponentRefStr</text>
</a>
</g>
</g>
<!-- Node12359&#45;&gt;Node12371 -->
<g id="edge17" class="edge">
<title>Node12359&#45;&gt;Node12371</title>
<path fill="none" stroke="#191970" d="M487.1231,-138.8122C516.8449,-121.532 565.509,-93.239 598.3731,-74.1319"/>
<polygon fill="#191970" stroke="#191970" points="600.3087,-77.0552 607.1946,-69.0031 596.7904,-71.0036 600.3087,-77.0552"/>
</g>
<!-- Node12379 -->
<g id="node24" class="node">
<title>Node12379</title>
<g id="a_node24"><a xlink:href="../../d6/d1d/_compiler_2boot_2build_2debug_8c.html#a39cb2cfbaaec041a9681a736f5faa624" target="_top" xlink:title="omc_Debug_traceln">
<polygon fill="#ffffff" stroke="#000000" points="581,-182.5 581,-201.5 685,-201.5 685,-182.5 581,-182.5"/>
<text text-anchor="middle" x="633" y="-189.5" font-family="Helvetica,sans-Serif" font-size="10.00" fill="#000000">omc_Debug_traceln</text>
</a>
</g>
</g>
<!-- Node12359&#45;&gt;Node12379 -->
<g id="edge30" class="edge">
<title>Node12359&#45;&gt;Node12379</title>
<path fill="none" stroke="#191970" d="M528.979,-169.0186C546.0087,-172.781 564.0254,-176.7614 580.1933,-180.3334"/>
<polygon fill="#191970" stroke="#191970" points="579.4762,-183.7593 589.9958,-182.4991 580.9864,-176.9241 579.4762,-183.7593"/>
</g>
<!-- Node12359&#45;&gt;Node12382 -->
<g id="edge33" class="edge">
<title>Node12359&#45;&gt;Node12382</title>
<path fill="none" stroke="#191970" d="M474.1723,-138.7775C487.9717,-122.7667 510.2118,-96.782 529,-74 545.2957,-54.2402 543.6361,-43.1274 565,-29 577.0209,-21.0509 592.3429,-16.3957 605.3984,-13.6856"/>
<polygon fill="#191970" stroke="#191970" points="606.0568,-17.1234 615.2764,-11.9033 604.8138,-10.2346 606.0568,-17.1234"/>
</g>
<!-- Node12360&#45;&gt;Node12361 -->
<g id="edge5" class="edge">
<title>Node12360&#45;&gt;Node12361</title>
<path fill="none" stroke="#191970" d="M701.0529,-254.1973C712.9915,-252.1684 725.3277,-250.3206 737,-249 872.0128,-233.7246 1032.4254,-230.589 1112.2169,-230.0358"/>
<polygon fill="#191970" stroke="#191970" points="1112.4877,-233.5343 1122.4671,-229.976 1112.4468,-226.5345 1112.4877,-233.5343"/>
</g>
<!-- Node12362 -->
<g id="node7" class="node">
<title>Node12362</title>
<g id="a_node7"><a xlink:href="../../da/d72/_compiler_2boot_2build_2list_8c.html#a82a304d48e2d3a9aae9848f2c3dcadcb" target="_top" xlink:title="omc_List_map1r">
<polygon fill="#ffffff" stroke="#000000" points="765,-258.5 765,-277.5 854,-277.5 854,-258.5 765,-258.5"/>
<text text-anchor="middle" x="809.5" y="-265.5" font-family="Helvetica,sans-Serif" font-size="10.00" fill="#000000">omc_List_map1r</text>
</a>
</g>
</g>
<!-- Node12360&#45;&gt;Node12362 -->
<g id="edge6" class="edge">
<title>Node12360&#45;&gt;Node12362</title>
<path fill="none" stroke="#191970" d="M701.2395,-268C718.9128,-268 737.7163,-268 754.608,-268"/>
<polygon fill="#191970" stroke="#191970" points="754.8512,-271.5001 764.8511,-268 754.8511,-264.5001 754.8512,-271.5001"/>
</g>
<!-- Node12363 -->
<g id="node8" class="node">
<title>Node12363</title>
<g id="a_node8"><a xlink:href="../../da/d72/_compiler_2boot_2build_2list_8c.html#a7a3765c58f0d63f5f8cafe9173817b1a" target="_top" xlink:title="omc_List_map1Flat">
<polygon fill="#ffffff" stroke="#000000" points="758.5,-296.5 758.5,-315.5 860.5,-315.5 860.5,-296.5 758.5,-296.5"/>
<text text-anchor="middle" x="809.5" y="-303.5" font-family="Helvetica,sans-Serif" font-size="10.00" fill="#000000">omc_List_map1Flat</text>
</a>
</g>
</g>
<!-- Node12360&#45;&gt;Node12363 -->
<g id="edge7" class="edge">
<title>Node12360&#45;&gt;Node12363</title>
<path fill="none" stroke="#191970" d="M701.2395,-282.6918C719.1606,-286.5502 738.2439,-290.6587 755.3174,-294.3346"/>
<polygon fill="#191970" stroke="#191970" points="754.6011,-297.7605 765.1138,-296.4438 756.0745,-290.9173 754.6011,-297.7605"/>
</g>
<!-- Node12366 -->
<g id="node11" class="node">
<title>Node12366</title>
<g id="a_node11"><a xlink:href="../../d3/df6/_types_8c.html#a1ba79aedb2e58551b226262e1ba51bdb" target="_top" xlink:title="omc_Types_flattenArrayType">
<polygon fill="#ffffff" stroke="#000000" points="737,-334.5 737,-353.5 882,-353.5 882,-334.5 737,-334.5"/>
<text text-anchor="middle" x="809.5" y="-341.5" font-family="Helvetica,sans-Serif" font-size="10.00" fill="#000000">omc_Types_flattenArrayType</text>
</a>
</g>
</g>
<!-- Node12360&#45;&gt;Node12366 -->
<g id="edge10" class="edge">
<title>Node12360&#45;&gt;Node12366</title>
<path fill="none" stroke="#191970" d="M656.557,-283.098C677.1214,-295.7365 708.1142,-313.5016 737,-325 743.1731,-327.4573 749.768,-329.6902 756.3709,-331.6905"/>
<polygon fill="#191970" stroke="#191970" points="755.4249,-335.0602 766.0024,-334.4538 757.3554,-328.3317 755.4249,-335.0602"/>
</g>
<!-- Node12364 -->
<g id="node9" class="node">
<title>Node12364</title>
<g id="a_node9"><a xlink:href="../../d2/d57/build_2include_2omc_2c_2meta_2meta__modelica__builtin_8h.html#a56b7e8a835b2d388f5984ca7378bc1ec" target="_top" xlink:title="listAppend">
<polygon fill="#ffffff" stroke="#000000" points="958.5,-362.5 958.5,-381.5 1020.5,-381.5 1020.5,-362.5 958.5,-362.5"/>
<text text-anchor="middle" x="989.5" y="-369.5" font-family="Helvetica,sans-Serif" font-size="10.00" fill="#000000">listAppend</text>
</a>
</g>
</g>
<!-- Node12363&#45;&gt;Node12364 -->
<g id="edge8" class="edge">
<title>Node12363&#45;&gt;Node12364</title>
<path fill="none" stroke="#191970" d="M850.4806,-315.5496C860.86,-318.2925 871.9207,-321.4998 882,-325 909.3654,-334.503 939.503,-347.9529 960.8869,-358.0314"/>
<polygon fill="#191970" stroke="#191970" points="959.5213,-361.2577 970.0545,-362.3985 962.5317,-354.9381 959.5213,-361.2577"/>
</g>
<!-- Node12365 -->
<g id="node10" class="node">
<title>Node12365</title>
<g id="a_node10"><a xlink:href="../../d2/d57/build_2include_2omc_2c_2meta_2meta__modelica__builtin_8h.html#ad7cc5a28ee76a604bbbddfd643761734" target="_top" xlink:title="listReverseInPlace">
<polygon fill="#ffffff" stroke="#000000" points="940,-296.5 940,-315.5 1039,-315.5 1039,-296.5 940,-296.5"/>
<text text-anchor="middle" x="989.5" y="-303.5" font-family="Helvetica,sans-Serif" font-size="10.00" fill="#000000">listReverseInPlace</text>
</a>
</g>
</g>
<!-- Node12363&#45;&gt;Node12365 -->
<g id="edge9" class="edge">
<title>Node12363&#45;&gt;Node12365</title>
<path fill="none" stroke="#191970" d="M860.5993,-306C882.1411,-306 907.3648,-306 929.7595,-306"/>
<polygon fill="#191970" stroke="#191970" points="929.8266,-309.5001 939.8265,-306 929.8265,-302.5001 929.8266,-309.5001"/>
</g>
<!-- Node12366&#45;&gt;Node12364 -->
<g id="edge12" class="edge">
<title>Node12366&#45;&gt;Node12364</title>
<path fill="none" stroke="#191970" d="M870.691,-353.5186C896.1451,-357.4781 925.0362,-361.9723 947.9546,-365.5374"/>
<polygon fill="#191970" stroke="#191970" points="947.6114,-369.026 958.0306,-367.1048 948.6874,-362.1092 947.6114,-369.026"/>
</g>
<!-- Node12366&#45;&gt;Node12366 -->
<g id="edge11" class="edge">
<title>Node12366&#45;&gt;Node12366</title>
<path fill="none" stroke="#191970" d="M782.3733,-353.7571C769.1765,-362.5653 778.2188,-372 809.5,-372 831.0059,-372 842.0003,-367.5406 842.4834,-361.8913"/>
<polygon fill="#191970" stroke="#191970" points="845.3102,-359.8273 836.6267,-353.7571 839.6294,-363.9175 845.3102,-359.8273"/>
</g>
<!-- Node12368 -->
<g id="node13" class="node">
<title>Node12368</title>
<g id="a_node13"><a xlink:href="../../d3/db3/_flags_8c.html#a760d66f53b65ac257876ca0f6308f09f" target="_top" xlink:title="omc_Flags_loadFlags">
<polygon fill="#ffffff" stroke="#000000" points="1437,-75.5 1437,-94.5 1549,-94.5 1549,-75.5 1437,-75.5"/>
<text text-anchor="middle" x="1493" y="-82.5" font-family="Helvetica,sans-Serif" font-size="10.00" fill="#000000">omc_Flags_loadFlags</text>
</a>
</g>
</g>
<!-- Node12367&#45;&gt;Node12368 -->
<g id="edge14" class="edge">
<title>Node12367&#45;&gt;Node12368</title>
<path fill="none" stroke="#191970" d="M1378.9233,-106.3228C1395.4078,-103.2415 1414.2233,-99.7246 1431.7548,-96.4477"/>
<polygon fill="#191970" stroke="#191970" points="1432.7148,-99.829 1441.9014,-94.5511 1431.4286,-92.9481 1432.7148,-99.829"/>
</g>
<!-- Node12369 -->
<g id="node14" class="node">
<title>Node12369</title>
<g id="a_node14"><a xlink:href="../../da/d72/_compiler_2boot_2build_2list_8c.html#a3ec1ee3a5ff53be9af368e290be09182" target="_top" xlink:title="omc_List_fold">
<polygon fill="#ffffff" stroke="#000000" points="1585,-75.5 1585,-94.5 1662,-94.5 1662,-75.5 1585,-75.5"/>
<text text-anchor="middle" x="1623.5" y="-82.5" font-family="Helvetica,sans-Serif" font-size="10.00" fill="#000000">omc_List_fold</text>
</a>
</g>
</g>
<!-- Node12368&#45;&gt;Node12369 -->
<g id="edge15" class="edge">
<title>Node12368&#45;&gt;Node12369</title>
<path fill="none" stroke="#191970" d="M1549.1011,-85C1557.5528,-85 1566.2135,-85 1574.5007,-85"/>
<polygon fill="#191970" stroke="#191970" points="1574.7542,-88.5001 1584.7542,-85 1574.7541,-81.5001 1574.7542,-88.5001"/>
</g>
<!-- Node12371&#45;&gt;Node12370 -->
<g id="edge26" class="edge">
<title>Node12371&#45;&gt;Node12370</title>
<path fill="none" stroke="#191970" d="M666.2839,-69.1164C686.481,-77.9473 712.9236,-88.9095 737,-97 745.1559,-99.7407 753.9356,-102.3332 762.4727,-104.6712"/>
<polygon fill="#191970" stroke="#191970" points="761.7675,-108.1053 772.3312,-107.2926 763.5664,-101.3403 761.7675,-108.1053"/>
</g>
<!-- Node12371&#45;&gt;Node12371 -->
<g id="edge29" class="edge">
<title>Node12371&#45;&gt;Node12371</title>
<path fill="none" stroke="#191970" d="M603.0255,-69.159C595.7975,-78.5566 605.7891,-87.5 633,-87.5 649.5817,-87.5 659.7691,-84.179 663.5623,-79.4579"/>
<polygon fill="#191970" stroke="#191970" points="667.0387,-78.9433 662.9745,-69.159 660.0501,-79.3422 667.0387,-78.9433"/>
</g>
<!-- Node12372 -->
<g id="node17" class="node">
<title>Node12372</title>
<g id="a_node17"><a xlink:href="../../d9/d14/_component_reference_8c.html#a3b4ee994a40114638276f414aef5f436" target="_top" xlink:title="omc_ComponentReference\l_printComponentRef2Str">
<polygon fill="#ffffff" stroke="#000000" points="741.5,-19 741.5,-49 877.5,-49 877.5,-19 741.5,-19"/>
<text text-anchor="start" x="749.5" y="-37" font-family="Helvetica,sans-Serif" font-size="10.00" fill="#000000">omc_ComponentReference</text>
<text text-anchor="middle" x="809.5" y="-26" font-family="Helvetica,sans-Serif" font-size="10.00" fill="#000000">_printComponentRef2Str</text>
</a>
</g>
</g>
<!-- Node12371&#45;&gt;Node12372 -->
<g id="edge18" class="edge">
<title>Node12371&#45;&gt;Node12372</title>
<path fill="none" stroke="#191970" d="M701.2395,-46.2675C711.1341,-45.1463 721.383,-43.9849 731.4523,-42.8439"/>
<polygon fill="#191970" stroke="#191970" points="731.8997,-46.3157 741.442,-41.712 731.1114,-39.3602 731.8997,-46.3157"/>
</g>
<!-- Node12373 -->
<g id="node18" class="node">
<title>Node12373</title>
<g id="a_node18"><a xlink:href="../../d1/d5c/_config_8c.html#a4284e37cd03c9c5a3fd200be81c3152d" target="_top" xlink:title="omc_Config_modelicaOutput">
<polygon fill="#ffffff" stroke="#000000" points="918,-24.5 918,-43.5 1061,-43.5 1061,-24.5 918,-24.5"/>
<text text-anchor="middle" x="989.5" y="-31.5" font-family="Helvetica,sans-Serif" font-size="10.00" fill="#000000">omc_Config_modelicaOutput</text>
</a>
</g>
</g>
<!-- Node12371&#45;&gt;Node12373 -->
<g id="edge28" class="edge">
<title>Node12371&#45;&gt;Node12373</title>
<path fill="none" stroke="#191970" d="M676.9373,-38.9818C685.03,-35.8964 693.3388,-32.5108 701,-29 717.6394,-21.3748 719.2818,-13.5912 737,-9 810.605,10.073 899.7437,-7.9394 950.007,-21.6983"/>
<polygon fill="#191970" stroke="#191970" points="949.2494,-25.1211 959.8241,-24.4679 951.1501,-18.3841 949.2494,-25.1211"/>
</g>
<!-- Node12378 -->
<g id="node23" class="node">
<title>Node12378</title>
<g id="a_node23"><a xlink:href="../../d2/d57/build_2include_2omc_2c_2meta_2meta__modelica__builtin_8h.html#a751bf2360cb3df6de97811998890b7ea" target="_top" xlink:title="intString">
<polygon fill="#ffffff" stroke="#000000" points="783,-68.5 783,-87.5 836,-87.5 836,-68.5 783,-68.5"/>
<text text-anchor="middle" x="809.5" y="-75.5" font-family="Helvetica,sans-Serif" font-size="10.00" fill="#000000">intString</text>
</a>
</g>
</g>
<!-- Node12371&#45;&gt;Node12378 -->
<g id="edge27" class="edge">
<title>Node12371&#45;&gt;Node12378</title>
<path fill="none" stroke="#191970" d="M701.2395,-63.279C725.6373,-66.5966 752.189,-70.207 772.8913,-73.022"/>
<polygon fill="#191970" stroke="#191970" points="772.4643,-76.4961 782.8447,-74.3755 773.4075,-69.5599 772.4643,-76.4961"/>
</g>
<!-- Node12372&#45;&gt;Node12373 -->
<g id="edge19" class="edge">
<title>Node12372&#45;&gt;Node12373</title>
<path fill="none" stroke="#191970" d="M877.5503,-34C887.4064,-34 897.6365,-34 907.7275,-34"/>
<polygon fill="#191970" stroke="#191970" points="907.7531,-37.5001 917.7531,-34 907.753,-30.5001 907.7531,-37.5001"/>
</g>
<!-- Node12376 -->
<g id="node21" class="node">
<title>Node12376</title>
<g id="a_node21"><a xlink:href="../../d8/d16/_expression_dump_8c.html#ab0f49b2293eca0843549a3c91f34aa73" target="_top" xlink:title="omc_ExpressionDump\l_printListStr">
<polygon fill="#ffffff" stroke="#000000" points="931.5,-86 931.5,-116 1047.5,-116 1047.5,-86 931.5,-86"/>
<text text-anchor="start" x="939.5" y="-104" font-family="Helvetica,sans-Serif" font-size="10.00" fill="#000000">omc_ExpressionDump</text>
<text text-anchor="middle" x="989.5" y="-93" font-family="Helvetica,sans-Serif" font-size="10.00" fill="#000000">_printListStr</text>
</a>
</g>
</g>
<!-- Node12372&#45;&gt;Node12376 -->
<g id="edge23" class="edge">
<title>Node12372&#45;&gt;Node12376</title>
<path fill="none" stroke="#191970" d="M854.0769,-49.0539C863.3312,-52.268 873.0025,-55.6926 882,-59 901.8587,-66.2999 923.6245,-74.7235 942.3456,-82.1017"/>
<polygon fill="#191970" stroke="#191970" points="941.2453,-85.4303 951.8317,-85.8533 943.8197,-78.9209 941.2453,-85.4303"/>
</g>
<!-- Node12374 -->
<g id="node19" class="node">
<title>Node12374</title>
<g id="a_node19"><a xlink:href="../../d3/db3/_flags_8c.html#abc3d84cf6e1cf18f0cec0f052e7c85d9" target="_top" xlink:title="omc_Flags_getConfigBool">
<polygon fill="#ffffff" stroke="#000000" points="1097,-34.5 1097,-53.5 1228,-53.5 1228,-34.5 1097,-34.5"/>
<text text-anchor="middle" x="1162.5" y="-41.5" font-family="Helvetica,sans-Serif" font-size="10.00" fill="#000000">omc_Flags_getConfigBool</text>
</a>
</g>
</g>
<!-- Node12373&#45;&gt;Node12374 -->
<g id="edge20" class="edge">
<title>Node12373&#45;&gt;Node12374</title>
<path fill="none" stroke="#191970" d="M1061.1145,-38.1396C1069.5074,-38.6247 1078.0931,-39.121 1086.5425,-39.6094"/>
<polygon fill="#191970" stroke="#191970" points="1086.574,-43.117 1096.7593,-40.2 1086.978,-36.1286 1086.574,-43.117"/>
</g>
<!-- Node12375 -->
<g id="node20" class="node">
<title>Node12375</title>
<g id="a_node20"><a xlink:href="../../d3/db3/_flags_8c.html#a96ba70d54b6662cf90933a207c0c6b8e" target="_top" xlink:title="omc_Flags_getConfigValue">
<polygon fill="#ffffff" stroke="#000000" points="1264,-56.5 1264,-75.5 1401,-75.5 1401,-56.5 1264,-56.5"/>
<text text-anchor="middle" x="1332.5" y="-63.5" font-family="Helvetica,sans-Serif" font-size="10.00" fill="#000000">omc_Flags_getConfigValue</text>
</a>
</g>
</g>
<!-- Node12374&#45;&gt;Node12375 -->
<g id="edge21" class="edge">
<title>Node12374&#45;&gt;Node12375</title>
<path fill="none" stroke="#191970" d="M1228.2264,-52.5058C1236.6209,-53.5921 1245.28,-54.7127 1253.8525,-55.8221"/>
<polygon fill="#191970" stroke="#191970" points="1253.4885,-59.3041 1263.855,-57.1165 1254.387,-52.362 1253.4885,-59.3041"/>
</g>
<!-- Node12375&#45;&gt;Node12368 -->
<g id="edge22" class="edge">
<title>Node12375&#45;&gt;Node12368</title>
<path fill="none" stroke="#191970" d="M1401.032,-74.1128C1409.5123,-75.1167 1418.1709,-76.1417 1426.6182,-77.1417"/>
<polygon fill="#191970" stroke="#191970" points="1426.4488,-80.646 1436.7909,-78.346 1427.2717,-73.6946 1426.4488,-80.646"/>
</g>
<!-- Node12376&#45;&gt;Node12361 -->
<g id="edge25" class="edge">
<title>Node12376&#45;&gt;Node12361</title>
<path fill="none" stroke="#191970" d="M1009.6839,-116.0504C1042.5756,-140.5766 1107.4387,-188.9428 1141.1,-214.0428"/>
<polygon fill="#191970" stroke="#191970" points="1139.2226,-217.0088 1149.3315,-220.1807 1143.4071,-211.3971 1139.2226,-217.0088"/>
</g>
<!-- Node12377 -->
<g id="node22" class="node">
<title>Node12377</title>
<g id="a_node22"><a xlink:href="../../d2/d57/build_2include_2omc_2c_2meta_2meta__modelica__builtin_8h.html#a6f570947bebe207c25a64ea25f5ca884" target="_top" xlink:title="stringDelimitList">
<polygon fill="#ffffff" stroke="#000000" points="1119,-91.5 1119,-110.5 1206,-110.5 1206,-91.5 1119,-91.5"/>
<text text-anchor="middle" x="1162.5" y="-98.5" font-family="Helvetica,sans-Serif" font-size="10.00" fill="#000000">stringDelimitList</text>
</a>
</g>
</g>
<!-- Node12376&#45;&gt;Node12377 -->
<g id="edge24" class="edge">
<title>Node12376&#45;&gt;Node12377</title>
<path fill="none" stroke="#191970" d="M1047.5878,-101C1067.3077,-101 1089.244,-101 1108.6213,-101"/>
<polygon fill="#191970" stroke="#191970" points="1108.7933,-104.5001 1118.7933,-101 1108.7932,-97.5001 1108.7933,-104.5001"/>
</g>
<!-- Node12380 -->
<g id="node25" class="node">
<title>Node12380</title>
<g id="a_node25"><a xlink:href="../../dc/d4a/_print_8c.html#a136f27763cbad8fdab9e975d877aff4b" target="_top" xlink:title="omc_Print_printErrorBuf">
<polygon fill="#ffffff" stroke="#000000" points="749,-182.5 749,-201.5 870,-201.5 870,-182.5 749,-182.5"/>
<text text-anchor="middle" x="809.5" y="-189.5" font-family="Helvetica,sans-Serif" font-size="10.00" fill="#000000">omc_Print_printErrorBuf</text>
</a>
</g>
</g>
<!-- Node12379&#45;&gt;Node12380 -->
<g id="edge31" class="edge">
<title>Node12379&#45;&gt;Node12380</title>
<path fill="none" stroke="#191970" d="M685.0012,-192C701.825,-192 720.7762,-192 738.7231,-192"/>
<polygon fill="#191970" stroke="#191970" points="738.8591,-195.5001 748.8591,-192 738.859,-188.5001 738.8591,-195.5001"/>
</g>
<!-- Node12381 -->
<g id="node26" class="node">
<title>Node12381</title>
<g id="a_node26"><a xlink:href="../../db/def/_print_8h.html#ac4ef051f731ad4fd851c45be8d215b4c" target="_top" xlink:title="Print_printErrorBuf">
<polygon fill="#ffffff" stroke="#000000" points="941,-182.5 941,-201.5 1038,-201.5 1038,-182.5 941,-182.5"/>
<text text-anchor="middle" x="989.5" y="-189.5" font-family="Helvetica,sans-Serif" font-size="10.00" fill="#000000">Print_printErrorBuf</text>
</a>
</g>
</g>
<!-- Node12380&#45;&gt;Node12381 -->
<g id="edge32" class="edge">
<title>Node12380&#45;&gt;Node12381</title>
<path fill="none" stroke="#191970" d="M870.1888,-192C889.741,-192 911.3649,-192 930.7731,-192"/>
<polygon fill="#191970" stroke="#191970" points="930.9979,-195.5001 940.9978,-192 930.9978,-188.5001 930.9979,-195.5001"/>
</g>
<!-- Node12384 -->
<g id="node29" class="node">
<title>Node12384</title>
<g id="a_node29"><a xlink:href="../../d2/d57/build_2include_2omc_2c_2meta_2meta__modelica__builtin_8h.html#a81001ba45c298ade27540edd2589777c" target="_top" xlink:title="listReverse">
<polygon fill="#ffffff" stroke="#000000" points="600,-390.5 600,-409.5 666,-409.5 666,-390.5 600,-390.5"/>
<text text-anchor="middle" x="633" y="-397.5" font-family="Helvetica,sans-Serif" font-size="10.00" fill="#000000">listReverse</text>
</a>
</g>
</g>
<!-- Node12383&#45;&gt;Node12384 -->
<g id="edge36" class="edge">
<title>Node12383&#45;&gt;Node12384</title>
<path fill="none" stroke="#191970" d="M504.4029,-371.589C530.5841,-377.3732 563.8118,-384.7142 589.9325,-390.4851"/>
<polygon fill="#191970" stroke="#191970" points="589.4061,-393.9531 599.9258,-392.6929 590.9163,-387.118 589.4061,-393.9531"/>
</g>
<!-- Node12385 -->
<g id="node30" class="node">
<title>Node12385</title>
<g id="a_node30"><a xlink:href="../../da/d72/_compiler_2boot_2build_2list_8c.html#acf077193c66bc454a37a8ef4d9d97792" target="_top" xlink:title="omc_List_mapFlatReverse">
<polygon fill="#ffffff" stroke="#000000" points="566,-352.5 566,-371.5 700,-371.5 700,-352.5 566,-352.5"/>
<text text-anchor="middle" x="633" y="-359.5" font-family="Helvetica,sans-Serif" font-size="10.00" fill="#000000">omc_List_mapFlatReverse</text>
</a>
</g>
</g>
<!-- Node12383&#45;&gt;Node12385 -->
<g id="edge37" class="edge">
<title>Node12383&#45;&gt;Node12385</title>
<path fill="none" stroke="#191970" d="M509.8282,-362C524.0858,-362 540.0312,-362 555.5971,-362"/>
<polygon fill="#191970" stroke="#191970" points="555.7498,-365.5001 565.7498,-362 555.7497,-358.5001 555.7498,-365.5001"/>
</g>
<!-- Node12385&#45;&gt;Node12364 -->
<g id="edge38" class="edge">
<title>Node12385&#45;&gt;Node12364</title>
<path fill="none" stroke="#191970" d="M675.2658,-371.5114C694.0615,-375.2766 716.5269,-379.1452 737,-381 811.2282,-387.7248 898.1566,-381.5579 948.2262,-376.65"/>
<polygon fill="#191970" stroke="#191970" points="948.7366,-380.1163 958.3332,-375.6269 948.0316,-373.1519 948.7366,-380.1163"/>
</g>
<!-- Node12386&#45;&gt;Node12364 -->
<g id="edge41" class="edge">
<title>Node12386&#45;&gt;Node12364</title>
<path fill="none" stroke="#191970" d="M503.2658,-409.5114C522.0615,-413.2766 544.5269,-417.1452 565,-419 705.6831,-431.7454 742.85,-420.3195 882,-396 903.9762,-392.1592 928.248,-386.8347 948.1591,-382.1765"/>
<polygon fill="#191970" stroke="#191970" points="949.2146,-385.5234 958.1386,-379.8127 947.6011,-378.7119 949.2146,-385.5234"/>
</g>
<!-- Node12386&#45;&gt;Node12384 -->
<g id="edge40" class="edge">
<title>Node12386&#45;&gt;Node12384</title>
<path fill="none" stroke="#191970" d="M505.742,-400C531.6371,-400 564.0726,-400 589.7162,-400"/>
<polygon fill="#191970" stroke="#191970" points="589.894,-403.5001 599.894,-400 589.8939,-396.5001 589.894,-403.5001"/>
</g>
</g>
</svg>
