<?xml version="1.0" encoding="UTF-8" standalone="no"?>
<!DOCTYPE svg PUBLIC "-//W3C//DTD SVG 1.1//EN"
 "http://www.w3.org/Graphics/SVG/1.1/DTD/svg11.dtd">
<!-- Generated by graphviz version 2.40.1 (20161225.0304)
 -->
<!-- Title: omc_Static_mergeQualWithRest Pages: 1 -->
<svg width="672pt" height="46pt"
 viewBox="0.00 0.00 672.00 46.00" xmlns="http://www.w3.org/2000/svg" xmlns:xlink="http://www.w3.org/1999/xlink">
<g id="graph0" class="graph" transform="scale(1 1) rotate(0) translate(4 42)">
<title>omc_Static_mergeQualWithRest</title>
<polygon fill="#ffffff" stroke="transparent" points="-4,4 -4,-42 668,-42 668,4 -4,4"/>
<!-- Node20276 -->
<g id="node1" class="node">
<title>Node20276</title>
<polygon fill="#bfbfbf" stroke="#000000" points="0,-.5 0,-19.5 160,-19.5 160,-.5 0,-.5"/>
<text text-anchor="middle" x="80" y="-7.5" font-family="Helvetica,sans-Serif" font-size="10.00" fill="#000000">omc_Static_mergeQualWithRest</text>
</g>
<!-- Node20277 -->
<g id="node2" class="node">
<title>Node20277</title>
<g id="a_node2"><a xlink:href="../../d0/d86/_static_8c.html#a2e045aff6165cac98027e27066707eaf" target="_top" xlink:title="omc_Static_elabCrefSlice">
<polygon fill="#ffffff" stroke="#000000" points="196,-.5 196,-19.5 326,-19.5 326,-.5 196,-.5"/>
<text text-anchor="middle" x="261" y="-7.5" font-family="Helvetica,sans-Serif" font-size="10.00" fill="#000000">omc_Static_elabCrefSlice</text>
</a>
</g>
</g>
<!-- Node20276&#45;&gt;Node20277 -->
<g id="edge1" class="edge">
<title>Node20276&#45;&gt;Node20277</title>
<path fill="none" stroke="#191970" d="M170.2711,-10C178.8846,-10 187.5008,-10 195.8077,-10"/>
<polygon fill="#191970" stroke="#191970" points="170.1797,-6.5001 160.1797,-10 170.1796,-13.5001 170.1797,-6.5001"/>
</g>
<!-- Node20278 -->
<g id="node3" class="node">
<title>Node20278</title>
<g id="a_node3"><a xlink:href="../../d5/d33/_static_8h.html#a6870a1b266913bc1505e11e293615fc4" target="_top" xlink:title="omc_Static_crefVectorize">
<polygon fill="#ffffff" stroke="#000000" points="362,-.5 362,-19.5 491,-19.5 491,-.5 362,-.5"/>
<text text-anchor="middle" x="426.5" y="-7.5" font-family="Helvetica,sans-Serif" font-size="10.00" fill="#000000">omc_Static_crefVectorize</text>
</a>
</g>
</g>
<!-- Node20277&#45;&gt;Node20278 -->
<g id="edge2" class="edge">
<title>Node20277&#45;&gt;Node20278</title>
<path fill="none" stroke="#191970" d="M336.6141,-10C345.0395,-10 353.5643,-10 361.8357,-10"/>
<polygon fill="#191970" stroke="#191970" points="336.41,-6.5001 326.41,-10 336.4099,-13.5001 336.41,-6.5001"/>
</g>
<!-- Node20278&#45;&gt;Node20278 -->
<g id="edge3" class="edge">
<title>Node20278&#45;&gt;Node20278</title>
<path fill="none" stroke="#191970" d="M395.8114,-28.2746C396.6864,-33.741 406.9159,-38 426.5,-38 455.6484,-38 464.0742,-28.5653 451.7772,-19.7571"/>
<polygon fill="#191970" stroke="#191970" points="398.8144,-30.0745 401.2228,-19.7571 392.906,-26.3207 398.8144,-30.0745"/>
</g>
<!-- Node20279 -->
<g id="node4" class="node">
<title>Node20279</title>
<g id="a_node4"><a xlink:href="../../d5/d33/_static_8h.html#ab456f326df1f92297db7b9ce6fc38250" target="_top" xlink:title="boxptr_Static_crefVectorize">
<polygon fill="#ffffff" stroke="#000000" points="527,-.5 527,-19.5 664,-19.5 664,-.5 527,-.5"/>
<text text-anchor="middle" x="595.5" y="-7.5" font-family="Helvetica,sans-Serif" font-size="10.00" fill="#000000">boxptr_Static_crefVectorize</text>
</a>
</g>
</g>
<!-- Node20278&#45;&gt;Node20279 -->
<g id="edge4" class="edge">
<title>Node20278&#45;&gt;Node20279</title>
<path fill="none" stroke="#191970" d="M501.5555,-10C509.9874,-10 518.5463,-10 526.8907,-10"/>
<polygon fill="#191970" stroke="#191970" points="501.3565,-6.5001 491.3565,-10 501.3564,-13.5001 501.3565,-6.5001"/>
</g>
</g>
</svg>
