<?xml version="1.0" encoding="UTF-8" standalone="no"?>
<!DOCTYPE svg PUBLIC "-//W3C//DTD SVG 1.1//EN"
 "http://www.w3.org/Graphics/SVG/1.1/DTD/svg11.dtd">
<!-- Generated by graphviz version 2.40.1 (20161225.0304)
 -->
<!-- Title: boxptr_Static_elabBuiltinClassDirectory Pages: 1 -->
<svg width="1549pt" height="284pt"
 viewBox="0.00 0.00 1549.00 284.00" xmlns="http://www.w3.org/2000/svg" xmlns:xlink="http://www.w3.org/1999/xlink">
<g id="graph0" class="graph" transform="scale(1 1) rotate(0) translate(4 280)">
<title>boxptr_Static_elabBuiltinClassDirectory</title>
<polygon fill="#ffffff" stroke="transparent" points="-4,4 -4,-280 1545,-280 1545,4 -4,4"/>
<!-- Node1036 -->
<g id="node1" class="node">
<title>Node1036</title>
<polygon fill="#bfbfbf" stroke="#000000" points="0,-213 0,-243 125,-243 125,-213 0,-213"/>
<text text-anchor="start" x="8" y="-231" font-family="Helvetica,sans-Serif" font-size="10.00" fill="#000000">boxptr_Static_elabBuiltin</text>
<text text-anchor="middle" x="62.5" y="-220" font-family="Helvetica,sans-Serif" font-size="10.00" fill="#000000">ClassDirectory</text>
</g>
<!-- Node1037 -->
<g id="node2" class="node">
<title>Node1037</title>
<g id="a_node2"><a xlink:href="../../d0/d86/_static_8c.html#a033ee3235ef3f65f8507be95a5ccc777" target="_top" xlink:title="omc_Static_elabBuiltinClass\lDirectory">
<polygon fill="#ffffff" stroke="#000000" points="161,-213 161,-243 303,-243 303,-213 161,-213"/>
<text text-anchor="start" x="169" y="-231" font-family="Helvetica,sans-Serif" font-size="10.00" fill="#000000">omc_Static_elabBuiltinClass</text>
<text text-anchor="middle" x="232" y="-220" font-family="Helvetica,sans-Serif" font-size="10.00" fill="#000000">Directory</text>
</a>
</g>
</g>
<!-- Node1036&#45;&gt;Node1037 -->
<g id="edge1" class="edge">
<title>Node1036&#45;&gt;Node1037</title>
<path fill="none" stroke="#191970" d="M125.134,-228C133.4711,-228 142.1153,-228 150.7119,-228"/>
<polygon fill="#191970" stroke="#191970" points="150.7605,-231.5001 160.7605,-228 150.7604,-224.5001 150.7605,-231.5001"/>
</g>
<!-- Node1038 -->
<g id="node3" class="node">
<title>Node1038</title>
<g id="a_node3"><a xlink:href="../../d7/deb/build_2include_2omc_2c_2util_2modelica__string_8c.html#a751007abc59e9ca7978f2af10a0c814f" target="_top" xlink:title="stringAppend">
<polygon fill="#ffffff" stroke="#000000" points="378.5,-256.5 378.5,-275.5 452.5,-275.5 452.5,-256.5 378.5,-256.5"/>
<text text-anchor="middle" x="415.5" y="-263.5" font-family="Helvetica,sans-Serif" font-size="10.00" fill="#000000">stringAppend</text>
</a>
</g>
</g>
<!-- Node1037&#45;&gt;Node1038 -->
<g id="edge2" class="edge">
<title>Node1037&#45;&gt;Node1038</title>
<path fill="none" stroke="#191970" d="M303.2085,-242.7462C325.0848,-247.2764 348.6034,-252.1467 368.4362,-256.2538"/>
<polygon fill="#191970" stroke="#191970" points="367.9413,-259.7255 378.4433,-258.3261 369.3608,-252.8709 367.9413,-259.7255"/>
</g>
<!-- Node1039 -->
<g id="node4" class="node">
<title>Node1039</title>
<g id="a_node4"><a xlink:href="../../d1/d95/_system_8c.html#ab58ac4912b5b566fe02783df8c530039" target="_top" xlink:title="omc_System_dirname">
<polygon fill="#ffffff" stroke="#000000" points="358.5,-218.5 358.5,-237.5 472.5,-237.5 472.5,-218.5 358.5,-218.5"/>
<text text-anchor="middle" x="415.5" y="-225.5" font-family="Helvetica,sans-Serif" font-size="10.00" fill="#000000">omc_System_dirname</text>
</a>
</g>
</g>
<!-- Node1037&#45;&gt;Node1039 -->
<g id="edge3" class="edge">
<title>Node1037&#45;&gt;Node1039</title>
<path fill="none" stroke="#191970" d="M303.2085,-228C317.8816,-228 333.2936,-228 347.8366,-228"/>
<polygon fill="#191970" stroke="#191970" points="348.2497,-231.5001 358.2497,-228 348.2497,-224.5001 348.2497,-231.5001"/>
</g>
<!-- Node1041 -->
<g id="node6" class="node">
<title>Node1041</title>
<g id="a_node6"><a xlink:href="../../db/da1/_compiler_2boot_2build_2error_8c.html#a991bd0d249f0698967bd89d565719016" target="_top" xlink:title="omc_Error_addSourceMessage">
<polygon fill="#ffffff" stroke="#000000" points="339,-171.5 339,-190.5 492,-190.5 492,-171.5 339,-171.5"/>
<text text-anchor="middle" x="415.5" y="-178.5" font-family="Helvetica,sans-Serif" font-size="10.00" fill="#000000">omc_Error_addSourceMessage</text>
</a>
</g>
</g>
<!-- Node1037&#45;&gt;Node1041 -->
<g id="edge5" class="edge">
<title>Node1037&#45;&gt;Node1041</title>
<path fill="none" stroke="#191970" d="M290.5651,-212.9997C315.7119,-206.5588 344.7025,-199.1334 368.4232,-193.0578"/>
<polygon fill="#191970" stroke="#191970" points="369.4211,-196.4153 378.2399,-190.5434 367.6842,-189.6342 369.4211,-196.4153"/>
</g>
<!-- Node1040 -->
<g id="node5" class="node">
<title>Node1040</title>
<g id="a_node5"><a xlink:href="../../d8/d28/_compiler_2boot_2build_2system_8h.html#af75866f20c347cb198beefd1db21c610" target="_top" xlink:title="System_dirname">
<polygon fill="#ffffff" stroke="#000000" points="567,-228.5 567,-247.5 657,-247.5 657,-228.5 567,-228.5"/>
<text text-anchor="middle" x="612" y="-235.5" font-family="Helvetica,sans-Serif" font-size="10.00" fill="#000000">System_dirname</text>
</a>
</g>
</g>
<!-- Node1039&#45;&gt;Node1040 -->
<g id="edge4" class="edge">
<title>Node1039&#45;&gt;Node1040</title>
<path fill="none" stroke="#191970" d="M472.5999,-230.9058C499.1093,-232.2549 530.4971,-233.8523 556.7705,-235.1893"/>
<polygon fill="#191970" stroke="#191970" points="556.7746,-238.694 566.9396,-235.7069 557.1305,-231.703 556.7746,-238.694"/>
</g>
<!-- Node1042 -->
<g id="node7" class="node">
<title>Node1042</title>
<g id="a_node7"><a xlink:href="../../d9/d7c/_compiler_2boot_2build_2util_8c.html#af677b04abc76ada92619360b1a4e1238" target="_top" xlink:title="omc_Util_translateContent">
<polygon fill="#ffffff" stroke="#000000" points="545.5,-190.5 545.5,-209.5 678.5,-209.5 678.5,-190.5 545.5,-190.5"/>
<text text-anchor="middle" x="612" y="-197.5" font-family="Helvetica,sans-Serif" font-size="10.00" fill="#000000">omc_Util_translateContent</text>
</a>
</g>
</g>
<!-- Node1041&#45;&gt;Node1042 -->
<g id="edge6" class="edge">
<title>Node1041&#45;&gt;Node1042</title>
<path fill="none" stroke="#191970" d="M492.0347,-188.4003C506.1691,-189.767 520.9348,-191.1947 535.0805,-192.5625"/>
<polygon fill="#191970" stroke="#191970" points="534.963,-196.0674 545.2534,-193.5461 535.6367,-189.0999 534.963,-196.0674"/>
</g>
<!-- Node1045 -->
<g id="node10" class="node">
<title>Node1045</title>
<g id="a_node10"><a xlink:href="../../d4/dce/_error_ext_8c.html#a2aab7fef8718e5c7b0e410daf818bf99" target="_top" xlink:title="omc_ErrorExt_addSourceMessage">
<polygon fill="#ffffff" stroke="#000000" points="528,-152.5 528,-171.5 696,-171.5 696,-152.5 528,-152.5"/>
<text text-anchor="middle" x="612" y="-159.5" font-family="Helvetica,sans-Serif" font-size="10.00" fill="#000000">omc_ErrorExt_addSourceMessage</text>
</a>
</g>
</g>
<!-- Node1041&#45;&gt;Node1045 -->
<g id="edge9" class="edge">
<title>Node1041&#45;&gt;Node1045</title>
<path fill="none" stroke="#191970" d="M492.0347,-173.5997C500.4771,-172.7834 509.1448,-171.9453 517.771,-171.1112"/>
<polygon fill="#191970" stroke="#191970" points="518.2457,-174.5817 527.8624,-170.1354 517.572,-167.6142 518.2457,-174.5817"/>
</g>
<!-- Node1049 -->
<g id="node14" class="node">
<title>Node1049</title>
<g id="a_node14"><a xlink:href="../../d9/d7c/_compiler_2boot_2build_2util_8c.html#ad7f719bd6355b185d211a8c8ff0cc7be" target="_top" xlink:title="omc_Util_testsuiteFriendly">
<polygon fill="#ffffff" stroke="#000000" points="545.5,-57.5 545.5,-76.5 678.5,-76.5 678.5,-57.5 545.5,-57.5"/>
<text text-anchor="middle" x="612" y="-64.5" font-family="Helvetica,sans-Serif" font-size="10.00" fill="#000000">omc_Util_testsuiteFriendly</text>
</a>
</g>
</g>
<!-- Node1041&#45;&gt;Node1049 -->
<g id="edge13" class="edge">
<title>Node1041&#45;&gt;Node1049</title>
<path fill="none" stroke="#191970" d="M431.9155,-171.4765C466.2307,-151.5685 545.7551,-105.4322 586.6734,-81.6933"/>
<polygon fill="#191970" stroke="#191970" points="588.5997,-84.6222 595.493,-76.5766 585.0869,-78.5674 588.5997,-84.6222"/>
</g>
<!-- Node1043 -->
<g id="node8" class="node">
<title>Node1043</title>
<g id="a_node8"><a xlink:href="../../d1/d95/_system_8c.html#ae39e41c84235850a135a73187a387d21" target="_top" xlink:title="omc_System_gettext">
<polygon fill="#ffffff" stroke="#000000" points="771.5,-190.5 771.5,-209.5 881.5,-209.5 881.5,-190.5 771.5,-190.5"/>
<text text-anchor="middle" x="826.5" y="-197.5" font-family="Helvetica,sans-Serif" font-size="10.00" fill="#000000">omc_System_gettext</text>
</a>
</g>
</g>
<!-- Node1042&#45;&gt;Node1043 -->
<g id="edge7" class="edge">
<title>Node1042&#45;&gt;Node1043</title>
<path fill="none" stroke="#191970" d="M678.6933,-200C704.9674,-200 735.0497,-200 761.1875,-200"/>
<polygon fill="#191970" stroke="#191970" points="761.3698,-203.5001 771.3698,-200 761.3697,-196.5001 761.3698,-203.5001"/>
</g>
<!-- Node1044 -->
<g id="node9" class="node">
<title>Node1044</title>
<g id="a_node9"><a xlink:href="../../d8/d28/_compiler_2boot_2build_2system_8h.html#a082d216ff61d9f3b30e1fe92e3fc5860" target="_top" xlink:title="SystemImpl__gettext">
<polygon fill="#ffffff" stroke="#000000" points="970.5,-190.5 970.5,-209.5 1080.5,-209.5 1080.5,-190.5 970.5,-190.5"/>
<text text-anchor="middle" x="1025.5" y="-197.5" font-family="Helvetica,sans-Serif" font-size="10.00" fill="#000000">SystemImpl__gettext</text>
</a>
</g>
</g>
<!-- Node1043&#45;&gt;Node1044 -->
<g id="edge8" class="edge">
<title>Node1043&#45;&gt;Node1044</title>
<path fill="none" stroke="#191970" d="M881.6683,-200C905.9315,-200 934.6155,-200 959.9594,-200"/>
<polygon fill="#191970" stroke="#191970" points="960.2244,-203.5001 970.2244,-200 960.2243,-196.5001 960.2244,-203.5001"/>
</g>
<!-- Node1046 -->
<g id="node11" class="node">
<title>Node1046</title>
<g id="a_node11"><a xlink:href="../../d1/d40/boot_2build_2_error_ext_8h.html#afef4410ffb05473c1ca2f30078ee39a8" target="_top" xlink:title="Error_addSourceMessage">
<polygon fill="#ffffff" stroke="#000000" points="762,-152.5 762,-171.5 891,-171.5 891,-152.5 762,-152.5"/>
<text text-anchor="middle" x="826.5" y="-159.5" font-family="Helvetica,sans-Serif" font-size="10.00" fill="#000000">Error_addSourceMessage</text>
</a>
</g>
</g>
<!-- Node1045&#45;&gt;Node1046 -->
<g id="edge10" class="edge">
<title>Node1045&#45;&gt;Node1046</title>
<path fill="none" stroke="#191970" d="M696.1604,-162C714.4949,-162 733.7744,-162 751.7157,-162"/>
<polygon fill="#191970" stroke="#191970" points="751.818,-165.5001 761.8179,-162 751.8179,-158.5001 751.818,-165.5001"/>
</g>
<!-- Node1047 -->
<g id="node12" class="node">
<title>Node1047</title>
<g id="a_node12"><a xlink:href="../../dc/d1d/errorext_8cpp.html#a658c4e234277aba60ad929952c45d9e2" target="_top" xlink:title="add_source_message">
<polygon fill="#ffffff" stroke="#000000" points="969.5,-152.5 969.5,-171.5 1081.5,-171.5 1081.5,-152.5 969.5,-152.5"/>
<text text-anchor="middle" x="1025.5" y="-159.5" font-family="Helvetica,sans-Serif" font-size="10.00" fill="#000000">add_source_message</text>
</a>
</g>
</g>
<!-- Node1046&#45;&gt;Node1047 -->
<g id="edge11" class="edge">
<title>Node1046&#45;&gt;Node1047</title>
<path fill="none" stroke="#191970" d="M891.1096,-162C912.8597,-162 937.1566,-162 959.0463,-162"/>
<polygon fill="#191970" stroke="#191970" points="959.2456,-165.5001 969.2456,-162 959.2455,-158.5001 959.2456,-165.5001"/>
</g>
<!-- Node1048 -->
<g id="node13" class="node">
<title>Node1048</title>
<g id="a_node13"><a xlink:href="../../d4/dbe/_o_m_c_monitor_8c.html#ad78b5494db8b59027d08860c5efce10f" target="_top" xlink:title="ErrorMessage">
<polygon fill="#ffffff" stroke="#000000" points="1160,-152.5 1160,-171.5 1237,-171.5 1237,-152.5 1160,-152.5"/>
<text text-anchor="middle" x="1198.5" y="-159.5" font-family="Helvetica,sans-Serif" font-size="10.00" fill="#000000">ErrorMessage</text>
</a>
</g>
</g>
<!-- Node1047&#45;&gt;Node1048 -->
<g id="edge12" class="edge">
<title>Node1047&#45;&gt;Node1048</title>
<path fill="none" stroke="#191970" d="M1081.6681,-162C1103.6281,-162 1128.5744,-162 1149.7606,-162"/>
<polygon fill="#191970" stroke="#191970" points="1149.8294,-165.5001 1159.8294,-162 1149.8294,-158.5001 1149.8294,-165.5001"/>
</g>
<!-- Node1050 -->
<g id="node15" class="node">
<title>Node1050</title>
<g id="a_node15"><a xlink:href="../../d9/d7c/_compiler_2boot_2build_2util_8c.html#ab96745984cab835c8ae43a8f02fb268b" target="_top" xlink:title="omc_Util_testsuiteFriendly2">
<polygon fill="#ffffff" stroke="#000000" points="757.5,-76.5 757.5,-95.5 895.5,-95.5 895.5,-76.5 757.5,-76.5"/>
<text text-anchor="middle" x="826.5" y="-83.5" font-family="Helvetica,sans-Serif" font-size="10.00" fill="#000000">omc_Util_testsuiteFriendly2</text>
</a>
</g>
</g>
<!-- Node1049&#45;&gt;Node1050 -->
<g id="edge14" class="edge">
<title>Node1049&#45;&gt;Node1050</title>
<path fill="none" stroke="#191970" d="M678.6933,-72.9076C700.343,-74.8253 724.5785,-76.972 747.0622,-78.9635"/>
<polygon fill="#191970" stroke="#191970" points="746.9838,-82.4702 757.2537,-79.8663 747.6015,-75.4975 746.9838,-82.4702"/>
</g>
<!-- Node1058 -->
<g id="node23" class="node">
<title>Node1058</title>
<g id="a_node23"><a xlink:href="../../d1/d5c/_config_8c.html#afa2f208e09cd9979df49295043109099" target="_top" xlink:title="omc_Config_getRunningTestsuite">
<polygon fill="#ffffff" stroke="#000000" points="744.5,-38.5 744.5,-57.5 908.5,-57.5 908.5,-38.5 744.5,-38.5"/>
<text text-anchor="middle" x="826.5" y="-45.5" font-family="Helvetica,sans-Serif" font-size="10.00" fill="#000000">omc_Config_getRunningTestsuite</text>
</a>
</g>
</g>
<!-- Node1049&#45;&gt;Node1058 -->
<g id="edge22" class="edge">
<title>Node1049&#45;&gt;Node1058</title>
<path fill="none" stroke="#191970" d="M678.6933,-61.0924C696.311,-59.5319 715.641,-57.8197 734.3459,-56.1628"/>
<polygon fill="#191970" stroke="#191970" points="734.7048,-59.6448 744.3569,-55.2761 734.0871,-52.6721 734.7048,-59.6448"/>
</g>
<!-- Node1063 -->
<g id="node28" class="node">
<title>Node1063</title>
<g id="a_node28"><a xlink:href="../../d1/d5c/_config_8c.html#a9b4cae615bdffda9b7abbe6e04b1e6a5" target="_top" xlink:title="omc_Config_getRunningWSMTestsuite">
<polygon fill="#ffffff" stroke="#000000" points="732,-.5 732,-19.5 921,-19.5 921,-.5 732,-.5"/>
<text text-anchor="middle" x="826.5" y="-7.5" font-family="Helvetica,sans-Serif" font-size="10.00" fill="#000000">omc_Config_getRunningWSMTestsuite</text>
</a>
</g>
</g>
<!-- Node1049&#45;&gt;Node1063 -->
<g id="edge27" class="edge">
<title>Node1049&#45;&gt;Node1063</title>
<path fill="none" stroke="#191970" d="M639.3984,-57.3905C663.563,-49.14 699.8372,-37.2998 732,-29 742.1919,-26.3699 753.0802,-23.8853 763.7076,-21.6334"/>
<polygon fill="#191970" stroke="#191970" points="764.7018,-25.0019 773.7854,-19.5485 763.2837,-18.147 764.7018,-25.0019"/>
</g>
<!-- Node1051 -->
<g id="node16" class="node">
<title>Node1051</title>
<g id="a_node16"><a xlink:href="../../d1/d95/_system_8c.html#acb158f48d2d963dbc65eb161259659a7" target="_top" xlink:title="omc_System_basename">
<polygon fill="#ffffff" stroke="#000000" points="963,-114.5 963,-133.5 1088,-133.5 1088,-114.5 963,-114.5"/>
<text text-anchor="middle" x="1025.5" y="-121.5" font-family="Helvetica,sans-Serif" font-size="10.00" fill="#000000">omc_System_basename</text>
</a>
</g>
</g>
<!-- Node1050&#45;&gt;Node1051 -->
<g id="edge15" class="edge">
<title>Node1050&#45;&gt;Node1051</title>
<path fill="none" stroke="#191970" d="M876.4592,-95.54C903.5454,-100.7122 937.2075,-107.1401 965.6835,-112.5778"/>
<polygon fill="#191970" stroke="#191970" points="965.0412,-116.0183 975.5202,-114.4561 966.3542,-109.1425 965.0412,-116.0183"/>
</g>
<!-- Node1056 -->
<g id="node21" class="node">
<title>Node1056</title>
<g id="a_node21"><a xlink:href="../../d1/d95/_system_8c.html#ab4261551580fc07778c15d3b0cb0cdfd" target="_top" xlink:title="omc_System_os">
<polygon fill="#ffffff" stroke="#000000" points="980.5,-76.5 980.5,-95.5 1070.5,-95.5 1070.5,-76.5 980.5,-76.5"/>
<text text-anchor="middle" x="1025.5" y="-83.5" font-family="Helvetica,sans-Serif" font-size="10.00" fill="#000000">omc_System_os</text>
</a>
</g>
</g>
<!-- Node1050&#45;&gt;Node1056 -->
<g id="edge20" class="edge">
<title>Node1050&#45;&gt;Node1056</title>
<path fill="none" stroke="#191970" d="M895.5421,-86C919.8792,-86 946.9068,-86 969.9829,-86"/>
<polygon fill="#191970" stroke="#191970" points="970.2836,-89.5001 980.2836,-86 970.2835,-82.5001 970.2836,-89.5001"/>
</g>
<!-- Node1052 -->
<g id="node17" class="node">
<title>Node1052</title>
<g id="a_node17"><a xlink:href="../../d8/d28/_compiler_2boot_2build_2system_8h.html#a7b722b53b1ba7f3ffdc3624727daa000" target="_top" xlink:title="System_basename">
<polygon fill="#ffffff" stroke="#000000" points="1148,-114.5 1148,-133.5 1249,-133.5 1249,-114.5 1148,-114.5"/>
<text text-anchor="middle" x="1198.5" y="-121.5" font-family="Helvetica,sans-Serif" font-size="10.00" fill="#000000">System_basename</text>
</a>
</g>
</g>
<!-- Node1051&#45;&gt;Node1052 -->
<g id="edge16" class="edge">
<title>Node1051&#45;&gt;Node1052</title>
<path fill="none" stroke="#191970" d="M1088.4464,-124C1104.4551,-124 1121.6291,-124 1137.5371,-124"/>
<polygon fill="#191970" stroke="#191970" points="1137.7833,-127.5001 1147.7833,-124 1137.7832,-120.5001 1137.7833,-127.5001"/>
</g>
<!-- Node1053 -->
<g id="node18" class="node">
<title>Node1053</title>
<g id="a_node18"><a xlink:href="../../d4/d45/systemimpl_8c.html#af0ce445d63d4d737a2ed25d05b45463c" target="_top" xlink:title="SystemImpl__basename">
<polygon fill="#ffffff" stroke="#000000" points="1303,-152.5 1303,-171.5 1428,-171.5 1428,-152.5 1303,-152.5"/>
<text text-anchor="middle" x="1365.5" y="-159.5" font-family="Helvetica,sans-Serif" font-size="10.00" fill="#000000">SystemImpl__basename</text>
</a>
</g>
</g>
<!-- Node1052&#45;&gt;Node1053 -->
<g id="edge17" class="edge">
<title>Node1052&#45;&gt;Node1053</title>
<path fill="none" stroke="#191970" d="M1240.6412,-133.589C1262.8771,-138.6487 1290.3482,-144.8996 1313.8564,-150.2488"/>
<polygon fill="#191970" stroke="#191970" points="1313.1345,-153.6739 1323.6619,-152.4799 1314.6877,-146.8484 1313.1345,-153.6739"/>
</g>
<!-- Node1054 -->
<g id="node19" class="node">
<title>Node1054</title>
<g id="a_node19"><a xlink:href="../../d7/dcd/group__core_utils.html#gaeccaa0b46edead0608a6982dddb917ec" target="_top" xlink:title="Allocate memory for a Modelica string which is used as return argument of an external Modelica functi...">
<polygon fill="#ffffff" stroke="#000000" points="1307.5,-114.5 1307.5,-133.5 1423.5,-133.5 1423.5,-114.5 1307.5,-114.5"/>
<text text-anchor="middle" x="1365.5" y="-121.5" font-family="Helvetica,sans-Serif" font-size="10.00" fill="#000000">ModelicaAllocateString</text>
</a>
</g>
</g>
<!-- Node1052&#45;&gt;Node1054 -->
<g id="edge18" class="edge">
<title>Node1052&#45;&gt;Node1054</title>
<path fill="none" stroke="#191970" d="M1249.0587,-124C1264.1001,-124 1280.8399,-124 1296.83,-124"/>
<polygon fill="#191970" stroke="#191970" points="1297.2042,-127.5001 1307.2042,-124 1297.2041,-120.5001 1297.2042,-127.5001"/>
</g>
<!-- Node1055 -->
<g id="node20" class="node">
<title>Node1055</title>
<g id="a_node20"><a xlink:href="../../d6/d84/3rd_party_2open62541_2open62541_8h.html#aa383452fe445bfae989358c9d7d96f4f" target="_top" xlink:title="strlen">
<polygon fill="#ffffff" stroke="#000000" points="1345,-76.5 1345,-95.5 1386,-95.5 1386,-76.5 1345,-76.5"/>
<text text-anchor="middle" x="1365.5" y="-83.5" font-family="Helvetica,sans-Serif" font-size="10.00" fill="#000000">strlen</text>
</a>
</g>
</g>
<!-- Node1052&#45;&gt;Node1055 -->
<g id="edge19" class="edge">
<title>Node1052&#45;&gt;Node1055</title>
<path fill="none" stroke="#191970" d="M1240.6412,-114.411C1269.9852,-107.7339 1308.4462,-98.9823 1334.8852,-92.9662"/>
<polygon fill="#191970" stroke="#191970" points="1335.7549,-96.3579 1344.7291,-90.7263 1334.2017,-89.5324 1335.7549,-96.3579"/>
</g>
<!-- Node1057 -->
<g id="node22" class="node">
<title>Node1057</title>
<g id="a_node22"><a xlink:href="../../d8/d28/_compiler_2boot_2build_2system_8h.html#a967ce96198372dc665f235bb728adb6f" target="_top" xlink:title="System_os">
<polygon fill="#ffffff" stroke="#000000" points="1165.5,-76.5 1165.5,-95.5 1231.5,-95.5 1231.5,-76.5 1165.5,-76.5"/>
<text text-anchor="middle" x="1198.5" y="-83.5" font-family="Helvetica,sans-Serif" font-size="10.00" fill="#000000">System_os</text>
</a>
</g>
</g>
<!-- Node1056&#45;&gt;Node1057 -->
<g id="edge21" class="edge">
<title>Node1056&#45;&gt;Node1057</title>
<path fill="none" stroke="#191970" d="M1070.5021,-86C1096.6358,-86 1129.3924,-86 1155.2258,-86"/>
<polygon fill="#191970" stroke="#191970" points="1155.4739,-89.5001 1165.4739,-86 1155.4738,-82.5001 1155.4739,-89.5001"/>
</g>
<!-- Node1059 -->
<g id="node24" class="node">
<title>Node1059</title>
<g id="a_node24"><a xlink:href="../../d3/db3/_flags_8c.html#a1bdc57ee7db1a86ebd954e1aa4d04c0c" target="_top" xlink:title="omc_Flags_getConfigString">
<polygon fill="#ffffff" stroke="#000000" points="957,-38.5 957,-57.5 1094,-57.5 1094,-38.5 957,-38.5"/>
<text text-anchor="middle" x="1025.5" y="-45.5" font-family="Helvetica,sans-Serif" font-size="10.00" fill="#000000">omc_Flags_getConfigString</text>
</a>
</g>
</g>
<!-- Node1058&#45;&gt;Node1059 -->
<g id="edge23" class="edge">
<title>Node1058&#45;&gt;Node1059</title>
<path fill="none" stroke="#191970" d="M908.5898,-48C921.1364,-48 934.0642,-48 946.5414,-48"/>
<polygon fill="#191970" stroke="#191970" points="946.898,-51.5001 956.898,-48 946.8979,-44.5001 946.898,-51.5001"/>
</g>
<!-- Node1060 -->
<g id="node25" class="node">
<title>Node1060</title>
<g id="a_node25"><a xlink:href="../../d3/db3/_flags_8c.html#a96ba70d54b6662cf90933a207c0c6b8e" target="_top" xlink:title="omc_Flags_getConfigValue">
<polygon fill="#ffffff" stroke="#000000" points="1130,-19.5 1130,-38.5 1267,-38.5 1267,-19.5 1130,-19.5"/>
<text text-anchor="middle" x="1198.5" y="-26.5" font-family="Helvetica,sans-Serif" font-size="10.00" fill="#000000">omc_Flags_getConfigValue</text>
</a>
</g>
</g>
<!-- Node1059&#45;&gt;Node1060 -->
<g id="edge24" class="edge">
<title>Node1059&#45;&gt;Node1060</title>
<path fill="none" stroke="#191970" d="M1094.3713,-40.4361C1102.7692,-39.5138 1111.3987,-38.566 1119.9246,-37.6297"/>
<polygon fill="#191970" stroke="#191970" points="1120.3076,-41.1087 1129.8657,-36.5379 1119.5433,-34.1506 1120.3076,-41.1087"/>
</g>
<!-- Node1061 -->
<g id="node26" class="node">
<title>Node1061</title>
<g id="a_node26"><a xlink:href="../../d3/db3/_flags_8c.html#a760d66f53b65ac257876ca0f6308f09f" target="_top" xlink:title="omc_Flags_loadFlags">
<polygon fill="#ffffff" stroke="#000000" points="1309.5,-19.5 1309.5,-38.5 1421.5,-38.5 1421.5,-19.5 1309.5,-19.5"/>
<text text-anchor="middle" x="1365.5" y="-26.5" font-family="Helvetica,sans-Serif" font-size="10.00" fill="#000000">omc_Flags_loadFlags</text>
</a>
</g>
</g>
<!-- Node1060&#45;&gt;Node1061 -->
<g id="edge25" class="edge">
<title>Node1060&#45;&gt;Node1061</title>
<path fill="none" stroke="#191970" d="M1267.3895,-29C1277.9016,-29 1288.7327,-29 1299.188,-29"/>
<polygon fill="#191970" stroke="#191970" points="1299.4923,-32.5001 1309.4922,-29 1299.4922,-25.5001 1299.4923,-32.5001"/>
</g>
<!-- Node1062 -->
<g id="node27" class="node">
<title>Node1062</title>
<g id="a_node27"><a xlink:href="../../da/d72/_compiler_2boot_2build_2list_8c.html#a3ec1ee3a5ff53be9af368e290be09182" target="_top" xlink:title="omc_List_fold">
<polygon fill="#ffffff" stroke="#000000" points="1464,-19.5 1464,-38.5 1541,-38.5 1541,-19.5 1464,-19.5"/>
<text text-anchor="middle" x="1502.5" y="-26.5" font-family="Helvetica,sans-Serif" font-size="10.00" fill="#000000">omc_List_fold</text>
</a>
</g>
</g>
<!-- Node1061&#45;&gt;Node1062 -->
<g id="edge26" class="edge">
<title>Node1061&#45;&gt;Node1062</title>
<path fill="none" stroke="#191970" d="M1421.6184,-29C1432.2594,-29 1443.3126,-29 1453.7046,-29"/>
<polygon fill="#191970" stroke="#191970" points="1453.8364,-32.5001 1463.8363,-29 1453.8363,-25.5001 1453.8364,-32.5001"/>
</g>
<!-- Node1064 -->
<g id="node29" class="node">
<title>Node1064</title>
<g id="a_node29"><a xlink:href="../../d3/db3/_flags_8c.html#abc3d84cf6e1cf18f0cec0f052e7c85d9" target="_top" xlink:title="omc_Flags_getConfigBool">
<polygon fill="#ffffff" stroke="#000000" points="960,-.5 960,-19.5 1091,-19.5 1091,-.5 960,-.5"/>
<text text-anchor="middle" x="1025.5" y="-7.5" font-family="Helvetica,sans-Serif" font-size="10.00" fill="#000000">omc_Flags_getConfigBool</text>
</a>
</g>
</g>
<!-- Node1063&#45;&gt;Node1064 -->
<g id="edge28" class="edge">
<title>Node1063&#45;&gt;Node1064</title>
<path fill="none" stroke="#191970" d="M921.0463,-10C930.6938,-10 940.4037,-10 949.8118,-10"/>
<polygon fill="#191970" stroke="#191970" points="949.885,-13.5001 959.8849,-10 949.8849,-6.5001 949.885,-13.5001"/>
</g>
<!-- Node1064&#45;&gt;Node1060 -->
<g id="edge29" class="edge">
<title>Node1064&#45;&gt;Node1060</title>
<path fill="none" stroke="#191970" d="M1091.3974,-17.2373C1100.6537,-18.2539 1110.2443,-19.3072 1119.7107,-20.3468"/>
<polygon fill="#191970" stroke="#191970" points="1119.5899,-23.8545 1129.9123,-21.4672 1120.3542,-16.8964 1119.5899,-23.8545"/>
</g>
</g>
</svg>
