<?xml version="1.0" encoding="UTF-8" standalone="no"?>
<!DOCTYPE svg PUBLIC "-//W3C//DTD SVG 1.1//EN"
 "http://www.w3.org/Graphics/SVG/1.1/DTD/svg11.dtd">
<!-- Generated by graphviz version 2.40.1 (20161225.0304)
 -->
<!-- Title: boxptr_Static_elabBuiltinTransition2 Pages: 1 -->
<svg width="506pt" height="66pt"
 viewBox="0.00 0.00 506.00 66.00" xmlns="http://www.w3.org/2000/svg" xmlns:xlink="http://www.w3.org/1999/xlink">
<g id="graph0" class="graph" transform="scale(1 1) rotate(0) translate(4 62)">
<title>boxptr_Static_elabBuiltinTransition2</title>
<polygon fill="#ffffff" stroke="transparent" points="-4,4 -4,-62 502,-62 502,4 -4,4"/>
<!-- Node3672 -->
<g id="node1" class="node">
<title>Node3672</title>
<polygon fill="#bfbfbf" stroke="#000000" points="0,-14 0,-44 125,-44 125,-14 0,-14"/>
<text text-anchor="start" x="8" y="-32" font-family="Helvetica,sans-Serif" font-size="10.00" fill="#000000">boxptr_Static_elabBuiltin</text>
<text text-anchor="middle" x="62.5" y="-21" font-family="Helvetica,sans-Serif" font-size="10.00" fill="#000000">Transition2</text>
</g>
<!-- Node3673 -->
<g id="node2" class="node">
<title>Node3673</title>
<g id="a_node2"><a xlink:href="../../d0/d86/_static_8c.html#a475f6f25cb1c5b663b9d2148313118bb" target="_top" xlink:title="omc_Static_elabBuiltinTransition2">
<polygon fill="#ffffff" stroke="#000000" points="161,-19.5 161,-38.5 325,-38.5 325,-19.5 161,-19.5"/>
<text text-anchor="middle" x="243" y="-26.5" font-family="Helvetica,sans-Serif" font-size="10.00" fill="#000000">omc_Static_elabBuiltinTransition2</text>
</a>
</g>
</g>
<!-- Node3672&#45;&gt;Node3673 -->
<g id="edge1" class="edge">
<title>Node3672&#45;&gt;Node3673</title>
<path fill="none" stroke="#191970" d="M125.1236,-29C133.3934,-29 142.0057,-29 150.6438,-29"/>
<polygon fill="#191970" stroke="#191970" points="150.777,-32.5001 160.777,-29 150.777,-25.5001 150.777,-32.5001"/>
</g>
<!-- Node3674 -->
<g id="node3" class="node">
<title>Node3674</title>
<g id="a_node3"><a xlink:href="../../da/d72/_compiler_2boot_2build_2list_8c.html#a46ff38d9ba124b9a152c68891c64cb54" target="_top" xlink:title="omc_List_isMemberOnTrue">
<polygon fill="#ffffff" stroke="#000000" points="361,-38.5 361,-57.5 498,-57.5 498,-38.5 361,-38.5"/>
<text text-anchor="middle" x="429.5" y="-45.5" font-family="Helvetica,sans-Serif" font-size="10.00" fill="#000000">omc_List_isMemberOnTrue</text>
</a>
</g>
</g>
<!-- Node3673&#45;&gt;Node3674 -->
<g id="edge2" class="edge">
<title>Node3673&#45;&gt;Node3674</title>
<path fill="none" stroke="#191970" d="M325.073,-37.3613C333.5492,-38.2249 342.1504,-39.1011 350.591,-39.961"/>
<polygon fill="#191970" stroke="#191970" points="350.4846,-43.4682 360.7878,-40.9998 351.1941,-36.5042 350.4846,-43.4682"/>
</g>
<!-- Node3675 -->
<g id="node4" class="node">
<title>Node3675</title>
<g id="a_node4"><a xlink:href="../../d7/deb/build_2include_2omc_2c_2util_2modelica__string_8c.html#a751007abc59e9ca7978f2af10a0c814f" target="_top" xlink:title="stringAppend">
<polygon fill="#ffffff" stroke="#000000" points="392.5,-.5 392.5,-19.5 466.5,-19.5 466.5,-.5 392.5,-.5"/>
<text text-anchor="middle" x="429.5" y="-7.5" font-family="Helvetica,sans-Serif" font-size="10.00" fill="#000000">stringAppend</text>
</a>
</g>
</g>
<!-- Node3673&#45;&gt;Node3675 -->
<g id="edge3" class="edge">
<title>Node3673&#45;&gt;Node3675</title>
<path fill="none" stroke="#191970" d="M325.073,-20.6387C344.4961,-18.6599 364.5754,-16.6143 381.8748,-14.8519"/>
<polygon fill="#191970" stroke="#191970" points="382.6624,-18.2899 392.2561,-13.7943 381.9528,-11.3259 382.6624,-18.2899"/>
</g>
</g>
</svg>
