<?xml version="1.0" encoding="UTF-8" standalone="no"?>
<!DOCTYPE svg PUBLIC "-//W3C//DTD SVG 1.1//EN"
 "http://www.w3.org/Graphics/SVG/1.1/DTD/svg11.dtd">
<!-- Generated by graphviz version 2.40.1 (20161225.0304)
 -->
<!-- Title: omc_Static_elabCref2 Pages: 1 -->
<svg width="311pt" height="104pt"
 viewBox="0.00 0.00 311.00 104.00" xmlns="http://www.w3.org/2000/svg" xmlns:xlink="http://www.w3.org/1999/xlink">
<g id="graph0" class="graph" transform="scale(1 1) rotate(0) translate(4 100)">
<title>omc_Static_elabCref2</title>
<polygon fill="#ffffff" stroke="transparent" points="-4,4 -4,-100 307,-100 307,4 -4,4"/>
<!-- Node14970 -->
<g id="node1" class="node">
<title>Node14970</title>
<polygon fill="#bfbfbf" stroke="#000000" points="0,-38.5 0,-57.5 113,-57.5 113,-38.5 0,-38.5"/>
<text text-anchor="middle" x="56.5" y="-45.5" font-family="Helvetica,sans-Serif" font-size="10.00" fill="#000000">omc_Static_elabCref2</text>
</g>
<!-- Node14971 -->
<g id="node2" class="node">
<title>Node14971</title>
<g id="a_node2"><a xlink:href="../../d0/d29/_d_a_e_util_8c.html#aadeec36d7dcda33688284485370c314f" target="_top" xlink:title="omc_DAEUtil_getAttrVariability">
<polygon fill="#ffffff" stroke="#000000" points="149,-76.5 149,-95.5 303,-95.5 303,-76.5 149,-76.5"/>
<text text-anchor="middle" x="226" y="-83.5" font-family="Helvetica,sans-Serif" font-size="10.00" fill="#000000">omc_DAEUtil_getAttrVariability</text>
</a>
</g>
</g>
<!-- Node14970&#45;&gt;Node14971 -->
<g id="edge1" class="edge">
<title>Node14970&#45;&gt;Node14971</title>
<path fill="none" stroke="#191970" d="M99.272,-57.589C121.8409,-62.6487 149.7232,-68.8996 173.5833,-74.2488"/>
<polygon fill="#191970" stroke="#191970" points="173.0121,-77.7075 183.5356,-76.4799 174.5435,-70.8771 173.0121,-77.7075"/>
</g>
<!-- Node14972 -->
<g id="node3" class="node">
<title>Node14972</title>
<g id="a_node3"><a xlink:href="../../d3/df6/_types_8c.html#a542c2b0c2c89b37d875447805159497a" target="_top" xlink:title="omc_Types_simplifyType">
<polygon fill="#ffffff" stroke="#000000" points="162,-38.5 162,-57.5 290,-57.5 290,-38.5 162,-38.5"/>
<text text-anchor="middle" x="226" y="-45.5" font-family="Helvetica,sans-Serif" font-size="10.00" fill="#000000">omc_Types_simplifyType</text>
</a>
</g>
</g>
<!-- Node14970&#45;&gt;Node14972 -->
<g id="edge2" class="edge">
<title>Node14970&#45;&gt;Node14972</title>
<path fill="none" stroke="#191970" d="M113.4126,-48C125.7064,-48 138.8794,-48 151.7263,-48"/>
<polygon fill="#191970" stroke="#191970" points="151.9363,-51.5001 161.9363,-48 151.9363,-44.5001 151.9363,-51.5001"/>
</g>
<!-- Node14973 -->
<g id="node4" class="node">
<title>Node14973</title>
<g id="a_node4"><a xlink:href="../../d3/df6/_types_8c.html#ae943f7d4c6e8a8afedabfafe9ba94209" target="_top" xlink:title="omc_Types_variabilityToConst">
<polygon fill="#ffffff" stroke="#000000" points="150,-.5 150,-19.5 302,-19.5 302,-.5 150,-.5"/>
<text text-anchor="middle" x="226" y="-7.5" font-family="Helvetica,sans-Serif" font-size="10.00" fill="#000000">omc_Types_variabilityToConst</text>
</a>
</g>
</g>
<!-- Node14970&#45;&gt;Node14973 -->
<g id="edge3" class="edge">
<title>Node14970&#45;&gt;Node14973</title>
<path fill="none" stroke="#191970" d="M99.272,-38.411C121.8409,-33.3513 149.7232,-27.1004 173.5833,-21.7512"/>
<polygon fill="#191970" stroke="#191970" points="174.5435,-25.1229 183.5356,-19.5201 173.0121,-18.2925 174.5435,-25.1229"/>
</g>
</g>
</svg>
