<?xml version="1.0" encoding="UTF-8" standalone="no"?>
<!DOCTYPE svg PUBLIC "-//W3C//DTD SVG 1.1//EN"
 "http://www.w3.org/Graphics/SVG/1.1/DTD/svg11.dtd">
<!-- Generated by graphviz version 2.40.1 (20161225.0304)
 -->
<!-- Title: boxptr_Static_elabBuiltinTransition5 Pages: 1 -->
<svg width="533pt" height="66pt"
 viewBox="0.00 0.00 533.00 66.00" xmlns="http://www.w3.org/2000/svg" xmlns:xlink="http://www.w3.org/1999/xlink">
<g id="graph0" class="graph" transform="scale(1 1) rotate(0) translate(4 62)">
<title>boxptr_Static_elabBuiltinTransition5</title>
<polygon fill="#ffffff" stroke="transparent" points="-4,4 -4,-62 529,-62 529,4 -4,4"/>
<!-- Node3680 -->
<g id="node1" class="node">
<title>Node3680</title>
<polygon fill="#bfbfbf" stroke="#000000" points="0,-14 0,-44 125,-44 125,-14 0,-14"/>
<text text-anchor="start" x="8" y="-32" font-family="Helvetica,sans-Serif" font-size="10.00" fill="#000000">boxptr_Static_elabBuiltin</text>
<text text-anchor="middle" x="62.5" y="-21" font-family="Helvetica,sans-Serif" font-size="10.00" fill="#000000">Transition5</text>
</g>
<!-- Node3681 -->
<g id="node2" class="node">
<title>Node3681</title>
<g id="a_node2"><a xlink:href="../../d0/d86/_static_8c.html#a3a00882cbf9ca2c223c1aba60c8b3f5d" target="_top" xlink:title="omc_Static_elabBuiltinTransition5">
<polygon fill="#ffffff" stroke="#000000" points="161,-19.5 161,-38.5 325,-38.5 325,-19.5 161,-19.5"/>
<text text-anchor="middle" x="243" y="-26.5" font-family="Helvetica,sans-Serif" font-size="10.00" fill="#000000">omc_Static_elabBuiltinTransition5</text>
</a>
</g>
</g>
<!-- Node3680&#45;&gt;Node3681 -->
<g id="edge1" class="edge">
<title>Node3680&#45;&gt;Node3681</title>
<path fill="none" stroke="#191970" d="M125.1236,-29C133.3934,-29 142.0057,-29 150.6438,-29"/>
<polygon fill="#191970" stroke="#191970" points="150.777,-32.5001 160.777,-29 150.777,-25.5001 150.777,-32.5001"/>
</g>
<!-- Node3682 -->
<g id="node3" class="node">
<title>Node3682</title>
<g id="a_node3"><a xlink:href="../../da/d72/_compiler_2boot_2build_2list_8c.html#a67a5ace00ac694192758d21044e4fec7" target="_top" xlink:title="omc_List_getMemberOnTrue">
<polygon fill="#ffffff" stroke="#000000" points="371.5,-38.5 371.5,-57.5 514.5,-57.5 514.5,-38.5 371.5,-38.5"/>
<text text-anchor="middle" x="443" y="-45.5" font-family="Helvetica,sans-Serif" font-size="10.00" fill="#000000">omc_List_getMemberOnTrue</text>
</a>
</g>
</g>
<!-- Node3681&#45;&gt;Node3682 -->
<g id="edge2" class="edge">
<title>Node3681&#45;&gt;Node3682</title>
<path fill="none" stroke="#191970" d="M325.2135,-36.8103C337.0463,-37.9344 349.2225,-39.0911 361.0502,-40.2148"/>
<polygon fill="#191970" stroke="#191970" points="361.0509,-43.7305 371.3372,-41.192 361.713,-36.7619 361.0509,-43.7305"/>
</g>
<!-- Node3683 -->
<g id="node4" class="node">
<title>Node3683</title>
<g id="a_node4"><a xlink:href="../../d0/d86/_static_8c.html#ab9493adc767f27a79a7e495fe6573db7" target="_top" xlink:title="omc_Static_elabBuiltinTransition4">
<polygon fill="#ffffff" stroke="#000000" points="361,-.5 361,-19.5 525,-19.5 525,-.5 361,-.5"/>
<text text-anchor="middle" x="443" y="-7.5" font-family="Helvetica,sans-Serif" font-size="10.00" fill="#000000">omc_Static_elabBuiltinTransition4</text>
</a>
</g>
</g>
<!-- Node3681&#45;&gt;Node3683 -->
<g id="edge3" class="edge">
<title>Node3681&#45;&gt;Node3683</title>
<path fill="none" stroke="#191970" d="M325.2135,-21.1897C333.6542,-20.3879 342.2696,-19.5694 350.8087,-18.7582"/>
<polygon fill="#191970" stroke="#191970" points="351.1585,-22.2408 360.7826,-17.8107 350.4964,-15.2722 351.1585,-22.2408"/>
</g>
</g>
</svg>
