<?xml version="1.0" encoding="UTF-8" standalone="no"?>
<!DOCTYPE svg PUBLIC "-//W3C//DTD SVG 1.1//EN"
 "http://www.w3.org/Graphics/SVG/1.1/DTD/svg11.dtd">
<!-- Generated by graphviz version 2.40.1 (20161225.0304)
 -->
<!-- Title: omc_Static_elabArrayHasMixedIntReals Pages: 1 -->
<svg width="340pt" height="39pt"
 viewBox="0.00 0.00 340.00 39.00" xmlns="http://www.w3.org/2000/svg" xmlns:xlink="http://www.w3.org/1999/xlink">
<g id="graph0" class="graph" transform="scale(1 1) rotate(0) translate(4 35)">
<title>omc_Static_elabArrayHasMixedIntReals</title>
<polygon fill="#ffffff" stroke="transparent" points="-4,4 -4,-35 336,-35 336,4 -4,4"/>
<!-- Node9702 -->
<g id="node1" class="node">
<title>Node9702</title>
<polygon fill="#bfbfbf" stroke="#000000" points="0,-.5 0,-30.5 157,-30.5 157,-.5 0,-.5"/>
<text text-anchor="start" x="8" y="-18.5" font-family="Helvetica,sans-Serif" font-size="10.00" fill="#000000">omc_Static_elabArrayHasMixed</text>
<text text-anchor="middle" x="78.5" y="-7.5" font-family="Helvetica,sans-Serif" font-size="10.00" fill="#000000">IntReals</text>
</g>
<!-- Node9703 -->
<g id="node2" class="node">
<title>Node9703</title>
<g id="a_node2"><a xlink:href="../../d0/d86/_static_8c.html#abae789631d08ed455710e2e12b947e6e" target="_top" xlink:title="boxptr_Static_elabArrayHas\lMixedIntReals">
<polygon fill="#ffffff" stroke="#000000" points="193,-.5 193,-30.5 332,-30.5 332,-.5 193,-.5"/>
<text text-anchor="start" x="201" y="-18.5" font-family="Helvetica,sans-Serif" font-size="10.00" fill="#000000">boxptr_Static_elabArrayHas</text>
<text text-anchor="middle" x="262.5" y="-7.5" font-family="Helvetica,sans-Serif" font-size="10.00" fill="#000000">MixedIntReals</text>
</a>
</g>
</g>
<!-- Node9702&#45;&gt;Node9703 -->
<g id="edge1" class="edge">
<title>Node9702&#45;&gt;Node9703</title>
<path fill="none" stroke="#191970" d="M167.1755,-15.5C175.818,-15.5 184.4997,-15.5 192.9149,-15.5"/>
<polygon fill="#191970" stroke="#191970" points="167.0663,-12.0001 157.0663,-15.5 167.0662,-19.0001 167.0663,-12.0001"/>
</g>
</g>
</svg>
