<?xml version="1.0" encoding="UTF-8" standalone="no"?>
<!DOCTYPE svg PUBLIC "-//W3C//DTD SVG 1.1//EN"
 "http://www.w3.org/Graphics/SVG/1.1/DTD/svg11.dtd">
<!-- Generated by graphviz version 2.40.1 (20161225.0304)
 -->
<!-- Title: omc_Static_elabSubscriptsDims Pages: 1 -->
<svg width="545pt" height="66pt"
 viewBox="0.00 0.00 545.00 66.00" xmlns="http://www.w3.org/2000/svg" xmlns:xlink="http://www.w3.org/1999/xlink">
<g id="graph0" class="graph" transform="scale(1 1) rotate(0) translate(4 62)">
<title>omc_Static_elabSubscriptsDims</title>
<polygon fill="#ffffff" stroke="transparent" points="-4,4 -4,-62 541,-62 541,4 -4,4"/>
<!-- Node17600 -->
<g id="node1" class="node">
<title>Node17600</title>
<polygon fill="#bfbfbf" stroke="#000000" points="0,-19.5 0,-38.5 159,-38.5 159,-19.5 0,-19.5"/>
<text text-anchor="middle" x="79.5" y="-26.5" font-family="Helvetica,sans-Serif" font-size="10.00" fill="#000000">omc_Static_elabSubscriptsDims</text>
</g>
<!-- Node17601 -->
<g id="node2" class="node">
<title>Node17601</title>
<g id="a_node2"><a xlink:href="../../d0/d86/_static_8c.html#a48b193bf4caa594087b500c95fdd0a68" target="_top" xlink:title="boxptr_Static_elabSubscriptsDims">
<polygon fill="#ffffff" stroke="#000000" points="195,-38.5 195,-57.5 362,-57.5 362,-38.5 195,-38.5"/>
<text text-anchor="middle" x="278.5" y="-45.5" font-family="Helvetica,sans-Serif" font-size="10.00" fill="#000000">boxptr_Static_elabSubscriptsDims</text>
</a>
</g>
</g>
<!-- Node17600&#45;&gt;Node17601 -->
<g id="edge1" class="edge">
<title>Node17600&#45;&gt;Node17601</title>
<path fill="none" stroke="#191970" d="M169.0418,-37.5492C177.6416,-38.3703 186.3417,-39.201 194.8816,-40.0163"/>
<polygon fill="#191970" stroke="#191970" points="169.2954,-34.0576 159.008,-36.5912 168.63,-41.0259 169.2954,-34.0576"/>
</g>
<!-- Node17602 -->
<g id="node3" class="node">
<title>Node17602</title>
<g id="a_node3"><a xlink:href="../../d0/d86/_static_8c.html#a35e835927d88ea44e59cea7bd0199960" target="_top" xlink:title="omc_Static_elabCrefSubs">
<polygon fill="#ffffff" stroke="#000000" points="213,-.5 213,-19.5 344,-19.5 344,-.5 213,-.5"/>
<text text-anchor="middle" x="278.5" y="-7.5" font-family="Helvetica,sans-Serif" font-size="10.00" fill="#000000">omc_Static_elabCrefSubs</text>
</a>
</g>
</g>
<!-- Node17600&#45;&gt;Node17602 -->
<g id="edge2" class="edge">
<title>Node17600&#45;&gt;Node17602</title>
<path fill="none" stroke="#191970" d="M169.1344,-20.4419C183.8518,-19.0368 198.8599,-17.6038 212.8537,-16.2677"/>
<polygon fill="#191970" stroke="#191970" points="168.63,-16.9741 159.008,-21.4088 169.2954,-23.9424 168.63,-16.9741"/>
</g>
<!-- Node17603 -->
<g id="node4" class="node">
<title>Node17603</title>
<g id="a_node4"><a xlink:href="../../d0/d86/_static_8c.html#a74faaba0a65a8a520e475c63e300279b" target="_top" xlink:title="boxptr_Static_elabCrefSubs">
<polygon fill="#ffffff" stroke="#000000" points="398,-.5 398,-19.5 537,-19.5 537,-.5 398,-.5"/>
<text text-anchor="middle" x="467.5" y="-7.5" font-family="Helvetica,sans-Serif" font-size="10.00" fill="#000000">boxptr_Static_elabCrefSubs</text>
</a>
</g>
</g>
<!-- Node17602&#45;&gt;Node17603 -->
<g id="edge3" class="edge">
<title>Node17602&#45;&gt;Node17603</title>
<path fill="none" stroke="#191970" d="M354.4007,-10C368.7567,-10 383.7089,-10 397.8605,-10"/>
<polygon fill="#191970" stroke="#191970" points="354.0726,-6.5001 344.0726,-10 354.0726,-13.5001 354.0726,-6.5001"/>
</g>
</g>
</svg>
