<?xml version="1.0" encoding="UTF-8" standalone="no"?>
<!DOCTYPE svg PUBLIC "-//W3C//DTD SVG 1.1//EN"
 "http://www.w3.org/Graphics/SVG/1.1/DTD/svg11.dtd">
<!-- Generated by graphviz version 2.40.1 (20161225.0304)
 -->
<!-- Title: boxptr_Static_isBuiltinFunc Pages: 1 -->
<svg width="656pt" height="66pt"
 viewBox="0.00 0.00 656.00 66.00" xmlns="http://www.w3.org/2000/svg" xmlns:xlink="http://www.w3.org/1999/xlink">
<g id="graph0" class="graph" transform="scale(1 1) rotate(0) translate(4 62)">
<title>boxptr_Static_isBuiltinFunc</title>
<polygon fill="#ffffff" stroke="transparent" points="-4,4 -4,-62 652,-62 652,4 -4,4"/>
<!-- Node8118 -->
<g id="node1" class="node">
<title>Node8118</title>
<polygon fill="#bfbfbf" stroke="#000000" points="0,-19.5 0,-38.5 136,-38.5 136,-19.5 0,-19.5"/>
<text text-anchor="middle" x="68" y="-26.5" font-family="Helvetica,sans-Serif" font-size="10.00" fill="#000000">boxptr_Static_isBuiltinFunc</text>
</g>
<!-- Node8119 -->
<g id="node2" class="node">
<title>Node8119</title>
<g id="a_node2"><a xlink:href="../../d0/d86/_static_8c.html#a543dcd0055fb2ec4945f3a833de178f7" target="_top" xlink:title="omc_Static_isBuiltinFunc">
<polygon fill="#ffffff" stroke="#000000" points="172,-19.5 172,-38.5 300,-38.5 300,-19.5 172,-19.5"/>
<text text-anchor="middle" x="236" y="-26.5" font-family="Helvetica,sans-Serif" font-size="10.00" fill="#000000">omc_Static_isBuiltinFunc</text>
</a>
</g>
</g>
<!-- Node8118&#45;&gt;Node8119 -->
<g id="edge1" class="edge">
<title>Node8118&#45;&gt;Node8119</title>
<path fill="none" stroke="#191970" d="M136.332,-29C144.6633,-29 153.2079,-29 161.6219,-29"/>
<polygon fill="#191970" stroke="#191970" points="161.7973,-32.5001 171.7973,-29 161.7972,-25.5001 161.7973,-32.5001"/>
</g>
<!-- Node8120 -->
<g id="node3" class="node">
<title>Node8120</title>
<g id="a_node3"><a xlink:href="../../d0/d78/_absyn_8c.html#aa90ee78f7c8fc6fd5b988d9d6eadda59" target="_top" xlink:title="omc_Absyn_makeNotFullyQualified">
<polygon fill="#ffffff" stroke="#000000" points="336,-38.5 336,-57.5 509,-57.5 509,-38.5 336,-38.5"/>
<text text-anchor="middle" x="422.5" y="-45.5" font-family="Helvetica,sans-Serif" font-size="10.00" fill="#000000">omc_Absyn_makeNotFullyQualified</text>
</a>
</g>
</g>
<!-- Node8119&#45;&gt;Node8120 -->
<g id="edge2" class="edge">
<title>Node8119&#45;&gt;Node8120</title>
<path fill="none" stroke="#191970" d="M300.1827,-35.5387C308.4375,-36.3797 317.03,-37.2551 325.6636,-38.1346"/>
<polygon fill="#191970" stroke="#191970" points="325.4964,-41.6356 335.7997,-39.1673 326.206,-34.6717 325.4964,-41.6356"/>
</g>
<!-- Node8121 -->
<g id="node4" class="node">
<title>Node8121</title>
<g id="a_node4"><a xlink:href="../../d0/d86/_static_8c.html#a8f7b4d0605662c22f615f925ec20f75c" target="_top" xlink:title="omc_Static_elabBuiltinHandler">
<polygon fill="#ffffff" stroke="#000000" points="347.5,-.5 347.5,-19.5 497.5,-19.5 497.5,-.5 347.5,-.5"/>
<text text-anchor="middle" x="422.5" y="-7.5" font-family="Helvetica,sans-Serif" font-size="10.00" fill="#000000">omc_Static_elabBuiltinHandler</text>
</a>
</g>
</g>
<!-- Node8119&#45;&gt;Node8121 -->
<g id="edge3" class="edge">
<title>Node8119&#45;&gt;Node8121</title>
<path fill="none" stroke="#191970" d="M300.1827,-22.4613C312.155,-21.2416 324.8376,-19.9495 337.3255,-18.6773"/>
<polygon fill="#191970" stroke="#191970" points="337.6879,-22.1586 347.2816,-17.663 336.9784,-15.1946 337.6879,-22.1586"/>
</g>
<!-- Node8122 -->
<g id="node5" class="node">
<title>Node8122</title>
<g id="a_node5"><a xlink:href="../../d2/d57/build_2include_2omc_2c_2meta_2meta__modelica__builtin_8h.html#a71a925de64a6f26ca5ef2903b616e73d" target="_top" xlink:title="stringHashDjb2Mod">
<polygon fill="#ffffff" stroke="#000000" points="545,-.5 545,-19.5 648,-19.5 648,-.5 545,-.5"/>
<text text-anchor="middle" x="596.5" y="-7.5" font-family="Helvetica,sans-Serif" font-size="10.00" fill="#000000">stringHashDjb2Mod</text>
</a>
</g>
</g>
<!-- Node8121&#45;&gt;Node8122 -->
<g id="edge4" class="edge">
<title>Node8121&#45;&gt;Node8122</title>
<path fill="none" stroke="#191970" d="M497.5542,-10C509.9324,-10 522.6396,-10 534.6475,-10"/>
<polygon fill="#191970" stroke="#191970" points="534.9941,-13.5001 544.9941,-10 534.994,-6.5001 534.9941,-13.5001"/>
</g>
</g>
</svg>
