<?xml version="1.0" encoding="UTF-8" standalone="no"?>
<!DOCTYPE svg PUBLIC "-//W3C//DTD SVG 1.1//EN"
 "http://www.w3.org/Graphics/SVG/1.1/DTD/svg11.dtd">
<!-- Generated by graphviz version 2.40.1 (20161225.0304)
 -->
<!-- Title: omc_Static_elabBuiltinArray Pages: 1 -->
<svg width="724pt" height="218pt"
 viewBox="0.00 0.00 724.00 218.00" xmlns="http://www.w3.org/2000/svg" xmlns:xlink="http://www.w3.org/1999/xlink">
<g id="graph0" class="graph" transform="scale(1 1) rotate(0) translate(4 214)">
<title>omc_Static_elabBuiltinArray</title>
<polygon fill="#ffffff" stroke="transparent" points="-4,4 -4,-214 720,-214 720,4 -4,4"/>
<!-- Node10021 -->
<g id="node1" class="node">
<title>Node10021</title>
<polygon fill="#bfbfbf" stroke="#000000" points="0,-38.5 0,-57.5 140,-57.5 140,-38.5 0,-38.5"/>
<text text-anchor="middle" x="70" y="-45.5" font-family="Helvetica,sans-Serif" font-size="10.00" fill="#000000">omc_Static_elabBuiltinArray</text>
</g>
<!-- Node10022 -->
<g id="node2" class="node">
<title>Node10022</title>
<g id="a_node2"><a xlink:href="../../d0/d86/_static_8c.html#a983c41e910ad0d8bd71955928738d6fa" target="_top" xlink:title="omc_Static_elabExpList">
<polygon fill="#ffffff" stroke="#000000" points="187.5,-114.5 187.5,-133.5 309.5,-133.5 309.5,-114.5 187.5,-114.5"/>
<text text-anchor="middle" x="248.5" y="-121.5" font-family="Helvetica,sans-Serif" font-size="10.00" fill="#000000">omc_Static_elabExpList</text>
</a>
</g>
</g>
<!-- Node10021&#45;&gt;Node10022 -->
<g id="edge1" class="edge">
<title>Node10021&#45;&gt;Node10022</title>
<path fill="none" stroke="#191970" d="M92.6071,-57.6255C123.9917,-70.9881 180.9202,-95.2265 216.6116,-110.4229"/>
<polygon fill="#191970" stroke="#191970" points="215.5045,-113.7555 226.0764,-114.4527 218.2468,-107.315 215.5045,-113.7555"/>
</g>
<!-- Node10028 -->
<g id="node8" class="node">
<title>Node10028</title>
<g id="a_node8"><a xlink:href="../../d0/d86/_static_8c.html#a5165356a062bf3e1cecc4a41cccb8b43" target="_top" xlink:title="omc_Static_elabBuiltinArray2">
<polygon fill="#ffffff" stroke="#000000" points="176,-38.5 176,-57.5 321,-57.5 321,-38.5 176,-38.5"/>
<text text-anchor="middle" x="248.5" y="-45.5" font-family="Helvetica,sans-Serif" font-size="10.00" fill="#000000">omc_Static_elabBuiltinArray2</text>
</a>
</g>
</g>
<!-- Node10021&#45;&gt;Node10028 -->
<g id="edge7" class="edge">
<title>Node10021&#45;&gt;Node10028</title>
<path fill="none" stroke="#191970" d="M140.0356,-48C148.4598,-48 157.1237,-48 165.7075,-48"/>
<polygon fill="#191970" stroke="#191970" points="165.7283,-51.5001 175.7283,-48 165.7282,-44.5001 165.7283,-51.5001"/>
</g>
<!-- Node10033 -->
<g id="node13" class="node">
<title>Node10033</title>
<g id="a_node13"><a xlink:href="../../d2/d57/build_2include_2omc_2c_2meta_2meta__modelica__builtin_8h.html#a6983369f3c3e3e8cc41ac483c9a9baf1" target="_top" xlink:title="listLength">
<polygon fill="#ffffff" stroke="#000000" points="219,-.5 219,-19.5 278,-19.5 278,-.5 219,-.5"/>
<text text-anchor="middle" x="248.5" y="-7.5" font-family="Helvetica,sans-Serif" font-size="10.00" fill="#000000">listLength</text>
</a>
</g>
</g>
<!-- Node10021&#45;&gt;Node10033 -->
<g id="edge12" class="edge">
<title>Node10021&#45;&gt;Node10033</title>
<path fill="none" stroke="#191970" d="M115.0431,-38.411C143.8908,-32.2698 180.9819,-24.3736 208.7368,-18.465"/>
<polygon fill="#191970" stroke="#191970" points="209.8284,-21.8111 218.8804,-16.3056 208.3708,-14.9646 209.8284,-21.8111"/>
</g>
<!-- Node10023 -->
<g id="node3" class="node">
<title>Node10023</title>
<g id="a_node3"><a xlink:href="../../d0/d78/_absyn_8c.html#a161dbba7880ce6c80044fa75e5f19a77" target="_top" xlink:title="omc_Absyn_crefToPath">
<polygon fill="#ffffff" stroke="#000000" points="381.5,-190.5 381.5,-209.5 503.5,-209.5 503.5,-190.5 381.5,-190.5"/>
<text text-anchor="middle" x="442.5" y="-197.5" font-family="Helvetica,sans-Serif" font-size="10.00" fill="#000000">omc_Absyn_crefToPath</text>
</a>
</g>
</g>
<!-- Node10022&#45;&gt;Node10023 -->
<g id="edge2" class="edge">
<title>Node10022&#45;&gt;Node10023</title>
<path fill="none" stroke="#191970" d="M263.712,-133.6609C284.1725,-146.2575 322.0363,-168.19 357,-181 364.0485,-183.5824 371.5581,-185.8755 379.0888,-187.8946"/>
<polygon fill="#191970" stroke="#191970" points="378.4108,-191.3333 388.9638,-190.3926 380.1275,-184.547 378.4108,-191.3333"/>
</g>
<!-- Node10024 -->
<g id="node4" class="node">
<title>Node10024</title>
<g id="a_node4"><a xlink:href="../../d0/d78/_absyn_8c.html#aba05998041adfb113374767462cd578a" target="_top" xlink:title="omc_Absyn_splitQualAndIdentPath">
<polygon fill="#ffffff" stroke="#000000" points="357,-152.5 357,-171.5 528,-171.5 528,-152.5 357,-152.5"/>
<text text-anchor="middle" x="442.5" y="-159.5" font-family="Helvetica,sans-Serif" font-size="10.00" fill="#000000">omc_Absyn_splitQualAndIdentPath</text>
</a>
</g>
</g>
<!-- Node10022&#45;&gt;Node10024 -->
<g id="edge3" class="edge">
<title>Node10022&#45;&gt;Node10024</title>
<path fill="none" stroke="#191970" d="M297.4544,-133.589C323.7467,-138.739 356.3396,-145.1232 383.9653,-150.5344"/>
<polygon fill="#191970" stroke="#191970" points="383.4113,-153.9924 393.8976,-152.4799 384.7569,-147.1229 383.4113,-153.9924"/>
</g>
<!-- Node10025 -->
<g id="node5" class="node">
<title>Node10025</title>
<g id="a_node5"><a xlink:href="../../d0/d78/_absyn_8c.html#a8ad96aa8a78d49e3c6e12575c1bee42d" target="_top" xlink:title="omc_Absyn_pathEqual">
<polygon fill="#ffffff" stroke="#000000" points="384,-114.5 384,-133.5 501,-133.5 501,-114.5 384,-114.5"/>
<text text-anchor="middle" x="442.5" y="-121.5" font-family="Helvetica,sans-Serif" font-size="10.00" fill="#000000">omc_Absyn_pathEqual</text>
</a>
</g>
</g>
<!-- Node10022&#45;&gt;Node10025 -->
<g id="edge4" class="edge">
<title>Node10022&#45;&gt;Node10025</title>
<path fill="none" stroke="#191970" d="M309.6165,-124C329.9466,-124 352.7248,-124 373.602,-124"/>
<polygon fill="#191970" stroke="#191970" points="373.6791,-127.5001 383.6791,-124 373.6791,-120.5001 373.6791,-127.5001"/>
</g>
<!-- Node10026 -->
<g id="node6" class="node">
<title>Node10026</title>
<g id="a_node6"><a xlink:href="../../da/d72/_compiler_2boot_2build_2list_8c.html#a2ded3aa751bfadac517f3a0cefb62317" target="_top" xlink:title="omc_List_position">
<polygon fill="#ffffff" stroke="#000000" points="395,-76.5 395,-95.5 490,-95.5 490,-76.5 395,-76.5"/>
<text text-anchor="middle" x="442.5" y="-83.5" font-family="Helvetica,sans-Serif" font-size="10.00" fill="#000000">omc_List_position</text>
</a>
</g>
</g>
<!-- Node10022&#45;&gt;Node10026 -->
<g id="edge5" class="edge">
<title>Node10022&#45;&gt;Node10026</title>
<path fill="none" stroke="#191970" d="M297.4544,-114.411C324.0466,-109.2022 357.084,-102.731 384.9088,-97.2808"/>
<polygon fill="#191970" stroke="#191970" points="385.7618,-100.6803 394.9025,-95.3232 384.4162,-93.8108 385.7618,-100.6803"/>
</g>
<!-- Node10027 -->
<g id="node7" class="node">
<title>Node10027</title>
<g id="a_node7"><a xlink:href="../../dc/dd0/build_2include_2omc_2c_2meta_2meta__modelica_8h.html#a053b78d26cb7fe728aa97ab1a575f7ad" target="_top" xlink:title="valueEq">
<polygon fill="#ffffff" stroke="#000000" points="614,-76.5 614,-95.5 666,-95.5 666,-76.5 614,-76.5"/>
<text text-anchor="middle" x="640" y="-83.5" font-family="Helvetica,sans-Serif" font-size="10.00" fill="#000000">valueEq</text>
</a>
</g>
</g>
<!-- Node10026&#45;&gt;Node10027 -->
<g id="edge6" class="edge">
<title>Node10026&#45;&gt;Node10027</title>
<path fill="none" stroke="#191970" d="M490.0575,-86C524.9239,-86 571.559,-86 603.5092,-86"/>
<polygon fill="#191970" stroke="#191970" points="603.7433,-89.5001 613.7432,-86 603.7432,-82.5001 603.7433,-89.5001"/>
</g>
<!-- Node10029 -->
<g id="node9" class="node">
<title>Node10029</title>
<g id="a_node9"><a xlink:href="../../d0/d86/_static_8c.html#a3e26979a7caacf0d282ed701c71b7ce1" target="_top" xlink:title="omc_Static_sameDimensions">
<polygon fill="#ffffff" stroke="#000000" points="369,-38.5 369,-57.5 516,-57.5 516,-38.5 369,-38.5"/>
<text text-anchor="middle" x="442.5" y="-45.5" font-family="Helvetica,sans-Serif" font-size="10.00" fill="#000000">omc_Static_sameDimensions</text>
</a>
</g>
</g>
<!-- Node10028&#45;&gt;Node10029 -->
<g id="edge8" class="edge">
<title>Node10028&#45;&gt;Node10029</title>
<path fill="none" stroke="#191970" d="M321.0143,-48C333.3279,-48 346.2047,-48 358.7782,-48"/>
<polygon fill="#191970" stroke="#191970" points="358.7803,-51.5001 368.7803,-48 358.7803,-44.5001 358.7803,-51.5001"/>
</g>
<!-- Node10032 -->
<g id="node12" class="node">
<title>Node10032</title>
<g id="a_node12"><a xlink:href="../../d3/dd8/_prefix_util_8c.html#a6c014855f406832946bc46800de3e696" target="_top" xlink:title="omc_PrefixUtil_printPrefixStr3">
<polygon fill="#ffffff" stroke="#000000" points="368,-.5 368,-19.5 517,-19.5 517,-.5 368,-.5"/>
<text text-anchor="middle" x="442.5" y="-7.5" font-family="Helvetica,sans-Serif" font-size="10.00" fill="#000000">omc_PrefixUtil_printPrefixStr3</text>
</a>
</g>
</g>
<!-- Node10028&#45;&gt;Node10032 -->
<g id="edge11" class="edge">
<title>Node10028&#45;&gt;Node10032</title>
<path fill="none" stroke="#191970" d="M297.4544,-38.411C323.7467,-33.261 356.3396,-26.8768 383.9653,-21.4656"/>
<polygon fill="#191970" stroke="#191970" points="384.7569,-24.8771 393.8976,-19.5201 383.4113,-18.0076 384.7569,-24.8771"/>
</g>
<!-- Node10030 -->
<g id="node10" class="node">
<title>Node10030</title>
<g id="a_node10"><a xlink:href="../../da/d72/_compiler_2boot_2build_2list_8c.html#a70628b2c3fb199a118f80777135940ee" target="_top" xlink:title="omc_List_map">
<polygon fill="#ffffff" stroke="#000000" points="600,-38.5 600,-57.5 680,-57.5 680,-38.5 600,-38.5"/>
<text text-anchor="middle" x="640" y="-45.5" font-family="Helvetica,sans-Serif" font-size="10.00" fill="#000000">omc_List_map</text>
</a>
</g>
</g>
<!-- Node10029&#45;&gt;Node10030 -->
<g id="edge9" class="edge">
<title>Node10029&#45;&gt;Node10030</title>
<path fill="none" stroke="#191970" d="M516.0417,-48C540.5632,-48 567.3073,-48 589.6563,-48"/>
<polygon fill="#191970" stroke="#191970" points="589.9177,-51.5001 599.9177,-48 589.9176,-44.5001 589.9177,-51.5001"/>
</g>
<!-- Node10031 -->
<g id="node11" class="node">
<title>Node10031</title>
<g id="a_node11"><a xlink:href="../../d0/d86/_static_8c.html#a9950cf966aef23810f5585b4d918a7e1" target="_top" xlink:title="omc_Static_sameDimensions2">
<polygon fill="#ffffff" stroke="#000000" points="564,-.5 564,-19.5 716,-19.5 716,-.5 564,-.5"/>
<text text-anchor="middle" x="640" y="-7.5" font-family="Helvetica,sans-Serif" font-size="10.00" fill="#000000">omc_Static_sameDimensions2</text>
</a>
</g>
</g>
<!-- Node10029&#45;&gt;Node10031 -->
<g id="edge10" class="edge">
<title>Node10029&#45;&gt;Node10031</title>
<path fill="none" stroke="#191970" d="M492.0827,-38.46C518.8473,-33.3104 552.0814,-26.916 580.2638,-21.4935"/>
<polygon fill="#191970" stroke="#191970" points="581.2384,-24.8703 590.3969,-19.5439 579.9157,-17.9964 581.2384,-24.8703"/>
</g>
</g>
</svg>
