<?xml version="1.0" encoding="UTF-8" standalone="no"?>
<!DOCTYPE svg PUBLIC "-//W3C//DTD SVG 1.1//EN"
 "http://www.w3.org/Graphics/SVG/1.1/DTD/svg11.dtd">
<!-- Generated by graphviz version 2.40.1 (20161225.0304)
 -->
<!-- Title: boxptr_SymbolicJacobian_calculateJacobianRows Pages: 1 -->
<svg width="448pt" height="39pt"
 viewBox="0.00 0.00 448.00 39.00" xmlns="http://www.w3.org/2000/svg" xmlns:xlink="http://www.w3.org/1999/xlink">
<g id="graph0" class="graph" transform="scale(1 1) rotate(0) translate(4 35)">
<title>boxptr_SymbolicJacobian_calculateJacobianRows</title>
<polygon fill="#ffffff" stroke="transparent" points="-4,4 -4,-35 444,-35 444,4 -4,4"/>
<!-- Node115 -->
<g id="node1" class="node">
<title>Node115</title>
<polygon fill="#bfbfbf" stroke="#000000" points="0,-.5 0,-30.5 128,-30.5 128,-.5 0,-.5"/>
<text text-anchor="start" x="8" y="-18.5" font-family="Helvetica,sans-Serif" font-size="10.00" fill="#000000">boxptr_SymbolicJacobian</text>
<text text-anchor="middle" x="64" y="-7.5" font-family="Helvetica,sans-Serif" font-size="10.00" fill="#000000">_calculateJacobianRows</text>
</g>
<!-- Node116 -->
<g id="node2" class="node">
<title>Node116</title>
<g id="a_node2"><a xlink:href="../../d2/d88/_symbolic_jacobian_8c.html#a2879ade02cc222d02375853c7c4176f2" target="_top" xlink:title="omc_SymbolicJacobian\l_calculateJacobianRows">
<polygon fill="#ffffff" stroke="#000000" points="164,-.5 164,-30.5 289,-30.5 289,-.5 164,-.5"/>
<text text-anchor="start" x="172" y="-18.5" font-family="Helvetica,sans-Serif" font-size="10.00" fill="#000000">omc_SymbolicJacobian</text>
<text text-anchor="middle" x="226.5" y="-7.5" font-family="Helvetica,sans-Serif" font-size="10.00" fill="#000000">_calculateJacobianRows</text>
</a>
</g>
</g>
<!-- Node115&#45;&gt;Node116 -->
<g id="edge1" class="edge">
<title>Node115&#45;&gt;Node116</title>
<path fill="none" stroke="#191970" d="M128.2243,-15.5C136.5496,-15.5 145.1245,-15.5 153.5779,-15.5"/>
<polygon fill="#191970" stroke="#191970" points="153.8041,-19.0001 163.804,-15.5 153.804,-12.0001 153.8041,-19.0001"/>
</g>
<!-- Node117 -->
<g id="node3" class="node">
<title>Node117</title>
<g id="a_node3"><a xlink:href="../../d0/d79/_expandable_array_8c.html#a51fbd8fcf5dd51e9daca628bacca1b66" target="_top" xlink:title="omc_ExpandableArray\l_getLastUsedIndex">
<polygon fill="#ffffff" stroke="#000000" points="325,-.5 325,-30.5 440,-30.5 440,-.5 325,-.5"/>
<text text-anchor="start" x="333" y="-18.5" font-family="Helvetica,sans-Serif" font-size="10.00" fill="#000000">omc_ExpandableArray</text>
<text text-anchor="middle" x="382.5" y="-7.5" font-family="Helvetica,sans-Serif" font-size="10.00" fill="#000000">_getLastUsedIndex</text>
</a>
</g>
</g>
<!-- Node116&#45;&gt;Node117 -->
<g id="edge2" class="edge">
<title>Node116&#45;&gt;Node117</title>
<path fill="none" stroke="#191970" d="M289.0523,-15.5C297.5819,-15.5 306.3683,-15.5 314.981,-15.5"/>
<polygon fill="#191970" stroke="#191970" points="314.9861,-19.0001 324.986,-15.5 314.986,-12.0001 314.9861,-19.0001"/>
</g>
</g>
</svg>
