<?xml version="1.0" encoding="UTF-8" standalone="no"?>
<!DOCTYPE svg PUBLIC "-//W3C//DTD SVG 1.1//EN"
 "http://www.w3.org/Graphics/SVG/1.1/DTD/svg11.dtd">
<!-- Generated by graphviz version 2.40.1 (20161225.0304)
 -->
<!-- Title: omc_SymbolicJacobian_calculateJacobianRowLst Pages: 1 -->
<svg width="825pt" height="318pt"
 viewBox="0.00 0.00 825.00 318.00" xmlns="http://www.w3.org/2000/svg" xmlns:xlink="http://www.w3.org/1999/xlink">
<g id="graph0" class="graph" transform="scale(1 1) rotate(0) translate(4 314)">
<title>omc_SymbolicJacobian_calculateJacobianRowLst</title>
<polygon fill="#ffffff" stroke="transparent" points="-4,4 -4,-314 821,-314 821,4 -4,4"/>
<!-- Node1237 -->
<g id="node1" class="node">
<title>Node1237</title>
<polygon fill="#bfbfbf" stroke="#000000" points="0,-181.5 0,-211.5 134,-211.5 134,-181.5 0,-181.5"/>
<text text-anchor="start" x="8" y="-199.5" font-family="Helvetica,sans-Serif" font-size="10.00" fill="#000000">omc_SymbolicJacobian</text>
<text text-anchor="middle" x="67" y="-188.5" font-family="Helvetica,sans-Serif" font-size="10.00" fill="#000000">_calculateJacobianRowLst</text>
</g>
<!-- Node1238 -->
<g id="node2" class="node">
<title>Node1238</title>
<g id="a_node2"><a xlink:href="../../d2/d88/_symbolic_jacobian_8c.html#a136e1f53c6fc7f7cb23c71b7380d6773" target="_top" xlink:title="omc_SymbolicJacobian\l_calculateJacobianRow2">
<polygon fill="#ffffff" stroke="#000000" points="170,-181.5 170,-211.5 295,-211.5 295,-181.5 170,-181.5"/>
<text text-anchor="start" x="178" y="-199.5" font-family="Helvetica,sans-Serif" font-size="10.00" fill="#000000">omc_SymbolicJacobian</text>
<text text-anchor="middle" x="232.5" y="-188.5" font-family="Helvetica,sans-Serif" font-size="10.00" fill="#000000">_calculateJacobianRow2</text>
</a>
</g>
</g>
<!-- Node1237&#45;&gt;Node1238 -->
<g id="edge1" class="edge">
<title>Node1237&#45;&gt;Node1238</title>
<path fill="none" stroke="#191970" d="M134.3152,-196.5C142.6498,-196.5 151.2009,-196.5 159.6141,-196.5"/>
<polygon fill="#191970" stroke="#191970" points="159.7841,-200.0001 169.7841,-196.5 159.784,-193.0001 159.7841,-200.0001"/>
</g>
<!-- Node1239 -->
<g id="node3" class="node">
<title>Node1239</title>
<g id="a_node3"><a xlink:href="../../dd/db3/_backend_variable_8c.html#a6510457ed8c66520afe9c2f99c9f413f" target="_top" xlink:title="omc_BackendVariable\l_getVarAt">
<polygon fill="#ffffff" stroke="#000000" points="342,-279.5 342,-309.5 456,-309.5 456,-279.5 342,-279.5"/>
<text text-anchor="start" x="350" y="-297.5" font-family="Helvetica,sans-Serif" font-size="10.00" fill="#000000">omc_BackendVariable</text>
<text text-anchor="middle" x="399" y="-286.5" font-family="Helvetica,sans-Serif" font-size="10.00" fill="#000000">_getVarAt</text>
</a>
</g>
</g>
<!-- Node1238&#45;&gt;Node1239 -->
<g id="edge2" class="edge">
<title>Node1238&#45;&gt;Node1239</title>
<path fill="none" stroke="#191970" d="M249.1977,-211.5865C267.9645,-227.9109 299.891,-253.8347 331,-270.5 334.2244,-272.2274 337.5987,-273.873 341.0465,-275.4332"/>
<polygon fill="#191970" stroke="#191970" points="339.7201,-278.6724 350.2926,-279.3607 342.4569,-272.2296 339.7201,-278.6724"/>
</g>
<!-- Node1241 -->
<g id="node5" class="node">
<title>Node1241</title>
<g id="a_node5"><a xlink:href="../../dd/db3/_backend_variable_8c.html#aaae285cce81ea42125d84b7886614646" target="_top" xlink:title="omc_BackendVariable\l_varCref">
<polygon fill="#ffffff" stroke="#000000" points="342,-230.5 342,-260.5 456,-260.5 456,-230.5 342,-230.5"/>
<text text-anchor="start" x="350" y="-248.5" font-family="Helvetica,sans-Serif" font-size="10.00" fill="#000000">omc_BackendVariable</text>
<text text-anchor="middle" x="399" y="-237.5" font-family="Helvetica,sans-Serif" font-size="10.00" fill="#000000">_varCref</text>
</a>
</g>
</g>
<!-- Node1238&#45;&gt;Node1241 -->
<g id="edge4" class="edge">
<title>Node1238&#45;&gt;Node1241</title>
<path fill="none" stroke="#191970" d="M283.8141,-211.6014C300.9862,-216.6551 320.2952,-222.3376 338.125,-227.5848"/>
<polygon fill="#191970" stroke="#191970" points="337.274,-230.9828 347.8554,-230.4484 339.2503,-224.2675 337.274,-230.9828"/>
</g>
<!-- Node1242 -->
<g id="node6" class="node">
<title>Node1242</title>
<g id="a_node6"><a xlink:href="../../dd/db3/_backend_variable_8c.html#a0d415f9f05450096770ed0d620930cbe" target="_top" xlink:title="omc_BackendVariable\l_isStateVar">
<polygon fill="#ffffff" stroke="#000000" points="342,-181.5 342,-211.5 456,-211.5 456,-181.5 342,-181.5"/>
<text text-anchor="start" x="350" y="-199.5" font-family="Helvetica,sans-Serif" font-size="10.00" fill="#000000">omc_BackendVariable</text>
<text text-anchor="middle" x="399" y="-188.5" font-family="Helvetica,sans-Serif" font-size="10.00" fill="#000000">_isStateVar</text>
</a>
</g>
</g>
<!-- Node1238&#45;&gt;Node1242 -->
<g id="edge5" class="edge">
<title>Node1238&#45;&gt;Node1242</title>
<path fill="none" stroke="#191970" d="M295.4465,-196.5C307.27,-196.5 319.6753,-196.5 331.6272,-196.5"/>
<polygon fill="#191970" stroke="#191970" points="331.9877,-200.0001 341.9877,-196.5 331.9876,-193.0001 331.9877,-200.0001"/>
</g>
<!-- Node1243 -->
<g id="node7" class="node">
<title>Node1243</title>
<g id="a_node7"><a xlink:href="../../d9/d14/_component_reference_8c.html#afabbe0f81f63e590b6a3ce065d1e2d84" target="_top" xlink:title="omc_ComponentReference\l_crefPrefixDer">
<polygon fill="#ffffff" stroke="#000000" points="331,-132.5 331,-162.5 467,-162.5 467,-132.5 331,-132.5"/>
<text text-anchor="start" x="339" y="-150.5" font-family="Helvetica,sans-Serif" font-size="10.00" fill="#000000">omc_ComponentReference</text>
<text text-anchor="middle" x="399" y="-139.5" font-family="Helvetica,sans-Serif" font-size="10.00" fill="#000000">_crefPrefixDer</text>
</a>
</g>
</g>
<!-- Node1238&#45;&gt;Node1243 -->
<g id="edge6" class="edge">
<title>Node1238&#45;&gt;Node1243</title>
<path fill="none" stroke="#191970" d="M283.8141,-181.3986C300.9862,-176.3449 320.2952,-170.6624 338.125,-165.4152"/>
<polygon fill="#191970" stroke="#191970" points="339.2503,-168.7325 347.8554,-162.5516 337.274,-162.0172 339.2503,-168.7325"/>
</g>
<!-- Node1245 -->
<g id="node9" class="node">
<title>Node1245</title>
<g id="a_node9"><a xlink:href="../../d1/d08/_expression_8c.html#a709f5f88a0de42de5e2520d606c17275" target="_top" xlink:title="omc_Expression_crefExp">
<polygon fill="#ffffff" stroke="#000000" points="335,-79 335,-98 463,-98 463,-79 335,-79"/>
<text text-anchor="middle" x="399" y="-86" font-family="Helvetica,sans-Serif" font-size="10.00" fill="#000000">omc_Expression_crefExp</text>
</a>
</g>
</g>
<!-- Node1238&#45;&gt;Node1245 -->
<g id="edge8" class="edge">
<title>Node1238&#45;&gt;Node1245</title>
<path fill="none" stroke="#191970" d="M251.1052,-181.2816C270.4456,-165.8093 301.9031,-141.6034 331,-123.5 343.098,-115.9729 357.0023,-108.6062 369.0726,-102.588"/>
<polygon fill="#191970" stroke="#191970" points="370.8489,-105.6153 378.29,-98.0734 367.7698,-99.3289 370.8489,-105.6153"/>
</g>
<!-- Node1240 -->
<g id="node4" class="node">
<title>Node1240</title>
<g id="a_node4"><a xlink:href="../../dd/db3/_backend_variable_8c.html#ad0717d5de8cb7c7d906ac2922d97d58e" target="_top" xlink:title="omc_BackendVariable\l_vararrayNth">
<polygon fill="#ffffff" stroke="#000000" points="515.5,-279.5 515.5,-309.5 629.5,-309.5 629.5,-279.5 515.5,-279.5"/>
<text text-anchor="start" x="523.5" y="-297.5" font-family="Helvetica,sans-Serif" font-size="10.00" fill="#000000">omc_BackendVariable</text>
<text text-anchor="middle" x="572.5" y="-286.5" font-family="Helvetica,sans-Serif" font-size="10.00" fill="#000000">_vararrayNth</text>
</a>
</g>
</g>
<!-- Node1239&#45;&gt;Node1240 -->
<g id="edge3" class="edge">
<title>Node1239&#45;&gt;Node1240</title>
<path fill="none" stroke="#191970" d="M456.2912,-294.5C471.8372,-294.5 488.8154,-294.5 504.8736,-294.5"/>
<polygon fill="#191970" stroke="#191970" points="505.269,-298.0001 515.2689,-294.5 505.2689,-291.0001 505.269,-298.0001"/>
</g>
<!-- Node1244 -->
<g id="node8" class="node">
<title>Node1244</title>
<g id="a_node8"><a xlink:href="../../d9/d14/_component_reference_8c.html#a7432b89e50552d0f7590711f64ca96e8" target="_top" xlink:title="omc_ComponentReference\l_makeCrefQual">
<polygon fill="#ffffff" stroke="#000000" points="504.5,-147.5 504.5,-177.5 640.5,-177.5 640.5,-147.5 504.5,-147.5"/>
<text text-anchor="start" x="512.5" y="-165.5" font-family="Helvetica,sans-Serif" font-size="10.00" fill="#000000">omc_ComponentReference</text>
<text text-anchor="middle" x="572.5" y="-154.5" font-family="Helvetica,sans-Serif" font-size="10.00" fill="#000000">_makeCrefQual</text>
</a>
</g>
</g>
<!-- Node1243&#45;&gt;Node1244 -->
<g id="edge7" class="edge">
<title>Node1243&#45;&gt;Node1244</title>
<path fill="none" stroke="#191970" d="M467.0738,-153.3853C475.9718,-154.1546 485.145,-154.9477 494.1944,-155.7301"/>
<polygon fill="#191970" stroke="#191970" points="494.0734,-159.2326 504.3377,-156.607 494.6764,-152.2586 494.0734,-159.2326"/>
</g>
<!-- Node1246 -->
<g id="node10" class="node">
<title>Node1246</title>
<g id="a_node10"><a xlink:href="../../d9/d14/_component_reference_8c.html#a4cbfe93b088d5e37d7d9bbd8c886f54d" target="_top" xlink:title="omc_ComponentReference\l_crefLastType">
<polygon fill="#ffffff" stroke="#000000" points="504.5,-98.5 504.5,-128.5 640.5,-128.5 640.5,-98.5 504.5,-98.5"/>
<text text-anchor="start" x="512.5" y="-116.5" font-family="Helvetica,sans-Serif" font-size="10.00" fill="#000000">omc_ComponentReference</text>
<text text-anchor="middle" x="572.5" y="-105.5" font-family="Helvetica,sans-Serif" font-size="10.00" fill="#000000">_crefLastType</text>
</a>
</g>
</g>
<!-- Node1245&#45;&gt;Node1246 -->
<g id="edge9" class="edge">
<title>Node1245&#45;&gt;Node1246</title>
<path fill="none" stroke="#191970" d="M463.1121,-97.738C473.2802,-99.2032 483.8945,-100.7326 494.341,-102.2379"/>
<polygon fill="#191970" stroke="#191970" points="493.8882,-105.7087 504.2852,-103.6708 494.8866,-98.7803 493.8882,-105.7087"/>
</g>
<!-- Node1247 -->
<g id="node11" class="node">
<title>Node1247</title>
<g id="a_node11"><a xlink:href="../../d9/d14/_component_reference_8c.html#a3f6103afac7dca99c57aa2db9673bd27" target="_top" xlink:title="omc_ComponentReference\l_crefLastSubs">
<polygon fill="#ffffff" stroke="#000000" points="504.5,-49.5 504.5,-79.5 640.5,-79.5 640.5,-49.5 504.5,-49.5"/>
<text text-anchor="start" x="512.5" y="-67.5" font-family="Helvetica,sans-Serif" font-size="10.00" fill="#000000">omc_ComponentReference</text>
<text text-anchor="middle" x="572.5" y="-56.5" font-family="Helvetica,sans-Serif" font-size="10.00" fill="#000000">_crefLastSubs</text>
</a>
</g>
</g>
<!-- Node1245&#45;&gt;Node1247 -->
<g id="edge10" class="edge">
<title>Node1245&#45;&gt;Node1247</title>
<path fill="none" stroke="#191970" d="M463.1121,-79.6315C473.2802,-78.2249 483.8945,-76.7567 494.341,-75.3116"/>
<polygon fill="#191970" stroke="#191970" points="494.8591,-78.7734 504.2852,-73.9361 493.8999,-71.8394 494.8591,-78.7734"/>
</g>
<!-- Node1248 -->
<g id="node12" class="node">
<title>Node1248</title>
<g id="a_node12"><a xlink:href="../../d1/d08/_expression_8c.html#acdd0e6e6845c989964d03169ad05e5e8" target="_top" xlink:title="omc_Expression_unliftArray\lTypeWithSubs">
<polygon fill="#ffffff" stroke="#000000" points="503,-.5 503,-30.5 642,-30.5 642,-.5 503,-.5"/>
<text text-anchor="start" x="511" y="-18.5" font-family="Helvetica,sans-Serif" font-size="10.00" fill="#000000">omc_Expression_unliftArray</text>
<text text-anchor="middle" x="572.5" y="-7.5" font-family="Helvetica,sans-Serif" font-size="10.00" fill="#000000">TypeWithSubs</text>
</a>
</g>
</g>
<!-- Node1245&#45;&gt;Node1248 -->
<g id="edge11" class="edge">
<title>Node1245&#45;&gt;Node1248</title>
<path fill="none" stroke="#191970" d="M417.8935,-78.8429C438.526,-68.476 472.6803,-51.8358 503,-39.5 507.4931,-37.6719 512.1837,-35.8578 516.9141,-34.0937"/>
<polygon fill="#191970" stroke="#191970" points="518.4313,-37.266 526.6293,-30.5545 516.0353,-30.6888 518.4313,-37.266"/>
</g>
<!-- Node1249 -->
<g id="node13" class="node">
<title>Node1249</title>
<g id="a_node13"><a xlink:href="../../d1/d08/_expression_8c.html#a1e88195201ddbc16bb324633d806a27d" target="_top" xlink:title="omc_Expression_unliftArray">
<polygon fill="#ffffff" stroke="#000000" points="678,-6 678,-25 817,-25 817,-6 678,-6"/>
<text text-anchor="middle" x="747.5" y="-13" font-family="Helvetica,sans-Serif" font-size="10.00" fill="#000000">omc_Expression_unliftArray</text>
</a>
</g>
</g>
<!-- Node1248&#45;&gt;Node1249 -->
<g id="edge12" class="edge">
<title>Node1248&#45;&gt;Node1249</title>
<path fill="none" stroke="#191970" d="M642.1675,-15.5C650.5024,-15.5 659.0628,-15.5 667.5285,-15.5"/>
<polygon fill="#191970" stroke="#191970" points="667.7864,-19.0001 677.7863,-15.5 667.7863,-12.0001 667.7864,-19.0001"/>
</g>
</g>
</svg>
