<?xml version="1.0" encoding="UTF-8" standalone="no"?>
<!DOCTYPE svg PUBLIC "-//W3C//DTD SVG 1.1//EN"
 "http://www.w3.org/Graphics/SVG/1.1/DTD/svg11.dtd">
<!-- Generated by graphviz version 2.40.1 (20161225.0304)
 -->
<!-- Title: omc_SymbolicJacobian_solveConstJacLinearSystem Pages: 1 -->
<svg width="1026pt" height="342pt"
 viewBox="0.00 0.00 1026.00 341.50" xmlns="http://www.w3.org/2000/svg" xmlns:xlink="http://www.w3.org/1999/xlink">
<g id="graph0" class="graph" transform="scale(1 1) rotate(0) translate(4 337.5)">
<title>omc_SymbolicJacobian_solveConstJacLinearSystem</title>
<polygon fill="#ffffff" stroke="transparent" points="-4,4 -4,-337.5 1022,-337.5 1022,4 -4,4"/>
<!-- Node3429 -->
<g id="node1" class="node">
<title>Node3429</title>
<polygon fill="#bfbfbf" stroke="#000000" points="0,-205.5 0,-235.5 147,-235.5 147,-205.5 0,-205.5"/>
<text text-anchor="start" x="8" y="-223.5" font-family="Helvetica,sans-Serif" font-size="10.00" fill="#000000">omc_SymbolicJacobian</text>
<text text-anchor="middle" x="73.5" y="-212.5" font-family="Helvetica,sans-Serif" font-size="10.00" fill="#000000">_solveConstJacLinearSystem</text>
</g>
<!-- Node3430 -->
<g id="node2" class="node">
<title>Node3430</title>
<g id="a_node2"><a xlink:href="../../d2/ddf/_backend_equation_8c.html#a8cadc7b3eaaf06c86188ceccae742d9f" target="_top" xlink:title="omc_BackendEquation\l_listEquation">
<polygon fill="#ffffff" stroke="#000000" points="183,-271.5 183,-301.5 300,-301.5 300,-271.5 183,-271.5"/>
<text text-anchor="start" x="191" y="-289.5" font-family="Helvetica,sans-Serif" font-size="10.00" fill="#000000">omc_BackendEquation</text>
<text text-anchor="middle" x="241.5" y="-278.5" font-family="Helvetica,sans-Serif" font-size="10.00" fill="#000000">_listEquation</text>
</a>
</g>
</g>
<!-- Node3429&#45;&gt;Node3430 -->
<g id="edge1" class="edge">
<title>Node3429&#45;&gt;Node3430</title>
<path fill="none" stroke="#191970" d="M112.0426,-235.6417C136.2663,-245.1582 167.7074,-257.5101 193.5383,-267.6579"/>
<polygon fill="#191970" stroke="#191970" points="192.5494,-271.0298 203.1368,-271.4287 195.109,-264.5145 192.5494,-271.0298"/>
</g>
<!-- Node3432 -->
<g id="node4" class="node">
<title>Node3432</title>
<g id="a_node4"><a xlink:href="../../d2/d57/build_2include_2omc_2c_2meta_2meta__modelica__builtin_8h.html#a6983369f3c3e3e8cc41ac483c9a9baf1" target="_top" xlink:title="listLength">
<polygon fill="#ffffff" stroke="#000000" points="375.5,-235 375.5,-254 434.5,-254 434.5,-235 375.5,-235"/>
<text text-anchor="middle" x="405" y="-242" font-family="Helvetica,sans-Serif" font-size="10.00" fill="#000000">listLength</text>
</a>
</g>
</g>
<!-- Node3429&#45;&gt;Node3432 -->
<g id="edge13" class="edge">
<title>Node3429&#45;&gt;Node3432</title>
<path fill="none" stroke="#191970" d="M147.0706,-225.8264C214.309,-230.6943 311.2218,-237.7106 365.0777,-241.6097"/>
<polygon fill="#191970" stroke="#191970" points="365.0266,-245.1151 375.2533,-242.3464 365.5322,-238.1333 365.0266,-245.1151"/>
</g>
<!-- Node3437 -->
<g id="node9" class="node">
<title>Node3437</title>
<g id="a_node9"><a xlink:href="../../dd/db3/_backend_variable_8c.html#acd26b3dbad834f27db67245f1cde198e" target="_top" xlink:title="omc_BackendVariable\l_listVar1">
<polygon fill="#ffffff" stroke="#000000" points="184.5,-183.5 184.5,-213.5 298.5,-213.5 298.5,-183.5 184.5,-183.5"/>
<text text-anchor="start" x="192.5" y="-201.5" font-family="Helvetica,sans-Serif" font-size="10.00" fill="#000000">omc_BackendVariable</text>
<text text-anchor="middle" x="241.5" y="-190.5" font-family="Helvetica,sans-Serif" font-size="10.00" fill="#000000">_listVar1</text>
</a>
</g>
</g>
<!-- Node3429&#45;&gt;Node3437 -->
<g id="edge8" class="edge">
<title>Node3429&#45;&gt;Node3437</title>
<path fill="none" stroke="#191970" d="M147.1872,-210.8505C156.2191,-209.6677 165.4125,-208.4638 174.3412,-207.2946"/>
<polygon fill="#191970" stroke="#191970" points="174.8259,-210.7611 184.2867,-205.9922 173.9169,-203.8204 174.8259,-210.7611"/>
</g>
<!-- Node3441 -->
<g id="node13" class="node">
<title>Node3441</title>
<g id="a_node13"><a xlink:href="../../d4/dac/_backend_d_a_e_util_8c.html#a1ff207b5d594dbdbed385526e49eaa66" target="_top" xlink:title="omc_BackendDAEUtil\l_getEqnSysRhs">
<polygon fill="#ffffff" stroke="#000000" points="184,-118.5 184,-148.5 299,-148.5 299,-118.5 184,-118.5"/>
<text text-anchor="start" x="192" y="-136.5" font-family="Helvetica,sans-Serif" font-size="10.00" fill="#000000">omc_BackendDAEUtil</text>
<text text-anchor="middle" x="241.5" y="-125.5" font-family="Helvetica,sans-Serif" font-size="10.00" fill="#000000">_getEqnSysRhs</text>
</a>
</g>
</g>
<!-- Node3429&#45;&gt;Node3441 -->
<g id="edge14" class="edge">
<title>Node3429&#45;&gt;Node3441</title>
<path fill="none" stroke="#191970" d="M102.7634,-205.3458C130.6226,-190.9186 172.7097,-169.1235 203.2216,-153.3227"/>
<polygon fill="#191970" stroke="#191970" points="205.0202,-156.3329 212.2906,-148.6263 201.8012,-150.1169 205.0202,-156.3329"/>
</g>
<!-- Node3431 -->
<g id="node3" class="node">
<title>Node3431</title>
<g id="a_node3"><a xlink:href="../../d0/d79/_expandable_array_8c.html#a618eeaec12f9bd192deddeccd49802b4" target="_top" xlink:title="omc_ExpandableArray_new">
<polygon fill="#ffffff" stroke="#000000" points="336,-314 336,-333 474,-333 474,-314 336,-314"/>
<text text-anchor="middle" x="405" y="-321" font-family="Helvetica,sans-Serif" font-size="10.00" fill="#000000">omc_ExpandableArray_new</text>
</a>
</g>
</g>
<!-- Node3430&#45;&gt;Node3431 -->
<g id="edge2" class="edge">
<title>Node3430&#45;&gt;Node3431</title>
<path fill="none" stroke="#191970" d="M300.0654,-299.7533C317.2905,-303.6514 336.0125,-307.8882 352.8103,-311.6895"/>
<polygon fill="#191970" stroke="#191970" points="352.4642,-315.1996 362.9901,-313.9932 354.0093,-308.3722 352.4642,-315.1996"/>
</g>
<!-- Node3430&#45;&gt;Node3432 -->
<g id="edge3" class="edge">
<title>Node3430&#45;&gt;Node3432</title>
<path fill="none" stroke="#191970" d="M300.0654,-271.4557C321.7574,-265.8834 345.8236,-259.7013 365.431,-254.6645"/>
<polygon fill="#191970" stroke="#191970" points="366.427,-258.0224 375.2417,-252.1443 364.6854,-251.2425 366.427,-258.0224"/>
</g>
<!-- Node3433 -->
<g id="node5" class="node">
<title>Node3433</title>
<g id="a_node5"><a xlink:href="../../d0/d79/_expandable_array_8c.html#a37ebf8fb89bacba3366dbd17b30ca1ab" target="_top" xlink:title="omc_ExpandableArray_add">
<polygon fill="#ffffff" stroke="#000000" points="337,-276 337,-295 473,-295 473,-276 337,-276"/>
<text text-anchor="middle" x="405" y="-283" font-family="Helvetica,sans-Serif" font-size="10.00" fill="#000000">omc_ExpandableArray_add</text>
</a>
</g>
</g>
<!-- Node3430&#45;&gt;Node3433 -->
<g id="edge4" class="edge">
<title>Node3430&#45;&gt;Node3433</title>
<path fill="none" stroke="#191970" d="M300.0654,-286.1418C308.7202,-286.0889 317.7529,-286.0336 326.7295,-285.9787"/>
<polygon fill="#191970" stroke="#191970" points="326.8391,-289.4782 336.8175,-285.917 326.7962,-282.4783 326.8391,-289.4782"/>
</g>
<!-- Node3434 -->
<g id="node6" class="node">
<title>Node3434</title>
<g id="a_node6"><a xlink:href="../../d0/d79/_expandable_array_8c.html#a29ede1644133c0f09bca7fdc1a87da55" target="_top" xlink:title="omc_ExpandableArray_set">
<polygon fill="#ffffff" stroke="#000000" points="512,-276 512,-295 646,-295 646,-276 512,-276"/>
<text text-anchor="middle" x="579" y="-283" font-family="Helvetica,sans-Serif" font-size="10.00" fill="#000000">omc_ExpandableArray_set</text>
</a>
</g>
</g>
<!-- Node3433&#45;&gt;Node3434 -->
<g id="edge5" class="edge">
<title>Node3433&#45;&gt;Node3434</title>
<path fill="none" stroke="#191970" d="M473.27,-285.5C482.5693,-285.5 492.1682,-285.5 501.6142,-285.5"/>
<polygon fill="#191970" stroke="#191970" points="501.7825,-289.0001 511.7825,-285.5 501.7825,-282.0001 501.7825,-289.0001"/>
</g>
<!-- Node3435 -->
<g id="node7" class="node">
<title>Node3435</title>
<g id="a_node7"><a xlink:href="../../d0/d79/_expandable_array_8c.html#ab7fab390a4e8bf3f3325376f6d8459f0" target="_top" xlink:title="omc_ExpandableArray\l_expandToSize">
<polygon fill="#ffffff" stroke="#000000" points="701,-270.5 701,-300.5 816,-300.5 816,-270.5 701,-270.5"/>
<text text-anchor="start" x="709" y="-288.5" font-family="Helvetica,sans-Serif" font-size="10.00" fill="#000000">omc_ExpandableArray</text>
<text text-anchor="middle" x="758.5" y="-277.5" font-family="Helvetica,sans-Serif" font-size="10.00" fill="#000000">_expandToSize</text>
</a>
</g>
</g>
<!-- Node3434&#45;&gt;Node3435 -->
<g id="edge6" class="edge">
<title>Node3434&#45;&gt;Node3435</title>
<path fill="none" stroke="#191970" d="M646.0944,-285.5C660.5979,-285.5 675.946,-285.5 690.4845,-285.5"/>
<polygon fill="#191970" stroke="#191970" points="690.9041,-289.0001 700.904,-285.5 690.904,-282.0001 690.9041,-289.0001"/>
</g>
<!-- Node3436 -->
<g id="node8" class="node">
<title>Node3436</title>
<g id="a_node8"><a xlink:href="../../da/d17/_array_8c.html#a40ebd9c91c25ca91511bed61818384d4" target="_top" xlink:title="omc_Array_expandToSize">
<polygon fill="#ffffff" stroke="#000000" points="878,-276 878,-295 1009,-295 1009,-276 878,-276"/>
<text text-anchor="middle" x="943.5" y="-283" font-family="Helvetica,sans-Serif" font-size="10.00" fill="#000000">omc_Array_expandToSize</text>
</a>
</g>
</g>
<!-- Node3435&#45;&gt;Node3436 -->
<g id="edge7" class="edge">
<title>Node3435&#45;&gt;Node3436</title>
<path fill="none" stroke="#191970" d="M816.0211,-285.5C832.4244,-285.5 850.5488,-285.5 867.8581,-285.5"/>
<polygon fill="#191970" stroke="#191970" points="867.9362,-289.0001 877.9362,-285.5 867.9362,-282.0001 867.9362,-289.0001"/>
</g>
<!-- Node3437&#45;&gt;Node3432 -->
<g id="edge9" class="edge">
<title>Node3437&#45;&gt;Node3432</title>
<path fill="none" stroke="#191970" d="M293.959,-213.5851C307.6369,-217.4918 322.3643,-221.6748 336,-225.5 345.5893,-228.1901 355.9381,-231.0583 365.6309,-233.7294"/>
<polygon fill="#191970" stroke="#191970" points="364.8647,-237.1486 375.4348,-236.4258 366.721,-230.3992 364.8647,-237.1486"/>
</g>
<!-- Node3438 -->
<g id="node10" class="node">
<title>Node3438</title>
<g id="a_node10"><a xlink:href="../../da/d72/_compiler_2boot_2build_2list_8c.html#a3ec1ee3a5ff53be9af368e290be09182" target="_top" xlink:title="omc_List_fold">
<polygon fill="#ffffff" stroke="#000000" points="366.5,-197 366.5,-216 443.5,-216 443.5,-197 366.5,-197"/>
<text text-anchor="middle" x="405" y="-204" font-family="Helvetica,sans-Serif" font-size="10.00" fill="#000000">omc_List_fold</text>
</a>
</g>
</g>
<!-- Node3437&#45;&gt;Node3438 -->
<g id="edge10" class="edge">
<title>Node3437&#45;&gt;Node3438</title>
<path fill="none" stroke="#191970" d="M298.6844,-201.298C317.4004,-202.2138 338.0102,-203.2222 356.0611,-204.1054"/>
<polygon fill="#191970" stroke="#191970" points="355.9187,-207.6026 366.0778,-204.5956 356.2609,-200.6109 355.9187,-207.6026"/>
</g>
<!-- Node3439 -->
<g id="node11" class="node">
<title>Node3439</title>
<g id="a_node11"><a xlink:href="../../dd/db3/_backend_variable_8c.html#a34244689845afbbb5b480bcf6d00abaa" target="_top" xlink:title="omc_BackendVariable\l_emptyVarsSized">
<polygon fill="#ffffff" stroke="#000000" points="348,-147.5 348,-177.5 462,-177.5 462,-147.5 348,-147.5"/>
<text text-anchor="start" x="356" y="-165.5" font-family="Helvetica,sans-Serif" font-size="10.00" fill="#000000">omc_BackendVariable</text>
<text text-anchor="middle" x="405" y="-154.5" font-family="Helvetica,sans-Serif" font-size="10.00" fill="#000000">_emptyVarsSized</text>
</a>
</g>
</g>
<!-- Node3437&#45;&gt;Node3439 -->
<g id="edge11" class="edge">
<title>Node3437&#45;&gt;Node3439</title>
<path fill="none" stroke="#191970" d="M298.6844,-185.9089C311.3795,-183.1137 324.9459,-180.1266 337.994,-177.2536"/>
<polygon fill="#191970" stroke="#191970" points="338.8345,-180.6525 347.8479,-175.0839 337.3292,-173.8162 338.8345,-180.6525"/>
</g>
<!-- Node3440 -->
<g id="node12" class="node">
<title>Node3440</title>
<g id="a_node12"><a xlink:href="../../dd/db3/_backend_variable_8c.html#afc09793450257c719c63d47a4703dbcc" target="_top" xlink:title="omc_BackendVariable\l_emptyVars">
<polygon fill="#ffffff" stroke="#000000" points="522,-147.5 522,-177.5 636,-177.5 636,-147.5 522,-147.5"/>
<text text-anchor="start" x="530" y="-165.5" font-family="Helvetica,sans-Serif" font-size="10.00" fill="#000000">omc_BackendVariable</text>
<text text-anchor="middle" x="579" y="-154.5" font-family="Helvetica,sans-Serif" font-size="10.00" fill="#000000">_emptyVars</text>
</a>
</g>
</g>
<!-- Node3439&#45;&gt;Node3440 -->
<g id="edge12" class="edge">
<title>Node3439&#45;&gt;Node3440</title>
<path fill="none" stroke="#191970" d="M462.4563,-162.5C478.2776,-162.5 495.5779,-162.5 511.8922,-162.5"/>
<polygon fill="#191970" stroke="#191970" points="511.9008,-166.0001 521.9007,-162.5 511.9007,-159.0001 511.9008,-166.0001"/>
</g>
<!-- Node3442 -->
<g id="node14" class="node">
<title>Node3442</title>
<g id="a_node14"><a xlink:href="../../d4/dac/_backend_d_a_e_util_8c.html#a95b58769869f59eab844b7bdfa6be9c2" target="_top" xlink:title="omc_BackendDAEUtil\l_makeZeroReplacements">
<polygon fill="#ffffff" stroke="#000000" points="341,-98.5 341,-128.5 469,-128.5 469,-98.5 341,-98.5"/>
<text text-anchor="start" x="349" y="-116.5" font-family="Helvetica,sans-Serif" font-size="10.00" fill="#000000">omc_BackendDAEUtil</text>
<text text-anchor="middle" x="405" y="-105.5" font-family="Helvetica,sans-Serif" font-size="10.00" fill="#000000">_makeZeroReplacements</text>
</a>
</g>
</g>
<!-- Node3441&#45;&gt;Node3442 -->
<g id="edge15" class="edge">
<title>Node3441&#45;&gt;Node3442</title>
<path fill="none" stroke="#191970" d="M299.144,-126.4487C309.3858,-125.1959 320.182,-123.8753 330.8065,-122.5757"/>
<polygon fill="#191970" stroke="#191970" points="331.4156,-126.0273 340.9166,-121.3389 330.5656,-119.0791 331.4156,-126.0273"/>
</g>
<!-- Node3443 -->
<g id="node15" class="node">
<title>Node3443</title>
<g id="a_node15"><a xlink:href="../../dd/db3/_backend_variable_8c.html#a6cc3f385b115a74d5dda4174d971398a" target="_top" xlink:title="omc_BackendVariable\l_traverseBackendDAEVars">
<polygon fill="#ffffff" stroke="#000000" points="510.5,-98.5 510.5,-128.5 647.5,-128.5 647.5,-98.5 510.5,-98.5"/>
<text text-anchor="start" x="518.5" y="-116.5" font-family="Helvetica,sans-Serif" font-size="10.00" fill="#000000">omc_BackendVariable</text>
<text text-anchor="middle" x="579" y="-105.5" font-family="Helvetica,sans-Serif" font-size="10.00" fill="#000000">_traverseBackendDAEVars</text>
</a>
</g>
</g>
<!-- Node3442&#45;&gt;Node3443 -->
<g id="edge16" class="edge">
<title>Node3442&#45;&gt;Node3443</title>
<path fill="none" stroke="#191970" d="M469.2968,-113.5C479.3165,-113.5 489.7682,-113.5 500.0678,-113.5"/>
<polygon fill="#191970" stroke="#191970" points="500.295,-117.0001 510.295,-113.5 500.295,-110.0001 500.295,-117.0001"/>
</g>
<!-- Node3445 -->
<g id="node17" class="node">
<title>Node3445</title>
<g id="a_node17"><a xlink:href="../../db/dee/_backend_var_transform_8c.html#a3a1179a90812a63eb5936e633674ef61" target="_top" xlink:title="omc_BackendVarTransform\l_emptyReplacements">
<polygon fill="#ffffff" stroke="#000000" points="510,-49.5 510,-79.5 648,-79.5 648,-49.5 510,-49.5"/>
<text text-anchor="start" x="518" y="-67.5" font-family="Helvetica,sans-Serif" font-size="10.00" fill="#000000">omc_BackendVarTransform</text>
<text text-anchor="middle" x="579" y="-56.5" font-family="Helvetica,sans-Serif" font-size="10.00" fill="#000000">_emptyReplacements</text>
</a>
</g>
</g>
<!-- Node3442&#45;&gt;Node3445 -->
<g id="edge18" class="edge">
<title>Node3442&#45;&gt;Node3445</title>
<path fill="none" stroke="#191970" d="M458.6255,-98.3986C476.7374,-93.2981 497.1238,-87.5571 515.9001,-82.2695"/>
<polygon fill="#191970" stroke="#191970" points="516.8747,-85.6313 525.5515,-79.5516 514.9772,-78.8933 516.8747,-85.6313"/>
</g>
<!-- Node3444 -->
<g id="node16" class="node">
<title>Node3444</title>
<g id="a_node16"><a xlink:href="../../d4/dac/_backend_d_a_e_util_8c.html#ae83a02fe31cfc99aec2cd9fb2b16eab9" target="_top" xlink:title="omc_BackendDAEUtil\l_traverseArrayNoCopy">
<polygon fill="#ffffff" stroke="#000000" points="700.5,-98.5 700.5,-128.5 816.5,-128.5 816.5,-98.5 700.5,-98.5"/>
<text text-anchor="start" x="708.5" y="-116.5" font-family="Helvetica,sans-Serif" font-size="10.00" fill="#000000">omc_BackendDAEUtil</text>
<text text-anchor="middle" x="758.5" y="-105.5" font-family="Helvetica,sans-Serif" font-size="10.00" fill="#000000">_traverseArrayNoCopy</text>
</a>
</g>
</g>
<!-- Node3443&#45;&gt;Node3444 -->
<g id="edge17" class="edge">
<title>Node3443&#45;&gt;Node3444</title>
<path fill="none" stroke="#191970" d="M647.6296,-113.5C661.6465,-113.5 676.392,-113.5 690.3906,-113.5"/>
<polygon fill="#191970" stroke="#191970" points="690.4307,-117.0001 700.4307,-113.5 690.4306,-110.0001 690.4307,-117.0001"/>
</g>
<!-- Node3446 -->
<g id="node18" class="node">
<title>Node3446</title>
<g id="a_node18"><a xlink:href="../../d1/d05/_hash_table2_8c.html#a42a7e1914511622b42bf8f450ca37936" target="_top" xlink:title="omc_HashTable2_emptyHash\lTable">
<polygon fill="#ffffff" stroke="#000000" points="684,-49.5 684,-79.5 833,-79.5 833,-49.5 684,-49.5"/>
<text text-anchor="start" x="692" y="-67.5" font-family="Helvetica,sans-Serif" font-size="10.00" fill="#000000">omc_HashTable2_emptyHash</text>
<text text-anchor="middle" x="758.5" y="-56.5" font-family="Helvetica,sans-Serif" font-size="10.00" fill="#000000">Table</text>
</a>
</g>
</g>
<!-- Node3445&#45;&gt;Node3446 -->
<g id="edge19" class="edge">
<title>Node3445&#45;&gt;Node3446</title>
<path fill="none" stroke="#191970" d="M648.1426,-64.5C656.5188,-64.5 665.1482,-64.5 673.717,-64.5"/>
<polygon fill="#191970" stroke="#191970" points="673.7294,-68.0001 683.7294,-64.5 673.7294,-61.0001 673.7294,-68.0001"/>
</g>
<!-- Node3448 -->
<g id="node20" class="node">
<title>Node3448</title>
<g id="a_node20"><a xlink:href="../../d8/d4f/_hash_table3_8c.html#a29a425bc40afc1461fdc6eb9e3bb4522" target="_top" xlink:title="omc_HashTable3_emptyHash\lTable">
<polygon fill="#ffffff" stroke="#000000" points="684,-.5 684,-30.5 833,-30.5 833,-.5 684,-.5"/>
<text text-anchor="start" x="692" y="-18.5" font-family="Helvetica,sans-Serif" font-size="10.00" fill="#000000">omc_HashTable3_emptyHash</text>
<text text-anchor="middle" x="758.5" y="-7.5" font-family="Helvetica,sans-Serif" font-size="10.00" fill="#000000">Table</text>
</a>
</g>
</g>
<!-- Node3445&#45;&gt;Node3448 -->
<g id="edge21" class="edge">
<title>Node3445&#45;&gt;Node3448</title>
<path fill="none" stroke="#191970" d="M634.3206,-49.3986C653.0906,-44.2747 674.2287,-38.5044 693.672,-33.1968"/>
<polygon fill="#191970" stroke="#191970" points="694.6368,-36.5616 703.3621,-30.5516 692.7933,-29.8086 694.6368,-36.5616"/>
</g>
<!-- Node3447 -->
<g id="node19" class="node">
<title>Node3447</title>
<g id="a_node19"><a xlink:href="../../d1/d05/_hash_table2_8c.html#acbd9bdb0d74d572d5a8c1b74045817a4" target="_top" xlink:title="omc_HashTable2_emptyHash\lTableSized">
<polygon fill="#ffffff" stroke="#000000" points="869,-49.5 869,-79.5 1018,-79.5 1018,-49.5 869,-49.5"/>
<text text-anchor="start" x="877" y="-67.5" font-family="Helvetica,sans-Serif" font-size="10.00" fill="#000000">omc_HashTable2_emptyHash</text>
<text text-anchor="middle" x="943.5" y="-56.5" font-family="Helvetica,sans-Serif" font-size="10.00" fill="#000000">TableSized</text>
</a>
</g>
</g>
<!-- Node3446&#45;&gt;Node3447 -->
<g id="edge20" class="edge">
<title>Node3446&#45;&gt;Node3447</title>
<path fill="none" stroke="#191970" d="M833.2133,-64.5C841.5547,-64.5 850.0967,-64.5 858.5539,-64.5"/>
<polygon fill="#191970" stroke="#191970" points="858.8086,-68.0001 868.8085,-64.5 858.8085,-61.0001 858.8086,-68.0001"/>
</g>
<!-- Node3449 -->
<g id="node21" class="node">
<title>Node3449</title>
<g id="a_node21"><a xlink:href="../../d8/d4f/_hash_table3_8c.html#ab307e92b3ed417a4da95481a3bedd91b" target="_top" xlink:title="omc_HashTable3_emptyHash\lTableSized">
<polygon fill="#ffffff" stroke="#000000" points="869,-.5 869,-30.5 1018,-30.5 1018,-.5 869,-.5"/>
<text text-anchor="start" x="877" y="-18.5" font-family="Helvetica,sans-Serif" font-size="10.00" fill="#000000">omc_HashTable3_emptyHash</text>
<text text-anchor="middle" x="943.5" y="-7.5" font-family="Helvetica,sans-Serif" font-size="10.00" fill="#000000">TableSized</text>
</a>
</g>
</g>
<!-- Node3448&#45;&gt;Node3449 -->
<g id="edge22" class="edge">
<title>Node3448&#45;&gt;Node3449</title>
<path fill="none" stroke="#191970" d="M833.2133,-15.5C841.5547,-15.5 850.0967,-15.5 858.5539,-15.5"/>
<polygon fill="#191970" stroke="#191970" points="858.8086,-19.0001 868.8085,-15.5 858.8085,-12.0001 858.8086,-19.0001"/>
</g>
</g>
</svg>
