<?xml version="1.0" encoding="UTF-8" standalone="no"?>
<!DOCTYPE svg PUBLIC "-//W3C//DTD SVG 1.1//EN"
 "http://www.w3.org/Graphics/SVG/1.1/DTD/svg11.dtd">
<!-- Generated by graphviz version 2.40.1 (20161225.0304)
 -->
<!-- Title: omc_SymbolicJacobian_inputDerivativesUsed Pages: 1 -->
<svg width="906pt" height="137pt"
 viewBox="0.00 0.00 906.00 137.00" xmlns="http://www.w3.org/2000/svg" xmlns:xlink="http://www.w3.org/1999/xlink">
<g id="graph0" class="graph" transform="scale(1 1) rotate(0) translate(4 133)">
<title>omc_SymbolicJacobian_inputDerivativesUsed</title>
<polygon fill="#ffffff" stroke="transparent" points="-4,4 -4,-133 902,-133 902,4 -4,4"/>
<!-- Node3221 -->
<g id="node1" class="node">
<title>Node3221</title>
<polygon fill="#bfbfbf" stroke="#000000" points="0,-71.5 0,-101.5 120,-101.5 120,-71.5 0,-71.5"/>
<text text-anchor="start" x="8" y="-89.5" font-family="Helvetica,sans-Serif" font-size="10.00" fill="#000000">omc_SymbolicJacobian</text>
<text text-anchor="middle" x="60" y="-78.5" font-family="Helvetica,sans-Serif" font-size="10.00" fill="#000000">_inputDerivativesUsed</text>
</g>
<!-- Node3222 -->
<g id="node2" class="node">
<title>Node3222</title>
<g id="a_node2"><a xlink:href="../../d4/dac/_backend_d_a_e_util_8c.html#ab12439874a5020e18e4c312e00648a70" target="_top" xlink:title="omc_BackendDAEUtil\l_mapEqSystemAndFold">
<polygon fill="#ffffff" stroke="#000000" points="156,-71.5 156,-101.5 278,-101.5 278,-71.5 156,-71.5"/>
<text text-anchor="start" x="164" y="-89.5" font-family="Helvetica,sans-Serif" font-size="10.00" fill="#000000">omc_BackendDAEUtil</text>
<text text-anchor="middle" x="217" y="-78.5" font-family="Helvetica,sans-Serif" font-size="10.00" fill="#000000">_mapEqSystemAndFold</text>
</a>
</g>
</g>
<!-- Node3221&#45;&gt;Node3222 -->
<g id="edge1" class="edge">
<title>Node3221&#45;&gt;Node3222</title>
<path fill="none" stroke="#191970" d="M120.2513,-86.5C128.5508,-86.5 137.1384,-86.5 145.6145,-86.5"/>
<polygon fill="#191970" stroke="#191970" points="145.8713,-90.0001 155.8712,-86.5 145.8712,-83.0001 145.8713,-90.0001"/>
</g>
<!-- Node3223 -->
<g id="node3" class="node">
<title>Node3223</title>
<g id="a_node3"><a xlink:href="../../da/d72/_compiler_2boot_2build_2list_8c.html#a2ec120ab2c258646e106385ac9098756" target="_top" xlink:title="omc_List_mapFold2">
<polygon fill="#ffffff" stroke="#000000" points="319.5,-99 319.5,-118 423.5,-118 423.5,-99 319.5,-99"/>
<text text-anchor="middle" x="371.5" y="-106" font-family="Helvetica,sans-Serif" font-size="10.00" fill="#000000">omc_List_mapFold2</text>
</a>
</g>
</g>
<!-- Node3222&#45;&gt;Node3223 -->
<g id="edge2" class="edge">
<title>Node3222&#45;&gt;Node3223</title>
<path fill="none" stroke="#191970" d="M278.0625,-95.195C288.3106,-96.6543 298.9566,-98.1702 309.2347,-99.6337"/>
<polygon fill="#191970" stroke="#191970" points="308.9681,-103.131 319.3616,-101.0758 309.9549,-96.2009 308.9681,-103.131"/>
</g>
<!-- Node3224 -->
<g id="node4" class="node">
<title>Node3224</title>
<g id="a_node4"><a xlink:href="../../d4/dac/_backend_d_a_e_util_8c.html#a2c104e83aae03949a285ce6ca7d3cf46" target="_top" xlink:title="omc_BackendDAEUtil\l_filterEmptySystems">
<polygon fill="#ffffff" stroke="#000000" points="314,-49.5 314,-79.5 429,-79.5 429,-49.5 314,-49.5"/>
<text text-anchor="start" x="322" y="-67.5" font-family="Helvetica,sans-Serif" font-size="10.00" fill="#000000">omc_BackendDAEUtil</text>
<text text-anchor="middle" x="371.5" y="-56.5" font-family="Helvetica,sans-Serif" font-size="10.00" fill="#000000">_filterEmptySystems</text>
</a>
</g>
</g>
<!-- Node3222&#45;&gt;Node3224 -->
<g id="edge3" class="edge">
<title>Node3222&#45;&gt;Node3224</title>
<path fill="none" stroke="#191970" d="M278.0625,-77.805C286.5499,-76.5965 295.3102,-75.349 303.9083,-74.1247"/>
<polygon fill="#191970" stroke="#191970" points="304.4946,-77.5766 313.9013,-72.7018 303.5077,-70.6465 304.4946,-77.5766"/>
</g>
<!-- Node3225 -->
<g id="node5" class="node">
<title>Node3225</title>
<g id="a_node5"><a xlink:href="../../d4/dac/_backend_d_a_e_util_8c.html#aeb18ce62a48d458961425227b4d09b54" target="_top" xlink:title="omc_BackendDAEUtil\l_filterEmptySystem">
<polygon fill="#ffffff" stroke="#000000" points="465,-49.5 465,-79.5 580,-79.5 580,-49.5 465,-49.5"/>
<text text-anchor="start" x="473" y="-67.5" font-family="Helvetica,sans-Serif" font-size="10.00" fill="#000000">omc_BackendDAEUtil</text>
<text text-anchor="middle" x="522.5" y="-56.5" font-family="Helvetica,sans-Serif" font-size="10.00" fill="#000000">_filterEmptySystem</text>
</a>
</g>
</g>
<!-- Node3224&#45;&gt;Node3225 -->
<g id="edge4" class="edge">
<title>Node3224&#45;&gt;Node3225</title>
<path fill="none" stroke="#191970" d="M429.0174,-64.5C437.4639,-64.5 446.2292,-64.5 454.8561,-64.5"/>
<polygon fill="#191970" stroke="#191970" points="454.8926,-68.0001 464.8925,-64.5 454.8925,-61.0001 454.8926,-68.0001"/>
</g>
<!-- Node3226 -->
<g id="node6" class="node">
<title>Node3226</title>
<g id="a_node6"><a xlink:href="../../dd/db3/_backend_variable_8c.html#a53a6656a860a335c4f7ccb5ed2844c9d" target="_top" xlink:title="omc_BackendVariable\l_varsSize">
<polygon fill="#ffffff" stroke="#000000" points="621,-98.5 621,-128.5 735,-128.5 735,-98.5 621,-98.5"/>
<text text-anchor="start" x="629" y="-116.5" font-family="Helvetica,sans-Serif" font-size="10.00" fill="#000000">omc_BackendVariable</text>
<text text-anchor="middle" x="678" y="-105.5" font-family="Helvetica,sans-Serif" font-size="10.00" fill="#000000">_varsSize</text>
</a>
</g>
</g>
<!-- Node3225&#45;&gt;Node3226 -->
<g id="edge5" class="edge">
<title>Node3225&#45;&gt;Node3226</title>
<path fill="none" stroke="#191970" d="M570.424,-79.6014C586.3131,-84.6083 604.1611,-90.2324 620.6839,-95.439"/>
<polygon fill="#191970" stroke="#191970" points="619.6447,-98.7811 630.2343,-98.4484 621.7485,-92.1047 619.6447,-98.7811"/>
</g>
<!-- Node3227 -->
<g id="node7" class="node">
<title>Node3227</title>
<g id="a_node7"><a xlink:href="../../d4/dac/_backend_d_a_e_util_8c.html#aafe35b10cf3334dc468f1e8ea95d0c9d" target="_top" xlink:title="omc_BackendDAEUtil\l_isClockedSyst">
<polygon fill="#ffffff" stroke="#000000" points="620.5,-49.5 620.5,-79.5 735.5,-79.5 735.5,-49.5 620.5,-49.5"/>
<text text-anchor="start" x="628.5" y="-67.5" font-family="Helvetica,sans-Serif" font-size="10.00" fill="#000000">omc_BackendDAEUtil</text>
<text text-anchor="middle" x="678" y="-56.5" font-family="Helvetica,sans-Serif" font-size="10.00" fill="#000000">_isClockedSyst</text>
</a>
</g>
</g>
<!-- Node3225&#45;&gt;Node3227 -->
<g id="edge6" class="edge">
<title>Node3225&#45;&gt;Node3227</title>
<path fill="none" stroke="#191970" d="M580.4025,-64.5C590.0797,-64.5 600.1965,-64.5 610.0968,-64.5"/>
<polygon fill="#191970" stroke="#191970" points="610.3082,-68.0001 620.3082,-64.5 610.3081,-61.0001 610.3082,-68.0001"/>
</g>
<!-- Node3228 -->
<g id="node8" class="node">
<title>Node3228</title>
<g id="a_node8"><a xlink:href="../../d2/ddf/_backend_equation_8c.html#a832b8ecfb9524e33566b3eade51015be" target="_top" xlink:title="omc_BackendEquation\l_getNumberOfEquations">
<polygon fill="#ffffff" stroke="#000000" points="616,-.5 616,-30.5 740,-30.5 740,-.5 616,-.5"/>
<text text-anchor="start" x="624" y="-18.5" font-family="Helvetica,sans-Serif" font-size="10.00" fill="#000000">omc_BackendEquation</text>
<text text-anchor="middle" x="678" y="-7.5" font-family="Helvetica,sans-Serif" font-size="10.00" fill="#000000">_getNumberOfEquations</text>
</a>
</g>
</g>
<!-- Node3225&#45;&gt;Node3228 -->
<g id="edge7" class="edge">
<title>Node3225&#45;&gt;Node3228</title>
<path fill="none" stroke="#191970" d="M570.424,-49.3986C586.3131,-44.3917 604.1611,-38.7676 620.6839,-33.561"/>
<polygon fill="#191970" stroke="#191970" points="621.7485,-36.8953 630.2343,-30.5516 619.6447,-30.2189 621.7485,-36.8953"/>
</g>
<!-- Node3229 -->
<g id="node9" class="node">
<title>Node3229</title>
<g id="a_node9"><a xlink:href="../../d0/d79/_expandable_array_8c.html#a506665edc3112e1912dc267b2b410b0a" target="_top" xlink:title="omc_ExpandableArray\l_getNumberOfElements">
<polygon fill="#ffffff" stroke="#000000" points="776,-.5 776,-30.5 898,-30.5 898,-.5 776,-.5"/>
<text text-anchor="start" x="784" y="-18.5" font-family="Helvetica,sans-Serif" font-size="10.00" fill="#000000">omc_ExpandableArray</text>
<text text-anchor="middle" x="837" y="-7.5" font-family="Helvetica,sans-Serif" font-size="10.00" fill="#000000">_getNumberOfElements</text>
</a>
</g>
</g>
<!-- Node3228&#45;&gt;Node3229 -->
<g id="edge8" class="edge">
<title>Node3228&#45;&gt;Node3229</title>
<path fill="none" stroke="#191970" d="M740.3847,-15.5C748.6729,-15.5 757.2217,-15.5 765.6472,-15.5"/>
<polygon fill="#191970" stroke="#191970" points="765.8374,-19.0001 775.8374,-15.5 765.8373,-12.0001 765.8374,-19.0001"/>
</g>
</g>
</svg>
