<?xml version="1.0" encoding="UTF-8" standalone="no"?>
<!DOCTYPE svg PUBLIC "-//W3C//DTD SVG 1.1//EN"
 "http://www.w3.org/Graphics/SVG/1.1/DTD/svg11.dtd">
<!-- Generated by graphviz version 2.40.1 (20161225.0304)
 -->
<!-- Title: boxptr_SymbolicJacobian_calculateJacobianRowLst Pages: 1 -->
<svg width="995pt" height="318pt"
 viewBox="0.00 0.00 995.00 318.00" xmlns="http://www.w3.org/2000/svg" xmlns:xlink="http://www.w3.org/1999/xlink">
<g id="graph0" class="graph" transform="scale(1 1) rotate(0) translate(4 314)">
<title>boxptr_SymbolicJacobian_calculateJacobianRowLst</title>
<polygon fill="#ffffff" stroke="transparent" points="-4,4 -4,-314 991,-314 991,4 -4,4"/>
<!-- Node100 -->
<g id="node1" class="node">
<title>Node100</title>
<polygon fill="#bfbfbf" stroke="#000000" points="0,-181.5 0,-211.5 134,-211.5 134,-181.5 0,-181.5"/>
<text text-anchor="start" x="8" y="-199.5" font-family="Helvetica,sans-Serif" font-size="10.00" fill="#000000">boxptr_SymbolicJacobian</text>
<text text-anchor="middle" x="67" y="-188.5" font-family="Helvetica,sans-Serif" font-size="10.00" fill="#000000">_calculateJacobianRowLst</text>
</g>
<!-- Node101 -->
<g id="node2" class="node">
<title>Node101</title>
<g id="a_node2"><a xlink:href="../../d2/d88/_symbolic_jacobian_8c.html#ae7020cfa2acbe7bcb4372c0aa989cfee" target="_top" xlink:title="omc_SymbolicJacobian\l_calculateJacobianRowLst">
<polygon fill="#ffffff" stroke="#000000" points="170,-181.5 170,-211.5 304,-211.5 304,-181.5 170,-181.5"/>
<text text-anchor="start" x="178" y="-199.5" font-family="Helvetica,sans-Serif" font-size="10.00" fill="#000000">omc_SymbolicJacobian</text>
<text text-anchor="middle" x="237" y="-188.5" font-family="Helvetica,sans-Serif" font-size="10.00" fill="#000000">_calculateJacobianRowLst</text>
</a>
</g>
</g>
<!-- Node100&#45;&gt;Node101 -->
<g id="edge1" class="edge">
<title>Node100&#45;&gt;Node101</title>
<path fill="none" stroke="#191970" d="M134.1885,-196.5C142.5021,-196.5 151.0537,-196.5 159.5056,-196.5"/>
<polygon fill="#191970" stroke="#191970" points="159.7429,-200.0001 169.7428,-196.5 159.7428,-193.0001 159.7429,-200.0001"/>
</g>
<!-- Node102 -->
<g id="node3" class="node">
<title>Node102</title>
<g id="a_node3"><a xlink:href="../../d2/d88/_symbolic_jacobian_8c.html#a136e1f53c6fc7f7cb23c71b7380d6773" target="_top" xlink:title="omc_SymbolicJacobian\l_calculateJacobianRow2">
<polygon fill="#ffffff" stroke="#000000" points="340,-181.5 340,-211.5 465,-211.5 465,-181.5 340,-181.5"/>
<text text-anchor="start" x="348" y="-199.5" font-family="Helvetica,sans-Serif" font-size="10.00" fill="#000000">omc_SymbolicJacobian</text>
<text text-anchor="middle" x="402.5" y="-188.5" font-family="Helvetica,sans-Serif" font-size="10.00" fill="#000000">_calculateJacobianRow2</text>
</a>
</g>
</g>
<!-- Node101&#45;&gt;Node102 -->
<g id="edge2" class="edge">
<title>Node101&#45;&gt;Node102</title>
<path fill="none" stroke="#191970" d="M304.3152,-196.5C312.6498,-196.5 321.2009,-196.5 329.6141,-196.5"/>
<polygon fill="#191970" stroke="#191970" points="329.7841,-200.0001 339.7841,-196.5 329.784,-193.0001 329.7841,-200.0001"/>
</g>
<!-- Node103 -->
<g id="node4" class="node">
<title>Node103</title>
<g id="a_node4"><a xlink:href="../../dd/db3/_backend_variable_8c.html#a6510457ed8c66520afe9c2f99c9f413f" target="_top" xlink:title="omc_BackendVariable\l_getVarAt">
<polygon fill="#ffffff" stroke="#000000" points="512,-279.5 512,-309.5 626,-309.5 626,-279.5 512,-279.5"/>
<text text-anchor="start" x="520" y="-297.5" font-family="Helvetica,sans-Serif" font-size="10.00" fill="#000000">omc_BackendVariable</text>
<text text-anchor="middle" x="569" y="-286.5" font-family="Helvetica,sans-Serif" font-size="10.00" fill="#000000">_getVarAt</text>
</a>
</g>
</g>
<!-- Node102&#45;&gt;Node103 -->
<g id="edge3" class="edge">
<title>Node102&#45;&gt;Node103</title>
<path fill="none" stroke="#191970" d="M419.1977,-211.5865C437.9645,-227.9109 469.891,-253.8347 501,-270.5 504.2244,-272.2274 507.5987,-273.873 511.0465,-275.4332"/>
<polygon fill="#191970" stroke="#191970" points="509.7201,-278.6724 520.2926,-279.3607 512.4569,-272.2296 509.7201,-278.6724"/>
</g>
<!-- Node105 -->
<g id="node6" class="node">
<title>Node105</title>
<g id="a_node6"><a xlink:href="../../dd/db3/_backend_variable_8c.html#aaae285cce81ea42125d84b7886614646" target="_top" xlink:title="omc_BackendVariable\l_varCref">
<polygon fill="#ffffff" stroke="#000000" points="512,-230.5 512,-260.5 626,-260.5 626,-230.5 512,-230.5"/>
<text text-anchor="start" x="520" y="-248.5" font-family="Helvetica,sans-Serif" font-size="10.00" fill="#000000">omc_BackendVariable</text>
<text text-anchor="middle" x="569" y="-237.5" font-family="Helvetica,sans-Serif" font-size="10.00" fill="#000000">_varCref</text>
</a>
</g>
</g>
<!-- Node102&#45;&gt;Node105 -->
<g id="edge5" class="edge">
<title>Node102&#45;&gt;Node105</title>
<path fill="none" stroke="#191970" d="M453.8141,-211.6014C470.9862,-216.6551 490.2952,-222.3376 508.125,-227.5848"/>
<polygon fill="#191970" stroke="#191970" points="507.274,-230.9828 517.8554,-230.4484 509.2503,-224.2675 507.274,-230.9828"/>
</g>
<!-- Node106 -->
<g id="node7" class="node">
<title>Node106</title>
<g id="a_node7"><a xlink:href="../../dd/db3/_backend_variable_8c.html#a0d415f9f05450096770ed0d620930cbe" target="_top" xlink:title="omc_BackendVariable\l_isStateVar">
<polygon fill="#ffffff" stroke="#000000" points="512,-181.5 512,-211.5 626,-211.5 626,-181.5 512,-181.5"/>
<text text-anchor="start" x="520" y="-199.5" font-family="Helvetica,sans-Serif" font-size="10.00" fill="#000000">omc_BackendVariable</text>
<text text-anchor="middle" x="569" y="-188.5" font-family="Helvetica,sans-Serif" font-size="10.00" fill="#000000">_isStateVar</text>
</a>
</g>
</g>
<!-- Node102&#45;&gt;Node106 -->
<g id="edge6" class="edge">
<title>Node102&#45;&gt;Node106</title>
<path fill="none" stroke="#191970" d="M465.4465,-196.5C477.27,-196.5 489.6753,-196.5 501.6272,-196.5"/>
<polygon fill="#191970" stroke="#191970" points="501.9877,-200.0001 511.9877,-196.5 501.9876,-193.0001 501.9877,-200.0001"/>
</g>
<!-- Node107 -->
<g id="node8" class="node">
<title>Node107</title>
<g id="a_node8"><a xlink:href="../../d9/d14/_component_reference_8c.html#afabbe0f81f63e590b6a3ce065d1e2d84" target="_top" xlink:title="omc_ComponentReference\l_crefPrefixDer">
<polygon fill="#ffffff" stroke="#000000" points="501,-132.5 501,-162.5 637,-162.5 637,-132.5 501,-132.5"/>
<text text-anchor="start" x="509" y="-150.5" font-family="Helvetica,sans-Serif" font-size="10.00" fill="#000000">omc_ComponentReference</text>
<text text-anchor="middle" x="569" y="-139.5" font-family="Helvetica,sans-Serif" font-size="10.00" fill="#000000">_crefPrefixDer</text>
</a>
</g>
</g>
<!-- Node102&#45;&gt;Node107 -->
<g id="edge7" class="edge">
<title>Node102&#45;&gt;Node107</title>
<path fill="none" stroke="#191970" d="M453.8141,-181.3986C470.9862,-176.3449 490.2952,-170.6624 508.125,-165.4152"/>
<polygon fill="#191970" stroke="#191970" points="509.2503,-168.7325 517.8554,-162.5516 507.274,-162.0172 509.2503,-168.7325"/>
</g>
<!-- Node109 -->
<g id="node10" class="node">
<title>Node109</title>
<g id="a_node10"><a xlink:href="../../d1/d08/_expression_8c.html#a709f5f88a0de42de5e2520d606c17275" target="_top" xlink:title="omc_Expression_crefExp">
<polygon fill="#ffffff" stroke="#000000" points="505,-79 505,-98 633,-98 633,-79 505,-79"/>
<text text-anchor="middle" x="569" y="-86" font-family="Helvetica,sans-Serif" font-size="10.00" fill="#000000">omc_Expression_crefExp</text>
</a>
</g>
</g>
<!-- Node102&#45;&gt;Node109 -->
<g id="edge9" class="edge">
<title>Node102&#45;&gt;Node109</title>
<path fill="none" stroke="#191970" d="M421.1052,-181.2816C440.4456,-165.8093 471.9031,-141.6034 501,-123.5 513.098,-115.9729 527.0023,-108.6062 539.0726,-102.588"/>
<polygon fill="#191970" stroke="#191970" points="540.8489,-105.6153 548.29,-98.0734 537.7698,-99.3289 540.8489,-105.6153"/>
</g>
<!-- Node104 -->
<g id="node5" class="node">
<title>Node104</title>
<g id="a_node5"><a xlink:href="../../dd/db3/_backend_variable_8c.html#ad0717d5de8cb7c7d906ac2922d97d58e" target="_top" xlink:title="omc_BackendVariable\l_vararrayNth">
<polygon fill="#ffffff" stroke="#000000" points="685.5,-279.5 685.5,-309.5 799.5,-309.5 799.5,-279.5 685.5,-279.5"/>
<text text-anchor="start" x="693.5" y="-297.5" font-family="Helvetica,sans-Serif" font-size="10.00" fill="#000000">omc_BackendVariable</text>
<text text-anchor="middle" x="742.5" y="-286.5" font-family="Helvetica,sans-Serif" font-size="10.00" fill="#000000">_vararrayNth</text>
</a>
</g>
</g>
<!-- Node103&#45;&gt;Node104 -->
<g id="edge4" class="edge">
<title>Node103&#45;&gt;Node104</title>
<path fill="none" stroke="#191970" d="M626.2912,-294.5C641.8372,-294.5 658.8154,-294.5 674.8736,-294.5"/>
<polygon fill="#191970" stroke="#191970" points="675.269,-298.0001 685.2689,-294.5 675.2689,-291.0001 675.269,-298.0001"/>
</g>
<!-- Node108 -->
<g id="node9" class="node">
<title>Node108</title>
<g id="a_node9"><a xlink:href="../../d9/d14/_component_reference_8c.html#a7432b89e50552d0f7590711f64ca96e8" target="_top" xlink:title="omc_ComponentReference\l_makeCrefQual">
<polygon fill="#ffffff" stroke="#000000" points="674.5,-147.5 674.5,-177.5 810.5,-177.5 810.5,-147.5 674.5,-147.5"/>
<text text-anchor="start" x="682.5" y="-165.5" font-family="Helvetica,sans-Serif" font-size="10.00" fill="#000000">omc_ComponentReference</text>
<text text-anchor="middle" x="742.5" y="-154.5" font-family="Helvetica,sans-Serif" font-size="10.00" fill="#000000">_makeCrefQual</text>
</a>
</g>
</g>
<!-- Node107&#45;&gt;Node108 -->
<g id="edge8" class="edge">
<title>Node107&#45;&gt;Node108</title>
<path fill="none" stroke="#191970" d="M637.0738,-153.3853C645.9718,-154.1546 655.145,-154.9477 664.1944,-155.7301"/>
<polygon fill="#191970" stroke="#191970" points="664.0734,-159.2326 674.3377,-156.607 664.6764,-152.2586 664.0734,-159.2326"/>
</g>
<!-- Node110 -->
<g id="node11" class="node">
<title>Node110</title>
<g id="a_node11"><a xlink:href="../../d9/d14/_component_reference_8c.html#a4cbfe93b088d5e37d7d9bbd8c886f54d" target="_top" xlink:title="omc_ComponentReference\l_crefLastType">
<polygon fill="#ffffff" stroke="#000000" points="674.5,-98.5 674.5,-128.5 810.5,-128.5 810.5,-98.5 674.5,-98.5"/>
<text text-anchor="start" x="682.5" y="-116.5" font-family="Helvetica,sans-Serif" font-size="10.00" fill="#000000">omc_ComponentReference</text>
<text text-anchor="middle" x="742.5" y="-105.5" font-family="Helvetica,sans-Serif" font-size="10.00" fill="#000000">_crefLastType</text>
</a>
</g>
</g>
<!-- Node109&#45;&gt;Node110 -->
<g id="edge10" class="edge">
<title>Node109&#45;&gt;Node110</title>
<path fill="none" stroke="#191970" d="M633.1121,-97.738C643.2802,-99.2032 653.8945,-100.7326 664.341,-102.2379"/>
<polygon fill="#191970" stroke="#191970" points="663.8882,-105.7087 674.2852,-103.6708 664.8866,-98.7803 663.8882,-105.7087"/>
</g>
<!-- Node111 -->
<g id="node12" class="node">
<title>Node111</title>
<g id="a_node12"><a xlink:href="../../d9/d14/_component_reference_8c.html#a3f6103afac7dca99c57aa2db9673bd27" target="_top" xlink:title="omc_ComponentReference\l_crefLastSubs">
<polygon fill="#ffffff" stroke="#000000" points="674.5,-49.5 674.5,-79.5 810.5,-79.5 810.5,-49.5 674.5,-49.5"/>
<text text-anchor="start" x="682.5" y="-67.5" font-family="Helvetica,sans-Serif" font-size="10.00" fill="#000000">omc_ComponentReference</text>
<text text-anchor="middle" x="742.5" y="-56.5" font-family="Helvetica,sans-Serif" font-size="10.00" fill="#000000">_crefLastSubs</text>
</a>
</g>
</g>
<!-- Node109&#45;&gt;Node111 -->
<g id="edge11" class="edge">
<title>Node109&#45;&gt;Node111</title>
<path fill="none" stroke="#191970" d="M633.1121,-79.6315C643.2802,-78.2249 653.8945,-76.7567 664.341,-75.3116"/>
<polygon fill="#191970" stroke="#191970" points="664.8591,-78.7734 674.2852,-73.9361 663.8999,-71.8394 664.8591,-78.7734"/>
</g>
<!-- Node112 -->
<g id="node13" class="node">
<title>Node112</title>
<g id="a_node13"><a xlink:href="../../d1/d08/_expression_8c.html#acdd0e6e6845c989964d03169ad05e5e8" target="_top" xlink:title="omc_Expression_unliftArray\lTypeWithSubs">
<polygon fill="#ffffff" stroke="#000000" points="673,-.5 673,-30.5 812,-30.5 812,-.5 673,-.5"/>
<text text-anchor="start" x="681" y="-18.5" font-family="Helvetica,sans-Serif" font-size="10.00" fill="#000000">omc_Expression_unliftArray</text>
<text text-anchor="middle" x="742.5" y="-7.5" font-family="Helvetica,sans-Serif" font-size="10.00" fill="#000000">TypeWithSubs</text>
</a>
</g>
</g>
<!-- Node109&#45;&gt;Node112 -->
<g id="edge12" class="edge">
<title>Node109&#45;&gt;Node112</title>
<path fill="none" stroke="#191970" d="M587.8935,-78.8429C608.526,-68.476 642.6803,-51.8358 673,-39.5 677.4931,-37.6719 682.1837,-35.8578 686.9141,-34.0937"/>
<polygon fill="#191970" stroke="#191970" points="688.4313,-37.266 696.6293,-30.5545 686.0353,-30.6888 688.4313,-37.266"/>
</g>
<!-- Node113 -->
<g id="node14" class="node">
<title>Node113</title>
<g id="a_node14"><a xlink:href="../../d1/d08/_expression_8c.html#a1e88195201ddbc16bb324633d806a27d" target="_top" xlink:title="omc_Expression_unliftArray">
<polygon fill="#ffffff" stroke="#000000" points="848,-6 848,-25 987,-25 987,-6 848,-6"/>
<text text-anchor="middle" x="917.5" y="-13" font-family="Helvetica,sans-Serif" font-size="10.00" fill="#000000">omc_Expression_unliftArray</text>
</a>
</g>
</g>
<!-- Node112&#45;&gt;Node113 -->
<g id="edge13" class="edge">
<title>Node112&#45;&gt;Node113</title>
<path fill="none" stroke="#191970" d="M812.1675,-15.5C820.5024,-15.5 829.0628,-15.5 837.5285,-15.5"/>
<polygon fill="#191970" stroke="#191970" points="837.7864,-19.0001 847.7863,-15.5 837.7863,-12.0001 837.7864,-19.0001"/>
</g>
</g>
</svg>
