<?xml version="1.0" encoding="UTF-8" standalone="no"?>
<!DOCTYPE svg PUBLIC "-//W3C//DTD SVG 1.1//EN"
 "http://www.w3.org/Graphics/SVG/1.1/DTD/svg11.dtd">
<!-- Generated by graphviz version 2.40.1 (20161225.0304)
 -->
<!-- Title: omc_SymbolicJacobian_dumpSparsePatternStatistics Pages: 1 -->
<svg width="327pt" height="204pt"
 viewBox="0.00 0.00 327.00 204.00" xmlns="http://www.w3.org/2000/svg" xmlns:xlink="http://www.w3.org/1999/xlink">
<g id="graph0" class="graph" transform="scale(1 1) rotate(0) translate(4 200)">
<title>omc_SymbolicJacobian_dumpSparsePatternStatistics</title>
<polygon fill="#ffffff" stroke="transparent" points="-4,4 -4,-200 323,-200 323,4 -4,4"/>
<!-- Node2630 -->
<g id="node1" class="node">
<title>Node2630</title>
<polygon fill="#bfbfbf" stroke="#000000" points="0,-83 0,-113 149,-113 149,-83 0,-83"/>
<text text-anchor="start" x="8" y="-101" font-family="Helvetica,sans-Serif" font-size="10.00" fill="#000000">omc_SymbolicJacobian</text>
<text text-anchor="middle" x="74.5" y="-90" font-family="Helvetica,sans-Serif" font-size="10.00" fill="#000000">_dumpSparsePatternStatistics</text>
</g>
<!-- Node2631 -->
<g id="node2" class="node">
<title>Node2631</title>
<g id="a_node2"><a xlink:href="../../da/d72/_compiler_2boot_2build_2list_8c.html#a1ec2be963641d6c7da1bb856cc4339cc" target="_top" xlink:title="omc_List_mapFold">
<polygon fill="#ffffff" stroke="#000000" points="202.5,-176.5 202.5,-195.5 301.5,-195.5 301.5,-176.5 202.5,-176.5"/>
<text text-anchor="middle" x="252" y="-183.5" font-family="Helvetica,sans-Serif" font-size="10.00" fill="#000000">omc_List_mapFold</text>
</a>
</g>
</g>
<!-- Node2630&#45;&gt;Node2631 -->
<g id="edge1" class="edge">
<title>Node2630&#45;&gt;Node2631</title>
<path fill="none" stroke="#191970" d="M94.7056,-113.0713C116.1515,-128.4645 151.5041,-152.1516 185,-167 190.3108,-169.3542 195.9881,-171.494 201.7074,-173.4169"/>
<polygon fill="#191970" stroke="#191970" points="200.725,-176.777 211.3147,-176.4479 202.8311,-170.1013 200.725,-176.777"/>
</g>
<!-- Node2632 -->
<g id="node3" class="node">
<title>Node2632</title>
<g id="a_node3"><a xlink:href="../../d7/deb/build_2include_2omc_2c_2util_2modelica__string_8c.html#a672ff4045e2d75c0029e6cc5d7f0a507" target="_top" xlink:title="modelica_integer_to\l_modelica_string">
<polygon fill="#ffffff" stroke="#000000" points="200,-127 200,-157 304,-157 304,-127 200,-127"/>
<text text-anchor="start" x="208" y="-145" font-family="Helvetica,sans-Serif" font-size="10.00" fill="#000000">modelica_integer_to</text>
<text text-anchor="middle" x="252" y="-134" font-family="Helvetica,sans-Serif" font-size="10.00" fill="#000000">_modelica_string</text>
</a>
</g>
</g>
<!-- Node2630&#45;&gt;Node2632 -->
<g id="edge2" class="edge">
<title>Node2630&#45;&gt;Node2632</title>
<path fill="none" stroke="#191970" d="M135.089,-113.0192C152.884,-117.4304 172.3641,-122.2593 190.2318,-126.6885"/>
<polygon fill="#191970" stroke="#191970" points="189.4231,-130.0939 199.9715,-129.1028 191.1074,-123.2995 189.4231,-130.0939"/>
</g>
<!-- Node2633 -->
<g id="node4" class="node">
<title>Node2633</title>
<g id="a_node4"><a xlink:href="../../d7/deb/build_2include_2omc_2c_2util_2modelica__string_8c.html#a751007abc59e9ca7978f2af10a0c814f" target="_top" xlink:title="stringAppend">
<polygon fill="#ffffff" stroke="#000000" points="215,-88.5 215,-107.5 289,-107.5 289,-88.5 215,-88.5"/>
<text text-anchor="middle" x="252" y="-95.5" font-family="Helvetica,sans-Serif" font-size="10.00" fill="#000000">stringAppend</text>
</a>
</g>
</g>
<!-- Node2630&#45;&gt;Node2633 -->
<g id="edge3" class="edge">
<title>Node2630&#45;&gt;Node2633</title>
<path fill="none" stroke="#191970" d="M149.0045,-98C167.8604,-98 187.5972,-98 204.6897,-98"/>
<polygon fill="#191970" stroke="#191970" points="204.9591,-101.5001 214.959,-98 204.959,-94.5001 204.9591,-101.5001"/>
</g>
<!-- Node2634 -->
<g id="node5" class="node">
<title>Node2634</title>
<g id="a_node5"><a xlink:href="../../d7/deb/build_2include_2omc_2c_2util_2modelica__string_8c.html#a9ab4c457daab094e56b22cdfa074c716" target="_top" xlink:title="modelica_real_to_modelica\l_string">
<polygon fill="#ffffff" stroke="#000000" points="185,-39 185,-69 319,-69 319,-39 185,-39"/>
<text text-anchor="start" x="193" y="-57" font-family="Helvetica,sans-Serif" font-size="10.00" fill="#000000">modelica_real_to_modelica</text>
<text text-anchor="middle" x="252" y="-46" font-family="Helvetica,sans-Serif" font-size="10.00" fill="#000000">_string</text>
</a>
</g>
</g>
<!-- Node2630&#45;&gt;Node2634 -->
<g id="edge4" class="edge">
<title>Node2630&#45;&gt;Node2634</title>
<path fill="none" stroke="#191970" d="M135.089,-82.9808C150.0005,-79.2844 166.0954,-75.2947 181.4332,-71.4926"/>
<polygon fill="#191970" stroke="#191970" points="182.5188,-74.8295 191.3829,-69.0262 180.8345,-68.0351 182.5188,-74.8295"/>
</g>
<!-- Node2635 -->
<g id="node6" class="node">
<title>Node2635</title>
<g id="a_node6"><a xlink:href="../../d2/d57/build_2include_2omc_2c_2meta_2meta__modelica__builtin_8h.html#a0a87031d44b51bd9e6f0fdca3918ab10" target="_top" xlink:title="mmc_clock">
<polygon fill="#ffffff" stroke="#000000" points="218.5,-.5 218.5,-19.5 285.5,-19.5 285.5,-.5 218.5,-.5"/>
<text text-anchor="middle" x="252" y="-7.5" font-family="Helvetica,sans-Serif" font-size="10.00" fill="#000000">mmc_clock</text>
</a>
</g>
</g>
<!-- Node2630&#45;&gt;Node2635 -->
<g id="edge5" class="edge">
<title>Node2630&#45;&gt;Node2635</title>
<path fill="none" stroke="#191970" d="M95.182,-82.9784C116.7274,-67.8923 151.8988,-44.8167 185,-30 192.4832,-26.6504 200.6813,-23.6761 208.6963,-21.1123"/>
<polygon fill="#191970" stroke="#191970" points="209.7691,-24.4444 218.3215,-18.1909 207.736,-17.7462 209.7691,-24.4444"/>
</g>
</g>
</svg>
