<?xml version="1.0" encoding="UTF-8" standalone="no"?>
<!DOCTYPE svg PUBLIC "-//W3C//DTD SVG 1.1//EN"
 "http://www.w3.org/Graphics/SVG/1.1/DTD/svg11.dtd">
<!-- Generated by graphviz version 2.40.1 (20161225.0304)
 -->
<!-- Title: omc_NFInst_expandClassParts Pages: 1 -->
<svg width="594pt" height="514pt"
 viewBox="0.00 0.00 594.00 514.00" xmlns="http://www.w3.org/2000/svg" xmlns:xlink="http://www.w3.org/1999/xlink">
<g id="graph0" class="graph" transform="scale(1 1) rotate(0) translate(4 510)">
<title>omc_NFInst_expandClassParts</title>
<polygon fill="#ffffff" stroke="transparent" points="-4,4 -4,-510 590,-510 590,4 -4,4"/>
<!-- Node981 -->
<g id="node1" class="node">
<title>Node981</title>
<polygon fill="#bfbfbf" stroke="#000000" points="0,-229.5 0,-248.5 156,-248.5 156,-229.5 0,-229.5"/>
<text text-anchor="middle" x="78" y="-236.5" font-family="Helvetica,sans-Serif" font-size="10.00" fill="#000000">omc_NFInst_expandClassParts</text>
</g>
<!-- Node982 -->
<g id="node2" class="node">
<title>Node982</title>
<g id="a_node2"><a xlink:href="../../d7/d21/_n_f_inst_node_8c.html#a840047a70bed69a6b747a8bbec33e15b" target="_top" xlink:title="omc_NFInstNode_InstNode\l_getClass">
<polygon fill="#ffffff" stroke="#000000" points="208.5,-459 208.5,-489 347.5,-489 347.5,-459 208.5,-459"/>
<text text-anchor="start" x="216.5" y="-477" font-family="Helvetica,sans-Serif" font-size="10.00" fill="#000000">omc_NFInstNode_InstNode</text>
<text text-anchor="middle" x="278" y="-466" font-family="Helvetica,sans-Serif" font-size="10.00" fill="#000000">_getClass</text>
</a>
</g>
</g>
<!-- Node981&#45;&gt;Node982 -->
<g id="edge1" class="edge">
<title>Node981&#45;&gt;Node982</title>
<path fill="none" stroke="#191970" d="M80.3323,-248.7343C88.8791,-282.25 121.7193,-393.8845 192,-450 194.3281,-451.8588 196.7913,-453.5738 199.3562,-455.1561"/>
<polygon fill="#191970" stroke="#191970" points="197.9568,-458.3778 208.4203,-460.0407 201.2776,-452.2156 197.9568,-458.3778"/>
</g>
<!-- Node985 -->
<g id="node5" class="node">
<title>Node985</title>
<g id="a_node5"><a xlink:href="../../d5/ddb/_n_f_class_8c.html#a030d44a0d70eb6bad3394714dc8c468d" target="_top" xlink:title="omc_NFClass_Class_initExpanded\lClass">
<polygon fill="#ffffff" stroke="#000000" points="192,-410 192,-440 364,-440 364,-410 192,-410"/>
<text text-anchor="start" x="200" y="-428" font-family="Helvetica,sans-Serif" font-size="10.00" fill="#000000">omc_NFClass_Class_initExpanded</text>
<text text-anchor="middle" x="278" y="-417" font-family="Helvetica,sans-Serif" font-size="10.00" fill="#000000">Class</text>
</a>
</g>
</g>
<!-- Node981&#45;&gt;Node985 -->
<g id="edge4" class="edge">
<title>Node981&#45;&gt;Node985</title>
<path fill="none" stroke="#191970" d="M82.0053,-248.7767C94.0872,-277.0164 133.0066,-359.3395 192,-401 194.1051,-402.4866 196.2994,-403.8813 198.5626,-405.1898"/>
<polygon fill="#191970" stroke="#191970" points="197.0946,-408.3704 207.5896,-409.8214 200.2902,-402.1423 197.0946,-408.3704"/>
</g>
<!-- Node986 -->
<g id="node6" class="node">
<title>Node986</title>
<g id="a_node6"><a xlink:href="../../d7/d21/_n_f_inst_node_8c.html#a87b5acf681a29a102e8d4ad85cb6f807" target="_top" xlink:title="omc_NFInstNode_InstNode\l_updateClass">
<polygon fill="#ffffff" stroke="#000000" points="208.5,-361 208.5,-391 347.5,-391 347.5,-361 208.5,-361"/>
<text text-anchor="start" x="216.5" y="-379" font-family="Helvetica,sans-Serif" font-size="10.00" fill="#000000">omc_NFInstNode_InstNode</text>
<text text-anchor="middle" x="278" y="-368" font-family="Helvetica,sans-Serif" font-size="10.00" fill="#000000">_updateClass</text>
</a>
</g>
</g>
<!-- Node981&#45;&gt;Node986 -->
<g id="edge5" class="edge">
<title>Node981&#45;&gt;Node986</title>
<path fill="none" stroke="#191970" d="M84.8194,-248.5082C100.9147,-270.2429 143.5748,-323.8495 192,-352 195.0404,-353.7674 198.2174,-355.4101 201.4828,-356.9362"/>
<polygon fill="#191970" stroke="#191970" points="200.3077,-360.2399 210.8797,-360.9354 203.0489,-353.7989 200.3077,-360.2399"/>
</g>
<!-- Node988 -->
<g id="node8" class="node">
<title>Node988</title>
<g id="a_node8"><a xlink:href="../../d4/d0f/_n_f_class_tree_8c.html#ac73a5c82798a1cfe10784de04cce6ddd" target="_top" xlink:title="omc_NFClassTree_ClassTree\l_mapFoldExtends">
<polygon fill="#ffffff" stroke="#000000" points="203.5,-312 203.5,-342 352.5,-342 352.5,-312 203.5,-312"/>
<text text-anchor="start" x="211.5" y="-330" font-family="Helvetica,sans-Serif" font-size="10.00" fill="#000000">omc_NFClassTree_ClassTree</text>
<text text-anchor="middle" x="278" y="-319" font-family="Helvetica,sans-Serif" font-size="10.00" fill="#000000">_mapFoldExtends</text>
</a>
</g>
</g>
<!-- Node981&#45;&gt;Node988 -->
<g id="edge7" class="edge">
<title>Node981&#45;&gt;Node988</title>
<path fill="none" stroke="#191970" d="M92.9487,-248.6796C114.236,-262.1289 154.8313,-286.5527 192,-302 197.7477,-304.3887 203.8007,-306.6417 209.923,-308.743"/>
<polygon fill="#191970" stroke="#191970" points="208.974,-312.1153 219.567,-311.9178 211.1629,-305.4663 208.974,-312.1153"/>
</g>
<!-- Node990 -->
<g id="node10" class="node">
<title>Node990</title>
<g id="a_node10"><a xlink:href="../../d7/d21/_n_f_inst_node_8c.html#a0448a520b8f4a2cf341ecde6c2f2fd93" target="_top" xlink:title="omc_NFInstNode_InstNode_name">
<polygon fill="#ffffff" stroke="#000000" points="194,-273.5 194,-292.5 362,-292.5 362,-273.5 194,-273.5"/>
<text text-anchor="middle" x="278" y="-280.5" font-family="Helvetica,sans-Serif" font-size="10.00" fill="#000000">omc_NFInstNode_InstNode_name</text>
</a>
</g>
</g>
<!-- Node981&#45;&gt;Node990 -->
<g id="edge9" class="edge">
<title>Node981&#45;&gt;Node990</title>
<path fill="none" stroke="#191970" d="M121.397,-248.5473C151.6677,-255.2069 192.2561,-264.1363 224.5263,-271.2358"/>
<polygon fill="#191970" stroke="#191970" points="224.1692,-274.7409 234.6877,-273.4713 225.6733,-267.9043 224.1692,-274.7409"/>
</g>
<!-- Node993 -->
<g id="node13" class="node">
<title>Node993</title>
<g id="a_node13"><a xlink:href="../../d0/de4/_n_f_inst_8c.html#a9a4f0774c336195f26c4c00c45cac2f1" target="_top" xlink:title="omc_NFInst_expandExternal\lObject">
<polygon fill="#ffffff" stroke="#000000" points="206.5,-224 206.5,-254 349.5,-254 349.5,-224 206.5,-224"/>
<text text-anchor="start" x="214.5" y="-242" font-family="Helvetica,sans-Serif" font-size="10.00" fill="#000000">omc_NFInst_expandExternal</text>
<text text-anchor="middle" x="278" y="-231" font-family="Helvetica,sans-Serif" font-size="10.00" fill="#000000">Object</text>
</a>
</g>
</g>
<!-- Node981&#45;&gt;Node993 -->
<g id="edge12" class="edge">
<title>Node981&#45;&gt;Node993</title>
<path fill="none" stroke="#191970" d="M156.1845,-239C169.3675,-239 183.0823,-239 196.3507,-239"/>
<polygon fill="#191970" stroke="#191970" points="196.394,-242.5001 206.3939,-239 196.3939,-235.5001 196.394,-242.5001"/>
</g>
<!-- Node995 -->
<g id="node15" class="node">
<title>Node995</title>
<g id="a_node15"><a xlink:href="../../d7/d21/_n_f_inst_node_8c.html#ae378534b961a6d8594806228b51698b7" target="_top" xlink:title="omc_NFInstNode_InstNode\l_isEmpty">
<polygon fill="#ffffff" stroke="#000000" points="208.5,-175 208.5,-205 347.5,-205 347.5,-175 208.5,-175"/>
<text text-anchor="start" x="216.5" y="-193" font-family="Helvetica,sans-Serif" font-size="10.00" fill="#000000">omc_NFInstNode_InstNode</text>
<text text-anchor="middle" x="278" y="-182" font-family="Helvetica,sans-Serif" font-size="10.00" fill="#000000">_isEmpty</text>
</a>
</g>
</g>
<!-- Node981&#45;&gt;Node995 -->
<g id="edge14" class="edge">
<title>Node981&#45;&gt;Node995</title>
<path fill="none" stroke="#191970" d="M117.0368,-229.436C142.468,-223.2053 176.4056,-214.8906 206.5608,-207.5026"/>
<polygon fill="#191970" stroke="#191970" points="207.7448,-210.8161 216.6246,-205.037 206.079,-204.0172 207.7448,-210.8161"/>
</g>
<!-- Node996 -->
<g id="node16" class="node">
<title>Node996</title>
<g id="a_node16"><a xlink:href="../../d0/de4/_n_f_inst_8c.html#aca6e36cd2ea9ab41b479a0427f4ecbbf" target="_top" xlink:title="omc_NFInst_checkBuiltinType\lExtends">
<polygon fill="#ffffff" stroke="#000000" points="202.5,-126 202.5,-156 353.5,-156 353.5,-126 202.5,-126"/>
<text text-anchor="start" x="210.5" y="-144" font-family="Helvetica,sans-Serif" font-size="10.00" fill="#000000">omc_NFInst_checkBuiltinType</text>
<text text-anchor="middle" x="278" y="-133" font-family="Helvetica,sans-Serif" font-size="10.00" fill="#000000">Extends</text>
</a>
</g>
</g>
<!-- Node981&#45;&gt;Node996 -->
<g id="edge15" class="edge">
<title>Node981&#45;&gt;Node996</title>
<path fill="none" stroke="#191970" d="M90.3072,-229.4173C110.5065,-214.0938 152.4118,-183.9757 192,-166 197.2604,-163.6114 202.8055,-161.3896 208.4418,-159.3363"/>
<polygon fill="#191970" stroke="#191970" points="209.6708,-162.6148 217.9792,-156.0404 207.3845,-155.9987 209.6708,-162.6148"/>
</g>
<!-- Node999 -->
<g id="node19" class="node">
<title>Node999</title>
<g id="a_node19"><a xlink:href="../../d4/d0f/_n_f_class_tree_8c.html#af1a1a48dc281d0fe7f864ea5d9db6b53" target="_top" xlink:title="omc_NFClassTree_ClassTree\l_expand">
<polygon fill="#ffffff" stroke="#000000" points="203.5,-77 203.5,-107 352.5,-107 352.5,-77 203.5,-77"/>
<text text-anchor="start" x="211.5" y="-95" font-family="Helvetica,sans-Serif" font-size="10.00" fill="#000000">omc_NFClassTree_ClassTree</text>
<text text-anchor="middle" x="278" y="-84" font-family="Helvetica,sans-Serif" font-size="10.00" fill="#000000">_expand</text>
</a>
</g>
</g>
<!-- Node981&#45;&gt;Node999 -->
<g id="edge18" class="edge">
<title>Node981&#45;&gt;Node999</title>
<path fill="none" stroke="#191970" d="M84.1475,-229.3247C99.4244,-206.087 141.5427,-146.7797 192,-116 194.779,-114.3048 197.6807,-112.7262 200.6664,-111.2565"/>
<polygon fill="#191970" stroke="#191970" points="202.1295,-114.4364 209.8365,-107.1664 199.278,-108.0435 202.1295,-114.4364"/>
</g>
<!-- Node1000 -->
<g id="node20" class="node">
<title>Node1000</title>
<g id="a_node20"><a xlink:href="../../da/df0/_n_f_restriction_8c.html#a547112d85a6e92e25e7cb20a3b3f4558" target="_top" xlink:title="omc_NFRestriction_fromSCode">
<polygon fill="#ffffff" stroke="#000000" points="200,-38.5 200,-57.5 356,-57.5 356,-38.5 200,-38.5"/>
<text text-anchor="middle" x="278" y="-45.5" font-family="Helvetica,sans-Serif" font-size="10.00" fill="#000000">omc_NFRestriction_fromSCode</text>
</a>
</g>
</g>
<!-- Node981&#45;&gt;Node1000 -->
<g id="edge19" class="edge">
<title>Node981&#45;&gt;Node1000</title>
<path fill="none" stroke="#191970" d="M81.3958,-229.312C92.2942,-199.7287 129.3801,-109.9749 192,-67 194.9253,-64.9924 198.0268,-63.1927 201.2485,-61.5796"/>
<polygon fill="#191970" stroke="#191970" points="202.8271,-64.7098 210.5999,-57.5102 200.0339,-58.2912 202.8271,-64.7098"/>
</g>
<!-- Node1001 -->
<g id="node21" class="node">
<title>Node1001</title>
<g id="a_node21"><a xlink:href="../../d9/d9e/_s_code_8c.html#a59beac384e2d377adc0181efe2f48d2e" target="_top" xlink:title="omc_SCode_getClassRestriction">
<polygon fill="#ffffff" stroke="#000000" points="197,-.5 197,-19.5 359,-19.5 359,-.5 197,-.5"/>
<text text-anchor="middle" x="278" y="-7.5" font-family="Helvetica,sans-Serif" font-size="10.00" fill="#000000">omc_SCode_getClassRestriction</text>
</a>
</g>
</g>
<!-- Node981&#45;&gt;Node1001 -->
<g id="edge20" class="edge">
<title>Node981&#45;&gt;Node1001</title>
<path fill="none" stroke="#191970" d="M80.2372,-229.1693C88.4732,-195.3465 120.4204,-82.9025 192,-29 194.4849,-27.1288 197.118,-25.4349 199.86,-23.9021"/>
<polygon fill="#191970" stroke="#191970" points="201.445,-27.0236 208.9396,-19.5348 198.4107,-20.7154 201.445,-27.0236"/>
</g>
<!-- Node983 -->
<g id="node3" class="node">
<title>Node983</title>
<g id="a_node3"><a xlink:href="../../dc/d0e/_pointer_8c.html#aa5369c5410f4ad12957ad69be8ccc4e8" target="_top" xlink:title="omc_Pointer_access">
<polygon fill="#ffffff" stroke="#000000" points="439,-486.5 439,-505.5 547,-505.5 547,-486.5 439,-486.5"/>
<text text-anchor="middle" x="493" y="-493.5" font-family="Helvetica,sans-Serif" font-size="10.00" fill="#000000">omc_Pointer_access</text>
</a>
</g>
</g>
<!-- Node982&#45;&gt;Node983 -->
<g id="edge2" class="edge">
<title>Node982&#45;&gt;Node983</title>
<path fill="none" stroke="#191970" d="M347.5074,-481.1124C373.6099,-483.7833 403.142,-486.8052 428.7462,-489.4252"/>
<polygon fill="#191970" stroke="#191970" points="428.4133,-492.9093 438.7177,-490.4455 429.1259,-485.9457 428.4133,-492.9093"/>
</g>
<!-- Node984 -->
<g id="node4" class="node">
<title>Node984</title>
<g id="a_node4"><a xlink:href="../../d2/dda/_n_f_component_8c.html#aebc936a63cf3faa7877ddb75a6ba16cb" target="_top" xlink:title="omc_NFComponent_Component\l_classInstance">
<polygon fill="#ffffff" stroke="#000000" points="413,-437 413,-467 573,-467 573,-437 413,-437"/>
<text text-anchor="start" x="421" y="-455" font-family="Helvetica,sans-Serif" font-size="10.00" fill="#000000">omc_NFComponent_Component</text>
<text text-anchor="middle" x="493" y="-444" font-family="Helvetica,sans-Serif" font-size="10.00" fill="#000000">_classInstance</text>
</a>
</g>
</g>
<!-- Node982&#45;&gt;Node984 -->
<g id="edge3" class="edge">
<title>Node982&#45;&gt;Node984</title>
<path fill="none" stroke="#191970" d="M347.5074,-466.8876C365.1052,-465.0869 384.2619,-463.1267 402.7228,-461.2377"/>
<polygon fill="#191970" stroke="#191970" points="403.3012,-464.6968 412.893,-460.197 402.5886,-457.7332 403.3012,-464.6968"/>
</g>
<!-- Node987 -->
<g id="node7" class="node">
<title>Node987</title>
<g id="a_node7"><a xlink:href="../../dc/d0e/_pointer_8c.html#ae73e932b6aef1e70fef178d17afe8718" target="_top" xlink:title="omc_Pointer_update">
<polygon fill="#ffffff" stroke="#000000" points="440,-366.5 440,-385.5 546,-385.5 546,-366.5 440,-366.5"/>
<text text-anchor="middle" x="493" y="-373.5" font-family="Helvetica,sans-Serif" font-size="10.00" fill="#000000">omc_Pointer_update</text>
</a>
</g>
</g>
<!-- Node986&#45;&gt;Node987 -->
<g id="edge6" class="edge">
<title>Node986&#45;&gt;Node987</title>
<path fill="none" stroke="#191970" d="M347.5074,-376C373.9348,-376 403.8778,-376 429.7005,-376"/>
<polygon fill="#191970" stroke="#191970" points="429.7483,-379.5001 439.7482,-376 429.7482,-372.5001 429.7483,-379.5001"/>
</g>
<!-- Node989 -->
<g id="node9" class="node">
<title>Node989</title>
<g id="a_node9"><a xlink:href="../../d4/d0f/_n_f_class_tree_8c.html#a9e6e492fe51e0211e72d312e7686ac08" target="_top" xlink:title="omc_NFClassTree_ClassTree\l_getExtends">
<polygon fill="#ffffff" stroke="#000000" points="418.5,-317 418.5,-347 567.5,-347 567.5,-317 418.5,-317"/>
<text text-anchor="start" x="426.5" y="-335" font-family="Helvetica,sans-Serif" font-size="10.00" fill="#000000">omc_NFClassTree_ClassTree</text>
<text text-anchor="middle" x="493" y="-324" font-family="Helvetica,sans-Serif" font-size="10.00" fill="#000000">_getExtends</text>
</a>
</g>
</g>
<!-- Node988&#45;&gt;Node989 -->
<g id="edge8" class="edge">
<title>Node988&#45;&gt;Node989</title>
<path fill="none" stroke="#191970" d="M352.5932,-328.7347C370.5014,-329.1512 389.7581,-329.599 408.096,-330.0255"/>
<polygon fill="#191970" stroke="#191970" points="408.0961,-333.5263 418.1748,-330.2599 408.2589,-326.5282 408.0961,-333.5263"/>
</g>
<!-- Node991 -->
<g id="node11" class="node">
<title>Node991</title>
<g id="a_node11"><a xlink:href="../../d7/deb/build_2include_2omc_2c_2util_2modelica__string_8c.html#a672ff4045e2d75c0029e6cc5d7f0a507" target="_top" xlink:title="modelica_integer_to\l_modelica_string">
<polygon fill="#ffffff" stroke="#000000" points="441,-268 441,-298 545,-298 545,-268 441,-268"/>
<text text-anchor="start" x="449" y="-286" font-family="Helvetica,sans-Serif" font-size="10.00" fill="#000000">modelica_integer_to</text>
<text text-anchor="middle" x="493" y="-275" font-family="Helvetica,sans-Serif" font-size="10.00" fill="#000000">_modelica_string</text>
</a>
</g>
</g>
<!-- Node990&#45;&gt;Node991 -->
<g id="edge10" class="edge">
<title>Node990&#45;&gt;Node991</title>
<path fill="none" stroke="#191970" d="M362.0483,-283C384.9226,-283 409.2861,-283 430.7175,-283"/>
<polygon fill="#191970" stroke="#191970" points="430.9835,-286.5001 440.9834,-283 430.9834,-279.5001 430.9835,-286.5001"/>
</g>
<!-- Node992 -->
<g id="node12" class="node">
<title>Node992</title>
<g id="a_node12"><a xlink:href="../../d7/deb/build_2include_2omc_2c_2util_2modelica__string_8c.html#a751007abc59e9ca7978f2af10a0c814f" target="_top" xlink:title="stringAppend">
<polygon fill="#ffffff" stroke="#000000" points="456,-229.5 456,-248.5 530,-248.5 530,-229.5 456,-229.5"/>
<text text-anchor="middle" x="493" y="-236.5" font-family="Helvetica,sans-Serif" font-size="10.00" fill="#000000">stringAppend</text>
</a>
</g>
</g>
<!-- Node990&#45;&gt;Node992 -->
<g id="edge11" class="edge">
<title>Node990&#45;&gt;Node992</title>
<path fill="none" stroke="#191970" d="M324.6518,-273.4527C360.3971,-266.1373 409.5259,-256.0831 445.4844,-248.7241"/>
<polygon fill="#191970" stroke="#191970" points="446.6273,-252.0628 455.7225,-246.6289 445.2238,-245.205 446.6273,-252.0628"/>
</g>
<!-- Node994 -->
<g id="node14" class="node">
<title>Node994</title>
<g id="a_node14"><a xlink:href="../../d0/de4/_n_f_inst_8c.html#afc76f75eb942ac5706311ec40d0012f5" target="_top" xlink:title="omc_NFInst_makeExternalObjectType">
<polygon fill="#ffffff" stroke="#000000" points="400,-191.5 400,-210.5 586,-210.5 586,-191.5 400,-191.5"/>
<text text-anchor="middle" x="493" y="-198.5" font-family="Helvetica,sans-Serif" font-size="10.00" fill="#000000">omc_NFInst_makeExternalObjectType</text>
</a>
</g>
</g>
<!-- Node993&#45;&gt;Node994 -->
<g id="edge13" class="edge">
<title>Node993&#45;&gt;Node994</title>
<path fill="none" stroke="#191970" d="M349.5919,-226.3466C375.2517,-221.8113 403.9953,-216.7311 428.9732,-212.3164"/>
<polygon fill="#191970" stroke="#191970" points="429.8269,-215.7198 439.0651,-210.5327 428.6085,-208.8266 429.8269,-215.7198"/>
</g>
<!-- Node997 -->
<g id="node17" class="node">
<title>Node997</title>
<g id="a_node17"><a xlink:href="../../d4/d0f/_n_f_class_tree_8c.html#ae9dd1d4cdd08cd87c7d7ee882e018489" target="_top" xlink:title="omc_NFClassTree_ClassTree\l_componentCount">
<polygon fill="#ffffff" stroke="#000000" points="418.5,-134 418.5,-164 567.5,-164 567.5,-134 418.5,-134"/>
<text text-anchor="start" x="426.5" y="-152" font-family="Helvetica,sans-Serif" font-size="10.00" fill="#000000">omc_NFClassTree_ClassTree</text>
<text text-anchor="middle" x="493" y="-141" font-family="Helvetica,sans-Serif" font-size="10.00" fill="#000000">_componentCount</text>
</a>
</g>
</g>
<!-- Node996&#45;&gt;Node997 -->
<g id="edge16" class="edge">
<title>Node996&#45;&gt;Node997</title>
<path fill="none" stroke="#191970" d="M353.801,-143.8205C371.3666,-144.4741 390.1723,-145.1739 408.0998,-145.8409"/>
<polygon fill="#191970" stroke="#191970" points="408.1222,-149.3441 418.2455,-146.2184 408.3826,-142.3489 408.1222,-149.3441"/>
</g>
<!-- Node998 -->
<g id="node18" class="node">
<title>Node998</title>
<g id="a_node18"><a xlink:href="../../d4/d0f/_n_f_class_tree_8c.html#a74337189ed635808aeb1e7df28a9b7ec" target="_top" xlink:title="omc_NFClassTree_ClassTree\l_extendsCount">
<polygon fill="#ffffff" stroke="#000000" points="418.5,-85 418.5,-115 567.5,-115 567.5,-85 418.5,-85"/>
<text text-anchor="start" x="426.5" y="-103" font-family="Helvetica,sans-Serif" font-size="10.00" fill="#000000">omc_NFClassTree_ClassTree</text>
<text text-anchor="middle" x="493" y="-92" font-family="Helvetica,sans-Serif" font-size="10.00" fill="#000000">_extendsCount</text>
</a>
</g>
</g>
<!-- Node996&#45;&gt;Node998 -->
<g id="edge17" class="edge">
<title>Node996&#45;&gt;Node998</title>
<path fill="none" stroke="#191970" d="M353.801,-126.5449C371.4483,-123.1796 390.3473,-119.5756 408.3499,-116.1426"/>
<polygon fill="#191970" stroke="#191970" points="409.0781,-119.5669 418.2455,-114.2555 407.7668,-112.6908 409.0781,-119.5669"/>
</g>
</g>
</svg>
