<?xml version="1.0" encoding="UTF-8" standalone="no"?>
<!DOCTYPE svg PUBLIC "-//W3C//DTD SVG 1.1//EN"
 "http://www.w3.org/Graphics/SVG/1.1/DTD/svg11.dtd">
<!-- Generated by graphviz version 2.40.1 (20161225.0304)
 -->
<!-- Title: omc_NFInst_markStructuralParamsExp Pages: 1 -->
<svg width="713pt" height="310pt"
 viewBox="0.00 0.00 713.00 309.50" xmlns="http://www.w3.org/2000/svg" xmlns:xlink="http://www.w3.org/1999/xlink">
<g id="graph0" class="graph" transform="scale(1 1) rotate(0) translate(4 305.5)">
<title>omc_NFInst_markStructuralParamsExp</title>
<polygon fill="#ffffff" stroke="transparent" points="-4,4 -4,-305.5 709,-305.5 709,4 -4,4"/>
<!-- Node3379 -->
<g id="node1" class="node">
<title>Node3379</title>
<polygon fill="#bfbfbf" stroke="#000000" points="0,-112 0,-142 140,-142 140,-112 0,-112"/>
<text text-anchor="start" x="8" y="-130" font-family="Helvetica,sans-Serif" font-size="10.00" fill="#000000">omc_NFInst_markStructural</text>
<text text-anchor="middle" x="70" y="-119" font-family="Helvetica,sans-Serif" font-size="10.00" fill="#000000">ParamsExp</text>
</g>
<!-- Node3380 -->
<g id="node2" class="node">
<title>Node3380</title>
<g id="a_node2"><a xlink:href="../../da/d9b/_n_f_inst_8h.html#a708e6b573c9bfcb68650d893bab1f38f" target="_top" xlink:title="omc_NFInst_markStructural\lParamsSub">
<polygon fill="#ffffff" stroke="#000000" points="182,-235 182,-265 322,-265 322,-235 182,-235"/>
<text text-anchor="start" x="190" y="-253" font-family="Helvetica,sans-Serif" font-size="10.00" fill="#000000">omc_NFInst_markStructural</text>
<text text-anchor="middle" x="252" y="-242" font-family="Helvetica,sans-Serif" font-size="10.00" fill="#000000">ParamsSub</text>
</a>
</g>
</g>
<!-- Node3379&#45;&gt;Node3380 -->
<g id="edge1" class="edge">
<title>Node3379&#45;&gt;Node3380</title>
<path fill="none" stroke="#191970" d="M89.075,-149.9952C108.737,-172.3323 141.3348,-205.7555 176,-226 181.7352,-229.3494 187.9916,-232.2865 194.3721,-234.8482"/>
<polygon fill="#191970" stroke="#191970" points="91.623,-147.5906 82.4366,-142.3122 86.3263,-152.1673 91.623,-147.5906"/>
</g>
<!-- Node3382 -->
<g id="node4" class="node">
<title>Node3382</title>
<g id="a_node4"><a xlink:href="../../da/d9b/_n_f_inst_8h.html#a1b7917ad50e8fa58cba8601aba46cf87" target="_top" xlink:title="omc_NFInst_updateImplicit\lVariabilityEq">
<polygon fill="#ffffff" stroke="#000000" points="183.5,-186 183.5,-216 320.5,-216 320.5,-186 183.5,-186"/>
<text text-anchor="start" x="191.5" y="-204" font-family="Helvetica,sans-Serif" font-size="10.00" fill="#000000">omc_NFInst_updateImplicit</text>
<text text-anchor="middle" x="252" y="-193" font-family="Helvetica,sans-Serif" font-size="10.00" fill="#000000">VariabilityEq</text>
</a>
</g>
</g>
<!-- Node3379&#45;&gt;Node3382 -->
<g id="edge3" class="edge">
<title>Node3379&#45;&gt;Node3382</title>
<path fill="none" stroke="#191970" d="M108.2875,-146.5919C128.1989,-156.3867 153.1021,-168.0313 176,-177 183.9879,-180.1287 192.5644,-183.1497 200.9759,-185.9315"/>
<polygon fill="#191970" stroke="#191970" points="109.7439,-143.4074 99.2307,-142.0954 106.6311,-149.6772 109.7439,-143.4074"/>
</g>
<!-- Node3386 -->
<g id="node8" class="node">
<title>Node3386</title>
<g id="a_node8"><a xlink:href="../../da/d9b/_n_f_inst_8h.html#a93d8d85080e4fb0bd90f31ad4ce5163b" target="_top" xlink:title="omc_NFInst_markStructural\lParamsExpSize__traverser">
<polygon fill="#ffffff" stroke="#000000" points="182,-137 182,-167 322,-167 322,-137 182,-137"/>
<text text-anchor="start" x="190" y="-155" font-family="Helvetica,sans-Serif" font-size="10.00" fill="#000000">omc_NFInst_markStructural</text>
<text text-anchor="middle" x="252" y="-144" font-family="Helvetica,sans-Serif" font-size="10.00" fill="#000000">ParamsExpSize__traverser</text>
</a>
</g>
</g>
<!-- Node3379&#45;&gt;Node3386 -->
<g id="edge8" class="edge">
<title>Node3379&#45;&gt;Node3386</title>
<path fill="none" stroke="#191970" d="M150.172,-138.0126C160.7545,-139.4663 171.5351,-140.9471 181.9305,-142.3751"/>
<polygon fill="#191970" stroke="#191970" points="150.4889,-134.5234 140.1056,-136.6299 149.5363,-141.4583 150.4889,-134.5234"/>
</g>
<!-- Node3387 -->
<g id="node9" class="node">
<title>Node3387</title>
<g id="a_node9"><a xlink:href="../../da/d9b/_n_f_inst_8h.html#af4dffdd4faeca422d4606d8d1c09272a" target="_top" xlink:title="omc_NFInst_markStructural\lParamsComp">
<polygon fill="#ffffff" stroke="#000000" points="182,-88 182,-118 322,-118 322,-88 182,-88"/>
<text text-anchor="start" x="190" y="-106" font-family="Helvetica,sans-Serif" font-size="10.00" fill="#000000">omc_NFInst_markStructural</text>
<text text-anchor="middle" x="252" y="-95" font-family="Helvetica,sans-Serif" font-size="10.00" fill="#000000">ParamsComp</text>
</a>
</g>
</g>
<!-- Node3379&#45;&gt;Node3387 -->
<g id="edge9" class="edge">
<title>Node3379&#45;&gt;Node3387</title>
<path fill="none" stroke="#191970" d="M150.172,-116.4279C160.7545,-115.0324 171.5351,-113.6108 181.9305,-112.2399"/>
<polygon fill="#191970" stroke="#191970" points="149.5622,-112.9779 140.1056,-117.7553 150.4774,-119.9178 149.5622,-112.9779"/>
</g>
<!-- Node3391 -->
<g id="node13" class="node">
<title>Node3391</title>
<g id="a_node13"><a xlink:href="../../da/d9b/_n_f_inst_8h.html#a0dc3d036a06d7f45ecf7a8bf19b74ad4" target="_top" xlink:title="omc_NFInst_markStructural\lParamsDim">
<polygon fill="#ffffff" stroke="#000000" points="182,-39 182,-69 322,-69 322,-39 182,-39"/>
<text text-anchor="start" x="190" y="-57" font-family="Helvetica,sans-Serif" font-size="10.00" fill="#000000">omc_NFInst_markStructural</text>
<text text-anchor="middle" x="252" y="-46" font-family="Helvetica,sans-Serif" font-size="10.00" fill="#000000">ParamsDim</text>
</a>
</g>
</g>
<!-- Node3379&#45;&gt;Node3391 -->
<g id="edge13" class="edge">
<title>Node3379&#45;&gt;Node3391</title>
<path fill="none" stroke="#191970" d="M110.3994,-107.4732C129.9941,-98.3207 154,-87.571 176,-79 184.8009,-75.5713 194.2886,-72.2001 203.4773,-69.0979"/>
<polygon fill="#191970" stroke="#191970" points="108.7196,-104.3955 101.1627,-111.8214 111.7011,-110.7289 108.7196,-104.3955"/>
</g>
<!-- Node3392 -->
<g id="node14" class="node">
<title>Node3392</title>
<g id="a_node14"><a xlink:href="../../db/d98/_n_f_typing_8h.html#aa9a19f2f865ec4d90facbcbd4c7e4e32" target="_top" xlink:title="omc_NFTyping_typeIfEquation">
<polygon fill="#ffffff" stroke="#000000" points="176,-.5 176,-19.5 328,-19.5 328,-.5 176,-.5"/>
<text text-anchor="middle" x="252" y="-7.5" font-family="Helvetica,sans-Serif" font-size="10.00" fill="#000000">omc_NFTyping_typeIfEquation</text>
</a>
</g>
</g>
<!-- Node3379&#45;&gt;Node3392 -->
<g id="edge14" class="edge">
<title>Node3379&#45;&gt;Node3392</title>
<path fill="none" stroke="#191970" d="M88.5432,-104.1687C108.0097,-81.7145 140.6555,-48.1069 176,-29 183.1785,-25.1194 191.1669,-22.0141 199.1912,-19.5338"/>
<polygon fill="#191970" stroke="#191970" points="85.7921,-102.0011 81.987,-111.8891 91.1278,-106.5322 85.7921,-102.0011"/>
</g>
<!-- Node3381 -->
<g id="node3" class="node">
<title>Node3381</title>
<g id="a_node3"><a xlink:href="../../da/d9b/_n_f_inst_8h.html#ab9b6b2ed713fe4e3850597adb2be70b1" target="_top" xlink:title="boxptr_NFInst_markStructural\lParamsSub">
<polygon fill="#ffffff" stroke="#000000" points="370,-271 370,-301 518,-301 518,-271 370,-271"/>
<text text-anchor="start" x="378" y="-289" font-family="Helvetica,sans-Serif" font-size="10.00" fill="#000000">boxptr_NFInst_markStructural</text>
<text text-anchor="middle" x="444" y="-278" font-family="Helvetica,sans-Serif" font-size="10.00" fill="#000000">ParamsSub</text>
</a>
</g>
</g>
<!-- Node3380&#45;&gt;Node3381 -->
<g id="edge2" class="edge">
<title>Node3380&#45;&gt;Node3381</title>
<path fill="none" stroke="#191970" d="M332.0743,-265.0139C344.5927,-267.3611 357.4827,-269.778 369.8606,-272.0989"/>
<polygon fill="#191970" stroke="#191970" points="332.6052,-261.5526 322.1314,-263.1496 331.3151,-268.4327 332.6052,-261.5526"/>
</g>
<!-- Node3383 -->
<g id="node5" class="node">
<title>Node3383</title>
<g id="a_node5"><a xlink:href="../../da/d9b/_n_f_inst_8h.html#a0c15775843928da441ceccc059199521" target="_top" xlink:title="boxptr_NFInst_updateImplicit\lVariabilityEq">
<polygon fill="#ffffff" stroke="#000000" points="371.5,-222 371.5,-252 516.5,-252 516.5,-222 371.5,-222"/>
<text text-anchor="start" x="379.5" y="-240" font-family="Helvetica,sans-Serif" font-size="10.00" fill="#000000">boxptr_NFInst_updateImplicit</text>
<text text-anchor="middle" x="444" y="-229" font-family="Helvetica,sans-Serif" font-size="10.00" fill="#000000">VariabilityEq</text>
</a>
</g>
</g>
<!-- Node3382&#45;&gt;Node3383 -->
<g id="edge4" class="edge">
<title>Node3382&#45;&gt;Node3383</title>
<path fill="none" stroke="#191970" d="M330.6719,-215.751C344.1128,-218.2711 358.0224,-220.8792 371.2992,-223.3686"/>
<polygon fill="#191970" stroke="#191970" points="330.977,-212.2473 320.5033,-213.8444 329.6869,-219.1274 330.977,-212.2473"/>
</g>
<!-- Node3384 -->
<g id="node6" class="node">
<title>Node3384</title>
<g id="a_node6"><a xlink:href="../../da/d9b/_n_f_inst_8h.html#a9c09cad57cf0215dd437bca2a2cc5b9c" target="_top" xlink:title="omc_NFInst_updateImplicit\lVariabilityEql">
<polygon fill="#ffffff" stroke="#000000" points="375.5,-173 375.5,-203 512.5,-203 512.5,-173 375.5,-173"/>
<text text-anchor="start" x="383.5" y="-191" font-family="Helvetica,sans-Serif" font-size="10.00" fill="#000000">omc_NFInst_updateImplicit</text>
<text text-anchor="middle" x="444" y="-180" font-family="Helvetica,sans-Serif" font-size="10.00" fill="#000000">VariabilityEql</text>
</a>
</g>
</g>
<!-- Node3382&#45;&gt;Node3384 -->
<g id="edge5" class="edge">
<title>Node3382&#45;&gt;Node3384</title>
<path fill="none" stroke="#191970" d="M330.6254,-189.0256C345.4035,-187.8545 360.7498,-186.8647 375.2,-186.1551"/>
<polygon fill="#191970" stroke="#191970" points="330.1802,-185.5504 320.5033,-189.8641 330.7581,-192.5266 330.1802,-185.5504"/>
</g>
<!-- Node3384&#45;&gt;Node3382 -->
<g id="edge6" class="edge">
<title>Node3384&#45;&gt;Node3382</title>
<path fill="none" stroke="#191970" d="M365.0708,-199.9984C350.2851,-201.167 334.9411,-202.1537 320.5033,-202.8594"/>
<polygon fill="#191970" stroke="#191970" points="365.5222,-203.4731 375.2,-199.1615 364.9457,-196.4969 365.5222,-203.4731"/>
</g>
<!-- Node3385 -->
<g id="node7" class="node">
<title>Node3385</title>
<g id="a_node7"><a xlink:href="../../da/d9b/_n_f_inst_8h.html#a13d707bf5cfac08cb404674b18416093" target="_top" xlink:title="boxptr_NFInst_updateImplicit\lVariabilityEql">
<polygon fill="#ffffff" stroke="#000000" points="560,-173 560,-203 705,-203 705,-173 560,-173"/>
<text text-anchor="start" x="568" y="-191" font-family="Helvetica,sans-Serif" font-size="10.00" fill="#000000">boxptr_NFInst_updateImplicit</text>
<text text-anchor="middle" x="632.5" y="-180" font-family="Helvetica,sans-Serif" font-size="10.00" fill="#000000">VariabilityEql</text>
</a>
</g>
</g>
<!-- Node3384&#45;&gt;Node3385 -->
<g id="edge7" class="edge">
<title>Node3384&#45;&gt;Node3385</title>
<path fill="none" stroke="#191970" d="M522.7945,-188C535.0707,-188 547.7065,-188 559.838,-188"/>
<polygon fill="#191970" stroke="#191970" points="522.5861,-184.5001 512.5861,-188 522.586,-191.5001 522.5861,-184.5001"/>
</g>
<!-- Node3388 -->
<g id="node10" class="node">
<title>Node3388</title>
<g id="a_node10"><a xlink:href="../../da/d9b/_n_f_inst_8h.html#a1a34e5e4227c1151145e182c1a7b24a7" target="_top" xlink:title="omc_NFInst_markStructural\lParamsExp__traverser">
<polygon fill="#ffffff" stroke="#000000" points="374,-112 374,-142 514,-142 514,-112 374,-112"/>
<text text-anchor="start" x="382" y="-130" font-family="Helvetica,sans-Serif" font-size="10.00" fill="#000000">omc_NFInst_markStructural</text>
<text text-anchor="middle" x="444" y="-119" font-family="Helvetica,sans-Serif" font-size="10.00" fill="#000000">ParamsExp__traverser</text>
</a>
</g>
</g>
<!-- Node3387&#45;&gt;Node3388 -->
<g id="edge10" class="edge">
<title>Node3387&#45;&gt;Node3388</title>
<path fill="none" stroke="#191970" d="M332.1,-113.0125C345.9233,-114.7404 360.199,-116.5249 373.7374,-118.2172"/>
<polygon fill="#191970" stroke="#191970" points="332.4883,-109.5339 322.1314,-111.7664 331.62,-116.4798 332.4883,-109.5339"/>
</g>
<!-- Node3389 -->
<g id="node11" class="node">
<title>Node3389</title>
<g id="a_node11"><a xlink:href="../../da/d9b/_n_f_inst_8h.html#afacc2ebb15e49d3ca31e17af601e07d6" target="_top" xlink:title="omc_NFInst_updateImplicit\lVariabilityComp">
<polygon fill="#ffffff" stroke="#000000" points="375.5,-63 375.5,-93 512.5,-93 512.5,-63 375.5,-63"/>
<text text-anchor="start" x="383.5" y="-81" font-family="Helvetica,sans-Serif" font-size="10.00" fill="#000000">omc_NFInst_updateImplicit</text>
<text text-anchor="middle" x="444" y="-70" font-family="Helvetica,sans-Serif" font-size="10.00" fill="#000000">VariabilityComp</text>
</a>
</g>
</g>
<!-- Node3387&#45;&gt;Node3389 -->
<g id="edge11" class="edge">
<title>Node3387&#45;&gt;Node3389</title>
<path fill="none" stroke="#191970" d="M332.4206,-92.5286C346.6913,-90.6704 361.4339,-88.7508 375.3412,-86.9399"/>
<polygon fill="#191970" stroke="#191970" points="331.5958,-89.1063 322.1314,-93.8683 332.4996,-96.0477 331.5958,-89.1063"/>
</g>
<!-- Node3390 -->
<g id="node12" class="node">
<title>Node3390</title>
<g id="a_node12"><a xlink:href="../../da/d9b/_n_f_inst_8h.html#a4ea6f5ac900a2485b63e2d4d366edf46" target="_top" xlink:title="boxptr_NFInst_updateImplicit\lVariabilityComp">
<polygon fill="#ffffff" stroke="#000000" points="560,-63 560,-93 705,-93 705,-63 560,-63"/>
<text text-anchor="start" x="568" y="-81" font-family="Helvetica,sans-Serif" font-size="10.00" fill="#000000">boxptr_NFInst_updateImplicit</text>
<text text-anchor="middle" x="632.5" y="-70" font-family="Helvetica,sans-Serif" font-size="10.00" fill="#000000">VariabilityComp</text>
</a>
</g>
</g>
<!-- Node3389&#45;&gt;Node3390 -->
<g id="edge12" class="edge">
<title>Node3389&#45;&gt;Node3390</title>
<path fill="none" stroke="#191970" d="M522.7945,-78C535.0707,-78 547.7065,-78 559.838,-78"/>
<polygon fill="#191970" stroke="#191970" points="522.5861,-74.5001 512.5861,-78 522.586,-81.5001 522.5861,-74.5001"/>
</g>
<!-- Node3393 -->
<g id="node15" class="node">
<title>Node3393</title>
<g id="a_node15"><a xlink:href="../../db/d98/_n_f_typing_8h.html#a0d33623ed62ceda8d126abb91e34af2e" target="_top" xlink:title="boxptr_NFTyping_typeIfEquation">
<polygon fill="#ffffff" stroke="#000000" points="364,-.5 364,-19.5 524,-19.5 524,-.5 364,-.5"/>
<text text-anchor="middle" x="444" y="-7.5" font-family="Helvetica,sans-Serif" font-size="10.00" fill="#000000">boxptr_NFTyping_typeIfEquation</text>
</a>
</g>
</g>
<!-- Node3392&#45;&gt;Node3393 -->
<g id="edge15" class="edge">
<title>Node3392&#45;&gt;Node3393</title>
<path fill="none" stroke="#191970" d="M338.4136,-10C346.8758,-10 355.4384,-10 363.8348,-10"/>
<polygon fill="#191970" stroke="#191970" points="338.1593,-6.5001 328.1592,-10 338.1592,-13.5001 338.1593,-6.5001"/>
</g>
</g>
</svg>
