<?xml version="1.0" encoding="UTF-8" standalone="no"?>
<!DOCTYPE svg PUBLIC "-//W3C//DTD SVG 1.1//EN"
 "http://www.w3.org/Graphics/SVG/1.1/DTD/svg11.dtd">
<!-- Generated by graphviz version 2.40.1 (20161225.0304)
 -->
<!-- Title: omc_NFInst_markImplicitWhenExp Pages: 1 -->
<svg width="715pt" height="186pt"
 viewBox="0.00 0.00 715.00 186.00" xmlns="http://www.w3.org/2000/svg" xmlns:xlink="http://www.w3.org/1999/xlink">
<g id="graph0" class="graph" transform="scale(1 1) rotate(0) translate(4 182)">
<title>omc_NFInst_markImplicitWhenExp</title>
<polygon fill="#ffffff" stroke="transparent" points="-4,4 -4,-182 711,-182 711,4 -4,4"/>
<!-- Node3316 -->
<g id="node1" class="node">
<title>Node3316</title>
<polygon fill="#bfbfbf" stroke="#000000" points="0,-55 0,-74 172,-74 172,-55 0,-55"/>
<text text-anchor="middle" x="86" y="-62" font-family="Helvetica,sans-Serif" font-size="10.00" fill="#000000">omc_NFInst_markImplicitWhenExp</text>
</g>
<!-- Node3317 -->
<g id="node2" class="node">
<title>Node3317</title>
<g id="a_node2"><a xlink:href="../../da/d9b/_n_f_inst_8h.html#a8d4bde1c8153a6327136dee236d90a78" target="_top" xlink:title="omc_NFInst_updateImplicit\lVariabilityStmt">
<polygon fill="#ffffff" stroke="#000000" points="208,-98.5 208,-128.5 345,-128.5 345,-98.5 208,-98.5"/>
<text text-anchor="start" x="216" y="-116.5" font-family="Helvetica,sans-Serif" font-size="10.00" fill="#000000">omc_NFInst_updateImplicit</text>
<text text-anchor="middle" x="276.5" y="-105.5" font-family="Helvetica,sans-Serif" font-size="10.00" fill="#000000">VariabilityStmt</text>
</a>
</g>
</g>
<!-- Node3316&#45;&gt;Node3317 -->
<g id="edge1" class="edge">
<title>Node3316&#45;&gt;Node3317</title>
<path fill="none" stroke="#191970" d="M133.0488,-76.6018C158.7319,-83.208 190.7639,-91.4471 218.04,-98.463"/>
<polygon fill="#191970" stroke="#191970" points="133.7392,-73.1655 123.1825,-74.064 131.9954,-79.9448 133.7392,-73.1655"/>
</g>
<!-- Node3322 -->
<g id="node7" class="node">
<title>Node3322</title>
<g id="a_node7"><a xlink:href="../../da/d9b/_n_f_inst_8h.html#a1b7917ad50e8fa58cba8601aba46cf87" target="_top" xlink:title="omc_NFInst_updateImplicit\lVariabilityEq">
<polygon fill="#ffffff" stroke="#000000" points="208,-25.5 208,-55.5 345,-55.5 345,-25.5 208,-25.5"/>
<text text-anchor="start" x="216" y="-43.5" font-family="Helvetica,sans-Serif" font-size="10.00" fill="#000000">omc_NFInst_updateImplicit</text>
<text text-anchor="middle" x="276.5" y="-32.5" font-family="Helvetica,sans-Serif" font-size="10.00" fill="#000000">VariabilityEq</text>
</a>
</g>
</g>
<!-- Node3316&#45;&gt;Node3322 -->
<g id="edge7" class="edge">
<title>Node3316&#45;&gt;Node3322</title>
<path fill="none" stroke="#191970" d="M171.6693,-53.707C183.7783,-52.1815 196.0959,-50.6296 207.8287,-49.1515"/>
<polygon fill="#191970" stroke="#191970" points="171.0483,-50.2575 161.5643,-54.9801 171.9233,-57.2026 171.0483,-50.2575"/>
</g>
<!-- Node3318 -->
<g id="node3" class="node">
<title>Node3318</title>
<g id="a_node3"><a xlink:href="../../da/d9b/_n_f_inst_8h.html#a1acd0dd51101b55439aba6c2d878b83e" target="_top" xlink:title="boxptr_NFInst_updateImplicit\lVariabilityStmt">
<polygon fill="#ffffff" stroke="#000000" points="381,-147.5 381,-177.5 526,-177.5 526,-147.5 381,-147.5"/>
<text text-anchor="start" x="389" y="-165.5" font-family="Helvetica,sans-Serif" font-size="10.00" fill="#000000">boxptr_NFInst_updateImplicit</text>
<text text-anchor="middle" x="453.5" y="-154.5" font-family="Helvetica,sans-Serif" font-size="10.00" fill="#000000">VariabilityStmt</text>
</a>
</g>
</g>
<!-- Node3317&#45;&gt;Node3318 -->
<g id="edge2" class="edge">
<title>Node3317&#45;&gt;Node3318</title>
<path fill="none" stroke="#191970" d="M340.8747,-131.3212C359.9854,-136.6118 380.721,-142.3522 399.13,-147.4484"/>
<polygon fill="#191970" stroke="#191970" points="341.6214,-127.8964 331.0501,-128.6014 339.7538,-134.6427 341.6214,-127.8964"/>
</g>
<!-- Node3319 -->
<g id="node4" class="node">
<title>Node3319</title>
<g id="a_node4"><a xlink:href="../../da/d9b/_n_f_inst_8h.html#a3a6542190a5b222da4ab496c4d0c6cff" target="_top" xlink:title="omc_NFInst_updateImplicit\lVariabilityStmts">
<polygon fill="#ffffff" stroke="#000000" points="385,-98.5 385,-128.5 522,-128.5 522,-98.5 385,-98.5"/>
<text text-anchor="start" x="393" y="-116.5" font-family="Helvetica,sans-Serif" font-size="10.00" fill="#000000">omc_NFInst_updateImplicit</text>
<text text-anchor="middle" x="453.5" y="-105.5" font-family="Helvetica,sans-Serif" font-size="10.00" fill="#000000">VariabilityStmts</text>
</a>
</g>
</g>
<!-- Node3317&#45;&gt;Node3319 -->
<g id="edge3" class="edge">
<title>Node3317&#45;&gt;Node3319</title>
<path fill="none" stroke="#191970" d="M355.357,-106.7857C365.1926,-106.7126 375.189,-106.7517 384.8524,-106.9033"/>
<polygon fill="#191970" stroke="#191970" points="355.1452,-103.2878 345.1862,-106.9027 355.2258,-110.2874 355.1452,-103.2878"/>
</g>
<!-- Node3319&#45;&gt;Node3317 -->
<g id="edge4" class="edge">
<title>Node3319&#45;&gt;Node3317</title>
<path fill="none" stroke="#191970" d="M374.6823,-120.214C364.8471,-120.2874 354.8505,-120.2486 345.1862,-120.0973"/>
<polygon fill="#191970" stroke="#191970" points="374.8935,-123.7119 384.8524,-120.0967 374.8127,-116.7123 374.8935,-123.7119"/>
</g>
<!-- Node3320 -->
<g id="node5" class="node">
<title>Node3320</title>
<g id="a_node5"><a xlink:href="../../da/d9b/_n_f_inst_8h.html#ae78bdfcf60cca9ff171a8fb9bcac7745" target="_top" xlink:title="boxptr_NFInst_updateImplicit\lVariabilityStmts">
<polygon fill="#ffffff" stroke="#000000" points="562,-122.5 562,-152.5 707,-152.5 707,-122.5 562,-122.5"/>
<text text-anchor="start" x="570" y="-140.5" font-family="Helvetica,sans-Serif" font-size="10.00" fill="#000000">boxptr_NFInst_updateImplicit</text>
<text text-anchor="middle" x="634.5" y="-129.5" font-family="Helvetica,sans-Serif" font-size="10.00" fill="#000000">VariabilityStmts</text>
</a>
</g>
</g>
<!-- Node3319&#45;&gt;Node3320 -->
<g id="edge5" class="edge">
<title>Node3319&#45;&gt;Node3320</title>
<path fill="none" stroke="#191970" d="M532.3492,-123.9551C542.1854,-125.2594 552.2083,-126.5884 561.9426,-127.8791"/>
<polygon fill="#191970" stroke="#191970" points="532.5597,-120.4525 522.1864,-122.6076 531.6396,-127.3918 532.5597,-120.4525"/>
</g>
<!-- Node3321 -->
<g id="node6" class="node">
<title>Node3321</title>
<g id="a_node6"><a xlink:href="../../da/d9b/_n_f_inst_8h.html#abf7255810df4b19dd64c7e4ac19fe54e" target="_top" xlink:title="omc_NFInst_updateImplicit\lVariabilityAlg">
<polygon fill="#ffffff" stroke="#000000" points="566,-73.5 566,-103.5 703,-103.5 703,-73.5 566,-73.5"/>
<text text-anchor="start" x="574" y="-91.5" font-family="Helvetica,sans-Serif" font-size="10.00" fill="#000000">omc_NFInst_updateImplicit</text>
<text text-anchor="middle" x="634.5" y="-80.5" font-family="Helvetica,sans-Serif" font-size="10.00" fill="#000000">VariabilityAlg</text>
</a>
</g>
</g>
<!-- Node3319&#45;&gt;Node3321 -->
<g id="edge6" class="edge">
<title>Node3319&#45;&gt;Node3321</title>
<path fill="none" stroke="#191970" d="M532.3492,-102.6092C543.5107,-101.0676 554.9126,-99.4927 565.8605,-97.9806"/>
<polygon fill="#191970" stroke="#191970" points="531.6135,-99.1775 522.1864,-104.0129 532.5713,-106.1117 531.6135,-99.1775"/>
</g>
<!-- Node3323 -->
<g id="node8" class="node">
<title>Node3323</title>
<g id="a_node8"><a xlink:href="../../da/d9b/_n_f_inst_8h.html#a0c15775843928da441ceccc059199521" target="_top" xlink:title="boxptr_NFInst_updateImplicit\lVariabilityEq">
<polygon fill="#ffffff" stroke="#000000" points="381,-49.5 381,-79.5 526,-79.5 526,-49.5 381,-49.5"/>
<text text-anchor="start" x="389" y="-67.5" font-family="Helvetica,sans-Serif" font-size="10.00" fill="#000000">boxptr_NFInst_updateImplicit</text>
<text text-anchor="middle" x="453.5" y="-56.5" font-family="Helvetica,sans-Serif" font-size="10.00" fill="#000000">VariabilityEq</text>
</a>
</g>
</g>
<!-- Node3322&#45;&gt;Node3323 -->
<g id="edge8" class="edge">
<title>Node3322&#45;&gt;Node3323</title>
<path fill="none" stroke="#191970" d="M355.1206,-51.1604C363.6482,-52.3167 372.2997,-53.4898 380.7531,-54.636"/>
<polygon fill="#191970" stroke="#191970" points="355.5658,-47.6888 345.1862,-49.8134 354.6252,-54.6254 355.5658,-47.6888"/>
</g>
<!-- Node3324 -->
<g id="node9" class="node">
<title>Node3324</title>
<g id="a_node9"><a xlink:href="../../da/d9b/_n_f_inst_8h.html#a9c09cad57cf0215dd437bca2a2cc5b9c" target="_top" xlink:title="omc_NFInst_updateImplicit\lVariabilityEql">
<polygon fill="#ffffff" stroke="#000000" points="385,-.5 385,-30.5 522,-30.5 522,-.5 385,-.5"/>
<text text-anchor="start" x="393" y="-18.5" font-family="Helvetica,sans-Serif" font-size="10.00" fill="#000000">omc_NFInst_updateImplicit</text>
<text text-anchor="middle" x="453.5" y="-7.5" font-family="Helvetica,sans-Serif" font-size="10.00" fill="#000000">VariabilityEql</text>
</a>
</g>
</g>
<!-- Node3322&#45;&gt;Node3324 -->
<g id="edge9" class="edge">
<title>Node3322&#45;&gt;Node3324</title>
<path fill="none" stroke="#191970" d="M347.6075,-23.8238C359.8999,-21.9199 372.6584,-20.1301 384.8831,-18.5954"/>
<polygon fill="#191970" stroke="#191970" points="346.7387,-20.4179 337.4134,-25.4468 347.8393,-27.3309 346.7387,-20.4179"/>
</g>
<!-- Node3324&#45;&gt;Node3322 -->
<g id="edge10" class="edge">
<title>Node3324&#45;&gt;Node3322</title>
<path fill="none" stroke="#191970" d="M382.4502,-32.1673C370.1632,-34.0709 357.4089,-35.8608 345.1862,-37.3959"/>
<polygon fill="#191970" stroke="#191970" points="383.3143,-35.5739 392.6394,-30.5446 382.2133,-28.661 383.3143,-35.5739"/>
</g>
<!-- Node3325 -->
<g id="node10" class="node">
<title>Node3325</title>
<g id="a_node10"><a xlink:href="../../da/d9b/_n_f_inst_8h.html#a13d707bf5cfac08cb404674b18416093" target="_top" xlink:title="boxptr_NFInst_updateImplicit\lVariabilityEql">
<polygon fill="#ffffff" stroke="#000000" points="562,-.5 562,-30.5 707,-30.5 707,-.5 562,-.5"/>
<text text-anchor="start" x="570" y="-18.5" font-family="Helvetica,sans-Serif" font-size="10.00" fill="#000000">boxptr_NFInst_updateImplicit</text>
<text text-anchor="middle" x="634.5" y="-7.5" font-family="Helvetica,sans-Serif" font-size="10.00" fill="#000000">VariabilityEql</text>
</a>
</g>
</g>
<!-- Node3324&#45;&gt;Node3325 -->
<g id="edge11" class="edge">
<title>Node3324&#45;&gt;Node3325</title>
<path fill="none" stroke="#191970" d="M532.3492,-15.5C542.1854,-15.5 552.2083,-15.5 561.9426,-15.5"/>
<polygon fill="#191970" stroke="#191970" points="532.1865,-12.0001 522.1864,-15.5 532.1864,-19.0001 532.1865,-12.0001"/>
</g>
</g>
</svg>
