<?xml version="1.0" encoding="UTF-8" standalone="no"?>
<!DOCTYPE svg PUBLIC "-//W3C//DTD SVG 1.1//EN"
 "http://www.w3.org/Graphics/SVG/1.1/DTD/svg11.dtd">
<!-- Generated by graphviz version 2.40.1 (20161225.0304)
 -->
<!-- Title: boxptr_NFInst_updateImplicitVariabilityEql Pages: 1 -->
<svg width="1444pt" height="905pt"
 viewBox="0.00 0.00 1444.00 905.09" xmlns="http://www.w3.org/2000/svg" xmlns:xlink="http://www.w3.org/1999/xlink">
<g id="graph0" class="graph" transform="scale(1 1) rotate(0) translate(4 901.0921)">
<title>boxptr_NFInst_updateImplicitVariabilityEql</title>
<polygon fill="#ffffff" stroke="transparent" points="-4,4 -4,-901.0921 1440,-901.0921 1440,4 -4,4"/>
<!-- Node351 -->
<g id="node1" class="node">
<title>Node351</title>
<polygon fill="#bfbfbf" stroke="#000000" points="0,-634.5 0,-664.5 145,-664.5 145,-634.5 0,-634.5"/>
<text text-anchor="start" x="8" y="-652.5" font-family="Helvetica,sans-Serif" font-size="10.00" fill="#000000">boxptr_NFInst_updateImplicit</text>
<text text-anchor="middle" x="72.5" y="-641.5" font-family="Helvetica,sans-Serif" font-size="10.00" fill="#000000">VariabilityEql</text>
</g>
<!-- Node352 -->
<g id="node2" class="node">
<title>Node352</title>
<g id="a_node2"><a xlink:href="../../d0/de4/_n_f_inst_8c.html#a9c09cad57cf0215dd437bca2a2cc5b9c" target="_top" xlink:title="omc_NFInst_updateImplicit\lVariabilityEql">
<polygon fill="#ffffff" stroke="#000000" points="181,-634.5 181,-664.5 318,-664.5 318,-634.5 181,-634.5"/>
<text text-anchor="start" x="189" y="-652.5" font-family="Helvetica,sans-Serif" font-size="10.00" fill="#000000">omc_NFInst_updateImplicit</text>
<text text-anchor="middle" x="249.5" y="-641.5" font-family="Helvetica,sans-Serif" font-size="10.00" fill="#000000">VariabilityEql</text>
</a>
</g>
</g>
<!-- Node351&#45;&gt;Node352 -->
<g id="edge1" class="edge">
<title>Node351&#45;&gt;Node352</title>
<path fill="none" stroke="#191970" d="M145.0034,-649.5C153.5122,-649.5 162.2251,-649.5 170.8132,-649.5"/>
<polygon fill="#191970" stroke="#191970" points="170.8178,-653.0001 180.8178,-649.5 170.8178,-646.0001 170.8178,-653.0001"/>
</g>
<!-- Node353 -->
<g id="node3" class="node">
<title>Node353</title>
<g id="a_node3"><a xlink:href="../../d0/de4/_n_f_inst_8c.html#a1b7917ad50e8fa58cba8601aba46cf87" target="_top" xlink:title="omc_NFInst_updateImplicit\lVariabilityEq">
<polygon fill="#ffffff" stroke="#000000" points="354,-634.5 354,-664.5 491,-664.5 491,-634.5 354,-634.5"/>
<text text-anchor="start" x="362" y="-652.5" font-family="Helvetica,sans-Serif" font-size="10.00" fill="#000000">omc_NFInst_updateImplicit</text>
<text text-anchor="middle" x="422.5" y="-641.5" font-family="Helvetica,sans-Serif" font-size="10.00" fill="#000000">VariabilityEq</text>
</a>
</g>
</g>
<!-- Node352&#45;&gt;Node353 -->
<g id="edge2" class="edge">
<title>Node352&#45;&gt;Node353</title>
<path fill="none" stroke="#191970" d="M318.3713,-642.8762C326.678,-642.7558 335.2111,-642.7215 343.6466,-642.7735"/>
<polygon fill="#191970" stroke="#191970" points="343.8299,-646.2755 353.8657,-642.8796 343.9026,-639.2759 343.8299,-646.2755"/>
</g>
<!-- Node353&#45;&gt;Node352 -->
<g id="edge28" class="edge">
<title>Node353&#45;&gt;Node352</title>
<path fill="none" stroke="#191970" d="M353.8657,-656.1204C345.5633,-656.2424 337.0314,-656.2783 328.5941,-656.228"/>
<polygon fill="#191970" stroke="#191970" points="328.4064,-652.726 318.3713,-656.1238 328.3351,-659.7256 328.4064,-652.726"/>
</g>
<!-- Node354 -->
<g id="node4" class="node">
<title>Node354</title>
<g id="a_node4"><a xlink:href="../../d0/de4/_n_f_inst_8c.html#a54defa679c7a406f16449d1e260f1c0b" target="_top" xlink:title="omc_NFInst_markImplicitWhenExp">
<polygon fill="#ffffff" stroke="#000000" points="527,-742 527,-761 699,-761 699,-742 527,-742"/>
<text text-anchor="middle" x="613" y="-749" font-family="Helvetica,sans-Serif" font-size="10.00" fill="#000000">omc_NFInst_markImplicitWhenExp</text>
</a>
</g>
</g>
<!-- Node353&#45;&gt;Node354 -->
<g id="edge3" class="edge">
<title>Node353&#45;&gt;Node354</title>
<path fill="none" stroke="#191970" d="M440.3004,-664.663C460.2854,-681.0544 494.2219,-707.0366 527,-723.5 539.0759,-729.5653 552.7519,-734.7171 565.5875,-738.884"/>
<polygon fill="#191970" stroke="#191970" points="564.6102,-742.2454 575.1986,-741.8773 566.6917,-735.562 564.6102,-742.2454"/>
</g>
<!-- Node364 -->
<g id="node14" class="node">
<title>Node364</title>
<g id="a_node14"><a xlink:href="../../db/d0c/_n_f_expression_8c.html#ab08a4910f3f6b6bcf6d9dccac7916436" target="_top" xlink:title="omc_NFExpression_fold">
<polygon fill="#ffffff" stroke="#000000" points="551,-609 551,-628 675,-628 675,-609 551,-609"/>
<text text-anchor="middle" x="613" y="-616" font-family="Helvetica,sans-Serif" font-size="10.00" fill="#000000">omc_NFExpression_fold</text>
</a>
</g>
</g>
<!-- Node353&#45;&gt;Node364 -->
<g id="edge19" class="edge">
<title>Node353&#45;&gt;Node364</title>
<path fill="none" stroke="#191970" d="M491.0057,-638.3521C508.3936,-635.5226 527.0754,-632.4825 544.4647,-629.6527"/>
<polygon fill="#191970" stroke="#191970" points="545.2264,-633.0749 554.5344,-628.0141 544.102,-626.1658 545.2264,-633.0749"/>
</g>
<!-- Node368 -->
<g id="node18" class="node">
<title>Node368</title>
<g id="a_node18"><a xlink:href="../../db/d0c/_n_f_expression_8c.html#a28bf77124b3c1a7b0ddcd14801017819" target="_top" xlink:title="omc_NFExpression_variability">
<polygon fill="#ffffff" stroke="#000000" points="538.5,-276 538.5,-295 687.5,-295 687.5,-276 538.5,-276"/>
<text text-anchor="middle" x="613" y="-283" font-family="Helvetica,sans-Serif" font-size="10.00" fill="#000000">omc_NFExpression_variability</text>
</a>
</g>
</g>
<!-- Node353&#45;&gt;Node368 -->
<g id="edge29" class="edge">
<title>Node353&#45;&gt;Node368</title>
<path fill="none" stroke="#191970" d="M430.443,-634.3228C460.8558,-576.2112 569.861,-367.9284 603.2255,-304.1767"/>
<polygon fill="#191970" stroke="#191970" points="606.3713,-305.7139 607.9073,-295.231 600.1693,-302.468 606.3713,-305.7139"/>
</g>
<!-- Node389 -->
<g id="node39" class="node">
<title>Node389</title>
<g id="a_node39"><a xlink:href="../../d0/de4/_n_f_inst_8c.html#a672d4658ce72cc10d728c24c599d111c" target="_top" xlink:title="omc_NFInst_markStructural\lParamsExp">
<polygon fill="#ffffff" stroke="#000000" points="543,-683.5 543,-713.5 683,-713.5 683,-683.5 543,-683.5"/>
<text text-anchor="start" x="551" y="-701.5" font-family="Helvetica,sans-Serif" font-size="10.00" fill="#000000">omc_NFInst_markStructural</text>
<text text-anchor="middle" x="613" y="-690.5" font-family="Helvetica,sans-Serif" font-size="10.00" fill="#000000">ParamsExp</text>
</a>
</g>
</g>
<!-- Node353&#45;&gt;Node389 -->
<g id="edge63" class="edge">
<title>Node353&#45;&gt;Node389</title>
<path fill="none" stroke="#191970" d="M480.9509,-664.5346C501.1565,-669.7318 523.9728,-675.6006 544.8851,-680.9796"/>
<polygon fill="#191970" stroke="#191970" points="544.103,-684.3923 554.6596,-683.4938 545.8468,-677.613 544.103,-684.3923"/>
</g>
<!-- Node355 -->
<g id="node5" class="node">
<title>Node355</title>
<g id="a_node5"><a xlink:href="../../db/d0c/_n_f_expression_8c.html#abea2daadbbe733be3b67856b3ef9904b" target="_top" xlink:title="omc_NFExpression_apply">
<polygon fill="#ffffff" stroke="#000000" points="745.5,-747 745.5,-766 876.5,-766 876.5,-747 745.5,-747"/>
<text text-anchor="middle" x="811" y="-754" font-family="Helvetica,sans-Serif" font-size="10.00" fill="#000000">omc_NFExpression_apply</text>
</a>
</g>
</g>
<!-- Node354&#45;&gt;Node355 -->
<g id="edge4" class="edge">
<title>Node354&#45;&gt;Node355</title>
<path fill="none" stroke="#191970" d="M699.2697,-753.6785C711.1988,-753.9798 723.3786,-754.2873 735.1008,-754.5834"/>
<polygon fill="#191970" stroke="#191970" points="735.1814,-758.0864 745.2666,-754.8401 735.3581,-751.0886 735.1814,-758.0864"/>
</g>
<!-- Node355&#45;&gt;Node355 -->
<g id="edge5" class="edge">
<title>Node355&#45;&gt;Node355</title>
<path fill="none" stroke="#191970" d="M781.099,-766.2571C766.5525,-775.0653 776.5195,-784.5 811,-784.5 835.2441,-784.5 847.3691,-779.8356 847.375,-774.0043"/>
<polygon fill="#191970" stroke="#191970" points="849.9991,-771.6862 840.901,-766.2571 844.6277,-776.1749 849.9991,-771.6862"/>
</g>
<!-- Node356 -->
<g id="node6" class="node">
<title>Node356</title>
<g id="a_node6"><a xlink:href="../../db/d0c/_n_f_expression_8c.html#a060fbe21bbb6c29a30446b1c531fd5eb" target="_top" xlink:title="omc_NFExpression_applyCref">
<polygon fill="#ffffff" stroke="#000000" points="930.5,-846 930.5,-865 1080.5,-865 1080.5,-846 930.5,-846"/>
<text text-anchor="middle" x="1005.5" y="-853" font-family="Helvetica,sans-Serif" font-size="10.00" fill="#000000">omc_NFExpression_applyCref</text>
</a>
</g>
</g>
<!-- Node355&#45;&gt;Node356 -->
<g id="edge6" class="edge">
<title>Node355&#45;&gt;Node356</title>
<path fill="none" stroke="#191970" d="M822.6951,-766.1279C842.305,-781.8429 883.5559,-813.0951 923,-831.5 932.6291,-835.993 943.2873,-839.8439 953.6563,-843.062"/>
<polygon fill="#191970" stroke="#191970" points="952.8844,-846.4834 963.466,-845.954 954.8638,-839.769 952.8844,-846.4834"/>
</g>
<!-- Node358 -->
<g id="node8" class="node">
<title>Node358</title>
<g id="a_node8"><a xlink:href="../../db/d0c/_n_f_expression_8c.html#a5c2d6c1e5e4a0479771d7363c7c12278" target="_top" xlink:title="omc_NFExpression_applyList">
<polygon fill="#ffffff" stroke="#000000" points="1134.5,-799 1134.5,-818 1281.5,-818 1281.5,-799 1134.5,-799"/>
<text text-anchor="middle" x="1208" y="-806" font-family="Helvetica,sans-Serif" font-size="10.00" fill="#000000">omc_NFExpression_applyList</text>
</a>
</g>
</g>
<!-- Node355&#45;&gt;Node358 -->
<g id="edge9" class="edge">
<title>Node355&#45;&gt;Node358</title>
<path fill="none" stroke="#191970" d="M876.5066,-763.0809C891.7095,-766.0333 907.8703,-769.1435 923,-771.5 1000.9714,-783.6443 1091.8125,-791.4929 1149.5925,-797.8491"/>
<polygon fill="#191970" stroke="#191970" points="1149.3039,-801.3387 1159.6325,-798.9785 1150.0865,-794.3825 1149.3039,-801.3387"/>
</g>
<!-- Node359 -->
<g id="node9" class="node">
<title>Node359</title>
<g id="a_node9"><a xlink:href="../../db/d0c/_n_f_expression_8c.html#ac6c3acf3364c378034af422077ae05b0" target="_top" xlink:title="omc_NFExpression_applyCall">
<polygon fill="#ffffff" stroke="#000000" points="931,-752 931,-771 1080,-771 1080,-752 931,-752"/>
<text text-anchor="middle" x="1005.5" y="-759" font-family="Helvetica,sans-Serif" font-size="10.00" fill="#000000">omc_NFExpression_applyCall</text>
</a>
</g>
</g>
<!-- Node355&#45;&gt;Node359 -->
<g id="edge11" class="edge">
<title>Node355&#45;&gt;Node359</title>
<path fill="none" stroke="#191970" d="M876.5777,-751.7646C890.7354,-751.8246 905.8984,-752.1212 920.6726,-752.6185"/>
<polygon fill="#191970" stroke="#191970" points="920.6989,-756.1218 930.8216,-752.9945 920.9581,-749.1266 920.6989,-756.1218"/>
</g>
<!-- Node361 -->
<g id="node11" class="node">
<title>Node361</title>
<g id="a_node11"><a xlink:href="../../d0/d93/_n_f_subscript_8c.html#a5d0e2ef4dd5df4ea654e160268763d21" target="_top" xlink:title="omc_NFSubscript_applyExp">
<polygon fill="#ffffff" stroke="#000000" points="935,-714 935,-733 1076,-733 1076,-714 935,-714"/>
<text text-anchor="middle" x="1005.5" y="-721" font-family="Helvetica,sans-Serif" font-size="10.00" fill="#000000">omc_NFSubscript_applyExp</text>
</a>
</g>
</g>
<!-- Node355&#45;&gt;Node361 -->
<g id="edge15" class="edge">
<title>Node355&#45;&gt;Node361</title>
<path fill="none" stroke="#191970" d="M838.4546,-746.969C860.9429,-741.6332 893.9554,-735.4353 924.7067,-730.5445"/>
<polygon fill="#191970" stroke="#191970" points="925.2527,-734.0018 934.5953,-729.0052 924.1759,-727.0851 925.2527,-734.0018"/>
</g>
<!-- Node362 -->
<g id="node12" class="node">
<title>Node362</title>
<g id="a_node12"><a xlink:href="../../d8/de3/_mutable_8c.html#a4d9367043438a5c1a24d17f1f9559996" target="_top" xlink:title="omc_Mutable_access">
<polygon fill="#ffffff" stroke="#000000" points="949.5,-676 949.5,-695 1061.5,-695 1061.5,-676 949.5,-676"/>
<text text-anchor="middle" x="1005.5" y="-683" font-family="Helvetica,sans-Serif" font-size="10.00" fill="#000000">omc_Mutable_access</text>
</a>
</g>
</g>
<!-- Node355&#45;&gt;Node362 -->
<g id="edge17" class="edge">
<title>Node355&#45;&gt;Node362</title>
<path fill="none" stroke="#191970" d="M828.7558,-746.8419C850.4494,-735.3774 888.528,-716.3273 923,-704.5 930.4291,-701.9511 938.3514,-699.6384 946.2373,-697.5745"/>
<polygon fill="#191970" stroke="#191970" points="947.3132,-700.9133 956.1668,-695.094 945.6167,-694.122 947.3132,-700.9133"/>
</g>
<!-- Node363 -->
<g id="node13" class="node">
<title>Node363</title>
<g id="a_node13"><a xlink:href="../../d1/dd1/3rd_party_2gc_2include_2gc_8h.html#acacfa47efcc44a29f7bb7d98f2a000f8" target="_top" xlink:title="void">
<polygon fill="#ffffff" stroke="#000000" points="988,-638 988,-657 1023,-657 1023,-638 988,-638"/>
<text text-anchor="middle" x="1005.5" y="-645" font-family="Helvetica,sans-Serif" font-size="10.00" fill="#000000">void</text>
</a>
</g>
</g>
<!-- Node355&#45;&gt;Node363 -->
<g id="edge18" class="edge">
<title>Node355&#45;&gt;Node363</title>
<path fill="none" stroke="#191970" d="M819.8645,-746.9366C837.5909,-728.4153 879.4598,-687.6202 923,-666.5 940.2482,-658.1333 961.3363,-653.3601 977.8741,-650.6905"/>
<polygon fill="#191970" stroke="#191970" points="978.604,-654.1214 987.9986,-649.2233 977.6,-647.1937 978.604,-654.1214"/>
</g>
<!-- Node357 -->
<g id="node7" class="node">
<title>Node357</title>
<g id="a_node7"><a xlink:href="../../db/d0c/_n_f_expression_8c.html#afadc34403d27a297a453fa3edfaba30b" target="_top" xlink:title="omc_NFExpression_applyCref\lSubscript">
<polygon fill="#ffffff" stroke="#000000" points="1133,-859.5 1133,-889.5 1283,-889.5 1283,-859.5 1133,-859.5"/>
<text text-anchor="start" x="1141" y="-877.5" font-family="Helvetica,sans-Serif" font-size="10.00" fill="#000000">omc_NFExpression_applyCref</text>
<text text-anchor="middle" x="1208" y="-866.5" font-family="Helvetica,sans-Serif" font-size="10.00" fill="#000000">Subscript</text>
</a>
</g>
</g>
<!-- Node356&#45;&gt;Node357 -->
<g id="edge7" class="edge">
<title>Node356&#45;&gt;Node357</title>
<path fill="none" stroke="#191970" d="M1080.6158,-862.5479C1094.2924,-863.8311 1108.6519,-865.1785 1122.5999,-866.4872"/>
<polygon fill="#191970" stroke="#191970" points="1122.3846,-869.9822 1132.6679,-867.4318 1123.0386,-863.0128 1122.3846,-869.9822"/>
</g>
<!-- Node357&#45;&gt;Node355 -->
<g id="edge8" class="edge">
<title>Node357&#45;&gt;Node355</title>
<path fill="none" stroke="#191970" d="M1137.2491,-889.5212C1077.6064,-898.7422 991.3066,-903.8428 923,-874.5 875.6424,-854.1563 838.8905,-802.8569 821.6878,-775.0713"/>
<polygon fill="#191970" stroke="#191970" points="824.5791,-773.0873 816.4329,-766.313 818.5766,-776.6888 824.5791,-773.0873"/>
</g>
<!-- Node358&#45;&gt;Node355 -->
<g id="edge10" class="edge">
<title>Node358&#45;&gt;Node355</title>
<path fill="none" stroke="#191970" d="M1134.493,-810.9234C1076.769,-808.1557 994.477,-800.6328 923,-789.5 892.3292,-784.7229 857.4211,-776.8486 834.8459,-769.3898"/>
<polygon fill="#191970" stroke="#191970" points="835.9954,-766.0839 825.4008,-766.0047 833.6336,-772.6735 835.9954,-766.0839"/>
</g>
<!-- Node359&#45;&gt;Node355 -->
<g id="edge13" class="edge">
<title>Node359&#45;&gt;Node355</title>
<path fill="none" stroke="#191970" d="M930.8216,-766.166C916.4408,-766.0091 901.363,-765.6275 886.9425,-765.0561"/>
<polygon fill="#191970" stroke="#191970" points="886.7198,-761.5433 876.5777,-764.607 886.4167,-768.5367 886.7198,-761.5433"/>
</g>
<!-- Node359&#45;&gt;Node358 -->
<g id="edge12" class="edge">
<title>Node359&#45;&gt;Node358</title>
<path fill="none" stroke="#191970" d="M1046.4789,-771.0112C1078.3501,-778.4084 1122.7483,-788.7132 1156.9323,-796.6473"/>
<polygon fill="#191970" stroke="#191970" points="1156.2026,-800.0709 1166.735,-798.9224 1157.7853,-793.2521 1156.2026,-800.0709"/>
</g>
<!-- Node360 -->
<g id="node10" class="node">
<title>Node360</title>
<g id="a_node10"><a xlink:href="../../d9/d7c/_compiler_2boot_2build_2util_8c.html#aba4a7f37305a10621a18bb3a87fa1076" target="_top" xlink:title="omc_Util_tuple22">
<polygon fill="#ffffff" stroke="#000000" points="1162,-562 1162,-581 1254,-581 1254,-562 1162,-562"/>
<text text-anchor="middle" x="1208" y="-569" font-family="Helvetica,sans-Serif" font-size="10.00" fill="#000000">omc_Util_tuple22</text>
</a>
</g>
</g>
<!-- Node359&#45;&gt;Node360 -->
<g id="edge14" class="edge">
<title>Node359&#45;&gt;Node360</title>
<path fill="none" stroke="#191970" d="M1069.2212,-751.9012C1075.8632,-749.4405 1082.27,-746.3584 1088,-742.5 1146.0472,-703.4131 1184.7632,-626.1027 1200.3122,-590.394"/>
<polygon fill="#191970" stroke="#191970" points="1203.5659,-591.6858 1204.2359,-581.1121 1197.1184,-588.9601 1203.5659,-591.6858"/>
</g>
<!-- Node361&#45;&gt;Node355 -->
<g id="edge16" class="edge">
<title>Node361&#45;&gt;Node355</title>
<path fill="none" stroke="#191970" d="M978.1073,-733.0163C954.4148,-738.641 919.0079,-745.2264 886.876,-750.2294"/>
<polygon fill="#191970" stroke="#191970" points="885.938,-746.8317 876.5777,-751.7949 886.9901,-753.7522 885.938,-746.8317"/>
</g>
<!-- Node364&#45;&gt;Node364 -->
<g id="edge20" class="edge">
<title>Node364&#45;&gt;Node364</title>
<path fill="none" stroke="#191970" d="M583.7155,-628.2571C569.469,-637.0653 579.2305,-646.5 613,-646.5 636.7442,-646.5 648.6192,-641.8356 648.625,-636.0043"/>
<polygon fill="#191970" stroke="#191970" points="651.3266,-633.779 642.2845,-628.2571 645.9095,-638.2125 651.3266,-633.779"/>
</g>
<!-- Node365 -->
<g id="node15" class="node">
<title>Node365</title>
<g id="a_node15"><a xlink:href="../../db/d0c/_n_f_expression_8c.html#aa6231af2c3561a8648133a0d4292abd4" target="_top" xlink:title="omc_NFExpression_foldCref">
<polygon fill="#ffffff" stroke="#000000" points="739.5,-656 739.5,-675 882.5,-675 882.5,-656 739.5,-656"/>
<text text-anchor="middle" x="811" y="-663" font-family="Helvetica,sans-Serif" font-size="10.00" fill="#000000">omc_NFExpression_foldCref</text>
</a>
</g>
</g>
<!-- Node364&#45;&gt;Node365 -->
<g id="edge21" class="edge">
<title>Node364&#45;&gt;Node365</title>
<path fill="none" stroke="#191970" d="M653.0683,-628.0112C684.0974,-635.3767 727.2704,-645.6248 760.6363,-653.545"/>
<polygon fill="#191970" stroke="#191970" points="760.114,-657.0182 770.652,-655.9224 761.7307,-650.2074 760.114,-657.0182"/>
</g>
<!-- Node366 -->
<g id="node16" class="node">
<title>Node366</title>
<g id="a_node16"><a xlink:href="../../db/d0c/_n_f_expression_8c.html#ac9520385b0ebb5b62c173253bfd49b1e" target="_top" xlink:title="omc_NFExpression_foldList">
<polygon fill="#ffffff" stroke="#000000" points="935.5,-600 935.5,-619 1075.5,-619 1075.5,-600 935.5,-600"/>
<text text-anchor="middle" x="1005.5" y="-607" font-family="Helvetica,sans-Serif" font-size="10.00" fill="#000000">omc_NFExpression_foldList</text>
</a>
</g>
</g>
<!-- Node364&#45;&gt;Node366 -->
<g id="edge22" class="edge">
<title>Node364&#45;&gt;Node366</title>
<path fill="none" stroke="#191970" d="M675.1928,-611.9852C742.8053,-608.3944 851.0829,-605.7508 925.1058,-605.7722"/>
<polygon fill="#191970" stroke="#191970" points="925.3084,-609.2725 935.3156,-605.7931 925.3228,-602.2725 925.3084,-609.2725"/>
</g>
<!-- Node367 -->
<g id="node17" class="node">
<title>Node367</title>
<g id="a_node17"><a xlink:href="../../db/d0c/_n_f_expression_8c.html#ac86e4c673150f2ade33ea47264d6929a" target="_top" xlink:title="omc_NFExpression_foldCall">
<polygon fill="#ffffff" stroke="#000000" points="740.5,-562 740.5,-581 881.5,-581 881.5,-562 740.5,-562"/>
<text text-anchor="middle" x="811" y="-569" font-family="Helvetica,sans-Serif" font-size="10.00" fill="#000000">omc_NFExpression_foldCall</text>
</a>
</g>
</g>
<!-- Node364&#45;&gt;Node367 -->
<g id="edge24" class="edge">
<title>Node364&#45;&gt;Node367</title>
<path fill="none" stroke="#191970" d="M634.5664,-608.9791C658.3864,-601.3661 698.1069,-591.2041 733.8346,-583.2151"/>
<polygon fill="#191970" stroke="#191970" points="734.7758,-586.5918 743.7893,-581.0234 733.2706,-579.7556 734.7758,-586.5918"/>
</g>
<!-- Node366&#45;&gt;Node364 -->
<g id="edge23" class="edge">
<title>Node366&#45;&gt;Node364</title>
<path fill="none" stroke="#191970" d="M935.3156,-616.4256C864.8253,-619.9336 756.7107,-622.4324 685.433,-622.2147"/>
<polygon fill="#191970" stroke="#191970" points="685.2105,-618.7136 675.1928,-622.1627 685.1748,-625.7136 685.2105,-618.7136"/>
</g>
<!-- Node367&#45;&gt;Node360 -->
<g id="edge27" class="edge">
<title>Node367&#45;&gt;Node360</title>
<path fill="none" stroke="#191970" d="M881.5182,-571.5C958.7153,-571.5 1080.932,-571.5 1151.8921,-571.5"/>
<polygon fill="#191970" stroke="#191970" points="1151.9783,-575.0001 1161.9782,-571.5 1151.9782,-568.0001 1151.9783,-575.0001"/>
</g>
<!-- Node367&#45;&gt;Node364 -->
<g id="edge26" class="edge">
<title>Node367&#45;&gt;Node364</title>
<path fill="none" stroke="#191970" d="M789.3094,-581.0606C764.3954,-589.014 722.2049,-599.7342 685.3423,-607.8555"/>
<polygon fill="#191970" stroke="#191970" points="684.1377,-604.5351 675.1052,-610.0727 685.6195,-611.3765 684.1377,-604.5351"/>
</g>
<!-- Node367&#45;&gt;Node366 -->
<g id="edge25" class="edge">
<title>Node367&#45;&gt;Node366</title>
<path fill="none" stroke="#191970" d="M859.8295,-581.04C886.1876,-586.1896 918.9169,-592.584 946.6712,-598.0065"/>
<polygon fill="#191970" stroke="#191970" points="946.1648,-601.4736 956.6504,-599.9561 947.5071,-594.6035 946.1648,-601.4736"/>
</g>
<!-- Node368&#45;&gt;Node368 -->
<g id="edge44" class="edge">
<title>Node368&#45;&gt;Node368</title>
<path fill="none" stroke="#191970" d="M583.7155,-295.2571C569.469,-304.0653 579.2305,-313.5 613,-313.5 636.7442,-313.5 648.6192,-308.8356 648.625,-303.0043"/>
<polygon fill="#191970" stroke="#191970" points="651.3266,-300.779 642.2845,-295.2571 645.9095,-305.2125 651.3266,-300.779"/>
</g>
<!-- Node369 -->
<g id="node19" class="node">
<title>Node369</title>
<g id="a_node19"><a xlink:href="../../df/d26/_n_f_component_ref_8c.html#a9aaa7004c2ccff68028b1f311d83d867" target="_top" xlink:title="omc_NFComponentRef\l_variability">
<polygon fill="#ffffff" stroke="#000000" points="751,-188.5 751,-218.5 871,-218.5 871,-188.5 751,-188.5"/>
<text text-anchor="start" x="759" y="-206.5" font-family="Helvetica,sans-Serif" font-size="10.00" fill="#000000">omc_NFComponentRef</text>
<text text-anchor="middle" x="811" y="-195.5" font-family="Helvetica,sans-Serif" font-size="10.00" fill="#000000">_variability</text>
</a>
</g>
</g>
<!-- Node368&#45;&gt;Node369 -->
<g id="edge30" class="edge">
<title>Node368&#45;&gt;Node369</title>
<path fill="none" stroke="#191970" d="M634.9647,-275.927C659.3325,-265.3561 699.8545,-247.9236 735,-233.5 743.9606,-229.8226 753.5479,-225.9727 762.7902,-222.3038"/>
<polygon fill="#191970" stroke="#191970" points="764.2436,-225.4929 772.256,-218.5609 761.6696,-218.9833 764.2436,-225.4929"/>
</g>
<!-- Node370 -->
<g id="node20" class="node">
<title>Node370</title>
<g id="a_node20"><a xlink:href="../../d3/dc8/_n_f_prefixes_8c.html#a950ddc32bf152be5c44c4173e213077e" target="_top" xlink:title="omc_NFPrefixes_variabilityMax">
<polygon fill="#ffffff" stroke="#000000" points="1130.5,-254 1130.5,-273 1285.5,-273 1285.5,-254 1130.5,-254"/>
<text text-anchor="middle" x="1208" y="-261" font-family="Helvetica,sans-Serif" font-size="10.00" fill="#000000">omc_NFPrefixes_variabilityMax</text>
</a>
</g>
</g>
<!-- Node368&#45;&gt;Node370 -->
<g id="edge45" class="edge">
<title>Node368&#45;&gt;Node370</title>
<path fill="none" stroke="#191970" d="M687.7547,-282.736C797.8451,-278.6654 1003.1555,-271.0741 1120.2427,-266.7448"/>
<polygon fill="#191970" stroke="#191970" points="1120.3873,-270.2419 1130.2511,-266.3747 1120.1286,-263.2467 1120.3873,-270.2419"/>
</g>
<!-- Node377 -->
<g id="node27" class="node">
<title>Node377</title>
<g id="a_node27"><a xlink:href="../../db/d0c/_n_f_expression_8c.html#a04c987d27c2fc4e774ffbbf9eaa23606" target="_top" xlink:title="omc_NFExpression_variabilityList">
<polygon fill="#ffffff" stroke="#000000" points="923,-524 923,-543 1088,-543 1088,-524 923,-524"/>
<text text-anchor="middle" x="1005.5" y="-531" font-family="Helvetica,sans-Serif" font-size="10.00" fill="#000000">omc_NFExpression_variabilityList</text>
</a>
</g>
</g>
<!-- Node368&#45;&gt;Node377 -->
<g id="edge40" class="edge">
<title>Node368&#45;&gt;Node377</title>
<path fill="none" stroke="#191970" d="M626.6027,-295.0693C648.1086,-315.3985 691.9549,-361.3872 735,-393.5 812.0594,-450.9884 834.4582,-463.0379 923,-500.5 942.1125,-508.5865 964.8174,-514.972 981.5652,-520.5615"/>
<polygon fill="#191970" stroke="#191970" points="980.5431,-523.9125 991.1379,-523.9471 982.8772,-517.313 980.5431,-523.9125"/>
</g>
<!-- Node378 -->
<g id="node28" class="node">
<title>Node378</title>
<g id="a_node28"><a xlink:href="../../da/d72/_compiler_2boot_2build_2list_8c.html#a3ec1ee3a5ff53be9af368e290be09182" target="_top" xlink:title="omc_List_fold">
<polygon fill="#ffffff" stroke="#000000" points="772.5,-150 772.5,-169 849.5,-169 849.5,-150 772.5,-150"/>
<text text-anchor="middle" x="811" y="-157" font-family="Helvetica,sans-Serif" font-size="10.00" fill="#000000">omc_List_fold</text>
</a>
</g>
</g>
<!-- Node368&#45;&gt;Node378 -->
<g id="edge43" class="edge">
<title>Node368&#45;&gt;Node378</title>
<path fill="none" stroke="#191970" d="M621.065,-275.8171C639.164,-254.7398 685.3364,-204.5124 735,-178.5 743.4948,-174.0507 753.0753,-170.611 762.4993,-167.9622"/>
<polygon fill="#191970" stroke="#191970" points="763.3899,-171.3472 772.2112,-165.4791 761.6559,-164.5653 763.3899,-171.3472"/>
</g>
<!-- Node379 -->
<g id="node29" class="node">
<title>Node379</title>
<g id="a_node29"><a xlink:href="../../d9/d7c/_compiler_2boot_2build_2util_8c.html#a049372c160fa344ce26314ee56987490" target="_top" xlink:title="omc_Util_getOption">
<polygon fill="#ffffff" stroke="#000000" points="759.5,-112 759.5,-131 862.5,-131 862.5,-112 759.5,-112"/>
<text text-anchor="middle" x="811" y="-119" font-family="Helvetica,sans-Serif" font-size="10.00" fill="#000000">omc_Util_getOption</text>
</a>
</g>
</g>
<!-- Node368&#45;&gt;Node379 -->
<g id="edge46" class="edge">
<title>Node368&#45;&gt;Node379</title>
<path fill="none" stroke="#191970" d="M618.1369,-275.941C632.6944,-249.8133 676.9559,-176.7416 735,-140.5 739.6146,-137.6188 744.6426,-135.174 749.8421,-133.0998"/>
<polygon fill="#191970" stroke="#191970" points="751.0679,-136.3788 759.3343,-129.7519 748.7395,-129.7774 751.0679,-136.3788"/>
</g>
<!-- Node380 -->
<g id="node30" class="node">
<title>Node380</title>
<g id="a_node30"><a xlink:href="../../d9/dd8/_n_f_call_8c.html#a3913f0b6e2361e99b12afcb6dbfb68b3" target="_top" xlink:title="omc_NFCall_Call_variability">
<polygon fill="#ffffff" stroke="#000000" points="741,-374 741,-393 881,-393 881,-374 741,-374"/>
<text text-anchor="middle" x="811" y="-381" font-family="Helvetica,sans-Serif" font-size="10.00" fill="#000000">omc_NFCall_Call_variability</text>
</a>
</g>
</g>
<!-- Node368&#45;&gt;Node380 -->
<g id="edge47" class="edge">
<title>Node368&#45;&gt;Node380</title>
<path fill="none" stroke="#191970" d="M642.2156,-295.0049C682.5048,-312.3735 754.1672,-348.0359 789.7446,-368.6038"/>
<polygon fill="#191970" stroke="#191970" points="787.9856,-371.6298 798.3697,-373.7323 791.5631,-365.6131 787.9856,-371.6298"/>
</g>
<!-- Node386 -->
<g id="node36" class="node">
<title>Node386</title>
<g id="a_node36"><a xlink:href="../../db/da1/_compiler_2boot_2build_2error_8c.html#a202663346d8015c6413dbcc62dff1933" target="_top" xlink:title="omc_Error_assertion">
<polygon fill="#ffffff" stroke="#000000" points="952,-311 952,-330 1059,-330 1059,-311 952,-311"/>
<text text-anchor="middle" x="1005.5" y="-318" font-family="Helvetica,sans-Serif" font-size="10.00" fill="#000000">omc_Error_assertion</text>
</a>
</g>
</g>
<!-- Node368&#45;&gt;Node386 -->
<g id="edge62" class="edge">
<title>Node368&#45;&gt;Node386</title>
<path fill="none" stroke="#191970" d="M687.7968,-294.5235C703.3852,-296.2805 719.7204,-298.0307 735,-299.5 805.5869,-306.2877 886.7007,-312.3545 941.549,-316.2009"/>
<polygon fill="#191970" stroke="#191970" points="941.5974,-319.7127 951.8166,-316.9166 942.0842,-312.7297 941.5974,-319.7127"/>
</g>
<!-- Node387 -->
<g id="node37" class="node">
<title>Node387</title>
<g id="a_node37"><a xlink:href="../../d3/dc8/_n_f_prefixes_8c.html#af66fa9d29fb9ed8a877463033de42115" target="_top" xlink:title="omc_NFPrefixes_variabilityMin">
<polygon fill="#ffffff" stroke="#000000" points="735,-36 735,-55 887,-55 887,-36 735,-36"/>
<text text-anchor="middle" x="811" y="-43" font-family="Helvetica,sans-Serif" font-size="10.00" fill="#000000">omc_NFPrefixes_variabilityMin</text>
</a>
</g>
</g>
<!-- Node368&#45;&gt;Node387 -->
<g id="edge58" class="edge">
<title>Node368&#45;&gt;Node387</title>
<path fill="none" stroke="#191970" d="M615.7122,-275.6186C625.5648,-241.5817 662.7386,-128.0863 735,-69.5 740.2716,-65.226 746.3129,-61.7088 752.6355,-58.8152"/>
<polygon fill="#191970" stroke="#191970" points="754.0874,-62.0035 762.0432,-55.0066 751.4606,-55.515 754.0874,-62.0035"/>
</g>
<!-- Node388 -->
<g id="node38" class="node">
<title>Node388</title>
<g id="a_node38"><a xlink:href="../../d0/d93/_n_f_subscript_8c.html#a1d913255c99036be09f4acf739e5401a" target="_top" xlink:title="omc_NFSubscript_variabilityList">
<polygon fill="#ffffff" stroke="#000000" points="926.5,-235 926.5,-254 1084.5,-254 1084.5,-235 926.5,-235"/>
<text text-anchor="middle" x="1005.5" y="-242" font-family="Helvetica,sans-Serif" font-size="10.00" fill="#000000">omc_NFSubscript_variabilityList</text>
</a>
</g>
</g>
<!-- Node368&#45;&gt;Node388 -->
<g id="edge59" class="edge">
<title>Node368&#45;&gt;Node388</title>
<path fill="none" stroke="#191970" d="M687.8233,-276.7369C703.4098,-274.9611 719.7375,-273.1373 735,-271.5 795.5062,-265.009 863.6838,-258.2071 916.4554,-253.0543"/>
<polygon fill="#191970" stroke="#191970" points="916.8472,-256.5327 926.4605,-252.079 916.1681,-249.5658 916.8472,-256.5327"/>
</g>
<!-- Node369&#45;&gt;Node370 -->
<g id="edge31" class="edge">
<title>Node369&#45;&gt;Node370</title>
<path fill="none" stroke="#191970" d="M871.2407,-204.35C927.7139,-206.0716 1014.2581,-211.091 1088,-225.5 1117.651,-231.2937 1150.2736,-241.9122 1174.0109,-250.4546"/>
<polygon fill="#191970" stroke="#191970" points="1173.0116,-253.8159 1183.6054,-253.9684 1175.4189,-247.2429 1173.0116,-253.8159"/>
</g>
<!-- Node371 -->
<g id="node21" class="node">
<title>Node371</title>
<g id="a_node21"><a xlink:href="../../df/d26/_n_f_component_ref_8c.html#af3f13fc7d5fe02473e06935f1c139ae1" target="_top" xlink:title="omc_NFComponentRef\l_nodeVariability">
<polygon fill="#ffffff" stroke="#000000" points="945.5,-24.5 945.5,-54.5 1065.5,-54.5 1065.5,-24.5 945.5,-24.5"/>
<text text-anchor="start" x="953.5" y="-42.5" font-family="Helvetica,sans-Serif" font-size="10.00" fill="#000000">omc_NFComponentRef</text>
<text text-anchor="middle" x="1005.5" y="-31.5" font-family="Helvetica,sans-Serif" font-size="10.00" fill="#000000">_nodeVariability</text>
</a>
</g>
</g>
<!-- Node369&#45;&gt;Node371 -->
<g id="edge32" class="edge">
<title>Node369&#45;&gt;Node371</title>
<path fill="none" stroke="#191970" d="M868.6296,-188.3391C875.0778,-185.5517 881.3495,-182.2941 887,-178.5 890.1184,-176.4061 953.5647,-101.2321 986.3071,-62.3296"/>
<polygon fill="#191970" stroke="#191970" points="989.0353,-64.5234 992.7952,-54.6181 983.679,-60.0168 989.0353,-64.5234"/>
</g>
<!-- Node375 -->
<g id="node25" class="node">
<title>Node375</title>
<g id="a_node25"><a xlink:href="../../df/d26/_n_f_component_ref_8c.html#a7ed367e9efcb8fe0b4f63fc13a91efe6" target="_top" xlink:title="omc_NFComponentRef\l_subscriptsVariability">
<polygon fill="#ffffff" stroke="#000000" points="945.5,-147.5 945.5,-177.5 1065.5,-177.5 1065.5,-147.5 945.5,-147.5"/>
<text text-anchor="start" x="953.5" y="-165.5" font-family="Helvetica,sans-Serif" font-size="10.00" fill="#000000">omc_NFComponentRef</text>
<text text-anchor="middle" x="1005.5" y="-154.5" font-family="Helvetica,sans-Serif" font-size="10.00" fill="#000000">_subscriptsVariability</text>
</a>
</g>
</g>
<!-- Node369&#45;&gt;Node375 -->
<g id="edge36" class="edge">
<title>Node369&#45;&gt;Node375</title>
<path fill="none" stroke="#191970" d="M871.209,-190.8081C891.5313,-186.5242 914.3908,-181.7055 935.41,-177.2748"/>
<polygon fill="#191970" stroke="#191970" points="936.1776,-180.6899 945.2406,-175.2025 934.7337,-173.8405 936.1776,-180.6899"/>
</g>
<!-- Node372 -->
<g id="node22" class="node">
<title>Node372</title>
<g id="a_node22"><a xlink:href="../../d2/dda/_n_f_component_8c.html#a60efd6d20fcd4f0cd209847cb49c6d97" target="_top" xlink:title="omc_NFComponent_Component\l_variability">
<polygon fill="#ffffff" stroke="#000000" points="1128,-49.5 1128,-79.5 1288,-79.5 1288,-49.5 1128,-49.5"/>
<text text-anchor="start" x="1136" y="-67.5" font-family="Helvetica,sans-Serif" font-size="10.00" fill="#000000">omc_NFComponent_Component</text>
<text text-anchor="middle" x="1208" y="-56.5" font-family="Helvetica,sans-Serif" font-size="10.00" fill="#000000">_variability</text>
</a>
</g>
</g>
<!-- Node371&#45;&gt;Node372 -->
<g id="edge33" class="edge">
<title>Node371&#45;&gt;Node372</title>
<path fill="none" stroke="#191970" d="M1065.7084,-46.9331C1081.9838,-48.9425 1099.9624,-51.162 1117.5053,-53.3278"/>
<polygon fill="#191970" stroke="#191970" points="1117.4143,-56.8431 1127.7678,-54.5948 1118.2721,-49.8958 1117.4143,-56.8431"/>
</g>
<!-- Node373 -->
<g id="node23" class="node">
<title>Node373</title>
<g id="a_node23"><a xlink:href="../../d7/d21/_n_f_inst_node_8c.html#a954fb6baea5ff56cc2ffc0c0760f3c27" target="_top" xlink:title="omc_NFInstNode_InstNode\l_component">
<polygon fill="#ffffff" stroke="#000000" points="1138.5,-.5 1138.5,-30.5 1277.5,-30.5 1277.5,-.5 1138.5,-.5"/>
<text text-anchor="start" x="1146.5" y="-18.5" font-family="Helvetica,sans-Serif" font-size="10.00" fill="#000000">omc_NFInstNode_InstNode</text>
<text text-anchor="middle" x="1208" y="-7.5" font-family="Helvetica,sans-Serif" font-size="10.00" fill="#000000">_component</text>
</a>
</g>
</g>
<!-- Node371&#45;&gt;Node373 -->
<g id="edge34" class="edge">
<title>Node371&#45;&gt;Node373</title>
<path fill="none" stroke="#191970" d="M1065.7084,-32.3642C1085.3457,-30.0368 1107.4623,-27.4156 1128.3017,-24.9457"/>
<polygon fill="#191970" stroke="#191970" points="1128.8943,-28.4001 1138.4128,-23.7474 1128.0704,-21.4487 1128.8943,-28.4001"/>
</g>
<!-- Node374 -->
<g id="node24" class="node">
<title>Node374</title>
<g id="a_node24"><a xlink:href="../../dc/d0e/_pointer_8c.html#aa5369c5410f4ad12957ad69be8ccc4e8" target="_top" xlink:title="omc_Pointer_access">
<polygon fill="#ffffff" stroke="#000000" points="1328,-6 1328,-25 1436,-25 1436,-6 1328,-6"/>
<text text-anchor="middle" x="1382" y="-13" font-family="Helvetica,sans-Serif" font-size="10.00" fill="#000000">omc_Pointer_access</text>
</a>
</g>
</g>
<!-- Node373&#45;&gt;Node374 -->
<g id="edge35" class="edge">
<title>Node373&#45;&gt;Node374</title>
<path fill="none" stroke="#191970" d="M1277.5196,-15.5C1290.7401,-15.5 1304.5224,-15.5 1317.5762,-15.5"/>
<polygon fill="#191970" stroke="#191970" points="1317.8643,-19.0001 1327.8643,-15.5 1317.8642,-12.0001 1317.8643,-19.0001"/>
</g>
<!-- Node375&#45;&gt;Node370 -->
<g id="edge37" class="edge">
<title>Node375&#45;&gt;Node370</title>
<path fill="none" stroke="#191970" d="M1051.5072,-177.5213C1063.5645,-181.9191 1076.4257,-187.0295 1088,-192.5 1123.1637,-209.1197 1161.4577,-232.8454 1185.1013,-248.2105"/>
<polygon fill="#191970" stroke="#191970" points="1183.4194,-251.293 1193.7008,-253.8512 1187.2588,-245.4398 1183.4194,-251.293"/>
</g>
<!-- Node376 -->
<g id="node26" class="node">
<title>Node376</title>
<g id="a_node26"><a xlink:href="../../d0/d93/_n_f_subscript_8c.html#a02f6467a653cca944d79807310707260" target="_top" xlink:title="omc_NFSubscript_variability">
<polygon fill="#ffffff" stroke="#000000" points="1137,-153 1137,-172 1279,-172 1279,-153 1137,-153"/>
<text text-anchor="middle" x="1208" y="-160" font-family="Helvetica,sans-Serif" font-size="10.00" fill="#000000">omc_NFSubscript_variability</text>
</a>
</g>
</g>
<!-- Node375&#45;&gt;Node376 -->
<g id="edge38" class="edge">
<title>Node375&#45;&gt;Node376</title>
<path fill="none" stroke="#191970" d="M1065.7084,-162.5C1084.8575,-162.5 1106.3642,-162.5 1126.7451,-162.5"/>
<polygon fill="#191970" stroke="#191970" points="1126.962,-166.0001 1136.962,-162.5 1126.9619,-159.0001 1126.962,-166.0001"/>
</g>
<!-- Node376&#45;&gt;Node368 -->
<g id="edge39" class="edge">
<title>Node376&#45;&gt;Node368</title>
<path fill="none" stroke="#191970" d="M1189.4384,-152.8454C1123.1139,-119.7868 893.37,-17.7429 735,-102.5 668.8391,-137.9083 632.361,-226.7978 618.9822,-266.19"/>
<polygon fill="#191970" stroke="#191970" points="615.5878,-265.3101 615.8158,-275.9025 622.2431,-267.4799 615.5878,-265.3101"/>
</g>
<!-- Node377&#45;&gt;Node368 -->
<g id="edge42" class="edge">
<title>Node377&#45;&gt;Node368</title>
<path fill="none" stroke="#191970" d="M937.0792,-523.9407C932.269,-522.2405 927.5334,-520.4181 923,-518.5 834.4582,-481.0379 812.0594,-468.9884 735,-411.5 690.3929,-378.2219 644.9254,-330.0426 624.3509,-303.6423"/>
<polygon fill="#191970" stroke="#191970" points="626.9174,-301.2267 618.1538,-295.2726 621.2916,-305.3921 626.9174,-301.2267"/>
</g>
<!-- Node377&#45;&gt;Node370 -->
<g id="edge41" class="edge">
<title>Node377&#45;&gt;Node370</title>
<path fill="none" stroke="#191970" d="M1023.6648,-523.9031C1041.6602,-513.7201 1069.1824,-496.2518 1088,-475.5 1143.6909,-414.0848 1184.4546,-322.4196 1200.4975,-282.8416"/>
<polygon fill="#191970" stroke="#191970" points="1203.836,-283.9182 1204.2792,-273.3326 1197.3315,-281.3313 1203.836,-283.9182"/>
</g>
<!-- Node380&#45;&gt;Node360 -->
<g id="edge56" class="edge">
<title>Node380&#45;&gt;Node360</title>
<path fill="none" stroke="#191970" d="M819.8284,-393.2622C837.4916,-412.1712 879.2549,-453.8327 923,-475.5 990.5249,-508.9457 1016.904,-489.5285 1088,-514.5 1121.2789,-526.1888 1157.6211,-544.2535 1181.4907,-556.9051"/>
<polygon fill="#191970" stroke="#191970" points="1180.1393,-560.152 1190.6059,-561.7954 1183.4486,-553.9836 1180.1393,-560.152"/>
</g>
<!-- Node380&#45;&gt;Node368 -->
<g id="edge55" class="edge">
<title>Node380&#45;&gt;Node368</title>
<path fill="none" stroke="#191970" d="M781.5261,-373.8837C741.2485,-356.4998 669.9652,-321.0239 634.411,-300.4861"/>
<polygon fill="#191970" stroke="#191970" points="635.7695,-297.2218 625.3858,-295.117 632.1905,-303.2377 635.7695,-297.2218"/>
</g>
<!-- Node380&#45;&gt;Node370 -->
<g id="edge54" class="edge">
<title>Node380&#45;&gt;Node370</title>
<path fill="none" stroke="#191970" d="M881.0157,-380.2299C938.2562,-375.7222 1020.4665,-365.0007 1088,-339.5 1126.493,-324.965 1165.7848,-297.0923 1188.4825,-279.4423"/>
<polygon fill="#191970" stroke="#191970" points="1190.9383,-281.9621 1196.6036,-273.0091 1186.5917,-276.4751 1190.9383,-281.9621"/>
</g>
<!-- Node380&#45;&gt;Node377 -->
<g id="edge53" class="edge">
<title>Node380&#45;&gt;Node377</title>
<path fill="none" stroke="#191970" d="M820.6176,-393.2437C835.2979,-408.2281 864.0132,-437.98 887,-464.5 903.7756,-483.8541 901.7115,-495.2592 923,-509.5 929.699,-513.9812 937.2453,-517.64 944.9828,-520.6238"/>
<polygon fill="#191970" stroke="#191970" points="943.8767,-523.9447 954.4716,-523.9385 946.1853,-517.3364 943.8767,-523.9447"/>
</g>
<!-- Node381 -->
<g id="node31" class="node">
<title>Node381</title>
<g id="a_node31"><a xlink:href="../../df/d26/_n_f_component_ref_8c.html#a93eed6759799f7a400d48548082e1631" target="_top" xlink:title="omc_NFComponentRef\l_isSimple">
<polygon fill="#ffffff" stroke="#000000" points="945.5,-387.5 945.5,-417.5 1065.5,-417.5 1065.5,-387.5 945.5,-387.5"/>
<text text-anchor="start" x="953.5" y="-405.5" font-family="Helvetica,sans-Serif" font-size="10.00" fill="#000000">omc_NFComponentRef</text>
<text text-anchor="middle" x="1005.5" y="-394.5" font-family="Helvetica,sans-Serif" font-size="10.00" fill="#000000">_isSimple</text>
</a>
</g>
</g>
<!-- Node380&#45;&gt;Node381 -->
<g id="edge48" class="edge">
<title>Node380&#45;&gt;Node381</title>
<path fill="none" stroke="#191970" d="M881.219,-390.3594C898.7744,-392.0744 917.6064,-393.914 935.1673,-395.6295"/>
<polygon fill="#191970" stroke="#191970" points="935.0479,-399.1344 945.3408,-396.6233 935.7285,-392.1675 935.0479,-399.1344"/>
</g>
<!-- Node382 -->
<g id="node32" class="node">
<title>Node382</title>
<g id="a_node32"><a xlink:href="../../df/d26/_n_f_component_ref_8c.html#a28f5907191c01a46cc7359605ea0e049" target="_top" xlink:title="omc_NFComponentRef\l_firstName">
<polygon fill="#ffffff" stroke="#000000" points="945.5,-436.5 945.5,-466.5 1065.5,-466.5 1065.5,-436.5 945.5,-436.5"/>
<text text-anchor="start" x="953.5" y="-454.5" font-family="Helvetica,sans-Serif" font-size="10.00" fill="#000000">omc_NFComponentRef</text>
<text text-anchor="middle" x="1005.5" y="-443.5" font-family="Helvetica,sans-Serif" font-size="10.00" fill="#000000">_firstName</text>
</a>
</g>
</g>
<!-- Node380&#45;&gt;Node382 -->
<g id="edge49" class="edge">
<title>Node380&#45;&gt;Node382</title>
<path fill="none" stroke="#191970" d="M834.4168,-393.0587C856.9515,-402.1218 892.0683,-415.8911 923,-426.5 929.8129,-428.8367 936.9798,-431.1783 944.1268,-433.4404"/>
<polygon fill="#191970" stroke="#191970" points="943.2367,-436.8291 953.8254,-436.468 945.3227,-430.1471 943.2367,-436.8291"/>
</g>
<!-- Node380&#45;&gt;Node386 -->
<g id="edge57" class="edge">
<title>Node380&#45;&gt;Node386</title>
<path fill="none" stroke="#191970" d="M837.1215,-373.9723C859.7383,-365.8267 893.3831,-353.9574 923,-344.5 935.4458,-340.5258 949.0323,-336.4617 961.5223,-332.8344"/>
<polygon fill="#191970" stroke="#191970" points="962.6206,-336.1604 971.2611,-330.0291 960.683,-329.4339 962.6206,-336.1604"/>
</g>
<!-- Node383 -->
<g id="node33" class="node">
<title>Node383</title>
<g id="a_node33"><a xlink:href="../../d7/d21/_n_f_inst_node_8c.html#a0448a520b8f4a2cf341ecde6c2f2fd93" target="_top" xlink:title="omc_NFInstNode_InstNode_name">
<polygon fill="#ffffff" stroke="#000000" points="1124,-442 1124,-461 1292,-461 1292,-442 1124,-442"/>
<text text-anchor="middle" x="1208" y="-449" font-family="Helvetica,sans-Serif" font-size="10.00" fill="#000000">omc_NFInstNode_InstNode_name</text>
</a>
</g>
</g>
<!-- Node382&#45;&gt;Node383 -->
<g id="edge50" class="edge">
<title>Node382&#45;&gt;Node383</title>
<path fill="none" stroke="#191970" d="M1065.7084,-451.5C1080.7697,-451.5 1097.2895,-451.5 1113.5729,-451.5"/>
<polygon fill="#191970" stroke="#191970" points="1113.666,-455.0001 1123.6659,-451.5 1113.6659,-448.0001 1113.666,-455.0001"/>
</g>
<!-- Node384 -->
<g id="node34" class="node">
<title>Node384</title>
<g id="a_node34"><a xlink:href="../../d7/deb/build_2include_2omc_2c_2util_2modelica__string_8c.html#a672ff4045e2d75c0029e6cc5d7f0a507" target="_top" xlink:title="modelica_integer_to\l_modelica_string">
<polygon fill="#ffffff" stroke="#000000" points="1330,-458.5 1330,-488.5 1434,-488.5 1434,-458.5 1330,-458.5"/>
<text text-anchor="start" x="1338" y="-476.5" font-family="Helvetica,sans-Serif" font-size="10.00" fill="#000000">modelica_integer_to</text>
<text text-anchor="middle" x="1382" y="-465.5" font-family="Helvetica,sans-Serif" font-size="10.00" fill="#000000">_modelica_string</text>
</a>
</g>
</g>
<!-- Node383&#45;&gt;Node384 -->
<g id="edge51" class="edge">
<title>Node383&#45;&gt;Node384</title>
<path fill="none" stroke="#191970" d="M1283.3069,-461.0216C1295.4544,-462.5575 1307.9116,-464.1325 1319.7079,-465.624"/>
<polygon fill="#191970" stroke="#191970" points="1319.5198,-469.128 1329.8799,-466.9101 1320.398,-462.1833 1319.5198,-469.128"/>
</g>
<!-- Node385 -->
<g id="node35" class="node">
<title>Node385</title>
<g id="a_node35"><a xlink:href="../../d7/deb/build_2include_2omc_2c_2util_2modelica__string_8c.html#a751007abc59e9ca7978f2af10a0c814f" target="_top" xlink:title="stringAppend">
<polygon fill="#ffffff" stroke="#000000" points="1345,-420 1345,-439 1419,-439 1419,-420 1345,-420"/>
<text text-anchor="middle" x="1382" y="-427" font-family="Helvetica,sans-Serif" font-size="10.00" fill="#000000">stringAppend</text>
</a>
</g>
</g>
<!-- Node383&#45;&gt;Node385 -->
<g id="edge52" class="edge">
<title>Node383&#45;&gt;Node385</title>
<path fill="none" stroke="#191970" d="M1283.3069,-441.9784C1300.7865,-439.7684 1318.9075,-437.4772 1334.7779,-435.4706"/>
<polygon fill="#191970" stroke="#191970" points="1335.3708,-438.9236 1344.8527,-434.1968 1334.4927,-431.9789 1335.3708,-438.9236"/>
</g>
<!-- Node388&#45;&gt;Node370 -->
<g id="edge60" class="edge">
<title>Node388&#45;&gt;Node370</title>
<path fill="none" stroke="#191970" d="M1084.6618,-251.9275C1096.2443,-253.0143 1108.2322,-254.1391 1119.9784,-255.2412"/>
<polygon fill="#191970" stroke="#191970" points="1119.9391,-258.7528 1130.2223,-256.2023 1120.5931,-251.7834 1119.9391,-258.7528"/>
</g>
<!-- Node388&#45;&gt;Node376 -->
<g id="edge61" class="edge">
<title>Node388&#45;&gt;Node376</title>
<path fill="none" stroke="#191970" d="M1029.1256,-234.9331C1065.2493,-220.3052 1134.3182,-192.3366 1175.2535,-175.7603"/>
<polygon fill="#191970" stroke="#191970" points="1176.5696,-179.0035 1184.5248,-172.006 1173.9422,-172.5153 1176.5696,-179.0035"/>
</g>
<!-- Node389&#45;&gt;Node355 -->
<g id="edge64" class="edge">
<title>Node389&#45;&gt;Node355</title>
<path fill="none" stroke="#191970" d="M664.2474,-713.5119C696.5724,-722.9808 737.829,-735.0661 768.3609,-744.0098"/>
<polygon fill="#191970" stroke="#191970" points="767.695,-747.4617 778.2757,-746.9141 769.6629,-740.744 767.695,-747.4617"/>
</g>
</g>
</svg>
