<?xml version="1.0" encoding="UTF-8" standalone="no"?>
<!DOCTYPE svg PUBLIC "-//W3C//DTD SVG 1.1//EN"
 "http://www.w3.org/Graphics/SVG/1.1/DTD/svg11.dtd">
<!-- Generated by graphviz version 2.40.1 (20161225.0304)
 -->
<!-- Title: boxptr_NFInst_updateImplicitVariabilityEq Pages: 1 -->
<svg width="1271pt" height="876pt"
 viewBox="0.00 0.00 1271.00 875.51" xmlns="http://www.w3.org/2000/svg" xmlns:xlink="http://www.w3.org/1999/xlink">
<g id="graph0" class="graph" transform="scale(1 1) rotate(0) translate(4 871.5134)">
<title>boxptr_NFInst_updateImplicitVariabilityEq</title>
<polygon fill="#ffffff" stroke="transparent" points="-4,4 -4,-871.5134 1267,-871.5134 1267,4 -4,4"/>
<!-- Node311 -->
<g id="node1" class="node">
<title>Node311</title>
<polygon fill="#bfbfbf" stroke="#000000" points="0,-413.5 0,-443.5 145,-443.5 145,-413.5 0,-413.5"/>
<text text-anchor="start" x="8" y="-431.5" font-family="Helvetica,sans-Serif" font-size="10.00" fill="#000000">boxptr_NFInst_updateImplicit</text>
<text text-anchor="middle" x="72.5" y="-420.5" font-family="Helvetica,sans-Serif" font-size="10.00" fill="#000000">VariabilityEq</text>
</g>
<!-- Node312 -->
<g id="node2" class="node">
<title>Node312</title>
<g id="a_node2"><a xlink:href="../../d0/de4/_n_f_inst_8c.html#a1b7917ad50e8fa58cba8601aba46cf87" target="_top" xlink:title="omc_NFInst_updateImplicit\lVariabilityEq">
<polygon fill="#ffffff" stroke="#000000" points="181,-413.5 181,-443.5 318,-443.5 318,-413.5 181,-413.5"/>
<text text-anchor="start" x="189" y="-431.5" font-family="Helvetica,sans-Serif" font-size="10.00" fill="#000000">omc_NFInst_updateImplicit</text>
<text text-anchor="middle" x="249.5" y="-420.5" font-family="Helvetica,sans-Serif" font-size="10.00" fill="#000000">VariabilityEq</text>
</a>
</g>
</g>
<!-- Node311&#45;&gt;Node312 -->
<g id="edge1" class="edge">
<title>Node311&#45;&gt;Node312</title>
<path fill="none" stroke="#191970" d="M145.0034,-428.5C153.5122,-428.5 162.2251,-428.5 170.8132,-428.5"/>
<polygon fill="#191970" stroke="#191970" points="170.8178,-432.0001 180.8178,-428.5 170.8178,-425.0001 170.8178,-432.0001"/>
</g>
<!-- Node313 -->
<g id="node3" class="node">
<title>Node313</title>
<g id="a_node3"><a xlink:href="../../d0/de4/_n_f_inst_8c.html#a54defa679c7a406f16449d1e260f1c0b" target="_top" xlink:title="omc_NFInst_markImplicitWhenExp">
<polygon fill="#ffffff" stroke="#000000" points="354,-625 354,-644 526,-644 526,-625 354,-625"/>
<text text-anchor="middle" x="440" y="-632" font-family="Helvetica,sans-Serif" font-size="10.00" fill="#000000">omc_NFInst_markImplicitWhenExp</text>
</a>
</g>
</g>
<!-- Node312&#45;&gt;Node313 -->
<g id="edge2" class="edge">
<title>Node312&#45;&gt;Node313</title>
<path fill="none" stroke="#191970" d="M256.5201,-443.5754C271.1186,-473.6496 307.3138,-541.9453 354,-585.5 369.6905,-600.1381 390.5366,-612.1546 407.7751,-620.6242"/>
<polygon fill="#191970" stroke="#191970" points="406.3896,-623.8406 416.9253,-624.9586 409.3864,-617.5145 406.3896,-623.8406"/>
</g>
<!-- Node323 -->
<g id="node13" class="node">
<title>Node323</title>
<g id="a_node13"><a xlink:href="../../db/d0c/_n_f_expression_8c.html#ab08a4910f3f6b6bcf6d9dccac7916436" target="_top" xlink:title="omc_NFExpression_fold">
<polygon fill="#ffffff" stroke="#000000" points="378,-539 378,-558 502,-558 502,-539 378,-539"/>
<text text-anchor="middle" x="440" y="-546" font-family="Helvetica,sans-Serif" font-size="10.00" fill="#000000">omc_NFExpression_fold</text>
</a>
</g>
</g>
<!-- Node312&#45;&gt;Node323 -->
<g id="edge18" class="edge">
<title>Node312&#45;&gt;Node323</title>
<path fill="none" stroke="#191970" d="M273.627,-443.6981C310.3612,-466.8378 379.8854,-510.6325 416.3397,-533.5959"/>
<polygon fill="#191970" stroke="#191970" points="414.5284,-536.5914 424.8551,-538.9599 418.2594,-530.6685 414.5284,-536.5914"/>
</g>
<!-- Node327 -->
<g id="node17" class="node">
<title>Node327</title>
<g id="a_node17"><a xlink:href="../../d0/de4/_n_f_inst_8c.html#a9c09cad57cf0215dd437bca2a2cc5b9c" target="_top" xlink:title="omc_NFInst_updateImplicit\lVariabilityEql">
<polygon fill="#ffffff" stroke="#000000" points="371.5,-266.5 371.5,-296.5 508.5,-296.5 508.5,-266.5 371.5,-266.5"/>
<text text-anchor="start" x="379.5" y="-284.5" font-family="Helvetica,sans-Serif" font-size="10.00" fill="#000000">omc_NFInst_updateImplicit</text>
<text text-anchor="middle" x="440" y="-273.5" font-family="Helvetica,sans-Serif" font-size="10.00" fill="#000000">VariabilityEql</text>
</a>
</g>
</g>
<!-- Node312&#45;&gt;Node327 -->
<g id="edge27" class="edge">
<title>Node312&#45;&gt;Node327</title>
<path fill="none" stroke="#191970" d="M255.5843,-413.171C269.7096,-385.1867 307.1231,-327.7258 354,-297.5 356.5952,-295.8267 359.3052,-294.2625 362.0967,-292.8048"/>
<polygon fill="#191970" stroke="#191970" points="363.6834,-295.9265 371.2482,-288.5086 360.7087,-289.59 363.6834,-295.9265"/>
</g>
<!-- Node328 -->
<g id="node18" class="node">
<title>Node328</title>
<g id="a_node18"><a xlink:href="../../db/d0c/_n_f_expression_8c.html#a28bf77124b3c1a7b0ddcd14801017819" target="_top" xlink:title="omc_NFExpression_variability">
<polygon fill="#ffffff" stroke="#000000" points="365.5,-316 365.5,-335 514.5,-335 514.5,-316 365.5,-316"/>
<text text-anchor="middle" x="440" y="-323" font-family="Helvetica,sans-Serif" font-size="10.00" fill="#000000">omc_NFExpression_variability</text>
</a>
</g>
</g>
<!-- Node312&#45;&gt;Node328 -->
<g id="edge29" class="edge">
<title>Node312&#45;&gt;Node328</title>
<path fill="none" stroke="#191970" d="M277.6089,-413.302C314.1868,-393.525 377.6423,-359.2157 413.4415,-339.8597"/>
<polygon fill="#191970" stroke="#191970" points="415.2053,-342.8849 422.3372,-335.0499 411.876,-336.7273 415.2053,-342.8849"/>
</g>
<!-- Node349 -->
<g id="node39" class="node">
<title>Node349</title>
<g id="a_node39"><a xlink:href="../../d0/de4/_n_f_inst_8c.html#a672d4658ce72cc10d728c24c599d111c" target="_top" xlink:title="omc_NFInst_markStructural\lParamsExp">
<polygon fill="#ffffff" stroke="#000000" points="370,-678.5 370,-708.5 510,-708.5 510,-678.5 370,-678.5"/>
<text text-anchor="start" x="378" y="-696.5" font-family="Helvetica,sans-Serif" font-size="10.00" fill="#000000">omc_NFInst_markStructural</text>
<text text-anchor="middle" x="440" y="-685.5" font-family="Helvetica,sans-Serif" font-size="10.00" fill="#000000">ParamsExp</text>
</a>
</g>
</g>
<!-- Node312&#45;&gt;Node349 -->
<g id="edge63" class="edge">
<title>Node312&#45;&gt;Node349</title>
<path fill="none" stroke="#191970" d="M252.7242,-443.7147C261.8339,-483.294 291.2799,-590.7452 354,-653.5 362.2829,-661.7874 372.6054,-668.5582 383.1939,-674.015"/>
<polygon fill="#191970" stroke="#191970" points="381.9914,-677.3196 392.5228,-678.4774 385.012,-671.0048 381.9914,-677.3196"/>
</g>
<!-- Node314 -->
<g id="node4" class="node">
<title>Node314</title>
<g id="a_node4"><a xlink:href="../../db/d0c/_n_f_expression_8c.html#abea2daadbbe733be3b67856b3ef9904b" target="_top" xlink:title="omc_NFExpression_apply">
<polygon fill="#ffffff" stroke="#000000" points="572.5,-702 572.5,-721 703.5,-721 703.5,-702 572.5,-702"/>
<text text-anchor="middle" x="638" y="-709" font-family="Helvetica,sans-Serif" font-size="10.00" fill="#000000">omc_NFExpression_apply</text>
</a>
</g>
</g>
<!-- Node313&#45;&gt;Node314 -->
<g id="edge3" class="edge">
<title>Node313&#45;&gt;Node314</title>
<path fill="none" stroke="#191970" d="M464.6765,-644.0964C499.7499,-657.7361 564.1527,-682.7816 603.8084,-698.2033"/>
<polygon fill="#191970" stroke="#191970" points="602.7356,-701.5414 613.3243,-701.9039 605.2728,-695.0173 602.7356,-701.5414"/>
</g>
<!-- Node314&#45;&gt;Node314 -->
<g id="edge4" class="edge">
<title>Node314&#45;&gt;Node314</title>
<path fill="none" stroke="#191970" d="M608.099,-721.2571C593.5525,-730.0653 603.5195,-739.5 638,-739.5 662.2441,-739.5 674.3691,-734.8356 674.375,-729.0043"/>
<polygon fill="#191970" stroke="#191970" points="676.9991,-726.6862 667.901,-721.2571 671.6277,-731.1749 676.9991,-726.6862"/>
</g>
<!-- Node315 -->
<g id="node5" class="node">
<title>Node315</title>
<g id="a_node5"><a xlink:href="../../db/d0c/_n_f_expression_8c.html#a060fbe21bbb6c29a30446b1c531fd5eb" target="_top" xlink:title="omc_NFExpression_applyCref">
<polygon fill="#ffffff" stroke="#000000" points="757.5,-815 757.5,-834 907.5,-834 907.5,-815 757.5,-815"/>
<text text-anchor="middle" x="832.5" y="-822" font-family="Helvetica,sans-Serif" font-size="10.00" fill="#000000">omc_NFExpression_applyCref</text>
</a>
</g>
</g>
<!-- Node314&#45;&gt;Node315 -->
<g id="edge5" class="edge">
<title>Node314&#45;&gt;Node315</title>
<path fill="none" stroke="#191970" d="M647.2747,-721.0166C665.3862,-739.0771 707.423,-778.4809 750,-800.5 758.8442,-805.0738 768.6851,-808.8942 778.4018,-812.043"/>
<polygon fill="#191970" stroke="#191970" points="777.4498,-815.4117 788.0355,-814.971 779.4854,-808.7142 777.4498,-815.4117"/>
</g>
<!-- Node317 -->
<g id="node7" class="node">
<title>Node317</title>
<g id="a_node7"><a xlink:href="../../db/d0c/_n_f_expression_8c.html#a5c2d6c1e5e4a0479771d7363c7c12278" target="_top" xlink:title="omc_NFExpression_applyList">
<polygon fill="#ffffff" stroke="#000000" points="961.5,-768 961.5,-787 1108.5,-787 1108.5,-768 961.5,-768"/>
<text text-anchor="middle" x="1035" y="-775" font-family="Helvetica,sans-Serif" font-size="10.00" fill="#000000">omc_NFExpression_applyList</text>
</a>
</g>
</g>
<!-- Node314&#45;&gt;Node317 -->
<g id="edge8" class="edge">
<title>Node314&#45;&gt;Node317</title>
<path fill="none" stroke="#191970" d="M682.5679,-721.0176C702.8396,-727.6288 727.3195,-735.6062 750,-740.5 818.884,-755.3633 898.857,-762.3513 956.5233,-767.1558"/>
<polygon fill="#191970" stroke="#191970" points="956.4062,-770.6581 966.6619,-767.9988 956.9863,-763.6821 956.4062,-770.6581"/>
</g>
<!-- Node318 -->
<g id="node8" class="node">
<title>Node318</title>
<g id="a_node8"><a xlink:href="../../db/d0c/_n_f_expression_8c.html#ac6c3acf3364c378034af422077ae05b0" target="_top" xlink:title="omc_NFExpression_applyCall">
<polygon fill="#ffffff" stroke="#000000" points="758,-721 758,-740 907,-740 907,-721 758,-721"/>
<text text-anchor="middle" x="832.5" y="-728" font-family="Helvetica,sans-Serif" font-size="10.00" fill="#000000">omc_NFExpression_applyCall</text>
</a>
</g>
</g>
<!-- Node314&#45;&gt;Node318 -->
<g id="edge10" class="edge">
<title>Node314&#45;&gt;Node318</title>
<path fill="none" stroke="#191970" d="M703.5777,-711.4848C729.2463,-713.4412 758.2196,-716.4132 782.1885,-719.5892"/>
<polygon fill="#191970" stroke="#191970" points="781.7458,-723.0612 792.1303,-720.9605 782.7023,-716.1269 781.7458,-723.0612"/>
</g>
<!-- Node320 -->
<g id="node10" class="node">
<title>Node320</title>
<g id="a_node10"><a xlink:href="../../d0/d93/_n_f_subscript_8c.html#a5d0e2ef4dd5df4ea654e160268763d21" target="_top" xlink:title="omc_NFSubscript_applyExp">
<polygon fill="#ffffff" stroke="#000000" points="762,-683 762,-702 903,-702 903,-683 762,-683"/>
<text text-anchor="middle" x="832.5" y="-690" font-family="Helvetica,sans-Serif" font-size="10.00" fill="#000000">omc_NFSubscript_applyExp</text>
</a>
</g>
</g>
<!-- Node314&#45;&gt;Node320 -->
<g id="edge14" class="edge">
<title>Node314&#45;&gt;Node320</title>
<path fill="none" stroke="#191970" d="M678.3005,-701.9705C699.6166,-698.9023 726.5687,-695.9135 751.9552,-693.7074"/>
<polygon fill="#191970" stroke="#191970" points="752.291,-697.1917 761.9652,-692.872 751.7087,-690.2159 752.291,-697.1917"/>
</g>
<!-- Node321 -->
<g id="node11" class="node">
<title>Node321</title>
<g id="a_node11"><a xlink:href="../../d8/de3/_mutable_8c.html#a4d9367043438a5c1a24d17f1f9559996" target="_top" xlink:title="omc_Mutable_access">
<polygon fill="#ffffff" stroke="#000000" points="776.5,-645 776.5,-664 888.5,-664 888.5,-645 776.5,-645"/>
<text text-anchor="middle" x="832.5" y="-652" font-family="Helvetica,sans-Serif" font-size="10.00" fill="#000000">omc_Mutable_access</text>
</a>
</g>
</g>
<!-- Node314&#45;&gt;Node321 -->
<g id="edge16" class="edge">
<title>Node314&#45;&gt;Node321</title>
<path fill="none" stroke="#191970" d="M664.0163,-701.8411C686.5673,-693.6695 720.1746,-681.9708 750,-673.5 758.8256,-670.9934 768.2523,-668.5795 777.4623,-666.3622"/>
<polygon fill="#191970" stroke="#191970" points="778.4007,-669.7371 787.3323,-664.0382 776.7963,-662.9234 778.4007,-669.7371"/>
</g>
<!-- Node322 -->
<g id="node12" class="node">
<title>Node322</title>
<g id="a_node12"><a xlink:href="../../d1/dd1/3rd_party_2gc_2include_2gc_8h.html#acacfa47efcc44a29f7bb7d98f2a000f8" target="_top" xlink:title="void">
<polygon fill="#ffffff" stroke="#000000" points="815,-607 815,-626 850,-626 850,-607 815,-607"/>
<text text-anchor="middle" x="832.5" y="-614" font-family="Helvetica,sans-Serif" font-size="10.00" fill="#000000">void</text>
</a>
</g>
</g>
<!-- Node314&#45;&gt;Node322 -->
<g id="edge17" class="edge">
<title>Node314&#45;&gt;Node322</title>
<path fill="none" stroke="#191970" d="M649.2451,-701.7414C668.5262,-685.5223 709.7221,-653.0672 750,-635.5 767.4612,-627.8843 788.3886,-623.1098 804.7966,-620.2518"/>
<polygon fill="#191970" stroke="#191970" points="805.5253,-623.6797 814.8445,-618.6397 804.4164,-616.7681 805.5253,-623.6797"/>
</g>
<!-- Node316 -->
<g id="node6" class="node">
<title>Node316</title>
<g id="a_node6"><a xlink:href="../../db/d0c/_n_f_expression_8c.html#afadc34403d27a297a453fa3edfaba30b" target="_top" xlink:title="omc_NFExpression_applyCref\lSubscript">
<polygon fill="#ffffff" stroke="#000000" points="960,-828.5 960,-858.5 1110,-858.5 1110,-828.5 960,-828.5"/>
<text text-anchor="start" x="968" y="-846.5" font-family="Helvetica,sans-Serif" font-size="10.00" fill="#000000">omc_NFExpression_applyCref</text>
<text text-anchor="middle" x="1035" y="-835.5" font-family="Helvetica,sans-Serif" font-size="10.00" fill="#000000">Subscript</text>
</a>
</g>
</g>
<!-- Node315&#45;&gt;Node316 -->
<g id="edge6" class="edge">
<title>Node315&#45;&gt;Node316</title>
<path fill="none" stroke="#191970" d="M907.6158,-831.5479C921.2924,-832.8311 935.6519,-834.1785 949.5999,-835.4872"/>
<polygon fill="#191970" stroke="#191970" points="949.3846,-838.9822 959.6679,-836.4318 950.0386,-832.0128 949.3846,-838.9822"/>
</g>
<!-- Node316&#45;&gt;Node314 -->
<g id="edge7" class="edge">
<title>Node316&#45;&gt;Node314</title>
<path fill="none" stroke="#191970" d="M969.4179,-858.5461C909.3943,-868.9245 819.5958,-875.7211 750,-843.5 699.2783,-820.0171 663.1432,-760.9892 647.17,-730.4544"/>
<polygon fill="#191970" stroke="#191970" points="650.1693,-728.6293 642.5341,-721.284 643.9222,-731.7875 650.1693,-728.6293"/>
</g>
<!-- Node317&#45;&gt;Node314 -->
<g id="edge9" class="edge">
<title>Node317&#45;&gt;Node314</title>
<path fill="none" stroke="#191970" d="M961.3636,-782.2367C903.3913,-780.7404 820.8329,-773.7838 750,-758.5 716.5814,-751.2892 679.2562,-737.3838 657.2424,-726.0661"/>
<polygon fill="#191970" stroke="#191970" points="658.7154,-722.8805 648.2744,-721.0815 655.3146,-728.999 658.7154,-722.8805"/>
</g>
<!-- Node318&#45;&gt;Node314 -->
<g id="edge12" class="edge">
<title>Node318&#45;&gt;Node314</title>
<path fill="none" stroke="#191970" d="M757.662,-729.7774C734.4579,-727.8515 709.4536,-725.2118 688.3323,-722.4135"/>
<polygon fill="#191970" stroke="#191970" points="688.6851,-718.9291 678.3005,-721.0295 687.7283,-725.8634 688.6851,-718.9291"/>
</g>
<!-- Node318&#45;&gt;Node317 -->
<g id="edge11" class="edge">
<title>Node318&#45;&gt;Node317</title>
<path fill="none" stroke="#191970" d="M873.4789,-740.0112C905.3501,-747.4084 949.7483,-757.7132 983.9323,-765.6473"/>
<polygon fill="#191970" stroke="#191970" points="983.2026,-769.0709 993.735,-767.9224 984.7853,-762.2521 983.2026,-769.0709"/>
</g>
<!-- Node319 -->
<g id="node9" class="node">
<title>Node319</title>
<g id="a_node9"><a xlink:href="../../d9/d7c/_compiler_2boot_2build_2util_8c.html#aba4a7f37305a10621a18bb3a87fa1076" target="_top" xlink:title="omc_Util_tuple22">
<polygon fill="#ffffff" stroke="#000000" points="989,-531 989,-550 1081,-550 1081,-531 989,-531"/>
<text text-anchor="middle" x="1035" y="-538" font-family="Helvetica,sans-Serif" font-size="10.00" fill="#000000">omc_Util_tuple22</text>
</a>
</g>
</g>
<!-- Node318&#45;&gt;Node319 -->
<g id="edge13" class="edge">
<title>Node318&#45;&gt;Node319</title>
<path fill="none" stroke="#191970" d="M896.2212,-720.9012C902.8632,-718.4405 909.27,-715.3584 915,-711.5 973.0472,-672.4131 1011.7632,-595.1027 1027.3122,-559.394"/>
<polygon fill="#191970" stroke="#191970" points="1030.5659,-560.6858 1031.2359,-550.1121 1024.1184,-557.9601 1030.5659,-560.6858"/>
</g>
<!-- Node320&#45;&gt;Node314 -->
<g id="edge15" class="edge">
<title>Node320&#45;&gt;Node314</title>
<path fill="none" stroke="#191970" d="M792.1303,-702.0395C769.4611,-705.3003 740.4337,-708.4708 713.6953,-710.706"/>
<polygon fill="#191970" stroke="#191970" points="713.2668,-707.229 703.5777,-711.5152 713.8249,-714.2067 713.2668,-707.229"/>
</g>
<!-- Node323&#45;&gt;Node323 -->
<g id="edge19" class="edge">
<title>Node323&#45;&gt;Node323</title>
<path fill="none" stroke="#191970" d="M410.7155,-558.2571C396.469,-567.0653 406.2305,-576.5 440,-576.5 463.7442,-576.5 475.6192,-571.8356 475.625,-566.0043"/>
<polygon fill="#191970" stroke="#191970" points="478.3266,-563.779 469.2845,-558.2571 472.9095,-568.2125 478.3266,-563.779"/>
</g>
<!-- Node324 -->
<g id="node14" class="node">
<title>Node324</title>
<g id="a_node14"><a xlink:href="../../db/d0c/_n_f_expression_8c.html#aa6231af2c3561a8648133a0d4292abd4" target="_top" xlink:title="omc_NFExpression_foldCref">
<polygon fill="#ffffff" stroke="#000000" points="566.5,-616 566.5,-635 709.5,-635 709.5,-616 566.5,-616"/>
<text text-anchor="middle" x="638" y="-623" font-family="Helvetica,sans-Serif" font-size="10.00" fill="#000000">omc_NFExpression_foldCref</text>
</a>
</g>
</g>
<!-- Node323&#45;&gt;Node324 -->
<g id="edge20" class="edge">
<title>Node323&#45;&gt;Node324</title>
<path fill="none" stroke="#191970" d="M460.4554,-558.1653C484.4764,-569.3325 525.6616,-587.9111 562,-601.5 572.7164,-605.5075 584.439,-609.43 595.3997,-612.9043"/>
<polygon fill="#191970" stroke="#191970" points="594.6123,-616.3249 605.2008,-615.9587 596.695,-609.6419 594.6123,-616.3249"/>
</g>
<!-- Node325 -->
<g id="node15" class="node">
<title>Node325</title>
<g id="a_node15"><a xlink:href="../../db/d0c/_n_f_expression_8c.html#ac9520385b0ebb5b62c173253bfd49b1e" target="_top" xlink:title="omc_NFExpression_foldList">
<polygon fill="#ffffff" stroke="#000000" points="762.5,-569 762.5,-588 902.5,-588 902.5,-569 762.5,-569"/>
<text text-anchor="middle" x="832.5" y="-576" font-family="Helvetica,sans-Serif" font-size="10.00" fill="#000000">omc_NFExpression_foldList</text>
</a>
</g>
</g>
<!-- Node323&#45;&gt;Node325 -->
<g id="edge21" class="edge">
<title>Node323&#45;&gt;Node325</title>
<path fill="none" stroke="#191970" d="M502.1928,-548.1648C573.315,-551.4546 689.4336,-560.2634 763.3456,-567.9259"/>
<polygon fill="#191970" stroke="#191970" points="763.173,-571.4271 773.4858,-568.9989 763.9096,-564.466 763.173,-571.4271"/>
</g>
<!-- Node326 -->
<g id="node16" class="node">
<title>Node326</title>
<g id="a_node16"><a xlink:href="../../db/d0c/_n_f_expression_8c.html#ac86e4c673150f2ade33ea47264d6929a" target="_top" xlink:title="omc_NFExpression_foldCall">
<polygon fill="#ffffff" stroke="#000000" points="567.5,-522 567.5,-541 708.5,-541 708.5,-522 567.5,-522"/>
<text text-anchor="middle" x="638" y="-529" font-family="Helvetica,sans-Serif" font-size="10.00" fill="#000000">omc_NFExpression_foldCall</text>
</a>
</g>
</g>
<!-- Node323&#45;&gt;Node326 -->
<g id="edge23" class="edge">
<title>Node323&#45;&gt;Node326</title>
<path fill="none" stroke="#191970" d="M484.4351,-538.9443C505.8802,-536.2166 532.2929,-533.6462 557.1295,-531.7951"/>
<polygon fill="#191970" stroke="#191970" points="557.562,-535.2732 567.2884,-531.0723 557.0652,-528.2909 557.562,-535.2732"/>
</g>
<!-- Node325&#45;&gt;Node323 -->
<g id="edge22" class="edge">
<title>Node325&#45;&gt;Node323</title>
<path fill="none" stroke="#191970" d="M762.1988,-578.446C690.6964,-574.8965 580.5695,-566.471 509.3954,-559.099"/>
<polygon fill="#191970" stroke="#191970" points="509.4988,-555.5905 499.1862,-558.0197 508.7628,-562.5518 509.4988,-555.5905"/>
</g>
<!-- Node326&#45;&gt;Node319 -->
<g id="edge26" class="edge">
<title>Node326&#45;&gt;Node319</title>
<path fill="none" stroke="#191970" d="M708.5182,-533.0986C785.7153,-534.8487 907.932,-537.6194 978.8921,-539.228"/>
<polygon fill="#191970" stroke="#191970" points="978.9014,-542.729 988.9782,-539.4567 979.0602,-535.7308 978.9014,-542.729"/>
</g>
<!-- Node326&#45;&gt;Node323 -->
<g id="edge25" class="edge">
<title>Node326&#45;&gt;Node323</title>
<path fill="none" stroke="#191970" d="M593.694,-541.0392C569.7646,-544.0865 539.6221,-546.9389 512.3835,-548.8136"/>
<polygon fill="#191970" stroke="#191970" points="511.8567,-545.3404 502.1052,-549.4826 512.3114,-552.3256 511.8567,-545.3404"/>
</g>
<!-- Node326&#45;&gt;Node325 -->
<g id="edge24" class="edge">
<title>Node326&#45;&gt;Node325</title>
<path fill="none" stroke="#191970" d="M677.36,-541.0112C707.8407,-548.3767 750.2505,-558.6248 783.0265,-566.545"/>
<polygon fill="#191970" stroke="#191970" points="782.3229,-569.9756 792.8652,-568.9224 783.9671,-563.1714 782.3229,-569.9756"/>
</g>
<!-- Node327&#45;&gt;Node312 -->
<g id="edge28" class="edge">
<title>Node327&#45;&gt;Node312</title>
<path fill="none" stroke="#191970" d="M399.4214,-296.6032C384.3319,-300.968 367.5904,-306.7371 354,-315.5 317.5184,-339.023 286.7684,-379.0412 268.2664,-404.7779"/>
<polygon fill="#191970" stroke="#191970" points="265.1935,-403.0594 262.2435,-413.2353 270.8954,-407.12 265.1935,-403.0594"/>
</g>
<!-- Node328&#45;&gt;Node328 -->
<g id="edge44" class="edge">
<title>Node328&#45;&gt;Node328</title>
<path fill="none" stroke="#191970" d="M410.7155,-335.2571C396.469,-344.0653 406.2305,-353.5 440,-353.5 463.7442,-353.5 475.6192,-348.8356 475.625,-343.0043"/>
<polygon fill="#191970" stroke="#191970" points="478.3266,-340.779 469.2845,-335.2571 472.9095,-345.2125 478.3266,-340.779"/>
</g>
<!-- Node329 -->
<g id="node19" class="node">
<title>Node329</title>
<g id="a_node19"><a xlink:href="../../df/d26/_n_f_component_ref_8c.html#a9aaa7004c2ccff68028b1f311d83d867" target="_top" xlink:title="omc_NFComponentRef\l_variability">
<polygon fill="#ffffff" stroke="#000000" points="578,-190.5 578,-220.5 698,-220.5 698,-190.5 578,-190.5"/>
<text text-anchor="start" x="586" y="-208.5" font-family="Helvetica,sans-Serif" font-size="10.00" fill="#000000">omc_NFComponentRef</text>
<text text-anchor="middle" x="638" y="-197.5" font-family="Helvetica,sans-Serif" font-size="10.00" fill="#000000">_variability</text>
</a>
</g>
</g>
<!-- Node328&#45;&gt;Node329 -->
<g id="edge30" class="edge">
<title>Node328&#45;&gt;Node329</title>
<path fill="none" stroke="#191970" d="M507.441,-315.9568C514.0994,-313.2582 520.4388,-309.8352 526,-305.5 553.5913,-283.9914 536.0681,-258.9827 562,-235.5 566.311,-231.5961 571.1906,-228.1732 576.346,-225.1774"/>
<polygon fill="#191970" stroke="#191970" points="577.9926,-228.266 585.2309,-220.5292 574.7477,-222.0635 577.9926,-228.266"/>
</g>
<!-- Node330 -->
<g id="node20" class="node">
<title>Node330</title>
<g id="a_node20"><a xlink:href="../../d3/dc8/_n_f_prefixes_8c.html#a950ddc32bf152be5c44c4173e213077e" target="_top" xlink:title="omc_NFPrefixes_variabilityMax">
<polygon fill="#ffffff" stroke="#000000" points="957.5,-223 957.5,-242 1112.5,-242 1112.5,-223 957.5,-223"/>
<text text-anchor="middle" x="1035" y="-230" font-family="Helvetica,sans-Serif" font-size="10.00" fill="#000000">omc_NFPrefixes_variabilityMax</text>
</a>
</g>
</g>
<!-- Node328&#45;&gt;Node330 -->
<g id="edge45" class="edge">
<title>Node328&#45;&gt;Node330</title>
<path fill="none" stroke="#191970" d="M486.5721,-315.9885C509.2916,-311.4379 537.0404,-306.0118 562,-301.5 645.3333,-286.4364 666.2417,-282.9864 750,-270.5 816.6023,-260.5711 892.1509,-250.5545 948.7231,-243.2997"/>
<polygon fill="#191970" stroke="#191970" points="949.2267,-246.7639 958.7018,-242.0234 948.3386,-239.8204 949.2267,-246.7639"/>
</g>
<!-- Node337 -->
<g id="node27" class="node">
<title>Node337</title>
<g id="a_node27"><a xlink:href="../../db/d0c/_n_f_expression_8c.html#a04c987d27c2fc4e774ffbbf9eaa23606" target="_top" xlink:title="omc_NFExpression_variabilityList">
<polygon fill="#ffffff" stroke="#000000" points="750,-493 750,-512 915,-512 915,-493 750,-493"/>
<text text-anchor="middle" x="832.5" y="-500" font-family="Helvetica,sans-Serif" font-size="10.00" fill="#000000">omc_NFExpression_variabilityList</text>
</a>
</g>
</g>
<!-- Node328&#45;&gt;Node337 -->
<g id="edge40" class="edge">
<title>Node328&#45;&gt;Node337</title>
<path fill="none" stroke="#191970" d="M465.4223,-335.0123C517.4859,-360.2631 640.5679,-427.1688 750,-469.5 769.5856,-477.0762 792.5795,-483.5778 809.31,-489.3922"/>
<polygon fill="#191970" stroke="#191970" points="808.2383,-492.7277 818.8313,-492.9272 810.6748,-486.1654 808.2383,-492.7277"/>
</g>
<!-- Node338 -->
<g id="node28" class="node">
<title>Node338</title>
<g id="a_node28"><a xlink:href="../../da/d72/_compiler_2boot_2build_2list_8c.html#a3ec1ee3a5ff53be9af368e290be09182" target="_top" xlink:title="omc_List_fold">
<polygon fill="#ffffff" stroke="#000000" points="599.5,-152 599.5,-171 676.5,-171 676.5,-152 599.5,-152"/>
<text text-anchor="middle" x="638" y="-159" font-family="Helvetica,sans-Serif" font-size="10.00" fill="#000000">omc_List_fold</text>
</a>
</g>
</g>
<!-- Node328&#45;&gt;Node338 -->
<g id="edge43" class="edge">
<title>Node328&#45;&gt;Node338</title>
<path fill="none" stroke="#191970" d="M510.8602,-315.8287C516.3965,-313.1124 521.5532,-309.7217 526,-305.5 567.9277,-265.6944 520.4018,-220.6498 562,-180.5 569.5642,-173.1992 579.4893,-168.575 589.66,-165.6767"/>
<polygon fill="#191970" stroke="#191970" points="590.4767,-169.0802 599.4175,-163.3957 588.8832,-162.264 590.4767,-169.0802"/>
</g>
<!-- Node339 -->
<g id="node29" class="node">
<title>Node339</title>
<g id="a_node29"><a xlink:href="../../d9/d7c/_compiler_2boot_2build_2util_8c.html#a049372c160fa344ce26314ee56987490" target="_top" xlink:title="omc_Util_getOption">
<polygon fill="#ffffff" stroke="#000000" points="586.5,-114 586.5,-133 689.5,-133 689.5,-114 586.5,-114"/>
<text text-anchor="middle" x="638" y="-121" font-family="Helvetica,sans-Serif" font-size="10.00" fill="#000000">omc_Util_getOption</text>
</a>
</g>
</g>
<!-- Node328&#45;&gt;Node339 -->
<g id="edge46" class="edge">
<title>Node328&#45;&gt;Node339</title>
<path fill="none" stroke="#191970" d="M511.5589,-315.9139C516.8774,-313.1705 521.7963,-309.7508 526,-305.5 578.1678,-252.7485 510.2687,-195.6796 562,-142.5 566.2527,-138.1282 571.3475,-134.7051 576.859,-132.0323"/>
<polygon fill="#191970" stroke="#191970" points="578.4597,-135.1622 586.4526,-128.2078 575.8674,-128.6598 578.4597,-135.1622"/>
</g>
<!-- Node340 -->
<g id="node30" class="node">
<title>Node340</title>
<g id="a_node30"><a xlink:href="../../d9/dd8/_n_f_call_8c.html#a3913f0b6e2361e99b12afcb6dbfb68b3" target="_top" xlink:title="omc_NFCall_Call_variability">
<polygon fill="#ffffff" stroke="#000000" points="568,-358 568,-377 708,-377 708,-358 568,-358"/>
<text text-anchor="middle" x="638" y="-365" font-family="Helvetica,sans-Serif" font-size="10.00" fill="#000000">omc_NFCall_Call_variability</text>
</a>
</g>
</g>
<!-- Node328&#45;&gt;Node340 -->
<g id="edge47" class="edge">
<title>Node328&#45;&gt;Node340</title>
<path fill="none" stroke="#191970" d="M514.5732,-334.7546C545.4595,-340.8269 579.7291,-348.5432 604.3054,-355.1297"/>
<polygon fill="#191970" stroke="#191970" points="603.6349,-358.5758 614.2065,-357.8752 605.5054,-351.8303 603.6349,-358.5758"/>
</g>
<!-- Node346 -->
<g id="node36" class="node">
<title>Node346</title>
<g id="a_node36"><a xlink:href="../../db/da1/_compiler_2boot_2build_2error_8c.html#a202663346d8015c6413dbcc62dff1933" target="_top" xlink:title="omc_Error_assertion">
<polygon fill="#ffffff" stroke="#000000" points="779,-280 779,-299 886,-299 886,-280 779,-280"/>
<text text-anchor="middle" x="832.5" y="-287" font-family="Helvetica,sans-Serif" font-size="10.00" fill="#000000">omc_Error_assertion</text>
</a>
</g>
</g>
<!-- Node328&#45;&gt;Node346 -->
<g id="edge62" class="edge">
<title>Node328&#45;&gt;Node346</title>
<path fill="none" stroke="#191970" d="M514.7439,-319.2282C569.8436,-314.5378 646.6119,-307.8631 714,-301.5 731.7254,-299.8263 750.9322,-297.921 768.6189,-296.1292"/>
<polygon fill="#191970" stroke="#191970" points="769.2399,-299.5842 778.8343,-295.09 768.5313,-292.6201 769.2399,-299.5842"/>
</g>
<!-- Node347 -->
<g id="node37" class="node">
<title>Node347</title>
<g id="a_node37"><a xlink:href="../../d3/dc8/_n_f_prefixes_8c.html#af66fa9d29fb9ed8a877463033de42115" target="_top" xlink:title="omc_NFPrefixes_variabilityMin">
<polygon fill="#ffffff" stroke="#000000" points="562,-38 562,-57 714,-57 714,-38 562,-38"/>
<text text-anchor="middle" x="638" y="-45" font-family="Helvetica,sans-Serif" font-size="10.00" fill="#000000">omc_NFPrefixes_variabilityMin</text>
</a>
</g>
</g>
<!-- Node328&#45;&gt;Node347 -->
<g id="edge58" class="edge">
<title>Node328&#45;&gt;Node347</title>
<path fill="none" stroke="#191970" d="M512.2635,-315.9851C517.3611,-313.2166 522.0402,-309.7721 526,-305.5 597.5298,-228.3282 493.5089,-151.3809 562,-71.5 565.2086,-67.7579 568.9959,-64.5925 573.1388,-61.9158"/>
<polygon fill="#191970" stroke="#191970" points="574.9433,-64.9189 582.0704,-57.0796 571.6102,-58.7633 574.9433,-64.9189"/>
</g>
<!-- Node348 -->
<g id="node38" class="node">
<title>Node348</title>
<g id="a_node38"><a xlink:href="../../d0/d93/_n_f_subscript_8c.html#a1d913255c99036be09f4acf739e5401a" target="_top" xlink:title="omc_NFSubscript_variabilityList">
<polygon fill="#ffffff" stroke="#000000" points="753.5,-204 753.5,-223 911.5,-223 911.5,-204 753.5,-204"/>
<text text-anchor="middle" x="832.5" y="-211" font-family="Helvetica,sans-Serif" font-size="10.00" fill="#000000">omc_NFSubscript_variabilityList</text>
</a>
</g>
</g>
<!-- Node328&#45;&gt;Node348 -->
<g id="edge59" class="edge">
<title>Node328&#45;&gt;Node348</title>
<path fill="none" stroke="#191970" d="M498.7686,-315.9768C508.1629,-313.2937 517.5594,-309.8682 526,-305.5 545.0121,-295.6607 542.9379,-283.242 562,-273.5 596.5798,-255.8275 695.1432,-236.5798 763.2245,-224.7739"/>
<polygon fill="#191970" stroke="#191970" points="764.1928,-228.1589 773.4556,-223.0158 763.0072,-221.26 764.1928,-228.1589"/>
</g>
<!-- Node329&#45;&gt;Node330 -->
<g id="edge31" class="edge">
<title>Node329&#45;&gt;Node330</title>
<path fill="none" stroke="#191970" d="M698.0851,-196.4933C754.449,-189.6046 840.9199,-183.0508 915,-194.5 945.4241,-199.2021 978.7026,-210.2364 1002.4808,-219.2098"/>
<polygon fill="#191970" stroke="#191970" points="1001.4643,-222.5691 1012.0538,-222.905 1003.985,-216.0387 1001.4643,-222.5691"/>
</g>
<!-- Node331 -->
<g id="node21" class="node">
<title>Node331</title>
<g id="a_node21"><a xlink:href="../../df/d26/_n_f_component_ref_8c.html#af3f13fc7d5fe02473e06935f1c139ae1" target="_top" xlink:title="omc_NFComponentRef\l_nodeVariability">
<polygon fill="#ffffff" stroke="#000000" points="772.5,-26.5 772.5,-56.5 892.5,-56.5 892.5,-26.5 772.5,-26.5"/>
<text text-anchor="start" x="780.5" y="-44.5" font-family="Helvetica,sans-Serif" font-size="10.00" fill="#000000">omc_NFComponentRef</text>
<text text-anchor="middle" x="832.5" y="-33.5" font-family="Helvetica,sans-Serif" font-size="10.00" fill="#000000">_nodeVariability</text>
</a>
</g>
</g>
<!-- Node329&#45;&gt;Node331 -->
<g id="edge32" class="edge">
<title>Node329&#45;&gt;Node331</title>
<path fill="none" stroke="#191970" d="M698.1861,-190.9254C703.8912,-188.0503 709.2922,-184.6116 714,-180.5 741.5472,-156.441 727.0554,-134.982 750,-106.5 763.8324,-89.3292 783.0044,-73.8772 799.3853,-62.3513"/>
<polygon fill="#191970" stroke="#191970" points="801.3775,-65.2291 807.6541,-56.6936 797.4246,-59.452 801.3775,-65.2291"/>
</g>
<!-- Node335 -->
<g id="node25" class="node">
<title>Node335</title>
<g id="a_node25"><a xlink:href="../../df/d26/_n_f_component_ref_8c.html#a7ed367e9efcb8fe0b4f63fc13a91efe6" target="_top" xlink:title="omc_NFComponentRef\l_subscriptsVariability">
<polygon fill="#ffffff" stroke="#000000" points="772.5,-116.5 772.5,-146.5 892.5,-146.5 892.5,-116.5 772.5,-116.5"/>
<text text-anchor="start" x="780.5" y="-134.5" font-family="Helvetica,sans-Serif" font-size="10.00" fill="#000000">omc_NFComponentRef</text>
<text text-anchor="middle" x="832.5" y="-123.5" font-family="Helvetica,sans-Serif" font-size="10.00" fill="#000000">_subscriptsVariability</text>
</a>
</g>
</g>
<!-- Node329&#45;&gt;Node335 -->
<g id="edge36" class="edge">
<title>Node329&#45;&gt;Node335</title>
<path fill="none" stroke="#191970" d="M687.9123,-190.4118C696.7007,-187.3792 705.6902,-184.0301 714,-180.5 730.6515,-173.4263 733.4601,-168.8307 750,-161.5 758.8934,-157.5583 768.4806,-153.7173 777.8628,-150.1717"/>
<polygon fill="#191970" stroke="#191970" points="779.3663,-153.3472 787.5282,-146.5919 776.9351,-146.783 779.3663,-153.3472"/>
</g>
<!-- Node332 -->
<g id="node22" class="node">
<title>Node332</title>
<g id="a_node22"><a xlink:href="../../d2/dda/_n_f_component_8c.html#a60efd6d20fcd4f0cd209847cb49c6d97" target="_top" xlink:title="omc_NFComponent_Component\l_variability">
<polygon fill="#ffffff" stroke="#000000" points="955,-49.5 955,-79.5 1115,-79.5 1115,-49.5 955,-49.5"/>
<text text-anchor="start" x="963" y="-67.5" font-family="Helvetica,sans-Serif" font-size="10.00" fill="#000000">omc_NFComponent_Component</text>
<text text-anchor="middle" x="1035" y="-56.5" font-family="Helvetica,sans-Serif" font-size="10.00" fill="#000000">_variability</text>
</a>
</g>
</g>
<!-- Node331&#45;&gt;Node332 -->
<g id="edge33" class="edge">
<title>Node331&#45;&gt;Node332</title>
<path fill="none" stroke="#191970" d="M892.7084,-48.3385C908.9838,-50.1871 926.9624,-52.2291 944.5053,-54.2216"/>
<polygon fill="#191970" stroke="#191970" points="944.4367,-57.7362 954.7678,-55.3872 945.2267,-50.7809 944.4367,-57.7362"/>
</g>
<!-- Node333 -->
<g id="node23" class="node">
<title>Node333</title>
<g id="a_node23"><a xlink:href="../../d7/d21/_n_f_inst_node_8c.html#a954fb6baea5ff56cc2ffc0c0760f3c27" target="_top" xlink:title="omc_NFInstNode_InstNode\l_component">
<polygon fill="#ffffff" stroke="#000000" points="965.5,-.5 965.5,-30.5 1104.5,-30.5 1104.5,-.5 965.5,-.5"/>
<text text-anchor="start" x="973.5" y="-18.5" font-family="Helvetica,sans-Serif" font-size="10.00" fill="#000000">omc_NFInstNode_InstNode</text>
<text text-anchor="middle" x="1035" y="-7.5" font-family="Helvetica,sans-Serif" font-size="10.00" fill="#000000">_component</text>
</a>
</g>
</g>
<!-- Node331&#45;&gt;Node333 -->
<g id="edge34" class="edge">
<title>Node331&#45;&gt;Node333</title>
<path fill="none" stroke="#191970" d="M892.7084,-33.7695C912.3457,-31.2482 934.4623,-28.4085 955.3017,-25.7329"/>
<polygon fill="#191970" stroke="#191970" points="955.94,-29.1797 965.4128,-24.4346 955.0485,-22.2367 955.94,-29.1797"/>
</g>
<!-- Node334 -->
<g id="node24" class="node">
<title>Node334</title>
<g id="a_node24"><a xlink:href="../../dc/d0e/_pointer_8c.html#aa5369c5410f4ad12957ad69be8ccc4e8" target="_top" xlink:title="omc_Pointer_access">
<polygon fill="#ffffff" stroke="#000000" points="1155,-6 1155,-25 1263,-25 1263,-6 1155,-6"/>
<text text-anchor="middle" x="1209" y="-13" font-family="Helvetica,sans-Serif" font-size="10.00" fill="#000000">omc_Pointer_access</text>
</a>
</g>
</g>
<!-- Node333&#45;&gt;Node334 -->
<g id="edge35" class="edge">
<title>Node333&#45;&gt;Node334</title>
<path fill="none" stroke="#191970" d="M1104.5196,-15.5C1117.7401,-15.5 1131.5224,-15.5 1144.5762,-15.5"/>
<polygon fill="#191970" stroke="#191970" points="1144.8643,-19.0001 1154.8643,-15.5 1144.8642,-12.0001 1144.8643,-19.0001"/>
</g>
<!-- Node335&#45;&gt;Node330 -->
<g id="edge37" class="edge">
<title>Node335&#45;&gt;Node330</title>
<path fill="none" stroke="#191970" d="M878.5072,-146.5213C890.5645,-150.9191 903.4257,-156.0295 915,-161.5 950.1637,-178.1197 988.4577,-201.8454 1012.1013,-217.2105"/>
<polygon fill="#191970" stroke="#191970" points="1010.4194,-220.293 1020.7008,-222.8512 1014.2588,-214.4398 1010.4194,-220.293"/>
</g>
<!-- Node336 -->
<g id="node26" class="node">
<title>Node336</title>
<g id="a_node26"><a xlink:href="../../d0/d93/_n_f_subscript_8c.html#a02f6467a653cca944d79807310707260" target="_top" xlink:title="omc_NFSubscript_variability">
<polygon fill="#ffffff" stroke="#000000" points="964,-122 964,-141 1106,-141 1106,-122 964,-122"/>
<text text-anchor="middle" x="1035" y="-129" font-family="Helvetica,sans-Serif" font-size="10.00" fill="#000000">omc_NFSubscript_variability</text>
</a>
</g>
</g>
<!-- Node335&#45;&gt;Node336 -->
<g id="edge38" class="edge">
<title>Node335&#45;&gt;Node336</title>
<path fill="none" stroke="#191970" d="M892.7084,-131.5C911.8575,-131.5 933.3642,-131.5 953.7451,-131.5"/>
<polygon fill="#191970" stroke="#191970" points="953.962,-135.0001 963.962,-131.5 953.9619,-128.0001 953.962,-135.0001"/>
</g>
<!-- Node336&#45;&gt;Node328 -->
<g id="edge39" class="edge">
<title>Node336&#45;&gt;Node328</title>
<path fill="none" stroke="#191970" d="M998.5321,-121.9662C974.9004,-116.2705 943.3509,-109.5645 915,-106.5 873.718,-102.0378 569.0494,-98.601 562,-104.5 492.3993,-162.7425 588.5073,-239.7028 526,-305.5 524.3701,-307.2156 522.6241,-308.7971 520.7819,-310.2543"/>
<polygon fill="#191970" stroke="#191970" points="518.6177,-307.487 512.1499,-315.8785 522.4391,-313.3519 518.6177,-307.487"/>
</g>
<!-- Node337&#45;&gt;Node328 -->
<g id="edge42" class="edge">
<title>Node337&#45;&gt;Node328</title>
<path fill="none" stroke="#191970" d="M765.091,-492.9113C759.9491,-491.2007 754.8692,-489.3835 750,-487.5 635.8625,-443.3486 506.8759,-372.4639 459.1069,-340.8954"/>
<polygon fill="#191970" stroke="#191970" points="460.8954,-337.8785 450.6645,-335.1255 456.9456,-343.6577 460.8954,-337.8785"/>
</g>
<!-- Node337&#45;&gt;Node330 -->
<g id="edge41" class="edge">
<title>Node337&#45;&gt;Node330</title>
<path fill="none" stroke="#191970" d="M850.6648,-492.9031C868.6602,-482.7201 896.1824,-465.2518 915,-444.5 970.6909,-383.0848 1011.4546,-291.4196 1027.4975,-251.8416"/>
<polygon fill="#191970" stroke="#191970" points="1030.836,-252.9182 1031.2792,-242.3326 1024.3315,-250.3313 1030.836,-252.9182"/>
</g>
<!-- Node340&#45;&gt;Node319 -->
<g id="edge56" class="edge">
<title>Node340&#45;&gt;Node319</title>
<path fill="none" stroke="#191970" d="M648.9243,-377.1076C668.0521,-393.4241 709.4436,-426.5249 750,-444.5 818.8908,-475.0333 843.904,-458.5285 915,-483.5 948.2789,-495.1888 984.6211,-513.2535 1008.4907,-525.9051"/>
<polygon fill="#191970" stroke="#191970" points="1007.1393,-529.152 1017.6059,-530.7954 1010.4486,-522.9836 1007.1393,-529.152"/>
</g>
<!-- Node340&#45;&gt;Node328 -->
<g id="edge55" class="edge">
<title>Node340&#45;&gt;Node328</title>
<path fill="none" stroke="#191970" d="M567.7963,-359.0978C535.5828,-352.863 498.9138,-344.6522 473.1419,-337.7219"/>
<polygon fill="#191970" stroke="#191970" points="474.0629,-334.3453 463.4907,-335.0374 472.187,-341.0893 474.0629,-334.3453"/>
</g>
<!-- Node340&#45;&gt;Node330 -->
<g id="edge54" class="edge">
<title>Node340&#45;&gt;Node330</title>
<path fill="none" stroke="#191970" d="M687.3425,-357.9747C761.2108,-343.5659 894.1421,-317.0059 915,-308.5 952.8979,-293.0451 992.0938,-265.6857 1014.9756,-248.3535"/>
<polygon fill="#191970" stroke="#191970" points="1017.3965,-250.9068 1023.1843,-242.0326 1013.1257,-245.3606 1017.3965,-250.9068"/>
</g>
<!-- Node340&#45;&gt;Node337 -->
<g id="edge53" class="edge">
<title>Node340&#45;&gt;Node337</title>
<path fill="none" stroke="#191970" d="M652.118,-377.0606C668.1345,-388.2911 694.5505,-408.0053 714,-428.5 732.8496,-448.3625 727.6333,-462.7026 750,-478.5 756.1149,-482.8189 763.003,-486.3668 770.1261,-489.28"/>
<polygon fill="#191970" stroke="#191970" points="769.3408,-492.7197 779.9345,-492.872 771.748,-486.1466 769.3408,-492.7197"/>
</g>
<!-- Node341 -->
<g id="node31" class="node">
<title>Node341</title>
<g id="a_node31"><a xlink:href="../../df/d26/_n_f_component_ref_8c.html#a93eed6759799f7a400d48548082e1631" target="_top" xlink:title="omc_NFComponentRef\l_isSimple">
<polygon fill="#ffffff" stroke="#000000" points="772.5,-356.5 772.5,-386.5 892.5,-386.5 892.5,-356.5 772.5,-356.5"/>
<text text-anchor="start" x="780.5" y="-374.5" font-family="Helvetica,sans-Serif" font-size="10.00" fill="#000000">omc_NFComponentRef</text>
<text text-anchor="middle" x="832.5" y="-363.5" font-family="Helvetica,sans-Serif" font-size="10.00" fill="#000000">_isSimple</text>
</a>
</g>
</g>
<!-- Node340&#45;&gt;Node341 -->
<g id="edge48" class="edge">
<title>Node340&#45;&gt;Node341</title>
<path fill="none" stroke="#191970" d="M708.219,-368.9441C725.7744,-369.3051 744.6064,-369.6924 762.1673,-370.0536"/>
<polygon fill="#191970" stroke="#191970" points="762.2709,-373.5563 772.3408,-370.2628 762.4149,-366.5578 762.2709,-373.5563"/>
</g>
<!-- Node342 -->
<g id="node32" class="node">
<title>Node342</title>
<g id="a_node32"><a xlink:href="../../df/d26/_n_f_component_ref_8c.html#a28f5907191c01a46cc7359605ea0e049" target="_top" xlink:title="omc_NFComponentRef\l_firstName">
<polygon fill="#ffffff" stroke="#000000" points="772.5,-405.5 772.5,-435.5 892.5,-435.5 892.5,-405.5 772.5,-405.5"/>
<text text-anchor="start" x="780.5" y="-423.5" font-family="Helvetica,sans-Serif" font-size="10.00" fill="#000000">omc_NFComponentRef</text>
<text text-anchor="middle" x="832.5" y="-412.5" font-family="Helvetica,sans-Serif" font-size="10.00" fill="#000000">_firstName</text>
</a>
</g>
</g>
<!-- Node340&#45;&gt;Node342 -->
<g id="edge49" class="edge">
<title>Node340&#45;&gt;Node342</title>
<path fill="none" stroke="#191970" d="M673.2225,-377.0979C699.3995,-384.231 735.8671,-394.1681 767.3034,-402.7343"/>
<polygon fill="#191970" stroke="#191970" points="766.7454,-406.2098 777.3138,-405.4621 768.5858,-399.4561 766.7454,-406.2098"/>
</g>
<!-- Node340&#45;&gt;Node346 -->
<g id="edge57" class="edge">
<title>Node340&#45;&gt;Node346</title>
<path fill="none" stroke="#191970" d="M669.8925,-357.914C683.8141,-353.1857 700.0987,-346.9012 714,-339.5 731.4213,-330.2248 732.2653,-322.1609 750,-313.5 759.3449,-308.9363 769.7187,-305.0784 779.868,-301.8802"/>
<polygon fill="#191970" stroke="#191970" points="780.9042,-305.2236 789.489,-299.0145 778.9059,-298.5148 780.9042,-305.2236"/>
</g>
<!-- Node343 -->
<g id="node33" class="node">
<title>Node343</title>
<g id="a_node33"><a xlink:href="../../d7/d21/_n_f_inst_node_8c.html#a0448a520b8f4a2cf341ecde6c2f2fd93" target="_top" xlink:title="omc_NFInstNode_InstNode_name">
<polygon fill="#ffffff" stroke="#000000" points="951,-411 951,-430 1119,-430 1119,-411 951,-411"/>
<text text-anchor="middle" x="1035" y="-418" font-family="Helvetica,sans-Serif" font-size="10.00" fill="#000000">omc_NFInstNode_InstNode_name</text>
</a>
</g>
</g>
<!-- Node342&#45;&gt;Node343 -->
<g id="edge50" class="edge">
<title>Node342&#45;&gt;Node343</title>
<path fill="none" stroke="#191970" d="M892.7084,-420.5C907.7697,-420.5 924.2895,-420.5 940.5729,-420.5"/>
<polygon fill="#191970" stroke="#191970" points="940.666,-424.0001 950.6659,-420.5 940.6659,-417.0001 940.666,-424.0001"/>
</g>
<!-- Node344 -->
<g id="node34" class="node">
<title>Node344</title>
<g id="a_node34"><a xlink:href="../../d7/deb/build_2include_2omc_2c_2util_2modelica__string_8c.html#a672ff4045e2d75c0029e6cc5d7f0a507" target="_top" xlink:title="modelica_integer_to\l_modelica_string">
<polygon fill="#ffffff" stroke="#000000" points="1157,-427.5 1157,-457.5 1261,-457.5 1261,-427.5 1157,-427.5"/>
<text text-anchor="start" x="1165" y="-445.5" font-family="Helvetica,sans-Serif" font-size="10.00" fill="#000000">modelica_integer_to</text>
<text text-anchor="middle" x="1209" y="-434.5" font-family="Helvetica,sans-Serif" font-size="10.00" fill="#000000">_modelica_string</text>
</a>
</g>
</g>
<!-- Node343&#45;&gt;Node344 -->
<g id="edge51" class="edge">
<title>Node343&#45;&gt;Node344</title>
<path fill="none" stroke="#191970" d="M1110.3069,-430.0216C1122.4544,-431.5575 1134.9116,-433.1325 1146.7079,-434.624"/>
<polygon fill="#191970" stroke="#191970" points="1146.5198,-438.128 1156.8799,-435.9101 1147.398,-431.1833 1146.5198,-438.128"/>
</g>
<!-- Node345 -->
<g id="node35" class="node">
<title>Node345</title>
<g id="a_node35"><a xlink:href="../../d7/deb/build_2include_2omc_2c_2util_2modelica__string_8c.html#a751007abc59e9ca7978f2af10a0c814f" target="_top" xlink:title="stringAppend">
<polygon fill="#ffffff" stroke="#000000" points="1172,-389 1172,-408 1246,-408 1246,-389 1172,-389"/>
<text text-anchor="middle" x="1209" y="-396" font-family="Helvetica,sans-Serif" font-size="10.00" fill="#000000">stringAppend</text>
</a>
</g>
</g>
<!-- Node343&#45;&gt;Node345 -->
<g id="edge52" class="edge">
<title>Node343&#45;&gt;Node345</title>
<path fill="none" stroke="#191970" d="M1110.3069,-410.9784C1127.7865,-408.7684 1145.9075,-406.4772 1161.7779,-404.4706"/>
<polygon fill="#191970" stroke="#191970" points="1162.3708,-407.9236 1171.8527,-403.1968 1161.4927,-400.9789 1162.3708,-407.9236"/>
</g>
<!-- Node348&#45;&gt;Node330 -->
<g id="edge60" class="edge">
<title>Node348&#45;&gt;Node330</title>
<path fill="none" stroke="#191970" d="M911.6618,-220.9275C923.2443,-222.0143 935.2322,-223.1391 946.9784,-224.2412"/>
<polygon fill="#191970" stroke="#191970" points="946.9391,-227.7528 957.2223,-225.2023 947.5931,-220.7834 946.9391,-227.7528"/>
</g>
<!-- Node348&#45;&gt;Node336 -->
<g id="edge61" class="edge">
<title>Node348&#45;&gt;Node336</title>
<path fill="none" stroke="#191970" d="M856.1256,-203.9331C892.2493,-189.3052 961.3182,-161.3366 1002.2535,-144.7603"/>
<polygon fill="#191970" stroke="#191970" points="1003.5696,-148.0035 1011.5248,-141.006 1000.9422,-141.5153 1003.5696,-148.0035"/>
</g>
<!-- Node349&#45;&gt;Node314 -->
<g id="edge64" class="edge">
<title>Node349&#45;&gt;Node314</title>
<path fill="none" stroke="#191970" d="M510.086,-699.8715C527.0112,-701.4101 545.1723,-703.0611 562.3404,-704.6219"/>
<polygon fill="#191970" stroke="#191970" points="562.0412,-708.109 572.317,-705.5288 562.675,-701.1377 562.0412,-708.109"/>
</g>
</g>
</svg>
