<?xml version="1.0" encoding="UTF-8" standalone="no"?>
<!DOCTYPE svg PUBLIC "-//W3C//DTD SVG 1.1//EN"
 "http://www.w3.org/Graphics/SVG/1.1/DTD/svg11.dtd">
<!-- Generated by graphviz version 2.40.1 (20161225.0304)
 -->
<!-- Title: omc_NFInst_instSections2 Pages: 1 -->
<svg width="496pt" height="66pt"
 viewBox="0.00 0.00 496.00 66.00" xmlns="http://www.w3.org/2000/svg" xmlns:xlink="http://www.w3.org/1999/xlink">
<g id="graph0" class="graph" transform="scale(1 1) rotate(0) translate(4 62)">
<title>omc_NFInst_instSections2</title>
<polygon fill="#ffffff" stroke="transparent" points="-4,4 -4,-62 492,-62 492,4 -4,4"/>
<!-- Node3046 -->
<g id="node1" class="node">
<title>Node3046</title>
<polygon fill="#bfbfbf" stroke="#000000" points="0,-19.5 0,-38.5 135,-38.5 135,-19.5 0,-19.5"/>
<text text-anchor="middle" x="67.5" y="-26.5" font-family="Helvetica,sans-Serif" font-size="10.00" fill="#000000">omc_NFInst_instSections2</text>
</g>
<!-- Node3047 -->
<g id="node2" class="node">
<title>Node3047</title>
<g id="a_node2"><a xlink:href="../../da/d9b/_n_f_inst_8h.html#af67baa73d42b9280f88dac8e39e954a4" target="_top" xlink:title="boxptr_NFInst_instSections2">
<polygon fill="#ffffff" stroke="#000000" points="171,-38.5 171,-57.5 314,-57.5 314,-38.5 171,-38.5"/>
<text text-anchor="middle" x="242.5" y="-45.5" font-family="Helvetica,sans-Serif" font-size="10.00" fill="#000000">boxptr_NFInst_instSections2</text>
</a>
</g>
</g>
<!-- Node3046&#45;&gt;Node3047 -->
<g id="edge1" class="edge">
<title>Node3046&#45;&gt;Node3047</title>
<path fill="none" stroke="#191970" d="M145.1594,-37.4316C153.745,-38.3637 162.4586,-39.3098 170.9638,-40.2332"/>
<polygon fill="#191970" stroke="#191970" points="145.479,-33.9458 135.1596,-36.3459 144.7233,-40.9049 145.479,-33.9458"/>
</g>
<!-- Node3048 -->
<g id="node3" class="node">
<title>Node3048</title>
<g id="a_node3"><a xlink:href="../../da/d9b/_n_f_inst_8h.html#aa4c1b26e000bff6083541b9bd5e5d008" target="_top" xlink:title="omc_NFInst_instSections">
<polygon fill="#ffffff" stroke="#000000" points="177.5,-.5 177.5,-19.5 307.5,-19.5 307.5,-.5 177.5,-.5"/>
<text text-anchor="middle" x="242.5" y="-7.5" font-family="Helvetica,sans-Serif" font-size="10.00" fill="#000000">omc_NFInst_instSections</text>
</a>
</g>
</g>
<!-- Node3046&#45;&gt;Node3048 -->
<g id="edge2" class="edge">
<title>Node3046&#45;&gt;Node3048</title>
<path fill="none" stroke="#191970" d="M145.3246,-20.5505C156.0112,-19.3902 166.8927,-18.2088 177.3209,-17.0766"/>
<polygon fill="#191970" stroke="#191970" points="144.7233,-17.0951 135.1596,-21.6541 145.479,-24.0542 144.7233,-17.0951"/>
</g>
<!-- Node3049 -->
<g id="node4" class="node">
<title>Node3049</title>
<g id="a_node4"><a xlink:href="../../da/d9b/_n_f_inst_8h.html#a8f036f09672e3db79b54ec1085a1dcdc" target="_top" xlink:title="boxptr_NFInst_instSections">
<polygon fill="#ffffff" stroke="#000000" points="350,-.5 350,-19.5 488,-19.5 488,-.5 350,-.5"/>
<text text-anchor="middle" x="419" y="-7.5" font-family="Helvetica,sans-Serif" font-size="10.00" fill="#000000">boxptr_NFInst_instSections</text>
</a>
</g>
</g>
<!-- Node3048&#45;&gt;Node3049 -->
<g id="edge3" class="edge">
<title>Node3048&#45;&gt;Node3049</title>
<path fill="none" stroke="#191970" d="M317.8296,-10C328.4771,-10 339.3811,-10 349.9033,-10"/>
<polygon fill="#191970" stroke="#191970" points="317.7207,-6.5001 307.7206,-10 317.7206,-13.5001 317.7207,-6.5001"/>
</g>
</g>
</svg>
