<?xml version="1.0" encoding="UTF-8" standalone="no"?>
<!DOCTYPE svg PUBLIC "-//W3C//DTD SVG 1.1//EN"
 "http://www.w3.org/Graphics/SVG/1.1/DTD/svg11.dtd">
<!-- Generated by graphviz version 2.40.1 (20161225.0304)
 -->
<!-- Title: ANTLR3_DEBUG_EVENT_LISTENER_struct Pages: 1 -->
<svg width="1592pt" height="428pt"
 viewBox="0.00 0.00 1592.00 427.66" xmlns="http://www.w3.org/2000/svg" xmlns:xlink="http://www.w3.org/1999/xlink">
<g id="graph0" class="graph" transform="scale(1 1) rotate(0) translate(4 423.6561)">
<title>ANTLR3_DEBUG_EVENT_LISTENER_struct</title>
<polygon fill="#ffffff" stroke="transparent" points="-4,4 -4,-423.6561 1588,-423.6561 1588,4 -4,4"/>
<!-- Node1 -->
<g id="node1" class="node">
<title>Node1</title>
<polygon fill="#bfbfbf" stroke="#000000" points="492.5,-346.6561 492.5,-376.6561 627.5,-376.6561 627.5,-346.6561 492.5,-346.6561"/>
<text text-anchor="start" x="500.5" y="-364.6561" font-family="Helvetica,sans-Serif" font-size="10.00" fill="#000000">ANTLR3_DEBUG_EVENT</text>
<text text-anchor="middle" x="560" y="-353.6561" font-family="Helvetica,sans-Serif" font-size="10.00" fill="#000000">_LISTENER_struct</text>
</g>
<!-- Node6 -->
<g id="node6" class="node">
<title>Node6</title>
<g id="a_node6"><a xlink:href="../../d1/d16/struct_a_n_t_l_r3___b_a_s_e___t_r_e_e___a_d_a_p_t_o_r__struct.html" target="_top" xlink:title="ANTLR3_BASE_TREE_ADAPTOR\l_struct">
<polygon fill="#ffffff" stroke="#000000" points="1411,-278.6561 1411,-308.6561 1584,-308.6561 1584,-278.6561 1411,-278.6561"/>
<text text-anchor="start" x="1419" y="-296.6561" font-family="Helvetica,sans-Serif" font-size="10.00" fill="#000000">ANTLR3_BASE_TREE_ADAPTOR</text>
<text text-anchor="middle" x="1497.5" y="-285.6561" font-family="Helvetica,sans-Serif" font-size="10.00" fill="#000000">_struct</text>
</a>
</g>
</g>
<!-- Node1&#45;&gt;Node6 -->
<g id="edge22" class="edge">
<title>Node1&#45;&gt;Node6</title>
<path fill="none" stroke="#9a32cd" stroke-dasharray="5,2" d="M615.5026,-379.533C661.6897,-392.8205 729.4383,-408.6561 790,-408.6561 790,-408.6561 790,-408.6561 1240,-408.6561 1336.9419,-408.6561 1437.9647,-339.8625 1478.7646,-308.6904"/>
<polygon fill="#9a32cd" stroke="#9a32cd" points="616.2761,-376.1125 605.6952,-376.6565 614.3059,-382.8295 616.2761,-376.1125"/>
<text text-anchor="middle" x="1011" y="-411.6561" font-family="Helvetica,sans-Serif" font-size="10.00" fill="#000000"> debugger</text>
</g>
<!-- Node2 -->
<g id="node2" class="node">
<title>Node2</title>
<g id="a_node2"><a xlink:href="../../d5/d6b/struct_a_n_t_l_r3___s_t_r_i_n_g__struct.html" target="_top" xlink:title="ANTLR3_STRING_struct">
<polygon fill="#ffffff" stroke="#000000" points="233,-246.1561 233,-265.1561 361,-265.1561 361,-246.1561 233,-246.1561"/>
<text text-anchor="middle" x="297" y="-253.1561" font-family="Helvetica,sans-Serif" font-size="10.00" fill="#000000">ANTLR3_STRING_struct</text>
</a>
</g>
</g>
<!-- Node2&#45;&gt;Node1 -->
<g id="edge1" class="edge">
<title>Node2&#45;&gt;Node1</title>
<path fill="none" stroke="#9a32cd" stroke-dasharray="5,2" d="M310.9409,-273.1191C326.1665,-290.8899 352.2478,-317.7408 381,-331.6561 415.4607,-348.3343 457.5311,-355.9389 492.2255,-359.3258"/>
<polygon fill="#9a32cd" stroke="#9a32cd" points="313.4589,-270.673 304.3744,-265.2211 308.0762,-275.1482 313.4589,-270.673"/>
<text text-anchor="middle" x="423" y="-368.6561" font-family="Helvetica,sans-Serif" font-size="10.00" fill="#000000"> grammarFileName</text>
<text text-anchor="middle" x="423" y="-357.6561" font-family="Helvetica,sans-Serif" font-size="10.00" fill="#000000">tokenString</text>
</g>
<!-- Node2&#45;&gt;Node2 -->
<g id="edge2" class="edge">
<title>Node2&#45;&gt;Node2</title>
<path fill="none" stroke="#9a32cd" stroke-dasharray="5,2" d="M277.7417,-275.0562C279.0278,-279.9707 285.4473,-283.6561 297,-283.6561 315.4844,-283.6561 320.8275,-274.2214 313.0294,-265.4132"/>
<polygon fill="#9a32cd" stroke="#9a32cd" points="281.1142,-276.0071 280.9706,-265.4132 274.4765,-273.7844 281.1142,-276.0071"/>
<text text-anchor="middle" x="297" y="-308.6561" font-family="Helvetica,sans-Serif" font-size="10.00" fill="#000000"> subString</text>
<text text-anchor="middle" x="297" y="-297.6561" font-family="Helvetica,sans-Serif" font-size="10.00" fill="#000000">to8</text>
<text text-anchor="middle" x="297" y="-286.6561" font-family="Helvetica,sans-Serif" font-size="10.00" fill="#000000">toUTF8</text>
</g>
<!-- Node3 -->
<g id="node3" class="node">
<title>Node3</title>
<g id="a_node3"><a xlink:href="../../d6/d0c/struct_a_n_t_l_r3___s_t_r_i_n_g___f_a_c_t_o_r_y__struct.html" target="_top" xlink:title="ANTLR3_STRING_FACTORY\l_struct">
<polygon fill="#ffffff" stroke="#000000" points="484,-106.6561 484,-136.6561 636,-136.6561 636,-106.6561 484,-106.6561"/>
<text text-anchor="start" x="492" y="-124.6561" font-family="Helvetica,sans-Serif" font-size="10.00" fill="#000000">ANTLR3_STRING_FACTORY</text>
<text text-anchor="middle" x="560" y="-113.6561" font-family="Helvetica,sans-Serif" font-size="10.00" fill="#000000">_struct</text>
</a>
</g>
</g>
<!-- Node2&#45;&gt;Node3 -->
<g id="edge4" class="edge">
<title>Node2&#45;&gt;Node3</title>
<path fill="none" stroke="#9a32cd" stroke-dasharray="5,2" d="M302.2407,-236.2461C311.8786,-204.882 335.705,-144.0152 381,-118.6561 417.7472,-98.0827 465.7418,-100.1286 502.7825,-106.613"/>
<polygon fill="#9a32cd" stroke="#9a32cd" points="298.835,-235.4239 299.4115,-246.003 305.5581,-237.3734 298.835,-235.4239"/>
<text text-anchor="middle" x="423" y="-187.6561" font-family="Helvetica,sans-Serif" font-size="10.00" fill="#000000"> newPtr</text>
<text text-anchor="middle" x="423" y="-176.6561" font-family="Helvetica,sans-Serif" font-size="10.00" fill="#000000">newStr</text>
<text text-anchor="middle" x="423" y="-165.6561" font-family="Helvetica,sans-Serif" font-size="10.00" fill="#000000">newSize</text>
<text text-anchor="middle" x="423" y="-154.6561" font-family="Helvetica,sans-Serif" font-size="10.00" fill="#000000">newRaw</text>
<text text-anchor="middle" x="423" y="-143.6561" font-family="Helvetica,sans-Serif" font-size="10.00" fill="#000000">newStr8</text>
<text text-anchor="middle" x="423" y="-132.6561" font-family="Helvetica,sans-Serif" font-size="10.00" fill="#000000">newPtr8</text>
<text text-anchor="middle" x="423" y="-121.6561" font-family="Helvetica,sans-Serif" font-size="10.00" fill="#000000">printable</text>
</g>
<!-- Node2&#45;&gt;Node6 -->
<g id="edge17" class="edge">
<title>Node2&#45;&gt;Node6</title>
<path fill="none" stroke="#9a32cd" stroke-dasharray="5,2" d="M327.9535,-269.2412C343.5701,-275.5346 362.9789,-282.5195 381,-286.6561 425.3961,-296.847 437.5037,-294.4313 483,-296.6561 826.262,-313.4425 1235.634,-302.8966 1410.9157,-296.9319"/>
<polygon fill="#9a32cd" stroke="#9a32cd" points="328.8699,-265.8326 318.2915,-265.2423 326.1929,-272.3005 328.8699,-265.8326"/>
<text text-anchor="middle" x="898.5" y="-320.6561" font-family="Helvetica,sans-Serif" font-size="10.00" fill="#000000"> makeDot</text>
<text text-anchor="middle" x="898.5" y="-309.6561" font-family="Helvetica,sans-Serif" font-size="10.00" fill="#000000">getText</text>
</g>
<!-- Node7 -->
<g id="node7" class="node">
<title>Node7</title>
<g id="a_node7"><a xlink:href="../../d9/d78/struct_a_n_t_l_r3___c_o_m_m_o_n___t_o_k_e_n__struct.html" target="_top" xlink:title="ANTLR3_COMMON_TOKEN\l_struct">
<polygon fill="#ffffff" stroke="#000000" points="938,-119.6561 938,-149.6561 1084,-149.6561 1084,-119.6561 938,-119.6561"/>
<text text-anchor="start" x="946" y="-137.6561" font-family="Helvetica,sans-Serif" font-size="10.00" fill="#000000">ANTLR3_COMMON_TOKEN</text>
<text text-anchor="middle" x="1011" y="-126.6561" font-family="Helvetica,sans-Serif" font-size="10.00" fill="#000000">_struct</text>
</a>
</g>
</g>
<!-- Node2&#45;&gt;Node7 -->
<g id="edge9" class="edge">
<title>Node2&#45;&gt;Node7</title>
<path fill="none" stroke="#9a32cd" stroke-dasharray="5,2" d="M304.7533,-236.6245C325.1627,-186.5776 378.9537,-55.0214 381,-53.6561 578.9141,78.3872 890.703,-69.6663 983.8535,-119.4864"/>
<polygon fill="#9a32cd" stroke="#9a32cd" points="301.4691,-235.4093 300.9355,-245.9906 307.9513,-238.0516 301.4691,-235.4093"/>
<text text-anchor="middle" x="679" y="-38.6561" font-family="Helvetica,sans-Serif" font-size="10.00" fill="#000000"> getText</text>
<text text-anchor="middle" x="679" y="-27.6561" font-family="Helvetica,sans-Serif" font-size="10.00" fill="#000000">toString</text>
<text text-anchor="middle" x="679" y="-16.6561" font-family="Helvetica,sans-Serif" font-size="10.00" fill="#000000">text</text>
</g>
<!-- Node8 -->
<g id="node8" class="node">
<title>Node8</title>
<g id="a_node8"><a xlink:href="../../d2/dda/struct_a_n_t_l_r3___i_n_p_u_t___s_t_r_e_a_m__struct.html" target="_top" xlink:title="ANTLR3_INPUT_STREAM\l_struct">
<polygon fill="#ffffff" stroke="#000000" points="721,-189.6561 721,-219.6561 859,-219.6561 859,-189.6561 721,-189.6561"/>
<text text-anchor="start" x="729" y="-207.6561" font-family="Helvetica,sans-Serif" font-size="10.00" fill="#000000">ANTLR3_INPUT_STREAM</text>
<text text-anchor="middle" x="790" y="-196.6561" font-family="Helvetica,sans-Serif" font-size="10.00" fill="#000000">_struct</text>
</a>
</g>
</g>
<!-- Node2&#45;&gt;Node8 -->
<g id="edge11" class="edge">
<title>Node2&#45;&gt;Node8</title>
<path fill="none" stroke="#9a32cd" stroke-dasharray="5,2" d="M352.016,-266.9132C361.6376,-268.471 371.5814,-269.8218 381,-270.6561 513.7223,-282.4134 668.5307,-242.5942 743.9615,-219.6868"/>
<polygon fill="#9a32cd" stroke="#9a32cd" points="352.5878,-263.4603 342.1414,-265.2279 351.41,-270.3605 352.5878,-263.4603"/>
<text text-anchor="middle" x="560" y="-284.6561" font-family="Helvetica,sans-Serif" font-size="10.00" fill="#000000"> substr</text>
<text text-anchor="middle" x="560" y="-273.6561" font-family="Helvetica,sans-Serif" font-size="10.00" fill="#000000">fileName</text>
</g>
<!-- Node9 -->
<g id="node9" class="node">
<title>Node9</title>
<g id="a_node9"><a xlink:href="../../d0/db0/struct_a_n_t_l_r3___i_n_t___s_t_r_e_a_m__struct.html" target="_top" xlink:title="ANTLR3_INT_STREAM_struct">
<polygon fill="#ffffff" stroke="#000000" points="483,-211.1561 483,-230.1561 637,-230.1561 637,-211.1561 483,-211.1561"/>
<text text-anchor="middle" x="560" y="-218.1561" font-family="Helvetica,sans-Serif" font-size="10.00" fill="#000000">ANTLR3_INT_STREAM_struct</text>
</a>
</g>
</g>
<!-- Node2&#45;&gt;Node9 -->
<g id="edge13" class="edge">
<title>Node2&#45;&gt;Node9</title>
<path fill="none" stroke="#9a32cd" stroke-dasharray="5,2" d="M371.3549,-246.0132C400.5545,-242.2018 434.3554,-237.7593 465,-233.6561 473.3323,-232.5405 482.074,-231.3591 490.7394,-230.1814"/>
<polygon fill="#9a32cd" stroke="#9a32cd" points="370.6947,-242.5696 361.2313,-247.3335 371.5999,-249.5108 370.6947,-242.5696"/>
<text text-anchor="middle" x="423" y="-258.6561" font-family="Helvetica,sans-Serif" font-size="10.00" fill="#000000"> getSourceName</text>
<text text-anchor="middle" x="423" y="-247.6561" font-family="Helvetica,sans-Serif" font-size="10.00" fill="#000000">streamName</text>
</g>
<!-- Node3&#45;&gt;Node2 -->
<g id="edge3" class="edge">
<title>Node3&#45;&gt;Node2</title>
<path fill="none" stroke="#9a32cd" stroke-dasharray="5,2" d="M501.1655,-141.741C494.5157,-145.6509 488.2543,-150.2554 483,-155.6561 468.2666,-170.8003 480.9717,-185.8241 465,-199.6561 435.9102,-224.8488 417.5302,-208.5551 381,-220.6561 358.8042,-228.0088 334.1971,-238.5579 317.3852,-246.1502"/>
<polygon fill="#9a32cd" stroke="#9a32cd" points="503.2244,-144.6107 510.4159,-136.8304 499.9422,-138.4279 503.2244,-144.6107"/>
<text text-anchor="middle" x="423" y="-223.6561" font-family="Helvetica,sans-Serif" font-size="10.00" fill="#000000"> factory</text>
</g>
<!-- Node3&#45;&gt;Node6 -->
<g id="edge18" class="edge">
<title>Node3&#45;&gt;Node6</title>
<path fill="none" stroke="#9a32cd" stroke-dasharray="5,2" d="M646.1252,-107.9878C788.2604,-88.556 1079.5418,-61.996 1314,-126.6561 1351.0206,-136.8659 1362.6411,-138.138 1393,-161.6561 1436.9024,-195.666 1473.2002,-251.9036 1488.9982,-278.6407"/>
<polygon fill="#9a32cd" stroke="#9a32cd" points="645.5753,-104.5305 636.152,-109.3732 646.5385,-111.4639 645.5753,-104.5305"/>
<text text-anchor="middle" x="1011" y="-92.6561" font-family="Helvetica,sans-Serif" font-size="10.00" fill="#000000"> strFactory</text>
</g>
<!-- Node3&#45;&gt;Node7 -->
<g id="edge16" class="edge">
<title>Node3&#45;&gt;Node7</title>
<path fill="none" stroke="#9a32cd" stroke-dasharray="5,2" d="M646.3358,-124.1448C730.8213,-126.58 858.0991,-130.2488 937.7744,-132.5454"/>
<polygon fill="#9a32cd" stroke="#9a32cd" points="646.3476,-120.6437 636.2509,-123.8541 646.1458,-127.6408 646.3476,-120.6437"/>
<text text-anchor="middle" x="790" y="-133.6561" font-family="Helvetica,sans-Serif" font-size="10.00" fill="#000000"> strFactory</text>
</g>
<!-- Node3&#45;&gt;Node8 -->
<g id="edge14" class="edge">
<title>Node3&#45;&gt;Node8</title>
<path fill="none" stroke="#9a32cd" stroke-dasharray="5,2" d="M646.048,-137.9984C665.1117,-142.749 684.9909,-148.6051 703,-155.6561 725.9215,-164.6306 750.1825,-178.7252 767.2445,-189.4986"/>
<polygon fill="#9a32cd" stroke="#9a32cd" points="646.7094,-134.5576 636.1675,-135.6144 645.0675,-141.3623 646.7094,-134.5576"/>
<text text-anchor="middle" x="679" y="-158.6561" font-family="Helvetica,sans-Serif" font-size="10.00" fill="#000000"> strFactory</text>
</g>
<!-- Node4 -->
<g id="node4" class="node">
<title>Node4</title>
<g id="a_node4"><a xlink:href="../../d0/de4/struct_a_n_t_l_r3___v_e_c_t_o_r__struct.html" target="_top" xlink:title="ANTLR3_VECTOR_struct">
<polygon fill="#ffffff" stroke="#000000" points="231,-66.1561 231,-85.1561 363,-85.1561 363,-66.1561 231,-66.1561"/>
<text text-anchor="middle" x="297" y="-73.1561" font-family="Helvetica,sans-Serif" font-size="10.00" fill="#000000">ANTLR3_VECTOR_struct</text>
</a>
</g>
</g>
<!-- Node4&#45;&gt;Node3 -->
<g id="edge5" class="edge">
<title>Node4&#45;&gt;Node3</title>
<path fill="none" stroke="#9a32cd" stroke-dasharray="5,2" d="M343.2905,-63.9905C377.522,-57.3592 424.9483,-52.3962 465,-63.6561 494.5784,-71.9717 524.0618,-92.3317 542.1582,-106.5669"/>
<polygon fill="#9a32cd" stroke="#9a32cd" points="342.202,-60.6411 333.1133,-66.0859 343.6137,-67.4973 342.202,-60.6411"/>
<text text-anchor="middle" x="423" y="-66.6561" font-family="Helvetica,sans-Serif" font-size="10.00" fill="#000000"> strings</text>
</g>
<!-- Node4&#45;&gt;Node8 -->
<g id="edge15" class="edge">
<title>Node4&#45;&gt;Node8</title>
<path fill="none" stroke="#9a32cd" stroke-dasharray="5,2" d="M373.5877,-80.7668C410.8354,-84.6546 450.6251,-91.341 465,-102.6561 481.2796,-115.4706 466.9178,-132.5948 483,-145.6561 518.705,-174.6543 641.7141,-191.1175 720.765,-198.9323"/>
<polygon fill="#9a32cd" stroke="#9a32cd" points="373.467,-77.2381 363.1725,-79.7429 372.7821,-84.2045 373.467,-77.2381"/>
<text text-anchor="middle" x="560" y="-191.6561" font-family="Helvetica,sans-Serif" font-size="10.00" fill="#000000"> markers</text>
</g>
<!-- Node5 -->
<g id="node5" class="node">
<title>Node5</title>
<g id="a_node5"><a xlink:href="../../d6/d79/struct_a_n_t_l_r3___v_e_c_t_o_r___e_l_e_m_e_n_t__struct.html" target="_top" xlink:title="ANTLR3_VECTOR_ELEMENT\l_struct">
<polygon fill="#ffffff" stroke="#000000" points="0,-60.6561 0,-90.6561 155,-90.6561 155,-60.6561 0,-60.6561"/>
<text text-anchor="start" x="8" y="-78.6561" font-family="Helvetica,sans-Serif" font-size="10.00" fill="#000000">ANTLR3_VECTOR_ELEMENT</text>
<text text-anchor="middle" x="77.5" y="-67.6561" font-family="Helvetica,sans-Serif" font-size="10.00" fill="#000000">_struct</text>
</a>
</g>
</g>
<!-- Node5&#45;&gt;Node4 -->
<g id="edge6" class="edge">
<title>Node5&#45;&gt;Node4</title>
<path fill="none" stroke="#9a32cd" stroke-dasharray="5,2" d="M165.4315,-75.6561C187.1929,-75.6561 210.147,-75.6561 230.6822,-75.6561"/>
<polygon fill="#9a32cd" stroke="#9a32cd" points="165.1964,-72.1562 155.1964,-75.6561 165.1964,-79.1562 165.1964,-72.1562"/>
<text text-anchor="middle" x="193" y="-89.6561" font-family="Helvetica,sans-Serif" font-size="10.00" fill="#000000"> internal</text>
<text text-anchor="middle" x="193" y="-78.6561" font-family="Helvetica,sans-Serif" font-size="10.00" fill="#000000">elements</text>
</g>
<!-- Node6&#45;&gt;Node1 -->
<g id="edge7" class="edge">
<title>Node6&#45;&gt;Node1</title>
<path fill="none" stroke="#9a32cd" stroke-dasharray="5,2" d="M1453.972,-312.5175C1403.4988,-332.6414 1317.3194,-361.6561 1240,-361.6561 790,-361.6561 790,-361.6561 790,-361.6561 735.395,-361.6561 673.4977,-361.6561 627.6804,-361.6561"/>
<polygon fill="#9a32cd" stroke="#9a32cd" points="1455.3208,-315.7474 1463.2739,-308.7475 1452.6915,-309.26 1455.3208,-315.7474"/>
<text text-anchor="middle" x="1011" y="-364.6561" font-family="Helvetica,sans-Serif" font-size="10.00" fill="#000000"> adaptor</text>
</g>
<!-- Node7&#45;&gt;Node6 -->
<g id="edge8" class="edge">
<title>Node7&#45;&gt;Node6</title>
<path fill="none" stroke="#9a32cd" stroke-dasharray="5,2" d="M1094.3136,-128.7515C1156.7198,-127.203 1243.1751,-131.257 1314,-157.6561 1386.0831,-184.5242 1454.2956,-248.7724 1483.108,-278.3167"/>
<polygon fill="#9a32cd" stroke="#9a32cd" points="1094.0113,-125.2589 1084.1215,-129.0593 1094.2226,-132.2557 1094.0113,-125.2589"/>
<text text-anchor="middle" x="1240" y="-182.6561" font-family="Helvetica,sans-Serif" font-size="10.00" fill="#000000"> createTokenFromToken</text>
<text text-anchor="middle" x="1240" y="-171.6561" font-family="Helvetica,sans-Serif" font-size="10.00" fill="#000000">getToken</text>
<text text-anchor="middle" x="1240" y="-160.6561" font-family="Helvetica,sans-Serif" font-size="10.00" fill="#000000">createToken</text>
</g>
<!-- Node10 -->
<g id="node10" class="node">
<title>Node10</title>
<g id="a_node10"><a xlink:href="../../d1/db2/struct_a_n_t_l_r3___t_o_k_e_n___f_a_c_t_o_r_y__struct.html" target="_top" xlink:title="ANTLR3 Token factory interface to create lots of tokens efficiently rather than creating and freeing ...">
<polygon fill="#ffffff" stroke="#000000" points="1166,-200.6561 1166,-230.6561 1314,-230.6561 1314,-200.6561 1166,-200.6561"/>
<text text-anchor="start" x="1174" y="-218.6561" font-family="Helvetica,sans-Serif" font-size="10.00" fill="#000000">ANTLR3_TOKEN_FACTORY</text>
<text text-anchor="middle" x="1240" y="-207.6561" font-family="Helvetica,sans-Serif" font-size="10.00" fill="#000000">_struct</text>
</a>
</g>
</g>
<!-- Node7&#45;&gt;Node10 -->
<g id="edge20" class="edge">
<title>Node7&#45;&gt;Node10</title>
<path fill="none" stroke="#9a32cd" stroke-dasharray="5,2" d="M1094.033,-152.02C1112.0622,-156.6851 1130.8595,-162.2478 1148,-168.6561 1171.352,-177.3869 1196.4682,-190.4929 1214.5482,-200.6489"/>
<polygon fill="#9a32cd" stroke="#9a32cd" points="1094.6631,-148.5695 1084.1111,-149.521 1092.9534,-155.3575 1094.6631,-148.5695"/>
<text text-anchor="middle" x="1125" y="-193.6561" font-family="Helvetica,sans-Serif" font-size="10.00" fill="#000000"> pools</text>
<text text-anchor="middle" x="1125" y="-182.6561" font-family="Helvetica,sans-Serif" font-size="10.00" fill="#000000">unTruc</text>
<text text-anchor="middle" x="1125" y="-171.6561" font-family="Helvetica,sans-Serif" font-size="10.00" fill="#000000">newToken</text>
</g>
<!-- Node8&#45;&gt;Node7 -->
<g id="edge10" class="edge">
<title>Node8&#45;&gt;Node7</title>
<path fill="none" stroke="#9a32cd" stroke-dasharray="5,2" d="M847.2897,-186.5101C883.3139,-175.0997 929.2491,-160.5501 963.2876,-149.7687"/>
<polygon fill="#9a32cd" stroke="#9a32cd" points="845.8864,-183.2831 837.41,-189.6394 848.0001,-189.9564 845.8864,-183.2831"/>
<text text-anchor="middle" x="898.5" y="-179.6561" font-family="Helvetica,sans-Serif" font-size="10.00" fill="#000000"> input</text>
</g>
<!-- Node8&#45;&gt;Node10 -->
<g id="edge21" class="edge">
<title>Node8&#45;&gt;Node10</title>
<path fill="none" stroke="#9a32cd" stroke-dasharray="5,2" d="M869.5507,-206.6007C953.28,-208.6474 1084.0377,-211.8437 1165.7242,-213.8405"/>
<polygon fill="#9a32cd" stroke="#9a32cd" points="869.4089,-203.0963 859.3263,-206.3508 869.2378,-210.0942 869.4089,-203.0963"/>
<text text-anchor="middle" x="1011" y="-215.6561" font-family="Helvetica,sans-Serif" font-size="10.00" fill="#000000"> input</text>
</g>
<!-- Node9&#45;&gt;Node8 -->
<g id="edge12" class="edge">
<title>Node9&#45;&gt;Node8</title>
<path fill="none" stroke="#9a32cd" stroke-dasharray="5,2" d="M647.4899,-214.5699C671.7165,-212.8846 697.6737,-211.0788 720.7086,-209.4764"/>
<polygon fill="#9a32cd" stroke="#9a32cd" points="646.9595,-211.0982 637.2265,-215.2839 647.4453,-218.0814 646.9595,-211.0982"/>
<text text-anchor="middle" x="679" y="-216.6561" font-family="Helvetica,sans-Serif" font-size="10.00" fill="#000000"> istream</text>
</g>
<!-- Node10&#45;&gt;Node6 -->
<g id="edge19" class="edge">
<title>Node10&#45;&gt;Node6</title>
<path fill="none" stroke="#9a32cd" stroke-dasharray="5,2" d="M1299.257,-233.6058C1344.1497,-247.2044 1405.1372,-265.6783 1447.5652,-278.5303"/>
<polygon fill="#9a32cd" stroke="#9a32cd" points="1300.2338,-230.2447 1289.6486,-230.6953 1298.2045,-236.9441 1300.2338,-230.2447"/>
<text text-anchor="middle" x="1362.5" y="-264.6561" font-family="Helvetica,sans-Serif" font-size="10.00" fill="#000000"> tokenFactory</text>
</g>
</g>
</svg>
