<?xml version="1.0" encoding="UTF-8" standalone="no"?>
<!DOCTYPE svg PUBLIC "-//W3C//DTD SVG 1.1//EN"
 "http://www.w3.org/Graphics/SVG/1.1/DTD/svg11.dtd">
<!-- Generated by graphviz version 2.40.1 (20161225.0304)
 -->
<!-- Title: omc_ExpressionDumpTpl_dumpCref Pages: 1 -->
<svg width="903pt" height="78pt"
 viewBox="0.00 0.00 903.00 77.50" xmlns="http://www.w3.org/2000/svg" xmlns:xlink="http://www.w3.org/1999/xlink">
<g id="graph0" class="graph" transform="scale(1 1) rotate(0) translate(4 73.5)">
<title>omc_ExpressionDumpTpl_dumpCref</title>
<polygon fill="#ffffff" stroke="transparent" points="-4,4 -4,-73.5 899,-73.5 899,4 -4,4"/>
<!-- Node419 -->
<g id="node1" class="node">
<title>Node419</title>
<polygon fill="#bfbfbf" stroke="#000000" points="0,-22.5 0,-52.5 129,-52.5 129,-22.5 0,-22.5"/>
<text text-anchor="start" x="8" y="-40.5" font-family="Helvetica,sans-Serif" font-size="10.00" fill="#000000">omc_ExpressionDumpTpl</text>
<text text-anchor="middle" x="64.5" y="-29.5" font-family="Helvetica,sans-Serif" font-size="10.00" fill="#000000">_dumpCref</text>
</g>
<!-- Node420 -->
<g id="node2" class="node">
<title>Node420</title>
<g id="a_node2"><a xlink:href="../../d3/d40/_expression_dump_tpl_8c.html#a8eb59f4997e09896e8b9f73e7d49e6c0" target="_top" xlink:title="omc_ExpressionDumpTpl\l_dumpSubscripts">
<polygon fill="#ffffff" stroke="#000000" points="165,-22.5 165,-52.5 294,-52.5 294,-22.5 165,-22.5"/>
<text text-anchor="start" x="173" y="-40.5" font-family="Helvetica,sans-Serif" font-size="10.00" fill="#000000">omc_ExpressionDumpTpl</text>
<text text-anchor="middle" x="229.5" y="-29.5" font-family="Helvetica,sans-Serif" font-size="10.00" fill="#000000">_dumpSubscripts</text>
</a>
</g>
</g>
<!-- Node419&#45;&gt;Node420 -->
<g id="edge1" class="edge">
<title>Node419&#45;&gt;Node420</title>
<path fill="none" stroke="#191970" d="M129.2388,-37.5C137.5831,-37.5 146.1818,-37.5 154.6713,-37.5"/>
<polygon fill="#191970" stroke="#191970" points="154.9479,-41.0001 164.9479,-37.5 154.9479,-34.0001 154.9479,-41.0001"/>
</g>
<!-- Node421 -->
<g id="node3" class="node">
<title>Node421</title>
<g id="a_node3"><a xlink:href="../../d3/db3/_flags_8c.html#abc3d84cf6e1cf18f0cec0f052e7c85d9" target="_top" xlink:title="omc_Flags_getConfigBool">
<polygon fill="#ffffff" stroke="#000000" points="330,-50 330,-69 461,-69 461,-50 330,-50"/>
<text text-anchor="middle" x="395.5" y="-57" font-family="Helvetica,sans-Serif" font-size="10.00" fill="#000000">omc_Flags_getConfigBool</text>
</a>
</g>
</g>
<!-- Node420&#45;&gt;Node421 -->
<g id="edge2" class="edge">
<title>Node420&#45;&gt;Node421</title>
<path fill="none" stroke="#191970" d="M294.1553,-46.0688C302.5959,-47.1874 311.303,-48.3414 319.9033,-49.4812"/>
<polygon fill="#191970" stroke="#191970" points="319.5546,-52.9655 329.9278,-50.8097 320.4743,-46.0261 319.5546,-52.9655"/>
</g>
<!-- Node425 -->
<g id="node7" class="node">
<title>Node425</title>
<g id="a_node7"><a xlink:href="../../d3/d40/_expression_dump_tpl_8c.html#aa37d8338b7788d1d5500361a9c13e29e" target="_top" xlink:title="omc_ExpressionDumpTpl\l_fun__48">
<polygon fill="#ffffff" stroke="#000000" points="331,-.5 331,-30.5 460,-30.5 460,-.5 331,-.5"/>
<text text-anchor="start" x="339" y="-18.5" font-family="Helvetica,sans-Serif" font-size="10.00" fill="#000000">omc_ExpressionDumpTpl</text>
<text text-anchor="middle" x="395.5" y="-7.5" font-family="Helvetica,sans-Serif" font-size="10.00" fill="#000000">_fun__48</text>
</a>
</g>
</g>
<!-- Node420&#45;&gt;Node425 -->
<g id="edge6" class="edge">
<title>Node420&#45;&gt;Node425</title>
<path fill="none" stroke="#191970" d="M294.1553,-28.9312C302.8861,-27.7741 311.902,-26.5792 320.7899,-25.4013"/>
<polygon fill="#191970" stroke="#191970" points="321.2947,-28.8651 330.7481,-24.0816 320.3749,-21.9258 321.2947,-28.8651"/>
</g>
<!-- Node422 -->
<g id="node4" class="node">
<title>Node422</title>
<g id="a_node4"><a xlink:href="../../d3/db3/_flags_8c.html#a96ba70d54b6662cf90933a207c0c6b8e" target="_top" xlink:title="omc_Flags_getConfigValue">
<polygon fill="#ffffff" stroke="#000000" points="497,-50 497,-69 634,-69 634,-50 497,-50"/>
<text text-anchor="middle" x="565.5" y="-57" font-family="Helvetica,sans-Serif" font-size="10.00" fill="#000000">omc_Flags_getConfigValue</text>
</a>
</g>
</g>
<!-- Node421&#45;&gt;Node422 -->
<g id="edge3" class="edge">
<title>Node421&#45;&gt;Node422</title>
<path fill="none" stroke="#191970" d="M461.2264,-59.5C469.6209,-59.5 478.28,-59.5 486.8525,-59.5"/>
<polygon fill="#191970" stroke="#191970" points="486.8551,-63.0001 496.855,-59.5 486.855,-56.0001 486.8551,-63.0001"/>
</g>
<!-- Node423 -->
<g id="node5" class="node">
<title>Node423</title>
<g id="a_node5"><a xlink:href="../../d3/db3/_flags_8c.html#a760d66f53b65ac257876ca0f6308f09f" target="_top" xlink:title="omc_Flags_loadFlags">
<polygon fill="#ffffff" stroke="#000000" points="670,-50 670,-69 782,-69 782,-50 670,-50"/>
<text text-anchor="middle" x="726" y="-57" font-family="Helvetica,sans-Serif" font-size="10.00" fill="#000000">omc_Flags_loadFlags</text>
</a>
</g>
</g>
<!-- Node422&#45;&gt;Node423 -->
<g id="edge4" class="edge">
<title>Node422&#45;&gt;Node423</title>
<path fill="none" stroke="#191970" d="M634.032,-59.5C642.5123,-59.5 651.1709,-59.5 659.6182,-59.5"/>
<polygon fill="#191970" stroke="#191970" points="659.791,-63.0001 669.7909,-59.5 659.7909,-56.0001 659.791,-63.0001"/>
</g>
<!-- Node424 -->
<g id="node6" class="node">
<title>Node424</title>
<g id="a_node6"><a xlink:href="../../da/d72/_compiler_2boot_2build_2list_8c.html#a3ec1ee3a5ff53be9af368e290be09182" target="_top" xlink:title="omc_List_fold">
<polygon fill="#ffffff" stroke="#000000" points="818,-50 818,-69 895,-69 895,-50 818,-50"/>
<text text-anchor="middle" x="856.5" y="-57" font-family="Helvetica,sans-Serif" font-size="10.00" fill="#000000">omc_List_fold</text>
</a>
</g>
</g>
<!-- Node423&#45;&gt;Node424 -->
<g id="edge5" class="edge">
<title>Node423&#45;&gt;Node424</title>
<path fill="none" stroke="#191970" d="M782.1011,-59.5C790.5528,-59.5 799.2135,-59.5 807.5007,-59.5"/>
<polygon fill="#191970" stroke="#191970" points="807.7542,-63.0001 817.7542,-59.5 807.7541,-56.0001 807.7542,-63.0001"/>
</g>
<!-- Node426 -->
<g id="node8" class="node">
<title>Node426</title>
<g id="a_node8"><a xlink:href="../../d7/d52/_tpl_8c.html#a79ae8e0232bfdb080d90e9f7890dc199" target="_top" xlink:title="omc_Tpl_pushIter">
<polygon fill="#ffffff" stroke="#000000" points="518,-6 518,-25 613,-25 613,-6 518,-6"/>
<text text-anchor="middle" x="565.5" y="-13" font-family="Helvetica,sans-Serif" font-size="10.00" fill="#000000">omc_Tpl_pushIter</text>
</a>
</g>
</g>
<!-- Node425&#45;&gt;Node426 -->
<g id="edge7" class="edge">
<title>Node425&#45;&gt;Node426</title>
<path fill="none" stroke="#191970" d="M460.2547,-15.5C475.8073,-15.5 492.3201,-15.5 507.5414,-15.5"/>
<polygon fill="#191970" stroke="#191970" points="507.8453,-19.0001 517.8452,-15.5 507.8452,-12.0001 507.8453,-19.0001"/>
</g>
</g>
</svg>
