<?xml version="1.0" encoding="UTF-8" standalone="no"?>
<!DOCTYPE svg PUBLIC "-//W3C//DTD SVG 1.1//EN"
 "http://www.w3.org/Graphics/SVG/1.1/DTD/svg11.dtd">
<!-- Generated by graphviz version 2.40.1 (20161225.0304)
 -->
<!-- Title: CVSpbcgB Pages: 1 -->
<svg width="193pt" height="66pt"
 viewBox="0.00 0.00 193.00 66.00" xmlns="http://www.w3.org/2000/svg" xmlns:xlink="http://www.w3.org/1999/xlink">
<g id="graph0" class="graph" transform="scale(1 1) rotate(0) translate(4 62)">
<title>CVSpbcgB</title>
<polygon fill="#ffffff" stroke="transparent" points="-4,4 -4,-62 189,-62 189,4 -4,4"/>
<!-- Node4 -->
<g id="node1" class="node">
<title>Node4</title>
<polygon fill="#bfbfbf" stroke="#000000" points="0,-19.5 0,-38.5 65,-38.5 65,-19.5 0,-19.5"/>
<text text-anchor="middle" x="32.5" y="-26.5" font-family="Helvetica,sans-Serif" font-size="10.00" fill="#000000">CVSpbcgB</text>
</g>
<!-- Node5 -->
<g id="node2" class="node">
<title>Node5</title>
<g id="a_node2"><a xlink:href="../../d9/d54/3rd_party_2sundials_2build_2include_2cvode_2cvode__impl_8h.html#aca8edaf29469da9950fe695b90ef196e" target="_top" xlink:title="cvProcessError">
<polygon fill="#ffffff" stroke="#000000" points="101,-38.5 101,-57.5 185,-57.5 185,-38.5 101,-38.5"/>
<text text-anchor="middle" x="143" y="-45.5" font-family="Helvetica,sans-Serif" font-size="10.00" fill="#000000">cvProcessError</text>
</a>
</g>
</g>
<!-- Node4&#45;&gt;Node5 -->
<g id="edge1" class="edge">
<title>Node4&#45;&gt;Node5</title>
<path fill="none" stroke="#191970" d="M65.056,-34.5979C73.1967,-35.9976 82.1331,-37.5342 90.9598,-39.0519"/>
<polygon fill="#191970" stroke="#191970" points="90.3821,-42.5039 100.8306,-40.7492 91.5684,-35.6051 90.3821,-42.5039"/>
</g>
<!-- Node6 -->
<g id="node3" class="node">
<title>Node6</title>
<g id="a_node3"><a xlink:href="../../dc/ddc/3rd_party_2flex-2_85_835_2parse_8c.html#a5faf6a2d99f50a4655dd390199a8db7b" target="_top" xlink:title="malloc">
<polygon fill="#ffffff" stroke="#000000" points="120.5,-.5 120.5,-19.5 165.5,-19.5 165.5,-.5 120.5,-.5"/>
<text text-anchor="middle" x="143" y="-7.5" font-family="Helvetica,sans-Serif" font-size="10.00" fill="#000000">malloc</text>
</a>
</g>
</g>
<!-- Node4&#45;&gt;Node6 -->
<g id="edge2" class="edge">
<title>Node4&#45;&gt;Node6</title>
<path fill="none" stroke="#191970" d="M65.056,-23.4021C79.3998,-20.9358 96.2135,-18.0447 110.5456,-15.5804"/>
<polygon fill="#191970" stroke="#191970" points="111.2099,-19.0176 120.4721,-13.8736 110.0236,-12.1189 111.2099,-19.0176"/>
</g>
</g>
</svg>
